<svg xmlns="http://www.w3.org/2000/svg" viewBox="0 0 800.03 435.75"><defs><style>.cls-1,.cls-12,.cls-13,.cls-15,.cls-16,.cls-6,.cls-8,.cls-9{fill:none;}.cls-1,.cls-10,.cls-11,.cls-12,.cls-13,.cls-14,.cls-15,.cls-16,.cls-2,.cls-4,.cls-5,.cls-6,.cls-8,.cls-9{stroke:#231f20;}.cls-1,.cls-13,.cls-14,.cls-15,.cls-16,.cls-2,.cls-4,.cls-5,.cls-6,.cls-7,.cls-8{stroke-linecap:round;stroke-linejoin:round;}.cls-1,.cls-15,.cls-16,.cls-2,.cls-7,.cls-9{stroke-width:0.25px;}.cls-10,.cls-14,.cls-2,.cls-3,.cls-4,.cls-5,.cls-7{fill:#b4c0be;}.cls-4{stroke-width:0.15px;}.cls-5,.cls-6{stroke-width:0.15px;}.cls-7{stroke:#fff;}.cls-10,.cls-11,.cls-12,.cls-8{stroke-width:0.4px;}.cls-10,.cls-11,.cls-12,.cls-9{stroke-miterlimit:10;}.cls-11{fill:#e1e5e5;}.cls-13,.cls-14{stroke-width:0.2px;}.cls-15{stroke-dasharray:2 2;}.cls-16{stroke-dasharray:1.32 1.32;}.cls-17{fill:#231f20;}</style></defs><title>Asset 6</title><g id="Layer_2" data-name="Layer 2"><g id="Unit15B_Upper_Hover"><g id="LWPOLYLINE"><rect class="cls-1" x="196.07" y="330.49" width="9.38" height="36.68"/></g><g id="LWPOLYLINE-2" data-name="LWPOLYLINE"><polyline class="cls-1" points="196.07 330.49 186.7 330.49 186.7 367.17 196.07 367.17"/></g><g id="LWPOLYLINE-3" data-name="LWPOLYLINE"><polyline class="cls-1" points="186.7 330.49 177.32 330.49 177.32 367.17 186.7 367.17"/></g><g id="LWPOLYLINE-4" data-name="LWPOLYLINE"><polyline class="cls-1" points="177.32 330.49 167.95 330.49 167.95 367.17 177.32 367.17"/></g><g id="LWPOLYLINE-5" data-name="LWPOLYLINE"><polyline class="cls-1" points="167.95 330.49 158.57 330.49 158.57 367.17 167.95 367.17"/></g><g id="LWPOLYLINE-6" data-name="LWPOLYLINE"><polyline class="cls-1" points="158.57 330.49 149.2 330.49 149.2 367.17 158.57 367.17"/></g><g id="LWPOLYLINE-7" data-name="LWPOLYLINE"><polyline class="cls-1" points="149.2 330.49 139.82 330.49 139.82 367.17 149.2 367.17"/></g><g id="LWPOLYLINE-8" data-name="LWPOLYLINE"><polyline class="cls-1" points="139.82 330.49 130.45 330.49 130.45 367.17 139.82 367.17"/></g><g id="LWPOLYLINE-9" data-name="LWPOLYLINE"><polyline class="cls-1" points="130.45 330.49 121.07 330.49 121.07 367.17 130.45 367.17"/></g><g id="LWPOLYLINE-10" data-name="LWPOLYLINE"><polyline class="cls-1" points="121.07 330.49 111.7 330.49 111.7 367.17 121.07 367.17"/></g><g id="LWPOLYLINE-11" data-name="LWPOLYLINE"><rect class="cls-1" x="177.32" y="370.81" width="5.98" height="36.68"/></g><g id="LWPOLYLINE-12" data-name="LWPOLYLINE"><polyline class="cls-1" points="177.32 407.49 167.95 407.49 167.95 370.81 177.32 370.81"/></g><g id="LWPOLYLINE-13" data-name="LWPOLYLINE"><line class="cls-1" x1="167.95" y1="407.49" x2="158.57" y2="407.49"/><line class="cls-1" x1="158.57" y1="370.81" x2="167.95" y2="370.81"/></g><g id="LWPOLYLINE-14" data-name="LWPOLYLINE"><polyline class="cls-1" points="158.57 406.08 158.57 407.49 149.2 407.49"/><polyline class="cls-1" points="149.2 370.81 158.57 370.81 158.57 406.78"/></g><g id="LWPOLYLINE-15" data-name="LWPOLYLINE"><polyline class="cls-1" points="149.2 370.81 149.2 407.49 139.82 407.49 139.82 370.81 150.3 370.81"/></g><g id="LWPOLYLINE-16" data-name="LWPOLYLINE"><polyline class="cls-1" points="139.82 407.49 130.45 407.49 130.45 370.81 139.82 370.81"/></g><g id="LWPOLYLINE-17" data-name="LWPOLYLINE"><polyline class="cls-1" points="130.45 407.49 121.07 407.49 121.07 370.81 130.45 370.81"/></g><g id="LWPOLYLINE-18" data-name="LWPOLYLINE"><polyline class="cls-1" points="121.07 407.49 111.7 407.49 111.7 370.81 121.07 370.81"/></g><g id="LWPOLYLINE-19" data-name="LWPOLYLINE"><path class="cls-1" d="M111.7,370.81H70.45v25.43A11.2,11.2,0,0,0,80.6,407.38l31.1.11Z"/></g><g id="LWPOLYLINE-20" data-name="LWPOLYLINE"><path class="cls-1" d="M70.45,370.81V341.63A11.25,11.25,0,0,1,81.7,330.49h30v40.32"/></g><g id="LWPOLYLINE-21" data-name="LWPOLYLINE"><path class="cls-2" d="M212,331.89v1.42H81.7a8.43,8.43,0,0,0-8.44,8.43v54.5a8.43,8.43,0,0,0,8.44,8.43h76.46l.65,1.41H81.7a9.85,9.85,0,0,1-9.85-9.84v-54.5a9.85,9.85,0,0,1,9.85-9.84H212"/></g><g id="LWPOLYLINE-22" data-name="LWPOLYLINE"><rect class="cls-2" x="107.95" y="367.99" width="86.42" height="1.99"/></g><g id="LWPOLYLINE-23" data-name="LWPOLYLINE"><path class="cls-2" d="M212,331.89v1.42H81.7a8.43,8.43,0,0,0-8.44,8.43v54.5a8.43,8.43,0,0,0,8.44,8.43H184.48l.65,1.41H81.7a9.85,9.85,0,0,1-9.85-9.84v-54.5a9.85,9.85,0,0,1,9.85-9.84H212"/></g><g id="LWPOLYLINE-24" data-name="LWPOLYLINE"><line class="cls-2" x1="182.01" y1="372.8" x2="182.01" y2="371.39"/><polyline class="cls-2" points="183.11 371.39 106.54 371.39 106.54 366.59 202.91 366.59 202.91 365.19 105.14 365.19 105.14 372.8 183.11 372.8"/></g><polygon class="cls-3" points="146.32 370.84 145.97 370.11 186.23 370.11 186.23 407.61 163.54 407.61 154.61 388.62 151.16 387.61 155.72 385.49 152.78 384.7 146.32 370.84"/><polyline class="cls-2" points="167.19 407.49 159.05 390.04 156.21 389.28 160.72 387.17 157.29 386.25 149.72 369.99 141.93 369.99 149.5 386.25 152.94 387.17 148.42 389.28 151.26 390.04 159.4 407.49 167.19 407.49"/><g id="LWPOLYLINE-25" data-name="LWPOLYLINE"><rect class="cls-4" x="34.57" y="45.15" width="105.25" height="103.85"/></g><g id="LWPOLYLINE-26" data-name="LWPOLYLINE"><rect class="cls-5" x="626.12" y="235.83" width="15" height="56.25"/></g><g id="LWPOLYLINE-27" data-name="LWPOLYLINE"><rect class="cls-5" x="753.64" y="251.51" width="15.94" height="22.5"/></g><g id="WIPEOUT"><rect class="cls-5" x="462.35" y="252.8" width="19.69" height="18.52"/><polyline class="cls-5" points="462.35 252.8 462.35 271.31 482.04 271.31 482.04 252.8 462.35 252.8"/></g><g id="LWPOLYLINE-28" data-name="LWPOLYLINE"><path class="cls-6" d="M119.5,63.12h-3.14a2.81,2.81,0,0,0-2.81,2.81v60a2.81,2.81,0,0,0,2.81,2.81h3.14a3.77,3.77,0,0,0,2.65-1.09l3.43-3.43a3.77,3.77,0,0,0,1.09-2.65V70.3a3.74,3.74,0,0,0-1.09-2.65l-3.43-3.43A3.74,3.74,0,0,0,119.5,63.12Z"/></g><g id="LWPOLYLINE-29" data-name="LWPOLYLINE"><rect class="cls-5" x="31.31" y="60.26" width="80.63" height="71.25"/></g><g id="LWPOLYLINE-30" data-name="LWPOLYLINE"><rect class="cls-6" x="36.66" y="97.16" width="14.68" height="31.81"/></g><g id="LINE"><line class="cls-6" x1="34.12" y1="60.26" x2="34.12" y2="131.51"/></g><g id="LINE-2" data-name="LINE"><line class="cls-6" x1="109.12" y1="60.26" x2="109.12" y2="131.51"/></g><g id="LWPOLYLINE-31" data-name="LWPOLYLINE"><rect class="cls-6" x="36.66" y="62.8" width="14.68" height="31.81"/></g><rect class="cls-7" x="734.78" y="348.31" width="27.89" height="25.31"/><rect class="cls-7" x="734.78" y="377.84" width="27.89" height="25.31"/><line class="cls-6" x1="53.66" y1="131.51" x2="53.66" y2="60.26"/><line class="cls-6" x1="56.09" y1="131.51" x2="56.09" y2="60.26"/><g id="LWPOLYLINE-32" data-name="LWPOLYLINE"><rect class="cls-5" x="30.99" y="133.5" width="15.94" height="20.16"/></g><g id="LWPOLYLINE-33" data-name="LWPOLYLINE"><rect class="cls-5" x="30.99" y="38.11" width="15.94" height="20.16"/></g><g id="LINE-3" data-name="LINE"><line class="cls-5" x1="482.04" y1="270.14" x2="462.35" y2="270.14"/></g><g id="LINE-4" data-name="LINE"><line class="cls-5" x1="482.04" y1="253.97" x2="462.35" y2="253.97"/></g><g id="LINE-5" data-name="LINE"><line class="cls-5" x1="463.76" y1="253.97" x2="463.76" y2="270.14"/></g><g id="LINE-6" data-name="LINE"><line class="cls-5" x1="465.87" y1="253.97" x2="465.87" y2="270.14"/></g><g id="LWPOLYLINE-34" data-name="LWPOLYLINE"><rect class="cls-5" x="471.73" y="233.93" width="24.37" height="56.25"/></g><g id="LWPOLYLINE-35" data-name="LWPOLYLINE"><polygon class="cls-5" points="456.57 224.89 455.26 222.97 454.95 223.18 454.39 223.33 453.86 223.07 452.62 221.58 451.6 220.37 450.76 219.29 449.69 217.83 448.75 216.47 448.37 215.93 448.08 215.47 447.71 214.9 447.3 214.24 446.37 212.69 445.54 211.22 444.91 210.05 444.86 209.47 445.19 208.99 445.5 208.78 443.83 206.35 462.54 193.48 475.29 212.02 456.57 224.89"/></g><g id="LINE-7" data-name="LINE"><line class="cls-6" x1="464.21" y1="195.91" x2="445.51" y2="208.78"/></g><g id="LINE-8" data-name="LINE"><line class="cls-6" x1="455.26" y1="222.98" x2="473.97" y2="210.11"/></g><g id="ARC"><path class="cls-6" d="M460,198.78A40.24,40.24,0,0,0,469.8,213"/></g><g id="ARC-2" data-name="ARC"><path class="cls-6" d="M462.82,196.87a101.43,101.43,0,0,0,9.76,14.19"/></g><g id="LWPOLYLINE-36" data-name="LWPOLYLINE"><polygon class="cls-5" points="167.6 150.72 169.51 149.41 169.3 149.1 169.16 148.53 169.41 148.01 170.91 146.77 172.11 145.75 173.19 144.91 174.65 143.84 176.01 142.9 176.56 142.51 177.01 142.23 177.59 141.85 178.24 141.44 179.79 140.52 181.26 139.69 182.44 139.06 183.02 139 183.5 139.34 183.7 139.65 186.14 137.97 199 156.69 180.46 169.44 167.6 150.72"/></g><g id="LINE-9" data-name="LINE"><line class="cls-6" x1="196.57" y1="158.36" x2="183.7" y2="139.65"/></g><g id="LINE-10" data-name="LINE"><line class="cls-6" x1="169.51" y1="149.41" x2="182.38" y2="168.12"/></g><g id="ARC-3" data-name="ARC"><path class="cls-6" d="M193.7,154.19A40.2,40.2,0,0,0,179.51,164"/></g><g id="ARC-4" data-name="ARC"><path class="cls-6" d="M195.61,157a101.17,101.17,0,0,0-14.19,9.76"/></g><g id="LWPOLYLINE-37" data-name="LWPOLYLINE"><rect class="cls-5" x="341.61" y="293.93" width="16.88" height="22.5"/></g><g id="LWPOLYLINE-38" data-name="LWPOLYLINE"><rect class="cls-5" x="341.61" y="207.68" width="16.87" height="22.5"/></g><g id="LWPOLYLINE-39" data-name="LWPOLYLINE"><rect class="cls-5" x="341.61" y="233.93" width="80.62" height="56.25"/></g><g id="LINE-11" data-name="LINE"><line class="cls-6" x1="344.42" y1="290.18" x2="344.42" y2="233.93"/></g><g id="LINE-12" data-name="LINE"><line class="cls-6" x1="419.42" y1="290.18" x2="419.42" y2="233.93"/></g><g id="LWPOLYLINE-40" data-name="LWPOLYLINE"><rect class="cls-6" x="346.96" y="236.47" width="14.68" height="24.31"/></g><g id="LWPOLYLINE-41" data-name="LWPOLYLINE"><rect class="cls-6" x="346.96" y="263.33" width="14.68" height="24.31"/></g><g id="LWPOLYLINE-42" data-name="LWPOLYLINE"><rect class="cls-5" x="688.85" y="278.06" width="80.62" height="35.63"/></g><g id="LINE-13" data-name="LINE"><line class="cls-6" x1="766.66" y1="278.06" x2="766.66" y2="313.69"/></g><g id="LWPOLYLINE-43" data-name="LWPOLYLINE"><rect class="cls-6" x="749.43" y="280.6" width="14.68" height="30.54"/></g><g id="LINE-14" data-name="LINE"><line class="cls-6" x1="766.66" y1="278.06" x2="766.66" y2="313.69"/></g><line class="cls-6" x1="691.66" y1="278.06" x2="691.66" y2="313.69"/><g id="LWPOLYLINE-44" data-name="LWPOLYLINE"><rect class="cls-5" x="688.85" y="211.83" width="80.63" height="35.63"/></g><g id="LINE-15" data-name="LINE"><line class="cls-6" x1="766.66" y1="247.46" x2="766.66" y2="211.83"/></g><g id="LWPOLYLINE-45" data-name="LWPOLYLINE"><rect class="cls-6" x="749.43" y="214.37" width="14.68" height="30.54"/></g><g id="LINE-16" data-name="LINE"><line class="cls-6" x1="766.66" y1="247.46" x2="766.66" y2="211.83"/></g><line class="cls-6" x1="691.66" y1="247.46" x2="691.66" y2="211.83"/><line class="cls-6" x1="364.03" y1="290.18" x2="364.03" y2="233.93"/><line class="cls-6" x1="366.46" y1="290.18" x2="366.46" y2="233.93"/><line class="cls-6" x1="746.82" y1="278.06" x2="746.82" y2="313.69"/><line class="cls-6" x1="744.39" y1="278.06" x2="744.39" y2="313.69"/><line class="cls-6" x1="746.82" y1="211.83" x2="746.82" y2="247.46"/><line class="cls-6" x1="744.39" y1="211.83" x2="744.39" y2="247.46"/><g id="LWPOLYLINE-46" data-name="LWPOLYLINE"><polyline class="cls-8" points="91.31 17.13 91.31 22.76 31.31 22.76 31.31 17.13"/></g><g id="LWPOLYLINE-47" data-name="LWPOLYLINE"><polyline class="cls-8" points="185.06 17.13 185.06 22.76 125.06 22.76 125.06 17.13"/></g><g id="LWPOLYLINE-48" data-name="LWPOLYLINE"><polyline class="cls-8" points="477.56 185.88 477.56 191.51 365.18 191.51 365.18 185.88"/></g><g id="LWPOLYLINE-49" data-name="LWPOLYLINE"><polyline class="cls-8" points="769.47 185.88 769.47 191.51 657.67 191.51 657.67 185.88"/></g><g id="LINE-18" data-name="LINE"><line class="cls-1" x1="688.26" y1="181.2" x2="739.59" y2="181.2"/></g><g id="LINE-19" data-name="LINE"><line class="cls-1" x1="743.34" y1="181.2" x2="766.43" y2="181.2"/></g><g id="LINE-20" data-name="LINE"><line class="cls-1" x1="684.51" y1="181.2" x2="661.42" y2="181.2"/></g><g id="LWPOLYLINE-50" data-name="LWPOLYLINE"><polyline class="cls-8" points="622.05 185.88 622.05 191.51 540.14 191.51 540.14 185.88"/></g><g id="LWPOLYLINE-51" data-name="LWPOLYLINE"><rect class="cls-1" x="34.12" y="13.38" width="25.66" height="1.23"/></g><g id="LWPOLYLINE-52" data-name="LWPOLYLINE"><rect class="cls-1" x="62.83" y="13.38" width="25.66" height="1.23"/></g><g id="LWPOLYLINE-53" data-name="LWPOLYLINE"><rect class="cls-1" x="127.87" y="13.38" width="25.66" height="1.23"/></g><g id="LWPOLYLINE-54" data-name="LWPOLYLINE"><rect class="cls-1" x="156.58" y="13.38" width="25.66" height="1.23"/></g><g id="LWPOLYLINE-55" data-name="LWPOLYLINE"><polygon class="cls-1" points="214.24 161.98 214.24 161.04 214.24 137.25 213.01 137.25 213.01 161.98 214.24 161.98"/></g><g id="LWPOLYLINE-56" data-name="LWPOLYLINE"><polygon class="cls-1" points="214.24 55.1 214.24 56.04 214.24 79.83 213.01 79.83 213.01 55.1 214.24 55.1"/></g><g id="LWPOLYLINE-57" data-name="LWPOLYLINE"><rect class="cls-1" x="213.01" y="82.41" width="1.23" height="52.27"/></g><g id="LWPOLYLINE-58" data-name="LWPOLYLINE"><polygon class="cls-1" points="301.31 182.13 249.04 182.13 249.04 183.36 301.3 183.36 301.31 182.13"/></g><g id="LWPOLYLINE-59" data-name="LWPOLYLINE"><polygon class="cls-1" points="328.61 182.13 327.68 182.13 303.89 182.13 303.89 183.36 328.61 183.36 328.61 182.13"/></g><g id="LWPOLYLINE-60" data-name="LWPOLYLINE"><polygon class="cls-1" points="221.73 182.13 222.67 182.13 246.46 182.13 246.46 183.36 221.73 183.36 221.73 182.13"/></g><g id="LWPOLYLINE-61" data-name="LWPOLYLINE"><polygon class="cls-1" points="447.57 182.13 395.3 182.13 395.3 183.36 447.56 183.36 447.57 182.13"/></g><g id="LWPOLYLINE-62" data-name="LWPOLYLINE"><polygon class="cls-1" points="474.87 182.13 473.94 182.13 450.15 182.13 450.15 183.36 474.87 183.36 474.87 182.13"/></g><g id="LWPOLYLINE-63" data-name="LWPOLYLINE"><polygon class="cls-1" points="367.99 182.13 368.93 182.13 392.72 182.13 392.72 183.36 367.99 183.36 367.99 182.13"/></g><g id="LWPOLYLINE-64" data-name="LWPOLYLINE"><polygon class="cls-1" points="740.06 182.13 687.79 182.13 687.79 183.36 740.05 183.36 740.06 182.13"/></g><g id="LWPOLYLINE-65" data-name="LWPOLYLINE"><polygon class="cls-1" points="767.36 182.13 766.42 182.13 742.64 182.13 742.64 183.36 767.36 183.36 767.36 182.13"/></g><g id="LWPOLYLINE-66" data-name="LWPOLYLINE"><polygon class="cls-1" points="660.48 182.13 661.42 182.13 685.21 182.13 685.21 183.36 660.48 183.36 660.48 182.13"/></g><g id="LWPOLYLINE-67" data-name="LWPOLYLINE"><polygon class="cls-1" points="593.81 182.13 541.54 182.13 541.54 183.36 593.8 183.36 593.81 182.13"/></g><g id="LWPOLYLINE-68" data-name="LWPOLYLINE"><polygon class="cls-1" points="621.11 182.13 620.17 182.13 596.39 182.13 596.39 183.36 621.11 183.36 621.11 182.13"/></g><g id="LWPOLYLINE-69" data-name="LWPOLYLINE"><polygon class="cls-1" points="514.23 182.13 515.17 182.13 538.96 182.13 538.96 183.36 514.23 183.36 514.23 182.13"/></g><line class="cls-1" x1="35.06" y1="17.13" x2="87.56" y2="17.13"/><line class="cls-1" x1="127.87" y1="17.13" x2="181.31" y2="17.13"/><line class="cls-1" x1="210.49" y1="56.04" x2="210.49" y2="161.04"/><line class="cls-1" x1="222.67" y1="185.88" x2="327.68" y2="185.88"/><line class="cls-1" x1="368.93" y1="185.88" x2="473.93" y2="185.88"/><line class="cls-1" x1="540.14" y1="185.88" x2="621.94" y2="185.88"/><line class="cls-1" x1="661.42" y1="185.88" x2="766.43" y2="185.88"/><g id="LWPOLYLINE-70" data-name="LWPOLYLINE"><polygon class="cls-9" points="35.06 14.61 34.12 14.61 34.12 13.38 35.06 13.38 35.06 12.45 33.18 12.45 33.18 8.7 32.25 8.7 32.25 12.45 31.31 12.45 31.31 17.13 35.06 17.13 35.06 14.61"/></g><g id="LWPOLYLINE-71" data-name="LWPOLYLINE"><polyline class="cls-9" points="60.84 10.1 61.78 10.1 61.78 12.45 63.53 12.45 63.53 13.38 62.83 13.38 62.83 14.61 63.53 14.61 63.53 17.13 61.66 17.13 61.66 16.66 60.96 16.66 60.96 17.13 59.08 17.13 59.08 14.61 59.77 14.61 59.78 13.38 59.08 13.38 59.08 12.45 60.84 12.45 60.84 10.1"/></g><g id="LWPOLYLINE-72" data-name="LWPOLYLINE"><polygon class="cls-9" points="91.31 12.45 90.37 12.45 90.37 8.7 89.43 8.7 89.43 12.45 87.56 12.45 87.56 13.38 88.5 13.38 88.5 14.61 87.56 14.61 87.56 17.13 91.31 17.13 91.31 12.45"/></g><g id="LWPOLYLINE-73" data-name="LWPOLYLINE"><polygon class="cls-9" points="128.81 14.61 127.87 14.61 127.87 13.38 128.81 13.38 128.81 12.45 126.93 12.45 126.93 8.7 126 8.7 126 12.45 125.06 12.45 125.06 17.13 128.81 17.13 128.81 14.61"/></g><g id="LWPOLYLINE-74" data-name="LWPOLYLINE"><polyline class="cls-9" points="154.59 10.1 155.53 10.1 155.53 12.45 157.28 12.45 157.28 13.38 156.58 13.38 156.58 14.61 157.28 14.61 157.28 17.13 155.41 17.13 155.41 16.66 154.71 16.66 154.71 17.13 152.83 17.13 152.83 14.61 153.52 14.61 153.53 13.38 152.83 13.38 152.83 12.45 154.59 12.45 154.59 10.1"/></g><g id="LWPOLYLINE-75" data-name="LWPOLYLINE"><polygon class="cls-9" points="185.06 12.45 184.12 12.45 184.12 8.7 183.18 8.7 183.18 12.45 181.31 12.45 181.31 13.38 182.25 13.38 182.25 14.61 181.31 14.61 181.31 17.13 185.06 17.13 185.06 12.45"/></g><g id="LWPOLYLINE-76" data-name="LWPOLYLINE"><polygon class="cls-9" points="215.18 164.79 215.18 163.85 218.93 163.85 218.93 162.91 215.18 162.91 215.18 161.04 214.24 161.04 214.24 161.98 213.01 161.98 213.01 161.04 210.49 161.04 210.49 164.79 215.18 164.79"/></g><g id="LWPOLYLINE-77" data-name="LWPOLYLINE"><polygon class="cls-9" points="213.01 137.95 213.01 137.25 214.24 137.25 214.24 137.95 215.18 137.95 215.18 135.84 215.18 134.91 215.18 133.97 214.24 133.97 214.24 134.67 213.01 134.67 213.01 133.97 211.84 133.97 211.84 134.91 210.96 134.91 210.96 136.08 210.49 136.08 210.49 137.95 213.01 137.95"/></g><g id="LWPOLYLINE-78" data-name="LWPOLYLINE"><polygon class="cls-9" points="213.01 79.13 213.01 79.83 214.24 79.83 214.24 79.01 215.18 79.01 215.18 80.88 215.18 81.82 215.18 82.76 214.24 82.76 214.24 82.41 213.01 82.41 213.01 83.11 211.84 83.11 211.84 82.17 210.96 82.17 210.96 81 210.49 81 210.49 79.13 213.01 79.13"/></g><g id="LWPOLYLINE-79" data-name="LWPOLYLINE"><polygon class="cls-9" points="304.59 183.36 303.89 183.36 303.89 182.13 304.59 182.13 304.59 181.2 302.83 181.2 302.83 178.85 301.89 178.85 301.89 181.2 300.84 181.2 300.84 182.13 301.31 182.13 301.31 183.36 300.61 183.36 300.61 184.54 301.54 184.54 301.54 185.41 302.71 185.41 302.71 185.88 304.59 185.88 304.59 183.36"/></g><g id="LWPOLYLINE-80" data-name="LWPOLYLINE"><polygon class="cls-9" points="331.43 181.2 330.49 181.2 330.49 177.45 329.55 177.45 329.55 181.2 327.68 181.2 327.68 182.13 328.61 182.13 328.61 183.36 327.68 183.36 327.68 185.88 331.43 185.88 331.43 181.2"/></g><g id="LWPOLYLINE-81" data-name="LWPOLYLINE"><polygon class="cls-9" points="245.75 183.36 246.46 183.36 246.46 182.13 245.75 182.13 245.75 181.2 247.51 181.2 247.51 178.85 248.45 178.85 248.45 181.2 249.5 181.2 249.5 182.13 249.04 182.13 249.04 183.36 249.74 183.36 249.74 184.54 248.8 184.54 248.8 185.41 247.63 185.41 247.63 185.88 245.75 185.88 245.75 183.36"/></g><g id="LWPOLYLINE-82" data-name="LWPOLYLINE"><polygon class="cls-9" points="218.92 181.2 219.86 181.2 219.86 177.45 220.8 177.45 220.8 181.2 222.67 181.2 222.67 182.13 221.73 182.13 221.73 183.36 222.67 183.36 222.67 185.88 218.92 185.88 218.92 181.2"/></g><g id="LWPOLYLINE-83" data-name="LWPOLYLINE"><polygon class="cls-9" points="450.85 183.36 450.15 183.36 450.15 182.13 450.85 182.13 450.85 181.2 449.09 181.2 449.09 178.85 448.15 178.85 448.15 181.2 447.1 181.2 447.1 182.13 447.57 182.13 447.57 183.36 446.86 183.36 446.86 184.54 447.8 184.54 447.8 185.41 448.97 185.41 448.97 185.88 450.85 185.88 450.85 183.36"/></g><g id="LWPOLYLINE-84" data-name="LWPOLYLINE"><polygon class="cls-9" points="477.69 181.2 476.09 181.2 476.09 177.45 475.16 177.45 475.16 181.2 473.94 181.2 473.94 182.13 474.87 182.13 474.87 183.36 473.94 183.36 473.94 185.88 477.69 185.88 477.69 181.2"/></g><g id="LWPOLYLINE-85" data-name="LWPOLYLINE"><polygon class="cls-9" points="392.01 183.36 392.72 183.36 392.72 182.13 392.01 182.13 392.01 181.2 393.77 181.2 393.77 178.85 394.71 178.85 394.71 181.2 395.76 181.2 395.76 182.13 395.3 182.13 395.3 183.36 396 183.36 396 184.54 395.06 184.54 395.06 185.41 393.89 185.41 393.89 185.88 392.01 185.88 392.01 183.36"/></g><g id="LWPOLYLINE-86" data-name="LWPOLYLINE"><polygon class="cls-9" points="365.18 181.2 366.77 181.2 366.77 177.45 367.7 177.45 367.7 181.2 368.93 181.2 368.93 182.13 367.99 182.13 367.99 183.36 368.93 183.36 368.93 185.88 365.18 185.88 365.18 181.2"/></g><g id="LWPOLYLINE-87" data-name="LWPOLYLINE"><polygon class="cls-9" points="743.34 183.36 742.64 183.36 742.64 182.13 743.34 182.13 743.34 181.2 741.58 181.2 741.58 178.85 740.64 178.85 740.64 181.2 739.59 181.2 739.59 182.13 740.06 182.13 740.06 183.36 739.36 183.36 739.36 184.54 740.29 184.54 740.29 185.41 741.47 185.41 741.47 185.88 743.34 185.88 743.34 183.36"/></g><g id="LWPOLYLINE-88" data-name="LWPOLYLINE"><polygon class="cls-9" points="770.17 181.2 768.58 181.2 768.58 177.45 767.65 177.45 767.65 181.2 766.42 181.2 766.42 182.13 767.36 182.13 767.36 183.36 766.42 183.36 766.42 185.88 770.17 185.88 770.17 181.2"/></g><g id="LWPOLYLINE-89" data-name="LWPOLYLINE"><polygon class="cls-9" points="684.5 183.36 685.21 183.36 685.21 182.13 684.5 182.13 684.5 181.2 686.26 181.2 686.26 178.85 687.2 178.85 687.2 181.2 688.25 181.2 688.25 182.13 687.79 182.13 687.79 183.36 688.49 183.36 688.49 184.54 687.55 184.54 687.55 185.41 686.38 185.41 686.38 185.88 684.5 185.88 684.5 183.36"/></g><g id="LWPOLYLINE-90" data-name="LWPOLYLINE"><polygon class="cls-9" points="657.67 181.2 659.26 181.2 659.26 177.45 660.2 177.45 660.2 181.2 661.42 181.2 661.42 182.13 660.48 182.13 660.48 183.36 661.42 183.36 661.42 185.88 657.67 185.88 657.67 181.2"/></g><g id="LWPOLYLINE-91" data-name="LWPOLYLINE"><polygon class="cls-9" points="597.09 183.36 596.39 183.36 596.39 182.13 597.09 182.13 597.09 181.2 595.33 181.2 595.33 178.85 594.39 178.85 594.39 181.2 593.34 181.2 593.34 182.13 593.81 182.13 593.81 183.36 593.11 183.36 593.11 184.54 594.04 184.54 594.04 185.41 595.22 185.41 595.22 185.88 597.09 185.88 597.09 183.36"/></g><g id="LWPOLYLINE-92" data-name="LWPOLYLINE"><polygon class="cls-9" points="623.92 181.2 622.99 181.2 622.99 177.45 622.05 177.45 622.05 181.2 620.17 181.2 620.17 182.13 621.11 182.13 621.11 183.36 620.17 183.36 620.17 185.88 623.92 185.88 623.92 181.2"/></g><g id="LWPOLYLINE-93" data-name="LWPOLYLINE"><polygon class="cls-9" points="538.25 183.36 538.96 183.36 538.96 182.13 538.25 182.13 538.25 181.2 540.01 181.2 540.01 178.85 540.95 178.85 540.95 181.2 542 181.2 542 182.13 541.54 182.13 541.54 183.36 542.24 183.36 542.24 184.54 541.3 184.54 541.3 185.41 540.13 185.41 540.13 185.88 538.25 185.88 538.25 183.36"/></g><g id="LWPOLYLINE-94" data-name="LWPOLYLINE"><polygon class="cls-9" points="511.42 181.2 512.36 181.2 512.36 177.45 513.3 177.45 513.3 181.2 515.17 181.2 515.17 182.13 514.23 182.13 514.23 183.36 515.17 183.36 515.17 185.88 511.42 185.88 511.42 181.2"/></g><g id="LWPOLYLINE-95" data-name="LWPOLYLINE"><polyline class="cls-8" points="91.31 17.13 91.31 0.26 31.31 0.26 31.31 17.13"/></g><g id="LWPOLYLINE-96" data-name="LWPOLYLINE"><polyline class="cls-8" points="185.06 17.13 185.06 0.26 125.06 0.26 125.06 17.13"/></g><g id="LWPOLYLINE-97" data-name="LWPOLYLINE"><polygon class="cls-1" points="215.18 52.29 215.18 53.23 215.18 54.16 215.18 56.04 214.24 56.04 214.24 55.1 213.01 55.1 213.01 56.04 210.49 56.04 210.49 52.29 215.18 52.29"/></g><g id="LWPOLYLINE-98" data-name="LWPOLYLINE"><polyline class="cls-8" points="331.43 185.88 331.43 177.45 218.93 177.45 218.93 185.88"/></g><g id="LWPOLYLINE-99" data-name="LWPOLYLINE"><polyline class="cls-8" points="210.56 164.75 219 164.75 219 52.25 210.56 52.25"/></g><g id="LWPOLYLINE-100" data-name="LWPOLYLINE"><polyline class="cls-8" points="477.69 185.88 477.68 177.56 365.18 177.56 365.19 185.88"/></g><g id="LWPOLYLINE-101" data-name="LWPOLYLINE"><polyline class="cls-8" points="770.17 185.88 770.17 177.56 657.67 177.56 657.67 185.88"/></g><g id="LWPOLYLINE-102" data-name="LWPOLYLINE"><polyline class="cls-8" points="623.92 185.88 623.92 177.45 511.43 177.45 511.43 185.88"/></g><g id="LWPOLYLINE-103" data-name="LWPOLYLINE"><line class="cls-8" x1="218.74" y1="45.26" x2="331.43" y2="45.26"/><line class="cls-8" x1="218.74" y1="22.65" x2="218.74" y2="45.15"/><line class="cls-8" x1="218.74" y1="22.76" x2="218.74" y2="45.26"/></g><g id="LWPOLYLINE-104" data-name="LWPOLYLINE"><line class="cls-10" x1="365.18" y1="45.26" x2="331.43" y2="45.26"/></g><g id="LWPOLYLINE-105" data-name="LWPOLYLINE"><line class="cls-8" x1="365.18" y1="45.26" x2="477.68" y2="45.26"/></g><g id="LWPOLYLINE-106" data-name="LWPOLYLINE"><line class="cls-11" x1="511.43" y1="45.26" x2="477.68" y2="45.26"/></g><g id="LWPOLYLINE-107" data-name="LWPOLYLINE"><line class="cls-8" x1="511.43" y1="45.26" x2="623.93" y2="45.26"/></g><g id="LWPOLYLINE-108" data-name="LWPOLYLINE"><line class="cls-12" x1="657.68" y1="45.26" x2="623.93" y2="45.26"/></g><g id="LWPOLYLINE-109" data-name="LWPOLYLINE"><line class="cls-8" x1="657.68" y1="45.26" x2="770.18" y2="45.26"/></g><g id="LWPOLYLINE-111" data-name="LWPOLYLINE"><line class="cls-8" x1="770.09" y1="45.26" x2="770.09" y2="176.18"/></g><g id="LWPOLYLINE-112" data-name="LWPOLYLINE"><rect class="cls-13" x="683.69" y="369.58" width="1.64" height="33.75"/></g><g id="LWPOLYLINE-113" data-name="LWPOLYLINE"><rect class="cls-13" x="625.24" y="379.26" width="1.64" height="33.75" transform="translate(-96.74 558.72) rotate(-45)"/></g><g id="LWPOLYLINE-114" data-name="LWPOLYLINE"><polyline class="cls-13" points="302.89 363.77 274.76 363.77 274.76 365.42 302.89 365.42"/></g><g id="LWPOLYLINE-115" data-name="LWPOLYLINE"><rect class="cls-14" x="626.83" y="349.73" width="33.75" height="1.64" transform="translate(-59.34 557.84) rotate(-45)"/></g><g id="LWPOLYLINE-116" data-name="LWPOLYLINE"><rect class="cls-13" x="625.8" y="298.91" width="1.64" height="33.75"/></g><g id="LWPOLYLINE-117" data-name="LWPOLYLINE"><rect class="cls-13" x="623.93" y="195.26" width="1.64" height="33.75"/></g><g id="LWPOLYLINE-118" data-name="LWPOLYLINE"><rect class="cls-13" x="497.36" y="322.17" width="1.64" height="33.75"/></g><g id="LWPOLYLINE-119" data-name="LWPOLYLINE"><rect class="cls-14" x="478.41" y="333.67" width="1.64" height="33.75" transform="translate(-107.51 441.54) rotate(-45)"/></g><g id="LWPOLYLINE-120" data-name="LWPOLYLINE"><rect class="cls-13" x="352.46" y="332.6" width="22.5" height="1.64"/></g><g id="LWPOLYLINE-121" data-name="LWPOLYLINE"><rect class="cls-13" x="374.96" y="332.6" width="22.5" height="1.64"/></g><g id="LWPOLYLINE-122" data-name="LWPOLYLINE"><rect class="cls-13" x="558.77" y="407.49" width="22.5" height="1.64"/></g><g id="LWPOLYLINE-123" data-name="LWPOLYLINE"><rect class="cls-13" x="247.08" y="298.75" width="1.64" height="33.75" transform="translate(-150.57 267.73) rotate(-45)"/></g><g id="LWPOLYLINE-124" data-name="LWPOLYLINE"><polyline class="cls-13" points="302.89 363.77 331.01 363.77 331.01 365.42 302.89 365.42"/></g><g id="LWPOLYLINE-125" data-name="LWPOLYLINE"><rect class="cls-13" x="266.03" y="268.15" width="1.64" height="33.75"/></g><g id="LWPOLYLINE-126" data-name="LWPOLYLINE"><rect class="cls-13" x="114.29" y="268.15" width="1.64" height="33.75"/></g><g id="LWPOLYLINE-127" data-name="LWPOLYLINE"><rect class="cls-13" x="114.29" y="184.13" width="1.64" height="33.75"/></g><g id="LWPOLYLINE-128" data-name="LWPOLYLINE"><rect class="cls-13" x="169.03" y="306" width="28.13" height="1.64"/></g><g id="LWPOLYLINE-129" data-name="LWPOLYLINE"><rect class="cls-13" x="124.36" y="306" width="28.13" height="1.64"/></g><g id="LWPOLYLINE-130" data-name="LWPOLYLINE"><rect class="cls-13" x="169.03" y="262.76" width="28.13" height="1.64"/></g><g id="LWPOLYLINE-131" data-name="LWPOLYLINE"><rect class="cls-13" x="683.69" y="369.58" width="1.64" height="33.75"/></g><g id="LWPOLYLINE-132" data-name="LWPOLYLINE"><rect class="cls-14" x="625.24" y="379.26" width="1.64" height="33.75" transform="translate(-96.74 558.72) rotate(-45)"/></g><g id="LWPOLYLINE-133" data-name="LWPOLYLINE"><polyline class="cls-13" points="302.89 363.77 274.76 363.77 274.76 365.42 302.89 365.42"/></g><g id="LWPOLYLINE-134" data-name="LWPOLYLINE"><rect class="cls-13" x="625.8" y="298.91" width="1.64" height="33.75"/></g><g id="LWPOLYLINE-135" data-name="LWPOLYLINE"><rect class="cls-13" x="623.93" y="195.26" width="1.64" height="33.75"/></g><g id="LWPOLYLINE-136" data-name="LWPOLYLINE"><rect class="cls-13" x="497.36" y="322.17" width="1.64" height="33.75"/></g><g id="LWPOLYLINE-137" data-name="LWPOLYLINE"><rect class="cls-13" x="352.46" y="332.6" width="22.5" height="1.64"/></g><g id="LWPOLYLINE-138" data-name="LWPOLYLINE"><rect class="cls-13" x="374.96" y="332.6" width="22.5" height="1.64"/></g><g id="LWPOLYLINE-139" data-name="LWPOLYLINE"><rect class="cls-13" x="558.77" y="407.49" width="22.5" height="1.64"/></g><g id="LWPOLYLINE-140" data-name="LWPOLYLINE"><rect class="cls-14" x="247.08" y="298.75" width="1.64" height="33.75" transform="translate(-150.57 267.73) rotate(-45)"/></g><g id="LWPOLYLINE-141" data-name="LWPOLYLINE"><polyline class="cls-13" points="302.89 363.77 331.01 363.77 331.01 365.42 302.89 365.42"/></g><g id="LWPOLYLINE-142" data-name="LWPOLYLINE"><rect class="cls-13" x="266.03" y="268.15" width="1.64" height="33.75"/></g><g id="LWPOLYLINE-143" data-name="LWPOLYLINE"><rect class="cls-13" x="114.29" y="268.15" width="1.64" height="33.75"/></g><g id="LWPOLYLINE-144" data-name="LWPOLYLINE"><rect class="cls-13" x="114.29" y="184.13" width="1.64" height="33.75"/></g><g id="LWPOLYLINE-145" data-name="LWPOLYLINE"><rect class="cls-13" x="169.03" y="306" width="28.13" height="1.64"/></g><g id="LWPOLYLINE-146" data-name="LWPOLYLINE"><rect class="cls-13" x="124.36" y="306" width="28.13" height="1.64"/></g><g id="LWPOLYLINE-147" data-name="LWPOLYLINE"><rect class="cls-13" x="169.03" y="262.76" width="28.13" height="1.64"/></g><g id="ARC-5" data-name="ARC"><path class="cls-13" d="M614.71,383.62a33.75,33.75,0,0,0-9.89,23.87"/></g><g id="ARC-6" data-name="ARC"><path class="cls-13" d="M664.94,361.9A33.76,33.76,0,0,0,655.06,338"/></g><g id="ARC-7" data-name="ARC"><path class="cls-13" d="M467.87,338A33.76,33.76,0,0,0,458,361.9"/></g><g id="ARC-8" data-name="ARC"><path class="cls-13" d="M236.54,303.11A33.8,33.8,0,0,0,226.66,327"/></g><g id="ARC-9" data-name="ARC"><path class="cls-13" d="M614.71,383.62a33.75,33.75,0,0,0-9.89,23.87"/></g><g id="ARC-10" data-name="ARC"><path class="cls-13" d="M236.54,303.11A33.8,33.8,0,0,0,226.66,327"/></g><g id="LWPOLYLINE-148" data-name="LWPOLYLINE"><rect class="cls-1" x="511.42" y="191.45" width="31.06" height="58.32"/></g><g id="LWPOLYLINE-149" data-name="LWPOLYLINE"><path class="cls-1" d="M527.87,244.59h5.82a4.68,4.68,0,0,0,4.69-4.68V201.24a4.69,4.69,0,0,0-4.69-4.69H521.27a4.69,4.69,0,0,0-4.69,4.69v38.67a4.68,4.68,0,0,0,4.69,4.68h5.82"/></g><g id="ARC-11" data-name="ARC"><path class="cls-1" d="M527.88,241.59a3.35,3.35,0,0,0,2.86-3.75,3.3,3.3,0,0,0-3.66-2.94,3.39,3.39,0,0,0,0,6.7"/></g><g id="LWPOLYLINE-150" data-name="LWPOLYLINE"><path class="cls-1" d="M527.09,238.25v11.52h.78V238.25a.39.39,0,1,0-.78,0Z"/></g><g id="LWPOLYLINE-151" data-name="LWPOLYLINE"><rect class="cls-1" x="498.51" y="266.16" width="58.51" height="31.05"/></g><g id="LWPOLYLINE-152" data-name="LWPOLYLINE"><path class="cls-1" d="M552.09,281.82V276a4.69,4.69,0,0,0-4.69-4.69H508.73A4.69,4.69,0,0,0,504,276v12.42a4.69,4.69,0,0,0,4.69,4.69H547.4a4.69,4.69,0,0,0,4.69-4.69V282.6"/></g><g id="ARC-12" data-name="ARC"><path class="cls-1" d="M549.6,281.81a3.15,3.15,0,0,0-3.48-2.85,3.25,3.25,0,0,0-2.73,3.65,3.18,3.18,0,0,0,3.49,2.86,3.21,3.21,0,0,0,2.72-2.87"/></g><g id="LWPOLYLINE-153" data-name="LWPOLYLINE"><path class="cls-1" d="M546.5,282.6h10.68v-.78H546.5a.38.38,0,0,0-.37.39A.37.37,0,0,0,546.5,282.6Z"/></g><g id="LWPOLYLINE-154" data-name="LWPOLYLINE"><rect class="cls-2" x="218.92" y="191.48" width="37.5" height="69.42"/></g><g id="LWPOLYLINE-155" data-name="LWPOLYLINE"><rect class="cls-1" x="225.48" y="195.14" width="24.38" height="61.05" rx="4.69"/></g><g id="LWPOLYLINE-156" data-name="LWPOLYLINE"><rect class="cls-1" x="267.68" y="309.34" width="63.75" height="35.92"/></g><g id="LWPOLYLINE-157" data-name="LWPOLYLINE"><rect class="cls-1" x="302.36" y="308.61" width="1.41" height="0.86"/></g><g id="LWPOLYLINE-158" data-name="LWPOLYLINE"><rect class="cls-1" x="268.61" y="308.61" width="33.75" height="0.86"/></g><g id="LWPOLYLINE-159" data-name="LWPOLYLINE"><rect class="cls-1" x="267.68" y="308.61" width="0.94" height="0.86"/></g><g id="ARC-13" data-name="ARC"><path class="cls-1" d="M325.14,327a3.24,3.24,0,1,0,0,.79"/></g><g id="LWPOLYLINE-160" data-name="LWPOLYLINE"><path class="cls-1" d="M321.89,327.83h10.17v-.77H321.89a.39.39,0,1,0,0,.77Z"/></g><g id="ARC-14" data-name="ARC"><path class="cls-1" d="M237.67,253a3.24,3.24,0,1,0-.78,0"/></g><g id="LWPOLYLINE-161" data-name="LWPOLYLINE"><path class="cls-2" d="M236.89,249.78v11.06h.77V249.78a.39.39,0,1,0-.77,0Z"/></g><g id="LWPOLYLINE-162" data-name="LWPOLYLINE"><rect class="cls-1" x="267.68" y="309.34" width="63.75" height="35.92"/></g><g id="LWPOLYLINE-163" data-name="LWPOLYLINE"><rect class="cls-2" x="302.36" y="308.61" width="1.41" height="0.86"/></g><g id="LWPOLYLINE-164" data-name="LWPOLYLINE"><rect class="cls-2" x="268.61" y="308.61" width="33.75" height="0.86"/></g><g id="LWPOLYLINE-165" data-name="LWPOLYLINE"><rect class="cls-2" x="267.68" y="308.61" width="0.94" height="0.86"/></g><g id="LWPOLYLINE-166" data-name="LWPOLYLINE"><polyline class="cls-8" points="329.55 185.88 329.55 191.48 220.8 191.48 220.8 185.88"/></g><g id="LINE-21" data-name="LINE"><line class="cls-2" x1="762.67" y1="403.15" x2="762.67" y2="377.84"/></g><g id="LINE-22" data-name="LINE"><line class="cls-2" x1="762.67" y1="377.84" x2="734.78" y2="377.84"/></g><g id="LINE-23" data-name="LINE"><line class="cls-2" x1="734.78" y1="377.84" x2="734.78" y2="403.15"/></g><g id="LINE-24" data-name="LINE"><line class="cls-2" x1="734.78" y1="403.15" x2="762.67" y2="403.15"/></g><g id="LINE-26" data-name="LINE"><line class="cls-2" x1="762.67" y1="373.62" x2="762.67" y2="348.31"/></g><g id="LINE-27" data-name="LINE"><line class="cls-2" x1="762.67" y1="348.31" x2="734.78" y2="348.31"/></g><g id="LINE-28" data-name="LINE"><line class="cls-2" x1="734.78" y1="348.31" x2="734.78" y2="373.62"/></g><g id="LINE-29" data-name="LINE"><line class="cls-2" x1="734.78" y1="373.62" x2="762.67" y2="373.62"/></g><g id="LWPOLYLINE-167" data-name="LWPOLYLINE"><polyline class="cls-15" points="114.28 231 45.49 231 45.49 178.15"/></g><g id="LWPOLYLINE-168" data-name="LWPOLYLINE"><polyline class="cls-15" points="114.28 257.02 14.43 257.02 14.43 293.35"/></g><g id="LWPOLYLINE-169" data-name="LWPOLYLINE"><line class="cls-15" x1="34.24" y1="315.14" x2="114.28" y2="315.14"/></g><g id="LWPOLYLINE-170" data-name="LWPOLYLINE"><line class="cls-15" x1="162.56" y1="249.63" x2="215.41" y2="249.63"/></g><g id="LWPOLYLINE-171" data-name="LWPOLYLINE"><line class="cls-15" x1="117.9" y1="318.11" x2="202.34" y2="318.11"/></g><g id="LWPOLYLINE-172" data-name="LWPOLYLINE"><line class="cls-15" x1="341.62" y1="347.37" x2="408.3" y2="347.37"/></g><g id="LWPOLYLINE-173" data-name="LWPOLYLINE"><polyline class="cls-15" points="623.92 350.77 600.02 350.77 600.02 280.81 623.92 280.81"/></g><g id="LWPOLYLINE-174" data-name="LWPOLYLINE"><line class="cls-15" x1="584.43" y1="422.13" x2="556.07" y2="422.13"/></g><g id="LWPOLYLINE-175" data-name="LWPOLYLINE"><line class="cls-15" x1="34.24" y1="315.14" x2="114.28" y2="315.14"/></g><g id="LINE-31" data-name="LINE"><line class="cls-9" x1="110.33" y1="224.24" x2="110.33" y2="237.29"/></g><g id="LINE-32" data-name="LINE"><line class="cls-9" x1="107.91" y1="224.24" x2="107.91" y2="237.29"/></g><g id="LINE-33" data-name="LINE"><line class="cls-9" x1="105.49" y1="224.24" x2="105.49" y2="237.29"/></g><g id="LINE-34" data-name="LINE"><line class="cls-9" x1="103.07" y1="224.24" x2="103.07" y2="237.29"/></g><g id="LINE-35" data-name="LINE"><line class="cls-9" x1="100.65" y1="224.24" x2="100.65" y2="237.29"/></g><g id="LINE-36" data-name="LINE"><line class="cls-9" x1="98.23" y1="237.29" x2="98.23" y2="224.24"/></g><g id="LINE-37" data-name="LINE"><line class="cls-9" x1="110.33" y1="250.43" x2="110.33" y2="263.49"/></g><g id="LINE-38" data-name="LINE"><line class="cls-9" x1="107.91" y1="250.43" x2="107.91" y2="263.48"/></g><g id="LINE-39" data-name="LINE"><line class="cls-9" x1="105.49" y1="250.43" x2="105.49" y2="263.48"/></g><g id="LINE-40" data-name="LINE"><line class="cls-9" x1="103.07" y1="250.43" x2="103.07" y2="263.48"/></g><g id="LINE-41" data-name="LINE"><line class="cls-9" x1="100.65" y1="250.43" x2="100.65" y2="263.48"/></g><g id="LINE-42" data-name="LINE"><line class="cls-9" x1="98.23" y1="263.48" x2="98.23" y2="250.43"/></g><g id="LINE-43" data-name="LINE"><line class="cls-9" x1="211.46" y1="243.11" x2="211.46" y2="256.16"/></g><g id="LINE-44" data-name="LINE"><line class="cls-9" x1="209.04" y1="243.11" x2="209.04" y2="256.16"/></g><g id="LINE-45" data-name="LINE"><line class="cls-9" x1="206.63" y1="243.11" x2="206.62" y2="256.16"/></g><g id="LINE-46" data-name="LINE"><line class="cls-9" x1="204.21" y1="243.11" x2="204.2" y2="256.16"/></g><g id="LINE-47" data-name="LINE"><line class="cls-9" x1="201.79" y1="243.11" x2="201.79" y2="256.16"/></g><g id="LINE-48" data-name="LINE"><line class="cls-9" x1="199.37" y1="256.16" x2="199.37" y2="243.11"/></g><g id="LINE-49" data-name="LINE"><line class="cls-9" x1="198.39" y1="311.59" x2="198.39" y2="324.64"/></g><g id="LINE-50" data-name="LINE"><line class="cls-9" x1="195.97" y1="311.59" x2="195.97" y2="324.64"/></g><g id="LINE-51" data-name="LINE"><line class="cls-9" x1="193.55" y1="311.59" x2="193.55" y2="324.64"/></g><g id="LINE-52" data-name="LINE"><line class="cls-9" x1="191.13" y1="311.59" x2="191.13" y2="324.64"/></g><g id="LINE-53" data-name="LINE"><line class="cls-9" x1="188.71" y1="311.59" x2="188.71" y2="324.64"/></g><g id="LINE-54" data-name="LINE"><line class="cls-9" x1="186.3" y1="324.64" x2="186.3" y2="311.59"/></g><g id="LINE-55" data-name="LINE"><line class="cls-9" x1="133.42" y1="311.59" x2="133.42" y2="324.64"/></g><g id="LINE-56" data-name="LINE"><line class="cls-9" x1="131" y1="311.59" x2="131" y2="324.64"/></g><g id="LINE-57" data-name="LINE"><line class="cls-9" x1="128.59" y1="311.59" x2="128.58" y2="324.64"/></g><g id="LINE-58" data-name="LINE"><line class="cls-9" x1="126.17" y1="311.59" x2="126.17" y2="324.64"/></g><g id="LINE-59" data-name="LINE"><line class="cls-9" x1="123.75" y1="311.59" x2="123.75" y2="324.64"/></g><g id="LINE-60" data-name="LINE"><line class="cls-9" x1="121.33" y1="324.64" x2="121.33" y2="311.59"/></g><g id="LINE-61" data-name="LINE"><line class="cls-9" x1="110.33" y1="308.32" x2="110.33" y2="321.38"/></g><g id="LINE-62" data-name="LINE"><line class="cls-9" x1="107.91" y1="308.32" x2="107.91" y2="321.38"/></g><g id="LINE-63" data-name="LINE"><line class="cls-9" x1="105.49" y1="308.32" x2="105.49" y2="321.38"/></g><g id="LINE-64" data-name="LINE"><line class="cls-9" x1="103.07" y1="308.32" x2="103.07" y2="321.38"/></g><g id="LINE-65" data-name="LINE"><line class="cls-9" x1="100.65" y1="308.32" x2="100.65" y2="321.38"/></g><g id="LINE-66" data-name="LINE"><line class="cls-9" x1="98.23" y1="321.38" x2="98.23" y2="308.32"/></g><g id="LINE-67" data-name="LINE"><line class="cls-9" x1="404.35" y1="340.84" x2="404.35" y2="353.9"/></g><g id="LINE-68" data-name="LINE"><line class="cls-9" x1="401.93" y1="340.84" x2="401.93" y2="353.9"/></g><g id="LINE-69" data-name="LINE"><line class="cls-9" x1="399.52" y1="340.84" x2="399.51" y2="353.89"/></g><g id="LINE-70" data-name="LINE"><line class="cls-9" x1="397.1" y1="340.84" x2="397.1" y2="353.9"/></g><g id="LINE-71" data-name="LINE"><line class="cls-9" x1="394.68" y1="340.84" x2="394.68" y2="353.89"/></g><g id="LINE-72" data-name="LINE"><line class="cls-9" x1="392.26" y1="353.89" x2="392.26" y2="340.84"/></g><g id="LINE-73" data-name="LINE"><line class="cls-9" x1="580.49" y1="415.61" x2="580.49" y2="428.66"/></g><g id="LINE-74" data-name="LINE"><line class="cls-9" x1="578.07" y1="415.61" x2="578.07" y2="428.66"/></g><g id="LINE-75" data-name="LINE"><line class="cls-9" x1="575.65" y1="415.61" x2="575.65" y2="428.66"/></g><g id="LINE-76" data-name="LINE"><line class="cls-9" x1="573.23" y1="415.61" x2="573.23" y2="428.66"/></g><g id="LINE-77" data-name="LINE"><line class="cls-9" x1="570.81" y1="415.61" x2="570.81" y2="428.66"/></g><g id="LINE-78" data-name="LINE"><line class="cls-9" x1="568.39" y1="428.66" x2="568.39" y2="415.61"/></g><g id="LINE-79" data-name="LINE"><line class="cls-9" x1="619.98" y1="344.24" x2="619.98" y2="357.29"/></g><g id="LINE-80" data-name="LINE"><line class="cls-9" x1="617.56" y1="344.24" x2="617.56" y2="357.29"/></g><g id="LINE-81" data-name="LINE"><line class="cls-9" x1="615.14" y1="344.24" x2="615.14" y2="357.29"/></g><g id="LINE-82" data-name="LINE"><line class="cls-9" x1="612.72" y1="344.24" x2="612.72" y2="357.29"/></g><g id="LINE-83" data-name="LINE"><line class="cls-9" x1="610.3" y1="344.24" x2="610.3" y2="357.29"/></g><g id="LINE-84" data-name="LINE"><line class="cls-9" x1="607.88" y1="357.29" x2="607.88" y2="344.24"/></g><g id="LINE-85" data-name="LINE"><line class="cls-9" x1="619.98" y1="274.28" x2="619.98" y2="287.33"/></g><g id="LINE-86" data-name="LINE"><line class="cls-9" x1="617.56" y1="274.28" x2="617.56" y2="287.33"/></g><g id="LINE-87" data-name="LINE"><line class="cls-9" x1="615.14" y1="274.28" x2="615.14" y2="287.33"/></g><g id="LINE-88" data-name="LINE"><line class="cls-9" x1="612.72" y1="274.28" x2="612.72" y2="287.33"/></g><g id="LINE-89" data-name="LINE"><line class="cls-9" x1="610.3" y1="274.28" x2="610.3" y2="287.33"/></g><g id="LINE-90" data-name="LINE"><line class="cls-9" x1="607.88" y1="287.33" x2="607.88" y2="274.28"/></g><g id="LINE-91" data-name="LINE"><line class="cls-9" x1="593.49" y1="335.67" x2="606.55" y2="335.67"/></g><g id="LINE-92" data-name="LINE"><line class="cls-9" x1="593.49" y1="333.25" x2="606.55" y2="333.25"/></g><g id="LINE-93" data-name="LINE"><line class="cls-9" x1="593.49" y1="330.83" x2="606.55" y2="330.83"/></g><g id="LINE-94" data-name="LINE"><line class="cls-9" x1="593.49" y1="328.41" x2="606.55" y2="328.41"/></g><g id="LINE-95" data-name="LINE"><line class="cls-9" x1="593.49" y1="325.99" x2="606.55" y2="325.99"/></g><g id="LINE-96" data-name="LINE"><line class="cls-9" x1="606.55" y1="323.57" x2="593.49" y2="323.57"/></g><g id="LINE-97" data-name="LINE"><line class="cls-9" x1="7.91" y1="289.4" x2="20.96" y2="289.4"/></g><g id="LINE-98" data-name="LINE"><line class="cls-9" x1="7.91" y1="286.98" x2="20.96" y2="286.98"/></g><g id="LINE-99" data-name="LINE"><line class="cls-9" x1="7.9" y1="284.56" x2="20.96" y2="284.56"/></g><g id="LINE-100" data-name="LINE"><line class="cls-9" x1="7.91" y1="282.14" x2="20.96" y2="282.14"/></g><g id="LINE-101" data-name="LINE"><line class="cls-9" x1="7.9" y1="279.72" x2="20.96" y2="279.72"/></g><g id="LINE-102" data-name="LINE"><line class="cls-9" x1="20.96" y1="277.3" x2="7.9" y2="277.3"/></g><g id="LINE-103" data-name="LINE"><line class="cls-9" x1="38.96" y1="227.05" x2="52.01" y2="227.05"/></g><g id="LINE-104" data-name="LINE"><line class="cls-9" x1="38.96" y1="224.64" x2="52.01" y2="224.64"/></g><g id="LINE-105" data-name="LINE"><line class="cls-9" x1="38.96" y1="222.22" x2="52.01" y2="222.22"/></g><g id="LINE-106" data-name="LINE"><line class="cls-9" x1="38.96" y1="219.8" x2="52.01" y2="219.8"/></g><g id="LINE-107" data-name="LINE"><line class="cls-9" x1="38.96" y1="217.38" x2="52.01" y2="217.38"/></g><g id="LINE-108" data-name="LINE"><line class="cls-9" x1="52.01" y1="214.96" x2="38.96" y2="214.96"/></g><g id="LINE-109" data-name="LINE"><line class="cls-9" x1="615.14" y1="274.28" x2="615.14" y2="287.33"/></g><g id="LINE-110" data-name="LINE"><line class="cls-9" x1="7.91" y1="286.98" x2="20.96" y2="286.98"/></g><g id="LINE-111" data-name="LINE"><line class="cls-9" x1="7.9" y1="279.72" x2="20.96" y2="279.72"/></g><g id="LWPOLYLINE-176" data-name="LWPOLYLINE"><rect class="cls-2" x="558.27" y="239.31" width="27.23" height="20.91"/></g><g id="LWPOLYLINE-177" data-name="LWPOLYLINE"><path class="cls-2" d="M580.15,243.4a1.17,1.17,0,0,0-1.17-1.17H564.79a1.17,1.17,0,0,0-1.17,1.17v10.5a1,1,0,0,0,1,1h14.59a1,1,0,0,0,1-1Z"/></g><g id="ARC-15" data-name="ARC"><path class="cls-2" d="M596,242.79c-.37,3.34-1.06,12.15-1.06,12.15"/></g><g id="ARC-16" data-name="ARC"><path class="cls-2" d="M607.91,250.52a.88.88,0,0,0,.81-.54c.15-.37.29-.74.41-1.11a15.66,15.66,0,0,0,.68-3.09c.06-.56.11-1.12.14-1.68a16.13,16.13,0,0,0-.36-4.38,10.62,10.62,0,0,0-3.23-5.59,5,5,0,0,0-6.88.07,10.63,10.63,0,0,0-3.12,5.65,16.52,16.52,0,0,0-.28,4.38c0,.56.1,1.12.17,1.68A15.27,15.27,0,0,0,597,249c.13.38.28.74.44,1.11a.89.89,0,0,0,.82.53Z"/></g><g id="ARC-17" data-name="ARC"><path class="cls-2" d="M610,242.66c.43,3.33,1.07,12.28,1.07,12.28"/></g><g id="ARC-18" data-name="ARC"><path class="cls-2" d="M595,254.78a1.15,1.15,0,0,1,1-1.09,58.54,58.54,0,0,1,14,0,1.15,1.15,0,0,1,1,1.09v0c.06,1.2.1,2.4.13,3.6a1.54,1.54,0,0,1-1.41,1.57c-2.24.2-4.49.29-6.73.29s-4.5-.09-6.74-.29a1.54,1.54,0,0,1-1.41-1.57c0-1.2.07-2.4.13-3.6Z"/></g><g id="ARC-19" data-name="ARC"><path class="cls-2" d="M571.39,256.32a1.24,1.24,0,0,0-.73,1.13,1.23,1.23,0,0,0,2.35.49,1.24,1.24,0,0,0-.63-1.62Z"/></g><g id="ARC-20" data-name="ARC"><path class="cls-2" d="M565.78,257.69a1.23,1.23,0,1,0,0-.49Z"/></g><g id="ARC-21" data-name="ARC"><path class="cls-2" d="M578,257.69a1.23,1.23,0,1,1,0-.49Z"/></g><g id="LINE-112" data-name="LINE"><path class="cls-2" d="M571.39,251.56v5.89a.5.5,0,0,0,1,0v-5.89a.5.5,0,0,0-1,0Z"/></g><line class="cls-2" x1="566.99" y1="257.45" x2="563.55" y2="257.45"/><line class="cls-2" x1="580.22" y1="257.45" x2="576.78" y2="257.45"/><g id="LWPOLYLINE-178" data-name="LWPOLYLINE"><rect class="cls-2" x="558.99" y="303.11" width="20.07" height="26.14"/></g><g id="LWPOLYLINE-179" data-name="LWPOLYLINE"><path class="cls-2" d="M562.91,324.12a1.12,1.12,0,0,1-1.12-1.12V309.37a1.12,1.12,0,0,1,1.12-1.12H573a.93.93,0,0,1,.93.93v14a.94.94,0,0,1-.93.94Z"/></g><g id="ARC-22" data-name="ARC"><path class="cls-2" d="M562.33,339.37c3.2-.35,11.65-1,11.65-1"/></g><g id="ARC-23" data-name="ARC"><path class="cls-2" d="M569.75,350.76a.86.86,0,0,1-.53.78c-.35.14-.7.28-1.07.4a15.63,15.63,0,0,1-3,.65c-.53.06-1.07.1-1.61.13a15.6,15.6,0,0,1-4.2-.35,10.14,10.14,0,0,1-5.37-3.1,4.84,4.84,0,0,1,.06-6.6,10.26,10.26,0,0,1,5.43-3,16,16,0,0,1,4.21-.26c.54,0,1.07.09,1.61.16a15.1,15.1,0,0,1,2.95.71c.36.13.71.27,1.06.42a.87.87,0,0,1,.51.79Z"/></g><g id="ARC-24" data-name="ARC"><path class="cls-2" d="M562.2,352.73c3.19.42,11.78,1,11.78,1"/></g><g id="ARC-25" data-name="ARC"><path class="cls-2" d="M573.84,338.36a1.11,1.11,0,0,0-1.06,1,56.56,56.56,0,0,0,0,13.43,1.11,1.11,0,0,0,1.06,1h0c1.15.05,2.31.1,3.46.12a1.48,1.48,0,0,0,1.51-1.35q.29-3.22.28-6.47c0-2.15-.09-4.31-.28-6.46a1.5,1.5,0,0,0-1.51-1.36c-1.15,0-2.31.07-3.46.13Z"/></g><g id="ARC-26" data-name="ARC"><path class="cls-2" d="M575.31,315.71a1.18,1.18,0,1,1,0,.94Z"/></g><g id="ARC-27" data-name="ARC"><path class="cls-2" d="M576.63,310.32a1.19,1.19,0,0,1,.94,1.16,1.18,1.18,0,0,1-2.35,0,1.19,1.19,0,0,1,.94-1.16Z"/></g><g id="ARC-28" data-name="ARC"><path class="cls-2" d="M576.63,322a1.17,1.17,0,0,0,.94-1.15,1.18,1.18,0,1,0-2.35,0,1.17,1.17,0,0,0,.94,1.15Z"/></g><g id="LINE-113" data-name="LINE"><path class="cls-2" d="M570.74,315.71h5.65a.47.47,0,1,1,0,.94h-5.65a.47.47,0,0,1,0-.94Z"/></g><line class="cls-2" x1="576.39" y1="311.49" x2="576.39" y2="308.18"/><line class="cls-2" x1="576.39" y1="324.19" x2="576.39" y2="320.88"/><g id="ARC-29" data-name="ARC"><path class="cls-2" d="M315.06,279.8c3.18-.35,11.57-1,11.57-1"/></g><g id="ARC-30" data-name="ARC"><path class="cls-2" d="M322.42,291.1a.82.82,0,0,1-.52.77c-.35.15-.7.28-1.06.4a14.68,14.68,0,0,1-2.94.64c-.53.06-1.06.11-1.6.14a15.79,15.79,0,0,1-4.17-.35,10.14,10.14,0,0,1-5.33-3.08,4.82,4.82,0,0,1,.07-6.55,10.14,10.14,0,0,1,5.38-3,15.44,15.44,0,0,1,4.18-.27c.53,0,1.07.1,1.6.17a14.88,14.88,0,0,1,2.93.7l1.05.42a.82.82,0,0,1,.5.78Z"/></g><g id="ARC-31" data-name="ARC"><path class="cls-2" d="M314.93,293.06c3.17.41,11.7,1,11.7,1"/></g><g id="ARC-32" data-name="ARC"><path class="cls-2" d="M326.48,278.79a1.1,1.1,0,0,0-1,1,55.81,55.81,0,0,0,0,13.34,1.1,1.1,0,0,0,1,1h0c1.14.05,2.29.09,3.43.12a1.47,1.47,0,0,0,1.5-1.34q.27-3.21.27-6.42t-.27-6.42a1.47,1.47,0,0,0-1.5-1.34c-1.14,0-2.29.07-3.43.12Z"/></g><g id="ARC-33" data-name="ARC"><path class="cls-2" d="M327.49,219.26a1.15,1.15,0,0,1,1.07-.7,1.16,1.16,0,0,1,1.16,1.16,1.16,1.16,0,0,1-2.23.47Z"/></g><g id="ARC-34" data-name="ARC"><path class="cls-2" d="M328.79,213.91a1.17,1.17,0,1,1-.47,0Z"/></g><g id="ARC-35" data-name="ARC"><path class="cls-2" d="M328.79,225.54a1.17,1.17,0,1,0-.47,0Z"/></g><g id="LINE-114" data-name="LINE"><path class="cls-2" d="M323,219.26h5.61a.47.47,0,0,1,0,.93H323a.47.47,0,1,1,0-.93Z"/></g><line class="cls-2" x1="328.56" y1="215.06" x2="328.56" y2="211.78"/><line class="cls-2" x1="328.56" y1="227.67" x2="328.56" y2="224.38"/><g id="LWPOLYLINE-180" data-name="LWPOLYLINE"><path class="cls-1" d="M325.18,248.2v8.34a.93.93,0,0,1-.93.92H313.13a.92.92,0,0,1-.92-.92V238.93a.92.92,0,0,1,.92-.92h11.12a.93.93,0,0,1,.93.92v9.27Z"/></g><g id="ARC-36" data-name="ARC"><path class="cls-2" d="M327.49,247.27a1.15,1.15,0,0,1,1.07-.7,1.17,1.17,0,1,1-1.07,1.63Z"/></g><g id="ARC-37" data-name="ARC"><path class="cls-2" d="M328.79,241.92a1.17,1.17,0,1,1-.47,0Z"/></g><g id="ARC-38" data-name="ARC"><path class="cls-2" d="M328.79,253.55a1.17,1.17,0,1,0-.47,0Z"/></g><g id="LINE-115" data-name="LINE"><path class="cls-2" d="M323,247.27h5.61a.47.47,0,0,1,0,.93H323a.47.47,0,1,1,0-.93Z"/></g><line class="cls-2" x1="328.56" y1="243.08" x2="328.56" y2="239.79"/><line class="cls-2" x1="328.56" y1="255.68" x2="328.56" y2="252.4"/><g id="LWPOLYLINE-181" data-name="LWPOLYLINE"><path class="cls-1" d="M325.18,220.42v8.34a.93.93,0,0,1-.93.92H313.13a.92.92,0,0,1-.92-.92V211.15a.92.92,0,0,1,.92-.92h11.12a.93.93,0,0,1,.93.92v9.27Z"/></g><g id="LWPOLYLINE-182" data-name="LWPOLYLINE"><rect class="cls-1" x="309.43" y="203.05" width="22.24" height="66.71"/></g><g id="LWPOLYLINE-183" data-name="LWPOLYLINE"><polygon class="cls-11" points="650.7 418.79 650.7 410.3 771.71 410.3 771.71 375.2 799.83 375.2 799.83 169.36 798.81 171.15 797.2 173.1 795.27 174.74 793.08 176.02 790.7 176.89 788.21 177.33 785.67 177.33 783.18 176.89 780.8 176.02 778.61 174.74 776.64 173.05 774.93 170.91 773.81 168.95 770.06 168.95 770.06 185.82 769.36 185.82 769.36 339.57 681.71 339.57 681.71 361.84 664.83 361.84 664.83 365.36 681.71 365.36 681.71 369.52 685.22 369.52 685.22 343.09 762.68 343.09 762.68 407.43 685.22 407.43 685.22 403.27 681.71 403.27 681.71 407.43 638.46 407.43 638.46 413.17 641.39 413.17 641.39 418.79 649.96 418.79 650.7 418.79"/></g><g id="LWPOLYLINE-184" data-name="LWPOLYLINE"><polygon class="cls-11" points="599.98 365.36 631.08 365.36 631.08 361.84 627.33 361.84 627.33 332.6 623.81 332.6 623.81 361.84 588.66 361.84 588.66 269.5 623.81 269.5 623.81 298.85 627.33 298.85 627.33 228.95 623.81 228.95 623.81 259.89 542.37 259.89 542.37 249.57 511.43 249.57 511.43 191.45 540.02 191.45 540.02 185.82 511.31 185.82 511.31 168.95 507.56 168.95 506.25 171.23 504.7 173.1 502.77 174.74 500.58 176.02 498.2 176.89 495.71 177.33 493.17 177.33 490.68 176.89 488.3 176.02 486.11 174.74 484.14 173.05 482.56 171.15 481.31 168.95 477.56 168.95 477.56 185.82 477.45 185.82 477.45 222.5 495.38 222.5 495.38 322.11 498.89 322.11 498.89 266.22 557.02 266.22 557.02 297.15 561 297.15 561 294.69 574.13 294.69 574.13 297.15 579.05 297.15 579.05 361.84 498.89 361.84 498.89 355.86 495.38 355.86 495.38 361.84 491.63 361.84 491.63 365.36 500.01 365.36 599.98 365.36"/></g><g id="LWPOLYLINE-185" data-name="LWPOLYLINE"><polygon class="cls-11" points="457.88 365.36 457.88 361.84 440.53 361.84 440.53 332.54 397.35 332.54 397.35 336.06 408.19 336.06 408.19 358.56 341.51 358.56 341.51 336.06 352.35 336.06 352.35 332.54 341.51 332.54 341.51 191.45 365.06 191.45 365.06 168.95 361.31 168.95 360.06 171.15 358.45 173.1 356.3 174.87 354.33 176.02 351.95 176.89 349.46 177.33 346.92 177.33 344.43 176.89 342.05 176.02 339.86 174.74 337.89 173.05 336.31 171.15 335.06 168.95 331.31 168.95 331.31 185.82 329.44 185.82 329.44 191.45 331.31 191.45 331.31 306.06 303.66 306.06 303.66 309.57 331.31 309.57 331.31 345.2 267.56 345.2 267.56 301.84 264.05 301.84 264.05 326.92 260.3 326.92 260.3 330.43 264.05 330.43 264.05 365.36 274.65 365.36 274.65 361.84 267.56 361.84 267.56 348.72 337.99 348.72 337.99 361.84 330.9 361.84 330.9 365.36 450.02 365.36 457.88 365.36"/></g><g id="LWPOLYLINE-186" data-name="LWPOLYLINE"><polygon class="cls-11" points="205.92 268.09 205.92 264.34 264.05 264.34 264.05 268.09 267.56 268.09 267.56 260.82 218.81 260.82 218.81 191.45 220.69 191.45 220.69 185.82 218.81 185.82 218.81 164.73 193.97 164.73 193.97 174.57 155.18 174.57 155.18 178.09 158.93 178.09 158.93 264.34 168.92 264.34 168.92 260.82 162.45 260.82 162.45 238.32 215.3 238.32 215.3 260.82 197.05 260.82 197.05 264.34 202.41 264.34 202.41 268.09 205.92 268.09"/></g><g id="LWPOLYLINE-187" data-name="LWPOLYLINE"><polygon class="cls-11" points="623.81 195.2 627.33 195.2 627.33 191.45 657.56 191.45 657.56 168.95 653.81 168.95 652.56 171.15 650.95 173.1 649.02 174.74 646.83 176.02 644.45 176.89 641.96 177.33 639.42 177.33 636.93 176.89 634.55 176.02 632.36 174.74 630.39 173.05 628.81 171.15 627.56 168.95 623.81 168.95 623.81 185.82 621.94 185.82 621.94 191.45 623.81 191.45 623.81 195.2"/></g><g id="LWPOLYLINE-188" data-name="LWPOLYLINE"><polygon class="cls-11" points="218.81 52.23 218.81 0.2 215.06 0.2 213.81 2.4 212.2 4.35 210.27 5.99 208.08 7.27 205.7 8.14 203.21 8.58 200.67 8.58 198.18 8.14 195.8 7.27 193.61 5.99 191.68 4.35 190.06 2.4 188.81 0.2 185.06 0.2 185.06 42.51 204.75 42.51 204.75 52.23 218.81 52.23"/></g><g id="LWPOLYLINE-189" data-name="LWPOLYLINE"><polygon class="cls-11" points="100.12 22.7 125.06 22.7 125.06 0.2 121.31 0.2 120.06 2.4 118.45 4.35 116.52 5.99 114.33 7.27 111.95 8.14 109.46 8.58 106.92 8.58 104.43 8.14 102.05 7.27 99.86 5.99 97.93 4.35 96.31 2.4 95.06 0.2 91.31 0.2 91.31 22.7 100.12 22.7"/></g><polygon class="cls-11" points="581.16 407.43 581.16 410.82 584.32 410.82 584.32 433.32 555.96 433.32 555.96 410.82 558.66 410.82 558.66 407.43 186.14 407.43 186.14 370.29 205.86 370.29 205.86 367.17 183.3 367.17 183.3 407.43 81.59 407.43 79.39 407.21 77.28 406.57 75.13 405.36 73.63 404.13 72.23 402.43 71.19 400.48 70.55 398.37 70.34 396.18 70.34 341.68 70.55 339.49 71.19 337.38 72.23 335.43 73.63 333.73 75.34 332.33 77.28 331.29 79.39 330.65 81.59 330.43 226.55 330.43 226.55 326.92 205.92 326.92 205.92 301.84 202.41 301.84 202.41 305.94 197.05 305.94 197.05 309.46 202.41 309.46 202.41 326.33 162.39 326.33 162.39 309.46 168.92 309.46 168.92 305.94 152.37 305.94 152.37 309.46 158.87 309.46 158.87 326.33 117.68 326.33 117.68 309.46 124.24 309.46 124.24 305.94 117.68 305.94 117.68 301.84 114.17 301.84 114.17 326.33 34.13 326.33 34.13 293.29 3.07 293.29 3.07 245.71 114.17 245.71 114.17 268.09 117.68 268.09 117.68 217.82 114.17 217.82 114.17 242.19 34.13 242.19 34.13 178.09 114.17 178.09 114.17 184.07 117.68 184.07 117.68 178.09 121.43 178.09 121.43 174.57 31.2 174.57 31.2 17.07 31.31 17.07 31.31 0.2 28.33 0.2 28.33 177.45 31.25 177.45 31.25 242.84 0.2 242.84 0.2 295.04 32.37 295.04 32.37 329.2 67.47 329.21 67.47 410.8 196.31 410.8 196.31 410.82 554.03 410.82 554.03 435.55 584.45 435.55 590.06 435.55 590.06 418.79 590.77 418.79 590.77 413.17 604.71 413.17 604.71 407.43 581.16 407.43"/><line class="cls-1" x1="210.15" y1="349.24" x2="214.43" y2="351.38"/><line class="cls-1" x1="210.15" y1="349.17" x2="214.5" y2="347.01"/><line class="cls-1" x1="220.69" y1="349.2" x2="210.15" y2="349.2"/><g id="LWPOLYLINE-190" data-name="LWPOLYLINE"><path class="cls-16" d="M89.43,17.13,63.12,27.06a28.07,28.07,0,0,1-1.81-9.93"/></g><g id="LWPOLYLINE-191" data-name="LWPOLYLINE"><path class="cls-16" d="M33.18,17.13,59.5,27.06a28.07,28.07,0,0,0,1.81-9.93"/></g><g id="LWPOLYLINE-192" data-name="LWPOLYLINE"><path class="cls-16" d="M183.18,17.13l-26.31,9.93a28.07,28.07,0,0,1-1.81-9.93"/></g><g id="LWPOLYLINE-193" data-name="LWPOLYLINE"><path class="cls-16" d="M126.93,17.13l26.32,9.93a28.07,28.07,0,0,0,1.81-9.93"/></g><path class="cls-17" d="M67.52,83.54h.88L70.22,88h0l1.82-4.45h.88v5.6h-.67V84.6h0l-1.89,4.54h-.28L68.19,84.6h0v4.54h-.66Z"/><path class="cls-17" d="M77.86,88H75.35L75,89.14h-.68l2-5.6h.64l2,5.6h-.68Zm-.2-.58-1-3h0l-1,3Z"/><path class="cls-17" d="M79.82,87.28l.66-.11a1.46,1.46,0,0,0,1.65,1.46c.78,0,1.29-.36,1.29-.9s-.37-.88-1.54-1.25c-1.34-.44-1.78-.83-1.78-1.58s.73-1.48,1.79-1.48a2,2,0,0,1,2,1.63l-.65.14A1.34,1.34,0,0,0,81.88,84c-.68,0-1.13.34-1.13.86s.32.66,1.34,1c1.46.47,2,1,2,1.84s-.79,1.54-2,1.54A2.06,2.06,0,0,1,79.82,87.28Z"/><path class="cls-17" d="M86.86,84.16H85.12v-.62h4.15v.62H87.53v5h-.67Z"/><path class="cls-17" d="M90.74,83.54H94.1v.62H91.4V86h2.48v.6H91.4v2h2.7v.63H90.74Z"/><path class="cls-17" d="M98.19,86.83l1.24,2.31h-.78l-1.18-2.27H96.35v2.27h-.66v-5.6h2c1.17,0,1.86.62,1.86,1.65a1.55,1.55,0,0,1-1.4,1.63Zm-.52-.59c.83,0,1.26-.36,1.26-1s-.42-1-1.26-1H96.35v2.08Z"/><path class="cls-17" d="M65,92h2.15a1.46,1.46,0,0,1,1.63,1.45,1.2,1.2,0,0,1-.66,1.15h0A1.35,1.35,0,0,1,69,96c0,1.08-.68,1.66-2,1.66H65Zm2,2.37c.73,0,1.09-.29,1.09-.89s-.37-.86-1.09-.86H65.66v1.75Zm-.1,2.6c1,0,1.39-.31,1.39-1s-.39-1-1.37-1h-1.3v2Z"/><path class="cls-17" d="M70.63,92H74v.62h-2.7v1.79h2.47v.6H71.29v2H74v.63H70.63Z"/><path class="cls-17" d="M75.58,92h1.74c1.42,0,2.42,1,2.42,2.79,0,2-1,2.81-2.46,2.81h-1.7Zm1.66,5c1.13,0,1.84-.6,1.84-2.18,0-1.43-.71-2.17-1.8-2.17h-1V97Z"/><path class="cls-17" d="M83.87,95.33l1.23,2.31h-.77l-1.18-2.27H82v2.27h-.65V92h2c1.17,0,1.86.62,1.86,1.65a1.55,1.55,0,0,1-1.4,1.63Zm-.52-.59c.83,0,1.26-.36,1.26-1s-.43-1-1.26-1H82v2.08Z"/><path class="cls-17" d="M86.53,94.84c0-1.75,1-2.92,2.36-2.92s2.36,1.17,2.36,2.92-.94,2.92-2.36,2.92S86.53,96.59,86.53,94.84Zm4.06,0c0-1.42-.65-2.3-1.7-2.3s-1.69.88-1.69,2.3.65,2.29,1.69,2.29S90.59,96.25,90.59,94.84Z"/><path class="cls-17" d="M92.6,94.84c0-1.75.94-2.92,2.35-2.92s2.36,1.17,2.36,2.92-.94,2.92-2.36,2.92S92.6,96.59,92.6,94.84Zm4.05,0c0-1.42-.65-2.3-1.7-2.3s-1.69.88-1.69,2.3.65,2.29,1.69,2.29S96.65,96.25,96.65,94.84Z"/><path class="cls-17" d="M98.94,92h.88l1.82,4.45h0L103.47,92h.88v5.6h-.67V93.1h0l-1.89,4.54h-.28L99.61,93.1h0v4.54h-.66Z"/><path class="cls-17" d="M58.38,101.29l-1.25.81v-.7l1.33-.86H59v5.6h-.66Z"/><path class="cls-17" d="M60.64,104.66l.65-.16a1.41,1.41,0,1,0,1.43-1.59,1.8,1.8,0,0,0-1.35.6l-.59-.15.54-2.82h2.93v.62H61.82l-.3,1.55h0a2.05,2.05,0,0,1,1.28-.38,1.88,1.88,0,0,1,1.95,1.93,1.93,1.93,0,0,1-2,2A2,2,0,0,1,60.64,104.66Z"/><path class="cls-17" d="M66,100.54h.58v1.78H66Z"/><path class="cls-17" d="M67.74,103h2.09v.6H67.74Z"/><path class="cls-17" d="M72.09,101.29l-1.25.81v-.7l1.33-.86h.58v5.6h-.66Z"/><path class="cls-17" d="M75.53,101.29l-1.25.81v-.7l1.33-.86h.58v5.6h-.66Z"/><path class="cls-17" d="M78.15,100.54h.59v1.78h-.59Zm1.06,0h.58v1.78h-.58Z"/><path class="cls-17" d="M83.49,104.7l1.31-1.3-1.31-1.29.39-.39L85.17,103l1.29-1.31.4.39-1.31,1.29,1.31,1.3-.4.39-1.29-1.31-1.29,1.31Z"/><path class="cls-17" d="M91,101.29l-1.24.81v-.7l1.32-.86h.59v5.6H91Z"/><path class="cls-17" d="M95.92,105h-2.8v-.57l2.46-3.88h1v3.87h.71V105h-.71v1.15h-.66Zm0-.58v-3.35h0l-2.13,3.35Z"/><path class="cls-17" d="M98.65,100.54h.58v1.78h-.58Z"/><path class="cls-17" d="M100.64,103h2.09v.6h-2.09Z"/><path class="cls-17" d="M104.18,103.34c0-1.82.9-2.92,2.21-2.92s2.22,1.1,2.22,2.92-.91,2.92-2.22,2.92S104.18,105.15,104.18,103.34Zm3.76,0c0-1.47-.61-2.3-1.55-2.3s-1.55.83-1.55,2.3.62,2.29,1.55,2.29S107.94,104.8,107.94,103.34Z"/><path class="cls-17" d="M110.13,100.54h.58v1.78h-.58Zm1.05,0h.59v1.78h-.59Z"/><path class="cls-17" d="M695,376v-3.78h.66V376a1.2,1.2,0,0,0,1.33,1.36,1.21,1.21,0,0,0,1.36-1.35v-3.74H699V376a2,2,0,0,1-4,0Z"/><path class="cls-17" d="M702.2,372.86h-1.74v-.62h4.15v.62h-1.74v5h-.67Z"/><path class="cls-17" d="M706.08,372.24h.66v5.6h-.66Z"/><path class="cls-17" d="M708.65,372.24h.65v5h2.53v.63h-3.18Z"/><path class="cls-17" d="M713.3,372.24H714v5.6h-.66Z"/><path class="cls-17" d="M717.16,372.86h-1.74v-.62h4.15v.62h-1.74v5h-.67Z"/><path class="cls-17" d="M722.63,375.5l-2-3.26h.77l1.51,2.62h0l1.52-2.62h.77l-2,3.26v2.34h-.67Z"/><path class="cls-17" d="M700.82,384l1.23,2.3h-.77l-1.18-2.27H699v2.27h-.66v-5.6h2c1.17,0,1.86.62,1.86,1.66a1.54,1.54,0,0,1-1.4,1.62Zm-.52-.6c.83,0,1.26-.36,1.26-1s-.42-1-1.26-1H699v2.08Z"/><path class="cls-17" d="M703.48,383.54c0-1.75.95-2.92,2.36-2.92s2.36,1.17,2.36,2.92-.94,2.92-2.36,2.92S703.48,385.29,703.48,383.54Zm4.06,0c0-1.42-.65-2.3-1.7-2.3s-1.69.88-1.69,2.3.65,2.29,1.69,2.29S707.54,385,707.54,383.54Z"/><path class="cls-17" d="M709.55,383.54c0-1.75.94-2.92,2.35-2.92s2.36,1.17,2.36,2.92-.94,2.92-2.36,2.92S709.55,385.29,709.55,383.54Zm4.05,0c0-1.42-.65-2.3-1.7-2.3s-1.69.88-1.69,2.3.65,2.29,1.69,2.29S713.6,385,713.6,383.54Z"/><path class="cls-17" d="M715.89,380.74h.88l1.82,4.45h0l1.82-4.45h.88v5.6h-.66V381.8h0l-1.89,4.54h-.28l-1.88-4.54h0v4.54h-.66Z"/><path class="cls-17" d="M380.8,303.45H383a1.45,1.45,0,0,1,1.63,1.44,1.18,1.18,0,0,1-.65,1.15v0a1.34,1.34,0,0,1,.86,1.33c0,1.08-.68,1.65-2,1.65h-2Zm2,2.37c.73,0,1.09-.3,1.09-.89s-.37-.86-1.09-.86h-1.37v1.75Zm-.09,2.6c1,0,1.39-.31,1.39-1s-.39-1-1.38-1h-1.29v2Z"/><path class="cls-17" d="M386.43,303.45h3.36v.62h-2.71v1.79h2.48v.59h-2.48v2h2.71V309h-3.36Z"/><path class="cls-17" d="M391.38,303.45h1.74c1.42,0,2.42,1,2.42,2.79,0,2-1,2.8-2.47,2.8h-1.69Zm1.65,5c1.14,0,1.84-.6,1.84-2.18s-.7-2.17-1.79-2.17H392v4.35Z"/><path class="cls-17" d="M399.67,306.74l1.23,2.3h-.78l-1.18-2.27h-1.12V309h-.65v-5.59h2c1.17,0,1.87.62,1.87,1.65a1.54,1.54,0,0,1-1.4,1.62Zm-.52-.59c.82,0,1.25-.36,1.25-1s-.42-1-1.25-1h-1.33v2.08Z"/><path class="cls-17" d="M402.33,306.25c0-1.76.94-2.92,2.36-2.92s2.36,1.16,2.36,2.92-.94,2.91-2.36,2.91S402.33,308,402.33,306.25Zm4.06,0c0-1.42-.65-2.3-1.7-2.3s-1.7.88-1.7,2.3.65,2.29,1.7,2.29S406.39,307.66,406.39,306.25Z"/><path class="cls-17" d="M408.39,306.25c0-1.76.94-2.92,2.36-2.92s2.36,1.16,2.36,2.92-.94,2.91-2.36,2.91S408.39,308,408.39,306.25Zm4.06,0c0-1.42-.65-2.3-1.7-2.3s-1.69.88-1.69,2.3.64,2.29,1.69,2.29S412.45,307.66,412.45,306.25Z"/><path class="cls-17" d="M414.74,303.45h.88l1.81,4.44h0l1.82-4.44h.88V309h-.67V304.5h0L417.58,309h-.28l-1.89-4.54h0V309h-.66Z"/><path class="cls-17" d="M425.18,308.42h3V309h-3.71v-.52a2,2,0,0,1,.23-1.07c.2-.37.54-.64,1.42-1.09,1.16-.6,1.5-.94,1.5-1.5s-.49-.91-1.17-.91a1.3,1.3,0,0,0-1.4,1.36l-.66-.06a1.92,1.92,0,0,1,2.06-1.92,1.68,1.68,0,0,1,1.83,1.53c0,.82-.42,1.31-1.65,1.94-.93.47-1.19.65-1.33.93A1.58,1.58,0,0,0,425.18,308.42Z"/><path class="cls-17" d="M378.73,312.7l-1.25.81v-.7l1.33-.86h.58v5.59h-.66Z"/><path class="cls-17" d="M381,315.68l.66-.1c.11,1,.58,1.46,1.41,1.46a1.07,1.07,0,0,0,1.19-1.08c0-.76-.43-1.12-1.31-1.12h-.4v-.57h.4a1.06,1.06,0,0,0,1.17-.91c0-.57-.4-.93-1.06-.93a1.19,1.19,0,0,0-1.27,1.06l-.64-.1a1.79,1.79,0,0,1,1.91-1.56,1.53,1.53,0,0,1,1.72,1.48,1.34,1.34,0,0,1-.76,1.18v0a1.47,1.47,0,0,1,.9,1.45,1.68,1.68,0,0,1-1.85,1.7A2,2,0,0,1,381,315.68Z"/><path class="cls-17" d="M386.56,312h.58v1.78h-.58Z"/><path class="cls-17" d="M388.28,314.35h2.09v.6h-2.09Z"/><path class="cls-17" d="M391.52,316a1.57,1.57,0,0,1,1.05-1.5h0a1.25,1.25,0,0,1-.74-1.17,1.79,1.79,0,0,1,3.52,0,1.27,1.27,0,0,1-.74,1.17h0a1.57,1.57,0,0,1,1,1.5c0,1-.81,1.68-2.06,1.68S391.52,317,391.52,316Zm3.45,0c0-.67-.53-1.1-1.38-1.1s-1.39.43-1.39,1.1.53,1.08,1.39,1.08S395,316.61,395,315.94Zm-.28-2.6c0-.55-.44-.91-1.1-.91s-1.1.36-1.1.91.44.88,1.1.88S394.69,313.87,394.69,313.34Z"/><path class="cls-17" d="M397.09,312h.58v1.78h-.58Zm1.05,0h.59v1.78h-.59Z"/><path class="cls-17" d="M402.42,316.1l1.31-1.29-1.31-1.3.39-.39,1.29,1.31,1.3-1.31.39.39-1.31,1.3,1.31,1.29-.39.4-1.3-1.32-1.29,1.32Z"/><path class="cls-17" d="M410,312.7l-1.25.81v-.7l1.33-.86h.58v5.59H410Z"/><path class="cls-17" d="M412.22,315.68l.66-.1c.11,1,.58,1.46,1.4,1.46a1.07,1.07,0,0,0,1.2-1.08c0-.76-.43-1.12-1.32-1.12h-.4v-.57h.4a1.06,1.06,0,0,0,1.18-.91c0-.57-.4-.93-1.07-.93a1.19,1.19,0,0,0-1.26,1.06l-.65-.1a1.8,1.8,0,0,1,1.91-1.56,1.54,1.54,0,0,1,1.73,1.48,1.34,1.34,0,0,1-.76,1.18v0a1.48,1.48,0,0,1,.9,1.45,1.69,1.69,0,0,1-1.86,1.7A2,2,0,0,1,412.22,315.68Z"/><path class="cls-17" d="M417.8,312h.58v1.78h-.58Z"/><path class="cls-17" d="M419.79,314.35h2.09v.6h-2.09Z"/><path class="cls-17" d="M423.33,314.75c0-1.82.9-2.92,2.21-2.92s2.22,1.1,2.22,2.92-.91,2.91-2.22,2.91S423.33,316.56,423.33,314.75Zm3.76,0c0-1.47-.61-2.3-1.55-2.3s-1.55.83-1.55,2.3.62,2.29,1.55,2.29S427.09,316.21,427.09,314.75Z"/><path class="cls-17" d="M429.28,312h.58v1.78h-.58Zm1.05,0h.59v1.78h-.59Z"/><path class="cls-17" d="M456,103.57h-1.74v-.63h4.15v.63h-1.74v5H456Z"/><path class="cls-17" d="M459.83,102.94h3.36v.63h-2.7v1.79H463V106h-2.48v2h2.7v.62h-3.36Z"/><path class="cls-17" d="M467.29,106.24l1.23,2.3h-.78l-1.18-2.27h-1.12v2.27h-.66v-5.6h2c1.17,0,1.86.63,1.86,1.66a1.54,1.54,0,0,1-1.39,1.62Zm-.52-.59c.82,0,1.25-.36,1.25-1.05s-.42-1-1.25-1h-1.33v2.08Z"/><path class="cls-17" d="M472.73,106.24l1.23,2.3h-.77L472,106.27h-1.11v2.27h-.66v-5.6h2c1.17,0,1.86.63,1.86,1.66a1.54,1.54,0,0,1-1.4,1.62Zm-.52-.59c.83,0,1.26-.36,1.26-1.05s-.43-1-1.26-1h-1.32v2.08Z"/><path class="cls-17" d="M478.77,107.41h-2.52l-.39,1.13h-.68l2-5.6h.64l2,5.6h-.68Zm-.2-.57-1.05-3h0l-1.05,3Z"/><path class="cls-17" d="M480.7,105.74c0-1.75.94-2.92,2.35-2.92a2.1,2.1,0,0,1,2.15,2l-.66.12c-.16-.94-.67-1.44-1.49-1.44-1,0-1.69.88-1.69,2.29s.64,2.3,1.69,2.3c.87,0,1.38-.55,1.48-1.57l.68.09a2.08,2.08,0,0,1-2.16,2.1C481.62,108.66,480.7,107.52,480.7,105.74Z"/><path class="cls-17" d="M486.79,102.94h3.36v.63h-2.71v1.79h2.48V106h-2.48v2h2.71v.62h-3.36Z"/><path class="cls-17" d="M494.4,102.94h2.15a1.46,1.46,0,0,1,1.63,1.45,1.19,1.19,0,0,1-.66,1.15v0a1.34,1.34,0,0,1,.87,1.32c0,1.08-.68,1.66-2,1.66h-2Zm2,2.38q1.08,0,1.08-.9c0-.56-.36-.85-1.08-.85h-1.38v1.75Zm-.1,2.6c1,0,1.39-.32,1.39-1s-.39-1-1.37-1h-1.3v2Z"/><path class="cls-17" d="M500,102.94h3.36v.63h-2.71v1.79h2.48V106h-2.48v2h2.71v.62H500Z"/><path class="cls-17" d="M505,102.94h.66v5h2.52v.62H505Z"/><path class="cls-17" d="M509.16,105.74c0-1.75.94-2.92,2.36-2.92s2.36,1.17,2.36,2.92-1,2.92-2.36,2.92S509.16,107.49,509.16,105.74Zm4.05,0c0-1.41-.65-2.29-1.69-2.29s-1.7.88-1.7,2.29.65,2.3,1.7,2.3S513.21,107.16,513.21,105.74Z"/><path class="cls-17" d="M515,102.94h.68l.83,4.55h0l1.39-4.55h.62l1.39,4.55h0l.82-4.55h.68l-1,5.6h-.8l-1.37-4.49h0l-1.37,4.49H516Z"/><path class="cls-17" d="M685.41,256.18h2.15a1.46,1.46,0,0,1,1.63,1.45,1.2,1.2,0,0,1-.65,1.15v0a1.32,1.32,0,0,1,.86,1.32c0,1.08-.68,1.66-2,1.66h-2Zm2,2.38c.73,0,1.09-.3,1.09-.9s-.37-.85-1.09-.85h-1.37v1.75Zm-.1,2.59c1,0,1.39-.31,1.39-1s-.39-1-1.37-1h-1.29v2Z"/><path class="cls-17" d="M691,256.18h3.36v.63h-2.7v1.79h2.48v.59h-2.48v2h2.7v.63H691Z"/><path class="cls-17" d="M696,256.18h1.75c1.41,0,2.41,1,2.41,2.79,0,2-1,2.81-2.46,2.81H696Zm1.66,5c1.13,0,1.84-.59,1.84-2.18,0-1.43-.71-2.16-1.79-2.16h-1.05v4.34Z"/><path class="cls-17" d="M704.27,259.47l1.24,2.31h-.78l-1.18-2.27h-1.12v2.27h-.66v-5.6h2c1.17,0,1.86.63,1.86,1.66a1.54,1.54,0,0,1-1.4,1.62Zm-.52-.59c.83,0,1.26-.36,1.26-1s-.42-1-1.26-1h-1.32v2.07Z"/><path class="cls-17" d="M706.94,259c0-1.75.94-2.92,2.36-2.92s2.35,1.17,2.35,2.92-.94,2.92-2.35,2.92S706.94,260.73,706.94,259Zm4,0c0-1.42-.65-2.3-1.69-2.3s-1.7.88-1.7,2.3.65,2.29,1.7,2.29S711,260.39,711,259Z"/><path class="cls-17" d="M713,259c0-1.75.94-2.92,2.36-2.92s2.36,1.17,2.36,2.92-1,2.92-2.36,2.92S713,260.73,713,259Zm4,0c0-1.42-.65-2.3-1.69-2.3s-1.7.88-1.7,2.3.65,2.29,1.7,2.29S717.05,260.39,717.05,259Z"/><path class="cls-17" d="M719.35,256.18h.88l1.81,4.45h0l1.81-4.45h.88v5.6h-.66v-4.54h0l-1.89,4.54h-.28L720,257.24h0v4.54h-.65Z"/><path class="cls-17" d="M728.92,259.92l.66-.11c.11,1,.58,1.46,1.4,1.46a1.07,1.07,0,0,0,1.2-1.08c0-.76-.43-1.11-1.32-1.11h-.39v-.58h.39c.67,0,1.18-.4,1.18-.9s-.4-.93-1.06-.93a1.19,1.19,0,0,0-1.27,1.05l-.64-.09a1.79,1.79,0,0,1,1.91-1.57,1.54,1.54,0,0,1,1.72,1.49,1.33,1.33,0,0,1-.76,1.17v0a1.48,1.48,0,0,1,.9,1.45A1.69,1.69,0,0,1,731,261.9,2,2,0,0,1,728.92,259.92Z"/><path class="cls-17" d="M685.79,265.43l-1.25.81v-.7l1.33-.86h.58v5.6h-.66Z"/><path class="cls-17" d="M688.91,269.65h3v.63h-3.72v-.53a2,2,0,0,1,.23-1.06c.2-.37.54-.64,1.42-1.1,1.16-.6,1.5-.93,1.5-1.49s-.49-.92-1.17-.92a1.3,1.3,0,0,0-1.4,1.36l-.66-.05a1.93,1.93,0,0,1,2.06-1.93A1.68,1.68,0,0,1,692,266.1c0,.82-.41,1.31-1.65,1.93-.93.47-1.19.66-1.33.94A1.56,1.56,0,0,0,688.91,269.65Z"/><path class="cls-17" d="M693.75,264.68h.58v1.78h-.58Z"/><path class="cls-17" d="M700.73,265.32h-2.91v-.63h3.66v.58l-2.27,5h-.74Z"/><path class="cls-17" d="M703.11,264.68h.58v1.78h-.58Zm1,0h.58v1.78h-.58Z"/><path class="cls-17" d="M708.44,268.84l1.31-1.3-1.31-1.29.39-.39,1.29,1.31,1.3-1.31.39.39-1.31,1.29,1.31,1.3-.39.39-1.3-1.31-1.29,1.31Z"/><path class="cls-17" d="M716,265.43l-1.24.81v-.7l1.33-.86h.58v5.6H716Z"/><path class="cls-17" d="M718.24,268.42l.66-.11c.11,1,.58,1.46,1.4,1.46a1.07,1.07,0,0,0,1.2-1.08c0-.76-.43-1.11-1.32-1.11h-.4V267h.4c.67,0,1.18-.4,1.18-.9s-.4-.93-1.06-.93a1.19,1.19,0,0,0-1.27,1.05l-.65-.09a1.81,1.81,0,0,1,1.92-1.57,1.54,1.54,0,0,1,1.72,1.49,1.33,1.33,0,0,1-.76,1.17v0a1.5,1.5,0,0,1,.9,1.45,1.7,1.7,0,0,1-1.86,1.71A2,2,0,0,1,718.24,268.42Z"/><path class="cls-17" d="M723.82,264.68h.58v1.78h-.58Z"/><path class="cls-17" d="M725.82,268.72a1.56,1.56,0,0,1,1-1.5v0a1.24,1.24,0,0,1-.74-1.17,1.79,1.79,0,0,1,3.52,0,1.26,1.26,0,0,1-.74,1.17v0a1.56,1.56,0,0,1,1,1.5c0,1-.81,1.68-2.06,1.68S725.82,269.73,725.82,268.72Zm3.45,0c0-.67-.53-1.1-1.38-1.1s-1.39.43-1.39,1.1.53,1.08,1.39,1.08S729.27,269.34,729.27,268.68Zm-.28-2.61c0-.54-.44-.91-1.1-.91s-1.1.37-1.1.91.44.88,1.1.88S729,266.61,729,266.07Z"/><path class="cls-17" d="M731.39,264.68H732v1.78h-.58Zm1.05,0H733v1.78h-.58Z"/><path class="cls-17" d="M745.51,388.72h.68l.82,4.55h0l1.38-4.55H749l1.39,4.55h0l.83-4.55H752l-1,5.6h-.8l-1.38-4.5h0l-1.37,4.5h-.81Z"/><path class="cls-17" d="M746.81,358.18h1.75c1.41,0,2.41,1,2.41,2.79,0,2-1,2.8-2.46,2.8h-1.7Zm1.66,5c1.13,0,1.84-.6,1.84-2.18s-.71-2.17-1.79-2.17h-1v4.35Z"/><polygon class="cls-17" points="615.4 434.07 620.8 419.67 626.2 434.07 615.4 434.07"/></g></g></svg>