<svg xmlns="http://www.w3.org/2000/svg" viewBox="0 0 732.76 390.82"><defs><style>.cls-1,.cls-10,.cls-12,.cls-13,.cls-15,.cls-16,.cls-17,.cls-18,.cls-19,.cls-4,.cls-6,.cls-7{fill:none;}.cls-1,.cls-11,.cls-12,.cls-13,.cls-14,.cls-15,.cls-16,.cls-17,.cls-18,.cls-19,.cls-2,.cls-3,.cls-4,.cls-7,.cls-8,.cls-9{stroke:#231f20;}.cls-1,.cls-10,.cls-11,.cls-12,.cls-16,.cls-17,.cls-18,.cls-19,.cls-2,.cls-3,.cls-4,.cls-7,.cls-8{stroke-linecap:round;}.cls-1,.cls-10,.cls-11,.cls-12,.cls-16,.cls-17,.cls-18,.cls-19,.cls-2,.cls-3,.cls-4,.cls-6,.cls-7,.cls-8{stroke-linejoin:round;}.cls-1,.cls-13,.cls-14,.cls-16,.cls-17,.cls-18,.cls-19,.cls-2,.cls-5{stroke-width:0.25px;}.cls-11,.cls-14,.cls-2,.cls-3,.cls-8{fill:#b4c0be;}.cls-10,.cls-3,.cls-4{stroke-width:0.15px;}.cls-5{fill:#dbdecd;stroke:#fff;}.cls-13,.cls-14,.cls-15,.cls-5,.cls-9{stroke-miterlimit:10;}.cls-6{stroke:#787a62;}.cls-15,.cls-6,.cls-7,.cls-8,.cls-9{stroke-width:0.4px;}.cls-9{fill:#e1e5e5;}.cls-10{stroke:#b1b3b5;}.cls-11,.cls-12{stroke-width:0.2px;}.cls-16{stroke-dasharray:1.32 1.32;}.cls-17{stroke-dasharray:2 2;}.cls-18{stroke-dasharray:1.36 1.36;}.cls-19{stroke-dasharray:1.36 1.36;}.cls-20{fill:#231f20;}</style></defs><title>Asset 6</title><g id="Layer_2" data-name="Layer 2"><g id="Unit15B_Lower_Hover"><g id="LWPOLYLINE"><polygon class="cls-1" points="96.1 362.5 100.57 362.5 100.57 325.7 91.2 325.7 91.2 351.99 96.1 362.5"/></g><g id="LWPOLYLINE-2" data-name="LWPOLYLINE"><line class="cls-1" x1="87.23" y1="343.48" x2="83.67" y2="342.53"/><polyline class="cls-1" points="85.4 339.56 78.94 325.7 91.2 325.7"/></g><g id="LWPOLYLINE-3" data-name="LWPOLYLINE"><polyline class="cls-1" points="100.57 362.5 109.95 362.5 109.95 325.7 100.57 325.7"/></g><g id="LWPOLYLINE-4" data-name="LWPOLYLINE"><polyline class="cls-1" points="109.95 362.5 119.32 362.5 119.32 325.07"/></g><g id="LWPOLYLINE-5" data-name="LWPOLYLINE"><path class="cls-1" d="M119.32,362.5h9.38V323.36a5.16,5.16,0,0,0-5.16-5.16,7.5,7.5,0,0,1-7.5,7.5"/></g><g id="LWPOLYLINE-6" data-name="LWPOLYLINE"><path class="cls-1" d="M128.7,362.5h9.37V323.36a14.52,14.52,0,0,0-14.53-14.53v9.37a5.16,5.16,0,0,1,5.16,5.16Z"/></g><polyline class="cls-2" points="96.39 362.5 88.41 345.38 85.62 344.63 90.05 342.57 86.68 341.66 79.25 325.7 71.61 325.7 79.04 341.66 82.41 342.57 77.98 344.63 80.77 345.38 88.75 362.5 96.39 362.5"/><rect class="cls-3" x="179.2" y="173.86" width="111.99" height="137.53"/><g id="CIRCLE"><path class="cls-3" d="M164.53,102.79A11.25,11.25,0,1,1,175.78,114a11.25,11.25,0,0,1-11.25-11.25Z"/></g><g id="LWPOLYLINE-7" data-name="LWPOLYLINE"><rect class="cls-3" x="266.09" y="45.26" width="32.09" height="33.33"/></g><g id="LWPOLYLINE-8" data-name="LWPOLYLINE"><path class="cls-3" d="M312.12,74.31a139.57,139.57,0,0,0,0,23.31.85.85,0,0,0,.83.71h.8a.42.42,0,0,0-.43.42v1.48a.42.42,0,0,0,.43.42H341a.42.42,0,0,0,.42-.42V71.07a.42.42,0,0,0-.42-.42H313.75a.42.42,0,0,0-.43.42v2.11a.42.42,0,0,0,.43.42H313A.85.85,0,0,0,312.12,74.31Z"/></g><g id="LWPOLYLINE-9" data-name="LWPOLYLINE"><path class="cls-3" d="M312.12,27.7a139.45,139.45,0,0,0,0,23.3.85.85,0,0,0,.83.71h.8a.42.42,0,0,0-.43.42v1.48a.42.42,0,0,0,.43.42H341a.42.42,0,0,0,.42-.42V24.45A.42.42,0,0,0,341,24H313.75a.42.42,0,0,0-.43.42v2.11a.42.42,0,0,0,.43.42H313A.85.85,0,0,0,312.12,27.7Z"/></g><g id="WIPEOUT"><rect class="cls-3" x="628.53" y="160.48" width="18.52" height="19.69"/><polyline class="cls-3" points="628.53 180.17 647.05 180.17 647.05 160.48 628.53 160.48 628.53 180.17"/></g><g id="LWPOLYLINE-10" data-name="LWPOLYLINE"><rect class="cls-3" x="586.64" y="191.04" width="14.23" height="49.1"/></g><g id="LWPOLYLINE-11" data-name="LWPOLYLINE"><path class="cls-3" d="M342,196.78l-5.57,16.91L331,211.6a3.76,3.76,0,0,1-2.22-4.67l3-9.26a3.76,3.76,0,0,1,4.56-2.44Z"/></g><g id="LWPOLYLINE-12" data-name="LWPOLYLINE"><path class="cls-3" d="M342,280,336.44,263,331,265.13a3.76,3.76,0,0,0-2.22,4.68l3,9.25a3.75,3.75,0,0,0,4.56,2.44Z"/></g><g id="LWPOLYLINE-13" data-name="LWPOLYLINE"><path class="cls-3" d="M335.54,258.59,334,240.84l-5.77.79a3.75,3.75,0,0,0-3.22,4l.84,9.7a3.75,3.75,0,0,0,3.87,3.43Z"/></g><g id="LWPOLYLINE-14" data-name="LWPOLYLINE"><path class="cls-3" d="M335.54,218.15,334,235.89l-5.77-.79a3.74,3.74,0,0,1-3.22-4l.84-9.7a3.74,3.74,0,0,1,3.87-3.42Z"/></g><g id="LWPOLYLINE-15" data-name="LWPOLYLINE"><path class="cls-3" d="M361.24,196.78l5.57,16.91,5.43-2.09a3.75,3.75,0,0,0,2.21-4.67l-3.05-9.26a3.75,3.75,0,0,0-4.55-2.44Z"/></g><g id="LWPOLYLINE-16" data-name="LWPOLYLINE"><path class="cls-3" d="M361.24,280,366.81,263l5.43,2.09a3.76,3.76,0,0,1,2.21,4.68l-3.05,9.25a3.74,3.74,0,0,1-4.55,2.44Z"/></g><g id="LWPOLYLINE-17" data-name="LWPOLYLINE"><path class="cls-3" d="M367.71,258.59l1.54-17.75,5.76.79a3.76,3.76,0,0,1,3.23,4l-.84,9.7a3.76,3.76,0,0,1-3.87,3.43Z"/></g><g id="LWPOLYLINE-18" data-name="LWPOLYLINE"><path class="cls-3" d="M367.71,218.15l1.54,17.74,5.76-.79a3.75,3.75,0,0,0,3.23-4l-.84-9.7a3.74,3.74,0,0,0-3.87-3.42Z"/></g><g id="LWPOLYLINE-19" data-name="LWPOLYLINE"><path class="cls-3" d="M444.79,211.81a12,12,0,0,0-16.89-1.17,10.77,10.77,0,0,0-1.17,1.17l1.06.92v10.9h15.94v-10.9Z"/></g><g id="LWPOLYLINE-20" data-name="LWPOLYLINE"><path class="cls-3" d="M467.29,211.81a12,12,0,0,0-16.89-1.17,10.77,10.77,0,0,0-1.17,1.17l1.06.92v10.9h15.94v-10.9Z"/></g><g id="LWPOLYLINE-21" data-name="LWPOLYLINE"><path class="cls-3" d="M489.42,211.81a12,12,0,0,0-16.9-1.17,11.65,11.65,0,0,0-1.16,1.17l1.06.92v10.9h15.94v-10.9Z"/></g><g id="LWPOLYLINE-22" data-name="LWPOLYLINE"><rect class="cls-3" x="326.59" y="347.73" width="50.07" height="15"/></g><g id="CIRCLE-2" data-name="CIRCLE"><path class="cls-3" d="M164.53,102.79A11.25,11.25,0,1,1,175.78,114a11.25,11.25,0,0,1-11.25-11.25Z"/></g><g id="LWPOLYLINE-23" data-name="LWPOLYLINE"><rect class="cls-3" x="266.09" y="45.26" width="32.09" height="33.33"/></g><g id="LWPOLYLINE-24" data-name="LWPOLYLINE"><rect class="cls-3" x="524.62" y="294.24" width="37.84" height="12.71"/></g><g id="LWPOLYLINE-25" data-name="LWPOLYLINE"><rect class="cls-3" x="123.31" y="214.4" width="15" height="56.25"/></g><rect class="cls-3" x="104.43" y="241.01" width="44.9" height="1.76" transform="translate(-115.01 368.77) rotate(-90)"/><g id="LINE"><line class="cls-4" x1="341.45" y1="73.6" x2="313.75" y2="73.6"/></g><g id="LINE-2" data-name="LINE"><line class="cls-4" x1="313.32" y1="98.33" x2="341.45" y2="98.33"/></g><g id="ARC"><path class="cls-4" d="M336.39,73.6a82,82,0,0,0,0,24.73"/></g><g id="ARC-2" data-name="ARC"><path class="cls-4" d="M339.76,73.6a208.2,208.2,0,0,0,0,24.73"/></g><g id="LINE-3" data-name="LINE"><line class="cls-4" x1="341.45" y1="26.98" x2="313.75" y2="26.98"/></g><g id="LINE-4" data-name="LINE"><line class="cls-4" x1="313.32" y1="51.71" x2="341.45" y2="51.71"/></g><g id="ARC-3" data-name="ARC"><path class="cls-4" d="M336.39,27a82,82,0,0,0,0,24.73"/></g><g id="ARC-4" data-name="ARC"><path class="cls-4" d="M339.76,27a208.2,208.2,0,0,0,0,24.73"/></g><g id="LINE-5" data-name="LINE"><line class="cls-4" x1="645.88" y1="160.48" x2="645.88" y2="180.17"/></g><g id="LINE-6" data-name="LINE"><line class="cls-4" x1="629.71" y1="160.48" x2="629.71" y2="180.17"/></g><g id="LINE-7" data-name="LINE"><line class="cls-4" x1="629.71" y1="178.76" x2="645.88" y2="178.76"/></g><g id="LINE-8" data-name="LINE"><line class="cls-4" x1="629.71" y1="176.65" x2="645.88" y2="176.65"/></g><g id="LWPOLYLINE-26" data-name="LWPOLYLINE"><path class="cls-4" d="M336.88,212.36l-5.37-2.07a2.35,2.35,0,0,1-1.38-2.92l3.05-9.26a2.35,2.35,0,0,1,2.85-1.52l5.54,1.52"/></g><g id="LWPOLYLINE-27" data-name="LWPOLYLINE"><path class="cls-4" d="M336.88,264.38l-5.37,2.07a2.35,2.35,0,0,0-1.38,2.92l3.05,9.25a2.34,2.34,0,0,0,2.85,1.52l5.54-1.52"/></g><g id="LWPOLYLINE-28" data-name="LWPOLYLINE"><path class="cls-4" d="M334.12,242.24l-5.7.78a2.34,2.34,0,0,0-2,2.53l.84,9.7a2.34,2.34,0,0,0,2.42,2.14l5.74-.21"/></g><g id="LWPOLYLINE-29" data-name="LWPOLYLINE"><path class="cls-4" d="M368,257.54l5.75,0a2.36,2.36,0,0,0,2.36-2.21l.57-9.72a2.35,2.35,0,0,0-2.09-2.47l-5.71-.62"/></g><g id="LWPOLYLINE-30" data-name="LWPOLYLINE"><path class="cls-4" d="M334.12,234.49l-5.7-.78a2.34,2.34,0,0,1-2-2.52l.84-9.71a2.35,2.35,0,0,1,2.42-2.14l5.74.21"/></g><g id="LWPOLYLINE-31" data-name="LWPOLYLINE"><path class="cls-4" d="M366.37,212.36l5.36-2.07a2.35,2.35,0,0,0,1.39-2.92l-3.05-9.26a2.35,2.35,0,0,0-2.85-1.52l-5.54,1.52"/></g><g id="LWPOLYLINE-32" data-name="LWPOLYLINE"><path class="cls-4" d="M366.37,264.38l5.36,2.07a2.34,2.34,0,0,1,1.39,2.92l-3.05,9.25a2.34,2.34,0,0,1-2.85,1.52l-5.54-1.52"/></g><g id="LWPOLYLINE-33" data-name="LWPOLYLINE"><path class="cls-4" d="M369.13,234.49l5.69-.78a2.34,2.34,0,0,0,2-2.52l-.84-9.71a2.35,2.35,0,0,0-2.42-2.14l-5.75.21"/></g><g id="LWPOLYLINE-34" data-name="LWPOLYLINE"><line class="cls-4" x1="441.88" y1="211.05" x2="441.88" y2="223.63"/></g><g id="LWPOLYLINE-35" data-name="LWPOLYLINE"><line class="cls-4" x1="429.64" y1="211.05" x2="429.64" y2="223.63"/></g><g id="LWPOLYLINE-36" data-name="LWPOLYLINE"><path class="cls-4" d="M427.79,212.73a10,10,0,0,1,1-1,10.57,10.57,0,0,1,14.91,1"/></g><g id="LWPOLYLINE-37" data-name="LWPOLYLINE"><line class="cls-4" x1="464.38" y1="211.05" x2="464.38" y2="223.63"/></g><g id="LWPOLYLINE-38" data-name="LWPOLYLINE"><line class="cls-4" x1="452.14" y1="211.05" x2="452.14" y2="223.63"/></g><g id="LWPOLYLINE-39" data-name="LWPOLYLINE"><path class="cls-4" d="M450.29,212.73a10,10,0,0,1,1-1,10.57,10.57,0,0,1,14.91,1"/></g><g id="LWPOLYLINE-40" data-name="LWPOLYLINE"><line class="cls-4" x1="486.51" y1="211.05" x2="486.51" y2="223.63"/></g><g id="LWPOLYLINE-41" data-name="LWPOLYLINE"><line class="cls-4" x1="474.27" y1="211.05" x2="474.27" y2="223.63"/></g><g id="LWPOLYLINE-42" data-name="LWPOLYLINE"><path class="cls-4" d="M472.42,212.73a10,10,0,0,1,1-1,10.57,10.57,0,0,1,14.91,1"/></g><g id="LWPOLYLINE-43" data-name="LWPOLYLINE"><rect class="cls-3" x="582.82" y="29.24" width="34.69" height="73.12"/></g><g id="LWPOLYLINE-44" data-name="LWPOLYLINE"><rect class="cls-4" x="582.82" y="65.8" width="5.16" height="36.56"/></g><g id="LWPOLYLINE-45" data-name="LWPOLYLINE"><rect class="cls-4" x="612.35" y="65.81" width="5.16" height="36.56"/></g><g id="LINE-9" data-name="LINE"><line class="cls-4" x1="612.35" y1="77.05" x2="587.98" y2="77.05"/></g><g id="LINE-10" data-name="LINE"><line class="cls-4" x1="612.35" y1="99.09" x2="587.97" y2="99.08"/></g><g id="LINE-11" data-name="LINE"><line class="cls-4" x1="612.35" y1="99.09" x2="587.97" y2="99.08"/></g><g id="LWPOLYLINE-46" data-name="LWPOLYLINE"><rect class="cls-3" x="528.41" y="29.24" width="34.69" height="73.12"/></g><g id="LWPOLYLINE-47" data-name="LWPOLYLINE"><rect class="cls-4" x="528.4" y="65.8" width="5.16" height="36.56"/></g><g id="LWPOLYLINE-48" data-name="LWPOLYLINE"><rect class="cls-4" x="557.93" y="65.81" width="5.16" height="36.56"/></g><g id="LINE-12" data-name="LINE"><line class="cls-4" x1="557.94" y1="77.05" x2="533.56" y2="77.05"/></g><g id="LINE-13" data-name="LINE"><line class="cls-4" x1="557.93" y1="99.09" x2="533.55" y2="99.08"/></g><g id="LINE-14" data-name="LINE"><line class="cls-4" x1="557.93" y1="99.09" x2="533.55" y2="99.08"/></g><g id="LWPOLYLINE-49" data-name="LWPOLYLINE"><rect class="cls-3" x="637.24" y="29.24" width="34.69" height="73.12"/></g><g id="LWPOLYLINE-50" data-name="LWPOLYLINE"><rect class="cls-4" x="637.24" y="65.8" width="5.16" height="36.56"/></g><g id="LWPOLYLINE-51" data-name="LWPOLYLINE"><rect class="cls-4" x="666.77" y="65.81" width="5.16" height="36.56"/></g><g id="LINE-15" data-name="LINE"><line class="cls-4" x1="666.77" y1="77.05" x2="642.4" y2="77.05"/></g><g id="LINE-16" data-name="LINE"><line class="cls-4" x1="666.76" y1="99.09" x2="642.39" y2="99.08"/></g><g id="LINE-17" data-name="LINE"><line class="cls-4" x1="666.76" y1="99.09" x2="642.39" y2="99.08"/></g><g id="LINE-18" data-name="LINE"><line class="cls-4" x1="341.45" y1="73.6" x2="313.75" y2="73.6"/></g><g id="LINE-19" data-name="LINE"><line class="cls-4" x1="313.32" y1="98.33" x2="341.45" y2="98.33"/></g><g id="ARC-5" data-name="ARC"><path class="cls-4" d="M339.76,73.6a208.2,208.2,0,0,0,0,24.73"/></g><g id="LINE-20" data-name="LINE"><line class="cls-4" x1="341.45" y1="26.98" x2="313.75" y2="26.98"/></g><g id="LINE-21" data-name="LINE"><line class="cls-4" x1="313.32" y1="51.71" x2="341.45" y2="51.71"/></g><g id="ARC-6" data-name="ARC"><path class="cls-4" d="M339.76,27a208.2,208.2,0,0,0,0,24.73"/></g><g id="LINE-22" data-name="LINE"><line class="cls-4" x1="629.71" y1="176.65" x2="645.88" y2="176.65"/></g><g id="LWPOLYLINE-52" data-name="LWPOLYLINE"><rect class="cls-3" x="202.07" y="216.22" width="32.15" height="50.15"/></g><g id="LWPOLYLINE-53" data-name="LWPOLYLINE"><polygon class="cls-3" points="232.44 192.64 231.5 162.64 204.78 162.64 203.84 192.64 232.44 192.64"/></g><g id="LINE-23" data-name="LINE"><line class="cls-4" x1="228.45" y1="192.64" x2="227.51" y2="162.64"/></g><g id="LINE-24" data-name="LINE"><line class="cls-4" x1="227.64" y1="166.86" x2="208.64" y2="166.86"/></g><g id="LINE-25" data-name="LINE"><line class="cls-4" x1="208.77" y1="162.64" x2="207.83" y2="192.64"/></g><g id="LWPOLYLINE-54" data-name="LWPOLYLINE"><polygon class="cls-3" points="232.44 292.42 231.5 322.42 204.78 322.42 203.84 292.42 232.44 292.42"/></g><g id="LINE-26" data-name="LINE"><line class="cls-4" x1="228.45" y1="292.42" x2="227.51" y2="322.42"/></g><g id="LINE-27" data-name="LINE"><line class="cls-4" x1="227.64" y1="318.2" x2="208.64" y2="318.2"/></g><g id="LINE-28" data-name="LINE"><line class="cls-4" x1="208.77" y1="322.42" x2="207.83" y2="292.42"/></g><g id="LINE-29" data-name="LINE"><line class="cls-4" x1="228.45" y1="292.42" x2="227.51" y2="322.42"/></g><g id="LINE-30" data-name="LINE"><line class="cls-4" x1="227.64" y1="318.2" x2="208.64" y2="318.2"/></g><g id="LINE-31" data-name="LINE"><line class="cls-4" x1="208.77" y1="322.42" x2="207.83" y2="292.42"/></g><g id="ELLIPSE"><path class="cls-3" d="M351.62,289c10.36,0,18.75-22.65,18.75-50.59s-8.39-50.59-18.75-50.59-18.75,22.65-18.75,50.59S341.27,289,351.62,289Z"/></g><g id="LWPOLYLINE-55" data-name="LWPOLYLINE"><rect class="cls-3" x="609.67" y="146.42" width="56.25" height="24.37"/></g><g id="LWPOLYLINE-56" data-name="LWPOLYLINE"><rect class="cls-3" x="213.32" y="23.15" width="30.06" height="76.07"/></g><g id="LINE-32" data-name="LINE"><line class="cls-4" x1="216.31" y1="23.18" x2="216.31" y2="99.19"/></g><g id="LINE-33" data-name="LINE"><line class="cls-4" x1="216.31" y1="25.29" x2="243.37" y2="25.29"/></g><g id="LINE-34" data-name="LINE"><line class="cls-4" x1="216.31" y1="97.21" x2="243.37" y2="97.21"/></g><line class="cls-4" x1="216.21" y1="49.59" x2="243.27" y2="49.59"/><line class="cls-4" x1="216.21" y1="74.3" x2="243.27" y2="74.3"/><g id="LWPOLYLINE-57" data-name="LWPOLYLINE"><rect class="cls-3" x="266.71" y="300.66" width="20.15" height="20.46"/></g><g id="LWPOLYLINE-58" data-name="LWPOLYLINE"><rect class="cls-3" x="266.71" y="163.93" width="20.15" height="20.46"/></g><g id="LWPOLYLINE-59" data-name="LWPOLYLINE"><rect class="cls-3" x="259.68" y="188.04" width="33.75" height="108.66"/></g><g id="LINE-35" data-name="LINE"><line class="cls-4" x1="288.74" y1="242.02" x2="260.66" y2="242.02"/></g><g id="LWPOLYLINE-60" data-name="LWPOLYLINE"><polyline class="cls-4" points="259.68 292.02 288.74 292.02 288.74 217.02 259.68 217.02"/></g><g id="ARC-7" data-name="ARC"><path class="cls-4" d="M284.25,218a59.62,59.62,0,0,0,0,23.13"/></g><g id="ARC-8" data-name="ARC"><path class="cls-4" d="M284.25,241.08a1.24,1.24,0,0,0,1,.94"/></g><g id="ARC-9" data-name="ARC"><path class="cls-4" d="M285.23,217a1.22,1.22,0,0,0-1,.93"/></g><g id="ARC-10" data-name="ARC"><path class="cls-4" d="M285.23,242a1.22,1.22,0,0,0-1,.93"/></g><g id="ARC-11" data-name="ARC"><path class="cls-4" d="M284.25,291.08a1.24,1.24,0,0,0,1,.94"/></g><g id="ARC-12" data-name="ARC"><path class="cls-4" d="M259.68,241.08a1.24,1.24,0,0,0,1,.94"/></g><g id="ARC-13" data-name="ARC"><path class="cls-4" d="M260.66,242a1.22,1.22,0,0,0-1,.93"/></g><g id="ARC-14" data-name="ARC"><path class="cls-4" d="M260.66,217a1.22,1.22,0,0,0-1,.93"/></g><g id="ARC-15" data-name="ARC"><path class="cls-4" d="M259.68,291.08a1.24,1.24,0,0,0,1,.94"/></g><g id="LINE-36" data-name="LINE"><line class="cls-4" x1="288.74" y1="267.02" x2="260.66" y2="267.02"/></g><g id="ARC-16" data-name="ARC"><path class="cls-4" d="M284.25,268a59.62,59.62,0,0,0,0,23.13"/></g><g id="ARC-17" data-name="ARC"><path class="cls-4" d="M285.23,267a1.22,1.22,0,0,0-1,.93"/></g><g id="ARC-18" data-name="ARC"><path class="cls-4" d="M284.25,266.08a1.24,1.24,0,0,0,1,.94"/></g><g id="ARC-19" data-name="ARC"><path class="cls-4" d="M260.66,267a1.22,1.22,0,0,0-1,.93"/></g><g id="ARC-20" data-name="ARC"><path class="cls-4" d="M259.68,266.08a1.24,1.24,0,0,0,1,.94"/></g><g id="ARC-21" data-name="ARC"><path class="cls-4" d="M284.25,243a59.62,59.62,0,0,0,0,23.13"/></g><g id="ARC-22" data-name="ARC"><path class="cls-4" d="M284.25,241.08a1.24,1.24,0,0,0,1,.94"/></g><g id="ARC-23" data-name="ARC"><path class="cls-4" d="M285.23,217a1.22,1.22,0,0,0-1,.93"/></g><g id="ARC-24" data-name="ARC"><path class="cls-4" d="M285.23,242a1.22,1.22,0,0,0-1,.93"/></g><g id="ARC-25" data-name="ARC"><path class="cls-4" d="M284.25,291.08a1.24,1.24,0,0,0,1,.94"/></g><g id="ARC-26" data-name="ARC"><path class="cls-4" d="M259.68,241.08a1.24,1.24,0,0,0,1,.94"/></g><g id="ARC-27" data-name="ARC"><path class="cls-4" d="M260.66,242a1.22,1.22,0,0,0-1,.93"/></g><g id="ARC-28" data-name="ARC"><path class="cls-4" d="M260.66,217a1.22,1.22,0,0,0-1,.93"/></g><g id="LWPOLYLINE-61" data-name="LWPOLYLINE"><polyline class="cls-4" points="288.74 267.02 288.74 192.02 259.68 192.02"/></g><g id="ARC-29" data-name="ARC"><path class="cls-4" d="M284.25,193a59.62,59.62,0,0,0,0,23.13"/></g><g id="ARC-30" data-name="ARC"><path class="cls-4" d="M284.25,216.08a1.24,1.24,0,0,0,1,.94"/></g><g id="ARC-31" data-name="ARC"><path class="cls-4" d="M285.23,192a1.22,1.22,0,0,0-1,.93"/></g><g id="ARC-32" data-name="ARC"><path class="cls-4" d="M285.23,217a1.22,1.22,0,0,0-1,.93"/></g><g id="ARC-33" data-name="ARC"><path class="cls-4" d="M259.68,216.08a1.24,1.24,0,0,0,1,.94"/></g><g id="ARC-34" data-name="ARC"><path class="cls-4" d="M260.66,217a1.22,1.22,0,0,0-1,.93"/></g><g id="ARC-35" data-name="ARC"><path class="cls-4" d="M260.66,192a1.22,1.22,0,0,0-1,.93"/></g><g id="ARC-36" data-name="ARC"><path class="cls-4" d="M284.25,216.08a1.24,1.24,0,0,0,1,.94"/></g><g id="ARC-37" data-name="ARC"><path class="cls-4" d="M285.23,192a1.22,1.22,0,0,0-1,.93"/></g><g id="ARC-38" data-name="ARC"><path class="cls-4" d="M285.23,217a1.22,1.22,0,0,0-1,.93"/></g><g id="ARC-39" data-name="ARC"><path class="cls-4" d="M259.68,216.08a1.24,1.24,0,0,0,1,.94"/></g><g id="ARC-40" data-name="ARC"><path class="cls-4" d="M260.66,217a1.22,1.22,0,0,0-1,.93"/></g><g id="ARC-41" data-name="ARC"><path class="cls-4" d="M260.66,192a1.22,1.22,0,0,0-1,.93"/></g><g id="ARC-42" data-name="ARC"><path class="cls-4" d="M259.68,291.08a1.24,1.24,0,0,0,1,.94"/></g><g id="ARC-43" data-name="ARC"><path class="cls-4" d="M285.23,267a1.22,1.22,0,0,0-1,.93"/></g><g id="ARC-44" data-name="ARC"><path class="cls-4" d="M284.25,266.08a1.24,1.24,0,0,0,1,.94"/></g><g id="ARC-45" data-name="ARC"><path class="cls-4" d="M260.66,267a1.22,1.22,0,0,0-1,.93"/></g><g id="ARC-46" data-name="ARC"><path class="cls-4" d="M259.68,266.08a1.24,1.24,0,0,0,1,.94"/></g><g id="LWPOLYLINE-62" data-name="LWPOLYLINE"><rect class="cls-3" x="668.43" y="186.57" width="33.75" height="58.03"/></g><g id="LINE-37" data-name="LINE"><line class="cls-4" x1="697.5" y1="189.91" x2="669.42" y2="189.91"/></g><g id="ARC-47" data-name="ARC"><path class="cls-4" d="M694,189.91a1.24,1.24,0,0,0-1,.94"/></g><g id="ARC-48" data-name="ARC"><path class="cls-4" d="M693,239a1.22,1.22,0,0,0,1,.93"/></g><g id="ARC-49" data-name="ARC"><path class="cls-4" d="M669.42,189.91a1.24,1.24,0,0,0-1,.94"/></g><g id="ARC-50" data-name="ARC"><path class="cls-4" d="M668.43,239a1.22,1.22,0,0,0,1,.93"/></g><g id="LINE-38" data-name="LINE"><line class="cls-4" x1="697.5" y1="214.91" x2="669.42" y2="214.91"/></g><g id="ARC-51" data-name="ARC"><path class="cls-4" d="M693,215.85A59.62,59.62,0,0,0,693,239"/></g><g id="ARC-52" data-name="ARC"><path class="cls-4" d="M694,214.91a1.24,1.24,0,0,0-1,.94"/></g><g id="ARC-53" data-name="ARC"><path class="cls-4" d="M693,214a1.22,1.22,0,0,0,1,.93"/></g><g id="ARC-54" data-name="ARC"><path class="cls-4" d="M669.42,214.91a1.24,1.24,0,0,0-1,.94"/></g><g id="ARC-55" data-name="ARC"><path class="cls-4" d="M668.43,214a1.22,1.22,0,0,0,1,.93"/></g><g id="ARC-56" data-name="ARC"><path class="cls-4" d="M693,190.85A59.62,59.62,0,0,0,693,214"/></g><g id="ARC-57" data-name="ARC"><path class="cls-4" d="M694,189.91a1.24,1.24,0,0,0-1,.94"/></g><g id="ARC-58" data-name="ARC"><path class="cls-4" d="M693,239a1.22,1.22,0,0,0,1,.93"/></g><g id="ARC-59" data-name="ARC"><path class="cls-4" d="M669.42,189.91a1.24,1.24,0,0,0-1,.94"/></g><g id="LWPOLYLINE-63" data-name="LWPOLYLINE"><polyline class="cls-4" points="697.5 239.91 697.5 189.91 668.43 189.91"/></g><g id="ARC-60" data-name="ARC"><path class="cls-4" d="M668.43,239a1.22,1.22,0,0,0,1,.93"/></g><g id="ARC-61" data-name="ARC"><path class="cls-4" d="M694,214.91a1.24,1.24,0,0,0-1,.94"/></g><g id="ARC-62" data-name="ARC"><path class="cls-4" d="M693,214a1.22,1.22,0,0,0,1,.93"/></g><g id="ARC-63" data-name="ARC"><path class="cls-4" d="M669.42,214.91a1.24,1.24,0,0,0-1,.94"/></g><g id="ARC-64" data-name="ARC"><path class="cls-4" d="M668.43,214a1.22,1.22,0,0,0,1,.93"/></g><line class="cls-4" x1="697.5" y1="239.91" x2="669.42" y2="239.91"/><g id="WIPEOUT-2" data-name="WIPEOUT"><rect class="cls-3" x="472.62" y="152.22" width="19.69" height="18.52"/><polyline class="cls-3" points="472.62 152.22 472.62 170.74 492.31 170.74 492.31 152.22 472.62 152.22"/></g><g id="LINE-39" data-name="LINE"><line class="cls-3" x1="492.31" y1="169.56" x2="472.62" y2="169.56"/></g><g id="LINE-40" data-name="LINE"><line class="cls-3" x1="492.31" y1="153.39" x2="472.62" y2="153.39"/></g><g id="LINE-41" data-name="LINE"><line class="cls-3" x1="474.03" y1="153.39" x2="474.03" y2="169.56"/></g><g id="LINE-42" data-name="LINE"><line class="cls-3" x1="476.14" y1="153.39" x2="476.14" y2="169.56"/></g><g id="WIPEOUT-3" data-name="WIPEOUT"><rect class="cls-3" x="504.69" y="152.22" width="19.69" height="18.52"/><polyline class="cls-3" points="524.38 152.22 524.38 170.74 504.69 170.74 504.69 152.22 524.38 152.22"/></g><g id="LINE-43" data-name="LINE"><line class="cls-3" x1="522.97" y1="169.56" x2="522.97" y2="153.39"/></g><g id="LINE-44" data-name="LINE"><line class="cls-3" x1="504.69" y1="169.56" x2="524.38" y2="169.56"/></g><g id="LINE-45" data-name="LINE"><line class="cls-3" x1="504.69" y1="153.39" x2="524.38" y2="153.39"/></g><g id="LINE-46" data-name="LINE"><line class="cls-3" x1="520.86" y1="153.39" x2="520.86" y2="169.56"/></g><g id="LINE-47" data-name="LINE"><line class="cls-3" x1="504.69" y1="153.39" x2="524.38" y2="153.39"/></g><g id="LWPOLYLINE-64" data-name="LWPOLYLINE"><rect class="cls-3" x="480.36" y="149.29" width="35.87" height="24.37"/></g><g id="LWPOLYLINE-65" data-name="LWPOLYLINE"><path class="cls-3" d="M166.68,215.26v54.53a2.2,2.2,0,0,0,2.31,2.06h16.2a2.2,2.2,0,0,0,2.32-2.06V215.26a2.21,2.21,0,0,0-2.32-2.06H169A2.2,2.2,0,0,0,166.68,215.26Z"/></g><g id="CIRCLE-3" data-name="CIRCLE"><path class="cls-3" d="M172.41,245.65a.47.47,0,1,1,.46.47.47.47,0,0,1-.46-.47Z"/></g><g id="CIRCLE-4" data-name="CIRCLE"><path class="cls-3" d="M180.84,245.65a.47.47,0,1,1,.47.47.47.47,0,0,1-.47-.47Z"/></g><g id="CIRCLE-5" data-name="CIRCLE"><path class="cls-3" d="M172.41,237.22a.47.47,0,1,1,.46.46.47.47,0,0,1-.46-.46Z"/></g><g id="CIRCLE-6" data-name="CIRCLE"><path class="cls-3" d="M180.84,237.22a.47.47,0,1,1,.47.46.47.47,0,0,1-.47-.46Z"/></g><g id="CIRCLE-7" data-name="CIRCLE"><path class="cls-3" d="M172.41,228.78a.47.47,0,1,1,.46.47.47.47,0,0,1-.46-.47Z"/></g><g id="CIRCLE-8" data-name="CIRCLE"><path class="cls-3" d="M180.84,228.78a.47.47,0,1,1,.47.47.47.47,0,0,1-.47-.47Z"/></g><g id="CIRCLE-9" data-name="CIRCLE"><path class="cls-3" d="M172.41,220.34a.47.47,0,1,1,.46.47.47.47,0,0,1-.46-.47Z"/></g><g id="CIRCLE-10" data-name="CIRCLE"><path class="cls-3" d="M180.84,220.34a.47.47,0,1,1,.47.47.47.47,0,0,1-.47-.47Z"/></g><g id="CIRCLE-11" data-name="CIRCLE"><path class="cls-3" d="M172.41,254.09a.47.47,0,1,1,.46.47.47.47,0,0,1-.46-.47Z"/></g><g id="CIRCLE-12" data-name="CIRCLE"><path class="cls-3" d="M180.84,254.09a.47.47,0,1,1,.47.47.47.47,0,0,1-.47-.47Z"/></g><g id="CIRCLE-13" data-name="CIRCLE"><path class="cls-3" d="M172.41,262.53a.47.47,0,1,1,.46.47.47.47,0,0,1-.46-.47Z"/></g><g id="CIRCLE-14" data-name="CIRCLE"><path class="cls-3" d="M180.84,262.53a.47.47,0,1,1,.47.47.47.47,0,0,1-.47-.47Z"/></g><g id="CIRCLE-15" data-name="CIRCLE"><path class="cls-3" d="M172.41,245.65a.47.47,0,1,1,.46.47.47.47,0,0,1-.46-.47Z"/></g><g id="CIRCLE-16" data-name="CIRCLE"><path class="cls-3" d="M180.84,245.65a.47.47,0,1,1,.47.47.47.47,0,0,1-.47-.47Z"/></g><g id="CIRCLE-17" data-name="CIRCLE"><path class="cls-3" d="M172.41,237.22a.47.47,0,1,1,.46.46.47.47,0,0,1-.46-.46Z"/></g><g id="CIRCLE-18" data-name="CIRCLE"><path class="cls-3" d="M180.84,237.22a.47.47,0,1,1,.47.46.47.47,0,0,1-.47-.46Z"/></g><g id="CIRCLE-19" data-name="CIRCLE"><path class="cls-3" d="M172.41,228.78a.47.47,0,1,1,.46.47.47.47,0,0,1-.46-.47Z"/></g><g id="CIRCLE-20" data-name="CIRCLE"><path class="cls-3" d="M180.84,228.78a.47.47,0,1,1,.47.47.47.47,0,0,1-.47-.47Z"/></g><g id="CIRCLE-21" data-name="CIRCLE"><path class="cls-3" d="M172.41,220.34a.47.47,0,1,1,.46.47.47.47,0,0,1-.46-.47Z"/></g><g id="CIRCLE-22" data-name="CIRCLE"><path class="cls-3" d="M180.84,220.34a.47.47,0,1,1,.47.47.47.47,0,0,1-.47-.47Z"/></g><g id="CIRCLE-23" data-name="CIRCLE"><path class="cls-3" d="M172.41,254.09a.47.47,0,1,1,.46.47.47.47,0,0,1-.46-.47Z"/></g><g id="CIRCLE-24" data-name="CIRCLE"><path class="cls-3" d="M180.84,254.09a.47.47,0,1,1,.47.47.47.47,0,0,1-.47-.47Z"/></g><g id="CIRCLE-25" data-name="CIRCLE"><path class="cls-3" d="M172.41,262.53a.47.47,0,1,1,.46.47.47.47,0,0,1-.46-.47Z"/></g><g id="CIRCLE-26" data-name="CIRCLE"><path class="cls-3" d="M180.84,262.53a.47.47,0,1,1,.47.47.47.47,0,0,1-.47-.47Z"/></g><g id="LWPOLYLINE-66" data-name="LWPOLYLINE"><rect class="cls-3" x="454.68" y="74.3" width="15.94" height="22.5"/></g><g id="LINE-48" data-name="LINE"><line class="cls-4" x1="454.68" y1="91.53" x2="470.62" y2="91.53"/></g><g id="LINE-49" data-name="LINE"><line class="cls-4" x1="454.68" y1="95.42" x2="470.62" y2="95.42"/></g><g id="LWPOLYLINE-67" data-name="LWPOLYLINE"><rect class="cls-3" x="431.81" y="74.3" width="15.94" height="22.5"/></g><g id="LINE-50" data-name="LINE"><line class="cls-4" x1="431.81" y1="91.53" x2="447.75" y2="91.53"/></g><g id="LINE-51" data-name="LINE"><line class="cls-4" x1="431.81" y1="95.42" x2="447.75" y2="95.42"/></g><g id="LWPOLYLINE-68" data-name="LWPOLYLINE"><rect class="cls-3" x="408.94" y="74.3" width="15.94" height="22.5"/></g><g id="LINE-52" data-name="LINE"><line class="cls-4" x1="408.94" y1="91.53" x2="424.87" y2="91.53"/></g><g id="LINE-53" data-name="LINE"><line class="cls-4" x1="408.94" y1="95.42" x2="424.87" y2="95.42"/></g><g id="LWPOLYLINE-69" data-name="LWPOLYLINE"><rect class="cls-3" x="408.94" y="27.93" width="15.94" height="22.5"/></g><g id="LINE-54" data-name="LINE"><line class="cls-4" x1="424.87" y1="33.2" x2="408.94" y2="33.2"/></g><g id="LINE-55" data-name="LINE"><line class="cls-4" x1="424.87" y1="29.31" x2="408.94" y2="29.31"/></g><g id="LWPOLYLINE-70" data-name="LWPOLYLINE"><rect class="cls-3" x="431.81" y="27.93" width="15.94" height="22.5"/></g><g id="LINE-56" data-name="LINE"><line class="cls-4" x1="447.75" y1="33.2" x2="431.81" y2="33.2"/></g><g id="LINE-57" data-name="LINE"><line class="cls-4" x1="447.75" y1="29.31" x2="431.81" y2="29.31"/></g><g id="LWPOLYLINE-71" data-name="LWPOLYLINE"><rect class="cls-3" x="454.68" y="27.93" width="15.94" height="22.5"/></g><g id="LINE-58" data-name="LINE"><line class="cls-4" x1="470.62" y1="33.2" x2="454.68" y2="33.2"/></g><g id="LINE-59" data-name="LINE"><line class="cls-4" x1="470.62" y1="29.31" x2="454.68" y2="29.31"/></g><g id="LWPOLYLINE-72" data-name="LWPOLYLINE"><rect class="cls-3" x="467.72" y="66.12" width="22.5" height="15.94"/></g><g id="LWPOLYLINE-73" data-name="LWPOLYLINE"><rect class="cls-3" x="467.72" y="42.68" width="22.5" height="15.94"/></g><g id="LINE-60" data-name="LINE"><line class="cls-4" x1="484.95" y1="66.12" x2="484.95" y2="82.05"/></g><g id="LINE-61" data-name="LINE"><line class="cls-4" x1="488.83" y1="66.12" x2="488.83" y2="82.05"/></g><g id="LINE-62" data-name="LINE"><line class="cls-4" x1="484.95" y1="42.68" x2="484.95" y2="58.62"/></g><g id="LINE-63" data-name="LINE"><line class="cls-4" x1="488.83" y1="42.68" x2="488.83" y2="58.62"/></g><g id="LWPOLYLINE-74" data-name="LWPOLYLINE"><rect class="cls-3" x="387.04" y="66.12" width="22.5" height="15.94"/></g><g id="LWPOLYLINE-75" data-name="LWPOLYLINE"><rect class="cls-3" x="387.04" y="42.68" width="22.5" height="15.94"/></g><g id="LINE-64" data-name="LINE"><line class="cls-4" x1="392.31" y1="66.12" x2="392.31" y2="82.05"/></g><g id="LINE-65" data-name="LINE"><line class="cls-4" x1="388.42" y1="66.12" x2="388.42" y2="82.05"/></g><g id="LINE-66" data-name="LINE"><line class="cls-4" x1="392.31" y1="42.68" x2="392.31" y2="58.62"/></g><g id="LINE-67" data-name="LINE"><line class="cls-4" x1="388.42" y1="42.68" x2="388.42" y2="58.62"/></g><g id="LWPOLYLINE-76" data-name="LWPOLYLINE"><rect class="cls-3" x="395.46" y="35.65" width="86.33" height="53.44"/></g><circle class="cls-5" cx="175.73" cy="21.74" r="12.09"/><path class="cls-6" d="M186.58,17.5a11.67,11.67,0,0,1-10.85,4.24"/><line class="cls-6" x1="182.74" y1="20.62" x2="187.34" y2="21.09"/><line class="cls-6" x1="180.72" y1="21.4" x2="182.97" y2="16.23"/><line class="cls-6" x1="178.42" y1="21.81" x2="187.02" y2="24.93"/><path class="cls-6" d="M165.86,16.36a11.69,11.69,0,0,1,9.87,5.38"/><line class="cls-6" x1="170.27" y1="17.2" x2="167.71" y2="13.6"/><line class="cls-6" x1="172.19" y1="18.21" x2="166.81" y2="19.93"/><line class="cls-6" x1="174.01" y1="19.66" x2="170.86" y2="11.59"/><path class="cls-6" d="M168.52,30.8a11.68,11.68,0,0,1,7.21-9.06"/><line class="cls-6" x1="170.25" y1="26.25" x2="166.44" y2="27.99"/><line class="cls-6" x1="171.6" y1="24.55" x2="172.27" y2="30.15"/><line class="cls-6" x1="173.37" y1="23.03" x2="164.85" y2="24.52"/><polyline class="cls-6" points="175.73 21.74 178.53 30.46 181.09 31.95"/><line class="cls-6" x1="176.8" y1="25.13" x2="182.16" y2="27.55"/><line class="cls-6" x1="177.33" y1="26.81" x2="173.44" y2="31.32"/><polyline class="cls-6" points="175.73 21.74 179.07 13.56 177.72 10.41"/><line class="cls-6" x1="177.28" y1="17.96" x2="175.62" y2="14.86"/><line class="cls-6" x1="178.6" y1="12.47" x2="175.04" y2="10.53"/><line class="cls-6" x1="177.64" y1="16.95" x2="180.97" y2="15.64"/><circle class="cls-5" cx="175.73" cy="102.84" r="12.09"/><path class="cls-6" d="M186.58,98.61a11.69,11.69,0,0,1-10.85,4.23"/><line class="cls-6" x1="182.74" y1="101.73" x2="187.34" y2="102.2"/><line class="cls-6" x1="180.72" y1="102.51" x2="182.97" y2="97.34"/><line class="cls-6" x1="178.42" y1="102.92" x2="187.02" y2="106.04"/><path class="cls-6" d="M165.86,97.46a11.74,11.74,0,0,1,9.87,5.38"/><line class="cls-6" x1="170.27" y1="98.31" x2="167.71" y2="94.71"/><line class="cls-6" x1="172.19" y1="99.31" x2="166.81" y2="101.03"/><line class="cls-6" x1="174.01" y1="100.77" x2="170.86" y2="92.7"/><path class="cls-6" d="M168.52,111.91a11.71,11.71,0,0,1,7.21-9.07"/><line class="cls-6" x1="170.25" y1="107.36" x2="166.44" y2="109.09"/><line class="cls-6" x1="171.6" y1="105.66" x2="172.27" y2="111.26"/><line class="cls-6" x1="173.37" y1="104.14" x2="164.85" y2="105.63"/><polyline class="cls-6" points="175.73 102.84 178.53 111.57 181.09 113.06"/><line class="cls-6" x1="176.8" y1="106.24" x2="182.16" y2="108.66"/><line class="cls-6" x1="177.33" y1="107.92" x2="173.44" y2="112.43"/><polyline class="cls-6" points="175.73 102.84 179.07 94.67 177.72 91.52"/><line class="cls-6" x1="177.28" y1="99.07" x2="175.62" y2="95.96"/><line class="cls-6" x1="178.6" y1="93.57" x2="175.04" y2="91.64"/><line class="cls-6" x1="177.64" y1="98.05" x2="180.97" y2="96.74"/><g id="LWPOLYLINE-77" data-name="LWPOLYLINE"><line class="cls-7" x1="590.06" y1="146.52" x2="590.06" y2="140.9"/><line class="cls-7" x1="702.1" y1="140.9" x2="702.1" y2="146.52"/></g><g id="LWPOLYLINE-78" data-name="LWPOLYLINE"><line class="cls-7" x1="444.17" y1="146.52" x2="444.17" y2="140.9"/><line class="cls-7" x1="554.67" y1="140.9" x2="554.67" y2="146.52"/></g><g id="LWPOLYLINE-79" data-name="LWPOLYLINE"><polyline class="cls-8" points="702.58 140.9 702.58 146.52 589.4 146.52 589.4 140.9"/></g><line class="cls-7" x1="554.67" y1="146.52" x2="444.16" y2="146.52"/><g id="LWPOLYLINE-80" data-name="LWPOLYLINE"><polygon class="cls-1" points="673.27 137.15 619.83 137.15 619.83 138.38 673.26 138.38 673.27 137.15"/></g><g id="LWPOLYLINE-81" data-name="LWPOLYLINE"><polygon class="cls-1" points="699.99 137.15 699.05 137.15 675.14 137.15 675.14 138.38 699.99 138.38 699.99 137.15"/></g><g id="LWPOLYLINE-82" data-name="LWPOLYLINE"><polygon class="cls-1" points="593.11 137.15 594.04 137.15 617.96 137.15 617.96 138.38 593.11 138.38 593.11 137.15"/></g><g id="LWPOLYLINE-83" data-name="LWPOLYLINE"><polygon class="cls-1" points="527.02 137.15 473.58 137.15 473.58 138.38 527.01 138.38 527.02 137.15"/></g><g id="LWPOLYLINE-84" data-name="LWPOLYLINE"><polygon class="cls-1" points="553.74 137.15 552.8 137.15 528.89 137.15 528.89 138.38 553.74 138.38 553.74 137.15"/></g><g id="LWPOLYLINE-85" data-name="LWPOLYLINE"><polygon class="cls-1" points="446.97 137.15 447.91 137.15 471.7 137.15 471.7 138.38 446.97 138.38 446.97 137.15"/></g><g id="LWPOLYLINE-86" data-name="LWPOLYLINE"><polygon class="cls-1" points="234.52 137.15 181.08 137.15 181.08 138.38 234.51 138.38 234.52 137.15"/></g><g id="LWPOLYLINE-87" data-name="LWPOLYLINE"><polygon class="cls-1" points="261.24 137.15 260.3 137.15 236.39 137.15 236.39 138.38 261.24 138.38 261.24 137.15"/></g><g id="LWPOLYLINE-88" data-name="LWPOLYLINE"><polygon class="cls-1" points="154.35 137.15 155.29 137.15 179.21 137.15 179.21 138.38 154.35 138.38 154.35 137.15"/></g><g id="LWPOLYLINE-89" data-name="LWPOLYLINE"><polygon class="cls-1" points="319.83 137.15 318.89 137.15 301.55 137.15 300.61 137.15 300.61 138.38 318.89 138.38 319.83 138.38 319.83 137.15"/></g><g id="LWPOLYLINE-90" data-name="LWPOLYLINE"><polygon class="cls-1" points="407.49 137.15 406.55 137.15 388.27 137.15 388.27 138.38 407.49 138.38 407.49 137.15"/></g><polygon class="cls-9" points="151.48 0.2 151.48 4.49 709.71 4.49 709.71 124.02 714.2 124.02 714.12 0.31 151.48 0.2"/><g id="LWPOLYLINE-91" data-name="LWPOLYLINE"><polygon class="cls-1" points="673.27 137.15 619.83 137.15 619.83 138.38 673.26 138.38 673.27 137.15"/></g><g id="LWPOLYLINE-92" data-name="LWPOLYLINE"><polygon class="cls-1" points="699.99 137.15 699.05 137.15 675.14 137.15 675.14 138.38 699.99 138.38 699.99 137.15"/></g><g id="LWPOLYLINE-93" data-name="LWPOLYLINE"><polygon class="cls-1" points="593.11 137.15 594.04 137.15 617.96 137.15 617.96 138.38 593.11 138.38 593.11 137.15"/></g><g id="LWPOLYLINE-94" data-name="LWPOLYLINE"><polygon class="cls-1" points="527.02 137.15 473.58 137.15 473.58 138.38 527.01 138.38 527.02 137.15"/></g><g id="LWPOLYLINE-95" data-name="LWPOLYLINE"><polygon class="cls-1" points="553.74 137.15 552.8 137.15 528.89 137.15 528.89 138.38 553.74 138.38 553.74 137.15"/></g><g id="LWPOLYLINE-96" data-name="LWPOLYLINE"><polygon class="cls-1" points="446.97 137.15 447.91 137.15 471.7 137.15 471.7 138.38 446.97 138.38 446.97 137.15"/></g><g id="LWPOLYLINE-97" data-name="LWPOLYLINE"><polygon class="cls-1" points="234.52 137.15 181.08 137.15 181.08 138.38 234.51 138.38 234.52 137.15"/></g><g id="LWPOLYLINE-98" data-name="LWPOLYLINE"><polygon class="cls-1" points="261.24 137.15 260.3 137.15 236.39 137.15 236.39 138.38 261.24 138.38 261.24 137.15"/></g><g id="LWPOLYLINE-99" data-name="LWPOLYLINE"><polygon class="cls-1" points="154.35 137.15 155.29 137.15 179.21 137.15 179.21 138.38 154.35 138.38 154.35 137.15"/></g><g id="LWPOLYLINE-100" data-name="LWPOLYLINE"><polygon class="cls-1" points="319.83 137.15 318.89 137.15 301.55 137.15 300.61 137.15 300.61 138.38 318.89 138.38 319.83 138.38 319.83 137.15"/></g><g id="LWPOLYLINE-101" data-name="LWPOLYLINE"><polygon class="cls-1" points="407.49 137.15 406.55 137.15 388.27 137.15 388.27 138.38 407.49 138.38 407.49 137.15"/></g><line class="cls-1" x1="179.48" y1="140.9" x2="260.3" y2="140.9"/><line class="cls-1" x1="385.45" y1="140.9" x2="407.49" y2="140.9"/><line class="cls-1" x1="300.61" y1="140.9" x2="322.64" y2="140.9"/><line class="cls-1" x1="447.25" y1="140.9" x2="552.8" y2="140.9"/><line class="cls-1" x1="594.04" y1="140.9" x2="699.05" y2="140.9"/><line class="cls-10" x1="385.9" y1="140.9" x2="322.64" y2="140.9"/><g id="LWPOLYLINE-102" data-name="LWPOLYLINE"><polyline class="cls-7" points="702.8 140.9 702.8 132.58 590.3 132.58 590.3 140.9"/></g><g id="LWPOLYLINE-103" data-name="LWPOLYLINE"><line class="cls-7" x1="444.17" y1="132.58" x2="444.17" y2="140.9"/><line class="cls-7" x1="556.55" y1="140.9" x2="556.55" y2="132.58"/></g><g id="LWPOLYLINE-104" data-name="LWPOLYLINE"><polyline class="cls-7" points="264.05 140.9 264.05 133.87 151.55 133.87 151.55 140.9"/></g><g id="LWPOLYLINE-105" data-name="LWPOLYLINE"><line class="cls-7" x1="297.8" y1="133.87" x2="297.8" y2="140.9"/><line class="cls-7" x1="410.3" y1="140.9" x2="410.3" y2="133.87"/></g><g id="LWPOLYLINE-106" data-name="LWPOLYLINE"><polyline class="cls-7" points="590.3 124.02 590.3 132.58 702.8 132.58 702.8 124.02 709.71 124.02 709.71 4.49 151.55 4.49 151.55 133.87 264.05 133.87 264.05 124.02"/><line class="cls-7" x1="556.55" y1="132.46" x2="556.55" y2="124.02"/><polyline class="cls-7" points="388.27 133.87 410.3 133.87 410.3 124.02 444.17 124.02 444.06 132.48 556.45 132.48"/><polyline class="cls-7" points="297.8 124.02 297.8 133.87 319.83 133.87"/></g><g id="LWPOLYLINE-107" data-name="LWPOLYLINE"><rect class="cls-11" x="585.94" y="270.76" width="33.75" height="1.64" transform="translate(-15.47 505.79) rotate(-45)"/></g><g id="LWPOLYLINE-108" data-name="LWPOLYLINE"><rect class="cls-12" x="642.8" y="290.43" width="1.64" height="33.75"/></g><g id="LWPOLYLINE-109" data-name="LWPOLYLINE"><rect class="cls-12" x="588.13" y="336.48" width="22.5" height="1.64"/></g><g id="LWPOLYLINE-110" data-name="LWPOLYLINE"><rect class="cls-12" x="557.86" y="334.27" width="1.64" height="33.75" transform="translate(-84.66 497.9) rotate(-45)"/></g><g id="LWPOLYLINE-111" data-name="LWPOLYLINE"><rect class="cls-12" x="610.63" y="336.48" width="22.5" height="1.64"/></g><g id="LWPOLYLINE-112" data-name="LWPOLYLINE"><rect class="cls-12" x="491.63" y="362.5" width="22.5" height="1.64"/></g><g id="LWPOLYLINE-113" data-name="LWPOLYLINE"><rect class="cls-12" x="642.8" y="290.43" width="1.64" height="33.75"/></g><g id="LWPOLYLINE-114" data-name="LWPOLYLINE"><rect class="cls-12" x="588.13" y="336.48" width="22.5" height="1.64"/></g><g id="LWPOLYLINE-115" data-name="LWPOLYLINE"><rect class="cls-11" x="557.86" y="334.27" width="1.64" height="33.75" transform="translate(-84.66 497.9) rotate(-45)"/></g><g id="LWPOLYLINE-116" data-name="LWPOLYLINE"><rect class="cls-12" x="610.63" y="336.48" width="22.5" height="1.64"/></g><g id="LWPOLYLINE-117" data-name="LWPOLYLINE"><rect class="cls-12" x="491.63" y="362.5" width="22.5" height="1.64"/></g><g id="ARC-65" data-name="ARC"><path class="cls-12" d="M624.05,282.93a33.77,33.77,0,0,0-9.89-23.87"/></g><g id="ARC-66" data-name="ARC"><path class="cls-12" d="M547.33,338.63a33.76,33.76,0,0,0-9.88,23.87"/></g><g id="ARC-67" data-name="ARC"><path class="cls-12" d="M547.33,338.63a33.76,33.76,0,0,0-9.88,23.87"/></g><g id="LWPOLYLINE-118" data-name="LWPOLYLINE"><rect class="cls-11" x="374.96" y="104.96" width="1.31" height="34.29" transform="translate(4.15 256.29) rotate(-37.87)"/></g><g id="ARC-68" data-name="ARC"><path class="cls-12" d="M364.57,109a34.65,34.65,0,0,0-10.52,24.86"/></g><g id="LWPOLYLINE-119" data-name="LWPOLYLINE"><rect class="cls-11" x="315.16" y="121.56" width="34.29" height="1.31" transform="translate(31.84 309.51) rotate(-52.13)"/></g><g id="ARC-69" data-name="ARC"><path class="cls-12" d="M343.35,109.08a34.47,34.47,0,0,1,10.55,24.75"/></g><g id="LWPOLYLINE-120" data-name="LWPOLYLINE"><polygon class="cls-13" points="676.08 138.38 675.14 138.38 675.14 137.15 676.08 137.15 676.08 136.21 674.32 136.21 674.32 133.87 673.38 133.87 673.38 136.21 672.33 136.21 672.33 137.15 673.27 137.15 673.27 138.38 672.33 138.38 672.33 139.55 673.15 139.55 673.15 140.43 674.21 140.43 674.21 140.9 676.08 140.9 676.08 138.38"/></g><g id="LWPOLYLINE-121" data-name="LWPOLYLINE"><polygon class="cls-13" points="702.8 136.21 701.86 136.21 701.86 132.46 700.92 132.46 700.92 136.21 699.05 136.21 699.05 137.15 699.99 137.15 699.99 138.38 699.05 138.38 699.05 140.9 702.8 140.9 702.8 136.21"/></g><g id="LWPOLYLINE-122" data-name="LWPOLYLINE"><polygon class="cls-13" points="617.02 138.38 617.96 138.38 617.96 137.15 617.02 137.15 617.02 136.21 618.89 136.21 618.89 133.87 619.82 133.87 619.82 136.21 620.77 136.21 620.77 137.15 619.83 137.15 619.83 138.38 620.77 138.38 620.77 139.55 619.95 139.55 619.95 140.43 618.89 140.43 618.89 140.9 617.02 140.9 617.02 138.38"/></g><g id="LWPOLYLINE-123" data-name="LWPOLYLINE"><polygon class="cls-13" points="590.29 136.21 591.24 136.21 591.24 132.46 592.17 132.46 592.17 136.21 594.04 136.21 594.04 137.15 593.11 137.15 593.11 138.38 594.04 138.38 594.04 140.9 590.29 140.9 590.29 136.21"/></g><g id="LWPOLYLINE-124" data-name="LWPOLYLINE"><polygon class="cls-13" points="529.83 138.38 528.89 138.38 528.89 137.15 529.83 137.15 529.83 136.21 528.07 136.21 528.07 133.87 527.13 133.87 527.13 136.21 526.08 136.21 526.08 137.15 527.02 137.15 527.02 138.38 526.08 138.38 526.08 139.55 526.9 139.55 526.9 140.43 527.96 140.43 527.96 140.9 529.83 140.9 529.83 138.38"/></g><g id="LWPOLYLINE-125" data-name="LWPOLYLINE"><polygon class="cls-13" points="556.55 136.21 555.61 136.21 555.61 132.46 554.67 132.46 554.67 136.21 552.8 136.21 552.8 137.15 553.74 137.15 553.74 138.38 552.8 138.38 552.8 140.9 556.55 140.9 556.55 136.21"/></g><g id="LWPOLYLINE-126" data-name="LWPOLYLINE"><polygon class="cls-13" points="470.77 138.38 471.7 138.38 471.7 137.15 470.77 137.15 470.77 136.21 472.64 136.21 472.64 133.87 473.57 133.87 473.57 136.21 474.52 136.21 474.52 137.15 473.58 137.15 473.58 138.38 474.52 138.38 474.52 139.55 473.7 139.55 473.7 140.43 472.64 140.43 472.64 140.9 470.77 140.9 470.77 138.38"/></g><g id="LWPOLYLINE-127" data-name="LWPOLYLINE"><polygon class="cls-13" points="444.16 136.21 445.1 136.21 445.1 132.46 446.04 132.46 446.04 136.21 447.91 136.21 447.91 137.15 446.97 137.15 446.97 138.38 447.91 138.38 447.91 140.9 444.16 140.9 444.16 136.21"/></g><g id="LWPOLYLINE-128" data-name="LWPOLYLINE"><polygon class="cls-13" points="237.33 138.38 236.39 138.38 236.39 137.15 237.33 137.15 237.33 136.21 235.57 136.21 235.57 133.87 234.63 133.87 234.63 136.21 233.58 136.21 233.58 137.15 234.52 137.15 234.52 138.38 233.58 138.38 233.58 139.55 234.4 139.55 234.4 140.43 235.46 140.43 235.46 140.9 237.33 140.9 237.33 138.38"/></g><g id="LWPOLYLINE-129" data-name="LWPOLYLINE"><polygon class="cls-14" points="264.05 136.21 263.11 136.21 263.11 132.46 262.17 132.46 262.17 136.21 260.3 136.21 260.3 137.15 261.24 137.15 261.24 138.38 260.3 138.38 260.3 140.9 264.05 140.9 264.05 136.21"/></g><g id="LWPOLYLINE-130" data-name="LWPOLYLINE"><polygon class="cls-13" points="178.27 138.38 179.21 138.38 179.21 137.15 178.27 137.15 178.27 136.21 180.14 136.21 180.14 133.87 181.07 133.87 181.07 136.21 182.02 136.21 182.02 137.15 181.08 137.15 181.08 138.38 182.02 138.38 182.02 139.55 181.2 139.55 181.2 140.43 180.14 140.43 180.14 140.9 178.27 140.9 178.27 138.38"/></g><g id="LWPOLYLINE-131" data-name="LWPOLYLINE"><polygon class="cls-14" points="151.54 136.21 152.49 136.21 152.49 132.46 153.42 132.46 153.42 136.21 155.29 136.21 155.29 137.15 154.35 137.15 154.35 138.38 155.29 138.38 155.29 140.9 151.54 140.9 151.54 136.21"/></g><g id="LWPOLYLINE-132" data-name="LWPOLYLINE"><polygon class="cls-14" points="322.64 138.38 321.7 138.38 321.7 137.15 322.64 137.15 322.64 136.21 320.77 136.21 320.77 132.46 319.83 132.46 319.83 136.21 318.89 136.21 318.89 137.15 319.83 137.15 319.83 138.38 318.89 138.38 318.89 139.55 319.71 139.55 319.71 140.43 320.77 140.43 320.77 140.9 322.64 140.9 322.64 138.38"/></g><g id="LWPOLYLINE-133" data-name="LWPOLYLINE"><polygon class="cls-14" points="301.55 138.38 300.61 138.38 300.61 137.15 301.55 137.15 301.55 136.21 299.67 136.21 299.67 132.46 298.74 132.46 298.74 136.21 297.8 136.21 297.8 140.9 301.55 140.9 301.55 138.38"/></g><g id="LWPOLYLINE-134" data-name="LWPOLYLINE"><polygon class="cls-14" points="385.45 138.38 386.39 138.38 386.39 137.15 385.45 137.15 385.45 136.21 387.33 136.21 387.33 132.46 388.27 132.46 388.27 136.21 389.2 136.21 389.2 137.15 388.27 137.15 388.27 138.38 389.2 138.38 389.2 139.55 388.38 139.55 388.38 140.43 387.33 140.43 387.33 140.9 385.45 140.9 385.45 138.38"/></g><g id="LWPOLYLINE-135" data-name="LWPOLYLINE"><polygon class="cls-13" points="410.3 136.21 409.36 136.21 409.36 132.46 408.42 132.46 408.42 136.21 406.55 136.21 406.55 137.15 407.49 137.15 407.49 138.38 406.55 138.38 406.55 140.9 410.3 140.9 410.3 136.21"/></g><g id="LWPOLYLINE-136" data-name="LWPOLYLINE"><polygon class="cls-14" points="410.3 136.21 409.36 136.21 409.36 132.46 408.42 132.46 408.42 136.21 406.55 136.21 406.55 137.15 407.49 137.15 407.49 138.38 406.55 138.38 406.55 140.9 410.3 140.9 410.3 136.21"/></g><g id="LWPOLYLINE-137" data-name="LWPOLYLINE"><rect class="cls-1" x="705.96" y="328.87" width="13.13" height="2.46"/></g><g id="LWPOLYLINE-138" data-name="LWPOLYLINE"><polyline class="cls-1" points="660.61 329.09 660.61 362.5 696.24 362.5 696.24 329.23"/></g><g id="LWPOLYLINE-139" data-name="LWPOLYLINE"><rect class="cls-2" x="660.6" y="328.79" width="35.63" height="1.03"/></g><g id="ARC-70" data-name="ARC"><path class="cls-1" d="M689,344.29a3.24,3.24,0,1,0,0,.78"/></g><g id="LWPOLYLINE-140" data-name="LWPOLYLINE"><path class="cls-1" d="M685.7,345.07h10.54v-.77H685.7a.39.39,0,1,0,0,.77Z"/></g><g id="LWPOLYLINE-141" data-name="LWPOLYLINE"><rect class="cls-1" x="705.96" y="328.87" width="13.13" height="2.46"/></g><line class="cls-15" x1="173.61" y1="146.52" x2="276.73" y2="146.52"/><g id="LWPOLYLINE-142" data-name="LWPOLYLINE"><rect class="cls-2" x="414.63" y="215.08" width="92.81" height="37.5"/></g><g id="LWPOLYLINE-143" data-name="LWPOLYLINE"><rect class="cls-2" x="414.63" y="290.55" width="12.3" height="24.14"/></g><g id="LWPOLYLINE-144" data-name="LWPOLYLINE"><rect class="cls-2" x="444.28" y="290.48" width="33.52" height="24.21"/></g><g id="LWPOLYLINE-145" data-name="LWPOLYLINE"><polygon class="cls-2" points="507.26 290.47 477.73 290.47 477.8 314.69 507.33 314.69 507.26 290.47"/></g><g id="LWPOLYLINE-146" data-name="LWPOLYLINE"><rect class="cls-1" x="553.5" y="169.55" width="23.44" height="22.5"/></g><g id="LWPOLYLINE-147" data-name="LWPOLYLINE"><rect class="cls-1" x="553.5" y="146.56" width="23.44" height="22.99"/></g><g id="LWPOLYLINE-148" data-name="LWPOLYLINE"><rect class="cls-1" x="553.5" y="192.05" width="23.44" height="99.67"/></g><g id="LWPOLYLINE-149" data-name="LWPOLYLINE"><rect class="cls-2" x="426.94" y="290.46" width="17.34" height="24.23"/></g><g id="CIRCLE-27" data-name="CIRCLE"><path class="cls-1" d="M559.74,232.8A.77.77,0,1,1,559,232a.78.78,0,0,1,.77.77Z"/></g><g id="CIRCLE-28" data-name="CIRCLE"><path class="cls-1" d="M559.74,237.62a.77.77,0,1,1-.77-.77.77.77,0,0,1,.77.77Z"/></g><g id="CIRCLE-29" data-name="CIRCLE"><path class="cls-1" d="M562.9,237.62a.77.77,0,1,1-.77-.77.77.77,0,0,1,.77.77Z"/></g><g id="CIRCLE-30" data-name="CIRCLE"><path class="cls-1" d="M562.9,235.21a.77.77,0,1,1-.77-.77.77.77,0,0,1,.77.77Z"/></g><g id="CIRCLE-31" data-name="CIRCLE"><path class="cls-1" d="M562.9,232.8a.77.77,0,1,1-.77-.77.78.78,0,0,1,.77.77Z"/></g><g id="LWPOLYLINE-150" data-name="LWPOLYLINE"><rect class="cls-1" x="555.8" y="220.33" width="17.67" height="29.74" rx="0.41"/></g><circle class="cls-1" cx="568.89" cy="244.77" r="1.46"/><path class="cls-1" d="M565.39,240.37h6.45a.62.62,0,0,1,.61.63v7.55a.62.62,0,0,1-.61.63h-6.45a.06.06,0,0,1,0-.06v-8.69A.06.06,0,0,1,565.39,240.37Z"/><circle class="cls-1" cx="568.89" cy="235.21" r="1.46"/><path class="cls-1" d="M565.39,230.8h6.45a.62.62,0,0,1,.61.63V239a.62.62,0,0,1-.61.63h-6.45a.05.05,0,0,1,0-.05v-8.7A.06.06,0,0,1,565.39,230.8Z"/><circle class="cls-1" cx="568.89" cy="225.64" r="1.46"/><path class="cls-1" d="M565.39,221.24h6.45a.61.61,0,0,1,.61.62v7.55a.62.62,0,0,1-.61.63h-6.45a0,0,0,0,1,0,0v-8.7A0,0,0,0,1,565.39,221.24Z"/><circle class="cls-1" cx="560.55" cy="225.64" r="1.46"/><path class="cls-1" d="M564.05,230h-6.44a.62.62,0,0,1-.61-.63v-7.55a.61.61,0,0,1,.61-.62h6.44a0,0,0,0,1,.05,0V230A0,0,0,0,1,564.05,230Z"/><circle class="cls-1" cx="560.55" cy="244.77" r="1.46"/><path class="cls-1" d="M564.05,249.18h-6.44a.62.62,0,0,1-.61-.63V241a.62.62,0,0,1,.61-.63h6.44a.06.06,0,0,1,.05.06v8.69A.06.06,0,0,1,564.05,249.18Z"/><g id="LWPOLYLINE-151" data-name="LWPOLYLINE"><polyline class="cls-1" points="453.73 236.02 453.73 250.51 480.9 250.51 480.9 236.02 453.73 236.02"/></g><rect class="cls-2" x="467.05" y="233.47" width="3.31" height="1.39" transform="translate(937.4 468.32) rotate(180)"/><path class="cls-2" d="M466.32,234.72a1,1,0,0,0,.32.32v7a.5.5,0,0,0,1,0v-7a1,1,0,1,0-1-1.64A1,1,0,0,0,466.32,234.72Z"/><g id="LWPOLYLINE-152" data-name="LWPOLYLINE"><line class="cls-16" x1="563.81" y1="192.05" x2="563.81" y2="291.72"/></g><g id="LWPOLYLINE-153" data-name="LWPOLYLINE"><line class="cls-17" x1="488.7" y1="377.26" x2="517.06" y2="377.26"/></g><g id="LWPOLYLINE-154" data-name="LWPOLYLINE"><line class="cls-17" x1="581.51" y1="351.25" x2="640.92" y2="351.25"/></g><g id="LWPOLYLINE-155" data-name="LWPOLYLINE"><line class="cls-16" x1="414.63" y1="224.45" x2="506.51" y2="224.45"/></g><line class="cls-1" x1="485.22" y1="252.3" x2="485.22" y2="251.63"/><line class="cls-18" x1="485.22" y1="250.27" x2="485.22" y2="231.89"/><polyline class="cls-1" points="485.22 231.21 485.22 230.55 485.88 230.55"/><line class="cls-19" x1="487.24" y1="230.55" x2="502.89" y2="230.55"/><polyline class="cls-1" points="503.57 230.55 504.23 230.55 504.23 231.21"/><line class="cls-18" x1="504.23" y1="232.57" x2="504.23" y2="250.95"/><line class="cls-1" x1="504.23" y1="251.63" x2="504.23" y2="252.3"/><g id="LINE-70" data-name="LINE"><line class="cls-13" x1="636.98" y1="344.72" x2="636.98" y2="357.78"/></g><g id="LINE-71" data-name="LINE"><line class="cls-13" x1="634.56" y1="344.72" x2="634.56" y2="357.78"/></g><g id="LINE-72" data-name="LINE"><line class="cls-13" x1="632.14" y1="344.72" x2="632.14" y2="357.78"/></g><g id="LINE-73" data-name="LINE"><line class="cls-13" x1="629.72" y1="344.72" x2="629.72" y2="357.78"/></g><g id="LINE-74" data-name="LINE"><line class="cls-13" x1="627.3" y1="344.72" x2="627.3" y2="357.78"/></g><g id="LINE-75" data-name="LINE"><line class="cls-13" x1="624.88" y1="357.78" x2="624.88" y2="344.72"/></g><g id="LINE-76" data-name="LINE"><line class="cls-13" x1="513.11" y1="370.74" x2="513.11" y2="383.79"/></g><g id="LINE-77" data-name="LINE"><line class="cls-13" x1="510.69" y1="370.74" x2="510.69" y2="383.79"/></g><g id="LINE-78" data-name="LINE"><line class="cls-13" x1="508.27" y1="370.74" x2="508.27" y2="383.79"/></g><g id="LINE-79" data-name="LINE"><line class="cls-13" x1="505.85" y1="370.74" x2="505.85" y2="383.79"/></g><g id="LINE-80" data-name="LINE"><line class="cls-13" x1="503.43" y1="370.74" x2="503.43" y2="383.79"/></g><g id="LINE-81" data-name="LINE"><line class="cls-13" x1="501.01" y1="383.79" x2="501.01" y2="370.74"/></g><g id="LWPOLYLINE-157" data-name="LWPOLYLINE"><rect class="cls-2" x="704.78" y="295.34" width="20.52" height="26.73"/></g><g id="LWPOLYLINE-158" data-name="LWPOLYLINE"><path class="cls-2" d="M708.79,300.59a1.15,1.15,0,0,0-1.15,1.15v13.93a1.15,1.15,0,0,0,1.15,1.15H719.1a1,1,0,0,0,.95-1V301.55a1,1,0,0,0-.95-1Z"/></g><g id="ARC-71" data-name="ARC"><path class="cls-2" d="M708.2,285c3.27.37,11.91,1.05,11.91,1.05"/></g><g id="ARC-72" data-name="ARC"><path class="cls-2" d="M715.78,273.35a.87.87,0,0,0-.53-.8c-.36-.15-.73-.28-1.1-.41a15.59,15.59,0,0,0-3-.66c-.54-.06-1.09-.11-1.64-.14a16.32,16.32,0,0,0-4.3.36,10.42,10.42,0,0,0-5.49,3.17,4.95,4.95,0,0,0,.06,6.75,10.46,10.46,0,0,0,5.55,3.06,16,16,0,0,0,4.31.28c.55,0,1.1-.1,1.64-.17a15,15,0,0,0,3-.73c.37-.13.73-.27,1.08-.43a.87.87,0,0,0,.53-.8Z"/></g><g id="ARC-73" data-name="ARC"><path class="cls-2" d="M708.06,271.33c3.27-.42,12.05-1.05,12.05-1.05"/></g><g id="ARC-74" data-name="ARC"><path class="cls-2" d="M720,286a1.14,1.14,0,0,1-1.07-1,57.76,57.76,0,0,1,0-13.74,1.13,1.13,0,0,1,1.07-1h0c1.18-.06,2.36-.1,3.54-.13a1.51,1.51,0,0,1,1.54,1.39c.19,2.19.28,4.4.28,6.61s-.09,4.41-.28,6.61a1.52,1.52,0,0,1-1.54,1.39c-1.18,0-2.36-.08-3.54-.13Z"/></g><g id="ARC-75" data-name="ARC"><path class="cls-2" d="M721.48,309.19a1.2,1.2,0,0,0,2.3-.48,1.2,1.2,0,0,0-2.3-.49Z"/></g><g id="ARC-76" data-name="ARC"><path class="cls-2" d="M722.82,314.7a1.2,1.2,0,0,0-.24-2.38,1.19,1.19,0,0,0-1.2,1.2,1.21,1.21,0,0,0,1,1.18Z"/></g><g id="ARC-77" data-name="ARC"><path class="cls-2" d="M722.82,302.71a1.2,1.2,0,1,1-.48,0Z"/></g><g id="LINE-82" data-name="LINE"><path class="cls-2" d="M716.8,309.19h5.78a.49.49,0,0,0,0-1H716.8a.49.49,0,0,0,0,1Z"/></g><line class="cls-2" x1="722.58" y1="313.51" x2="722.58" y2="316.89"/><line class="cls-2" x1="722.58" y1="300.52" x2="722.58" y2="303.9"/><g id="LWPOLYLINE-159" data-name="LWPOLYLINE"><polygon class="cls-9" points="574.13 373.87 580.92 373.87 580.92 365.37 702.1 365.37 702.1 335.55 732.56 335.55 732.56 124.02 702.8 124.02 702.8 140.9 702.1 140.9 702.1 261.6 640.92 261.6 640.92 282.93 624.05 282.93 624.05 286.44 640.92 286.44 640.92 290.43 644.44 290.43 644.44 265.12 725.3 265.12 725.3 328.87 696.24 328.87 696.24 362.5 660.61 362.5 660.61 328.87 644.44 328.87 644.44 324.18 640.92 324.18 640.92 336.48 633.13 336.48 633.13 340 640.92 340 640.92 362.5 581.51 362.5 581.51 340 588.13 340 588.13 336.48 581.51 336.48 581.51 332.73 576.94 332.73 576.94 362.5 571.2 362.5 571.2 368.24 574.13 368.24 574.13 373.87"/></g><g id="LWPOLYLINE-160" data-name="LWPOLYLINE"><polygon class="cls-9" points="410.18 318.2 510.85 318.2 510.85 295.23 576.94 295.23 576.94 298.98 581.51 298.98 581.51 286.44 590.3 286.44 590.3 282.93 586.55 282.93 586.55 146.52 590.06 146.52 590.06 140.9 590.3 140.9 590.3 124.02 586.55 124.02 585.3 126.23 583.68 128.18 581.75 129.81 579.56 131.09 577.12 131.97 574.69 132.41 572.16 132.41 569.66 131.96 567.28 131.09 565.1 129.81 563.16 128.18 561.55 126.23 560.3 124.02 556.55 124.02 556.55 140.9 554.67 140.9 554.67 146.52 576.94 146.52 576.94 291.72 507.33 291.72 507.33 314.69 414.75 314.69 414.75 290.55 410.18 290.55 410.18 318.2"/></g><g id="LWPOLYLINE-161" data-name="LWPOLYLINE"><polygon class="cls-9" points="410.18 177.58 444.17 177.58 444.17 124.02 410.3 124.02 410.3 140.9 410.18 140.9 410.18 157.84 410.18 177.58"/></g><g id="LWPOLYLINE-162" data-name="LWPOLYLINE"><polygon class="cls-9" points="297.8 146.52 297.8 124.02 294.05 124.02 292.8 126.23 291.18 128.18 289.25 129.81 287.06 131.09 284.62 131.97 282.19 132.41 279.66 132.41 277.16 131.96 274.79 131.09 272.6 129.81 270.66 128.18 269.05 126.23 267.8 124.02 264.05 124.02 264.05 146.52 297.7 146.52 297.8 146.52"/></g><g id="LWPOLYLINE-163" data-name="LWPOLYLINE"><path class="cls-9" d="M517.18,390.62h5.62V373.87h.7v-5.63h14V362.5H514.13V366h2.93v22.5H488.7V366h2.93V362.5H14.32l-2.19-.22L10,361.64l-1.95-1-1.7-1.4L5,357.5l-1-1.95-.64-2.11-.22-2.19V296.76l.22-2.2.64-2.11,1-1.94,1.4-1.71,1.7-1.4,1.95-1,2.11-.64,2.19-.21H120.61l0,31.71a5,5,0,0,1-4.62,5H67.29v3.51H116l1.67-.19,1.58-.55,1.43-.89,1.18-1.19.9-1.42.55-1.59.19-1.67V284.92h-.12V191.29h45.71V146.52h11V140.9H151.55V.2h-4.69V132.46H120.55V282.64H.2v82.73H485.3v25.25h31.88Z"/></g><path class="cls-20" d="M620.2,207.63h.65v5h2.53v.63H620.2Z"/><path class="cls-20" d="M624.85,207.63h.66v5.6h-.66Z"/><path class="cls-20" d="M627.42,207.63h2.15a1.46,1.46,0,0,1,1.63,1.45,1.21,1.21,0,0,1-.65,1.15h0a1.36,1.36,0,0,1,.86,1.33c0,1.08-.68,1.66-2,1.66h-2Zm2,2.37c.73,0,1.09-.29,1.09-.89s-.37-.86-1.09-.86h-1.38V210Zm-.1,2.6c1,0,1.4-.31,1.4-1s-.4-1-1.38-1h-1.3v2Z"/><path class="cls-20" d="M635.55,210.92l1.23,2.31H636L634.82,211H633.7v2.28H633v-5.6h2c1.17,0,1.86.62,1.86,1.65a1.55,1.55,0,0,1-1.39,1.63Zm-.52-.59c.82,0,1.25-.36,1.25-1.05s-.42-1-1.25-1H633.7v2.08Z"/><path class="cls-20" d="M641.58,212.1h-2.52l-.39,1.13H638l2-5.6h.64l2,5.6H642Zm-.2-.58-1-3h0l-1.05,3Z"/><path class="cls-20" d="M646.51,210.92l1.23,2.31H647L645.78,211h-1.12v2.28H644v-5.6h2c1.17,0,1.86.62,1.86,1.65a1.55,1.55,0,0,1-1.39,1.63Zm-.53-.59c.83,0,1.26-.36,1.26-1.05s-.42-1-1.26-1h-1.32v2.08Z"/><path class="cls-20" d="M650.69,210.89l-2-3.26h.77l1.51,2.61h0l1.52-2.61h.76l-2,3.26v2.34h-.66Z"/><path class="cls-20" d="M610.8,216.88l-1.25.81V217l1.33-.86h.58v5.6h-.66Z"/><path class="cls-20" d="M613.05,219.86l.66-.1c.11,1,.58,1.46,1.4,1.46a1.07,1.07,0,0,0,1.2-1.08c0-.76-.43-1.12-1.32-1.12h-.4v-.57h.4c.67,0,1.18-.4,1.18-.91s-.4-.92-1.06-.92a1.19,1.19,0,0,0-1.27,1l-.65-.09a1.8,1.8,0,0,1,1.92-1.57,1.54,1.54,0,0,1,1.72,1.49,1.33,1.33,0,0,1-.76,1.17v0a1.48,1.48,0,0,1,.9,1.45,1.69,1.69,0,0,1-1.86,1.71A2,2,0,0,1,613.05,219.86Z"/><path class="cls-20" d="M618.63,216.13h.58v1.78h-.58Z"/><path class="cls-20" d="M620.35,218.54h2.08v.6h-2.08Z"/><path class="cls-20" d="M623.65,219.86l.66-.1c.11,1,.58,1.46,1.41,1.46a1.07,1.07,0,0,0,1.2-1.08c0-.76-.44-1.12-1.32-1.12h-.4v-.57h.4a1.05,1.05,0,0,0,1.17-.91c0-.57-.4-.92-1.06-.92a1.19,1.19,0,0,0-1.27,1l-.64-.09a1.8,1.8,0,0,1,1.91-1.57,1.54,1.54,0,0,1,1.73,1.49,1.35,1.35,0,0,1-.76,1.17v0a1.47,1.47,0,0,1,.89,1.45,1.69,1.69,0,0,1-1.85,1.71A2,2,0,0,1,623.65,219.86Z"/><path class="cls-20" d="M629.22,216.13h.58v1.78h-.58Zm1,0h.58v1.78h-.58Z"/><path class="cls-20" d="M634.55,220.29l1.31-1.3-1.31-1.29.39-.4,1.29,1.32,1.3-1.32.39.4L636.61,219l1.31,1.3-.39.39-1.3-1.31-1.29,1.31Z"/><path class="cls-20" d="M642.1,216.88l-1.25.81V217l1.33-.86h.58v5.6h-.66Z"/><path class="cls-20" d="M644.42,218.93c0-1.82.9-2.92,2.21-2.92s2.22,1.1,2.22,2.92-.91,2.92-2.22,2.92S644.42,220.74,644.42,218.93Zm3.76,0c0-1.47-.61-2.3-1.55-2.3s-1.55.83-1.55,2.3.62,2.29,1.55,2.29S648.18,220.39,648.18,218.93Z"/><path class="cls-20" d="M650.38,216.13H651v1.78h-.59Z"/><path class="cls-20" d="M652.38,218.54h2.09v.6h-2.09Z"/><path class="cls-20" d="M655.62,220.17a1.58,1.58,0,0,1,1-1.51h0a1.26,1.26,0,0,1-.73-1.17,1.78,1.78,0,0,1,3.51,0,1.27,1.27,0,0,1-.73,1.17h0a1.59,1.59,0,0,1,1,1.51c0,1-.82,1.68-2.07,1.68S655.62,221.17,655.62,220.17Zm3.46,0c0-.68-.54-1.11-1.39-1.11s-1.39.43-1.39,1.11.54,1.08,1.39,1.08S659.08,220.79,659.08,220.13Zm-.28-2.61c0-.54-.45-.91-1.11-.91s-1.1.37-1.1.91.44.88,1.1.88S658.8,218.06,658.8,217.52Z"/><path class="cls-20" d="M661.19,216.13h.58v1.78h-.58Zm1,0h.59v1.78h-.59Z"/><path class="cls-20" d="M161.08,265.76h.66v5h2.52v.62h-3.18Z"/><path class="cls-20" d="M165.73,265.76h.66v5.6h-.66Z"/><path class="cls-20" d="M167.72,265.76h.7l1.66,4.72h0l1.67-4.72h.69l-2,5.6h-.7Z"/><path class="cls-20" d="M173.81,265.76h.65v5.6h-.65Z"/><path class="cls-20" d="M176.37,265.76h.78l2.54,4.57h0v-4.57h.66v5.6h-.78L177,266.79h0v4.57h-.66Z"/><path class="cls-20" d="M182,268.56c0-1.77.93-2.92,2.36-2.92a2.08,2.08,0,0,1,2.13,1.85l-.66.12a1.43,1.43,0,0,0-1.47-1.34c-1.05,0-1.7.87-1.7,2.29s.65,2.29,1.7,2.29a1.42,1.42,0,0,0,1.49-1.63h-1.42v-.63h2.07v.57a2.08,2.08,0,0,1-2.14,2.32C182.93,271.48,182,270.34,182,268.56Z"/><path class="cls-20" d="M190.11,271.48l2.86-6,.45.2-2.87,6Z"/><path class="cls-20" d="M197.35,265.76h1.75c1.41,0,2.41,1,2.41,2.79,0,2-1,2.81-2.46,2.81h-1.7Zm1.66,5c1.13,0,1.84-.6,1.84-2.19,0-1.43-.71-2.16-1.79-2.16H198v4.35Z"/><path class="cls-20" d="M203.15,265.76h.66v5.6h-.66Z"/><path class="cls-20" d="M205.72,265.76h.77l2.55,4.57h0v-4.57h.67v5.6h-.79l-2.54-4.57h0v4.57h-.65Z"/><path class="cls-20" d="M211.64,265.76h.66v5.6h-.66Z"/><path class="cls-20" d="M214.21,265.76H215l2.54,4.57h0v-4.57h.66v5.6h-.78l-2.54-4.57h0v4.57h-.65Z"/><path class="cls-20" d="M219.83,268.56c0-1.77.93-2.92,2.36-2.92a2.08,2.08,0,0,1,2.13,1.85l-.66.12a1.43,1.43,0,0,0-1.47-1.34c-1,0-1.69.87-1.69,2.29s.65,2.29,1.69,2.29a1.43,1.43,0,0,0,1.5-1.63h-1.42v-.63h2.07v.57a2.09,2.09,0,0,1-2.15,2.32C220.76,271.48,219.83,270.34,219.83,268.56Z"/><path class="cls-20" d="M231,269.06l1.23,2.3h-.77l-1.19-2.27h-1.12v2.27h-.65v-5.6h2a1.63,1.63,0,0,1,1.86,1.66A1.54,1.54,0,0,1,231,269Zm-.52-.6c.82,0,1.25-.36,1.25-1s-.42-1-1.25-1h-1.33v2.07Z"/><path class="cls-20" d="M233.67,268.56c0-1.75.94-2.92,2.36-2.92s2.36,1.17,2.36,2.92-.94,2.92-2.36,2.92S233.67,270.31,233.67,268.56Zm4.06,0c0-1.42-.65-2.29-1.7-2.29s-1.69.87-1.69,2.29.64,2.29,1.69,2.29S237.73,270,237.73,268.56Z"/><path class="cls-20" d="M239.73,268.56c0-1.75,1-2.92,2.36-2.92s2.36,1.17,2.36,2.92-.94,2.92-2.36,2.92S239.73,270.31,239.73,268.56Zm4.06,0c0-1.42-.65-2.29-1.7-2.29s-1.69.87-1.69,2.29.64,2.29,1.69,2.29S243.79,270,243.79,268.56Z"/><path class="cls-20" d="M246.08,265.76H247l1.81,4.45h0l1.81-4.45h.88v5.6h-.66v-4.54h0l-1.89,4.54h-.28l-1.89-4.54h0v4.54h-.66Z"/><path class="cls-20" d="M177.9,279.24h3v.62h-3.72v-.53a2,2,0,0,1,.24-1.06c.2-.37.54-.64,1.42-1.1,1.16-.6,1.49-.93,1.49-1.49s-.48-.91-1.16-.91a1.29,1.29,0,0,0-1.4,1.36l-.67-.06a1.94,1.94,0,0,1,2.07-1.93,1.68,1.68,0,0,1,1.83,1.54c0,.82-.42,1.31-1.65,1.93-.94.47-1.19.66-1.34.94A1.47,1.47,0,0,0,177.9,279.24Z"/><path class="cls-20" d="M182.21,278.38l.64-.16a1.3,1.3,0,0,0,1.44,1.13,1.36,1.36,0,1,0,0-2.71,1.79,1.79,0,0,0-1.35.59l-.59-.15.54-2.82h2.93v.63h-2.43l-.3,1.55h0a2.15,2.15,0,0,1,1.29-.38,1.88,1.88,0,0,1,1.94,1.93,1.92,1.92,0,0,1-2,2A2,2,0,0,1,182.21,278.38Z"/><path class="cls-20" d="M187.59,274.26h.58V276h-.58Z"/><path class="cls-20" d="M189.31,276.67h2.08v.6h-2.08Z"/><path class="cls-20" d="M193.66,275l-1.25.81v-.69l1.33-.87h.58v5.6h-.66Z"/><path class="cls-20" d="M196,277.06c0-1.81.9-2.92,2.21-2.92s2.22,1.11,2.22,2.92-.9,2.92-2.22,2.92S196,278.88,196,277.06Zm3.77,0c0-1.46-.62-2.29-1.56-2.29s-1.55.83-1.55,2.29.62,2.29,1.55,2.29S199.75,278.52,199.75,277.06Z"/><path class="cls-20" d="M201.93,274.26h.59V276h-.59Zm1.06,0h.58V276H203Z"/><path class="cls-20" d="M207.27,278.42l1.31-1.3-1.31-1.29.39-.39,1.29,1.31,1.29-1.31.39.39-1.31,1.29,1.31,1.3-.39.39L209,277.5l-1.29,1.31Z"/><path class="cls-20" d="M214.81,275l-1.25.81v-.69l1.33-.87h.58v5.6h-.66Z"/><path class="cls-20" d="M221.14,276.72c0,2.28-.61,3.26-2,3.26a1.78,1.78,0,0,1-1.8-1.42l.61-.16a1.18,1.18,0,0,0,1.19,1c.89,0,1.31-.57,1.36-2.05h0A1.68,1.68,0,0,1,219,278a1.8,1.8,0,0,1-1.95-1.92,1.88,1.88,0,0,1,2-1.9C220.31,274.14,221.14,275,221.14,276.72Zm-.77-.64a1.33,1.33,0,1,0-1.32,1.29A1.25,1.25,0,0,0,220.37,276.08Z"/><path class="cls-20" d="M222.72,274.26h.58V276h-.58Z"/><path class="cls-20" d="M224.72,276.67h2.09v.6h-2.09Z"/><path class="cls-20" d="M228,278.3a1.56,1.56,0,0,1,1-1.5v0a1.24,1.24,0,0,1-.74-1.17,1.79,1.79,0,0,1,3.52,0,1.25,1.25,0,0,1-.74,1.17v0a1.56,1.56,0,0,1,1,1.5c0,1-.81,1.68-2.06,1.68S228,279.31,228,278.3Zm3.45,0c0-.67-.53-1.1-1.38-1.1s-1.39.43-1.39,1.1.54,1.08,1.39,1.08S231.41,278.92,231.41,278.26Zm-.28-2.61c0-.54-.44-.91-1.1-.91s-1.1.37-1.1.91.44.88,1.1.88S231.13,276.19,231.13,275.65Z"/><path class="cls-20" d="M233.53,274.26h.58V276h-.58Zm1.05,0h.59V276h-.59Z"/><path class="cls-20" d="M534.78,322.24h3.37v.62h-2.71v2h2.49v.59h-2.49v2.39h-.66Z"/><path class="cls-20" d="M539.7,325c0-1.75.95-2.92,2.36-2.92s2.36,1.17,2.36,2.92-.94,2.92-2.36,2.92S539.7,326.79,539.7,325Zm4.06,0c0-1.42-.65-2.3-1.7-2.3s-1.69.88-1.69,2.3.64,2.29,1.69,2.29S543.76,326.45,543.76,325Z"/><path class="cls-20" d="M547.41,325.5l-2-3.26h.77l1.51,2.61h0l1.52-2.61H550l-2,3.26v2.34h-.66Z"/><path class="cls-20" d="M551.68,322.24H555v.62h-2.71v1.79h2.48v.6h-2.48v2H555v.63h-3.36Z"/><path class="cls-20" d="M559.45,325.53l1.23,2.31h-.77l-1.18-2.27h-1.12v2.27H557v-5.6h2c1.17,0,1.86.62,1.86,1.65a1.55,1.55,0,0,1-1.4,1.63Zm-.52-.59c.83,0,1.26-.36,1.26-1.05s-.42-1-1.26-1h-1.32v2.08Z"/><path class="cls-20" d="M461.63,302.49l1.23,2.3h-.77l-1.19-2.27h-1.12v2.27h-.65v-5.6h2c1.17,0,1.86.63,1.86,1.66a1.54,1.54,0,0,1-1.4,1.62Zm-.52-.59c.83,0,1.26-.36,1.26-1s-.43-1-1.26-1h-1.33v2.08Z"/><path class="cls-20" d="M481.79,297.61c0-1.75.95-2.92,2.36-2.92s2.36,1.17,2.36,2.92-.94,2.92-2.36,2.92S481.79,299.36,481.79,297.61Zm4.06,0c0-1.42-.65-2.29-1.7-2.29s-1.69.87-1.69,2.29.64,2.29,1.69,2.29S485.85,299,485.85,297.61Z"/><path class="cls-20" d="M487,300.53l2.85-6,.45.2-2.86,6Z"/><path class="cls-20" d="M491.15,294.81h.68l.83,4.55h0l1.39-4.55h.62l1.39,4.55h0l.82-4.55h.68l-1,5.6h-.8l-1.38-4.49h0L493,300.41h-.81Z"/><path class="cls-20" d="M498.76,294.81h1.74c1.42,0,2.42,1,2.42,2.79,0,2-1,2.81-2.46,2.81h-1.7Zm1.66,5c1.13,0,1.84-.6,1.84-2.19,0-1.43-.71-2.16-1.8-2.16h-1v4.35Z"/><path class="cls-20" d="M487.35,307.05l.65-.11a1.46,1.46,0,0,0,1.66,1.46c.77,0,1.29-.36,1.29-.9s-.38-.88-1.55-1.25c-1.33-.44-1.78-.83-1.78-1.58s.73-1.48,1.79-1.48a2,2,0,0,1,2,1.63l-.65.14a1.33,1.33,0,0,0-1.39-1.14c-.68,0-1.13.33-1.13.85s.33.66,1.35,1c1.45.48,2,1,2,1.84s-.79,1.54-2,1.54A2.05,2.05,0,0,1,487.35,307.05Z"/><path class="cls-20" d="M492.57,306.11c0-1.75.94-2.92,2.35-2.92s2.36,1.17,2.36,2.92-.94,2.92-2.36,2.92S492.57,307.86,492.57,306.11Zm4.05,0c0-1.42-.65-2.29-1.7-2.29s-1.69.87-1.69,2.29.65,2.29,1.69,2.29S496.62,307.53,496.62,306.11Z"/><path class="cls-20" d="M432.27,299.19h.67l.83,4.55h0l1.39-4.55h.62l1.39,4.55h0l.82-4.55h.68l-1,5.6h-.8l-1.37-4.49h0l-1.37,4.49h-.8Z"/><path class="cls-20" d="M489.31,238.43h1.74c1.41,0,2.41,1,2.41,2.79,0,2-1,2.8-2.46,2.8h-1.69Zm1.65,5c1.14,0,1.84-.6,1.84-2.18,0-1.43-.7-2.17-1.79-2.17H490v4.35Z"/><path class="cls-20" d="M494.23,238.43h.68l.82,4.55h0l1.38-4.55h.63l1.39,4.55h0l.83-4.55h.68l-1,5.59h-.8l-1.38-4.49h0L496.07,244h-.81Z"/><path class="cls-20" d="M413.89,52.44h-1.75v-.63h4.15v.63h-1.74v5h-.66Z"/><path class="cls-20" d="M417.77,51.81h3.35v.63h-2.7v1.79h2.48v.59h-2.48v2h2.7v.62h-3.35Z"/><path class="cls-20" d="M425.22,55.11l1.23,2.3h-.77l-1.19-2.27h-1.12v2.27h-.65v-5.6h2a1.63,1.63,0,0,1,1.86,1.66,1.54,1.54,0,0,1-1.4,1.62Zm-.52-.59c.82,0,1.25-.36,1.25-1.05s-.42-1-1.25-1h-1.33v2.08Z"/><path class="cls-20" d="M430.67,55.11l1.23,2.3h-.78l-1.18-2.27h-1.12v2.27h-.66v-5.6h2c1.17,0,1.86.63,1.86,1.66a1.53,1.53,0,0,1-1.39,1.62Zm-.52-.59c.82,0,1.25-.36,1.25-1.05s-.42-1-1.25-1h-1.33v2.08Z"/><path class="cls-20" d="M436.7,56.28h-2.51l-.4,1.13h-.68l2-5.6h.64l2,5.6h-.67Zm-.2-.57-1-3h0l-1.05,3Z"/><path class="cls-20" d="M438.63,54.61c0-1.75.94-2.92,2.36-2.92a2.1,2.1,0,0,1,2.14,2l-.65.12c-.16-.94-.68-1.44-1.49-1.44-1.05,0-1.7.88-1.7,2.29s.64,2.3,1.7,2.3c.86,0,1.37-.55,1.48-1.57l.68.09a2.08,2.08,0,0,1-2.16,2.1C439.56,57.53,438.63,56.39,438.63,54.61Z"/><path class="cls-20" d="M444.72,51.81h3.36v.63h-2.7v1.79h2.47v.59h-2.47v2h2.7v.62h-3.36Z"/><path class="cls-20" d="M406.82,64.77H404v-.58l2.47-3.88h1v3.87h.71v.59h-.71v1.14h-.67Zm0-.59V60.83h0l-2.13,3.35Z"/><path class="cls-20" d="M413.4,62.78c0,2.27-.61,3.25-2,3.25a1.78,1.78,0,0,1-1.8-1.42l.61-.16a1.18,1.18,0,0,0,1.19,1c.89,0,1.31-.57,1.36-2h0a1.7,1.7,0,0,1-1.44.63,1.8,1.8,0,0,1-1.95-1.92,1.88,1.88,0,0,1,2-1.9C412.57,60.19,413.4,61.06,413.4,62.78Zm-.77-.65a1.33,1.33,0,1,0-1.32,1.29A1.25,1.25,0,0,0,412.63,62.13Z"/><path class="cls-20" d="M415,60.31h.58V62.1H415Z"/><path class="cls-20" d="M416.7,62.72h2.09v.6H416.7Z"/><path class="cls-20" d="M422.1,61h-2.91v-.63h3.66v.58l-2.27,5h-.74Z"/><path class="cls-20" d="M424.47,60.31h.59V62.1h-.59Zm1.06,0h.58V62.1h-.58Z"/><path class="cls-20" d="M429.81,64.47l1.31-1.29-1.31-1.3.39-.39,1.29,1.31,1.29-1.31.4.39-1.32,1.3,1.32,1.29-.4.39-1.29-1.31-1.29,1.31Z"/><path class="cls-20" d="M437.35,61.06l-1.25.81v-.69l1.33-.87H438v5.6h-.67Z"/><path class="cls-20" d="M440.79,61.06l-1.25.81v-.69l1.33-.87h.58v5.6h-.66Z"/><path class="cls-20" d="M443.41,60.31H444V62.1h-.59Z"/><path class="cls-20" d="M445.41,62.72h2.09v.6h-2.09Z"/><path class="cls-20" d="M451.34,64.77h-2.8v-.58L451,60.31h1v3.87h.72v.59H452v1.14h-.66Zm0-.59V60.83h0l-2.12,3.35Z"/><path class="cls-20" d="M454.07,60.31h.59V62.1h-.59Zm1.06,0h.58V62.1h-.58Z"/><polygon class="cls-20" points="547.82 386.42 553.22 372.02 558.62 386.42 547.82 386.42"/><line class="cls-1" x1="146.7" y1="342.57" x2="150.98" y2="344.71"/><line class="cls-1" x1="146.7" y1="342.5" x2="151.05" y2="340.34"/><line class="cls-1" x1="157.24" y1="342.53" x2="146.7" y2="342.53"/></g></g></svg>