<svg xmlns="http://www.w3.org/2000/svg" viewBox="0 0 744.78 396.49"><defs><style>.cls-1,.cls-10,.cls-12,.cls-2,.cls-3,.cls-5{fill:#b4c0be;}.cls-1,.cls-10,.cls-11,.cls-12,.cls-13,.cls-14,.cls-15,.cls-16,.cls-17,.cls-2,.cls-4,.cls-5,.cls-6,.cls-7,.cls-8,.cls-9{stroke:#231f20;}.cls-1,.cls-10,.cls-11,.cls-12,.cls-13,.cls-14,.cls-15,.cls-16,.cls-2,.cls-4,.cls-6,.cls-7,.cls-9{stroke-linecap:round;stroke-linejoin:round;}.cls-1{stroke-width:0.15px;}.cls-2,.cls-4,.cls-5{stroke-width:0.15px;}.cls-11,.cls-13,.cls-14,.cls-15,.cls-16,.cls-4,.cls-6,.cls-7,.cls-8,.cls-9{fill:none;}.cls-17,.cls-5,.cls-8{stroke-miterlimit:10;}.cls-17,.cls-6{stroke-width:0.4px;}.cls-12,.cls-13,.cls-14,.cls-15,.cls-16,.cls-7,.cls-8{stroke-width:0.25px;}.cls-10,.cls-11,.cls-9{stroke-width:0.2px;}.cls-11,.cls-13{stroke-dasharray:1.32 1.32;}.cls-14{stroke-dasharray:2 2;}.cls-15{stroke-dasharray:1.23 1.23;}.cls-16{stroke-dasharray:1.33 1.33;}.cls-17{fill:#e1e5e5;}.cls-18{fill:#231f20;}</style></defs><title>Asset 5</title><g id="Layer_2" data-name="Layer 2"><g id="Unit16A_Hover"><g id="LWPOLYLINE"><rect class="cls-1" x="597.95" y="35.86" width="106.72" height="171.31"/></g><g id="LWPOLYLINE-2" data-name="LWPOLYLINE"><rect class="cls-1" x="37.2" y="36.8" width="97.33" height="87.12"/></g><g id="LWPOLYLINE-3" data-name="LWPOLYLINE"><path class="cls-2" d="M485.49,134.62a12.92,12.92,0,0,1-1.17,1.17,12,12,0,0,1-16.89-1.17l1.06-.92V122.79h15.94V133.7Z"/></g><g id="LWPOLYLINE-4" data-name="LWPOLYLINE"><path class="cls-2" d="M508,134.62a12.92,12.92,0,0,1-1.17,1.17,12,12,0,0,1-16.89-1.17l1.06-.92V122.79h15.94V133.7Z"/></g><g id="LWPOLYLINE-5" data-name="LWPOLYLINE"><rect class="cls-2" x="111.77" y="300.67" width="22.5" height="16.88"/></g><g id="LWPOLYLINE-6" data-name="LWPOLYLINE"><rect class="cls-2" x="25.52" y="300.67" width="22.5" height="16.88"/></g><g id="LWPOLYLINE-7" data-name="LWPOLYLINE"><rect class="cls-2" x="51.77" y="236.92" width="56.25" height="80.62"/></g><g id="LWPOLYLINE-8" data-name="LWPOLYLINE"><rect class="cls-2" x="51.77" y="184.28" width="56.25" height="15"/></g><g id="LWPOLYLINE-9" data-name="LWPOLYLINE"><rect class="cls-2" x="50.55" y="32.19" width="71.25" height="80.63"/></g><g id="LWPOLYLINE-10" data-name="LWPOLYLINE"><rect class="cls-2" x="58.05" y="163.37" width="56.25" height="15"/></g><rect class="cls-3" x="299.86" y="240.9" width="27.89" height="25.31"/><rect class="cls-3" x="299.86" y="269.5" width="27.89" height="25.31"/><g id="LWPOLYLINE-11" data-name="LWPOLYLINE"><rect class="cls-2" x="28.1" y="31.71" width="20.16" height="15.94"/></g><g id="LWPOLYLINE-12" data-name="LWPOLYLINE"><rect class="cls-2" x="123.49" y="31.71" width="20.16" height="15.94"/></g><line class="cls-4" x1="50.55" y1="54.53" x2="121.8" y2="54.53"/><line class="cls-4" x1="50.55" y1="56.96" x2="121.8" y2="56.96"/><g id="LWPOLYLINE-13" data-name="LWPOLYLINE"><line class="cls-4" x1="482.58" y1="135.37" x2="482.58" y2="122.79"/></g><g id="LWPOLYLINE-14" data-name="LWPOLYLINE"><line class="cls-4" x1="470.34" y1="135.37" x2="470.34" y2="122.79"/></g><g id="LWPOLYLINE-15" data-name="LWPOLYLINE"><path class="cls-4" d="M468.49,133.7a10.56,10.56,0,0,0,14.91,1,9.92,9.92,0,0,0,1-1"/></g><g id="LWPOLYLINE-16" data-name="LWPOLYLINE"><line class="cls-4" x1="505.08" y1="135.37" x2="505.08" y2="122.79"/></g><g id="LWPOLYLINE-17" data-name="LWPOLYLINE"><line class="cls-4" x1="492.84" y1="135.37" x2="492.84" y2="122.79"/></g><g id="LWPOLYLINE-18" data-name="LWPOLYLINE"><path class="cls-4" d="M491,133.7a10.56,10.56,0,0,0,14.91,1,9.92,9.92,0,0,0,1-1"/></g><g id="LINE"><line class="cls-4" x1="108.02" y1="314.73" x2="51.77" y2="314.73"/></g><g id="LINE-2" data-name="LINE"><line class="cls-4" x1="108.02" y1="239.73" x2="51.77" y2="239.73"/></g><g id="LWPOLYLINE-19" data-name="LWPOLYLINE"><rect class="cls-4" x="54.31" y="297.51" width="24.31" height="14.68"/></g><g id="LWPOLYLINE-20" data-name="LWPOLYLINE"><rect class="cls-4" x="81.17" y="297.51" width="24.31" height="14.68"/></g><g id="LWPOLYLINE-21" data-name="LWPOLYLINE"><rect class="cls-4" x="53.09" y="37.55" width="31.81" height="14.68"/></g><g id="LINE-3" data-name="LINE"><line class="cls-4" x1="121.8" y1="35" x2="50.55" y2="35"/></g><g id="LINE-4" data-name="LINE"><line class="cls-4" x1="121.8" y1="110" x2="50.55" y2="110"/></g><g id="LWPOLYLINE-22" data-name="LWPOLYLINE"><rect class="cls-4" x="87.45" y="37.55" width="31.81" height="14.68"/></g><g id="LWPOLYLINE-23" data-name="LWPOLYLINE"><rect class="cls-2" x="295.87" y="324.92" width="10.34" height="37.84"/></g><g id="LWPOLYLINE-24" data-name="LWPOLYLINE"><polygon class="cls-2" points="120.89 156.64 122.8 155.32 122.59 155.02 122.44 154.45 122.7 153.93 124.19 152.68 125.4 151.67 126.48 150.83 127.94 149.75 129.3 148.81 129.84 148.43 130.3 148.14 130.88 147.77 131.53 147.36 133.08 146.43 134.55 145.6 135.72 144.98 136.31 144.92 136.78 145.26 136.99 145.56 139.43 143.89 152.29 162.61 133.75 175.35 120.89 156.64"/></g><g id="LINE-6" data-name="LINE"><line class="cls-4" x1="149.86" y1="164.28" x2="136.99" y2="145.57"/></g><g id="LINE-7" data-name="LINE"><line class="cls-4" x1="122.8" y1="155.32" x2="135.66" y2="174.04"/></g><g id="ARC"><path class="cls-4" d="M147,160.11a40.07,40.07,0,0,0-14.19,9.76"/></g><g id="ARC-2" data-name="ARC"><path class="cls-4" d="M148.9,162.89a100.59,100.59,0,0,0-14.19,9.76"/></g><line class="cls-4" x1="51.77" y1="292.58" x2="108.02" y2="292.58"/><line class="cls-4" x1="51.77" y1="295.01" x2="108.02" y2="295.01"/><g id="LWPOLYLINE-25" data-name="LWPOLYLINE"><polygon class="cls-2" points="702.31 213.72 601.06 213.72 601.06 179.97 667 179.97 667 153.78 702.31 153.78 702.31 213.72"/></g><g id="LINE-8" data-name="LINE"><line class="cls-4" x1="636.37" y1="209.04" x2="636.37" y2="180.95"/></g><g id="LWPOLYLINE-26" data-name="LWPOLYLINE"><polyline class="cls-4" points="702.31 175.91 697.62 175.91 697.62 209.04 605.74 209.04 605.74 179.97"/></g><g id="ARC-3" data-name="ARC"><path class="cls-4" d="M635.43,204.54a91.8,91.8,0,0,0-28.75,0"/></g><g id="ARC-4" data-name="ARC"><path class="cls-4" d="M636.37,205.52a1.24,1.24,0,0,0-.94-1"/></g><g id="ARC-5" data-name="ARC"><path class="cls-4" d="M606.68,204.54a1.24,1.24,0,0,0-.94,1"/></g><g id="ARC-6" data-name="ARC"><path class="cls-4" d="M636.37,181a1.24,1.24,0,0,0-.94-1"/></g><g id="ARC-7" data-name="ARC"><path class="cls-4" d="M637.31,180a1.24,1.24,0,0,0-.94,1"/></g><g id="ARC-8" data-name="ARC"><path class="cls-4" d="M606.68,180a1.24,1.24,0,0,0-.94,1"/></g><g id="LINE-9" data-name="LINE"><line class="cls-4" x1="666.99" y1="209.04" x2="666.99" y2="179.97"/></g><g id="ARC-9" data-name="ARC"><path class="cls-4" d="M666.06,204.54a91.8,91.8,0,0,0-28.75,0"/></g><g id="ARC-10" data-name="ARC"><path class="cls-4" d="M667,205.52a1.22,1.22,0,0,0-.93-1"/></g><g id="ARC-11" data-name="ARC"><path class="cls-4" d="M637.31,204.54a1.24,1.24,0,0,0-.94,1"/></g><g id="ARC-12" data-name="ARC"><path class="cls-4" d="M667,205.52a1.22,1.22,0,0,0-.93-1"/></g><g id="ARC-13" data-name="ARC"><path class="cls-4" d="M696.68,204.54a91.8,91.8,0,0,0-28.75,0"/></g><g id="ARC-14" data-name="ARC"><path class="cls-4" d="M697.62,205.52a1.24,1.24,0,0,0-.94-1"/></g><g id="ARC-15" data-name="ARC"><path class="cls-4" d="M667.93,204.54a1.24,1.24,0,0,0-.94,1"/></g><g id="ARC-16" data-name="ARC"><path class="cls-4" d="M636.37,205.52a1.24,1.24,0,0,0-.94-1"/></g><g id="ARC-17" data-name="ARC"><path class="cls-4" d="M606.68,204.54a1.24,1.24,0,0,0-.94,1"/></g><g id="ARC-18" data-name="ARC"><path class="cls-4" d="M636.37,181a1.24,1.24,0,0,0-.94-1"/></g><g id="ARC-19" data-name="ARC"><path class="cls-4" d="M637.31,180a1.24,1.24,0,0,0-.94,1"/></g><g id="ARC-20" data-name="ARC"><path class="cls-4" d="M606.68,180a1.24,1.24,0,0,0-.94,1"/></g><g id="ARC-21" data-name="ARC"><path class="cls-4" d="M667,205.52a1.22,1.22,0,0,0-.93-1"/></g><g id="ARC-22" data-name="ARC"><path class="cls-4" d="M637.31,204.54a1.24,1.24,0,0,0-.94,1"/></g><g id="ARC-23" data-name="ARC"><path class="cls-4" d="M667,205.52a1.22,1.22,0,0,0-.93-1"/></g><g id="ARC-24" data-name="ARC"><path class="cls-4" d="M697.62,205.52a1.24,1.24,0,0,0-.94-1"/></g><g id="ARC-25" data-name="ARC"><path class="cls-4" d="M667.93,204.54a1.24,1.24,0,0,0-.94,1"/></g><g id="LWPOLYLINE-27" data-name="LWPOLYLINE"><polygon class="cls-2" points="680.6 105.54 710.6 106.51 710.57 133.23 680.56 134.13 680.6 105.54"/></g><g id="LWPOLYLINE-28" data-name="LWPOLYLINE"><polygon class="cls-2" points="680.6 54.82 710.6 55.8 710.57 82.52 680.56 83.42 680.6 54.82"/></g><g id="LINE-11" data-name="LINE"><line class="cls-4" x1="680.59" y1="109.52" x2="710.59" y2="110.5"/></g><g id="LINE-12" data-name="LINE"><line class="cls-4" x1="706.38" y1="110.37" x2="706.35" y2="129.37"/></g><g id="LINE-13" data-name="LINE"><line class="cls-4" x1="710.57" y1="129.25" x2="680.57" y2="130.15"/></g><g id="LINE-14" data-name="LINE"><line class="cls-4" x1="680.59" y1="58.81" x2="710.59" y2="59.79"/></g><g id="LINE-15" data-name="LINE"><line class="cls-4" x1="706.38" y1="59.66" x2="706.35" y2="78.65"/></g><g id="LINE-16" data-name="LINE"><line class="cls-4" x1="710.57" y1="78.53" x2="680.57" y2="79.43"/></g><g id="CIRCLE"><path class="cls-2" d="M697.9,94.13A5.15,5.15,0,1,1,703,99.27a5.14,5.14,0,0,1-5.14-5.14Z"/></g><path class="cls-5" d="M691.89,199.35s6.86-5.27,5.57-7.93S687,198.66,687,198.66s-4,3.9-2,4.64S691.89,199.35,691.89,199.35Z"/><path class="cls-5" d="M680.81,196.71s-7.08,4.37-5.76,6.29,9.44-3.56,9.44-3.56,7.57-3.83,5.54-5.7S680.81,196.71,680.81,196.71Z"/><path class="cls-5" d="M622.12,202.67s-.74-3.62-8.34-5.2-7.67-1.11-8-.31,2.25,4.2,9.2,5.22S621.81,203.93,622.12,202.67Z"/><g id="LWPOLYLINE-29" data-name="LWPOLYLINE"><path class="cls-2" d="M571.75,74.83H553.94l.29-5.81A3.75,3.75,0,0,1,558,65.45h9.74A3.76,3.76,0,0,1,571.46,69Z"/></g><g id="LWPOLYLINE-30" data-name="LWPOLYLINE"><path class="cls-4" d="M555.35,74.83l.28-5.74A2.35,2.35,0,0,1,558,66.86h9.74a2.34,2.34,0,0,1,2.34,2.23l.29,5.74"/></g><g id="LWPOLYLINE-31" data-name="LWPOLYLINE"><path class="cls-2" d="M574.34,96.44v17.82l5.82-.29a3.76,3.76,0,0,0,3.56-3.75v-9.74a3.74,3.74,0,0,0-3.56-3.74Z"/></g><g id="LWPOLYLINE-32" data-name="LWPOLYLINE"><path class="cls-4" d="M574.34,112.85l5.75-.29a2.34,2.34,0,0,0,2.22-2.34v-9.74a2.34,2.34,0,0,0-2.22-2.34l-5.75-.29"/></g><g id="LWPOLYLINE-33" data-name="LWPOLYLINE"><path class="cls-2" d="M574.34,76.11V93.92l5.82-.29a3.75,3.75,0,0,0,3.56-3.74V80.15a3.76,3.76,0,0,0-3.56-3.75Z"/></g><g id="LWPOLYLINE-34" data-name="LWPOLYLINE"><path class="cls-4" d="M574.34,92.51l5.75-.28a2.35,2.35,0,0,0,2.22-2.34V80.15a2.36,2.36,0,0,0-2.22-2.35l-5.75-.28"/></g><g id="LWPOLYLINE-35" data-name="LWPOLYLINE"><path class="cls-2" d="M574.34,116.78v17.81l5.82-.29a3.75,3.75,0,0,0,3.56-3.74v-9.74a3.76,3.76,0,0,0-3.56-3.75Z"/></g><g id="LWPOLYLINE-36" data-name="LWPOLYLINE"><path class="cls-4" d="M574.34,133.18l5.75-.28a2.35,2.35,0,0,0,2.22-2.34v-9.74a2.36,2.36,0,0,0-2.22-2.35l-5.75-.28"/></g><g id="LWPOLYLINE-37" data-name="LWPOLYLINE"><path class="cls-2" d="M551.81,114.26V96.44l-5.81.3a3.73,3.73,0,0,0-3.56,3.74v9.74A3.75,3.75,0,0,0,546,114Z"/></g><g id="LWPOLYLINE-38" data-name="LWPOLYLINE"><path class="cls-4" d="M551.81,97.85l-5.74.29a2.34,2.34,0,0,0-2.23,2.34v9.74a2.34,2.34,0,0,0,2.23,2.34l5.74.29"/></g><g id="LWPOLYLINE-39" data-name="LWPOLYLINE"><path class="cls-2" d="M551.81,134.59V116.78l-5.81.29a3.75,3.75,0,0,0-3.56,3.75v9.74A3.75,3.75,0,0,0,546,134.3Z"/></g><g id="LWPOLYLINE-40" data-name="LWPOLYLINE"><path class="cls-4" d="M551.81,118.19l-5.74.28a2.36,2.36,0,0,0-2.23,2.35v9.74a2.36,2.36,0,0,0,2.23,2.34l5.74.28"/></g><g id="LWPOLYLINE-41" data-name="LWPOLYLINE"><path class="cls-2" d="M551.81,93.92V76.11L546,76.4a3.75,3.75,0,0,0-3.56,3.75v9.74A3.75,3.75,0,0,0,546,93.63Z"/></g><g id="LWPOLYLINE-42" data-name="LWPOLYLINE"><path class="cls-4" d="M551.81,77.52l-5.74.28a2.36,2.36,0,0,0-2.23,2.35v9.74a2.35,2.35,0,0,0,2.23,2.34l5.74.28"/></g><g id="LWPOLYLINE-43" data-name="LWPOLYLINE"><path class="cls-2" d="M571.75,136.25H553.94l.29,5.81a3.75,3.75,0,0,0,3.74,3.56h9.74a3.75,3.75,0,0,0,3.75-3.56Z"/></g><g id="LWPOLYLINE-44" data-name="LWPOLYLINE"><path class="cls-4" d="M555.35,136.25l.28,5.74a2.35,2.35,0,0,0,2.34,2.23h9.74a2.34,2.34,0,0,0,2.34-2.23l.29-5.74"/></g><g id="LWPOLYLINE-45" data-name="LWPOLYLINE"><rect class="cls-2" x="548.78" y="71.6" width="28.12" height="67.5"/></g><g id="LWPOLYLINE-46" data-name="LWPOLYLINE"><rect class="cls-2" x="614.83" y="24.41" width="72.24" height="15"/></g><rect class="cls-2" x="628.5" y="27.11" width="44.9" height="1.76"/><path class="cls-5" d="M630.3,88.51s-11.2.65-10.81,7.49,11.64,18.89,20.27,22.66,9.72-8.21,10-12,2.12-15.53-8.66-18.35C641.05,88.29,638.22,87.66,630.3,88.51Z"/><path class="cls-5" d="M652.13,115.08s9.94,1.77,7.17,11.82-11,27.27-21.65,30.8-16.67-21-16.67-21-4.76-12.76,9.29-18.17S652.13,115.08,652.13,115.08Z"/><g id="LWPOLYLINE-47" data-name="LWPOLYLINE"><polyline class="cls-6" points="727.71 95.36 722.08 95.36 722.08 35.36 727.71 35.36"/></g><g id="LWPOLYLINE-48" data-name="LWPOLYLINE"><polyline class="cls-6" points="727.71 189.11 722.08 189.11 722.08 129.11 727.71 129.11"/></g><g id="LWPOLYLINE-49" data-name="LWPOLYLINE"><polyline class="cls-6" points="11.45 63.01 17.07 63.01 17.07 149.26 11.45 149.26"/></g><g id="LWPOLYLINE-50" data-name="LWPOLYLINE"><polyline class="cls-6" points="11.45 214.89 17.07 214.89 17.07 288.01 11.45 288.01"/></g><g id="LWPOLYLINE-51" data-name="LWPOLYLINE"><rect class="cls-7" x="730.23" y="38.17" width="1.23" height="25.66"/></g><g id="LWPOLYLINE-52" data-name="LWPOLYLINE"><rect class="cls-7" x="730.23" y="66.88" width="1.23" height="25.66"/></g><g id="LWPOLYLINE-53" data-name="LWPOLYLINE"><rect class="cls-7" x="730.23" y="131.92" width="1.23" height="25.66"/></g><g id="LWPOLYLINE-54" data-name="LWPOLYLINE"><rect class="cls-7" x="730.23" y="160.63" width="1.23" height="25.66"/></g><g id="LWPOLYLINE-55" data-name="LWPOLYLINE"><polygon class="cls-7" points="8.93 91.18 8.93 64.89 7.7 64.89 7.7 65.83 7.7 90.47 7.7 91.18 8.93 91.18"/></g><g id="LWPOLYLINE-56" data-name="LWPOLYLINE"><polygon class="cls-7" points="8.93 149.26 8.93 93.75 7.7 93.75 7.7 94.46 7.7 149.26 8.93 149.26"/></g><g id="LWPOLYLINE-57" data-name="LWPOLYLINE"><polygon class="cls-7" points="8.93 238.36 8.93 217.7 7.7 217.7 7.7 218.64 7.7 237.66 7.7 238.36 8.93 238.36"/></g><g id="LWPOLYLINE-58" data-name="LWPOLYLINE"><polygon class="cls-7" points="8.93 285.2 8.93 240.94 7.7 240.94 7.7 241.65 7.7 285.2 8.93 285.2"/></g><line class="cls-7" x1="11.45" y1="65.65" x2="11.45" y2="151.65"/><line class="cls-7" x1="11.45" y1="198.67" x2="11.45" y2="284.67"/><line class="cls-7" x1="727.71" y1="39.11" x2="727.71" y2="91.61"/><line class="cls-7" x1="727.71" y1="132.86" x2="727.71" y2="185.36"/><g id="LWPOLYLINE-59" data-name="LWPOLYLINE"><polygon class="cls-8" points="730.23 39.11 730.23 38.17 731.46 38.17 731.46 39.11 732.4 39.11 732.4 37.23 736.15 37.23 736.15 36.29 732.4 36.29 732.4 35.36 727.71 35.36 727.71 39.11 730.23 39.11"/></g><g id="LWPOLYLINE-60" data-name="LWPOLYLINE"><polyline class="cls-8" points="734.74 64.89 734.74 65.83 732.4 65.83 732.4 67.58 731.46 67.58 731.46 66.88 730.23 66.88 730.23 67.58 727.71 67.58 727.71 65.71 728.18 65.71 728.18 65 727.71 65 727.71 63.13 730.23 63.13 730.23 63.82 731.46 63.83 731.46 63.13 732.4 63.13 732.4 64.89 734.74 64.89"/></g><g id="LWPOLYLINE-61" data-name="LWPOLYLINE"><polygon class="cls-8" points="732.4 95.36 732.4 94.42 736.15 94.42 736.15 93.48 732.4 93.48 732.4 91.61 731.46 91.61 731.46 92.54 730.23 92.54 730.23 91.61 727.71 91.61 727.71 95.36 732.4 95.36"/></g><g id="LWPOLYLINE-62" data-name="LWPOLYLINE"><polygon class="cls-8" points="730.23 132.86 730.23 131.92 731.46 131.92 731.46 132.86 732.4 132.86 732.4 130.98 736.15 130.98 736.15 130.04 732.4 130.04 732.4 129.11 727.71 129.11 727.71 132.86 730.23 132.86"/></g><g id="LWPOLYLINE-63" data-name="LWPOLYLINE"><polyline class="cls-8" points="734.74 158.64 734.74 159.57 732.4 159.57 732.4 161.33 731.46 161.33 731.46 160.63 730.23 160.63 730.23 161.33 727.71 161.33 727.71 159.46 728.18 159.46 728.18 158.75 727.71 158.75 727.71 156.88 730.23 156.88 730.23 157.57 731.46 157.58 731.46 156.88 732.4 156.88 732.4 158.64 734.74 158.64"/></g><g id="LWPOLYLINE-64" data-name="LWPOLYLINE"><polygon class="cls-8" points="732.4 189.11 732.4 188.17 736.15 188.17 736.15 187.23 732.4 187.23 732.4 185.36 731.46 185.36 731.46 186.29 730.23 186.29 730.23 185.36 727.71 185.36 727.71 189.11 732.4 189.11"/></g><g id="LWPOLYLINE-65" data-name="LWPOLYLINE"><polygon class="cls-8" points="11.45 152.07 11.45 148.32 8.93 148.32 8.93 149.26 7.7 149.26 7.7 148.32 6.76 148.32 6.76 150.2 6.76 152.07 11.45 152.07"/></g><g id="LWPOLYLINE-66" data-name="LWPOLYLINE"><polygon class="cls-8" points="11.45 62.08 11.45 65.83 8.93 65.83 8.93 64.89 7.7 64.89 7.7 65.83 6.76 65.83 6.76 63.95 6.76 62.08 11.45 62.08"/></g><g id="LWPOLYLINE-67" data-name="LWPOLYLINE"><polygon class="cls-8" points="10.1 94.46 10.1 93.52 10.98 93.52 10.98 92.35 11.45 92.35 11.45 90.47 8.93 90.47 8.93 91.18 7.7 91.18 7.7 90.47 6.76 90.47 6.76 91.18 6.76 93.75 6.76 94.46 7.7 94.46 7.7 93.75 8.93 93.75 8.93 94.46 10.1 94.46"/></g><g id="LWPOLYLINE-68" data-name="LWPOLYLINE"><polygon class="cls-8" points="11.45 288.01 11.45 284.26 8.93 284.26 8.93 285.2 7.7 285.2 7.7 284.26 6.76 284.26 6.76 286.14 6.76 288.01 11.45 288.01"/></g><g id="LWPOLYLINE-69" data-name="LWPOLYLINE"><polygon class="cls-8" points="11.45 214.89 11.45 218.64 8.93 218.64 8.93 217.7 7.7 217.7 7.7 218.64 6.76 218.64 6.76 216.76 6.76 214.89 11.45 214.89"/></g><g id="LWPOLYLINE-70" data-name="LWPOLYLINE"><polygon class="cls-8" points="10.1 241.65 10.1 240.71 10.98 240.71 10.98 239.54 11.45 239.54 11.45 237.66 8.93 237.66 8.93 238.36 7.7 238.36 7.7 237.66 6.76 237.66 6.76 238.36 6.76 240.94 6.76 241.65 7.7 241.65 7.7 240.94 8.93 240.94 8.93 241.65 10.1 241.65"/></g><g id="LWPOLYLINE-71" data-name="LWPOLYLINE"><polyline class="cls-6" points="727.71 95.36 744.58 95.36 744.58 35.36 727.71 35.36"/></g><g id="LWPOLYLINE-72" data-name="LWPOLYLINE"><polyline class="cls-6" points="727.71 189.11 744.58 189.11 744.58 129.11 727.71 129.11"/></g><g id="LWPOLYLINE-73" data-name="LWPOLYLINE"><polyline class="cls-6" points="6.76 62.08 0.2 62.08 0.2 152.07 6.76 152.07"/></g><g id="LWPOLYLINE-74" data-name="LWPOLYLINE"><polyline class="cls-6" points="6.76 214.89 0.2 214.89 0.2 288.01 6.76 288.01"/></g><g id="LWPOLYLINE-75" data-name="LWPOLYLINE"><rect class="cls-9" x="178.71" y="87.86" width="33.75" height="1.64"/></g><g id="LWPOLYLINE-76" data-name="LWPOLYLINE"><rect class="cls-9" x="279.58" y="58.32" width="1.64" height="33.75"/></g><g id="LWPOLYLINE-77" data-name="LWPOLYLINE"><rect class="cls-9" x="249.57" y="239.73" width="1.64" height="28.14"/></g><g id="LWPOLYLINE-78" data-name="LWPOLYLINE"><rect class="cls-9" x="195.58" y="132.62" width="28.13" height="1.64"/></g><g id="LWPOLYLINE-79" data-name="LWPOLYLINE"><rect class="cls-9" x="167.46" y="132.62" width="28.13" height="1.64"/></g><g id="LWPOLYLINE-80" data-name="LWPOLYLINE"><rect class="cls-9" x="195.67" y="186.53" width="33.75" height="1.64"/></g><g id="LWPOLYLINE-81" data-name="LWPOLYLINE"><rect class="cls-10" x="211.2" y="369.08" width="33.75" height="2.11" transform="translate(-194.93 269.68) rotate(-45)"/></g><g id="LWPOLYLINE-82" data-name="LWPOLYLINE"><rect class="cls-10" x="262.1" y="107.61" width="2.11" height="33.75" transform="translate(-10.95 222.54) rotate(-45)"/></g><g id="LWPOLYLINE-83" data-name="LWPOLYLINE"><rect class="cls-9" x="206.76" y="203.54" width="33.75" height="2.11" transform="translate(-79.17 218.06) rotate(-45)"/></g><g id="LWPOLYLINE-84" data-name="LWPOLYLINE"><rect class="cls-9" x="149.97" y="231.29" width="33.75" height="1.64"/></g><g id="LWPOLYLINE-85" data-name="LWPOLYLINE"><rect class="cls-9" x="375.21" y="190.75" width="33.75" height="1.64"/></g><g id="LWPOLYLINE-86" data-name="LWPOLYLINE"><rect class="cls-9" x="249.57" y="267.87" width="1.64" height="28.11"/></g><g id="LWPOLYLINE-87" data-name="LWPOLYLINE"><rect class="cls-9" x="292.36" y="239.73" width="1.64" height="28.14"/></g><g id="LWPOLYLINE-88" data-name="LWPOLYLINE"><rect class="cls-9" x="292.36" y="267.87" width="1.64" height="28.11"/></g><g id="LWPOLYLINE-89" data-name="LWPOLYLINE"><rect class="cls-9" x="178.71" y="87.86" width="33.75" height="1.64"/></g><g id="LWPOLYLINE-90" data-name="LWPOLYLINE"><rect class="cls-9" x="279.58" y="58.32" width="1.64" height="33.75"/></g><g id="LWPOLYLINE-91" data-name="LWPOLYLINE"><rect class="cls-9" x="249.57" y="239.73" width="1.64" height="28.14"/></g><g id="LWPOLYLINE-92" data-name="LWPOLYLINE"><rect class="cls-9" x="195.58" y="132.62" width="28.13" height="1.64"/></g><g id="LWPOLYLINE-93" data-name="LWPOLYLINE"><rect class="cls-9" x="167.46" y="132.62" width="28.13" height="1.64"/></g><g id="LWPOLYLINE-94" data-name="LWPOLYLINE"><rect class="cls-9" x="195.67" y="186.53" width="33.75" height="1.64"/></g><g id="LWPOLYLINE-95" data-name="LWPOLYLINE"><rect class="cls-10" x="206.76" y="203.54" width="33.75" height="2.11" transform="translate(-79.17 218.06) rotate(-45)"/></g><g id="LWPOLYLINE-96" data-name="LWPOLYLINE"><rect class="cls-9" x="149.97" y="231.29" width="33.75" height="1.64"/></g><g id="LWPOLYLINE-97" data-name="LWPOLYLINE"><rect class="cls-9" x="375.21" y="190.75" width="33.75" height="1.64"/></g><g id="LWPOLYLINE-98" data-name="LWPOLYLINE"><rect class="cls-9" x="249.57" y="267.87" width="1.64" height="28.11"/></g><g id="LWPOLYLINE-99" data-name="LWPOLYLINE"><rect class="cls-9" x="292.36" y="239.73" width="1.64" height="28.14"/></g><g id="LWPOLYLINE-100" data-name="LWPOLYLINE"><rect class="cls-9" x="292.36" y="267.87" width="1.64" height="28.11"/></g><g id="ARC-26" data-name="ARC"><path class="cls-9" d="M239.26,357.46a34.26,34.26,0,0,0-22.37-8.39"/></g><g id="ARC-27" data-name="ARC"><path class="cls-9" d="M250.48,113.3a34.3,34.3,0,0,0-8.4,22.37"/></g><g id="ARC-28" data-name="ARC"><path class="cls-9" d="M212.44,217.28a34.27,34.27,0,0,0,22.38,8.39"/></g><g id="ARC-29" data-name="ARC"><path class="cls-9" d="M212.44,217.28a34.27,34.27,0,0,0,22.38,8.39"/></g><g id="LWPOLYLINE-101" data-name="LWPOLYLINE"><path class="cls-11" d="M727.71,93.48l-9.93-26.31a28.11,28.11,0,0,1,9.93-1.81"/></g><g id="LWPOLYLINE-102" data-name="LWPOLYLINE"><path class="cls-11" d="M727.71,37.23l-9.93,26.32a28.33,28.33,0,0,0,9.93,1.81"/></g><g id="LWPOLYLINE-103" data-name="LWPOLYLINE"><path class="cls-11" d="M727.71,187.23l-9.93-26.31a28.11,28.11,0,0,1,9.93-1.81"/></g><g id="LWPOLYLINE-104" data-name="LWPOLYLINE"><path class="cls-11" d="M727.71,131l-9.93,26.32a28.33,28.33,0,0,0,9.93,1.81"/></g><g id="LWPOLYLINE-105" data-name="LWPOLYLINE"><rect class="cls-12" x="386.22" y="103.23" width="0.94" height="0.56"/></g><g id="LWPOLYLINE-106" data-name="LWPOLYLINE"><rect class="cls-7" x="146.22" y="297.62" width="58.13" height="30.94"/></g><g id="LWPOLYLINE-107" data-name="LWPOLYLINE"><path class="cls-7" d="M199.31,312.23v-5.82a4.69,4.69,0,0,0-4.69-4.69H156a4.69,4.69,0,0,0-4.69,4.69v12.42a4.69,4.69,0,0,0,4.69,4.69h38.67a4.69,4.69,0,0,0,4.69-4.69V313"/></g><g id="LWPOLYLINE-108" data-name="LWPOLYLINE"><rect class="cls-12" x="386.22" y="103.1" width="0.94" height="0.83"/></g><g id="ARC-30" data-name="ARC"><path class="cls-7" d="M196.82,312.22a3.15,3.15,0,0,0-3.48-2.85,3.23,3.23,0,0,0-2.72,3.65,3.16,3.16,0,0,0,3.48,2.86,3.22,3.22,0,0,0,2.73-2.87"/></g><g id="LWPOLYLINE-109" data-name="LWPOLYLINE"><path class="cls-7" d="M193.72,313h10.63v-.78H193.72a.39.39,0,0,0-.37.39A.38.38,0,0,0,193.72,313Z"/></g><g id="LWPOLYLINE-110" data-name="LWPOLYLINE"><rect class="cls-12" x="352.27" y="103.91" width="0.83" height="33.77"/></g><g id="LWPOLYLINE-111" data-name="LWPOLYLINE"><rect class="cls-7" x="283.01" y="103.06" width="69.28" height="34.67"/></g><g id="LWPOLYLINE-112" data-name="LWPOLYLINE"><rect class="cls-12" x="352.29" y="103.12" width="34.01" height="0.79"/></g><g id="ARC-31" data-name="ARC"><path class="cls-7" d="M380.69,120.41a3.25,3.25,0,1,1,0-.79"/></g><g id="LWPOLYLINE-113" data-name="LWPOLYLINE"><path class="cls-7" d="M377.44,119.62h10.17v.78H377.44a.38.38,0,0,1-.39-.39A.39.39,0,0,1,377.44,119.62Z"/></g><g id="LWPOLYLINE-114" data-name="LWPOLYLINE"><polyline class="cls-7" points="386.98 104 386.98 137.82 352.29 137.82 352.29 104"/></g><g id="LWPOLYLINE-115" data-name="LWPOLYLINE"><rect class="cls-7" x="286.76" y="108.42" width="61.05" height="24.38" rx="4.69"/></g><g id="ARC-32" data-name="ARC"><path class="cls-12" d="M289.88,120.21a3.29,3.29,0,1,1,0,.79"/></g><g id="LWPOLYLINE-116" data-name="LWPOLYLINE"><path class="cls-12" d="M293.14,121H283v-.78h10.17a.39.39,0,1,1,0,.78Z"/></g><g id="LINE-17" data-name="LINE"><line class="cls-12" x1="327.75" y1="294.81" x2="327.75" y2="269.5"/></g><g id="LINE-18" data-name="LINE"><line class="cls-12" x1="327.75" y1="269.5" x2="299.86" y2="269.5"/></g><g id="LINE-19" data-name="LINE"><line class="cls-12" x1="299.86" y1="269.5" x2="299.86" y2="294.81"/></g><g id="LINE-20" data-name="LINE"><line class="cls-12" x1="299.86" y1="294.81" x2="327.75" y2="294.81"/></g><g id="LINE-21" data-name="LINE"><line class="cls-12" x1="327.75" y1="266.22" x2="327.75" y2="240.9"/></g><g id="LINE-22" data-name="LINE"><line class="cls-12" x1="327.75" y1="240.9" x2="299.86" y2="240.9"/></g><g id="LINE-23" data-name="LINE"><line class="cls-12" x1="299.86" y1="240.9" x2="299.86" y2="266.22"/></g><g id="LINE-24" data-name="LINE"><line class="cls-12" x1="299.86" y1="266.22" x2="327.75" y2="266.22"/></g><g id="LINE-25" data-name="LINE"><line class="cls-12" x1="299.86" y1="240.9" x2="299.86" y2="266.22"/></g><g id="LWPOLYLINE-117" data-name="LWPOLYLINE"><polygon class="cls-7" points="421.78 82.7 398.65 82.7 398.65 29.73 515.77 29.73 515.77 53.38 421.78 53.38 421.78 82.7"/></g><g id="LWPOLYLINE-118" data-name="LWPOLYLINE"><rect class="cls-12" x="398.34" y="116.22" width="23.44" height="24.3"/></g><g id="LWPOLYLINE-119" data-name="LWPOLYLINE"><rect class="cls-12" x="398.65" y="82.69" width="23.13" height="33.53"/></g><g id="LWPOLYLINE-120" data-name="LWPOLYLINE"><rect class="cls-12" x="457.21" y="94.2" width="59.53" height="37.5"/></g><g id="CIRCLE-2" data-name="CIRCLE"><path class="cls-7" d="M463.7,47.34a.77.77,0,1,1-.88.77.83.83,0,0,1,.88-.77Z"/></g><g id="CIRCLE-3" data-name="CIRCLE"><path class="cls-7" d="M469.2,47.34a.77.77,0,1,1-.88.77.84.84,0,0,1,.88-.77Z"/></g><g id="CIRCLE-4" data-name="CIRCLE"><path class="cls-7" d="M469.2,44.2a.77.77,0,1,1-.88.76.83.83,0,0,1,.88-.76Z"/></g><g id="CIRCLE-5" data-name="CIRCLE"><path class="cls-7" d="M466.45,44.2a.77.77,0,1,1-.88.76.83.83,0,0,1,.88-.76Z"/></g><g id="CIRCLE-6" data-name="CIRCLE"><path class="cls-7" d="M463.7,44.2a.77.77,0,1,1,0,1.53.77.77,0,1,1,0-1.53Z"/></g><g id="LWPOLYLINE-121" data-name="LWPOLYLINE"><path class="cls-7" d="M449.47,34.09V50.85a.45.45,0,0,0,.47.42h33a.45.45,0,0,0,.47-.42V34.09a.45.45,0,0,0-.47-.42h-33A.45.45,0,0,0,449.47,34.09Z"/></g><ellipse class="cls-7" cx="477.37" cy="38.23" rx="1.66" ry="1.45"/><path class="cls-7" d="M472.35,41.72V35.3a.66.66,0,0,1,.71-.61h8.62a.67.67,0,0,1,.72.61v6.42a.06.06,0,0,1-.06.05h-9.93A.06.06,0,0,1,472.35,41.72Z"/><ellipse class="cls-7" cx="466.45" cy="38.23" rx="1.66" ry="1.45"/><path class="cls-7" d="M461.42,41.72V35.3a.67.67,0,0,1,.72-.61h8.62a.66.66,0,0,1,.71.61v6.42a.06.06,0,0,1-.06.05h-9.93A.06.06,0,0,1,461.42,41.72Z"/><ellipse class="cls-7" cx="455.53" cy="38.23" rx="1.66" ry="1.45"/><path class="cls-7" d="M450.5,41.72V35.3a.66.66,0,0,1,.71-.61h8.63a.66.66,0,0,1,.71.61v6.42a.06.06,0,0,1-.06.05h-9.93A.06.06,0,0,1,450.5,41.72Z"/><ellipse class="cls-7" cx="455.53" cy="46.54" rx="1.66" ry="1.45"/><path class="cls-7" d="M460.55,43.05v6.42a.66.66,0,0,1-.71.6h-8.63a.66.66,0,0,1-.71-.6V43.05a.06.06,0,0,1,.06,0h9.93A.06.06,0,0,1,460.55,43.05Z"/><ellipse class="cls-7" cx="477.37" cy="46.54" rx="1.66" ry="1.45"/><path class="cls-7" d="M482.4,43.05v6.42a.67.67,0,0,1-.72.6h-8.62a.66.66,0,0,1-.71-.6V43.05s0,0,.06,0h9.93A.06.06,0,0,1,482.4,43.05Z"/><g id="LWPOLYLINE-122" data-name="LWPOLYLINE"><polyline class="cls-7" points="513.88 112.13 513.88 97.1 485.7 97.1 485.7 112.13 513.88 112.13"/></g><rect class="cls-12" x="496.63" y="113.34" width="3.43" height="1.44"/><path class="cls-12" d="M500.82,113.48a.87.87,0,0,0-.33-.33v-7.23a.52.52,0,1,0-1,0v7.23a1,1,0,1,0,1.37.33Z"/><g id="LWPOLYLINE-123" data-name="LWPOLYLINE"><line class="cls-13" x1="457.21" y1="122.11" x2="516.69" y2="122.11"/></g><g id="LWPOLYLINE-124" data-name="LWPOLYLINE"><polyline class="cls-14" points="411.18 82.7 411.18 42.54 515.77 42.54"/></g><g id="LWPOLYLINE-125" data-name="LWPOLYLINE"><line class="cls-14" x1="188.64" y1="173.4" x2="234.82" y2="173.4"/></g><g id="LWPOLYLINE-126" data-name="LWPOLYLINE"><line class="cls-14" x1="158.88" y1="147.39" x2="234.82" y2="147.39"/></g><g id="LWPOLYLINE-127" data-name="LWPOLYLINE"><polyline class="cls-14" points="168.72 87.86 168.72 43.44 222.45 43.44 222.45 87.86"/></g><g id="LWPOLYLINE-128" data-name="LWPOLYLINE"><line class="cls-14" x1="236.46" y1="301.72" x2="236.46" y2="233.99"/></g><line class="cls-7" x1="481.27" y1="94.63" x2="481.27" y2="95.29"/><line class="cls-15" x1="481.27" y1="96.53" x2="481.27" y2="110.72"/><polyline class="cls-7" points="481.27 111.33 481.27 112 480.61 112"/><line class="cls-16" x1="479.27" y1="112" x2="463.96" y2="112"/><polyline class="cls-7" points="463.29 112 462.63 112 462.63 111.33"/><line class="cls-15" x1="462.63" y1="110.1" x2="462.63" y2="95.91"/><line class="cls-7" x1="462.63" y1="95.29" x2="462.63" y2="94.63"/><g id="LINE-26" data-name="LINE"><line class="cls-8" x1="230.87" y1="166.88" x2="230.87" y2="179.93"/></g><g id="LINE-27" data-name="LINE"><line class="cls-8" x1="228.45" y1="166.88" x2="228.45" y2="179.93"/></g><g id="LINE-28" data-name="LINE"><line class="cls-8" x1="226.03" y1="166.88" x2="226.03" y2="179.93"/></g><g id="LINE-29" data-name="LINE"><line class="cls-8" x1="223.61" y1="166.88" x2="223.61" y2="179.93"/></g><g id="LINE-30" data-name="LINE"><line class="cls-8" x1="221.19" y1="166.88" x2="221.19" y2="179.93"/></g><g id="LINE-31" data-name="LINE"><line class="cls-8" x1="218.78" y1="179.93" x2="218.78" y2="166.88"/></g><g id="LINE-32" data-name="LINE"><line class="cls-8" x1="230.87" y1="140.86" x2="230.87" y2="153.91"/></g><g id="LINE-33" data-name="LINE"><line class="cls-8" x1="228.45" y1="140.86" x2="228.45" y2="153.91"/></g><g id="LINE-34" data-name="LINE"><line class="cls-8" x1="226.03" y1="140.86" x2="226.03" y2="153.91"/></g><g id="LINE-35" data-name="LINE"><line class="cls-8" x1="223.61" y1="140.86" x2="223.61" y2="153.91"/></g><g id="LINE-36" data-name="LINE"><line class="cls-8" x1="221.19" y1="140.86" x2="221.19" y2="153.91"/></g><g id="LINE-37" data-name="LINE"><line class="cls-8" x1="218.78" y1="153.91" x2="218.78" y2="140.86"/></g><g id="LINE-38" data-name="LINE"><line class="cls-8" x1="172.66" y1="36.91" x2="172.66" y2="49.97"/></g><g id="LINE-39" data-name="LINE"><line class="cls-8" x1="175.08" y1="36.91" x2="175.08" y2="49.97"/></g><g id="LINE-40" data-name="LINE"><line class="cls-8" x1="177.5" y1="36.91" x2="177.5" y2="49.97"/></g><g id="LINE-41" data-name="LINE"><line class="cls-8" x1="179.92" y1="36.91" x2="179.92" y2="49.97"/></g><g id="LINE-42" data-name="LINE"><line class="cls-8" x1="182.34" y1="36.91" x2="182.34" y2="49.97"/></g><g id="LINE-43" data-name="LINE"><line class="cls-8" x1="184.76" y1="49.97" x2="184.76" y2="36.91"/></g><g id="LINE-44" data-name="LINE"><line class="cls-8" x1="228.98" y1="83.91" x2="215.92" y2="83.91"/></g><g id="LINE-45" data-name="LINE"><line class="cls-8" x1="228.98" y1="81.49" x2="215.92" y2="81.49"/></g><g id="LINE-46" data-name="LINE"><line class="cls-8" x1="228.98" y1="79.07" x2="215.92" y2="79.07"/></g><g id="LINE-47" data-name="LINE"><line class="cls-8" x1="228.98" y1="76.65" x2="215.92" y2="76.65"/></g><g id="LINE-48" data-name="LINE"><line class="cls-8" x1="228.98" y1="74.23" x2="215.92" y2="74.23"/></g><g id="LINE-49" data-name="LINE"><line class="cls-8" x1="215.92" y1="71.81" x2="228.98" y2="71.81"/></g><g id="LINE-50" data-name="LINE"><line class="cls-8" x1="175.24" y1="83.91" x2="162.19" y2="83.91"/></g><g id="LINE-51" data-name="LINE"><line class="cls-8" x1="175.24" y1="81.49" x2="162.19" y2="81.49"/></g><g id="LINE-52" data-name="LINE"><line class="cls-8" x1="175.24" y1="79.07" x2="162.19" y2="79.07"/></g><g id="LINE-53" data-name="LINE"><line class="cls-8" x1="175.24" y1="76.65" x2="162.19" y2="76.65"/></g><g id="LINE-54" data-name="LINE"><line class="cls-8" x1="175.24" y1="74.23" x2="162.19" y2="74.23"/></g><g id="LINE-55" data-name="LINE"><line class="cls-8" x1="162.19" y1="71.81" x2="175.24" y2="71.81"/></g><g id="LINE-56" data-name="LINE"><line class="cls-8" x1="229.93" y1="237.94" x2="242.99" y2="237.94"/></g><g id="LINE-57" data-name="LINE"><line class="cls-8" x1="229.93" y1="240.35" x2="242.99" y2="240.35"/></g><g id="LINE-58" data-name="LINE"><line class="cls-8" x1="229.93" y1="242.77" x2="242.99" y2="242.77"/></g><g id="LINE-59" data-name="LINE"><line class="cls-8" x1="229.93" y1="245.19" x2="242.99" y2="245.19"/></g><g id="LINE-60" data-name="LINE"><line class="cls-8" x1="229.93" y1="247.61" x2="242.99" y2="247.61"/></g><g id="LINE-61" data-name="LINE"><line class="cls-8" x1="242.99" y1="250.03" x2="229.93" y2="250.03"/></g><g id="LINE-62" data-name="LINE"><line class="cls-8" x1="179.92" y1="36.91" x2="179.92" y2="49.97"/></g><g id="ARC-33" data-name="ARC"><path class="cls-12" d="M367,48.57c-.34-3.13-1-11.38-1-11.38"/></g><g id="ARC-34" data-name="ARC"><path class="cls-12" d="M378.15,41.32a.84.84,0,0,1,.76.51,11.16,11.16,0,0,1,.39,1.05,14.36,14.36,0,0,1,.64,2.89c.06.53.1,1,.13,1.57a15.34,15.34,0,0,1-.34,4.11,9.94,9.94,0,0,1-3,5.24,4.83,4.83,0,0,1-3.23,1.24,4.93,4.93,0,0,1-3.22-1.3,9.94,9.94,0,0,1-2.92-5.3,15.33,15.33,0,0,1-.26-4.11c0-.53.09-1,.16-1.57a14.22,14.22,0,0,1,.69-2.88c.12-.35.26-.7.41-1a.85.85,0,0,1,.77-.5Z"/></g><g id="ARC-35" data-name="ARC"><path class="cls-12" d="M380.08,48.7c.41-3.12,1-11.51,1-11.51"/></g><g id="ARC-36" data-name="ARC"><path class="cls-12" d="M366,37.33a1.1,1.1,0,0,0,1,1,55.39,55.39,0,0,0,6.56.39,55.39,55.39,0,0,0,6.56-.39,1.1,1.1,0,0,0,1-1v0c.06-1.12.1-2.25.13-3.38a1.46,1.46,0,0,0-1.33-1.47q-3.15-.27-6.31-.27t-6.32.27A1.45,1.45,0,0,0,365.92,34c0,1.13.07,2.26.12,3.38Z"/></g><g id="ARC-37" data-name="ARC"><path class="cls-12" d="M307.46,37.7a1.14,1.14,0,0,1-.69-1.05,1.16,1.16,0,0,1,1.15-1.15,1.15,1.15,0,0,1,.46,2.2Z"/></g><g id="ARC-38" data-name="ARC"><path class="cls-12" d="M302.2,36.42a1.15,1.15,0,1,1,0,.46Z"/></g><g id="ARC-39" data-name="ARC"><path class="cls-12" d="M313.64,36.42a1.15,1.15,0,1,0,0,.46Z"/></g><g id="LINE-63" data-name="LINE"><path class="cls-12" d="M307.46,42.17V36.65a.46.46,0,1,1,.92,0v5.52a.46.46,0,1,1-.92,0Z"/></g><line class="cls-12" x1="303.33" y1="36.65" x2="300.11" y2="36.65"/><line class="cls-12" x1="315.73" y1="36.65" x2="312.51" y2="36.65"/><g id="LWPOLYLINE-129" data-name="LWPOLYLINE"><path class="cls-7" d="M335.94,38.61h8.2a.92.92,0,0,1,.92.91V50.46a.92.92,0,0,1-.92.92H326.82a.92.92,0,0,1-.91-.92V39.52a.91.91,0,0,1,.91-.91h9.12Z"/></g><g id="ARC-40" data-name="ARC"><path class="cls-12" d="M335,37.69a1.16,1.16,0,1,1,.92,0Z"/></g><g id="ARC-41" data-name="ARC"><path class="cls-12" d="M329.76,36.4a1.15,1.15,0,1,1,0,.46Z"/></g><g id="ARC-42" data-name="ARC"><path class="cls-12" d="M341.21,36.4a1.15,1.15,0,0,0-2.28.23,1.15,1.15,0,0,0,2.28.23Z"/></g><g id="LINE-64" data-name="LINE"><path class="cls-12" d="M335,42.15V36.63a.47.47,0,0,1,.46-.46.46.46,0,0,1,.46.46v5.52a.46.46,0,0,1-.46.46A.47.47,0,0,1,335,42.15Z"/></g><line class="cls-12" x1="330.9" y1="36.63" x2="327.67" y2="36.63"/><line class="cls-12" x1="343.3" y1="36.63" x2="340.07" y2="36.63"/><g id="LWPOLYLINE-130" data-name="LWPOLYLINE"><path class="cls-7" d="M308.45,38.61h8.36a.91.91,0,0,1,.91.91V50.46a.92.92,0,0,1-.91.92H299.49a.91.91,0,0,1-.91-.92V39.52a.91.91,0,0,1,.91-.91h7.93"/></g><g id="LWPOLYLINE-131" data-name="LWPOLYLINE"><rect class="cls-7" x="291.51" y="32.23" width="65.64" height="21.88"/></g><g id="LWPOLYLINE-132" data-name="LWPOLYLINE"><rect class="cls-12" x="343.35" y="198.85" width="20.06" height="26.13"/></g><g id="LWPOLYLINE-133" data-name="LWPOLYLINE"><path class="cls-12" d="M359.49,219.85a1.12,1.12,0,0,0,1.12-1.12V205.1a1.12,1.12,0,0,0-1.12-1.12H349.42a.94.94,0,0,0-.94.94v14a.94.94,0,0,0,.94.94Z"/></g><g id="ARC-43" data-name="ARC"><path class="cls-12" d="M360.07,235.09c-3.2-.35-11.65-1-11.65-1"/></g><g id="ARC-44" data-name="ARC"><path class="cls-12" d="M352.66,246.48a.85.85,0,0,0,.52.78l1.07.4a15.63,15.63,0,0,0,3,.65c.54.06,1.07.1,1.61.13a15.6,15.6,0,0,0,4.2-.35,10.18,10.18,0,0,0,5.37-3.1,4.85,4.85,0,0,0-.07-6.6,10.22,10.22,0,0,0-5.42-3,15.66,15.66,0,0,0-4.21-.27c-.54,0-1.07.09-1.61.17a15.07,15.07,0,0,0-2.95.7c-.35.13-.71.27-1.06.42a.84.84,0,0,0-.5.79Z"/></g><g id="ARC-45" data-name="ARC"><path class="cls-12" d="M360.2,248.45c-3.19.41-11.78,1-11.78,1"/></g><g id="ARC-46" data-name="ARC"><path class="cls-12" d="M348.57,234.08a1.12,1.12,0,0,1,1.05,1,56.56,56.56,0,0,1,0,13.43,1.12,1.12,0,0,1-1.05,1h0c-1.15.05-2.3.09-3.46.12a1.46,1.46,0,0,1-1.5-1.35c-.19-2.15-.28-4.31-.28-6.46s.09-4.32.28-6.47a1.46,1.46,0,0,1,1.5-1.35c1.16,0,2.31.07,3.46.12Z"/></g><g id="ARC-47" data-name="ARC"><path class="cls-12" d="M347,211.44a1.19,1.19,0,0,0-1.08-.7,1.17,1.17,0,0,0-1.17,1.18,1.16,1.16,0,0,0,.7,1.07,1.18,1.18,0,0,0,1.55-.6Z"/></g><g id="ARC-48" data-name="ARC"><path class="cls-12" d="M345.72,206.06a1.18,1.18,0,0,0,.23,2.33,1.18,1.18,0,0,0,.24-2.33Z"/></g><g id="ARC-49" data-name="ARC"><path class="cls-12" d="M345.72,217.77a1.18,1.18,0,0,1,.23-2.33,1.18,1.18,0,0,1,.24,2.33Z"/></g><g id="LINE-65" data-name="LINE"><path class="cls-12" d="M351.6,211.44H346a.48.48,0,0,0-.47.48.47.47,0,0,0,.47.47h5.65a.47.47,0,0,0,.47-.47A.48.48,0,0,0,351.6,211.44Z"/></g><line class="cls-12" x1="345.95" y1="207.22" x2="345.95" y2="203.92"/><line class="cls-12" x1="345.95" y1="219.91" x2="345.95" y2="216.61"/><g id="LWPOLYLINE-134" data-name="LWPOLYLINE"><rect class="cls-12" x="195.83" y="265.46" width="20.03" height="26.09"/></g><g id="LWPOLYLINE-135" data-name="LWPOLYLINE"><path class="cls-12" d="M199.74,270.58a1.12,1.12,0,0,0-1.12,1.12v13.61a1.12,1.12,0,0,0,1.12,1.11H209.8a.93.93,0,0,0,.94-.93v-14a.94.94,0,0,0-.94-.94Z"/></g><g id="ARC-50" data-name="ARC"><path class="cls-12" d="M199.16,255.36c3.2.35,11.64,1,11.64,1"/></g><g id="ARC-51" data-name="ARC"><path class="cls-12" d="M206.57,244a.84.84,0,0,0-.52-.77c-.35-.15-.71-.28-1.07-.4a14.22,14.22,0,0,0-3-.65c-.53-.06-1.07-.11-1.6-.13a15.57,15.57,0,0,0-4.2.34,10.28,10.28,0,0,0-5.36,3.1,4.84,4.84,0,0,0,.07,6.59,10.19,10.19,0,0,0,5.41,3,16,16,0,0,0,4.2.26c.54,0,1.07-.09,1.61-.16a14.83,14.83,0,0,0,2.94-.71,10.61,10.61,0,0,0,1.06-.42.84.84,0,0,0,.51-.78Z"/></g><g id="ARC-52" data-name="ARC"><path class="cls-12" d="M199,242c3.19-.41,11.77-1,11.77-1"/></g><g id="ARC-53" data-name="ARC"><path class="cls-12" d="M210.65,256.37a1.12,1.12,0,0,1-1.05-1,56.48,56.48,0,0,1,0-13.42,1.11,1.11,0,0,1,1.05-1h0c1.15-.06,2.3-.1,3.45-.13a1.48,1.48,0,0,1,1.5,1.36q.28,3.21.28,6.45c0,2.15-.09,4.31-.28,6.45a1.46,1.46,0,0,1-1.5,1.35c-1.15,0-2.3-.07-3.45-.12Z"/></g><g id="ARC-54" data-name="ARC"><path class="cls-12" d="M212.19,279a1.17,1.17,0,0,0,1.07.71,1.18,1.18,0,0,0,1.18-1.18,1.18,1.18,0,0,0-2.25-.47Z"/></g><g id="ARC-55" data-name="ARC"><path class="cls-12" d="M213.5,284.35a1.17,1.17,0,0,0-.24-2.32,1.17,1.17,0,0,0-.23,2.32Z"/></g><g id="ARC-56" data-name="ARC"><path class="cls-12" d="M213.5,272.66a1.18,1.18,0,1,1-.47,0Z"/></g><g id="LINE-66" data-name="LINE"><path class="cls-12" d="M207.63,279h5.63a.47.47,0,0,0,0-.94h-5.63a.47.47,0,1,0,0,.94Z"/></g><line class="cls-12" x1="213.26" y1="283.19" x2="213.26" y2="286.49"/><line class="cls-12" x1="213.26" y1="270.52" x2="213.26" y2="273.82"/><g id="LWPOLYLINE-136" data-name="LWPOLYLINE"><polygon class="cls-17" points="0.2 214.89 38.76 214.89 38.76 184.18 142.71 184.18 142.71 188.17 195.67 188.17 195.67 184.65 188.64 184.65 188.64 162.15 234.82 162.15 234.82 184.65 229.42 184.65 229.42 188.17 234.82 188.17 234.82 191.92 238.33 191.92 238.33 143.64 242.08 143.64 242.08 135.67 238.33 135.67 238.33 132.62 223.71 132.62 223.71 136.14 234.82 136.14 234.82 158.64 158.88 158.64 158.88 136.14 167.46 136.14 167.46 132.62 158.88 132.62 158.88 128.87 155.37 128.87 155.37 178.44 38.76 178.44 38.76 149.26 11.45 149.26 11.45 152.07 0.2 152.07 0.2 155.82 2.08 155.82 2.08 211.14 0.2 211.14 0.2 214.89"/></g><g id="LWPOLYLINE-137" data-name="LWPOLYLINE"><polygon class="cls-17" points="0.2 62.03 0.2 62.08 11.45 62.08 11.45 63.01 17.07 63.01 17.07 32.19 155.37 32.19 155.37 95.12 158.88 95.12 158.88 91.37 178.71 91.37 178.71 87.86 158.88 87.86 158.88 32.19 233.7 32.19 233.7 87.86 212.46 87.86 212.46 91.37 237.22 91.37 237.22 54.58 279.58 54.58 279.58 58.33 283.1 58.33 283.1 32.08 387.16 32.08 387.16 137.9 283.1 137.9 283.1 92.08 279.58 92.08 279.58 135.67 275.83 135.67 275.83 143.64 422.08 143.64 422.08 140.12 398.65 140.12 398.65 29.73 515.6 29.73 515.6 53.17 519.12 53.17 519.12 24.69 709.19 24.69 709.19 35.36 744.58 35.36 744.58 31.61 742.38 30.43 740.4 28.9 738.71 27.07 737.29 24.88 736.33 22.69 735.71 20.27 735.5 17.78 735.71 15.29 736.33 12.87 737.33 10.58 738.71 8.49 740.4 6.66 742.38 5.13 744.58 3.95 744.58 0.2 530.37 0.2 530.37 4.42 273.96 4.42 273.96 9.57 2.08 9.57 2.08 58.33 0.2 58.33 0.2 62.03"/></g><g id="LWPOLYLINE-138" data-name="LWPOLYLINE"><polygon class="cls-17" points="205.52 385.75 205.52 396.29 322.71 396.29 322.71 304.18 334.49 304.18 334.49 259.01 415.58 259.01 415.58 223.91 449.74 223.91 449.74 201.29 502.06 201.29 502.06 219.87 567.34 219.87 744.58 219.87 744.58 219.11 742.54 217.75 740.75 216.07 739.25 214.12 738.09 211.96 737.3 209.63 736.9 207.21 736.9 204.75 737.3 202.33 738.09 200 739.25 197.84 740.75 195.89 742.54 194.22 744.58 192.86 744.58 189.11 709.19 189.11 709.19 217 591.42 217 591.42 188.87 408.96 188.87 408.96 192.39 412.71 192.39 412.71 256.14 343.33 256.14 343.33 192.39 375.21 192.39 375.21 188.87 292.36 188.87 292.36 229.42 289.37 229.42 289.37 233.99 292.36 233.99 292.36 239.73 295.87 239.73 295.87 235.98 330.21 235.98 330.21 301.72 295.87 301.72 295.87 295.98 292.36 295.98 292.36 301.72 289.37 301.72 289.37 305.24 305.95 305.24 305.95 385.75 216.89 385.75 216.89 382.82 211.15 382.82 211.15 385.75 209.07 385.75 205.52 385.75"/></g><g id="LWPOLYLINE-139" data-name="LWPOLYLINE"><polygon class="cls-17" points="722.08 129.11 744.58 129.11 744.58 125.36 742.18 123.94 740.43 122.49 738.79 120.56 737.52 118.37 736.64 115.99 736.2 113.5 736.2 110.97 736.64 108.47 737.52 106.09 738.79 103.9 740.43 101.97 742.38 100.36 744.58 99.11 744.58 95.36 722.08 95.36 722.08 123.94 722.08 129.11"/></g><g id="LWPOLYLINE-140" data-name="LWPOLYLINE"><polygon class="cls-17" points="722.08 121.59 722.08 129.11 744.58 129.11 744.58 125.36 742.38 124.11 740.43 122.49 738.79 120.56 737.52 118.37 736.64 115.99 736.2 113.5 736.2 110.97 736.64 108.47 737.52 106.09 738.79 103.9 740.43 101.97 742.38 100.36 744.58 99.11 744.58 95.36 722.08 95.36 722.08 121.59"/></g><g id="LWPOLYLINE-141" data-name="LWPOLYLINE"><polygon class="cls-17" points="0.2 291.76 2.08 291.76 2.08 323.75 80.72 323.75 142.71 323.75 142.71 331.43 205.52 331.43 205.52 334.3 208.33 334.3 208.33 335.12 211.15 335.12 211.15 349.07 216.89 349.07 216.89 305.24 255.62 305.24 255.62 301.72 251.22 301.72 251.22 295.98 247.71 295.98 247.71 301.72 225.21 301.72 225.21 233.99 247.71 233.99 247.71 239.73 251.22 239.73 251.22 233.99 255.62 233.99 255.62 229.42 238.33 229.42 238.33 225.67 234.82 225.67 234.82 229.42 183.72 229.42 183.72 232.93 215.6 232.93 215.6 296.68 204.35 296.68 204.35 328.56 146.22 328.56 146.22 232.93 149.97 232.93 149.97 229.42 142.71 229.42 142.71 317.54 17.07 317.54 17.07 288.01 0.2 288.01 0.2 291.76"/></g><g id="LWPOLYLINE-142" data-name="LWPOLYLINE"><polygon class="cls-17" points="722.08 129.11 744.58 129.11 744.58 125.36 742.18 123.94 740.43 122.49 738.79 120.56 737.52 118.37 736.64 115.99 736.2 113.5 736.2 110.97 736.64 108.47 737.52 106.09 738.79 103.9 740.43 101.97 742.38 100.36 744.58 99.11 744.58 95.36 722.08 95.36 722.08 123.94 722.08 129.11"/></g><path class="cls-18" d="M70.29,75.93h.88L73,80.38h0l1.82-4.45h.88v5.6H75V77h0l-1.89,4.54h-.28L71,77h0v4.54h-.66Z"/><path class="cls-18" d="M80.64,80.4H78.12l-.39,1.13h-.68l2-5.6h.64l2,5.6H81Zm-.2-.58-1-3h0l-1,3Z"/><path class="cls-18" d="M82.59,79.67l.66-.11A1.46,1.46,0,0,0,84.91,81c.77,0,1.28-.36,1.28-.9s-.37-.88-1.54-1.25c-1.34-.44-1.78-.83-1.78-1.58s.73-1.48,1.79-1.48a2,2,0,0,1,2,1.63l-.65.14a1.34,1.34,0,0,0-1.39-1.15c-.68,0-1.13.34-1.13.86s.32.66,1.35,1c1.45.47,2,1,2,1.84s-.79,1.54-1.95,1.54A2.06,2.06,0,0,1,82.59,79.67Z"/><path class="cls-18" d="M89.63,76.55H87.89v-.62H92v.62H90.3v5h-.67Z"/><path class="cls-18" d="M93.51,75.93h3.36v.62h-2.7v1.79h2.48v.6H94.17v2h2.7v.63H93.51Z"/><path class="cls-18" d="M101,79.22l1.23,2.31h-.78l-1.18-2.27H99.12v2.27h-.66v-5.6h2c1.17,0,1.86.62,1.86,1.65A1.55,1.55,0,0,1,101,79.21Zm-.52-.59c.82,0,1.25-.36,1.25-1s-.42-1-1.25-1H99.12v2.08Z"/><path class="cls-18" d="M67.78,84.43h2.15a1.46,1.46,0,0,1,1.63,1.45A1.2,1.2,0,0,1,70.9,87h0a1.35,1.35,0,0,1,.87,1.33c0,1.08-.68,1.66-2,1.66h-2Zm2,2.37c.73,0,1.09-.29,1.09-.89s-.37-.86-1.09-.86H68.43V86.8Zm-.1,2.6c1,0,1.39-.31,1.39-1s-.39-1-1.37-1h-1.3v2Z"/><path class="cls-18" d="M73.4,84.43h3.36v.62h-2.7v1.79h2.48v.6H74.06v2h2.7V90H73.4Z"/><path class="cls-18" d="M78.35,84.43H80.1c1.41,0,2.41,1,2.41,2.79,0,2-1,2.81-2.46,2.81h-1.7Zm1.66,5c1.13,0,1.84-.6,1.84-2.18,0-1.43-.71-2.17-1.79-2.17H79V89.4Z"/><path class="cls-18" d="M86.64,87.72,87.87,90H87.1l-1.18-2.27H84.8V90h-.66v-5.6h2c1.17,0,1.86.62,1.86,1.65a1.55,1.55,0,0,1-1.4,1.63Zm-.52-.59c.83,0,1.26-.36,1.26-1s-.43-1-1.26-1H84.8v2.08Z"/><path class="cls-18" d="M89.31,87.23c0-1.75.94-2.92,2.36-2.92S94,85.48,94,87.23s-.94,2.92-2.35,2.92S89.31,89,89.31,87.23Zm4,0c0-1.42-.65-2.3-1.69-2.3s-1.7.88-1.7,2.3.65,2.29,1.7,2.29S93.36,88.64,93.36,87.23Z"/><path class="cls-18" d="M95.37,87.23c0-1.75.94-2.92,2.36-2.92s2.35,1.17,2.35,2.92-.94,2.92-2.35,2.92S95.37,89,95.37,87.23Zm4,0c0-1.42-.65-2.3-1.69-2.3s-1.7.88-1.7,2.3.65,2.29,1.7,2.29S99.42,88.64,99.42,87.23Z"/><path class="cls-18" d="M101.71,84.43h.88l1.82,4.45h0l1.81-4.45h.88V90h-.66V85.49h0L104.55,90h-.28l-1.88-4.54h0V90h-.66Z"/><path class="cls-18" d="M61.57,93.68l-1.25.81v-.7l1.33-.86h.58v5.6h-.66Z"/><path class="cls-18" d="M63.82,96.66l.66-.1c.11,1,.58,1.46,1.4,1.46a1.07,1.07,0,0,0,1.2-1.08c0-.76-.43-1.12-1.32-1.12h-.4v-.57h.4c.67,0,1.18-.4,1.18-.9s-.4-.93-1.06-.93a1.19,1.19,0,0,0-1.27,1L64,94.38a1.81,1.81,0,0,1,1.92-1.57A1.54,1.54,0,0,1,67.6,94.3a1.33,1.33,0,0,1-.76,1.17v0a1.49,1.49,0,0,1,.9,1.45,1.69,1.69,0,0,1-1.86,1.71A2,2,0,0,1,63.82,96.66Z"/><path class="cls-18" d="M69.4,92.93H70v1.78H69.4Z"/><path class="cls-18" d="M71.12,95.34H73.2v.6H71.12Z"/><path class="cls-18" d="M74.65,95.73c0-1.82.9-2.92,2.21-2.92s2.22,1.1,2.22,2.92-.9,2.92-2.22,2.92S74.65,97.54,74.65,95.73Zm3.77,0c0-1.46-.62-2.3-1.56-2.3s-1.55.84-1.55,2.3S75.93,98,76.86,98,78.42,97.19,78.42,95.73Z"/><path class="cls-18" d="M80.6,92.93h.58v1.78H80.6Zm1.06,0h.58v1.78h-.58Z"/><path class="cls-18" d="M85.94,97.09l1.31-1.3L85.94,94.5l.39-.39,1.29,1.31,1.29-1.31.39.39L88,95.79l1.31,1.3-.39.39-1.29-1.31-1.29,1.31Z"/><path class="cls-18" d="M93.48,93.68l-1.25.81v-.7l1.33-.86h.58v5.6h-.66Z"/><path class="cls-18" d="M96.61,97.9h3v.63H95.9V98a2,2,0,0,1,.23-1.06c.2-.37.55-.64,1.43-1.1,1.16-.6,1.49-.94,1.49-1.49s-.48-.92-1.16-.92a1.3,1.3,0,0,0-1.4,1.36l-.67-.05a1.93,1.93,0,0,1,2.07-1.93,1.68,1.68,0,0,1,1.83,1.54c0,.82-.42,1.31-1.65,1.93-.94.47-1.19.66-1.34.94A1.45,1.45,0,0,0,96.61,97.9Z"/><path class="cls-18" d="M101.44,92.93H102v1.78h-.59Z"/><path class="cls-18" d="M103.44,95.34h2.09v.6h-2.09Z"/><path class="cls-18" d="M110.9,95.39c0,2.27-.61,3.26-2,3.26a1.78,1.78,0,0,1-1.8-1.43l.61-.16a1.18,1.18,0,0,0,1.19,1c.89,0,1.31-.57,1.36-2.05h0a1.7,1.7,0,0,1-1.44.63,1.79,1.79,0,0,1-2-1.91,1.88,1.88,0,0,1,2-1.9C110.07,92.81,110.9,93.67,110.9,95.39Zm-.77-.64A1.33,1.33,0,1,0,108.81,96,1.25,1.25,0,0,0,110.13,94.75Z"/><path class="cls-18" d="M112.48,92.93h.59v1.78h-.59Zm1.06,0h.58v1.78h-.58Z"/><path class="cls-18" d="M55,215.88h2.15a1.45,1.45,0,0,1,1.63,1.44,1.18,1.18,0,0,1-.66,1.15v0a1.34,1.34,0,0,1,.87,1.33c0,1.08-.68,1.65-2,1.65H55Zm2,2.37c.73,0,1.09-.3,1.09-.9s-.37-.85-1.09-.85H55.65v1.75Zm-.1,2.6c1,0,1.39-.31,1.39-1s-.39-1-1.37-1h-1.3v2Z"/><path class="cls-18" d="M60.62,215.88H64v.62h-2.7v1.79h2.48v.59H61.28v2H64v.62H60.62Z"/><path class="cls-18" d="M65.57,215.88h1.75c1.41,0,2.41,1,2.41,2.79,0,2-1,2.8-2.46,2.8h-1.7Zm1.66,5c1.13,0,1.84-.6,1.84-2.18s-.71-2.17-1.79-2.17h-1v4.35Z"/><path class="cls-18" d="M73.86,219.17l1.23,2.3h-.77l-1.18-2.27H72v2.27h-.66v-5.59h2c1.17,0,1.86.62,1.86,1.65a1.54,1.54,0,0,1-1.4,1.62Zm-.52-.59c.83,0,1.26-.36,1.26-1.05s-.42-1-1.26-1H72v2.08Z"/><path class="cls-18" d="M76.53,218.67c0-1.75.94-2.92,2.36-2.92s2.35,1.17,2.35,2.92-.94,2.92-2.35,2.92S76.53,220.42,76.53,218.67Zm4,0c0-1.41-.65-2.29-1.69-2.29s-1.7.88-1.7,2.29.65,2.3,1.7,2.3S80.58,220.09,80.58,218.67Z"/><path class="cls-18" d="M82.59,218.67c0-1.75.94-2.92,2.36-2.92s2.35,1.17,2.35,2.92-.94,2.92-2.35,2.92S82.59,220.42,82.59,218.67Zm4,0c0-1.41-.65-2.29-1.69-2.29s-1.7.88-1.7,2.29S83.9,221,85,221,86.64,220.09,86.64,218.67Z"/><path class="cls-18" d="M88.93,215.88h.88l1.82,4.44h0l1.82-4.44h.88v5.59h-.66v-4.54h0l-1.89,4.54h-.28l-1.88-4.54h0v4.54h-.66Z"/><path class="cls-18" d="M99.37,220.85h3v.62H98.67v-.53a2,2,0,0,1,.23-1.06c.2-.37.55-.64,1.42-1.09,1.16-.6,1.5-.94,1.5-1.5s-.49-.91-1.17-.91a1.3,1.3,0,0,0-1.4,1.36l-.66-.06a1.93,1.93,0,0,1,2.06-1.93,1.69,1.69,0,0,1,1.83,1.54c0,.82-.41,1.31-1.64,1.94-.94.47-1.19.65-1.34.93A1.58,1.58,0,0,0,99.37,220.85Z"/><path class="cls-18" d="M53.12,225.13l-1.25.8v-.69l1.33-.86h.58V230h-.66Z"/><path class="cls-18" d="M56.56,225.13l-1.25.8v-.69l1.33-.86h.58V230h-.66Z"/><path class="cls-18" d="M59.18,224.38h.59v1.78h-.59Z"/><path class="cls-18" d="M60.9,226.78H63v.6H60.9Z"/><path class="cls-18" d="M65.25,225.13l-1.24.8v-.69l1.32-.86h.59V230h-.67Z"/><path class="cls-18" d="M67.58,227.17c0-1.81.9-2.92,2.21-2.92S72,225.36,72,227.17s-.91,2.92-2.22,2.92S67.58,229,67.58,227.17Zm3.76,0c0-1.46-.61-2.29-1.55-2.29s-1.55.83-1.55,2.29.61,2.3,1.55,2.3S71.34,228.64,71.34,227.17Z"/><path class="cls-18" d="M73.53,224.38h.58v1.78h-.58Zm1,0h.59v1.78h-.59Z"/><path class="cls-18" d="M78.86,228.53l1.32-1.29-1.32-1.3.4-.39,1.28,1.31,1.3-1.31.39.39-1.31,1.3,1.31,1.29-.39.39-1.3-1.31-1.28,1.31Z"/><path class="cls-18" d="M86.41,225.13l-1.25.8v-.69l1.33-.86h.58V230h-.66Z"/><path class="cls-18" d="M89.84,225.13l-1.24.8v-.69l1.32-.86h.59V230h-.67Z"/><path class="cls-18" d="M92.47,224.38h.58v1.78h-.58Z"/><path class="cls-18" d="M94.47,226.78h2.08v.6H94.47Z"/><path class="cls-18" d="M97.71,228.41a1.56,1.56,0,0,1,1.05-1.5v0a1.23,1.23,0,0,1-.74-1.16,1.79,1.79,0,0,1,3.52,0,1.25,1.25,0,0,1-.74,1.16v0a1.56,1.56,0,0,1,1,1.5c0,1-.81,1.68-2.06,1.68S97.71,229.42,97.71,228.41Zm3.45,0c0-.67-.53-1.1-1.38-1.1s-1.39.43-1.39,1.1.53,1.08,1.39,1.08S101.16,229,101.16,228.37Zm-.28-2.6c0-.55-.45-.92-1.1-.92s-1.1.37-1.1.92.44.88,1.1.88S100.88,226.3,100.88,225.77Z"/><path class="cls-18" d="M103.27,224.38h.59v1.78h-.59Zm1.06,0h.58v1.78h-.58Z"/><path class="cls-18" d="M506.71,156.8h.66v5h2.52v.63h-3.18Z"/><path class="cls-18" d="M511.37,156.8H512v5.6h-.65Z"/><path class="cls-18" d="M513.36,156.8h.69l1.66,4.72h0l1.67-4.72h.69l-2,5.6h-.7Z"/><path class="cls-18" d="M519.44,156.8h.65v5.6h-.65Z"/><path class="cls-18" d="M522,156.8h.78l2.54,4.57h0V156.8H526v5.6h-.78l-2.54-4.57h0v4.57H522Z"/><path class="cls-18" d="M527.63,159.6c0-1.78.93-2.92,2.36-2.92a2.08,2.08,0,0,1,2.13,1.85l-.66.12A1.44,1.44,0,0,0,530,157.3c-1,0-1.69.88-1.69,2.3s.64,2.29,1.69,2.29a1.43,1.43,0,0,0,1.5-1.64h-1.43v-.62h2.07v.57a2.09,2.09,0,0,1-2.14,2.32C528.56,162.52,527.63,161.37,527.63,159.6Z"/><path class="cls-18" d="M535.75,162.52l2.85-6,.45.2-2.87,6Z"/><path class="cls-18" d="M543,156.8h1.75c1.41,0,2.41,1,2.41,2.79,0,2-1,2.81-2.46,2.81H543Zm1.66,5c1.13,0,1.84-.6,1.84-2.18s-.71-2.17-1.79-2.17h-1.05v4.35Z"/><path class="cls-18" d="M548.78,156.8h.66v5.6h-.66Z"/><path class="cls-18" d="M551.35,156.8h.77l2.55,4.57h0V156.8h.67v5.6h-.79L552,157.83h0v4.57h-.66Z"/><path class="cls-18" d="M557.27,156.8h.66v5.6h-.66Z"/><path class="cls-18" d="M559.84,156.8h.77l2.55,4.57h0V156.8h.67v5.6h-.79l-2.54-4.57h0v4.57h-.65Z"/><path class="cls-18" d="M565.47,159.6c0-1.78.92-2.92,2.36-2.92a2.08,2.08,0,0,1,2.12,1.85l-.65.12a1.44,1.44,0,0,0-1.47-1.35c-1.05,0-1.7.88-1.7,2.3s.65,2.29,1.7,2.29a1.43,1.43,0,0,0,1.49-1.64H567.9v-.62H570v.57a2.09,2.09,0,0,1-2.14,2.32C566.39,162.52,565.47,161.37,565.47,159.6Z"/><path class="cls-18" d="M576.64,160.09l1.23,2.31h-.77l-1.19-2.27h-1.12v2.27h-.65v-5.6h2c1.16,0,1.86.62,1.86,1.65a1.55,1.55,0,0,1-1.4,1.63Zm-.52-.59c.82,0,1.26-.36,1.26-1.05s-.43-1-1.26-1h-1.33v2.08Z"/><path class="cls-18" d="M579.3,159.6c0-1.75,1-2.92,2.36-2.92s2.36,1.17,2.36,2.92-.94,2.92-2.36,2.92S579.3,161.35,579.3,159.6Zm4.06,0c0-1.42-.65-2.3-1.7-2.3s-1.69.88-1.69,2.3.64,2.29,1.69,2.29S583.36,161,583.36,159.6Z"/><path class="cls-18" d="M585.36,159.6c0-1.75.95-2.92,2.36-2.92s2.36,1.17,2.36,2.92-.94,2.92-2.36,2.92S585.36,161.35,585.36,159.6Zm4.06,0c0-1.42-.65-2.3-1.7-2.3s-1.69.88-1.69,2.3.65,2.29,1.69,2.29S589.42,161,589.42,159.6Z"/><path class="cls-18" d="M591.71,156.8h.88l1.82,4.45h0l1.82-4.45h.88v5.6h-.67v-4.54h0l-1.89,4.54h-.28l-1.89-4.54h0v4.54h-.66Z"/><path class="cls-18" d="M527.45,166.05l-1.25.81v-.7l1.33-.86h.58v5.6h-.66Z"/><path class="cls-18" d="M532.47,165.94v0h-2.91v-.62h3.66v.58l-2.27,5h-.75Z"/><path class="cls-18" d="M534.84,165.3h.59v1.78h-.59Z"/><path class="cls-18" d="M536.57,167.71h2.08v.6h-2.08Z"/><path class="cls-18" d="M540.92,166.05l-1.25.81v-.7l1.33-.86h.58v5.6h-.66Z"/><path class="cls-18" d="M543.54,165.3h.59v1.78h-.59Zm1.06,0h.58v1.78h-.58Z"/><path class="cls-18" d="M548.88,169.46l1.31-1.3-1.31-1.29.39-.39,1.29,1.31,1.29-1.31.39.39-1.31,1.29,1.31,1.3-.39.39-1.29-1.31-1.29,1.31Z"/><path class="cls-18" d="M556.42,166.05l-1.25.81v-.7l1.33-.86h.59v5.6h-.67Z"/><path class="cls-18" d="M558.63,169.34a1.57,1.57,0,0,1,1-1.51h0a1.25,1.25,0,0,1-.74-1.17,1.79,1.79,0,0,1,3.52,0,1.27,1.27,0,0,1-.73,1.17h0a1.58,1.58,0,0,1,1,1.51c0,1-.81,1.68-2.06,1.68S558.63,170.34,558.63,169.34Zm3.46,0c0-.67-.54-1.11-1.39-1.11s-1.39.44-1.39,1.11.54,1.08,1.39,1.08S562.09,170,562.09,169.3Zm-.28-2.61c0-.54-.45-.91-1.11-.91s-1.1.37-1.1.91.44.88,1.1.88S561.81,167.23,561.81,166.69Z"/><path class="cls-18" d="M564.19,165.3h.59v1.78h-.59Z"/><path class="cls-18" d="M566.19,167.71h2.09v.6h-2.09Z"/><path class="cls-18" d="M574,169.09a1.89,1.89,0,0,1-2,1.93c-1.46,0-2.29-1.1-2.29-2.83s1-3,2.31-3a1.82,1.82,0,0,1,1.88,1.49l-.63.16a1.18,1.18,0,0,0-1.23-1c-.92,0-1.6.87-1.65,2.22h0a1.88,1.88,0,0,1,1.67-.84A1.86,1.86,0,0,1,574,169.09Zm-.65,0a1.26,1.26,0,0,0-1.34-1.34,1.33,1.33,0,1,0,0,2.66A1.27,1.27,0,0,0,573.35,169.09Z"/><path class="cls-18" d="M575.53,165.3h.59v1.78h-.59Zm1.06,0h.58v1.78h-.58Z"/><path class="cls-18" d="M243.51,338.25h3.37v.62h-2.71v2h2.49v.59h-2.49v2.38h-.66Z"/><path class="cls-18" d="M248.44,341.05c0-1.76.94-2.92,2.35-2.92s2.36,1.16,2.36,2.92-.94,2.91-2.36,2.91S248.44,342.8,248.44,341.05Zm4.05,0c0-1.42-.65-2.3-1.7-2.3s-1.69.88-1.69,2.3.65,2.29,1.69,2.29S252.49,342.46,252.49,341.05Z"/><path class="cls-18" d="M256.14,341.51l-2-3.26H255l1.51,2.61h0l1.52-2.61h.76l-1.95,3.26v2.33h-.67Z"/><path class="cls-18" d="M260.41,338.25h3.36v.62h-2.7v1.79h2.48v.59h-2.48v2h2.7v.62h-3.36Z"/><path class="cls-18" d="M268.19,341.54l1.23,2.3h-.78l-1.18-2.27h-1.12v2.27h-.66v-5.59h2c1.17,0,1.87.62,1.87,1.65a1.55,1.55,0,0,1-1.4,1.63Zm-.52-.59c.82,0,1.25-.36,1.25-1.05s-.42-1-1.25-1h-1.33V341Z"/><path class="cls-18" d="M311.13,250.37h.68l.82,4.55h0l1.38-4.55h.63l1.39,4.55h0l.83-4.55h.68l-1,5.6h-.8l-1.38-4.49h0L313,256h-.81Z"/><path class="cls-18" d="M312.27,279.22H314c1.41,0,2.41,1,2.41,2.79,0,2-1,2.81-2.46,2.81h-1.7Zm1.66,5c1.13,0,1.84-.6,1.84-2.19,0-1.43-.71-2.16-1.79-2.16h-1.05v4.35Z"/><path class="cls-18" d="M410.9,100.65l1.23,2.3h-.77l-1.19-2.27h-1.12V103h-.65v-5.6h2c1.17,0,1.86.62,1.86,1.66a1.54,1.54,0,0,1-1.4,1.62Zm-.52-.6c.83,0,1.26-.36,1.26-1s-.43-1-1.26-1h-1.33v2.08Z"/><path class="cls-18" d="M406.93,125.16h.68l.82,4.55h0l1.38-4.55h.62l1.39,4.55h0l.82-4.55h.68l-1,5.6h-.81l-1.37-4.49h0l-1.36,4.49H408Z"/><path class="cls-18" d="M466.05,100.54h1.75c1.41,0,2.41,1,2.41,2.79,0,2-1,2.81-2.46,2.81h-1.7Zm1.66,5c1.13,0,1.84-.6,1.84-2.18,0-1.43-.71-2.17-1.79-2.17h-1.05v4.35Z"/><path class="cls-18" d="M471,100.54h.68l.82,4.55h0l1.38-4.55h.63l1.39,4.55h0l.83-4.55h.68l-1,5.6h-.8l-1.38-4.5h0l-1.37,4.5H472Z"/><polygon class="cls-18" points="192.75 357.52 207.15 362.92 192.75 368.32 192.75 357.52"/></g></g></svg>