<svg xmlns="http://www.w3.org/2000/svg" viewBox="0 0 592.26 303.39"><defs><style>.cls-1,.cls-10,.cls-13,.cls-14,.cls-15,.cls-16,.cls-6,.cls-7,.cls-8,.cls-9{fill:none;}.cls-1,.cls-10,.cls-11,.cls-12,.cls-13,.cls-14,.cls-15,.cls-16,.cls-17,.cls-2,.cls-3,.cls-4,.cls-5,.cls-6,.cls-7,.cls-8,.cls-9{stroke:#231f20;}.cls-1,.cls-10,.cls-11,.cls-12,.cls-13,.cls-14,.cls-15,.cls-2,.cls-3,.cls-6,.cls-7,.cls-8{stroke-linecap:round;stroke-linejoin:round;}.cls-1,.cls-12,.cls-13,.cls-14,.cls-15,.cls-5,.cls-8,.cls-9{stroke-width:0.25px;}.cls-1{stroke-dasharray:1.32 1.32;}.cls-11,.cls-12,.cls-2,.cls-3,.cls-4,.cls-5{fill:#b4c0be;}.cls-2{stroke-width:0.15px;}.cls-3,.cls-4,.cls-6{stroke-width:0.15px;}.cls-16,.cls-17,.cls-4,.cls-5,.cls-9{stroke-miterlimit:10;}.cls-16,.cls-17,.cls-7{stroke-width:0.4px;}.cls-10,.cls-11{stroke-width:0.2px;}.cls-13{stroke-dasharray:1.99 1.99;}.cls-14{stroke-dasharray:2.03 2.03;}.cls-15{stroke-dasharray:2 2;}.cls-17{fill:#e1e5e5;}.cls-18{fill:#231f20;}</style></defs><title>Asset 4</title><g id="Layer_2" data-name="Layer 2"><g id="Unit17-22B_Hover"><g id="LWPOLYLINE"><path class="cls-1" d="M247.29,17.22,215.58,28.76a33.64,33.64,0,0,1-2-11.54,33.64,33.64,0,0,1-2,11.54L179.79,17.22"/></g><g id="LWPOLYLINE-2" data-name="LWPOLYLINE"><path class="cls-1" d="M393.66,17.22,361.94,28.76a33.87,33.87,0,0,1-2-11.54,33.64,33.64,0,0,1-2,11.54L326.16,17.22"/></g><g id="LWPOLYLINE-3" data-name="LWPOLYLINE"><rect class="cls-2" x="314.33" y="36.43" width="122.06" height="124.17"/></g><g id="LWPOLYLINE-4" data-name="LWPOLYLINE"><rect class="cls-2" x="17.37" y="36.43" width="95.82" height="105.63"/></g><g id="LWPOLYLINE-5" data-name="LWPOLYLINE"><rect class="cls-2" x="309.77" y="36.43" width="126.61" height="124.17"/></g><g id="LWPOLYLINE-6" data-name="LWPOLYLINE"><rect class="cls-3" x="136.65" y="53.08" width="15" height="60.3"/></g><g id="LWPOLYLINE-7" data-name="LWPOLYLINE"><rect class="cls-3" x="307.54" y="57.68" width="33.75" height="84.38"/></g><g id="LWPOLYLINE-8" data-name="LWPOLYLINE"><rect class="cls-3" x="356.7" y="152.59" width="53.44" height="16.88" rx="1.88"/></g><g id="LWPOLYLINE-9" data-name="LWPOLYLINE"><polygon class="cls-3" points="396.78 60.42 395.82 30.43 369.1 30.44 368.18 60.44 396.78 60.42"/></g><g id="LWPOLYLINE-10" data-name="LWPOLYLINE"><rect class="cls-3" x="314.11" y="30.8" width="20.15" height="20.46"/></g><g id="LWPOLYLINE-11" data-name="LWPOLYLINE"><rect class="cls-3" x="314.11" y="148.47" width="20.15" height="20.46"/></g><g id="LWPOLYLINE-12" data-name="LWPOLYLINE"><rect class="cls-3" x="426.96" y="70.38" width="15" height="56.25"/></g><g id="LWPOLYLINE-13" data-name="LWPOLYLINE"><rect class="cls-3" x="443.46" y="52.85" width="15" height="56.25"/></g><g id="LWPOLYLINE-14" data-name="LWPOLYLINE"><rect class="cls-3" x="295.55" y="72.95" width="10.69" height="53.82"/></g><path class="cls-4" d="M322,131.64s5.28,6.86,7.94,5.57-7.24-10.46-7.24-10.46-3.9-4-4.65-2S322,131.64,322,131.64Z"/><path class="cls-4" d="M324.66,120.56s-4.37-7.08-6.29-5.76,3.56,9.44,3.56,9.44,3.83,7.57,5.71,5.53S324.66,120.56,324.66,120.56Z"/><path class="cls-4" d="M318.7,78.74s3.62-.74,5.2-8.34,1.12-7.67.31-8S320,64.64,319,71.59,317.45,78.43,318.7,78.74Z"/><rect class="cls-3" x="411.3" y="97.62" width="44.9" height="1.76" transform="translate(532.26 -335.25) rotate(90)"/><rect class="cls-5" x="348.54" y="213.6" width="22.03" height="24.28"/><g id="WIPEOUT"><rect class="cls-3" x="272.65" y="90.61" width="19.69" height="18.52"/><polyline class="cls-3" points="272.65 90.61 272.65 109.13 292.34 109.13 292.34 90.61 272.65 90.61"/></g><g id="LINE"><line class="cls-6" x1="292.34" y1="107.95" x2="272.65" y2="107.95"/></g><g id="LINE-2" data-name="LINE"><line class="cls-6" x1="292.34" y1="91.78" x2="272.65" y2="91.78"/></g><g id="LINE-3" data-name="LINE"><line class="cls-6" x1="274.06" y1="91.78" x2="274.06" y2="107.95"/></g><g id="LINE-4" data-name="LINE"><line class="cls-6" x1="276.16" y1="91.78" x2="276.16" y2="107.95"/></g><g id="LINE-5" data-name="LINE"><line class="cls-6" x1="276.16" y1="91.78" x2="276.16" y2="107.95"/></g><g id="LWPOLYLINE-15" data-name="LWPOLYLINE"><rect class="cls-3" x="282.02" y="71.74" width="24.37" height="56.25"/></g><path class="cls-4" d="M376.85,123s-9.88,2-11-8.34.16-29.41,8.74-36.62,23.27,13.4,23.27,13.4,9.13,10.09-1.92,20.31S376.85,123,376.85,123Z"/><g id="LINE-6" data-name="LINE"><line class="cls-6" x1="312.23" y1="112.37" x2="340.31" y2="112.37"/></g><g id="LWPOLYLINE-16" data-name="LWPOLYLINE"><polyline class="cls-6" points="341.29 62.37 312.23 62.37 312.23 137.37 341.29 137.37"/></g><g id="ARC"><path class="cls-6" d="M316.73,136.43a59.62,59.62,0,0,0,0-23.13"/></g><g id="ARC-2" data-name="ARC"><path class="cls-6" d="M316.73,113.3a1.22,1.22,0,0,0-1-.93"/></g><g id="ARC-3" data-name="ARC"><path class="cls-6" d="M315.74,137.37a1.24,1.24,0,0,0,1-.94"/></g><g id="ARC-4" data-name="ARC"><path class="cls-6" d="M315.74,112.37a1.24,1.24,0,0,0,1-.94"/></g><g id="ARC-5" data-name="ARC"><path class="cls-6" d="M316.73,63.3a1.22,1.22,0,0,0-1-.93"/></g><g id="ARC-6" data-name="ARC"><path class="cls-6" d="M341.29,113.3a1.19,1.19,0,0,0-1-.93"/></g><g id="ARC-7" data-name="ARC"><path class="cls-6" d="M340.31,112.37a1.22,1.22,0,0,0,1-.94"/></g><g id="ARC-8" data-name="ARC"><path class="cls-6" d="M340.31,137.37a1.22,1.22,0,0,0,1-.94"/></g><g id="ARC-9" data-name="ARC"><path class="cls-6" d="M341.29,63.3a1.19,1.19,0,0,0-1-.93"/></g><g id="LINE-7" data-name="LINE"><line class="cls-6" x1="312.23" y1="87.37" x2="340.31" y2="87.37"/></g><g id="ARC-10" data-name="ARC"><path class="cls-6" d="M316.73,86.43a59.62,59.62,0,0,0,0-23.13"/></g><g id="ARC-11" data-name="ARC"><path class="cls-6" d="M315.74,87.37a1.24,1.24,0,0,0,1-.94"/></g><g id="ARC-12" data-name="ARC"><path class="cls-6" d="M316.73,88.3a1.22,1.22,0,0,0-1-.93"/></g><g id="ARC-13" data-name="ARC"><path class="cls-6" d="M340.31,87.37a1.22,1.22,0,0,0,1-.94"/></g><g id="ARC-14" data-name="ARC"><path class="cls-6" d="M341.29,88.3a1.19,1.19,0,0,0-1-.93"/></g><g id="ARC-15" data-name="ARC"><path class="cls-6" d="M316.73,111.43a59.62,59.62,0,0,0,0-23.13"/></g><g id="CIRCLE"><path class="cls-6" d="M387.17,165.25a.47.47,0,1,1,.47.47.47.47,0,0,1-.47-.47Z"/></g><g id="CIRCLE-2" data-name="CIRCLE"><path class="cls-6" d="M387.17,156.81a.47.47,0,1,1,.47.47.47.47,0,0,1-.47-.47Z"/></g><g id="CIRCLE-3" data-name="CIRCLE"><path class="cls-6" d="M378.73,165.25a.47.47,0,1,1,.47.47.47.47,0,0,1-.47-.47Z"/></g><g id="CIRCLE-4" data-name="CIRCLE"><path class="cls-6" d="M378.73,156.81a.47.47,0,1,1,.47.47.47.47,0,0,1-.47-.47Z"/></g><g id="CIRCLE-5" data-name="CIRCLE"><path class="cls-6" d="M370.29,165.25a.47.47,0,1,1,.47.47.47.47,0,0,1-.47-.47Z"/></g><g id="CIRCLE-6" data-name="CIRCLE"><path class="cls-6" d="M370.29,156.81a.47.47,0,1,1,.47.47.47.47,0,0,1-.47-.47Z"/></g><g id="CIRCLE-7" data-name="CIRCLE"><path class="cls-6" d="M361.86,165.25a.47.47,0,1,1,.46.47.47.47,0,0,1-.46-.47Z"/></g><g id="CIRCLE-8" data-name="CIRCLE"><path class="cls-6" d="M361.86,156.81a.47.47,0,1,1,.46.47.47.47,0,0,1-.46-.47Z"/></g><g id="CIRCLE-9" data-name="CIRCLE"><path class="cls-6" d="M395.61,165.25a.47.47,0,1,1,.46.47.47.47,0,0,1-.46-.47Z"/></g><g id="CIRCLE-10" data-name="CIRCLE"><path class="cls-6" d="M395.61,156.81a.47.47,0,1,1,.46.47.47.47,0,0,1-.46-.47Z"/></g><g id="CIRCLE-11" data-name="CIRCLE"><path class="cls-6" d="M404,165.25a.47.47,0,1,1,.47.47.47.47,0,0,1-.47-.47Z"/></g><g id="CIRCLE-12" data-name="CIRCLE"><path class="cls-6" d="M404,156.81a.47.47,0,1,1,.47.47.47.47,0,0,1-.47-.47Z"/></g><g id="LINE-8" data-name="LINE"><line class="cls-6" x1="392.79" y1="60.43" x2="391.83" y2="30.43"/></g><g id="LINE-9" data-name="LINE"><line class="cls-6" x1="391.96" y1="34.65" x2="372.97" y2="34.66"/></g><g id="LINE-10" data-name="LINE"><line class="cls-6" x1="373.09" y1="30.44" x2="372.17" y2="60.44"/></g><g id="ARC-16" data-name="ARC"><path class="cls-6" d="M316.73,113.3a1.22,1.22,0,0,0-1-.93"/></g><g id="ARC-17" data-name="ARC"><path class="cls-6" d="M315.74,137.37a1.24,1.24,0,0,0,1-.94"/></g><g id="ARC-18" data-name="ARC"><path class="cls-6" d="M315.74,112.37a1.24,1.24,0,0,0,1-.94"/></g><g id="ARC-19" data-name="ARC"><path class="cls-6" d="M316.73,63.3a1.22,1.22,0,0,0-1-.93"/></g><g id="ARC-20" data-name="ARC"><path class="cls-6" d="M341.29,113.3a1.19,1.19,0,0,0-1-.93"/></g><g id="ARC-21" data-name="ARC"><path class="cls-6" d="M340.31,112.37a1.22,1.22,0,0,0,1-.94"/></g><g id="ARC-22" data-name="ARC"><path class="cls-6" d="M340.31,137.37a1.22,1.22,0,0,0,1-.94"/></g><g id="ARC-23" data-name="ARC"><path class="cls-6" d="M341.29,63.3a1.19,1.19,0,0,0-1-.93"/></g><g id="ARC-24" data-name="ARC"><path class="cls-6" d="M315.74,87.37a1.24,1.24,0,0,0,1-.94"/></g><g id="ARC-25" data-name="ARC"><path class="cls-6" d="M316.73,88.3a1.22,1.22,0,0,0-1-.93"/></g><g id="ARC-26" data-name="ARC"><path class="cls-6" d="M340.31,87.37a1.22,1.22,0,0,0,1-.94"/></g><g id="ARC-27" data-name="ARC"><path class="cls-6" d="M341.29,88.3a1.19,1.19,0,0,0-1-.93"/></g><g id="CIRCLE-13" data-name="CIRCLE"><path class="cls-6" d="M387.17,165.25a.47.47,0,1,1,.47.47.47.47,0,0,1-.47-.47Z"/></g><g id="CIRCLE-14" data-name="CIRCLE"><path class="cls-6" d="M387.17,156.81a.47.47,0,1,1,.47.47.47.47,0,0,1-.47-.47Z"/></g><g id="CIRCLE-15" data-name="CIRCLE"><path class="cls-6" d="M378.73,165.25a.47.47,0,1,1,.47.47.47.47,0,0,1-.47-.47Z"/></g><g id="CIRCLE-16" data-name="CIRCLE"><path class="cls-6" d="M378.73,156.81a.47.47,0,1,1,.47.47.47.47,0,0,1-.47-.47Z"/></g><g id="CIRCLE-17" data-name="CIRCLE"><path class="cls-6" d="M370.29,165.25a.47.47,0,1,1,.47.47.47.47,0,0,1-.47-.47Z"/></g><g id="CIRCLE-18" data-name="CIRCLE"><path class="cls-6" d="M370.29,156.81a.47.47,0,1,1,.47.47.47.47,0,0,1-.47-.47Z"/></g><g id="CIRCLE-19" data-name="CIRCLE"><path class="cls-6" d="M361.86,165.25a.47.47,0,1,1,.46.47.47.47,0,0,1-.46-.47Z"/></g><g id="CIRCLE-20" data-name="CIRCLE"><path class="cls-6" d="M361.86,156.81a.47.47,0,1,1,.46.47.47.47,0,0,1-.46-.47Z"/></g><g id="CIRCLE-21" data-name="CIRCLE"><path class="cls-6" d="M395.61,165.25a.47.47,0,1,1,.46.47.47.47,0,0,1-.46-.47Z"/></g><g id="CIRCLE-22" data-name="CIRCLE"><path class="cls-6" d="M395.61,156.81a.47.47,0,1,1,.46.47.47.47,0,0,1-.46-.47Z"/></g><g id="CIRCLE-23" data-name="CIRCLE"><path class="cls-6" d="M404,165.25a.47.47,0,1,1,.47.47.47.47,0,0,1-.47-.47Z"/></g><g id="CIRCLE-24" data-name="CIRCLE"><path class="cls-6" d="M404,156.81a.47.47,0,1,1,.47.47.47.47,0,0,1-.47-.47Z"/></g><g id="LWPOLYLINE-17" data-name="LWPOLYLINE"><rect class="cls-3" x="11.74" y="53.08" width="80.63" height="71.25"/></g><g id="LWPOLYLINE-18" data-name="LWPOLYLINE"><rect class="cls-3" x="11.74" y="126.32" width="15.94" height="20.16"/></g><g id="LWPOLYLINE-19" data-name="LWPOLYLINE"><rect class="cls-3" x="11.74" y="30.93" width="15.94" height="20.16"/></g><g id="LWPOLYLINE-20" data-name="LWPOLYLINE"><rect class="cls-6" x="17.1" y="89.98" width="14.68" height="31.81"/></g><g id="LINE-11" data-name="LINE"><line class="cls-6" x1="14.56" y1="53.08" x2="14.56" y2="124.33"/></g><g id="LINE-12" data-name="LINE"><line class="cls-6" x1="89.56" y1="53.08" x2="89.56" y2="124.33"/></g><g id="LWPOLYLINE-21" data-name="LWPOLYLINE"><rect class="cls-6" x="17.1" y="55.62" width="14.68" height="31.81"/></g><g id="LWPOLYLINE-22" data-name="LWPOLYLINE"><rect class="cls-3" x="544.48" y="26.6" width="16.88" height="22.5"/></g><g id="LWPOLYLINE-23" data-name="LWPOLYLINE"><rect class="cls-3" x="544.48" y="112.85" width="16.88" height="22.5"/></g><g id="LWPOLYLINE-24" data-name="LWPOLYLINE"><rect class="cls-3" x="480.73" y="52.85" width="80.62" height="56.25"/></g><g id="LINE-13" data-name="LINE"><line class="cls-6" x1="558.54" y1="52.85" x2="558.54" y2="109.1"/></g><g id="LINE-14" data-name="LINE"><line class="cls-6" x1="483.54" y1="52.85" x2="483.54" y2="109.1"/></g><g id="LWPOLYLINE-25" data-name="LWPOLYLINE"><rect class="cls-6" x="541.31" y="82.25" width="14.68" height="24.31"/></g><g id="LWPOLYLINE-26" data-name="LWPOLYLINE"><rect class="cls-6" x="541.31" y="55.39" width="14.68" height="24.31"/></g><line class="cls-6" x1="34.3" y1="124.33" x2="34.3" y2="53.08"/><line class="cls-6" x1="36.73" y1="124.33" x2="36.73" y2="53.08"/><g id="LWPOLYLINE-27" data-name="LWPOLYLINE"><path class="cls-3" d="M203.93,47.11,198.35,64l-5.43-2.09a3.77,3.77,0,0,1-2.21-4.68l3-9.25a3.75,3.75,0,0,1,4.56-2.44Z"/></g><g id="LWPOLYLINE-28" data-name="LWPOLYLINE"><path class="cls-3" d="M203.93,130.29l-5.58-16.91-5.43,2.09a3.76,3.76,0,0,0-2.21,4.67l3,9.26a3.76,3.76,0,0,0,4.56,2.44Z"/></g><g id="LWPOLYLINE-29" data-name="LWPOLYLINE"><path class="cls-3" d="M197.45,108.92l-1.53-17.74-5.77.79a3.76,3.76,0,0,0-3.23,4l.84,9.7a3.75,3.75,0,0,0,3.88,3.42Z"/></g><g id="LWPOLYLINE-30" data-name="LWPOLYLINE"><path class="cls-3" d="M197.45,68.48l-1.53,17.75-5.77-.79a3.76,3.76,0,0,1-3.23-4l.84-9.7a3.77,3.77,0,0,1,3.88-3.43Z"/></g><g id="LWPOLYLINE-31" data-name="LWPOLYLINE"><path class="cls-3" d="M223.15,47.11,228.73,64l5.43-2.09a3.77,3.77,0,0,0,2.21-4.68L233.32,48a3.75,3.75,0,0,0-4.56-2.44Z"/></g><g id="LWPOLYLINE-32" data-name="LWPOLYLINE"><path class="cls-3" d="M223.15,130.29l5.58-16.91,5.43,2.09a3.76,3.76,0,0,1,2.21,4.67l-3.05,9.26a3.76,3.76,0,0,1-4.56,2.44Z"/></g><g id="LWPOLYLINE-33" data-name="LWPOLYLINE"><path class="cls-3" d="M229.63,108.92l1.53-17.74,5.77.79a3.76,3.76,0,0,1,3.23,4l-.84,9.7a3.75,3.75,0,0,1-3.88,3.42Z"/></g><g id="LWPOLYLINE-34" data-name="LWPOLYLINE"><path class="cls-3" d="M229.63,68.48l1.53,17.75,5.77-.79a3.76,3.76,0,0,0,3.23-4l-.84-9.7a3.77,3.77,0,0,0-3.88-3.43Z"/></g><g id="LWPOLYLINE-35" data-name="LWPOLYLINE"><path class="cls-6" d="M198.79,62.69l-5.36-2.07a2.34,2.34,0,0,1-1.38-2.92l3-9.25a2.33,2.33,0,0,1,2.84-1.52l5.55,1.52"/></g><g id="LWPOLYLINE-36" data-name="LWPOLYLINE"><path class="cls-6" d="M198.79,114.71l-5.36,2.07a2.34,2.34,0,0,0-1.38,2.92l3,9.26a2.34,2.34,0,0,0,2.84,1.52l5.55-1.52"/></g><g id="LWPOLYLINE-37" data-name="LWPOLYLINE"><path class="cls-6" d="M196,92.58l-5.7.78a2.34,2.34,0,0,0-2,2.53l.83,9.7a2.36,2.36,0,0,0,2.43,2.14l5.74-.21"/></g><g id="LWPOLYLINE-38" data-name="LWPOLYLINE"><path class="cls-6" d="M229.91,107.88l5.75.05a2.34,2.34,0,0,0,2.36-2.21L238.6,96a2.35,2.35,0,0,0-2.09-2.47l-5.71-.63"/></g><g id="LWPOLYLINE-39" data-name="LWPOLYLINE"><path class="cls-6" d="M196,84.83l-5.7-.78a2.34,2.34,0,0,1-2-2.53l.83-9.7a2.35,2.35,0,0,1,2.43-2.14l5.74.21"/></g><g id="LWPOLYLINE-40" data-name="LWPOLYLINE"><path class="cls-6" d="M228.29,62.69l5.36-2.07A2.34,2.34,0,0,0,235,57.7L232,48.45a2.33,2.33,0,0,0-2.84-1.52l-5.55,1.52"/></g><g id="LWPOLYLINE-41" data-name="LWPOLYLINE"><path class="cls-6" d="M228.29,114.71l5.36,2.07A2.34,2.34,0,0,1,235,119.7L232,129a2.34,2.34,0,0,1-2.84,1.52L223.59,129"/></g><g id="LWPOLYLINE-42" data-name="LWPOLYLINE"><path class="cls-6" d="M231,84.83l5.7-.78a2.34,2.34,0,0,0,2-2.53l-.84-9.7a2.33,2.33,0,0,0-2.42-2.14l-5.74.21"/></g><g id="ELLIPSE"><path class="cls-3" d="M213.54,139.29c10.36,0,18.75-22.65,18.75-50.59s-8.39-50.59-18.75-50.59S194.79,60.76,194.79,88.7s8.39,50.59,18.75,50.59Z"/></g><line class="cls-6" x1="538.8" y1="52.85" x2="538.8" y2="109.1"/><line class="cls-6" x1="536.37" y1="52.85" x2="536.37" y2="109.1"/><g id="LWPOLYLINE-43" data-name="LWPOLYLINE"><polyline class="cls-7" points="561.59 17.22 561.59 22.84 449.79 22.84 449.79 17.22"/></g><g id="LINE-17" data-name="LINE"><line class="cls-8" x1="480.37" y1="12.53" x2="531.7" y2="12.53"/></g><g id="LINE-18" data-name="LINE"><line class="cls-8" x1="535.45" y1="12.53" x2="558.54" y2="12.53"/></g><g id="LINE-19" data-name="LINE"><line class="cls-8" x1="476.62" y1="12.53" x2="453.53" y2="12.53"/></g><g id="LWPOLYLINE-44" data-name="LWPOLYLINE"><polyline class="cls-7" points="269.79 17.22 269.79 22.84 157.29 22.84 157.29 17.22"/></g><g id="LWPOLYLINE-45" data-name="LWPOLYLINE"><polyline class="cls-7" points="416.16 17.22 416.16 22.84 303.66 22.84 303.66 17.22"/></g><g id="LWPOLYLINE-46" data-name="LWPOLYLINE"><polyline class="cls-7" points="123.54 17.22 123.54 22.84 11.74 22.84 11.74 17.22"/></g><g id="LWPOLYLINE-47" data-name="LWPOLYLINE"><polygon class="cls-8" points="179.32 13.47 178.38 13.47 161.04 13.47 160.1 13.47 160.1 14.7 178.38 14.7 179.32 14.7 179.32 13.47"/></g><g id="LWPOLYLINE-48" data-name="LWPOLYLINE"><polygon class="cls-8" points="212.02 13.47 211.31 13.47 181.2 13.47 181.2 14.7 212 14.7 212.02 13.47"/></g><g id="LWPOLYLINE-49" data-name="LWPOLYLINE"><polygon class="cls-8" points="245.88 13.47 244.95 13.47 215.77 13.47 215.06 13.47 215.06 14.7 245.88 14.7 245.88 13.47"/></g><g id="LWPOLYLINE-50" data-name="LWPOLYLINE"><polygon class="cls-8" points="266.98 13.47 266.04 13.47 247.76 13.47 247.76 14.7 266.98 14.7 266.98 13.47"/></g><g id="LWPOLYLINE-51" data-name="LWPOLYLINE"><polygon class="cls-8" points="325.69 13.47 324.75 13.47 307.41 13.47 306.47 13.47 306.47 14.7 324.75 14.7 325.69 14.7 325.69 13.47"/></g><g id="LWPOLYLINE-52" data-name="LWPOLYLINE"><polygon class="cls-8" points="358.38 13.47 357.68 13.47 327.56 13.47 327.56 14.7 358.37 14.7 358.38 13.47"/></g><g id="LWPOLYLINE-53" data-name="LWPOLYLINE"><polygon class="cls-8" points="392.25 13.47 391.31 13.47 362.13 13.47 361.43 13.47 361.43 14.7 392.25 14.7 392.25 13.47"/></g><g id="LWPOLYLINE-54" data-name="LWPOLYLINE"><polygon class="cls-8" points="413.35 13.47 412.41 13.47 394.13 13.47 394.13 14.7 413.35 14.7 413.35 13.47"/></g><g id="LWPOLYLINE-55" data-name="LWPOLYLINE"><polygon class="cls-8" points="532.18 13.47 479.91 13.47 479.91 14.7 532.17 14.7 532.18 13.47"/></g><g id="LWPOLYLINE-56" data-name="LWPOLYLINE"><polygon class="cls-8" points="559.48 13.47 558.54 13.47 534.75 13.47 534.75 14.7 559.48 14.7 559.48 13.47"/></g><g id="LWPOLYLINE-57" data-name="LWPOLYLINE"><polygon class="cls-8" points="452.6 13.47 453.53 13.47 477.32 13.47 477.32 14.7 452.6 14.7 452.6 13.47"/></g><g id="LWPOLYLINE-58" data-name="LWPOLYLINE"><polygon class="cls-8" points="93.43 13.47 41.16 13.47 41.16 14.7 93.42 14.7 93.43 13.47"/></g><g id="LWPOLYLINE-59" data-name="LWPOLYLINE"><polygon class="cls-8" points="120.73 13.47 119.79 13.47 96 13.47 96 14.7 120.73 14.7 120.73 13.47"/></g><g id="LWPOLYLINE-60" data-name="LWPOLYLINE"><polygon class="cls-8" points="13.85 13.47 14.78 13.47 38.57 13.47 38.57 14.7 13.85 14.7 13.85 13.47"/></g><line class="cls-8" x1="14.78" y1="17.22" x2="120.45" y2="17.22"/><line class="cls-8" x1="161.04" y1="17.22" x2="266.04" y2="17.22"/><line class="cls-8" x1="307.41" y1="17.22" x2="412.41" y2="17.22"/><line class="cls-8" x1="453.53" y1="17.22" x2="558.54" y2="17.22"/><g id="LWPOLYLINE-61" data-name="LWPOLYLINE"><polyline class="cls-9" points="213.07 10.19 214.01 10.19 214.01 12.53 215.77 12.53 215.77 13.47 215.06 13.47 215.06 14.7 215.77 14.7 215.77 17.22 213.89 17.22 213.89 16.75 213.19 16.75 213.19 17.22 211.31 17.22 211.31 14.7 212 14.7 212.02 13.47 211.31 13.47 211.31 12.53 213.07 12.53 213.07 10.19"/></g><g id="LWPOLYLINE-62" data-name="LWPOLYLINE"><polygon class="cls-9" points="244.95 14.7 245.88 14.7 245.88 13.47 244.95 13.47 244.95 12.53 246.82 12.53 246.82 10.19 247.76 10.19 247.76 12.53 248.7 12.53 248.7 13.47 247.76 13.47 247.76 14.7 248.7 14.7 248.7 15.87 247.88 15.87 247.88 16.75 246.82 16.75 246.82 17.22 244.95 17.22 244.95 14.7"/></g><g id="LWPOLYLINE-63" data-name="LWPOLYLINE"><polygon class="cls-9" points="269.79 12.53 268.85 12.53 268.85 8.78 267.92 8.78 267.92 12.53 266.04 12.53 266.04 13.47 266.98 13.47 266.98 14.7 266.04 14.7 266.04 17.22 269.79 17.22 269.79 12.53"/></g><g id="LWPOLYLINE-64" data-name="LWPOLYLINE"><polygon class="cls-9" points="161.04 14.7 160.1 14.7 160.1 13.47 161.04 13.47 161.04 12.53 159.16 12.53 159.16 8.78 158.23 8.78 158.23 12.53 157.29 12.53 157.29 17.22 161.04 17.22 161.04 14.7"/></g><g id="LWPOLYLINE-65" data-name="LWPOLYLINE"><polygon class="cls-9" points="182.13 14.7 181.2 14.7 181.2 13.47 182.13 13.47 182.13 12.53 180.26 12.53 180.26 10.19 179.32 10.19 179.32 12.53 178.38 12.53 178.38 13.47 179.32 13.47 179.32 14.7 178.38 14.7 178.38 15.87 179.2 15.87 179.2 16.75 180.26 16.75 180.26 17.22 182.13 17.22 182.13 14.7"/></g><g id="LWPOLYLINE-66" data-name="LWPOLYLINE"><polyline class="cls-9" points="359.44 10.19 360.38 10.19 360.38 12.53 362.13 12.53 362.13 13.47 361.43 13.47 361.43 14.7 362.13 14.7 362.13 17.22 360.26 17.22 360.26 16.75 359.56 16.75 359.56 17.22 357.68 17.22 357.68 14.7 358.37 14.7 358.38 13.47 357.68 13.47 357.68 12.53 359.44 12.53 359.44 10.19"/></g><g id="LWPOLYLINE-67" data-name="LWPOLYLINE"><polygon class="cls-9" points="391.31 14.7 392.25 14.7 392.25 13.47 391.31 13.47 391.31 12.53 393.19 12.53 393.19 10.19 394.13 10.19 394.13 12.53 395.06 12.53 395.06 13.47 394.13 13.47 394.13 14.7 395.06 14.7 395.06 15.87 394.24 15.87 394.24 16.75 393.19 16.75 393.19 17.22 391.31 17.22 391.31 14.7"/></g><g id="LWPOLYLINE-68" data-name="LWPOLYLINE"><polygon class="cls-9" points="416.16 12.53 415.22 12.53 415.22 8.78 414.28 8.78 414.28 12.53 412.41 12.53 412.41 13.47 413.35 13.47 413.35 14.7 412.41 14.7 412.41 17.22 416.16 17.22 416.16 12.53"/></g><g id="LWPOLYLINE-69" data-name="LWPOLYLINE"><polygon class="cls-9" points="307.41 14.7 306.47 14.7 306.47 13.47 307.41 13.47 307.41 12.53 305.53 12.53 305.53 8.78 304.6 8.78 304.6 12.53 303.66 12.53 303.66 17.22 307.41 17.22 307.41 14.7"/></g><g id="LWPOLYLINE-70" data-name="LWPOLYLINE"><polygon class="cls-9" points="328.5 14.7 327.56 14.7 327.56 13.47 328.5 13.47 328.5 12.53 326.63 12.53 326.63 10.19 325.69 10.19 325.69 12.53 324.75 12.53 324.75 13.47 325.69 13.47 325.69 14.7 324.75 14.7 324.75 15.87 325.57 15.87 325.57 16.75 326.63 16.75 326.63 17.22 328.5 17.22 328.5 14.7"/></g><g id="LWPOLYLINE-71" data-name="LWPOLYLINE"><polygon class="cls-9" points="535.45 14.7 534.75 14.7 534.75 13.47 535.45 13.47 535.45 12.53 533.7 12.53 533.7 10.19 532.76 10.19 532.76 12.53 531.7 12.53 531.7 13.47 532.17 13.47 532.17 14.7 531.47 14.7 531.47 15.87 532.41 15.87 532.41 16.75 533.58 16.75 533.58 17.22 535.45 17.22 535.45 14.7"/></g><g id="LWPOLYLINE-72" data-name="LWPOLYLINE"><polygon class="cls-9" points="562.29 12.53 560.71 12.53 560.71 8.78 559.77 8.78 559.77 12.53 558.54 12.53 558.54 13.47 559.48 13.47 559.48 14.7 558.54 14.7 558.54 17.22 562.29 17.22 562.29 12.53"/></g><g id="LWPOLYLINE-73" data-name="LWPOLYLINE"><polygon class="cls-9" points="476.62 14.7 477.32 14.7 477.32 13.47 476.62 13.47 476.62 12.53 478.38 12.53 478.38 10.19 479.31 10.19 479.31 12.53 480.37 12.53 480.37 13.47 479.9 13.47 479.9 14.7 480.6 14.7 480.6 15.87 479.67 15.87 479.67 16.75 478.5 16.75 478.5 17.22 476.62 17.22 476.62 14.7"/></g><g id="LWPOLYLINE-74" data-name="LWPOLYLINE"><polygon class="cls-9" points="449.78 12.53 451.37 12.53 451.37 8.78 452.31 8.78 452.31 12.53 453.53 12.53 453.53 13.47 452.6 13.47 452.6 14.7 453.53 14.7 453.53 17.22 449.78 17.22 449.78 12.53"/></g><g id="LWPOLYLINE-75" data-name="LWPOLYLINE"><polygon class="cls-9" points="96.7 14.7 96 14.7 96 13.47 96.7 13.47 96.7 12.53 94.95 12.53 94.95 10.19 94.01 10.19 94.01 12.53 92.95 12.53 92.95 13.47 93.42 13.47 93.42 14.7 92.72 14.7 92.72 15.87 93.66 15.87 93.66 16.75 94.83 16.75 94.83 17.22 96.7 17.22 96.7 14.7"/></g><g id="LWPOLYLINE-76" data-name="LWPOLYLINE"><polygon class="cls-9" points="123.54 12.53 121.96 12.53 121.96 8.78 121.02 8.78 121.02 12.53 119.79 12.53 119.79 13.47 120.73 13.47 120.73 14.7 119.79 14.7 119.79 17.22 123.54 17.22 123.54 12.53"/></g><g id="LWPOLYLINE-77" data-name="LWPOLYLINE"><polygon class="cls-9" points="37.87 14.7 38.57 14.7 38.57 13.47 37.87 13.47 37.87 12.53 39.63 12.53 39.63 10.19 40.56 10.19 40.56 12.53 41.62 12.53 41.62 13.47 41.15 13.47 41.15 14.7 41.85 14.7 41.85 15.87 40.92 15.87 40.92 16.75 39.74 16.75 39.74 17.22 37.87 17.22 37.87 14.7"/></g><g id="LWPOLYLINE-78" data-name="LWPOLYLINE"><polygon class="cls-9" points="11.03 12.53 12.62 12.53 12.62 8.78 13.56 8.78 13.56 12.53 14.78 12.53 14.78 13.47 13.85 13.47 13.85 14.7 14.78 14.7 14.78 17.22 11.03 17.22 11.03 12.53"/></g><g id="LWPOLYLINE-79" data-name="LWPOLYLINE"><polyline class="cls-7" points="269.79 17.22 269.79 8.78 157.29 8.78 157.29 17.22"/></g><g id="LWPOLYLINE-80" data-name="LWPOLYLINE"><polyline class="cls-7" points="416.16 17.22 416.16 8.78 303.66 8.78 303.66 17.22"/></g><g id="LWPOLYLINE-81" data-name="LWPOLYLINE"><polyline class="cls-7" points="562.29 17.22 562.29 8.78 449.79 8.78 449.79 17.22"/></g><g id="LWPOLYLINE-82" data-name="LWPOLYLINE"><polyline class="cls-7" points="123.54 17.22 123.54 8.78 11.04 8.78 11.04 17.22"/></g><g id="LWPOLYLINE-83" data-name="LWPOLYLINE"><rect class="cls-10" x="501.12" y="167.22" width="1.64" height="33.75"/></g><g id="LWPOLYLINE-84" data-name="LWPOLYLINE"><rect class="cls-11" x="443.32" y="144.5" width="33.75" height="1.64" transform="translate(32.03 367.97) rotate(-45)"/></g><g id="LWPOLYLINE-85" data-name="LWPOLYLINE"><rect class="cls-11" x="139.37" y="125.64" width="1.64" height="33.75" transform="translate(-59.71 140.88) rotate(-45)"/></g><g id="LWPOLYLINE-86" data-name="LWPOLYLINE"><rect class="cls-10" x="423.33" y="210.59" width="1.64" height="33.75" transform="translate(-36.61 366.54) rotate(-45)"/></g><g id="LWPOLYLINE-87" data-name="LWPOLYLINE"><rect class="cls-10" x="473.48" y="212.81" width="22.48" height="1.64"/></g><g id="LWPOLYLINE-88" data-name="LWPOLYLINE"><rect class="cls-10" x="450.96" y="212.81" width="22.52" height="1.64"/></g><g id="LWPOLYLINE-89" data-name="LWPOLYLINE"><rect class="cls-11" x="342.68" y="210.69" width="33.75" height="1.64"/></g><g id="LWPOLYLINE-90" data-name="LWPOLYLINE"><rect class="cls-10" x="64.59" y="160.19" width="33.75" height="1.64"/></g><g id="LWPOLYLINE-91" data-name="LWPOLYLINE"><rect class="cls-10" x="112.06" y="160.19" width="33.75" height="1.64"/></g><g id="LWPOLYLINE-92" data-name="LWPOLYLINE"><rect class="cls-11" x="423.33" y="210.59" width="1.64" height="33.75" transform="translate(-36.61 366.54) rotate(-45)"/></g><g id="ARC-28" data-name="ARC"><path class="cls-10" d="M481.43,156.67a33.74,33.74,0,0,0-9.89-23.86"/></g><g id="ARC-29" data-name="ARC"><path class="cls-10" d="M151.55,121.28a33.77,33.77,0,0,0-23.87,9.89"/></g><g id="ARC-30" data-name="ARC"><path class="cls-10" d="M412.8,215a33.74,33.74,0,0,0-9.89,23.86"/></g><g id="ARC-31" data-name="ARC"><path class="cls-10" d="M412.8,215a33.74,33.74,0,0,0-9.89,23.86"/></g><g id="LWPOLYLINE-94" data-name="LWPOLYLINE"><rect class="cls-12" x="314.67" y="210.69" width="28.01" height="23.85"/></g><g id="LWPOLYLINE-95" data-name="LWPOLYLINE"><rect class="cls-12" x="167.6" y="163.7" width="22.63" height="24.84"/></g><g id="LWPOLYLINE-96" data-name="LWPOLYLINE"><polyline class="cls-8" points="190.25 188.55 190.25 210.69 314.81 210.69 314.81 233.66 167.6 233.66 167.6 188.55"/></g><g id="LWPOLYLINE-97" data-name="LWPOLYLINE"><polyline class="cls-8" points="234.33 227.55 234.33 214.16 209.22 214.16 209.22 227.55 234.33 227.55"/></g><rect class="cls-12" x="218.97" y="228.63" width="3.06" height="1.28"/><path class="cls-12" d="M222.7,228.75a.92.92,0,0,0-.3-.29V222a.46.46,0,0,0-.46-.46.47.47,0,0,0-.47.46v6.45a.89.89,0,0,0,.93,1.52A.9.9,0,0,0,222.7,228.75Z"/><g id="CIRCLE-25" data-name="CIRCLE"><path class="cls-8" d="M275.8,216a.78.78,0,1,1,.78-.78.78.78,0,0,1-.78.78Z"/></g><g id="CIRCLE-26" data-name="CIRCLE"><path class="cls-8" d="M270.89,216a.78.78,0,1,1,.78-.78.78.78,0,0,1-.78.78Z"/></g><g id="CIRCLE-27" data-name="CIRCLE"><path class="cls-8" d="M270.89,219.2a.79.79,0,1,1,.78-.79.78.78,0,0,1-.78.79Z"/></g><g id="CIRCLE-28" data-name="CIRCLE"><path class="cls-8" d="M273.35,219.2a.79.79,0,1,1,.78-.79.79.79,0,0,1-.78.79Z"/></g><g id="CIRCLE-29" data-name="CIRCLE"><path class="cls-8" d="M275.8,219.2a.79.79,0,1,1,.78-.79.78.78,0,0,1-.78.79Z"/></g><g id="LWPOLYLINE-98" data-name="LWPOLYLINE"><rect class="cls-8" x="258.2" y="211.97" width="30.29" height="18" rx="0.42"/></g><circle class="cls-8" cx="263.6" cy="225.3" r="1.48"/><path class="cls-8" d="M268.08,221.74v6.56a.62.62,0,0,1-.63.62h-7.69a.62.62,0,0,1-.64-.62v-6.56a.06.06,0,0,1,.05-.06H268A.06.06,0,0,1,268.08,221.74Z"/><circle class="cls-8" cx="273.35" cy="225.3" r="1.48"/><path class="cls-8" d="M277.83,221.74v6.56a.63.63,0,0,1-.64.62H269.5a.63.63,0,0,1-.64-.62v-6.56a.06.06,0,0,1,.06-.06h8.86A.06.06,0,0,1,277.83,221.74Z"/><circle class="cls-8" cx="283.09" cy="225.3" r="1.48"/><path class="cls-8" d="M287.57,221.74v6.56a.62.62,0,0,1-.63.62h-7.7a.62.62,0,0,1-.63-.62v-6.56a.06.06,0,0,1,.05-.06h8.86A.06.06,0,0,1,287.57,221.74Z"/><circle class="cls-8" cx="283.09" cy="216.81" r="1.48"/><path class="cls-8" d="M278.61,220.37v-6.56a.62.62,0,0,1,.63-.62h7.7a.62.62,0,0,1,.63.62v6.56a.06.06,0,0,1-.05.06h-8.86A.06.06,0,0,1,278.61,220.37Z"/><circle class="cls-8" cx="263.6" cy="216.81" r="1.48"/><path class="cls-8" d="M259.12,220.37v-6.56a.62.62,0,0,1,.64-.62h7.69a.62.62,0,0,1,.63.62v6.56a.06.06,0,0,1-.05.06h-8.86A.06.06,0,0,1,259.12,220.37Z"/><g id="LINE-20" data-name="LINE"><line class="cls-8" x1="314.63" y1="220.95" x2="313.63" y2="220.95"/><line class="cls-13" x1="311.63" y1="220.95" x2="181" y2="220.95"/><polyline class="cls-8" points="180 220.95 179 220.95 179 219.95"/><line class="cls-14" x1="179.01" y1="217.92" x2="179.01" y2="190.56"/><line class="cls-8" x1="179.01" y1="189.55" x2="179.01" y2="188.55"/></g><g id="LWPOLYLINE-99" data-name="LWPOLYLINE"><polyline class="cls-15" points="190.41 210.81 190.41 229.91 207.61 229.91 207.61 210.81"/></g><g id="LWPOLYLINE-100" data-name="LWPOLYLINE"><rect class="cls-8" x="1.95" y="163.7" width="36.16" height="69.96"/></g><g id="LWPOLYLINE-101" data-name="LWPOLYLINE"><path class="cls-8" d="M21.1,229.27h7.22a4.75,4.75,0,0,0,4.75-4.75V172.09a4.75,4.75,0,0,0-4.75-4.75H13.1a4.75,4.75,0,0,0-4.75,4.75v52.43a4.75,4.75,0,0,0,4.75,4.75h7.22"/></g><g id="ARC-32" data-name="ARC"><path class="cls-8" d="M21.28,226.8a3.28,3.28,0,1,0-.78,0"/></g><g id="LWPOLYLINE-102" data-name="LWPOLYLINE"><path class="cls-8" d="M20.5,223.54v10.17h.77V223.54a.39.39,0,1,0-.77,0Z"/></g><g id="LWPOLYLINE-103" data-name="LWPOLYLINE"><rect class="cls-8" x="520.1" y="205.07" width="35.62" height="33.75"/></g><g id="ARC-33" data-name="ARC"><path class="cls-8" d="M549.45,220.61a3.29,3.29,0,1,0,0,.79"/></g><g id="LWPOLYLINE-104" data-name="LWPOLYLINE"><path class="cls-8" d="M546.19,221.4h10.17v-.78H546.19a.38.38,0,0,0-.39.39A.39.39,0,0,0,546.19,221.4Z"/></g><g id="LWPOLYLINE-105" data-name="LWPOLYLINE"><rect class="cls-12" x="521.04" y="204.98" width="33.75" height="0.83"/></g><g id="LWPOLYLINE-106" data-name="LWPOLYLINE"><rect class="cls-12" x="520.1" y="204.98" width="0.94" height="0.83"/></g><g id="LWPOLYLINE-107" data-name="LWPOLYLINE"><rect class="cls-12" x="554.79" y="204.98" width="0.94" height="0.83"/></g><g id="LWPOLYLINE-108" data-name="LWPOLYLINE"><line class="cls-15" x1="447.21" y1="228.04" x2="513.31" y2="228.04"/></g><g id="LWPOLYLINE-109" data-name="LWPOLYLINE"><polyline class="cls-15" points="108.31 208.94 152.84 208.94 152.84 163.7"/></g><line class="cls-16" x1="157.29" y1="0.34" x2="269.79" y2="0.34"/><line class="cls-16" x1="11.04" y1="0.34" x2="123.54" y2="0.34"/><g id="LINE-21" data-name="LINE"><line class="cls-9" x1="112.25" y1="215.47" x2="112.25" y2="202.41"/></g><g id="LINE-22" data-name="LINE"><line class="cls-9" x1="114.67" y1="215.47" x2="114.67" y2="202.41"/></g><g id="LINE-23" data-name="LINE"><line class="cls-9" x1="117.09" y1="215.47" x2="117.09" y2="202.41"/></g><g id="LINE-24" data-name="LINE"><line class="cls-9" x1="119.51" y1="215.47" x2="119.51" y2="202.41"/></g><g id="LINE-25" data-name="LINE"><line class="cls-9" x1="121.93" y1="215.47" x2="121.93" y2="202.41"/></g><g id="LINE-26" data-name="LINE"><line class="cls-9" x1="124.35" y1="202.41" x2="124.35" y2="215.47"/></g><g id="LINE-27" data-name="LINE"><line class="cls-9" x1="451.16" y1="234.1" x2="451.16" y2="221.04"/></g><g id="LINE-28" data-name="LINE"><line class="cls-9" x1="453.58" y1="234.1" x2="453.58" y2="221.04"/></g><g id="LINE-29" data-name="LINE"><line class="cls-9" x1="456" y1="234.1" x2="456" y2="221.04"/></g><g id="LINE-30" data-name="LINE"><line class="cls-9" x1="458.41" y1="234.1" x2="458.42" y2="221.04"/></g><g id="LINE-31" data-name="LINE"><line class="cls-9" x1="460.83" y1="234.1" x2="460.84" y2="221.04"/></g><g id="LINE-32" data-name="LINE"><line class="cls-9" x1="463.25" y1="221.04" x2="463.25" y2="234.1"/></g><g id="LINE-33" data-name="LINE"><line class="cls-9" x1="146.31" y1="167.65" x2="159.36" y2="167.65"/></g><g id="LINE-34" data-name="LINE"><line class="cls-9" x1="146.31" y1="170.07" x2="159.36" y2="170.07"/></g><g id="LINE-35" data-name="LINE"><line class="cls-9" x1="146.31" y1="172.49" x2="159.36" y2="172.49"/></g><g id="LINE-36" data-name="LINE"><line class="cls-9" x1="146.31" y1="174.91" x2="159.36" y2="174.91"/></g><g id="LINE-37" data-name="LINE"><line class="cls-9" x1="146.31" y1="177.33" x2="159.36" y2="177.33"/></g><g id="LINE-38" data-name="LINE"><line class="cls-9" x1="159.36" y1="179.75" x2="146.31" y2="179.75"/></g><g id="LWPOLYLINE-110" data-name="LWPOLYLINE"><rect class="cls-8" x="44.57" y="213.37" width="25.51" height="19.59"/></g><g id="LWPOLYLINE-111" data-name="LWPOLYLINE"><path class="cls-8" d="M65.07,217.2A1.09,1.09,0,0,0,64,216.1H50.68a1.09,1.09,0,0,0-1.09,1.1V227a.91.91,0,0,0,.91.91H64.16a.91.91,0,0,0,.91-.91Z"/></g><g id="ARC-34" data-name="ARC"><path class="cls-8" d="M80,216.63c-.35,3.12-1,11.38-1,11.38"/></g><g id="ARC-35" data-name="ARC"><path class="cls-8" d="M91.07,223.87a.81.81,0,0,0,.76-.51c.15-.34.28-.69.4-1a15.06,15.06,0,0,0,.63-2.89c.06-.53.1-1.05.13-1.58a15.3,15.3,0,0,0-.34-4.1,9.94,9.94,0,0,0-3-5.24,4.87,4.87,0,0,0-3.23-1.23,4.82,4.82,0,0,0-3.21,1.3,10,10,0,0,0-2.93,5.29A15.74,15.74,0,0,0,80,218c0,.52.09,1.05.16,1.57a14.38,14.38,0,0,0,.69,2.88c.12.35.26.69.41,1a.82.82,0,0,0,.77.5Z"/></g><g id="ARC-36" data-name="ARC"><path class="cls-8" d="M93,216.5c.41,3.12,1,11.51,1,11.51"/></g><g id="ARC-37" data-name="ARC"><path class="cls-8" d="M79,227.86a1.08,1.08,0,0,1,1-1,55.28,55.28,0,0,1,13.11,0,1.06,1.06,0,0,1,.95,1v0c.06,1.13.1,2.25.13,3.38a1.46,1.46,0,0,1-1.33,1.47c-2.09.18-4.2.27-6.31.27s-4.21-.09-6.31-.27a1.45,1.45,0,0,1-1.32-1.47c0-1.13.07-2.25.12-3.38Z"/></g><g id="ARC-38" data-name="ARC"><path class="cls-8" d="M56.87,229.37a1.14,1.14,0,0,0-.69,1,1.16,1.16,0,0,0,1.15,1.15,1.15,1.15,0,0,0,.46-2.2Z"/></g><g id="ARC-39" data-name="ARC"><path class="cls-8" d="M51.61,230.65a1.15,1.15,0,0,0,2.27-.23,1.15,1.15,0,0,0-2.27-.23Z"/></g><g id="ARC-40" data-name="ARC"><path class="cls-8" d="M63.05,230.65a1.15,1.15,0,1,1,0-.46Z"/></g><g id="LINE-39" data-name="LINE"><path class="cls-8" d="M56.87,224.91v5.51a.46.46,0,0,0,.92,0v-5.51a.46.46,0,1,0-.92,0Z"/></g><line class="cls-8" x1="52.75" y1="230.42" x2="49.52" y2="230.42"/><line class="cls-8" x1="65.14" y1="230.42" x2="61.91" y2="230.42"/><g id="LWPOLYLINE-112" data-name="LWPOLYLINE"><rect class="cls-8" x="564.41" y="173.34" width="20.26" height="26.39"/></g><g id="LWPOLYLINE-113" data-name="LWPOLYLINE"><path class="cls-8" d="M568.37,178.53a1.13,1.13,0,0,0-1.14,1.13v13.75a1.14,1.14,0,0,0,1.14,1.14h10.17a1,1,0,0,0,1-1V179.47a1,1,0,0,0-1-.94Z"/></g><g id="ARC-41" data-name="ARC"><path class="cls-8" d="M567.78,163.13c3.23.35,11.77,1,11.77,1"/></g><g id="ARC-42" data-name="ARC"><path class="cls-8" d="M575.27,151.63a.85.85,0,0,0-.53-.78c-.35-.15-.71-.29-1.08-.41a14.5,14.5,0,0,0-3-.65c-.54-.07-1.08-.11-1.62-.14a15.94,15.94,0,0,0-4.25.35,10.33,10.33,0,0,0-5.42,3.13,4.91,4.91,0,0,0,.07,6.67,10.33,10.33,0,0,0,5.48,3,15.91,15.91,0,0,0,4.25.27c.54,0,1.08-.09,1.62-.17a14.69,14.69,0,0,0,3-.71c.36-.13.72-.27,1.07-.42a.87.87,0,0,0,.51-.8Z"/></g><g id="ARC-43" data-name="ARC"><path class="cls-8" d="M567.65,149.64c3.22-.42,11.9-1,11.9-1"/></g><g id="ARC-44" data-name="ARC"><path class="cls-8" d="M579.4,164.15a1.12,1.12,0,0,1-1.06-1,56.26,56.26,0,0,1,0-13.56,1.12,1.12,0,0,1,1.06-1h0c1.17-.05,2.33-.1,3.5-.12a1.49,1.49,0,0,1,1.52,1.36q.29,3.26.28,6.53t-.28,6.53a1.49,1.49,0,0,1-1.52,1.36c-1.17,0-2.33-.07-3.5-.12Z"/></g><g id="ARC-45" data-name="ARC"><path class="cls-8" d="M581,187a1.19,1.19,0,1,0,0-.95Z"/></g><g id="ARC-46" data-name="ARC"><path class="cls-8" d="M582.28,192.45a1.19,1.19,0,1,0-.48,0Z"/></g><g id="ARC-47" data-name="ARC"><path class="cls-8" d="M582.28,180.62a1.19,1.19,0,1,1-.48,0Z"/></g><g id="LINE-40" data-name="LINE"><path class="cls-8" d="M576.34,187H582a.48.48,0,1,0,0-.95h-5.7a.48.48,0,1,0,0,.95Z"/></g><line class="cls-8" x1="582.04" y1="191.28" x2="582.04" y2="194.61"/><line class="cls-8" x1="582.04" y1="178.46" x2="582.04" y2="181.8"/><g id="LWPOLYLINE-114" data-name="LWPOLYLINE"><polygon class="cls-17" points="451.66 251.11 451.66 240.78 563.93 240.78 563.93 214.12 592.05 214.12 592.05 0.76 591.04 2.55 589.42 4.5 587.49 6.14 585.3 7.41 582.92 8.28 580.43 8.73 577.9 8.73 575.4 8.28 573.03 7.41 570.84 6.14 568.91 4.5 567.29 2.55 566.04 0.34 562.29 0.34 562.29 17.22 561.59 17.22 561.59 137.92 499.24 137.92 499.24 156.67 481.43 156.67 481.43 160.19 499.24 160.19 499.24 167.22 502.76 167.22 502.76 141.44 584.79 141.44 584.79 205.07 555.73 205.07 555.73 238.82 520.1 238.82 520.1 205.07 502.76 205.07 502.76 200.97 499.24 200.97 499.24 212.81 495.96 212.81 495.96 216.32 513.3 216.32 513.3 238.82 447.21 238.82 447.21 216.32 450.96 216.32 450.96 212.81 440.41 212.81 440.41 238.82 436.66 238.82 436.66 244.56 439.59 244.56 439.59 250.19 445.34 250.19 445.34 251.11 448.09 251.11 451.66 251.11"/></g><g id="LWPOLYLINE-115" data-name="LWPOLYLINE"><polygon class="cls-17" points="444.15 160.19 447.68 160.19 447.68 156.67 443.93 156.67 443.93 22.84 449.79 22.84 449.79 0.34 446.04 0.34 444.79 2.55 443.17 4.5 441.24 6.14 439.05 7.41 436.68 8.28 434.18 8.73 431.65 8.73 429.15 8.28 426.78 7.41 424.59 6.14 422.66 4.5 421.04 2.55 419.79 0.34 416.04 0.34 416.04 22.84 440.41 22.84 440.41 160.19 444.15 160.19"/></g><g id="LWPOLYLINE-116" data-name="LWPOLYLINE"><polygon class="cls-17" points="151.55 121.28 157.29 121.28 157.29 0.34 153.54 0.34 152.29 2.55 150.67 4.5 148.74 6.14 146.55 7.41 144.18 8.28 141.68 8.73 139.15 8.73 136.65 8.28 134.28 7.41 132.09 6.14 130.16 4.5 128.54 2.55 127.29 0.34 123.54 0.34 123.54 22.84 151.55 22.84 151.55 75.42 151.55 121.28"/></g><g id="LWPOLYLINE-117" data-name="LWPOLYLINE"><polygon class="cls-17" points="296.16 53.9 303.66 53.9 303.66 0.34 299.79 0.34 298.54 2.55 296.92 4.5 294.99 6.14 292.8 7.41 290.43 8.28 287.93 8.73 285.4 8.73 282.9 8.28 280.53 7.41 278.34 6.14 276.41 4.5 274.79 2.55 273.54 0.34 269.79 0.34 269.79 17.22 269.67 17.22 269.67 53.9 296.16 53.9"/></g><polygon class="cls-17" points="386.04 238.82 386.04 210.23 376.43 210.23 376.43 238.82 342.56 238.82 342.56 233.66 167.6 233.66 167.6 163.7 191.04 163.7 191.04 160.19 157.29 160.19 157.29 155.03 151.55 155.03 151.55 160.19 145.81 160.19 145.81 163.7 164.09 163.7 164.09 220.19 108.31 220.19 108.31 163.7 112.06 163.7 112.06 160.19 98.34 160.19 98.34 163.7 104.79 163.7 104.79 233.08 3.07 233.08 3.07 163.7 64.59 163.7 64.59 160.19 11.74 160.19 11.74 17.22 11.04 17.22 11.04 0.34 0.2 0.34 0.2 241.31 344.79 241.31 344.79 247.62 344.79 248.27 344.79 250.19 344.79 303.19 378.36 303.19 378.36 250.19 388.97 250.19 388.97 244.56 402.91 244.56 402.91 238.82 386.04 238.82"/><path class="cls-18" d="M48.12,74.67H49l1.82,4.44h0l1.82-4.44h.88v5.6h-.66V75.72h0L51,80.27h-.28L48.8,75.72h0v4.55h-.66Z"/><path class="cls-18" d="M58.47,79.14H56l-.39,1.13h-.68l2-5.6h.64l2,5.6h-.68Zm-.2-.58-1.05-3h0l-1,3Z"/><path class="cls-18" d="M60.43,78.41l.65-.11a1.46,1.46,0,0,0,1.66,1.46c.77,0,1.28-.36,1.28-.9s-.37-.88-1.54-1.25c-1.33-.44-1.78-.83-1.78-1.58s.73-1.48,1.79-1.48a2,2,0,0,1,2,1.63l-.65.14a1.34,1.34,0,0,0-1.39-1.15c-.68,0-1.13.34-1.13.86s.32.66,1.35,1c1.45.47,2,1,2,1.84s-.79,1.54-2,1.54A2.05,2.05,0,0,1,60.43,78.41Z"/><path class="cls-18" d="M67.47,75.29H65.72v-.62h4.15v.62H68.13v5h-.66Z"/><path class="cls-18" d="M71.34,74.67H74.7v.62H72v1.79h2.48v.6H72v2h2.7v.63H71.34Z"/><path class="cls-18" d="M78.8,78,80,80.27h-.78L78.07,78H77v2.27H76.3v-5.6h2c1.17,0,1.87.62,1.87,1.65A1.55,1.55,0,0,1,78.8,78Zm-.52-.59c.82,0,1.25-.36,1.25-1.05s-.42-1-1.25-1H77v2.08Z"/><path class="cls-18" d="M45.61,83.17h2.15a1.46,1.46,0,0,1,1.63,1.45,1.21,1.21,0,0,1-.65,1.15h0a1.34,1.34,0,0,1,.86,1.33c0,1.08-.68,1.66-2,1.66h-2Zm2,2.37c.73,0,1.09-.29,1.09-.89s-.37-.86-1.09-.86H46.27v1.75Zm-.1,2.6c1,0,1.4-.31,1.4-1s-.4-1-1.38-1H46.27v2Z"/><path class="cls-18" d="M51.23,83.17h3.36v.62h-2.7v1.79h2.48v.6H51.89v2h2.7v.63H51.23Z"/><path class="cls-18" d="M56.18,83.17h1.75c1.41,0,2.41,1,2.41,2.79,0,2-1,2.81-2.46,2.81h-1.7Zm1.66,5c1.14,0,1.84-.6,1.84-2.18,0-1.43-.7-2.17-1.79-2.17h-1v4.35Z"/><path class="cls-18" d="M64.48,86.46l1.23,2.31h-.78L63.75,86.5H62.63v2.27H62v-5.6h2c1.17,0,1.86.62,1.86,1.65a1.55,1.55,0,0,1-1.39,1.63ZM64,85.87c.82,0,1.25-.36,1.25-1.05s-.42-1-1.25-1H62.63v2.08Z"/><path class="cls-18" d="M67.14,86c0-1.75.94-2.92,2.36-2.92s2.36,1.17,2.36,2.92-1,2.92-2.36,2.92S67.14,87.72,67.14,86Zm4,0c0-1.42-.65-2.3-1.69-2.3s-1.7.88-1.7,2.3.65,2.29,1.7,2.29S71.19,87.38,71.19,86Z"/><path class="cls-18" d="M73.2,86c0-1.75.94-2.92,2.36-2.92s2.36,1.17,2.36,2.92-1,2.92-2.36,2.92S73.2,87.72,73.2,86Zm4,0c0-1.42-.65-2.3-1.69-2.3s-1.7.88-1.7,2.3.65,2.29,1.7,2.29S77.25,87.38,77.25,86Z"/><path class="cls-18" d="M79.55,83.17h.88l1.81,4.44h0l1.81-4.44H85v5.6h-.66V84.22h0l-1.89,4.55H82.1l-1.88-4.55h0v4.55h-.65Z"/><path class="cls-18" d="M39.82,92.42l-1.24.81v-.7l1.32-.86h.59v5.6h-.67Z"/><path class="cls-18" d="M43,96.64h3v.63H42.24v-.53a2,2,0,0,1,.24-1.07c.2-.36.54-.63,1.42-1.09,1.16-.6,1.5-.94,1.5-1.5s-.49-.91-1.17-.91a1.3,1.3,0,0,0-1.4,1.36l-.67,0a1.93,1.93,0,0,1,2.07-1.93,1.68,1.68,0,0,1,1.83,1.53c0,.83-.42,1.32-1.65,1.94-.93.47-1.19.65-1.33.94A1.53,1.53,0,0,0,43,96.64Z"/><path class="cls-18" d="M47.79,91.67h.58v1.78h-.58Z"/><path class="cls-18" d="M49.51,94.08h2.08v.6H49.51Z"/><path class="cls-18" d="M52.87,95.79l.64-.16A1.42,1.42,0,1,0,54.94,94a1.82,1.82,0,0,0-1.35.6L53,94.49l.53-2.82h2.94v.62H54.05l-.31,1.55h0a2.08,2.08,0,0,1,1.29-.38A1.87,1.87,0,0,1,57,95.4a2.09,2.09,0,0,1-4.12.39Z"/><path class="cls-18" d="M58.24,91.67h.59v1.78h-.59Zm1.06,0h.58v1.78H59.3Z"/><path class="cls-18" d="M63.58,95.83l1.31-1.3-1.31-1.29.39-.4,1.29,1.32,1.3-1.32.39.4-1.31,1.29L67,95.83l-.39.39-1.3-1.31L64,96.22Z"/><path class="cls-18" d="M71.12,92.42l-1.24.81v-.7l1.32-.86h.59v5.6h-.67Z"/><path class="cls-18" d="M74.25,96.64h3v.63H73.55v-.53a2,2,0,0,1,.23-1.07c.2-.36.54-.63,1.42-1.09,1.16-.6,1.5-.94,1.5-1.5s-.49-.91-1.17-.91a1.3,1.3,0,0,0-1.4,1.36l-.66,0a1.92,1.92,0,0,1,2.06-1.93,1.68,1.68,0,0,1,1.83,1.53c0,.83-.42,1.32-1.65,1.94-.93.47-1.19.65-1.33.94A1.53,1.53,0,0,0,74.25,96.64Z"/><path class="cls-18" d="M79.09,91.67h.58v1.78h-.58Z"/><path class="cls-18" d="M81.08,94.08h2.09v.6H81.08Z"/><path class="cls-18" d="M84.33,95.71a1.57,1.57,0,0,1,1-1.51h0A1.26,1.26,0,0,1,84.64,93a1.79,1.79,0,0,1,3.52,0,1.26,1.26,0,0,1-.74,1.17h0a1.57,1.57,0,0,1,1,1.51c0,1-.82,1.68-2.06,1.68S84.33,96.71,84.33,95.71Zm3.45,0c0-.67-.54-1.11-1.38-1.11S85,95,85,95.67s.53,1.08,1.39,1.08S87.78,96.33,87.78,95.67Zm-.28-2.61c0-.54-.45-.91-1.1-.91s-1.11.37-1.11.91.44.88,1.11.88S87.5,93.6,87.5,93.06Z"/><path class="cls-18" d="M89.89,91.67h.59v1.78h-.59Zm1.06,0h.58v1.78H91Z"/><path class="cls-18" d="M472.34,115.68h2.15a1.46,1.46,0,0,1,1.63,1.45,1.18,1.18,0,0,1-.65,1.15v0a1.34,1.34,0,0,1,.86,1.33c0,1.08-.68,1.65-2,1.65h-2Zm2,2.38c.73,0,1.09-.3,1.09-.9s-.37-.85-1.09-.85H473v1.75Zm-.09,2.6c1,0,1.39-.31,1.39-1s-.39-1-1.38-1H473v2Z"/><path class="cls-18" d="M478,115.68h3.36v.63h-2.71v1.79h2.48v.59h-2.48v2h2.71v.62H478Z"/><path class="cls-18" d="M482.92,115.68h1.74c1.42,0,2.42,1,2.42,2.8,0,2-1,2.8-2.47,2.8h-1.69Zm1.65,5c1.14,0,1.84-.6,1.84-2.18s-.7-2.17-1.79-2.17h-1.05v4.35Z"/><path class="cls-18" d="M491.21,119l1.23,2.3h-.78L490.48,119h-1.12v2.27h-.66v-5.6h2c1.17,0,1.87.63,1.87,1.66a1.54,1.54,0,0,1-1.4,1.62Zm-.52-.59c.82,0,1.25-.36,1.25-1s-.42-1-1.25-1h-1.33v2.08Z"/><path class="cls-18" d="M493.87,118.48c0-1.75.94-2.91,2.36-2.91s2.36,1.16,2.36,2.91-.95,2.92-2.36,2.92S493.87,120.23,493.87,118.48Zm4.05,0c0-1.41-.64-2.29-1.69-2.29s-1.7.88-1.7,2.29.65,2.3,1.7,2.3S497.92,119.9,497.92,118.48Z"/><path class="cls-18" d="M499.93,118.48c0-1.75.94-2.91,2.36-2.91s2.36,1.16,2.36,2.91-.95,2.92-2.36,2.92S499.93,120.23,499.93,118.48Zm4.06,0c0-1.41-.65-2.29-1.7-2.29s-1.7.88-1.7,2.29.65,2.3,1.7,2.3S504,119.9,504,118.48Z"/><path class="cls-18" d="M506.28,115.68h.88l1.81,4.45h0l1.81-4.45h.88v5.6H511v-4.54h0l-1.88,4.54h-.28L507,116.74h0v4.54h-.65Z"/><path class="cls-18" d="M516.72,120.66h3v.62H516v-.53a2,2,0,0,1,.24-1.06c.2-.37.54-.64,1.42-1.09,1.16-.6,1.49-.94,1.49-1.5s-.48-.91-1.16-.91a1.3,1.3,0,0,0-1.4,1.36l-.67-.06a1.93,1.93,0,0,1,2.07-1.92,1.68,1.68,0,0,1,1.83,1.53c0,.82-.42,1.31-1.65,1.94-.93.47-1.19.65-1.33.93A1.58,1.58,0,0,0,516.72,120.66Z"/><path class="cls-18" d="M470.18,124.94l-1.25.8v-.69l1.33-.87h.59v5.6h-.67Z"/><path class="cls-18" d="M472.5,127c0-1.81.91-2.91,2.22-2.91s2.21,1.1,2.21,2.91-.9,2.92-2.21,2.92S472.5,128.8,472.5,127Zm3.77,0c0-1.46-.61-2.29-1.55-2.29s-1.55.83-1.55,2.29.61,2.3,1.55,2.3S476.27,128.45,476.27,127Z"/><path class="cls-18" d="M478.47,124.18h.58V126h-.58Z"/><path class="cls-18" d="M480.19,126.59h2.09v.6h-2.09Z"/><path class="cls-18" d="M483.55,128.3l.65-.16a1.41,1.41,0,1,0,1.43-1.58,1.79,1.79,0,0,0-1.35.59l-.59-.14.54-2.83h2.93v.63h-2.43l-.3,1.55h0a2.05,2.05,0,0,1,1.28-.39,1.89,1.89,0,0,1,1.95,1.93,1.93,1.93,0,0,1-2.05,2A2,2,0,0,1,483.55,128.3Z"/><path class="cls-18" d="M488.93,124.18h.58V126h-.58Zm1.06,0h.58V126H490Z"/><path class="cls-18" d="M494.26,128.34l1.32-1.29-1.32-1.3.4-.39,1.28,1.31,1.3-1.31.39.39-1.31,1.3,1.31,1.29-.39.39-1.3-1.31-1.28,1.31Z"/><path class="cls-18" d="M501.81,124.94l-1.25.8v-.69l1.33-.87h.58v5.6h-.66Z"/><path class="cls-18" d="M504.13,127c0-1.81.9-2.91,2.22-2.91s2.21,1.1,2.21,2.91-.9,2.92-2.21,2.92S504.13,128.8,504.13,127Zm3.77,0c0-1.46-.62-2.29-1.55-2.29s-1.55.83-1.55,2.29.61,2.3,1.55,2.3S507.9,128.45,507.9,127Z"/><path class="cls-18" d="M510.1,124.18h.58V126h-.58Z"/><path class="cls-18" d="M512.09,126.59h2.09v.6h-2.09Z"/><path class="cls-18" d="M515.34,128.22a1.56,1.56,0,0,1,1-1.5v0a1.24,1.24,0,0,1-.73-1.16,1.79,1.79,0,0,1,3.52,0,1.25,1.25,0,0,1-.74,1.16v0a1.56,1.56,0,0,1,1,1.5c0,1-.81,1.68-2.06,1.68S515.34,129.23,515.34,128.22Zm3.45,0c0-.67-.54-1.1-1.38-1.1s-1.39.43-1.39,1.1.53,1.08,1.39,1.08S518.79,128.85,518.79,128.18Zm-.28-2.6c0-.55-.45-.92-1.1-.92s-1.11.37-1.11.92.44.88,1.11.88S518.51,126.11,518.51,125.58Z"/><path class="cls-18" d="M520.9,124.18h.59V126h-.59Zm1.06,0h.58V126H522Z"/><path class="cls-18" d="M199.75,140.88h.65v5h2.53v.63h-3.18Z"/><path class="cls-18" d="M204.4,140.88h.66v5.6h-.66Z"/><path class="cls-18" d="M206.39,140.88h.7l1.66,4.72h0l1.67-4.72h.68l-2,5.6h-.7Z"/><path class="cls-18" d="M212.47,140.88h.66v5.6h-.66Z"/><path class="cls-18" d="M215,140.88h.78l2.54,4.57h0v-4.57H219v5.6h-.79l-2.54-4.57h0v4.57H215Z"/><path class="cls-18" d="M220.67,143.68c0-1.78.92-2.92,2.36-2.92a2.07,2.07,0,0,1,2.12,1.85l-.65.12a1.44,1.44,0,0,0-1.47-1.35c-1.05,0-1.7.88-1.7,2.3S222,146,223,146a1.42,1.42,0,0,0,1.49-1.64H223.1v-.62h2.07v.57A2.09,2.09,0,0,1,223,146.6C221.59,146.6,220.67,145.45,220.67,143.68Z"/><path class="cls-18" d="M228.78,146.6l2.85-6,.45.2-2.86,6Z"/><path class="cls-18" d="M236,140.88h1.74c1.42,0,2.42,1,2.42,2.79,0,2-1,2.81-2.47,2.81H236Zm1.65,5c1.14,0,1.84-.6,1.84-2.18,0-1.43-.7-2.17-1.79-2.17h-1.05v4.35Z"/><path class="cls-18" d="M241.82,140.88h.65v5.6h-.65Z"/><path class="cls-18" d="M244.38,140.88h.78l2.54,4.57h0v-4.57h.66v5.6h-.78l-2.54-4.57h0v4.57h-.66Z"/><path class="cls-18" d="M250.31,140.88H251v5.6h-.65Z"/><path class="cls-18" d="M252.87,140.88h.78l2.54,4.57h0v-4.57h.66v5.6h-.78l-2.54-4.57h0v4.57h-.66Z"/><path class="cls-18" d="M258.5,143.68c0-1.78.93-2.92,2.36-2.92a2.08,2.08,0,0,1,2.13,1.85l-.66.12a1.44,1.44,0,0,0-1.47-1.35c-1.05,0-1.7.88-1.7,2.3s.65,2.29,1.7,2.29a1.43,1.43,0,0,0,1.5-1.64h-1.43v-.62H263v.57a2.09,2.09,0,0,1-2.14,2.32C259.43,146.6,258.5,145.45,258.5,143.68Z"/><path class="cls-18" d="M269.68,144.17l1.23,2.31h-.78L269,144.21h-1.12v2.27h-.66v-5.6h2c1.17,0,1.87.62,1.87,1.66a1.55,1.55,0,0,1-1.4,1.62Zm-.52-.59c.82,0,1.25-.36,1.25-1s-.42-1-1.25-1h-1.33v2.08Z"/><path class="cls-18" d="M272.34,143.68c0-1.75.94-2.92,2.36-2.92s2.36,1.17,2.36,2.92-.95,2.92-2.36,2.92S272.34,145.43,272.34,143.68Zm4.05,0c0-1.42-.65-2.3-1.69-2.3s-1.7.88-1.7,2.3.65,2.29,1.7,2.29S276.39,145.09,276.39,143.68Z"/><path class="cls-18" d="M278.4,143.68c0-1.75.94-2.92,2.36-2.92s2.36,1.17,2.36,2.92-.95,2.92-2.36,2.92S278.4,145.43,278.4,143.68Zm4.05,0c0-1.42-.64-2.3-1.69-2.3s-1.7.88-1.7,2.3.65,2.29,1.7,2.29S282.45,145.09,282.45,143.68Z"/><path class="cls-18" d="M284.75,140.88h.88l1.81,4.45h0l1.81-4.45h.88v5.6h-.66v-4.54h0l-1.89,4.54h-.27l-1.89-4.54h0v4.54h-.65Z"/><path class="cls-18" d="M218.4,154.35h3V155h-3.72v-.53a2,2,0,0,1,.23-1.06c.2-.37.55-.64,1.43-1.1,1.16-.6,1.49-.93,1.49-1.49s-.49-.92-1.17-.92a1.29,1.29,0,0,0-1.39,1.36l-.67-.05a1.93,1.93,0,0,1,2.06-1.93,1.68,1.68,0,0,1,1.84,1.54c0,.82-.42,1.31-1.65,1.93-.94.47-1.19.66-1.34.94A1.45,1.45,0,0,0,218.4,154.35Z"/><path class="cls-18" d="M222.71,153.5l.64-.16a1.42,1.42,0,1,0,1.43-1.58,1.82,1.82,0,0,0-1.35.59l-.58-.15.54-2.82h2.93V150h-2.43l-.31,1.55h0a2.15,2.15,0,0,1,1.29-.38,1.87,1.87,0,0,1,1.94,1.93,2.09,2.09,0,0,1-4.12.39Z"/><path class="cls-18" d="M228.08,149.38h.59v1.78h-.59Z"/><path class="cls-18" d="M229.81,151.79h2.08v.6h-2.08Z"/><path class="cls-18" d="M233.88,154.35h3V155h-3.72v-.53a2,2,0,0,1,.23-1.06c.2-.37.54-.64,1.42-1.1,1.16-.6,1.5-.93,1.5-1.49s-.49-.92-1.17-.92a1.3,1.3,0,0,0-1.4,1.36l-.66-.05a1.92,1.92,0,0,1,2.06-1.93A1.68,1.68,0,0,1,237,150.8c0,.82-.41,1.31-1.65,1.93-.93.47-1.19.66-1.33.94A1.56,1.56,0,0,0,233.88,154.35Z"/><path class="cls-18" d="M238.71,149.38h.59v1.78h-.59Zm1.06,0h.58v1.78h-.58Z"/><path class="cls-18" d="M244.05,153.54l1.31-1.3L244.05,151l.39-.39,1.29,1.31,1.29-1.31.4.39-1.32,1.29,1.32,1.3-.4.39-1.29-1.31-1.29,1.31Z"/><path class="cls-18" d="M251.59,150.13l-1.24.81v-.7l1.32-.86h.59V155h-.67Z"/><path class="cls-18" d="M254.72,154.35h3V155H254v-.53a2,2,0,0,1,.23-1.06c.2-.37.54-.64,1.42-1.1,1.16-.6,1.5-.93,1.5-1.49s-.49-.92-1.17-.92a1.3,1.3,0,0,0-1.4,1.36l-.66-.05a1.92,1.92,0,0,1,2.06-1.93,1.68,1.68,0,0,1,1.83,1.54c0,.82-.42,1.31-1.65,1.93-.93.47-1.19.66-1.33.94A1.56,1.56,0,0,0,254.72,154.35Z"/><path class="cls-18" d="M259.56,149.38h.58v1.78h-.58Z"/><path class="cls-18" d="M261.55,151.79h2.09v.6h-2.09Z"/><path class="cls-18" d="M264.8,153.42a1.57,1.57,0,0,1,1-1.51h0a1.26,1.26,0,0,1-.73-1.17,1.79,1.79,0,0,1,3.52,0,1.26,1.26,0,0,1-.74,1.17h0a1.57,1.57,0,0,1,1,1.51c0,1-.82,1.68-2.06,1.68S264.8,154.43,264.8,153.42Zm3.45,0c0-.67-.54-1.11-1.38-1.11s-1.39.44-1.39,1.11.53,1.08,1.39,1.08S268.25,154,268.25,153.38Zm-.28-2.61c0-.54-.45-.91-1.1-.91s-1.11.37-1.11.91.44.88,1.11.88S268,151.31,268,150.77Z"/><path class="cls-18" d="M270.36,149.38H271v1.78h-.59Zm1.06,0H272v1.78h-.58Z"/><path class="cls-18" d="M398.81,198.83h3.36v.62h-2.71v2H402V202h-2.49v2.39h-.65Z"/><path class="cls-18" d="M403.73,201.63c0-1.75.94-2.92,2.36-2.92s2.36,1.17,2.36,2.92-.95,2.92-2.36,2.92S403.73,203.38,403.73,201.63Zm4,0c0-1.42-.65-2.3-1.69-2.3s-1.7.88-1.7,2.3.65,2.29,1.7,2.29S407.78,203,407.78,201.63Z"/><path class="cls-18" d="M411.44,202.09l-2-3.26h.76l1.51,2.61h0l1.52-2.61h.77l-2,3.26v2.34h-.66Z"/><path class="cls-18" d="M415.7,198.83h3.36v.62h-2.7v1.79h2.48v.6h-2.48v2h2.7v.63H415.7Z"/><path class="cls-18" d="M423.48,202.12l1.23,2.31h-.78l-1.18-2.27h-1.12v2.27H421v-5.6h2c1.17,0,1.87.62,1.87,1.65a1.55,1.55,0,0,1-1.4,1.63Zm-.52-.59c.82,0,1.25-.36,1.25-1.05s-.42-1-1.25-1h-1.33v2.08Z"/><path class="cls-18" d="M350.27,222.23h.67l.83,4.55h0l1.39-4.55h.62l1.39,4.55h0l.82-4.55h.68l-1,5.59h-.8l-1.37-4.49h0l-1.37,4.49h-.8Z"/><path class="cls-18" d="M357.64,227.94l2.85-6,.45.2-2.86,6Z"/><path class="cls-18" d="M362.63,222.23h1.75c1.41,0,2.41,1,2.41,2.79,0,2-1,2.8-2.46,2.8h-1.7Zm1.66,5c1.13,0,1.84-.6,1.84-2.18s-.71-2.17-1.79-2.17h-1v4.35Z"/><path class="cls-18" d="M168.63,175h.68l.82,4.55h0l1.38-4.55h.62l1.39,4.55h0l.82-4.55h.68l-1,5.6h-.8l-1.37-4.49h0l-1.37,4.49h-.8Z"/><path class="cls-18" d="M175.4,180.74l2.85-6,.45.2-2.86,6Z"/><path class="cls-18" d="M179.24,178.77l.66-.12a1.47,1.47,0,0,0,1.65,1.47c.78,0,1.29-.36,1.29-.91s-.37-.88-1.54-1.24c-1.34-.44-1.78-.84-1.78-1.59s.73-1.48,1.79-1.48a2,2,0,0,1,2,1.63l-.65.14a1.34,1.34,0,0,0-1.39-1.14c-.68,0-1.13.33-1.13.85s.32.67,1.34,1c1.46.47,2,1,2,1.84s-.79,1.53-1.95,1.53A2.05,2.05,0,0,1,179.24,178.77Z"/><path class="cls-18" d="M184.46,177.82c0-1.75.95-2.92,2.36-2.92s2.36,1.17,2.36,2.92-.94,2.92-2.36,2.92S184.46,179.57,184.46,177.82Zm4.06,0c0-1.41-.65-2.29-1.7-2.29s-1.69.88-1.69,2.29.64,2.3,1.69,2.3S188.52,179.24,188.52,177.82Z"/><path class="cls-18" d="M329,223.32l1.23,2.31h-.78l-1.18-2.27h-1.12v2.27h-.66V220h2c1.17,0,1.86.62,1.86,1.65a1.55,1.55,0,0,1-1.39,1.63Zm-.52-.59c.82,0,1.25-.36,1.25-1s-.42-1-1.25-1h-1.33v2.08Z"/><path class="cls-18" d="M193.27,217.48H195c1.42,0,2.42,1,2.42,2.79,0,2-1,2.81-2.46,2.81h-1.7Zm1.66,5c1.13,0,1.84-.6,1.84-2.19,0-1.43-.71-2.16-1.8-2.16h-1v4.35Z"/><path class="cls-18" d="M198.84,217.48h.68l.82,4.55h0l1.38-4.55h.62l1.39,4.55h0l.82-4.55h.68l-1,5.6h-.8l-1.37-4.49h0l-1.36,4.49h-.81Z"/><polygon class="cls-18" points="413.68 259.91 419.07 245.51 424.48 259.91 413.68 259.91"/></g></g></svg>