<svg xmlns="http://www.w3.org/2000/svg" viewBox="0 0 656.24 576.03"><defs><style>.cls-1,.cls-14,.cls-15,.cls-17,.cls-3,.cls-6{fill:#b4c0be;}.cls-1,.cls-10,.cls-11,.cls-12,.cls-13,.cls-14,.cls-15,.cls-16,.cls-17,.cls-18,.cls-19,.cls-20,.cls-21,.cls-22,.cls-23,.cls-24,.cls-25,.cls-26,.cls-27,.cls-28,.cls-3,.cls-4,.cls-9{stroke:#231f20;}.cls-1,.cls-10,.cls-12,.cls-15,.cls-16,.cls-17,.cls-18,.cls-19,.cls-2,.cls-20,.cls-21,.cls-22,.cls-23,.cls-24,.cls-25,.cls-26,.cls-3,.cls-4,.cls-9{stroke-linecap:round;}.cls-1,.cls-10,.cls-12,.cls-15,.cls-16,.cls-17,.cls-18,.cls-19,.cls-2,.cls-20,.cls-21,.cls-22,.cls-23,.cls-24,.cls-25,.cls-26,.cls-3,.cls-4,.cls-8,.cls-9{stroke-linejoin:round;}.cls-1{stroke-width:0.15px;}.cls-10,.cls-12,.cls-13,.cls-16,.cls-18,.cls-19,.cls-2,.cls-20,.cls-21,.cls-22,.cls-23,.cls-24,.cls-25,.cls-26,.cls-4,.cls-5,.cls-8,.cls-9{fill:none;}.cls-2,.cls-5{stroke:#a6a8ab;}.cls-2,.cls-3,.cls-4,.cls-5{stroke-width:0.15px;}.cls-11,.cls-13,.cls-14,.cls-27,.cls-28,.cls-5,.cls-7{stroke-miterlimit:10;}.cls-7{fill:#dbdecd;stroke:#fff;}.cls-10,.cls-11,.cls-13,.cls-14,.cls-17,.cls-18,.cls-19,.cls-20,.cls-21,.cls-22,.cls-23,.cls-24,.cls-25,.cls-26,.cls-7{stroke-width:0.25px;}.cls-8{stroke:#787a62;}.cls-27,.cls-28,.cls-8,.cls-9{stroke-width:0.4px;}.cls-11,.cls-27,.cls-28{fill:#e1e5e5;}.cls-12{stroke-width:0.4px;}.cls-15,.cls-16{stroke-width:0.2px;}.cls-18{stroke-dasharray:1.31 1.31;}.cls-19{stroke-dasharray:2 2;}.cls-20{stroke-dasharray:1.38 1.38;}.cls-21{stroke-dasharray:1.38 1.38;}.cls-22{stroke-dasharray:1.35 1.35;}.cls-23{stroke-dasharray:1.29 1.29;}.cls-24{stroke-dasharray:1.38 1.38;}.cls-25{stroke-dasharray:1.26 1.26;}.cls-26{stroke-dasharray:1.32 1.32;}.cls-28{fill-rule:evenodd;}.cls-29{fill:#231f20;}</style></defs><title>Asset 1427</title><g id="Layer_2" data-name="Layer 2"><g id="Unit25-28A_Hover"><g id="LWPOLYLINE"><rect class="cls-1" x="226.02" y="72.39" width="123.16" height="109.32"/></g><g id="LWPOLYLINE-2" data-name="LWPOLYLINE"><rect class="cls-1" x="555.84" y="45.2" width="92.55" height="97.62"/></g><g id="HATCH"><path class="cls-2" d="M23,51.29h9.78m13.57,0H173.17M21.3,73.79H188.64M21.3,96.29H188.64M21.3,118.79H188.64M21.3,141.29H188.64M40.41,157.23V71.37m0-22.34V47.54m22.5,109.69V47.54m22.5,109.69V47.54m22.5,109.69V47.54m22.5,109.69V47.54m22.5,109.73v-112m22.5,112V69.58"/></g><line class="cls-2" x1="149.85" y1="157.23" x2="188.64" y2="157.23"/><g id="LWPOLYLINE-3" data-name="LWPOLYLINE"><polygon class="cls-3" points="240.8 122.31 210.8 121.38 210.8 94.66 240.8 93.72 240.8 122.31"/></g><g id="LWPOLYLINE-4" data-name="LWPOLYLINE"><polygon class="cls-3" points="240.8 130.98 210.8 131.91 210.8 158.63 240.8 159.57 240.8 130.98"/></g><g id="LWPOLYLINE-5" data-name="LWPOLYLINE"><rect class="cls-4" x="264.95" y="100.4" width="45.4" height="40.02"/></g><g id="LWPOLYLINE-6" data-name="LWPOLYLINE"><rect class="cls-3" x="245.46" y="53.49" width="84.38" height="33.75"/></g><g id="LWPOLYLINE-7" data-name="LWPOLYLINE"><rect class="cls-3" x="217.51" y="62.15" width="20.2" height="19.03"/></g><g id="LWPOLYLINE-8" data-name="LWPOLYLINE"><rect class="cls-3" x="337.6" y="62.15" width="20.2" height="19.03"/></g><g id="LWPOLYLINE-9" data-name="LWPOLYLINE"><rect class="cls-3" x="261.79" y="171.52" width="53.44" height="16.88" rx="1.88"/></g><g id="LWPOLYLINE-10" data-name="LWPOLYLINE"><path class="cls-3" d="M289.8,223.58,272.89,218l2.09-5.42a3.76,3.76,0,0,1,4.67-2.22l9.26,3a3.76,3.76,0,0,1,2.44,4.56Z"/></g><g id="LWPOLYLINE-11" data-name="LWPOLYLINE"><path class="cls-3" d="M206.62,223.58,223.54,218l-2.1-5.42a3.75,3.75,0,0,0-4.67-2.22l-9.25,3a3.75,3.75,0,0,0-2.44,4.56Z"/></g><g id="LWPOLYLINE-12" data-name="LWPOLYLINE"><path class="cls-3" d="M228,217.1l17.75-1.53L245,209.8a3.74,3.74,0,0,0-4-3.22l-9.7.84a3.75,3.75,0,0,0-3.43,3.87Z"/></g><g id="LWPOLYLINE-13" data-name="LWPOLYLINE"><path class="cls-3" d="M268.43,217.1l-17.74-1.53.79-5.77a3.73,3.73,0,0,1,4-3.22l9.7.84a3.74,3.74,0,0,1,3.42,3.87Z"/></g><g id="LWPOLYLINE-14" data-name="LWPOLYLINE"><path class="cls-3" d="M289.8,242.81l-16.91,5.57,2.09,5.43a3.75,3.75,0,0,0,4.67,2.21l9.26-3a3.75,3.75,0,0,0,2.44-4.55Z"/></g><g id="LWPOLYLINE-15" data-name="LWPOLYLINE"><path class="cls-3" d="M206.62,242.81l16.92,5.57-2.1,5.43a3.74,3.74,0,0,1-4.67,2.21l-9.25-3a3.74,3.74,0,0,1-2.44-4.55Z"/></g><g id="LWPOLYLINE-16" data-name="LWPOLYLINE"><path class="cls-3" d="M228,249.28l17.75,1.54-.79,5.76a3.76,3.76,0,0,1-4,3.23l-9.7-.84a3.76,3.76,0,0,1-3.43-3.87Z"/></g><g id="LWPOLYLINE-17" data-name="LWPOLYLINE"><path class="cls-3" d="M268.43,249.28l-17.74,1.54.79,5.76a3.75,3.75,0,0,0,4,3.23l9.7-.84a3.74,3.74,0,0,0,3.42-3.87Z"/></g><g id="LWPOLYLINE-18" data-name="LWPOLYLINE"><rect class="cls-3" x="17.07" y="519.49" width="16.88" height="22.5"/></g><g id="LWPOLYLINE-19" data-name="LWPOLYLINE"><rect class="cls-3" x="17.07" y="433.24" width="16.88" height="22.5"/></g><g id="LWPOLYLINE-20" data-name="LWPOLYLINE"><rect class="cls-3" x="17.07" y="459.49" width="80.63" height="56.25"/></g><g id="LWPOLYLINE-21" data-name="LWPOLYLINE"><path class="cls-3" d="M107.27,199.92a11.65,11.65,0,0,1,1.17-1.16,12,12,0,0,1,16.89,1.16l-1.06.93v10.9H108.33v-10.9Z"/></g><g id="LWPOLYLINE-22" data-name="LWPOLYLINE"><path class="cls-3" d="M128.94,199.92a12.7,12.7,0,0,1,1.16-1.16A12,12,0,0,1,147,199.92l-1.06.93v10.9H130v-10.9Z"/></g><g id="LWPOLYLINE-23" data-name="LWPOLYLINE"><path class="cls-3" d="M85.45,199.92a12.7,12.7,0,0,1,1.16-1.16,12,12,0,0,1,16.9,1.16l-1.06.93v10.9H86.51v-10.9Z"/></g><g id="LWPOLYLINE-24" data-name="LWPOLYLINE"><rect class="cls-3" x="220.86" y="444.63" width="80.63" height="35.63"/></g><g id="LWPOLYLINE-25" data-name="LWPOLYLINE"><rect class="cls-3" x="220.86" y="510.86" width="80.62" height="35.63"/></g><g id="LWPOLYLINE-26" data-name="LWPOLYLINE"><rect class="cls-3" x="285.55" y="484.31" width="15.94" height="22.5"/></g><g id="LWPOLYLINE-27" data-name="LWPOLYLINE"><rect class="cls-3" x="513.29" y="62.73" width="15" height="65.63"/></g><g id="LINE"><line class="cls-4" x1="94.89" y1="515.74" x2="94.89" y2="459.49"/></g><g id="LINE-2" data-name="LINE"><line class="cls-4" x1="223.68" y1="480.25" x2="223.68" y2="444.63"/></g><g id="LINE-3" data-name="LINE"><line class="cls-4" x1="223.68" y1="510.86" x2="223.68" y2="546.48"/></g><line class="cls-5" x1="151.18" y1="164.26" x2="183.48" y2="164.26"/><g id="LWPOLYLINE-28" data-name="LWPOLYLINE"><rect class="cls-3" x="353.47" y="103.04" width="15" height="56.25"/></g><rect class="cls-3" x="342.44" y="130.92" width="44.9" height="1.76" transform="translate(496.69 -233.09) rotate(90)"/><rect class="cls-6" x="117.5" y="314.5" width="27.89" height="25.31"/><g id="LWPOLYLINE-29" data-name="LWPOLYLINE"><rect class="cls-3" x="133.56" y="455" width="15" height="65.63"/></g><line class="cls-4" x1="39.53" y1="515.74" x2="39.53" y2="459.49"/><line class="cls-4" x1="41.96" y1="515.74" x2="41.96" y2="459.49"/><g id="LINE-4" data-name="LINE"><line class="cls-4" x1="240.8" y1="118.33" x2="210.8" y2="117.39"/></g><g id="LINE-5" data-name="LINE"><line class="cls-4" x1="215.02" y1="117.51" x2="215.02" y2="98.52"/></g><g id="LINE-6" data-name="LINE"><line class="cls-4" x1="210.8" y1="98.64" x2="240.8" y2="97.7"/></g><g id="LINE-7" data-name="LINE"><line class="cls-4" x1="240.8" y1="134.96" x2="210.8" y2="135.9"/></g><g id="LINE-8" data-name="LINE"><line class="cls-4" x1="215.02" y1="135.78" x2="215.02" y2="154.77"/></g><g id="LINE-9" data-name="LINE"><line class="cls-4" x1="210.8" y1="154.65" x2="240.8" y2="155.59"/></g><g id="LINE-10" data-name="LINE"><line class="cls-4" x1="300.15" y1="58.18" x2="300.15" y2="86.26"/></g><g id="LWPOLYLINE-30" data-name="LWPOLYLINE"><polyline class="cls-4" points="250.15 87.24 250.15 58.18 325.15 58.18 325.15 87.24"/></g><g id="ARC"><path class="cls-4" d="M324.21,62.67a59.57,59.57,0,0,1-23.12,0"/></g><g id="ARC-2" data-name="ARC"><path class="cls-4" d="M301.09,62.67a1.22,1.22,0,0,1-.94-1"/></g><g id="ARC-3" data-name="ARC"><path class="cls-4" d="M325.15,61.69a1.19,1.19,0,0,1-.94,1"/></g><g id="ARC-4" data-name="ARC"><path class="cls-4" d="M300.15,61.69a1.19,1.19,0,0,1-.94,1"/></g><g id="ARC-5" data-name="ARC"><path class="cls-4" d="M251.09,62.67a1.22,1.22,0,0,1-.94-1"/></g><g id="ARC-6" data-name="ARC"><path class="cls-4" d="M301.09,87.24a1.23,1.23,0,0,1-.94-1"/></g><g id="ARC-7" data-name="ARC"><path class="cls-4" d="M300.15,86.26a1.2,1.2,0,0,1-.94,1"/></g><g id="ARC-8" data-name="ARC"><path class="cls-4" d="M325.15,86.26a1.2,1.2,0,0,1-.94,1"/></g><g id="ARC-9" data-name="ARC"><path class="cls-4" d="M251.09,87.24a1.23,1.23,0,0,1-.94-1"/></g><g id="LINE-11" data-name="LINE"><line class="cls-4" x1="275.15" y1="58.18" x2="275.15" y2="86.26"/></g><g id="ARC-10" data-name="ARC"><path class="cls-4" d="M274.21,62.67a59.57,59.57,0,0,1-23.12,0"/></g><g id="ARC-11" data-name="ARC"><path class="cls-4" d="M275.15,61.69a1.19,1.19,0,0,1-.94,1"/></g><g id="ARC-12" data-name="ARC"><path class="cls-4" d="M276.09,62.67a1.22,1.22,0,0,1-.94-1"/></g><g id="ARC-13" data-name="ARC"><path class="cls-4" d="M275.15,86.26a1.2,1.2,0,0,1-.94,1"/></g><g id="ARC-14" data-name="ARC"><path class="cls-4" d="M276.09,87.24a1.23,1.23,0,0,1-.94-1"/></g><g id="ARC-15" data-name="ARC"><path class="cls-4" d="M299.21,62.67a59.57,59.57,0,0,1-23.12,0"/></g><g id="CIRCLE"><path class="cls-4" d="M283.82,184.18a.47.47,0,1,1,.47.47.47.47,0,0,1-.47-.47Z"/></g><g id="CIRCLE-2" data-name="CIRCLE"><path class="cls-4" d="M283.82,175.74a.47.47,0,1,1,.47.47.47.47,0,0,1-.47-.47Z"/></g><g id="CIRCLE-3" data-name="CIRCLE"><path class="cls-4" d="M292.26,184.18a.47.47,0,1,1,.47.47.47.47,0,0,1-.47-.47Z"/></g><g id="CIRCLE-4" data-name="CIRCLE"><path class="cls-4" d="M292.26,175.74a.47.47,0,1,1,.47.47.47.47,0,0,1-.47-.47Z"/></g><g id="CIRCLE-5" data-name="CIRCLE"><path class="cls-4" d="M300.69,184.18a.47.47,0,1,1,.47.47.47.47,0,0,1-.47-.47Z"/></g><g id="CIRCLE-6" data-name="CIRCLE"><path class="cls-4" d="M300.69,175.74a.47.47,0,1,1,.47.47.47.47,0,0,1-.47-.47Z"/></g><g id="CIRCLE-7" data-name="CIRCLE"><path class="cls-4" d="M309.13,184.18a.47.47,0,1,1,.47.47.47.47,0,0,1-.47-.47Z"/></g><g id="CIRCLE-8" data-name="CIRCLE"><path class="cls-4" d="M309.13,175.74a.47.47,0,1,1,.47.47.47.47,0,0,1-.47-.47Z"/></g><g id="CIRCLE-9" data-name="CIRCLE"><path class="cls-4" d="M275.38,184.18a.47.47,0,1,1,.47.47.47.47,0,0,1-.47-.47Z"/></g><g id="CIRCLE-10" data-name="CIRCLE"><path class="cls-4" d="M275.38,175.74a.47.47,0,1,1,.47.47.47.47,0,0,1-.47-.47Z"/></g><g id="CIRCLE-11" data-name="CIRCLE"><path class="cls-4" d="M266.94,184.18a.47.47,0,1,1,.47.47.47.47,0,0,1-.47-.47Z"/></g><g id="CIRCLE-12" data-name="CIRCLE"><path class="cls-4" d="M266.94,175.74a.47.47,0,1,1,.47.47.47.47,0,0,1-.47-.47Z"/></g><g id="LWPOLYLINE-31" data-name="LWPOLYLINE"><path class="cls-3" d="M274.22,218.45l2.07-5.37a2.35,2.35,0,0,1,2.92-1.38l9.25,3.05A2.34,2.34,0,0,1,290,217.6l-1.52,5.54"/></g><g id="LWPOLYLINE-32" data-name="LWPOLYLINE"><path class="cls-3" d="M222.2,218.45l-2.07-5.37a2.35,2.35,0,0,0-2.92-1.38L208,214.75a2.34,2.34,0,0,0-1.52,2.85l1.52,5.54"/></g><g id="LWPOLYLINE-33" data-name="LWPOLYLINE"><path class="cls-3" d="M244.34,215.69l-.78-5.7a2.34,2.34,0,0,0-2.53-2l-9.7.84a2.34,2.34,0,0,0-2.14,2.42l.21,5.74"/></g><g id="LWPOLYLINE-34" data-name="LWPOLYLINE"><path class="cls-3" d="M252.09,215.69l.78-5.7a2.34,2.34,0,0,1,2.52-2l9.71.84a2.35,2.35,0,0,1,2.14,2.42L267,217"/></g><g id="LWPOLYLINE-35" data-name="LWPOLYLINE"><path class="cls-3" d="M274.22,247.94l2.07,5.36a2.35,2.35,0,0,0,2.92,1.39l9.25-3.05a2.35,2.35,0,0,0,1.53-2.85l-1.52-5.54"/></g><g id="LWPOLYLINE-36" data-name="LWPOLYLINE"><path class="cls-3" d="M222.2,247.94l-2.07,5.36a2.34,2.34,0,0,1-2.92,1.39L208,251.64a2.34,2.34,0,0,1-1.52-2.85l1.52-5.54"/></g><g id="LWPOLYLINE-37" data-name="LWPOLYLINE"><path class="cls-3" d="M244.34,250.69l-.78,5.7a2.35,2.35,0,0,1-2.53,2l-9.7-.84a2.34,2.34,0,0,1-2.14-2.42l.21-5.75"/></g><g id="LWPOLYLINE-38" data-name="LWPOLYLINE"><path class="cls-3" d="M252.09,250.69l.78,5.7a2.35,2.35,0,0,0,2.52,2l9.71-.84a2.35,2.35,0,0,0,2.14-2.42L267,249.4"/></g><g id="LINE-12" data-name="LINE"><line class="cls-4" x1="19.89" y1="515.74" x2="19.89" y2="459.49"/></g><g id="LWPOLYLINE-39" data-name="LWPOLYLINE"><rect class="cls-4" x="22.43" y="462.03" width="14.68" height="24.31"/></g><g id="LWPOLYLINE-40" data-name="LWPOLYLINE"><rect class="cls-4" x="22.43" y="488.88" width="14.68" height="24.31"/></g><g id="LWPOLYLINE-41" data-name="LWPOLYLINE"><line class="cls-4" x1="110.19" y1="199.17" x2="110.19" y2="211.75"/></g><g id="LWPOLYLINE-42" data-name="LWPOLYLINE"><line class="cls-4" x1="122.42" y1="199.17" x2="122.42" y2="211.75"/></g><g id="LWPOLYLINE-43" data-name="LWPOLYLINE"><path class="cls-4" d="M124.27,200.85a10.55,10.55,0,0,0-14.91-1,11.13,11.13,0,0,0-1,1"/></g><g id="LWPOLYLINE-44" data-name="LWPOLYLINE"><line class="cls-4" x1="131.85" y1="199.17" x2="131.85" y2="211.75"/></g><g id="LWPOLYLINE-45" data-name="LWPOLYLINE"><line class="cls-4" x1="144.08" y1="199.17" x2="144.08" y2="211.75"/></g><g id="LWPOLYLINE-46" data-name="LWPOLYLINE"><path class="cls-4" d="M145.93,200.85a10.55,10.55,0,0,0-14.91-1,11,11,0,0,0-1,1"/></g><g id="LWPOLYLINE-47" data-name="LWPOLYLINE"><line class="cls-4" x1="88.36" y1="199.17" x2="88.36" y2="211.75"/></g><g id="LWPOLYLINE-48" data-name="LWPOLYLINE"><line class="cls-4" x1="100.6" y1="199.17" x2="100.6" y2="211.75"/></g><g id="LWPOLYLINE-49" data-name="LWPOLYLINE"><path class="cls-4" d="M102.45,200.85a10.55,10.55,0,0,0-14.91-1,10,10,0,0,0-1,1"/></g><g id="LINE-15" data-name="LINE"><line class="cls-4" x1="298.68" y1="480.25" x2="298.68" y2="444.63"/></g><g id="LWPOLYLINE-50" data-name="LWPOLYLINE"><rect class="cls-4" x="281.45" y="447.17" width="14.68" height="30.54"/></g><g id="LINE-16" data-name="LINE"><line class="cls-4" x1="298.68" y1="510.86" x2="298.68" y2="546.48"/></g><g id="LWPOLYLINE-51" data-name="LWPOLYLINE"><rect class="cls-4" x="281.45" y="513.4" width="14.68" height="30.54"/></g><g id="ARC-16" data-name="ARC"><path class="cls-4" d="M301.09,62.67a1.22,1.22,0,0,1-.94-1"/></g><g id="ARC-17" data-name="ARC"><path class="cls-4" d="M325.15,61.69a1.19,1.19,0,0,1-.94,1"/></g><g id="ARC-18" data-name="ARC"><path class="cls-4" d="M300.15,61.69a1.19,1.19,0,0,1-.94,1"/></g><g id="ARC-19" data-name="ARC"><path class="cls-4" d="M251.09,62.67a1.22,1.22,0,0,1-.94-1"/></g><g id="ARC-20" data-name="ARC"><path class="cls-4" d="M301.09,87.24a1.23,1.23,0,0,1-.94-1"/></g><g id="ARC-21" data-name="ARC"><path class="cls-4" d="M300.15,86.26a1.2,1.2,0,0,1-.94,1"/></g><g id="ARC-22" data-name="ARC"><path class="cls-4" d="M325.15,86.26a1.2,1.2,0,0,1-.94,1"/></g><g id="ARC-23" data-name="ARC"><path class="cls-4" d="M251.09,87.24a1.23,1.23,0,0,1-.94-1"/></g><g id="ARC-24" data-name="ARC"><path class="cls-4" d="M275.15,61.69a1.19,1.19,0,0,1-.94,1"/></g><g id="ARC-25" data-name="ARC"><path class="cls-4" d="M276.09,62.67a1.22,1.22,0,0,1-.94-1"/></g><g id="ARC-26" data-name="ARC"><path class="cls-4" d="M275.15,86.26a1.2,1.2,0,0,1-.94,1"/></g><g id="ARC-27" data-name="ARC"><path class="cls-4" d="M276.09,87.24a1.23,1.23,0,0,1-.94-1"/></g><g id="CIRCLE-13" data-name="CIRCLE"><path class="cls-4" d="M283.82,184.18a.47.47,0,1,1,.47.47.47.47,0,0,1-.47-.47Z"/></g><g id="CIRCLE-14" data-name="CIRCLE"><path class="cls-4" d="M283.82,175.74a.47.47,0,1,1,.47.47.47.47,0,0,1-.47-.47Z"/></g><g id="CIRCLE-15" data-name="CIRCLE"><path class="cls-4" d="M292.26,184.18a.47.47,0,1,1,.47.47.47.47,0,0,1-.47-.47Z"/></g><g id="CIRCLE-16" data-name="CIRCLE"><path class="cls-4" d="M292.26,175.74a.47.47,0,1,1,.47.47.47.47,0,0,1-.47-.47Z"/></g><g id="CIRCLE-17" data-name="CIRCLE"><path class="cls-4" d="M300.69,184.18a.47.47,0,1,1,.47.47.47.47,0,0,1-.47-.47Z"/></g><g id="CIRCLE-18" data-name="CIRCLE"><path class="cls-4" d="M300.69,175.74a.47.47,0,1,1,.47.47.47.47,0,0,1-.47-.47Z"/></g><g id="CIRCLE-19" data-name="CIRCLE"><path class="cls-4" d="M309.13,184.18a.47.47,0,1,1,.47.47.47.47,0,0,1-.47-.47Z"/></g><g id="CIRCLE-20" data-name="CIRCLE"><path class="cls-4" d="M309.13,175.74a.47.47,0,1,1,.47.47.47.47,0,0,1-.47-.47Z"/></g><g id="CIRCLE-21" data-name="CIRCLE"><path class="cls-4" d="M275.38,184.18a.47.47,0,1,1,.47.47.47.47,0,0,1-.47-.47Z"/></g><g id="CIRCLE-22" data-name="CIRCLE"><path class="cls-4" d="M275.38,175.74a.47.47,0,1,1,.47.47.47.47,0,0,1-.47-.47Z"/></g><g id="CIRCLE-23" data-name="CIRCLE"><path class="cls-4" d="M266.94,184.18a.47.47,0,1,1,.47.47.47.47,0,0,1-.47-.47Z"/></g><g id="CIRCLE-24" data-name="CIRCLE"><path class="cls-4" d="M266.94,175.74a.47.47,0,1,1,.47.47.47.47,0,0,1-.47-.47Z"/></g><g id="LWPOLYLINE-52" data-name="LWPOLYLINE"><line class="cls-4" x1="144.08" y1="199.17" x2="144.08" y2="211.75"/></g><g id="ELLIPSE"><path class="cls-3" d="M197.62,233.19c0,10.36,22.65,18.75,50.59,18.75s50.59-8.39,50.59-18.75-22.65-18.75-50.59-18.75-50.59,8.4-50.59,18.75Z"/></g><g id="LWPOLYLINE-53" data-name="LWPOLYLINE"><rect class="cls-3" x="572.54" y="59.81" width="80.63" height="71.25"/></g><g id="LWPOLYLINE-54" data-name="LWPOLYLINE"><rect class="cls-4" x="633.13" y="62.35" width="14.68" height="31.81"/></g><g id="LINE-17" data-name="LINE"><line class="cls-4" x1="650.36" y1="131.06" x2="650.36" y2="59.81"/></g><g id="LINE-18" data-name="LINE"><line class="cls-4" x1="575.36" y1="131.06" x2="575.36" y2="59.81"/></g><g id="LWPOLYLINE-55" data-name="LWPOLYLINE"><rect class="cls-4" x="633.13" y="96.71" width="14.68" height="31.81"/></g><g id="LWPOLYLINE-56" data-name="LWPOLYLINE"><polygon class="cls-3" points="546.52 42.34 544.61 43.66 544.82 43.96 544.96 44.53 544.7 45.05 543.21 46.3 542.01 47.31 540.92 48.15 539.47 49.23 538.11 50.17 537.56 50.55 537.11 50.84 536.53 51.21 535.88 51.62 534.33 52.55 532.86 53.38 531.68 54.01 531.1 54.06 530.62 53.72 530.41 53.42 527.98 55.09 515.11 36.38 533.65 23.63 546.52 42.34"/></g><g id="LINE-19" data-name="LINE"><line class="cls-4" x1="517.55" y1="34.7" x2="530.41" y2="53.41"/></g><g id="LINE-20" data-name="LINE"><line class="cls-4" x1="544.61" y1="43.66" x2="531.74" y2="24.94"/></g><g id="ARC-28" data-name="ARC"><path class="cls-4" d="M520.41,38.87a40,40,0,0,0,14.2-9.75"/></g><g id="ARC-29" data-name="ARC"><path class="cls-4" d="M518.5,36.09a101.27,101.27,0,0,0,14.2-9.76"/></g><line class="cls-4" x1="630.65" y1="59.81" x2="630.65" y2="131.06"/><line class="cls-4" x1="628.22" y1="59.81" x2="628.22" y2="131.06"/><g id="LWPOLYLINE-57" data-name="LWPOLYLINE"><rect class="cls-3" x="637.23" y="37.66" width="15.94" height="20.16"/></g><g id="LWPOLYLINE-58" data-name="LWPOLYLINE"><rect class="cls-3" x="637.23" y="133.05" width="15.94" height="20.16"/></g><g id="LWPOLYLINE-59" data-name="LWPOLYLINE"><rect class="cls-3" x="93.41" y="79.15" width="22.5" height="15.94" transform="translate(-30.95 99.52) rotate(-45)"/></g><g id="LWPOLYLINE-60" data-name="LWPOLYLINE"><rect class="cls-3" x="64.4" y="108.16" width="22.5" height="15.94" transform="translate(-59.96 87.51) rotate(-45)"/></g><g id="LINE-21" data-name="LINE"><line class="cls-3" x1="114.52" y1="88.53" x2="103.25" y2="77.26"/></g><g id="LINE-22" data-name="LINE"><line class="cls-3" x1="117.27" y1="85.78" x2="106" y2="74.51"/></g><g id="LINE-23" data-name="LINE"><line class="cls-3" x1="65.79" y1="114.72" x2="77.06" y2="125.99"/></g><g id="LINE-24" data-name="LINE"><line class="cls-3" x1="63.04" y1="117.47" x2="74.31" y2="128.74"/></g><g id="LWPOLYLINE-61" data-name="LWPOLYLINE"><rect class="cls-3" x="96.69" y="104.88" width="15.94" height="22.5" transform="translate(-51.46 108.02) rotate(-45)"/></g><g id="LWPOLYLINE-62" data-name="LWPOLYLINE"><rect class="cls-3" x="67.69" y="75.87" width="15.94" height="22.5" transform="translate(-39.45 79.01) rotate(-45)"/></g><g id="LINE-25" data-name="LINE"><line class="cls-3" x1="103.25" y1="125.99" x2="114.52" y2="114.72"/></g><g id="LINE-26" data-name="LINE"><line class="cls-3" x1="106" y1="128.74" x2="117.27" y2="117.47"/></g><g id="LINE-27" data-name="LINE"><line class="cls-3" x1="77.06" y1="77.26" x2="65.79" y2="88.53"/></g><g id="LINE-28" data-name="LINE"><line class="cls-3" x1="74.31" y1="74.51" x2="63.04" y2="85.78"/></g><g id="CIRCLE-25" data-name="CIRCLE"><path class="cls-3" d="M73.52,85a23.53,23.53,0,1,1,0,33.27,23.52,23.52,0,0,1,0-33.27Z"/></g><line class="cls-4" x1="276.39" y1="480.25" x2="276.39" y2="444.63"/><line class="cls-4" x1="278.82" y1="480.25" x2="278.82" y2="444.63"/><line class="cls-4" x1="276.39" y1="546.48" x2="276.39" y2="510.86"/><line class="cls-4" x1="278.82" y1="546.48" x2="278.82" y2="510.86"/><circle class="cls-7" cx="156.56" cy="61.69" r="12.24"/><path class="cls-8" d="M167.55,57.41a11.82,11.82,0,0,1-11,4.28"/><line class="cls-8" x1="163.66" y1="60.56" x2="168.32" y2="61.04"/><line class="cls-8" x1="161.61" y1="61.35" x2="163.89" y2="56.12"/><line class="cls-8" x1="159.29" y1="61.77" x2="167.99" y2="64.92"/><path class="cls-8" d="M146.57,56.25a11.82,11.82,0,0,1,10,5.44"/><line class="cls-8" x1="151.03" y1="57.1" x2="148.45" y2="53.46"/><line class="cls-8" x1="152.98" y1="58.12" x2="147.54" y2="59.86"/><line class="cls-8" x1="154.83" y1="59.59" x2="151.63" y2="51.42"/><path class="cls-8" d="M149.27,70.87a11.84,11.84,0,0,1,7.29-9.18"/><line class="cls-8" x1="151.02" y1="66.26" x2="147.16" y2="68.02"/><line class="cls-8" x1="152.38" y1="64.54" x2="153.06" y2="70.21"/><line class="cls-8" x1="154.17" y1="63" x2="145.55" y2="64.51"/><polyline class="cls-8" points="156.56 61.69 159.4 70.52 161.99 72.03"/><line class="cls-8" x1="157.64" y1="65.13" x2="163.08" y2="67.57"/><line class="cls-8" x1="158.18" y1="66.83" x2="154.24" y2="71.4"/><polyline class="cls-8" points="156.56 61.69 159.94 53.42 158.57 50.23"/><line class="cls-8" x1="158.13" y1="57.87" x2="156.45" y2="54.73"/><line class="cls-8" x1="159.47" y1="52.31" x2="155.87" y2="50.35"/><line class="cls-8" x1="158.5" y1="56.84" x2="161.87" y2="55.52"/><circle class="cls-7" cx="178.72" cy="81.18" r="9"/><path class="cls-8" d="M186.8,78a8.69,8.69,0,0,1-8.08,3.15"/><line class="cls-8" x1="183.94" y1="80.35" x2="187.36" y2="80.7"/><line class="cls-8" x1="182.43" y1="80.93" x2="184.11" y2="77.08"/><line class="cls-8" x1="180.72" y1="81.24" x2="187.13" y2="83.56"/><path class="cls-8" d="M171.38,77.18a8.69,8.69,0,0,1,7.34,4"/><line class="cls-8" x1="174.65" y1="77.81" x2="172.75" y2="75.13"/><line class="cls-8" x1="176.09" y1="78.55" x2="172.09" y2="79.83"/><line class="cls-8" x1="177.44" y1="79.64" x2="175.1" y2="73.63"/><path class="cls-8" d="M173.36,87.93a8.68,8.68,0,0,1,5.36-6.75"/><line class="cls-8" x1="174.64" y1="84.54" x2="171.81" y2="85.83"/><line class="cls-8" x1="175.64" y1="83.27" x2="176.15" y2="87.44"/><line class="cls-8" x1="176.96" y1="82.14" x2="170.62" y2="83.25"/><polyline class="cls-8" points="178.72 81.18 180.8 87.67 182.71 88.78"/><line class="cls-8" x1="179.52" y1="83.71" x2="183.51" y2="85.51"/><line class="cls-8" x1="179.91" y1="84.96" x2="177.02" y2="88.31"/><polyline class="cls-8" points="178.72 81.18 181.21 75.1 180.2 72.75"/><line class="cls-8" x1="179.88" y1="78.37" x2="178.64" y2="76.06"/><line class="cls-8" x1="180.86" y1="74.28" x2="178.21" y2="72.84"/><line class="cls-8" x1="180.14" y1="77.62" x2="182.62" y2="76.64"/><g id="LWPOLYLINE-63" data-name="LWPOLYLINE"><polyline class="cls-9" points="653.17 17.07 653.17 22.7 540.67 22.7 540.67 17.07"/></g><g id="LWPOLYLINE-64" data-name="LWPOLYLINE"><polyline class="cls-9" points="505.51 17.07 505.51 22.7 397.35 22.7 397.35 17.07"/></g><g id="LWPOLYLINE-65" data-name="LWPOLYLINE"><polyline class="cls-9" points="360.67 39.58 360.67 45.2 201.29 45.2 201.29 39.58"/></g><g id="LWPOLYLINE-66" data-name="LWPOLYLINE"><polyline class="cls-9" points="29.26 564.58 29.26 558.96 74.26 558.96 74.26 564.58"/></g><g id="LWPOLYLINE-67" data-name="LWPOLYLINE"><line class="cls-9" x1="148.32" y1="564.58" x2="148.32" y2="569.27"/><line class="cls-9" x1="114.57" y1="569.27" x2="114.57" y2="564.58"/></g><g id="LWPOLYLINE-68" data-name="LWPOLYLINE"><polyline class="cls-9" points="281.63 564.58 281.63 558.96 202.88 558.96 202.88 564.58"/></g><g id="LWPOLYLINE-69" data-name="LWPOLYLINE"><polyline class="cls-9" points="148.32 564.58 148.32 558.96 114.58 558.96 114.58 564.58"/></g><g id="LWPOLYLINE-70" data-name="LWPOLYLINE"><polygon class="cls-10" points="623.06 13.32 570.79 13.32 570.79 14.56 623.05 14.56 623.06 13.32"/></g><g id="LWPOLYLINE-71" data-name="LWPOLYLINE"><polygon class="cls-10" points="650.36 13.32 649.42 13.32 625.64 13.32 625.64 14.56 650.36 14.56 650.36 13.32"/></g><g id="LWPOLYLINE-72" data-name="LWPOLYLINE"><polygon class="cls-10" points="543.48 13.32 544.42 13.32 568.21 13.32 568.21 14.56 543.48 14.56 543.48 13.32"/></g><g id="LWPOLYLINE-73" data-name="LWPOLYLINE"><polygon class="cls-10" points="476.81 13.32 424.54 13.32 424.54 14.55 476.8 14.56 476.81 13.32"/></g><g id="LWPOLYLINE-74" data-name="LWPOLYLINE"><polygon class="cls-10" points="504.11 13.32 503.18 13.32 479.39 13.32 479.39 14.56 504.11 14.55 504.11 13.32"/></g><g id="LWPOLYLINE-75" data-name="LWPOLYLINE"><polygon class="cls-10" points="397.23 13.32 398.17 13.32 421.96 13.32 421.96 14.56 397.23 14.55 397.23 13.32"/></g><g id="LWPOLYLINE-76" data-name="LWPOLYLINE"><polygon class="cls-10" points="324 35.83 237.98 35.83 237.98 37.05 323.98 37.06 324 35.83"/></g><g id="LWPOLYLINE-77" data-name="LWPOLYLINE"><polygon class="cls-10" points="357.86 35.83 356.92 35.83 326.57 35.83 326.57 37.06 357.86 37.05 357.86 35.83"/></g><g id="LWPOLYLINE-78" data-name="LWPOLYLINE"><polygon class="cls-10" points="204.11 35.83 205.04 35.83 235.4 35.83 235.4 37.06 204.11 37.05 204.11 35.83"/></g><g id="LWPOLYLINE-79" data-name="LWPOLYLINE"><path class="cls-10" d="M18,155.83H21.3V56.46a8.92,8.92,0,0,1,8.92-8.92h143V44.25H30.22A12.2,12.2,0,0,0,18,56.45h0Z"/></g><g id="LWPOLYLINE-80" data-name="LWPOLYLINE"><polygon class="cls-10" points="150.56 160.51 81.89 160.51 81.89 161.74 150.54 161.74 150.56 160.51"/></g><g id="LWPOLYLINE-81" data-name="LWPOLYLINE"><polygon class="cls-10" points="48.01 160.51 48.95 160.51 79.3 160.51 79.3 161.74 48.01 161.74 48.01 160.51"/></g><g id="LWPOLYLINE-82" data-name="LWPOLYLINE"><polygon class="cls-10" points="191.92 99.88 191.92 153.01 193.15 153.01 193.15 99.89 191.92 99.88"/></g><g id="LWPOLYLINE-83" data-name="LWPOLYLINE"><polygon class="cls-10" points="191.92 72.39 191.92 73.33 191.92 97.31 193.15 97.31 193.15 72.39 191.92 72.39"/></g><g id="LWPOLYLINE-84" data-name="LWPOLYLINE"><polygon class="cls-10" points="228.23 567.1 205.69 567.1 205.69 568.33 206.63 568.33 227.52 568.33 228.23 568.33 228.23 567.1"/></g><g id="LWPOLYLINE-85" data-name="LWPOLYLINE"><polygon class="cls-10" points="278.81 567.1 230.81 567.1 230.81 568.33 231.51 568.33 278.81 568.33 278.81 567.1"/></g><g id="LWPOLYLINE-86" data-name="LWPOLYLINE"><polygon class="cls-10" points="145.51 567.1 117.39 567.1 117.39 568.33 118.33 568.33 139.22 568.33 145.51 568.33 145.51 567.1"/></g><g id="LWPOLYLINE-87" data-name="LWPOLYLINE"><polygon class="cls-10" points="71.45 567.1 32.08 567.1 32.08 568.33 33.01 568.33 53.91 568.33 71.45 568.33 71.45 567.1"/></g><g id="LWPOLYLINE-88" data-name="LWPOLYLINE"><path class="cls-11" d="M18,155.83H21.3V56.46a8.92,8.92,0,0,1,8.92-8.92h143V44.25H30.22A12.2,12.2,0,0,0,18,56.45h0Z"/></g><line class="cls-10" x1="29.31" y1="564.58" x2="278.19" y2="564.58"/><line class="cls-10" x1="44.05" y1="164.26" x2="152.25" y2="164.26"/><line class="cls-10" x1="205.04" y1="39.57" x2="356.92" y2="39.57"/><line class="cls-10" x1="195.67" y1="72.71" x2="195.67" y2="154.88"/><line class="cls-10" x1="398.17" y1="17.07" x2="503.18" y2="17.07"/><line class="cls-10" x1="543.76" y1="17.08" x2="650.36" y2="17.08"/><line class="cls-10" x1="45.2" y1="164.26" x2="45.2" y2="169.89"/><g id="LWPOLYLINE-89" data-name="LWPOLYLINE"><polyline class="cls-9" points="653.17 17.07 653.17 8.64 540.67 8.64 540.67 17.07"/></g><g id="LWPOLYLINE-90" data-name="LWPOLYLINE"><polyline class="cls-9" points="506.93 17.07 506.93 8.64 394.43 8.64 394.43 17.07"/></g><g id="LWPOLYLINE-91" data-name="LWPOLYLINE"><polyline class="cls-9" points="360.67 39.58 360.67 28.32 201.3 28.32 201.3 39.58"/></g><g id="LWPOLYLINE-92" data-name="LWPOLYLINE"><polyline class="cls-12" points="45.21 164.26 45.2 159.57 21.76 159.57 21.76 157.23 152.26 157.23 152.24 169.89 45.2 169.89"/></g><g id="LWPOLYLINE-93" data-name="LWPOLYLINE"><polyline class="cls-12" points="201.29 69.58 188.64 69.58 188.64 159.49 190.98 159.49 190.98 154.89 195.67 154.88"/></g><g id="LWPOLYLINE-94" data-name="LWPOLYLINE"><polyline class="cls-9" points="202.88 569.27 202.88 575.83 281.63 575.83 281.63 569.27"/></g><g id="LWPOLYLINE-95" data-name="LWPOLYLINE"><polyline class="cls-9" points="114.58 569.27 114.58 575.83 148.32 575.83 148.32 569.27"/></g><g id="LWPOLYLINE-96" data-name="LWPOLYLINE"><polyline class="cls-9" points="74.26 569.27 74.26 575.83 29.26 575.83 29.26 569.27"/></g><line class="cls-10" x1="153.94" y1="157.23" x2="153.94" y2="160.51"/><line class="cls-12" x1="201.29" y1="69.58" x2="201.29" y2="158.87"/><g id="LWPOLYLINE-97" data-name="LWPOLYLINE"><polygon class="cls-13" points="626.34 14.56 625.64 14.56 625.64 13.32 626.34 13.32 626.34 12.39 624.58 12.39 624.58 10.04 623.64 10.04 623.64 12.39 622.59 12.39 622.59 13.32 623.06 13.32 623.06 14.56 622.36 14.56 622.36 15.73 623.29 15.73 623.29 16.61 624.46 16.61 624.46 17.07 626.34 17.07 626.34 14.56"/></g><g id="LWPOLYLINE-98" data-name="LWPOLYLINE"><polygon class="cls-13" points="653.17 12.39 651.59 12.39 651.59 8.64 650.66 8.64 650.66 12.39 649.42 12.39 649.42 13.32 650.36 13.32 650.36 14.56 649.42 14.56 649.42 17.07 653.17 17.07 653.17 12.39"/></g><g id="LWPOLYLINE-99" data-name="LWPOLYLINE"><polygon class="cls-13" points="567.5 14.56 568.21 14.56 568.21 13.32 567.5 13.32 567.5 12.39 569.26 12.39 569.26 10.04 570.2 10.04 570.2 12.39 571.25 12.39 571.25 13.32 570.79 13.32 570.79 14.56 571.49 14.56 571.49 15.73 570.55 15.73 570.55 16.61 569.38 16.61 569.38 17.07 567.5 17.07 567.5 14.56"/></g><g id="LWPOLYLINE-100" data-name="LWPOLYLINE"><polygon class="cls-13" points="540.67 12.39 542.25 12.39 542.25 8.64 543.19 8.64 543.19 12.39 544.42 12.39 544.42 13.32 543.48 13.32 543.48 14.56 544.42 14.56 544.42 17.07 540.67 17.07 540.67 12.39"/></g><g id="LWPOLYLINE-101" data-name="LWPOLYLINE"><polygon class="cls-13" points="480.09 14.55 479.39 14.56 479.39 13.32 480.09 13.32 480.09 12.39 478.33 12.39 478.33 10.04 477.39 10.04 477.39 12.39 476.34 12.39 476.34 13.32 476.81 13.32 476.81 14.56 476.11 14.55 476.11 15.73 477.04 15.73 477.04 16.61 478.21 16.61 478.21 17.07 480.09 17.07 480.09 14.55"/></g><g id="LWPOLYLINE-102" data-name="LWPOLYLINE"><polygon class="cls-13" points="506.93 12.39 505.98 12.39 505.98 8.64 505.04 8.64 505.04 12.39 503.18 12.39 503.18 13.32 504.11 13.32 504.11 14.55 503.18 14.55 503.18 17.07 506.93 17.07 506.93 12.39"/></g><g id="LWPOLYLINE-103" data-name="LWPOLYLINE"><polygon class="cls-13" points="421.25 14.55 421.96 14.56 421.96 13.32 421.25 13.32 421.25 12.39 423.01 12.39 423.01 10.04 423.95 10.04 423.95 12.39 425 12.39 425 13.32 424.54 13.32 424.54 14.56 425.24 14.55 425.24 15.73 424.3 15.73 424.3 16.61 423.13 16.61 423.13 17.07 421.25 17.07 421.25 14.55"/></g><g id="LWPOLYLINE-104" data-name="LWPOLYLINE"><polygon class="cls-13" points="394.42 12.39 395.36 12.39 395.36 8.64 396.29 8.64 396.29 12.39 398.17 12.39 398.17 13.32 397.23 13.32 397.23 14.55 398.17 14.55 398.17 17.07 394.42 17.07 394.42 12.39"/></g><g id="LWPOLYLINE-105" data-name="LWPOLYLINE"><polygon class="cls-13" points="327.27 37.05 326.57 37.06 326.57 35.83 327.27 35.83 327.27 34.89 325.51 34.89 325.51 32.54 324.57 32.54 324.57 34.89 323.52 34.89 323.52 35.83 323.99 35.83 323.99 37.06 323.29 37.05 323.29 38.23 324.22 38.23 324.22 39.11 325.4 39.11 325.4 39.58 327.27 39.58 327.27 37.05"/></g><g id="LWPOLYLINE-106" data-name="LWPOLYLINE"><polygon class="cls-13" points="360.67 34.89 359.73 34.89 359.73 31.14 358.79 31.14 358.79 34.89 356.92 34.89 356.92 35.83 357.86 35.83 357.86 37.05 356.92 37.05 356.92 39.58 360.67 39.58 360.67 34.89"/></g><g id="LWPOLYLINE-107" data-name="LWPOLYLINE"><polygon class="cls-13" points="234.69 37.05 235.4 37.06 235.4 35.83 234.69 35.83 234.69 34.89 236.45 34.89 236.45 32.54 237.39 32.54 237.39 34.89 238.44 34.89 238.44 35.83 237.97 35.83 237.97 37.06 238.68 37.05 238.68 38.23 237.74 38.23 237.74 39.11 236.57 39.11 236.57 39.58 234.69 39.58 234.69 37.05"/></g><g id="LWPOLYLINE-108" data-name="LWPOLYLINE"><polygon class="cls-13" points="201.29 34.89 202.23 34.89 202.23 31.14 203.17 31.14 203.17 34.89 205.04 34.89 205.04 35.83 204.11 35.83 204.11 37.05 205.04 37.05 205.04 39.58 201.29 39.58 201.29 34.89"/></g><g id="LWPOLYLINE-109" data-name="LWPOLYLINE"><polygon class="cls-14" points="153.83 161.74 153.13 161.74 153.13 160.51 153.83 160.51 153.83 159.57 152.37 159.57 152.37 157.23 151.14 157.23 151.14 159.57 149.85 159.57 149.85 160.51 150.55 160.51 150.55 161.74 149.85 161.74 149.85 162.91 150.78 162.91 150.78 163.79 152.25 163.79 152.25 164.26 153.83 164.26 153.83 161.74"/></g><g id="LWPOLYLINE-110" data-name="LWPOLYLINE"><polygon class="cls-14" points="187.23 159.57 186.29 159.57 186.29 157.23 185.35 157.23 185.35 159.57 183.48 159.57 183.48 160.51 184.42 160.51 184.42 161.74 183.48 161.74 183.48 164.26 187.23 164.26 187.23 159.57"/></g><g id="LWPOLYLINE-111" data-name="LWPOLYLINE"><polygon class="cls-14" points="45.2 159.57 46.14 159.57 46.14 157.27 47.08 157.27 47.08 159.57 48.95 159.57 48.95 160.51 48.01 160.51 48.01 161.74 48.95 161.74 48.95 164.26 45.2 164.26 45.2 159.57"/></g><g id="LWPOLYLINE-112" data-name="LWPOLYLINE"><polygon class="cls-13" points="193.15 96.61 193.15 97.31 191.92 97.31 191.92 96.61 190.98 96.61 190.98 98.36 188.64 98.36 188.64 99.3 190.98 99.3 190.98 100.36 191.92 100.36 191.92 99.89 193.15 99.89 193.15 100.59 194.32 100.59 194.32 99.65 195.2 99.65 195.2 98.48 195.67 98.48 195.67 96.61 193.15 96.61"/></g><g id="LWPOLYLINE-113" data-name="LWPOLYLINE"><polygon class="cls-13" points="190.98 69.58 190.98 70.52 190.98 71.46 190.98 73.33 191.92 73.33 191.92 72.39 193.15 72.39 193.15 73.33 195.67 73.33 195.67 69.58 190.98 69.58"/></g><g id="LWPOLYLINE-114" data-name="LWPOLYLINE"><polygon class="cls-13" points="190.98 154.89 190.98 153.94 190.98 153.01 190.98 152.07 191.92 152.07 191.92 153.01 193.15 153.01 193.15 152.07 195.67 152.07 195.67 154.89 190.98 154.89"/></g><g id="LWPOLYLINE-115" data-name="LWPOLYLINE"><polygon class="cls-13" points="281.63 564.58 277.88 564.58 277.88 567.1 278.81 567.1 278.81 568.33 277.88 568.33 277.88 569.27 279.75 569.27 281.63 569.27 281.63 564.58"/></g><g id="LWPOLYLINE-116" data-name="LWPOLYLINE"><polygon class="cls-13" points="231.51 565.93 230.57 565.93 230.57 565.05 229.4 565.05 229.4 564.58 227.52 564.58 227.52 567.1 228.23 567.1 228.23 568.33 227.52 568.33 227.52 569.27 228.23 569.27 230.81 569.27 231.51 569.27 231.51 568.33 230.81 568.33 230.81 567.1 231.51 567.1 231.51 565.93"/></g><g id="LWPOLYLINE-117" data-name="LWPOLYLINE"><polygon class="cls-13" points="202.88 564.58 206.63 564.58 206.63 567.1 205.69 567.1 205.69 568.33 206.63 568.33 206.63 569.27 204.75 569.27 202.88 569.27 202.88 564.58"/></g><g id="LWPOLYLINE-118" data-name="LWPOLYLINE"><polygon class="cls-13" points="114.58 564.58 118.33 564.58 118.33 567.1 117.39 567.1 117.39 568.33 118.33 568.33 118.33 569.27 116.45 569.27 114.58 569.27 114.58 564.58"/></g><g id="LWPOLYLINE-119" data-name="LWPOLYLINE"><polygon class="cls-13" points="148.32 564.58 144.57 564.58 144.57 567.1 145.51 567.1 145.51 568.33 144.57 568.33 144.57 569.27 146.45 569.27 148.32 569.27 148.32 564.58"/></g><g id="LWPOLYLINE-120" data-name="LWPOLYLINE"><polygon class="cls-13" points="29.26 564.58 33.01 564.58 33.01 567.1 32.08 567.1 32.08 568.33 33.01 568.33 33.01 569.27 31.14 569.27 29.26 569.27 29.26 564.58"/></g><g id="LWPOLYLINE-121" data-name="LWPOLYLINE"><polygon class="cls-13" points="74.26 564.58 70.51 564.58 70.51 567.1 71.45 567.1 71.45 568.33 70.51 568.33 70.51 569.27 72.39 569.27 74.26 569.27 74.26 564.58"/></g><g id="LWPOLYLINE-122" data-name="LWPOLYLINE"><polygon class="cls-14" points="78.6 161.74 79.3 161.74 79.3 160.51 78.6 160.51 78.6 159.57 80.36 159.57 80.36 157.23 81.29 157.23 81.29 159.57 82.58 159.57 82.58 160.51 81.88 160.51 81.88 161.74 82.58 161.74 82.58 162.91 81.64 162.91 81.64 163.79 80.47 163.79 80.47 164.26 78.6 164.26 78.6 161.74"/></g><g id="LWPOLYLINE-123" data-name="LWPOLYLINE"><rect class="cls-15" x="119.39" y="403.32" width="35.16" height="1.71" transform="translate(-245.67 215.23) rotate(-45)"/></g><g id="LWPOLYLINE-124" data-name="LWPOLYLINE"><rect class="cls-15" x="169.29" y="426.49" width="1.71" height="35.24" transform="translate(-264.2 250.39) rotate(-45)"/></g><g id="LWPOLYLINE-125" data-name="LWPOLYLINE"><rect class="cls-16" x="199.07" y="390.14" width="1.64" height="34.75"/></g><g id="LWPOLYLINE-126" data-name="LWPOLYLINE"><rect class="cls-16" x="98.75" y="387.82" width="1.64" height="33.75"/></g><g id="LWPOLYLINE-127" data-name="LWPOLYLINE"><rect class="cls-16" x="150.2" y="310.28" width="1.64" height="33.75"/></g><g id="LWPOLYLINE-128" data-name="LWPOLYLINE"><rect class="cls-16" x="263.99" y="304.89" width="33.75" height="1.64"/></g><g id="LWPOLYLINE-129" data-name="LWPOLYLINE"><rect class="cls-16" x="209.15" y="304.89" width="33.75" height="1.64"/></g><g id="LWPOLYLINE-130" data-name="LWPOLYLINE"><rect class="cls-16" x="470.94" y="182.78" width="33.75" height="1.64"/></g><g id="LWPOLYLINE-131" data-name="LWPOLYLINE"><rect class="cls-16" x="518.52" y="182.78" width="33.75" height="1.64"/></g><g id="LWPOLYLINE-132" data-name="LWPOLYLINE"><rect class="cls-15" x="351.44" y="328.22" width="1.64" height="33.75" transform="translate(-140.85 350.16) rotate(-45)"/></g><g id="LWPOLYLINE-133" data-name="LWPOLYLINE"><rect class="cls-15" x="391.58" y="170.61" width="33.75" height="1.64" transform="translate(-1.58 339.03) rotate(-45)"/></g><g id="LWPOLYLINE-134" data-name="LWPOLYLINE"><rect class="cls-16" x="437.66" y="139.89" width="33.75" height="1.64"/></g><g id="LWPOLYLINE-135" data-name="LWPOLYLINE"><rect class="cls-16" x="176.22" y="480.25" width="1.64" height="32.18"/></g><g id="LWPOLYLINE-136" data-name="LWPOLYLINE"><rect class="cls-16" x="148.32" y="523.24" width="1.64" height="31.77"/></g><g id="LWPOLYLINE-137" data-name="LWPOLYLINE"><rect class="cls-16" x="98.75" y="387.82" width="1.64" height="33.75"/></g><g id="LWPOLYLINE-138" data-name="LWPOLYLINE"><rect class="cls-16" x="150.2" y="310.28" width="1.64" height="33.75"/></g><g id="LWPOLYLINE-139" data-name="LWPOLYLINE"><rect class="cls-16" x="263.99" y="304.89" width="33.75" height="1.64"/></g><g id="LWPOLYLINE-140" data-name="LWPOLYLINE"><rect class="cls-16" x="209.15" y="304.89" width="33.75" height="1.64"/></g><g id="LWPOLYLINE-141" data-name="LWPOLYLINE"><rect class="cls-16" x="470.94" y="182.78" width="33.75" height="1.64"/></g><g id="LWPOLYLINE-142" data-name="LWPOLYLINE"><rect class="cls-16" x="518.52" y="182.78" width="33.75" height="1.64"/></g><g id="LWPOLYLINE-143" data-name="LWPOLYLINE"><rect class="cls-16" x="437.66" y="139.89" width="33.75" height="1.64"/></g><g id="ARC-30" data-name="ARC"><path class="cls-16" d="M123.94,416a35.15,35.15,0,0,0,24.86,10.29"/></g><g id="ARC-31" data-name="ARC"><path class="cls-16" d="M182,457.18a35.25,35.25,0,0,0,10.32-24.92"/></g><g id="ARC-32" data-name="ARC"><path class="cls-16" d="M340.91,332.59A33.73,33.73,0,0,0,331,356.45"/></g><g id="ARC-33" data-name="ARC"><path class="cls-16" d="M429.69,182.78a33.76,33.76,0,0,0-9.88-23.87"/></g><g id="ARC-34" data-name="ARC"><path class="cls-16" d="M340.91,332.59A33.73,33.73,0,0,0,331,356.45"/></g><g id="ARC-35" data-name="ARC"><path class="cls-16" d="M429.69,182.78a33.76,33.76,0,0,0-9.88-23.87"/></g><g id="ARC-36" data-name="ARC"><path class="cls-16" d="M153.94,157.23a29.66,29.66,0,0,1,8.93-20.33"/></g><g id="LWPOLYLINE-144" data-name="LWPOLYLINE"><rect class="cls-15" x="172.51" y="133.09" width="1.23" height="31.29" transform="translate(-54.98 140.82) rotate(-38.68)"/></g><g id="LWPOLYLINE-145" data-name="LWPOLYLINE"><rect class="cls-10" x="270.43" y="381.85" width="0.83" height="35.69"/></g><g id="ARC-37" data-name="ARC"><path class="cls-10" d="M286.11,387a3.29,3.29,0,1,0,.79,0"/></g><g id="LWPOLYLINE-146" data-name="LWPOLYLINE"><path class="cls-10" d="M286.9,390.3V380.13h-.78V390.3a.38.38,0,0,0,.39.39A.39.39,0,0,0,286.9,390.3Z"/></g><g id="LWPOLYLINE-147" data-name="LWPOLYLINE"><rect class="cls-10" x="40.62" y="329.64" width="58.23" height="30.99"/></g><g id="LWPOLYLINE-148" data-name="LWPOLYLINE"><path class="cls-10" d="M45.67,346v5.82a4.69,4.69,0,0,0,4.69,4.69H89a4.69,4.69,0,0,0,4.69-4.69V339.42A4.68,4.68,0,0,0,89,334.74H50.36a4.68,4.68,0,0,0-4.69,4.68v5.83"/></g><g id="ARC-38" data-name="ARC"><path class="cls-17" d="M46.85,346a3.29,3.29,0,1,0,0-.78"/></g><g id="LWPOLYLINE-149" data-name="LWPOLYLINE"><path class="cls-17" d="M50.11,345.25H39.94V346H50.11a.39.39,0,0,0,0-.77Z"/></g><g id="LWPOLYLINE-150" data-name="LWPOLYLINE"><rect class="cls-10" x="480.73" y="28.33" width="24.38" height="61.05" rx="4.69"/></g><g id="LWPOLYLINE-151" data-name="LWPOLYLINE"><rect class="cls-10" x="476.06" y="97.12" width="0.83" height="34.8"/></g><g id="LWPOLYLINE-152" data-name="LWPOLYLINE"><rect class="cls-10" x="476.01" y="96.32" width="33.71" height="0.83"/></g><g id="ARC-39" data-name="ARC"><path class="cls-10" d="M492.41,124.92a3.28,3.28,0,1,0-.78,0"/></g><g id="LWPOLYLINE-153" data-name="LWPOLYLINE"><path class="cls-10" d="M491.63,121.66v10.17h.77V121.66a.39.39,0,1,0-.77,0Z"/></g><g id="LWPOLYLINE-154" data-name="LWPOLYLINE"><rect class="cls-10" x="475.86" y="22.64" width="34.74" height="73.65"/></g><g id="LWPOLYLINE-155" data-name="LWPOLYLINE"><rect class="cls-10" x="480.73" y="28.33" width="24.38" height="61.05" rx="4.69"/></g><g id="LWPOLYLINE-156" data-name="LWPOLYLINE"><rect class="cls-10" x="476.04" y="96.29" width="33.81" height="35.62"/></g><g id="ARC-40" data-name="ARC"><path class="cls-17" d="M492.47,30a3.47,3.47,0,1,0,.83,0"/></g><g id="LWPOLYLINE-157" data-name="LWPOLYLINE"><path class="cls-17" d="M493.3,33.41V22.7h-.81V33.41a.41.41,0,1,0,.81,0Z"/></g><g id="LWPOLYLINE-158" data-name="LWPOLYLINE"><rect class="cls-17" x="476.04" y="130.59" width="0.85" height="1.2"/></g><g id="LINE-31" data-name="LINE"><line class="cls-17" x1="117.5" y1="314.5" x2="117.5" y2="339.81"/></g><g id="LINE-32" data-name="LINE"><line class="cls-17" x1="117.5" y1="339.81" x2="145.4" y2="339.81"/></g><g id="LINE-33" data-name="LINE"><line class="cls-17" x1="145.4" y1="339.81" x2="145.4" y2="314.5"/></g><g id="LINE-34" data-name="LINE"><line class="cls-17" x1="145.4" y1="314.5" x2="117.5" y2="314.5"/></g><g id="LWPOLYLINE-159" data-name="LWPOLYLINE"><rect class="cls-17" x="82.7" y="202.44" width="67.5" height="37.5"/></g><g id="LWPOLYLINE-160" data-name="LWPOLYLINE"><rect class="cls-17" x="138.25" y="278.24" width="34.87" height="22.64"/></g><g id="LWPOLYLINE-161" data-name="LWPOLYLINE"><polygon class="cls-10" points="138.25 278.22 138.25 300.9 21.76 300.9 21.76 186.06 44.77 186.06 44.77 278.22 138.25 278.22"/></g><g id="LWPOLYLINE-162" data-name="LWPOLYLINE"><rect class="cls-17" x="21.76" y="169.89" width="22.92" height="16.17"/></g><g id="LWPOLYLINE-163" data-name="LWPOLYLINE"><polyline class="cls-10" points="27.64 251.48 42.35 251.48 42.35 223.91 27.64 223.91 27.64 251.48"/></g><rect class="cls-17" x="24.08" y="235.58" width="3.36" height="1.41" transform="translate(262.04 210.53) rotate(90)"/><path class="cls-17" d="M26.32,238.7a1,1,0,0,0,.32-.32h7.08a.51.51,0,1,0,0-1H26.64a1,1,0,1,0-.32,1.34Z"/><g id="CIRCLE-26" data-name="CIRCLE"><path class="cls-10" d="M93.67,283.62a.7.7,0,0,1,0-1.4.7.7,0,0,1,0,1.4Z"/></g><g id="CIRCLE-27" data-name="CIRCLE"><path class="cls-10" d="M89.29,283.62a.7.7,0,1,1,.7-.7.7.7,0,0,1-.7.7Z"/></g><g id="CIRCLE-28" data-name="CIRCLE"><path class="cls-10" d="M89.29,286.48a.7.7,0,1,1,.7-.69.69.69,0,0,1-.7.69Z"/></g><g id="CIRCLE-29" data-name="CIRCLE"><path class="cls-10" d="M91.48,286.48a.7.7,0,1,1,.7-.69.7.7,0,0,1-.7.69Z"/></g><g id="CIRCLE-30" data-name="CIRCLE"><path class="cls-10" d="M93.67,286.48a.7.7,0,1,1,.69-.69.69.69,0,0,1-.69.69Z"/></g><g id="LWPOLYLINE-164" data-name="LWPOLYLINE"><rect class="cls-10" x="77.99" y="280.04" width="26.99" height="16.03" rx="0.38"/></g><circle class="cls-10" cx="82.8" cy="291.92" r="1.32"/><path class="cls-10" d="M86.79,288.74v5.85a.56.56,0,0,1-.56.56H79.37a.56.56,0,0,1-.56-.56v-5.85a0,0,0,0,1,0,0h7.9A0,0,0,0,1,86.79,288.74Z"/><circle class="cls-10" cx="91.48" cy="291.92" r="1.32"/><path class="cls-10" d="M95.47,288.74v5.85a.56.56,0,0,1-.56.56H88.05a.56.56,0,0,1-.56-.56v-5.85a0,0,0,0,1,0,0h7.9A0,0,0,0,1,95.47,288.74Z"/><circle class="cls-10" cx="100.16" cy="291.92" r="1.32"/><path class="cls-10" d="M104.15,288.74v5.85a.56.56,0,0,1-.56.56H96.73a.56.56,0,0,1-.56-.56v-5.85a0,0,0,0,1,0,0h7.9A0,0,0,0,1,104.15,288.74Z"/><circle class="cls-10" cx="100.16" cy="284.35" r="1.32"/><path class="cls-10" d="M96.17,287.53v-5.85a.56.56,0,0,1,.56-.55h6.86a.56.56,0,0,1,.56.55v5.85a0,0,0,0,1,0,.05h-7.9A0,0,0,0,1,96.17,287.53Z"/><circle class="cls-10" cx="82.8" cy="284.35" r="1.32"/><path class="cls-10" d="M78.81,287.53v-5.85a.56.56,0,0,1,.56-.55h6.86a.56.56,0,0,1,.56.55v5.85a0,0,0,0,1,0,.05h-7.9A0,0,0,0,1,78.81,287.53Z"/><g id="LINE-35" data-name="LINE"><line class="cls-10" x1="36.13" y1="288.06" x2="36.79" y2="288.06"/><line class="cls-18" x1="38.1" y1="288.06" x2="136.93" y2="288.06"/><line class="cls-10" x1="137.59" y1="288.06" x2="138.25" y2="288.06"/></g><g id="LWPOLYLINE-165" data-name="LWPOLYLINE"><line class="cls-19" x1="200.36" y1="291.76" x2="251.68" y2="291.76"/></g><g id="LWPOLYLINE-166" data-name="LWPOLYLINE"><line class="cls-19" x1="255.2" y1="291.76" x2="306.53" y2="291.76"/></g><g id="LWPOLYLINE-167" data-name="LWPOLYLINE"><polyline class="cls-19" points="449.26 186.29 449.26 233.05 493.68 233.05"/></g><g id="LWPOLYLINE-168" data-name="LWPOLYLINE"><polyline class="cls-19" points="513.36 233.05 560.71 233.05 560.71 186.29"/></g><g id="LWPOLYLINE-169" data-name="LWPOLYLINE"><line class="cls-19" x1="163.09" y1="516.19" x2="163.09" y2="476.92"/></g><g id="LWPOLYLINE-170" data-name="LWPOLYLINE"><line class="cls-19" x1="163.09" y1="519.7" x2="163.09" y2="558.96"/></g><line class="cls-10" x1="85.29" y1="239.94" x2="85.29" y2="239.28"/><line class="cls-20" x1="85.29" y1="237.9" x2="85.29" y2="219.24"/><polyline class="cls-10" points="85.29 218.55 85.29 217.89 85.95 217.89"/><line class="cls-21" x1="87.33" y1="217.89" x2="105.92" y2="217.89"/><polyline class="cls-10" points="106.61 217.89 107.27 217.89 107.27 218.55"/><line class="cls-20" x1="107.27" y1="219.93" x2="107.27" y2="238.59"/><line class="cls-10" x1="107.27" y1="239.28" x2="107.27" y2="239.94"/><line class="cls-10" x1="44.68" y1="221.17" x2="44.02" y2="221.17"/><line class="cls-22" x1="42.66" y1="221.17" x2="27.09" y2="221.17"/><polyline class="cls-10" points="26.42 221.17 25.76 221.17 25.76 220.51"/><line class="cls-23" x1="25.76" y1="219.22" x2="25.76" y2="201.78"/><polyline class="cls-10" points="25.76 201.13 25.76 200.47 26.42 200.47"/><line class="cls-22" x1="27.77" y1="200.47" x2="43.34" y2="200.47"/><line class="cls-10" x1="44.02" y1="200.47" x2="44.68" y2="200.47"/><line class="cls-10" x1="118.48" y1="239.94" x2="118.48" y2="239.28"/><line class="cls-24" x1="118.48" y1="237.9" x2="118.48" y2="219.24"/><polyline class="cls-10" points="118.48 218.55 118.48 217.89 119.14 217.89"/><line class="cls-25" x1="120.4" y1="217.89" x2="139.96" y2="217.89"/><polyline class="cls-10" points="140.59 217.89 141.25 217.89 141.25 218.55"/><line class="cls-24" x1="141.25" y1="219.93" x2="141.25" y2="238.59"/><line class="cls-10" x1="141.25" y1="239.28" x2="141.25" y2="239.94"/><line class="cls-26" x1="82.7" y1="211.8" x2="150.08" y2="211.8"/><g id="LWPOLYLINE-171" data-name="LWPOLYLINE"><line class="cls-19" x1="36.13" y1="288.06" x2="36.13" y2="186.16"/></g><g id="LINE-36" data-name="LINE"><line class="cls-13" x1="302.58" y1="285.24" x2="302.58" y2="298.29"/></g><g id="LINE-37" data-name="LINE"><line class="cls-13" x1="300.16" y1="285.24" x2="300.16" y2="298.29"/></g><g id="LINE-38" data-name="LINE"><line class="cls-13" x1="297.74" y1="285.24" x2="297.74" y2="298.29"/></g><g id="LINE-39" data-name="LINE"><line class="cls-13" x1="295.32" y1="285.24" x2="295.32" y2="298.29"/></g><g id="LINE-40" data-name="LINE"><line class="cls-13" x1="292.9" y1="285.24" x2="292.9" y2="298.29"/></g><g id="LINE-41" data-name="LINE"><line class="cls-13" x1="290.49" y1="298.29" x2="290.49" y2="285.23"/></g><g id="LINE-42" data-name="LINE"><line class="cls-13" x1="247.74" y1="285.24" x2="247.74" y2="298.29"/></g><g id="LINE-43" data-name="LINE"><line class="cls-13" x1="245.32" y1="285.24" x2="245.32" y2="298.29"/></g><g id="LINE-44" data-name="LINE"><line class="cls-13" x1="242.9" y1="285.24" x2="242.9" y2="298.29"/></g><g id="LINE-45" data-name="LINE"><line class="cls-13" x1="240.48" y1="285.24" x2="240.48" y2="298.29"/></g><g id="LINE-46" data-name="LINE"><line class="cls-13" x1="238.06" y1="285.24" x2="238.06" y2="298.29"/></g><g id="LINE-47" data-name="LINE"><line class="cls-13" x1="235.64" y1="298.29" x2="235.64" y2="285.23"/></g><g id="LINE-48" data-name="LINE"><line class="cls-13" x1="156.56" y1="555.01" x2="169.62" y2="555.01"/></g><g id="LINE-49" data-name="LINE"><line class="cls-13" x1="156.56" y1="552.59" x2="169.62" y2="552.59"/></g><g id="LINE-50" data-name="LINE"><line class="cls-13" x1="156.56" y1="550.17" x2="169.62" y2="550.17"/></g><g id="LINE-51" data-name="LINE"><line class="cls-13" x1="156.56" y1="547.75" x2="169.62" y2="547.75"/></g><g id="LINE-52" data-name="LINE"><line class="cls-13" x1="156.56" y1="545.33" x2="169.62" y2="545.33"/></g><g id="LINE-53" data-name="LINE"><line class="cls-13" x1="169.62" y1="542.91" x2="156.56" y2="542.91"/></g><g id="LINE-54" data-name="LINE"><line class="cls-13" x1="156.56" y1="512.24" x2="169.62" y2="512.24"/></g><g id="LINE-55" data-name="LINE"><line class="cls-13" x1="156.56" y1="509.82" x2="169.62" y2="509.82"/></g><g id="LINE-56" data-name="LINE"><line class="cls-13" x1="156.56" y1="507.4" x2="169.62" y2="507.4"/></g><g id="LINE-57" data-name="LINE"><line class="cls-13" x1="156.56" y1="504.98" x2="169.62" y2="504.98"/></g><g id="LINE-58" data-name="LINE"><line class="cls-13" x1="156.56" y1="502.56" x2="169.62" y2="502.56"/></g><g id="LINE-59" data-name="LINE"><line class="cls-13" x1="169.62" y1="500.14" x2="156.56" y2="500.14"/></g><g id="LINE-60" data-name="LINE"><line class="cls-13" x1="554.18" y1="190.24" x2="567.24" y2="190.24"/></g><g id="LINE-61" data-name="LINE"><line class="cls-13" x1="554.18" y1="192.66" x2="567.24" y2="192.66"/></g><g id="LINE-62" data-name="LINE"><line class="cls-13" x1="554.18" y1="195.08" x2="567.24" y2="195.08"/></g><g id="LINE-63" data-name="LINE"><line class="cls-13" x1="554.18" y1="197.5" x2="567.24" y2="197.5"/></g><g id="LINE-64" data-name="LINE"><line class="cls-13" x1="554.18" y1="199.92" x2="567.24" y2="199.92"/></g><g id="LINE-65" data-name="LINE"><line class="cls-13" x1="567.23" y1="202.34" x2="554.18" y2="202.34"/></g><g id="LINE-66" data-name="LINE"><line class="cls-13" x1="442.74" y1="190.24" x2="455.79" y2="190.24"/></g><g id="LINE-67" data-name="LINE"><line class="cls-13" x1="442.74" y1="192.66" x2="455.79" y2="192.66"/></g><g id="LINE-68" data-name="LINE"><line class="cls-13" x1="442.74" y1="195.08" x2="455.79" y2="195.08"/></g><g id="LINE-69" data-name="LINE"><line class="cls-13" x1="442.74" y1="197.5" x2="455.79" y2="197.5"/></g><g id="LINE-70" data-name="LINE"><line class="cls-13" x1="442.74" y1="199.92" x2="455.79" y2="199.92"/></g><g id="LINE-71" data-name="LINE"><line class="cls-13" x1="455.79" y1="202.34" x2="442.74" y2="202.34"/></g><g id="LINE-72" data-name="LINE"><line class="cls-13" x1="489.73" y1="226.52" x2="489.73" y2="239.58"/></g><g id="LINE-73" data-name="LINE"><line class="cls-13" x1="487.31" y1="226.52" x2="487.31" y2="239.58"/></g><g id="LINE-74" data-name="LINE"><line class="cls-13" x1="484.89" y1="226.52" x2="484.89" y2="239.58"/></g><g id="LINE-75" data-name="LINE"><line class="cls-13" x1="482.47" y1="226.52" x2="482.47" y2="239.58"/></g><g id="LINE-76" data-name="LINE"><line class="cls-13" x1="480.05" y1="226.52" x2="480.05" y2="239.58"/></g><g id="LINE-77" data-name="LINE"><line class="cls-13" x1="477.63" y1="239.58" x2="477.63" y2="226.52"/></g><g id="LINE-78" data-name="LINE"><line class="cls-13" x1="532.65" y1="226.52" x2="532.65" y2="239.58"/></g><g id="LINE-79" data-name="LINE"><line class="cls-13" x1="530.23" y1="226.52" x2="530.23" y2="239.58"/></g><g id="LINE-80" data-name="LINE"><line class="cls-13" x1="527.81" y1="226.52" x2="527.81" y2="239.58"/></g><g id="LINE-81" data-name="LINE"><line class="cls-13" x1="525.39" y1="226.52" x2="525.39" y2="239.58"/></g><g id="LINE-82" data-name="LINE"><line class="cls-13" x1="522.97" y1="226.52" x2="522.97" y2="239.58"/></g><g id="LINE-83" data-name="LINE"><line class="cls-13" x1="520.55" y1="239.58" x2="520.55" y2="226.52"/></g><g id="LINE-84" data-name="LINE"><line class="cls-13" x1="156.56" y1="552.59" x2="169.62" y2="552.59"/></g><g id="LINE-85" data-name="LINE"><line class="cls-13" x1="554.18" y1="197.5" x2="567.24" y2="197.5"/></g><g id="LINE-86" data-name="LINE"><line class="cls-13" x1="442.74" y1="199.92" x2="455.79" y2="199.92"/></g><g id="LWPOLYLINE-172" data-name="LWPOLYLINE"><rect class="cls-17" x="239.27" y="357.21" width="26.4" height="20.28"/></g><g id="LWPOLYLINE-173" data-name="LWPOLYLINE"><path class="cls-17" d="M244.46,373.53a1.13,1.13,0,0,0,1.13,1.13h13.77a1.14,1.14,0,0,0,1.13-1.13V363.34a.94.94,0,0,0-.94-.94H245.4a.94.94,0,0,0-.94.94Z"/></g><g id="ARC-41" data-name="ARC"><path class="cls-17" d="M229.05,374.11c.36-3.23,1-11.77,1-11.77"/></g><g id="ARC-42" data-name="ARC"><path class="cls-17" d="M217.55,366.62a.85.85,0,0,0-.79.53c-.15.35-.28.71-.41,1.07a14.74,14.74,0,0,0-.65,3c-.06.54-.11,1.08-.14,1.63a16.32,16.32,0,0,0,.35,4.24,10.37,10.37,0,0,0,3.14,5.43,4.91,4.91,0,0,0,6.67-.07,10.26,10.26,0,0,0,3-5.48,16,16,0,0,0,.27-4.25c0-.55-.09-1.09-.16-1.63a15.41,15.41,0,0,0-.72-3c-.13-.36-.27-.72-.42-1.07a.85.85,0,0,0-.8-.51Z"/></g><g id="ARC-43" data-name="ARC"><path class="cls-17" d="M215.55,374.24c-.42-3.22-1-11.9-1-11.9"/></g><g id="ARC-44" data-name="ARC"><path class="cls-17" d="M230.07,362.49a1.12,1.12,0,0,1-1,1.06,57.75,57.75,0,0,1-13.57,0,1.14,1.14,0,0,1-1-1.06v0c-.05-1.16-.09-2.33-.12-3.5a1.5,1.5,0,0,1,1.36-1.52q3.27-.28,6.54-.28t6.53.28A1.51,1.51,0,0,1,230.2,359c0,1.17-.07,2.34-.13,3.5Z"/></g><g id="ARC-45" data-name="ARC"><path class="cls-17" d="M253,360.93a1.19,1.19,0,1,0-.95,0Z"/></g><g id="ARC-46" data-name="ARC"><path class="cls-17" d="M258.39,359.6a1.19,1.19,0,1,0,0,.48Z"/></g><g id="ARC-47" data-name="ARC"><path class="cls-17" d="M246.55,359.6a1.19,1.19,0,0,1,2.36.24,1.19,1.19,0,0,1-1.19,1.19,1.2,1.2,0,0,1-1.17-.95Z"/></g><g id="LINE-87" data-name="LINE"><path class="cls-17" d="M253,365.55v-5.71a.48.48,0,0,0-.95,0v5.71a.48.48,0,0,0,.95,0Z"/></g><line class="cls-17" x1="257.22" y1="359.84" x2="260.56" y2="359.84"/><line class="cls-17" x1="244.39" y1="359.84" x2="247.73" y2="359.84"/><g id="LWPOLYLINE-174" data-name="LWPOLYLINE"><rect class="cls-17" x="27.58" y="364.79" width="19.67" height="25.62"/></g><g id="LWPOLYLINE-175" data-name="LWPOLYLINE"><path class="cls-17" d="M43.41,385.38a1.1,1.1,0,0,0,1.1-1.1V370.92a1.1,1.1,0,0,0-1.1-1.1H33.53a.92.92,0,0,0-.92.92v13.72a.92.92,0,0,0,.92.92Z"/></g><g id="ARC-48" data-name="ARC"><path class="cls-17" d="M44,400.33c-3.14-.35-11.43-1-11.43-1"/></g><g id="ARC-49" data-name="ARC"><path class="cls-17" d="M36.7,411.49a.85.85,0,0,0,.52.76c.34.14.69.28,1.05.39a14.3,14.3,0,0,0,2.9.64c.53.06,1,.1,1.58.13a15.42,15.42,0,0,0,4.12-.34,10,10,0,0,0,5.26-3,4.76,4.76,0,0,0-.06-6.47,10.13,10.13,0,0,0-5.32-2.94,15.9,15.9,0,0,0-4.13-.26c-.52,0-1,.1-1.57.17a14.41,14.41,0,0,0-2.9.69c-.35.12-.69.26-1,.41a.82.82,0,0,0-.5.77Z"/></g><g id="ARC-50" data-name="ARC"><path class="cls-17" d="M44.1,413.42c-3.13.41-11.55,1-11.55,1"/></g><g id="ARC-51" data-name="ARC"><path class="cls-17" d="M32.7,399.34a1.09,1.09,0,0,1,1,1,55.89,55.89,0,0,1,.39,6.59,55.6,55.6,0,0,1-.39,6.58,1.09,1.09,0,0,1-1,1h0c-1.13.05-2.26.1-3.39.12a1.45,1.45,0,0,1-1.48-1.32c-.18-2.11-.27-4.23-.27-6.34s.09-4.23.27-6.34a1.46,1.46,0,0,1,1.48-1.33c1.13,0,2.26.07,3.39.13Z"/></g><g id="ARC-52" data-name="ARC"><path class="cls-17" d="M31.19,377.14a1.16,1.16,0,1,0,0,.92Z"/></g><g id="ARC-53" data-name="ARC"><path class="cls-17" d="M29.9,371.86a1.15,1.15,0,1,0,.46,0Z"/></g><g id="ARC-54" data-name="ARC"><path class="cls-17" d="M29.9,383.34a1.15,1.15,0,1,1,.46,0Z"/></g><g id="LINE-88" data-name="LINE"><path class="cls-17" d="M35.67,377.14H30.13a.47.47,0,0,0-.46.46.46.46,0,0,0,.46.46h5.54a.46.46,0,0,0,.46-.46A.47.47,0,0,0,35.67,377.14Z"/></g><line class="cls-17" x1="30.13" y1="373" x2="30.13" y2="369.76"/><line class="cls-17" x1="30.13" y1="385.44" x2="30.13" y2="382.2"/><g id="ARC-55" data-name="ARC"><path class="cls-17" d="M415.49,112.94c-3.47-.38-12.63-1.1-12.63-1.1"/></g><g id="ARC-56" data-name="ARC"><path class="cls-17" d="M407.45,125.29a.94.94,0,0,0,.57.84c.38.16.77.3,1.16.43a16,16,0,0,0,3.21.71c.58.06,1.16.11,1.74.14a17.43,17.43,0,0,0,4.56-.37,11.15,11.15,0,0,0,5.82-3.37,5.25,5.25,0,0,0-.07-7.15,11.14,11.14,0,0,0-5.88-3.25A17.5,17.5,0,0,0,414,113q-.87.08-1.74.18a16.49,16.49,0,0,0-3.19.77c-.39.14-.78.29-1.15.46a.92.92,0,0,0-.56.85Z"/></g><g id="ARC-57" data-name="ARC"><path class="cls-17" d="M415.63,127.42c-3.46.45-12.77,1.12-12.77,1.12"/></g><g id="ARC-58" data-name="ARC"><path class="cls-17" d="M403,111.85a1.2,1.2,0,0,1,1.14,1.06,61.84,61.84,0,0,1,0,14.56,1.21,1.21,0,0,1-1.14,1.06h0c-1.25.06-2.5.1-3.75.13a1.61,1.61,0,0,1-1.64-1.47q-.3-3.5-.3-7t.3-7a1.62,1.62,0,0,1,1.64-1.47c1.25,0,2.5.08,3.75.14Z"/></g><g id="LWPOLYLINE-176" data-name="LWPOLYLINE"><path class="cls-10" d="M404.45,78.44v9.11a1,1,0,0,0,1,1H417.6a1,1,0,0,0,1-1V68.33a1,1,0,0,0-1-1H405.46a1,1,0,0,0-1,1V78.44Z"/></g><g id="ARC-59" data-name="ARC"><path class="cls-17" d="M401.92,77.43a1.27,1.27,0,0,0-2.44.51,1.29,1.29,0,0,0,.77,1.17,1.27,1.27,0,0,0,1.67-.66Z"/></g><g id="ARC-60" data-name="ARC"><path class="cls-17" d="M400.5,71.59a1.28,1.28,0,1,0,.51,0Z"/></g><g id="ARC-61" data-name="ARC"><path class="cls-17" d="M400.5,84.29a1.28,1.28,0,1,1,.51,0Z"/></g><g id="LINE-89" data-name="LINE"><path class="cls-17" d="M406.88,77.43h-6.12a.5.5,0,0,0-.51.51.51.51,0,0,0,.51.51h6.12a.51.51,0,0,0,.51-.51A.51.51,0,0,0,406.88,77.43Z"/></g><line class="cls-17" x1="400.76" y1="72.85" x2="400.76" y2="69.27"/><line class="cls-17" x1="400.76" y1="86.61" x2="400.76" y2="83.02"/><g id="LWPOLYLINE-177" data-name="LWPOLYLINE"><path class="cls-10" d="M404.45,48.11v9.11a1,1,0,0,0,1,1H417.6a1,1,0,0,0,1-1V38a1,1,0,0,0-1-1H405.46a1,1,0,0,0-1,1V48.11Z"/></g><g id="LWPOLYLINE-178" data-name="LWPOLYLINE"><rect class="cls-10" x="397.36" y="29.14" width="24.28" height="72.84"/></g><g id="ARC-62" data-name="ARC"><path class="cls-17" d="M401.92,46.84a1.27,1.27,0,1,0,0,1Z"/></g><g id="ARC-63" data-name="ARC"><path class="cls-17" d="M400.5,41a1.28,1.28,0,1,0,.51,0Z"/></g><g id="ARC-64" data-name="ARC"><path class="cls-17" d="M400.5,53.7a1.28,1.28,0,1,1,.51,0Z"/></g><g id="LINE-90" data-name="LINE"><path class="cls-17" d="M406.88,46.84h-6.12a.51.51,0,1,0,0,1h6.12a.51.51,0,0,0,0-1Z"/></g><line class="cls-17" x1="400.76" y1="42.26" x2="400.76" y2="38.68"/><line class="cls-17" x1="400.76" y1="56.02" x2="400.76" y2="52.44"/><g id="LWPOLYLINE-179" data-name="LWPOLYLINE"><polygon class="cls-27" points="202.88 575.83 202.88 558.96 177.86 558.96 177.86 511.9 174.34 511.9 174.34 516.18 151.84 516.18 151.84 476.92 174.34 476.92 174.34 480.97 177.86 480.97 177.86 473.4 151.84 473.4 151.84 432.15 157.17 432.15 157.17 428.64 151.84 428.64 151.84 426.29 148.32 426.29 148.32 523.74 151.84 523.74 151.84 519.7 174.34 519.7 174.34 558.96 151.84 558.95 151.84 554.68 148.32 554.68 148.32 575.83 152.07 575.83 152.07 573.96 199.13 573.96 199.13 575.83 202.88 575.83"/></g><g id="LWPOLYLINE-180" data-name="LWPOLYLINE"><polygon class="cls-27" points="74.26 575.83 78.01 575.83 78.01 573.96 110.83 573.96 110.83 575.83 114.58 575.83 114.58 542.9 74.26 542.9 74.26 558.95 74.26 575.83"/></g><g id="LWPOLYLINE-181" data-name="LWPOLYLINE"><polygon class="cls-27" points="201.29 169.89 201.29 154.89 190.98 154.89 190.98 159.57 187.23 159.57 187.23 169.89 195.11 169.89 201.29 169.89"/></g><g id="LWPOLYLINE-182" data-name="LWPOLYLINE"><polygon class="cls-27" points="201.29 70.51 201.29 32.08 200.34 32.07 197.86 31.92 195.11 31.36 193.03 30.7 190.76 29.65 188.64 28.32 187.7 28.32 187.7 29.26 186.76 29.26 186.76 28.32 185.82 28.32 183.7 29.65 181.44 30.7 179.06 31.46 176.6 31.92 174.11 32.08 173.17 32.08 173.17 69.58 195.67 69.58 195.67 70.51 201.29 70.51"/></g><g id="LWPOLYLINE-183" data-name="LWPOLYLINE"><polygon class="cls-27" points="285.38 575.83 285.38 573.96 310.63 573.96 310.63 493.85 304.07 493.85 304.07 431.92 310.04 431.92 310.04 367.82 317.07 367.82 317.07 362.19 331.02 362.19 331.02 356.45 310.04 356.45 310.04 344.03 306.53 344.03 306.53 347.78 199.07 347.78 199.07 391.14 205.86 391.14 205.86 357.39 270.55 357.39 270.55 381.76 304.3 381.76 304.3 417.39 270.55 417.39 270.55 428.64 205.86 428.64 205.86 424.89 199.07 424.89 199.07 428.64 192.33 428.64 192.33 432.15 301.49 432.15 301.49 558.96 281.63 558.96 281.63 575.83 285.38 575.83"/></g><g id="LWPOLYLINE-184" data-name="LWPOLYLINE"><polygon class="cls-27" points="369.81 368.17 371.92 368.17 371.92 247.7 573.72 247.7 573.72 185.65 656.04 185.65 656.04 0.2 653.17 0.2 653.17 182.78 552.27 182.78 552.27 186.29 571.96 186.29 571.96 244.3 513.36 244.3 513.36 186.29 518.52 186.29 518.52 182.78 513.36 182.78 513.36 179.03 509.85 179.03 509.85 182.78 504.69 182.78 504.69 186.29 509.85 186.29 509.85 223.79 493.68 223.79 493.68 244.3 438.01 244.3 438.01 186.29 470.94 186.29 470.94 182.78 429.69 182.78 429.69 186.29 433.44 186.29 433.44 244.3 368.52 244.3 368.52 277 364.6 277 364.6 283.79 368.52 283.79 368.52 356.45 364.77 356.45 364.77 362.19 367.7 362.19 367.7 367.82 369.81 367.82 369.81 368.17"/></g><g id="LWPOLYLINE-185" data-name="LWPOLYLINE"><polygon class="cls-27" points="392.19 203.05 392.19 186.29 395.94 186.29 395.94 182.78 392.19 182.78 392.19 141.53 437.66 141.53 437.66 138.01 397.35 138.01 397.35 17.07 394.42 17.07 394.42 0.2 390.67 0.2 389.42 2.4 387.8 4.35 385.87 5.99 383.68 7.27 381.3 8.14 378.81 8.58 376.28 8.58 373.78 8.14 371.41 7.27 369.22 5.99 367.29 4.35 365.67 2.4 364.42 0.2 360.67 0.2 360.67 53.17 368.52 53.17 368.52 203.05 383.69 203.05 392.19 203.05"/></g><g id="LWPOLYLINE-186" data-name="LWPOLYLINE"><polygon class="cls-27" points="513.36 145.28 513.36 22.7 540.67 22.7 540.67 0.2 536.92 0.2 535.67 2.4 534.05 4.35 532.12 5.99 529.93 7.27 527.55 8.14 525.06 8.58 522.53 8.58 520.03 8.14 517.66 7.27 515.47 5.99 513.53 4.35 511.92 2.4 510.67 0.2 506.92 0.2 506.92 17.07 505.51 17.07 505.51 22.7 509.85 22.7 509.85 131.92 476.1 131.92 476.1 138.01 471.41 138.01 471.41 141.53 509.85 141.53 509.85 145.28 513.36 145.28"/></g><path class="cls-28" d="M39.57,71.45l-2.19-.22-2.11-.64-2-1-1.7-1.4-1.4-1.7-1-1.94-.64-2.12-.22-2.19L28.54,58l.64-2.12,1-1.94,1.4-1.7,1.7-1.4,2-1,2.11-.64L39.57,49l2.2.22,2.11.64,1.95,1,1.7,1.4,1.4,1.7,1,1.94L50.61,58l.21,2.19-.21,2.19L50,64.51l-1,1.94-1.4,1.7-1.7,1.4-1.95,1-2.11.64-2.2.22Z"/><polygon class="cls-27" points="312.56 277 173.17 277 173.17 300.9 21.76 300.9 21.76 253.56 21.76 219.81 21.76 169.89 45.2 169.89 45.2 159.57 21.76 159.57 21.76 155.82 2.08 155.82 2.08 216.06 0.2 216.06 0.2 219.81 2.13 219.81 2.13 253.56 0.2 253.56 0.2 257.31 2.08 257.31 2.08 280.97 0.2 280.97 0.2 284.72 3.95 284.72 3.95 334.99 0.2 334.99 0.2 338.74 2.08 338.74 2.08 367.7 0.2 367.7 0.2 371.45 3.95 371.45 3.95 410.82 0.2 410.82 0.2 414.57 2.08 414.57 2.08 435.2 0.2 435.2 0.2 438.95 3.95 438.95 3.95 478.32 0.2 478.32 0.2 482.07 2.08 482.07 2.08 497.72 2.08 505.51 0.2 505.51 0.2 509.26 2.08 509.26 2.08 542.9 0.2 542.9 0.2 546.76 2.08 546.76 2.08 557.39 2.08 573.96 25.51 573.96 25.51 575.83 27.48 575.83 29.26 575.83 29.26 542.9 17.07 542.9 17.07 509.26 17.07 497.72 17.07 428.84 102.27 428.84 102.27 422.98 102.27 421.57 98.75 421.57 98.75 422.98 98.75 425.32 27.5 425.32 27.5 361.57 40.63 361.57 40.63 329.7 98.75 329.7 98.75 386.42 98.75 387.82 102.27 387.82 102.27 386.42 102.27 384.07 148.32 384.07 148.32 389.73 148.32 391.14 151.84 391.14 151.84 389.73 151.84 345.43 151.84 344.03 148.32 344.03 148.32 345.43 148.32 347.78 114.58 347.78 114.58 304.42 148.32 304.42 148.32 308.87 148.32 310.28 151.84 310.28 151.84 308.87 151.84 306.53 207.74 306.53 209.15 306.53 209.15 303.01 207.74 303.01 200.36 303.01 200.36 280.51 251.68 280.51 251.68 303.01 244.3 303.01 242.9 303.01 242.9 306.53 244.3 306.53 262.58 306.53 263.99 306.53 263.99 303.01 262.58 303.01 255.2 303.01 255.2 280.51 306.53 280.51 306.53 303.01 299.14 303.01 297.74 303.01 297.74 306.53 299.14 306.53 306.53 306.53 306.53 308.87 306.53 310.28 310.04 310.28 310.04 308.87 310.04 283.79 312.56 283.79 313.97 283.79 313.97 277 312.56 277"/><path class="cls-29" d="M585.15,83.78H586l1.82,4.45h0l1.82-4.45h.88v5.6h-.66V84.84h0L588,89.38h-.28l-1.88-4.54h0v4.54h-.66Z"/><path class="cls-29" d="M595.5,88.25H593l-.39,1.13h-.68l2-5.6h.64l2,5.6h-.68Zm-.2-.57-1-3h0l-1,3Z"/><path class="cls-29" d="M597.46,87.52l.65-.11a1.47,1.47,0,0,0,1.66,1.47c.77,0,1.28-.36,1.28-.91s-.37-.88-1.54-1.24c-1.33-.44-1.78-.84-1.78-1.59s.73-1.48,1.79-1.48a2,2,0,0,1,2,1.63l-.65.14a1.34,1.34,0,0,0-1.39-1.14c-.68,0-1.13.33-1.13.85s.32.67,1.35,1c1.45.47,2,1,2,1.83s-.79,1.54-2,1.54A2.05,2.05,0,0,1,597.46,87.52Z"/><path class="cls-29" d="M604.5,84.41h-1.75v-.63h4.15v.63h-1.74v5h-.66Z"/><path class="cls-29" d="M608.37,83.78h3.36v.63H609V86.2h2.48v.59H609v2h2.7v.62h-3.36Z"/><path class="cls-29" d="M615.83,87.08l1.23,2.3h-.78l-1.18-2.27H614v2.27h-.66v-5.6h2c1.17,0,1.87.63,1.87,1.66a1.54,1.54,0,0,1-1.4,1.62Zm-.52-.59c.82,0,1.25-.36,1.25-1s-.42-1-1.25-1H614v2.08Z"/><path class="cls-29" d="M582.64,92.28h2.15a1.46,1.46,0,0,1,1.63,1.45,1.2,1.2,0,0,1-.65,1.15v0a1.34,1.34,0,0,1,.86,1.32c0,1.08-.68,1.66-2,1.66h-2Zm2,2.38c.73,0,1.09-.3,1.09-.9s-.37-.85-1.09-.85h-1.38v1.75Zm-.1,2.6c1,0,1.4-.32,1.4-1s-.4-1-1.38-1h-1.3v2Z"/><path class="cls-29" d="M588.26,92.28h3.36v.63h-2.7V94.7h2.48v.59h-2.48v2h2.7v.62h-3.36Z"/><path class="cls-29" d="M593.21,92.28H595c1.41,0,2.41,1,2.41,2.79,0,2-1,2.81-2.46,2.81h-1.7Zm1.66,5c1.14,0,1.84-.6,1.84-2.19,0-1.43-.7-2.16-1.79-2.16h-1v4.35Z"/><path class="cls-29" d="M601.51,95.58l1.23,2.3H602l-1.18-2.27h-1.12v2.27H599v-5.6h2c1.17,0,1.86.63,1.86,1.66a1.54,1.54,0,0,1-1.39,1.62ZM601,95c.83,0,1.26-.36,1.26-1s-.42-1-1.26-1h-1.32V95Z"/><path class="cls-29" d="M604.17,95.08c0-1.75.94-2.92,2.36-2.92s2.35,1.17,2.35,2.92S607.94,98,606.53,98,604.17,96.83,604.17,95.08Zm4.05,0c0-1.41-.65-2.29-1.69-2.29s-1.7.88-1.7,2.29.65,2.3,1.7,2.3S608.22,96.5,608.22,95.08Z"/><path class="cls-29" d="M610.23,95.08c0-1.75.94-2.92,2.36-2.92s2.35,1.17,2.35,2.92S614,98,612.59,98,610.23,96.83,610.23,95.08Zm4,0c0-1.41-.65-2.29-1.69-2.29s-1.7.88-1.7,2.29.65,2.3,1.7,2.3S614.28,96.5,614.28,95.08Z"/><path class="cls-29" d="M616.58,92.28h.87l1.82,4.45h0l1.81-4.45H622v5.6h-.66V93.34h0l-1.89,4.54h-.28l-1.88-4.54h0v4.54h-.65Z"/><path class="cls-29" d="M577,101.53l-1.25.81v-.69l1.33-.87h.58v5.6H577Z"/><path class="cls-29" d="M580.15,105.76h3v.62h-3.72v-.53a2,2,0,0,1,.23-1.06c.2-.37.54-.64,1.42-1.1,1.16-.6,1.5-.93,1.5-1.49s-.49-.91-1.17-.91a1.3,1.3,0,0,0-1.4,1.36l-.66-.06a1.93,1.93,0,0,1,2.06-1.93,1.68,1.68,0,0,1,1.83,1.54c0,.82-.41,1.31-1.64,1.93-.94.47-1.19.66-1.34.94A1.58,1.58,0,0,0,580.15,105.76Z"/><path class="cls-29" d="M585,100.78h.58v1.79H585Z"/><path class="cls-29" d="M586.71,103.19h2.09v.6h-2.09Z"/><path class="cls-29" d="M590.07,104.9l.65-.16a1.41,1.41,0,1,0,1.43-1.58,1.79,1.79,0,0,0-1.35.59l-.59-.14.54-2.83h2.93v.63h-2.43L591,103h0a2.11,2.11,0,0,1,1.29-.39,1.88,1.88,0,0,1,1.94,1.93,1.92,1.92,0,0,1-2,2A2,2,0,0,1,590.07,104.9Z"/><path class="cls-29" d="M595.45,100.78H596v1.79h-.58Zm1,0h.59v1.79h-.59Z"/><path class="cls-29" d="M600.78,104.94l1.32-1.29-1.32-1.3.4-.39,1.28,1.31,1.3-1.31.39.39-1.31,1.3,1.31,1.29-.39.39-1.3-1.31-1.28,1.31Z"/><path class="cls-29" d="M608.33,101.53l-1.25.81v-.69l1.33-.87H609v5.6h-.66Z"/><path class="cls-29" d="M613.21,105.24h-2.8v-.58l2.46-3.88h1v3.87h.72v.59h-.72v1.14h-.66Zm0-.59V101.3h0l-2.12,3.35Z"/><path class="cls-29" d="M615.94,100.78h.58v1.79h-.58Z"/><path class="cls-29" d="M617.94,103.19H620v.6h-2.09Z"/><path class="cls-29" d="M621.18,104.82a1.56,1.56,0,0,1,1.05-1.5v0a1.24,1.24,0,0,1-.74-1.17,1.79,1.79,0,0,1,3.52,0,1.25,1.25,0,0,1-.74,1.17v0a1.56,1.56,0,0,1,1,1.5c0,1-.81,1.68-2.06,1.68S621.18,105.83,621.18,104.82Zm3.45,0c0-.67-.53-1.1-1.38-1.1s-1.39.43-1.39,1.1.54,1.08,1.39,1.08S624.63,105.44,624.63,104.78Zm-.27-2.61c0-.54-.45-.91-1.11-.91s-1.1.37-1.1.91.44.88,1.1.88S624.36,102.71,624.36,102.17Z"/><path class="cls-29" d="M626.75,100.78h.58v1.79h-.58Zm1,0h.59v1.79h-.59Z"/><path class="cls-29" d="M60.29,436.87h2.15a1.46,1.46,0,0,1,1.63,1.45,1.19,1.19,0,0,1-.65,1.15v0a1.33,1.33,0,0,1,.86,1.32c0,1.08-.68,1.66-2,1.66h-2Zm2,2.38c.73,0,1.09-.3,1.09-.9s-.37-.85-1.09-.85H61v1.75Zm-.09,2.6c1,0,1.39-.32,1.39-1s-.39-1-1.38-1H61v2Z"/><path class="cls-29" d="M65.92,436.87h3.35v.63h-2.7v1.79h2.48v.59H66.57v2h2.7v.62H65.92Z"/><path class="cls-29" d="M70.87,436.87h1.74c1.42,0,2.41,1,2.41,2.79,0,2-1,2.81-2.46,2.81H70.87Zm1.65,5c1.14,0,1.84-.6,1.84-2.19,0-1.43-.7-2.16-1.79-2.16h-1v4.35Z"/><path class="cls-29" d="M79.16,440.17l1.23,2.3h-.78l-1.18-2.27H77.31v2.27h-.65v-5.6h2c1.17,0,1.87.63,1.87,1.66a1.54,1.54,0,0,1-1.4,1.62Zm-.52-.6c.82,0,1.25-.35,1.25-1s-.42-1-1.25-1H77.31v2.07Z"/><path class="cls-29" d="M81.82,439.67c0-1.75.94-2.92,2.36-2.92s2.36,1.17,2.36,2.92-.94,2.92-2.36,2.92S81.82,441.42,81.82,439.67Zm4.05,0c0-1.41-.64-2.29-1.69-2.29s-1.7.88-1.7,2.29.65,2.3,1.7,2.3S85.87,441.09,85.87,439.67Z"/><path class="cls-29" d="M87.88,439.67c0-1.75.94-2.92,2.36-2.92s2.36,1.17,2.36,2.92-.94,2.92-2.36,2.92S87.88,441.42,87.88,439.67Zm4.06,0c0-1.41-.65-2.29-1.7-2.29s-1.7.88-1.7,2.29.65,2.3,1.7,2.3S91.94,441.09,91.94,439.67Z"/><path class="cls-29" d="M94.23,436.87h.88l1.81,4.45h0l1.82-4.45h.87v5.6H99v-4.54h0l-1.88,4.54h-.28l-1.89-4.54h0v4.54h-.65Z"/><path class="cls-29" d="M104.67,441.85h3v.62H104v-.53a2,2,0,0,1,.24-1.06c.2-.37.54-.64,1.42-1.1,1.16-.6,1.49-.93,1.49-1.49s-.48-.91-1.16-.91a1.3,1.3,0,0,0-1.4,1.36l-.67-.06a1.94,1.94,0,0,1,2.07-1.93,1.68,1.68,0,0,1,1.83,1.54c0,.82-.42,1.31-1.65,1.93-.93.47-1.19.66-1.33.94A1.58,1.58,0,0,0,104.67,441.85Z"/><path class="cls-29" d="M59,446.12l-1.25.81v-.69l1.32-.87h.59V451H59Z"/><path class="cls-29" d="M62.47,446.12l-1.24.81v-.69l1.32-.87h.59V451h-.67Z"/><path class="cls-29" d="M65.1,445.37h.58v1.79H65.1Z"/><path class="cls-29" d="M66.82,447.78H68.9v.6H66.82Z"/><path class="cls-29" d="M70.06,449.41a1.56,1.56,0,0,1,1-1.5v0a1.24,1.24,0,0,1-.74-1.17,1.79,1.79,0,0,1,3.52,0,1.25,1.25,0,0,1-.74,1.17v0a1.56,1.56,0,0,1,1,1.5c0,1-.81,1.68-2.06,1.68S70.06,450.42,70.06,449.41Zm3.45,0c0-.67-.53-1.1-1.38-1.1s-1.39.43-1.39,1.1.53,1.08,1.39,1.08S73.51,450,73.51,449.37Zm-.28-2.61c0-.54-.44-.91-1.1-.91s-1.1.37-1.1.91.44.88,1.1.88S73.23,447.3,73.23,446.76Z"/><path class="cls-29" d="M75.62,445.37h.59v1.79h-.59Zm1.06,0h.58v1.79h-.58Z"/><path class="cls-29" d="M81,449.53l1.31-1.3L81,446.94l.39-.39,1.29,1.31,1.3-1.31.39.39L83,448.23l1.31,1.3-.39.39-1.3-1.31-1.29,1.31Z"/><path class="cls-29" d="M88.51,446.12l-1.25.81v-.69l1.32-.87h.59V451h-.66Z"/><path class="cls-29" d="M91.63,450.35h3V451H90.93v-.53a2,2,0,0,1,.23-1.06c.2-.37.54-.64,1.42-1.1,1.16-.6,1.5-.93,1.5-1.49s-.49-.91-1.17-.91a1.3,1.3,0,0,0-1.4,1.36l-.66-.06a1.93,1.93,0,0,1,2.06-1.93,1.68,1.68,0,0,1,1.83,1.54c0,.82-.42,1.31-1.65,1.93-.93.47-1.19.66-1.33.94A1.58,1.58,0,0,0,91.63,450.35Z"/><path class="cls-29" d="M96.47,445.37h.58v1.79h-.58Z"/><path class="cls-29" d="M98.46,447.78h2.09v.6H98.46Z"/><path class="cls-29" d="M102,448.17c0-1.81.9-2.92,2.21-2.92s2.22,1.11,2.22,2.92-.91,2.92-2.22,2.92S102,450,102,448.17Zm3.76,0c0-1.46-.61-2.29-1.55-2.29s-1.55.83-1.55,2.29.62,2.3,1.55,2.3S105.76,449.63,105.76,448.17Z"/><path class="cls-29" d="M108,445.37h.58v1.79H108Zm1.06,0h.58v1.79H109Z"/><path class="cls-29" d="M221.32,488.37h2.15a1.46,1.46,0,0,1,1.63,1.45,1.19,1.19,0,0,1-.66,1.15v0a1.34,1.34,0,0,1,.87,1.32c0,1.08-.68,1.66-2,1.66h-2Zm2,2.38c.73,0,1.09-.3,1.09-.9s-.37-.85-1.09-.85H222v1.75Zm-.1,2.6c1,0,1.39-.32,1.39-1s-.39-1-1.37-1H222v2Z"/><path class="cls-29" d="M226.94,488.37h3.36V489h-2.7v1.79h2.48v.59H227.6v2h2.7V494h-3.36Z"/><path class="cls-29" d="M231.89,488.37h1.75c1.41,0,2.41,1,2.41,2.79,0,2-1,2.81-2.46,2.81h-1.7Zm1.66,5c1.13,0,1.84-.6,1.84-2.19,0-1.43-.71-2.16-1.79-2.16h-1v4.35Z"/><path class="cls-29" d="M240.18,491.67l1.23,2.3h-.77l-1.19-2.27h-1.11V494h-.66v-5.6h2c1.17,0,1.86.63,1.86,1.66a1.54,1.54,0,0,1-1.4,1.62Zm-.52-.6c.83,0,1.26-.35,1.26-1s-.43-1-1.26-1h-1.32v2.07Z"/><path class="cls-29" d="M242.85,491.17c0-1.75.94-2.92,2.35-2.92s2.36,1.17,2.36,2.92-.94,2.92-2.36,2.92S242.85,492.92,242.85,491.17Zm4.05,0c0-1.41-.65-2.29-1.7-2.29s-1.69.88-1.69,2.29.65,2.3,1.69,2.3S246.9,492.59,246.9,491.17Z"/><path class="cls-29" d="M248.91,491.17c0-1.75.94-2.92,2.35-2.92s2.36,1.17,2.36,2.92-.94,2.92-2.36,2.92S248.91,492.92,248.91,491.17Zm4.05,0c0-1.41-.65-2.29-1.7-2.29s-1.69.88-1.69,2.29.65,2.3,1.69,2.3S253,492.59,253,491.17Z"/><path class="cls-29" d="M255.25,488.37h.88l1.82,4.45h0l1.82-4.45h.88V494H260v-4.54h0L258.09,494h-.28l-1.88-4.54h0V494h-.66Z"/><path class="cls-29" d="M264.83,492.11l.65-.11c.12,1,.59,1.47,1.41,1.47a1.07,1.07,0,0,0,1.2-1.08c0-.76-.43-1.12-1.32-1.12h-.4v-.58h.4c.67,0,1.18-.4,1.18-.9s-.4-.93-1.07-.93a1.19,1.19,0,0,0-1.26,1.06l-.65-.1a1.8,1.8,0,0,1,1.91-1.57,1.54,1.54,0,0,1,1.73,1.49,1.36,1.36,0,0,1-.76,1.18h0a1.5,1.5,0,0,1,.9,1.46,1.69,1.69,0,0,1-1.86,1.7A2,2,0,0,1,264.83,492.11Z"/><path class="cls-29" d="M219.29,497.62l-1.25.81v-.69l1.33-.87H220v5.6h-.66Z"/><path class="cls-29" d="M221.61,499.67c0-1.81.91-2.92,2.22-2.92s2.21,1.11,2.21,2.92-.9,2.92-2.21,2.92S221.61,501.49,221.61,499.67Zm3.77,0c0-1.46-.62-2.29-1.55-2.29s-1.55.83-1.55,2.29.61,2.3,1.55,2.3S225.38,501.13,225.38,499.67Z"/><path class="cls-29" d="M227.58,496.87h.58v1.79h-.58Z"/><path class="cls-29" d="M229.3,499.28h2.09v.6H229.3Z"/><path class="cls-29" d="M233.65,497.62l-1.25.81v-.69l1.33-.87h.58v5.6h-.66Z"/><path class="cls-29" d="M237.09,497.62l-1.25.81v-.69l1.33-.87h.58v5.6h-.66Z"/><path class="cls-29" d="M239.71,496.87h.59v1.79h-.59Zm1.06,0h.58v1.79h-.58Z"/><path class="cls-29" d="M245.05,501l1.31-1.3-1.31-1.29.39-.39,1.29,1.31,1.29-1.31.4.39-1.32,1.29,1.32,1.3-.4.39-1.29-1.31-1.29,1.31Z"/><path class="cls-29" d="M252.59,497.62l-1.24.81v-.69l1.32-.87h.59v5.6h-.67Z"/><path class="cls-29" d="M256,497.62l-1.25.81v-.69l1.33-.87h.58v5.6H256Z"/><path class="cls-29" d="M258.65,496.87h.59v1.79h-.59Z"/><path class="cls-29" d="M260.65,499.28h2.09v.6h-2.09Z"/><path class="cls-29" d="M268.11,499.34c0,2.27-.61,3.25-2,3.25a1.79,1.79,0,0,1-1.8-1.42l.61-.16a1.18,1.18,0,0,0,1.19,1c.89,0,1.31-.57,1.36-2h0a1.69,1.69,0,0,1-1.43.63,1.8,1.8,0,0,1-2-1.92,1.88,1.88,0,0,1,2-1.9C267.28,496.75,268.11,497.62,268.11,499.34Zm-.77-.65A1.33,1.33,0,1,0,266,500,1.25,1.25,0,0,0,267.34,498.69Z"/><path class="cls-29" d="M269.7,496.87h.58v1.79h-.58Zm1.05,0h.59v1.79h-.59Z"/><path class="cls-29" d="M248,150.47h.65v5h2.53v.63H248Z"/><path class="cls-29" d="M252.65,150.47h.65v5.6h-.65Z"/><path class="cls-29" d="M254.64,150.47h.7l1.66,4.72h0l1.68-4.72h.68l-2,5.6h-.71Z"/><path class="cls-29" d="M260.72,150.47h.66v5.6h-.66Z"/><path class="cls-29" d="M263.29,150.47h.77l2.55,4.57h0v-4.57h.67v5.6h-.79L264,151.5h0v4.57h-.65Z"/><path class="cls-29" d="M268.92,153.27c0-1.78.92-2.92,2.35-2.92a2.08,2.08,0,0,1,2.13,1.85l-.65.12a1.44,1.44,0,0,0-1.48-1.35c-1,0-1.69.88-1.69,2.3s.65,2.29,1.69,2.29a1.43,1.43,0,0,0,1.5-1.64h-1.42v-.62h2.07v.57a2.09,2.09,0,0,1-2.15,2.32C269.84,156.19,268.92,155,268.92,153.27Z"/><path class="cls-29" d="M277,156.19l2.85-6,.45.2-2.86,6Z"/><path class="cls-29" d="M284.27,150.47H286c1.42,0,2.42,1,2.42,2.79,0,2-1,2.81-2.47,2.81h-1.69Zm1.65,5c1.14,0,1.84-.6,1.84-2.18,0-1.43-.7-2.17-1.79-2.17h-1.05v4.35Z"/><path class="cls-29" d="M290.07,150.47h.65v5.6h-.65Z"/><path class="cls-29" d="M292.63,150.47h.78L296,155h0v-4.57h.66v5.6h-.78l-2.55-4.57h0v4.57h-.66Z"/><path class="cls-29" d="M298.55,150.47h.66v5.6h-.66Z"/><path class="cls-29" d="M301.12,150.47h.78l2.54,4.57h0v-4.57h.66v5.6h-.78l-2.55-4.57h0v4.57h-.66Z"/><path class="cls-29" d="M306.75,153.27c0-1.78.93-2.92,2.36-2.92a2.08,2.08,0,0,1,2.13,1.85l-.66.12a1.44,1.44,0,0,0-1.47-1.35c-1.05,0-1.7.88-1.7,2.3s.65,2.29,1.7,2.29a1.42,1.42,0,0,0,1.49-1.64h-1.42v-.62h2.07v.57a2.09,2.09,0,0,1-2.14,2.32C307.68,156.19,306.75,155,306.75,153.27Z"/><path class="cls-29" d="M317.93,153.76l1.23,2.31h-.78l-1.18-2.27h-1.12v2.27h-.66v-5.6h2c1.17,0,1.86.62,1.86,1.65a1.55,1.55,0,0,1-1.39,1.63Zm-.53-.59c.83,0,1.26-.36,1.26-1s-.42-1-1.26-1h-1.32v2.08Z"/><path class="cls-29" d="M320.59,153.27c0-1.75.94-2.92,2.35-2.92s2.36,1.17,2.36,2.92-.94,2.92-2.36,2.92S320.59,155,320.59,153.27Zm4.05,0c0-1.42-.65-2.3-1.7-2.3s-1.69.88-1.69,2.3.65,2.29,1.69,2.29S324.64,154.68,324.64,153.27Z"/><path class="cls-29" d="M326.65,153.27c0-1.75.94-2.92,2.36-2.92s2.35,1.17,2.35,2.92-.94,2.92-2.35,2.92S326.65,155,326.65,153.27Zm4.05,0c0-1.42-.65-2.3-1.69-2.3s-1.7.88-1.7,2.3.65,2.29,1.7,2.29S330.7,154.68,330.7,153.27Z"/><path class="cls-29" d="M333,150.47h.87l1.82,4.45h0l1.81-4.45h.88v5.6h-.66v-4.54h0l-1.89,4.54h-.28l-1.88-4.54h0v4.54H333Z"/><path class="cls-29" d="M268.82,159.72l-1.24.81v-.7l1.32-.86h.59v5.6h-.67Z"/><path class="cls-29" d="M271.08,163.09l.65-.16a1.42,1.42,0,1,0,1.43-1.59,1.82,1.82,0,0,0-1.35.6l-.58-.15.53-2.82h2.94v.62h-2.43l-.31,1.55h0a2.08,2.08,0,0,1,1.29-.38,1.87,1.87,0,0,1,1.94,1.93,1.93,1.93,0,0,1-2,2A2,2,0,0,1,271.08,163.09Z"/><path class="cls-29" d="M276.46,159h.59v1.78h-.59Z"/><path class="cls-29" d="M278.18,161.38h2.09v.6h-2.09Z"/><path class="cls-29" d="M284.11,163.42h-2.8v-.57l2.47-3.88h1v3.87h.71v.58h-.71v1.15h-.67Zm0-.58v-3.35h0L282,162.84Z"/><path class="cls-29" d="M286.85,159h.58v1.78h-.58Zm1,0h.59v1.78h-.59Z"/><path class="cls-29" d="M292.18,163.13l1.31-1.3-1.31-1.29.39-.39,1.29,1.31,1.3-1.31.39.39-1.31,1.29,1.31,1.3-.39.39-1.3-1.31-1.29,1.31Z"/><path class="cls-29" d="M299.43,163.94h3v.63h-3.71V164A2,2,0,0,1,299,163c.2-.37.54-.64,1.42-1.1,1.16-.6,1.5-.94,1.5-1.49s-.49-.92-1.17-.92a1.3,1.3,0,0,0-1.4,1.36l-.66-.05a1.92,1.92,0,0,1,2.06-1.93,1.68,1.68,0,0,1,1.83,1.54c0,.82-.42,1.31-1.65,1.93-.93.47-1.19.66-1.33.94A1.56,1.56,0,0,0,299.43,163.94Z"/><path class="cls-29" d="M305.13,159.72l-1.25.81v-.7l1.33-.86h.58v5.6h-.66Z"/><path class="cls-29" d="M307.75,159h.59v1.78h-.59Z"/><path class="cls-29" d="M309.75,161.38h2.09v.6h-2.09Z"/><path class="cls-29" d="M314.1,159.72l-1.25.81v-.7l1.33-.86h.58v5.6h-.66Z"/><path class="cls-29" d="M316.73,159h.58v1.78h-.58Zm1,0h.58v1.78h-.58Z"/><path class="cls-29" d="M328.23,301.8h3.37v.62h-2.72v2h2.49V305h-2.49v2.39h-.65Z"/><path class="cls-29" d="M333.15,304.6c0-1.75.94-2.92,2.36-2.92s2.36,1.17,2.36,2.92-.95,2.92-2.36,2.92S333.15,306.35,333.15,304.6Zm4.05,0c0-1.42-.64-2.3-1.69-2.3s-1.7.88-1.7,2.3.65,2.29,1.7,2.29S337.2,306,337.2,304.6Z"/><path class="cls-29" d="M340.86,305.06l-2-3.26h.77l1.51,2.61h0l1.52-2.61h.77l-2,3.26v2.34h-.66Z"/><path class="cls-29" d="M345.13,301.8h3.35v.62h-2.7v1.79h2.48v.6h-2.48v2h2.7v.63h-3.35Z"/><path class="cls-29" d="M352.9,305.09l1.23,2.31h-.77l-1.19-2.28h-1.12v2.28h-.65v-5.6h2c1.16,0,1.86.62,1.86,1.65a1.55,1.55,0,0,1-1.4,1.63Zm-.52-.59c.82,0,1.26-.36,1.26-1.05s-.43-1-1.26-1h-1.33v2.08Z"/><path class="cls-29" d="M123.9,324.36h.68l.82,4.55h0l1.38-4.55h.63l1.39,4.55h0l.82-4.55h.68l-1,5.6h-.8l-1.38-4.49h0L125.74,330h-.81Z"/><path class="cls-29" d="M130.64,330.08l2.85-6,.45.2-2.86,6Z"/><path class="cls-29" d="M135,324.36h1.74c1.42,0,2.42,1,2.42,2.79,0,2-1,2.81-2.46,2.81H135Zm1.66,5c1.13,0,1.83-.6,1.83-2.19,0-1.43-.7-2.16-1.79-2.16h-1v4.35Z"/><path class="cls-29" d="M121.94,99.73H120.2v-.62h4.15v.62h-1.74v5h-.67Z"/><path class="cls-29" d="M125.82,99.11h3.36v.62h-2.7v1.79H129v.6h-2.47v2h2.7v.63h-3.36Z"/><path class="cls-29" d="M133.27,102.4l1.23,2.31h-.77l-1.18-2.27h-1.12v2.27h-.66v-5.6h2c1.17,0,1.86.62,1.86,1.66a1.55,1.55,0,0,1-1.4,1.62Zm-.52-.59c.83,0,1.26-.36,1.26-1s-.42-1-1.26-1h-1.32v2.08Z"/><path class="cls-29" d="M138.72,102.4l1.23,2.31h-.77L138,102.44h-1.12v2.27h-.65v-5.6h2c1.16,0,1.86.62,1.86,1.66a1.55,1.55,0,0,1-1.4,1.62Zm-.52-.59c.82,0,1.25-.36,1.25-1s-.42-1-1.25-1h-1.33v2.08Z"/><path class="cls-29" d="M144.76,103.58h-2.52l-.39,1.13h-.68l2-5.6h.64l2,5.6h-.68Zm-.2-.58-1.05-3h0l-1,3Z"/><path class="cls-29" d="M146.68,101.91c0-1.75.95-2.92,2.36-2.92a2.11,2.11,0,0,1,2.15,2l-.66.11c-.16-.93-.67-1.44-1.49-1.44-1,0-1.69.88-1.69,2.3s.64,2.29,1.69,2.29c.87,0,1.38-.54,1.48-1.56l.68.08a2.08,2.08,0,0,1-2.16,2.11C147.61,104.83,146.68,103.68,146.68,101.91Z"/><path class="cls-29" d="M152.77,99.11h3.36v.62h-2.7v1.79h2.48v.6h-2.48v2h2.7v.63h-3.36Z"/><path class="cls-29" d="M112.68,108.36l-1.24.81v-.7l1.32-.86h.59v5.6h-.67Z"/><path class="cls-29" d="M117.57,112.06h-2.8v-.57l2.46-3.88h1v3.87h.71v.58h-.71v1.15h-.66Zm0-.58v-3.35h0l-2.13,3.35Z"/><path class="cls-29" d="M120.3,107.61h.58v1.78h-.58Z"/><path class="cls-29" d="M122,110h2.08v.6H122Z"/><path class="cls-29" d="M126.37,108.36l-1.25.81v-.7l1.32-.86H127v5.6h-.66Z"/><path class="cls-29" d="M128.69,110.41c0-1.82.9-2.92,2.21-2.92s2.22,1.1,2.22,2.92-.91,2.92-2.22,2.92S128.69,112.22,128.69,110.41Zm3.76,0c0-1.46-.61-2.3-1.55-2.3s-1.55.84-1.55,2.3.62,2.29,1.55,2.29S132.45,111.87,132.45,110.41Z"/><path class="cls-29" d="M134.64,107.61h.58v1.78h-.58Zm1.06,0h.58v1.78h-.58Z"/><path class="cls-29" d="M140,111.77l1.31-1.3L140,109.18l.39-.39,1.29,1.31,1.29-1.31.39.39L142,110.47l1.31,1.3-.39.39-1.29-1.31-1.29,1.31Z"/><path class="cls-29" d="M150.35,110.07c0,2.27-.61,3.26-2,3.26a1.78,1.78,0,0,1-1.8-1.43l.61-.16a1.18,1.18,0,0,0,1.19,1c.89,0,1.3-.57,1.36-2h0a1.71,1.71,0,0,1-1.44.63,1.79,1.79,0,0,1-1.95-1.91,1.88,1.88,0,0,1,2-1.9C149.52,107.49,150.35,108.35,150.35,110.07Zm-.77-.64a1.25,1.25,0,0,0-1.32-1.33,1.31,1.31,0,1,0,1.32,1.33Z"/><path class="cls-29" d="M151.93,107.61h.58v1.78h-.58Z"/><path class="cls-29" d="M153.93,110H156v.6h-2.08Z"/><path class="cls-29" d="M161.39,110.07c0,2.27-.61,3.26-2,3.26a1.77,1.77,0,0,1-1.8-1.43l.61-.16a1.17,1.17,0,0,0,1.19,1c.89,0,1.3-.57,1.36-2h0a1.71,1.71,0,0,1-1.44.63,1.79,1.79,0,0,1-1.95-1.91,1.88,1.88,0,0,1,2-1.9C160.56,107.49,161.39,108.35,161.39,110.07Zm-.77-.64a1.25,1.25,0,0,0-1.33-1.33,1.31,1.31,0,1,0,0,2.62A1.24,1.24,0,0,0,160.62,109.43Z"/><path class="cls-29" d="M163,107.61h.58v1.78H163Zm1.06,0h.58v1.78H164Z"/><path class="cls-29" d="M92,228.45l.66-.12a1.46,1.46,0,0,0,1.65,1.47c.78,0,1.29-.36,1.29-.91s-.38-.88-1.54-1.24c-1.34-.44-1.79-.83-1.79-1.59s.74-1.48,1.8-1.48a2,2,0,0,1,2,1.64l-.65.13a1.34,1.34,0,0,0-1.39-1.14c-.68,0-1.13.33-1.13.85s.32.67,1.34,1c1.46.47,2,1,2,1.84s-.8,1.53-2,1.53A2.05,2.05,0,0,1,92,228.45Z"/><path class="cls-29" d="M97.21,227.5c0-1.75.94-2.92,2.36-2.92s2.36,1.17,2.36,2.92-1,2.92-2.36,2.92S97.21,229.25,97.21,227.5Zm4.05,0c0-1.41-.64-2.29-1.69-2.29s-1.7.88-1.7,2.29.65,2.3,1.7,2.3S101.26,228.92,101.26,227.5Z"/><path class="cls-29" d="M124.07,225.39h.68l.82,4.55h0l1.38-4.55h.63l1.39,4.55h0l.82-4.55h.68l-1,5.59h-.8l-1.38-4.49h0L125.91,231h-.81Z"/><path class="cls-29" d="M131.28,228.18c0-1.75.94-2.91,2.36-2.91a2.09,2.09,0,0,1,2.14,1.95l-.65.11c-.16-.94-.68-1.44-1.49-1.44-1,0-1.7.88-1.7,2.29s.64,2.3,1.7,2.3c.86,0,1.37-.54,1.48-1.57l.68.09a2.08,2.08,0,0,1-2.16,2.1C132.21,231.1,131.28,230,131.28,228.18Z"/><path class="cls-29" d="M29.8,207.67h1.74c1.42,0,2.42,1,2.42,2.79,0,2-1,2.81-2.47,2.81H29.8Zm1.65,5c1.14,0,1.84-.6,1.84-2.19,0-1.43-.7-2.16-1.79-2.16H30.45v4.35Z"/><path class="cls-29" d="M34.72,207.67h.68l.83,4.55h0l1.39-4.55h.62l1.39,4.55h0l.82-4.55h.68l-1,5.6h-.8l-1.38-4.49h0l-1.37,4.49h-.81Z"/><path class="cls-29" d="M155.94,289.32l1.23,2.3h-.78l-1.18-2.27h-1.12v2.27h-.66V286h2c1.17,0,1.86.62,1.86,1.65a1.55,1.55,0,0,1-1.39,1.63Zm-.52-.59c.82,0,1.25-.36,1.25-1.05s-.42-1-1.25-1h-1.33v2.08Z"/><polygon class="cls-29" points="340.3 378.4 345.7 364 351.1 378.4 340.3 378.4"/></g></g></svg>