<svg xmlns="http://www.w3.org/2000/svg" viewBox="0 0 508.47 370.48"><defs><style>.cls-1,.cls-11,.cls-13,.cls-14,.cls-15,.cls-16,.cls-17,.cls-4,.cls-7,.cls-8,.cls-9{fill:none;}.cls-1,.cls-10,.cls-11,.cls-12,.cls-13,.cls-14,.cls-15,.cls-16,.cls-17,.cls-18,.cls-2,.cls-3,.cls-4,.cls-6,.cls-7,.cls-8,.cls-9{stroke:#231f20;}.cls-1,.cls-10,.cls-11,.cls-12,.cls-13,.cls-14,.cls-15,.cls-16,.cls-17,.cls-2,.cls-3,.cls-4,.cls-7,.cls-8{stroke-linecap:round;stroke-linejoin:round;}.cls-1,.cls-12,.cls-13,.cls-14,.cls-15,.cls-16,.cls-17,.cls-8,.cls-9{stroke-width:0.25px;}.cls-1{stroke-dasharray:1.32 1.32;}.cls-10,.cls-12,.cls-2,.cls-3,.cls-5,.cls-6{fill:#b4c0be;}.cls-2{stroke-width:0.15px;}.cls-3,.cls-4,.cls-6{stroke-width:0.15px;}.cls-18,.cls-6,.cls-9{stroke-miterlimit:10;}.cls-18,.cls-7{stroke-width:0.4px;}.cls-10,.cls-11{stroke-width:0.2px;}.cls-13{stroke-dasharray:2 2;}.cls-14{stroke-dasharray:1.31 1.31;}.cls-15{stroke-dasharray:1.37 1.37;}.cls-16{stroke-dasharray:1.36 1.36;}.cls-17{stroke-dasharray:1.32 1.32;}.cls-18{fill:#e1e5e5;}.cls-19{fill:#231f20;}</style></defs><title>Asset 4</title><g id="Layer_2" data-name="Layer 2"><g id="Unit25-33B_Hover"><g id="LWPOLYLINE"><path class="cls-1" d="M182.78,17.08,151.06,28.62a33.92,33.92,0,0,1-2-11.54,33.69,33.69,0,0,1-2,11.54L115.28,17.08"/></g><g id="LWPOLYLINE-2" data-name="LWPOLYLINE"><rect class="cls-2" x="69.55" y="59.37" width="98.67" height="101.18"/></g><g id="LWPOLYLINE-3" data-name="LWPOLYLINE"><rect class="cls-2" x="220.82" y="26.23" width="103.87" height="94.1"/></g><g id="LWPOLYLINE-4" data-name="LWPOLYLINE"><polygon class="cls-3" points="185.55 55.01 184.24 53.1 183.93 53.31 183.37 53.45 182.84 53.2 181.6 51.7 180.58 50.5 179.74 49.42 178.67 47.96 177.73 46.6 177.34 46.05 177.06 45.6 176.69 45.02 176.28 44.37 175.35 42.82 174.52 41.35 173.89 40.17 173.84 39.59 174.17 39.12 174.48 38.91 172.81 36.47 191.52 23.61 204.27 42.15 185.55 55.01"/></g><g id="LINE"><line class="cls-4" x1="193.19" y1="26.04" x2="174.49" y2="38.91"/></g><g id="LINE-2" data-name="LINE"><line class="cls-4" x1="184.24" y1="53.1" x2="202.95" y2="40.23"/></g><g id="ARC"><path class="cls-4" d="M189,28.91a40.2,40.2,0,0,0,9.76,14.19"/></g><g id="ARC-2" data-name="ARC"><path class="cls-4" d="M191.8,27a101.53,101.53,0,0,0,9.76,14.2"/></g><g id="LWPOLYLINE-5" data-name="LWPOLYLINE"><rect class="cls-3" x="190.51" y="81.98" width="15" height="56.25"/></g><g id="LWPOLYLINE-6" data-name="LWPOLYLINE"><rect class="cls-3" x="380.14" y="60.62" width="15" height="46.87"/></g><g id="LWPOLYLINE-7" data-name="LWPOLYLINE"><path class="cls-3" d="M317,262.33a12.7,12.7,0,0,1,1.16,1.16,12,12,0,0,1-1.16,16.9l-.93-1.07h-10.9V263.39h10.9Z"/></g><g id="LWPOLYLINE-8" data-name="LWPOLYLINE"><path class="cls-3" d="M317,239.83a12.7,12.7,0,0,1,1.16,1.16,12,12,0,0,1-1.16,16.9l-.93-1.07h-10.9V240.89h10.9Z"/></g><g id="LWPOLYLINE-9" data-name="LWPOLYLINE"><path class="cls-3" d="M317,235.39a12,12,0,0,0,1.16-16.9,12.7,12.7,0,0,0-1.16-1.16l-.93,1.06h-10.9v15.93h10.9Z"/></g><g id="LWPOLYLINE-10" data-name="LWPOLYLINE"><rect class="cls-3" x="341.95" y="66.48" width="15" height="56.25"/></g><rect class="cls-5" x="432.39" y="165.43" width="24.28" height="22.03"/><g id="LWPOLYLINE-11" data-name="LWPOLYLINE"><line class="cls-4" x1="317.74" y1="265.24" x2="305.16" y2="265.24"/></g><g id="LWPOLYLINE-12" data-name="LWPOLYLINE"><line class="cls-4" x1="317.74" y1="277.47" x2="305.16" y2="277.47"/></g><g id="LWPOLYLINE-13" data-name="LWPOLYLINE"><path class="cls-4" d="M316.06,279.32a10.56,10.56,0,0,0,1-14.9,10,10,0,0,0-1-1"/></g><g id="LWPOLYLINE-14" data-name="LWPOLYLINE"><line class="cls-4" x1="317.74" y1="242.74" x2="305.16" y2="242.74"/></g><g id="LWPOLYLINE-15" data-name="LWPOLYLINE"><line class="cls-4" x1="317.74" y1="254.97" x2="305.16" y2="254.97"/></g><g id="LWPOLYLINE-16" data-name="LWPOLYLINE"><line class="cls-4" x1="317.74" y1="232.47" x2="305.16" y2="232.47"/></g><g id="LWPOLYLINE-17" data-name="LWPOLYLINE"><line class="cls-4" x1="317.74" y1="220.24" x2="305.16" y2="220.24"/></g><g id="LWPOLYLINE-18" data-name="LWPOLYLINE"><path class="cls-4" d="M316.06,218.39a10,10,0,0,1,1,1,10.56,10.56,0,0,1-1,14.9"/></g><g id="LWPOLYLINE-19" data-name="LWPOLYLINE"><line class="cls-4" x1="317.74" y1="277.47" x2="305.16" y2="277.47"/></g><g id="LWPOLYLINE-20" data-name="LWPOLYLINE"><path class="cls-4" d="M316.06,241a11,11,0,0,1,1,1,10.42,10.42,0,0,1-1,14.78"/></g><rect class="cls-3" x="210.67" y="29.68" width="33.75" height="84.38"/><g id="LINE-3" data-name="LINE"><line class="cls-4" x1="215.36" y1="84.37" x2="243.44" y2="84.37"/></g><g id="LWPOLYLINE-21" data-name="LWPOLYLINE"><polyline class="cls-4" points="244.42 34.37 215.35 34.37 215.35 109.37 244.42 109.37"/></g><g id="ARC-3" data-name="ARC"><path class="cls-4" d="M219.85,108.43a59.62,59.62,0,0,0,0-23.13"/></g><g id="ARC-4" data-name="ARC"><path class="cls-4" d="M219.85,85.3a1.22,1.22,0,0,0-1-.93"/></g><g id="ARC-5" data-name="ARC"><path class="cls-4" d="M218.87,109.37a1.24,1.24,0,0,0,1-.94"/></g><g id="ARC-6" data-name="ARC"><path class="cls-4" d="M218.87,84.37a1.24,1.24,0,0,0,1-.94"/></g><g id="ARC-7" data-name="ARC"><path class="cls-4" d="M219.85,35.3a1.22,1.22,0,0,0-1-.93"/></g><g id="ARC-8" data-name="ARC"><path class="cls-4" d="M244.42,85.3a1.22,1.22,0,0,0-1-.93"/></g><g id="ARC-9" data-name="ARC"><path class="cls-4" d="M243.44,84.37a1.24,1.24,0,0,0,1-.94"/></g><g id="ARC-10" data-name="ARC"><path class="cls-4" d="M243.44,109.37a1.24,1.24,0,0,0,1-.94"/></g><g id="ARC-11" data-name="ARC"><path class="cls-4" d="M244.42,35.3a1.22,1.22,0,0,0-1-.93"/></g><g id="LINE-4" data-name="LINE"><line class="cls-4" x1="215.36" y1="59.37" x2="243.44" y2="59.37"/></g><g id="ARC-12" data-name="ARC"><path class="cls-4" d="M219.85,58.43a59.62,59.62,0,0,0,0-23.13"/></g><g id="ARC-13" data-name="ARC"><path class="cls-4" d="M218.87,59.37a1.24,1.24,0,0,0,1-.94"/></g><g id="ARC-14" data-name="ARC"><path class="cls-4" d="M219.85,60.3a1.22,1.22,0,0,0-1-.93"/></g><g id="ARC-15" data-name="ARC"><path class="cls-4" d="M243.44,59.37a1.24,1.24,0,0,0,1-.94"/></g><g id="ARC-16" data-name="ARC"><path class="cls-4" d="M244.42,60.3a1.22,1.22,0,0,0-1-.93"/></g><g id="ARC-17" data-name="ARC"><path class="cls-4" d="M219.85,83.43a59.62,59.62,0,0,0,0-23.13"/></g><g id="ARC-18" data-name="ARC"><path class="cls-4" d="M219.85,85.3a1.22,1.22,0,0,0-1-.93"/></g><g id="ARC-19" data-name="ARC"><path class="cls-4" d="M218.87,109.37a1.24,1.24,0,0,0,1-.94"/></g><g id="ARC-20" data-name="ARC"><path class="cls-4" d="M218.87,84.37a1.24,1.24,0,0,0,1-.94"/></g><g id="ARC-21" data-name="ARC"><path class="cls-4" d="M219.85,35.3a1.22,1.22,0,0,0-1-.93"/></g><g id="ARC-22" data-name="ARC"><path class="cls-4" d="M244.42,85.3a1.22,1.22,0,0,0-1-.93"/></g><g id="ARC-23" data-name="ARC"><path class="cls-4" d="M243.44,84.37a1.24,1.24,0,0,0,1-.94"/></g><g id="ARC-24" data-name="ARC"><path class="cls-4" d="M243.44,109.37a1.24,1.24,0,0,0,1-.94"/></g><g id="ARC-25" data-name="ARC"><path class="cls-4" d="M244.42,35.3a1.22,1.22,0,0,0-1-.93"/></g><g id="ARC-26" data-name="ARC"><path class="cls-4" d="M218.87,59.37a1.24,1.24,0,0,0,1-.94"/></g><g id="ARC-27" data-name="ARC"><path class="cls-4" d="M219.85,60.3a1.22,1.22,0,0,0-1-.93"/></g><g id="ARC-28" data-name="ARC"><path class="cls-4" d="M243.44,59.37a1.24,1.24,0,0,0,1-.94"/></g><g id="ARC-29" data-name="ARC"><path class="cls-4" d="M244.42,60.3a1.22,1.22,0,0,0-1-.93"/></g><path class="cls-6" d="M225.36,103.64s5.28,6.86,7.94,5.56-7.24-10.45-7.24-10.45-3.9-4-4.65-2S225.36,103.64,225.36,103.64Z"/><path class="cls-6" d="M227.11,91.67s-4.37-7.08-6.29-5.77,3.56,9.44,3.56,9.44,3.83,7.58,5.71,5.54S227.11,91.67,227.11,91.67Z"/><path class="cls-6" d="M221.72,50.74s3.62-.74,5.2-8.34,1.11-7.67.31-8S223,36.64,222,43.59,220.46,50.43,221.72,50.74Z"/><rect class="cls-3" x="325.33" y="93.73" width="44.9" height="1.76" transform="translate(442.38 -253.17) rotate(90)"/><g id="LWPOLYLINE-22" data-name="LWPOLYLINE"><rect class="cls-3" x="63.96" y="74.48" width="80.63" height="71.25"/></g><g id="LWPOLYLINE-23" data-name="LWPOLYLINE"><rect class="cls-4" x="69.32" y="111.38" width="14.68" height="31.81"/></g><g id="LINE-5" data-name="LINE"><line class="cls-4" x1="66.77" y1="74.48" x2="66.77" y2="145.73"/></g><g id="LINE-6" data-name="LINE"><line class="cls-4" x1="141.77" y1="74.48" x2="141.77" y2="145.73"/></g><g id="LWPOLYLINE-24" data-name="LWPOLYLINE"><rect class="cls-4" x="69.32" y="77.02" width="14.68" height="31.81"/></g><g id="LWPOLYLINE-25" data-name="LWPOLYLINE"><rect class="cls-3" x="488.74" y="29.77" width="16.88" height="22.5"/></g><g id="LWPOLYLINE-26" data-name="LWPOLYLINE"><rect class="cls-3" x="488.74" y="116.02" width="16.88" height="22.5"/></g><g id="LWPOLYLINE-27" data-name="LWPOLYLINE"><rect class="cls-3" x="424.99" y="56.02" width="80.63" height="56.25"/></g><g id="LINE-7" data-name="LINE"><line class="cls-4" x1="502.8" y1="56.02" x2="502.8" y2="112.27"/></g><g id="LINE-8" data-name="LINE"><line class="cls-4" x1="427.8" y1="56.02" x2="427.8" y2="112.27"/></g><g id="LWPOLYLINE-28" data-name="LWPOLYLINE"><rect class="cls-4" x="485.58" y="85.42" width="14.68" height="24.31"/></g><g id="LWPOLYLINE-29" data-name="LWPOLYLINE"><rect class="cls-4" x="485.58" y="58.57" width="14.68" height="24.31"/></g><g id="LWPOLYLINE-30" data-name="LWPOLYLINE"><rect class="cls-3" x="218.31" y="117.04" width="20.15" height="20.46"/></g><line class="cls-4" x1="86.64" y1="145.73" x2="86.64" y2="74.48"/><line class="cls-4" x1="89.07" y1="145.73" x2="89.07" y2="74.48"/><g id="LWPOLYLINE-31" data-name="LWPOLYLINE"><rect class="cls-3" x="64.77" y="49.71" width="16.88" height="22.5"/></g><g id="LWPOLYLINE-32" data-name="LWPOLYLINE"><rect class="cls-3" x="64.77" y="148" width="16.88" height="22.5"/></g><g id="LWPOLYLINE-33" data-name="LWPOLYLINE"><path class="cls-3" d="M315.36,175.15l-13.92,6.65,2.4,4.43a3.26,3.26,0,0,0,4.26,1.39l7.61-3.64a3.24,3.24,0,0,0,1.59-4.18Z"/></g><g id="LWPOLYLINE-34" data-name="LWPOLYLINE"><path class="cls-3" d="M295.56,182.47H280.14l.25,5a3.23,3.23,0,0,0,3.24,3.08h8.44a3.24,3.24,0,0,0,3.24-3.08Z"/></g><g id="LWPOLYLINE-35" data-name="LWPOLYLINE"><path class="cls-3" d="M260.33,175.15l13.92,6.65-2.39,4.43a3.26,3.26,0,0,1-4.26,1.39L260,184a3.25,3.25,0,0,1-1.6-4.18Z"/></g><g id="LWPOLYLINE-36" data-name="LWPOLYLINE"><path class="cls-3" d="M315.36,162.05l-13.92-6.65,2.4-4.43a3.25,3.25,0,0,1,4.26-1.39l7.61,3.63a3.25,3.25,0,0,1,1.59,4.19Z"/></g><g id="LWPOLYLINE-37" data-name="LWPOLYLINE"><path class="cls-3" d="M295.56,154.73H280.14l.25-5a3.24,3.24,0,0,1,3.24-3.09h8.44a3.25,3.25,0,0,1,3.24,3.09Z"/></g><g id="LWPOLYLINE-38" data-name="LWPOLYLINE"><path class="cls-3" d="M260.33,162.05l13.92-6.65L271.86,151a3.25,3.25,0,0,0-4.26-1.39L260,153.21a3.27,3.27,0,0,0-1.6,4.19Z"/></g><g id="LWPOLYLINE-39" data-name="LWPOLYLINE"><path class="cls-4" d="M302.54,181.27l2.37,4.38a2,2,0,0,0,2.66.87l7.61-3.63a2,2,0,0,0,1-2.62l-1.92-4.59"/></g><g id="LWPOLYLINE-40" data-name="LWPOLYLINE"><path class="cls-4" d="M281.36,182.47l.24,5a2,2,0,0,0,2,1.93h8.44a2,2,0,0,0,2-1.93l.25-5"/></g><g id="LWPOLYLINE-41" data-name="LWPOLYLINE"><path class="cls-4" d="M273.15,181.27l-2.36,4.38a2,2,0,0,1-2.66.87l-7.61-3.63a2,2,0,0,1-1-2.62l1.92-4.59"/></g><g id="LWPOLYLINE-42" data-name="LWPOLYLINE"><path class="cls-4" d="M302.54,155.93l2.37-4.38a2,2,0,0,1,2.66-.87l7.61,3.63a2,2,0,0,1,1,2.62l-1.92,4.59"/></g><g id="LWPOLYLINE-43" data-name="LWPOLYLINE"><path class="cls-4" d="M281.36,154.73l.24-5a2,2,0,0,1,2-1.93h8.44a2,2,0,0,1,2,1.93l.25,5"/></g><g id="LWPOLYLINE-44" data-name="LWPOLYLINE"><path class="cls-4" d="M273.15,155.93l-2.36-4.38a2,2,0,0,0-2.66-.87l-7.61,3.63a2,2,0,0,0-1,2.62l1.92,4.59"/></g><g id="ELLIPSE"><path class="cls-3" d="M256.18,168.39c0,8.4,14.18,15.21,31.67,15.21s31.67-6.81,31.67-15.21-14.18-15.2-31.67-15.2-31.67,6.81-31.67,15.2Z"/></g><path class="cls-6" d="M282,55.1s8.87-1.48,9.55,7.8-1.15,26.2-9,32.33S262.21,82.5,262.21,82.5s-7.8-9.3,2.4-18S282,55.1,282,55.1Z"/><g id="LWPOLYLINE-45" data-name="LWPOLYLINE"><polygon class="cls-3" points="320.83 65.66 342.63 45.03 324.88 25.06 301.83 44.29 320.83 65.66"/></g><g id="LINE-9" data-name="LINE"><line class="cls-4" x1="318.18" y1="62.68" x2="339.98" y2="42.05"/></g><g id="LINE-10" data-name="LINE"><line class="cls-4" x1="336.91" y1="44.95" x2="324.29" y2="30.75"/></g><g id="LINE-11" data-name="LINE"><line class="cls-4" x1="327.52" y1="28.04" x2="304.48" y2="47.27"/></g><line class="cls-4" x1="483.22" y1="56.02" x2="483.22" y2="112.19"/><line class="cls-4" x1="480.79" y1="56.02" x2="480.79" y2="112.19"/><g id="LWPOLYLINE-46" data-name="LWPOLYLINE"><polyline class="cls-7" points="350.94 17.07 350.94 22.7 239.03 22.7 239.03 17.07"/></g><g id="LWPOLYLINE-47" data-name="LWPOLYLINE"><polyline class="cls-7" points="497.78 17.07 497.78 22.7 385.28 22.7 385.28 17.07"/></g><g id="LWPOLYLINE-48" data-name="LWPOLYLINE"><polyline class="cls-7" points="205.28 17.07 205.28 22.7 92.78 22.7 92.78 17.07"/></g><g id="LWPOLYLINE-49" data-name="LWPOLYLINE"><polygon class="cls-8" points="321.42 13.32 269.14 13.32 269.14 14.55 321.4 14.56 321.42 13.32"/></g><g id="LWPOLYLINE-50" data-name="LWPOLYLINE"><polygon class="cls-8" points="348.71 13.32 347.78 13.32 323.99 13.32 323.99 14.56 348.71 14.55 348.71 13.32"/></g><g id="LWPOLYLINE-51" data-name="LWPOLYLINE"><polygon class="cls-8" points="241.83 13.32 242.77 13.32 266.56 13.32 266.56 14.56 241.83 14.55 241.83 13.32"/></g><g id="LWPOLYLINE-52" data-name="LWPOLYLINE"><polygon class="cls-8" points="467.67 13.32 415.39 13.32 415.39 14.55 467.65 14.56 467.67 13.32"/></g><g id="LWPOLYLINE-53" data-name="LWPOLYLINE"><polygon class="cls-8" points="494.96 13.32 494.03 13.32 470.24 13.32 470.24 14.56 494.96 14.55 494.96 13.32"/></g><g id="LWPOLYLINE-54" data-name="LWPOLYLINE"><polygon class="cls-8" points="388.08 13.32 389.02 13.32 412.81 13.32 412.81 14.56 388.08 14.55 388.08 13.32"/></g><g id="LWPOLYLINE-55" data-name="LWPOLYLINE"><polygon class="cls-8" points="114.81 13.32 113.87 13.32 96.53 13.32 95.59 13.32 95.59 14.56 113.87 14.56 114.81 14.56 114.81 13.32"/></g><g id="LWPOLYLINE-56" data-name="LWPOLYLINE"><polygon class="cls-8" points="147.5 13.32 146.8 13.32 116.68 13.32 116.68 14.55 147.49 14.55 147.5 13.32"/></g><g id="LWPOLYLINE-57" data-name="LWPOLYLINE"><polygon class="cls-8" points="181.37 13.32 180.43 13.32 151.25 13.32 150.55 13.32 150.55 14.55 181.37 14.55 181.37 13.32"/></g><g id="LWPOLYLINE-58" data-name="LWPOLYLINE"><polygon class="cls-8" points="202.47 13.32 201.53 13.32 183.25 13.32 183.25 14.55 202.47 14.55 202.47 13.32"/></g><line class="cls-8" x1="389.02" y1="17.08" x2="494.03" y2="17.08"/><line class="cls-8" x1="347.78" y1="17.08" x2="239.03" y2="17.08"/><line class="cls-8" x1="204.69" y1="17.08" x2="95.94" y2="17.08"/><g id="LWPOLYLINE-59" data-name="LWPOLYLINE"><polygon class="cls-9" points="324.69 14.56 323.99 14.56 323.99 13.32 324.69 13.32 324.69 12.39 322.93 12.39 322.93 10.04 322 10.04 322 12.39 320.94 12.39 320.94 13.32 321.41 13.32 321.41 14.56 320.71 14.56 320.71 15.73 321.64 15.73 321.64 16.61 322.82 16.61 322.82 17.07 324.69 17.07 324.69 14.56"/></g><g id="LWPOLYLINE-60" data-name="LWPOLYLINE"><polygon class="cls-9" points="351.53 12.39 349.94 12.39 349.94 8.64 349.01 8.64 349.01 12.39 347.78 12.39 347.78 13.32 348.71 13.32 348.71 14.56 347.78 14.56 347.78 17.07 351.53 17.07 351.53 12.39"/></g><g id="LWPOLYLINE-61" data-name="LWPOLYLINE"><polygon class="cls-9" points="265.86 14.56 266.56 14.56 266.56 13.32 265.86 13.32 265.86 12.39 267.62 12.39 267.62 10.04 268.55 10.04 268.55 12.39 269.61 12.39 269.61 13.32 269.14 13.32 269.14 14.56 269.84 14.56 269.84 15.73 268.9 15.73 268.9 16.61 267.73 16.61 267.73 17.07 265.86 17.07 265.86 14.56"/></g><g id="LWPOLYLINE-62" data-name="LWPOLYLINE"><polygon class="cls-9" points="239.02 12.39 240.6 12.39 240.6 8.64 241.54 8.64 241.54 12.39 242.77 12.39 242.77 13.32 241.83 13.32 241.83 14.56 242.77 14.56 242.77 17.07 239.02 17.07 239.02 12.39"/></g><g id="LWPOLYLINE-63" data-name="LWPOLYLINE"><polygon class="cls-9" points="470.94 14.56 470.24 14.56 470.24 13.32 470.94 13.32 470.94 12.39 469.18 12.39 469.18 10.04 468.25 10.04 468.25 12.39 467.19 12.39 467.19 13.32 467.66 13.32 467.66 14.56 466.96 14.56 466.96 15.73 467.89 15.73 467.89 16.61 469.07 16.61 469.07 17.07 470.94 17.07 470.94 14.56"/></g><g id="LWPOLYLINE-64" data-name="LWPOLYLINE"><polygon class="cls-9" points="497.78 12.39 496.19 12.39 496.19 8.64 495.26 8.64 495.26 12.39 494.03 12.39 494.03 13.32 494.96 13.32 494.96 14.56 494.03 14.56 494.03 17.07 497.78 17.07 497.78 12.39"/></g><g id="LWPOLYLINE-65" data-name="LWPOLYLINE"><polygon class="cls-9" points="412.11 14.56 412.81 14.56 412.81 13.32 412.11 13.32 412.11 12.39 413.87 12.39 413.87 10.04 414.8 10.04 414.8 12.39 415.86 12.39 415.86 13.32 415.39 13.32 415.39 14.56 416.09 14.56 416.09 15.73 415.15 15.73 415.15 16.61 413.98 16.61 413.98 17.07 412.11 17.07 412.11 14.56"/></g><g id="LWPOLYLINE-66" data-name="LWPOLYLINE"><polygon class="cls-9" points="385.27 12.39 386.85 12.39 386.85 8.64 387.79 8.64 387.79 12.39 389.02 12.39 389.02 13.32 388.08 13.32 388.08 14.56 389.02 14.56 389.02 17.07 385.27 17.07 385.27 12.39"/></g><g id="LWPOLYLINE-67" data-name="LWPOLYLINE"><polyline class="cls-9" points="148.56 10.04 149.5 10.04 149.5 12.39 151.25 12.39 151.25 13.32 150.55 13.32 150.55 14.56 151.25 14.56 151.25 17.07 149.38 17.07 149.38 16.61 148.68 16.61 148.68 17.07 146.8 17.07 146.8 14.56 147.49 14.55 147.5 13.32 146.8 13.32 146.8 12.39 148.56 12.39 148.56 10.04"/></g><g id="LWPOLYLINE-68" data-name="LWPOLYLINE"><polygon class="cls-9" points="180.43 14.56 181.37 14.56 181.37 13.32 180.43 13.32 180.43 12.39 182.31 12.39 182.31 10.04 183.25 10.04 183.25 12.39 184.18 12.39 184.18 13.32 183.25 13.32 183.25 14.56 184.18 14.56 184.18 15.73 183.36 15.73 183.36 16.61 182.31 16.61 182.31 17.07 180.43 17.07 180.43 14.56"/></g><g id="LWPOLYLINE-69" data-name="LWPOLYLINE"><polygon class="cls-9" points="205.28 12.39 204.34 12.39 204.34 8.64 203.4 8.64 203.4 12.39 201.53 12.39 201.53 13.32 202.47 13.32 202.47 14.56 201.53 14.56 201.53 17.07 205.28 17.07 205.28 12.39"/></g><g id="LWPOLYLINE-70" data-name="LWPOLYLINE"><polygon class="cls-9" points="96.53 14.56 95.59 14.56 95.59 13.32 96.53 13.32 96.53 12.39 94.65 12.39 94.65 8.64 93.72 8.64 93.72 12.39 92.78 12.39 92.78 17.07 96.53 17.07 96.53 14.56"/></g><g id="LWPOLYLINE-71" data-name="LWPOLYLINE"><polygon class="cls-9" points="117.62 14.56 116.68 14.56 116.68 13.32 117.62 13.32 117.62 12.39 115.75 12.39 115.75 10.04 114.81 10.04 114.81 12.39 113.87 12.39 113.87 13.32 114.81 13.32 114.81 14.56 113.87 14.56 113.87 15.73 114.69 15.73 114.69 16.61 115.75 16.61 115.75 17.07 117.62 17.07 117.62 14.56"/></g><g id="LWPOLYLINE-72" data-name="LWPOLYLINE"><polyline class="cls-7" points="351.53 17.07 351.53 8.64 239.03 8.64 239.03 17.07"/></g><g id="LWPOLYLINE-73" data-name="LWPOLYLINE"><polyline class="cls-7" points="497.78 17.07 497.78 8.64 385.28 8.64 385.28 17.07"/></g><g id="LWPOLYLINE-74" data-name="LWPOLYLINE"><polyline class="cls-7" points="205.28 17.07 205.28 8.64 92.78 8.64 92.78 17.07"/></g><g id="LWPOLYLINE-75" data-name="LWPOLYLINE"><rect class="cls-10" x="193.04" y="162.95" width="2.11" height="33.75" transform="translate(-70.31 189.91) rotate(-45)"/></g><g id="LWPOLYLINE-76" data-name="LWPOLYLINE"><rect class="cls-10" x="379.63" y="140.14" width="33.75" height="1.64" transform="translate(16.46 321.65) rotate(-45)"/></g><g id="LWPOLYLINE-77" data-name="LWPOLYLINE"><rect class="cls-11" x="467.19" y="152.31" width="33.75" height="1.64"/></g><g id="LWPOLYLINE-78" data-name="LWPOLYLINE"><rect class="cls-11" x="424.18" y="159.58" width="1.64" height="33.75"/></g><g id="LWPOLYLINE-79" data-name="LWPOLYLINE"><rect class="cls-11" x="383.99" y="197.08" width="33.75" height="1.64"/></g><g id="LWPOLYLINE-80" data-name="LWPOLYLINE"><rect class="cls-11" x="61.25" y="206.8" width="1.64" height="33.75"/></g><g id="LWPOLYLINE-81" data-name="LWPOLYLINE"><rect class="cls-11" x="130.16" y="207.27" width="1.64" height="33.75"/></g><g id="LWPOLYLINE-82" data-name="LWPOLYLINE"><rect class="cls-10" x="339.84" y="318.5" width="1.64" height="33.75" transform="translate(-137.37 339.11) rotate(-45)"/></g><g id="LWPOLYLINE-83" data-name="LWPOLYLINE"><rect class="cls-11" x="467.19" y="152.31" width="33.75" height="1.64"/></g><g id="LWPOLYLINE-84" data-name="LWPOLYLINE"><rect class="cls-11" x="424.18" y="159.58" width="1.64" height="33.75"/></g><g id="LWPOLYLINE-85" data-name="LWPOLYLINE"><rect class="cls-11" x="383.99" y="197.08" width="33.75" height="1.64"/></g><g id="ARC-30" data-name="ARC"><path class="cls-11" d="M205.28,158.75a34.33,34.33,0,0,0-22.38,8.4"/></g><g id="ARC-31" data-name="ARC"><path class="cls-11" d="M417.74,152.31a33.77,33.77,0,0,0-9.89-23.87"/></g><g id="ARC-32" data-name="ARC"><path class="cls-11" d="M329.3,322.86a33.73,33.73,0,0,0-9.88,23.86"/></g><g id="LWPOLYLINE-86" data-name="LWPOLYLINE"><rect class="cls-8" x="131.8" y="302.54" width="69.37" height="34.1"/></g><g id="LWPOLYLINE-87" data-name="LWPOLYLINE"><rect class="cls-8" x="131.8" y="302.54" width="69.37" height="34.1"/></g><g id="LWPOLYLINE-88" data-name="LWPOLYLINE"><rect class="cls-12" x="131.8" y="301.97" width="34.69" height="0.83"/></g><g id="ARC-33" data-name="ARC"><path class="cls-8" d="M194.89,319.23a3.29,3.29,0,1,1,0-.78"/></g><g id="LWPOLYLINE-89" data-name="LWPOLYLINE"><path class="cls-8" d="M191.64,318.45h10.17v.77H191.64a.39.39,0,1,1,0-.77Z"/></g><g id="LWPOLYLINE-90" data-name="LWPOLYLINE"><rect class="cls-12" x="166.49" y="301.97" width="34.69" height="0.83"/></g><g id="LWPOLYLINE-91" data-name="LWPOLYLINE"><rect class="cls-8" x="380.24" y="266.21" width="58.29" height="30.01"/></g><g id="LWPOLYLINE-92" data-name="LWPOLYLINE"><path class="cls-8" d="M433.32,280.89v-5.82a4.68,4.68,0,0,0-4.68-4.69H390a4.69,4.69,0,0,0-4.68,4.69v12.42a4.69,4.69,0,0,0,4.68,4.69h38.68a4.68,4.68,0,0,0,4.68-4.69v-5.82"/></g><g id="ARC-34" data-name="ARC"><path class="cls-8" d="M431.61,280.88a3.28,3.28,0,1,0-2.85,3.65,3.25,3.25,0,0,0,2.85-2.86"/></g><g id="LWPOLYLINE-93" data-name="LWPOLYLINE"><path class="cls-8" d="M428.36,281.67h10.16v-.78H428.36a.38.38,0,0,0-.39.39A.39.39,0,0,0,428.36,281.67Z"/></g><g id="LINE-16" data-name="LINE"><line class="cls-12" x1="456.66" y1="187.47" x2="456.66" y2="165.43"/></g><g id="LINE-17" data-name="LINE"><line class="cls-12" x1="456.66" y1="165.43" x2="432.39" y2="165.43"/></g><g id="LINE-18" data-name="LINE"><line class="cls-12" x1="432.39" y1="165.43" x2="432.39" y2="187.47"/></g><g id="LINE-19" data-name="LINE"><line class="cls-12" x1="432.39" y1="187.47" x2="456.66" y2="187.47"/></g><g id="LWPOLYLINE-94" data-name="LWPOLYLINE"><rect class="cls-8" x="214.3" y="203.86" width="23.2" height="104.66"/></g><g id="LWPOLYLINE-95" data-name="LWPOLYLINE"><rect class="cls-12" x="214.3" y="339.34" width="44.18" height="26.13"/></g><g id="LWPOLYLINE-96" data-name="LWPOLYLINE"><polyline class="cls-10" points="258.48 340.53 258.48 339.34 298.37 339.34"/></g><g id="LWPOLYLINE-97" data-name="LWPOLYLINE"><rect class="cls-12" x="214.3" y="308.52" width="23.27" height="30.82"/></g><g id="LWPOLYLINE-98" data-name="LWPOLYLINE"><rect class="cls-12" x="276.88" y="203.86" width="37.5" height="84.38"/></g><g id="LWPOLYLINE-99" data-name="LWPOLYLINE"><polyline class="cls-8" points="291.83 239.04 279.83 239.04 279.83 261.54 291.83 261.54 291.83 239.04"/></g><rect class="cls-12" x="292" y="250.87" width="2.74" height="1.15" transform="translate(41.93 544.82) rotate(-90)"/><path class="cls-12" d="M292.91,249.47a.72.72,0,0,0-.26.26h-5.78a.41.41,0,0,0-.41.42.41.41,0,0,0,.41.41h5.78a.79.79,0,0,0,1.09.27.8.8,0,1,0-.83-1.36Z"/><g id="CIRCLE"><path class="cls-8" d="M230.54,259.07a.73.73,0,1,1,.73.73.73.73,0,0,1-.73-.73Z"/></g><g id="CIRCLE-2" data-name="CIRCLE"><path class="cls-8" d="M230.54,254.51a.73.73,0,1,1,.73.72.73.73,0,0,1-.73-.72Z"/></g><g id="CIRCLE-3" data-name="CIRCLE"><path class="cls-8" d="M227.55,254.51a.73.73,0,1,1,.73.72.72.72,0,0,1-.73-.72Z"/></g><g id="CIRCLE-4" data-name="CIRCLE"><path class="cls-8" d="M227.55,256.79a.73.73,0,1,1,.73.73.73.73,0,0,1-.73-.73Z"/></g><g id="CIRCLE-5" data-name="CIRCLE"><path class="cls-8" d="M227.55,259.07a.73.73,0,1,1,.73.73.72.72,0,0,1-.73-.73Z"/></g><g id="LWPOLYLINE-100" data-name="LWPOLYLINE"><rect class="cls-8" x="217.52" y="242.69" width="16.75" height="28.2" rx="0.39"/></g><circle class="cls-8" cx="221.86" cy="247.72" r="1.38"/><path class="cls-8" d="M225.18,251.89h-6.11a.58.58,0,0,1-.58-.59v-7.16a.58.58,0,0,1,.58-.59h6.11a0,0,0,0,1,0,0v8.24A0,0,0,0,1,225.18,251.89Z"/><circle class="cls-8" cx="221.86" cy="256.79" r="1.38"/><path class="cls-8" d="M225.18,261h-6.11a.58.58,0,0,1-.58-.59v-7.16a.58.58,0,0,1,.58-.59h6.11a0,0,0,0,1,0,0v8.24A0,0,0,0,1,225.18,261Z"/><circle class="cls-8" cx="221.86" cy="265.86" r="1.38"/><path class="cls-8" d="M225.18,270h-6.11a.58.58,0,0,1-.58-.59v-7.16a.58.58,0,0,1,.58-.59h6.11a0,0,0,0,1,0,.05V270A0,0,0,0,1,225.18,270Z"/><circle class="cls-8" cx="229.77" cy="265.86" r="1.38"/><path class="cls-8" d="M226.45,261.69h6.11a.58.58,0,0,1,.58.59v7.16a.58.58,0,0,1-.58.59h-6.11a0,0,0,0,1,0,0v-8.24A0,0,0,0,1,226.45,261.69Z"/><circle class="cls-8" cx="229.77" cy="247.72" r="1.38"/><path class="cls-8" d="M226.45,243.55h6.11a.58.58,0,0,1,.58.59v7.16a.58.58,0,0,1-.58.59h-6.11a0,0,0,0,1,0,0V243.6A0,0,0,0,1,226.45,243.55Z"/><rect class="cls-10" x="258.45" y="339.34" width="40.02" height="1.64"/><polyline class="cls-12" points="259.3 366.86 258.48 366.86 258.48 339.34"/><line class="cls-11" x1="278.46" y1="340.98" x2="278.46" y2="339.34"/><g id="LWPOLYLINE-101" data-name="LWPOLYLINE"><line class="cls-13" x1="463.21" y1="167.08" x2="505.39" y2="167.08"/></g><g id="LWPOLYLINE-102" data-name="LWPOLYLINE"><polyline class="cls-13" points="61.25 199.77 14.38 199.77 14.38 244.3"/></g><g id="LWPOLYLINE-103" data-name="LWPOLYLINE"><line class="cls-13" x1="305.1" y1="203.52" x2="305.1" y2="288.36"/></g><g id="LWPOLYLINE-104" data-name="LWPOLYLINE"><line class="cls-13" x1="225.9" y1="203.91" x2="225.9" y2="308.52"/></g><line class="cls-8" x1="277.39" y1="214.29" x2="278.06" y2="214.29"/><line class="cls-14" x1="279.36" y1="214.29" x2="296.99" y2="214.29"/><polyline class="cls-8" points="297.64 214.29 298.3 214.29 298.3 214.95"/><line class="cls-15" x1="298.3" y1="216.32" x2="298.3" y2="234.75"/><polyline class="cls-8" points="298.3 235.44 298.3 236.1 297.64 236.1"/><line class="cls-14" x1="296.34" y1="236.1" x2="278.71" y2="236.1"/><line class="cls-8" x1="278.06" y1="236.1" x2="277.39" y2="236.1"/><line class="cls-8" x1="276.75" y1="263.81" x2="277.41" y2="263.81"/><line class="cls-16" x1="278.77" y1="263.81" x2="297.16" y2="263.81"/><polyline class="cls-8" points="297.84 263.81 298.5 263.81 298.5 264.47"/><line class="cls-17" x1="298.5" y1="265.79" x2="298.5" y2="286.29"/><polyline class="cls-8" points="298.5 286.95 298.5 287.61 297.84 287.61"/><line class="cls-16" x1="296.47" y1="287.61" x2="278.09" y2="287.61"/><line class="cls-8" x1="277.41" y1="287.61" x2="276.75" y2="287.61"/><g id="LINE-20" data-name="LINE"><line class="cls-9" x1="501.45" y1="160.55" x2="501.45" y2="173.6"/></g><g id="LINE-21" data-name="LINE"><line class="cls-9" x1="499.03" y1="160.55" x2="499.03" y2="173.6"/></g><g id="LINE-22" data-name="LINE"><line class="cls-9" x1="496.61" y1="160.55" x2="496.61" y2="173.6"/></g><g id="LINE-23" data-name="LINE"><line class="cls-9" x1="494.19" y1="160.55" x2="494.19" y2="173.6"/></g><g id="LINE-24" data-name="LINE"><line class="cls-9" x1="491.77" y1="160.55" x2="491.77" y2="173.6"/></g><g id="LINE-25" data-name="LINE"><line class="cls-9" x1="489.35" y1="173.6" x2="489.35" y2="160.55"/></g><g id="LINE-26" data-name="LINE"><line class="cls-9" x1="57.31" y1="193.24" x2="57.31" y2="206.3"/></g><g id="LINE-27" data-name="LINE"><line class="cls-9" x1="54.89" y1="193.24" x2="54.89" y2="206.3"/></g><g id="LINE-28" data-name="LINE"><line class="cls-9" x1="52.47" y1="193.24" x2="52.47" y2="206.3"/></g><g id="LINE-29" data-name="LINE"><line class="cls-9" x1="50.05" y1="193.24" x2="50.05" y2="206.3"/></g><g id="LINE-30" data-name="LINE"><line class="cls-9" x1="47.63" y1="193.24" x2="47.63" y2="206.3"/></g><g id="LINE-31" data-name="LINE"><line class="cls-9" x1="45.21" y1="206.3" x2="45.21" y2="193.24"/></g><g id="LINE-32" data-name="LINE"><line class="cls-9" x1="7.85" y1="240.36" x2="20.91" y2="240.36"/></g><g id="LINE-33" data-name="LINE"><line class="cls-9" x1="7.85" y1="237.94" x2="20.91" y2="237.94"/></g><g id="LINE-34" data-name="LINE"><line class="cls-9" x1="7.85" y1="235.52" x2="20.91" y2="235.52"/></g><g id="LINE-35" data-name="LINE"><line class="cls-9" x1="7.85" y1="233.1" x2="20.91" y2="233.1"/></g><g id="LINE-36" data-name="LINE"><line class="cls-9" x1="7.85" y1="230.68" x2="20.91" y2="230.68"/></g><g id="LINE-37" data-name="LINE"><line class="cls-9" x1="20.91" y1="228.26" x2="7.85" y2="228.26"/></g><g id="LWPOLYLINE-105" data-name="LWPOLYLINE"><line class="cls-13" x1="259.27" y1="355.4" x2="299.98" y2="355.4"/></g><g id="LINE-38" data-name="LINE"><line class="cls-9" x1="294.54" y1="348.87" x2="294.54" y2="361.92"/></g><g id="LINE-39" data-name="LINE"><line class="cls-9" x1="292.12" y1="348.87" x2="292.12" y2="361.92"/></g><g id="LINE-40" data-name="LINE"><line class="cls-9" x1="289.7" y1="348.87" x2="289.7" y2="361.92"/></g><g id="LINE-41" data-name="LINE"><line class="cls-9" x1="287.28" y1="348.87" x2="287.28" y2="361.92"/></g><g id="LINE-42" data-name="LINE"><line class="cls-9" x1="284.86" y1="348.87" x2="284.86" y2="361.92"/></g><g id="LINE-43" data-name="LINE"><line class="cls-9" x1="282.44" y1="361.92" x2="282.44" y2="348.87"/></g><g id="ARC-35" data-name="ARC"><path class="cls-12" d="M185.55,221.12c3,.32,10.81.94,10.81.94"/></g><g id="ARC-36" data-name="ARC"><path class="cls-12" d="M192.43,210.55a.8.8,0,0,0-.48-.73c-.33-.13-.66-.26-1-.37a14.19,14.19,0,0,0-2.75-.6c-.49-.06-1-.1-1.49-.12a14.6,14.6,0,0,0-3.9.32,9.41,9.41,0,0,0-5,2.88,4.47,4.47,0,0,0,.06,6.12,9.4,9.4,0,0,0,5,2.78,14.66,14.66,0,0,0,3.91.25c.5,0,1-.09,1.49-.15a14.4,14.4,0,0,0,2.74-.66c.33-.12.66-.25,1-.39a.8.8,0,0,0,.48-.73Z"/></g><g id="ARC-37" data-name="ARC"><path class="cls-12" d="M185.43,208.72c3-.39,10.93-1,10.93-1"/></g><g id="ARC-38" data-name="ARC"><path class="cls-12" d="M196.23,222.05a1,1,0,0,1-1-.9,52.72,52.72,0,0,1,0-12.47,1,1,0,0,1,1-.91h0c1.07-.05,2.15-.09,3.22-.12a1.38,1.38,0,0,1,1.39,1.26c.18,2,.26,4,.26,6s-.08,4-.26,6a1.38,1.38,0,0,1-1.39,1.26c-1.07,0-2.15-.07-3.22-.12Z"/></g><g id="LWPOLYLINE-106" data-name="LWPOLYLINE"><path class="cls-8" d="M195,250.66v-7.79a.87.87,0,0,0-.87-.87h-10.4a.87.87,0,0,0-.86.87v16.46a.86.86,0,0,0,.86.86h10.4a.86.86,0,0,0,.87-.86v-8.67Z"/></g><g id="ARC-39" data-name="ARC"><path class="cls-12" d="M197.17,251.53a1.09,1.09,0,1,0,0-.87Z"/></g><g id="ARC-40" data-name="ARC"><path class="cls-12" d="M198.39,256.53a1.1,1.1,0,1,0-.44,0Z"/></g><g id="ARC-41" data-name="ARC"><path class="cls-12" d="M198.39,245.66a1.1,1.1,0,1,1-.44,0Z"/></g><g id="LINE-44" data-name="LINE"><path class="cls-12" d="M192.92,251.53h5.25a.43.43,0,0,0,.43-.43.44.44,0,0,0-.43-.44h-5.25a.44.44,0,0,0-.43.44A.43.43,0,0,0,192.92,251.53Z"/></g><line class="cls-12" x1="198.17" y1="255.45" x2="198.17" y2="258.52"/><line class="cls-12" x1="198.17" y1="243.67" x2="198.17" y2="246.74"/><g id="LWPOLYLINE-107" data-name="LWPOLYLINE"><path class="cls-8" d="M195,276.64v-7.8a.86.86,0,0,0-.87-.86h-10.4a.86.86,0,0,0-.86.86V285.3a.87.87,0,0,0,.86.87h10.4a.87.87,0,0,0,.87-.87v-8.66Z"/></g><g id="LWPOLYLINE-108" data-name="LWPOLYLINE"><rect class="cls-8" x="180.28" y="230.51" width="20.79" height="62.38"/></g><g id="ARC-42" data-name="ARC"><path class="cls-12" d="M197.17,277.73a1.09,1.09,0,1,0,0-.88Z"/></g><g id="ARC-43" data-name="ARC"><path class="cls-12" d="M198.39,282.73a1.1,1.1,0,1,0-.44,0Z"/></g><g id="ARC-44" data-name="ARC"><path class="cls-12" d="M198.39,271.85a1.1,1.1,0,1,1-.44,0Z"/></g><g id="LINE-45" data-name="LINE"><path class="cls-12" d="M192.92,277.73h5.25a.44.44,0,0,0,0-.88h-5.25a.44.44,0,0,0,0,.88Z"/></g><line class="cls-12" x1="198.17" y1="281.65" x2="198.17" y2="284.72"/><line class="cls-12" x1="198.17" y1="269.86" x2="198.17" y2="272.93"/><g id="LWPOLYLINE-109" data-name="LWPOLYLINE"><rect class="cls-12" x="432.04" y="230.85" width="19.64" height="25.58"/></g><g id="LWPOLYLINE-110" data-name="LWPOLYLINE"><path class="cls-12" d="M435.87,235.87a1.09,1.09,0,0,0-1.09,1.1v13.34a1.09,1.09,0,0,0,1.09,1.09h9.87a.91.91,0,0,0,.92-.91v-13.7a.92.92,0,0,0-.92-.92Z"/></g><g id="ARC-45" data-name="ARC"><path class="cls-12" d="M435.31,220.94c3.13.35,11.4,1,11.4,1"/></g><g id="ARC-46" data-name="ARC"><path class="cls-12" d="M442.57,209.8a.82.82,0,0,0-.51-.76c-.35-.15-.7-.28-1.05-.4a14.29,14.29,0,0,0-2.9-.63c-.52-.06-1.05-.11-1.58-.13a15.34,15.34,0,0,0-4.11.34,10,10,0,0,0-5.25,3,4.74,4.74,0,0,0,.06,6.46,10,10,0,0,0,5.31,2.94,15.37,15.37,0,0,0,4.12.26c.53,0,1-.09,1.57-.16a15,15,0,0,0,2.89-.7c.35-.12.7-.26,1-.41a.85.85,0,0,0,.5-.77Z"/></g><g id="ARC-47" data-name="ARC"><path class="cls-12" d="M435.18,207.87c3.13-.41,11.53-1,11.53-1"/></g><g id="ARC-48" data-name="ARC"><path class="cls-12" d="M446.57,221.93a1.09,1.09,0,0,1-1-1,55.7,55.7,0,0,1,0-13.16,1.09,1.09,0,0,1,1-.95h0c1.13-.05,2.26-.1,3.38-.12a1.45,1.45,0,0,1,1.48,1.32q.27,3.17.27,6.33c0,2.11-.09,4.23-.27,6.33a1.46,1.46,0,0,1-1.48,1.33c-1.12,0-2.25-.07-3.38-.13Z"/></g><g id="ARC-49" data-name="ARC"><path class="cls-12" d="M448,244.1a1.15,1.15,0,0,0,2.21-.46,1.17,1.17,0,0,0-.7-1.06,1.15,1.15,0,0,0-1.51.6Z"/></g><g id="ARC-50" data-name="ARC"><path class="cls-12" d="M449.3,249.37a1.15,1.15,0,1,0-.46,0Z"/></g><g id="ARC-51" data-name="ARC"><path class="cls-12" d="M449.3,237.9a1.15,1.15,0,1,1-.46,0Z"/></g><g id="LINE-46" data-name="LINE"><path class="cls-12" d="M443.55,244.1h5.52a.46.46,0,0,0,.46-.46.45.45,0,0,0-.46-.46h-5.52a.45.45,0,0,0-.46.46A.46.46,0,0,0,443.55,244.1Z"/></g><line class="cls-12" x1="449.07" y1="248.23" x2="449.07" y2="251.47"/><line class="cls-12" x1="449.07" y1="235.81" x2="449.07" y2="239.04"/><g id="LWPOLYLINE-111" data-name="LWPOLYLINE"><polygon class="cls-18" points="359.57 355.39 368.4 355.39 368.4 299.09 447.62 299.09 447.62 274.65 463.79 274.65 463.79 221.45 471.06 221.45 471.06 200.12 490.28 200.12 490.28 179.97 508.27 179.97 508.27 7.12 506.32 5.99 504.39 4.35 502.78 2.4 501.53 0.2 497.78 0.2 497.78 22.7 505.39 22.7 505.39 152.31 500.94 152.31 500.94 155.82 505.39 155.82 505.39 178.32 463.21 178.32 463.21 155.82 467.19 155.82 467.19 152.31 417.74 152.31 417.74 155.82 424.18 155.82 424.18 159.57 427.7 159.57 427.7 155.82 458.64 155.82 458.64 197.07 427.7 197.07 427.7 193.32 424.18 193.32 424.18 197.07 417.74 197.07 417.74 200.59 451.49 200.59 451.49 266.22 438.36 266.22 438.36 296.22 380.24 296.22 380.24 200.59 383.99 200.59 383.99 197.07 356.57 197.07 356.57 346.72 353.17 346.72 353.17 352.47 356.1 352.47 356.1 355.39 359.57 355.39"/></g><g id="LWPOLYLINE-112" data-name="LWPOLYLINE"><polygon class="cls-18" points="211.02 158.75 211.02 22.7 239.03 22.7 239.03 0.2 235.28 0.2 234.03 2.4 232.41 4.35 230.48 5.99 228.29 7.27 225.91 8.14 223.42 8.58 220.89 8.58 218.39 8.14 216.01 7.27 213.82 5.99 211.89 4.35 210.28 2.4 209.03 0.2 205.28 0.2 205.28 158.75 211.02 158.75"/></g><g id="LWPOLYLINE-113" data-name="LWPOLYLINE"><polygon class="cls-18" points="356.57 155.82 383.99 155.82 383.99 152.31 380.24 152.31 380.24 22.7 385.28 22.7 385.28 0.2 381.53 0.2 380.28 2.4 378.66 4.35 376.73 5.99 374.54 7.27 372.16 8.14 369.67 8.58 367.14 8.58 364.64 8.14 362.26 7.27 360.07 5.99 358.14 4.35 356.53 2.4 355.28 0.2 351.53 0.2 351.53 17.07 350.94 17.07 350.94 52.35 356.57 52.35 356.57 92.22 356.57 155.82"/></g><polygon class="cls-18" points="299.98 346.72 299.98 339.34 298.5 339.34 298.5 365.47 214.07 365.47 214.07 203.87 237.5 203.87 237.5 197.07 211.02 197.07 211.02 192.5 205.28 192.5 205.28 196.25 128.28 196.25 128.28 207.27 131.8 207.27 131.8 199.77 201.18 199.77 201.18 336.64 131.8 336.64 131.8 241.02 128.28 241.02 128.26 244.3 64.77 244.3 64.77 240.55 61.25 240.55 61.25 244.3 3.13 244.3 3.13 188.52 61.25 188.52 61.25 206.8 64.77 206.8 64.77 43.09 92.78 43.09 92.78 0.2 89.03 0.2 87.78 2.4 86.16 4.35 84.23 5.99 82.04 7.27 79.66 8.14 77.17 8.58 74.64 8.58 72.14 8.14 69.76 7.27 67.58 5.99 65.64 4.35 64.03 2.4 62.78 0.2 61.9 0.2 61.9 185.65 0.2 185.65 0.2 247.7 128.4 247.7 128.4 341.45 185.35 341.45 185.35 367.59 185.35 370.28 213.6 370.28 304.65 370.28 304.65 355.28 305.47 355.28 305.47 352.47 319.42 352.47 319.42 346.72 299.98 346.72"/><path class="cls-19" d="M98.49,98h.88l1.81,4.45h0L103,98h.88v5.6h-.66V99.05h0l-1.89,4.54h-.28l-1.89-4.54h0v4.54h-.66Z"/><path class="cls-19" d="M108.83,102.46h-2.52l-.39,1.13h-.68l2-5.6h.64l2,5.6h-.68Zm-.2-.57-1-3h0l-1,3Z"/><path class="cls-19" d="M110.79,101.74l.66-.12a1.46,1.46,0,0,0,1.65,1.47c.78,0,1.29-.36,1.29-.91s-.38-.88-1.54-1.24c-1.34-.44-1.79-.83-1.79-1.59a1.59,1.59,0,0,1,1.79-1.48,2,2,0,0,1,2,1.63l-.65.14a1.35,1.35,0,0,0-1.39-1.14c-.68,0-1.13.33-1.13.85s.32.67,1.34,1c1.46.47,2,1,2,1.84s-.8,1.53-2,1.53A2.05,2.05,0,0,1,110.79,101.74Z"/><path class="cls-19" d="M117.83,98.62h-1.74V98h4.15v.63h-1.75v5h-.66Z"/><path class="cls-19" d="M121.71,98h3.36v.63h-2.71v1.79h2.48V101h-2.48v2h2.71v.62h-3.36Z"/><path class="cls-19" d="M129.16,101.29l1.23,2.3h-.77l-1.19-2.27h-1.11v2.27h-.66V98h2c1.17,0,1.86.63,1.86,1.66a1.54,1.54,0,0,1-1.4,1.62Zm-.52-.59c.83,0,1.26-.36,1.26-1s-.43-1-1.26-1h-1.32v2.08Z"/><path class="cls-19" d="M96,106.49h2.16a1.46,1.46,0,0,1,1.63,1.45,1.19,1.19,0,0,1-.66,1.15v0a1.34,1.34,0,0,1,.86,1.33c0,1.08-.68,1.65-2,1.65H96Zm2,2.38q1.08,0,1.08-.9c0-.56-.36-.85-1.08-.85H96.63v1.75Zm-.1,2.6c1,0,1.39-.31,1.39-1s-.39-1-1.37-1h-1.3v2Z"/><path class="cls-19" d="M101.6,106.49H105v.63h-2.7v1.79h2.47v.59h-2.47v2H105v.62H101.6Z"/><path class="cls-19" d="M106.55,106.49h1.74c1.42,0,2.42,1,2.42,2.79,0,2-1,2.81-2.46,2.81h-1.7Zm1.66,5c1.13,0,1.83-.6,1.83-2.19,0-1.43-.7-2.16-1.79-2.16h-1v4.35Z"/><path class="cls-19" d="M114.84,109.79l1.23,2.3h-.77l-1.19-2.27H113v2.27h-.65v-5.6h2a1.63,1.63,0,0,1,1.86,1.66,1.54,1.54,0,0,1-1.4,1.62Zm-.52-.59c.82,0,1.26-.36,1.26-1s-.43-1-1.26-1H113v2.08Z"/><path class="cls-19" d="M117.5,109.29c0-1.75,1-2.92,2.36-2.92s2.36,1.17,2.36,2.92-.94,2.92-2.36,2.92S117.5,111,117.5,109.29Zm4.06,0c0-1.41-.65-2.29-1.7-2.29s-1.69.88-1.69,2.29.64,2.3,1.69,2.3S121.56,110.71,121.56,109.29Z"/><path class="cls-19" d="M123.56,109.29c0-1.75,1-2.92,2.36-2.92s2.36,1.17,2.36,2.92-.94,2.92-2.36,2.92S123.56,111,123.56,109.29Zm4.06,0c0-1.41-.65-2.29-1.7-2.29s-1.69.88-1.69,2.29.64,2.3,1.69,2.3S127.62,110.71,127.62,109.29Z"/><path class="cls-19" d="M129.91,106.49h.88l1.82,4.45h0l1.82-4.45h.88v5.6h-.67v-4.54h0l-1.89,4.54h-.28l-1.89-4.54h0v4.54h-.66Z"/><path class="cls-19" d="M89.55,115.75l-1.25.8v-.69l1.33-.87h.58v5.6h-.66Z"/><path class="cls-19" d="M92.67,120h3v.62H92v-.53A2,2,0,0,1,92.2,119c.2-.37.54-.64,1.42-1.1,1.16-.6,1.5-.93,1.5-1.49s-.49-.91-1.17-.91a1.3,1.3,0,0,0-1.4,1.36l-.66-.06A1.93,1.93,0,0,1,94,114.87a1.69,1.69,0,0,1,1.83,1.54c0,.82-.41,1.31-1.64,1.93-.94.48-1.2.66-1.34.94A1.58,1.58,0,0,0,92.67,120Z"/><path class="cls-19" d="M97.51,115h.58v1.79h-.58Z"/><path class="cls-19" d="M99.23,117.4h2.09v.6H99.23Z"/><path class="cls-19" d="M102.59,119.11l.65-.16a1.41,1.41,0,1,0,1.43-1.58,1.79,1.79,0,0,0-1.35.59l-.59-.14.54-2.83h2.93v.63h-2.43l-.3,1.55h0a2.11,2.11,0,0,1,1.29-.39,1.88,1.88,0,0,1,1.94,1.93,1.92,1.92,0,0,1-2,2A2,2,0,0,1,102.59,119.11Z"/><path class="cls-19" d="M108,115h.58v1.79H108Zm1,0h.59v1.79H109Z"/><path class="cls-19" d="M113.3,119.15l1.32-1.29-1.32-1.3.4-.39,1.28,1.31,1.3-1.31.39.39-1.31,1.3,1.31,1.29-.39.39-1.3-1.31-1.28,1.31Z"/><path class="cls-19" d="M120.85,115.75l-1.25.8v-.69l1.33-.87h.58v5.6h-.66Z"/><path class="cls-19" d="M123.11,119.11l.65-.16a1.41,1.41,0,1,0,1.43-1.58,1.79,1.79,0,0,0-1.35.59l-.59-.14.54-2.83h2.93v.63h-2.43l-.3,1.55h0a2.08,2.08,0,0,1,1.29-.39,1.88,1.88,0,0,1,1.94,1.93,1.92,1.92,0,0,1-2,2A2,2,0,0,1,123.11,119.11Z"/><path class="cls-19" d="M128.49,115h.58v1.79h-.58Z"/><path class="cls-19" d="M130.48,117.4h2.09v.6h-2.09Z"/><path class="cls-19" d="M134.84,115.75l-1.25.8v-.69l1.32-.87h.59v5.6h-.66Z"/><path class="cls-19" d="M138.27,115.75l-1.25.8v-.69l1.33-.87h.59v5.6h-.67Z"/><path class="cls-19" d="M140.9,115h.58v1.79h-.58Zm1,0h.59v1.79H142Z"/><path class="cls-19" d="M428.07,123.7h2.15a1.45,1.45,0,0,1,1.63,1.44,1.18,1.18,0,0,1-.65,1.15v0a1.34,1.34,0,0,1,.86,1.33c0,1.08-.68,1.65-2,1.65h-2Zm2,2.37c.73,0,1.09-.29,1.09-.89s-.37-.86-1.09-.86h-1.37v1.75Zm-.09,2.6c1,0,1.39-.31,1.39-1s-.39-1-1.38-1h-1.29v2Z"/><path class="cls-19" d="M433.7,123.7h3.35v.62h-2.7v1.79h2.48v.59h-2.48v2h2.7v.62H433.7Z"/><path class="cls-19" d="M438.65,123.7h1.74c1.42,0,2.41,1,2.41,2.79,0,2-1,2.8-2.46,2.8h-1.69Zm1.65,5c1.14,0,1.84-.6,1.84-2.18,0-1.43-.7-2.17-1.79-2.17H439.3v4.35Z"/><path class="cls-19" d="M446.94,127l1.23,2.3h-.78L446.21,127h-1.12v2.27h-.66V123.7h2c1.17,0,1.87.62,1.87,1.65a1.54,1.54,0,0,1-1.4,1.62Zm-.52-.59c.82,0,1.25-.36,1.25-1.05s-.42-1-1.25-1h-1.33v2.08Z"/><path class="cls-19" d="M449.6,126.49c0-1.75.94-2.91,2.36-2.91s2.36,1.16,2.36,2.91-.95,2.92-2.36,2.92S449.6,128.25,449.6,126.49Zm4,0c0-1.41-.64-2.29-1.69-2.29s-1.7.88-1.7,2.29.65,2.3,1.7,2.3S453.65,127.91,453.65,126.49Z"/><path class="cls-19" d="M455.66,126.49c0-1.75.94-2.91,2.36-2.91s2.36,1.16,2.36,2.91-.95,2.92-2.36,2.92S455.66,128.25,455.66,126.49Zm4,0c0-1.41-.64-2.29-1.69-2.29s-1.7.88-1.7,2.29.65,2.3,1.7,2.3S459.71,127.91,459.71,126.49Z"/><path class="cls-19" d="M462,123.7h.88l1.81,4.44h0l1.81-4.44h.88v5.59h-.66v-4.54h0l-1.88,4.54h-.28l-1.89-4.54h0v4.54H462Z"/><path class="cls-19" d="M472.45,128.67h3v.62h-3.72v-.52a2,2,0,0,1,.24-1.07c.2-.37.54-.64,1.42-1.09,1.16-.6,1.49-.94,1.49-1.5s-.48-.91-1.16-.91a1.3,1.3,0,0,0-1.4,1.36l-.67-.06a1.93,1.93,0,0,1,2.07-1.92,1.68,1.68,0,0,1,1.83,1.53c0,.83-.42,1.31-1.65,1.94-.93.47-1.19.65-1.33.93A1.58,1.58,0,0,0,472.45,128.67Z"/><path class="cls-19" d="M427.73,133l-1.25.81v-.7l1.33-.86h.58v5.59h-.66Z"/><path class="cls-19" d="M431.17,133l-1.25.81v-.7l1.33-.86h.58v5.59h-.66Z"/><path class="cls-19" d="M433.79,132.2h.59V134h-.59Z"/><path class="cls-19" d="M435.51,134.6h2.09v.6h-2.09Z"/><path class="cls-19" d="M439.86,133l-1.25.81v-.7l1.33-.86h.59v5.59h-.67Z"/><path class="cls-19" d="M442.49,132.2h.58V134h-.58Zm1.05,0h.59V134h-.59Z"/><path class="cls-19" d="M447.83,136.35l1.31-1.29-1.31-1.3.39-.39,1.28,1.31,1.3-1.31.39.39-1.31,1.3,1.31,1.29-.39.4-1.3-1.32-1.28,1.32Z"/><path class="cls-19" d="M455.37,133l-1.25.81v-.7l1.33-.86H456v5.59h-.66Z"/><path class="cls-19" d="M458.49,137.17h3v.62h-3.72v-.52a2,2,0,0,1,.23-1.07c.2-.37.55-.64,1.42-1.09,1.16-.6,1.5-.94,1.5-1.5s-.49-.91-1.17-.91a1.31,1.31,0,0,0-1.4,1.36l-.66-.06a1.92,1.92,0,0,1,2.06-1.92,1.68,1.68,0,0,1,1.83,1.53c0,.83-.41,1.31-1.64,1.94-.94.47-1.2.65-1.34.93A1.58,1.58,0,0,0,458.49,137.17Z"/><path class="cls-19" d="M463.33,132.2h.59V134h-.59Z"/><path class="cls-19" d="M465.33,134.6h2.09v.6h-2.09Z"/><path class="cls-19" d="M468.86,135c0-1.81.9-2.91,2.22-2.91s2.21,1.1,2.21,2.91-.9,2.92-2.21,2.92S468.86,136.81,468.86,135Zm3.77,0c0-1.46-.62-2.29-1.55-2.29s-1.56.83-1.56,2.29.62,2.3,1.56,2.3S472.63,136.46,472.63,135Z"/><path class="cls-19" d="M474.81,132.2h.59V134h-.59Zm1.06,0h.58V134h-.58Z"/><path class="cls-19" d="M246.56,126h.66v5h2.52v.62h-3.18Z"/><path class="cls-19" d="M251.21,126h.66v5.59h-.66Z"/><path class="cls-19" d="M253.21,126h.69l1.66,4.72h0l1.67-4.72h.69l-2,5.59h-.7Z"/><path class="cls-19" d="M259.29,126h.65v5.59h-.65Z"/><path class="cls-19" d="M261.85,126h.78l2.54,4.56h0V126h.66v5.59h-.78L262.52,127h0v4.56h-.66Z"/><path class="cls-19" d="M267.48,128.79c0-1.78.93-2.92,2.36-2.92a2.08,2.08,0,0,1,2.13,1.84l-.66.12a1.43,1.43,0,0,0-1.47-1.34c-1,0-1.69.88-1.69,2.3s.64,2.29,1.69,2.29a1.43,1.43,0,0,0,1.5-1.64h-1.43v-.62H272v.57a2.08,2.08,0,0,1-2.14,2.31C268.41,131.7,267.48,130.56,267.48,128.79Z"/><path class="cls-19" d="M275.59,131.7l2.86-6,.45.2-2.87,6Z"/><path class="cls-19" d="M282.83,126h1.75c1.41,0,2.41,1,2.41,2.79,0,2-1,2.8-2.46,2.8h-1.7Zm1.66,5c1.13,0,1.84-.6,1.84-2.18,0-1.43-.71-2.17-1.79-2.17h-1.05V131Z"/><path class="cls-19" d="M288.63,126h.66v5.59h-.66Z"/><path class="cls-19" d="M291.2,126H292l2.55,4.56h0V126h.67v5.59h-.79L291.87,127h0v4.56h-.65Z"/><path class="cls-19" d="M297.12,126h.66v5.59h-.66Z"/><path class="cls-19" d="M299.69,126h.77l2.55,4.56h0V126h.66v5.59h-.78L300.36,127h0v4.56h-.65Z"/><path class="cls-19" d="M305.32,128.79c0-1.78.92-2.92,2.35-2.92a2.08,2.08,0,0,1,2.13,1.84l-.65.12a1.44,1.44,0,0,0-1.48-1.34c-1,0-1.69.88-1.69,2.3s.65,2.29,1.69,2.29a1.43,1.43,0,0,0,1.5-1.64h-1.42v-.62h2.07v.57a2.08,2.08,0,0,1-2.15,2.31C306.24,131.7,305.32,130.56,305.32,128.79Z"/><path class="cls-19" d="M316.49,129.28l1.23,2.3H317l-1.19-2.27h-1.12v2.27H314V126h2c1.16,0,1.86.62,1.86,1.65a1.55,1.55,0,0,1-1.4,1.63Zm-.52-.59c.82,0,1.26-.36,1.26-1s-.43-1-1.26-1h-1.33v2.08Z"/><path class="cls-19" d="M319.15,128.79c0-1.75,1-2.92,2.36-2.92s2.36,1.17,2.36,2.92-.94,2.91-2.36,2.91S319.15,130.54,319.15,128.79Zm4.06,0c0-1.42-.65-2.3-1.7-2.3s-1.69.88-1.69,2.3.64,2.29,1.69,2.29S323.21,130.2,323.21,128.79Z"/><path class="cls-19" d="M325.21,128.79c0-1.75,1-2.92,2.36-2.92s2.36,1.17,2.36,2.92-.94,2.91-2.36,2.91S325.21,130.54,325.21,128.79Zm4.06,0c0-1.42-.65-2.3-1.7-2.3s-1.69.88-1.69,2.3.64,2.29,1.69,2.29S329.27,130.2,329.27,128.79Z"/><path class="cls-19" d="M331.56,126h.88l1.82,4.44h0l1.82-4.44H337v5.59h-.67V127h0l-1.89,4.54h-.28L332.23,127h0v4.54h-.66Z"/><path class="cls-19" d="M265.91,135.24l-1.25.81v-.7l1.33-.86h.58v5.59h-.66Z"/><path class="cls-19" d="M269,139.46h3v.62h-3.72v-.52a2,2,0,0,1,.23-1.07c.2-.36.55-.64,1.43-1.09,1.16-.6,1.49-.94,1.49-1.5s-.49-.91-1.17-.91a1.29,1.29,0,0,0-1.39,1.36l-.67-.06a1.92,1.92,0,0,1,2.06-1.92,1.68,1.68,0,0,1,1.84,1.53c0,.83-.42,1.31-1.65,1.94-.94.47-1.19.65-1.34.93A1.61,1.61,0,0,0,269,139.46Z"/><path class="cls-19" d="M273.87,134.49h.59v1.78h-.59Z"/><path class="cls-19" d="M275.59,136.89h2.09v.6h-2.09Z"/><path class="cls-19" d="M279.94,135.24l-1.25.81v-.7l1.33-.86h.59v5.59h-.67Z"/><path class="cls-19" d="M283.38,135.24l-1.25.81v-.7l1.33-.86H284v5.59h-.66Z"/><path class="cls-19" d="M286,134.49h.58v1.78H286Zm1.05,0h.59v1.78h-.59Z"/><path class="cls-19" d="M291.34,138.65l1.31-1.3-1.31-1.3.39-.39L293,137l1.3-1.31.39.39-1.31,1.3,1.31,1.3-.39.39-1.3-1.31L291.73,139Z"/><path class="cls-19" d="M298.89,135.24l-1.25.81v-.7l1.33-.86h.58v5.59h-.66Z"/><path class="cls-19" d="M305.48,138.28a1.88,1.88,0,0,1-2,1.92c-1.46,0-2.29-1.09-2.29-2.83s1-3,2.32-3a1.81,1.81,0,0,1,1.87,1.49l-.63.15a1.18,1.18,0,0,0-1.23-1c-.92,0-1.6.87-1.65,2.22h0a1.89,1.89,0,0,1,1.68-.84A1.86,1.86,0,0,1,305.48,138.28Zm-.65,0a1.28,1.28,0,0,0-1.34-1.35,1.33,1.33,0,0,0-1.41,1.35,1.31,1.31,0,0,0,1.41,1.32A1.27,1.27,0,0,0,304.83,138.28Z"/><path class="cls-19" d="M307,134.49h.59v1.78H307Z"/><path class="cls-19" d="M309,136.89h2.09v.6H309Z"/><path class="cls-19" d="M314.4,135.13v0h-2.91v-.62h3.66v.57l-2.27,5h-.75Z"/><path class="cls-19" d="M316.77,134.49h.58v1.78h-.58Zm1.06,0h.58v1.78h-.58Z"/><path class="cls-19" d="M224.8,323.08l1.23,2.3h-.77l-1.19-2.27H223v2.27h-.65v-5.6h2a1.63,1.63,0,0,1,1.86,1.66,1.54,1.54,0,0,1-1.4,1.62Zm-.52-.6c.82,0,1.26-.36,1.26-1s-.43-1-1.26-1H223v2.07Z"/><path class="cls-19" d="M282.14,276.08l.65-.12a1.47,1.47,0,0,0,1.66,1.47c.77,0,1.28-.36,1.28-.91s-.37-.88-1.54-1.24c-1.34-.44-1.78-.84-1.78-1.59s.73-1.48,1.79-1.48a2,2,0,0,1,2,1.63l-.65.14a1.34,1.34,0,0,0-1.39-1.14c-.68,0-1.13.33-1.13.85s.32.67,1.35,1c1.45.47,2,.95,2,1.83s-.79,1.54-1.95,1.54A2.05,2.05,0,0,1,282.14,276.08Z"/><path class="cls-19" d="M287.47,275.13c0-1.75.95-2.92,2.36-2.92s2.36,1.17,2.36,2.92-.94,2.92-2.36,2.92S287.47,276.88,287.47,275.13Zm4.06,0c0-1.41-.65-2.29-1.7-2.29s-1.69.88-1.69,2.29.64,2.3,1.69,2.3S291.53,276.55,291.53,275.13Z"/><path class="cls-19" d="M437,173.59h.68l.82,4.55h0l1.38-4.55h.63l1.39,4.55h0l.83-4.55h.68l-1,5.59h-.8l-1.38-4.49h0l-1.37,4.49H438Z"/><path class="cls-19" d="M443.73,179.3l2.86-6,.45.2-2.87,6Z"/><path class="cls-19" d="M448.09,173.59h1.74c1.42,0,2.42,1,2.42,2.79,0,2-1,2.8-2.47,2.8h-1.69Zm1.65,5c1.14,0,1.84-.6,1.84-2.18,0-1.43-.7-2.17-1.79-2.17h-1.05v4.35Z"/><path class="cls-19" d="M282.26,220.81H284c1.42,0,2.41,1,2.41,2.79,0,2-1,2.81-2.46,2.81h-1.69Zm1.65,5c1.14,0,1.84-.6,1.84-2.18,0-1.43-.7-2.17-1.79-2.17h-1v4.35Z"/><path class="cls-19" d="M287.18,220.81h.68l.82,4.55h0l1.38-4.55h.63l1.39,4.55h0l.83-4.55h.68l-1,5.6h-.8l-1.38-4.5h0l-1.37,4.5h-.81Z"/><path class="cls-19" d="M315.67,307.67H319v.63h-2.71v2h2.48v.59h-2.48v2.38h-.66Z"/><path class="cls-19" d="M320.59,310.47c0-1.75,1-2.92,2.36-2.92s2.36,1.17,2.36,2.92-.94,2.92-2.36,2.92S320.59,312.22,320.59,310.47Zm4.06,0c0-1.41-.65-2.29-1.7-2.29s-1.69.88-1.69,2.29.64,2.3,1.69,2.3S324.65,311.89,324.65,310.47Z"/><path class="cls-19" d="M328.3,310.93l-2-3.26h.77l1.51,2.62h0l1.51-2.62h.77l-2,3.26v2.34h-.66Z"/><path class="cls-19" d="M332.57,307.67h3.36v.63h-2.71v1.79h2.48v.59h-2.48v2h2.71v.62h-3.36Z"/><path class="cls-19" d="M340.34,311l1.23,2.3h-.77L339.61,311H338.5v2.27h-.66v-5.6h2c1.17,0,1.86.63,1.86,1.66a1.54,1.54,0,0,1-1.4,1.62Zm-.52-.59c.83,0,1.26-.37,1.26-1.05s-.43-1-1.26-1H338.5v2.08Z"/><polygon class="cls-19" points="329.9 367.78 335.3 353.38 340.7 367.78 329.9 367.78"/></g></g></svg>