<svg xmlns="http://www.w3.org/2000/svg" viewBox="0 0 449.931 429.536"><title>Asset 13</title><g id="Layer_2" data-name="Layer 2"><g id="Unit5-10C_Hover"><g id="LWPOLYLINE"><path d="M261.7,39.575,229.989,51.118a33.759,33.759,0,0,1-2.035-11.543,33.759,33.759,0,0,1-2.035,11.543L194.2,39.575" style="fill:none;stroke:#000;stroke-linecap:round;stroke-linejoin:round;stroke-width:0.25px;stroke-dasharray:1.3229475021362305,1.3229475021362305"/></g><g id="LWPOLYLINE-2" data-name="LWPOLYLINE"><path d="M115.454,39.575,83.739,51.118A33.759,33.759,0,0,1,81.7,39.575a33.759,33.759,0,0,1-2.035,11.543L47.954,39.575" style="fill:none;stroke:#000;stroke-linecap:round;stroke-linejoin:round;stroke-width:0.25px;stroke-dasharray:1.3229475021362305,1.3229475021362305"/></g><g id="LWPOLYLINE-3" data-name="LWPOLYLINE"><path d="M407.954,17.075,376.239,28.618A33.759,33.759,0,0,1,374.2,17.075a33.736,33.736,0,0,1-2.036,11.543L340.454,17.075" style="fill:none;stroke:#000;stroke-linecap:round;stroke-linejoin:round;stroke-width:0.25px;stroke-dasharray:1.3229475021362305,1.3229475021362305"/></g><g id="LWPOLYLINE-4" data-name="LWPOLYLINE"><rect x="3.071" y="68" width="112.288" height="103.46" style="fill:#b4c0be;stroke:#000;stroke-linecap:round;stroke-linejoin:round;stroke-width:0.15px"/></g><g id="LWPOLYLINE-5" data-name="LWPOLYLINE"><rect x="320.766" y="55.637" width="121.24" height="97.939" style="fill:#b4c0be;stroke:#000;stroke-linecap:round;stroke-linejoin:round;stroke-width:0.15px"/></g><g id="LWPOLYLINE-6" data-name="LWPOLYLINE"><path d="M361.446,230.9a11.974,11.974,0,0,1,18.058,0l-1.06.924v10.9H362.506v-10.9Z" style="fill:#b4c0be;stroke:#000;stroke-linecap:round;stroke-linejoin:round;stroke-width:0.150000005960464px"/></g><g id="LWPOLYLINE-7" data-name="LWPOLYLINE"><path d="M338.946,230.9a11.974,11.974,0,0,1,18.058,0l-1.06.924v10.9H340.006v-10.9Z" style="fill:#b4c0be;stroke:#000;stroke-linecap:round;stroke-linejoin:round;stroke-width:0.150000005960464px"/></g><g id="LWPOLYLINE-8" data-name="LWPOLYLINE"><line x1="364.357" y1="230.15" x2="364.357" y2="242.73" style="fill:none;stroke:#000;stroke-linecap:round;stroke-linejoin:round;stroke-width:0.150000005960464px"/></g><g id="LWPOLYLINE-9" data-name="LWPOLYLINE"><line x1="376.593" y1="230.15" x2="376.593" y2="242.73" style="fill:none;stroke:#000;stroke-linecap:round;stroke-linejoin:round;stroke-width:0.150000005960464px"/></g><g id="LWPOLYLINE-10" data-name="LWPOLYLINE"><path d="M378.444,231.826a10.572,10.572,0,0,0-15.938,0" style="fill:none;stroke:#000;stroke-linecap:round;stroke-linejoin:round;stroke-width:0.150000005960464px"/></g><g id="LWPOLYLINE-11" data-name="LWPOLYLINE"><path d="M383.806,230.9a11.974,11.974,0,0,1,18.058,0l-1.06.924v10.9H384.867v-10.9Z" style="fill:#b4c0be;stroke:#000;stroke-linecap:round;stroke-linejoin:round;stroke-width:0.150000005960464px"/></g><g id="LWPOLYLINE-12" data-name="LWPOLYLINE"><line x1="386.718" y1="230.15" x2="386.718" y2="242.73" style="fill:none;stroke:#000;stroke-linecap:round;stroke-linejoin:round;stroke-width:0.150000005960464px"/></g><g id="LWPOLYLINE-13" data-name="LWPOLYLINE"><line x1="398.953" y1="230.15" x2="398.953" y2="242.73" style="fill:none;stroke:#000;stroke-linecap:round;stroke-linejoin:round;stroke-width:0.150000005960464px"/></g><g id="LWPOLYLINE-14" data-name="LWPOLYLINE"><path d="M400.8,231.826A10.567,10.567,0,0,0,385.9,230.8a10.391,10.391,0,0,0-1.028,1.028" style="fill:none;stroke:#000;stroke-linecap:round;stroke-linejoin:round;stroke-width:0.150000005960464px"/></g><g id="LWPOLYLINE-15" data-name="LWPOLYLINE"><line x1="341.857" y1="230.15" x2="341.857" y2="242.73" style="fill:none;stroke:#000;stroke-linecap:round;stroke-linejoin:round;stroke-width:0.150000005960464px"/></g><g id="LWPOLYLINE-16" data-name="LWPOLYLINE"><line x1="354.093" y1="230.15" x2="354.093" y2="242.73" style="fill:none;stroke:#000;stroke-linecap:round;stroke-linejoin:round;stroke-width:0.150000005960464px"/></g><g id="LWPOLYLINE-17" data-name="LWPOLYLINE"><path d="M355.944,231.826a10.572,10.572,0,0,0-15.938,0" style="fill:none;stroke:#000;stroke-linecap:round;stroke-linejoin:round;stroke-width:0.150000005960464px"/></g><g id="LWPOLYLINE-18" data-name="LWPOLYLINE"><polygon points="377.858 62.344 378.695 32.341 405.414 32.251 406.452 62.248 377.858 62.344" style="fill:#b4c0be;stroke:#000;stroke-linecap:round;stroke-linejoin:round;stroke-width:0.150000005960464px"/></g><g id="LWPOLYLINE-19" data-name="LWPOLYLINE"><polygon points="333.609 62.344 334.446 32.341 361.165 32.251 362.203 62.248 333.609 62.344" style="fill:#b4c0be;stroke:#000;stroke-linecap:round;stroke-linejoin:round;stroke-width:0.150000005960464px"/></g><g id="CIRCLE"><path d="M364.885,46.247a5.145,5.145,0,1,1,5.145,5.145,5.146,5.146,0,0,1-5.145-5.145Z" style="fill:#b4c0be;stroke:#000;stroke-linecap:round;stroke-linejoin:round;stroke-width:0.150000005960464px"/></g><g id="LWPOLYLINE-20" data-name="LWPOLYLINE"><rect x="139.712" y="92.368" width="15" height="56.25" style="fill:#b4c0be;stroke:#000;stroke-linecap:round;stroke-linejoin:round;stroke-width:0.150000005960464px"/></g><g id="LWPOLYLINE-21" data-name="LWPOLYLINE"><rect x="160.454" y="85.454" width="15" height="56.25" style="fill:#b4c0be;stroke:#000;stroke-linecap:round;stroke-linejoin:round;stroke-width:0.150000005960464px"/></g><g id="LWPOLYLINE-22" data-name="LWPOLYLINE"><rect x="362.029" y="88.491" width="32.83" height="34.018" style="fill:#b4c0be;stroke:#000;stroke-linecap:round;stroke-linejoin:round;stroke-width:0.150000005960464px"/></g><g id="LWPOLYLINE-23" data-name="LWPOLYLINE"><rect x="327.045" y="78.479" width="16.875" height="53.438" rx="1.875" style="fill:#b4c0be;stroke:#000;stroke-linecap:round;stroke-linejoin:round;stroke-width:0.150000005960464px"/></g><g id="CIRCLE-2" data-name="CIRCLE"><path d="M330.8,109.416a.469.469,0,1,1,.468.469.468.468,0,0,1-.468-.469Z" style="fill:#b4c0be;stroke:#000;stroke-linecap:round;stroke-linejoin:round;stroke-width:0.150000005960464px"/></g><g id="CIRCLE-3" data-name="CIRCLE"><path d="M339.232,109.416a.469.469,0,1,1,.469.469.469.469,0,0,1-.469-.469Z" style="fill:#b4c0be;stroke:#000;stroke-linecap:round;stroke-linejoin:round;stroke-width:0.150000005960464px"/></g><g id="CIRCLE-4" data-name="CIRCLE"><path d="M330.8,100.979a.469.469,0,1,1,.468.469.468.468,0,0,1-.468-.469Z" style="fill:#b4c0be;stroke:#000;stroke-linecap:round;stroke-linejoin:round;stroke-width:0.150000005960464px"/></g><g id="CIRCLE-5" data-name="CIRCLE"><path d="M339.232,100.979a.469.469,0,1,1,.469.469.469.469,0,0,1-.469-.469Z" style="fill:#b4c0be;stroke:#000;stroke-linecap:round;stroke-linejoin:round;stroke-width:0.150000005960464px"/></g><g id="CIRCLE-6" data-name="CIRCLE"><path d="M330.8,92.541a.469.469,0,1,1,.468.469.468.468,0,0,1-.468-.469Z" style="fill:#b4c0be;stroke:#000;stroke-linecap:round;stroke-linejoin:round;stroke-width:0.150000005960464px"/></g><g id="CIRCLE-7" data-name="CIRCLE"><path d="M339.232,92.541a.469.469,0,1,1,.469.469.469.469,0,0,1-.469-.469Z" style="fill:#b4c0be;stroke:#000;stroke-linecap:round;stroke-linejoin:round;stroke-width:0.150000005960464px"/></g><g id="CIRCLE-8" data-name="CIRCLE"><path d="M330.8,84.1a.469.469,0,1,1,.468.469.468.468,0,0,1-.468-.469Z" style="fill:#b4c0be;stroke:#000;stroke-linecap:round;stroke-linejoin:round;stroke-width:0.150000005960464px"/></g><g id="CIRCLE-9" data-name="CIRCLE"><path d="M339.232,84.1a.469.469,0,1,1,.469.469.469.469,0,0,1-.469-.469Z" style="fill:#b4c0be;stroke:#000;stroke-linecap:round;stroke-linejoin:round;stroke-width:0.150000005960464px"/></g><g id="CIRCLE-10" data-name="CIRCLE"><path d="M330.8,117.854a.469.469,0,1,1,.468.469.468.468,0,0,1-.468-.469Z" style="fill:#b4c0be;stroke:#000;stroke-linecap:round;stroke-linejoin:round;stroke-width:0.150000005960464px"/></g><g id="CIRCLE-11" data-name="CIRCLE"><path d="M339.232,117.854a.469.469,0,1,1,.469.469.469.469,0,0,1-.469-.469Z" style="fill:#b4c0be;stroke:#000;stroke-linecap:round;stroke-linejoin:round;stroke-width:0.150000005960464px"/></g><g id="CIRCLE-12" data-name="CIRCLE"><path d="M330.8,126.291a.469.469,0,1,1,.468.469.468.468,0,0,1-.468-.469Z" style="fill:#b4c0be;stroke:#000;stroke-linecap:round;stroke-linejoin:round;stroke-width:0.150000005960464px"/></g><g id="CIRCLE-13" data-name="CIRCLE"><path d="M339.232,126.291a.469.469,0,1,1,.469.469.469.469,0,0,1-.469-.469Z" style="fill:#b4c0be;stroke:#000;stroke-linecap:round;stroke-linejoin:round;stroke-width:0.150000005960464px"/></g><g id="CIRCLE-14" data-name="CIRCLE"><path d="M330.8,109.416a.469.469,0,1,1,.468.469.468.468,0,0,1-.468-.469Z" style="fill:#b4c0be;stroke:#000;stroke-linecap:round;stroke-linejoin:round;stroke-width:0.150000005960464px"/></g><g id="CIRCLE-15" data-name="CIRCLE"><path d="M339.232,109.416a.469.469,0,1,1,.469.469.469.469,0,0,1-.469-.469Z" style="fill:#b4c0be;stroke:#000;stroke-linecap:round;stroke-linejoin:round;stroke-width:0.150000005960464px"/></g><g id="CIRCLE-16" data-name="CIRCLE"><path d="M330.8,100.979a.469.469,0,1,1,.468.469.468.468,0,0,1-.468-.469Z" style="fill:#b4c0be;stroke:#000;stroke-linecap:round;stroke-linejoin:round;stroke-width:0.150000005960464px"/></g><g id="CIRCLE-17" data-name="CIRCLE"><path d="M339.232,100.979a.469.469,0,1,1,.469.469.469.469,0,0,1-.469-.469Z" style="fill:#b4c0be;stroke:#000;stroke-linecap:round;stroke-linejoin:round;stroke-width:0.150000005960464px"/></g><g id="CIRCLE-18" data-name="CIRCLE"><path d="M330.8,92.541a.469.469,0,1,1,.468.469.468.468,0,0,1-.468-.469Z" style="fill:#b4c0be;stroke:#000;stroke-linecap:round;stroke-linejoin:round;stroke-width:0.150000005960464px"/></g><g id="CIRCLE-19" data-name="CIRCLE"><path d="M339.232,92.541a.469.469,0,1,1,.469.469.469.469,0,0,1-.469-.469Z" style="fill:#b4c0be;stroke:#000;stroke-linecap:round;stroke-linejoin:round;stroke-width:0.150000005960464px"/></g><g id="CIRCLE-20" data-name="CIRCLE"><path d="M330.8,84.1a.469.469,0,1,1,.468.469.468.468,0,0,1-.468-.469Z" style="fill:#b4c0be;stroke:#000;stroke-linecap:round;stroke-linejoin:round;stroke-width:0.150000005960464px"/></g><g id="CIRCLE-21" data-name="CIRCLE"><path d="M339.232,84.1a.469.469,0,1,1,.469.469.469.469,0,0,1-.469-.469Z" style="fill:#b4c0be;stroke:#000;stroke-linecap:round;stroke-linejoin:round;stroke-width:0.150000005960464px"/></g><g id="CIRCLE-22" data-name="CIRCLE"><path d="M330.8,117.854a.469.469,0,1,1,.468.469.468.468,0,0,1-.468-.469Z" style="fill:#b4c0be;stroke:#000;stroke-linecap:round;stroke-linejoin:round;stroke-width:0.150000005960464px"/></g><g id="CIRCLE-23" data-name="CIRCLE"><path d="M339.232,117.854a.469.469,0,1,1,.469.469.469.469,0,0,1-.469-.469Z" style="fill:#b4c0be;stroke:#000;stroke-linecap:round;stroke-linejoin:round;stroke-width:0.150000005960464px"/></g><g id="CIRCLE-24" data-name="CIRCLE"><path d="M330.8,126.291a.469.469,0,1,1,.468.469.468.468,0,0,1-.468-.469Z" style="fill:#b4c0be;stroke:#000;stroke-linecap:round;stroke-linejoin:round;stroke-width:0.150000005960464px"/></g><g id="CIRCLE-25" data-name="CIRCLE"><path d="M339.232,126.291a.469.469,0,1,1,.469.469.469.469,0,0,1-.469-.469Z" style="fill:#b4c0be;stroke:#000;stroke-linecap:round;stroke-linejoin:round;stroke-width:0.150000005960464px"/></g><g id="LINE"><line x1="381.844" y1="62.33" x2="382.681" y2="32.327" style="fill:none;stroke:#000;stroke-linecap:round;stroke-linejoin:round;stroke-width:0.150000005960464px"/></g><g id="LINE-2" data-name="LINE"><line x1="382.571" y1="36.547" x2="401.566" y2="36.483" style="fill:none;stroke:#000;stroke-linecap:round;stroke-linejoin:round;stroke-width:0.150000005960464px"/></g><g id="LINE-3" data-name="LINE"><line x1="401.427" y1="32.265" x2="402.465" y2="62.261" style="fill:none;stroke:#000;stroke-linecap:round;stroke-linejoin:round;stroke-width:0.150000005960464px"/></g><g id="LINE-4" data-name="LINE"><line x1="337.595" y1="62.33" x2="338.432" y2="32.327" style="fill:none;stroke:#000;stroke-linecap:round;stroke-linejoin:round;stroke-width:0.150000005960464px"/></g><g id="LINE-5" data-name="LINE"><line x1="338.322" y1="36.547" x2="357.317" y2="36.483" style="fill:none;stroke:#000;stroke-linecap:round;stroke-linejoin:round;stroke-width:0.150000005960464px"/></g><g id="LINE-6" data-name="LINE"><line x1="357.178" y1="32.265" x2="358.216" y2="62.261" style="fill:none;stroke:#000;stroke-linecap:round;stroke-linejoin:round;stroke-width:0.150000005960464px"/></g><g id="LWPOLYLINE-24" data-name="LWPOLYLINE"><rect x="3.057" y="84.868" width="80.625" height="71.25" style="fill:#b4c0be;stroke:#000;stroke-linecap:round;stroke-linejoin:round;stroke-width:0.150000005960464px"/></g><g id="LWPOLYLINE-25" data-name="LWPOLYLINE"><rect x="3.057" y="158.11" width="15.937" height="20.156" style="fill:#b4c0be;stroke:#000;stroke-linecap:round;stroke-linejoin:round;stroke-width:0.150000005960464px"/></g><g id="LWPOLYLINE-26" data-name="LWPOLYLINE"><rect x="3.057" y="62.72" width="15.937" height="20.156" style="fill:#b4c0be;stroke:#000;stroke-linecap:round;stroke-linejoin:round;stroke-width:0.150000005960464px"/></g><g id="LWPOLYLINE-27" data-name="LWPOLYLINE"><rect x="8.412" y="121.767" width="14.683" height="31.809" style="fill:none;stroke:#000;stroke-linecap:round;stroke-linejoin:round;stroke-width:0.150000005960464px"/></g><g id="LINE-7" data-name="LINE"><line x1="5.87" y1="84.868" x2="5.87" y2="156.118" style="fill:none;stroke:#000;stroke-linecap:round;stroke-linejoin:round;stroke-width:0.150000005960464px"/></g><g id="LINE-8" data-name="LINE"><line x1="80.87" y1="84.868" x2="80.87" y2="156.118" style="fill:none;stroke:#000;stroke-linecap:round;stroke-linejoin:round;stroke-width:0.150000005960464px"/></g><g id="LWPOLYLINE-28" data-name="LWPOLYLINE"><rect x="8.412" y="87.41" width="14.683" height="31.809" style="fill:none;stroke:#000;stroke-linecap:round;stroke-linejoin:round;stroke-width:0.150000005960464px"/></g><g id="LWPOLYLINE-29" data-name="LWPOLYLINE"><rect x="267.095" y="59.094" width="16.875" height="22.5" style="fill:#b4c0be;stroke:#000;stroke-linecap:round;stroke-linejoin:round;stroke-width:0.150000005960464px"/></g><g id="LWPOLYLINE-30" data-name="LWPOLYLINE"><rect x="267.095" y="145.344" width="16.875" height="22.5" style="fill:#b4c0be;stroke:#000;stroke-linecap:round;stroke-linejoin:round;stroke-width:0.150000005960464px"/></g><g id="LWPOLYLINE-31" data-name="LWPOLYLINE"><rect x="203.345" y="85.344" width="80.625" height="56.25" style="fill:#b4c0be;stroke:#000;stroke-linecap:round;stroke-linejoin:round;stroke-width:0.150000005960464px"/></g><g id="LINE-9" data-name="LINE"><line x1="281.157" y1="85.344" x2="281.157" y2="141.594" style="fill:none;stroke:#000;stroke-linecap:round;stroke-linejoin:round;stroke-width:0.150000005960464px"/></g><g id="LINE-10" data-name="LINE"><line x1="206.157" y1="85.344" x2="206.157" y2="141.594" style="fill:none;stroke:#000;stroke-linecap:round;stroke-linejoin:round;stroke-width:0.150000005960464px"/></g><g id="LWPOLYLINE-32" data-name="LWPOLYLINE"><rect x="263.932" y="114.743" width="14.683" height="24.309" style="fill:none;stroke:#000;stroke-linecap:round;stroke-linejoin:round;stroke-width:0.150000005960464px"/></g><g id="LWPOLYLINE-33" data-name="LWPOLYLINE"><rect x="263.932" y="87.886" width="14.683" height="24.309" style="fill:none;stroke:#000;stroke-linecap:round;stroke-linejoin:round;stroke-width:0.150000005960464px"/></g><g id="LWPOLYLINE-34" data-name="LWPOLYLINE"><path d="M347.764,178.3v17.812l-5.813-.29a3.75,3.75,0,0,1-3.562-3.746v-9.74a3.75,3.75,0,0,1,3.562-3.746Z" style="fill:#b4c0be;stroke:#000;stroke-linecap:round;stroke-linejoin:round;stroke-width:0.150000005960464px"/></g><g id="LWPOLYLINE-35" data-name="LWPOLYLINE"><path d="M396.526,196.329V178.516l5.812.291a3.749,3.749,0,0,1,3.563,3.745v9.741a3.75,3.75,0,0,1-3.563,3.745Z" style="fill:#b4c0be;stroke:#000;stroke-linecap:round;stroke-linejoin:round;stroke-width:0.150000005960464px"/></g><g id="LWPOLYLINE-36" data-name="LWPOLYLINE"><path d="M349.873,176.889h17.812l-.29-5.812a3.75,3.75,0,0,0-3.746-3.563h-9.74a3.749,3.749,0,0,0-3.745,3.563Z" style="fill:#b4c0be;stroke:#000;stroke-linecap:round;stroke-linejoin:round;stroke-width:0.150000005960464px"/></g><g id="LWPOLYLINE-37" data-name="LWPOLYLINE"><path d="M375.654,176.889h17.813l-.291-5.812a3.75,3.75,0,0,0-3.745-3.563H379.69a3.75,3.75,0,0,0-3.745,3.563Z" style="fill:#b4c0be;stroke:#000;stroke-linecap:round;stroke-linejoin:round;stroke-width:0.150000005960464px"/></g><g id="LWPOLYLINE-38" data-name="LWPOLYLINE"><path d="M393.467,196.935H375.654l.291,5.812a3.75,3.75,0,0,0,3.745,3.563h9.741a3.75,3.75,0,0,0,3.745-3.563Z" style="fill:#b4c0be;stroke:#000;stroke-linecap:round;stroke-linejoin:round;stroke-width:0.150000005960464px"/></g><g id="LWPOLYLINE-39" data-name="LWPOLYLINE"><path d="M367.685,196.935H349.873l.291,5.812a3.749,3.749,0,0,0,3.745,3.563h9.74a3.75,3.75,0,0,0,3.746-3.563Z" style="fill:#b4c0be;stroke:#000;stroke-linecap:round;stroke-linejoin:round;stroke-width:0.150000005960464px"/></g><g id="LWPOLYLINE-40" data-name="LWPOLYLINE"><path d="M347.764,194.7l-5.742-.287a2.343,2.343,0,0,1-2.227-2.341v-9.74a2.343,2.343,0,0,1,2.227-2.341l5.742-.287" style="fill:none;stroke:#000;stroke-linecap:round;stroke-linejoin:round;stroke-width:0.150000005960464px"/></g><g id="LWPOLYLINE-41" data-name="LWPOLYLINE"><path d="M396.526,179.924l5.742.287a2.345,2.345,0,0,1,2.227,2.341v9.741a2.343,2.343,0,0,1-2.227,2.34l-5.742.288" style="fill:none;stroke:#000;stroke-linecap:round;stroke-linejoin:round;stroke-width:0.150000005960464px"/></g><g id="LWPOLYLINE-42" data-name="LWPOLYLINE"><path d="M366.277,176.889l-.287-5.742a2.343,2.343,0,0,0-2.341-2.226h-9.74a2.343,2.343,0,0,0-2.341,2.226l-.287,5.742" style="fill:none;stroke:#000;stroke-linecap:round;stroke-linejoin:round;stroke-width:0.150000005960464px"/></g><g id="LWPOLYLINE-43" data-name="LWPOLYLINE"><path d="M392.155,177.124l-.287-5.742a2.344,2.344,0,0,0-2.341-2.227h-9.741a2.344,2.344,0,0,0-2.341,2.227l-.287,5.742" style="fill:none;stroke:#000;stroke-linecap:round;stroke-linejoin:round;stroke-width:0.150000005960464px"/></g><g id="LWPOLYLINE-44" data-name="LWPOLYLINE"><path d="M377.062,196.935l.287,5.742a2.344,2.344,0,0,0,2.341,2.226h9.741a2.344,2.344,0,0,0,2.341-2.226l.287-5.742" style="fill:none;stroke:#000;stroke-linecap:round;stroke-linejoin:round;stroke-width:0.150000005960464px"/></g><g id="LWPOLYLINE-45" data-name="LWPOLYLINE"><path d="M351.185,196.7l.287,5.742a2.343,2.343,0,0,0,2.341,2.227h9.74a2.343,2.343,0,0,0,2.341-2.227l.287-5.742" style="fill:none;stroke:#000;stroke-linecap:round;stroke-linejoin:round;stroke-width:0.150000005960464px"/></g><g id="LWPOLYLINE-46" data-name="LWPOLYLINE"><rect x="344.014" y="173.139" width="56.25" height="28.125" style="fill:#b4c0be;stroke:#000;stroke-linecap:round;stroke-linejoin:round;stroke-width:0.150000005960464px"/></g><g id="LWPOLYLINE-47" data-name="LWPOLYLINE"><polygon points="129.359 88.813 128.635 86.608 128.284 86.724 127.699 86.702 127.269 86.306 126.495 84.526 125.859 83.084 125.358 81.81 124.736 80.107 124.215 78.537 124.002 77.908 123.854 77.391 123.66 76.733 123.45 75.989 122.994 74.243 122.611 72.597 122.34 71.294 122.452 70.72 122.91 70.357 123.261 70.241 122.34 67.435 143.918 60.351 150.937 81.728 129.359 88.813" style="fill:#b4c0be;stroke:#000;stroke-linecap:round;stroke-linejoin:round;stroke-width:0.150000005960464px"/></g><g id="LINE-12" data-name="LINE"><line x1="144.839" y1="63.156" x2="123.268" y2="70.244" style="fill:none;stroke:#000;stroke-linecap:round;stroke-linejoin:round;stroke-width:0.150000005960464px"/></g><g id="LINE-13" data-name="LINE"><line x1="128.635" y1="86.608" x2="150.213" y2="79.523" style="fill:none;stroke:#000;stroke-linecap:round;stroke-linejoin:round;stroke-width:0.150000005960464px"/></g><g id="ARC"><path d="M140.03,64.736A40.157,40.157,0,0,0,145.4,81.1" style="fill:none;stroke:#000;stroke-linecap:round;stroke-linejoin:round;stroke-width:0.150000005960464px"/></g><g id="ARC-2" data-name="ARC"><path d="M143.236,63.683A101.154,101.154,0,0,0,148.61,80.05" style="fill:none;stroke:#000;stroke-linecap:round;stroke-linejoin:round;stroke-width:0.150000005960464px"/></g><rect x="413.579" y="62.124" width="33.75" height="84.375" style="fill:#b4c0be;stroke:#000;stroke-linecap:round;stroke-linejoin:round;stroke-width:0.150000005960464px"/><g id="LINE-14" data-name="LINE"><line x1="442.641" y1="91.811" x2="414.561" y2="91.811" style="fill:none;stroke:#000;stroke-linecap:round;stroke-linejoin:round;stroke-width:0.150000005960464px"/></g><g id="LWPOLYLINE-48" data-name="LWPOLYLINE"><polyline points="413.579 141.811 442.641 141.811 442.641 66.811 413.579 66.811" style="fill:none;stroke:#000;stroke-linecap:round;stroke-linejoin:round;stroke-width:0.150000005960464px"/></g><g id="ARC-3" data-name="ARC"><path d="M438.148,67.749a59.552,59.552,0,0,0,0,23.125" style="fill:none;stroke:#000;stroke-linecap:round;stroke-linejoin:round;stroke-width:0.150000005960464px"/></g><g id="ARC-4" data-name="ARC"><path d="M438.148,90.874a1.223,1.223,0,0,0,.981.937" style="fill:none;stroke:#000;stroke-linecap:round;stroke-linejoin:round;stroke-width:0.150000005960464px"/></g><g id="ARC-5" data-name="ARC"><path d="M439.129,66.811a1.224,1.224,0,0,0-.981.938" style="fill:none;stroke:#000;stroke-linecap:round;stroke-linejoin:round;stroke-width:0.150000005960464px"/></g><g id="ARC-6" data-name="ARC"><path d="M439.129,91.811a1.224,1.224,0,0,0-.981.938" style="fill:none;stroke:#000;stroke-linecap:round;stroke-linejoin:round;stroke-width:0.150000005960464px"/></g><g id="ARC-7" data-name="ARC"><path d="M438.148,140.874a1.223,1.223,0,0,0,.981.937" style="fill:none;stroke:#000;stroke-linecap:round;stroke-linejoin:round;stroke-width:0.150000005960464px"/></g><g id="ARC-8" data-name="ARC"><path d="M413.579,90.874a1.223,1.223,0,0,0,.982.937" style="fill:none;stroke:#000;stroke-linecap:round;stroke-linejoin:round;stroke-width:0.150000005960464px"/></g><g id="ARC-9" data-name="ARC"><path d="M414.561,91.811a1.224,1.224,0,0,0-.982.938" style="fill:none;stroke:#000;stroke-linecap:round;stroke-linejoin:round;stroke-width:0.150000005960464px"/></g><g id="ARC-10" data-name="ARC"><path d="M414.561,66.811a1.224,1.224,0,0,0-.982.938" style="fill:none;stroke:#000;stroke-linecap:round;stroke-linejoin:round;stroke-width:0.150000005960464px"/></g><g id="ARC-11" data-name="ARC"><path d="M413.579,140.874a1.223,1.223,0,0,0,.982.937" style="fill:none;stroke:#000;stroke-linecap:round;stroke-linejoin:round;stroke-width:0.150000005960464px"/></g><g id="LINE-15" data-name="LINE"><line x1="442.641" y1="116.811" x2="414.561" y2="116.811" style="fill:none;stroke:#000;stroke-linecap:round;stroke-linejoin:round;stroke-width:0.150000005960464px"/></g><g id="ARC-12" data-name="ARC"><path d="M438.148,117.749a59.552,59.552,0,0,0,0,23.125" style="fill:none;stroke:#000;stroke-linecap:round;stroke-linejoin:round;stroke-width:0.150000005960464px"/></g><g id="ARC-13" data-name="ARC"><path d="M439.129,116.811a1.224,1.224,0,0,0-.981.938" style="fill:none;stroke:#000;stroke-linecap:round;stroke-linejoin:round;stroke-width:0.150000005960464px"/></g><g id="ARC-14" data-name="ARC"><path d="M438.148,115.874a1.223,1.223,0,0,0,.981.937" style="fill:none;stroke:#000;stroke-linecap:round;stroke-linejoin:round;stroke-width:0.150000005960464px"/></g><g id="ARC-15" data-name="ARC"><path d="M414.561,116.811a1.224,1.224,0,0,0-.982.938" style="fill:none;stroke:#000;stroke-linecap:round;stroke-linejoin:round;stroke-width:0.150000005960464px"/></g><g id="ARC-16" data-name="ARC"><path d="M413.579,115.874a1.223,1.223,0,0,0,.982.937" style="fill:none;stroke:#000;stroke-linecap:round;stroke-linejoin:round;stroke-width:0.150000005960464px"/></g><g id="ARC-17" data-name="ARC"><path d="M438.148,92.749a59.552,59.552,0,0,0,0,23.125" style="fill:none;stroke:#000;stroke-linecap:round;stroke-linejoin:round;stroke-width:0.150000005960464px"/></g><g id="ARC-18" data-name="ARC"><path d="M438.148,90.874a1.223,1.223,0,0,0,.981.937" style="fill:none;stroke:#000;stroke-linecap:round;stroke-linejoin:round;stroke-width:0.150000005960464px"/></g><g id="ARC-19" data-name="ARC"><path d="M439.129,66.811a1.224,1.224,0,0,0-.981.938" style="fill:none;stroke:#000;stroke-linecap:round;stroke-linejoin:round;stroke-width:0.150000005960464px"/></g><g id="ARC-20" data-name="ARC"><path d="M439.129,91.811a1.224,1.224,0,0,0-.981.938" style="fill:none;stroke:#000;stroke-linecap:round;stroke-linejoin:round;stroke-width:0.150000005960464px"/></g><g id="ARC-21" data-name="ARC"><path d="M438.148,140.874a1.223,1.223,0,0,0,.981.937" style="fill:none;stroke:#000;stroke-linecap:round;stroke-linejoin:round;stroke-width:0.150000005960464px"/></g><g id="ARC-22" data-name="ARC"><path d="M413.579,90.874a1.223,1.223,0,0,0,.982.937" style="fill:none;stroke:#000;stroke-linecap:round;stroke-linejoin:round;stroke-width:0.150000005960464px"/></g><g id="ARC-23" data-name="ARC"><path d="M414.561,91.811a1.224,1.224,0,0,0-.982.938" style="fill:none;stroke:#000;stroke-linecap:round;stroke-linejoin:round;stroke-width:0.150000005960464px"/></g><g id="ARC-24" data-name="ARC"><path d="M414.561,66.811a1.224,1.224,0,0,0-.982.938" style="fill:none;stroke:#000;stroke-linecap:round;stroke-linejoin:round;stroke-width:0.150000005960464px"/></g><g id="ARC-25" data-name="ARC"><path d="M413.579,140.874a1.223,1.223,0,0,0,.982.937" style="fill:none;stroke:#000;stroke-linecap:round;stroke-linejoin:round;stroke-width:0.150000005960464px"/></g><g id="ARC-26" data-name="ARC"><path d="M439.129,116.811a1.224,1.224,0,0,0-.981.938" style="fill:none;stroke:#000;stroke-linecap:round;stroke-linejoin:round;stroke-width:0.150000005960464px"/></g><g id="ARC-27" data-name="ARC"><path d="M438.148,115.874a1.223,1.223,0,0,0,.981.937" style="fill:none;stroke:#000;stroke-linecap:round;stroke-linejoin:round;stroke-width:0.150000005960464px"/></g><g id="ARC-28" data-name="ARC"><path d="M414.561,116.811a1.224,1.224,0,0,0-.982.938" style="fill:none;stroke:#000;stroke-linecap:round;stroke-linejoin:round;stroke-width:0.150000005960464px"/></g><g id="ARC-29" data-name="ARC"><path d="M413.579,115.874a1.223,1.223,0,0,0,.982.937" style="fill:none;stroke:#000;stroke-linecap:round;stroke-linejoin:round;stroke-width:0.150000005960464px"/></g><path d="M432.633,72.538s-5.273-6.856-7.934-5.565,7.24,10.459,7.24,10.459,3.9,3.983,4.644,1.994S432.633,72.538,432.633,72.538Z" style="fill:#b4c0be;stroke:#000;stroke-miterlimit:10;stroke-width:0.150000005960464px"/><path d="M430.884,84.511s4.369,7.078,6.289,5.764-3.557-9.441-3.557-9.441-3.833-7.574-5.707-5.536S430.884,84.511,430.884,84.511Z" style="fill:#b4c0be;stroke:#000;stroke-miterlimit:10;stroke-width:0.150000005960464px"/><path d="M436.278,125.435s-3.618.744-5.2,8.339-1.116,7.676-.31,8.009,4.2-2.243,5.221-9.2S437.534,125.75,436.278,125.435Z" style="fill:#b4c0be;stroke:#000;stroke-miterlimit:10;stroke-width:0.150000005960464px"/><g id="LWPOLYLINE-49" data-name="LWPOLYLINE"><rect x="287.301" y="77.375" width="15" height="56.25" style="fill:#b4c0be;stroke:#000;stroke-linecap:round;stroke-linejoin:round;stroke-width:0.150000005960464px"/></g><rect x="268.426" y="103.987" width="44.903" height="1.758" transform="translate(186.011 395.743) rotate(-90)" style="fill:#b4c0be;stroke:#000;stroke-linecap:round;stroke-linejoin:round;stroke-width:0.150000005960464px"/><line x1="25.541" y1="156.118" x2="25.541" y2="84.868" style="fill:none;stroke:#000;stroke-linecap:round;stroke-linejoin:round;stroke-width:0.150000005960464px"/><line x1="27.971" y1="156.118" x2="27.971" y2="84.868" style="fill:none;stroke:#000;stroke-linecap:round;stroke-linejoin:round;stroke-width:0.150000005960464px"/><g id="LWPOLYLINE-50" data-name="LWPOLYLINE"><path d="M90.229,152.543H87.1a2.813,2.813,0,0,1-2.813-2.813v-60A2.812,2.812,0,0,1,87.1,86.918h3.134a3.75,3.75,0,0,1,2.651,1.1l3.429,3.428a3.75,3.75,0,0,1,1.1,2.652v51.268a3.75,3.75,0,0,1-1.1,2.652l-3.429,3.428A3.751,3.751,0,0,1,90.229,152.543Z" style="fill:#b4c0be;stroke:#000;stroke-linecap:round;stroke-linejoin:round;stroke-width:0.150000005960464px"/></g><line x1="261.369" y1="85.344" x2="261.369" y2="141.594" style="fill:none;stroke:#000;stroke-linecap:round;stroke-linejoin:round;stroke-width:0.150000005960464px"/><line x1="258.939" y1="85.344" x2="258.939" y2="141.594" style="fill:none;stroke:#000;stroke-linecap:round;stroke-linejoin:round;stroke-width:0.150000005960464px"/><g id="LWPOLYLINE-51" data-name="LWPOLYLINE"><polyline points="137.954 39.575 137.954 45.2 25.454 45.2 25.454 39.575" style="fill:none;stroke:#000;stroke-linecap:round;stroke-linejoin:round;stroke-width:0.4px"/></g><g id="LWPOLYLINE-52" data-name="LWPOLYLINE"><polyline points="430.454 17.075 430.454 22.7 317.954 22.7 317.954 17.075" style="fill:none;stroke:#000;stroke-linecap:round;stroke-linejoin:round;stroke-width:0.4px"/></g><g id="LWPOLYLINE-53" data-name="LWPOLYLINE"><polyline points="284.204 39.575 284.204 45.2 171.704 45.2 171.704 39.575" style="fill:none;stroke:#000;stroke-linecap:round;stroke-linejoin:round;stroke-width:0.4px"/></g><g id="LWPOLYLINE-54" data-name="LWPOLYLINE"><polygon points="47.485 35.825 46.548 35.825 29.204 35.825 28.266 35.825 28.266 37.055 46.548 37.055 47.485 37.055 47.485 35.825" style="fill:none;stroke:#000;stroke-linecap:round;stroke-linejoin:round;stroke-width:0.25px"/></g><g id="LWPOLYLINE-55" data-name="LWPOLYLINE"><polygon points="80.18 35.825 79.477 35.825 49.36 35.825 49.36 37.055 80.168 37.055 80.18 35.825" style="fill:none;stroke:#000;stroke-linecap:round;stroke-linejoin:round;stroke-width:0.25px"/></g><g id="LWPOLYLINE-56" data-name="LWPOLYLINE"><polygon points="114.048 35.825 113.11 35.825 83.93 35.825 83.227 35.825 83.227 37.055 114.048 37.055 114.048 35.825" style="fill:none;stroke:#000;stroke-linecap:round;stroke-linejoin:round;stroke-width:0.25px"/></g><g id="LWPOLYLINE-57" data-name="LWPOLYLINE"><polygon points="135.141 35.825 134.204 35.825 115.923 35.825 115.923 37.055 135.141 37.055 135.141 35.825" style="fill:none;stroke:#000;stroke-linecap:round;stroke-linejoin:round;stroke-width:0.25px"/></g><g id="LWPOLYLINE-58" data-name="LWPOLYLINE"><polygon points="339.985 13.325 339.048 13.325 321.704 13.325 320.766 13.325 320.766 14.555 339.048 14.555 339.985 14.555 339.985 13.325" style="fill:none;stroke:#000;stroke-linecap:round;stroke-linejoin:round;stroke-width:0.25px"/></g><g id="LWPOLYLINE-59" data-name="LWPOLYLINE"><polygon points="372.68 13.325 371.977 13.325 341.86 13.325 341.86 14.555 372.668 14.555 372.68 13.325" style="fill:none;stroke:#000;stroke-linecap:round;stroke-linejoin:round;stroke-width:0.25px"/></g><g id="LWPOLYLINE-60" data-name="LWPOLYLINE"><polygon points="406.547 13.325 405.61 13.325 376.43 13.325 375.727 13.325 375.727 14.555 406.547 14.555 406.547 13.325" style="fill:none;stroke:#000;stroke-linecap:round;stroke-linejoin:round;stroke-width:0.25px"/></g><g id="LWPOLYLINE-61" data-name="LWPOLYLINE"><polygon points="427.641 13.325 426.704 13.325 408.422 13.325 408.422 14.555 427.641 14.555 427.641 13.325" style="fill:none;stroke:#000;stroke-linecap:round;stroke-linejoin:round;stroke-width:0.25px"/></g><g id="LWPOLYLINE-62" data-name="LWPOLYLINE"><polygon points="193.735 35.825 192.798 35.825 175.454 35.825 174.516 35.825 174.516 37.055 192.798 37.055 193.735 37.055 193.735 35.825" style="fill:none;stroke:#000;stroke-linecap:round;stroke-linejoin:round;stroke-width:0.25px"/></g><g id="LWPOLYLINE-63" data-name="LWPOLYLINE"><polygon points="226.43 35.825 225.727 35.825 195.61 35.825 195.61 37.055 226.418 37.055 226.43 35.825" style="fill:none;stroke:#000;stroke-linecap:round;stroke-linejoin:round;stroke-width:0.25px"/></g><g id="LWPOLYLINE-64" data-name="LWPOLYLINE"><polygon points="260.298 35.825 259.36 35.825 230.18 35.825 229.477 35.825 229.477 37.055 260.298 37.055 260.298 35.825" style="fill:none;stroke:#000;stroke-linecap:round;stroke-linejoin:round;stroke-width:0.25px"/></g><g id="LWPOLYLINE-65" data-name="LWPOLYLINE"><polygon points="281.391 35.825 280.454 35.825 262.173 35.825 262.173 37.055 281.391 37.055 281.391 35.825" style="fill:none;stroke:#000;stroke-linecap:round;stroke-linejoin:round;stroke-width:0.25px"/></g><line x1="319.829" y1="17.075" x2="427.641" y2="17.075" style="fill:none;stroke:#000;stroke-linecap:round;stroke-linejoin:round;stroke-width:0.25px"/><line x1="173.579" y1="39.575" x2="281.391" y2="39.575" style="fill:none;stroke:#000;stroke-linecap:round;stroke-linejoin:round;stroke-width:0.25px"/><line x1="29.204" y1="39.575" x2="134.204" y2="39.575" style="fill:none;stroke:#000;stroke-linecap:round;stroke-linejoin:round;stroke-width:0.25px"/><g id="LWPOLYLINE-66" data-name="LWPOLYLINE"><polygon points="113.11 37.055 114.048 37.055 114.048 35.825 113.11 35.825 113.11 34.888 114.985 34.888 114.985 32.544 115.923 32.544 115.923 34.888 116.86 34.888 116.86 35.825 115.923 35.825 115.923 37.055 116.86 37.055 116.86 38.227 116.04 38.227 116.04 39.106 114.985 39.106 114.985 39.575 113.11 39.575 113.11 37.055" style="fill:none;stroke:#000;stroke-miterlimit:10;stroke-width:0.25px"/></g><g id="LWPOLYLINE-67" data-name="LWPOLYLINE"><polygon points="79.041 37.055 80.224 37.055 80.224 35.825 79.041 35.825 79.041 34.888 81.407 34.888 81.407 32.544 82.59 32.544 82.59 34.888 83.773 34.888 83.773 35.825 82.59 35.825 82.59 37.055 83.773 37.055 83.773 38.227 82.738 38.227 82.738 39.106 81.407 39.106 81.407 39.575 79.041 39.575 79.041 37.055" style="fill:none;stroke:#000;stroke-miterlimit:10;stroke-width:0.25px"/></g><g id="LWPOLYLINE-68" data-name="LWPOLYLINE"><polygon points="137.954 34.888 137.016 34.888 137.016 31.137 136.079 31.137 136.079 34.888 134.204 34.888 134.204 35.825 135.141 35.825 135.141 37.055 134.204 37.055 134.204 39.575 137.954 39.575 137.954 34.888" style="fill:none;stroke:#000;stroke-miterlimit:10;stroke-width:0.25px"/></g><g id="LWPOLYLINE-69" data-name="LWPOLYLINE"><polygon points="29.204 37.055 28.266 37.055 28.266 35.825 29.204 35.825 29.204 34.888 27.329 34.888 27.329 31.137 26.391 31.137 26.391 34.888 25.454 34.888 25.454 39.575 29.204 39.575 29.204 37.055" style="fill:none;stroke:#000;stroke-miterlimit:10;stroke-width:0.25px"/></g><g id="LWPOLYLINE-70" data-name="LWPOLYLINE"><polygon points="50.298 37.055 49.36 37.055 49.36 35.825 50.298 35.825 50.298 34.888 48.423 34.888 48.423 32.544 47.485 32.544 47.485 34.888 46.548 34.888 46.548 35.825 47.485 35.825 47.485 37.055 46.548 37.055 46.548 38.227 47.368 38.227 47.368 39.106 48.423 39.106 48.423 39.575 50.298 39.575 50.298 37.055" style="fill:none;stroke:#000;stroke-miterlimit:10;stroke-width:0.25px"/></g><g id="LWPOLYLINE-71" data-name="LWPOLYLINE"><polyline points="373.735 10.044 374.672 10.044 374.672 12.388 376.43 12.388 376.43 13.325 375.727 13.325 375.727 14.555 376.43 14.555 376.43 17.075 374.555 17.075 374.555 16.606 373.852 16.606 373.852 17.075 371.977 17.075 371.977 14.555 372.668 14.555 372.68 13.325 371.977 13.325 371.977 12.388 373.735 12.388 373.735 10.044" style="fill:none;stroke:#000;stroke-miterlimit:10;stroke-width:0.25px"/></g><g id="LWPOLYLINE-72" data-name="LWPOLYLINE"><polygon points="405.61 14.555 406.547 14.555 406.547 13.325 405.61 13.325 405.61 12.388 407.485 12.388 407.485 10.044 408.423 10.044 408.423 12.388 409.36 12.388 409.36 13.325 408.422 13.325 408.422 14.555 409.36 14.555 409.36 15.727 408.54 15.727 408.54 16.606 407.485 16.606 407.485 17.075 405.61 17.075 405.61 14.555" style="fill:none;stroke:#000;stroke-miterlimit:10;stroke-width:0.25px"/></g><g id="LWPOLYLINE-73" data-name="LWPOLYLINE"><polygon points="430.454 12.388 429.516 12.388 429.516 8.637 428.579 8.637 428.579 12.388 426.704 12.388 426.704 13.325 427.641 13.325 427.641 14.555 426.704 14.555 426.704 17.075 430.454 17.075 430.454 12.388" style="fill:none;stroke:#000;stroke-miterlimit:10;stroke-width:0.25px"/></g><g id="LWPOLYLINE-74" data-name="LWPOLYLINE"><polygon points="321.704 14.555 320.766 14.555 320.766 13.325 321.704 13.325 321.704 12.388 319.829 12.388 319.829 8.637 318.891 8.637 318.891 12.388 317.954 12.388 317.954 17.075 321.704 17.075 321.704 14.555" style="fill:none;stroke:#000;stroke-miterlimit:10;stroke-width:0.25px"/></g><g id="LWPOLYLINE-75" data-name="LWPOLYLINE"><polygon points="342.798 14.555 341.86 14.555 341.86 13.325 342.798 13.325 342.798 12.388 340.923 12.388 340.923 10.044 339.985 10.044 339.985 12.388 339.048 12.388 339.048 13.325 339.985 13.325 339.985 14.555 339.048 14.555 339.048 15.727 339.868 15.727 339.868 16.606 340.923 16.606 340.923 17.075 342.798 17.075 342.798 14.555" style="fill:none;stroke:#000;stroke-miterlimit:10;stroke-width:0.25px"/></g><g id="LWPOLYLINE-76" data-name="LWPOLYLINE"><polyline points="227.485 32.544 228.423 32.544 228.423 34.888 230.18 34.888 230.18 35.825 229.477 35.825 229.477 37.055 230.18 37.055 230.18 39.575 228.305 39.575 228.305 39.106 227.602 39.106 227.602 39.575 225.727 39.575 225.727 37.055 226.418 37.055 226.43 35.825 225.727 35.825 225.727 34.888 227.485 34.888 227.485 32.544" style="fill:none;stroke:#000;stroke-miterlimit:10;stroke-width:0.25px"/></g><g id="LWPOLYLINE-77" data-name="LWPOLYLINE"><polygon points="259.36 37.055 260.298 37.055 260.298 35.825 259.36 35.825 259.36 34.888 261.235 34.888 261.235 32.544 262.173 32.544 262.173 34.888 263.11 34.888 263.11 35.825 262.173 35.825 262.173 37.055 263.11 37.055 263.11 38.227 262.29 38.227 262.29 39.106 261.235 39.106 261.235 39.575 259.36 39.575 259.36 37.055" style="fill:none;stroke:#000;stroke-miterlimit:10;stroke-width:0.25px"/></g><g id="LWPOLYLINE-78" data-name="LWPOLYLINE"><polygon points="284.204 34.888 283.266 34.888 283.266 31.137 282.329 31.137 282.329 34.888 280.454 34.888 280.454 35.825 281.391 35.825 281.391 37.055 280.454 37.055 280.454 39.575 284.204 39.575 284.204 34.888" style="fill:none;stroke:#000;stroke-miterlimit:10;stroke-width:0.25px"/></g><g id="LWPOLYLINE-79" data-name="LWPOLYLINE"><polygon points="175.454 37.055 174.516 37.055 174.516 35.825 175.454 35.825 175.454 34.888 173.579 34.888 173.579 31.137 172.641 31.137 172.641 34.888 171.704 34.888 171.704 39.575 175.454 39.575 175.454 37.055" style="fill:none;stroke:#000;stroke-miterlimit:10;stroke-width:0.25px"/></g><g id="LWPOLYLINE-80" data-name="LWPOLYLINE"><polygon points="196.548 37.055 195.61 37.055 195.61 35.825 196.548 35.825 196.548 34.888 194.673 34.888 194.673 32.544 193.735 32.544 193.735 34.888 192.798 34.888 192.798 35.825 193.735 35.825 193.735 37.055 192.798 37.055 192.798 38.227 193.618 38.227 193.618 39.106 194.673 39.106 194.673 39.575 196.548 39.575 196.548 37.055" style="fill:none;stroke:#000;stroke-miterlimit:10;stroke-width:0.25px"/></g><g id="LWPOLYLINE-81" data-name="LWPOLYLINE"><polyline points="137.954 39.575 137.954 31.138 25.454 31.138 25.454 39.575" style="fill:none;stroke:#000;stroke-linecap:round;stroke-linejoin:round;stroke-width:0.4px"/></g><g id="LWPOLYLINE-82" data-name="LWPOLYLINE"><polyline points="430.454 17.075 430.454 8.638 317.954 8.638 317.954 17.075" style="fill:none;stroke:#000;stroke-linecap:round;stroke-linejoin:round;stroke-width:0.4px"/></g><g id="LWPOLYLINE-83" data-name="LWPOLYLINE"><polyline points="284.204 39.575 284.204 31.138 171.704 31.138 171.704 39.575" style="fill:none;stroke:#000;stroke-linecap:round;stroke-linejoin:round;stroke-width:0.4px"/></g><g id="LWPOLYLINE-84" data-name="LWPOLYLINE"><rect x="336.33" y="378.896" width="2.109" height="33.75" transform="translate(-181.035 354.486) rotate(-45)" style="fill:#b4c0be;stroke:#000;stroke-linecap:round;stroke-linejoin:round;stroke-width:0.200000002980232px"/></g><g id="LWPOLYLINE-85" data-name="LWPOLYLINE"><rect x="171.209" y="272.441" width="33.75" height="1.641" transform="translate(-138.137 213.032) rotate(-45)" style="fill:#b4c0be;stroke:#000;stroke-linecap:round;stroke-linejoin:round;stroke-width:0.200000002980232px"/></g><g id="LWPOLYLINE-86" data-name="LWPOLYLINE"><rect x="369.985" y="369.458" width="1.641" height="33.75" style="fill:none;stroke:#000;stroke-linecap:round;stroke-linejoin:round;stroke-width:0.200000002980232px"/></g><g id="LWPOLYLINE-87" data-name="LWPOLYLINE"><rect x="293.93" y="369.458" width="1.641" height="33.75" style="fill:none;stroke:#000;stroke-linecap:round;stroke-linejoin:round;stroke-width:0.200000002980232px"/></g><g id="LWPOLYLINE-88" data-name="LWPOLYLINE"><rect x="89.204" y="207.505" width="1.641" height="33.75" style="fill:none;stroke:#000;stroke-linecap:round;stroke-linejoin:round;stroke-width:0.200000002980232px"/></g><g id="LWPOLYLINE-89" data-name="LWPOLYLINE"><rect x="89.204" y="252.27" width="1.641" height="33.75" style="fill:none;stroke:#000;stroke-linecap:round;stroke-linejoin:round;stroke-width:0.200000002980232px"/></g><g id="LWPOLYLINE-90" data-name="LWPOLYLINE"><rect x="214.946" y="243.833" width="1.641" height="33.75" style="fill:none;stroke:#000;stroke-linecap:round;stroke-linejoin:round;stroke-width:0.200000002980232px"/></g><g id="LWPOLYLINE-91" data-name="LWPOLYLINE"><rect x="170.18" y="230.649" width="1.641" height="22.5" style="fill:none;stroke:#000;stroke-linecap:round;stroke-linejoin:round;stroke-width:0.200000002980232px"/></g><g id="LWPOLYLINE-92" data-name="LWPOLYLINE"><rect x="170.18" y="253.149" width="1.641" height="22.5" style="fill:none;stroke:#000;stroke-linecap:round;stroke-linejoin:round;stroke-width:0.200000002980232px"/></g><g id="LWPOLYLINE-93" data-name="LWPOLYLINE"><rect x="125.547" y="296.242" width="1.641" height="33.75" transform="translate(-184.395 181.065) rotate(-45)" style="fill:#b4c0be;stroke:#000;stroke-linecap:round;stroke-linejoin:round;stroke-width:0.200000002980232px"/></g><g id="LWPOLYLINE-94" data-name="LWPOLYLINE"><rect x="98.345" y="331.255" width="33.75" height="1.641" style="fill:none;stroke:#000;stroke-linecap:round;stroke-linejoin:round;stroke-width:0.200000002980232px"/></g><g id="LWPOLYLINE-95" data-name="LWPOLYLINE"><rect x="226.782" y="329.38" width="33.75" height="1.641" style="fill:none;stroke:#000;stroke-linecap:round;stroke-linejoin:round;stroke-width:0.200000002980232px"/></g><g id="LWPOLYLINE-96" data-name="LWPOLYLINE"><rect x="293.93" y="369.458" width="1.641" height="33.75" style="fill:none;stroke:#000;stroke-linecap:round;stroke-linejoin:round;stroke-width:0.200000002980232px"/></g><g id="ARC-30" data-name="ARC"><path d="M324.707,384.585a34.266,34.266,0,0,0-8.394,22.373" style="fill:none;stroke:#000;stroke-linecap:round;stroke-linejoin:round;stroke-width:0.200000002980232px"/></g><g id="ARC-31" data-name="ARC"><path d="M209.321,284.614a33.753,33.753,0,0,0-9.885-23.865" style="fill:none;stroke:#000;stroke-linecap:round;stroke-linejoin:round;stroke-width:0.200000002980232px"/></g><g id="ARC-32" data-name="ARC"><path d="M137.72,291.88a33.745,33.745,0,0,0-23.865,9.885" style="fill:none;stroke:#000;stroke-linecap:round;stroke-linejoin:round;stroke-width:0.200000002980232px"/></g><g id="LWPOLYLINE-97" data-name="LWPOLYLINE"><rect x="216.587" y="185.473" width="58.125" height="30.938" style="fill:none;stroke:#000;stroke-linecap:round;stroke-linejoin:round;stroke-width:0.25px"/></g><g id="LWPOLYLINE-98" data-name="LWPOLYLINE"><path d="M270.216,200.9v-5.89a4.74,4.74,0,0,0-4.74-4.74h-39.11a4.74,4.74,0,0,0-4.74,4.74v12.563a4.74,4.74,0,0,0,4.74,4.74h39.11a4.74,4.74,0,0,0,4.74-4.74V201.68" style="fill:none;stroke:#000;stroke-linecap:round;stroke-linejoin:round;stroke-width:0.25px"/></g><g id="LWPOLYLINE-99" data-name="LWPOLYLINE"><rect x="37.173" y="332.895" width="34.687" height="69.375" style="fill:none;stroke:#000;stroke-linecap:round;stroke-linejoin:round;stroke-width:0.25px"/></g><g id="LWPOLYLINE-100" data-name="LWPOLYLINE"><rect x="42.228" y="336.528" width="24.945" height="62.482" rx="4.797" style="fill:none;stroke:#000;stroke-linecap:round;stroke-linejoin:round;stroke-width:0.25px"/></g><g id="CIRCLE-26" data-name="CIRCLE"><path d="M52.876,390.846a2.11,2.11,0,1,1,2.109,2.11,2.109,2.109,0,0,1-2.109-2.11Z" style="fill:none;stroke:#000;stroke-linecap:round;stroke-linejoin:round;stroke-width:0.25px"/></g><g id="LWPOLYLINE-101" data-name="LWPOLYLINE"><rect x="177.798" y="332.895" width="35.625" height="69.375" style="fill:none;stroke:#000;stroke-linecap:round;stroke-linejoin:round;stroke-width:0.25px"/></g><g id="LWPOLYLINE-102" data-name="LWPOLYLINE"><rect x="177.034" y="332.849" width="0.828" height="35.171" style="fill:#b4c0be;stroke:#000;stroke-linecap:round;stroke-linejoin:round;stroke-width:0.25px"/></g><g id="ARC-33" data-name="ARC"><path d="M196.011,394.988a3.279,3.279,0,1,0-.788,0" style="fill:none;stroke:#000;stroke-linecap:round;stroke-linejoin:round;stroke-width:0.25px"/></g><g id="LWPOLYLINE-103" data-name="LWPOLYLINE"><path d="M195.223,391.745V402.27H196V391.745a.388.388,0,1,0-.775,0Z" style="fill:none;stroke:#000;stroke-linecap:round;stroke-linejoin:round;stroke-width:0.25px"/></g><g id="ARC-34" data-name="ARC"><path d="M55.1,394.988a3.28,3.28,0,1,0-.789,0" style="fill:#b4c0be;stroke:#000;stroke-linecap:round;stroke-linejoin:round;stroke-width:0.25px"/></g><g id="LWPOLYLINE-104" data-name="LWPOLYLINE"><path d="M54.313,391.745V402.27h.775V391.745a.388.388,0,1,0-.775,0Z" style="fill:#b4c0be;stroke:#000;stroke-linecap:round;stroke-linejoin:round;stroke-width:0.25px"/></g><g id="ARC-35" data-name="ARC"><path d="M268.492,201.01a3.28,3.28,0,1,0,0,.788" style="fill:#b4c0be;stroke:#000;stroke-linecap:round;stroke-linejoin:round;stroke-width:0.25px"/></g><g id="LWPOLYLINE-105" data-name="LWPOLYLINE"><path d="M265.236,201.8H275.4v-.775H265.236a.388.388,0,1,0,0,.775Z" style="fill:#b4c0be;stroke:#000;stroke-linecap:round;stroke-linejoin:round;stroke-width:0.25px"/></g><line x1="177.034" y1="363.496" x2="177.862" y2="363.496" style="fill:none;stroke:#000;stroke-linecap:round;stroke-linejoin:round;stroke-width:0.25px"/><g id="LWPOLYLINE-106" data-name="LWPOLYLINE"><rect x="231.001" y="337.406" width="25.313" height="27.891" style="fill:#b4c0be;stroke:#000;stroke-linecap:round;stroke-linejoin:round;stroke-width:0.25px"/></g><g id="LWPOLYLINE-107" data-name="LWPOLYLINE"><rect x="333.071" y="312.973" width="114.77" height="24.289" style="fill:#b4c0be;stroke:#000;stroke-linecap:round;stroke-linejoin:round;stroke-width:0.25px"/></g><g id="LWPOLYLINE-108" data-name="LWPOLYLINE"><rect x="421.313" y="234.223" width="25.547" height="37.5" style="fill:#b4c0be;stroke:#000;stroke-linecap:round;stroke-linejoin:round;stroke-width:0.25px"/></g><g id="LWPOLYLINE-109" data-name="LWPOLYLINE"><rect x="336.235" y="234.223" width="85.078" height="37.5" style="fill:#b4c0be;stroke:#000;stroke-linecap:round;stroke-linejoin:round;stroke-width:0.25px"/></g><g id="CIRCLE-27" data-name="CIRCLE"><path d="M373.039,320.394a.7.7,0,1,1,.7-.7.7.7,0,0,1-.7.7Z" style="fill:none;stroke:#000;stroke-linecap:round;stroke-linejoin:round;stroke-width:0.25px"/></g><g id="CIRCLE-28" data-name="CIRCLE"><path d="M368.666,320.394a.7.7,0,1,1,.7-.7.7.7,0,0,1-.7.7Z" style="fill:none;stroke:#000;stroke-linecap:round;stroke-linejoin:round;stroke-width:0.25px"/></g><g id="CIRCLE-29" data-name="CIRCLE"><path d="M368.666,323.261a.7.7,0,1,1,.7-.7.7.7,0,0,1-.7.7Z" style="fill:none;stroke:#000;stroke-linecap:round;stroke-linejoin:round;stroke-width:0.25px"/></g><g id="CIRCLE-30" data-name="CIRCLE"><path d="M370.852,323.261a.7.7,0,1,1,.7-.7.7.7,0,0,1-.7.7Z" style="fill:none;stroke:#000;stroke-linecap:round;stroke-linejoin:round;stroke-width:0.25px"/></g><g id="CIRCLE-31" data-name="CIRCLE"><path d="M373.039,323.261a.7.7,0,1,1,.7-.7.7.7,0,0,1-.7.7Z" style="fill:none;stroke:#000;stroke-linecap:round;stroke-linejoin:round;stroke-width:0.25px"/></g><g id="LWPOLYLINE-110" data-name="LWPOLYLINE"><rect x="357.36" y="316.819" width="26.986" height="16.033" rx="0.375" style="fill:none;stroke:#000;stroke-linecap:round;stroke-linejoin:round;stroke-width:0.25px"/></g><circle cx="362.171" cy="328.701" r="1.323" style="fill:none;stroke:#000;stroke-linecap:round;stroke-linejoin:round;stroke-width:0.25px"/><path d="M366.165,325.522v5.85a.561.561,0,0,1-.567.554h-6.853a.561.561,0,0,1-.567-.554v-5.85a.047.047,0,0,1,.047-.046h7.893A.047.047,0,0,1,366.165,325.522Z" style="fill:none;stroke:#000;stroke-linecap:round;stroke-linejoin:round;stroke-width:0.25px"/><circle cx="370.852" cy="328.701" r="1.323" style="fill:none;stroke:#000;stroke-linecap:round;stroke-linejoin:round;stroke-width:0.25px"/><path d="M374.846,325.522v5.85a.561.561,0,0,1-.567.554h-6.853a.561.561,0,0,1-.567-.554v-5.85a.047.047,0,0,1,.047-.046H374.8A.047.047,0,0,1,374.846,325.522Z" style="fill:none;stroke:#000;stroke-linecap:round;stroke-linejoin:round;stroke-width:0.25px"/><circle cx="379.533" cy="328.701" r="1.323" style="fill:none;stroke:#000;stroke-linecap:round;stroke-linejoin:round;stroke-width:0.25px"/><path d="M383.527,325.522v5.85a.561.561,0,0,1-.567.554h-6.853a.561.561,0,0,1-.567-.554v-5.85a.047.047,0,0,1,.047-.046h7.893A.047.047,0,0,1,383.527,325.522Z" style="fill:none;stroke:#000;stroke-linecap:round;stroke-linejoin:round;stroke-width:0.25px"/><circle cx="379.533" cy="321.131" r="1.323" style="fill:none;stroke:#000;stroke-linecap:round;stroke-linejoin:round;stroke-width:0.25px"/><path d="M375.54,324.309v-5.85a.56.56,0,0,1,.567-.553h6.853a.56.56,0,0,1,.567.553v5.85a.046.046,0,0,1-.047.046h-7.893A.046.046,0,0,1,375.54,324.309Z" style="fill:none;stroke:#000;stroke-linecap:round;stroke-linejoin:round;stroke-width:0.25px"/><circle cx="362.171" cy="321.131" r="1.323" style="fill:none;stroke:#000;stroke-linecap:round;stroke-linejoin:round;stroke-width:0.25px"/><path d="M358.178,324.309v-5.85a.56.56,0,0,1,.567-.553H365.6a.56.56,0,0,1,.567.553v5.85a.046.046,0,0,1-.047.046h-7.893A.046.046,0,0,1,358.178,324.309Z" style="fill:none;stroke:#000;stroke-linecap:round;stroke-linejoin:round;stroke-width:0.25px"/><g id="LINE-17" data-name="LINE"><line x1="333.071" y1="325.355" x2="334.071" y2="325.355" style="fill:none;stroke:#000;stroke-linecap:round;stroke-linejoin:round;stroke-width:0.25px"/><line x1="336.117" y1="325.355" x2="404.642" y2="325.355" style="fill:none;stroke:#000;stroke-linecap:round;stroke-linejoin:round;stroke-width:0.25px;stroke-dasharray:2.045537233352661,2.045537233352661"/><line x1="405.665" y1="325.355" x2="406.665" y2="325.355" style="fill:none;stroke:#000;stroke-linecap:round;stroke-linejoin:round;stroke-width:0.25px"/></g><g id="LWPOLYLINE-111" data-name="LWPOLYLINE"><polyline points="363.051 254.427 363.051 268.81 390.02 268.81 390.02 254.427 363.051 254.427" style="fill:none;stroke:#000;stroke-linecap:round;stroke-linejoin:round;stroke-width:0.25px"/></g><rect x="376.271" y="251.89" width="3.285" height="1.379" transform="translate(755.828 505.158) rotate(180)" style="fill:#b4c0be;stroke:#000;stroke-linecap:round;stroke-linejoin:round;stroke-width:0.25px"/><path d="M375.549,253.134a.968.968,0,0,0,.315.315v6.924a.5.5,0,0,0,1,0v-6.924a.955.955,0,1,0-1.313-.315Z" style="fill:#b4c0be;stroke:#000;stroke-linecap:round;stroke-linejoin:round;stroke-width:0.25px"/><line x1="434.673" y1="312.953" x2="434.673" y2="339.262" style="fill:none;stroke:#000;stroke-linecap:round;stroke-linejoin:round;stroke-width:0.25px"/><line x1="406.665" y1="312.953" x2="406.665" y2="339.262" style="fill:none;stroke:#000;stroke-linecap:round;stroke-linejoin:round;stroke-width:0.25px"/><line x1="421.313" y1="248.013" x2="446.63" y2="248.013" style="fill:none;stroke:#000;stroke-linecap:round;stroke-linejoin:round;stroke-width:0.25px"/><g id="LWPOLYLINE-112" data-name="LWPOLYLINE"><line x1="280.805" y1="409.77" x2="280.805" y2="361.606" style="fill:none;stroke:#000;stroke-linecap:round;stroke-linejoin:round;stroke-width:0.25px;stroke-dasharray:2,2"/></g><g id="LWPOLYLINE-113" data-name="LWPOLYLINE"><line x1="154.712" y1="284.614" x2="154.712" y2="222.505" style="fill:none;stroke:#000;stroke-linecap:round;stroke-linejoin:round;stroke-width:0.25px;stroke-dasharray:2,2"/></g><g id="LWPOLYLINE-114" data-name="LWPOLYLINE"><polyline points="89.204 295.161 48.423 295.161 48.424 248.521" style="fill:none;stroke:#000;stroke-linecap:round;stroke-linejoin:round;stroke-width:0.25px;stroke-dasharray:2,2"/></g><g id="LWPOLYLINE-115" data-name="LWPOLYLINE"><polyline points="14.321 245.005 14.321 198.13 89.204 198.13" style="fill:none;stroke:#000;stroke-linecap:round;stroke-linejoin:round;stroke-width:0.25px;stroke-dasharray:2,2"/></g><g id="LWPOLYLINE-116" data-name="LWPOLYLINE"><line x1="336.235" y1="243.598" x2="421.313" y2="243.598" style="fill:none;stroke:#000;stroke-linecap:round;stroke-linejoin:round;stroke-width:0.25px;stroke-dasharray:2,2"/></g><polyline points="400.527 271.451 400.527 251.786 418.694 251.786 418.694 271.451" style="fill:none;stroke:#000;stroke-linecap:round;stroke-linejoin:round;stroke-width:0.25px;stroke-dasharray:2,2"/><g id="LINE-18" data-name="LINE"><line x1="274.278" y1="405.824" x2="287.333" y2="405.824" style="fill:none;stroke:#000;stroke-miterlimit:10;stroke-width:0.25px"/></g><g id="LINE-19" data-name="LINE"><line x1="274.278" y1="403.405" x2="287.333" y2="403.405" style="fill:none;stroke:#000;stroke-miterlimit:10;stroke-width:0.25px"/></g><g id="LINE-20" data-name="LINE"><line x1="274.278" y1="400.986" x2="287.332" y2="400.985" style="fill:none;stroke:#000;stroke-miterlimit:10;stroke-width:0.25px"/></g><g id="LINE-21" data-name="LINE"><line x1="274.278" y1="398.566" x2="287.333" y2="398.565" style="fill:none;stroke:#000;stroke-miterlimit:10;stroke-width:0.25px"/></g><g id="LINE-22" data-name="LINE"><line x1="274.278" y1="396.147" x2="287.332" y2="396.146" style="fill:none;stroke:#000;stroke-miterlimit:10;stroke-width:0.25px"/></g><g id="LINE-23" data-name="LINE"><line x1="287.332" y1="393.728" x2="274.278" y2="393.728" style="fill:none;stroke:#000;stroke-miterlimit:10;stroke-width:0.25px"/></g><g id="LINE-24" data-name="LINE"><line x1="161.239" y1="280.668" x2="148.185" y2="280.668" style="fill:none;stroke:#000;stroke-miterlimit:10;stroke-width:0.25px"/></g><g id="LINE-25" data-name="LINE"><line x1="161.239" y1="278.249" x2="148.185" y2="278.249" style="fill:none;stroke:#000;stroke-miterlimit:10;stroke-width:0.25px"/></g><g id="LINE-26" data-name="LINE"><line x1="161.239" y1="275.829" x2="148.185" y2="275.829" style="fill:none;stroke:#000;stroke-miterlimit:10;stroke-width:0.25px"/></g><g id="LINE-27" data-name="LINE"><line x1="161.239" y1="273.41" x2="148.185" y2="273.409" style="fill:none;stroke:#000;stroke-miterlimit:10;stroke-width:0.25px"/></g><g id="LINE-28" data-name="LINE"><line x1="161.239" y1="270.991" x2="148.185" y2="270.99" style="fill:none;stroke:#000;stroke-miterlimit:10;stroke-width:0.25px"/></g><g id="LINE-29" data-name="LINE"><line x1="148.185" y1="268.571" x2="161.239" y2="268.571" style="fill:none;stroke:#000;stroke-miterlimit:10;stroke-width:0.25px"/></g><g id="LINE-30" data-name="LINE"><line x1="20.848" y1="241.059" x2="7.794" y2="241.059" style="fill:none;stroke:#000;stroke-miterlimit:10;stroke-width:0.25px"/></g><g id="LINE-31" data-name="LINE"><line x1="20.848" y1="238.639" x2="7.794" y2="238.639" style="fill:none;stroke:#000;stroke-miterlimit:10;stroke-width:0.25px"/></g><g id="LINE-32" data-name="LINE"><line x1="20.849" y1="236.22" x2="7.794" y2="236.219" style="fill:none;stroke:#000;stroke-miterlimit:10;stroke-width:0.25px"/></g><g id="LINE-33" data-name="LINE"><line x1="20.848" y1="233.801" x2="7.794" y2="233.8" style="fill:none;stroke:#000;stroke-miterlimit:10;stroke-width:0.25px"/></g><g id="LINE-34" data-name="LINE"><line x1="20.849" y1="231.381" x2="7.794" y2="231.381" style="fill:none;stroke:#000;stroke-miterlimit:10;stroke-width:0.25px"/></g><g id="LINE-35" data-name="LINE"><line x1="7.794" y1="228.962" x2="20.849" y2="228.962" style="fill:none;stroke:#000;stroke-miterlimit:10;stroke-width:0.25px"/></g><g id="LINE-36" data-name="LINE"><line x1="41.896" y1="252.468" x2="54.95" y2="252.468" style="fill:none;stroke:#000;stroke-miterlimit:10;stroke-width:0.25px"/></g><g id="LINE-37" data-name="LINE"><line x1="41.896" y1="254.888" x2="54.95" y2="254.888" style="fill:none;stroke:#000;stroke-miterlimit:10;stroke-width:0.25px"/></g><g id="LINE-38" data-name="LINE"><line x1="41.895" y1="257.307" x2="54.95" y2="257.308" style="fill:none;stroke:#000;stroke-miterlimit:10;stroke-width:0.25px"/></g><g id="LINE-39" data-name="LINE"><line x1="41.896" y1="259.726" x2="54.95" y2="259.727" style="fill:none;stroke:#000;stroke-miterlimit:10;stroke-width:0.25px"/></g><g id="LINE-40" data-name="LINE"><line x1="41.895" y1="262.145" x2="54.95" y2="262.146" style="fill:none;stroke:#000;stroke-miterlimit:10;stroke-width:0.25px"/></g><g id="LINE-41" data-name="LINE"><line x1="54.95" y1="264.565" x2="41.895" y2="264.565" style="fill:none;stroke:#000;stroke-miterlimit:10;stroke-width:0.25px"/></g><g id="LINE-42" data-name="LINE"><line x1="85.258" y1="191.602" x2="85.258" y2="204.657" style="fill:none;stroke:#000;stroke-miterlimit:10;stroke-width:0.25px"/></g><g id="LINE-43" data-name="LINE"><line x1="82.838" y1="191.602" x2="82.838" y2="204.657" style="fill:none;stroke:#000;stroke-miterlimit:10;stroke-width:0.25px"/></g><g id="LINE-44" data-name="LINE"><line x1="80.419" y1="191.602" x2="80.418" y2="204.657" style="fill:none;stroke:#000;stroke-miterlimit:10;stroke-width:0.25px"/></g><g id="LINE-45" data-name="LINE"><line x1="78" y1="191.602" x2="77.999" y2="204.657" style="fill:none;stroke:#000;stroke-miterlimit:10;stroke-width:0.25px"/></g><g id="LINE-46" data-name="LINE"><line x1="75.581" y1="191.602" x2="75.58" y2="204.657" style="fill:none;stroke:#000;stroke-miterlimit:10;stroke-width:0.25px"/></g><g id="LINE-47" data-name="LINE"><line x1="73.161" y1="204.657" x2="73.161" y2="191.602" style="fill:none;stroke:#000;stroke-miterlimit:10;stroke-width:0.25px"/></g><g id="LINE-48" data-name="LINE"><line x1="31.046" y1="191.602" x2="31.046" y2="204.657" style="fill:none;stroke:#000;stroke-miterlimit:10;stroke-width:0.25px"/></g><g id="LINE-49" data-name="LINE"><line x1="28.627" y1="191.602" x2="28.627" y2="204.657" style="fill:none;stroke:#000;stroke-miterlimit:10;stroke-width:0.25px"/></g><g id="LINE-50" data-name="LINE"><line x1="26.208" y1="191.602" x2="26.207" y2="204.657" style="fill:none;stroke:#000;stroke-miterlimit:10;stroke-width:0.25px"/></g><g id="LINE-51" data-name="LINE"><line x1="23.788" y1="191.602" x2="23.788" y2="204.657" style="fill:none;stroke:#000;stroke-miterlimit:10;stroke-width:0.25px"/></g><g id="LINE-52" data-name="LINE"><line x1="21.369" y1="191.602" x2="21.368" y2="204.657" style="fill:none;stroke:#000;stroke-miterlimit:10;stroke-width:0.25px"/></g><g id="LINE-53" data-name="LINE"><line x1="18.95" y1="204.657" x2="18.95" y2="191.602" style="fill:none;stroke:#000;stroke-miterlimit:10;stroke-width:0.25px"/></g><g id="ARC-36" data-name="ARC"><path d="M149.535,386.5c-.333,3.017-.96,10.986-.96,10.986" style="fill:#b4c0be;stroke:#000;stroke-linecap:round;stroke-linejoin:round;stroke-width:0.25px"/></g><g id="ARC-37" data-name="ARC"><path d="M160.269,393.5A.8.8,0,0,0,161,393q.206-.5.377-1.007a13.981,13.981,0,0,0,.612-2.794q.087-.756.126-1.517a14.872,14.872,0,0,0-.327-3.964,9.638,9.638,0,0,0-2.923-5.058,4.568,4.568,0,0,0-6.223.061,9.639,9.639,0,0,0-2.825,5.113,14.935,14.935,0,0,0-.25,3.97q.054.759.156,1.514a14.161,14.161,0,0,0,.665,2.782q.181.506.4,1a.805.805,0,0,0,.744.48Z" style="fill:#b4c0be;stroke:#000;stroke-linecap:round;stroke-linejoin:round;stroke-width:0.25px"/></g><g id="ARC-38" data-name="ARC"><path d="M162.129,386.38c.391,3.01.967,11.108.967,11.108" style="fill:#b4c0be;stroke:#000;stroke-linecap:round;stroke-linejoin:round;stroke-width:0.25px"/></g><g id="ARC-39" data-name="ARC"><path d="M148.581,397.35a1.049,1.049,0,0,1,.922-.991,53.513,53.513,0,0,1,12.665,0,1.049,1.049,0,0,1,.922.991v-.022q.078,1.629.117,3.261a1.4,1.4,0,0,1-1.276,1.42q-3.041.264-6.095.261t-6.094-.261a1.4,1.4,0,0,1-1.277-1.42q.041-1.632.118-3.261Z" style="fill:#b4c0be;stroke:#000;stroke-linecap:round;stroke-linejoin:round;stroke-width:0.25px"/></g><g id="LWPOLYLINE-117" data-name="LWPOLYLINE"><path d="M119.527,396.111h7.919a.88.88,0,0,0,.879-.88V384.673a.88.88,0,0,0-.879-.88H110.728a.88.88,0,0,0-.88.88v10.558a.88.88,0,0,0,.88.88h8.8Z" style="fill:none;stroke:#000;stroke-linecap:round;stroke-linejoin:round;stroke-width:0.25px"/></g><g id="ARC-40" data-name="ARC"><path d="M118.643,398.3a1.109,1.109,0,1,0,.887,0Z" style="fill:#b4c0be;stroke:#000;stroke-linecap:round;stroke-linejoin:round;stroke-width:0.25px"/></g><g id="ARC-41" data-name="ARC"><path d="M113.564,399.542a1.109,1.109,0,1,0,0-.444Z" style="fill:#b4c0be;stroke:#000;stroke-linecap:round;stroke-linejoin:round;stroke-width:0.25px"/></g><g id="ARC-42" data-name="ARC"><path d="M124.61,399.542a1.109,1.109,0,1,1,0-.444Z" style="fill:#b4c0be;stroke:#000;stroke-linecap:round;stroke-linejoin:round;stroke-width:0.25px"/></g><g id="LINE-54" data-name="LINE"><path d="M118.643,394v5.323a.444.444,0,1,0,.887,0V394a.444.444,0,1,0-.887,0Z" style="fill:#b4c0be;stroke:#000;stroke-linecap:round;stroke-linejoin:round;stroke-width:0.25px"/></g><line x1="114.661" y1="399.32" x2="111.545" y2="399.32" style="fill:#b4c0be;stroke:#000;stroke-linecap:round;stroke-linejoin:round;stroke-width:0.25px"/><line x1="126.629" y1="399.32" x2="123.512" y2="399.32" style="fill:#b4c0be;stroke:#000;stroke-linecap:round;stroke-linejoin:round;stroke-width:0.25px"/><g id="LWPOLYLINE-118" data-name="LWPOLYLINE"><path d="M93.145,396.111h7.919a.88.88,0,0,0,.88-.88V384.673a.88.88,0,0,0-.88-.88H84.347a.88.88,0,0,0-.88.88v10.558a.88.88,0,0,0,.88.88h8.8Z" style="fill:none;stroke:#000;stroke-linecap:round;stroke-linejoin:round;stroke-width:0.25px"/></g><g id="LWPOLYLINE-119" data-name="LWPOLYLINE"><rect x="76.648" y="381.154" width="63.35" height="21.117" style="fill:none;stroke:#000;stroke-linecap:round;stroke-linejoin:round;stroke-width:0.25px"/></g><g id="ARC-43" data-name="ARC"><path d="M92.042,398.3a1.109,1.109,0,1,0,.887,0Z" style="fill:#b4c0be;stroke:#000;stroke-linecap:round;stroke-linejoin:round;stroke-width:0.25px"/></g><g id="ARC-44" data-name="ARC"><path d="M86.962,399.542a1.109,1.109,0,1,0,0-.444Z" style="fill:#b4c0be;stroke:#000;stroke-linecap:round;stroke-linejoin:round;stroke-width:0.25px"/></g><g id="ARC-45" data-name="ARC"><path d="M98.008,399.542a1.109,1.109,0,1,1,0-.444Z" style="fill:#b4c0be;stroke:#000;stroke-linecap:round;stroke-linejoin:round;stroke-width:0.25px"/></g><g id="LINE-55" data-name="LINE"><path d="M92.042,394v5.323a.444.444,0,1,0,.887,0V394a.444.444,0,1,0-.887,0Z" style="fill:#b4c0be;stroke:#000;stroke-linecap:round;stroke-linejoin:round;stroke-width:0.25px"/></g><line x1="88.06" y1="399.32" x2="84.943" y2="399.32" style="fill:#b4c0be;stroke:#000;stroke-linecap:round;stroke-linejoin:round;stroke-width:0.25px"/><line x1="100.027" y1="399.32" x2="96.911" y2="399.32" style="fill:#b4c0be;stroke:#000;stroke-linecap:round;stroke-linejoin:round;stroke-width:0.25px"/><g id="LWPOLYLINE-120" data-name="LWPOLYLINE"><rect x="266.421" y="223.888" width="19.585" height="25.506" style="fill:#b4c0be;stroke:#000;stroke-linecap:round;stroke-linejoin:round;stroke-width:0.25px"/></g><g id="LWPOLYLINE-121" data-name="LWPOLYLINE"><path d="M270.246,244.384a1.094,1.094,0,0,1-1.093-1.093v-13.3a1.094,1.094,0,0,1,1.093-1.093h9.838a.911.911,0,0,1,.911.911v13.664a.911.911,0,0,1-.911.911Z" style="fill:#b4c0be;stroke:#000;stroke-linecap:round;stroke-linejoin:round;stroke-width:0.25px"/></g><g id="ARC-46" data-name="ARC"><path d="M269.681,259.267c3.123-.345,11.373-.994,11.373-.994" style="fill:#b4c0be;stroke:#000;stroke-linecap:round;stroke-linejoin:round;stroke-width:0.25px"/></g><g id="ARC-47" data-name="ARC"><path d="M276.921,270.38a.831.831,0,0,1-.511.76q-.515.213-1.042.391a14.551,14.551,0,0,1-2.893.633q-.783.09-1.571.13a15.367,15.367,0,0,1-4.1-.338,9.983,9.983,0,0,1-5.237-3.026,4.731,4.731,0,0,1,.063-6.443,9.97,9.97,0,0,1,5.294-2.924,15.393,15.393,0,0,1,4.109-.259q.786.056,1.568.161a14.54,14.54,0,0,1,2.88.689q.523.188,1.034.411a.832.832,0,0,1,.5.769Z" style="fill:#b4c0be;stroke:#000;stroke-linecap:round;stroke-linejoin:round;stroke-width:0.25px"/></g><g id="ARC-48" data-name="ARC"><path d="M269.555,272.305c3.116.4,11.5,1,11.5,1" style="fill:#b4c0be;stroke:#000;stroke-linecap:round;stroke-linejoin:round;stroke-width:0.25px"/></g><g id="ARC-49" data-name="ARC"><path d="M280.911,258.28a1.085,1.085,0,0,0-1.026.954,55.3,55.3,0,0,0,0,13.112,1.085,1.085,0,0,0,1.026.954h-.023q1.688.081,3.377.122a1.446,1.446,0,0,0,1.47-1.321q.273-3.149.27-6.31t-.27-6.31a1.446,1.446,0,0,0-1.47-1.321q-1.689.04-3.377.122Z" style="fill:#b4c0be;stroke:#000;stroke-linecap:round;stroke-linejoin:round;stroke-width:0.25px"/></g><g id="ARC-50" data-name="ARC"><path d="M282.413,236.181a1.148,1.148,0,1,1,0,.919Z" style="fill:#b4c0be;stroke:#000;stroke-linecap:round;stroke-linejoin:round;stroke-width:0.25px"/></g><g id="ARC-51" data-name="ARC"><path d="M283.7,230.923a1.149,1.149,0,1,1-.459,0Z" style="fill:#b4c0be;stroke:#000;stroke-linecap:round;stroke-linejoin:round;stroke-width:0.25px"/></g><g id="ARC-52" data-name="ARC"><path d="M283.7,242.359a1.149,1.149,0,1,0-.459,0Z" style="fill:#b4c0be;stroke:#000;stroke-linecap:round;stroke-linejoin:round;stroke-width:0.25px"/></g><g id="LINE-56" data-name="LINE"><path d="M277.954,236.181h5.511a.46.46,0,1,1,0,.919h-5.511a.46.46,0,0,1,0-.919Z" style="fill:#b4c0be;stroke:#000;stroke-linecap:round;stroke-linejoin:round;stroke-width:0.25px"/></g><line x1="283.465" y1="232.059" x2="283.465" y2="228.833" style="fill:#b4c0be;stroke:#000;stroke-linecap:round;stroke-linejoin:round;stroke-width:0.25px"/><line x1="283.465" y1="244.449" x2="283.465" y2="241.222" style="fill:#b4c0be;stroke:#000;stroke-linecap:round;stroke-linejoin:round;stroke-width:0.25px"/><g id="LWPOLYLINE-122" data-name="LWPOLYLINE"><rect x="421.626" y="351.387" width="19.585" height="25.506" style="fill:#b4c0be;stroke:#000;stroke-linecap:round;stroke-linejoin:round;stroke-width:0.25px"/></g><g id="LWPOLYLINE-123" data-name="LWPOLYLINE"><path d="M425.452,371.883a1.094,1.094,0,0,1-1.094-1.093v-13.3a1.094,1.094,0,0,1,1.094-1.093h9.837a.911.911,0,0,1,.911.911v13.664a.911.911,0,0,1-.911.911Z" style="fill:#b4c0be;stroke:#000;stroke-linecap:round;stroke-linejoin:round;stroke-width:0.25px"/></g><g id="ARC-53" data-name="ARC"><path d="M424.886,386.766c3.123-.345,11.373-.994,11.373-.994" style="fill:#b4c0be;stroke:#000;stroke-linecap:round;stroke-linejoin:round;stroke-width:0.25px"/></g><g id="ARC-54" data-name="ARC"><path d="M432.127,397.879a.834.834,0,0,1-.512.76q-.514.213-1.042.391a14.551,14.551,0,0,1-2.893.633q-.783.09-1.571.131a15.413,15.413,0,0,1-4.1-.339,9.983,9.983,0,0,1-5.237-3.026,4.731,4.731,0,0,1,.063-6.443,9.977,9.977,0,0,1,5.294-2.924,15.393,15.393,0,0,1,4.109-.259q.786.055,1.568.161a14.54,14.54,0,0,1,2.88.689q.524.188,1.034.411a.832.832,0,0,1,.5.77Z" style="fill:#b4c0be;stroke:#000;stroke-linecap:round;stroke-linejoin:round;stroke-width:0.25px"/></g><g id="ARC-55" data-name="ARC"><path d="M424.76,399.8c3.116.405,11.5,1,11.5,1" style="fill:#b4c0be;stroke:#000;stroke-linecap:round;stroke-linejoin:round;stroke-width:0.25px"/></g><g id="ARC-56" data-name="ARC"><path d="M436.116,385.779a1.085,1.085,0,0,0-1.026.954,55.44,55.44,0,0,0,0,13.112,1.085,1.085,0,0,0,1.026.954h-.023q1.688.081,3.377.122a1.446,1.446,0,0,0,1.47-1.321q.273-3.147.27-6.31t-.27-6.31a1.446,1.446,0,0,0-1.47-1.321q-1.689.04-3.377.122Z" style="fill:#b4c0be;stroke:#000;stroke-linecap:round;stroke-linejoin:round;stroke-width:0.25px"/></g><g id="ARC-57" data-name="ARC"><path d="M437.618,363.68a1.148,1.148,0,1,1,0,.919Z" style="fill:#b4c0be;stroke:#000;stroke-linecap:round;stroke-linejoin:round;stroke-width:0.25px"/></g><g id="ARC-58" data-name="ARC"><path d="M438.9,358.422a1.149,1.149,0,1,1-.459,0Z" style="fill:#b4c0be;stroke:#000;stroke-linecap:round;stroke-linejoin:round;stroke-width:0.25px"/></g><g id="ARC-59" data-name="ARC"><path d="M438.9,369.858a1.149,1.149,0,1,0-.459,0Z" style="fill:#b4c0be;stroke:#000;stroke-linecap:round;stroke-linejoin:round;stroke-width:0.25px"/></g><g id="LINE-57" data-name="LINE"><path d="M433.159,363.68h5.512a.46.46,0,0,1,0,.919h-5.512a.46.46,0,0,1,0-.919Z" style="fill:#b4c0be;stroke:#000;stroke-linecap:round;stroke-linejoin:round;stroke-width:0.25px"/></g><line x1="438.671" y1="359.558" x2="438.671" y2="356.332" style="fill:#b4c0be;stroke:#000;stroke-linecap:round;stroke-linejoin:round;stroke-width:0.25px"/><line x1="438.671" y1="371.948" x2="438.671" y2="368.721" style="fill:#b4c0be;stroke:#000;stroke-linecap:round;stroke-linejoin:round;stroke-width:0.25px"/><g id="LWPOLYLINE-124" data-name="LWPOLYLINE"><polygon points="302.368 415.513 302.368 412.7 316.279 412.7 316.279 406.958 295.571 406.958 295.571 403.208 292.055 403.208 292.055 409.77 269.555 409.77 269.555 361.606 292.055 361.606 292.055 369.458 295.571 369.458 295.571 339.927 299.321 339.927 299.321 336.411 295.571 336.411 295.571 325.63 292.055 325.63 292.055 329.38 260.532 329.38 260.532 332.895 266.04 332.895 266.04 366.645 223.032 366.645 223.032 332.895 226.782 332.895 226.782 329.38 143.462 329.38 143.462 325.63 137.72 325.63 137.72 329.38 132.095 329.38 132.095 332.895 213.423 332.895 213.423 402.27 177.798 402.27 177.798 368.066 174.282 368.066 174.282 402.27 37.173 402.27 37.173 332.895 98.345 332.895 98.345 329.38 92.72 329.38 92.72 286.02 89.204 286.02 89.204 306.411 37.173 306.411 37.173 248.52 89.204 248.522 89.204 252.27 92.72 252.27 92.72 241.255 89.204 241.255 89.204 245.005 3.071 245.005 3.071 186.88 89.204 186.88 89.204 207.505 92.72 207.505 92.72 186.88 98.345 186.88 98.345 183.364 3.071 183.364 3.071 57.622 25.454 57.622 25.454 22.7 21.704 22.7 20.454 24.903 18.838 26.854 16.906 28.492 14.717 29.766 12.339 30.639 9.845 31.082 7.312 31.082 4.819 30.639 2.44 29.766 0.2 28.448 0.2 247.876 34.302 247.876 34.302 410.825 213.423 410.825 213.423 415.512 302.229 415.513 302.368 415.513" style="fill:#dee2e1;stroke:#000;stroke-miterlimit:10;stroke-width:0.4px"/></g><g id="LWPOLYLINE-125" data-name="LWPOLYLINE"><polygon points="449.731 415.512 449.731 8.38 448.595 8.582 446.062 8.582 443.569 8.139 441.19 7.266 439.002 5.992 437.07 4.354 435.454 2.403 434.204 0.2 430.454 0.2 430.454 48.13 446.86 48.13 446.86 182.309 429.751 182.309 429.751 234.223 446.86 234.223 446.86 336.411 333.071 336.411 333.071 339.927 353.813 339.927 353.813 362.192 368.11 362.192 368.11 369.458 371.626 369.458 371.626 346.02 441.001 346.02 441.001 409.77 371.626 409.77 371.626 403.208 368.11 403.208 368.11 406.958 350.063 406.958 350.063 412.7 352.993 412.7 352.993 415.512 435.707 415.512 449.731 415.512" style="fill:#dee2e1;stroke:#000;stroke-miterlimit:10;stroke-width:0.4px"/></g><g id="LWPOLYLINE-126" data-name="LWPOLYLINE"><polygon points="295.571 291.88 295.571 181.958 287.72 181.958 287.72 48.13 317.954 48.13 317.954 0.2 314.204 0.2 312.954 2.403 311.338 4.354 309.254 6.08 307.217 7.266 304.839 8.139 302.345 8.582 299.812 8.582 297.319 8.139 294.94 7.266 292.752 5.992 290.82 4.354 289.204 2.403 287.954 0.2 284.204 0.2 284.204 181.958 209.321 181.958 209.321 185.473 213.071 185.473 213.071 243.833 216.587 243.833 216.587 185.473 274.712 185.473 274.712 217.583 285.962 217.583 285.962 281.333 216.587 281.333 216.587 277.583 213.071 277.583 213.071 284.614 209.321 284.614 209.321 288.13 292.055 288.13 292.055 291.88 295.571 291.88" style="fill:#dee2e1;stroke:#000;stroke-miterlimit:10;stroke-width:0.4px"/></g><g id="LWPOLYLINE-127" data-name="LWPOLYLINE"><polygon points="137.72 291.88 143.462 291.88 143.462 288.13 175.571 288.13 175.571 284.614 171.821 284.614 171.821 275.649 168.305 275.649 168.305 284.614 143.462 284.614 143.462 222.505 168.305 222.505 168.305 230.649 171.821 230.649 171.821 185.473 175.571 185.473 175.571 181.958 160.454 181.958 160.454 57.622 171.704 57.622 171.704 22.7 167.954 22.7 166.704 24.903 165.088 26.854 163.156 28.492 160.967 29.766 158.589 30.639 156.095 31.082 153.562 31.082 151.069 30.639 148.69 29.766 146.502 28.492 144.57 26.854 142.954 24.903 141.704 22.7 137.954 22.7 137.954 57.622 154.712 57.622 154.712 183.364 132.095 183.364 132.095 186.88 137.72 186.88 137.72 261.657 137.72 291.88" style="fill:#dee2e1;stroke:#000;stroke-miterlimit:10;stroke-width:0.4px"/></g><path d="M38.277,106.466h.879l1.815,4.446h.016l1.815-4.446h.88v5.6h-.664v-4.541H43l-1.887,4.541h-.28l-1.886-4.541h-.017v4.541h-.655Z"/><path d="M48.459,110.936H45.941l-.392,1.127h-.68l2.015-5.6h.64l2.007,5.6h-.679Zm-.2-.576-1.048-2.99H47.2l-1.048,2.99Z"/><path d="M50.259,110.208l.655-.111a1.465,1.465,0,0,0,1.656,1.463c.775,0,1.287-.36,1.287-.9,0-.568-.376-.879-1.543-1.247-1.335-.44-1.783-.831-1.783-1.583,0-.872.735-1.479,1.791-1.479a1.956,1.956,0,0,1,2.031,1.631l-.648.136a1.342,1.342,0,0,0-1.391-1.144c-.68,0-1.127.336-1.127.856,0,.431.319.663,1.343.983,1.455.472,1.983.96,1.983,1.839,0,.912-.792,1.536-1.951,1.536A2.055,2.055,0,0,1,50.259,110.208Z"/><path d="M57.138,107.09H55.4v-.624h4.149v.624H57.8v4.973h-.663Z"/><path d="M60.856,106.466h3.358v.624h-2.7v1.791h2.479v.592H61.512v1.967h2.7v.623H60.856Z"/><path d="M68.15,109.761l1.231,2.3h-.775l-1.184-2.271H66.3v2.271h-.656v-5.6h2.039c1.168,0,1.863.624,1.863,1.656a1.545,1.545,0,0,1-1.4,1.623Zm-.52-.592c.823,0,1.255-.36,1.255-1.047s-.424-1.032-1.255-1.032H66.3v2.079Z"/><path d="M35.762,116.058h2.15a1.457,1.457,0,0,1,1.632,1.447,1.194,1.194,0,0,1-.656,1.151v.016A1.34,1.34,0,0,1,39.751,120c0,1.08-.679,1.656-1.966,1.656H35.762Zm2.03,2.375c.729,0,1.088-.3,1.088-.9,0-.559-.368-.855-1.088-.855H36.417v1.751Zm-.095,2.6c.975,0,1.391-.312,1.391-1.032,0-.695-.391-.983-1.375-.983h-1.3v2.015Z"/><path d="M41.226,116.058h3.358v.624h-2.7v1.791H44.36v.591H41.881v1.967h2.7v.624H41.226Z"/><path d="M46.017,116.058H47.76c1.415,0,2.414,1.024,2.414,2.79,0,1.975-1,2.807-2.462,2.807h-1.7Zm1.655,4.973c1.135,0,1.839-.6,1.839-2.183,0-1.431-.7-2.166-1.791-2.166H46.672v4.349Z"/><path d="M54.148,119.352l1.23,2.3H54.6l-1.184-2.271H52.3v2.271h-.655v-5.6h2.039c1.167,0,1.862.624,1.862,1.655a1.544,1.544,0,0,1-1.4,1.623Zm-.521-.592c.825,0,1.256-.36,1.256-1.047s-.424-1.031-1.256-1.031H52.3v2.078Z"/><path d="M56.65,118.856c0-1.751.943-2.918,2.358-2.918s2.36,1.167,2.36,2.918-.944,2.919-2.36,2.919S56.65,120.607,56.65,118.856Zm4.053,0c0-1.415-.647-2.295-1.7-2.295s-1.694.88-1.694,2.295.647,2.3,1.694,2.3S60.7,120.271,60.7,118.856Z"/><path d="M62.551,118.856c0-1.751.943-2.918,2.359-2.918s2.358,1.167,2.358,2.918-.943,2.919-2.358,2.919S62.551,120.607,62.551,118.856Zm4.054,0c0-1.415-.648-2.295-1.7-2.295s-1.7.88-1.7,2.295.648,2.3,1.7,2.3S66.605,120.271,66.605,118.856Z"/><path d="M68.739,116.058h.879l1.815,4.445h.016l1.815-4.445h.88v5.6H73.48v-4.542h-.016l-1.887,4.542H71.3l-1.887-4.542h-.016v4.542h-.655Z"/><path d="M30.564,126.4l-1.248.808v-.7l1.327-.863h.584v5.6h-.663Z"/><path d="M32.658,129.384l.655-.1c.112.983.584,1.463,1.407,1.463a1.072,1.072,0,0,0,1.2-1.079c0-.76-.431-1.12-1.319-1.12h-.4v-.576h.4c.664,0,1.176-.4,1.176-.9,0-.576-.4-.928-1.064-.928a1.184,1.184,0,0,0-1.263,1.056l-.648-.1a1.8,1.8,0,0,1,1.911-1.567,1.54,1.54,0,0,1,1.728,1.487,1.35,1.35,0,0,1-.76,1.175v.016a1.49,1.49,0,0,1,.9,1.456,1.691,1.691,0,0,1-1.856,1.7A1.972,1.972,0,0,1,32.658,129.384Z"/><path d="M38.074,125.65h.583v1.783h-.583Z"/><path d="M39.633,128.056H41.72v.6H39.633Z"/><path d="M42.832,129.768l.648-.161a1.413,1.413,0,1,0,1.431-1.583,1.805,1.805,0,0,0-1.351.592l-.583-.144.535-2.822h2.935v.623H44.016l-.3,1.552.016.007a2.088,2.088,0,0,1,1.287-.383,1.877,1.877,0,0,1,1.943,1.926,1.929,1.929,0,0,1-2.047,1.992A1.957,1.957,0,0,1,42.832,129.768Z"/><path d="M48.052,125.65h.584v1.783h-.584Zm1.056,0h.584v1.783h-.584Z"/><path d="M53.069,129.807l1.31-1.295-1.31-1.3.391-.392,1.287,1.311,1.3-1.311.393.392-1.312,1.3,1.312,1.295-.393.392-1.3-1.311L53.46,130.2Z"/><path d="M60.292,126.4l-1.248.808v-.7l1.327-.863h.584v5.6h-.663Z"/><path d="M63.257,130.623h3.015v.624H62.554v-.528a2.02,2.02,0,0,1,.231-1.064c.2-.367.544-.639,1.423-1.095,1.161-.6,1.5-.936,1.5-1.5,0-.536-.487-.912-1.167-.912a1.3,1.3,0,0,0-1.4,1.36l-.663-.056a1.926,1.926,0,0,1,2.062-1.927,1.68,1.68,0,0,1,1.832,1.535c0,.823-.416,1.311-1.648,1.935-.935.472-1.191.655-1.335.935A1.559,1.559,0,0,0,63.257,130.623Z"/><path d="M67.934,125.65h.584v1.783h-.584Z"/><path d="M69.772,128.056h2.087v.6H69.772Z"/><path d="M77.072,128.112c0,2.271-.608,3.255-2.038,3.255a1.776,1.776,0,0,1-1.8-1.424l.608-.16a1.176,1.176,0,0,0,1.192.976c.886,0,1.3-.568,1.358-2.047h-.008a1.707,1.707,0,0,1-1.438.632,1.794,1.794,0,0,1-1.952-1.919,1.876,1.876,0,0,1,1.983-1.895C76.241,125.53,77.072,126.393,77.072,128.112Zm-.768-.647a1.251,1.251,0,0,0-1.327-1.328,1.312,1.312,0,1,0,1.327,1.328Z"/><path d="M78.5,125.65h.584v1.783H78.5Zm1.056,0h.584v1.783h-.584Z"/><path d="M312.29,359.458h3.367v.624h-2.71v2h2.486v.591h-2.486v2.383h-.657Z"/><path d="M317.211,362.256c0-1.751.945-2.918,2.36-2.918s2.358,1.167,2.358,2.918-.943,2.919-2.358,2.919S317.211,364.007,317.211,362.256Zm4.054,0c0-1.415-.647-2.294-1.694-2.294s-1.7.879-1.7,2.294.648,2.3,1.7,2.3S321.265,363.672,321.265,362.256Z"/><path d="M324.918,362.72l-1.959-3.262h.768l1.511,2.615h.016l1.519-2.615h.767l-1.959,3.262v2.335h-.663Z"/><path d="M329.187,359.458h3.358v.624h-2.7v1.791h2.479v.591h-2.479v1.967h2.7v.624h-3.358Z"/><path d="M336.961,362.752l1.232,2.3h-.776l-1.183-2.27h-1.119v2.27h-.657v-5.6H336.5c1.167,0,1.864.624,1.864,1.656a1.548,1.548,0,0,1-1.4,1.623Zm-.519-.591c.823,0,1.255-.36,1.255-1.047s-.424-1.032-1.255-1.032h-1.327v2.079Z"/><path d="M193.827,151.5h2.15a1.458,1.458,0,0,1,1.632,1.447,1.2,1.2,0,0,1-.657,1.152v.016a1.34,1.34,0,0,1,.864,1.327c0,1.08-.68,1.655-1.967,1.655h-2.022Zm2.03,2.375c.728,0,1.088-.3,1.088-.9,0-.56-.368-.856-1.088-.856h-1.375v1.751Zm-.1,2.6c.976,0,1.392-.312,1.392-1.032,0-.695-.392-.983-1.375-.983h-1.3v2.015Z"/><path d="M199.451,151.5h3.358v.624h-2.7v1.791h2.478v.592h-2.478v1.967h2.7v.623h-3.358Z"/><path d="M204.4,151.5h1.743c1.415,0,2.414,1.023,2.414,2.791,0,1.975-1,2.806-2.462,2.806h-1.7Zm1.655,4.974c1.135,0,1.839-.6,1.839-2.183,0-1.432-.7-2.167-1.791-2.167h-1.048v4.35Z"/><path d="M212.692,154.79l1.231,2.3h-.775l-1.184-2.271h-1.119v2.271h-.656v-5.6h2.039c1.168,0,1.863.624,1.863,1.655a1.544,1.544,0,0,1-1.4,1.623Zm-.52-.591c.823,0,1.255-.36,1.255-1.048s-.424-1.031-1.255-1.031h-1.327V154.2Z"/><path d="M215.355,154.295c0-1.751.943-2.919,2.358-2.919s2.359,1.168,2.359,2.919-.944,2.918-2.359,2.918S215.355,156.046,215.355,154.295Zm4.054,0c0-1.416-.648-2.295-1.7-2.295s-1.695.879-1.695,2.295.647,2.294,1.695,2.294S219.409,155.71,219.409,154.295Z"/><path d="M221.415,154.295c0-1.751.944-2.919,2.359-2.919s2.358,1.168,2.358,2.919-.943,2.918-2.358,2.918S221.415,156.046,221.415,154.295Zm4.054,0c0-1.416-.647-2.295-1.695-2.295s-1.7.879-1.7,2.295.648,2.294,1.7,2.294S225.469,155.71,225.469,154.295Z"/><path d="M227.763,151.5h.879l1.815,4.446h.016l1.815-4.446h.88v5.6H232.5v-4.541h-.015l-1.888,4.541h-.279l-1.887-4.541h-.017v4.541h-.655Z"/><path d="M238.2,156.47h3.014v.623H237.5v-.528a2.018,2.018,0,0,1,.233-1.063c.2-.368.543-.64,1.423-1.095,1.159-.6,1.5-.936,1.5-1.5,0-.536-.488-.912-1.167-.912a1.3,1.3,0,0,0-1.4,1.359l-.664-.056a1.929,1.929,0,0,1,2.064-1.927,1.68,1.68,0,0,1,1.831,1.536c0,.823-.416,1.311-1.648,1.935-.935.471-1.191.655-1.335.935A1.559,1.559,0,0,0,238.2,156.47Z"/><path d="M192.452,161.6l-1.249.808v-.7l1.328-.863h.584v5.6h-.663Z"/><path d="M195.889,161.6l-1.248.808v-.7l1.327-.863h.584v5.6h-.663Z"/><path d="M198.513,160.852h.584v1.783h-.584Z"/><path d="M200.233,163.258h2.087v.6h-2.087Z"/><path d="M203.766,163.65c0-1.815.9-2.918,2.215-2.918s2.215,1.1,2.215,2.918-.9,2.919-2.215,2.919C204.686,166.569,203.766,165.465,203.766,163.65Zm3.766,0c0-1.463-.616-2.3-1.551-2.3s-1.551.832-1.551,2.3.615,2.295,1.551,2.295S207.532,165.113,207.532,163.65Z"/><path d="M209.718,160.852h.583v1.783h-.583Zm1.056,0h.583v1.783h-.583Z"/><path d="M215.054,165.01l1.311-1.3-1.311-1.295.392-.392,1.287,1.311,1.295-1.311.392.392-1.311,1.295,1.311,1.3-.392.391-1.295-1.311-1.287,1.311Z"/><path d="M222.6,161.6l-1.247.808v-.7l1.327-.863h.584v5.6H222.6Z"/><path d="M225.723,165.825h3.014v.624h-3.718v-.528a2.022,2.022,0,0,1,.232-1.064c.2-.367.543-.639,1.423-1.095,1.159-.6,1.5-.935,1.5-1.5,0-.536-.487-.912-1.167-.912a1.3,1.3,0,0,0-1.4,1.36l-.664-.056A1.927,1.927,0,0,1,227,160.732a1.679,1.679,0,0,1,1.831,1.535c0,.824-.416,1.311-1.647,1.935-.936.472-1.192.655-1.335.936A1.551,1.551,0,0,0,225.723,165.825Z"/><path d="M230.56,160.852h.583v1.783h-.583Z"/><path d="M232.558,163.258h2.087v.6h-2.087Z"/><path d="M240.018,163.314c0,2.271-.608,3.255-2.039,3.255a1.775,1.775,0,0,1-1.8-1.424l.607-.16a1.176,1.176,0,0,0,1.192.976c.888,0,1.3-.567,1.359-2.047h-.008a1.71,1.71,0,0,1-1.439.632,1.794,1.794,0,0,1-1.951-1.919,1.877,1.877,0,0,1,1.983-1.9C239.186,160.732,240.018,161.6,240.018,163.314Zm-.768-.647a1.251,1.251,0,0,0-1.327-1.328,1.312,1.312,0,1,0,1.327,1.328Z"/><path d="M241.6,160.852h.584v1.783H241.6Zm1.056,0h.584v1.783h-.584Z"/><path d="M320.982,93.245h.655v4.973h2.527v.624h-3.182Z"/><path d="M325.635,93.245h.656v5.6h-.656Z"/><path d="M327.626,93.245h.7l1.663,4.717H330l1.671-4.717h.688l-2.015,5.6h-.7Z"/><path d="M333.707,93.245h.657v5.6h-.657Z"/><path d="M336.275,93.245h.775l2.543,4.566h.016V93.245h.664v5.6h-.784l-2.542-4.566h-.017v4.566h-.655Z"/><path d="M341.9,96.043c0-1.774.927-2.918,2.359-2.918a2.077,2.077,0,0,1,2.127,1.847l-.656.12a1.429,1.429,0,0,0-1.471-1.343c-1.048,0-1.695.879-1.695,2.294s.647,2.295,1.695,2.295a1.427,1.427,0,0,0,1.5-1.639h-1.424v-.624h2.072v.568a2.087,2.087,0,0,1-2.143,2.319C342.83,98.962,341.9,97.818,341.9,96.043Z"/><path d="M350.015,98.962l2.854-6.037.448.2-2.863,6.02Z"/><path d="M357.254,93.245H359c1.415,0,2.415,1.024,2.415,2.79,0,1.975-1,2.807-2.462,2.807h-1.7Zm1.656,4.973c1.135,0,1.838-.6,1.838-2.183,0-1.431-.7-2.166-1.791-2.166H357.91v4.349Z"/><path d="M363.052,93.245h.655v5.6h-.655Z"/><path d="M365.619,93.245h.775l2.543,4.566h.015V93.245h.665v5.6h-.785l-2.542-4.566h-.016v4.566h-.655Z"/><path d="M371.541,93.245h.657v5.6h-.657Z"/><path d="M374.109,93.245h.775l2.543,4.566h.016V93.245h.664v5.6h-.784l-2.542-4.566h-.017v4.566h-.655Z"/><path d="M379.737,96.043c0-1.774.927-2.918,2.359-2.918a2.077,2.077,0,0,1,2.127,1.847l-.656.12a1.429,1.429,0,0,0-1.471-1.343c-1.048,0-1.695.879-1.695,2.294s.647,2.295,1.695,2.295a1.427,1.427,0,0,0,1.5-1.639h-1.424v-.624h2.072v.568a2.087,2.087,0,0,1-2.143,2.319C380.664,98.962,379.737,97.818,379.737,96.043Z"/><path d="M390.911,96.539l1.232,2.3h-.775l-1.184-2.271h-1.119v2.271h-.656v-5.6h2.039c1.167,0,1.863.624,1.863,1.655a1.546,1.546,0,0,1-1.4,1.623Zm-.519-.592c.823,0,1.255-.36,1.255-1.047s-.424-1.031-1.255-1.031h-1.327v2.078Z"/><path d="M393.573,96.043c0-1.751.944-2.918,2.359-2.918s2.358,1.167,2.358,2.918-.943,2.919-2.358,2.919S393.573,97.794,393.573,96.043Zm4.054,0c0-1.415-.648-2.294-1.695-2.294s-1.695.879-1.695,2.294.647,2.295,1.695,2.295S397.627,97.458,397.627,96.043Z"/><path d="M399.634,96.043c0-1.751.944-2.918,2.36-2.918s2.358,1.167,2.358,2.918-.943,2.919-2.358,2.919S399.634,97.794,399.634,96.043Zm4.054,0c0-1.415-.648-2.294-1.694-2.294s-1.7.879-1.7,2.294.648,2.295,1.7,2.295S403.688,97.458,403.688,96.043Z"/><path d="M405.982,93.245h.88l1.814,4.445h.017l1.814-4.445h.88v5.6h-.664V94.3h-.016l-1.886,4.542h-.281L406.654,94.3h-.017v4.542h-.655Z"/><path d="M341.458,101.324l-1.247.807v-.695l1.327-.864h.583v5.6h-.663Z"/><path d="M346.34,105.025h-2.8v-.575l2.463-3.878h1v3.87h.712v.583H347v1.144h-.664Zm0-.583v-3.35h-.015l-2.127,3.35Z"/><path d="M349.072,100.572h.584v1.783h-.584Z"/><path d="M350.791,102.978h2.086v.6h-2.086Z"/><path d="M355.141,101.324l-1.247.807v-.695l1.327-.864h.583v5.6h-.663Z"/><path d="M357.768,100.572h.584v1.783h-.584Zm1.056,0h.583v1.783h-.583Z"/><path d="M363.1,104.729l1.311-1.294-1.311-1.3.392-.391,1.288,1.311,1.294-1.311.392.391-1.31,1.3,1.31,1.294-.392.393-1.294-1.312-1.288,1.312Z"/><path d="M371.287,101.324l-1.247.807v-.695l1.328-.864h.583v5.6h-.664Z"/><path d="M377.618,103.035c0,2.271-.608,3.254-2.04,3.254a1.775,1.775,0,0,1-1.8-1.423l.607-.16a1.176,1.176,0,0,0,1.191.975c.888,0,1.3-.568,1.36-2.047h-.008a1.709,1.709,0,0,1-1.439.632,1.794,1.794,0,0,1-1.951-1.919,1.877,1.877,0,0,1,1.983-1.895C376.786,100.452,377.618,101.315,377.618,103.035Zm-.768-.648a1.25,1.25,0,0,0-1.327-1.327,1.311,1.311,0,1,0,1.327,1.327Z"/><path d="M379.2,100.572h.584v1.783H379.2Z"/><path d="M381.2,102.978h2.086v.6H381.2Z"/><path d="M384.5,104.306l.656-.1c.112.984.584,1.463,1.407,1.463a1.072,1.072,0,0,0,1.2-1.079c0-.76-.432-1.12-1.319-1.12h-.4v-.575h.4c.664,0,1.175-.4,1.175-.9,0-.575-.4-.927-1.063-.927a1.184,1.184,0,0,0-1.264,1.055l-.647-.1a1.8,1.8,0,0,1,1.911-1.567,1.54,1.54,0,0,1,1.727,1.487,1.351,1.351,0,0,1-.759,1.176v.016a1.488,1.488,0,0,1,.894,1.455,1.689,1.689,0,0,1-1.854,1.7A1.973,1.973,0,0,1,384.5,104.306Z"/><path d="M390.064,100.572h.584v1.783h-.584Zm1.055,0h.584v1.783h-.584Z"/><path d="M421.805,325.076l1.231,2.3h-.776l-1.183-2.27h-1.12v2.27H419.3v-5.6h2.039c1.167,0,1.863.623,1.863,1.655a1.546,1.546,0,0,1-1.4,1.623Zm-.52-.592c.824,0,1.255-.36,1.255-1.047s-.423-1.032-1.255-1.032h-1.328v2.079Z"/><path d="M235.933,348.013h.68l.823,4.55h.016l1.383-4.55h.623l1.392,4.55h.017l.822-4.55h.68l-1.04,5.6h-.8l-1.375-4.493h-.017l-1.367,4.493h-.808Z"/><path d="M242.667,353.73l2.854-6.036.448.2-2.862,6.021Z"/><path d="M247.021,348.013h1.743c1.415,0,2.415,1.024,2.415,2.79,0,1.976-1,2.807-2.463,2.807h-1.7Zm1.655,4.974c1.136,0,1.839-.6,1.839-2.184,0-1.43-.7-2.166-1.791-2.166h-1.047v4.35Z"/><path d="M426.98,257.859l.656-.111a1.463,1.463,0,0,0,1.654,1.462c.776,0,1.287-.359,1.287-.9,0-.568-.375-.879-1.542-1.247-1.335-.44-1.784-.832-1.784-1.583,0-.872.737-1.479,1.791-1.479a1.955,1.955,0,0,1,2.032,1.63l-.648.137a1.342,1.342,0,0,0-1.391-1.144c-.68,0-1.127.336-1.127.856,0,.431.32.663,1.343.983,1.455.472,1.983.959,1.983,1.839,0,.911-.791,1.535-1.951,1.535A2.053,2.053,0,0,1,426.98,257.859Z"/><path d="M432.2,256.916c0-1.751.943-2.918,2.357-2.918s2.359,1.167,2.359,2.918-.943,2.918-2.359,2.918S432.2,258.667,432.2,256.916Zm4.052,0c0-1.416-.646-2.295-1.695-2.295s-1.694.879-1.694,2.295.647,2.294,1.694,2.294S436.251,258.331,436.251,256.916Z"/><path d="M437.446,259.834,440.3,253.8l.447.2-2.861,6.02Z"/><path d="M430.57,262.617h.678l.824,4.55h.016l1.384-4.55h.623l1.391,4.55h.016l.824-4.55h.679l-1.039,5.6h-.8l-1.375-4.493h-.016l-1.367,4.493H431.6Z"/><polygon points="326.605 429.536 332.005 415.136 337.405 429.536 326.605 429.536"/><g id="LINE-58" data-name="LINE"><line x1="400.527" y1="271.723" x2="400.527" y2="270.723" style="fill:none;stroke:#000;stroke-linecap:round;stroke-linejoin:round;stroke-width:0.25px"/><line x1="400.527" y1="268.538" x2="400.527" y2="256.519" style="fill:none;stroke:#000;stroke-linecap:round;stroke-linejoin:round;stroke-width:0.25px;stroke-dasharray:2.1852264404296875,2.1852264404296875"/><polyline points="400.527 255.427 400.527 254.427 401.527 254.427" style="fill:none;stroke:#000;stroke-linecap:round;stroke-linejoin:round;stroke-width:0.25px"/><line x1="403.311" y1="254.427" x2="416.691" y2="254.427" style="fill:none;stroke:#000;stroke-linecap:round;stroke-linejoin:round;stroke-width:0.25px;stroke-dasharray:1.7839332818984985,1.7839332818984985"/><polyline points="417.583 254.427 418.583 254.427 418.583 255.427" style="fill:none;stroke:#000;stroke-linecap:round;stroke-linejoin:round;stroke-width:0.25px"/><line x1="418.583" y1="257.612" x2="418.583" y2="269.631" style="fill:none;stroke:#000;stroke-linecap:round;stroke-linejoin:round;stroke-width:0.25px;stroke-dasharray:2.1852264404296875,2.1852264404296875"/><line x1="418.583" y1="270.723" x2="418.583" y2="271.723" style="fill:none;stroke:#000;stroke-linecap:round;stroke-linejoin:round;stroke-width:0.25px"/></g><path d="M404.135,259.969h1.743c1.415,0,2.414,1.024,2.414,2.791,0,1.975-1,2.806-2.462,2.806h-1.695Zm1.655,4.974c1.135,0,1.839-.6,1.839-2.183,0-1.431-.7-2.167-1.791-2.167H404.79v4.35Z"/><path d="M409.06,259.969h.68l.824,4.55h.015l1.383-4.55h.624l1.392,4.55h.016l.823-4.55h.679l-1.039,5.6h-.8l-1.375-4.493h-.016l-1.367,4.493h-.809Z"/></g></g></svg>