<svg xmlns="http://www.w3.org/2000/svg" viewBox="0 0 772.9 401.88"><defs><style>.cls-1,.cls-10,.cls-12,.cls-2,.cls-6{fill:#b4c0be;}.cls-1,.cls-10,.cls-11,.cls-12,.cls-13,.cls-14,.cls-15,.cls-16,.cls-3,.cls-6,.cls-7,.cls-8,.cls-9{stroke:#231f20;}.cls-1,.cls-10,.cls-12,.cls-13,.cls-14,.cls-16,.cls-3,.cls-7,.cls-8,.cls-9{stroke-linecap:round;}.cls-1,.cls-10,.cls-12,.cls-13,.cls-14,.cls-16,.cls-3,.cls-5,.cls-7,.cls-8,.cls-9{stroke-linejoin:round;}.cls-1,.cls-3,.cls-6{stroke-width:0.15px;}.cls-11,.cls-13,.cls-14,.cls-16,.cls-3,.cls-5,.cls-7,.cls-8,.cls-9{fill:none;}.cls-4{fill:#dadbcb;stroke:#fff;}.cls-11,.cls-15,.cls-4,.cls-6{stroke-miterlimit:10;}.cls-11,.cls-12,.cls-13,.cls-14,.cls-4,.cls-8{stroke-width:0.25px;}.cls-5{stroke:#787a62;}.cls-15,.cls-5,.cls-7{stroke-width:0.4px;}.cls-10,.cls-16,.cls-9{stroke-width:0.2px;}.cls-13{stroke-dasharray:2 2;}.cls-14{stroke-dasharray:2 2;}.cls-15{fill:#dee2e1;}.cls-16{stroke-dasharray:1.32 1.32;}.cls-17{fill:#231f20;}</style></defs><title>Asset 27</title><g id="Layer_2" data-name="Layer 2"><g id="Unit5E_Hover"><g id="LWPOLYLINE"><rect class="cls-1" x="200" y="253.93" width="56.25" height="15"/></g><g id="LWPOLYLINE-2" data-name="LWPOLYLINE"><path class="cls-1" d="M706,287.34v3.13a2.82,2.82,0,0,1-2.82,2.82h-60a2.81,2.81,0,0,1-2.81-2.82v-3.13a3.75,3.75,0,0,1,1.1-2.65l3.43-3.43a3.75,3.75,0,0,1,2.65-1.1H698.8a3.76,3.76,0,0,1,2.65,1.1l3.43,3.43A3.75,3.75,0,0,1,706,287.34Z"/></g><g id="LWPOLYLINE-3" data-name="LWPOLYLINE"><rect class="cls-1" x="644.97" y="228.95" width="56.25" height="15"/></g><g id="LWPOLYLINE-4" data-name="LWPOLYLINE"><path class="cls-1" d="M502.23,88.87a11.65,11.65,0,0,1,1.16-1.17,12,12,0,0,1,16.89,1.17l-1.06.92v10.9H503.29V89.79Z"/></g><g id="LWPOLYLINE-5" data-name="LWPOLYLINE"><path class="cls-1" d="M479.73,88.87a11.65,11.65,0,0,1,1.16-1.17,12,12,0,0,1,16.89,1.17l-1.06.92v10.9H480.79V89.79Z"/></g><g id="LWPOLYLINE-6" data-name="LWPOLYLINE"><path class="cls-1" d="M458.25,88.87a10.77,10.77,0,0,1,1.17-1.17,12,12,0,0,1,16.89,1.17l-1.06.92v10.9H459.31V89.79Z"/></g><g id="LWPOLYLINE-7" data-name="LWPOLYLINE"><path class="cls-1" d="M435.75,88.87a10.77,10.77,0,0,1,1.17-1.17,12,12,0,0,1,16.89,1.17l-1.06.92v10.9H436.81V89.79Z"/></g><g id="LWPOLYLINE-8" data-name="LWPOLYLINE"><path class="cls-1" d="M530.69,99.42a11.65,11.65,0,0,1,1.16,1.17,12,12,0,0,1-1.16,16.89l-.93-1.06h-10.9V100.48h10.9Z"/></g><g id="LWPOLYLINE-9" data-name="LWPOLYLINE"><rect class="cls-1" x="95.28" y="211.69" width="22.5" height="15.94"/></g><g id="LWPOLYLINE-10" data-name="LWPOLYLINE"><rect class="cls-1" x="95.28" y="188.25" width="22.5" height="15.94"/></g><g id="LWPOLYLINE-11" data-name="LWPOLYLINE"><rect class="cls-1" x="49.3" y="211.69" width="22.5" height="15.94"/></g><g id="LWPOLYLINE-12" data-name="LWPOLYLINE"><rect class="cls-1" x="49.3" y="188.25" width="22.5" height="15.94"/></g><g id="LWPOLYLINE-13" data-name="LWPOLYLINE"><rect class="cls-1" x="87.29" y="219.68" width="15.94" height="22.5"/></g><g id="LWPOLYLINE-14" data-name="LWPOLYLINE"><rect class="cls-1" x="63.85" y="219.68" width="15.94" height="22.5"/></g><g id="LWPOLYLINE-15" data-name="LWPOLYLINE"><rect class="cls-1" x="87.29" y="173.7" width="15.94" height="22.5"/></g><g id="LWPOLYLINE-16" data-name="LWPOLYLINE"><rect class="cls-1" x="63.85" y="173.7" width="15.94" height="22.5"/></g><g id="LWPOLYLINE-17" data-name="LWPOLYLINE"><rect class="cls-1" x="56.82" y="181.22" width="53.44" height="53.44"/></g><g id="LWPOLYLINE-18" data-name="LWPOLYLINE"><rect class="cls-1" x="200.2" y="140.27" width="56.25" height="15"/></g><g id="LWPOLYLINE-19" data-name="LWPOLYLINE"><rect class="cls-1" x="650.68" y="208.12" width="56.25" height="15"/></g><rect class="cls-1" x="655.72" y="218.67" width="44.9" height="1.76" transform="translate(1356.34 439.09) rotate(180)"/><rect class="cls-2" x="318.93" y="213.29" width="25.31" height="27.89"/><g id="LWPOLYLINE-20" data-name="LWPOLYLINE"><rect class="cls-1" x="565.39" y="182.2" width="37.84" height="12.71"/></g><g id="LWPOLYLINE-21" data-name="LWPOLYLINE"><rect class="cls-1" x="655.18" y="158.1" width="53.44" height="16.88" rx="1.88"/></g><g id="CIRCLE"><path class="cls-1" d="M677.68,161.85a.47.47,0,1,1-.47.47.47.47,0,0,1,.47-.47Z"/></g><g id="CIRCLE-2" data-name="CIRCLE"><path class="cls-1" d="M677.68,170.29a.47.47,0,1,1-.47.46.47.47,0,0,1,.47-.46Z"/></g><g id="CIRCLE-3" data-name="CIRCLE"><path class="cls-1" d="M686.12,161.85a.47.47,0,1,1-.47.47.47.47,0,0,1,.47-.47Z"/></g><g id="CIRCLE-4" data-name="CIRCLE"><path class="cls-1" d="M686.12,170.29a.47.47,0,1,1-.47.46.47.47,0,0,1,.47-.46Z"/></g><g id="CIRCLE-5" data-name="CIRCLE"><path class="cls-1" d="M694.56,161.85a.47.47,0,0,1,0,.94.47.47,0,0,1,0-.94Z"/></g><g id="CIRCLE-6" data-name="CIRCLE"><path class="cls-1" d="M694.56,170.29a.47.47,0,0,1,0,.93.47.47,0,1,1,0-.93Z"/></g><g id="CIRCLE-7" data-name="CIRCLE"><path class="cls-1" d="M703,161.85a.47.47,0,1,1-.47.47.47.47,0,0,1,.47-.47Z"/></g><g id="CIRCLE-8" data-name="CIRCLE"><path class="cls-1" d="M703,170.29a.47.47,0,1,1-.47.46.47.47,0,0,1,.47-.46Z"/></g><g id="CIRCLE-9" data-name="CIRCLE"><path class="cls-1" d="M669.24,161.85a.47.47,0,1,1-.47.47.47.47,0,0,1,.47-.47Z"/></g><g id="CIRCLE-10" data-name="CIRCLE"><path class="cls-1" d="M669.24,170.29a.47.47,0,1,1-.47.46.47.47,0,0,1,.47-.46Z"/></g><g id="CIRCLE-11" data-name="CIRCLE"><path class="cls-1" d="M660.81,161.85a.47.47,0,0,1,0,.94.47.47,0,0,1,0-.94Z"/></g><g id="CIRCLE-12" data-name="CIRCLE"><path class="cls-1" d="M660.81,170.29a.47.47,0,0,1,0,.93.47.47,0,1,1,0-.93Z"/></g><g id="CIRCLE-13" data-name="CIRCLE"><path class="cls-1" d="M677.68,161.85a.47.47,0,1,1-.47.47.47.47,0,0,1,.47-.47Z"/></g><g id="CIRCLE-14" data-name="CIRCLE"><path class="cls-1" d="M677.68,170.29a.47.47,0,1,1-.47.46.47.47,0,0,1,.47-.46Z"/></g><g id="CIRCLE-15" data-name="CIRCLE"><path class="cls-1" d="M686.12,161.85a.47.47,0,1,1-.47.47.47.47,0,0,1,.47-.47Z"/></g><g id="CIRCLE-16" data-name="CIRCLE"><path class="cls-1" d="M686.12,170.29a.47.47,0,1,1-.47.46.47.47,0,0,1,.47-.46Z"/></g><g id="CIRCLE-17" data-name="CIRCLE"><path class="cls-1" d="M694.56,161.85a.47.47,0,0,1,0,.94.47.47,0,0,1,0-.94Z"/></g><g id="CIRCLE-18" data-name="CIRCLE"><path class="cls-1" d="M694.56,170.29a.47.47,0,0,1,0,.93.47.47,0,1,1,0-.93Z"/></g><g id="CIRCLE-19" data-name="CIRCLE"><path class="cls-1" d="M703,161.85a.47.47,0,1,1-.47.47.47.47,0,0,1,.47-.47Z"/></g><g id="CIRCLE-20" data-name="CIRCLE"><path class="cls-1" d="M703,170.29a.47.47,0,1,1-.47.46.47.47,0,0,1,.47-.46Z"/></g><g id="CIRCLE-21" data-name="CIRCLE"><path class="cls-1" d="M669.24,161.85a.47.47,0,1,1-.47.47.47.47,0,0,1,.47-.47Z"/></g><g id="CIRCLE-22" data-name="CIRCLE"><path class="cls-1" d="M669.24,170.29a.47.47,0,1,1-.47.46.47.47,0,0,1,.47-.46Z"/></g><g id="CIRCLE-23" data-name="CIRCLE"><path class="cls-1" d="M660.81,161.85a.47.47,0,0,1,0,.94.47.47,0,0,1,0-.94Z"/></g><g id="CIRCLE-24" data-name="CIRCLE"><path class="cls-1" d="M660.81,170.29a.47.47,0,0,1,0,.93.47.47,0,1,1,0-.93Z"/></g><g id="LWPOLYLINE-22" data-name="LWPOLYLINE"><line class="cls-3" x1="505.14" y1="88.11" x2="505.14" y2="100.69"/></g><g id="LWPOLYLINE-23" data-name="LWPOLYLINE"><line class="cls-3" x1="517.37" y1="88.11" x2="517.37" y2="100.69"/></g><g id="LWPOLYLINE-24" data-name="LWPOLYLINE"><path class="cls-3" d="M519.22,89.79a10.57,10.57,0,0,0-14.91-1,9.92,9.92,0,0,0-1,1"/></g><g id="LWPOLYLINE-25" data-name="LWPOLYLINE"><line class="cls-3" x1="482.64" y1="88.11" x2="482.64" y2="100.69"/></g><g id="LWPOLYLINE-26" data-name="LWPOLYLINE"><line class="cls-3" x1="494.87" y1="88.11" x2="494.87" y2="100.69"/></g><g id="LWPOLYLINE-27" data-name="LWPOLYLINE"><path class="cls-3" d="M496.72,89.79a10.57,10.57,0,0,0-14.91-1,9.92,9.92,0,0,0-1,1"/></g><g id="LWPOLYLINE-28" data-name="LWPOLYLINE"><line class="cls-3" x1="461.16" y1="88.11" x2="461.16" y2="100.69"/></g><g id="LWPOLYLINE-29" data-name="LWPOLYLINE"><line class="cls-3" x1="473.4" y1="88.11" x2="473.4" y2="100.69"/></g><g id="LWPOLYLINE-30" data-name="LWPOLYLINE"><path class="cls-3" d="M475.25,89.79a10.57,10.57,0,0,0-14.91-1,10,10,0,0,0-1,1"/></g><g id="LWPOLYLINE-31" data-name="LWPOLYLINE"><line class="cls-3" x1="438.66" y1="88.11" x2="438.66" y2="100.69"/></g><g id="LWPOLYLINE-32" data-name="LWPOLYLINE"><line class="cls-3" x1="450.9" y1="88.11" x2="450.9" y2="100.69"/></g><g id="LWPOLYLINE-33" data-name="LWPOLYLINE"><path class="cls-3" d="M452.75,89.79a10.57,10.57,0,0,0-14.91-1,10,10,0,0,0-1,1"/></g><g id="LWPOLYLINE-34" data-name="LWPOLYLINE"><line class="cls-3" x1="531.44" y1="102.33" x2="518.86" y2="102.33"/></g><g id="LWPOLYLINE-35" data-name="LWPOLYLINE"><line class="cls-3" x1="531.44" y1="114.57" x2="518.86" y2="114.57"/></g><g id="LWPOLYLINE-36" data-name="LWPOLYLINE"><path class="cls-3" d="M529.76,116.42a10.55,10.55,0,0,0,1-14.91,11.13,11.13,0,0,0-1-1"/></g><g id="LINE"><line class="cls-3" x1="112.51" y1="211.69" x2="112.51" y2="227.63"/></g><g id="LINE-2" data-name="LINE"><line class="cls-3" x1="116.39" y1="211.69" x2="116.39" y2="227.63"/></g><g id="LINE-3" data-name="LINE"><line class="cls-3" x1="112.51" y1="188.25" x2="112.51" y2="204.19"/></g><g id="LINE-4" data-name="LINE"><line class="cls-3" x1="116.39" y1="188.25" x2="116.39" y2="204.19"/></g><g id="LINE-5" data-name="LINE"><line class="cls-3" x1="54.56" y1="211.69" x2="54.56" y2="227.63"/></g><g id="LINE-6" data-name="LINE"><line class="cls-3" x1="50.68" y1="211.69" x2="50.68" y2="227.63"/></g><g id="LINE-7" data-name="LINE"><line class="cls-3" x1="54.56" y1="188.25" x2="54.56" y2="204.19"/></g><g id="LINE-8" data-name="LINE"><line class="cls-3" x1="50.68" y1="188.25" x2="50.68" y2="204.19"/></g><g id="LINE-9" data-name="LINE"><line class="cls-3" x1="87.29" y1="236.91" x2="103.22" y2="236.91"/></g><g id="LINE-10" data-name="LINE"><line class="cls-3" x1="87.29" y1="240.8" x2="103.22" y2="240.8"/></g><g id="LINE-11" data-name="LINE"><line class="cls-3" x1="63.85" y1="236.91" x2="79.79" y2="236.91"/></g><g id="LINE-12" data-name="LINE"><line class="cls-3" x1="63.85" y1="240.8" x2="79.79" y2="240.8"/></g><g id="LINE-13" data-name="LINE"><line class="cls-3" x1="87.29" y1="178.97" x2="103.22" y2="178.97"/></g><g id="LINE-14" data-name="LINE"><line class="cls-3" x1="87.29" y1="175.08" x2="103.22" y2="175.08"/></g><g id="LINE-15" data-name="LINE"><line class="cls-3" x1="63.85" y1="178.97" x2="79.79" y2="178.97"/></g><g id="LINE-16" data-name="LINE"><line class="cls-3" x1="63.85" y1="175.08" x2="79.79" y2="175.08"/></g><g id="LWPOLYLINE-37" data-name="LWPOLYLINE"><path class="cls-1" d="M75.65,124.77a139.45,139.45,0,0,0-23.3,0,.85.85,0,0,0-.72.83v.8a.42.42,0,0,0-.42-.43H49.73a.42.42,0,0,0-.42.43v27.28a.42.42,0,0,0,.42.42H78.89a.42.42,0,0,0,.42-.42V126.4a.42.42,0,0,0-.42-.43H76.78a.42.42,0,0,0-.42.43v-.8A.85.85,0,0,0,75.65,124.77Z"/></g><g id="LINE-17" data-name="LINE"><line class="cls-3" x1="76.36" y1="154.1" x2="76.36" y2="126.4"/></g><g id="LINE-18" data-name="LINE"><line class="cls-3" x1="51.63" y1="125.97" x2="51.63" y2="154.1"/></g><g id="ARC"><path class="cls-3" d="M76.36,149a82,82,0,0,0-24.73,0"/></g><g id="ARC-2" data-name="ARC"><path class="cls-3" d="M76.36,152.41a208.2,208.2,0,0,0-24.73,0"/></g><g id="LWPOLYLINE-38" data-name="LWPOLYLINE"><path class="cls-1" d="M131.31,124.77a139.45,139.45,0,0,0-23.3,0,.85.85,0,0,0-.71.83v.8a.42.42,0,0,0-.42-.43H105.4a.42.42,0,0,0-.42.43v27.28a.42.42,0,0,0,.42.42h29.16a.42.42,0,0,0,.42-.42V126.4a.42.42,0,0,0-.42-.43h-2.11a.42.42,0,0,0-.42.43v-.8A.85.85,0,0,0,131.31,124.77Z"/></g><g id="LINE-19" data-name="LINE"><line class="cls-3" x1="132.03" y1="154.1" x2="132.03" y2="126.4"/></g><g id="LINE-20" data-name="LINE"><line class="cls-3" x1="107.3" y1="125.97" x2="107.3" y2="154.1"/></g><g id="ARC-3" data-name="ARC"><path class="cls-3" d="M132,149a82,82,0,0,0-24.73,0"/></g><g id="ARC-4" data-name="ARC"><path class="cls-3" d="M132,152.41a208.2,208.2,0,0,0-24.73,0"/></g><g id="WIPEOUT"><rect class="cls-1" x="282.04" y="82.49" width="19.69" height="18.52"/><polyline class="cls-1" points="282.04 82.49 282.04 101 301.72 101 301.72 82.49 282.04 82.49"/></g><g id="LINE-21" data-name="LINE"><line class="cls-3" x1="301.72" y1="99.83" x2="282.04" y2="99.83"/></g><g id="LINE-22" data-name="LINE"><line class="cls-3" x1="301.72" y1="83.66" x2="282.04" y2="83.66"/></g><g id="LINE-23" data-name="LINE"><line class="cls-3" x1="283.44" y1="83.66" x2="283.44" y2="99.83"/></g><g id="LINE-24" data-name="LINE"><line class="cls-3" x1="285.55" y1="83.66" x2="285.55" y2="99.83"/></g><g id="LWPOLYLINE-39" data-name="LWPOLYLINE"><rect class="cls-1" x="291.41" y="63.62" width="24.38" height="56.25"/></g><circle class="cls-4" cx="22.13" cy="310.04" r="12.24"/><path class="cls-5" d="M33.12,305.76a11.82,11.82,0,0,1-11,4.28"/><line class="cls-5" x1="29.23" y1="308.91" x2="33.89" y2="309.39"/><line class="cls-5" x1="27.18" y1="309.71" x2="29.46" y2="304.47"/><line class="cls-5" x1="24.86" y1="310.12" x2="33.56" y2="313.28"/><path class="cls-5" d="M12.14,304.6a11.82,11.82,0,0,1,10,5.44"/><line class="cls-5" x1="16.6" y1="305.45" x2="14.02" y2="301.81"/><line class="cls-5" x1="18.55" y1="306.47" x2="13.11" y2="308.21"/><line class="cls-5" x1="20.39" y1="307.94" x2="17.2" y2="299.77"/><path class="cls-5" d="M14.84,319.22A11.82,11.82,0,0,1,22.13,310"/><line class="cls-5" x1="16.58" y1="314.61" x2="12.73" y2="316.37"/><line class="cls-5" x1="17.95" y1="312.89" x2="18.63" y2="318.56"/><line class="cls-5" x1="19.74" y1="311.35" x2="11.12" y2="312.86"/><polyline class="cls-5" points="22.13 310.04 24.97 318.87 27.56 320.38"/><line class="cls-5" x1="23.21" y1="313.48" x2="28.64" y2="315.93"/><line class="cls-5" x1="23.75" y1="315.18" x2="19.81" y2="319.75"/><polyline class="cls-5" points="22.13 310.04 25.51 301.77 24.14 298.58"/><line class="cls-5" x1="23.7" y1="306.22" x2="22.02" y2="303.08"/><line class="cls-5" x1="25.04" y1="300.66" x2="21.44" y2="298.7"/><line class="cls-5" x1="24.06" y1="305.2" x2="27.43" y2="303.87"/><circle class="cls-4" cx="142.7" cy="380.02" r="12.24"/><path class="cls-5" d="M153.68,375.73a11.8,11.8,0,0,1-11,4.29"/><line class="cls-5" x1="149.79" y1="378.89" x2="154.45" y2="379.37"/><line class="cls-5" x1="147.75" y1="379.68" x2="150.02" y2="374.45"/><line class="cls-5" x1="145.42" y1="380.1" x2="154.13" y2="383.25"/><path class="cls-5" d="M132.71,374.57a11.86,11.86,0,0,1,10,5.45"/><line class="cls-5" x1="137.17" y1="375.43" x2="134.58" y2="371.79"/><line class="cls-5" x1="139.11" y1="376.45" x2="133.67" y2="378.19"/><line class="cls-5" x1="140.96" y1="377.92" x2="137.77" y2="369.75"/><path class="cls-5" d="M135.4,389.2a11.82,11.82,0,0,1,7.3-9.18"/><line class="cls-5" x1="137.15" y1="384.59" x2="133.29" y2="386.35"/><line class="cls-5" x1="138.51" y1="382.87" x2="139.2" y2="388.54"/><line class="cls-5" x1="140.31" y1="381.33" x2="131.68" y2="382.84"/><polyline class="cls-5" points="142.7 380.02 145.53 388.85 148.13 390.36"/><line class="cls-5" x1="143.78" y1="383.46" x2="149.21" y2="385.9"/><line class="cls-5" x1="144.32" y1="385.16" x2="140.38" y2="389.72"/><polyline class="cls-5" points="142.7 380.02 146.08 371.75 144.71 368.56"/><line class="cls-5" x1="144.27" y1="376.2" x2="142.58" y2="373.06"/><line class="cls-5" x1="145.6" y1="370.64" x2="142" y2="368.68"/><line class="cls-5" x1="144.63" y1="375.17" x2="148" y2="373.85"/><circle class="cls-4" cx="143.05" cy="247.94" r="12.24"/><path class="cls-5" d="M154,243.65a11.82,11.82,0,0,1-11,4.29"/><line class="cls-5" x1="150.14" y1="246.81" x2="154.8" y2="247.29"/><line class="cls-5" x1="148.09" y1="247.6" x2="150.37" y2="242.36"/><line class="cls-5" x1="145.77" y1="248.02" x2="154.48" y2="251.17"/><path class="cls-5" d="M133.05,242.49a11.87,11.87,0,0,1,10,5.45"/><line class="cls-5" x1="137.52" y1="243.35" x2="134.93" y2="239.7"/><line class="cls-5" x1="139.46" y1="244.36" x2="134.02" y2="246.1"/><line class="cls-5" x1="141.31" y1="245.84" x2="138.12" y2="237.67"/><path class="cls-5" d="M135.75,257.11a11.82,11.82,0,0,1,7.3-9.17"/><line class="cls-5" x1="137.5" y1="252.51" x2="133.64" y2="254.26"/><line class="cls-5" x1="138.86" y1="250.78" x2="139.55" y2="256.45"/><line class="cls-5" x1="140.65" y1="249.25" x2="132.03" y2="250.76"/><polyline class="cls-5" points="143.04 247.94 145.88 256.77 148.47 258.28"/><line class="cls-5" x1="144.13" y1="251.38" x2="149.56" y2="253.82"/><line class="cls-5" x1="144.67" y1="253.07" x2="140.73" y2="257.64"/><polyline class="cls-5" points="143.04 247.94 146.43 239.66 145.06 236.47"/><line class="cls-5" x1="144.62" y1="244.12" x2="142.93" y2="240.97"/><line class="cls-5" x1="145.95" y1="238.56" x2="142.35" y2="236.59"/><line class="cls-5" x1="144.98" y1="243.09" x2="148.35" y2="241.76"/><g id="LWPOLYLINE-40" data-name="LWPOLYLINE"><polygon class="cls-1" points="716.11 73.91 746.11 74.97 746 101.68 716 102.5 716.11 73.91"/></g><g id="LINE-25" data-name="LINE"><line class="cls-3" x1="716.09" y1="77.9" x2="746.09" y2="78.95"/></g><g id="LINE-26" data-name="LINE"><line class="cls-3" x1="741.87" y1="78.81" x2="741.8" y2="97.81"/></g><g id="LINE-27" data-name="LINE"><line class="cls-3" x1="746.02" y1="97.7" x2="716.01" y2="98.52"/></g><g id="LWPOLYLINE-41" data-name="LWPOLYLINE"><polygon class="cls-1" points="716.11 126.67 746.11 127.72 746 154.44 716 155.26 716.11 126.67"/></g><g id="LINE-28" data-name="LINE"><line class="cls-3" x1="716.09" y1="130.65" x2="746.09" y2="131.71"/></g><g id="LINE-29" data-name="LINE"><line class="cls-3" x1="741.87" y1="131.57" x2="741.8" y2="150.56"/></g><g id="LINE-30" data-name="LINE"><line class="cls-3" x1="746.02" y1="150.45" x2="716.01" y2="151.28"/></g><g id="LWPOLYLINE-42" data-name="LWPOLYLINE"><polygon class="cls-1" points="727.31 265.23 725.59 263.67 725.34 263.94 724.83 264.21 724.26 264.08 722.7 262.92 721.44 261.98 720.37 261.12 718.99 259.95 717.76 258.85 717.26 258.4 716.88 258.03 716.38 257.55 715.83 257.01 714.57 255.72 713.42 254.48 712.54 253.48 712.36 252.93 712.57 252.38 712.82 252.11 710.63 250.13 725.87 233.29 742.55 248.39 727.31 265.23"/></g><g id="LINE-31" data-name="LINE"><line class="cls-3" x1="728.06" y1="235.27" x2="712.83" y2="252.11"/></g><g id="LINE-32" data-name="LINE"><line class="cls-3" x1="725.59" y1="263.67" x2="740.83" y2="246.83"/></g><g id="ARC-5" data-name="ARC"><path class="cls-3" d="M724.67,239a40.08,40.08,0,0,0,12.77,11.57"/></g><g id="ARC-6" data-name="ARC"><path class="cls-3" d="M726.93,236.52a100.68,100.68,0,0,0,12.77,11.56"/></g><g id="LWPOLYLINE-43" data-name="LWPOLYLINE"><rect class="cls-1" x="637.54" y="295.26" width="71.25" height="80.63"/></g><g id="LWPOLYLINE-44" data-name="LWPOLYLINE"><rect class="cls-1" x="710.78" y="359.94" width="20.16" height="15.94"/></g><g id="LWPOLYLINE-45" data-name="LWPOLYLINE"><rect class="cls-1" x="615.39" y="359.94" width="20.16" height="15.94"/></g><g id="LWPOLYLINE-46" data-name="LWPOLYLINE"><rect class="cls-3" x="674.44" y="355.84" width="31.81" height="14.68"/></g><g id="LINE-33" data-name="LINE"><line class="cls-3" x1="637.54" y1="373.07" x2="708.79" y2="373.07"/></g><g id="LINE-34" data-name="LINE"><line class="cls-3" x1="637.54" y1="298.07" x2="708.79" y2="298.07"/></g><g id="LWPOLYLINE-47" data-name="LWPOLYLINE"><rect class="cls-3" x="640.08" y="355.84" width="31.81" height="14.68"/></g><g id="CIRCLE-25" data-name="CIRCLE"><path class="cls-1" d="M92.15,131.45a8.8,8.8,0,1,1-8.8,8.8,8.79,8.79,0,0,1,8.8-8.8Z"/></g><g id="CIRCLE-26" data-name="CIRCLE"><path class="cls-1" d="M119.66,308.42a8.8,8.8,0,1,1-8.79,8.8,8.8,8.8,0,0,1,8.79-8.8Z"/></g><circle class="cls-4" cx="19.81" cy="286.1" r="9"/><path class="cls-5" d="M11.46,288.41a8.65,8.65,0,0,1,8.35-2.31"/><line class="cls-5" x1="14.54" y1="286.39" x2="11.17" y2="285.69"/><line class="cls-5" x1="16.09" y1="285.96" x2="14.03" y2="289.62"/><line class="cls-5" x1="17.83" y1="285.83" x2="11.7" y2="282.87"/><path class="cls-5" d="M26.71,290.83a8.71,8.71,0,0,1-6.9-4.73"/><line class="cls-5" x1="23.51" y1="289.87" x2="25.13" y2="292.73"/><line class="cls-5" x1="22.16" y1="288.98" x2="26.27" y2="288.12"/><line class="cls-5" x1="20.93" y1="287.76" x2="22.65" y2="293.98"/><path class="cls-5" d="M25.84,279.94a8.7,8.7,0,0,1-6,6.16"/><line class="cls-5" x1="24.21" y1="283.17" x2="27.17" y2="282.18"/><line class="cls-5" x1="23.09" y1="284.33" x2="23.01" y2="280.13"/><line class="cls-5" x1="21.66" y1="285.32" x2="28.08" y2="284.87"/><polyline class="cls-5" points="19.81 286.1 18.41 279.43 16.62 278.13"/><line class="cls-5" x1="19.28" y1="283.5" x2="15.49" y2="281.3"/><line class="cls-5" x1="19.01" y1="282.22" x2="22.24" y2="279.17"/><polyline class="cls-5" points="19.81 286.1 16.72 291.89 17.48 294.33"/><line class="cls-5" x1="18.38" y1="288.77" x2="19.37" y2="291.2"/><line class="cls-5" x1="16.98" y1="292.74" x2="19.47" y2="294.45"/><line class="cls-5" x1="18.04" y1="289.5" x2="15.47" y2="290.21"/><circle class="cls-4" cx="146.84" cy="17.08" r="9"/><path class="cls-5" d="M138.49,19.38a8.67,8.67,0,0,1,8.35-2.3"/><line class="cls-5" x1="141.57" y1="17.37" x2="138.2" y2="16.67"/><line class="cls-5" x1="143.12" y1="16.94" x2="141.06" y2="20.6"/><line class="cls-5" x1="144.86" y1="16.81" x2="138.73" y2="13.85"/><path class="cls-5" d="M153.74,21.81a8.71,8.71,0,0,1-6.9-4.73"/><line class="cls-5" x1="150.54" y1="20.85" x2="152.16" y2="23.71"/><line class="cls-5" x1="149.19" y1="19.96" x2="153.3" y2="19.1"/><line class="cls-5" x1="147.96" y1="18.74" x2="149.68" y2="24.96"/><path class="cls-5" d="M152.87,10.91a8.7,8.7,0,0,1-6,6.17"/><line class="cls-5" x1="151.24" y1="14.15" x2="154.2" y2="13.16"/><line class="cls-5" x1="150.12" y1="15.31" x2="150.04" y2="11.11"/><line class="cls-5" x1="148.69" y1="16.3" x2="155.11" y2="15.84"/><polyline class="cls-5" points="146.84 17.07 145.43 10.4 143.65 9.11"/><line class="cls-5" x1="146.31" y1="14.48" x2="142.52" y2="12.28"/><line class="cls-5" x1="146.04" y1="13.2" x2="149.27" y2="10.15"/><polyline class="cls-5" points="146.84 17.07 143.75 22.87 144.51 25.31"/><line class="cls-5" x1="145.41" y1="19.75" x2="146.4" y2="22.18"/><line class="cls-5" x1="144.01" y1="23.72" x2="146.5" y2="25.42"/><line class="cls-5" x1="145.06" y1="20.48" x2="142.5" y2="21.19"/><g id="LWPOLYLINE-48" data-name="LWPOLYLINE"><polygon class="cls-1" points="45.99 105.69 15.82 105.69 15.82 12.28 126.34 12.28 126.34 42.44 45.99 42.44 45.99 105.69"/></g><g id="LWPOLYLINE-49" data-name="LWPOLYLINE"><rect class="cls-1" x="65.81" y="57.56" width="34.02" height="32.83"/></g><g id="LINE-35" data-name="LINE"><line class="cls-3" x1="18.93" y1="105.69" x2="18.93" y2="15.39"/></g><g id="LINE-36" data-name="LINE"><line class="cls-3" x1="15.82" y1="105.69" x2="15.82" y2="12.28"/></g><g id="LINE-37" data-name="LINE"><line class="cls-3" x1="15.82" y1="105.69" x2="45.99" y2="105.69"/></g><g id="LINE-38" data-name="LINE"><line class="cls-3" x1="18.93" y1="103.48" x2="45.99" y2="103.48"/></g><g id="LINE-39" data-name="LINE"><line class="cls-3" x1="18.93" y1="15.39" x2="126.34" y2="15.39"/></g><g id="LINE-40" data-name="LINE"><line class="cls-3" x1="15.82" y1="12.28" x2="126.34" y2="12.28"/></g><g id="LINE-41" data-name="LINE"><line class="cls-3" x1="124.13" y1="15.39" x2="124.13" y2="42.44"/></g><line class="cls-3" x1="45.99" y1="42.44" x2="45.99" y2="15.39"/><line class="cls-3" x1="18.93" y1="42.44" x2="45.99" y2="42.44"/><line class="cls-3" x1="71.15" y1="42.44" x2="71.15" y2="15.39"/><line class="cls-3" x1="98.97" y1="42.44" x2="98.97" y2="15.39"/><line class="cls-3" x1="45.99" y1="73.97" x2="18.93" y2="73.97"/><g id="LWPOLYLINE-50" data-name="LWPOLYLINE"><rect class="cls-1" x="200" y="295.26" width="56.25" height="80.63"/></g><g id="LINE-42" data-name="LINE"><line class="cls-3" x1="256.25" y1="373.07" x2="200" y2="373.07"/></g><g id="LINE-43" data-name="LINE"><line class="cls-3" x1="256.25" y1="298.07" x2="200" y2="298.07"/></g><g id="LWPOLYLINE-51" data-name="LWPOLYLINE"><rect class="cls-3" x="202.55" y="355.84" width="24.31" height="14.68"/></g><g id="LWPOLYLINE-52" data-name="LWPOLYLINE"><rect class="cls-3" x="229.4" y="355.84" width="24.31" height="14.68"/></g><g id="LWPOLYLINE-53" data-name="LWPOLYLINE"><rect class="cls-1" x="178.9" y="359.89" width="15.9" height="15.94"/></g><g id="LWPOLYLINE-54" data-name="LWPOLYLINE"><rect class="cls-1" x="261.04" y="359.89" width="15.9" height="15.94"/></g><g id="LWPOLYLINE-55" data-name="LWPOLYLINE"><rect class="cls-1" x="200" y="31.5" width="56.25" height="80.63"/></g><g id="LINE-44" data-name="LINE"><line class="cls-3" x1="200" y1="34.31" x2="256.25" y2="34.31"/></g><g id="LINE-45" data-name="LINE"><line class="cls-3" x1="200" y1="109.31" x2="256.25" y2="109.31"/></g><g id="LWPOLYLINE-56" data-name="LWPOLYLINE"><rect class="cls-3" x="229.4" y="36.85" width="24.31" height="14.68"/></g><g id="LWPOLYLINE-57" data-name="LWPOLYLINE"><rect class="cls-3" x="202.54" y="36.85" width="24.31" height="14.68"/></g><g id="LWPOLYLINE-58" data-name="LWPOLYLINE"><rect class="cls-1" x="261.45" y="31.54" width="15.9" height="15.94"/></g><g id="LWPOLYLINE-59" data-name="LWPOLYLINE"><rect class="cls-1" x="179.31" y="31.54" width="15.9" height="15.94"/></g><g id="LWPOLYLINE-60" data-name="LWPOLYLINE"><rect class="cls-1" x="319.07" y="52.66" width="15" height="78.16"/></g><rect class="cls-1" x="637.76" y="31.5" width="84.38" height="33.75"/><g id="LINE-46" data-name="LINE"><line class="cls-3" x1="667.44" y1="36.18" x2="667.44" y2="64.26"/></g><g id="LWPOLYLINE-61" data-name="LWPOLYLINE"><polyline class="cls-3" points="717.45 65.25 717.45 36.18 642.45 36.18 642.45 65.25"/></g><g id="ARC-7" data-name="ARC"><path class="cls-3" d="M643.38,40.68a59.62,59.62,0,0,0,23.13,0"/></g><g id="ARC-8" data-name="ARC"><path class="cls-3" d="M666.51,40.68a1.22,1.22,0,0,0,.93-1"/></g><g id="ARC-9" data-name="ARC"><path class="cls-3" d="M642.44,39.7a1.24,1.24,0,0,0,.94,1"/></g><g id="ARC-10" data-name="ARC"><path class="cls-3" d="M667.44,39.7a1.24,1.24,0,0,0,.94,1"/></g><g id="ARC-11" data-name="ARC"><path class="cls-3" d="M716.51,40.68a1.22,1.22,0,0,0,.93-1"/></g><g id="ARC-12" data-name="ARC"><path class="cls-3" d="M666.51,65.25a1.22,1.22,0,0,0,.93-1"/></g><g id="ARC-13" data-name="ARC"><path class="cls-3" d="M667.44,64.26a1.24,1.24,0,0,0,.94,1"/></g><g id="ARC-14" data-name="ARC"><path class="cls-3" d="M642.44,64.26a1.24,1.24,0,0,0,.94,1"/></g><g id="ARC-15" data-name="ARC"><path class="cls-3" d="M716.51,65.25a1.22,1.22,0,0,0,.93-1"/></g><g id="LINE-47" data-name="LINE"><line class="cls-3" x1="692.44" y1="36.18" x2="692.44" y2="64.26"/></g><g id="ARC-16" data-name="ARC"><path class="cls-3" d="M693.38,40.68a59.62,59.62,0,0,0,23.13,0"/></g><g id="ARC-17" data-name="ARC"><path class="cls-3" d="M692.44,39.7a1.24,1.24,0,0,0,.94,1"/></g><g id="ARC-18" data-name="ARC"><path class="cls-3" d="M691.51,40.68a1.22,1.22,0,0,0,.93-1"/></g><g id="ARC-19" data-name="ARC"><path class="cls-3" d="M692.44,64.26a1.24,1.24,0,0,0,.94,1"/></g><g id="ARC-20" data-name="ARC"><path class="cls-3" d="M691.51,65.25a1.22,1.22,0,0,0,.93-1"/></g><g id="ARC-21" data-name="ARC"><path class="cls-3" d="M668.38,40.68a59.62,59.62,0,0,0,23.13,0"/></g><g id="ARC-22" data-name="ARC"><path class="cls-3" d="M666.51,40.68a1.22,1.22,0,0,0,.93-1"/></g><g id="ARC-23" data-name="ARC"><path class="cls-3" d="M642.44,39.7a1.24,1.24,0,0,0,.94,1"/></g><g id="ARC-24" data-name="ARC"><path class="cls-3" d="M667.44,39.7a1.24,1.24,0,0,0,.94,1"/></g><g id="ARC-25" data-name="ARC"><path class="cls-3" d="M716.51,40.68a1.22,1.22,0,0,0,.93-1"/></g><g id="ARC-26" data-name="ARC"><path class="cls-3" d="M666.51,65.25a1.22,1.22,0,0,0,.93-1"/></g><g id="ARC-27" data-name="ARC"><path class="cls-3" d="M667.44,64.26a1.24,1.24,0,0,0,.94,1"/></g><g id="ARC-28" data-name="ARC"><path class="cls-3" d="M642.44,64.26a1.24,1.24,0,0,0,.94,1"/></g><g id="ARC-29" data-name="ARC"><path class="cls-3" d="M716.51,65.25a1.22,1.22,0,0,0,.93-1"/></g><g id="ARC-30" data-name="ARC"><path class="cls-3" d="M692.44,39.7a1.24,1.24,0,0,0,.94,1"/></g><g id="ARC-31" data-name="ARC"><path class="cls-3" d="M691.51,40.68a1.22,1.22,0,0,0,.93-1"/></g><g id="ARC-32" data-name="ARC"><path class="cls-3" d="M692.44,64.26a1.24,1.24,0,0,0,.94,1"/></g><g id="ARC-33" data-name="ARC"><path class="cls-3" d="M691.51,65.25a1.22,1.22,0,0,0,.93-1"/></g><path class="cls-6" d="M648.17,46.19s-6.85,5.28-5.56,7.94,10.46-7.24,10.46-7.24,4-3.91,2-4.65S648.17,46.19,648.17,46.19Z"/><path class="cls-6" d="M660.14,47.94s7.08-4.37,5.77-6.29-9.44,3.56-9.44,3.56-7.58,3.83-5.54,5.71S660.14,47.94,660.14,47.94Z"/><path class="cls-6" d="M701.07,42.55s.74,3.61,8.34,5.2,7.67,1.11,8,.31-2.25-4.2-9.2-5.23S701.38,41.29,701.07,42.55Z"/><g id="LWPOLYLINE-62" data-name="LWPOLYLINE"><rect class="cls-1" x="721.02" y="107.17" width="15.9" height="15.94"/></g><line class="cls-3" x1="637.52" y1="350.71" x2="708.77" y2="350.71"/><line class="cls-3" x1="637.52" y1="353.14" x2="708.77" y2="353.14"/><g id="LWPOLYLINE-63" data-name="LWPOLYLINE"><rect class="cls-1" x="58.71" y="328.32" width="73.12" height="34.69"/></g><g id="LWPOLYLINE-64" data-name="LWPOLYLINE"><rect class="cls-3" x="95.27" y="357.85" width="36.56" height="5.16"/></g><g id="LWPOLYLINE-65" data-name="LWPOLYLINE"><rect class="cls-3" x="95.28" y="328.32" width="36.56" height="5.16"/></g><g id="LINE-48" data-name="LINE"><line class="cls-3" x1="106.53" y1="333.48" x2="106.52" y2="357.85"/></g><g id="LINE-49" data-name="LINE"><line class="cls-3" x1="128.56" y1="333.48" x2="128.55" y2="357.86"/></g><g id="LINE-50" data-name="LINE"><line class="cls-3" x1="128.56" y1="333.48" x2="128.55" y2="357.86"/></g><g id="LWPOLYLINE-66" data-name="LWPOLYLINE"><rect class="cls-1" x="58.71" y="271.43" width="73.12" height="34.69"/></g><g id="LWPOLYLINE-67" data-name="LWPOLYLINE"><rect class="cls-3" x="95.27" y="300.97" width="36.56" height="5.16"/></g><g id="LWPOLYLINE-68" data-name="LWPOLYLINE"><rect class="cls-3" x="95.28" y="271.44" width="36.56" height="5.16"/></g><g id="LINE-51" data-name="LINE"><line class="cls-3" x1="106.53" y1="276.59" x2="106.52" y2="300.96"/></g><g id="LINE-52" data-name="LINE"><line class="cls-3" x1="128.56" y1="276.6" x2="128.55" y2="300.97"/></g><g id="LINE-53" data-name="LINE"><line class="cls-3" x1="128.56" y1="276.6" x2="128.55" y2="300.97"/></g><path class="cls-6" d="M690.78,82.53s9.93,1.76,7.17,11.82-11,27.27-21.66,30.79-16.67-21-16.67-21-4.75-12.76,9.3-18.17S690.78,82.53,690.78,82.53Z"/><g id="LWPOLYLINE-69" data-name="LWPOLYLINE"><path class="cls-1" d="M593.92,142.6l5.58-16.92,5.42,2.09a3.76,3.76,0,0,1,2.22,4.68l-3,9.25a3.76,3.76,0,0,1-4.56,2.44Z"/></g><g id="LWPOLYLINE-70" data-name="LWPOLYLINE"><path class="cls-1" d="M593.92,59.41l5.58,16.92,5.42-2.09a3.76,3.76,0,0,0,2.22-4.68l-3-9.25a3.75,3.75,0,0,0-4.56-2.44Z"/></g><g id="LWPOLYLINE-71" data-name="LWPOLYLINE"><path class="cls-1" d="M600.4,80.79l1.53,17.74,5.77-.79a3.74,3.74,0,0,0,3.22-4l-.84-9.7a3.75,3.75,0,0,0-3.87-3.43Z"/></g><g id="LWPOLYLINE-72" data-name="LWPOLYLINE"><path class="cls-1" d="M600.4,121.22l1.53-17.74,5.77.79a3.74,3.74,0,0,1,3.22,4l-.84,9.7a3.75,3.75,0,0,1-3.87,3.43Z"/></g><g id="LWPOLYLINE-73" data-name="LWPOLYLINE"><path class="cls-1" d="M574.69,142.6l-5.57-16.92-5.43,2.09a3.76,3.76,0,0,0-2.21,4.68l3,9.25a3.75,3.75,0,0,0,4.55,2.44Z"/></g><g id="LWPOLYLINE-74" data-name="LWPOLYLINE"><path class="cls-1" d="M574.69,59.41l-5.57,16.92-5.43-2.09a3.76,3.76,0,0,1-2.21-4.68l3-9.25a3.74,3.74,0,0,1,4.55-2.44Z"/></g><g id="LWPOLYLINE-75" data-name="LWPOLYLINE"><path class="cls-1" d="M568.22,80.79l-1.54,17.74-5.76-.79a3.76,3.76,0,0,1-3.23-4l.84-9.7a3.76,3.76,0,0,1,3.87-3.43Z"/></g><g id="LWPOLYLINE-76" data-name="LWPOLYLINE"><path class="cls-1" d="M568.22,121.22l-1.54-17.74-5.76.79a3.76,3.76,0,0,0-3.23,4l.84,9.7a3.76,3.76,0,0,0,3.87,3.43Z"/></g><g id="LWPOLYLINE-77" data-name="LWPOLYLINE"><path class="cls-1" d="M599.06,127l5.36,2.07A2.34,2.34,0,0,1,605.8,132l-3,9.25a2.35,2.35,0,0,1-2.85,1.52l-5.54-1.52"/></g><g id="LWPOLYLINE-78" data-name="LWPOLYLINE"><path class="cls-1" d="M599.06,75l5.36-2.07A2.35,2.35,0,0,0,605.8,70l-3-9.25a2.35,2.35,0,0,0-2.85-1.52l-5.54,1.52"/></g><g id="LWPOLYLINE-79" data-name="LWPOLYLINE"><path class="cls-1" d="M601.81,97.13l5.7-.78a2.34,2.34,0,0,0,2-2.53l-.84-9.7A2.34,2.34,0,0,0,606.26,82l-5.74.21"/></g><g id="LWPOLYLINE-80" data-name="LWPOLYLINE"><path class="cls-1" d="M601.81,104.88l5.7.78a2.34,2.34,0,0,1,2,2.53l-.84,9.7a2.34,2.34,0,0,1-2.42,2.14l-5.74-.21"/></g><g id="LWPOLYLINE-81" data-name="LWPOLYLINE"><path class="cls-1" d="M569.56,127l-5.36,2.07a2.34,2.34,0,0,0-1.39,2.92l3.05,9.25a2.35,2.35,0,0,0,2.85,1.52l5.54-1.52"/></g><g id="LWPOLYLINE-82" data-name="LWPOLYLINE"><path class="cls-1" d="M569.56,75l-5.36-2.07A2.34,2.34,0,0,1,562.81,70l3.05-9.25a2.35,2.35,0,0,1,2.85-1.52l5.54,1.52"/></g><g id="LWPOLYLINE-83" data-name="LWPOLYLINE"><path class="cls-1" d="M566.81,97.13l-5.7-.78a2.35,2.35,0,0,1-2-2.53l.84-9.7A2.34,2.34,0,0,1,562.35,82l5.75.21"/></g><g id="LWPOLYLINE-84" data-name="LWPOLYLINE"><path class="cls-1" d="M566.81,104.88l-5.7.78a2.35,2.35,0,0,0-2,2.53l.84,9.7a2.34,2.34,0,0,0,2.42,2.14l5.75-.21"/></g><g id="ELLIPSE"><path class="cls-1" d="M584.31,50.41c-10.36,0-18.75,22.65-18.75,50.59s8.39,50.59,18.75,50.59,18.75-22.65,18.75-50.59-8.4-50.59-18.75-50.59Z"/></g><line class="cls-3" x1="200" y1="53.92" x2="256.25" y2="53.92"/><line class="cls-3" x1="200" y1="56.35" x2="256.25" y2="56.35"/><line class="cls-3" x1="200" y1="350.71" x2="256.25" y2="350.71"/><line class="cls-3" x1="200" y1="353.14" x2="256.25" y2="353.14"/><g id="LWPOLYLINE-85" data-name="LWPOLYLINE"><polyline class="cls-7" points="755.83 97.7 750.2 97.7 750.2 33.95 755.83 33.95"/></g><g id="LWPOLYLINE-86" data-name="LWPOLYLINE"><line class="cls-7" x1="167.07" y1="360.49" x2="162.39" y2="360.49"/><line class="cls-7" x1="162.39" y1="270.49" x2="167.07" y2="270.49"/></g><g id="LWPOLYLINE-87" data-name="LWPOLYLINE"><polyline class="cls-7" points="755.83 195.2 750.2 195.2 750.2 131.45 755.83 131.45"/></g><g id="LWPOLYLINE-88" data-name="LWPOLYLINE"><polyline class="cls-7" points="755.83 281.92 750.2 281.92 750.2 228.95 755.83 228.95"/></g><g id="LWPOLYLINE-89" data-name="LWPOLYLINE"><polyline class="cls-7" points="755.83 368.64 750.2 368.64 750.2 315.67 755.83 315.67"/></g><g id="LWPOLYLINE-90" data-name="LWPOLYLINE"><polyline class="cls-7" points="167.07 181.39 177.39 181.39 177.39 220.76 167.07 220.76"/></g><g id="LWPOLYLINE-91" data-name="LWPOLYLINE"><rect class="cls-8" x="758.34" y="36.76" width="1.23" height="27.53"/></g><g id="LWPOLYLINE-92" data-name="LWPOLYLINE"><rect class="cls-8" x="758.34" y="67.35" width="1.23" height="27.54"/></g><g id="LWPOLYLINE-93" data-name="LWPOLYLINE"><polygon class="cls-8" points="164.56 299.59 164.56 273.3 163.32 273.3 163.32 274.24 163.32 298.89 163.32 299.59 164.56 299.59"/></g><g id="LWPOLYLINE-94" data-name="LWPOLYLINE"><polygon class="cls-8" points="164.56 357.68 164.56 302.17 163.32 302.17 163.32 302.87 163.32 357.68 164.56 357.68"/></g><g id="LWPOLYLINE-95" data-name="LWPOLYLINE"><rect class="cls-8" x="758.34" y="134.26" width="1.23" height="27.53"/></g><g id="LWPOLYLINE-96" data-name="LWPOLYLINE"><rect class="cls-8" x="758.34" y="164.85" width="1.23" height="27.54"/></g><g id="LWPOLYLINE-97" data-name="LWPOLYLINE"><rect class="cls-8" x="758.34" y="231.76" width="1.23" height="22.14"/></g><g id="LWPOLYLINE-98" data-name="LWPOLYLINE"><rect class="cls-8" x="758.34" y="256.96" width="1.23" height="22.15"/></g><g id="LWPOLYLINE-99" data-name="LWPOLYLINE"><rect class="cls-8" x="758.34" y="318.48" width="1.23" height="22.14"/></g><g id="LWPOLYLINE-100" data-name="LWPOLYLINE"><rect class="cls-8" x="758.34" y="343.68" width="1.23" height="22.15"/></g><g id="LWPOLYLINE-101" data-name="LWPOLYLINE"><rect class="cls-8" x="163.33" y="184.2" width="1.23" height="33.75"/></g><g id="LWPOLYLINE-102" data-name="LWPOLYLINE"><polygon class="cls-8" points="164.56 92.9 164.56 133.57 163.32 133.57 163.32 132.63 163.32 93.61 163.32 92.9 164.56 92.9"/></g><line class="cls-8" x1="755.82" y1="37.7" x2="755.82" y2="93.95"/><line class="cls-8" x1="755.82" y1="135.2" x2="755.82" y2="191.45"/><line class="cls-8" x1="755.82" y1="232.7" x2="755.82" y2="281.92"/><line class="cls-8" x1="755.82" y1="319.42" x2="755.82" y2="365.82"/><line class="cls-8" x1="167.07" y1="274.24" x2="167.07" y2="357.68"/><line class="cls-8" x1="167.07" y1="217.01" x2="167.07" y2="184.2"/><line class="cls-8" x1="167.07" y1="132.63" x2="167.07" y2="89.15"/><g id="LWPOLYLINE-103" data-name="LWPOLYLINE"><polyline class="cls-7" points="755.83 97.7 772.7 97.7 772.7 33.95 755.83 33.95"/></g><g id="LWPOLYLINE-104" data-name="LWPOLYLINE"><polyline class="cls-7" points="755.83 195.2 772.7 195.2 772.7 131.45 755.83 131.45"/></g><g id="LWPOLYLINE-105" data-name="LWPOLYLINE"><polyline class="cls-7" points="755.83 281.92 772.7 281.92 772.7 228.95 755.83 228.95"/></g><g id="LWPOLYLINE-106" data-name="LWPOLYLINE"><polyline class="cls-7" points="755.83 368.64 772.7 368.64 772.7 315.67 755.83 315.67"/></g><g id="LWPOLYLINE-107" data-name="LWPOLYLINE"><polyline class="cls-7" points="162.39 220.76 155.82 220.76 155.82 181.39 162.39 181.39"/></g><g id="LWPOLYLINE-108" data-name="LWPOLYLINE"><polyline class="cls-7" points="162.39 360.49 155.82 360.49 155.82 270.49 162.39 270.49"/></g><g id="LWPOLYLINE-109" data-name="LWPOLYLINE"><rect class="cls-9" x="283.56" y="310.1" width="1.64" height="22.5"/></g><g id="LWPOLYLINE-110" data-name="LWPOLYLINE"><rect class="cls-10" x="298.82" y="125.39" width="1.64" height="33.75" transform="translate(-12.83 253.55) rotate(-45)"/></g><g id="LWPOLYLINE-111" data-name="LWPOLYLINE"><rect class="cls-9" x="318.01" y="303.36" width="33.75" height="1.64"/></g><g id="LWPOLYLINE-112" data-name="LWPOLYLINE"><rect class="cls-10" x="348.92" y="26.2" width="1.64" height="33.75" transform="translate(71.98 259.92) rotate(-45)"/></g><g id="LWPOLYLINE-113" data-name="LWPOLYLINE"><rect class="cls-10" x="327.29" y="269.37" width="33.75" height="1.64" transform="translate(-90.25 322.49) rotate(-45)"/></g><g id="LWPOLYLINE-114" data-name="LWPOLYLINE"><rect class="cls-9" x="283.56" y="332.6" width="1.64" height="22.5"/></g><g id="LWPOLYLINE-115" data-name="LWPOLYLINE"><rect class="cls-9" x="314.73" y="204.24" width="33.75" height="1.64"/></g><g id="LWPOLYLINE-116" data-name="LWPOLYLINE"><rect class="cls-9" x="273.01" y="163.81" width="1.64" height="33.75"/></g><g id="LWPOLYLINE-117" data-name="LWPOLYLINE"><rect class="cls-9" x="401.45" y="206.68" width="1.64" height="22.5"/></g><g id="LWPOLYLINE-118" data-name="LWPOLYLINE"><rect class="cls-9" x="401.45" y="229.18" width="1.64" height="22.5"/></g><g id="LWPOLYLINE-119" data-name="LWPOLYLINE"><rect class="cls-10" x="401.67" y="284.41" width="33.75" height="1.64" transform="translate(-79.1 379.5) rotate(-45)"/></g><g id="LWPOLYLINE-120" data-name="LWPOLYLINE"><rect class="cls-9" x="521.45" y="303.36" width="33.75" height="1.64"/></g><g id="LWPOLYLINE-121" data-name="LWPOLYLINE"><rect class="cls-9" x="555.79" y="256.72" width="33.75" height="1.64"/></g><g id="LWPOLYLINE-122" data-name="LWPOLYLINE"><rect class="cls-9" x="494.15" y="256.72" width="33.75" height="1.64"/></g><g id="LWPOLYLINE-123" data-name="LWPOLYLINE"><rect class="cls-9" x="318.01" y="303.36" width="33.75" height="1.64"/></g><g id="LWPOLYLINE-124" data-name="LWPOLYLINE"><rect class="cls-9" x="521.45" y="303.36" width="33.75" height="1.64"/></g><g id="ARC-34" data-name="ARC"><path class="cls-9" d="M288.29,129.75a33.74,33.74,0,0,0-9.89,23.86"/></g><g id="ARC-35" data-name="ARC"><path class="cls-9" d="M361.1,55.59A33.76,33.76,0,0,0,371,31.72"/></g><g id="ARC-36" data-name="ARC"><path class="cls-9" d="M331.65,281.54a33.74,33.74,0,0,0,23.86,9.89"/></g><g id="ARC-37" data-name="ARC"><path class="cls-9" d="M431.06,273.87A33.76,33.76,0,0,0,407.19,264"/></g><g id="ARC-38" data-name="ARC"><path class="cls-9" d="M162.44,91.38a46.14,46.14,0,0,1-32.62-13.51"/></g><g id="LWPOLYLINE-125" data-name="LWPOLYLINE"><rect class="cls-10" x="124.74" y="63.31" width="42.77" height="1.68" transform="translate(-8.04 105.4) rotate(-38.68)"/></g><g id="LWPOLYLINE-126" data-name="LWPOLYLINE"><polygon class="cls-11" points="758.35 37.7 758.35 36.76 759.58 36.76 759.58 37.7 760.51 37.7 760.51 35.83 764.26 35.83 764.26 34.89 760.51 34.89 760.51 33.95 755.83 33.95 755.83 37.7 758.35 37.7"/></g><g id="LWPOLYLINE-127" data-name="LWPOLYLINE"><polyline class="cls-11" points="762.86 65.36 762.86 66.29 760.51 66.29 760.51 68.05 759.58 68.05 759.58 67.35 758.35 67.35 758.35 68.05 755.83 68.05 755.83 66.18 756.29 66.18 756.29 65.47 755.83 65.47 755.83 63.6 758.35 63.6 758.35 64.29 759.58 64.3 759.58 63.6 760.51 63.6 760.51 65.36 762.86 65.36"/></g><g id="LWPOLYLINE-128" data-name="LWPOLYLINE"><polygon class="cls-11" points="760.51 97.7 760.51 96.76 764.26 96.76 764.26 95.83 760.51 95.83 760.51 93.95 759.58 93.95 759.58 94.89 758.35 94.89 758.35 93.95 755.83 93.95 755.83 97.7 760.51 97.7"/></g><g id="LWPOLYLINE-129" data-name="LWPOLYLINE"><polygon class="cls-11" points="167.07 270.49 167.07 274.24 164.56 274.24 164.56 273.3 163.32 273.3 163.32 274.24 162.39 274.24 162.39 272.36 162.39 270.49 167.07 270.49"/></g><g id="LWPOLYLINE-130" data-name="LWPOLYLINE"><polygon class="cls-11" points="165.73 302.87 165.73 301.94 166.61 301.94 166.61 300.76 167.07 300.76 167.07 298.89 164.56 298.89 164.56 299.59 163.32 299.59 163.32 298.89 162.39 298.89 162.39 299.59 162.39 302.17 162.39 302.87 163.32 302.87 163.32 302.17 164.56 302.17 164.56 302.87 165.73 302.87"/></g><g id="LWPOLYLINE-131" data-name="LWPOLYLINE"><polygon class="cls-11" points="758.35 135.2 758.35 134.26 759.58 134.26 759.58 135.2 760.51 135.2 760.51 133.32 764.26 133.32 764.26 132.39 760.51 132.39 760.51 131.45 755.83 131.45 755.83 135.2 758.35 135.2"/></g><g id="LWPOLYLINE-132" data-name="LWPOLYLINE"><polyline class="cls-11" points="762.86 162.86 762.86 163.79 760.51 163.79 760.51 165.55 759.58 165.55 759.58 164.85 758.35 164.85 758.35 165.55 755.83 165.55 755.83 163.68 756.29 163.68 756.29 162.97 755.83 162.97 755.83 161.1 758.35 161.1 758.35 161.79 759.58 161.8 759.58 161.1 760.51 161.1 760.51 162.86 762.86 162.86"/></g><g id="LWPOLYLINE-133" data-name="LWPOLYLINE"><polygon class="cls-11" points="760.51 195.2 760.51 194.26 764.26 194.26 764.26 193.32 760.51 193.32 760.51 191.45 759.58 191.45 759.58 192.39 758.35 192.39 758.35 191.45 755.83 191.45 755.83 195.2 760.51 195.2"/></g><g id="LWPOLYLINE-134" data-name="LWPOLYLINE"><polygon class="cls-11" points="758.35 232.7 758.35 231.76 759.58 231.76 759.58 232.7 760.51 232.7 760.51 230.82 764.26 230.82 764.26 229.89 760.51 229.89 760.51 228.95 755.83 228.95 755.83 232.7 758.35 232.7"/></g><g id="LWPOLYLINE-135" data-name="LWPOLYLINE"><polyline class="cls-11" points="762.86 254.97 762.86 255.9 760.51 255.9 760.51 257.66 759.58 257.66 759.58 256.96 758.35 256.96 758.35 257.66 755.83 257.66 755.83 255.79 756.29 255.79 756.29 255.08 755.83 255.08 755.83 253.21 758.35 253.21 758.35 253.9 759.58 253.91 759.58 253.21 760.51 253.21 760.51 254.97 762.86 254.97"/></g><g id="LWPOLYLINE-136" data-name="LWPOLYLINE"><polygon class="cls-11" points="760.51 281.92 760.51 280.98 764.26 280.98 764.26 280.04 760.51 280.04 760.51 278.17 759.58 278.17 759.58 279.11 758.35 279.11 758.35 278.17 755.83 278.17 755.83 281.92 760.51 281.92"/></g><g id="LWPOLYLINE-137" data-name="LWPOLYLINE"><polygon class="cls-11" points="758.35 319.42 758.35 318.48 759.58 318.48 759.58 319.42 760.51 319.42 760.51 317.54 764.26 317.54 764.26 316.61 760.51 316.61 760.51 315.67 755.83 315.67 755.83 319.42 758.35 319.42"/></g><g id="LWPOLYLINE-138" data-name="LWPOLYLINE"><polyline class="cls-11" points="762.86 341.68 762.86 342.62 760.51 342.62 760.51 344.38 759.58 344.38 759.58 343.68 758.35 343.68 758.35 344.38 755.83 344.38 755.83 342.5 756.29 342.5 756.29 341.8 755.83 341.8 755.83 339.93 758.35 339.93 758.35 340.62 759.58 340.63 759.58 339.93 760.51 339.93 760.51 341.68 762.86 341.68"/></g><g id="LWPOLYLINE-139" data-name="LWPOLYLINE"><polygon class="cls-11" points="760.51 368.64 760.51 367.7 764.26 367.7 764.26 366.76 760.51 366.76 760.51 364.89 759.58 364.89 759.58 365.82 758.35 365.82 758.35 364.89 755.83 364.89 755.83 368.64 760.51 368.64"/></g><g id="LWPOLYLINE-140" data-name="LWPOLYLINE"><polygon class="cls-11" points="167.07 220.76 167.07 217.01 164.56 217.01 164.56 217.95 163.32 217.95 163.32 217.01 162.39 217.01 162.39 218.89 162.39 220.76 167.07 220.76"/></g><g id="LWPOLYLINE-141" data-name="LWPOLYLINE"><polygon class="cls-11" points="167.07 181.39 167.07 185.14 164.56 185.14 164.56 184.2 163.32 184.2 163.32 185.14 162.39 185.14 162.39 183.26 162.39 181.39 167.07 181.39"/></g><g id="LWPOLYLINE-142" data-name="LWPOLYLINE"><polygon class="cls-11" points="167.07 360.49 167.07 356.74 164.56 356.74 164.56 357.68 163.32 357.68 163.32 356.74 162.39 356.74 162.39 358.61 162.39 360.49 167.07 360.49"/></g><g id="LWPOLYLINE-143" data-name="LWPOLYLINE"><polygon class="cls-11" points="167.07 46.38 167.07 50.13 164.56 50.13 164.56 49.19 163.32 49.19 163.32 50.13 162.39 50.13 162.39 48.25 162.39 46.38 167.07 46.38"/></g><g id="LWPOLYLINE-144" data-name="LWPOLYLINE"><polygon class="cls-11" points="167.07 136.38 167.07 132.63 164.56 132.63 164.56 133.57 163.32 133.57 163.32 132.63 162.39 132.63 162.39 134.5 162.39 136.38 167.07 136.38"/></g><g id="LWPOLYLINE-145" data-name="LWPOLYLINE"><polyline class="cls-11" points="162.39 90.91 162.39 91.85 162.39 93.61 163.32 93.61 163.32 92.9 164.56 92.9 164.56 93.61 167.07 93.61 167.07 91.73 166.61 91.73 166.61 91.03 167.07 91.03 167.07 89.15 164.56 89.15 164.56 89.84 163.32 89.86 163.32 89.15 162.39 89.15 162.39 90.91"/></g><g id="LWPOLYLINE-146" data-name="LWPOLYLINE"><rect class="cls-8" x="565.51" y="306.96" width="25.05" height="62.74" rx="4.82"/></g><g id="CIRCLE-27" data-name="CIRCLE"><path class="cls-8" d="M577.7,360.85a2.11,2.11,0,1,1-2.11,2.11,2.11,2.11,0,0,1,2.11-2.11Z"/></g><g id="LWPOLYLINE-147" data-name="LWPOLYLINE"><rect class="cls-8" x="419.26" y="305" width="35.86" height="69.38"/></g><g id="LWPOLYLINE-148" data-name="LWPOLYLINE"><rect class="cls-8" x="455.12" y="305" width="0.59" height="0.94"/></g><g id="LWPOLYLINE-149" data-name="LWPOLYLINE"><rect class="cls-8" x="455.12" y="339.69" width="0.59" height="0.94"/></g><g id="LWPOLYLINE-150" data-name="LWPOLYLINE"><rect class="cls-8" x="455.12" y="305.94" width="0.59" height="33.75"/></g><g id="ARC-39" data-name="ARC"><path class="cls-8" d="M437.48,368.1a3.29,3.29,0,1,0-.79,0"/></g><g id="LWPOLYLINE-151" data-name="LWPOLYLINE"><path class="cls-8" d="M436.69,364.84V375h.77V364.84a.39.39,0,1,0-.77,0Z"/></g><g id="ARC-40" data-name="ARC"><path class="cls-12" d="M578.1,367.1a3.29,3.29,0,1,0-.79,0"/></g><g id="LWPOLYLINE-152" data-name="LWPOLYLINE"><path class="cls-12" d="M577.31,363.88V375h.78V363.88a.39.39,0,1,0-.78,0Z"/></g><g id="LWPOLYLINE-153" data-name="LWPOLYLINE"><path class="cls-8" d="M394.34,358.09h5.82a4.69,4.69,0,0,0,4.69-4.69V314.73a4.69,4.69,0,0,0-4.69-4.69H387.74a4.69,4.69,0,0,0-4.69,4.69V353.4a4.69,4.69,0,0,0,4.69,4.69h5.82"/></g><g id="ARC-41" data-name="ARC"><path class="cls-8" d="M394.35,355.91a3.29,3.29,0,1,0-.79,0"/></g><g id="LWPOLYLINE-154" data-name="LWPOLYLINE"><path class="cls-8" d="M393.56,352.68v10.95h.78V352.68a.39.39,0,1,0-.78,0Z"/></g><g id="LWPOLYLINE-155" data-name="LWPOLYLINE"><polyline class="cls-8" points="208.32 157.13 177.39 157.13 177.39 220.76 207.39 220.76"/></g><g id="LWPOLYLINE-156" data-name="LWPOLYLINE"><rect class="cls-8" x="206.63" y="219.82" width="0.83" height="0.94"/></g><g id="LWPOLYLINE-157" data-name="LWPOLYLINE"><rect class="cls-8" x="206.63" y="191.7" width="0.83" height="28.13"/></g><g id="LWPOLYLINE-158" data-name="LWPOLYLINE"><rect class="cls-8" x="206.63" y="157.95" width="0.83" height="33.75"/></g><g id="LWPOLYLINE-159" data-name="LWPOLYLINE"><rect class="cls-8" x="206.63" y="157.13" width="0.83" height="0.82"/></g><g id="ARC-42" data-name="ARC"><path class="cls-8" d="M193.73,214.48a3.29,3.29,0,1,0-.79,0"/></g><g id="LWPOLYLINE-160" data-name="LWPOLYLINE"><path class="cls-8" d="M192.94,211.22v10.17h.77V211.22a.39.39,0,0,0-.77,0Z"/></g><g id="LWPOLYLINE-161" data-name="LWPOLYLINE"><rect class="cls-8" x="560.83" y="305" width="34.69" height="69.37"/></g><g id="LWPOLYLINE-162" data-name="LWPOLYLINE"><rect class="cls-8" x="419.26" y="305" width="35.86" height="69.38"/></g><g id="LWPOLYLINE-163" data-name="LWPOLYLINE"><rect class="cls-8" x="378.95" y="305" width="30.94" height="58.12"/></g><g id="LINE-54" data-name="LINE"><line class="cls-12" x1="318.93" y1="241.18" x2="344.24" y2="241.18"/></g><g id="LINE-55" data-name="LINE"><line class="cls-12" x1="344.24" y1="241.18" x2="344.24" y2="213.29"/></g><g id="LINE-56" data-name="LINE"><line class="cls-12" x1="344.24" y1="213.29" x2="318.93" y2="213.29"/></g><g id="LINE-57" data-name="LINE"><line class="cls-12" x1="318.93" y1="213.29" x2="318.93" y2="241.18"/></g><g id="LWPOLYLINE-164" data-name="LWPOLYLINE"><rect class="cls-12" x="406.25" y="91.14" width="121.87" height="37.5"/></g><g id="LWPOLYLINE-165" data-name="LWPOLYLINE"><rect class="cls-12" x="404.97" y="169.89" width="151.52" height="23.44"/></g><g id="LWPOLYLINE-166" data-name="LWPOLYLINE"><polyline class="cls-8" points="441.92 112.26 441.92 125.21 466.19 125.21 466.19 112.26 441.92 112.26"/></g><rect class="cls-12" x="453.82" y="109.98" width="2.96" height="1.24" transform="translate(910.59 221.2) rotate(180)"/><path class="cls-12" d="M453.17,111.1a.93.93,0,0,0,.28.28v6.23a.45.45,0,0,0,.9,0v-6.23a.86.86,0,1,0-1.18-.28Z"/><g id="CIRCLE-28" data-name="CIRCLE"><path class="cls-8" d="M490.94,175.88a.84.84,0,1,1,.84-.84.84.84,0,0,1-.84.84Z"/></g><g id="CIRCLE-29" data-name="CIRCLE"><path class="cls-8" d="M485.69,175.88a.84.84,0,1,1,.84-.84.84.84,0,0,1-.84.84Z"/></g><g id="CIRCLE-30" data-name="CIRCLE"><path class="cls-8" d="M485.69,179.32a.84.84,0,1,1,.84-.84.84.84,0,0,1-.84.84Z"/></g><g id="CIRCLE-31" data-name="CIRCLE"><path class="cls-8" d="M488.32,179.32a.84.84,0,1,1,.83-.84.83.83,0,0,1-.83.84Z"/></g><g id="CIRCLE-32" data-name="CIRCLE"><path class="cls-8" d="M490.94,179.32a.84.84,0,1,1,.84-.84.84.84,0,0,1-.84.84Z"/></g><g id="LWPOLYLINE-167" data-name="LWPOLYLINE"><rect class="cls-8" x="472.12" y="171.59" width="32.39" height="19.24" rx="0.45"/></g><circle class="cls-8" cx="477.9" cy="185.85" r="1.59"/><path class="cls-8" d="M482.69,182v7a.68.68,0,0,1-.68.66h-8.22a.68.68,0,0,1-.69-.66v-7a.06.06,0,0,1,.06-.05h9.47A.06.06,0,0,1,482.69,182Z"/><circle class="cls-8" cx="488.32" cy="185.85" r="1.59"/><path class="cls-8" d="M493.11,182v7a.68.68,0,0,1-.68.66H484.2a.68.68,0,0,1-.68-.66v-7a.06.06,0,0,1,.06-.05h9.47A.06.06,0,0,1,493.11,182Z"/><circle class="cls-8" cx="498.73" cy="185.85" r="1.59"/><path class="cls-8" d="M503.53,182v7a.68.68,0,0,1-.69.66h-8.22a.68.68,0,0,1-.68-.66v-7A.06.06,0,0,1,494,182h9.47A.06.06,0,0,1,503.53,182Z"/><circle class="cls-8" cx="498.73" cy="176.76" r="1.59"/><path class="cls-8" d="M493.94,180.58v-7a.68.68,0,0,1,.68-.67h8.22a.68.68,0,0,1,.69.67v7a.06.06,0,0,1-.06,0H494A.06.06,0,0,1,493.94,180.58Z"/><circle class="cls-8" cx="477.9" cy="176.76" r="1.59"/><path class="cls-8" d="M473.1,180.58v-7a.68.68,0,0,1,.69-.67H482a.68.68,0,0,1,.68.67v7a.06.06,0,0,1-.06,0h-9.47A.06.06,0,0,1,473.1,180.58Z"/><g id="LINE-59" data-name="LINE"><line class="cls-8" x1="439.89" y1="181.13" x2="440.89" y2="181.13"/><line class="cls-13" x1="442.89" y1="181.13" x2="529.83" y2="181.13"/><line class="cls-8" x1="530.83" y1="181.13" x2="531.83" y2="181.13"/></g><line class="cls-8" x1="439.89" y1="169.89" x2="439.89" y2="197"/><line class="cls-8" x1="531.76" y1="169.89" x2="531.76" y2="194.52"/><g id="LWPOLYLINE-168" data-name="LWPOLYLINE"><line class="cls-14" x1="298.32" y1="359.03" x2="298.32" y2="305"/></g><g id="LWPOLYLINE-169" data-name="LWPOLYLINE"><line class="cls-14" x1="418.44" y1="255.67" x2="418.44" y2="202.7"/></g><g id="LWPOLYLINE-170" data-name="LWPOLYLINE"><line class="cls-14" x1="595.51" y1="209.85" x2="560" y2="209.85"/></g><g id="LWPOLYLINE-171" data-name="LWPOLYLINE"><line class="cls-14" x1="546.41" y1="224.38" x2="546.41" y2="256.72"/></g><g id="LWPOLYLINE-172" data-name="LWPOLYLINE"><polyline class="cls-14" points="531.64 213.95 470.24 213.95 470.24 256.72"/></g><g id="LWPOLYLINE-173" data-name="LWPOLYLINE"><polyline class="cls-14" points="415.63 128.64 415.63 100.51 518.75 100.51 518.75 128.64"/></g><polyline class="cls-14" points="418.44 128.64 418.44 107.67 437.05 107.67 437.05 128.64"/><polyline class="cls-14" points="471.99 128.52 471.99 107.67 495.93 107.67 495.93 128.52"/><line class="cls-14" x1="495.75" y1="107.67" x2="518.75" y2="107.67"/><g id="LINE-60" data-name="LINE"><line class="cls-11" x1="305.44" y1="355.08" x2="292.38" y2="355.08"/></g><g id="LINE-61" data-name="LINE"><line class="cls-11" x1="305.44" y1="352.66" x2="292.38" y2="352.66"/></g><g id="LINE-62" data-name="LINE"><line class="cls-11" x1="305.44" y1="350.24" x2="292.38" y2="350.24"/></g><g id="LINE-63" data-name="LINE"><line class="cls-11" x1="305.44" y1="347.82" x2="292.38" y2="347.82"/></g><g id="LINE-64" data-name="LINE"><line class="cls-11" x1="305.44" y1="345.4" x2="292.38" y2="345.4"/></g><g id="LINE-65" data-name="LINE"><line class="cls-11" x1="292.38" y1="342.99" x2="305.44" y2="342.99"/></g><g id="LINE-66" data-name="LINE"><line class="cls-11" x1="424.97" y1="251.72" x2="411.91" y2="251.72"/></g><g id="LINE-67" data-name="LINE"><line class="cls-11" x1="424.97" y1="249.3" x2="411.92" y2="249.3"/></g><g id="LINE-68" data-name="LINE"><line class="cls-11" x1="424.97" y1="246.88" x2="411.92" y2="246.88"/></g><g id="LINE-69" data-name="LINE"><line class="cls-11" x1="424.97" y1="244.46" x2="411.92" y2="244.46"/></g><g id="LINE-70" data-name="LINE"><line class="cls-11" x1="424.97" y1="242.05" x2="411.92" y2="242.04"/></g><g id="LINE-71" data-name="LINE"><line class="cls-11" x1="411.92" y1="239.63" x2="424.97" y2="239.63"/></g><g id="LINE-72" data-name="LINE"><line class="cls-11" x1="476.77" y1="252.78" x2="463.71" y2="252.78"/></g><g id="LINE-73" data-name="LINE"><line class="cls-11" x1="476.77" y1="250.36" x2="463.71" y2="250.36"/></g><g id="LINE-74" data-name="LINE"><line class="cls-11" x1="476.77" y1="247.94" x2="463.71" y2="247.94"/></g><g id="LINE-75" data-name="LINE"><line class="cls-11" x1="476.77" y1="245.52" x2="463.71" y2="245.52"/></g><g id="LINE-76" data-name="LINE"><line class="cls-11" x1="476.77" y1="243.1" x2="463.71" y2="243.1"/></g><g id="LINE-77" data-name="LINE"><line class="cls-11" x1="463.71" y1="240.68" x2="476.77" y2="240.68"/></g><g id="LINE-78" data-name="LINE"><line class="cls-11" x1="527.7" y1="207.42" x2="527.7" y2="220.48"/></g><g id="LINE-79" data-name="LINE"><line class="cls-11" x1="525.28" y1="207.42" x2="525.28" y2="220.48"/></g><g id="LINE-80" data-name="LINE"><line class="cls-11" x1="522.86" y1="207.42" x2="522.86" y2="220.48"/></g><g id="LINE-81" data-name="LINE"><line class="cls-11" x1="520.44" y1="207.42" x2="520.44" y2="220.48"/></g><g id="LINE-82" data-name="LINE"><line class="cls-11" x1="518.02" y1="207.42" x2="518.02" y2="220.48"/></g><g id="LINE-83" data-name="LINE"><line class="cls-11" x1="515.6" y1="220.48" x2="515.6" y2="207.42"/></g><g id="LINE-84" data-name="LINE"><line class="cls-11" x1="591.57" y1="203.32" x2="591.57" y2="216.38"/></g><g id="LINE-85" data-name="LINE"><line class="cls-11" x1="589.15" y1="203.32" x2="589.15" y2="216.38"/></g><g id="LINE-86" data-name="LINE"><line class="cls-11" x1="586.73" y1="203.32" x2="586.73" y2="216.38"/></g><g id="LINE-87" data-name="LINE"><line class="cls-11" x1="584.31" y1="203.32" x2="584.31" y2="216.38"/></g><g id="LINE-88" data-name="LINE"><line class="cls-11" x1="581.89" y1="203.32" x2="581.89" y2="216.38"/></g><g id="LINE-89" data-name="LINE"><line class="cls-11" x1="579.47" y1="216.38" x2="579.47" y2="203.32"/></g><g id="LINE-90" data-name="LINE"><line class="cls-11" x1="552.94" y1="252.78" x2="539.88" y2="252.78"/></g><g id="LINE-91" data-name="LINE"><line class="cls-11" x1="552.94" y1="250.36" x2="539.88" y2="250.36"/></g><g id="LINE-92" data-name="LINE"><line class="cls-11" x1="552.94" y1="247.94" x2="539.88" y2="247.94"/></g><g id="LINE-93" data-name="LINE"><line class="cls-11" x1="552.94" y1="243.1" x2="539.88" y2="243.1"/></g><g id="LINE-94" data-name="LINE"><line class="cls-11" x1="552.94" y1="245.52" x2="539.88" y2="245.52"/></g><g id="LINE-95" data-name="LINE"><line class="cls-11" x1="539.88" y1="240.68" x2="552.94" y2="240.68"/></g><g id="LINE-96" data-name="LINE"><line class="cls-11" x1="305.44" y1="350.24" x2="292.38" y2="350.24"/></g><g id="ARC-43" data-name="ARC"><path class="cls-12" d="M480.4,357.81c.35,3.15,1,11.49,1,11.49"/></g><g id="ARC-44" data-name="ARC"><path class="cls-12" d="M469.17,365.13a.85.85,0,0,1-.77-.52c-.14-.35-.28-.7-.4-1.05a15.65,15.65,0,0,1-.64-2.93c-.06-.53-.1-1.06-.13-1.59a15.64,15.64,0,0,1,.34-4.15,10.09,10.09,0,0,1,3.06-5.29,4.79,4.79,0,0,1,6.52.06,10.18,10.18,0,0,1,3,5.35,15.7,15.7,0,0,1,.26,4.16c0,.53-.1,1.06-.17,1.58a14.6,14.6,0,0,1-.69,2.92c-.13.35-.27.7-.42,1a.82.82,0,0,1-.78.5Z"/></g><g id="ARC-45" data-name="ARC"><path class="cls-12" d="M467.22,357.68c-.41,3.15-1,11.62-1,11.62"/></g><g id="ARC-46" data-name="ARC"><path class="cls-12" d="M481.4,369.16a1.1,1.1,0,0,0-1-1,56.55,56.55,0,0,0-13.26,0,1.1,1.1,0,0,0-1,1v0c-.06,1.13-.1,2.27-.13,3.41a1.47,1.47,0,0,0,1.34,1.49q3.18.27,6.38.27t6.38-.27a1.46,1.46,0,0,0,1.33-1.49c0-1.14-.06-2.28-.12-3.41Z"/></g><g id="LWPOLYLINE-174" data-name="LWPOLYLINE"><path class="cls-8" d="M511.82,367.86h-8.29a.92.92,0,0,1-.92-.92V355.89a.92.92,0,0,1,.92-.92H521a.92.92,0,0,1,.92.92v11.05a.92.92,0,0,1-.92.92h-9.21Z"/></g><g id="ARC-47" data-name="ARC"><path class="cls-12" d="M512.74,370.16a1.16,1.16,0,1,1-.93,0Z"/></g><g id="ARC-48" data-name="ARC"><path class="cls-12" d="M518.06,371.45a1.16,1.16,0,1,1,0-.46Z"/></g><g id="ARC-49" data-name="ARC"><path class="cls-12" d="M506.49,371.45a1.16,1.16,0,1,0,0-.46Z"/></g><g id="LINE-97" data-name="LINE"><path class="cls-12" d="M512.74,365.65v5.57a.47.47,0,1,1-.93,0v-5.57a.47.47,0,0,1,.93,0Z"/></g><line class="cls-12" x1="516.91" y1="371.22" x2="520.17" y2="371.22"/><line class="cls-12" x1="504.38" y1="371.22" x2="507.64" y2="371.22"/><g id="LWPOLYLINE-175" data-name="LWPOLYLINE"><path class="cls-8" d="M539.43,367.86h-8.29a.92.92,0,0,1-.92-.92V355.89a.92.92,0,0,1,.92-.92h17.5a.92.92,0,0,1,.92.92v11.05a.92.92,0,0,1-.92.92h-9.21Z"/></g><g id="LWPOLYLINE-176" data-name="LWPOLYLINE"><rect class="cls-8" x="490.39" y="352.21" width="66.31" height="22.1"/></g><g id="ARC-50" data-name="ARC"><path class="cls-12" d="M540.59,370.16a1.16,1.16,0,1,1-.93,0Z"/></g><g id="ARC-51" data-name="ARC"><path class="cls-12" d="M545.9,371.45a1.15,1.15,0,0,1-1.13.93A1.16,1.16,0,1,1,545.9,371Z"/></g><g id="ARC-52" data-name="ARC"><path class="cls-12" d="M534.34,371.45a1.16,1.16,0,1,0,0-.46Z"/></g><g id="LINE-98" data-name="LINE"><path class="cls-12" d="M540.59,365.65v5.57a.47.47,0,1,1-.93,0v-5.57a.47.47,0,0,1,.93,0Z"/></g><line class="cls-12" x1="544.75" y1="371.22" x2="548.02" y2="371.22"/><line class="cls-12" x1="532.23" y1="371.22" x2="535.49" y2="371.22"/><g id="LWPOLYLINE-177" data-name="LWPOLYLINE"><rect class="cls-12" x="344.99" y="356.69" width="25.52" height="19.6"/></g><g id="LWPOLYLINE-178" data-name="LWPOLYLINE"><path class="cls-12" d="M350,360.52a1.1,1.1,0,0,1,1.1-1.1h13.31a1.09,1.09,0,0,1,1.09,1.1v9.84a.91.91,0,0,1-.91.91H350.92a.91.91,0,0,1-.92-.91Z"/></g><g id="ARC-53" data-name="ARC"><path class="cls-12" d="M335.11,360c.35,3.13,1,11.38,1,11.38"/></g><g id="ARC-54" data-name="ARC"><path class="cls-12" d="M324,367.2a.86.86,0,0,1-.76-.51q-.21-.53-.39-1.05a14.34,14.34,0,0,1-.63-2.89c-.06-.52-.11-1.05-.13-1.57a15.34,15.34,0,0,1,.34-4.11,10,10,0,0,1,3-5.24,4.73,4.73,0,0,1,6.45.06,10,10,0,0,1,2.93,5.3,15.75,15.75,0,0,1,.26,4.11c0,.53-.1,1.05-.17,1.57a14.22,14.22,0,0,1-.69,2.88c-.12.35-.26.7-.41,1a.84.84,0,0,1-.77.5Z"/></g><g id="ARC-55" data-name="ARC"><path class="cls-12" d="M322.07,359.83c-.41,3.11-1,11.5-1,11.5"/></g><g id="ARC-56" data-name="ARC"><path class="cls-12" d="M336.1,371.19a1.1,1.1,0,0,0-1-1,55.45,55.45,0,0,0-13.13,0,1.1,1.1,0,0,0-.95,1v0c-.05,1.12-.09,2.25-.12,3.38a1.44,1.44,0,0,0,1.32,1.47q3.15.27,6.32.27c2.1,0,4.21-.09,6.31-.27a1.44,1.44,0,0,0,1.32-1.47c0-1.13-.07-2.26-.12-3.38Z"/></g><g id="ARC-57" data-name="ARC"><path class="cls-12" d="M358.21,372.69a1.16,1.16,0,0,1,.69,1.06,1.14,1.14,0,0,1-1.15,1.14,1.15,1.15,0,0,1-.46-2.2Z"/></g><g id="ARC-58" data-name="ARC"><path class="cls-12" d="M363.47,374a1.15,1.15,0,1,1,0-.46Z"/></g><g id="ARC-59" data-name="ARC"><path class="cls-12" d="M352,374a1.15,1.15,0,1,0,0-.46Z"/></g><g id="LINE-99" data-name="LINE"><path class="cls-12" d="M358.21,368.23v5.52a.46.46,0,0,1-.46.46.47.47,0,0,1-.46-.46v-5.52a.47.47,0,0,1,.46-.46A.46.46,0,0,1,358.21,368.23Z"/></g><line class="cls-12" x1="362.34" y1="373.75" x2="365.56" y2="373.75"/><line class="cls-12" x1="349.94" y1="373.75" x2="353.17" y2="373.75"/><g id="LWPOLYLINE-179" data-name="LWPOLYLINE"><rect class="cls-12" x="214.18" y="224.2" width="24.69" height="18.96"/></g><g id="LWPOLYLINE-180" data-name="LWPOLYLINE"><path class="cls-12" d="M234,227.9a1.06,1.06,0,0,0-1.06-1.06H220.09A1.06,1.06,0,0,0,219,227.9v9.52a.89.89,0,0,0,.88.89h13.23a.89.89,0,0,0,.88-.89Z"/></g><g id="ARC-60" data-name="ARC"><path class="cls-12" d="M248.43,227.35c-.34,3-1,11-1,11"/></g><g id="ARC-61" data-name="ARC"><path class="cls-12" d="M259.18,234.36a.81.81,0,0,0,.74-.49c.13-.33.26-.67.38-1a14.88,14.88,0,0,0,.61-2.8c.06-.51.1-1,.12-1.52a15.12,15.12,0,0,0-.32-4,9.71,9.71,0,0,0-2.93-5.07,4.57,4.57,0,0,0-6.24.06,9.63,9.63,0,0,0-2.83,5.12,15.19,15.19,0,0,0-.25,4c0,.51.09,1,.16,1.52a14.15,14.15,0,0,0,.66,2.79c.12.33.26.67.4,1a.82.82,0,0,0,.75.48Z"/></g><g id="ARC-62" data-name="ARC"><path class="cls-12" d="M261,227.23c.4,3,1,11.13,1,11.13"/></g><g id="ARC-63" data-name="ARC"><path class="cls-12" d="M247.47,238.22a1,1,0,0,1,.92-1,53.16,53.16,0,0,1,12.69,0,1.06,1.06,0,0,1,.93,1v0c.05,1.09.09,2.18.11,3.27a1.38,1.38,0,0,1-1.27,1.42c-2,.18-4.07.27-6.11.27s-4.08-.09-6.11-.27a1.4,1.4,0,0,1-1.28-1.42q0-1.64.12-3.27Z"/></g><g id="ARC-64" data-name="ARC"><path class="cls-12" d="M226.08,239.68a1.13,1.13,0,0,0-.67,1,1.11,1.11,0,0,0,1.11,1.11,1.11,1.11,0,0,0,.45-2.13Z"/></g><g id="ARC-65" data-name="ARC"><path class="cls-12" d="M221,240.92a1.11,1.11,0,1,0,0-.45Z"/></g><g id="ARC-66" data-name="ARC"><path class="cls-12" d="M232.06,240.92a1.11,1.11,0,1,1,0-.45Z"/></g><g id="LINE-100" data-name="LINE"><path class="cls-12" d="M226.08,235.36v5.34a.45.45,0,0,0,.89,0v-5.34a.45.45,0,0,0-.89,0Z"/></g><line class="cls-12" x1="222.09" y1="240.7" x2="218.97" y2="240.7"/><line class="cls-12" x1="234.08" y1="240.7" x2="230.96" y2="240.7"/><g id="LWPOLYLINE-181" data-name="LWPOLYLINE"><polygon class="cls-15" points="155.82 360.49 155.82 364.24 157.7 364.24 157.7 401.68 772.7 401.68 772.7 397.93 770.58 396.7 768.7 395.12 767.12 393.24 765.9 391.11 765.06 388.81 764.63 386.39 764.63 383.93 765.06 381.52 765.9 379.21 767.12 377.08 768.7 375.2 770.58 373.62 772.7 372.39 772.7 368.64 739.42 368.64 739.42 375.79 599.03 375.79 599.03 297.74 595.51 297.74 595.51 301.49 555.2 301.49 555.2 305 595.51 305 595.51 374.38 458.64 374.38 458.64 340.63 455.12 340.63 455.12 374.38 419.26 374.38 419.26 305 521.45 305 521.45 301.49 407.19 301.49 407.19 297.74 401.45 297.74 401.45 301.49 359.03 301.49 359.03 291.43 355.51 291.43 355.51 301.49 351.76 301.49 351.76 305 409.89 305 409.89 363.13 378.01 363.13 378.01 376.25 314.26 376.25 314.26 305 318.01 305 318.01 301.49 283.56 301.49 283.56 310.1 287.07 310.1 287.07 305 310.75 305 310.75 359.03 287.07 359.03 287.07 355.1 283.56 355.1 283.56 375.88 172.7 375.88 172.7 360.49 156.3 360.49 155.82 360.49"/></g><g id="LWPOLYLINE-182" data-name="LWPOLYLINE"><polygon class="cls-15" points="155.82 270.49 172.7 270.49 172.7 253.93 355.51 253.93 355.51 257.68 359.03 257.68 359.03 197.56 355.51 197.56 355.51 204.24 348.48 204.24 348.48 207.75 352.23 207.75 352.23 243.14 310.98 243.14 310.98 207.75 314.73 207.75 314.73 204.24 274.65 204.24 274.65 197.56 271.14 197.56 271.14 243.14 207.39 243.14 207.39 220.76 155.82 220.76 155.82 224.51 157.7 224.51 157.7 266.74 155.82 266.74 155.82 270.49"/></g><g id="LWPOLYLINE-183" data-name="LWPOLYLINE"><polygon class="cls-15" points="155.82 177.64 155.82 181.39 177.39 181.39 177.39 157.13 271.14 157.13 271.14 163.81 274.65 163.81 274.65 157.13 278.4 157.13 278.4 153.61 172.7 153.61 172.7 136.38 155.82 136.38 155.82 140.13 157.7 140.13 157.7 177.64 156.3 177.64 155.82 177.64"/></g><g id="LWPOLYLINE-184" data-name="LWPOLYLINE"><polygon class="cls-15" points="155.82 42.63 155.82 46.38 172.7 46.38 172.7 31.72 315.9 31.72 315.9 153.61 312.15 153.61 312.15 157.13 355.51 157.13 355.51 163.81 359.03 163.81 359.03 153.61 319.42 153.61 319.42 31.72 337.23 31.72 337.23 25.98 334.3 25.98 334.3 20.36 333.48 20.36 333.48 17.07 282.39 17.07 282.39 3.01 164.26 3.01 164.26 0.2 157.7 0.2 157.7 42.63 155.82 42.63"/></g><g id="LWPOLYLINE-185" data-name="LWPOLYLINE"><polygon class="cls-15" points="370.98 25.98 370.98 31.72 739.42 31.72 739.42 33.95 772.7 33.95 772.7 30.2 770.5 28.95 768.55 27.33 766.91 25.4 765.63 23.21 764.76 20.84 764.32 18.34 764.32 17.07 390.43 17.07 390.43 20.36 384.93 20.36 384.93 25.98 374.28 25.98 370.98 25.98"/></g><g id="LWPOLYLINE-186" data-name="LWPOLYLINE"><polygon class="cls-15" points="401.45 199.97 401.45 206.68 407.19 206.68 407.19 202.7 429.69 202.7 429.69 255.67 407.19 255.67 407.19 251.68 401.45 251.68 401.45 263.99 407.19 263.99 407.19 260.24 494.14 260.24 494.14 256.72 458.99 256.72 458.99 202.7 531.64 202.7 531.64 256.72 527.89 256.72 527.89 260.24 555.79 260.24 555.79 256.72 535.16 256.72 535.16 224.38 560 224.38 560 198.6 595.51 198.6 595.51 256.72 589.54 256.72 589.54 260.24 595.51 260.24 595.51 263.99 599.03 263.99 599.03 228.95 772.7 228.95 772.7 225.2 770.5 223.95 768.55 222.33 766.91 220.4 765.63 218.21 764.76 215.84 764.32 213.34 764.32 210.81 764.76 208.31 765.63 205.94 766.91 203.75 768.55 201.82 770.5 200.2 772.7 198.95 772.7 195.2 728.52 195.2 728.52 223.21 631.37 223.21 631.37 195.08 560 195.08 560 169.89 556.49 169.89 556.49 193.32 404.97 193.32 404.97 169.89 401.45 169.89 401.45 199.97"/></g><g id="LWPOLYLINE-187" data-name="LWPOLYLINE"><polygon class="cls-15" points="750.2 98.65 750.2 131.45 772.7 131.45 772.7 127.7 770.5 126.45 768.55 124.83 766.91 122.9 765.63 120.71 764.76 118.33 764.32 115.84 764.32 113.31 764.76 110.81 765.63 108.44 766.91 106.25 768.55 104.32 770.5 102.7 772.7 101.45 772.7 97.7 750.2 97.7 750.2 98.65"/></g><g id="LWPOLYLINE-188" data-name="LWPOLYLINE"><polygon class="cls-15" points="750.2 281.92 750.2 315.67 772.7 315.67 772.7 311.92 770.5 310.67 768.55 309.05 766.91 307.12 765.63 304.93 764.76 302.55 764.32 300.06 764.32 297.53 764.76 295.03 765.63 292.65 766.91 290.47 768.55 288.53 770.5 286.92 772.7 285.67 772.7 281.92 761.79 281.92 750.2 281.92"/></g><polygon class="cls-15" points="28.22 396.52 28.22 324.47 26.71 324.47 25.04 324.47 6.68 324.47 6.68 6.65 157.68 6.65 157.7 1.38 0.2 1.38 0.2 324.47 0.2 325.65 0.2 326.91 25.04 326.91 25.04 401.68 26.71 401.68 28.22 401.68 158.01 401.68 158.01 396.52 28.22 396.52"/><g id="LWPOLYLINE-189" data-name="LWPOLYLINE"><path class="cls-16" d="M755.82,95.82,745.9,67.63a28.23,28.23,0,0,1,9.92-1.81"/></g><g id="LWPOLYLINE-190" data-name="LWPOLYLINE"><path class="cls-16" d="M755.82,35.83,745.9,64a28,28,0,0,0,9.92,1.8"/></g><g id="LWPOLYLINE-191" data-name="LWPOLYLINE"><path class="cls-16" d="M755.82,193.32l-9.92-28.19a28.23,28.23,0,0,1,9.92-1.81"/></g><g id="LWPOLYLINE-192" data-name="LWPOLYLINE"><path class="cls-16" d="M755.82,133.33l-9.92,28.19a28,28,0,0,0,9.92,1.8"/></g><g id="LWPOLYLINE-193" data-name="LWPOLYLINE"><path class="cls-16" d="M755.82,280l-9.92-22.8a28.23,28.23,0,0,1,9.92-1.81"/></g><g id="LWPOLYLINE-194" data-name="LWPOLYLINE"><path class="cls-16" d="M755.82,230.82l-9.92,22.81a28.22,28.22,0,0,0,9.92,1.8"/></g><g id="LWPOLYLINE-195" data-name="LWPOLYLINE"><path class="cls-16" d="M755.82,366.76,745.9,344a28.23,28.23,0,0,1,9.92-1.81"/></g><g id="LWPOLYLINE-196" data-name="LWPOLYLINE"><path class="cls-16" d="M755.82,317.54l-9.92,22.8a28,28,0,0,0,9.92,1.81"/></g><path class="cls-17" d="M503.28,115.43H504l.83,4.55h0l1.39-4.55h.62l1.39,4.55h0l.82-4.55h.68l-1,5.6h-.8l-1.37-4.5h0l-1.37,4.5h-.8Z"/><path class="cls-17" d="M657.28,309.89h.88l1.82,4.45h0l1.82-4.45h.88v5.6H662V311h0l-1.89,4.54h-.28L658,311h0v4.54h-.66Z"/><path class="cls-17" d="M667.63,314.36h-2.52l-.39,1.13H664l2-5.6h.64l2,5.6H668Zm-.2-.57-1-3h0l-1,3Z"/><path class="cls-17" d="M669.59,313.63l.65-.11A1.46,1.46,0,0,0,671.9,315c.77,0,1.29-.35,1.29-.9s-.38-.88-1.55-1.25c-1.33-.44-1.78-.83-1.78-1.58s.73-1.48,1.79-1.48a2,2,0,0,1,2,1.63l-.65.14a1.34,1.34,0,0,0-1.39-1.14c-.68,0-1.13.33-1.13.85s.32.66,1.35,1c1.45.48,2,1,2,1.84s-.79,1.54-2,1.54A2.05,2.05,0,0,1,669.59,313.63Z"/><path class="cls-17" d="M676.63,310.52h-1.75v-.63H679v.63h-1.74v5h-.66Z"/><path class="cls-17" d="M680.5,309.89h3.36v.63h-2.7v1.79h2.48v.59h-2.48v2h2.7v.62H680.5Z"/><path class="cls-17" d="M688,313.19l1.23,2.3h-.78l-1.18-2.27h-1.12v2.27h-.66v-5.6h2c1.17,0,1.87.63,1.87,1.66a1.54,1.54,0,0,1-1.4,1.62Zm-.52-.6c.82,0,1.25-.36,1.25-1s-.42-1-1.25-1h-1.33v2.07Z"/><path class="cls-17" d="M654.77,318.39h2.15a1.46,1.46,0,0,1,1.63,1.45,1.2,1.2,0,0,1-.65,1.15v0a1.33,1.33,0,0,1,.86,1.32c0,1.08-.68,1.66-2,1.66h-2Zm2,2.38c.73,0,1.09-.3,1.09-.9s-.37-.85-1.09-.85h-1.37v1.75Zm-.1,2.6c1,0,1.4-.32,1.4-1s-.4-1-1.38-1h-1.29v2Z"/><path class="cls-17" d="M660.39,318.39h3.36V319h-2.7v1.79h2.48v.59h-2.48v2h2.7V324h-3.36Z"/><path class="cls-17" d="M665.35,318.39h1.74c1.41,0,2.41,1,2.41,2.79,0,2-1,2.81-2.46,2.81h-1.69Zm1.65,5c1.14,0,1.84-.6,1.84-2.19,0-1.43-.7-2.16-1.79-2.16h-1v4.35Z"/><path class="cls-17" d="M673.64,321.69l1.23,2.3h-.78l-1.18-2.27h-1.12V324h-.66v-5.6h2c1.17,0,1.86.63,1.86,1.66a1.54,1.54,0,0,1-1.39,1.62Zm-.53-.6c.83,0,1.26-.36,1.26-1s-.42-1-1.26-1h-1.32v2.07Z"/><path class="cls-17" d="M676.3,321.19c0-1.75.94-2.92,2.36-2.92s2.36,1.17,2.36,2.92-.95,2.92-2.36,2.92S676.3,322.94,676.3,321.19Zm4.05,0c0-1.42-.65-2.29-1.69-2.29s-1.7.87-1.7,2.29.65,2.29,1.7,2.29S680.35,322.61,680.35,321.19Z"/><path class="cls-17" d="M682.36,321.19c0-1.75.94-2.92,2.36-2.92s2.36,1.17,2.36,2.92-1,2.92-2.36,2.92S682.36,322.94,682.36,321.19Zm4,0c0-1.42-.64-2.29-1.69-2.29s-1.7.87-1.7,2.29.65,2.29,1.7,2.29S686.41,322.61,686.41,321.19Z"/><path class="cls-17" d="M688.71,318.39h.88l1.81,4.45h0l1.81-4.45h.88V324h-.66v-4.54h0L691.54,324h-.27l-1.89-4.54h0V324h-.65Z"/><path class="cls-17" d="M647.94,327.64l-1.25.81v-.69l1.33-.87h.58v5.6h-.66Z"/><path class="cls-17" d="M650.19,330.63l.66-.11c.11,1,.58,1.46,1.41,1.46a1.07,1.07,0,0,0,1.2-1.07c0-.76-.44-1.12-1.32-1.12h-.4v-.58h.4c.66,0,1.17-.4,1.17-.9s-.4-.93-1.06-.93a1.17,1.17,0,0,0-1.26,1.05l-.65-.09a1.8,1.8,0,0,1,1.91-1.57,1.54,1.54,0,0,1,1.73,1.49,1.35,1.35,0,0,1-.76,1.17v0a1.5,1.5,0,0,1,.89,1.46,1.69,1.69,0,0,1-1.85,1.7A2,2,0,0,1,650.19,330.63Z"/><path class="cls-17" d="M655.77,326.89h.58v1.79h-.58Z"/><path class="cls-17" d="M657.49,329.3h2.09v.6h-2.09Z"/><path class="cls-17" d="M661,329.69c0-1.81.91-2.92,2.22-2.92s2.21,1.11,2.21,2.92-.9,2.92-2.21,2.92S661,331.51,661,329.69Zm3.77,0c0-1.46-.62-2.29-1.55-2.29s-1.55.83-1.55,2.29.61,2.29,1.55,2.29S664.79,331.15,664.79,329.69Z"/><path class="cls-17" d="M667,326.89h.59v1.79H667Zm1.06,0h.58v1.79H668Z"/><path class="cls-17" d="M672.31,331.05l1.31-1.3-1.31-1.29.39-.39,1.29,1.31,1.29-1.31.4.39-1.32,1.29,1.32,1.3-.4.39L674,330.13l-1.29,1.31Z"/><path class="cls-17" d="M679.85,327.64l-1.24.81v-.69l1.32-.87h.59v5.6h-.67Z"/><path class="cls-17" d="M682.11,330.63l.65-.11c.11,1,.59,1.46,1.41,1.46a1.07,1.07,0,0,0,1.2-1.07c0-.76-.43-1.12-1.32-1.12h-.4v-.58h.4c.66,0,1.18-.4,1.18-.9s-.4-.93-1.07-.93a1.19,1.19,0,0,0-1.26,1.05l-.65-.09a1.8,1.8,0,0,1,1.91-1.57,1.54,1.54,0,0,1,1.73,1.49,1.33,1.33,0,0,1-.76,1.17v0a1.5,1.5,0,0,1,.9,1.46,1.69,1.69,0,0,1-1.86,1.7A2,2,0,0,1,682.11,330.63Z"/><path class="cls-17" d="M687.68,326.89h.59v1.79h-.59Z"/><path class="cls-17" d="M689.68,329.3h2.09v.6h-2.09Z"/><path class="cls-17" d="M694,327.64l-1.25.81v-.69l1.33-.87h.59v5.6H694Z"/><path class="cls-17" d="M697.47,327.64l-1.25.81v-.69l1.33-.87h.58v5.6h-.66Z"/><path class="cls-17" d="M700.1,326.89h.58v1.79h-.58Zm1,0h.58v1.79h-.58Z"/><path class="cls-17" d="M202.91,275.94h2.15a1.46,1.46,0,0,1,1.63,1.45,1.19,1.19,0,0,1-.66,1.15v0a1.34,1.34,0,0,1,.87,1.32c0,1.09-.68,1.66-2,1.66h-2Zm2,2.38q1.08,0,1.08-.9c0-.56-.36-.85-1.08-.85h-1.38v1.75Zm-.1,2.6c1,0,1.39-.32,1.39-1s-.39-1-1.37-1h-1.3v2Z"/><path class="cls-17" d="M208.53,275.94h3.36v.63h-2.7v1.79h2.47V279h-2.47v2h2.7v.62h-3.36Z"/><path class="cls-17" d="M213.48,275.94h1.74c1.42,0,2.42,1,2.42,2.79,0,2-1,2.81-2.46,2.81h-1.7Zm1.66,5c1.13,0,1.83-.6,1.83-2.19,0-1.43-.7-2.16-1.79-2.16h-1v4.35Z"/><path class="cls-17" d="M221.77,279.24l1.23,2.3h-.77L221,279.27h-1.12v2.27h-.65v-5.6h2a1.63,1.63,0,0,1,1.86,1.66,1.54,1.54,0,0,1-1.4,1.62Zm-.52-.59c.82,0,1.26-.36,1.26-1s-.43-1-1.26-1h-1.33v2.08Z"/><path class="cls-17" d="M224.43,278.74c0-1.75.95-2.92,2.36-2.92s2.36,1.17,2.36,2.92-.94,2.92-2.36,2.92S224.43,280.49,224.43,278.74Zm4.06,0c0-1.41-.65-2.29-1.7-2.29s-1.69.88-1.69,2.29.64,2.3,1.69,2.3S228.49,280.16,228.49,278.74Z"/><path class="cls-17" d="M230.49,278.74c0-1.75.95-2.92,2.36-2.92s2.36,1.17,2.36,2.92-.94,2.92-2.36,2.92S230.49,280.49,230.49,278.74Zm4.06,0c0-1.41-.65-2.29-1.7-2.29s-1.69.88-1.69,2.29.65,2.3,1.69,2.3S234.55,280.16,234.55,278.74Z"/><path class="cls-17" d="M236.84,275.94h.88l1.82,4.45h0l1.82-4.45h.88v5.6h-.67V277h0l-1.89,4.54h-.28L237.51,277h0v4.54h-.66Z"/><path class="cls-17" d="M247.28,280.92h3v.62h-3.72V281a2,2,0,0,1,.23-1.06c.2-.37.54-.64,1.42-1.1,1.16-.6,1.5-.93,1.5-1.49s-.49-.91-1.17-.91a1.3,1.3,0,0,0-1.4,1.36l-.66-.06a1.93,1.93,0,0,1,2.06-1.93,1.69,1.69,0,0,1,1.83,1.54c0,.82-.41,1.31-1.65,1.93-.93.48-1.19.66-1.33.94A1.58,1.58,0,0,0,247.28,280.92Z"/><path class="cls-17" d="M198.87,285.2l-1.24.8v-.69l1.32-.87h.59V290h-.67Z"/><path class="cls-17" d="M201.2,287.24c0-1.81.9-2.92,2.21-2.92s2.22,1.11,2.22,2.92-.91,2.92-2.22,2.92S201.2,289.06,201.2,287.24Zm3.76,0c0-1.46-.61-2.29-1.55-2.29s-1.55.83-1.55,2.29.62,2.3,1.55,2.3S205,288.71,205,287.24Z"/><path class="cls-17" d="M207.16,284.44h.59v1.79h-.59Z"/><path class="cls-17" d="M208.88,286.85H211v.6h-2.09Z"/><path class="cls-17" d="M213.23,285.2,212,286v-.69l1.32-.87h.59V290h-.67Z"/><path class="cls-17" d="M215.56,287.24c0-1.81.9-2.92,2.21-2.92s2.22,1.11,2.22,2.92-.91,2.92-2.22,2.92S215.56,289.06,215.56,287.24Zm3.76,0c0-1.46-.61-2.29-1.55-2.29s-1.55.83-1.55,2.29.62,2.3,1.55,2.3S219.32,288.71,219.32,287.24Z"/><path class="cls-17" d="M221.51,284.44h.58v1.79h-.58Zm1.05,0h.59v1.79h-.59Z"/><path class="cls-17" d="M226.84,288.6l1.32-1.29-1.32-1.3.4-.39,1.28,1.31,1.3-1.31.39.39-1.31,1.3,1.31,1.29-.39.39-1.3-1.31L227.24,289Z"/><path class="cls-17" d="M234.39,285.2l-1.25.8v-.69l1.33-.87h.58V290h-.66Z"/><path class="cls-17" d="M236.71,287.24c0-1.81.9-2.92,2.22-2.92s2.21,1.11,2.21,2.92-.9,2.92-2.21,2.92S236.71,289.06,236.71,287.24Zm3.77,0c0-1.46-.62-2.29-1.55-2.29s-1.56.83-1.56,2.29.62,2.3,1.56,2.3S240.48,288.71,240.48,287.24Z"/><path class="cls-17" d="M242.68,284.44h.58v1.79h-.58Z"/><path class="cls-17" d="M244.67,286.85h2.09v.6h-2.09Z"/><path class="cls-17" d="M250.6,288.9h-2.8v-.58l2.47-3.88h1v3.87H252v.59h-.71V290h-.67Zm0-.59V285h0l-2.13,3.35Z"/><path class="cls-17" d="M253.34,284.44h.58v1.79h-.58Zm1,0H255v1.79h-.59Z"/><path class="cls-17" d="M180.86,81l.65-.11a1.46,1.46,0,0,0,1.66,1.46c.77,0,1.29-.36,1.29-.9s-.38-.88-1.55-1.25c-1.33-.44-1.78-.83-1.78-1.58s.73-1.48,1.79-1.48a2,2,0,0,1,2,1.63l-.65.14a1.34,1.34,0,0,0-1.39-1.15c-.68,0-1.13.34-1.13.86s.33.66,1.35,1c1.45.47,2,1,2,1.84s-.79,1.54-2,1.54A2.05,2.05,0,0,1,180.86,81Z"/><path class="cls-17" d="M187.9,77.91h-1.75v-.62h4.15v.62h-1.74v5h-.66Z"/><path class="cls-17" d="M191.75,81.06V77.29h.66V81a1.19,1.19,0,0,0,1.33,1.36A1.21,1.21,0,0,0,195.1,81V77.29h.66v3.77a2,2,0,0,1-4,0Z"/><path class="cls-17" d="M197.65,77.29h1.74c1.42,0,2.42,1,2.42,2.79,0,2-1,2.81-2.46,2.81h-1.7Zm1.66,5c1.13,0,1.83-.6,1.83-2.18,0-1.43-.7-2.17-1.79-2.17h-1v4.35Z"/><path class="cls-17" d="M204.46,80.55l-2-3.26h.77l1.51,2.61h0l1.51-2.61h.77l-2,3.26v2.34h-.66Z"/><path class="cls-17" d="M210.33,83l2.86-6,.44.2-2.86,6Z"/><path class="cls-17" d="M217.57,77.29h2.15a1.46,1.46,0,0,1,1.63,1.45,1.2,1.2,0,0,1-.65,1.15h0a1.34,1.34,0,0,1,.86,1.33c0,1.08-.68,1.66-2,1.66h-2Zm2,2.37c.73,0,1.09-.29,1.09-.89s-.37-.86-1.09-.86h-1.37v1.75Zm-.09,2.6c1,0,1.39-.31,1.39-1s-.39-1-1.38-1h-1.29v2Z"/><path class="cls-17" d="M223.2,77.29h3.35v.62h-2.7V79.7h2.48v.6h-2.48v2h2.7v.63H223.2Z"/><path class="cls-17" d="M228.15,77.29h1.74c1.42,0,2.41,1,2.41,2.79,0,2-1,2.81-2.46,2.81h-1.69Zm1.65,5c1.14,0,1.84-.6,1.84-2.18,0-1.43-.7-2.17-1.79-2.17h-1v4.35Z"/><path class="cls-17" d="M236.44,80.58l1.23,2.31h-.78l-1.18-2.27h-1.12v2.27h-.65v-5.6h2c1.17,0,1.87.62,1.87,1.66a1.55,1.55,0,0,1-1.4,1.62Zm-.52-.59c.82,0,1.25-.36,1.25-1s-.42-1-1.25-1h-1.33V80Z"/><path class="cls-17" d="M239.1,80.09c0-1.75.94-2.92,2.36-2.92s2.36,1.17,2.36,2.92S242.87,83,241.46,83,239.1,81.84,239.1,80.09Zm4.05,0c0-1.42-.64-2.3-1.69-2.3s-1.7.88-1.7,2.3.65,2.29,1.7,2.29S243.15,81.5,243.15,80.09Z"/><path class="cls-17" d="M245.16,80.09c0-1.75.94-2.92,2.36-2.92s2.36,1.17,2.36,2.92S248.94,83,247.52,83,245.16,81.84,245.16,80.09Zm4.05,0c0-1.42-.64-2.3-1.69-2.3s-1.7.88-1.7,2.3.65,2.29,1.7,2.29S249.21,81.5,249.21,80.09Z"/><path class="cls-17" d="M251.51,77.29h.88l1.81,4.45h0L256,77.29h.88v5.6h-.66V78.35h0l-1.88,4.54h-.28l-1.89-4.54h0v4.54h-.65Z"/><path class="cls-17" d="M261.08,81l.66-.1c.11,1,.58,1.46,1.41,1.46a1.07,1.07,0,0,0,1.2-1.08c0-.76-.44-1.12-1.32-1.12h-.4v-.57h.4c.66,0,1.17-.4,1.17-.9s-.4-.93-1.06-.93a1.17,1.17,0,0,0-1.26,1l-.65-.09a1.8,1.8,0,0,1,1.91-1.57,1.54,1.54,0,0,1,1.73,1.49,1.35,1.35,0,0,1-.76,1.17v0A1.48,1.48,0,0,1,265,81.3,1.69,1.69,0,0,1,263.15,83,2,2,0,0,1,261.08,81Z"/><path class="cls-17" d="M195.47,86.54l-1.25.81v-.7l1.33-.86h.58v5.6h-.66Z"/><path class="cls-17" d="M197.79,88.59c0-1.82.91-2.92,2.22-2.92s2.21,1.1,2.21,2.92-.9,2.92-2.21,2.92S197.79,90.4,197.79,88.59Zm3.77,0c0-1.46-.62-2.3-1.55-2.3s-1.55.84-1.55,2.3.61,2.29,1.55,2.29S201.56,90.05,201.56,88.59Z"/><path class="cls-17" d="M203.76,85.79h.58v1.78h-.58Z"/><path class="cls-17" d="M205.48,88.2h2.09v.6h-2.09Z"/><path class="cls-17" d="M209.83,86.54l-1.25.81v-.7l1.33-.86h.58v5.6h-.66Z"/><path class="cls-17" d="M212.15,88.59c0-1.82.9-2.92,2.22-2.92s2.21,1.1,2.21,2.92-.9,2.92-2.21,2.92S212.15,90.4,212.15,88.59Zm3.77,0c0-1.46-.62-2.3-1.55-2.3s-1.55.84-1.55,2.3.61,2.29,1.55,2.29S215.92,90.05,215.92,88.59Z"/><path class="cls-17" d="M218.1,85.79h.59v1.78h-.59Zm1.06,0h.58v1.78h-.58Z"/><path class="cls-17" d="M223.44,90l1.31-1.3-1.31-1.29.39-.39,1.29,1.31L226.41,87l.4.39-1.32,1.29,1.32,1.3-.4.39L225.12,89l-1.29,1.31Z"/><path class="cls-17" d="M231,86.54l-1.24.81v-.7l1.32-.86h.59v5.6H231Z"/><path class="cls-17" d="M233.24,89.52l.65-.1c.11,1,.59,1.46,1.41,1.46a1.07,1.07,0,0,0,1.2-1.08c0-.76-.43-1.12-1.32-1.12h-.4v-.57h.4c.66,0,1.18-.4,1.18-.9s-.41-.93-1.07-.93a1.18,1.18,0,0,0-1.26,1l-.65-.09a1.8,1.8,0,0,1,1.91-1.57A1.54,1.54,0,0,1,237,87.16a1.35,1.35,0,0,1-.76,1.17v0a1.48,1.48,0,0,1,.89,1.45,1.69,1.69,0,0,1-1.85,1.71A2,2,0,0,1,233.24,89.52Z"/><path class="cls-17" d="M238.81,85.79h.59v1.78h-.59Z"/><path class="cls-17" d="M240.81,88.2h2.09v.6h-2.09Z"/><path class="cls-17" d="M244.89,90.76h3v.63h-3.72v-.53a2,2,0,0,1,.24-1.06c.19-.37.54-.64,1.42-1.1,1.16-.6,1.49-.94,1.49-1.49s-.48-.92-1.16-.92a1.3,1.3,0,0,0-1.4,1.36l-.67-.05a1.93,1.93,0,0,1,2.07-1.93A1.68,1.68,0,0,1,248,87.21c0,.82-.42,1.31-1.65,1.93-.94.47-1.19.66-1.33.94A1.43,1.43,0,0,0,244.89,90.76Z"/><path class="cls-17" d="M249.72,85.79h.58v1.78h-.58Zm1.06,0h.58v1.78h-.58Z"/><path class="cls-17" d="M638.4,145.59h.65v5h2.53v.63H638.4Z"/><path class="cls-17" d="M643.05,145.59h.66v5.6h-.66Z"/><path class="cls-17" d="M645,145.59h.7l1.66,4.72h0l1.67-4.72h.69l-2,5.6h-.7Z"/><path class="cls-17" d="M651.12,145.59h.66v5.6h-.66Z"/><path class="cls-17" d="M653.69,145.59h.78l2.54,4.57h0v-4.57h.66v5.6h-.78l-2.55-4.57h0v4.57h-.66Z"/><path class="cls-17" d="M659.32,148.39c0-1.78.93-2.92,2.36-2.92a2.08,2.08,0,0,1,2.13,1.85l-.66.12a1.44,1.44,0,0,0-1.47-1.35c-1,0-1.7.88-1.7,2.3s.65,2.29,1.7,2.29a1.42,1.42,0,0,0,1.49-1.63h-1.42v-.63h2.07V149a2.09,2.09,0,0,1-2.14,2.32C660.25,151.31,659.32,150.16,659.32,148.39Z"/><path class="cls-17" d="M667.43,151.31l2.86-6,.44.2-2.86,6Z"/><path class="cls-17" d="M674.67,145.59h1.74c1.42,0,2.42,1,2.42,2.79,0,2-1,2.81-2.46,2.81h-1.7Zm1.66,5c1.13,0,1.84-.59,1.84-2.18,0-1.43-.71-2.16-1.8-2.16h-1v4.34Z"/><path class="cls-17" d="M680.47,145.59h.65v5.6h-.65Z"/><path class="cls-17" d="M683,145.59h.77l2.55,4.57h0v-4.57H687v5.6h-.78l-2.54-4.57h0v4.57H683Z"/><path class="cls-17" d="M689,145.59h.65v5.6H689Z"/><path class="cls-17" d="M691.53,145.59h.77l2.54,4.57h0v-4.57h.66v5.6h-.78l-2.54-4.57h0v4.57h-.65Z"/><path class="cls-17" d="M697.15,148.39c0-1.78.93-2.92,2.36-2.92a2.08,2.08,0,0,1,2.13,1.85l-.66.12a1.44,1.44,0,0,0-1.47-1.35c-1,0-1.69.88-1.69,2.3s.64,2.29,1.69,2.29a1.43,1.43,0,0,0,1.5-1.63h-1.43v-.63h2.08V149a2.1,2.1,0,0,1-2.15,2.32C698.08,151.31,697.15,150.16,697.15,148.39Z"/><path class="cls-17" d="M708.33,148.89l1.23,2.3h-.78l-1.18-2.27h-1.12v2.27h-.65v-5.6h2c1.17,0,1.87.63,1.87,1.66a1.54,1.54,0,0,1-1.4,1.62Zm-.52-.6c.82,0,1.25-.36,1.25-1s-.42-1-1.25-1h-1.33v2.07Z"/><path class="cls-17" d="M711,148.39c0-1.75.94-2.92,2.36-2.92s2.36,1.17,2.36,2.92-.94,2.92-2.36,2.92S711,150.14,711,148.39Zm4,0c0-1.42-.64-2.3-1.69-2.3s-1.7.88-1.7,2.3.65,2.29,1.7,2.29S715,149.8,715,148.39Z"/><path class="cls-17" d="M717.05,148.39c0-1.75.94-2.92,2.36-2.92s2.36,1.17,2.36,2.92-.94,2.92-2.36,2.92S717.05,150.14,717.05,148.39Zm4.06,0c0-1.42-.65-2.3-1.7-2.3s-1.7.88-1.7,2.3.65,2.29,1.7,2.29S721.11,149.8,721.11,148.39Z"/><path class="cls-17" d="M723.4,145.59h.88l1.81,4.45h0l1.81-4.45h.88v5.6h-.66v-4.54h0l-1.88,4.54H726l-1.89-4.54h0v4.54h-.65Z"/><path class="cls-17" d="M658.41,154.84l-1.25.81V155l1.33-.86h.59v5.6h-.67Z"/><path class="cls-17" d="M663.43,154.73h-2.91v-.63h3.66v.58l-2.27,5h-.75Z"/><path class="cls-17" d="M665.81,154.09h.58v1.78h-.58Z"/><path class="cls-17" d="M667.53,156.5h2.08v.6h-2.08Z"/><path class="cls-17" d="M671.06,156.89c0-1.82.9-2.92,2.21-2.92s2.22,1.1,2.22,2.92-.9,2.92-2.22,2.92S671.06,158.7,671.06,156.89Zm3.76,0c0-1.46-.61-2.3-1.55-2.3s-1.55.84-1.55,2.3.62,2.29,1.55,2.29S674.82,158.35,674.82,156.89Z"/><path class="cls-17" d="M677,154.09h.58v1.78H677Zm1.06,0h.58v1.78h-.58Z"/><path class="cls-17" d="M682.35,158.25l1.31-1.3-1.31-1.29.39-.39,1.29,1.31,1.29-1.31.39.39L684.4,157l1.31,1.3-.39.39L684,157.33l-1.29,1.31Z"/><path class="cls-17" d="M689.89,154.84l-1.25.81V155l1.33-.86h.58v5.6h-.66Z"/><path class="cls-17" d="M694.91,154.73H692v-.63h3.66v.58l-2.27,5h-.75Z"/><path class="cls-17" d="M697.28,154.09h.59v1.78h-.59Z"/><path class="cls-17" d="M699.28,156.5h2.09v.6h-2.09Z"/><path class="cls-17" d="M705.21,158.54h-2.8V158l2.47-3.88h1V158h.72v.58h-.72v1.15h-.66Zm0-.58v-3.35h0L703.07,158Z"/><path class="cls-17" d="M708,154.09h.58v1.78H708Zm1,0h.58v1.78H709Z"/><path class="cls-17" d="M349.43,84.25h3.36v.62h-2.71v2h2.49v.59h-2.49v2.38h-.65Z"/><path class="cls-17" d="M354.35,87c0-1.75.94-2.91,2.35-2.91s2.36,1.16,2.36,2.91S358.12,90,356.7,90,354.35,88.8,354.35,87Zm4,0c0-1.41-.65-2.29-1.7-2.29S355,85.63,355,87s.65,2.3,1.69,2.3S358.4,88.46,358.4,87Z"/><path class="cls-17" d="M362.05,87.51l-2-3.26h.77l1.51,2.61h0l1.52-2.61h.77l-2,3.26v2.33h-.67Z"/><path class="cls-17" d="M366.32,84.25h3.36v.62H367v1.79h2.48v.59H367v2h2.7v.62h-3.36Z"/><path class="cls-17" d="M374.1,87.54l1.23,2.3h-.78l-1.18-2.27h-1.12v2.27h-.66V84.25h2c1.17,0,1.86.62,1.86,1.65a1.53,1.53,0,0,1-1.39,1.62Zm-.52-.59c.82,0,1.25-.36,1.25-1s-.42-1-1.25-1h-1.33V87Z"/><path class="cls-17" d="M423.18,182.83l1.23,2.31h-.77l-1.19-2.27h-1.11v2.27h-.66v-5.6h2c1.17,0,1.86.62,1.86,1.65a1.55,1.55,0,0,1-1.4,1.63Zm-.52-.59c.83,0,1.26-.36,1.26-1.05s-.43-1-1.26-1h-1.32v2.08Z"/><path class="cls-17" d="M478.92,119.17l.66-.11a1.46,1.46,0,0,0,1.65,1.46c.78,0,1.29-.36,1.29-.9s-.38-.88-1.54-1.25c-1.34-.44-1.78-.83-1.78-1.58s.73-1.48,1.79-1.48a2,2,0,0,1,2,1.63l-.65.14a1.35,1.35,0,0,0-1.39-1.15c-.68,0-1.13.34-1.13.86s.32.66,1.34,1c1.46.47,2,1,2,1.84s-.8,1.54-1.95,1.54A2.06,2.06,0,0,1,478.92,119.17Z"/><path class="cls-17" d="M484.26,118.23c0-1.75.94-2.92,2.36-2.92s2.36,1.17,2.36,2.92-1,2.92-2.36,2.92S484.26,120,484.26,118.23Zm4.05,0c0-1.42-.64-2.3-1.69-2.3s-1.7.88-1.7,2.3.65,2.29,1.7,2.29S488.31,119.64,488.31,118.23Z"/><path class="cls-17" d="M424.07,115.43h1.75c1.41,0,2.41,1,2.41,2.79,0,2-1,2.81-2.46,2.81h-1.7Zm1.66,5c1.13,0,1.84-.6,1.84-2.18,0-1.43-.71-2.17-1.79-2.17h-1v4.35Z"/><path class="cls-17" d="M429,115.43h.68l.82,4.55h0l1.38-4.55h.62l1.4,4.55h0l.82-4.55h.68l-1,5.6h-.8l-1.38-4.5h0l-1.36,4.5H430Z"/><path class="cls-17" d="M64.36,180.52H62.61v-.62h4.15v.62H65v5h-.66Z"/><path class="cls-17" d="M68.23,179.9h3.36v.62h-2.7v1.79h2.48v.59H68.89v2h2.7v.62H68.23Z"/><path class="cls-17" d="M75.69,183.19l1.23,2.3h-.78L75,183.22H73.84v2.27h-.65V179.9h2c1.17,0,1.87.62,1.87,1.65a1.54,1.54,0,0,1-1.4,1.62Zm-.52-.59c.82,0,1.25-.36,1.25-1s-.42-1-1.25-1H73.84v2.08Z"/><path class="cls-17" d="M81.13,183.19l1.23,2.3h-.77l-1.18-2.27H79.29v2.27h-.66V179.9h2c1.17,0,1.86.62,1.86,1.65a1.54,1.54,0,0,1-1.4,1.62Zm-.52-.59c.83,0,1.26-.36,1.26-1s-.42-1-1.26-1H79.29v2.08Z"/><path class="cls-17" d="M87.17,184.37H84.65l-.39,1.12h-.68l2-5.59h.64l2,5.59h-.68Zm-.2-.58-1-3h0l-1,3Z"/><path class="cls-17" d="M89.1,182.69c0-1.75.94-2.91,2.36-2.91a2.1,2.1,0,0,1,2.14,1.95l-.66.11c-.16-.94-.67-1.44-1.48-1.44-1,0-1.7.88-1.7,2.29s.64,2.3,1.7,2.3c.86,0,1.37-.54,1.48-1.57l.67.09a2.07,2.07,0,0,1-2.15,2.1C90,185.61,89.1,184.47,89.1,182.69Z"/><path class="cls-17" d="M95.19,179.9h3.36v.62h-2.7v1.79h2.47v.59H95.85v2h2.7v.62H95.19Z"/><path class="cls-17" d="M50.59,192.13l.65-.1c.11,1,.58,1.46,1.41,1.46a1.07,1.07,0,0,0,1.2-1.08c0-.76-.43-1.12-1.32-1.12h-.4v-.58h.4c.66,0,1.17-.4,1.17-.9s-.4-.93-1.06-.93a1.18,1.18,0,0,0-1.26,1.06l-.65-.1a1.8,1.8,0,0,1,1.91-1.56,1.54,1.54,0,0,1,1.73,1.48,1.37,1.37,0,0,1-.76,1.18h0a1.5,1.5,0,0,1,.89,1.46,1.68,1.68,0,0,1-1.85,1.7A2,2,0,0,1,50.59,192.13Z"/><path class="cls-17" d="M58.54,192.85h-2.8v-.58l2.46-3.87h1v3.87h.72v.58H59.2V194h-.66Zm0-.58v-3.35h0l-2.12,3.35Z"/><path class="cls-17" d="M61.27,188.4h.58v1.78h-.58Z"/><path class="cls-17" d="M63,190.8h2.09v.6H63Z"/><path class="cls-17" d="M67.34,189.15l-1.25.81v-.7l1.33-.86H68V194h-.66Z"/><path class="cls-17" d="M69.66,191.19c0-1.81.91-2.91,2.22-2.91s2.21,1.1,2.21,2.91-.9,2.92-2.21,2.92S69.66,193,69.66,191.19Zm3.77,0c0-1.46-.62-2.29-1.55-2.29s-1.55.83-1.55,2.29.61,2.3,1.55,2.3S73.43,192.66,73.43,191.19Z"/><path class="cls-17" d="M75.61,188.4h.59v1.78h-.59Zm1.06,0h.58v1.78h-.58Z"/><path class="cls-17" d="M81,192.55l1.31-1.29L81,190l.39-.39,1.29,1.31,1.3-1.31.39.39L83,191.26l1.31,1.29-.39.4-1.3-1.32L81.34,193Z"/><path class="cls-17" d="M88.49,189.15l-1.24.81v-.7l1.32-.86h.59V194h-.67Z"/><path class="cls-17" d="M90.75,192.13l.65-.1c.12,1,.59,1.46,1.41,1.46a1.07,1.07,0,0,0,1.2-1.08c0-.76-.43-1.12-1.32-1.12h-.4v-.58h.4c.67,0,1.18-.4,1.18-.9s-.4-.93-1.07-.93a1.19,1.19,0,0,0-1.26,1.06l-.65-.1a1.8,1.8,0,0,1,1.91-1.56,1.54,1.54,0,0,1,1.73,1.48,1.36,1.36,0,0,1-.76,1.18h0a1.5,1.5,0,0,1,.9,1.46,1.69,1.69,0,0,1-1.86,1.7A2,2,0,0,1,90.75,192.13Z"/><path class="cls-17" d="M96.32,188.4h.59v1.78h-.59Z"/><path class="cls-17" d="M98.32,190.8h2.09v.6H98.32Z"/><path class="cls-17" d="M102.67,189.15l-1.25.81v-.7l1.33-.86h.59V194h-.67Z"/><path class="cls-17" d="M106.11,189.15l-1.25.81v-.7l1.33-.86h.58V194h-.66Z"/><path class="cls-17" d="M108.74,188.4h.58v1.78h-.58Zm1.05,0h.58v1.78h-.58Z"/><path class="cls-17" d="M324.15,224.7h.68l.83,4.55h0l1.39-4.55h.62l1.39,4.55h0l.82-4.55h.68l-1,5.6h-.8l-1.37-4.49h0L326,230.3h-.8Z"/><path class="cls-17" d="M330.89,230.42l2.85-6,.45.2-2.86,6Z"/><path class="cls-17" d="M335.24,224.7H337c1.41,0,2.41,1,2.41,2.79,0,2-1,2.81-2.46,2.81h-1.7Zm1.66,5c1.13,0,1.84-.6,1.84-2.19,0-1.43-.71-2.16-1.79-2.16H335.9v4.35Z"/><polygon class="cls-17" points="360.26 7.26 354.86 21.66 349.46 7.26 360.26 7.26"/></g></g></svg>