<?xml version="1.0" encoding="utf-8"?>
<!-- Generator: Adobe Illustrator 23.0.1, SVG Export Plug-In . SVG Version: 6.00 Build 0)  -->
<svg version="1.1" id="Illustration_for_Main_Site" xmlns="http://www.w3.org/2000/svg" xmlns:xlink="http://www.w3.org/1999/xlink"
	 x="0px" y="0px" viewBox="0 0 100 100" style="enable-background:new 0 0 100 100;" xml:space="preserve">
<style type="text/css">
	.st0{fill:#787A62;}
	.st1{fill:#FFD84A;}
	.st2{fill:#CBCBCA;}
	.st3{fill:#C3C8AD;}
	.st4{fill:#676767;}
	.st5{fill:#B5C1C0;}
	.st6{fill:none;stroke:#000000;stroke-miterlimit:10;}
	.st7{fill:#D7D7D7;}
	.st8{fill:#FCE9A5;}
	.st9{fill:#979797;}
	.st10{fill:#C3C7AD;}
	.st11{fill:#BBBBBA;}
	.st12{fill:#EDECED;}
	.st13{fill:#010101;}
</style>
<g>
	<path class="st8" d="M42.37,59.45c-0.24,0.09-0.5,0.15-0.72,0.28c-0.31,0.18-0.61,0.3-0.97,0.26c-0.22-0.02-0.43,0.02-0.61,0.15
		c-0.27,0.18-0.6,0.03-0.87,0.18c-0.16,0.09-0.29,0.09-0.47,0.02c-0.19-0.07-0.42-0.03-0.63-0.07c-0.32-0.07-0.58,0.22-0.86,0.17
		c-0.29-0.06-0.55-0.21-0.86-0.2c-0.26,0.01-0.5-0.04-0.74-0.17c-0.14-0.08-0.33-0.09-0.5-0.09c-0.35,0-0.62-0.29-0.98-0.25
		c-0.4,0.04-0.7-0.32-1.11-0.29c-0.26-0.28-0.66-0.17-0.95-0.35c-0.22-0.13-0.44-0.26-0.68-0.36c-0.48-0.2-0.91-0.45-1.29-0.82
		c-0.21-0.21-0.5-0.33-0.73-0.52c-0.2-0.16-0.37-0.36-0.55-0.55c-0.3-0.31-0.59-0.61-0.8-1c-0.2-0.37-0.49-0.7-0.73-1.05
		c-0.24-0.36-0.41-0.74-0.42-1.19c0-0.12-0.06-0.25-0.12-0.36c-0.09-0.16-0.12-0.32-0.12-0.49c0-0.48,0-0.95,0.01-1.42
		c0.01-0.26,0.04-0.51,0.06-0.77c0.24-0.27,0.17-0.65,0.34-0.96c0.21-0.37,0.35-0.77,0.56-1.15c0.32-0.58,0.31-0.59,0.84-1.08
		c0.19-0.17,0.38-0.34,0.5-0.58c0.2-0.4,0.53-0.65,0.93-0.84c0.46-0.22,0.9-0.48,1.35-0.72c0.3-0.16,0.61-0.3,0.97-0.3
		c0.29-0.25,0.65-0.19,0.99-0.22c0.13-0.01,0.25-0.04,0.38-0.07c-0.02-0.06-0.02-0.11-0.05-0.14c-0.6-0.67-1.09-1.43-1.74-2.07
		c-0.52-0.51-0.78-1.08-1.05-1.87c-0.13-0.37-0.23-0.73-0.22-1.12c0.02-0.47,0.01-0.95,0.02-1.42c0-0.17,0-0.36,0.08-0.5
		c0.15-0.28,0.14-0.58,0.16-0.88c0.02-0.26-0.02-0.52,0.03-0.77c0.05-0.25,0.24-0.46,0.23-0.73c0.2-0.33,0.23-0.73,0.39-1.08
		c0.22-0.46,0.38-0.97,0.68-1.37c0.3-0.41,0.51-0.9,0.9-1.25c0.2-0.17,0.35-0.37,0.43-0.63c0.33-0.34,0.63-0.73,1.02-0.99
		c0.44-0.29,0.79-0.65,1.16-1.01c0.35-0.34,0.77-0.53,1.21-0.69c0.08-0.03,0.18-0.01,0.25-0.05c0.34-0.19,0.67-0.4,1.05-0.46
		c0.39-0.06,0.69-0.35,1.09-0.35c0.26-0.2,0.57-0.18,0.87-0.21c0.47-0.28,0.99-0.24,1.51-0.23c0.6,0.01,1.21,0.01,1.81,0.02
		c0.3,0,0.6,0.01,0.9,0.02c0.04,0,0.08,0.03,0.11,0.06c0.29,0.23,0.7,0.05,0.99,0.24c0.3,0.2,0.67,0.14,0.96,0.34
		c0.21,0.14,0.45,0.24,0.7,0.32c0.2,0.06,0.41,0.08,0.61,0.18c0.69,0.35,1.31,0.79,1.96,1.2c0.63,0.4,1.13,0.92,1.64,1.44
		c0.12,0.13,0.17,0.29,0.26,0.44c0.37,0.67,0.69,1.37,1.05,2.05c0.15,0.28,0.17,0.57,0.29,0.84c0.12,0.28,0.33,0.52,0.39,0.8
		c0.08,0.42,0.22,0.82,0.3,1.24c0.06,0.29-0.05,0.62,0.16,0.87c0.18,0.22,0.09,0.51,0.22,0.73c0.14,0.24,0.16,0.48,0.15,0.75
		c-0.01,0.3-0.01,0.6-0.01,0.91c0,0.17,0.03,0.34,0.13,0.49c0.1,0.15,0.14,0.31,0.14,0.49c0,0.35,0.02,0.68,0.21,1
		c0.1,0.17,0.08,0.42,0.08,0.63c0.01,0.52,0.01,1.03,0.01,1.55c0,0.43-0.02,0.85,0.19,1.25c0.07,0.14,0.04,0.34,0.05,0.51
		c-0.12,0.02-0.28-0.01-0.36,0.06c-0.27,0.24-0.59,0.26-0.92,0.23c-0.47-0.02-0.92,0.08-1.36,0.24c-0.65,0.23-0.85,0.32-1.31,0.72
		c-0.19,0.16-0.2,0.36-0.19,0.57c-0.17,0.02-0.33,0.01-0.49,0.11c-0.46,0.29-0.99,0.46-1.4,0.84c-0.21,0.19-0.53,0.25-0.78,0.39
		c-0.3,0.16-0.49,0.45-0.84,0.57c-0.3,0.1-0.43,0.4-0.42,0.73c-0.3-0.06-0.58-0.11-0.83,0.16c-0.37,0.41-0.78,0.8-1.16,1.21
		c-0.12,0.12-0.22,0.26-0.31,0.41c-0.18,0.29-0.32,0.6-0.2,0.96c-0.1,0.08-0.23,0.15-0.28,0.25c-0.16,0.29-0.29,0.61-0.45,0.9
		c-0.15,0.3-0.14,0.64-0.34,0.94c-0.21,0.3-0.36,0.67-0.3,1.08c0.01,0.07-0.04,0.17-0.09,0.23c-0.14,0.18-0.16,0.38-0.16,0.6
		c0.01,0.3,0.01,0.59-0.19,0.86c-0.07,0.09-0.07,0.24-0.07,0.37c0,0.56,0.02,1.11,0.03,1.67C42.47,59.36,42.43,59.42,42.37,59.45z"
		/>
	<path d="M50.75,47.01c-0.01-0.22,0.01-0.41,0.19-0.57c0.47-0.41,0.67-0.5,1.31-0.72c0.45-0.16,0.89-0.26,1.36-0.24
		c0.01,0.17,0.03,0.33,0.11,0.49c0.43,0.88,0.87,1.76,1.27,2.65c0.36,0.82,0.65,1.67,1.13,2.43c0.09,0.47,0.4,0.86,0.5,1.31
		c0.11,0.52,0.36,0.95,0.59,1.41c0.3,0.61,0.71,1.17,0.83,1.87c0.38,0.76,0.75,1.54,1.16,2.28c0.17,0.3,0.35,0.59,0.38,0.94
		c0.01,0.12,0.05,0.27,0.13,0.35c0.25,0.26,0.33,0.59,0.42,0.92c0.03,0.11,0.14,0.21,0.22,0.31c0.07,0.1,0.25,0.1,0.34,0
		c0.19-0.23,0.38-0.45,0.65-0.59c0.14-0.07,0.27-0.23,0.34-0.38c0.21-0.44,0.56-0.75,0.88-1.08c0.18-0.18,0.36-0.37,0.53-0.56
		c0.32-0.36,0.53-0.78,0.57-1.26c0.01-0.18,0.1-0.32,0.18-0.47c0.1-0.17,0.31-0.3,0.21-0.56c-0.08-0.22,0.15-0.39,0.1-0.61
		c-0.02-0.08-0.02-0.17-0.01-0.26c0.02-0.18-0.09-0.33-0.11-0.49c-0.02-0.16,0.12-0.34,0.09-0.49c-0.08-0.29-0.12-0.59-0.2-0.87
		c-0.19-0.65-0.39-1.3-0.82-1.86c-0.44-0.58-0.84-1.19-1.11-1.87c-0.13-0.32-0.3-0.61-0.54-0.87c-0.07-0.08-0.06-0.24-0.09-0.36
		c0.35-0.17,0.7-0.33,1.04-0.51c0.46-0.24,0.96-0.36,1.43-0.55c0.47,0.04,0.69-0.23,0.87-0.62c0.13-0.29,0.43-0.42,0.75-0.43
		c0.65-0.01,1.29,0,1.94,0.01c0.21,0,0.43,0.01,0.63,0.12c0.04,0.02,0.08,0.03,0.12,0.05c0.45,0.14,0.96-0.01,1.38,0.28
		c0.43,0.04,0.82,0.24,1.24,0.33c0.22,0.05,0.43,0.05,0.62-0.09c0.14-0.1,0.29-0.19,0.42-0.3c0.19-0.14,0.4-0.13,0.62-0.13
		c0.19-0.01,0.35,0.08,0.45,0.22c0.16,0.2,0.29,0.43,0.41,0.65c0.13,0.23,0.03,0.5-0.21,0.67c-0.47,0.33-0.98,0.54-1.56,0.52
		c-0.56-0.02-1.13,0.07-1.65-0.21c-0.04-0.02-0.08-0.03-0.12-0.03c-0.21-0.03-0.43-0.05-0.64-0.07c-0.21-0.02-0.43-0.01-0.64-0.04
		c-0.17-0.02-0.32-0.11-0.49-0.13c-0.21-0.03-0.43-0.03-0.65-0.03c-0.07,0-0.15,0.06-0.21,0.1c-0.01,0.01,0.01,0.09,0.04,0.12
		c0.6,0.62,1.02,1.38,1.55,2.05c0.1,0.13,0.16,0.3,0.23,0.46c0.27,0.59,0.41,1.22,0.61,1.83c0.05,0.16,0.05,0.34,0.05,0.51
		c0,0.39-0.02,0.78-0.01,1.16c0.01,0.43,0.01,0.85-0.12,1.27c0,0.68-0.28,1.23-0.75,1.71c-0.89,0.14-1.79,0.11-2.69,0.05
		c-0.57-0.03-0.84,0.34-0.65,0.92c0.03,0.08,0.08,0.15,0.1,0.24c0.03,0.13,0,0.25-0.08,0.36c-0.12,0.15-0.12,0.31,0,0.47
		c0.12,0.15,0.06,0.33,0.06,0.5c-0.34,0.25-0.21,0.61-0.24,0.94c-0.22,0.3-0.17,0.66-0.19,1c-0.02,0.3-0.04,0.6-0.06,0.9
		c-0.02,0.31-0.2,0.45-0.5,0.46c-0.08,0.01-0.16,0.06-0.23,0.09c0,0.08-0.03,0.19,0.01,0.24c0.22,0.34,0.29,0.71,0.28,1.11
		c-0.01,0.18,0.04,0.33,0.13,0.49c0.06,0.11-0.01,0.23-0.09,0.35c-0.07,0.1-0.1,0.24-0.11,0.36c-0.02,0.18-0.06,0.33-0.19,0.46
		c-0.47,0.45-0.9,0.92-1.12,1.55c-0.05,0.15-0.19,0.29-0.3,0.42c-0.17,0.19-0.34,0.37-0.45,0.62c-0.08,0.19-0.27,0.33-0.41,0.49
		c-0.18,0.21-0.72,0.3-1.08,0.1c-0.1-0.06-0.23-0.17-0.24-0.28c-0.05-0.34-0.07-0.68,0.1-1c0.51-0.95,1.04-1.88,1.68-2.75
		c0.22-0.29,0.33-0.59,0.32-0.95c-0.01-0.3,0.01-0.6,0-0.91c-0.02-0.53-0.12-1.02-0.46-1.45c-0.17-0.22-0.15-0.5-0.06-0.74
		c0.1-0.28,0.23-0.55,0.25-0.86c0-0.03-0.04-0.07-0.06-0.11c-0.05-0.09-0.12-0.1-0.2-0.02c-0.33,0.34-0.55,0.76-0.91,1.08
		c-0.32,0.28-0.6,0.61-0.82,0.99c-0.06,0.1-0.21,0.13-0.32,0.2c-0.07,0.05-0.16,0.09-0.2,0.16c-0.23,0.43-0.54,0.75-1.04,0.87
		c-0.12,0.03-0.16,0.18-0.22,0.29c-0.13,0.22-0.3,0.4-0.6,0.42c-0.16,0.01-0.34,0.12-0.45,0.24c-0.43,0.5-1.03,0.77-1.52,1.18
		c-0.15,0.13-0.44,0.15-0.44,0.41c0,0.16,0.11,0.32,0.17,0.48c0.06,0.17,0.05,0.34-0.08,0.48c-0.17,0.17-0.18,0.37-0.15,0.59
		c0.02,0.18-0.01,0.36-0.14,0.48c-0.3,0.28-0.38,0.66-0.54,1.01c-0.05,0.11,0,0.28-0.07,0.36c-0.2,0.23-0.29,0.51-0.45,0.75
		c-0.13,0.2-0.43,0.29-0.69,0.16c-0.23-0.11-0.39-0.12-0.57,0.06c-0.15,0.16-0.33,0.27-0.56,0.3c-0.18,0.02-0.31,0.13-0.32,0.34
		c-0.03,0.51-0.31,0.88-0.72,1.16c-0.14,0.1-0.28,0.18-0.35,0.36c-0.03,0.07-0.1,0.16-0.17,0.18c-0.38,0.11-0.69,0.36-1.03,0.54
		c-0.78,0.41-1.56,0.36-2.32-0.08c-0.09-0.05-0.12-0.24-0.06-0.35c0.16-0.32,0.41-0.56,0.7-0.75c0.14-0.09,0.3-0.16,0.46-0.22
		c0.95-0.39,1.67-1.05,2.22-1.9c0.1-0.16,0.24-0.23,0.41-0.28c0.12-0.04,0.24-0.09,0.35-0.16c0.11-0.07,0.2-0.17,0.29-0.25
		c0.01-0.34-0.02-0.68,0.19-0.99c0.21-0.32,0.36-0.68,0.53-1.02c0.05-0.1-0.16-0.36-0.29-0.36c-0.08,0-0.17-0.01-0.25,0.02
		c-0.42,0.15-0.83,0.15-1.24-0.02c-0.08-0.03-0.17-0.06-0.25-0.06c-0.08,0-0.18,0-0.25,0.04c-0.24,0.14-0.47,0.16-0.73,0.07
		c-0.28-0.09-0.59-0.11-0.88-0.2c-0.25-0.07-0.47-0.22-0.74-0.2c-0.08,0-0.28,0.14-0.29,0.21c-0.04,0.25,0.12,0.54-0.06,0.75
		c-0.16,0.2-0.4,0.33-0.57,0.51c-0.14,0.15-0.19,0.41-0.35,0.51c-0.29,0.19-0.4,0.56-0.75,0.69c-0.14,0.05-0.24,0.24-0.33,0.38
		c-0.24,0.36-0.46,0.73-0.94,0.81c-0.27,0.19-0.47,0.49-0.83,0.58c-0.05,0.01-0.12,0.14-0.11,0.21c0.02,0.36-0.23,0.64-0.27,0.99
		c-0.01,0.08-0.06,0.16-0.09,0.23c-0.07,0.16-0.18,0.3-0.38,0.29c-0.18-0.01-0.34,0.03-0.49,0.13c-0.47,0.32-0.98,0.52-1.57,0.47
		c-0.17-0.02-0.29,0.17-0.47,0.1c-0.12-0.04-0.25-0.08-0.37-0.1c-0.25-0.04-0.51-0.07-0.76-0.11c-0.12-0.02-0.23-0.34-0.14-0.45
		c0.16-0.2,0.33-0.4,0.52-0.57c0.09-0.08,0.23-0.14,0.35-0.14c0.36,0.01,0.66-0.17,0.99-0.24c0.29-0.06,0.61-0.05,0.81-0.33
		c0.28-0.39,0.51-0.8,0.46-1.31c-0.01-0.09-0.02-0.17-0.04-0.26c-0.1-0.49,0.03-0.94,0.28-1.36c1.07-0.6,1.95-1.39,2.65-2.4
		c0.12-0.18,0.26-0.34,0.39-0.51c0.06-0.08,0.02-0.27-0.08-0.34c-0.28-0.2-0.55-0.41-0.84-0.62c-0.17,0.06-0.34,0.1-0.48,0.18
		c-0.17,0.09-0.35,0.09-0.5,0.04c-0.28-0.11-0.55-0.23-0.86-0.23c-0.26,0-0.47-0.2-0.74-0.19c-0.17,0-0.3-0.12-0.38-0.3
		c-0.1-0.24-0.2-0.47-0.34-0.69c-0.25-0.37-0.25-0.72,0.02-1.07c0.12-0.15,0.13-0.31,0.04-0.47c-0.09-0.15-0.19-0.29-0.24-0.45
		c-0.05-0.16-0.04-0.35,0.09-0.49c0.12-0.13,0.23-0.27,0.38-0.34c0.27-0.14,0.36-0.35,0.38-0.62c0.01-0.08,0.06-0.16,0.09-0.24
		c0.07-0.04,0.1-0.09,0.12-0.17c0.04,0,0.11-0.01,0.12,0.01c0.07,0.11,0.12,0.22,0.18,0.33c0.2,0.42,0.5,0.81,0.43,1.32
		c0.21,0.46,0.29,0.98,0.65,1.38c0.47,0.51,1.04,0.9,1.58,1.32c0.31,0.24,0.67,0.38,1.03,0.51c0.32,0.11,0.64,0.25,0.93,0.42
		c0.26,0.16,0.52,0.26,0.82,0.35c0.28,0.08,0.55,0.23,0.86,0.23c0.3,0,0.59,0.08,0.87,0.2c0.11,0.05,0.26-0.1,0.24-0.21
		c-0.02-0.13-0.03-0.26-0.08-0.37c-0.24-0.55-0.5-1.09-0.75-1.63c-0.16-0.35-0.31-0.7-0.47-1.05c-0.16-0.35-0.29-0.72-0.49-1.05
		c-0.2-0.34-0.26-0.72-0.43-1.06c-0.36-0.73-0.72-1.46-1.06-2.2c-0.35-0.78-0.64-1.59-1.06-2.34c-0.1-0.19-0.23-0.37-0.28-0.58
		c-0.16-0.68-0.57-1.24-0.81-1.88c-0.1-0.24-0.24-0.46-0.45-0.61c-0.12-0.36,0.02-0.67,0.2-0.96c0.09-0.14,0.19-0.28,0.31-0.41
		c0.38-0.41,0.79-0.79,1.16-1.21c0.25-0.27,0.53-0.23,0.83-0.16c0.09,0.28,0.24,0.56,0.27,0.85c0.04,0.36,0.11,0.68,0.38,0.93
		c0.26,0.24,0.46,0.52,0.47,0.89c0.48,0.9,0.8,1.88,1.26,2.79c0.15,0.31,0.33,0.61,0.3,0.97c-0.01,0.12,0.09,0.22,0.21,0.3
		c0.26,0.18,0.36,0.48,0.46,0.74c0.07,0.19,0.03,0.42,0.18,0.6c0.36,0.44,0.46,1,0.64,1.53c0.07,0.2,0.09,0.41,0.25,0.57
		c0.09,0.09,0.21,0.21,0.22,0.31c0.02,0.42,0.31,0.7,0.5,1.03c0.13,0.22,0.31,0.46,0.32,0.69c0.03,0.38,0.25,0.63,0.41,0.93
		c0.08,0.16,0.13,0.31,0.17,0.48c0.13,0.5,0.44,0.92,0.75,1.32c0.04,0.06,0.15,0.07,0.23,0.09c0.46,0.09,0.82-0.19,1.21-0.34
		c0.44-0.42,1.03-0.61,1.53-0.94c0.41-0.09,0.66-0.4,0.94-0.66c0.22-0.2,0.22-0.38,0.13-0.58c-0.19-0.38-0.4-0.76-0.49-1.18
		c-0.3-0.37-0.44-0.83-0.63-1.26c-0.31-0.66-0.61-1.32-0.91-1.98c-0.32-0.7-0.55-1.44-0.96-2.09c-0.02-0.03-0.02-0.08-0.03-0.13
		c-0.12-0.5-0.4-0.94-0.56-1.43c-0.18-0.52-0.49-1-0.73-1.5c-0.24-0.5-0.48-1.01-0.71-1.52c-0.09-0.19-0.1-0.44-0.22-0.59
		c-0.3-0.38-0.4-0.85-0.59-1.28c-0.21-0.47-0.53-0.89-0.6-1.42C51.02,47.54,51.04,47.18,50.75,47.01z"/>
	<path class="st1" d="M61.38,47.85c0.03,0.12,0.01,0.29,0.09,0.36c0.25,0.25,0.42,0.55,0.54,0.87c0.27,0.68,0.67,1.29,1.11,1.87
		c0.43,0.56,0.63,1.21,0.82,1.86c0.08,0.28,0.12,0.58,0.2,0.87c0.04,0.14-0.11,0.33-0.09,0.49c0.02,0.16,0.13,0.31,0.11,0.49
		c-0.01,0.08-0.01,0.18,0.01,0.26c0.06,0.22-0.18,0.4-0.1,0.61c0.1,0.26-0.11,0.38-0.21,0.56c-0.09,0.15-0.17,0.29-0.18,0.47
		c-0.04,0.49-0.24,0.9-0.57,1.26c-0.17,0.19-0.35,0.38-0.53,0.56c-0.33,0.33-0.68,0.64-0.88,1.08c-0.07,0.15-0.2,0.3-0.34,0.38
		c-0.28,0.14-0.46,0.36-0.65,0.59c-0.09,0.1-0.26,0.09-0.34,0c-0.08-0.1-0.19-0.19-0.22-0.31c-0.09-0.33-0.17-0.66-0.42-0.92
		c-0.08-0.08-0.12-0.23-0.13-0.35c-0.03-0.36-0.21-0.64-0.38-0.94c-0.41-0.75-0.78-1.52-1.16-2.28c-0.12-0.69-0.52-1.26-0.83-1.87
		c-0.23-0.46-0.48-0.89-0.59-1.41c-0.1-0.45-0.41-0.84-0.5-1.31c-0.48-0.76-0.76-1.62-1.13-2.43c-0.4-0.89-0.83-1.77-1.27-2.65
		c-0.08-0.16-0.1-0.32-0.11-0.49c0.33,0.02,0.64,0,0.92-0.23c0.08-0.07,0.24-0.04,0.36-0.06c0.04,0,0.09,0.01,0.13,0.01
		c0.44-0.03,0.85,0.07,1.22,0.29c0.3,0.18,0.61,0.33,0.96,0.26c0.5-0.1,0.89,0.21,1.35,0.29c0.44,0.08,0.79,0.47,1.28,0.51
		c0.11,0.01,0.21,0.13,0.31,0.21C60.59,47.08,60.92,47.54,61.38,47.85z"/>
	<path class="st1" d="M50.75,47.01c0.29,0.17,0.27,0.53,0.46,0.75c0.07,0.53,0.39,0.95,0.6,1.42c0.19,0.43,0.29,0.9,0.59,1.28
		c0.12,0.16,0.13,0.4,0.22,0.59c0.23,0.51,0.47,1.01,0.71,1.52c0.24,0.5,0.55,0.98,0.73,1.5c0.17,0.49,0.44,0.93,0.56,1.43
		c0.01,0.04,0.01,0.09,0.03,0.13c0.41,0.66,0.64,1.4,0.96,2.09c0.3,0.66,0.6,1.32,0.91,1.98c0.2,0.43,0.33,0.88,0.63,1.26
		c0.09,0.42,0.3,0.8,0.49,1.18c0.09,0.19,0.09,0.37-0.13,0.58c-0.28,0.26-0.53,0.58-0.94,0.66c-0.5,0.33-1.09,0.52-1.53,0.94
		c-0.39,0.16-0.75,0.43-1.21,0.34c-0.08-0.02-0.19-0.03-0.23-0.09c-0.32-0.4-0.62-0.82-0.75-1.32c-0.04-0.17-0.09-0.32-0.17-0.48
		c-0.16-0.3-0.38-0.55-0.41-0.93c-0.02-0.24-0.19-0.47-0.32-0.69c-0.2-0.33-0.48-0.6-0.5-1.03c0-0.11-0.13-0.22-0.22-0.31
		c-0.16-0.16-0.18-0.37-0.25-0.57c-0.17-0.52-0.27-1.08-0.64-1.53c-0.15-0.18-0.11-0.41-0.18-0.6c-0.1-0.27-0.2-0.57-0.46-0.74
		c-0.11-0.08-0.22-0.17-0.21-0.3c0.02-0.37-0.15-0.67-0.3-0.97c-0.46-0.91-0.78-1.89-1.26-2.79c-0.01-0.37-0.21-0.65-0.47-0.89
		c-0.27-0.25-0.34-0.57-0.38-0.93c-0.03-0.29-0.17-0.57-0.27-0.85c-0.01-0.33,0.12-0.63,0.42-0.73c0.34-0.12,0.54-0.41,0.84-0.57
		c0.26-0.14,0.58-0.2,0.78-0.39c0.42-0.38,0.95-0.54,1.4-0.84C50.42,47.02,50.59,47.04,50.75,47.01z"/>
	<path class="st1" d="M44.33,52.38c0.22,0.16,0.36,0.37,0.45,0.61c0.25,0.64,0.66,1.2,0.81,1.88c0.05,0.2,0.17,0.39,0.28,0.58
		c0.41,0.75,0.71,1.56,1.06,2.34c0.33,0.74,0.7,1.47,1.06,2.2c0.17,0.34,0.24,0.73,0.43,1.06c0.19,0.33,0.33,0.69,0.49,1.05
		c0.16,0.35,0.31,0.7,0.47,1.05c0.25,0.54,0.51,1.08,0.75,1.63c0.05,0.11,0.06,0.25,0.08,0.37c0.02,0.11-0.14,0.26-0.24,0.21
		c-0.28-0.12-0.57-0.2-0.87-0.2c-0.31,0-0.57-0.15-0.86-0.23c-0.29-0.08-0.56-0.19-0.82-0.35c-0.29-0.18-0.61-0.31-0.93-0.42
		c-0.37-0.13-0.72-0.27-1.03-0.51c-0.54-0.43-1.11-0.81-1.58-1.32c-0.37-0.4-0.44-0.92-0.65-1.38c0.07-0.51-0.23-0.9-0.43-1.32
		c-0.05-0.11-0.11-0.23-0.18-0.33c-0.01-0.02-0.08-0.01-0.12-0.01c-0.01-0.56-0.02-1.11-0.03-1.67c0-0.12,0-0.27,0.07-0.37
		c0.19-0.27,0.19-0.56,0.19-0.86c0-0.22,0.02-0.42,0.16-0.6c0.05-0.06,0.1-0.16,0.09-0.23c-0.06-0.41,0.09-0.78,0.3-1.08
		c0.2-0.3,0.19-0.64,0.34-0.94c0.15-0.3,0.28-0.61,0.45-0.9C44.1,52.53,44.23,52.47,44.33,52.38z"/>
</g>
</svg>
