<?xml version="1.0" encoding="utf-8"?>
<!-- Generator: Adobe Illustrator 22.1.0, SVG Export Plug-In . SVG Version: 6.00 Build 0)  -->
<svg version="1.1" id="Layer_1" xmlns="http://www.w3.org/2000/svg" xmlns:xlink="http://www.w3.org/1999/xlink" x="0px" y="0px"
	 viewBox="0 0 124.7 123.8" style="enable-background:new 0 0 124.7 123.8;" xml:space="preserve">
<style type="text/css">
	.st0{fill:#CCCCCC;}
	.st1{fill:#999999;}
</style>
<title>Asset 1</title>
<g id="Layer_2_1_">
	<g id="Art">
		<path class="st0" d="M42,87.1c-0.7,0.2-1.3,0.4-1.9,0.8c-0.8,0.5-1.7,0.8-2.6,0.7c-0.6-0.1-1.2,0.1-1.6,0.4
			c-0.7,0.5-1.6,0.1-2.3,0.5c-0.4,0.2-0.8,0.3-1.2,0.1c-0.6-0.1-1.1-0.2-1.7-0.2c-0.9-0.2-1.5,0.6-2.3,0.4c-0.7-0.3-1.5-0.5-2.3-0.5
			c-0.7,0-1.4-0.1-2-0.4c-0.4-0.2-0.9-0.3-1.3-0.2c-0.9,0-1.6-0.8-2.6-0.7s-1.9-0.9-3-0.8c-0.7-0.8-1.8-0.4-2.6-0.9
			c-0.6-0.4-1.2-0.7-1.8-1c-1.3-0.5-2.4-1.2-3.4-2.2c-0.6-0.6-1.3-0.9-1.9-1.4c-0.5-0.5-1-0.9-1.5-1.5c-0.8-0.8-1.5-1.7-2.1-2.7
			c-0.5-1-1.3-1.9-2-2.8s-1.1-2-1.1-3.2c0-0.4-0.1-0.7-0.3-1C0.1,70.1,0,69.6,0,69.2c0-1.3,0-2.5,0-3.8c0-0.7,0.1-1.4,0.2-2
			c0.6-0.7,0.5-1.7,0.9-2.5c0.6-1,0.9-2.1,1.5-3.1c0.5-1.1,1.3-2.1,2.2-2.9c0.5-0.4,1-1,1.3-1.6c0.5-1,1.4-1.8,2.5-2.2
			c1.2-0.6,2.4-1.3,3.6-1.9c0.8-0.5,1.7-0.8,2.6-0.8c0.8-0.7,1.7-0.5,2.6-0.6c0.3,0,0.7-0.1,1-0.2c0-0.1-0.1-0.2-0.1-0.4
			c-1.6-1.8-2.9-3.8-4.6-5.5c-1.3-1.4-2.3-3.1-2.8-5c-0.4-1-0.6-2-0.6-3c0-1.3,0-2.5,0.1-3.8c0-0.5,0.1-0.9,0.2-1.3
			c0.3-0.7,0.5-1.6,0.4-2.4c0-0.7,0-1.4,0.1-2.1s0.6-1.2,0.6-2c0.4-0.9,0.7-1.9,1-2.9c0.5-1.3,1.1-2.5,1.8-3.6
			c0.7-1.2,1.5-2.3,2.5-3.4c0.5-0.4,0.9-1,1.1-1.7c0.8-1,1.7-1.9,2.7-2.6C22,7.2,23,6.3,24,5.3c0.9-0.8,2-1.5,3.2-1.8
			c0.2-0.1,0.5,0,0.7-0.1c0.9-0.6,1.8-1,2.8-1.2s1.9-0.9,2.9-0.9c0.7-0.4,1.5-0.6,2.3-0.6c1.2-0.6,2.6-0.8,4-0.6h4.8
			c0.8,0,1.6,0,2.4,0.1c0.1,0,0.2,0.1,0.3,0.2C48.2,1,49.3,0.5,50,1s1.8,0.4,2.6,0.9c0.6,0.4,1.2,0.7,1.9,0.8
			c0.6,0.1,1.1,0.3,1.6,0.5c1.9,0.8,3.6,2,5.3,3.1c1.6,1.1,3.1,2.4,4.4,3.8c0.3,0.4,0.5,0.8,0.7,1.2c1,1.8,1.8,3.6,2.8,5.5
			c0.4,0.7,0.5,1.5,0.8,2.2c0.4,0.7,0.7,1.4,1,2.1c0.2,1.1,0.6,2.2,0.8,3.3c0.2,0.8-0.1,1.7,0.4,2.3s0.2,1.4,0.6,1.9
			c0.3,0.6,0.5,1.3,0.4,2c0,0.8,0,1.6,0,2.4c0,0.5,0.1,0.9,0.3,1.3c0.3,0.4,0.4,0.8,0.4,1.3c-0.1,0.9,0.1,1.8,0.6,2.7
			c0.2,0.5,0.3,1.1,0.2,1.7c0,1.4,0,2.8,0,4.2c-0.1,1.1,0.1,2.3,0.5,3.3c0.1,0.4,0.2,0.9,0.2,1.4c-0.3,0-0.8,0-1,0.2
			c-0.7,0.5-1.6,0.8-2.4,0.6c-1.2,0-2.5,0.2-3.7,0.6c-1.3,0.3-2.5,1-3.5,1.9c-0.4,0.4-0.6,1-0.5,1.5c-0.5,0-0.9,0.1-1.3,0.3
			c-1.3,0.6-2.6,1.4-3.8,2.2c-0.7,0.4-1.4,0.7-2.1,1c-0.8,0.4-1.3,1.2-2.2,1.5c-0.8,0.3-1.2,1.1-1.1,1.9c-0.8-0.3-1.6-0.1-2.2,0.4
			c-1,1.1-2.1,2.1-3.1,3.2c-0.3,0.3-0.6,0.7-0.8,1.1C47.2,66,47,67,47.3,67.9c-0.3,0.2-0.5,0.4-0.8,0.7c-0.4,0.8-0.8,1.6-1.2,2.4
			s-0.4,1.7-0.9,2.5c-0.6,0.8-0.9,1.9-0.8,2.9c0,0.2-0.1,0.4-0.2,0.6c-0.3,0.5-0.5,1.1-0.4,1.7c0.1,0.8-0.1,1.6-0.5,2.3
			c-0.2,0.3-0.2,0.7-0.2,1c0,1.5,0,3,0.1,4.5C42.2,86.9,42.1,87.1,42,87.1z"/>
		<path d="M64.3,53.9c-0.1-0.6,0.1-1.1,0.5-1.5c1-0.9,2.2-1.6,3.5-1.9c1.2-0.4,2.4-0.7,3.6-0.6c0,0.5,0.1,0.9,0.3,1.3
			c1.2,2.3,2.3,4.7,3.4,7.1c0.8,2.2,1.8,4.4,3,6.5c0.3,1.3,1.1,2.3,1.4,3.5c0.4,1.3,0.9,2.6,1.6,3.8c0.8,1.6,1.9,3.1,2.2,5
			c1,2,2,4.1,3.1,6.1c0.5,0.8,0.8,1.6,1,2.5c0,0.3,0.1,0.7,0.3,0.9c0.6,0.7,1,1.6,1.1,2.5c0.1,0.3,0.4,0.6,0.6,0.8
			c0.2,0.2,0.6,0.3,0.8,0l0,0c0.5-0.6,1.1-1.2,1.8-1.6c0.4-0.2,0.7-0.6,0.9-1c0.6-1.1,1.4-2.1,2.4-2.9c0.5-0.5,1-1,1.4-1.5
			c0.9-0.9,1.4-2.1,1.5-3.4c0.1-0.5,0.2-0.9,0.5-1.3c0.3-0.5,0.8-0.8,0.6-1.5s0.4-1,0.3-1.6c0-0.2,0-0.5,0-0.7c0-0.5-0.2-1-0.3-1.4
			c-0.1-0.4,0.3-0.9,0.2-1.3c-0.2-0.8-0.3-1.6-0.5-2.3c-0.4-1.8-1.2-3.5-2.2-5c-1.2-1.5-2.2-3.2-3-5c-0.3-0.8-0.8-1.6-1.4-2.2
			c-0.2-0.2-0.2-0.6-0.2-1c0.9-0.5,1.9-0.9,2.8-1.3c1.2-0.6,2.5-1.1,3.8-1.5c1.2,0.1,1.8-0.6,2.3-1.7c0.4-0.7,1.2-1.2,2-1.1
			c1.7,0,3.5,0,5.2,0c0.6,0,1.2,0.1,1.7,0.3c0.1,0.1,0.2,0.1,0.3,0.1c1.2,0.4,2.6,0,3.7,0.8c1.1,0.2,2.2,0.5,3.3,0.9
			c0.6,0.2,1.2,0.1,1.6-0.2s0.8-0.5,1.1-0.8c0.5-0.3,1.1-0.4,1.6-0.4s0.9,0.2,1.2,0.6c0.4,0.6,0.8,1.1,1.1,1.7
			c0.3,0.6,0.1,1.4-0.6,1.8c-1.2,0.9-2.7,1.4-4.2,1.4s-3,0.2-4.4-0.6c-0.1-0.1-0.2-0.1-0.3-0.1c-0.6-0.1-1.2-0.2-1.7-0.2
			s-1.2,0-1.7-0.1s-0.9-0.3-1.3-0.3c-0.6-0.1-1.1-0.1-1.7-0.1c-0.2,0-0.4,0.1-0.6,0.3c0,0,0,0.2,0.1,0.3c1.5,1.8,2.9,3.6,4.2,5.5
			c0.3,0.4,0.5,0.8,0.6,1.2c0.6,1.6,1.2,3.2,1.6,4.9c0.1,0.4,0.2,0.9,0.1,1.3c0,1-0.1,2.1,0,3.1c0.1,1.1,0,2.3-0.3,3.4
			c0,1.7-0.7,3.4-2,4.6c-2.4,0.3-4.8,0.3-7.2,0.1c-1.5-0.1-2.2,0.9-1.7,2.4c0.1,0.2,0.2,0.4,0.3,0.6c0.1,0.4,0,0.7-0.2,1
			c-0.3,0.3-0.3,0.9,0,1.2c0.3,0.4,0.2,0.9,0.2,1.3c-0.9,0.7-0.6,1.7-0.6,2.5c-0.4,0.8-0.6,1.7-0.5,2.7c-0.1,0.8-0.1,1.6-0.2,2.4
			s-0.5,1.2-1.3,1.2c-0.2,0-0.4,0.1-0.6,0.2c0,0.2-0.1,0.5,0,0.7c0.6,0.9,0.8,1.9,0.7,3c0,0.5,0.1,0.9,0.3,1.3
			c0.2,0.3,0,0.6-0.2,0.9s-0.3,0.6-0.3,1c0,0.5-0.2,0.9-0.5,1.2c-1.3,1.1-2.4,2.5-3,4.1c-0.2,0.4-0.5,0.8-0.8,1.1
			c-0.5,0.5-0.9,1-1.2,1.7c-0.3,0.5-0.7,0.9-1.1,1.3c-0.8,0.7-2,0.7-2.9,0.2c-0.3-0.2-0.5-0.4-0.7-0.7c-0.2-0.9-0.1-1.8,0.3-2.7
			c1.3-2.5,2.8-5,4.5-7.3c0.6-0.7,0.9-1.7,0.8-2.6c0-0.8,0-1.6,0-2.4c0-1.4-0.4-2.8-1.2-3.9c-0.4-0.6-0.5-1.4-0.2-2
			c0.3-0.7,0.6-1.5,0.7-2.3c0-0.1-0.1-0.2-0.2-0.3s-0.3-0.3-0.5,0c-0.9,0.9-1.5,2-2.4,2.9c-0.9,0.8-1.6,1.7-2.2,2.6
			c-0.2,0.3-0.6,0.4-0.8,0.5s-0.4,0.2-0.5,0.4c-0.5,1.2-1.5,2-2.8,2.3c-0.3,0.1-0.4,0.5-0.6,0.8c-0.3,0.6-0.9,1-1.6,1.1
			c-0.5,0.1-0.9,0.3-1.2,0.7c-1.2,1.3-2.8,2-4.1,3.2c-0.4,0.3-1.2,0.4-1.2,1.1c0.1,0.5,0.2,0.9,0.4,1.3c0.2,0.4,0.1,0.9-0.2,1.3
			c-0.4,0.4-0.5,1-0.4,1.6c0.1,0.5,0,0.9-0.4,1.3c-0.7,0.8-1.1,1.7-1.4,2.7c-0.1,0.3,0,0.8-0.2,1c-0.5,0.6-0.8,1.3-1.2,2
			c-0.4,0.6-1.2,0.8-1.8,0.4c-0.5-0.3-1.1-0.3-1.5,0.2c-0.4,0.4-0.9,0.7-1.5,0.8c-0.5,0-0.9,0.4-0.9,0.9c-0.1,1.3-0.8,2.4-1.9,3.1
			c-0.4,0.2-0.8,0.6-0.9,1c-0.1,0.2-0.2,0.4-0.4,0.5c-1,0.3-1.9,0.8-2.7,1.3c-1.9,1.1-4.3,1-6.2-0.2c-0.3-0.2-0.3-0.6-0.2-0.9
			c0.4-0.8,1.1-1.5,1.8-2c0.4-0.2,0.8-0.4,1.2-0.6c2.5-1,4.5-2.8,5.9-5.1c0.3-0.4,0.6-0.7,1.1-0.8c0.3-0.1,0.6-0.2,0.9-0.4
			c0.3-0.2,0.5-0.4,0.8-0.7c-0.1-0.9,0.1-1.8,0.5-2.6c0.5-0.9,1-1.8,1.4-2.7c0.1-0.2-0.4-0.9-0.8-1c-0.2,0-0.4,0-0.7,0
			c-1.1,0.4-2.3,0.4-3.3,0c-0.2-0.1-0.4-0.1-0.7-0.2c-0.2,0-0.5,0-0.7,0.1c-0.6,0.4-1.3,0.4-2,0.2c-0.8-0.2-1.6-0.3-2.3-0.5
			c-0.6-0.3-1.3-0.5-2-0.5c-0.2,0-0.7,0.4-0.8,0.6c-0.1,0.7,0.3,1.4-0.2,2s-1.1,0.9-1.5,1.4s-0.5,1.1-1,1.4c-0.8,0.5-1.1,1.5-2,1.8
			c-0.4,0.1-0.6,0.6-0.9,1c-0.6,1-1.2,2-2.5,2.2c-0.7,0.5-1.3,1.3-2.2,1.6c-0.2,0.1-0.3,0.3-0.3,0.6c0,1-0.6,1.7-0.7,2.6
			c0,0.2-0.1,0.4-0.2,0.6c-0.2,0.4-0.5,0.8-1,0.8s-0.9,0.1-1.3,0.3c-1.2,0.9-2.7,1.4-4.2,1.2c-0.5,0-0.8,0.5-1.3,0.3
			c-0.3-0.1-0.7-0.2-1-0.3c-0.7-0.1-1.4-0.2-2-0.3c-0.3-0.1-0.6-0.9-0.4-1.2c0.4-0.5,0.9-1,1.4-1.5c0.3-0.2,0.6-0.4,0.9-0.4
			c0.9-0.1,1.8-0.2,2.7-0.5c0.8-0.2,1.6-0.1,2.2-0.9c0.8-1,1.3-2.2,1.2-3.5c0-0.2-0.1-0.5-0.1-0.7c-0.2-1.3,0-2.6,0.8-3.6
			c2.8-1.6,5.2-3.8,7.1-6.4c0.3-0.5,0.7-0.9,1-1.4c0.1-0.3,0.1-0.7-0.2-0.9c-0.7-0.6-1.5-1.1-2.2-1.7c-0.4,0.1-0.9,0.3-1.3,0.5
			c-0.4,0.2-0.9,0.3-1.3,0.1c-0.7-0.4-1.5-0.6-2.3-0.6c-0.7,0-1.2-0.5-2-0.5c-0.5,0-0.9-0.3-1-0.8c-0.2-0.6-0.5-1.2-0.8-1.8
			c-0.7-0.8-0.6-2.1,0.1-2.9c0.3-0.4,0.4-0.9,0.1-1.3c-0.3-0.4-0.5-0.8-0.6-1.2c-0.2-0.4-0.1-0.9,0.2-1.3s0.6-0.7,1-0.9
			c0.6-0.3,1-1,1-1.7c0-0.2,0.1-0.4,0.2-0.6c0.2-0.1,0.3-0.2,0.3-0.4c0.1,0,0.3,0,0.3,0c0.2,0.3,0.3,0.6,0.5,0.9
			c0.5,1.1,1.3,2.2,1.2,3.5c0.6,1.2,0.8,2.6,1.7,3.7c1.3,1.3,2.7,2.5,4.2,3.5c0.8,0.6,1.8,1.1,2.8,1.4c0.9,0.3,1.7,0.7,2.5,1.1
			c0.7,0.4,1.4,0.7,2.2,0.9c0.7,0.3,1.5,0.5,2.3,0.6c0.8,0,1.6,0.2,2.3,0.5c0.3,0.1,0.7-0.3,0.7-0.6c0-0.3-0.1-0.7-0.2-1
			c-0.7-1.4-1.3-2.9-2-4.3c-0.4-0.9-0.8-1.9-1.2-2.8c-0.4-1-0.8-1.9-1.3-2.8s-0.7-1.9-1.2-2.8c-1-1.9-1.9-3.9-2.8-5.9
			s-1.7-4.2-2.8-6.2c-0.3-0.5-0.6-1-0.7-1.5c-0.4-1.8-1.5-3.3-2.2-5c-0.2-0.7-0.7-1.2-1.2-1.6c-0.2-0.9,0-1.8,0.5-2.6
			c0.2-0.4,0.5-0.7,0.8-1.1c1-1.1,2.1-2.1,3.1-3.2c0.6-0.6,1.5-0.8,2.2-0.4c0.3,0.7,0.6,1.5,0.7,2.3c0,0.9,0.4,1.8,1,2.5
			c0.7,0.6,1.2,1.4,1.3,2.4c1.3,2.4,2.1,5,3.4,7.4c0.5,0.8,0.8,1.7,0.8,2.6c0,0.3,0.3,0.6,0.6,0.8c0.6,0.5,1,1.2,1.2,2
			c0.2,0.5,0.1,1.1,0.5,1.6c0.8,1.2,1.4,2.6,1.7,4c0.1,0.6,0.3,1.1,0.7,1.5c0.2,0.2,0.6,0.5,0.6,0.8c0.1,1.1,0.8,1.9,1.3,2.7
			c0.4,0.5,0.7,1.2,0.9,1.9c0.2,0.9,0.5,1.7,1.1,2.5c0.2,0.4,0.4,0.8,0.5,1.3c0.4,1.3,1.1,2.5,2,3.5c0.2,0.1,0.4,0.2,0.6,0.2
			c1.2,0.2,2.2-0.5,3.2-0.9c1.1-1.1,2.7-1.6,4.1-2.5c1-0.3,1.9-1,2.5-1.8c0.5-0.3,0.6-1,0.3-1.5c-0.6-1-1-2.1-1.3-3.2
			c-0.7-1-1.3-2.2-1.7-3.4c-0.8-1.8-1.6-3.5-2.4-5.3c-0.7-1.9-1.6-3.8-2.6-5.6c0-0.1-0.1-0.2-0.1-0.3c-0.3-1.3-1.1-2.5-1.5-3.8
			c-0.6-1.4-1.3-2.7-2-4s-1.3-2.7-1.9-4.1C69.2,64,69,63.5,68.7,63c-0.7-1.1-1.2-2.2-1.6-3.4c-0.6-1.2-1.4-2.4-1.6-3.8
			C65.1,55.3,65.1,54.4,64.3,53.9z"/>
		<path class="st1" d="M92.7,56.2c0.1,0.3,0,0.8,0.2,1c0.6,0.7,1.1,1.5,1.4,2.3c0.8,1.8,1.8,3.5,3,5c1,1.5,1.8,3.2,2.2,5
			c0.2,0.8,0.3,1.6,0.5,2.3c0.1,0.4-0.3,0.9-0.2,1.3c0.1,0.4,0.2,0.9,0.3,1.3c0,0.2,0,0.5,0,0.7c0.2,0.6-0.5,1.1-0.3,1.6
			s-0.3,1-0.6,1.5c-0.3,0.4-0.4,0.8-0.5,1.3c-0.1,1.3-0.6,2.5-1.5,3.4c-0.5,0.5-0.9,1-1.4,1.5c-0.9,0.8-1.7,1.8-2.4,2.9
			c-0.2,0.4-0.5,0.8-0.9,1c-0.7,0.4-1.3,0.9-1.8,1.6c-0.2,0.2-0.6,0.3-0.8,0l0,0c-0.2-0.2-0.5-0.5-0.6-0.8c-0.2-0.9-0.5-1.8-1.1-2.5
			c-0.1-0.3-0.2-0.6-0.2-1c-0.2-0.9-0.5-1.8-1-2.5c-1.1-2-2.1-4-3.1-6.1c-0.3-1.8-1.4-3.3-2.2-5c-0.7-1.2-1.2-2.4-1.6-3.8
			C79.8,67,79,66,78.7,64.7c-1.2-2.1-2.2-4.3-3-6.5c-1.1-2.4-2.2-4.7-3.4-7.1c-0.2-0.4-0.3-0.9-0.3-1.3c0.9,0.1,1.8-0.1,2.4-0.6
			c0.2-0.2,0.6-0.1,1-0.2c0.1,0,0.2,0,0.3,0c1.1-0.1,2.3,0.2,3.2,0.8c0.7,0.6,1.7,0.8,2.6,0.7c1.3-0.3,2.4,0.6,3.6,0.8
			s2.1,1.3,3.4,1.4c0.3,0,0.6,0.3,0.8,0.6C90.6,54.1,91.5,55.3,92.7,56.2z"/>
		<path class="st1" d="M64.3,53.9c0.8,0.5,0.7,1.4,1.2,2c0.2,1.4,1,2.5,1.6,3.8c0.4,1.2,0.9,2.3,1.6,3.4c0.3,0.5,0.5,1,0.6,1.6
			c0.6,1.4,1.2,2.7,1.9,4.1c0.7,1.3,1.4,2.6,2,4c0.4,1.3,1.2,2.5,1.5,3.8c0,0.1,0,0.2,0.1,0.3c1,1.8,1.8,3.7,2.6,5.6
			c0.8,1.8,1.6,3.5,2.4,5.3c0.4,1.2,1,2.3,1.7,3.4c0.3,1.1,0.8,2.2,1.3,3.2c0.3,0.5,0.2,1.2-0.3,1.5c-0.6,0.8-1.5,1.4-2.5,1.8
			c-1.3,0.9-2.9,1.4-4.1,2.5c-1,0.4-2,1.2-3.2,0.9c-0.2,0-0.4-0.1-0.6-0.2c-0.9-1-1.6-2.2-2-3.5c-0.1-0.4-0.3-0.9-0.5-1.3
			c-0.5-0.7-0.9-1.6-1.1-2.5c-0.1-0.7-0.4-1.3-0.9-1.9c-0.5-0.9-1.3-1.6-1.3-2.7c0-0.3-0.3-0.6-0.6-0.8c-0.3-0.5-0.5-1-0.6-1.5
			c-0.3-1.5-0.9-2.8-1.7-4.1c-0.4-0.5-0.3-1.1-0.5-1.6c-0.2-0.8-0.6-1.5-1.2-2c-0.3-0.2-0.6-0.5-0.6-0.8c0-0.9-0.3-1.8-0.8-2.6
			c-1.2-2.4-2.1-5-3.4-7.4c-0.1-0.9-0.5-1.8-1.3-2.4c-0.6-0.7-1-1.6-1-2.5c-0.2-0.8-0.4-1.5-0.7-2.3c-0.1-0.8,0.3-1.6,1.1-1.9
			c0.9-0.3,1.5-1.1,2.2-1.5c0.7-0.3,1.4-0.6,2.1-1c1.2-0.9,2.4-1.6,3.7-2.3C63.4,54,63.9,53.9,64.3,53.9z"/>
		<path class="st1" d="M47.2,68.3c0.6,0.4,1,1,1.2,1.6c0.7,1.7,1.8,3.2,2.2,5c0.2,0.5,0.4,1.1,0.7,1.5c1.1,2,1.9,4.2,2.8,6.2
			s1.9,4,2.9,5.9c0.5,0.9,0.6,1.9,1.2,2.8c0.5,0.9,0.9,1.8,1.3,2.8c0.4,0.9,0.8,1.9,1.2,2.8c0.7,1.4,1.3,2.9,2,4.3
			c0.1,0.3,0.2,0.7,0.2,1s-0.4,0.7-0.7,0.6c-0.7-0.3-1.5-0.5-2.3-0.5c-0.8-0.1-1.6-0.3-2.3-0.6c-0.8-0.2-1.5-0.5-2.2-0.9
			c-0.8-0.5-1.6-0.8-2.5-1.1c-1-0.3-1.9-0.8-2.8-1.4c-1.5-1.1-2.9-2.2-4.2-3.5c-1-1.1-1.2-2.4-1.7-3.7c0.2-1.4-0.6-2.4-1.2-3.5
			c-0.1-0.3-0.3-0.6-0.5-0.9c0-0.1-0.2,0-0.3,0c0-1.5-0.1-3-0.1-4.5c0-0.3,0-0.7,0.2-1c0.4-0.7,0.6-1.5,0.5-2.3
			c-0.1-0.6,0.1-1.1,0.4-1.6c0.1-0.2,0.2-0.4,0.2-0.6c-0.1-1,0.2-2.1,0.8-2.9c0.5-0.8,0.5-1.7,0.9-2.5s0.8-1.6,1.2-2.4
			C46.7,68.7,46.9,68.4,47.2,68.3z"/>
	</g>
</g>
</svg>
