<?xml version="1.0" encoding="utf-8"?>
<!-- Generator: Adobe Illustrator 23.0.1, SVG Export Plug-In . SVG Version: 6.00 Build 0)  -->
<svg version="1.1" id="Layer_1" xmlns="http://www.w3.org/2000/svg" xmlns:xlink="http://www.w3.org/1999/xlink" x="0px" y="0px"
	 viewBox="0 0 151.4 139.1" style="enable-background:new 0 0 151.4 139.1;" xml:space="preserve">
<title>Asset 4</title>
<g>
	<path d="M67.2,115.5c-0.8-0.1-1.6,0-2.3,0.4c-0.3,0.2-0.7,0.2-1,0.2c-2.3,0.1-4.6,0.2-6.9,0.1c-1.5-0.1-3,0-4.5,0
		c-0.3,0-0.7,0-1,0.2c-0.7,0.4-1.5,0.5-2.3,0.5c-1.4,0-2.8,0.1-4.1,0.1c-3.5,0-6.9,0-10.4-0.1c-0.6,0-1.1-0.1-1.6-0.4
		c-0.3-0.1-0.7-0.2-1-0.2c-1,0-2.1,0-3.1-0.1c-0.5,0-0.9-0.1-1.3-0.3c-0.3-0.2-0.7-0.3-1-0.3c-0.7,0-1.3-0.1-2-0.2
		c-0.7-0.2-1.3-0.4-2-0.6c-0.6-0.2-1.2-0.5-1.8-0.9c-3-1.5-6.1-3.1-9.2-4.6c-1.4-0.6-2.6-1.5-3.6-2.6c-0.6-0.7-1.3-1.3-1.9-2
		c-1.1-1.1-2.1-2.4-2.8-3.9c-0.8-1.4-1.8-2.5-2.4-3.9c-0.2-0.5-0.4-1.1-0.5-1.6c0-0.5-0.1-0.9-0.3-1.3C0.1,93.6,0,93.1,0,92.7
		c0-1.8,0-3.7,0-5.5c0-0.6,0.1-1.1,0.4-1.6c0.2-0.6,0.3-1.3,0.2-2c0-0.8,0.1-1.6,0.5-2.3c0.4-0.7,0-1.6,0.5-2.3
		c0.2-0.5,0.4-1.1,0.5-1.6c0.3-0.5,0.6-1,1-1.4c0.4-0.6,0.7-1.2,1-1.8c0.1-0.3,0.3-0.6,0.5-0.9c0.7-0.6,1.3-1.3,1.8-2
		c0.4-0.8,1-1.6,1.6-2.3c0.4-0.4,0.7-0.9,1-1.4c0.4-0.8,1.1-1.5,1.9-1.9c0.2-0.1,0.5-0.2,0.6-0.4c0.4-1.2,1.5-1.7,2.5-2.2
		c0.9-0.5,1.7-1.1,2.5-1.8c0.3-0.3,0.8-0.5,1.2-0.5c0.6,0,1-0.5,1.5-0.9c0.4-0.3,0.8-0.5,1.2-0.5c0.9,0,1.8-0.1,2.7-0.5
		c0.4-0.2,0.9-0.2,1.4-0.2c1.1,0,2.3,0,3.5-0.1c0.3,0,0.7-0.1,1-0.3c0.4-0.2,0.9-0.3,1.3-0.3c1.3,0,2.5,0,3.8,0s2.5,0.2,3.7-0.5
		c0.4-0.1,0.9-0.2,1.3-0.1c2.7,0,5.3,0,8,0c0.1,0,0.3-0.2,0.4-0.4s0-0.2-0.1-0.3c-1-1.1-2.1-2.1-3.1-3.2c-0.5-0.6-1.3-1-1.4-1.9
		c-0.8-0.9-1.7-1.9-2.6-2.8c-0.8-0.7-1.5-1.5-2.1-2.3c-1.2-2.1-2.9-3.8-3.7-6.1c-0.4-1.1-0.9-2.1-1.5-3.1c-0.2-0.4-0.4-0.8-0.4-1.3
		c0-0.6-0.2-1.1-0.5-1.6c-0.3-0.6-0.6-1.2-0.9-1.8c-0.1-0.6-0.2-1.1-0.1-1.7c0-0.2,0-0.5-0.1-0.7c-0.9-1.1-0.6-2.4-0.6-3.7
		s0-2.3,0-3.5c-0.1-0.7,0-1.4,0.2-2c0.4-0.7,0.3-1.6,0.7-2.3c0.6-1,1-2,1.2-3.2c0.7-1.4,1.4-2.9,2.2-4.2c0.3-0.4,0.6-0.7,0.9-1
		c0.7-0.7,1.8-1,2.4-1.9c0.6-0.7,1.3-1.3,2-1.9c2-1.9,2.6-2.2,5.6-3.2c0.8-0.4,1.7-0.7,2.6-0.7c0.3,0,0.7-0.2,1-0.3
		c0.6-0.4,1.2-0.7,1.8-1c0.6,0,1.1-0.2,1.7-0.4c0.6-0.4,1.4-0.1,2-0.4c1.2-0.5,2.4-0.7,3.7-0.6h3.5c0.8,0,1.6,0,2.4,0
		s1.2,0.6,1.9,0.7c1.1,0.1,2.1,0.8,3.3,0.7c0.4,0,0.7,0.1,1,0.3c1.1,0.5,2.3,1,3.5,1.4c1,0.5,2.1,0.9,3.2,1.2c0.7,0.2,1.3,0.5,1.8,1
		c1.2,0.8,2.4,1.7,3.7,2.5C83.5,8.2,84,9,84.9,9.4s1,1.2,1.6,1.7l3.2,3.2c1.3,1.3,2.7,2.5,3.5,4.2c0.1,0.2,0.3,0.4,0.4,0.5
		c0.7,0.7,1.4,1.5,2,2.4c0.5,0.8,1.3,1.4,1.7,2.2c0.5,0.9,1.1,1.7,1.8,2.5c0.5,0.8,0.9,1.6,1.4,2.3c1,1.3,1.8,2.7,2.4,4.1
		c0.5,0.5,0.3,1.3,0.7,1.9c0.4,0.7,0.8,1.4,1,2.2c0.2,0.7,0.4,1.3,0.7,1.9c0.2,0.7,0.4,1.3,0.6,2c0.1,0.6,0.2,1.1,0.3,1.7
		c0.2,0.5,0.4,1,0.6,1.6c0.1,1,0.9,1.8,0.8,3c-0.1,0.9,0.9,1.6,0.7,2.6c0.7,0.8,0.4,2,1.1,2.9c0.1,0.1,0.1,0.2,0.1,0.3
		c-0.1,1.7,0.9,3,1.5,4.5c0.4,1,1,2,1.6,3c0.4,0.6,0.3,1.4,0.6,1.9c0.4,0.6,0.6,1.3,0.6,2c0,0.5,0.2,0.9,0.4,1.3
		c0.1,0.4,0.3,0.9,0.3,1.3c0,0.6-0.3,1.1-0.7,1.5c-1.6,1.6-3.1,3.1-4.6,4.7c-0.3,0.3-0.8,0.6-0.9,1c-0.4,0.8-0.9,1.6-1.7,2.2
		c-0.6,0.5-1.1,1.2-1.4,1.9c-0.2,0.5-0.7,0.9-1.3,1.1c-0.2,0.1-0.5,0.2-0.5,0.4c-0.4,1.2-1.4,1.8-2.2,2.6c-0.5,0.6-1.2,1.1-2,1.3
		c-0.4,0.1-0.8,0.3-1.2,0.7c-0.3,0.3-0.4,0.8-0.7,1.1c-1.4,1.5-2.9,3-4.4,4.4c-0.2,0.2-0.3,0.4-0.5,0.4c-0.7,0.2-1.2,0.6-1.6,1.1
		c-0.6,0.5-1.2,1-1.9,1.4c-0.4,0.2-0.7,0.6-0.8,1.1c-0.3,0.9-1.3,1.3-1.4,2.3c-0.6,0.7-1.2,1.4-1.8,2c-0.5,0.5-0.8,1.1-1.1,1.7
		c-0.2,0.5-0.5,1-0.8,1.5c-0.4,0.5-0.9,1-1.4,1.5c-0.7,0.7-1.3,1.3-2,2c-0.6,0.7-1.3,1.3-2,1.9c-0.8,0.4-1.5,1-1.9,1.8
		c-0.5,0.8-1.1,1.5-1.8,2.1c-0.6,0.7-1.3,1.3-2.1,1.8c-1.1,0.6-2,1.5-2.5,2.6C68.6,115.2,67.9,115.5,67.2,115.5z"/>
	<g>
		<path d="M122.2,93.3c0.5,0,0.9,0,1.4,0c0.8,0,1.6-0.2,2.2-0.7c0.5-0.3,1-0.5,1.5-0.7c0.2,1.2,0.1,2.5-0.3,3.7
			c-0.2,0.7-0.3,1.3-0.4,2c0,0.3-0.1,0.7-0.3,1c-0.3,0.6-0.5,1.2-1.3,1.6s-0.3,1.2-0.6,1.9s-0.5,1-0.7,1.5c-0.3,0.6-0.6,1.2-1.1,1.7
			c-0.4,0.8-0.8,1.6-1.3,2.4c-0.5,0.7-0.2,1.6-0.7,2.2c-0.6,0.7-0.9,1.6-1,2.5c-0.1,0.5-0.4,0.8-0.7,1.1s-0.9,0.3-1.1,0.8
			c-0.1,0.3-0.1,0.7-0.3,1c-0.5,0.9-1,1.8-1.3,2.7c-0.4,1-1,2-1.8,2.9c-0.6,0.6-1,1.3-1.1,2.1c0,0.3-0.4,0.6-0.6,0.8
			c-0.5,0.5-1.2,0.7-1.9,0.5c-0.4-0.1-0.8-0.5-0.8-1s0.1-0.9,0.3-1.3c0.3-0.8,0.7-1.7,1.1-2.5s0.5-1.7,0.9-2.6s0.9-1.9,1.2-2.8
			c0.7-2,1.6-4,2.2-6.1c0.3-0.8,0.7-1.7,1.2-2.5c0.9-1.7,1.6-3.5,2.3-5.3c0.3-1.1,0.8-2.1,1.5-3.1C121.3,96,121.8,94.7,122.2,93.3z"
			/>
		<path d="M107.8,98.4c0.2,0,0.4-0.2,0.5-0.4c0.2-0.6,0.5-1.3,0.8-1.9c0.3-0.7,0.7-1.4,1.2-2c0.4-0.6,0.7-1.1,1.1-1.7
			c0.4-0.8,1.5-1.1,2.2-0.6l0.1,0.1c0.1,0.1,0.2,0.1,0.3,0.2l0.6,0.3c0.5,0.2,0.6,0.7,0.6,1.1c0,0.3,0.1,0.7,0.2,1
			c0,0.6-0.1,1.1-0.1,1.7c0,0.6-0.2,1.3-1,1.6c-0.2,0.1-0.3,0.3-0.4,0.5c0,1-0.7,1.7-0.8,2.7c0,0.5-0.2,0.9-0.5,1.2
			c-0.8,0.8-1.7,1.5-1.5,3c0,0.1,0,0.2-0.1,0.3c-0.6,1-1,2-1.3,3.2c-1,0.8-0.8,2.1-1.3,3.2c-0.5,1-1,2.1-1.4,3.2
			c-0.7,0.4-0.7,1.4-1.4,1.8c-0.4,0.2-0.6,0.7-0.6,1.2c0,0.9-0.2,0.7-1.1,1.9c-0.8,1-1.9,1.6-3.2,1.8c-0.1,0-0.2,0-0.3,0
			c-0.5,0-0.9-0.3-1-0.8c-0.1-0.5-0.1-0.9,0.1-1.4c0.9-2,1.1-4.3,2.3-6.1c0.2-0.4,0.2-0.9,0.5-1.3c0.6-1,0.6-2.2,1.2-3.3
			c0.6-1,0.9-2.1,1.5-3.2c0.6-1.2,1-2.6,1.6-3.9C106.8,100.8,107.4,99.7,107.8,98.4z"/>
		<path d="M125,63.5c-0.7,0-1.4,0.3-1.7,0.9c-0.3,0.6-0.6,1.2-1.3,1.4c-0.4,0.2-0.8,0.6-0.9,1c-0.4,1-1.1,1.8-2,2.3
			c-0.6,0-1.3,0-2,0c-0.9-0.1-1.7-0.8-1.6-1.8c0-0.3,0-0.7-0.1-1c0-0.6,0.3-1.1,0.7-1.5c0.2-0.3,0.5-0.5,0.8-0.7
			c2.2-1.2,4-3.3,6-4.7c1.2-0.9,2.3-1.9,3.7-2.8c1.6-0.9,3-2.3,4.5-3.3c1.2-0.8,2.4-1.7,3.8-2.4c1.3-0.7,2.4-1.7,3.9-2.3
			c0.8-0.4,1.6-0.9,2.3-1.5c0.5-0.4,1.1-0.4,1.6,0c0.5,0.4,1,0.9,1.5,1.4c0.1,0.2,0.1,0.4,0,0.6c-0.3,0.4-0.6,0.9-0.9,1.4
			c-0.2,0.3-0.4,0.6-0.7,0.7c-1,0.5-1.9,1.2-2.7,2.1c-0.5,0.5-1.1,0.9-1.8,1c-0.4,0.1-0.9,0.3-1.2,0.6c-0.4,0.4-0.8,0.8-1.2,1.2
			c-0.5,0.5-1,0.9-1.7,1.2s-1.5,0.5-1.9,1.4c-0.1,0.2-0.4,0.3-0.6,0.3c-1,0.1-2,0.5-2.9,1.2c-0.4,0.3-0.8,0.8-1.3,1.2
			c-0.4,0.2-0.8,0.5-1.2,0.6c-0.6,0.1-0.6,0.1-0.6,0.7C125.2,63.1,125.1,63.3,125,63.5z"/>
		<path d="M131.7,68.6l-1.7-0.1c-1,0-1.8-0.8-1.8-1.8c0-0.1,0-0.1,0-0.2c0-0.2,0-0.5,0-0.7c0.3-0.6,0.8-1.1,1.4-1.4
			c1.6-0.7,3.1-1.6,4.5-2.5c1-0.2,2-0.6,2.9-1.1c1.4-0.5,2.8-1,4.1-1.6c0.2-0.1,0.4-0.1,0.7-0.1c1,0,2.1-0.3,3-0.7
			c0.9,0,1.8-0.2,2.6-0.5c0.9,0.6,2,0.1,3,0.4c0.2,0.1,0.4,0.3,0.4,0.5c0.1,0.9,0.1,1.8,0.1,2.8c0,0.2-0.1,0.4-0.3,0.6
			c-0.6,0.3-1.1,0.7-1.6,1.2c-0.6,0.5-1.3,0.8-2.1,1c-0.7,0.1-1.3,0.3-1.9,0.7c-0.5,0.3-1,0.6-1.5,0.7c-0.6,0.1-1.1,0.1-1.7,0.1
			c-0.5,0-0.9,0.2-1.1,0.6c-0.1,0.3-0.4,0.6-0.8,0.6c-0.5,0-0.9,0-1.4,0.1c-0.5,0.1-0.7-0.1-1,0.2c-0.4,0.4-1.1,0.4-1.5,0.7
			s-0.8-0.1-1.2,0c-0.6,0.1-1,0.5-1.6,0.5C132.7,68.5,132.3,68.5,131.7,68.6z"/>
	</g>
	<path d="M126.5,76.9c-0.6,0.8-1.1,1.6-1.6,2.3c-0.2,0.2-0.4,0.2-0.6,0.2c-0.3-0.1-0.6-0.4-0.9-0.4c-0.8,0-1.6-0.4-2.1-1
		c-0.4-0.3-0.7-0.6-1-1c-0.3-0.2-0.4-0.5-0.5-0.9c-0.2-0.8-0.4-1.5-0.7-2.3c-0.2-0.7-0.1-1.4,0.4-1.9c0.5-0.6,1.1-1.2,1.6-1.8
		c0.8-0.5,1.8-0.5,2.7-0.1c0.3,0.2,0.5,0.4,0.8,0.7c0.6,0.6,1.3,1.1,1.4,1.9c0.1,1.1,1.1,2,0.7,3.4
		C126.4,76.2,126.5,76.6,126.5,76.9z"/>
	<g>
		<path d="M123.8,65.5l0.3,0.1c0.3,0.2,0.6,0.3,0.9,0.3h0.1l0.1,0c0.1,0,0.2,0,0.3,0c0.5,0,1,0.1,1.4,0.4c0.2,0.2,0.4,0.3,0.6,0.3
			c0,0.6,0.2,1.3,0.6,1.8c0.5,0.6,1.1,1,1.9,1l0,0h0h0.2l0.7,0c0,0.2,0.1,0.3,0.1,0.5l0,0.1l0.1,0.1c0.1,0.1,0.1,0.2,0.2,0.4
			c0.2,0.4,0.5,1.1,1.2,1.5l0,0l0,0c0,0,0.1,0,0.2,0.1c0,0,0,0,0.1,0c0.2,0.3,0.4,0.6,0.5,0.9c0.5,0.8,0.9,1.5,1,2.3l0,0l0,0
			c0.1,0.4,0.3,1.1,0.6,1.8l0,0.1c0.1,0.4,0.2,0.9,0.4,1.4c0.3,0.6,0.3,1.3-0.1,1.9c-0.3,0.5-0.4,1-0.4,1.4c0,0.1,0,0.3,0,0.3l0,0
			l0,0c-0.6,0.6-1.4,1.6-1.8,3c-0.5,1-1.1,1.8-1.8,2.3c-0.2,0.2-0.4,0.3-0.6,0.5c-0.1,0.1-0.2,0.2-0.2,0.2l-0.1,0l0,0
			c-0.3,0.2-0.5,0.4-0.7,0.7c-0.4,0.4-0.7,0.7-1.1,0.8c-0.7,0.2-1.1,0.6-1.4,1c-0.2,0.2-0.3,0.4-0.5,0.4l-0.1,0l-0.1,0
			c-0.3,0.1-0.6,0.3-0.8,0.4c-0.2,0.1-0.5,0.2-0.7,0.3l-0.1,0.1l-0.1,0.1c-0.5,0.4-1.1,0.5-1.6,0.5H122h-0.2l-0.2,0.1
			c-0.1,0-0.2,0-0.3,0.1c-0.2,0-0.4,0.1-0.7,0.1c-0.2,0.1-0.4,0.2-0.5,0.3c-0.1,0-0.2,0-0.4,0c-0.1,0-0.3,0-0.4,0
			c-0.2,0-0.3,0-0.5,0c-0.4,0-1,0-1.6,0.4c-0.3,0.1-0.6,0.2-1,0.3c-0.1-0.9-0.5-1.4-1.2-1.7l-0.5-0.2c-0.1-0.1-0.2-0.1-0.2-0.1
			l-0.1,0c-0.4-0.3-0.9-0.5-1.5-0.5c-0.8,0-1.7,0.4-2.1,1l0,0l-0.1,0.1l-0.1,0.1c-0.2,0.5-0.6,1-1,1.5c-0.5,0.6-1,1.4-1.3,2.2
			c-0.2,0.4-0.4,0.8-0.5,1.2c-0.1,0.2-0.1,0.3-0.2,0.5c0,0-0.1,0-0.1,0c-1.2,0-2.3,0.7-2.8,1.8l0,0l0,0c-0.2,0.5-0.5,0.8-1.1,1l0,0
			l0,0c-0.5,0.3-0.9,0.7-1.3,1l0,0l0,0c-0.3,0.4-0.8,0.8-1.1,0.9c-0.6,0.2-1.1,0.7-1.3,1.3c-0.3,0.5-0.6,0.9-0.9,1.1l0,0l0,0
			c0,0-0.2,0.1-0.3,0.2c-0.4,0.2-1,0.4-1.3,1.1c0,0.1-0.4,0.3-0.5,0.4c-0.1,0.1-0.2,0.1-0.3,0.2c-1,0.6-1.7,1.5-2.1,2.5
			c-0.3,0.6-0.8,1.1-1.4,1.4c-1.5,0.7-2.7,1.9-3.3,3.2c-0.2,0.4-0.5,0.8-1,1l-0.1,0c-0.2,0.1-0.9,0.4-1,1.1
			c-0.1,0.2-0.2,0.4-0.5,0.7c-0.3,0.3-0.7,0.8-0.9,1.4c-0.2,0.5-0.6,0.8-1.2,0.8c-1,0-1.4,0.9-1.6,1.3c-0.3,0.5-0.5,1.1-0.8,1.6l0,0
			l-0.2,0c-0.5,0.1-1.5,0.2-1.9,1.4c-0.1,0.3-0.4,0.6-0.8,0.7l0,0l0,0c-1.4,0.5-2.6,1.4-3.7,2.6l0,0l0,0c-0.3,0.3-0.7,0.7-1.3,0.9
			l-0.1,0l-0.1,0.1c-0.6,0.4-1.2,0.9-1.7,1.6c-0.2,0.2-0.3,0.5-0.3,0.7c0,0,0,0.1,0,0.1c-0.2,0.1-0.4,0.3-0.6,0.4
			c-0.2,0.1-0.4,0.3-0.7,0.4c-0.5,0.3-0.9,0.5-1.3,0.7c-0.9,0.3-1.5,0.8-2,1.3c-0.4,0.3-0.7,0.7-1,1c-0.3,0.3-0.6,0.6-0.9,0.9
			c-0.2,0.2-0.5,0.3-0.7,0.5c-0.5,0.3-1.1,0.6-1.5,1.2l0,0h-0.2c-0.6,0-1.1,0.2-1.5,0.4c-0.1,0.1-0.3,0.1-0.4,0.2
			c-0.5,0.1-0.9,0.1-1.5,0.1c-0.2,0-0.4,0-0.5,0.1h-0.2l-0.3,0.2c-0.4,0.3-0.7,0.4-0.9,0.4c-0.5,0-1.2-0.3-1.7-0.7l0,0l0,0
			c-0.2-0.1-0.3-0.2-0.5-0.3c-0.2-0.1-0.4-0.3-0.7-0.4c-0.7-0.3-1.3-0.9-1.7-1.7l0,0l0,0c-0.5-0.7-0.8-1.5-1.1-2.2
			c-0.1-0.4-0.1-1,0-1.4l0,0l0,0c0.1-0.3,0.2-0.6,0.5-0.9c1.1-1.6,2.4-2.8,3.9-3.7c0.5-0.2,0.9-0.6,1.3-1l2.9-2.9l0.1-0.1l0.1-0.1
			c0.2-0.4,0.6-0.7,1.1-0.8c0.5-0.2,1-0.5,1.3-0.9c1.2-1.4,2.7-2.6,4.1-3.6l0.3-0.2l0.1-0.3l0.2-0.6c0.8-0.2,1.5-0.7,1.9-1.5
			c0.4-0.9,1.1-1.6,2.1-2.1l0,0l0,0c0.9-0.5,1.6-1.2,2.3-1.9c0.7-0.7,1.4-1.4,1.9-2.3l0,0l0,0c0.3-0.7,1-1.1,1.5-1.4l0.1-0.1
			l0.1-0.1c0.7-0.6,1.4-1.2,2.1-2c0.5-0.4,0.9-0.9,1.3-1.3c0.2-0.2,0.4-0.5,0.7-0.7c0.2-0.2,0.3-0.3,0.5-0.5c0.3-0.3,0.7-0.6,1-1
			l0-0.1l0-0.1c0.3-0.5,0.6-1,0.9-1.6c0.3-0.5,0.5-1,0.9-1.4c0.5-0.4,0.8-0.9,1.2-1.3c0.2-0.3,0.4-0.5,0.7-0.8l0.3-0.3l0-0.4
			c0-0.2,0.2-0.4,0.5-0.7c0.3-0.4,0.8-0.8,0.9-1.5c0-0.1,0.2-0.3,0.4-0.5c0.8-0.5,1.5-1,2-1.5l0.1-0.1l0.1-0.1
			c0.2-0.3,0.5-0.5,1.1-0.7c0.5-0.1,0.8-0.5,1-0.6l0,0c1.5-1.5,2.9-2.9,4.4-4.5c0.3-0.3,0.4-0.6,0.5-0.8c0-0.1,0.1-0.3,0.2-0.3
			c0.2-0.2,0.4-0.3,0.8-0.5c0.9-0.2,1.8-0.8,2.5-1.6c0.2-0.3,0.5-0.5,0.8-0.8c0.5-0.5,1.1-1.1,1.5-1.9l0,0c0.8-0.3,1.4-0.9,1.7-1.6
			c0.3-0.6,0.7-1.1,1.1-1.5c0.9-0.8,1.5-1.6,2-2.6l0-0.1l0,0c0.1-0.1,0.2-0.2,0.3-0.3c0.1-0.1,0.2-0.2,0.4-0.3
			c0.7-0.8,1.5-1.6,2.3-2.3c0.8-0.8,1.6-1.6,2.3-2.3c0.2-0.2,0.3-0.3,0.4-0.5c0.3,1.1,1.2,1.9,2.4,2l0.1,0h0.1h2h0.3l0.3-0.2
			c1.1-0.7,1.9-1.7,2.3-2.7c0.1-0.2,0.3-0.4,0.4-0.5C123.1,66.5,123.5,66,123.8,65.5 M120.5,78.7c0.7,0.8,1.7,1.2,2.7,1.3
			c0,0,0.1,0,0.1,0.1c0.1,0.1,0.3,0.2,0.6,0.3l0.2,0.1h0.2c0.3,0,0.8,0,1.3-0.5l0.1-0.1l0-0.1c0.6-0.8,1.2-1.6,1.7-2.5l0.2-0.2v-0.3
			V76c0.2-1-0.1-1.8-0.4-2.5c-0.1-0.4-0.3-0.7-0.3-1c-0.1-1-0.8-1.7-1.4-2.2c-0.1-0.1-0.2-0.2-0.3-0.3c-0.2-0.2-0.6-0.6-1-0.8
			l-0.1,0l-0.1,0c-0.5-0.3-1.1-0.4-1.7-0.4c-0.7,0-1.3,0.2-1.9,0.5l-0.1,0.1l-0.1,0.1c-0.6,0.6-1.2,1.3-1.7,1.9
			c-0.6,0.8-0.9,1.9-0.6,2.8l0,0l0,0c0.3,0.6,0.5,1.4,0.6,2.1l0,0l0,0c0.1,0.4,0.4,0.8,0.6,1.1l0,0l0,0
			C119.7,78.1,120.1,78.4,120.5,78.7 M124.7,63.5c-0.6,0-1.2,0.4-1.5,0.9c-0.3,0.6-0.5,1.2-1.3,1.4c-0.4,0.2-0.7,0.6-0.9,1
			c-0.4,0.9-1.1,1.7-2,2.3c-0.7,0-1.3,0-2,0c-0.9-0.1-1.6-0.9-1.6-1.8c-0.1-0.3-0.1-0.7-0.1-1l-1.2,0.1c-0.1,0.5-0.3,1.1-0.7,1.5
			c-1.5,1.6-3.1,3.1-4.6,4.7c-0.3,0.3-0.8,0.6-0.9,1c-0.4,0.9-1,1.6-1.7,2.2c-0.6,0.5-1.1,1.2-1.4,1.9c-0.2,0.5-0.7,0.9-1.2,1.1
			c-0.2,0.1-0.5,0.2-0.5,0.4c-0.4,1.1-1.5,1.7-2.2,2.6c-0.5,0.6-1.2,1.1-2,1.3c-0.5,0.2-0.9,0.4-1.2,0.7c-0.3,0.3-0.4,0.8-0.7,1.1
			c-1.5,1.6-2.9,3-4.4,4.5c-0.1,0.1-0.3,0.4-0.5,0.4c-0.7,0.2-1.3,0.5-1.7,1.1c-0.5,0.5-1.2,1-1.9,1.4c-0.4,0.3-0.7,0.7-0.8,1.1
			c-0.2,0.9-1.3,1.3-1.4,2.3c-0.6,0.6-1.1,1.4-1.8,2c-0.5,0.5-0.8,1.1-1.1,1.7c-0.2,0.5-0.5,1-0.8,1.5c-0.4,0.5-0.9,0.9-1.4,1.4
			c-0.7,0.7-1.3,1.4-2,2c-0.6,0.7-1.3,1.3-2,1.9c-0.8,0.4-1.5,1-1.9,1.8c-0.5,0.8-1.1,1.5-1.8,2.1c-0.6,0.7-1.3,1.3-2.1,1.8
			c-1.1,0.6-2,1.5-2.5,2.6c-0.3,0.6-0.9,1-1.5,1c-0.1,0-0.1,0-0.2,0c-0.1,0.3-0.2,0.6-0.4,1.2c-1.6,1-3.1,2.3-4.4,3.8
			c-0.2,0.3-0.5,0.5-0.8,0.6c-0.6,0.2-1.2,0.6-1.6,1.2c-0.9,0.9-1.9,1.9-2.9,2.9c-0.3,0.3-0.7,0.6-1.1,0.8c-1.7,1-3.1,2.4-4.2,4
			c-0.3,0.4-0.5,0.8-0.6,1.2c-0.2,0.6-0.2,1.4,0,2c0.3,0.8,0.7,1.6,1.2,2.4c0.5,0.9,1.3,1.7,2.2,2.1c0.4,0.2,0.8,0.5,1.2,0.7
			c0.7,0.4,1.5,0.8,2.3,0.8c0.5,0,1-0.2,1.5-0.6c0.1,0,0.2-0.1,0.3-0.1c0.6,0,1.1,0,1.7-0.1c0.6-0.2,1-0.6,1.6-0.6
			c0.1,0,0.1,0,0.2,0c0.3,0,0.6-0.2,0.7-0.3c0.6-0.8,1.5-1,2.2-1.6c0.7-0.6,1.3-1.3,2-1.9c0.5-0.5,1-0.9,1.7-1.1
			c0.5-0.2,1-0.5,1.5-0.8c0.5-0.3,0.9-0.6,1.4-0.9c0.3-0.2,0.3-0.7,0.5-0.9c0.4-0.6,0.9-1,1.5-1.4c0.7-0.3,1.3-0.7,1.7-1.2
			c0.9-1,2-1.8,3.3-2.3c0.7-0.2,1.2-0.7,1.5-1.3c0.2-0.7,0.7-0.7,1.3-0.8c0.2,0,0.4-0.1,0.6-0.3c0.4-0.6,0.7-1.2,1-1.8
			c0.2-0.4,0.4-0.7,0.7-0.7c1,0,1.8-0.6,2.1-1.5c0.3-0.9,1.3-1.3,1.5-2.3c0-0.2,0.3-0.3,0.5-0.4c0.6-0.3,1.1-0.8,1.4-1.4
			c0.6-1.2,1.7-2.2,2.9-2.8c0.8-0.4,1.5-1.1,1.9-1.9c0.3-0.9,0.9-1.6,1.7-2.1c0.4-0.3,1-0.6,1.2-1.1c0.2-0.5,1-0.5,1.4-0.9
			c0.5-0.4,0.9-1,1.2-1.6c0-0.3,0.3-0.6,0.6-0.7c0.6-0.2,1.2-0.7,1.6-1.2c0.3-0.3,0.6-0.6,1-0.8c0.7-0.3,1.3-0.8,1.6-1.6
			c0.3-0.8,1-1.2,1.9-1.2c0.1,0,0.3,0,0.4,0c0.3,0,0.4-0.2,0.5-0.4c0.3-0.7,0.5-1.3,0.8-1.9c0.3-0.7,0.7-1.4,1.2-2
			c0.4-0.5,0.8-1.1,1.1-1.7l0.1-0.1c0.3-0.4,0.9-0.7,1.4-0.7c0.3,0,0.6,0.1,0.9,0.3c0.1,0.1,0.2,0.1,0.3,0.2l0.6,0.3
			c0.5,0.2,0.6,0.6,0.6,1.1c0.1,0.3,0.1,0.7,0.2,1c0.7-0.2,1.5-0.4,2.2-0.7c0.3-0.2,0.7-0.3,1.1-0.3c0.3,0,0.6,0,0.9,0
			c0.2,0,0.4,0,0.6-0.1c0.2,0,0.3-0.2,0.6-0.3c0.3-0.1,0.7-0.1,1-0.2c0.5,0,0.9,0,1.4,0c0.8,0,1.6-0.2,2.2-0.7
			c0.5-0.2,1-0.5,1.5-0.7c0.8-0.2,1.1-1.2,1.9-1.4c0.9-0.3,1.4-1.1,2.1-1.7c0.3-0.2,0.5-0.5,0.8-0.7c1-0.7,1.7-1.7,2.2-2.8
			c0.3-1,0.9-1.9,1.6-2.6c0.6-0.5,0.2-1.3,0.6-1.9c0.6-0.9,0.6-2,0.1-2.9c-0.2-0.4-0.3-0.9-0.4-1.3c-0.3-0.5-0.5-1.1-0.6-1.6
			c-0.2-1.4-1.1-2.5-1.7-3.7c-0.1-0.2-0.4-0.3-0.6-0.4c-0.7-0.4-0.7-1.2-1.1-1.7c-0.1-0.2,0-0.7,0-1l-1.7-0.1c-0.1,0-0.1,0-0.2,0
			c-1-0.1-1.7-1-1.6-2c0-0.2,0-0.5,0-0.7c-0.4-0.1-0.8,0-1-0.2c-0.6-0.4-1.3-0.6-2.1-0.6c-0.1,0-0.3,0-0.4,0c-0.1,0-0.3-0.1-0.5-0.2
			c0-0.4,0.5-0.7,0.4-1.2C124.8,63.5,124.8,63.5,124.7,63.5L124.7,63.5z M124.2,79.4c-0.3-0.1-0.6-0.4-0.9-0.4c-0.8,0-1.6-0.4-2.1-1
			c-0.4-0.3-0.7-0.6-1-1c-0.2-0.3-0.4-0.6-0.5-0.9c-0.2-0.8-0.4-1.6-0.7-2.3c-0.2-0.6,0-1.4,0.4-1.9c0.5-0.6,1-1.2,1.6-1.8
			c0.4-0.3,0.9-0.4,1.4-0.4c0.4,0,0.8,0.1,1.2,0.3c0.3,0.2,0.6,0.5,0.8,0.7c0.6,0.6,1.3,1.1,1.4,1.9c0.1,1.1,1,2.1,0.7,3.3
			c0,0.3,0,0.6,0,0.9c-0.5,0.8-1.1,1.6-1.7,2.4C124.6,79.4,124.4,79.4,124.2,79.4L124.2,79.4z"/>
	</g>
</g>
</svg>
