<?xml version="1.0" encoding="utf-8"?>
<!-- Generator: Adobe Illustrator 22.1.0, SVG Export Plug-In . SVG Version: 6.00 Build 0)  -->
<svg version="1.1" id="Layer_1" xmlns="http://www.w3.org/2000/svg" xmlns:xlink="http://www.w3.org/1999/xlink" x="0px" y="0px"
	 viewBox="0 0 151.4 139.1" style="enable-background:new 0 0 151.4 139.1;" xml:space="preserve">
<style type="text/css">
	.st0{fill:#333333;}
	.st1{fill:#666666;}
	.st2{fill:#CCCCCC;}
</style>
<title>Asset 4</title>
<path class="st0" d="M67.2,115.6c-0.8-0.1-1.6,0-2.3,0.4c-0.3,0.2-0.7,0.2-1,0.2c-2.3,0.1-4.6,0.2-6.9,0.1c-1.5-0.1-3,0-4.5,0
	c-0.3,0-0.7,0-1,0.2c-0.7,0.4-1.5,0.5-2.3,0.5c-1.4,0-2.8,0.1-4.1,0.1c-3.5,0-6.9,0-10.4-0.1c-0.6,0-1.1-0.1-1.6-0.4
	c-0.3-0.1-0.7-0.2-1-0.2c-1,0-2.1,0-3.1-0.1c-0.5,0-0.9-0.1-1.3-0.3c-0.3-0.2-0.7-0.3-1-0.3c-0.7,0-1.3-0.1-2-0.2
	c-0.7-0.2-1.3-0.4-2-0.6c-0.6-0.2-1.2-0.5-1.8-0.9c-3-1.5-6.1-3.1-9.2-4.6c-1.4-0.6-2.6-1.5-3.6-2.6c-0.6-0.7-1.3-1.3-1.9-2
	c-1.1-1.1-2.1-2.4-2.8-3.9C2.6,99.5,1.6,98.4,1,97c-0.2-0.5-0.4-1.1-0.5-1.6c0-0.5-0.1-0.9-0.3-1.3C0.1,93.7,0,93.2,0,92.8
	c0-1.8,0-3.7,0-5.5c0-0.6,0.1-1.1,0.4-1.6c0.2-0.6,0.3-1.3,0.2-2c0-0.8,0.1-1.6,0.5-2.3c0.4-0.7,0-1.6,0.5-2.3
	c0.2-0.5,0.4-1.1,0.5-1.6c0.3-0.5,0.6-1,1-1.4c0.4-0.6,0.7-1.2,1-1.8c0.1-0.3,0.3-0.6,0.5-0.9c0.7-0.6,1.3-1.3,1.8-2
	c0.4-0.8,1-1.6,1.6-2.3c0.4-0.4,0.7-0.9,1-1.4c0.4-0.8,1.1-1.5,1.9-1.9c0.2-0.1,0.5-0.2,0.6-0.4c0.4-1.2,1.5-1.7,2.5-2.2
	c0.9-0.5,1.7-1.1,2.5-1.8c0.3-0.3,0.8-0.5,1.2-0.5c0.6,0,1-0.5,1.5-0.9c0.4-0.3,0.8-0.5,1.2-0.5c0.9,0,1.8-0.1,2.7-0.5
	c0.4-0.2,0.9-0.2,1.4-0.2c1.1,0,2.3,0,3.5-0.1c0.3,0,0.7-0.1,1-0.3c0.4-0.2,0.9-0.3,1.3-0.3c1.3,0,2.5,0,3.8,0s2.5,0.2,3.7-0.5
	c0.4-0.1,0.9-0.2,1.3-0.1c2.7,0,5.3,0,8,0c0.1,0,0.3-0.2,0.4-0.4s0-0.2-0.1-0.3c-1-1.1-2.1-2.1-3.1-3.2c-0.5-0.6-1.3-1-1.4-1.9
	c-0.8-0.9-1.7-1.9-2.6-2.8c-0.8-0.7-1.5-1.5-2.1-2.3c-1.2-2.1-2.9-3.8-3.7-6.1c-0.4-1.1-0.9-2.1-1.5-3.1c-0.2-0.4-0.4-0.8-0.4-1.3
	c0-0.6-0.2-1.1-0.5-1.6c-0.3-0.6-0.6-1.2-0.9-1.8c-0.1-0.6-0.2-1.1-0.1-1.7c0-0.2,0-0.5-0.1-0.7c-0.9-1.1-0.6-2.4-0.6-3.7
	s0-2.3,0-3.5c-0.1-0.7,0-1.4,0.2-2c0.4-0.7,0.3-1.6,0.7-2.3c0.6-1,1-2,1.2-3.2c0.7-1.4,1.4-2.9,2.2-4.2c0.3-0.4,0.6-0.7,0.9-1
	c0.7-0.7,1.8-1,2.4-1.9c0.6-0.7,1.3-1.3,2-1.9c2-1.9,2.6-2.2,5.6-3.2c0.8-0.4,1.7-0.7,2.6-0.7c0.3,0,0.7-0.2,1-0.3
	c0.6-0.4,1.2-0.7,1.8-1c0.6,0,1.1-0.2,1.7-0.4c0.6-0.4,1.4-0.1,2-0.4c1.2-0.5,2.4-0.7,3.7-0.6h3.5c0.8,0,1.6,0,2.4,0
	c0.8,0,1.2,0.6,1.9,0.7c1.1,0.1,2.1,0.8,3.3,0.7c0.4,0,0.7,0.1,1,0.3c1.1,0.5,2.3,1,3.5,1.4c1,0.5,2.1,0.9,3.2,1.2
	c0.7,0.2,1.3,0.5,1.8,1c1.2,0.8,2.4,1.7,3.7,2.5c0.8,0.5,1.3,1.3,2.2,1.7s1,1.2,1.6,1.7l3.2,3.2c1.3,1.3,2.7,2.5,3.5,4.2
	c0.1,0.2,0.3,0.4,0.4,0.5c0.7,0.7,1.4,1.5,2,2.4c0.5,0.8,1.3,1.4,1.7,2.2c0.5,0.9,1.1,1.7,1.8,2.5c0.5,0.8,0.9,1.6,1.4,2.3
	c1,1.3,1.8,2.7,2.4,4.1c0.5,0.5,0.3,1.3,0.7,1.9c0.4,0.7,0.8,1.4,1,2.2c0.2,0.7,0.4,1.3,0.7,1.9c0.2,0.7,0.4,1.3,0.6,2
	c0.1,0.6,0.2,1.1,0.3,1.7c0.2,0.5,0.4,1,0.6,1.6c0.1,1,0.9,1.8,0.8,3c-0.1,0.9,0.9,1.6,0.7,2.6c0.7,0.8,0.4,2,1.1,2.9
	c0.1,0.1,0.1,0.2,0.1,0.3c-0.1,1.7,0.9,3,1.5,4.5c0.4,1,1,2,1.6,3c0.4,0.6,0.3,1.4,0.6,1.9c0.4,0.6,0.6,1.3,0.6,2
	c0,0.5,0.2,0.9,0.4,1.3c0.1,0.4,0.3,0.9,0.3,1.3c0,0.6-0.3,1.1-0.7,1.5c-1.6,1.6-3.1,3.1-4.6,4.7c-0.3,0.3-0.8,0.6-0.9,1
	c-0.4,0.8-0.9,1.6-1.7,2.2c-0.6,0.5-1.1,1.2-1.4,1.9c-0.2,0.5-0.7,0.9-1.3,1.1c-0.2,0.1-0.5,0.2-0.5,0.4c-0.4,1.2-1.4,1.8-2.2,2.6
	c-0.5,0.6-1.2,1.1-2,1.3c-0.4,0.1-0.8,0.3-1.2,0.7c-0.3,0.3-0.4,0.8-0.7,1.1c-1.4,1.5-2.9,3-4.4,4.4c-0.2,0.2-0.3,0.4-0.5,0.4
	c-0.7,0.2-1.2,0.6-1.6,1.1c-0.6,0.5-1.2,1-1.9,1.4c-0.4,0.2-0.7,0.6-0.8,1.1c-0.3,0.9-1.3,1.3-1.4,2.3c-0.6,0.7-1.2,1.4-1.8,2
	c-0.5,0.5-0.8,1.1-1.1,1.7c-0.2,0.5-0.5,1-0.8,1.5c-0.4,0.5-0.9,1-1.4,1.5c-0.7,0.7-1.3,1.3-2,2c-0.6,0.7-1.3,1.3-2,1.9
	c-0.8,0.4-1.5,1-1.9,1.8c-0.5,0.8-1.1,1.5-1.8,2.1c-0.6,0.7-1.3,1.3-2.1,1.8c-1.1,0.6-2,1.5-2.5,2.6
	C68.6,115.3,67.9,115.6,67.2,115.6z"/>
<g>
	<path class="st1" d="M122.2,93.4c0.5,0,0.9,0,1.4,0c0.8,0,1.6-0.2,2.2-0.7c0.5-0.3,1-0.5,1.5-0.7c0.2,1.2,0.1,2.5-0.3,3.7
		c-0.2,0.7-0.3,1.3-0.4,2c0,0.3-0.1,0.7-0.3,1c-0.3,0.6-0.5,1.2-1.3,1.6s-0.3,1.2-0.6,1.9s-0.5,1-0.7,1.5c-0.3,0.6-0.6,1.2-1.1,1.7
		c-0.4,0.8-0.8,1.6-1.3,2.4c-0.5,0.7-0.2,1.6-0.7,2.2c-0.6,0.7-0.9,1.6-1,2.5c-0.1,0.5-0.4,0.8-0.7,1.1s-0.9,0.3-1.1,0.8
		c-0.1,0.3-0.1,0.7-0.3,1c-0.5,0.9-1,1.8-1.3,2.7c-0.4,1-1,2-1.8,2.9c-0.6,0.6-1,1.3-1.1,2.1c0,0.3-0.4,0.6-0.6,0.8
		c-0.5,0.5-1.2,0.7-1.9,0.5c-0.4-0.1-0.8-0.5-0.8-1c0-0.5,0.1-0.9,0.3-1.3c0.3-0.8,0.7-1.7,1.1-2.5s0.5-1.7,0.9-2.6s0.9-1.9,1.2-2.8
		c0.7-2,1.6-4,2.2-6.1c0.3-0.8,0.7-1.7,1.2-2.5c0.9-1.7,1.6-3.5,2.3-5.3c0.3-1.1,0.8-2.1,1.5-3.1C121.3,96.1,121.8,94.8,122.2,93.4z
		"/>
	<path class="st1" d="M108.2,98.9c0.2,0,0.4-0.2,0.5-0.4c0.2-0.6,0.5-1.3,0.8-1.9c0.3-0.7,0.7-1.4,1.2-2c0.4-0.6,0.7-1.1,1.1-1.7
		c0.4-0.8,1.5-1.1,2.2-0.6c0,0,0.1,0.1,0.1,0.1c0.1,0.1,0.2,0.1,0.3,0.2l0.6,0.3c0.5,0.2,0.6,0.7,0.6,1.1c0,0.3,0.1,0.7,0.2,1
		c0,0.6-0.1,1.1-0.1,1.7s-0.2,1.3-1,1.6c-0.2,0.1-0.3,0.3-0.4,0.5c0,1-0.7,1.7-0.8,2.6c0,0.5-0.2,0.9-0.5,1.2
		c-0.8,0.8-1.7,1.5-1.5,2.9c0,0.1,0,0.2-0.1,0.3c-0.6,1-1,2-1.3,3.1c-1,0.8-0.8,2.1-1.3,3.1s-1,2.1-1.4,3.1
		c-0.7,0.4-0.7,1.4-1.4,1.8c-0.4,0.2-0.6,0.7-0.6,1.2c0,0.9-0.2,0.7-1.1,1.9c-0.8,1-1.9,1.6-3.1,1.8c-0.1,0-0.2,0-0.3,0
		c-0.5,0-0.9-0.3-1-0.8c-0.1-0.5-0.1-0.9,0.1-1.4c0.9-2,1.1-4.2,2.3-6c0.2-0.4,0.2-0.9,0.5-1.3c0.6-1,0.6-2.2,1.2-3.2
		s0.9-2.1,1.5-3.1c0.6-1.2,1-2.5,1.6-3.8C107.3,101.2,107.8,100.1,108.2,98.9z"/>
	<path class="st1" d="M125.1,63.6c-0.7,0-1.4,0.3-1.7,0.9c-0.3,0.6-0.6,1.2-1.3,1.4c-0.4,0.2-0.8,0.6-0.9,1c-0.4,1-1.1,1.8-2,2.3
		c-0.6,0-1.3,0-2,0c-0.9-0.1-1.7-0.8-1.6-1.8c0-0.3,0-0.7-0.1-1c0-0.6,0.3-1.1,0.7-1.5c0.2-0.3,0.5-0.5,0.8-0.7
		c2.2-1.2,3.9-3.2,5.9-4.6c1.2-0.9,2.3-1.9,3.6-2.7c1.6-0.9,2.9-2.3,4.4-3.2c1.2-0.8,2.4-1.7,3.7-2.4s2.4-1.7,3.8-2.3
		c0.8-0.4,1.6-0.9,2.3-1.5c0.5-0.4,1.1-0.4,1.6,0c0.5,0.4,1,0.9,1.5,1.4c0.1,0.2,0.1,0.4,0,0.6c-0.3,0.4-0.6,0.9-0.9,1.4
		c-0.2,0.3-0.4,0.6-0.7,0.7c-1,0.5-1.9,1.2-2.6,2.1c-0.5,0.5-1.1,0.9-1.8,1c-0.4,0.1-0.9,0.3-1.2,0.6c-0.4,0.4-0.8,0.8-1.2,1.2
		c-0.5,0.5-1,0.9-1.7,1.2c-0.7,0.3-1.5,0.5-1.9,1.4c-0.1,0.2-0.4,0.3-0.6,0.3c-1,0.1-2,0.5-2.8,1.2c-0.4,0.3-0.8,0.8-1.3,1.2
		c-0.4,0.2-0.8,0.5-1.2,0.6c-0.6,0.1-0.6,0.1-0.6,0.7C125.3,63.2,125.2,63.4,125.1,63.6z"/>
	<path class="st1" d="M132.2,68.6l-1.7-0.1c-1,0-1.8-0.8-1.8-1.8c0-0.1,0-0.1,0-0.2c0-0.2,0-0.5,0-0.7c0.3-0.6,0.8-1.1,1.4-1.4
		c1.6-0.7,3.1-1.6,4.5-2.5c1-0.2,2-0.6,2.9-1.1c1.4-0.5,2.8-1,4.1-1.6c0.2-0.1,0.4-0.1,0.7-0.1c1,0,2.1-0.3,3-0.7
		c0.9,0,1.8-0.2,2.6-0.5c0.9,0.6,2,0.1,3,0.4c0.2,0.1,0.4,0.3,0.4,0.5c0.1,0.9,0.1,1.8,0.1,2.8c0,0.2-0.1,0.4-0.3,0.6
		c-0.6,0.3-1.1,0.7-1.6,1.2c-0.6,0.5-1.3,0.8-2.1,1c-0.7,0.1-1.3,0.3-1.9,0.7c-0.5,0.3-1,0.6-1.5,0.7c-0.6,0.1-1.1,0.1-1.7,0.1
		c-0.5,0-0.9,0.2-1.1,0.6c-0.1,0.3-0.4,0.6-0.8,0.6c-0.5,0-0.9,0-1.4,0.1s-0.7-0.1-1,0.2c-0.4,0.4-1.1,0.4-1.5,0.7s-0.8-0.1-1.2,0
		c-0.6,0.1-1,0.5-1.6,0.5C133.1,68.5,132.7,68.5,132.2,68.6z"/>
</g>
<path d="M126.5,76.9c-0.6,0.8-1.1,1.6-1.6,2.3c-0.2,0.2-0.4,0.2-0.6,0.2c-0.3-0.1-0.6-0.4-0.9-0.4c-0.8,0-1.6-0.4-2.1-1
	c-0.4-0.3-0.7-0.6-1-1c-0.3-0.2-0.4-0.5-0.5-0.9c-0.2-0.8-0.4-1.5-0.7-2.3c-0.2-0.7-0.1-1.4,0.4-1.9c0.5-0.6,1.1-1.2,1.6-1.8
	c0.8-0.5,1.8-0.5,2.6-0.1c0.3,0.2,0.5,0.4,0.8,0.7c0.6,0.6,1.3,1.1,1.4,1.9c0.1,1.1,1.1,2,0.7,3.3C126.4,76.2,126.5,76.6,126.5,76.9
	z"/>
<path class="st2" d="M67.2,115.6c0.7,0.1,1.4-0.3,1.7-1c0.5-1.1,1.4-2,2.5-2.6c0.8-0.5,1.5-1.1,2.1-1.8c0.7-0.6,1.3-1.3,1.8-2.1
	c0.4-0.8,1.1-1.4,1.9-1.8c0.7-0.6,1.4-1.2,2-1.9c0.7-0.6,1.3-1.3,2-2c0.5-0.5,1-0.9,1.4-1.4c0.3-0.5,0.6-1,0.8-1.5
	c0.3-0.6,0.6-1.2,1.1-1.7c0.7-0.6,1.2-1.4,1.8-2c0.1-1,1.2-1.4,1.4-2.3c0.1-0.4,0.4-0.8,0.8-1.1c0.7-0.4,1.4-0.9,1.9-1.4
	c0.4-0.6,1-0.9,1.7-1.1c0.2,0,0.4-0.3,0.5-0.4c1.5-1.5,2.9-2.9,4.4-4.5c0.3-0.3,0.4-0.8,0.7-1.1c0.3-0.3,0.7-0.5,1.2-0.7
	c0.8-0.2,1.5-0.7,2-1.3c0.7-0.9,1.8-1.5,2.2-2.6c0-0.2,0.3-0.3,0.5-0.4c0.5-0.2,1-0.6,1.2-1.1c0.3-0.7,0.8-1.4,1.4-1.9
	c0.7-0.6,1.3-1.3,1.7-2.2c0.1-0.4,0.6-0.7,0.9-1c1.5-1.6,3.1-3.1,4.6-4.7c0.4-0.4,0.6-1,0.7-1.5l1.2-0.1c0,0.3,0,0.7,0.1,1
	c0,0.9,0.7,1.7,1.6,1.8c0.7,0,1.3,0,2,0c0.9-0.6,1.6-1.4,2-2.3c0.2-0.4,0.5-0.8,0.9-1c0.8-0.2,1-0.8,1.3-1.4c0.3-0.6,1-1,1.7-0.9
	c0.1,0.5-0.4,0.8-0.4,1.2c0.2,0.1,0.4,0.2,0.5,0.2c0.9-0.1,1.8,0.1,2.5,0.6c0.2,0.2,0.6,0.1,1,0.2c0,0.2,0,0.5,0,0.7
	c-0.1,1,0.6,1.9,1.6,2c0.1,0,0.1,0,0.2,0l1.7,0.1c0,0.3-0.1,0.8,0,1c0.4,0.5,0.4,1.3,1.1,1.7c0.2,0.1,0.5,0.2,0.6,0.4
	c0.6,1.2,1.5,2.3,1.7,3.7c0.1,0.5,0.3,1.1,0.6,1.6c0.1,0.4,0.2,0.9,0.4,1.3c0.5,0.9,0.5,2-0.1,2.9c-0.4,0.6,0,1.4-0.6,1.9
	c-0.7,0.7-1.3,1.6-1.6,2.6c-0.5,1.1-1.2,2.1-2.2,2.8c-0.3,0.2-0.5,0.5-0.8,0.7c-0.7,0.6-1.2,1.4-2.1,1.7c-0.8,0.2-1.1,1.2-1.9,1.4
	c-0.5,0.2-1,0.5-1.5,0.7c-0.6,0.5-1.4,0.7-2.2,0.7c-0.5,0-0.9,0-1.4,0c-0.3,0.1-0.7,0.1-1,0.2s-0.4,0.3-0.6,0.3
	c-0.9,0.2-1.8-0.2-2.6,0.3c-0.7,0.3-1.5,0.5-2.2,0.7c-0.1-0.3-0.1-0.7-0.2-1c0-0.5-0.1-0.9-0.6-1.1l-0.6-0.3
	c-0.1-0.1-0.2-0.1-0.3-0.2c-0.7-0.5-1.8-0.3-2.3,0.4c0,0-0.1,0.1-0.1,0.1c-0.3,0.6-0.7,1.2-1.1,1.7c-0.5,0.6-0.9,1.3-1.2,2
	c-0.3,0.6-0.5,1.2-0.8,1.9c-0.1,0.2-0.2,0.4-0.5,0.4c-1-0.2-1.9,0.3-2.3,1.2c-0.3,0.8-0.9,1.3-1.6,1.6c-0.4,0.2-0.7,0.5-1,0.8
	c-0.4,0.5-1,1-1.6,1.2c-0.3,0.1-0.6,0.4-0.6,0.7c-0.3,0.6-0.7,1.2-1.2,1.6c-0.4,0.4-1.2,0.4-1.4,0.9s-0.8,0.8-1.2,1.1
	c-0.8,0.5-1.4,1.2-1.7,2.1c-0.4,0.8-1.1,1.5-1.9,1.9c-1.2,0.6-2.3,1.6-2.9,2.8c-0.3,0.6-0.8,1.1-1.4,1.4c-0.2,0.1-0.5,0.2-0.5,0.4
	c-0.2,1-1.2,1.4-1.5,2.3c-0.3,0.9-1.1,1.5-2.1,1.5c-0.3,0-0.5,0.3-0.7,0.7c-0.3,0.6-0.6,1.2-1,1.8c-0.2,0.2-0.4,0.3-0.6,0.3
	c-0.6,0.1-1.1,0.1-1.3,0.8c-0.3,0.6-0.8,1.1-1.5,1.3c-1.3,0.5-2.4,1.3-3.3,2.3c-0.4,0.5-1,0.9-1.7,1.2c-0.6,0.4-1.1,0.8-1.5,1.4
	c-0.2,0.2-0.2,0.7-0.5,0.9c-0.5,0.3-0.9,0.6-1.4,0.9c-0.5,0.3-1,0.6-1.5,0.8c-0.7,0.2-1.2,0.6-1.7,1.1c-0.7,0.6-1.3,1.3-2,1.9
	s-1.6,0.8-2.2,1.6c-0.2,0.2-0.6,0.4-0.9,0.3c-0.6,0-1,0.4-1.6,0.6c-0.6,0.1-1.1,0.1-1.7,0.1c-0.1,0-0.2,0.1-0.3,0.1
	c-1.3,1.1-2.6,0.5-3.8-0.2c-0.4-0.2-0.8-0.5-1.2-0.7c-0.9-0.4-1.7-1.2-2.2-2.1c-0.5-0.8-0.9-1.6-1.2-2.4c-0.2-0.6-0.2-1.4,0-2
	c0.1-0.4,0.3-0.8,0.6-1.2c1.1-1.6,2.5-3,4.2-4c0.4-0.2,0.8-0.5,1.1-0.8c1-1,2-2,2.9-2.9c0.4-0.6,1-1,1.6-1.2
	c0.3-0.1,0.6-0.3,0.8-0.6c1.3-1.5,2.8-2.8,4.4-3.8C67,116.2,67.1,115.9,67.2,115.6z M126.5,76.9c0-0.3,0-0.6,0-0.9
	c0.3-1.2-0.6-2.2-0.7-3.3c-0.1-0.8-0.8-1.3-1.4-1.9c-0.2-0.2-0.5-0.5-0.8-0.7c-0.8-0.4-1.8-0.4-2.6,0.1c-0.6,0.6-1.1,1.2-1.6,1.8
	c-0.4,0.5-0.6,1.3-0.4,1.9c0.3,0.7,0.5,1.5,0.7,2.3c0.1,0.3,0.3,0.6,0.5,0.9c0.3,0.4,0.6,0.7,1,1c0.5,0.6,1.3,1,2.1,1
	c0.3,0,0.6,0.3,0.9,0.4c0.2,0,0.4,0,0.6-0.2C125.4,78.5,126,77.7,126.5,76.9z"/>
</svg>
