<?xml version="1.0" encoding="utf-8"?>
<!-- Generator: Adobe Illustrator 23.0.1, SVG Export Plug-In . SVG Version: 6.00 Build 0)  -->
<svg version="1.1" id="Illustration_for_Main_Site" xmlns="http://www.w3.org/2000/svg" xmlns:xlink="http://www.w3.org/1999/xlink"
	 x="0px" y="0px" viewBox="0 0 100 100" style="enable-background:new 0 0 100 100;" xml:space="preserve">
<style type="text/css">
	.st0{fill:#787A62;}
	.st1{fill:#FFD84A;}
	.st2{fill:#CBCBCA;}
	.st3{fill:#C3C8AD;}
	.st4{fill:#676767;}
	.st5{fill:#B5C1C0;}
	.st6{fill:none;stroke:#000000;stroke-miterlimit:10;}
	.st7{fill:#D7D7D7;}
	.st8{fill:#FCE9A5;}
	.st9{fill:#979797;}
	.st10{fill:#C3C7AD;}
	.st11{fill:#BBBBBA;}
	.st12{fill:#EDECED;}
	.st13{fill:#010101;}
</style>
<g>
	<g>
		<path class="st1" d="M46.94,66.55c-0.29-0.02-0.57-0.03-0.84,0.13c-0.1,0.06-0.23,0.07-0.35,0.07c-0.83,0.02-1.65,0.07-2.48,0.04
			c-0.54-0.02-1.08-0.01-1.62,0c-0.12,0-0.26,0.01-0.36,0.07c-0.26,0.16-0.55,0.16-0.84,0.17c-0.5,0.01-0.99,0.02-1.49,0.02
			c-1.24,0-2.48-0.02-3.73-0.02c-0.21,0-0.4-0.04-0.59-0.15c-0.1-0.06-0.23-0.08-0.35-0.08c-0.37-0.02-0.75-0.02-1.12-0.02
			c-0.17,0-0.32-0.03-0.47-0.11c-0.11-0.06-0.23-0.09-0.35-0.11c-0.24-0.03-0.51,0.01-0.73-0.07c-0.23-0.08-0.46-0.16-0.7-0.22
			c-0.23-0.05-0.44-0.22-0.66-0.33c-1.1-0.55-2.19-1.12-3.3-1.64c-0.5-0.23-0.92-0.54-1.29-0.94c-0.23-0.24-0.46-0.48-0.7-0.71
			c-0.41-0.41-0.75-0.85-1-1.39c-0.23-0.47-0.59-0.88-0.8-1.38c-0.08-0.19-0.15-0.37-0.18-0.58c-0.02-0.16-0.05-0.33-0.11-0.47
			c-0.07-0.16-0.11-0.31-0.11-0.48c0.01-0.66,0.01-1.33,0.01-1.99c0-0.21,0.04-0.4,0.15-0.59c0.13-0.23,0.09-0.48,0.09-0.73
			c0-0.29,0.03-0.57,0.18-0.83c0.15-0.25,0-0.58,0.18-0.83c0.13-0.18,0.11-0.4,0.18-0.58c0.07-0.19,0.25-0.33,0.36-0.5
			c0.13-0.21,0.23-0.43,0.35-0.64c0.06-0.11,0.1-0.23,0.18-0.32c0.22-0.25,0.48-0.46,0.66-0.74c0.18-0.27,0.32-0.57,0.57-0.79
			c0.15-0.14,0.26-0.31,0.36-0.5c0.16-0.29,0.39-0.53,0.7-0.69c0.07-0.04,0.18-0.07,0.2-0.14c0.15-0.44,0.55-0.6,0.91-0.77
			c0.35-0.16,0.62-0.41,0.89-0.66c0.13-0.12,0.28-0.17,0.45-0.18c0.23-0.01,0.36-0.19,0.52-0.31c0.14-0.1,0.28-0.16,0.45-0.17
			c0.33-0.02,0.66-0.01,0.96-0.18c0.13-0.07,0.32-0.06,0.48-0.06c0.41-0.01,0.83-0.01,1.24-0.02c0.12,0,0.25-0.04,0.35-0.09
			c0.15-0.08,0.3-0.12,0.47-0.12c0.46,0,0.91,0,1.37-0.02c0.45-0.01,0.91,0.05,1.33-0.19c0.13-0.07,0.32-0.04,0.49-0.04
			c0.95-0.01,1.91-0.01,2.86-0.02c0.05,0,0.11-0.08,0.15-0.13c0.01-0.02-0.02-0.08-0.04-0.11c-0.38-0.39-0.76-0.77-1.13-1.15
			c-0.2-0.21-0.45-0.37-0.51-0.68c-0.31-0.34-0.61-0.67-0.92-1.01c-0.25-0.27-0.57-0.51-0.75-0.83c-0.43-0.74-1.05-1.37-1.35-2.19
			c-0.14-0.38-0.35-0.74-0.54-1.1c-0.08-0.15-0.14-0.29-0.15-0.46c0-0.21-0.05-0.4-0.16-0.59c-0.13-0.21-0.2-0.45-0.3-0.67
			c-0.08-0.18-0.03-0.41-0.05-0.61c0-0.08,0.01-0.19-0.03-0.24c-0.31-0.4-0.2-0.87-0.21-1.32c-0.01-0.41-0.01-0.83,0-1.24
			c0.01-0.25-0.02-0.52,0.09-0.73c0.13-0.27,0.12-0.56,0.26-0.82c0.2-0.36,0.39-0.72,0.43-1.14c0.26-0.51,0.51-1.03,0.78-1.53
			c0.08-0.14,0.21-0.25,0.33-0.37c0.26-0.26,0.64-0.37,0.88-0.67c0.21-0.26,0.47-0.47,0.71-0.7c0.7-0.68,0.93-0.79,2-1.14
			c0.31-0.1,0.59-0.29,0.94-0.27c0.11,0.01,0.23-0.07,0.34-0.12c0.22-0.1,0.43-0.25,0.66-0.32c0.19-0.06,0.4-0.05,0.58-0.18
			c0.22-0.15,0.51-0.03,0.72-0.14c0.43-0.23,0.87-0.21,1.32-0.2c0.41,0,0.83,0.01,1.24,0.01c0.29,0,0.58,0,0.87,0.01
			c0.25,0.01,0.43,0.21,0.69,0.24c0.4,0.04,0.76,0.29,1.19,0.24c0.11-0.01,0.24,0.05,0.35,0.1c0.41,0.19,0.82,0.36,1.25,0.49
			c0.39,0.12,0.72,0.37,1.14,0.44c0.23,0.04,0.44,0.21,0.65,0.34c0.44,0.3,0.87,0.6,1.32,0.89c0.28,0.18,0.48,0.48,0.77,0.61
			c0.31,0.14,0.38,0.42,0.57,0.62c0.38,0.38,0.76,0.77,1.14,1.15c0.46,0.46,0.98,0.88,1.27,1.5c0.03,0.07,0.11,0.13,0.16,0.19
			c0.24,0.28,0.52,0.54,0.71,0.85c0.17,0.29,0.46,0.49,0.6,0.78c0.17,0.34,0.44,0.59,0.64,0.91c0.17,0.28,0.33,0.57,0.51,0.84
			c0.32,0.47,0.65,0.94,0.86,1.48c0.19,0.19,0.11,0.47,0.24,0.69c0.15,0.24,0.29,0.5,0.36,0.78c0.06,0.24,0.16,0.46,0.24,0.69
			c0.08,0.23,0.11,0.47,0.22,0.7c0.08,0.18,0.05,0.41,0.1,0.6c0.05,0.2,0.18,0.38,0.2,0.57c0.04,0.37,0.32,0.66,0.29,1.06
			c-0.03,0.33,0.31,0.59,0.26,0.94c0.27,0.29,0.14,0.73,0.39,1.03c0.03,0.03,0.05,0.07,0.05,0.11c-0.04,0.61,0.32,1.09,0.56,1.61
			c0.17,0.37,0.34,0.75,0.55,1.1c0.14,0.23,0.1,0.49,0.22,0.7c0.13,0.22,0.2,0.45,0.2,0.7c0,0.17,0.09,0.31,0.15,0.46
			c0.06,0.15,0.08,0.32,0.12,0.48c-0.02,0.21-0.08,0.39-0.24,0.55c-0.56,0.56-1.11,1.12-1.66,1.68c-0.12,0.12-0.29,0.22-0.33,0.37
			c-0.1,0.35-0.38,0.53-0.6,0.77c-0.19,0.21-0.4,0.4-0.5,0.69c-0.06,0.19-0.25,0.32-0.45,0.4c-0.07,0.03-0.17,0.08-0.19,0.14
			c-0.13,0.42-0.51,0.64-0.78,0.95c-0.19,0.22-0.41,0.39-0.7,0.48c-0.15,0.04-0.31,0.12-0.42,0.23c-0.11,0.11-0.15,0.29-0.26,0.41
			c-0.52,0.54-1.04,1.06-1.57,1.59c-0.06,0.06-0.12,0.14-0.19,0.15c-0.26,0.05-0.45,0.22-0.61,0.4c-0.2,0.22-0.46,0.34-0.7,0.5
			c-0.14,0.09-0.24,0.21-0.3,0.38c-0.1,0.32-0.48,0.46-0.52,0.82c-0.22,0.25-0.43,0.51-0.66,0.74c-0.18,0.18-0.29,0.4-0.4,0.61
			c-0.09,0.18-0.17,0.38-0.29,0.54c-0.15,0.2-0.34,0.36-0.51,0.54c-0.23,0.24-0.46,0.47-0.7,0.7c-0.24,0.23-0.46,0.49-0.73,0.67
			c-0.27,0.18-0.53,0.32-0.69,0.65c-0.14,0.29-0.41,0.51-0.64,0.75c-0.23,0.23-0.46,0.5-0.75,0.65c-0.43,0.22-0.71,0.53-0.92,0.95
			C47.44,66.44,47.22,66.56,46.94,66.55z"/>
		<path class="st0" d="M66.71,58.58c0.16,0,0.33-0.02,0.49,0c0.3,0.03,0.55-0.08,0.79-0.23c0.17-0.11,0.36-0.18,0.54-0.27
			c0.06,0.45,0.06,0.9-0.11,1.34c-0.08,0.23-0.09,0.48-0.14,0.73c-0.02,0.12-0.04,0.25-0.1,0.35c-0.12,0.21-0.19,0.43-0.45,0.56
			c-0.26,0.12-0.12,0.45-0.21,0.67c-0.08,0.19-0.2,0.36-0.26,0.55c-0.08,0.24-0.25,0.42-0.38,0.63c-0.17,0.28-0.27,0.6-0.47,0.86
			c-0.2,0.25-0.07,0.56-0.27,0.81c-0.2,0.26-0.32,0.57-0.35,0.91c-0.02,0.18-0.16,0.28-0.26,0.41c-0.11,0.13-0.32,0.12-0.39,0.28
			c-0.05,0.11-0.03,0.25-0.09,0.34c-0.2,0.31-0.34,0.65-0.48,0.99c-0.16,0.38-0.36,0.73-0.63,1.04c-0.19,0.21-0.37,0.44-0.41,0.74
			c-0.01,0.11-0.13,0.2-0.21,0.29c-0.19,0.21-0.42,0.24-0.68,0.18c-0.14-0.04-0.3-0.22-0.28-0.36c0.02-0.16,0.04-0.33,0.1-0.48
			c0.12-0.31,0.27-0.6,0.38-0.91c0.11-0.3,0.19-0.62,0.31-0.93c0.13-0.34,0.32-0.67,0.44-1.02c0.26-0.73,0.59-1.44,0.8-2.18
			c0.09-0.31,0.29-0.59,0.41-0.89c0.27-0.64,0.64-1.23,0.83-1.92c0.11-0.39,0.31-0.76,0.53-1.1C66.44,59.53,66.56,59.05,66.71,58.58
			z"/>
		<path class="st0" d="M61.68,60.55c0.1-0.02,0.14-0.08,0.17-0.16c0.08-0.23,0.16-0.46,0.27-0.68c0.13-0.25,0.26-0.52,0.45-0.73
			c0.17-0.19,0.24-0.42,0.38-0.62c0.22-0.32,0.52-0.38,0.86-0.2c0.04,0.02,0.07,0.05,0.1,0.07c0.07,0.04,0.15,0.07,0.22,0.1
			c0.17,0.08,0.2,0.24,0.21,0.41c0,0.12,0.04,0.24,0.06,0.37c-0.01,0.21-0.03,0.41-0.05,0.62c-0.02,0.25-0.08,0.48-0.37,0.58
			c-0.06,0.02-0.14,0.13-0.14,0.19c0.02,0.35-0.26,0.61-0.28,0.94c-0.01,0.17-0.07,0.33-0.19,0.44c-0.3,0.28-0.63,0.55-0.54,1.03
			c0.01,0.04-0.01,0.08-0.03,0.12c-0.18,0.37-0.4,0.72-0.49,1.12c-0.35,0.28-0.27,0.75-0.47,1.11c-0.2,0.36-0.35,0.74-0.52,1.11
			c-0.24,0.16-0.25,0.51-0.52,0.65c-0.16,0.09-0.2,0.24-0.2,0.42c-0.01,0.31-0.08,0.27-0.38,0.68c-0.3,0.41-0.68,0.55-1.13,0.65
			c-0.04,0.01-0.08,0.01-0.12,0.01c-0.15,0.02-0.34-0.13-0.35-0.27c0-0.16-0.04-0.35,0.03-0.49c0.33-0.7,0.41-1.5,0.83-2.17
			c0.08-0.13,0.09-0.32,0.17-0.46c0.2-0.36,0.22-0.79,0.42-1.15c0.2-0.36,0.34-0.74,0.52-1.11c0.22-0.43,0.35-0.91,0.56-1.36
			C61.33,61.38,61.55,60.99,61.68,60.55z"/>
		<path class="st0" d="M67.77,47.85c-0.27-0.01-0.47,0.11-0.61,0.33c-0.12,0.2-0.21,0.41-0.48,0.5c-0.14,0.04-0.29,0.2-0.33,0.34
			c-0.12,0.38-0.42,0.58-0.72,0.83c-0.22,0-0.47,0.01-0.71,0c-0.33-0.01-0.56-0.26-0.59-0.64c-0.01-0.12-0.02-0.24-0.03-0.37
			c0.03-0.21,0.07-0.41,0.24-0.55c0.09-0.08,0.17-0.19,0.28-0.25c0.8-0.45,1.39-1.15,2.12-1.67c0.43-0.31,0.82-0.69,1.28-0.96
			c0.57-0.33,1.03-0.81,1.59-1.16c0.45-0.28,0.87-0.61,1.35-0.86c0.48-0.25,0.88-0.61,1.37-0.83c0.3-0.14,0.55-0.35,0.82-0.54
			c0.2-0.13,0.41-0.14,0.57,0c0.18,0.16,0.37,0.33,0.53,0.51c0.04,0.04,0.05,0.18,0.01,0.22c-0.14,0.16-0.22,0.34-0.32,0.51
			c-0.06,0.1-0.15,0.22-0.25,0.26c-0.39,0.16-0.66,0.48-0.95,0.75c-0.18,0.17-0.38,0.3-0.64,0.34c-0.15,0.02-0.31,0.12-0.43,0.22
			c-0.16,0.13-0.29,0.29-0.43,0.45c-0.17,0.19-0.38,0.3-0.6,0.42c-0.25,0.12-0.54,0.2-0.67,0.5c-0.02,0.05-0.14,0.1-0.21,0.1
			c-0.41-0.02-0.7,0.23-0.99,0.45c-0.16,0.12-0.29,0.3-0.45,0.42c-0.13,0.1-0.29,0.15-0.43,0.23c-0.22,0.04-0.22,0.04-0.23,0.25
			C67.83,47.73,67.8,47.79,67.77,47.85z"/>
		<path class="st0" d="M70.34,49.66c-0.21-0.01-0.41-0.02-0.62-0.04c-0.42-0.03-0.65-0.28-0.66-0.72c0-0.08,0.01-0.17,0.01-0.25
			c0.1-0.24,0.29-0.39,0.51-0.52c0.53-0.31,1.13-0.52,1.61-0.92c0.37-0.05,0.69-0.25,1.03-0.4c0.49-0.21,1.01-0.32,1.48-0.58
			c0.07-0.04,0.16-0.04,0.24-0.05c0.37-0.05,0.75-0.05,1.07-0.26c0.32,0,0.64-0.05,0.94-0.17c0.34,0.22,0.74,0.02,1.09,0.14
			c0.07,0.02,0.15,0.11,0.16,0.17c0.02,0.33,0.03,0.66,0.02,0.99c0,0.07-0.06,0.17-0.12,0.2c-0.23,0.11-0.4,0.28-0.58,0.44
			c-0.21,0.18-0.49,0.3-0.76,0.37c-0.24,0.06-0.48,0.09-0.69,0.24c-0.17,0.11-0.36,0.22-0.55,0.27c-0.2,0.05-0.41,0.02-0.61,0.03
			c-0.17,0.01-0.32,0.05-0.4,0.23c-0.05,0.12-0.14,0.2-0.27,0.22c-0.16,0.02-0.33,0.01-0.5,0.02c-0.12,0.01-0.25-0.03-0.35,0.08
			c-0.15,0.16-0.38,0.15-0.54,0.26c-0.18,0.12-0.3-0.03-0.43-0.01c-0.2,0.03-0.36,0.18-0.58,0.19C70.66,49.6,70.5,49.64,70.34,49.66
			z"/>
		<path d="M68.27,52.64c-0.2,0.29-0.38,0.56-0.58,0.82c-0.04,0.05-0.15,0.08-0.22,0.06c-0.12-0.03-0.22-0.14-0.34-0.14
			c-0.32,0-0.55-0.15-0.76-0.35c-0.12-0.11-0.24-0.22-0.35-0.35c-0.08-0.09-0.18-0.2-0.19-0.31c-0.02-0.3-0.2-0.54-0.25-0.81
			c-0.05-0.24-0.06-0.49,0.13-0.7c0.19-0.21,0.38-0.43,0.59-0.63c0.17-0.17,0.75-0.19,0.93-0.04c0.09,0.08,0.19,0.16,0.27,0.25
			c0.2,0.2,0.46,0.39,0.5,0.68c0.05,0.4,0.38,0.74,0.26,1.18C68.25,52.42,68.27,52.54,68.27,52.64z"/>
	</g>
	<path class="st2" d="M46.94,66.55c0.28,0.02,0.5-0.11,0.61-0.34c0.21-0.42,0.49-0.73,0.92-0.95c0.28-0.15,0.51-0.41,0.75-0.65
		c0.23-0.23,0.51-0.46,0.64-0.75c0.16-0.33,0.42-0.47,0.69-0.65c0.27-0.18,0.49-0.44,0.73-0.67c0.24-0.23,0.47-0.47,0.7-0.7
		c0.17-0.18,0.36-0.34,0.51-0.54c0.12-0.16,0.2-0.36,0.29-0.54c0.11-0.22,0.22-0.44,0.4-0.61c0.24-0.23,0.44-0.49,0.66-0.74
		c0.04-0.36,0.42-0.5,0.52-0.82c0.05-0.17,0.16-0.3,0.3-0.38c0.24-0.15,0.5-0.27,0.7-0.5c0.16-0.18,0.35-0.35,0.61-0.4
		c0.07-0.01,0.14-0.09,0.19-0.15c0.53-0.53,1.05-1.05,1.57-1.59c0.11-0.11,0.15-0.3,0.26-0.41c0.11-0.11,0.27-0.19,0.42-0.23
		c0.29-0.08,0.51-0.26,0.7-0.48c0.27-0.31,0.65-0.52,0.78-0.95c0.02-0.06,0.12-0.12,0.19-0.14c0.21-0.08,0.39-0.21,0.45-0.4
		c0.1-0.29,0.31-0.48,0.5-0.69c0.22-0.24,0.49-0.43,0.6-0.77c0.04-0.14,0.21-0.25,0.33-0.37c0.55-0.56,1.1-1.13,1.66-1.68
		c0.16-0.16,0.22-0.34,0.24-0.55c0.15-0.02,0.3-0.03,0.44-0.05c0.01,0.12,0.02,0.24,0.03,0.37c0.03,0.37,0.26,0.63,0.59,0.64
		c0.24,0.01,0.48,0,0.71,0c0.3-0.25,0.6-0.45,0.72-0.83c0.05-0.14,0.2-0.3,0.33-0.34c0.27-0.08,0.35-0.29,0.48-0.5
		c0.13-0.22,0.34-0.34,0.61-0.33c0.04,0.18-0.14,0.28-0.15,0.44c0.06,0.03,0.13,0.08,0.2,0.08c0.32-0.01,0.63,0.01,0.9,0.23
		c0.08,0.06,0.23,0.04,0.35,0.05c0,0.08-0.01,0.17-0.01,0.25c0.01,0.44,0.24,0.69,0.66,0.72c0.21,0.02,0.41,0.03,0.62,0.04
		c0,0.12-0.05,0.29,0.02,0.36c0.16,0.19,0.16,0.48,0.41,0.59c0.07,0.03,0.17,0.07,0.2,0.13c0.21,0.43,0.54,0.82,0.6,1.33
		c0.02,0.19,0.15,0.37,0.22,0.56c0.05,0.15,0.07,0.32,0.13,0.47c0.15,0.36,0.2,0.71-0.04,1.05c-0.15,0.21,0.01,0.52-0.22,0.69
		c-0.32,0.23-0.42,0.6-0.59,0.92c-0.29,0.55-0.27,0.56-0.8,1c-0.09,0.08-0.18,0.17-0.27,0.25c-0.25,0.2-0.42,0.5-0.77,0.59
		c-0.28,0.08-0.38,0.43-0.69,0.49c-0.18,0.09-0.37,0.16-0.54,0.27c-0.25,0.15-0.49,0.27-0.79,0.23c-0.16-0.02-0.33,0-0.49,0
		c-0.12,0.03-0.23,0.04-0.35,0.08c-0.08,0.02-0.14,0.1-0.21,0.11c-0.31,0.07-0.67-0.07-0.95,0.1c-0.26,0.16-0.54,0.15-0.81,0.23
		c-0.02-0.12-0.06-0.24-0.06-0.37c-0.01-0.17-0.03-0.33-0.21-0.41c-0.07-0.04-0.15-0.06-0.22-0.1c-0.04-0.02-0.07-0.05-0.1-0.07
		c-0.33-0.19-0.64-0.12-0.86,0.2c-0.14,0.2-0.21,0.43-0.38,0.62c-0.19,0.21-0.32,0.47-0.45,0.73c-0.11,0.22-0.19,0.45-0.27,0.68
		c-0.03,0.08-0.07,0.14-0.17,0.16c-0.38-0.05-0.67,0.11-0.82,0.43c-0.13,0.28-0.29,0.47-0.58,0.58c-0.14,0.05-0.26,0.19-0.38,0.3
		c-0.18,0.17-0.33,0.36-0.59,0.44c-0.12,0.03-0.19,0.12-0.23,0.26c-0.08,0.24-0.27,0.41-0.45,0.58c-0.15,0.14-0.44,0.13-0.49,0.34
		c-0.06,0.25-0.27,0.27-0.42,0.39c-0.26,0.2-0.49,0.41-0.63,0.74c-0.12,0.3-0.39,0.53-0.7,0.68c-0.47,0.21-0.79,0.58-1.04,1.01
		c-0.13,0.22-0.27,0.4-0.52,0.49c-0.07,0.03-0.18,0.09-0.19,0.14c-0.06,0.36-0.42,0.51-0.54,0.82c-0.13,0.34-0.37,0.52-0.75,0.54
		c-0.13,0-0.18,0.12-0.24,0.24c-0.1,0.22-0.22,0.43-0.35,0.64c-0.04,0.06-0.14,0.09-0.21,0.1c-0.21,0.02-0.38,0.03-0.47,0.29
		c-0.08,0.23-0.28,0.36-0.53,0.48c-0.44,0.21-0.89,0.42-1.19,0.84c-0.14,0.2-0.37,0.31-0.6,0.42c-0.21,0.1-0.38,0.32-0.54,0.5
		c-0.08,0.09-0.09,0.24-0.17,0.32c-0.15,0.13-0.34,0.22-0.52,0.32c-0.18,0.1-0.35,0.22-0.54,0.28c-0.25,0.07-0.43,0.23-0.61,0.4
		c-0.23,0.24-0.47,0.47-0.71,0.7c-0.24,0.22-0.58,0.3-0.8,0.57c-0.06,0.08-0.22,0.12-0.33,0.12c-0.23,0-0.38,0.15-0.57,0.21
		c-0.19,0.06-0.41,0.03-0.61,0.05c-0.04,0-0.08,0.02-0.11,0.04c-0.48,0.38-0.93,0.18-1.37-0.06c-0.14-0.08-0.28-0.17-0.43-0.24
		c-0.36-0.15-0.6-0.43-0.78-0.75c-0.16-0.28-0.31-0.58-0.45-0.87c-0.11-0.23-0.08-0.49-0.01-0.72c0.05-0.15,0.12-0.31,0.22-0.43
		c0.42-0.56,0.88-1.09,1.49-1.46c0.14-0.08,0.28-0.18,0.39-0.29c0.36-0.35,0.7-0.7,1.06-1.05c0.17-0.17,0.32-0.37,0.59-0.43
		c0.11-0.02,0.21-0.13,0.3-0.21c0.5-0.48,0.95-1.03,1.57-1.38C46.88,66.79,46.91,66.67,46.94,66.55z M68.27,52.64
		c0-0.1-0.03-0.23,0-0.34c0.12-0.44-0.21-0.78-0.26-1.18c-0.04-0.29-0.29-0.48-0.5-0.68c-0.09-0.09-0.18-0.17-0.27-0.25
		c-0.18-0.15-0.76-0.13-0.93,0.04c-0.2,0.2-0.4,0.42-0.59,0.63c-0.18,0.2-0.17,0.46-0.13,0.7c0.05,0.28,0.23,0.52,0.25,0.81
		c0.01,0.11,0.11,0.22,0.19,0.31c0.11,0.12,0.23,0.23,0.35,0.35c0.21,0.21,0.44,0.35,0.76,0.35c0.11,0,0.22,0.11,0.34,0.14
		c0.07,0.02,0.18-0.01,0.22-0.06C67.89,53.2,68.07,52.93,68.27,52.64z"/>
</g>
</svg>
