<svg xmlns="http://www.w3.org/2000/svg" viewBox="0 0 672.33 972.46"><defs><style>.cls-1{fill:#787a62;}.cls-2{fill:#ffd949;}.cls-3{fill:#c5c9ae;}</style></defs><title>Cocktail</title><g id="Layer_2" data-name="Layer 2"><g id="Art"><g id="Cocktail"><path class="cls-1" d="M159.13,205.75a3.47,3.47,0,0,1,3.07,1.51,2.08,2.08,0,0,1,.45,1,29,29,0,0,1,.17,3.23,17.23,17.23,0,0,1-.25,3.21c-.19,1-.3,2.16-1.44,2.7a21,21,0,0,1-2.5,3c-.24.22-.3.64-.46.95a35,35,0,0,1-2.26,4.06,12.37,12.37,0,0,0-1.52,2.82,6,6,0,0,1-1.46,2.81c-.23.21-.18.7-.38,1-.75,1.07-.69,2.55-1.82,3.42a.92.92,0,0,0-.27.65,3.8,3.8,0,0,1-1.1,2.2,1.64,1.64,0,0,0-.38,1,7.85,7.85,0,0,1-.92,3c-.26.66-.66,1.27-1,1.92a7.74,7.74,0,0,1-.29,1c-.67,1.15-.64,2.54-1.33,3.67a5.49,5.49,0,0,1-.55,2.06,3.91,3.91,0,0,0-.19,1.41c0,1,.1,1.92.1,2.88a5,5,0,0,0,.39,2.09,1.92,1.92,0,0,1-.18,1.72,1.25,1.25,0,0,0,0,1.35,1.18,1.18,0,0,1,.27.65c-.12,1.37,1.14,2.39.92,3.78.51,1.19.87,2.44,1.39,3.64a26.54,26.54,0,0,1,1.51,4.75,22.38,22.38,0,0,0,1.51,5.11,20.7,20.7,0,0,1,1,2.66c.29.91.69,1.78,1,2.68a11.93,11.93,0,0,1,.75,2.74c0,.8.75,1.43.79,2.33a10,10,0,0,0,.61,2.41c.24.8.48,1.6.78,2.37a9.15,9.15,0,0,1,1,2.63c0,.33.6.45.87.2.7-.64,1.38-1.32,2.09-2a2.52,2.52,0,0,1,1.59-.74,5.7,5.7,0,0,0,3.29-1.26c.95-.73,2.09-1.16,3-1.85s2-1.23,2.93-2a3.19,3.19,0,0,1,2-.66c.95,0,1.9-.08,2.94-.13,1.55-1.67,3.79-2.36,5.61-3.72a2.65,2.65,0,0,1,1-.35c.92-.2,1.89,0,2.8-.48s1.88-.17,2.82-.35a7.52,7.52,0,0,0,1-.29c1.58-.53,3.14-1.14,4.74-1.57a15.5,15.5,0,0,1,3.18-.43c1.55-.08,3.11.19,4.64-.27.18-.06.43.08.65.13a21.45,21.45,0,0,0,5,.22,5.94,5.94,0,0,0,2.12-.32c.7-.28,1.31.38,2.05.29a11.11,11.11,0,0,1,2.15.08,6.21,6.21,0,0,0,3.16-.47,1.44,1.44,0,0,1,1.36.18,1.23,1.23,0,0,0,1,.07c.22-.08.53-.32.65-.25,1.19.7,2.58.32,3.83.77a5,5,0,0,0,3.82.08,4.18,4.18,0,0,1,2.79,0,4.73,4.73,0,0,0,1.39.3,5.74,5.74,0,0,1,2.73.72,3.42,3.42,0,0,0,2,.48,4,4,0,0,1,1.7.18c.56.16,1-.56,1.67-.15.45.29.9.05,1.34-.17a2.55,2.55,0,0,1,2.73.2,5.07,5.07,0,0,0,3,.93,6.48,6.48,0,0,1,3.15.57c.23.14.68-.08,1-.14s.5-.16.65-.07c.5.31.93.76,1.46,1,1.36.74,2.11,2.32,3.73,2.7,1.18.81,2.33,1.67,3.55,2.42a6.44,6.44,0,0,1,2.27,2.19c.44.72.94,1.39,1.36,2.12a1.77,1.77,0,0,0,.75.71,8.75,8.75,0,0,1,2.24,1.78,7.94,7.94,0,0,0,1.3,1.23,8.51,8.51,0,0,1,2.92,3.52A115.94,115.94,0,0,0,277.93,313c.41.59.78,1.21,1.24,1.76a30.25,30.25,0,0,1,2.62,3.84c.82,1.33,1,2.92,1.78,4.27a10.24,10.24,0,0,0,1.4,3.64,14.33,14.33,0,0,1,1.5,4.37,28.65,28.65,0,0,0,1.15,3.76,6.73,6.73,0,0,0,.4,1c.51.91,1.57,1.54,1.44,2.79.48.82.75,1.74,1.24,2.56a29.2,29.2,0,0,1,1.29,2.91c.34.75.79,1.44,1.13,2.18a18.58,18.58,0,0,1,1.11,2.61c.55,1.83,1.53,3.48,2,5.32.1.34.25.67.34,1a27.06,27.06,0,0,0,2.11,5.65c0,.1,0,.25.12.33.7.77.5,1.82.84,2.7s1.15,1.25,1.26,2.14a3.86,3.86,0,0,0,.76,1.61A10.65,10.65,0,0,1,303.8,372a2.16,2.16,0,0,0,.22.68,17.29,17.29,0,0,1,1.52,3.6c.23,1.16.91,2.19,1.11,3.37a1.91,1.91,0,0,0,.19.68,55.49,55.49,0,0,1,2.78,5.76,8.61,8.61,0,0,1,1.75,3.07,9.54,9.54,0,0,0,1.6,2.78c.37,1.63,1.33,3,1.79,4.64a53.61,53.61,0,0,0,2.24,6.38c.34.8.25,1.67.62,2.41s.93,1.38,1.38,2.08a3.07,3.07,0,0,1,.49.95,14.29,14.29,0,0,0,2.24,4.83,15,15,0,0,1,1.49,4c.1.34.07.72.17,1.06.35,1.26,1.24,2.27,1.5,3.6a21.18,21.18,0,0,0,1.31,3.7c.84,2.08,2,4.09,2.23,6.38.6,1.15.64,2.55,1.61,3.55a2.61,2.61,0,0,1,.45,1.34,14.5,14.5,0,0,0,1.55,4.71c.1.17.37.24.56.36,0,2.39,0,4.78,0,7.18a3.43,3.43,0,0,0,.67,2.69,4.36,4.36,0,0,0,.56,2c.39.69.24,1.64.86,2.28a3.88,3.88,0,0,0,.59,2,1.72,1.72,0,0,1,.19,1,2.27,2.27,0,0,0,.73,1.92,3.14,3.14,0,0,1,.67.84c.64,1.39,1.25,2.79,2,4.11a2.11,2.11,0,0,1,.18,1,7.67,7.67,0,0,1,0,1.07,2,2,0,0,0,1,1.76c.28.2.79.26.88.51a8,8,0,0,0,1.44,2,1.94,1.94,0,0,1,.26,1c.13.93.88,1.65.83,2.67,0,.41.41.84.63,1.25a1.31,1.31,0,0,0,.76.68.86.86,0,0,1,.62.77c0,.48,0,1,.06,1.44.9,1.13.64,2.48.7,3.77a2.13,2.13,0,0,0,.26,1,2.89,2.89,0,0,1,.45,1.69c0,.84,0,1.68,0,2.51a4.08,4.08,0,0,0,.32,1,5.23,5.23,0,0,1,.33,1,17.73,17.73,0,0,0,.08,1.79c.12.56.53,1.06.63,1.62a4.83,4.83,0,0,0,.57,1.65,4.89,4.89,0,0,0,.89,1.51c.76.64.88,1.66,1.43,2.42-.16.91.47,1.57.78,2.32s.74,1.46,1.11,2.2a13.36,13.36,0,0,0,1.25,2.51c.57.73.37,1.59.76,2.33a6.83,6.83,0,0,1,1.25,3.25c1.15,1.92,2,4,3,6a.48.48,0,0,0,.62.23c.33-.14.61-.36.93-.51a.7.7,0,0,1,1.06.54c0,1.56.07,3.11,0,4.67a4.7,4.7,0,0,0,.64,2.34c1.56,3,1.53,3.07,4.19,4.48.11.06.25,0,.35.08a2.2,2.2,0,0,1,1.23,1.24,5.29,5.29,0,0,0,1,1.47,1.82,1.82,0,0,1,.49.91,3,3,0,0,0,.87,1.88,5.45,5.45,0,0,1,1.36,3.55,2.32,2.32,0,0,0,.35,1c.35.74.77,1.46,1.08,2.22a1,1,0,0,0,1.1.67h17.59a10.68,10.68,0,0,1,1.42,2c.27.64.46,1.34.76,2a5.94,5.94,0,0,1,.62,1.67,9.94,9.94,0,0,0,.69,2c.24.67.44,1.35.72,2a3.55,3.55,0,0,1,.16,1.05,5,5,0,0,0,.39,1.35,15.12,15.12,0,0,0,2.86,4.49,8.82,8.82,0,0,0,3,1.92,1.7,1.7,0,0,0,1,.09,5.51,5.51,0,0,0,3.47-1.61,1.49,1.49,0,0,1,.27-.23.63.63,0,0,1,.94.07c.41.58.8,1.18,1.22,1.75a2.3,2.3,0,0,1,.46,1.33,3.35,3.35,0,0,0,1.9,2.85c1,.6,2.11,1,3.13,1.55a8.28,8.28,0,0,0,2-.84,26.46,26.46,0,0,1,3.56-2.36,1.47,1.47,0,0,0,.82-1.12c.13-1.53.8-3,.61-4.57a3,3,0,0,1,.08-1.07,1,1,0,0,1,.39-.48s.25,0,.32.13a7.66,7.66,0,0,0,3.84,2.46,6.47,6.47,0,0,1,1,.28,7.28,7.28,0,0,0,4.55.47,2,2,0,0,0,.93-.49,4.59,4.59,0,0,0,1.27-1.71c.69-1.38,1.41-2.75,2.18-4.22,0-.85,0-1.81.1-2.76a2.79,2.79,0,0,1,.94-2.2l2.46,1.33c5.38.15,4.43.32,8.13-3.35.34-.33.57-.78.94-1.08a8.65,8.65,0,0,0,1.72-2.68c.36,0,.71,0,1.07,0H489a6.49,6.49,0,0,0,1.48-2.5c.09-.18.36-.27.55-.4.14.45.28.9.41,1.36s.21.68.29,1a1,1,0,0,1-.6,1.15c-.22.08-.47.08-.69.16-.65.22-.82.46-.55,1a4.09,4.09,0,0,1,.41,1.71c0,2.39.11,4.77.2,7.16a4.26,4.26,0,0,0,.24,1.38,4.26,4.26,0,0,1,.41,2.09c-.13,1,.47,1.84.68,2.75s-.23,2,.18,2.83a10.58,10.58,0,0,1,.61,4.92c0,2.26.09,4.53,0,6.79-.08,1.76.21,3.59-.67,5.26a1.51,1.51,0,0,0-.06.71c0,3.22-.08,6.45-.13,9.67a3.23,3.23,0,0,1-.09,1.4c-.45.87-.29,1.88-.84,2.71a6.94,6.94,0,0,0-1.21,4c0,1-.55,1.82-.56,2.78s-.07,2.15-.18,3.22a6.08,6.08,0,0,1-.32,2.11,2.33,2.33,0,0,0-1.06,2.12,38.73,38.73,0,0,1,0,4.31c-.09,1.64.4,3.36-.64,4.89a1.16,1.16,0,0,0-.05.7,4.71,4.71,0,0,1-.72,3.06,5.77,5.77,0,0,1-1.64,3.46,2.76,2.76,0,0,0-.65,1.6c-.1.56-.59,1.08-.6,1.63,0,.83-.56,1.27-.95,1.85s-.82,1.44-1.22,2.16a2.86,2.86,0,0,1-1,2.21,8.88,8.88,0,0,0-.87,1.54,9.79,9.79,0,0,1-1.29,2.11c-.64.68-.83,1.69-1.61,2.32a3.44,3.44,0,0,0-1.09,1.39,12.6,12.6,0,0,0-1.39,3.22,1.58,1.58,0,0,1-.18.67,27,27,0,0,0-1.6,2.35c-.41.71-1.23,1.2-1.59,1.92a3.45,3.45,0,0,1-1.43,1.45,6.19,6.19,0,0,1-1.44,2c-1,1.29-1.92,2.7-3.07,3.91-.4,1.34-1.55,2.06-2.49,3-.79.15-1,.83-1.45,1.39-.64.83-1.26,1.77-2.56,1.73a1.58,1.58,0,0,0-.91.49c-.63.55-1.23,1.14-1.82,1.74s-1.75.73-2.36,1.57c-.24.34-.83.41-1.2.7a12.54,12.54,0,0,0-1.3,1.23,3.94,3.94,0,0,1-1.53.86,8.33,8.33,0,0,0-1.57.81,12.9,12.9,0,0,1-2,1.42,6.1,6.1,0,0,0-1.58,1.44c-.69.67-1.35,1.36-2.05,2-.26.24-.59.55-.89.56a5.39,5.39,0,0,0-2,.67,8,8,0,0,0-1.74,1.22,1.09,1.09,0,0,1-.62.3c-.92-.13-1.59.46-2.32.8-2.45,1.14-4.88,2.34-7.27,3.61a8.17,8.17,0,0,0-2.7,1.68,1.76,1.76,0,0,1-1.32.44c-.81.06-1.66-.15-2.42.43s-1.59.24-2.32.79a28.06,28.06,0,0,1-2.51,1.27,3,3,0,0,1-1.7.4c-.24,0-.56-.07-.71,0a3.85,3.85,0,0,1-2.71.67c-1,.82-2.6.46-3.49,1.61a1.56,1.56,0,0,1-1.28.52,3.62,3.62,0,0,0-1.39.21,4.36,4.36,0,0,1-1.68.49c-1.64.07-3.36-.39-4.88.65-.17.11-.46.06-.7.07a14,14,0,0,0-2.15.07c-.68.12-1.31.54-2,.64a14.51,14.51,0,0,0-1.65.63,13.61,13.61,0,0,1-2.13.16,1.33,1.33,0,0,0-.67.17,3.64,3.64,0,0,1-2.4.52l-5.75,0c-.36,0-.81-.07-1.05.11-.95.72-2,.56-3.1.63a1.29,1.29,0,0,0-.68.16,3.88,3.88,0,0,1-2.4.49c-.83,0-1.67.09-2.5.13-1,.81-2.27.59-3.44.61-2.28,0-4.56,0-6.83,0a2.09,2.09,0,0,0-1.39.22,2.8,2.8,0,0,1-2,.5c-1.51-.16-3.12.42-4.51-.63-.48,0-1,0-1.43,0l-11.87,0a2.52,2.52,0,0,1-1.36-.36,2.59,2.59,0,0,0-1-.33c-1.06-.12-2.19.15-3.08-.68a4.46,4.46,0,0,0-2.44.3,2.75,2.75,0,0,1-2.72,0,2.65,2.65,0,0,0-1.34-.4,5.91,5.91,0,0,1-1.79-.08,7.87,7.87,0,0,1-1.89-1,2.31,2.31,0,0,0-1.34-.42c-.52,0-.84-.42-1.27-.57a12.67,12.67,0,0,1-1.69-.44,1.41,1.41,0,0,0-1.64,0,1.78,1.78,0,0,1-2,0c-.73-.4-1.48-.74-2.27-1.13a14.57,14.57,0,0,0-2.47,0c-1.07.19-1.79-.58-2.72-.72a5.48,5.48,0,0,0-1.07-.05c-.66,0-1-.61-1.63-.67a17.19,17.19,0,0,1-1.76-.17c-.18,0-.31-.33-.46-.5.32-.11.78-.31.51-.65-.72-.94-1.8-1.58-2.14-2.81L299.13,684c-1-.2-1.55-1.06-2.26-1.68a2.11,2.11,0,0,0-1.62-.6,1.89,1.89,0,0,1-1-.12c-.92-.53-2-.79-2.65-1.75a11.23,11.23,0,0,0-1-1.45c-.37-.4-1.14-.42-1.16-1.18-.64-.72-1.28-1.43-1.91-2.15a7.68,7.68,0,0,1-1.61-1.89c-.44-1-1.64-.89-2.16-1.75-.21-.35-.84-.43-1.16-.75s-.42-.86-.74-1.17c-.85-.82-1.46-1.94-2.73-2.24l-1.79-1.75c-.19-1-1-1.59-1.67-2.26-.92-1-1.86-1.87-2.8-2.8a4.74,4.74,0,0,0-1.73-1.21,1.9,1.9,0,0,1-1-1,4.35,4.35,0,0,0-.94-1.47c-.89-1-2-1.75-2.41-3.06-.92-.94-1.85-1.88-2.77-2.83-.16-.17-.39-.37-.41-.57-.13-.94-.88-1.39-1.43-2l-1.45-1.58c-.08-.93-1-1.34-1.35-2.06s-.66-1.51-1.06-2.23-1.26-1.13-1.34-2.06c-.67-.83-.87-2-1.76-2.67-.22-.18-.23-.64-.33-1s-.1-.79-.32-1c-1-.88-1.23-2.32-2.33-3.13a5.12,5.12,0,0,1-1.15-1.76c-.77-1.32-1.13-2.88-2.34-4a1.41,1.41,0,0,1-.31-1,5,5,0,0,0-.48-1.31c-.33-1.19-1.57-1.78-1.85-3-.07-.31-.44-.55-.66-.84s-.59-.6-.57-.87a2.85,2.85,0,0,0-1.29-2.43,2.51,2.51,0,0,1-1-2.18c-.52-1-1-2.12-1.59-3.15-.33-.62-1.16-1-1.19-1.74a5.38,5.38,0,0,0-.7-2c-.18-.42,0-1-.28-1.38a2.48,2.48,0,0,1-.52-1.66A2.3,2.3,0,0,0,238,604a10.55,10.55,0,0,1-1-1.88c-.36-1-1.14-1.84-.87-3a.87.87,0,0,0-.18-.66c-.52-.59-.43-1.34-.65-2a16,16,0,0,0-.95-1.9,4.27,4.27,0,0,1-.36-1c-.11-.58.08-1.18-.29-1.74a16.45,16.45,0,0,1-.79-1.57,20.64,20.64,0,0,0-1.12-2.2,8.42,8.42,0,0,1-.91-2.65c-.74-.6-.25-1.63-.8-2.31-.67-.84-.39-1.84-.39-2.78a6.11,6.11,0,0,0-.6-2,22.22,22.22,0,0,1-.2-2.48c-.16-.79-.82-1.44-.68-2.34a1.36,1.36,0,0,0-.2-1,2.49,2.49,0,0,1-.49-1.68c0-1.56,0-3.12,0-4.68a2.92,2.92,0,0,0-.5-2c-.27-.31-.19-.68-.19-1,0-1.44,0-2.88,0-4.32,0-1-.2-1.94.58-2.72a3.13,3.13,0,0,0-.2-2.42,2.34,2.34,0,0,1-.39-1.34c0-1.8,0-3.6,0-5.4a2.38,2.38,0,0,0-.41-1.34c-.24-.4-.36-.87-.61-1.27a2.44,2.44,0,0,1-.39-1.34c0-2.52,0-5,0-7.56a2.09,2.09,0,0,0-.2-1,4.26,4.26,0,0,1,0-4.07,3.46,3.46,0,0,0-.15-3.42c-.13-.2-.22-.41-.33-.62a3.87,3.87,0,0,1-.7-2.7q0-16.18,0-32.38,0-13.32,0-26.63a3.72,3.72,0,0,1,.53-2,1.56,1.56,0,0,0-.1-1.69,2.15,2.15,0,0,1-.43-1.34c0-.71,0-1.44,0-2.15a3.53,3.53,0,0,1,.53-2c.2-.36.06-.91.08-1.38a3.28,3.28,0,0,1-.61-2.36q0-28.61,0-57.21,0-23.22,0-46.43a5.44,5.44,0,0,0-.68-2.34,3.41,3.41,0,0,0-2.9-2.3c-.44,0-.83-.48-1.28-.57a9.58,9.58,0,0,0-1.78-.07c-.36,0-.73,0-1.08,0-1.28-.11-2.24.64-3.24,1.23a6.09,6.09,0,0,0-.79.74,2.94,2.94,0,0,0-1.23,2.81,1,1,0,0,1-.16.67,3,3,0,0,0-.56,2q0,11.88,0,23.75,0,7.74,0,15.48a2.06,2.06,0,0,1-.28,1.37,1.16,1.16,0,0,0-.08,1.61,2.44,2.44,0,0,1,.35,1.71q0,11.7,0,23.39l0,51.1q0,17.82,0,35.63c0,1.06-.18,2.17.62,3.08a3.23,3.23,0,0,1-.09,2.09,4.09,4.09,0,0,0-.53,2.4l0,30.23a3.47,3.47,0,0,0,.64,2.71,3.85,3.85,0,0,1-.23,2.43,2.85,2.85,0,0,0,.06,3,2.38,2.38,0,0,1,.06,2.39,4.76,4.76,0,0,0-.51,2.4q0,7.56,0,15.12,0,18.71,0,37.43v18.71c0,.72,0,1.44,0,2.16a.9.9,0,0,1-1,.81l-15.11,0c-1.06,0-2.16.15-3.08-.63-.12-.11-.51,0-.67.07a3.08,3.08,0,0,1-2,.54q-14.22,0-28.43,0c-.95,0-1.94.13-2.71-.64-.71-.08-1.5-.31-2.09.1a1.88,1.88,0,0,1-2.26-.05,2.23,2.23,0,0,0-2.07.06,4,4,0,0,1-2,.52c-4.92,0-9.83,0-14.75,0a2.93,2.93,0,0,0-1.7.44,2,2,0,0,1-1,.28c-.72,0-1.44,0-2.16,0a1.88,1.88,0,0,1-1.7-1.53c0-1.44,0-2.88,0-4.32a2.89,2.89,0,0,1,.54-1.67c.11-.18.18-.55.07-.67-.85-1-.59-2.27-.6-3.44,0-3.24,0-6.48,0-9.72a3.73,3.73,0,0,1,.52-2,1.54,1.54,0,0,0-.09-1.69,2.27,2.27,0,0,1-.43-1.33c0-1.56,0-3.12,0-4.68,0-3.12,0-6.24,0-9.36a2.22,2.22,0,0,1,.36-1.35,3.33,3.33,0,0,0,.25-2.42c-.77-.92-.55-2-.61-3.08a2.76,2.76,0,0,1,.55-2,.7.7,0,0,0,0-.67,3.73,3.73,0,0,1-.59-2.73c0-2,0-4.08,0-6.12a3.26,3.26,0,0,1,.57-2,.85.85,0,0,0-.15-1,1.82,1.82,0,0,1-.22-2c.1-.21.31-.39.36-.62a10.51,10.51,0,0,0,0-3.54c-.85-1-.56-2.28-.57-3.45q0-7,0-14a4.35,4.35,0,0,0-.56-2,3.31,3.31,0,0,1,0-1.38,3.1,3.1,0,0,0,.59-2.36c0-1.2,0-2.4,0-3.6a1.09,1.09,0,0,0-.19-.66,3,3,0,0,1-.49-2c0-.6,0-1.2,0-1.8a.86.86,0,0,0-.68-.7c-.8-.12-1-.06-1.41.69s-.69,1.26-1.48,1.43c0-1.43-.1-2.87-.08-4.3a10.31,10.31,0,0,0-.3-2.47,14.88,14.88,0,0,1-.1-2.84c.59-.87.35-1.85.35-2.8q0-6.64.07-13.29a8.24,8.24,0,0,0-.37-2.82,3.19,3.19,0,0,1,.09-2.44,5.61,5.61,0,0,0,.18-3.17,4.37,4.37,0,0,1-.2-3.81,3.56,3.56,0,0,0,0-2.43,5,5,0,0,1-.09-3.18,12.21,12.21,0,0,0,0-5.67,9.26,9.26,0,0,1,.12-4.25,7,7,0,0,0,0-3.9,18.11,18.11,0,0,1-.19-5.69,7.88,7.88,0,0,0,.38-3.54,10.93,10.93,0,0,0-.33-3.55,3.46,3.46,0,0,1-.06-2.11,3.85,3.85,0,0,0,0-3.12c-.12-.25.15-.67.2-1a2.17,2.17,0,0,0,.08-1A6.48,6.48,0,0,1,123,450a1.48,1.48,0,0,0-.14-1.38,2.77,2.77,0,0,1-.37-1.73c.24-6.1,0-12.21,0-18.32,0-3.59,0-7.19,0-10.78a4.38,4.38,0,0,1,.39-1.35,1.74,1.74,0,0,0,.08-1.05,13.34,13.34,0,0,1-.54-5.31c.08-2.52,0-5,.1-7.55a2.89,2.89,0,0,0,0-.72c-.17-.88.37-1.62.46-2.44s-.59-1.57-.58-2.42c0-.6,0-1.2,0-1.8a54.85,54.85,0,0,0-.11-7.9,18.16,18.16,0,0,1,.06-3.21,2.33,2.33,0,0,1,.3-1,3.15,3.15,0,0,0,.47-1.71c0-1.55,0-3.11,0-4.67s-.09-3.12-.05-4.68a8.27,8.27,0,0,1,.55-3.87c.11-1.31.24-2.62.31-3.93.05-.83,0-1.67,0-2.51a9.83,9.83,0,0,1,.06-1.8,4.7,4.7,0,0,1,.62-1.66,5.35,5.35,0,0,0,.64-2.76c0-.95,0-1.91,0-2.87a2.52,2.52,0,0,1,.34-1.37,2.89,2.89,0,0,0,.32-1.38,6.6,6.6,0,0,1,.38-2.83c.41-.76.16-1.66.68-2.39s.3-1.62.44-2.44a13.22,13.22,0,0,1,.52-2.06c.92-2.71,2.34-5.18,3.5-7.77a9.79,9.79,0,0,0,1-2.66,1.51,1.51,0,0,0-.25-1.35,29.18,29.18,0,0,0-3.05-3c-.75-.6-1.49-1.19-2.27-1.73s-1.07-1.61-2-2a5,5,0,0,0-2.15-1.81,2.75,2.75,0,0,1-1.22-1.21,3.7,3.7,0,0,0-1-1,10.36,10.36,0,0,1-1.21-.76,7.46,7.46,0,0,0-3.75-2,4,4,0,0,1-2.47-1.29,11.61,11.61,0,0,0-5.72-1.76,5.1,5.1,0,0,1-1.77-.19,2.9,2.9,0,0,0-2-.07c-.61.11-1.31-.46-2,.08H96.94l-2.07-1.13c-.72.17-1.29.62-2.05.57a3.55,3.55,0,0,1-2.61-1c-.32-.35-.73-.63-1-1a5,5,0,0,1-1.34-3.24c0-.95.06-1.91.15-2.87.06-.7-.18-1.43.21-2.11.58-1,.84-2.25,2-2.91a2.18,2.18,0,0,0,.83-1.13c.4-.87.76-1.75,1.81-2a5.61,5.61,0,0,1,1.1-1.37A5,5,0,0,0,96,291a2.14,2.14,0,0,1,.74-.76,35.65,35.65,0,0,0,6.23-5.88,5.65,5.65,0,0,1,.69-.77c.46-.38,1-.67,1.43-1.08,1-.91,1.84-1.87,2.75-2.82a.3.3,0,0,0,0-.25c-.07-.09-.21-.22-.28-.2-1.19.31-2,1.27-3,1.88-1.42.87-2.63,2.06-4,3.06-1.53,1.15-3,2.35-4.45,3.61-1.8,1.56-3.71,3-5.59,4.46a9.86,9.86,0,0,0-3.12,3.39,4.33,4.33,0,0,1-2,2,15.92,15.92,0,0,0-2,1.43,2.49,2.49,0,0,1-2.41.13c-1-.43-1.88-1-2.63-1.42a2,2,0,0,1-.47-1.53c0-1.44-.06-2.88-.07-4.31a1.76,1.76,0,0,1,.52-1.31c1.29-1.23,2.32-2.73,4-3.59a10.58,10.58,0,0,0,1.6-1.42c1.55-1.28,3-2.73,4.91-3.52a9,9,0,0,0,2.65-1.79c1.48-1.4,3.22-2.46,4.72-3.83a14.06,14.06,0,0,1,1.14-.85,6.05,6.05,0,0,0,.84-.65c2.24-2.3,2.24-2.3,4.11-3.28.6,0,.61,0,.54-.46l.12-.13c.61,0,.75-.44,1-.85,1.51-.72,2.47-2.15,3.9-3a.34.34,0,0,0,.11-.31,2.49,2.49,0,0,0-.36-.39c-.48.42-1.13.32-1.66.54a3.52,3.52,0,0,0-1.44,1,4,4,0,0,1-2.44,1.23c-.17.05-.27.35-.4.53a6.29,6.29,0,0,1-1.65.63,4.51,4.51,0,0,0-2.62,1,1.77,1.77,0,0,1-.95.44,10.89,10.89,0,0,0-4,1.45,44.09,44.09,0,0,1-5.52,2.48c-.73.7-1.87.34-2.62,1A12.89,12.89,0,0,1,82,278.1a25.21,25.21,0,0,1-5.47,2.55,2.17,2.17,0,0,0-.66.26,14.68,14.68,0,0,1-4.42,2.26c-.66.25-1.26.67-1.92.94a1.8,1.8,0,0,1-2-.36c-.53-.48-1-1-1.57-1.47a2.67,2.67,0,0,1-1-2.51,2.73,2.73,0,0,1,.4-1.34c.31-.5.75-.9,1-1.43a8.73,8.73,0,0,1,4.73-3.59,19,19,0,0,0,4.19-2,4.8,4.8,0,0,1,1.24-.71c2.27-.75,4.16-2.25,6.38-3.11,1.33-.52,2.5-1.41,3.83-1.92s2.43-.91,3.65-1.39c.77-.3,1.33-1,2.25-1a12.22,12.22,0,0,0,2.37-.68.67.67,0,0,0,.83-.58l.65-.23a.83.83,0,0,0,.59-.76c1.18.16,2.35.39,3.42-.43.15-.13.45-.1.68-.1,1.76,0,3.07-1.05,4.47-1.89.07,0,.08-.2.1-.31a.49.49,0,0,0-.33-.56,1.59,1.59,0,0,0-1.35,0c-1.27.63-2.52,1.3-3.78,1.94a.72.72,0,0,1-.86-.44,1.12,1.12,0,0,0-1.2-1H90.73a2.76,2.76,0,0,1-1.7-.4.84.84,0,0,0-1,0,2.21,2.21,0,0,1-1.34.39c-1.07,0-2.14,0-3.21,0a1,1,0,0,0-.78.63c-.83.06-1.67.11-2.5.18a4.56,4.56,0,0,0-1.4.2,7.79,7.79,0,0,1-2.47.4c-1.65.14-3.37-.2-4.93.65-2.15,0-4.29.43-6.45.18a2,2,0,0,1-1.58-1.71c0-.6,0-1.2,0-1.8,0-1.45.23-1.82,1.73-2.25a14.15,14.15,0,0,0,2.28-1,4.11,4.11,0,0,1,1.69-.52,8.5,8.5,0,0,0,2.8-.48,23.38,23.38,0,0,0,2.42-.57,3.88,3.88,0,0,1,1-.25,5.74,5.74,0,0,1,.72,0L80,251.7c1-.77,2.33-.44,3.42-.92a.77.77,0,0,1,.67-.09c1,.41,1.82-.48,2.77-.17a7.08,7.08,0,0,0,1,.27,1.23,1.23,0,0,0,.66,0,1.76,1.76,0,0,1,1.71.1,3.4,3.4,0,0,1,2.39.06c.85.33,1.62-.18,2.37-.53,3,0,6,0,9,0a1.49,1.49,0,0,0,1.48-.82,8.46,8.46,0,0,1,2.15-2.8,8.79,8.79,0,0,0,1.27-1.69c.36-.55,1.1-.85,1.66-1.28a2,2,0,0,0,.5-.51c.4-.58.74-1.2,1.17-1.76a13.27,13.27,0,0,0,1.39-1.64,2,2,0,0,1,1.22-1.14.8.8,0,0,0,.29-.2,20.59,20.59,0,0,0,2.06-2c.7-.87,1.8-1.13,2.57-1.87,1-1,1.88-2.17,3.33-2.62,1.32-1.56,3.37-2.24,4.63-3.88a1.87,1.87,0,0,1,.82-.67,4.49,4.49,0,0,0,2-1.47l4.83-4.83c.34-.33.68-.8,1.09-.91a5,5,0,0,0,2.27-1.66c1-1,2-2,3.06-3a4.15,4.15,0,0,1,1.7-1.26c.42-.11.75-.57,1.09-.9a27.77,27.77,0,0,0,2-2c.72-.84,1.8-1.17,2.55-1.89a11.89,11.89,0,0,1,3.87-2.47c.87-.36,1.67-.87,2.48-1.3Zm-37.32,45.42c2.49,1.79,2.48,1.8,3.29,3.68.47,1.08.33,1.58-.39,2.23a12.53,12.53,0,0,0-1.2,1.32.87.87,0,0,0-.11,1,3.86,3.86,0,0,1,.54,2.41c0,.48-.08.95-.13,1.43a.76.76,0,0,0,.48.84A4.31,4.31,0,0,1,127.5,268a.5.5,0,0,0,.18.31c.94.78-.33,1.81.3,2.62a3.84,3.84,0,0,1-.49.92c-1,1-1.92,2.1-2.9,3.13s-2,2.34-3.07,3.51c-.33,1.11-1.57,1.42-2.08,2.4A11.89,11.89,0,0,1,117,283.5a12.79,12.79,0,0,0-2.19,2.36,26.08,26.08,0,0,1-2.36,2.63c-1.25,1.62-2.75,3-4.1,4.52a13.52,13.52,0,0,0-1.45,1.59,12.84,12.84,0,0,1-2.28,2.75c-.88.78-1.25,2-2.35,2.63-.75.43-.86,1.41-1.36,2.08a.54.54,0,0,0,.39.79c1.19-.06,2.47.24,3.54-.25,1.29-.6,2.32.57,3.5.2.11,0,.26,0,.35,0a2.22,2.22,0,0,1,2,.07c.64.27,1.46.09,2.1.35,1.21.48,2.41,1,3.63,1.47s2.13,1.05,3.19,1.58c.87,1.18,2.43.88,3.5,1.65.19.13.48.16.63.32,1.06,1.14,2.53,1.77,3.6,2.91a23.92,23.92,0,0,0,3.43,3.17,32.91,32.91,0,0,1,3.77,3.29l1.82,1.71a3.34,3.34,0,0,0,.58-.51c.73-1.09,1.42-2.21,2.18-3.29s2-2,2.75-3.31c.29-.49,1-.76,1.21-1.26a5.66,5.66,0,0,1,2.24-2.26,11.07,11.07,0,0,0,2.44-2.08,2,2,0,0,0,.46-.94,4.47,4.47,0,0,0-.1-2.83c-.53-1-.57-2.06-1-3.05s-.24-2.14-.92-3c.13-1-.59-1.79-.87-2.69.22-1.38-.77-2.48-.86-3.82a6,6,0,0,0-.84-2.69c-.65-1.07-.61-2.29-1.06-3.38-.18-.43,0-1-.25-1.4-.79-1.27-.33-2.86-1.16-4.09a4,4,0,0,0-1-3,1.51,1.51,0,0,1-.37-1,12.38,12.38,0,0,0-.91-4.54,6.7,6.7,0,0,0-.89-3.05,40,40,0,0,1-1.79-5.4c-.11-1.07-.08-2.16-.26-3.22a18.11,18.11,0,0,1-.71-3.12,4.79,4.79,0,0,0-.29-1.38,4.14,4.14,0,0,1,.13-3.13,21.14,21.14,0,0,0,.85-2.7,11.73,11.73,0,0,0,.22-2.86,5.21,5.21,0,0,1,.14-1.05c.35-1.14,1.16-2.11,1.19-3.36.35-.48.7-.95,1-1.45a1.22,1.22,0,0,0,.28-.64c-.08-1.13.54-2.06.81-3.09a10.35,10.35,0,0,1,1.47-3.22,9.8,9.8,0,0,1,.77-2.35c0-.08-.08-.21-.16-.29s-.21-.14-.24-.12c-.7.65-1.41,1.3-2.08,2a14.56,14.56,0,0,1-4.5,3.49,3.8,3.8,0,0,0-1.17.8c-1.68,1.68-3.09,3.68-5.4,4.64a1.31,1.31,0,0,0-.54.48,12.57,12.57,0,0,1-3.88,3.11c-2.11,1.34-4,3-6.16,4.27a10.46,10.46,0,0,0-1.63,1.53,6.14,6.14,0,0,0,2.58.93C119.73,251,120.8,251.1,121.81,251.17Z"/><path class="cls-2" d="M303.07,689.69c.15.17.28.47.46.5a17.19,17.19,0,0,0,1.76.17c.61.06,1,.7,1.63.67a5.48,5.48,0,0,1,1.07.05c.93.14,1.65.91,2.72.72a14.57,14.57,0,0,1,2.47,0c.79.39,1.54.73,2.27,1.13a1.78,1.78,0,0,0,2,0,1.41,1.41,0,0,1,1.64,0,12.67,12.67,0,0,0,1.69.44c.43.15.75.59,1.27.57a2.31,2.31,0,0,1,1.34.42,7.87,7.87,0,0,0,1.89,1,5.91,5.91,0,0,0,1.79.08,2.65,2.65,0,0,1,1.34.4,2.75,2.75,0,0,0,2.72,0,4.46,4.46,0,0,1,2.44-.3c.89.83,2,.56,3.08.68a2.59,2.59,0,0,1,1,.33,2.52,2.52,0,0,0,1.36.36l11.87,0c.47,0,.95,0,1.43,0,1.39,1.05,3,.47,4.51.63a2.8,2.8,0,0,0,2-.5,2.09,2.09,0,0,1,1.39-.22c2.27,0,4.55,0,6.83,0,1.17,0,2.4.2,3.44-.61.83,0,1.67-.11,2.5-.13a3.88,3.88,0,0,0,2.4-.49,1.29,1.29,0,0,1,.68-.16c1.06-.07,2.15.09,3.1-.63.24-.18.69-.1,1.05-.11l5.75,0a3.64,3.64,0,0,0,2.4-.52,1.33,1.33,0,0,1,.67-.17,13.61,13.61,0,0,0,2.13-.16,14.51,14.51,0,0,1,1.65-.63c.68-.1,1.31-.52,2-.64a14,14,0,0,1,2.15-.07c.24,0,.53,0,.7-.07,1.52-1,3.24-.58,4.88-.65a4.36,4.36,0,0,0,1.68-.49,3.62,3.62,0,0,1,1.39-.21,1.56,1.56,0,0,0,1.28-.52c.89-1.15,2.46-.79,3.49-1.61a3.85,3.85,0,0,0,2.71-.67c.15-.12.47,0,.71,0a3,3,0,0,0,1.7-.4,28.06,28.06,0,0,0,2.51-1.27c.73-.55,1.66-.28,2.32-.79s1.61-.37,2.42-.43a1.76,1.76,0,0,0,1.32-.44,8.17,8.17,0,0,1,2.7-1.68c2.39-1.27,4.82-2.47,7.27-3.61.73-.34,1.4-.93,2.32-.8a1.09,1.09,0,0,0,.62-.3,8,8,0,0,1,1.74-1.22,5.39,5.39,0,0,1,2-.67c.3,0,.63-.32.89-.56.7-.65,1.36-1.34,2.05-2a6.1,6.1,0,0,1,1.58-1.44,12.9,12.9,0,0,0,2-1.42,8.33,8.33,0,0,1,1.57-.81,3.94,3.94,0,0,0,1.53-.86,12.54,12.54,0,0,1,1.3-1.23c.37-.29,1-.36,1.2-.7.61-.84,1.68-.89,2.36-1.57s1.19-1.19,1.82-1.74a1.58,1.58,0,0,1,.91-.49c1.3,0,1.92-.9,2.56-1.73.42-.56.66-1.24,1.45-1.39.94-.9,2.09-1.62,2.49-3,1.15-1.21,2-2.62,3.07-3.91a6.19,6.19,0,0,0,1.44-2,3.45,3.45,0,0,0,1.43-1.45c.36-.72,1.18-1.21,1.59-1.92a27,27,0,0,1,1.6-2.35,1.58,1.58,0,0,0,.18-.67,12.6,12.6,0,0,1,1.39-3.22,3.44,3.44,0,0,1,1.09-1.39c.78-.63,1-1.64,1.61-2.32a9.79,9.79,0,0,0,1.29-2.11,8.88,8.88,0,0,1,.87-1.54,2.86,2.86,0,0,0,1-2.21c.4-.72.76-1.47,1.22-2.16s.93-1,.95-1.85c0-.55.5-1.07.6-1.63a2.76,2.76,0,0,1,.65-1.6,5.77,5.77,0,0,0,1.64-3.46,4.71,4.71,0,0,0,.72-3.06,1.16,1.16,0,0,1,.05-.7c1-1.53.55-3.25.64-4.89a38.73,38.73,0,0,0,0-4.31,2.33,2.33,0,0,1,1.06-2.12,1.22,1.22,0,0,0,1.23-.54,13,13,0,0,1,1.14-1.79c.83-.87,1.09-2.13,2.05-2.9.33-1.18,1.32-1.94,1.85-3a10.28,10.28,0,0,1,1.91-3,18.93,18.93,0,0,1,2.77-4.94,2.11,2.11,0,0,0,.2-.67,3.61,3.61,0,0,1,.33-1c.65-1,1.33-2,2-2.92a2.63,2.63,0,0,0,.55-1.28,2.36,2.36,0,0,1,.38-1,15.62,15.62,0,0,0,2.57-5.37c.65-.64.38-1.65.85-2.29s.34-1.62.8-2.34.75-1.47,1.12-2.21c-.15-.91.45-1.6.8-2.32a5.45,5.45,0,0,0,.69-2.72,2.26,2.26,0,0,1,.75-1.93,2.26,2.26,0,0,0,.66-2,1.24,1.24,0,0,1,.09-.7,3.6,3.6,0,0,0,.62-2.38,3.89,3.89,0,0,1,.52-2,5.88,5.88,0,0,0,.92-3.73,3.2,3.2,0,0,1,.53-2,1.24,1.24,0,0,0,.18-.67,8.34,8.34,0,0,1,.58-2.4,12.17,12.17,0,0,0,.2-2.85,1.19,1.19,0,0,1,.17-.67c.62-.67.29-1.66.8-2.33s.38-1.6.48-2.42a.59.59,0,0,1,.15-.32,2.61,2.61,0,0,0,.5-2c-.24-1.4.4-2.54.93-3.73.14-.32.33-.63.5-.94,0-.85,0-1.69,0-2.53a2.9,2.9,0,0,1,.51-2,1.55,1.55,0,0,0,.2-1c0-1.32.06-2.64.06-4a2.14,2.14,0,0,1,.39-1.35,2.41,2.41,0,0,0,.33-1.36c0-.6.08-1.19.13-1.78.73-.94.54-2.05.57-3.11,0-.84,0-1.68.05-2.52a2.12,2.12,0,0,1,.21-1,3.58,3.58,0,0,0,.41-2.07c0-2.4.06-4.8.07-7.2a4.17,4.17,0,0,1,.46-2.06c.38-.71.28-1.64.84-2.31,0-.84.1-1.67.11-2.51,0-1.19,0-2.39,0-3.59a2,2,0,0,1,.18-1,3.61,3.61,0,0,0,.52-2.4,4.42,4.42,0,0,1,.62-2,1.52,1.52,0,0,0-.3-1.68,2.43,2.43,0,0,1-.35-.61c.35,0,.83.07,1-.12a3,3,0,0,1,2.65-.7,3.63,3.63,0,0,0,2.68-.72,2.74,2.74,0,0,0,2.22-.94c.16-.16.41-.38.6-.35,1.21.13,2-.78,2.91-1.22a1.26,1.26,0,0,1,1.29.13c.19.1.56.18.67.08.73-.71,1.85-.46,2.61-1.11a3.17,3.17,0,0,1,1.84-1c.68-.06,1.33-.48,2-.58s1.21,0,1.68-.43,1.39-.22,2-.56c.94-.49,2-.84,2.88-1.37a6.63,6.63,0,0,1,2.54-1.19c1.14-.09,1.91-.86,2.88-1.26a1.9,1.9,0,0,1,1.67.21c.61-.35,1-1.13,1.74-1.16a4.77,4.77,0,0,0,2-.62,6.1,6.1,0,0,1,3-1c.53,0,.73-.5,1-.9a1,1,0,0,1,.95-.38,6.44,6.44,0,0,1,1,.3c.47.16.66.17.8-.24a1,1,0,0,1,.63-.77c.45-.14,1-.07,1.34-.43.69-.67,1.31-.27,1.92.13,1-.34,1.58-1.58,2.87-1.24.07,0,.2-.11.29-.19a2.8,2.8,0,0,1,1.23-.64c.69-.15,1.34-.64,2-.61,1,.05,1.47-.77,2.31-.84.85-.74,2.11-.39,3-1.13a3.14,3.14,0,0,1,2.73.34l2.49-1.25h3.28a1.76,1.76,0,0,0,1.25-.62A6.58,6.58,0,0,0,594,462c.37-.54.68-.71,1.15-.44.9.52,1.75.76,2.61-.07a1.55,1.55,0,0,1,.63-.25.83.83,0,0,1,.35,0,2.15,2.15,0,0,0,1.71-.31c.51-.37,1.17-.22,1.7-.42a8.58,8.58,0,0,0,1.43-1.05,11.52,11.52,0,0,1,1.25-.67,2.31,2.31,0,0,1,2.38.08c.65.36.72.29,1.16-.3.06-.09,0-.28.11-.34.75-.57,1.51-1.13,2.28-1.67a1,1,0,0,1,.66-.21c1,.18,1.68-.93,2.72-.73a1.41,1.41,0,0,0,1-.17,4.33,4.33,0,0,1,2.73-.65,1.82,1.82,0,0,0,1-.21c.7-.61,1.69-.18,2.35-.75s1.6-.29,2.4-.45a1.22,1.22,0,0,0,.61-.37c.2-.23.35-.23.62-.08,1,.56,1,.37,1.61,0a14.66,14.66,0,0,0,1.18-.94c1.38,0,2.81,0,4.24,0a1.68,1.68,0,0,0,1-.33,15.44,15.44,0,0,0,1.84-1.07c.22-.17.69,0,1,0,0,1.2-.07,2.4-.06,3.6,0,5.87,0,11.75,0,17.63,0,6.47,0,13,0,19.42,0,5.76,0,11.52,0,17.28,0,6.71,0,13.43,0,20.15a3.56,3.56,0,0,1-.45,2.06,2.32,2.32,0,0,0-.21,1c-.1,1.18.18,2.41-.61,3.47-.05,1.07-.13,2.14-.15,3.22a4,4,0,0,1-.5,2.41,1.51,1.51,0,0,0-.16.68c0,.35,0,.72,0,1.08-.11,1.41.24,2.88-.63,4.18,0,1.08-.13,2.15-.11,3.23a1.8,1.8,0,0,1-1.25,2c-1.2.35-1.09,1.46-1.53,2.23-.21.37-.06.94-.09,1.42-.13,1.64.32,3.34-.6,4.92-.22.36-.09.94-.11,1.41a5.56,5.56,0,0,1-.86,3.39,4.28,4.28,0,0,0-.57,2,2.42,2.42,0,0,1-.24,1c-.62,1.28-1.41,2.5-1.3,4-.8,1-.62,2.27-.69,3.45,0,.59,0,1.2,0,1.8s-.32.88-.47,1.32-.25,1.15-.43,1.7a8.88,8.88,0,0,1-.6,1.29c-.21.42-.65.76-.57,1.28.19,1.17-.58,2-.91,3-.11.33-.5.64-.48.94.06.92-.77,1.53-.78,2.32a7,7,0,0,1-1,2.63,5,5,0,0,0-.47,2,3.46,3.46,0,0,1-.51,2c-.31.48-.4,1.11-.77,1.59,0,1-.66,1.77-.81,2.69a16.68,16.68,0,0,1-.63,1.65c-.71,2.78-.77,3-2,4.72a2,2,0,0,0-.3,1c0,.63-.5,1.07-.69,1.63a10.14,10.14,0,0,1-.33,1.37,3.64,3.64,0,0,0-.46,1.7,2.73,2.73,0,0,1-.19,1,14.9,14.9,0,0,0-1.09,2.24,9.39,9.39,0,0,1-.84,2.31,5.45,5.45,0,0,0-.78,3.06,1.55,1.55,0,0,1-.19,1c-.68.78-.34,1.87-.92,2.68a12.07,12.07,0,0,0-1,1.9c.1,2-1.19,3.56-1.91,5.29a2.81,2.81,0,0,0-.27,1,5.41,5.41,0,0,1-.53,2c-.31.75-1,1.37-.94,2.28s-.71,1.47-1,2.26-.95,1.44-1.08,2.22a8.11,8.11,0,0,1-1.65,3.49,6.34,6.34,0,0,0-1.38,3.59c0,.67-.6,1.33-.62,2A3.37,3.37,0,0,1,598,653.6c-.24.22-.27.66-.48.93a8.9,8.9,0,0,0-.84,2.31c-.32.77-1,1.26-1.36,2.09a7.26,7.26,0,0,1-2.22,3.18,1.41,1.41,0,0,0-.53.89,3.28,3.28,0,0,1-.83,1.92,14.83,14.83,0,0,0-1.31,2.11c-.64,1.26-1.21,2.56-1.83,3.83a8.65,8.65,0,0,1-.88,1.54,7.36,7.36,0,0,0-1.12,1.8,5.29,5.29,0,0,0-.58,1.66,1,1,0,0,1-.27.64c-1.14,1.11-1.57,2.63-2.32,4-.18.31-.22.71-.45,1-1.31,1.43-1.9,3.25-2.81,4.9-.8,1.45-1.29,3.09-2.54,4.27a15.15,15.15,0,0,1-2.18,3.65,5.35,5.35,0,0,1-1.65,2.3c-.68.67-1.38,1.33-2,2a5.64,5.64,0,0,0-1.45,2.79c-.1.9-.81,1.46-.92,2.29-1.74,1.49-2.5,3.76-4.31,5.22a34.33,34.33,0,0,0-3.26,3.34,7.16,7.16,0,0,1-2,2.51c-.56.62-1.15,1.22-1.73,1.84a7.09,7.09,0,0,0-1.76,2.22,4.24,4.24,0,0,1-.92,1.09c-.7.8-1.64,1.42-2,2.52a13.39,13.39,0,0,1-2,2,14.19,14.19,0,0,0-4.54,4.45c-.1.17-.4.21-.59.35a8.87,8.87,0,0,0-2.74,2.78,13.33,13.33,0,0,1-3.4,3.62c-.93.11-1.4.87-2,1.44-1.21,1.17-2.37,2.39-3.57,3.56-1,1-2.08,2-3.12,3-1.45.39-2,2-3.5,2.4-1.13,1.07-2.28,2.12-3.4,3.21a2.61,2.61,0,0,1-1.84,1,1.53,1.53,0,0,0-.92.48c-.67.72-1.71.86-2.37,1.56a8.17,8.17,0,0,1-2.44,1.45,8.25,8.25,0,0,0-1.46,1c-.55.44-1,1.09-1.72,1.24a18.68,18.68,0,0,1-4.05,2.87,19.44,19.44,0,0,0-3.83,2.57,1.87,1.87,0,0,1-.29.2,9.23,9.23,0,0,0-2.79,1.52c-.69.67-1.39,1.32-2.06,2A2.36,2.36,0,0,1,499,766a1.18,1.18,0,0,0-.65.26,29.92,29.92,0,0,0-2.6,1.86,11.36,11.36,0,0,1-2.8,1.47,2.47,2.47,0,0,0-.84.66,9.14,9.14,0,0,1-3.24,2.15c-.63.31-1.29.58-1.9.94a12.1,12.1,0,0,1-3.25,1.36,19.31,19.31,0,0,0-3.22,1.47c-1.06.49-2,1.32-3.23,1.38a1.68,1.68,0,0,0-.9.54,3.64,3.64,0,0,1-1.89.91c-.8.14-1.51.6-2.35.75-.66.11-1.25.57-2,.67s-1.48.73-2.35.76a.69.69,0,0,0-.45.49c0,1.92-.05,3.84,0,5.76a2.09,2.09,0,0,0,.38,1,1,1,0,0,1,.06,1,3,3,0,0,0-.48,1.32c0,1.68,0,3.36,0,5a1.33,1.33,0,0,0,.09.7c.71,1.09.49,2.31.5,3.48,0,3,0,6,0,9a4.32,4.32,0,0,1-.55,2.76.7.7,0,0,0,0,.67,3.62,3.62,0,0,1,.51,2.4q0,17.46,0,34.91,0,16.92,0,33.83,0,14.58,0,29.16c0,5.87,0,11.75,0,17.63,0,1.06-.25,2.18.64,3.06.05.71.11,1.42.14,2.13a1.56,1.56,0,0,1-.86,1.47,12.61,12.61,0,0,0-2.55,1.79q-12.57,0-24.81,0a6.79,6.79,0,0,1-1.37-2.2,17.19,17.19,0,0,0-1.43-2c0-.72,0-1.44,0-2.16a2.84,2.84,0,0,0-.46-1.7.89.89,0,0,1,0-1,2.48,2.48,0,0,0,.47-1.32c0-1.44,0-2.88,0-4.32a2.94,2.94,0,0,0-.46-1.33.93.93,0,0,1,.06-1,2.73,2.73,0,0,0,.4-1.7c0-3.72,0-7.44.05-11.16q0-8.81,0-17.63a4.14,4.14,0,0,1,.53-2.4,1.57,1.57,0,0,0-.1-1.7,1.28,1.28,0,0,1,0-1.63,2.2,2.2,0,0,0,.27-1.38c0-4.08,0-8.16,0-12.24q0-19.78.05-39.59c0-6.83,0-13.67,0-20.51,0-2.76,0-5.52,0-8.28a2.87,2.87,0,0,0-.45-1.69.87.87,0,0,1,0-1,2.83,2.83,0,0,0,.45-1.7c0-2.52-.09-5,0-7.56a3.05,3.05,0,0,0-1.34-2.75c-.17-.13-.52-.27-.62-.19-1,.74-2.09.3-3.13.48a2.74,2.74,0,0,0-1,.2,4.4,4.4,0,0,1-2.76.54c-1.44,0-2.88,0-4.32,0a2.49,2.49,0,0,0-1.33.45,1.93,1.93,0,0,1-2-.09,4.07,4.07,0,0,0-1-.25c-.92.79-2,.54-3.09.58s-2.16,0-3.24.05a10.26,10.26,0,0,0-2.15,0,7.33,7.33,0,0,0-1.92.91,3,3,0,0,1-3.05.05,5,5,0,0,0-3.14-.14,1.75,1.75,0,0,0-1.09,1.31q0,7,0,14v29.87q0,11.7,0,23.39,0,6.66,0,13.32c0,7.91,0,15.83,0,23.75a2.31,2.31,0,0,0,.79,1.89,2.31,2.31,0,0,1,.63,2,1.94,1.94,0,0,1-.48,1.3,10.19,10.19,0,0,1-3.72,2.71H378.83c-.72,0-1.44,0-2.16,0a1.8,1.8,0,0,1-1.19-.73,2.55,2.55,0,0,1-.35-.6c-.31-.64-.57-1.31-.91-1.93s-1.11-1-1.21-1.74a17.28,17.28,0,0,1,0-2.16q0-10.78,0-21.59c0-2.52,0-5,0-7.56a3.62,3.62,0,0,1,.42-2.06,2,2,0,0,0,.2-1c0-2,0-4.08,0-6.12a2.48,2.48,0,0,0-.4-1.35,1.66,1.66,0,0,1-.1-1.7,4.2,4.2,0,0,0,.54-2q0-18.18,0-36.35c0-5.16,0-10.32,0-15.48,0-1.52-.39-3.12.56-4.55a.79.79,0,0,0-.09-.67,2.89,2.89,0,0,1-.47-1.69c0-1.08,0-2.16,0-3.24a1.69,1.69,0,0,0-.82-1.48.94.94,0,0,0-1-.2,3.57,3.57,0,0,1-2,.57c-1.44,0-2.88,0-4.32,0a3.77,3.77,0,0,1-1.36-.37,4.31,4.31,0,0,0-3.77.21.52.52,0,0,1-.34.08,5.06,5.06,0,0,1-.67-.17c-.22-.07-.52-.29-.63-.21-1.22.84-2.58.42-3.86.42-12.47,0-24.95,0-37.42,0-7.08,0-14.16,0-21.23,0-2,0-4.08,0-6.12,0a3,3,0,0,0-1.7.45.83.83,0,0,1-1,0,2.83,2.83,0,0,0-1.7-.45c-4.43,0-8.87,0-13.31,0h-5a3.83,3.83,0,0,0-2.06.44,3.41,3.41,0,0,1-2.1.13c-.92-.78-2-.59-3.09-.58s-1.93.05-2.88,0a3.36,3.36,0,0,0-2.05.5,1,1,0,0,1-1-.11,3,3,0,0,0-3.06,0,.48.48,0,0,1-.64-.06,1.18,1.18,0,0,0-.64-.3c-1.2,0-2.4,0-3.6,0a1.15,1.15,0,0,0-.66.23,3.75,3.75,0,0,1-2.08.39,3.09,3.09,0,0,1-2-.49,2.2,2.2,0,0,0-1-.15c-.84,0-1.68,0-2.52,0-2.58,0-2.58-.12-2.57,2.49q0,23,0,46.07,0,19.62,0,39.23,0,9.18,0,18.35a2.89,2.89,0,0,0,.58,2c.34.41.19.92.25,1.39a2.22,2.22,0,0,1-1.35,2.63c-1,.33-1.38,1.41-2.39,1.5s-1.92,0-2.88,0c-6.6,0-13.2,0-19.79,0a3,3,0,0,1-2.91-1.68,12.08,12.08,0,0,0-1.35-2.07,1.81,1.81,0,0,1-.34-1q-.07-1.8-.06-3.6,0-16.38.08-32.75,0-3.42,0-6.84a3.59,3.59,0,0,1,.49-2,1.56,1.56,0,0,0,0-1.7,1.28,1.28,0,0,1-.08-1.63,2.19,2.19,0,0,0,.3-1.37c0-3.84,0-7.68,0-11.52q0-18.72,0-37.43c0-2.52-.08-5,.08-7.55a2.07,2.07,0,0,0-1.63-2.33,2.26,2.26,0,0,0-1.73,0,3.35,3.35,0,0,1-1.33.46c-1.44,0-2.88,0-4.32,0a2.22,2.22,0,0,1-1-.29,3,3,0,0,0-1.37-.36c-3.24,0-6.47,0-9.71,0a2.91,2.91,0,0,0-1.36.37,5.29,5.29,0,0,1-3.15.19c-.81-.69-1.8-.51-2.75-.51h-7.2c-.83,0-1.68-.07-2.51,0s-1.48.74-2.37.71c-.34,0-.63.4-.64.72,0,1.2,0,2.4,0,3.6q0,27.16,0,54.34,0,22,0,43.91,0,16.2,0,32.39v1.44a15.78,15.78,0,0,0,.07,3.23,12,12,0,0,0,1.25,2.54,2,2,0,0,1-.41,2c-.42.43-.84.85-1.29,1.25s-1.08.95-1.61,1.41h-4.72a3.31,3.31,0,0,0-2.07.42c-.2.15-.4.06-.63-.11a2.26,2.26,0,0,0-1.38-.29l-12.59,0c-1,0-1.92,0-2.88,0a1.93,1.93,0,0,1-1.72-1.09,14.73,14.73,0,0,1-.77-1.6c-.1-.21-.13-.51-.29-.64-1.15-.95-1.19-2.2-1.18-3.57,0-7.19,0-14.39,0-21.59,0-2.76,0-5.52,0-8.28a3.2,3.2,0,0,1,.49-1.68.9.9,0,0,0-.07-1,1.15,1.15,0,0,1-.23-1.32,2.49,2.49,0,0,0,.48-1.32c0-1.2,0-2.4,0-3.6a2.11,2.11,0,0,0-.29-1,2.18,2.18,0,0,1,.23-2.65.91.91,0,0,0,.11-.34l-.06-.79c0-.6,0-1.2,0-1.8q0-25.52,0-51a4.6,4.6,0,0,1,.6-3.09,1.1,1.1,0,0,0,0-1,4.21,4.21,0,0,1-.58-2.74q0-13.65,0-27.32c0-.83,0-1.68.05-2.51a2.22,2.22,0,0,1,.28-1,2,2,0,0,0,0-2.34,2.33,2.33,0,0,1-.28-1.37c0-1.2,0-2.4-.05-3.59a.78.78,0,0,0-.7-.7.79.79,0,0,1-.69-.69,11.9,11.9,0,0,1-.05-1.79V759.53q0-15.1,0-30.2a2.2,2.2,0,0,1,.36,0,2.37,2.37,0,0,0,2.57-1.49c.09-.21.21-.53.37-.57.86-.22,1.36-.94,2-1.4a9.16,9.16,0,0,1,1.26-.61,7,7,0,0,0,2.1-1.3,3.53,3.53,0,0,1,2.18-1.1,3.33,3.33,0,0,0,2.36-1.44,11.85,11.85,0,0,0,1-1.44c.76-.15,1.15-.88,1.78-1.15a10.88,10.88,0,0,0,3-2.45c.92-.89,1.39-2.21,2.68-2.74a1,1,0,0,0,.48-.52,2.68,2.68,0,0,1,1.27-1.65c.73-.3,1-.92,1.47-1.45,1-.22,1.51-1.1,2.2-1.73a8.45,8.45,0,0,1,1.68-1.31,39.71,39.71,0,0,0,6.45-3.64c1.64-.46,2.75-1.83,4.27-2.47.82-1.08,2.28-1.22,3.18-2.24a3.63,3.63,0,0,1,1.86-1,9,9,0,0,0,2-.62,5,5,0,0,1,1.75-.17c.36,0,.72,0,1.08,0a1.64,1.64,0,0,1,1.25.57c.34.32.71.62,1,.85,1,0,1.82,0,2.65,0a3,3,0,0,0,1-.23,4.33,4.33,0,0,1,4.09.08c.62.35,1.4.12,2,.59s1.62.29,2.44.33a3.74,3.74,0,0,1,2,.51,1.4,1.4,0,0,0,.68.17c1.28.14,2.63-.18,3.83.62.25.17.69.08,1.05.08l4.67,0a5,5,0,0,0,3.08-.64c1.13.12,1.92-.94,3-.85a17.34,17.34,0,0,0,4.81-3,19.56,19.56,0,0,0,2.09-2.84,3.49,3.49,0,0,0,1-2.22,3.7,3.7,0,0,0,.64-2.72h61.64c3.23,0,6.45,0,9.68-.06a4.81,4.81,0,0,1,1.73.22,5.85,5.85,0,0,0,2.37.6,2.38,2.38,0,0,1,1,.36A5.42,5.42,0,0,0,303.07,689.69ZM459.31,826.17h.07v-10.8q0-11,0-21.94,0-4.68,0-9.36c0-.46-.67-1-.95-.74-.77.71-1.84.43-2.67.94a6.24,6.24,0,0,1-4,1.16,1.9,1.9,0,0,0-1,.32,2.66,2.66,0,0,1-1.37.32c-.72,0-1.44,0-2.16.09a1.32,1.32,0,0,0-.65.26c-.89.64-1.69,1.31-1.57,2.61.09,1.07,0,2.16,0,3.23a2.44,2.44,0,0,0,.29,1,2.64,2.64,0,0,1,.32,1.37c0,1,0,1.92,0,2.88q0,21.4,0,42.82c0,1.29.34,2.63-.53,3.82a.75.75,0,0,0,.09.67,3,3,0,0,1,.47,1.69c0,1.32,0,2.64,0,4q0,8.82,0,17.63a2.82,2.82,0,0,1-.41,1.7.86.86,0,0,0,0,1,3,3,0,0,1,.44,1.7q0,4.66,0,9.35,0,16.9.1,33.82,0,5.4,0,10.79a2.28,2.28,0,0,0,.27,1.38,1.35,1.35,0,0,1,0,1.64c-.76,1.3.15,2.25.78,3.22.09.15.42.21.64.19a2.26,2.26,0,0,0,1-.22,1.38,1.38,0,0,1,1.65,0,1.88,1.88,0,0,0,1,.28q3.41,0,6.83,0a.76.76,0,0,0,.6-.33c.27-.9.89-1.63.87-2.68-.07-5.87-.06-11.75-.07-17.63,0-3.6,0-7.19,0-10.79a2.85,2.85,0,0,0-.39-1.71,1.79,1.79,0,0,1,0-2,2.43,2.43,0,0,0,.34-1.37q0-11.68,0-23.38a4.8,4.8,0,0,0-.57-2.4,1.68,1.68,0,0,1,.05-1.37,4.08,4.08,0,0,0,.48-2.05q0-9.7,0-19.42Zm-316,96.07h0v8.63a2.88,2.88,0,0,0,0,.72,2,2,0,0,0,.33.63,1.77,1.77,0,0,0,2.24.53c.46-.2.83-.35,1.28,0a1.22,1.22,0,0,0,.67.2l7.56,0a.9.9,0,0,0,.83-.94c0-.84.08-1.68.08-2.52q0-15.65-.06-31.3,0-17.45,0-34.9c0-3.12,0-6.23.05-9.35a2.41,2.41,0,0,1,.23-1.39,2.06,2.06,0,0,0,.09-2.35,2,2,0,0,1-.31-1c0-1.68,0-3.36,0-5a3,3,0,0,1,.41-1.34,2.74,2.74,0,0,0,0-2.42,4.18,4.18,0,0,1-.41-2.07c0-5.4,0-10.8,0-16.19,0-1.64-.46-3.37.6-4.89l0-2.51c-.9-1.17-.55-2.53-.58-3.82a2,2,0,0,1,.3-1,2.46,2.46,0,0,0,.32-1.37c-.09-1.41.32-2.87-.57-4.19a2.15,2.15,0,0,1-.09-1.06c0-.83.05-1.68,0-2.51a3.28,3.28,0,0,1,.52-2,.88.88,0,0,0-.13-1,1.14,1.14,0,0,1-.2-1.31,2.44,2.44,0,0,0,.45-1.33,8.66,8.66,0,0,1,0-1.44c.19-1.79-.79-2.52-2.23-2.45-1.08.05-2.16.07-3.24,0a3.34,3.34,0,0,0-2,.5,1,1,0,0,1-1-.11,2.22,2.22,0,0,0-1-.39c-1.43-.05-2.87-.05-4.31,0-.18,0-.41.27-.5.47a1.66,1.66,0,0,0-.07.71l0,38.5q0,17.82,0,35.62,0,12.06,0,24.11a2.31,2.31,0,0,0,.34,1.36,2.2,2.2,0,0,1,.3,1.37c0,1.44,0,2.88,0,4.32,0,1.17.28,2.42-.58,3.45a4.06,4.06,0,0,0,.29,2.45,2,2,0,0,1,.28,1c0,1.68,0,3.36,0,5a2.71,2.71,0,0,1-.45,1.33.91.91,0,0,0,0,1,2.74,2.74,0,0,1,.46,1.69C143.26,916.48,143.27,919.36,143.27,922.24Zm83.47-109h0V794.17a13.18,13.18,0,0,0-.07-1.78.71.71,0,0,0-.46-.49,13.1,13.1,0,0,1-2-.56,8.94,8.94,0,0,0-2.49-.15c-1.92,0-3.83,0-5.75,0a1.91,1.91,0,0,0-.72,0,11,11,0,0,0-1.89.92c-.45.3-.26.88-.26,1.34,0,1.68,0,3.36,0,5a3.53,3.53,0,0,1-.51,2.39.85.85,0,0,0,0,.68,3.37,3.37,0,0,1,.51,1.32c0,3.36,0,6.72,0,10.07a2.21,2.21,0,0,1-.21,1,1.4,1.4,0,0,0-.07,1.65,2,2,0,0,1,.29,1c0,6,0,12,0,18a2.55,2.55,0,0,1-.44,1.34.91.91,0,0,0,0,1,2.94,2.94,0,0,1,.44,1.69c0,4.08,0,8.16.05,12.24l0,35.26c0,1.92,0,3.84,0,5.76a2.29,2.29,0,0,0,.29,1.38,1.3,1.3,0,0,1,0,1.64,2.64,2.64,0,0,0-.26,1.38,1.94,1.94,0,0,0,1.86,2.14c3.24,0,6.48,0,9.72,0a2.87,2.87,0,0,0,.72,0,1.46,1.46,0,0,0,.61-.36,2.19,2.19,0,0,0,.72-1.58c0-1.44,0-2.88,0-4.32q0-12.42,0-24.83a3.9,3.9,0,0,0-.55-2.4.88.88,0,0,1,.12-1,2.1,2.1,0,0,0,.4-1.34c0-7.92,0-15.84,0-23.75a4.26,4.26,0,0,0-.56-2.76.74.74,0,0,1,0-.68,3.72,3.72,0,0,0,.53-2.39Q226.74,823.14,226.74,813.25Zm154.85,75.08h0V897c0,.24,0,.48,0,.72a.94.94,0,0,0,.69.71c1.19,0,2.39.06,3.59.06,2.64,0,5.27,0,7.91,0a1,1,0,0,0,.7-.7c0-.71.09-1.43.09-2.15,0-2.63,0-5.27,0-7.91,0-6.71,0-13.42,0-20.13,0-4.31,0-8.63,0-12.94a2.18,2.18,0,0,1,.24-1.38,1.27,1.27,0,0,0,.07-1.63,2,2,0,0,1-.29-1c0-3.12,0-6.24,0-9.35a2.55,2.55,0,0,1,.44-1.34.86.86,0,0,0,0-1,3.29,3.29,0,0,1-.48-2c0-3.11,0-6.23,0-9.34,0-2.4,0-4.8,0-7.19a4.21,4.21,0,0,1,.44-2.07,2.58,2.58,0,0,0,0-2.4,3.53,3.53,0,0,1-.43-1.71c0-1.08,0-2.15,0-3.23a3.82,3.82,0,0,1,.45-2.06,3.86,3.86,0,0,0,.13-2.11c-.74-.93-.55-2-.56-3.1q0-3.4,0-6.83c0-1.08,0-2.16,0-3.23,0-1.64-.21-1.75-1.87-1.7-1.08,0-2.16,0-3.24,0a6.35,6.35,0,0,1-1.07,0,3,3,0,0,1-1-.32,2.55,2.55,0,0,0-1.36-.36c-.84,0-1.68,0-2.52,0a5.38,5.38,0,0,1-1-.24A1.18,1.18,0,0,0,380.9,792c0,.36,0,.72,0,1.08V827.6q0,14.21,0,28.4a4.23,4.23,0,0,0,.48,2.41,2.22,2.22,0,0,1,.16,1c0,1.56,0,3.11,0,4.67,0,1.06.22,2.18-.57,3.1a4,4,0,0,0,.27,2.44,2.07,2.07,0,0,1,.29,1c0,1.79,0,3.59,0,5.39a1.27,1.27,0,0,1-.24.66,1.23,1.23,0,0,0,0,1.62,2.18,2.18,0,0,1,.29,1.38C381.59,882.58,381.59,885.46,381.59,888.33Z"/><path d="M635.78,450.61c-.36,0-.83-.14-1,0a15.44,15.44,0,0,1-1.84,1.07,1.68,1.68,0,0,1-1,.33c-1.43,0-2.86,0-4.24,0a14.66,14.66,0,0,1-1.18.94c-.59.38-.58.57-1.61,0-.27-.15-.42-.15-.62.08a1.22,1.22,0,0,1-.61.37c-.8.16-1.67-.18-2.4.45s-1.65.14-2.35.75a1.82,1.82,0,0,1-1,.21,4.33,4.33,0,0,0-2.73.65,1.41,1.41,0,0,1-1,.17c-1-.2-1.69.91-2.72.73a1,1,0,0,0-.66.21c-.77.54-1.53,1.1-2.28,1.67-.08.06-.05.25-.11.34-.44.59-.51.66-1.16.3a2.31,2.31,0,0,0-2.38-.08,11.52,11.52,0,0,0-1.25.67,8.58,8.58,0,0,1-1.43,1.05c-.53.2-1.19,0-1.7.42a2.15,2.15,0,0,1-1.71.31.83.83,0,0,0-.35,0,1.55,1.55,0,0,0-.63.25c-.86.83-1.71.59-2.61.07-.47-.27-.78-.1-1.15.44a6.58,6.58,0,0,1-.58.87,1.76,1.76,0,0,1-1.25.62h-3.28l-2.49,1.25a3.14,3.14,0,0,0-2.73-.34c-.85.74-2.11.39-3,1.13-.84.07-1.36.89-2.31.84-.66,0-1.31.46-2,.61a2.8,2.8,0,0,0-1.23.64c-.09.08-.22.21-.29.19-1.29-.34-1.88.9-2.87,1.24-.61-.4-1.23-.8-1.92-.13-.38.36-.89.29-1.34.43a1,1,0,0,0-.63.77c-.14.41-.33.4-.8.24a6.44,6.44,0,0,0-1-.3,1,1,0,0,0-.95.38c-.26.4-.46.92-1,.9a6.1,6.1,0,0,0-3,1,4.77,4.77,0,0,1-2,.62c-.75,0-1.13.81-1.74,1.16a1.9,1.9,0,0,0-1.67-.21c-1,.4-1.74,1.17-2.88,1.26a6.63,6.63,0,0,0-2.54,1.19c-.91.53-1.94.88-2.88,1.37-.64.34-1.44,0-2,.56s-1.1.34-1.68.43-1.33.52-2,.58a3.17,3.17,0,0,0-1.84,1c-.76.65-1.88.4-2.61,1.11-.11.1-.48,0-.67-.08a1.26,1.26,0,0,0-1.29-.13c-1,.44-1.7,1.35-2.91,1.22-.19,0-.44.19-.6.35a2.74,2.74,0,0,1-2.22.94,3.63,3.63,0,0,1-2.68.72,3,3,0,0,0-2.65.7c-.21.19-.69.09-1,.12a3.46,3.46,0,0,0-2.66.83,6.45,6.45,0,0,1-2.92,1.2,2.55,2.55,0,0,0-1,.24,3.56,3.56,0,0,1-2,.58,3.22,3.22,0,0,0-1.71.38c-.51.29-1.14.36-1.64.65a1.74,1.74,0,0,1-1.71,0,1,1,0,0,0-1.3.16,7.13,7.13,0,0,1-2.73,1.63,1.6,1.6,0,0,1-1.7-.13,2.38,2.38,0,0,0-.6-.34.46.46,0,0,0-.59.28c-.18.44-.3.9-.45,1.34-.41.14-.82-.3-1.28.09a2.49,2.49,0,0,1-2.27.78,2.16,2.16,0,0,0-1,.16c-.68.22-1.35.49-2,.71a8,8,0,0,1-2.37.65,6.43,6.43,0,0,0-2,.64,4.21,4.21,0,0,1-1.4.21,5.87,5.87,0,0,0-4,1.2c-.6.45-.81.78-.59,1.48a6.45,6.45,0,0,1,.68,2.74,3.75,3.75,0,0,0,.3,1.4,20.69,20.69,0,0,0,1.35,3.67c.66,1.28,1,2.68,1.55,4,.46,1.08.44,2.31.94,3.43a8.7,8.7,0,0,1,.3,2.48c.1.83.5,1.57.6,2.42.26,2.13.82,4.22.91,6.37,0,.12,0,.28.05.35.79.92.22,2.16.71,3.1.58,1.1.42,2.36.91,3.46a5.75,5.75,0,0,1,.24,3.18,21.79,21.79,0,0,1-1.31,4.08c-.3.87-1.25,1.11-1.55,1.92-.18.13-.45.22-.54.4a6.49,6.49,0,0,1-1.48,2.5H452.39c-.36,0-.71,0-1.07,0-.13-1,.77-1.74.78-2.73s.11-1.92.17-2.87a5.52,5.52,0,0,1,.1-.71c.62-3,.22-6,.28-8.94-.7-1.59-.43-3.3-.59-5a7.34,7.34,0,0,0-.23-1.77,13.37,13.37,0,0,1-.52-3.18,20.62,20.62,0,0,0-.48-2.81c-.23-.91-.06-1.92-.23-2.86a39.11,39.11,0,0,1-.73-5,4,4,0,0,0-.35-1,1.88,1.88,0,0,1,0-1.4,2.08,2.08,0,0,0,.13-1.35c-.46-2.1-.55-4.25-1-6.36a3.66,3.66,0,0,1,.05-1.77c.21-.65,1-.53,1.51-.8a21.48,21.48,0,0,1,3.94-1.62,6.89,6.89,0,0,0,2.27-1.05,6.42,6.42,0,0,1,1.94-.86,6.55,6.55,0,0,0,3.8-2.52,12.67,12.67,0,0,0,3.71-5.61,13.83,13.83,0,0,1,.91-1.95,11.74,11.74,0,0,0,1.1-3.38,26.44,26.44,0,0,1,.63-3.14c.35-1.13.19-2.37.72-3.49.27-.59-.17-1.15-.34-1.72a1.06,1.06,0,0,1,.52-.86,4.39,4.39,0,0,1,.69-.18c1.43-.13,2.86-.23,4.29-.34a31,31,0,0,1,4.62-.43,5.52,5.52,0,0,0,1.06-.15,1.69,1.69,0,0,0,1.31-1,35.06,35.06,0,0,1-1.9-4.26c-.34-.89-.76-1.75-1.17-2.61a1.14,1.14,0,0,0-1.12-.74c-1.55.07-3.11.12-4.66.28a41.6,41.6,0,0,0-4.59.67c-.67.15-1.26.6-2,.78a3.42,3.42,0,0,0-2.55,2.72,4.76,4.76,0,0,0-.23,1.39,8.13,8.13,0,0,1-.6,3.15,29.93,29.93,0,0,0-1.75,7.65,10.88,10.88,0,0,1-1.09,3.75c-.45,1-1,1.93-1.44,2.9a4.74,4.74,0,0,1-3.21,2.66,4.81,4.81,0,0,0-1.94.87,3.13,3.13,0,0,1-1.62.66,6.62,6.62,0,0,0-1.35.43c-2.91,1.1-2.91,1.1-6.27,1.15a2.36,2.36,0,0,0-.6.18c-.6.65-1.13,1.3-1.74,1.87a2.72,2.72,0,0,0-.81,2.62,7.21,7.21,0,0,0,.26,1.4,7.82,7.82,0,0,1,.4,3.18,3.11,3.11,0,0,0,.2,1.76,5.55,5.55,0,0,1,.49,2.44,22.7,22.7,0,0,0,.26,4.3,42.84,42.84,0,0,1,.57,4.62,4.91,4.91,0,0,0,.18,1.41,7,7,0,0,1,.46,2.81,6.92,6.92,0,0,0,.14,1.78,17.39,17.39,0,0,1,.57,5,4.5,4.5,0,0,0,.22,1.78c.53,1,.33,2.1.48,3.16.31,2.24-.05,4.54.57,6.76a1.77,1.77,0,0,1,0,1.07,9.37,9.37,0,0,0-.49,4.6,4.94,4.94,0,0,1-1.38,3.58c-1.25,1.41-1.85,1.3-2.85-.05a4.6,4.6,0,0,1-.86-1.95,21,21,0,0,0-1.89-5.75,4.63,4.63,0,0,1-.4-1.36,36.8,36.8,0,0,0-.56-3.89,11.5,11.5,0,0,1-.22-3.22c0-1.11-.82-2-.71-3.12s-.49-2.32-.62-3.51c-.08-.7-.44-1.36-.55-2.06a15.18,15.18,0,0,1-.17-2.52c0-1.21-.69-2.26-.65-3.5s-.15-2.63-.24-3.94a1,1,0,0,0-.05-.35c-.56-1.11-.16-2.42-.66-3.51a11.18,11.18,0,0,1-.54-3.88,2,2,0,0,0-.18-.69,7.81,7.81,0,0,1-.66-3.15c-.09-1.07-.68-2-.53-3.15a3.43,3.43,0,0,0-1.06-2.59,5.28,5.28,0,0,0-2.77-1.54.94.94,0,0,0-.7.09c-.88.6-1.85,1.12-2.1,2.32-.14.68-.6,1.28-.08,2a3.23,3.23,0,0,1,.26,1.39,6.47,6.47,0,0,0,.13,1.78c.67,1.56.38,3.31,1.08,4.87a9.69,9.69,0,0,1,.29,2.13c.13.7.43,1.37.5,2.08.16,1.55.07,3.14.37,4.65a49,49,0,0,1,.67,5c.05.59-.17,1.26,0,1.78.6,1.48.41,3.08.78,4.57s.29,3.1.53,4.63a4.59,4.59,0,0,0,.15,1.06,9.88,9.88,0,0,1,.51,3.53,17,17,0,0,0,.19,2.87,9,9,0,0,1,.57,3.15c-.15,1.12.68,2.06.49,3.17a.92.92,0,0,0-.58.8c-.05.93-.07,1.87-.1,2.8h-7a21.17,21.17,0,0,1-.87-4.92,8.77,8.77,0,0,0-.48-3.87,21.67,21.67,0,0,0-.79-4.93,29.19,29.19,0,0,0-1-7.08,45.11,45.11,0,0,0-.86-4.55c-.34-1.06-.23-2.15-.56-3.17a14.75,14.75,0,0,1-.61-3.15c-.08-.83-.11-1.67-.23-2.5s-.35-1.61-.49-2.42a37.88,37.88,0,0,1-.93-6c0-.1-.12-.21-.16-.32a4.39,4.39,0,0,1,0-3.48,2.33,2.33,0,0,0-.33-2.37,16.35,16.35,0,0,0-1.63-1.9,2.06,2.06,0,0,0-1-.43,4,4,0,0,0-2.13.06,1.87,1.87,0,0,0-.88.55,3.06,3.06,0,0,0-.78,2c0,1.19-.05,2.39,0,3.58a3.84,3.84,0,0,0,.21,1.4,8.47,8.47,0,0,1,.19,4.6c0,.21-.18.48-.1.63.61,1.21.27,2.62.86,3.82.5,2.93,1.68,5.71,1.85,8.71.72,1.67.46,3.56,1.2,5.22a31.11,31.11,0,0,1,.71,6.74c-.13,2.15,0,4.31.08,6.46a9.77,9.77,0,0,0,.24,2.85c-.29.54-.29.54.1,1a8.68,8.68,0,0,1,.26,2.78c-.32,0-.55.26-.6.75l-5.61-.07a22.36,22.36,0,0,1-1.34-4,12.51,12.51,0,0,1-.33-2.48,17.3,17.3,0,0,0-.2-1.78c-.27-1.05-.63-2.07,0-3.1a14.74,14.74,0,0,0-.17-3.2,13.79,13.79,0,0,1-.36-3.18c0-1.07-.16-2.15-.24-3.22-.62-1-.37-2.1-.58-3.14a24.15,24.15,0,0,1-.75-3.13c-.08-1.31-.91-2.47-.78-3.83a20.53,20.53,0,0,1-.72-4.93c-.58-1.48-.31-3.1-.74-4.58a39.73,39.73,0,0,1-.7-5c-.13-.81-.27-1.61-.46-2.42a6.28,6.28,0,0,0-3.2-4.09.94.94,0,0,0-.65-.15,7.94,7.94,0,0,0-1.64.7,2.09,2.09,0,0,0-1.11,2.09c.13,1.54.56,3,.68,4.58a43.37,43.37,0,0,0,.79,6.73c.27,1.17.15,2.37.42,3.55a17,17,0,0,1,.38,3.56c0,1.22.61,2.31.64,3.51a31.62,31.62,0,0,0,.69,4.93c.21,1.05,0,2.19.31,3.2s.32,2.36.63,3.52c.65,2.42.95,4.91,1.39,7.37a18.44,18.44,0,0,0,1,4.15,6.44,6.44,0,0,1,.38,1.74c.07.59.21,1.17.32,1.75-.93,1.16-1.31,1.23-2.58.51-.2-.11-.41-.2-.62-.3-.17-.31-.32-.64-.51-.94a5,5,0,0,1-.89-3c.18-2.88-.68-5.68-.87-8.53a5,5,0,0,0-.5-1.32,11.94,11.94,0,0,1-.75-2,11.88,11.88,0,0,0-.78-3.47c.05-1.94-.58-3.77-.86-5.66a13.86,13.86,0,0,0-1.27-4.07c-.62-1.29-1.22-2.59-1.82-3.89a2.41,2.41,0,0,1-.35-1c.06-1.36-.58-2.56-.74-3.86a22.53,22.53,0,0,0-.33-3.2,17.34,17.34,0,0,1-.47-3.17c-.18-2-.78-4-.8-6a12.48,12.48,0,0,1-.66-3.87,3.2,3.2,0,0,0-.1-.71,5.72,5.72,0,0,1-.5-2.08c0-.71-.16-1.42-.23-2.07.72-1.45,1.44-2.82,2.07-4.22a4.58,4.58,0,0,1,1.3-2.1,8.46,8.46,0,0,1,2.31-.89,4.24,4.24,0,0,1,1.07-.14,2.63,2.63,0,0,0,1.3-.54c.59-.4,1.22-.75,1.83-1.12a18.41,18.41,0,0,0,2.13-1.31,15.37,15.37,0,0,1,5-2.72,2.27,2.27,0,0,0,.93-.5,21.56,21.56,0,0,1,2.89-2.08,21.25,21.25,0,0,1,3.41-1.92,12.32,12.32,0,0,0,2.9-2.09,27.76,27.76,0,0,1,6.74-4.7,12.16,12.16,0,0,0,3-2,11.87,11.87,0,0,1,2.63-1.85,35.89,35.89,0,0,0,7-4.89c.34-.32.7-.76,1.12-.85a5.74,5.74,0,0,0,2.37-1.51,18.43,18.43,0,0,1,2.93-2.06c.85-.46,1.64-1,2.44-1.49a22.18,22.18,0,0,1,3.08-1.84,4,4,0,0,0,2.39-2.52,3,3,0,0,1,1-1.42,4.1,4.1,0,0,1,1.7-.48c.58-.09,1.19-.05,1.79-.11a49.7,49.7,0,0,0,6.41-.64c1.37-.33,2.84-.2,4.21-.76a4.67,4.67,0,0,1,1.42-.13c.83-.07,1.67-.11,2.49-.25a2.26,2.26,0,0,0,.93-.49c.15-.11.35-.42.29-.51-.86-1.45-1.2-3.11-1.91-4.62a4.3,4.3,0,0,0-.38-.6c-.2-.31-.91-.67-1.24-.49a3.86,3.86,0,0,1-1.73.38c-1,0-1.92.15-2.87.11s-1.79.87-2.76.22c-1.41.79-3,.38-4.53.84a21.36,21.36,0,0,1-5,.52,1.43,1.43,0,0,0-.34.09,1.85,1.85,0,0,1-1.71,0,3.56,3.56,0,0,0-1.05-.14,1.53,1.53,0,0,0-1.34.35c-1.91,1.82-4.19,3.17-6.07,5a11.21,11.21,0,0,1-3.24,2.21,6.87,6.87,0,0,0-1.27.64c-1.45,1.06-2.86,2.16-4.28,3.25-.57.43-1.16.84-1.71,1.29a10.18,10.18,0,0,1-1.9,1.63c-1.18.59-2.07,1.63-3.37,2s-2.21,1.78-3.41,2.56a5.92,5.92,0,0,1-1.24.71,20.84,20.84,0,0,0-2.37,1.59,17.08,17.08,0,0,0-2.39,1.54c-1.23.95-2.51,1.83-3.65,2.9a5.93,5.93,0,0,1-1.77,1.21,11.18,11.18,0,0,0-4.16,2.67,3.07,3.07,0,0,1-.91.55c-2.4,1.33-4.63,2.93-6.93,4.42a3.26,3.26,0,0,1-1.92.8c-.86.52-1.9.28-2.77.68a27.24,27.24,0,0,0-3.48,1.8,8.11,8.11,0,0,0-2,2.54c-.67,1-1.41,1.94-2,3a4.53,4.53,0,0,0-.91,2.65,1.65,1.65,0,0,1-.55,1.29,2.79,2.79,0,0,0-.57,3.57c.36.75.38,1.61.75,2.39a10.48,10.48,0,0,1,.74,3.83,84.08,84.08,0,0,1,.41,9,1.55,1.55,0,0,0,0,.71,13.05,13.05,0,0,1,.49,4.61,26.67,26.67,0,0,0,.19,3.23,21.38,21.38,0,0,0,.88,2.71c.15.45.27.91.38,1.38a13.32,13.32,0,0,0,2.09,5.27,4,4,0,0,1,.71,1.62c.27,1.77,1,3.45.89,5.28a3.35,3.35,0,0,0,.18,1.41,6.31,6.31,0,0,1,.46,2.45,3.32,3.32,0,0,0,.36,1.37,15.72,15.72,0,0,1,1.09,3c.26,1.28.59,2.55.76,3.84a59.77,59.77,0,0,0,1.24,7,8.38,8.38,0,0,1,.1,1.43H374.79a1,1,0,0,1-1.1-.67c-.31-.76-.73-1.48-1.08-2.22a2.32,2.32,0,0,1-.35-1A5.45,5.45,0,0,0,370.9,536a3,3,0,0,1-.87-1.88,1.82,1.82,0,0,0-.49-.91,5.29,5.29,0,0,1-1-1.47,2.2,2.2,0,0,0-1.23-1.24c-.1,0-.24,0-.35-.08-2.66-1.41-2.63-1.43-4.19-4.48a4.7,4.7,0,0,1-.64-2.34c0-1.56,0-3.11,0-4.67a.7.7,0,0,0-1.06-.54c-.32.15-.6.37-.93.51a.48.48,0,0,1-.62-.23c-1.09-1.94-1.9-4-3-6a6.83,6.83,0,0,0-1.25-3.25c-.39-.74-.19-1.6-.76-2.33a13.36,13.36,0,0,1-1.25-2.51c-.37-.74-.8-1.45-1.11-2.2s-.94-1.41-.78-2.32c-.55-.76-.67-1.78-1.43-2.42a4.89,4.89,0,0,1-.89-1.51,4.83,4.83,0,0,1-.57-1.65c-.1-.56-.51-1.06-.63-1.62a17.73,17.73,0,0,1-.08-1.79,5.23,5.23,0,0,0-.33-1,4.08,4.08,0,0,1-.32-1c-.05-.83,0-1.67,0-2.51a2.89,2.89,0,0,0-.45-1.69,2.13,2.13,0,0,1-.26-1c-.06-1.29.2-2.64-.7-3.77,0-.48,0-1-.06-1.44A.86.86,0,0,0,345,478a1.31,1.31,0,0,1-.76-.68c-.22-.41-.65-.84-.63-1.25.05-1-.7-1.74-.83-2.67a1.94,1.94,0,0,0-.26-1,8,8,0,0,1-1.44-2c-.09-.25-.6-.31-.88-.51a2,2,0,0,1-1-1.76,7.67,7.67,0,0,0,0-1.07,2.11,2.11,0,0,0-.18-1c-.76-1.32-1.37-2.72-2-4.11a3.14,3.14,0,0,0-.67-.84,2.27,2.27,0,0,1-.73-1.92,1.72,1.72,0,0,0-.19-1,3.88,3.88,0,0,1-.59-2c-.62-.64-.47-1.59-.86-2.28a4.36,4.36,0,0,1-.56-2,3.43,3.43,0,0,1-.67-2.69c0-2.4,0-4.79,0-7.18,0-.36.07-.72.08-1.08.1-2.63,0-5.28.32-7.88s.21-5.26.34-7.89.1-5,.12-7.55.07-5.28,0-7.91c-.06-1.48.57-2.77.77-4.17a3,3,0,0,0,.61-2c0-1.19.05-2.39.07-3.58a7.69,7.69,0,0,1,.46-2.8,4.85,4.85,0,0,0,.27-2.11c-.22-2.63,0-5.26,0-7.89,0-2.15.06-4.3.05-6.45,0-2.88-.14-5.75-.08-8.62a13.38,13.38,0,0,0-1-5.57,2.86,2.86,0,0,1-.37-1c0-2.23-1-4.15-1.75-6.15a6.32,6.32,0,0,1-.56-2,2.93,2.93,0,0,0-.5-1.69,21.16,21.16,0,0,1-1.28-2.16,2.75,2.75,0,0,1-.36-1,4.17,4.17,0,0,0-.54-2.39,10.54,10.54,0,0,1-.95-2.68,23.13,23.13,0,0,0-1.11-2.23,2.57,2.57,0,0,0-.14-3,8.55,8.55,0,0,0-1.11-3,3.26,3.26,0,0,1-.3-1.38,5,5,0,0,0-.59-2.77,27.29,27.29,0,0,1-.34-5.34,5.08,5.08,0,0,0-.12-2.48c.15-1.42.29-2.84.44-4.26a11.39,11.39,0,0,0,.61-5.3,2.64,2.64,0,0,1,.68-2,1.91,1.91,0,0,0,.46-1.33,9.74,9.74,0,0,1,0-1.43,4,4,0,0,1,.3-1.4c1.18-2.36,1.57-5,2.37-7.46a3,3,0,0,0,.22-.68c.06-1.29-.12-2.64.87-3.71.29-1.15.5-2.33.9-3.45a28,28,0,0,0,1.29-2.91c.19-.81,1-1.35.9-2.3-.06-.73.61-1.25.92-1.88a2.77,2.77,0,0,0,.24-1,3.11,3.11,0,0,1,.66-1.63,16.67,16.67,0,0,0,2.3-5.17,5.64,5.64,0,0,1,.56-1.68,4.24,4.24,0,0,0,.78-2.35,3.16,3.16,0,0,1,.8-2,2.64,2.64,0,0,0,.76-1.95,1.25,1.25,0,0,1,.11-.7c1.07-1.6,1.32-3.57,2.28-5.2a3.24,3.24,0,0,0,.57-2c-.13-1.13.52-2.08.56-3.15a.46.46,0,0,1,.14-.33c1-.74.7-2,1.12-2.93a5.32,5.32,0,0,0,.36-2.82c.9-1.56.59-3.25.57-4.91,0-1.31.41-2.6.15-3.92.76-1.31.54-2.79.7-4.2a8.46,8.46,0,0,1,.41-1.35c.39-1.51,1.42-2.74,1.76-4.27a2.47,2.47,0,0,1,.8-1.16c.53-.49,1.16-.85,1.7-1.33a9.45,9.45,0,0,0,.91-1.08,3.85,3.85,0,0,1,1.23-.62,4.26,4.26,0,0,0,2.48-1.15,9.89,9.89,0,0,1,2.15-1.1c.9.21,1.47-.76,2.29-.7s1.28-.54,1.92-.78a16.31,16.31,0,0,0,2.13-1.07c.07,0,.06-.22.09-.33,2.13,0,4.28.25,6.35-.56a2.88,2.88,0,0,1,1.06-.07c1.79,0,3.58,0,5.36-.11a8.83,8.83,0,0,1,4.46,1,1,1,0,0,0,.89.48h5.88a5.8,5.8,0,0,0,1.57,1.22c.79.26,1.33,1.07,2.25,1a8.57,8.57,0,0,0,4.37,1.41,8.23,8.23,0,0,1,5,1.75,32.58,32.58,0,0,0,5.59,3.18c2,1,4.07,2,6,3.13.64.38,1.35.47,2,.82a22,22,0,0,1,2.14,1.28c.61.44,1.38.43,2,.8,3,1.79,6.16,3.1,9.08,5a10.72,10.72,0,0,0,1.61.74c2.2.93,4.18,2.28,6.42,3.12a6.32,6.32,0,0,0,2.75,1.63c1.88.53,3.27,2,5.11,2.53.76,1,2,1.27,3.07,1.69s2.28,1.27,3.5,1.79,2,1.33,3.16,1.59c1.54,1.4,3.53,2,5.32,2.91.62.33,1.34.48,2,.82a6.78,6.78,0,0,1,1.41,1.1c.72.68,1.71.8,2.51,1.34,1.49,1,3.23,1.54,4.66,2.65a5.05,5.05,0,0,0,1,.41,18.71,18.71,0,0,1,3.15,1.69,14.08,14.08,0,0,0,4.08,2.18,3.48,3.48,0,0,1,1,.49c.89.61,1.76,1.24,2.64,1.87,1.13.06,1.89,1,2.91,1.3a4.1,4.1,0,0,1,1.26.66,22.22,22.22,0,0,0,4.29,2.56c1.39.68,2.59,1.72,4.09,2.19a23.42,23.42,0,0,0,4,2.39c1.24.7,2.48,1.41,3.73,2.1s2.7,1.5,4.07,2.2a4.91,4.91,0,0,1,1.19.81,16.68,16.68,0,0,0,5.15,3.12,17.82,17.82,0,0,1,2.26,1c1.33.79,2.64,1.63,3.93,2.5S522,299,523.2,300a11.18,11.18,0,0,0,1.56.87,11.66,11.66,0,0,1,3,1.86c1.2.51,2.16,1.51,3.51,1.73l6.18,3.62c.31.18.54.51.86.63a15.27,15.27,0,0,1,3.44,1.93,34,34,0,0,1,3,1.87,2,2,0,0,0,.95.47,12.4,12.4,0,0,1,3.26,1.4,22.7,22.7,0,0,1,2.49,1.41c2.25,1.33,4.47,2.68,6.8,3.89,2,1,3.95,2.21,5.9,3.37,1.53.9,3.29,1.45,4.58,2.76,1.49.74,3,1.45,4.48,2.22,1.16.61,2.28,1.28,3.42,2a15.53,15.53,0,0,0,2.52,1.33,9.47,9.47,0,0,1,1.83,1.12,5.08,5.08,0,0,0,1.18.77c1.84.59,3.23,2,5.06,2.62,1.39,1.16,3.22,1.6,4.54,2.87,1.9.43,3.19,2.05,5,2.59a4.83,4.83,0,0,1,1.23.72,18.6,18.6,0,0,0,3,1.89A15.34,15.34,0,0,1,604,345.4a30.25,30.25,0,0,0,3.13,1.67c1.28.64,2.46,1.48,3.68,2.24s2.31,1.19,3.46,1.8,2.14,1.52,3.28,2.16a18,18,0,0,1,3.68,2.2c1.54.07,2.41,1.45,3.78,1.92s2.35,1.62,3.78,2a2.83,2.83,0,0,1,.86.64,11.82,11.82,0,0,0,1.13.88c.82.47,1.83.53,2.54,1.28a10.71,10.71,0,0,0,2.64,1.82c.83.47,1.71.84,2.52,1.34,1.12.68,2.2,1.44,3.3,2.16a6.84,6.84,0,0,0,1.89,1,5,5,0,0,1,1.24.67c2.56,1.53,5,3.18,7.7,4.54a10,10,0,0,1,1.44,1.07c.28.23.51.6.83.69,2.28.64,3.26,2.72,4.73,4.24a2.63,2.63,0,0,1,.6,1.27,5.6,5.6,0,0,0,1.15,2.6c1.11,1.27,1.88,2.76,2.88,4.1s2,2.64,3.07,4A44.06,44.06,0,0,0,670,395.4a6.47,6.47,0,0,1,.82,1.54l-.69.27c-.39.16-.64.48-.56.74.2.69.45,1.36.62,2.05a29.32,29.32,0,0,1,.91,4.55c.67,1.33.46,2.81.74,4.2a13.09,13.09,0,0,1,.44,3.53,6.86,6.86,0,0,1-.27,1.74,14.27,14.27,0,0,0-.36,3.2,11.79,11.79,0,0,1-.61,3.15,7.3,7.3,0,0,1-.73,1.61,2.92,2.92,0,0,0-.82,2.3c0,.2-.13.45-.23.66a17.44,17.44,0,0,1-.84,1.53,1,1,0,0,1-.58.36c-.48.11-1,.22-1,.81a14.61,14.61,0,0,1-.78,2.37,2.81,2.81,0,0,1-1.17,1.73,2.88,2.88,0,0,0-1,1.41.69.69,0,0,1-.16.32,19.19,19.19,0,0,0-1.6,1.39c-.4.42-.33,1.13-.83,1.54s-.71.65-1.07,1a7.18,7.18,0,0,0-.87.63c-.61.71-.94,1.73-2.09,1.78a7.86,7.86,0,0,1-2.42,1.43c-.39.13-.66.66-1.19.67a7.94,7.94,0,0,0-3.72,1.2c-.3.17-.74.39-1,.29-1.17-.48-1.84.13-2.4,1a3.22,3.22,0,0,1-1.6,1.35,6.67,6.67,0,0,0-1.38,1.1c-.38.28-.94,0-1.3.4a2.92,2.92,0,0,1-1.9.93,7,7,0,0,0-4.26,2.34A1,1,0,0,1,635.78,450.61Zm-90.21-54.43c-1.53-1.49-2.52-3.45-4.18-4.86a5.51,5.51,0,0,1-.7-.82c-1.36-1.69-3.16-2.9-4.69-4.41a3.38,3.38,0,0,0-.92-.54,34.38,34.38,0,0,0-3.89-1.83c-1.48-.5-2.77-1.38-4.23-1.9a19.4,19.4,0,0,1-4-2.31,5.26,5.26,0,0,0-1.58-.81,6.67,6.67,0,0,1-1.92-.92c-1.53-.91-3.11-1.75-4.63-2.69s-2.89-2.11-4.71-2.47a.89.89,0,0,1-.3-.19c-2.33-1.44-4.7-2.82-7.14-4.07a12,12,0,0,1-2.06-1.43c-2.5-2-5.21-3.8-7.61-6-1.32-.61-2.14-1.89-3.47-2.52s-2.09-2-3.21-2.85c-.37-.29-.79-.53-1.19-.79-2.19-1.45-4.55-2.64-6.61-4.3a4.27,4.27,0,0,0-.93-.54c-1.31-.6-2.37-1.61-3.63-2.28s-2.64-1.63-3.94-2.47a14.26,14.26,0,0,0-3.76-2,12,12,0,0,1-1.58-.83,43.63,43.63,0,0,1-4-2.45c-1.31-.8-2.79-1.33-4.12-2.11a74.72,74.72,0,0,0-6.85-3.88,3.39,3.39,0,0,1-.9-.58,17.2,17.2,0,0,0-3.37-2c-.05,0-.18,0-.23.08a.59.59,0,0,0-.15.32,2.09,2.09,0,0,0,.07.71,28.81,28.81,0,0,1,1.1,3,28.22,28.22,0,0,1,.37,3.2c.05.35.17.69.25,1a24.05,24.05,0,0,1,.76,3.5,10.71,10.71,0,0,0,1.25,4.44,2.61,2.61,0,0,1,.31,1.37,8,8,0,0,0,.32,3.2,9.05,9.05,0,0,1,.5,2.45,12.65,12.65,0,0,0,.66,3.14,9.32,9.32,0,0,1,.67,3.85,3.29,3.29,0,0,0,.31,1.74,14.44,14.44,0,0,1,.79,2.74c.33.89.59,1.8.85,2.71a3.79,3.79,0,0,1,.18,1.05c0,2,1,4,.88,6a.65.65,0,0,0,.16.32,3.14,3.14,0,0,1,.47,2.06,16.54,16.54,0,0,0,.68,4.58,18.19,18.19,0,0,1,.81,4.58,2.82,2.82,0,0,0,.19,1.41,6,6,0,0,1,.58,2.77,3.37,3.37,0,0,0,.18,1.06c.46,1,.26,2.15.62,3.15a9.52,9.52,0,0,1,.6,3.16,1.68,1.68,0,0,0,.18.69c.68,1.28.56,2.8,1.21,4.1.2.41.09,1,.31,1.38a1.06,1.06,0,0,1,.12,1c-.2.52.44.8.35,1.29-.26,1.35.75,2.52.59,3.86a12.51,12.51,0,0,1,1,3.75,4,4,0,0,1,.61,2.39,4.22,4.22,0,0,0,.08,1.07,13.3,13.3,0,0,1,.85,4.18c.5.93.49,2.14,1.55,2.76.73-.32,1.48-.63,2.21-1a17.07,17.07,0,0,1,2.58-1.19,12.11,12.11,0,0,0,2.67-1c1-.53,2.16-.22,3.09-.87,2.74-.79,5.36-1.9,8-2.86a65.23,65.23,0,0,0,7-2.73c1.3-.64,2.67-1,4-1.64.63-.29,1.4-.29,2.06-.55A65.24,65.24,0,0,1,507.12,410c1-.22,1.95-1,3-1.1a15.53,15.53,0,0,0,3-1.1c.34-.11.69-.2,1-.34,1.66-.66,3.48-.88,5-1.9,1.11-.05,2-.83,3-1,1.21-.22,2.17-1,3.31-1.36,2.62-.77,5.19-1.72,7.81-2.5.22-.07.42-.3.64-.31a11,11,0,0,0,3.74-1.12c1.33-.55,2.8-.62,4.06-1.34a7.92,7.92,0,0,1,2-.63A3,3,0,0,0,545.57,396.18Z"/><path class="cls-1" d="M133.84,729.33q0,15.09,0,30.2v27.68a11.9,11.9,0,0,0,.05,1.79.79.79,0,0,0,.69.69.78.78,0,0,1,.7.7c.06,1.19,0,2.39.05,3.59a2.33,2.33,0,0,0,.28,1.37,2,2,0,0,1,0,2.34,2.22,2.22,0,0,0-.28,1c-.05.83-.05,1.68-.05,2.51q0,13.66,0,27.32a4.21,4.21,0,0,0,.58,2.74,1.1,1.1,0,0,1,0,1,4.6,4.6,0,0,0-.6,3.09q0,25.51,0,51c0,.6,0,1.2,0,1.8l-9.29.11H112.23q-14.9,0-29.8,0c-2.28,0-4.55,0-6.82,0h-13c-2,0-4.08,0-6.12,0h-23c-.59,0-1.21.1-1.66-.34a3.87,3.87,0,0,0,.59-1.26,50.61,50.61,0,0,0,0-7.18,2.81,2.81,0,0,0-.23-1,1.26,1.26,0,0,1,.07-1.31,2.6,2.6,0,0,0,.15-1,11.72,11.72,0,0,1,.13-2.15,2.81,2.81,0,0,0-.06-2.34,15.32,15.32,0,0,1-.15-3.94,35.46,35.46,0,0,0,.22-6.09,7.51,7.51,0,0,1,.14-1.78,1.9,1.9,0,0,0,0-1.33,3.65,3.65,0,0,1-.14-2.8,3.14,3.14,0,0,0,0-3.07,2.38,2.38,0,0,1-.18-1c0-.84,0-1.68,0-2.52a4.25,4.25,0,0,1,.47-2.07,1.94,1.94,0,0,0,0-1.74,4.67,4.67,0,0,1-.37-2.09q0-4.66-.11-9.33c0-.71,0-1.43-.1-2.14a9,9,0,0,1,.07-2.49,19.5,19.5,0,0,0,.16-2.87c.74-1.33.33-2.81.51-4.22a4.88,4.88,0,0,0-.48-3.47,4,4,0,0,1,.16-2.45,2.78,2.78,0,0,0,.05-2.75,2.67,2.67,0,0,1-.17-2.43,6.21,6.21,0,0,0,.53-3.15c0-4.19-.06-8.38-.09-12.57,0-1.44,0-2.88,0-4.32a12.07,12.07,0,0,0-.44-4.26,10.31,10.31,0,0,1-.23-1.78,2.83,2.83,0,0,1,.14-1.76,7.13,7.13,0,0,0,.5-3.15c.07-1.32.06-2.64,0-4a10.79,10.79,0,0,1-.27-2.06,9.14,9.14,0,0,0,.27-1.74c0-.35.08-.79-.1-1.05-.68-1-.29-2.11-.43-3.16a2.24,2.24,0,0,1,.29-1.38,1.64,1.64,0,0,0,.24-.67c0-1.43.16-2.87.09-4.3s0-2.63,0-3.94c.06-3.35.06-6.7.08-10.05a9.32,9.32,0,0,0-.52-3.88,7.62,7.62,0,0,0,.5-3.86c0-2.76-.2-5.51,0-8.26a5.47,5.47,0,0,0,0-1.07,44.93,44.93,0,0,1,0-6.46,8.57,8.57,0,0,0-.52-3.5,2.75,2.75,0,0,1,.28-2.74,1,1,0,0,0,.21-.67c-.1-.94.13-1.92-.4-2.8a.93.93,0,0,1,0-1,4.09,4.09,0,0,0,.46-2.08c0-.24,0-.48,0-.72,0-.6,0-1.2,0-1.8a4.53,4.53,0,0,1,.26-1.75c.34-.67-.05-1.11-.16-1.66a13.23,13.23,0,0,1-.15-1.79c0-.6,0-1.19,0-1.79,0-3.11,0-6.22.09-9.33a14.33,14.33,0,0,0-.36-3.91,15,15,0,0,1-.27-2.85,2.73,2.73,0,0,1,.25-1,5.44,5.44,0,0,0,.11-3.85,8.07,8.07,0,0,1-.33-2.11,2.16,2.16,0,0,1,.13-1,7.92,7.92,0,0,0,.12-5.59,4.15,4.15,0,0,1,.09-2.8,8.67,8.67,0,0,0,.36-3.55c-.11-2.51.09-5,0-7.53s0-4.79,0-7.18a4,4,0,0,1,.29-1.75.94.94,0,0,0,.1-.66c-.65-1.38-.17-2.84-.33-4.25a2.92,2.92,0,0,1,.16-1.41,5.38,5.38,0,0,0,.06-3.5,3.44,3.44,0,0,1,.12-2.79,1.08,1.08,0,0,0,0-1,6.45,6.45,0,0,1-.37-2.82c0-1.8,0-3.59,0-5.38a2.2,2.2,0,0,1,.18-1,4.31,4.31,0,0,0,.43-2.44c-.13-2.75-.06-5.5,0-8.25,0-1.79.1-3.59.11-5.38,0-2.39-.06-4.79-.08-7.18,0-1.08,0-2.15,0-3.23.77-.87.53-2.07,1-3,.35-.78.35-1.62.68-2.39s.58-1.55.88-2.33c.09-.22.27-.43.27-.65a9.36,9.36,0,0,1,1.47-4.35,5.11,5.11,0,0,0,.74-2.72,3.7,3.7,0,0,1,.58-2,20.92,20.92,0,0,0,2.34-5.19,1.14,1.14,0,0,1,.68-.77,3.6,3.6,0,0,0,1.32-1.19c1.14-1.38,2.26-2.78,3.41-4.16.68-.81.79-2,1.83-2.56a10.63,10.63,0,0,0,2.12-1.89c1.36-1.19,2.53-2.55,3.79-3.83A12.81,12.81,0,0,0,57,560.54a4.51,4.51,0,0,1,2.07-1.93,4.15,4.15,0,0,0,1.11-.86A25.31,25.31,0,0,1,65,554.11a3.91,3.91,0,0,0,.87-.64,22.5,22.5,0,0,1,6.47-4.39,22.85,22.85,0,0,0,4.49-2.94c.46-.38.94-.73,1.49-1.16h1.38a3.23,3.23,0,0,0,1.72-.4,7.36,7.36,0,0,1,4.42-1.19,6.46,6.46,0,0,0,2.43-.48,11.31,11.31,0,0,1,4.54-.85,3.58,3.58,0,0,0,2.41-.54c.6-.41,1.44,0,2-.52a1.65,1.65,0,0,1,1.35-.31,9.26,9.26,0,0,0,1.71.42c.57,0,1.11-.42,1.73-.39.36,0,.8-.14,1.06,0,1,.61,2.1.41,3.16.53a10.24,10.24,0,0,1,3,1.09,2,2,0,0,0,1.69,0,5.68,5.68,0,0,1,3.53-.11c0,.72-.09,1.44-.07,2.15a3.24,3.24,0,0,1-.59,2.37.72.72,0,0,0,0,.67,3.12,3.12,0,0,1,.59,2c0,1.43,0,2.87,0,4.31,0,3.36,0,6.71,0,10.07a2.66,2.66,0,0,1-.37,1.35,2.78,2.78,0,0,0,0,2.71,2.78,2.78,0,0,1,.39,1.35c0,1.79,0,3.59,0,5.39a1.55,1.55,0,0,1-.18,1,2.67,2.67,0,0,0-.51,1.67c0,1.92,0,3.84,0,5.76a2.79,2.79,0,0,0,.48,1.68,1.77,1.77,0,0,1,.21.66,3.46,3.46,0,0,1,0,.72c-.09,1,.26,2.16-.54,3.1a1.16,1.16,0,0,0-.12.68c0,1,0,1.92,0,2.88a2,2,0,0,0,.3,1,2,2,0,0,1,0,2.33,2,2,0,0,0-.32,1c0,1.32,0,2.64,0,4a4,4,0,0,0,.45,1.69,4,4,0,0,1,0,3.11,5.06,5.06,0,0,0-.47,2c0,2.52,0,5,0,7.56a2.45,2.45,0,0,0,.27,1.37,2.86,2.86,0,0,1,0,3,2.88,2.88,0,0,0,0,2.72,2.89,2.89,0,0,1,.39,1.34c0,2,0,4.08,0,6.12a5,5,0,0,1-.55,2.38c-.64,1.32.21,2.5.73,3.68,1.21,1.12,2,2.69,3.73,3.24.92.94,2.17,1.41,3.17,2.26a2.47,2.47,0,0,0,3.24-.09l1-.81c1.44,0,2.76,0,4.08,0,.71,0,1.42.06,2.13.1.65.63,1.58.44,2.32.78a3.46,3.46,0,0,0,1.66.53c1.8,0,3.6,0,5.39,0a2.21,2.21,0,0,0,1.32-.47,1,1,0,0,1,1-.05c.1.05.19.14.3.19a4.25,4.25,0,0,0,3.44,0,3.57,3.57,0,0,1,1-.37c1,0,1.91,0,2.86.07a9.66,9.66,0,0,0,.06,4.28c.79,1.31.55,2.78.63,4.19a19.33,19.33,0,0,1,0,2.15,3.36,3.36,0,0,0,.42,1.71c.1.2.17.54.06.68-.86,1.19-.54,2.5-.47,3.8.06,1,0,1.92,0,2.88,0,.39-.16.82-.44.92-1.09.35-1.6,1.48-2.59,1.89-1.19.51-1.59,1.76-2.53,2.48l-1.42,1.09L142,670a23.77,23.77,0,0,1-3.84,4.23c-3.31,3.29-6.54,6.68-9.82,10-.26.25-.61.48-.73.78-.45,1.21-1.53,1.83-2.39,2.63a16.92,16.92,0,0,0-1.74,1.75c-1.63,2.06-3.61,3.82-5.22,5.9a3.24,3.24,0,0,0-1.68,1.79c-1.6,1.93-3.14,3.93-5.46,5.1a8.71,8.71,0,0,1-2.8,1.46c-1,.45-1.79,1.21-2.76,1.67a17.54,17.54,0,0,1-2.32.93c-1.25.38-2.57.52-3.76,1-.82.33-1.68.18-2.43.5a2.42,2.42,0,0,1-2.37.09,2.08,2.08,0,0,1-2.35-.08,1.52,1.52,0,0,0-.71-.08,7.29,7.29,0,0,1-2.79-.54,15.46,15.46,0,0,1-2.39-.65,12.32,12.32,0,0,0-2.36-.78,3.33,3.33,0,0,0-2.76.16,1.9,1.9,0,0,1-2,0c-.24-.13-.43-.21-.64-.07-.49.33-1.13.42-1.49,1a4.59,4.59,0,0,1-.59.89A17.25,17.25,0,0,0,73,712.37c.32.76.65,1.4.86,2.08a11,11,0,0,1,.19,1.42,1.37,1.37,0,0,0,.85,1.06,3,3,0,0,1,1.58,1.84,4.9,4.9,0,0,1,.5,1.7,3,3,0,0,0,.57,1.68,5.8,5.8,0,0,0,2.81,2.59A6.65,6.65,0,0,1,83.11,727a3.5,3.5,0,0,0,3,1.55,1.54,1.54,0,0,1,1,.38,4.91,4.91,0,0,0,3.68,1.1,5.26,5.26,0,0,1,2.47.33,6,6,0,0,0,1.76.25c1,.06,1.92.12,2.88.09a3.75,3.75,0,0,1,2,.61,11.21,11.21,0,0,1,1.45,1,1.85,1.85,0,0,0,1.34.37c.36,0,.79.06,1.07-.11a5.69,5.69,0,0,1,3.14-.52c1.68,0,3.36,0,5,.08a9.8,9.8,0,0,0,4.21-.63,15.57,15.57,0,0,1,3.49-.72,20.43,20.43,0,0,1,3.59-.13c1.33,0,2.47-.9,3.85-.74a2.9,2.9,0,0,0,1.7-.46c.84-.46,1.84-.45,2.72-.86a1.8,1.8,0,0,1,2,.48A1.57,1.57,0,0,0,133.84,729.33Z"/><path d="M324.65,51.64a16,16,0,0,1,2.07-6.43,2.15,2.15,0,0,0,.26-1.39c0-.36-.05-.72-.07-1.07a2.11,2.11,0,0,1,.61-1.63c.23-.27.61-.58.6-.87,0-1.37.92-2.46,1-3.79a2.4,2.4,0,0,1,.93-1.88,12.79,12.79,0,0,0,3.56-4.87,18.86,18.86,0,0,1,3.49-4.51,3.38,3.38,0,0,0,.71-.76,12.74,12.74,0,0,1,1.84-2.64c.26-1.15,1.49-1.59,1.94-2.51.82-1.69,2.74-2.32,3.57-3.95a35,35,0,0,1,3.5-2.46c2.09-1.14,4.05-2.48,6.1-3.67.41-.24.84-.62,1.27-.63A5.15,5.15,0,0,0,359.13,7,8.66,8.66,0,0,1,364,5.11c1-.09,1.91-.22,2.87-.23a4,4,0,0,0,2.41-.49c.18-.13.47-.09.7-.16,1-.3,2.11,0,3.17-.5a14.59,14.59,0,0,1,3.44-.87c1.06-.19,2-.83,3.11-.84.91-.75,2.13-.33,3.08-.77a11.67,11.67,0,0,1,3.86-.68,8.67,8.67,0,0,0,2.47-.39A2.85,2.85,0,0,1,390.17,0c1.92,0,3.84,0,5.75,0A5.55,5.55,0,0,1,397,.08a28.72,28.72,0,0,0,4.62.56c1.43,0,2.86.09,4.29.13.35,0,.79-.1,1,.07,1.16.77,2.55.49,3.8.93s2.81.51,4,1.37a2.37,2.37,0,0,0,1.38.27,6,6,0,0,1,2.75.74c.54.25,1.07.52,1.59.8a6.77,6.77,0,0,1,3.43,3c.62.86,1,1.85,2.14,2.33.5.22.84.83,1.21,1.3a7.13,7.13,0,0,0,.83,1.16,13.71,13.71,0,0,1,3.45,5c.65,1.28,1.17,2.62,1.89,3.85s1,2.67,1.81,3.85c.21.31.07.67,0,1-.07.2-.14.52,0,.65a21.39,21.39,0,0,1,1.54,3.2,7.26,7.26,0,0,1,1.07,4.11,2.24,2.24,0,0,0,.35,1.37,3,3,0,0,1,.42,1.72,1.79,1.79,0,0,0,.4,1.34,4,4,0,0,1,.84,2.31c.13.94.46,1.85.56,2.79a6.79,6.79,0,0,0,.76,2.37,2,2,0,0,1,.1,1,2.19,2.19,0,0,0,.39,1.35,2,2,0,0,1,.26,1.37A1.59,1.59,0,0,0,442,51.1a4.58,4.58,0,0,1,.68,3.06c0,1.78.43,3.55.18,5.33a.81.81,0,0,0,0,.35,4,4,0,0,1,.66,1.64c0,.58-.21,1.22.2,1.74s-.33,1.16.22,1.63a12.12,12.12,0,0,1,.19,4.81c.5.79,1,1.28.92,2.12a24.63,24.63,0,0,0,0,2.85,4.58,4.58,0,0,0,.24,1.76,4,4,0,0,1,.18,2.46,4.67,4.67,0,0,0,.39,3.15,1.48,1.48,0,0,1,.19,1c-.4,1.16-.2,2.37-.45,3.48a6.11,6.11,0,0,0,.38.69,1.53,1.53,0,0,1,.39,1.31c-.43,1.65,0,3.34-.12,5,0,.3.28.63.43,1a1.12,1.12,0,0,1,0,1,3.51,3.51,0,0,0-.38,1.36c0,2,0,4.08,0,6.12a6.59,6.59,0,0,0,.42,2.82,1.08,1.08,0,0,1,0,1,2.82,2.82,0,0,0-.42,1.7c0,1.79-.07,3.59,0,5.39,0,.69-.72,1.23-.25,2,.33.53,0,1.17.07,1.76a3.39,3.39,0,0,1-.42,2.06,1.7,1.7,0,0,0-.26,1c.17,1.35-.5,2.58-.42,3.91-.53,1.23-.34,2.58-.61,3.86a19.18,19.18,0,0,0-.28,5.71,3.15,3.15,0,0,1-.42,2.07,1.24,1.24,0,0,0,0,1,4.88,4.88,0,0,1,0,3.47,9.14,9.14,0,0,0-.26,2.13,1.32,1.32,0,0,0,.24,1,1.73,1.73,0,0,1,.07,2.3c-.15.18-.11.4,0,.64a2.15,2.15,0,0,1,.07,2.06,3.64,3.64,0,0,0-.34,1.37c0,1.32,0,2.64.05,4a3.79,3.79,0,0,0,.49,1.32,1.17,1.17,0,0,1-.18,1.33c-.21.26-.22.35,0,.59A1.09,1.09,0,0,1,444,159c-.45.48-.35,1.12-.38,1.71a1.13,1.13,0,0,0,.64,1.17,6.71,6.71,0,0,1,.92.57,1.16,1.16,0,0,1,.41,1.55,3.1,3.1,0,0,0-.57,2,2.08,2.08,0,0,1-.34,1.37,2.12,2.12,0,0,0-.28,1.37c.11.92.71,1.83.1,2.78a7.05,7.05,0,0,1,.42,2.45c0,1,0,1.92.09,2.88a10.64,10.64,0,0,1,.29,2.06,14.78,14.78,0,0,0-.18,1.76,3,3,0,0,0,.08,1.42,2.87,2.87,0,0,1-.27,3.07,4.18,4.18,0,0,0-.72,2.34c0,1.08.06,2.16.09,3.24a2.56,2.56,0,0,0,.43,1.34,2.27,2.27,0,0,1,.23,1.74c-.13.58.11.83.58,1.07.75.38.87.58.6,1a8.33,8.33,0,0,0-.64,2,4.57,4.57,0,0,1-.71,1.62,5.86,5.86,0,0,1-1.46,1l-.91.58a1.65,1.65,0,0,1-1.7.2,6.36,6.36,0,0,0-3.15-.54q-15.12,0-30.24,0c-5.52,0-11,0-16.56-.06-.59,0-1.19,0-1.79.06-3.42-.25-6.84-.09-10.26-.06l-2.16-.06a1,1,0,0,1-.71-.69c0-.71,0-1.43,0-2.14,0-1.19.15-2.41-.65-3.45,0-1.69-1.12-3.18-.82-4.92a1.42,1.42,0,0,0-.11-.7,14.59,14.59,0,0,1-.59-4.25c-.17-2.5-.85-5-.87-7.46a8.13,8.13,0,0,1-.54-3.52,32.4,32.4,0,0,1-.1-3.94,6.88,6.88,0,0,0-.85-3.79,5.73,5.73,0,0,1-.64-2,4.5,4.5,0,0,0-1.09-2.6,3.28,3.28,0,0,1-.88-2.63,8.62,8.62,0,0,0-.26-2.13,10.59,10.59,0,0,1-.46-3.88,6.41,6.41,0,0,0-.15-1.42,8.34,8.34,0,0,0-.15-1.42,16.34,16.34,0,0,1-.72-3.11,23,23,0,0,0-.77-3.13,6.83,6.83,0,0,1-.36-1.74c.08-1.73-.7-3.25-1.13-4.85-.27-1-.93-1.93-1.11-3a14,14,0,0,0-1-3.4c-.45-1-.37-2.12-.85-3.09s-.07-1.93-.55-2.79a3.28,3.28,0,0,1-.45-1.7c0-.72,0-1.44,0-2.15a19.62,19.62,0,0,0-.29-3.93,12.52,12.52,0,0,1-.37-3.89c0-.6,0-1.2,0-1.8a6.87,6.87,0,0,0,.23-1.7c-.49-2.5-.09-5-.2-7.51,0-1.2.54-2.3.52-3.52a35.83,35.83,0,0,1,.22-3.58.82.82,0,0,1,.12-.34,5.54,5.54,0,0,0,.51-2.44,14.22,14.22,0,0,1,.56-2.06,22.62,22.62,0,0,0,.23-2.48c.93-1.21.37-2.86,1.22-4.09l.9-4.57c.67-1.06.3-2.38.78-3.46a6.83,6.83,0,0,0,.52-3.15,13.73,13.73,0,0,1,.8-5.3c.37-1,.86-2,1.24-3s.15-2.38.7-3.49a1.55,1.55,0,0,0,.19-.69,7.17,7.17,0,0,0-.28-2.47c-.75-1.91-.71-1.92-2.73-2-3.47,0-6.95.15-10.42-.08-.35,0-.71,0-1.07,0-3.46.14-6.93,0-10.39,0-3.24,0-6.48-.06-9.71-.1-.83-.44-1.66-.89-2.5-1.3a.79.79,0,0,0-.66,0c-.55.45-1,.31-1.56,0a1.46,1.46,0,0,0-1.66.19c-.23.18-.4.24-.62.12a6.41,6.41,0,0,0-.95-.46A2.09,2.09,0,0,1,324.65,51.64Z"/><path d="M151.31,641.49c-.95,0-1.91-.1-2.86-.07a3.57,3.57,0,0,0-1,.37,4.25,4.25,0,0,1-3.44,0c-.11,0-.2-.14-.3-.19a1,1,0,0,0-1,.05,2.21,2.21,0,0,1-1.32.47c-1.79,0-3.59,0-5.39,0a3.46,3.46,0,0,1-1.66-.53c-.74-.34-1.67-.15-2.32-.78-.71,0-1.42-.1-2.13-.1-1.32,0-2.64,0-4.08,0l-1,.81a2.47,2.47,0,0,1-3.24.09c-1-.85-2.25-1.32-3.17-2.26-1.7-.55-2.52-2.12-3.73-3.24-.52-1.18-1.37-2.36-.73-3.68a5,5,0,0,0,.55-2.38c0-2,0-4.08,0-6.12a2.89,2.89,0,0,0-.39-1.34,2.88,2.88,0,0,1,0-2.72,2.86,2.86,0,0,0,0-3,2.45,2.45,0,0,1-.27-1.37c0-2.52,0-5,0-7.56a5.06,5.06,0,0,1,.47-2,4,4,0,0,0,0-3.11,4,4,0,0,1-.45-1.69c0-1.32,0-2.64,0-4a2,2,0,0,1,.32-1,2,2,0,0,0,0-2.33,2,2,0,0,1-.3-1c0-1,0-1.92,0-2.88a1.16,1.16,0,0,1,.12-.68c.8-.94.45-2.06.54-3.1a3.46,3.46,0,0,0,0-.72,1.77,1.77,0,0,0-.21-.66,2.79,2.79,0,0,1-.48-1.68c0-1.92,0-3.84,0-5.76a2.67,2.67,0,0,1,.51-1.67,1.55,1.55,0,0,0,.18-1c0-1.8,0-3.6,0-5.39a2.78,2.78,0,0,0-.39-1.35,2.78,2.78,0,0,1,0-2.71,2.66,2.66,0,0,0,.37-1.35c0-3.36,0-6.71,0-10.07,0-1.44,0-2.88,0-4.31a3.12,3.12,0,0,0-.59-2,.72.72,0,0,1,0-.67,3.24,3.24,0,0,0,.59-2.37c0-.71,0-1.43.07-2.15a6.41,6.41,0,0,0,.75-.72c1.85-2.44,3.85-4.75,5.87-7.05.69-.8,1.3-1.66,2-2.5.79-.17,1.13-.8,1.48-1.43s.61-.81,1.41-.69a.86.86,0,0,1,.68.7c0,.6,0,1.2,0,1.8a3,3,0,0,0,.49,2,1.09,1.09,0,0,1,.19.66c0,1.2,0,2.4,0,3.6a3.1,3.1,0,0,1-.59,2.36,3.31,3.31,0,0,0,0,1.38,4.35,4.35,0,0,1,.56,2q0,7,0,14c0,1.17-.28,2.41.57,3.45a10.51,10.51,0,0,1,0,3.54c0,.23-.26.41-.36.62a1.82,1.82,0,0,0,.22,2,.85.85,0,0,1,.15,1,3.26,3.26,0,0,0-.57,2c0,2,0,4.08,0,6.12a3.73,3.73,0,0,0,.59,2.73.7.7,0,0,1,0,.67,2.76,2.76,0,0,0-.55,2c.06,1.06-.16,2.16.61,3.08a3.33,3.33,0,0,1-.25,2.42,2.22,2.22,0,0,0-.36,1.35c0,3.12,0,6.24,0,9.36,0,1.56,0,3.12,0,4.68a2.27,2.27,0,0,0,.43,1.33,1.54,1.54,0,0,1,.09,1.69,3.73,3.73,0,0,0-.52,2c0,3.24,0,6.48,0,9.72,0,1.17-.25,2.39.6,3.44.11.12,0,.49-.07.67a2.89,2.89,0,0,0-.54,1.67c0,1.44,0,2.88,0,4.32a1.88,1.88,0,0,0,1.7,1.53c.72,0,1.44,0,2.16,0a2,2,0,0,0,1-.28,2.93,2.93,0,0,1,1.7-.44c4.92,0,9.83,0,14.75,0a4,4,0,0,0,2-.52,2.23,2.23,0,0,1,2.07-.06,1.88,1.88,0,0,0,2.26.05c.59-.41,1.38-.18,2.09-.1.77.77,1.76.64,2.71.64q14.22,0,28.43,0a3.08,3.08,0,0,0,2-.54c.16-.12.55-.18.67-.07.92.78,2,.63,3.08.63l15.11,0a.9.9,0,0,0,1-.81c0-.72,0-1.44,0-2.16V607.42q0-18.72,0-37.43,0-7.56,0-15.12a4.76,4.76,0,0,1,.51-2.4,2.38,2.38,0,0,0-.06-2.39,2.85,2.85,0,0,1-.06-3,3.85,3.85,0,0,0,.23-2.43,3.47,3.47,0,0,1-.64-2.71l0-30.23a4.09,4.09,0,0,1,.53-2.4,3.23,3.23,0,0,0,.09-2.09c-.8-.91-.62-2-.62-3.08q0-17.82,0-35.63l0-51.1q0-11.7,0-23.39a2.44,2.44,0,0,0-.35-1.71,1.16,1.16,0,0,1,.08-1.61,2.06,2.06,0,0,0,.28-1.37q0-7.74,0-15.48,0-11.88,0-23.75a3,3,0,0,1,.56-2,1,1,0,0,0,.16-.67,2.94,2.94,0,0,1,1.23-2.81,6.09,6.09,0,0,1,.79-.74c1-.59,2-1.34,3.24-1.23.35,0,.72,0,1.08,0a9.58,9.58,0,0,1,1.78.07c.45.09.84.53,1.28.57a3.41,3.41,0,0,1,2.9,2.3,5.44,5.44,0,0,1,.68,2.34q0,23.22,0,46.43,0,28.6,0,57.21a3.28,3.28,0,0,0,.61,2.36c0,.47.12,1-.08,1.38a3.53,3.53,0,0,0-.53,2c0,.71,0,1.44,0,2.15a2.15,2.15,0,0,0,.43,1.34,1.56,1.56,0,0,1,.1,1.69,3.72,3.72,0,0,0-.53,2q0,13.31,0,26.63,0,16.19,0,32.38a3.87,3.87,0,0,0,.7,2.7c.11.21.2.42.33.62a3.46,3.46,0,0,1,.15,3.42,4.26,4.26,0,0,0,0,4.07,2.09,2.09,0,0,1,.2,1c0,2.52,0,5,0,7.56a2.44,2.44,0,0,0,.39,1.34c.25.4.37.87.61,1.27a2.38,2.38,0,0,1,.41,1.34c0,1.8,0,3.6,0,5.4a2.34,2.34,0,0,0,.39,1.34,3.13,3.13,0,0,1,.2,2.42c-.78.78-.58,1.77-.58,2.72,0,1.44,0,2.88,0,4.32,0,.35-.08.72.19,1a2.92,2.92,0,0,1,.5,2c0,1.56,0,3.12,0,4.68a2.49,2.49,0,0,0,.49,1.68,1.36,1.36,0,0,1,.2,1c-.14.9.52,1.55.68,2.34a22.22,22.22,0,0,0,.2,2.48,6.11,6.11,0,0,1,.6,2c0,.94-.28,1.94.39,2.78.55.68.06,1.71.8,2.31a8.42,8.42,0,0,0,.91,2.65,20.64,20.64,0,0,1,1.12,2.2,16.45,16.45,0,0,0,.79,1.57c.37.56.18,1.16.29,1.74a4.27,4.27,0,0,0,.36,1,16,16,0,0,1,.95,1.9c.22.66.13,1.41.65,2a.87.87,0,0,1,.18.66c-.27,1.17.51,2,.87,3a10.55,10.55,0,0,0,1,1.88,2.3,2.3,0,0,1,.3,1.37,2.48,2.48,0,0,0,.52,1.66c.32.41.1,1,.28,1.38a5.38,5.38,0,0,1,.7,2c0,.76.86,1.12,1.19,1.74.56,1,1.07,2.1,1.59,3.15a2.51,2.51,0,0,0,1,2.18,2.85,2.85,0,0,1,1.29,2.43c0,.27.36.59.57.87s.59.53.66.84c.28,1.22,1.52,1.81,1.85,3a5,5,0,0,1,.48,1.31,1.41,1.41,0,0,0,.31,1c1.21,1.07,1.57,2.63,2.34,4a5.12,5.12,0,0,0,1.15,1.76c1.1.81,1.31,2.25,2.33,3.13.22.19.21.65.32,1s.11.79.33,1c.89.71,1.09,1.84,1.76,2.67.08.93.94,1.35,1.34,2.06s.67,1.5,1.06,2.23,1.27,1.13,1.35,2.06l1.45,1.58c.55.62,1.3,1.07,1.43,2,0,.2.25.4.41.57.92.95,1.85,1.89,2.77,2.83.43,1.31,1.52,2.11,2.41,3.06a4.35,4.35,0,0,1,.94,1.47,1.9,1.9,0,0,0,1,1,4.74,4.74,0,0,1,1.73,1.21c.94.93,1.88,1.85,2.8,2.8.66.67,1.48,1.24,1.67,2.26l1.79,1.75c1.27.3,1.88,1.42,2.73,2.24.32.31.42.85.74,1.17s.95.4,1.16.75c.52.86,1.72.72,2.16,1.75A7.68,7.68,0,0,0,287.5,675c.63.72,1.27,1.43,1.91,2.15,0,.76.79.78,1.16,1.18a11.23,11.23,0,0,1,1,1.45c.63,1,1.73,1.22,2.65,1.75a1.89,1.89,0,0,0,1,.12,2.11,2.11,0,0,1,1.62.6c.71.62,1.24,1.48,2.26,1.68l2.31,2.26c.34,1.23,1.42,1.87,2.14,2.81.27.34-.19.54-.51.65a5.42,5.42,0,0,1-2.06-.39,2.38,2.38,0,0,0-1-.36,5.85,5.85,0,0,1-2.37-.6,4.81,4.81,0,0,0-1.73-.22c-.14-.18-.26-.5-.42-.52-.7-.1-1.43-.05-2.13-.18s-1.32-.45-2-.65a3.41,3.41,0,0,0-.72,0,1.7,1.7,0,0,1-1-.22A2.28,2.28,0,0,0,288,686a2.89,2.89,0,0,1-1.37-.29c-1-.43-1.79-1.15-2.92-1.19a1.78,1.78,0,0,1-.9-.52,7.28,7.28,0,0,1-1.28-1.26c-.59-.85-1.58-1-2.37-1.55s-1.67-.15-2.31-.81l-1.77-.11-1-.08a7.18,7.18,0,0,1-.64-.47c-.61-.59-1.2-1.18-1.79-1.78l-1.53-1.52a5,5,0,0,0-2-1.47,5.44,5.44,0,0,0-1.46-2c-.86-.82-1.55-1.85-2.77-2.19a5.84,5.84,0,0,1-1.88-2.13c-.07-.2-.25-.49-.43-.52-.85-.15-.84-1.23-1.45-1.42-1-.31-.95-1.3-1.56-1.84-1-.88-1.85-1.88-2.79-2.8a8.27,8.27,0,0,1-1.93-2.53,7.32,7.32,0,0,0-1.12-1.4c0-.91-1.24-.82-1.37-1.45-.19-1-1.54-.79-1.54-1.8a17.7,17.7,0,0,1-2.38-3.91,6,6,0,0,0-1.52-2.39c-.54-.45-.49-1.34-1.1-1.8s-.75-1.19-1.09-1.81c-.51-.92-1-1.88-1.45-2.82-1-.73-1.13-2.09-2.09-2.86-.83-1.68-2.14-3.08-2.82-4.87-.46-1.2-1.23-2.28-1.77-3.46a4,4,0,0,0-.92-1.49,10.44,10.44,0,0,1-2.15-3.22c-.81-1.56-1.37-3.28-2.63-4.59a1,1,0,0,1-.2-.65,1.67,1.67,0,0,0-.49-1.31c-1.09-1-1.32-2.49-2.12-3.64-.46-.65-.22-1.39-.35-2.08a1.62,1.62,0,0,0-.29-.64,2.07,2.07,0,0,1-.4-1.35c0-.75-.86-1.16-.71-2s-.71-1.22-.77-2c0-.09-.31-.17-.49-.24a.8.8,0,0,0-.15.31c0,1.2,0,2.4,0,3.59q0,12.42,0,24.84a2.68,2.68,0,0,1-.25,1.74c-.5.66-.57,1.58-1.29,2.11-.38.28-.71.63-1.09,1h-3.6c-.95,0-1.93-.17-2.76.52a1.13,1.13,0,0,1-.67.15c-1.32,0-2.65.06-4,0-.55,0-1.07-.54-1.63-.59-1.07-.1-2.16,0-3.24,0a2.26,2.26,0,0,0-1,.35,3.07,3.07,0,0,1-1,.31c-1.32,0-2.64,0-4,0h-.06c-.09-.33-.27-.66-.61-.68-.77,0-1.54,0-2.31,0a13.74,13.74,0,0,0-4.6.42,2.88,2.88,0,0,1-1.06.08c-3.18-.15-6.4.63-9.54-.39a25.9,25.9,0,0,0-6.4.24,5.25,5.25,0,0,1-2.46,0,9.49,9.49,0,0,0-3.17-.29,19,19,0,0,1-3.92-.06c-1.29-.21-2.53.48-3.83.13-.3-.08-.68.13-1,.21a4.47,4.47,0,0,1-2.12,0,5.31,5.31,0,0,0-1.74-.3A52.84,52.84,0,0,1,151.31,641.49Z"/><path class="cls-3" d="M159.13,205.75h-3.64c-.81.43-1.61.94-2.48,1.3a11.89,11.89,0,0,0-3.87,2.47c-.75.72-1.83,1-2.55,1.89a27.77,27.77,0,0,1-2,2c-.34.33-.67.79-1.09.9a4.15,4.15,0,0,0-1.7,1.26c-1,1-2,2-3.06,3a5,5,0,0,1-2.27,1.66c-.41.11-.75.58-1.09.91L130.52,226a4.49,4.49,0,0,1-2,1.47,1.87,1.87,0,0,0-.82.67c-1.26,1.64-3.31,2.32-4.63,3.88-1.45.45-2.32,1.62-3.33,2.62-.77.74-1.87,1-2.57,1.87a20.59,20.59,0,0,1-2.06,2,.8.8,0,0,1-.29.2,2,2,0,0,0-1.22,1.14,13.27,13.27,0,0,1-1.39,1.64c-.43.56-.77,1.18-1.17,1.76a2,2,0,0,1-.5.51c-.56.43-1.3.73-1.66,1.28a8.79,8.79,0,0,1-1.27,1.69,8.46,8.46,0,0,0-2.15,2.8,1.49,1.49,0,0,1-1.48.82c-3,0-6,0-9,0-.08-.79-.9-.65-1.3-1-.94-.93-1.89-1.84-2.85-2.74-1.12-1.06-2.06-2.32-3.52-3a4.16,4.16,0,0,1-1.06-1c-1.81-1.76-3.6-3.52-5.41-5.27a5.16,5.16,0,0,0-2-1.49c-.52-.16-.91-.74-1.35-1.15-1-.95-1.91-2.12-3.28-2.71-.41-.18-.7-.64-1.06-1-1.06-.94-1.9-2.15-3.31-2.66a1.69,1.69,0,0,1-.56-.45l-2-2a10.37,10.37,0,0,0-2.22-1.76,15.18,15.18,0,0,1-2.14-1.9,11.78,11.78,0,0,1-1.44-1c-.47-.51-.63-1.29-1.3-1.65a5.66,5.66,0,0,1-1.53-.87A8.93,8.93,0,0,0,56.47,217c-.46-.25-.51-.95-1.18-1.2a5.39,5.39,0,0,1-1.67-1.33,5.34,5.34,0,0,0-1.48-1,2.13,2.13,0,0,1-.56-.45c-1.12-1.08-2.25-2.15-3.34-3.26s-2.59-1.68-3.59-2.9c-1.22-1.49-3.1-2.2-4.4-3.62a3.89,3.89,0,0,0-1.54-.86,3.63,3.63,0,0,1-2.24-2.08,5.23,5.23,0,0,0-2.58-2.41,6.2,6.2,0,0,1-1.41-1.06c-1.15-1-2.06-2.29-3.54-3-.61-.28-1-1-1.56-1.47a12.48,12.48,0,0,0-3.29-2.72c-.63-1.37-2.23-1.69-3.07-2.85a3.42,3.42,0,0,0-1.68-1.3,1.22,1.22,0,0,1-.66-.78,2.83,2.83,0,0,0-1.23-1.26,6,6,0,0,1-1.21-.72,2.79,2.79,0,0,0-1.89-.87c-.44,0-.85-.46-1.29-.53-.74-.11-1.43-.17-1.66-1a.42.42,0,0,0-.24-.25A4.87,4.87,0,0,1,8.36,177a3.38,3.38,0,0,0-1.93-1.94c-.2-.09-.32-.35-.48-.53a.59.59,0,0,1,.09-.93A6.29,6.29,0,0,0,8.31,172a6.15,6.15,0,0,1,1.81-1.1,2.7,2.7,0,0,1,2.72-.07,3.43,3.43,0,0,0,1.71.39H26.78c3.83,0,7.67,0,11.51,0,1.05,0,2.17.2,3.11-.52,1.18-.09,2.37-.39,3.47.31a1.77,1.77,0,0,0,1,.18h9.72A2.3,2.3,0,0,0,57,170.8a1.64,1.64,0,0,1,1.7-.11,4,4,0,0,0,2,.5c2.88,0,5.76,0,8.63,0a2.14,2.14,0,0,0,1.35-.39.92.92,0,0,1,1-.09,3,3,0,0,0,1.68.49c1.08,0,2.16,0,3.24,0a2.43,2.43,0,0,0,1.33-.44.87.87,0,0,1,1,0,3.26,3.26,0,0,0,2.06.44h39.56a3.18,3.18,0,0,0,2.06-.44.93.93,0,0,1,1,0,2.65,2.65,0,0,0,1,.42c1.2.05,2.4,0,3.59,0,.33,0,.64-.3,1-.44a1,1,0,0,1,1,.07,2.31,2.31,0,0,0,1.34.41q4.67,0,9.35,0c.52,0,.88-.34,1.31-.51.21-.09.54-.16.68-.06.95.73,2,.53,3.11.54,2.51,0,5,0,7.55,0a2.08,2.08,0,0,0,1-.15,4.54,4.54,0,0,1,4.11,0,2.63,2.63,0,0,0,1,.19c1.79,0,3.59,0,5.39,0h18a3.94,3.94,0,0,0,2.39-.53,1.28,1.28,0,0,1,1.38,0,3.61,3.61,0,0,0,2.38.59,5.37,5.37,0,0,1,3.22,1.29,1,1,0,0,1,.18,1.56,6.06,6.06,0,0,1-.76.76c-.47.35-1.15.54-1.45,1-.45.69-1,1.33-1.46,2-.35.47-.54,1.06-.91,1.5a20,20,0,0,1-1.53,1.52,1.75,1.75,0,0,1-1.3.49c-.75,0-1.24.69-2,.75-1.07,1.13-2.66,1.56-3.67,2.8a10.48,10.48,0,0,1-2.31,2.25c-2.56,1.62-4.42,4-6.62,6a5.52,5.52,0,0,1-1.71,1.25,2.51,2.51,0,0,0-1.19,1.29,2.31,2.31,0,0,1-.86,1.09A16.85,16.85,0,0,0,163,200c-.95.89-1.71,2-3,2.47l-2.28,2.2C158.14,205.21,159,205,159.13,205.75ZM28.36,181.48c.05.21,0,.48.16.6.84.85,1.71,1.67,2.58,2.5A4.49,4.49,0,0,1,33.6,187c0,.08.25,0,.33.12.84.67,1.67,1.35,2.5,2,1.17.22,1.65,1.33,2.5,2a9.44,9.44,0,0,1,1.54,1.49c.56.69,1.51.8,2,1.43,1,1.23,2.49,1.81,3.66,2.8a.43.43,0,0,0,.64,0,2,2,0,0,1,1.35-.34c4,0,7.91,0,11.87,0a3.37,3.37,0,0,1,2.08.37c.12.08.43,0,.61-.12a2.77,2.77,0,0,1,1.39-.26H85.67a3,3,0,0,1,1.69.45.89.89,0,0,0,1,0,2.78,2.78,0,0,1,1.69-.43q15.47,0,30.94,0a3.82,3.82,0,0,1,1.69.47,1.8,1.8,0,0,0,1.71-.07,2.53,2.53,0,0,1,1.34-.4c1,0,1.92,0,2.88,0a3.27,3.27,0,0,1,2,.53.73.73,0,0,0,.67.05,4.83,4.83,0,0,1,3.11-.56c1.56,0,3.12-.05,4.67,0s3.12-.42,4.56.46a3,3,0,0,1,1.32-.49h7.2a1.43,1.43,0,0,1,.69.1c.55.33,1.07.48,1.54-.1s1.24-.69,1.77-1.15,1.19-1.18,1.79-1.77l3.59-3.52a5.55,5.55,0,0,1,1.33-1.2c1.47-.67,2.4-1.94,3.53-3a14.47,14.47,0,0,1,3.3-2.72,2.92,2.92,0,0,0,1.46-1.78c-2.44,0-4.81-.14-7.18.06-.33,0-.64.41-1,.41s-.62-.34-1-.46a2.11,2.11,0,0,0-.71,0c-2.4,0-4.8,0-7.2,0a3.94,3.94,0,0,0-2.73.61,3.51,3.51,0,0,1-1.39-.1,4.1,4.1,0,0,0-2-.51c-1.32,0-2.64,0-4,0a4,4,0,0,0-1.71.4,2.9,2.9,0,0,1-2.72-.13,1.19,1.19,0,0,0-1.32,0,1.11,1.11,0,0,1-1.31.18,2.47,2.47,0,0,0-1.32-.49c-2.63,0-5.27,0-7.91,0a2.43,2.43,0,0,0-1,.28c-.24.13-.43.23-.63.09a2.72,2.72,0,0,0-1.7-.42c-2.64,0-5.27,0-7.91,0h-5a2,2,0,0,0-1.35.36.43.43,0,0,1-.63,0,1.92,1.92,0,0,0-2.34,0,1.05,1.05,0,0,1-1.3,0,1.63,1.63,0,0,0-1-.35c-2.4,0-4.8,0-7.2,0a2.09,2.09,0,0,0-1,.22,1.28,1.28,0,0,1-1.62.11,2.18,2.18,0,0,0-1.37-.34H80.73c-1.32,0-2.64,0-4,0a2,2,0,0,0-1,.25,1.31,1.31,0,0,1-1.64.06,2.16,2.16,0,0,0-1.37-.31c-2.51,0-5,0-7.55,0a2,2,0,0,0-1,.26,1.28,1.28,0,0,1-1.62.06,1.73,1.73,0,0,0-2,0,1.92,1.92,0,0,1-2,.16,2.81,2.81,0,0,0-1.33-.45c-1.92,0-3.83,0-5.75,0a2.11,2.11,0,0,0-1,.32,2,2,0,0,1-2.35,0,2.35,2.35,0,0,0-1.37-.28c-2.88,0-5.76,0-8.64,0a3.28,3.28,0,0,0-1.67.52,1,1,0,0,1-1-.06,3.63,3.63,0,0,0-1-.41,2.88,2.88,0,0,0-.72,0c-1.56,0-3.11,0-4.67,0A4.26,4.26,0,0,0,28.36,181.48Z"/><path d="M62.65,888.35h13a6.3,6.3,0,0,0-.73,2.37,6.27,6.27,0,0,1-.52,3.16,3.63,3.63,0,0,0-.25,1.4,13.21,13.21,0,0,1-1.06,4.5A32.52,32.52,0,0,0,72,903.55a11.9,11.9,0,0,1-1.52,3.6,7.54,7.54,0,0,0-.93,1.53,12.56,12.56,0,0,1-2.3,3.16,1,1,0,0,1-.95.38.83.83,0,0,0-.59.3,57.06,57.06,0,0,1-5.63,6,16.91,16.91,0,0,0-1.4,1.63c-.39.45-.77.91-1.17,1.34-1.21,1.32-2.35,2.72-3.68,3.91s-2.46,2.94-3.83,4.28c-1.2,1.16-2.25,2.48-3.5,3.58s-2.53,2.18-3.68,3.41a5.61,5.61,0,0,1-.84.67,21.39,21.39,0,0,0-4.88,4.71c-.81,1-1.77,2-2.65,2.93a8.16,8.16,0,0,1-2.93,2c-1.41.6-2.87,1.11-4.32,1.64a2.76,2.76,0,0,1-.71.09,1.75,1.75,0,0,1-1.89-1.31c-.11-.58-.07-1.2-.18-1.78a.7.7,0,0,0-.49-.47,11.4,11.4,0,0,0-4.24.49c-1.21.47-2.59.34-3.86.72a2.64,2.64,0,0,1-1.4-.16,10.47,10.47,0,0,0-2.84-.34,1,1,0,0,0-.74.64,4,4,0,0,0,.12,1.78,4,4,0,0,1,.46,1.33A5.61,5.61,0,0,0,12.48,953a27.65,27.65,0,0,0,7,7.58,1.68,1.68,0,0,0,.62.35,15.44,15.44,0,0,1,2.92,1.34,35.56,35.56,0,0,0,5.18,1.36c.2,0,.43-.11.65-.15l2.81-.58a4.22,4.22,0,0,0,2.5-1.25,9.91,9.91,0,0,1,1.85-1.7,5.15,5.15,0,0,0,2-2.86,4.08,4.08,0,0,1,1.46-2,10.36,10.36,0,0,1,6-1.88A4.72,4.72,0,0,1,49,954.85c.22.28.42.58.65.86a6.67,6.67,0,0,0,4.59,2.46,21.25,21.25,0,0,1,2.11.41,18,18,0,0,0,4.64.25,1.82,1.82,0,0,0,.68-.19,15.82,15.82,0,0,1,3.67-1.34,5.11,5.11,0,0,0,1.58-.83c2.24-1.37,4.48-2.73,6.7-4.12a6.31,6.31,0,0,0,2.2-2.3c1-1.76,2.2-3.42,3.33-5.11a5.65,5.65,0,0,0,.84-1.57,27.57,27.57,0,0,1,3-6.84,14.53,14.53,0,0,0,1.12-2.23,71.61,71.61,0,0,1,4.91-10.72A6.7,6.7,0,0,0,90.14,921a4.07,4.07,0,0,1,.8-2c1.21-1.52,1.81-3.36,2.79-5a3.08,3.08,0,0,0,.55-2,1.53,1.53,0,0,1,.47-1.31,3.38,3.38,0,0,0,1.15-2.54,2.4,2.4,0,0,1,.35-1c.63-1.15,1.29-2.29,2-3.5.69-.34,1.45-.68,2.18-1.08a13,13,0,0,0,4-2.92,1.86,1.86,0,0,1,2.27-.52.94.94,0,0,0,.7,0c1.15-.62,2.5-.85,3.52-1.72a3.78,3.78,0,0,0,1.16-1.34,5.87,5.87,0,0,0,.69-3.46c-.34-1.41-.14-2.87-.57-4.26H126c0,.93-.07,1.87,0,2.8a3.12,3.12,0,0,0,.37,1c.26.79.53,1.57.76,2.37a.94.94,0,0,1,0,.68c-.67,1.09-.45,2.32-.58,3.49,0,.24,0,.54-.14.69-.65.67-.38,1.59-.7,2.34a5.77,5.77,0,0,1-.54.93c-.13.2-.24.48-.43.55-1.24.46-1.29,1.94-2.28,2.62-.39.27-.71.65-1.11.9-.6.39-1.24.71-1.87,1.06a12.38,12.38,0,0,0-2.73,1.66,7,7,0,0,1-2.56,1.16,9.66,9.66,0,0,0-1.34.48,10.92,10.92,0,0,1-5.32,1.73c-.59,0-1.2,0-1.79.11a2.06,2.06,0,0,0-1.66,1.24c-.63,1.41-1.17,2.86-1.75,4.3.08,1.47-.79,2.43-1.73,3.4a2.3,2.3,0,0,0-.54,1.29,6.17,6.17,0,0,1-1.25,3.3A7.66,7.66,0,0,0,97,930.22c-1.7,2.87-2.73,6.08-4.65,8.83a5.33,5.33,0,0,0-.83,1.58c-.83,3-2.77,5.52-3.88,8.41-.7,1-1.07,2.15-2.07,2.88-1.21.88-1.42,2.5-2.58,3.4a14,14,0,0,1-1.34,2.48,17.67,17.67,0,0,1-1.93,1.58A9.31,9.31,0,0,0,78,961.26c-1.21,2-3.08,3.33-4.62,5a15.72,15.72,0,0,1-2,1.52,2.17,2.17,0,0,1-1.32.49,4.6,4.6,0,0,0-2.4.62,7.12,7.12,0,0,1-1,.41,13.15,13.15,0,0,1-5.57,1.08c-1.67-.1-3.35-.09-5-.11a2.88,2.88,0,0,1-1.39-.23,4,4,0,0,0-2.1-.41c-1.35,0-2.55-.56-3.84-.78-.88-.7-2.06-.61-3-1.18a2.46,2.46,0,0,0-2.7.18A10,10,0,0,0,41.31,969a9.39,9.39,0,0,1-3.09,1.72,9.82,9.82,0,0,1-4.13.86A44.24,44.24,0,0,1,28,972a10.18,10.18,0,0,1-3.51.49,6.35,6.35,0,0,1-2.11-.31,6.31,6.31,0,0,0-2.12-.33,6.36,6.36,0,0,1-3.38-1c-1.32-.81-2.84-1.24-4.06-2.25a19,19,0,0,1-1.72-1.27,7.52,7.52,0,0,0-2-1.45,3.39,3.39,0,0,1-1.55-1.47,10.37,10.37,0,0,0-2.21-2.8,19.75,19.75,0,0,1-2.8-3.71,9,9,0,0,1-1.76-4.62c-1.14-3-.69-6.13-.51-9.21a4.32,4.32,0,0,1,1.07-2.6,10.13,10.13,0,0,1,3-2.52c1.52-.33,3.1-.2,4.6-.74a6.58,6.58,0,0,1,2.14-.17c2,0,4.07,0,6.11,0a5.22,5.22,0,0,0,2.8-.38,3,3,0,0,1,1.41-.17c2,0,4.07.09,6.16.14a14.81,14.81,0,0,0,1.32-1.18c1.61-1.77,3.09-3.67,5.2-4.91a38.52,38.52,0,0,1,4-3.59A17,17,0,0,0,40,925.76,10.54,10.54,0,0,1,41.67,924a27.67,27.67,0,0,0,3.9-4.19,16.14,16.14,0,0,1,3-3.12,18.53,18.53,0,0,0,3.31-3.76,11.07,11.07,0,0,1,2-2.07,21.48,21.48,0,0,0,3.2-3.75c.56-1,1.6-1.83,1.57-3.15a9.13,9.13,0,0,0,1.36-3.28,7.46,7.46,0,0,1,.85-2,10.84,10.84,0,0,0,1.11-4.06,9.48,9.48,0,0,1,.64-3.86A4,4,0,0,0,62.65,888.35Z"/><path class="cls-1" d="M324.65,51.64a2.09,2.09,0,0,0,1.43,2.2,6.41,6.41,0,0,1,.95.46c.22.12.39.06.62-.12a1.46,1.46,0,0,1,1.66-.19c.57.33,1,.47,1.56,0a.79.79,0,0,1,.66,0c.84.41,1.67.86,2.5,1.3a25.24,25.24,0,0,0-2,4.17A54.16,54.16,0,0,1,328,67.75a2.05,2.05,0,0,0-.31.63,15.8,15.8,0,0,1-1.75,3.91c-.86,1.7-1.82,3.36-2.79,5a3.85,3.85,0,0,0-.7,2.36,2,2,0,0,1-.05,1.06,10,10,0,0,0-.7,2.77,12.5,12.5,0,0,1-.87,2c-.38.88-.77,1.75-1.1,2.64-.46,1.22-.88,2.46-1.36,3.68s-1.63,2.08-1.78,3.46a10.24,10.24,0,0,0-1.92,3.4,3.09,3.09,0,0,1-1.14,1.36,11.54,11.54,0,0,1-1.23.71,1.9,1.9,0,0,0-1.2,1.65c0,.87-.78,1.48-.76,2.37s-.93,1.37-1.14,2.19a1.78,1.78,0,0,0,1.32.4c1.31,0,2.64-.07,3.95,0a10.92,10.92,0,0,1,2.08.46c.84.19,1.6-.46,2.43-.23.39.11.67-.08,1-.14a11,11,0,0,1,1.41-.09c.93.78,2.06.53,3.12.6a1.49,1.49,0,0,1,.94.47,2.28,2.28,0,0,1,.55,2.91,5.7,5.7,0,0,1-.39.61,1.71,1.71,0,0,0-.06,2c.6.79.58,1.79,1,2.66.71,1.49.87,3.21,1.7,4.68a1.21,1.21,0,0,1,.09.34c0,.24,0,.48.08.71.24,1.3.33,1.41,1.55,1.44s2.4,0,3.6,0a10.11,10.11,0,0,0,4.11-1.07c1.2-.51,2.31-1.24,3.52-1.74a3.76,3.76,0,0,0,1.41-1,4.2,4.2,0,0,1,.77-.75,2.26,2.26,0,0,1,1-.41,14,14,0,0,1,2.15,0,.68.68,0,0,1,.5.44,12,12,0,0,0,.69,2,2.81,2.81,0,0,1-.3,2.72c-.35.46-.47,1.1-1,1.44s-.72,1.21-1.14,1.78a1.71,1.71,0,0,1-1.2.71,2.14,2.14,0,0,1-.36,0c-1.76.09-3.59-.34-5.22.78a2,2,0,0,1-1.06.12l-3.23,0a2.07,2.07,0,0,0-1,.1,2.14,2.14,0,0,1-2.34-.09,3.26,3.26,0,0,0-1.05-.13.77.77,0,0,0-.68.68,15.24,15.24,0,0,0,.14,1.78c.05.34.34.65.39,1,.14.94.38,1.86-.35,2.75a4.18,4.18,0,0,0-.86,1.92c-.16.95-.49,1.87-.58,2.79a42,42,0,0,0-.14,8.61c0,.35.1.7.17,1a1.67,1.67,0,0,0,1.29,1.1l2.87.1c1.19.72,2.58.46,3.82.84a9.7,9.7,0,0,0,2.81.37,9.52,9.52,0,0,0,2.12-.25,6.75,6.75,0,0,1,2.05.24,2.91,2.91,0,0,0,1.73-.3,1.14,1.14,0,0,1,1,.08c.58.36,1.09-.32,1.69,0s1.08-.38,1.66,0c.1.08.4-.17.62-.21a2.26,2.26,0,0,1,1.05-.08,9.17,9.17,0,0,0,3.15.6c1,.76,2.32.48,3.29,1.3a3.41,3.41,0,0,1,1,1c.53.94.91,1.94,1.39,2.89s1,2.12,1.48,3.23a8.33,8.33,0,0,1,.66,3.1,6.62,6.62,0,0,1,.83,4.13,1.37,1.37,0,0,0,.15.69,5.37,5.37,0,0,1,.5,2.44,4.87,4.87,0,0,0,.21,1.76c.7,1.61.51,3.29.55,5,0,1.43.05,2.86.07,4.3.59.59-.09,1.35.25,2a3.9,3.9,0,0,1,.19,1.76c0,.72,0,1.44,0,2.16s0,1.68,0,2.52a3.52,3.52,0,0,1-.23,1.4,4.87,4.87,0,0,0,.06,3.82,1.44,1.44,0,0,1-.2,1.35,1.05,1.05,0,0,0,0,1,3.52,3.52,0,0,1,.46,2.06c-.16,2,0,4.06.05,6.09a9.05,9.05,0,0,0,.49,3.53,1.74,1.74,0,0,1-.24,1.71,1,1,0,0,0-.19.66c.22,1.3-.08,2.63.38,3.92a6.58,6.58,0,0,1,.22,2.13c0,3.48,0,6.95.07,10.43,0,.11,0,.29-.09.33a16.31,16.31,0,0,1-2.13,1.07c-.64.24-1.12.83-1.92.78s-1.39.91-2.29.7a9.89,9.89,0,0,0-2.15,1.1,4.26,4.26,0,0,1-2.48,1.15,3.85,3.85,0,0,0-1.23.62c0-1.56,0-3.12,0-4.68a4.1,4.1,0,0,0-.42-2.08,2.34,2.34,0,0,1-.08-2.08,1.69,1.69,0,0,0,.05-1.67,18.47,18.47,0,0,0-.73-5.27c-.06-.17.16-.42.22-.65s.21-.5.13-.66c-.61-1.23-.29-2.59-.55-3.87a3,3,0,0,1,.49-2.39,1.46,1.46,0,0,0,.13-1.38,10,10,0,0,1-.57-2.79c-.24-1.51.4-3.11-.5-4.56-.07-.11.2-.41.26-.64a2.48,2.48,0,0,0-.07-1.74,3.81,3.81,0,0,1,0-3.77,3.28,3.28,0,0,0,0-2.79,2.11,2.11,0,0,1,0-1.69,3.26,3.26,0,0,0,.19-1.4,40.59,40.59,0,0,1,.05-5.73,5.25,5.25,0,0,0-.48-3.15,2.8,2.8,0,0,1-.19-1.75c.34-2-.06-4.06-.12-6.09,0-1.19-.76-2.26-.74-3.48-.63-.78-.47-1.86-.91-2.67a9.17,9.17,0,0,1-.54-2.42.82.82,0,0,0-.51-.47,13.49,13.49,0,0,0-3.59-.08,4.31,4.31,0,0,1-2.44-.35,2.88,2.88,0,0,0-2.45-.06c-1.63.72-3.31.24-5,.44a.61.61,0,0,1-.35-.07c-1.54-.92-3.24-.65-4.9-.69a4.46,4.46,0,0,1-1.71-.44,8.76,8.76,0,0,0-2.38-.69,5.91,5.91,0,0,1-3.21-1.43c-.88-.77-2.2-1.06-2.62-2.34-.58-.42-1.18-.81-1.74-1.26-.27-.22-.66-.55-.65-.81.08-1.14-.68-2-.86-3.09a32.67,32.67,0,0,1-.75-7.46,8.22,8.22,0,0,0-.32-2.83,2.93,2.93,0,0,1,.12-2.42,5.26,5.26,0,0,0,.48-1.72c.11-.58.36-1.13.47-1.71a1.91,1.91,0,0,1,.72-1.19,7.42,7.42,0,0,0,1-1,2,2,0,0,0,.51-.93A21.44,21.44,0,0,0,319,130c-.05-1.8.12-3.6.17-5.4a7.54,7.54,0,0,1,.25-1.75,4.29,4.29,0,0,0-.22-3.14c-.51-1-.15-2.12-.3-3.18,0-.2-.24-.5-.4-.53A7.54,7.54,0,0,0,315,116a14.29,14.29,0,0,1-4.26.38,15.5,15.5,0,0,0-4.23-.55,1.88,1.88,0,0,1-1-.38,9.75,9.75,0,0,0-2.87-2.1,2.68,2.68,0,0,1-.81-.7,2.6,2.6,0,0,1-.91-1.89,17.75,17.75,0,0,0-.05-1.79,7.27,7.27,0,0,0-.32-1.38,2.21,2.21,0,0,1,.07-1.73c.21-.42.33-.9.57-1.31a53.2,53.2,0,0,0,2.88-5.75,19.16,19.16,0,0,1,1.49-2.84c.64-1,.23-2.16.88-3.07.5-2.37,1.95-4.33,2.88-6.51a42.52,42.52,0,0,0,3.81-6.86,15.5,15.5,0,0,1,1.74-3.11c.65-.75.49-1.82,1.15-2.59a15.41,15.41,0,0,0,1.52-2.42c.48-.82.9-1.68,1.34-2.52a6.09,6.09,0,0,0,.74-3.45c0-.48.05-1,0-1.44a6.22,6.22,0,0,1,.86-3.77,12.19,12.19,0,0,1,1-1.89c1-1.48,1.26-3.33,2.35-4.79.26-.35.2-.92.35-1.37C324.23,51.93,324.48,51.8,324.65,51.64Z"/><path class="cls-1" d="M378.68,200.79c3.42,0,6.84-.19,10.26.06a7.82,7.82,0,0,0,.26,3.18,10.28,10.28,0,0,1,.33,3.91,5.61,5.61,0,0,0,.36,2.46,7.75,7.75,0,0,1,.33,2.11c.09,1.29-.23,2.65.6,3.83a.65.65,0,0,1,.07.34c.05,1.08.09,2.16.13,3.23s.71,1.76.57,2.79a3.66,3.66,0,0,0,.31,1.74,6.27,6.27,0,0,1,.42,2.45,3.32,3.32,0,0,0,.58,2.37l0,1.79c-.92.1-1.46-.71-2.25-1a5.8,5.8,0,0,1-1.57-1.22h-5.88a1,1,0,0,1-.89-.48,1.23,1.23,0,0,0,.64-1.5,18.86,18.86,0,0,1-.75-3.85c-.78-1.32-.39-2.8-.58-4.19a4.19,4.19,0,0,0-.26-1.39,5.56,5.56,0,0,1-.5-2.77,2.6,2.6,0,0,0-.09-1.06,8.56,8.56,0,0,1-.61-3.83c-.07-1.05.16-2.15-.55-3.11a2.07,2.07,0,0,1-.14-1,23,23,0,0,1,0-2.49A4.12,4.12,0,0,0,378.68,200.79Z"/><path class="cls-2" d="M126.35,892.1a3.12,3.12,0,0,1-.37-1c0-.93,0-1.87,0-2.8l9.29-.11.06.79-7.88,0a1,1,0,0,0-.71.67A5.52,5.52,0,0,1,126.35,892.1Z"/><path class="cls-1" d="M224.72,687.41c0-.48.06-1,.05-1.44,0-1.15.87-2.31,0-3.46a8.39,8.39,0,0,0-.71-3.49c-.09-1.68-1.09-3.18-.93-4.91-.37-1.13-.55-2.31-.88-3.45a19.41,19.41,0,0,0-.6-2,6.93,6.93,0,0,0-1.51-2.42c-1-1-2-2.07-3-3.13a8.9,8.9,0,0,1-1.14-1.38,10,10,0,0,0-3-3,6,6,0,0,1-1.47-1.53,15.64,15.64,0,0,0-2.33-2.73,26.67,26.67,0,0,1-4.76-5.78,8.94,8.94,0,0,0-1.05-1.45,40.22,40.22,0,0,1-3.95-5.06c1.32,0,2.64,0,4,0a3.07,3.07,0,0,0,1-.31,2.26,2.26,0,0,1,1-.35c1.08,0,2.17-.06,3.24,0,.56.05,1.08.55,1.63.59,1.31.1,2.64.05,4,0a1.13,1.13,0,0,0,.67-.15c.83-.69,1.81-.51,2.76-.52h3.6c.38-.34.71-.69,1.09-1,.72-.53.79-1.45,1.29-2.11a2.68,2.68,0,0,0,.25-1.74q0-12.42,0-24.84c0-1.19,0-2.39,0-3.59a.8.8,0,0,1,.15-.31c.18.07.49.15.49.24.06.74.91,1.17.77,2s.73,1.22.71,2a2.07,2.07,0,0,0,.4,1.35,1.62,1.62,0,0,1,.29.64c.13.69-.11,1.43.35,2.08.8,1.15,1,2.65,2.12,3.64a1.67,1.67,0,0,1,.49,1.31,1,1,0,0,0,.2.65c1.26,1.31,1.82,3,2.63,4.59a10.44,10.44,0,0,0,2.15,3.22,4,4,0,0,1,.92,1.49c.54,1.18,1.31,2.26,1.77,3.46.68,1.79,2,3.19,2.82,4.87,1,.77,1.09,2.13,2.09,2.86.48.94.94,1.9,1.45,2.82.34.62.48,1.36,1.09,1.81s.56,1.35,1.1,1.8a6,6,0,0,1,1.52,2.39,17.7,17.7,0,0,0,2.38,3.91c0,1,1.35.84,1.54,1.8.13.63,1.35.54,1.37,1.45a7.32,7.32,0,0,1,1.12,1.4,8.27,8.27,0,0,0,1.93,2.53c.94.92,1.81,1.92,2.79,2.8.61.54.58,1.53,1.56,1.84.61.19.6,1.27,1.45,1.42.18,0,.36.32.43.52a5.84,5.84,0,0,0,1.88,2.13c1.22.34,1.91,1.37,2.77,2.19a5.44,5.44,0,0,1,1.46,2,5,5,0,0,1,2,1.47l1.53,1.52c.59.6,1.18,1.19,1.79,1.78a7.18,7.18,0,0,0,.64.47l1,.08,1.77.11c.64.66,1.62.37,2.31.81s1.78.7,2.37,1.55a7.28,7.28,0,0,0,1.28,1.26,1.78,1.78,0,0,0,.9.52c1.13,0,2,.76,2.92,1.19A2.89,2.89,0,0,0,288,686a2.28,2.28,0,0,1,1.67.5,1.7,1.7,0,0,0,1,.22,3.41,3.41,0,0,1,.72,0c.67.2,1.31.51,2,.65s1.43.08,2.13.18c.16,0,.28.34.42.52-3.23,0-6.45,0-9.68.06H225.31A.74.74,0,0,0,224.72,687.41Z"/><path class="cls-1" d="M415.39,543.46a12.31,12.31,0,0,0,.6,4.21,5.75,5.75,0,0,1,.11,1.78,13.85,13.85,0,0,0,.62,4.56,2.84,2.84,0,0,1,.11,1.06c0,1.54,0,3.09,0,4.64,0,.65-.41,1-1.17,1a.87.87,0,0,1-.88-.45,11.46,11.46,0,0,0-1.8-3,2.44,2.44,0,0,1-.49-1.3c-.32-1.14-.7-2.25-1.1-3.36a13,13,0,0,1-.95-2.27c-.24-1.52-.95-3-.83-4.53.07-.87-.44-1.59-.46-2.41l5.61.07h.62Z"/><path class="cls-1" d="M431.08,543.47c.07,2.95.13,5.91.19,8.86a2.41,2.41,0,0,1-.73,1.57,1.32,1.32,0,0,1-.57.4,2.79,2.79,0,0,1-3-1.41,6.9,6.9,0,0,1-.39-1,36,36,0,0,0-3.11-7.45c-.15-.27,0-.69-.05-1h7C430.68,543.45,430.88,543.46,431.08,543.47Z"/><path class="cls-1" d="M402.83,542.53a3.1,3.1,0,0,1,.36,1c0,1.42-.13,2.86.55,4.2a1.78,1.78,0,0,1,.07.7c.06,1.91.13,3.81.18,5.71a1.54,1.54,0,0,1-.25.65c-.07.12-.64-.27-.8-.55s-.32-.39-.34-.61c-.1-.72-.51-1.35-.65-2-.23-1.17-.61-2.28-.85-3.44-.17-.8-.35-1.6-.57-2.4a20,20,0,0,0-.87-2.31,2.29,2.29,0,0,1,0-.7c.21.1.42.19.62.3C401.52,543.76,401.9,543.69,402.83,542.53Z"/><path d="M342.07,62.68l3.57-.07a7.28,7.28,0,0,1,3.13.49,7.17,7.17,0,0,0,1.4.22.9.9,0,0,1,.46,1.19,4.75,4.75,0,0,1-4.2,2.85c-2,.08-4.05,0-6.08.11-.18,0-.51.3-.5.45a8.87,8.87,0,0,1-.87,3.43.88.88,0,0,1-.54.43c-.9.29-1.91,0-2.78.52-.13.09-.43-.08-.64-.15a7.45,7.45,0,0,1-1.31-.52,1.85,1.85,0,0,1-1.07-1.73,11.67,11.67,0,0,1,.23-2.13A5.26,5.26,0,0,1,334,65.2a4.65,4.65,0,0,0,.84-1.15,2.48,2.48,0,0,1,2.62-1.43c1.55,0,3.1,0,4.65,0Z"/></g></g></g></svg>