<svg xmlns="http://www.w3.org/2000/svg" viewBox="0 0 800.74 928.42"><defs><style>.cls-1{fill:#ccc;}.cls-2{fill:#787a62;}.cls-3{fill:#ffd949;}</style></defs><title>Asset 1</title><g id="Layer_2" data-name="Layer 2"><g id="Art"><g id="Wine-Drinker"><path d="M416.89,923.35a14.87,14.87,0,0,0-3.63.67,8,8,0,0,1-2.84.32c-2.89.08-5.78.08-8.67-.11a7.26,7.26,0,0,1-2.75-.78c-1.59-.79-3.17-1.61-4.79-2.35-.61-.28-1.45-.21-1.91-.62-1.26-1.12-3-1.31-4.28-2.43-.8-.71-1.86-1.11-2.44-2.13a3.39,3.39,0,0,0-1.11-1.18,41,41,0,0,1-5-4.28c-1-.94-2.16-1.7-3.25-2.54-1.51-1.18-2.95-2.44-4.53-3.51s-2.63-2.41-4.07-3.48a3.77,3.77,0,0,0-1.86-.79,1.47,1.47,0,0,0-1.45.54,10.16,10.16,0,0,1-.56,1.09,2.08,2.08,0,0,0-.39,1.94,4.64,4.64,0,0,1,.08,3.6c-.07,2.2-.15,4.4-.21,6.6,0,1.66.76,3.2.77,4.87,0,.35.37.72.62,1a2.07,2.07,0,0,1-.05,2.66,18.21,18.21,0,0,1-1.18,1.69,4.5,4.5,0,0,1-3.52,1.85q-6.19,0-12.39,0c-1.38,0-2.75.11-4.13.09-1.79,0-3.58-.1-5.37-.2a3.11,3.11,0,0,1-2.8-2.58,4.48,4.48,0,0,1,.2-2.83,7.76,7.76,0,0,0,.82-4q-.07-6.18-.17-12.38a7.52,7.52,0,0,1,.05-.82,25.72,25.72,0,0,0,.39-3.25,20,20,0,0,0-.41-2.84,4,4,0,0,1,.32-2,4.09,4.09,0,0,0,.09-2.84,4,4,0,0,1,0-2.39,8.77,8.77,0,0,0,.13-2c0-3.31,0-6.62.07-9.92,0-1.4-.58-2.7-.45-4.08.1-1.22.39-2.44.41-3.66.07-4.41.08-8.81.1-13.22,0-.84-.39-1.21-1.26-1.23-.28,0-.55,0-.83,0s-.55,0-.82,0a4,4,0,0,1-2.32-.75,3.43,3.43,0,0,1-1.43-2.41,5.4,5.4,0,0,0-.37-1.16c-1.16-3.4-1.2-3.83-.69-7.64,0-.27.19-.59.09-.8-.7-1.49.12-3,.06-4.44a11.92,11.92,0,0,0-.38-3.65,2.79,2.79,0,0,1,.14-2.4,2.89,2.89,0,0,0,.33-1.59c0-2.21,0-4.41,0-6.61a7.79,7.79,0,0,0-.5-3.23,2.25,2.25,0,0,1,.14-2,3.74,3.74,0,0,0,.35-2c0-1.1-.07-2.2-.06-3.3,0-5.92.15-11.84.1-17.76,0-4.12-.12-8.24-.08-12.37,0-2.61,0-5.23.15-7.84.1-2.07-.49-4.11-.21-6.18a39.77,39.77,0,0,0,.22-5.77c-.05-5.37-.14-10.74-.21-16.11a5.69,5.69,0,0,1-.08-.82c.49-4.25.21-8.51.28-12.77.1-5.09,0-10.18,0-15.27,0-2.34,0-4.68.07-7a10.54,10.54,0,0,1,.33-2.44,9.88,9.88,0,0,0,.16-2.87c0-.21-.29-.48-.51-.6a1.75,1.75,0,0,0-.8-.13q-6.41.09-12.81.2a5.13,5.13,0,0,0-1.61.27,7.77,7.77,0,0,1-2.43.35l-4.54.19a15.68,15.68,0,0,0-3.26.38,17.23,17.23,0,0,1-4.92.36,9.3,9.3,0,0,0-3.26.4,3.91,3.91,0,0,1-2.81-.12,1.67,1.67,0,0,0-1.2-.06c-1.87.83-3.82.21-5.71.42-.81.09-1.53-.71-2.39-.3a4.77,4.77,0,0,1-2,.25c-6.2.28-12.4.23-18.59-.06a2.81,2.81,0,0,1-.82,0c-2.39-1-4.9-.57-7.36-.64-3.44-.09-6.88,0-10.32,0-.69,0-1.37.12-2.06.18s-1.09-.14-1.63-.15c-7.17,0-14.33,0-21.49,0-5.38,0-10.75.09-16.12.15a6.33,6.33,0,0,0-2.44.19,8.71,8.71,0,0,1-3.62.57,8.22,8.22,0,0,0-4,.64,2.94,2.94,0,0,1-1.2.16c-1,0-1.93.05-2.9,0a4.42,4.42,0,0,0-2.38.5,2.68,2.68,0,0,1-1.18.23c-1.1,0-2.2,0-3.3.07-1.79.06-3.57.14-5.36.21-1.65,1-3.5.42-5.25.64-.82.1-1.65,0-2.48.07a1.7,1.7,0,0,0-.78.19,1.42,1.42,0,0,1-1.51,0,5.31,5.31,0,0,0-1.61-.23c-3-.21-6,.45-9-.76a3.54,3.54,0,0,0-1.23-.07h-3.47a13.4,13.4,0,0,1-2.08-1,1.65,1.65,0,0,0-1.86-.1c-1-.78-2-.51-3.09,0a3.46,3.46,0,0,1-2.8,0,1.14,1.14,0,0,0-1.13,0,1.18,1.18,0,0,1-1.17.11,4.67,4.67,0,0,0-2.37-.55c-1.38,0-2.76,0-4.14-.07a3.71,3.71,0,0,1-1.61-.22,6.79,6.79,0,0,0-2.79-.59c-.95-.06-1.94.15-2.81-.43s-2.21-.13-3.16-.79c-.59-.41-1.33-.32-2-.56a9.92,9.92,0,0,0-1.92-.68c-1.06-.16-1.93-.94-3.06-1.06-.48,0-.88-.62-1.35-.91a10,10,0,0,0-2.13-1.21,5.14,5.14,0,0,1-2-1.35c-.6-.58-1.19-1.15-1.81-1.7a1.34,1.34,0,0,0-.72-.34c-.92,0-1.47-.64-2.16-1.09a38.68,38.68,0,0,0-4.9-2.93,24.81,24.81,0,0,1-4.21-2.44c-.08-.06-.26,0-.4,0a19.87,19.87,0,0,0-3.18-1.86,12.25,12.25,0,0,1-2.5-1.42c-2.89-2.51-5.93-4.89-7.92-8.29a14.32,14.32,0,0,0-1.81-2.24,8.25,8.25,0,0,1-1.21-1.65,29.11,29.11,0,0,0-1.92-3.15,13.53,13.53,0,0,1-1.71-3.26,14.48,14.48,0,0,0-1.28-2.55,3.3,3.3,0,0,1-.55-1.09,9.6,9.6,0,0,0-1.44-3.81,2.31,2.31,0,0,1-.38-1.16,9.11,9.11,0,0,0-.78-3.19,21.31,21.31,0,0,1-.25-3.28,7.87,7.87,0,0,0-.29-1.16c-1.07-3.57-1.11-3.57-1.08-6.84a55.4,55.4,0,0,0,0-6.18,4.58,4.58,0,0,1,.21-1.63,35,35,0,0,0,1.52-6.78,2.85,2.85,0,0,1,.23-.79c.6-1.68.83-3.45,1.35-5.14a9.59,9.59,0,0,0,.59-3.6,2.88,2.88,0,0,1,.26-1.6,7.22,7.22,0,0,0,.81-3.58c0-1.41.92-2.6.82-4,1.33-2.56,1.93-5.38,2.81-8.1a21.51,21.51,0,0,0,1.3-5.15c.06-1,1-1.68.9-2.71a1,1,0,0,1,.26-.75c1.25-1.06,1.51-2.61,1.91-4,.81-2.89,2.11-5.62,2.64-8.6.09-.52.5-1,.61-1.5.29-1.33,1-2.55,1-4a11.19,11.19,0,0,1,1.51-5.91c0-1.28.83-2.3,1.3-3.43a22.81,22.81,0,0,0,2-9.11,11.45,11.45,0,0,1,.62-4.05,9.07,9.07,0,0,0,.6-3.62,2.93,2.93,0,0,1,.33-1.59,4.27,4.27,0,0,0,.42-2,14.23,14.23,0,0,1,.29-2.86,11.77,11.77,0,0,0,.47-3.66c-.06-1.29.6-2.38.72-3.6,0-.27,0-.55,0-.82a5.48,5.48,0,0,1,.33-1.59,6,6,0,0,0,.54-2.38,15.86,15.86,0,0,1,.37-4.1,20.94,20.94,0,0,0,.62-4.89c.18-2.59-.22-5.22.58-7.76.06-2.47.2-4.95.15-7.42s0-5.21-.18-7.81a7.92,7.92,0,0,1,.24-3.28q33.42,0,66.83,0c1.24,0,2.47-.09,3.7-.14a2.15,2.15,0,0,1,.46.65,21.81,21.81,0,0,0,2.49,6.49,5.54,5.54,0,0,1,.8,2.32c.14,1.52.72,2.94.9,4.43a4.94,4.94,0,0,0,1.64,3.22,6,6,0,0,1,.72,1.07,13.63,13.63,0,0,0-.45,4c.07,1,0,1.93,0,2.89A9.64,9.64,0,0,0,175,527c.37,1-.11,1.88-.13,2.82a4.79,4.79,0,0,0,.31,1.18,3.24,3.24,0,0,1,0,2,5.6,5.6,0,0,0-.15,3.24,5.14,5.14,0,0,1,.2,2.83c-.5,1.21.39,2.43-.29,3.59-.17.28.06.79.11,1.19s.24.86.11,1.19a7.67,7.67,0,0,0,0,4.85,3.51,3.51,0,0,1,0,2,7.22,7.22,0,0,0-.32,2.44c0,1.79,0,3.58,0,5.37,0,.69.06,1.37.13,2s.29,1.63.31,2.44a5.92,5.92,0,0,1-.22,2.43c-.39.91.41,1.62.14,2.38a9,9,0,0,0-.34,3.26c0,3.72,0,7.43,0,11.15,0,2.48-.08,5,0,7.43s-.37,5.22.39,7.78c-.51,1.5.22,3,.1,4.45a4.68,4.68,0,0,0,.72,2.32,8.66,8.66,0,0,0,2.25,2.9,3.17,3.17,0,0,0,2.22.92c1.79,0,3.58,0,5.37,0l24-.07c6.06,0,12.12-.05,18.18,0s12.12-.07,18.18,0a6.65,6.65,0,0,0,2.05-.16,4,4,0,0,1,3.19.08c2.47-.06,5,.31,7.4-.22a12,12,0,0,1,4.51-.1,10.88,10.88,0,0,0,4.06,0,2.44,2.44,0,0,1,1.2,0,7.9,7.9,0,0,0,2.85.39c1,0,1.93,0,2.89,0h2.89a6.88,6.88,0,0,0,2.84-.44,5.37,5.37,0,0,0,2.82.43,5.92,5.92,0,0,0,1.62-.28,2.06,2.06,0,0,1,1.18,0,6.09,6.09,0,0,0,1.62.26c3.29-.21,6.6.37,9.87-.32a2.38,2.38,0,0,1,.79.07,10.89,10.89,0,0,0,2,.23c3.28-.27,6.59.42,9.84-.4,2.17.6,4.39.14,6.57.36a8.35,8.35,0,0,0,3.26-.3,2.69,2.69,0,0,1,1.61,0,8.78,8.78,0,0,0,4.48.27c1.64-.18,3.24-.66,4.85.06a1.63,1.63,0,0,0,.82,0,14.14,14.14,0,0,1,2-.36c.67,0,1.34.29,2,.29,1.08,0,2.18.33,3.26-.2a2,2,0,0,1,1.18,0,3.54,3.54,0,0,0,1.62.08,9.82,9.82,0,0,1,4.48-.05,7.65,7.65,0,0,0,3.67.16c1.4-.37,2.71,0,4.05,0a9.21,9.21,0,0,0,3.26-.27,3.83,3.83,0,0,1,1.62-.06,42.78,42.78,0,0,0,10.66,0,7.52,7.52,0,0,1,3.27.12,2,2,0,0,0,1.19.05,6.8,6.8,0,0,1,2.86-.25c2,.14,4.07.67,6.11,0,.11,0,.26.09.39.13a11.26,11.26,0,0,0,5.32,0,21.4,21.4,0,0,1,6.54,0,9,9,0,0,0,3.27.07,21.82,21.82,0,0,1,4.1-.29,13.75,13.75,0,0,1,4.08.37,5,5,0,0,0,2.45,0,8.22,8.22,0,0,1,4.06-.19,1.61,1.61,0,0,0,.78-.06,15.23,15.23,0,0,1,4.52-.2,26.78,26.78,0,0,1,4.11.1,33.3,33.3,0,0,1,3.94,1.15,5.3,5.3,0,0,0,4.38-.34,2.84,2.84,0,0,1,2.78,0,79.37,79.37,0,0,1,8,5,1.14,1.14,0,0,1,.3.28c.23.34.62.69.62,1a9.42,9.42,0,0,0,1.28,3.88,17.63,17.63,0,0,1,1.39,4.27,7.35,7.35,0,0,0,.66,2.35,10.48,10.48,0,0,1,1.05,3.11c.11.67.51,1.29.64,2a9.79,9.79,0,0,0,2.47,4.69c1.73,2,3.43,3.94,5,6a51.74,51.74,0,0,0,4,4.71c1.57,1.55,2.7,3.45,4.3,5a70.73,70.73,0,0,1,5.32,5.76c3.7,4.44,7.66,8.65,11.53,12.94,2,2.25,4,4.52,6.05,6.76,1.39,1.54,2.85,3,4.17,4.59,1.94,2.33,4.1,4.45,6.12,6.7.16.17.48.2.73.3l0,0a.65.65,0,0,0,.22.7c0,.13,0,.32,0,.4a4.89,4.89,0,0,1,1.5,4.08,1.89,1.89,0,0,0,.28,1.17,4.67,4.67,0,0,1,.55,2.37,4,4,0,0,0,.22,1.6,5.85,5.85,0,0,1,.58,2.78,2.27,2.27,0,0,0,.15,1.21c.75,1.08.4,2.46.95,3.53s.29,2.47.69,3.59a15.42,15.42,0,0,1,.79,4,1.79,1.79,0,0,0,.25.77,3.54,3.54,0,0,1,.5,2,4.91,4.91,0,0,0,.55,2.78,1.08,1.08,0,0,1-.13,1.16,5.6,5.6,0,0,0-.53,2c-.18.64-.73,1.18-.69,1.9a13.88,13.88,0,0,1-.85,4c-.36,1.44-1.06,2.81-1,4.37,0,.37-.27.75-.38,1.14a18.47,18.47,0,0,1-.49,2,6.94,6.94,0,0,0-.67,1.92,5.24,5.24,0,0,1-.32,2.42c-.45.73-.35,1.62-.7,2.33a8.82,8.82,0,0,0-.73,2.75c-.11.79-.62,1.54-.69,2.32a10.22,10.22,0,0,1-.8,2.73,13.44,13.44,0,0,0-.87,3.12c-.15,1.65-1.14,3.08-1.08,4.76-.65.78-.45,1.87-1,2.68a5.74,5.74,0,0,0-.56,2.78.69.69,0,0,1-.12.38c-.67.77-.55,1.81-.92,2.69a24.17,24.17,0,0,1-1.05,2.64c-.5.86-.11,2-.82,2.71-.24,1.21-.83,2.3-1.1,3.48s-1.14,2.22-1,3.53a1.58,1.58,0,0,1-.22.77c-.51,1.11-1,2.23-1.56,3.32-.1.2-.43.29-.66.43a2.73,2.73,0,0,1-1.17-1.11,6.24,6.24,0,0,0-1-1.29c-2.31-1.76-4.12-4-6.33-5.91-4.94-4.16-9.5-8.75-14.53-12.81-.85-.69-1.61-1.52-2.52-2.13-4.78-3.2-9.28-6.79-13.82-10.31-1-.76-2-1.4-3-2.21-3.61-3.17-7.18-6.38-10.76-9.57a6.42,6.42,0,0,0-.95-.79,18.27,18.27,0,0,1-3.76-3.2,10.11,10.11,0,0,0-2.66-1.91.49.49,0,0,0-.67.26,5.63,5.63,0,0,0-.69,1.47,10.16,10.16,0,0,1-1.75,3.68c-1.41,2-2.73,4.1-4.08,6.17a7.62,7.62,0,0,0-.81,1.87c-1.35,4-3.29,7.81-4.94,11.71a3.57,3.57,0,0,1-.37.73c-2,2.76-3.61,5.82-5.54,8.64a33.67,33.67,0,0,0-2.43,4.3,108.8,108.8,0,0,0-4.45,11,21.13,21.13,0,0,1-1.5,3.8c-.8,1.42-.94,3.11-1.53,4.65-.69,1.77-1.06,3.68-1.79,5.44s-1.22,3.64-1.93,5.41c-1.19,2.92-2.39,5.82-3.47,8.78a73.69,73.69,0,0,0-3.25,9.74,24.75,24.75,0,0,1-1.79,5.89c-.39,2.44-2.05,4.53-1.95,7.11a2,2,0,0,1-.26.77,39.38,39.38,0,0,0-1.56,5.52A69.32,69.32,0,0,1,375,852.38a2,2,0,0,1-.23.34,2.38,2.38,0,0,0-.51,2.67,5.88,5.88,0,0,1,.52,2.82A5.06,5.06,0,0,0,376,862c.43.53.77,1.13,1.16,1.7,1,1.47,1.91,3,3,4.37s2.34,2.32,3.49,3.51a24,24,0,0,1,1.56,1.91,3.36,3.36,0,0,0,1.11,1.17,6.3,6.3,0,0,1,2.75,2.41,78.28,78.28,0,0,1,5.58,5.5,18.72,18.72,0,0,0,2.57,2c1.6,1.06,3.32,1.93,4.86,3.06s3.51,1.6,4.92,3a1.3,1.3,0,0,0,.72.38,23.25,23.25,0,0,1,3.6.75c.34.11.85-.31,1.17-.19a23.73,23.73,0,0,0,6,1.48,4.53,4.53,0,0,1,1.55.56,11.71,11.71,0,0,0,4.38.95c1.77.16,3.58,0,5.32.49a1.4,1.4,0,0,0,.81,0c1.47-.5,3-.21,4.5-.44a3.12,3.12,0,0,0,.2.35c.33.43.64.83.12,1.37a4.89,4.89,0,0,0-1,1.3c-1,2.24-2.61,4.11-3.62,6.33-.09.21-.4.33-.61.5l-2.47-.09a28.33,28.33,0,0,1-4.13-.13c-1.34-.24-2.72-.33-4-.68s-2.35-.77-3.52-1.16a3.33,3.33,0,0,0-1.17-.35c-1.82.13-3.47-.72-5.25-.84a8.85,8.85,0,0,1-3.18-.75,23.31,23.31,0,0,0-3.15-.91,4,4,0,0,1-1.14-.44c-1.74-1.11-3.47-2.21-5.15-3.39-1.13-.78-2.27-1.51-3.48-2.18a19.15,19.15,0,0,1-6.11-4.81,14.5,14.5,0,0,0-3.29-3.11,13.41,13.41,0,0,1-2.07-2c-.66-.68-1.58-1.11-2.24-1.78-.86-.88-1.51-2-2.37-2.84s-2.07-1.8-3.07-2.75c-.49-.46-.83-1.09-1.3-1.59a23.78,23.78,0,0,1-3-4.41c-1-1.67-2.34-3-3.35-4.69a7.19,7.19,0,0,1-1.31-3.4,7.64,7.64,0,0,0-.45-1.56,1,1,0,0,0-1.12-.91q-9.7,0-19.42,0l-.41,0c-.24,0-.71.58-.71.87,0,4.27,0,8.53,0,12.8,0,4.54.09,9.08.06,13.62,0,7.16.23,14.31,0,21.47-.08,2.88,0,5.78.06,8.67,0,.9.39,1.32,1.17,1.32,3.3,0,6.61,0,9.91,0,.28,0,.55,0,.83,0,.9,0,1.33-.46,1.26-1.21a35.76,35.76,0,0,1-.32-3.7c.07-3.72.2-7.43.05-11.15-.07-1.94.75-3.74,1.16-5.6a1.79,1.79,0,0,1,.41-.7,13.27,13.27,0,0,1,2.63-2.61,3.19,3.19,0,0,1,1.9-.63,30.76,30.76,0,0,0,3.72-.09,6.34,6.34,0,0,1,4.6,1.44c1.51,1.17,3.26,2,4.48,3.6a7.36,7.36,0,0,0,1.89,1.57,44.88,44.88,0,0,1,6.46,5.08c1.73,1.59,3.53,3.07,5.39,4.49a10.64,10.64,0,0,1,2.06,2,4.35,4.35,0,0,0,3.05,1.92c1.73.84,3.49,1.61,5.17,2.53a2.63,2.63,0,0,0,2.29.12,23.22,23.22,0,0,1,3.26-.36c1.21-.19,2.4-.48,3.6-.72a2.94,2.94,0,0,1,.42,0c1.1,0,2.2-.07,3.3,0a8,8,0,0,1,3.65.49c1.89.12,3.78.54,5.66-.3a5.44,5.44,0,0,1,2-.08,2.21,2.21,0,0,1-.22,1.52,32.56,32.56,0,0,0-3.19,5.44,2,2,0,0,1-1.92,1.19A1.36,1.36,0,0,0,416.89,923.35Z"/><path class="cls-1" d="M485.54,783.77c.23-.14.56-.23.66-.43.55-1.09,1.05-2.21,1.56-3.32a1.58,1.58,0,0,0,.22-.77c-.16-1.31.7-2.34,1-3.53s.86-2.27,1.1-3.48c.71-.76.32-1.85.82-2.71a24.17,24.17,0,0,0,1.05-2.64c.37-.88.25-1.92.92-2.69a.69.69,0,0,0,.12-.38,5.74,5.74,0,0,1,.56-2.78c.5-.81.3-1.9,1-2.68-.06-1.68.93-3.11,1.08-4.76a13.44,13.44,0,0,1,.87-3.12,10.22,10.22,0,0,0,.8-2.73c.07-.78.58-1.53.69-2.32a8.82,8.82,0,0,1,.73-2.75c.35-.71.25-1.6.7-2.33a5.24,5.24,0,0,0,.32-2.42,6.94,6.94,0,0,1,.67-1.92,18.47,18.47,0,0,0,.49-2c.11-.39.41-.77.38-1.14-.11-1.56.59-2.93,1-4.37a13.88,13.88,0,0,0,.85-4c0-.72.51-1.26.69-1.9a5.6,5.6,0,0,1,.53-2,1.08,1.08,0,0,0,.13-1.16,4.91,4.91,0,0,1-.55-2.78,3.54,3.54,0,0,0-.5-2,1.79,1.79,0,0,1-.25-.77,15.42,15.42,0,0,0-.79-4c-.4-1.12-.08-2.42-.69-3.59s-.2-2.45-.95-3.53a2.27,2.27,0,0,1-.15-1.21,5.85,5.85,0,0,0-.58-2.78,4,4,0,0,1-.22-1.6,4.67,4.67,0,0,0-.55-2.37,1.89,1.89,0,0,1-.28-1.17,4.89,4.89,0,0,0-1.5-4.08c-.07-.08,0-.27,0-.4.33,0,.58-.19.49-.48s-.42-.31-.71-.22l0,0c0-1.23-.07-2.46-.1-3.69-.86-1.07-.67-2.35-.69-3.56a5.81,5.81,0,0,0-.61-2.35c-.31-.72-.16-1.63-.4-2.39a6.18,6.18,0,0,1-.62-1.92c0-2,.29-4.11-.79-6a2.59,2.59,0,0,1-.07-1.22,4,4,0,0,0-.55-2.36,2.4,2.4,0,0,1-.27-1.17c-.05-1,0-1.93-.05-2.9a2.39,2.39,0,0,0-.24-1.17,4.37,4.37,0,0,1-.53-2.37c0-.81-.14-1.63-.21-2.44-.76-.95-.55-2.09-.61-3.17s-.09-2.2-.14-3.3c-1.09-1.46-.6-3.17-.74-4.79a1.88,1.88,0,0,0,0-.41c-.11-.38-.25-.76-.37-1.15a6.1,6.1,0,0,1-.33-1.16c-.21-1.74.3-3.58-.78-5.21-.2-.3-.09-.81-.1-1.22,0-1.65-.05-3.3-.1-4.95a3,3,0,0,0-.21-1.19,3.91,3.91,0,0,1-.53-2c0-1,0-1.93,0-2.89a19.91,19.91,0,0,1,0-2.89c.15-1.06-.7-1.77-.75-2.72,0-.55,0-1.1,0-1.65,0-2.48,0-5-.08-7.44a4.54,4.54,0,0,0-2.47-3.91c-1.76-.78-3.13-2.16-4.85-3-1.59-1.72-3.85-2.61-5.39-4.39a4.15,4.15,0,0,0-1.33-.93,3.3,3.3,0,0,1-1.65-1.72,4.22,4.22,0,0,0-1-1.26c-.4-.36-1-.53-1.32-.92a3.44,3.44,0,0,1-.78-1.41,4.8,4.8,0,0,0-1.33-2,22.22,22.22,0,0,1-1.67-1.83,2.32,2.32,0,0,1-.42-1.11,2.61,2.61,0,0,0-.64-1.48c-.35-.41-.92-.84-1-1.3a7.68,7.68,0,0,0-.95-2.67c-.46-1-1-1.95-1.43-2.93a.71.71,0,0,1-.12-.38c.24-1.7-1.2-3.07-.92-4.77a13.14,13.14,0,0,1-.77-1.87,13.56,13.56,0,0,1-.2-2c-.79-.93-.55-2.07-.67-3.15-.21-1.75.43-3.59-.66-5.24a1.56,1.56,0,0,1-.1-.79c0-2.76,0-5.51,0-8.27a4.43,4.43,0,0,1,.31-1.16c.12-.39.26-.77.37-1.16a1.85,1.85,0,0,0,0-.41c0-1.1.09-2.2,0-3.3A9.26,9.26,0,0,1,459,542c.25-.75-.08-1.7.19-2.44a12.41,12.41,0,0,0,.86-2.69c.09-.64.68-1.16.68-1.9a2.86,2.86,0,0,1,.29-1.59c.67-.93.43-2.13,1.1-3.07A25.69,25.69,0,0,0,464,526.7c1.12-2.18,2-4.51,3.88-6.18a8.07,8.07,0,0,1,1.55-2.38,9.63,9.63,0,0,0,2.19-2.43c.57-1.11,2-1.38,2.72-2.37.25-.32.61-.56.86-.88a2.22,2.22,0,0,0,.23-.7,4.37,4.37,0,0,0-2-.19q-18.39,0-36.77,0H376.3q-28.31,0-56.61,0l-39.25,0-43.8,0c-.55,0-1.1,0-1.65,0a1.1,1.1,0,0,1-.78-.82c0-.82-.05-1.65-.05-2.48q0-14.25,0-28.51c0-1,.05-1.92.07-2.89,1.93,0,3.86,0,5.79,0a2.23,2.23,0,0,0,1.18-.18c1-.74,2.09-.57,3.18-.57q9.5,0,19,0a4.32,4.32,0,0,0,2.7-.74c.28-.19.8-.05,1.21-.06.13.22.22.56.41.62a3.72,3.72,0,0,0,1.21.15l37.61,0c1.24,0,2.48.06,3.72,0,2-.13,4.12.58,6.08-.46a.39.39,0,0,1,.35,0c1,.73,2.13.44,3.21.45,5.65,0,11.3,0,16.94,0h90.94c.83,0,1.65,0,2.48,0q21.69,0,43.38,0c7.3,0,14.6,0,21.9,0,6.47,0,13,.08,19.42.08q30.39,0,60.77,0l35.14,0c2.06,0,4.13-.05,6.2-.07l.91,1.8c-.24,1.07.71,1.73.95,2.65a1,1,0,0,0,1,.53c.54-.05,1.23.14,1.61-.13a5,5,0,0,1,3.15-.67q7.83,0,15.66,0c3,0,6,0,9.07,0a2.49,2.49,0,0,0,1.55-.39,2.25,2.25,0,0,1,2.68.06,2.28,2.28,0,0,0,1.15.31c1.92,0,3.84,0,5.77,0a3.87,3.87,0,0,0,2.34-.54,2,2,0,0,1,1.18-.21c1.08.09,2.23-.36,3.23.23a4.45,4.45,0,0,0,2.36.51c3.16,0,6.32,0,9.48,0a3.25,3.25,0,0,0,1.92-.56,1,1,0,0,1,1.14,0,3.13,3.13,0,0,0,1.92.56c1,0,1.93,0,2.89,0,1.48,0,3-.33,4.34.75l1.65,0a1,1,0,0,0,.92-.65,3.47,3.47,0,0,1,.58-1.93c.51-.56.1-1.37.53-1.93.14-.19.43-.27.65-.4H786.2c1,0,1.93,0,2.9,0,1.35,0,2.77.28,4-.7,2.06,0,4.12-.06,6.18,0,.55,0,1.49,1.2,1.49,1.81,0,1.1,0,2.2,0,3.3s.28,2.47-.64,3.56c-.22.26-.18.78-.18,1.18,0,5.92,0,11.85,0,17.77a3.6,3.6,0,0,0,.59,2.34,1.33,1.33,0,0,1,.22.76c0,1.24,0,2.48,0,3.72a2,2,0,0,1-1.87,1.82c-2.34,0-4.69.08-7,.08H745.54c-13.92,0-27.83,0-41.74,0q-25.21,0-50.42-.05c-15.84,0-31.68,0-47.52,0q-18.39,0-36.78,0c-2.48,0-5,0-7.44,0-.18,0-.39.24-.54.41s0,.27.13.37.39.4.56.61c.86,1.07,2.62,1.14,3.11,2.55s1.8,2,2.63,3.11c.17.21.44.39.51.63.48,1.53,1.76,2.42,2.75,3.54a2.84,2.84,0,0,1,.84,1.81,3.24,3.24,0,0,0,.46,1.12c.95,1.95,1.88,3.91,2.86,5.85a5.33,5.33,0,0,1,.81,2.69,2.09,2.09,0,0,0,.34,1.16,3.34,3.34,0,0,1,.47,2c0,.28-.07.64.07.81.88,1,.73,2.32.89,3.52a4.64,4.64,0,0,1,.7,3.14c0,.55,0,1.1,0,1.66.05,1.21-.2,2.47.58,3.59a2.46,2.46,0,0,1,.15,1.2c0,2.76,0,5.51,0,8.27a4.16,4.16,0,0,1-.5,2,3,3,0,0,0-.22,1.19c0,1.1,0,2.2-.07,3.3s.1,2.22-.69,3.14a7.37,7.37,0,0,1-.34,2.4,8.13,8.13,0,0,0-.69,2.75c-.15,1.05-.86,2-.85,3.12s-.85,2-1.22,3-1.21,1.83-1.17,3a.8.8,0,0,1-.08.4c-.59,1-1.86,1.73-1.65,3.21,0,.2-.23.49-.42.68a30.12,30.12,0,0,0-3.62,4.94,2,2,0,0,1-.83.83,3,3,0,0,0-1.67,1.7,4.64,4.64,0,0,1-2.26,2.32,5.06,5.06,0,0,0-1.66,1.16c-1.06,1.31-2.7,1.81-3.91,3a22.88,22.88,0,0,1-4,2.72,31.79,31.79,0,0,0-3,2.19c0,2.76,0,5.51-.09,8.26,0,1.35.15,2.73-.61,4a3.52,3.52,0,0,0-.17,1.61c0,1.79,0,3.58-.06,5.37a4.74,4.74,0,0,1-.54,2.78,2.38,2.38,0,0,0-.21,1.18c0,1.65-.06,3.31-.09,5,0,.41.1.93-.11,1.21-.91,1.22-.63,2.63-.75,4-1.1,1.9-.64,4-.77,6a4,4,0,0,1-.53,2.36,2.59,2.59,0,0,0-.28,1.6c0,1.22.16,2.48-.62,3.59a1.8,1.8,0,0,0-.15.79c-.16,1.74.3,3.59-.81,5.19,0,.83,0,1.65-.07,2.48a5.22,5.22,0,0,1-.62,3.17,3.29,3.29,0,0,0-.21,1.6A3.79,3.79,0,0,1,543,669a1.4,1.4,0,0,0-.24.76c-.11,1.21.15,2.5-.71,3.56l-.12,2.87a4.32,4.32,0,0,1-.62,2.76.67.67,0,0,0-.17.36c-.06,1.1-.06,2.21-.16,3.3s-.85,1.69-.75,2.74a4.71,4.71,0,0,1-.6,2.76c-.31.55-.05,1.4-.32,2a8.65,8.65,0,0,0-.77,4,1.28,1.28,0,0,1-.21.77,3.56,3.56,0,0,0-.59,2.34,3.4,3.4,0,0,1-.54,2.36.84.84,0,0,0-.19.36,22.3,22.3,0,0,1-.14,2.47c-.14.79-.56,1.53-.71,2.31a5.32,5.32,0,0,1-.62,2.36,1.51,1.51,0,0,0-.22.77c-.12,1.21,0,2.45-.7,3.58-.26.4-.11,1.07-.17,1.61a3.93,3.93,0,0,1-.26,1.6,4.63,4.63,0,0,0-.6,2.76,5.62,5.62,0,0,1,0,.82c-.06.89-1.13,1.57-.36,2.67a12.29,12.29,0,0,1,.75,2.29,4.85,4.85,0,0,1,.48,1.54c.06.81-.2,1.71.3,2.42s.35,1.61.7,2.32a8.18,8.18,0,0,1,.73,2.31,4.42,4.42,0,0,0,.82,1.38c-.61.21-.93.65-.66,1.24a4.42,4.42,0,0,1,.64,1.92,6.5,6.5,0,0,0,.65,2.35c.26.76.1,1.67.41,2.4a5.82,5.82,0,0,1,.61,2.36c0,.88.76,1.47.77,2.32a14.14,14.14,0,0,0,1.27,4.7c.44,1.14.46,2.42,1.16,3.47-.2,1.43.9,2.59.87,4s1,2.25,1,3.53c1,1.13.4,2.69,1.08,3.9a1.27,1.27,0,0,1,.2.36c.45,2.41,1.9,4.52,2,7a1.79,1.79,0,0,0,.25.77c1.34,2.39,1.68,5.16,2.86,7.61,0,1.4,1.16,2.49,1,4a2.62,2.62,0,0,0,.4,1.13c.44,1,.35,2.19,1.12,3.06-.06,1.16.85,2,1,3.08.76.87.59,2.08,1.12,3.06s.71,2.37,1.31,3.4a22.28,22.28,0,0,1,1.27,3.44,18.23,18.23,0,0,0,1.14,3c.79,1.31.94,2.83,1.58,4.19.23.47.29,1,.52,1.53a17.42,17.42,0,0,1,1.35,3.41,13,13,0,0,0,1.45,2.92c.57,1.09.81,2.3,1.29,3.42a31.44,31.44,0,0,1,2,4.46c.46,1.76,1.48,3.21,2.1,4.85.1.26.36.48.37.73,0,1.15.81,2,1.16,3s1.14,1.93,1.35,3,1.09,1.88,1.6,2.83a6.85,6.85,0,0,1,.83,1.86c.34,1.78,1.43,3.22,2.06,4.87.44,1.14,1.28,2.11,1.42,3.38a1.38,1.38,0,0,0,.32.73,10,10,0,0,1,1.6,3.26c1.05,2.36,2.28,4.65,3.46,7a5,5,0,0,0,1.28,2.07c.44.3.94.52,1.39.81.1.06.12.24.17.36-.38.14-.74.33-.53.83.47,1.11,1.31,2.06,1.39,3.35a1.23,1.23,0,0,0,.35.72,16.13,16.13,0,0,1,2.22,3.86c1.63,3.13,3.2,6.29,4.8,9.44a3.73,3.73,0,0,0,.62,1,8.7,8.7,0,0,1,1.71,2.77,27,27,0,0,0,3.18,5.67c.25.3.29.78.51,1.1,1,1.45,1.53,3.16,2.68,4.57,1,1.25,1.42,2.92,2.54,4.16a6.16,6.16,0,0,1,1,1.79,35.72,35.72,0,0,0,3.56,5.9c.16.23.42.4.52.64a41,41,0,0,0,4.48,7.26,36.54,36.54,0,0,1,2.83,4.93c.53,1.1,1.08,2.19,1.61,3.29a.53.53,0,0,1-.44.79,4.83,4.83,0,0,0-2.78.55c-.32.23-.73.1-1.15-.07-1.77-.7-2.14-.66-4.69.11-.25.07-.63.14-.78,0a4.05,4.05,0,0,0-2.75-.62c-4,0-8-.11-12,0a7.31,7.31,0,0,1-3.48-.94,4.77,4.77,0,0,1-2.12-2.44c-.43-1-1-1.93-1.47-2.9a4,4,0,0,1,.23-.34,1.67,1.67,0,0,0,.09-2.25,23.47,23.47,0,0,0-2.23-2.44,8.49,8.49,0,0,1-2.12-3,6.22,6.22,0,0,0-1.6-2.35,8.89,8.89,0,0,1-1.57-2.37,16.05,16.05,0,0,0-1-1.76c-.73-1-1.79-1.71-2.11-3-1.06-.91-1.43-2.32-2.38-3.31s-1.14-2.16-2.06-3a4.73,4.73,0,0,1-.75-1.43,20.56,20.56,0,0,0-1.48-2.88c-.63-.89-1.15-1.85-1.79-2.71a21.91,21.91,0,0,1-1.72-2.76,37.45,37.45,0,0,0-2.44-4.24,36.94,36.94,0,0,1-2.66-5,20.48,20.48,0,0,0-2.22-3.88,13.61,13.61,0,0,1-1.32-2.51q-1.64-3.28-3.28-6.56a12.45,12.45,0,0,0-1.86-3.14,2.46,2.46,0,0,1-.58-1.06,5.71,5.71,0,0,0-.47-1.54c-.53-1-.88-2-1.41-2.93-1.26-2.25-2.31-4.61-3.45-6.92a3.12,3.12,0,0,1-.44-1.12,3.09,3.09,0,0,0-.81-1.84,3.08,3.08,0,0,1-.86-1.34,14.67,14.67,0,0,0-1.36-3.38,10.79,10.79,0,0,1-1.1-2.6c-.14-1-.83-1.7-1.1-2.63a12.73,12.73,0,0,0-1.35-2.51c-.25-2.37-1.8-4.2-2.61-6.34.11-1.16-1-1.94-.92-3.11,0-.23-.21-.49-.32-.73-1.23-2.58-2-5.36-3.46-7.83a2.74,2.74,0,0,1-.22-.77,29.17,29.17,0,0,0-1.79-5,5.87,5.87,0,0,1-.75-2.32,3.07,3.07,0,0,0-.27-1.18c-.32-.75-.76-1.46-1.05-2.22s-.38-1.59-.73-2.31-.32-1.35-.6-1.94a18.4,18.4,0,0,1-.86-1.86c-.45-1.28-.94-2.54-1.42-3.82a5.82,5.82,0,0,0-1-3.49,12.78,12.78,0,0,1-1.71-5c-.7-.89-.46-2.11-1.07-3.08-.42-.66-.37-1.61-.78-2.28-.53-.86-.38-1.86-.86-2.74a10,10,0,0,1-.5-2.38c-.05-.21-.35-.4-.58-.52a.43.43,0,0,0-.66.29c-.21,1.35-1.13,2.49-1.11,3.9a17,17,0,0,0-1.51,4.2c-.4,1.14-1.12,2.22-1,3.54a2.34,2.34,0,0,1-.38,1.15,27.63,27.63,0,0,0-2.21,6.12c-.1.53-.45,1-.57,1.53a9,9,0,0,1-.56,1.53c-.26.62-.35,1.31-.57,1.95a14,14,0,0,1-.67,1.48c-.25.48-.52,1-.77,1.43l.95,1.37a2.47,2.47,0,0,0-1.77,2.06,6,6,0,0,1-.5,1.54c-.53,1.09-.51,2.42-1.24,3.41s-.59,2.11-1.17,3-.25,2.22-1.12,3c-.31,1-.88,2-1.11,3a14.16,14.16,0,0,1-1.46,2.91,7.35,7.35,0,0,0-.83,2.26,8,8,0,0,1-1.14,2.6c-.37.76-.41,1.6-.75,2.3a10.57,10.57,0,0,0-1.59,4.15c-.69,1.32-1.47,2.61-2.05,4-.74,1.74-2,3.26-2.18,5.23-.7,1.33-1.42,2.63-2.08,4A22.63,22.63,0,0,0,489,850c-.39,1.48-1.33,2.66-1.8,4.07a6.2,6.2,0,0,1-.94,1.33,5.87,5.87,0,0,0-.6,1.06,29.72,29.72,0,0,1-3.83,7.58,6,6,0,0,0-.37,1.15c-.13.38-.19.87-.46,1.09-1,.83-1.34,2.08-1.87,3.15-1,2.07-2.17,4.07-3.15,6.16-.69,1.49-1.82,2.7-2.5,4.19a16.19,16.19,0,0,1-2.46,4.23,7.28,7.28,0,0,0-1,1.78,22.36,22.36,0,0,1-3.23,5.63c-.78,2-2.21,3.73-3.27,5.62a3.32,3.32,0,0,0-.3,1.59c-.65.06-1.33.06-1.76.7-1.23,1.86-2.37,3.79-3.74,5.56a2.25,2.25,0,0,0-.2,1.92,5,5,0,0,0-1.17.21.85.85,0,0,0-.41.62.84.84,0,0,0,.28.68c.44.26,1,.24,1.3.8l-2.72.37a4.06,4.06,0,0,0-.53.67,13.87,13.87,0,0,1-3,4.22,9.28,9.28,0,0,0-2.55,3.64c.27.42.87.28,1.35.44.06,1.17-.75,2-1.16,3-.3.73-1.12,1.17-1.36,2a2.12,2.12,0,0,1-1.29,1.5c-.92.23-1.61.92-2.67.91-4.65,0-9.3,0-13.95,0a3,3,0,0,0-2,.42c-.28.22-.43.14-.73,0a5,5,0,0,0-4.31,0c-.13.05-.23.19-.36.2s-.6.07-.78-.07a4.49,4.49,0,0,0-2.75-.56c-.24,0-.47-.22-.74-.36.17-.35.37-.7.51-1.06.2-.54-.15-1-.81-1.06l-.81-.13a1.36,1.36,0,0,1,1.28-.77,2,2,0,0,0,1.92-1.19,32.56,32.56,0,0,1,3.19-5.44,2.21,2.21,0,0,0,.22-1.52,5.59,5.59,0,0,0,2.63-2.85,8.73,8.73,0,0,1,1.89-3c.37-.31.46-.93.76-1.36s.87-1,1.21-1.59a3.63,3.63,0,0,0,.19-1.17c.21-.17.52-.29.61-.5,1-2.22,2.63-4.09,3.62-6.33a4.89,4.89,0,0,1,1-1.3c.52-.54.21-.94-.12-1.37a3.12,3.12,0,0,1-.2-.35l1.35-.3c.38-.74.77-1.61,1.26-2.41a17,17,0,0,1,1.9-3.13,8,8,0,0,0,.74-1.43c.94-1.5,1.32-3.32,2.71-4.54A25.66,25.66,0,0,1,445.1,878c.26-.48.57-.93.87-1.38a18.12,18.12,0,0,0,2.45-5.09,3,3,0,0,1,.53-1.08,12,12,0,0,0,1.88-3.14c1.15-2.31,2.21-4.66,3.41-6.94a72.74,72.74,0,0,0,3.61-7.3c.93-2.4,2.13-4.67,3.17-7a5.56,5.56,0,0,0,.66-1.91,1.53,1.53,0,0,1,.3-.74,9.38,9.38,0,0,0,1-1.3c.28-.61.29-1.33.58-1.93.81-1.72,1.71-3.4,2.56-5.09.43-.85.84-1.7,1.25-2.56a20,20,0,0,1,1.26-2.54c.57-.83.34-1.84.92-2.69s.6-2,1.1-3c.73-1.44,1.72-2.8,1.83-4.49a13,13,0,0,0,1.52-3.33,26.85,26.85,0,0,1,1.47-3.34,9.79,9.79,0,0,0,1.14-3c.07-.77.68-1.43.82-2.28a10.55,10.55,0,0,1,1.14-2.59c.36-.73.74-1.45,1.11-2.18-.12-1.16.78-2,.89-3.09s1-1.94,1-3.11c0-.48.49-.95.7-1.45.43-1,1.07-1.91.92-3.1a2.51,2.51,0,0,1,.39-1.13c.28-.62.6-1.21.88-1.83.43-1,.38-2.16,1.1-3C485.55,785.42,485.55,784.59,485.54,783.77Zm32.4-168a8.19,8.19,0,0,0-2.84.16.58.58,0,0,0-.4.65,1.23,1.23,0,0,0,0,.39,3.58,3.58,0,0,1,.64,1.91c0,1.23.06,2.47,0,3.71a8.72,8.72,0,0,0,.72,4,4.45,4.45,0,0,1,.08,1.64c0,1.09,0,2.19.07,3.29a2.41,2.41,0,0,0,.17,1.19,5.24,5.24,0,0,1,.6,3.17c0,.27,0,.55,0,.82.09.94-.29,2,.32,2.8.73,1,.21,2.15.71,3.14.15.3.36.45.66.3s.55-.31.57-.49c.1-.95.11-1.9.19-2.85a2.69,2.69,0,0,1,.23-1.19,5.22,5.22,0,0,0,.54-2.35c.22-2-.47-4.13.75-6,.19-.3.05-.81.06-1.22,0-1.37.07-2.74.07-4.11a3.29,3.29,0,0,1,.39-1.57,2.78,2.78,0,0,0,.34-1.15c.06-1.78.06-3.57.08-5.35a1.09,1.09,0,0,0-.77-.82Z"/><path class="cls-2" d="M168.25,499c-1.23.05-2.46.14-3.7.14q-33.42,0-66.83,0c0-.82,0-1.64,0-2.46,0-1.37-.09-2.74-.14-4.11-.84-1.67-.49-3.49-.62-5.24-.09-1.09-.1-2.19-.1-3.29a4.16,4.16,0,0,0-.38-1.58c-.57-1.39-.22-3-1-4.37a1.79,1.79,0,0,1-.15-.8c0-.82-.12-1.65-.1-2.47s-.73-1.46-.88-2.27a3.28,3.28,0,0,1-.14-.81c.15-2.08-.9-4-.94-6-.58-1.14-.31-2.46-.7-3.6a13.16,13.16,0,0,1-.66-4,6,6,0,0,0-.74-2.32c-.38-.87-.64-1.79-1-2.69.18-1.59-.66-2.89-1.16-4.29a4.21,4.21,0,0,1-.34-1.17,12.66,12.66,0,0,0-.9-4.79c.23-1.45-.78-2.59-1-3.95a22.56,22.56,0,0,0-1.21-4.32,12.2,12.2,0,0,1-.36-1.59l.1-.89c1.14-.35,1.65-1.36,2.4-2.3a18.86,18.86,0,0,0,0-2.37c-.13-1,.55-1.79.78-2.69a11.81,11.81,0,0,0,.07-2.46c0-.69.07-1.36.11-2,1-.77.41-2.13,1.12-3a1.78,1.78,0,0,0,.42-1.13c0-1.51,0-3,0-4.54,0-.41-.09-.93.11-1.21,1.09-1.49.67-3.17.68-4.78q0-15.09,0-30.17,0-7.44,0-14.88a3.15,3.15,0,0,0-.21-1.59,4.46,4.46,0,0,1-.6-2.75c0-4.27,0-8.54,0-12.81a3.9,3.9,0,0,0-.74-2.7c-.12-.14,0-.54.07-.77a7.16,7.16,0,0,1,.62-1V329.3c-.34-.4-.67-.84-1.06-1.22s-.48-1-.75-1.43a5.68,5.68,0,0,0-3.83-2c-.41,0-.93-.11-1.21.1-.77.57-1.84.62-2.45,1.42a2.45,2.45,0,0,0-.56,1.05,15.74,15.74,0,0,0,0,2.06v36a5.08,5.08,0,0,0,.4.73,1.23,1.23,0,0,1,.15,1.5,2.35,2.35,0,0,0-.52,1.08c-.06,1.38,0,2.76,0,4.13,0,.25.23.49.35.73a2.2,2.2,0,0,1,.43,1.12c0,1.8,0,3.59,0,5.38a2.32,2.32,0,0,1-.47,1.1,1.85,1.85,0,0,0-.14,1.94,4.37,4.37,0,0,1,.66,2.31c0,6.34,0,12.68,0,19,0,.68,0,1.37,0,2.06a1.55,1.55,0,0,0,.24.76A2.93,2.93,0,0,1,82,409a14.17,14.17,0,0,0,0,2.06,2.67,2.67,0,0,0,.35,1.14,3.33,3.33,0,0,1,.46,1.54c.16,1.6-.49,3.3.64,4.8.22.28.16.78.17,1.19,0,1.1,0,2.2,0,3.3,0,.41-.06.91.15,1.19,1,1.37.59,2.9.62,4.38a2.9,2.9,0,0,1-.06.41c-.13,0-.34,0-.39.09a5.53,5.53,0,0,0-.94,3.07c0,1.51-.07,3-.14,4.54a19.87,19.87,0,0,1-.28,4.1,17,17,0,0,0-.48,4.06c0,1.79-.13,3.57-.2,5.36-.87,2.23-.68,4.58-.74,6.9a4.17,4.17,0,0,1-.27,1.2,5,5,0,0,0-.35,1.59c-.09,3.58-.21,7.16-.33,10.73a4.54,4.54,0,0,1-.18,1.62,13.82,13.82,0,0,0-.62,4.46,9.22,9.22,0,0,1-.14,2.05,21.78,21.78,0,0,0-.67,6.12,5.83,5.83,0,0,1-.3,2,4.74,4.74,0,0,0-.33,1.58c-.09,2.47.2,5-.73,7.35a3.88,3.88,0,0,0,0,1.23c0,.83-.05,1.65-.09,2.48-.09,2.19-.19,4.39-.28,6.58-.85,1.82-.55,3.77-.67,5.68a4.57,4.57,0,0,1-.16,1.63,10.17,10.17,0,0,0-.55,4c-.08,1.78-.23,3.56-.36,5.35a7.56,7.56,0,0,0-.47,3.23c-.07,2.34-.09,4.68-.15,7a5.87,5.87,0,0,1-.24,2,9.17,9.17,0,0,0-.54,3.23c-.09,1.76.34,3.57-.61,5.26-.24.43-.06,1.09-.08,1.63-.08,1.79-.15,3.58-.23,5.37-.82,1.67-.52,3.5-.7,5.26s.31,3.59-.63,5.26c-.12.22,0,.55,0,.82-.1,2.2-.19,4.4-.3,6.6a4.51,4.51,0,0,1-.2,1.62,5.87,5.87,0,0,0-.41,2.4c0,2.2-.14,4.4-.21,6.6a22.68,22.68,0,0,0-.78,5.68,6.3,6.3,0,0,1-.24,1.63,5.64,5.64,0,0,0-.33,2.41,17.9,17.9,0,0,1-.07,2.07c-.08,1.78-.09,3.58-.25,5.36-.08.93-.51,1.84-.61,2.78a29.87,29.87,0,0,0-.15,4.12c.06,1.41-.52,2.68-.62,4-.15,1.78-.12,3.57-.19,5.36a16,16,0,0,1-.29,3.68,17.09,17.09,0,0,0-.56,4.48,6.16,6.16,0,0,1-.2,2,9.26,9.26,0,0,0-.44,3.24c-.08,1.52-.11,3-.19,4.55a4.71,4.71,0,0,1-.26,1.6,4.88,4.88,0,0,0-.44,2c0,1.65-.21,3.31-.13,5s-.51,3.23-.61,4.87c-.11,1.92-.15,3.85-.24,5.77a6.43,6.43,0,0,1-.24,2,7.19,7.19,0,0,0-.41,2.82c0,1.51-.1,3-.18,4.54a4.51,4.51,0,0,1-.18,1.62c-.65,1.45-.49,3-.57,4.47-.06,1.23-.07,2.47-.11,3.7-.82,2-.58,4-.77,6.09a5,5,0,0,1-.25,1.61,6.53,6.53,0,0,0-.41,2.83c0,.82-.13,1.64-.19,2.46a4.43,4.43,0,0,1-2.73-.6,1.61,1.61,0,0,0-1.9,0,3.31,3.31,0,0,1-1.92.53c-.4,0-.81,0-1.22,0a2.23,2.23,0,0,0-1.72.94c-.44.44-.3,1-.38,1.53H29.13c-1.37,0-2.75.08-4.12.12a2.35,2.35,0,0,0-.9-1.28c-.21-.16-.44-.4-.67-.41a15.07,15.07,0,0,0-2.77,0,4.5,4.5,0,0,0-1.37.77,11.71,11.71,0,0,1,0-3.69c.18-1.07-.13-2.18.37-3.24a4.49,4.49,0,0,0,.22-1.61c.06-1.24,0-2.48.14-3.72s-.08-2.76.57-4c.1-1.78.21-3.57.29-5.35a8.59,8.59,0,0,1,.48-3.65,4.57,4.57,0,0,0,.13-1.63c.1-1.92.19-3.85.29-5.77.95-2.94.51-6,.79-9,.15-1.49-.19-3,.58-4.45l.18-3.3a33.23,33.23,0,0,1,.6-6.12,24.27,24.27,0,0,0,.22-4.53,7,7,0,0,1,.49-3.22,3.87,3.87,0,0,0,.23-1.61c.07-1.93.06-3.86.15-5.78a8.57,8.57,0,0,1,.46-3.25,2.37,2.37,0,0,0,.16-.8,28.72,28.72,0,0,0,.23-3.7c-.05-1.15.61-2.11.6-3.22s0-1.93.06-2.89a31.72,31.72,0,0,1,.63-6.13,17.4,17.4,0,0,0,.27-4.1,18,18,0,0,1,.55-4.89,11.88,11.88,0,0,0,.23-3.28,13.12,13.12,0,0,1,.66-5.27.51.51,0,0,0,0-.4c-1.05-1.52.46-2.86.3-4.34a33.31,33.31,0,0,1,0-4.12,1.78,1.78,0,0,1,.14-.8,7.86,7.86,0,0,0,.5-3.22,12.86,12.86,0,0,1,.55-4.07,6.12,6.12,0,0,0,.24-2c.08-2.2.13-4.4.21-6.6a6.72,6.72,0,0,1,.43-2.83,4.22,4.22,0,0,0,.22-1.61c.06-1.37.05-2.75.14-4.12a10.09,10.09,0,0,1,.54-3.64,4.81,4.81,0,0,0,.19-1.62c.08-1.65.13-3.3.22-5,.07-1.23.71-2.34.63-3.62s0-2.48.08-3.72a4.53,4.53,0,0,1,.08-1.23c.92-2.52.45-5.17.76-7.75a14.22,14.22,0,0,1,.5-3.66,4.87,4.87,0,0,0,.14-1.63c.09-2.06.19-4.13.25-6.19a6,6,0,0,1,.43-2.81,4.06,4.06,0,0,0,.24-1.61c.06-1.24.07-2.47.09-3.71a11.14,11.14,0,0,1,.44-3.67,4.85,4.85,0,0,0,.19-1.21c.17-2.19.16-4.41.54-6.56a60.52,60.52,0,0,0,.5-6.57,7.59,7.59,0,0,1,.5-3.22,4.26,4.26,0,0,0,.17-1.62c.06-1.38.09-2.75.15-4.13a7.42,7.42,0,0,1,.1-1.64c.85-3.1.65-6.28.85-9.42.09-1.5.65-2.92.59-4.45s.1-3,.16-4.54c.86-2.52.69-5.14.73-7.74,0-.87.62-1.58.59-2.37-.07-2.49.54-4.93.34-7.42-.06-.81,0-1.65,0-2.47,1.05-2.21.57-4.58.76-6.88a2.71,2.71,0,0,1,.06-.82c1-2.09.6-4.33.76-6.5.08-1,.28-1.89.43-2.83.26-1.62.23-3.29.34-4.94a8.11,8.11,0,0,1,.47-3.23,3.2,3.2,0,0,0,.15-1.21c.1-2.2.17-4.4.27-6.6.07-1.36-.15-2.73.53-4a5.23,5.23,0,0,0,.15-2q.12-2.88.23-5.78c.91-1.81.45-3.79.72-5.68a20.26,20.26,0,0,0,.07-2.06,7.56,7.56,0,0,1,.47-3.23,38.93,38.93,0,0,0,.25-7,13.15,13.15,0,0,1,.43-5.29,9,9,0,0,0,.31-2,13.44,13.44,0,0,1,.63-4.06,7.07,7.07,0,0,0,.24-2,11.35,11.35,0,0,1,.61-3.64,5.38,5.38,0,0,0,.22-1.62,10.25,10.25,0,0,1,.55-3.24,5.71,5.71,0,0,0,.26-1.61,14.08,14.08,0,0,1,.7-4.45,6.69,6.69,0,0,0,.14-1.64,13.39,13.39,0,0,1,.6-4,7.11,7.11,0,0,0,.21-2c.15-1.9-.05-3.84.7-5.69a6.26,6.26,0,0,0,.11-1.64c.16-1.63,0-3.31.73-4.86a1.86,1.86,0,0,0,.09-.82c0-1.66.6-3.23.79-4.85s.76-2.92.85-4.42c.07-1.12,1-2,.89-3.15s.9-2,.85-3.15a1.2,1.2,0,0,1,.21-.77c1.36-1.46,1.6-3.46,2.55-5.11a11.33,11.33,0,0,1,.61-1.07,6.07,6.07,0,0,1,.85-.83c.21-.18.47-.3.68-.48,1-.89,1.43-2.3,2.77-3s2-1.85,3-2.81a6.1,6.1,0,0,1,4-1.94,2,2,0,0,0,1.42-.72,9.67,9.67,0,0,0,1.24-1.62A13.79,13.79,0,0,0,76,279.7c.56-2,1.48-3.84,1.89-5.84.3-1.48.93-2.85,1.15-4.35.08-.53.36-1,.46-1.57a12.23,12.23,0,0,1,.26-2c.85-2.17,1.09-4.5,1.87-6.69a28.36,28.36,0,0,0,1.2-4.33,62.23,62.23,0,0,1,1.73-6.74,12.16,12.16,0,0,0,.84-4A9.72,9.72,0,0,1,86.1,241c.08-.25.26-.63.44-.65.66-.1,1.24-.7,1.93-.44a2.5,2.5,0,0,0,2-.06,4.94,4.94,0,0,1,1.18-.24c.5.17.77.73,1.4.72,1.91-.05,3.83,0,5.74-.07a2.18,2.18,0,0,0,1.15-.27,4.29,4.29,0,0,1,2.75-.52,16.17,16.17,0,0,1,5.23.43,8.82,8.82,0,0,0,2,.25c1.22,0,2.44,0,3.66,0a8.78,8.78,0,0,0,4-.65,4.94,4.94,0,0,1,1.6-.09l1,0c0,2.34,0,4.68,0,7a2.35,2.35,0,0,0,.33,1.14,2.87,2.87,0,0,1,.47,1.53c0,2.21,0,4.41,0,6.62,0,1.08-.21,2.21.63,3.14a1.29,1.29,0,0,1,.16.78,13,13,0,0,1,0,1.65,3.58,3.58,0,0,0,.77,2.69c0,1,0,1.92.07,2.88a2.2,2.2,0,0,0,.23,1.17,4.72,4.72,0,0,1,.6,2.74c.17,1.87-.57,3.86.71,5.61.2.28.08.8.1,1.21.07,1.61-.32,3.3.79,4.75.07.09,0,.27,0,.4a3.18,3.18,0,0,0,.53,2.34c.6.64,0,1.64.69,2.31a1.51,1.51,0,0,1,.44,1.11c0,3.14,0,3.14,1.63,7a3.56,3.56,0,0,0,.7,2.3c.2.3.11.79.15,1.19a3.23,3.23,0,0,0,.18,1.19c.6,1.06,1,2.22,1.61,3.27s.93,1.95,1.5,2.87c-.17,1.34.85,2.25,1.26,3.38.23.63.63,1.19.9,1.81a2.69,2.69,0,0,1,.32,1.14,2.88,2.88,0,0,0,1,2.58,2.59,2.59,0,0,1,.77,1.82,9.66,9.66,0,0,0,1.18,2.55c1,.64,1.28,1.76,1.76,2.71a23.44,23.44,0,0,0,1.52,2.38,12.08,12.08,0,0,0,1.88,2.62A3.94,3.94,0,0,1,144.1,329c.35,1,1.62,1.49,1.75,2.7a.67.67,0,0,0,.23.34,14.45,14.45,0,0,1,4,5.57c.13.36.54.61.8.93.68.84.85,2,1.81,2.68a1.11,1.11,0,0,1,.4.7c.06.6.59.92.78,1.42a10.27,10.27,0,0,0,2.24,3.81c.33.32.28.75.32,1.16a1.43,1.43,0,0,0,.2.76,19.19,19.19,0,0,1,1.89,2.17,4.38,4.38,0,0,0,1.92,1.91,1.56,1.56,0,0,1,.8.9c.21,1.05,1,1.59,1.66,2.29s1.15,1.19,1.66,1.84a6.09,6.09,0,0,1,.48,1.1c.18.36.52.64.48,1.11a2.24,2.24,0,0,0,.44,1.53,10,10,0,0,1,.47,1.11c.19.37.46.69.67,1.05a.84.84,0,0,1,.06.39,11.9,11.9,0,0,0,.08,2.47c.19.77.87,1.36.8,2.27s.93,1.33.8,2.27a18.5,18.5,0,0,0,0,2.47q0,7.44,0,14.89c0,.53.18,1.14-.19,1.59a4,4,0,0,0-.62,2.74c0,1.24,0,2.48,0,3.72a2.56,2.56,0,0,1-.5,1.52,1.52,1.52,0,0,0-.29.74c0,1.93,0,3.86,0,5.79,0,.25.5.64.89.7s.55,0,.83.06a9,9,0,0,1-.22,2.45A16.42,16.42,0,0,0,168,413a8.9,8.9,0,0,1-.39,2.84,4.65,4.65,0,0,0-.24,1.62q-.1,3.91-.16,7.85c0,1.92,0,3.85-.07,5.78a4.28,4.28,0,0,1-.23,1.61,7.65,7.65,0,0,0-.47,2.83,9,9,0,0,1-.2,2.46c-.65,1.73-.54,3.52-.73,5.29a11.2,11.2,0,0,1-.32,2,6.71,6.71,0,0,0-.27,2c0,2.07,0,4.14,0,6.2a3.85,3.85,0,0,0,.08,1.23,12.64,12.64,0,0,1,.45,4.49c.06,3.17,0,6.34.07,9.5,0,2.07,0,4.14.09,6.2a6,6,0,0,0,.16,2.05c.84,2.13.61,4.34.66,6.53s0,4.41,0,6.61a10.67,10.67,0,0,0,.37,2.43A49.92,49.92,0,0,1,168.25,499Z"/><path class="cls-1" d="M67.38,692.72H82.19l12.77,0a.88.88,0,0,0,.94-.6c.14,0,.32-.08.4,0a24.81,24.81,0,0,0,4.21,2.44,38.68,38.68,0,0,1,4.9,2.93c.69.45,1.24,1.08,2.16,1.09a1.34,1.34,0,0,1,.72.34c.62.55,1.21,1.12,1.81,1.7a5.14,5.14,0,0,0,2,1.35,10,10,0,0,1,2.13,1.21c.47.29.87.86,1.35.91,1.13.12,2,.9,3.06,1.06a9.92,9.92,0,0,1,1.92.68c.63.24,1.37.15,2,.56.95.66,2.2.15,3.16.79s1.86.37,2.81.43a6.79,6.79,0,0,1,2.79.59,3.71,3.71,0,0,0,1.61.22c1.38,0,2.76.08,4.14.07a4.67,4.67,0,0,1,2.37.55,1.18,1.18,0,0,0,1.17-.11,1.14,1.14,0,0,1,1.13,0,3.46,3.46,0,0,0,2.8,0c1.07-.47,2.07-.74,3.09,0a1.65,1.65,0,0,1,1.86.1,13.4,13.4,0,0,0,2.08,1H155a3.54,3.54,0,0,1,1.23.07c2.92,1.21,6,.55,9,.76a5.31,5.31,0,0,1,1.61.23,1.42,1.42,0,0,0,1.51,0,1.7,1.7,0,0,1,.78-.19c.83,0,1.66,0,2.48-.07,1.75-.22,3.6.34,5.25-.64,1.79-.07,3.57-.15,5.36-.21,1.1,0,2.2,0,3.3-.07a2.68,2.68,0,0,0,1.18-.23,4.42,4.42,0,0,1,2.38-.5c1,0,1.93,0,2.9,0a2.94,2.94,0,0,0,1.2-.16,8.22,8.22,0,0,1,4-.64,8.71,8.71,0,0,0,3.62-.57,6.33,6.33,0,0,1,2.44-.19c5.37-.06,10.74-.14,16.12-.15,7.16,0,14.32,0,21.49,0,.54,0,1.09.1,1.63.15q0,17.58,0,35.15c0,.55,0,1.1,0,1.65a1.07,1.07,0,0,1-.95,1.11c-.83,0-1.65.06-2.48.06l-7.86,0H194c-3.17,0-6.34,0-9.5,0-.28,0-.8.71-.64.91.77,1,.53,2.38,1.19,3.44a2.36,2.36,0,0,1,.29,1.17c0,3.86,0,7.72,0,11.57,0,1.07-1,1.95-.87,3.11a5.28,5.28,0,0,0-.8,2.29,5.34,5.34,0,0,1-1.06,2.18c-.58.72-.35,1.6-.76,2.31s-.75,1.45-1.19,2.14c-.67,1-1.38,2-2.09,3s-.93,2-1.85,2.68a11.74,11.74,0,0,1-2.74,3.55c-1,1-2,1.95-2.94,2.9a1.7,1.7,0,0,0-.27,2.24,5.73,5.73,0,0,1,.67,1.91c.1.66.65,1.26.66,1.9,0,1.16,1.11,1.93.93,3.11a9.72,9.72,0,0,1,1,3.06c.8,1,.45,2.44,1.34,3.39a6.88,6.88,0,0,0,1.27,3.41c.45.77.21,1.66.7,2.32a4,4,0,0,1,.62,2.34c.05,1.1,1.12,1.92.89,3.11.87,1.09.65,2.64,1.53,3.74,0,1.44.91,2.54,1.42,3.79.25.62.29,1.32.54,1.94a9.89,9.89,0,0,1,.57,1.52,14.79,14.79,0,0,1,.73,2.29,5.08,5.08,0,0,0,1,2.24c.75,1.32.8,2.88,1.58,4.17-.17,1,.84,1.73.82,2.7,0,1.15,1.09,1.92.93,3.09.41.86.86,1.7,1.23,2.58a13.52,13.52,0,0,0,.8,2.27c.49.74.24,1.62.7,2.34a7.58,7.58,0,0,1,1.08,2.19c.25,1.06.8,2,1,3.06.25,1.34,1.25,2.46,1,3.92,0,.34.28.75.45,1.11.56,1.23.93,2.55,1.46,3.77s.42,2.45,1.29,3.41c-.11,1.17.74,2,1,3.07.11.38.57.72.56,1.07,0,1,.88,1.77.84,2.7s.93,1.7.91,2.69.89,1.69,1,2.65c.78.72.5,1.81,1,2.66a7.14,7.14,0,0,1,1.25,3c.05,1,1.06,1.63.94,2.68a1.36,1.36,0,0,0,.21.77,20.87,20.87,0,0,1,1.53,3.76c.39,1.27,1.23,2.41,1.69,3.69.77.72.53,1.81,1,2.65s.91,2,1.4,2.94.93,1.67,1.35,2.52.32,1.84.94,2.67a15.46,15.46,0,0,1,1.22,2.56c.36.73.8,1.43,1.16,2.16s.77,1.74,1.2,2.58a8.17,8.17,0,0,0,1.21,2.12,4.49,4.49,0,0,1,1.3,2.92,4.33,4.33,0,0,1,.68,2.74,3.31,3.31,0,0,0,.3,1.58c.72,1.16.4,2.4.45,3.61,0,.25-.57.69-.89.69l-5.38,0c-.41,0-.93-.13-1.22.07-1.64,1.11-3.47.56-5.21.68a2.09,2.09,0,0,1-1.16-.31,1.5,1.5,0,0,0-1.88,0,2.49,2.49,0,0,1-1.58.33c-1.93,0-3.86,0-5.79,0a5,5,0,0,0-3.09.85,8.68,8.68,0,0,1-1.49.64,10,10,0,0,1-1-.76,2.2,2.2,0,0,0-1.85-.7c-.41,0-.83,0-1.24,0-.71,0-1.16-.24-1.16-.86,0-1.16-.89-2-1-3.09s-.92-2-.94-3.08c-.74-.74-.4-1.88-.94-2.66a4.2,4.2,0,0,1-.53-2.36,1.75,1.75,0,0,0-.21-.78,11.9,11.9,0,0,1-1.45-3.35c-.22-1.08-1-1.94-1.28-3-.78-2.77-2.28-5.2-3.56-7.74a6.42,6.42,0,0,1-.87-2.26c-.06-.91-.77-1.44-.93-2.25s-.77-1.4-.85-2.29a5.77,5.77,0,0,0-.91-2.24,3.77,3.77,0,0,1-.7-2.31,2.77,2.77,0,0,0-.48-1.54c-.44-.84-.75-1.75-1.21-2.57a4.7,4.7,0,0,1-.83-2.69c.08-1.12-1.06-1.94-.81-3.12a6,6,0,0,1-.89-2.26c-.16-.91-.68-1.73-.86-2.7a23.6,23.6,0,0,1-.77-2.29c-.07-.8-.89-1.4-.79-2.29-.62-1.36-1.22-2.72-1.86-4.07a18.2,18.2,0,0,0-.95-1.8,2.6,2.6,0,0,1-.45-1.55c0-.41.11-1-.11-1.21-.79-.89-.62-2.08-1.09-3.06s-1.24-1.84-1.28-3-1-1.65-.87-2.7a1.56,1.56,0,0,0-.27-.76,13.92,13.92,0,0,1-1.22-2.56,20.74,20.74,0,0,0-.75-2.31,17.64,17.64,0,0,0-1-2.65,4,4,0,0,1-.78-1.85c0-1.17-1-2-.95-3.11a1,1,0,0,0-.24-.75c-.8-.74-.37-1.86-.92-2.68a7,7,0,0,1-1.35-4.21.66.66,0,0,0-.14-.38,5.72,5.72,0,0,1-.75-2.31,5.26,5.26,0,0,0-.86-1.84,3.31,3.31,0,0,1-.69-2.31c.08-1.14-1-1.95-.88-3.12,0-.13-.28-.3-.45-.41s-.23.15-.28.26-.12.57-.28.76c-.82,1-.49,2.41-1.36,3.4-.21.25-.07.8-.1,1.21a2.49,2.49,0,0,1-.24,1.19c-.48.83-.89,1.69-1.33,2.54.25,1.19-.91,2-.89,3.11s-.92,1.67-.84,2.71c.06.84-1,1.35-.83,2.26s-.91,1.41-.81,2.27-.52,1.56-.88,2.25c-.7,1.34-.78,2.88-1.54,4.19-.25.43-.14,1.05-.46,1.54a9.22,9.22,0,0,0-1.38,3.8c-.9,1.09-.7,2.62-1.5,3.76a5.89,5.89,0,0,1-.6,1.92c-.37,1-1.25,1.84-1.15,3a5.73,5.73,0,0,0-.84,3.11,2.57,2.57,0,0,1-.44,1.12c-.64,1.35-1.29,2.7-1.94,4-.24.49-.76,1-.72,1.44.08,1.2-1,2-1,3.1s-.94,1.64-.88,2.7-.74,1.7-.86,2.7a7.87,7.87,0,0,1-1.21,2.56,3.92,3.92,0,0,0-.33,2,4,4,0,0,1-.61,2.34A24.62,24.62,0,0,0,123.8,887a2.73,2.73,0,0,0-.41,1.13c.07,1.61-.84,2.84-1.44,4.2-.5,1.11-1.27,2.12-1.13,3.46a2.55,2.55,0,0,1-.39,1.13c-.94,2-1.92,3.89-2.85,5.86a17.6,17.6,0,0,0-1.78,4.09c-.3,1.43-1.45,2.58-1.65,4.13a5.71,5.71,0,0,1-1,2.23,3.68,3.68,0,0,0-.66,2.32.8.8,0,0,1,0,.41,14.92,14.92,0,0,0-.68,1.47,12.76,12.76,0,0,1-.34,1.59,6.53,6.53,0,0,0-.63,1.93,12.79,12.79,0,0,1-.68,1.46c-.18.51-.18,1.08-.35,1.59a11.64,11.64,0,0,1-.66,1.49,2.56,2.56,0,0,1-.22.35c-.42.57-.89,1.09-1.68,1a3.2,3.2,0,0,0-2.92,1.16,1.84,1.84,0,0,1-2.59-.1c-.43-.33-.85-.68-1.35-1.09H90.13c-4.28,0-8.55,0-12.82-.08a1,1,0,0,1-1.09-.95c0-1.49-.27-3,.63-4.41a2.25,2.25,0,0,0,.15-1.2,5.22,5.22,0,0,1,.79-3.13A3.32,3.32,0,0,1,79,914.45a4.17,4.17,0,0,0,.58-1.06c1.31-2.54,2.63-5.07,3.92-7.62.79-1.57,1.13-3.32,1.92-4.89s1.5-2.9,2.25-4.35c.33-2.06,1.45-3.78,2.35-5.6.43-.85.23-1.92,1-2.65.07-1,1-1.6,1-2.66s1-1.63.87-2.69c0-.35.4-.71.47-1.1.18-1,1.13-1.59,1.09-2.62s1-1.63.91-2.68c0-.36.3-.74.43-1.12.32-.9,1.1-1.66,1.09-2.61s.92-1.7.89-2.69,1-1.64.9-2.69.81-1.68.85-2.7a5.55,5.55,0,0,1,.79-1.86c.23-.49.71-1,.69-1.45,0-1.18.91-2,1-3.1s.91-2,.89-3.1c.83-.83.53-2.08,1.14-3,.41-.65.36-1.61.78-2.26s.27-1.62.71-2.34a18.67,18.67,0,0,0,1.1-2.19c.4-.85.25-1.91,1-2.65a7.3,7.3,0,0,1,1.25-3.4c.44-.77.31-1.63.7-2.32a4.87,4.87,0,0,0,.67-2.34,3.68,3.68,0,0,1,.3-1.16,15.27,15.27,0,0,1,.68-1.48,16.56,16.56,0,0,0,1.3-2.55,9.38,9.38,0,0,1,.94-2.66c0-1.41,1.07-2.5,1.07-3.9.87-1,.49-2.43,1.37-3.38,0-1.39,1.05-2.51,1-3.91a6.42,6.42,0,0,0,.85-2.28c.25-.9.57-1.79.86-2.69a18.68,18.68,0,0,0,.78-2.29c.15-.77.85-1.41.77-2.3a.67.67,0,0,1,.08-.39,8.75,8.75,0,0,0,1.46-3.34c.18-1.09,1.13-1.92.94-3.1.91-.94.58-2.37,1.3-3.4a1.26,1.26,0,0,0,.26-.75c-.15-1.46.67-2.61,1.18-3.86.11-.25.42-.46.42-.7a9.06,9.06,0,0,1,.86-2.7,1.9,1.9,0,0,0-.46-1.89c-1-1.14-2.25-2-2.92-3.42s-2-2.2-2.68-3.6-1.8-2.39-2.54-3.68a6.76,6.76,0,0,1-1.3-3,2.46,2.46,0,0,0-.24-.77,14.12,14.12,0,0,1-1.46-3.35,14.32,14.32,0,0,0-1.26-3,4.72,4.72,0,0,1-.28-1.18c-.12-1.07.09-2.2-.66-3.17a2.21,2.21,0,0,1-.15-1.2c0-1.79,0-3.58,0-5.38a3.86,3.86,0,0,1,.54-2.36,1.22,1.22,0,0,0,.2-.77,7.81,7.81,0,0,1,.84-4,1.12,1.12,0,0,0,0-.41c.07-.58-.34-1.2-.82-1.2l-8.68,0H99a3.65,3.65,0,0,1-2.37-.49.62.62,0,0,0-.36-.18c-1.49.08-3-.42-4.45.38a.58.58,0,0,1-.73-.08,2.51,2.51,0,0,0-1.57-.36l-19,0c-1.93,0-3.86,0-5.79.06a2.25,2.25,0,0,1,.25-1.59c.68-.9.34-2.17,1.09-3,.07-1,.16-1.9.22-2.85a6.12,6.12,0,0,1,.53-2.79,2.61,2.61,0,0,0,.26-1.18c.06-1.24.07-2.47.12-3.71a2.74,2.74,0,0,1,.2-1.19,4.16,4.16,0,0,0,0-3.91,3.47,3.47,0,0,1,.11-2.8,3.27,3.27,0,0,0,.41-1.56c0-1.24,0-2.47,0-3.71a18.07,18.07,0,0,1,0-3.29c.23-1.33-.61-2.36-.69-3.57a7.35,7.35,0,0,0-.3-2.42,7.23,7.23,0,0,1-.54-2.8c0-1.51-.08-3-.15-4.52a2.68,2.68,0,0,0-.27-1.17,3.89,3.89,0,0,1-.47-2.38M143.22,803c-.06-1.14.1-2.28-.71-3.19.09-1.16-.85-2-.9-3.1s-1-1.89-1-3.08A1.83,1.83,0,0,0,139,792c-.27-.06-.62,0-.81-.1-1.13-.83-2.63-.61-3.8-1.42-.77-.53-1.56-.1-1.95.72a4.68,4.68,0,0,0-.83,2.7c.15,1-1,1.64-.88,2.69a2.53,2.53,0,0,1-.36,1.14,12.54,12.54,0,0,0-1.14,2.59c-.15.85-.79,1.51-.82,2.27,0,1-.82,1.78-.83,2.7s-.87,1.72-.89,2.7-1.12,1.91-.92,3.09c-.42.85-.86,1.7-1.24,2.57s-.39,2.13-1.07,3.06c-.21.28-.09.8-.09,1.22a2.72,2.72,0,0,1-.54,1.52c-.53.81-.31,1.84-.91,2.68a16.45,16.45,0,0,0-1.4,2.93c-.17.37-.46.77-.42,1.12.15,1.18-.65,2.08-.8,3.13a15.7,15.7,0,0,1-1.39,3.38,2.3,2.3,0,0,0-.28.75c0,1.26-1.12,2.21-1,3.5-.9,1.09-.61,2.67-1.52,3.75.12,1.29-1.06,2.24-.94,3.52-.53,1.1-1.07,2.2-1.61,3.3a5.37,5.37,0,0,0-.85,2.69,2.56,2.56,0,0,1-.32,1.15c-.39.87-.82,1.72-1.23,2.58.16,1.16-.88,2-.9,3.1s-.89,1.64-.9,2.69-.87,1.67-.84,2.7c0,.35-.41.69-.58,1.06a6.65,6.65,0,0,0-.89,2.25c0,1.16-1,1.94-1,3.11,0,.9-1,1.64-.82,2.68-.5,1-1,1.93-1.49,2.9a.73.73,0,0,0-.06.41c.13,1.16-1,1.94-.89,3.11-.47,1-.95,2-1.41,2.93a2,2,0,0,0-.2.78c0,1.13-1.13,1.92-.9,3.11-.41.55-.83,1.1-1.22,1.66a1.26,1.26,0,0,0-.31.73c.12,1.18-.84,2-1,3.1a21.76,21.76,0,0,1-1,3.06,10.75,10.75,0,0,1-1.6,3.28c-.75,1-.63,2.34-1.33,3.4a28.38,28.38,0,0,0-1.64,3.26c-1.91,3.91-3.77,7.83-5.83,11.66-.24.43.3,1,.88,1.07a2.07,2.07,0,0,0,1.55-.39.49.49,0,0,1,.73,0,1.43,1.43,0,0,0,1.88,0c.25-.18.44,0,.72.09a4.48,4.48,0,0,0,4,0,2.51,2.51,0,0,1,2.7.06,1.05,1.05,0,0,0,1.15.14,3.55,3.55,0,0,1,3.89-.12c.15.08.52-.07.68-.22s.72-.65.7-1c-.06-1.29,1.05-2.24,1-3.52.55-1.09,1.09-2.18,1.65-3.27s1-1.92,1.5-2.9a6.79,6.79,0,0,0,.83-1.85,5.31,5.31,0,0,1,.79-2.29,1.61,1.61,0,0,0,.14-.8c.06-1.11,1-1.92.94-3.11,0-.47.5-1,.73-1.44a5.47,5.47,0,0,0,.88-2.69,6,6,0,0,0,.86-2.27,8.31,8.31,0,0,1,1.2-2.56c.52-.84.18-1.94.92-2.69a1.23,1.23,0,0,0,.22-.77,4.16,4.16,0,0,1,.77-2.71,8.45,8.45,0,0,1,.88-2.68,11.33,11.33,0,0,0,1-2.67c.11-.9.85-1.7.81-2.7.66-.77.52-1.86,1-2.64s.37-1.92.93-2.68.28-1.65.72-2.31a5.3,5.3,0,0,0,.67-2.76,2.42,2.42,0,0,1,.29-.74,28.73,28.73,0,0,0,1.26-3,20.28,20.28,0,0,1,1.47-3.34,4.58,4.58,0,0,0,.26-1.19c.2-.92,1-1.67.84-2.7.73-.87.73-2,1.12-3,.53-1.38,1.55-2.58,1.4-4.21,0-.35.3-.73.46-1.11a10.49,10.49,0,0,0,1-2.62c.11-.89.94-1.44.86-2.26-.1-1.06.88-1.72.85-2.71,0-.74.46-1.26.73-1.89s.12-1.1.35-1.58a7.07,7.07,0,0,0,.68-1.9,10.73,10.73,0,0,1,.76-1.88,5.5,5.5,0,0,0,.86-2.27c0-.83.77-1.39.82-2.29a13.85,13.85,0,0,1,.74-2.29c.15-.65-.12-1.43.37-2s.35-1.59.75-2.31.7-1.49,1.13-2.17.2-1.6.67-2.35.37-1.63.81-2.26c.6-.84.23-1.91.89-2.7s.32-1.58.46-2.38a1.18,1.18,0,0,1,.11-.39A3.43,3.43,0,0,0,143.22,803ZM210.8,913.32l-.5-1.11a28.6,28.6,0,0,0-1.65-3.27c-.55-.93-.94-2-1.41-2.93l-1.62-3.28c-.54-1.09-1.16-2.16-1.61-3.29a16.49,16.49,0,0,1-1.3-3,16.12,16.12,0,0,0-1.46-3.33c-.41-1-1.28-1.84-1.07-3-.69-.76-.6-1.79-1-2.66s-.88-1.68-1.29-2.54a7.12,7.12,0,0,1-.9-2.24c-.08-.88-.84-1.46-.84-2.28a5.32,5.32,0,0,0-.87-2.25,16.59,16.59,0,0,0-1-2.24,3.87,3.87,0,0,1-.71-2.31,1.83,1.83,0,0,0-.09-.81,10.85,10.85,0,0,0-1.12-2.17c-.56-.72-.24-1.61-.68-2.33a11.47,11.47,0,0,1-1.64-4.13c-.74-1-.46-2.43-1.35-3.37.21-1.19-.8-2-.95-3.1a9.54,9.54,0,0,0-1.42-3.36,1.48,1.48,0,0,1-.16-.78,6.44,6.44,0,0,0-.79-2.71c-.33-.87-1.07-1.63-.93-2.67a14,14,0,0,1-1.08-3c-.36-.88-.87-1.7-1.31-2.54.25-1.2-.94-2-.89-3.1s-.92-1.64-.89-2.7-1-1.64-.84-2.69c0-.22-.21-.48-.32-.73-.4-.86-.8-1.72-1.19-2.58.15-1.17-1-1.92-1-3.09,0-.94-.95-1.67-.78-2.7-.84-1.12-.67-2.62-1.5-3.76a4.16,4.16,0,0,1-.87-2.24c0-1-1-1.65-.93-2.68s-.89-1.65-.85-2.7-.75-1.69-.87-2.69-.67-1.72-.86-2.68a10.61,10.61,0,0,0-1.26-2.55,1.4,1.4,0,0,1-.21-.77c.16-1.17-.63-2.08-.81-3.12-.15-.84-.7-1.52-.79-2.28a9.87,9.87,0,0,0-1-2.67,5.61,5.61,0,0,1-.85-2.69,8,8,0,0,1-1-2.62.83.83,0,0,0-.64-.4,4.92,4.92,0,0,0-2,.19,5.27,5.27,0,0,1-2.34.62c-1.15,0-2,.78-3,1.2a1.5,1.5,0,0,0-.81,1.35,4.6,4.6,0,0,1-.82,3.1c.05,1.27-1.06,2.23-1,3.51-.83,1.25-1.09,2.5,0,3.76-.16,1.3.92,2.27.94,3.51,1.09,2.47,1.49,5.21,2.87,7.55.5.86.25,1.9.93,2.68.48.56.23,1.33.34,2a1.69,1.69,0,0,0,.21.77c.56.69.43,1.58.75,2.31a5.27,5.27,0,0,1,.73,2.31c.9,1.52,1,3.39,2,4.85a4.46,4.46,0,0,1,.45,1.55c.14.52.53,1,.67,1.47a6.21,6.21,0,0,0,.5,2c.59.91.29,2.19,1.18,3-.19,1.31.93,2.23,1,3.5,0,.92.7,1.72.85,2.7.11.75.66,1.42.81,2.27a8.89,8.89,0,0,0,1.18,2.57,6.37,6.37,0,0,1,.43,1.56c.16.65.54,1.24.7,1.89a3.37,3.37,0,0,0,.52,1.53c.46.57.28,1.32.54,1.94a17.17,17.17,0,0,0,.89,1.83,2.65,2.65,0,0,1,.59,1.5c-.09.9.87,1.43.79,2.28s.7,1.5.78,2.29a4.7,4.7,0,0,0,.83,2.28c0,1.4,1.13,2.49,1,3.91.92,1.08.61,2.65,1.49,3.75a10.67,10.67,0,0,0,1.47,3.77,4.19,4.19,0,0,1,.22,1.2c.06.4,0,.91.19,1.19.79,1,.44,2.44,1.31,3.4a8.69,8.69,0,0,0,1.23,3.42,4.89,4.89,0,0,1,.6,1.92c.87,1.25.8,2.85,1.58,4.16a4.55,4.55,0,0,1,.95,2.23c0,.78.61,1.52.7,2.3.14,1.1,1.23,1.89.94,3.09.26.49.49,1,.77,1.45.9,1.52,1.4,3.24,2.39,4.72a4,4,0,0,1,.82,1.83c.05,1,.68,1.77.91,2.69.38,1.54.42,1.51,1.86,1.51l15.69,0A7.6,7.6,0,0,0,210.8,913.32Z"/><path class="cls-2" d="M267.29,475.2c-.41,0-.93-.13-1.21.06a4.32,4.32,0,0,1-2.7.74q-9.49,0-19,0c-1.09,0-2.19-.17-3.18.57a2.23,2.23,0,0,1-1.18.18c-1.93,0-3.86,0-5.79,0-.17-.2-.3-.48-.52-.6-1.21-.63-2.42-1.24-3.66-1.81-3.62-1.7-3.91-1.88-6.07-4.05a8.43,8.43,0,0,1-1.51-1.94,7.48,7.48,0,0,0-1.24-1.63c-1.7-1.79-3.41-3.58-5.17-5.32a22.82,22.82,0,0,1-4.08-5.63,64.81,64.81,0,0,0-6.17-9.65c-1.34-1.86-2.36-4-3.82-5.78a3.15,3.15,0,0,0-.85-1.82,19.66,19.66,0,0,1-2.16-3c-1-1.46-1.67-3.14-2.84-4.52s-2.19-3.14-3.34-4.67a38.8,38.8,0,0,1-2.84-3.5c-1.31-2.23-3-4.2-4.17-6.52a22.91,22.91,0,0,0-2.66-4.11,23.45,23.45,0,0,1-2.56-3.7,7.24,7.24,0,0,0-.89-1.36c-2.13-2.51-3.76-5.38-5.78-8-.15-.18-.11-.52-.16-.79a4.33,4.33,0,0,1,.54-1.05c1-1.11,2.11-2.19,3.21-3.22.83-.79,1.54-1.59,1.34-2.84a3.63,3.63,0,0,0,.77-2.67c0-5.23,0-10.46,0-15.69,0-1.48.32-3-.78-4.32l-.09-2.06c-1-1-.71-2.29-.8-3.5a2.43,2.43,0,0,0-.36-1.14,2.56,2.56,0,0,1-.44-1.54,2.6,2.6,0,0,0-.06-1.22c-1-1.78-1.86-3.59-2.73-5.41-1.18-.81-1.23-2.46-2.38-3.27s-1.42-2.3-2.4-3.25-2.09-2.19-3.13-3.29c-.41-1.44-1.41-2.6-1.85-4-.08-.25-.38-.43-.46-.68a4.52,4.52,0,0,0-1.28-2c-.78-.76-1.67-1.47-1.47-2.78,0-.2-.21-.51-.41-.68a6.15,6.15,0,0,1-1.52-2.37,8.07,8.07,0,0,0-.72-1.44,16.57,16.57,0,0,0-1.38-1.53c-.48-.49-1-1-1.47-1.45a6.36,6.36,0,0,1-1.32-2,8.66,8.66,0,0,0-2.33-3.3,6.68,6.68,0,0,1-1.37-1.53,6.37,6.37,0,0,1-.68-1.45c-.5-1.44-1.77-2.36-2.33-3.77a5.61,5.61,0,0,0-1.73-2.73.89.89,0,0,1-.37-.69c.21-1.07-.82-1.74-.83-2.67,0-1.18-.79-2-1.19-3a4.93,4.93,0,0,0-1-1.26c-.5-.56,0-1.4-.49-1.93s-.47-1.54-.74-2.28-.6-1.2-.9-1.81a3.55,3.55,0,0,1-.65-1.89c.06-.75-.59-1.19-.86-1.81a5.82,5.82,0,0,1-.8-3.1c.1-.74-.71-1.15-.78-1.84-.13-1.33.28-2.75-.77-3.94-.22-.23,0-.8-.08-1.21-.07-1.2.27-2.47-.63-3.55-.22-.27-.17-.78-.18-1.18,0-1.38,0-2.76,0-4.13s.32-2.77-.75-3.92c0-.94-.26-1.9.36-2.78a1.91,1.91,0,0,0,.09-2.28,2.73,2.73,0,0,1-.52-1.52c0-2.06,0-4.12.06-6.19.6.56,1.22,1.09,1.78,1.69a2,2,0,0,1,.57,1c.14,1.61,1.16,2.76,2,4,1.12.71,1.27,2.11,2.12,3a12.89,12.89,0,0,1,1.69,2.8c.14.23.2.55.39.71a18.94,18.94,0,0,1,2.91,3.94,4.88,4.88,0,0,1,1.06,2.18c1,1.47,2,2.95,3,4.41.23.33.72.57.8.92.41,1.92,2,3.19,2.73,4.93s2,2.87,2.81,4.46a11.06,11.06,0,0,1,1.38,2.48,3,3,0,0,0,1.18,1.64c1,.7,1.19,1.81,1.68,2.76.24.47.17,1.12.44,1.56a7.53,7.53,0,0,0,1.58,1.88c1.52,1.24,2,3.29,3.51,4.5.28.22.3.75.5,1.09a15.18,15.18,0,0,0,1.79,2.74,8.6,8.6,0,0,1,1.81,3.15,2.71,2.71,0,0,1,1.44,2.72.85.85,0,0,0,.35.7c1.31.72,1.72,2,2.33,3.25a12.31,12.31,0,0,0,1.46,2c-.13,1.15.72,1.64,1.46,2.25a5.69,5.69,0,0,1,1,1.3,9.23,9.23,0,0,1,.83,1.42,18.44,18.44,0,0,0,2.67,4.56,28.24,28.24,0,0,1,2.64,4.62c.57,1.08,1.16,2.15,1.74,3.23,1.18.58,1,2.27,2.35,2.76a.89.89,0,0,1,.41.67,6.13,6.13,0,0,0,1.3,2.52,7.19,7.19,0,0,0,1.49,2.37c.21.16.49.42.49.64,0,1.67,1.71,2.49,1.94,4,.76,1.13,1.16,2.5,2.22,3.45.19.87,1,1.26,1.45,2s.81,1.74,1.29,2.55a6.8,6.8,0,0,1,.84,2.29c.07.34.47.64.77.89a6.7,6.7,0,0,1,1.59,2.35c-.15,1.71,1.46,2.56,1.94,4,.25.74,1.3,1,1.42,1.94s1.35,1.38,1.58,2.34a5.2,5.2,0,0,0,1.33,2,2.27,2.27,0,0,1,.43,1.12,2.45,2.45,0,0,0,.67,1.46c.26.32.73.65.73,1,0,1.59,1,2.47,2,3.39a1.47,1.47,0,0,1,.43.7,11.67,11.67,0,0,0,2,3.52c.6.91,1.23,1.8,1.86,2.68s.8,1.73,1.27,2.55c.68,1.18,1.48,2.29,2.13,3.48a11.17,11.17,0,0,0,1.45,2c.53.61.32,1.64,1.18,2.07a6.77,6.77,0,0,0,1.76,2.69c.1,1.18,1.12,1.83,1.61,2.77a4.57,4.57,0,0,0,1.14,1.66,1.76,1.76,0,0,1,.58.57,27,27,0,0,0,1.42,2.91,27.92,27.92,0,0,0,2.18,2.47,4.32,4.32,0,0,1,.65,1c.87,2,2.44,3.62,3.33,5.63a6.08,6.08,0,0,0,.74,1,31,31,0,0,1,2.08,3,10.81,10.81,0,0,0,2.14,3c1,1,1.28,2.4,2.32,3.37.46.43,0,1.36.5,1.9s1.17,1.16,1.76,1.74c.35,1.36,1.66,2.18,2,3.55,0,.11.19.18.3.25s.43,0,.46-.36a31.25,31.25,0,0,1,.81-3.6c.23-1.08.54-2.11.85-3.16,1-3.26,1.74-6.59,2.58-9.9a18.38,18.38,0,0,0,1-4.81,5.24,5.24,0,0,1,.38-1.16,23.34,23.34,0,0,0,1.19-5.18c.06-1.35.92-2.59.87-4,1-2.11,1-4.55,2-6.67a3.35,3.35,0,0,0,.27-.77,13.41,13.41,0,0,1,.63-3.21,13.51,13.51,0,0,0,1-3.13c.22-1.08.62-2.11.87-3.16a19.23,19.23,0,0,0,.93-4,4.78,4.78,0,0,1,.64-2.36c0-1.4,1-2.53,1-3.95s1.06-2.54.92-4c.7-1.08.46-2.44,1-3.53a16.42,16.42,0,0,0,.76-3.17c.31-1.18,1-2.27,1.21-3.45a45.5,45.5,0,0,1,1.66-5.89,59,59,0,0,0,1.68-5.9,45.51,45.51,0,0,1,1.52-5.52,2.75,2.75,0,0,0,.24-.77c.14-2.64,1.52-5,1.9-7.54a9.31,9.31,0,0,0,.88-3.15c.2-.92.65-1.77.79-2.74a14.31,14.31,0,0,1,.84-3.16c1-2.57,1.32-5.31,2.14-7.92.45-1.41.3-3,1-4.39.38-2.71,1.55-5.22,2-7.92a8.55,8.55,0,0,0,.43-1.57c-.06-2,1.05-3.68,1.14-5.61.64-1,.42-2.16.75-3.18a29.36,29.36,0,0,0,.79-3.17,12.28,12.28,0,0,0,.73-3.17c-.08-1.15.83-2,.79-3.16s.56-1.83.78-2.76a1.09,1.09,0,0,1,1.19-.86l1.24,0a3,3,0,0,1,1.59.31,2.42,2.42,0,0,0,1.5.53c1.51,0,3,0,4.54,0q7.36.07,14.74.17a3.5,3.5,0,0,1,1.6.23c1,.58,1.82-.15,2.71-.34a4.7,4.7,0,0,0,3,.83,5.8,5.8,0,0,0,3.38-.81l4.13,0c.52,0,.57.12.49,1-.06.62.24,1.18-.16,1.88a6.35,6.35,0,0,0-1,4.29,3.65,3.65,0,0,1-.63,2.35,1,1,0,0,0,.05.78c.33.6.78,1.14,1.08,1.76a2.76,2.76,0,0,1-.05,2.38,9.6,9.6,0,0,1-.7,1c-.2.36-.52.75-.5,1.11.09,1.69-1,3.12-1,4.79,0,1.5-.82,2.9-.75,4.43,0,1.27-.65,2.37-.76,3.6a7.72,7.72,0,0,1-.74,3.18,12.8,12.8,0,0,1-1.8,5.42,2.24,2.24,0,0,1-.86.84,1.45,1.45,0,0,0-.71.94,8.27,8.27,0,0,0-.12,1.23,6.56,6.56,0,0,1-.78,2.75,4.35,4.35,0,0,0-.81,3.08c.22,1.17-.82,2-.87,3.13a4.53,4.53,0,0,0-.83,2.27c-.08.8-.66,1.54-.72,2.33a10.11,10.11,0,0,1-.64,3.59c-.5,1.1-.32,2.42-.88,3.58a4.55,4.55,0,0,0-.22,2c0,1-.7,1.42-1.35,1.92.2.88.75,1.76-.06,2.62a.58.58,0,0,0-.12.38,8.18,8.18,0,0,1-1.23,4.71,4.39,4.39,0,0,0-.4,2,12.68,12.68,0,0,1-.48,2c-.15.67-.3,1.33-.42,2-.2,1.06,0,2.23-.61,3.18s-.08,1.94-.8,2.72a1.13,1.13,0,0,0-.3.75c0,2.36-.79,4.59-1,6.91,0,.55.11,1.21-.15,1.61-.53.85-.47,1.86-1,2.68a11.26,11.26,0,0,0-.63,1.49,5,5,0,0,0-.53,2.37,5.57,5.57,0,0,1-.71,3.54c.62,1.13-.33,2-.49,3.05a5.41,5.41,0,0,1-1,2.65,1.65,1.65,0,0,0-.34,1.15,4.17,4.17,0,0,1-.77,3.12c0,1.66-1.3,3.05-.95,4.77a4.3,4.3,0,0,0-.64,2.74,3.41,3.41,0,0,1-.47,1.55,2.72,2.72,0,0,0-.51,1.52c.16,1.43-.88,2.58-.87,4a4.92,4.92,0,0,0-.88,3.51,1.38,1.38,0,0,1-.25,1.15,2.45,2.45,0,0,0-.57,1.9v2.52a11.51,11.51,0,0,0-.88.83,1.63,1.63,0,0,0-.52,1.07,10.85,10.85,0,0,1-.26,2c-.21,1,.28,2.22-.67,3.09-.08.07-.08.25-.07.38a26.3,26.3,0,0,1-.1,4.94c-.8,1.49-.79,3.16-1.09,4.76,0,.12-.16.23-.2.35-.27.72-.27.72.27,1.86-.63.51-1.27.94-1.25,2a4.09,4.09,0,0,1-.24,2.38,8.47,8.47,0,0,0-.79,2.28c-1,.88-.46,2.43-1.42,3.33a3.5,3.5,0,0,1-1.48,2.8,2.85,2.85,0,0,0-1,2.16,1.3,1.3,0,0,1-.55,1c-1.34.57-1.61,2.23-3,2.77-.32.13-.49.61-.74.92-1,1.29-1.9,2.72-3.64,3.21-.34.09-.57.56-.87.84a16.25,16.25,0,0,1-4.71,3.21C270.36,473.38,268.85,474.35,267.29,475.2Z"/><path d="M120.07,239.43l-1,0a2.79,2.79,0,0,0-.12-2c-.63-1.22-1.26-2.43-1.88-3.66-.49-1-.92-2-1.44-2.95-.75-1.38-.32-3-1-4.4a2.39,2.39,0,0,1-.27-1.19c.18-2.53-.74-4.86-1.3-7.24-.06-.27-.23-.46-.1-.77a2.41,2.41,0,0,0-.08-2,4.64,4.64,0,0,1-.39-2c.2-3.16,0-6.32.15-9.57,1.32-2.61,2.79-5.25,4-8,1-2.27,2-4.52,3.82-6.24a4.6,4.6,0,0,0,.66-1c1.47-2.48,2.37-5.24,3.85-7.72a10.51,10.51,0,0,0,1-3.53,3.16,3.16,0,0,1,.36-.74,12.44,12.44,0,0,0,1.26-6.39c-.08-1,.55-1.82.61-2.8.06-1.16-.89-2-.75-3.17a2.51,2.51,0,0,0-1.28-2.76c-.28-.16-.33-.72-.49-1.09a1.11,1.11,0,0,0-1.27-.76,2.87,2.87,0,0,0-.41.05,7.4,7.4,0,0,1-4.85-.06,3,3,0,0,0-2.39.26,1.67,1.67,0,0,1-1.58,0,15.7,15.7,0,0,0-1.54-.57,1.61,1.61,0,0,1-1.09-1.15,21,21,0,0,0-.84-2.73,1.69,1.69,0,0,1,2-1.89,6.65,6.65,0,0,1,1.16.41c.63.28,1.22.63,1.85.91A4,4,0,0,0,118,155a11.13,11.13,0,0,0,5.65-.74c.21-.09.51-.45.47-.61-.3-1.2.22-2.48-.45-3.65a3.57,3.57,0,0,1-.34-1.6c0-1.65,0-3.3.13-4.95a2.43,2.43,0,0,1,.44-1.13,28.94,28.94,0,0,1,3.95-5.26,7.76,7.76,0,0,1,1.25-1c.93-.56,1.91-1.06,2.87-1.58,1.79-.12,3.44-.9,5.21-1.16.67-.1,1.33-.3,2-.39,1.91-.25,3.69-1,5.55-1.45.13,0,.23-.15.35-.22a.54.54,0,0,0,0-.94c-.62-.53-1.29-1-1.86-1.6-1.44-1.47-2.6-3.21-4.44-4.27a2.42,2.42,0,0,1-.57-.58,57.79,57.79,0,0,0-9.9-9.87,16.68,16.68,0,0,1-1.51-1.4c-.88-.87-1.32-2.15-2.46-2.76s-1.33-1.71-2-2.56-1.45-2-2.17-3c-.32-.45-.61-.92-.95-1.35-1.45-1.83-2.9-3.65-4.38-5.46a8.59,8.59,0,0,1-.78-1.42,39.09,39.09,0,0,0-3.88-5.8c-.87-1.07-1.89-2-2.2-3.4-1.87-3-3.74-6.07-5.62-9.09a10.3,10.3,0,0,0-.81-.94.87.87,0,0,0-1.39,0c-.19.2-.36.41-.55.61a22,22,0,0,0-2.19,2.46,10.78,10.78,0,0,1-2.62,2.6c-.86.67-1.18,1.87-2.26,2.31a2.18,2.18,0,0,0-2.34,1.69,2.15,2.15,0,0,1-1.08,1.21,22,22,0,0,0-3.11,2,7.87,7.87,0,0,1-1.78,1c-1.37.63-2.7,1.35-4,2-1.7.84-3.44,1.74-5.48,1.45a2.26,2.26,0,0,0-.78.18,1.43,1.43,0,0,0-1.08,1.53c.09.4.21.79.29,1.2a51.53,51.53,0,0,1,1.28,5.6,37.15,37.15,0,0,0,1.47,6,17.22,17.22,0,0,1,.25,2,4.35,4.35,0,0,0,.23,1.62c.7,1.13.33,2.48.89,3.58.64,1.29.27,2.75.75,4s.29,2.78.88,4c.69,1.44.5,3,.73,4.45,0,.26.16.52.22.78a74.65,74.65,0,0,1,2.07,10c.18,1.76,1.14,3.38.94,5.24,0,.36.33.74.41,1.14.32,1.47.92,2.89,1.13,4.35.22,1.63.47,3.23.8,4.85a35.36,35.36,0,0,0,1.36,5.57,2.49,2.49,0,0,1,.17.8,52,52,0,0,0,.83,5.29c.22,1.94,1,3.71,1.31,5.61.11.67.38,1.33.43,2,.16,1.92.93,3.74,1,5.68.77,1.51.49,3.26,1.09,4.79a8.41,8.41,0,0,1,.68,3.21,16.58,16.58,0,0,0,.57,3.22c.31,1.75,1.15,3.39,1,5.21.69,1.38.43,3,1.08,4.36s.33,3,.84,4.44c.36,1,.29,2.18.63,3.21A35.32,35.32,0,0,1,97.66,215a4.41,4.41,0,0,0,.28,1.62c.67,1.13.32,2.46.82,3.59.57,1.3.39,2.73.79,4,.64,2.11.5,4.37,1.37,6.42.16,2.06,1.27,3.95,1.15,6a9.21,9.21,0,0,0,.61,2.77,4.29,4.29,0,0,0-2.75.52,2.18,2.18,0,0,1-1.15.27c-1.91,0-3.83,0-5.74.07-.63,0-.9-.55-1.4-.72a4.5,4.5,0,0,1-.27-.78,32.38,32.38,0,0,0-.78-4.43c-.4-1.28-.24-2.73-.9-4-.18-3.45-1.7-6.63-2-10.06-.09-1.07-.74-2.05-.73-3.19a16.58,16.58,0,0,0-.7-3.61c-.23-1.08-.57-2.12-.79-3.19-.32-1.6-.48-3.24-.88-4.84a30.84,30.84,0,0,0-1.31-5.17,2.63,2.63,0,0,1-.23-.77c-.16-1.36,0-2.79-.55-4.07s-.41-2.44-.74-3.61c-.38-1.34-.37-2.73-.72-4a18,18,0,0,1-.78-3.58,20.35,20.35,0,0,0-.83-3.15,20.43,20.43,0,0,1-.74-4c0-1.8-1-3.42-1.1-5.2,0-.39-.4-.77-.4-1.15,0-2.36-1.11-4.54-1-6.91a2.2,2.2,0,0,0-.27-1.19,12.07,12.07,0,0,1-1.41-5.52c-.06-.8-.46-1.58-.53-2.39-.24-2.93,0-2.65-2.66-4.8-3.2-2.64-6-5.69-8.94-8.55-.39-.38-.67-.88-1-1.28a11.49,11.49,0,0,0-2-2.05,24,24,0,0,1-3.63-3.35,52.63,52.63,0,0,1-7.57-9.7c-.72-1.17-1.61-2.23-2.3-3.41s-1.15-2.49-1.84-3.67a51,51,0,0,1-3.16-5.75c-.81-1.88-1.6-3.76-2.48-5.62S37,103,36.2,101.23a4.41,4.41,0,0,1-.51-2A7.89,7.89,0,0,0,35,96.9c-.43-1.56-1.43-3-1.06-4.72a1.3,1.3,0,0,0-.17-.8c-1.5-3.07-1.31-6.39-1.46-9.66a5.17,5.17,0,0,0-.47-2.39,2.21,2.21,0,0,1-.22-1.19c.26-2.33.1-4.67.18-7a1.85,1.85,0,0,1,.13-.79,5.09,5.09,0,0,0,.45-2.4,16,16,0,0,1,.93-6A13.65,13.65,0,0,0,34,59.55,14,14,0,0,1,35.35,54a1.57,1.57,0,0,0,.23-.78c-.07-1.84,1-3.39,1.34-5.13a28.74,28.74,0,0,1,1.69-4.61c.6-1.52,1.29-3,1.94-4.5s1.67-2.84,1.93-4.52c.08-.48.58-.91.93-1.33a4.78,4.78,0,0,0,1.49-2.86,1.39,1.39,0,0,1,.31-.74c2.56-3.21,4.4-6.94,7.23-9.95a10.65,10.65,0,0,0,1-1.33,11.72,11.72,0,0,1,1.9-2.15c1.24-1.08,2.36-2.3,3.51-3.49s2-2.23,3.1-3.3a8.67,8.67,0,0,1,2-1.44A33.87,33.87,0,0,0,68,5.25a16.52,16.52,0,0,1,5.83-2.93c1.45-.39,2.78-1.22,4.34-1.18a13.86,13.86,0,0,1,4-.74c.66-.08,1.31-.38,2-.4s1,.33,1.58.37c1.78.13,3.57.19,5.35.28,1.11.55,2,1.46,3.33,1.59,1.71.86,3.44,1.69,5.13,2.59a9.7,9.7,0,0,1,1.27,1c2.06,1.61,3.44,3.88,5.4,5.59.91,1.84,2.33,3.36,3.27,5.18.06.12.18.22.23.34.44,1,.34,2.13,1,3.12a6.71,6.71,0,0,1,1.09,2.65c.11.8.6,1.55.69,2.35a22.72,22.72,0,0,0,1.38,5.57,7.72,7.72,0,0,1,.38,2.84c0,1.79,0,3.58.11,5.37a7.61,7.61,0,0,0,.4,2.8,3.9,3.9,0,0,1-.23,3.19,5.66,5.66,0,0,0-.56,2.39c0,1.08.2,2.13-.39,3.21-.5.92-.14,2.19-.85,3.13-.1,2.53-1.66,4.6-2.25,7a2.69,2.69,0,0,1-.49,1.13c-1.4,1.56-1.66,3.75-3.12,5.36,1.32,1.5,2.42,3.06,3.74,4.47a47.82,47.82,0,0,1,3.24,3.73A9,9,0,0,1,116,79.22c.77,1.13,1.51,2.28,2.3,3.4,1.51,2.12,2.78,4.41,4.49,6.39a13.13,13.13,0,0,1,.82,1.42c.51.79.74,1.79,1.75,2.19.21.09.34.42.49.65,1.45,2.32,3.27,4.39,4.71,6.73a9,9,0,0,0,2.47,2.73c.65.45.95,1.41,1.62,1.82,1,.62,1.34,1.74,2.23,2.39a26.22,26.22,0,0,1,2.26,1.8q2.3,2.07,4.53,4.22a5.54,5.54,0,0,1,1,1.33,3.73,3.73,0,0,0,1,1.2A20.17,20.17,0,0,1,150,119.9a6.36,6.36,0,0,0,2.72,2.46,2.88,2.88,0,0,1,1.21,1.09,37.29,37.29,0,0,0,4,4.72,4.39,4.39,0,0,1,1.2,2.11,5,5,0,0,1-.17,3.53,11.61,11.61,0,0,1-1,2.23,7,7,0,0,1-3.5,3.32,48.17,48.17,0,0,0-5.28,2.26,1.44,1.44,0,0,1-.8.16c-1.69-.1-3.2.68-4.78,1.07a13.14,13.14,0,0,1-3.61.66,5.42,5.42,0,0,0-2.73.79c-.6.32-1.2.64-1.79,1a3.2,3.2,0,0,0-1.11,2.92,19.67,19.67,0,0,0,.86,2.73,4.92,4.92,0,0,1,.57,2,10.1,10.1,0,0,0,1.35,4.27,7.58,7.58,0,0,1,1.11,2.64c.17,1.9,1.16,3.67.85,5.67a18.57,18.57,0,0,0,.07,2.88c0,3.8-.07,4-1.53,8.41-.3.89-.3,1.89-.59,2.79s-.91,1.72-1.14,2.64a22.11,22.11,0,0,1-2.16,4.87,10.08,10.08,0,0,0-1.43,3.39c-.11.85-.9,1.37-1.2,2.12a8.61,8.61,0,0,1-2.11,3.42,8.31,8.31,0,0,0-2.27,3.86,12.26,12.26,0,0,1-1.61,3.29c-.37.58-.93,1-1,1.76-.14,1.08-.69,2.07-.63,3.21.15,2.45-.37,4.94.53,7.34a10.19,10.19,0,0,0,.83,4.83,3.27,3.27,0,0,1,.18,1.63c-.09,1.54.6,2.94.77,4.43s.07,3,.36,4.51a20.81,20.81,0,0,1,.4,3.23,8.78,8.78,0,0,1-.57,2.79c0,.13-.08.26-.13.38-.26.57-.92.46-1.32.78s-.77.77-1.22,1.06a2.36,2.36,0,0,1-1.11.33C121.43,239.48,120.75,239.44,120.07,239.43Z"/><path d="M585.72,863.84c-.05-.12-.07-.3-.17-.36-.45-.29-.95-.51-1.39-.81a5,5,0,0,1-1.28-2.07c-1.18-2.3-2.41-4.59-3.46-7a10,10,0,0,0-1.6-3.26,1.38,1.38,0,0,1-.32-.73c-.14-1.27-1-2.24-1.42-3.38-.63-1.65-1.72-3.09-2.06-4.87a6.85,6.85,0,0,0-.83-1.86c-.51-.95-1.36-1.65-1.6-2.83s-1-1.93-1.35-3-1.12-1.9-1.16-3c0-.25-.27-.47-.37-.73-.62-1.64-1.64-3.09-2.1-4.85a31.44,31.44,0,0,0-2-4.46c-.48-1.12-.72-2.33-1.29-3.42a13,13,0,0,1-1.45-2.92,17.42,17.42,0,0,0-1.35-3.41c-.23-.51-.29-1.06-.52-1.53-.64-1.36-.79-2.88-1.58-4.19a18.23,18.23,0,0,1-1.14-3,22.28,22.28,0,0,0-1.27-3.44c-.6-1-.74-2.34-1.31-3.4s-.36-2.19-1.12-3.06c-.16-1.08-1.07-1.92-1-3.08-.77-.87-.68-2.06-1.12-3.06a2.62,2.62,0,0,1-.4-1.13c.15-1.46-1-2.55-1-4-1.18-2.45-1.52-5.22-2.86-7.61a1.79,1.79,0,0,1-.25-.77c-.14-2.5-1.59-4.61-2-7a1.27,1.27,0,0,0-.2-.36c-.68-1.21-.13-2.77-1.08-3.9,0-1.28-1-2.24-1-3.53s-1.07-2.54-.87-4c-.7-1-.72-2.33-1.16-3.47a14.14,14.14,0,0,1-1.27-4.7c0-.85-.79-1.44-.77-2.32A5.82,5.82,0,0,0,538,741c-.31-.73-.15-1.64-.41-2.4a6.5,6.5,0,0,1-.65-2.35,4.42,4.42,0,0,0-.64-1.92c-.27-.59.05-1,.66-1.24.5.46,1,.89,1.52,1.38q2.16,2.22,4.29,4.47c2.75,2.89,5.74,5.53,8.25,8.66a70.34,70.34,0,0,0,5.11,5.4c4.34,4.4,8.54,9,12.85,13.37,6.83,7,13.8,13.86,20.72,20.78a49,49,0,0,0,4.81,4.52,26.43,26.43,0,0,0,4.39,4.26c.31.26.56.61.89.85,1,.75,1.48,2,2.5,2.73a30.74,30.74,0,0,1,2.73,2.51c3.69,3.5,7,7.35,10.45,11.11a35.22,35.22,0,0,1,4,4.7,7.94,7.94,0,0,0,1.09,1.24c3.28,3.33,6.1,7.06,9.13,10.62,2.5,2.93,5.06,5.8,7.57,8.72,1.25,1.46,2.44,3,3.65,4.46a1.15,1.15,0,0,1-.12,1.5,14.33,14.33,0,0,1-3.75,3.29,4.71,4.71,0,0,0,.73,1c.54.41,1.18.69,1.74,1.09a14.59,14.59,0,0,0,2.29,1.7c.72.32,1.73,0,2.43.3,1.91.9,4.12.27,6,1.29,1.65,0,3.3.05,4.95,0,.66,0,1.34-.45,2-.37s1,.47,1.53.49a3.77,3.77,0,0,0,2-.28,4.43,4.43,0,0,1,2.39-.41c1.64,0,3.29-.05,4.93-.08l4.55-.07a21.15,21.15,0,0,0,4.78-1.11c2.24-.55,4.58-.87,6.66-2,.33-.18.82-.05,1.22-.12a2.56,2.56,0,0,0,1.16-.37c1.15-1,2.66-1.45,3.61-2.69a1.71,1.71,0,0,1,.6-.57c2.44-1,4.1-3.17,6.59-4.07a10.87,10.87,0,0,0,2.71-1.83,43.78,43.78,0,0,0,6.75-6.58,27.2,27.2,0,0,1,5.11-4.77c1.13-.77,2-1.9,3.27-2.49a4.82,4.82,0,0,0,1.2-1.11c.39-.38.68-.91,1.13-1.17,2.16-1.23,3.91-3,6-4.32a15.06,15.06,0,0,0,1.93-1.55,37.91,37.91,0,0,1,3-2.8,21.58,21.58,0,0,1,3.58-2,4.33,4.33,0,0,0,1.37-.87c3-3.4,6.78-6,10.23-9a8.51,8.51,0,0,0,1.4-1.48,5.06,5.06,0,0,1,1.6-1.25,3.66,3.66,0,0,1,3.88-.3,3.33,3.33,0,0,0,1.58.36,3,3,0,0,1,2.86,2c.11.22.22.58.11.75a6.3,6.3,0,0,0-.77,3.17,5.13,5.13,0,0,0-.63,2.78c-.09,1.4-1,2.55-1.12,3.93,0,.47-.57.92-1,1.3a7.83,7.83,0,0,0-2.29,2.86c-.36,1-1.44,1.64-1.53,2.86a2.7,2.7,0,0,1-1.13,1.67,4.46,4.46,0,0,0-1.4,2,5.23,5.23,0,0,1-1.5,2c-1.06,1.07-2.09,2.18-3.13,3.28a19.91,19.91,0,0,0-3.24,4.74c-.18.37-.36.74-.53,1.12a17.27,17.27,0,0,1-4.2,6,9.35,9.35,0,0,0-2.66,4.06,8.06,8.06,0,0,1-.94,1.82c-1,1.47-2.07,2.89-2.94,4.45a10.81,10.81,0,0,1-1.78,2.27c-1.46,1.47-2.59,3.22-4,4.72a17,17,0,0,0-2.7,4.09A15.47,15.47,0,0,1,716,865c-1.15,1.38-1.73,3.12-3,4.43-.18.19-.23.52-.41.7a49.12,49.12,0,0,1-6.29,5.94,10,10,0,0,1-3.27,1.67,31,31,0,0,0-3.43,1.36c-.76.29-1.41.88-2.17,1.16s-1.57.38-2.35.66a12.8,12.8,0,0,1-6,1.08,7.83,7.83,0,0,0-3.66.44,2.31,2.31,0,0,1-.77.2,69.26,69.26,0,0,0-11,1.17c-1.3-.32-2.36.65-3.61.64-1.1,0-2.2.11-3.3.16a5.75,5.75,0,0,0-2.26.92,1,1,0,0,0-.48,1.05c0,.41.11.82.18,1.23a2.31,2.31,0,0,0,.73,1.44,65.17,65.17,0,0,1,7.1,6.9c1.21,1.35,2.85,2.13,4.24,3.24a2.81,2.81,0,0,0,1.58.35,2,2,0,0,1,2,1.66,7.74,7.74,0,0,0,.62,2.78c.25.45-.72,3-1.09,3.42-.55.61-1.11,1.22-1.7,1.8a53.72,53.72,0,0,0-5.3,5.78,3.68,3.68,0,0,1-.9.81,9,9,0,0,0-2.29,2.35,30.12,30.12,0,0,1-4.26,4.48,7.07,7.07,0,0,1-1.7,1.15,2.63,2.63,0,0,1-2.74-.14,5.68,5.68,0,0,1-2.77-3.43,2.86,2.86,0,0,0-.54-1.09,9.61,9.61,0,0,0-1.75-1.74,36.84,36.84,0,0,1-5.18-4.72c-1.94-2-4.08-3.7-5.89-5.78a5.55,5.55,0,0,0-1.53-1.38,7.09,7.09,0,0,1-2.33-2.26,8.69,8.69,0,0,0-2.06-2,21.48,21.48,0,0,1-2.08-1.95c-1.15-1-2-2.19-3.28-3.08a37.17,37.17,0,0,1-3.56-3.44c-1.1-1-2.25-2-3.35-3.06-.91-.85-1.76-1.75-2.64-2.62-2.85-2.79-5.6-5.68-8.67-8.25a70.38,70.38,0,0,1-5.29-5.22,2.73,2.73,0,0,0-3-.64c-1,.33-2,.75-3.06,1.13a1.45,1.45,0,0,1-1.17,0,9.28,9.28,0,0,1-3.17-1.86c-1.26-1.35-3-1.93-4.37-3a44,44,0,0,0-4.4-3,3.12,3.12,0,0,0-1.45-.73,3.21,3.21,0,0,1-1.82-.87A14,14,0,0,0,585.72,863.84Zm147-40.67,0,.05c-.65.1-1.3.19-1.36,1a17.57,17.57,0,0,1-2.41,2.25c-3.14,2-5.87,4.56-8.81,6.82-1.52,1.17-3,2.45-4.4,3.72a16,16,0,0,0-1.71,1.78c-1.93,2.35-4.12,4.44-6.21,6.63a20.56,20.56,0,0,1-6,4.34,14.53,14.53,0,0,0-2.75,1.78,56.57,56.57,0,0,1-8.86,6,10.88,10.88,0,0,1-2.64,1.1c-1.34.3-2.65.77-4,1A28,28,0,0,0,678,861c-1.29.47-2.66.62-4,1a13.76,13.76,0,0,1-3.28.07c-2.34,0-4.68.13-7,.2a2.42,2.42,0,0,0-.81.14,6.76,6.76,0,0,1-4.83.14,3.07,3.07,0,0,0-1.62,0,18.36,18.36,0,0,1-7.74,0,51,51,0,0,0-7.3-1.2,10,10,0,0,1-6.39-2.49,15.62,15.62,0,0,0-2.63-2,3,3,0,0,1-1.52-2.26.65.65,0,0,0-1-.26c-1.31,1.21-2.6,2.45-3.93,3.65-2.64,2.4-5,5.08-8,7.19-1.24,1.47-3,2.42-4.14,4.08a48.72,48.72,0,0,1,5.56,5,19.38,19.38,0,0,0,3.12,2.68c1.27.85,1.87,2.41,3.34,3,1.77,1.73,3.58,3.42,5.32,5.19,2.11,2.15,4.73,3.78,6.53,6.26a2.34,2.34,0,0,0,.62.55A32,32,0,0,1,643,896a86.08,86.08,0,0,0,6.45,5.78,9.27,9.27,0,0,1,1.23,1.11c3,3.24,6.29,6.16,9.44,9.24.49.48,1,.89,1.58,1.33a1.16,1.16,0,0,0,1.5-.13c2-2.07,4.06-4.12,6-6.23a16.78,16.78,0,0,0,1.69-2.32.77.77,0,0,0-.16-.74,34.47,34.47,0,0,1-6.74-6,12,12,0,0,0-.89-.86,37.65,37.65,0,0,1-4-3.57,42.43,42.43,0,0,1-3.14-4.91c0-1-.11-2.14-.08-3.24a5.33,5.33,0,0,1,.37-2c.2-.46.78-.74,1.14-1.14a19,19,0,0,0,1.53-2c.89-1.38,2.33-1.85,3.72-2.42,2.06-.11,4-1.09,6.1-.89a6.45,6.45,0,0,0,3.22-.51,7.06,7.06,0,0,1,2-.33,6.76,6.76,0,0,0,1.64-.11,18.65,18.65,0,0,1,6.12-.72,8.87,8.87,0,0,0,2-.28,20.82,20.82,0,0,1,6.14-.56,3.24,3.24,0,0,0,1.6-.29c2.56-1.31,5.43-1.88,7.93-3.25a17.24,17.24,0,0,1,2.49-3.79,4.23,4.23,0,0,0,1-1.34,8,8,0,0,1,1.68-2.31,46.81,46.81,0,0,1,4.74-4.6c1.45-1.22,3-2.4,3.74-4.31a1.89,1.89,0,0,1,.45-.67q1.86-1.93,3.75-3.84a7.93,7.93,0,0,0,2.52-3.7,2.36,2.36,0,0,1,.68-1,12.82,12.82,0,0,0,2.4-3.82,22.31,22.31,0,0,1,5.34-7.25,4.41,4.41,0,0,0,1.46-2.43,6.07,6.07,0,0,1,.92-1.81,3.27,3.27,0,0,0,.71-1.46,3.69,3.69,0,0,1,1.12-2.15l3.57-4c1-.67,2-1.29,2.36-2.59a.44.44,0,0,0-.28-.59.44.44,0,0,0-.37,0c-1.32.88-2.64,1.77-3.94,2.68-.1.07-.11.24-.17.36l-.06,0C733.1,822.42,732.92,822.58,732.77,823.17Z"/><path class="cls-3" d="M495.52,475.91c-7.3,0-14.6,0-21.9,0q-21.69,0-43.38,0a1.84,1.84,0,0,0,0-.41,16.45,16.45,0,0,1-.79-2.3,16.89,16.89,0,0,1-.11-2.47c0-.28.06-.63-.08-.81-.75-.95-.36-2.17-.75-3.15-.6-1.51-1.26-3.07-2.84-3.9-.36-.19-.73-.37-1.07-.59-.57-.38-1.11-.8-1.66-1.2-1.4.09-2.52-1-4-.88a4.57,4.57,0,0,1-3.18-.58,2.53,2.53,0,0,0-1.19-.18,4.78,4.78,0,0,1-2.78-.59,2.28,2.28,0,0,0-1.18-.24c-1.79,0-3.57,0-5.28,0a12.74,12.74,0,0,1-1.07-.82,3.36,3.36,0,0,0-2.64-.95,4.91,4.91,0,0,1-2.33-.56,42.68,42.68,0,0,1-7.43-4.24,64.06,64.06,0,0,0-7.88-5,3.37,3.37,0,0,1-1.71-1.68,3.75,3.75,0,0,0-2.07-1.84,24.87,24.87,0,0,1-7.23-5.29,14.41,14.41,0,0,0-1.4-1.52,11.05,11.05,0,0,1-2.54-3.67,17.58,17.58,0,0,0-2.95-4.4c-1.28-1.41-2.37-3-3.45-4.38-.63-1.88.51-3.3.84-4.86,0-.18.42-.36.66-.39a15.07,15.07,0,0,1,1.65-.06l7.85-.08a4.38,4.38,0,0,0,2.37-.52,1.12,1.12,0,0,1,1.16.11,3.52,3.52,0,0,0,3.17.17,6,6,0,0,1,2.39-.44c5.23,0,10.46-.1,15.7-.11q19,0,38,0c7.16,0,14.33.05,21.49.05,8.13,0,16.25,0,24.38,0l43,0h14c1.1,0,2.21,0,3.31.07a3,3,0,0,1,1.21.12,4.55,4.55,0,0,0,4.33,0,2.07,2.07,0,0,1,1.58.06,5.39,5.39,0,0,0,2.39.51c2.89,0,5.78,0,8.67.1a1.76,1.76,0,0,1,1.33.87,1.07,1.07,0,0,1,.2.36,8.17,8.17,0,0,1,0,4,7.08,7.08,0,0,1-1,1.8,2.9,2.9,0,0,1-.54.62,27.64,27.64,0,0,0-4.94,7,10,10,0,0,1-.89,1.37c-.66.86-1.6,1.51-1.93,2.62a11.24,11.24,0,0,1-3.37,2.94,12.62,12.62,0,0,0-2.22,1.83,2.31,2.31,0,0,1-1.11.46,2.92,2.92,0,0,0-1.79.91c-.6.57-1.14,1.19-1.73,1.78a17.92,17.92,0,0,1-1.8,1.69,18.36,18.36,0,0,1-2.11,1.22,6.15,6.15,0,0,0-1.09.54,18.65,18.65,0,0,1-4.75,3.16,2.87,2.87,0,0,0-.94.8,7,7,0,0,1-3.08,2,31.76,31.76,0,0,0-4.13,1.71c-.12.07-.26.18-.38.16-2-.32-3.34,1-5,1.77h-4a4.53,4.53,0,0,0-3.14.71l-2.43.26c-.94.78-2.08.58-3.16.66a5.75,5.75,0,0,0-2.4.48c-.58.31-1.42.19-1.93.56-1.1.81-2.32,1.44-3.37,2.33a6.66,6.66,0,0,0-1.94,3.53,23.76,23.76,0,0,1-.63,2.76,7.68,7.68,0,0,0-.23,2.85,4,4,0,0,1-.59,1.93A3.6,3.6,0,0,0,495.52,475.91Z"/><path class="cls-2" d="M695.69,476c-.22.13-.51.21-.65.4-.43.56,0,1.37-.53,1.93a3.47,3.47,0,0,0-.58,1.93,1,1,0,0,1-.92.65l-1.65,0c-1.3-1.08-2.86-.72-4.34-.75-1,0-1.93-.06-2.89,0a3.13,3.13,0,0,1-1.92-.56,1,1,0,0,0-1.14,0,3.25,3.25,0,0,1-1.92.56c-3.16,0-6.32,0-9.48,0a4.45,4.45,0,0,1-2.36-.51c-1-.59-2.15-.14-3.23-.23a2,2,0,0,0-1.18.21,3.87,3.87,0,0,1-2.34.54c-1.93,0-3.85,0-5.77,0a2.28,2.28,0,0,1-1.15-.31,2.25,2.25,0,0,0-2.68-.06,2.49,2.49,0,0,1-1.55.39c-3,0-6,0-9.07,0q-7.83,0-15.66,0a5,5,0,0,0-3.15.67c-.38.27-1.07.08-1.61.13a1,1,0,0,1-1-.53c-.24-.92-1.19-1.58-.95-2.65l-.91-1.8a2.71,2.71,0,0,0-.21-.78,2,2,0,0,1-.24-2,6.89,6.89,0,0,0,.51-3.22c-.13-5.23,0-10.46.23-15.69a7.14,7.14,0,0,1,.33-1.59,2,2,0,0,0,0-1.19,5.86,5.86,0,0,1-.37-2.41c-.08-4.12-.11-8.24,0-12.36.8-2.53.55-5.15.64-7.73s0-5.24,0-7.85c0-1.51-.23-3,.7-4.4a10.64,10.64,0,0,1,.63-3.2,18.56,18.56,0,0,0,.18-3.27c.16-1.76-.07-3.57.78-5.26a5.08,5.08,0,0,0,.11-2c0-1.11,1-2,.84-3.14a4.24,4.24,0,0,1,.61-2.77.79.79,0,0,0,.13-.38c-.13-2.84,1.53-5.21,2.06-7.87.57-.68.47-1.56.72-2.33a114.2,114.2,0,0,1,4.18-11,23.77,23.77,0,0,1,2.22-4.35c.87-1.12,1-2.55,1.5-3.81s.91-2.54,1.43-3.81c1.08-2.64,2.17-5.27,3-8a12.78,12.78,0,0,0,.86-4,1.85,1.85,0,0,1,.34-1.14,4.46,4.46,0,0,0,1.11-3.41,14.26,14.26,0,0,1,.71-5.68,4.94,4.94,0,0,0,.07-1.64,4.87,4.87,0,0,1,.63-2.77c.32-1.88,1.09-3.66,1-5.62a29.88,29.88,0,0,1,.17-4.54c.16-1.2.78-2.33.71-3.6s-.11-2.47-.1-3.7c0-3.3.1-6.61.09-9.91a7.88,7.88,0,0,0-.55-3.64,1.54,1.54,0,0,1,0-1.21c.81-1.7.61-3.5.62-5.28,0-4.27,0-8.53.06-12.8.15-6.32-.12-12.64,0-19a11.3,11.3,0,0,1,.51-4.47,1.61,1.61,0,0,0-.06-1.18,5.11,5.11,0,0,1-.42-2.4c.05-1.52.05-3,.06-4.54a5,5,0,0,1,.35-2.42,2.81,2.81,0,0,0,.19-1.2c.09-2.48.16-5,.23-7.44a5.34,5.34,0,0,0-.53-2.38A2.69,2.69,0,0,1,643,240c.86-3.68.59-4.62,4.79-4.56,5.1.07,10.19,0,15.28,0,1.22,0,2.51.15,3.55-.74.55,0,1.1-.05,1.65,0a1.08,1.08,0,0,1,.69.39c1.21,1.66,1.75,3.42.59,5.35a4.24,4.24,0,0,0-.58,2.37c.07,3,.17,6.06.26,9.08,1.23,2.77.2,5.72.66,8.55a2.43,2.43,0,0,1-.3,1.17,1.94,1.94,0,0,0-.16,1.59,8.55,8.55,0,0,1,.51,3.64c0,4.12,0,8.25-.08,12.37-.08,2.34.09,4.67.09,7,0,4.26,0,8.53,0,12.79,0,1.92-.21,3.86.63,5.69a1.63,1.63,0,0,1,0,1.21,6,6,0,0,0-.5,2.82q0,5,0,9.91c0,1,.09,1.92,0,2.88a8.38,8.38,0,0,0,.5,4.45,4.13,4.13,0,0,1,.2,1.62c.05,1.79.07,3.58.07,5.37a7.27,7.27,0,0,0,.71,3.17,8.19,8.19,0,0,1,.92,4.36,4.24,4.24,0,0,0,.25,2,10.64,10.64,0,0,1,.61,4.46,4.39,4.39,0,0,0,1.11,3.41,1.89,1.89,0,0,1,.33,1.14,9.13,9.13,0,0,0,.48,3.65c.47,1,.43,2.18,1.25,3,1,2.67,2.26,5.24,3,8a21.73,21.73,0,0,0,1.69,4.16,20.37,20.37,0,0,1,2,4.48,2.15,2.15,0,0,0,.27.76,17.24,17.24,0,0,1,3,7.09,8.71,8.71,0,0,1,1,3.49,10.24,10.24,0,0,0,.93,2.71,33.19,33.19,0,0,1,1.58,4.2,10.16,10.16,0,0,1,.55,2.38,5,5,0,0,0,.38,2,5.57,5.57,0,0,1,.47,2.39,4.63,4.63,0,0,0,.3,1.59,4.13,4.13,0,0,1,.52,2,3.15,3.15,0,0,0,.1,1.23c1,2.49.85,5.11.9,7.71a2.64,2.64,0,0,0,.11,1.21,7.07,7.07,0,0,1,.65,3.61c1,2.09.57,4.31.61,6.48q.12,7.23.23,14.45a17.77,17.77,0,0,0,.51,3.24,3.17,3.17,0,0,1-.18,2.41,2.84,2.84,0,0,0-.27,2,10.13,10.13,0,0,1,.4,2.38,14.57,14.57,0,0,0-.43,2c0,1.52,0,3,0,4.55a3,3,0,0,0,.15,1.21,9.35,9.35,0,0,1,.52,4.05c0,3.3.15,6.6,0,9.91C695.54,471.86,695.66,473.93,695.69,476ZM662.57,281.2c.16-12.7-.16-24,.27-35.29a6.83,6.83,0,0,0-.19-1.62.46.46,0,0,0-.59-.38,3.09,3.09,0,0,1-2.4.18,4.58,4.58,0,0,0-4,0,1.37,1.37,0,0,1-1.18-.06c-1.45-.68-3-.3-4.48-.27-.18,0-.51.36-.52.57a14.64,14.64,0,0,0,.1,3.69,15.73,15.73,0,0,1,.4,3.66c.07,7.72.17,15.43.19,23.15,0,11.43,0,22.86.05,34.3,0,2.44-.38,4.94.55,7.35a4.67,4.67,0,0,1,.1,1.64c0,2.2,0,4.4,0,6.6a2.8,2.8,0,0,1-.18,1.2,5.76,5.76,0,0,0-.42,2.42,31.64,31.64,0,0,0-.22,4.11c.13,1.57-.52,3-.62,4.46a7.32,7.32,0,0,1-.6,2.79c-.67,1.38-.16,3-.9,4.42a3,3,0,0,0-.12,1.21c-.06,1.24-.14,2.47-.16,3.71a4,4,0,0,1-.52,2.37c-.16,1.51-1.17,2.77-1.13,4.35a4.93,4.93,0,0,1-.54,1.53,16.43,16.43,0,0,0-1,3.11,11.15,11.15,0,0,1-1.52,4.21,6.18,6.18,0,0,0-.89,1.85c-.33,2.06-1.67,3.74-2.08,5.77a6.53,6.53,0,0,1-1,2.23,21.29,21.29,0,0,0-1.73,3.27,9.69,9.69,0,0,0-1.13,3.07,6.23,6.23,0,0,1-1.56,3.73c-.81.9-.56,2.11-1.16,3a2.59,2.59,0,0,0-.51,1.54c.06,1.58-.72,2.9-1.28,4.29s-1.36,2.41-1.24,3.87c-.68,1.39-.49,3-1,4.38a13.36,13.36,0,0,0-.68,4,6.69,6.69,0,0,1-.56,2.81,5,5,0,0,0-.23,1.61,12.49,12.49,0,0,1-.3,3.27,13.16,13.16,0,0,0-.45,3.66c-.1,1.23-.2,2.47-.29,3.71-.85,1.54-.53,3.23-.57,4.86s0,3.31,0,5c-.12,4.27-.27,8.53-.15,12.8a3.79,3.79,0,0,1-.17,1.62,10.44,10.44,0,0,0-.5,4.07c0,.82.09,1.64.07,2.46q-.13,8.47-.29,16.94c0,.28,0,.55,0,.83a1.09,1.09,0,0,0,1.08,1h5.78c5.51,0,11,0,16.53,0,2.34,0,4.69-.17,7-.09s4.4.07,6.6,0,4.68.09,7,.1c5.51,0,11,0,16.54,0l.82,0c.32,0,.86-.47.86-.75,0-3.58-.05-7.16-.1-10.75a1.65,1.65,0,0,0-.2-.78,4.06,4.06,0,0,1-.37-2c0-1.65,0-3.31-.08-5a2.72,2.72,0,0,1,.4-1.56,1.27,1.27,0,0,0,.1-1.19,12.05,12.05,0,0,1-.58-4.46c0-1.1,0-2.2,0-3.3s-.06-2.21-.07-3.31,0-2.21,0-3.31a8.64,8.64,0,0,0-.44-3.65c-.48-1,.57-2,.38-3.17a20.16,20.16,0,0,1,0-3.3,2,2,0,0,0,0-.82c-.93-1.95-.49-4.07-.75-6.1a15.11,15.11,0,0,0-.18-2.45,11.55,11.55,0,0,1-.52-4.06c.08-1.45-.87-2.61-.84-4,.06-2.09-.85-4-1.12-6-.09-.68-.41-1.32-.47-2a21.45,21.45,0,0,0-1.89-6.27c-.21-.5-.62-1-.6-1.5.06-1.33-.72-2.34-1.09-3.5-.58-1.83-1.42-3.55-2.1-5.33-.44-1.14-.66-2.37-1.12-3.5a29.19,29.19,0,0,0-1.83-3.67,67.58,67.58,0,0,1-3-6.76,7.42,7.42,0,0,0-1.28-3.44c-1.27-2.15-1.5-4.67-2.59-6.87a8,8,0,0,1-.44-2.83,11.19,11.19,0,0,0-.38-1.16c-.29-1.32-1.07-2.51-1.09-3.91a16.85,16.85,0,0,0-.64-4.05,21.52,21.52,0,0,1-.3-4.11,1.75,1.75,0,0,0-.21-.79c-.74-1.24-.37-2.73-.88-4-.59-1.48-.38-3-.45-4.48,0-.41-.05-.83-.06-1.24a16.58,16.58,0,0,0-.7-5.68c.25-3.4-.57-6.86.54-10.23a4.18,4.18,0,0,0,0-1.23c0-1.65,0-3.31,0-5Z"/><path class="cls-2" d="M314.62,202.18c-.6-.31-1.19-.64-1.81-.93a6,6,0,0,0-2.34-.65,13.24,13.24,0,0,1-4.85-.72,6.82,6.82,0,0,0-2.45-.17c-1.38,0-2.76.06-4.13,0a9.67,9.67,0,0,1-5.18-1,27.24,27.24,0,0,0-3.46-1.2c-2.22-.8-4-2.31-6-3.51a14.82,14.82,0,0,1-1.67-1.18c-.94-.78-2-1.44-2.38-2.73a40.29,40.29,0,0,1-2.91-4,29.06,29.06,0,0,1-2-3.57,5,5,0,0,1-.66-2.34,3.81,3.81,0,0,0-1.22-3,10.18,10.18,0,0,1-.81-.93,2.38,2.38,0,0,1-.34-1.57c0-1.24.77-2.32.62-3.62a28.73,28.73,0,0,1,0-3.71c0-1.1,0-2.21,0-3.31s.11-2.47.11-3.71c0-3.16,0-6.32,0-9.49a2,2,0,0,1,.08-.81c1-2.08.68-4.31.71-6.49.06-3.57.07-7.15.11-10.73a3.08,3.08,0,0,1,.05-1.22c1.22-2.64.51-5.43.68-8.14s.14-5.49.16-8.24a6,6,0,0,1,.38-2.81,3,3,0,0,0,.16-1.21c.06-3.58.1-7.15.17-10.72,0-1.65.08-3.3.13-4.95,1-2.37.53-4.87.6-7.32.05-1.92.05-3.84.08-5.77,0-.13,0-.3,0-.4,1-1.65.58-3.49.71-5.24a29.22,29.22,0,0,0,.16-4.94,5.87,5.87,0,0,1,.85-3.11,2.43,2.43,0,0,1,1.92-1.4,7.77,7.77,0,0,1,.83-.08l2.46-.16c1.19-.84,2.72-.31,4-1a2.86,2.86,0,0,1,1.16-.31c1.76-.16,3.56,0,5.25-.79a5.65,5.65,0,0,1,2-.14,9,9,0,0,0,3.24-.52,5.23,5.23,0,0,1,1.61-.21,7.44,7.44,0,0,0,3.59-.72,1.91,1.91,0,0,1,.8-.16,12.89,12.89,0,0,0,3.26-.33c1.05-.39,2.13-.44,3.18-.72s2.07-.69,3.11-1a3.62,3.62,0,0,1,1.16-.36c2.09.07,4-1.1,6.06-1a9.93,9.93,0,0,1,5.65-.59,6,6,0,0,0,1.64-.07,3.58,3.58,0,0,1,3.4,1A4.49,4.49,0,0,1,334.18,63a2.44,2.44,0,0,0,.21.79,25.13,25.13,0,0,1,1.52,3.33c.35,1.17,1.09,2.21,1.49,3.37s1.29,2.12,1.26,3.43c1.73,1.9,1.62,4.58,2.82,6.7a5,5,0,0,0,.8,2.31c.77,1.28,1.1,2.77,1.76,4.12a20.63,20.63,0,0,1,1.55,4.23,42.49,42.49,0,0,0,2.81,7.25,13.38,13.38,0,0,1,1.45,3.35c.18,1.11,1,1.93,1,3.1a7.46,7.46,0,0,0,.67,1.92c.49,1.56,1.56,2.91,1.66,4.61a21.94,21.94,0,0,1,1.65,4.6,1.68,1.68,0,0,0,.34.74c1.62,1.63,1.46,4.11,2.81,5.87a9.41,9.41,0,0,0,1.16,3.89c.54,1.11.52,2.43,1.34,3.42a15.84,15.84,0,0,0,2.21,5.26,9.18,9.18,0,0,1,1.24,3.44,15.34,15.34,0,0,0,1.47,3.81c.4,1,1.11,1.88,1,3.08,0,.49.38,1,.56,1.5a22.75,22.75,0,0,1,1,2.68,36.38,36.38,0,0,0,1.21,3.46c.79,2.18,1.77,4.29,2.76,6.63-.26.69-.59,1.56-.94,2.42a1.7,1.7,0,0,0-.13,1.14,9.2,9.2,0,0,1-.2,6c-.39,1.19-.09,2.45-.64,3.62a8.11,8.11,0,0,0-1.19,3,3.54,3.54,0,0,1-.79,1.86c-1,1.46-1.93,3-3,4.38-1.36,1.75-2.57,3.52-4.79,4.3-.47.17-.83.7-1.21,1.1a14,14,0,0,1-6.75,3.71,38.78,38.78,0,0,0-8.2,3.63c-.22.11-.33.42-.49.64-.81-.07-1.73-.43-2.4.07-.83.62-1.84.42-2.67.88a19.15,19.15,0,0,1-2.5,1.3,3.13,3.13,0,0,0-1.36.85c-1.16,1.38-2.93,1.94-4.18,3.2a.72.72,0,0,1-1-.24,3.35,3.35,0,0,0-1.8-2.08c-1-.37-1.9-1.07-3.08-.76a5.12,5.12,0,0,1-1.23,0h-3.29a40.2,40.2,0,0,1-3.62,1.75C315.73,201,315.44,201.93,314.62,202.18Zm15.13-4.94a30.88,30.88,0,0,0,2.65-2.89,46.16,46.16,0,0,1,3.24-3.72,7.63,7.63,0,0,1,3.82-2.31,24.63,24.63,0,0,0,4.54-1.79,5.84,5.84,0,0,1,1.9-.73,3.81,3.81,0,0,0,2.16-1.08,34.28,34.28,0,0,1,3.54-2.8c1.34-.93,2.43-2.21,3.85-3.09a4.78,4.78,0,0,0,1.71-1.75c.53-1,1.45-1.69,1.91-2.67.75-1.61,1.46-3.23,2.23-4.83a2.62,2.62,0,0,0,.2-.79c.13-1.09.25-2.18.37-3.27,1-1.21,0-2.33-.17-3.49a1.84,1.84,0,0,1,0-.41,11.72,11.72,0,0,0-1.59-7.11,2.34,2.34,0,0,1-.17-.81c-.19-1.07-1-2-1-3.11a12.29,12.29,0,0,1-1-2.67,10,10,0,0,1-1.23-3c-.1-1.16-.87-2-1.24-3-1.19-3.2-2.57-6.31-3.74-9.51-.65-1.79-1.81-3.41-1.88-5.41a1.35,1.35,0,0,0-.31-.75c-1.12-1.29-1.28-3-2-4.48-.22-.49-.3-1.06-.56-1.53a19.7,19.7,0,0,1-1.58-4.2c-.7-2.22-1.77-4.28-2.52-6.48a22.68,22.68,0,0,0-1.45-3.83c-.73-1.3-.76-2.94-1.93-4a1,1,0,0,1-.26-.75,7.17,7.17,0,0,0-1.16-3.47c-.84-1.73-1.32-3.58-2.13-5.31a5.78,5.78,0,0,0-.93-2.7c-.77-1.47-1.06-3.09-1.68-4.59s-1.48-3.24-2.21-4.86a5.27,5.27,0,0,1-.14-.81,12.17,12.17,0,0,1-1-3.54c-1.07-2.22-1.77-4.57-2.65-6.86a.52.52,0,0,0-.66-.35c-.39.12-.76.33-1.15.41a14.38,14.38,0,0,0-2.42.38,7.29,7.29,0,0,1-2.76.69c-.76,0-1.46.74-2.29.22l-2.71.89c-.13,0-.23.16-.36.19a33.08,33.08,0,0,1-3.94,1,25.32,25.32,0,0,1-2.88.19c-1,0-1.79.75-2.75.74-2.07,0-4,.86-6.09.78a16.67,16.67,0,0,0-3.62.7c-1.47.29-3.06,0-4.47.58s-3,.38-4.46.61a.74.74,0,0,0-.39.15,5.13,5.13,0,0,0-.8.88,1.69,1.69,0,0,0-.16.79c0,2.2,0,4.4-.06,6.61s-.07,4.68-.11,7,.15,4.67-.61,7a4.56,4.56,0,0,0,0,1.23c0,3.44,0,6.88-.09,10.32,0,1.65-.13,3.3-.19,5-.84,1.55-.5,3.22-.52,4.86-.05,2.89-.08,5.78-.14,8.67,0,1.79-.13,3.58-.18,5.36a5.78,5.78,0,0,1-.28,1.6,7.72,7.72,0,0,0-.29,2c-.1,4-.17,8-.27,12,0,1.63.21,3.28-.48,4.88a5.76,5.76,0,0,0-.14,2.05c0,1.37,0,2.75,0,4.12,0,3.58,0,7.16-.05,10.74a3.7,3.7,0,0,0,.27,2,6.55,6.55,0,0,1,.66,3.19,2.92,2.92,0,0,0,.28,1.18,24,24,0,0,0,2.95,4.92,23,23,0,0,1,1.65,1.78,6.4,6.4,0,0,0,3,2.7,8.19,8.19,0,0,0,3.49,2.11c1.45.43,2.77,1.17,4.19,1.62s2.85.91,4.24,1.46a5,5,0,0,0,2,.4,17.79,17.79,0,0,1,5.72.51,2.93,2.93,0,0,0,1.21.12c2.63-.4,4.84.65,7,1.92,1.17.7,2.36,1.38,3.51,2.12,2.34,1.49,2.73,1.48,5.4.79C328.25,197.68,328.9,197.48,329.75,197.24Z"/><path d="M314.62,202.18c.82-.25,1.11-1.19,1.89-1.49a40.2,40.2,0,0,0,3.62-1.75h3.29a5.12,5.12,0,0,0,1.23,0c1.18-.31,2.09.39,3.08.76a3.35,3.35,0,0,1,1.8,2.08.72.72,0,0,0,1,.24c1.25-1.26,3-1.82,4.18-3.2a3.13,3.13,0,0,1,1.36-.85,19.15,19.15,0,0,0,2.5-1.3c.83-.46,1.84-.26,2.67-.88.67-.5,1.59-.14,2.4-.07.64.23,1.3.41,1.91.68a4.47,4.47,0,0,1,2.64,2.95c.37,1.3,1.06,2.54.86,4,0,.22.58.72.86.73a6.35,6.35,0,0,0,1.23,0,1.58,1.58,0,0,1,1.14.36,7.1,7.1,0,0,1,3.4,6.2,8.46,8.46,0,0,1-.78,4.39,1.23,1.23,0,0,0,.32,1.48.79.79,0,0,1,0,1.1c-1,1.22-.62,2.59-.49,3.94,0,.1.17.22.29.27a5.3,5.3,0,0,0,1.14.39,3,3,0,0,1,2,1.27,14,14,0,0,1,1.22,2.13,2.83,2.83,0,0,1,.31,1.16c0,1.51,0,3,0,4.52a1.61,1.61,0,0,1-1.1,1.54.55.55,0,0,0,0,1c.45.29.94.53,1.4.82a3.05,3.05,0,0,1,1.54,2.3,2.35,2.35,0,0,0,.3,1.57,3,3,0,0,1,.24,3.11,4.51,4.51,0,0,0-.54,1.93c0,1.1,0,2.2,0,3.31a19.86,19.86,0,0,0-1.48,2,4.47,4.47,0,0,1-2.3,2.23,4,4,0,0,0-1.24,1.05c-1.26,1.28-2.47,2.59-3.75,3.85s-2.38,2.28-3.6,3.39a3.5,3.5,0,0,1-1,.65c-1.94.75-3.46,2.19-5.21,3.25a23.7,23.7,0,0,1-2.81,1.68,16.29,16.29,0,0,0-3.88,2.23,4.89,4.89,0,0,1-3.84,1.15,4.71,4.71,0,0,0-2.78.48,14.69,14.69,0,0,1-3.54.95,4.39,4.39,0,0,1-1.53-.35,18.07,18.07,0,0,1-3.15.84c-.22.07-.51.37-.51.56,0,1.51.11,3,.17,4.53.78,1.24.41,2.67.6,4,.26,1.88-.22,3.86.74,5.65,0,1.1.08,2.2.13,3.3a5.8,5.8,0,0,1-3.38.81,4.7,4.7,0,0,1-3-.83c-.07-2.2-.44-4.36-.7-6.54a39.66,39.66,0,0,1-.33-5.76c.05-1.95-.64-3.79-.59-5.72a1.92,1.92,0,0,0-1.17-1.95c-.59-.29-.55-.79-.13-1.37a2,2,0,0,1,1.25-1,10.18,10.18,0,0,0,2.36-.64,1.75,1.75,0,0,1,1.59.2,2.84,2.84,0,0,0,2.38.3c1.44-.45,2.84-1,4.25-1.55a3,3,0,0,0,.63-.46,4,4,0,0,1-.21-3.2,14.66,14.66,0,0,1,.88-2.29c1.05-1.93,2.18-3.8,3.27-5.7a2.7,2.7,0,0,0,.75-2.63,3.86,3.86,0,0,1-.27-1.14c0-1.21,0-2.42,0-3.63a3.47,3.47,0,0,1,.58-1.87c.45-.8.17-1.88.92-2.59-.09-.09-.18-.24-.28-.26-.65-.09-1.3-.16-2-.23-.36-.41-.64-1-1.09-1.2A8.21,8.21,0,0,1,325,236a16.18,16.18,0,0,0-1.22-1.67,11.94,11.94,0,0,1-1.36-2.51c-.4-.86-.44-1.91-1.22-2.57-.16-.13-.6-.21-.67-.13-.59.76-1.16,1.54-1.68,2.34a23.65,23.65,0,0,1-4.41,4.9,7.49,7.49,0,0,1-1,.66,1,1,0,0,1-1.13-.12,1.37,1.37,0,0,1-.27-.74,11.35,11.35,0,0,1,1.43-4.23c.92-1.53,1.69-3.14,2.49-4.73a24.29,24.29,0,0,1,4.52-6.84,3.16,3.16,0,0,0,.84-1.84,1.34,1.34,0,0,1,.4-.7,1.36,1.36,0,0,1,.65-.31c.05,0,.21.19.24.31a5.27,5.27,0,0,0,1.4,2.9,4,4,0,0,1,.94,2.24,5.86,5.86,0,0,0,.46,1.56c.57,1.1,1.21,2.15,1.85,3.21a6.42,6.42,0,0,0,2.28,2.35,4.6,4.6,0,0,1,2,2.48,2.87,2.87,0,0,0,.3.76,1.41,1.41,0,0,0,.68.44,7.6,7.6,0,0,0,4.06-.3,1,1,0,0,0,.34-.23,8.36,8.36,0,0,0,2-2.59,1.14,1.14,0,0,0,0-.79,3.7,3.7,0,0,0-.52-1.12,31.07,31.07,0,0,1-3.07-5.34,12.77,12.77,0,0,0-1.43-2.49,21.42,21.42,0,0,1-2.13-3.52c-.63-1.22-1.45-2.32-2.09-3.54s-1.56-2.24-2.16-3.48-1.5-2.31-3.12-2.31a1.28,1.28,0,0,1-.74-.33,1.65,1.65,0,0,0-2.24,0,14.33,14.33,0,0,1-1.83.94,10.11,10.11,0,0,0-4.59,4,9.12,9.12,0,0,1-3,3.36c-.44.26-.69.83-1,1.27-2,2.62-3.61,5.51-5.87,7.94a3.5,3.5,0,0,0-.68,1,16.36,16.36,0,0,1-3.16,4.31,9.52,9.52,0,0,0-1.55,1.93,17.83,17.83,0,0,1-3.69,4.41,20.09,20.09,0,0,0-2.34,2.87,1.26,1.26,0,0,0-.28.74c.12,1.78.29,3.56.45,5.34.7,1.26.54,2.67.64,4a16.08,16.08,0,0,0,.19,3.28,24.48,24.48,0,0,1,.56,6.14c.06,1.23,0,2.47.05,3.71a7.13,7.13,0,0,0,.55,3.62,15.11,15.11,0,0,0-.32,3.67,6.16,6.16,0,0,0,.08,1.22,22.6,22.6,0,0,1,.4,4.92c.07,2.34.16,4.68.17,7a14.78,14.78,0,0,0,.86,4.85c-1.51,0-3,0-4.54,0a2.42,2.42,0,0,1-1.5-.53,3,3,0,0,0-1.59-.31,14.45,14.45,0,0,1-.48-3.19,54.11,54.11,0,0,0-.15-7c-.12-1.78-.13-3.57-.15-5.35,0-1.36.23-2.75-.44-4,0-1.37-.07-2.73-.09-4.1q-.09-7-.17-14a6.43,6.43,0,0,0-.42-2.4c-.6-1.52-.31-3.25-1.09-4.75a.93.93,0,0,1,0-.8,5.6,5.6,0,0,0,.56-3.57A2.82,2.82,0,0,1,288,236a13.27,13.27,0,0,0,2.59-3.18,5.17,5.17,0,0,1,1-1.26c2.48-2.38,4.24-5.32,6.32-8,.92-1.18,1.59-2.53,2.61-3.66a27.55,27.55,0,0,0,2.94-3.93,32.72,32.72,0,0,1,2.69-3.6c1.12-1.38,2.29-2.72,3.46-4.07a8.4,8.4,0,0,1,2.25-1.76c.12-.06.32-.06.37-.15.64-1.21,1.69-2.14,2.27-3.39A2.6,2.6,0,0,0,314.62,202.18Zm37.51,25.06-4.58,3.45a2.72,2.72,0,0,0-.3.29,1.8,1.8,0,0,0-.53,1.49,3.92,3.92,0,0,1-1.2,3,13.51,13.51,0,0,1-5.93,4.26c-.12,0-.22.17-.35.2-1.65.35-2.48,1.61-3.27,2.91a27.24,27.24,0,0,0-1.61,4.19c0,.08.09.24.17.34s.22.19.27.16c1.76-1.05,3.53-2.11,5.28-3.19a3.48,3.48,0,0,0,.63-.53c2.14-2.12,4.51-4,6.77-6,.41-.37.84-.71,1.21-1.11,1.2-1.32,2.37-2.67,3.55-4,.17-.2.29-.46.45-.67s.27-.5.12-.71a3.54,3.54,0,0,1-.32-2.39A2.61,2.61,0,0,0,352.13,227.24Zm-2.48-16.5a2.18,2.18,0,0,0-.79.07,31.26,31.26,0,0,0-8.67,6.7,1,1,0,0,0-.25,1.12,33.58,33.58,0,0,0,2.55,4.63.66.66,0,0,0,1,.1A32,32,0,0,0,350,212.19a2.76,2.76,0,0,0-.06-1.17C349.89,210.91,349.73,210.82,349.65,210.74Zm3.41,30.35c-1.92,2.16-3.54,4-5.21,5.84a4.17,4.17,0,0,1-2.34,1.58,3.24,3.24,0,0,0-1.79.91,20.76,20.76,0,0,1-2.71,2.52,10.35,10.35,0,0,0-2.73,2.37,2.07,2.07,0,0,1-1.4.81,2.57,2.57,0,0,0-1.92,1.4c-.55.94-1,1.92-1.51,2.9-.05.09.25.35.42.56.41-.37.83-.72,1.23-1.11,1-.95,1.84-2.06,3.29-2.38a1.73,1.73,0,0,0,.69-.44c1.75-1.54,4-2.34,5.7-4a12.8,12.8,0,0,1,2-1.38,2.85,2.85,0,0,1,1.55-.47c.94,0,1.58-.33,1.66-1.38a2.17,2.17,0,0,1,1.35-1.92,4,4,0,0,0,1.57-1.28,2.21,2.21,0,0,0,.46-2.59A8.39,8.39,0,0,1,353.06,241.09Zm-19.4-33.4c.85,1.61,1.66,3.19,2.49,4.75a.82.82,0,0,0,1.38,0c1.42-1.85,2.69-3.81,4.12-5.65a16.42,16.42,0,0,0,1.72-3.27,3.23,3.23,0,0,0,.09-1.21c0-.37-.53-.86-.81-.76a16.66,16.66,0,0,0-3.07,1.08,15.07,15.07,0,0,0-5.92,5Z"/><path d="M64.5,692.82a3.71,3.71,0,0,0,.28,1.19,3.52,3.52,0,0,1,.6,2.33,3.89,3.89,0,0,0,.47,2.38,2.68,2.68,0,0,1,.27,1.17c.07,1.5.11,3,.15,4.52a7.23,7.23,0,0,0,.54,2.8,7.35,7.35,0,0,1,.3,2.42c.08,1.21.92,2.24.69,3.57a18.07,18.07,0,0,0,0,3.29c0,1.24,0,2.47,0,3.71a3.27,3.27,0,0,1-.41,1.56,3.47,3.47,0,0,0-.11,2.8,4.16,4.16,0,0,1,0,3.91,2.74,2.74,0,0,0-.2,1.19c-.05,1.24-.06,2.47-.12,3.71a2.61,2.61,0,0,1-.26,1.18,6.12,6.12,0,0,0-.53,2.79c-.06.95-.15,1.9-.22,2.85-.75.88-.41,2.15-1.09,3a2.25,2.25,0,0,0-.25,1.59c-.6,1.52-1.05,3.1-1.73,4.6A7.48,7.48,0,0,1,59,752.89c-2,.25-3.86.29-5.38-1.26-.87-.88-1.73-1.78-2.59-2.67a2.52,2.52,0,0,0-1.45,1.32,33.8,33.8,0,0,1-5.09,5.92,73,73,0,0,1-6,5.7,11.18,11.18,0,0,1-1.32,1c-2.39,1.39-4.72,1-7-.35a2.1,2.1,0,0,1-1-1.28c-.19-.8-.24-1.64-.49-2.42-.1-.29-.57-.47-.89-.71-1.08,1-2.06,2-3.11,2.85a32.14,32.14,0,0,1-7.14,4.8c-.5.22-1,.38-1.5.64a4.77,4.77,0,0,1-4.7-.24,3.38,3.38,0,0,1-2-2.91,1.1,1.1,0,0,0-.68-1c-.55.48-1.2,1-1.79,1.55a7.07,7.07,0,0,1-2.51,1.39c-2.12.78-3.52-.45-4.15-2.26A10.31,10.31,0,0,1,0,760a3,3,0,0,1,.27-1.2c.26-.63.6-1.23.89-1.84a9.05,9.05,0,0,1,2-3.08,10.58,10.58,0,0,0,2.65-3.64c.59-1.38,1.77-2.45,2-4,.08-.48.6-.9.94-1.33a42.3,42.3,0,0,0,5.43-8.14,8,8,0,0,1,.64-1c1.76-2.29,3-4.89,4.57-7.31A5.26,5.26,0,0,0,20,726.9a51,51,0,0,1,2.58-7.75,19.63,19.63,0,0,0,.76-1.92,2.79,2.79,0,0,0-.58-3.06c-.2-.19-.36-.41-.56-.6a6,6,0,0,1-2.3-5.05c-.5-1.82-.68-3.72-1.62-5.44a35,35,0,0,1-1.53-3.8,5.37,5.37,0,0,1-.62-1.48c0-.5.34-1,.4-1.55a9.26,9.26,0,0,0,.11-2.46c-.45-3.15.76-5.92,1.85-8.72a13.57,13.57,0,0,1,.79-1.45,4.5,4.5,0,0,1,1.37-.77,15.07,15.07,0,0,1,2.77,0c.23,0,.46.25.67.41a2.35,2.35,0,0,1,.9,1.28,16.56,16.56,0,0,1-.86,5.66,6.21,6.21,0,0,0-.26,2c0,1.23,0,2.47,0,3.71a6.45,6.45,0,0,0,2.72,5.26,5.72,5.72,0,0,1,2.56,4,4,4,0,0,1-.08,1.62c-.08.39-.51.73-.51,1.1a10.4,10.4,0,0,0,.36,1.57,17.57,17.57,0,0,0,.61,4.06,5.11,5.11,0,0,1-.24,3.6c-1,3.11-2.28,6.14-3.18,9.3a18,18,0,0,1-.61,2.81,5.59,5.59,0,0,0-.68,2.76,2.5,2.5,0,0,1-1.46,2.31,11.2,11.2,0,0,0-1.78,1A10.9,10.9,0,0,0,20.44,737a10,10,0,0,0-1.66,3.28,17,17,0,0,1-1.31,3,3.66,3.66,0,0,1-1,1.3,16.15,16.15,0,0,0-5.4,7.6c-.05.12.18.35.33.6,3.53-3.32,7.18-6.45,10.76-9.65.62-.55,1.18-1.16,1.74-1.76A8.42,8.42,0,0,0,25,740.11c1.89-3,3.75-6.07,5.62-9.11,1.42-3.58,3.71-6.72,5.21-10.26a.77.77,0,0,1,.24-.32,2.59,2.59,0,0,1,.72-.37,3.39,3.39,0,0,1,3.36,1.06,1.87,1.87,0,0,1,.46,1.1,4,4,0,0,1-.19,1.62c-.69,1.92-.85,4-2.07,5.77-.46,2.17-1.63,4-2.49,6.06a22.36,22.36,0,0,1-2.47,4.25,28.33,28.33,0,0,1-2.93,3.94,40.58,40.58,0,0,0-5.4,6.22,29.32,29.32,0,0,1-3.25,4.25,1.75,1.75,0,0,0-.19.36.42.42,0,0,0,.22.67.4.4,0,0,0,.32,0,50.48,50.48,0,0,0,6.17-6.06c2-2.26,3.93-4.6,5.88-6.91a6.54,6.54,0,0,0,.71-1c.91-1.53,1.68-3.16,2.73-4.58s1.48-2.92,2.39-4.3,1.59-3.18,2.43-4.74a29.52,29.52,0,0,0,3.27-8.39,2.47,2.47,0,0,1,1.52-1.83c.62-.26,1.25-.48,1.8-.69.78.56,1.43,1.06,2.13,1.49a.75.75,0,0,0,.65-.29A44.21,44.21,0,0,1,53,713.71a2.67,2.67,0,0,1,1-1.23,3.83,3.83,0,0,1,3.91-.4c.41.18.83-.11.71-.46a13,13,0,0,1-.66-4,8.54,8.54,0,0,0-.53-2.82,6.73,6.73,0,0,1-.37-2c0-1.54-.74-2.91-.9-4.43-.1-.9-.82-1.73-1.12-2.63a12.65,12.65,0,0,0-1.45-3.38,2.12,2.12,0,0,1-.48-1.11c0-1.41-1.13-2.51-1-4a2.23,2.23,0,0,0-.43-1.12c-.35-.59-.76-1.14-1.14-1.71.08-.52-.06-1.09.38-1.53a2.23,2.23,0,0,1,1.72-.94c.41,0,.82,0,1.22,0a3.31,3.31,0,0,0,1.92-.53,1.61,1.61,0,0,1,1.9,0,4.43,4.43,0,0,0,2.73.6l.39.71c1.07,2,2.21,4,2.37,6.43a15.27,15.27,0,0,0,1,3.46C64.22,692.67,64.39,692.73,64.5,692.82Zm-5,33.86c0-2.29.06-4.58.06-6.87,0-.13-.29-.27-.45-.4-.08.11-.22.21-.22.33a22.82,22.82,0,0,0-.1,3.2c.1,1.15-.63,2-.72,3.1a2.15,2.15,0,0,0,.24.76,8.72,8.72,0,0,0-.43,3.25c0,1.37,0,2.75-.08,4.13a2.58,2.58,0,0,1-.18,1.19c-.67,1.18-.35,2.42-.35,3.64,0,.4.16.53.34.41a4.62,4.62,0,0,0,1.22-3.37,4.51,4.51,0,0,1,.44-2.41,2.74,2.74,0,0,0,.28-1.19C59.61,730.53,59.58,728.6,59.55,726.68ZM36.42,753.76c-.89.48-.85,1.5-1.27,2.25,0,0,.17.25.26.25.9-.07,1.28-.38,1.92-1.54.8-.54,1.26-1.39,2-2a25.72,25.72,0,0,0,5.32-6.21,41.93,41.93,0,0,0,2.94-5.39c.6-1.22.92-2.58,1.56-3.77s.4-2.73,1.2-3.91a1.46,1.46,0,0,0,.17-.79c0-2,.36-4.1,0-6.15a1.68,1.68,0,0,0-.22-.41c-.58.47-.48,1.21-.74,1.78A80.37,80.37,0,0,1,44.82,737a28.33,28.33,0,0,1-1.45,2.92,16.75,16.75,0,0,0-1.64,2.84c-1.1,2.19-2.22,4.38-3.32,6.57A21.11,21.11,0,0,0,36.42,753.76Z"/><path d="M120.07,239.43c.68,0,1.36,0,2,0a2.36,2.36,0,0,0,1.11-.33c.45-.29.8-.73,1.22-1.06s1.06-.21,1.32-.78c0-.12.09-.25.13-.38a5.45,5.45,0,0,0,2.24.91,2.09,2.09,0,0,1,1.67,1.07,25.16,25.16,0,0,1,1.57,2.83,2.83,2.83,0,0,1,.19,1.2c0,1.91-.14,3.81-.14,5.72a18.45,18.45,0,0,0,1.71,7.48c.54,1.08,1.23,2.08,1.86,3.11,0,2.07,0,4.13-.06,6.19a2.73,2.73,0,0,0,.52,1.52,1.91,1.91,0,0,1-.09,2.28c-.62.88-.38,1.84-.36,2.78,1.07,1.15.72,2.57.75,3.92s0,2.75,0,4.13c0,.4,0,.91.18,1.18.9,1.08.56,2.35.63,3.55,0,.41-.14,1,.08,1.21,1.05,1.19.64,2.61.77,3.94.07.69.88,1.1.78,1.84a5.82,5.82,0,0,0,.8,3.1c.27.62.92,1.06.86,1.81a3.55,3.55,0,0,0,.65,1.89c.3.61.67,1.19.9,1.81s.14,1.6.74,2.28,0,1.37.49,1.93a4.93,4.93,0,0,1,1,1.26c.4,1,1.19,1.8,1.19,3,0,.93,1,1.6.83,2.67a.89.89,0,0,0,.37.69,5.61,5.61,0,0,1,1.73,2.73c.56,1.41,1.83,2.33,2.33,3.77a6.37,6.37,0,0,0,.68,1.45,6.68,6.68,0,0,0,1.37,1.53,8.66,8.66,0,0,1,2.33,3.3,6.36,6.36,0,0,0,1.32,2c.51.46,1,1,1.47,1.45a16.57,16.57,0,0,1,1.38,1.53,8.07,8.07,0,0,1,.72,1.44,6.15,6.15,0,0,0,1.52,2.37c.2.17.44.48.41.68-.2,1.31.69,2,1.47,2.78a4.52,4.52,0,0,1,1.28,2c.08.25.38.43.46.68.44,1.42,1.44,2.58,1.85,4,1,1.1,2,2.23,3.13,3.29s1.22,2.43,2.4,3.25,1.2,2.46,2.38,3.27c.87,1.82,1.77,3.63,2.73,5.41a2.6,2.6,0,0,1,.06,1.22,2.56,2.56,0,0,0,.44,1.54,2.43,2.43,0,0,1,.36,1.14c.09,1.21-.21,2.5.8,3.5l.09,2.06c1.1,1.29.77,2.84.78,4.32,0,5.23,0,10.46,0,15.69a3.63,3.63,0,0,1-.77,2.67c.2,1.25-.51,2.05-1.34,2.84-1.1,1-2.17,2.11-3.21,3.22a4.33,4.33,0,0,0-.54,1.05c-.52-.09-.75.28-1,.64a2.39,2.39,0,0,0-1.47,2.33,5.23,5.23,0,0,0-1.91,2.64.75.75,0,0,0-.38,1.1,3.72,3.72,0,0,0-.08.57c-.28,0-.56,0-.83-.06s-.9-.45-.89-.7c0-1.93,0-3.86,0-5.79a1.52,1.52,0,0,1,.29-.74,2.56,2.56,0,0,0,.5-1.52c0-1.24,0-2.48,0-3.72a4,4,0,0,1,.62-2.74c.37-.45.19-1.06.19-1.59q0-7.45,0-14.89a18.5,18.5,0,0,1,0-2.47c.13-.94-.86-1.43-.8-2.27s-.61-1.5-.8-2.27a11.9,11.9,0,0,1-.08-2.47.84.84,0,0,0-.06-.39c-.21-.36-.48-.68-.67-1.05a10,10,0,0,0-.47-1.11,2.24,2.24,0,0,1-.44-1.53c0-.47-.3-.75-.48-1.11a6.09,6.09,0,0,0-.48-1.1c-.51-.65-1.11-1.22-1.66-1.84s-1.45-1.24-1.66-2.29a1.56,1.56,0,0,0-.8-.9,4.38,4.38,0,0,1-1.92-1.91,19.19,19.19,0,0,0-1.89-2.17,1.43,1.43,0,0,1-.2-.76c0-.41,0-.84-.32-1.16a10.27,10.27,0,0,1-2.24-3.81c-.19-.5-.72-.82-.78-1.42a1.11,1.11,0,0,0-.4-.7c-1-.66-1.13-1.84-1.81-2.68-.26-.32-.67-.57-.8-.93a14.45,14.45,0,0,0-4-5.57.67.67,0,0,1-.23-.34c-.13-1.21-1.4-1.69-1.75-2.7a3.94,3.94,0,0,0-1.13-1.67,12.08,12.08,0,0,1-1.88-2.62,23.44,23.44,0,0,1-1.52-2.38c-.48-.95-.77-2.07-1.76-2.71a9.66,9.66,0,0,1-1.18-2.55,2.59,2.59,0,0,0-.77-1.82,2.88,2.88,0,0,1-1-2.58,2.69,2.69,0,0,0-.32-1.14c-.27-.62-.67-1.18-.9-1.81-.41-1.13-1.43-2-1.26-3.38-.57-.92-1-1.93-1.5-2.87s-1-2.21-1.61-3.27a3.23,3.23,0,0,1-.18-1.19c0-.4.05-.89-.15-1.19a3.56,3.56,0,0,1-.7-2.3c-1.58-3.85-1.66-3.85-1.63-7a1.51,1.51,0,0,0-.44-1.11c-.64-.67-.09-1.67-.69-2.31a3.18,3.18,0,0,1-.53-2.34c0-.13,0-.31,0-.4-1.11-1.45-.72-3.14-.79-4.75,0-.41.1-.93-.1-1.21-1.28-1.75-.54-3.74-.71-5.61a4.72,4.72,0,0,0-.6-2.74,2.2,2.2,0,0,1-.23-1.17c0-1,0-1.92-.07-2.88a3.58,3.58,0,0,1-.77-2.69,13,13,0,0,0,0-1.65,1.29,1.29,0,0,0-.16-.78c-.84-.93-.63-2.06-.63-3.14,0-2.21,0-4.41,0-6.62a2.87,2.87,0,0,0-.47-1.53,2.35,2.35,0,0,1-.33-1.14C120,244.11,120.07,241.77,120.07,239.43Z"/><path d="M509.76,802.46l-.95-1.37c.25-.48.52-1,.77-1.43a14,14,0,0,0,.67-1.48c.22-.64.31-1.33.57-1.95a9,9,0,0,0,.56-1.53c.12-.53.47-1,.57-1.53a27.63,27.63,0,0,1,2.21-6.12,2.34,2.34,0,0,0,.38-1.15c-.16-1.32.56-2.4,1-3.54a17,17,0,0,1,1.51-4.2c0-1.41.9-2.55,1.11-3.9a.43.43,0,0,1,.66-.29c.23.12.53.31.58.52a10,10,0,0,0,.5,2.38c.48.88.33,1.88.86,2.74.41.67.36,1.62.78,2.28.61,1,.37,2.19,1.07,3.08a12.78,12.78,0,0,0,1.71,5,5.82,5.82,0,0,1,1,3.49c.48,1.28,1,2.54,1.42,3.82a18.4,18.4,0,0,0,.86,1.86c.28.59.29,1.3.6,1.94s.43,1.56.73,2.31.73,1.47,1.05,2.22a3.07,3.07,0,0,1,.27,1.18,5.87,5.87,0,0,0,.75,2.32,29.17,29.17,0,0,1,1.79,5,2.74,2.74,0,0,0,.22.77c1.47,2.47,2.23,5.25,3.46,7.83.11.24.34.5.32.73-.1,1.17,1,2,.92,3.11-.13,0-.32,0-.4-.06-2.07-1.8-4.32-3.39-6.28-5.33a16.62,16.62,0,0,0-2.49-2.13,9,9,0,0,1-3.13-3.22,4,4,0,0,0-1.39-1.5,34.66,34.66,0,0,1-4-3.53C516.69,807.83,513.31,805,509.76,802.46Z"/><path d="M457.54,906.85a2.25,2.25,0,0,1,.2-1.92c1.37-1.77,2.51-3.7,3.74-5.56.43-.64,1.11-.64,1.76-.7a14.89,14.89,0,0,0,5.18.94,9.66,9.66,0,0,1,4.44.54,5.79,5.79,0,0,0,1.63.15,32.29,32.29,0,0,1,4.86.61,18.5,18.5,0,0,0,4.09.2,4.21,4.21,0,0,1,3.61,2.35c0,1.22.9,1.95,1.52,2.84a1.91,1.91,0,0,1-.28,2.28,6.43,6.43,0,0,1-1.57,1.29,21,21,0,0,0-3.16,1.87,21.47,21.47,0,0,1-2.84,1.62,6.8,6.8,0,0,1-4.32,1,2.86,2.86,0,0,0-1.62,0c-1.27.58-2.7.47-3.93,1.05a4.6,4.6,0,0,1-2.37.5,3.91,3.91,0,0,0-2.38.43,3.42,3.42,0,0,1-1.58.26c-1.91,0-3.83.1-5.74,0a15.93,15.93,0,0,0-6.37,1.27c-.78.3-1.58.35-2.35.59-.48-.16-1.08,0-1.35-.44a9.28,9.28,0,0,1,2.55-3.64,13.87,13.87,0,0,0,3-4.22,4.06,4.06,0,0,1,.53-.67l2.72-.37c1.61.06,3.23.14,4.85.17a4.3,4.3,0,0,0,1.16-.25c.33-.08.49-.32.36-.62s-.29-.52-.47-.54a13.28,13.28,0,0,1-4.29-.95A4.46,4.46,0,0,0,457.54,906.85Z"/><path class="cls-2" d="M361.55,246.87c0-1.11.05-2.21,0-3.31a4.51,4.51,0,0,1,.54-1.93,3,3,0,0,0-.24-3.11,2.35,2.35,0,0,1-.3-1.57c.55,0,1.1.07,1.65,0,1.21-.07,2.46.2,3.63-.42s2.51-.07,3.47-1.06a2.77,2.77,0,0,1,3,.61,8.14,8.14,0,0,0,.63.54,2.26,2.26,0,0,1,.74,2.22,3,3,0,0,1-.32,1.16,4.67,4.67,0,0,0-.54,2,2.22,2.22,0,0,1-.34,1.15c-1.27,1.72-2.84,2.94-5.14,2.83-.68,0-1.37,0-2.05,0a7.52,7.52,0,0,0-3.16.68A5.71,5.71,0,0,1,361.55,246.87Z"/><path d="M85,432c-.5-.94-.34-2-.59-3a2.9,2.9,0,0,0,.06-.41c0-1.48.4-3-.62-4.38-.21-.28-.14-.78-.15-1.19,0-1.1,0-2.2,0-3.3,0-.41,0-.91-.17-1.19-1.13-1.5-.48-3.2-.64-4.8a3.33,3.33,0,0,0-.46-1.54,2.67,2.67,0,0,1-.35-1.14A14.17,14.17,0,0,1,82,409a2.93,2.93,0,0,0-.57-1.92,1.55,1.55,0,0,1-.24-.76c0-.69,0-1.38,0-2.06,0-6.34,0-12.68,0-19a4.37,4.37,0,0,0-.66-2.31,1.85,1.85,0,0,1,.14-1.94,2.32,2.32,0,0,0,.47-1.1c.05-1.79,0-3.58,0-5.38a2.2,2.2,0,0,0-.43-1.12c-.12-.24-.34-.48-.35-.73,0-1.37-.06-2.75,0-4.13a2.35,2.35,0,0,1,.52-1.08,1.23,1.23,0,0,0-.15-1.5,5.08,5.08,0,0,1-.4-.73v-36a15.74,15.74,0,0,1,0-2.06,2.45,2.45,0,0,1,.56-1.05c.61-.8,1.68-.85,2.45-1.42.28-.21.8-.1,1.21-.1a5.68,5.68,0,0,1,3.83,2c.27.46.33,1,.75,1.43s.72.82,1.06,1.22v9.61a7.16,7.16,0,0,0-.62,1c-.1.23-.19.63-.07.77a3.9,3.9,0,0,1,.74,2.7c0,4.27,0,8.54,0,12.81a4.46,4.46,0,0,0,.6,2.75,3.15,3.15,0,0,1,.21,1.59q0,7.44,0,14.88,0,15.07,0,30.17c0,1.61.41,3.29-.68,4.78-.2.28-.11.8-.11,1.21,0,1.51,0,3,0,4.54a1.78,1.78,0,0,1-.42,1.13c-.71.88-.12,2.24-1.12,3,0,.68-.09,1.35-.11,2a11.81,11.81,0,0,1-.07,2.46c-.23.9-.91,1.65-.78,2.69a18.86,18.86,0,0,1,0,2.37c-.75.94-1.26,1.95-2.4,2.3A1.07,1.07,0,0,1,85,432Z"/><path d="M92.61,84.74c.07.26.07.59.24.75.49.46,1.06.85,1.6,1.27a2.55,2.55,0,0,0,1.53.5c1,0,1.92,0,2.88,0,2.94.06,2.47-.29,4.93,2.24,1.31,1.36,1.62,3.1,2.12,4.79a.64.64,0,0,1,0,.41c-.37.85-.46,2-1.46,2.31s-1.8-.33-2.44-1.08a8.31,8.31,0,0,1-1.1-1.71c-.35-.72-.47-1.59-1.29-2.14H96.83a3.26,3.26,0,0,1-2.21-1A17.75,17.75,0,0,1,91,86.77c-.1-.18-.45-.23-.68-.34A2.18,2.18,0,0,1,92.61,84.74Z"/><path class="cls-2" d="M329.65,252.59c-1.37,0-2.74,0-4.11.08a7.53,7.53,0,0,0-3.21.52,3.56,3.56,0,0,1-1.19.25c-1.48.14-3,0-4.39.79a2.23,2.23,0,0,1-1.21.17,7.66,7.66,0,0,0-3.21.45,10.23,10.23,0,0,1-2.43.26c-1.76.15-3.56-.08-5.24.73a1,1,0,0,1-.78-.1,8,8,0,0,1-1.44-.77,2.75,2.75,0,0,1-1.27-2c-.06-.82-.11-1.64-.16-2.46a3.33,3.33,0,0,1,1.34-2.86,2.59,2.59,0,0,1,1.45-.71,14.24,14.24,0,0,0,3.63-.5c1.13-.39,2.49-.13,3.62-.53a17.82,17.82,0,0,1,4-.68c1.62-.19,3.12-.93,4.76-1a5.27,5.27,0,0,1,2.79-.5,21.16,21.16,0,0,0,2.87-.17,27,27,0,0,0,2.75-.69c1-.26,1.11-.4,1.13-1.36,0-.41,0-.82,0-1.22.66.07,1.31.14,2,.23.1,0,.19.17.28.26-.75.71-.47,1.79-.92,2.59a3.47,3.47,0,0,0-.58,1.87c0,1.21,0,2.42,0,3.63a3.86,3.86,0,0,0,.27,1.14A2.7,2.7,0,0,1,329.65,252.59Z"/><path class="cls-2" d="M172.75,399.06c.08.5.2,1,.25,1.48s-.35.86-1,.91a6.66,6.66,0,0,1-.76-.06A2.39,2.39,0,0,1,172.75,399.06Z"/></g></g></g></svg>