<svg xmlns="http://www.w3.org/2000/svg" viewBox="0 0 144 181.057"><title>Asset 5</title><g id="Layer_2" data-name="Layer 2"><g id="Illustration_for_Main_Site" data-name="Illustration for Main Site"><path d="M61.893,168.009a1.474,1.474,0,0,1,.285.639.239.239,0,0,0,.021.06l.5.588c.117.1.231.2.352.288a2.069,2.069,0,0,1,.465.346c.11.144.306.16.428.287.136.143.333.192.481.328a1.992,1.992,0,0,0,.453.24c.211.109.416.228.632.324a.762.762,0,0,1,.272.169,2.918,2.918,0,0,0,.829.493.761.761,0,0,1,.422.15.966.966,0,0,0,.5.123.751.751,0,0,1,.5.116,2.286,2.286,0,0,1,.734.227,1.864,1.864,0,0,0,.745.189.9.9,0,0,1,.629.117c.109.006.218.014.326.019a1.21,1.21,0,0,1,.571.093.633.633,0,0,0,.257.02.614.614,0,0,1,.313.073.419.419,0,0,0,.432-.013.514.514,0,0,1,.44,0,.779.779,0,0,0,.311.077c.479,0,.958.015,1.438.018a.64.64,0,0,1,.31.078.171.171,0,0,0,.184-.011.506.506,0,0,1,.307-.088c.175,0,.349,0,.523,0a.862.862,0,0,0,.443-.077.692.692,0,0,1,.254-.035,1.452,1.452,0,0,0,.7-.122.521.521,0,0,1,.256-.023.977.977,0,0,0,.506-.09.7.7,0,0,1,.255-.028.638.638,0,0,0,.253-.041.688.688,0,0,1,.437-.091.82.82,0,0,0,.5-.114.734.734,0,0,1,.319-.037.561.561,0,0,0,.251-.05.47.47,0,0,1,.183-.052c.13-.009.262,0,.392,0,.448-.006.385-.072.785.345a.21.21,0,0,1,.029.292.266.266,0,0,0-.059.114.583.583,0,0,1-.2.4.883.883,0,0,0-.227.313.361.361,0,0,1-.231.218c-.156.043-.143.265-.337.273a2.819,2.819,0,0,0-.365.119,1.035,1.035,0,0,0-.3.12.4.4,0,0,0-.192.157,1.416,1.416,0,0,1-.436.477,1.142,1.142,0,0,0-.27.258.687.687,0,0,1-.4.316,4.792,4.792,0,0,0-.564.43,10.283,10.283,0,0,1-1.345,1.009,5.133,5.133,0,0,0-.642.43.165.165,0,0,1-.051.04c-.318.139-.591.355-.894.519-.283.154-.57.3-.863.436a2.306,2.306,0,0,0-.507.281,1.089,1.089,0,0,1-.519.239c-.172.026-.3.188-.491.142-.14-.033-.232.123-.362.12a1.549,1.549,0,0,0-.5.118,2.33,2.33,0,0,0-.358.14,1.013,1.013,0,0,1-.619.156,1.077,1.077,0,0,1-.828-.3.343.343,0,0,0-.294-.1.934.934,0,0,0-.443.083.383.383,0,0,1-.186.042c-.719.019-1.438.023-2.157,0-.043,0-.1.011-.128-.009a1.753,1.753,0,0,0-.894-.113.645.645,0,0,1-.305-.093c-.135-.083-.3,0-.44-.089a2.968,2.968,0,0,0-.35-.169.411.411,0,0,0-.125-.027c-.129-.013-.259-.023-.388-.034-.287-.195-.637-.269-.915-.482A4.823,4.823,0,0,0,61.9,177.8a.172.172,0,0,0-.231.152c-.005.305-.007.61-.012.915a2.083,2.083,0,0,0-.009.325.528.528,0,0,1-.3.534.973.973,0,0,1-.61.179,6.337,6.337,0,0,0-.914,0,1.326,1.326,0,0,0-.312.074.784.784,0,0,1-.57-.009.757.757,0,0,0-.314-.06c-.654,0-1.307-.013-1.961-.016-.807,0-1.613,0-2.419,0a.918.918,0,0,1-.506-.089.389.389,0,0,0-.189-.026c-.153,0-.306.007-.458,0a.458.458,0,0,0-.245.074.165.165,0,0,1-.182,0,.509.509,0,0,0-.306-.093c-.24.007-.479.012-.719.016a.325.325,0,0,1-.231-.1.559.559,0,0,1-.24-.441c-.111-.143-.062-.348-.159-.481-.11-.15-.074-.337-.178-.484a.279.279,0,0,1-.014-.247.858.858,0,0,0,.087-.438c0-.872.009-1.743.018-2.614a.539.539,0,0,1,.041-.252.852.852,0,0,0,.086-.441q0-.49,0-.981a.656.656,0,0,1,.078-.377.231.231,0,0,0,.034-.122c.007-.283.014-.566.011-.849a.384.384,0,0,0-.064-.181.179.179,0,0,1-.025-.182.7.7,0,0,0,.086-.375c0-.283.01-.566.017-.849,0-.065-.017-.145.014-.192a1.475,1.475,0,0,0,.1-.829c.012-.369,0-.74,0-1.078a2.279,2.279,0,0,1,.608-.634.218.218,0,0,1,.123-.028c.065-.006.131-.006.2-.008a1.032,1.032,0,0,0,.171.089.87.87,0,0,0,.57-.007.812.812,0,0,1,.743.012.152.152,0,0,0,.181-.01.223.223,0,0,1,.3-.022.309.309,0,0,0,.364.015.353.353,0,0,1,.423-.011.4.4,0,0,0,.247.059c.458,0,.916,0,1.374,0q1.766,0,3.531.007a.3.3,0,0,1,.182.046c.129.109.231.054.352-.014a.284.284,0,0,1,.307.016.405.405,0,0,0,.239.086,1.363,1.363,0,0,1,.326.006c.1.022.176.127.292.131A.49.49,0,0,1,61.893,168.009Z"/><path d="M123.842,164.892a2.314,2.314,0,0,1,.259-.031.7.7,0,0,0,.308-.083.924.924,0,0,1,.695-.021,1.3,1.3,0,0,1,.334.191,1.685,1.685,0,0,1,.191.178.42.42,0,0,0,.3.117c.133,0,.219.139.363.126a2.56,2.56,0,0,1,.327.012.372.372,0,0,1,.13.01,3.155,3.155,0,0,0,1.159.12.818.818,0,0,1,.441.082.327.327,0,0,0,.188.032,1.138,1.138,0,0,0,.635-.1c.239-.007.478-.016.717-.021a.692.692,0,0,1,.439.09.141.141,0,0,0,.125.006,1.786,1.786,0,0,1,.831-.109,1.236,1.236,0,0,0,.37-.1c.16-.06.3-.2.487-.166a.754.754,0,0,1,.5-.126.447.447,0,0,0,.25-.061.512.512,0,0,1,.315-.06.736.736,0,0,0,.43-.12.657.657,0,0,1,.295-.124c.183-.007.318-.127.489-.166a3.312,3.312,0,0,0,.724-.264,3.013,3.013,0,0,0,.343-.179c.1-.066.209-.05.309-.082a1.068,1.068,0,0,0,.343-.178,1.382,1.382,0,0,1,.683-.345c.059-.008.111-.064.166-.1a2.4,2.4,0,0,1,.861-.425.772.772,0,0,0,.346-.162c.161-.137.4-.18.488-.4a2.7,2.7,0,0,1,.273-.171,2.108,2.108,0,0,0,.7-.45,3.848,3.848,0,0,0,.749-.621c.127-.113.279-.2.415-.3a1.457,1.457,0,0,1,.366-.266.378.378,0,0,0,.21-.237.377.377,0,0,1,.277-.249.341.341,0,0,0,.255-.158,1.871,1.871,0,0,1,.819-.723,1.6,1.6,0,0,0,.329-.2,2.357,2.357,0,0,1,.334-.2.156.156,0,0,1,.181.009.861.861,0,0,0,.3.1.148.148,0,0,1,.109.144c0,.37,0,.741-.006,1.111,0,.15-.154.264-.125.428a.976.976,0,0,1-.142.213c-.184.16-.266.4-.44.561-.067.065-.052.161-.077.242a1.7,1.7,0,0,0-.121.563.763.763,0,0,0-.138.49c-.074.155-.148.312-.223.467-.151.309-.216.653-.4.949a1.468,1.468,0,0,1-.2.539,2.445,2.445,0,0,0-.225.534c-.029.2-.213.317-.295.5a7.192,7.192,0,0,1-.474.919c-.039.226-.265.339-.328.556a1.5,1.5,0,0,1-.368.53.783.783,0,0,0-.131.221,4.824,4.824,0,0,1-.407.657,2.517,2.517,0,0,1-.4.431c-.153.156-.314.3-.464.461a1.868,1.868,0,0,0-.455.547.863.863,0,0,1-.211.247c-.108.107-.224.206-.32.293a2.366,2.366,0,0,1-.544.042c-.152.008-.305,0-.486,0-.094.083-.214.178-.321.286-.215.217-.494.35-.716.559a.776.776,0,0,1-.281.156.731.731,0,0,0-.326.2.3.3,0,0,1-.232.1.349.349,0,0,0-.23.11.458.458,0,0,1-.35.144.47.47,0,0,0-.247.068c-.21.11-.423.215-.638.313a1.026,1.026,0,0,1-.491.148c-.1-.006-.2.09-.3.108a1.319,1.319,0,0,0-.5.118,1.023,1.023,0,0,1-.514.044.236.236,0,0,0-.124.028,1.028,1.028,0,0,1-.572.09c-.436,0-.872,0-1.308,0a.136.136,0,0,0-.124.177c.029.059.067.113.1.171a3.912,3.912,0,0,0,.466.845.342.342,0,0,1,.064.178c.015.13.015.261.025.392a.528.528,0,0,1-.159.41,2.142,2.142,0,0,1-.368.261.661.661,0,0,1-.4.193.132.132,0,0,0-.1.064c-.063.216-.3.235-.43.372a1.643,1.643,0,0,1-.449.249,1.4,1.4,0,0,0-.443.265.456.456,0,0,1-.174.078.706.706,0,0,0-.18.061,7.371,7.371,0,0,1-1.014.57,3.669,3.669,0,0,0-.617.353c-.184.147-.429.2-.609.364a1.266,1.266,0,0,1-.459.227,1.392,1.392,0,0,0-.618.331.751.751,0,0,1-.391.212,1.123,1.123,0,0,0-.406.19c-.181.115-.351.249-.526.374a.287.287,0,0,1-.175.075.981.981,0,0,0-.694.3c-.063.06-.128.118-.2.172a.25.25,0,0,1-.249.036,1.11,1.11,0,0,1-.492-.3,1.651,1.651,0,0,0-.23-.307,2.277,2.277,0,0,1-.316-.222,1.229,1.229,0,0,1-.3-.418,1.139,1.139,0,0,0-.269-.442.484.484,0,0,1-.1-.236,7.807,7.807,0,0,0-.683-1.311c-.053-.072-.075-.155-.119-.227a1.793,1.793,0,0,0-.279-.437.186.186,0,0,1-.065-.11,2.16,2.16,0,0,0-.318-.773c-.1-.236-.235-.46-.353-.69-.128-.249-.233-.508-.369-.755a2.125,2.125,0,0,0-.334-.55.6.6,0,0,1-.091-.168l-.615-1.212a1.451,1.451,0,0,0-.269-.648c-.023-.163-.159-.256-.236-.384-.066-.11-.111-.233-.179-.341a1.127,1.127,0,0,1-.12-.817.264.264,0,0,1,.066-.112.413.413,0,0,0,.056-.249c.133-.069.264-.142.4-.206a6.164,6.164,0,0,0,.774-.45,6.047,6.047,0,0,1,.627-.319c.154-.189.417-.224.576-.411.035-.041.116-.043.176-.063a.508.508,0,0,0,.178-.063,2.311,2.311,0,0,1,.609-.351,3.346,3.346,0,0,0,.614-.342,3.23,3.23,0,0,1,.5-.293c.229-.116.451-.246.686-.347a1,1,0,0,0,.37-.25.513.513,0,0,1,.459-.192.228.228,0,0,0,.173-.065c.142-.174.362-.228.53-.365a2.3,2.3,0,0,1,.56-.305A.993.993,0,0,0,123.842,164.892Z"/><path d="M36.391,154.243a24.847,24.847,0,0,0-1.3,2.255,3.921,3.921,0,0,0-.349.694,1.77,1.77,0,0,0-.291.649,3.369,3.369,0,0,1-.388.887.693.693,0,0,0-.06.185,1.634,1.634,0,0,1-.139.363,10.219,10.219,0,0,0-.568,1.242c-.038.077-.044.169-.079.247a4.873,4.873,0,0,0-.232.811c-.119.46-.237.919-.369,1.376a2.829,2.829,0,0,0-.2.951,1.96,1.96,0,0,0-.1.705,2.268,2.268,0,0,1-.078.513c-.094.288-.056.6-.178.889-.009.24-.022.48-.024.719a5.569,5.569,0,0,1-.077.971,4.046,4.046,0,0,0,.008,1.173.939.939,0,0,1,.045.449,14.092,14.092,0,0,0,.05,1.438,1.775,1.775,0,0,0,.072.449,1.207,1.207,0,0,1,.04.321,3,3,0,0,0,.11.9,1.1,1.1,0,0,1,.022.26,2.763,2.763,0,0,0,.068.711c.087.221.04.476.159.694a.372.372,0,0,1,.033.191,2.277,2.277,0,0,0,.2.884,5.415,5.415,0,0,0,.19.689,6.84,6.84,0,0,1,.279.728c.084.222.176.442.256.666a6.111,6.111,0,0,1,.288,1,3.223,3.223,0,0,0,.384,1.163c.136.222.238.464.353.7a.126.126,0,0,1-.123.173c-.48,0-.96.005-1.44.007-.3,0-.61,0-.88,0a.9.9,0,0,1-.346-.344q-.641-.943-1.262-1.9c-.153-.236-.277-.491-.409-.74a2.931,2.931,0,0,0-.434-.722,1.117,1.117,0,0,1-.09-.172,5.316,5.316,0,0,0-.314-.565,4.768,4.768,0,0,1-.284-.512c-.366-.589-.671-1.211-1.013-1.813a3.416,3.416,0,0,1-.4-.668c-.075-.25-.245-.456-.315-.712a4.133,4.133,0,0,0-.292-.5c-.114-.256-.268-.5-.381-.754-.022-.05-.095-.079-.154-.125-.06.125-.107.242-.171.349a1.4,1.4,0,0,1-.2.26c-.1.1-.082.247-.164.351-.068.084-.137.168-.2.255-.231.316-.36.689-.595,1.006a4.334,4.334,0,0,0-.571,1.022.5.5,0,0,1-.114.155.58.58,0,0,0-.159.28c-.036.177-.185.3-.233.463a2.119,2.119,0,0,1-.178.418c-.083.151-.177.3-.257.45a1.491,1.491,0,0,1-.469.614c-.111.073-.153.208-.232.31-.225.294-.411.612-.612.921-.189.291-.431.544-.6.85-.052.094-.12.18-.172.275-.262.475-.548.936-.838,1.4-.174.274-.364.539-.553.8a.258.258,0,0,1-.222.115c-.239,0-.479-.007-.718-.009a2.725,2.725,0,0,0-.326.006.5.5,0,0,1-.466-.181.725.725,0,0,0-.309-.226.635.635,0,0,1-.2-.16.5.5,0,0,1-.151-.283,1.423,1.423,0,0,1,.046-.645,3.286,3.286,0,0,1,.126-.37,4.153,4.153,0,0,0,.36-.973c.228-.418.359-.881.587-1.3.239-.438.411-.909.663-1.341.061-.255.212-.477.285-.722.114-.377.329-.705.458-1.075a4.755,4.755,0,0,1,.471-.994,1.181,1.181,0,0,0,.122-.3,2.054,2.054,0,0,1,.118-.3c.317-.665.626-1.333.937-2,.092-.2.194-.387.3-.574a10.441,10.441,0,0,0,.635-1.208.108.108,0,0,0-.093-.136,1.728,1.728,0,0,1-.508-.1,1.024,1.024,0,0,0-.385-.039,1.029,1.029,0,0,1-.561-.141.767.767,0,0,0-.5-.119.517.517,0,0,1-.369-.095,1.058,1.058,0,0,0-.417-.178c-.235-.049-.43-.21-.668-.251a2.7,2.7,0,0,1-.61-.22.674.674,0,0,0-.25-.056.791.791,0,0,1-.432-.124c-.26-.038-.445-.279-.728-.265-.053,0-.108-.066-.162-.1a3.578,3.578,0,0,0-.54-.216,1.114,1.114,0,0,0-.5-.107,1.083,1.083,0,0,1-.25-.057c-.173-.032-.319-.139-.484-.176a1.671,1.671,0,0,1-.43-.142c-.18-.095-.385-.082-.561-.168a1.743,1.743,0,0,0-.508-.1c-.19-.031-.367-.123-.56-.152a1.7,1.7,0,0,0-.313-.077,5.763,5.763,0,0,1-.954-.173,1.157,1.157,0,0,0-.508-.107,1.217,1.217,0,0,1-.575-.085,1.153,1.153,0,0,1-.5-.114.689.689,0,0,0-.255-.038c-.174-.009-.348-.01-.522-.018a.652.652,0,0,1-.257-.03c-.24-.126-.521-.054-.76-.178-.058-.03-.119.016-.135.09a3.506,3.506,0,0,0-.121.638,1.679,1.679,0,0,1-.07.382,2.435,2.435,0,0,0-.074.581,1.136,1.136,0,0,1-.083.574.632.632,0,0,0-.022.257,2.1,2.1,0,0,1-.1.643.951.951,0,0,0-.038.257,3.353,3.353,0,0,1-.063.646,5.978,5.978,0,0,0-.1.641c-.053.3-.079.6-.144.9-.057.257-.076.515-.107.773a2.419,2.419,0,0,1-.084.642.891.891,0,0,0-.029.324,2.322,2.322,0,0,1-.086.773.651.651,0,0,0-.01.193,4.7,4.7,0,0,1-.115,1.229c-.011.041-.007.086-.014.129-.014.08.073.141.019.241a.879.879,0,0,0-.054.317c-.009.086-.008.174-.013.261-.006.109-.016.217-.02.326,0,.087,0,.174,0,.261a.841.841,0,0,1-.064.445.275.275,0,0,0-.02.126c-.014.436-.023.871-.044,1.306-.006.128-.048.255-.062.383s-.013.261-.019.392c-.007.174-.02.348-.019.522a3.088,3.088,0,0,1-.1.966,1.644,1.644,0,0,0-.03.325.16.16,0,0,1-.135.117c-.24,0-.48.006-.72.007q-.621,0-1.243,0c-.745,0-.555.078-.751-.612s-.4-1.374-.569-2.07a4.508,4.508,0,0,1-.18-.625.268.268,0,0,1,0-.189,1.743,1.743,0,0,0,0-.837c-.008-.042-.039-.095-.024-.124.145-.278-.064-.551-.009-.831a.4.4,0,0,0-.134-.354,1.123,1.123,0,0,1-.3-.5,1.554,1.554,0,0,0-.157-.284,2.791,2.791,0,0,1-.377-1.033,2.894,2.894,0,0,0-.07-.317,8.516,8.516,0,0,1-.327-1.393,5.462,5.462,0,0,1-.2-.818,7.289,7.289,0,0,0-.149-.766,2.537,2.537,0,0,0-.118-.7,5.054,5.054,0,0,0-.132-.7,1.48,1.48,0,0,1-.029-.324,2.192,2.192,0,0,0-.091-.578,1.024,1.024,0,0,1-.033-.258,6.207,6.207,0,0,0-.094-.775,1.517,1.517,0,0,1,.013-.646,2.665,2.665,0,0,0,.045-.321c.014-.195.011-.392.034-.587a4.056,4.056,0,0,1,.172-.488.7.7,0,0,0,0-.441c-.075-.2.062-.379.1-.566a.423.423,0,0,1,.218-.309.223.223,0,0,0,.134-.206,3.193,3.193,0,0,1,.123-.834,8.277,8.277,0,0,1,.136-.832c.1-.239.122-.506.2-.754a1.232,1.232,0,0,0,.061-.383c0-.131,0-.262,0-.393s0-.262-.007-.392-.1-.227-.026-.371c.06-.117-.063-.243-.059-.377a1.3,1.3,0,0,0-.041-.389c-.148-.523-.181-1.069-.338-1.589a8.067,8.067,0,0,0-.156-.829c-.038-.258-.091-.514-.15-.767-.114-.485-.186-.979-.315-1.46a1.119,1.119,0,0,1-.037-.19c-.024-.283-.121-.553-.151-.832s-.162-.543-.165-.829a4.873,4.873,0,0,1-.17-.761c-.1-.33-.189-.667-.284-1-.09-.312-.163-.628-.284-.931a.2.2,0,0,1,.077-.228,3.979,3.979,0,0,1,.764-.361,1.48,1.48,0,0,1,.386-.042c.322-.029.562.056.594.429a12.226,12.226,0,0,1,.5,1.13c.114.258.252.5.383.754a.384.384,0,0,0,.116.153,1.168,1.168,0,0,1,.41.5,3.777,3.777,0,0,0,.687.944c.094.089.164.2.25.3a1.659,1.659,0,0,0,.23.229,2.528,2.528,0,0,1,.625.659,2.151,2.151,0,0,0,.653.632c.145.095.286.2.433.291a4.633,4.633,0,0,0,.675.232,1.079,1.079,0,0,0,.388.024c.131,0,.262.008.393,0a2.344,2.344,0,0,0,.949-.191.537.537,0,0,1,.251-.055c.5.011,1,0,1.5-.017.327-.012.655,0,.982,0a1.239,1.239,0,0,0,.386-.045.5.5,0,0,1,.375-.014.478.478,0,0,0,.321.023.978.978,0,0,1,.572,0,2.531,2.531,0,0,0,1.04,0,4.065,4.065,0,0,1,1.032-.064c.15.009.3-.017.455-.018a.852.852,0,0,1,.321.03.6.6,0,0,0,.5.007.382.382,0,0,1,.191-.017,2.7,2.7,0,0,0,.311.067,2.98,2.98,0,0,0,.317-.058,3.218,3.218,0,0,1,.326-.008c1-.007,2-.026,3.006-.017.7.006,1.395-.049,2.092.022a.284.284,0,0,0,.065,0c.8-.07,1.611-.032,2.421-.061.118-.132.237-.259.349-.392.056-.065.083-.165.149-.209.169-.112.245-.3.395-.432a2.041,2.041,0,0,0,.454-.552,1.1,1.1,0,0,1,.217-.242,1.206,1.206,0,0,0,.31-.414.4.4,0,0,1,.175-.189.8.8,0,0,0,.323-.311.857.857,0,0,1,.26-.289.276.276,0,0,0,.09-.093,6.841,6.841,0,0,1,.954-1.152,3.106,3.106,0,0,0,.2-.258,7.129,7.129,0,0,1,.832-1,3.766,3.766,0,0,0,.481-.615,3.849,3.849,0,0,1,.4-.511c.253-.271.513-.534.771-.8a2.5,2.5,0,0,1,.187-.184,2.632,2.632,0,0,0,.82-1,.929.929,0,0,1,.166-.2,2.465,2.465,0,0,0,.287-.355,3.815,3.815,0,0,1,.557-.8c.226-.236.405-.512.648-.734a1.365,1.365,0,0,0,.425-.718c.024-.1.074-.2.106-.305a2.794,2.794,0,0,1,.581-1.08,1.079,1.079,0,0,0,.154-.21,6.3,6.3,0,0,1,.922-1.094c.146-.163.356-.246.495-.419a.715.715,0,0,1,.268-.181.606.606,0,0,0,.352-.359.5.5,0,0,1,.284-.258.387.387,0,0,1,.119-.048,1.4,1.4,0,0,1,.577.029.277.277,0,0,1,.061.047,5.985,5.985,0,0,1-.122.893,2.987,2.987,0,0,0,.053.777.515.515,0,0,1,.018.193,7.7,7.7,0,0,0,.2,1.35,2.13,2.13,0,0,0,.224.675,3.823,3.823,0,0,0,.361.688.762.762,0,0,0,.264.365c.112.1.227.205.345.3a.669.669,0,0,0,.218.138.721.721,0,0,1,.507.463,1.268,1.268,0,0,0,.259.192c.159.066.34.055.5.123a.326.326,0,0,0,.193,0c.1-.025.2-.1.311-.078.233.056.473-.033.711.052a1.014,1.014,0,0,0,.644,0,1.273,1.273,0,0,1,.386-.038c.392,0,.785.005,1.177,0a4.266,4.266,0,0,1,.783-.01c.089.1.095.1.163-.007l.006,0a.719.719,0,0,1,.488.119c.1.063.134.09.134.191,0,.5,0,.993,0,1.49,0,.193-.014.386-.021.579-.117.179-.232.36-.353.536-.047.069-.131.114-.139.209-.021.007-.049.006-.061.02a5.266,5.266,0,0,0-.516.58,1.5,1.5,0,0,1-.308.332c-.464.353-.9.74-1.386,1.07a3.092,3.092,0,0,1-.678.374,5.289,5.289,0,0,0-1.152.578,1.551,1.551,0,0,1-.834.327.507.507,0,0,0-.177.074c-.155.075-.309.155-.465.229a3.767,3.767,0,0,1-.744.2,3.969,3.969,0,0,0-.893.142c-.129.144-.267.281-.384.434a1.988,1.988,0,0,0-.435.714.38.38,0,0,0-.125.037,2.193,2.193,0,0,0-.589.6,2.818,2.818,0,0,1-.5.595A.354.354,0,0,0,36.391,154.243Z" style="fill:#010101"/><path d="M81.822,5.114l-.265.008c-.172,0-.344-.013-.516-.014-.776,0-1.552,0-2.329,0-.037-.053-.077-.1-.112-.159a.371.371,0,0,1-.017-.376c.2-.429.415-.856.639-1.276a1.76,1.76,0,0,1,.286-.351.731.731,0,0,0,.244-.517.228.228,0,0,1,.073-.175,7.589,7.589,0,0,1,1.187-1.114,7.093,7.093,0,0,1,1.143-.86,1,1,0,0,1,.359-.143A7.041,7.041,0,0,1,84.457.011a.237.237,0,0,1,.127.022c.186.136.429.071.621.186a.5.5,0,0,0,.186.056.479.479,0,0,1,.275.161c.092.093.189.182.278.277a2.466,2.466,0,0,0,.775.583,1.007,1.007,0,0,1,.487.5,2.055,2.055,0,0,0,.727.822,1.7,1.7,0,0,1,.476.44,1.837,1.837,0,0,0,.422.4,4.517,4.517,0,0,0,.6.387A5.726,5.726,0,0,0,90,4.14a.987.987,0,0,0,.374.094l1.83.009c.348,0,.7.01,1.045-.011.2-.012.375.095.574.083.174-.011.328-.09.509-.086.74.014,1.482.006,2.223.006a.937.937,0,0,1,.317.046A.544.544,0,0,0,97.2,4.3a4.483,4.483,0,0,1,1.161-.074c.477-.033.957-.01,1.436-.017.152,0,.3-.026.454-.04.2-.141.322-.009.442.122.074.08.137.17.206.257a1,1,0,0,1-.365.6.722.722,0,0,1-.469.195c-.369,0-.738,0-1.107,0a1.254,1.254,0,0,1-.51-.063.8.8,0,0,0-.322-.032c-.1,0-.213.069-.3.041a1.167,1.167,0,0,0-.318-.044c-.13,0-.261-.005-.392-.005-.109,0-.218,0-.327,0s-.217-.014-.325-.014q-.654,0-1.307,0l-4.706.014c-.174,0-.348.005-.522,0a.507.507,0,0,0-.305.091.244.244,0,0,1-.121.036q-.424,0-.85,0a.236.236,0,0,1-.119-.041.512.512,0,0,0-.307-.085c-.348.006-.7,0-1.046.008l-.644-.022a.2.2,0,0,0-.21-.115c-.828,0-1.655,0-2.483-.006-.2,0-.392.009-.588.014Z" style="fill:#010101"/><path d="M66.277,133.55a.472.472,0,0,1-.065,0c-.208-.043-.368.106-.557.135-.169.026-.351-.029-.5.09a1.985,1.985,0,0,0-.71.292c-.152.016-.25.184-.42.15a4.533,4.533,0,0,0-.967.5.631.631,0,0,1-.416.141.981.981,0,0,1-.821-.439,1,1,0,0,1-.14-.29.463.463,0,0,1,.011-.379.787.787,0,0,0,.1-.435q-.006-2.157-.006-4.315,0-3.434,0-6.867a.837.837,0,0,1,.093-.437.29.29,0,0,0-.03-.309.23.23,0,0,1,.006-.3.293.293,0,0,0,.017-.309.76.76,0,0,1-.086-.375q0-1.308,0-2.616a.875.875,0,0,1,.071-.377.866.866,0,0,0,.015-.571,1.6,1.6,0,0,1,0-1.01.514.514,0,0,0,.029-.125c0-.2,0-.392,0-.588a.135.135,0,0,0-.008-.064,1.419,1.419,0,0,1-.075-.891c.089.008.176,0,.222-.089a1.716,1.716,0,0,1,.2-.4,1.883,1.883,0,0,0,.329-.549,1.181,1.181,0,0,1,.191-.259.276.276,0,0,0,.076-.174.621.621,0,0,1,.071-.375,2.99,2.99,0,0,0,.12-.357.44.44,0,0,0,.07-.244.57.57,0,0,1,.106-.364c.06-.107.014-.255.114-.362s.009-.254.11-.365c.085-.093.094-.239.184-.337-.012-.261.228-.474.14-.749q0-5.431,0-10.864,0-13.024,0-26.048,0-14.005,0-28.011c0-.109,0-.219,0-.328a.212.212,0,0,0-.037-.119.534.534,0,0,1-.089-.37c0-.742,0-1.483,0-2.225a.4.4,0,0,0-.1-.232,1.16,1.16,0,0,0-.477-.321.475.475,0,0,0-.437.005,1.551,1.551,0,0,0-.283.148,3.03,3.03,0,0,0-.277.278c0,.2,0,.4,0,.595a.349.349,0,0,1-.032.186.643.643,0,0,0-.1.434c0,.327,0,.654,0,.981a.742.742,0,0,1-.115.558c-.019.021,0,.084.013.123s.057.071.067.111a.819.819,0,0,1-.014.567.623.623,0,0,0-.082.306c0,.131,0,.262,0,.393q0,7.984,0,15.969a2.522,2.522,0,0,0,0,.261.234.234,0,0,0,.056.115.214.214,0,0,1,0,.292.325.325,0,0,0-.054.18q0,1.177,0,2.356a.341.341,0,0,0,.056.18.342.342,0,0,1,0,.422.357.357,0,0,0-.056.18c-.008.174,0,.349,0,.523a.388.388,0,0,0,.093.236.182.182,0,0,1-.034.234c-.044.055-.075.134-.039.178a.615.615,0,0,1,.112.428c-.006.306,0,.611,0,.917,0,.171.035.351-.1.5a.105.105,0,0,0-.023.059c0,.392,0,.785,0,1.178a.231.231,0,0,0,.048.116.377.377,0,0,1,.077.242c-.026.318.08.653-.126.948,0,.152,0,.305,0,.458a.454.454,0,0,0,.084.239.444.444,0,0,1,.01.435.734.734,0,0,0-.093.369q0,1.113,0,2.225a.358.358,0,0,0,.085.238.146.146,0,0,1,.017.18.506.506,0,0,0-.021.605.316.316,0,0,1-.011.364c-.024.036-.045.075-.068.115,0,.325,0,.652,0,.979a.364.364,0,0,0,.08.24.176.176,0,0,1-.009.235c-.025.035-.064.074-.064.112,0,.239,0,.479.006.718,0,.038.04.076.066.111a.284.284,0,0,1,.025.307.693.693,0,0,0-.106.365q.012.753,0,1.506a.559.559,0,0,0,.112.362.134.134,0,0,1,0,.123.562.562,0,0,0-.11.363c.006.654,0,1.309,0,1.963a.765.765,0,0,0,.1.433.537.537,0,0,1,.01.38c-.138.142-.109.321-.11.493,0,.786,0,1.571,0,2.356a.382.382,0,0,0,.07.244.232.232,0,0,1,.055.115c.006.174.006.349,0,.523a.254.254,0,0,1-.048.117.409.409,0,0,0-.078.242c0,.589,0,1.177,0,1.766a1.5,1.5,0,0,1,.1.168c.016.037.029.1.01.123a.609.609,0,0,0-.115.427q0,1.7,0,3.4a.659.659,0,0,0,.1.368c.039.064.017.166.022.251-.144.138-.118.318-.118.49,0,.568,0,1.135,0,1.7a.605.605,0,0,0,.1.433.205.205,0,0,1,.029.122.8.8,0,0,1-.106.561c-.033.042-.019.125-.019.19,0,.327,0,.654,0,.981a.706.706,0,0,0,.091.37.423.423,0,0,1-.007.434.852.852,0,0,0-.057.626.116.116,0,0,0,.033.056.2.2,0,0,1-.006.29.213.213,0,0,0-.051.116q0,.85,0,1.7a.23.23,0,0,0,.055.116.334.334,0,0,1,0,.42.351.351,0,0,0-.054.181c-.006.305,0,.611,0,.916a.538.538,0,0,0,.089.238.533.533,0,0,1-.034.492.341.341,0,0,0,0,.365c.023.037.064.074.065.112.008.239.007.479.007.718a.1.1,0,0,1-.032.056.507.507,0,0,0-.093.368c0,.589,0,1.178,0,1.767,0,.213-.052.439.119.621a.675.675,0,0,1-.056.441.362.362,0,0,0-.061.178c-.008.153-.006.306,0,.458a.215.215,0,0,0,.047.117.209.209,0,0,1,.014.291.269.269,0,0,0-.066.179c.006.2,0,.392.006.589-.5,0-1,0-1.5.01a.766.766,0,0,1-.244-.078.772.772,0,0,0-.569,0,1.38,1.38,0,0,1-.762.05c-.04,0-.075-.044-.115-.06a.175.175,0,0,0-.183.008.221.221,0,0,1-.295.021.137.137,0,0,0-.057-.03.828.828,0,0,0-.629.05.157.157,0,0,1-.182.008.586.586,0,0,0-.372-.092l-1.373,0q-1.6,0-3.2-.006a.956.956,0,0,1-.566-.1c-.058-.039-.127.015-.179.049s-.071.019-.117-.005a.525.525,0,0,0-.554.013.154.154,0,0,1-.181.01.253.253,0,0,0-.351-.005.6.6,0,0,1-.181.069.245.245,0,0,0-.194-.146c-.257-.006-.516.01-.771-.012-.155-.013-.233.082-.335.152a.234.234,0,0,0-.2-.146c-.131,0-.262,0-.385,0a.428.428,0,0,0-.065.034c-.1.075-.209.152-.313.229-.175,0-.349,0-.523-.007a.21.21,0,0,1-.116-.053,2.629,2.629,0,0,1-.232-.228.258.258,0,0,1-.041-.248c.029-.1.091-.195.112-.3a.558.558,0,0,1,.082-.242.229.229,0,0,0,.033-.056c.046-.123-.012-.264.062-.38a2.343,2.343,0,0,0,.216-.321c.05-.117.163-.209.145-.356-.015-.117.091-.192.125-.294.047-.142.158-.262.139-.425a.825.825,0,0,0,.125-.43c0-.177.179-.305.134-.494a.8.8,0,0,0,.131-.493,1.072,1.072,0,0,0,.123-.626.56.56,0,0,1,.081-.309.918.918,0,0,0,.185-.675.235.235,0,0,1,.005-.065c.036-.1.085-.2.111-.3a1.511,1.511,0,0,1,.05-.317.884.884,0,0,0,.089-.372c.012-.235-.047-.484.116-.694.006-.174.01-.348.019-.522a.574.574,0,0,1,.039-.252.919.919,0,0,0,.09-.439,1.35,1.35,0,0,1,.118-.759c.006-.2.01-.392.019-.588a.4.4,0,0,1,.037-.187.676.676,0,0,0,.088-.374l0-.785a.662.662,0,0,1,.083-.376A.418.418,0,0,0,49.6,99.8a1.248,1.248,0,0,1,.11-.633.407.407,0,0,0,.018-.191c.006-.261.011-.523.013-.784a.724.724,0,0,1,.091-.439.264.264,0,0,0,.032-.123c.022-.234-.037-.482.121-.693.006-.152.014-.3.018-.456a.765.765,0,0,1,.092-.438.373.373,0,0,0,.035-.188c.006-.174,0-.349.008-.523a.394.394,0,0,1,.02-.191,1.261,1.261,0,0,0,.108-.7.851.851,0,0,1,.094-.5.381.381,0,0,0,.029-.189c.007-.13.007-.261.012-.392a1.722,1.722,0,0,1,.03-.451,1.394,1.394,0,0,0,.1-.37.739.739,0,0,0,.118-.494c0-.414.009-.828.011-1.243a.587.587,0,0,1,.086-.372.388.388,0,0,0,.037-.253c0-.524,0-1.047.008-1.571a1.207,1.207,0,0,1,.095-.7.39.39,0,0,0,.019-.19c.006-.676.013-1.352.016-2.028a.613.613,0,0,1,.084-.374c.054-.076.03-.169.031-.254q.008-1.014.011-2.028,0-1.964.007-3.926a.554.554,0,0,1,.071-.311.307.307,0,0,0,.013-.311.6.6,0,0,1-.011-.619.371.371,0,0,0,.041-.186,1.172,1.172,0,0,0-.091-.635.558.558,0,0,1-.021-.255c-.007-.567-.014-1.134-.018-1.7a.657.657,0,0,0-.08-.375.45.45,0,0,1-.039-.187,1.5,1.5,0,0,0-.106-.634.7.7,0,0,1-.029-.321.715.715,0,0,0-.1-.436.365.365,0,0,1-.034-.187c-.006-.174,0-.349-.006-.523a.463.463,0,0,0-.015-.192c-.188-.349-.07-.728-.115-1.09-.021-.17.027-.351-.094-.5-.01-.151-.02-.3-.029-.453a.827.827,0,0,0-.087-.441.382.382,0,0,1-.04-.186c-.006-.153,0-.306-.008-.458a.449.449,0,0,0-.043-.186.594.594,0,0,1-.081-.31c0-.109-.007-.218-.006-.327a.644.644,0,0,0-.084-.375.381.381,0,0,1-.038-.186C50,67.394,50,67.067,50,66.74a.829.829,0,0,0-.1-.564c-.008-.109-.018-.217-.023-.325a.45.45,0,0,0-.062-.248.415.415,0,0,1-.063-.248c0-.2,0-.393-.01-.589-.016-.277.068-.568-.111-.823-.006-.131-.009-.261-.019-.391a.6.6,0,0,0-.036-.252.83.83,0,0,1-.083-.441c0-.218-.014-.436-.013-.654a.472.472,0,0,0-.081-.307c-.044-.058-.031-.124-.041-.188a.7.7,0,0,0-.047-.251.7.7,0,0,1-.079-.375c0-.262-.011-.523-.012-.785a.677.677,0,0,0-.084-.375.41.41,0,0,1-.039-.187c-.007-.152,0-.3-.013-.457a.387.387,0,0,0-.042-.187.884.884,0,0,1-.081-.443.824.824,0,0,0-.094-.439.393.393,0,0,1-.033-.188,1.016,1.016,0,0,0-.117-.628c-.008-.108-.013-.217-.024-.325a.413.413,0,0,0-.037-.186.616.616,0,0,1-.089-.373c0-.152,0-.3-.009-.457,0-.065.013-.144-.018-.191a1.225,1.225,0,0,1-.111-.632.46.46,0,0,0-.035-.188.711.711,0,0,1-.08-.377c0-.262-.008-.523-.008-.785a.6.6,0,0,0-.089-.373.4.4,0,0,1-.034-.254c0-.872,0-1.745-.012-2.617a1.217,1.217,0,0,0-.1-.7.542.542,0,0,1-.022-.255c0-.633,0-1.265,0-1.9a.662.662,0,0,1,.085-.308.49.49,0,0,0,.034-.188c.008-.174.014-.349.013-.523a.565.565,0,0,1,.075-.311.755.755,0,0,0,.056-.382.487.487,0,0,1,.064-.247.462.462,0,0,0,.057-.182,1.488,1.488,0,0,1,.109-.567c.087-.166-.016-.388.1-.567.094-.145.032-.35.174-.48a.991.991,0,0,1,.085-.442.782.782,0,0,0,.063-.445c.005-.117.088-.2.113-.3a1.461,1.461,0,0,1,.086-.442c.063-.108.057-.258.125-.36.089-.134.029-.307.143-.427a.171.171,0,0,0,.045-.118,1.169,1.169,0,0,1,.189-.609c.1-.213.232-.415.321-.633.064-.156.19-.3.16-.487a.684.684,0,0,0,.129-.427.206.206,0,0,1,.028-.123c.123-.138.078-.33.174-.484a.983.983,0,0,0,.2-.472.289.289,0,0,1,.083-.169,1.619,1.619,0,0,0,.268-.442c.066-.129.05-.289.173-.408.089-.086.119-.233.208-.321a1.226,1.226,0,0,0,.264-.443c.112-.285.33-.5.449-.778.193-.206.288-.485.509-.67.137-.114.154-.308.291-.426a3.393,3.393,0,0,0,.366-.373c.1-.114.166-.251.261-.367s.215-.217.311-.335c.067-.082.1-.2.17-.27a1.6,1.6,0,0,1,.266-.177.289.289,0,0,0,.093-.091,6.252,6.252,0,0,1,.9-1.021c.09-.1.219-.134.317-.218.067-.2.241-.284.405-.391a5.032,5.032,0,0,0,.438-.392,2.717,2.717,0,0,1,.271-.174c.1-.064.086-.2.163-.272a.564.564,0,0,1,.149-.125c.179-.076.346-.172.518-.262.3-.159.612-.306.9-.5a9.808,9.808,0,0,1,1.033-.524.3.3,0,0,1,.121-.037.906.906,0,0,0,.434-.113c.108-.058.258-.022.365-.115a.1.1,0,0,1,.057-.029,1.121,1.121,0,0,0,.558-.138.788.788,0,0,0,.493-.13.831.831,0,0,0,.368-.112c.095-.041.222,0,.319-.04a1.2,1.2,0,0,1,.427-.135.653.653,0,0,1,.431-.114c.306,0,.611,0,.916,0a.919.919,0,0,0,.5-.088.672.672,0,0,1,.318-.038.623.623,0,0,0,.31-.08.459.459,0,0,1,.186-.045.967.967,0,0,0,.5-.1c.062-.043.167-.023.253-.032s.192.013.254-.03a.866.866,0,0,1,.5-.1.946.946,0,0,0,.437-.1.814.814,0,0,1,.32-.029.43.43,0,0,0,.249-.059.4.4,0,0,1,.246-.067c.153,0,.3,0,.458-.01a.375.375,0,0,0,.184-.046.725.725,0,0,1,.441-.082.681.681,0,0,0,.438-.09.265.265,0,0,1,.122-.03c.043-.006.088,0,.131-.007.233-.025.483.051.692-.117.13-.009.26-.019.39-.025a.907.907,0,0,0,.5-.091.546.546,0,0,1,.254-.033.686.686,0,0,0,.375-.083.389.389,0,0,1,.186-.042,1.051,1.051,0,0,0,.5-.1.763.763,0,0,1,.319-.033.438.438,0,0,0,.248-.06.42.42,0,0,1,.246-.072.833.833,0,0,0,.5-.1c.046-.033.126-.02.19-.024.087-.006.194.024.258-.016a1.689,1.689,0,0,1,.825-.129.424.424,0,0,0,.185-.045.876.876,0,0,1,.572-.059.417.417,0,0,1-.082.242,6.626,6.626,0,0,1-.551.72c-.058.225-.294.323-.382.518a2.434,2.434,0,0,1-.453.549,1.052,1.052,0,0,0-.172.2,2.974,2.974,0,0,1-.632.736c-.121.126-.253.242-.369.372s-.257.162-.364.263a3.96,3.96,0,0,0-.317.405.37.37,0,0,1-.145.129,1.273,1.273,0,0,0-.458.356,5.282,5.282,0,0,1-.554.447c-.192.14-.352.325-.531.485-.046.041-.127.048-.167.093-.153.177-.428.213-.523.46a.23.23,0,0,1-.14.13c-.208.036-.286.271-.492.3q-.218.2-.437.391a.641.641,0,0,1-.214.142c-.144.052-.218.209-.373.254s-.226.2-.342.3a.324.324,0,0,1-.106.074c-.183.043-.286.191-.415.3a1.638,1.638,0,0,1-.362.269.58.58,0,0,0-.3.33c.068.048.137.136.21.139a1.434,1.434,0,0,1,.483.175,2.457,2.457,0,0,1,.338.191.321.321,0,0,0,.365,0c.032-.02.087-.046.109-.033a.93.93,0,0,0,.509.075c.327.008.654.012.981.014a.485.485,0,0,1,.25.055.42.42,0,0,0,.179.061c.174.011.349.013.523.011a.516.516,0,0,1,.245.074.426.426,0,0,0,.183.051c.523,0,1.047,0,1.57,0a.208.208,0,0,0,.121-.033.554.554,0,0,1,.371-.086c.262,0,.524-.01.785-.016.043,0,.1.007.126-.015a.938.938,0,0,1,.628-.109.96.96,0,0,0,.3-.106c.12-.039.251-.024.365-.111s.294-.051.444-.056a.369.369,0,0,0,.18-.065c.15-.086.352-.033.481-.178.009-.011.041,0,.063,0a.7.7,0,0,0,.377-.07c.106-.063.244-.07.358-.123a.507.507,0,0,1,.241-.079.514.514,0,0,0,.31-.07c.164-.1.343-.177.518-.261.057-.027.123-.072.177-.062.214.039.373-.093.55-.162.079-.03.141-.1.235-.1a.4.4,0,0,0,.288-.129c.049-.042.1-.1.159-.111a.506.506,0,0,0,.354-.133c.164-.021.25-.166.38-.239a.286.286,0,0,1,.121-.041,1.092,1.092,0,0,0,.473-.2.486.486,0,0,1,.244-.079.153.153,0,0,0,.151-.1.219.219,0,0,1,.256-.146.33.33,0,0,0,.343-.137c.078-.12.216-.14.328-.2a1.653,1.653,0,0,0,.427-.288,4.186,4.186,0,0,1,1.067-.705,1.391,1.391,0,0,0,.334-.187c.127-.125.3-.178.423-.3a1.37,1.37,0,0,1,.462-.345c.054-.019.1-.087.131-.14s.042-.125.082-.17a3.236,3.236,0,0,0,.672-.78c.141-.036.17-.179.257-.263.183-.178.2-.5.5-.572A.166.166,0,0,0,87.3,28.3a.907.907,0,0,0,.15-.488.163.163,0,0,1,.076-.158.713.713,0,0,1,.054.18c.008.218.006.436.006.654l0,3.076c0,2.967,0,5.934-.009,8.9a1.52,1.52,0,0,1-.106.892c.019.192-.047.389.062.576a.523.523,0,0,1,.043.251c0,.655,0,1.309,0,1.964a.532.532,0,0,1-.056.25.536.536,0,0,0,0,.5.279.279,0,0,1-.008.3.424.424,0,0,0-.047.252c0,.567,0,1.134,0,1.7a.389.389,0,0,0,.029.188,1.12,1.12,0,0,1,.066.636.963.963,0,0,0-.093.632c0,1.309,0,2.617,0,3.926,0,2.029-.014,4.058-.017,6.086q-.007,6.217-.009,12.434,0,4.122,0,8.245a.586.586,0,0,1-.083.373.14.14,0,0,0-.008.123.645.645,0,0,1,.093.307c0,1.156,0,2.313,0,3.469a.422.422,0,0,1-.033.188,1.225,1.225,0,0,0-.045.763,1.813,1.813,0,0,1,.076.309c0,.415,0,.829,0,1.244a.39.39,0,0,1-.04.186.4.4,0,0,0,0,.43.457.457,0,0,1,.048.252c0,.371,0,.742,0,1.113a.567.567,0,0,1-.026.256,1.821,1.821,0,0,0-.079.834.358.358,0,0,0,.039.12.5.5,0,0,1,.061.182,2.3,2.3,0,0,1-.1,1.024c.005.128-.034.261.047.38a.239.239,0,0,1-.005.3.18.18,0,0,0-.022.182c.022.061.084.119.08.175-.024.341.093.7-.094,1.024-.016.027.009.082.021.121a.926.926,0,0,1,.066.179c.012.109-.126.187-.084.3a.73.73,0,0,1,.1.3c-.008.13,0,.262,0,.392a.6.6,0,0,1-.086.374.168.168,0,0,0,.024.182.378.378,0,0,1,.031.372.574.574,0,0,0-.081.243c0,.262,0,.524,0,.785a.244.244,0,0,0,.028.124.615.615,0,0,1,.076.375q0,.557,0,1.113a.661.661,0,0,1-.065.315.431.431,0,0,0-.039.186c-.006.283-.006.567-.006.851a.277.277,0,0,0,.034.188.567.567,0,0,1,.073.376q0,1.6,0,3.206.007,3.4.013,6.806c0,.261-.017.522-.026.784-.02.009-.051.012-.058.027-.235.5-.51.985-.731,1.494a.469.469,0,0,0-.109.364.329.329,0,0,1-.091.234,2.387,2.387,0,0,0-.29.349,6.83,6.83,0,0,0-.345.69c-.113.257-.321.456-.431.713-.076.178-.179.345-.249.522-.055.14-.149.258-.2.4-.039.119-.191.177-.224.312-.039.16-.176.244-.279.352a.389.389,0,0,0-.122.29.131.131,0,0,1-.013.062c-.084.15-.24.25-.281.433-.013.056-.078.1-.124.148-.124.122-.264.234-.238.438a.9.9,0,0,1-.359.366.448.448,0,0,0-.169.171,5.472,5.472,0,0,1-.372.452c-.041.213-.225.315-.362.446a1.888,1.888,0,0,0-.432.638,1.84,1.84,0,0,1-.384.588,4.362,4.362,0,0,0-.3.419,2.68,2.68,0,0,1-.274.28c-.113.106-.124.27-.238.382a4.27,4.27,0,0,0-.258.366c-.1.117-.214.217-.32.326-.182.188-.363.377-.544.565a1.459,1.459,0,0,1-.391.511,2.071,2.071,0,0,0-.5.593.349.349,0,0,1-.14.134,1.594,1.594,0,0,0-.623.627.845.845,0,0,1-.33.309c-.061.028-.128.05-.149.109a1.265,1.265,0,0,1-.364.452q-1.083,1.089-2.175,2.171a2.212,2.212,0,0,1-.739.623c-.038.013-.063.059-.1.087-.1.086-.142.219-.228.308s-.224.122-.307.227c-.027.034-.066.059-.09.095-.058.089-.108.183-.165.274-.074.119-.233.106-.324.2a.97.97,0,0,1-.287.262.945.945,0,0,0-.361.265c-.1.12-.26.153-.373.25-.148.128-.282.273-.426.406a2.147,2.147,0,0,1-.6.49c-.174.075-.25.3-.463.341l-.43.4a1,1,0,0,1-.245.214c-.34.142-.61.405-.945.545-.194.081-.293.254-.453.36a3.154,3.154,0,0,0-.561.307.94.94,0,0,1-.3.247c-.157.054-.231.2-.367.263-.115.056-.237.1-.352.152s-.23.115-.343.176C66.424,133.394,66.393,133.521,66.277,133.55Zm15.7-85.223a.532.532,0,0,0-.065-.009h-13.8c-.065,0-.13,0-.2,0-.036,0-.1.094-.1.149a.279.279,0,0,0,.068.24.368.368,0,0,0,.282.132c1.222,0,2.443,0,3.664,0a.579.579,0,0,1,.365.1.152.152,0,0,0,.179-.021.365.365,0,0,1,.173-.077c.13-.012.262,0,.393,0H81.9c.109,0,.218,0,.327,0a.079.079,0,0,0,.053-.036c.021-.034.059-.082.049-.107A.8.8,0,0,0,81.979,48.327Z" style="fill:#ccc"/><path d="M105.982,84.046a2.582,2.582,0,0,1,.036.841.234.234,0,0,1-.06.114.157.157,0,0,0-.016.183.654.654,0,0,1,.088.372c0,.959.008,1.918.01,2.878q.006,2.453.006,4.905c0,1.134-.005,2.267-.006,3.4,0,.37,0,.741,0,1.111a.254.254,0,0,0,.013.128c.176.259.078.55.1.826.017.217,0,.436.007.654a.713.713,0,0,1-.088.373.644.644,0,0,0-.02.252c.175.234.078.5.1.759a.094.094,0,0,1-.027.058.555.555,0,0,0-.087.372c0,.153.007.305,0,.458a.865.865,0,0,0,.079.308,1.08,1.08,0,0,1,0,.7,1.122,1.122,0,0,0-.075.374c0,.392,0,.785,0,1.177a.61.61,0,0,0,.077.376.232.232,0,0,1,.032.122c0,.174,0,.349.008.523a.56.56,0,0,1-.071.246.558.558,0,0,0,.009.5.519.519,0,0,1,.059.249c0,.283,0,.567,0,.85a.25.25,0,0,1-.014.127,1.268,1.268,0,0,0-.1.762c0,1.156,0,2.311,0,3.467a.718.718,0,0,0,.085.373.621.621,0,0,1,.018.251c-.172.236-.08.5-.091.76,0,.038.035.079.057.116a.314.314,0,0,1,.022.311.728.728,0,0,0-.088.373c.008.174,0,.349,0,.523a.429.429,0,0,0,.04.186.585.585,0,0,1,.072.311c0,.24,0,.48,0,.719a.792.792,0,0,1-.085.5,3.77,3.77,0,0,0-.011.907.987.987,0,0,1,.1.631q0,.851-.01,1.7a.127.127,0,0,1-.088.086c-.217.01-.435.01-.653.008a.207.207,0,0,1-.12-.039c-.148-.127-.345-.034-.5-.113a1.417,1.417,0,0,1-.432-.281.616.616,0,0,0-.254-.2,1.7,1.7,0,0,1-.363-.116c-.111-.058-.214-.164-.35-.156s-.235-.127-.36-.127a1.078,1.078,0,0,1-.424-.148.9.9,0,0,0-.426-.13.258.258,0,0,1-.126-.021c-.137-.064-.267-.144-.407-.2-.117-.049-.262-.018-.362-.122a2.755,2.755,0,0,1-.654-.26c-.093-.047-.213-.041-.305-.089s-.161-.158-.257-.2a2.957,2.957,0,0,1-.661-.4,1.335,1.335,0,0,0-.231-.112c-.019-.01-.04-.03-.057-.028a.759.759,0,0,1-.641-.254l-.257.013c-.049-.112-.032-.261-.2-.3a1.108,1.108,0,0,1-.226-.122c-.21-.1-.422-.208-.634-.311-.145-.2-.407-.238-.575-.414-.085-.09-.224-.118-.324-.206a1.283,1.283,0,0,0-.332-.191,1.23,1.23,0,0,1-.374-.247.449.449,0,0,0-.175-.069c-.06-.02-.143-.018-.178-.058-.147-.169-.379-.211-.53-.372a.291.291,0,0,0-.165-.09.833.833,0,0,1-.3-.1c-.095-.049-.192-.092-.286-.144a2.521,2.521,0,0,0-.581-.268,3.192,3.192,0,0,1-.532-.218,2.846,2.846,0,0,1-.51-.268,4.063,4.063,0,0,1-.422-.409,1.128,1.128,0,0,1-.141-.135,1.791,1.791,0,0,0-.572-.416c-.134-.009-.157-.122-.212-.213a.79.79,0,0,0-.327-.311c-.06-.029-.131-.051-.148-.11-.053-.181-.214-.27-.322-.4a1.056,1.056,0,0,1-.2-.252.879.879,0,0,0-.273-.357c-.135-.119-.158-.3-.3-.422a3.538,3.538,0,0,1-.621-.82l.022-.438a.849.849,0,0,0,.094-.6c.011-.088-.035-.128-.115-.141a.492.492,0,0,1,.021-.192.68.68,0,0,0,.1-.37c0-.2-.007-.393,0-.588a.665.665,0,0,1,.049-.252.72.72,0,0,0,.072-.312q0-.948.009-1.895a.418.418,0,0,0-.089-.236.264.264,0,0,1-.021-.25.89.89,0,0,0,.109-.565,4.113,4.113,0,0,1,.006-.521.344.344,0,0,1,.055-.181.213.213,0,0,0-.009-.291.381.381,0,0,1-.049-.181,1.57,1.57,0,0,1,.107-.83.4.4,0,0,0-.028-.378.427.427,0,0,1-.076-.244c0-.24-.007-.479,0-.719a.409.409,0,0,1,.04-.187.524.524,0,0,0,.011-.611c-.01-.013-.016-.044-.008-.052a.57.57,0,0,0,.1-.433q-.006-2.059-.012-4.119c0-.85,0-1.7,0-2.549,0-.894.009-1.788.013-2.681,0-.262-.007-.523,0-.784a.4.4,0,0,0-.084-.239.085.085,0,0,1,.014-.114.556.556,0,0,0,.065-.378c0-.653-.006-1.306-.007-1.959,0-1.024.006-2.049,0-3.073,0-.232.071-.481-.1-.693a1.914,1.914,0,0,1,.07-.9.452.452,0,0,0,.026-.19q.009-.294.009-.588c0-.98.006-1.961-.009-2.942-.005-.3.091-.611-.107-.886.016-.211-.056-.432.095-.628a.261.261,0,0,0,0-.25c-.024-.06-.091-.117-.088-.172.011-.212-.066-.437.088-.631a.151.151,0,0,0,0-.123c-.032-.076-.071-.131-.021-.229a.538.538,0,0,0-.088-.6l.026-.585a1.174,1.174,0,0,0,.107-.631c.012-.414.013-.828.015-1.242,0-.2,0-.392-.017-.587,0-.059-.082-.114-.084-.172s.059-.108.082-.166a.315.315,0,0,0,.016-.126c0-.087-.022-.174-.022-.26q.006-1.471.016-2.943a.636.636,0,0,0-.068-.245.531.531,0,0,1,.016-.554.223.223,0,0,0,.05-.115c0-.393,0-.785-.012-1.178,0-.039-.036-.077-.055-.115s-.059-.079-.055-.115c.028-.254-.085-.526.105-.76a.137.137,0,0,0-.013-.121.5.5,0,0,1-.09-.3c.005-.327,0-.655-.017-.981-.006-.12.073-.193.1-.289L89,62.206c.006-.124.022-.255.019-.385-.022-.936-.005-1.872,0-2.808-.051-.228.068-.484-.119-.692-.019-.021-.007-.09.013-.122a.5.5,0,0,0,.1-.3c-.009-.13-.005-.261-.015-.392a.23.23,0,0,0-.046-.117.209.209,0,0,1,0-.292.261.261,0,0,0,.058-.179c-.007-.218,0-.436.006-.654a2.025,2.025,0,0,0-.119-.629.446.446,0,0,1,.048-.378.416.416,0,0,0,.061-.248c0-.392,0-.784,0-1.177,0-.064.016-.149-.017-.189-.125-.153-.077-.335-.112-.5a.522.522,0,0,0-.1-.159c.059-.12.113-.239.174-.354a.36.36,0,0,0-.034-.424.244.244,0,0,1-.045-.185,5.335,5.335,0,0,0,0-.848.27.27,0,0,1,.033-.189.811.811,0,0,0,.071-.625c-.131-.148-.091-.325-.092-.5a.822.822,0,0,0-.108-.564.679.679,0,0,1,.062-.5.272.272,0,0,0-.011-.306.534.534,0,0,1,0-.611.238.238,0,0,0,.036-.12c.005-.174,0-.349.006-.523a.527.527,0,0,0-.1-.428.13.13,0,0,1,.005-.121.419.419,0,0,0,.095-.3,2.976,2.976,0,0,1,.011-.326c0-.827,0-1.655,0-2.464-.052-.107-.153-.185-.047-.3a.131.131,0,0,0,.021-.119.657.657,0,0,1,.005-.734.242.242,0,0,0-.028-.249.135.135,0,0,1-.007-.169.317.317,0,0,0,0-.365.388.388,0,0,1-.076-.242,2.835,2.835,0,0,0,0-.391.634.634,0,0,0-.07-.178c-.008-.019-.026-.039-.024-.057a.133.133,0,0,1,.033-.055.308.308,0,0,0,.028-.365.524.524,0,0,1-.011-.608.469.469,0,0,0,0-.437.814.814,0,0,1-.083-.243c-.011-.327-.008-.654-.008-.98,0-.218,0-.435,0-.653a6.147,6.147,0,0,0,0-.718c-.022-.211.073-.441-.083-.634a.819.819,0,0,0,.079-.234c0-.653,0-1.306,0-1.959a.565.565,0,0,0-.088-.306.15.15,0,0,1,.013-.181.206.206,0,0,0,.022-.29.326.326,0,0,1-.023-.366.436.436,0,0,0,.074-.245.809.809,0,0,1-.006-.13,1.473,1.473,0,0,0-.1-.826.233.233,0,0,1,.039-.247.211.211,0,0,0,0-.292.18.18,0,0,1,.006-.237.329.329,0,0,0,.05-.309c-.017-.062-.063-.116-.084-.177a.286.286,0,0,1,.009-.252.511.511,0,0,0,.088-.3c-.01-.3,0-.61,0-.915a.72.72,0,0,0-.072-.443c-.014-.021.015-.073.028-.11s.047-.08.047-.12q0-.654,0-1.308a.232.232,0,0,0-.05-.119c-.029-.043-.043-.08-.017-.114a.442.442,0,0,0,.076-.308c-.008-.174-.009-.349-.006-.523,0-.026.042-.056.071-.075.009-.007.04.013.058.025.133.089.146.262.254.371.138.14.266.289.4.435.04.186.2.278.318.4.133.144.277.278.417.416.093.092.181.191.281.274s.219.138.316.222a3.893,3.893,0,0,1,.425.407c.146.169.367.237.512.39a2,2,0,0,0,.586.4,2.17,2.17,0,0,1,.272.174.4.4,0,0,0,.166.094.687.687,0,0,1,.342.166,6.153,6.153,0,0,0,.826.5c.31.149.614.312.921.468a1.482,1.482,0,0,0,.347.169,2.348,2.348,0,0,1,.6.229c.153.079.345.05.481.176l.327.007a1.066,1.066,0,0,1,.2,0,.56.56,0,0,1,.176.076.166.166,0,0,0,.181.009.5.5,0,0,1,.244-.08c.108,0,.218-.013.326-.007a.928.928,0,0,0,.661-.221,2.591,2.591,0,0,1,.5-.3c.2.019.351-.173.557-.151.015,0,.036-.021.05-.036s.006-.061-.054-.066a1.263,1.263,0,0,1-.63-.124c-.031-.021-.085-.009-.128-.013a.851.851,0,0,1-.443-.076c-.137-.093-.309-.014-.44-.091a1.093,1.093,0,0,0-.436-.107c-.125-.017-.24-.094-.365-.114a.987.987,0,0,1-.373-.1c-.127-.075-.3-.025-.42-.149-.182.014-.321-.13-.488-.145-.14-.013-.233-.135-.361-.131-.167.006-.277-.116-.424-.154-.121-.032-.228-.107-.359-.137a1.857,1.857,0,0,1-.407-.191c-.269-.137-.534-.281-.807-.41a6.29,6.29,0,0,0-.783-.445.786.786,0,0,1-.16-.112c-.108-.071-.222-.132-.325-.21a.862.862,0,0,0-.325-.206c-.171-.17-.406-.25-.578-.416-.219-.211-.5-.337-.711-.564a3.013,3.013,0,0,1-.738-.631,2.288,2.288,0,0,1-.558-.788,1.591,1.591,0,0,0-.221-.3,1.207,1.207,0,0,1-.009-.147,2.145,2.145,0,0,0-.118-.7c-.054-.2-.2-.392-.148-.62-.094-.147-.1-.332-.178-.478a.989.989,0,0,0-.616-.443.188.188,0,0,0-.233.16c0,.131,0,.262,0,.393,0,.5-.006,1-.013,1.5a.647.647,0,0,1-.041.253.865.865,0,0,0-.079.311.662.662,0,0,1-.061.38c-.095.135-.039.3-.1.437-.109.235-.19.479-.291.714a1.983,1.983,0,0,1-.332.625c-.167.175-.209.424-.355.613-.119.154-.218.324-.348.467-.234.259-.475.512-.731.749a3.558,3.558,0,0,1-.786.675,2.194,2.194,0,0,0-.341.3c-.133.108-.279.2-.413.306a.971.971,0,0,1-.373.253,5.32,5.32,0,0,1-.708.445A3.486,3.486,0,0,1,82,31.2c-.24.1-.417.3-.663.4a3.857,3.857,0,0,1-.527.236,2.023,2.023,0,0,0-.465.217c-.171.088-.348.166-.524.247a.361.361,0,0,1-.12.043c-.2.011-.348.181-.554.164-.194.094-.39.183-.581.284a.466.466,0,0,1-.241.083.733.733,0,0,0-.368.108,1.424,1.424,0,0,1-.292.135.975.975,0,0,0-.364.126c-.182-.014-.323.113-.491.144a.987.987,0,0,0-.375.088c-.105.066-.253.06-.36.123-.135.081-.3.038-.429.14s-.3.044-.445.061a.255.255,0,0,0-.123.031c-.13.1-.294.063-.434.108a1.48,1.48,0,0,1-.563.126.089.089,0,0,0-.058.023.636.636,0,0,1-.436.1.659.659,0,0,0-.309.081.718.718,0,0,1-.251.047c-.087.009-.2-.024-.258.016-.263.167-.551.09-.827.118-.086.008-.189-.013-.255.027a1.169,1.169,0,0,1-.636.1c-.48.01-.96.01-1.44.011a1.035,1.035,0,0,1-.188-.035c.019-.076.074-.1.123-.132.066-.048.1-.137.162-.194.088-.082.208-.032.313-.052s.125-.105.162-.181c.023-.046.06-.053.106-.018s.093.043.1.006c.064-.226.264-.338.4-.5a.372.372,0,0,1,.3-.1.127.127,0,0,0,.121-.125,1.314,1.314,0,0,1,.04-.184c.005-.018.029-.047.043-.046.142.009.2-.167.346-.151a.32.32,0,0,0,.315-.191c.056-.091.091-.182.211-.222.144-.047.212-.22.373-.251a2.4,2.4,0,0,0,.639-.642c.022-.035.041-.091.073-.1.145-.041.244-.183.413-.174.1.006.153-.067.161-.165s.013-.179.112-.209a.41.41,0,0,0,.28-.25c.025-.065.049-.13.107-.146a.39.39,0,0,0,.3-.379.166.166,0,0,1,.054-.111c.087-.061.185-.1.223-.219a.138.138,0,0,1,.1-.068.647.647,0,0,0,.525-.429,1.925,1.925,0,0,0,.125-.226.28.28,0,0,1,.179-.167.2.2,0,0,0,.1-.221.112.112,0,0,1,.048-.114,1.133,1.133,0,0,0,.16-.1c.069-.065.035-.164.064-.243a.142.142,0,0,1,.091-.08.161.161,0,0,0,.144-.11c.054-.21.221-.364.276-.574a.2.2,0,0,1,.139-.121c.037-.014.093-.062.088-.085-.037-.193.157-.306.162-.478a.242.242,0,0,1,.176-.239.147.147,0,0,0,.069-.1c.014-.13.011-.262.025-.392a.151.151,0,0,1,.068-.1.236.236,0,0,0,.181-.233,1.047,1.047,0,0,1,.094-.372c.065-.156.078-.333.158-.487v-.654c-.08-.152-.16-.3-.238-.456a.259.259,0,0,1-.011-.064.672.672,0,0,1,.03-.188c.062-.135.151-.259.207-.4.047-.116.023-.256.113-.362a.212.212,0,0,0,.04-.119c.008-.129.009-.258.013-.387.153-.165.1-.416.246-.583,0-.238.178-.438.14-.683a1.054,1.054,0,0,0,.139-.549c.113-.139.093-.328.172-.475.093-.171.055-.383.2-.537.034-.038.013-.125.018-.19a.2.2,0,0,1,.015-.061c.093-.162.287-.164.421-.261a.4.4,0,0,1,.246-.037c.085,0,.17,0,.271,0,.165-.155.334-.317.507-.474a.383.383,0,0,1,.113-.046.244.244,0,0,0,.142.2,2.942,2.942,0,0,0,.473.2,3.962,3.962,0,0,1,.777.286,1.444,1.444,0,0,0,.464.211c.161.021.266.148.42.16.121.155.325.094.476.185a3.92,3.92,0,0,0,.633.313,5.185,5.185,0,0,0,.645.284,2.142,2.142,0,0,1,.639.294c.153.1.346.049.482.175a.163.163,0,0,0,.12.037.794.794,0,0,1,.544.171c.184.113.339.266.581.24.056-.005.115.054.176.072.164.048.3.152.476.189a2.914,2.914,0,0,1,.524.231.367.367,0,0,0,.129.005.7.7,0,0,0,.039.186,1.155,1.155,0,0,0,.438.217c.188.012.386-.022.544.121l.445.016.321.031c.3.217.685.242,1,.432.147.089.342.06.475.186a.472.472,0,0,1,.307.086c.089.079.212.031.307.08.034.017.052.062.078.095-.115.095-.149.152-.106.2.162.176.243.409.416.577.328.32.651.645.976.967a.736.736,0,0,0,.2.172,1.627,1.627,0,0,1,.5.411c.17.172.4.27.559.44.244.255.563.4.824.631a.436.436,0,0,1,.267.175,1.623,1.623,0,0,0,.48.327c.094.052.187.1.277.164a7.2,7.2,0,0,0,.932.572,2.515,2.515,0,0,1,.391.225c.263.186.561.316.826.5.122.084.273.126.4.2a.962.962,0,0,0,.243.08,1.733,1.733,0,0,1,.294.128c.75.375,1.5.754,2.25,1.123a.948.948,0,0,0,.412.175c.162,0,.263.137.425.149a1.931,1.931,0,0,1,.471.2,3.076,3.076,0,0,0,.477.189c.163.031.314.13.485.159.131.137.33.072.484.17.139.088.327.088.48.173a.188.188,0,0,0,.128,0,.168.168,0,0,0,.1-.069.148.148,0,0,0-.014-.119.491.491,0,0,0-.247-.2.37.37,0,0,1-.194-.163.484.484,0,0,0-.266-.254,1.35,1.35,0,0,1-.473-.335.341.341,0,0,0-.151-.12c-.163-.032-.248-.177-.381-.238a1.518,1.518,0,0,1-.372-.253.271.271,0,0,0-.175-.068c-.143.008-.225-.139-.36-.132-.176.011-.268-.125-.391-.209a.24.24,0,0,0-.116-.048.894.894,0,0,1-.3-.108.905.905,0,0,1-.322-.207.227.227,0,0,0-.175-.071.3.3,0,0,1-.236-.09.513.513,0,0,0-.272-.169,1.23,1.23,0,0,1-.3-.11.979.979,0,0,1-.322-.205.969.969,0,0,0-.169-.089,2.17,2.17,0,0,1-.548-.339.179.179,0,0,0-.118-.04.417.417,0,0,1-.291-.125.437.437,0,0,0-.214-.132c-.142-.008-.236-.119-.357-.137a.868.868,0,0,1-.4-.183,2.453,2.453,0,0,1-.466-.339c-.124-.147-.358-.159-.468-.338a.109.109,0,0,0-.053-.037c-.04-.014-.082-.023-.123-.035a1.2,1.2,0,0,1-.614-.329,3.659,3.659,0,0,0-.377-.361,1.926,1.926,0,0,0-.451-.239c-.057-.021-.1-.087-.151-.124A1.947,1.947,0,0,0,95.268,25c-.086-.043-.077-.153-.145-.2-.086-.061-.19-.1-.271-.163a2.52,2.52,0,0,1-.226-.236.857.857,0,0,0-.259-.186.875.875,0,0,1-.434-.38c-.079-.168-.23-.248-.328-.382-.055-.075-.1-.135-.2-.139-.174-.007-.348-.008-.521-.021-.033,0-.064-.051-.095-.078a2.209,2.209,0,0,1,.649-.037c.109,0,.217-.007.326-.011.276-.191.59-.1.888-.117.261-.016.524-.01.786-.011a.5.5,0,0,0,.25-.055.411.411,0,0,1,.182-.056c.349-.007.7-.007,1.047-.008a.25.25,0,0,1,.127.016c.237.159.506.089.762.113.043,0,.1-.012.129.007a1.919,1.919,0,0,0,.889.134.28.28,0,0,1,.119.045.468.468,0,0,0,.247.072.858.858,0,0,1,.5.1.534.534,0,0,0,.254.031.686.686,0,0,1,.374.089.291.291,0,0,0,.186.038c.207-.027.354.169.558.143a1.536,1.536,0,0,1,.5.292.246.246,0,0,0,.1.077c.248.06.341.328.574.414.2.075.386.185.579.28.207.223.513.316.713.556.181.217.4.4.6.6a1.967,1.967,0,0,0,.531.368,2.284,2.284,0,0,1,.791.549c.125.123.247.247.37.371a1.017,1.017,0,0,0,.4.316,1.452,1.452,0,0,1,.168.274.524.524,0,0,0,.28.337.767.767,0,0,1,.374.351,1.519,1.519,0,0,0,.28.352,3.516,3.516,0,0,1,.312.335,3.215,3.215,0,0,1,.221.394c.02.037.028.089.058.113.161.127.178.349.327.48a1.244,1.244,0,0,1,.258.444,2.655,2.655,0,0,0,.367.452c.105.136.2.28.3.42.038.053.1.1.117.156a5.413,5.413,0,0,0,.415.725,6.071,6.071,0,0,1,.637,1.12c.153.282.273.582.414.871a1.111,1.111,0,0,0,.2.332,1.6,1.6,0,0,1,.3.5,2.089,2.089,0,0,0,.178.266.469.469,0,0,1,.088.17.952.952,0,0,0,.107.436c.074.1.026.253.112.367s.048.292.139.427c.053.081.015.219.057.314a1.272,1.272,0,0,1,.125.627.253.253,0,0,0,.029.123,1.325,1.325,0,0,1,.239.727,3.859,3.859,0,0,0,.172.347.588.588,0,0,1,.079.31.382.382,0,0,0,.034.187.678.678,0,0,1,.1.373.671.671,0,0,0,.083.375.368.368,0,0,1,.038.186c.008.3.008.611.014.916a.978.978,0,0,0,.144.621.742.742,0,0,1,.11.366c-.006.174,0,.349.007.523a.364.364,0,0,0,.043.185.632.632,0,0,1,.091.373c0,.065-.023.145.006.193.2.326.083.681.11,1.021a.383.383,0,0,1,0,.131.626.626,0,0,1-.071.178.176.176,0,0,0-.012.184.578.578,0,0,1,.095.3c0,.218,0,.436.01.655a.424.424,0,0,0,.016.191,1.654,1.654,0,0,1,.108.894c.011.807.006,1.615,0,2.422a.779.779,0,0,0,.092.372.3.3,0,0,1,.005.249.781.781,0,0,0-.1.437c.006.436,0,.872,0,1.309,0,.043,0,.087,0,.13.011.151.138.265.116.432a4.145,4.145,0,0,0,0,.523c0,.153,0,.306,0,.459s0,.3,0,.458a.369.369,0,0,1-.026.188.815.815,0,0,0-.091.5c0,.3,0,.611-.006.916,0,.087.019.194-.023.256a1.212,1.212,0,0,0-.116.7.432.432,0,0,1-.054.182.481.481,0,0,0-.058.249c0,.261-.007.523-.013.785,0,.065.011.144-.021.191a1.437,1.437,0,0,0-.109.827.915.915,0,0,1-.1.368.875.875,0,0,0-.157.552.086.086,0,0,1-.007.064c-.145.16-.1.37-.153.553-.03.1-.106.185-.1.3a.746.746,0,0,1-.1.5c-.033.044-.023.124-.025.189-.006.152-.007.3-.008.458a.659.659,0,0,1-.087.374c-.076.117-.031.255-.038.383-.008.153-.011.306-.013.458,0,.131,0,.262,0,.393s-.125.221-.136.36c-.011.124-.082.242-.106.367a1.55,1.55,0,0,0-.01.327.826.826,0,0,1-.108.367,2.066,2.066,0,0,0-.142.287.767.767,0,0,1-.091.308.2.2,0,0,0-.045.118,1.715,1.715,0,0,1-.134.693c.049.231-.159.4-.146.624-.147.15-.09.376-.2.539a.129.129,0,0,0-.031.057,1,1,0,0,1-.139.557.985.985,0,0,1-.182.609c-.091.138-.043.305-.139.426a.64.64,0,0,0-.089.373,1.571,1.571,0,0,1-.177.413.535.535,0,0,0-.078.244.7.7,0,0,1-.109.367A1.017,1.017,0,0,0,110.1,71a.506.506,0,0,1-.072.245,1.3,1.3,0,0,0-.171.347,1.386,1.386,0,0,1-.113.368.571.571,0,0,0-.038.254.752.752,0,0,1-.084.375.575.575,0,0,0-.044.252.5.5,0,0,1-.08.242.361.361,0,0,0-.054.182,1.229,1.229,0,0,1-.11.434,1.509,1.509,0,0,0-.027.39.427.427,0,0,1-.043.119,1.6,1.6,0,0,0-.214.865.677.677,0,0,1-.074.245,1,1,0,0,0-.057.25,2.885,2.885,0,0,0-.151.689c0,.035-.043.074-.062.113a1.312,1.312,0,0,0-.176.678.618.618,0,0,1-.057.444c-.088.113-.049.255-.114.368a.469.469,0,0,0-.092.239,2.083,2.083,0,0,1-.005.262.5.5,0,0,1-.052.183.665.665,0,0,0-.079.245.837.837,0,0,1-.071.178l-.1.236c-.026.058-.078.119-.073.174a1.2,1.2,0,0,1-.2.608,1.426,1.426,0,0,0-.085.308c-.022.1-.117.179-.121.3a.328.328,0,0,1-.055.182c-.109.143-.074.335-.182.482a.7.7,0,0,0-.143.353c-.009.166-.119.278-.168.419-.042.121-.09.236-.123.363a1.791,1.791,0,0,1-.2.4c-.074.13-.019.309-.163.412-.11.079-.118.227-.208.319-.013.014-.041.013-.062.019-.1-.021-.132-.084-.136-.184,0-.122.091-.2.119-.3.035-.122.023-.254.115-.363.071-.084.008-.21.075-.308a2.132,2.132,0,0,0,.182-.34.475.475,0,0,0,.036-.187c0-.1.081-.151.112-.23.039-.1,0-.218.077-.308a.312.312,0,0,0,.075-.241c-.008-.12.134-.184.121-.292-.021-.169.136-.271.135-.423,0-.185.133-.312.186-.473.02-.059.082-.1.078-.174-.012-.2.186-.345.144-.552a.573.573,0,0,0,.125-.424.447.447,0,0,1,.06-.179.55.55,0,0,0-.011-.552.512.512,0,0,1,.009-.493.393.393,0,0,0,.067-.178c0-.677,0-1.353,0-2.029a.353.353,0,0,0-.077-.174.187.187,0,0,1,.01-.236.3.3,0,0,0,.072-.177c0-.327,0-.655,0-.982a.4.4,0,0,0-.038-.12.77.77,0,0,1,.007-.736.294.294,0,0,0-.007-.307.507.507,0,0,1-.059-.493.983.983,0,0,0,.1-.366q-.008-3.436,0-6.874a.6.6,0,0,0-.108-.364.162.162,0,0,1,.028-.179.344.344,0,0,0,.074-.174c.006-.458,0-.917,0-1.375a.322.322,0,0,0-.072-.177.314.314,0,0,1,0-.363.41.41,0,0,0,.077-.242c0-.3-.008-.611,0-.916a.54.54,0,0,0-.107-.365.13.13,0,0,1-.008-.122.635.635,0,0,0,.111-.493c0-.175,0-.349,0-.524a.637.637,0,0,1-.1-.168,1.334,1.334,0,0,1-.016-.254.59.59,0,0,0,.118-.425q-.006-1.245,0-2.488a.668.668,0,0,0-.1-.368c-.04-.064-.017-.166-.023-.251.144-.138.119-.317.119-.49,0-.676,0-1.353,0-2.029a.627.627,0,0,0-.1-.368.267.267,0,0,1,.012-.306.355.355,0,0,0-.012-.474.142.142,0,0,1,.008-.179.336.336,0,0,0,.087-.237c0-.022,0-.044,0-.066a.938.938,0,0,0-.117-.624.193.193,0,0,1,0-.188.757.757,0,0,0,.116-.559c0-.5,0-1,0-1.506a.713.713,0,0,0-.091-.3.486.486,0,0,1,.034-.493.3.3,0,0,0,0-.363.321.321,0,0,1,0-.418.169.169,0,0,0,0-.234.2.2,0,0,1,0-.289.17.17,0,0,0,.008-.234.34.34,0,0,1-.013-.419.472.472,0,0,0,.01-.491.354.354,0,0,1-.009-.421.3.3,0,0,0,.064-.179c0-.828,0-1.655,0-2.482-.066-.073-.122-.14-.182-.2-.122-.125-.252-.242-.367-.373a2.582,2.582,0,0,1-.269-.506.61.61,0,0,0-.084-.1.321.321,0,0,0-.3-.074c-.188.1-.379.2-.57.289a.557.557,0,0,0-.179.185c-.036.051-.042.123-.078.174a.629.629,0,0,0-.05.44c.154.161.117.364.117.556,0,1.506,0,3.012,0,4.517a.534.534,0,0,1-.1.3.15.15,0,0,0,.012.18.361.361,0,0,1,.087.238c0,.24,0,.48,0,.72V83.678c0,.065,0,.131,0,.2a.147.147,0,0,0,.08.158A.413.413,0,0,0,105.982,84.046Z" style="fill:#ccc"/><path d="M36.391,154.243a.354.354,0,0,1,.046-.114,2.818,2.818,0,0,0,.5-.595,2.193,2.193,0,0,1,.589-.6.38.38,0,0,1,.125-.037,5.5,5.5,0,0,1,.448.853,6.24,6.24,0,0,0,.429.711,1.762,1.762,0,0,0,.31.332c.231.231.469.453.694.69a.507.507,0,0,0,.45.208.308.308,0,0,1,.181.051,4.332,4.332,0,0,0,.652.258,2.469,2.469,0,0,0,.767.067.854.854,0,0,0,.428-.121,2.028,2.028,0,0,1,.709-.282c.156-.111.362-.137.488-.308a2.519,2.519,0,0,1,.327-.317,1.01,1.01,0,0,0,.456-.35c.2-.2.4-.4.6-.6.06-.062.144-.124.163-.2.042-.162.206-.232.253-.371a1.8,1.8,0,0,1,.245-.377.241.241,0,0,0,.042-.119,1.148,1.148,0,0,1,.1-.3,1.956,1.956,0,0,0,.034-.385c.01-.129.02-.258.029-.387a.724.724,0,0,0,.091-.5q0-.914,0-1.826a.72.72,0,0,1,.118-.428.82.82,0,0,0,.139-.354,3.814,3.814,0,0,0,0-.65c-.006-.081-.072-.155-.1-.236a.493.493,0,0,1-.01-.129c.008-.095.092-.14.139-.209.121-.176.236-.357.353-.536.007-.193.02-.386.021-.579,0-.5,0-.994,0-1.49,0-.1-.034-.128-.134-.191a.719.719,0,0,0-.488-.119c-.005-.611-.013-1.221-.015-1.832q-.006-2.127-.007-4.254c0-1.724.005-3.447.005-5.171,0-.981-.005-1.962-.006-2.944q0-1.308,0-2.617,0-2.193,0-4.385,0-1.7.007-3.4a.692.692,0,0,1,.1-.5.653.653,0,0,0-.045-.444.252.252,0,0,1,.013-.3.386.386,0,0,0,.038-.186c.007-.5.01-1,.015-1.506a1,1,0,0,1,.094-.568.526.526,0,0,0,.024-.254c.006-.5.015-1,.011-1.506a.446.446,0,0,1,.144-.347c.11-.1.226-.2.337-.3a1.009,1.009,0,0,0,.207,0c.189-.042.333.068.492.13a.528.528,0,0,1,.283.333c.012.029.07.04.107.059a.87.87,0,0,0-.142.48c.025.344.012.691.01,1.037a.258.258,0,0,0,.072.174.286.286,0,0,1,.058.241l.006.524c0,.065-.019.146.012.192.191.282.1.594.1.891.009,2.006.008,4.012.009,6.018,0,.61,0,1.22,0,1.831a.416.416,0,0,1-.055.249.38.38,0,0,0,0,.428.422.422,0,0,1,.047.184q.009.391,0,.785a.409.409,0,0,1-.057.181.421.421,0,0,0,.017.432.472.472,0,0,1,.006.437.659.659,0,0,0-.081.309c0,.239,0,.479,0,.719a.234.234,0,0,0,.019.126,1.042,1.042,0,0,1,.091.633c0,.305,0,.611.006.916a.491.491,0,0,1-.071.245.377.377,0,0,0,0,.372.365.365,0,0,1,.064.181c0,.174,0,.349,0,.523a.528.528,0,0,1-.072.245.54.54,0,0,0,.012.5.391.391,0,0,1-.019.426.308.308,0,0,0,0,.312.734.734,0,0,1,.081.375q0,1.014,0,2.028a.408.408,0,0,1-.053.249.254.254,0,0,0,.006.3.389.389,0,0,1,.044.185c0,.348,0,.7,0,1.046,0,1.352.011,2.7.011,4.055q0,2.879-.009,5.756,0,.882,0,1.766a.438.438,0,0,1-.055.248.408.408,0,0,0,.006.431.717.717,0,0,1,.011.567,1.049,1.049,0,0,0-.078.376c0,.327-.008.654-.007.981a.59.59,0,0,1-.08.309.51.51,0,0,0-.041.185c-.015.128.022.266-.055.381s-.107.284-.228.389a.472.472,0,0,0-.135.286,1.517,1.517,0,0,1-.268.506c-.132.168-.336.282-.391.509-.135.141-.271.282-.4.425a.285.285,0,0,0-.077.1c-.054.207-.233.305-.373.436-.206.03-.285.265-.492.3a.221.221,0,0,0-.14.129c-.064.181-.237.236-.363.346-.164.143-.371.218-.536.362-.111.1-.3.046-.416.16a1.476,1.476,0,0,0-.8.4c-.149,0-.3.015-.452.013a.54.54,0,0,0-.3.1.243.243,0,0,1-.249.011.327.327,0,0,0-.415,0,.256.256,0,0,1-.188.019c-.1-.026-.2-.083-.3-.112s-.22.017-.318-.049a.482.482,0,0,0-.3-.091.41.41,0,0,1-.25-.053,1.053,1.053,0,0,0-.665-.215,1.306,1.306,0,0,1-.4-.211,3.283,3.283,0,0,0-.568-.429,1.964,1.964,0,0,1-.314-.221.746.746,0,0,1-.151-.282c-.032-.093-.094-.126-.172-.172a1.041,1.041,0,0,1-.41-.488,2.556,2.556,0,0,0-.425-.72c-.015-.016-.038-.038-.035-.054.033-.187-.131-.319-.137-.494a.246.246,0,0,0-.031-.122C36.471,154.279,36.426,154.265,36.391,154.243Z" style="fill:#ccc"/><path d="M123.842,164.892a.993.993,0,0,1-.494.391,2.3,2.3,0,0,0-.56.305c-.168.137-.388.191-.53.365a.228.228,0,0,1-.173.065.513.513,0,0,0-.459.192,1,1,0,0,1-.37.25c-.235.1-.457.231-.686.347a3.23,3.23,0,0,0-.5.293,3.346,3.346,0,0,1-.614.342,2.311,2.311,0,0,0-.609.351.508.508,0,0,1-.178.063c-.06.02-.141.022-.176.063-.159.187-.422.222-.576.411a6.047,6.047,0,0,0-.627.319,6.164,6.164,0,0,1-.774.45c-.134.064-.265.137-.4.206a.307.307,0,0,1-.2-.157,2.117,2.117,0,0,0-.25-.371c-.1-.106-.134-.265-.248-.372a1.166,1.166,0,0,1-.235-.305,2.134,2.134,0,0,0-.283-.351c-.111-.131-.15-.311-.3-.42-.124-.093-.162-.253-.254-.367-.109-.134-.187-.287-.29-.422a2.749,2.749,0,0,1-.239-.38,2.446,2.446,0,0,1-.1-.237c.123-.044.263,0,.379-.071.144-.093.319-.132.432-.277a.988.988,0,0,1,.367-.254.984.984,0,0,0,.426-.283.891.891,0,0,0,.419-.289c.126-.155.339-.183.468-.336.112-.132.246-.245.369-.369s.347-.169.472-.331a1.322,1.322,0,0,1,.481-.311,1.607,1.607,0,0,0,.217-.135c.17-.129.267-.348.5-.4q.213-.2.425-.4c.157-.15.311-.3.467-.454.047-.045.1-.085.146-.129s.121-.038.184-.051a.208.208,0,0,0,.113-.047,3.074,3.074,0,0,1,.183-.259c.181-.181.32-.413.589-.491a.3.3,0,0,0,.1-.081,1.7,1.7,0,0,1,.6-.48l.417-.412a.271.271,0,0,1,.241-.061c.038.015.1.021.11.048.161.4.465.712.614,1.114.108.1.058.247.118.36s.116.228.174.342a1.151,1.151,0,0,1,.162.343c.017.158.118.276.142.42a2.408,2.408,0,0,0,.1.3c.05.162.2.285.18.473a1.021,1.021,0,0,1,.135.488.419.419,0,0,0,.062.177,1.465,1.465,0,0,1,.172.406C123.709,164.633,123.842,164.737,123.842,164.892Z" style="fill:#ccc"/><path d="M61.893,168.009a.49.49,0,0,0-.065-.011c-.116,0-.189-.109-.292-.131a1.363,1.363,0,0,0-.326-.006.405.405,0,0,1-.239-.086.284.284,0,0,0-.307-.016c-.121.068-.223.123-.352.014a.3.3,0,0,0-.182-.046q-1.765-.006-3.531-.007c-.458,0-.916,0-1.374,0a.4.4,0,0,1-.247-.059.353.353,0,0,0-.423.011.309.309,0,0,1-.364-.015.223.223,0,0,0-.3.022.152.152,0,0,1-.181.01.812.812,0,0,0-.743-.012.87.87,0,0,1-.57.007,1.032,1.032,0,0,1-.171-.089c.346-.691.7-1.381,1.034-2.076a.872.872,0,0,0,.153-.421c0-.054.059-.112.1-.163a1.208,1.208,0,0,0,.283-.571.276.276,0,0,1,.078-.172,1.366,1.366,0,0,0,.239-.381c.115-.206.191-.432.327-.628a.59.59,0,0,0,.125-.292c0-.207.194-.345.173-.552a.52.52,0,0,1,.465.176c.053.071.151.078.221.12a1.579,1.579,0,0,1,.523.367c.108.147.3.155.436.263a.477.477,0,0,1,.444.221,1.112,1.112,0,0,0,.428.278,1.912,1.912,0,0,1,.692.451.415.415,0,0,0,.291.116.294.294,0,0,1,.165.088,1.61,1.61,0,0,0,.381.238,2.427,2.427,0,0,1,.555.309c.136.145.352.162.476.324.056.073.156.058.235.084a4.573,4.573,0,0,1,.687.332c.1.158.284.19.43.274a1.433,1.433,0,0,1,.32.209.274.274,0,0,0,.164.089.506.506,0,0,1,.346.15,1.387,1.387,0,0,0,.217.134.218.218,0,0,1,.086.225.127.127,0,0,0,.1.141.186.186,0,0,1,.168.163c-.012.063,0,.143-.039.185-.142.164-.3.313-.447.474A3.064,3.064,0,0,0,61.893,168.009Z" style="fill:#ccc"/><path d="M45.563,144.7c-.068.112-.074.112-.163.007Z" style="fill:#ccc"/><path d="M88.757,109.07a3.538,3.538,0,0,0,.621.82c.137.118.16.3.3.422a.879.879,0,0,1,.273.357,1.056,1.056,0,0,0,.2.252c.108.133.269.222.322.4.017.059.088.081.148.11a.79.79,0,0,1,.327.311c.055.091.078.2.212.213a1.791,1.791,0,0,1,.572.416,1.128,1.128,0,0,0,.141.135,4.063,4.063,0,0,0,.422.409,2.846,2.846,0,0,0,.51.268,3.192,3.192,0,0,0,.532.218,2.521,2.521,0,0,1,.581.268c.094.052.191.095.286.144a.833.833,0,0,0,.3.1.291.291,0,0,1,.165.09c.151.161.383.2.53.372.035.04.118.038.178.058a.449.449,0,0,1,.175.069,1.23,1.23,0,0,0,.374.247,1.283,1.283,0,0,1,.332.191c.1.088.239.116.324.206.168.176.43.213.575.414.212.1.424.206.634.311a1.108,1.108,0,0,0,.226.122c.173.036.156.185.2.3a1.057,1.057,0,0,1-.037.125,4.175,4.175,0,0,1-.32.491,3.056,3.056,0,0,1-.341.472,5.434,5.434,0,0,0-.4.585,4.872,4.872,0,0,1-.517.744,1.017,1.017,0,0,0-.176.272c-.177.35-.388.68-.587,1.017a3.352,3.352,0,0,0,.319.488c.349.416.712.82,1.044,1.252a5.961,5.961,0,0,0,.619.672,5.529,5.529,0,0,1,.7.854,1.593,1.593,0,0,0,.238.308,1.437,1.437,0,0,1,.5.583c.019.053.107.076.143.127.225.32.493.605.737.908s.51.594.766.889c.355.41.66.863,1.053,1.243.184.179.294.424.485.607a6.416,6.416,0,0,1,.462.547,4.961,4.961,0,0,0,.385.444,6.884,6.884,0,0,1,.753.893,9.848,9.848,0,0,0,.677.794,3.714,3.714,0,0,1,.421.5,2.331,2.331,0,0,0,.344.393,1.105,1.105,0,0,1,.324.4.591.591,0,0,0,.118.155.674.674,0,0,0,.091.094c.239.2.35.494.571.71a2.245,2.245,0,0,1,.538.65.647.647,0,0,0,.169.2c.309.277.509.651.817.929a5.832,5.832,0,0,0,.893,1.034,2.046,2.046,0,0,1,.226.316,4.37,4.37,0,0,0,.649.81,6.224,6.224,0,0,1,.771.882c.151.211.356.377.5.6a4.052,4.052,0,0,0,.469.54,1.488,1.488,0,0,1,.359.46.126.126,0,0,0,.036.054,6.446,6.446,0,0,1,.678.788,12.087,12.087,0,0,1,.894,1.037,1.631,1.631,0,0,0,.124.151,3.848,3.848,0,0,1,.4.428,2.127,2.127,0,0,0,.32.408,4.835,4.835,0,0,1,.363.461c.129.147.263.29.394.436a2.253,2.253,0,0,1,.448.556.7.7,0,0,0,.123.151,4.108,4.108,0,0,1,.475.534c.127.2.344.333.432.567.028.076.11.133.169.2a7.4,7.4,0,0,1,.631.746,5.546,5.546,0,0,0,.576.624,2.658,2.658,0,0,1,.5.6c.3.289.494.662.8.945a1.066,1.066,0,0,1,.134.143,7.672,7.672,0,0,0,.785.959,1.594,1.594,0,0,0,.412.5,7.459,7.459,0,0,1,.855,1.062.507.507,0,0,0,.08.1c.374.336.631.774.986,1.129a3.077,3.077,0,0,1,.66.8c.027.056.089.095.132.143a1.669,1.669,0,0,1,.368.454.425.425,0,0,0,.123.151,7.8,7.8,0,0,1,.8.94,3.743,3.743,0,0,1,.412.586,4.819,4.819,0,0,0,.55.806.332.332,0,0,1,.018.368c-.025.035-.053.068-.08.1a4.363,4.363,0,0,1-.444.561c-.237.221-.511.4-.769.6-.068.053-.161.1-.195.168-.166.355-.554.474-.787.758a2.361,2.361,0,0,1-.443.383c-.148.1-.2.283-.333.395a4.3,4.3,0,0,1-.444.385c-.11.069-.2.162-.307.242a.393.393,0,0,0-.122.291.271.271,0,0,0-.241.061l-.417.412a1.7,1.7,0,0,0-.6.48.3.3,0,0,1-.1.081c-.269.078-.408.31-.589.491a3.074,3.074,0,0,0-.183.259.208.208,0,0,1-.113.047c-.063.013-.131,0-.184.051s-.1.084-.146.129c-.156.151-.31.3-.467.454q-.211.2-.425.4c-.232.052-.329.271-.5.4a1.607,1.607,0,0,1-.217.135,1.322,1.322,0,0,0-.481.311c-.125.162-.335.193-.472.331s-.257.237-.369.369c-.129.153-.342.181-.468.336a.891.891,0,0,1-.419.289.984.984,0,0,1-.426.283.988.988,0,0,0-.367.254c-.113.145-.288.184-.432.277-.116.074-.256.027-.379.071a.906.906,0,0,1-.235-.307,1.1,1.1,0,0,0-.469-.438.44.44,0,0,1-.233-.22,1.25,1.25,0,0,0-.308-.414c-.124-.118-.164-.312-.342-.381a6.981,6.981,0,0,0-.647-.812c-.159-.232-.375-.423-.558-.64-.083-.1-.115-.248-.239-.3-.159-.068-.191-.225-.286-.337a1.992,1.992,0,0,1-.3-.338,2.583,2.583,0,0,0-.368-.453,1.959,1.959,0,0,1-.325-.405.651.651,0,0,0-.161-.2,7.47,7.47,0,0,1-.767-.882,1.247,1.247,0,0,1-.164-.2,3.555,3.555,0,0,0-.708-.847,1.553,1.553,0,0,1-.438-.558c-.23-.232-.461-.463-.689-.7a1.086,1.086,0,0,1-.359-.453.245.245,0,0,0-.078-.1c-.347-.3-.581-.7-.9-1.03a.455.455,0,0,1-.149-.282.335.335,0,0,0-.168-.266,1.136,1.136,0,0,1-.452-.452,1.847,1.847,0,0,0-.293-.349,1.7,1.7,0,0,1-.367-.455.242.242,0,0,0-.078-.1,2.717,2.717,0,0,1-.56-.711,3,3,0,0,0-.282-.354,10.9,10.9,0,0,1-.75-.816c-.147-.188-.317-.357-.455-.551-.125-.176-.347-.261-.421-.488-.069-.21-.319-.3-.392-.513a.256.256,0,0,0-.081-.1c-.084-.069-.2-.117-.251-.2-.167-.256-.376-.476-.559-.718a9.173,9.173,0,0,0-1.179-1.386A.427.427,0,0,1,98.6,148a.963.963,0,0,0-.391-.427.486.486,0,0,1-.157-.194,3.35,3.35,0,0,0-.367-.531,11.88,11.88,0,0,0-1-1.116.748.748,0,0,1-.129-.147,7.676,7.676,0,0,0-.935-1.086.825.825,0,0,1-.166-.2,3.572,3.572,0,0,0-.866-1.047c-.088-.1-.2-.17-.216-.314-.172-.2-.333-.4-.519-.585a2.258,2.258,0,0,1-.428-.487,1.266,1.266,0,0,1-.344-.46.721.721,0,0,0-.11-.16,7.284,7.284,0,0,1-.668-.715,2.816,2.816,0,0,0-.24-.222c-.047-.045-.11-.086-.131-.143a4.006,4.006,0,0,0-.736-.984,4.316,4.316,0,0,1-.709-.845.943.943,0,0,0-.424-.476.618.618,0,0,1-.253-.285,1.863,1.863,0,0,0-.25-.376c-.146-.187-.363-.317-.443-.557-.184-.123-.275-.329-.433-.477-.174-.164-.338-.34-.5-.516-.1-.11-.224-.21-.221-.385,0-.068-.055-.112-.113-.147a1.379,1.379,0,0,1-.485-.518.5.5,0,0,0-.077-.1,3.8,3.8,0,0,1-.276-.277c-.079-.1-.133-.22-.2-.328a.1.1,0,0,0-.157-.018c-.122.121-.165.308-.332.391a3.119,3.119,0,0,1-.22.4c-.2.261-.352.545-.538.81a6.846,6.846,0,0,0-.554.877.685.685,0,0,1-.1.167,10.563,10.563,0,0,0-.956,1.392c-.144.217-.281.439-.419.659q-.14.22-.271.444c-.033.055-.042.132-.087.169-.257.214-.358.545-.593.774a1.387,1.387,0,0,0-.178.268,6.462,6.462,0,0,1-.616.913,2.449,2.449,0,0,0-.259.375c-.1.166-.178.35-.294.5a4.962,4.962,0,0,0-.314.49.882.882,0,0,1-.139.218,5.008,5.008,0,0,0-.49.689,5.572,5.572,0,0,1-.724,1.076c-.075.106-.163.2-.228.315-.109.187-.212.377-.306.572s-.28.33-.383.527-.232.366-.351.548a1.522,1.522,0,0,1-.182.268,1.588,1.588,0,0,0-.287.429,4.106,4.106,0,0,1-.5.757,4.461,4.461,0,0,0-.355.538q-.293.468-.609.921a9.04,9.04,0,0,1-.782,1.119.149.149,0,0,0-.038.053,3.965,3.965,0,0,1-.543.883,8.73,8.73,0,0,1-.548.8,3.482,3.482,0,0,0-.235.386,5.643,5.643,0,0,1-.458.632,5.516,5.516,0,0,0-.343.619c-.078.129-.188.239-.276.362-.076.1-.137.221-.213.325-.308.419-.568.871-.874,1.292-.151.208-.268.445-.4.668a4.321,4.321,0,0,1-.6.851c-.155.311-.387.573-.55.878a3.052,3.052,0,0,1-.32.487,9.97,9.97,0,0,0-.983,1.454,2.394,2.394,0,0,1-.307.5,2.863,2.863,0,0,0-.288.431.916.916,0,0,1-.093.169,2.973,2.973,0,0,0-.536.733c-.128.251-.342.451-.448.713-.093.227-.286.379-.395.595a1.5,1.5,0,0,1-.374.526.29.29,0,0,0-.043.049c-.151.186-.2.435-.369.609a2.046,2.046,0,0,0-.39.6,1.105,1.105,0,0,1-.136.22c-.348.445-.659.917-.99,1.374-.128.176-.226.37-.34.554a1.445,1.445,0,0,1-.212.245c-.026.026-.092.056-.107.044-.108-.09-.254-.055-.369-.119a5.463,5.463,0,0,0-.665-.256,1.073,1.073,0,0,0-.572-.066.186.186,0,0,0-.168-.163.127.127,0,0,1-.1-.141.218.218,0,0,0-.086-.225,1.387,1.387,0,0,1-.217-.134.506.506,0,0,0-.346-.15.274.274,0,0,1-.164-.089,1.433,1.433,0,0,0-.32-.209c-.146-.084-.33-.116-.43-.274a4.573,4.573,0,0,0-.687-.332c-.079-.026-.179-.011-.235-.084-.124-.162-.34-.179-.476-.324a2.427,2.427,0,0,0-.555-.309,1.61,1.61,0,0,1-.381-.238.294.294,0,0,0-.165-.088.415.415,0,0,1-.291-.116,1.912,1.912,0,0,0-.692-.451,1.112,1.112,0,0,1-.428-.278.477.477,0,0,0-.444-.221c-.133-.108-.328-.116-.436-.263a1.579,1.579,0,0,0-.523-.367c-.07-.042-.168-.049-.221-.12a.52.52,0,0,0-.465-.176.9.9,0,0,0-.432-.381,1.541,1.541,0,0,1-.626-.451.991.991,0,0,0-.256-.2c-.089-.063-.182-.118-.27-.181a5.535,5.535,0,0,0-.979-.633,2.322,2.322,0,0,1-.423-.3c-.153-.113-.369-.155-.452-.358-.138-.1-.285-.2-.411-.311a3.3,3.3,0,0,0-.364-.274,3.363,3.363,0,0,1-.366-.267,2.333,2.333,0,0,1-.239-.307.145.145,0,0,1-.025-.175,3.655,3.655,0,0,0,.4-.669.6.6,0,0,0,.095-.238.5.5,0,0,1,.278-.479.273.273,0,0,0,.122-.146,1.727,1.727,0,0,1,.32-.49c.069-.266.311-.412.439-.638.138-.244.28-.487.432-.723.142-.218.3-.426.448-.641.037-.052.058-.116.094-.169a2.01,2.01,0,0,1,.278-.434c.107-.1.143-.27.244-.377.181-.193.28-.44.456-.634.135-.323.407-.558.563-.871s.411-.555.561-.869c.159-.15.246-.355.4-.512a1.692,1.692,0,0,0,.289-.432c.079-.156.182-.3.264-.447a1.447,1.447,0,0,1,.309-.41.761.761,0,0,0,.133-.221c.164-.306.326-.614.489-.92.041-.076.065-.175.127-.223a2.1,2.1,0,0,0,.425-.572A1.727,1.727,0,0,0,57.3,147c.051-.163.225-.206.279-.347a.88.88,0,0,1,.336-.39.581.581,0,0,0,.221-.313,1.986,1.986,0,0,1,.174-.417,1.938,1.938,0,0,1,.286-.354,1.48,1.48,0,0,0,.253-.378,1.035,1.035,0,0,1,.255-.372.517.517,0,0,0,.123-.151c.082-.146.082-.345.27-.423l.325-.407a.661.661,0,0,0,.112-.16,5.8,5.8,0,0,1,.581-.933c.187-.316.378-.63.581-.937a2.27,2.27,0,0,1,.49-.68c.063-.239.3-.368.378-.6a1.165,1.165,0,0,1,.142-.29c.107-.162.228-.314.341-.471s.227-.316.341-.473a4.158,4.158,0,0,0,.377-.527,5.392,5.392,0,0,1,.325-.485,1.375,1.375,0,0,0,.128-.227,1.756,1.756,0,0,1,.377-.6.452.452,0,0,0,.129-.224.647.647,0,0,1,.226-.382,1.242,1.242,0,0,0,.266-.287c.186-.346.472-.622.659-.966a1.608,1.608,0,0,1,.2-.4c.147-.157.2-.376.369-.533a2.33,2.33,0,0,0,.334-.479,1.483,1.483,0,0,0,.1-.238c.116-.029.147-.156.243-.207.113-.061.226-.122.343-.176s.237-.1.352-.152c.136-.065.21-.209.367-.263a.94.94,0,0,0,.3-.247,3.154,3.154,0,0,1,.561-.307c.16-.106.259-.279.453-.36.335-.14.605-.4.945-.545a1,1,0,0,0,.245-.214l.43-.4c.213-.037.289-.266.463-.341a2.147,2.147,0,0,0,.6-.49c.144-.133.278-.278.426-.406.113-.1.27-.13.373-.25a.945.945,0,0,1,.361-.265.97.97,0,0,0,.287-.262c.091-.1.25-.084.324-.2.057-.091.107-.185.165-.274.024-.036.063-.061.09-.095.083-.1.222-.139.307-.227s.126-.222.228-.308c.033-.028.058-.074.1-.087a2.212,2.212,0,0,0,.739-.623q1.093-1.08,2.175-2.171a1.265,1.265,0,0,0,.364-.452c.021-.059.088-.081.149-.109a.845.845,0,0,0,.33-.309,1.594,1.594,0,0,1,.623-.627.349.349,0,0,0,.14-.134,2.071,2.071,0,0,1,.5-.593,1.459,1.459,0,0,0,.391-.511c.181-.188.362-.377.544-.565.106-.109.224-.209.32-.326a4.27,4.27,0,0,1,.258-.366c.114-.112.125-.276.238-.382a2.68,2.68,0,0,0,.274-.28,4.362,4.362,0,0,1,.3-.419,1.84,1.84,0,0,0,.384-.588,1.888,1.888,0,0,1,.432-.638c.137-.131.321-.233.362-.446a5.472,5.472,0,0,0,.372-.452.448.448,0,0,1,.169-.171.9.9,0,0,0,.359-.366c-.026-.2.114-.316.238-.438.046-.046.111-.092.124-.148.041-.183.2-.283.281-.433a.131.131,0,0,0,.013-.062.389.389,0,0,1,.122-.29c.1-.108.24-.192.279-.352.033-.135.185-.193.224-.312.048-.144.142-.262.2-.4.07-.177.173-.344.249-.522.11-.257.318-.456.431-.713a6.83,6.83,0,0,1,.345-.69,2.387,2.387,0,0,1,.29-.349.329.329,0,0,0,.091-.234.469.469,0,0,1,.109-.364c.221-.509.5-.992.731-1.494.007-.015.038-.018.058-.027a.328.328,0,0,0,.118-.038,1.118,1.118,0,0,0,.342-.45,1.028,1.028,0,0,1,.452-.555Z"/><path d="M88.757,109.07h-.42a1.028,1.028,0,0,0-.452.555,1.118,1.118,0,0,1-.342.45.328.328,0,0,1-.118.038c.009-.262.026-.523.026-.784q0-3.4-.013-6.806,0-1.6,0-3.206a.567.567,0,0,0-.073-.376.277.277,0,0,1-.034-.188c0-.284,0-.568.006-.851a.431.431,0,0,1,.039-.186.661.661,0,0,0,.065-.315q0-.556,0-1.113a.615.615,0,0,0-.076-.375.244.244,0,0,1-.028-.124c0-.261,0-.523,0-.785a.574.574,0,0,1,.081-.243.378.378,0,0,0-.031-.372.168.168,0,0,1-.024-.182.6.6,0,0,0,.086-.374c0-.13-.007-.262,0-.392a.73.73,0,0,0-.1-.3c-.042-.115.1-.193.084-.3a.926.926,0,0,0-.066-.179c-.012-.039-.037-.094-.021-.121.187-.328.07-.683.094-1.024,0-.056-.058-.114-.08-.175a.18.18,0,0,1,.022-.182.239.239,0,0,0,.005-.3c-.081-.119-.042-.252-.047-.38a2.3,2.3,0,0,0,.1-1.024.5.5,0,0,0-.061-.182.358.358,0,0,1-.039-.12,1.821,1.821,0,0,1,.079-.834.567.567,0,0,0,.026-.256c0-.371,0-.742,0-1.113a.457.457,0,0,0-.048-.252.4.4,0,0,1,0-.43.39.39,0,0,0,.04-.186c0-.415,0-.829,0-1.244a1.813,1.813,0,0,0-.076-.309,1.225,1.225,0,0,1,.045-.763.422.422,0,0,0,.033-.188c0-1.156,0-2.313,0-3.469a.645.645,0,0,0-.093-.307.14.14,0,0,1,.008-.123.586.586,0,0,0,.083-.373q0-4.122,0-8.245,0-6.218.009-12.434c0-2.028.013-4.057.017-6.086,0-1.309,0-2.617,0-3.926a.963.963,0,0,1,.093-.632,1.12,1.12,0,0,0-.066-.636.389.389,0,0,1-.029-.188c0-.567,0-1.134,0-1.7a.424.424,0,0,1,.047-.252.279.279,0,0,0,.008-.3.536.536,0,0,1,0-.5.532.532,0,0,0,.056-.25c0-.655,0-1.309,0-1.964a.523.523,0,0,0-.043-.251c-.109-.187-.043-.384-.062-.576a1.52,1.52,0,0,0,.106-.892c.009-2.967.007-5.934.009-8.9l0-3.076c0-.218,0-.436-.006-.654a.713.713,0,0,0-.054-.18.163.163,0,0,0-.076.158.907.907,0,0,1-.15.488.166.166,0,0,1-.083.094c-.3.074-.317.394-.5.572-.087.084-.116.227-.257.263a3.236,3.236,0,0,1-.672.78c-.04.045-.047.118-.082.17s-.077.121-.131.14a1.37,1.37,0,0,0-.462.345c-.125.117-.3.17-.423.3a1.391,1.391,0,0,1-.334.187,4.186,4.186,0,0,0-1.067.705,1.653,1.653,0,0,1-.427.288c-.112.056-.25.076-.328.2a.33.33,0,0,1-.343.137.219.219,0,0,0-.256.146.153.153,0,0,1-.151.1.486.486,0,0,0-.244.079,1.092,1.092,0,0,1-.473.2.286.286,0,0,0-.121.041c-.13.073-.216.218-.38.239a.506.506,0,0,1-.354.133c-.058.01-.11.069-.159.111a.4.4,0,0,1-.288.129c-.094-.006-.156.068-.235.1-.177.069-.336.2-.55.162-.054-.01-.12.035-.177.062-.175.084-.354.161-.518.261a.514.514,0,0,1-.31.07.507.507,0,0,0-.241.079c-.114.053-.252.06-.358.123a.7.7,0,0,1-.377.07c-.022,0-.054-.009-.063,0-.129.145-.331.092-.481.178a.369.369,0,0,1-.18.065c-.15.005-.316-.042-.444.056s-.245.072-.365.111a.96.96,0,0,1-.3.106.938.938,0,0,0-.628.109c-.029.022-.083.014-.126.015-.261.006-.523.015-.785.016a.554.554,0,0,0-.371.086.208.208,0,0,1-.121.033c-.523,0-1.047.005-1.57,0a.426.426,0,0,1-.183-.051.516.516,0,0,0-.245-.074c-.174,0-.349,0-.523-.011a.42.42,0,0,1-.179-.061.485.485,0,0,0-.25-.055c-.327,0-.654-.006-.981-.014a.93.93,0,0,1-.509-.075c-.022-.013-.077.013-.109.033a.321.321,0,0,1-.365,0,2.457,2.457,0,0,0-.338-.191,1.434,1.434,0,0,0-.483-.175c-.073,0-.142-.091-.21-.139a.58.58,0,0,1,.3-.33,1.638,1.638,0,0,0,.362-.269c.129-.113.232-.261.415-.3a.324.324,0,0,0,.106-.074c.116-.1.187-.25.342-.3s.229-.2.373-.254a.641.641,0,0,0,.214-.142q.219-.2.437-.391c.206-.031.284-.266.492-.3a.23.23,0,0,0,.14-.13c.095-.247.37-.283.523-.46.04-.045.121-.052.167-.093.179-.16.339-.345.531-.485a5.282,5.282,0,0,0,.554-.447,1.273,1.273,0,0,1,.458-.356.37.37,0,0,0,.145-.129,3.96,3.96,0,0,1,.317-.405c.107-.1.26-.146.364-.263s.248-.246.369-.372a2.974,2.974,0,0,0,.632-.736,1.052,1.052,0,0,1,.172-.2,2.434,2.434,0,0,0,.453-.549c.088-.2.324-.293.382-.518a6.626,6.626,0,0,0,.551-.72.417.417,0,0,0,.082-.242c.1-.041.175-.137.292-.128.165.014.282-.1.42-.154a.3.3,0,0,0,.189-.247c.025-.238.185-.443.163-.691.079-.223.157-.447.236-.67.051-.142.1-.285.158-.423.014-.034.063-.053.095-.078a.259.259,0,0,0,.011.064c.078.153.158.3.238.456v.654c-.08.154-.093.331-.158.487a1.047,1.047,0,0,0-.094.372.236.236,0,0,1-.181.233.151.151,0,0,0-.068.1c-.014.13-.011.262-.025.392a.147.147,0,0,1-.069.1.242.242,0,0,0-.176.239c-.005.172-.2.285-.162.478,0,.023-.051.071-.088.085a.2.2,0,0,0-.139.121c-.055.21-.222.364-.276.574a.161.161,0,0,1-.144.11.142.142,0,0,0-.091.08c-.029.079,0,.178-.064.243a1.133,1.133,0,0,1-.16.1.112.112,0,0,0-.048.114.2.2,0,0,1-.1.221.28.28,0,0,0-.179.167,1.925,1.925,0,0,1-.125.226A.647.647,0,0,1,75,29.74a.138.138,0,0,0-.1.068c-.038.116-.136.158-.223.219a.166.166,0,0,0-.054.111.39.39,0,0,1-.3.379c-.058.016-.082.081-.107.146a.41.41,0,0,1-.28.25c-.1.03-.106.122-.112.209s-.06.171-.161.165c-.169-.009-.268.133-.413.174-.032.009-.051.065-.073.1a2.4,2.4,0,0,1-.639.642c-.161.031-.229.2-.373.251-.12.04-.155.131-.211.222a.32.32,0,0,1-.315.191c-.143-.016-.2.16-.346.151-.014,0-.038.028-.043.046a1.314,1.314,0,0,0-.04.184.127.127,0,0,1-.121.125.372.372,0,0,0-.3.1c-.139.163-.339.275-.4.5-.01.037-.059.029-.1-.006s-.083-.028-.106.018c-.037.076-.06.161-.162.181s-.225-.03-.313.052c-.062.057-.1.146-.162.194-.049.036-.1.056-.123.132a1.035,1.035,0,0,0,.188.035c.48,0,.96,0,1.44-.011a1.169,1.169,0,0,0,.636-.1c.066-.04.169-.019.255-.027.276-.028.564.049.827-.118.063-.04.171-.007.258-.016a.718.718,0,0,0,.251-.047.659.659,0,0,1,.309-.081.636.636,0,0,0,.436-.1.089.089,0,0,1,.058-.023,1.48,1.48,0,0,0,.563-.126c.14-.045.3,0,.434-.108A.255.255,0,0,1,75.2,33.8c.15-.017.318.038.445-.061s.294-.059.429-.14c.107-.063.255-.057.36-.123a.987.987,0,0,1,.375-.088c.168-.031.309-.158.491-.144a.975.975,0,0,1,.364-.126,1.424,1.424,0,0,0,.292-.135.733.733,0,0,1,.368-.108.466.466,0,0,0,.241-.083c.191-.1.387-.19.581-.284.206.017.356-.153.554-.164a.361.361,0,0,0,.12-.043c.176-.081.353-.159.524-.247a2.023,2.023,0,0,1,.465-.217,3.857,3.857,0,0,0,.527-.236c.246-.094.423-.293.663-.4a3.486,3.486,0,0,0,.618-.347,5.32,5.32,0,0,0,.708-.445.971.971,0,0,0,.373-.253c.134-.106.28-.2.413-.306a2.194,2.194,0,0,1,.341-.3,3.558,3.558,0,0,0,.786-.675c.256-.237.5-.49.731-.749.13-.143.229-.313.348-.467.146-.189.188-.438.355-.613A1.983,1.983,0,0,0,87,26.418c.1-.235.182-.479.291-.714.061-.132,0-.3.1-.437a.662.662,0,0,0,.061-.38.865.865,0,0,1,.079-.311.647.647,0,0,0,.041-.253c.007-.5.009-1,.013-1.5,0-.131,0-.262,0-.393a.188.188,0,0,1,.233-.16.989.989,0,0,1,.616.443c.082.146.084.331.178.478-.048.228.094.416.148.62a2.145,2.145,0,0,1,.118.7,1.207,1.207,0,0,0,.009.147,1.591,1.591,0,0,1,.221.3,2.288,2.288,0,0,0,.558.788,3.013,3.013,0,0,0,.738.631c.206.227.492.353.711.564.172.166.407.246.578.416a.862.862,0,0,1,.325.206c.1.078.217.139.325.21a.786.786,0,0,0,.16.112,6.29,6.29,0,0,1,.783.445c.273.129.538.273.807.41a1.857,1.857,0,0,0,.407.191c.131.03.238.105.359.137.147.038.257.16.424.154.128,0,.221.118.361.131.167.015.306.159.488.145.115.124.293.074.42.149a.987.987,0,0,0,.373.1c.125.02.24.1.365.114a1.093,1.093,0,0,1,.436.107c.131.077.3,0,.44.091a.851.851,0,0,0,.443.076c.043,0,.1-.008.128.013a1.263,1.263,0,0,0,.63.124c.06,0,.079.04.054.066s-.035.038-.05.036c-.206-.022-.353.17-.557.151a2.591,2.591,0,0,0-.5.3.928.928,0,0,1-.661.221c-.108-.006-.218.009-.326.007a.5.5,0,0,0-.244.08.166.166,0,0,1-.181-.009.56.56,0,0,0-.176-.076,1.066,1.066,0,0,0-.2,0l-.327-.007c-.136-.126-.328-.1-.481-.176a2.348,2.348,0,0,0-.6-.229,1.482,1.482,0,0,1-.347-.169c-.307-.156-.611-.319-.921-.468a6.153,6.153,0,0,1-.826-.5.687.687,0,0,0-.342-.166.4.4,0,0,1-.166-.094,2.17,2.17,0,0,0-.272-.174,2,2,0,0,1-.586-.4c-.145-.153-.366-.221-.512-.39a3.893,3.893,0,0,0-.425-.407c-.1-.084-.217-.141-.316-.222s-.188-.182-.281-.274c-.14-.138-.284-.272-.417-.416-.116-.125-.278-.217-.318-.4-.131-.146-.259-.3-.4-.435-.108-.109-.121-.282-.254-.371-.018-.012-.049-.032-.058-.025-.029.019-.07.049-.071.075,0,.174,0,.349.006.523a.442.442,0,0,1-.076.308c-.026.034-.012.071.017.114a.232.232,0,0,1,.05.119q.006.654,0,1.308c0,.04-.033.079-.047.12s-.042.089-.028.11a.72.72,0,0,1,.072.443c0,.3-.007.611,0,.915a.511.511,0,0,1-.088.3.286.286,0,0,0-.009.252c.021.061.067.115.084.177a.329.329,0,0,1-.05.309.18.18,0,0,0-.006.237.211.211,0,0,1,0,.292.233.233,0,0,0-.039.247,1.473,1.473,0,0,1,.1.826.809.809,0,0,0,.006.13.436.436,0,0,1-.074.245.326.326,0,0,0,.023.366.206.206,0,0,1-.022.29.15.15,0,0,0-.013.181.565.565,0,0,1,.088.306c0,.653,0,1.306,0,1.959a.819.819,0,0,1-.079.234c.156.193.061.423.083.634a6.147,6.147,0,0,1,0,.718c0,.218-.005.435,0,.653,0,.326,0,.653.008.98a.814.814,0,0,0,.083.243.469.469,0,0,1,0,.437.524.524,0,0,0,.011.608.308.308,0,0,1-.028.365.133.133,0,0,0-.033.055c0,.018.016.038.024.057a.634.634,0,0,1,.07.178,2.835,2.835,0,0,1,0,.391.388.388,0,0,0,.076.242.317.317,0,0,1,0,.365.135.135,0,0,0,.007.169.242.242,0,0,1,.028.249.657.657,0,0,0-.005.734.131.131,0,0,1-.021.119c-.106.114,0,.192.047.3,0,.809,0,1.637,0,2.464a2.976,2.976,0,0,0-.011.326.419.419,0,0,1-.095.3.13.13,0,0,0-.005.121.527.527,0,0,1,.1.428c-.008.174,0,.349-.006.523a.238.238,0,0,1-.036.12.534.534,0,0,0,0,.611.272.272,0,0,1,.011.306.679.679,0,0,0-.062.5.822.822,0,0,1,.108.564c0,.174-.039.351.092.5a.811.811,0,0,1-.071.625.27.27,0,0,0-.033.189,5.335,5.335,0,0,1,0,.848.244.244,0,0,0,.045.185.36.36,0,0,1,.034.424c-.061.115-.115.234-.174.354a.522.522,0,0,1,.1.159c.035.166-.013.348.112.5.033.04.017.125.017.189,0,.393,0,.785,0,1.177a.416.416,0,0,1-.061.248.446.446,0,0,0-.048.378,2.025,2.025,0,0,1,.119.629c-.006.218-.013.436-.006.654a.261.261,0,0,1-.058.179.209.209,0,0,0,0,.292A.23.23,0,0,1,89,57.5c.01.131.006.262.015.392a.5.5,0,0,1-.1.3c-.02.032-.032.1-.013.122.187.208.068.464.119.692-.009.936-.026,1.872,0,2.808,0,.13-.013.261-.019.385l.109.175c-.03.1-.109.169-.1.289.017.326.022.654.017.981a.5.5,0,0,0,.09.3.137.137,0,0,1,.013.121c-.19.234-.077.506-.105.76,0,.036.036.076.055.115s.054.076.055.115c.008.393.011.785.012,1.178a.223.223,0,0,1-.05.115.531.531,0,0,0-.016.554.636.636,0,0,1,.068.245q-.01,1.472-.016,2.943c0,.086.018.173.022.26a.315.315,0,0,1-.016.126c-.023.058-.083.112-.082.166s.08.113.084.172c.016.2.018.391.017.587,0,.414,0,.828-.015,1.242a1.174,1.174,0,0,1-.107.631l-.026.585a.538.538,0,0,1,.088.6c-.05.1-.011.153.021.229a.151.151,0,0,1,0,.123c-.154.194-.077.419-.088.631,0,.055.064.112.088.172a.261.261,0,0,1,0,.25c-.151.2-.079.417-.095.628.2.275.1.591.107.886.015.981.008,1.962.009,2.942q0,.294-.009.588a.452.452,0,0,1-.026.19,1.914,1.914,0,0,0-.07.9c.168.212.095.461.1.693.007,1.024,0,2.049,0,3.073,0,.653.009,1.306.007,1.959a.556.556,0,0,1-.065.378.085.085,0,0,0-.014.114.4.4,0,0,1,.084.239c0,.261,0,.522,0,.784,0,.893-.011,1.787-.013,2.681,0,.85,0,1.7,0,2.549q0,2.059.012,4.119a.57.57,0,0,1-.1.433c-.008.008,0,.039.008.052a.524.524,0,0,1-.011.611.409.409,0,0,0-.04.187c0,.24,0,.479,0,.719a.427.427,0,0,0,.076.244.4.4,0,0,1,.028.378,1.57,1.57,0,0,0-.107.83.381.381,0,0,0,.049.181.213.213,0,0,1,.009.291.344.344,0,0,0-.055.181,4.113,4.113,0,0,0-.006.521.89.89,0,0,1-.109.565.264.264,0,0,0,.021.25.418.418,0,0,1,.089.236q-.012.947-.009,1.895a.72.72,0,0,1-.072.312.665.665,0,0,0-.049.252c-.006.2,0,.392,0,.588a.68.68,0,0,1-.1.37.492.492,0,0,0-.021.192.129.129,0,0,0,.115.141.849.849,0,0,1-.094.6Z"/><path d="M61.789,111.935c0-.2,0-.393-.006-.589a.269.269,0,0,1,.066-.179.209.209,0,0,0-.014-.291.215.215,0,0,1-.047-.117c-.006-.152-.008-.305,0-.458a.362.362,0,0,1,.061-.178.675.675,0,0,0,.056-.441c-.171-.182-.117-.408-.119-.621,0-.589,0-1.178,0-1.767a.507.507,0,0,1,.093-.368.1.1,0,0,0,.032-.056c0-.239,0-.479-.007-.718,0-.038-.042-.075-.065-.112a.341.341,0,0,1,0-.365.533.533,0,0,0,.034-.492.538.538,0,0,1-.089-.238c0-.3,0-.611,0-.916a.351.351,0,0,1,.054-.181.334.334,0,0,0,0-.42.23.23,0,0,1-.055-.116q-.006-.85,0-1.7a.213.213,0,0,1,.051-.116.2.2,0,0,0,.006-.29.116.116,0,0,1-.033-.056.852.852,0,0,1,.057-.626.423.423,0,0,0,.007-.434.706.706,0,0,1-.091-.37c0-.327,0-.654,0-.981,0-.065-.014-.148.019-.19a.8.8,0,0,0,.106-.561.205.205,0,0,0-.029-.122.605.605,0,0,1-.1-.433c0-.567,0-1.134,0-1.7,0-.172-.026-.352.118-.49,0-.085.017-.187-.022-.251a.659.659,0,0,1-.1-.368q0-1.7,0-3.4a.609.609,0,0,1,.115-.427c.019-.023.006-.086-.01-.123a1.5,1.5,0,0,0-.1-.168c0-.589,0-1.177,0-1.766a.409.409,0,0,1,.078-.242.254.254,0,0,0,.048-.117c.005-.174.005-.349,0-.523a.232.232,0,0,0-.055-.115.382.382,0,0,1-.07-.244c0-.785,0-1.57,0-2.356,0-.172-.028-.351.11-.493a.537.537,0,0,0-.01-.38.765.765,0,0,1-.1-.433c0-.654,0-1.309,0-1.963a.562.562,0,0,1,.11-.363.134.134,0,0,0,0-.123.559.559,0,0,1-.112-.362q.012-.753,0-1.506a.693.693,0,0,1,.106-.365.284.284,0,0,0-.025-.307c-.026-.035-.064-.073-.066-.111-.008-.239-.01-.479-.006-.718,0-.038.039-.077.064-.112a.176.176,0,0,0,.009-.235.364.364,0,0,1-.08-.24c0-.327,0-.654,0-.979.023-.04.044-.079.068-.115a.316.316,0,0,0,.011-.364.506.506,0,0,1,.021-.605.146.146,0,0,0-.017-.18.358.358,0,0,1-.085-.238q0-1.112,0-2.225a.734.734,0,0,1,.093-.369.444.444,0,0,0-.01-.435.454.454,0,0,1-.084-.239c.006-.153,0-.306,0-.458.206-.295.1-.63.126-.948a.377.377,0,0,0-.077-.242.231.231,0,0,1-.048-.116c0-.393,0-.786,0-1.178a.105.105,0,0,1,.023-.059c.136-.145.1-.325.1-.5,0-.306,0-.611,0-.917a.615.615,0,0,0-.112-.428c-.036-.044,0-.123.039-.178a.182.182,0,0,0,.034-.234.388.388,0,0,1-.093-.236c.006-.174,0-.349,0-.523a.357.357,0,0,1,.056-.18.342.342,0,0,0,0-.422.341.341,0,0,1-.056-.18q-.006-1.178,0-2.356a.325.325,0,0,1,.054-.18.214.214,0,0,0,0-.292.234.234,0,0,1-.056-.115,2.522,2.522,0,0,1,0-.261q0-7.984,0-15.969c0-.131,0-.262,0-.393a.623.623,0,0,1,.082-.306.819.819,0,0,0,.014-.567c-.01-.04-.052-.071-.067-.111s-.032-.1-.013-.123a.742.742,0,0,0,.115-.558c0-.327,0-.654,0-.981a.643.643,0,0,1,.1-.434.349.349,0,0,0,.032-.186c0-.2,0-.39,0-.595a3.03,3.03,0,0,1,.277-.278,1.551,1.551,0,0,1,.283-.148.475.475,0,0,1,.437-.005,1.16,1.16,0,0,1,.477.321.4.4,0,0,1,.1.232c0,.742,0,1.483,0,2.225a.534.534,0,0,0,.089.37.212.212,0,0,1,.037.119c.006.109,0,.219,0,.328q0,14.006,0,28.011,0,13.025,0,26.048,0,5.432,0,10.864c.088.275-.152.488-.14.749-.09.1-.1.244-.184.337-.1.111-.018.266-.11.365s-.054.255-.114.362a.57.57,0,0,0-.106.364.44.44,0,0,1-.07.244,2.99,2.99,0,0,1-.12.357.621.621,0,0,0-.071.375.276.276,0,0,1-.076.174,1.181,1.181,0,0,0-.191.259,1.883,1.883,0,0,1-.329.549,1.716,1.716,0,0,0-.2.4c-.046.093-.133.1-.222.089a1.324,1.324,0,0,1,.047-.689.508.508,0,0,0,.03-.186c0-.4.007-.808,0-1.212A.17.17,0,0,0,61.789,111.935Z"/><path d="M105.982,84.046a.413.413,0,0,1-.128-.014.147.147,0,0,1-.08-.158c0-.065,0-.131,0-.2V48.592c0-.24,0-.48,0-.72a.361.361,0,0,0-.087-.238.15.15,0,0,1-.012-.18.534.534,0,0,0,.1-.3c0-1.505,0-3.011,0-4.517,0-.192.037-.4-.117-.556a.629.629,0,0,1,.05-.44c.036-.051.042-.123.078-.174a.557.557,0,0,1,.179-.185c.191-.094.382-.188.57-.289a.321.321,0,0,1,.3.074.61.61,0,0,1,.084.1,2.582,2.582,0,0,0,.269.506c.115.131.245.248.367.373.06.062.116.129.182.2,0,.827,0,1.654,0,2.482a.3.3,0,0,1-.064.179.354.354,0,0,0,.009.421.472.472,0,0,1-.01.491.34.34,0,0,0,.013.419.17.17,0,0,1-.008.234.2.2,0,0,0,0,.289.169.169,0,0,1,0,.234.321.321,0,0,0,0,.418.3.3,0,0,1,0,.363.486.486,0,0,0-.034.493.713.713,0,0,1,.091.3c0,.5,0,1,0,1.506a.757.757,0,0,1-.116.559.193.193,0,0,0,0,.188.938.938,0,0,1,.117.624c0,.022,0,.044,0,.066a.336.336,0,0,1-.087.237.142.142,0,0,0-.008.179.355.355,0,0,1,.012.474.267.267,0,0,0-.012.306.627.627,0,0,1,.1.368c0,.676,0,1.353,0,2.029,0,.173.025.352-.119.49.006.085-.017.187.023.251a.668.668,0,0,1,.1.368q-.006,1.244,0,2.488a.59.59,0,0,1-.118.425,1.334,1.334,0,0,0,.016.254.637.637,0,0,0,.1.168c0,.175,0,.349,0,.524a.635.635,0,0,1-.111.493.13.13,0,0,0,.008.122.54.54,0,0,1,.107.365c-.01.3-.006.611,0,.916a.41.41,0,0,1-.077.242.314.314,0,0,0,0,.363.322.322,0,0,1,.072.177c0,.458,0,.917,0,1.375a.344.344,0,0,1-.074.174.162.162,0,0,0-.028.179.6.6,0,0,1,.108.364q-.006,3.438,0,6.874a.983.983,0,0,1-.1.366.507.507,0,0,0,.059.493.294.294,0,0,1,.007.307.77.77,0,0,0-.007.736.4.4,0,0,1,.038.12c0,.327,0,.655,0,.982a.3.3,0,0,1-.072.177.187.187,0,0,0-.01.236.353.353,0,0,1,.077.174c0,.676,0,1.352,0,2.029a.393.393,0,0,1-.067.178.512.512,0,0,0-.009.493.55.55,0,0,1,.011.552.447.447,0,0,0-.06.179.573.573,0,0,1-.125.424c.042.207-.156.353-.144.552,0,.073-.058.115-.078.174-.053.161-.187.288-.186.473,0,.152-.156.254-.135.423.013.108-.129.172-.121.292a.312.312,0,0,1-.075.241c-.081.09-.038.21-.077.308-.031.079-.111.133-.112.23a.475.475,0,0,1-.036.187,2.132,2.132,0,0,1-.182.34c-.067.1,0,.224-.075.308-.092.109-.08.241-.115.363-.028.1-.122.173-.119.3,0,.1.036.163.136.184a.483.483,0,0,1-.054.236A2.639,2.639,0,0,0,105.982,84.046Z"/><path d="M87.179,5.248c.349,0,.7,0,1.046-.008a.512.512,0,0,1,.307.085.236.236,0,0,0,.119.041q.426,0,.85,0a.244.244,0,0,0,.121-.036.507.507,0,0,1,.305-.091c.174.006.348,0,.522,0,.01.04.007.093.032.119a1.908,1.908,0,0,0,.338.3,1.7,1.7,0,0,1,.449.457c.173.223.334.454.523.664a1.464,1.464,0,0,1,.389.736,1.827,1.827,0,0,0,.151.359.665.665,0,0,1,.064.181A3.37,3.37,0,0,0,92.756,9.1a1.124,1.124,0,0,0,.352.46c.24.185.476.377.722.555q.449.322.911.624a.912.912,0,0,0,.613.172c.021,0,.043,0,.065,0a.963.963,0,0,1,.77.278c.13.116.241.251.366.372a.747.747,0,0,1,.194.537.5.5,0,0,1-.122.361,2.588,2.588,0,0,1-1.068.829,1.877,1.877,0,0,0-.712.435,1.539,1.539,0,0,1-.213.146c-.105.076-.208.155-.309.236a.128.128,0,0,0-.038.166c.1.147.091.332.185.483A.524.524,0,0,1,94.52,15a1.411,1.411,0,0,0,.087.443.48.48,0,0,1-.027.38,1.809,1.809,0,0,1-.283.576,1.351,1.351,0,0,0-.158.282A1.319,1.319,0,0,1,94,16.9c-.128.148-.264.29-.4.43a1.212,1.212,0,0,1-.319.221.75.75,0,0,0-.352.372.525.525,0,0,1-.265.272c-.116.058-.229.123-.347.176a1.45,1.45,0,0,0-.7.649c-.092.171-.208.329-.316.491a3.427,3.427,0,0,1-.346.468c-.057.061-.081.152-.133.22-.17.225-.319.464-.5.684a4.179,4.179,0,0,0-.628,1.054.611.611,0,0,0-.015.193l-.445-.016c-.158-.143-.356-.109-.544-.121a1.155,1.155,0,0,1-.438-.217.7.7,0,0,1-.039-.186c.134-.3.28-.588.394-.892a1.269,1.269,0,0,1,.17-.344c.092-.119.147-.269.248-.378.13-.139.129-.32.194-.477a1.9,1.9,0,0,1,.272-.509,3.429,3.429,0,0,0,.5-.76c.135-.3.415-.5.556-.8.025-.054.092-.09.144-.129.086-.065.175-.126.263-.189a5.209,5.209,0,0,1,.567-.434c.225-.121.369-.364.6-.5a.118.118,0,0,0,.035-.053.072.072,0,0,0-.035-.105c-.138-.069-.3-.011-.441-.093-.168-.1-.353-.164-.528-.25a1.685,1.685,0,0,1-.767-.773.689.689,0,0,1-.064-.38.138.138,0,0,1,.071-.1.153.153,0,0,1,.119.023.577.577,0,0,1,.22.234.867.867,0,0,0,.613.443c.23.058.456.139.69.175a3.219,3.219,0,0,0,.581,0,.07.07,0,0,0,.066-.091,1.644,1.644,0,0,1-.134-.63,1.641,1.641,0,0,0-.074-.379,1.158,1.158,0,0,1,.319-1.138,3.028,3.028,0,0,1,.7-.578c.036-.018.058-.063.1-.109a3.95,3.95,0,0,1-.641-.518,1.346,1.346,0,0,0-.315-.225,6.374,6.374,0,0,1-.993-.73c-.135-.2-.269-.394-.4-.589-.05-.072-.1-.14-.152-.213a.45.45,0,0,1-.092-.168,1.977,1.977,0,0,0-.3-.718.757.757,0,0,1-.112-.432.458.458,0,0,0-.024-.192,5.631,5.631,0,0,0-.615-1.067c-.086-.122-.2-.228-.29-.348a3.082,3.082,0,0,0-.4-.331,1.754,1.754,0,0,0-.678-.376,1.037,1.037,0,0,1-.51-.262.194.194,0,0,0-.117-.046.343.343,0,0,1-.275-.153A4.37,4.37,0,0,1,87.179,5.248Z"/><path d="M78.712,5.1c.777,0,1.553,0,2.329,0,.172,0,.344.009.516.014-.031.027-.061.072-.095.077-.107.015-.216.01-.324.02-.179.017-.243.079-.243.234,0,.087,0,.174,0,.261.007.13.019.26.028.389.143.182.065.423.177.621a3.837,3.837,0,0,1,.232.6,4.152,4.152,0,0,1,.168.489,3.074,3.074,0,0,1,.042.451.23.23,0,0,0,0,.065,3.533,3.533,0,0,1,.129.9A2.618,2.618,0,0,0,81.9,9.9a3.581,3.581,0,0,1,.317.778.88.88,0,0,1,.118.5q.017.293.032.586c.1.127.046.236-.031.352-.058.087.015.243-.1.293-.254.114-.273.372-.375.575a.879.879,0,0,1-.3.407.27.27,0,0,0-.138.212.6.6,0,0,1-.215.384c-.058.059-.069.165-.129.218a.715.715,0,0,1-.282.154.4.4,0,0,0-.3.228c-.064.188-.219.252-.358.346-.2,0-.277.2-.449.246a.149.149,0,0,0-.095.079c-.049.159-.189.151-.309.194a2.351,2.351,0,0,0-.346.177c-.11.063-.182.193-.332.186s-.217.129-.343.171a3.071,3.071,0,0,0-.643.31.446.446,0,0,1-.18.069,1.4,1.4,0,0,0-.537.2c-.292.17-.636.22-.93.39-.121-.095-.194,0-.279.065a.365.365,0,0,1-.169.093,1.681,1.681,0,0,0-.54.216.36.36,0,0,1-.366,0,.137.137,0,0,0-.117-.011.625.625,0,0,1-.437.094c-.13-.01-.26-.012-.391-.017l-.522-.02c-.143-.114-.336-.086-.489-.171a.24.24,0,0,0-.186,0,.463.463,0,0,1-.314-.157c-.009-.015-.007-.055,0-.062.236-.152.484-.284.708-.457.083-.065.181-.116.263-.187a.721.721,0,0,1,.45-.241.111.111,0,0,0,.058-.027A3.057,3.057,0,0,1,74.7,15.6a2.256,2.256,0,0,0,.417-.172,2.42,2.42,0,0,1,.429-.148,8.254,8.254,0,0,0,.894-.378c.192-.106.413-.127.6-.237a4.176,4.176,0,0,1,.592-.262,5.1,5.1,0,0,0,.689-.355,1.108,1.108,0,0,1,.346-.171.61.61,0,0,0,.221-.131c.1-.076.2-.166.311-.236.128-.08.272-.135.4-.218.2-.132.331-.349.549-.46.2-.227.41-.449.6-.683a4.3,4.3,0,0,0,.382-.526,2.8,2.8,0,0,0,.276-.725.9.9,0,0,0-.023-.517c-.056-.164-.119-.325-.185-.485-.116-.279-.211-.566-.307-.853a1.406,1.406,0,0,1-.117-.568c.006-.065-.012-.131-.005-.2a3.678,3.678,0,0,0-.14-.961c-.023-.147-.109-.279-.129-.434a3.027,3.027,0,0,0-.119-.438,2.778,2.778,0,0,1-.152-.629,1.248,1.248,0,0,0-.115-.37c-.011-.027-.064-.038-.1-.052a.231.231,0,0,0-.031.054.81.81,0,0,0-.034.321c0,.064.009.153-.027.187-.174.163-.11.368-.111.557,0,.347.015.7.029,1.042a.448.448,0,0,0,.049.188.794.794,0,0,1,.071.315,1.449,1.449,0,0,0,.105.7l.015.781c-.08.151-.1.336-.245.452a.335.335,0,0,0-.119.349.33.33,0,0,1-.058.248c-.087.124-.171.25-.262.371a.476.476,0,0,0-.091.241.31.31,0,0,1-.13.218,1.1,1.1,0,0,0-.326.3c-.036.061-.117.049-.18.054a.166.166,0,0,0-.165.164.663.663,0,0,1-.011.128c-.046.124-.219.116-.261.268a.347.347,0,0,1-.274.252c-.075.016-.14.1-.2.152-.1.086-.192.177-.288.265a.3.3,0,0,1-.241.076.088.088,0,0,0-.1.061.282.282,0,0,1-.3.194.6.6,0,0,0-.348.158,3.635,3.635,0,0,1-1.243.661.509.509,0,0,0-.219.134.619.619,0,0,1-.459.205,3.324,3.324,0,0,0-.814.194c-.062.014-.118.075-.177.075-.352,0-.67.186-1.022.178-.206.066-.408.143-.617.2a1.949,1.949,0,0,0-.789.4c-.066-.035-.124-.063-.18-.1a.374.374,0,0,1-.148-.395.224.224,0,0,1,.074-.1,1.723,1.723,0,0,1,.226-.127A10,10,0,0,0,72.52,14c.318-.223.67-.4.99-.622s.67-.4,1-.6a10.781,10.781,0,0,1,1.071-.61.36.36,0,0,0,.109-.071,4.118,4.118,0,0,1,.75-.5,6.436,6.436,0,0,0,.674-.513,1.822,1.822,0,0,1,.456-.366.286.286,0,0,0,.133-.137,2.031,2.031,0,0,1,.272-.364,3.842,3.842,0,0,0,.571-.864,1.164,1.164,0,0,1,.174-.273.42.42,0,0,0,.088-.24,1.245,1.245,0,0,1,.1-.507,3.618,3.618,0,0,0-.006-.975.979.979,0,0,1-.08-.444,1.422,1.422,0,0,0-.028-.324,3.08,3.08,0,0,1-.086-1.162C78.715,5.321,78.713,5.212,78.712,5.1Z"/><path d="M47.382,116.636a.286.286,0,0,0-.058-.241.258.258,0,0,1-.072-.174c0-.346.015-.693-.01-1.037a.87.87,0,0,1,.142-.48,3.05,3.05,0,0,0,.545-1,.487.487,0,0,1,.082-.17.953.953,0,0,0,.187-.4.839.839,0,0,1,.17-.34,4.056,4.056,0,0,0,.506-.956c.1-.07.18-.165.335-.152.255.022.514.006.771.012a.245.245,0,0,1,.194.146,2.429,2.429,0,0,1-.1.31c-.157.332-.328.658-.481.991a4.024,4.024,0,0,0-.271.588,3.648,3.648,0,0,1-.268.588q-.141.292-.287.582c-.1.193-.2.385-.3.578a.253.253,0,0,0,.028.3c.056.067.115.131.174.195.161.174.286.252.492.046.137-.137.326-.114.472-.208a1.776,1.776,0,0,1,.422.123.73.73,0,0,1,.159.113,3.3,3.3,0,0,1,.286.268,1.311,1.311,0,0,0,.349.282c.209.113.351.324.575.424a.138.138,0,0,0,.167-.031.786.786,0,0,0,.1-.165.372.372,0,0,1,.159-.2.587.587,0,0,1,.172-.085,3.2,3.2,0,0,1,.773.051.33.33,0,0,1,.2.158.865.865,0,0,1,.034.126.819.819,0,0,0,.458.516.544.544,0,0,0,.373.059,2.242,2.242,0,0,0,.366-.13.142.142,0,0,0,.093-.153.327.327,0,0,1,.112-.292.554.554,0,0,1,.327-.2c.217-.015.435-.016.652-.026a.567.567,0,0,0,.19-.025c.416-.178.842-.327,1.263-.493a.2.2,0,0,0,.113-.21.736.736,0,0,0-.056-.251,2.744,2.744,0,0,1-.28-.791,2.515,2.515,0,0,1-.073-.446,10.752,10.752,0,0,1,0-1.436.575.575,0,0,1,.144-.35,2.493,2.493,0,0,1,.24-.219.275.275,0,0,1,.114-.061.91.91,0,0,1,.791.195.272.272,0,0,1,.113.227c-.026.243.131.453.107.7a3.751,3.751,0,0,0,.039.65,1.836,1.836,0,0,0,.382,1.014c.04.051.094.093.131.146a.938.938,0,0,1,.15,1.027c-.039.075-.034.171-.068.249a1.362,1.362,0,0,1-.679.755c-.217.1-.427.2-.655.277a2.305,2.305,0,0,1-.965.072c-.06-.006-.114-.061-.174-.087-.039-.018-.129.045-.157.088-.087.136-.047.3-.1.448-.151.2-.3.411-.464.615a.307.307,0,0,1-.226.115.948.948,0,0,0-.505.09,1.221,1.221,0,0,1-.8.2c-.065-.007-.131,0-.2,0l-.652-.029a4.453,4.453,0,0,1-.79-.446.242.242,0,0,0-.058-.029,1.216,1.216,0,0,1-.431.12.548.548,0,0,0-.318.052.212.212,0,0,1-.184.008,3.457,3.457,0,0,1-1.458-.8c-.126-.12-.25-.243-.382-.356a.834.834,0,0,0-.586-.239c-.087,0-.174,0-.261,0-.181.009-.322-.128-.5-.131a2.674,2.674,0,0,1-.314-.227A2.773,2.773,0,0,0,47.382,116.636Z"/><path d="M81.822,5.114l1.432,0c0,.065.031.11.1.114,0,.221.116.418.138.633.025.238.029.479.042.718a.423.423,0,0,0,.015.129c.082.207.057.436.122.639a2.537,2.537,0,0,1,.122.636.521.521,0,0,0,.038.124,3.1,3.1,0,0,1,.2.881.3.3,0,0,0,.029.126,1.14,1.14,0,0,1,.11.506c.009.176.126.324.121.5a3.29,3.29,0,0,0,.11.505,2.009,2.009,0,0,0,.133.763q.015.325.031.653a1.5,1.5,0,0,0,.031.452,1.93,1.93,0,0,1,.074.642.155.155,0,0,1-.008.065c-.018.038-.035.1-.066.106-.184.067-.2.234-.19.375a1.558,1.558,0,0,1-.321.828c-.2.054-.233.243-.31.39a.8.8,0,0,1-.186.264.562.562,0,0,0-.134.215.975.975,0,0,0-.108.439c0,.063-.046.1-.115.133a1.392,1.392,0,0,0-.2.156.387.387,0,0,0-.17.333.19.19,0,0,1-.208.2.331.331,0,0,0-.233.1c-.027.025-.064.082-.054.1a.16.16,0,0,1-.079.259.632.632,0,0,0-.362.25.157.157,0,0,1-.114.054.586.586,0,0,0-.351.154c-.135.109-.278.2-.423.3a3.508,3.508,0,0,0-.428.4,1,1,0,0,1-.106.074.383.383,0,0,0-.113.046c-.173.157-.342.319-.507.474-.1,0-.186,0-.271,0a.4.4,0,0,0-.246.037c-.134.1-.328.1-.421.261a.2.2,0,0,0-.015.061.75.75,0,0,0-.247.072,2.861,2.861,0,0,1-.662.394c-.057.022-.1.084-.146.127s-.092.1-.166.087c-.2-.024-.349.167-.551.155-.17.143-.4.152-.581.273-.066.045-.1.024-.161,0a.256.256,0,0,0-.184-.006.485.485,0,0,1-.3.084.66.66,0,0,0-.31.086.615.615,0,0,1-.249.056c-.26,0-.519-.022-.778-.037-.02,0-.051-.018-.054-.033-.009-.037-.023-.092,0-.115a1.466,1.466,0,0,1,.228-.231c.327-.248.652-.5.991-.73.375-.255.732-.536,1.128-.76.055-.032.094-.1.152-.121.37-.136.653-.421,1.011-.58a5.457,5.457,0,0,0,.9-.517,5.493,5.493,0,0,1,.838-.49,5.179,5.179,0,0,0,.493-.31,5.536,5.536,0,0,1,.47-.345c.184-.083.3-.248.479-.331.214-.1.33-.343.57-.421a.282.282,0,0,0,.128-.143.788.788,0,0,1,.2-.256,1.169,1.169,0,0,0,.3-.42c.065-.136.15-.263.227-.393.022-.037.065-.072.068-.11.019-.281.256-.446.36-.681a3.436,3.436,0,0,0,.614-1.413,1.452,1.452,0,0,0,.009-.952.983.983,0,0,1-.02-.258,1.623,1.623,0,0,0-.126-.7c.007-.35-.177-.671-.162-1.022-.078-.226-.084-.468-.141-.7-.053-.21-.074-.427-.135-.631-.069-.228-.08-.469-.167-.691A.835.835,0,0,1,82.9,6.98a2.574,2.574,0,0,0-.132-.83c-.007-.2-.011-.391-.021-.587a1.21,1.21,0,0,0-.039-.254c-.009-.035-.053-.086-.083-.087-.217-.009-.434,0-.651-.01A.173.173,0,0,1,81.822,5.114Z"/><path d="M92.794,23.218c.031.027.062.075.095.078.173.013.347.014.521.021.095,0,.14.064.2.139.1.134.249.214.328.382a.875.875,0,0,0,.434.38.857.857,0,0,1,.259.186,2.52,2.52,0,0,0,.226.236c.081.065.185.1.271.163.068.048.059.158.145.2a1.947,1.947,0,0,1,.221.131c.054.037.094.1.151.124a1.926,1.926,0,0,1,.451.239,3.659,3.659,0,0,1,.377.361,1.2,1.2,0,0,0,.614.329c.041.012.083.021.123.035a.109.109,0,0,1,.053.037c.11.179.344.191.468.338a2.453,2.453,0,0,0,.466.339.868.868,0,0,0,.4.183c.121.018.215.129.357.137a.437.437,0,0,1,.214.132.417.417,0,0,0,.291.125.179.179,0,0,1,.118.04,2.17,2.17,0,0,0,.548.339.969.969,0,0,1,.169.089.979.979,0,0,0,.322.205,1.23,1.23,0,0,0,.3.11.513.513,0,0,1,.272.169.3.3,0,0,0,.236.09.227.227,0,0,1,.175.071.905.905,0,0,0,.322.207.894.894,0,0,0,.3.108.24.24,0,0,1,.116.048c.123.084.215.22.391.209.135-.007.217.14.36.132a.271.271,0,0,1,.175.068,1.518,1.518,0,0,0,.372.253c.133.061.218.206.381.238a.341.341,0,0,1,.151.12,1.35,1.35,0,0,0,.473.335.484.484,0,0,1,.266.254.37.37,0,0,0,.194.163.491.491,0,0,1,.247.2.148.148,0,0,1,.014.119.168.168,0,0,1-.1.069.188.188,0,0,1-.128,0c-.153-.085-.341-.085-.48-.173-.154-.1-.353-.033-.484-.17-.171-.029-.322-.128-.485-.159a3.076,3.076,0,0,1-.477-.189,1.931,1.931,0,0,0-.471-.2c-.162-.012-.263-.152-.425-.149a.948.948,0,0,1-.412-.175c-.753-.369-1.5-.748-2.25-1.123a1.733,1.733,0,0,0-.294-.128.962.962,0,0,1-.243-.08c-.129-.077-.28-.119-.4-.2-.265-.186-.563-.316-.826-.5a2.515,2.515,0,0,0-.391-.225,7.2,7.2,0,0,1-.932-.572c-.09-.061-.183-.112-.277-.164a1.623,1.623,0,0,1-.48-.327.436.436,0,0,0-.267-.175c-.261-.228-.58-.376-.824-.631-.162-.17-.389-.268-.559-.44a1.627,1.627,0,0,0-.5-.411.736.736,0,0,1-.2-.172c-.325-.322-.648-.647-.976-.967-.173-.168-.254-.4-.416-.577-.043-.046-.009-.1.106-.2.04,0,.081.01.121.011A.826.826,0,0,1,92.794,23.218Z"/><path d="M81.979,48.327a.8.8,0,0,1,.347.37c.01.025-.028.073-.049.107a.079.079,0,0,1-.053.036c-.109,0-.218,0-.327,0H72.935c-.131,0-.263-.008-.393,0a.365.365,0,0,0-.173.077.152.152,0,0,1-.179.021.579.579,0,0,0-.365-.1c-1.221,0-2.442,0-3.664,0a.368.368,0,0,1-.282-.132.279.279,0,0,1-.068-.24c.007-.055.068-.148.1-.149.066,0,.131,0,.2,0h13.8A.532.532,0,0,1,81.979,48.327Z"/><path d="M88.568,7.264c.048.1.1.19.142.289a.193.193,0,0,1,.014.126,2.32,2.32,0,0,0-.1.7.337.337,0,0,1-.1.162.112.112,0,0,1-.164.035.1.1,0,0,0-.119-.006c-.076.043-.152.084-.238.014a.344.344,0,0,1-.156-.27c0-.108,0-.217,0-.326s-.1-.176-.229-.139a.863.863,0,0,0-.126.033c-.175.083-.348.171-.522.256-.156.2-.414.218-.616.337a.316.316,0,0,1-.436-.157A.12.12,0,0,1,85.93,8.2a6.5,6.5,0,0,1,.653-.534,3.645,3.645,0,0,1,.926-.456c.041-.013.093,0,.126-.026a.451.451,0,0,1,.637.1C88.365,7.381,88.466,7.3,88.568,7.264Z"/></g></g></svg>