<svg xmlns="http://www.w3.org/2000/svg" viewBox="0 0 818.85 1029.57"><defs><style>.cls-1{fill:#c5c9ae;}.cls-2{fill:#787a62;}.cls-3{fill:#ffd949;}</style></defs><title>Dog-Walker</title><g id="Layer_2" data-name="Layer 2"><g id="Art"><g id="Dog-Walker"><path class="cls-1" d="M376.88,759.42a1.53,1.53,0,0,1-.37,0c-1.18-.24-2.1.61-3.17.77s-2-.16-2.86.52a11,11,0,0,0-4,1.66c-.87.08-1.43,1-2.39.85a25.88,25.88,0,0,0-5.5,2.86,3.57,3.57,0,0,1-2.37.8,5.57,5.57,0,0,1-4.67-2.5,5.78,5.78,0,0,1-.79-1.64,2.62,2.62,0,0,1,.06-2.16,4.41,4.41,0,0,0,.58-2.47q0-12.27,0-24.54,0-19.53,0-39a4.78,4.78,0,0,1,.53-2.48,1.67,1.67,0,0,0-.17-1.76,1.32,1.32,0,0,1,0-1.69,1.65,1.65,0,0,0,.1-1.76,4.3,4.3,0,0,1-.49-2.13c0-5,0-9.92,0-14.88a4.88,4.88,0,0,1,.4-2.14,5,5,0,0,0,.08-3.25,9.16,9.16,0,0,1,0-5.74A3.66,3.66,0,0,0,352,658c0-1.11,0-2.23,0-3.35a.85.85,0,0,0-.05-.36c-.87-1.63-.65-3.34-.43-5.06.51,0,1,0,1.26-.51a9.93,9.93,0,0,1,1.12-2.26,10.67,10.67,0,0,0,1.87-3.13,6.92,6.92,0,0,1,1.09-1.47,1.61,1.61,0,0,0,.43-1,3.52,3.52,0,0,1,.4-2.13,17.92,17.92,0,0,0,.69-2,2.57,2.57,0,0,0,.39-1.39,3.31,3.31,0,0,1,.61-2.07c.34-.61.08-1.45.65-2.06s.05-1.44.62-2.07.54-1.36,1.05-1.92c-.07-1.48,1.29-2.7.79-4.26q0-30.89,0-61.78,0-74.06,0-148.12V253.72c0-.62,0-1.24,0-1.86a1.22,1.22,0,0,0-.21-.68,3,3,0,0,1-.51-2.1c0-4.22,0-8.44,0-12.66a2.25,2.25,0,0,0-.56-1.31,6.6,6.6,0,0,0-2.72-1.83,2.71,2.71,0,0,0-2.48,0,8.49,8.49,0,0,0-1.61.84,16.83,16.83,0,0,0-1.58,1.58c0,1.16,0,2.27,0,3.38a1.91,1.91,0,0,1-.19,1.06,3.73,3.73,0,0,0-.55,2.47c0,1.86,0,3.72,0,5.58,0,1.1.2,2.23-.65,3.17-.11.12,0,.48.07.7s.32.4.38.63a4.63,4.63,0,0,1-.08,3.22,3.76,3.76,0,0,0-.47,1.75c0,.74,0,1.48,0,2.23q0,45.4,0,90.81a14.61,14.61,0,0,0,0,1.48,1.36,1.36,0,0,0,.32.66,1.21,1.21,0,0,1,0,1.66,1.88,1.88,0,0,0-.3,1q0,6.7,0,13.4a2,2,0,0,0,.32,1,2,2,0,0,1,0,2.4,2.18,2.18,0,0,0-.32,1c0,1,0,2,0,3a2.23,2.23,0,0,0,.52,1.34,1,1,0,0,1-.19,1.33c-.25.31-.43.76-.22,1a3.45,3.45,0,0,1,.63,2.44c0,1.73,0,3.47,0,5.21,0,1,.2,2-.57,2.82a.51.51,0,0,0-.13.33c0,2.24,0,4.47,0,6.7a1.34,1.34,0,0,0,.27.67,2.12,2.12,0,0,1,.44,1.37c-.15,1.81.45,3.72-.72,5.39,0,.87,0,1.74,0,2.6a2.56,2.56,0,0,0,.47,1.37,2.5,2.5,0,0,1,.06,2.47,4.23,4.23,0,0,0-.53,2.1q0,6.33,0,12.65a2,2,0,0,0,.48,1.35.82.82,0,0,1,.09,1,2.9,2.9,0,0,0-.11,3.45,1.79,1.79,0,0,1-.07,2.07c-.13.2-.25.42-.39.65,0,1.85,0,3.71,0,5.57a2.07,2.07,0,0,0,.45,1.36,1,1,0,0,1,0,1.34c-.14.2-.36.42-.37.64,0,1.36,0,2.72,0,4.08,0,.21.23.43.37.63a1.63,1.63,0,0,1,.15,1.75,3.76,3.76,0,0,0-.6,2.07q.06,4.29,0,8.56a3.25,3.25,0,0,0,.64,2.07.76.76,0,0,1,0,.69,3.24,3.24,0,0,0-.63,2.07c0,3.72,0,7.44,0,11.16a4.28,4.28,0,0,0,.57,2.46,3,3,0,0,1,.06,2.16c-.78.81-.62,1.83-.62,2.81,0,4.46,0,8.93,0,13.39a2.2,2.2,0,0,0,.4,1.39,1.28,1.28,0,0,1,.32.65c0,1,0,2,0,3a1.41,1.41,0,0,1-.27.66,2.32,2.32,0,0,0-.45,1.38c0,3.35,0,6.7,0,10a8,8,0,0,1,.59,1c.09.21.17.57.06.7a3.44,3.44,0,0,0-.66,2.42q0,9.69,0,19.36a3.71,3.71,0,0,0,.55,2.09c.22.36.1.94.13,1.43-.82.78-.67,1.8-.67,2.78,0,3.23,0,6.45,0,9.68a3.45,3.45,0,0,0,.55,2.46,1.22,1.22,0,0,1,.17.69c0,1.11.16,2.22-.61,3.2-.19.24-.11.71-.11,1.07,0,1.87,0,3.73,0,5.59a4,4,0,0,0,.52,2.1,2.41,2.41,0,0,1,0,2.47c-.74,1.15-.5,2.35-.33,3.56a.73.73,0,0,0,.19.31,1.16,1.16,0,0,1,0,1.65,1.19,1.19,0,0,0-.29.66c0,3.23,0,6.45,0,9.68a1.35,1.35,0,0,0,.31.65,1.9,1.9,0,0,1,0,2.4,2,2,0,0,0-.31,1c0,1.74,0,3.48,0,5.21a3.12,3.12,0,0,0,.51,1.36,3,3,0,0,1-.2,2.79,2,2,0,0,0,0,2.08c.13.21.36.42.37.64,0,1.36,0,2.72,0,4.08a.58.58,0,0,1-.18.32,2.88,2.88,0,0,0-.53,2.09c0,3.35,0,6.7,0,10,0,1.21-.3,2.5.68,3.53a3.84,3.84,0,0,1-.32,2.51,1.91,1.91,0,0,0-.34,1c-.05.87,0,1.74,0,2.6a1.28,1.28,0,0,0,.27.67,1.2,1.2,0,0,1,.08,1.66,1.49,1.49,0,0,0-.38,1c0,1.12,0,2.23,0,3.35-2.85,0-5.7,0-8.55.06a4.39,4.39,0,0,1-1.38-.45,4.47,4.47,0,0,0-3.24,0c-1.45.69-2.88.4-4.34.28-.22,0-.42-.25-.65-.34a1,1,0,0,0-1,.05,1.27,1.27,0,0,1-1.68.12.73.73,0,0,0-.32-.18c-1.22-.19-2.44-.46-3.58.29a.87.87,0,0,1-1,0,3.4,3.4,0,0,0-2.12-.52h-7.8l-18.21,0a5.48,5.48,0,0,1-3.22-.59c-.33-.22-.72.08-1,.28s-.4.1-.67,0a3,3,0,0,0-3.15.07.86.86,0,0,1-1,.06,1.44,1.44,0,0,0-2,0,3.34,3.34,0,0,1-1,.39c-.26-.42-.57-.82-1.1-.83-1.47,0-2.94.06-4.39-.07-.88-.07-1.32.47-1.9.87a1.32,1.32,0,0,0-1.12-.83c-.75,0-1.49,0-2.19,0a4.11,4.11,0,0,0-.37.19l-1.78,1.3c-1,0-2,0-3,0a1.18,1.18,0,0,1-.65-.3,14.85,14.85,0,0,1-1.33-1.3,1.46,1.46,0,0,1-.22-1.41c.16-.58.51-1.11.63-1.7a3.19,3.19,0,0,1,.46-1.37,1.18,1.18,0,0,0,.19-.32c.26-.7-.07-1.5.36-2.16a15.41,15.41,0,0,0,1.23-1.83c.28-.66.92-1.18.82-2-.09-.67.52-1.09.71-1.67.27-.81.9-1.49.79-2.42a4.59,4.59,0,0,0,.71-2.44c0-1,1-1.74.76-2.81a4.49,4.49,0,0,0,.75-2.8,6.15,6.15,0,0,0,.7-3.57,3.13,3.13,0,0,1,.46-1.75,8.45,8.45,0,0,0,.95-2,8.09,8.09,0,0,0,.1-1.85,1.5,1.5,0,0,1,0-.37c.2-.57.48-1.12.63-1.71a9.28,9.28,0,0,1,.28-1.8,4.9,4.9,0,0,0,.51-2.12c.07-1.33-.27-2.75.66-3.94,0-1,.05-2,.11-3a3.31,3.31,0,0,1,.22-1.43,5.32,5.32,0,0,0,.51-2.5c.09-1.46-.25-3,.67-4.32,0-1.11.06-2.23.11-3.34a2.29,2.29,0,0,1,.21-1.06,3.82,3.82,0,0,0,.5-2.13c0-1.49,0-3,0-4.47a3.73,3.73,0,0,1,.47-2.13,2.29,2.29,0,0,0,.21-1.06c.1-1.22-.1-2.47.62-3.6.18-.27.1-.72.11-1.08,0-1.49.06-3,.08-4.47a4,4,0,0,1,.51-2.49,1.45,1.45,0,0,0,.18-.7c.13-1.33-.21-2.74.69-3.94,0-.86.08-1.73.1-2.59a4.27,4.27,0,0,1,.53-2.49,2.33,2.33,0,0,0,.2-1.07c0-1,0-2,0-3a2.23,2.23,0,0,1,.12-1.08c.82-1.24.54-2.62.61-4a4.87,4.87,0,0,1,.53-2.87,2.14,2.14,0,0,0,.17-1.07c0-.74,0-1.49.07-2.23a9.41,9.41,0,0,1,.17-2.56,8.16,8.16,0,0,0,.58-2.11,4.19,4.19,0,0,0,.68-2.8c0-2.36.05-4.72.05-7.07a3.37,3.37,0,0,1,.5-2.12,2.31,2.31,0,0,0,.21-1.44c0-3,0-6,0-8.93,0-1.33-.28-2.72.54-4a2.27,2.27,0,0,0,.11-1.09c0-3.84.07-7.69.09-11.53a3.46,3.46,0,0,1,.48-2.13c.31-.43.17-1,.17-1.44,0-3.85.06-7.69.07-11.54q0-11.16,0-22.32a3.22,3.22,0,0,1,.41-1.77,1.76,1.76,0,0,0,.08-1.77,3.4,3.4,0,0,1-.07-3.52,2.22,2.22,0,0,0,.24-1c0-1.22.17-2.46-.52-3.61a3.13,3.13,0,0,1-.12-1.45c0-3.23-.08-6.45-.11-9.68a3.71,3.71,0,0,0-.45-2.13,2.57,2.57,0,0,1-.22-1.06c-.14-1.21.06-2.45-.61-3.61a4.16,4.16,0,0,1-.16-1.82,4,4,0,0,0-.55-2.48,2,2,0,0,1-.19-1.06c0-1,0-2,0-3a2.76,2.76,0,0,0-.08-1.09c-1.07-2-.4-4.14-.66-6.2-.12-1,.16-2-.53-2.85-.06-.86-.12-1.72-.17-2.58a4.68,4.68,0,0,0-.49-2.51,2.17,2.17,0,0,1-.23-1.06c0-.86,0-1.73,0-2.6a2.54,2.54,0,0,0-.25-1.06,3.41,3.41,0,0,1-.46-1.76c0-.62,0-1.24,0-1.86a3.72,3.72,0,0,0-.48-2.13,2.17,2.17,0,0,1-.22-1.06c0-1.86,0-3.72-.08-5.58,0-1.1.2-2.25-.59-3.21,0-.61-.1-1.23-.13-1.84a2.61,2.61,0,0,0-.35-1.42,2.3,2.3,0,0,1-.36-1.4c0-1.12,0-2.24-.06-3.35-.09-1.58.39-3.23-.63-4.68,0-.75-.05-1.49-.1-2.23a3.67,3.67,0,0,0-.21-1.43,4.68,4.68,0,0,1-.47-2.51c0-1.24-.08-2.48-.08-3.72a2.59,2.59,0,0,0-.46-1.74,2,2,0,0,1-.23-1.07,3.87,3.87,0,0,0-.27-1.43,4.06,4.06,0,0,1-.45-2.13c0-1.49-.06-3-.07-4.46a3.82,3.82,0,0,0-.47-2.14,2.17,2.17,0,0,1-.22-1.06c-.05-.86,0-1.73-.08-2.6a2.32,2.32,0,0,0-.23-1.06,5,5,0,0,1-.47-2.52,4.75,4.75,0,0,0-.53-2.5,2.14,2.14,0,0,1-.19-1.06c-.05-1.23.15-2.49-.67-3.57,0-.62-.07-1.24-.13-1.85a2.39,2.39,0,0,0-.21-1.06,3.54,3.54,0,0,1-.51-2.12c0-.87,0-1.74-.05-2.61a2.36,2.36,0,0,0-.1-1.08c-.73-1.12-.55-2.37-.63-3.59a2.62,2.62,0,0,0-.2-1.07,4,4,0,0,1-.46-2.14c0-1.49,0-3-.05-4.47a3.37,3.37,0,0,0-.5-2.12,2.31,2.31,0,0,1-.19-1.44c0-5,0-9.93-.07-14.89,0-1.33.25-2.71-.56-4a3,3,0,0,1-.12-1.45c0-3.6,0-7.2,0-10.79a3.86,3.86,0,0,1,.48-1.76,2.68,2.68,0,0,0,.2-1.07c0-1,.08-2,.07-3a3.25,3.25,0,0,1,.43-1.77,4.35,4.35,0,0,0,.32-2.17,2.73,2.73,0,0,1,.36-1.4,2.69,2.69,0,0,0,.32-1,8.47,8.47,0,0,1,.63-3.22c.49-.95-.09-2.21.57-3.23.54-.82.18-2,1-2.73a5.57,5.57,0,0,1,.48-2.51,4.41,4.41,0,0,0,.36-2.53c0-.66.5-1.12.64-1.7a8.59,8.59,0,0,1,.49-2.52c.36-.62.33-1.46.71-2.05.51-.76.17-1.74.82-2.43a1,1,0,0,0,.25-.67,6.63,6.63,0,0,1,1.08-3.46c.58-1.21,1.31-2.36,1.82-3.6.37-.89,1.08-1.69.91-2.77a3.88,3.88,0,0,0,.74-2.42,1.12,1.12,0,0,1,.16-.7c.69-.79.44-1.88,1-2.76a5.52,5.52,0,0,0,1.11-2.68,1.61,1.61,0,0,1,.48-1,9.41,9.41,0,0,0,1.52-2.52c.38-.73.29-1.64,1-2.32.51-.49.68-1.32,1.19-1.82a7.18,7.18,0,0,0,1.5-2.52c.63-1.62,1.88-2.85,2.55-4.43,1.1-1.16,1.64-2.75,2.9-3.8.77-.65.87-1.75,1.65-2.43a19.84,19.84,0,0,0,2.08-2.12c.55-.65.95-1.42,1.48-2.08s1.23-1.24,1.77-1.91c.38-.47.56-1.11,1-1.54a9.41,9.41,0,0,1,1.51-1,1.65,1.65,0,0,0,.53-.52c1.27-2.32,3.43-3.86,5.13-5.81.5-.58,1.24-.76,1.8-1.24.38-1.15,1.37-1.61,2.3-2.22a27.39,27.39,0,0,0,2.49-2.23,15.51,15.51,0,0,1,1.54-1c.57-.36.49-1.11.93-1.54a2.85,2.85,0,0,1,.85-.71c1-.44,2-1,2.94-1.49,1.74-.91,3.48-1.74,5.14-2.82a53.86,53.86,0,0,1,5.87-3,1.62,1.62,0,0,1,.69-.21,5.18,5.18,0,0,0,2.47-.65c.61-.33,1.47-.12,2.07-.65a.52.52,0,0,1,.33-.16,6.51,6.51,0,0,0,3.17-.79,4.49,4.49,0,0,0,2.8-.74,4.56,4.56,0,0,0,2.09-.64c.54-.23,1.26,0,1.82-.22a6.52,6.52,0,0,1,2.43-.77,3.73,3.73,0,0,1,2.45-.65c1.74,0,3.47,0,5.21,0a5.15,5.15,0,0,0,2.87-.5,3.94,3.94,0,0,1,1.81-.22,3.52,3.52,0,0,0,1.76-.45,2.85,2.85,0,0,1,1.05-.26,5.46,5.46,0,0,0,2.87-.58c.35-.24,1-.13,1.44-.18s1.09.07,1.44-.17a4.9,4.9,0,0,1,2.86-.58,5.22,5.22,0,0,0,2.49-.57,4.48,4.48,0,0,1,1.82-.16,2.41,2.41,0,0,0,1.41-.34,2.3,2.3,0,0,1,1.4-.38c.87,0,1.74,0,2.6-.06a2,2,0,0,0,1.05-.26,4.08,4.08,0,0,1,2.51-.46,4,4,0,0,0,2.49-.51,1.53,1.53,0,0,1,.69-.18c.25,0,.5,0,.75,0,1.32-.15,2.74.28,3.93-.67.74-.05,1.48-.11,2.22-.15a5.15,5.15,0,0,0,2.87-.51,3.16,3.16,0,0,1,1.44-.19,3.88,3.88,0,0,0,2.13-.47,2.3,2.3,0,0,1,1.06-.24,6,6,0,0,0,2.87-.57,4.23,4.23,0,0,1,1.81-.19,2.46,2.46,0,0,0,1.41-.34,2.32,2.32,0,0,1,1.4-.41,4.76,4.76,0,0,0,2.85-.59c.26-.19.72-.11,1.08-.13s1.1.13,1.47-.1c1.48-.91,3.11-.6,4.69-.73a2.46,2.46,0,0,0,1.05-.25,4.93,4.93,0,0,1,3.25-.34,2.45,2.45,0,0,1-.46,1.38c-1.13,1.29-1.82,2.94-3.14,4.09-.33,1.28-1.67,1.84-2.17,3-.58,1.3-1.71,2.09-2.57,3.12a6,6,0,0,0-1,1.11c-.83,1.73-2.32,2.86-3.6,4.19-.69.71-1.43,1.37-2.09,2.11s-1.47.93-2.07,1.5a21.56,21.56,0,0,0-1.81,2.3,2,2,0,0,1-.82.73,7.35,7.35,0,0,0-2.61,2,27.55,27.55,0,0,1-3.15,2.54c-1.09.8-2,1.85-3,2.76-.27.23-.73.27-.95.53-.88,1-2.44,1.21-3,2.61a1.27,1.27,0,0,1-.8.74c-1.18.21-1.63,1.55-2.79,1.72l-2.49,2.23a3.75,3.75,0,0,1-1.22.8c-.81.3-1.24,1.19-2.12,1.45s-1.28,1.13-1.94,1.67a1.63,1.63,0,0,1-.61.42c-1,.25-1.62,1.09-2.36,1.73a9.25,9.25,0,0,1-2.05,1.54,3.24,3.24,0,0,0-1.73,1.87c.39.27.78.77,1.2.79a7.84,7.84,0,0,1,2.74,1,13.9,13.9,0,0,1,1.92,1.08,1.82,1.82,0,0,0,2.08,0c.18-.12.5-.26.62-.19a5.27,5.27,0,0,0,2.9.43c1.86.05,3.72.07,5.58.08a2.77,2.77,0,0,1,1.41.31,2.43,2.43,0,0,0,1,.35c1,.06,2,.07,3,.06a2.83,2.83,0,0,1,1.39.42,2.43,2.43,0,0,0,1,.29c3,0,5.95,0,8.93,0a1.18,1.18,0,0,0,.69-.19,3.2,3.2,0,0,1,2.11-.49c1.49,0,3-.05,4.46-.09.25,0,.55,0,.72-.09,1.09-.83,2.35-.61,3.57-.62a5.33,5.33,0,0,0,1.72-.6c.68-.22,1.42-.13,2.07-.63s1.67-.29,2.52-.32a2.09,2.09,0,0,0,1-.36c.85-.5,2-.19,2.73-1,.06-.06.24,0,.36,0a4,4,0,0,0,2.15-.39,21.09,21.09,0,0,1,2-.71,2.93,2.93,0,0,1,1.37-.45,3,3,0,0,0,1.77-.39c.93-.57,1.95-1,2.94-1.49.32-.15.7-.41,1-.35,1.22.22,2.12-.53,3.13-.92.44-.17.8-.59,1.33-.56a2.31,2.31,0,0,0,1.64-.73c.28-.24.57-.58.9-.63a2.87,2.87,0,0,0,2-.76c.93-.12,1.42-.94,2.16-1.36a1.57,1.57,0,0,1,.69-.23,6.26,6.26,0,0,0,2.69-1.11,2.69,2.69,0,0,1,1.38-.45.85.85,0,0,0,.86-.58,1.24,1.24,0,0,1,1.46-.82,1.9,1.9,0,0,0,1.95-.78c.44-.69,1.23-.8,1.86-1.12a9.33,9.33,0,0,0,2.43-1.63c1.65-1.58,2.92-2.33,6.07-4a8,8,0,0,0,1.9-1.06c.72-.71,1.69-1,2.4-1.67a7.75,7.75,0,0,1,2.63-2c.31-.11.55-.49.75-.79s.23-.72.46-1c1.31-1.45,3-2.57,3.82-4.43.81-.21,1-1,1.46-1.5,1-1,1.15-2.83,2.85-3.26.19,0,.38-.32.47-.53.37-.89,1-1.71.85-2.77a.93.93,0,0,1,.43-.9,4,4,0,0,1,.31,1c.05,1.24,0,2.48,0,3.72q0,8.75,0,17.49,0,25.32,0,50.62c0,1.69.43,3.48-.61,5.07.11,1.09-.26,2.21.36,3.27a3,3,0,0,1,.24,1.43c0,3.73,0,7.45,0,11.17a3,3,0,0,1-.32,1.42,3,3,0,0,0,0,2.83,1.59,1.59,0,0,1,0,1.73,2.43,2.43,0,0,0-.26,1.43c0,3.22,0,6.45,0,9.67a2.22,2.22,0,0,0,.17,1.07c.67,1.17.41,2.4.37,3.62-.82,1.1-.53,2.37-.53,3.59,0,7.44,0,14.89,0,22.33,0,11.53-.08,23.07-.09,34.61q0,35.34-.06,70.7,0,23.44,0,46.89a3.43,3.43,0,0,1-.47,2.12.78.78,0,0,0,0,.7,3.51,3.51,0,0,1,.52,1.74c0,6.57,0,13.15,0,19.73a2.42,2.42,0,0,1-.19,1.07,6.85,6.85,0,0,0-.25,4.33,10.53,10.53,0,0,1,.43,1.76c0,2.36,0,4.72,0,7.07a2.42,2.42,0,0,1-.23,1.07,2.25,2.25,0,0,0,0,2.44,2.61,2.61,0,0,1,.27,1.43c0,2.11,0,4.22,0,6.33a3.13,3.13,0,0,1-.15,1.45c-.83,1.54-.35,3.17-.45,4.75a2,2,0,0,0,.23.68c.12.35.37.7.34,1-.14,1.95.47,4-.56,5.83,0,.73-.2,1.48.26,2.16a1.34,1.34,0,0,1,0,1.71,1,1,0,0,0-.12,1c.13.35.47.68.45,1-.14,1.94.53,4-.53,5.82-.09.16,0,.47.12.69a5.23,5.23,0,0,1,.37,1c.07.62-.71,1.06-.47,1.71a4.33,4.33,0,0,1,.55,1.74c-.05.74,0,1.48,0,2.23a3.39,3.39,0,0,1-.49,2.12,1,1,0,0,0,.14,1,2.13,2.13,0,0,1,.17,2.11,3.32,3.32,0,0,0-.46,1.38c0,1.49,0,3,0,4.47a1.25,1.25,0,0,0,.15.7,3.55,3.55,0,0,1,.44,2.14c0,2.11,0,4.22,0,6.32a3.71,3.71,0,0,1-.38,1.79,2.72,2.72,0,0,0-.22,1.06c0,1.61,0,3.23,0,4.84a1.61,1.61,0,0,0,.19,1.07,3.19,3.19,0,0,1,.42,2.14q0,9.11,0,18.23,0,19.35.07,38.7c0,1.49-.09,3-.14,4.46-.12.05-.3.07-.33.15-1.34,2.86-2.9,5.6-4.16,8.5a2.65,2.65,0,0,0-.62,2.07,1.87,1.87,0,0,1-.52,1.33,14.68,14.68,0,0,0-1.65,2,40,40,0,0,0-2,3.93c-.64,1.46-1.83,2.59-2.45,4-.43,1-1,2-1.41,3-.32.8-.85,1.46-1.12,2.29s-1.09,1-1.28,1.77-1,1.39-1.59,2a2.21,2.21,0,0,0-.69,1.65.81.81,0,0,1-.07.35c-.48.85-1.37,1.43-1.6,2.46-.07.32-.44.59-.71.85-.7.69-1.5,1.33-1.35,2.49a5.11,5.11,0,0,1-2,2.08,2.55,2.55,0,0,0-1,1,30.43,30.43,0,0,1-2.12,2.57c-.23,1.21-1.28,1.79-2.06,2.54a10.8,10.8,0,0,0-2.45,3.62,10.5,10.5,0,0,1-2.19,3.35,27.31,27.31,0,0,0-1.67,2.38,14.64,14.64,0,0,1-1.56,1.59c-.65.61-.71,1.54-1.36,2.18a24.79,24.79,0,0,0-1.46,2.08c-.55.66-1.22,1.23-1.82,1.85-1,1.07-2.06,2.14-3.1,3.22a8.28,8.28,0,0,1-2.22,2.9c-1,1.07-2.23,1.94-2.82,3.37a2.07,2.07,0,0,1-.79.76c-2,1.3-2,1.3-3.55,3.57a4.86,4.86,0,0,1-1.87,1.76c-.35.16-.73.28-.85.62a7.31,7.31,0,0,1-2.07,2.57q-6.17,6.19-12.37,12.34c-1.3,1.29-2.37,2.87-4.2,3.54-.22.08-.36.34-.55.5-.58.49-.81,1.24-1.29,1.75s-1.28.69-1.75,1.29c-.15.2-.38.34-.51.54-.33.51-.62,1.05-.94,1.56-.42.68-1.32.6-1.84,1.16a5.53,5.53,0,0,1-1.63,1.48,5.33,5.33,0,0,0-2,1.51c-.6.68-1.49.87-2.13,1.42-.84.73-1.6,1.55-2.42,2.31-1.07,1-1.95,2.18-3.39,2.79-1,.42-1.42,1.73-2.63,1.94l-2.45,2.27a5.86,5.86,0,0,1-1.39,1.22c-1.93.81-3.47,2.3-5.38,3.1-1.1.46-1.66,1.44-2.57,2s-2.29.86-3.19,1.75a5.44,5.44,0,0,1-1.69,1.41c-.9.3-1.31,1.12-2.08,1.49s-1.35.56-2,.86-1.31.66-1.95,1S377.54,759.26,376.88,759.42Zm89.29-484.61a2.52,2.52,0,0,0-.37-.05H387.31l-1.11,0c-.21,0-.56.54-.6.85A1.59,1.59,0,0,0,386,277a2.11,2.11,0,0,0,1.61.75c6.94,0,13.88,0,20.83,0a3.31,3.31,0,0,1,2.07.6.86.86,0,0,0,1-.12,2.15,2.15,0,0,1,1-.44c.74-.06,1.48,0,2.23,0h51c.62,0,1.24,0,1.86,0a.48.48,0,0,0,.3-.21c.12-.19.34-.46.28-.61A4.51,4.51,0,0,0,466.17,274.81Z"/><path class="cls-1" d="M602.66,477.92a14.77,14.77,0,0,1,.2,4.78,1.28,1.28,0,0,1-.34.65.9.9,0,0,0-.09,1,3.74,3.74,0,0,1,.5,2.12c0,5.45.05,10.91.06,16.36q0,13.95,0,27.9c0,6.44,0,12.89,0,19.33q0,3.17,0,6.32a1.44,1.44,0,0,0,.07.73c1,1.47.44,3.13.56,4.7.1,1.23,0,2.48,0,3.72a4,4,0,0,1-.5,2.12,3.69,3.69,0,0,0-.11,1.43c1,1.33.44,2.87.58,4.32a.61.61,0,0,1-.15.33,3.09,3.09,0,0,0-.5,2.11c0,.87,0,1.74,0,2.61a5.08,5.08,0,0,0,.45,1.75,6.13,6.13,0,0,1,0,4,6.3,6.3,0,0,0-.42,2.13q0,3.35,0,6.69a3.55,3.55,0,0,0,.44,2.14,1.27,1.27,0,0,1,.18.69c0,1,0,2,.05,3a3.15,3.15,0,0,1-.41,1.4,3.16,3.16,0,0,0,.06,2.84,2.87,2.87,0,0,1,.33,1.41c0,1.61,0,3.22,0,4.84a1.41,1.41,0,0,1-.08.72c-.91,1.35-.55,2.87-.56,4.33,0,6.57,0,13.14,0,19.71a4,4,0,0,0,.49,2.12,3.52,3.52,0,0,1,.1,1.43c-1,1.34-.46,2.87-.52,4.33,0,.21.2.44.32.66a1.77,1.77,0,0,1,.13,1.76,4.07,4.07,0,0,0-.5,2.12c0,1,0,2,0,3a2.34,2.34,0,0,0,.23,1,3.44,3.44,0,0,1,.41,1.77c0,1.37,0,2.73,0,4.09,0,1,.17,2-.48,2.87a20.72,20.72,0,0,0-.06,5.16c.79,1.1.54,2.37.55,3.59,0,3.22,0,6.45-.06,9.67a.74.74,0,0,1-.5.49c-1.24.06-2.48.06-3.72,0a1.09,1.09,0,0,1-.68-.22c-.84-.72-2-.19-2.83-.64a7.94,7.94,0,0,1-2.46-1.59,3.48,3.48,0,0,0-1.44-1.12,10,10,0,0,1-2.07-.66c-.63-.33-1.22-.94-2-.88s-1.34-.73-2-.73a6.08,6.08,0,0,1-2.41-.84,5,5,0,0,0-2.42-.74,1.46,1.46,0,0,1-.72-.12c-.78-.37-1.52-.82-2.31-1.15s-1.49-.1-2.06-.69a15.29,15.29,0,0,1-3.72-1.48c-.53-.26-1.21-.23-1.74-.5s-.91-.9-1.46-1.12a17,17,0,0,1-3.75-2.26,7.66,7.66,0,0,0-1.32-.64c-.11-.06-.22-.17-.32-.16a4.3,4.3,0,0,1-3.64-1.45l-1.47.08c-.27-.64-.18-1.49-1.16-1.69a6.26,6.26,0,0,1-1.29-.7l-3.6-1.76c-.83-1.15-2.32-1.36-3.27-2.36-.49-.51-1.27-.67-1.85-1.17a7.45,7.45,0,0,0-1.88-1.09,6.73,6.73,0,0,1-2.13-1.4,2.51,2.51,0,0,0-1-.39c-.35-.12-.82-.1-1-.33-.83-1-2.15-1.2-3-2.11a1.67,1.67,0,0,0-.94-.52,4.8,4.8,0,0,1-1.72-.58c-.54-.28-1.09-.53-1.62-.82a14.35,14.35,0,0,0-3.31-1.53,17.41,17.41,0,0,1-3-1.24,15.67,15.67,0,0,1-2.9-1.52,23.83,23.83,0,0,1-2.4-2.32,7.31,7.31,0,0,1-.8-.77,10.16,10.16,0,0,0-3.26-2.37c-.76,0-.89-.69-1.2-1.21a4.53,4.53,0,0,0-1.86-1.77c-.34-.17-.75-.29-.84-.63-.31-1-1.22-1.53-1.84-2.28a5.92,5.92,0,0,1-1.15-1.44,5,5,0,0,0-1.55-2c-.77-.67-.9-1.73-1.68-2.4a20.16,20.16,0,0,1-3.53-4.66l.12-2.49a4.81,4.81,0,0,0,.54-3.44c.06-.5-.2-.73-.65-.8,0-.37-.06-.81.11-1.09a3.86,3.86,0,0,0,.6-2.11c0-1.11,0-2.23,0-3.34a3.83,3.83,0,0,1,.28-1.43,4.06,4.06,0,0,0,.41-1.77c0-3.6,0-7.19.05-10.78a2.37,2.37,0,0,0-.51-1.34,1.49,1.49,0,0,1-.11-1.42,5.15,5.15,0,0,0,.62-3.21,21,21,0,0,1,0-3,2,2,0,0,1,.31-1,1.21,1.21,0,0,0-.05-1.65,2.2,2.2,0,0,1-.28-1,8.91,8.91,0,0,1,.61-4.72,2.22,2.22,0,0,0-.16-2.15,2.43,2.43,0,0,1-.43-1.39c0-1.36,0-2.72,0-4.09a2.25,2.25,0,0,1,.23-1.06c.62-1.16.93-2.3.06-3.47-.05-.08-.09-.25-.05-.3a3.22,3.22,0,0,0,.55-2.46q0-11.71-.07-23.43c0-4.83,0-9.66,0-14.49,0-5.08.05-10.17.07-15.25,0-1.48,0-3,0-4.45a2.23,2.23,0,0,0-.48-1.36.5.5,0,0,1,.08-.65,3.11,3.11,0,0,0,.37-2.15c0-3.71,0-7.43,0-11.14,0-5.83,0-11.65,0-17.47,0-1.33.4-2.74-.55-4,.07-1.7-.5-3.45.39-5.1a2.55,2.55,0,0,0,.15-1.08c0-1.11.05-2.23.05-3.35,0-5.57,0-11.15-.05-16.72,0-1.68.52-3.48-.6-5,.09-1.2-.32-2.46.54-3.57a1.51,1.51,0,0,0,0-1.43c-.14-.34-.52-.66-.5-1,.06-1.21-.38-2.49.5-3.6a.87.87,0,0,0,0-.69c-.18-.43-.41-.75-.12-1.31a3.06,3.06,0,0,0-.5-3.43c.05-1.1.09-2.21.14-3.32a6.58,6.58,0,0,0,.61-3.6c.07-2.35.08-4.7.09-7.06,0-1.11,0-2.23-.1-3.33,0-.34-.46-.65-.47-1s.33-.62.46-.95a1.74,1.74,0,0,0,.09-.72c0-.49-.13-1-.12-1.47q0-8.37.09-16.73a3.57,3.57,0,0,0-.39-1.4,3,3,0,0,1,.09-3.15,1.24,1.24,0,0,0,.28-.66q0-3.35-.06-6.69c0-.22-.21-.44-.32-.66s-.33-.45-.31-.65c.16-1.44-.48-3,.6-4.32a.82.82,0,0,0-.07-.69,2.82,2.82,0,0,1-.52-1.72c0-1.86,0-3.73-.09-5.58,0-.68.41-1.1.58-1.64l-.62-1c0-.71.13-1.45.11-2.19-.12-5.32,0-10.65,0-16-.29-1.29.39-2.75-.67-3.93-.11-.12,0-.51.07-.7a2.89,2.89,0,0,0,.57-1.72c-.06-.74,0-1.49-.09-2.23a1.35,1.35,0,0,0-.26-.67,1.19,1.19,0,0,1,0-1.66,1.46,1.46,0,0,0,.33-1c0-1.23,0-2.47,0-3.71a11.52,11.52,0,0,0-.67-3.58,2.51,2.51,0,0,1,.27-2.15,2.25,2.25,0,0,0,.34-1.41c0-2.23,0-4.46,0-6.69,0-.37.09-.85-.1-1.08-.71-.87-.43-1.9-.63-2.85a2.9,2.9,0,0,0-.56-.9c.34-.69.64-1.36,1-2a2,2,0,0,0-.19-2.42,1.38,1.38,0,0,1-.26-1,31,31,0,0,0,0-4.82,1.56,1.56,0,0,1,.19-1.07c.8-1.11.56-2.34.41-3.56-.75-.84-.53-1.85-.53-2.84s.17-2.25-.62-3.2c0-1-.31-1.93.36-2.85a1.54,1.54,0,0,0-.06-1.74,3,3,0,0,1,0-3.47,1.46,1.46,0,0,0,.2-.68c0-1,0-2,0-3a3,3,0,0,0-.58-2.43.77.77,0,0,1,0-.69,2.36,2.36,0,0,0,.54-1.71,16.49,16.49,0,0,1,.06-1.85c0-4.71,0-9.41,0-14-.3-.61-.87-1-.27-1.7a.74.74,0,0,0,.12-.68,3.71,3.71,0,0,1,0-4.17,1.39,1.39,0,0,0-.16-1.42.76.76,0,0,1,0-1,1.82,1.82,0,0,0,0-2.08,2.22,2.22,0,0,1-.44-1.37,14.94,14.94,0,0,0,0-2.22,3.76,3.76,0,0,0-.39-1c-.05-.11-.15-.22-.14-.32a.7.7,0,0,1,.18-.31,1.77,1.77,0,0,0,.17-2.08,3,3,0,0,1-.07-3.45,2.67,2.67,0,0,0,0-2.49,4.4,4.4,0,0,1-.47-1.39c-.06-1.85-.05-3.71-.05-5.57,0-1.23,0-2.47,0-3.71a37.06,37.06,0,0,0,0-4.08c-.13-1.2.41-2.51-.48-3.61a4.27,4.27,0,0,0,.45-1.33c0-3.71,0-7.42,0-11.14a3.23,3.23,0,0,0-.5-1.74.85.85,0,0,1,.07-1,1.17,1.17,0,0,0,.13-1.64,1.86,1.86,0,0,1-.13-2.09,2.52,2.52,0,0,0,.42-1.39,3.68,3.68,0,0,1,0-.74,8.43,8.43,0,0,0-.55-4.7,1.33,1.33,0,0,1,.22-1.4,1.2,1.2,0,0,0,0-1.66,1,1,0,0,1,0-1.35,1.89,1.89,0,0,0,.28-1.76c-.1-.35-.36-.65-.48-1a1.66,1.66,0,0,1,0-1.43,2.92,2.92,0,0,0,.5-1.73c0-1.73,0-3.47,0-5.21a4.18,4.18,0,0,0-.41-2.52c-.08-.11.08-.41.15-.62s.27-.46.27-.68q0-3.72,0-7.44a1.31,1.31,0,0,0-.28-.68c-.17-.24-.25-.45-.1-.65a2.46,2.46,0,0,0,.43-1.75q-.06-1.49,0-3c0-.15.24-.32.4-.43s.23.07.33.14c.76.51.83,1.49,1.45,2.11.78.8,1.51,1.65,2.26,2.47.22,1.06,1.14,1.59,1.8,2.3s1.58,1.58,2.37,2.36c.53.53,1,1.09,1.6,1.56s1.25.79,1.8,1.26a22.05,22.05,0,0,1,2.41,2.32c.84,1,2.09,1.34,2.92,2.22a11.28,11.28,0,0,0,3.33,2.26,12.32,12.32,0,0,1,1.54,1,2.32,2.32,0,0,0,1,.53,3.88,3.88,0,0,1,1.94.94,35.51,35.51,0,0,0,4.7,2.83c1.76.85,3.49,1.77,5.24,2.66a8.15,8.15,0,0,0,2,1,13.3,13.3,0,0,1,3.41,1.31c.87.44,2,.28,2.73,1l1.86,0a7,7,0,0,1,1.12,0,3,3,0,0,1,1,.44,1,1,0,0,0,1,.05,2.84,2.84,0,0,1,1.38-.46c.62,0,1.24-.07,1.86,0a5.18,5.18,0,0,0,3.75-1.26,15.25,15.25,0,0,1,2.86-1.67c1.16.11,2-1,3.17-.86.09,0,.2-.12.29-.21s0-.34-.31-.37c-1.22-.11-2.48,0-3.58-.71-.18-.12-.49,0-.73-.07a4.82,4.82,0,0,1-2.52-.43c-.78-.53-1.76-.08-2.5-.52a6.42,6.42,0,0,0-2.48-.61c-.71-.1-1.37-.53-2.08-.65a5.51,5.51,0,0,1-2.12-.55c-.73-.42-1.73-.14-2.39-.84-1,.07-1.83-.74-2.77-.83s-1.33-.77-2.06-.75c-.94,0-1.57-.65-2.41-.87-.69-.18-1.29-.61-2-.78a10.33,10.33,0,0,1-2.31-1.09c-1.53-.77-3-1.59-4.59-2.33s-2.79-2-4.46-2.53c-.33-.1-.59-.43-.91-.64-.61-.4-1.26-.75-1.84-1.19a4.94,4.94,0,0,0-1.85-1.17c-1-1-2.31-1.42-3.29-2.37-1.24-1.2-2.87-1.91-4-3.2-1.73-.81-2.86-2.33-4.2-3.59a13,13,0,0,1-3.17-4.48,8.83,8.83,0,0,0-1.26-1.73c0-.34-.06-.59-.05-.84a12.14,12.14,0,0,0-.67-3.95c-.31-1.16-1.11-2.23-.84-3.53-.54-.83-.55-1.88-1-2.71a5.64,5.64,0,0,0-3.51-2.52,1.06,1.06,0,0,0-1.32.91c0,.74,0,1.49,0,2.23,0,2.86,0,5.71-.08,8.56a3.63,3.63,0,0,1-.23,1.44,4.92,4.92,0,0,0-.45,1.77,3.73,3.73,0,0,1-.35,2.16c-.54.77-.22,1.73-.57,2.48-.61,1.34-1.07,2.73-1.65,4.07a11.47,11.47,0,0,1-1.89,3.55c-.95,1-1.19,2.41-2,3.49-.67.87-1.24,1.84-2,2.65-1.34,1.47-2.71,2.91-4.16,4.26S482,167.1,480.22,168c-.75.37-1.27,1.18-1.94,1.72s-1.59,1.14-2.35,1.75a5.57,5.57,0,0,1-2.12,1.43c-1.17,1.12-2.73,1.63-4,2.54a20,20,0,0,1-3.52,2c-1.36.58-2.37,1.71-3.77,2.25a21.37,21.37,0,0,1-3,1.34,11.53,11.53,0,0,0-2.64,1.24c-1,.5-2,.94-3,1.4a2,2,0,0,1-.68.24c-1.13.07-2,1-3.15.93-1.11.54-2.22,1-3.3,1.62a2.69,2.69,0,0,1-1.38.47,4.21,4.21,0,0,0-2.09.62,8.57,8.57,0,0,1-1.66.77,5.6,5.6,0,0,0-2.07.71c-1-.08-1.84.65-2.79.82a5.76,5.76,0,0,0-2.13.5c-.6.37-1.44.34-2.05.7-.77.46-1.7.22-2.44.8s-1.68.25-2.53.34a1.43,1.43,0,0,0-.7.18c-.74.6-1.67.36-2.47.61a8.21,8.21,0,0,1-3.2.72.53.53,0,0,0-.33.13,3.58,3.58,0,0,1-2.48.57,3.76,3.76,0,0,0-1.76.47,4.18,4.18,0,0,1-1.43.27c-.49.05-1.1-.15-1.46.08-1.49.95-3.13.52-4.71.68-.49,0-1.07-.08-1.45.15-1.15.7-2.39.53-3.61.55-2.73.06-5.46.06-8.19.06a5.75,5.75,0,0,1-1.07-.2c.11-.43.42-.54.7-.75s.57-.78.92-1.1,1.19-.18,1.78-.3.72-.59.93-1c.12-.26.33-.31.59-.1s.53.24.59,0c.37-1.29,1.51-1.93,2.29-2.85a2.14,2.14,0,0,1,1.69-.59.72.72,0,0,0,.69-.71,6.21,6.21,0,0,1,.22-1c0-.11.17-.27.25-.26.8,0,1.15-1,2-.86a1.82,1.82,0,0,0,1.79-1.09c.33-.52.52-1,1.21-1.26s1.2-1.25,2.12-1.43a13.7,13.7,0,0,0,3.63-3.65c.12-.2.23-.52.41-.57.83-.23,1.39-1,2.35-1,.58,0,.87-.38.92-.93s.07-1,.64-1.19a2.34,2.34,0,0,0,1.59-1.42c.14-.37.28-.75.61-.84a2.22,2.22,0,0,0,1.7-2.15,1,1,0,0,1,.3-.64c.5-.34,1.06-.58,1.27-1.24a.79.79,0,0,1,.58-.39c1.56-.13,2.35-1.18,3-2.43a11.63,11.63,0,0,0,.71-1.29,1.56,1.56,0,0,1,1-.95,1.18,1.18,0,0,0,.57-1.26.62.62,0,0,1,.28-.64,8.1,8.1,0,0,0,.9-.57c.4-.37.2-.94.37-1.38a.8.8,0,0,1,.51-.46.9.9,0,0,0,.82-.62c.31-1.2,1.26-2.08,1.57-3.27.1-.36.44-.54.8-.69.2-.08.52-.35.5-.48-.22-1.1.89-1.74.91-2.72a1.4,1.4,0,0,1,1-1.36.84.84,0,0,0,.39-.59c.08-.74.06-1.49.14-2.23a.83.83,0,0,1,.39-.59,1.35,1.35,0,0,0,1-1.32,5.91,5.91,0,0,1,.53-2.12c.37-.89.44-1.89.9-2.77v-3.72c-.45-.86-.91-1.72-1.35-2.59a.9.9,0,0,1-.06-.37,4,4,0,0,1,.16-1.06c.36-.77.86-1.48,1.18-2.26s.13-1.45.64-2.06a1.13,1.13,0,0,0,.23-.67c.05-.73.05-1.47.07-2.2.87-.94.57-2.37,1.4-3.32,0-1.35,1-2.49.8-3.88a5.9,5.9,0,0,0,.79-3.12c.65-.79.53-1.87,1-2.7s.31-2.18,1.11-3.06c.2-.21.08-.71.1-1.08a1.39,1.39,0,0,1,.09-.35c.53-.92,1.63-.93,2.39-1.48a2.36,2.36,0,0,1,1.41-.21c.48,0,1,0,1.53,0,.94-.89,1.9-1.81,2.89-2.7a2,2,0,0,1,.64-.26,1.38,1.38,0,0,0,.81,1.16,17.56,17.56,0,0,0,2.68,1.11,22.55,22.55,0,0,1,4.42,1.63,8.29,8.29,0,0,0,2.65,1.2c.91.12,1.51.84,2.38.91.69.88,1.85.53,2.71,1a22.73,22.73,0,0,0,3.6,1.78,31.72,31.72,0,0,0,3.66,1.62,11.9,11.9,0,0,1,3.64,1.67c.87.57,2,.27,2.74,1a.9.9,0,0,0,.68.21,4.54,4.54,0,0,1,3.1,1c1.05.64,1.92,1.51,3.3,1.36.32,0,.65.31,1,.41.93.27,1.71.86,2.71,1.07a16.33,16.33,0,0,1,3,1.32,2,2,0,0,0,.73,0,4,4,0,0,0,.22,1.06,6.46,6.46,0,0,0,2.5,1.24c1.06.07,2.19-.13,3.09.68l2.53.1,1.82.17c1.71,1.24,3.9,1.38,5.68,2.46.83.51,1.94.34,2.7,1.05a2.75,2.75,0,0,1,1.74.49c.51.46,1.21.18,1.75.46.19.1.3.35.44.54-.65.54-.84.87-.6,1.13.92,1,1.38,2.32,2.37,3.28,1.86,1.82,3.7,3.67,5.55,5.49a4.08,4.08,0,0,0,1.11,1,9.45,9.45,0,0,1,2.83,2.34c1,1,2.26,1.54,3.18,2.5,1.39,1.46,3.21,2.3,4.69,3.59a2.57,2.57,0,0,1,1.52,1,9.38,9.38,0,0,0,2.73,1.86,18,18,0,0,1,1.57.93,40.44,40.44,0,0,0,5.3,3.25,15.62,15.62,0,0,1,2.23,1.28c1.49,1.06,3.18,1.8,4.69,2.85.7.49,1.55.73,2.29,1.16a5.74,5.74,0,0,0,1.38.46,9.46,9.46,0,0,1,1.67.72c4.26,2.13,8.51,4.29,12.79,6.39.76.37,1.45,1,2.34,1s1.5.78,2.43.85,1.76.81,2.67,1.14a18.44,18.44,0,0,0,2.71,1.08c.93.17,1.79.74,2.76.9.75.78,1.88.41,2.76,1s1.86.5,2.72,1a1.08,1.08,0,0,0,.73,0,.94.94,0,0,0,.58-.39.82.82,0,0,0-.08-.68,2.83,2.83,0,0,0-1.4-1.14,2.16,2.16,0,0,1-1.11-.92,2.7,2.7,0,0,0-1.51-1.44,7.93,7.93,0,0,1-2.69-1.91,1.91,1.91,0,0,0-.86-.68c-.92-.18-1.41-1-2.16-1.36a8.59,8.59,0,0,1-2.12-1.43,1.49,1.49,0,0,0-1-.39c-.82,0-1.28-.79-2-.75-1,.06-1.52-.72-2.22-1.19a1.35,1.35,0,0,0-.66-.27,5.65,5.65,0,0,1-1.7-.61,5.39,5.39,0,0,1-1.83-1.18,1.25,1.25,0,0,0-1-.41,1.73,1.73,0,0,1-1.35-.51,2.89,2.89,0,0,0-1.54-1,7.27,7.27,0,0,1-1.69-.63,5.7,5.7,0,0,1-1.83-1.16,5.17,5.17,0,0,0-1-.51,11.9,11.9,0,0,1-3.11-1.93,1.07,1.07,0,0,0-.68-.22,2.39,2.39,0,0,1-1.65-.71,2.52,2.52,0,0,0-1.22-.76c-.8,0-1.34-.67-2-.77a5,5,0,0,1-2.3-1.05,13.53,13.53,0,0,1-2.65-1.92c-.71-.84-2-.91-2.66-1.93a.64.64,0,0,0-.3-.2c-.23-.08-.47-.13-.7-.2a6.89,6.89,0,0,1-3.49-1.88,21.84,21.84,0,0,0-2.15-2,10.63,10.63,0,0,0-2.56-1.36c-.32-.12-.55-.49-.86-.7a12.16,12.16,0,0,0-1.25-.75c-.49-.24-.44-.86-.83-1.14s-1.08-.56-1.54-.93a13.65,13.65,0,0,1-1.29-1.34,4.94,4.94,0,0,0-1.47-1.06,5,5,0,0,1-2.47-2.16c-.45-1-1.3-1.41-1.86-2.17-.31-.43-.57-.77-1.11-.79-1,0-2,0-3-.12-.19,0-.37-.29-.55-.44a12.42,12.42,0,0,1,3.7-.21c.62,0,1.23,0,1.85-.06,1.57-1.09,3.36-.57,5-.67,1.49-.09,3-.06,4.47-.06a2.92,2.92,0,0,0,1.42-.31,2.3,2.3,0,0,1,1-.32c2-.05,4-.05,5.95-.05a1.41,1.41,0,0,1,.72.09c1.35.9,2.88.51,4.33.64.25,0,.55-.07.74,0,1.59.95,3.35.62,5.05.76a1.66,1.66,0,0,1,.68.26,2.6,2.6,0,0,0,1.4.41,4.87,4.87,0,0,1,2.86.58,3.09,3.09,0,0,0,1.45.18,3.82,3.82,0,0,1,2.13.5,1.68,1.68,0,0,0,1.06.22c1.17-.15,2,1,3.17.81a8.84,8.84,0,0,1,2.84,1.66,1.37,1.37,0,0,0,.59.44c1.41.34,1.94,1.86,3.26,2.36a35.67,35.67,0,0,1,3.3,1.59c1.18,1.27,2.92,1.79,4,3.16s2.31,2.26,3.41,3.43a11,11,0,0,0,3,2.1c2.8,1.5,2.82,1.46,4.5,3.12.71.7,1.4,1.4,2.1,2.11a5.69,5.69,0,0,0,2.3,1.79,8.46,8.46,0,0,1,.95,1.56,3,3,0,0,0,1.59,1.92,4.29,4.29,0,0,1,2.13,2,8.74,8.74,0,0,0,1.6,2,21.17,21.17,0,0,1,1.77,1.9,18.08,18.08,0,0,1,1.25,2.24c.12.21.16.51.33.64.92.72,1,2,1.86,2.73a7,7,0,0,1,1.47,2.53,15,15,0,0,0,2.09,2.57c.59.77,1.13,1.59,1.7,2.39.22.3.58.55.67.88.44,1.58,1.7,2.68,2.36,4.13,1.61,1.89,2.46,4.21,3.62,6.36.87,1.61,1.56,3.31,2.35,5a6.51,6.51,0,0,0,1.12,1.88,9,9,0,0,1,1.71,2.82,11.79,11.79,0,0,0,1,1.52,2.67,2.67,0,0,1,.51,1,5.28,5.28,0,0,0,.61,2.47c.41.6.14,1.44.63,2.09s.28,1.66.79,2.43c.3.46.08,1.25.32,1.78a7.25,7.25,0,0,1,.72,3.57,1.33,1.33,0,0,0,.16.7c.68,1.31,1.5,2.56,1.36,4.13a20.23,20.23,0,0,0,1,2,3.33,3.33,0,0,1,.45,1.76,2.2,2.2,0,0,0,.19,1.07,3.86,3.86,0,0,1,.55,2.11,3.76,3.76,0,0,0,.47,2.14,2,2,0,0,1,.21,1c0,1.74,0,3.48.08,5.22a5.6,5.6,0,0,0,.82,3.53,4.12,4.12,0,0,1,.63,2.08c0,1,0,2,0,3a2,2,0,0,0,.24,1,3.64,3.64,0,0,1,.52,2.12c0,.37-.13.83,0,1.1,1.12,1.85.48,3.87.63,5.81a2.28,2.28,0,0,1,0,.74,3.55,3.55,0,0,1-.4,1,1,1,0,0,0-.07,1.05,3.33,3.33,0,0,1,.54,1.74c0,1.24,0,2.48.06,3.72a2.31,2.31,0,0,0,.09,1.09c1,1.61.59,3.38.61,5.08.06,4.59,0,9.18,0,13.77a4.49,4.49,0,0,0,.52,2.12,1.7,1.7,0,0,1,0,1.41,4.45,4.45,0,0,0-.55,2.49c0,2.48,0,5,0,7.44,0,.25,0,.5,0,.74.06.86.78,1.51.66,2.46a24.51,24.51,0,0,0,0,3c0,.87,0,1.74,0,2.61s0,1.74,0,2.6a2.2,2.2,0,0,1-.15,1.08,4.6,4.6,0,0,0-.52,2.86c0,1.74,0,3.47,0,5.21,0,.49.11,1.11-.13,1.46-.86,1.24-.59,2.61-.66,3.95a2.56,2.56,0,0,1-.31,1,2.79,2.79,0,0,0-.33,1.41c0,1.49,0,3-.08,4.47a2.11,2.11,0,0,1-.11,1.08c-1,1.48-.56,3.13-.62,4.7a5.3,5.3,0,0,1-.57,2.1c-.45,1-1.14,1.94-.9,3.14a.44.44,0,0,1,0,.36c-.83.91-.57,2.1-.88,3.15-.16.57-.6,1.05-.58,1.72a4.26,4.26,0,0,1-.56,2.86c-.19.25-.13.71-.15,1.07,0,.87,0,1.74,0,2.61a3.68,3.68,0,0,1-.5,2.12c-.43.67-.17,1.45-.21,2.19s-.06,1.73-.07,2.6,0,1.49,0,2.23-.7,1.26-.77,2.05-.47,1.38-.6,2.09a8.77,8.77,0,0,0-.06,1.85,4.68,4.68,0,0,1-.61,2.09,11.76,11.76,0,0,0-.81,1.63,4.43,4.43,0,0,1-.51,1.75,1.15,1.15,0,0,0-.27.68,9.67,9.67,0,0,1-.75,3.94c.27,1.31-.91,2.28-.84,3.55-.83.85-.5,2.14-1.15,3.06a.8.8,0,0,0-.17.33,74.44,74.44,0,0,1-1.83,6.63c-.51.78-.24,1.73-.79,2.42a3.61,3.61,0,0,0-.5,2.12,9,9,0,0,1-1,2.35,3,3,0,0,0-.44,1.38,4,4,0,0,1-.62,2.09,5.84,5.84,0,0,0-.88,3.5,2.85,2.85,0,0,1-.41,1.39,7.84,7.84,0,0,0-1,2,7.84,7.84,0,0,1-.64,2.1,3.24,3.24,0,0,0-.22,1.44,4.25,4.25,0,0,1-.48,2.14,3.31,3.31,0,0,0-.24,1.43,3,3,0,0,1-.46,1.38,2.1,2.1,0,0,0-.31,1,7.08,7.08,0,0,1-.62,2.47,8.45,8.45,0,0,0-.16,2.21,2.21,2.21,0,0,1-.24.68c-1.08,2.48-1.13,2.48-1.22,4.92a3.74,3.74,0,0,1-.42,1.39,5.63,5.63,0,0,0-.32,1.42c-.19,1.33-1,2.52-.86,3.92,0,.2-.25.42-.35.65a7.41,7.41,0,0,0-1,3.85,3.45,3.45,0,0,1-.32,2.52c-.5.65-.28,1.45-.65,2.1a2.68,2.68,0,0,0-.52,1.36,12.39,12.39,0,0,1,0,1.49,2.71,2.71,0,0,1-.3,1,4,4,0,0,0-.45,1.39,4.34,4.34,0,0,1-.4,1c-.19.45-.38.9-.58,1.34s-.44.68-.41,1c.12,1.32-.63,2.35-1.12,3.45a8.54,8.54,0,0,0-.49,1.76c-.12.58-.66,1-.68,1.68a1.88,1.88,0,0,1-.32,1c-.62.81-.42,1.9-1,2.74a3.93,3.93,0,0,0-.81,2c-.06.94-.68,1.57-1,2.38s-.51,1.34-.7,2.06a10.28,10.28,0,0,1-1.16,2.29c-.42.74-.11,1.76-.93,2.34-.62.45-.67,1.29-1.18,1.81-.08.08-.23.08-.35.11-.57-.12-.75-.47-.77-1s.51-1.11.67-1.67.13-1.44.66-2.06,0-1.2.42-1.76a11.52,11.52,0,0,0,1-1.93,2.54,2.54,0,0,0,.21-1.06c0-.56.46-.86.64-1.31s0-1.24.44-1.75a1.77,1.77,0,0,0,.42-1.37c-.05-.69.77-1.05.69-1.66-.12-1,.77-1.55.77-2.41,0-1.05.75-1.77,1.06-2.69.11-.33.46-.57.44-1-.07-1.13,1.06-2,.82-3.14a3.26,3.26,0,0,0,.71-2.41,2.62,2.62,0,0,1,.34-1,3.12,3.12,0,0,0-.06-3.14,2.88,2.88,0,0,1,0-2.8,2.33,2.33,0,0,0,.38-1c0-3.85,0-7.69,0-11.54a2.14,2.14,0,0,0-.44-1,1.06,1.06,0,0,1,.06-1.34,1.76,1.76,0,0,0,.41-1c0-1.86,0-3.72,0-5.58a2.16,2.16,0,0,0-.22-.68c-.69-1.93-.68-2.46,0-4.19a1.67,1.67,0,0,0,0-1.74,2.89,2.89,0,0,1-.33-2.81,5.67,5.67,0,0,0,.59-2.08q0-19.54,0-39.08a3.43,3.43,0,0,0-.61-2.07.94.94,0,0,1,.16-1,2,2,0,0,0,.42-1c0-2.6,0-5.21,0-7.81a1.86,1.86,0,0,0-.41-1,1.79,1.79,0,0,1,0-2.07,2.29,2.29,0,0,0,.44-1.37c0-1.74,0-3.47,0-5.21a3,3,0,0,0-.6-2.07.75.75,0,0,1,0-.69c.79-.83.63-1.83.64-2.81s0-2,0-3a3.53,3.53,0,0,1-.57-1,7.64,7.64,0,0,1-.09-1.44,3.36,3.36,0,0,0,.67-2.42q0-7.06,0-14.14a3.73,3.73,0,0,0-.56-2.1c-.22-.36-.09-.94-.12-1.42.81-.79.67-1.81.67-2.79,0-3.85,0-7.69,0-11.54a3.61,3.61,0,0,0-.55-2.09,1.51,1.51,0,0,1,.07-1.74,2,2,0,0,0-.07-2.7.8.8,0,0,1,0-1,1.89,1.89,0,0,0,.5-1.35c0-.13,0-.25,0-.38,0-1.21.21-2.46-.67-3.54a1.13,1.13,0,0,1,0-1.07c.85-1,.66-2.09.66-3.18,0-2.86,0-5.71,0-8.56a4,4,0,0,0-.51-1.73,2.76,2.76,0,0,1,.19-2.81,1.71,1.71,0,0,0,0-2.06,1.83,1.83,0,0,1,0-2.38.94.94,0,0,0,0-1.32,1.15,1.15,0,0,1,0-1.65,1,1,0,0,0,0-1.33,1.92,1.92,0,0,1-.07-2.38,2.69,2.69,0,0,0,.05-2.79,2,2,0,0,1-.05-2.4,1.61,1.61,0,0,0,.36-1c0-4.7,0-9.41,0-14.11-.38-.42-.7-.79-1-1.15-.69-.71-1.44-1.37-2.09-2.12a14.67,14.67,0,0,1-1.52-2.88,3.64,3.64,0,0,0-.48-.56,1.85,1.85,0,0,0-1.71-.43c-1.07.58-2.16,1.12-3.25,1.65a3.31,3.31,0,0,0-1,1.05c-.2.29-.23.7-.44,1-.57.79-.32,1.65-.28,2.5.87.92.66,2.07.66,3.16q0,12.86,0,25.69a3,3,0,0,1-.57,1.71.85.85,0,0,0,.07,1,2,2,0,0,1,.5,1.35c0,1.36,0,2.73,0,4.09V475.83c0,.37,0,.74,0,1.11a.82.82,0,0,0,.45.9A2.19,2.19,0,0,0,602.66,477.92Z"/><path class="cls-2" d="M504.71,620.22a20.16,20.16,0,0,0,3.53,4.66c.78.67.91,1.73,1.68,2.4a5,5,0,0,1,1.55,2,5.92,5.92,0,0,0,1.15,1.44c.62.75,1.53,1.25,1.84,2.28.09.34.5.46.84.63a4.53,4.53,0,0,1,1.86,1.77c.31.52.44,1.16,1.2,1.21a10.16,10.16,0,0,1,3.26,2.37,7.31,7.31,0,0,0,.8.77,23.83,23.83,0,0,0,2.4,2.32,15.67,15.67,0,0,0,2.9,1.52,17.41,17.41,0,0,0,3,1.24,14.35,14.35,0,0,1,3.31,1.53c.53.29,1.08.54,1.62.82a4.8,4.8,0,0,0,1.72.58,1.67,1.67,0,0,1,.94.52c.86.91,2.18,1.15,3,2.11.2.23.67.21,1,.33a2.51,2.51,0,0,1,1,.39,6.73,6.73,0,0,0,2.13,1.4,7.45,7.45,0,0,1,1.88,1.09c.58.5,1.36.66,1.85,1.17.95,1,2.44,1.21,3.27,2.36l3.6,1.76a6.26,6.26,0,0,0,1.29.7c1,.2.89,1,1.16,1.69a5.79,5.79,0,0,1-.21.71,22.26,22.26,0,0,1-1.82,2.79,17.29,17.29,0,0,1-1.94,2.69,30.83,30.83,0,0,0-2.27,3.32,28,28,0,0,1-2.94,4.23,5.57,5.57,0,0,0-1,1.55c-1,2-2.21,3.87-3.34,5.78a18.45,18.45,0,0,0,1.82,2.78c2,2.36,4,4.66,5.93,7.12a34.34,34.34,0,0,0,3.52,3.82,31.33,31.33,0,0,1,4,4.86,8.81,8.81,0,0,0,1.35,1.74c1.11,1,2.3,1.84,2.82,3.32.1.3.61.43.81.72,1.28,1.82,2.81,3.44,4.19,5.17s2.9,3.37,4.36,5.05c2,2.34,3.75,4.91,6,7.07,1,1,1.68,2.41,2.77,3.45a37.44,37.44,0,0,1,2.62,3.11,28,28,0,0,0,2.19,2.53,37.74,37.74,0,0,1,4.28,5.08,56.91,56.91,0,0,0,3.85,4.51,20.84,20.84,0,0,1,2.39,2.82,13.87,13.87,0,0,0,2,2.24,6.19,6.19,0,0,1,1.84,2.28,3.31,3.31,0,0,0,.68.88,3.71,3.71,0,0,0,.51.54c1.36,1.11,2,2.8,3.25,4a12.58,12.58,0,0,1,3.06,3.69,3.52,3.52,0,0,0,1,1.12c1.76,1.58,2.89,3.71,4.64,5.29,1.33,2.27,3.29,4,5.08,5.88a10.76,10.76,0,0,1,1.29,1.8,24.75,24.75,0,0,0,3.69,4.6,34.87,34.87,0,0,1,4.38,5c.86,1.2,2,2.14,2.84,3.42a22.7,22.7,0,0,0,2.66,3.07,8.4,8.4,0,0,1,2,2.62.71.71,0,0,0,.21.3c1.58,1.24,2.51,3,3.85,4.48a71.54,71.54,0,0,1,5.09,5.9,9.72,9.72,0,0,0,.7.86,21,21,0,0,1,2.29,2.44,12.51,12.51,0,0,0,1.82,2.32,26.81,26.81,0,0,1,2.06,2.61c.74.84,1.5,1.65,2.24,2.48a12.61,12.61,0,0,1,2.55,3.17,3.73,3.73,0,0,0,.7.85,24.08,24.08,0,0,1,2.7,3c.72,1.16,2,1.89,2.46,3.23.16.43.62.75,1,1.12a43,43,0,0,1,3.59,4.24,30.28,30.28,0,0,0,3.27,3.54,15,15,0,0,1,2.83,3.42c1.68,1.65,2.81,3.77,4.53,5.38a5.36,5.36,0,0,1,.77.81,42.41,42.41,0,0,0,4.46,5.45c.45,1.22,1.51,2,2.34,2.85a42.35,42.35,0,0,1,4.87,6,2.82,2.82,0,0,0,.45.58c2.13,1.91,3.59,4.4,5.61,6.42a17.61,17.61,0,0,1,3.75,4.56,4.06,4.06,0,0,0,.75.81,9.34,9.34,0,0,1,2.09,2.58,2.34,2.34,0,0,0,.71.86c1.82,1.52,3,3.59,4.55,5.35a21,21,0,0,1,2.34,3.33,27.66,27.66,0,0,0,3.13,4.58,1.88,1.88,0,0,1,.1,2.09c-.14.2-.3.39-.45.59a24.62,24.62,0,0,1-2.53,3.19c-1.35,1.26-2.91,2.29-4.37,3.42-.39.3-.92.55-1.11,1-.95,2-3.15,2.69-4.48,4.31a12.83,12.83,0,0,1-2.52,2.17c-.83.61-1.12,1.61-1.89,2.25a22.86,22.86,0,0,1-2.52,2.19,20.78,20.78,0,0,0-1.75,1.38,2.22,2.22,0,0,0-.69,1.65,1.55,1.55,0,0,0-1.37.35l-2.37,2.34c-1.47.5-2.36,1.72-3.41,2.73a1.55,1.55,0,0,1-.57.46c-1.53.44-2.32,1.77-3.35,2.79a17.75,17.75,0,0,0-1,1.48,1.19,1.19,0,0,1-.64.26c-.36.08-.74,0-1.05.29s-.56.48-.83.74c-.89.86-1.76,1.73-2.65,2.58s-1.61,1.53-2.42,2.29c-1.32.3-1.87,1.54-2.84,2.27a7.46,7.46,0,0,1-1.23.77,7.49,7.49,0,0,0-2.74,1.77c-.71.92-1.9,1.1-2.68,1.89s-1.46,1.34-2.1,2.09-1.95,1-2.66,1.91a5.07,5.07,0,0,1-2.39,1.65,5.58,5.58,0,0,1-2.42,1.61,5.64,5.64,0,0,0-2.08,1.44c-.65.83-1.64,1.05-2.46,1.57-.66.43-1.46.16-2.15.41a5.22,5.22,0,0,1-1.34-1.75,6.24,6.24,0,0,0-2.67-2.49,2.48,2.48,0,0,1-1.32-1.25,7.13,7.13,0,0,0-1.75-2.35c-.71-.67-.93-1.77-1.95-2.17-.88-1.81-2.56-3-3.68-4.61a47.19,47.19,0,0,0-3.17-3.64c-.47-.56-.65-1.41-1.36-1.71-.9-.39-1.09-1.28-1.63-1.92a11.85,11.85,0,0,1-1.72-1.92,15,15,0,0,0-2.09-2.58,10.86,10.86,0,0,1-1.85-2.3,3.66,3.66,0,0,0-.91-1.16,42.48,42.48,0,0,1-4.37-5,7.68,7.68,0,0,1-.93-1.15,20.23,20.23,0,0,0-4-4.82c-.94-1-2-1.82-2.49-3.17-1.31-1.32-2.63-2.64-3.93-4-.77-.79-1.72-1.42-2-2.58a1.31,1.31,0,0,0-.44-.59c-2-1.72-3.3-4-5.13-5.86a2.59,2.59,0,0,1-.84-1.61,1.93,1.93,0,0,0-1-1.51,6.48,6.48,0,0,1-2.57-2.57,10.33,10.33,0,0,0-1.67-2,9.68,9.68,0,0,1-2.08-2.59,1.38,1.38,0,0,0-.45-.59c-1.45-1-2.19-2.64-3.18-4a17.2,17.2,0,0,0-1.6-2,62.23,62.23,0,0,1-4.27-4.64c-.84-1.07-1.8-2-2.58-3.13s-2-1.49-2.4-2.78-1.82-1.68-2.23-2.92a1.52,1.52,0,0,0-.46-.56,6.33,6.33,0,0,1-1.43-1.15c-1-1.45-2.14-2.71-3.18-4.08a51.42,51.42,0,0,0-6.7-7.88,2.38,2.38,0,0,1-.7-.86,5.54,5.54,0,0,0-2.22-2.42,2.86,2.86,0,0,1-.9-1.11,19.15,19.15,0,0,0-2.09-3,66.82,66.82,0,0,0-5.67-6.34,4.16,4.16,0,0,1-.73-.84c-1.4-2.38-3.53-4.13-5.32-6.18a4.67,4.67,0,0,1-.94-1.12c-1-2.54-3.19-4.05-4.93-6-.5-.55-1.14-1-1.23-1.79-1-1.11-1.89-2.29-3-3.33a12.55,12.55,0,0,1-2.43-2.76,7.23,7.23,0,0,1-2-2.62,4,4,0,0,0-.62-.91,40.67,40.67,0,0,1-3.8-4.07,16.5,16.5,0,0,0-1.37-1.26c-.26-.25-.62-.49-.74-.81-.86-2.28-2.76-3.75-4.18-5.59-1.76-1.26-2.69-3.21-4-4.81a5.36,5.36,0,0,0-2.41-2.71,3.51,3.51,0,0,1-1.44-1.62,10.33,10.33,0,0,0-1.42-2.14c-.83-1.06-2.07-1.8-2.52-3.16-1.05-.7-1.56-1.88-2.46-2.72s-1.92-1.93-2.85-2.93c-.57-.63-1.27-1.19-1.25-2.19,0-.39-.31-.64-.64-.84a7.72,7.72,0,0,1-2.76-2.94,2.9,2.9,0,0,0-.44-.6,21.27,21.27,0,0,1-1.57-1.58c-.45-.57-.76-1.25-1.15-1.86a.54.54,0,0,0-.89-.1c-.7.68-.95,1.75-1.89,2.22a16.55,16.55,0,0,1-1.26,2.26c-1.1,1.48-2,3.1-3.06,4.61a39,39,0,0,0-3.14,5,4.52,4.52,0,0,1-.57.95c-2.19,2.38-3.67,5.25-5.44,7.92-.82,1.23-1.6,2.49-2.38,3.74-.53.84-1,1.68-1.54,2.53-.19.31-.24.75-.5,1-1.46,1.21-2,3.1-3.37,4.4a7.65,7.65,0,0,0-1,1.53,36.93,36.93,0,0,1-3.51,5.19,14.38,14.38,0,0,0-1.47,2.13c-.58.94-1,2-1.67,2.87a31.44,31.44,0,0,0-1.79,2.79,4.91,4.91,0,0,1-.78,1.24c-1.23,1.1-1.79,2.66-2.79,3.92-.95,2.32-2.69,4.11-4.12,6.11-.42.6-.92,1.16-1.29,1.8-.62,1.06-1.21,2.14-1.75,3.25s-1.59,1.87-2.17,3a36.65,36.65,0,0,1-2,3.12,8.12,8.12,0,0,1-1,1.52,9.14,9.14,0,0,0-1.64,2.45,23.25,23.25,0,0,1-2.85,4.3,25.18,25.18,0,0,0-2,3.06c-1.11,1.77-2.27,3.52-3.47,5.23-1.48,2.12-2.64,4.47-4.44,6.37a.89.89,0,0,0-.22.3c-.59,1.94-2.06,3.35-3.09,5a47,47,0,0,1-3.11,4.56,19.55,19.55,0,0,0-1.34,2.2,32.43,32.43,0,0,1-2.6,3.59,31.5,31.5,0,0,0-2,3.52c-.44.73-1.06,1.36-1.56,2.06s-.78,1.25-1.21,1.85c-1.75,2.38-3.23,4.95-5,7.34-.86,1.19-1.53,2.53-2.27,3.8a24.46,24.46,0,0,1-3.39,4.84c-.88,1.77-2.2,3.26-3.13,5a17.78,17.78,0,0,1-1.82,2.76,58,58,0,0,0-5.59,8.27,13.15,13.15,0,0,1-1.75,2.81,18,18,0,0,0-1.63,2.45,6,6,0,0,1-.53,1,16.7,16.7,0,0,0-3.05,4.17c-.73,1.42-1.94,2.56-2.55,4-.53,1.29-1.62,2.16-2.25,3.38a8.35,8.35,0,0,1-2.12,3,2.09,2.09,0,0,0-.24.28c-.86,1.06-1.13,2.48-2.1,3.47a11.56,11.56,0,0,0-2.22,3.39,6.18,6.18,0,0,1-.77,1.25c-2,2.53-3.75,5.21-5.63,7.81-.73,1-1.29,2.11-1.94,3.15a8.38,8.38,0,0,1-1.2,1.4c-.15.15-.53.32-.61.25-.62-.51-1.45-.31-2.1-.68a30.35,30.35,0,0,0-3.78-1.45,6.07,6.07,0,0,0-3.25-.38,1.07,1.07,0,0,0-1-.93.72.72,0,0,1-.58-.8,1.25,1.25,0,0,0-.49-1.28,7.67,7.67,0,0,1-1.23-.76,2.89,2.89,0,0,0-2-.85,1.55,1.55,0,0,1-.93-.51,8,8,0,0,0-1.82-1.18c-.83-.49-1.88-.66-2.45-1.56a25,25,0,0,0-3.9-1.89c-.45-.15-1-.07-1.34-.48-.7-.92-1.93-1-2.71-1.84s-2.13-1.12-3.15-1.76a9.59,9.59,0,0,1-2.17-1.35,1.58,1.58,0,0,0-.94-.5,2.39,2.39,0,0,1-1.65-.66,10.81,10.81,0,0,0-3.94-2.57,6.38,6.38,0,0,1-2.43-1.58,2.71,2.71,0,0,0-2.52-1.25c-.76-.62-1.87-.66-2.48-1.5a9.14,9.14,0,0,0-3-2.09c-.4-.24-.95-.28-1.25-.68a3,3,0,0,0-2.65-1,5.09,5.09,0,0,0-2.46-2.17,8.77,8.77,0,0,1-3.56-2.56,5.45,5.45,0,0,0-1.45-1.12c-.51-.36-1-.67-1.54-1a31,31,0,0,0-5.57-3.6,13.64,13.64,0,0,1-2.4-1.71c-.87-.64-2.1-.88-2.57-2-.78-.59-1.62-1.11-2.34-1.77a17.25,17.25,0,0,0-2.07-1.56,19.43,19.43,0,0,1-2.08-1.52,13.75,13.75,0,0,1-1.36-1.74.84.84,0,0,1-.14-1,20.92,20.92,0,0,0,2.28-3.8,3.35,3.35,0,0,0,.54-1.36,2.83,2.83,0,0,1,1.58-2.72,1.54,1.54,0,0,0,.69-.83,10,10,0,0,1,1.82-2.78c.39-1.52,1.77-2.35,2.5-3.63s1.59-2.77,2.45-4.11,1.71-2.43,2.55-3.65c.21-.3.33-.66.53-1a12,12,0,0,1,1.58-2.47c.61-.56.82-1.54,1.39-2.14,1-1.1,1.59-2.51,2.59-3.61.78-1.84,2.32-3.17,3.21-5s2.34-3.15,3.19-4.94c.9-.86,1.4-2,2.28-2.92a9.55,9.55,0,0,0,1.64-2.45c.45-.89,1-1.68,1.5-2.54a8.23,8.23,0,0,1,1.76-2.33,4.65,4.65,0,0,0,.76-1.26l2.78-5.23a3.9,3.9,0,0,1,.72-1.27,12,12,0,0,0,2.42-3.25,9.77,9.77,0,0,0,1.32-2.23c.29-.92,1.28-1.17,1.59-2a5,5,0,0,1,1.91-2.22,3.29,3.29,0,0,0,1.26-1.78,8.94,8.94,0,0,1,2.61-4.38,8.52,8.52,0,0,0,1.44-2.15,5.78,5.78,0,0,1,1.45-2.11,3,3,0,0,0,.7-.86c.47-.84.46-2,1.53-2.41l1.85-2.31a3.86,3.86,0,0,0,.64-.91c.73-2,2.24-3.52,3.3-5.31s2.15-3.58,3.31-5.33c.88-1.32,1.43-2.89,2.78-3.86.36-1.37,1.71-2.09,2.15-3.42a6.84,6.84,0,0,1,.81-1.65c.61-.91,1.29-1.78,1.94-2.67s1.29-1.8,1.94-2.69a24.52,24.52,0,0,0,2.14-3A33.17,33.17,0,0,1,361,784.1a8.22,8.22,0,0,0,.73-1.29,9.93,9.93,0,0,1,2.14-3.42,2.52,2.52,0,0,0,.73-1.27,3.75,3.75,0,0,1,1.29-2.18,6.79,6.79,0,0,0,1.51-1.62c1.06-2,2.69-3.54,3.75-5.5a9,9,0,0,1,1.13-2.29c.84-.89,1.16-2.14,2.1-3a13,13,0,0,0,1.9-2.73,9,9,0,0,0,.58-1.35c.66-.16.84-.88,1.38-1.17s1.29-.7,1.95-1,1.35-.54,2-.86,1.18-1.19,2.08-1.49a5.44,5.44,0,0,0,1.69-1.41c.9-.89,2.18-1.08,3.19-1.75s1.47-1.58,2.57-2c1.91-.8,3.45-2.29,5.38-3.1a5.86,5.86,0,0,0,1.39-1.22L401,743.1c1.21-.21,1.64-1.52,2.63-1.94,1.44-.61,2.32-1.79,3.39-2.79.82-.76,1.58-1.58,2.42-2.31.64-.55,1.53-.74,2.13-1.42a5.33,5.33,0,0,1,2-1.51,5.53,5.53,0,0,0,1.63-1.48c.52-.56,1.42-.48,1.84-1.16.32-.51.61-1,.94-1.56.13-.2.36-.34.51-.54.47-.6,1.26-.79,1.75-1.29s.71-1.26,1.29-1.75c.19-.16.33-.42.55-.5,1.83-.67,2.9-2.25,4.2-3.54q6.22-6.13,12.37-12.34a7.31,7.31,0,0,0,2.07-2.57c.12-.34.5-.46.85-.62a4.86,4.86,0,0,0,1.87-1.76c1.59-2.27,1.59-2.27,3.55-3.57a2.07,2.07,0,0,0,.79-.76c.59-1.43,1.82-2.3,2.82-3.37a8.28,8.28,0,0,0,2.22-2.9c1-1.08,2.06-2.15,3.1-3.22.6-.62,1.27-1.19,1.82-1.85a24.79,24.79,0,0,1,1.46-2.08c.65-.64.71-1.57,1.36-2.18a14.64,14.64,0,0,0,1.56-1.59,27.31,27.31,0,0,1,1.67-2.38,10.5,10.5,0,0,0,2.19-3.35,10.8,10.8,0,0,1,2.45-3.62c.78-.75,1.83-1.33,2.06-2.54a30.43,30.43,0,0,0,2.12-2.57,2.55,2.55,0,0,1,1-1,5.11,5.11,0,0,0,2-2.08c-.15-1.16.65-1.8,1.35-2.49.27-.26.64-.53.71-.85.23-1,1.12-1.61,1.6-2.46a.81.81,0,0,0,.07-.35,2.21,2.21,0,0,1,.69-1.65c.59-.61,1.37-1.09,1.59-2s1.05-1.09,1.28-1.77.8-1.49,1.12-2.29c.39-1,1-2,1.41-3,.62-1.46,1.81-2.59,2.45-4a40,40,0,0,1,2-3.93,14.68,14.68,0,0,1,1.65-2,1.87,1.87,0,0,0,.52-1.33,2.65,2.65,0,0,1,.62-2.07c1.26-2.9,2.82-5.64,4.16-8.5,0-.08.21-.1.33-.15a2,2,0,0,0,.67-.21,6.49,6.49,0,0,0,1.94-2.56,5.82,5.82,0,0,1,2.57-3.16Z"/><path d="M206.93,877.09a145.66,145.66,0,0,0-7.38,12.82,23.57,23.57,0,0,0-2,4c-1,1-1.15,2.44-1.65,3.69-.68,1.71-1,3.54-2.21,5.05a4,4,0,0,0-.34,1,9.45,9.45,0,0,1-.79,2.06c-1.45,2.19-2.09,4.74-3.23,7.06-.21.44-.25,1-.45,1.41a28.52,28.52,0,0,0-1.32,4.61c-.67,2.61-1.34,5.23-2.09,7.82-.51,1.76-1.25,3.51-1.13,5.41-.62,1.28-.44,2.67-.57,4a13.31,13.31,0,0,1-.44,2.92c-.54,1.63-.32,3.44-1,5.06,0,1.36-.12,2.72-.13,4.09a31.91,31.91,0,0,1-.44,5.51,23.3,23.3,0,0,0,0,6.67,5.28,5.28,0,0,1,.26,2.55,77,77,0,0,0,.29,8.18,9.77,9.77,0,0,0,.41,2.56,7.26,7.26,0,0,1,.22,1.82c.15,1.72,0,3.47.63,5.14a5.92,5.92,0,0,1,.12,1.48c.17,1.34-.13,2.7.39,4s.23,2.7.91,4a2.17,2.17,0,0,1,.18,1.08,12.89,12.89,0,0,0,1.11,5c.47,1.29.43,2.67,1.08,3.92a41,41,0,0,1,1.59,4.13c.48,1.27,1,2.52,1.45,3.8a34.14,34.14,0,0,1,1.64,5.67,18.52,18.52,0,0,0,2.18,6.62,43.42,43.42,0,0,1,2,4,.72.72,0,0,1-.7,1l-8.19,0h-5a5.12,5.12,0,0,1-2-2q-3.65-5.37-7.18-10.82c-.86-1.34-1.57-2.79-2.32-4.2a16.52,16.52,0,0,0-2.47-4.11c-.24-.25-.31-.67-.51-1a30.74,30.74,0,0,0-1.79-3.21,30.16,30.16,0,0,1-1.61-2.91c-2.08-3.35-3.81-6.89-5.76-10.31-.73-1.29-1.85-2.34-2.29-3.8s-1.39-2.59-1.79-4.05c-.29-1-1.19-1.84-1.66-2.87-.65-1.46-1.52-2.81-2.17-4.29-.12-.28-.54-.45-.87-.71-.34.71-.61,1.38-1,2a7.76,7.76,0,0,1-1.13,1.47c-.56.57-.46,1.41-.93,2s-.78,1-1.15,1.45c-1.31,1.8-2,3.92-3.38,5.72a24.9,24.9,0,0,0-3.25,5.82,3,3,0,0,1-.64.88,3.23,3.23,0,0,0-.91,1.59c-.2,1-1.05,1.7-1.32,2.63a12.16,12.16,0,0,1-1,2.37c-.47.87-1,1.7-1.47,2.57a8.43,8.43,0,0,1-2.66,3.48c-.64.42-.87,1.19-1.32,1.77-1.28,1.67-2.34,3.48-3.48,5.23s-2.45,3.1-3.42,4.84c-.3.54-.68,1-1,1.56-1.49,2.71-3.11,5.33-4.76,7.93-1,1.57-2.07,3.07-3.15,4.58a1.46,1.46,0,0,1-1.26.65l-4.08,0a16.28,16.28,0,0,0-1.85,0,2.83,2.83,0,0,1-2.65-1,4.16,4.16,0,0,0-1.76-1.29,3.6,3.6,0,0,1-1.16-.91,2.74,2.74,0,0,1-.86-1.61,8,8,0,0,1,.26-3.67,17.34,17.34,0,0,1,.72-2.1,23.71,23.71,0,0,0,2-5.53c1.3-2.38,2-5,3.34-7.4s2.34-5.17,3.77-7.62c.35-1.45,1.2-2.71,1.62-4.11.65-2.14,1.87-4,2.61-6.11a27,27,0,0,1,2.67-5.65,6.62,6.62,0,0,0,.7-1.72,11.89,11.89,0,0,1,.67-1.71c1.8-3.78,3.56-7.58,5.33-11.38.52-1.11,1.1-2.19,1.73-3.26a59,59,0,0,0,3.61-6.86.62.62,0,0,0-.52-.78,10,10,0,0,1-2.89-.59,5.91,5.91,0,0,0-2.19-.22,5.86,5.86,0,0,1-3.19-.81,4.38,4.38,0,0,0-2.82-.67,2.94,2.94,0,0,1-2.1-.54,6.06,6.06,0,0,0-2.37-1c-1.34-.27-2.45-1.19-3.8-1.42a15.14,15.14,0,0,1-3.47-1.25,3.91,3.91,0,0,0-1.42-.32,4.52,4.52,0,0,1-2.46-.71c-1.48-.21-2.53-1.58-4.14-1.5-.3,0-.61-.38-.92-.58A21.85,21.85,0,0,0,94.14,946a6.28,6.28,0,0,0-2.87-.6,6,6,0,0,1-1.42-.33c-1-.18-1.81-.79-2.75-1a9.78,9.78,0,0,1-2.45-.8c-1-.55-2.18-.47-3.19-1a9.84,9.84,0,0,0-2.89-.58c-1.08-.17-2.08-.69-3.18-.86a10.05,10.05,0,0,0-1.78-.44c-1.9.11-3.59-.79-5.43-1a6.52,6.52,0,0,0-2.88-.61c-1.1-.1-2.25.15-3.27-.48a6.65,6.65,0,0,1-2.87-.65,3.84,3.84,0,0,0-1.45-.22c-1-.05-2-.06-3-.1a3.86,3.86,0,0,1-1.46-.17c-1.36-.72-3-.31-4.32-1-.33-.17-.68.09-.77.51a21,21,0,0,0-.69,3.62,9.6,9.6,0,0,1-.39,2.18,14.16,14.16,0,0,0-.43,3.3,6.35,6.35,0,0,1-.47,3.27c-.22.38-.09,1-.12,1.46a11.93,11.93,0,0,1-.56,3.65,5.5,5.5,0,0,0-.22,1.47,19.27,19.27,0,0,1-.36,3.67,33,33,0,0,0-.59,3.65c-.3,1.7-.45,3.43-.82,5.1-.32,1.47-.43,2.94-.61,4.4a13.7,13.7,0,0,1-.47,3.65,5.14,5.14,0,0,0-.17,1.85,13.3,13.3,0,0,1-.49,4.39,3.65,3.65,0,0,0,0,1.1,27,27,0,0,1-.66,7c-.06.23,0,.49-.08.73-.08.46.42.8.11,1.37a5,5,0,0,0-.31,1.8c-.05.49-.05,1-.07,1.49s-.09,1.23-.12,1.85,0,1,0,1.49a4.76,4.76,0,0,1-.37,2.52,1.7,1.7,0,0,0-.11.72c-.08,2.48-.13,5-.25,7.43,0,.73-.28,1.45-.36,2.18s-.07,1.48-.1,2.22c0,1-.12,2-.11,3a17.88,17.88,0,0,1-.55,5.5,9.26,9.26,0,0,0-.17,1.84.91.91,0,0,1-.77.67c-1.36,0-2.73,0-4.09,0H26.66c-4.24,0-3.16.44-4.27-3.48S20.1,1014,19.15,1010c-.65-1.09-.53-2.41-1-3.55a1.54,1.54,0,0,1,0-1.08,9.83,9.83,0,0,0,0-4.76c-.05-.24-.23-.54-.14-.7.83-1.59-.36-3.14-.05-4.73a2.26,2.26,0,0,0-.76-2,6.41,6.41,0,0,1-1.69-2.83,8.1,8.1,0,0,0-.9-1.62,16.15,16.15,0,0,1-2.14-5.87,15.61,15.61,0,0,0-.4-1.8c-.66-2.63-1.63-5.19-1.86-7.93a30.67,30.67,0,0,1-1.15-4.65c-.39-1.42-.3-3-.85-4.35a14.26,14.26,0,0,0-.67-4,27.61,27.61,0,0,0-.75-4,8.56,8.56,0,0,1-.16-1.85A12.41,12.41,0,0,0,6.13,951,5.73,5.73,0,0,1,6,949.51a39,39,0,0,0-.54-4.41,8.59,8.59,0,0,1,.07-3.67,15.8,15.8,0,0,0,.26-1.83c.08-1.11.06-2.23.19-3.33a24.88,24.88,0,0,1,1-2.78,3.92,3.92,0,0,0,0-2.51c-.43-1.14.35-2.15.59-3.22A2.42,2.42,0,0,1,8.75,926a1.27,1.27,0,0,0,.76-1.18,17.84,17.84,0,0,1,.71-4.74c.45-1.52.14-3.17.77-4.73.55-1.36.69-2.88,1.13-4.29a7.05,7.05,0,0,0,.35-2.18c0-.74,0-1.48,0-2.23s0-1.49,0-2.23-.57-1.29-.14-2.11c.34-.66-.36-1.38-.34-2.14a7.42,7.42,0,0,0-.23-2.21c-.84-3-1-6.08-1.92-9a47.08,47.08,0,0,0-.89-4.71c-.21-1.47-.52-2.92-.86-4.37-.64-2.75-1.05-5.56-1.79-8.3a6.43,6.43,0,0,1-.2-1.08c-.14-1.6-.69-3.14-.86-4.73s-.92-3.09-.94-4.71c-.68-1.36-.51-2.9-1-4.33-.6-1.88-1.07-3.79-1.61-5.69a54.86,54.86,0,0,0-1.62-5.3,1.17,1.17,0,0,1,.44-1.3,22.69,22.69,0,0,1,4.35-2A8.65,8.65,0,0,1,7,842.12c1.83-.16,3.2.32,3.37,2.45A65.55,65.55,0,0,1,13.25,851c.65,1.47,1.44,2.87,2.18,4.29a2.17,2.17,0,0,0,.66.87A6.7,6.7,0,0,1,18.43,859a21.46,21.46,0,0,0,3.9,5.37c.53.51.93,1.15,1.42,1.7a9.54,9.54,0,0,0,1.31,1.31,14.4,14.4,0,0,1,3.56,3.74,12.14,12.14,0,0,0,3.71,3.6c.82.54,1.62,1.12,2.46,1.65,1.17.74,2.58.78,3.84,1.32a6.18,6.18,0,0,0,2.21.14c.74,0,1.48.05,2.23,0a13.2,13.2,0,0,0,5.4-1.09,3.06,3.06,0,0,1,1.42-.31c2.85.06,5.69,0,8.53-.1,1.86-.06,3.72,0,5.58,0a7,7,0,0,0,2.2-.25,2.84,2.84,0,0,1,2.14-.08,2.68,2.68,0,0,0,1.82.13,5.62,5.62,0,0,1,3.25,0,14.35,14.35,0,0,0,5.91,0,23.19,23.19,0,0,1,5.87-.36c.86.05,1.73-.1,2.59-.1a4.82,4.82,0,0,1,1.83.16,3.38,3.38,0,0,0,2.85,0,2.12,2.12,0,0,1,1.09-.1,14.36,14.36,0,0,0,1.77.38c.6,0,1.2-.27,1.8-.33s1.24,0,1.86-.05c5.7,0,11.39-.15,17.09-.09,4,0,7.94-.28,11.9.12a1.51,1.51,0,0,0,.37,0c4.57-.4,9.16-.18,13.76-.35.68-.75,1.35-1.47,2-2.22.31-.38.47-.94.85-1.19,1-.64,1.39-1.73,2.24-2.46a11.53,11.53,0,0,0,2.58-3.14,6.46,6.46,0,0,1,1.24-1.38,6.7,6.7,0,0,0,1.76-2.35,2.31,2.31,0,0,1,1-1.08,4.46,4.46,0,0,0,1.84-1.76,4.78,4.78,0,0,1,1.48-1.65,1.52,1.52,0,0,0,.51-.53c1.36-2.55,3.59-4.39,5.43-6.55a17.76,17.76,0,0,0,1.13-1.46,41,41,0,0,1,4.73-5.7,21.26,21.26,0,0,0,2.74-3.49,20.89,20.89,0,0,1,2.28-2.91c1.44-1.54,2.92-3,4.39-4.55a11.55,11.55,0,0,1,1.06-1,15.1,15.1,0,0,0,4.66-5.67,5,5,0,0,1,.95-1.13,15.5,15.5,0,0,0,1.63-2,21.09,21.09,0,0,1,3.16-4.54c1.29-1.35,2.31-2.92,3.69-4.18a7.78,7.78,0,0,0,2.42-4.08c.13-.6.42-1.16.6-1.74a15.86,15.86,0,0,1,3.3-6.14,6.07,6.07,0,0,0,.88-1.2c1.34-2.42,3.43-4.19,5.24-6.21.83-.93,2-1.4,2.82-2.39a4.06,4.06,0,0,1,1.52-1,3.39,3.39,0,0,0,2-2,2.79,2.79,0,0,1,1.62-1.46,2,2,0,0,1,.68-.28,8,8,0,0,1,3.27.17c.11,0,.2.14.35.26-.37,1.65-.06,3.42-.69,5.08.18,1.47-.27,3,.3,4.42a2.87,2.87,0,0,1,.1,1.1c-.05,2.62.75,5.12,1.16,7.67a12.05,12.05,0,0,0,1.28,3.85,21.33,21.33,0,0,0,2.05,3.9,4.3,4.3,0,0,0,1.5,2.08c.64.59,1.29,1.17,2,1.71a3.84,3.84,0,0,0,1.24.79,4.08,4.08,0,0,1,2.88,2.63,7.23,7.23,0,0,0,1.48,1.09c.9.38,1.93.31,2.86.7a2,2,0,0,0,1.1,0c.59-.15,1.12-.6,1.77-.45,1.33.32,2.69-.19,4,.3a5.8,5.8,0,0,0,3.66,0A7.19,7.19,0,0,1,247,823c2.23,0,4.46,0,6.69,0a25.44,25.44,0,0,1,4.45-.06c.51.6.54.6.93,0h0a4.09,4.09,0,0,1,2.78.68c.57.36.76.51.76,1.08,0,2.83,0,5.65,0,8.48,0,1.1-.08,2.19-.12,3.29-.67,1-1.32,2-2,3-.27.39-.74.65-.79,1.19-.12,0-.28,0-.35.11a29.65,29.65,0,0,0-2.93,3.3,8.69,8.69,0,0,1-1.75,1.88c-2.64,2-5.13,4.21-7.88,6.09a18,18,0,0,1-3.86,2.13,29.56,29.56,0,0,0-6.55,3.29,9,9,0,0,1-4.74,1.86,2.63,2.63,0,0,0-1,.41c-.88.43-1.75.88-2.64,1.31a21.76,21.76,0,0,1-4.23,1.13,22.33,22.33,0,0,0-5.08.8c-.74.82-1.52,1.6-2.19,2.47a11.38,11.38,0,0,0-2.47,4.06,2.26,2.26,0,0,0-.71.21,12.63,12.63,0,0,0-3.35,3.41,16.15,16.15,0,0,1-2.81,3.39C207.05,876.59,207,876.87,206.93,877.09Z"/><path class="cls-3" d="M352,955.37c.65,1.16,1.55,2.21,1.62,3.63a1.21,1.21,0,0,0,.12.35l2.84,3.34c.67.55,1.32,1.11,2,1.63a12.11,12.11,0,0,1,2.64,2c.62.83,1.74.91,2.43,1.64s1.9,1.09,2.74,1.86a11.46,11.46,0,0,0,2.57,1.37c1.2.61,2.37,1.3,3.6,1.84a4.5,4.5,0,0,1,1.55,1c1.28,1.42,3.11,1.91,4.71,2.8a4.32,4.32,0,0,1,2.4.86,5.43,5.43,0,0,0,2.81.69,4.33,4.33,0,0,1,2.84.66,13.06,13.06,0,0,1,4.17,1.3,10.66,10.66,0,0,0,4.24,1.07,5.22,5.22,0,0,1,3.57.66l1.86.11a6.73,6.73,0,0,1,3.24.54,3.66,3.66,0,0,0,1.46.11,3.56,3.56,0,0,1,1.78.41,2.39,2.39,0,0,0,2.46-.07,2.94,2.94,0,0,1,2.51,0,4.13,4.13,0,0,0,1.76.44c2.73,0,5.45.09,8.18.1a3.71,3.71,0,0,1,1.76.45,1,1,0,0,0,1.05-.06,2.75,2.75,0,0,1,1.74-.5h3a4.81,4.81,0,0,0,2.52-.44,3.7,3.7,0,0,1,1.44-.19c1.33-.14,2.71.1,4-.7A3,3,0,0,1,439,982a5.56,5.56,0,0,0,2.88-.51,4,4,0,0,1,1.45-.16,3.92,3.92,0,0,0,1.44-.23,3.88,3.88,0,0,1,2.48-.52,4.67,4.67,0,0,0,2.83-.65,4.25,4.25,0,0,1,1.81-.21,3.23,3.23,0,0,0,1.43-.28,2.55,2.55,0,0,1,1-.3c.74,0,1.49,0,2.23,0,2.54,0,2.19-.41,4.46,2a1.19,1.19,0,0,1,.17,1.66,1.43,1.43,0,0,0-.34.64,3.31,3.31,0,0,1-1.14,2.25,5,5,0,0,0-1.29,1.79,2,2,0,0,1-1.32,1.23c-.88.25-.81,1.51-1.91,1.56a17.29,17.29,0,0,0-2.08.67,6,6,0,0,0-1.7.69,2.21,2.21,0,0,0-1.08.89,8.09,8.09,0,0,1-2.49,2.71,6.48,6.48,0,0,0-1.53,1.47,3.89,3.89,0,0,1-2.27,1.79,27.74,27.74,0,0,0-3.21,2.45c-2.27,2.31-5.07,3.85-7.64,5.73a29.07,29.07,0,0,0-3.65,2.45,1.05,1.05,0,0,1-.29.23c-1.81.79-3.37,2-5.09,2.95s-3.24,1.72-4.91,2.48a13.55,13.55,0,0,0-2.88,1.6,6.2,6.2,0,0,1-2.95,1.36c-1,.14-1.69,1.06-2.79.81-.8-.19-1.32.69-2.06.68a8.67,8.67,0,0,0-2.84.67,12.54,12.54,0,0,0-2,.79,5.78,5.78,0,0,1-3.52.89,6.11,6.11,0,0,1-4.71-1.71,2,2,0,0,0-1.67-.59,5.49,5.49,0,0,0-2.52.47,2.1,2.1,0,0,1-1.06.24c-4.09.11-8.18.14-12.26,0-.25,0-.55.06-.74-.05-1.6-1-3.37-.56-5.08-.65a3.58,3.58,0,0,1-1.73-.53c-.77-.47-1.71,0-2.51-.5a15.21,15.21,0,0,0-2-1,2.37,2.37,0,0,0-.71-.16l-2.2-.19c-1.63-1.11-3.62-1.53-5.2-2.74a27.78,27.78,0,0,0-5.82-3.1,1,1,0,0,0-1.31.86c0,1.74,0,3.47-.07,5.2a11.5,11.5,0,0,0-.05,1.85c.23,1.5-.69,2.34-1.73,3a5.5,5.5,0,0,1-3.46,1,36.1,36.1,0,0,0-5.2,0,7.69,7.69,0,0,0-1.78.42,4.47,4.47,0,0,1-3.24-.05,4.24,4.24,0,0,0-1.78-.34c-3.72,0-7.44-.08-11.16-.09-4.58,0-9.17,0-13.75,0a5.23,5.23,0,0,1-2.88-.5,2.24,2.24,0,0,0-1.08-.15c-.86,0-1.73,0-2.6,0a2.61,2.61,0,0,0-1.39.42.94.94,0,0,1-1,0,2.9,2.9,0,0,0-1.74-.52l-4.08.09a1.89,1.89,0,0,1-1.32-.58,3.2,3.2,0,0,1-1.36-2.51c-.63-.82-.36-2-.91-2.74s-.42-1.91-1-2.75a1.59,1.59,0,0,1-.08-1.41,4.89,4.89,0,0,0,.5-2.49c0-5,.05-9.9.1-14.86a3.08,3.08,0,0,1,.23-1.43,4.8,4.8,0,0,0,.49-2.51c0-1.86,0-3.72,0-5.58a3.67,3.67,0,0,1,.45-2.14,1.38,1.38,0,0,0,.19-.69c0-1.61.08-3.23.06-4.84a2.06,2.06,0,0,0-.36-1,1,1,0,0,1-.14-1,4,4,0,0,0,.49-2.13c0-1.61.06-3.22.09-4.83,0-.37-.09-.82.08-1.09,1-1.49.51-3.13.56-4.71.07-2.1,0-4.21,0-6.13.86-1.68,2.27-2.54,3.45-3.61a1.3,1.3,0,0,1,.7-.16c.37,0,.75,0,1.12,0a5.57,5.57,0,0,0,1,.5,4.93,4.93,0,0,0,3.24,0,4.64,4.64,0,0,1,4.23.07.86.86,0,0,0,1-.06,1.25,1.25,0,0,1,1.67-.12,1.76,1.76,0,0,0,2.07.08,2,2,0,0,1,2.41-.06,2.32,2.32,0,0,0,1.41.34h7.8c6.7,0,13.39,0,20.08,0a1.72,1.72,0,0,1,1,.26c.73.62,1.31.31,2-.08a1.62,1.62,0,0,1,1.75.09,2.28,2.28,0,0,0,1.36.49,8.15,8.15,0,0,1,1.85,0c.58.13,1,.73,1.66.75A2.38,2.38,0,0,1,352,955.37Z"/><path class="cls-3" d="M704.22,937.65a10.54,10.54,0,0,1,1.47-.18,4,4,0,0,0,1.75-.47,5.27,5.27,0,0,1,4-.12,7.19,7.19,0,0,1,1.89,1.09,8.64,8.64,0,0,1,1.09,1,2.37,2.37,0,0,0,1.68.66c.76,0,1.24.79,2.06.72a14.46,14.46,0,0,1,1.86.07,2.24,2.24,0,0,1,.74.05c2.12.95,4.38.56,6.59.69a4.58,4.58,0,0,1,2.51.46,1.82,1.82,0,0,0,1.07.19c1.22-.07,2.49.2,3.61-.56,1.36,0,2.72-.09,4.08-.11a3.89,3.89,0,0,1,2.49.5.81.81,0,0,0,.71,0c1.5-.84,3.14-.53,4.73-.62a6.74,6.74,0,0,0,2.11-.57c.9-.34,1.68-1.11,2.76-.94a4.32,4.32,0,0,1,2.82-.71,2.52,2.52,0,0,0,1.42-.35,2.88,2.88,0,0,1,1.79-.34,4.2,4.2,0,0,0,2.45-.69,3.7,3.7,0,0,1,1.67-.7c1,0,1.81-.72,2.78-.94a19.39,19.39,0,0,0,4.12-1.5,17.18,17.18,0,0,0,2-1c.56-.38,1.19-.29,1.76-.47a5.94,5.94,0,0,0,2-1,7.85,7.85,0,0,1,3.88-2c.34,0,.63-.37.94-.56a13.63,13.63,0,0,1,4.9-2.42,4.38,4.38,0,0,0,2-.93c.91-.77,2.27-1,2.78-2.28a13.85,13.85,0,0,1,1.55-1,11.9,11.9,0,0,0,4-2.56c1.68-.86,2.88-2.31,4.26-3.53.72-.64,1.59-1.13,2.36-1.71a8.14,8.14,0,0,1,2.08-1.52A2.13,2.13,0,0,0,804,912a2.15,2.15,0,0,1,1.58-1.41,1.94,1.94,0,0,0,1.45-.9,10.63,10.63,0,0,1,4.66-4.11,8.88,8.88,0,0,0,1.87-1.17,13.58,13.58,0,0,1,1.89-1.11.9.9,0,0,1,1,0,4.87,4.87,0,0,0,1.73.59.84.84,0,0,1,.62.81c0,2.11,0,4.22,0,6.33,0,.85-.88,1.5-.71,2.43a5.81,5.81,0,0,1-.81,1.21c-1,.91-1.51,2.25-2.5,3.19-.39.37-.3.91-.44,1.37a9.62,9.62,0,0,0-.69,3.21,4.37,4.37,0,0,0-.79,2.78c-.42.89-.83,1.77-1.26,2.66-.86,1.75-1.23,3.71-2.27,5.4,0,1.17-.75,2-1.15,3.06a13.57,13.57,0,0,0-1.27,3c-.17,1.13-1.22,1.8-1.68,2.83a40.91,40.91,0,0,1-2.7,5.22c-.22,1.29-1.51,1.93-1.86,3.16a8.49,8.49,0,0,1-2.1,3,4.54,4.54,0,0,0-.74,1.26,28.6,28.6,0,0,1-2.31,3.73,14.54,14.54,0,0,1-2.26,2.46c-.87.88-1.79,1.72-2.64,2.62a10.55,10.55,0,0,0-2.59,3.11,4.79,4.79,0,0,1-1.2,1.4c-.61.61-1.27,1.17-1.82,1.67a14,14,0,0,1-3.09.24c-.87,0-1.74,0-2.76,0-.54.48-1.22,1-1.83,1.63-1.22,1.24-2.81,2-4.07,3.18a4.42,4.42,0,0,1-1.6.89,4.06,4.06,0,0,0-1.85,1.15,1.76,1.76,0,0,1-1.32.58,1.94,1.94,0,0,0-1.31.62,2.58,2.58,0,0,1-2,.82,2.62,2.62,0,0,0-1.4.39c-1.2.62-2.41,1.22-3.63,1.78a6,6,0,0,1-2.8.84c-.55,0-1.11.51-1.69.61a7.48,7.48,0,0,0-2.85.68c-.83.49-1.93.24-2.92.24a1.43,1.43,0,0,0-.71.16,5.79,5.79,0,0,1-3.25.52c-2.48,0-5,0-7.44,0a.77.77,0,0,0-.7,1c.17.34.38.64.55,1a21.85,21.85,0,0,0,2.65,4.8,2,2,0,0,1,.36,1c.09.74.08,1.49.14,2.23a3,3,0,0,1-.9,2.33,12.14,12.14,0,0,1-2.1,1.49,3.72,3.72,0,0,1-2.29,1.09.76.76,0,0,0-.59.37c-.37,1.23-1.69,1.34-2.45,2.12a9.67,9.67,0,0,1-2.55,1.41,7.83,7.83,0,0,0-2.52,1.51,2.72,2.72,0,0,1-1,.44,4.17,4.17,0,0,0-1,.35,41.25,41.25,0,0,1-5.76,3.24,21.44,21.44,0,0,0-3.51,2c-1.05.84-2.44,1.13-3.47,2.08a7.29,7.29,0,0,1-2.6,1.29,7.83,7.83,0,0,0-3.52,1.88,4.28,4.28,0,0,1-2.22,1.2,6.49,6.49,0,0,0-2.31,1.08c-1,.66-2,1.42-3,2.13a1.65,1.65,0,0,1-1,.43,5.55,5.55,0,0,0-3.94,1.72c-.36.34-.73.67-1.12,1a1.43,1.43,0,0,1-1.41.2,6.32,6.32,0,0,1-2.8-1.72,9,9,0,0,0-1.31-1.74,13.65,13.65,0,0,1-1.8-1.27,7.13,7.13,0,0,1-1.71-2.37,6.58,6.58,0,0,0-1.53-2.52,2.76,2.76,0,0,1-.55-1.34,43.84,43.84,0,0,0-3.88-7.46c-.3-.41-.43-.88-.68-1.29a9.94,9.94,0,0,0-1.58-2.48,1.05,1.05,0,0,1-.38-.63c-.07-1.69-1.16-3-1.8-4.39s-1.34-2.62-2-3.92-1.33-2.9-2.1-4.3a11.76,11.76,0,0,0-1.9-3.12,3.39,3.39,0,0,1-.51-1l-3.51-6.89a8.18,8.18,0,0,0-1.52-3.69c-.13-.92-.9-1.45-1.34-2.18s-.63-1.32-1-1.94a6.41,6.41,0,0,1-.68-4.65,1.37,1.37,0,0,1,.37-.63,2.38,2.38,0,0,0,.32-1.42c.76-.39,1.5-.81,2.27-1.17A36.52,36.52,0,0,0,667,959a32.14,32.14,0,0,1,3.56-1.81c.87-1.08,2.37-1.28,3.27-2.34.2-.23.67-.25,1-.36s.76-.13,1-.36a12.82,12.82,0,0,1,3.46-2,18.58,18.58,0,0,0,3.49-1.95,19.18,19.18,0,0,1,2.82-1.67c1.3-.65,2.57-1.39,3.9-2a5.73,5.73,0,0,0,2.11-1.43,2.93,2.93,0,0,1,2.61-1.09,1.28,1.28,0,0,0,1-.37c.81-1,2.06-1.3,3-2.08a13,13,0,0,1,3.18-1.73A5.68,5.68,0,0,0,704.22,937.65Z"/><path class="cls-2" d="M504.71,620.22h-2.39a5.82,5.82,0,0,0-2.57,3.16,6.49,6.49,0,0,1-1.94,2.56,2,2,0,0,1-.67.21c.05-1.49.15-3,.14-4.46q0-19.35-.07-38.7,0-9.12,0-18.23a3.19,3.19,0,0,0-.42-2.14,1.61,1.61,0,0,1-.19-1.07c0-1.61,0-3.23,0-4.84a2.72,2.72,0,0,1,.22-1.06,3.71,3.71,0,0,0,.38-1.79c0-2.1,0-4.21,0-6.32a3.55,3.55,0,0,0-.44-2.14,1.25,1.25,0,0,1-.15-.7c0-1.49,0-3,0-4.47a3.32,3.32,0,0,1,.46-1.38,2.13,2.13,0,0,0-.17-2.11,1,1,0,0,1-.14-1,3.39,3.39,0,0,0,.49-2.12c0-.75,0-1.49,0-2.23a4.33,4.33,0,0,0-.55-1.74c-.24-.65.54-1.09.47-1.71a5.23,5.23,0,0,0-.37-1c-.07-.22-.21-.53-.12-.69,1.06-1.86.39-3.88.53-5.82,0-.32-.32-.65-.45-1a1,1,0,0,1,.12-1,1.34,1.34,0,0,0,0-1.71c-.46-.68-.24-1.43-.26-2.16,1-1.86.42-3.88.56-5.83,0-.33-.22-.68-.34-1a2,2,0,0,1-.23-.68c.1-1.58-.38-3.21.45-4.75a3.13,3.13,0,0,0,.15-1.45c0-2.11,0-4.22,0-6.33A2.61,2.61,0,0,0,497,493a2.25,2.25,0,0,1,0-2.44,2.42,2.42,0,0,0,.23-1.07c0-2.35,0-4.71,0-7.07a10.53,10.53,0,0,0-.43-1.76,6.85,6.85,0,0,1,.25-4.33,2.42,2.42,0,0,0,.19-1.07c0-6.58,0-13.16,0-19.73a3.51,3.51,0,0,0-.52-1.74.78.78,0,0,1,0-.7,3.43,3.43,0,0,0,.47-2.12q0-23.44,0-46.89,0-35.35.06-70.7c0-11.54.07-23.08.09-34.61,0-7.44,0-14.89,0-22.33,0-1.22-.29-2.49.53-3.59,0-1.22.3-2.45-.37-3.62a2.22,2.22,0,0,1-.17-1.07c0-3.22,0-6.45,0-9.67a2.43,2.43,0,0,1,.26-1.43,1.59,1.59,0,0,0,0-1.73,3,3,0,0,1,0-2.83,3,3,0,0,0,.32-1.42c0-3.72,0-7.44,0-11.17a3,3,0,0,0-.24-1.43c-.62-1.06-.25-2.18-.36-3.27,1-1.59.6-3.38.61-5.07q.07-25.31,0-50.62,0-8.75,0-17.49c0-1.24,0-2.48,0-3.72a4,4,0,0,0-.31-1,.93.93,0,0,0-.43.9c.16,1.06-.48,1.88-.85,2.77-.09.21-.28.49-.47.53-1.7.43-1.81,2.25-2.85,3.26-.49.48-.65,1.29-1.46,1.5-.83,1.86-2.51,3-3.82,4.43-.23.25-.27.67-.46,1s-.44.68-.75.79a7.75,7.75,0,0,0-2.63,2c-.71.66-1.68,1-2.4,1.67a8,8,0,0,1-1.9,1.06c-3.15,1.69-4.42,2.44-6.07,4a9.33,9.33,0,0,1-2.43,1.63c-.63.32-1.42.43-1.86,1.12a1.9,1.9,0,0,1-1.95.78,1.24,1.24,0,0,0-1.46.82.85.85,0,0,1-.86.58,2.69,2.69,0,0,0-1.38.45,6.26,6.26,0,0,1-2.69,1.11,1.57,1.57,0,0,0-.69.23c-.74.42-1.23,1.24-2.16,1.36a2.87,2.87,0,0,1-2,.76c-.33.05-.62.39-.9.63a2.31,2.31,0,0,1-1.64.73c-.53,0-.89.39-1.33.56-1,.39-1.91,1.14-3.13.92-.31-.06-.69.2-1,.35-1,.48-2,.92-2.94,1.49a3,3,0,0,1-1.77.39,2.93,2.93,0,0,0-1.37.45,21.09,21.09,0,0,0-2,.71,4,4,0,0,1-2.15.39c-.12,0-.3-.05-.36,0-.73.83-1.88.52-2.73,1a2.09,2.09,0,0,1-1,.36c-.85,0-1.79-.24-2.52.32s-1.39.41-2.07.63a5.33,5.33,0,0,1-1.72.6c-1.22,0-2.48-.21-3.57.62-.17.13-.47.08-.72.09-1.48,0-3,.08-4.46.09a3.2,3.2,0,0,0-2.11.49,1.18,1.18,0,0,1-.69.19c-3,0-5.95,0-8.93,0a2.43,2.43,0,0,1-1-.29,2.83,2.83,0,0,0-1.39-.42c-1,0-2,0-3-.06a2.43,2.43,0,0,1-1-.35,2.77,2.77,0,0,0-1.41-.31c-1.86,0-3.72,0-5.58-.08a5.27,5.27,0,0,1-2.9-.43c-.12-.07-.44.07-.62.19a1.82,1.82,0,0,1-2.08,0A13.9,13.9,0,0,0,386,198.2a7.84,7.84,0,0,0-2.74-1c-.42,0-.81-.52-1.2-.79a3.24,3.24,0,0,1,1.73-1.87,9.25,9.25,0,0,0,2.05-1.54c.74-.64,1.32-1.48,2.36-1.73a1.63,1.63,0,0,0,.61-.42c.66-.54,1.06-1.42,1.94-1.67s1.31-1.15,2.12-1.45a3.75,3.75,0,0,0,1.22-.8l2.49-2.23c1.16-.17,1.61-1.51,2.79-1.72a1.27,1.27,0,0,0,.8-.74c.54-1.4,2.1-1.61,3-2.61.22-.26.68-.3.95-.53,1-.91,1.92-2,3-2.76a27.55,27.55,0,0,0,3.15-2.54,7.35,7.35,0,0,1,2.61-2,2,2,0,0,0,.82-.73,21.56,21.56,0,0,1,1.81-2.3c.6-.57,1.48-.83,2.07-1.5s1.4-1.4,2.09-2.11c1.28-1.33,2.77-2.46,3.6-4.19a6,6,0,0,1,1-1.11c.86-1,2-1.82,2.57-3.12.5-1.11,1.84-1.67,2.17-3,1.32-1.15,2-2.8,3.14-4.09a2.45,2.45,0,0,0,.46-1.38c.56-.23,1-.78,1.66-.72.94.07,1.61-.57,2.39-.88a1.68,1.68,0,0,0,1.07-1.41c.15-1.35,1.06-2.52.93-3.93.45-1.27.89-2.54,1.35-3.81.28-.81.56-1.62.9-2.4.08-.19.35-.3.54-.45a.9.9,0,0,0,.06.37c.44.87.9,1.73,1.35,2.59v3.72c-.46.88-.53,1.88-.9,2.77a5.91,5.91,0,0,0-.53,2.12,1.35,1.35,0,0,1-1,1.32.83.83,0,0,0-.39.59c-.08.74-.06,1.49-.14,2.23a.84.84,0,0,1-.39.59,1.4,1.4,0,0,0-1,1.36c0,1-1.13,1.62-.91,2.72,0,.13-.3.4-.5.48-.36.15-.7.33-.8.69-.31,1.19-1.26,2.07-1.57,3.27a.9.9,0,0,1-.82.62.8.8,0,0,0-.51.46c-.17.44,0,1-.37,1.38a8.1,8.1,0,0,1-.9.57.62.62,0,0,0-.28.64,1.18,1.18,0,0,1-.57,1.26,1.56,1.56,0,0,0-1,.95,11.63,11.63,0,0,1-.71,1.29c-.64,1.25-1.43,2.3-3,2.43a.79.79,0,0,0-.58.39c-.21.66-.77.9-1.27,1.24a1,1,0,0,0-.3.64,2.22,2.22,0,0,1-1.7,2.15c-.33.09-.47.47-.61.84a2.34,2.34,0,0,1-1.59,1.42c-.57.16-.6.69-.64,1.19s-.34,1-.92.93c-1,0-1.52.76-2.35,1-.18,0-.29.37-.41.57a13.7,13.7,0,0,1-3.63,3.65c-.92.18-1.31,1.16-2.12,1.43s-.88.74-1.21,1.26a1.82,1.82,0,0,1-1.79,1.09c-.81-.1-1.16.9-2,.86-.08,0-.22.15-.25.26a6.21,6.21,0,0,0-.22,1,.72.72,0,0,1-.69.71,2.14,2.14,0,0,0-1.69.59c-.78.92-1.92,1.56-2.29,2.85-.06.21-.33.16-.59,0s-.47-.16-.59.1c-.21.43-.35.91-.93,1s-1.28-.16-1.78.3-.54.83-.92,1.1-.59.32-.7.75a5.75,5.75,0,0,0,1.07.2c2.73,0,5.46,0,8.19-.06,1.22,0,2.46.15,3.61-.55.38-.23,1-.11,1.45-.15,1.58-.16,3.22.27,4.71-.68.36-.23,1,0,1.46-.08a4.18,4.18,0,0,0,1.43-.27,3.76,3.76,0,0,1,1.76-.47,3.58,3.58,0,0,0,2.48-.57.53.53,0,0,1,.33-.13,8.21,8.21,0,0,0,3.2-.72c.8-.25,1.73,0,2.47-.61a1.43,1.43,0,0,1,.7-.18c.85-.09,1.81.22,2.53-.34s1.67-.34,2.44-.8c.61-.36,1.45-.33,2.05-.7a5.76,5.76,0,0,1,2.13-.5c.95-.17,1.75-.9,2.79-.82a5.6,5.6,0,0,1,2.07-.71,8.57,8.57,0,0,0,1.66-.77,4.21,4.21,0,0,1,2.09-.62,2.69,2.69,0,0,0,1.38-.47c1.08-.57,2.19-1.08,3.3-1.62,1.17.1,2-.86,3.15-.93a2,2,0,0,0,.68-.24c1-.46,2-.9,3-1.4A11.53,11.53,0,0,1,459.5,181a21.37,21.37,0,0,0,3-1.34c1.4-.54,2.41-1.67,3.77-2.25a20,20,0,0,0,3.52-2c1.29-.91,2.85-1.42,4-2.54a5.57,5.57,0,0,0,2.12-1.43c.76-.61,1.59-1.13,2.35-1.75s1.19-1.35,1.94-1.72c1.82-.92,3-2.51,4.47-3.84s2.82-2.79,4.16-4.26c.73-.81,1.3-1.78,2-2.65.83-1.08,1.07-2.49,2-3.49a11.47,11.47,0,0,0,1.89-3.55c.58-1.34,1-2.73,1.65-4.07.35-.75,0-1.71.57-2.48a3.73,3.73,0,0,0,.35-2.16,4.92,4.92,0,0,1,.45-1.77,3.63,3.63,0,0,0,.23-1.44c0-2.85.06-5.7.08-8.56,0-.74,0-1.49,0-2.23a1.06,1.06,0,0,1,1.32-.91,5.64,5.64,0,0,1,3.51,2.52c.46.83.47,1.88,1,2.71-.27,1.3.53,2.37.84,3.53a12.14,12.14,0,0,1,.67,3.95c0,.25,0,.5.05.84a8.83,8.83,0,0,1,1.26,1.73,13,13,0,0,0,3.17,4.48c1.34,1.26,2.47,2.78,4.2,3.59,1.17,1.29,2.8,2,4,3.2,1,1,2.32,1.4,3.29,2.37a4.94,4.94,0,0,1,1.85,1.17c.58.44,1.23.79,1.84,1.19.32.21.58.54.91.64,1.67.53,2.91,1.8,4.46,2.53s3.06,1.56,4.59,2.33a10.33,10.33,0,0,0,2.31,1.09c.75.17,1.35.6,2,.78.84.22,1.47.91,2.41.87.73,0,1.26.68,2.06.75s1.73.9,2.77.83c.66.7,1.66.42,2.39.84a5.51,5.51,0,0,0,2.12.55c.71.12,1.37.55,2.08.65a6.42,6.42,0,0,1,2.48.61c.74.44,1.72,0,2.5.52a4.82,4.82,0,0,0,2.52.43c.24,0,.55-.05.73.07,1.1.74,2.36.6,3.58.71.34,0,.44.23.31.37s-.2.22-.29.21c-1.17-.13-2,1-3.17.86a15.25,15.25,0,0,0-2.86,1.67,5.18,5.18,0,0,1-3.75,1.26c-.62,0-1.24,0-1.86,0a2.84,2.84,0,0,0-1.38.46,1,1,0,0,1-1-.05,3,3,0,0,0-1-.44,7,7,0,0,0-1.12,0l-1.86,0c-.77-.71-1.86-.55-2.73-1a13.3,13.3,0,0,0-3.41-1.31,8.15,8.15,0,0,1-2-1c-1.75-.89-3.48-1.81-5.24-2.66a35.51,35.51,0,0,1-4.7-2.83,3.88,3.88,0,0,0-1.94-.94,2.32,2.32,0,0,1-1-.53,12.32,12.32,0,0,0-1.54-1,11.28,11.28,0,0,1-3.33-2.26c-.83-.88-2.08-1.26-2.92-2.22a22.05,22.05,0,0,0-2.41-2.32c-.55-.47-1.23-.79-1.8-1.26s-1.07-1-1.6-1.56c-.79-.78-1.61-1.54-2.37-2.36s-1.58-1.24-1.8-2.3c-.75-.82-1.48-1.67-2.26-2.47-.62-.62-.69-1.6-1.45-2.11-.1-.07-.27-.18-.33-.14s-.4.28-.4.43q0,1.48,0,3a2.46,2.46,0,0,1-.43,1.75c-.15.2-.07.41.1.65a1.31,1.31,0,0,1,.28.68q0,3.72,0,7.44c0,.22-.19.45-.27.68s-.23.51-.15.62a4.18,4.18,0,0,1,.41,2.52c0,1.74,0,3.48,0,5.21a2.92,2.92,0,0,1-.5,1.73,1.66,1.66,0,0,0,0,1.43c.12.35.38.65.48,1a1.89,1.89,0,0,1-.28,1.76,1,1,0,0,0,0,1.35,1.2,1.2,0,0,1,0,1.66,1.33,1.33,0,0,0-.22,1.4,8.43,8.43,0,0,1,.55,4.7,3.68,3.68,0,0,0,0,.74,2.52,2.52,0,0,1-.42,1.39,1.86,1.86,0,0,0,.13,2.09,1.17,1.17,0,0,1-.13,1.64.85.85,0,0,0-.07,1,3.23,3.23,0,0,1,.5,1.74c0,3.72,0,7.43,0,11.14a4.27,4.27,0,0,1-.45,1.33c.89,1.1.35,2.41.48,3.61a37.06,37.06,0,0,1,0,4.08c0,1.24,0,2.48,0,3.71,0,1.86,0,3.72.05,5.57a4.4,4.4,0,0,0,.47,1.39,2.67,2.67,0,0,1,0,2.49,3,3,0,0,0,.07,3.45,1.77,1.77,0,0,1-.17,2.08.7.7,0,0,0-.18.31c0,.1.09.21.14.32a3.76,3.76,0,0,1,.39,1,14.94,14.94,0,0,1,0,2.22,2.22,2.22,0,0,0,.44,1.37,1.82,1.82,0,0,1,0,2.08.76.76,0,0,0,0,1,1.39,1.39,0,0,1,.16,1.42,3.71,3.71,0,0,0,0,4.17.74.74,0,0,1-.12.68c-.6.65,0,1.09.27,1.7,0,4.6,0,9.3,0,14a16.49,16.49,0,0,0-.06,1.85,2.36,2.36,0,0,1-.54,1.71.77.77,0,0,0,0,.69,3,3,0,0,1,.58,2.43c-.05,1,0,2,0,3a1.46,1.46,0,0,1-.2.68,3,3,0,0,0,0,3.47,1.54,1.54,0,0,1,.06,1.74c-.67.92-.41,1.88-.36,2.85.79.95.62,2.11.62,3.2s-.22,2,.53,2.84c.15,1.22.39,2.45-.41,3.56a1.56,1.56,0,0,0-.19,1.07,31,31,0,0,1,0,4.82,1.38,1.38,0,0,0,.26,1,2,2,0,0,1,.19,2.42c-.35.65-.65,1.32-1,2a2.9,2.9,0,0,1,.56.9c.2.95-.08,2,.63,2.85.19.23.1.71.1,1.08,0,2.23,0,4.46,0,6.69a2.25,2.25,0,0,1-.34,1.41,2.51,2.51,0,0,0-.27,2.15,11.52,11.52,0,0,1,.67,3.58c0,1.24-.07,2.48,0,3.71a1.46,1.46,0,0,1-.33,1,1.19,1.19,0,0,0,0,1.66,1.35,1.35,0,0,1,.26.67c0,.74,0,1.49.09,2.23a2.89,2.89,0,0,1-.57,1.72c-.11.19-.18.58-.07.7,1.06,1.18.38,2.64.67,3.93-.05,5.32-.14,10.65,0,16,0,.74-.07,1.48-.11,2.19l.62,1c-.17.54-.62,1-.58,1.64.09,1.85.12,3.72.09,5.58a2.82,2.82,0,0,0,.52,1.72.82.82,0,0,1,.07.69c-1.08,1.33-.44,2.88-.6,4.32,0,.2.2.43.31.65s.31.44.32.66q.06,3.35.06,6.69a1.24,1.24,0,0,1-.28.66,3,3,0,0,0-.09,3.15,3.57,3.57,0,0,1,.39,1.4q-.06,8.36-.09,16.73c0,.49.1,1,.12,1.47a1.74,1.74,0,0,1-.09.72c-.13.33-.47.64-.46.95s.45.64.47,1c.09,1.1.1,2.22.1,3.33,0,2.36,0,4.71-.09,7.06a6.58,6.58,0,0,1-.61,3.6c0,1.11-.09,2.22-.14,3.32a3.06,3.06,0,0,1,.5,3.43c-.29.56-.06.88.12,1.31a.87.87,0,0,1,0,.69c-.88,1.11-.44,2.39-.5,3.6,0,.31.36.63.5,1a1.51,1.51,0,0,1,0,1.43c-.86,1.11-.45,2.37-.54,3.57,1.12,1.56.58,3.36.6,5,.09,5.57.05,11.15.05,16.72,0,1.12,0,2.24-.05,3.35a2.55,2.55,0,0,1-.15,1.08c-.89,1.65-.32,3.4-.39,5.1.95,1.21.54,2.62.55,4,0,5.82,0,11.64,0,17.47,0,3.71,0,7.43,0,11.14a3.11,3.11,0,0,1-.37,2.15.5.5,0,0,0-.08.65,2.23,2.23,0,0,1,.48,1.36c0,1.48,0,3,0,4.45,0,5.08-.06,10.17-.07,15.25,0,4.83,0,9.66,0,14.49q0,11.71.07,23.43a3.22,3.22,0,0,1-.55,2.46c0,.05,0,.22.05.3.87,1.17.56,2.31-.06,3.47a2.25,2.25,0,0,0-.23,1.06c0,1.37,0,2.73,0,4.09a2.43,2.43,0,0,0,.43,1.39,2.22,2.22,0,0,1,.16,2.15,8.91,8.91,0,0,0-.61,4.72,2.2,2.2,0,0,0,.28,1,1.21,1.21,0,0,1,.05,1.65,2,2,0,0,0-.31,1,21,21,0,0,0,0,3,5.15,5.15,0,0,1-.62,3.21,1.49,1.49,0,0,0,.11,1.42,2.37,2.37,0,0,1,.51,1.34c-.05,3.59-.06,7.18-.05,10.78a4.06,4.06,0,0,1-.41,1.77,3.83,3.83,0,0,0-.28,1.43c0,1.11,0,2.23,0,3.34a3.86,3.86,0,0,1-.6,2.11c-.17.28-.08.72-.11,1.09a.72.72,0,0,0,.65.8,4.81,4.81,0,0,1-.54,3.44Z"/><path class="cls-2" d="M351.36,636.51c0-1.12,0-2.23,0-3.35a1.49,1.49,0,0,1,.38-1,1.2,1.2,0,0,0-.08-1.66,1.28,1.28,0,0,1-.27-.67c0-.86,0-1.73,0-2.6a1.91,1.91,0,0,1,.34-1,3.84,3.84,0,0,0,.32-2.51c-1-1-.67-2.32-.68-3.53,0-3.35,0-6.7,0-10a2.88,2.88,0,0,1,.53-2.09.58.58,0,0,0,.18-.32c0-1.36,0-2.72,0-4.08,0-.22-.24-.43-.37-.64a2,2,0,0,1,0-2.08,3,3,0,0,0,.2-2.79,3.12,3.12,0,0,1-.51-1.36c0-1.73,0-3.47,0-5.21a2,2,0,0,1,.31-1,1.9,1.9,0,0,0,0-2.4,1.35,1.35,0,0,1-.31-.65c0-3.23,0-6.45,0-9.68a1.19,1.19,0,0,1,.29-.66,1.16,1.16,0,0,0,0-1.65.73.73,0,0,1-.19-.31c-.17-1.21-.41-2.41.33-3.56a2.41,2.41,0,0,0,0-2.47,4,4,0,0,1-.52-2.1c0-1.86,0-3.72,0-5.59,0-.36-.08-.83.11-1.07.77-1,.63-2.09.61-3.2a1.22,1.22,0,0,0-.17-.69,3.45,3.45,0,0,1-.55-2.46c0-3.23,0-6.45,0-9.68,0-1-.15-2,.67-2.78,0-.49.09-1.07-.13-1.43a3.71,3.71,0,0,1-.55-2.09q0-9.67,0-19.36a3.44,3.44,0,0,1,.66-2.42c.11-.13,0-.49-.06-.7a8,8,0,0,0-.59-1c0-3.34,0-6.69,0-10a2.32,2.32,0,0,1,.45-1.38,1.41,1.41,0,0,0,.27-.66c0-1,0-2,0-3a1.28,1.28,0,0,0-.32-.65,2.2,2.2,0,0,1-.4-1.39c0-4.46,0-8.93,0-13.39,0-1-.16-2,.62-2.81a3,3,0,0,0-.06-2.16,4.28,4.28,0,0,1-.57-2.46c0-3.72,0-7.44,0-11.16a3.24,3.24,0,0,1,.63-2.07.76.76,0,0,0,0-.69,3.25,3.25,0,0,1-.64-2.07q.07-4.27,0-8.56a3.76,3.76,0,0,1,.6-2.07,1.63,1.63,0,0,0-.15-1.75c-.14-.2-.36-.42-.37-.63,0-1.36-.06-2.72,0-4.08,0-.22.23-.44.37-.64a1,1,0,0,0,0-1.34,2.07,2.07,0,0,1-.45-1.36c0-1.86,0-3.72,0-5.57.14-.23.26-.45.39-.65a1.79,1.79,0,0,0,.07-2.07,2.9,2.9,0,0,1,.11-3.45.82.82,0,0,0-.09-1,2,2,0,0,1-.48-1.35q0-6.33,0-12.65a4.23,4.23,0,0,1,.53-2.1,2.5,2.5,0,0,0-.06-2.47,2.56,2.56,0,0,1-.47-1.37c0-.86,0-1.73,0-2.6,1.17-1.67.57-3.58.72-5.39a2.12,2.12,0,0,0-.44-1.37,1.34,1.34,0,0,1-.27-.67c0-2.23,0-4.46,0-6.7a.51.51,0,0,1,.13-.33c.77-.82.56-1.85.57-2.82,0-1.74,0-3.48,0-5.21a3.45,3.45,0,0,0-.63-2.44c-.21-.25,0-.7.22-1a1,1,0,0,0,.19-1.33,2.23,2.23,0,0,1-.52-1.34c0-1,0-2,0-3a2.18,2.18,0,0,1,.32-1,2,2,0,0,0,0-2.4,2,2,0,0,1-.32-1q0-6.7,0-13.4a1.88,1.88,0,0,1,.3-1,1.21,1.21,0,0,0,0-1.66,1.36,1.36,0,0,1-.32-.66,14.61,14.61,0,0,1,0-1.48q0-45.41,0-90.81c0-.75,0-1.49,0-2.23a3.76,3.76,0,0,1,.47-1.75,4.63,4.63,0,0,0,.08-3.22c-.06-.23-.3-.4-.38-.63s-.18-.58-.07-.7c.85-.94.64-2.07.65-3.17,0-1.86,0-3.72,0-5.58a3.73,3.73,0,0,1,.55-2.47,1.91,1.91,0,0,0,.19-1.06c0-1.11,0-2.22,0-3.38a16.83,16.83,0,0,1,1.58-1.58,8.49,8.49,0,0,1,1.61-.84,2.71,2.71,0,0,1,2.48,0,6.6,6.6,0,0,1,2.72,1.83,2.25,2.25,0,0,1,.56,1.31c0,4.22,0,8.44,0,12.66a3,3,0,0,0,.51,2.1,1.22,1.22,0,0,1,.21.68c0,.62,0,1.24,0,1.86V413q0,74.07,0,148.12,0,30.9,0,61.78c.5,1.56-.86,2.78-.79,4.26-.51.56-.57,1.39-1.05,1.92s-.1,1.51-.62,2.07-.31,1.45-.65,2.06a3.31,3.31,0,0,0-.61,2.07,2.57,2.57,0,0,1-.39,1.39,17.92,17.92,0,0,1-.69,2,3.52,3.52,0,0,0-.4,2.13,1.61,1.61,0,0,1-.43,1,6.92,6.92,0,0,0-1.09,1.47,10.67,10.67,0,0,1-1.87,3.13,9.93,9.93,0,0,0-1.12,2.26c-.26.53-.75.55-1.26.51a7.57,7.57,0,0,1,.27-3.92,2.68,2.68,0,0,0,.17-1.06q0-3.45,0-6.89A1,1,0,0,0,351.36,636.51Z"/><path class="cls-1" d="M206.93,877.09c.09-.22.12-.5.27-.64a16.15,16.15,0,0,0,2.81-3.39,12.63,12.63,0,0,1,3.35-3.41,2.26,2.26,0,0,1,.71-.21,31.16,31.16,0,0,1,2.55,4.85,34.52,34.52,0,0,0,2.44,4.05,10.11,10.11,0,0,0,1.76,1.89c1.31,1.31,2.67,2.57,4,3.92a2.88,2.88,0,0,0,2.56,1.18,1.73,1.73,0,0,1,1,.29,25.55,25.55,0,0,0,3.71,1.47c1.46.61,2.92.23,4.37.38a5,5,0,0,0,2.43-.69c1.34-.54,2.49-1.57,4-1.6.89-.64,2.06-.78,2.77-1.76a15,15,0,0,1,1.86-1.79,5.68,5.68,0,0,0,2.59-2c1.13-1.14,2.28-2.27,3.4-3.42.35-.35.82-.7.93-1.13.24-.91,1.17-1.32,1.44-2.1a9.79,9.79,0,0,1,1.39-2.15,1.33,1.33,0,0,0,.24-.67,6.28,6.28,0,0,1,.57-1.73,11.29,11.29,0,0,0,.19-2.19c.06-.73.11-1.46.17-2.2.69-.85.51-1.87.51-2.84q0-5.19,0-10.39a4.16,4.16,0,0,1,.67-2.43,4.47,4.47,0,0,0,.79-2,20.78,20.78,0,0,0,0-3.7,6,6,0,0,0-.58-1.34,2.92,2.92,0,0,1-.06-.73c.05-.54.52-.8.79-1.19.69-1,1.34-2,2-3,0-1.1.11-2.19.12-3.29,0-2.83,0-5.65,0-8.48,0-.57-.19-.72-.76-1.08a4.09,4.09,0,0,0-2.78-.68c0-3.47-.07-6.94-.08-10.42q0-12.09,0-24.19c0-9.8,0-19.6,0-29.4,0-5.58,0-11.16,0-16.74q0-7.44,0-14.88l0-24.94q0-9.68,0-19.35c0-1-.13-2,.59-2.84a3.71,3.71,0,0,0-.25-2.52,1.43,1.43,0,0,1,.08-1.7,2.21,2.21,0,0,0,.21-1.06c0-2.85.06-5.71.09-8.56a5.68,5.68,0,0,1,.53-3.23,3.1,3.1,0,0,0,.14-1.45c0-2.85.08-5.7.06-8.56a2.5,2.5,0,0,1,.82-2c.63-.6,1.28-1.16,1.91-1.72a5.73,5.73,0,0,0,1.18,0c1.07-.24,1.89.38,2.8.74a3,3,0,0,1,1.61,1.89c.07.17.4.23.6.34a4.89,4.89,0,0,0-.8,2.73c.14,2,.07,3.93.05,5.89a1.48,1.48,0,0,0,.42,1,1.66,1.66,0,0,1,.33,1.37c0,1,0,2,0,3,0,.37-.11.83.07,1.09,1.08,1.61.56,3.38.57,5.07.05,11.41,0,22.81.05,34.22,0,3.47,0,6.94,0,10.41a2.35,2.35,0,0,1-.32,1.42,2.17,2.17,0,0,0,0,2.44,2.46,2.46,0,0,1,.26,1c0,1.49,0,3,0,4.46a2.26,2.26,0,0,1-.32,1,2.39,2.39,0,0,0,.1,2.46,2.68,2.68,0,0,1,0,2.48,3.79,3.79,0,0,0-.46,1.76c0,1.36,0,2.73,0,4.09a1.41,1.41,0,0,0,.11.72c.77,1.12.51,2.38.52,3.6,0,1.73,0,3.47,0,5.2a2.74,2.74,0,0,1-.4,1.4,2.14,2.14,0,0,0,0,2.11,2.17,2.17,0,0,1,.37,1c0,1,0,2,0,3a3.08,3.08,0,0,1-.41,1.39,3.07,3.07,0,0,0,.07,2.84,2.23,2.23,0,0,1-.11,2.42,1.75,1.75,0,0,0,0,1.77,4.14,4.14,0,0,1,.47,2.14q0,5.76,0,11.53a2.31,2.31,0,0,1-.3,1.41,1.47,1.47,0,0,0,0,1.72,2.19,2.19,0,0,1,.25,1c0,2,0,4,0,6,0,7.68.06,15.37.06,23.06q0,16.35-.05,32.72c0,3.35,0,6.7,0,10a2.49,2.49,0,0,1-.32,1.41,2.33,2.33,0,0,0,0,2.45,4.1,4.1,0,0,1,.06,3.22,5.93,5.93,0,0,0-.44,2.14c0,1.86,0,3.72,0,5.58a3.41,3.41,0,0,1-.46,1.76,2.74,2.74,0,0,0-.23,1c-.09.73.12,1.51-.31,2.17s-.61,1.61-1.3,2.2a2.69,2.69,0,0,0-.77,1.63,8.68,8.68,0,0,1-1.52,2.88c-.75,1-1.91,1.6-2.23,2.89-.76.81-1.54,1.61-2.3,2.42a1.55,1.55,0,0,0-.43.6c-.32,1.17-1.33,1.73-2.13,2.48-1.17.17-1.62,1.51-2.79,1.71a1.3,1.3,0,0,0-.8.74c-.36,1-1.35,1.34-2.06,2-.94.81-2.11,1.24-3.06,2-.63.55-1.69.27-2.36.92-1.82.12-3.17,1.18-4.56,2.27-.85,0-1.71.08-2.57.06a3.14,3.14,0,0,0-1.73.55,1.38,1.38,0,0,1-1.41.07,1.86,1.86,0,0,0-2.37,0,1.47,1.47,0,0,1-1.06.1c-.59-.15-1.12-.47-1.7-.63s-1.25.09-1.8-.28a2.73,2.73,0,0,0-1.74-.52,2.37,2.37,0,0,1-1.42-.3,6.05,6.05,0,0,0-3.78-1.23,7.22,7.22,0,0,1-2.26-1.2A19.15,19.15,0,0,0,217,892a10,10,0,0,1-1.78-1.25,4.36,4.36,0,0,1-.87-1.6,1.76,1.76,0,0,0-1-1,5.9,5.9,0,0,1-2.33-2.78,14.83,14.83,0,0,0-2.42-4.09c-.09-.09-.21-.22-.2-.31.19-1.06-.74-1.81-.78-2.81a1.31,1.31,0,0,0-.18-.69C207.39,877.3,207.13,877.22,206.93,877.09Z"/><path class="cls-2" d="M602.66,477.92a2.19,2.19,0,0,1-.73-.08.82.82,0,0,1-.45-.9c0-.37,0-.74,0-1.11V276.31c0-1.36,0-2.73,0-4.09a2,2,0,0,0-.5-1.35.85.85,0,0,1-.07-1,3,3,0,0,0,.57-1.71q0-12.84,0-25.69c0-1.09.21-2.24-.66-3.16,0-.85-.29-1.71.28-2.5.21-.29.24-.7.44-1a3.31,3.31,0,0,1,1-1.05c1.09-.53,2.18-1.07,3.25-1.65a1.85,1.85,0,0,1,1.71.43,3.64,3.64,0,0,1,.48.56,14.67,14.67,0,0,0,1.52,2.88c.65.75,1.4,1.41,2.09,2.12.34.36.66.73,1,1.15,0,4.7,0,9.41,0,14.11a1.61,1.61,0,0,1-.36,1,2,2,0,0,0,.05,2.4,2.69,2.69,0,0,1-.05,2.79,1.92,1.92,0,0,0,.07,2.38,1,1,0,0,1,0,1.33,1.15,1.15,0,0,0,0,1.65.94.94,0,0,1,0,1.32,1.83,1.83,0,0,0,0,2.38,1.71,1.71,0,0,1,0,2.06,2.76,2.76,0,0,0-.19,2.81,4,4,0,0,1,.51,1.73c0,2.85,0,5.7,0,8.56,0,1.09.19,2.22-.66,3.18a1.13,1.13,0,0,0,0,1.07c.88,1.08.62,2.33.67,3.54,0,.13,0,.25,0,.38a1.89,1.89,0,0,1-.5,1.35.8.8,0,0,0,0,1,2,2,0,0,1,.07,2.7,1.51,1.51,0,0,0-.07,1.74,3.61,3.61,0,0,1,.55,2.09c0,3.85,0,7.69,0,11.54,0,1,.14,2-.67,2.79,0,.48-.1,1.06.12,1.42a3.73,3.73,0,0,1,.56,2.1q0,7.06,0,14.14a3.36,3.36,0,0,1-.67,2.42,7.64,7.64,0,0,0,.09,1.44,3.53,3.53,0,0,0,.57,1c0,1,0,2,0,3s.15,2-.64,2.81a.75.75,0,0,0,0,.69,3,3,0,0,1,.6,2.07c0,1.74,0,3.47,0,5.21a2.29,2.29,0,0,1-.44,1.37,1.79,1.79,0,0,0,0,2.07,1.86,1.86,0,0,1,.41,1c0,2.6,0,5.21,0,7.81a2,2,0,0,1-.42,1,.94.94,0,0,0-.16,1,3.43,3.43,0,0,1,.61,2.07q0,19.53,0,39.08a5.67,5.67,0,0,1-.59,2.08,2.89,2.89,0,0,0,.33,2.81,1.67,1.67,0,0,1,0,1.74c-.72,1.73-.73,2.26,0,4.19a2.16,2.16,0,0,1,.22.68c0,1.86,0,3.72,0,5.58a1.76,1.76,0,0,1-.41,1,1.06,1.06,0,0,0-.06,1.34,2.14,2.14,0,0,1,.44,1c0,3.85,0,7.69,0,11.54a2.33,2.33,0,0,1-.38,1,2.88,2.88,0,0,0,0,2.8,3.12,3.12,0,0,1,.06,3.14,2.62,2.62,0,0,0-.34,1,3.26,3.26,0,0,1-.71,2.41c.24,1.18-.89,2-.82,3.14,0,.42-.33.66-.44,1-.31.92-1.07,1.64-1.06,2.69,0,.86-.89,1.45-.77,2.41.08.61-.74,1-.69,1.66a1.77,1.77,0,0,1-.42,1.37c-.46.51-.22,1.19-.44,1.75s-.63.75-.64,1.31a2.54,2.54,0,0,1-.21,1.06,11.52,11.52,0,0,1-1,1.93c-.38.56,0,1.28-.42,1.76s-.46,1.36-.66,2.06-.69,1-.67,1.67.2.93.77,1a2.77,2.77,0,0,1-.31,1.34A17.11,17.11,0,0,0,602.66,477.92Z"/><path d="M465.28,29.08l-1.51,0c-1,0-2-.07-2.93-.07l-13.25,0c-.21-.3-.43-.6-.64-.91a2.09,2.09,0,0,1-.09-2.13c1.16-2.45,2.36-4.87,3.63-7.26a9.65,9.65,0,0,1,1.63-2,4.18,4.18,0,0,0,1.39-2.94,1.27,1.27,0,0,1,.41-1c2.24-2.12,4.05-4.71,6.75-6.33,1.86-2,4.31-3.29,6.5-4.9a5.78,5.78,0,0,1,2-.81c3.64-1,7.35-.75,11.05-.68a1.29,1.29,0,0,1,.72.12c1.06.77,2.44.4,3.53,1.06a3,3,0,0,0,1.06.31,2.78,2.78,0,0,1,1.57.92c.52.53,1.07,1,1.57,1.58a14.21,14.21,0,0,0,4.41,3.31,5.74,5.74,0,0,1,2.77,2.87A11.6,11.6,0,0,0,500,14.91a9.68,9.68,0,0,1,2.7,2.51,10.42,10.42,0,0,0,2.4,2.25,25.77,25.77,0,0,0,3.41,2.2,33.36,33.36,0,0,0,3.26,1.67,5.73,5.73,0,0,0,2.13.54l10.4.05c2,0,4,.05,5.95-.07,1.14-.07,2.13.55,3.26.47s1.87-.5,2.89-.48c4.22.08,8.43,0,12.64,0a5.63,5.63,0,0,1,1.81.26,3.08,3.08,0,0,0,1.82.11c2.18-.73,4.41-.27,6.61-.42,2.71-.19,5.44-.06,8.16-.1.86,0,1.72-.15,2.58-.23,1.13-.8,1.84-.05,2.52.69.42.46.77,1,1.17,1.47a5.73,5.73,0,0,1-2.08,3.41A4.13,4.13,0,0,1,569,30.38c-2.1,0-4.2,0-6.3,0a7.2,7.2,0,0,1-2.9-.36,4.46,4.46,0,0,0-1.83-.18c-.58,0-1.21.39-1.7.23a6.69,6.69,0,0,0-1.81-.25c-.74,0-1.48,0-2.23,0s-1.24,0-1.86,0-1.23-.08-1.85-.08h-7.43l-26.76.08c-1,0-2,0-3,0a2.8,2.8,0,0,0-1.73.52,1.49,1.49,0,0,1-.69.2c-1.61,0-3.22,0-4.83,0a1.29,1.29,0,0,1-.68-.23,2.89,2.89,0,0,0-1.74-.48c-2,0-4,0-5.95,0l-3.67-.12a1.15,1.15,0,0,0-1.19-.65c-4.7,0-9.41,0-14.12,0-1.11,0-2.23,0-3.34.08Z"/><path class="cls-2" d="M495.74,29.84c2,0,4,0,5.95,0a2.89,2.89,0,0,1,1.74.48,1.29,1.29,0,0,0,.68.23c1.61,0,3.22,0,4.83,0a1.49,1.49,0,0,0,.69-.2,2.8,2.8,0,0,1,1.73-.52c1,0,2,0,3,0,.06.23,0,.53.19.68a10.76,10.76,0,0,0,1.91,1.73,9.74,9.74,0,0,1,2.56,2.6c1,1.27,1.9,2.58,3,3.78a8.45,8.45,0,0,1,2.21,4.18,10.59,10.59,0,0,0,.85,2,3.85,3.85,0,0,1,.37,1c.19,2.14,1.22,4,2.05,5.88a6.39,6.39,0,0,0,2,2.62c1.37,1.06,2.71,2.15,4.11,3.16,1.7,1.22,3.42,2.4,5.18,3.54a5.12,5.12,0,0,0,3.48,1h.37A5.45,5.45,0,0,1,547,63.61c.74.66,1.37,1.43,2.08,2.11a4.3,4.3,0,0,1,1.11,3.06,2.92,2.92,0,0,1-.69,2,14.9,14.9,0,0,1-6.08,4.72,10.53,10.53,0,0,0-4,2.47,9.56,9.56,0,0,1-1.21.83c-.6.43-1.18.88-1.76,1.34a.72.72,0,0,0-.22.94c.57.84.52,1.89,1.06,2.75a3.07,3.07,0,0,1,.27,1.43,8.06,8.06,0,0,0,.5,2.52,2.78,2.78,0,0,1-.15,2.16c-.53,1.1-.7,2.35-1.62,3.28a7.49,7.49,0,0,0-.89,1.6,8,8,0,0,1-.8,1.24c-.73.84-1.5,1.64-2.28,2.44a7.16,7.16,0,0,1-1.81,1.26,4.2,4.2,0,0,0-2,2.11,3,3,0,0,1-1.51,1.55c-.66.33-1.31.7-2,1a8.25,8.25,0,0,0-4,3.69c-.53,1-1.19,1.87-1.8,2.79a19.54,19.54,0,0,1-2,2.67,13.77,13.77,0,0,0-.75,1.25c-1,1.28-1.82,2.64-2.84,3.89a23.88,23.88,0,0,0-3.57,6,3.6,3.6,0,0,0-.08,1.1l-2.53-.1c-.9-.81-2-.61-3.09-.68a6.46,6.46,0,0,1-2.5-1.24,4,4,0,0,1-.22-1.06c.76-1.68,1.59-3.34,2.24-5.06a7,7,0,0,1,1-2,24.9,24.9,0,0,1,1.41-2.15c.74-.79.73-1.82,1.1-2.72a10.93,10.93,0,0,1,1.55-2.89,19.48,19.48,0,0,0,2.82-4.32c.77-1.71,2.36-2.85,3.16-4.54.14-.31.53-.52.82-.74.49-.37,1-.71,1.49-1.07a30.59,30.59,0,0,1,3.23-2.47c1.28-.69,2.1-2.07,3.39-2.84a.72.72,0,0,0,.2-.3.41.41,0,0,0-.2-.6c-.79-.39-1.7-.06-2.51-.52s-2-.94-3-1.43a9.58,9.58,0,0,1-4.37-4.39,4,4,0,0,1-.36-2.16A.79.79,0,0,1,514,82a.86.86,0,0,1,.68.13,3.41,3.41,0,0,1,1.25,1.33A4.9,4.9,0,0,0,519.37,86c1.31.33,2.6.79,3.92,1a18.28,18.28,0,0,0,3.31,0,.4.4,0,0,0,.37-.52,9.38,9.38,0,0,1-.76-3.58,9.38,9.38,0,0,0-.42-2.16,6.6,6.6,0,0,1,1.81-6.47,17.34,17.34,0,0,1,4-3.29c.2-.1.33-.36.56-.62a21.11,21.11,0,0,1-3.64-2.94,7.73,7.73,0,0,0-1.8-1.28c-2.19-1-3.71-2.83-5.65-4.15-.76-1.12-1.52-2.24-2.29-3.35-.28-.41-.59-.8-.87-1.21a2.74,2.74,0,0,1-.52-1,11.29,11.29,0,0,0-1.69-4.08,4.31,4.31,0,0,1-.64-2.46,2.67,2.67,0,0,0-.14-1.09,31.51,31.51,0,0,0-3.5-6.06c-.48-.7-1.11-1.3-1.64-2A17.47,17.47,0,0,0,507.52,39a9.94,9.94,0,0,0-3.86-2.14,5.74,5.74,0,0,1-2.89-1.49,1.11,1.11,0,0,0-.67-.26,2,2,0,0,1-1.57-.87C497.6,32.74,496.37,31.48,495.74,29.84Z"/><path class="cls-1" d="M704.22,937.65a5.68,5.68,0,0,1-2.81,2.22,13,13,0,0,0-3.18,1.73c-1,.78-2.21,1.09-3,2.08a1.28,1.28,0,0,1-1,.37,2.93,2.93,0,0,0-2.61,1.09,5.73,5.73,0,0,1-2.11,1.43c-1.33.57-2.6,1.31-3.9,2a19.18,19.18,0,0,0-2.82,1.67,18.58,18.58,0,0,1-3.49,1.95,12.82,12.82,0,0,0-3.46,2c-.25.23-.67.24-1,.36s-.81.13-1,.36c-.9,1.06-2.4,1.26-3.27,2.34A32.14,32.14,0,0,0,667,959a36.52,36.52,0,0,1-4.4,2.56c-.77.36-1.51.78-2.27,1.17a1.77,1.77,0,0,1-1.12-.89,11.82,11.82,0,0,0-1.42-2.11c-.59-.6-.77-1.51-1.41-2.12a6.74,6.74,0,0,1-1.34-1.73,12.17,12.17,0,0,0-1.61-2c-.63-.74-.85-1.77-1.68-2.38s-.91-1.44-1.44-2.09-1.06-1.63-1.65-2.4a16.29,16.29,0,0,1-1.36-2.16,13.1,13.1,0,0,1-.54-1.35c.69-.25,1.49,0,2.15-.41.82-.52,1.81-.74,2.46-1.57a5.64,5.64,0,0,1,2.08-1.44,5.58,5.58,0,0,0,2.42-1.61,5.07,5.07,0,0,0,2.39-1.65c.71-.88,1.92-1,2.66-1.91s1.4-1.39,2.1-2.09,2-1,2.68-1.89a7.49,7.49,0,0,1,2.74-1.77,7.46,7.46,0,0,0,1.23-.77c1-.73,1.52-2,2.84-2.27.81-.76,1.62-1.52,2.42-2.29s1.76-1.72,2.65-2.58c.27-.26.56-.49.83-.74s.69-.21,1.05-.29a1.19,1.19,0,0,0,.64-.26,17.75,17.75,0,0,1,1-1.48c1-1,1.82-2.35,3.35-2.79a1.55,1.55,0,0,0,.57-.46c1.05-1,1.94-2.23,3.41-2.73l2.37-2.34a1.55,1.55,0,0,1,1.37-.35c.21.09.56.12.62.27.92,2.25,2.65,4,3.49,6.34.62.55.33,1.4.68,2.05s.66,1.29,1,1.94a6.68,6.68,0,0,1,.93,2c.09.9.66,1.57.8,2.39a14.27,14.27,0,0,0,.56,1.71c.28.93,1.15,1.62,1,2.69a5.72,5.72,0,0,1,.77,2.78,2.45,2.45,0,0,0,.35,1,8,8,0,0,1,1,2.32C703.46,936.17,704.22,936.76,704.22,937.65Z"/><path class="cls-2" d="M447.59,29l13.25,0c1,0,2,.05,2.93.07-.18.16-.35.42-.54.45-.61.08-1.23.05-1.84.11-1,.09-1.38.45-1.39,1.33,0,.49,0,1,0,1.48,0,.74.11,1.48.16,2.22.81,1,.37,2.4,1,3.53a22,22,0,0,1,1.32,3.42,25.3,25.3,0,0,1,.95,2.78A18.19,18.19,0,0,1,463.7,47a1.48,1.48,0,0,0,0,.37c.65,1.65.53,3.39.73,5.1a14.67,14.67,0,0,0,1.27,3.82,20.8,20.8,0,0,1,1.8,4.43,5,5,0,0,1,.67,2.84l.18,3.33c.59.73.26,1.35-.17,2-.33.49.08,1.38-.55,1.66-1.44.65-1.55,2.12-2.13,3.27a5,5,0,0,1-1.71,2.32,1.52,1.52,0,0,0-.78,1.2,3.38,3.38,0,0,1-1.23,2.19c-.32.33-.39.93-.73,1.23a4,4,0,0,1-1.6.88,2.29,2.29,0,0,0-1.7,1.3c-.37,1.07-1.25,1.43-2,2-1.1,0-1.57,1.15-2.55,1.41a.82.82,0,0,0-.54.45c-.28.9-1.08.85-1.76,1.1a11.73,11.73,0,0,0-2,1c-.63.35-1,1.09-1.89,1s-1.24.73-1.95,1a17.15,17.15,0,0,0-3.66,1.77,2.55,2.55,0,0,1-1,.39,7.88,7.88,0,0,0-3.06,1.17c-1.66,1-3.62,1.25-5.28,2.21-.69-.54-1.11,0-1.59.38a2.17,2.17,0,0,1-1,.52,9.56,9.56,0,0,0-3.07,1.23,2.06,2.06,0,0,1-2.09,0,.75.75,0,0,0-.66-.06,3.57,3.57,0,0,1-2.48.53c-.74-.06-1.48-.07-2.23-.1l-3-.11c-.81-.65-1.91-.49-2.78-1a1.28,1.28,0,0,0-1.05,0,2.65,2.65,0,0,1-1.79-.9c-.05-.08,0-.31,0-.35,1.35-.87,2.75-1.62,4-2.6.47-.37,1-.66,1.49-1.06a4.06,4.06,0,0,1,2.56-1.37.64.64,0,0,0,.33-.16c1.71-1.54,3.92-2,6-2.74a13.42,13.42,0,0,0,2.37-1,13,13,0,0,1,2.44-.84,47.45,47.45,0,0,0,5.08-2.15c1.09-.6,2.35-.72,3.43-1.35a23.5,23.5,0,0,1,3.36-1.49,27.93,27.93,0,0,0,3.92-2,6.14,6.14,0,0,1,2-1,3.51,3.51,0,0,0,1.25-.74c.6-.44,1.15-1,1.77-1.35s1.55-.77,2.26-1.24c1.14-.75,1.88-2,3.12-2.61,1.15-1.29,2.33-2.56,3.44-3.89a23.75,23.75,0,0,0,2.17-3A15.94,15.94,0,0,0,463,62a5.18,5.18,0,0,0-.13-2.94c-.32-.93-.68-1.85-1.06-2.76-.66-1.59-1.19-3.22-1.74-4.85a8,8,0,0,1-.66-3.23c0-.37-.07-.75,0-1.11.2-1.89-.52-3.65-.8-5.47-.13-.83-.62-1.58-.73-2.47a16.89,16.89,0,0,0-.68-2.48,16.12,16.12,0,0,1-.86-3.58A7.27,7.27,0,0,0,455.6,31c-.06-.15-.36-.22-.57-.29a2,2,0,0,0-.18.3,4.73,4.73,0,0,0-.19,1.83c0,.36,0,.87-.15,1.06-1,.93-.63,2.09-.63,3.17,0,2,.09,3.95.17,5.93a2.49,2.49,0,0,0,.27,1.07,4.5,4.5,0,0,1,.41,1.79c.13,1.34-.2,2.74.59,4l.09,4.44c-.46.86-.57,1.91-1.39,2.57a1.92,1.92,0,0,0-.68,2,1.88,1.88,0,0,1-.33,1.41c-.49.7-1,1.42-1.49,2.11a2.74,2.74,0,0,0-.52,1.37,1.76,1.76,0,0,1-.74,1.24,6.15,6.15,0,0,0-1.85,1.71c-.21.34-.66.27-1,.3a.94.94,0,0,0-.94.93,3.48,3.48,0,0,1-.07.73c-.26.71-1.24.66-1.48,1.53a2,2,0,0,1-1.56,1.43c-.43.09-.79.54-1.16.86-.56.49-1.09,1-1.64,1.51a1.71,1.71,0,0,1-1.37.43.49.49,0,0,0-.57.35,1.6,1.6,0,0,1-1.7,1.1,3.4,3.4,0,0,0-2,.9,20.77,20.77,0,0,1-7.07,3.76,2.84,2.84,0,0,0-1.25.76A3.54,3.54,0,0,1,424,82.4c-1.67,0-3.08.75-4.63,1.1-.35.08-.67.43-1,.43-2,0-3.81,1.06-5.81,1-1.17.37-2.33.81-3.52,1.1a11.08,11.08,0,0,0-4.48,2.28c-.37-.19-.71-.36-1-.54a2.13,2.13,0,0,1-.85-2.24,1.26,1.26,0,0,1,.43-.6,11.39,11.39,0,0,1,1.28-.72,57.57,57.57,0,0,0,8-4.59c1.81-1.27,3.81-2.27,5.63-3.54s3.81-2.25,5.71-3.4a64.05,64.05,0,0,1,6.09-3.46,2,2,0,0,0,.62-.41c1.22-1.26,2.84-1.91,4.26-2.86A37.34,37.34,0,0,0,438.53,63,10.26,10.26,0,0,1,441.12,61a1.69,1.69,0,0,0,.76-.78,11.25,11.25,0,0,1,1.54-2.07,21.91,21.91,0,0,0,3.25-4.91,6.21,6.21,0,0,1,1-1.55,2.44,2.44,0,0,0,.5-1.37,7.2,7.2,0,0,1,.57-2.89,20.56,20.56,0,0,0,0-5.54,5.73,5.73,0,0,1-.46-2.52,8,8,0,0,0-.15-1.85c-.82-2.16-.52-4.39-.49-6.6C447.6,30.26,447.59,29.64,447.59,29Z"/><path class="cls-2" d="M269.44,663.24a1.66,1.66,0,0,0-.33-1.37,1.48,1.48,0,0,1-.42-1c0-2,.09-3.94-.05-5.89a4.89,4.89,0,0,1,.8-2.73,16.89,16.89,0,0,0,3.1-5.71,2.77,2.77,0,0,1,.47-1,5.6,5.6,0,0,0,1.07-2.27,4.72,4.72,0,0,1,1-1.94,23,23,0,0,0,2.88-5.43c.58-.4,1-.94,1.9-.87,1.45.13,2.92,0,4.39.07.53,0,.84.41,1.1.83a12.85,12.85,0,0,1-.55,1.76c-.89,1.89-1.87,3.74-2.74,5.64a22.65,22.65,0,0,0-1.54,3.35,21.23,21.23,0,0,1-1.52,3.34c-.53,1.11-1.08,2.21-1.63,3.31l-1.7,3.28a1.46,1.46,0,0,0,.16,1.72c.32.37.66.74,1,1.1.92,1,1.63,1.43,2.8.27.78-.78,1.85-.66,2.68-1.19a10.5,10.5,0,0,1,2.4.7,4.4,4.4,0,0,1,.91.64,18.07,18.07,0,0,1,1.62,1.53,7.38,7.38,0,0,0,2,1.6c1.19.64,2,1.85,3.27,2.41a.79.79,0,0,0,.95-.17,4.81,4.81,0,0,0,.57-.94,2.13,2.13,0,0,1,.91-1.13,3.46,3.46,0,0,1,1-.49,18.07,18.07,0,0,1,4.39.3,1.86,1.86,0,0,1,1.13.89,5.44,5.44,0,0,1,.2.72,4.61,4.61,0,0,0,2.6,2.93,3.08,3.08,0,0,0,2.12.34,12.87,12.87,0,0,0,2.08-.74.8.8,0,0,0,.53-.87,1.84,1.84,0,0,1,.63-1.66,3.22,3.22,0,0,1,1.87-1.13c1.23-.08,2.47-.09,3.7-.14a3.17,3.17,0,0,0,1.08-.15c2.37-1,4.79-1.86,7.18-2.8a1.12,1.12,0,0,0,.65-1.2,4.15,4.15,0,0,0-.32-1.42,15.39,15.39,0,0,1-1.59-4.5,14.68,14.68,0,0,1-.42-2.53,61.87,61.87,0,0,1,0-8.17,3.22,3.22,0,0,1,.82-2,13.43,13.43,0,0,1,1.36-1.25,1.57,1.57,0,0,1,.65-.34,5.2,5.2,0,0,1,4.5,1.1,1.55,1.55,0,0,1,.64,1.29c-.14,1.39.75,2.58.61,4a20.89,20.89,0,0,0,.22,3.69,10.44,10.44,0,0,0,2.17,5.77c.23.29.54.53.75.83,1.22,1.8,2,3.67.85,5.84-.22.42-.19,1-.39,1.41a7.73,7.73,0,0,1-3.85,4.3c-1.24.55-2.43,1.14-3.73,1.57a13,13,0,0,1-5.49.41c-.34,0-.65-.34-1-.49s-.73.25-.89.5c-.5.77-.27,1.7-.57,2.55-.86,1.14-1.73,2.34-2.65,3.49a1.75,1.75,0,0,1-1.28.66,5.34,5.34,0,0,0-2.87.51,6.93,6.93,0,0,1-4.57,1.11c-.37,0-.75,0-1.12,0l-3.7-.16c-1.47-.9-3.2-1.33-4.49-2.54a1.19,1.19,0,0,0-.34-.16,7.1,7.1,0,0,1-2.45.68,3.2,3.2,0,0,0-1.8.29,1.21,1.21,0,0,1-1,.05,19.71,19.71,0,0,1-8.3-4.56c-.71-.68-1.42-1.38-2.17-2a4.72,4.72,0,0,0-3.33-1.36c-.49,0-1,0-1.48,0-1,0-1.83-.73-2.84-.74a15.43,15.43,0,0,1-1.79-1.3A16.23,16.23,0,0,0,269.44,663.24Z"/><path class="cls-1" d="M352,955.37a2.38,2.38,0,0,0-.37-.06c-.66,0-1.08-.62-1.66-.75a8.15,8.15,0,0,0-1.85,0,2.28,2.28,0,0,1-1.36-.49A1.62,1.62,0,0,0,345,954c-.69.39-1.27.7-2,.08a1.72,1.72,0,0,0-1-.26c-6.69,0-13.38,0-20.08,0H314a2.32,2.32,0,0,1-1.41-.34,2,2,0,0,0-2.41.06,1.76,1.76,0,0,1-2.07-.08,1.25,1.25,0,0,0-1.67.12.86.86,0,0,1-1,.06,4.64,4.64,0,0,0-4.23-.07,4.93,4.93,0,0,1-3.24,0,5.57,5.57,0,0,1-1-.5c2-3.93,3.95-7.85,5.88-11.81a5,5,0,0,0,.87-2.39c0-.31.33-.64.56-.93a6.83,6.83,0,0,0,1.6-3.24,1.55,1.55,0,0,1,.45-1,7.87,7.87,0,0,0,1.36-2.16,40.2,40.2,0,0,1,1.85-3.57,3.36,3.36,0,0,0,.72-1.66c0-1.18,1.1-2,1-3.14a3,3,0,0,1,2.65,1c.3.4.85.44,1.25.68a9.14,9.14,0,0,1,3,2.09c.61.84,1.72.88,2.48,1.5a2.71,2.71,0,0,1,2.52,1.25,6.38,6.38,0,0,0,2.43,1.58,10.81,10.81,0,0,1,3.94,2.57,2.39,2.39,0,0,0,1.65.66,1.58,1.58,0,0,1,.94.5,9.59,9.59,0,0,0,2.17,1.35c1,.64,2.3.85,3.15,1.76s2,.92,2.71,1.84c.32.41.89.33,1.34.48a25,25,0,0,1,3.9,1.89c.57.9,1.62,1.07,2.45,1.56a8,8,0,0,1,1.82,1.18,1.55,1.55,0,0,0,.93.51,2.89,2.89,0,0,1,2,.85,7.67,7.67,0,0,0,1.23.76,1.25,1.25,0,0,1,.49,1.28.72.72,0,0,0,.58.8,1.07,1.07,0,0,1,1,.93c-.07.36,0,.82-.22,1.05-.81.94-1.72,1.78-2.55,2.7A17.57,17.57,0,0,0,352,955.37Z"/><path class="cls-2" d="M465.28,29.08l8.14,0c0,.37.17.62.58.65,0,1.25.67,2.37.79,3.6s.16,2.72.24,4.08a2.28,2.28,0,0,0,.08.74c.47,1.17.32,2.47.69,3.63a14.07,14.07,0,0,1,.7,3.61,3.82,3.82,0,0,0,.21.71,17.26,17.26,0,0,1,1.17,5,1.69,1.69,0,0,0,.17.71,6.56,6.56,0,0,1,.62,2.88c.05,1,.72,1.85.69,2.87a17.26,17.26,0,0,0,.63,2.87c.19,1.46,0,3,.75,4.34l.18,3.71a8.7,8.7,0,0,0,.17,2.57,10.61,10.61,0,0,1,.42,3.65.74.74,0,0,1,0,.37c-.1.22-.2.54-.37.61-1.05.37-1.13,1.33-1.08,2.13.1,1.88-1,3.21-1.83,4.71-1.13.31-1.32,1.38-1.76,2.22a4.7,4.7,0,0,1-1.06,1.5,3.25,3.25,0,0,0-.77,1.22A5.68,5.68,0,0,0,474,90c0,.36-.26.59-.65.76a7.89,7.89,0,0,0-1.15.89,2.19,2.19,0,0,0-1,1.89,1.07,1.07,0,0,1-1.18,1.13,1.92,1.92,0,0,0-1.33.56c-.15.15-.36.47-.31.57a.91.91,0,0,1-.44,1.47,3.59,3.59,0,0,0-2.06,1.42.9.9,0,0,1-.65.31,3.27,3.27,0,0,0-2,.88c-.76.61-1.58,1.16-2.4,1.71a20.07,20.07,0,0,0-2.44,2.27,4.35,4.35,0,0,1-.6.43,2,2,0,0,0-.64.26c-1,.89-1.95,1.81-2.89,2.7-.57,0-1.05,0-1.53,0a2.36,2.36,0,0,0-1.41.21c-.76.55-1.86.56-2.39,1.48a1.39,1.39,0,0,0-.09.35,4.32,4.32,0,0,0-1.4.41,16.12,16.12,0,0,1-3.77,2.24c-.32.12-.55.48-.82.72s-.53.55-.95.5c-1.16-.14-2,.95-3.13.88-1,.81-2.29.87-3.3,1.55-.38.26-.59.14-.92,0a1.47,1.47,0,0,0-1.05,0,2.76,2.76,0,0,1-1.73.48,3.67,3.67,0,0,0-1.76.49,3.53,3.53,0,0,1-1.42.31c-1.48,0-2.95-.12-4.43-.21a.37.37,0,0,1-.3-.18c-.05-.21-.13-.53,0-.66a8.42,8.42,0,0,1,1.29-1.31c1.86-1.41,3.71-2.84,5.64-4.15,2.13-1.45,4.16-3,6.41-4.32.32-.18.54-.57.87-.69,2.1-.78,3.71-2.39,5.75-3.3a31.22,31.22,0,0,0,5.1-2.94,31.22,31.22,0,0,1,4.77-2.78,28.76,28.76,0,0,0,2.8-1.77,30.52,30.52,0,0,1,2.68-2c1-.47,1.69-1.41,2.72-1.88,1.22-.56,1.87-2,3.24-2.4a1.62,1.62,0,0,0,.73-.81A4.32,4.32,0,0,1,467,86a6.67,6.67,0,0,0,1.67-2.39c.37-.78.86-1.5,1.3-2.24.12-.21.36-.41.38-.62.11-1.6,1.46-2.54,2.05-3.87a19.63,19.63,0,0,0,3.49-8c.41-1.82.86-3.58.05-5.42a5.32,5.32,0,0,1-.11-1.46c-.16-1.34,0-2.74-.72-4,0-2-1-3.81-.92-5.81-.45-1.29-.48-2.66-.8-3.95s-.42-2.43-.77-3.59-.46-2.67-.95-3.93a4.65,4.65,0,0,1-.23-1.06c-.23-1.57,0-3.22-.76-4.72,0-1.11-.05-2.22-.11-3.34a7.07,7.07,0,0,0-.22-1.44c-.06-.2-.31-.49-.48-.5-1.23-.05-2.47,0-3.7-.05A1,1,0,0,1,465.28,29.08Z"/><path class="cls-2" d="M527.66,132c.18.15.36.43.55.44,1,.08,2,.08,3,.12.54,0,.8.36,1.11.79.56.76,1.41,1.22,1.86,2.17a5,5,0,0,0,2.47,2.16,4.94,4.94,0,0,1,1.47,1.06,13.65,13.65,0,0,0,1.29,1.34c.46.37,1,.58,1.54.93s.34.9.83,1.14a12.16,12.16,0,0,1,1.25.75c.31.21.54.58.86.7a10.63,10.63,0,0,1,2.56,1.36,21.84,21.84,0,0,1,2.15,2,6.89,6.89,0,0,0,3.49,1.88c.23.07.47.12.7.2a.64.64,0,0,1,.3.2c.63,1,2,1.09,2.66,1.93a13.53,13.53,0,0,0,2.65,1.92,5,5,0,0,0,2.3,1.05c.68.1,1.22.73,2,.77a2.52,2.52,0,0,1,1.22.76,2.39,2.39,0,0,0,1.65.71,1.07,1.07,0,0,1,.68.22,11.9,11.9,0,0,0,3.11,1.93,5.17,5.17,0,0,1,1,.51,5.7,5.7,0,0,0,1.83,1.16,7.27,7.27,0,0,0,1.69.63,2.89,2.89,0,0,1,1.54,1,1.73,1.73,0,0,0,1.35.51,1.25,1.25,0,0,1,1,.41,5.39,5.39,0,0,0,1.83,1.18,5.65,5.65,0,0,0,1.7.61,1.35,1.35,0,0,1,.66.27c.7.47,1.22,1.25,2.22,1.19.77,0,1.23.79,2,.75a1.49,1.49,0,0,1,1,.39,8.59,8.59,0,0,0,2.12,1.43c.75.35,1.24,1.18,2.16,1.36a1.91,1.91,0,0,1,.86.68,7.93,7.93,0,0,0,2.69,1.91,2.7,2.7,0,0,1,1.51,1.44,2.16,2.16,0,0,0,1.11.92,2.83,2.83,0,0,1,1.4,1.14.82.82,0,0,1,.08.68.94.94,0,0,1-.58.39,1.08,1.08,0,0,1-.73,0c-.86-.48-1.93-.48-2.72-1s-2-.19-2.76-1c-1-.16-1.83-.73-2.76-.9a18.44,18.44,0,0,1-2.71-1.08c-.91-.33-1.71-1.06-2.67-1.14s-1.5-.86-2.43-.85-1.58-.62-2.34-1c-4.28-2.1-8.53-4.26-12.79-6.39a9.46,9.46,0,0,0-1.67-.72,5.74,5.74,0,0,1-1.38-.46c-.74-.43-1.59-.67-2.29-1.16-1.51-1.05-3.2-1.79-4.69-2.85a15.62,15.62,0,0,0-2.23-1.28,40.44,40.44,0,0,1-5.3-3.25,18,18,0,0,0-1.57-.93,9.38,9.38,0,0,1-2.73-1.86,2.57,2.57,0,0,0-1.52-1c-1.48-1.29-3.3-2.13-4.69-3.59-.92-1-2.21-1.52-3.18-2.5a9.45,9.45,0,0,0-2.83-2.34,4.08,4.08,0,0,1-1.11-1c-1.85-1.82-3.69-3.67-5.55-5.49-1-1-1.45-2.28-2.37-3.28-.24-.26-.05-.59.6-1.13.23,0,.46.06.69.06A4.62,4.62,0,0,1,527.66,132Z"/><path class="cls-1" d="M259.09,822.84c-.39.64-.42.64-.93,0Z"/><path class="cls-2" d="M466.17,274.81a4.51,4.51,0,0,1,2,2.1c.06.15-.16.42-.28.61a.48.48,0,0,1-.3.21c-.62,0-1.24,0-1.86,0h-51c-.75,0-1.49,0-2.23,0a2.15,2.15,0,0,0-1,.44.86.86,0,0,1-1,.12,3.31,3.31,0,0,0-2.07-.6c-6.95,0-13.89,0-20.83,0A2.11,2.11,0,0,1,386,277a1.59,1.59,0,0,1-.39-1.37c0-.31.39-.84.6-.85l1.11,0H465.8A2.52,2.52,0,0,1,466.17,274.81Z"/><path class="cls-2" d="M503.64,41.31c.27.54.56,1.08.8,1.64a1,1,0,0,1,.08.72,13.14,13.14,0,0,0-.58,4,2.05,2.05,0,0,1-.55.93.65.65,0,0,1-.94.19.57.57,0,0,0-.67,0c-.43.24-.87.48-1.35.08a1.93,1.93,0,0,1-.89-1.54c0-.61,0-1.23,0-1.85s-.58-1-1.31-.79a4.38,4.38,0,0,0-.71.19c-1,.47-2,1-3,1.45-.89,1.14-2.35,1.24-3.5,1.92a1.8,1.8,0,0,1-2.48-.9.68.68,0,0,1,.08-.65,38.16,38.16,0,0,1,3.72-3,20.63,20.63,0,0,1,5.26-2.6c.24-.07.53,0,.72-.14,1.39-.92,2.54-.58,3.62.54C502.48,42,503.05,41.54,503.64,41.31Z"/></g></g></g></svg>