<?xml version="1.0" encoding="utf-8"?>
<!-- Generator: Adobe Illustrator 23.0.1, SVG Export Plug-In . SVG Version: 6.00 Build 0)  -->
<svg version="1.1" id="Layer_1" xmlns="http://www.w3.org/2000/svg" xmlns:xlink="http://www.w3.org/1999/xlink" x="0px" y="0px"
	 viewBox="0 0 289.1 632.3" style="enable-background:new 0 0 289.1 632.3;" xml:space="preserve">
<style type="text/css">
	.st0{fill:#787A62;}
	.st1{fill:#FFD84A;}
	.st2{fill:#CBCBCA;}
</style>
<title>Asset 5</title>
<g>
	<g>
		<path class="st0" d="M135.5,247.5c0.3-0.7,0.9-1.4,0.9-2.2c1.1-2.4,2.3-4.7,3.4-7.1c1.6-1.9,2.6-4.3,4.2-6.3
			c1.4-1.8,2.7-3.7,4-5.6c0.9-1.3,1.8-2.6,2.7-4c0.3-0.4,0.6-0.7,0.9-1c0.6-0.6,1.2-1.1,1.4-1.9c0.8-0.9,1.6-1.9,2.5-2.8
			c0.8-0.8,1.5-1.7,2.5-2.4c1-0.8,1.9-1.6,2.6-2.7c0.4-0.6,0.9-1.1,1.3-1.6c0.5-0.5,1-0.9,1.7-1.2c0.9-0.4,1.8-1,2.5-1.8
			c1.6-1.7,3.6-2.9,5.4-4.3c0.2-0.1,0.4-0.2,0.6-0.4c2.1-2.2,4.7-3.8,6.7-5.9c0.9-0.9,1.8-1.7,2.8-2.6c0.4-0.4,0.9-0.7,1.4-1
			c0.6-0.4,1.2-0.6,1.8-1.1c0.5-0.4,1-1,1.5-1.4c0.7-0.7,1.5-1.5,2.3-2.1c0.3-0.3,0.7-0.6,1.1-0.7c1.2-0.5,2.2-1.2,3.1-2.2
			c0.8-0.8,1.7-1.6,2.7-2.1c0.9-0.5,1.6-1.3,2.4-1.9c1.5-1.1,3.1-2,4.8-2.7c1.4-0.6,2.6-1.4,3.6-2.6c1.1-1.4,2.7-2.2,4.2-3
			c1.9-1,3.8-2.2,5.6-3.3c1.1-0.7,2.1-1.4,3.4-1.7c0.3-0.1,0.6-0.3,0.9-0.5c0.6-0.4,1.2-0.7,1.8-0.9c0.9-0.2,1.6-0.8,2.5-1.2
			c1.5-0.6,2.9-1.2,4.5-1.5c2-0.4,3.9-1.2,5.7-2.2c0.5-0.3,1-0.7,1.6-0.6c1.3,0.1,2.4-0.6,3.7-0.6c1.3,0,2.5,0,3.8,0
			c0.9,0,1.8,0.1,2.7,0.4c0.8,0.3,1.8,0.2,2.7,0.2c1.3,0,2.5,0,3.7,0.7c2.2,0,3.9,1.3,5.7,2.2c0.4,0.2,0.8,0.5,1.1,0.8
			c0.7,0.6,1.2,1.5,1.9,2c1.8,1.3,3.9,5,5.1,7.3c0.2,0.3,0.2,0.7,0.2,1c0.6,3.9,0.7,5.5,0.7,8.6c0,1.5,0.2,3-0.6,4.4
			c0.1,1.7-0.7,3.1-1,4.7c-0.2,1.3-0.7,2.6-1.3,3.9c-0.6,1.2-1.1,2.5-2,3.6c-0.8,1-1.1,2.3-2.3,3c-0.3,0.2-0.4,0.5-0.6,0.8
			c-0.6,1-1.4,1.8-2.4,2.3c-1.1,0.5-2.2,1.2-3.1,2.2c-0.5,0.6-1.2,1-1.9,1.4c-0.9,0.4-1.8,1-2.6,1.6c-0.5,0.4-1.2,0.8-1.9,0.8
			c-1.2,0.1-2.2,0.7-3.2,1.2c-0.8,0.4-1.6,0.9-2.5,1c-0.3,0-0.7,0.2-0.9,0.4c-1.3,1.1-3,1.7-4.5,2.5c-1.3,0.7-2.7,1.2-3.9,2.2
			c-0.7,0.6-1.8,0.3-2.5,1.2c-1.4,0.8-2.8,1.6-4.1,2.5c-0.4,0.3-0.8,0.4-1.2,0.6c-2.5,1.1-4.8,2.6-7.4,3.7c-1.5,0.7-2.8,1.5-3.7,3
			c-0.2,0.4-0.6,0.7-0.9,1c-1.5,1.4-2.7,3.1-3.7,4.9c-0.2,1.3-0.1,2.6-0.6,3.8c-0.2,0.4-0.1,0.9-0.2,1.4c-0.1,2.1,0,4.1-0.3,6.2
			c-0.1,0.4,0,0.9,0.1,1.4c0,1.7,0.1,3.5,0.1,5.2c0,1.1-0.1,2.3,0.5,3.4c0.3,2.6,0.3,5.3,0.1,7.9c-0.6,1-0.4,2.3-0.9,3.3
			c-0.1,0.2-0.3,0.4-0.3,0.6c0.1,1.8-1,3.2-1.6,4.8c-0.3,0.9-0.8,1.6-1.2,2.5c-0.9,1.9-2,3.6-3.5,5.1c-0.3,0.3-0.6,0.7-0.9,1
			c-2.1,2.7-2.8,3.4-5.5,5.6c-1,0.8-1.9,1.7-2.8,2.6c-0.8,0.7-1.5,1.4-2.5,1.8c-0.6,0.2-1.2,0.7-1.8,1.1c-0.5,0.3-1,0.6-1.6,0.7
			c-0.3,0.1-0.7,0.2-0.9,0.4c-1.9,1.6-4.3,2.2-6.3,3.4c-0.2,0.1-0.4,0.2-0.6,0.2c-1.3-0.1-2.5,0.4-3.7,0.6c-1.1,0.2-2.3,0.3-3.2,1.1
			c-0.3,0.3-0.8,0.3-1.3,0.5c-0.7,0.3-1.5,0.5-2.3,0.8c-0.6,0.3-1.3,0.5-1.9,0.7c-1.2,0.4-2.3,1-3.4,1.6c-0.7,0.3-1.4,0.7-2.2,1
			c-0.5,0.2-1.2,0.1-1.7,0.4c-0.9,0.5-1.8,1-2.6,1.6c-0.4,0.2-0.7,0.6-1.1,0.8c-1.1,0.6-2.3,1.1-3.3,1.8c-0.9,0.7-1.9,1.3-2.9,1.8
			c-0.4,0.2-0.8,0.5-1.1,0.8c-1.5,1.4-2.9,2.9-4.4,4.4c-0.8,0.8-1.2,1.9-2.1,2.7c-0.9,0.9-1.7,1.8-2.4,2.9c-0.6,1-1.3,1.9-1.9,2.8
			c-0.3,0.4-0.4,0.8-0.4,1.3c0,0.7-0.3,1.3-0.8,1.9c-0.6,0.6-0.8,1.4-0.7,2.2c0.2,2.3-0.1,4.6-0.1,6.9c0,0.5-0.2,0.9-0.5,1.3
			c-0.5,0.6-1.1,1.2-1.7,1.7c-1.3,0-2.7,0-4,0.1c-0.6,0-1.1-0.2-1.5-0.5c-0.4-0.3-0.8-0.2-1.3-0.2c-0.3-1.1-0.7-2.1-1.6-3
			c-0.2-0.2-0.3-0.6-0.3-0.9c0.1-1.7-0.1-3.4,0.2-5.1c0.6-0.1,1.1-0.3,1.1-1c0-0.7,0-1.4,0.1-2.1c1-1.1,0.6-2.4,0.6-3.6
			c0-2.4,0.1-4.8,0-7.2c0-0.8,0.4-1.3,0.7-1.9c0-3.8,0-7.6,0-11.4c-0.3-0.4-0.7-0.8-1.1-1.3c-0.1-0.2-0.3-0.4-0.3-0.6
			c0-0.7-0.2-1.4,0.3-2c0.3-0.4,0.4-0.8,0.4-1.3c0-1,0-2.1,0-3.1c0-0.3-0.1-0.7,0.2-1c0.5-0.6,0.5-1.2,0.5-1.9c0-1-0.2-2.1,0.6-2.9
			c0.1-1,0.2-2.1-0.8-2.8c-0.3-0.2-0.4-0.5-0.6-0.8c0-1.6,0-3,0-4.5c0-0.3,0.1-0.7,0.3-1c0.4-0.5,0.4-1,0.4-1.6c0-0.3,0-0.8,0.2-1
			c0.6-0.7,0.6-1.5,0.5-2.3c-0.1-0.7,0.2-1.3,0.6-1.9c0.1-0.1,0-0.5-0.1-0.6c-0.1-0.2-0.3-0.2-0.5-0.4c0-0.5,0-0.9,0-1.4
			c0.4-0.1,0.7-0.3,0.7-0.7c0-0.6,0.1-1.1,0.4-1.6c0.5-0.6,0.1-1.3,0.3-2c0-0.2,0.2-0.4,0.4-0.6c0.4-0.4,0.3-0.8,0.3-1.3
			c0.2-0.3,0.6-0.5,0.6-0.8c0-1.5,0.9-2.8,0.8-4.3c0.7-1,0.7-2.2,0.7-3.3l0,0c0.1,0,0.3-0.1,0.3-0.1c0.4-0.9,1.1-1.7,1-2.7
			c0-0.5,0-0.9,0.3-1.3c0.7-0.8,1.1-1.6,1.1-2.7c0-0.3,0.2-0.6,0.4-0.9C135.5,248.4,135.5,247.9,135.5,247.5z"/>
		<path class="st0" d="M129.4,495.3c0-0.2-0.1-0.5,0-0.7c0.5-0.9,0.7-1.9,0.6-3c-0.1-1.3,0-2.5,0-3.8c0-0.7-0.2-1.3-0.5-2
			c-0.4-0.9-1.1-1.8-1-2.9c0-0.3-0.2-0.7-0.4-0.9c-0.9-1.1-1.3-2.4-2.1-3.6c-0.8-1.1-1.6-2.2-2.4-3.4c-1.5-2.2-3.2-4.2-5.1-6.1
			c-0.5-0.5-1-0.9-1.6-1.3c-0.5-0.3-1-0.6-1.4-1c-0.6-0.7-1.4-1.1-2.2-1.6c-0.7-0.4-1.4-0.8-2-1.4c-0.9-0.9-2.1-1.4-3.2-2
			c-1.2-0.6-2.5-1.2-3.7-1.8c-1.5-0.8-3.2-1.1-4.7-2.1c-0.9-0.2-1.7-0.7-2.5-1.2c-0.9-0.5-1.8-0.9-2.9-1c-1-0.1-1.9-0.8-3-0.6
			c-0.1,0-0.2,0-0.3,0c-1.7-1-3.6-1.6-5.1-2.9c-0.7-0.6-1.5-1-2.3-1.5c-1.9-1.1-3.7-2.2-5.2-3.9c-0.9-1-2.1-1.9-2.9-3
			c-0.8-1.2-1.8-2-2.7-3.1c-1-1.3-1.9-2.6-2.9-3.9c-0.3-0.5-0.6-1-0.9-1.5c-0.5-0.9-1-1.8-1.3-2.8c-0.4-1.2-0.9-2.4-1.4-3.5
			c-0.5-1-0.9-2.1-0.9-3.3c0-0.2,0-0.5-0.1-0.7c-0.6-1-0.6-2.2-0.7-3.3c-0.1-0.8-0.1-1.6-0.4-2.4c-0.4-1.1-0.3-2.3,0-3.4
			c0.2-0.8,0.3-1.6,0.4-2.4c0.1-2.8,0.2-5.5,0.2-8.3c0-0.6,0.1-1.1,0.3-1.7c0.1-0.3,0.1-0.7,0-1c-0.4-0.8-0.4-1.5-0.4-2.4
			c0-1.4-0.1-2.8,0-4.1c0.1-1.6-0.6-3.1-0.7-4.7c-0.5-1-0.8-2.2-1.5-3.1c-1.3-1.7-2.5-3.6-4.1-5.1c-0.4-0.4-0.9-0.7-1.4-1
			c-1.6-0.8-3.3-1.7-4.7-2.9c-0.6-0.5-1.3-0.4-1.9-0.8c-0.5-0.3-0.9-0.7-1.4-1c-0.1-0.1-0.2-0.1-0.3-0.1c-2.1-2-4.9-3-7.2-4.7
			c-0.5-0.3-1-0.6-1.5-0.8c-0.8-0.4-1.7-0.8-2.4-1.3c-1.6-1.3-3.6-2-5.4-3c-0.5-0.3-1-0.5-1.5-0.8c-0.6-0.3-1.3-0.4-1.9-0.7
			c-1-0.6-1.9-1.3-2.8-2c-0.7-0.6-1.5-1.1-2.1-1.8c-0.3-0.3-0.6-0.6-1-0.9c-1.6-1.1-3.2-2.3-4-4.2c-0.9-0.8-1.3-1.8-1.9-2.8
			c-1.4-2.4-1.6-2.7-2.2-5.7c-0.1-0.3-0.2-0.6-0.3-1c-1-3.3-2-6.6-1.8-10.1c0-0.7-0.7-1.3-0.1-1.9c0-0.7,0.1-1.4,0.1-2.1
			c0-0.7,0.1-1.4,0.1-2.1c0-0.9,0.1-1.8,0.1-2.8c0-0.3,0-0.7,0.2-1c0.6-0.9,0.9-1.8,1.3-2.8c0.3-0.9,0.8-1.7,1.2-2.4
			c0.4-0.7,1-1.3,1.5-1.9c0.8-0.8,1.6-1.6,2.2-2.7c0.3-0.5,0.7-0.9,1.2-1.2c0.8-0.6,1.7-1.1,2.7-1.6c1.2-0.6,2.6-0.7,3.9-1.3
			c0.5-0.2,1.1-0.1,1.7-0.2c1-0.1,2.1,0,3-0.5c0.3-0.2,0.7-0.1,1-0.2c0.5,0,0.9,0,1.4,0c1.2,0,2.3,0,3.5,0c0.9,0.6,2,0.4,3,0.6
			c0.3,0.1,0.7,0.2,0.9,0.4c1.4,1.2,3.3,1.6,4.9,2.4c1.4,0.1,2.6,0.9,3.8,1.5c1,0.4,2,1.1,3.1,1.4c1.1,0.4,1.9,1.2,3,1.7
			c1.3,0.7,2.6,1.4,3.7,2.4c0.8,0.7,1.6,1.3,2.6,1.7c1.2,0.5,2,1.5,3.1,2.1c0.6,0.3,1.1,0.8,1.4,1.5c0.6,1.2,1.6,1.9,2.8,2.5
			c1.4,0.7,2.8,1.5,4.1,2.5c0.2,0.1,0.4,0.2,0.6,0.4c0.8,0.8,1.5,1.7,2.5,2.3c0.9,0.7,1.7,1.6,2.5,2.4c0.3,0.3,0.6,0.8,1,0.9
			c1.7,0.7,2.7,2.1,3.9,3.3c1,1,2,1.9,3,2.9c1.4,1.3,3.1,2.4,4.1,4.1c0.2,0.3,0.5,0.5,0.7,0.7c0.7,0.7,1.4,1.6,2.2,2.1
			c0.9,0.6,1.2,1.6,2.1,2.2c0.5,0.3,0.8,0.8,1.3,1.1c1.8,1.1,3.2,2.7,4.6,4.1c0.7,0.7,1.4,1.4,2.4,1.9c0.6,0.3,1,0.9,1.5,1.4
			c0.4,0.5,0.7,1.2,1.2,1.7c2,2,3.6,4.2,5.4,6.2c0.5,0.6,1.1,1.2,1.2,2c0,0.3,0.3,0.6,0.5,0.9c0.7,0.7,1.3,1.6,1.8,2.5
			c0.8,1.4,1.6,2.8,2.5,4.1c1.3,2,2.4,4.2,3.7,6.2c0.6,1,1.2,1.9,1.7,3c0.5,1,1.3,1.9,1.5,3.1c1.6,3.1,2.7,6.3,3.8,9.5
			c0.1,0.3,0.3,0.6,0.3,1c0,1,0.5,1.8,0.8,2.6c0.2,0.4,0.5,0.8,0.5,1.2c0.1,2.2,1.4,4.1,1.5,6.3c0,0.6,0.5,1.3,0.5,2
			c0,1.7,0.5,3.4,1.1,5c0.1,0.2,0.2,0.4,0.2,0.6c0,1.6,0.8,3.1,0.8,4.7c0,1,0,2.1,0.5,3c0.2,0.4,0.1,0.9,0.2,1.4
			c0,0.9,0.1,1.8,0.5,2.7c0.4,1.2,0.2,2.5,0.8,3.7c0.1,0.3,0.1,0.7,0,1c-0.3,0.8-0.4,1.5-0.4,2.4c0,0.8-0.1,0.8-0.9,2.2
			c0.1,1,0.1,2,0.2,3.1c0.1,0.8,0.4,1.5,0.5,2.3c0.1,0.7,0,1.4,0.3,2c0.3,0.9,0.4,1.8,0.4,2.7c0,1.6,0.1,3.2,0.1,4.8
			c0,0.5-0.3,0.8-0.8,1c-0.5,0.1-0.6,0.4-0.5,0.9c0.4,1.8,0.6,3.6,0.5,5.4c0,1.1,0,2.3,0,3.4c-0.2,0.1-0.4,0.2-0.5,0.4
			c-0.2,0.7-0.3,1.4,0.1,2c0.5,0.7,0.5,1.5,0.5,2.3c0,3,0,5.9,0,8.9c0,0.7,0.1,1.3,0.5,1.9c0.2,0.2,0.2,0.6,0.2,1
			c0,0.3-0.1,0.8,0.1,1c0.7,0.8,0.6,1.7,0.7,2.6c0,0.5,0.5,0.7,0.9,0.8c-0.1,0.8-0.3,1.6-0.3,2.3c0.1,1-0.3,1.8-0.8,2.5
			c-0.5,0.9-1.1,1.7-1.7,2.5c-0.1,0.1-0.2,0.1-0.3,0.1c-0.4,0-0.9,0-1.3,0.3c-0.7,0.6-1.4,0.6-2.1,0.1c-0.2-0.1-0.4-0.4-0.6-0.3
			c-1,0.2-1.6-0.5-2.3-1.1C130.3,495.9,130,495.4,129.4,495.3z"/>
		<path class="st0" d="M150.1,380.5c0-0.7,0-1.4,0.3-2c0.1-0.3,0.2-0.6,0.3-1c0.2-0.9-0.1-1.8,0.4-2.7c0.4-0.7,0.3-1.6,0.4-2.4
			c0.2-1.5,0.6-2.9,1-4.3c0.4-1.5,1-3,1.1-4.7c0-0.2,0-0.5,0.2-0.7c0.7-1,0.5-2.2,0.9-3.3c0.4-0.9,0.9-1.9,0.9-2.9
			c0-0.3,0.1-0.7,0.3-1c0.7-1.1,1-2.3,1.4-3.5c1.1-3.1,2.5-6.1,3.9-9.1c0.3-0.7,0.9-1.3,1.3-2c1.8-2.8,3.6-5.5,5.6-8.2
			c0.7-0.9,1.4-1.8,1.9-2.8c0.6-1.1,1.2-2.2,2.2-3.1c1.4-2.5,3.5-4.2,5.4-6.2c1-1,1.9-2,2.9-3c0.6-0.7,1.3-1.3,2.2-1.7
			c0.4-0.2,0.8-0.5,1.1-0.8c1.3-1.6,3.1-2.7,4.8-3.9c1.4-1,2.6-2.2,3.9-3.4c0.9-0.8,1.7-1.6,2.5-2.4c0.8-0.8,1.6-1.7,2.6-2.2
			c0.9-0.5,1.4-1.6,2.5-1.8c0.7-0.6,1.4-1.2,2-1.9c1.1-1,2.1-2.1,3.5-2.8c0.4-0.2,0.8-0.5,1.1-0.8c1.1-1.1,2.3-1.9,3.5-2.7
			c0.5-0.3,0.9-0.7,1.3-1.1c1-1,2.2-1.7,3.4-2.3c0.7-0.4,1.5-0.7,2.2-1c0.8-0.4,1.6-0.9,2.2-1.6c1.1-1.5,2.9-2.3,4.3-3.4
			c2.2-0.9,4.1-2.5,6.2-3.6c0.6-0.3,1.2-0.6,1.9-0.8c1.2-0.4,2.3-1,3.4-1.6c1.3-0.7,2.8-1.1,4.1-1.7c1.1,0,1.9-0.6,2.9-0.9
			c1-0.2,1.9-0.8,2.8-1.3c0.8-0.4,1.7-0.6,2.6-0.7c2.8-0.1,5.5-0.1,8.3,0c2.4,0.1,4.7,0.9,7,1.5c1.1,0.3,2.1,1,3.1,1.5
			c0.2,0.1,0.4,0.3,0.5,0.4c1.1,1.1,2.3,2.2,3.4,3.5c0.7,0.9,1.3,1.9,1.9,2.9c0.4,0.7,0.8,1.4,1.1,2.1c0.1,0.3,0.3,0.6,0.3,1
			c0.1,0.9,0.2,1.8,0.4,2.7c0.5,2.4,0.3,4.8,0.2,7.2c0,0.7-0.6,1.2-0.6,2c0,0.5,0.1,1-0.1,1.4c-0.5,1.1-0.4,2.3-0.9,3.3
			c-0.4,0.7-0.3,1.6-0.7,2.3c-0.3,0.6-0.7,1.2-0.9,1.8c-0.3,1.3-1.7,1.9-1.7,3.3c-1.6,1.6-2.7,3.7-5,4.7c-0.3,0.1-0.6,0.4-0.8,0.6
			c-1.6,1.7-3.7,2.7-5.7,3.8c-0.6,0.4-1.3,0.3-2,0.6c-1.4,0.7-2.8,1.6-4.4,1.9c-0.2,0-0.4,0.2-0.6,0.4c-0.9,0.7-2,1.2-3,1.7
			c-1.4,0.7-2.9,1.3-4.2,2.3c-2.5,0.8-4.5,2.7-6.8,3.8c-2.3,1.1-4.5,2.3-6.7,3.4c-0.4,0.2-0.8,0.4-1.2,0.7c-2,1.8-3.7,3.8-5.1,6
			c-0.3,0.5-0.7,1-0.7,1.6c0,1.5-0.6,2.9-0.7,4.4c-0.2,3.9-0.2,7.8-0.1,11.7c0,0.5,0,0.9,0.1,1.4c0.6,4.2,0.6,5,0.5,8.2
			c0,0.8-0.5,1.5-0.6,2.3c-0.1,0.6-0.4,1.1-0.6,1.6c-0.2,0.7,0,1.4-0.4,2c-1.1,2.1-2.1,4.3-3.2,6.5c-0.2,0.3-0.4,0.6-0.6,0.8
			c-0.9,1.2-2.1,2.2-2.8,3.5c-2,2.2-4.2,4.3-6.4,6.3c-1,0.9-2.3,1.5-3.4,2.2c-1.3,0.8-2.6,1.3-3.9,2.2c-1.1,0.8-2.4,1.2-3.7,1.8
			c-0.3,0.1-0.6,0.4-0.9,0.4c-1.3-0.1-2.5,0.5-3.7,0.7c-0.7,0.1-1.3,0.2-1.9,0.6c-1.6,1-3.4,1.4-5,2.1c-1,0-1.7,0.6-2.6,1
			c-1,0.5-2,1.1-3.2,1.3c-0.7,0.1-1.2,0.6-1.9,0.9c-1.2,0.4-2,1.4-3.2,2c-1,0.5-2.1,1-2.9,1.8c-0.3,0.3-0.8,0.5-1.2,0.7
			c-1.1,0.6-2.1,1.4-3,2.3c-1.9,1.8-3.5,4-5.1,6c-0.4,0.5-0.7,0.9-1.1,1.3c-0.8,0.8-1,1.8-1.1,2.8c-0.2,0-0.5,0-0.7,0.1
			c-0.2,0.1-0.5,0.3-0.5,0.4c0,1.1-0.6,1.9-1,2.8c-0.2,0.5-0.5,1-0.4,1.6c0,2.2,0,4.3,0,6.5c0,1-0.6,1.6-1.7,1.8
			c-0.3,0.1-0.6,0.1-0.9,0.3c-0.1,0-0.1,0.2-0.2,0.3c-0.2,0.1-0.5,0.1-0.7,0.2c-0.6,0-1.2,0-1.7,0c-0.4,0-2.3-0.8-2.3-1.2
			c-0.3-1.2-1.5-1.7-2.1-2.7c-0.1-1.7-0.1-1.7,0.5-3.6c0.2-0.5,0-1.1,0.4-1.6c0.5-0.6,0.2-1.3,0.3-2c0-0.2,0.1-0.4,0.3-0.6
			c0.3-0.4,0.4-0.8,0.4-1.3c0-2.5,0-5.1,0-7.6c0-0.7,0.1-1.3,0.5-1.9c0.2-0.3,0.1-0.9,0.1-1.3c0-0.1-0.3-0.3-0.5-0.4
			c-0.2-1.7,0.1-3.4,0-5.1c0-0.3,0.1-0.7,0.2-1c0.1-0.6,0.2-1.1,0.3-1.7c0.1-0.5,0-1-0.3-1.3c-1-0.9-1-1.9-1-3.1c0.1-1,0-2,0-3.1
			c0.2-0.1,0.4-0.2,0.5-0.4c0.1-0.1,0.1-0.2,0.1-0.3c0.1-1.3-0.4-2.8,0.6-4c0-1.3,0-2.5,0-3.8c0-0.1-0.1-0.2-0.2-0.3
			c-0.5-0.6-0.5-1.2-0.5-1.9C150.1,383,150.1,381.7,150.1,380.5z"/>
		<path class="st0" d="M107.2,326.4c-0.3-0.7-0.7-1.4-0.7-2.3c0-2.3-0.1-4.6-0.1-6.9c-0.4-1.2-1.4-2.2-1.3-3.5c-0.5-1-1-2.1-1.7-3
			c-1.5-2.1-3-4.3-4.8-6.3c-0.9-1-1.8-2.1-2.9-2.9c-1-0.7-2.1-1.4-3.1-2.1c-1.1-0.8-2.4-1.4-3.4-2.3c-0.6-0.5-1.4-0.8-2.1-1.1
			c-1.4-0.7-2.9-1.3-4.3-2.1c-1-0.5-2.2-0.6-3.2-1.3c-1,0-1.8-0.5-2.5-1c-1.3-0.8-2.7-1.2-4.3-1.2c-0.7,0-1.3-0.2-2-0.5
			c-1.7-0.9-3.5-1.6-5-2.9c-0.9-0.8-2.1-1.3-3.3-1.9c-0.5-0.3-1-0.5-1.4-0.9c-2-1.9-4-3.8-5.8-5.9c-1.5-1.7-2.9-3.6-4.1-5.5
			c-1.1-1.8-1.9-3.9-2.6-5.9c-0.1-0.2-0.2-0.4-0.2-0.6c0-0.9-0.4-1.8-0.6-2.7c-0.2-0.7-0.4-1.3-0.6-2c-0.2-0.8-0.2-1.6-0.2-2.4
			c0-2,0.1-3.9,0.1-5.9c0.8-1.6,0.4-3.4,0.5-5.1c0.1-1.6,0.2-3.2,0-4.8c-0.1-0.5,0-0.9,0-1.4c0-1.3,0.1-2.6-0.1-3.8
			c-0.2-1.1-0.5-2.2-0.6-3.4c0-0.3-0.2-0.7-0.4-0.9c-1.2-1.9-2.5-3.9-4.1-5.6c-0.6-0.7-1.3-1.2-2.2-1.6c-1.6-0.7-3-1.7-4.5-2.5
			c-1.5-0.8-2.9-1.8-4.4-2.7c-0.4-0.3-0.8-0.5-1.2-0.7c-2.4-1.2-4.5-2.7-6.9-3.8c-0.5-0.2-1-0.5-1.5-0.9c-0.6-0.5-1.3-0.9-2.1-1
			c-1.5-0.9-3.1-1.4-4.6-2.2c-1.7-0.9-3.4-1.9-4.8-3.4c-0.4-0.4-0.8-0.9-1.3-1.1c-1-0.4-1.7-1.2-2.3-2c-0.7-0.9-1.4-1.8-2-2.8
			c-0.8-1.5-1.8-2.9-2.4-4.5c-0.1-0.3-0.2-0.7-0.2-1c0-1.4-1-2.6-0.9-4c-0.4-0.7-0.5-1.5-0.6-2.3c0-0.6,0-1.2-0.2-1.7
			C0,189,0,188,0,187.1c0-1.2-0.2-2.5,0.5-3.7c0.1-0.3,0.1-0.7,0.1-1c0-0.9-0.1-1.9,0.2-2.8c0.3-1,0.8-1.9,1.3-2.8
			c0.5-0.9,1-1.8,1.6-2.7c0.4-0.6,0.7-1.2,1.4-1.5c0.6-0.3,1-0.9,1.3-1.6c0.5-0.8,1.2-1.3,2-1.8c1.6-1,3.5-1.5,6.4-2.1
			c3.1-0.7,6.1-0.6,9.2-0.5c0.7,0,1.3,0.2,2,0.5c1,0.5,2.1,0.9,3.1,1.4c0.6,0.3,1.2,0.6,1.9,0.8c3.8,1,7.2,3,10.6,4.8
			c0.6,0.3,1.2,0.7,1.7,1.1c0.4,0.4,0.9,0.8,1.4,1c1.6,0.7,2.9,1.9,4.3,2.8c0.5,0.3,1,0.7,1.2,1.2c0.4,0.8,1,1.3,1.7,1.6
			c0.7,0.4,1.4,0.8,2.1,1.1c1.3,0.7,2.6,1.5,3.7,2.5c0.7,0.6,1.4,1.2,2.1,1.8c0.4,0.4,1,0.7,1.3,1.1c0.4,0.7,1.1,1.1,1.8,1.6
			c1.4,0.9,2.7,1.8,3.5,3.2c0.2,0.4,0.6,0.8,1,1c1.8,1,3,2.5,4.4,3.9c1.2,1.1,2.2,2.4,3.5,3.3c0.8,1.1,1.9,2,3,2.8
			c1.1,0.8,2.1,1.8,3.2,2.7c0.2,0.1,0.4,0.3,0.5,0.4c0.5,1.1,1.6,1.6,2.6,2.2c0.4,0.2,0.7,0.5,1,0.9c0.4,0.7,1,1.3,1.5,1.9
			c1.6,1.6,3.1,3.4,4.6,5.2c0.3,0.4,0.6,0.7,0.9,1c0.1,0.2,0.3,0.4,0.4,0.6c0.2,1.1,1.4,1.5,1.6,2.6c1.7,2.8,3.6,5.6,5.3,8.4
			c0.7,0.6,1,1.5,1.5,2.3c0.6,0.9,0.8,1.9,1.6,2.6c0.6,0.6,0.5,1.5,0.9,2.2c0.8,1.5,1.5,3.1,2.1,4.7c0.6,1.6,1.3,3.2,1.7,4.8
			c0.1,0.4,0.4,0.8,0.6,1.2c0.2,0.5,0.6,1.1,0.6,1.6c0,1.2,0.6,2.2,0.8,3.3c0.2,0.9,0.2,1.8,0.6,2.7c0.5,1,0.1,2.3,0.6,3.4
			c0.5,1,0.7,2.2,1,3.3c0.1,0.2,0,0.5,0,0.7c0,1-0.2,2.1,0.5,3c0.1,0.2,0.2,0.4,0.2,0.6c0,1,0,2.1,0,3.1c0,0.2,0.1,0.5,0.2,0.6
			c0.3,0.5,0.5,1,0.5,1.6c-0.1,0.6,0.1,1.1,0.5,1.6c0.2,0.3,0.2,0.6,0.2,1c0,1,0,2.1,0,3.2c-0.3,0.3-0.5,0.7-0.9,1
			c-0.7,0.7-0.7,1.4-0.2,2.2c0.2,0.3,0.4,0.6,0.4,0.9c0,1.1,0,2.3,0,3.4c0.3,0.6,0.8,1.2,0.7,1.9c-0.1,1.7,0,3.5,0,5.2
			c0,0.3-0.1,0.7-0.3,1c-0.2,0.4-0.4,0.8-0.4,1.3c0,6.2,0,12.4,0,18.6c0,0.6,0.1,0.7,1.1,1c0.1,0.2,0.2,0.4,0.2,0.7
			c0,2-0.2,4.1,0.7,6c0.1,1.2,0.3,2.5-0.2,3.7c-0.6,0-1.1,0.4-1.4,0.8c-0.3,0.4-0.4,0.8-0.7,1.1c-0.3,0.3-0.8,0.4-1.2,0.6
			c-0.8,0.4-1.6,0.5-2.3,0C108.8,326.4,108,326.4,107.2,326.4z"/>
		<path class="st1" d="M139.6,129.2c1.3,0,2.5,0,3.8,0c0.5,0,0.9,0.2,1.2,0.5c0.5,0.4,1.1,0,1.6,0.4c0.5,0.3,0.9,0.7,1.3,1.1
			c0.2,0.1,0.5,0.2,0.6,0.1c0.7-0.6,1.4-0.6,2.2-0.6c1,0,2.1,0,3.1,0.1c-0.1,0.8,0,1.6-0.6,2.3c-0.1,1-0.7,1.9-0.9,2.9
			c-0.2,1-0.7,1.9-1.2,2.8c-0.1,0.1-0.1,0.2-0.1,0.3c-0.1,0.9-0.1,1.8,0.7,2.5c0.4,0.3,0.9,0.3,1.2,0c0.2-0.3,0.5-0.5,0.6-0.8
			c0.2-1.3,0.8-2.3,1.4-3.4c0.4-0.7,0.5-1.5,1-2.1c0.5-0.7,0.3-1.6,0.8-2.2c0.1-0.1,0.2-0.1,0.3-0.2c0.3,0.2,0.6,0.3,0.9,0.5
			c0.8,0.8,1.6,1.6,2.4,2.3c0.8,0,1.5,0.1,2.1,0c1.1-0.1,1.9,0.6,2.8,1c0.2,0.1,0.3,0.3,0.5,0.4c0.7,0.7,1.5,1.4,2.2,2.2
			c0.5,0.6,1.2,0.6,1.9,0.6c0.1,0,0.2,0,0.3,0c-0.3,1-1,1.8-1.2,2.8c-0.2,1-0.8,1.9-1.1,2.8c-0.4,0.9-0.6,1.9-1.1,2.8
			c-0.8,1.5-1.5,3-2.3,4.6c-0.4,0.8-0.8,1.6-1.2,2.4c-0.4,0.8-1.1,1.4-1.5,2.3c-0.3,0.8-0.9,1.6-1.4,2.3c-0.8,1.1-1.4,2.3-1.9,3.6
			c-0.2,0.4,0,0.9,0.3,1.3c0.4,0.4,0.8,0.5,1.1,0.2c2.5-2.3,3.6-3.5,5.2-5.9c0.4-0.6,0.6-1.2,1.1-1.7c1-1.4,1.6-3,2.7-4.3
			c0.4-0.5,0.6-1.2,0.9-1.8c1.6-3.2,3.3-6.4,4.8-9.7c0.2-0.3,0.6-0.3,0.9-0.4c0.4,0.4,0.4,1,0.4,1.5c-0.1,0.8,0.2,1.5,0.8,2
			c0.2,0.1,0.4,0.2,0.6,0.3c0,1,0,2.1,0,3.1c0,0.2,0,0.5,0.2,0.6c0.5,0.6,0.5,1.2,0.5,1.9c0,1.6,0,3.2,0,4.8c0,0.5-0.1,0.9-0.5,1.2
			c-0.7,0.6-0.9,1.6-1.5,2.3c-0.1,1-1,1.5-1.6,2.2c-1.5,0.5-2.4,1.8-3.4,2.8c-0.6,0.6-1.2,1.1-2.1,1c-1.3,0.8-3,1.1-4.1,2.4
			c-0.6,0.7-1.4,1.2-2.4,1.1c-0.6,0.6-1.4,0.7-2.2,0.6c-0.2,0-0.5,0-0.7,0c-0.2,0-0.5,0-0.6,0.2c-0.6,0.5-1.3,0.4-1.9,0.6
			c-0.6,0.3-1.2,0.7-1.9,0.6c-0.6,0.5-1.5,0.6-2.1,1.1c-0.5,0.5-1,1-1.7,1.1c-0.8,0.9-1.8,1.4-3,1.3c-0.2,0-0.4,0.2-0.6,0.2
			c-0.3,0.1-0.6,0.4-0.9,0.4c-0.8,0.1-1.6,0-2.4,0c-0.2,0-0.5-0.1-0.6-0.2c-0.8-0.7-2.1-0.3-2.8-1.1c-1.9,0.1-2.7-1.5-3.7-2.7
			c0-0.5-0.4-0.8-0.7-1.1c-0.6-0.7-1.4-1.3-1.9-2c-1.1-1.3-2.8-1.5-4.1-2.4c-0.2-0.2-0.7-0.1-1-0.1c-0.2,0-0.5,0-0.7,0
			c-0.1,0-0.2-0.1-0.3-0.1c-0.6-0.7-1.5-0.3-2.2-0.8c-0.3-0.2-0.6-0.3-0.9-0.5c-0.2-0.1-0.4-0.2-0.6-0.3c-0.3-0.3-0.7-0.6-1-1
			c-0.2-0.2-0.4-0.4-0.4-0.6c-0.1-0.9-1-1.3-1.3-2c-0.2-0.4-0.3-0.8-0.6-1.2c-0.4-0.7-0.2-1.6-0.8-2.2c-0.4-0.4-0.1-1.1-0.2-1.7
			c0-0.7,0-1.4,0-2.1c0-0.2-0.1-0.4-0.3-0.6c-0.5-0.7-0.6-1.5-0.1-2.2c0.3-0.4,0.3-0.8,0.3-1.3c0-2,0-3.9,0-5.9
			c0-0.5,0.2-0.9,0.5-1.3c0.4-0.7,0.2-1.6,0.7-2.2c0.5-0.5,0.1-1.3,0.2-2c0.1-0.6-0.1-1.2,0.3-1.7c0.5-0.6,0.6-1.5,1.2-2
			c0.5-0.4,1-0.9,1.5-1.5c0.5-0.7,1.4-0.8,2-1.2c0.6-0.5,1.3-0.2,2-0.3c0.2,0,0.5,0,0.7,0c0.2,0,0.4,0,0.7,0.1
			c0.1,0.4,0.3,0.6,0.7,0.6c0.4,0,0.9-0.1,1.3,0.3c0.5,0.4,1,0.5,1.5,0c0.4-0.3,0.8-0.3,1.3-0.3c0,2.2,0.1,4.3,0.1,6.5
			c0,0.8-0.1,1.6-0.5,2.3c-0.1,0.1,0,0.4,0.1,0.6c0.3,0.6,0.8,1.1,1.4,1.4c0.2,0.1,0.5,0.2,0.6,0.1c1.1-0.7,2.1-1.4,1.9-3
			c0-0.3,0.1-0.7,0.2-1c0.2-0.4,0.4-0.8,0.4-1.3c0-1.3,0-2.5,0.1-3.8c0-0.3,0-0.7,0.2-1C139.7,130.8,139.5,130,139.6,129.2z"/>
		<path d="M139.6,129.2c-0.1,0.8,0,1.6-0.4,2.3c-0.2,0.3-0.2,0.7-0.2,1c0,1.3-0.1,2.5-0.1,3.8c0,0.5-0.2,0.9-0.4,1.3
			c-0.1,0.3-0.3,0.7-0.2,1c0.2,1.5-0.8,2.3-1.9,3c-0.1,0.1-0.5,0-0.6-0.1c-0.6-0.3-1.1-0.8-1.4-1.4c-0.1-0.2-0.2-0.5-0.1-0.6
			c0.5-0.7,0.5-1.5,0.5-2.3c0-2.2,0-4.3-0.1-6.5c0.1-1.3,0.3-2.6-0.1-3.8c-0.3-1-0.4-2-0.4-3c0-0.8-0.1-1.6-0.2-2.4
			c-0.7-1-0.5-2.2-0.6-3.3c0-0.3,0-0.7-0.2-1c-0.4-0.6-0.4-1.3-0.4-2c0-0.3,0-0.7-0.1-1c-0.7-1.4-0.7-2.9-0.7-4.4
			c0-0.3-0.1-0.7-0.2-1c-0.6-1.1-0.2-2.5-1-3.6c0-0.7,0-1.4-0.1-2.1c-0.1-0.8-0.7-1.4-0.6-2.3c0.1-0.7-0.5-1.3-0.6-2
			c-0.1-0.6,0-1.2-0.1-1.7c-0.1-0.7-0.5-1.3-0.6-1.9c-0.1-1.4-0.9-2.6-0.9-4c-0.6-0.8-0.5-1.8-0.9-2.6c-0.7-1.2-0.9-2.6-1.5-3.8
			c-0.4-0.7-0.2-1.6-0.7-2.3c-0.4-0.5-0.7-1.2-0.8-1.9c-0.1-0.7-0.5-1.3-0.7-1.9c-0.1-0.6-0.3-1.1-0.6-1.6
			c-2.5-5.4-5.3-10.6-7.9-15.9c-0.3-0.6-0.6-1.2-1-1.8c-0.3-0.5-0.8-0.9-1.3-1c-0.1-0.3-0.1-0.6-0.2-1c-0.1-0.6-0.2-1.1-0.5-1.6
			c-1.5-2.2-2.9-4.4-4.4-6.6c-0.3-0.5-0.6-1-0.9-1.5c-0.5-0.9-1.1-1.7-1.7-2.6c-1.9-2.6-4.1-4.9-5.8-7.7c-0.1-0.2-0.3-0.4-0.4-0.5
			c-1-1.4-2.4-2.5-3.4-3.9c-0.9-1.3-2.2-2.4-3.3-3.5c-1.2-1.3-2.5-2.4-4-3.3c-0.6-0.4-1.2-0.7-1.7-1.1c-1.1-0.9-2.1-1.6-3.5-2.1
			c-1.2-0.4-2.3-0.9-3.5-1.3c-0.8-0.3-1.6-0.4-2.4-0.4c-0.2,0-0.8,0.3-0.8,0.5c0,0.5-0.1,0.9,0,1.4c0.2,1.1-0.4,1.8-1.2,2.2
			c-0.7,0.4-1.4,0.9-1.9,1.4c-1.4,1.5-3.1,2.8-4,4.7c-1,1-1.8,2.1-2.4,3.3c-0.6,1.2-1.9,2-2.3,3.4c-1.4,1.8-2.8,3.7-4.3,5.4
			c-0.4,0.5-1.1,0.9-1.7,1.2c-1.8,0.8-3.6,1.5-5.6,1.4c-1.4-0.8-2.8-1.5-3.9-2.8c-0.5-0.7-0.9-1.3-0.9-2.2c0.1-0.7-0.2-1.3-0.8-1.8
			c-0.2-0.1-0.3-0.3-0.4-0.5c-0.3-0.7-0.4-1.3,0-2c1-1.7,2.1-3.3,2.7-5.1c0.1-0.2,0.2-0.4,0.4-0.6c0.8-0.8,1.4-1.8,2-2.8
			c0.7-1,1.5-2,2.5-2.8c1-0.8,1.9-1.7,2.8-2.6c1.3-1.3,6-4.9,7.3-5.7c0.3-0.2,0.6-0.3,0.9-0.4c0.7-0.4,1.6-0.3,2.2-0.8
			c0.6-0.5,1.5-0.3,2.3-0.8c0.7-0.4,1.5-0.4,2.2-0.8c0.2-0.2,0.7-0.1,1-0.1c0.5,0,0.9,0.2,1.4,0.2c0.9,0,1.8-0.1,2.8-0.1
			c0.8,0,1.5,0.5,2.3,0.6c1.3,0.2,2.7,0.6,4,1c0.5,0.2,1.1,0.4,1.6,0.7c1.1,0.6,2.2,1.2,3.3,1.8c0.4,0.2,0.8,0.4,1.2,0.7
			c1.2,1.1,2.6,1.8,3.9,2.8c1.1,0.9,2.4,1.8,3.3,3c0.1,0.2,0.3,0.3,0.5,0.5c2.3,2,3.9,4.5,6,6.6c1,1,1.7,2.2,2.4,3.4
			c0.6,0.9,1.2,1.7,1.9,2.5c1.2,1.4,2.4,2.8,3.3,4.4c0.2,0.4,0.5,0.8,0.8,1.1c0.7,0.6,1.1,1.4,1.4,2.3c0.2,0.5,0.7,0.9,1,1.3
			c0.1,0.2,0.1,0.5,0.2,0.7c0.7,1,1.4,2.1,2.1,3.1c0.1,0.2,0.3,0.3,0.4,0.5c0.7,1.8,2,3.3,2.9,5c0.2,0.4,0.4,0.8,0.7,1.2
			c0.4,0.6,0.9,1.1,0.8,1.8c1.1,2.2,2,4.6,3.5,6.6c0.7,0.9,1.2,1.9,1.4,3.1c0.1,0.7,0.6,1.2,0.7,1.9c0.1,0.7,0.5,1.3,0.8,1.9
			c0.4,0.7,0.8,1.4,1.1,2.1c0.3,0.6,0.7,1.3,0.7,1.9c0.1,0.9,0.7,1.4,0.8,2.2c0.1,0.7,0.4,1.3,0.6,1.9c0.3,1.2,0.9,2.3,1.2,3.5
			c0.3,1.2,0.8,2.4,1.4,3.5c0.1,0.2,0.2,0.4,0.2,0.6c-0.2,1.3,0.8,2.4,0.8,3.7c0,0.6,0.4,1.3,0.6,1.9c0.1,0.7,0.1,1.4,0.5,2
			c0.1,0.2,0.2,0.4,0.2,0.6c0.1,0.8,0.1,1.6,0.1,2.4c0.1,0.8,0.7,1.4,0.6,2.3c-0.1,0.8,0.6,1.5,0.7,2.3c0,0.8,0.1,1.6,0.1,2.4
			c0.1,0.8,0.7,1.4,0.6,2.3c-0.1,0.8-0.1,1.7,0.1,2.4c0.6,1.9,0.6,3.8,0.7,5.8c0,0.2,0.1,0.4,0.2,0.6c0.2,0.4,0.4,0.8,0.4,1.3
			c0,1.7,0,3.4,0.6,5.1c0.2,0.5,0.1,1.1,0.1,1.7C139.6,126.7,139.6,128,139.6,129.2z"/>
		<path class="st0" d="M107.2,326.4c0.8,0.1,1.5,0,2.3,0.5c0.7,0.4,1.5,0.4,2.3,0c0.4-0.2,0.9-0.3,1.2-0.6c0.3-0.3,0.4-0.8,0.7-1.1
			c0.3-0.5,0.8-0.8,1.4-0.8c0.1,0.2,0.2,0.4,0.2,0.6c0.1,0.8,0.2,1.6,0.1,2.4c-0.1,1,0.6,1.8,0.6,2.6c0,1.3,0.5,2.5,0.7,3.7
			c0.2,1.4,1,2.6,0.8,4c0.4,0.7,0.7,1.4,0.7,2.3c0.1,0.9,0.7,1.7,0.7,2.6c0,0.4,0.5,0.8,0.5,1.3c0,1,0.6,1.7,0.7,2.6
			c0.2,1,0.8,1.9,1.2,2.8c0.5,1,0.9,2.1,1.2,3.2c0.4,1.5,1.1,3,1.8,4.4c-0.1,1,0.6,1.7,0.8,2.6c0.2,1,0.8,1.9,1.2,2.8
			c0.2,0.5,0.5,1,0.7,1.6c0.9,2.4,1.7,4,2.8,5.8c1.5,2.5,3.3,4.9,4.4,7.7c0.4,1.1,1,2,1.4,3.1c0.3,1.1,1.2,1.9,1.7,2.9
			c1,1.8,2.3,3.4,3.3,5.2c1.4,1.1,1.8,2.8,2.4,4.4c0.1,0.3,0.2,0.7,0.3,1c0.5,0.9,0.9,1.8,1.2,2.8c0.3,1.1,0.9,2.1,1.4,3.1
			c0.2,0.5,0.5,1,0.6,1.6c0.4,1.4,1,2.8,1.4,4.2c0.5,1.4,1.3,2.7,1.6,4.1c0,0.1,0.4,0.2,0.6,0.2c0.2,0.1,0.5,0.3,0.5,0.4
			c0,0.4,0.1,1-0.1,1.3c-0.4,0.6-0.6,1.2-0.5,1.9c0,2.5,0,5.1,0,7.6c0,0.5-0.1,0.9-0.4,1.3c-0.1,0.2-0.2,0.4-0.3,0.6
			c-0.1,0.7,0.2,1.4-0.3,2c-0.4,0.5-0.3,1.1-0.4,1.6c-0.6,1.9-0.7,1.9-0.5,3.6c0.5,1,1.8,1.5,2.1,2.7c0.1,0.3,1.9,1.2,2.3,1.2
			c0.6,0,1.2,0,1.7,0c-0.2,0.6-0.8,1.1-0.7,1.9c0.1,0.9,0,1.8-0.1,2.8c-0.1,1.1,0,2.3-0.5,3.4c-0.3,0.6-0.1,1.4-0.2,2
			c-0.1,1.1,0.1,2.4-0.3,3.4c-0.4,1-0.3,2-0.7,3c-0.2,0.4-0.3,0.9-0.3,1.3c-0.1,0.9-0.2,1.8-0.6,2.7c-0.3,0.8-0.1,1.8-0.7,2.6
			c-0.2,2.3-1.5,4.3-1.6,6.6c-0.8,1.1-0.7,2.4-1.1,3.6c-0.4,1.1-0.9,2.1-1.3,3.2c-0.2,0.6-0.4,1.3-0.6,1.9c-0.3,0.6-0.6,1.2-0.9,1.9
			c-0.1,0.3-0.2,0.7-0.2,1c-0.1,0.6,0,1.2-0.2,1.7c-0.2,0.5-0.5,1-0.6,1.6c-0.1,0.8-0.8,1.4-0.7,2.3c0.1,0.9-0.4,1.5-0.6,2.3
			c-0.2,0.8-0.6,1.5-0.7,2.3c-0.1,0.9-1,1.6-0.8,2.6c-0.3,0.5-0.4,1.1-1,1.4c-0.5-0.1-0.9-0.3-0.9-0.8c0-0.9,0-1.8-0.7-2.6
			c-0.2-0.2,0-0.7-0.1-1c0-0.3,0-0.7-0.2-1c-0.4-0.6-0.5-1.2-0.5-1.9c0-3,0-5.9,0-8.9c0-0.8-0.1-1.5-0.5-2.3c-0.4-0.5-0.3-1.3-0.1-2
			c0-0.2,0.3-0.3,0.5-0.4c0.2,0,0.5,0,0.6-0.2c0.5-1,1.1-2,1.5-3.1c0.2-0.6,0.2-1.4,0.4-2c0.5-1.4,0.9-2.8,1.3-4.2
			c0.1-0.4,0.4-0.9,0.4-1.3c0-1.5,0.7-2.9,1.1-4.3c0.2-0.6,0.3-1.1,0.4-1.7c0-0.3,0-0.7,0.2-1c0.5-0.7,0.5-1.5,0.5-2.3
			c0-0.8,0.1-1.6,0.5-2.3c0.2-0.4,0.2-0.9,0.2-1.3c0.1-0.7,0-1.4,0.4-2c0.2-0.4,0.2-0.9,0.2-1.3c0.1-4.1,0.3-8.3,0.1-12.4
			c0-0.9,0-1.8-0.1-2.8c-0.8-1.6-0.5-3.4-0.7-5.1c0-0.5-0.2-0.9-0.4-1.3c-0.5-1.4-0.8-2.9-1.4-4.2c-0.4-0.9-0.1-2.1-0.8-3
			c-0.1-0.8-0.5-1.5-0.7-2.3c-0.2-0.9-0.7-1.7-0.8-2.6c-0.1-0.8-0.8-1.4-0.7-2.3c0-0.3-0.3-0.6-0.4-0.9c-0.4-0.9-0.8-1.9-1.1-2.9
			c-0.5-1.4-1-2.8-1.7-4.1c-0.4-0.8-0.9-1.6-1-2.5c0-0.4-0.4-0.8-0.7-1.2c-0.9-1.4-2-2.8-2.7-4.4c-0.1-0.2-0.2-0.4-0.4-0.6
			c-2.2-2.6-3.3-5.7-4.9-8.6c-0.2-0.4-0.2-0.9-0.4-1.3c-0.8-1.6-1.5-3.4-2.9-4.6c-0.7-0.6-1-1.4-1.3-2.3c-0.4-1.2-1.1-2.3-1.6-3.4
			c-1.7-3.4-3.1-6.8-4.4-10.4c0-0.1,0-0.2-0.1-0.3c-0.3-1.2-1.1-2.2-1.4-3.5c-0.3-1.2-0.7-2.4-1.3-3.5c-0.7-1.4-1-3-1.8-4.4
			c-0.2-0.3-0.3-0.6-0.3-1c-0.1-0.8-0.4-1.5-0.6-2.3c-0.2-0.6,0-1.4-0.4-2c-0.5-0.7-0.2-1.6-0.5-2.3c-0.4-0.8-0.5-1.8-0.8-2.6
			c-0.1-0.3-0.3-0.7-0.3-1c0.1-1.5-0.8-2.9-0.8-4.4C107.1,329.8,107.2,328.1,107.2,326.4z"/>
		<path class="st0" d="M154.9,434.2c0.1-0.1,0.1-0.3,0.2-0.3c0.3-0.1,0.6-0.2,0.9-0.3c1.1-0.2,1.7-0.8,1.7-1.8c0-2.2,0-4.3,0-6.5
			c0-0.6,0.2-1.1,0.4-1.6c0.4-0.9,1.1-1.7,1-2.8c0-0.1,0.3-0.3,0.5-0.4c0.2-0.1,0.4-0.1,0.7-0.1c0.3,0.7,0.8,1.4,0.8,2.2
			c-0.1,0.9,0,1.8,0.1,2.8c0,1-0.1,2.1,0.4,3.1c0.2,0.4,0.1,0.9,0.1,1.4c0,2,0,3.9,0.1,5.9c0.1,1.6-0.2,3.2,0.6,4.7
			c0.2,0.4,0.1,0.9,0.1,1.4c0,2.7-0.1,5.3-0.2,7.9c0,0.9-0.3,1.8-0.7,2.6c-0.3,0.8-0.5,1.5-0.5,2.3c0,0.8-0.1,1.6-0.2,2.4
			c-0.6,0.9-0.3,2.1-0.8,3c-0.5,1-0.5,2.2-1.1,3.2c-0.5,0.8-0.8,1.7-0.7,2.6c0.1,1.1-0.2,2-0.7,3c-0.4,0.8-0.7,1.7-0.8,2.6
			c-0.1,0.5-0.5,1-0.6,1.6c-0.1,0.6-0.2,1.1-0.5,1.6c-0.2,0.5-0.3,1.1-0.5,1.6c-0.2,0.5-0.4,1.1-0.5,1.6c-0.1,0.3-0.3,0.6-0.6,0.9
			c-0.5,0.5-0.7,1.2-0.7,1.9c0,0.6-0.3,1.1-0.5,1.6c-0.2,0.5-0.3,1.1-0.5,1.6c-0.1,0.3-0.3,0.6-0.3,1c-0.6,2.5-1.3,4.8-2.2,6.8
			c-0.3,0.7-0.7,1.4-0.8,2.2c-0.1,0.6-1,0.9-1,1.7c0.6,0.3,1.2,0.7,1.8,1c0.5,0.2,0.7,0.6,0.7,1.1c0,0.7,0.1,1.4,0.5,2
			c0.1,0.2,0.1,0.5,0,0.6c-0.9,1.4-1.2,3-1.9,4.4c-0.5,1-1.2,2-1.9,2.9c-0.7,1-1.4,2.1-2.2,3.1c-0.8,0.9-1.5,2-2.1,3.1
			c-0.7,1.4-1.5,2.6-2.6,3.6c-0.5,0.5-0.8,1.1-1.1,1.7c-0.4,0.9-0.9,1.8-1.4,2.8c-0.3,0.5-0.5,1.1-0.8,1.5c-0.6,0.7-1.2,1.4-1.2,2.4
			c-0.5,0.7-0.6,1.5-0.7,2.3c0,0.3-0.2,0.7-0.3,0.9c-0.5,0.6-0.9,1.3-1.2,2.1c-0.1,0.3-0.4,0.6-0.4,0.9c0,0.9-0.4,1.8-0.7,2.7
			c-0.2,0.8-0.2,1.6-0.6,2.3c-0.1,0.2-0.1,0.4-0.1,0.7c0,1.5-0.1,3-0.6,4.4c-0.2,0.4-0.1,0.9-0.1,1.4c-0.1,0.9,0,1.8-0.5,2.7
			c-0.2,0.3-0.2,0.9-0.2,1.3c-0.2,3.5,0,6.9,0.1,10.4c0,0.3,0.1,0.7,0.2,1c0.3,0.5,0.3,1.1,0.3,1.7c0,1.8,0,3.7,0.1,5.5
			c0,1,0,2.1,0.5,3c0.2,0.3,0.1,0.7,0.1,1c0,1.5,0.3,3,1.1,4.3c0.2,0.3,0.2,0.6,0.3,1c0.1,0.5,0.1,0.9,0.1,1.4
			c-0.1,1.2,0.3,2.3,0.7,3.3c0.3,0.6,0.6,1.2,0.6,2c0,1.5,0.5,2.9,0.9,4.4c0.2,0.5,0.4,1,0.4,1.6c0,0.8,0,1.7,0.2,2.4
			c0.3,0.8,0.4,1.5,0.6,2.3c0.2,1,0.6,1.9,0.9,2.9c0.5,1.5,1,3,1.2,4.6c0.1,1.2,0.6,2.4,0.9,3.6c0.1,0.4,0.4,0.8,0.4,1.3
			c0,0.7,0.3,1.3,0.6,2c0.4,0.8,0.9,1.6,0.9,2.6c0.4,0.7,0.8,1.4,0.7,2.3c0,0.5,0.3,0.9,0.5,1.3c0.3,0.7,0.5,1.5,1,2.2
			c0.6,0.8,0.4,1.8,0.9,2.6c0.4,0.7,0.6,1.5,0.8,2.2c0.3,0.8,0.3,1.6,0.8,2.3c0.1,1.9,1.1,3.5,1.5,5.3c0.1,0.5,0.3,0.9,0.5,1.3
			c0.2,0.4,0.3,0.9,0.3,1.3c0.1,0.8-0.3,1.3-0.9,1.7c-0.6,0.4-1.3,0.3-2,0.2c-0.3-0.1-0.6-0.4-0.8-0.6c-0.6-1.1-1.2-2.2-1.8-3.3
			c0-1.6-1.2-2.7-1.5-4.2c-0.3-1.4-0.9-2.8-1.4-4.2c-0.1-0.4-0.4-0.8-0.6-1.2c-0.8-2-1.9-3.9-2.2-6.1c-0.6-1.2-0.8-2.6-1.5-3.8
			c-0.4-0.6-0.2-1.4-0.6-1.9c-0.4-0.6-0.4-1.3-0.5-2c-0.1-0.7-0.5-1.3-0.6-1.9c-0.2-0.7-0.1-1.3-0.4-2c-0.3-0.7-0.2-1.6-0.6-2.3
			c-0.4-0.7-0.3-1.6-0.7-2.3c-0.5-0.7-0.4-1.6-0.8-2.3c-0.2-0.4-0.2-0.9-0.3-1.3c-0.1-0.8-0.2-1.6-0.5-2.3c-0.3-0.7-0.1-1.6-0.3-2.4
			c-0.4-1.1-0.7-2.2-0.8-3.3c-0.1-1-0.8-1.9-0.7-3c-0.5-0.9-0.8-1.9-0.7-3c0.1-1-0.2-1.8-0.7-2.6c-0.4-0.8-0.8-1.7-0.7-2.6
			c0-0.4-0.1-0.9-0.2-1.3c-0.3-0.5-0.3-1.1-0.4-1.7c-0.1-1,0-2.1-0.5-3c-0.2-0.4-0.1-0.9-0.1-1.4c-0.1-1.6-0.1-3.2-0.1-4.8
			c0-0.9,0.1-1.8-0.4-2.7c-0.1-0.3-0.1-0.7-0.1-1c0-3.3,0-6.7-0.1-10c0-0.7,0.1-1.3,0.5-2c0.5-0.9,0.1-2.1,0.7-3
			c0-0.6,0.1-1.1,0.1-1.7c0-1.3-0.1-2.5,0.6-3.7c0.1-0.2,0.1-0.4,0.1-0.7c0.1-1,0.1-2.1,0.6-3c0-1,0.4-2,0.7-3c0-0.1,0-0.2,0.1-0.3
			c0.3-1.2,1.2-2.2,1.5-3.5c0.3-1.2,0.8-2.4,1.2-3.5c0.2-0.6,0.5-1.3,0.9-1.8c1-1.2,1.6-2.5,2.3-3.8c0.4-0.7,0.7-1.4,1.3-2
			c1.7-1.9,2.9-4.1,4.2-6.3c0.5-0.8,0.9-1.6,1.5-2.3c1-1.2,1.9-2.6,2.9-3.9c0.2-0.2-0.1-0.8-0.4-0.8c-0.7,0-1.4-0.1-2.1-0.1
			c-0.8-0.1-1.5-0.9-1.5-1.6c0-0.7,0.1-1.4,0.2-2.1c0.6-0.8,0.5-2,1.2-2.8c1-1.4,1.7-3,2.7-4.4c0.1-1.6,1.5-2.8,1.6-4.5
			c0.7-1.3,1.1-2.8,1.3-4.2c0.1-0.7,0.5-1.3,0.7-1.9c0.3-0.7,0.7-1.4,0.7-2.3c0-0.3,0.2-0.7,0.3-1c0.4-0.9,0.8-1.9,1.3-2.8
			c0.2-0.4,0.4-0.8,0.4-1.3c-0.1-1.2,0.4-2.2,0.9-3.3c0.1-0.3,0.4-0.6,0.4-0.9c0-1,0.7-1.7,0.8-2.6c0.1-0.4,0.3-0.9,0.4-1.3
			c0-0.1,0.1-0.2,0.1-0.3c0.1-1.1,0-2.3,0.7-3.3c0-1.1,0.8-1.9,0.8-3c0.6-0.9,0.4-2,0.8-3c0.5-1,0.4-2,0.5-3
			c0.1-0.6,0.1-1.1,0.4-1.7c0.2-0.3,0.3-0.6,0.3-1c0-3.1,0.4-6.2,0-9.3c-0.1-0.9,0.1-1.9-0.5-2.7c0-1-0.1-2.1-0.2-3.1
			c0-0.3-0.3-0.6-0.7-0.6C155.3,434.3,155.1,434.2,154.9,434.2z"/>
		<path d="M175.3,140.8c-0.3,0.1-0.7,0.1-0.9,0.4c-1.5,3.3-3.2,6.5-4.8,9.7c-0.3,0.6-0.5,1.3-0.9,1.8c-1,1.4-1.6,3-2.7,4.3
			c-0.4,0.6-0.7,1.2-1.1,1.7c-1.6,2.4-2.7,3.6-5.2,5.9c-0.3,0.3-0.7,0.2-1.1-0.2c-0.3-0.4-0.5-0.8-0.3-1.3c0.5-1.3,1.1-2.5,1.9-3.6
			c0.5-0.8,1.1-1.5,1.4-2.3c0.3-0.9,1.1-1.5,1.5-2.3c0.4-0.8,0.8-1.6,1.2-2.4c0.8-1.5,1.5-3.1,2.3-4.6c0.5-0.9,0.7-1.9,1.1-2.8
			c0.4-0.9,0.9-1.8,1.1-2.8c0.2-1,0.9-1.8,1.2-2.8c0.1-0.9,0.7-1.7,0.9-2.6c0.2-0.9,0.7-1.7,1.1-2.5c0.4-0.8,0.1-1.8,0.7-2.6
			c0.5-0.6,0.2-1.6,0.8-2.2c0.1-0.9,0.7-1.7,0.8-2.6c0.1-0.8,0.7-1.4,0.8-2.3c0-0.8,0.2-1.6,0.6-2.3c0.2-0.5,0.1-1.2,0.2-1.7
			c0.2-0.5,0.6-1,0.6-1.6c0-1.4,1-2.6,0.9-4c0-0.2,0.2-0.4,0.3-0.6c0.4-0.6,0.3-1.3,0.2-2c0.4-1.2,0.8-2.4,0.9-3.7
			c0.6-1,0.4-2.3,0.6-3.4c0.2-1.2,0.7-2.4,0.9-3.7c0.1-0.6,0.3-1.1,0.3-1.7c0-1,0.2-2,0.5-3c0.2-0.6,0.3-1.4,0.3-2
			c0-0.9,0.4-1.8,0.5-2.7c0.2-0.9,0.2-1.8,0.2-2.8c0.8-1.4,0.3-3.2,1.1-4.7c0.1-0.2,0.1-0.5,0.1-0.7c0.1-1.3,0.2-2.5,0.6-3.7
			c0.2-0.4,0.1-0.9,0.2-1.4c0.2-1,0-2,0.4-3c0.3-0.8,0.2-1.8,0.4-2.7c0.3-1.3,0.7-2.7,0.7-4c0.6-0.9,0.4-2,0.5-3
			c0.2-1.1,0.2-2.2,0.5-3.4c0.4-1.1,0.2-2.3,0.4-3.4c0.2-0.7,0.3-1.3,0.3-2c0.1-2.2,0.2-4.4,0.3-6.6c0-0.3,0.2-0.6,0.3-1
			c0.2-0.8,0.3-1.6-0.2-2.3c-0.3-0.5-0.3-1.1-0.3-1.7c0-1,0.2-2.1,0.1-3.1c0-0.8,0-1.7-0.3-2.4c-0.3-0.8-0.4-1.5-0.5-2.3
			c-0.1-1-0.3-2-1-2.9c-0.6-0.8-1.1-1.7-1.4-2.7c-0.6-1.5-1-3-1.1-4.6c0-1.7,0.1-3.4,0.2-5.2c0.1-1.2-0.2-2.5,0.5-3.7
			c0.1-1.1,0.1-2.3,0.6-3.4c-0.1-1.9,1.4-3.4,1.6-5.2c0.9-1.5,1.8-3,3.2-4.1c1.1-0.9,2.3-1.5,3.8-1.4c0.2,0,0.5,0,0.7,0
			c2.2-0.2,4,0.8,5.6,2.3c1.2,1.1,2,2.5,1.9,4.3c-0.1,1.9,0,3.9-0.7,5.8c-0.3,0.8-0.1,1.8-0.5,2.7c-0.3,0.8-0.3,1.6-0.5,2.3
			c-0.1,0.4-0.4,0.8-0.8,1.1c-1,0.9-1,0.9-1.2,1.8c-0.3,1.1-0.6,2.2-0.6,3.4c0,0.3,0,0.7-0.2,1c-0.4,0.7-0.4,1.5-0.5,2.3
			c-0.1,1.1-0.2,2.3-0.4,3.4c-0.3,1.1-0.4,2.2-0.7,3.4c0,0.2-0.2,0.4-0.2,0.7c-0.1,0.8-0.1,1.6-0.2,2.4c-0.1,0.8-0.4,1.5-0.5,2.3
			c-0.1,1,0,2.1-0.3,3.1c-0.2,0.9-0.5,1.8-0.6,2.7c-0.1,0.6,0.1,1.2-0.1,1.7c-0.5,1-0.4,2-0.7,3c-0.1,0.4-0.3,0.9-0.3,1.3
			c-0.1,1.1-0.2,2.3-0.2,3.4c0,1.2-0.5,2.2-0.5,3.4c0,0.5,0,1-0.2,1.3c-0.5,0.9-0.4,1.8-0.5,2.7c-0.1,1-0.1,2-0.5,3
			c-0.3,0.8-0.2,1.8-0.4,2.7c-0.2,0.8-0.4,1.5-0.5,2.4c-0.2,1.4,0.1,2.8-0.4,4.1c-0.5,1.3-0.2,2.7-0.9,4c-0.2,0.3-0.1,0.7-0.2,1
			c-0.2,0.9-0.1,1.8-0.4,2.7c-0.2,0.7-0.2,1.6-0.3,2.4c-0.1,0.9-0.7,1.7-0.7,2.7c0,0.9,0,1.8-0.5,2.7c-0.1,0.1-0.1,0.2-0.1,0.3
			c-0.1,1.5-0.3,2.9-0.7,4.4c-0.4,1.3-0.1,2.7-0.7,4c-0.1,1.3-0.7,2.4-0.7,3.7c-0.1,1.4-0.8,2.6-0.8,4c-0.6,1.1-0.4,2.5-1,3.6
			c-0.2,1.7-0.7,3.4-1,5c0.1,1.2-0.6,2.2-0.7,3.3c-0.4,0.6-0.5,1.3-0.6,2c0,0.6-0.3,1.1-0.5,1.6c-0.4,0.8-0.7,1.7-0.8,2.6
			c0,0.4-0.3,0.9-0.4,1.3c-0.1,0.3-0.2,0.7-0.3,1c-0.3,1-0.8,1.9-0.7,3c0,1.2-0.8,2.1-1,3.2C175.6,138.7,175.5,139.7,175.3,140.8z"
			/>
		<path class="st0" d="M129.4,495.3c0.6,0.1,0.9,0.6,1.3,1c0.6,0.6,1.2,1.3,2.3,1.1c0.2,0,0.4,0.2,0.6,0.3c0.7,0.5,1.5,0.4,2.1-0.1
			c0.4-0.3,0.8-0.2,1.3-0.3c-0.1,0.3-0.1,0.7-0.2,1c-0.3,0.5-0.8,0.9-1,1.4c-0.3,1.5-1.3,2.7-1.6,4.1c0,0.1,0,0.2-0.1,0.3
			c-1.2,2.3-1.9,4.9-2.7,7.3c-0.3,0.7-0.6,1.5-0.9,2.2c-0.3,0.6-1,1-1.1,1.7c0,0.9-0.6,1.5-0.9,2.2c-0.3,0.6-0.4,1.3-0.6,1.9
			c-0.4,1.1-1,2-1.4,3.1c-0.3,1.1-0.5,2.2-1.1,3.2c-0.3,0.5-0.3,1.1-0.5,1.6c-0.5,1-1,2-1.1,3.2c-0.1,1.1-0.8,2.2-0.7,3.3
			c0.1,0.9-0.7,1.7-0.6,2.7c0,0.8-0.1,1.6-0.4,2.3c-0.2,0.6-0.2,1.4-0.2,2c-0.2,1.5,0.1,3-0.6,4.4c0,0.8,0,1.6-0.1,2.4
			c-0.2,1.5,0.2,3-0.5,4.4c-0.1,0.3-0.1,0.7-0.1,1c0,3.8,0,7.6,0,11.4c0,0.2,0,0.5,0.1,0.7c0.5,0.8,0.3,1.8,0.4,2.7
			c0.1,1.5-0.2,3,0.6,4.4c0.1,0.3,0.1,0.7,0.1,1c0.1,1.1-0.1,2.3,0.4,3.4c0.5,0.9,0.1,2.1,0.7,3c0.2,0.3,0.2,0.6,0.2,1
			c0.1,0.9,0.1,1.8,0.6,2.7c0.5,0.9,0,2.1,0.6,3c0.5,0.8,0.2,1.8,0.9,2.6c0.1,0.1,0.1,0.4,0.1,0.7c0.1,1,0.1,2.1,0.7,3
			c0.1,1,0.4,2,0.7,3c0.2,0.8,0.2,1.5,0.6,2.3c0.3,0.6,0.1,1.4,0.4,2c0.3,0.7,0.4,1.6,0.7,2.3c0.2,0.4,0.5,0.8,0.4,1.3
			c0,1.2,0.4,2.2,0.7,3.3c0.2,1,0.7,1.9,0.8,3c0.1,1,0.7,1.9,0.7,3c0,0.7,0.5,1.3,0.6,2c0.3,1.6,0.9,3.1,0.7,4.7
			c0.3,1,0.8,1.9,0.7,3c0.9,1.4,0.3,3.2,1.2,4.6c0,1.5,0.1,3,0.1,4.5c0,0.1-0.1,0.3-0.1,0.3c-0.2,0-0.4-0.1-0.6-0.2
			c-0.8-0.8-1.7-1.6-2.5-2.4c-1.6-1.5-3.1-3.1-3.8-5.2c-0.2-0.5-0.5-1-0.8-1.5c-0.5-0.7-1.2-1.4-1.1-2.4c0-0.3-0.4-0.6-0.5-0.9
			c-0.5-1-1.2-2-1.4-3.1c-0.2-1-0.6-2-0.7-3c-0.1-1.1-0.6-2-0.8-3c-0.3-1.1-0.9-2.1-0.7-3.3c0.1-0.5-0.3-0.9-0.4-1.3
			c-0.2-1.2-1-2.3-1-3.6c0-0.4-0.3-0.8-0.4-1.3c-0.4-1.4-1-2.8-0.9-4.3c0-1.3-0.8-2.4-0.9-3.6c-0.5-0.7-0.2-1.6-0.5-2.3
			c-0.4-0.7-0.6-1.5-0.7-2.3c-0.1-0.7-0.4-1.3-0.5-2c-0.1-0.7-0.1-1.4-0.5-2c-0.2-0.3-0.2-0.7-0.2-1c-0.1-0.9-0.1-1.8-0.6-2.7
			c-0.3-0.6-0.1-1.4-0.3-2c-0.2-0.6-0.6-1.2-0.6-2c0-0.7,0-1.4,0-2.1c0-0.9-0.1-1.8-0.1-2.8c-0.9-1.6-0.5-3.4-0.6-5.1
			c0-0.5,0-1-0.2-1.4c-0.4-0.9-0.4-1.8-0.4-2.7c0-2.6-0.1-5.3-0.1-7.9c0-0.8,0-1.6,0.4-2.3c0.1-0.2,0.1-0.4,0.1-0.7
			c0.1-2.2,0.1-4.4,0.1-6.6c0-0.6,0.1-1.1,0.4-1.7c0.1-0.3,0.2-0.7,0.2-1c0.1-1,0.1-2.1,0.2-3.1c0.6-0.9,0.5-2,0.6-3
			c0.1-0.7,0.4-1.3,0.6-1.9c0.2-0.8,0-1.6,0.4-2.4c0.3-0.6,0.4-1.3,0.4-2c0-0.8,0.8-1.4,0.7-2.3c-0.1-1,0.5-1.7,0.7-2.6
			c0.1-0.8,0.6-1.5,0.9-2.2c0.1-0.2,0.3-0.4,0.3-0.6c0.2-1,0.2-2.1,0.9-2.9c0.6-0.9,0.6-1.9,1.1-2.9c0.4-0.9,0.5-2,1.3-2.8
			c0.5-1.3,0.9-2.5,1.7-3.7c0.7-1.2,0.9-2.6,1.5-3.8c0-1,0.8-1.6,0.8-2.6c0-0.9,0.9-1.6,1.1-2.5c0.5-2,1.7-3.7,2.5-5.6
			C128.9,495.5,129.2,495.4,129.4,495.3z"/>
		<path d="M156.9,132.6c-0.1,0.1-0.2,0.1-0.3,0.2c-0.6,0.6-0.3,1.5-0.8,2.2c-0.5,0.6-0.6,1.5-1,2.1c-0.6,1.1-1.2,2.1-1.4,3.4
			c0,0.3-0.4,0.6-0.6,0.8c-0.3,0.4-0.8,0.3-1.2,0c-0.9-0.6-0.9-1.5-0.7-2.5c0-0.1,0.1-0.2,0.1-0.3c0.5-0.9,1-1.8,1.2-2.8
			c0.2-1,0.8-1.9,0.9-2.9c0.5-0.7,0.5-1.5,0.6-2.3c0.1-0.1,0.3-0.1,0.3-0.2c0.2-0.6,0.4-1.3,0.7-1.9c0.3-0.5,0.3-1.1,0.3-1.7
			c0-1,0.8-1.9,0.8-3c0-0.6,0.4-1.3,0.6-1.9c0.1-0.7,0.1-1.4,0.5-2c0.1-0.2,0.2-0.4,0.2-0.6c-0.1-1.2,0.7-2.2,0.7-3.3
			c0-0.8,0-1.6,0.5-2.3c0.2-0.3,0.2-0.7,0.2-1c0.1-1.1,0-2.3,0.5-3.4c0.3-0.6,0.1-1.4,0.2-2c0.1-0.9,0-1.8,0.5-2.7
			c0.2-0.4,0.2-0.9,0.2-1.3c0-1.3,0.1-2.5,0.1-3.8c0-0.8,0-1.6,0.4-2.3c0.2-0.5,0.2-1.1,0.2-1.7c0.1-3.1,0.1-6.2,0.1-9.3
			c0-1-0.1-2.1,0.5-3c0.1-0.2,0-0.7-0.2-1c-0.2-0.4-0.3-0.8,0-1.3c0.4-0.5,0.3-1.1,0.3-1.7c0-4.8,0-9.7,0-14.5c0-0.8,0-1.6-0.4-2.3
			c-0.2-0.4-0.1-0.9-0.1-1.3c0-4.3-0.1-8.5-0.1-12.8c0-0.4-0.1-0.7-0.4-0.9c-0.2-1.1-0.3-2.2-0.7-3.4c-0.4-1-0.1-2.3-0.7-3.3
			c-0.3-0.5-0.2-1.1-0.3-1.7c0-0.5-0.2-0.9-0.5-1.3c-0.9-1-1.3-2.1-1.6-3.4c-0.2-0.9-0.5-1.8-1.2-2.4c-0.8-0.9-1.2-1.9-1.6-3
			c-0.4-1.2-0.8-2.4-1.2-3.6c-0.1-0.4-0.3-0.9-0.4-1.3c-0.7-1.7-1.7-2.9-3.4-3.7c-0.5-0.2-1-0.5-1.6-0.5c-2.7,0.1-5.2-0.7-7.5-1.9
			c-1.9-0.6-3.5-1.7-4.8-3.1c-0.4-0.4-0.7-0.9-1.1-1.3c-0.6-0.8-1.2-1.7-1.8-2.5c-0.2-1.4-0.2-2.7,0.5-4c0.3-0.7,0.5-1.5,0.6-2.3
			c0.1-0.6,0.4-1.1,0.7-1.5c0.1-0.2,0-0.4-0.5-0.6c-0.1-0.1-0.3-0.2-0.4-0.3c0.5-0.2,1-0.7,1.6-0.7c1.3,0,2.4-0.7,3.5-1.2
			c0.7-0.3,1.3-0.4,2-0.1c0.4,0.2,0.9,0.2,1.3,0.3c2.6,0.3,5.7,1.6,7.8,3.2c0.5,0.4,1.2,0.7,1.6,1.2c0.7,0.8,1.4,1.5,2.2,2.2
			c0.8,0.7,1.3,1.6,2,2.4c0.1,0.1,0.2,0.2,0.2,0.3c1.1,2.6,2.9,5,3.7,7.7c0.5,1.6,1.3,3.2,1.6,4.9c0.3,1.2,1.1,2.2,1.2,3.5
			c0.2,1.1,0.5,2.2,0.8,3.3c0.2,0.8,0.4,1.5,0.5,2.3c0,0.3,0,0.7,0.1,1c0.6,1.2,0.3,2.5,0.8,3.7c0.2,0.5,0.2,1.1,0.3,1.7
			c0.2,1.8,0.1,3.6,0.7,5.4c0.3,1,0.2,2.1,0.3,3.1c0.1,1.5-0.3,3,0.5,4.4c0,1.7,0.1,3.5,0.1,5.2c0,1.7,0.1,3.5,0.1,5.2
			c0,0.7,0,1.4,0.4,2c-0.1,0.3-0.3,0.6-0.3,0.9c0,1.8,0,3.7,0,5.5c0,6.1-0.1,12.2-0.1,18.3c0,0.5,0.1,1-0.1,1.3
			c-0.5,0.9-0.4,1.8-0.4,2.7c0,1.7-0.1,3.4-0.1,5.2c0,0.6-0.1,1.1-0.4,1.7c-0.2,0.4-0.2,0.9-0.2,1.3c-0.1,1.6-0.1,3.2-0.2,4.8
			c0,0.3,0,0.7-0.2,1c-0.5,0.8-0.4,1.8-0.5,2.7c0,0.7-0.1,1.4-0.4,2c-0.2,0.4-0.2,0.9-0.3,1.3c-0.1,0.8,0.2,1.7-0.3,2.4
			c-0.5,0.7-0.2,1.6-0.5,2.3c-0.2,0.5-0.6,1.1-0.6,1.6c0.1,1.2-0.7,2.2-0.8,3.3c0,1.2-0.7,2.1-1,3.3c-0.1,0.3-0.4,0.6-0.3,1
			c0.1,1.2-0.6,2.2-1,3.2c-0.4,0.9-0.5,2-1.1,2.9C156.9,132.1,156.9,132.4,156.9,132.6z"/>
		<path class="st0" d="M114.5,314c-1-0.3-1.1-0.4-1.1-1c0-6.2,0-12.4,0-18.6c0-0.5,0.2-0.9,0.4-1.3c0.2-0.3,0.3-0.6,0.3-1
			c0-1.7,0-3.5,0-5.2c0-0.8-0.4-1.3-0.7-1.9c0-1.1,0-2.3,0-3.4c0-0.3-0.2-0.6-0.4-0.9c-0.4-0.8-0.4-1.5,0.2-2.2
			c0.3-0.3,0.6-0.7,0.9-1c0-1.1,0-2.1,0-3.2c0-0.3,0-0.7-0.2-1c-0.4-0.5-0.5-1-0.5-1.6c0.1-0.6-0.1-1.1-0.5-1.6
			c-0.1-0.2-0.2-0.4-0.2-0.6c0-1,0-2.1,0-3.1c0-0.2-0.1-0.5-0.2-0.6c-0.7-0.9-0.5-2-0.5-3c0.2-0.1,0.5-0.2,0.5-0.3
			c0.1-0.8,0.2-1.6,0.3-2.4c0.9-1.4,0.3-3.2,1.1-4.6c0.2-0.3,0.1-0.7,0.1-1c0-1,0-2.1,0.5-3c0.2-0.3,0.1-0.7,0.1-1
			c0.1-0.8,0.2-1.6,0.5-2.3c0.2-0.6,0.3-1.3,0.3-2c0-0.8,0.5-1.5,0.7-2.3c0.2-1.1,0.7-2.2,0.6-3.3c-0.1-0.7,0.5-1.3,0.6-1.9
			c0.1-0.9-0.1-1.9,0.3-2.7c0.4-1.2,0.9-2.4,1.2-3.6c0.3-1.1,0.9-2.1,0.9-3.3c0.5-1,0.6-2.2,1.2-3.2c0.5-0.8,0.8-1.7,0.8-2.6
			c0.5-0.7,0.5-1.5,0.7-2.3c0.6-1.7,0.7-3.6,1.7-5.2c0.3-1.1,0.9-2.1,0.9-3.3c0-0.8,0.6-1.5,0.7-2.3c0.1-0.7,0.1-1.4,0.5-2
			c0.4-0.7,0.1-1.6,0.7-2.3c0.1-0.2,0.2-0.4,0.2-0.6c-0.2-1.2,0.8-2.1,0.8-3.3c0-1.1,0.7-1.9,1.1-2.9c0.2-0.4,0.3-0.9,0.3-1.3
			c0.1-1.3,0.7-2.4,1.6-3.3c0.1-0.1,0.2-0.1,0.3-0.2c0.6,0,1.1,0.1,1.7,0.1c0.3,0,0.7,0,1-0.2c0.5-0.4,1-0.5,1.6-0.5
			c0.3,0,0.8,0.1,1-0.1c0.8-0.7,1.7-0.5,2.6-0.5c0.2,0,0.5,0,0.7,0c-0.2,1.2-0.1,2.5-1.1,3.5c-0.2,0.2-0.3,0.6-0.4,0.9
			c-0.4,1.5-1,3-1.7,4.5c-0.4,0.8-0.5,1.7-0.9,2.6c-0.3,0.7-0.4,1.5-0.8,2.2c0.1,1.5-0.9,2.8-0.8,4.3c0,0.6-0.4,1.1-0.4,1.6
			c-0.1,1.1-0.9,1.9-0.9,2.9c0,0.7-0.3,1.3-0.5,2c-0.4,0.9-1,1.8-0.9,2.9c0,0.3-0.3,0.6-0.4,0.9c-0.4,1.8-1.1,3.5-1.7,5.2
			c-0.8,2.6-1.8,5.1-2.4,7.8c-0.5,0.8-0.4,1.8-0.8,2.6c-0.4,0.7-0.1,1.6-0.5,2.3c-0.5,0.8-0.3,1.8-0.5,2.7c0,0.1,0,0.2-0.1,0.3
			c-0.5,0.8-0.3,1.8-0.6,2.7c-0.2,0.8-0.6,1.5-0.5,2.3c0.1,1-0.6,1.7-0.7,2.6c0,0.9-0.5,1.8-0.6,2.7c-0.2,1-0.2,2.1-0.2,3.1
			c0,0.2,0,0.5-0.1,0.7c-0.5,1-0.5,2-0.5,3c0,0.6-0.3,1.1-0.4,1.6c-0.4,1.6-1.1,3.2-1,5c0,0.4,0,1-0.2,1.3c-0.4,0.7-0.4,1.5-0.5,2.3
			c0,0.4-0.1,0.9-0.3,1.3c-0.3,0.6-0.4,1.3-0.4,2c0,0.6,0.1,1.2-0.1,1.7c-0.7,1.4-0.5,2.9-0.6,4.4c0,0.2,0,0.5-0.1,0.7
			c-0.5,0.8-0.4,1.8-0.5,2.7c-0.1,1.3,0,2.5-0.6,3.7c-0.1,0.2,0,0.4-0.1,0.7c-0.1,1.5,0.1,3-0.7,4.4c-0.1,1.3-0.1,2.5-0.2,3.8
			c0,0.5,0.1,1-0.1,1.3c-0.6,1-0.4,2-0.5,3c-0.1,0.6,0.1,1.2-0.2,1.7c-0.6,1.3-0.5,2.7-0.5,4.1c-0.1,2.8-0.1,5.5-0.1,8.3
			C114.7,313.5,114.5,313.8,114.5,314z"/>
		<path class="st0" d="M130,264.9c-0.1,0.4,0,0.9-0.3,1.3c-0.2,0.2-0.3,0.4-0.4,0.6c-0.1,0.7,0.2,1.4-0.3,2c-0.4,0.5-0.4,1-0.4,1.6
			c0,0.4-0.3,0.6-0.7,0.7c-0.5,0-0.9-0.1-1.3-0.3c-0.9-0.6-1.4-1.5-2.5-1.8c-0.2,0-0.4-0.3-0.4-0.5c-0.1-0.9,0-1.8-0.6-2.7
			c0-1-0.3-2.1,0.3-3c0.2-0.3,0.3-0.6,0.3-1c0-0.8,0.4-1.5,0.6-2.3c0.2-0.6,0-1.4,0.4-2c0.5-0.7,0.4-1.5,0.7-2.3
			c0.7-1.6,1.2-3.2,1.1-4.9c0.3-0.4,0.6-0.8,0.9-1.2c0.2-0.3,0.4-0.6,0.4-0.9c0-1.3,0.8-2.4,0.7-3.7c0-0.3,0.1-0.7,0.3-0.9
			c0.9-0.9,1.1-2,1-3.2c0-0.5,0.2-0.9,0.4-1.3c0.4-0.8,0.5-1.7,1-2.5c0.6-0.9,0.7-1.9,0.7-3c0-0.6,0-1.1,0.2-1.7
			c0.4-1,0.7-2.2,1.3-3.2c0.5-0.9,0.6-2,1.1-2.9c0.2-0.5,0.1-1.1,0.3-1.7c0.3-1,0.5-2,0.7-3c0.1-0.7,0.5-1.2,0.8-1.9
			c0.2-0.5,0.5-1.1,0.7-1.5c0.2-0.4,0.4-0.8,0.4-1.3c0-0.7,0-1.4,0.1-2.1c0.1-0.7,0.5-1.2,0.7-1.9c0.2-0.9,0.8-1.6,0.8-2.6
			c0.6-0.8,0.4-1.8,0.6-2.6c0-0.1,0.1-0.2,0.2-0.3c0.4-1,0.9-1.9,1-2.9c0.1-1,0.9-1.7,0.8-2.6c-0.1-1.4,0.7-2.6,0.9-4
			c0.4-0.6,0.5-1.3,0.6-2c0.7-1,0.6-2.2,0.6-3.3c0.9-0.2,1.1-1.2,1.9-1.3c0.7-0.2,1.1-0.7,1.7-1.1c0.3-0.2,0.7-0.3,0.9-0.1
			c0.7,0.6,1.5,0.5,2.2,0.6c0.3,0.9-0.5,1.5-0.5,2.3c0,0.8,0.1,1.7-0.2,2.4c-0.3,0.9-0.4,1.8-0.7,2.6c-0.3,1-0.4,2-0.7,3
			c-0.3,0.9-0.5,1.8-0.6,2.7c-0.1,0.7-0.7,1.2-0.7,1.9c-0.1,0.9-0.7,1.7-0.7,2.6c0.1,0.8-0.7,1.4-0.7,2.3c0,0.9-0.6,1.7-0.6,2.6
			c0,0.6-0.4,1.3-0.7,1.9c-0.3,0.6-0.6,1.2-0.6,1.9c0,0.6,0,1.2-0.3,1.7c-0.5,0.8-0.3,1.8-0.9,2.6c-0.6,0.9-1.1,2-1,3.2
			c-0.5,0.9-0.6,1.9-0.6,3c0,0.5-0.2,0.9-0.4,1.3c-0.4,0.8-0.9,1.6-1.1,2.5c-0.2,0.8-0.6,1.5-0.9,2.2c-0.2,0.4-0.3,0.9-0.4,1.3
			c-0.2,1.8-0.6,3.4-1.4,4.9c-0.5,0.9-0.8,1.9-0.7,3c0.1,1.1-0.4,2-0.8,2.9c-0.2,0.5-0.7,0.9-0.9,1.5c-0.1,0.3-0.1,0.7-0.1,1
			c-0.1,0.5-0.1,0.9-0.2,1.4c-0.2,0.5-0.4,1-0.6,1.6c-0.4,0.9-1.1,1.8-1.3,2.8c-0.2,1.1-0.1,2.3-0.1,3.4l0,0
			c-0.9,0.2-1.3,0.8-1.4,1.7c-0.1,0.7-0.1,1.3-0.4,2c-0.3,0.6-0.3,1.3-0.6,1.9c-0.4,0.7-0.4,1.5-0.3,2.3
			C129.3,264.6,129.7,264.8,130,264.9z"/>
		<path class="st0" d="M150.1,380.5c0,1.3,0,2.5-0.1,3.8c0,0.7,0,1.4,0.5,1.9c0.1,0.1,0.2,0.2,0.2,0.3c0,1.3,0,2.5,0,3.8
			c-1,1.2-0.6,2.6-0.6,4c0,0.1,0,0.2-0.1,0.3c-0.2,0.1-0.4,0.3-0.5,0.4c-0.1,0-0.3-0.1-0.3-0.1c-0.2-0.3-0.4-0.6-0.5-0.9
			c-0.8-1.5-1.9-2.9-2-4.7c-0.6-1.2-1.2-2.4-1.9-3.7c-1-1.9-3.1-6.1-3.5-7.8c-0.2-0.9-0.6-1.7-0.9-2.6c-1.1-1.2-1.5-2.8-2-4.3
			c-0.6-1.6-1.1-3.2-2.4-4.5c-0.2-0.2-0.3-0.6-0.4-0.9c0-0.8-0.2-1.6-0.8-2.2c-0.6-0.6-0.5-1.5-1-2.2c-0.5-0.6-1-1.3-1.3-2
			c-0.1-0.3-0.3-0.6-0.4-1c-0.6-2.1-1.3-4.1-2.4-6c-0.2-0.4-0.4-0.8-0.4-1.3c-0.1-0.8-0.8-1.4-0.7-2.3c0.1-1-0.8-1.7-0.7-2.6
			c-0.5-1-0.4-2.3-0.9-3.3c-0.4-1-0.6-2-0.6-3c0.4,0,0.9-0.1,1.3,0.2c0.5,0.3,0.9,0.5,1.5,0.5c1.3-0.1,2.7,0,4-0.1
			c0.5,0.8,1,1.5,0.9,2.5c-0.1,0.6,0,1.2,0.3,1.7c0.3,0.4,0.4,0.8,0.4,1.3c0,0.6,0.1,1.1,0.4,1.6c1.5,2.8,2.2,6,3.6,8.8
			c0,0.9,0.5,1.5,1,2.1c0.1,0.2,0.4,0.4,0.3,0.6c-0.1,1,0.8,1.6,0.9,2.6c0,0.5,0.2,0.9,0.5,1.3c0.7,0.9,1.2,1.9,1.7,2.9
			c0.6,1.1,1.1,2.2,1.4,3.5c0.2,0.6,0.4,1.3,0.6,1.9c0.2,0.5,0.5,1,0.8,1.5c0.4,0.6,0.4,1.3,0.7,1.9c0.5,1.3,0.8,2.6,1.5,3.8
			c0.3,0.5,0.4,1.1,0.5,1.6C148.9,380.5,149.5,380.5,150.1,380.5z"/>
		<path class="st0" d="M137,460.1c-0.1-0.4,0-0.7,0.5-0.9C137.5,459.6,137.3,459.9,137,460.1z"/>
		<path class="st0" d="M124.7,330.6c-0.4-1-0.2-2-0.3-3.1c-0.1-1.2,0.2-2.5-0.5-3.7c0-1-0.1-2.1-0.1-3.1c-0.1-1,0.1-2.1-0.4-3
			c-0.2-0.4-0.1-0.9-0.1-1.3c-0.1-2.6-0.1-5.3-0.1-7.9c0-0.8,0-1.6-0.4-2.4c-0.2-0.3-0.2-0.7-0.2-1c0-2.6-0.1-5.3,0-7.9
			c0-1.3-0.1-2.5,0.5-3.7c0.1-0.3,0.1-0.7,0.1-1c0-0.8,0.1-1.6,0.1-2.4c0.1-0.8,0.7-1.5,0.6-2.3c-0.1-0.8,0.6-1.5,0.7-2.3
			c0-0.8,0-1.6,0.1-2.4c0-0.2,0.1-0.5,0.2-0.6c0.7-0.9,0.3-2,0.8-2.9c0.5-0.8,0.3-1.8,0.9-2.6c0-1.4,0.7-2.6,1-4
			c0-0.2,0.3-0.3,0.5-0.4c0.2,0.1,0.4,0.2,0.5,0.4c0.1,0.2,0.1,0.5,0.1,0.6c-0.4,0.6-0.7,1.2-0.6,1.9c0.1,0.8,0,1.6-0.5,2.3
			c-0.2,0.2-0.2,0.6-0.2,1c0,0.6-0.1,1.1-0.4,1.6c-0.2,0.3-0.3,0.6-0.3,1c0,1.5,0,3,0,4.5c0.2,0.2,0.3,0.6,0.6,0.8
			c1,0.8,0.9,1.8,0.8,2.8c-0.8,0.8-0.6,1.9-0.6,2.9c0,0.7,0,1.4-0.5,1.9c-0.3,0.3-0.2,0.7-0.2,1c0,1,0,2.1,0,3.1
			c0,0.5-0.1,0.9-0.4,1.3c-0.5,0.6-0.3,1.3-0.3,2c0,0.2,0.1,0.4,0.3,0.6c0.4,0.4,0.7,0.9,1.1,1.3c0,3.9,0,7.7,0,11.4
			c-0.3,0.6-0.7,1.1-0.7,1.9c0.1,2.4,0.1,4.8,0,7.2c0,1.2,0.3,2.5-0.6,3.6c0,0.7-0.1,1.4-0.1,2.1
			C125.8,330.4,125.3,330.5,124.7,330.6z"/>
	</g>
	<path class="st2" d="M131.3,194.2c0-0.8,0.1-1.6,0.1-2.4c0-0.7-0.1-1.3-0.5-2c-0.4-0.7-0.2-1.6-0.8-2.2c0-1.1-0.6-1.9-1-2.9
		c-0.4-0.8-1-1.6-1.1-2.5c0-0.9-0.7-1.4-0.8-2.2c-0.2-1.4-1.1-2.5-1.7-3.7c-0.5-1-1.6-1.6-2-2.7c-0.1-0.2-0.3-0.4-0.5-0.5
		c-1.7-0.9-2.8-2.3-4.2-3.6c-0.8-0.7-1.5-1.4-2.4-1.9c-0.9-0.5-1.5-1.4-2.3-2.1c-0.7-0.7-1.3-1.6-2.4-1.9c-0.3-0.1-0.5-0.4-0.8-0.7
		c-0.3-0.3-0.7-0.6-1-1c-1.2-1.1-2.2-2.4-3.5-3.3c-1.2-0.9-2.3-1.8-3.4-2.8c-0.6-0.5-1.4-0.7-2-1.3c-0.5-0.6-1.2-1-1.9-1.4
		c-0.7-0.4-1.1-1.2-1.8-1.5c-0.8-0.4-1.4-1.2-2.3-1.5c-0.9-0.3-1.4-1.2-2.3-1.5c-0.8-0.3-1.3-0.9-1.9-1.4c-0.4-0.3-0.8-0.5-1.2-0.7
		c-1.4-0.8-2.9-1.4-4.1-2.4c-0.9-0.7-2-1.1-3-1.6c-1.1-0.5-2.3-1-3.2-1.9c-0.2-0.2-0.7-0.2-0.9-0.5c-0.6-0.6-1.5-0.4-2.2-0.8
		c-0.6-0.4-1-0.9-1.7-1.1c-0.6-0.2-1.2-0.6-1.9-0.8c-0.9-0.2-1.7-0.6-2.4-1.2c-0.3-0.2-0.5-0.5-0.8-0.6c-0.6-0.2-1.4-0.1-1.9-0.7
		c-0.5-0.7-1.4-0.8-2-1.3c-0.6-0.4-1.2-0.6-1.8-0.9c-0.2-0.1-0.5-0.1-0.6-0.3c-1.4-1.2-3.1-1.9-4.7-2.7c-0.8-0.4-1.7-0.7-2.3-1.4
		c-0.1-0.2-0.3-0.3-0.6-0.4c-0.9-0.5-1.9-0.8-2.7-1.4c-1.1-0.1-1.6-1.4-2.6-1.5c-0.9-0.7-2-1.1-2.9-1.9c-1-0.2-1.5-1.1-2.3-1.5
		c-0.9-0.5-1.9-0.8-2.7-1.5c-0.7-0.6-1.6-0.9-2.4-1.3c-0.3-0.2-0.6-0.3-0.8-0.6c-1.4-1.6-3.6-2-5.1-3.4c-1.3,0.1-2-0.9-2.9-1.7
		c-0.3-0.2-0.6-0.4-0.9-0.5c-1.5-0.7-2.9-1.8-4.3-2.7c-1-0.7-2-1.5-3.1-2.1c-0.3-0.2-0.6-0.3-0.7-0.6c-0.2-0.7-0.8-1.1-1.2-1.6
		c-1-1-1.9-2-2.9-3c-1-1-2.2-2.8-3.1-4.4c-0.1-0.1-0.1-0.2-0.2-0.3c-0.7-1.4-1.9-2.6-2.3-4.2c-0.3-1.5-1.2-2.7-1.8-4
		c-0.1-0.3-0.3-0.6-0.3-1c-0.1-1-0.1-2.1-0.1-3.1c0-0.5,0-0.9-0.3-1.3c-0.3-0.4-0.3-0.8-0.3-1.3c0-0.7,0-1.4,0-2.1
		c0-0.9-0.3-1.9,0.2-2.7c0.7-1.2,1-2.6,2-3.5c0.6-0.5,1-1.2,1.4-1.9c0.4-0.7,1.1-1.2,1.6-1.8c0.4-0.6,0.6-1.2,1.1-1.7
		c1.3-1.3,2.6-2.6,3.9-3.9c1.6-0.7,2.7-2.1,4-3.3c0.7-0.6,2.8-1.6,4.2-2.1c0.5-0.2,1-0.5,1.6-0.6c0.7-0.1,1.4-0.1,2.1-0.1
		c1.3,0,2.5,0,3.8,0c0.7,0,1.3,0.2,2,0.5c0.7,0.4,1.5,0.3,2.3,0c1.5-0.6,2-0.6,3.9,0.1c0.2,0.1,0.5,0.1,0.7,0
		c1.1-0.8,2.4-0.4,3.7-0.5c0.2,0,0.5,0.1,0.6,0.2c0.6,0.4,1.3,0.5,2,0.5c0.5,0,0.9,0,1.4,0c0.7,0,1.4,0,2,0.4
		c0.2,0.1,0.4,0.2,0.6,0.2c1.4,0.1,2.7,0,4,0.7c0.5,0.2,1.2,0,1.7,0.3c0.7,0.4,1.5,0.5,2.3,0.5c0.7,0,1.2,0.8,1.9,0.7
		c0.9-0.1,1.6,0.2,2.2,0.8c0.3,0.3,0.7,0.6,1.2,0.5c0.9,0,1.6,1,2.6,0.7c0.7,0.7,1.7,0.5,2.5,1c0.5,0.3,1.1,0.2,1.6,0.5
		c0.5,0.2,0.9,0.7,1.4,1c0.2,0.1,0.4,0.2,0.6,0.3c0.6,0.2,1.1,0.7,1.9,0.7c0.9,0,1.3,0.9,2,1.3c0.6,0.3,1.3,0.5,1.9,0.8
		c1.5,0.8,2.9,1.8,4.3,2.8c0.5,0.3,1,0.6,1.4,0.9c0.4,0.4,0.6,0.9,1.2,1.1c0.5,0.2,1,0.5,1.5,0.8c0.7,0.4,1.1,1.1,2,1.3
		c0.2,0,0.3,0.3,0.4,0.5c0.5,1.1,1.3,1.8,2.4,2.3c0.4,0.2,0.8,0.6,0.9,1c0.2,0.6,0.7,0.8,1.2,1.1c1.4,1.1,3,2.8,4.6,5
		c0.3,0.5,0.8,0.9,1.1,1.3c0.4,0.4,0.8,0.8,1.2,1.3c0.4,0.6,0.7,1.1,1.3,1.5c0.4,0.3,0.6,0.9,1,1.4c0.8,1.1,1.5,2.3,2.5,3.2
		c0.4,1.4,1.6,2.2,2.5,3.2c0.3,0.3,0.5,0.8,0.7,1.2c0.5,1,1,2,2,2.8c0.9,0.8,1.4,1.8,1.9,2.8c0.6,1.2,1.2,2.4,2.1,3.5
		c0.2,1.3,1.9,1.8,1.6,3.3c0.4,0.8,1.3,1.3,1.5,2.3c0.9,0.8,1.1,2,2,2.8c0.4,0.4,0.6,0.9,0.7,1.5c0,0.3,0.3,0.6,0.4,0.9
		c0.9,1.8,1.8,3.7,2.7,5.5c0.4,0.9,1,1.8,1.1,2.8c0,0.4,0.4,0.8,0.6,1.2c-0.2,0-0.5,0-0.7,0c-0.7,0.1-1.4-0.2-2,0.3
		c-0.6,0.5-1.5,0.6-2,1.2c-0.4,0.5-0.9,1-1.5,1.5c-0.7,0.5-0.7,1.4-1.2,2c-0.4,0.5-0.2,1.1-0.3,1.7c-0.1,0.7,0.3,1.5-0.2,2
		c-0.6,0.7-0.3,1.6-0.7,2.2c-0.3,0.4-0.5,0.8-0.5,1.3c0,2,0,3.9,0,5.9c0,0.5,0,0.9-0.3,1.3c-0.6,0.7-0.5,1.5,0.1,2.2
		c0.1,0.2,0.2,0.4,0.3,0.6c0,0.7,0,1.4,0,2.1c0,0.6-0.2,1.2,0.2,1.7c0.6,0.7,0.3,1.6,0.8,2.2c0.3,0.4,0.4,0.8,0.6,1.2
		c0.3,0.7,1.2,1.1,1.3,2c0,0.2,0.2,0.4,0.4,0.6c0.3,0.3,0.6,0.7,1,1c0.2,0.1,0.4,0.2,0.6,0.3c0.3,0.2,0.6,0.3,0.9,0.5
		c0.7,0.4,1.6,0.1,2.2,0.8c0.1,0.1,0.2,0.1,0.3,0.1c0.2,0,0.5,0,0.7,0c0.3,0,0.8-0.1,1,0.1c1.3,0.9,3,1.1,4.1,2.4
		c0.6,0.7,1.3,1.3,1.9,2c0.3,0.3,0.7,0.6,0.7,1.1c1,1.2,1.7,2.8,3.7,2.7c0.7,0.9,2,0.4,2.8,1.1c0.1,0.1,0.4,0.2,0.6,0.2
		c0.8,0,1.6,0,2.4,0c0.3,0,0.6-0.2,0.9-0.4c0.2-0.1,0.4-0.3,0.6-0.2c1.3,0.2,2.2-0.4,3-1.3c0.7-0.1,1.2-0.6,1.7-1.1
		c0.6-0.6,1.4-0.7,2.1-1.1c0.7,0.1,1.3-0.3,1.9-0.6c0.6-0.3,1.4-0.1,1.9-0.6c0.1-0.1,0.4-0.1,0.6-0.2c0.2,0,0.5,0,0.7,0
		c0.8,0.1,1.6,0,2.2-0.6c1,0.1,1.7-0.4,2.4-1.1c1.1-1.3,2.7-1.6,4.1-2.4c0.9,0.1,1.5-0.4,2.1-1c1.1-1,1.9-2.3,3.4-2.8
		c0.6-0.6,1.5-1.1,1.6-2.2c0.6-0.7,0.7-1.7,1.5-2.3c0.4-0.3,0.5-0.7,0.5-1.2c0-1.6,0-3.2,0-4.8c0-0.7,0-1.4-0.5-1.9
		c-0.1-0.2-0.2-0.4-0.2-0.6c0-1,0-2.1,0-3.1c0.1-0.2,0.1-0.5,0.3-0.6c1-1.1,1.9-2.2,2.5-3.6c0.1-0.3,0.3-0.7,0.5-0.9
		c1.3-1,1.7-2.7,2.9-3.8c0.4-0.4,0.6-0.9,0.9-1.4c0.4-0.9,1.2-1.7,1.7-2.6c0.5-1,1.2-1.6,1.9-2.4c0.4-0.5,1-1,1.2-1.7
		c1-1,1.4-2.3,2.4-3.3c0.9-0.9,1.3-2.2,2.3-3c0.8-0.7,0.9-1.8,1.8-2.5c0.7-0.6,1.3-1.3,1.9-2c0.5-0.6,0.7-1.4,1.3-2
		c0.6-0.5,1.2-1.1,1.4-1.9c2.5-2.5,5-5.1,7.6-7.6c1.2-0.5,2-1.5,2.9-2.3c0.3-0.2,0.5-0.6,0.8-0.6c1.1-0.2,1.5-1.4,2.6-1.6
		c1.3-0.8,2.6-1.4,3.9-2c0.4-0.2,0.8-0.6,1.2-0.6c0.9,0,1.5-0.6,2.3-0.7c0.7-0.1,1.3-0.5,1.9-0.7c0.7-0.2,1.4,0,2.1-0.2
		c0.9-0.2,1.6-0.7,2.6-0.6c0.8,0.1,1.6,0,2.4,0c0.3,0,0.7,0,1-0.2c0.6-0.4,1.3-0.4,2-0.4c2.3,0,4.6,0,6.9,0c0.7,0,1.4,0,2,0.4
		c0.3,0.2,0.6,0.2,1,0.2c0.8,0,1.6,0,2.4,0.1c0.3,0,0.7,0.1,1,0.2c0.5,0.3,1,0.5,1.6,0.4c0.6,0,1.2,0,1.7,0c0.7,0,1.4,0,2,0.5
		c0.2,0.1,0.4,0.2,0.6,0.2c0.8,0,1.5,0.2,2.3,0.6c0.8,0.4,1.8,0,2.6,0.6c0.6,0.4,1.6,0.2,2.2,0.8c0.1,0.1,0.2,0.1,0.3,0.1
		c1.2-0.2,2.2,0.6,3.3,0.8c1.2,0.2,2.2,1.1,3.5,1.4c1.1,0.2,2.1,0.9,2.9,1.7c0.5,0.4,1.2,0.7,1.8,1c1-0.1,1.7,0.5,2.5,0.9
		c0.7,0.3,1.2,1,1.8,1.5c0.4,0.3,0.8,0.4,1.3,0.4c0.8,0.1,1.4,0.8,2.3,0.7c1,0.6,2.1,0.9,2.8,1.9c0.5,0.6,1.2,1.1,1.4,1.9
		c0.7,0.4,1.4,0.8,1.9,1.5c0.4,0.5,0.9,1,1.3,1.6c-0.1,1.2,0.8,2.1,0.8,3.3c-0.1,1.7-0.1,1.8,0.8,3.3c0.6,1,0.6,1.9,0.6,3
		c0,0.5-0.3,0.8-0.5,1.2c-0.2,0.5-0.6,1-0.7,1.6c-0.1,0.5-0.2,1.1-0.1,1.7c0,1.1-0.8,1.9-0.8,2.9c0,0.2-0.2,0.4-0.4,0.6
		c-0.8,0.8-1.5,1.8-2.7,2.1c-0.8,0.8-1.7,1.5-2.5,2.4c-0.9,1.1-2.2,1.7-3.3,2.5c-1,0.7-2.2,1.2-3.3,1.8c-1.2,0-2.1,0.8-3.2,1.2
		c-0.6,0.2-1.3,0.3-1.9,0.6c-0.7,0.4-1.3,0.3-2,0.3c-0.8,0-1.6,0-2.3,0.5c-0.3,0.2-0.6,0.2-1,0.2c-0.9,0.1-1.8,0-2.7,0.5
		c-0.3,0.2-0.9,0.1-1.3,0.1c-2.1,0-4.1,0.1-6.2,0.1c-0.7,0-1.4,0-2,0.4c-0.3,0.2-0.7,0.2-1,0.2c-0.9,0-1.8,0-2.8,0
		c-1.1,0.1-2.3-0.1-3.3,0.6c-0.3,0.2-0.9,0.1-1.3,0.1c-0.5,0-1,0-1.3,0.2c-0.8,0.6-1.8,0.5-2.7,0.5c-0.2,0-0.5,0-0.7,0.1
		c-1,0.8-2.2,0.5-3.3,0.6c-0.5,0-0.9,0.1-1.3,0.3c-0.3,0.2-0.6,0.3-1,0.3c-0.6,0.1-1.2,0-1.7,0.1c-0.5,0.1-1,0.5-1.6,0.6
		c-0.7,0-1.3,0.5-1.9,0.7c-0.7,0.1-1.4-0.1-2.1,0.1c-1,0.3-1.9,0.7-3,0.7c-1.1,1-2.8,0.2-3.8,1.3c-0.7,0-1.3,0.2-1.9,0.6
		c-0.6,0.3-1.4,0.1-1.9,0.6c-0.4,0.3-0.9,0.2-1.3,0.3c-0.3,0.1-0.7,0.1-1,0.2c-1.2,0.6-2.4,1.3-3.9,1.2c-0.7,0.7-1.8,0.5-2.5,1
		c-0.8,0.5-1.8,0.2-2.5,0.9c-1-0.1-1.7,0.7-2.6,0.8c-0.9,0.1-1.6,0.9-2.6,0.8c-1.1,0.7-2.4,0.7-3.5,1.3c-0.6,0.3-1.1,0.7-1.9,0.8
		c-0.6,0.1-1.3,0.4-1.9,0.8c-0.6,0.4-1.2,0.6-1.9,0.6c-0.1,0-0.2,0.1-0.3,0.2c-0.9,0.5-1.8,0.9-2.8,1.4c-1,0.5-2,1.1-3.1,1.5
		c-0.9,0.4-1.7,1.2-2.8,1.1c-0.1,0-0.2,0.1-0.3,0.2c-1.3,1.2-2.9,1.7-4.4,2.5c-1.4,0.7-2.9,1.4-4.3,2.1c-2.6,1.4-5.3,2.6-7.9,4.1
		c-0.7,0.1-1.2,0.6-1.7,1.1c-0.9,0.9-1.9,1.7-2.3,2.9c-0.3,1-1,1.8-1.8,2.5c-1.2,1.2-2.4,2.5-3.7,3.7c-0.5,0.5-1,1-1.5,1.4
		c-0.8,0.5-1.6,0.8-1.8,1.9c-0.8,0.7-0.5,1.7-0.8,2.6c-0.8-0.1-1.6,0-2.2-0.6c-0.2-0.2-0.6-0.1-0.9,0.1c-0.5,0.4-0.9,1-1.7,1.1
		c-0.8,0.2-1.1,1.2-1.9,1.3c-0.5,0-1.1,0.1-1.6,0c-0.9-0.1-1.7,0.3-2.4,0.7c-0.2,0-0.5,0-0.7,0c-0.9,0-1.8-0.1-2.6,0.5
		c-0.2,0.2-0.6,0.1-1,0.1c-0.6,0-1.1,0.1-1.6,0.5c-0.3,0.2-0.6,0.2-1,0.2C132.4,194.2,131.8,194.2,131.3,194.2z"/>
	<path class="st2" d="M113.9,47.1c0.3-0.2,0.7-0.4,0.7-0.6c0.2-1.6,1.2-2.9,1.9-4.3c0.6-1.1,1-2.3,1.8-3.3c0.8-1,1.3-2.1,2.3-3
		c0.2-0.2,0.3-0.6,0.5-0.9c0.3-0.4,0.6-0.7,0.9-1.1c0.6-0.8,1.6-0.9,2.2-1.6c0.6-0.7,1.3-1.2,2-1.9c0.1-0.1,0.2-0.2,0.3-0.2
		c1,0.2,1.7-0.7,2.6-0.7c0.8,0,1.6-0.1,2.4-0.1c0.5,0,0.9-0.1,1.3-0.3c0.3-0.2,0.6-0.3,1-0.3c0.9,0,1.8,0,2.8,0
		c0.6,0,1.1,0.4,1.6,0.5c0.9,0.2,1.8,0.2,2.6,0.6c0.7,0.3,1.6,0.3,2.2,0.8c0.9,0,1.5,0.4,2.1,0.9c0.5,0.4,1.1,0.8,1.8,1
		c1.6,0.6,2.9,1.8,4.4,2.6c0.5,0.3,0.9,0.7,1.3,1.1c0.2,0.2,0.2,0.6,0.3,0.9c0.1,0.3,0.1,0.7,0.3,1c1.1,1.4,2,3.1,3.1,4.5
		c0.7,0.8,0.9,1.8,1.6,2.6c0.7,0.7,1,1.7,1.5,2.7c0.2-0.3,0.4-0.5,0.6-0.8c0.3,0.2,0.4,0.5,0.4,0.9c0,4.3,0.1,8.5,0.1,12.8
		c0,0.5-0.1,1,0.1,1.3c0.4,0.8,0.4,1.5,0.4,2.3c0,4.8,0,9.7,0,14.5c0,0.6,0,1.2-0.3,1.7c-0.3,0.4-0.2,0.8,0,1.3
		c0.1,0.3,0.3,0.7,0.2,1c-0.5,1-0.4,2-0.5,3c0,3.1-0.1,6.2-0.1,9.3c0,0.6,0,1.2-0.2,1.7c-0.3,0.8-0.4,1.5-0.4,2.3
		c0,1.3,0,2.5-0.1,3.8c0,0.5,0,1-0.2,1.3c-0.5,0.9-0.4,1.8-0.5,2.7c0,0.7,0.1,1.5-0.2,2c-0.5,1.1-0.4,2.2-0.5,3.4c0,0.3,0,0.7-0.2,1
		c-0.4,0.7-0.5,1.5-0.5,2.3c0,1.2-0.9,2.1-0.7,3.3c0,0.2-0.1,0.5-0.2,0.6c-0.4,0.6-0.4,1.3-0.5,2c-0.1,0.7-0.6,1.3-0.6,1.9
		c0,1.1-0.8,1.9-0.8,3c0,0.6-0.1,1.1-0.3,1.7c-0.3,0.6-0.5,1.3-0.7,1.9c0,0.1-0.2,0.1-0.3,0.2c-1,0-2.1,0-3.1-0.1
		c-0.8,0-1.6,0-2.2,0.6c-0.1,0.1-0.5,0-0.6-0.1c-0.5-0.3-0.9-0.7-1.3-1.1c-0.5-0.4-1.1,0-1.6-0.4c-0.4-0.3-0.8-0.5-1.2-0.5
		c-1.3,0-2.5,0-3.8,0c0-1.3,0-2.5,0-3.8c0-0.6,0.1-1.2-0.1-1.7c-0.6-1.7-0.6-3.4-0.6-5.1c0-0.5-0.1-0.9-0.4-1.3
		c-0.1-0.2-0.2-0.4-0.2-0.6c-0.1-1.9-0.1-3.9-0.7-5.8c-0.2-0.7-0.2-1.6-0.1-2.4c0.1-0.9-0.5-1.5-0.6-2.3c-0.1-0.8-0.1-1.6-0.1-2.4
		c0-0.8-0.8-1.4-0.7-2.3c0.1-0.9-0.5-1.5-0.6-2.3c-0.1-0.8-0.1-1.6-0.1-2.4c0-0.2-0.1-0.5-0.2-0.6c-0.4-0.6-0.4-1.3-0.5-2
		c-0.1-0.7-0.6-1.3-0.6-1.9c0-1.3-1-2.3-0.8-3.7c0-0.2-0.1-0.4-0.2-0.6c-0.6-1.1-1.1-2.2-1.4-3.5c-0.3-1.2-0.9-2.3-1.2-3.5
		c-0.2-0.6-0.5-1.3-0.6-1.9c-0.1-0.8-0.8-1.4-0.8-2.2c0-0.6-0.4-1.3-0.7-1.9c-0.3-0.7-0.7-1.4-1.1-2.1c-0.3-0.6-0.7-1.2-0.8-1.9
		c-0.1-0.7-0.6-1.2-0.7-1.9c-0.1-1.2-0.7-2.2-1.4-3.1c-1.5-2-2.3-4.4-3.5-6.6c0-0.8-0.4-1.3-0.8-1.8c-0.3-0.4-0.5-0.8-0.7-1.2
		c-0.9-1.7-2.2-3.2-2.9-5c-0.1-0.2-0.3-0.3-0.4-0.5c-0.7-1-1.4-2-2.1-3.1C113.9,47.5,113.9,47.3,113.9,47.1z"/>
	<path class="st2" d="M156.9,132.6c0-0.2,0-0.5,0.1-0.7c0.6-0.9,0.6-1.9,1.1-2.9c0.5-1,1.1-2,1-3.2c0-0.3,0.3-0.6,0.3-1
		c0.2-1.1,0.9-2.1,1-3.3c0-1.2,0.8-2.1,0.8-3.3c0-0.5,0.4-1,0.6-1.6c0.2-0.8,0-1.6,0.5-2.3c0.4-0.7,0.2-1.6,0.3-2.4
		c0.1-0.4,0-0.9,0.3-1.3c0.3-0.6,0.4-1.3,0.4-2c0-0.9,0-1.8,0.5-2.7c0.2-0.3,0.2-0.7,0.2-1c0.1-1.6,0.1-3.2,0.2-4.8
		c0-0.4,0-0.9,0.2-1.3c0.2-0.5,0.3-1.1,0.4-1.7c0-1.7,0-3.5,0.1-5.2c0-0.9-0.1-1.8,0.4-2.7c0.2-0.4,0.1-0.9,0.1-1.3
		c0-6.1,0.1-12.2,0.1-18.3c0-1.8,0-3.7,0-5.5c0-0.3,0.2-0.6,0.3-0.9c0.4,0.2,0.9,0.4,0.9,0.9c0.1,0.8,0.1,1.6,0.5,2.3
		c0.4,0.6,0.2,1.6,0.8,2.2c0.2,0.9,1,1.6,0.8,2.6c0.4,0.7,0.7,1.4,1.1,2.1c0.1,0.3,0.2,0.7,0.2,1c0,0.6,0.1,1.1,0.4,1.6
		c0.6,0.9,0,2.1,0.8,2.9c0.1,0.9,0.6,1.7,0.8,2.6c0.2,0.9,0.4,1.7,0.7,2.6c0.3,0.8,0.1,1.8,0.7,2.6c0.2,0.3,0,0.9,0.1,1.4
		c0.1,0.5,0.5,1,0.6,1.6c0.1,0.6,0.1,1.1,0.2,1.7c0.7,0.8,0.6,1.7,0.6,2.6c0,0.3,0,0.7,0,1c0,0.2,0.1,0.5,0.2,0.6
		c0.6,0.7,0.5,1.5,0.5,2.3c0,0.8,0,1.6,0.4,2.3c0.2,0.3,0.2,0.7,0.2,1c0.1,2,0.1,3.9,0.1,5.9c0,0.3,0,0.7,0,1c0,0.7,0.7,1.2,0.6,1.9
		c0,0.7-0.2,1.4,0.2,2c0.1,0.2,0.4,0.2,0.5,0.3c0.1,0.7,0.1,1.4-0.2,2c-0.1,0.2-0.4,0.4-0.3,0.6c0.1,1.4-0.8,2.6-0.9,4
		c0,0.6-0.4,1.1-0.6,1.6c-0.2,0.5,0,1.2-0.2,1.7c-0.3,0.7-0.6,1.5-0.6,2.3c0,0.8-0.6,1.4-0.8,2.3c-0.1,0.9-0.7,1.7-0.8,2.6
		c-0.5,0.7-0.3,1.6-0.8,2.2c-0.6,0.8-0.3,1.8-0.7,2.6c-0.4,0.8-0.9,1.6-1.1,2.5c-0.2,0.9-0.8,1.6-0.9,2.6c-0.1,0-0.2,0-0.3,0
		c-0.7,0-1.3,0-1.9-0.6c-0.7-0.8-1.4-1.5-2.2-2.2c-0.2-0.2-0.3-0.4-0.5-0.4c-0.9-0.4-1.7-1.1-2.8-1c-0.7,0.1-1.4,0-2.1,0
		c-0.8-0.8-1.6-1.6-2.4-2.3C157.5,132.9,157.1,132.8,156.9,132.6z"/>
	<path class="st2" d="M112.4,58.4c0.6,0.1,1,0.5,1.3,1c0.4,0.6,0.7,1.2,1,1.8c2.6,5.3,5.4,10.6,7.9,15.9c0.2,0.5,0.5,1,0.6,1.6
		c0.1,0.7,0.6,1.2,0.7,1.9c0.1,0.7,0.4,1.3,0.8,1.9c0.5,0.7,0.4,1.5,0.7,2.3c0.6,1.2,0.8,2.6,1.5,3.8c0.4,0.8,0.3,1.8,0.9,2.6
		c0,1.4,0.8,2.6,0.9,4c0,0.7,0.4,1.3,0.6,1.9c0.1,0.6,0,1.2,0.1,1.7c0.1,0.7,0.7,1.2,0.6,2c-0.1,0.8,0.5,1.5,0.6,2.3
		c0.1,0.7,0.1,1.4,0.1,2.1c0.8,1.1,0.4,2.5,1,3.6c0.2,0.3,0.2,0.7,0.2,1c0,1.5,0,3,0.7,4.4c0.1,0.3,0.1,0.7,0.1,1
		c0,0.7,0.1,1.4,0.4,2c0.2,0.3,0.2,0.7,0.2,1c0.1,1.1-0.1,2.3,0.6,3.3c0.1,0.8,0.1,1.6,0.2,2.4c0.1,1,0.1,2,0.4,3
		c0.4,1.2,0.3,2.5,0.1,3.8c-0.4,0-0.9,0-1.3,0.3c-0.5,0.5-1,0.4-1.5,0c-0.4-0.3-0.8-0.3-1.3-0.3c-0.4,0-0.6-0.2-0.7-0.6
		c0.2-0.1,0.3-0.3,0.5-0.4c0-0.1,0-0.2,0-0.3c-0.7-0.6-0.2-1.6-0.8-2.2c-0.2-0.2-0.3-0.6-0.3-0.9c0-0.8-0.3-1.5-0.6-2.3
		c-0.3-0.6-0.9-1.1-0.8-1.9c0.1-0.8-0.7-1.2-0.7-1.9c0-0.3-0.1-0.7-0.2-1c-0.5-1.1-0.7-2.4-1.3-3.5c-0.2-0.4-0.6-0.8-0.5-1.2
		c0.1-0.8-0.7-1.2-0.7-1.9c0-0.7,0-1.4,0-2.1c0-0.5-0.2-0.9-0.4-1.3c-0.5-0.9-0.9-1.8-1.3-2.8c-0.3-0.7-1-1.4-1-2.1
		c0-0.9-0.8-1.4-0.8-2.3c0-0.5-0.2-0.9-0.5-1.3c-0.3-0.5-0.6-1-0.8-1.5c-0.2-0.5-0.2-1.1-0.5-1.6c-0.3-0.5-0.4-1.1-0.5-1.6
		c-0.1-0.5-0.6-1-0.6-1.6c0-0.6-0.4-1-0.6-1.6c-0.2-0.5-0.1-1.1-0.4-1.6c-0.1-0.2-0.3-0.4-0.3-0.6c0.1-1.1-0.5-2-0.7-3
		c-0.2-1-1-1.8-0.9-2.9c-0.6-0.7-0.5-1.5-0.6-2.3c-0.1-0.5-0.4-1-0.6-1.6c-0.1-0.6-0.1-1.2-0.2-1.7c-0.2-0.5-0.5-1-0.5-1.6
		c0-0.9,0-1.9-0.6-2.6c-0.1-1,0-2.1-0.7-3c0-0.8,0-1.6,0-2.4c0-1.4,0-2.8-0.1-4.1c0-0.3-0.1-0.7-0.2-1c-0.2-0.4-0.4-0.8-0.4-1.3
		c0-0.8-0.1-1.6,0-2.4C111.6,59.8,112,59.1,112.4,58.4z"/>
</g>
</svg>
