<?xml version="1.0" encoding="utf-8"?>
<!-- Generator: Adobe Illustrator 23.0.1, SVG Export Plug-In . SVG Version: 6.00 Build 0)  -->
<svg version="1.1" id="Illustration_for_Main_Site" xmlns="http://www.w3.org/2000/svg" xmlns:xlink="http://www.w3.org/1999/xlink"
	 x="0px" y="0px" viewBox="0 0 100 100" style="enable-background:new 0 0 100 100;" xml:space="preserve">
<style type="text/css">
	.st0{fill:#787A62;}
	.st1{fill:#FFD84A;}
	.st2{fill:#CBCBCA;}
	.st3{fill:#C3C8AD;}
	.st4{fill:#676767;}
	.st5{fill:#B5C1C0;}
	.st6{fill:none;stroke:#000000;stroke-miterlimit:10;}
	.st7{fill:#D7D7D7;}
	.st8{fill:#FCE9A5;}
	.st9{fill:#979797;}
	.st10{fill:#C3C7AD;}
	.st11{fill:#BBBBBA;}
	.st12{fill:#EDECED;}
	.st13{fill:#010101;}
</style>
<g>
	<path class="st0" d="M64.67,41.37c0.01,0.17,0.02,0.34,0.02,0.5c0,0.11,0.01,0.21,0.07,0.3c0.03,0.05,0.03,0.12-0.01,0.18
		c-0.06,0.09-0.07,0.19-0.09,0.3c-0.02,0.18,0.03,0.38-0.09,0.55c-0.02,0.17-0.03,0.33-0.11,0.49c-0.04,0.09-0.04,0.2-0.05,0.31
		c-0.01,0.15,0.01,0.3-0.03,0.44c-0.03,0.12-0.07,0.24-0.06,0.37c0,0.04,0,0.1-0.02,0.12c-0.15,0.17-0.08,0.4-0.18,0.6
		c-0.1,0.2-0.17,0.43-0.19,0.66c-0.02,0.21-0.14,0.39-0.14,0.61c-0.09,0.19-0.16,0.39-0.27,0.56c-0.2,0.32-0.27,0.7-0.44,1.03
		c-0.02,0.04-0.03,0.08-0.03,0.12c0.01,0.16-0.08,0.27-0.16,0.4c-0.1,0.15-0.19,0.32-0.24,0.5c-0.04,0.14-0.11,0.27-0.18,0.4
		c-0.17,0.26-0.34,0.53-0.52,0.78c-0.19,0.26-0.31,0.54-0.42,0.83c-0.07,0.19-0.12,0.4-0.29,0.54c-0.09,0.07-0.1,0.18-0.14,0.27
		c-0.4,0.93-0.43,1.01-0.9,1.63c-0.07,0.22-0.3,0.36-0.31,0.61c0,0.04-0.03,0.08-0.06,0.11c-0.16,0.14-0.19,0.32-0.18,0.51
		c0,0.34,0,0.67,0,1.01c0,0.06,0.02,0.13,0.05,0.18c0.05,0.09,0.02,0.16-0.01,0.24c-0.02,0.06-0.04,0.13-0.02,0.18
		c0.12,0.35,0.08,0.7,0.08,1.06c0,0.19-0.1,0.64-0.19,0.91c-0.02,0.06-0.04,0.12-0.04,0.18c0,0.4,0,0.8,0,1.2
		c0,0.15,0.01,0.29,0.08,0.43c0.03,0.05,0.03,0.12,0.03,0.18c0.03,0.48,0.03,0.97,0.01,1.45c-0.01,0.17,0,0.34-0.09,0.49
		c-0.01,0.02-0.02,0.04-0.02,0.06c-0.01,0.42-0.19,0.81-0.16,1.24c0.01,0.08,0,0.17-0.03,0.25c-0.08,0.19-0.06,0.36,0.02,0.55
		c0.05,0.11,0.03,0.25-0.03,0.37c-0.05,0.1-0.06,0.2-0.06,0.3c0,0.15,0.01,0.3-0.02,0.44c-0.03,0.14-0.11,0.27-0.16,0.41
		c-0.03,0.08-0.05,0.16-0.07,0.24c-0.05,0.18-0.1,0.36-0.13,0.54c-0.02,0.14-0.02,0.29-0.09,0.43c-0.03,0.07-0.03,0.16-0.03,0.25
		c-0.01,0.21-0.01,0.42-0.01,0.63c0,0.23,0,0.46-0.1,0.68c-0.04,0.09-0.01,0.21-0.04,0.31c-0.03,0.1-0.11,0.17-0.13,0.28
		c-0.02,0.12-0.1,0.24-0.1,0.35c0,0.18-0.09,0.32-0.11,0.49c-0.02,0.23-0.02,0.46-0.03,0.69c-0.01,0.21,0.02,0.42-0.08,0.62
		c-0.02,0.05,0,0.12,0.01,0.18c0.01,0.06,0.06,0.14,0.03,0.18c-0.11,0.22-0.06,0.45-0.09,0.68c-0.02,0.14,0.01,0.3-0.08,0.43
		C58.01,73.2,58,73.24,58,73.28c0.01,0.27,0.02,0.54,0.03,0.82c0.11,0.2,0.07,0.41,0.08,0.62c0.01,0.48,0,0.97,0,1.45
		c0,0.15,0,0.29-0.06,0.43c-0.02,0.05-0.02,0.12-0.02,0.18c-0.06,0.65-0.05,1.3-0.02,1.95c0.01,0.18,0,0.38,0.09,0.55
		c0.02,0.03,0.02,0.08,0.02,0.12c-0.02,0.21,0.03,0.42,0.06,0.62c0.13,0.18,0.04,0.42,0.16,0.6c0.03,0.05,0.05,0.12,0.04,0.18
		c-0.03,0.24,0.1,0.45,0.15,0.67c0.03,0.14,0.11,0.26,0.15,0.41c0.03,0.14,0.09,0.28,0.14,0.41c0.05,0.14,0.14,0.26,0.18,0.4
		c0.04,0.14,0.1,0.27,0.14,0.41c0.04,0.14,0.09,0.28,0.14,0.41c0.02,0.06,0.03,0.13,0.06,0.18c0.28,0.41,0.47,0.89,0.83,1.25
		c0.2,0.37,0.54,0.64,0.76,0.99c0.03,0.05,0.09,0.09,0.12,0.15c0.13,0.27,0.33,0.48,0.56,0.67c0.06,0.05,0.11,0.12,0.17,0.19
		c0.05,0.06,0.06,0.17,0.02,0.23c-0.13,0.19-0.25,0.39-0.4,0.56c-0.12,0.15-0.21,0.31-0.31,0.47c-0.25,0.41-0.5,0.82-0.76,1.22
		c-0.07,0.11-0.18,0.12-0.26,0.04c-0.02-0.01-0.03-0.03-0.05-0.04c-0.25-0.28-0.57-0.5-0.74-0.85c-0.37-0.34-0.61-0.79-0.91-1.19
		c-0.3-0.4-0.59-0.81-0.83-1.25c-0.09-0.16-0.24-0.29-0.29-0.48c-0.2-0.19-0.31-0.45-0.42-0.69c-0.09-0.21-0.29-0.36-0.32-0.6
		c-0.12-0.2-0.24-0.39-0.34-0.6c-0.14-0.26-0.27-0.52-0.4-0.78c-0.04-0.07-0.09-0.15-0.09-0.23c-0.01-0.26-0.13-0.48-0.23-0.71
		c-0.03-0.06-0.05-0.12-0.05-0.18c0-0.15-0.08-0.28-0.12-0.42c-0.04-0.14-0.02-0.29-0.11-0.42c-0.06-0.35-0.15-0.69-0.25-1.03
		c-0.04-0.16-0.03-0.33-0.04-0.5c-0.01-0.21,0.01-0.42-0.02-0.63c-0.04-0.23-0.08-0.45-0.08-0.68c0.01-0.23,0-0.46,0-0.69
		c0-0.36,0.01-0.71,0-1.07c0-0.25,0.04-0.5,0.09-0.74c0.03-0.13-0.01-0.26-0.13-0.33c-0.29-0.18-0.52-0.42-0.75-0.67
		c-0.23-0.25-0.5-0.45-0.66-0.75c-0.02-0.04-0.05-0.07-0.08-0.1c-0.37-0.34-0.59-0.8-0.89-1.2c-0.31-0.4-0.54-0.85-0.82-1.26
		c-0.21-0.3-0.33-0.62-0.44-0.96c-0.04-0.12-0.08-0.24-0.12-0.36c-0.07-0.22-0.16-0.43-0.16-0.67c0-0.18-0.11-0.36-0.11-0.55
		c0-0.17,0-0.34-0.1-0.49c-0.01-0.27-0.04-0.54-0.04-0.82c0-0.34,0.01-0.67,0.03-1.01c0.01-0.23,0.02-0.45,0.08-0.68
		c0.05-0.2,0.02-0.42,0.04-0.63c0.01-0.17-0.01-0.33,0.04-0.5c0.1-0.32,0.15-0.65,0.3-0.95c0.17-0.33,0.34-0.67,0.49-1.01
		c0.1-0.23,0.24-0.44,0.31-0.68c0.02-0.08,0.08-0.15,0.12-0.22c0.15-0.25,0.31-0.5,0.46-0.75c0.11-0.18,0.19-0.38,0.33-0.53
		c0.21-0.23,0.35-0.52,0.57-0.75c0.06-0.06,0.11-0.13,0.15-0.2c0.3-0.53,0.69-0.99,1.06-1.47c0.19-0.15,0.24-0.39,0.4-0.56
		c0.15-0.15,0.3-0.3,0.39-0.49c0.26-0.25,0.39-0.59,0.61-0.87c0.22-0.28,0.38-0.6,0.57-0.9c0.14-0.23,0.3-0.45,0.41-0.69
		c0.08-0.16,0.08-0.32,0.07-0.49c-0.11-0.17-0.08-0.36-0.1-0.55c-0.01-0.1-0.01-0.21-0.07-0.3c-0.04-0.08-0.04-0.16-0.05-0.24
		c-0.01-0.21,0-0.42-0.12-0.61c-0.02-0.03-0.02-0.08-0.02-0.12c-0.02-0.17-0.03-0.33-0.1-0.49c-0.06-0.15-0.06-0.32-0.11-0.48
		c-0.07-0.19-0.06-0.41-0.15-0.6c0.01-0.19-0.12-0.36-0.12-0.55c0-0.2-0.15-0.34-0.16-0.54c0-0.12-0.08-0.23-0.11-0.35
		c-0.03-0.12-0.06-0.24-0.1-0.36c-0.05-0.14-0.09-0.27-0.15-0.41c-0.1-0.23-0.19-0.46-0.26-0.7c-0.1-0.34-0.28-0.65-0.46-0.95
		c-0.01-0.02-0.04-0.02-0.05-0.03c0.06-0.17-0.12-0.25-0.13-0.4c0-0.06-0.02-0.12-0.05-0.18c-0.09-0.2-0.24-0.39-0.21-0.64
		c0.01-0.04-0.02-0.08-0.04-0.11c-0.09-0.12-0.09-0.28-0.22-0.37c-0.09-0.06-0.1-0.18-0.16-0.26c-0.07-0.1-0.17-0.17-0.22-0.3
		c-0.09-0.23-0.23-0.44-0.42-0.61c-0.11-0.1-0.21-0.21-0.3-0.32c-0.04-0.04-0.05-0.14-0.09-0.15c-0.18-0.07-0.3-0.22-0.43-0.35
		c-0.18-0.17-0.36-0.35-0.53-0.53c-0.11-0.11-0.22-0.19-0.38-0.17c-0.16-0.1-0.34-0.15-0.47-0.29c-0.06-0.07-0.14-0.08-0.23-0.08
		c-0.04,0-0.09-0.01-0.12-0.03c-0.14-0.16-0.35-0.21-0.51-0.35c-0.11-0.09-0.26-0.14-0.35-0.24c-0.12-0.12-0.27-0.1-0.39-0.16
		c-0.26-0.12-0.51-0.26-0.76-0.4c-0.01,0-0.01-0.04-0.01-0.04c0.01-0.01,0.04-0.03,0.05-0.03c0.21,0,0.41-0.04,0.6,0.1
		c0.04,0.03,0.12,0.02,0.18,0.02c0.29,0,0.59,0.01,0.88,0c0.29-0.01,0.59,0.08,0.85-0.11c0.03-0.02,0.08-0.01,0.12-0.01
		c0.16-0.01,0.34,0.03,0.48-0.1c0.15-0.01,0.29-0.01,0.44-0.02c0.01,0.02,0.01,0.05,0.03,0.06c0.14,0.09,0.28,0.18,0.43,0.25
		c0.36,0.16,0.68,0.4,1.03,0.58c0.04,0.02,0.08,0.03,0.11,0.06c0.22,0.23,0.49,0.39,0.73,0.59c0.15,0.12,0.29,0.23,0.46,0.33
		c0.4,0.24,0.72,0.57,1.04,0.9c0.15,0.15,0.3,0.29,0.43,0.46c0.11,0.15,0.19,0.32,0.28,0.49c0.12,0.24,0.3,0.45,0.42,0.69
		c0.12,0.24,0.24,0.49,0.39,0.72c0.15,0.23,0.27,0.47,0.39,0.71c0.19,0.39,0.38,0.79,0.5,1.21c0.02,0.06,0.06,0.12,0.06,0.18
		c0.02,0.17,0,0.34,0.04,0.5c0.04,0.16,0.09,0.32,0.09,0.49c0,0.3,0.07,0.58,0.17,0.85c0.1-0.01,0.14-0.08,0.17-0.14
		c0.04-0.09,0.06-0.2,0.1-0.29c0.1-0.23,0.17-0.46,0.29-0.68c0.12-0.22,0.19-0.46,0.3-0.68c0.06-0.11,0.11-0.22,0.11-0.35
		c0-0.04,0-0.09,0.02-0.12c0.21-0.32,0.27-0.7,0.4-1.04c0.08-0.19,0.13-0.4,0.2-0.59c0.06-0.18,0.17-0.34,0.17-0.53
		c0.1-0.14,0.09-0.32,0.16-0.47c0.06-0.13,0.05-0.28,0.07-0.43c0.02-0.12,0.12-0.22,0.11-0.36c-0.01-0.1-0.02-0.23,0.03-0.31
		c0.15-0.27,0.06-0.58,0.2-0.85c0.02-0.04,0.02-0.08,0.02-0.12c0.02-0.23,0.04-0.45,0.1-0.68c0.05-0.16,0.03-0.33,0.04-0.5
		c0.08,0,0.15,0.01,0.23,0.05c0.45,0.24,0.45,0.23,0.9,0.33c0.06,0.01,0.1,0.06,0.16,0.09c0.06,0.02,0.12,0.03,0.17-0.02
		c0.15-0.12,0.37-0.04,0.5-0.2c0.13,0,0.23-0.05,0.35-0.1c0.11-0.06,0.2-0.13,0.31-0.2c0.11-0.08,0.24-0.14,0.37-0.2
		C64.58,41.36,64.63,41.37,64.67,41.37z M53.57,67.38c0.01,0.09,0.04,0.22,0.02,0.34c-0.05,0.42,0,0.84,0,1.26
		c0,0.1,0,0.22,0.04,0.31c0.11,0.27,0.11,0.57,0.26,0.83c0.03,0.05,0.06,0.11,0.07,0.17c0.02,0.3,0.18,0.55,0.3,0.81
		c0.12,0.27,0.26,0.52,0.48,0.73c0.06,0.06,0.09,0.14,0.13,0.21c0.04,0.06,0.13,0.11,0.15,0.08c0.02-0.03,0.06-0.07,0.06-0.1
		c0.03-0.21,0.01-0.42,0.12-0.61c-0.01-0.3,0.13-0.57,0.15-0.86c0.01-0.13,0.04-0.24,0.08-0.36c0.1-0.27,0.19-0.55,0.19-0.85
		c0-0.06,0-0.13,0.03-0.18c0.14-0.24,0.03-0.55,0.19-0.78c0-0.34,0.14-0.65,0.15-0.99c0-0.1,0.03-0.21,0.06-0.31
		c0.08-0.26,0.09-0.53,0.16-0.8c0.06-0.22,0-0.46,0.13-0.67c0.01-0.17,0.04-0.34,0.03-0.5c-0.01-0.2,0.13-0.35,0.12-0.55
		c-0.01-0.21,0.03-0.41,0.09-0.61c0.06-0.2,0.02-0.42,0.14-0.61c0.03-0.05,0.02-0.12,0.02-0.19c0.01-0.08-0.01-0.18,0.02-0.25
		c0.1-0.24,0.1-0.49,0.12-0.74c0-0.06,0.01-0.13,0.03-0.18c0.06-0.14,0.06-0.28,0.07-0.43c0.02-0.33-0.02-0.67,0.11-0.99
		c0.02-0.05,0.01-0.12,0.01-0.19c0-0.19,0.01-0.38,0.01-0.57c0-0.25,0-0.5,0-0.76c0-0.07-0.04-0.13-0.09-0.13
		c-0.07,0-0.12,0.05-0.15,0.1c-0.05,0.09-0.1,0.18-0.14,0.28c-0.12,0.24-0.24,0.49-0.35,0.73c-0.08,0.17-0.16,0.34-0.3,0.46
		c-0.18,0.16-0.26,0.38-0.34,0.59c-0.06,0.16-0.12,0.31-0.21,0.45c-0.1,0.16-0.21,0.31-0.31,0.47c-0.08,0.12-0.17,0.24-0.22,0.38
		c-0.06,0.13-0.08,0.27-0.17,0.4c-0.09,0.11-0.14,0.25-0.21,0.38c-0.04,0.07-0.07,0.16-0.13,0.21c-0.2,0.15-0.27,0.36-0.33,0.59
		c-0.05,0.2-0.16,0.39-0.23,0.58c-0.11,0.29-0.22,0.58-0.32,0.88c-0.02,0.06-0.02,0.12-0.02,0.19c-0.01,0.17-0.02,0.34-0.02,0.5
		C53.59,66.51,53.62,66.93,53.57,67.38z"/>
	<path class="st8" d="M64.67,41.37c-0.04,0-0.09-0.01-0.12,0c-0.13,0.06-0.26,0.12-0.37,0.2c-0.1,0.07-0.19,0.14-0.31,0.2
		c-0.11,0.06-0.22,0.1-0.35,0.1c-0.13,0.16-0.36,0.08-0.5,0.2c-0.06,0.05-0.11,0.04-0.17,0.02c-0.06-0.02-0.1-0.08-0.16-0.09
		c-0.45-0.09-0.45-0.09-0.9-0.33c-0.08-0.04-0.15-0.06-0.23-0.05c-0.04-0.1-0.11-0.18-0.21-0.22c-0.12-0.05-0.21-0.14-0.31-0.2
		c-0.34-0.19-0.58-0.48-0.82-0.76c-0.12-0.14-0.2-0.31-0.34-0.45c-0.13-0.13-0.19-0.32-0.32-0.45c-0.04-0.22-0.25-0.32-0.33-0.52
		c-0.07-0.17-0.17-0.33-0.29-0.48c-0.11-0.15-0.19-0.32-0.25-0.5c-0.06-0.18-0.13-0.34-0.25-0.49c-0.11-0.15-0.19-0.32-0.25-0.5
		c-0.06-0.19-0.17-0.38-0.18-0.59c0-0.06,0.01-0.15-0.03-0.18c-0.13-0.13-0.08-0.32-0.17-0.47c-0.09-0.16-0.15-0.34-0.25-0.5
		c-0.09-0.15-0.04-0.34-0.17-0.46c0.02-0.2-0.11-0.35-0.16-0.53c-0.05-0.2-0.11-0.39-0.13-0.6c-0.02-0.2-0.12-0.39-0.13-0.6
		c-0.15-0.21-0.05-0.5-0.22-0.7c0.02-0.26-0.16-0.47-0.15-0.73c0-0.06-0.03-0.12-0.07-0.17c-0.07-0.11-0.06-0.24-0.06-0.37
		c0.1,0.01,0.21,0.01,0.31,0.02c0.16,0.14,0.35,0.11,0.53,0.11c0.65,0,1.3,0,1.94,0c0.26-0.13,0.52-0.25,0.77-0.38
		c0.13-0.07,0.25-0.14,0.41-0.12c0.09,0.01,0.15-0.05,0.23-0.08c0.19-0.06,0.29-0.23,0.47-0.3c0.08-0.03,0.14-0.09,0.2-0.14
		c0.09-0.08,0.19-0.16,0.28-0.24c0.08,0,0.14,0,0.2,0c0.18,0.01,0.29-0.13,0.44-0.2c0.05-0.19,0.24-0.29,0.34-0.44
		c0.11-0.17,0.21-0.36,0.2-0.57c-0.01-0.13,0.01-0.25,0-0.38c-0.01-0.14,0.13-0.21,0.12-0.35c0-0.09,0.02-0.16,0.07-0.23
		c0.06-0.08,0.04-0.15-0.01-0.23c-0.03-0.05-0.08-0.1-0.06-0.17c0.04-0.18-0.06-0.32-0.12-0.47c0.08-0.01,0.17,0,0.24-0.05
		c0.05-0.03,0.11-0.07,0.17-0.07c0.17,0.01,0.32-0.08,0.48-0.12c0.14-0.04,0.29-0.03,0.42-0.11c0.07-0.04,0.16-0.03,0.24-0.03
		c0.19,0,0.34-0.16,0.54-0.14c0.19,0.02,0.38,0,0.56-0.01c0.04,0,0.08-0.03,0.12-0.05c0.04-0.03,0.07-0.01,0.11,0.01
		c0.24,0.09,0.49,0.1,0.73,0.01c0.04-0.01,0.09-0.04,0.11-0.03c0.2,0.12,0.41,0.05,0.62,0.08c0.06,0.01,0.12,0.03,0.18,0.06
		c0.2,0.12,0.42,0.18,0.63,0.26c0.04,0.01,0.07,0.06,0.11,0.05c0.26-0.01,0.48,0.12,0.7,0.23c0.07,0.03,0.18,0.02,0.24,0.06
		c0.16,0.11,0.36,0.09,0.52,0.2c0.15,0.1,0.35,0.13,0.52,0.2c0.15,0.06,0.32,0.11,0.43,0.25c0.13,0.17,0.33,0.27,0.53,0.31
		c0.17,0.04,0.3,0.14,0.45,0.19c0.15,0.06,0.29,0.17,0.42,0.26c0.13,0.1,0.29,0.16,0.4,0.29c0.04,0.05,0.09,0.1,0.14,0.12
		c0.32,0.1,0.49,0.38,0.71,0.6c0.13,0.13,0.21,0.3,0.31,0.46c0.07,0.12,0.14,0.25,0.25,0.35c0.11,0.1,0.18,0.22,0.2,0.38
		c0.01,0.12,0.08,0.23,0.15,0.34c0.1,0.16,0.07,0.37,0.2,0.52c0.01,0.1,0.01,0.21,0.02,0.31c0.01,0.23-0.02,0.45,0.09,0.68
		c0.07,0.15,0.07,0.34,0,0.49c-0.07,0.14-0.08,0.28-0.08,0.42c0,0.11-0.02,0.2-0.08,0.3c-0.07,0.1-0.14,0.21-0.18,0.33
		c-0.1,0.26-0.24,0.48-0.45,0.67c-0.09,0.09-0.17,0.18-0.22,0.3c-0.01,0.04-0.05,0.07-0.08,0.1c-0.01,0.02-0.03,0.03-0.05,0.04
		c-0.22,0.09-0.36,0.28-0.55,0.4c-0.07,0.04-0.15,0.07-0.22,0.11c-0.04,0.02-0.08,0.04-0.12,0.04c-0.25-0.01-0.48,0.16-0.73,0.13
		c-0.08-0.01-0.16,0.02-0.24,0.06c-0.05,0.03-0.11,0.05-0.17,0.06c-0.18,0.03-0.38-0.03-0.54,0.11c-0.01,0.01-0.04,0.01-0.06,0.01
		c-0.71,0-1.43,0.01-2.14,0.02c-0.18,0-0.32-0.1-0.48-0.12c-0.17-0.02-0.3-0.16-0.47-0.14c-0.18,0.02-0.31-0.13-0.48-0.13
		c-0.11,0-0.19-0.08-0.29-0.11c-0.08-0.03-0.17-0.02-0.24-0.06c-0.1-0.05-0.19-0.08-0.3-0.09c-0.04,0-0.08-0.03-0.11-0.06
		c-0.2-0.19-0.46-0.27-0.71-0.36c-0.23-0.08-0.45-0.22-0.67-0.33c-0.04-0.02-0.14,0.05-0.13,0.1c0,0.12-0.03,0.25,0.04,0.37
		c0.08,0.15,0.18,0.29,0.2,0.45c0.03,0.17,0.12,0.31,0.2,0.45c0.08,0.15,0.06,0.33,0.17,0.47c0.06,0.08,0.1,0.18,0.12,0.28
		c0.02,0.1,0.01,0.21,0.01,0.31c0.01,0.13,0,0.25,0.08,0.36c0.07,0.09,0.04,0.2,0.05,0.3c0.01,0.08,0,0.18,0.04,0.24
		c0.13,0.22,0.07,0.45,0.08,0.67c-0.12,0.21-0.11,0.44-0.13,0.67c-0.18,0.18-0.07,0.44-0.2,0.65c-0.12,0.19-0.18,0.42-0.34,0.59
		C64.74,40.92,64.69,41.14,64.67,41.37z"/>
	<path class="st8" d="M52.45,40.74c-0.15,0.01-0.29,0.01-0.44,0.02c-0.14,0.13-0.31,0.1-0.48,0.1c-0.04,0-0.1-0.01-0.12,0.01
		c-0.26,0.2-0.57,0.1-0.85,0.11c-0.29,0.01-0.59,0-0.88,0c-0.06,0-0.14,0.01-0.18-0.02c-0.19-0.13-0.4-0.1-0.6-0.1
		c-0.02,0-0.04,0.02-0.05,0.03c-0.01,0.01,0,0.04,0.01,0.04c0.25,0.13,0.5,0.28,0.76,0.4c0.13,0.06,0.28,0.04,0.39,0.16
		c0.1,0.1,0.25,0.15,0.35,0.24c0.16,0.14,0.37,0.19,0.51,0.35c0.02,0.03,0.08,0.03,0.12,0.03c0.09,0,0.17,0.02,0.23,0.08
		c0.13,0.14,0.31,0.19,0.47,0.29c0.16-0.02,0.27,0.06,0.38,0.17c0.17,0.18,0.35,0.36,0.53,0.53c0.13,0.13,0.25,0.28,0.43,0.35
		c0.04,0.02,0.05,0.11,0.09,0.15c0.1,0.11,0.19,0.22,0.3,0.32c0.19,0.17,0.33,0.37,0.42,0.61c0.05,0.13,0.15,0.2,0.22,0.3
		c0.06,0.08,0.06,0.2,0.16,0.26c0.13,0.09,0.14,0.25,0.22,0.37c0.02,0.03,0.04,0.08,0.04,0.11c-0.04,0.25,0.11,0.43,0.21,0.64
		c0.02,0.05,0.05,0.12,0.05,0.18c0,0.15,0.19,0.24,0.13,0.4c0,0.19,0,0.38,0,0.57c0,0.09,0.02,0.17,0.07,0.24
		c0.04,0.06,0.04,0.12,0.02,0.18c-0.05,0.09-0.08,0.19-0.08,0.3c0,0.15-0.02,0.29-0.03,0.44c-0.13,0.13-0.06,0.33-0.16,0.47
		c-0.02,0.03-0.05,0.07-0.05,0.11c0,0.29-0.14,0.52-0.27,0.75c-0.04,0.07-0.1,0.14-0.12,0.22c-0.09,0.32-0.31,0.54-0.53,0.76
		c-0.06,0.06-0.76,0.51-0.84,0.53c-0.1,0.02-0.21,0.02-0.31,0.03c-0.25,0.19-0.51,0.13-0.77,0.03c-0.06-0.02-0.12-0.03-0.18-0.03
		c-0.13,0-0.25,0-0.38,0c-0.15,0-0.3,0.01-0.44-0.03c-0.12-0.03-0.23-0.1-0.33-0.17c-0.12-0.09-0.3-0.03-0.41-0.15
		c-0.31-0.16-0.65-0.28-0.92-0.52c-0.04-0.04-0.11-0.05-0.17-0.08c-0.17-0.08-0.33-0.17-0.47-0.31c-0.07-0.08-0.18-0.11-0.25-0.18
		c-0.17-0.14-0.41-0.21-0.51-0.44c-0.22-0.09-0.36-0.28-0.52-0.44c-0.23-0.22-0.45-0.44-0.67-0.67c-0.55-0.54-0.57-0.57-0.93-1.07
		c-0.1-0.14-0.18-0.29-0.29-0.4c-0.12-0.12-0.16-0.29-0.28-0.41c-0.17-0.19-0.28-0.41-0.29-0.67c-0.01-0.15-0.09-0.28-0.17-0.39
		c-0.19-0.25-0.33-0.53-0.52-0.77c-0.01-0.01-0.04-0.01-0.06-0.02l0.01,0.01c0-0.08-0.01-0.17-0.01-0.25c0-0.1,0.03-0.22-0.01-0.3
		c-0.07-0.13-0.13-0.25-0.1-0.39c0.03-0.17-0.07-0.3-0.13-0.45c0.2-0.02,0.42,0.04,0.6-0.12c0.14,0,0.29-0.03,0.42,0.06
		c0.11,0.08,0.23,0.08,0.35,0c0.07-0.05,0.15-0.08,0.23-0.07c0.13,0.01,0.24-0.03,0.35-0.1c0.09-0.05,0.18-0.11,0.27-0.14
		c0.12-0.03,0.25-0.02,0.37-0.02c0.06,0,0.13,0,0.15,0c0.2-0.05,0.27-0.25,0.45-0.27c0.14-0.12,0.3-0.23,0.34-0.43
		c0.14-0.14,0.08-0.36,0.21-0.51c0.01-0.1,0.02-0.21,0.02-0.31c0-0.11,0.03-0.2,0.11-0.28c0.04-0.04,0.08-0.1,0.13-0.14
		c0.12-0.09,0.14-0.25,0.23-0.37c0.08-0.11,0.04-0.24,0.05-0.36c0.01-0.06,0-0.13,0.03-0.18c0.14-0.19,0.09-0.4,0.07-0.6
		c-0.15-0.16-0.1-0.35-0.11-0.54c0-0.04,0-0.09-0.03-0.12c-0.12-0.15-0.09-0.31-0.09-0.48c0-0.17,0.02-0.34-0.02-0.5
		c-0.04-0.16-0.16-0.29-0.22-0.44c-0.04-0.11-0.11-0.17-0.17-0.25c-0.1-0.13-0.18-0.28-0.21-0.44c-0.02-0.11-0.05-0.2-0.13-0.27
		c-0.1-0.1-0.21-0.21-0.31-0.31c-0.12-0.11-0.23-0.22-0.39-0.3c-0.14-0.07-0.27-0.2-0.32-0.37c0.1-0.11,0.19-0.22,0.29-0.32
		c0.06-0.06,0.13-0.11,0.17-0.18c0.16-0.31,0.41-0.51,0.69-0.7c0.19-0.13,0.35-0.3,0.51-0.47c0.12-0.13,0.26-0.2,0.41-0.28
		c0.14-0.08,0.31-0.13,0.45-0.21c0.15-0.09,0.33-0.06,0.46-0.18c0.17-0.01,0.32-0.08,0.44-0.2c0.04-0.04,0.11-0.06,0.17-0.07
		c0.35-0.07,0.66-0.16,0.88-0.28c0.09-0.05,0.18-0.1,0.28-0.14c0.1-0.04,0.19-0.08,0.3-0.08c0.54,0,1.09,0,1.63,0
		c0.21,0,0.42-0.03,0.61,0.09c0.05,0.03,0.12,0.01,0.19,0.01c0.18-0.01,0.32,0.06,0.46,0.16c0.29,0.2,0.58,0.4,0.9,0.55
		c0.13,0.06,0.25,0.14,0.36,0.24c0.2,0.18,0.37,0.4,0.62,0.52c0.07,0.03,0.11,0.12,0.15,0.19c0.05,0.09,0.09,0.19,0.13,0.28
		c0.07,0.15,0.19,0.29,0.22,0.45c0.04,0.2,0.03,0.42,0.03,0.63c0,0.1,0,0.21-0.01,0.31c-0.01,0.06-0.02,0.13-0.04,0.18
		c-0.1,0.2-0.19,0.41-0.24,0.64c-0.01,0.04-0.05,0.07-0.06,0.11c-0.05,0.17,0,0.39-0.18,0.52c-0.08,0.15-0.15,0.29-0.23,0.44
		c-0.04,0.07-0.1,0.13-0.15,0.2c-0.1,0.11-0.2,0.21-0.3,0.32c-0.17,0.18-0.37,0.34-0.48,0.57c-0.22,0.22-0.43,0.46-0.66,0.67
		c-0.09,0.08-0.22,0.12-0.31,0.2c-0.11,0.1-0.25,0.15-0.36,0.25c-0.11,0.09-0.22,0.19-0.33,0.3c-0.18,0.18-0.38,0.32-0.62,0.41
		C52.49,40.65,52.47,40.7,52.45,40.74z"/>
	<path class="st8" d="M54.23,29.65c-0.08,0.15-0.23,0.23-0.34,0.36c-0.11,0.13-0.25,0.21-0.39,0.3c-0.14,0.08-0.24,0.23-0.36,0.34
		c-0.25,0.23-0.55,0.37-0.86,0.49c-0.14-0.02-0.23,0.09-0.34,0.13c-0.23,0.09-0.43,0.25-0.69,0.28c-0.27,0.18-0.58,0.22-0.9,0.22
		c-0.16,0-0.34-0.02-0.49,0.09c-0.03,0.02-0.09,0.02-0.12,0c-0.13-0.09-0.28-0.08-0.42-0.1c-0.12-0.02-0.21-0.11-0.35-0.12
		c-0.16-0.01-0.65-0.31-0.76-0.4c-0.3-0.25-0.49-0.56-0.65-0.91c-0.11-0.23-0.19-0.46-0.15-0.72c0.03-0.18-0.02-0.38,0.09-0.55
		c0.01-0.17,0.03-0.33,0.03-0.5c0-0.13,0.02-0.25,0.09-0.36c0.05-0.07,0.07-0.15,0.11-0.22c0.07-0.15,0.12-0.31,0.22-0.44
		c0.14-0.18,0.32-0.34,0.48-0.5c0.18-0.05,0.24-0.21,0.34-0.34c0.22-0.28,0.5-0.51,0.76-0.75c0.03-0.03,0.07-0.05,0.1-0.08
		c0.05-0.03,1.05-0.52,1.12-0.52c0.14,0,0.23-0.09,0.35-0.14c0.13-0.06,0.28-0.08,0.41-0.14c0.14-0.06,0.27-0.1,0.42-0.11
		c0.06,0,0.12-0.04,0.17-0.06c0.12-0.06,0.24-0.05,0.36,0.01c0.15,0.07,0.17,0.07,0.24-0.07c0.1-0.17,0.25-0.28,0.36-0.43
		c-0.15-0.21-0.36-0.33-0.59-0.44c-0.26-0.13-0.55-0.2-0.71-0.46c-0.19-0.12-0.4-0.23-0.62-0.28c-0.13-0.03-0.23-0.09-0.32-0.18
		c-0.12-0.12-0.21-0.27-0.37-0.33c-0.16-0.06-0.23-0.24-0.41-0.27c-0.04-0.01-0.08-0.04-0.11-0.06c-0.16-0.14-0.3-0.31-0.47-0.41
		c-0.17-0.1-0.3-0.22-0.44-0.35c-0.06-0.06-0.12-0.13-0.19-0.16c-0.2-0.09-0.33-0.24-0.43-0.43c-0.06-0.11-0.15-0.21-0.25-0.28
		c-0.13-0.09-0.28-0.16-0.36-0.32c-0.07-0.14-0.21-0.26-0.32-0.39c-0.03-0.03-0.04-0.07-0.05-0.11c-0.01-0.08-0.01-0.18-0.08-0.23
		c-0.17-0.14-0.19-0.37-0.35-0.51c-0.08-0.07-0.13-0.16-0.19-0.24c0.02-0.2-0.16-0.34-0.14-0.54c0.01-0.08-0.01-0.17-0.06-0.24
		c-0.16-0.23-0.21-0.5-0.2-0.77c0.01-0.15,0-0.29-0.09-0.42c-0.03-0.25-0.08-0.5,0.06-0.73c0.03-0.05,0.03-0.12,0.03-0.18
		c0-0.15,0-0.29,0-0.44c0-0.19-0.02-0.38,0.02-0.56c0.03-0.16,0.15-0.3,0.2-0.45c0.06-0.17,0.18-0.33,0.16-0.53
		c0-0.04,0.01-0.09,0.03-0.12c0.13-0.14,0.18-0.34,0.31-0.46c0.21-0.19,0.3-0.45,0.49-0.64c0.06-0.19,0.21-0.3,0.33-0.44
		c0.11-0.13,0.29-0.17,0.41-0.27c0.3-0.02,0.53-0.22,0.8-0.33c0.08-0.03,0.15-0.06,0.23-0.1c0.09-0.06,0.19-0.07,0.3-0.07
		c0.29,0,0.59,0,0.88,0c0.15,0,0.29,0,0.42,0.08c0.03,0.02,0.08,0.03,0.12,0.02c0.25-0.03,0.45,0.04,0.63,0.22
		c0.03,0.03,0.08,0.03,0.11,0.04c0.33,0.07,0.59,0.3,0.9,0.42c0.07,0.03,0.13,0.1,0.19,0.16c0.27,0.26,0.54,0.52,0.81,0.79
		c0.13,0.13,0.25,0.27,0.35,0.44c0.09,0.16,0.26,0.28,0.35,0.44c0.09,0.18,0.23,0.29,0.36,0.43c0.17,0.18,0.32,0.38,0.42,0.61
		c0.09,0.21,0.21,0.4,0.37,0.57c0.13,0.13,0.23,0.3,0.32,0.46c0.05,0.09,0.05,0.2,0.09,0.29c0.11,0.24,0.23,0.49,0.36,0.72
		c0.1,0.18,0.23,0.35,0.36,0.51c0.1,0.12,0.13,0.26,0.21,0.38c0.02,0.03,0.04,0.08,0.03,0.12c-0.03,0.2,0.1,0.36,0.14,0.54
		c0.05,0.2,0.15,0.39,0.13,0.6c-0.01,0.06,0.01,0.13,0.05,0.18c0.09,0.11,0.05,0.25,0.11,0.36c0.05,0.09,0.06,0.2,0.1,0.29
		c0.09,0.2,0.13,0.39,0.12,0.6c-0.01,0.19,0.02,0.37,0.09,0.55c0.03,0.07,0.01,0.17,0.01,0.25c-0.05,0.03-0.1,0.07-0.15,0.1
		c-0.26,0.21-0.42,0.27-0.73,0.27c-0.19,0-0.38,0.01-0.56-0.01c-0.22-0.02-0.38,0.15-0.6,0.14c-0.13,0.06-0.2,0.21-0.36,0.25
		c-0.06,0.02-0.11,0.06-0.15,0.1c-0.21,0.21-0.41,0.41-0.62,0.62c-0.06,0.06-0.21,0.32-0.22,0.44c-0.01,0.11-0.05,0.2-0.12,0.28
		c-0.18,0.2-0.4,0.36-0.66,0.45c-0.15,0.05-0.24,0.16-0.24,0.33c-0.01,0.17-0.17,0.28-0.13,0.47c0.03,0.15,0,0.29-0.1,0.41
		c0,0.08-0.02,0.18,0.02,0.24c0.07,0.11,0.09,0.23,0.09,0.36c0,0.42,0,0.84,0,1.25c0,0.06,0.01,0.13,0.04,0.18
		c0.06,0.09,0.09,0.19,0.08,0.29c-0.01,0.17,0.04,0.32,0.11,0.47c0.06,0.12,0.17,0.24,0.14,0.4c0.08,0.17,0.14,0.34,0.28,0.48
		C54,29.36,54.16,29.47,54.23,29.65z"/>
	<path class="st8" d="M59,21.55c0.02-0.18-0.03-0.38,0.09-0.55c0.07-0.09,0.04-0.2,0.04-0.31c0-0.59,0-1.18-0.01-1.77
		c0-0.11-0.01-0.21,0-0.32c0.01-0.21,0.02-0.42,0.03-0.63c0.13-0.15,0.08-0.37,0.2-0.52c0.02-0.23,0.17-0.42,0.17-0.66
		c0-0.12,0.08-0.23,0.1-0.35c0.02-0.1-0.01-0.22,0.03-0.31c0.07-0.15,0.08-0.32,0.16-0.47c0.15-0.3,0.28-0.6,0.39-0.91
		c0.06-0.16,0.14-0.3,0.21-0.45c0.05-0.11,0.34-0.49,0.42-0.57c0.13-0.13,0.28-0.25,0.36-0.43c0.04-0.09,0.14-0.16,0.21-0.23
		c0.07-0.08,0.16-0.15,0.2-0.24c0.09-0.22,0.27-0.37,0.43-0.53c0.18-0.18,0.37-0.33,0.6-0.44c0.06-0.03,0.12-0.05,0.16-0.09
		c0.29-0.31,0.67-0.5,0.96-0.81c0.07-0.08,0.18-0.1,0.28-0.12c0.1-0.02,0.19-0.09,0.29-0.11c0.08-0.02,0.16-0.03,0.24-0.07
		c0.14-0.09,0.33-0.06,0.47-0.16c0.04-0.03,0.14-0.03,0.18,0c0.3,0.16,0.62,0.08,0.93,0.11c0.13,0.01,0.24,0.04,0.36,0.09
		c0.15,0.06,0.29,0.15,0.46,0.18c0.18,0.04,0.35,0.13,0.48,0.28c0.11,0.14,0.26,0.21,0.41,0.28c0.15,0.07,0.29,0.16,0.41,0.28
		c0.19,0.2,0.39,0.38,0.57,0.58c0.1,0.11,0.16,0.24,0.25,0.36c0.09,0.12,0.21,0.2,0.27,0.34c0.02,0.06,0.06,0.12,0.11,0.15
		c0.22,0.16,0.27,0.42,0.35,0.65c0.05,0.13,0.03,0.3,0.09,0.42c0.07,0.14,0.07,0.28,0.07,0.43c0,0.15,0.02,0.29,0.1,0.42
		c0.03,0.05,0.03,0.12,0.03,0.18c0,0.32,0,0.63-0.01,0.95c0,0.04,0,0.09-0.02,0.12c-0.13,0.21-0.09,0.45-0.11,0.67
		c-0.01,0.16,0.02,0.33-0.09,0.49c-0.04,0.06-0.03,0.16-0.03,0.25c0,0.13-0.02,0.24-0.09,0.36c-0.09,0.14,0,0.33-0.11,0.48
		c-0.08,0.12-0.13,0.26-0.18,0.4c-0.06,0.18-0.15,0.34-0.21,0.52c-0.06,0.15-0.1,0.32-0.17,0.47c-0.06,0.13-0.14,0.26-0.2,0.39
		c-0.03,0.05-0.03,0.12-0.05,0.18c-0.02,0.06-0.03,0.13-0.07,0.17c-0.17,0.21-0.31,0.44-0.46,0.67c-0.04,0.07-0.11,0.13-0.16,0.19
		c-0.16,0.17-0.35,0.31-0.45,0.52c-0.1,0.21-0.32,0.33-0.4,0.56c-0.03,0.07-0.1,0.14-0.17,0.18c-0.16,0.07-0.28,0.18-0.4,0.3
		c-0.15,0.15-0.35,0.23-0.5,0.38c-0.15,0.15-0.29,0.3-0.44,0.45c-0.18,0.18-0.41,0.28-0.63,0.41c-0.19,0.11-0.38,0.25-0.62,0.27
		c-0.07,0.01-0.14,0.08-0.21,0.12c-0.1,0.07-0.21,0.13-0.31,0.21c-0.1,0.07-0.19,0.16-0.33,0.17c-0.1,0.01-0.19,0.09-0.29,0.1
		c-0.13,0.01-0.24,0.08-0.35,0.12c-0.08,0.03-0.17,0.02-0.25,0.03c-0.01-0.13-0.01-0.25-0.02-0.38c0-0.13,0.01-0.25-0.01-0.38
		c-0.02-0.1-0.1-0.19-0.11-0.28c-0.01-0.19-0.18-0.33-0.15-0.53c-0.06-0.08-0.1-0.18-0.14-0.27c-0.03-0.1-0.08-0.19-0.14-0.27
		c-0.06-0.08-0.14-0.15-0.21-0.23c-0.16-0.2-0.38-0.31-0.6-0.43c-0.13-0.07-0.28-0.1-0.38-0.19c-0.19-0.17-0.42-0.26-0.64-0.37
		c-0.08-0.04-0.14-0.08-0.23-0.08c-0.04,0-0.08,0-0.13,0c-0.1,0-0.21,0.02-0.31-0.01c-0.12-0.03-0.23-0.09-0.33-0.16
		c-0.09-0.06-0.19-0.08-0.29-0.09C59.06,21.68,59.02,21.62,59,21.55z"/>
	<path class="st8" d="M44,44.77c0,0.52-0.01,1.05-0.01,1.57c0,0.88,0,1.76,0,2.64c0,0.13,0,0.25-0.07,0.36
		c-0.03,0.05-0.03,0.12-0.03,0.18c-0.01,0.21,0,0.42-0.01,0.63c-0.01,0.21,0.03,0.42-0.09,0.61c-0.03,0.05-0.02,0.12-0.02,0.18
		c-0.01,0.25-0.02,0.5-0.03,0.78c-0.19,0.38-0.4,0.79-0.6,1.2c-0.06,0.13-0.12,0.26-0.2,0.39c-0.09,0.16-0.28,0.26-0.34,0.45
		c-0.29,0.18-0.49,0.45-0.76,0.65c-0.05,0.04-0.12,0.05-0.17,0.08c-0.14,0.09-0.28,0.18-0.42,0.27c-0.16,0.1-0.31,0.2-0.51,0.23
		c-0.16,0.02-0.29,0.16-0.47,0.13c-0.07-0.01-0.15,0.05-0.23,0.08c-0.04,0.01-0.09,0.03-0.12,0.01c-0.19-0.13-0.4-0.09-0.61-0.09
		c-0.14,0-0.23-0.13-0.35-0.12c-0.22,0.02-0.39-0.14-0.6-0.15c-0.06,0-0.12-0.04-0.17-0.06c-0.2-0.1-0.41-0.21-0.61-0.32
		c-0.07-0.04-0.14-0.08-0.21-0.14c-0.11-0.09-0.2-0.21-0.35-0.25c-0.05-0.02-0.1-0.07-0.14-0.12c-0.18-0.23-0.36-0.46-0.53-0.69
		c-0.01-0.02-0.02-0.04-0.02-0.06c-0.01-0.24-0.16-0.42-0.26-0.63c-0.07-0.15-0.12-0.31-0.17-0.46c-0.05-0.14-0.13-0.26-0.19-0.39
		c0.01-0.21-0.17-0.38-0.15-0.6c0.02-0.17-0.16-0.3-0.13-0.47c-0.09-0.13-0.11-0.27-0.11-0.42c0-0.92,0.01-1.85,0-2.77
		c0-0.28,0.09-0.53,0.18-0.78c0.06-0.16,0.16-0.3,0.19-0.46c0.03-0.15,0.15-0.26,0.14-0.41c0-0.06,0.04-0.11,0.07-0.17
		c0.07-0.17,0.17-0.33,0.2-0.52c0.03-0.16,0.15-0.3,0.21-0.45c0.03-0.07,0.02-0.18,0.07-0.24c0.13-0.14,0.2-0.32,0.31-0.47
		c0.1-0.13,0.25-0.23,0.3-0.39c0.33-0.19,0.54-0.52,0.87-0.71c0.26-0.15,0.46-0.36,0.63-0.61c0-0.12,0.01-0.25,0-0.37
		c-0.02-0.16,0.08-0.28,0.13-0.41c0.08,0.01,0.17,0.01,0.23,0.07c0.09,0.09,0.19,0.17,0.26,0.27c0.11,0.15,0.28,0.17,0.41,0.27
		c0.11,0.07,0.24,0.03,0.37,0.05c0.19,0.12,0.33,0.31,0.5,0.46c0.06,0.05,0.12,0.12,0.19,0.16c0.3,0.13,0.58,0.33,0.93,0.27
		c0.06-0.01,0.13,0,0.19,0c0.07-0.01,0.12,0.03,0.17,0.06c0.06,0.03,0.12,0.04,0.17,0.07c0.15,0.08,0.28,0.19,0.44,0.23
		c0.18,0.04,0.37,0,0.56,0.01c0.11,0.01,0.19-0.05,0.29-0.1c0.05-0.02,0.12,0,0.18,0c0.01,0.38-0.01,0.39,0.15,0.64
		c0.09,0.15,0.12,0.3,0.11,0.47c0,0.06,0.04,0.11,0.11,0.13c0.01,0.06,0.01,0.12,0.02,0.17c0.02,0.06,0.07,0.09,0.13,0.08L44,44.77z
		"/>
	<path class="st8" d="M37.94,39.61c-0.04,0.02-0.08,0.02-0.11,0.05c-0.32,0.22-0.67,0.2-1.03,0.18c-0.25-0.18-0.58-0.05-0.84-0.22
		c-0.05-0.03-0.12-0.02-0.18-0.02c-0.13-0.01-0.26,0.01-0.38-0.02c-0.12-0.03-0.22-0.11-0.34-0.16c-0.06-0.03-0.12-0.07-0.17-0.06
		c-0.22,0.02-0.41-0.09-0.59-0.19c-0.15-0.08-0.32-0.09-0.46-0.17c-0.16-0.09-0.33-0.18-0.5-0.24c-0.15-0.06-0.31-0.11-0.46-0.17
		c-0.15-0.07-0.29-0.18-0.45-0.22c-0.15-0.04-0.28-0.08-0.39-0.18c-0.05-0.04-0.11-0.08-0.16-0.08c-0.24-0.03-0.41-0.19-0.62-0.27
		c-0.31-0.24-0.68-0.39-1.03-0.58c-0.24-0.13-0.48-0.24-0.69-0.41c-0.13-0.02-0.2-0.14-0.31-0.2c-0.13-0.07-0.26-0.13-0.38-0.2
		c-0.11-0.07-0.2-0.16-0.3-0.23c-0.36-0.24-0.61-0.47-0.8-0.77c-0.07-0.11-0.15-0.2-0.27-0.25c-0.09-0.04-0.13-0.11-0.12-0.19
		c0.01-0.25-0.09-0.44-0.25-0.62c-0.14-0.16-0.3-0.29-0.39-0.49c-0.09-0.19-0.27-0.31-0.38-0.5c-0.1-0.18-0.28-0.31-0.41-0.47
		c-0.09-0.11-0.1-0.23-0.02-0.35c0.12-0.18,0.11-0.35,0.02-0.53c-0.09-0.21-0.14-0.43-0.31-0.58c-0.01-0.13-0.01-0.23-0.02-0.33
		c-0.01-0.15,0-0.29,0.1-0.42c0.06-0.08,0.1-0.18,0.14-0.28c0.03-0.08,0.03-0.17,0.06-0.24c0.05-0.09,0.08-0.19,0.09-0.29
		c0.04-0.41,0.27-0.69,0.62-0.88c0.22-0.12,0.44-0.23,0.66-0.34c0.22-0.11,0.64-0.25,0.88-0.29c0.06-0.01,0.13-0.01,0.18-0.05
		c0.11-0.08,0.23-0.08,0.36-0.08c0.06,0,0.13-0.02,0.18-0.05c0.09-0.06,0.19-0.08,0.3-0.08c0.36,0,0.71,0,1.07,0.01
		c0.1,0,0.23-0.02,0.31,0.02c0.16,0.08,0.32,0.07,0.48,0.12c0.16,0.05,0.3,0.15,0.45,0.21c0.07,0.03,0.18,0.01,0.24,0.06
		c0.36,0.25,0.76,0.43,1.14,0.63c0.07,0.04,0.13,0.1,0.19,0.16c0.18,0.18,0.35,0.36,0.53,0.54c0.21,0.2,0.38,0.45,0.67,0.56
		c0.2,0.19,0.4,0.37,0.59,0.56c0.03,0.03,0.06,0.06,0.08,0.1c0.12,0.36,0.4,0.62,0.54,0.97c0.07,0.17,0.16,0.34,0.28,0.49
		c0.11,0.14,0.18,0.32,0.27,0.49c0.07,0.13,0.13,0.25,0.23,0.37c0.16,0.19,0.31,0.39,0.44,0.6c0.07,0.1,0.12,0.22,0.14,0.34
		c0.05,0.25,0.2,0.45,0.31,0.68c0.05,0.09,0.14,0.15,0.26,0.16c0.06,0.01,0.11,0.05,0.16,0.07c0.04,0.17,0.21,0.26,0.27,0.43
		c0,0.11-0.01,0.24,0,0.36c0.01,0.08,0.01,0.18,0.05,0.24c0.09,0.14,0.06,0.33,0.18,0.46c0.01,0.17,0.09,0.32,0.15,0.47
		c0,0.14-0.01,0.29,0.01,0.43c0.01,0.15-0.07,0.27-0.12,0.4c-0.04,0.1-0.11,0.17-0.17,0.25c-0.05,0.06-0.09,0.13-0.09,0.22
		c0,0.17,0.01,0.33,0,0.5c-0.01,0.15,0.03,0.28,0.11,0.4C37.96,39.48,37.94,39.55,37.94,39.61z"/>
	<path class="st8" d="M39.57,35.57c-0.16-0.08-0.27-0.22-0.34-0.36c-0.23-0.42-0.43-0.85-0.64-1.28c0.01-0.2-0.13-0.35-0.2-0.52
		c-0.06-0.16-0.16-0.29-0.27-0.42c-0.05-0.06-0.09-0.14-0.12-0.22c-0.02-0.06-0.04-0.12-0.04-0.18c0-0.23,0-0.46-0.12-0.67
		c-0.04-0.06-0.01-0.17-0.02-0.25c-0.01-0.08-0.01-0.17-0.05-0.24c-0.04-0.1-0.07-0.19-0.08-0.3c-0.01-0.25,0.04-0.51-0.11-0.73
		c-0.01-0.02,0-0.04,0-0.06c-0.01-0.15-0.03-0.3-0.01-0.44c0.01-0.16-0.1-0.28-0.1-0.42c-0.02-0.27-0.02-0.55-0.02-0.82
		c0-0.15,0-0.29,0.01-0.44c0.01-0.1-0.03-0.22,0.04-0.31c0.1-0.12,0.04-0.29,0.13-0.41c0.16-0.22,0.18-0.51,0.31-0.74
		c0.01-0.19,0.11-0.36,0.19-0.52c0.25-0.5,0.5-1,0.76-1.5c0.05-0.1,0.07-0.19,0.09-0.3c0.2-0.27,0.34-0.58,0.61-0.78
		c0.17-0.12,0.35-0.23,0.57-0.22c0.13,0.01,0.24-0.02,0.36-0.07c0.13-0.05,0.28-0.05,0.42-0.09c0.08-0.02,0.15-0.07,0.24-0.07
		c0.27,0,0.55,0,0.82-0.01c0.11,0,0.2,0.04,0.29,0.09c0.05,0.03,0.12,0.02,0.18-0.01c0.03-0.02,0.09-0.04,0.11-0.03
		c0.11,0.08,0.24,0.06,0.36,0.08c0.06,0.01,0.12,0.03,0.18,0.06c0.13,0.06,0.26,0.14,0.39,0.18c0.1,0.03,0.2,0.06,0.28,0.13
		c0.28,0.23,0.5,0.51,0.75,0.76c0.03,0.03,0.06,0.06,0.07,0.1c0.09,0.33,0.4,0.53,0.53,0.84c0.14,0.16,0.1,0.4,0.24,0.57
		c-0.01,0.18,0.12,0.31,0.14,0.48c0.02,0.17,0.13,0.3,0.2,0.45c0.06,0.11,0.01,0.25,0.1,0.36c0.07,0.08,0.05,0.2,0.08,0.3
		c0.06,0.22,0.13,0.44,0.13,0.67c0,0.1,0.08,0.19,0.1,0.29c0.02,0.14,0.03,0.29,0.03,0.44c0,0.13,0.01,0.25,0.08,0.36
		c0.03,0.05,0.04,0.12,0.04,0.18c0,0.34,0,0.67-0.01,1.01c0,0.11-0.02,0.21-0.08,0.3c-0.01,0.02-0.03,0.04-0.03,0.06
		c-0.01,0.19-0.03,0.38-0.03,0.56c0,0.17-0.12,0.31-0.12,0.48c0,0.21,0.01,0.42-0.11,0.61c-0.02,0.03,0,0.08-0.01,0.12
		c-0.01,0.1-0.02,0.21-0.03,0.31c-0.13,0.13-0.09,0.32-0.17,0.46c-0.1,0.18-0.22,0.36-0.27,0.56c-0.09,0.35-0.29,0.64-0.43,0.96
		c-0.07-0.04-0.14-0.09-0.21-0.12c-0.17-0.07-0.33-0.19-0.5-0.23c-0.17-0.05-0.37-0.02-0.56-0.03c-0.06,0-0.14,0-0.18-0.03
		c-0.12-0.11-0.29-0.05-0.4-0.14c-0.12-0.11-0.29-0.03-0.41-0.13c-0.06-0.05-0.11-0.01-0.16,0.01c-0.06,0.02-0.12,0.04-0.18,0.04
		c-0.13,0-0.24,0.02-0.35,0.1c-0.12,0.08-0.28,0.1-0.38,0.19c-0.14,0.11-0.32,0.08-0.46,0.17c-0.1,0.06-0.24,0.05-0.34,0.12
		c-0.12,0.07-0.24,0.05-0.36,0.06c-0.04,0-0.09,0.01-0.11,0.04c-0.16,0.16-0.37,0.26-0.58,0.35c-0.09,0.04-0.08,0.14-0.14,0.19
		C39.65,35.54,39.61,35.55,39.57,35.57z"/>
	<path class="st1" d="M59,21.55c0.02,0.06,0.06,0.12,0.12,0.13c0.1,0.01,0.2,0.02,0.29,0.09c0.1,0.07,0.21,0.13,0.33,0.16
		c0.1,0.03,0.21,0.01,0.31,0.01c0.04,0,0.08,0,0.13,0c0.09,0,0.16,0.04,0.23,0.08c0.22,0.11,0.45,0.2,0.64,0.37
		c0.1,0.09,0.26,0.13,0.38,0.19c0.22,0.12,0.44,0.23,0.6,0.43c0.06,0.08,0.15,0.15,0.21,0.23c0.06,0.08,0.11,0.18,0.14,0.27
		c0.04,0.1,0.08,0.19,0.14,0.27c-0.03,0.2,0.14,0.34,0.15,0.53c0.01,0.1,0.09,0.19,0.11,0.28c0.02,0.12,0.01,0.25,0.01,0.38
		c0,0.13,0.01,0.25,0.02,0.38c-0.06,0.54-0.03,1.09-0.01,1.63c0.06,0.15,0.16,0.29,0.12,0.47c-0.01,0.07,0.03,0.12,0.06,0.17
		c0.05,0.08,0.07,0.15,0.01,0.23c-0.05,0.07-0.08,0.15-0.07,0.23c0.01,0.13-0.13,0.21-0.12,0.35c0.01,0.12,0,0.25,0,0.38
		c0.01,0.22-0.08,0.4-0.2,0.57c-0.1,0.15-0.29,0.25-0.34,0.44c-0.15,0.06-0.26,0.2-0.44,0.2c-0.06,0-0.13,0-0.2,0
		c-0.09,0.08-0.18,0.16-0.28,0.24c-0.06,0.05-0.12,0.11-0.2,0.14c-0.17,0.07-0.28,0.24-0.47,0.3c-0.08,0.02-0.14,0.09-0.23,0.08
		c-0.16-0.02-0.28,0.05-0.41,0.12c-0.26,0.13-0.51,0.26-0.77,0.38c-0.65,0-1.3,0-1.94,0c-0.19,0-0.38,0.03-0.53-0.11
		c-0.1-0.01-0.21-0.01-0.31-0.02c-0.07-0.15-0.24-0.14-0.35-0.24c-0.16,0.02-0.27-0.1-0.41-0.12c-0.11-0.01-0.2-0.06-0.28-0.13
		c-0.13-0.11-0.25-0.22-0.39-0.3c-0.14-0.08-0.27-0.2-0.33-0.37c-0.05-0.14-0.18-0.23-0.3-0.31c-0.05-0.03-0.12-0.02-0.18-0.03
		c-0.07-0.18-0.24-0.29-0.36-0.42c-0.13-0.14-0.2-0.31-0.28-0.48c0.03-0.16-0.08-0.28-0.14-0.4c-0.08-0.16-0.12-0.3-0.11-0.47
		c0.01-0.11-0.03-0.2-0.08-0.29c-0.03-0.05-0.04-0.12-0.04-0.18c0-0.42-0.01-0.84,0-1.25c0-0.13-0.03-0.24-0.09-0.36
		c-0.04-0.06-0.02-0.16-0.02-0.24c0.1-0.12,0.13-0.27,0.1-0.41c-0.04-0.19,0.13-0.31,0.13-0.47c0.01-0.17,0.1-0.27,0.24-0.33
		c0.26-0.1,0.47-0.25,0.66-0.45c0.07-0.08,0.11-0.17,0.12-0.28c0.01-0.11,0.16-0.38,0.22-0.44c0.2-0.21,0.41-0.42,0.62-0.62
		c0.04-0.04,0.1-0.09,0.15-0.1c0.15-0.04,0.22-0.19,0.36-0.25c0.21,0.01,0.38-0.16,0.6-0.14c0.19,0.02,0.38,0.01,0.56,0.01
		c0.31,0,0.47-0.06,0.73-0.27c0.05-0.04,0.1-0.07,0.15-0.1c0.06-0.01,0.14,0.01,0.18-0.02c0.13-0.08,0.26-0.11,0.41-0.11
		C58.55,21.56,58.78,21.56,59,21.55z"/>
	<path class="st1" d="M39.57,35.57c0.04-0.02,0.08-0.03,0.1-0.06c0.06-0.06,0.05-0.16,0.14-0.19c0.21-0.09,0.41-0.19,0.58-0.35
		c0.03-0.03,0.07-0.03,0.11-0.04c0.12-0.01,0.24,0.01,0.36-0.06c0.1-0.06,0.24-0.05,0.34-0.12c0.14-0.09,0.32-0.05,0.46-0.17
		c0.11-0.09,0.27-0.11,0.38-0.19c0.11-0.08,0.23-0.09,0.35-0.1c0.06,0,0.12-0.02,0.18-0.04c0.05-0.02,0.1-0.07,0.16-0.01
		c0.12,0.1,0.28,0.03,0.41,0.13c0.11,0.09,0.28,0.04,0.4,0.14c0.04,0.03,0.12,0.03,0.18,0.03c0.19,0.01,0.38-0.02,0.56,0.03
		c0.17,0.05,0.33,0.16,0.5,0.23c0.07,0.03,0.14,0.08,0.21,0.12c0.06,0.15,0.16,0.24,0.32,0.24c0.04,0,0.08,0.01,0.12,0
		c0.18-0.01,0.32,0.06,0.45,0.18c0.07,0.07,0.12,0.17,0.24,0.18c0.05,0.17,0.18,0.3,0.32,0.37c0.16,0.08,0.27,0.19,0.39,0.3
		c0.11,0.1,0.21,0.21,0.31,0.31c0.08,0.08,0.11,0.16,0.13,0.27c0.03,0.16,0.11,0.31,0.21,0.44c0.06,0.08,0.13,0.15,0.17,0.25
		c0.06,0.15,0.18,0.29,0.22,0.44c0.04,0.16,0.02,0.33,0.02,0.5c0,0.17-0.02,0.33,0.09,0.48c0.02,0.03,0.02,0.08,0.03,0.12
		c0.01,0.18-0.03,0.38,0.11,0.54c0.02,0.21,0.07,0.41-0.07,0.6c-0.03,0.04-0.03,0.12-0.03,0.18c-0.01,0.12,0.03,0.25-0.05,0.36
		c-0.08,0.12-0.1,0.27-0.23,0.37c-0.05,0.04-0.09,0.09-0.13,0.14c-0.08,0.08-0.11,0.17-0.11,0.28c0,0.1-0.01,0.21-0.02,0.31
		c-0.13,0.14-0.07,0.37-0.21,0.51c-0.04,0.2-0.2,0.31-0.34,0.43c-0.18,0.02-0.25,0.22-0.45,0.27c-0.03,0-0.09,0-0.15,0
		c-0.12,0-0.25-0.01-0.37,0.02c-0.1,0.02-0.19,0.09-0.27,0.14c-0.11,0.07-0.22,0.11-0.35,0.1c-0.09-0.01-0.16,0.02-0.23,0.07
		c-0.11,0.07-0.24,0.08-0.35,0c-0.13-0.1-0.28-0.07-0.42-0.06c-0.17,0.17-0.39,0.1-0.6,0.12c-0.04-0.15-0.16-0.13-0.27-0.11
		c-0.06,0-0.13-0.02-0.18,0c-0.09,0.05-0.17,0.1-0.29,0.1c-0.19-0.01-0.38,0.03-0.56-0.01c-0.15-0.04-0.29-0.15-0.44-0.23
		c-0.05-0.03-0.11-0.05-0.17-0.07c-0.06-0.03-0.1-0.07-0.17-0.06c-0.06,0.01-0.13-0.01-0.19,0c-0.36,0.06-0.63-0.14-0.93-0.27
		c-0.07-0.03-0.13-0.1-0.19-0.16c-0.17-0.15-0.31-0.34-0.5-0.46c-0.13-0.02-0.26,0.03-0.37-0.05c-0.14-0.09-0.31-0.12-0.41-0.27
		c-0.07-0.1-0.18-0.18-0.26-0.27c-0.06-0.06-0.15-0.06-0.23-0.07c-0.01-0.14,0-0.28-0.11-0.4c-0.22-0.22-0.24-0.55-0.4-0.81
		c-0.01-0.02-0.01-0.04-0.01-0.06c0.02-0.17-0.04-0.32-0.11-0.47c-0.02-0.04-0.01-0.08-0.02-0.12c0-0.06,0.02-0.14-0.01-0.18
		c-0.08-0.13-0.12-0.25-0.11-0.4c0.01-0.16,0.01-0.33,0-0.5c0-0.09,0.04-0.16,0.09-0.22c0.07-0.08,0.13-0.15,0.17-0.25
		c0.05-0.13,0.13-0.25,0.12-0.4c-0.01-0.14,0-0.29-0.01-0.43c0.03-0.02,0.08-0.03,0.1-0.06c0.06-0.11,0.11-0.22,0.16-0.33
		c0.03-0.06,0.06-0.1,0.12-0.13c0.24-0.13,0.42-0.31,0.54-0.56c0.06-0.13,0.18-0.22,0.28-0.33C39.46,35.74,39.56,35.69,39.57,35.57z
		"/>
</g>
</svg>
