<?xml version="1.0" encoding="utf-8"?>
<!-- Generator: Adobe Illustrator 23.0.1, SVG Export Plug-In . SVG Version: 6.00 Build 0)  -->
<svg version="1.1" id="Layer_1" xmlns="http://www.w3.org/2000/svg" xmlns:xlink="http://www.w3.org/1999/xlink" x="0px" y="0px"
	 viewBox="0 0 267.9 433.8" style="enable-background:new 0 0 267.9 433.8;" xml:space="preserve">
<style type="text/css">
	.st0{fill:#787A62;}
	.st1{fill:#FCE9A5;}
	.st2{fill:#FFD84A;}
</style>
<title>Asset 6</title>
<g>
	<path class="st0" d="M214.4,169.6c0,0.9,0.1,1.8,0.1,2.8c0,0.6,0.1,1.1,0.4,1.6c0.2,0.3,0.2,0.6,0,1c-0.3,0.5-0.4,1.1-0.5,1.6
		c-0.1,1,0.2,2.1-0.5,3c-0.1,0.9-0.2,1.8-0.6,2.7c-0.2,0.5-0.2,1.1-0.3,1.7c-0.1,0.8,0,1.6-0.2,2.4c-0.2,0.7-0.4,1.3-0.4,2
		c0,0.2,0,0.5-0.1,0.7c-0.8,0.9-0.4,2.2-1,3.3c-0.5,1.1-0.9,2.3-1.1,3.6c-0.1,1.1-0.8,2.2-0.8,3.3c-0.5,1-0.9,2.1-1.5,3.1
		c-1.1,1.8-1.5,3.8-2.4,5.6c-0.1,0.2-0.2,0.4-0.1,0.7c0,0.9-0.4,1.5-0.9,2.2c-0.6,0.8-1,1.8-1.3,2.8c-0.2,0.8-0.6,1.5-1,2.2
		c-0.9,1.5-1.8,2.9-2.9,4.3c-1,1.4-1.7,2.9-2.3,4.6c-0.4,1.1-0.6,2.2-1.6,3c-0.5,0.4-0.5,1-0.8,1.5c-2.2,5.1-2.4,5.6-4.9,9
		c-0.4,1.2-1.6,2-1.7,3.3c0,0.2-0.2,0.5-0.3,0.6c-0.9,0.7-1,1.7-1,2.8c0,1.8,0,3.7,0,5.5c0,0.3,0.1,0.7,0.3,1c0.3,0.5,0.1,0.9,0,1.3
		c-0.1,0.3-0.2,0.7-0.1,1c0.6,1.9,0.4,3.9,0.4,5.8c0,1-0.6,3.5-1.1,5c-0.1,0.3-0.2,0.7-0.2,1c0,2.2,0,4.4,0,6.6c0,0.8,0,1.6,0.4,2.3
		c0.2,0.3,0.2,0.7,0.2,1c0.1,2.6,0.2,5.3,0.1,7.9c0,0.9,0,1.9-0.5,2.7c-0.1,0.1-0.1,0.2-0.1,0.3c-0.1,2.3-1,4.5-0.9,6.8
		c0,0.4,0,0.9-0.2,1.4c-0.4,1-0.3,2,0.1,3c0.3,0.6,0.2,1.4-0.1,2c-0.3,0.5-0.3,1.1-0.3,1.7c0,0.8,0,1.6-0.1,2.4
		c-0.2,0.8-0.6,1.5-0.9,2.2c-0.2,0.4-0.3,0.9-0.4,1.3c-0.3,1-0.6,2-0.7,3c-0.1,0.8-0.1,1.6-0.5,2.3c-0.2,0.4-0.2,0.9-0.2,1.4
		c0,1.2-0.1,2.3-0.1,3.5c0,1.3,0,2.5-0.5,3.7c-0.2,0.5,0,1.2-0.2,1.7c-0.2,0.5-0.6,1-0.7,1.6c-0.1,0.7-0.6,1.3-0.6,1.9
		c0,1-0.5,1.8-0.6,2.7c-0.1,1.3-0.1,2.5-0.2,3.8c0,1.1,0.1,2.3-0.4,3.4c-0.1,0.3,0,0.7,0.1,1c0.1,0.3,0.3,0.7,0.2,1
		c-0.6,1.2-0.3,2.5-0.5,3.7c-0.1,0.8,0,1.6-0.4,2.3c-0.1,0.2-0.2,0.4-0.2,0.7c0,1.5,0.1,3,0.2,4.5c0.6,1.1,0.4,2.3,0.4,3.4
		c0,2.6,0,5.3,0,7.9c0,0.8,0,1.6-0.4,2.4c-0.1,0.3-0.1,0.7-0.1,1c-0.3,3.6-0.3,7.1-0.1,10.7c0,1,0,2.1,0.5,3
		c0.1,0.2,0.1,0.5,0.1,0.7c-0.1,1.2,0.1,2.3,0.3,3.4c0.7,1,0.2,2.3,0.9,3.3c0.2,0.3,0.3,0.7,0.2,1c-0.1,1.3,0.5,2.4,0.8,3.7
		c0.2,0.8,0.6,1.4,0.8,2.2c0.2,0.8,0.5,1.5,0.8,2.3c0.3,0.8,0.8,1.4,1,2.2c0.2,0.8,0.5,1.5,0.7,2.2c0.2,0.8,0.5,1.5,0.8,2.3
		c0.1,0.3,0.1,0.7,0.3,1c1.6,2.3,2.6,4.9,4.5,6.9c1.1,2,2.9,3.5,4.2,5.5c0.2,0.3,0.5,0.5,0.6,0.8c0.7,1.5,1.8,2.6,3.1,3.7
		c0.4,0.3,0.6,0.7,0.9,1c0.3,0.3,0.4,0.9,0.1,1.3c-0.7,1-1.4,2.1-2.2,3.1c-0.7,0.8-1.1,1.7-1.7,2.6c-1.4,2.2-2.8,4.5-4.1,6.7
		c-0.4,0.6-1,0.7-1.5,0.2c-0.1-0.1-0.2-0.1-0.3-0.2c-1.4-1.6-3.1-2.7-4.1-4.7c-2.1-1.9-3.4-4.3-5-6.5c-1.6-2.2-3.2-4.4-4.5-6.9
		c-0.5-0.9-1.3-1.6-1.6-2.6c-1.1-1.1-1.7-2.4-2.3-3.8c-0.5-1.1-1.6-2-1.8-3.3c-0.6-1.1-1.3-2.2-1.9-3.3c-0.8-1.4-1.5-2.8-2.2-4.3
		c-0.2-0.4-0.5-0.8-0.5-1.3c-0.1-1.4-0.7-2.6-1.3-3.9c-0.1-0.3-0.3-0.7-0.3-1c0-0.8-0.4-1.5-0.6-2.3c-0.2-0.8-0.1-1.6-0.6-2.3
		c-0.3-1.9-0.8-3.8-1.3-5.7c-0.2-0.9-0.2-1.8-0.2-2.7c-0.1-1.2,0-2.3-0.1-3.5c-0.2-1.2-0.5-2.5-0.4-3.7c0-1.3,0-2.5,0-3.8
		c0-2,0.1-3.9,0-5.9c0-1.4,0.2-2.7,0.5-4.1c0.1-0.7-0.1-1.4-0.7-1.8c-1.6-1-2.9-2.3-4.1-3.7c-1.2-1.3-2.7-2.5-3.6-4.1
		c-0.1-0.2-0.3-0.4-0.4-0.5c-2-1.9-3.2-4.4-4.9-6.6c-1.7-2.2-2.9-4.6-4.5-6.9c-1.1-1.6-1.8-3.4-2.4-5.3c-0.2-0.7-0.4-1.3-0.6-2
		c-0.4-1.2-0.9-2.3-0.9-3.7c0-1-0.6-2-0.6-3c0-0.9,0-1.9-0.5-2.7c-0.1-1.5-0.2-3-0.2-4.5c0-1.8,0.1-3.7,0.1-5.5
		c0.1-1.3,0.1-2.5,0.4-3.7c0.3-1.1,0.1-2.3,0.2-3.4c0.1-0.9,0-1.8,0.2-2.7c0.5-1.7,0.8-3.6,1.7-5.2c0.9-1.8,1.8-3.7,2.7-5.6
		c0.6-1.2,1.3-2.4,1.7-3.7c0.1-0.4,0.4-0.8,0.7-1.2c0.8-1.4,1.7-2.7,2.5-4.1c0.6-1,1.1-2.1,1.8-2.9c1.2-1.3,1.9-2.9,3.1-4.1
		c0.3-0.3,0.6-0.7,0.8-1.1c1.7-2.9,3.8-5.4,5.8-8.1c1-0.8,1.3-2.2,2.2-3.1c0.8-0.8,1.6-1.6,2.1-2.7c1.4-1.4,2.2-3.2,3.4-4.8
		c1.2-1.5,2.1-3.3,3.1-4.9c0.8-1.2,1.6-2.4,2.3-3.8c0.4-0.9,0.4-1.8,0.4-2.7c-0.6-0.9-0.5-2-0.5-3c0-0.6-0.1-1.2-0.4-1.7
		c-0.2-0.4-0.2-0.9-0.3-1.3c-0.1-1.1,0-2.3-0.7-3.3c-0.1-0.2-0.1-0.4-0.1-0.7c-0.1-0.9-0.2-1.8-0.5-2.7c-0.3-0.8-0.3-1.8-0.6-2.7
		c-0.4-1.1-0.3-2.3-0.8-3.3c0.1-1.1-0.7-2-0.7-3c0-1.1-0.8-1.9-0.9-3c0-0.7-0.4-1.3-0.6-1.9c-0.1-0.7-0.3-1.3-0.5-2
		c-0.3-0.7-0.5-1.5-0.8-2.2c-0.6-1.2-1-2.5-1.4-3.8c-0.6-1.9-1.5-3.6-2.5-5.2c-0.1-0.1-0.2-0.1-0.3-0.2c0.3-0.9-0.7-1.4-0.7-2.2
		c0-0.3-0.1-0.7-0.3-1c-0.5-1.1-1.3-2.1-1.1-3.5c0-0.2-0.1-0.5-0.2-0.6c-0.5-0.6-0.5-1.5-1.2-2c-0.5-0.3-0.5-1-0.9-1.4
		c-0.4-0.6-0.9-1-1.2-1.6c-0.5-1.3-1.3-2.4-2.3-3.3c-0.6-0.5-1.1-1.1-1.7-1.7c-0.2-0.2-0.3-0.8-0.5-0.8c-1-0.4-1.6-1.2-2.4-1.9
		c-1-1-2-1.9-2.9-2.9c-0.6-0.6-1.2-1-2.1-1c-0.9-0.5-1.9-0.8-2.6-1.6c-0.3-0.4-0.8-0.5-1.2-0.5c-0.2,0-0.5,0-0.6-0.2
		c-0.8-0.9-1.9-1.2-2.8-1.9c-0.6-0.5-1.4-0.8-1.9-1.3c-0.6-0.6-1.5-0.5-2.1-0.9c-1.4-0.7-2.8-1.4-4.2-2.2c0,0-0.1-0.2,0-0.2
		c0.1-0.1,0.2-0.2,0.3-0.2c1.1,0,2.3-0.2,3.3,0.5c0.2,0.2,0.7,0.1,1,0.1c1.6,0,3.2,0.1,4.8,0c1.6-0.1,3.2,0.5,4.7-0.6
		c0.2-0.1,0.4,0,0.7,0c0.9,0,1.9,0.2,2.6-0.6c0.8,0,1.6-0.1,2.4-0.1c0.1,0.1,0.1,0.3,0.2,0.3c0.8,0.5,1.5,1,2.4,1.4
		c2,0.9,3.7,2.2,5.7,3.2c0.2,0.1,0.4,0.2,0.6,0.3c1.2,1.3,2.7,2.1,4,3.2c0.8,0.7,1.6,1.3,2.5,1.8c2.2,1.3,3.9,3.2,5.7,4.9
		c0.8,0.8,1.7,1.6,2.3,2.5c0.6,0.8,1,1.8,1.5,2.7c0.7,1.3,1.7,2.4,2.3,3.8c0.7,1.3,1.3,2.7,2.1,3.9c0.8,1.3,1.5,2.6,2.2,3.9
		c1.1,2.2,2.1,4.3,2.7,6.6c0.1,0.3,0.3,0.6,0.3,1c0.1,0.9,0,1.9,0.2,2.7c0.2,0.9,0.5,1.8,0.5,2.7c0,1.6,0.4,3.2,1,4.7
		c0.5,0,0.8-0.4,0.9-0.8c0.2-0.5,0.3-1.1,0.6-1.6c0.5-1.2,1-2.5,1.6-3.8c0.6-1.2,1.1-2.5,1.7-3.7c0.3-0.6,0.6-1.2,0.6-1.9
		c0-0.2,0-0.5,0.1-0.7c1.2-1.8,1.5-3.8,2.2-5.7c0.4-1.1,0.7-2.2,1.1-3.3c0.3-1,0.9-1.9,1-2.9c0.6-0.8,0.5-1.7,0.9-2.6
		c0.3-0.7,0.3-1.6,0.4-2.4c0.1-0.7,0.6-1.2,0.6-2c0-0.6-0.1-1.2,0.2-1.7c0.8-1.5,0.3-3.2,1.1-4.7c0.1-0.2,0.1-0.4,0.1-0.7
		c0.1-1.3,0.2-2.5,0.6-3.7c0.3-0.9,0.2-1.8,0.2-2.7c0.4,0,0.8,0.1,1.3,0.3c2.5,1.3,2.5,1.3,4.9,1.8c0.3,0.1,0.6,0.4,0.9,0.5
		c0.3,0.1,0.6,0.2,0.9-0.1c0.8-0.7,2-0.2,2.8-1.1c0.7,0,1.3-0.3,1.9-0.6c0.6-0.3,1.1-0.7,1.7-1.1c0.6-0.4,1.3-0.8,2-1.1
		C213.9,169.5,214.2,169.6,214.4,169.6z M153.5,312.2c0,0.5,0.2,1.2,0.1,1.9c-0.3,2.3,0,4.6,0,6.9c0,0.6,0,1.2,0.2,1.7
		c0.6,1.5,0.6,3.2,1.5,4.5c0.2,0.3,0.3,0.6,0.4,0.9c0.1,1.7,1,3,1.7,4.5c0.7,1.5,1.4,2.9,2.6,4c0.3,0.3,0.5,0.8,0.7,1.1
		c0.2,0.4,0.7,0.6,0.8,0.5c0.1-0.2,0.3-0.4,0.3-0.6c0.1-1.1,0.1-2.3,0.6-3.4c-0.1-1.6,0.7-3.1,0.8-4.7c0-0.7,0.2-1.3,0.5-2
		c0.5-1.5,1-3,1-4.7c0-0.3,0-0.7,0.2-1c0.8-1.3,0.1-3,1-4.3c0-1.8,0.8-3.6,0.8-5.4c0-0.6,0.1-1.1,0.3-1.7c0.5-1.4,0.5-2.9,0.9-4.4
		c0.3-1.2,0-2.5,0.7-3.7c0.1-0.9,0.2-1.8,0.2-2.8c0-1.1,0.7-1.9,0.7-3c0-1.1,0.2-2.3,0.5-3.4c0.3-1.1,0.1-2.3,0.8-3.3
		c0.2-0.3,0.1-0.7,0.1-1c0-0.5,0-1,0.1-1.4c0.6-1.3,0.5-2.7,0.6-4.1c0-0.3,0-0.7,0.2-1c0.3-0.8,0.3-1.6,0.4-2.4
		c0.1-1.8-0.1-3.7,0.6-5.4c0.1-0.3,0.1-0.7,0.1-1c0-1,0.1-2.1,0.1-3.1c0-1.4,0-2.8,0-4.1c0-0.4-0.2-0.7-0.5-0.7
		c-0.4,0-0.6,0.2-0.8,0.5c-0.3,0.5-0.5,1-0.8,1.5c-0.6,1.3-1.3,2.7-1.9,4c-0.4,0.9-0.9,1.8-1.7,2.5c-1,0.9-1.4,2.1-1.9,3.2
		c-0.3,0.9-0.6,1.7-1.1,2.5c-0.5,0.9-1.1,1.7-1.7,2.6c-0.4,0.7-0.9,1.3-1.2,2.1c-0.3,0.7-0.4,1.5-0.9,2.2c-0.5,0.6-0.8,1.4-1.2,2.1
		c-0.2,0.4-0.4,0.9-0.7,1.2c-1.1,0.8-1.5,2-1.8,3.2c-0.3,1.1-0.9,2.1-1.3,3.2c-0.6,1.6-1.2,3.2-1.8,4.8c-0.1,0.3-0.1,0.7-0.1,1
		c0,0.9-0.1,1.8-0.1,2.8C153.7,307.5,153.8,309.8,153.5,312.2z"/>
	<path class="st1" d="M214.4,169.6c-0.2,0-0.5-0.1-0.7,0c-0.7,0.3-1.4,0.7-2,1.1c-0.5,0.4-1.1,0.8-1.7,1.1c-0.6,0.3-1.2,0.6-1.9,0.6
		c-0.7,0.9-2,0.4-2.8,1.1c-0.3,0.3-0.6,0.2-0.9,0.1c-0.3-0.1-0.6-0.4-0.9-0.5c-2.4-0.5-2.5-0.5-4.9-1.8c-0.4-0.2-0.8-0.3-1.3-0.3
		c-0.2-0.6-0.6-1-1.1-1.2c-0.6-0.3-1.1-0.8-1.7-1.1c-1.9-1-3.2-2.6-4.5-4.2c-0.7-0.7-1.1-1.7-1.8-2.5c-0.7-0.7-1-1.8-1.8-2.5
		c-0.2-1.2-1.4-1.8-1.8-2.9c-0.4-0.9-0.9-1.8-1.6-2.6c-0.6-0.8-1-1.8-1.4-2.7c-0.3-1-0.7-1.9-1.4-2.7c-0.6-0.8-1-1.8-1.4-2.7
		c-0.3-1.1-0.9-2.1-1-3.2c0-0.3,0-0.8-0.2-1c-0.7-0.7-0.5-1.8-0.9-2.6c-0.5-0.9-0.8-1.9-1.4-2.8c-0.5-0.8-0.2-1.9-1-2.5
		c0.1-1.1-0.6-1.9-0.9-2.9c-0.3-1.1-0.6-2.2-0.7-3.3c-0.1-1.1-0.6-2.2-0.7-3.3c-0.8-1.2-0.3-2.7-1.2-3.9c0.1-1.4-0.9-2.6-0.8-4
		c0-0.3-0.2-0.7-0.4-0.9c-0.4-0.6-0.3-1.3-0.3-2c0.6,0,1.1,0.1,1.7,0.1c0.9,0.8,1.9,0.6,2.9,0.6c3.6,0,7.1,0,10.7,0
		c1.4-0.7,2.8-1.4,4.2-2.1c0.7-0.4,1.4-0.8,2.2-0.6c0.5,0.1,0.8-0.3,1.3-0.4c1-0.3,1.6-1.3,2.6-1.6c0.5-0.2,0.8-0.5,1.1-0.8
		c0.5-0.5,1-0.9,1.5-1.3c0.4,0,0.8,0,1.1,0c1,0,1.6-0.7,2.4-1.1c0.3-1.1,1.3-1.6,1.8-2.4c0.6-0.9,1.1-2,1.1-3.2c0-0.7,0-1.4,0-2.1
		c0-0.7,0.7-1.2,0.7-1.9c0-0.5,0.1-0.9,0.4-1.3c0.3-0.4,0.2-0.8,0-1.2c-0.2-0.3-0.4-0.6-0.3-0.9c0.2-1-0.3-1.7-0.7-2.6
		c0.5,0,0.9,0,1.3-0.3c0.3-0.2,0.6-0.4,0.9-0.4c1,0,1.8-0.4,2.6-0.6c0.8-0.2,1.6-0.2,2.3-0.6c0.4-0.2,0.9-0.1,1.3-0.2
		c1,0,1.8-0.9,3-0.8c1,0.1,2.1,0,3.1-0.1c0.2,0,0.4-0.1,0.6-0.3c0.2-0.1,0.4,0,0.6,0c1.3,0.5,2.7,0.5,4,0.1c0.2-0.1,0.5-0.2,0.6-0.2
		c1.1,0.6,2.3,0.2,3.4,0.4c0.3,0.1,0.7,0.1,1,0.3c1.1,0.6,2.3,1,3.5,1.4c0.2,0.1,0.4,0.3,0.6,0.3c1.4-0.1,2.6,0.7,3.9,1.2
		c0.4,0.2,1,0.1,1.3,0.3c0.9,0.6,2,0.5,2.9,1.1c0.8,0.6,1.9,0.7,2.8,1.1c0.8,0.3,1.7,0.6,2.3,1.4c0.7,0.9,1.8,1.5,2.9,1.7
		c0.9,0.2,1.7,0.7,2.5,1.1c0.8,0.3,1.6,0.9,2.3,1.4c0.7,0.5,1.6,0.9,2.2,1.6c0.2,0.3,0.5,0.6,0.8,0.7c1.8,0.6,2.7,2.1,3.9,3.3
		c0.7,0.7,1.2,1.7,1.7,2.5c0.4,0.7,0.8,1.4,1.4,1.9c0.6,0.6,1,1.2,1.1,2.1c0.1,0.6,0.5,1.3,0.8,1.9c0.6,0.9,0.4,2,1.1,2.8
		c0,0.6,0.1,1.1,0.1,1.7c0.1,1.2-0.1,2.5,0.5,3.7c0.4,0.8,0.4,1.8,0,2.7c-0.4,0.8-0.5,1.5-0.5,2.3c0,0.6-0.1,1.1-0.4,1.6
		c-0.4,0.6-0.8,1.2-1,1.8c-0.6,1.4-1.3,2.6-2.4,3.7c-0.5,0.5-0.9,1-1.2,1.7c-0.1,0.2-0.3,0.4-0.4,0.5c-0.1,0.1-0.2,0.2-0.3,0.2
		c-1.2,0.5-2,1.6-3,2.2c-0.4,0.2-0.8,0.4-1.2,0.6c-0.2,0.1-0.4,0.2-0.6,0.2c-1.4-0.1-2.6,0.9-4,0.7c-0.5,0-0.9,0.1-1.3,0.3
		c-0.3,0.2-0.6,0.3-1,0.3c-1,0.2-2.1-0.2-3,0.6c-0.1,0.1-0.2,0-0.3,0c-3.9,0-7.8,0-11.7,0.1c-1,0-1.8-0.5-2.6-0.6
		c-0.9-0.1-1.7-0.9-2.6-0.8c-1,0.1-1.7-0.7-2.6-0.7c-0.6,0-1-0.4-1.6-0.6c-0.4-0.1-0.9-0.1-1.3-0.3c-0.5-0.3-1.1-0.4-1.6-0.5
		c-0.2,0-0.4-0.2-0.6-0.3c-1.1-1-2.5-1.5-3.9-2c-1.3-0.4-2.5-1.2-3.7-1.8c-0.2-0.1-0.7,0.3-0.7,0.5c0,0.7-0.1,1.4,0.2,2
		c0.4,0.8,1,1.6,1.1,2.5c0.1,0.9,0.7,1.7,1.1,2.5c0.4,0.8,0.3,1.8,1,2.6c0.4,0.4,0.6,1,0.7,1.6c0.1,0.6,0.1,1.1,0.1,1.7
		c0,0.7,0,1.4,0.4,2c0.4,0.5,0.2,1.1,0.3,1.7c0.1,0.5,0,1,0.2,1.3c0.7,1.2,0.4,2.5,0.4,3.7c-0.7,1.1-0.6,2.4-0.7,3.7
		c-1,1-0.4,2.4-1.1,3.6c-0.7,1-1,2.3-1.9,3.3C214.8,167.1,214.5,168.3,214.4,169.6z"/>
	<path class="st1" d="M147.4,166.1c-0.8,0-1.6,0.1-2.4,0.1c-0.8,0.7-1.7,0.5-2.6,0.6c-0.2,0-0.5-0.1-0.7,0c-1.4,1.1-3.1,0.6-4.7,0.6
		c-1.6,0.1-3.2,0-4.8,0c-0.3,0-0.8,0.1-1-0.1c-1-0.7-2.2-0.5-3.3-0.5c-0.1,0-0.2,0.1-0.3,0.2c0,0,0,0.2,0,0.2
		c1.4,0.7,2.7,1.5,4.2,2.2c0.7,0.3,1.5,0.2,2.1,0.9c0.5,0.5,1.4,0.8,1.9,1.3c0.9,0.8,2,1.1,2.8,1.9c0.1,0.1,0.4,0.2,0.6,0.2
		c0.5,0,0.9,0.1,1.2,0.5c0.7,0.8,1.7,1.1,2.6,1.6c0.9-0.1,1.5,0.3,2.1,1c0.9,1,1.9,2,2.9,2.9c0.7,0.7,1.4,1.5,2.4,1.9
		c0.2,0.1,0.3,0.6,0.5,0.8c0.5,0.6,1.1,1.2,1.7,1.7c1,0.9,1.8,2,2.3,3.3c0.3,0.7,0.8,1.1,1.2,1.6c0.3,0.5,0.4,1.1,0.9,1.4
		c0.7,0.5,0.8,1.4,1.2,2c0.1,0.2,0.2,0.4,0.2,0.6c-0.2,1.4,0.6,2.4,1.1,3.5c0.1,0.3,0.3,0.6,0.3,1c0,0.8,1,1.3,0.7,2.2
		c0,1,0,2.1,0,3.1c0,0.5,0.1,0.9,0.4,1.3c0.2,0.3,0.2,0.7,0.1,1c-0.3,0.5-0.4,1-0.4,1.6c0,0.8-0.1,1.6-0.2,2.4
		c-0.7,0.7-0.3,1.8-0.9,2.6c-0.1,0.2-0.3,0.4-0.3,0.6c0,1.6-0.8,2.8-1.5,4.1c-0.2,0.4-0.5,0.8-0.6,1.2c-0.5,1.7-1.7,2.9-2.9,4.2
		c-0.3,0.3-4.2,2.8-4.6,2.9c-0.6,0.1-1.1,0.1-1.7,0.2c-1.4,1-2.8,0.7-4.2,0.2c-0.3-0.1-0.7-0.1-1-0.2c-0.7,0-1.4,0-2.1,0
		c-0.8,0-1.6,0-2.4-0.1c-0.6-0.2-1.3-0.5-1.8-0.9c-0.7-0.5-1.6-0.1-2.2-0.8c-1.7-0.9-3.6-1.5-5-2.8c-0.2-0.2-0.6-0.3-0.9-0.4
		c-0.9-0.4-1.8-0.9-2.6-1.7c-0.4-0.4-1-0.6-1.4-1c-0.9-0.8-2.2-1.2-2.8-2.4c-1.2-0.5-2-1.5-2.9-2.4c-1.2-1.2-2.4-2.4-3.7-3.7
		c-3-3-3.1-3.1-5.1-5.8c-0.5-0.7-1-1.6-1.6-2.2c-0.7-0.7-0.9-1.6-1.5-2.3c-0.9-1-1.5-2.2-1.6-3.7c0-0.8-0.5-1.5-1-2.2
		c-1-1.4-1.8-2.9-2.8-4.2c-0.1-0.1-0.2-0.1-0.3-0.1l0,0.1c0-0.5,0-0.9,0-1.4c0-0.5,0.1-1.2-0.1-1.6c-0.4-0.7-0.7-1.4-0.6-2.2
		c0.2-1-0.4-1.7-0.7-2.5c1.1-0.1,2.3,0.2,3.3-0.7c0.8,0,1.6-0.2,2.3,0.3c0.6,0.4,1.3,0.4,1.9,0c0.4-0.3,0.8-0.4,1.3-0.4
		c0.7,0.1,1.3-0.2,1.9-0.5c0.5-0.3,1-0.6,1.5-0.8c0.6-0.2,1.4-0.1,2-0.1c0.3,0,0.7,0,0.8,0c1.1-0.3,1.5-1.4,2.5-1.5
		c0.8-0.7,1.7-1.2,1.9-2.4c0.8-0.8,0.4-2,1.2-2.8c0-0.6,0.1-1.1,0.1-1.7c0-0.6,0.1-1.1,0.6-1.5c0.2-0.2,0.4-0.5,0.7-0.7
		c0.7-0.5,0.8-1.4,1.3-2c0.4-0.6,0.2-1.3,0.3-2c0-0.3,0-0.7,0.2-1c0.7-1,0.5-2.2,0.4-3.3c-0.8-0.9-0.5-1.9-0.6-2.9
		c0-0.2,0-0.5-0.1-0.6c-0.6-0.8-0.5-1.7-0.5-2.6c0-0.9,0.1-1.9-0.1-2.7c-0.2-0.9-0.9-1.6-1.2-2.4c-0.2-0.6-0.6-0.9-0.9-1.4
		c-0.5-0.7-1-1.5-1.2-2.4c-0.1-0.6-0.3-1.1-0.7-1.5c-0.6-0.6-1.1-1.1-1.7-1.7c-0.7-0.6-1.3-1.2-2.1-1.6c-0.8-0.4-1.5-1.1-1.8-2
		c0.5-0.6,1.1-1.2,1.6-1.8c0.3-0.3,0.7-0.6,0.9-1c0.9-1.7,2.3-2.8,3.8-3.8c1-0.7,1.9-1.6,2.8-2.6c0.6-0.7,1.5-1.1,2.2-1.5
		c0.8-0.4,1.7-0.7,2.5-1.2c0.8-0.5,1.8-0.3,2.5-1c1,0,1.7-0.4,2.4-1.1c0.2-0.2,0.6-0.3,0.9-0.4c1.9-0.4,3.6-0.9,4.8-1.5
		c0.5-0.3,1-0.5,1.5-0.8c0.5-0.2,1-0.5,1.6-0.5c3,0,6,0,9,0c1.1,0,2.3-0.2,3.3,0.5c0.3,0.2,0.7,0.1,1,0.1c1,0,1.7,0.3,2.5,0.9
		c1.6,1.1,3.2,2.2,4.9,3c0.7,0.3,1.4,0.8,2,1.3c1.1,1,2,2.2,3.4,2.9c0.4,0.2,0.6,0.7,0.8,1c0.3,0.5,0.5,1,0.7,1.5
		c0.4,0.8,1,1.6,1.2,2.4c0.2,1.1,0.2,2.3,0.2,3.4c0,0.6,0,1.2-0.1,1.7c0,0.3-0.1,0.7-0.2,1c-0.6,1.1-1,2.3-1.3,3.5
		c-0.1,0.2-0.3,0.4-0.3,0.6c-0.3,1,0,2.1-1,2.8c-0.4,0.8-0.8,1.6-1.3,2.4c-0.2,0.4-0.5,0.7-0.8,1.1c-0.5,0.6-1.1,1.2-1.7,1.8
		c-0.9,1-2,1.8-2.6,3.1c-1.2,1.2-2.4,2.5-3.6,3.7c-0.5,0.5-1.2,0.7-1.7,1.1c-0.6,0.6-1.4,0.8-2,1.3c-0.6,0.5-1.2,1-1.8,1.6
		c-1,1-2.1,1.8-3.4,2.3C147.6,165.6,147.5,165.9,147.4,166.1z"/>
	<path class="st1" d="M157.2,105.3c-0.4,0.8-1.3,1.3-1.9,2c-0.6,0.7-1.4,1.2-2.2,1.6c-0.8,0.5-1.3,1.3-2,1.9c-1.4,1.3-3,2.1-4.7,2.7
		c-0.8-0.1-1.3,0.5-1.9,0.7c-1.3,0.5-2.4,1.4-3.8,1.6c-1.5,1-3.2,1.2-4.9,1.2c-0.9,0-1.8-0.1-2.7,0.5c-0.1,0.1-0.5,0.1-0.6,0
		c-0.7-0.5-1.5-0.5-2.3-0.6c-0.7-0.1-1.2-0.6-1.9-0.7c-0.9-0.1-3.6-1.7-4.2-2.2c-1.6-1.3-2.7-3.1-3.6-5c-0.6-1.3-1-2.5-0.8-4
		c0.1-1-0.1-2.1,0.5-3c0.1-0.9,0.2-1.8,0.2-2.7c0-0.7,0.1-1.4,0.5-2c0.3-0.4,0.4-0.8,0.6-1.2c0.4-0.8,0.7-1.7,1.2-2.4
		c0.8-1,1.7-1.8,2.6-2.8c1-0.3,1.3-1.2,1.9-1.9c1.2-1.5,2.8-2.8,4.2-4.1c0.2-0.2,0.4-0.3,0.5-0.4c0.3-0.2,5.8-2.9,6.1-2.9
		c0.7,0,1.3-0.5,1.9-0.7c0.7-0.3,1.5-0.4,2.2-0.8c0.8-0.4,1.5-0.6,2.3-0.6c0.3,0,0.7-0.2,1-0.3c0.7-0.3,1.3-0.2,2,0.1
		c0.8,0.4,0.9,0.4,1.3-0.4c0.5-0.9,1.4-1.5,2-2.4c-0.8-1.1-2-1.8-3.2-2.4c-1.4-0.7-3-1.1-3.9-2.5c-1.1-0.7-2.2-1.3-3.4-1.6
		c-0.7-0.2-1.3-0.5-1.8-1c-0.7-0.6-1.2-1.5-2.1-1.8c-0.9-0.3-1.3-1.3-2.3-1.5c-0.2,0-0.4-0.2-0.6-0.4c-0.9-0.8-1.6-1.7-2.6-2.3
		c-0.9-0.5-1.7-1.2-2.4-1.9c-0.3-0.3-0.7-0.7-1-0.9c-1.1-0.5-1.8-1.3-2.4-2.4c-0.3-0.6-0.8-1.1-1.4-1.5c-0.7-0.5-1.5-0.9-2-1.8
		c-0.4-0.8-1.2-1.4-1.7-2.1c-0.1-0.2-0.2-0.4-0.3-0.6c-0.1-0.4,0-1-0.4-1.3c-0.9-0.8-1-2-1.9-2.8c-0.4-0.4-0.7-0.9-1.1-1.3
		c0.1-1.1-0.9-1.9-0.8-2.9c0.1-0.5,0-0.9-0.3-1.3c-0.9-1.3-1.2-2.7-1.1-4.2c0-0.8,0-1.6-0.5-2.3c-0.2-1.4-0.4-2.7,0.3-4
		c0.2-0.3,0.2-0.7,0.2-1c0-0.8,0-1.6,0-2.4c0-1-0.1-2.1,0.1-3.1c0.2-0.9,0.8-1.6,1.1-2.5c0.4-0.9,1-1.8,0.9-2.9c0-0.2,0-0.5,0.2-0.6
		c0.7-0.8,1-1.9,1.7-2.5c1.1-1,1.6-2.5,2.7-3.5c0.3-1,1.2-1.7,1.8-2.4c0.6-0.7,1.6-0.9,2.3-1.5c1.7-0.1,2.9-1.2,4.4-1.8
		c0.4-0.2,0.8-0.3,1.2-0.6c0.5-0.3,1.1-0.4,1.6-0.4c1.6,0,3.2,0,4.8,0c0.8,0,1.6,0,2.3,0.4c0.2,0.1,0.4,0.2,0.7,0.1
		c1.3-0.2,2.5,0.2,3.4,1.2c0.1,0.1,0.4,0.2,0.6,0.2c1.8,0.4,3.2,1.6,4.9,2.3c0.4,0.2,0.7,0.6,1,0.9c1.5,1.4,3,2.9,4.4,4.4
		c0.7,0.7,1.4,1.5,1.9,2.4c0.5,0.9,1.4,1.5,1.9,2.4c0.5,1,1.3,1.6,2,2.4c1,1,1.7,2.1,2.3,3.4c0.5,1.1,1.1,2.2,2,3.1
		c0.7,0.7,1.2,1.6,1.8,2.5c0.3,0.5,0.3,1.1,0.5,1.6c0.6,1.3,1.3,2.7,2,4c0.6,1,1.2,1.9,2,2.8c0.5,0.6,0.7,1.4,1.1,2.1
		c0.1,0.2,0.2,0.4,0.2,0.6c-0.2,1.1,0.5,2,0.8,3c0.3,1.1,0.8,2.1,0.7,3.3c0,0.3,0.1,0.7,0.3,1c0.5,0.6,0.3,1.4,0.6,2
		c0.3,0.5,0.3,1.1,0.6,1.6c0.5,1.1,0.7,2.2,0.7,3.3c0,1,0.1,2,0.5,3c0.2,0.4,0,0.9,0.1,1.4c-0.3,0.2-0.6,0.4-0.8,0.6
		c-1.4,1.2-2.3,1.5-4,1.5c-1,0-2.1,0.1-3.1,0c-1.2-0.1-2.1,0.8-3.3,0.8c-0.7,0.3-1.1,1.1-1.9,1.4c-0.3,0.1-0.6,0.3-0.8,0.6
		c-1.1,1.1-2.3,2.3-3.4,3.4c-0.3,0.3-1.1,1.8-1.2,2.4c-0.1,0.6-0.3,1.1-0.7,1.5c-1,1.1-2.2,2-3.6,2.5c-0.8,0.3-1.3,0.9-1.3,1.8
		c0,0.9-0.9,1.6-0.7,2.6c0.2,0.8,0,1.6-0.6,2.3c0,0.4-0.1,1,0.1,1.3c0.4,0.6,0.5,1.2,0.5,2c0,2.3,0,4.6,0,6.9c0,0.3,0.1,0.7,0.2,1
		c0.3,0.5,0.5,1,0.4,1.6c-0.1,0.9,0.2,1.8,0.6,2.6c0.3,0.7,1,1.3,0.8,2.2c0.4,0.9,0.8,1.9,1.5,2.6
		C155.9,103.7,156.8,104.2,157.2,105.3z"/>
	<path class="st1" d="M183.4,60.8c0.1-1-0.2-2.1,0.5-3c0.4-0.5,0.2-1.1,0.2-1.7c0-3.2,0-6.5,0-9.7c0-0.6,0-1.2,0-1.7
		c0-1.1,0.1-2.3,0.2-3.4c0.7-0.8,0.4-2,1.1-2.9c0.1-1.3,0.9-2.3,1-3.6c0-0.7,0.4-1.3,0.6-1.9c0.1-0.6-0.1-1.2,0.2-1.7
		c0.4-0.8,0.5-1.8,0.9-2.6c0.8-1.6,1.6-3.3,2.2-5c0.3-0.9,0.8-1.7,1.1-2.5c0.3-0.6,1.8-2.7,2.3-3.2c0.7-0.7,1.5-1.4,2-2.4
		c0.2-0.5,0.8-0.9,1.1-1.3c0.4-0.4,0.9-0.8,1.1-1.3c0.5-1.2,1.5-2,2.4-2.9c1-1,2.1-1.8,3.3-2.4c0.3-0.1,0.7-0.3,0.9-0.5
		c1.6-1.7,3.7-2.7,5.3-4.4c0.4-0.4,1-0.5,1.6-0.6c0.5-0.1,1-0.5,1.6-0.6c0.4-0.1,0.9-0.1,1.3-0.4c0.8-0.5,1.8-0.3,2.6-0.9
		c0.2-0.2,0.7-0.2,1,0c1.6,0.9,3.4,0.4,5.1,0.6c0.7,0.1,1.3,0.2,2,0.5c0.8,0.3,1.6,0.8,2.5,1c1,0.2,1.9,0.7,2.6,1.6
		c0.6,0.7,1.4,1.2,2.2,1.5c0.8,0.4,1.6,0.9,2.2,1.6c1,1.1,2.1,2.1,3.2,3.2c0.5,0.6,0.9,1.3,1.4,2c0.5,0.6,1.2,1.1,1.5,1.9
		c0.1,0.3,0.3,0.6,0.6,0.8c1.2,0.9,1.5,2.3,1.9,3.6c0.3,0.7,0.2,1.6,0.5,2.3c0.4,0.8,0.4,1.6,0.4,2.3c0,0.8,0.1,1.6,0.6,2.3
		c0.2,0.3,0.2,0.7,0.2,1c0,1.7,0,3.5,0,5.2c0,0.2,0,0.5-0.1,0.7c-0.7,1.2-0.5,2.5-0.6,3.7c-0.1,0.9,0.1,1.8-0.5,2.7
		c-0.2,0.3-0.1,0.9-0.1,1.3c0,0.7-0.1,1.3-0.5,2c-0.5,0.8,0,1.8-0.6,2.6c-0.5,0.6-0.7,1.4-1,2.2c-0.3,1-0.8,1.9-1.2,2.8
		c-0.3,0.8-0.5,1.7-0.9,2.6c-0.3,0.7-0.7,1.4-1.1,2.1c-0.1,0.3-0.2,0.7-0.3,1c-0.1,0.3-0.2,0.7-0.4,0.9c-0.9,1.2-1.7,2.4-2.5,3.7
		c-0.2,0.4-0.6,0.7-0.9,1.1c-0.9,0.9-1.9,1.7-2.5,2.9c-0.6,1.2-1.8,1.8-2.2,3.1c-0.1,0.4-0.6,0.8-1,1c-0.9,0.4-1.6,1-2.2,1.7
		c-0.8,0.8-1.9,1.2-2.7,2.1c-0.8,0.8-1.6,1.6-2.4,2.5c-1,1-2.3,1.5-3.4,2.2c-1.1,0.6-2.1,1.4-3.4,1.5c-0.4,0-0.8,0.4-1.2,0.7
		c-0.6,0.4-1.2,0.7-1.7,1.1c-0.6,0.4-1,0.9-1.8,1c-0.5,0.1-1,0.5-1.6,0.6c-0.7,0.1-1.3,0.4-1.9,0.6c-0.4,0.1-0.9,0.1-1.4,0.2
		c0-0.7-0.1-1.4-0.1-2.1c0-0.7,0-1.4-0.1-2.1c-0.1-0.5-0.5-1-0.6-1.6c-0.1-1-1-1.8-0.8-2.9c-0.3-0.5-0.6-1-0.8-1.5
		c-0.2-0.5-0.5-1-0.8-1.5c-0.3-0.5-0.8-0.8-1.1-1.3c-0.9-1.1-2.1-1.7-3.3-2.4c-0.7-0.4-1.5-0.6-2.1-1.1c-1.1-0.9-2.3-1.4-3.5-2
		c-0.4-0.2-0.8-0.4-1.3-0.4c-0.2,0-0.5,0-0.7,0c-0.6,0-1.2,0.1-1.7,0c-0.6-0.2-1.3-0.5-1.8-0.9c-0.5-0.4-1-0.4-1.6-0.5
		C183.7,61.5,183.4,61.2,183.4,60.8z"/>
	<path class="st1" d="M101,188.2c0,2.9,0,5.8,0,8.6c0,4.8,0,9.7,0,14.5c0,0.7,0,1.4-0.4,2c-0.2,0.3-0.2,0.7-0.2,1
		c0,1.1,0,2.3-0.1,3.4c-0.1,1.1,0.2,2.3-0.5,3.4c-0.2,0.3-0.1,0.7-0.1,1c-0.1,1.4-0.1,2.8-0.1,4.3c-1.1,2.1-2.2,4.3-3.3,6.6
		c-0.4,0.7-0.7,1.4-1.1,2.1c-0.5,0.9-1.5,1.4-1.8,2.5c-1.6,1-2.7,2.5-4.2,3.6c-0.3,0.2-0.6,0.3-0.9,0.4c-0.8,0.5-1.5,1-2.3,1.5
		c-0.9,0.5-1.7,1.1-2.8,1.3c-0.9,0.1-1.6,0.9-2.6,0.7c-0.4-0.1-0.8,0.3-1.3,0.4c-0.2,0.1-0.5,0.2-0.7,0.1c-1-0.7-2.2-0.5-3.3-0.5
		c-0.7,0-1.3-0.7-1.9-0.6c-1.2,0.1-2.1-0.8-3.3-0.8c-0.3,0-0.6-0.2-0.9-0.4c-1.1-0.6-2.2-1.1-3.3-1.7c-0.4-0.2-0.8-0.5-1.1-0.8
		c-0.6-0.5-1.1-1.2-1.9-1.4c-0.3-0.1-0.6-0.4-0.8-0.7c-1-1.3-2-2.5-2.9-3.8c-0.1-0.1-0.1-0.2-0.1-0.3c-0.1-1.3-0.9-2.3-1.4-3.4
		c-0.4-0.8-0.6-1.7-1-2.5c-0.3-0.7-0.7-1.4-1.1-2.1c0.1-1.2-0.9-2.1-0.8-3.3c0.1-0.9-0.9-1.6-0.7-2.6c-0.5-0.7-0.6-1.5-0.6-2.3
		c0-5.1,0.1-10.1,0-15.2c0-1.5,0.5-2.9,1-4.3c0.3-0.9,0.9-1.6,1-2.5c0.2-0.8,0.8-1.4,0.8-2.3c0-0.3,0.2-0.6,0.4-0.9
		c0.4-1,0.9-1.8,1.1-2.9c0.2-0.9,0.8-1.6,1.2-2.5c0.2-0.4,0.1-1,0.4-1.3c0.7-0.8,1.1-1.8,1.7-2.6c0.5-0.7,1.4-1.2,1.7-2.2
		c1.8-1,2.9-2.9,4.8-3.9c1.4-0.8,2.5-1.9,3.5-3.4c0-0.7,0.1-1.4,0-2c-0.1-0.9,0.4-1.5,0.7-2.2c0.4,0.1,0.9,0.1,1.3,0.4
		c0.5,0.5,1.1,0.9,1.5,1.5c0.6,0.8,1.5,1,2.3,1.5c0.6,0.4,1.3,0.2,2,0.3c1.1,0.7,1.8,1.7,2.8,2.5c0.3,0.3,0.7,0.7,1.1,0.9
		c1.6,0.7,3.2,1.8,5.1,1.5c0.3-0.1,0.7,0,1,0c0.4,0,0.6,0.2,0.9,0.3c0.3,0.1,0.6,0.2,0.9,0.4c0.8,0.4,1.5,1.1,2.4,1.3
		c1,0.2,2,0,3.1,0.1c0.6,0,1.1-0.3,1.6-0.5c0.3-0.1,0.7,0,1,0c0.1,2.1,0,2.1,0.8,3.5c0.5,0.8,0.7,1.6,0.6,2.6c0,0.3,0.2,0.6,0.6,0.7
		c0,0.3,0,0.6,0.1,0.9C100.4,188.1,100.7,188.3,101,188.2L101,188.2z"/>
	<path class="st1" d="M67.8,159.9c-0.2,0.1-0.4,0.1-0.6,0.3c-1.7,1.2-3.7,1.1-5.6,1c-1.4-1-3.2-0.3-4.6-1.2c-0.3-0.2-0.7-0.1-1-0.1
		c-0.7,0-1.4,0-2.1-0.1c-0.6-0.2-1.2-0.6-1.9-0.9c-0.3-0.1-0.6-0.4-0.9-0.3c-1.2,0.1-2.2-0.5-3.2-1c-0.8-0.4-1.7-0.5-2.5-1
		c-0.9-0.5-1.8-1-2.8-1.3c-0.8-0.3-1.7-0.6-2.5-0.9c-0.8-0.4-1.6-1-2.4-1.2c-0.8-0.2-1.5-0.5-2.1-1c-0.3-0.2-0.6-0.4-0.9-0.5
		c-1.3-0.1-2.3-1-3.4-1.5c-1.7-1.3-3.8-2.1-5.7-3.2c-1.3-0.7-2.6-1.3-3.8-2.3c-0.7-0.1-1.1-0.8-1.7-1.1c-0.7-0.4-1.4-0.7-2.1-1.1
		c-0.6-0.4-1.1-0.9-1.6-1.2c-2-1.3-3.3-2.6-4.4-4.2c-0.4-0.6-0.8-1.1-1.5-1.4c-0.5-0.2-0.7-0.6-0.7-1.1c0-1.3-0.5-2.4-1.4-3.4
		c-0.8-0.9-1.6-1.6-2.2-2.7c-0.5-1-1.5-1.7-2.1-2.7c-0.6-1-1.5-1.7-2.3-2.6c-0.5-0.6-0.5-1.3-0.1-1.9c0.7-1,0.6-1.9,0.1-2.9
		c-0.5-1.1-0.8-2.4-1.7-3.2c0-0.7,0-1.3-0.1-1.8c-0.1-0.8,0-1.6,0.5-2.3c0.3-0.4,0.5-1,0.7-1.5c0.2-0.4,0.1-0.9,0.4-1.3
		c0.3-0.5,0.4-1,0.5-1.6c0.2-2.2,1.5-3.8,3.4-4.8c1.2-0.6,2.4-1.3,3.6-1.9c1.2-0.6,3.5-1.3,4.8-1.6c0.3-0.1,0.7-0.1,1-0.3
		c0.6-0.4,1.3-0.4,2-0.5c0.3,0,0.7-0.1,1-0.3c0.5-0.3,1.1-0.4,1.6-0.4c2,0,3.9,0,5.9,0c0.6,0,1.2-0.1,1.7,0.1
		c0.9,0.4,1.8,0.4,2.6,0.7c0.9,0.2,1.6,0.8,2.5,1.2c0.4,0.2,1,0.1,1.3,0.3c2,1.4,4.2,2.3,6.3,3.5c0.4,0.2,0.7,0.6,1.1,0.9
		c1,1,1.9,2,2.9,2.9c1.1,1.1,2.1,2.4,3.7,3.1c1.1,1,2.2,2.1,3.3,3.1c0.2,0.2,0.4,0.3,0.4,0.5c0.7,2,2.2,3.4,3,5.3
		c0.4,0.9,0.9,1.8,1.5,2.7c0.6,0.8,1,1.8,1.5,2.7c0.4,0.7,0.7,1.4,1.3,2c0.9,1,1.7,2.2,2.4,3.3c0.4,0.6,0.7,1.2,0.8,1.9
		c0.3,1.4,1.1,2.5,1.7,3.7c0.3,0.5,0.8,0.8,1.4,0.9c0.3,0,0.6,0.3,0.9,0.4c0.2,0.9,1.2,1.4,1.5,2.4c0,0.6,0,1.3,0,2
		c0,0.4,0.1,1,0.3,1.3c0.5,0.8,0.3,1.8,1,2.5c0,0.9,0.5,1.7,0.8,2.6c0,0.8,0,1.6,0,2.4c0.1,0.8-0.4,1.5-0.6,2.2
		c-0.2,0.6-0.6,0.9-0.9,1.4c-0.3,0.4-0.5,0.7-0.5,1.2c0,0.9,0,1.8,0,2.7c-0.1,0.8,0.2,1.5,0.6,2.2C67.9,159.2,67.8,159.6,67.8,159.9
		z"/>
	<path class="st1" d="M76.7,137.7c-0.9-0.4-1.5-1.2-1.9-2c-1.2-2.3-2.4-4.7-3.5-7c0-1.1-0.7-1.9-1.1-2.8c-0.3-0.9-0.9-1.6-1.5-2.3
		c-0.3-0.4-0.5-0.8-0.6-1.2c-0.1-0.3-0.2-0.6-0.2-1c0-1.3,0-2.5-0.7-3.7c-0.2-0.4-0.1-0.9-0.1-1.4c-0.1-0.4-0.1-0.9-0.2-1.3
		c-0.2-0.5-0.4-1.1-0.4-1.6c-0.1-1.4,0.2-2.8-0.6-4c-0.1-0.1,0-0.2,0-0.3c0-0.8-0.2-1.6-0.1-2.4c0.1-0.9-0.5-1.5-0.6-2.3
		c-0.1-1.5-0.1-3-0.1-4.5c0-0.8,0-1.6,0.1-2.4c0-0.6-0.2-1.2,0.2-1.7c0.5-0.7,0.2-1.6,0.7-2.3c0.9-1.2,1-2.8,1.7-4.1
		c0.1-1.1,0.6-2,1.1-2.9c1.4-2.8,2.7-5.5,4.2-8.2c0.3-0.5,0.4-1.1,0.5-1.6c1.1-1.5,1.9-3.2,3.4-4.3c0.9-0.7,1.9-1.2,3.1-1.2
		c0.7,0,1.3-0.1,2-0.4c0.7-0.3,1.6-0.3,2.3-0.5c0.4-0.1,0.8-0.4,1.3-0.4c1.5,0,3,0,4.5-0.1c0.6,0,1.1,0.2,1.6,0.5
		c0.3,0.2,0.7,0.1,1-0.1c0.2-0.1,0.5-0.2,0.6-0.1c0.6,0.4,1.3,0.3,2,0.4c0.3,0,0.7,0.2,1,0.3c0.7,0.3,1.4,0.8,2.2,1
		c0.6,0.2,1.1,0.3,1.5,0.7c1.5,1.3,2.7,2.8,4.1,4.2c0.2,0.2,0.3,0.3,0.4,0.5c0.5,1.8,2.2,2.9,2.9,4.6c0.8,0.9,0.6,2.2,1.3,3.1
		c-0.1,1,0.7,1.7,0.8,2.6c0.1,0.9,0.7,1.7,1.1,2.5c0.3,0.6,0.1,1.4,0.6,2c0.4,0.5,0.3,1.1,0.4,1.6c0.3,1.2,0.7,2.4,0.7,3.7
		c0,0.5,0.5,1,0.5,1.6c0.1,0.8,0.2,1.6,0.2,2.4c0,0.7,0.1,1.4,0.4,2c0.2,0.3,0.2,0.7,0.2,1c0,1.8,0,3.7,0,5.5c0,0.6-0.1,1.1-0.4,1.6
		c-0.1,0.1-0.1,0.2-0.1,0.3c-0.1,1-0.2,2.1-0.2,3.1c0,1-0.7,1.7-0.7,2.7c0,1.1,0.1,2.3-0.6,3.3c-0.1,0.2,0,0.5,0,0.7
		c0,0.6-0.1,1.1-0.1,1.7c-0.7,0.7-0.5,1.7-0.9,2.5c-0.5,1-1.2,2-1.5,3.1c-0.5,1.9-1.6,3.5-2.4,5.3c-0.4-0.2-0.8-0.5-1.2-0.7
		c-0.9-0.4-1.8-1-2.7-1.3c-1-0.3-2-0.1-3.1-0.1c-0.3,0-0.8,0-1-0.2c-0.7-0.6-1.6-0.3-2.2-0.8c-0.7-0.6-1.6-0.2-2.2-0.7
		c-0.3-0.3-0.6-0.1-0.9,0.1c-0.3,0.1-0.6,0.2-1,0.2c-0.7,0-1.3,0.1-1.9,0.5c-0.6,0.4-1.5,0.5-2.1,1c-0.8,0.6-1.7,0.4-2.5,0.9
		c-0.5,0.3-1.3,0.3-1.9,0.6c-0.7,0.4-1.3,0.3-2,0.4c-0.2,0-0.5,0.1-0.6,0.2c-0.9,0.9-2,1.4-3.2,1.9c-0.5,0.2-0.5,0.8-0.8,1.1
		C77.2,137.6,76.9,137.6,76.7,137.7z"/>
	<path class="st2" d="M183.4,60.8c0.1,0.4,0.3,0.7,0.6,0.7c0.6,0.1,1.1,0.1,1.6,0.5c0.6,0.4,1.2,0.7,1.8,0.9c0.5,0.1,1.1,0,1.7,0
		c0.2,0,0.5,0,0.7,0c0.5,0,0.9,0.2,1.3,0.4c1.2,0.6,2.5,1.1,3.5,2c0.6,0.5,1.4,0.7,2.1,1.1c1.2,0.6,2.4,1.3,3.3,2.4
		c0.4,0.4,0.8,0.8,1.1,1.3c0.3,0.5,0.6,1,0.8,1.5c0.2,0.5,0.4,1,0.8,1.5c-0.1,1.1,0.7,1.9,0.8,2.9c0,0.5,0.5,1,0.6,1.6
		c0.1,0.7,0.1,1.4,0.1,2.1c0,0.7,0.1,1.4,0.1,2.1c-0.3,3-0.2,6-0.1,8.9c0.3,0.8,0.9,1.6,0.7,2.6c-0.1,0.4,0.2,0.7,0.3,0.9
		c0.3,0.4,0.4,0.8,0,1.2c-0.3,0.4-0.4,0.8-0.4,1.3c0,0.7-0.7,1.1-0.7,1.9c0,0.7,0,1.4,0,2.1c0.1,1.2-0.5,2.2-1.1,3.2
		c-0.6,0.8-1.6,1.3-1.8,2.4c-0.8,0.3-1.4,1.1-2.4,1.1c-0.3,0-0.7,0-1.1,0c-0.5,0.4-1,0.9-1.5,1.3c-0.3,0.3-0.7,0.6-1.1,0.8
		c-0.9,0.4-1.5,1.3-2.6,1.6c-0.4,0.1-0.8,0.5-1.3,0.4c-0.9-0.1-1.5,0.3-2.2,0.6c-1.4,0.7-2.8,1.4-4.2,2.1c-3.6,0-7.1,0-10.7,0
		c-1,0-2.1,0.2-2.9-0.6c-0.6,0-1.1-0.1-1.7-0.1c-0.4-0.8-1.3-0.8-1.9-1.3c-0.9,0.1-1.5-0.6-2.3-0.7c-0.6-0.1-1.1-0.3-1.5-0.7
		c-0.7-0.6-1.4-1.2-2.2-1.7c-0.8-0.4-1.5-1.1-1.8-2c-0.3-0.8-1-1.3-1.7-1.7c-0.2-0.2-0.7-0.1-1-0.1c-0.4-1-1.3-1.6-2-2.3
		c-0.7-0.8-1.1-1.7-1.5-2.6c0.2-0.9-0.5-1.5-0.8-2.2c-0.4-0.9-0.7-1.7-0.6-2.6c0-0.6-0.1-1.1-0.4-1.6c-0.2-0.3-0.2-0.6-0.2-1
		c0-2.3,0-4.6,0-6.9c0-0.7-0.1-1.3-0.5-2c-0.2-0.3-0.1-0.9-0.1-1.3c0.6-0.7,0.7-1.5,0.6-2.3c-0.2-1,0.7-1.7,0.7-2.6
		c0-0.9,0.5-1.5,1.3-1.8c1.4-0.5,2.6-1.4,3.6-2.5c0.4-0.4,0.6-0.9,0.7-1.5c0.1-0.6,0.9-2.1,1.2-2.4c1.1-1.1,2.2-2.3,3.4-3.4
		c0.2-0.2,0.5-0.5,0.8-0.6c0.8-0.2,1.2-1,1.9-1.4c1.2,0.1,2.1-0.9,3.3-0.8c1,0.1,2.1,0,3.1,0c1.7,0,2.6-0.3,4-1.5
		c0.3-0.2,0.5-0.4,0.8-0.6c0.3,0,0.7,0,1-0.1c0.7-0.4,1.4-0.6,2.2-0.6C180.9,60.9,182.1,60.9,183.4,60.8z"/>
	<path class="st2" d="M76.7,137.7c0.2-0.1,0.4-0.2,0.6-0.3c0.3-0.3,0.3-0.9,0.8-1.1c1.1-0.5,2.3-1,3.2-1.9c0.1-0.1,0.4-0.2,0.6-0.2
		c0.7-0.1,1.3,0.1,2-0.4c0.5-0.3,1.3-0.3,1.9-0.6c0.8-0.5,1.8-0.3,2.5-0.9c0.6-0.5,1.5-0.6,2.1-1c0.6-0.4,1.2-0.5,1.9-0.5
		c0.3,0,0.7-0.1,1-0.2c0.3-0.1,0.5-0.4,0.9-0.1c0.6,0.5,1.6,0.1,2.2,0.7c0.6,0.5,1.6,0.2,2.2,0.8c0.2,0.2,0.6,0.2,1,0.2
		c1,0,2.1-0.1,3.1,0.1c0.9,0.3,1.8,0.9,2.7,1.3c0.4,0.2,0.8,0.4,1.2,0.7c0.3,0.8,0.9,1.3,1.8,1.3c0.2,0,0.5,0,0.7,0
		c1-0.1,1.7,0.3,2.4,1c0.4,0.4,0.7,1,1.3,1c0.3,0.9,1,1.6,1.8,2c0.9,0.4,1.5,1,2.1,1.6c0.6,0.6,1.1,1.1,1.7,1.7
		c0.4,0.4,0.6,0.9,0.7,1.5c0.1,0.9,0.6,1.7,1.2,2.4c0.3,0.5,0.7,0.8,0.9,1.4c0.3,0.8,1,1.6,1.2,2.4c0.2,0.9,0.1,1.8,0.1,2.7
		c0,0.9-0.1,1.8,0.5,2.6c0.1,0.2,0.1,0.4,0.1,0.6c0.1,1-0.2,2.1,0.6,2.9c0.1,1.1,0.4,2.3-0.4,3.3c-0.2,0.2-0.1,0.6-0.2,1
		c-0.1,0.7,0.2,1.4-0.3,2c-0.5,0.6-0.6,1.5-1.3,2c-0.3,0.2-0.5,0.5-0.7,0.7c-0.4,0.4-0.6,0.9-0.6,1.5c0,0.6-0.1,1.1-0.1,1.7
		c-0.7,0.8-0.4,2-1.2,2.8c-0.2,1.1-1.1,1.7-1.9,2.4c-1,0.1-1.4,1.2-2.5,1.5c-0.1,0-0.5,0-0.8,0c-0.7,0-1.4-0.1-2,0.1
		c-0.5,0.1-1,0.5-1.5,0.8c-0.6,0.4-1.2,0.6-1.9,0.5c-0.5,0-0.9,0.1-1.3,0.4c-0.6,0.4-1.3,0.4-1.9,0c-0.7-0.5-1.5-0.4-2.3-0.3
		c-1,0.9-2.2,0.6-3.3,0.7c-0.2-0.8-0.9-0.7-1.5-0.6c-0.3,0-0.7-0.1-1,0c-0.5,0.3-1,0.6-1.6,0.5c-1-0.1-2.1,0.1-3.1-0.1
		c-0.8-0.2-1.6-0.8-2.4-1.3c-0.3-0.2-0.6-0.2-0.9-0.4c-0.3-0.1-0.6-0.4-0.9-0.3c-0.3,0-0.7,0-1,0c-1.9,0.4-3.5-0.8-5.1-1.5
		c-0.4-0.2-0.7-0.6-1.1-0.9c-0.9-0.8-1.7-1.9-2.8-2.5c-0.7-0.1-1.4,0.1-2-0.3c-0.7-0.5-1.7-0.7-2.3-1.5c-0.4-0.5-1-1-1.5-1.5
		c-0.4-0.4-0.8-0.3-1.3-0.4c-0.1-0.8,0-1.6-0.6-2.2c-1.2-1.2-1.3-3-2.2-4.5c-0.1-0.1,0-0.2,0-0.3c0.1-0.9-0.2-1.8-0.6-2.6
		c-0.1-0.2-0.1-0.4-0.1-0.7c0-0.3,0.1-0.8-0.1-1c-0.4-0.7-0.7-1.4-0.6-2.2c0.1-0.9,0-1.8,0-2.7c0-0.5,0.2-0.9,0.5-1.2
		c0.4-0.4,0.7-0.8,0.9-1.4c0.3-0.7,0.7-1.4,0.6-2.2c-0.1-0.8,0-1.6,0-2.4c0.2-0.1,0.4-0.2,0.5-0.4c0.3-0.6,0.6-1.2,0.9-1.8
		c0.1-0.3,0.3-0.5,0.7-0.7c1.3-0.7,2.3-1.7,3-3.1c0.3-0.7,1-1.2,1.5-1.8C76.1,138.6,76.7,138.4,76.7,137.7z"/>
</g>
</svg>
