<?xml version="1.0" encoding="utf-8"?>
<!-- Generator: Adobe Illustrator 23.0.1, SVG Export Plug-In . SVG Version: 6.00 Build 0)  -->
<svg version="1.1" id="Layer_1" xmlns="http://www.w3.org/2000/svg" xmlns:xlink="http://www.w3.org/1999/xlink" x="0px" y="0px"
	 viewBox="0 0 289.1 632.3" style="enable-background:new 0 0 289.1 632.3;" xml:space="preserve">
<style type="text/css">
	.st0{fill:#676767;}
</style>
<title>Asset 5</title>
<g>
	<g>
		<path d="M139.7,128.9c0.1,0.8-0.1,1.6-0.4,2.3c-0.1,0.3-0.2,0.7-0.2,1c-0.1,1.3-0.1,2.5-0.1,3.8c0,0.5-0.1,0.9-0.4,1.3
			c-0.2,0.3-0.3,0.6-0.2,1c0.2,1.5-0.8,2.3-1.9,3c-0.2,0.1-0.4,0-0.6-0.1c-0.6-0.3-1.1-0.8-1.4-1.4c-0.1-0.2-0.2-0.5-0.1-0.6
			c0.4-0.7,0.6-1.5,0.5-2.3c0-2.2-0.1-4.3-0.1-6.5c0.2-1.2,0.2-2.5-0.1-3.8c-0.3-1-0.4-2-0.4-3c0-0.8-0.1-1.6-0.1-2.4
			c-0.7-1-0.5-2.2-0.6-3.3c0-0.3-0.1-0.7-0.2-1c-0.3-0.6-0.5-1.3-0.4-2c0-0.3,0-0.7-0.1-1c-0.5-1.4-0.8-2.9-0.7-4.4
			c0-0.3-0.1-0.7-0.2-1c-0.6-1.1-0.2-2.5-1-3.6c0-0.7-0.1-1.4-0.1-2.1c-0.1-0.8-0.7-1.4-0.6-2.3s-0.5-1.3-0.6-2s0-1.2-0.1-1.7
			c-0.2-0.6-0.4-1.3-0.6-1.9c-0.1-1.4-0.9-2.6-0.9-4c-0.6-0.8-0.5-1.8-0.9-2.6c-0.7-1.2-0.9-2.6-1.5-3.8c-0.4-0.7-0.2-1.6-0.8-2.3
			c-0.4-0.6-0.7-1.2-0.8-1.9c-0.1-0.7-0.5-1.3-0.7-1.9c-0.1-0.6-0.3-1.1-0.6-1.6c-2.5-5.4-5.3-10.6-7.9-15.9c-0.3-0.6-0.6-1.2-1-1.8
			c-0.3-0.5-0.8-0.9-1.3-1c-0.1-0.3-0.1-0.7-0.2-1c-0.1-0.6-0.3-1.1-0.6-1.6c-1.5-2.2-2.9-4.4-4.4-6.6c-0.3-0.5-0.6-1-0.9-1.5
			c-0.5-0.9-1.1-1.7-1.7-2.6c-1.9-2.6-4.1-4.9-5.8-7.7c-0.1-0.2-0.3-0.4-0.4-0.5c-1-1.4-2.4-2.5-3.4-4c-1-1.3-2.1-2.5-3.3-3.5
			c-1.2-1.3-2.5-2.4-4-3.3c-0.6-0.3-1.2-0.7-1.7-1.1c-1-0.9-2.2-1.6-3.5-2.1c-1.2-0.4-2.3-0.9-3.5-1.3c-0.8-0.3-1.6-0.4-2.4-0.4
			c-0.2,0-0.8,0.3-0.8,0.5c0,0.5,0,0.9,0,1.4c0.2,0.9-0.3,1.9-1.2,2.2c-0.7,0.4-1.4,0.8-1.9,1.4c-1.4,1.5-3.1,2.8-4,4.6
			c-1,0.9-1.8,2.1-2.4,3.3c-0.6,1.2-1.9,2-2.3,3.4c-1.4,1.8-2.8,3.7-4.3,5.4c-0.5,0.5-1.1,0.9-1.7,1.2c-1.7,0.9-3.6,1.4-5.6,1.4
			c-1.5-0.7-2.8-1.6-3.9-2.8c-0.6-0.6-0.9-1.4-0.8-2.2c0.1-0.7-0.2-1.4-0.8-1.8c-0.2-0.1-0.3-0.3-0.4-0.5c-0.3-0.6-0.3-1.4,0-2
			c1.1-1.6,2-3.3,2.7-5.1c0.1-0.2,0.2-0.4,0.4-0.6c0.8-0.9,1.4-1.8,2-2.8c0.7-1.1,1.5-2,2.5-2.8c1-0.8,1.9-1.7,2.8-2.6
			c2.3-2.1,4.8-4,7.4-5.7c0.3-0.2,0.6-0.2,1-0.4c0.7-0.4,1.6-0.3,2.2-0.8c0.6-0.5,1.5-0.3,2.3-0.8c0.8-0.5,1.5-0.4,2.2-0.8
			c0.3-0.1,0.7-0.2,1-0.1c0.5,0,0.9,0.2,1.4,0.2c0.9,0,1.8-0.1,2.8-0.1s1.5,0.5,2.3,0.6c1.4,0.2,2.7,0.6,4,1
			c0.5,0.2,1.1,0.4,1.6,0.7c1.1,0.6,2.2,1.2,3.3,1.8c0.4,0.2,0.8,0.4,1.2,0.7c1.1,1.1,2.6,1.8,3.8,2.8c1.2,0.9,2.3,1.9,3.3,3
			c0.2,0.2,0.3,0.3,0.5,0.5c2.3,2,3.9,4.5,6,6.6c0.9,1,1.7,2.1,2.4,3.3c0.6,0.9,1.2,1.7,1.9,2.5c1.3,1.3,2.4,2.8,3.3,4.4
			c0.2,0.4,0.5,0.8,0.8,1.1c0.7,0.6,1.2,1.4,1.4,2.3c0.2,0.5,0.7,0.9,1,1.3c0,0.2,0.1,0.5,0.2,0.7c0.7,1,1.4,2.1,2.1,3.1
			c0.2,0.2,0.3,0.3,0.4,0.5c0.7,1.8,2,3.3,2.9,5c0.2,0.4,0.4,0.8,0.7,1.2c0.5,0.5,0.8,1.1,0.8,1.8c1.1,2.2,2,4.6,3.5,6.6
			c0.7,0.9,1.2,2,1.3,3.1c0.1,0.7,0.6,1.2,0.7,1.9c0.2,0.7,0.5,1.3,0.8,1.9c0.3,0.7,0.8,1.4,1.1,2.1c0.3,0.6,0.6,1.2,0.7,1.9
			c0.1,0.8,0.7,1.4,0.8,2.2c0.1,0.7,0.4,1.3,0.6,1.9c0.4,1.2,0.9,2.3,1.2,3.5s0.8,2.4,1.4,3.5c0.1,0.2,0.2,0.4,0.2,0.6
			c-0.2,1.3,0.8,2.4,0.8,3.7c0.1,0.7,0.3,1.3,0.6,1.9c0,0.7,0.2,1.4,0.5,2c0.1,0.2,0.2,0.4,0.2,0.6c0.1,0.8,0.1,1.6,0.1,2.4
			s0.7,1.4,0.6,2.3c-0.1,0.9,0.6,1.5,0.7,2.3s0.1,1.6,0.1,2.4s0.7,1.4,0.6,2.3c-0.1,0.8-0.1,1.6,0.1,2.4c0.5,1.9,0.7,3.8,0.7,5.8
			c0,0.2,0.1,0.4,0.2,0.6c0.2,0.4,0.4,0.8,0.4,1.3c-0.1,1.7,0.1,3.4,0.6,5.1c0.1,0.6,0.2,1.1,0.1,1.7
			C139.7,126.4,139.7,127.6,139.7,128.9z"/>
		<path d="M175.4,140.5c-0.3,0.1-0.7,0.1-0.9,0.4c-1.5,3.3-3.2,6.5-4.8,9.7c-0.3,0.6-0.6,1.2-0.9,1.8c-1,1.4-1.6,3-2.6,4.4
			c-0.4,0.6-0.7,1.2-1.1,1.7c-1.4,2.2-3.2,4.2-5.2,5.9c-0.3,0.3-0.7,0.2-1.1-0.2c-0.3-0.3-0.5-0.8-0.3-1.3c0.5-1.3,1.1-2.5,1.9-3.6
			c0.6-0.7,1-1.5,1.4-2.3c0.4-0.9,1.1-1.5,1.5-2.3s0.8-1.6,1.2-2.4c0.8-1.5,1.5-3.1,2.3-4.6c0.4-0.9,0.8-1.9,1.1-2.8
			c0.5-0.9,0.8-1.8,1.1-2.8c0.2-1,0.9-1.8,1.2-2.8c0.1-0.9,0.7-1.7,0.9-2.6c0.3-0.9,0.6-1.7,1.1-2.5c0.4-0.8,0.1-1.8,0.7-2.6
			c0.4-0.6,0.2-1.6,0.8-2.2c0.1-0.9,0.7-1.7,0.8-2.6s0.7-1.4,0.8-2.3c0-0.8,0.2-1.6,0.6-2.3c0.2-0.5,0.1-1.2,0.2-1.7s0.6-1,0.6-1.6
			c0-1.4,1-2.6,0.9-4c0-0.2,0.2-0.4,0.3-0.6c0.3-0.6,0.4-1.3,0.2-2c0.4-1.2,0.7-2.4,0.9-3.7c0.6-1.1,0.4-2.2,0.6-3.4
			s0.7-2.4,0.9-3.7c0.2-0.5,0.3-1.1,0.3-1.7c0-1,0.2-2,0.5-3c0.2-0.6,0.3-1.3,0.3-2c0.1-0.9,0.3-1.8,0.6-2.7
			c0.2-0.9,0.2-1.8,0.2-2.8c0.8-1.4,0.3-3.2,1.1-4.7c0.1-0.2,0.1-0.4,0.1-0.7c0-1.3,0.3-2.5,0.6-3.7c0.1-0.4,0.2-0.9,0.2-1.4
			c0-1,0.2-2,0.4-3c0.2-0.9,0.3-1.8,0.4-2.7c0.4-1.3,0.6-2.6,0.7-4c0.6-1,0.4-2,0.5-3c0.1-1.1,0.3-2.3,0.5-3.4
			c0.4-1.1,0.2-2.3,0.4-3.4c0.2-0.7,0.3-1.3,0.3-2c0.1-2.2,0.2-4.4,0.3-6.6c0.1-0.3,0.2-0.6,0.3-1c0.3-0.8,0.2-1.6-0.2-2.3
			c-0.3-0.5-0.4-1.1-0.3-1.7c0-1,0.2-2.1,0.1-3.1c0-0.8-0.1-1.6-0.3-2.4c-0.3-0.7-0.4-1.5-0.5-2.3c0-1-0.4-2-1-2.9
			c-0.6-0.8-1.1-1.7-1.4-2.7c-0.6-1.5-1-3-1.1-4.6c0-1.7,0.1-3.4,0.2-5.2c0-1.2-0.2-2.5,0.5-3.7c0-1.2,0.2-2.4,0.6-3.5
			c-0.1-1.9,1.4-3.4,1.6-5.2c0.8-1.5,1.9-2.9,3.2-4.1c1-0.9,2.4-1.4,3.8-1.4c0.2,0,0.5,0,0.7,0c2.1-0.1,4.1,0.7,5.6,2.3
			c1.3,1.1,2,2.6,1.9,4.3c-0.1,1.9,0.1,3.9-0.7,5.8c-0.3,0.8-0.1,1.8-0.5,2.7c-0.3,0.8-0.4,1.5-0.5,2.4c-0.1,0.4-0.4,0.8-0.8,1.1
			c-1,0.9-1,0.9-1.2,1.8c-0.3,1.1-0.5,2.2-0.6,3.4c0,0.3,0,0.7-0.2,1c-0.3,0.7-0.5,1.5-0.5,2.3c0,1.1-0.2,2.3-0.4,3.4
			c-0.3,1.1-0.4,2.2-0.6,3.4c-0.1,0.2-0.2,0.4-0.2,0.7c-0.1,0.8-0.1,1.6-0.2,2.4c-0.1,0.8-0.4,1.5-0.5,2.3c-0.1,1,0,2.1-0.3,3.1
			c-0.2,0.9-0.4,1.8-0.6,2.7c-0.1,0.6,0.1,1.2-0.1,1.7c-0.3,1-0.6,2-0.7,3c-0.2,0.4-0.3,0.9-0.3,1.3c-0.1,1.1-0.2,2.3-0.2,3.5
			c0,1.2-0.6,2.2-0.6,3.4c0,0.5,0,0.9-0.2,1.3c-0.4,0.8-0.6,1.8-0.5,2.7c0,1-0.2,2-0.5,3c-0.3,0.8-0.2,1.8-0.4,2.7
			c-0.2,0.8-0.4,1.6-0.5,2.3c-0.1,1.4,0.1,2.8-0.4,4.1c-0.5,1.3-0.2,2.7-0.9,4c-0.1,0.3-0.1,0.7-0.2,1c-0.1,0.9-0.2,1.8-0.4,2.7
			c-0.2,0.8-0.3,1.6-0.3,2.4c-0.1,0.9-0.7,1.7-0.7,2.7c0.1,0.9-0.1,1.8-0.5,2.7c-0.1,0.1-0.1,0.2-0.1,0.3c-0.1,1.5-0.3,2.9-0.7,4.4
			c-0.4,1.3-0.1,2.7-0.7,4c-0.1,1.3-0.7,2.4-0.8,3.7s-0.8,2.6-0.8,4c-0.6,1.1-0.4,2.5-1,3.6c-0.2,1.7-0.6,3.4-1,5
			c0.1,1.2-0.6,2.2-0.7,3.3c-0.4,0.6-0.6,1.3-0.6,2c-0.1,0.6-0.3,1.1-0.5,1.6c-0.4,0.8-0.7,1.7-0.8,2.6c-0.1,0.4-0.2,0.9-0.4,1.3
			c-0.1,0.3-0.2,0.7-0.3,1c-0.4,1-0.7,2-0.7,3c0.1,1.2-0.8,2.1-1,3.2S175.6,139.4,175.4,140.5z"/>
		<path d="M157,132.3c-0.1,0-0.2,0.1-0.3,0.2c-0.6,0.6-0.3,1.5-0.8,2.2c-0.4,0.7-0.7,1.4-1,2.1c-0.7,1-1.2,2.2-1.4,3.4
			c0,0.3-0.4,0.6-0.6,0.8c-0.3,0.3-0.9,0.3-1.2,0c-0.7-0.6-1-1.6-0.7-2.5c0-0.1,0.1-0.2,0.1-0.3c0.5-0.9,1-1.8,1.2-2.8
			c0.3-0.9,0.6-1.9,0.9-2.9c0.4-0.7,0.6-1.5,0.6-2.3c0.1-0.1,0.3-0.1,0.3-0.2c0.2-0.6,0.4-1.3,0.7-1.9c0.2-0.5,0.3-1.1,0.3-1.7
			c0-1,0.8-1.8,0.8-3c0-0.6,0.4-1.3,0.6-1.9c0-0.7,0.2-1.4,0.5-2c0.1-0.2,0.2-0.4,0.2-0.7c-0.1-1.2,0.7-2.2,0.7-3.3
			c0-0.8,0.1-1.6,0.5-2.3c0.1-0.3,0.2-0.7,0.2-1c0-1.1,0.2-2.3,0.5-3.4c0.2-0.7,0.2-1.3,0.2-2c-0.1-0.9,0.1-1.8,0.5-2.7
			c0.2-0.4,0.2-0.9,0.2-1.3c0-1.3,0.1-2.5,0.1-3.8c0-0.8,0.1-1.6,0.4-2.3c0.2-0.5,0.2-1.1,0.2-1.7c0.1-3.1,0.1-6.2,0.1-9.3
			c-0.1-1,0-2.1,0.4-3c0.1-0.2,0-0.7-0.2-1c-0.3-0.4-0.3-0.9,0-1.3c0.3-0.5,0.4-1.1,0.3-1.7c0-4.8,0-9.7,0-14.5
			c0.1-0.8-0.1-1.6-0.4-2.3c-0.1-0.4-0.2-0.9-0.1-1.3l-0.1-12.8c0-0.3-0.1-0.7-0.4-0.9c-0.2-1.1-0.4-2.2-0.7-3.3
			c-0.4-1-0.1-2.3-0.7-3.3c-0.2-0.5-0.3-1.1-0.3-1.7c0-0.5-0.2-0.9-0.5-1.2c-0.8-1-1.4-2.1-1.6-3.4c-0.2-0.9-0.6-1.7-1.2-2.4
			c-0.8-0.9-1.3-1.9-1.6-3c-0.4-1.2-0.8-2.4-1.2-3.6c-0.1-0.4-0.3-0.9-0.4-1.3c-0.6-1.6-1.8-3-3.4-3.7c-0.5-0.3-1-0.5-1.6-0.5
			c-2.6,0-5.2-0.6-7.5-1.9c-1.9-0.6-3.5-1.7-4.8-3.1c-0.4-0.4-0.7-0.9-1.1-1.3c-0.6-0.8-1.2-1.7-1.8-2.5c-0.2-1.4-0.1-2.7,0.5-4
			c0.3-0.7,0.5-1.5,0.6-2.3c0.1-0.6,0.4-1.1,0.7-1.5c0.1-0.2,0-0.4-0.5-0.6c-0.1-0.1-0.3-0.2-0.4-0.3c0.5-0.2,1-0.7,1.6-0.7
			c1.3,0,2.4-0.7,3.5-1.2c0.6-0.3,1.4-0.3,2-0.1c0.4,0.1,0.9,0.2,1.3,0.3c2.8,0.4,5.5,1.5,7.8,3.2c0.6,0.4,1.1,0.8,1.6,1.3
			c0.7,0.8,1.4,1.5,2.2,2.2c0.7,0.7,1.4,1.5,2,2.4c0.1,0.1,0.2,0.2,0.2,0.3c1.1,2.6,2.9,5,3.7,7.7c0.5,1.6,1.3,3.2,1.6,4.9
			c0.3,1.2,1.1,2.2,1.2,3.5c0.2,1.1,0.5,2.2,0.8,3.3c0.2,0.8,0.4,1.5,0.5,2.3c0,0.3,0,0.7,0.1,1c0.6,1.2,0.3,2.5,0.8,3.7
			c0.2,0.5,0.3,1.1,0.3,1.7c0,1.8,0.2,3.7,0.7,5.4c0.2,1,0.3,2.1,0.3,3.1c0.1,1.5-0.3,3,0.5,4.4l0.1,5.2c0,1.7,0.1,3.5,0.1,5.2
			c0,0.7,0.1,1.4,0.4,2c-0.2,0.3-0.3,0.6-0.3,0.9c0,1.8,0,3.7,0,5.5c0,6.1-0.1,12.2-0.1,18.3c0.1,0.5,0,0.9-0.1,1.3
			c-0.4,0.8-0.5,1.8-0.4,2.7c0,1.7-0.1,3.4-0.1,5.2c0,0.6-0.1,1.1-0.4,1.7c-0.1,0.4-0.2,0.9-0.2,1.3c-0.1,1.6-0.1,3.2-0.2,4.8
			c0,0.3,0,0.7-0.2,1c-0.4,0.8-0.5,1.8-0.5,2.7c0,0.7-0.1,1.4-0.4,2c-0.2,0.4-0.2,0.9-0.2,1.3c-0.1,0.8,0.2,1.7-0.3,2.4
			s-0.2,1.6-0.5,2.3c-0.1,0.6-0.6,1.1-0.6,1.6c0,1.2-0.8,2.2-0.8,3.3s-0.7,2.2-1,3.3c-0.1,0.3-0.4,0.7-0.3,1c-0.1,1.1-0.4,2.2-1,3.2
			c-0.3,1-0.6,1.9-1.1,2.9C157.1,131.8,157,132.1,157,132.3z"/>
	</g>
	<g>
		<path class="st0" d="M131.4,193.9c0-0.8,0.1-1.6,0.1-2.4c0-0.7-0.1-1.4-0.5-1.9c-0.4-0.7-0.2-1.6-0.8-2.2c-0.1-1-0.5-2-1-2.9
			c-0.5-0.8-0.9-1.6-1.1-2.5c0-0.9-0.7-1.4-0.8-2.2c-0.2-1.4-1.1-2.5-1.7-3.7c-0.5-1-1.6-1.6-2-2.7c-0.1-0.2-0.3-0.4-0.5-0.5
			c-1.7-0.9-2.8-2.3-4.2-3.6c-0.7-0.7-1.5-1.4-2.4-1.9c-0.8-0.6-1.6-1.3-2.3-2.1c-0.6-0.8-1.5-1.5-2.4-1.9c-0.3-0.1-0.5-0.4-0.8-0.7
			l-1-1c-1.1-1.2-2.2-2.3-3.5-3.3c-1.2-0.9-2.3-1.8-3.4-2.8c-0.6-0.5-1.4-0.7-2-1.4c-0.5-0.6-1.2-1.1-1.9-1.4
			c-0.7-0.4-1.1-1.2-1.8-1.5s-1.4-1.2-2.2-1.5c-0.8-0.3-1.4-1.2-2.3-1.5s-1.3-1-1.9-1.4c-0.4-0.3-0.7-0.5-1.2-0.7
			c-1.4-0.7-2.8-1.5-4.1-2.4c-0.9-0.6-1.9-1.2-3-1.6c-1.2-0.4-2.3-1.1-3.2-1.9c-0.2-0.2-0.7-0.2-0.9-0.5c-0.6-0.6-1.6-0.4-2.2-0.8
			c-0.5-0.5-1.1-0.8-1.7-1.1c-0.6-0.3-1.2-0.5-1.9-0.8c-0.9-0.2-1.7-0.6-2.4-1.2c-0.2-0.3-0.5-0.5-0.8-0.6c-0.6-0.2-1.4-0.1-1.9-0.7
			s-1.4-0.8-2-1.3c-0.6-0.3-1.2-0.7-1.8-0.9c-0.2-0.1-0.4-0.2-0.6-0.3c-1.5-1.1-3.1-2-4.7-2.7c-0.9-0.3-1.7-0.8-2.4-1.4
			c-0.2-0.2-0.3-0.3-0.5-0.4c-1-0.4-1.9-0.8-2.7-1.4c-1.1-0.1-1.5-1.4-2.6-1.5c-1-0.6-2-1.2-2.9-1.9c-1-0.2-1.5-1.1-2.3-1.5
			c-0.9-0.4-1.8-0.9-2.7-1.5c-0.7-0.5-1.5-1-2.4-1.3c-0.3-0.1-0.6-0.3-0.8-0.6c-1.4-1.6-3.6-2-5.1-3.4c-1.3,0.1-2-1-2.9-1.7
			c-0.3-0.2-0.6-0.4-0.9-0.5c-1.5-0.8-3-1.7-4.3-2.7c-1-0.7-2-1.5-3.1-2.1c-0.3-0.2-0.6-0.3-0.8-0.6c-0.3-0.6-0.7-1.2-1.2-1.6
			c-1-1-2-2-2.9-3c-1.2-1.4-2.3-2.8-3.1-4.4c-0.1-0.1-0.1-0.2-0.2-0.3c-0.7-1.4-1.9-2.6-2.3-4.2c-0.5-1.4-1.1-2.7-1.8-4
			c-0.2-0.3-0.2-0.7-0.3-1c-0.1-1-0.1-2.1-0.1-3.1c0-0.5-0.1-0.9-0.3-1.3s-0.3-0.9-0.3-1.3c0-0.7,0-1.4,0-2.1c0-0.9-0.3-1.9,0.2-2.7
			c0.7-1.2,1-2.6,2-3.5c0.6-0.6,1.1-1.2,1.4-1.9c0.5-0.6,1-1.2,1.6-1.8c0.3-0.6,0.8-1.1,1.2-1.6c1.3-1.3,2.6-2.6,3.9-3.9
			c1.6-0.7,2.7-2.1,4-3.3c1.3-0.9,2.7-1.6,4.2-2c0.5-0.2,1.1-0.4,1.6-0.6c0.7-0.1,1.4-0.1,2.1-0.1c1.3,0,2.5,0,3.8,0
			c0.7,0,1.4,0.2,2,0.5c0.7,0.3,1.6,0.3,2.3,0c1.5-0.6,2-0.6,3.9,0c0.2,0.1,0.5,0.2,0.7,0c1.1-0.8,2.4-0.5,3.7-0.5
			c0.2,0,0.4,0.1,0.6,0.2c0.6,0.4,1.3,0.5,2,0.5h1.4c0.7-0.1,1.4,0.1,2,0.4c0.2,0.1,0.4,0.2,0.6,0.2c1.4-0.1,2.7,0.2,4,0.7
			c0.5,0.2,1.2,0,1.7,0.2c0.7,0.4,1.5,0.6,2.3,0.5c0.7,0,1.2,0.8,1.9,0.7c0.8-0.1,1.6,0.2,2.2,0.8c0.3,0.4,0.7,0.6,1.2,0.6
			c1,0,1.6,1,2.6,0.7c0.7,0.7,1.7,0.6,2.5,1c0.5,0.2,1.1,0.3,1.6,0.5c0.5,0.3,1,0.6,1.4,1c0.2,0.1,0.4,0.2,0.6,0.3
			c0.6,0.2,1.1,0.7,1.9,0.7s1.3,0.9,2,1.3c0.7,0.4,1.3,0.5,1.9,0.8c1.5,0.8,2.9,1.8,4.3,2.8c0.5,0.3,1,0.6,1.4,0.9
			c0.4,0.4,0.6,0.9,1.2,1.1c0.5,0.2,1,0.5,1.5,0.8c0.7,0.4,1.1,1.1,2,1.3c0.2,0,0.3,0.3,0.4,0.5c0.5,1,1.4,1.8,2.4,2.3
			c0.4,0.2,0.8,0.6,0.9,1c0.2,0.6,0.7,0.8,1.2,1.1c1.8,1.4,3.3,3.1,4.6,5c0.3,0.5,0.8,0.9,1.2,1.3c0.4,0.4,0.8,0.8,1.2,1.3
			c0.3,0.6,0.8,1.1,1.3,1.5c0.4,0.3,0.6,0.9,1,1.4c0.7,1.1,1.5,2.2,2.4,3.2c0.4,1.4,1.6,2.2,2.5,3.2c0.3,0.4,0.5,0.7,0.7,1.2
			c0.5,1.1,1.2,2,2,2.8s1.5,1.7,1.9,2.8c0.6,1.3,1.3,2.4,2.1,3.5c0.2,1.2,1.9,1.8,1.6,3.3c0.4,0.8,1.3,1.3,1.5,2.3
			c0.8,0.8,1.2,2,2,2.8c0.4,0.4,0.6,1,0.7,1.5c0.1,0.3,0.2,0.6,0.4,0.9c0.9,1.8,1.8,3.7,2.7,5.5c0.5,0.9,0.9,1.8,1.1,2.8
			c0,0.4,0.4,0.8,0.6,1.2h-0.7c-0.7,0.1-1.4-0.2-2,0.3s-1.5,0.6-2,1.2c-0.4,0.6-0.9,1-1.5,1.5c-0.7,0.5-0.7,1.4-1.2,2
			s-0.2,1.1-0.2,1.7s0.3,1.5-0.2,2s-0.3,1.6-0.8,2.2c-0.3,0.4-0.4,0.8-0.4,1.3c0,2,0,3.9,0,5.9c0,0.5-0.1,0.9-0.3,1.3
			c-0.5,0.7-0.5,1.6,0.1,2.2c0.1,0.2,0.2,0.4,0.3,0.6c0,0.7,0,1.4,0,2.1s-0.2,1.2,0.2,1.7c0.6,0.7,0.3,1.6,0.8,2.2
			c0.2,0.4,0.4,0.8,0.6,1.2c0.3,0.7,1.2,1.1,1.3,2c0,0.2,0.2,0.4,0.4,0.6c0.3,0.3,0.7,0.7,1,1c0.2,0.1,0.4,0.3,0.6,0.3
			c0.3,0.2,0.6,0.3,0.9,0.5c0.7,0.4,1.6,0.1,2.2,0.8c0.1,0.1,0.2,0.1,0.3,0.1c0.2,0,0.5,0,0.7,0s0.8-0.1,1,0.1c1.3,0.9,3,1.1,4,2.4
			c0.6,0.7,1.3,1.3,1.9,2c0.3,0.3,0.7,0.6,0.7,1.1c1,1.2,1.7,2.8,3.7,2.7c0.7,0.9,2,0.4,2.8,1.1c0.2,0.1,0.4,0.2,0.6,0.2
			c0.8,0,1.6,0.1,2.4,0c0.3-0.1,0.6-0.2,0.9-0.4c0.2-0.1,0.4-0.3,0.6-0.2c1.1,0.1,2.3-0.4,3-1.3c0.7-0.2,1.3-0.6,1.7-1.1
			c0.6-0.6,1.4-0.7,2.1-1.1c0.7,0,1.3-0.2,1.9-0.6c0.6-0.2,1.4-0.1,1.9-0.6c0.2-0.1,0.4-0.2,0.6-0.2c0.2,0,0.5,0,0.7,0
			c0.8,0.1,1.6-0.1,2.2-0.6c0.9,0.1,1.8-0.4,2.4-1.1c1.1-1.2,2.7-1.6,4.1-2.4c0.8,0,1.6-0.3,2.1-1c1.1-1,1.9-2.3,3.4-2.8
			c0.6-0.6,1.5-1.1,1.6-2.1c0.6-0.7,0.7-1.7,1.5-2.3c0.3-0.3,0.5-0.8,0.5-1.2c0-1.6,0-3.2,0-4.8c0.1-0.7-0.1-1.4-0.5-1.9
			c-0.1-0.2-0.2-0.4-0.2-0.6c0-1,0-2.1,0-3.1c0.1-0.2,0.1-0.4,0.3-0.6c1-1.1,1.9-2.3,2.5-3.6c0.1-0.3,0.3-0.6,0.5-0.9
			c1.3-1,1.8-2.7,2.9-3.8c0.4-0.4,0.7-0.9,0.9-1.4c0.4-0.9,1.2-1.7,1.6-2.6c0.5-0.9,1.2-1.7,1.9-2.4c0.5-0.5,0.9-1,1.1-1.7
			c1-1,1.4-2.3,2.4-3.3s1.3-2.2,2.3-3c0.8-0.7,0.9-1.8,1.8-2.5c0.7-0.6,1.3-1.3,1.9-2c0.6-0.6,0.7-1.4,1.3-2
			c0.7-0.5,1.2-1.1,1.4-1.9l7.6-7.6c1.1-0.6,2.1-1.4,2.9-2.3c0.3-0.2,0.5-0.6,0.8-0.6c1.1-0.2,1.5-1.4,2.6-1.6
			c1.3-0.7,2.6-1.4,3.9-2c0.4-0.2,0.8-0.6,1.2-0.6c0.9,0,1.5-0.7,2.3-0.7c0.7-0.2,1.3-0.4,1.9-0.7c0.7-0.2,1.4,0,2.1-0.2
			c0.8-0.3,1.7-0.5,2.6-0.5c0.8,0.1,1.6,0.1,2.4,0c0.3,0,0.7,0,1-0.2c0.6-0.3,1.3-0.5,2-0.4c2.3,0,4.6,0,6.9,0
			c0.7-0.1,1.4,0.1,2,0.4c0.3,0.1,0.7,0.2,1,0.2c0.8,0,1.6,0,2.4,0.1c0.3,0,0.7,0.1,1,0.2c0.5,0.3,1.1,0.4,1.6,0.4
			c0.6,0,1.2,0,1.7,0c0.7-0.1,1.4,0.1,2,0.5c0.2,0.1,0.4,0.2,0.6,0.2c0.8,0,1.6,0.2,2.3,0.6c0.8,0.4,1.8,0,2.6,0.6
			c0.6,0.4,1.6,0.2,2.2,0.8c0.1,0.1,0.2,0.1,0.3,0.1c1.2-0.2,2.2,0.6,3.3,0.8s2.2,1.1,3.5,1.4c1.1,0.3,2.1,0.9,3,1.7
			c0.6,0.4,1.2,0.7,1.8,1c0.9,0,1.8,0.4,2.5,0.9c0.7,0.4,1.3,1,1.9,1.5c0.4,0.3,0.8,0.4,1.3,0.4c0.8,0.1,1.4,0.8,2.3,0.7
			c1.1,0.4,2,1.1,2.9,1.9c0.6,0.5,1.1,1.2,1.4,1.9c0.7,0.4,1.3,0.8,1.8,1.4c0.4,0.5,0.9,1,1.3,1.6c0,1.2,0.8,2.1,0.8,3.3
			c-0.2,1.1,0,2.3,0.8,3.3c0.5,0.9,0.7,2,0.6,3c0,0.5-0.4,0.8-0.5,1.2c-0.3,0.5-0.5,1-0.7,1.6c-0.1,0.6-0.2,1.1-0.1,1.7
			c0,1.1-0.8,1.9-0.8,2.9c0,0.2-0.2,0.4-0.4,0.6c-0.8,0.8-1.5,1.8-2.7,2.1c-0.8,0.8-1.7,1.6-2.5,2.4c-1,0.9-2.1,1.8-3.3,2.4
			c-1,0.7-2.1,1.3-3.3,1.8c-1.2,0-2.1,0.8-3.2,1.2c-0.7,0.2-1.3,0.4-1.9,0.6c-0.6,0.3-1.3,0.4-2,0.3c-0.8-0.1-1.6,0.1-2.3,0.5
			c-0.3,0.2-0.7,0.2-1,0.2c-0.9-0.1-1.8,0.1-2.7,0.5c-0.4,0.2-0.9,0.2-1.3,0.1c-2.1,0-4.1,0.1-6.2,0.1c-0.7-0.1-1.4,0.1-2,0.4
			c-0.3,0.1-0.7,0.2-1,0.2c-0.9,0-1.8,0-2.8,0c-1.1,0-2.3-0.1-3.3,0.6c-0.3,0.2-0.9,0.1-1.4,0.1s-1,0-1.3,0.2
			c-0.8,0.4-1.7,0.6-2.7,0.5c-0.2,0-0.5,0-0.7,0.1c-1,0.8-2.2,0.5-3.3,0.6c-0.5,0-0.9,0.1-1.3,0.3c-0.3,0.2-0.6,0.3-1,0.3
			c-0.6,0.1-1.2,0-1.7,0.1s-1,0.5-1.6,0.6c-0.7,0.1-1.3,0.6-1.9,0.7c-0.7,0-1.4,0-2.1,0.1c-0.9,0.4-2,0.7-3,0.7
			c-1.1,1-2.8,0.2-3.8,1.3c-0.7,0-1.4,0.2-1.9,0.6c-0.6,0.3-1.4,0.1-1.9,0.6c-0.4,0.3-0.9,0.2-1.3,0.3c-0.3,0-0.7,0.1-1,0.2
			c-1.2,0.6-2.4,1.3-3.9,1.2c-0.7,0.7-1.8,0.5-2.5,1s-1.8,0.2-2.5,0.9c-1-0.1-1.7,0.7-2.6,0.8c-0.9,0.1-1.6,0.9-2.6,0.8
			c-1.1,0.7-2.4,0.7-3.5,1.3c-0.6,0.4-1.2,0.7-1.9,0.8s-1.3,0.4-1.9,0.8c-0.6,0.4-1.2,0.6-1.9,0.6c-0.1,0-0.2,0.1-0.3,0.2l-2.6,1.3
			c-1,0.5-2,1.1-3,1.5s-1.7,1.1-2.8,1.1c-0.1,0-0.2,0.1-0.3,0.2c-1.4,1-2.9,1.9-4.4,2.5c-1.4,0.7-2.9,1.4-4.3,2.1
			c-2.6,1.4-5.3,2.6-7.9,4.1c-0.7,0.1-1.3,0.5-1.7,1.1c-1,0.8-1.8,1.8-2.3,2.9c-0.4,1-1,1.8-1.8,2.5c-1.2,1.2-2.4,2.5-3.7,3.7
			c-0.4,0.5-1,1-1.5,1.4c-0.8,0.5-1.6,0.9-1.8,1.9c-0.8,0.7-0.4,1.7-0.8,2.6c-0.8,0.1-1.6-0.1-2.2-0.6c-0.2-0.2-0.6-0.1-0.9,0.1
			c-0.5,0.4-0.9,1-1.6,1.1s-1.1,1.2-1.9,1.3c-0.5,0-1.1,0-1.6,0c-0.9-0.1-1.7,0.2-2.4,0.7h-0.7c-0.9-0.1-1.8,0.1-2.6,0.6
			c-0.2,0.2-0.6,0.1-1,0.1c-0.6-0.1-1.2,0.1-1.6,0.5c-0.3,0.2-0.7,0.3-1,0.2C132.5,193.9,132,193.9,131.4,193.9z"/>
		<path class="st0" d="M114,46.7c0.3-0.2,0.7-0.4,0.7-0.6c0.2-1.6,1.2-2.9,1.9-4.3c0.5-1.2,1.1-2.3,1.8-3.3c0.7-1.1,1.4-2.1,2.3-3
			c0.2-0.2,0.3-0.6,0.5-0.9c0.2-0.3,0.6-0.7,0.8-1.1c0.6-0.8,1.6-0.9,2.2-1.6c0.6-0.7,1.3-1.2,2-1.9c0.1-0.1,0.2-0.2,0.3-0.2
			c1,0.2,1.7-0.7,2.6-0.7c0.9,0,1.6-0.1,2.4-0.1c0.5,0,0.9-0.1,1.3-0.3c0.3-0.2,0.6-0.3,1-0.3c0.9,0,1.8,0,2.8,0
			c0.6,0,1.1,0.4,1.6,0.5c0.9,0.1,1.8,0.3,2.6,0.6c0.7,0.3,1.6,0.3,2.2,0.8c0.8,0,1.6,0.4,2.1,1c0.5,0.4,1.1,0.8,1.8,1
			c1.6,0.6,2.9,1.8,4.4,2.6c0.5,0.3,0.9,0.7,1.3,1.1c0.2,0.3,0.3,0.6,0.3,0.9c0,0.3,0.1,0.7,0.3,1c1.1,1.4,2,3.1,3.1,4.5
			c0.6,0.8,0.9,1.8,1.6,2.6c0.6,0.8,1.1,1.7,1.5,2.7l0.6-0.8c0.3,0.2,0.4,0.6,0.4,0.9l0.1,12.7c-0.1,0.5,0,0.9,0.1,1.3
			c0.3,0.7,0.5,1.5,0.4,2.3c0,4.8,0,9.7,0,14.5c0.1,0.6,0,1.1-0.3,1.7c-0.3,0.4-0.3,0.9,0,1.3c0.1,0.3,0.3,0.7,0.2,1
			c-0.4,0.9-0.6,2-0.4,3c-0.1,3.1-0.1,6.2-0.1,9.3c0,0.6,0,1.1-0.2,1.7c-0.3,0.7-0.4,1.5-0.4,2.3c0,1.3,0,2.5-0.1,3.8
			c0,0.5,0,0.9-0.2,1.3c-0.4,0.8-0.5,1.8-0.5,2.7c0.1,0.7,0,1.3-0.2,2c-0.4,1.1-0.6,2.2-0.5,3.4c0,0.3-0.1,0.7-0.2,1
			c-0.4,0.7-0.5,1.5-0.5,2.3c0,1.2-0.9,2.1-0.7,3.3c0,0.2-0.1,0.5-0.2,0.7c-0.3,0.6-0.5,1.3-0.5,2c-0.1,0.7-0.6,1.3-0.6,1.9
			c0.1,1.1-0.8,1.9-0.8,3c0,0.6-0.1,1.1-0.3,1.7c-0.3,0.6-0.5,1.2-0.7,1.9c0,0.1-0.2,0.1-0.3,0.2c-1,0-2.1,0-3.1-0.1
			c-0.8-0.1-1.6,0.1-2.2,0.6c-0.2,0.1-0.4,0.1-0.6-0.1c-0.5-0.3-0.9-0.7-1.3-1.1s-1.1,0-1.6-0.4c-0.3-0.3-0.8-0.5-1.2-0.5
			c-1.3,0-2.5,0-3.8,0c0-1.3,0-2.5,0-3.8c0.1-0.6,0-1.1-0.1-1.7c-0.5-1.6-0.7-3.4-0.6-5.1c0-0.5-0.1-0.9-0.4-1.3
			c-0.1-0.2-0.2-0.4-0.2-0.6c0-1.9-0.2-3.9-0.7-5.8c-0.2-0.8-0.2-1.6-0.1-2.4c0.1-0.9-0.5-1.5-0.6-2.3s-0.1-1.6-0.1-2.4
			s-0.8-1.4-0.7-2.3c0.1-0.9-0.5-1.5-0.6-2.3s-0.1-1.6-0.1-2.4c0-0.2-0.1-0.4-0.2-0.6c-0.3-0.6-0.5-1.3-0.5-2
			c-0.3-0.6-0.4-1.3-0.6-1.9c0-1.3-1-2.3-0.8-3.7c0-0.2-0.1-0.4-0.2-0.6c-0.6-1.1-1.1-2.3-1.4-3.5c-0.3-1.2-0.9-2.3-1.2-3.5
			c-0.3-0.6-0.5-1.3-0.6-1.9c-0.1-0.8-0.8-1.4-0.8-2.2c-0.1-0.7-0.4-1.3-0.7-1.9c-0.3-0.7-0.8-1.4-1.1-2.1c-0.3-0.6-0.6-1.2-0.8-1.9
			c-0.1-0.7-0.6-1.2-0.7-1.9c-0.2-1.1-0.6-2.1-1.3-3c-1.5-2-2.3-4.4-3.5-6.6c0-0.7-0.3-1.3-0.8-1.8c-0.3-0.4-0.5-0.8-0.7-1.2
			c-0.9-1.7-2.2-3.2-2.9-5c-0.1-0.2-0.3-0.4-0.4-0.5c-0.7-1-1.4-2-2.1-3.1C114.1,47.2,114,47,114,46.7z"/>
		<path class="st0" d="M157,132.3c0-0.2,0-0.5,0.1-0.7c0.4-0.9,0.8-1.9,1.1-2.9c0.6-1,0.9-2.1,1-3.2c0-0.3,0.3-0.6,0.3-1
			c0.2-1.1,0.9-2.1,1-3.3s0.8-2.1,0.8-3.3c0-0.5,0.4-1,0.6-1.6c0.2-0.8,0-1.6,0.5-2.3s0.2-1.6,0.3-2.4c0-0.5,0.1-0.9,0.2-1.3
			c0.3-0.6,0.4-1.3,0.4-2c-0.1-0.9,0.1-1.8,0.5-2.7c0.1-0.3,0.2-0.7,0.2-1c0.1-1.6,0.1-3.2,0.2-4.8c0-0.5,0.1-0.9,0.2-1.3
			c0.2-0.5,0.4-1.1,0.4-1.7c0-1.7,0.1-3.4,0.1-5.2c-0.1-0.9,0.1-1.8,0.4-2.7c0.1-0.4,0.2-0.9,0.1-1.3c0.1-6.1,0.1-12.2,0.1-18.3
			c0-1.8,0-3.7,0-5.5c0.1-0.3,0.2-0.6,0.3-0.9c0.4,0.2,0.9,0.4,0.9,0.9c0,0.8,0.2,1.6,0.5,2.3c0.4,0.7,0.2,1.6,0.8,2.2
			c0.2,0.9,1,1.6,0.8,2.6c0.4,0.7,0.8,1.4,1.1,2.2c0.1,0.3,0.2,0.7,0.2,1c0,0.6,0.1,1.1,0.4,1.6c0.6,0.9,0,2.1,0.8,2.9
			c0.2,0.9,0.5,1.7,0.8,2.6c0.2,0.9,0.4,1.8,0.7,2.6c0.3,0.8,0.1,1.8,0.7,2.6c0.2,0.3,0,0.9,0.1,1.3s0.5,1,0.6,1.6s0.2,1.1,0.2,1.7
			c0.5,0.8,0.7,1.7,0.6,2.6c0,0.3,0,0.7,0,1c0,0.2,0.1,0.4,0.2,0.7c0.4,0.7,0.6,1.5,0.5,2.3s0.1,1.6,0.4,2.3c0.1,0.3,0.2,0.7,0.2,1
			c0,2,0.1,3.9,0.1,5.9v1c0,0.7,0.7,1.2,0.6,1.9c-0.1,0.7-0.1,1.4,0.2,2c0.1,0.2,0.4,0.2,0.6,0.3c0.2,0.7,0.1,1.4-0.2,2
			c-0.1,0.2-0.4,0.4-0.3,0.6c0.1,1.4-0.9,2.6-0.9,4c0,0.6-0.4,1-0.6,1.6s0,1.2-0.2,1.7c-0.3,0.7-0.5,1.5-0.6,2.3
			c0,0.8-0.6,1.4-0.8,2.3s-0.7,1.7-0.8,2.6c-0.5,0.6-0.3,1.6-0.8,2.2c-0.6,0.8-0.3,1.8-0.7,2.6c-0.4,0.8-0.8,1.6-1.1,2.5
			c-0.2,0.9-0.8,1.6-0.9,2.6h-0.4c-0.7,0.1-1.4-0.1-1.9-0.6c-0.7-0.8-1.4-1.5-2.2-2.2c-0.1-0.2-0.3-0.3-0.5-0.4
			c-0.9-0.4-1.7-1.1-2.8-1c-0.7,0-1.4,0-2.1,0c-0.8-0.8-1.6-1.6-2.4-2.3C157.5,132.5,157.2,132.4,157,132.3z"/>
		<path class="st0" d="M112.5,58c0.6,0.1,1,0.5,1.3,1c0.4,0.6,0.7,1.2,1,1.8c2.6,5.3,5.4,10.5,7.9,15.9c0.3,0.5,0.5,1,0.6,1.6
			c0.1,0.7,0.6,1.2,0.7,1.9c0.1,0.7,0.4,1.3,0.8,1.9c0.5,0.7,0.4,1.5,0.8,2.3c0.6,1.2,0.8,2.6,1.5,3.8c0.4,0.8,0.3,1.8,0.9,2.6
			c0,1.4,0.8,2.6,0.9,4c0.1,0.7,0.3,1.3,0.6,1.9c0.1,0.6,0,1.2,0.1,1.7s0.6,1.2,0.6,2s0.5,1.5,0.6,2.3c0.1,0.7,0.1,1.4,0.1,2.1
			c0.8,1.1,0.4,2.5,1,3.6c0.2,0.3,0.2,0.7,0.2,1c-0.1,1.5,0.1,3,0.7,4.4c0.1,0.3,0.1,0.7,0.1,1c0,0.7,0.1,1.4,0.4,2
			c0.1,0.3,0.2,0.7,0.2,1c0.1,1.1-0.1,2.3,0.6,3.3c0.1,0.8,0.1,1.6,0.1,2.4c0,1,0.2,2,0.4,3c0.3,1.2,0.4,2.5,0.1,3.8
			c-0.5-0.1-0.9,0.1-1.3,0.3c-0.4,0.4-1,0.4-1.4,0.1c0,0,0,0-0.1-0.1c-0.4-0.3-0.8-0.2-1.3-0.3c-0.3,0-0.6-0.3-0.7-0.6
			c0.2-0.1,0.3-0.3,0.5-0.4c0.1-0.1,0.1-0.2,0-0.3c-0.7-0.6-0.2-1.6-0.8-2.2c-0.2-0.3-0.3-0.6-0.3-1c0-0.8-0.3-1.6-0.6-2.3
			c-0.3-0.6-0.8-1.1-0.8-1.9c0.1-0.8-0.7-1.2-0.7-1.9c0-0.3-0.1-0.7-0.2-1c-0.4-1.2-0.8-2.3-1.3-3.5c-0.3-0.3-0.5-0.8-0.5-1.2
			c0.1-0.8-0.7-1.2-0.7-1.9s0-1.4,0-2.1c0-0.5-0.1-0.9-0.4-1.3c-0.5-0.9-0.9-1.8-1.3-2.8c-0.3-0.7-1-1.4-1-2.2s-0.8-1.4-0.8-2.2
			c0-0.5-0.2-0.9-0.4-1.3c-0.3-0.5-0.6-1-0.8-1.5c-0.1-0.6-0.3-1.1-0.5-1.6s-0.4-1.1-0.5-1.6s-0.6-1-0.6-1.6c0-0.6-0.4-1-0.6-1.6
			c-0.1-0.6-0.2-1.1-0.4-1.6c-0.2-0.2-0.2-0.4-0.3-0.6c-0.1-1-0.3-2-0.7-3c-0.2-1-1-1.8-0.9-2.9c-0.4-0.7-0.7-1.5-0.6-2.3
			c-0.1-0.5-0.4-1-0.6-1.6s-0.1-1.2-0.2-1.7c-0.2-0.5-0.4-1.1-0.5-1.6c0.1-0.9-0.1-1.9-0.6-2.6c-0.1-1,0-2.1-0.7-2.9
			c0-0.8,0-1.6,0-2.4c0-1.4,0-2.8-0.1-4.2c0-0.3-0.1-0.7-0.2-1c-0.2-0.4-0.4-0.8-0.4-1.3c-0.1-0.8-0.1-1.6,0-2.4
			C111.8,59.4,112.1,58.7,112.5,58z"/>
	</g>
	<g>
		<path d="M135.6,247.2c0.4-0.7,0.7-1.4,0.9-2.2c1.1-2.4,2.3-4.7,3.4-7.1c1.6-1.9,2.6-4.3,4.2-6.3c1.4-1.8,2.7-3.7,4-5.6
			c0.9-1.3,1.8-2.6,2.7-4c0.3-0.4,0.6-0.7,0.9-1c0.6-0.5,1.1-1.2,1.4-1.9c0.8-0.9,1.6-1.9,2.5-2.8c0.8-0.9,1.6-1.6,2.4-2.4
			c1-0.8,1.9-1.7,2.6-2.7c0.4-0.6,0.9-1.1,1.4-1.6s1-0.9,1.7-1.2c1-0.4,1.8-1,2.5-1.8c1.7-1.6,3.5-3,5.4-4.3
			c0.2-0.1,0.4-0.2,0.6-0.4c2.1-2.2,4.6-3.8,6.7-5.9c0.9-0.9,1.8-1.7,2.8-2.6c0.4-0.4,0.9-0.7,1.4-1c0.6-0.4,1.2-0.6,1.8-1.1
			c0.5-0.5,1-0.9,1.5-1.4c0.8-0.7,1.5-1.4,2.3-2.1c0.3-0.3,0.7-0.6,1.1-0.8c1.2-0.5,2.2-1.3,3.1-2.2c0.8-0.8,1.7-1.6,2.7-2.1
			c0.9-0.6,1.7-1.2,2.4-1.9c1.5-1.1,3.1-2,4.8-2.7c1.4-0.6,2.6-1.4,3.6-2.6c1.2-1.3,2.6-2.3,4.2-3c1.9-1,3.8-2.2,5.6-3.3
			c1-0.8,2.2-1.3,3.4-1.6c0.3-0.1,0.6-0.3,0.9-0.5c0.6-0.4,1.2-0.7,1.8-0.9c0.8-0.3,1.7-0.7,2.5-1.2c1.5-0.6,3-1.2,4.5-1.5
			c2-0.5,3.9-1.2,5.7-2.2c0.5-0.4,1-0.6,1.6-0.6c1.3,0.1,2.4-0.6,3.7-0.6l3.8-0.1c0.9,0,1.8,0.1,2.7,0.4c0.9,0.2,1.8,0.3,2.7,0.2
			c1.3-0.1,2.5,0.1,3.7,0.7c2.2,0,3.9,1.3,5.7,2.1c0.4,0.2,0.8,0.5,1.1,0.8c0.6,0.7,1.2,1.4,1.9,2c1.8,1.3,3.9,5,5.1,7.3
			c0.1,0.3,0.2,0.7,0.2,1c0.5,2.8,0.7,5.7,0.7,8.6c0,1.5,0.1,3-0.6,4.4c0.1,1.7-0.7,3.1-1,4.7c-0.3,1.3-0.7,2.6-1.3,3.9
			c-0.5,1.3-1.2,2.5-2,3.6c-0.8,1-1.1,2.3-2.3,3c-0.3,0.2-0.5,0.5-0.6,0.8c-0.5,1-1.4,1.8-2.4,2.3c-1.2,0.5-2.2,1.2-3.1,2.2
			c-0.5,0.6-1.2,1.1-1.9,1.4c-0.9,0.4-1.8,1-2.6,1.6c-0.5,0.4-1.2,0.7-1.9,0.8c-1.1,0.2-2.2,0.6-3.2,1.2c-0.8,0.5-1.6,0.8-2.5,1
			c-0.3,0-0.7,0.2-0.9,0.4c-1.4,1-2.9,1.8-4.5,2.5c-1.4,0.6-2.7,1.3-3.9,2.2c-0.7,0.6-1.9,0.3-2.5,1.2c-1.4,0.7-2.8,1.6-4.1,2.5
			c-0.4,0.3-0.8,0.5-1.2,0.6c-2.5,1.1-4.8,2.6-7.4,3.7c-1.5,0.5-2.8,1.6-3.7,3c-0.3,0.4-0.6,0.7-0.9,1c-1.5,1.4-2.7,3.1-3.7,4.9
			c-0.2,1.3-0.1,2.6-0.6,3.8c-0.1,0.4-0.2,0.9-0.2,1.4c-0.1,2.1,0,4.1-0.3,6.2c0,0.5,0,0.9,0.1,1.4c0.1,1.7,0.1,3.4,0.1,5.2
			c-0.1,1.2,0.1,2.3,0.5,3.4c0.3,2.6,0.3,5.3,0.1,7.9c-0.6,1-0.4,2.2-0.9,3.3c-0.1,0.2-0.3,0.4-0.3,0.6c0.1,1.8-1,3.2-1.6,4.8
			c-0.3,0.9-0.8,1.6-1.2,2.5c-0.9,1.9-2,3.6-3.5,5.1c-0.3,0.3-0.6,0.6-0.9,1c-1.6,2.1-3.4,4-5.5,5.6c-1,0.8-1.9,1.7-2.8,2.6
			c-0.7,0.7-1.6,1.3-2.5,1.8c-0.6,0.3-1.2,0.7-1.8,1.1c-0.5,0.3-1,0.6-1.6,0.7c-0.3,0-0.7,0.2-0.9,0.4c-1.9,1.6-4.3,2.2-6.3,3.4
			c-0.2,0.1-0.4,0.2-0.6,0.2c-1.3,0.1-2.5,0.3-3.7,0.6c-1.1,0-2.3,0.4-3.2,1.1c-0.4,0.2-0.8,0.4-1.3,0.5c-0.7,0.3-1.5,0.5-2.3,0.8
			s-1.3,0.5-1.9,0.7c-1.2,0.4-2.3,1-3.4,1.6c-0.7,0.3-1.4,0.7-2.2,1c-0.6,0.1-1.1,0.2-1.7,0.4c-0.9,0.5-1.8,1-2.6,1.6
			c-0.4,0.2-0.7,0.6-1.1,0.8c-1.1,0.5-2.3,1.1-3.3,1.8c-0.9,0.7-1.9,1.3-2.9,1.8c-0.4,0.2-0.8,0.5-1.1,0.8c-1.5,1.5-3,2.9-4.4,4.4
			c-0.8,0.8-1.2,1.9-2.1,2.7c-0.9,0.9-1.7,1.8-2.4,2.9c-0.6,1-1.3,1.9-1.9,2.8c-0.3,0.4-0.4,0.8-0.4,1.3c0,0.7-0.3,1.4-0.8,1.9
			c-0.6,0.6-0.8,1.4-0.7,2.2c0.2,2.3-0.1,4.6-0.1,6.9c0,0.5-0.2,0.9-0.5,1.3c-0.5,0.6-1.1,1.1-1.7,1.7c-1.3,0-2.7,0-4,0.1
			c-0.6,0-1.1-0.2-1.5-0.5c-0.4-0.2-0.9-0.3-1.3-0.2c-0.3-1.1-0.8-2.2-1.6-3c-0.2-0.3-0.3-0.6-0.3-0.9c-0.1-1.7,0-3.4,0.2-5.1
			c0.6-0.1,1.1-0.2,1.1-1s0-1.4,0.1-2c0.9-1.1,0.6-2.4,0.6-3.6c0-2.4,0.1-4.8,0-7.2c0-0.7,0.3-1.3,0.7-1.9v-11.4
			c-0.3-0.4-0.7-0.8-1.1-1.3c-0.1-0.2-0.2-0.4-0.3-0.6c0-0.7-0.2-1.4,0.3-2c0.3-0.4,0.4-0.8,0.4-1.3c0-1,0-2.1,0-3.1
			c0-0.3-0.1-0.7,0.2-1c0.4-0.6,0.6-1.2,0.5-1.9c0-1-0.2-2.1,0.6-2.9c0.1-1,0.2-2.1-0.8-2.8c-0.2-0.2-0.4-0.5-0.6-0.8
			c0-1.6,0-3,0-4.5c0-0.4,0.1-0.7,0.3-1c0.3-0.5,0.5-1,0.4-1.6c-0.1-0.3,0-0.7,0.2-1c0.5-0.7,0.6-1.5,0.5-2.3c0-0.7,0.2-1.4,0.6-1.9
			c0.1-0.2,0.1-0.4-0.1-0.6c-0.1-0.2-0.4-0.2-0.5-0.4c0-0.5,0-0.9,0-1.4c0.4,0,0.6-0.3,0.7-0.6c0-0.6,0.1-1.1,0.4-1.6
			c0.5-0.6,0.1-1.3,0.3-2c0.1-0.2,0.2-0.4,0.4-0.6c0.3-0.4,0.4-0.8,0.4-1.3c0.2-0.2,0.6-0.5,0.6-0.8c0-1.5,0.9-2.8,0.8-4.3
			c0.6-1,0.8-2.2,0.7-3.3l0,0c0.1,0,0.3-0.1,0.3-0.1c0.6-0.8,0.9-1.8,1-2.7c-0.1-0.5,0.1-0.9,0.4-1.3c0.7-0.7,1.1-1.7,1.1-2.7
			c0-0.3,0.2-0.6,0.4-0.9C135.5,248.1,135.6,247.6,135.6,247.2z"/>
		<path d="M129.5,495c0-0.2-0.1-0.5,0-0.7c0.5-0.9,0.7-2,0.6-3c-0.1-1.3-0.1-2.5,0-3.8c0-0.7-0.2-1.4-0.5-2c-0.6-0.9-0.9-1.9-1-2.9
			c0-0.3-0.1-0.7-0.4-0.9c-0.9-1.1-1.3-2.4-2.1-3.6s-1.6-2.2-2.4-3.4c-1.5-2.2-3.2-4.2-5.1-6.1c-0.5-0.5-1-0.9-1.6-1.3
			c-0.5-0.3-1-0.6-1.4-1c-0.7-0.6-1.4-1.2-2.2-1.6c-0.7-0.3-1.4-0.8-2-1.4c-0.9-0.8-2-1.5-3.2-2c-1.2-0.6-2.5-1.2-3.7-1.8
			c-1.5-0.8-3.2-1.1-4.7-2.1c-0.9-0.2-1.7-0.6-2.5-1.2c-0.9-0.5-1.9-0.9-2.9-1s-1.9-0.8-3-0.6c-0.1,0-0.2,0-0.3,0
			c-1.7-1-3.6-1.6-5.1-2.9c-0.7-0.6-1.5-1.1-2.3-1.5c-1.9-1-3.7-2.3-5.2-3.9c-1-0.9-2-1.9-2.9-3c-0.8-1.2-1.8-2-2.7-3.1
			c-1-1.3-1.9-2.6-2.9-3.9c-0.3-0.5-0.6-1-0.9-1.5c-0.5-0.9-0.9-1.8-1.3-2.8c-0.4-1.2-0.9-2.4-1.4-3.5c-0.6-1-0.9-2.1-0.9-3.3
			c0-0.2,0-0.5-0.1-0.7c-0.5-1-0.7-2.2-0.7-3.3c0-0.8-0.1-1.6-0.4-2.4c-0.3-1.1-0.3-2.3,0-3.4c0.2-0.8,0.4-1.6,0.4-2.4
			c0.1-2.8,0.2-5.5,0.2-8.3c0-0.6,0.1-1.1,0.3-1.7c0.1-0.3,0.1-0.7,0-1c-0.3-0.7-0.5-1.5-0.4-2.4c0-1.4-0.1-2.8,0-4.1
			c0.1-1.6-0.6-3.1-0.7-4.7c-0.4-1.1-0.9-2.1-1.5-3.1c-1.2-1.8-2.6-3.5-4.1-5.1c-0.4-0.4-0.9-0.7-1.4-1c-1.7-0.8-3.2-1.7-4.7-2.9
			c-0.6-0.5-1.3-0.4-1.9-0.8c-0.6-0.4-0.9-0.7-1.4-1c-0.1-0.1-0.2-0.1-0.3-0.1c-2.1-2-4.8-3-7.2-4.7c-0.5-0.3-1-0.6-1.5-0.8
			c-0.8-0.4-1.6-0.8-2.4-1.3c-1.7-1.1-3.5-2.1-5.4-3c-0.5-0.3-1-0.5-1.5-0.8c-0.7-0.2-1.3-0.4-1.9-0.7c-1-0.6-1.9-1.3-2.8-2
			c-0.7-0.5-1.4-1.1-2.1-1.8c-0.3-0.3-0.6-0.6-1-0.9c-1.7-1-3.1-2.4-4-4.2c-0.8-0.8-1.4-1.8-1.9-2.8c-1.2-1.7-1.9-3.6-2.2-5.7
			c-0.1-0.3-0.2-0.6-0.3-1c-1-3.3-2-6.6-1.8-10.1c0-0.6-0.7-1.3-0.1-1.9l0.1-2.1c0-0.7,0.1-1.4,0.1-2.1C13,330,13,329,13,328.1
			c0-0.3,0.1-0.7,0.2-1c0.6-0.9,1-1.8,1.3-2.8c0.4-0.8,0.8-1.6,1.3-2.3c0.4-0.7,1-1.3,1.5-1.9c0.8-0.8,1.6-1.7,2.2-2.6
			c0.3-0.5,0.7-0.9,1.2-1.2c0.8-0.6,1.7-1.1,2.6-1.6c1.2-0.6,2.6-0.7,3.9-1.3c0.6-0.1,1.1-0.2,1.7-0.2c1,0,2-0.1,3-0.5
			c0.3-0.1,0.7-0.2,1-0.2c0.5,0,0.9,0,1.4,0h3.8c0.9,0.6,2,0.4,3,0.6c0.3,0,0.7,0.2,0.9,0.4c1.4,1.2,3.3,1.6,4.9,2.4
			c1.3,0.3,2.6,0.8,3.8,1.5c1,0.5,2,1.1,3.1,1.4c1,0.5,2,1.1,3,1.7c1.4,0.6,2.6,1.4,3.7,2.4c0.8,0.7,1.6,1.3,2.5,1.7
			c1.2,0.5,2,1.5,3.1,2.1c0.6,0.3,1.1,0.8,1.4,1.5c0.6,1.1,1.6,2,2.8,2.5c1.5,0.7,2.8,1.5,4.1,2.5c0.2,0.1,0.4,0.2,0.6,0.4
			c0.8,0.8,1.6,1.6,2.5,2.3c0.9,0.7,1.7,1.5,2.5,2.4c0.3,0.3,0.6,0.8,1,0.9c1.7,0.7,2.7,2.1,3.9,3.3c1,1,2,1.9,3,2.9
			c1.4,1.3,3.1,2.4,4.1,4.1c0.2,0.3,0.4,0.5,0.7,0.8c0.7,0.8,1.4,1.5,2.2,2.1c0.9,0.6,1.2,1.6,2.1,2.2c0.5,0.3,0.8,0.8,1.3,1.1
			c1.7,1.2,3.2,2.6,4.6,4.1c0.7,0.8,1.5,1.4,2.4,1.9c0.6,0.4,1.1,0.9,1.5,1.4s0.7,1.2,1.2,1.6c2,2,3.6,4.2,5.4,6.2
			c0.6,0.5,1,1.2,1.2,2c0.1,0.3,0.3,0.6,0.5,0.9c0.7,0.8,1.3,1.6,1.8,2.5c0.8,1.4,1.6,2.8,2.5,4.1c1.3,2,2.4,4.1,3.7,6.2
			c0.6,1,1.2,2,1.7,3c0.6,0.9,1.1,2,1.5,3c1.5,3.1,2.7,6.3,3.8,9.5c0.2,0.3,0.3,0.7,0.3,1c0.1,0.9,0.4,1.8,0.8,2.6
			c0.2,0.4,0.5,0.8,0.5,1.2c0.1,2.2,1.4,4.1,1.6,6.3c0,0.6,0.5,1.3,0.5,2c0.1,1.7,0.4,3.4,1.1,5c0.1,0.2,0.2,0.4,0.2,0.6
			c0,1.6,0.8,3.1,0.8,4.7c0,1,0.1,2,0.5,3c0.1,0.4,0.2,0.9,0.2,1.4c0,0.9,0.2,1.8,0.5,2.7c0.4,1.2,0.2,2.5,0.8,3.7
			c0.1,0.3,0.1,0.7,0,1c-0.3,0.8-0.4,1.6-0.4,2.4s-0.1,0.8-0.9,2.2c0,1,0,2,0.2,3.1c0.1,0.8,0.4,1.5,0.5,2.3c0,0.7,0.1,1.3,0.3,2
			c0.3,0.9,0.4,1.8,0.4,2.7c0,1.6,0.1,3.2,0.1,4.8c0,0.5-0.3,0.9-0.8,1c-0.3,0.1-0.6,0.4-0.5,0.7v0.1c0.4,1.8,0.6,3.6,0.5,5.4
			c0,1.1,0,2.3,0,3.5c-0.2,0.1-0.4,0.2-0.5,0.4c-0.3,0.6-0.2,1.4,0.1,2c0.4,0.7,0.6,1.5,0.6,2.3c0,3,0,5.9,0,8.9
			c-0.1,0.7,0.1,1.4,0.5,1.9c0.1,0.3,0.2,0.7,0.2,1s-0.1,0.8,0.1,1c0.5,0.8,0.7,1.7,0.6,2.6c0,0.5,0.5,0.7,0.9,0.8
			c-0.2,0.8-0.3,1.6-0.3,2.4c0,0.9-0.3,1.8-0.8,2.5c-0.5,0.9-1.1,1.7-1.7,2.5c-0.1,0.1-0.2,0.1-0.3,0.1c-0.4,0-0.9,0-1.3,0.3
			c-0.6,0.6-1.5,0.6-2.1,0.1c-0.2-0.1-0.4-0.4-0.6-0.3c-1,0.2-1.6-0.5-2.3-1.1C130.4,495.6,130.1,495.1,129.5,495z"/>
		<path d="M150.2,380.2c0-0.7,0.1-1.4,0.3-2c0.1-0.3,0.2-0.7,0.3-1c0.2-0.9-0.1-1.8,0.4-2.7c0.3-0.8,0.4-1.6,0.4-2.4
			c0.2-1.5,0.6-2.9,1-4.3c0.6-1.5,0.9-3.1,1.1-4.7c0-0.2,0-0.5,0.2-0.7c0.7-1,0.5-2.2,0.9-3.3c0.5-0.9,0.8-1.9,0.9-2.9
			c0-0.4,0.1-0.7,0.3-1c0.6-1.1,1.1-2.3,1.4-3.5c1.1-3.1,2.5-6.1,3.9-9.1c0.4-0.7,0.8-1.4,1.3-2c1.8-2.8,3.6-5.5,5.6-8.2
			c0.7-0.9,1.3-1.9,1.9-2.8c0.5-1.1,1.3-2.2,2.2-3.1c1.4-2.5,3.5-4.2,5.4-6.2c0.9-1,1.9-2,2.9-3c0.6-0.7,1.3-1.3,2.2-1.7
			c0.4-0.2,0.8-0.5,1.1-0.8c1.4-1.5,3-2.8,4.8-3.9c1.4-1,2.6-2.2,3.9-3.4c0.9-0.8,1.7-1.6,2.5-2.4s1.6-1.6,2.6-2.2
			c0.9-0.5,1.4-1.6,2.5-1.8c0.7-0.6,1.4-1.2,2-1.9c1-1.1,2.2-2.1,3.5-2.8c0.4-0.2,0.8-0.5,1.1-0.8c1.1-1,2.3-2,3.5-2.7
			c0.5-0.3,0.9-0.7,1.3-1.1c1-0.9,2.2-1.7,3.4-2.3c0.7-0.4,1.5-0.7,2.2-1c0.8-0.4,1.6-0.9,2.2-1.6c1.1-1.5,2.9-2.3,4.3-3.4
			c2.2-0.9,4.1-2.5,6.2-3.6c0.6-0.3,1.2-0.6,1.9-0.8c1.2-0.4,2.3-1,3.4-1.6c1.3-0.6,2.7-1.2,4.1-1.7c1.1,0,1.9-0.6,2.9-0.9
			s1.9-0.8,2.8-1.3c0.8-0.4,1.7-0.7,2.6-0.7c2.8-0.1,5.5-0.1,8.3,0c2.4,0.2,4.7,0.7,7,1.5c1.1,0.4,2.1,0.9,3.1,1.5
			c0.2,0.1,0.4,0.3,0.5,0.4c1.1,1.1,2.3,2.2,3.4,3.5c0.7,0.9,1.3,1.9,1.9,2.9c0.4,0.7,0.8,1.4,1.1,2.1c0.2,0.3,0.3,0.7,0.3,1
			c0.1,0.9,0.2,1.8,0.4,2.7c0.4,2.4,0.4,4.8,0.2,7.2c0,0.7-0.6,1.2-0.6,2c0.1,0.5,0,0.9-0.1,1.4c-0.5,1-0.4,2.3-0.9,3.3
			c-0.4,0.8-0.3,1.6-0.7,2.3c-0.4,0.6-0.7,1.2-0.9,1.9c-0.3,1.3-1.7,1.9-1.8,3.3c-1.6,1.6-2.7,3.7-5,4.7c-0.3,0.1-0.6,0.4-0.8,0.6
			c-1.6,1.7-3.7,2.6-5.7,3.8c-0.6,0.4-1.4,0.3-2,0.6c-1.4,0.8-2.8,1.5-4.4,2c-0.2,0.1-0.4,0.2-0.6,0.4c-0.9,0.7-1.9,1.2-3,1.7
			c-1.5,0.6-2.9,1.4-4.2,2.3c-2.6,0.8-4.5,2.7-6.9,3.8s-4.5,2.3-6.7,3.4c-0.4,0.2-0.8,0.4-1.2,0.7c-2,1.8-3.7,3.8-5.1,6
			c-0.4,0.5-0.6,1-0.7,1.6c0,1.5-0.6,2.9-0.7,4.4c-0.2,3.9-0.2,7.8-0.1,11.7c0,0.5,0,0.9,0.1,1.4c0.5,2.7,0.7,5.5,0.5,8.2
			c0,0.8-0.5,1.5-0.6,2.3c-0.1,0.6-0.3,1.1-0.6,1.6c-0.2,0.7,0,1.4-0.4,2c-1.1,2.1-2.1,4.3-3.2,6.5c-0.2,0.3-0.4,0.6-0.6,0.8
			c-1,1.1-2,2.3-2.8,3.5c-2,2.2-4.2,4.3-6.4,6.2c-1.1,0.8-2.2,1.6-3.4,2.2c-1.3,0.8-2.6,1.3-3.9,2.2c-1.2,0.7-2.4,1.3-3.7,1.8
			c-0.3,0.2-0.6,0.3-0.9,0.4c-1.3-0.1-2.4,0.5-3.7,0.7c-0.7,0.1-1.4,0.3-1.9,0.6c-1.6,0.8-3.3,1.5-5.1,2.1c-0.9,0.2-1.8,0.5-2.6,1
			c-1,0.6-2.1,1-3.2,1.3c-0.6,0.2-1.3,0.5-1.9,0.9c-1.2,0.4-2.1,1.4-3.2,2c-1.1,0.4-2,1.1-2.9,1.8c-0.3,0.3-0.7,0.5-1.2,0.7
			c-1.1,0.6-2.1,1.4-3,2.3c-1.9,1.9-3.6,3.9-5.1,6c-0.4,0.5-0.7,0.9-1.1,1.3c-0.7,0.8-1.1,1.8-1.1,2.8c-0.2,0-0.5,0-0.7,0.1
			s-0.5,0.3-0.5,0.4c-0.1,1-0.4,2-1,2.8c-0.3,0.5-0.4,1-0.4,1.6c0,2.2,0,4.3,0,6.5c0,0.9-0.7,1.7-1.6,1.8c-0.3,0.1-0.6,0.1-0.9,0.2
			c-0.1,0-0.1,0.2-0.2,0.3l-0.7,0.2h-1.7c-0.9-0.2-1.7-0.6-2.3-1.2c-0.3-1.2-1.6-1.7-2.1-2.7c-0.1-1.7-0.1-1.6,0.5-3.6
			c0.2-0.5,0-1.1,0.4-1.6s0.2-1.3,0.3-2c0-0.2,0.1-0.4,0.3-0.6c0.3-0.4,0.4-0.8,0.4-1.3c0-2.5,0-5.1,0-7.6c0-0.7,0.2-1.4,0.6-1.9
			c0.2-0.4,0.2-0.9,0.1-1.3c0-0.1-0.3-0.3-0.5-0.4c-0.2-1.7,0.1-3.4,0-5.1c0-0.3,0.1-0.7,0.2-1c0.1-0.6,0.2-1.1,0.3-1.7
			c0.1-0.5,0-0.9-0.3-1.3c-0.8-0.8-1.2-2-1-3.1c0.1-1,0-2,0-3.1c0.2-0.1,0.4-0.2,0.5-0.4c0.1-0.1,0.1-0.2,0.1-0.3
			c0.1-1.3-0.4-2.8,0.6-4c0-1.3,0-2.5,0-3.8c0-0.1-0.1-0.2-0.2-0.3c-0.4-0.5-0.6-1.2-0.5-1.9C150.2,382.7,150.2,381.4,150.2,380.2z"
			/>
		<path d="M107.4,326.1c-0.4-0.7-0.7-1.5-0.7-2.3c0-2.3-0.1-4.6-0.1-6.9c-0.4-1.2-1.4-2.2-1.3-3.5c-0.5-1-1-2-1.7-3
			c-1.5-2.2-3.1-4.3-4.8-6.3c-0.9-1.1-1.9-2-2.9-2.9c-1-0.7-2.1-1.4-3.1-2.1s-2.4-1.4-3.4-2.3c-0.7-0.5-1.4-0.8-2.1-1.1
			c-1.4-0.7-2.9-1.3-4.3-2.1c-1-0.5-2.2-0.6-3.2-1.3c-0.9-0.1-1.8-0.4-2.5-1c-1.3-0.8-2.8-1.2-4.2-1.2c-0.7,0-1.4-0.2-2-0.5
			c-1.8-0.8-3.5-1.8-5-2.9c-1-0.7-2.1-1.4-3.3-1.9c-0.5-0.2-1-0.6-1.4-0.9c-2-2-4-3.8-5.8-5.9c-1.5-1.7-2.9-3.6-4.1-5.5
			c-1.1-1.9-1.9-3.9-2.7-5.9c-0.1-0.2-0.2-0.4-0.2-0.6c-0.1-0.9-0.3-1.8-0.6-2.7c-0.2-0.6-0.4-1.3-0.6-2c-0.1-0.8-0.2-1.6-0.1-2.4
			c0-2,0.1-3.9,0.1-5.9c0.8-1.6,0.4-3.4,0.5-5.1c0.2-1.6,0.2-3.2,0-4.8c0-0.5,0-0.9,0-1.4c0-1.3,0-2.5-0.1-3.8
			c-0.2-1.1-0.5-2.2-0.6-3.4c0-0.4-0.2-0.7-0.3-1c-1.2-2-2.5-3.8-4.1-5.6c-0.6-0.7-1.4-1.2-2.2-1.6c-1.6-0.7-3-1.7-4.5-2.5
			c-1.5-0.8-3-1.8-4.4-2.7c-0.4-0.3-0.8-0.5-1.2-0.7c-2.4-1.2-4.5-2.7-6.9-3.8c-0.5-0.2-1-0.5-1.5-0.9c-0.6-0.6-1.3-0.9-2.1-1
			c-1.5-0.9-3.1-1.4-4.6-2.2c-1.8-0.8-3.4-2-4.8-3.4c-0.4-0.4-0.9-0.8-1.4-1c-0.9-0.4-1.8-1.1-2.3-2c-0.7-0.9-1.4-1.8-2-2.8
			c-0.9-1.5-1.7-3-2.4-4.5c-0.1-0.3-0.2-0.7-0.2-1c0-1.4-1-2.6-0.9-4c-0.4-0.7-0.6-1.5-0.6-2.3c0-0.6,0-1.1-0.2-1.7
			c-0.5-1.1-0.6-2-0.5-3c0-1.2-0.2-2.5,0.5-3.7c0.1-0.3,0.1-0.7,0.1-1c0-0.9,0-1.8,0.2-2.8c0.3-1,0.8-1.9,1.3-2.8
			c0.5-0.9,1-1.8,1.6-2.7c0.3-0.6,0.8-1.1,1.4-1.5s1-0.9,1.3-1.6c0.5-0.8,1.2-1.4,2-1.8c2-1,4.2-1.8,6.4-2.1c3-0.6,6.2-0.7,9.2-0.5
			c0.7,0,1.4,0.2,2,0.5c1,0.5,2.1,0.9,3.1,1.4c0.6,0.3,1.2,0.6,1.9,0.8c3.8,1,7.2,3,10.6,4.8c0.6,0.3,1.2,0.7,1.7,1.1
			c0.4,0.4,0.9,0.7,1.4,1c1.6,0.7,2.9,1.9,4.3,2.8c0.5,0.3,0.9,0.7,1.2,1.2c0.3,0.7,0.9,1.3,1.7,1.7c0.7,0.4,1.4,0.8,2.1,1.1
			c1.3,0.7,2.6,1.5,3.7,2.5c0.7,0.6,1.4,1.2,2.1,1.8c0.5,0.3,0.9,0.7,1.3,1.1c0.5,0.7,1.1,1.2,1.8,1.6c1.4,0.8,2.6,1.9,3.5,3.2
			c0.2,0.4,0.6,0.8,1,1c1.6,1.1,3.1,2.4,4.4,3.9c1.1,1.2,2.2,2.3,3.5,3.3c0.9,1.1,1.9,2,3,2.8s2.1,1.8,3.2,2.7
			c0.2,0.1,0.4,0.3,0.5,0.4c0.6,1,1.5,1.7,2.6,2.2c0.4,0.2,0.7,0.5,1,0.9c0.5,0.7,1,1.3,1.5,1.9c1.6,1.6,3.1,3.4,4.6,5.2
			c0.3,0.4,0.6,0.7,0.9,1c0.2,0.2,0.3,0.4,0.4,0.6c0.2,1.1,1.4,1.5,1.7,2.6c1.7,2.8,3.6,5.6,5.3,8.4c0.6,0.7,1.1,1.5,1.5,2.3
			c0.4,0.9,1,1.8,1.6,2.6c0.6,0.6,0.5,1.5,0.9,2.2c0.8,1.5,1.5,3.1,2,4.7c0.6,1.6,1.3,3.2,1.7,4.8c0.2,0.4,0.3,0.8,0.6,1.2
			c0.3,0.5,0.5,1,0.6,1.6c0.2,1.1,0.4,2.2,0.8,3.3c0.1,0.9,0.3,1.8,0.6,2.7c0.5,1,0.1,2.3,0.6,3.4c0.4,1.1,0.8,2.2,1,3.3
			c0,0.2,0,0.5,0,0.7c0,1-0.2,2.1,0.5,3c0.1,0.2,0.2,0.4,0.2,0.6c0,1,0,2.1,0,3.1c0,0.2,0.1,0.4,0.2,0.6c0.4,0.5,0.5,1,0.5,1.6
			c-0.1,0.6,0.1,1.2,0.5,1.6c0.2,0.3,0.3,0.7,0.2,1c0,1,0,2.1,0,3.2c-0.3,0.3-0.5,0.7-0.9,1c-0.6,0.6-0.7,1.5-0.2,2.2
			c0.2,0.3,0.3,0.6,0.4,0.9c0.1,1.1,0,2.3,0,3.4c0.4,0.6,0.7,1.2,0.7,1.9c-0.1,1.7,0,3.5,0,5.2c0,0.3-0.1,0.7-0.3,1
			c-0.2,0.4-0.4,0.8-0.4,1.3c0,6.2,0,12.4,0,18.6c0,0.6,0.1,0.7,1.1,1c0.1,0.2,0.1,0.4,0.2,0.6c0,2-0.2,4.1,0.7,6
			c0.2,1.2,0.1,2.5-0.2,3.7c-0.6,0-1.1,0.3-1.4,0.8c-0.2,0.4-0.4,0.8-0.7,1.1c-0.4,0.3-0.8,0.5-1.2,0.6c-0.7,0.4-1.6,0.4-2.3,0
			C108.9,326.2,108.1,326,107.4,326.1z"/>
		<path d="M107.4,326.1c0.8,0,1.6,0.1,2.3,0.5c0.7,0.4,1.6,0.4,2.3,0c0.4-0.2,0.8-0.4,1.2-0.6c0.3-0.4,0.5-0.7,0.7-1.1
			c0.3-0.5,0.8-0.8,1.4-0.8c0.1,0.2,0.2,0.4,0.2,0.6c0.1,0.8,0.1,1.6,0.1,2.4c-0.1,1,0.6,1.8,0.6,2.6c0,1.3,0.6,2.5,0.7,3.7
			s1,2.6,0.8,4c0.4,0.7,0.7,1.5,0.7,2.3c0.1,0.9,0.7,1.7,0.7,2.6c0,0.4,0.5,0.8,0.5,1.2c0.2,0.9,0.4,1.8,0.7,2.6
			c0.3,1,0.7,1.9,1.2,2.8c0.5,1,0.9,2.1,1.2,3.2c0.5,1.5,1.1,3,1.8,4.4c-0.1,1,0.6,1.7,0.8,2.6c0.3,1,0.7,1.9,1.2,2.8
			c0.2,0.5,0.5,1,0.7,1.6c0.7,2,1.7,4,2.8,5.8c1.7,2.4,3.1,5,4.4,7.7c0.4,1,1,2,1.4,3.1c0.5,1,1.1,2,1.7,3c1,1.8,2.3,3.4,3.3,5.2
			c1.4,1.1,1.8,2.8,2.4,4.4c0.1,0.3,0.2,0.7,0.3,1c0.5,0.9,0.9,1.9,1.1,2.8c0.4,1,0.9,2,1.4,3c0.3,0.5,0.5,1,0.6,1.6
			c0.4,1.4,1,2.8,1.4,4.2c0.6,1.3,1.1,2.7,1.6,4.1c0,0.1,0.4,0.2,0.6,0.2s0.5,0.3,0.5,0.4c0.1,0.4,0.1,0.9-0.1,1.3
			c-0.4,0.6-0.6,1.2-0.6,1.9c0,2.5,0,5.1,0,7.6c0,0.5-0.1,0.9-0.4,1.3c-0.1,0.2-0.2,0.4-0.3,0.6c-0.1,0.7,0.2,1.4-0.3,2
			s-0.3,1.1-0.4,1.6c-0.6,1.9-0.7,1.9-0.5,3.6c0.5,1,1.8,1.5,2.1,2.7c0.7,0.6,1.5,1,2.3,1.2h1.7c-0.2,0.6-0.8,1.1-0.7,1.9
			c0,0.9,0,1.8-0.1,2.8c0.1,1.1-0.1,2.3-0.5,3.4c-0.2,0.7-0.2,1.4-0.2,2c0.1,1.1,0,2.3-0.3,3.4c-0.4,1-0.3,2-0.7,3
			c-0.2,0.4-0.3,0.9-0.3,1.3c-0.1,0.9-0.3,1.8-0.6,2.7c-0.3,0.8-0.1,1.8-0.7,2.6c-0.2,2.3-1.5,4.3-1.6,6.6c-0.8,1.1-0.7,2.4-1.1,3.6
			s-0.9,2.1-1.3,3.2c-0.2,0.6-0.4,1.3-0.6,1.9s-0.6,1.2-0.9,1.9c-0.1,0.3-0.2,0.7-0.2,1c0,0.6,0,1.2-0.1,1.7c-0.3,0.5-0.4,1-0.6,1.6
			c-0.1,0.8-0.8,1.4-0.7,2.3c0.1,0.9-0.4,1.5-0.6,2.3s-0.6,1.5-0.7,2.3c-0.1,0.9-0.9,1.6-0.8,2.6c-0.3,0.5-0.4,1.1-1,1.4
			c-0.5-0.1-0.9-0.2-0.9-0.8c0.1-0.9-0.1-1.8-0.7-2.6c-0.2-0.2,0-0.7-0.1-1c0-0.3,0-0.7-0.2-1c-0.4-0.6-0.6-1.2-0.5-1.9
			c0-3,0-5.9,0-8.9c0.1-0.8-0.1-1.6-0.6-2.3c-0.3-0.6-0.3-1.4-0.1-2c0-0.2,0.3-0.3,0.5-0.4s0.5,0,0.6-0.2c0.6-1,1.1-2,1.5-3.1
			c0.2-0.6,0.2-1.4,0.4-2c0.5-1.4,0.9-2.8,1.4-4.2c0.2-0.4,0.3-0.9,0.4-1.3c0.2-1.5,0.5-2.9,1.1-4.3c0.2-0.5,0.3-1.1,0.4-1.7
			c0-0.3,0.1-0.7,0.2-1c0.4-0.7,0.5-1.5,0.5-2.3s0.1-1.6,0.4-2.4c0.2-0.4,0.2-0.9,0.2-1.3c0-0.7,0.1-1.4,0.4-2
			c0.2-0.4,0.2-0.9,0.2-1.3c0.1-4.1,0.3-8.3,0.1-12.5c0-0.9,0-1.8,0-2.8c-0.8-1.6-0.5-3.4-0.7-5.1c-0.1-0.5-0.2-0.9-0.4-1.3
			c-0.5-1.4-0.8-2.9-1.4-4.2c-0.4-0.9-0.1-2.1-0.8-3c-0.1-0.8-0.6-1.5-0.7-2.3c-0.2-0.9-0.7-1.7-0.8-2.6s-0.8-1.4-0.7-2.3
			c0-0.3-0.3-0.6-0.4-0.9c-0.4-1-0.8-1.9-1.1-2.9c-0.5-1.4-1-2.8-1.7-4.1c-0.5-0.8-0.8-1.6-1-2.5c-0.1-0.4-0.4-0.8-0.7-1.2
			c-1-1.4-1.9-2.8-2.7-4.4c-0.1-0.2-0.2-0.4-0.4-0.6c-2.2-2.6-3.3-5.7-4.9-8.6c-0.2-0.4-0.2-0.9-0.4-1.3c-0.8-1.6-1.5-3.4-2.9-4.6
			c-0.7-0.6-1.1-1.5-1.3-2.3c-0.5-1.2-1-2.3-1.7-3.4c-1.7-3.4-3.1-6.8-4.3-10.4c0-0.1,0-0.2-0.1-0.3c-0.3-1.2-1.1-2.2-1.4-3.5
			c-0.3-1.2-0.7-2.4-1.3-3.5c-0.7-1.4-1-3-1.8-4.4c-0.2-0.3-0.3-0.6-0.3-1c-0.1-0.8-0.3-1.6-0.7-2.3c-0.2-0.6,0-1.4-0.4-2
			c-0.4-0.6-0.2-1.6-0.5-2.3c-0.3-0.9-0.6-1.7-0.8-2.6c-0.2-0.3-0.3-0.6-0.3-1c0.2-1.5-0.8-2.9-0.8-4.4
			C107.4,329.4,107.2,327.7,107.4,326.1z"/>
		<path d="M155,433.9c0.1-0.1,0.1-0.2,0.2-0.3c0.3-0.1,0.6-0.2,0.9-0.2c0.9,0,1.7-0.8,1.6-1.8c0-2.2,0-4.3,0-6.5
			c0-0.6,0.2-1.1,0.4-1.6c0.6-0.8,0.9-1.8,1-2.8c0-0.1,0.3-0.3,0.5-0.4s0.4-0.1,0.7-0.1c0.5,0.7,0.7,1.4,0.8,2.2
			c-0.1,0.9,0,1.9,0.1,2.8c-0.1,1,0.1,2.1,0.4,3c0.1,0.4,0.2,0.9,0.1,1.4c0,2,0,3.9,0.1,5.9c0.1,1.6-0.2,3.2,0.6,4.8
			c0.1,0.4,0.2,0.9,0.1,1.4c0,2.6,0,5.3-0.2,8c-0.1,0.9-0.3,1.8-0.7,2.6c-0.3,0.7-0.5,1.5-0.5,2.3s-0.1,1.6-0.2,2.4
			c-0.6,0.9-0.3,2.1-0.8,3s-0.5,2.2-1.1,3.2c-0.5,0.8-0.8,1.7-0.7,2.6c0.1,1-0.2,2.1-0.7,3c-0.4,0.8-0.7,1.7-0.8,2.6
			c-0.1,0.5-0.5,1-0.6,1.6s-0.3,1.1-0.5,1.6s-0.3,1.1-0.5,1.6s-0.4,1.1-0.5,1.6c-0.1,0.3-0.3,0.6-0.6,0.9c-0.5,0.5-0.7,1.2-0.7,1.9
			c0,0.6-0.2,1.1-0.5,1.6c-0.2,0.5-0.3,1.1-0.5,1.6c-0.1,0.3-0.2,0.6-0.3,1c-0.5,2.3-1.2,4.6-2.2,6.8c-0.4,0.7-0.6,1.5-0.8,2.2
			c-0.1,0.6-1,0.9-1,1.7c0.6,0.3,1.2,0.7,1.8,1c0.4,0.2,0.7,0.6,0.7,1.1c0,0.7,0.1,1.4,0.5,2c0.1,0.2,0.1,0.4,0,0.6
			c-0.9,1.4-1.2,3-1.9,4.4c-0.5,1-1.2,2-1.9,2.9c-0.7,1.1-1.4,2.1-2.2,3.1c-0.8,0.9-1.5,2-2.1,3.1c-0.6,1.4-1.5,2.6-2.6,3.6
			c-0.5,0.5-0.9,1.1-1.1,1.7c-0.4,1-0.9,1.8-1.4,2.8c-0.2,0.5-0.5,1-0.9,1.5c-0.7,0.6-1.1,1.5-1.2,2.4c-0.4,0.7-0.7,1.5-0.7,2.3
			c0,0.3-0.1,0.7-0.3,0.9c-0.5,0.6-0.9,1.3-1.2,2.1c-0.2,0.3-0.3,0.6-0.4,0.9c-0.1,0.9-0.3,1.8-0.6,2.7c-0.1,0.8-0.3,1.6-0.6,2.3
			c-0.1,0.2-0.1,0.4-0.1,0.7c0.1,1.5-0.1,3-0.6,4.4c-0.1,0.4-0.1,0.9-0.1,1.4c0.1,0.9-0.1,1.8-0.5,2.7c-0.2,0.4-0.3,0.9-0.2,1.3
			c-0.1,3.5,0,6.9,0.1,10.4c0,0.3,0.1,0.7,0.2,1c0.2,0.5,0.3,1.1,0.3,1.7c0,1.8,0,3.7,0.1,5.5c-0.1,1,0.1,2.1,0.5,3
			c0.1,0.3,0.2,0.7,0.1,1c0,1.5,0.3,3,1.1,4.3c0.2,0.3,0.3,0.6,0.3,1c0.1,0.5,0.1,0.9,0.1,1.4c0,1.1,0.2,2.3,0.7,3.3
			c0.3,0.6,0.5,1.3,0.6,2c0.1,1.5,0.4,3,0.9,4.4c0.2,0.5,0.4,1.1,0.4,1.6c-0.1,0.8,0,1.6,0.2,2.4c0.2,0.8,0.4,1.5,0.6,2.3
			c0.2,1,0.6,1.9,0.9,2.9c0.5,1.5,0.9,3,1.2,4.6c0.2,1.2,0.5,2.4,0.9,3.6c0.2,0.4,0.3,0.9,0.4,1.3c0.1,0.7,0.3,1.4,0.6,2
			c0.5,0.8,0.8,1.7,0.9,2.6c0.5,0.7,0.7,1.5,0.7,2.3c0,0.5,0.2,0.9,0.5,1.3c0.3,0.8,0.6,1.5,1,2.2c0.6,0.8,0.4,1.8,0.9,2.6
			c0.3,0.7,0.6,1.5,0.8,2.2c0.1,0.8,0.4,1.6,0.8,2.3c0.1,1.9,1.1,3.5,1.5,5.2c0.1,0.4,0.3,0.9,0.5,1.3c0.2,0.4,0.3,0.9,0.3,1.3
			c0.1,0.7-0.3,1.4-0.9,1.7c-0.6,0.3-1.3,0.4-2,0.2c-0.3-0.1-0.6-0.3-0.8-0.6c-0.6-1.1-1.2-2.2-1.8-3.3c0-1.6-1.2-2.7-1.5-4.2
			s-0.9-2.8-1.4-4.2c-0.1-0.4-0.4-0.8-0.6-1.2c-1-1.9-1.7-4-2.2-6.1c-0.6-1.2-0.8-2.6-1.6-3.8c-0.4-0.6-0.2-1.4-0.6-2
			c-0.3-0.6-0.5-1.3-0.5-2c-0.1-0.7-0.5-1.3-0.6-1.9c-0.1-0.7-0.2-1.3-0.4-2c-0.2-0.8-0.3-1.5-0.6-2.3c-0.4-0.7-0.3-1.6-0.7-2.3
			s-0.4-1.5-0.8-2.3c-0.2-0.4-0.3-0.9-0.3-1.3c-0.1-0.8-0.2-1.6-0.5-2.3s-0.1-1.6-0.3-2.4c-0.4-1.1-0.7-2.2-0.8-3.3
			c-0.1-1-0.8-1.9-0.7-3c-0.6-0.9-0.8-2-0.7-3c0.1-0.9-0.2-1.8-0.7-2.6c-0.5-0.8-0.7-1.7-0.7-2.6c0-0.5-0.1-0.9-0.2-1.3
			c-0.2-0.5-0.4-1.1-0.4-1.7c0-1-0.1-2-0.5-3c-0.1-0.4-0.2-0.9-0.1-1.4c0-1.6-0.1-3.2-0.1-4.8c0.1-0.9-0.1-1.8-0.4-2.7
			c-0.1-0.3-0.2-0.7-0.1-1c0-3.3,0-6.7-0.1-10c0-0.7,0.1-1.4,0.5-2c0.5-0.9,0.1-2.1,0.8-3c0-0.6,0.1-1.2,0.1-1.7
			c-0.2-1.3,0.1-2.5,0.6-3.7c0.1-0.2,0.1-0.4,0.1-0.7c0-1,0.2-2.1,0.6-3c0.1-1,0.3-2,0.7-3c0-0.1,0-0.2,0.1-0.3
			c0.3-1.2,1.2-2.2,1.5-3.5c0.3-1.2,0.7-2.4,1.2-3.5c0.2-0.7,0.5-1.3,0.9-1.8c0.9-1.2,1.6-2.5,2.2-3.8c0.3-0.7,0.8-1.4,1.3-2
			c1.6-2,3-4,4.2-6.2c0.5-0.8,1-1.6,1.5-2.3c1-1.2,1.9-2.6,2.9-3.9c0.2-0.2-0.1-0.8-0.4-0.8c-0.7,0-1.4-0.1-2.1-0.1
			c-0.8-0.1-1.4-0.8-1.5-1.6c0-0.7,0.1-1.4,0.2-2c0.6-0.8,0.5-2,1.2-2.8c1-1.4,1.7-3,2.7-4.4c0.1-1.6,1.5-2.9,1.6-4.5
			c0.7-1.3,1.1-2.8,1.3-4.2c0.2-0.7,0.4-1.3,0.7-1.9c0.4-0.7,0.6-1.5,0.7-2.3c0-0.4,0.1-0.7,0.3-1c0.4-0.9,0.8-1.9,1.3-2.8
			c0.3-0.4,0.4-0.8,0.4-1.3c0-1.1,0.3-2.3,0.9-3.3c0.1-0.3,0.4-0.6,0.4-0.9c0-1,0.7-1.7,0.8-2.6c0.1-0.4,0.2-0.9,0.4-1.3
			c0-0.1,0.1-0.2,0.1-0.3c-0.1-1.2,0.2-2.3,0.7-3.3c0-1.1,0.8-1.9,0.8-3c0.6-0.9,0.4-2,0.8-3c0.3-1,0.5-2,0.5-3
			c0-0.6,0.1-1.1,0.4-1.6c0.2-0.3,0.3-0.6,0.3-1c0.2-3.1,0.2-6.2,0-9.3c-0.1-0.9,0.1-1.9-0.5-2.7c-0.1-1-0.1-2.1-0.2-3.1
			c-0.1-0.4-0.4-0.6-0.7-0.6C155.4,434,155.2,434,155,433.9z"/>
		<path d="M129.5,495c0.6,0.1,0.9,0.6,1.3,1c0.6,0.6,1.2,1.3,2.3,1.1c0.2,0,0.4,0.2,0.6,0.3c0.6,0.5,1.5,0.4,2.1-0.1
			c0.4-0.3,0.8-0.2,1.3-0.3c0,0.3-0.1,0.7-0.2,1c-0.3,0.5-0.9,0.9-1,1.4c-0.3,1.5-1.3,2.7-1.6,4.1c0,0.1,0,0.2-0.1,0.3
			c-1.1,2.4-2,4.8-2.7,7.3c-0.3,0.8-0.6,1.5-1,2.2s-1,1-1.1,1.7c-0.2,0.8-0.5,1.5-0.9,2.2c-0.3,0.6-0.4,1.3-0.6,2
			c-0.4,1.1-1,2-1.4,3.1c-0.2,1.1-0.6,2.2-1.1,3.2c-0.3,0.5-0.3,1.1-0.5,1.6c-0.5,1-0.9,2.1-1.1,3.2c-0.1,1.1-0.8,2.2-0.7,3.3
			c0.1,0.9-0.7,1.7-0.6,2.7c0,0.8-0.1,1.6-0.4,2.3c-0.2,0.7-0.2,1.3-0.2,2c-0.2,1.5,0.1,3-0.6,4.4c0,0.8,0,1.6-0.1,2.4
			c-0.2,1.5,0.2,3-0.5,4.4c-0.1,0.3-0.1,0.7-0.1,1v11.4c0,0.2,0,0.5,0.1,0.7c0.4,0.8,0.5,1.8,0.4,2.7c0.1,1.5-0.2,3,0.6,4.4
			c0.1,0.3,0.1,0.7,0.1,1c-0.1,1.2,0.1,2.4,0.5,3.5c0.5,1,0.1,2.1,0.7,3c0.2,0.3,0.2,0.7,0.2,1c0,0.9,0.2,1.8,0.6,2.7
			c0.5,0.9,0,2.1,0.6,3c0.6,0.9,0.2,1.8,0.9,2.6c0.1,0.2,0.1,0.4,0.1,0.7c0,1,0.2,2.1,0.7,3c0.1,1,0.3,2,0.7,3
			c0.1,0.8,0.3,1.6,0.6,2.3c0.3,0.6,0.1,1.4,0.4,2c0.3,0.6,0.4,1.6,0.7,2.3c0.3,0.4,0.4,0.8,0.4,1.3c0.1,1.1,0.3,2.3,0.7,3.3
			c0.3,1,0.6,2,0.8,3c0.1,1,0.7,1.9,0.7,3c0,0.7,0.5,1.2,0.6,2c0.4,1.5,0.7,3.1,0.8,4.7c0.4,0.9,0.6,2,0.7,3
			c0.9,1.4,0.3,3.2,1.2,4.6c0.1,1.5,0.1,3,0.1,4.5c0,0.1-0.1,0.2-0.1,0.3c-0.2,0-0.4-0.1-0.6-0.2c-0.9-0.8-1.7-1.6-2.5-2.4
			c-1.7-1.4-3-3.2-3.8-5.2c-0.2-0.5-0.5-1-0.8-1.5c-0.7-0.6-1.1-1.5-1.1-2.4c0-0.3-0.3-0.6-0.5-0.9c-0.6-1-1.1-2-1.4-3.1
			c-0.3-1-0.5-2-0.7-3c-0.2-1-0.5-2-0.8-3c-0.3-1.1-0.9-2.1-0.7-3.3c0-0.5-0.3-0.9-0.4-1.3c-0.2-1.2-1-2.3-1-3.6
			c-0.1-0.4-0.2-0.9-0.4-1.3c-0.5-1.4-0.9-2.9-0.9-4.3c0-1.3-0.8-2.4-0.9-3.6c-0.5-0.7-0.2-1.6-0.5-2.3c-0.4-0.7-0.6-1.5-0.7-2.3
			c0-0.7-0.4-1.3-0.5-2c0-0.7-0.2-1.4-0.5-2c-0.1-0.3-0.2-0.7-0.2-1c0-0.9-0.2-1.8-0.6-2.7c-0.3-0.6-0.1-1.4-0.3-2
			c-0.3-0.6-0.5-1.3-0.6-2c0-0.7,0-1.4,0-2.1c0-0.9,0-1.8-0.1-2.8c-0.9-1.6-0.5-3.4-0.6-5.1c0-0.5,0-0.9-0.2-1.4
			c-0.3-0.9-0.5-1.8-0.4-2.7c0-2.6-0.1-5.3-0.1-7.9c-0.1-0.8,0.1-1.6,0.4-2.3c0.1-0.2,0.2-0.4,0.1-0.7c0-2.2,0.1-4.4,0.1-6.6
			c0-0.6,0.1-1.1,0.4-1.7c0.1-0.3,0.2-0.7,0.2-1c0.1-1,0.1-2.1,0.2-3.1c0.4-0.9,0.6-2,0.6-3c0.2-0.7,0.4-1.3,0.6-2
			c0.2-0.8,0-1.6,0.4-2.4c0.3-0.6,0.4-1.3,0.4-2c0-0.8,0.8-1.4,0.7-2.3s0.5-1.7,0.7-2.6c0.2-0.8,0.5-1.5,0.9-2.2
			c0.1-0.2,0.2-0.4,0.3-0.6c0-1,0.3-2,0.8-2.9c0.6-0.9,0.6-1.9,1.1-2.9s0.5-2,1.3-2.8c0.4-1.3,1-2.5,1.7-3.7s0.9-2.6,1.5-3.8
			c0-1,0.8-1.6,0.8-2.6s0.9-1.6,1.1-2.5c0.5-2,1.7-3.8,2.5-5.6C129,495.2,129.3,495.1,129.5,495z"/>
		<path d="M114.6,313.7c-1-0.3-1.1-0.4-1.1-1c0-6.2,0-12.4,0-18.6c0-0.5,0.2-0.9,0.4-1.3c0.2-0.3,0.3-0.6,0.3-1c0-1.7,0-3.5,0-5.2
			c0-0.7-0.3-1.4-0.7-1.9c0-1.1,0-2.3,0-3.4c-0.1-0.3-0.2-0.6-0.4-0.9c-0.5-0.7-0.4-1.6,0.2-2.2c0.3-0.3,0.6-0.7,0.9-1
			c0-1.1,0-2.1,0-3.2c0.1-0.3,0-0.7-0.2-1c-0.4-0.4-0.5-1-0.5-1.6s-0.1-1.1-0.5-1.6c-0.1-0.2-0.2-0.4-0.2-0.6c0-1,0-2.1,0-3.1
			c0-0.2-0.1-0.4-0.2-0.6c-0.7-0.9-0.4-2-0.5-3c0.2-0.1,0.5-0.2,0.5-0.3c0.1-0.8,0.2-1.6,0.3-2.4c0.9-1.4,0.3-3.2,1.1-4.6
			c0.1-0.3,0.2-0.7,0.1-1c-0.1-1,0.1-2.1,0.5-3c0.1-0.3,0.2-0.7,0.2-1c0-0.8,0.2-1.6,0.5-2.4c0.2-0.6,0.3-1.3,0.3-2
			c0-0.9,0.5-1.5,0.7-2.3c0.4-1.1,0.6-2.2,0.6-3.3c-0.1-0.7,0.6-1.2,0.6-1.9c0-0.9,0-1.8,0.2-2.7c0.5-1.2,0.8-2.4,1.2-3.6
			c0.3-1.1,0.9-2.1,0.9-3.3c0.5-1,0.6-2.2,1.2-3.2c0.5-0.8,0.8-1.7,0.8-2.6c0.4-0.7,0.6-1.5,0.7-2.3c0.6-1.7,0.7-3.6,1.7-5.2
			c0.4-1.1,0.7-2.2,0.9-3.3c0-0.8,0.6-1.5,0.7-2.3c0-0.7,0.2-1.4,0.5-2c0.4-0.7,0.1-1.6,0.7-2.3c0.1-0.2,0.2-0.4,0.2-0.6
			c-0.2-1.2,0.8-2.1,0.8-3.3s0.7-1.9,1.1-2.9c0.2-0.4,0.3-0.9,0.3-1.3c0.1-1.3,0.7-2.4,1.6-3.3c0.1-0.1,0.2-0.1,0.3-0.1
			c0.6,0,1.1,0.1,1.7,0.1c0.3,0.1,0.7,0,1-0.2c0.4-0.4,1-0.5,1.6-0.5c0.3,0,0.8,0.1,1-0.1c0.8-0.5,1.7-0.7,2.6-0.6h0.7
			c-0.2,1.2-0.1,2.5-1.1,3.5c-0.2,0.3-0.3,0.6-0.4,0.9c-0.4,1.5-1,3-1.7,4.5c-0.4,0.8-0.5,1.7-0.9,2.6c-0.3,0.7-0.4,1.5-0.8,2.2
			c0.1,1.5-0.9,2.8-0.9,4.4c0,0.6-0.4,1.1-0.4,1.6c-0.1,1.1-0.9,1.9-0.9,2.9c0,0.7-0.2,1.4-0.5,2c-0.5,0.9-0.8,1.9-0.9,2.9
			c0,0.3-0.3,0.6-0.4,1c-0.4,1.8-1.1,3.4-1.6,5.2c-0.8,2.6-1.8,5.1-2.4,7.8c-0.5,0.8-0.4,1.8-0.8,2.6s-0.1,1.6-0.5,2.3
			s-0.3,1.8-0.5,2.7c0,0.1,0,0.2-0.1,0.3c-0.6,0.8-0.3,1.8-0.6,2.6c-0.3,0.7-0.5,1.5-0.6,2.3c0.1,1-0.6,1.7-0.7,2.6
			c-0.2,0.9-0.4,1.8-0.6,2.7c-0.2,1-0.2,2.1-0.2,3.1c0,0.2,0,0.4-0.1,0.7c-0.4,0.9-0.6,2-0.5,3c-0.1,0.6-0.2,1.1-0.4,1.6
			c-0.6,1.6-1,3.3-1,5c0,0.5,0,0.9-0.2,1.3c-0.3,0.7-0.5,1.5-0.5,2.3c0,0.5-0.1,0.9-0.3,1.3c-0.3,0.6-0.4,1.3-0.4,2
			c0.1,0.6,0,1.1-0.1,1.7c-0.7,1.4-0.5,2.9-0.6,4.4c0,0.2,0,0.5-0.1,0.7c-0.4,0.8-0.5,1.8-0.4,2.7c0.1,1.3-0.1,2.5-0.6,3.7
			c-0.1,0.2-0.1,0.4-0.1,0.7c-0.1,1.5,0.1,3-0.7,4.4l-0.2,3.8c0,0.5,0,0.9-0.2,1.4c-0.4,1-0.5,2-0.5,3c0,0.6,0,1.2-0.2,1.7
			c-0.4,1.3-0.6,2.7-0.5,4.1c0,2.8-0.1,5.5-0.1,8.3C114.8,313.3,114.7,313.5,114.6,313.7z"/>
		<path d="M130.1,264.6c0,0.5-0.1,0.9-0.4,1.3c-0.2,0.2-0.3,0.4-0.4,0.6c-0.1,0.7,0.2,1.4-0.3,2c-0.3,0.5-0.5,1-0.4,1.6
			c0,0.3-0.3,0.6-0.7,0.6c-0.5,0-0.9-0.1-1.3-0.3c-0.9-0.6-1.4-1.5-2.5-1.9c-0.2-0.1-0.3-0.3-0.4-0.5c0-0.9-0.2-1.8-0.6-2.6
			c0-1-0.3-2.1,0.2-3c0.2-0.3,0.3-0.6,0.3-1c0.1-0.8,0.3-1.6,0.6-2.3c0.2-0.6,0-1.4,0.4-2c0.4-0.6,0.4-1.5,0.8-2.3
			c0.7-1.5,1.1-3.2,1.1-4.9c0.3-0.4,0.6-0.8,0.9-1.2c0.2-0.3,0.4-0.6,0.4-0.9c0-1.3,0.8-2.4,0.7-3.7c0-0.3,0.1-0.7,0.3-0.9
			c0.8-0.9,1.1-2,1-3.1c0-0.5,0.2-0.9,0.4-1.3c0.3-0.9,0.6-1.7,1-2.5c0.5-0.9,0.7-2,0.7-3c0-0.6,0-1.1,0.2-1.7
			c0.4-1.1,0.8-2.1,1.2-3.2c0.5-0.9,0.6-2,1.1-2.9c0.2-0.5,0.1-1.1,0.3-1.7c0.3-1,0.5-2,0.7-3c0.2-0.7,0.5-1.3,0.8-1.9
			c0.2-0.5,0.5-1.1,0.7-1.5s0.4-0.8,0.4-1.3c0-0.7,0-1.4,0.1-2.1s0.5-1.2,0.7-1.9c0.2-0.9,0.8-1.6,0.8-2.6c0.6-0.8,0.4-1.8,0.6-2.6
			c0-0.1,0.1-0.2,0.2-0.3c0.4-0.9,0.8-1.9,1-2.9c0.1-1,0.9-1.7,0.8-2.6c-0.1-1.4,0.7-2.6,0.9-4c0.4-0.6,0.6-1.3,0.6-2
			c0.5-1,0.8-2.2,0.6-3.3c0.9-0.1,1.1-1.2,1.9-1.3s1.1-0.8,1.6-1.1c0.3-0.2,0.7-0.3,0.9-0.1c0.7,0.5,1.5,0.7,2.2,0.6
			c0.3,0.9-0.5,1.5-0.5,2.3c0.1,0.8,0,1.6-0.2,2.4c-0.3,0.9-0.4,1.8-0.7,2.6s-0.4,2-0.7,3c-0.3,0.9-0.5,1.8-0.6,2.7
			c-0.1,0.7-0.6,1.2-0.7,1.9c-0.1,0.9-0.7,1.7-0.6,2.6s-0.7,1.4-0.7,2.3s-0.6,1.7-0.6,2.6c-0.1,0.7-0.4,1.3-0.7,1.9s-0.6,1.3-0.6,2
			c0,0.6-0.1,1.1-0.3,1.7c-0.5,0.8-0.4,1.8-0.9,2.6c-0.7,0.9-1,2.1-1,3.2c-0.5,0.9-0.7,2-0.6,3c0,0.5-0.1,0.9-0.4,1.3
			c-0.4,0.8-0.8,1.6-1.1,2.5c-0.2,0.8-0.5,1.5-0.9,2.2c-0.2,0.4-0.3,0.9-0.4,1.3c-0.1,1.7-0.6,3.4-1.4,4.9c-0.5,0.9-0.8,1.9-0.8,3
			c0,1-0.3,2-0.8,2.9c-0.2,0.5-0.7,0.9-0.9,1.5c-0.1,0.3-0.1,0.7-0.1,1c0,0.5-0.1,0.9-0.2,1.4c-0.2,0.5-0.4,1.1-0.6,1.6
			c-0.5,0.9-1,1.8-1.3,2.8c-0.1,1.1-0.2,2.3-0.1,3.4l0,0c-0.8,0.1-1.4,0.8-1.4,1.7c0,0.7-0.2,1.3-0.4,2c-0.3,0.5-0.3,1.3-0.6,1.9
			c-0.3,0.7-0.5,1.5-0.4,2.3C129.4,264.3,129.8,264.5,130.1,264.6z"/>
		<path d="M150.2,380.2c0,1.3,0,2.5-0.1,3.8c-0.1,0.7,0.1,1.4,0.5,1.9c0.1,0.1,0.1,0.2,0.2,0.3c0,1.3,0,2.5,0,3.8
			c-1,1.2-0.6,2.6-0.6,4c0,0.1-0.1,0.2-0.1,0.3c-0.2,0.1-0.3,0.3-0.5,0.4c-0.1,0-0.3,0-0.3-0.1c-0.2-0.3-0.4-0.6-0.5-0.9
			c-0.8-1.5-1.9-2.9-2-4.7c-0.6-1.2-1.2-2.5-1.9-3.6c-1.4-2.5-2.5-5.1-3.5-7.8c-0.2-0.9-0.6-1.7-0.9-2.6c-0.9-1.3-1.6-2.8-2-4.3
			c-0.5-1.7-1.3-3.2-2.4-4.5c-0.2-0.3-0.3-0.6-0.4-0.9c0-0.8-0.2-1.6-0.8-2.2s-0.5-1.5-1-2.2c-0.5-0.6-1-1.3-1.3-2
			c-0.1-0.3-0.3-0.6-0.4-1c-0.5-2.1-1.3-4.1-2.4-6c-0.2-0.4-0.4-0.8-0.4-1.3c-0.1-0.8-0.8-1.4-0.7-2.3s-0.8-1.7-0.7-2.6
			c-0.5-1-0.4-2.3-0.9-3.3c-0.4-0.9-0.6-2-0.6-3c0.4-0.1,0.9,0,1.3,0.2c0.4,0.3,1,0.5,1.5,0.5c1.3,0,2.7,0,4-0.1
			c0.6,0.7,0.9,1.6,0.9,2.5c-0.1,0.6,0,1.2,0.4,1.6c0.2,0.4,0.4,0.8,0.4,1.3c0,0.6,0.2,1.1,0.4,1.6c1.5,2.8,2.2,6,3.6,8.8
			c0.1,0.8,0.4,1.5,1,2.1c0.1,0.2,0.4,0.4,0.3,0.6c-0.1,1,0.8,1.6,0.9,2.6c0,0.5,0.2,0.9,0.5,1.2c0.7,0.9,1.2,1.9,1.7,3
			c0.6,1.1,1,2.3,1.4,3.5c0.2,0.6,0.4,1.3,0.6,1.9c0.2,0.5,0.5,1,0.8,1.5c0.3,0.6,0.5,1.2,0.7,1.9c0.4,1.3,0.9,2.6,1.5,3.8
			c0.2,0.5,0.4,1.1,0.5,1.6C149,380.2,149.6,380.2,150.2,380.2z"/>
		<path d="M137.1,459.8c-0.1-0.3,0-0.7,0.3-0.8h0.1C137.6,459.3,137.4,459.7,137.1,459.8z"/>
		<path d="M124.8,330.3c-0.3-1-0.4-2-0.3-3.1c-0.1-1.2,0.2-2.5-0.5-3.7c0-1-0.1-2.1-0.1-3.1c0.1-1-0.1-2-0.4-3
			c-0.1-0.4-0.2-0.9-0.2-1.4c-0.1-2.6-0.1-5.3-0.2-7.9c0.1-0.8-0.1-1.6-0.4-2.4c-0.1-0.3-0.2-0.7-0.2-1c0-2.6-0.1-5.3,0-8
			c-0.1-1.3,0-2.5,0.5-3.7c0.1-0.3,0.2-0.7,0.1-1c0-0.8,0-1.6,0.1-2.4s0.7-1.5,0.6-2.3s0.6-1.5,0.7-2.3s0-1.6,0.1-2.4
			c0-0.2,0.1-0.5,0.2-0.6c0.7-0.9,0.3-2,0.8-3c0.5-1,0.2-1.8,0.9-2.5c0-1.4,0.7-2.6,1-4c0-0.2,0.3-0.3,0.5-0.4
			c0.2,0.1,0.4,0.2,0.5,0.4c0.1,0.2,0.1,0.4,0.1,0.6c-0.4,0.5-0.7,1.2-0.6,1.9c0.1,0.8,0,1.6-0.5,2.3c-0.2,0.3-0.2,0.7-0.2,1
			c0,0.6-0.1,1.1-0.4,1.6c-0.2,0.3-0.3,0.6-0.3,1c0,1.5,0,3,0,4.5c0.2,0.3,0.3,0.5,0.6,0.8c1,0.8,0.9,1.8,0.8,2.8
			c-0.8,0.8-0.6,1.9-0.6,2.9c0.1,0.7-0.1,1.4-0.5,1.9c-0.3,0.3-0.2,0.6-0.2,1c0,1,0,2.1,0,3.1c0,0.5-0.1,0.9-0.4,1.3
			c-0.5,0.6-0.3,1.3-0.3,2c0,0.2,0.1,0.4,0.3,0.6c0.3,0.4,0.7,0.9,1.1,1.3v11.4c-0.4,0.6-0.7,1.2-0.7,1.9c0.1,2.4,0,4.8,0,7.2
			c0,1.2,0.3,2.5-0.6,3.6c0,0.7-0.1,1.4-0.1,2S125.4,330.2,124.8,330.3z"/>
	</g>
</g>
</svg>
