<svg xmlns="http://www.w3.org/2000/svg" viewBox="0 0 475.69 988.89"><defs><style>.cls-1{fill:#787a62;}.cls-2{fill:#ffd949;}.cls-3{fill:#c5c9ae;}</style></defs><title>Reader</title><g id="Layer_2" data-name="Layer 2"><g id="Art"><g id="Reader"><path d="M65.61,271.38a8.08,8.08,0,0,1,.24,1,1.68,1.68,0,0,0,.64,1.15,1.44,1.44,0,0,1,.57.79,21.75,21.75,0,0,0,2.4,6.7,3.18,3.18,0,0,1,.17.3,4.38,4.38,0,0,1,.21,1c0,1.17.8,2.11.89,3.25A9.9,9.9,0,0,1,71.91,288a8.61,8.61,0,0,1,.78,2.2c.59.45.56,1.21.89,1.77a5.47,5.47,0,0,1,.51,2,2.72,2.72,0,0,0,.59,1.19,20.92,20.92,0,0,1,2.64,5.07c.09.19,0,.47.11.64.6.95,1.43,1.81,1.29,3.07,1.24,1.51,1.34,3.63,2.73,5.07a1.56,1.56,0,0,1,.25.95,1.66,1.66,0,0,0,.45,1.23,2.72,2.72,0,0,1,.86,1.81c.08,1.05.23,2.06,1.45,2.45a.73.73,0,0,1,.34.55,1.75,1.75,0,0,0,.56,1.53c.31.23.25.62.42.9.6,1,.41,2.21.79,3.28A6.7,6.7,0,0,1,88.41,324c.25.41-.12.9.23,1.29s.52.42.52.82c0,.72.66,1.15.83,1.82a4,4,0,0,0,.73,1.14c.13.19.34.34.41.54a7.94,7.94,0,0,0,1.16,2.81,20.58,20.58,0,0,1,1.48,2.27,1,1,0,0,1,.09.65,2,2,0,0,0,.32,1.63,10.25,10.25,0,0,1,1.66,3.3,3.55,3.55,0,0,0,.76,1.11c.34.41,0,.95.21,1.29a9.91,9.91,0,0,1,1.34,2.73,16.5,16.5,0,0,0,1.37,2.35,7.08,7.08,0,0,1,1.09,2.83,4.05,4.05,0,0,0,.55,1.23,5.68,5.68,0,0,1,.81,1.83c.06.83.67,1.42.7,2.25a2.11,2.11,0,0,0,1.12,2,1.26,1.26,0,0,1,.42.89,2.87,2.87,0,0,0,.38,1.64,4.68,4.68,0,0,1,1,2.5,3,3,0,0,0,.39.91c.23.51.47,1,.69,1.51.13.31.2.64.32,1a2.65,2.65,0,0,0,.4.92,3.12,3.12,0,0,1,.81,2.5c0,.07.17.14.26.21a.3.3,0,0,0,.5-.18,20.31,20.31,0,0,0,.86-3.95,5.5,5.5,0,0,1,.48-3,28.31,28.31,0,0,1,.15-3.07,27.05,27.05,0,0,0,.57-3.68,7.35,7.35,0,0,1,.44-3.35,2.93,2.93,0,0,1,.16-2.61,1.73,1.73,0,0,0,.06-.68c-.17-2.05.16-4.08.17-6.13a7.49,7.49,0,0,1,.38-3,4.19,4.19,0,0,0,.13-1.34,47.61,47.61,0,0,1,.56-7.82c.21-1,0-2,.14-3.06.4-2.12-.14-4.33.57-6.42l.33-6.15a2.56,2.56,0,0,1,0-.68c.75-2.08.3-4.32.87-6.41a3.16,3.16,0,0,0-.08-2.34.88.88,0,0,1-.07-.65c.76-1.62.26-3.4.67-5.06-.19-1.38.46-2.65.48-4a11.76,11.76,0,0,1,.54-3.7,5.94,5.94,0,0,0,.21-1.69,12.8,12.8,0,0,1,.48-3.36,8,8,0,0,0,.14-2,6.2,6.2,0,0,1,.47-3,2.66,2.66,0,0,0,.17-1,11.64,11.64,0,0,1,.56-3.35,3.53,3.53,0,0,0,.15-1.35,6.9,6.9,0,0,1,.5-3c.41-.81.07-1.82.66-2.62a1.42,1.42,0,0,0,.28-1c-.22-1.33.63-2.41.76-3.65.71-1.19.59-2.65,1.22-3.88a1.36,1.36,0,0,0-.1-1.31,2.28,2.28,0,0,1-.11-2,8.36,8.36,0,0,1,.72-1.89,6.86,6.86,0,0,0,1.13-3.53,5.62,5.62,0,0,1,.4-1.64.9.9,0,0,1,.41-.52,2.52,2.52,0,0,0,1.29-1,7,7,0,0,1,.76-1.13,21.21,21.21,0,0,0,3.84-7.14,14.26,14.26,0,0,1,.82-1.88,11.4,11.4,0,0,0,1-2.51,1.1,1.1,0,0,1,1.19-.95,1.42,1.42,0,0,0,1.18-.55,28.41,28.41,0,0,0,2.55-4,9.57,9.57,0,0,1,1-1.4,18.79,18.79,0,0,0,2.9-3.78,3.23,3.23,0,0,1,.68-.76,11.91,11.91,0,0,0,2.6-3.14c1-.81,1.64-1.89,2.53-2.74,2.06-2,4.07-4,6.2-5.88,1.36-1.2,2.89-2.2,4.21-3.46a22.22,22.22,0,0,0,3.92-2.67c1.31-.91,2.57-1.88,3.87-2.81a8.34,8.34,0,0,1,2.4-1.26c.49-.15.87-.68,1.29-1a25.72,25.72,0,0,0,5.62-1.34,11,11,0,0,1,2.71-.21c.36,0,.6.29.8.57a3.5,3.5,0,0,0-.12.63.76.76,0,0,0,.82.76,2.79,2.79,0,0,0,.92-.18,3.8,3.8,0,0,1,1.56-.3c.43.08.9.07,1.22.47s.42.59.7.72c1.13.49,2.22,1.08,3.37,1.55,1.56.63,3.29.79,4.7,1.78,1.43.27,2.69,1.16,4.25.93a4.49,4.49,0,0,1,2,.22,11.89,11.89,0,0,0,4.36.31c1.6.07,3.2,0,4.78.25s3.37.44,5.08.54a4,4,0,0,1,1.34.2,6.62,6.62,0,0,0,2.34.36c1.82,0,3.64.12,5.46.26,1,.08,2,.38,3,.49s2.05.1,3.07.15a1.27,1.27,0,0,1,.34,0,15.75,15.75,0,0,0,5.06.6,11.12,11.12,0,0,1,3.71.49,3,3,0,0,0,1,.14c1.59.12,3.16.32,4.74.5a47.6,47.6,0,0,0,4.78.07c1.14,0,2.28.07,3.42.13a4.28,4.28,0,0,1,1.35.14c1.75.71,3.58.56,5.4.59s3.65,0,5.47,0a7.26,7.26,0,0,1,2,.12,13.36,13.36,0,0,0,3.72.32c2.62.07,5.24.13,7.86.21a5.89,5.89,0,0,1,1.69.18,9.24,9.24,0,0,0,3,.41c3.53,0,7.07,0,10.6,0,1.82,0,3.65-.09,5.47-.09,3,0,5.93.06,8.89.06a18.51,18.51,0,0,0,4.06-.34,16.78,16.78,0,0,1,3.4-.26c1.15,0,2.19-.55,3.36-.54,1.82,0,3.65-.09,5.46-.2s3.55-.83,5.39-.8a9.69,9.69,0,0,1,3.71-.41c.57,0,1.14,0,1.71,0a44.8,44.8,0,0,0,5.45-.28c2-.33,4.05-.52,6.06-1a22.36,22.36,0,0,1,6.05-.89,4.92,4.92,0,0,0,1.65-.37,18.32,18.32,0,0,1,6-1.07c.34,0,.68-.1,1-.09a4.67,4.67,0,0,0,1.94-.59,1.69,1.69,0,0,0,.67,0,11.65,11.65,0,0,1,4.45-1.55c.84-.65,1.93-.58,2.87-1s2-.16,2.92-.78a13.4,13.4,0,0,0,2.94-.7c1-.23,1.85-.92,2.92-.84a3.62,3.62,0,0,1,2.59-.64h3.42a2.9,2.9,0,0,0,2.25-.54c.21-.19.64-.17,1-.2.56,0,1.14,0,1.7-.08.18,0,.34-.26.52-.39,1.13-.07,2.28-.07,3.41-.21a5.19,5.19,0,0,1,3.56.84c.38.24.81.41,1.2.63.76.44,1.73.59,2.09,1.59a.88.88,0,0,0,.52.41c1.84.59,3.48,1.64,5.32,2.23.66.54,1.5.45,2.26.64.12.17.24.47.38.49a3.77,3.77,0,0,1,2.39,1.16c.31.32.62.78,1,.88.69.16,1.08.81,1.78.91A1.58,1.58,0,0,1,414,213.2c.05.19.25.51.38.5,1.14,0,1.31,1.17,2.07,1.59a10,10,0,0,1,2.15,2.16,3,3,0,0,1,.78,1.1c.2.71.95.53,1.27.95a11.35,11.35,0,0,1,.66,1.12,1,1,0,0,1,.86,1.2,1.38,1.38,0,0,0,.28,1.28c.89.75,1,2,1.92,2.76a1.36,1.36,0,0,1,.44.89c0,1,.83,1.56,1.1,2.42a9.27,9.27,0,0,0,1.25,2.39c1.37,2,1.6,2.61,2.7,5.73a2.65,2.65,0,0,0,1,1.3,4,4,0,0,1,.13.67,1.93,1.93,0,0,0,.83,1.75,7.72,7.72,0,0,1,.72.63,3.79,3.79,0,0,0,.8,3,1.8,1.8,0,0,1,.33,1.29,4.23,4.23,0,0,0,.61,2.26c.4.61,0,1.5.55,2.2s.37,1.52.43,2.31a6.14,6.14,0,0,0,.22,1.35c.42,1.29.41,2.7,1,3.95-.13,1.29.53,2.43.68,3.67a2.36,2.36,0,0,0,.33.93,1.6,1.6,0,0,1,.37,1.26,4.17,4.17,0,0,0,.24,2.69c.54,1.28.52,2.66.94,4a15.05,15.05,0,0,1,.27,3,4.75,4.75,0,0,0,.61,2.28,2.4,2.4,0,0,1,.21,2c-.06.21-.09.54,0,.66.91.94.79,2.08.71,3.22a29.52,29.52,0,0,1,.91,2.9,1.32,1.32,0,0,1-.13,1.28.54.54,0,0,0,0,.63,6.09,6.09,0,0,0,.42.93,3.85,3.85,0,0,1,.68,3.21,2.8,2.8,0,0,0,.35,2,1.22,1.22,0,0,1,.25.63,5.88,5.88,0,0,0,.75,3.28,1.46,1.46,0,0,1,.11.66,22.5,22.5,0,0,0,.61,4.7,2.38,2.38,0,0,0,1,2.37c.29.23.22.6,0,.91s-.32.68-.09.94c.77.88.36,1.69-.08,2.61l.91,1.34a2,2,0,0,1,.41,1.25,4.19,4.19,0,0,0,.59,2.6,1.79,1.79,0,0,1,.13.32c.18.53-.39,1.11.1,1.6s.36,1,.33,1.58a1.13,1.13,0,0,0,.14.66,3,3,0,0,1,.47,2.26,5.28,5.28,0,0,0,.22,1.33c.72.56.56,1.44.8,2.18.1.3,0,.7.11,1a2.09,2.09,0,0,1,.28,1.62,1.36,1.36,0,0,0,0,1,4.44,4.44,0,0,1,.77,2.89,2.32,2.32,0,0,0,.39,1.28,3,3,0,0,1,.45,2.29,3.56,3.56,0,0,0,.25,2.32c.33.72-.1,1.64.49,2.29a2.47,2.47,0,0,1,.42,2.22,2.57,2.57,0,0,0,.28,1.64,11.52,11.52,0,0,1,.88,2.19,4,4,0,0,1,.17,1.68,3.56,3.56,0,0,0,.6,2.56.73.73,0,0,1-.09.63,1.32,1.32,0,0,0-.11,1.58,5.21,5.21,0,0,0,.94,1.4.84.84,0,0,1,.24.92,2.47,2.47,0,0,0,.15,1.67,5.35,5.35,0,0,1,.61,2.62,1.4,1.4,0,0,0,.29.93,5.37,5.37,0,0,1,.93,2.17,3,3,0,0,1,0,1.67,1.86,1.86,0,0,0,0,1c.44,1.41,1.05,2.77,1.37,4.2.21.94,1.16,1.78.52,2.88.27.75.52,1.5.81,2.24a7,7,0,0,1,.66,3.31,2.52,2.52,0,0,0,.56,1.56c-.21,1.21.6,2.15.81,3.24a3,3,0,0,0,.78,1.42,1.89,1.89,0,0,1,.49,1.25,9.81,9.81,0,0,0,.05,2c.12.66.52,1.26.68,1.92s.34,1.55.53,2.31a7.19,7.19,0,0,0,.78,2.21,2.32,2.32,0,0,1,.18,1,3.76,3.76,0,0,0,.6,2.26.58.58,0,0,1,.1.32,18.31,18.31,0,0,0,1.22,5.26,20,20,0,0,1,.36,3.23,5.55,5.55,0,0,1,1.7,3.43,2.05,2.05,0,0,1-.06,1c-.1.24-.24.38-.12.57.29.49.59,1,.88,1.45.07,1.93,1.17,3.69.89,5.67a2,2,0,0,0,.31,1.29c1,1.79,1.28,3.87,2,5.76a4.28,4.28,0,0,1,.22,1.34c.05,1.13,0,2.28.1,3.41a46.28,46.28,0,0,0,.58,6.44,6.57,6.57,0,0,1-.05,2.38.74.74,0,0,1-.33.54,1,1,0,0,0-.8.95c-.21,1.69-1.07,3.24-.82,4.72-.64,1-1.51,1.09-2.11,1.61a20.76,20.76,0,0,0-1.8,1.58c-.69.75-1.89.74-2.42,1.71a.78.78,0,0,1-.57.31,1.59,1.59,0,0,0-1.43.71,12.12,12.12,0,0,1-1.31,1.57,2.2,2.2,0,0,1-.81.58c-.91.34-1.31,1.27-2.09,1.73s-1.64.78-2.36,1.31a12.65,12.65,0,0,0-2.28,2,7.3,7.3,0,0,1-2.87,2.33c-.75,1.07-2,1.45-2.93,2.3a4.91,4.91,0,0,1-1.75,1,3.61,3.61,0,0,0-1.92,1.3,1.76,1.76,0,0,1-.56.39c-.76.46-1.61.82-2,1.74a37.89,37.89,0,0,1-4.77,3.78,13.88,13.88,0,0,0-1.72,1.09c-.51.44-1.16.74-1.6,1.21a4.37,4.37,0,0,1-1.47,1.27c-.41.9-1.36,1.14-2.07,1.65-.36.26-.84.35-1.06.8a4.81,4.81,0,0,0-2.6,1.38c-.23.26-.39.6-.72.68-.66.15-1.33.22-1.57,1-.05.16-.34.28-.54.36-.43.15-.88.22-1.3.38a4.15,4.15,0,0,0-2.44,1.75,3.81,3.81,0,0,1-.94,1,1.73,1.73,0,0,1-.93.38,2.31,2.31,0,0,0-1.54.57,3.51,3.51,0,0,1-1.15.67,3.48,3.48,0,0,0-1.23.54,7.31,7.31,0,0,1-1.83,1.5c-.72.28-1.47.52-2.18.85-.1.05-.22.05-.33.1a2.5,2.5,0,0,0-1.15,1.21l-1,0a1,1,0,0,0-1,.68.91.91,0,0,1-.65.69,2,2,0,0,0-1.28,1.06,1.93,1.93,0,0,1-1.13,1.11c-.5.19-1,.53-1.49.77a6.36,6.36,0,0,0-1.42.85c-.24.19-.26.62-.47.86a4,4,0,0,1-1.05.83,27.27,27.27,0,0,1-2.7,1.36,1.14,1.14,0,0,0-.74.6,2,2,0,0,1-1.65,1.51c-1,.73-2.22,1.09-3.27,1.75-.55.34-1.3.42-1.45,1.26,0,.14-.35.33-.54.33a2,2,0,0,0-2.06,1.45,1.31,1.31,0,0,1-.68.67,7.31,7.31,0,0,0-1.35,1c-.42.37-1.21.29-1.33.92s-.85.66-1.22,1a2.82,2.82,0,0,0-.84,1,4.51,4.51,0,0,1-1.49,1.82,1.49,1.49,0,0,1-.91.35,1.81,1.81,0,0,0-1.77,1.34.92.92,0,0,1-1,.69,2.51,2.51,0,0,0-2.16.77,6.09,6.09,0,0,1-2.33,1.3c-.94.4-1.51,1.32-2.54,1.63a5.27,5.27,0,0,0-2.48,1.69,2.39,2.39,0,0,1-1.78.85,4,4,0,0,0-1.51.66,5.76,5.76,0,0,0-1.06.84,1.83,1.83,0,0,1-1.2.54,2.07,2.07,0,0,0-.94.29,6.4,6.4,0,0,1-1.68,1.12c-.85.24-1.22,1.36-2.24,1.44l-1.27,1.14c-.5.46-.93,1.11-1.53,1.34a7.48,7.48,0,0,0-1.65,1.12,16.05,16.05,0,0,1-1.76,1,6.16,6.16,0,0,0-.9.41c-.45.36-.79.83-1.25,1.17s-1.16.67-1.7,1.06c-.72.52-1.17,1.42-2.16,1.58l-2,1.8a1.42,1.42,0,0,1-1,.2.65.65,0,0,0-.59.27c-.25.36-.26.92-.76,1a2.47,2.47,0,0,0-1.13.73c-.66.6-1.2,1.38-2.17,1.55a7.14,7.14,0,0,1-2.52,1.66,5.81,5.81,0,0,0-1.94,1.32c-.33.32-.64.8-1,.87-1,.19-1.38,1.21-2.26,1.45-1.08.29-1.52,1.34-2.38,1.88a5.16,5.16,0,0,1-.63.22c-.74.3-1.13,1.06-1.9,1.39s-1.24,1-1.94,1.3a8.15,8.15,0,0,0-1.85,1.47,2.52,2.52,0,0,1-.83.57,4.27,4.27,0,0,0-2,1.75c-.38.47-.12,1.11-.21,1.66a2.48,2.48,0,0,1-.24.62c-.31.6-.65,1.18-.94,1.79a.87.87,0,0,0-.08.64c.35.71.76,1.38,1.14,2.07.53,1,.71,2.11,1.18,3.1a2,2,0,0,1,0,2.22,2.26,2.26,0,0,0-.12,2.27,3.87,3.87,0,0,1,.52,1.92c.81.84.65,1.89.66,2.9,0,2.4,0,4.8,0,7.19,0,1.12.24,2.28-.59,3.28-.18.21-.09.66-.07,1a2.16,2.16,0,0,1-.38,1.28,2.52,2.52,0,0,0-.29.94c-.05.34,0,.68,0,1,0,.58-.71.88-.68,1.51a1.64,1.64,0,0,1-.35,1.28c-.42.47-.26,1.08-.42,1.61a2.22,2.22,0,0,1-.38.56c-.29.35-.59.69-.84,1-.19.95.16,1.91-.62,2.67-.19.19-.18.65-.15,1a2.07,2.07,0,0,1-.73,1.82c-.32.31-.7.65-.61,1.16a3.73,3.73,0,0,1-.68,2.55c.13,1.07-.93,1.84-.75,2.92a3.18,3.18,0,0,0-.62,2.56,8.87,8.87,0,0,1,0,1c0,.46-.71,2.16-1.19,2.32-.89.3-.87.91-.86,1.6,0,.45,0,.91,0,1.41-.37.25-.74.48-1.08.75s-.1.93-.33,1.26c-.51.74-.63,1.71-1.36,2.31a3.18,3.18,0,0,0-.44.53c-.4.57-.09,1.33-.58,1.92a15.86,15.86,0,0,0-1,1.78c-.16.24-.07.66,0,1a1.73,1.73,0,0,1-.36,1.28c-.4.5-.42,1.32-1.28,1.43-.15,0-.36.34-.36.53,0,1.08-.74,1.86-1.1,2.79a17.59,17.59,0,0,0-.94,2.14,2.88,2.88,0,0,1-.66,1.5c-.72.73-1.39,1.5-2.09,2.26-.69,1.79-2.35,2.72-3.56,4-.95.3-1.68,1.11-2.81,1.05-1.59-.09-3.19,0-4.79,0L286,636.71a9.48,9.48,0,0,1-1.27,3.45,2.12,2.12,0,0,0-.3,1,1.6,1.6,0,0,1-.55,1.2c-.75.59-.82,1.6-1.44,2.27-.07.66-.56.84-1.08,1.11a9.39,9.39,0,0,0-1.54,1.24,8.83,8.83,0,0,0-1.79,0,3.33,3.33,0,0,1-2.54-.73c-1.31-.85-2.75-1.7-2.76-3.58a3.56,3.56,0,0,1-.63-2.57c0-.92,0-1.83,0-2.74,0-.17-.22-.32-.34-.48-.09.08-.23.14-.25.23a5.9,5.9,0,0,1-.26,1.29c-1.15,2.3-2.37,4.57-3.41,6.92a1.09,1.09,0,0,1-.21.27c-.32.33-.63.7-1.12.7-2.39,0-2.44.39-3.7-2.09a8.42,8.42,0,0,0-.58-1.21,2.42,2.42,0,0,1-.43-1.6c0-.23,0-.46,0-.69-.05-1.28-.65-1.93-1.82-1.95s-2.29-.08-3.42,0a4.7,4.7,0,0,1-3.07-1.21,16.22,16.22,0,0,1-1.95-1.94c0-.61,0-1.17,0-1.74a3.33,3.33,0,0,0-.49-2.27,1.93,1.93,0,0,1-.18-1c0-.79,0-1.59,0-2.39a2.93,2.93,0,0,0-.41-1.27,4.75,4.75,0,0,1-.11-3c.63-.61.34-1.53.77-2.21a2.08,2.08,0,0,0,.43-1.25c0-.8,0-1.6,0-2.4s0-1.37,0-2.06c.67-.7.52-1.71.92-2.5a3.36,3.36,0,0,0,.42-1.61c0-3.65,0-7.3,0-11a3.6,3.6,0,0,1,.47-2.28,2,2,0,0,0,.18-1c0-1.37,0-2.74.05-4.11,0-.34-.09-.76.08-1,.95-1.35.5-2.87.55-4.32.08-2.5.06-5,0-7.53a3.11,3.11,0,0,1,.48-1.94,2,2,0,0,0,.14-1c0-.43-.58-.93-.9-.7a3.41,3.41,0,0,1-2.24.61c-1,0-2.06,0-3.09,0a1.8,1.8,0,0,0-1,.18,3.47,3.47,0,0,1-2.28.48,2.06,2.06,0,0,0-1.31.25c-.83.64-2,.32-2.8,1.08-1-.14-1.7.54-2.5.9a5.91,5.91,0,0,0-2.27,1.43,1.52,1.52,0,0,1-1.23.46,2.71,2.71,0,0,0-1.32.2,3.11,3.11,0,0,1-1.94.46c-1,0-2,.15-2.94-.58-.22-.17-.66-.09-1-.09H223.8c-1.89-1.94-4-3.83-5.84-6,0-1.21,0-2.35,0-3.49a1.53,1.53,0,0,1,.68-1.13c.25-.2.62-.27.89-.46a.91.91,0,0,0,.47-.84,1.6,1.6,0,0,1,.44-1.24,6.06,6.06,0,0,1,3.46-1.94,1.89,1.89,0,0,0,.91-.4,10.09,10.09,0,0,1,2.88-1.7c1.11-.54,2.19-1.13,3.28-1.7.54-.8,1.58-.9,2.2-1.54s1.75-1,2.52-1.71a8.24,8.24,0,0,1,2.35-1.24,3.42,3.42,0,0,0,.8-.63c.52-.45,1-1.08,1.56-1.3s.7-.85,1.13-1.15a19.45,19.45,0,0,0,1.65-1.14c.5-.43,1.16-.67,1.68-1.09s1.14-1.11,1.71-1.67l2.93-2.89a8.74,8.74,0,0,1,1-.91c2.34-1.71,2.36-1.69,3.81-3.71a1.48,1.48,0,0,1,.79-.57,1.85,1.85,0,0,0,.8-.62,12.65,12.65,0,0,1,.7-1.13c.31-.3.81-.41,1.12-.7.67-.62,1.27-1.31,1.9-2,.19-1,1-1.48,1.61-2.14s1.25-1.34,1.93-1.94a2.33,2.33,0,0,0,.73-1.82c0-.32.35-.54.72-.57a3.11,3.11,0,0,1,.68,0,1.75,1.75,0,0,0,1.72-.89c.26-.36.35-.87.66-1.16.8-.78,1.36-1.86,2.58-2.13l2.27-2h2.55l1.2-1.12,2.69-2.64c1.55-.59,2.46-2,3.65-3,.43-.38.8-.82,1.25-1.17s.86-.35,1.17-.64a13.85,13.85,0,0,1,1.95-1.31,13,13,0,0,0,2-1.88,9.41,9.41,0,0,1,2.18-1.58c.78-.45,1.21-1.4,2.1-1.7a5.55,5.55,0,0,0,1.84-1.48c.67-.62,1.31-1.28,2-1.92,1.05-1.05,2.09-2.1,3.15-3.14.33-.32.63-.76,1-.88a5.86,5.86,0,0,0,2.13-1.64c.34-.3.61-.75,1-.92,1.52-.66,2.47-2,3.65-3,.25-.23.48-.57.78-.65,1-.24,1.48-1,2.14-1.62l2.75-2.57c.87,0,.77-1.11,1.39-1.3a4.46,4.46,0,0,0,1.62-1.2,5.56,5.56,0,0,1,1.67-1.14c.37-.15.63-.62.91-1s-.11-.81-.37-.82c-1,0-2,0-3.05-.08a3.45,3.45,0,0,0-2.27.5c-.59.41-1.33.16-2,.2a5.19,5.19,0,0,0-2,.36,3.54,3.54,0,0,1-3.55-.21.76.76,0,0,0-.95.08,1.18,1.18,0,0,1-1.53.11,2.57,2.57,0,0,0-2.88.09,1.4,1.4,0,0,1-1.6.05,3.21,3.21,0,0,0-1.94-.49,3.05,3.05,0,0,0-1.95.42,1.8,1.8,0,0,1-1,.24c-1.14,0-2.28,0-3.42.06a3.9,3.9,0,0,0-.95.31,3.84,3.84,0,0,1-.95.29c-1.25,0-2.51,0-3.77,0a1.28,1.28,0,0,1-.61-.24,1.16,1.16,0,0,0-1.54,0,1.59,1.59,0,0,1-1.91,0,1.77,1.77,0,0,0-2.2,0c-.29.22-.7.4-.94.21A4.29,4.29,0,0,0,275,490a1.77,1.77,0,0,0-.92.35c-.25.17-.38.19-.6,0a1.91,1.91,0,0,0-1.28-.38c-1.94,0-3.88,0-5.82,0a1.62,1.62,0,0,1-1-.21,2.63,2.63,0,0,0-3.18,0,.8.8,0,0,1-.94,0,2.23,2.23,0,0,0-1.25-.47c-1.6,0-3.2,0-4.79,0a2.77,2.77,0,0,0-1.25.48,1.58,1.58,0,0,1-1.61,0,2.72,2.72,0,0,0-3.19.05.78.78,0,0,1-.94,0,2,2,0,0,0-1.25-.44c-.46,0-.92,0-1.37,0l-15.42,0A1.89,1.89,0,0,1,229,489c-.53-.43-1-.29-1.53,0-.76.46-1.81.22-2.5.92-.57,0-1.14,0-1.71,0a2.17,2.17,0,0,0-1,.25,2.73,2.73,0,0,1-1.61.44,2,2,0,0,0-1.3.3,1.5,1.5,0,0,1-.92.38c-.8,0-1.6,0-2.4,0a1.24,1.24,0,0,1-.62-.21,2.44,2.44,0,0,0-1.61-.43,3.89,3.89,0,0,1-2.58-.65,11.8,11.8,0,0,0-1.59-.74c-3.92,0-7.92,0-11.91,0a3.3,3.3,0,0,1-2-.46c-.59-.41-1.33-.15-2-.19a1.8,1.8,0,0,1-1.86-1.6c0-.18-.28-.32-.43-.48a3.55,3.55,0,0,1-.27-2.33,1.5,1.5,0,0,1,.43-.9,3.4,3.4,0,0,0,.94-2.49c0-2.63.82-5.16,1-7.76.08-.91.3-1.8.38-2.71a36.61,36.61,0,0,1,.33-4.07c.28-1.35.32-2.72.55-4.06.33-1.91.39-3.84.58-5.75a4.25,4.25,0,0,1,.11-1,10.75,10.75,0,0,0,.49-3.37,29,29,0,0,1,.47-4.73,16.35,16.35,0,0,0,.16-3.06,9.13,9.13,0,0,1,.41-3,4.22,4.22,0,0,0,.13-1.34c.09-1.94.16-3.87.24-5.8a8.86,8.86,0,0,1,.07-1.37c.61-2.69.36-5.43.52-8.15s0-5.23.19-7.85a43.85,43.85,0,0,0,0-4.44q0-4.27,0-8.55a14.52,14.52,0,0,1,.23-4.41c.06-.19-.06-.43-.07-.64-.09-2.28-.18-4.55-.25-6.83-.05-1.37,0-2.74-.09-4.1s-.53-2.42-.55-3.69a11.56,11.56,0,0,0-.41-3.38c-.37-1.12-.21-2.27-.53-3.36-.54-1.85-.66-3.81-1.67-5.53a13.1,13.1,0,0,1-.55-2A45.48,45.48,0,0,0,191,362.8c-1.6-2.75-3-5.61-4.52-8.39-.87-1.6-1.47-3.32-2.29-5a30.28,30.28,0,0,1-1.77-4.77c-.33-1.08-.79-2.12-1.17-3.19s-.61-1.94-1-2.9c-.23-.64,0-1.4-.54-1.93a.66.66,0,0,0-.58-.16,1.48,1.48,0,0,0-.87,1,3.46,3.46,0,0,0-.15,1.34,16.07,16.07,0,0,1-.07,2.69,1.36,1.36,0,0,1-.3.95,2.94,2.94,0,0,0-.82,2.8c.17.9-.35,1.78-.21,2.72a2.43,2.43,0,0,1-.28.95,3.27,3.27,0,0,0-.35.94c-.06,1.13.18,2.3-.51,3.33a13.31,13.31,0,0,1-.53,3,18.91,18.91,0,0,0-.31,2c-.08.44-.12,1-.41,1.27-1.26,1.16-.56,2.83-1.15,4.14.66.9.05,1.76-.13,2.61a18.56,18.56,0,0,1-.7,2.27c-.07.21-.29.4-.3.61-.11,2.37-1,4.65-.84,7.06a4.2,4.2,0,0,1-.19,1.69,2.78,2.78,0,0,0,.06,2.31.71.71,0,0,1-.06.62,2.31,2.31,0,0,0-.45,1.6,12.27,12.27,0,0,1-.78,4.67,9.27,9.27,0,0,0-.81,4,4.09,4.09,0,0,1-.73,2.23c-.17.32-.31.6-.11.92a1.6,1.6,0,0,1,.18,1.61,7.17,7.17,0,0,0-.37,1.3,7.07,7.07,0,0,1-.57,2.3c-.49.78.23,1.87-.63,2.56a4,4,0,0,1-.83,2.18,28.63,28.63,0,0,1-.79,3.29c-.19.54-.41,1-.64,1.56a18.08,18.08,0,0,0-1.41,4.12c-.14.76.12,1.61-.53,2.26s-.14,1.53-.67,2.24a11.47,11.47,0,0,0-1,2.16,1.47,1.47,0,0,1-.46.5,2.61,2.61,0,0,0-1,2.41c0,.23,0,.46,0,.69a1.77,1.77,0,0,1-.68,1.48,1.36,1.36,0,0,0-.56.83,7.75,7.75,0,0,0-.37,1.66c0,1-.7,1.66-.85,2.55a.86.86,0,0,1-.76.57c-.33.06-.55.28-.29.68a1.72,1.72,0,0,1,.15.65.62.62,0,0,1-.05.33c-.59,1.59-1.64,2.95-2.32,4.49-1.25.71-.88,2.26-1.66,3.2.63,1.09-.37,1.66-.76,2.43-.05.1,0,.24-.06.33a21.13,21.13,0,0,1-2.67,4.69,1.86,1.86,0,0,0-.5,1.18,2.54,2.54,0,0,1-1.7,2.31c-.3.12-.27.39-.07.81.08.18.22.47.15.55a51.28,51.28,0,0,0-3.21,4.42,20.07,20.07,0,0,0-1.23,2,5.26,5.26,0,0,0-.7,2.94,1.92,1.92,0,0,1-1.44,2.07,5.09,5.09,0,0,1-1,.38c-1.69.29-3.18,1.24-4.87,1.49a4.2,4.2,0,0,1-2.29.62,6.16,6.16,0,0,0-2.68.41c-1.36.09-2.73.2-4.09.24-1.14,0-2.29,0-3.43-.05-.8,0-1.59-.07-2.39-.1-1-.68-2.2-.5-3.24-1s-2.11-.84-3.09-1.4a16.74,16.74,0,0,1-3.67-3.05,10.13,10.13,0,0,0-1.85-1.47A115.21,115.21,0,0,1,96.94,452a68.6,68.6,0,0,1-8.84-9c-1.46-1.89-3-3.72-4.28-5.73a101.5,101.5,0,0,1-6.56-11.52c-.18-.41-.4-.81-.62-1.22-.91-1.7-1.85-3.39-2.74-5.11s-1.41-3.83-2.3-5.67-1.58-3.52-2.31-5.3a13.89,13.89,0,0,1-.78-2.25,6,6,0,0,0-1.47-3,4.32,4.32,0,0,1-.68-1.16,49.49,49.49,0,0,1-2.55-5.54c-1.18-3.19-2.69-6.23-4.14-9.3a40,40,0,0,1-2.05-5c-.17-.55-.43-1-.64-1.55-.91-2.2-2.33-4.18-2.85-6.55-1.56-2.52-2.3-5.42-3.61-8.06a41.84,41.84,0,0,1-1.94-4.7,38.53,38.53,0,0,0-2-4.7,30.81,30.81,0,0,1-1.89-4.74A11.42,11.42,0,0,0,43.5,349a12.14,12.14,0,0,1-1.24-2.79c-1.19-3.67-2.89-7.13-4.36-10.68-.61-1.47-1-3-1.7-4.44-.44-.92-.75-1.91-1.26-2.78s-.54-1.73-.92-2.54c-.48-1-.84-2.09-1.23-3.15s-1-2.06-1.35-3.12c-.9-2.58-2.2-5-3.09-7.54s-1.92-4.85-2.77-7.3a10.66,10.66,0,0,0-1-2.51c-.59-.89-.5-2-1-2.87s-.67-1.68-1-2.51a16.29,16.29,0,0,0-1.6-3.75c-.24-.33-.13-.93-.37-1.28-.82-1.16-.58-2.67-1.36-3.84a17.86,17.86,0,0,1-1.36-3.47c-1.34-3.25-2.45-6.59-3.77-9.85a14.62,14.62,0,0,1-1.22-3.88,13.48,13.48,0,0,0-1.35-3.85,4.31,4.31,0,0,1-.53-1.95,1.64,1.64,0,0,0-.6-1.18,2.53,2.53,0,0,1-.61-2.21,5,5,0,0,0,0-2.66,4.72,4.72,0,0,1-.1-1.69c0-2.28.08-4.56.08-6.84,0-1.36-.08-2.73-.08-4.1,0-1.13-.06-2.26.05-3.41a37.24,37.24,0,0,0-.05-4.09c0-1.94-.13-3.88,0-5.82.17-3.18.07-6.37.06-9.55,0-2.73,0-5.46,0-8.19a48.8,48.8,0,0,0,0-5.8,82.32,82.32,0,0,1-.28-8.88c0-2.85,0-5.71,0-8.56q0-10.27.09-20.56c0-.8.06-1.59.08-2.39a2,2,0,0,1,.69-1.51c.41-.38.71-.91,1.34-1h2.74c.23,0,.46,0,.69,0A2.16,2.16,0,0,1,16.46,168c0,2.28,0,4.57,0,6.85a1.73,1.73,0,0,0,.15,1,3.84,3.84,0,0,1,.48,2.62q0,8.74,0,17.47a2.78,2.78,0,0,0,.4,1.61,6.13,6.13,0,0,1,.9,1.81,8.67,8.67,0,0,1,.05,2v7.86l-1.27,1.63c0,.25-.06.47-.06.69,0,.9-.16,1.83.49,2.62a1,1,0,0,1,.14.64c0,1.37,0,2.74,0,4.11a2.59,2.59,0,0,1-.42,1.27,2.42,2.42,0,0,0,0,2.28,4.07,4.07,0,0,1,.47,1.95c0,4,0,8,0,12,0,2.17,0,4.34,0,6.51a2,2,0,0,1-.44,1.25.81.81,0,0,0,0,.95,2.5,2.5,0,0,1,.48,1.59c0,.68,0,1.37,0,2.05q0,6,0,12c0,1,0,2.05.06,3.08a.93.93,0,0,0,.6.72c.46,0,.92,0,1.37,0H53.76c.45,0,.89,0,1.28,0a4.62,4.62,0,0,0,1.2-3.14,1,1,0,0,1,.13-.64,3.58,3.58,0,0,0,.56-2.27,1.16,1.16,0,0,1,.22-.62,2.19,2.19,0,0,0,.42-1.6,4,4,0,0,1,.65-2.58,3.32,3.32,0,0,0,.68-1.51,4.7,4.7,0,0,1,.7-1.88c-.13-1.17,1-2,.72-3.26a.86.86,0,0,1,.13-.64,4.61,4.61,0,0,0,.64-1.9,8,8,0,0,1,.9-1.81c.36-.69.68-1.41,1.08-2.09a12.31,12.31,0,0,0,.9-2.51A16,16,0,0,1,65.06,236a1.49,1.49,0,0,0,.06-.67,1.11,1.11,0,0,1,.39-.91,5.43,5.43,0,0,0,1.27-2,5.79,5.79,0,0,1,.8-1.47,18.19,18.19,0,0,0,1.86-3.19,4.05,4.05,0,0,0,.5-1.93,1.42,1.42,0,0,1,.3-.93c.89-.63,1-1.78,1.72-2.49s.91-1.8,1.71-2.51c.4-.35.53-1,.81-1.46.39-.69.12-1.59.74-2.22a.74.74,0,0,0,.14-.63c-.25-1,.36-1.75.74-2.55.78-1.61,1.63-3.2,2.43-4.8a2.72,2.72,0,0,0,.28-1,3.85,3.85,0,0,1,.48-1.94c.41-.65.15-1.59.81-2.17.09-.59.56-1,.71-1.53a6.83,6.83,0,0,0,.1-1.7c1-1.19.6-2.6.66-3.94.47-.09.73-.37.63-.86,0-.12-.24-.21-.38-.29a.4.4,0,0,0-.2.22c0,.3,0,.61-.06.92a2.72,2.72,0,0,0-.6.26,9.66,9.66,0,0,0-.95,1c-.58.68-.69,1.67-1.48,2.24-.24.17-.28.59-.44.88a8.33,8.33,0,0,1-1,1.75,12.23,12.23,0,0,0-1.83,3.17c-.76,1.61-1.7,3.14-2.46,4.76a10.3,10.3,0,0,1-2.36,3.64,1.62,1.62,0,0,0-.54,1.19,1.39,1.39,0,0,1-.32.92A8.2,8.2,0,0,0,68,218.32a5,5,0,0,1-.89,1.4,2,2,0,0,0-.61,1.85A1.71,1.71,0,0,1,66,222.8a7.37,7.37,0,0,1-2.45,1.76,4.61,4.61,0,0,1-2,.19,8.69,8.69,0,0,1-2.43-2.33.76.76,0,0,1-.09-.63,2.84,2.84,0,0,0,.57-1.89,4.43,4.43,0,0,1,.63-2.57c.32-.69,1-1.29.79-2.17.45-.65.93-1.27,1.32-1.95.49-.87.91-1.79,1.36-2.69a2.5,2.5,0,0,1,.92-2.09,4.08,4.08,0,0,0,.49-.87,20.48,20.48,0,0,1,2.54-4.33,1.33,1.33,0,0,0,.18-.63,2.91,2.91,0,0,1,.23-1c.74-1.38,1.36-2.81,2.13-4.17,1.26-2.24,2-4.75,3.75-6.72a.44.44,0,0,0,.06-.32c-.12-.75.42-1.27.68-1.88a6.92,6.92,0,0,1,.84-1.8c.57-.67.31-1.57.79-2.19a3.21,3.21,0,0,0,.45-2.27c.18-.07.41-.11.5-.24a.18.18,0,0,0-.24-.26c-.14.09-.18.33-.26.5a1.72,1.72,0,0,0-1.25,1.05c-.38.68-.59,1.46-1,2.11a9.75,9.75,0,0,1-1.38,1.5c-.57.57-.59,1.45-1.25,2-1.16.93-1.62,2.42-2.63,3.48-.14,1.08-1.44,1.47-1.54,2.58-.46.5-.93,1-1.38,1.51s-1.21,1.05-1.33,1.92c-1.12,1.11-1.65,2.7-2.94,3.7a4.61,4.61,0,0,0-.88,1,2.15,2.15,0,0,0-.17.64,3.18,3.18,0,0,1-.28,1c-.33.46-.8.81-1.14,1.27s-.68,1.15-1.08,1.69-.82.8-1.16,1.26-.7,1.14-1.08,1.69a16.94,16.94,0,0,1-2.45,3.21,1.56,1.56,0,0,0-.36,1.27,2.19,2.19,0,0,1,0,.68c-.06.21-.16.5-.32.56-.82.31-1.5,1-2.5.87a8.61,8.61,0,0,0-1.45,0c-.39-.33-.82-.7-1.24-1.08a1.93,1.93,0,0,1-.65-1.5,3.4,3.4,0,0,0-.37-.93c-.42-1.12-.56-2.24.52-3.07,1.29-1,1.89-2.52,2.94-3.7a2.13,2.13,0,0,0,.41-1.26c0-.21.16-.53.29-.56,1-.2,1-1.12,1.46-1.73a9.93,9.93,0,0,1,1.08-1.7,7.37,7.37,0,0,0,2.27-2.91l2.62-2.7c.15-.17.37-.34.4-.54.15-.88.91-1.28,1.38-1.9s1-1.52,1.55-2.18a21.69,21.69,0,0,0,1.57-2.17c.53-.74,1-1.48,1.47-2.26a2.52,2.52,0,0,0,.29-1.3,4.28,4.28,0,0,0,1-.16.82.82,0,0,0,.3-.54.54.54,0,0,0-.59-.6c-.19,0-.47.15-.53.3a3.72,3.72,0,0,0-.18,1,1.77,1.77,0,0,0-1.28.36q-4.6,4.59-9.22,9.18c-.16.16-.37.35-.39.54-.1.7-.7.79-1.13,1.11a18,18,0,0,0-1.75,1.63,9.28,9.28,0,0,0-1.65,1.73,4.84,4.84,0,0,1-1.57,1.64c-.32,1.29-1.76,1.78-2.17,3s-1.88,1.68-2.12,3a7.11,7.11,0,0,1-1.72,1c-.3-.17-.6-.47-.89-.47a2.15,2.15,0,0,1-2.22-1.7,16,16,0,0,0-1.12-2.07,4.2,4.2,0,0,1,.7-1.49c1.21-1.12,1.5-2.76,2.45-4,.16-1,1-1.49,1.6-2.13,1.44-.55,2.34-1.75,3.38-2.78,3.09-3.05,6.14-6.13,9.22-9.19.4-.4.76-1,1.26-1.13a8.69,8.69,0,0,0,2.63-2.09c1.52-1.35,2.68-3.11,4.62-4l3.15-3.14a1.59,1.59,0,0,0,.3-1.28c.31,0,.62,0,.92-.07.09,0,.23-.17.22-.2s-.17-.35-.3-.38c-.49-.1-.75.17-.85.64-.34,0-.75-.05-1,.12-.85.56-1.83.86-2.7,1.36s-1.37,1.13-2.22,1.53A7.76,7.76,0,0,0,59.48,178c-.17.15-.34.3-.5.47a1.66,1.66,0,0,1-1.24.43,1.08,1.08,0,0,0-.62.22,10.87,10.87,0,0,1-1.81,1.55,8.36,8.36,0,0,0-2.16,1.6c-.25.23-.5.58-.79.64-.85.17-1.24,1.05-2,1.27a7.25,7.25,0,0,0-1.94,1.33,1.18,1.18,0,0,1-.63.2,1.46,1.46,0,0,0-1.23.45c-.57.8-1.51,1-2.29,1.42a4.66,4.66,0,0,0-1.66,1.11c-.63.89-1.66,1.15-2.51,1.68-.47.3-1,.52-1.44.86a14.83,14.83,0,0,0-2.93,2.25,2.46,2.46,0,0,1-.86.51c-2.42,1.16-4.75,2.5-7.22,3.57a1.73,1.73,0,0,0-.28.19,1.75,1.75,0,0,1-2.2-.13c-.43-.32-1.07-.3-1.24-1s-.79-1.1-.67-1.87c.07-.45,0-.92,0-1.37a1.44,1.44,0,0,1,.73-1.1c.67-.4,1.39-.71,2.09-1.06a22.44,22.44,0,0,0,3.26-1.72,15.41,15.41,0,0,1,2.89-1.72,1.14,1.14,0,0,0,.65-.72.91.91,0,0,1,.41-.51,17.65,17.65,0,0,0,1.81-.85c.66-.45,1.16-1.12,1.83-1.54s1.58-.84,2.35-1.27a18.61,18.61,0,0,0,2.38-1.91c.08-.06.24,0,.33-.07L45.61,179c.29-.16.64-.23.91-.41.75-.52,1.19-1.4,2.09-1.73s1.58-1.27,2.34-1.93c.35-.3.65-.64,1-1a8.22,8.22,0,0,1,2.37-1.19,2.14,2.14,0,0,0,1.25-.45c1.06-1,2.55-1.48,3.46-2.69a8,8,0,0,0,2.24-1.49,3.93,3.93,0,0,1,1.2-.58c.93-.35,1.71-1.14,2.8-1.05l1.8-.92a8.29,8.29,0,0,0,1.48-.77c.59-.47,1.33-.17,1.93-.55a16.79,16.79,0,0,1,2.41-1.18c.72-.3,1.35-.84,2.08-1.1a9.58,9.58,0,0,0,2.5-.9,3.44,3.44,0,0,1,1.2-.62,8,8,0,0,1,1.7-.07A3.51,3.51,0,0,1,83,162c.26.37.62.68.86,1.07A6.19,6.19,0,0,1,85,165.81c0,.56.51.63,1,.72.9.16,1,.26,1,1,0,.34-.1.77.06,1A15.1,15.1,0,0,1,88,171.1a3.61,3.61,0,0,1,.43,1.6A3.46,3.46,0,0,1,88,175s.26.42.37.4c.88-.15,1.47.53,2.21.75a1.05,1.05,0,0,1,.65.71,9,9,0,0,0,.64,1.18v5.14a1.42,1.42,0,0,1-.22,1,2.31,2.31,0,0,0-.46,1.59,1.89,1.89,0,0,1-.14,1,3.21,3.21,0,0,0-.53,1.93,13.74,13.74,0,0,1-.11,2.72c-.08.52-.62.94-.58,1.56s-.52,1-.63,1.54,0,1.37-.09,2.05a3.81,3.81,0,0,1-.38.92c-.39,1-1.21,1.93-1,3.17a1,1,0,0,1-.19.63,2.44,2.44,0,0,0-.46,1.59,1.85,1.85,0,0,1-.28,1.3,1.88,1.88,0,0,0-.41,1.27c0,.57,0,1.14,0,1.71a1.88,1.88,0,0,1-.2,1c-.4.68-.75,1.39-1.12,2.08.24,1-.48,1.74-.85,2.52a29.58,29.58,0,0,1-1.31,2.72,3.53,3.53,0,0,0-.62,2.23,3.62,3.62,0,0,1-.48,1.93c-.84,1.7-1.75,3.38-2.55,5.11-.13.3-.43.54-.39.92.07.61-.31,1-.54,1.56a4.29,4.29,0,0,1-.88,1.43,4.18,4.18,0,0,0-1.25,2.34A14.55,14.55,0,0,1,75,233.73a8.66,8.66,0,0,0-1,2.13,2.34,2.34,0,0,1-.65,1.51,5.48,5.48,0,0,0-.94,1c-.56,1-1.31,1.85-1.21,3.08a1.63,1.63,0,0,1-.22,1,7.7,7.7,0,0,0-1.1,2.43,10.24,10.24,0,0,1-1.2,2.77c-.31.71-.16,1.56-.74,2.22-.19.2-.15.64-.14,1a3.09,3.09,0,0,1-.49,1.58,5.37,5.37,0,0,0-.91,3.2.91.91,0,0,1-.25.6,2.49,2.49,0,0,0-.43,1.61,1.8,1.8,0,0,1-.2,1c-.64.84-.27,2.05-1.09,2.8,0,.69,0,1.37-.1,2.05a4.4,4.4,0,0,1-.33.94,4,4,0,0,0-.3.95,5.52,5.52,0,0,0,.86,4.2,9,9,0,0,0,.68,1.52C65.37,271.31,65.51,271.33,65.61,271.38ZM265.48,639.24c.62-.49.75-1.33,1.36-1.83a1.67,1.67,0,0,0,.47-1.23,2.87,2.87,0,0,1,.37-.92q1.6-3.33,3.23-6.64c.15-.31.46-.61.44-.89a6.93,6.93,0,0,1,.74-2.91c-.17-.77.67-1.23.63-1.89a4.63,4.63,0,0,1,.82-2.19,7.36,7.36,0,0,0,.7-2.22,3,3,0,0,0,.61-2.24,1.25,1.25,0,0,1,.18-.63,2.6,2.6,0,0,0,.48-1.6,3.4,3.4,0,0,1,.65-2.57c-.09-1.27,1-2.29.76-3.6a.38.38,0,0,1,.08-.31,3.1,3.1,0,0,0,.59-2.26c0-.72.73-1.13.67-1.89a2.45,2.45,0,0,1,.46-1.93,1.42,1.42,0,0,0,.22-1c0-.91,0-1.83,0-2.74a1.3,1.3,0,0,1,.2-.63,2.74,2.74,0,0,0,.45-1.6c0-.67-.2-1.42.31-2s.14-1.59.73-2.23a1.69,1.69,0,0,0,.3-.93c.07-.57.05-1.14.07-1.71a.78.78,0,0,1,.67-.65,4.11,4.11,0,0,1,1.66.12,5.59,5.59,0,0,0,1.93.58c.18,0,.47.28.47.43,0,1,.27,2.05-.33,3a2.23,2.23,0,0,0-.28,1,12.89,12.89,0,0,0,0,2.06c.07.75-.74,1.17-.65,1.88s-.57,1.23-.67,1.88,0,1.37-.07,2a1.2,1.2,0,0,1-.27.61,1.08,1.08,0,0,0,0,1.52.84.84,0,0,1,0,1.21c-.65.71-.22,1.81-.92,2.5a.54.54,0,0,0-.12.31c-.05.79-.09,1.58-.14,2.38a3.12,3.12,0,0,0-.58,2.25,1,1,0,0,1-.18.63,2.67,2.67,0,0,0-.5,1.93c0,.57,0,1.14,0,1.71s-.07,1.13-.1,1.69c-.82.64-.34,1.76-.92,2.5a1.37,1.37,0,0,0-.33.93c0,1,0,2.06,0,3.09,0,.33.07.78-.11,1a3.54,3.54,0,0,0-.59,2.59,3.56,3.56,0,0,1-.5,2.28c-.4.58-.13,1.33-.17,2a3.29,3.29,0,0,1-.43,2,1.7,1.7,0,0,0-.27.95c0,1.48,0,3,0,4.45a.54.54,0,0,0,.15.3s.19,0,.22,0a21.61,21.61,0,0,0,1.66-3.25,2.09,2.09,0,0,1,.85-1.77,1.83,1.83,0,0,0,.53-1.55,1.92,1.92,0,0,1,.53-1.55,9.54,9.54,0,0,0,.8-1.09c-.2-.88.68-1.46.66-2.21s.8-1.41.73-2.22.81-1.36.83-2.18c.77-1.5,1.51-3,2.31-4.49a3,3,0,0,0,.31-1.3c0-.33-.05-.77.13-1,.7-.82.32-2,1.1-2.8,0-.94.72-1.7.75-2.55s.81-1.38.75-2.22,1-1.55.73-2.56a3.7,3.7,0,0,0,.65-2.57,3.51,3.51,0,0,1,.6-2.59c.18-.21.05-.66.09-1s0-.75.19-1c.68-.83.29-2,1.1-2.81,0-.68.05-1.36.1-2a1.14,1.14,0,0,1,.17-.64,2.9,2.9,0,0,0,.49-1.94,21.15,21.15,0,0,1,0-2.39,1.69,1.69,0,0,1,1-1.3,1,1,0,0,1,.94.13c.82.38,1.55.9,2.4,1.22a2,2,0,0,1,1.14,1.2,5.39,5.39,0,0,0,.43.91,1.53,1.53,0,0,1,0,1.61,3.09,3.09,0,0,0-.47,2,3,3,0,0,1-.63,2.23c0,.79,0,1.59-.1,2.38,0,.21-.22.4-.32.6a7.22,7.22,0,0,0-1,3.83,2.43,2.43,0,0,1-.35.94,2.37,2.37,0,0,0-.32,1.3c0,.91,0,1.83,0,2.74a4.14,4.14,0,0,1-.71,2.89,4.43,4.43,0,0,0-.65,2.57c.05.57,0,1.15,0,1.72s-.34,1-.91,1.22-.5.59-.18,1.13.57.84.21,1.23c-.74.8-.25,2-1.1,2.79,0,.57-.06,1.13-.06,1.7a1.88,1.88,0,0,1-.37,1.28,1.77,1.77,0,0,0-.34,1.28,2.26,2.26,0,0,1-.4,1.61,1.11,1.11,0,0,0-.23.61c0,.91,0,1.83-.05,2.74,0,.1.09.29.14.29s.44,0,.55-.07a14,14,0,0,0,1.85-2c.44-.68.09-1.56.22-2.34a1.15,1.15,0,0,1,.11-.31c.06-.09.12-.22.22-.26a2.17,2.17,0,0,0,1.16-1.11c.17-.35.72-.49,1-.8s.08-.93.31-1.27a3.45,3.45,0,0,0,.57-2.26,3.46,3.46,0,0,1,.06-1,.81.81,0,0,1,.43-.49,1.35,1.35,0,0,0,.81-.57,6.82,6.82,0,0,0,.74-1.51c.17-.65.76-1.08.78-1.85a3.85,3.85,0,0,1,.69-1.86,4.63,4.63,0,0,0,.66-2.23c.07-.64.62-1.26.6-1.88,0-.88.78-1.36.76-2.22s.73-1.61,1-2.44.94-1.36.93-2.14c0-1,1-1.58.75-2.56a5.82,5.82,0,0,0,.61-1.19,4,4,0,0,1,.4-1.62,1.68,1.68,0,0,0,.31-.94,3.38,3.38,0,0,1,.67-2.22c-.24-1,.65-1.66.75-2.56a7,7,0,0,1,1.2-2.76,1.07,1.07,0,0,0,.14-.64c-.16-.78.74-1.21.66-1.88-.12-.91.73-1.4.78-2.21a9.44,9.44,0,0,0,1.11-2.08c.43-.72.18-1.56.23-2.34,0-.5.48-.79.56-1.22.11-.66,0-1.37.14-2a15,15,0,0,1,.63-1.89,1.28,1.28,0,0,0,0-.34c0-2.86,0-5.71,0-8.57a1.46,1.46,0,0,0-.22-1,2.44,2.44,0,0,1-.43-1.6c0-3.66,0-7.31,0-11a6.07,6.07,0,0,0-.14-2.36c-.33-.83-1.23-.93-1.86-1.37-.37-.26-.66-.69-1.06-.86a21.67,21.67,0,0,1-3.47-2.05c-1.09-.75-2.42-1.15-3.59-1.81s-2.71-1.11-3.77-2.21c-.21-.22-.61-.25-.91-.4-.59-.31-1.18-.65-1.77-1s-1.19-.63-1.8-.93a10.78,10.78,0,0,1-2.1-1c-.61-.48-1.32-.24-1.92-.58a32.88,32.88,0,0,0-3.61-1.81c-.61-.25-1.08-.76-1.85-.78a3.93,3.93,0,0,1-1.85-.7c-.58-.38-1.22-.6-1.81-.92a1.74,1.74,0,0,0-.92-.34c-.89.12-1.36-.83-2.23-.75s-1.39-.65-2.15-.9a4.41,4.41,0,0,0-1.59-.46c-.57,0-1.14,0-1.71,0-.12,0-.23,0-.35,0a.84.84,0,0,0-.6.7,2.9,2.9,0,0,1-1.05,2.73c-.23.19-.25.63-.44.89s-.57.83-.95.95a5.69,5.69,0,0,0-2.14,1.63,5.82,5.82,0,0,0-1.86,2.37,1.81,1.81,0,0,1-1.28,1,1.68,1.68,0,0,0-1,.86,7.12,7.12,0,0,1-1.82,2.41c-.29.33-.4.81-.69,1.13s-.81.44-1.06.78a9.33,9.33,0,0,1-3.26,3.23.69.69,0,0,0-.23.25.78.78,0,0,0,0,.34,1.74,1.74,0,0,1-1.21,1.85,2.42,2.42,0,0,0-1.61,1.59.75.75,0,0,1-.78.52,1.21,1.21,0,0,0-1,.22L251,557.4c-.41.39-.79.83-1.24,1.18s-1.14.7-1.69,1.07a1.45,1.45,0,0,0-.43.52c-.25.49-.36,1.1-1.08,1.13-.3.47-.57,1-.91,1.39a1.35,1.35,0,0,1-1.15.62,1.31,1.31,0,0,0-1,.24c-.6.51-1.09,1.19-2,1.27-.75.95-2.15,1.18-2.63,2.48a1.41,1.41,0,0,1-1.39.82c-.34,0-.78,0-.88.36-.28,1-1,1.07-1.86,1a1.57,1.57,0,0,0-1.6,1,1.3,1.3,0,0,1-1.49,1,1.83,1.83,0,0,0-1.3.28,1.81,1.81,0,0,1-1.27.4c-.34,0-.77-.11-1,.06a4.52,4.52,0,0,1-2.58.67,1.74,1.74,0,0,0-1.3,1c-.26.42-.13,1.46.24,1.54,1,.2,1.43,1.1,2.4,1.57,2.12,0,4.41,0,6.69,0a3.37,3.37,0,0,0,1.89-.63,15.09,15.09,0,0,0,2.1-1c.77-.64,1.83-.19,2.51-.91a1.19,1.19,0,0,1,1-.26,3,3,0,0,0,1.92-.51,4.16,4.16,0,0,1,1.84-.78c1-.1,1.8-1,2.89-.81.74-.84,2-.39,2.78-1.12,1.11-.19,2.23-.51,3.26.26.18.13.37.07.57-.13a1.7,1.7,0,0,0,.66-1.14c0-.91,0-1.83,0-2.74a1.92,1.92,0,0,1,.19-1,3.13,3.13,0,0,0,.48-1.94c0-1-.16-2.08.64-2.92,0-.57,0-1.14.13-1.71,0-.18.28-.46.44-.47,1,0,2,0,3.06,0,.1,0,.2.1.29.17a1.91,1.91,0,0,1,.92,1.36c.06.78-.19,1.61.26,2.33a2.88,2.88,0,0,1,.44,1.61c0,2.74,0,5.48,0,8.18-.64,1.35-1.55,2.56-1.39,4.14a1.07,1.07,0,0,1-.28.6,1.79,1.79,0,0,0,0,2.21,1.83,1.83,0,0,1,.26.95c0,1.6,0,3.2,0,4.8a3.36,3.36,0,0,1-.46,1.95,1.85,1.85,0,0,0-.21,1c0,1.49,0,3,0,4.45a1.42,1.42,0,0,1-.21,1,2.37,2.37,0,0,0-.48,1.59c0,1.83,0,3.65,0,5.48a1.82,1.82,0,0,1-.16,1,4,4,0,0,0-.5,2.63,3.1,3.1,0,0,1-.59,2.25.76.76,0,0,0,0,.64c.17.41.55.72.55,1.22,0,1.49,0,3,0,4.45a1.12,1.12,0,0,1-.2.63,2.45,2.45,0,0,0-.47,1.94,2.55,2.55,0,0,1-1,2.41,2,2,0,0,0-.34.52c0,1.07,0,2.1,0,3.13a1.94,1.94,0,0,1-.45,1.25,1.5,1.5,0,0,0-.14,1.6c.38.81.84,1.59,1.22,2.31,0,.66,0,1.23,0,1.8a5.88,5.88,0,0,0,.12,2c.38.71,1.14,1.11,1.34,2,.11.46.87.61,1.48.37.19-.07.44-.29.45-.46.07-.79.05-1.59.07-2.39a1.54,1.54,0,0,1,.21-1,2.43,2.43,0,0,0,.43-1.6c0-1.94,0-3.89,0-5.83,0-1.23-.21-2.51.66-3.6.06-.07,0-.22,0-.34a3.91,3.91,0,0,1,.4-2,13.82,13.82,0,0,0,.63-1.88,2.85,2.85,0,0,0,.36-1.29c0-.34-.11-.81.07-1,.8-.88.62-1.92.63-2.93a2.49,2.49,0,0,1,.48-1.24c.35-.59.05-1.34.56-1.93s.3-1.53.3-2.31a5.45,5.45,0,0,1,.63-2.24c.21-.49.07-1.12.46-1.6s.22-1.32.33-2a1.59,1.59,0,0,1,.27-.61,2,2,0,0,0,.38-1.28c0-.34-.1-.79.07-1,.83-1,.59-2.16.62-3.28a2.54,2.54,0,0,1,.48-1.59,1.56,1.56,0,0,0,.18-1c.05-1.25.07-2.5.11-3.75,0-.23.6-.56.82-.46.41.19.8.57,1.2.58a5.55,5.55,0,0,1,2.45,1c.55.29,0,1.1.45,1.55.07.09.12.2.18.29a1,1,0,0,1,0,1.24,2.08,2.08,0,0,0-.37.92c-.06.68,0,1.37,0,2.06a1.39,1.39,0,0,1-.22,1,2.57,2.57,0,0,0-.46,1.94,2.71,2.71,0,0,1-.48,1.93c-.26.29-.17.65-.19,1s.12.81-.05,1c-1,1.08-.55,2.38-.68,3.59,0,.45.1,1-.13,1.33-.78,1-.41,2.2-.57,3.3a2.54,2.54,0,0,1-.39.56,2.49,2.49,0,0,0-.94,2.42,2.43,2.43,0,0,1-.79,2.14c-.71.73-.69.8-.13,1.73a.85.85,0,0,1,.05.95,2.48,2.48,0,0,0-.52,1.58c0,.56-.06,1.14,0,1.71.08.76-.61,1.2-.67,1.89-.11,1.22-1,2.28-.78,3.58,0,.09-.1.21-.18.29a2.22,2.22,0,0,0-.44,1.6,1.8,1.8,0,0,1-.16,1,3,3,0,0,0-.51,1.93c0,1.26.06,2.52,0,3.77s.36,2.74-.59,4a.66.66,0,0,0,.08.62C265.37,637.65,265,638.6,265.48,639.24Z"/><path class="cls-1" d="M191.47,486.56c.15.16.39.3.43.48a1.8,1.8,0,0,0,1.86,1.6c.67,0,1.41-.22,2,.19a3.3,3.3,0,0,0,2,.46c4,0,8,0,11.91,0a11.8,11.8,0,0,1,1.59.74,3.89,3.89,0,0,0,2.58.65,2.44,2.44,0,0,1,1.61.43,1.24,1.24,0,0,0,.62.21c.8,0,1.6,0,2.4,0a1.5,1.5,0,0,0,.92-.38,2,2,0,0,1,1.3-.3,2.73,2.73,0,0,0,1.61-.44,2.17,2.17,0,0,1,1-.25c.57,0,1.14,0,1.71,0,.69-.7,1.74-.46,2.5-.92.55-.33,1-.47,1.53,0a1.89,1.89,0,0,0,1.29.3l15.42,0c.45,0,.91,0,1.37,0a2,2,0,0,1,1.25.44.78.78,0,0,0,.94,0,2.72,2.72,0,0,1,3.19-.05,1.58,1.58,0,0,0,1.61,0,2.77,2.77,0,0,1,1.25-.48c1.59,0,3.19,0,4.79,0a2.23,2.23,0,0,1,1.25.47.8.8,0,0,0,.94,0,2.63,2.63,0,0,1,3.18,0,1.62,1.62,0,0,0,1,.21c1.94,0,3.88,0,5.82,0a1.91,1.91,0,0,1,1.28.38c.22.19.35.17.6,0A1.77,1.77,0,0,1,275,490a4.29,4.29,0,0,1,2.94.55c.24.19.65,0,.94-.21a1.77,1.77,0,0,1,2.2,0,1.59,1.59,0,0,0,1.91,0,1.16,1.16,0,0,1,1.54,0,1.28,1.28,0,0,0,.61.24c1.26,0,2.52,0,3.77,0a3.84,3.84,0,0,0,.95-.29,3.9,3.9,0,0,1,.95-.31c1.14,0,2.28,0,3.42-.06a1.8,1.8,0,0,0,1-.24,3.05,3.05,0,0,1,1.95-.42,3.21,3.21,0,0,1,1.94.49,1.4,1.4,0,0,0,1.6-.05,2.57,2.57,0,0,1,2.88-.09,1.18,1.18,0,0,0,1.53-.11.76.76,0,0,1,.95-.08,3.54,3.54,0,0,0,3.55.21,5.19,5.19,0,0,1,2-.36c.68,0,1.42.21,2-.2a3.45,3.45,0,0,1,2.27-.5c1,0,2,.05,3.05.08.26,0,.54.61.37.82s-.54.82-.91,1a5.56,5.56,0,0,0-1.67,1.14,4.46,4.46,0,0,1-1.62,1.2c-.62.19-.52,1.28-1.39,1.3l-2.75,2.57c-.66.61-1.18,1.38-2.14,1.62-.3.08-.53.42-.78.65-1.18,1-2.13,2.35-3.65,3-.39.17-.66.62-1,.92a5.86,5.86,0,0,1-2.13,1.64c-.4.12-.7.56-1,.88-1.06,1-2.1,2.09-3.15,3.14-.65.64-1.29,1.3-2,1.92a5.55,5.55,0,0,1-1.84,1.48c-.89.3-1.32,1.25-2.1,1.7a9.41,9.41,0,0,0-2.18,1.58,13,13,0,0,1-2,1.88,13.85,13.85,0,0,0-1.95,1.31c-.31.29-.82.38-1.17.64s-.82.79-1.25,1.17c-1.19,1-2.1,2.41-3.65,3l-2.69,2.64-1.2,1.12h-2.55l-2.27,2c-1.22.27-1.78,1.35-2.58,2.13-.31.29-.4.8-.66,1.16a1.75,1.75,0,0,1-1.72.89,3.11,3.11,0,0,0-.68,0c-.37,0-.71.25-.72.57a2.33,2.33,0,0,1-.73,1.82c-.68.6-1.3,1.28-1.93,1.94s-1.42,1.16-1.61,2.14c-.63.66-1.23,1.35-1.9,2-.31.29-.81.4-1.12.7a12.65,12.65,0,0,0-.7,1.13,1.85,1.85,0,0,1-.8.62,1.48,1.48,0,0,0-.79.57c-1.45,2-1.47,2-3.81,3.71a8.74,8.74,0,0,0-1,.91l-2.93,2.89c-.57.56-1.1,1.16-1.71,1.67s-1.18.66-1.68,1.09a19.45,19.45,0,0,1-1.65,1.14c-.43.3-.49.91-1.13,1.15s-1,.85-1.56,1.3a3.42,3.42,0,0,1-.8.63,8.24,8.24,0,0,0-2.35,1.24c-.77.7-1.79,1-2.52,1.71s-1.66.74-2.2,1.54c-1.09.57-2.17,1.16-3.28,1.7a10.09,10.09,0,0,0-2.88,1.7,1.89,1.89,0,0,1-.91.4,6.06,6.06,0,0,0-3.46,1.94,1.6,1.6,0,0,0-.44,1.24.91.91,0,0,1-.47.84c-.27.19-.64.26-.89.46a1.53,1.53,0,0,0-.68,1.13c0,1.14,0,2.28,0,3.49,1.83,2.14,3.95,4,5.84,6h4.32c.34,0,.78-.08,1,.09.9.73,1.93.54,2.94.58a3.11,3.11,0,0,0,1.94-.46,2.71,2.71,0,0,1,1.32-.2,1.52,1.52,0,0,0,1.23-.46,5.91,5.91,0,0,1,2.27-1.43c.8-.36,1.52-1,2.5-.9.78-.76,2-.44,2.8-1.08a2.06,2.06,0,0,1,1.31-.25,3.47,3.47,0,0,0,2.28-.48,1.8,1.8,0,0,1,1-.18c1,0,2.06,0,3.09,0a3.41,3.41,0,0,0,2.24-.61c.32-.23.93.27.9.7a2,2,0,0,1-.14,1,3.11,3.11,0,0,0-.48,1.94c0,2.51,0,5,0,7.53-.05,1.45.4,3-.55,4.32-.17.24-.08.66-.08,1,0,1.37,0,2.74-.05,4.11a2,2,0,0,1-.18,1,3.6,3.6,0,0,0-.47,2.28c0,3.66,0,7.31,0,11a3.36,3.36,0,0,1-.42,1.61c-.4.79-.25,1.8-.92,2.5,0,.69,0,1.37,0,2.06s0,1.6,0,2.4a2.08,2.08,0,0,1-.43,1.25c-.43.68-.14,1.6-.77,2.21a4.75,4.75,0,0,0,.11,3,2.93,2.93,0,0,1,.41,1.27c0,.8,0,1.6,0,2.39a1.93,1.93,0,0,0,.18,1,3.33,3.33,0,0,1,.49,2.27c0,.57,0,1.13,0,1.74a16.22,16.22,0,0,0,1.95,1.94,4.7,4.7,0,0,0,3.07,1.21c1.13-.08,2.28,0,3.42,0s1.77.67,1.82,1.95c0,.23,0,.46,0,.69a2.42,2.42,0,0,0,.43,1.6,8.42,8.42,0,0,1,.58,1.21c1.26,2.48,1.31,2.07,3.7,2.09.49,0,.8-.37,1.12-.7a1.09,1.09,0,0,0,.21-.27c1-2.35,2.26-4.62,3.41-6.92a5.9,5.9,0,0,0,.26-1.29c0-.09.16-.15.25-.23.12.16.34.31.34.48,0,.91,0,1.82,0,2.74a3.56,3.56,0,0,0,.63,2.57c0,1.88,1.45,2.73,2.76,3.58A3.33,3.33,0,0,0,278,647a8.83,8.83,0,0,1,1.79,0,9.39,9.39,0,0,1,1.54-1.24c.52-.27,1-.45,1.08-1.11.62-.67.69-1.68,1.44-2.27a1.6,1.6,0,0,0,.55-1.2,2.12,2.12,0,0,1,.3-1,9.48,9.48,0,0,0,1.27-3.45l1.71,1.33c1.6,0,3.2-.06,4.79,0,1.13.06,1.86-.75,2.81-1.05,1.21-1.33,2.87-2.26,3.56-4,.7-.76,1.37-1.53,2.09-2.26a2.88,2.88,0,0,0,.66-1.5,17.59,17.59,0,0,1,.94-2.14c.36-.93,1.09-1.71,1.1-2.79,0-.19.21-.51.36-.53.86-.11.88-.93,1.28-1.43a1.73,1.73,0,0,0,.36-1.28c0-.34-.12-.76,0-1a15.86,15.86,0,0,1,1-1.78c.49-.59.18-1.35.58-1.92a3.18,3.18,0,0,1,.44-.53c.73-.6.85-1.57,1.36-2.31.23-.33-.09-.93.33-1.26s.71-.5,1.08-.75c0-.5,0-1,0-1.41,0-.69,0-1.3.86-1.6.48-.16,1.17-1.86,1.19-2.32a8.87,8.87,0,0,0,0-1,3.18,3.18,0,0,1,.62-2.56c-.18-1.08.88-1.85.75-2.92a3.73,3.73,0,0,0,.68-2.55c-.09-.51.29-.85.61-1.16a2.07,2.07,0,0,0,.73-1.82c0-.32,0-.78.15-1,.78-.76.43-1.72.62-2.67.25-.29.55-.63.84-1a2.22,2.22,0,0,0,.38-.56c.16-.53,0-1.14.42-1.61a1.64,1.64,0,0,0,.35-1.28c0-.63.64-.93.68-1.51,0-.35,0-.69,0-1a2.52,2.52,0,0,1,.29-.94,2.16,2.16,0,0,0,.38-1.28c0-.34-.11-.79.07-1,.83-1,.58-2.16.59-3.28,0-2.39,0-4.79,0-7.19,0-1,.15-2.06-.66-2.9a3.87,3.87,0,0,0-.52-1.92,2.26,2.26,0,0,1,.12-2.27,2,2,0,0,0,0-2.22c-.47-1-.65-2.12-1.18-3.1-.38-.69-.79-1.36-1.14-2.07a.87.87,0,0,1,.08-.64c.29-.61.63-1.19.94-1.79a2.48,2.48,0,0,0,.24-.62c.09-.55-.17-1.19.21-1.66a4.27,4.27,0,0,1,2-1.75,2.52,2.52,0,0,0,.83-.57,8.15,8.15,0,0,1,1.85-1.47c.7-.29,1.24-1,1.94-1.3s1.16-1.09,1.9-1.39a5.16,5.16,0,0,0,.63-.22c.86-.54,1.3-1.59,2.38-1.88.88-.24,1.28-1.26,2.26-1.45.39-.07.7-.55,1-.87a5.81,5.81,0,0,1,1.94-1.32,7.14,7.14,0,0,0,2.52-1.66c1-.17,1.51-1,2.17-1.55a2.47,2.47,0,0,1,1.13-.73c.5-.11.51-.67.76-1a.65.65,0,0,1,.59-.27,1.42,1.42,0,0,0,1-.2l2-1.8c1-.16,1.44-1.06,2.16-1.58.54-.39,1.17-.66,1.7-1.06s.8-.81,1.25-1.17a6.16,6.16,0,0,1,.9-.41,16.05,16.05,0,0,0,1.76-1,7.48,7.48,0,0,1,1.65-1.12c.6-.23,1-.88,1.53-1.34l1.27-1.14c1-.08,1.39-1.2,2.24-1.44a6.4,6.4,0,0,0,1.68-1.12,2.07,2.07,0,0,1,.94-.29,1.83,1.83,0,0,0,1.2-.54,5.76,5.76,0,0,1,1.06-.84,4,4,0,0,1,1.51-.66,2.39,2.39,0,0,0,1.78-.85,5.27,5.27,0,0,1,2.48-1.69c1-.31,1.6-1.23,2.54-1.63a6.09,6.09,0,0,0,2.33-1.3,2.51,2.51,0,0,1,2.16-.77.92.92,0,0,0,1-.69,1.81,1.81,0,0,1,1.77-1.34,1.49,1.49,0,0,0,.91-.35,4.51,4.51,0,0,0,1.49-1.82,2.82,2.82,0,0,1,.84-1c.37-.37,1.07-.29,1.22-1s.91-.55,1.33-.92a7.31,7.31,0,0,1,1.35-1,1.31,1.31,0,0,0,.68-.67,2,2,0,0,1,2.06-1.45c.19,0,.52-.19.54-.33.15-.84.9-.92,1.45-1.26,1.05-.66,2.26-1,3.27-1.75a2,2,0,0,0,1.65-1.51,1.14,1.14,0,0,1,.74-.6,27.27,27.27,0,0,0,2.7-1.36,4,4,0,0,0,1.05-.83c.21-.24.23-.67.47-.86a6.36,6.36,0,0,1,1.42-.85c.52-.24,1-.58,1.49-.77a1.93,1.93,0,0,0,1.13-1.11,2,2,0,0,1,1.28-1.06.91.91,0,0,0,.65-.69,1,1,0,0,1,1-.68l1,0a.74.74,0,0,1-.64.67.83.83,0,0,0-.8.89,4,4,0,0,0,.47,1.95c1.13,2.19,2.13,4.45,3.3,6.63.33.62.25,1.34.64,1.9A4.79,4.79,0,0,1,414.8,502a15.28,15.28,0,0,1,1.29,3.09,13.63,13.63,0,0,0,1.42,3.05,17,17,0,0,1,.65,1.89c.55,1.23.85,2.55,1.46,3.75.71,1.39,1,3,1.86,4.31-.06,1,.61,1.68.91,2.52a22.86,22.86,0,0,1,1.19,2.77,10.49,10.49,0,0,0,1.11,2.44,19.82,19.82,0,0,1,1.54,3.35,9.71,9.71,0,0,0,1.28,2.72,27.55,27.55,0,0,1,1.5,2.64c.56,1.09,1.12,2.19,1.7,3.27,0,.08.2.1.3.14a9.23,9.23,0,0,0,.41,1.29c.58,1.1,1.18,2.2,1.83,3.27s.78,2.63,1.86,3.59l1.8,3.67a12.19,12.19,0,0,1,1.06,2.49,4.39,4.39,0,0,0,.72,1.53,30.26,30.26,0,0,1,2.24,4.53c.73,1.42,1.44,2.84,2,4.31a41.31,41.31,0,0,0,2.44,5.22c.63,1.08.72,2.38,1.48,3.41a13.42,13.42,0,0,1,1.45,3.06c.4,1,1.32,1.86,1.35,3.08.46.91.87,1.85,1.4,2.72.65,1.08.82,2.34,1.39,3.46s.79,2.11,1.23,3.15a6.2,6.2,0,0,1,.71,2.6,1.7,1.7,0,0,0,.18,1c.58.77.43,1.75.88,2.56.9,1.58,1.23,3.4,2,5a25.19,25.19,0,0,1,1,3.24,42.57,42.57,0,0,0,1.7,4.79c.52,1.14.6,2.41,1.07,3.57a9.33,9.33,0,0,1,.7,2.62c.07.83.58,1.47.72,2.26a5.54,5.54,0,0,0,1.26,2.76,15.54,15.54,0,0,1,2,3.89c.15.3.16.67.28,1,.58,1.46,1.94,2.56,1.91,4.29.63,1.34,1,2.78,1.64,4.1,1.21,2.57,1.92,5.32,3,8a3.16,3.16,0,0,1,.23,1,3.24,3.24,0,0,0,.67,1.89,2.35,2.35,0,0,1,.52,1.59,1.25,1.25,0,0,0,.08.67,6.75,6.75,0,0,1,.68,4.3,1.25,1.25,0,0,0,.08.67c1.07,1.81.47,3.81.63,5.71a49,49,0,0,1-.08,5.81,4.87,4.87,0,0,1-.5,2.65.74.74,0,0,0-.09.33,7.46,7.46,0,0,1-1.11,3.88c-.68,1-.93,2.32-1.86,3.22a3.58,3.58,0,0,0-.52.87,13.72,13.72,0,0,0-1.53,2.65c-.67.61-1.35,1.22-2,1.84a3.6,3.6,0,0,0-1.22,2,2.23,2.23,0,0,1-1.72,1.91c-1,.26-1.71,1.11-2.73,1.34-.31.07-.57.36-.94.18a2.28,2.28,0,0,0-2.27.13,5.79,5.79,0,0,1-1.91.7,2.62,2.62,0,0,1-2-.18,5.33,5.33,0,0,0-1.23-.58,4,4,0,0,0-1.3-.33c-3.2,0-6.39,0-9.58,0a3.69,3.69,0,0,0-2,.39,3.9,3.9,0,0,0-1.63-.42c-1.6,0-3.21,0-4.79.13a6.47,6.47,0,0,1-2.28,0,2,2,0,0,0-.67.07,13.45,13.45,0,0,0-3-.2,3.46,3.46,0,0,0-1.93.49,1.62,1.62,0,0,1-1.62-.07,2.07,2.07,0,0,0-2.24-.08,3.21,3.21,0,0,1-2.3.22c-.75-.71-1.69-.52-2.58-.53h-9.18c-.56,0-1.12.1-1.68.15a10.38,10.38,0,0,0-1.35-.17c-1.71,0-3.42,0-5.13,0A5.7,5.7,0,0,0,398,681a1.25,1.25,0,0,1-.66.14,32.77,32.77,0,0,0-4.43.09,1,1,0,0,1-.64-.17,3.44,3.44,0,0,0-1.94-.48c-2.73,0-5.47,0-8.2,0a4.71,4.71,0,0,0-2,.38,1.82,1.82,0,0,1-1.65-.08c-.47-.27-.86.06-1.28.07s-.63-.26-1-.3a5.16,5.16,0,0,0-1.36,0c-.65.07-1.22.67-2,.26s-1.28.26-1.9-.22c-.23-.18-.66-.13-1-.13l-4.44,0-7.85.06a2.78,2.78,0,0,0-1,.11,1.47,1.47,0,0,1-1.28,0,1.44,1.44,0,0,0-1-.13,7.71,7.71,0,0,1-5.63,0,1,1,0,0,0-.34,0c-1.83,0-3.65,0-5.47,0a6.26,6.26,0,0,0-1.31.32,1.24,1.24,0,0,1-1-.08,2.84,2.84,0,0,0-1.65-.29c-.6,0-1.08.45-1.62.47s-1.08-.36-1.63-.39c-1.14-.07-2.28,0-3.42,0-1,.6-1.91.23-2.91,0a7,7,0,0,0-3.7.29,3,3,0,0,1-2.64-.22,2.13,2.13,0,0,0-1.66-.08,3.18,3.18,0,0,1-2.63,0c-.08-.06-.22,0-.33,0l-2,0a10,10,0,0,0-2,.24,8.91,8.91,0,0,1-1.94-.23,15.3,15.3,0,0,0-2,.17c-.11,0-.25-.13-.33-.1-.61.25-1.15.6-1.87.1a2.33,2.33,0,0,0-2.3-.06,5.51,5.51,0,0,1-2.32.42h-5.13c-1.14,0-2.29,0-3.43,0s-2.28.3-3.34-.36c-.12-.08-.41.07-.59.17a2,2,0,0,1-1.65.06,5.05,5.05,0,0,0-1.27-.4,6.16,6.16,0,0,0-2.38.11,1.91,1.91,0,0,0-1.33.1,1.69,1.69,0,0,1-1.31.1,6.51,6.51,0,0,0-4.66.11,1.19,1.19,0,0,1-.66-.07c-.22-.06-.48-.28-.64-.22a4.26,4.26,0,0,1-3.61-.08,2,2,0,0,0-1.65.21,2.06,2.06,0,0,1-2,0,1.51,1.51,0,0,0-1.31-.07,4.31,4.31,0,0,1-3.63,0,3,3,0,0,0-2.33,0,4.08,4.08,0,0,1-3.3,0,2.18,2.18,0,0,0-1.66.08,4.64,4.64,0,0,1-3.34.08,1.67,1.67,0,0,0-1.28.09,2,2,0,0,1-1.65-.1,1.32,1.32,0,0,0-1.29,0,2.47,2.47,0,0,1-2,.11,1.1,1.1,0,0,0-.94,0,2.84,2.84,0,0,1-2,0,15.38,15.38,0,0,0-5.4-.11,6,6,0,0,1-3.65,0,7.34,7.34,0,0,0-1.68-.19c-.9,0-1.67.64-2.65.53a16.65,16.65,0,0,0-2.72.14,3.43,3.43,0,0,0-.34.06c-.74-.24-1.55-.1-2.27-.58a1.55,1.55,0,0,0-1.61,0,3.2,3.2,0,0,1-1.26.39c-.91,0-1.81,0-2.71,0a2.07,2.07,0,0,1-1-.24,1.32,1.32,0,0,0-1.56,0,1.52,1.52,0,0,1-1.6.09,5,5,0,0,0-3.9-.1,2.11,2.11,0,0,1-1.31.22l-6.77.07c-.7-.29-.72-.26-1.9-.2a9.8,9.8,0,0,1-4.06-.28,3.18,3.18,0,0,0-2,0,9.53,9.53,0,0,1-3,.33c-.23,0-.68.41-.68.63,0,.8-.09,1.6-.07,2.4.13,5.13-.07,10.26-.06,15.39,0,.23,0,.46,0,.68.29,3.76,0,7.53.08,11.29.06,4.56-.07,9.12-.07,13.68,0,4.91.21,9.81.09,14.72-.14,6.27,0,12.54-.09,18.81-.05,2.74.07,5.48.07,8.22,0,3-.07,5.93-.07,8.89a6,6,0,0,1-.35,2.34,1.9,1.9,0,0,0,0,1.33,6,6,0,0,1,.37,2.34c0,2.17,0,4.33,0,6.5a1.48,1.48,0,0,1-.08.67c-.73,1.52-.45,3.13-.43,4.72,0,3.19,0,6.38,0,9.58a4.55,4.55,0,0,0,.36,2.33.84.84,0,0,1,0,.66c-.66,1.3-.4,2.68-.41,4-.06,6.27-.13,12.54-.17,18.81,0,2.63.05,5.25.05,7.88,0,1.25-.05,2.51-.06,3.76,0,1.94,0,3.88,0,5.81a7.14,7.14,0,0,1-.46,3c-.46,1,.5,1.94.49,3l-.06,6.85a2.91,2.91,0,0,1-.26,1.32,2.56,2.56,0,0,0-.27,1c0,1.37,0,2.74,0,4.1a2.2,2.2,0,0,0,.2,1,1.71,1.71,0,0,1,0,1.63,2.86,2.86,0,0,0-.19.65,1,1,0,0,0,.4,1.2,1.62,1.62,0,0,1,.95,1.66,3.58,3.58,0,0,1-.45,2c-.12.19-.18.42-.31.61a4.44,4.44,0,0,0-.67,2.59,1.54,1.54,0,0,1-1.31,1.37,12.44,12.44,0,0,1-1.37.09,5.06,5.06,0,0,0-2.62.64A1.3,1.3,0,0,1,185,879a1.72,1.72,0,0,0-1.26-.39H173.27l-9.88-.06c-3.41,0-6.83-.1-10.23,0s-6.81-.1-10.23,0c-4.77.13-9.55,0-14.32,0-1.71,0-3.41.11-5.11.07-6.26-.13-12.51-.1-18.76-.08h-2c-.79,0-1.58,0-2.36,0s-1.15-.7-1.86-.66c-.33,0-.67,0-1,0-.53,0-.78.35-.95.78a4.06,4.06,0,0,0-.68-.08c-3.76.13-7.52-.18-11.28,0-2.73.13-5.47,0-8.2,0-1.94,0-3.88-.05-5.82,0a4,4,0,0,1-3.34-3.35,6.44,6.44,0,0,1,.47-3.33,1.78,1.78,0,0,0,.15-1c-.26-2.51.11-5-.11-7.52,0-.23.1-.49,0-.68-1-2.3-.21-4.73-.48-7.09a2,2,0,0,1,.24-1,4.76,4.76,0,0,0,0-3.65,2.13,2.13,0,0,1,.06-2,1.58,1.58,0,0,0,.22-.64c0-1.6,0-3.19,0-4.79a.73.73,0,0,0-.09-.32A4.06,4.06,0,0,1,67.6,840a2.51,2.51,0,0,0-.17-2,.84.84,0,0,1-.06-.65c.61-1.07.29-2.23.32-3.35.08-4,0-8,.1-12a8.49,8.49,0,0,0-.36-2.68,4.65,4.65,0,0,1,.13-3.34,1.87,1.87,0,0,0,.19-.65,9.49,9.49,0,0,0-.44-3.34,6.8,6.8,0,0,0,.39-3.34,17.51,17.51,0,0,1-.4-2c0-2.73,0-5.47,0-8.2.64-1.76.33-3.6.43-5.41s0-3.41,0-5.12a6.19,6.19,0,0,0-.35-2.34,3.57,3.57,0,0,1-.11-1.35c0-.69.64-1.24.5-2a11.65,11.65,0,0,1-.42-2c0-2.62,0-5.24,0-7.86.67-2,.26-4.06.43-6.08a2.32,2.32,0,0,0,0-1c-.74-1.76-.15-3.62-.42-5.41a1.16,1.16,0,0,1,.21-.64,1.48,1.48,0,0,0,0-1.3,1.54,1.54,0,0,1-.14-1c.76-2.12.19-4.31.37-6.45a8.67,8.67,0,0,1-.44-3.68,2.87,2.87,0,0,1,.22-1.33,1.62,1.62,0,0,0,0-1.31,6.22,6.22,0,0,1-.12-3,10,10,0,0,0,.07-4.67,12.42,12.42,0,0,1,0-5.08,8.61,8.61,0,0,0,.28-2.36c0-2.06,0-4.11,0-6.16a2.81,2.81,0,0,0-.08-1,5.27,5.27,0,0,1-.06-3.33,7.64,7.64,0,0,0-.06-3.71,2.56,2.56,0,0,1,0-1.64,4.45,4.45,0,0,0-.19-3.64.76.76,0,0,1-.08-.33,2.53,2.53,0,0,1,.09-1,2.45,2.45,0,0,0,.07-2.58,1.81,1.81,0,0,1-.09-1.65,4,4,0,0,0,.38-1.63q0-4.28.08-8.55a6.6,6.6,0,0,0-.36-2.68,3.49,3.49,0,0,1,.1-2.67,7.39,7.39,0,0,0,2.52-1.65,2.34,2.34,0,0,1,1.05-.84c1.45-.4,2.42-1.59,3.77-2.15,1.21-1.23,2.85-1.76,4.31-2.59a13.68,13.68,0,0,0,3.16-1.88c.21-.2.62-.19.94-.3a4.11,4.11,0,0,0,.93-.33,8.17,8.17,0,0,1,1.36-1,17.94,17.94,0,0,1,1.81-.9,3.68,3.68,0,0,0,1.74-.95,7.31,7.31,0,0,1,2.28-1.42,4.91,4.91,0,0,1,2.49-.95c.27,0,.59-.29.85-.5a6.36,6.36,0,0,1,1.41-.89c.9-.42,1.79-.9,2.7-1.33,1.11-.52,2.18-1.13,3.27-1.71,1.39-1.38,3.32-1.82,4.94-2.81a2,2,0,0,1,1-.23,4,4,0,0,0,1.92-.52c.88-.43,1.73-1.11,2.85-.9.28.06.63-.17.93-.31a11.14,11.14,0,0,1,1.8-.89,12.55,12.55,0,0,0,2.21-.76c.47-.23,1.15,0,1.68-.13s.93-.63,1.55-.62c.91,0,1.56-1,2.56-.7.56-.38,1.17-.73,1.2-1.52a2.32,2.32,0,0,1,.39-1.27c.49-.75.18-1.82.94-2.48,0-.78.24-1.59-.34-2.29a2.39,2.39,0,0,1-.33-1.63c.26-.35.61-.63.32-1.17a1.26,1.26,0,0,1-.07-1c.23-.54.47-1,.09-1.59a3.33,3.33,0,0,1-.33-1.65,2,2,0,0,0-.5-1.23,2.79,2.79,0,0,1-.76-2.15c0-2.39-.05-4.77-.08-7.15,0-1.48,0-3,0-4.42s.08-2.95.07-4.42a11,11,0,0,1,.37-4.34.42.42,0,0,0,0-.33,5,5,0,0,1-.4-2.65c-.11-4.31,0-8.63-.06-12.94-.11-7,0-14.07,0-21.11a5.2,5.2,0,0,0-.57-2.62,2.76,2.76,0,0,1-.1-1,4.79,4.79,0,0,1,0-.66c.1-.55.73-.86.66-1.49a2.43,2.43,0,0,1,.56-1.54.73.73,0,0,0,0-.63,2.56,2.56,0,0,1-.55-1.88,1.44,1.44,0,0,0-.41-1.22c-.48-.47-1-.92-1.44-1.35-1.3,0-2.53,0-3.76,0-.19,0-.38-.2-.57-.3a52.43,52.43,0,0,1,3.7-4.44c1.3-1.27,2.56-2.58,3.82-3.9a9.41,9.41,0,0,0,1.72-2.1,17.72,17.72,0,0,1,3.77-4.8,22.83,22.83,0,0,0,2.5-2.78,5.25,5.25,0,0,1,2.52-2.22l3.59-3.63c1.54-2.53,3.72-4.57,5.34-7a2.07,2.07,0,0,1,.72-.72,6,6,0,0,0,2.17-2.1,17.12,17.12,0,0,1,3-3.28c.87-.74,1.62-1.6,2.44-2.4a3.63,3.63,0,0,0,1.19-1.62,1.21,1.21,0,0,1,.4-.55c1.75-1.48,2.87-3.51,4.48-5.13a27.2,27.2,0,0,0,3-4.1,8.76,8.76,0,0,1,1.25-1.59c1.09-1,1.74-2.38,2.95-3.27.08,0,.1-.2.15-.3a19.81,19.81,0,0,1,2-3.16c.28-.36.44-.81.74-1.13a19.31,19.31,0,0,0,2.86-3.36c.71-1.28,2-2.18,2.77-3.45a7.29,7.29,0,0,1,1.58-1.79c1-.81,1.38-2.11,2.44-2.81a12.22,12.22,0,0,0,2.22-2.55c.54-.59,1.05-1.2,1.62-1.76a17.52,17.52,0,0,0,3.15-3.56,5.42,5.42,0,0,1,.93-1,12,12,0,0,0,2.56-3.15A14.33,14.33,0,0,1,191,487.8,5.49,5.49,0,0,0,191.47,486.56Z"/><path class="cls-1" d="M65.14,185.73a2.52,2.52,0,0,1-.29,1.3c-.45.78-.94,1.52-1.47,2.26a21.69,21.69,0,0,1-1.57,2.17c-.59.66-1,1.47-1.55,2.18s-1.23,1-1.38,1.9c0,.2-.25.37-.4.54l-2.62,2.7a7.37,7.37,0,0,1-2.27,2.91,9.93,9.93,0,0,0-1.08,1.7c-.43.61-.5,1.53-1.46,1.73-.13,0-.27.35-.29.56a2.13,2.13,0,0,1-.41,1.26c-1.05,1.18-1.65,2.7-2.94,3.7-1.08.83-.94,2-.52,3.07a3.4,3.4,0,0,1,.37.93,1.93,1.93,0,0,0,.65,1.5c.42.38.85.75,1.24,1.08a8.61,8.61,0,0,1,1.45,0c1,.16,1.68-.56,2.5-.87.16-.06.26-.35.32-.56a2.19,2.19,0,0,0,0-.68,1.56,1.56,0,0,1,.36-1.27,16.94,16.94,0,0,0,2.45-3.21c.38-.55.68-1.16,1.08-1.69s.82-.81,1.16-1.26.68-1.16,1.08-1.69.81-.81,1.14-1.27a3.18,3.18,0,0,0,.28-1,2.15,2.15,0,0,1,.17-.64,4.61,4.61,0,0,1,.88-1c1.29-1,1.82-2.59,2.94-3.7.12-.87.81-1.34,1.33-1.92s.92-1,1.38-1.51c.1-1.11,1.4-1.5,1.54-2.58,1-1.06,1.47-2.55,2.63-3.48.66-.54.68-1.42,1.25-2a9.75,9.75,0,0,0,1.38-1.5c.42-.65.63-1.43,1-2.11a1.72,1.72,0,0,1,1.25-1.05h0a3.21,3.21,0,0,1-.45,2.27c-.48.62-.22,1.52-.79,2.19a6.92,6.92,0,0,0-.84,1.8c-.26.61-.8,1.13-.68,1.88a.44.44,0,0,1-.06.32c-1.73,2-2.49,4.48-3.75,6.72-.77,1.36-1.39,2.79-2.13,4.17a2.91,2.91,0,0,0-.23,1,1.33,1.33,0,0,1-.18.63,20.48,20.48,0,0,0-2.54,4.33,4.08,4.08,0,0,1-.49.87,2.5,2.5,0,0,0-.92,2.09c-.45.9-.87,1.82-1.36,2.69-.39.68-.87,1.3-1.32,1.95.19.88-.47,1.48-.79,2.17a4.43,4.43,0,0,0-.63,2.57,2.84,2.84,0,0,1-.57,1.89.76.76,0,0,0,.09.63,8.69,8.69,0,0,0,2.43,2.33,4.61,4.61,0,0,0,2-.19A7.37,7.37,0,0,0,66,222.8a1.71,1.71,0,0,0,.45-1.23,2,2,0,0,1,.61-1.85,5,5,0,0,0,.89-1.4,8.2,8.2,0,0,1,1.61-2.56,1.39,1.39,0,0,0,.32-.92,1.62,1.62,0,0,1,.54-1.19A10.3,10.3,0,0,0,72.81,210c.76-1.62,1.7-3.15,2.46-4.76a12.23,12.23,0,0,1,1.83-3.17,8.33,8.33,0,0,0,1-1.75c.16-.29.2-.71.44-.88.79-.57.9-1.56,1.48-2.24a9.66,9.66,0,0,1,.95-1,2.72,2.72,0,0,1,.6-.26h0c-.06,1.34.31,2.75-.66,3.94a6.83,6.83,0,0,1-.1,1.7c-.15.53-.62.94-.71,1.53-.66.58-.4,1.52-.81,2.17a3.85,3.85,0,0,0-.48,1.94,2.72,2.72,0,0,1-.28,1c-.8,1.6-1.65,3.19-2.43,4.8-.38.8-1,1.54-.74,2.55a.74.74,0,0,1-.14.63c-.62.63-.35,1.53-.74,2.22-.28.48-.41,1.11-.81,1.46-.8.71-1,1.8-1.71,2.51s-.83,1.86-1.72,2.49a1.42,1.42,0,0,0-.3.93,4.05,4.05,0,0,1-.5,1.93,18.19,18.19,0,0,1-1.86,3.19,5.79,5.79,0,0,0-.8,1.47,5.43,5.43,0,0,1-1.27,2,1.11,1.11,0,0,0-.39.91,1.49,1.49,0,0,1-.06.67A16,16,0,0,0,64,238.05a12.31,12.31,0,0,1-.9,2.51c-.4.68-.72,1.4-1.08,2.09a8,8,0,0,0-.9,1.81,4.61,4.61,0,0,1-.64,1.9.86.86,0,0,0-.13.64c.33,1.22-.85,2.09-.72,3.26a4.7,4.7,0,0,0-.7,1.88,3.32,3.32,0,0,1-.68,1.51,4,4,0,0,0-.65,2.58,2.19,2.19,0,0,1-.42,1.6,1.16,1.16,0,0,0-.22.62,3.58,3.58,0,0,1-.56,2.27,1,1,0,0,0-.13.64A4.62,4.62,0,0,1,55,264.5c-.39,0-.83,0-1.28,0H19.85c-.45,0-.91,0-1.37,0a.93.93,0,0,1-.6-.72c0-1-.06-2-.06-3.08q0-6,0-12c0-.68,0-1.37,0-2.05a2.5,2.5,0,0,0-.48-1.59.81.81,0,0,1,0-.95,2,2,0,0,0,.44-1.25c0-2.17,0-4.34,0-6.51,0-4,0-8,0-12a4.07,4.07,0,0,0-.47-1.95,2.42,2.42,0,0,1,0-2.28,2.59,2.59,0,0,0,.42-1.27c0-1.37,0-2.74,0-4.11a1,1,0,0,0-.14-.64c-.65-.79-.47-1.72-.49-2.62,0-.22,0-.44.06-.69l1.27-1.63v-7.86a8.67,8.67,0,0,0-.05-2,6.13,6.13,0,0,0-.9-1.81,2.78,2.78,0,0,1-.4-1.61q0-8.73,0-17.47a3.84,3.84,0,0,0-.48-2.62,1.73,1.73,0,0,1-.15-1c0-2.28,0-4.57,0-6.85a2.16,2.16,0,0,0-1.34-1.42c-.23,0-.46,0-.69,0H11.69c.3-.63.92-.57,1.46-.69a.85.85,0,0,0,.64-.68c0-.34,0-.68,0-1q0-7.87,0-15.75,0-11.62,0-23.27a6.48,6.48,0,0,1,.3-2.69,3.75,3.75,0,0,0,.12-1.35c0-.8-.05-1.6,0-2.39a5.89,5.89,0,0,0-.56-3c-.28-.57.17-1.09.84-1.1H105c.68,0,1.37,0,2,0a2.32,2.32,0,0,1,2.23,1.33,6.19,6.19,0,0,1,.9,3.22c-.06,2.38.12,4.77.18,7.16,0,.57-.09,1.14-.07,1.71a19.84,19.84,0,0,0,.15,4.75c.18.68-.37,1.38,0,2a1.48,1.48,0,0,1,.13,1.23c-.08.39.22.84.26,1.27a2.86,2.86,0,0,1-.38,2.26c.72,1.29.28,2.69.37,4s0,2.73.06,4.09l.06,5.12a5,5,0,0,1,0,1,10.53,10.53,0,0,0-.47,1.94,5.87,5.87,0,0,0,.47,1.61,1.44,1.44,0,0,1,.07.68c-.36,1.8.06,3.62-.09,5.42-.09,1.12.42,2.29-.34,3.33.09.55.2,1.09.26,1.63s.1,1.13.11,1.7a1.84,1.84,0,0,1-.1,1,4.18,4.18,0,0,0-.26,3.61,12.47,12.47,0,0,1,.38,4.7c-.14.9.32,1.85-.19,2.68a1.11,1.11,0,0,0-.07,1.22,1.38,1.38,0,0,1,.11,1,3.2,3.2,0,0,0,0,2.22,9.8,9.8,0,0,1,.17,2.72c0,1.59-.17,3.17,0,4.77s0,3.18,0,4.77a2.75,2.75,0,0,1-.27,1.32c-.09.18-.23.46-.16.59.62,1.18.26,2.48.54,3.67a2.46,2.46,0,0,1-.37.6,1.24,1.24,0,0,0-.35,1.54,4.67,4.67,0,0,1,.56,2.62c0,2.61.16,5.23-.1,7.84.27,1.59-.17,3.2,0,4.75s0,2.95.18,4.42a9.28,9.28,0,0,1,0,2c-.24,1.91-.25,1.91.17,2.76,0,.1.12.19.18.29s.06.37-.1.59A1.79,1.79,0,0,0,111,233a18.9,18.9,0,0,1,0,3.76c-.07.79.1,1.59.07,2.38,0,1.35.12,2.7,0,4.06s0,2.51,0,3.76a30,30,0,0,0,0,3.42,15.63,15.63,0,0,1-.14,2c0,.68.07,1.36,0,2a16.16,16.16,0,0,1,.07,3c-.22,1,.17,2,0,3-.06.43.06.88,0,1.34-.09,1-.41,2,.44,2.89,0,0,0,.21-.07.3a2.36,2.36,0,0,0-.33,1.64,1.3,1.3,0,0,1-.57,1.48,1.55,1.55,0,0,0-.78,1.72c.05.25-.38.67-.61.68H68.67c-.79,0-1.59,0-2.39.06-.38,0-.53.37-.67.68-.1-.05-.24-.07-.3-.15a9,9,0,0,1-.68-1.52,5.52,5.52,0,0,1-.86-4.2,4,4,0,0,1,.3-.95,4.4,4.4,0,0,0,.33-.94c.08-.68.08-1.36.1-2.05.82-.75.45-2,1.09-2.8a1.8,1.8,0,0,0,.2-1,2.49,2.49,0,0,1,.43-1.61.91.91,0,0,0,.25-.6,5.37,5.37,0,0,1,.91-3.2,3.09,3.09,0,0,0,.49-1.58c0-.34-.05-.78.14-1,.58-.66.43-1.51.74-2.22a10.24,10.24,0,0,0,1.2-2.77,7.7,7.7,0,0,1,1.1-2.43,1.63,1.63,0,0,0,.22-1c-.1-1.23.65-2.12,1.21-3.08a5.48,5.48,0,0,1,.94-1,2.34,2.34,0,0,0,.65-1.51,8.66,8.66,0,0,1,1-2.13,14.55,14.55,0,0,0,1.13-2.79,4.18,4.18,0,0,1,1.25-2.34,4.29,4.29,0,0,0,.88-1.43c.23-.51.61-.95.54-1.56,0-.38.26-.62.39-.92.8-1.73,1.71-3.41,2.55-5.11a3.62,3.62,0,0,0,.48-1.93,3.53,3.53,0,0,1,.62-2.23,29.58,29.58,0,0,0,1.31-2.72c.37-.78,1.09-1.51.85-2.52.37-.69.72-1.4,1.12-2.08a1.88,1.88,0,0,0,.2-1c0-.57,0-1.14,0-1.71a1.88,1.88,0,0,1,.41-1.27,1.85,1.85,0,0,0,.28-1.3,2.44,2.44,0,0,1,.46-1.59,1,1,0,0,0,.19-.63c-.22-1.24.6-2.13,1-3.17a3.81,3.81,0,0,0,.38-.92c.07-.68,0-1.39.09-2.05s.68-.92.63-1.54.5-1,.58-1.56a13.74,13.74,0,0,0,.11-2.72,3.21,3.21,0,0,1,.53-1.93,1.89,1.89,0,0,0,.14-1,2.31,2.31,0,0,1,.46-1.59,1.42,1.42,0,0,0,.22-1V178a9,9,0,0,1-.64-1.18,1.05,1.05,0,0,0-.65-.71c-.74-.22-1.33-.9-2.21-.75-.11,0-.39-.37-.37-.4a3.46,3.46,0,0,0,.43-2.29,3.61,3.61,0,0,0-.43-1.6,15.1,15.1,0,0,0-.86-2.53c-.16-.24,0-.67-.06-1-.06-.77-.13-.87-1-1-.46-.09-.93-.16-1-.72a6.19,6.19,0,0,0-1.16-2.75c-.24-.39-.6-.7-.86-1.07a3.51,3.51,0,0,0-2.67-1.63,8,8,0,0,0-1.7.07,3.44,3.44,0,0,0-1.2.62,9.58,9.58,0,0,1-2.5.9c-.73.26-1.36.8-2.08,1.1a16.79,16.79,0,0,0-2.41,1.18c-.6.38-1.34.08-1.93.55a8.29,8.29,0,0,1-1.48.77l-1.8.92c-1.09-.09-1.87.7-2.8,1.05a3.93,3.93,0,0,0-1.2.58A8,8,0,0,1,59,169.59c-.91,1.21-2.4,1.67-3.46,2.69a2.14,2.14,0,0,1-1.25.45,8.22,8.22,0,0,0-2.37,1.19c-.33.32-.63.66-1,1-.76.66-1.33,1.56-2.34,1.93s-1.34,1.21-2.09,1.73c-.27.18-.62.25-.91.41l-3.56,1.91c-.09.06-.25,0-.33.07a18.61,18.61,0,0,1-2.38,1.91c-.77.43-1.61.79-2.35,1.27s-1.17,1.09-1.83,1.54a17.65,17.65,0,0,1-1.81.85.91.91,0,0,0-.41.51,1.14,1.14,0,0,1-.65.72,15.41,15.41,0,0,0-2.89,1.72,22.44,22.44,0,0,1-3.26,1.72c-.7.35-1.42.66-2.09,1.06a1.44,1.44,0,0,0-.73,1.1c0,.45,0,.92,0,1.37-.12.77.52,1.24.67,1.87s.81.7,1.24,1a1.75,1.75,0,0,0,2.2.13,1.73,1.73,0,0,1,.28-.19c2.47-1.07,4.8-2.41,7.22-3.57a2.46,2.46,0,0,0,.86-.51,14.83,14.83,0,0,1,2.93-2.25c.46-.34,1-.56,1.44-.86.85-.53,1.88-.79,2.51-1.68a4.66,4.66,0,0,1,1.66-1.11c.78-.44,1.72-.62,2.29-1.42a1.46,1.46,0,0,1,1.23-.45,1.18,1.18,0,0,0,.63-.2,7.25,7.25,0,0,1,1.94-1.33c.73-.22,1.12-1.1,2-1.27.29-.06.54-.41.79-.64a8.36,8.36,0,0,1,2.16-1.6,10.87,10.87,0,0,0,1.81-1.55,1.08,1.08,0,0,1,.62-.22,1.66,1.66,0,0,0,1.24-.43c.16-.17.33-.32.5-.47a7.76,7.76,0,0,1,1.77-1.59c.85-.4,1.45-1.08,2.22-1.53s1.85-.8,2.7-1.36c.25-.17.66-.09,1-.12h0a1.59,1.59,0,0,1-.3,1.28l-3.15,3.14c-1.94.86-3.1,2.62-4.62,4a8.69,8.69,0,0,1-2.63,2.09c-.5.18-.86.73-1.26,1.13-3.08,3.06-6.13,6.14-9.22,9.19-1,1-1.94,2.23-3.38,2.78-.62.64-1.44,1.13-1.6,2.13-1,1.26-1.24,2.9-2.45,4a4.2,4.2,0,0,0-.7,1.49A16,16,0,0,1,39,206.67a2.15,2.15,0,0,0,2.22,1.7c.29,0,.59.3.89.47a7.11,7.11,0,0,0,1.72-1c.24-1.33,1.72-1.78,2.12-3s1.85-1.7,2.17-3a4.84,4.84,0,0,0,1.57-1.64,9.28,9.28,0,0,1,1.65-1.73,18,18,0,0,1,1.75-1.63c.43-.32,1-.41,1.13-1.11,0-.19.23-.38.39-.54q4.6-4.6,9.22-9.18a1.77,1.77,0,0,1,1.28-.36Z"/><path class="cls-2" d="M205,681.21l6.77-.07a2.11,2.11,0,0,0,1.31-.22,5,5,0,0,1,3.9.1,1.52,1.52,0,0,0,1.6-.09,1.32,1.32,0,0,1,1.56,0,2.07,2.07,0,0,0,1,.24c.9,0,1.8,0,2.71,0a3.2,3.2,0,0,0,1.26-.39,1.55,1.55,0,0,1,1.61,0c.72.48,1.53.34,2.27.58l0,21.23q0,13.7,0,27.4,0,25.34,0,50.67,0,31.68,0,63.35,0,23.46,0,46.91,0,12.5,0,25c0,.57,0,1.14,0,1.71a.83.83,0,0,1-.67.65c-.34,0-.68,0-1,0H206.6a4.34,4.34,0,0,1-1-.07.8.8,0,0,1-.49-.42,3.76,3.76,0,0,1-.07-1q0-15.93-.05-31.84,0-13.19,0-26.37c0-6.62,0-13.24,0-19.86,0-6.17-.05-12.33-.05-18.49q0-15.75,0-31.5,0-16.1,0-32.19,0-18.31,0-36.64Q204.9,700.55,205,681.21Z"/><path class="cls-2" d="M407.11,680.7c.56-.05,1.12-.15,1.68-.15H418c.89,0,1.83-.18,2.58.53a3.21,3.21,0,0,0,2.3-.22,2.07,2.07,0,0,1,2.24.08,1.62,1.62,0,0,0,1.62.07,3.46,3.46,0,0,1,1.93-.49,13.45,13.45,0,0,1,3,.2c-.17.53-.59.92-.58,1.56q0,9.42,0,18.84,0,10.95,0,21.91,0,9.76,0,19.52,0,10.79,0,21.57,0,18.33,0,36.65v67.46q0,22.95,0,45.89c0,.34,0,.69,0,1-.07,3.43.44,3.14-3.07,3.14H408.89c-.74,0-1.1-.31-1.11-.94,0-.91,0-1.83,0-2.74,0-2.4,0-4.79,0-7.19a3.08,3.08,0,0,0-.4-1.63.88.88,0,0,1,0-1,2.88,2.88,0,0,0,.39-1.63c0-3.88,0-7.76,0-11.64a3.61,3.61,0,0,0-.42-1.62,1.12,1.12,0,0,1,.08-1,4.64,4.64,0,0,0,0-3.62c0-.11-.15-.2-.15-.31s-.06-.49.05-.65a3.32,3.32,0,0,0,.43-2c0-1.13-.05-2.27-.07-3.41-.67-1-.43-2.2-.46-3.33a2.87,2.87,0,0,1,.17-1,7.92,7.92,0,0,0,0-4.65,7.77,7.77,0,0,1,.18-4.69,3,3,0,0,0-.14-2.64,4.13,4.13,0,0,1-.2-2c.74-1.26.5-2.65.53-4a4.17,4.17,0,0,0-.52-2.63v-5.13c.78-1.13.46-2.42.5-3.65s0-2.29,0-3.43a1.26,1.26,0,0,0-.11-.65,4.62,4.62,0,0,1-.41-2.66c0-1.48,0-3,0-4.45a2,2,0,0,1,.09-1c.7-1.18.39-2.45.43-3.68a2.15,2.15,0,0,0-.3-1,1.92,1.92,0,0,1,0-1.94,1.74,1.74,0,0,0,.19-1.63,5.19,5.19,0,0,1-.45-2.65c0-7.65,0-15.3,0-22.94a5,5,0,0,1,.44-2,1.7,1.7,0,0,0,0-1.31,4.64,4.64,0,0,1-.42-2.31V764.26q0-18.68,0-37.33,0-21.57,0-43.15C407.17,682.75,407.13,681.73,407.11,680.7Z"/><path class="cls-2" d="M285.87,680.72a6.16,6.16,0,0,1,2.38-.11,5.05,5.05,0,0,1,1.27.4,2,2,0,0,0,1.65-.06c.18-.1.47-.25.59-.17,1.06.66,2.23.3,3.34.36s2.29,0,3.43,0h5.13a5.51,5.51,0,0,0,2.32-.42,2.33,2.33,0,0,1,2.3.06c.72.5,1.26.15,1.87-.1.08,0,.22.06.33.1,0,1.25-.08,2.5-.1,3.76,0,1,0,2.05,0,3.08a6.43,6.43,0,0,1-.47,3c-.5,1,.7,1.89.48,3-.05.22.06.5,0,.68-.77,1.38-.46,2.88-.51,4.34,0,.23,0,.45,0,.68a1.61,1.61,0,0,0,.07.67,3.89,3.89,0,0,1-.06,3.89,3.32,3.32,0,0,0,.26,2,1.25,1.25,0,0,1-.07,1.57.81.81,0,0,0,0,1,2,2,0,0,1,.28,1.94,4.09,4.09,0,0,0-.45,2c0,1.6,0,3.2,0,4.8,0,.22-.06.51.05.66.78,1.09.43,2.12,0,3.22a2.55,2.55,0,0,0,.07,1.68c.76,1.77.29,3.59.36,5.39,0,.2-.18.41-.28.61a1.74,1.74,0,0,0-.05,1.64,3.9,3.9,0,0,1,.4,2q0,6.15,0,12.32a3.08,3.08,0,0,1-.22,1.67,2.08,2.08,0,0,0,0,2.26,2.49,2.49,0,0,1,.21,1.32c0,2.4,0,4.8,0,7.19a3.44,3.44,0,0,1-.44,2,.93.93,0,0,0,0,.66,6,6,0,0,1,.45,1.26c.05,1.6,0,3.19,0,4.79a1.24,1.24,0,0,1-.28.62.94.94,0,0,0-.1,1,3.38,3.38,0,0,1,.43,1.62c0,1.82,0,3.65,0,5.48A3,3,0,0,1,310,776a.86.86,0,0,0,0,1,1.62,1.62,0,0,1,0,1.89,1.71,1.71,0,0,0-.06,1.31,4.73,4.73,0,0,1,.47,2.3c0,1,0,2.05,0,3.08a2.07,2.07,0,0,1-.34,1.29.91.91,0,0,0-.12,1c.64,1,.39,2,.44,3a4.89,4.89,0,0,1-.46,2.65,1.58,1.58,0,0,0,.23,1.62.91.91,0,0,1,.14,1,4.68,4.68,0,0,0-.11,3.94,3.4,3.4,0,0,1,.19,1q0,7.88,0,15.75a2.23,2.23,0,0,1-.29,1,1.89,1.89,0,0,0-.12,1.65,3.93,3.93,0,0,1,.43,2c-.05.45,0,.91,0,1.37l-.06,4.1c-1.1,1.32.09,2.59.08,3.89,0,3.88,0,7.77,0,11.65,0,1.82,0,3.65,0,5.48a2.43,2.43,0,0,1-.24,1.32,2.23,2.23,0,0,0,0,2.27,2.63,2.63,0,0,1,.21,1c0,.46,0,.91,0,1.37q0,17.64,0,35.28c0,.34,0,.68,0,1,0,1.95-.39,2.3-2.45,2.31H288.76a13.89,13.89,0,0,1-1.71-.08.69.69,0,0,1-.47-.45c-.06-.79-.06-1.59-.06-2.39q0-10.1,0-20.2c0-10.85,0-21.69,0-32.54,0-13.13-.06-26.25-.07-39.38,0-8.91,0-17.81,0-26.71,0-2.86,0-5.71,0-8.56a4.55,4.55,0,0,0-.46-2.31,1.58,1.58,0,0,1,0-1.31,4.52,4.52,0,0,0,.43-2.31c0-4.56,0-9.13,0-13.69q0-17.82,0-35.62c0-2.85,0-5.71,0-8.56,0-1.23.32-2.51-.48-3.66a.79.79,0,0,1,.05-.65,3.34,3.34,0,0,0,.42-1.62c0-3.31,0-6.62,0-9.93C286.46,681.65,286,681.25,285.87,680.72Z"/><path class="cls-3" d="M201.55,209.58a11.89,11.89,0,0,1-4.36-.31,4.49,4.49,0,0,0-2-.22c-1.56.23-2.82-.66-4.25-.93-1.41-1-3.14-1.15-4.7-1.78-1.15-.47-2.24-1.06-3.37-1.55-.28-.13-.48-.46-.7-.72s-.79-.39-1.22-.47c0-.18,0-.36,0-.55a8,8,0,0,0,2.33-.35,6.2,6.2,0,0,1,2.63-.51c2.74,0,5.48,0,8.22-.08a1.8,1.8,0,0,0,1-.17,4,4,0,0,1,2.3-.46,3.49,3.49,0,0,0,2.3-.44,1.42,1.42,0,0,1,1-.2l5.13,0c.46,0,1,.13,1.35-.08,1.37-.89,2.88-.49,4.33-.63a1.35,1.35,0,0,0,.65-.14c.91-.67,2-.49,3-.51,1.82,0,3.65,0,5.48,0h2.37c.4-.32.75-.62,1.12-.87a2,2,0,0,1,.87-.47,5,5,0,0,0,2.59-.68,5.8,5.8,0,0,0,3.31-1.57,1.73,1.73,0,0,1,1.23-.48c.57,0,1.14,0,1.71,0a9.34,9.34,0,0,0,2.05-.09,4.2,4.2,0,0,0,1.8-.87c.67-.6,1.55-.29,2.24-.74a19.65,19.65,0,0,1,2.1-1.06c.2-.1.48-.14.59-.3.62-.91,1.81-1,2.51-1.71a5.42,5.42,0,0,1,1.4-.93,2,2,0,0,0,.91-1A5.89,5.89,0,0,1,248.5,187c.33-.44.5-1,.86-1.43a9.76,9.76,0,0,0,1-1.73,8.3,8.3,0,0,0,.53-1.57,5.56,5.56,0,0,0,.69-2.58,1.28,1.28,0,0,1,.19-.64c.3-.6.61-1.21.95-1.79s0-1.38.58-1.93a1,1,0,0,0,.25-.61,5.21,5.21,0,0,1,.79-2.9,4.54,4.54,0,0,0,.62-2.25,5.31,5.31,0,0,1,0-.69c0-.67-.25-1.43.14-2s.29-1.57.74-2.23a2.71,2.71,0,0,0,.44-1.61c0-1.14,0-2.28.06-3.42a2,2,0,0,1,.17-1,5,5,0,0,0,.52-2.64c.11-1.22-.28-2.5.52-3.65.17-.24.08-.66.09-1,0-1.37,0-2.74,0-4.11a2.5,2.5,0,0,1,.34-1.3,2.15,2.15,0,0,0,.29-.95c0-2.05,0-4.11,0-6.16a1.28,1.28,0,0,0-.09-.66c-.82-1.13-.49-2.41-.51-3.64s0-2.51,0-3.77a1.8,1.8,0,0,0-.19-1,4.52,4.52,0,0,1-.54-2.29c-.08-.67-.66-1.16-.63-1.91a4.1,4.1,0,0,0-.53-2.63,2.62,2.62,0,0,1-.13-1.33,3.19,3.19,0,0,0-.48-2A1.09,1.09,0,0,1,255,119a3.57,3.57,0,0,0-.61-2.26c-.12-.16-.08-.43-.11-.66-.06-.44,0-1-.2-1.31-.58-.77-.38-1.77-.9-2.54a13.89,13.89,0,0,1-.93-1.8,4,4,0,0,1-.65-1.53c0-1-.87-1.59-.83-2.55a2,2,0,0,0-.35-.93c-.42-.8-.22-1.82-.91-2.53,0-.68-.06-1.37-.08-2s0-1.13,0-1.64a33.64,33.64,0,0,1-4.81-4.4,4.69,4.69,0,0,1-1.25-2.36,8.9,8.9,0,0,0-.85-2.19,6.29,6.29,0,0,1-.62-2.25,2,2,0,0,0-.3-1,2.35,2.35,0,0,1-.33-1.29c0-.8,0-1.6,0-2.4a2.12,2.12,0,0,1,.23-1,3.11,3.11,0,0,0,.38-1.63c0-1.37,0-2.74,0-4.09a2.38,2.38,0,0,0-.35-.61,13.45,13.45,0,0,1-2.6-3.93,5,5,0,0,1-.51-1.93,1.94,1.94,0,0,0-.26-1,1.31,1.31,0,0,1,.05-1.56,1.56,1.56,0,0,0-.28-2.15,2.49,2.49,0,0,1-.51-3.1,3.43,3.43,0,0,0,.34-1.29c0-1.15,0-2.29,0-3.43,0-.34-.1-.76.07-1,.88-1.36.52-2.87.64-4.32a3.75,3.75,0,0,1,.28-1,5,5,0,0,0,.33-.94c.12-1-.09-2.07.62-3,0-.56.1-1.13.12-1.7a2.27,2.27,0,0,1,.34-1.29,1.22,1.22,0,0,0,.3-.6,7.43,7.43,0,0,1,1.21-3.82,6.86,6.86,0,0,1,.83-2.53c-.15-1.21.53-2.17,1-3.18.75-1.64,1.58-3.23,2.4-4.83a5.07,5.07,0,0,0,.85-2.2,3,3,0,0,1,.65-1.53,13.84,13.84,0,0,0,2.06-3.47,32.54,32.54,0,0,1,2.31-2.52,10.06,10.06,0,0,0,1.67-2.54c.08-.14,0-.43-.1-.63a.43.43,0,0,0-.55-.27c-.65.14-1.11.78-1.88.67s-1,.55-1.51.71a2,2,0,0,0-1.42,1.35,1,1,0,0,1-.68.67A1.81,1.81,0,0,0,246.17,21a11.4,11.4,0,0,1-1.28,2.36,12.49,12.49,0,0,1-1.87,2,1.68,1.68,0,0,0-.44,1.25.77.77,0,0,1-.56.76,1.06,1.06,0,0,0-.72.64c-.43,1.27-1.49,2.28-1.48,3.72a3.89,3.89,0,0,0-.75,1.49c0,.16-.31.29-.49.42-.69.51-.71.51-.73,1a2.78,2.78,0,0,1-.5,1.93c-.34.38-.22.87-.21,1.31a1.82,1.82,0,0,1-.38,1.28c-.45.54-.27,1,.09,1.52a.86.86,0,0,1,.16.63c-.14.53-.67.91-.66,1.52-.77.89-.5,2.2-1.24,3.09a2.3,2.3,0,0,1-1,2.07,1.07,1.07,0,0,0-.37.56,15.38,15.38,0,0,1-.15,1.69c-.14.53-.62,1-.59,1.57s-.11,1.15.27,1.65a1.23,1.23,0,0,1,0,1.54,2.87,2.87,0,0,0,0,2.6,2.83,2.83,0,0,1,.32.94c.05,1,.07,2.06,0,3.08a1.87,1.87,0,0,1-.39.92,1,1,0,0,0,0,1.25,1.68,1.68,0,0,1-.13,2.18c-.35.43-.9.76-.89,1.41,0,1-1,1.78-.71,2.91a4.22,4.22,0,0,1,0,1.37c-.05,1.14-.74,1.75-2,1.77a1.84,1.84,0,0,1-.67-.07.85.85,0,0,1-.49-.41,3,3,0,0,1-.17-1c0-2,0-4.11,0-6.16q0-7,0-14c0-1.14,0-2.28,0-3.42a2.67,2.67,0,0,1,.51-1.93c0-1.25.94-2.27.88-3.58,0-.88.9-1.58.72-2.56a3.24,3.24,0,0,0,.62-2.25,2.91,2.91,0,0,1,.49-1.94.94.94,0,0,0,.15-.65c-.25-1.21.87-2.09.77-3.26a4.64,4.64,0,0,0,.73-2.22c.61-.62.41-1.51.77-2.21.71-1.4,1.41-2.81,2.16-4.19a11,11,0,0,1,1-1.35A3,3,0,0,1,238,20,13.23,13.23,0,0,0,239.17,18c.11-.19.13-.45.28-.6,1-1.11,1.59-2.46,2.49-3.62.07-.08.06-.23.13-.3a5.25,5.25,0,0,1,.53-.4,15.54,15.54,0,0,0,4.21-4.35,5.63,5.63,0,0,1,2.29-2,6.24,6.24,0,0,0,2.57-1.62c1.4-.72,2.8-1.42,4.19-2.17a2.37,2.37,0,0,1,1.33-.18,3.05,3.05,0,0,0,2.24-.61c.7-.06,1.15-.77,1.87-.74a3.52,3.52,0,0,0,1.58-.55,3.86,3.86,0,0,1,1.33-.16,3.56,3.56,0,0,0,2-.47,1.84,1.84,0,0,1,1-.2c3.08,0,6.16,0,9.25,0a2.65,2.65,0,0,1,1.28.38,3.13,3.13,0,0,0,1,.28c1.22.16,2.52-.17,3.62.65h1.37c.34,0,.77-.06,1,.12,1.23.89,2.63.57,4,.61,1.14,0,2.28,0,3.42,0a2.4,2.4,0,0,1,1.3.33,2.27,2.27,0,0,0,.94.31c.91.07,1.83.1,2.74.09a4.76,4.76,0,0,1,3.14,1.06c.64.49,1.18,1.07,2.08,1a1,1,0,0,1,.59.29c.52.44,1,.9,1.52,1.38a2.52,2.52,0,0,0,2,1,17.51,17.51,0,0,1,3,1.5c1.17.89,2.57,1.48,3.51,2.66.86.47,1,1.5,1.58,2.17.84.92,1.22,2.17,2.14,3,.14.14.09.46.21.63a2.81,2.81,0,0,1,.54,1.58,3.05,3.05,0,0,0,.28,1.31,3.38,3.38,0,0,1,.36,1.64,4,4,0,0,0,.58,2.26,5.93,5.93,0,0,1,.71,1.53,6.39,6.39,0,0,1,.09,1.7,3,3,0,0,0,.37,1.29c1.06,2.1,2.09,4.22,3.14,6.33,1.4,1.37,1.77,3.4,3.13,4.81a4.48,4.48,0,0,1,.81,1.47,3.65,3.65,0,0,1,.11,1h-.71c-.82-.18-1.12-1.07-1.87-1.36-.93-.36-1.78-.93-2.71-1.24a10.11,10.11,0,0,0-2.66-.17l-.33-.05a4.16,4.16,0,0,0-.56-3.24c-.67-1-1.07-2.23-1.64-3.32s-.67-2.39-1.38-3.41a3.21,3.21,0,0,1-.47-1.94,3.51,3.51,0,0,0-.44-2c-.28-.45-.23-1.1-.46-1.59a2.91,2.91,0,0,1-.48-1.6,1.84,1.84,0,0,0-1.11-1.94,7.44,7.44,0,0,1-1.41-.92A6.14,6.14,0,0,0,308,18.47c-.88-.17-1.61-.78-2.56-.8a2.62,2.62,0,0,1-1.2-.58c-.67-.42-1.31-.89-1.92-1.31h-1.75a2.22,2.22,0,0,1-1.63-.33c-.61-.53-1,.36-1.5.22a1.65,1.65,0,0,1-.6-.28,1,1,0,0,0-1.49.06c-.27.26-.69.39-.93.2a2.62,2.62,0,0,0-3.15-.18,2.85,2.85,0,0,1-1.3.33,12.34,12.34,0,0,0-1.36,0,.76.76,0,0,0-.69.63.77.77,0,0,1-.69.64,13.75,13.75,0,0,0-2,.09,7.93,7.93,0,0,0-2.12,1c-.78.5-1.86.11-2.51.91-.45,0-.91,0-1.36.08-.22,0-.43.12-.65.17a1.4,1.4,0,0,0,0,.29c.19.67.14.86-.17,1.17a2.14,2.14,0,0,1-1.21.52,3.15,3.15,0,0,0-2.36,1.49,8.47,8.47,0,0,1-2.68,2.54A2.24,2.24,0,0,0,270.56,27c0,.15-.35.31-.55.33a6.2,6.2,0,0,1-1.36.06,2.16,2.16,0,0,0-1.8.79c-.38.42-.86.74-1,1.35a.93.93,0,0,1-.69.66c-.5.18-.61.59-.64,1.07-.08,1.49-.31,1.92-1.57,3.09a1.14,1.14,0,0,0-.43.88,3.29,3.29,0,0,1-.16,1.33c-.22.51-.67.93-.58,1.55s-.62,1-.64,1.51a3.66,3.66,0,0,1-.93,2.11,5,5,0,0,0-1.1,2.42,1.6,1.6,0,0,1-.57,1.19c-.76.57-.75,1.6-1.37,2.26.76,1-.3,1.33-.64,1.94-.05.1-.17.2-.17.29.06.84-.48,1.49-.65,2.25a7.76,7.76,0,0,0-.09,1.37l-3.43,0c0-1,0-2.05,0-3.08a3.39,3.39,0,0,1,.44-2,2.51,2.51,0,0,0,.22-1c.08-.67-.2-1.44.26-2s.22-1.57.72-2.24a1.55,1.55,0,0,0,.36-.93,4.59,4.59,0,0,1,.74-2.56,9.52,9.52,0,0,0,.78-2.21A11.81,11.81,0,0,1,257,35.06c-.13-.87.72-1.46.71-2.22,0-1.07.79-1.59,1.24-2.35a.72.72,0,0,0,.13-.3c.11-1.93,1.63-3.15,2.42-4.74.44-.88,1.55-1.34,1.79-2.43l2.34-2.49c.31-.33.75-.63.88-1,.43-1.36,1.94-1.93,2.29-3.32.94-1,1.88-2,2.81-3a3.78,3.78,0,0,0,.38-.61,18.22,18.22,0,0,1-1.86-.55c-.23-.1-.38-.26-.57-.11-.36.28-.7.58-1.08.84s-.64.27-.85.51a4.36,4.36,0,0,0-.68,1.14A3.15,3.15,0,0,1,265.38,16c-.67.35-1.13,1.08-1.92,1.34-.24.08-.27.33-.26.58a1,1,0,0,1-.53,1.14c-.6.3-1.22.55-1.8.87a.82.82,0,0,0-.37.54,2.45,2.45,0,0,1-.83,1.8c-.43.37-.77.85-1.21,1.2a12.28,12.28,0,0,1-1.46.93c0,.68,0,1.35,0,2a1,1,0,0,1-.48.84c-.17.14-.49.16-.57.32a9.12,9.12,0,0,1-2.16,2.58,2.65,2.65,0,0,0-1,2.1c0,.17-.22.39-.39.52s-.51.12-.59.28c-.46.87-1.23,1.62-1.09,2.75a2.07,2.07,0,0,1-.22,1c-.36.83-.73,1.64-1.13,2.44a1.14,1.14,0,0,1-.8.57.69.69,0,0,0-.46.45,3.41,3.41,0,0,1-.57,1.91c-.4.57-.21,1.32-.18,2s-.89,1.34-.72,2.22a3.11,3.11,0,0,1-.53,1.9c-.4.9-1,1.77-.84,2.88a1.53,1.53,0,0,1-.34.93,2.5,2.5,0,0,0-.29,1.3l-2.41.12c-.56.52-1.13,1.06-1.7,1.61a7.33,7.33,0,0,0-1.32,2.3c-.07.14,0,.44.16.61a1.61,1.61,0,0,0,1.35.86,17.19,17.19,0,0,0,2,0c.76-.08,1.21.57,1.88.64a2,2,0,0,0,1.29-.24,2,2,0,0,1,.93-.34c2.7,0,5.4,0,8.11.05-.3.65-.9.55-1.46.6-.18,0-.35.2-.53.31a2.76,2.76,0,0,0,.41.53,6.83,6.83,0,0,0,.87.51,11.28,11.28,0,0,0,2.39,1.23c1.06.28,1.51,1.42,2.57,1.6.31.46.62.93.93,1.38,1.16,1.67,2.35,3.31,3.45,5a5.5,5.5,0,0,1,.93,3.19c0,1.48,0,3,0,4.44a3.06,3.06,0,0,1-.82,2.16,2.39,2.39,0,0,0,.21,3.34,6.21,6.21,0,0,0,1,.94c.93.62,1.05,1.73,1.6,2.58a1.48,1.48,0,0,1,0,1,.67.67,0,0,1-.41.48,4.31,4.31,0,0,1-1.68,0,6.62,6.62,0,0,1-2.06-1.15,24.74,24.74,0,0,1-2.67-2.65,25.25,25.25,0,0,1-2-3.51.61.61,0,0,1,0-.33c.09-1.68-.4-3.42.56-5a2.46,2.46,0,0,0,.12-1,3.15,3.15,0,0,1,.32-1.3c1.06-2.06.2-3.51-.83-5a11.58,11.58,0,0,0-1.43-1.46,2.82,2.82,0,0,0-2.36-1.17,3.55,3.55,0,0,0-2.57-.65h-4.25c-.64.41-1.4.87-2.13,1.4a1,1,0,0,0-.46.87,2.56,2.56,0,0,1-.57,2.22.54.54,0,0,0-.12.31A6.29,6.29,0,0,0,245.31,75a2.53,2.53,0,0,1,.22.26c.34.59.69,1.16,1,1.77s.38,1.51.72,2.24a5.13,5.13,0,0,1,.14,2c0,2.51,0,5,0,7.53a3,3,0,0,0,.18,1.32A5.9,5.9,0,0,1,248.2,92a5,5,0,0,0,.59,1.21,1.24,1.24,0,0,0,.69.68,4.58,4.58,0,0,0,2.23.7,1.41,1.41,0,0,1,1,.22c.65.6,1.54.31,2.24.74s1.61.79,2.41,1.2a1.78,1.78,0,0,1,.92.93c-.37.23-.88.37-1.09.7-.31.49-.51,1-1.2,1s-1,.44-1.55.66c-.87.37-1,.57-.63,1.18a7.55,7.55,0,0,1,1.14,2.42c.24,1.5,1.2,2.65,1.78,4,.88.75,1.08,2,2,2.75a1.38,1.38,0,0,1,.37,1.25,2.14,2.14,0,0,0,.39,1.62,1,1,0,0,1,.28.59,6.82,6.82,0,0,0,1.14,3.48,2.68,2.68,0,0,1,.31,1.64,2.79,2.79,0,0,0,.45,1.93c.77,1,.76,2.34,1.35,3.43a6.38,6.38,0,0,1,.27,2.35,1.32,1.32,0,0,0,.17.63,2.82,2.82,0,0,1,.49,1.93,2.3,2.3,0,0,0,.15,1.33c.69.93.44,2,.51,3,0,.44-.07.92.24,1.31a2.33,2.33,0,0,1,.43,1.6,3.07,3.07,0,0,0,.49,2.28,1.41,1.41,0,0,1,.19,1c0,.91,0,1.82,0,2.73a1.48,1.48,0,0,0,.41.91,1,1,0,0,1,0,1.24,1.82,1.82,0,0,0,0,2.22.93.93,0,0,1,0,1.23,1.89,1.89,0,0,0-.43,1.26q0,3.75,0,7.52a2,2,0,0,1-.22,1.32,2.35,2.35,0,0,0-.44,1.59c0,1.71,0,3.42,0,5.14a1.88,1.88,0,0,1-.28,1,2.77,2.77,0,0,0-.46,1.6c0,.8,0,1.6,0,2.4a1.09,1.09,0,0,1-.14.63,3.13,3.13,0,0,0-.54,2.27,3.1,3.1,0,0,1-.42,1.61c-.4.78-.33,1.76-.95,2.48.22,1-.68,1.66-.65,2.59a2.66,2.66,0,0,1-.58,1.91c0,1-1,1.45-1.5,2.4a8.84,8.84,0,0,1,0,2.23,8.2,8.2,0,0,1-1.11,2.08,3.82,3.82,0,0,0-.29,1.31.77.77,0,0,1-.42.49A1.08,1.08,0,0,0,257,191a1,1,0,0,1-.16.64,11.67,11.67,0,0,0-1.9,3.18,1.18,1.18,0,0,1-.79.58c-.51.16-.54.62-.59,1.09-.07.64-.28.89-.8.85a4.82,4.82,0,0,0-2.57.75,1.23,1.23,0,0,0-.68.7.77.77,0,0,1-.68.65,3.1,3.1,0,0,0-1.87.65,3.25,3.25,0,0,1-1.52.68,7.24,7.24,0,0,0-2.51.94c-.71.31-1.36.8-2.08,1.06a7.72,7.72,0,0,1-1.68.18,1.63,1.63,0,0,0-.62.27,2.06,2.06,0,0,1-1.27.39c-.8,0-1.6-.07-2.4-.06a1.64,1.64,0,0,0-1,.24c-.57.5-1.37.24-1.9.63a4.38,4.38,0,0,1-2.28.53,2.24,2.24,0,0,0-.88.45c-.36.27-.69.59-1.06.92a4.9,4.9,0,0,1-.93-.39,2.82,2.82,0,0,0-2-.25.84.84,0,0,0-.72.61.93.93,0,0,1-1,.71l-8.55,0a2.7,2.7,0,0,0-1.6.45,12,12,0,0,1-1.79.9c-.16.06-.42-.08-.63-.16s-.51-.33-.56-.28c-.78.74-1.71.45-2.61.45-2.16,0-4.33,0-6.49.06-.18,0-.5.12-.51.22,0,.26.17.37.43.41A.94.94,0,0,1,201.55,209.58ZM256.88,12.7c-.07-.07-.18-.24-.21-.23a18.69,18.69,0,0,0-1.78.92c-.51.32-.52,1-.8,1.45a1.05,1.05,0,0,1-.2.27c-.26.2-.27.39,0,.52s.5.18.59.1c.82-.78,1.61-1.58,2.38-2.41C257,13.21,256.88,12.92,256.88,12.7Z"/><path d="M117.87,573.29c.19.1.38.3.57.3,1.23,0,2.46,0,3.76,0,.47.43,1,.88,1.44,1.35a1.44,1.44,0,0,1,.41,1.22,2.56,2.56,0,0,0,.55,1.88.73.73,0,0,1,0,.63,2.43,2.43,0,0,0-.56,1.54c.07.63-.56.94-.66,1.49a4.79,4.79,0,0,0,0,.66,2,2,0,0,0-1.28.38c-.69.58-1.4,1.15-2,1.63-1.42,0-2.67.05-3.92,0a12.32,12.32,0,0,1-3.72-.36,2.93,2.93,0,0,0-2,.07,10.68,10.68,0,0,1-3.37.3c-.54,0-1.08-.39-1.63-.42a10,10,0,0,0-3.4.21,7.94,7.94,0,0,1-1.67.2c-.59,0-1.08-.51-1.65-.24a4.75,4.75,0,0,1-2,.2,14.63,14.63,0,0,0-2.39,0,17.85,17.85,0,0,1-4.44.09,12.81,12.81,0,0,0-2-.06c-2.28.25-4.55,0-6.83,0-3.65.11-7.3-.07-11,.06a22.34,22.34,0,0,0-3.07.11l-4,.74a22.13,22.13,0,0,0-2.6.78c-.32.11-.62.37-.93.37-1.51,0-2.86.76-4.33.87-1.33.69-3,.24-4.25,1.15-3.42,1-6.3,3.1-9.23,5a3.28,3.28,0,0,0-.76.68,30.19,30.19,0,0,1-3.68,3.56,3,3,0,0,0-.66.77A11.15,11.15,0,0,0,35.24,601a17.17,17.17,0,0,0-.92,3.62,2.86,2.86,0,0,0,.36,1.62,4.65,4.65,0,0,0,1,1.36c1.23,1,2.44,2,3.67,3.08A5.29,5.29,0,0,0,42.43,612c1.82.13,3.54.91,5.39.84,1.26.65,2.66.52,4,.64a5.5,5.5,0,0,1,1.35.2,13.77,13.77,0,0,0,3.37.53c.67.09,1.33.15,2,.3a32.05,32.05,0,0,1,4.5,1.49,7.48,7.48,0,0,1,3,2.11c1.33,1.56,2.62,3.16,3.89,4.77a3.59,3.59,0,0,1,.52,1.24,17.36,17.36,0,0,1,.56,2.65c.1,1-.55,2-.8,2.93A36.22,36.22,0,0,1,68,635a10.23,10.23,0,0,1-3,4.07,7.67,7.67,0,0,0-1.4,1.5,11.62,11.62,0,0,1-4.22,3.4,30.17,30.17,0,0,1-5.29,2.36c-2.51,1.32-5.21,2.27-7.58,3.86a8,8,0,0,1-2.19.92,28.33,28.33,0,0,1-3.18,1.16c-1.33.23-2.13,1.28-3.31,1.7a11.32,11.32,0,0,0-1.55.7,14.45,14.45,0,0,0-3.18,2,4.82,4.82,0,0,1-1.14.73,19.47,19.47,0,0,0-3.66,2.51c-1,.89-2.14,1.7-3.24,2.51a41.17,41.17,0,0,0-6.72,5.79c-1.13,1.28-2.29,2.54-3.45,3.8a23,23,0,0,0-3.21,4.39,20.31,20.31,0,0,0-2.51,5.55,23.63,23.63,0,0,0-.47,3.73,8.15,8.15,0,0,1-.14,1.69,6.9,6.9,0,0,0,.91,5.55c.3.48.54,1,.8,1.5a2.05,2.05,0,0,0,1.06.82,4.5,4.5,0,0,0,.93.4,17.2,17.2,0,0,0,4.32.89,5.78,5.78,0,0,0,3,.57c1.15,0,2.22.45,3.35.49a16.06,16.06,0,0,0,4.74-.54,12.6,12.6,0,0,1,3.64-.78c1.45-.72,3.12-.57,4.61-1.17a23,23,0,0,0,4-1.83,20.43,20.43,0,0,1,3.29-1.77,40.54,40.54,0,0,0,4.56-2.3,20.71,20.71,0,0,1,2.68-1.49,16.84,16.84,0,0,0,4.91-3,5.07,5.07,0,0,1,1.48-.81c.83-.35,1.6-.86,2.4-1.29,1.4-.76,2.75-1.63,4.21-2.25a25.53,25.53,0,0,0,5.25-3.14,27.16,27.16,0,0,1,5-2.94A9.21,9.21,0,0,0,76,672.89a10.82,10.82,0,0,1,2.39-1.29c1.83-.91,3.72-1.74,5.44-2.81,1.26-.78,2.5-1.56,3.82-2.23s2.81-1.49,4.2-2.25a7.86,7.86,0,0,1,1.17-.7,18.49,18.49,0,0,0,5.7-3c2.75-1.32,5.3-3.11,8.43-3.54.22,0,.41-.23.62-.28,1.56-.35,2.94-1.19,4.48-1.63s3-1,4.48-1.56a4.1,4.1,0,0,1,2-.42,1.94,1.94,0,0,0,1.28-.41,19.13,19.13,0,0,0,1.71-1.1,2,2,0,0,1,2.77-.06,6.07,6.07,0,0,0,.91.48,2.39,2.39,0,0,0,.33,1.63c.58.7.34,1.51.34,2.29-.76.66-.45,1.73-.94,2.48a2.32,2.32,0,0,0-.39,1.27c0,.79-.64,1.14-1.2,1.52-1-.28-1.65.72-2.56.7-.62,0-1,.47-1.55.62s-1.21-.1-1.68.13a12.55,12.55,0,0,1-2.21.76,11.14,11.14,0,0,0-1.8.89c-.3.14-.65.37-.93.31-1.12-.21-2,.47-2.85.9a4,4,0,0,1-1.92.52,2,2,0,0,0-1,.23c-1.62,1-3.55,1.43-4.94,2.81-1.09.58-2.16,1.19-3.27,1.71-.91.43-1.8.91-2.7,1.33a6.36,6.36,0,0,0-1.41.89c-.26.21-.58.52-.85.5a4.91,4.91,0,0,0-2.49.95A7.31,7.31,0,0,0,89.14,676a3.68,3.68,0,0,1-1.74.95,17.94,17.94,0,0,0-1.81.9,8.17,8.17,0,0,0-1.36,1,4.11,4.11,0,0,1-.93.33c-.32.11-.73.1-.94.3a13.68,13.68,0,0,1-3.16,1.88c-1.46.83-3.1,1.36-4.31,2.59-1.35.56-2.32,1.75-3.77,2.15a2.34,2.34,0,0,0-1.05.84,7.39,7.39,0,0,1-2.52,1.65,2.19,2.19,0,0,0-1.33.21A38.23,38.23,0,0,1,62,690.91a12.65,12.65,0,0,0-2.6,1.62,22,22,0,0,1-5.19,3.21,3.84,3.84,0,0,0-1.17.69,6.86,6.86,0,0,1-2.38,1.24A25.22,25.22,0,0,0,48.3,699a24.56,24.56,0,0,0-3.41,1.48A19.32,19.32,0,0,1,42,702.23c-1.44.64-2.81,1.5-4.46,1.57-1,0-1.89.86-3,.72s-2,.45-3,.59a5,5,0,0,0-.67.13A19.19,19.19,0,0,1,27,706.3c-1.36.16-2.73.15-4.1.19a4.83,4.83,0,0,1-2.34-.36,2.73,2.73,0,0,0-1-.2c-.46,0-.92,0-1.37,0-.8,0-1.6-.12-2.4-.1s-1.42-.73-2.26-.68-1.28-.45-1.95-.56a5.19,5.19,0,0,1-2-.52,8.25,8.25,0,0,1-3.13-1.27,3.11,3.11,0,0,1-.84-.59c-.73-.72-1.43-1.47-2.13-2.22a2.35,2.35,0,0,1-.39-.56,35,35,0,0,1-2.55-5.56A12,12,0,0,1,0,690.48c0-1.6.09-3.2.12-4.79A22.71,22.71,0,0,1,.17,683a12.49,12.49,0,0,1,.76-2.6,5.25,5.25,0,0,0,.4-1.65,8.48,8.48,0,0,1,1.11-3.55,92.11,92.11,0,0,1,5.42-8.65,5.43,5.43,0,0,1,.68-.76c2.33-2.35,4.69-4.67,7-7,.66-.67,1.51-1,2.2-1.62a15.1,15.1,0,0,1,2.07-1.78,22.08,22.08,0,0,0,2.14-1.69,5.64,5.64,0,0,1,1-.87c1.91-.81,3.3-2.42,5.17-3.3a10.4,10.4,0,0,0,1.95-1.37,16.34,16.34,0,0,1,3.5-2.1c1.24-.56,2.43-1.26,3.71-1.69s2.42-1.28,3.82-1.4c1.63-.8,3.27-1.59,4.89-2.4s3-1.53,4.58-2.26c.4-.2.92-.18,1.28-.42a18.23,18.23,0,0,1,2.69-1.43c.71-.31,1.19-1,2-1.25.17,0,.3-.32.41-.5a5.25,5.25,0,0,1,1.9-1.93,5.57,5.57,0,0,0,1.94-2.32,11.22,11.22,0,0,0,.81-1.88,2.66,2.66,0,0,0-.63-3.13,6,6,0,0,0-3.19-1.78,27.59,27.59,0,0,0-6.06-.86c-.8,0-1.46-.59-2.3-.49a3.68,3.68,0,0,1-2.31-.44,2.22,2.22,0,0,0-1-.17,6.34,6.34,0,0,1-3-.52,2.34,2.34,0,0,0-1.34-.14c-1.44.22-2.64-.61-4-.83a1.21,1.21,0,0,1-.6-.29c-1.09-1-2.54-1.53-3.66-2.48-1.39-1.18-2.72-2.43-4-3.69A14.23,14.23,0,0,1,28,611.88a8.13,8.13,0,0,1-1.9-5.68,12.77,12.77,0,0,0,.05-2.05,5.43,5.43,0,0,1,.46-3.32,2.23,2.23,0,0,0,.19-1,10.14,10.14,0,0,1,1.52-4.45,14.31,14.31,0,0,1,3.54-4.53,37.77,37.77,0,0,0,3-2.84,9.43,9.43,0,0,1,2.32-2,2,2,0,0,0,.55-.39,9.44,9.44,0,0,1,2.34-2c.79-.43,1.65-.74,2.48-1.12s1.46-.62,2.15-1A27.05,27.05,0,0,1,51.26,579c.7-.51,1.55-.27,2.31-.47s1.3-.39,2-.59,1.51-.46,2.27-.67a2,2,0,0,1,.68-.09,5.3,5.3,0,0,0,2.9-.84c.38-.19.74-.44,1.2-.13a.84.84,0,0,0,.66,0c1.17-.44,2.49-.29,3.62-.94a2,2,0,0,1,1-.12c1.25,0,2.51-.06,3.75,0a13.81,13.81,0,0,1,3.38.26,4.5,4.5,0,0,0,2.36,0,15.45,15.45,0,0,1,4.06-.34,7.25,7.25,0,0,0,4.25-1,4.2,4.2,0,0,1,2.3-.5q13.52.09,27,.16c.57,0,1.14-.07,1.71-.1S117.36,573.05,117.87,573.29Z"/><path d="M173.27,878.61h8.45l-.06,5.46a1.89,1.89,0,0,0,0,.68c.59,1.3.3,2.7.42,4s0,2.51,0,3.76c0,2.51.08,5,.1,7.52,0,3.19.11,6.39,0,9.58-.06,2.16-.29,4.32-.18,6.48a1.92,1.92,0,0,1-.2.63,1.84,1.84,0,0,0-.1,1.34c.7,1.66.08,3.39.3,5.07-1,1.52-.33,3.36-1,5a1.3,1.3,0,0,0,0,1,2.7,2.7,0,0,1-.08,2.6c0,1.38-.86,2.57-.84,4a2.6,2.6,0,0,1-.34,1c-.56,1.35-1.17,2.68-1.68,4a29.59,29.59,0,0,1-1.65,2.57c-.08.18-.33.3-.53.41a9.59,9.59,0,0,0-2.54,1.68c-.58.6-1.5.46-2.18.88-2.12-.08-3.94.88-5.82,1.66-.2.08-.37.32-.56.33s-.4-.23-.61-.26a1,1,0,0,0-.64.11,1.26,1.26,0,0,1-1.29.18,4.91,4.91,0,0,0-2.66-.37,13.77,13.77,0,0,1-4-.63,5.11,5.11,0,0,1-2.08-1,17.52,17.52,0,0,1-4.74-6.58c-.16-.42-.4-.81-.59-1.22a2.9,2.9,0,0,0-.27-.62c-1.72-2.06-2.56-2.3-4.41-.42a4.58,4.58,0,0,0-1.2,2,11.57,11.57,0,0,1-1.24,2.76,20.21,20.21,0,0,0-2.19,6c-.21.88-.5,1.73-.77,2.59a8.48,8.48,0,0,0-.37,1c-.12.78-.18,1.58-.27,2.37-1.1,1.73-1.51,3.79-2.65,5.5-.31.47-.51,1-.83,1.48a10.53,10.53,0,0,0-1.35,2.73,9.63,9.63,0,0,1-2.27,3.75c-1.2,1.21-2,2.78-3.23,4a2.8,2.8,0,0,0-.52.87,4.35,4.35,0,0,1-1.55,1.77,3.39,3.39,0,0,0-1,.83c-1.07,1.87-3,2.71-4.54,4.09a8.64,8.64,0,0,0-2.89,2.35,4.4,4.4,0,0,1-1.62,1.21,11.94,11.94,0,0,0-2.91,1.74c-.41.34-1.14.28-1.55.62-1.35,1.12-3.14,1.3-4.53,2.33a3.45,3.45,0,0,1-1.29.32c-1.55.33-3,1.22-4.57,1.24s-3,0-4.45,0q-3.93,0-7.86-.07a6.85,6.85,0,0,1-1.32-.26,8.9,8.9,0,0,0-1-.24,20,20,0,0,1-2-.08c-.66-.11-1.27-.48-1.94-.61-1.21-.24-2.43-.54-3.65-.67a5.82,5.82,0,0,1-2.82-1.09A10.93,10.93,0,0,0,71.52,984c-1.12-.29-1.87-1.23-2.87-1.76a16,16,0,0,1-2.43-1.86,1.5,1.5,0,0,1-.36-.56,2.19,2.19,0,0,0-1.13-1.22,8.55,8.55,0,0,1-1.2-.63,4.3,4.3,0,0,1-1.38-1.49A25.11,25.11,0,0,0,60,973a17,17,0,0,1-.8-1.84,15.16,15.16,0,0,1-1.07-1.73,18.66,18.66,0,0,1-1-3.57c-.2-.88-.35-1.77-.58-2.66a8.7,8.7,0,0,1,0-4.72,12,12,0,0,0,.43-4.39,19.84,19.84,0,0,1,0-2,4.17,4.17,0,0,1,.16-1.68c.49-.94.42-2,.86-2.92,1-2,1.57-4.24,2.63-6.24.22-.4.29-.93.61-1.21,1-.85,1.17-2.2,2-3.11.47-.49.82-1.09,1.28-1.6a27,27,0,0,1,1.92-1.94c.51-.45,1.16-.74,1.63-1.21a18.27,18.27,0,0,0,1.21-1.64,25.53,25.53,0,0,1,2.89-2.9c.93-.82,1.62-1.92,2.84-2.42a1,1,0,0,0,.51-.43c.65-1.26,2-1.88,2.78-3s1.41-2.06,2.17-3c1-1.36,2.12-2.67,3.2-4,.71-.87,1.81-1.34,2.34-2.43a30.45,30.45,0,0,1,1.59-2.62c.18-.29.26-.68.5-.87a7.51,7.51,0,0,0,2.43-4,7.15,7.15,0,0,1,.68-1.55,40,40,0,0,0,2.06-4.64c.77-1.76,1.24-3.63,2-5.41.34-.84.28-1.77.58-2.64.51-1.51.25-3.14.64-4.7a17.19,17.19,0,0,0,.12-4.42c0-.92,0-1.83,0-2.74.17-.43.42-.79.95-.78.34,0,.68,0,1,0,.71,0,1.12.72,1.86.66s1.57,0,2.36,0h2c0,2.28,0,4.55.05,6.83-.8.66-.79.67-.21,1.48,0,.64.07,1.28.1,1.92-.64.34-.56.91-.45,1.49-.19,1.11-.23,2.25-.44,3.37-.45,2.36-1.39,4.55-2.06,6.83a21.2,21.2,0,0,1-.94,2.56,30,30,0,0,1-1.34,2.73c-.7,1.29-1,2.78-1.91,4a10.77,10.77,0,0,1-2.9,4.94,3.18,3.18,0,0,0-.55.85A20,20,0,0,1,90,921a18.45,18.45,0,0,0-2.92,3.33,22.87,22.87,0,0,1-4.06,5,21.53,21.53,0,0,1-3.56,3.18,4.25,4.25,0,0,0-.93,1c-.29.34-.5.85-.87,1a5.9,5.9,0,0,0-2.08,2.19,13.62,13.62,0,0,1-2.64,2.67c-1,.75-1.83,1.66-2.74,2.51a43.09,43.09,0,0,0-2.85,5,37.08,37.08,0,0,0-1.89,5.46,6.36,6.36,0,0,0-.24,1.67,15.79,15.79,0,0,1-.57,5.07,3.38,3.38,0,0,0,.07,2,7.08,7.08,0,0,1,.45,2.67,4.64,4.64,0,0,0,1,2.79c.68,1.18,1.43,2.31,2.21,3.42.32.45.47,1,1,1.26a10.72,10.72,0,0,1,1.13.77,4.48,4.48,0,0,1,1.66,1.66,3.58,3.58,0,0,0,1.74,1.58,5.11,5.11,0,0,1,1.41.94c.55.51,1.37.24,1.89.7a9.64,9.64,0,0,0,3.7,1.65,11.47,11.47,0,0,1,2.27.64,2.25,2.25,0,0,0,1,.23,10.11,10.11,0,0,1,3.36.46,6.27,6.27,0,0,0,2,.17c2.4,0,4.79.07,7.19.07,1,0,2,0,3.08-.09a3,3,0,0,0,1-.14,39.23,39.23,0,0,0,4.36-1.88c1.07-.66,2.18-1.22,3.29-1.8a13,13,0,0,0,3.84-2.71,20.5,20.5,0,0,1,2.83-1.89,7.94,7.94,0,0,0,2.72-2.53,6.77,6.77,0,0,1,1.1-1.29,60.88,60.88,0,0,0,4.79-5.36,8.59,8.59,0,0,0,1.63-2.95,11.22,11.22,0,0,1,1-2.13,14.16,14.16,0,0,0,1.86-4,1.28,1.28,0,0,1,.26-.62c.83-.89.83-2.09,1.25-3.12s.29-2.22.87-3.28a18.74,18.74,0,0,0,1.14-3.56c.1-.32.35-.63.35-.95a6.75,6.75,0,0,1,1.45-3.76,5,5,0,0,0,.87-2.2,3.2,3.2,0,0,1,1-2.13,11.75,11.75,0,0,0,2.34-2.92,4.65,4.65,0,0,1,1.39-1.47c.57-.38,1.1-.82,1.7-1.14a9.13,9.13,0,0,1,2.18-1,25.68,25.68,0,0,0,3-.49.89.89,0,0,1,.68,0c1,.54,2.22.48,3.15,1.23s1.72,1.12,2.53,1.74a10.24,10.24,0,0,1,2.87,3.26c.71,1.29,1.12,2.71,1.91,4,1.29,2,1.26,2.07,3.44,2.08a16.14,16.14,0,0,0,7.3-1.47,7.29,7.29,0,0,1,2.24-.79.85.85,0,0,0,.5-.42c.26-.51.45-1,.67-1.57,1.38-3.32,1.4-3.32,1.48-6.57a18.9,18.9,0,0,1,.52-4.73,9.34,9.34,0,0,0,.17-2.37c0-2.51,0-5,.05-7.52a12.44,12.44,0,0,1,.12-3.06,16.85,16.85,0,0,0,.32-3.73c.07-1.37.08-2.74.06-4.11a34.2,34.2,0,0,0-.24-4.75,9.17,9.17,0,0,1,0-3.69,4.13,4.13,0,0,0,.08-2,20.27,20.27,0,0,1-.34-5.09C173.51,884.31,173.38,881.46,173.27,878.61Z"/><path class="cls-3" d="M388.7,202.28c-.18.13-.34.37-.52.39-.56.07-1.14,0-1.7.08-.33,0-.76,0-1,.2a2.9,2.9,0,0,1-2.25.54h-3.42a3.62,3.62,0,0,0-2.59.64c-1.07-.08-1.92.61-2.92.84a13.4,13.4,0,0,1-2.94.7c-.89.62-2,.38-2.92.78s-2,.36-2.87,1a11.65,11.65,0,0,0-4.45,1.55,1.69,1.69,0,0,1-.67,0,.82.82,0,0,0-1-.69,5.11,5.11,0,0,1-3.24-.71c-.39-.23-.78-.44-1.14-.64-2,0-3.93,0-5.87,0a2.2,2.2,0,0,0-1,.27.77.77,0,0,1-.9,0,2.37,2.37,0,0,0-1.65-.24,2.46,2.46,0,0,1-2.13-.83,1.53,1.53,0,0,0-2.15-.28,1.16,1.16,0,0,1-1.77-.2,2.39,2.39,0,0,0-2.14-.81,2.78,2.78,0,0,1-1.94-.47,10.65,10.65,0,0,0-1.74-.84h-2.81a2.29,2.29,0,0,1-1-.12,2.67,2.67,0,0,0-1.92-.53c-1.21.27-2.09-.86-3.26-.76l-1.37-1a1.37,1.37,0,0,0-.93-.36,2.59,2.59,0,0,1-2.43-1,1.33,1.33,0,0,0-1.24-.41,1,1,0,0,1-.9-.36c-.48-.5-.92-1-1.36-1.54-.06-.08,0-.24-.09-.33-.42-.6-.49-.61-1.39-.16-.67.34-1.07.27-1.46-.26-.13-.18-.38-.37-.37-.55a4.75,4.75,0,0,0-1-2.5,11.6,11.6,0,0,0-2-2.28,5.53,5.53,0,0,0-2.1-1.7,23.28,23.28,0,0,1-1.57-2.16,5.48,5.48,0,0,1-1-2.1,2.71,2.71,0,0,0-.43-1.27,8.54,8.54,0,0,1-.74-1.52,16.5,16.5,0,0,0-.42-1.61,3.44,3.44,0,0,1-.44-1.61c0-.57,0-1.14,0-1.71a3.46,3.46,0,0,0-.47-2,2,2,0,0,1-.16-1c0-1.37-.07-2.75,0-4.11.09-1.56-.43-3.19.55-4.67.16-.24.07-.66.07-1,0-1.37,0-2.74,0-4.11a2,2,0,0,1,.35-1.29,2.08,2.08,0,0,0,.33-1.29c0-1,0-2.05,0-3.08a2.73,2.73,0,0,1,.41-1.28,1.84,1.84,0,0,0-.13-1.93,1.11,1.11,0,0,1,0-1.26,3.87,3.87,0,0,0,.11-3.29,4.74,4.74,0,0,1-.43-1.62c0-.45,0-.91,0-1.37,0-1.34-.39-1.75-1.74-2a2.07,2.07,0,0,1-.92-.33A4.66,4.66,0,0,1,300,140c-.79-.88-.57-1.94-.46-2.94.08-.72.73-1.12,1.24-1.57a6.66,6.66,0,0,1,.65-.43c1.51,0,3.1,0,4.69-.09a2.71,2.71,0,0,0,1.32-.2,4.34,4.34,0,0,1,2.31-.45c1.25,0,2.51,0,3.76,0a2.9,2.9,0,0,0,1.34-.16,5.33,5.33,0,0,1,3-.48c2.4,0,4.8-.06,7.19-.07a3.64,3.64,0,0,0,2.28-.52A.89.89,0,0,1,328,133c1.21.25,2.07-.92,3.25-.77.7-.57,1.67-.69,2.29-1.43s1.09-1.15,1.54-1.61c.33-1.25-.16-2.47.65-3.46a13.81,13.81,0,0,0,0-4.06,4.21,4.21,0,0,1-.57-2.62,2,2,0,0,0-.23-1,3.19,3.19,0,0,1-.42-2,3.2,3.2,0,0,0-.44-2,2,2,0,0,1-.18-1c-.05-1-.1-2-.09-3.08a1.9,1.9,0,0,0-.93-1.65l-1,.28c-1.27-.84-2.63-.34-4-.25-.91.69-2,.47-3,.43-.31,0-.62-.39-.92-.37a12.16,12.16,0,0,0-1.22.38,1.85,1.85,0,0,1-1-.1,11,11,0,0,1-1.76-1,1.34,1.34,0,0,1-.67-1.12c0-.57,0-1.14,0-1.71a1,1,0,0,1,.92-.81l4.11,0h7.2c.43,0,.87-.58.66-.93a3,3,0,0,1-.53-1.93,8.85,8.85,0,0,0,0-1c0-1,0-2-.05-3.08s.2-2.07-.51-3c0-1-.07-2-.13-3.06a3.74,3.74,0,0,1,.46-1.6A5.13,5.13,0,0,1,333.72,87h1.68c.8,0,1.6,0,2.4,0a20.72,20.72,0,0,0,2.73,0c.88-.11,1.47.53,2.25.65a1.88,1.88,0,0,0,.34,0l3.08-.06c.31,0,.7-.71.57-1.08A13.23,13.23,0,0,0,346,84.7c-.44-.78-1.3-1.29-1.48-2.25-.78-.69-1-1.74-1.73-2.49a9.78,9.78,0,0,1-1.5-2.62c-.49-1-1.64-1.59-2-2.7-1.38-1.65-2.11-3.69-3.37-5.42a13.4,13.4,0,0,1-2.23-3.75,3.6,3.6,0,0,0-.83-1.07,2,2,0,0,1-.44-1.25,2,2,0,0,0-1-1.34c-.22-.17-.65-.05-1-.07-.1-.62.54-1,.58-1.51s0-1.12,0-1.68,0-1.35,0-2c0-1-.16-2,.55-2.9.08-.11,0-.42-.11-.61a2.1,2.1,0,0,0-.4-.54,2.18,2.18,0,0,1-.76-1.78c0-.67,0-1.35,0-2a1.53,1.53,0,0,1,1.45.45c.36.36.69.82,1.29.85,0,.57.05,1.14.06,1.71s.12.9.64,1c.8.24.74,1.42,1.67,1.5.09,0,.18.14.24.24a4.75,4.75,0,0,1,.79,1.46c.13.86,1,.83,1.33,1.39s.67,1.4,1,2.08,1.16,1.07,1.27,2c0,.25.23.16.59-.41a.76.76,0,0,1,.61.7,2.41,2.41,0,0,0,.43,1.57,15.36,15.36,0,0,1,.95,1.74v2.4l2.73,3c0,1.25-.09,2.41,1.3,2.9a6.11,6.11,0,0,0,.08,1.36,5.73,5.73,0,0,0,.67,1.52c.35.58.79,1.09,1.22,1.67-.09.31-.56.63-.1,1.09a5.36,5.36,0,0,1,1.13,1.67c.88,1.93,1.84,3.82,2.81,5.71a2.45,2.45,0,0,1,.41,1.26,7.89,7.89,0,0,1-.05,1.69A7.43,7.43,0,0,1,352,91a13.41,13.41,0,0,0-1.15,1.65,3.5,3.5,0,0,1-3,1.86,3.81,3.81,0,0,0-1.9.54,1.24,1.24,0,0,1-1.3.1,4.6,4.6,0,0,0-2.6-.58c-1.14,0-2.28,0-3.41,0,0-.31,0-.62-.05-.92,0-.08-.17-.23-.2-.21s-.35.16-.37.28c-.11.49.14.76.61.85a3.77,3.77,0,0,0,.41,2.3,1.83,1.83,0,0,1,.23,1c0,1.59.06,3.19.05,4.79a3.13,3.13,0,0,0,.53,1.92.81.81,0,0,1-.18.94.9.9,0,0,0-.14,1.22,3.13,3.13,0,0,1,.5,1.94c0,.68,0,1.35.06,2,.93,1.08.51,2.4.62,3.61a26.38,26.38,0,0,1,0,3.08,2.32,2.32,0,0,0,.35,1.29,1.36,1.36,0,0,1,.24.62c0,1.26,0,2.51,0,3.76a.73.73,0,0,1,0,.34c-1,1.58-.51,3.33-.61,5a2.92,2.92,0,0,1-.4,1.27,2.35,2.35,0,0,0-.27,1,4.27,4.27,0,0,1-.67,2.91c.2,1.08-.91,1.83-.72,2.9-.25.5-.47,1-.75,1.5a1.57,1.57,0,0,1-.79.56c-.61.28-1.17.67-1.75,1-.11,1-1.09,1-1.71,1.41a19.28,19.28,0,0,1-2.22.75,5.84,5.84,0,0,1-3,.17,2.1,2.1,0,0,0-1.59.44c-.5.4-1.09.23-1.65.22a2.52,2.52,0,0,0-1.9.56.59.59,0,0,1-.31.07c-.11,0-.26,0-.34,0-1.45-1-3.09-.47-4.65-.53-.19,0-.41.18-.6.3a1.79,1.79,0,0,1-2.2-.09,1.29,1.29,0,0,0-.62-.22c-.68,0-1.37,0-2.05,0a.42.42,0,0,0-.27.19c-.82,1.25-1.66,2.87-.34,4.29.23.25.43.54.69.88,0,1.65,0,3.35,0,5.06a2,2,0,0,0,.4,1.27.93.93,0,0,1,0,1.24,1.05,1.05,0,0,0,0,1.51,1.35,1.35,0,0,1,.16,1.6c-.6,1-.81,1.86.06,2.77.07.06.07.2.07.31a.52.52,0,0,1,0,.33,1.24,1.24,0,0,0-.15,1.5c.39.7.11,1.56.14,2.35a1,1,0,0,1-.27.6,1,1,0,0,0,0,1.51.85.85,0,0,1,0,1.21c-.28.35-.61.68-.86,1.06-.11.16-.19.51-.1.62a3.62,3.62,0,0,1,.6,2.56c-.06,2.05,0,4.1,0,6.15a2.36,2.36,0,0,0,.47,1.59,1.53,1.53,0,0,1,.24,1,4,4,0,0,0,.36,1.65c.26.48.22,1.14.53,1.56s.92.61,1.33,1c.93.84,1.86,1.7,2.7,2.62a9.76,9.76,0,0,0,2.27,1.46c.47.31,1.14,0,1.6.45s.69.6,1,.94a2.92,2.92,0,0,0,2.13.9c.41,0,.8.51,1.21.52a4.17,4.17,0,0,1,2.77,1.1c.67.58,1.78.3,2.47,1,.66.15,1.4-.15,2,.29a3.3,3.3,0,0,0,2,.48,1.24,1.24,0,0,1,.65.11,4.35,4.35,0,0,0,2.63.54,2.31,2.31,0,0,1,1.28.4c.09.07.19.17.29.17,2.15,0,3.83,1.21,5.72,2.14,2.54,0,5.16,0,7.78,0,.91,0,1.82.06,2.74.09,1.09.87,2.39.52,3.62.63a2.44,2.44,0,0,1,.95.29,2.48,2.48,0,0,0,1.3.34c1.48,0,3,0,4.44.06,1.23,0,2.53-.31,3.64.54,1,0,2.05.08,3.07.14a2.25,2.25,0,0,1,1,.18,1.49,1.49,0,0,0,1.88.06c.18-.13.36,0,.59.14a2.86,2.86,0,0,0,2.61,0c.23-.12.41-.22.6-.08a2.51,2.51,0,0,0,1.62.38c1,0,2.06-.06,3.08,0A13.48,13.48,0,0,1,388.7,202.28Z"/><path class="cls-1" d="M330.31,48.68c0,.67.06,1.35,0,2a2.18,2.18,0,0,0,.76,1.78,2.1,2.1,0,0,1,.4.54c.08.19.19.5.11.61-.71.88-.51,1.91-.55,2.9,0,.67,0,1.35,0,2s0,1.12,0,1.68-.68.89-.58,1.51c-.06,1-.12,2-.19,3.07a9.52,9.52,0,0,1-1.2,3.85c-.46.9-1,1.79-1.41,2.7-.15.3-.11.69-.29,1-.71,1-1.43,2-2.21,3a5,5,0,0,1-3.28,2.25,3.11,3.11,0,0,0-1.15.72,2,2,0,0,1-1.25.47c-1,0-2,0-3.08,0-.81,0-1.38-.82-2.24-.72-1.88-.78-3.81-1.48-5.15-3.14a3.42,3.42,0,0,0-1.31-1.06,3.2,3.2,0,0,1-1.79-2.38c-.33-1.65-1.1-3.23-1-5a2,2,0,0,0-.08-1,6.59,6.59,0,0,1-.36-3c0-.46,0-.91,0-1.37s-.11-.9-.18-1.35a1,1,0,0,0-1-.75L303,59a6.08,6.08,0,0,0-2.34.32c-.88.35-1.68-.59-2.62-.33-.32.09-.69,0-1,.15a5.52,5.52,0,0,1-4,0,1.39,1.39,0,0,0-1,.06,5.22,5.22,0,0,1-1.65.3c-.73.07-1.3-.47-2-.42s-1.25.5-2,.41a5.51,5.51,0,0,1-2-.28,2.26,2.26,0,0,0-2,0,3,3,0,0,1-1.32.27,7.36,7.36,0,0,1-3.35-.42.85.85,0,0,0-.65.08,1.61,1.61,0,0,1-1.61.12c-.34-.2-.65,0-1,.07a3.2,3.2,0,0,1-2.32-.08,2.37,2.37,0,0,0-1.64,0,7.42,7.42,0,0,1-4-.06,3.83,3.83,0,0,0-2.67,0,4.33,4.33,0,0,1-2.66.12c-.21,0-.5-.18-.62-.09-.85.67-1.77-.41-2.6.16a5.6,5.6,0,0,0-3-.34c-2.71,0-5.41-.06-8.11-.05a2,2,0,0,0-.93.34,2,2,0,0,1-1.29.24c-.67-.07-1.12-.72-1.88-.64a17.19,17.19,0,0,1-2,0,1.61,1.61,0,0,1-1.35-.86c-.11-.17-.23-.47-.16-.61a7.33,7.33,0,0,1,1.32-2.3c.57-.55,1.14-1.09,1.7-1.61l2.41-.12v0c.07.33.22.67.59.68,2.1,0,4.21,0,6.31,0,.36,0,.53-.33.62-.67h0l3.43,0c.22,0,.45.07.68.07,4.89,0,9.78,0,14.68,0a3.61,3.61,0,0,1,1.66.24.87.87,0,0,0,.63.11,7.12,7.12,0,0,1,3.36-.3c1.57,0,3.19-.33,4.71.37a4.3,4.3,0,0,1,2.32-.39l18.78.07c.34,0,.68-.07,1-.08a.83.83,0,0,0,.77-.55c1.3-3.51,1.28-3.52,2.89-5.67a2.66,2.66,0,0,1,.7-.68,2.36,2.36,0,0,0,1-.91,8.3,8.3,0,0,1,2.1-2.65,7.88,7.88,0,0,0,1.54-1.82,3.26,3.26,0,0,1,1.61-1.17,5.39,5.39,0,0,1,1-.28c.55-.13,1.1-.28,1.65-.38s1.26.44,1.95.24l.33.05a10.11,10.11,0,0,1,2.66.17c.93.31,1.78.88,2.71,1.24.75.29,1.05,1.18,1.87,1.36.06.42.26.68.71.68l.71,1.34a.64.64,0,0,0,.54.79c.69.14.7.74.84,1.25a.62.62,0,0,0,.56.79,2.58,2.58,0,0,1,.19.53c0,.61,0,.61.54.81Zm-9.25-.56c-.81-.25-1.65-.54-2.52-.76-.31-.08-.77-.11-.94.23-.36.75-1.28.93-1.64,1.63a12.47,12.47,0,0,1-2.61,3.13,20.24,20.24,0,0,0-2.15,3,27.33,27.33,0,0,0-.63,3.32c-.12,1.8-.11,3.62-.09,5.43a5.32,5.32,0,0,0,.48,2.65,2.19,2.19,0,0,1,.14,1,2,2,0,0,0,.59,1.53,19.78,19.78,0,0,0,1.42,1.47c.52.42,1.21.64,1.72,1.08a4,4,0,0,0,2.86.82,3.23,3.23,0,0,0,2.64-1.35,26.56,26.56,0,0,0,1.8-2.87,9.82,9.82,0,0,0,1.25-2.77,38.8,38.8,0,0,0,.72-4c.1-1.36.12-2.72.15-4.09a20.6,20.6,0,0,0-.08-2.72c-.07-.54-.52-1-.58-1.57a5.19,5.19,0,0,0-1-2.5C322.05,50,321.61,49.07,321.06,48.12Z"/><path class="cls-2" d="M430.85,238.59a2.65,2.65,0,0,1-1-1.3c-1.1-3.12-1.33-3.75-2.7-5.73a9.27,9.27,0,0,1-1.25-2.39c-.27-.86-1.14-1.41-1.1-2.42a1.36,1.36,0,0,0-.44-.89c-.88-.76-1-2-1.92-2.76a1.38,1.38,0,0,1-.28-1.28,1,1,0,0,0-.86-1.2,11.35,11.35,0,0,0-.66-1.12c-.32-.42-1.07-.24-1.27-.95a3,3,0,0,0-.78-1.1,10,10,0,0,0-2.15-2.16c-.76-.42-.93-1.61-2.07-1.59-.13,0-.33-.31-.38-.5a1.58,1.58,0,0,0-1.34-1.35c-.7-.1-1.09-.75-1.78-.91-.38-.1-.69-.56-1-.88a3.77,3.77,0,0,0-2.39-1.16c-.14,0-.26-.32-.38-.49,0-5.46,0-10.92,0-16.39,0-1.59,0-3.18.05-4.78a.86.86,0,0,1,.89-.79h21.52l.68,0c.26,0,.73.37.74.58s0,.68,0,1q0,24.24,0,48.49A5,5,0,0,1,430.85,238.59Z"/><path class="cls-2" d="M431,537.93c-.1,0-.26-.06-.3-.14-.58-1.08-1.14-2.18-1.7-3.27a27.55,27.55,0,0,0-1.5-2.64,9.71,9.71,0,0,1-1.28-2.72,19.82,19.82,0,0,0-1.54-3.35,10.49,10.49,0,0,1-1.11-2.44,22.86,22.86,0,0,0-1.19-2.77c-.3-.84-1-1.55-.91-2.52-.82-1.35-1.15-2.92-1.86-4.31-.61-1.2-.91-2.52-1.46-3.75a17,17,0,0,0-.65-1.89,13.63,13.63,0,0,1-1.42-3.05A15.28,15.28,0,0,0,414.8,502a4.79,4.79,0,0,0-1.29-2.69c-.39-.56-.31-1.28-.64-1.9-1.17-2.18-2.17-4.44-3.3-6.63a4,4,0,0,1-.47-1.95.83.83,0,0,1,.8-.89.74.74,0,0,0,.64-.67,2.5,2.5,0,0,1,1.15-1.21c.11-.05.23-.05.33-.1.71-.33,1.46-.57,2.18-.85a7.31,7.31,0,0,0,1.83-1.5,3.48,3.48,0,0,1,1.23-.54,3.51,3.51,0,0,0,1.15-.67,2.31,2.31,0,0,1,1.54-.57,1.73,1.73,0,0,0,.93-.38,3.81,3.81,0,0,0,.94-1,4.15,4.15,0,0,1,2.44-1.75c.42-.16.87-.23,1.3-.38.2-.08.49-.2.54-.36.24-.81.91-.88,1.57-1,.33-.08.49-.42.72-.68a4.81,4.81,0,0,1,2.6-1.38c.05,3.06.13,6.13.13,9.2q0,13.64,0,27.27Q431.07,524.64,431,537.93Z"/><path class="cls-1" d="M346.7,73.23c-1.39-.49-1.34-1.65-1.3-2.9l-2.73-3V65a18.82,18.82,0,0,0,4.21,2.1,1.1,1.1,0,0,0,.67,0,5.73,5.73,0,0,0,2.87-1.7,14.09,14.09,0,0,0,1.49-2.27c.39-.82.73-1.65,1.14-2.45a4.17,4.17,0,0,0,.58-1.94c0-.79.07-1.59.14-2.39A5.88,5.88,0,0,1,354,55c.64-1.9.22-3.84.28-5.76a.59.59,0,0,0-.13-.31c-.63-1.2-.92-2.54-1.52-3.77-.51-1-1.28-1.88-1.83-2.88a1,1,0,0,0-.87-.43c-.45,0-.91-.08-1.36-.1a1.59,1.59,0,0,0-1.24.44A11.83,11.83,0,0,0,344.86,45a2.8,2.8,0,0,1-1.06,1.3,5.11,5.11,0,0,0-1.79,2,8.1,8.1,0,0,0-1.38,4.11c.05,1.7-.33,3.4-.05,5.11,0,.18-.16.41-.24.61s-.26.48-.2.54c.64.65.39,1.51.54,2.27-.36.57-.56.66-.59.41-.11-.88-.91-1.26-1.27-2s-.66-1.4-1-2.08-1.2-.53-1.33-1.39a4.75,4.75,0,0,0-.79-1.46c-.06-.1-.15-.23-.24-.24-.93-.08-.87-1.26-1.67-1.5-.52-.14-.63-.56-.64-1s0-1.14-.06-1.71c.16-.76.06-1.6.77-2.18a2.07,2.07,0,0,0,.61-1.19,12,12,0,0,1,3.16-5.55c.38-.42.94-.73,1.18-1.21,1-2,2.9-3.18,4.21-4.89a1.37,1.37,0,0,1,.83-.55c1.15,0,2.11-.92,3.29-.73s2.29-.27,3.33.41a12.9,12.9,0,0,1,4.82,1.79,18.83,18.83,0,0,1,2.47,3.91,4.89,4.89,0,0,0,1,1.37,4.24,4.24,0,0,1,1.13,2.41,8.3,8.3,0,0,0,.94,2.51,4,4,0,0,1,.44,2l-.15,6.15c0,.23.06.51-.05.67a4.68,4.68,0,0,0-.63,3c.07,1.07-.51,2-.59,3a4.82,4.82,0,0,1-.65,1.91,31.33,31.33,0,0,1-3.92,6.71c-.58,1.38-1.84,1.91-3.09,2.46-.31.13-.75.09-1,.3a4.63,4.63,0,0,1-3.8,1.07C347.15,73.23,346.92,73.24,346.7,73.23Z"/><path class="cls-3" d="M330.3,48.67c-.55-.2-.55-.2-.54-.81A.65.65,0,0,1,330.3,48.67Z"/><path class="cls-1" d="M265.48,639.24c-.51-.64-.11-1.59-.77-2.2a.66.66,0,0,1-.08-.62c.95-1.22.51-2.63.59-4s0-2.51,0-3.77a3,3,0,0,1,.51-1.93,1.8,1.8,0,0,0,.16-1,2.22,2.22,0,0,1,.44-1.6c.08-.08.19-.2.18-.29-.23-1.3.67-2.36.78-3.58.06-.69.75-1.13.67-1.89-.07-.57,0-1.15,0-1.71a2.48,2.48,0,0,1,.52-1.58.85.85,0,0,0-.05-.95c-.56-.93-.58-1,.13-1.73a2.43,2.43,0,0,0,.79-2.14,2.49,2.49,0,0,1,.94-2.42,2.54,2.54,0,0,0,.39-.56c.16-1.1-.21-2.27.57-3.3.23-.3.09-.88.13-1.33.13-1.21-.31-2.51.68-3.59.17-.19,0-.66.05-1s-.07-.69.19-1a2.71,2.71,0,0,0,.48-1.93,2.57,2.57,0,0,1,.46-1.94,1.39,1.39,0,0,0,.22-1c0-.69,0-1.38,0-2.06a2.08,2.08,0,0,1,.37-.92,1,1,0,0,0,0-1.24c-.06-.09-.11-.2-.18-.29-.41-.45.1-1.26-.45-1.55a5.55,5.55,0,0,0-2.45-1c-.4,0-.79-.39-1.2-.58-.22-.1-.81.23-.82.46,0,1.25-.06,2.5-.11,3.75a1.56,1.56,0,0,1-.18,1,2.54,2.54,0,0,0-.48,1.59c0,1.12.21,2.28-.62,3.28-.17.21-.08.66-.07,1a2,2,0,0,1-.38,1.28,1.59,1.59,0,0,0-.27.61c-.11.66.14,1.39-.33,2s-.25,1.11-.46,1.6a5.45,5.45,0,0,0-.63,2.24c0,.78.28,1.65-.3,2.31s-.21,1.34-.56,1.93a2.49,2.49,0,0,0-.48,1.24c0,1,.17,2-.63,2.93-.18.19-.08.66-.07,1a2.85,2.85,0,0,1-.36,1.29,13.82,13.82,0,0,1-.63,1.88,3.91,3.91,0,0,0-.4,2c0,.12,0,.27,0,.34-.87,1.09-.65,2.37-.66,3.6,0,1.94,0,3.89,0,5.83a2.43,2.43,0,0,1-.43,1.6,1.54,1.54,0,0,0-.21,1c0,.8,0,1.6-.07,2.39,0,.17-.26.39-.45.46-.61.24-1.37.09-1.48-.37-.2-.86-1-1.26-1.34-2a5.88,5.88,0,0,1-.12-2c0-.57,0-1.14,0-1.8-.38-.72-.84-1.5-1.22-2.31a1.5,1.5,0,0,1,.14-1.6,1.94,1.94,0,0,0,.45-1.25c0-1,0-2.06,0-3.13a2,2,0,0,1,.34-.52,2.55,2.55,0,0,0,1-2.41,2.45,2.45,0,0,1,.47-1.94,1.12,1.12,0,0,0,.2-.63c0-1.48,0-3,0-4.45,0-.5-.38-.81-.55-1.22a.76.76,0,0,1,0-.64,3.1,3.1,0,0,0,.59-2.25,4,4,0,0,1,.5-2.63,1.82,1.82,0,0,0,.16-1c0-1.83,0-3.65,0-5.48a2.37,2.37,0,0,1,.48-1.59,1.42,1.42,0,0,0,.21-1c0-1.48,0-3,0-4.45a1.85,1.85,0,0,1,.21-1,3.36,3.36,0,0,0,.46-1.95c0-1.6,0-3.2,0-4.8a1.83,1.83,0,0,0-.26-.95,1.79,1.79,0,0,1,0-2.21,1.07,1.07,0,0,0,.28-.6c-.16-1.58.75-2.79,1.39-4.14,0-2.7,0-5.44,0-8.18a2.88,2.88,0,0,0-.44-1.61c-.45-.72-.2-1.55-.26-2.33a1.91,1.91,0,0,0-.92-1.36c-.09-.07-.19-.17-.29-.17-1,0-2,0-3.06,0-.16,0-.41.29-.44.47-.09.57-.09,1.14-.13,1.71-.8.84-.64,1.9-.64,2.92a3.13,3.13,0,0,1-.48,1.94,1.92,1.92,0,0,0-.19,1c0,.91,0,1.83,0,2.74a1.7,1.7,0,0,1-.66,1.14c-.2.2-.39.26-.57.13-1-.77-2.15-.45-3.26-.26-.78.73-2,.28-2.78,1.12-1.09-.19-1.86.71-2.89.81a4.16,4.16,0,0,0-1.84.78,3,3,0,0,1-1.92.51,1.19,1.19,0,0,0-1,.26c-.68.72-1.74.27-2.51.91a15.09,15.09,0,0,1-2.1,1,3.37,3.37,0,0,1-1.89.63c-2.28,0-4.57,0-6.69,0-1-.47-1.43-1.37-2.4-1.57-.37-.08-.5-1.12-.24-1.54a1.74,1.74,0,0,1,1.3-1,4.52,4.52,0,0,0,2.58-.67c.24-.17.67-.07,1-.06a1.81,1.81,0,0,0,1.27-.4,1.83,1.83,0,0,1,1.3-.28,1.3,1.3,0,0,0,1.49-1,1.57,1.57,0,0,1,1.6-1c.83.07,1.58,0,1.86-1,.1-.36.54-.37.88-.36a1.41,1.41,0,0,0,1.39-.82c.48-1.3,1.88-1.53,2.63-2.48.87-.08,1.36-.76,2-1.27a1.31,1.31,0,0,1,1-.24,1.35,1.35,0,0,0,1.15-.62c.34-.44.61-.92.91-1.39.72,0,.83-.64,1.08-1.13a1.45,1.45,0,0,1,.43-.52c.55-.37,1.16-.67,1.69-1.07s.83-.79,1.24-1.18l1.5-1.41a1.21,1.21,0,0,1,1-.22.75.75,0,0,0,.78-.52,2.42,2.42,0,0,1,1.61-1.59,1.74,1.74,0,0,0,1.21-1.85.78.78,0,0,1,0-.34.69.69,0,0,1,.23-.25,9.33,9.33,0,0,0,3.26-3.23c.25-.34.77-.47,1.06-.78s.4-.8.69-1.13a7.12,7.12,0,0,0,1.82-2.41,1.68,1.68,0,0,1,1-.86,1.81,1.81,0,0,0,1.28-1,5.82,5.82,0,0,1,1.86-2.37,5.69,5.69,0,0,1,2.14-1.63c.38-.12.67-.59.95-.95s.21-.7.44-.89a2.9,2.9,0,0,0,1.05-2.73.84.84,0,0,1,.6-.7c.12,0,.23,0,.35,0,.57,0,1.14,0,1.71,0a4.41,4.41,0,0,1,1.59.46c.76.25,1.32,1,2.15.9s1.34.87,2.23.75a1.74,1.74,0,0,1,.92.34c.59.32,1.23.54,1.81.92a3.93,3.93,0,0,0,1.85.7c.77,0,1.24.53,1.85.78a32.88,32.88,0,0,1,3.61,1.81c.6.34,1.31.1,1.92.58a10.78,10.78,0,0,0,2.1,1c.61.3,1.2.61,1.8.93s1.18.65,1.77,1c.3.15.7.18.91.4,1.06,1.1,2.51,1.5,3.77,2.21s2.5,1.06,3.59,1.81a21.67,21.67,0,0,0,3.47,2.05c.4.17.69.6,1.06.86.63.44,1.53.54,1.86,1.37a6.07,6.07,0,0,1,.14,2.36c0,3.66,0,7.31,0,11a2.44,2.44,0,0,0,.43,1.6,1.46,1.46,0,0,1,.22,1c0,2.86,0,5.71,0,8.57a1.28,1.28,0,0,1,0,.34,15,15,0,0,0-.63,1.89c-.12.66,0,1.37-.14,2-.08.43-.53.72-.56,1.22-.05.78.2,1.62-.23,2.34a9.44,9.44,0,0,1-1.11,2.08c-.05.81-.9,1.3-.78,2.21.08.67-.82,1.1-.66,1.88a1.07,1.07,0,0,1-.14.64,7,7,0,0,0-1.2,2.76c-.1.9-1,1.56-.75,2.56a3.38,3.38,0,0,0-.67,2.22,1.68,1.68,0,0,1-.31.94,4,4,0,0,0-.4,1.62,5.82,5.82,0,0,1-.61,1.19c.21,1-.76,1.6-.75,2.56,0,.78-.65,1.4-.93,2.14s-1.06,1.51-1,2.44-.78,1.34-.76,2.22c0,.62-.53,1.24-.6,1.88a4.63,4.63,0,0,1-.66,2.23,3.85,3.85,0,0,0-.69,1.86c0,.77-.61,1.2-.78,1.85a6.82,6.82,0,0,1-.74,1.51,1.35,1.35,0,0,1-.81.57.81.81,0,0,0-.43.49,3.46,3.46,0,0,0-.06,1,3.45,3.45,0,0,1-.57,2.26c-.23.34,0,.93-.31,1.27s-.86.45-1,.8a2.17,2.17,0,0,1-1.16,1.11c-.1,0-.16.17-.22.26a1.15,1.15,0,0,0-.11.31c-.13.78.22,1.66-.22,2.34a14,14,0,0,1-1.85,2c-.11.11-.37.09-.55.07s-.14-.19-.14-.29c0-.91,0-1.83.05-2.74a1.11,1.11,0,0,1,.23-.61,2.26,2.26,0,0,0,.4-1.61,1.77,1.77,0,0,1,.34-1.28,1.88,1.88,0,0,0,.37-1.28c0-.57,0-1.13.06-1.7.85-.74.36-2,1.1-2.79.36-.39,0-.83-.21-1.23s-.29-.92.18-1.13.93-.55.91-1.22.05-1.15,0-1.72a4.43,4.43,0,0,1,.65-2.57,4.14,4.14,0,0,0,.71-2.89c0-.91,0-1.83,0-2.74a2.37,2.37,0,0,1,.32-1.3,2.43,2.43,0,0,0,.35-.94,7.22,7.22,0,0,1,1-3.83c.1-.2.3-.39.32-.6.06-.79.07-1.59.1-2.38a3,3,0,0,0,.63-2.23,3.09,3.09,0,0,1,.47-2,1.53,1.53,0,0,0,0-1.61,5.39,5.39,0,0,1-.43-.91,2,2,0,0,0-1.14-1.2c-.85-.32-1.58-.84-2.4-1.22a1,1,0,0,0-.94-.13,1.69,1.69,0,0,0-1,1.3,21.15,21.15,0,0,0,0,2.39,2.9,2.9,0,0,1-.49,1.94,1.14,1.14,0,0,0-.17.64c-.05.68-.07,1.36-.1,2-.81.76-.42,2-1.1,2.81-.18.22-.15.64-.19,1s.09.79-.09,1a3.51,3.51,0,0,0-.6,2.59,3.7,3.7,0,0,1-.65,2.57c.28,1-.8,1.63-.73,2.56s-.72,1.35-.75,2.22-.78,1.61-.75,2.55c-.78.76-.4,2-1.1,2.8-.18.21-.12.65-.13,1a3,3,0,0,1-.31,1.3c-.8,1.48-1.54,3-2.31,4.49,0,.82-.89,1.3-.83,2.18s-.76,1.33-.73,2.22-.86,1.33-.66,2.21a9.54,9.54,0,0,1-.8,1.09,1.92,1.92,0,0,0-.53,1.55,1.83,1.83,0,0,1-.53,1.55,2.09,2.09,0,0,0-.85,1.77,21.61,21.61,0,0,1-1.66,3.25s-.19,0-.22,0a.54.54,0,0,1-.15-.3c0-1.48,0-3,0-4.45a1.7,1.7,0,0,1,.27-.95,3.29,3.29,0,0,0,.43-2c0-.67-.23-1.42.17-2a3.56,3.56,0,0,0,.5-2.28,3.54,3.54,0,0,1,.59-2.59c.18-.21.11-.66.11-1,0-1,0-2.06,0-3.09a1.37,1.37,0,0,1,.33-.93c.58-.74.1-1.86.92-2.5,0-.56.08-1.12.1-1.69s0-1.14,0-1.71a2.67,2.67,0,0,1,.5-1.93,1,1,0,0,0,.18-.63,3.12,3.12,0,0,1,.58-2.25c.05-.8.09-1.59.14-2.38a.54.54,0,0,1,.12-.31c.7-.69.27-1.79.92-2.5a.84.84,0,0,0,0-1.21,1.08,1.08,0,0,1,0-1.52,1.2,1.2,0,0,0,.27-.61c0-.68,0-1.38.07-2s.78-1.11.67-1.88.72-1.13.65-1.88a12.89,12.89,0,0,1,0-2.06,2.23,2.23,0,0,1,.28-1c.6-.95.34-2,.33-3,0-.15-.29-.41-.47-.43a5.59,5.59,0,0,1-1.93-.58,4.11,4.11,0,0,0-1.66-.12.78.78,0,0,0-.67.65c0,.57,0,1.14-.07,1.71a1.69,1.69,0,0,1-.3.93c-.59.64-.14,1.58-.73,2.23s-.31,1.3-.31,2a2.74,2.74,0,0,1-.45,1.6,1.3,1.3,0,0,0-.2.63c0,.91,0,1.83,0,2.74a1.42,1.42,0,0,1-.22,1,2.45,2.45,0,0,0-.46,1.93c.06.76-.7,1.17-.67,1.89a3.1,3.1,0,0,1-.59,2.26.38.38,0,0,0-.08.31c.24,1.31-.85,2.33-.76,3.6a3.4,3.4,0,0,0-.65,2.57,2.6,2.6,0,0,1-.48,1.6,1.25,1.25,0,0,0-.18.63,3,3,0,0,1-.61,2.24,7.36,7.36,0,0,1-.7,2.22,4.63,4.63,0,0,0-.82,2.19c0,.66-.8,1.12-.63,1.89a6.93,6.93,0,0,0-.74,2.91c0,.28-.29.58-.44.89q-1.62,3.32-3.23,6.64a2.87,2.87,0,0,0-.37.92,1.67,1.67,0,0,1-.47,1.23C266.23,637.91,266.1,638.75,265.48,639.24Z"/><path class="cls-1" d="M65.1,185.68a3.72,3.72,0,0,1,.18-1c.06-.15.34-.26.53-.3a.54.54,0,0,1,.59.6.82.82,0,0,1-.3.54,4.28,4.28,0,0,1-1,.16Z"/><path class="cls-1" d="M67.17,173.37c.1-.47.36-.74.85-.64.13,0,.22.24.3.38s-.13.19-.22.2c-.3,0-.61.05-.92.07Z"/><path class="cls-1" d="M81.56,196c0-.31,0-.62.06-.92a.4.4,0,0,1,.2-.22c.14.08.35.17.38.29.1.49-.16.77-.63.86Z"/><path class="cls-1" d="M76.77,182.28c.08-.17.12-.41.26-.5a.18.18,0,0,1,.24.26c-.09.13-.32.17-.5.24Z"/><path class="cls-1" d="M302.53,31c.43.36,1.08.83,1.64,1.38a2.16,2.16,0,0,1,.7,1.15c.11,1.46.9,2.81.66,4.39a14.13,14.13,0,0,0-1.33,1.43c-.83,1.17-1.45,1.2-2.9.53-1.26-.59-2.24-1.52-3.41-2.21-.3-.6-.64-1.19-.88-1.82-.18-.46.21-.85.37-1.26a6.41,6.41,0,0,1,.45-.91,7.45,7.45,0,0,0,.6-.82C299.18,31.14,300.51,30.59,302.53,31Z"/></g></g></g></svg>