<svg xmlns="http://www.w3.org/2000/svg" viewBox="0 0 556.33 963.67"><defs><style>.cls-1{fill:#c5c9ae;}.cls-2{fill:#ffd949;}</style></defs><title>Spa</title><g id="Layer_2" data-name="Layer 2"><g id="Art"><g id="Spa"><path class="cls-1" d="M200.78,473.29a13.88,13.88,0,0,1-2.78-2.52c-.52-.52-1.37-.49-1.73-1.31a7.19,7.19,0,0,0-1.4-1.74c-.5-.56-1.06-1.08-1.58-1.62a10.14,10.14,0,0,1-1.47-2.58c-.1-1.87-1.52-2.77-2.8-3.77-.28-.22-.73-.25-1-.5-1-1-2.22-1.63-3.26-2.5-1.53-1.3-2.9-2.78-4.35-4.19-1.86-.88-3.11-2.48-4.53-3.88s-2.87-2.83-4.28-4.25a7.36,7.36,0,0,1-1.07-1.51,7.07,7.07,0,0,0-3.57-3.18c-1.44-.51-2.41-1.73-3.83-2.29s-2.67-1.29-4-2-2.57-1.52-3.94-2.07a27.44,27.44,0,0,1-2.51-1.59c-.77-.4-1.56-.75-2.34-1.13a13.06,13.06,0,0,1-2.64-1.33,32.22,32.22,0,0,0-5.15-3,14.52,14.52,0,0,1-1.82-1.32,4.28,4.28,0,0,1-2.65-1.23c-.65-.55-1.49-.84-2.18-1.41a10.55,10.55,0,0,0-2.27-1.23,45,45,0,0,1-6.39-3.77,13.89,13.89,0,0,0-1.25-.8,38.78,38.78,0,0,1-3.61-1.91c-1-.71-2.12-1.27-3.18-1.91-1.91-1.15-3.67-2.54-5.57-3.71a8.67,8.67,0,0,0-1.25-.81,29.16,29.16,0,0,1-4.44-2.69c-.73-.45-1.44-1-2.21-1.36a25.2,25.2,0,0,1-4.46-2.67c-1-.19-1.52-1.22-2.48-1.61A12,12,0,0,1,96,398.28c-.79-.6-1.66-1.07-2.46-1.68s-1.6-.68-2.31-1.17a15.83,15.83,0,0,0-3.82-2.26c-1-1-2.33-1.43-3.36-2.35a4,4,0,0,0-1-.58,40.25,40.25,0,0,1-3.49-2.14,32,32,0,0,1-3.5-2.09c-.67-.53-1.6-.7-2.31-1.18-1-.7-2.26-1.06-3.09-2.07a4.45,4.45,0,0,0-1.22-.83,32.1,32.1,0,0,1-4.2-2.37,28.46,28.46,0,0,0-3.91-2.14c-.21-.13-.5-.16-.66-.32a14.45,14.45,0,0,0-4.67-3c-1.08-1.31-2.75-1.66-4.12-2.5-1.16-.7-2.41-1.24-3.53-2a30.25,30.25,0,0,0-3.61-1.91c-1.24.2-2.08-.7-3.08-1.14A23.46,23.46,0,0,1,39,365.23a12.39,12.39,0,0,1-1.65-1.52c-.36-1.43-1.53-2.24-2.47-3.23-.43-.45-.87-.91-1.27-1.39a1.31,1.31,0,0,1-.27-.67,2.71,2.71,0,0,0-.71-1.68A7.78,7.78,0,0,1,31,353.45c-.28-1.34-1.25-2.41-1.66-3.72-.11-.35-.49-.67-.47-1a7.34,7.34,0,0,0-1.25-3.85c-.38-.68-.07-1.13.15-1.72a19,19,0,0,1,2.75-5.62,9.2,9.2,0,0,0,.54-1,10.2,10.2,0,0,1,2.53-3.66,14.43,14.43,0,0,1,3.06-3.76,9.55,9.55,0,0,0,1.31-1.8,13.49,13.49,0,0,1,2-2.23A13.8,13.8,0,0,0,42.52,322,9.36,9.36,0,0,1,44,320.28c1.3-1.52,3-2.69,3.9-4.54a10.37,10.37,0,0,1,1.77-1.94,8.48,8.48,0,0,0,1.84-2.34A7.09,7.09,0,0,1,53,309.78a12.68,12.68,0,0,0,2.34-2.9,7.6,7.6,0,0,1,1.49-1.69c1.22-1.27,2.45-2.52,3.68-3.79,1.63-2.72,4.11-4.68,6.24-7a4,4,0,0,0,1.3-1.81c1.29-.62,1.75-2,2.72-3a21.54,21.54,0,0,0,3.68-4.22A17,17,0,0,1,77,282.69c1.2-1.26,2.61-2.34,3.39-4a6.09,6.09,0,0,1,1-1.11c1.23-1.41,2.79-2.52,3.62-4.28.2-.43.68-.72,1-1.09a9.54,9.54,0,0,0,1.78-1.94c1-1.94,2.73-3.23,4.14-4.81a6.26,6.26,0,0,0,1.8-2.36c.1-.33.46-.59.71-.87,1.15-1.31,2.6-2.35,3.34-4,.24-.54.85-.91,1.28-1.37.84-.91,1.89-1.67,2.31-2.92a.78.78,0,0,1,.22-.3c.61-.63,1.26-1.23,1.83-1.9s.85-1.21,1.27-1.81c1.06-.17,1.05-1.3,1.69-1.88a16.37,16.37,0,0,0,2.81-3.48c.79-1.26,2.12-2.08,2.8-3.49a11.42,11.42,0,0,1,1.76-2c.56-.66,1-1.38,1.59-2,.15-.17.54-.21.61-.38.53-1.46,2.08-2.16,2.61-3.61a1.91,1.91,0,0,1,.42-.61c1.29-1.38,2.59-2.75,3.88-4.12.79-1.77,2.43-2.83,3.63-4.26.72-.84,1.72-1.43,2.08-2.61.12-.43.63-.76,1-1.12l10.66-10.68a6.45,6.45,0,0,1,2.07-1.57,5.44,5.44,0,0,0,1.39-1.25,1.21,1.21,0,0,0,.49-1c-.11-1,.81-1.57.76-2.48s.85-1.51.81-2.46.83-1.5.8-2.45c0-.44.47-.87.6-1.34.22-.84.94-1.48.91-2.44,0-.32.33-.65.48-1s.09-.54.25-.7c1.37-1.33,1.74-3.3,3-4.7.83-.93,1.17-2.19,2.17-3s1.26-2.12,2.25-3,1.77-1.78,2.64-2.68c.52-.54,1.2-1,1.3-1.79l2.65-2.67c.93-.19,1.45-.94,2.06-1.55a8.53,8.53,0,0,1,2.72-1.95,11.91,11.91,0,0,0,2.24-1.33,43.43,43.43,0,0,1,4.92-2.59,2.13,2.13,0,0,1,.71-.19,4,4,0,0,0,2.15-.52c.71-.5,1.69-.26,2.45-.82.58-.43,1.46-.14,2.11-.65a1.57,1.57,0,0,1,1.77-.06,3.39,3.39,0,0,0,1.79.46c1,0,2,0,3,0,.12.35.3.7.67.71,1.05,0,2.11,0,3.16,0H194c2.3,0,4.59.05,6.89,0,.38,0,.6-.35.72-.7l29.43,0,14.71,0c.73,0,1.09-.44,1.12-1.17a3.5,3.5,0,0,1,.36-1.82,2.53,2.53,0,0,0,.36-1,9.37,9.37,0,0,0,.06-1.5,3.19,3.19,0,0,1,.44-1.41c.51-1.13.17-2.5,1-3.54,0-.75,0-1.51,0-2.26a3.42,3.42,0,0,1,.46-1.79,2.59,2.59,0,0,0,.26-1.07c.05-1.38,0-2.77.09-4.15a2.27,2.27,0,0,1,.2-1.08,4,4,0,0,0,.49-2.16c0-2.26.05-4.53.06-6.79a4,4,0,0,1,.47-2.16,2.39,2.39,0,0,0,.18-1.08c0-1.89.06-3.77.11-5.66a2.85,2.85,0,0,1,.21-1.08,4.72,4.72,0,0,0,0-4.31,2.49,2.49,0,0,1-.22-1.08c0-1.26,0-2.52-.06-3.77,0-.38.11-.85-.07-1.11-.71-1-.53-2.16-.57-3.27a4.3,4.3,0,0,1,.48-2.16,3.69,3.69,0,0,0,.09-1.46c-1-1.37-.42-2.92-.54-4.39,1.17-1.86.5-3.92.58-5.89.11-2.39,0-4.78,0-7.17,0-.61-.24-1.06-.77-1-1.07,0-1.78-.93-2.84-.88a1.64,1.64,0,0,1-1-.52c-1-.95-2-1.9-2.94-2.92a5.24,5.24,0,0,1-1.51-3.71,2.21,2.21,0,0,0-.89-1.58c-.21-.2-.43-.35-.67-.22-2.51,1.32-5.22,2.25-7.5,4a10.47,10.47,0,0,1-1.94,1.08,1,1,0,0,1-.69-.08c-.23-.1-.15-.29.08-.55.77-.84,2-1,2.71-2a8.27,8.27,0,0,1,2.18-2.08c2-1.13,3.38-2.94,5-4.46a12.62,12.62,0,0,0,1-1.15c0-1.28,0-2.53,0-3.79,0-.62.05-1.25.07-1.87.8-.76.42-2,1-2.78.41-.57.41-1.51,1.38-1.59l2-1.78a5.15,5.15,0,0,1,1.16-1c1-.43,1.92-1.22,3.15-1a6.21,6.21,0,0,0,.75,0,5.52,5.52,0,0,0,3.69-1.52c1.34-1,1.9-2.61,3-3.82.49-.56.54-1.39,1.16-1.89s.6-1.11,1-1.56a19.29,19.29,0,0,0,2.3-3.82c.94-1.88,2.34-3.5,3.15-5.45A12.77,12.77,0,0,0,267.62,40q3-6,5.95-12A14.62,14.62,0,0,0,274.88,25a15.52,15.52,0,0,1,1.23-2.7,1.63,1.63,0,0,0,.15-.72,7.7,7.7,0,0,1,.69-2.49c.31-1,.19-2.21.8-3.22.18-.28.05-.74.06-1.11a4.44,4.44,0,0,1,.51-2.16c.47-.78.19-1.72.28-2.58a6.35,6.35,0,0,0-2.76-3.84,1.71,1.71,0,0,0-.72-.13A3.6,3.6,0,0,1,273,5.49a1.25,1.25,0,0,0-.7-.21c-1.13,0-2.27,0-3.4,0a2.67,2.67,0,0,0-1,.41,2.08,2.08,0,0,1-2.43-.29,2.11,2.11,0,0,0-.33.18c-.76.65-1.46,1.43-2.62,1.18a3.26,3.26,0,0,1-2.44.73c-.68,0-1.09.58-1.68.74a1.5,1.5,0,0,0-.88.62c-.07.1-.05.26-.12.36a1.07,1.07,0,0,1-.91.54,1.38,1.38,0,0,0-1.41,1c-.23.52-.53.56-1.25.24-.41-.18-.76-.18-.86.19a4.35,4.35,0,0,1-1.65,2,2.25,2.25,0,0,1-1,.34c-.51.09-.94.21-1.14.78a3.67,3.67,0,0,1-.58.94,1.51,1.51,0,0,1-1.28.66,1,1,0,0,0-1.15.73,1,1,0,0,1-.43.58c-1.48.57-2.29,1.91-3.42,2.88-.59.5-.56,1.39-1.29,1.75l-1.66.83L237.07,25c-.28.4-.57.8-.85,1.21-.49.71-.94,1.46-1.47,2.14a17.22,17.22,0,0,1-1.57,1.63,2.18,2.18,0,0,0-.72,1.66.93.93,0,0,1-.27.66c-.93.72-1.09,2-1.91,2.74a9.8,9.8,0,0,0-2.38,3.75,5.27,5.27,0,0,1-.91,1.6,9.67,9.67,0,0,1-1.49,1.09.62.62,0,0,0-.13.93c.07.11.18.29.15.34a2.66,2.66,0,0,0-.62,1.71,1.09,1.09,0,0,1-.26.68c-.39.48-.82.94-1.26,1.39a2.7,2.7,0,0,0-.68,1.69c-.11.85-.93,1.46-.83,2.43,0,.3-.35.64-.55,1s-.78.81-.79,1.23a7.52,7.52,0,0,1-1.26,3.07c-.43.89-.09,2.07-1.08,2.72.06.91-.53,1.66-.66,2.49a10.89,10.89,0,0,1-1.25,3.07,2.6,2.6,0,0,0-.38,1,2.28,2.28,0,0,1-.74,1.66c-.25.28-.47.58-.69.85a5.58,5.58,0,0,0-.08.78,3.43,3.43,0,0,1-.56,2.11,9.21,9.21,0,0,1-1,1.57,2.26,2.26,0,0,0-.69,1.68.94.94,0,0,1-.07.37c-.36.79-1.4,1.21-1.38,2.17s-.78,1.54-.95,2.41c-.08.44-.62.77-.9,1.19a1.92,1.92,0,0,0-.45,1c.07.85-.53,1.39-.84,2a20.32,20.32,0,0,1-1.76,2.84c-.44.61-1,1.1-1.49,1.7s-.8,1.25-1.23,1.85c-.19.26-.44.27-.57.1a.59.59,0,0,1-.17-.32,2.63,2.63,0,0,1,.13-1.11,12.39,12.39,0,0,0,1.37-3,19.81,19.81,0,0,1,1.31-3.07c.26-.54.24-1.23.53-1.75a6.46,6.46,0,0,0,.52-1.78c.13-.6.7-1,.68-1.71,0-1,1.08-1.73.82-2.83.72-.79.51-1.92,1-2.75s.28-2,1-2.78c0-1,.7-1.86.84-2.82.17-1.12,1.12-2,1-3.18.83-.74.44-1.94,1.06-2.76s.12-1.78.85-2.44A14.49,14.49,0,0,1,215.12,53c0-1.58,1-2.78,1.62-4.12a47.69,47.69,0,0,1,1.84-4.44c.74-1.28,1.2-2.72,1.94-4s1.44-2.89,2.21-4.31a11.56,11.56,0,0,1,2-3.15c.8-2,2.22-3.58,3.17-5.45a6.3,6.3,0,0,1,1-1.57,22.63,22.63,0,0,0,3.36-4A13.55,13.55,0,0,1,234,20.06c1.06-1.21,2.51-2.1,3.15-3.68a13.59,13.59,0,0,0,1.51-1.06c1.37-1.29,2.71-2.63,4.06-3.94a12.84,12.84,0,0,1,1.39-1.27,11.57,11.57,0,0,1,1.61-.92,5.4,5.4,0,0,0,1-.47c.59-.47,1.09-1.05,1.67-1.53s1.4-.55,1.91-1.15A9.73,9.73,0,0,1,254,3.66c.46-.19.89-.44,1.33-.67.77-.4,1.57-.76,2.3-1.23s1.51-.09,2.12-.66,1.74-.17,2.45-.83c.39-.37.95-.25,1.45-.26,2.51,0,5,0,7.54,0l3.18.93C276,2.3,278.16,3,279,5.2c.08.22.32.39.49.57a2.36,2.36,0,0,1,.66,1.7,10.52,10.52,0,0,0,.14,1.86.77.77,0,0,0,.54.45c1.51,0,3,.05,4.52,0a4.26,4.26,0,0,1,1.78.48,15.65,15.65,0,0,1,2.78,1c.81-.08,1.4.44,2.07.76,1.45.7,2.64,1.85,4.2,2.36a1.61,1.61,0,0,1,.6.44q2.68,2.66,5.34,5.33a1.85,1.85,0,0,1,.46.59A32.08,32.08,0,0,0,305,24.94c.77,1.26,1.36,2.64,2,4a1.29,1.29,0,0,1,.23.69c-.21,1.2.62,2.13.83,3.21a13.05,13.05,0,0,0,1.26,3.08c.37.76.36,1.69.92,2.41,0,1.59,1.14,2.71,1.61,4.11a12,12,0,0,0,4.37,4c1.69.77,3.29,1.73,5,2.53a5.77,5.77,0,0,1,1.59.93,2.5,2.5,0,0,0,2.05.74,3.17,3.17,0,0,1,1.41.42c1,.39,2.24.44,3.11,1.13a32.86,32.86,0,0,1,3.25,3.11,1.66,1.66,0,0,1,.35,1c0,.68.6,1.1.7,1.71s-.07,1.25.45,1.75c.18.17.14.41-.08.63s-.36.44-.57.47c-1.19.21-1.7,1.42-2.77,1.82a6.87,6.87,0,0,0-2.54,2.19c-1.5,1.71-3.63,2.63-5.2,4.25a5.34,5.34,0,0,1-1.29.71c-1.41.78-1.39.79-2,2a1.85,1.85,0,0,0-.09,1.79,4,4,0,0,1,.55,2.14,2.72,2.72,0,0,0,.47,1.4,17,17,0,0,1,1.61,3.33,5.61,5.61,0,0,0,1.31,2.62c.57.61.39,1.41.43,2.15a3,3,0,0,0-1.1.16,3.52,3.52,0,0,1-2.11.61c-.88-.07-1.76,0-2.64,0a1.73,1.73,0,0,1-.7-.18,4.48,4.48,0,0,0-4.28,0A2.22,2.22,0,0,1,312,86c-1.63,0-3.27,0-4.9,0a3.9,3.9,0,0,1-2.5-.57.91.91,0,0,0-1,.18,2,2,0,0,1-1.41.39,3.47,3.47,0,0,0-1.12.1.79.79,0,0,0-.49.52,9,9,0,0,0,0,1.87.8.8,0,0,0,.53.48c.61.11,1.24.13,1.86.18,1,.77,2.12.64,3.24.64,2.76,0,5.52,0,8.29,0a3.77,3.77,0,0,0,2.14-.5,2.2,2.2,0,0,1,1.07-.19c1.38,0,2.77,0,4.15,0a4,4,0,0,1,2.48.61c.27.18.73.08,1.11.11.18.14.51.26.53.42a18.59,18.59,0,0,1,.15,2.24c0,1.5,0,3,0,4.51a5.8,5.8,0,0,1-1.49,3.68c-.51.56-1,1.1-1.52,1.66-.33.37-.74.7-.74,1.26a14.79,14.79,0,0,1-2.4,3.28c-.66.57-1.19,1.29-1.83,1.89a5.08,5.08,0,0,1-2.07,1.53c-.54.16-1,.75-1.43,1.18-1,1-2,1.94-2.94,2.91-1.28.35-2,1.42-2.95,2.23-.55.48-1.44.42-1.89,1.11s-1.27.74-1.86,1.17-1.51.39-1.64,1.36a.39.39,0,0,1-.25.25c-1,.27-1.61,1.14-2.42,1.7a.73.73,0,0,1-.37,0,1.87,1.87,0,0,0-1.38.44,6.14,6.14,0,0,1-2.31,1.85c-1,.3-1.42,1.33-2.46,1.64-.67.19-1.15,1-1.83,1.26a5.05,5.05,0,0,0-2,.82,13.73,13.73,0,0,1-1.78,1.23c.34.67.72,1.32,1,2s1.09,1.43,1.05,2.32.61,1.36.71,2.09a4.36,4.36,0,0,0,.57,1.73c.63,1.06,1,2.26,1.68,3.3-.19,1.2.94,2,.89,3.19a.75.75,0,0,0,.07.36,6.68,6.68,0,0,0,.87,1.63c1.33,1.37,1.63,3.38,3,4.67a28.21,28.21,0,0,1,2,2.72c.63.75,1.49,1.33,1.77,2.37a1.59,1.59,0,0,0,.47.58,68.86,68.86,0,0,0,6.19,6c-.06.11-.09.27-.19.33a1.91,1.91,0,0,1-.65.33c-.28,0-.51.14-.54.43a5.61,5.61,0,0,0,.42,3.61c1,1.78.91,1.84.91,3.9,0,3.14,0,6.28,0,9.42a2.69,2.69,0,0,1-.32,1.44,2.41,2.41,0,0,0-.34,1c0,1.12,0,2.26,0,3.39a1.37,1.37,0,0,0,.24.69,1.26,1.26,0,0,1,.08,1.69,2.63,2.63,0,0,0-.33,1.8q0,20.16,0,40.32,0,20.73,0,41.45,0,32.59,0,65.19,0,9.42,0,18.83a1.43,1.43,0,0,1-.64-.12c-.12-.45-.36-.72-.87-.61l-19.21,0c-3.14,0-6.28,0-9.41,0a5,5,0,0,0-1.86.13,8.66,8.66,0,0,1-4.07.32c-.5-.63-.5-.63-1,0h-2c-.52-.61-.52-.61-1,0a9.42,9.42,0,0,1-4-.1,8.82,8.82,0,0,0-3.26-.27c-.66-.21-1.32-.41-1.7.44l-1.35-.07c-.48-.6-.48-.6-.92.05l-2.1,0c-.47-.63-.47-.63-.94,0-.35,0-.78.14-1,0a4,4,0,0,0-3.47-.15,5.44,5.44,0,0,1-2.83.13.68.68,0,0,0-1-.4l-2.8,0a.66.66,0,0,0-1,.42c-1.36.1-2.72.38-4-.3a1.61,1.61,0,0,0-.72-.16l-5.6.11c-.59-.16-.59-.16-1,.36a8.21,8.21,0,0,1-2.84,0c-.48-.61-.48-.61-.94,0l-1.32,0c-.47-.6-.47-.6-1,0l-1.33.08c-.46-.66-.46-.66-.91,0l-1.35,0c-.44-.7-.44-.7-1-.09l-4.29.05c-.2-.42-.49-.63-1-.38-.56,0-1.12-.06-1.67-.12s-.88-.14-1.32-.22a4.75,4.75,0,0,0-.17-1.83,8.56,8.56,0,0,1-1.33-4.21,4.53,4.53,0,0,1-.75-2.84,1.1,1.1,0,0,0-.26-.68c-.59-.61-.19-1.51-.63-2.12a4.64,4.64,0,0,1-.63-2.5,2.85,2.85,0,0,0-.25-.69,3.43,3.43,0,0,1-.4-1,8,8,0,0,0-.74-3.61c-.26-.52,0-1.29-.25-1.83a4.21,4.21,0,0,1-.57-2.14c.1-.83-.67-1.35-.68-2.1a4.69,4.69,0,0,0-.75-2.85c.11-.93-.61-1.62-.75-2.46a5.56,5.56,0,0,0-.77-2.84c0-.75-.07-1.5-.12-2.26s-.77-1.27-.7-2.1a2.83,2.83,0,0,0-.56-2.13c0-1.39-1.21-2.46-1-3.93a1.63,1.63,0,0,0-.35-1c-.55-.74-.18-1.7-.78-2.47s-.18-1.95-.38-2.92c-.07-.36.06-.76-.21-1.09-.73-.9-.31-2.24-1.17-3.1a8.08,8.08,0,0,0-.75-3.23c-.27-.52,0-1.3-.29-1.83a3.55,3.55,0,0,1-.58-2.12c.16-1-.77-1.57-.73-2.48a3.2,3.2,0,0,0-.51-2.14,2.23,2.23,0,0,1-.26-1.07,3.81,3.81,0,0,0-.42-1.8c-.48-.86-.27-2-1-2.77a12.06,12.06,0,0,0-.72-3.24c-.26-.8-.09-1.74-.67-2.48a.53.53,0,0,1-.14-.34,6.8,6.8,0,0,0-.77-3.22,4.74,4.74,0,0,0-.76-2.83,5,5,0,0,1-.78-3.21,2.1,2.1,0,0,0-.39-1.42c-.54-.84-.26-2-1-2.77a10.36,10.36,0,0,0-.81-3.59c-.15-.47,0-1.1-.22-1.46-.53-.76-.38-1.75-.85-2.43s-.23-1.78-.8-2.46-.22-1.72-.8-2.47-.26-1.94-.43-2.91c0-.12-.13-.22-.16-.33-.07-.32-.61-.45-1-.28a2.1,2.1,0,0,0-1,1.06c-.2.47-.35.87-.9,1.08a2.66,2.66,0,0,0-1.51,1.57,17.6,17.6,0,0,1-1.09,1.93c-1.07.17-1.23,1.16-1.58,1.89a7.22,7.22,0,0,1-1.5,2.12,6.62,6.62,0,0,1-2.37,1.78,1.42,1.42,0,0,0-.77.79,8.19,8.19,0,0,1-2,2.67c-1,1.12-2.4,1.85-2.91,3.38-.06.18-.37.32-.59.41a4.16,4.16,0,0,0-2.15,2,5.85,5.85,0,0,1-1,1.51l-7.15,7.25a6.89,6.89,0,0,0-1.5,1.66,8.59,8.59,0,0,1-2.1,2.6c-.54.53-1,1.1-1.55,1.65s-1.07,1.07-1.59,1.61-1.19,1.29-1.78,1.93c-.07.93-1.27.81-1.47,1.54s-1,.72-1.28,1.24a11.37,11.37,0,0,1-2.4,2.85c-.93,1-1.92,2-2.89,3s-1.74,1.83-2.71,2.63-1.35,2.39-2.69,3c-.17.86-1.2.93-1.5,1.54a3.39,3.39,0,0,1-1.74,1.83,1.6,1.6,0,0,0-.72.79,17.23,17.23,0,0,1-3.36,3.52,2.78,2.78,0,0,0-2,2,5.12,5.12,0,0,1-1.23,1.42c-1.58,1.61-3.18,3.21-4.78,4.8a5.79,5.79,0,0,0-.79,1.24c-.22.38-.81.52-1.17.84a4.16,4.16,0,0,0-.94,1.15,3.21,3.21,0,0,1-1.84,1.72,2.11,2.11,0,0,0-1.22,1.35,1.17,1.17,0,0,1-.74.76,2.41,2.41,0,0,0-1.38,1.23,9.47,9.47,0,0,1-2.68,3.08c-.43.4-1.18.44-1.27,1.21a46.31,46.31,0,0,1-5.06,5c-.56.09-.77.47-1,1a5.38,5.38,0,0,1-.94,1.16c-.57.68-.62,1.11-.11,1.6,1.25,1.2,2.22,2.73,4,3.36a.65.65,0,0,1,.28.24,7.14,7.14,0,0,0,1,1.51c.45.39,1.07.51,1.2,1.25a1.79,1.79,0,0,0,.68.88c.28.22.72.25,1,.49s.53.89.92,1.12a8.35,8.35,0,0,1,1.78,1.33,3.38,3.38,0,0,0,1.81,1.27,20.92,20.92,0,0,0,1.34,1.76,6.82,6.82,0,0,0,1.93,1.76,7.12,7.12,0,0,1,2,1.6c1.35,1.31,2.69,2.64,4,4a20,20,0,0,0,2.74,2.56,4.62,4.62,0,0,1,1.69,1.82,1.38,1.38,0,0,0,.82.72,2.93,2.93,0,0,1,1.55,1,5.38,5.38,0,0,0,2.09,1.54,2.15,2.15,0,0,1,1.2,1.37c.08.22.24.53.42.58,1.17.34,1.77,1.34,2.57,2.12l3.28,3.1c1.5.51,2.37,1.78,3.46,2.79.54.51,1,1.2,1.8,1.27a9.68,9.68,0,0,1,2.82,2.95,1.17,1.17,0,0,0,1.13.77c.76,0,1.05.46,1.15,1.19a1.9,1.9,0,0,0,2,1.84,1.61,1.61,0,0,1,1.29.65,13.72,13.72,0,0,0,.74,1.25c.33.34,1,.45,1.17.82s.3.95.7,1.28c.16.14.5.33.59.26a.89.89,0,0,1,1.48.45c.33.91,1.1,1.18,1.74,1.71,1.54,1.26,2.78,2.87,4.54,3.88.08.05.09.22.14.33a1.11,1.11,0,0,0,1.19.7,1,1,0,0,1,.91.55,1.51,1.51,0,0,0,1,1c.67.21.65,1,1.08,1.46.26.26.53.63.85.7,1.17.25,1.68,1.51,2.84,1.75.16,0,.35.4.35.61a1.62,1.62,0,0,0,1.23,1.61c1.49.6,2.63,1.85,4.11,2.5,2.19,2,4,4.44,6.64,6,.16.86.9,1.12,1.54,1.46a11.65,11.65,0,0,1,1.33.64,12.74,12.74,0,0,1,1.38,1.27c.46.44.93.85,1.35,1.32a9.59,9.59,0,0,0,1.77,1.3c.47.35.66,1,1.06,1.49.23.26.65.33,1,.53a1.44,1.44,0,0,1,.64.87.82.82,0,0,0,.87.55c.61-.05,1.26.12,1.83-.25a3,3,0,0,1,1.78-.48c1.13,0,2.26,0,3.39-.06,1.84-.13,3.78.47,5.5-.64,1.88,0,3.77-.35,5.63.16-.19,1.73,0,3.51-.83,5.14-.16.3,0,.75-.08,1.12a4.2,4.2,0,0,1-.27,1.45c-.54.92-.32,2-.67,2.9a11,11,0,0,0-.67,3.28,1.52,1.52,0,0,1-.17.71,4.49,4.49,0,0,0-.54,2.53,2.28,2.28,0,0,1-.19,1.09,5,5,0,0,0-.55,2.54,2.48,2.48,0,0,1-.13,1.11c-.93,1.56-.29,3.51-1.27,5-.13,1.23.11,2.54-.73,3.63a20.71,20.71,0,0,1-.17,2.24c-.14.73-.48,1.41-.63,2.14s.08,1.32-.16,1.86a11.36,11.36,0,0,0-.75,4,3.2,3.2,0,0,1-.28,1.06,13.67,13.67,0,0,0-1,3.56,16,16,0,0,1-.8,3.61C201.83,470.48,201.07,471.83,200.78,473.29Zm81.31-126.11h0a13.93,13.93,0,0,0,2.24,0,13.42,13.42,0,0,0,2.06-.68,1.55,1.55,0,0,1,.37,0,1.11,1.11,0,0,0,.37,0,1.31,1.31,0,0,0,.27-.26c.44-.47.22-2.2-.27-2.76a5.29,5.29,0,0,0-2.55-1.4c-1.15-.33-2.51.21-3.56-.73-1.62,0-3.23-.05-4.85,0-.82,0-1.66,1.56-1.32,2.35.15.33.45.61.57,1a2.5,2.5,0,0,0,2.37,2c.58,0,1.11.55,1.69.65a15.2,15.2,0,0,0,2.24,0ZM297.48,43.8h-.06c0-.62,0-1.24,0-1.85a2.14,2.14,0,0,0-1.94-1.9c-.37,0-.74,0-1.11,0a2.12,2.12,0,0,0-1.86,1,7.43,7.43,0,0,0-.85,1.63,5.33,5.33,0,0,0,0,3.61,1.57,1.57,0,0,0,.69.85,13.88,13.88,0,0,0,2.34,1,1.45,1.45,0,0,0,1-.23,3.26,3.26,0,0,0,1.72-3.41A4.56,4.56,0,0,1,297.48,43.8ZM228,230c-.49-.54-1-1.12-1.49-1.63-.72-.69-1.63-.46-2.48-.42a.44.44,0,0,0-.28.24c-.34.9-1.11,1.62-1,2.7s0,2,0,3a1.88,1.88,0,0,0,1.09,1.43.85.85,0,0,0,1-.16,2.56,2.56,0,0,1,1.35-.51,1.86,1.86,0,0,0,1.79-2C228,231.84,228,231,228,230Z"/><path class="cls-2" d="M308,356.31q0-9.4,0-18.83,0-32.6,0-65.19,0-20.73,0-41.45,0-20.16,0-40.32a2.63,2.63,0,0,1,.33-1.8,1.26,1.26,0,0,0-.08-1.69,1.37,1.37,0,0,1-.24-.69c0-1.13,0-2.27,0-3.39a2.41,2.41,0,0,1,.34-1,2.69,2.69,0,0,0,.32-1.44c0-3.14,0-6.28,0-9.42,0-2.06.1-2.12-.91-3.9a5.61,5.61,0,0,1-.42-3.61c0-.29.26-.38.54-.43a1.91,1.91,0,0,0,.65-.33c.1-.06.13-.22.19-.33l2.61,0c1.23.92,2.66.59,4,.59q29.18,0,58.37,0c3.51,0,7,0,10.54,0a5.2,5.2,0,0,1,1.42.36c1.38.38,2.18,1.68,3.51,2.1a12.9,12.9,0,0,1,2.71,3.08,8.1,8.1,0,0,0,1.49,1.68c2,2.06,4,4.16,6.09,6.16a52.45,52.45,0,0,1,3.5,4.38,4.73,4.73,0,0,0,1.18,1.89,2.64,2.64,0,0,1,.5,1.76,10.67,10.67,0,0,0,.13,1.12,25.5,25.5,0,0,0-.21,5.24,2.25,2.25,0,0,0,.44,1,.54.54,0,0,1-.07.65,1.7,1.7,0,0,0-.36,1c0,1,0,2,0,3a3.1,3.1,0,0,0,.46,1.39,2.93,2.93,0,0,1-.11,2.84,2.61,2.61,0,0,0-.37,1.41c0,3.89,0,7.77,0,11.65a2.13,2.13,0,0,0,.45,1.39.86.86,0,0,1,.13,1,3.37,3.37,0,0,0-.57,2.11c0,4.64,0,9.27,0,13.91,0,3,0,6,0,9a3.08,3.08,0,0,1-.59,2.1.76.76,0,0,0-.05.7c.77.84.61,1.85.64,2.85a42.94,42.94,0,0,0,.14,6c-.07,1.63-.13,3.26-.2,4.89a3.6,3.6,0,0,1-.18,1.46,4.93,4.93,0,0,0-.46,2.55q0,12.82-.05,25.65l0,33.2q0,9,0,18.1a2.77,2.77,0,0,1-.4,1.8.89.89,0,0,0-.06,1,3.62,3.62,0,0,1,.42,2.18c0,8.8,0,17.6,0,26.4q0,14.16,0,28.3c0,1.26-.08,2.51-.13,3.77-.27,0-.51.2-.45.43s.35.25.54.37q0,6.92,0,13.85c0,6.86,0,13.73,0,20.6,0,1.83.39,3.73-.56,5.48v3c-.09.61-.31,1.26.44,1.65a30,30,0,0,1,.15,4.13,5.47,5.47,0,0,1-.44,2.17,8.06,8.06,0,0,0-.12,2.21c.74,1,.54,2.15.55,3.26q0,3.39,0,6.78v19.59a4.7,4.7,0,0,1-.44,2.17,1.81,1.81,0,0,0,0,1.44,4.91,4.91,0,0,1,.48,2.54c0,1.88,0,3.77,0,5.65,0,.25.07.55-.05.74-.72,1.14-.51,2.41-.59,3.65a.8.8,0,0,0-.86.61l-2.87,0c-.16-.18-.3-.49-.48-.52a11.33,11.33,0,0,0-3.72,0c-.18,0-.32.34-.48.52h-2.11c-.46-.71-.46-.71-.91,0l-1.33-.06a.83.83,0,0,0-.86-.57l-14.18-.05H362.67a1,1,0,0,0-1.09.75.71.71,0,0,0,0,.59c-1.25.07-2.5.19-3.76.19q-22.23.06-44.47.09a2.25,2.25,0,0,1-1.38-.46,2.68,2.68,0,0,0-1.42-.45,3,3,0,0,1-1.67-.79,2,2,0,0,1-.86-1.58c0-2.39,0-4.77,0-7.16q0-12.24,0-24.49c0-8.79.06-17.58.06-26.37,0-9,0-18.08,0-27.12a35.4,35.4,0,0,1,.17-5.25c.61-.38.61-.38.05-.78a6.08,6.08,0,0,1-.19-1.09q0-10.39,0-20.78c.18-.11.48-.19.53-.35s-.15-.39-.42-.43c-.32-8-.17-16.07-.06-24.11.66-.4.66-.4,0-.82Z"/><path class="cls-1" d="M187.41,702.85c-.06,1.26-.1,2.52-.17,3.77a2.22,2.22,0,0,1-.24,1.07,3.63,3.63,0,0,0-.52,2.15c0,1.51,0,3,0,4.52a3.11,3.11,0,0,1-.47,1.4,1.61,1.61,0,0,0-.2.7,3.1,3.1,0,0,1-.62,2.44c.61.71-.06,1.36-.09,2a1.2,1.2,0,0,0,.28.66c.18.26.23.45.07.65a1.76,1.76,0,0,0-.44,1.39,2.32,2.32,0,0,1-.41,1.78,1.09,1.09,0,0,0,0,1.38,2,2,0,0,1,.17,2.12,3.38,3.38,0,0,0-.52,1.77c0,.63,0,1.26,0,1.88a3.21,3.21,0,0,1-.54,2.14,1.25,1.25,0,0,0-.2.7,3.07,3.07,0,0,1-.49,2.14c-.51.6,0,1.53-.58,2.11a.46.46,0,0,0-.14.64c.15.3.45.61.06,1a1,1,0,0,0-.31.65c.16,1.08-.87,1.79-.79,2.85a27.68,27.68,0,0,1,0,3c0,.49.14,1-.22,1.45a3,3,0,0,0-.51,2.13,1.51,1.51,0,0,1-.28,1.05,2.08,2.08,0,0,0-.49,1.38c0,1,.21,2-.6,2.85a16.77,16.77,0,0,0-.18,1.85,2.82,2.82,0,0,1-.51,1.76c-.42.55-.22,1.21-.25,1.82a5.19,5.19,0,0,1-.56,2.14c-.38.74-.15,1.74-.84,2.41,0,.75-.07,1.5-.13,2.25a1.36,1.36,0,0,1-.2.7,3.72,3.72,0,0,0-.52,2.15c0,.25,0,.56-.1.72a3.93,3.93,0,0,0-.68,2.85,2.1,2.1,0,0,1-.63,1.7,2.18,2.18,0,0,0-.87,2c.23,1.44-.87,2.58-.83,4-.94.81-.44,2.19-1.21,3.08a1,1,0,0,0-.16.71c.19,1.22-.57,2.14-1,3.18-.17.45-.62.79-.57,1.35a3.18,3.18,0,0,1-.7,2.46,3.39,3.39,0,0,1-1.2,2.65,1.56,1.56,0,0,0-.37,1.4c.17,1.19-1,2-.83,3.22,0,.19-.25.42-.39.63-.39.54-1.29.94-.52,1.82a7.45,7.45,0,0,1-1.47,2.52,1.63,1.63,0,0,0-.57,1.33,9.52,9.52,0,0,0,0,1.51c.27,1.57-.8,2.85-.87,4.34a9.78,9.78,0,0,0-1.37,3,20.71,20.71,0,0,1-1.33,3,7.53,7.53,0,0,0-1,3.15c0,1-.68,1.82-1.07,2.72s-1.07,1.49-1,2.34a6.25,6.25,0,0,1-1,3.17,4.42,4.42,0,0,0-.68,2.47,1.26,1.26,0,0,1-.45,1,2.86,2.86,0,0,0-1,2.3l-1.77,3.68c-.16.33-.46.68-.43,1,.11,1.49-.84,2.56-1.34,3.81-.36.89-.23,2-1.2,2.62a1.52,1.52,0,0,0-.55,1.33c0,1-.94,1.75-.83,2.84,0,.28-.35.67-.62.91a2.44,2.44,0,0,0-.82,2c0,.66-.11,1.22-.87,1.46-.2.06-.52.37-.49.5.25,1.13-.75,1.82-.9,2.81a5.58,5.58,0,0,1-1.68,3.24,1.61,1.61,0,0,0-.5,1,7.57,7.57,0,0,1-.7,2.09c-.22.72-1,1.15-.9,2,.1.69-.48,1.12-.73,1.67s-.49,1.13-.75,1.7c-.1.22-.17.52-.35.64-1,.66-.94,2-1.84,2.77s-.95,1.73-1.56,2.52c.17,1.14-.59,1.85-1.22,2.63a1.07,1.07,0,0,0-.24.68c0,1.07-.84,1.77-1.14,2.71a19.11,19.11,0,0,0-2,3.16,57.5,57.5,0,0,0-3.91,7.14,7.44,7.44,0,0,1-.91,1.2,1.68,1.68,0,0,0-.17,2.08,3,3,0,0,1,.47,1.77c0,3.52,0,7,0,10.55,0,.63,0,1.26,0,1.89a2.74,2.74,0,0,1-.35,1,2.92,2.92,0,0,0-.35,1.44c0,1,0,2,0,3a3.06,3.06,0,0,1-.47,1.77,4.16,4.16,0,0,0-.26,2.21,2.32,2.32,0,0,1-.67,1.69,2.47,2.47,0,0,0-.87,2,2.25,2.25,0,0,1-.58,1.72,4.21,4.21,0,0,0-1,1.55,1.41,1.41,0,0,1-.72.83c-1.32.54-2.16,1.69-3.29,2.46a1.63,1.63,0,0,1-.7.2,3.2,3.2,0,0,0-1,.33,6.64,6.64,0,0,1-3.84,1.2.62.62,0,0,0-.36.07A3.94,3.94,0,0,1,109,933a2.24,2.24,0,0,0-1,.36,2.64,2.64,0,0,1-1.42.36,2.15,2.15,0,0,0-1.45.27,2.58,2.58,0,0,1-1.77.46,2.16,2.16,0,0,0-1.08.22,1,1,0,0,1-1.32.05.8.8,0,0,0-.7-.13,5.85,5.85,0,0,1-2.87.69.66.66,0,0,0-.35.11,4,4,0,0,1-2.51.58,6,6,0,0,0-2.13.63,10.46,10.46,0,0,1-1.66.79,14.71,14.71,0,0,1-1.88.1,1.9,1.9,0,0,0-1,.3c-.62.6-1.44.35-2.11.65a16.9,16.9,0,0,0-2,1,4.26,4.26,0,0,1-2.2.26c-.67,0-1.21.15-1.47.88a1.25,1.25,0,0,1-.83.69,2.15,2.15,0,0,0-1.32,1.28c-.28.89-1.06,1.4-1.45,2.16a2.4,2.4,0,0,1-1.28,1.23,2.56,2.56,0,0,0-.82.76c-1.28,1.54-1.42,1.67-3.24,2.09a1.83,1.83,0,0,0-1.4,1.11,1.58,1.58,0,0,1-1.64,1.22c-.21,0-.57.18-.61.34-.22.85-1,1-1.6,1.42-1.12.77-2.54,1-3.54,2S60.1,956,59,956.64a11.6,11.6,0,0,0-1.33.63,3.22,3.22,0,0,1-2.12.55,3.58,3.58,0,0,0-2.15.51,2.32,2.32,0,0,1-1.06.28c-1,.09-2-.11-2.9.58a1,1,0,0,1-.71.13c-1.58-.35-2.85.83-4.35.87a4,4,0,0,1-2.86.66,5.94,5.94,0,0,0-3.21.82,13.3,13.3,0,0,1-3,1.45,13.77,13.77,0,0,1-3,0,2.14,2.14,0,0,0-1.41.42c-.25.18-.4.13-.67,0a2.27,2.27,0,0,0-1.05-.33c-1.13,0-2.26,0-3.39-.06s-2.54.24-3.61-.68a5.18,5.18,0,0,1-2.54-.46c-.79-.55-1.71-.28-2.57-.33a3.25,3.25,0,0,1-1.39-.51,1.17,1.17,0,0,0-.69-.22c-1.21.2-2.15-.56-3.19-.92a9.26,9.26,0,0,0-1.71-.69,7.1,7.1,0,0,1-1.7-.7,4.41,4.41,0,0,1-2.34-2.31,8.88,8.88,0,0,0-2.51-3.63c-1.5-1.18-2.29-2.94-3.47-4.52-.14-2.41-.08-4.92,0-7.44,0-1,0-2,0-3A2,2,0,0,1,1.79,936l.75,0,2.25-.05c.86-.83,2.1-.62,3.1-1.2,1.7-1,3.62-1.57,5.16-2.9a13.06,13.06,0,0,1,2.3-1.17,9.78,9.78,0,0,0,3.07-2.09,7.27,7.27,0,0,1,2.21-1.38,32,32,0,0,1,3-1.44c.9-.4,1.87-.56,2.77-1s1.47-1,2.43-.84A11.57,11.57,0,0,0,30,923a8.4,8.4,0,0,1,2.44-1.69,13.47,13.47,0,0,0,1.62-.91,17.31,17.31,0,0,1,1.53-1.07c1.1-.56,2-1.56,3.16-1.95s1.76-1.4,2.85-1.75,1.42-1.45,2.52-1.54a20.62,20.62,0,0,1,4.1-2.54,23.83,23.83,0,0,0,4.62-3.11c1.21-1.08,2.74-1.73,3.85-3s2.73-1.74,3.76-3a12.5,12.5,0,0,0,3.25-2.49c.72-.67,1.62-1.14,2.38-1.76s1.3-1.19,1.94-1.8,1.42-1.43,2.16-2.11c.26-.24.66-.34.94-.57a13.24,13.24,0,0,0,1.67-1.5c.57-.64.79-1.54,1.46-2.15a6.3,6.3,0,0,0,1.52-2.1c.35-.78,1.22-1.27,1.41-2.18a18,18,0,0,0,2.06-3.1c.21-.3.24-.75.5-1,1.53-1.38,2.22-3.29,3.25-5a5.21,5.21,0,0,0,.23-.7.77.77,0,0,1,.22-.31c.83-.64,1-1.74,1.66-2.46A8.88,8.88,0,0,0,86.46,871c1-1.87,1.87-3.77,2.8-5.66.83-.84.56-2.12,1.3-3.06a13.91,13.91,0,0,0,1.31-2.65,23.73,23.73,0,0,0,1.41-3,57.89,57.89,0,0,1,2.37-5.41,21.93,21.93,0,0,1,1-2.78c-.11-1.18,1.07-2,.86-3.21.84-.86.55-2.16,1.22-3.09.44-.61.09-1.49.67-2.11s.34-1.19.33-1.8.49-1.14.71-1.71a8.72,8.72,0,0,0,.7-1.7,8.75,8.75,0,0,1,.74-2.87c.37-.74,0-1.73.56-2.52s.31-1.66.82-2.45.29-1.71.9-2.41c-.15-1.19.7-2.09.92-3.19s.93-1.77,1.18-2.71a8.46,8.46,0,0,1,1-2.75c.59-.86.51-1.95,1-2.76s.23-2,1-2.77c.14-.88,1-1.45,1.1-2.36.07-.46.55-.82.54-1.37a3.61,3.61,0,0,1,.67-2.48c-.15-1.67,1-3.07.94-4.73,0-.74.77-1.27.68-2.1a4,4,0,0,1,.57-2.14,7.17,7.17,0,0,0,.25-1.84c.12-.73.83-1.26.7-2.1a2.94,2.94,0,0,1,.61-2.11.83.83,0,0,0,.1-.35,4.79,4.79,0,0,1,.56-2.53c.45-.6.09-1.49.65-2.11a2.08,2.08,0,0,0,.31-1.43,7.56,7.56,0,0,1,.68-3.64c.34-.62-.09-1.53.4-2.17s.36-1.43.51-2.16.51-1.39.66-2.11,0-1.5.52-2.15.11-1.49.63-2.13a2.14,2.14,0,0,0,.34-1c.14-1.11-.07-2.28.75-3.23.14-.73-.12-1.55.33-2.2a3.68,3.68,0,0,0,.5-2.16,3.12,3.12,0,0,1,.51-1.39c.49-.89,0-2,.65-2.89s.34-1.94,1-2.78c.19-.24,0-.73.09-1.1a2.85,2.85,0,0,1,.25-1.07,3.48,3.48,0,0,0,.49-1.78,5.51,5.51,0,0,1,.53-2.53,7.08,7.08,0,0,0,.35-2.19c.72-.84.41-2,.76-2.85a21.1,21.1,0,0,0,.74-2.86c.23-.93.63-1.85.88-2.81a7,7,0,0,0,.5-1.39c.07-.86-.2-1.81.4-2.55s.2-1.74.79-2.47a2,2,0,0,0,.3-1,4.85,4.85,0,0,1,.56-2.15,7.53,7.53,0,0,0,.46-1.77c.11-.35.45-.66.46-1a6.88,6.88,0,0,1,.72-2.87c.32-.64-.09-1.53.38-2.18a4.43,4.43,0,0,0,.52-2.15,6,6,0,0,1,.53-1.38c.42-.91.06-2,.65-2.89s.3-2,1-2.76c.14-.85-.07-1.74.51-2.54s.2-1.73.83-2.45a1.4,1.4,0,0,0,.18-.7c.15-1-.12-2,.54-2.91.51-.7.19-1.73.84-2.43a1,1,0,0,0,.16-.71c-.29-1.34.94-2.31.83-3.59.78-.89.54-2.17,1.18-3.11.07-.11.18-.22.18-.33a9.23,9.23,0,0,1,.72-3.25c.32-.76.06-1.71.64-2.49.44-.6.08-1.5.67-2.11a.93.93,0,0,0,.26-.68c-.13-1.17.58-2.14.76-3.22s1-2,1-3.19a3.05,3.05,0,0,0,.58-2.12c0-.68.47-1.16.64-1.74s.08-1.26.22-1.86.56-1.14.64-1.73a11.08,11.08,0,0,1,.66-1.73c.17-.59,0-1.31.2-1.85a8.1,8.1,0,0,0,.79-2.47,3.69,3.69,0,0,0,.69-2.47c.05-.87.88-1.53.74-2.47a7.24,7.24,0,0,0,.92-2.79c.78-.75.33-2,1-2.77.5-.57.11-1.49.66-2.11s.32-1.19.37-1.8c.08-1,1-1.77.8-2.85.84-.86.45-2.2,1.21-3.09a.59.59,0,0,0,.17-.33,7.58,7.58,0,0,1,.76-3.23c.28-.67-.07-1.53.49-2.15s.14-1.52.64-2.12.21-1.54.66-2.1c.67-.84.33-2,1-2.8.54-.68.35-1.66.83-2.45s.18-1.92.7-2.86.49-1.89,1-2.79c.21-.41-.07-1.06.14-1.48a6.64,6.64,0,0,0,.77-3.23c.8-.87.66-2.1,1.18-3.11s.49-1.91,1-2.79c-.18-1,.8-1.58.73-2.45s.87-1.53.79-2.46a4.94,4.94,0,0,1,.7-2.48c.3-.67-.1-1.54.38-2.18a3.6,3.6,0,0,0,.5-2.16,1.11,1.11,0,0,1,0-.37,5,5,0,0,0,.78-2.46c.6-.71.43-1.73.89-2.42s.3-1.74.8-2.46a2.82,2.82,0,0,0,.49-1.77,2.4,2.4,0,0,1,.38-1.42,3.36,3.36,0,0,0,.35-1c.09-.49.1-1,.15-1.49.84-.74.47-1.91,1-2.79.36-.62.37-1.46.73-2.08a4.92,4.92,0,0,0,.44-2.18c.1-.87.89-1.53.77-2.47a5.7,5.7,0,0,0,.77-2.84c0-.86.9-1.51.75-2.46a6.41,6.41,0,0,0,.76-2.85c0-.58.63-1.15.61-1.71a6.61,6.61,0,0,1,.91-3.2,5,5,0,0,0,.69-2.48,3.28,3.28,0,0,1,.57-2.13c.36-.51,0-1.23.45-1.78a2.92,2.92,0,0,0,.45-1c.16-.72-.1-1.52.44-2.17s.2-1.73.83-2.44.1-1.5.65-2.12a1.3,1.3,0,0,0,.31-.67,5.13,5.13,0,0,1,.55-2.53c.5-.71.2-1.73.83-2.45a1.33,1.33,0,0,0,.17-.71,4.32,4.32,0,0,1,.52-2.15c.31-.51.23-1.25.54-1.75a5.18,5.18,0,0,0,.54-2.54,5.15,5.15,0,0,1,.68,0l5.28,0c.75,0,1.51,0,2.26,0a1,1,0,0,0,.78-.71h.72a1.12,1.12,0,0,0,1.14.73c4.09,0,8.17,0,12.26,0,1.85,0,3.71-.09,5.56-.14l.33.13h.35c6,0,11.91,0,17.87.06,2.61,0,5.22,0,7.82,0a1,1,0,0,0,.79-.69l3.75,0a5.44,5.44,0,0,1-.26,1.83,4.51,4.51,0,0,0-.51,2.15,7.17,7.17,0,0,1-.19,2.23,10.19,10.19,0,0,0-.64,2.12c-.07.6-.71,1-.69,1.71a2.6,2.6,0,0,1-.47,1.38c-.13.22.13.65.24,1.06-.26.32-.59.69-.89,1.09a1.37,1.37,0,0,0-.34.65,10.16,10.16,0,0,1-.12,1.85c-.19.57-.7,1-.67,1.7a1.84,1.84,0,0,1-.35,1,2.23,2.23,0,0,0-.43,1.4,2.43,2.43,0,0,1-.43,1.77.7.7,0,0,0-.19.33c-.08.87,0,1.75-.21,2.61s-.8,1.28-.69,2.09a3.07,3.07,0,0,1-1,2.32,4.73,4.73,0,0,0-1.23,3.41,4.7,4.7,0,0,1,0,.75,20.87,20.87,0,0,1-.13,2.63c-.14.85-.64,1.58-.83,2.45a10.47,10.47,0,0,0-.61,2.51,1.75,1.75,0,0,1-.35,1c-.5.7-.62,1.63-1.32,2.23a1.93,1.93,0,0,0-.59,1.7,12.68,12.68,0,0,1,0,1.51,3,3,0,0,1-.19,1.08,14.45,14.45,0,0,0-1.13,2.35,8,8,0,0,1-.88,2.41,5,5,0,0,0-.81,3.18,2.09,2.09,0,0,1-.34,1.43,2.24,2.24,0,0,0-.4,1.42,2.72,2.72,0,0,1-.77,2,6.69,6.69,0,0,0-1.45,3.7c0,.49.07,1.12-.19,1.46-.62.85-.46,1.94-1,2.78a1.61,1.61,0,0,0-.37,1,5.15,5.15,0,0,1-1.42,3.72,3,3,0,0,0-.78,2.4,1.19,1.19,0,0,1-.15.72,2.59,2.59,0,0,0-.67,1.7c.06.69-.57,1.08-.75,1.67-.28.93-1.05,1.72-.79,2.82a1.2,1.2,0,0,1-.18.71A8.32,8.32,0,0,0,218.9,622c-.76.89-.52,2.16-1.18,3.1a1.5,1.5,0,0,0-.27.68,7.15,7.15,0,0,1-.26,1.83,9.93,9.93,0,0,0-.66,2.11,6.9,6.9,0,0,1-1,2,2.11,2.11,0,0,0-.42,1.4,2.83,2.83,0,0,1-1,2.33,2.07,2.07,0,0,0-.49,1c-.14.6.12,1.28-.24,1.83a6.06,6.06,0,0,0-.7,2.1A4.07,4.07,0,0,1,212,642c-.65.72-.42,1.67-.86,2.43s-.69,1.31-1.06,1.95a2.67,2.67,0,0,0-.17,1.47,3.31,3.31,0,0,1-.72,2.44c-.4,1.44-1.37,2.62-1.84,4a8.78,8.78,0,0,0-.42,1c-.15.72.11,1.5-.45,2.16s-.22,1.71-.85,2.43c-.49.56-.09,1.5-.69,2.1a1,1,0,0,0-.29.66,7.58,7.58,0,0,1-1.22,3.84,12.29,12.29,0,0,1-.86,1.65c-.38.56,0,1.32-.44,1.77-.71.69-.32,1.69-.83,2.43a17.74,17.74,0,0,0-1.06,2c-.29.55,0,1.25-.48,1.77a4.25,4.25,0,0,0-.91,1.18c-.35.92-.58,1.88-.94,2.8a14.46,14.46,0,0,1-.64,1.73c-.59,1.09-1.1,2.22-1.64,3.34,0,1.32-.83,2.31-1.37,3.41-.34.67-.13,1.45-.64,2.12a11.44,11.44,0,0,0-1.11,2.34c-.34.81-1.24,1.25-1.41,2.17-.59,0-1.26-.17-1.52.6-.52,1.44-1.69,2.63-1.7,4.27A2.8,2.8,0,0,0,187.41,702.85Z"/><path class="cls-1" d="M372.2,542.69a8.43,8.43,0,0,1,.9,2.8c.68.72.36,1.69.63,2.49a11.42,11.42,0,0,1,.76,2.85c.07,1,.9,1.77.83,2.82.6.73.47,1.65.69,2.48.28,1.08.87,2.07.75,3.24.74.9.45,2.18,1.13,3.12a1.42,1.42,0,0,1,.26.68,5.33,5.33,0,0,0,.59,2.52c.41.62.11,1.51.68,2.11a.64.64,0,0,1,.18.33,6.12,6.12,0,0,0,.82,3.21,8,8,0,0,0,1.15,3.88,3.77,3.77,0,0,1,.36,1c.1.49,0,1.1.21,1.46.53.77.31,1.8.81,2.45.78,1,.25,2.23.88,3.21s.38,2.21,1.1,3.12c-.16,1.31.71,2.37.86,3.6a16,16,0,0,0,.65,1.73,4.3,4.3,0,0,0,.39,1.42,2.25,2.25,0,0,1,.39,1,4,4,0,0,0,.68,2.48.83.83,0,0,1,.08.36c.12.73-.11,1.55.42,2.17s.15,1.53.64,2.12.3,1.48.67,2.11a3.87,3.87,0,0,1,.57,2.14c0,.24,0,.57.13.72.76.78.38,2,1,2.78s.08,2,.65,2.88a17.39,17.39,0,0,1,1.15,2.33,1.57,1.57,0,0,1,0,.75,5.46,5.46,0,0,0,.82,3.2,4.39,4.39,0,0,1,.71,2.47,2.66,2.66,0,0,0,.28,1.06,7.32,7.32,0,0,1,.42,1,12.46,12.46,0,0,1,.1,1.5c.88.85.56,2.14,1.17,3.11a12.39,12.39,0,0,1,.53,1.76,3.14,3.14,0,0,1,.49,1.38,3.38,3.38,0,0,0,.69,1.72.66.66,0,0,1,0,.37c-.08,1.55.81,2.84,1.12,4.28.62.58.23,1.49.67,2.1a4.76,4.76,0,0,1,.55,2.14c.13.71.57,1.38.69,2.09a9.71,9.71,0,0,0,.63,1.74c.2.57.05,1.27.25,1.84a6.55,6.55,0,0,1,.74,2.47c.6.7.48,1.69.88,2.42a7.52,7.52,0,0,1,.65,2.5,6.14,6.14,0,0,0,.82,2.06,4.1,4.1,0,0,1,.6,2.12,6.26,6.26,0,0,0,.95,3.92,4.29,4.29,0,0,1,.58,2.13c0,1,1,1.78.77,2.85.84.86.5,2.17,1.16,3.1a1.27,1.27,0,0,1,.26.68c0,1.54.82,2.84,1.09,4.29.71.67.24,1.72.84,2.45s.36,1.68.42,2.54a4,4,0,0,0,.49,1.39,7.22,7.22,0,0,1,1,3.53,6.05,6.05,0,0,1,.78,3.22c.79.89.5,2.19,1.18,3.12.07.1.18.21.18.32a8.91,8.91,0,0,0,.75,3.24c.3.77,0,1.72.62,2.5.45.6.08,1.5.65,2.11a1.18,1.18,0,0,1,.28.68,5,5,0,0,0,.58,2.52c.42.6.11,1.48.65,2.11a2.65,2.65,0,0,1,.33,1.81,4.86,4.86,0,0,0,.56,2.13,6.15,6.15,0,0,1,1,3.55,3.24,3.24,0,0,0,.56,1.75c.25.56.18,1.29.52,1.76.55.77.18,1.76.78,2.48s.3,1.44.39,2.17.84,1.24.72,2.09a3.57,3.57,0,0,0,.59,2.14c.42.76,0,1.76.55,2.52s.28,1.45.45,2.17a14.9,14.9,0,0,1,.63,1.72c.16,1.36,1.19,2.51.88,4a4.36,4.36,0,0,1,.76,2.84c1.05,1.21.3,3,1.33,4.22a1.3,1.3,0,0,1,.11.73c0,1.5,1.08,2.79.87,4.33.6.71.44,1.69.83,2.44a4.27,4.27,0,0,1,.54,2.13,3.09,3.09,0,0,0,.52,2.15.65.65,0,0,1,.18.32,5.86,5.86,0,0,0,.79,3.22c-.24,1.55,1,2.81.83,4.36a7.72,7.72,0,0,1,.78,3.6,1.09,1.09,0,0,0,.13.72,3,3,0,0,1,.58,2.13c-.12.84.62,1.36.69,2.1a4.89,4.89,0,0,0,.56,2.53,2.59,2.59,0,0,1,.24,1.07c.12.73-.15,1.56.34,2.19s.26,1.49.63,2.12a4,4,0,0,1,.57,2.14,3.51,3.51,0,0,0,.27,1.07,5.88,5.88,0,0,1,.41,1c.15,1-.17,2,.47,2.92s.15,1.76.8,2.46c.36.41.26.95.29,1.44a4.27,4.27,0,0,0,.61,2.51,1.66,1.66,0,0,1,.15.72c.06.5-.07,1.13.2,1.46.68.84.38,2,1,2.81a2.12,2.12,0,0,1,.32,1.05,3.68,3.68,0,0,0,.54,2.14,1.24,1.24,0,0,1,.2.7,6,6,0,0,0,.62,2.51c.47,1,0,2.27.88,3.19.1,1,0,2,.72,2.85a10.08,10.08,0,0,0,.75,2.47,4.86,4.86,0,0,0,.86,2,12.88,12.88,0,0,1,2.17,4.27c.11,1,1.05,1.75.89,2.82a8.58,8.58,0,0,1,.93,2.79c.69.67.31,1.73.86,2.44s.31,2,1,2.77a1.33,1.33,0,0,1,.16.71,4.25,4.25,0,0,0,.51,2.16c.3.5.16,1.3.5,1.75.58.76.26,1.75.83,2.45s.3,1.46.49,2.16a17.83,17.83,0,0,0,1,2.4,2.63,2.63,0,0,1,.42,1,4.27,4.27,0,0,0,.47,2.17c.37.62.33,1.48.72,2.07s.17,1.51.63,2.13c.68.93.48,2.16,1.18,3.12a24.51,24.51,0,0,1,1.52,3c.68,1.32.92,2.81,1.59,4.13s1.51,2.31,1.53,3.76c1.68,2.89,2.76,6.11,4.75,8.84a8.76,8.76,0,0,1,1.08,1.94c.87,2.21,2.58,3.94,3.42,6.16.95.85,1.33,2.1,2.15,3s1.07,2,1.9,2.77c.27,1.28,1.65,1.88,1.93,3.16.58.66,1.19,1.29,1.72,2s.62,1.35,1.21,1.87,1.25,1.24,1.87,1.85c1,1,2,1.93,3,2.91.8.8,2,1,2.71,2a8,8,0,0,0,2.18,2.06,23.18,23.18,0,0,1,3.77,3c.46.4,1.16.53,1.57,1,1,1,2.31,1.45,3.29,2.45s2.28,1.46,3.26,2.47c.77.78,1.94,1.11,2.73,1.92,2.13.74,3.78,2.33,5.79,3.31,1.32.63,2.49,1.59,3.83,2.26a30,30,0,0,1,3.4,2.27,5.23,5.23,0,0,0,.92.64,11.61,11.61,0,0,1,4.23,3,3.23,3.23,0,0,0,2,.91c.82.15,1.55.68,2.44.81a8.38,8.38,0,0,1,1.67.79c1.13.47,2.09,1.32,3.41,1.4.32,0,.64.35.94.56.82.56,1.63,1.14,2.45,1.69s1.66,1.07,2.46,1.66,1.86.78,2.45,1.66c1.48.6,2.76,1.6,4.36,2a6,6,0,0,1,3.21,1.77c.4.48.86.91,1.31,1.36a5.81,5.81,0,0,0,2.09,1.53c.42.16.69.7,1,1.07,0,.91.59,1.65.7,2.48a23.71,23.71,0,0,1,0,3.77,1.89,1.89,0,0,1-.29.68,26.24,26.24,0,0,1-1.29,2.67c-.52.84-1.24,1.54-1.7,2.45a2.56,2.56,0,0,1-1.12.95,1.57,1.57,0,0,0-.79.73c-.27.56-.52,1.13-.8,1.68-.95,1.91-.95,1.91-3.09,2.94a13.63,13.63,0,0,1-3,1.38c-1.1.23-2,1.09-3.2.92a3.89,3.89,0,0,1-2.84.71,4,4,0,0,0-2.52.54,1.79,1.79,0,0,1-1.08.19c-1.4-.1-2.5,1-4,.79a21.22,21.22,0,0,0-4.14,0,2.14,2.14,0,0,0-1,.34c-.27.18-.41.2-.66,0a2.41,2.41,0,0,0-1.79-.39c-3.77.1-7.53,0-11.13,0-1.07-.51-1.64-1.44-2.68-1.7-.32-.08-.57-.47-.83-.73s-.26-1.18-.78-1.17c-1.06,0-1.81-.85-2.84-.84a14.81,14.81,0,0,1-1.48-.14c-.74-.79-1.86-.59-2.74-1.09-1.39-.8-2.87-1.45-4.32-2.15-.33-.16-.7-.44-1-.41-1.49.16-2.55-.84-3.81-1.3a5.51,5.51,0,0,1-2.16-1.44,3.78,3.78,0,0,0-1.83-1.22,1.46,1.46,0,0,1-.82-.73c-.4-.8-.76-1.57-1.86-1.43a8.84,8.84,0,0,1-3.12-2,19.74,19.74,0,0,0-3-2.85,5,5,0,0,1-1.74-1.78c-.2-.44-.67-.75-1-1.16a13.8,13.8,0,0,1-.73-1.29,9.3,9.3,0,0,1-1.91,0,5.14,5.14,0,0,1-1.69-.76,3.08,3.08,0,0,0-2.1-.63,2.11,2.11,0,0,1-1.39-.49,1.2,1.2,0,0,0-.67-.28c-1.17.1-2.15-.52-3.22-.75s-2-1-3.2-.93a3.11,3.11,0,0,0-2.13-.57,4.41,4.41,0,0,1-2.5-.64c-.23-.14-.72.06-1,.21s-.45.22-.66.08a2.63,2.63,0,0,0-1.41-.46c-1,0-2,.15-2.86-.63a6.45,6.45,0,0,1-2.19-.32,4.78,4.78,0,0,0-2.51-.58c-.43,0-.69-.27-1-.44a1.57,1.57,0,0,0-.68-.27c-2.51.07-4.34-1.64-6.5-2.48-1-1-2-1.93-3-2.88a3,3,0,0,1-1.15-2.25c0-.45-.41-.88-.63-1.33a8,8,0,0,1-.76-1.67,6.88,6.88,0,0,0-.56-1.77,2.57,2.57,0,0,1-.21-1.08,17.8,17.8,0,0,1-.06-2.63c.08-.94-.77-1.55-.7-2.49.07-1.12-.07-2.26-.07-3.39a6.79,6.79,0,0,0-.46-2.54,4.63,4.63,0,0,1,0-3.28c.13-.35.29-.59.09-1a3,3,0,0,1,0-2.86c.14-.26.27-.43.1-.65a1.36,1.36,0,0,1-.08-1.7,4.11,4.11,0,0,0,.27-3.27,6.29,6.29,0,0,1-.7-2.09.54.54,0,0,0-.16-.33c-1.46-1.27-1.73-3.28-2.93-4.74s-1.77-3.24-2.67-4.86c-.36-.65-.78-1.26-1.17-1.88a9.35,9.35,0,0,1-1.38-3,6.19,6.19,0,0,0-2.05-3.48,2.36,2.36,0,0,1-.92-2,1.31,1.31,0,0,0-.3-.66c-.42-.6-1.23-1-1.16-1.85S416,868.76,416,868s-.22-1.42-1.1-1.72c-.34-.11-.42-.59-.41-1a5.32,5.32,0,0,0-.72-2.48,1.42,1.42,0,0,0-.68-.82c-.75-.26-.85-.82-.88-1.47a2.6,2.6,0,0,0-.31-1.44c-.47-.71-1.3-1.2-1.2-2.25.07-.78-.76-1.22-.88-2a2.61,2.61,0,0,0-.82-1.62c-1.22-.94-1.12-2.46-1.81-3.61-.06-.11-.18-.23-.17-.33a4.11,4.11,0,0,0-1.3-3.37c-.08-.09.07-.42.13-.64s.17-.27.13-.34a16.36,16.36,0,0,0-1-1.94c-.4-.56-.15-1.23-.46-1.78a1.32,1.32,0,0,0-.2-.32,3.46,3.46,0,0,1-1.22-2.63L401.76,836c.7-.79.13-1.3-.4-1.84-.17-.18-.4-.4-.41-.61-.12-1.82-1.39-3.16-1.94-4.79-.61-.58-.18-1.46-.61-2.12s-.71-1.3-1.11-1.93a2.19,2.19,0,0,1-.18-1.09,13,13,0,0,0-.14-1.87,6.83,6.83,0,0,0-.64-1.34l-1.48-3c.15-1.18-1-2-.9-3.19,0-.3-.46-.62-.54-1-.13-.64-.59-1.11-.76-1.69a7.15,7.15,0,0,1-.09-1.86l-1-3.54a6.25,6.25,0,0,1-1.29-3.41c-.36-.66-.74-1.3-1.07-2a2,2,0,0,1-.34-1,5.07,5.07,0,0,0-.81-2.85,14.17,14.17,0,0,1-.89-2.41,16.87,16.87,0,0,0-1.15-2.34,3,3,0,0,1-.16-1.09,2.93,2.93,0,0,0-.33-1.44c-.3-.53-.53-1.12-.81-1.67a2.47,2.47,0,0,1-.38-1,14.84,14.84,0,0,0-.21-3,12.54,12.54,0,0,0-1.14-2.33,1.26,1.26,0,0,1-.17-.71,4.45,4.45,0,0,0-.94-3.15,3.39,3.39,0,0,1-.61-2.09c.09-1-.94-1.77-.78-2.83a4.45,4.45,0,0,1-.71-2.86c0-.57-.83-1-.35-1.66s-.24-.87-.36-1.31c-.19-.72.09-1.57-.37-2.18s-.28-1.48-.61-2.12a3.78,3.78,0,0,1-.57-2.13,3.58,3.58,0,0,1-.72-2.82,2.91,2.91,0,0,0-.54-1.76,1.29,1.29,0,0,1-.2-.69c0-1.12.14-2.25-.67-3.23-.19-.23-.09-.72-.11-1.09s.14-1.12-.09-1.48c-1-1.51-.55-3.17-.67-4.76,0-.38,0-.76,0-1.13a1.5,1.5,0,0,0-.24-.69,2.36,2.36,0,0,1-.49-1.76c.18-1-.7-1.59-.71-2.47a6.6,6.6,0,0,0-.63-3.28,8.8,8.8,0,0,1-.36-2.19c-.2-.88-.28-.9,0-1.28a.92.92,0,0,0,0-1.05,3,3,0,0,1-.57-1.74c0-1.76-.08-3.52-.06-5.28a3.17,3.17,0,0,0-.48-1.76c-.41-.69-.14-1.47-.19-2.21a2.83,2.83,0,0,0-.36-1.42,2.36,2.36,0,0,1-.36-1c-.06-.75,0-1.51-.05-2.27s-.07-1.49-.11-2.24c-.83-.72-.6-1.86-1-2.76a11.72,11.72,0,0,1-1.19-2.7,13.61,13.61,0,0,0-1.13-2.72,2.11,2.11,0,0,1-.24-.69,4.38,4.38,0,0,0-.65-2.5c-.41-.6-.1-1.49-.65-2.11a1.17,1.17,0,0,1-.24-.68,5,5,0,0,0-.63-2.51c-.39-.6-.23-1.41-.62-2.12s-.39-1.93-1-2.76c.16-.95-.65-1.6-.76-2.46a2.62,2.62,0,0,0-.09-.75,22,22,0,0,0-1.2-2.31c-.41-.66-.19-1.44-.64-2.13a8.43,8.43,0,0,1-1.37-3.41c-.75-.65-.34-1.68-.83-2.43a22.84,22.84,0,0,1-1.2-2.3c-.39-.78-.73-1.58-1.11-2.36s-.68-1.32-1-2c.1-1.84-1-3.29-1.6-4.9-.16-.45-.1-1-.43-1.4-.61-.81-.13-2-1-2.74-.08-.89-.75-1.53-.9-2.44a11,11,0,0,0-1.21-2.68,1.65,1.65,0,0,1-.17-.71,4.77,4.77,0,0,0-.67-2.48c-.31-.63-.34-1.4-.66-2.1-.4-.87-.51-1.88-1-2.75.17-.94-.67-1.6-.69-2.49s-1-1.74-.9-2.82a.84.84,0,0,0-.32-.65,3.93,3.93,0,0,1-1.17-3c0-.45-.49-.86-.63-1.32a5.74,5.74,0,0,0-.45-1.8,8.57,8.57,0,0,1-.61-1.34c-.15-.34-.48-.68-.45-1a5.67,5.67,0,0,0-1.15-3.49c-.41-.7-.22-1.51-.63-2.12a3.76,3.76,0,0,1-.58-2.13,3.42,3.42,0,0,0-.29-1.06c-.33-.93-1.06-1.71-1.15-2.72s-1-1.76-.82-2.84a5,5,0,0,1-.81-2.83c-.05-.58-.56-1.12-.64-1.71a3.51,3.51,0,0,0-.76-1.66c-.5-.69-.84-1.5-1.3-2.24A3,3,0,0,1,333,610a2.38,2.38,0,0,0-.8-2,2.6,2.6,0,0,1-.8-2c0-.44-.72-.74-.31-1.31s-.27-.84-.35-1.26a8.48,8.48,0,0,0-.8-1.66,6.12,6.12,0,0,1-.75-3.2,3.36,3.36,0,0,0-.33-1.44c-.31-1-1-1.7-1.34-2.65a5.91,5.91,0,0,1-.62-2.12,2.75,2.75,0,0,0-.26-1.83c-.63-.82-.3-2-1-2.79a4,4,0,0,1-.9-2,5.63,5.63,0,0,0-.78-2.07,2.28,2.28,0,0,1-.08-.75c-.07-.49,0-1.1-.26-1.44-.58-.75-.14-1.77-.77-2.46-.48-.51-.31-1.2-.54-1.75a8.67,8.67,0,0,0-1.12-1.49,1.38,1.38,0,0,1-.25-.69c-.05-1.24.11-2.51-.79-3.57-.13-.15-.05-.49-.06-.74s.11-.87-.08-1.1c-.83-1-.59-2.14-.67-3.25a2.8,2.8,0,0,0-.33-1c-.34-.66-.63-1.34-1-2s-.25-1.21-.49-1.77a3.41,3.41,0,0,1-.37-1.43,2.59,2.59,0,0,0-.49-1.76c-.43-.53,0-1.28-.4-1.79a3,3,0,0,1-.58-2.11,1.08,1.08,0,0,0-.11-.73c-.63-.7-.5-1.66-.87-2.4a3.6,3.6,0,0,1-.56-2.1,2.1,2.1,0,0,0-.4-1.41,2.12,2.12,0,0,1-.35-1,3.87,3.87,0,0,0-.53-2.14,6.78,6.78,0,0,1-.35-2.58,7.19,7.19,0,0,1,1.12-.16c3.27,0,6.54-.06,9.8-.05,5.16,0,10.31.11,15.46.11,8.8,0,17.59,0,26.39,0h4.15a2.57,2.57,0,0,1,1.43.37c.16.12.3.3.47.34A4.8,4.8,0,0,0,372.2,542.69Z"/><path d="M370.8,542.33a2.57,2.57,0,0,0-1.43-.37h-4.15c-8.8,0-17.59,0-26.39,0-5.15,0-10.3-.09-15.46-.11-3.26,0-6.53,0-9.8.05a7.19,7.19,0,0,0-1.12.16,2.34,2.34,0,0,1-1.34-2.07c-.12-2.84-.14-2.84-1.3-6-.13-.35-.2-.72-.3-1.08v-1.32a1,1,0,0,0-.72-1,1.08,1.08,0,0,1-.07-.73l.58-.39-.6-.37-.18-1.35c.06-.6.06-.6-.54-.88h0c0-.68,0-1.35,0-2a1,1,0,0,0-.76-1h0l.06-1.35a1,1,0,0,0-.71-1,1.89,1.89,0,0,0-.13-.33,5.2,5.2,0,0,1-.7-3.38c0-.44,0-.89,0-1.33a.85.85,0,0,0-.78-.9h0c0-.45,0-.9.08-1.35a1,1,0,0,0-.61-1.07,2.88,2.88,0,0,1-.2-.56c-.05-.36-.15-.78-.56-.79-1.81-.05-3.62-.06-5.43,0a.93.93,0,0,0-.79.64c-6.4,0-12.8.1-19.2.1-4.65,0-9.3-.06-13.94-.08-.16-.18-.28-.46-.47-.51a7.65,7.65,0,0,0-2.9,0c-.2.06-.32.34-.48.51l-2.18,0c-.16-.17-.3-.49-.47-.5a22.68,22.68,0,0,0-5.82,0c-.45.06-.36.53-.28.88a4,4,0,0,0-.29,1.07,2.62,2.62,0,0,1-.53,2.08c-.21.24-.17.71-.25,1.07-.67.35-.67.35-.29.9l.09,1.29c-1,.61-1.11,1.78-1.69,2.66-.43.63-.15,1.4-.31,2.09a2.5,2.5,0,0,0,.06.71,4.19,4.19,0,0,1-.59,2.81,1.24,1.24,0,0,0,.15,1.66.88.88,0,0,1,.11,1c-.89,1.46-1.82,2.89-2.74,4.33l-3.75,0-19-.05c-2.23,0-4.47,0-6.7,0a.89.89,0,0,0-.77.69h-.35l-.33-.13a.9.9,0,0,0-.8-.64q-9.09,0-18.16.06h-.72l-8.38,0a3.6,3.6,0,0,0-.54-.22,31.81,31.81,0,0,1,.82-3.23,17.29,17.29,0,0,1,1.06-2.8,10.57,10.57,0,0,0,.48-2.17,23.74,23.74,0,0,0,1.16-3.9c.15-1.4,1-2.6.93-4,1-2,.92-4.39,2-6.4a4.69,4.69,0,0,0,.23-1.48c.64-.3.62-1,.94-1.52a1.34,1.34,0,0,0,0-1.69c.07-.09.19-.17.22-.27a16.29,16.29,0,0,1,.62-2.74,12,12,0,0,0,.62-2.75c.53-.39.53-.39.37-1a25.72,25.72,0,0,0,1-3.54,29.4,29.4,0,0,1,.68-3.23,29.63,29.63,0,0,0,.33-3.66c.64-.41.64-.41,0-.83a4.06,4.06,0,0,1,.13-1.83c.78-2.6,1.57-5.19,2.16-7.85.52-.42.52-.42.29-1,.16-.86.3-1.73.49-2.58s.37-1.44.54-2.16a1.15,1.15,0,0,0,0-.37c.29-1.46,1.05-2.81.89-4.36a16,16,0,0,0,.8-3.61,13.67,13.67,0,0,1,1-3.56,3.2,3.2,0,0,0,.28-1.06,11.36,11.36,0,0,1,.75-4c.24-.54,0-1.25.16-1.86s.49-1.41.63-2.14a20.71,20.71,0,0,0,.17-2.24c.84-1.09.6-2.4.73-3.63,1-1.53.34-3.48,1.27-5a2.48,2.48,0,0,0,.13-1.11,5,5,0,0,1,.55-2.54,2.28,2.28,0,0,0,.19-1.09,4.49,4.49,0,0,1,.54-2.53,1.52,1.52,0,0,0,.17-.71,11,11,0,0,1,.67-3.28c.35-.91.13-2,.67-2.9a4.2,4.2,0,0,0,.27-1.45c0-.37-.08-.82.08-1.12.86-1.63.64-3.41.83-5.14a5.91,5.91,0,0,0,1.23-3.4,35.14,35.14,0,0,1,.89-4.34c.56-.46.56-.46.14-.89a4.1,4.1,0,0,0,.38-1,7.84,7.84,0,0,1,1.17-3.79,2.84,2.84,0,0,0,.49-1.35,25,25,0,0,1,.86-3.54c.7-.38.7-.38.13-.85a1.31,1.31,0,0,1,.44-1.3,2,2,0,0,0,.53-.38,1,1,0,0,0,.23-.58.68.68,0,0,0-.55-.69c.13-1.18,0-2.4.7-3.48.16-.25,0-.7,0-1.06s-.12-.53-.17-.79a8.86,8.86,0,0,0-.24-3.66c.18-.5.18-.5-.39-.79l-.75-1.53c0-.5,0-1,0-1.5a1,1,0,0,0-.67-.81l-.25-1.36a5.26,5.26,0,0,0,.11-2.4c0-.27-.41-.51-.62-.77-.06-1-.13-1.93-.19-2.89.22-.71.17-1.3-.67-1.54h0a.69.69,0,0,0-.56-.91c-.08-.19-.16-.38-.23-.57.12-.52-.13-.77-.6-.89-.31-.47-.6-1-.95-1.4a3.45,3.45,0,0,1-.61-1.56c.09-.66.06-1.27-.67-1.58a5.06,5.06,0,0,1-.1-.68l0-.77c0-.6.12-1.27-.61-1.6a12.9,12.9,0,0,1-.29-3.61,3,3,0,0,0-.23-2.12,5.05,5.05,0,0,1-.39-2.14,2,2,0,0,1,1.48-1.84,4.05,4.05,0,0,1,.71-.13c.44.08.88.17,1.32.22s1.11.08,1.67.12a.7.7,0,0,0,1,.38l4.29-.05,1,.09,1.35,0h.91l1.33-.08h1l1.32,0,.94,0a8.21,8.21,0,0,0,2.84,0,.73.73,0,0,0,1-.36l5.6-.11a1.61,1.61,0,0,1,.72.16c1.3.68,2.66.4,4,.3a.7.7,0,0,0,1-.42l2.8,0a.66.66,0,0,0,1,.4,5.44,5.44,0,0,0,2.83-.13,4,4,0,0,1,3.47.15c.27.14.7,0,1,0h.94l2.1,0,.92-.05,1.35.07c.64.13,1.29.31,1.7-.44a8.82,8.82,0,0,1,3.26.27,9.42,9.42,0,0,0,4,.1h4a8.66,8.66,0,0,0,4.07-.32,5,5,0,0,1,1.86-.13c3.13,0,6.27,0,9.41,0l19.21,0a.75.75,0,0,0,.87.61,1.43,1.43,0,0,0,.64.12c.07,1.74.15,3.47.22,5.21l0,.82c-.11,8-.26,16.08.06,24.11,0,.26-.07.52-.11.78q0,10.38,0,20.78a6.08,6.08,0,0,0,.19,1.09.71.71,0,0,0-.05.78,35.4,35.4,0,0,0-.17,5.25c0,9,0,18.08,0,27.12,0,8.79,0,17.58-.06,26.37q0,12.24,0,24.49c0,2.39,0,4.77,0,7.16a2,2,0,0,0,.86,1.58,3,3,0,0,0,1.67.79,2.68,2.68,0,0,1,1.42.45,2.25,2.25,0,0,0,1.38.46q22.25,0,44.47-.09c1.26,0,2.51-.12,3.76-.19a7.47,7.47,0,0,0,.08,1.5c.15.58.52,1.11.65,1.7s.06,1.24.16,1.85c0,.18.33.32.51.48.28,1.19,1,2.28,1,3.55.62,1.11.45,2.44.89,3.54a54.27,54.27,0,0,1,2.23,8.17c.66,1.06.42,2.42,1.17,3.45,0,1.38,1,2.51.94,3.9s.95,2.25,1,3.52a2.3,2.3,0,0,0,.39,1,7.77,7.77,0,0,1,.92,3.51,2.79,2.79,0,0,0,.53,1.73ZM273.17,432.55c0-.48.08-1,.08-1.45a1.07,1.07,0,0,0-.46-.93v-1.36a1.6,1.6,0,0,0,.27-.25.52.52,0,0,0,.16-.31c0-2.09.08-4.18.09-6.28a1,1,0,0,0-.59-.86,2,2,0,0,1,.28-1.4c.07-.1.18-.19.2-.3a26.06,26.06,0,0,0,0-4.59c0-.17-.3-.32-.47-.48a4.77,4.77,0,0,1,0-2.16c.33,0,.51-.35.47-.86l.12-4.73a2.65,2.65,0,0,0-.31-1.41,9.64,9.64,0,0,0,.07-4.31c.07-.67.15-1.35.18-2a1.42,1.42,0,0,0-.6-1.17l.3-1.17c.25-.33.4-.67.1-1.05l.05-1.37c.16,0,.13-.52-.07-.9.1-.47.31-.92-.1-1.37-.13-.14-.25-.53-.19-.59.78-.71.47-1.58.42-2.42a72.42,72.42,0,0,0-.06-9.16,3.53,3.53,0,0,0-.28-3,2.09,2.09,0,0,0,.2-2.09c0-.2,0-.45-.13-.58a.74.74,0,0,0-.58-.25c-.36,0-.53.33-.54.7-.2.3-.55.6-.56.91-.07,1.87-.07,3.75-.07,5.63q0,13.71,0,27.42c0,1.25.12,2.5.18,3.75a6.25,6.25,0,0,0,0,3.85,13.5,13.5,0,0,0,.06,4.44c-.2,0-.25.45-.1.85,0,.5-.11,1-.11,1.5q-.06,16-.11,32.06,0,6.79,0,13.58a1.66,1.66,0,0,0,1,1.45.72.72,0,0,0,1.12-.46c.05-1.12.11-2.24.12-3.36,0-2,.13-4,0-6s.13-4-.1-6a20.63,20.63,0,0,1,.22-3.75.58.58,0,0,1,.08-.36c.52-.6.2-1.12,0-1.71a1.63,1.63,0,0,1,0-1.09,2,2,0,0,0,.1-1.73c-.57-1.16-.06-2.49-.33-3.72a13.69,13.69,0,0,0-.06-3.94.59.59,0,0,0,0-.59c.05-.44.11-.88.14-1.33a1.29,1.29,0,0,0-.51-1.16l0-1.19C273.06,433.42,273.24,433,273.17,432.55Zm18.36-2.33c0,1.24-.09,2.49,0,3.73,0,.3.37.6.57.9,0,.44,0,.89,0,1.33-.1.07-.25.13-.28.22a3.09,3.09,0,0,0,.07,3.06,4,4,0,0,1,.11,2c-.55.51-.55.51-.05,1.06,0,.91.08,1.83.13,2.75-.73.51-.65,1.11-.22,1.76a4.7,4.7,0,0,0,0,2.73.79.79,0,0,0-.1,1,1.69,1.69,0,0,0,.08,1.23c-.21,0-.28.55-.11,1l0,4.29c-.19,0-.21.54,0,1a15.74,15.74,0,0,0,.14,4.28.75.75,0,0,0,0,1,29.23,29.23,0,0,0-.26,6,1.26,1.26,0,0,0,.42,1,2.46,2.46,0,0,0,1.75.47,1.41,1.41,0,0,0,1.2-.76c.13-.19.35-.39.36-.59a23.89,23.89,0,0,0,0-2.54c0-.38-.38-.58-.75-.68a2.88,2.88,0,0,0-.28-.62,3.06,3.06,0,0,0,.19-.72c.14-3.45.15-6.91.09-10.36a1.93,1.93,0,0,0-.1-.73c-.09-.2-.31-.34-.48-.52l.12-1.34c.15-.18.42-.35.43-.54a23.68,23.68,0,0,0,.08-2.53,1,1,0,0,0-.63-.81,8.48,8.48,0,0,1-.16-1.11c0-1.87.07-3.74.11-5.61.93-.66.93-.82.05-1.57-.08-.73-.16-1.46-.23-2.19a.81.81,0,0,0-.23-.88l.53-5.88c.15-.18.42-.34.43-.53a15.29,15.29,0,0,0,0-2.14c0-.17-.32-.32-.49-.48.05-.45.09-.91.13-1.37.59-.47.59-.47-.05-.92,0-.45,0-.91-.05-1.37a1,1,0,0,0,.59-.8c0-1.29-.05-2.59-.09-3.88a1.22,1.22,0,0,0,0-.57,11.42,11.42,0,0,0,.1-1.65c0-.28-.29-.55-.45-.83a1.67,1.67,0,0,1,.06-1.26c.13-.2.36-.39.36-.59,0-1.57,0-3.13,0-4.7a7,7,0,0,0-.16-2.5c.22-1.48.07-3,.2-4.46a44.44,44.44,0,0,0,0-4.47c.81-.81.81-.85-.07-1.43l-.08-3.07a8.91,8.91,0,0,0,0-3.09c0-1.94.08-3.88.11-5.82a11,11,0,0,0-.06-1.82,13.73,13.73,0,0,0-.5-1.35,2,2,0,0,1,.08-.71c.69-.43.46-1.07.39-1.68a5.25,5.25,0,0,0,.07-2.16c0-.5,0-1,0-1.5a1,1,0,0,0-.63-.85,2.32,2.32,0,0,0-.89-1.58,1.29,1.29,0,0,0-.32-.19c-.18-.05-.32.11-.32.44,0,1.49,0,3,0,4.48-.87.68-.87.68-.27,1.63l-.06,1.12c-.37.29-.53.62-.2,1a58.55,58.55,0,0,0,0,9.64c-.19,0-.23.5-.05.92,0,.45.07.89.11,1.34-.2,0-.27.5-.1.93-.21,4.6-.17,9.21.05,13.81a1.65,1.65,0,0,0,.11.36c-.23,0-.29.49-.12.93a3.55,3.55,0,0,0,.07,2.09c-.22,0-.25.5-.06.93a19.18,19.18,0,0,0,0,4.35c-.2,0-.26.5-.08.92a5,5,0,0,0,.16,2.1c-.22,0-.27.5-.09.94a6.25,6.25,0,0,0,.15,2.85c-.43.31-.34.67-.09,1a2.22,2.22,0,0,1,.21.63c0,.92,0,1.84,0,2.76A1.44,1.44,0,0,0,291.53,430.22Z"/><path class="cls-1" d="M404.77,253a42.94,42.94,0,0,1-.14-6c0-1,.13-2-.64-2.85a.76.76,0,0,1,.05-.7,3.08,3.08,0,0,0,.59-2.1c0-3,0-6,0-9,0-4.64,0-9.27,0-13.91a3.37,3.37,0,0,1,.57-2.11.86.86,0,0,0-.13-1,2.13,2.13,0,0,1-.45-1.39c0-3.88,0-7.76,0-11.65a2.61,2.61,0,0,1,.37-1.41,2.93,2.93,0,0,0,.11-2.84,3.1,3.1,0,0,1-.46-1.39c0-1,0-2,0-3a1.7,1.7,0,0,1,.36-1,.54.54,0,0,0,.07-.65,2.25,2.25,0,0,1-.44-1,25.5,25.5,0,0,1,.21-5.24,5.32,5.32,0,0,1,.81.76c.35.5.58,1.09.94,1.59a16.59,16.59,0,0,0,1.26,1.4,2.3,2.3,0,0,1,.58,1.35,2.4,2.4,0,0,0,.41,1,22.83,22.83,0,0,1,3.37,6.95c.7.79.52,1.93,1,2.75s.28,2,1,2.77a3.91,3.91,0,0,0,1.74,3.15c.19.17.36.36.54.53,3.56,3.55,7.16,7.07,10.68,10.66,1.21,1.23,2.73,2.23,3.34,4,1.06,1.08,2.14,2.13,3.16,3.24a15.59,15.59,0,0,1,2.86,3.44,10.37,10.37,0,0,0,1.77,1.94c1.26,1.38,2.73,2.56,3.6,4.29a6.33,6.33,0,0,0,1.26,1.39,6.6,6.6,0,0,1,1.57,2.07,5.18,5.18,0,0,0,1.21,1.42,6.9,6.9,0,0,1,1.81,2.36c.11.33.47.57.72.86,1.13,1.32,2.58,2.38,3.25,4.07.87.91,1.73,1.82,2.59,2.74.3,1.33,1.52,1.94,2.3,2.9a7.15,7.15,0,0,1,1.59,2.06,4.56,4.56,0,0,0,.92,1.17c1.06,1.22,2.47,2.14,3.06,3.75.61.63,1.23,1.25,1.82,1.91a8.79,8.79,0,0,1,1.83,2.34,6.71,6.71,0,0,0,1.47,1.7c1,1,1.93,2,2.92,3,.81.8,1,2,1.94,2.73a6.27,6.27,0,0,1,2.1,2.59,3.57,3.57,0,0,1,1.49,1.56,8.17,8.17,0,0,0,1.26,1.39c1.11,1.34,2.65,2.33,3.33,4,1.14,1.17,2.31,2.31,3.4,3.53s2.69,2.28,3.36,4c1.05,1.08,2.08,2.18,3.14,3.25a8.41,8.41,0,0,1,2.08,2.62c1.34.57,1.77,2,2.74,2.94,1.51,1.47,3.23,2.8,4.15,4.79,1.13,1.18,2.28,2.34,3.39,3.54.92,1,2.11,1.8,2.55,3.18.61.64,1.17,1.33,1.83,1.9,1,.84,1.23,2.15,2.23,3a26.85,26.85,0,0,1,2.62,2.71c.76.82,1.13,1.92,2,2.68s1.57,1.62,2.37,2.42,1.25,2.15,2.25,3,1.58,1.61,2.39,2.4,1,2,2,2.72a7.76,7.76,0,0,1,2.07,2.17,13,13,0,0,0,2,2.66,29.54,29.54,0,0,1,1.64,2.48,24.34,24.34,0,0,1,2,3.59,1.63,1.63,0,0,1,.11.73,3.27,3.27,0,0,0,.54,2.14.93.93,0,0,1-.07,1.05,2.27,2.27,0,0,0-.42,1c-.1,1.25-1,2.27-.9,3.6,0,.3-.33.64-.48,1-1.2,2.72-2.57,5.36-4,8a3.14,3.14,0,0,1-.54.95c-.81.66-.92,1.78-1.68,2.45a2.09,2.09,0,0,1-1,.52,11.72,11.72,0,0,0-5.49,2.94,8.56,8.56,0,0,1-2.34,1.82,13.62,13.62,0,0,0-2,1.67,11.12,11.12,0,0,1-1.64.87,25.24,25.24,0,0,0-3.94,2c-1.1.82-2.45,1.25-3.39,2.3a1.78,1.78,0,0,1-1,.39,3,3,0,0,0-1.33.61,33.55,33.55,0,0,1-5.7,3.48,7.53,7.53,0,0,0-1.91,1.15c-.58.51-1.39.64-1.89,1.15-.82.83-1.95,1.1-2.82,1.81-1.2.15-1.65,1.56-2.86,1.68-.88.69-2,1-2.85,1.78a14.34,14.34,0,0,1-2.6,1.4,24.68,24.68,0,0,1-2.17,1.43c-1.93.84-3.47,2.39-5.47,3.14-1.38,1.5-3.54,1.81-5,3.25a4.63,4.63,0,0,1-1.62.88,4,4,0,0,0-1.59.95,10.84,10.84,0,0,1-3.4,2.23,11.19,11.19,0,0,0-3.4,2.25,5.41,5.41,0,0,1-1.58.95,20.81,20.81,0,0,0-4.45,2.7c-.92.17-1.43,1-2.18,1.41s-1.37.6-2,1a50.05,50.05,0,0,1-4.46,2.67c-.4.22-.63.75-.94,1.14-.36.05-.87,0-1.06.19-.86.94-2.13,1.26-3,2.11s-2.37,1.27-3.54,1.94a16.68,16.68,0,0,0-3.78,2.28c-1.16.21-1.76,1.33-2.8,1.76s-2,1-2.95,1.49a10.67,10.67,0,0,0-3.14,1.91c-.33.33-.89.42-1.29.68s-1,.75-1.48,1.13c-1.18-.23-1.81.66-2.59,1.25a6.72,6.72,0,0,1-.66.32,32.92,32.92,0,0,0-3.15,1.9,19.24,19.24,0,0,1-3.59,1.83,2.22,2.22,0,0,1-.74.07c-.37-.13-.71-.36-.71-.76,0-3,0-6,0-9a5,5,0,0,1,.59-2.89,1.38,1.38,0,0,0-.1-1.44,2.92,2.92,0,0,1-.51-1.75c0-1.89,0-3.77,0-5.65a2,2,0,0,1,.29-1,1.49,1.49,0,0,0,0-1.71,2.81,2.81,0,0,1,.14-3.16.86.86,0,0,0,0-1,2.42,2.42,0,0,1-.51-1.37c0-1,0-2,0-3a2.31,2.31,0,0,1,.49-1.37.81.81,0,0,0,0-1,1.41,1.41,0,0,1,0-2,.83.83,0,0,0,0-1,2.28,2.28,0,0,1-.52-1.37c0-.75.05-1.51,0-2.26a2.26,2.26,0,0,1,.5-1.37,1,1,0,0,0-.2-1.35,2,2,0,0,1-.26-1.43,4.82,4.82,0,0,1,.76,0,2.09,2.09,0,0,0,2.13-1.23c.07-.1.05-.25.09-.37a2,2,0,0,1,1.21-1.35,1.81,1.81,0,0,0,1.22-1.23,1.36,1.36,0,0,1,.48-.58,11.26,11.26,0,0,0,1.24-.78,6.87,6.87,0,0,0,.86-1.18c1.47-.36,2.13-1.7,3.14-2.6a8.06,8.06,0,0,1,2.44-1.66,3.11,3.11,0,0,0,1.81-1.71,1.57,1.57,0,0,1,.82-.74,2,2,0,0,0,1.24-1.24,2,2,0,0,1,1-1,4.77,4.77,0,0,0,1.8-1.28c.81-.77,1.46-1.73,2.62-2.07.19-.05.36-.36.43-.58a1,1,0,0,1,1.12-.76,1,1,0,0,0,1.15-1.13c0-.52.15-1,.75-1.12,1-.26,1.4-1.47,2.49-1.6a12.93,12.93,0,0,1,1-1.5,5.37,5.37,0,0,1,1.7-1.44,4.8,4.8,0,0,0,2.35-2.29c.28-.55.63-1.07.94-1.61.36,0,.84.06,1.06-.13,1.11-1,2.15-2.09,3.21-3.14,1.83-.69,2.9-2.28,4.27-3.52a2.55,2.55,0,0,1,.93-.61c.75-.21.9-.74.95-1.4,0-.22.12-.57.28-.63a3.08,3.08,0,0,0,2-2c.06-.19.36-.32.56-.46a15.18,15.18,0,0,0,4.4-4.38c-1.92-1.73-3.44-3.91-5.78-5.21a3.37,3.37,0,0,1-1.28-1.34c-.47-.91-.92-1.76-2-2a7.25,7.25,0,0,0-.8-1.21c-2.28-2.3-4.59-4.58-6.89-6.86-.08-.08-.24-.07-.36-.1a6.3,6.3,0,0,0-.56-.94c-1.24-1.38-2.77-2.49-3.59-4.25-.18-.39-.76-.6-1.16-.88-.19-.15-.52-.25-.57-.43-.32-1.24-1.38-1.64-2.33-2.21a1.79,1.79,0,0,1-.87-1.57,1,1,0,0,0-.79-1.08c-1.33-.45-1.85-2.05-3.27-2.41a.47.47,0,0,1-.26-.26c-.7-1.68-2.27-2.61-3.41-3.92-.74-.85-1.59-1.59-2.37-2.41-.42-.45-1-.9-1.15-1.45-.25-1-1.59-.83-1.64-1.86a6.05,6.05,0,0,1-.91-.57A12,12,0,0,1,418.4,294a4.71,4.71,0,0,0-1.2-1.28c-.57-.41-.82-1.22-1.32-1.74-2.28-2.33-4.59-4.62-6.9-6.92a1,1,0,0,1-.77-1.45,3.1,3.1,0,0,1-.57-1.72c0-1.24,0-2.49,0-3.73,0-1,.14-2-.62-2.83a3.44,3.44,0,0,1,.26-2.52,2.8,2.8,0,0,0,.32-1.79c-.9-1.06-.56-2.35-.67-3.56-.2-2.19.57-4.47-.67-6.57-.16-.28-.06-.73-.07-1.1,0-1.12,0-2.24-.06-3.36A5.65,5.65,0,0,0,404.77,253Z"/><path class="cls-2" d="M408.4,430.29a2.22,2.22,0,0,0,.74-.07,19.24,19.24,0,0,0,3.59-1.83,32.92,32.92,0,0,1,3.15-1.9,6.72,6.72,0,0,0,.66-.32c.78-.59,1.41-1.48,2.59-1.25.49-.38,1-.79,1.48-1.13s1-.35,1.29-.68A10.67,10.67,0,0,1,425,421.2c1-.49,1.93-1.07,2.95-1.49s1.64-1.55,2.8-1.76a16.68,16.68,0,0,1,3.78-2.28c1.17-.67,2.53-1,3.54-1.94s2.18-1.17,3-2.11c.19-.21.7-.14,1.06-.19a33.21,33.21,0,0,1,.17,6.76c-.11,3.77.07,7.53,0,11.3-.05,8.4-.05,16.8-.06,25.2s0,16.81,0,25.22a6.15,6.15,0,0,1-.56,2.91,1.88,1.88,0,0,0,.05,1.45c.8,1.69.42,3.43.39,5.16-.9,1.24-.52,2.66-.53,4-.06,7-.08,14.06-.11,21.09a5.65,5.65,0,0,1-.49,2.91,3.35,3.35,0,0,0-.17,1.47c0,1.5-.12,3,0,4.52a6.13,6.13,0,0,1-1.23,3.94,4.85,4.85,0,0,1-1,.17l-49.37,0H372c-1.26,0-2.51,0-3.77-.06-.75-1-.51-2.39-1.17-3.45a54.27,54.27,0,0,0-2.23-8.17c-.44-1.1-.27-2.43-.89-3.54,0-1.27-.69-2.36-1-3.55.06-.37,0-.83.21-1.09.46-.6,1.28-.66,1.9-1a2.74,2.74,0,0,0,1.36.53c1.12,0,2.24,0,3.35,0a2.7,2.7,0,0,1,1.76.43c.21.16.38.05.64-.09a3,3,0,0,1,2.83,0,1.38,1.38,0,0,0,1.68,0,1.1,1.1,0,0,1,1.37-.05,2.41,2.41,0,0,0,1.39.43,3.41,3.41,0,0,0,1.36-.52c.64-.28,1.19.49,1.7.27a4.08,4.08,0,0,1,1.78-.39c1.73,0,3.47,0,5.21,0,3,0,6.08,0,9.12,0,.39,0,.61-.33.74-.69,1.38,0,2.76-.1,4.14-.07a5.78,5.78,0,0,1,1.47.44,3.81,3.81,0,0,0,1.07-1.77c.31-1,1.44-.94,1.89-1.69.19-.32.46-.58.44-1s0-.76,0-1.13a9.84,9.84,0,0,1,0-1.88c.16-.76-.84-1.29-.31-2.06a2.72,2.72,0,0,0,.3-1.81c-.05-.88-.16-1.75-.24-2.62,0-.28,0-.57,0-.86a15.36,15.36,0,0,0,.07-4.44c0-.8.12-1.6.1-2.4,0-.37-.35-.56-.69-.66a1.6,1.6,0,0,1,0-.72c.77-.35.77-.35.14-.85,0-1-.09-1.94-.13-2.92a.66.66,0,0,0,.55-.9c0-.23.07-.47.08-.71a6.61,6.61,0,0,0-.65-3.76c-.11-.18,0-.47-.05-.7.22-.11.56-.18.61-.34s-.18-.43-.47-.47l-.07-1.42c.77-.38.77-.38.1-.85-.24-2.84,0-5.67-.05-8.51a5.28,5.28,0,0,1,.48-3.22,1.27,1.27,0,0,0,.11-.71,48.89,48.89,0,0,0-.11-6.29l.12-1.61,0-.37c.06-.54-.33-.92-.45-1.38s.55-1,.47-1.66c-.15-1.22-.15-2.45-.21-3.68-.73-1-.42-2.14-.48-3.23,0-.67.56-1.11.58-1.72,0-1.24,0-2.48,0-3.72a1.46,1.46,0,0,0-.28-.67,1.44,1.44,0,0,1,0-1.72A5.35,5.35,0,0,0,408.4,430.29Z"/><path class="cls-1" d="M268.48,11.52a1.36,1.36,0,0,1,.2,1.47c-1.47,3-3,6-4.51,9a1.32,1.32,0,0,1-.81.7,2,2,0,0,0-1.31,1.26c-.26,1.06-1.42,1.43-1.64,2.46s-1.36,1.46-1.58,2.51a1.9,1.9,0,0,1-.7.86c-.38.31-.94.45-1.21.82a7.49,7.49,0,0,1-1,1.52,2.22,2.22,0,0,0-.8,1.23,1.86,1.86,0,0,1-.4.63c-.61.78-1.52,1.31-1.87,2.32-.29.84-1.51.85-1.7,1.84,0,.16-.38.29-.6.39-.54.23-.63.7-.69,1.21a1.42,1.42,0,0,1-.24.67c-.34.48-1.11.43-1.29,1.21s-.89,1.19-1.43,1.7-.87,1-1.42,1.19c-.79.27-.8.82-.89,1.43a1.67,1.67,0,0,1-.29.67c-.6.94-1.61,1.55-2,2.67-.35.91-1.4,1.4-1.65,2.46-.07.31-.45.59-.74.82s-.87.49-1.21.82-.28.69-.5,1c-.69.87-1.74,1.45-2,2.62a9.61,9.61,0,0,0-1.5,1.06,10.13,10.13,0,0,0-1,1.52c-1.21.18-1.1,1.55-1.93,2.13a6.65,6.65,0,0,0-1.81,1.89A4.92,4.92,0,0,1,228,65.28a2,2,0,0,0-.88,1.18c-.06.21-.25.51-.44.56a4.85,4.85,0,0,0-2.33,1.82c-1.68,1.89-3.86,3.16-5.71,4.82,0,0-.19,0-.25-.12a.77.77,0,0,1-.14-.32c0-.12,0-.29.05-.36,1.23-1.25,1.85-3,3.18-4.15.63-.56.77-1.53,1.46-2.14a5.47,5.47,0,0,0,1.52-2.1c.33-.78,1.25-1.23,1.41-2.17,1.31-1.18,2.09-2.78,3.22-4.11a8.21,8.21,0,0,1,2.21-3,9.55,9.55,0,0,0,1.51-2.11,12.93,12.93,0,0,1,1.72-2c.4-1.41,1.85-2.07,2.41-3.3a10.52,10.52,0,0,1,2.36-2.88c.71-.73.89-1.78,1.7-2.44a6.35,6.35,0,0,0,1.77-1.93,12.49,12.49,0,0,1,2.56-3.2c.78-.81,1-2,2-2.71a5.94,5.94,0,0,0,2-2.63,2,2,0,0,1,.48-.58,24.31,24.31,0,0,0,3.6-4.28,17.59,17.59,0,0,1,2-2.2c1.31-1.49,3-2.63,3.87-4.54.78-.82,1.55-1.65,2.35-2.44,2-2,3.92-3.91,5.9-5.84A7.47,7.47,0,0,1,268.48,11.52Z"/><path d="M325.44,89.82c-.38,0-.84.07-1.11-.11a4,4,0,0,0-2.48-.61c-1.38,0-2.77,0-4.15,0a2.2,2.2,0,0,0-1.07.19,3.77,3.77,0,0,1-2.14.5c-2.77,0-5.53,0-8.29,0-1.12,0-2.27.13-3.24-.64-.62,0-1.25-.07-1.86-.18a.8.8,0,0,1-.53-.48,9,9,0,0,1,0-1.87.79.79,0,0,1,.49-.52,3.47,3.47,0,0,1,1.12-.1,2,2,0,0,0,1.41-.39.91.91,0,0,1,1-.18,3.9,3.9,0,0,0,2.5.57c1.63,0,3.27,0,4.9,0a2.22,2.22,0,0,0,1.09-.2,4.48,4.48,0,0,1,4.28,0,1.73,1.73,0,0,0,.7.18c.88,0,1.76,0,2.64,0a3.52,3.52,0,0,0,2.11-.61A2,2,0,0,1,325.45,88C325.44,88.59,325.44,89.2,325.44,89.82Z"/><path d="M282.09,347.18h-.37a15.2,15.2,0,0,1-2.24,0c-.58-.1-1.11-.61-1.69-.65a2.5,2.5,0,0,1-2.37-2c-.12-.34-.42-.62-.57-1-.34-.79.5-2.33,1.32-2.35,1.62,0,3.23,0,4.85,0,1.05.94,2.41.4,3.56.73a5.29,5.29,0,0,1,2.55,1.4c.49.56.71,2.29.27,2.76a1.31,1.31,0,0,1-.27.26,1.11,1.11,0,0,1-.37,0,1.55,1.55,0,0,0-.37,0,13.42,13.42,0,0,1-2.06.68,13.93,13.93,0,0,1-2.24,0Z"/><path d="M297.48,43.8a4.56,4.56,0,0,0,0,.74A3.26,3.26,0,0,1,295.77,48a1.45,1.45,0,0,1-1,.23,13.88,13.88,0,0,1-2.34-1,1.57,1.57,0,0,1-.69-.85,5.33,5.33,0,0,1,0-3.61,7.43,7.43,0,0,1,.85-1.63,2.12,2.12,0,0,1,1.86-1c.37,0,.74,0,1.11,0a2.14,2.14,0,0,1,1.94,1.9c0,.61,0,1.23,0,1.85Z"/><path d="M228,230c0,.94,0,1.81,0,2.68a1.86,1.86,0,0,1-1.79,2,2.56,2.56,0,0,0-1.35.51.85.85,0,0,1-1,.16,1.88,1.88,0,0,1-1.09-1.43c-.07-1,0-2,0-3s.69-1.8,1-2.7a.44.44,0,0,1,.28-.24c.85,0,1.76-.27,2.48.42C227.06,228.91,227.53,229.49,228,230Z"/><path class="cls-2" d="M408.31,301.84c0-1.1.24-2.23-.45-3.24a1.51,1.51,0,0,1-.16-.71q0-6.69,0-13.38a1,1,0,0,1,.64-.83,2.72,2.72,0,0,1,.65.36c2.31,2.3,4.62,4.59,6.9,6.92.5.52.75,1.33,1.32,1.74a4.71,4.71,0,0,1,1.2,1.28,12,12,0,0,0,1.84,1.86,6.05,6.05,0,0,0,.91.57c.05,1,1.39.9,1.64,1.86.14.55.73,1,1.15,1.45.78.82,1.63,1.56,2.37,2.41,1.14,1.31,2.71,2.24,3.41,3.92a.47.47,0,0,0,.26.26c1.42.36,1.94,2,3.27,2.41a1,1,0,0,1,.79,1.08,1.79,1.79,0,0,0,.87,1.57c.95.57,2,1,2.33,2.21.05.18.38.28.57.43.4.28,1,.49,1.16.88.82,1.76,2.35,2.87,3.59,4.25a6.3,6.3,0,0,1,.56.94c-.39.89-1.12,1.68-.71,2.77,0,2.49,0,5,0,7.47q0,9.14,0,18.29a2.86,2.86,0,0,0,.45,1.76,1,1,0,0,1-.13,1.36,1.53,1.53,0,0,0-.17,1.4c-.31.54-.66,1.06-.94,1.61a4.8,4.8,0,0,1-2.35,2.29,5.37,5.37,0,0,0-1.7,1.44,12.93,12.93,0,0,0-1,1.5c-1.09.13-1.49,1.34-2.49,1.6-.6.15-.73.6-.75,1.12a1,1,0,0,1-1.15,1.13,1,1,0,0,0-1.12.76c-.07.22-.24.53-.43.58-1.16.34-1.81,1.3-2.62,2.07a4.77,4.77,0,0,1-1.8,1.28,2,2,0,0,0-1,1,2,2,0,0,1-1.24,1.24,1.57,1.57,0,0,0-.82.74,3.11,3.11,0,0,1-1.81,1.71,8.06,8.06,0,0,0-2.44,1.66c-1,.9-1.67,2.24-3.14,2.6a6.87,6.87,0,0,1-.86,1.18,11.26,11.26,0,0,1-1.24.78,1.36,1.36,0,0,0-.48.58,1.81,1.81,0,0,1-1.22,1.23,2,2,0,0,0-1.21,1.35c0,.12,0,.27-.09.37a2.09,2.09,0,0,1-2.13,1.23,4.82,4.82,0,0,0-.76,0c0-2.77,0-5.54,0-8.3q0-7.72-.08-15.45,0-4.33,0-8.67a4.29,4.29,0,0,1,.48-2.55,1.3,1.3,0,0,0,.2-.7c0-1.88,0-3.77,0-5.65a3.48,3.48,0,0,0-.36-1,4.52,4.52,0,0,1,0-3.64,1.47,1.47,0,0,0-.06-1.71,1.25,1.25,0,0,1-.21-.7c0-2.14,0-4.27-.05-6.4a3.43,3.43,0,0,1,.53-1.36c-.68-.72.06-1.36.12-2a2,2,0,0,0-.16-1.09,4.81,4.81,0,0,1,0-4.31,2.35,2.35,0,0,0,.14-.7.58.58,0,0,0-.12-.34,2.8,2.8,0,0,1-.47-1.78c0-4,0-8,0-12,0-1,0-2,0-3A.68.68,0,0,0,408.31,301.84Z"/></g></g></g></svg>