<svg id="Layer_1" data-name="Layer 1" xmlns="http://www.w3.org/2000/svg" viewBox="0 0 322 24.8">
  <title>25parkrow_logo_black</title>
  <g>
    <path d="M2.1,22.5H18.3v1.8H0V22.5a8.69,8.69,0,0,1,1.4-5.2c1.2-1.6,2.9-2.6,8.1-4.2,5.4-1.7,7-3,7-5.6S13.9,2.8,10,2.8c-4.6,0-7.6,2.4-8,6.6L0,9.2C.5,4.2,4.2,1,10,1c5,0,8.5,2.8,8.5,6.5,0,3.5-2.1,5.4-8.1,7.2C5.9,16.1,4,17,3,18.3,2.4,19.3,2.1,20.1,2.1,22.5Z"/>
    <path d="M30.9,17.9l2-.5c.8,3.7,3.6,5.7,8,5.7,4.8,0,7.7-2.5,7.7-6.2s-3-6.3-7.7-6.3a10.83,10.83,0,0,0-7.6,3.1l-1.8-.5L34,1.6H48.6V3.4h-13L33.9,11H34a11.11,11.11,0,0,1,7-2.3c5.8,0,9.7,3.2,9.7,8.1s-4,8-9.8,8C35.5,24.8,31.8,22.2,30.9,17.9Z"/>
    <path d="M80,.5H91.7c5,0,8.1,2.7,8.1,7.2s-3,7.2-8.1,7.2H82.2v9.4H80ZM91.6,12.9c4,0,6-1.8,6-5.2s-2-5.2-6-5.2H82.2V12.9Z"/>
    <path d="M128.4,19H114l-2.4,5.3h-2.3L120.1.5h2.3l10.8,23.8h-2.3Zm-.8-1.9L121.3,2.8h-.1l-6.4,14.3Z"/>
    <path d="M156.2,14.4l6.3,9.9H160l-6.2-10h-7.4v10h-2.2V.5h11.3c5,0,7.9,2.5,7.9,6.9s-2.7,6.8-7.2,7Zm-.8-2c3.8,0,5.8-1.7,5.8-4.9s-1.9-5-5.9-5h-8.9v9.9Z"/>
    <path d="M179,.5h2.2V13.9h.1L194.4.5h3.1L187.2,10.8l10.6,13.5H195l-9.3-12h-.1l-4.5,4.6v7.4H179Z"/>
    <path d="M239.4,14.4l6.3,9.9h-2.5l-6.2-10h-7.3v10h-2.2V.5h11.3c5,0,7.9,2.5,7.9,6.9s-2.8,6.8-7.3,7Zm-.8-2c3.8,0,5.8-1.7,5.8-4.9s-1.9-5-5.9-5h-8.9v9.9Z"/>
    <path d="M257.3,12.4c0-7.3,5.1-12.4,12.1-12.4s12.1,5.1,12.1,12.4-5.1,12.4-12.1,12.4S257.3,19.7,257.3,12.4Zm22,0c0-6.3-4.1-10.4-9.9-10.4s-9.9,4.2-9.9,10.4,4.2,10.4,9.9,10.4S279.3,18.7,279.3,12.4Z"/>
    <path d="M289.4.5h2.2l4.9,20.7h.1L304.7.5h2.1l8.1,20.7h.1L319.9.5h2.2l-5.6,23.8h-2.6L305.8,3.6h-.1l-8.1,20.7H295Z"/>
  </g>
</svg>
