<?xml version="1.0" encoding="UTF-8"?>
<svg width="183px" height="174px" viewBox="0 0 183 174" version="1.1" xmlns="http://www.w3.org/2000/svg" xmlns:xlink="http://www.w3.org/1999/xlink">
    <!-- Generator: Sketch 49 (51002) - http://www.bohemiancoding.com/sketch -->
    <title>equal_housing_opportunity</title>
    <desc>Created with Sketch.</desc>
    <defs></defs>
    <g id="Page-1" stroke="none" stroke-width="1" fill="none" fill-rule="evenodd">
        <g id="equal_housing_opportunity" transform="translate(-5.000000, -7.000000)">
            <polygon id="Fill-1" points="0.26 193.433 193.016 193.433 193.016 0.677 0.26 0.677"></polygon>
            <polyline id="Fill-2" fill="#000000" points="26.733 149.231 19.633 149.231 19.633 152.042 26.153 152.042 26.153 154.415 19.633 154.415 19.633 157.869 27.048 157.869 27.048 160.243 16.896 160.243 16.896 146.865 26.733 146.865 26.733 149.231"></polyline>
            <path d="M35.709,156.605 L37.051,157.869 C36.549,158.135 36.006,158.226 35.543,158.226 C34.033,158.226 31.907,157.296 31.907,153.552 C31.907,149.808 34.033,148.879 35.543,148.879 C37.051,148.879 39.175,149.808 39.175,153.552 C39.175,154.806 38.933,155.732 38.56,156.425 L37.145,155.103 L35.709,156.605 Z M42.026,159.695 L40.57,158.323 C41.39,157.278 41.97,155.752 41.97,153.552 C41.97,147.275 37.312,146.513 35.543,146.513 C33.774,146.513 29.117,147.275 29.117,153.552 C29.117,159.833 33.774,160.593 35.543,160.593 C36.323,160.593 37.703,160.447 38.969,159.695 L40.555,161.207 L42.026,159.695 Z" id="Fill-3" fill="#000000"></path>
            <path d="M55.123,155.565 C55.123,159.08 52.995,160.593 49.624,160.593 C48.396,160.593 46.57,160.296 45.377,158.974 C44.652,158.159 44.371,157.069 44.335,155.732 L44.335,146.865 L47.185,146.865 L47.185,155.542 C47.185,157.411 48.265,158.226 49.567,158.226 C51.488,158.226 52.268,157.296 52.268,155.674 L52.268,146.865 L55.123,146.865 L55.123,155.565" id="Fill-4" fill="#000000"></path>
            <path d="M62.608,149.885 L62.648,149.885 L64.304,155.175 L60.89,155.175 L62.608,149.885 Z M60.144,157.478 L65.083,157.478 L65.941,160.243 L68.978,160.243 L64.267,146.865 L61.042,146.865 L56.273,160.243 L59.216,160.243 L60.144,157.478 Z" id="Fill-5" fill="#000000"></path>
            <polyline id="Fill-6" fill="#000000" points="73.952 157.821 80.602 157.821 80.602 160.243 71.154 160.243 71.154 146.865 73.952 146.865 73.952 157.821"></polyline>
            <polyline id="Fill-7" fill="#000000" points="91.198 154.239 91.198 160.243 88.408 160.243 88.408 146.865 91.198 146.865 91.198 151.931 96.416 151.931 96.416 146.865 99.207 146.865 99.207 160.243 96.416 160.243 96.416 154.239 91.198 154.239"></polyline>
            <path d="M104.533,153.552 C104.533,149.808 106.661,148.879 108.163,148.879 C109.675,148.879 111.801,149.808 111.801,153.552 C111.801,157.296 109.675,158.226 108.163,158.226 C106.661,158.226 104.533,157.296 104.533,153.552 Z M101.742,153.552 C101.742,159.833 106.402,160.593 108.163,160.593 C109.941,160.593 114.596,159.833 114.596,153.552 C114.596,147.275 109.941,146.513 108.163,146.513 C106.402,146.513 101.742,147.275 101.742,153.552 Z" id="Fill-8" fill="#000000"></path>
            <path d="M127.935,155.565 C127.935,159.08 125.808,160.593 122.435,160.593 C121.206,160.593 119.385,160.296 118.188,158.974 C117.462,158.159 117.182,157.069 117.148,155.732 L117.148,146.865 L119.995,146.865 L119.995,155.542 C119.995,157.411 121.078,158.226 122.385,158.226 C124.303,158.226 125.084,157.296 125.084,155.674 L125.084,146.865 L127.935,146.865 L127.935,155.565" id="Fill-9" fill="#000000"></path>
            <path d="M133.049,156.123 C133.074,156.866 133.45,158.284 135.886,158.284 C137.208,158.284 138.681,157.969 138.681,156.547 C138.681,155.508 137.675,155.226 136.262,154.893 L134.827,154.555 C132.658,154.053 130.574,153.576 130.574,150.633 C130.574,149.14 131.38,146.513 135.719,146.513 C139.82,146.513 140.918,149.193 140.937,150.833 L138.252,150.833 C138.179,150.242 137.955,148.821 135.514,148.821 C134.455,148.821 133.187,149.212 133.187,150.423 C133.187,151.472 134.046,151.687 134.598,151.818 L137.861,152.618 C139.688,153.067 141.361,153.814 141.361,156.215 C141.361,160.243 137.266,160.593 136.091,160.593 C131.213,160.593 130.374,157.778 130.374,156.123 L133.049,156.123" id="Fill-10" fill="#000000"></path>
            <polygon id="Fill-11" fill="#000000" points="143.66 160.242 146.446 160.242 146.446 146.865 143.66 146.865"></polygon>
            <polyline id="Fill-12" fill="#000000" points="157.61 146.865 160.214 146.865 160.214 160.243 157.424 160.243 151.968 150.7 151.922 150.7 151.922 160.243 149.317 160.243 149.317 146.865 152.26 146.865 157.563 156.181 157.61 156.181 157.61 146.865"></polyline>
            <path d="M169.566,153.033 L175.151,153.033 L175.151,160.243 L173.291,160.243 L173.011,158.568 C172.305,159.379 171.279,160.593 168.838,160.593 C165.617,160.593 162.694,158.284 162.694,153.59 C162.694,149.943 164.726,146.494 169.229,146.513 C173.335,146.513 174.956,149.174 175.096,151.024 L172.305,151.024 C172.305,150.5 171.351,148.821 169.381,148.821 C167.383,148.821 165.541,150.199 165.541,153.624 C165.541,157.278 167.535,158.226 169.434,158.226 C170.049,158.226 172.104,157.988 172.676,155.283 L169.566,155.283 L169.566,153.033" id="Fill-13" fill="#000000"></path>
            <path d="M19.096,173.874 C19.096,170.13 21.219,169.196 22.727,169.196 C24.235,169.196 26.357,170.13 26.357,173.874 C26.357,177.617 24.235,178.554 22.727,178.554 C21.219,178.554 19.096,177.617 19.096,173.874 Z M16.301,173.874 C16.301,180.15 20.958,180.922 22.727,180.922 C24.496,180.922 29.153,180.15 29.153,173.874 C29.153,167.598 24.496,166.835 22.727,166.835 C20.958,166.835 16.301,167.598 16.301,173.874 Z" id="Fill-14" fill="#000000"></path>
            <path d="M36.809,173.425 L36.809,169.491 L39.026,169.491 C40.757,169.491 41.485,170.036 41.485,171.341 C41.485,171.937 41.485,173.425 39.396,173.425 L36.809,173.425 Z M36.809,175.739 L40.011,175.739 C43.608,175.739 44.276,172.682 44.276,171.471 C44.276,168.847 42.715,167.188 40.123,167.188 L34.016,167.188 L34.016,180.565 L36.809,180.565 L36.809,175.739 Z" id="Fill-15" fill="#000000"></path>
            <path d="M51.859,173.425 L51.859,169.491 L54.072,169.491 C55.805,169.491 56.532,170.036 56.532,171.341 C56.532,171.937 56.532,173.425 54.449,173.425 L51.859,173.425 Z M51.859,175.739 L55.063,175.739 C58.657,175.739 59.329,172.682 59.329,171.471 C59.329,168.847 57.767,167.188 55.176,167.188 L49.064,167.188 L49.064,180.565 L51.859,180.565 L51.859,175.739 Z" id="Fill-16" fill="#000000"></path>
            <path d="M66.317,173.874 C66.317,170.13 68.435,169.196 69.95,169.196 C71.453,169.196 73.58,170.13 73.58,173.874 C73.58,177.617 71.453,178.554 69.95,178.554 C68.435,178.554 66.317,177.617 66.317,173.874 Z M63.522,173.874 C63.522,180.15 68.177,180.922 69.95,180.922 C71.715,180.922 76.371,180.15 76.371,173.874 C76.371,167.598 71.715,166.835 69.95,166.835 C68.177,166.835 63.522,167.598 63.522,173.874 Z" id="Fill-17" fill="#000000"></path>
            <path d="M83.977,173.073 L83.977,169.491 L87.455,169.491 C89.095,169.491 89.409,170.541 89.409,171.247 C89.409,172.571 88.704,173.073 87.25,173.073 L83.977,173.073 Z M81.231,180.565 L83.977,180.565 L83.977,175.328 L86.859,175.328 C88.929,175.328 89.042,176.035 89.042,177.861 C89.042,179.236 89.148,179.926 89.335,180.565 L92.429,180.565 L92.429,180.204 C91.833,179.984 91.833,179.497 91.833,177.548 C91.833,175.043 91.238,174.638 90.14,174.151 C91.461,173.708 92.204,172.439 92.204,170.97 C92.204,169.812 91.556,167.188 87.998,167.188 L81.231,167.188 L81.231,180.565 Z" id="Fill-18" fill="#000000"></path>
            <polyline id="Fill-19" fill="#000000" points="102.615 180.565 99.822 180.565 99.822 169.553 95.782 169.553 95.782 167.188 106.661 167.188 106.661 169.553 102.615 169.553 102.615 180.565"></polyline>
            <path d="M121.654,175.883 C121.654,179.403 119.531,180.922 116.157,180.922 C114.934,180.922 113.108,180.613 111.912,179.291 C111.185,178.476 110.906,177.393 110.872,176.054 L110.872,167.188 L113.718,167.188 L113.718,175.864 C113.718,177.729 114.801,178.554 116.104,178.554 C118.022,178.554 118.803,177.617 118.803,175.996 L118.803,167.188 L121.654,167.188 L121.654,175.883" id="Fill-20" fill="#000000"></path>
            <polyline id="Fill-21" fill="#000000" points="135.176 167.188 137.789 167.188 137.789 180.565 134.989 180.565 129.53 171.023 129.501 171.023 129.501 180.565 126.886 180.565 126.886 167.188 129.829 167.188 135.143 176.499 135.176 176.499 135.176 167.188"></polyline>
            <polygon id="Fill-22" fill="#000000" points="142.869 180.565 145.672 180.565 145.672 167.188 142.869 167.188"></polygon>
            <polyline id="Fill-23" fill="#000000" points="156.58 180.565 153.786 180.565 153.786 169.553 149.751 169.553 149.751 167.188 160.625 167.188 160.625 169.553 156.58 169.553 156.58 180.565"></polyline>
            <polyline id="Fill-24" fill="#000000" points="171.187 180.565 168.389 180.565 168.389 175.514 163.773 167.188 167.068 167.188 169.844 173.001 172.495 167.188 175.657 167.188 171.187 175.548 171.187 180.565"></polyline>
            <path d="M95.965,7.519 L5.904,51.876 L5.904,72.711 L15.984,72.711 L15.984,135.215 L175.267,135.215 L175.267,72.711 L187.371,72.711 L187.371,51.876 L95.965,7.519 Z M155.781,116.39 L35.475,116.39 L35.475,59.269 L95.965,28.355 L155.781,59.269 L155.781,116.39 Z" id="Fill-25" fill="#000000"></path>
            <polygon id="Fill-26" fill="#000000" points="67.739 79.426 123.517 79.426 123.517 59.269 67.739 59.269"></polygon>
            <polygon id="Fill-27" fill="#000000" points="67.739 108.338 123.517 108.338 123.517 88.168 67.739 88.168"></polygon>
        </g>
    </g>
</svg>