<?xml version="1.0" encoding="UTF-8"?>
<svg width="15px" height="15px" viewBox="0 0 15 15" version="1.1" xmlns="http://www.w3.org/2000/svg" xmlns:xlink="http://www.w3.org/1999/xlink">
    <!-- Generator: Sketch 51 (57462) - http://www.bohemiancoding.com/sketch -->
    <title>Fill 3</title>
    <desc>Created with Sketch.</desc>
    <defs></defs>
    <g id="Mobile-7.9.18" stroke="none" stroke-width="1" fill="none" fill-rule="evenodd">
        <g id="Form_Required" transform="translate(-340.000000, -997.000000)">
            <rect fill="#000" x="0" y="0" width="375" height="1100"></rect>
            <g id="Group-2" transform="translate(20.000000, 968.000000)" fill="#FFFFFF">
                <g id="Group" transform="translate(286.000000, 29.000000)">
                    <path d="M48.1778095,0 L34.616728,0 C34.276002,0 34,0.27984375 34,0.62484375 L34,14.3751563 C34,14.7201562 34.276002,15 34.616728,15 L41.8593524,15 L41.8593524,9.375 L40.010093,9.375 L40.010093,7.03125 L41.8593524,7.03125 L41.8593524,5.15625 C41.8593524,3.21890625 43.0692304,2.26546875 44.7737852,2.26546875 C45.5902332,2.26546875 46.2920272,2.32734375 46.4963703,2.35453125 L46.4963703,4.37953125 L45.3142313,4.38 C44.38729,4.38 44.1709267,4.82671875 44.1709267,5.48203125 L44.1709267,7.03125 L46.4825009,7.03125 L46.0201861,9.375 L44.1709267,9.375 L44.2079118,15 L48.1778095,15 C48.5180732,15 48.7940751,14.7201562 48.7940751,14.3751563 L48.7940751,0.62484375 C48.7940751,0.27984375 48.5180732,0 48.1778095,0" id="Fill-3"></path>
                </g>
            </g>
        </g>
    </g>
</svg>