<?xml version="1.0" encoding="UTF-8"?>
<svg width="15px" height="15px" viewBox="0 0 15 15" version="1.1" xmlns="http://www.w3.org/2000/svg" xmlns:xlink="http://www.w3.org/1999/xlink">
    <!-- Generator: Sketch 51 (57462) - http://www.bohemiancoding.com/sketch -->
    <title>Fill 23</title>
    <desc>Created with Sketch.</desc>
    <defs></defs>
    <g id="Mobile-7.9.18" stroke="none" stroke-width="1" fill="none" fill-rule="evenodd">
        <g id="Form_Required" transform="translate(-306.000000, -997.000000)">
            <rect fill="#000" x="0" y="0" width="375" height="1100"></rect>
            <g id="Group-2" transform="translate(20.000000, 968.000000)" fill="#FFFFFF">
                <g id="Group" transform="translate(286.000000, 29.000000)">
                    <path d="M12.9448158,13.59375 L1.84925939,13.59375 C1.5940616,13.59375 1.38694454,13.38375 1.38694454,13.125 L1.38694454,6.09375 L3.23620394,6.09375 C2.9953379,6.4453125 2.91397049,7.10109375 2.91397049,7.51734375 C2.91397049,10.0275 4.93289943,12.0698437 7.41414322,12.0698437 C9.89584933,12.0698437 11.9147783,10.0275 11.9147783,7.51734375 C11.9147783,7.10109375 11.8565266,6.45515625 11.5578712,6.09375 L13.4071306,6.09375 L13.4071306,13.125 C13.4071306,13.38375 13.2000135,13.59375 12.9448158,13.59375 M7.41414322,4.6396875 C8.98555139,4.6396875 10.2592288,5.92828125 10.2592288,7.51734375 C10.2592288,9.106875 8.98555139,10.3954687 7.41414322,10.3954687 C5.84319737,10.3954687 4.56951996,9.106875 4.56951996,7.51734375 C4.56951996,5.92828125 5.84319737,4.6396875 7.41414322,4.6396875 M11.0955564,1.875 L12.4825009,1.875 C12.7376987,1.875 12.9448158,2.085 12.9448158,2.34375 L12.9448158,3.75 C12.9448158,4.00875 12.7376987,4.21875 12.4825009,4.21875 L11.0955564,4.21875 C10.8403586,4.21875 10.6332415,4.00875 10.6332415,3.75 L10.6332415,2.34375 C10.6332415,2.085 10.8403586,1.875 11.0955564,1.875 M13.0354295,0 L1.75864568,0 C0.787322187,0 0,0.79640625 0,1.77890625 L0,13.2210938 C0,14.2035938 0.787322187,15 1.75864568,15 L13.0354295,15 C14.006753,15 14.7940751,14.2035938 14.7940751,13.2210938 L14.7940751,1.77890625 C14.7940751,0.79640625 14.006753,0 13.0354295,0" id="Fill-23"></path>
                </g>
            </g>
        </g>
    </g>
</svg>