<?xml version="1.0" standalone="no"?>
<!DOCTYPE svg PUBLIC "-//W3C//DTD SVG 1.1//EN" "http://www.w3.org/Graphics/SVG/1.1/DTD/svg11.dtd" >
<svg xmlns="http://www.w3.org/2000/svg" xmlns:xlink="http://www.w3.org/1999/xlink" version="1.1">
<metadata>
Created by FontForge 20170731 at Sun Dec 11 23:00:07 2011
 By Aleksey,,,
Copyright (c) 2011 by Henrik Kubel, A2/SW/HK. All rights reserved.
</metadata>
<defs>
<font id="Antwerp-Bold" horiz-adv-x="1208" >
  <font-face 
    font-family="Antwerp"
    font-weight="700"
    font-stretch="normal"
    units-per-em="2048"
    panose-1="2 0 8 5 8 0 0 2 0 3"
    ascent="1536"
    descent="-512"
    x-height="1018"
    cap-height="1444"
    bbox="-80 -598 2445 2007"
    underline-thickness="40"
    underline-position="-391"
    unicode-range="U+0020-FB04"
  />
<missing-glyph horiz-adv-x="0" 
 />
    <glyph glyph-name=".notdef" horiz-adv-x="0" 
 />
    <glyph glyph-name=".null" horiz-adv-x="0" 
 />
    <glyph glyph-name="nonmarkingreturn" horiz-adv-x="682" 
 />
    <glyph glyph-name="space" unicode=" " horiz-adv-x="512" 
 />
    <glyph glyph-name="exclam" unicode="!" horiz-adv-x="722" 
d="M133 1237q0 96 61.5 161.5t166 65.5t167 -65.5t62.5 -161.5q0 -106 -39 -205.5t-83 -230.5t-52 -303h-109q-8 172 -52 303t-83 230.5t-39 205.5zM145 178q0 86 61.5 147.5t149.5 61.5q86 0 147.5 -61.5t61.5 -147.5t-61.5 -147.5t-147.5 -61.5q-88 0 -149.5 61.5
t-61.5 147.5z" />
    <glyph glyph-name="quotedbl" unicode="&#x22;" horiz-adv-x="1030" 
d="M123 829v635h362l-245 -635h-117zM575 829v635h363l-246 -635h-117z" />
    <glyph glyph-name="numbersign" unicode="#" 
d="M47 489v123h295v242h-295v121h295v459h135v-459h254v459h139v-459h291v-121h-291v-242h291v-123h-291v-489h-139v489h-254v-489h-135v489h-295zM477 612h254v242h-254v-242z" />
    <glyph glyph-name="dollar" unicode="$" 
d="M78 463l108 10q14 -84 82 -240q61 -143 295 -149v508q-154 63 -207 94q-119 70 -180 155t-61 228q0 139 115.5 254t332.5 135v254h96v-250q82 -2 184.5 -15t168 -27.5t75.5 -20.5q-23 -188 -36 -357h-93q2 0 -7 30t-26.5 84t-37.5 108q-35 88 -228 88v-451
q14 -6 63.5 -27.5t68 -30.5t64.5 -30.5t65.5 -36t56.5 -40t54.5 -46t43 -51.5t36.5 -61.5t19.5 -68.5t8.5 -81q0 -182 -131 -305t-349 -146v-321h-96v315h-6q-219 0 -467 72q0 215 -12 420zM401 1155q0 -111 109 -180q10 -6 53 -29v393q-70 -18 -116 -64t-46 -120zM659 94
q78 20 127.5 78.5t49.5 151.5q0 139 -177 225v-455z" />
    <glyph glyph-name="percent" unicode="%" horiz-adv-x="1634" 
d="M76 1077.5q0 149.5 105.5 262t240.5 112.5t240.5 -112.5t105.5 -262t-105.5 -263.5t-240.5 -114t-240.5 114t-105.5 263.5zM141 33l1272 1429l80 -71l-1272 -1430zM317 1077q0 -72 2.5 -110.5t11.5 -87t31.5 -70t59.5 -21.5t59.5 21.5t31.5 70t11 87.5t2 110q0 70 -2 110
t-11 88t-31.5 70.5t-59.5 22.5t-59.5 -22.5t-31.5 -70.5t-11.5 -88t-2.5 -110zM862 348.5q0 149.5 105.5 262t243 112.5t243 -112.5t105.5 -262t-105.5 -263.5t-243 -114t-243 114t-105.5 263.5zM1106 348q0 -72 2 -110.5t11 -87t32 -70t59.5 -21.5t59 21.5t32 70t11.5 87
t2 110.5q0 70 -2 109t-11.5 87t-32 70.5t-59 22.5t-59.5 -22.5t-32 -70.5t-11 -87t-2 -109z" />
    <glyph glyph-name="ampersand" unicode="&#x26;" horiz-adv-x="1755" 
d="M98 348q0 152 103.5 270.5t285.5 174.5v18q-250 106 -249 307q0 152 118.5 250t325.5 98q170 0 286.5 -83t116.5 -232q0 -98 -75.5 -181t-225.5 -130l355 -326l43 59q98 137 98 213q0 66 -72 76l-90 12v95l271 -11l264 11v-95l-68 -14q-53 -12 -95 -54t-120 -147
l-160 -213l310 -274q82 -72 194 -88v-88l-215 8l-250 -8l-239 217q-209 -240 -494 -240q-195 0 -306.5 110.5t-111.5 264.5zM412 459q0 -125 84 -201t198 -76q158 0 244 97l-436 417q-35 -41 -62.5 -107.5t-27.5 -129.5zM522 1217q0 -84 45 -156t148 -152q72 33 115.5 108
t43.5 150q0 90 -52 147.5t-134 57.5q-70 0 -118 -42.5t-48 -112.5z" />
    <glyph glyph-name="quotesingle" unicode="'" horiz-adv-x="577" 
d="M123 829v635h362l-245 -635h-117z" />
    <glyph glyph-name="parenleft" unicode="(" horiz-adv-x="665" 
d="M63 586v39q0 266 143.5 547.5t366.5 404.5l48 -45q-238 -289 -238 -901v-49q0 -614 240 -904l-48 -43q-150 80 -269.5 243t-181 349.5t-61.5 358.5z" />
    <glyph glyph-name="parenright" unicode=")" horiz-adv-x="665" 
d="M43 -322q240 289 240 904v49q0 612 -238 901l47 45q223 -123 366.5 -404.5t143.5 -547.5v-39q0 -172 -61.5 -358.5t-181 -349.5t-269.5 -243z" />
    <glyph glyph-name="asterisk" unicode="*" 
d="M86 623l49 172l377 116l-377 117l-49 172l176 78l297 -289l-88 410l137 121l131 -125l-90 -406l299 287l176 -76l-49 -172l-385 -117l385 -116l49 -172l-176 -76l-303 287l94 -408l-131 -123l-137 121l88 405l-297 -286z" />
    <glyph glyph-name="plus" unicode="+" 
d="M100 672v143h422v440h164v-440h422v-143h-422v-443h-164v443h-422z" />
    <glyph glyph-name="comma" unicode="," horiz-adv-x="634" 
d="M39 -365q248 119 248 318q0 172 -211 233q-4 4 -4 17q0 59 77.5 133t141.5 74q94 0 177 -86t83 -213q0 -180 -143.5 -331t-331.5 -210z" />
    <glyph glyph-name="hyphen" unicode="-" horiz-adv-x="737" 
d="M121 494v182h495v-182h-495z" />
    <glyph glyph-name="period" unicode="." horiz-adv-x="595" 
d="M88 178q0 86 61.5 147.5t149.5 61.5q86 0 147.5 -61.5t61.5 -147.5t-61.5 -147.5t-147.5 -61.5q-88 0 -149.5 61.5t-61.5 147.5z" />
    <glyph glyph-name="slash" unicode="/" horiz-adv-x="1110" 
d="M43 -225l932 1943l92 -49l-926 -1943z" />
    <glyph glyph-name="zero" unicode="0" 
d="M61 717q0 299 159 520t382 221q225 0 384 -221t159 -520q0 -197 -72 -368t-197.5 -275.5t-273.5 -104.5q-221 0 -381 224.5t-160 523.5zM401 717q0 -381 41 -515t160 -134t161 134t42 515t-41 511t-162 130q-82 0 -124 -55.5t-59.5 -189.5t-17.5 -396z" />
    <glyph glyph-name="one" unicode="1" 
d="M199 1174v114l493 154h123q-10 -539 -10 -965q0 -104 4 -268q2 -78 92 -92l172 -25v-106l-444 14l-424 -14v106l162 25q104 14 104 92q2 315 2 463q0 500 -4 522q-4 16 -18 16q-88 1 -252 -36z" />
    <glyph glyph-name="two" unicode="2" 
d="M94 -2v162q16 14 104.5 92t153 137.5t150.5 150.5t141 167q106 147 107 319q0 141 -59.5 228t-174.5 87q-49 0 -72.5 -12t-23.5 -57l16 -305l-47 -41h-24q-125 0 -197 60.5t-72 168.5q0 39 21.5 84t73 97.5t158 87t251.5 34.5q197 0 345.5 -98t148.5 -281
q0 -225 -297 -467l-387 -323h696l-43 -293q-350 4 -635 4q-289 0 -334 -2z" />
    <glyph glyph-name="three" unicode="3" 
d="M78 215q0 82 64.5 141.5t199.5 71.5l49 -43l6 -270q0 -31 18.5 -40t65.5 -9q143 0 219 91t76 214q0 141 -88 229t-278 88l-117 -4l4 135q201 0 307.5 73t106.5 187q0 88 -69 148.5t-185 60.5q-84 0 -146.5 -22.5t-144.5 -71.5l-43 84q82 78 214 128t284 50
q178 0 292.5 -90t114.5 -233q0 -131 -107.5 -219.5t-265.5 -104.5q111 -2 210.5 -41t170 -131t70.5 -217q0 -199 -176 -325t-412 -126q-213 0 -326.5 72t-113.5 174z" />
    <glyph glyph-name="four" unicode="4" 
d="M23 371v141q29 63 243.5 424.5t323.5 531.5l323 -6q-678 -856 -737 -968h445v36q0 221 -13 308l342 6v-350h221v-123h-221v-189q0 -47 20.5 -66.5t76.5 -31.5l86 -21v-73l-349 10l-342 -10v73l84 21q55 12 75 31.5t20 66.5v189h-598z" />
    <glyph glyph-name="five" unicode="5" 
d="M78 213q0 82 65.5 143.5t198.5 69.5l49 -43l6 -270q0 -49 103 -50q152 0 246 83t94 216q0 152 -102.5 242t-297.5 90q-174 0 -280 -24l18 782h893l-10 -274q-102 -16 -230 -17l-555 17l-8 -211q88 10 205 10q127 0 237.5 -27.5t205 -86t148.5 -161t54 -237.5
q0 -197 -168 -347.5t-440 -150.5q-213 0 -322.5 72t-109.5 174z" />
    <glyph glyph-name="six" unicode="6" 
d="M35 586q0 371 274.5 632t728.5 371l76 -86q-98 -33 -198.5 -86t-211 -135t-203.5 -203t-143 -262l19 -6q117 164 340 164q188 0 330.5 -133t142.5 -355q0 -217 -160 -367.5t-399 -150.5q-150 0 -267.5 51.5t-187.5 139.5t-105.5 196.5t-35.5 229.5zM391 473
q0 -393 232 -393q66 0 110.5 29.5t66 84t31 116t9.5 141.5q0 174 -57.5 278.5t-168.5 104.5q-223 -1 -223 -361z" />
    <glyph glyph-name="seven" unicode="7" 
d="M78 1161v291h1083v-158q-29 -55 -152.5 -296.5t-172 -345t-120 -298t-106.5 -368.5l-399 -23q61 203 181 425t220.5 358.5t217 283t126.5 160.5l-10 8q-94 -37 -475 -37h-393z" />
    <glyph glyph-name="eight" unicode="8" 
d="M53 350q0 109 58.5 190t133 116.5t154.5 41.5q-143 47 -226 140.5t-83 228.5q0 182 152.5 289.5t388.5 107.5q207 0 340 -90t133 -248q0 -92 -84 -173t-215 -107q201 -76 278.5 -181.5t77.5 -242.5q0 -174 -146.5 -313.5t-422.5 -139.5q-252 0 -395.5 107.5t-143.5 273.5
zM319 350q0 -115 73 -194.5t222 -79.5q100 0 182.5 60.5t82.5 162.5q0 31 -5.5 57.5t-18.5 50t-23.5 41t-38 37t-43 30.5t-54.5 31l-57 28q-18 9 -67.5 31t-71.5 32q-82 -39 -131.5 -120t-49.5 -167zM408 1176q0 -92 73 -158q53 -51 224 -123q57 39 91.5 111.5t34.5 142.5
q0 92 -59 154.5t-168 62.5q-90 0 -143 -52t-53 -138z" />
    <glyph glyph-name="nine" unicode="9" 
d="M18 938q0 217 160 367.5t400 150.5q150 0 267.5 -51t187 -139t105.5 -196.5t36 -229.5q0 -371 -274.5 -632t-729.5 -372l-76 86q98 33 198.5 86t211 135t204 203t142.5 262l-19 6q-117 -164 -339 -163q-188 0 -331 133t-143 354zM369 975q0 -174 56 -278.5t169 -104.5
q223 0 223 360q0 393 -231 394q-66 0 -111 -30t-66.5 -84t-30.5 -115.5t-9 -141.5z" />
    <glyph glyph-name="colon" unicode=":" horiz-adv-x="667" 
d="M125 178q0 86 61.5 147.5t147.5 61.5t147.5 -61.5t61.5 -147.5t-61.5 -147.5t-147.5 -61.5t-147.5 61.5t-61.5 147.5zM125 807q0 88 61.5 149.5t147.5 61.5t147.5 -61.5t61.5 -149.5q0 -86 -61.5 -147.5t-147.5 -61.5t-147.5 61.5t-61.5 147.5z" />
    <glyph glyph-name="semicolon" unicode=";" horiz-adv-x="657" 
d="M59 -365q248 119 248 318q0 172 -211 233q-4 4 -4 17q0 59 78 133t141 74q94 0 177 -86t83 -213q0 -180 -143 -331t-332 -210zM125 807q0 88 61.5 149.5t147.5 61.5t147.5 -61.5t61.5 -149.5q0 -86 -61.5 -147.5t-147.5 -61.5t-147.5 61.5t-61.5 147.5z" />
    <glyph glyph-name="less" unicode="&#x3c;" 
d="M92 631v207l946 374v-139l-825 -315v-47l825 -316v-139z" />
    <glyph glyph-name="equal" unicode="=" 
d="M131 492v120h946v-120h-946zM131 854v121h946v-121h-946z" />
    <glyph glyph-name="greater" unicode="&#x3e;" 
d="M170 256v139l825 316v47l-825 315v139l946 -374v-207z" />
    <glyph glyph-name="question" unicode="?" horiz-adv-x="985" 
d="M70 1221q0 94 96 168.5t315 74.5q184 0 302 -83t118 -232q0 -84 -43 -156.5t-104.5 -124t-122 -94.5t-103.5 -86t-43 -82q0 -14 3.5 -28.5t9.5 -31t8 -24.5l-55 -18q-66 25 -109 76t-43 79q0 61 39 138t87 136.5t87 134.5t39 136q0 174 -121 174q-43 0 -57.5 -13
t-14.5 -40q0 -8 1 -24.5t1 -26.5l7 -189l-62 -34q-92 4 -163.5 54t-71.5 116zM256 178q0 86 61.5 147.5t149.5 61.5q86 0 147.5 -61.5t61.5 -147.5t-61.5 -147.5t-147.5 -61.5q-88 0 -149.5 61.5t-61.5 147.5z" />
    <glyph glyph-name="at" unicode="@" horiz-adv-x="2195" 
d="M88 483q0 297 146.5 530.5t394.5 358.5t549 125q432 0 690 -248t258 -637q0 -264 -160 -456.5t-418 -192.5q-94 0 -154.5 46t-74.5 116q-23 -57 -94.5 -106.5t-175.5 -49.5q-121 0 -206 74t-85 190q0 96 53 165t144.5 105t176.5 52t181 23v131q0 59 -1 85.5t-8.5 63.5
t-20.5 52.5t-39.5 27.5t-67.5 12q-104 0 -105 -61v-211l-110 -45q-68 10 -117 59t-49 115q0 82 69.5 137t166.5 76.5t214 21.5q168 0 274.5 -78.5t106.5 -244.5q0 -78 -6 -274.5t-6 -239.5q0 -90 82 -90q121 0 217 160.5t96 336.5q0 342 -223 553t-561 211
q-158 0 -302.5 -54t-263 -158.5t-189.5 -277.5t-71 -392q0 -172 55.5 -325t164 -276.5t286.5 -196.5t404 -73q266 0 491 133l45 -78q-104 -98 -300.5 -153t-381.5 -55q-489 0 -782 280t-293 733zM1049 303q0 -63 35.5 -107t109.5 -44q49 0 83 26.5t34 54.5l2 263
q-264 -31 -264 -193z" />
    <glyph glyph-name="A" unicode="A" horiz-adv-x="1589" 
d="M-33 -10v94l96 20q47 8 69 30t40 67l471 1247l289 39q217 -592 491 -1284q20 -49 40 -69.5t65 -29.5l96 -20v-94l-377 10l-375 -10v94l107 20q57 12 78 34q11 12 11 31q0 15 -7 34l-133 372h-488q-88 -231 -123 -372q-7 -18 -6 -33q0 -53 84 -66l137 -20v-94l-362 10z
M475 682h420l-211 588z" />
    <glyph glyph-name="B" unicode="B" horiz-adv-x="1527" 
d="M78 -10v94l104 20q53 10 73.5 32t23.5 67q6 174 6 512l-6 514q-4 51 -22.5 70.5t-74.5 29.5l-104 21v94l299 -10q395 8 555 8q178 0 296 -90t118 -246q0 -129 -82 -215t-248 -117v-14q172 -16 287.5 -118.5t115.5 -252.5q0 -72 -24.5 -137.5t-78.5 -129t-158.5 -101
t-248.5 -37.5q-295 0 -532 16zM608 690l4 -446q0 -84 42 -119t128 -35q127 0 210 77t83 218q0 139 -78.5 222t-255.5 83h-133zM608 819q49 -27 154 -26q135 0 192.5 64.5t57.5 223.5q0 262 -301 262q-23 0 -60 -4t-43 -4v-516z" />
    <glyph glyph-name="C" unicode="C" horiz-adv-x="1538" 
d="M90 711q0 328 215 540.5t565 212.5q199 0 412 -57l154 27l-43 -433h-101l-35 103q-84 252 -366 252q-223 0 -341 -170t-118 -418q0 -299 148.5 -472t410.5 -173q98 0 205 27l137 323h107q-10 -172 -19 -399q-256 -104 -557 -105q-150 0 -284 43t-245.5 129t-178 233
t-66.5 337z" />
    <glyph glyph-name="D" unicode="D" horiz-adv-x="1759" 
d="M78 -10v94l104 20q53 10 73.5 32t23.5 67q6 174 6 512l-6 514q-4 51 -22.5 70.5t-74.5 29.5l-104 21v94l299 -10q238 20 555 20q354 0 544.5 -208t190.5 -513q0 -336 -205 -542.5t-604 -206.5q-244 0 -481 16zM608 1311l2 -1067q0 -104 41 -130t193 -26q76 0 136 12.5
t125.5 50t108.5 101t72 175.5t29 263q0 330 -117 490.5t-407 160.5q-37 0 -82 1t-66 1q-23 0 -29 -7t-6 -25z" />
    <glyph glyph-name="E" unicode="E" horiz-adv-x="1466" 
d="M78 -10v94l104 20q55 10 76 32t21 67q6 174 6 512l-6 514q-4 51 -22.5 70.5t-74.5 29.5l-104 21v94l338 -10h585q51 0 128 6l128 10l54 6q-14 -125 -35 -416h-100l-23 80q-31 106 -62.5 153.5t-86.5 47.5h-361q-23 0 -29 -7t-6 -26v-493q104 0 219 6q47 4 70 26.5
t35 77.5l26 113h99l-10 -283l10 -270h-99l-26 113q-14 57 -37 79.5t-68 24.5l-219 6v-444q0 -129 144 -129h211q86 0 144 31.5t110 132.5l77 155h97q-35 -297 -48 -444q-283 10 -399 10h-528z" />
    <glyph glyph-name="F" unicode="F" horiz-adv-x="1398" 
d="M78 -10v94l104 20q53 10 73.5 32t23.5 67q6 174 6 512l-6 514q-4 51 -22.5 70.5t-74.5 29.5l-104 21v94l377 -10h565q51 0 134 6t140 10l56 6q-14 -125 -35 -416h-101l-24 101q-25 100 -56.5 140t-91.5 40h-399q-23 0 -29 -7t-6 -26v-534q125 0 238 6q47 2 69.5 24.5
t34.5 79.5l27 113h98l-10 -283l10 -270h-98l-27 113q-14 57 -35.5 79.5t-68.5 24.5l-238 6l2 -444q0 -47 20.5 -68.5t74.5 -30.5l126 -20v-94l-376 10z" />
    <glyph glyph-name="G" unicode="G" horiz-adv-x="1732" 
d="M88 715q0 178 70.5 323.5t190.5 236.5t268.5 140t310.5 49q260 0 432 -57l156 33l-43 -439h-101l-65 254q-2 10 -43 32t-123 41.5t-170 19.5q-256 0 -399.5 -159t-143.5 -439q0 -88 16.5 -173t59.5 -173.5t107.5 -154t170 -107.5t238.5 -42q41 0 65.5 1t54 6.5t44 18.5
t14.5 34v286q0 47 -19.5 64.5t-76.5 28.5l-123 20v98l375 -10l340 10v-98l-66 -20q-57 -18 -76.5 -36t-19.5 -65v-350q-338 -119 -604 -119q-193 0 -345.5 49.5t-242.5 125t-149.5 178t-81 198t-21.5 195.5z" />
    <glyph glyph-name="H" unicode="H" horiz-adv-x="1837" 
d="M78 -10v94l104 20q53 10 73.5 32t23.5 67q6 174 6 512l-6 514q-4 51 -22.5 70.5t-74.5 29.5l-104 21v94l366 -10l367 10v-94l-104 -21q-53 -10 -71 -28.5t-22 -71.5q-6 -135 -6 -432h619l-6 432q-2 51 -20.5 70.5t-74.5 29.5l-104 21v94l364 -10l373 10v-94l-106 -21
q-53 -10 -71.5 -29.5t-22.5 -70.5q-6 -176 -7 -514l7 -512q2 -47 21 -67.5t73 -31.5l106 -20v-94l-373 10l-364 -10v94l104 20q53 10 74 32t21 67q6 164 6 483h-619l6 -483q2 -47 20.5 -67.5t72.5 -31.5l104 -20v-94l-367 10z" />
    <glyph glyph-name="I" unicode="I" horiz-adv-x="892" 
d="M78 -10v94l104 20q53 10 73.5 32t23.5 67q6 174 6 512l-6 514q-4 51 -22.5 70.5t-74.5 29.5l-104 21v94l366 -10l371 10v-94l-104 -21q-55 -10 -74 -29.5t-23 -70.5q-6 -176 -6 -514l6 -512q2 -45 22.5 -66.5t74.5 -32.5l104 -20v-94l-371 10z" />
    <glyph glyph-name="J" unicode="J" horiz-adv-x="868" 
d="M4 -297q131 29 190.5 108.5t61.5 260.5q6 346 6 643l-6 514q-2 49 -20.5 68.5t-73.5 31.5l-96 21v94l360 -10l365 10v-94l-105 -21q-55 -10 -73.5 -29.5t-20.5 -70.5q-6 -176 -6 -514l2 -508q2 -47 22.5 -68.5t75.5 -29.5l105 -15v-94h-205q-43 -354 -549 -389z" />
    <glyph glyph-name="K" unicode="K" horiz-adv-x="1634" 
d="M78 -10v94l104 20q53 10 73.5 32t23.5 67q6 174 6 512l-6 514q-4 51 -22.5 70.5t-74.5 29.5l-104 21v94l368 -10l369 10v-94l-104 -21q-55 -10 -74 -29.5t-23 -70.5q-6 -135 -6 -432h201q145 186 313 411q25 33 25 58q0 45 -82 63l-84 21v94l305 -10l281 10v-94l-111 -23
q-14 -4 -25.5 -8t-24.5 -12.5t-22.5 -15.5t-26.5 -24l-29 -29q-11 -11 -36.5 -39t-42.5 -46q-147 -152 -241 -279l469 -681q55 -82 125 -97l59 -12v-94l-354 10l-107 -6q-123 203 -232.5 376t-156.5 244l-49 72h-154l6 -483q2 -45 22.5 -66.5t74.5 -32.5l104 -20v-94
l-369 10z" />
    <glyph glyph-name="L" unicode="L" horiz-adv-x="1396" 
d="M78 -10v94l104 20q53 10 73.5 32t23.5 67q6 195 6 532l-6 494q-2 51 -21.5 70.5t-75.5 29.5l-104 21v94l368 -10l369 10v-94l-104 -21q-55 -10 -75 -29.5t-22 -70.5q-6 -156 -6 -494q0 -268 8 -506q2 -66 32 -90t106 -24h198q51 0 71.5 2t55.5 14t61.5 43t53.5 84l92 176
h86l-47 -444q-285 10 -399 10h-508z" />
    <glyph glyph-name="M" unicode="M" horiz-adv-x="2217" 
d="M70 -10v94l104 20q55 10 74.5 31t21.5 68q10 246 14.5 503t4.5 390v133q0 49 -19.5 69.5t-74.5 30.5l-105 21v94l361 -10l276 10q59 -186 141 -395l271 -691q82 207 164.5 455t126.5 391l40 146v94l226 -10l436 10v-94l-104 -21q-55 -10 -76 -30.5t-21 -69.5l15 -1026
q0 -47 19.5 -67.5t74.5 -31.5l104 -20v-94l-405 10l-330 -10v94l104 20q55 10 76 31t21 68l-11 1075l-466 -1290h-205q-387 983 -512 1288q2 -799 2 -1073q0 -47 19.5 -67.5t72.5 -31.5l102 -20v-94l-270 10z" />
    <glyph glyph-name="N" unicode="N" horiz-adv-x="1824" 
d="M68 -10v94l104 20q55 10 74.5 31t21.5 68q20 840 21 1026q0 47 -20.5 68.5t-73.5 31.5l-101 21v94l293 -10l313 10q35 -104 97 -189l661 -890l-16 864q-2 49 -21.5 69.5t-72.5 30.5l-107 21v94l270 -10l263 10v-94l-105 -21q-55 -10 -75.5 -30.5t-20.5 -69.5
q-8 -522 -8 -1239h-219q-528 727 -947 1265q2 -778 2 -1052q0 -47 19.5 -67.5t75.5 -31.5l106 -20v-94l-270 10z" />
    <glyph glyph-name="O" unicode="O" horiz-adv-x="1714" 
d="M88 702q0 328 216 544t552 218q147 0 283.5 -47t246 -136t175 -232.5t65.5 -323.5q0 -326 -225 -541t-561 -215q-100 0 -204 28t-202 88t-175 144t-124 207t-47 266zM432 743q0 -334 120 -495.5t322 -161.5q408 0 408 602q0 336 -110.5 498t-309.5 162q-129 0 -218 -55.5
t-133 -149.5t-61.5 -190.5t-17.5 -209.5z" />
    <glyph glyph-name="P" unicode="P" horiz-adv-x="1384" 
d="M78 -10v94l104 20q53 10 73.5 32t23.5 67q6 174 6 512l-6 514q-4 51 -22.5 70.5t-74.5 29.5l-104 21v94l414 -6q291 18 417 18q76 0 147.5 -21.5t136 -67.5t104.5 -129t40 -191q0 -82 -28.5 -159t-85 -144.5t-158.5 -108.5t-234 -41l-106 12v96q37 -2 57 -2
q211 0 211 320q0 324 -256 323h-88q-23 0 -30 -8t-7 -24q-4 -258 -4 -596l6 -512q2 -45 22.5 -66.5t74.5 -32.5l104 -20v-94l-356 10z" />
    <glyph glyph-name="Q" unicode="Q" horiz-adv-x="1714" 
d="M88 702q0 328 216 544t552 218q147 0 283.5 -47t246 -136t175 -232.5t65.5 -323.5q0 -240 -126 -424t-339 -270q653 -299 824 -340q41 -10 108 -10q78 0 133 14l-10 -101q-211 -98 -424 -98q-319 0 -653 211q-49 31 -189.5 136.5t-189.5 129.5q-276 6 -474 202.5
t-198 526.5zM432 743q0 -334 120 -495.5t322 -161.5q408 0 408 602q0 336 -110.5 498t-309.5 162q-129 0 -218 -55.5t-133 -149.5t-61.5 -190.5t-17.5 -209.5z" />
    <glyph glyph-name="R" unicode="R" horiz-adv-x="1591" 
d="M78 -10v94l104 20q55 10 76 32t21 67q6 174 6 512l-6 514q-4 51 -22.5 70.5t-74.5 29.5l-104 21v94l411 -6q315 18 443 18q55 0 110.5 -9t115 -36t103.5 -67.5t72.5 -109.5t28.5 -157q0 -113 -79 -207t-210 -135l246 -356q100 -150 201 -234q63 -55 131 -63l-23 -96
q-25 0 -70 -1t-67 -1q-184 0 -268 32q-86 35 -174 170q-35 51 -137.5 234.5t-129.5 222.5h-174q0 -201 6 -440q2 -47 21.5 -67.5t75.5 -31.5l106 -20v-94l-360 10zM608 768q63 -20 174 -20q80 0 160 75.5t80 231.5q0 289 -283 288h-96q-23 0 -29 -7t-6 -25v-543z" />
    <glyph glyph-name="S" unicode="S" horiz-adv-x="1261" 
d="M104 463l109 10q14 -84 82 -240q31 -74 114 -111.5t197 -37.5q106 0 181 62.5t75 177.5q0 63 -29.5 110t-85 81t-110.5 57.5t-131 55t-123 58.5q-119 70 -180.5 155t-61.5 228q0 154 137.5 274.5t393.5 120.5q82 0 188.5 -14t175 -29.5t78.5 -21.5q-23 -188 -37 -357h-92
q2 0 -7 30t-26.5 84t-38.5 108q-35 88 -229 88q-96 0 -174 -48.5t-78 -146.5q0 -113 113 -184q49 -31 142 -71t168 -75.5t149.5 -88t117.5 -131.5t43 -179q0 -203 -161.5 -330t-419.5 -127q-219 0 -467 72q-1 215 -13 420z" />
    <glyph glyph-name="T" unicode="T" horiz-adv-x="1495" 
d="M35 1020q16 186 20 436q133 -23 301 -22l392 -7l395 7q168 2 301 22q2 -250 16 -436h-96l-33 121q-27 94 -68.5 132t-105.5 40l-239 6q-6 -266 -7 -604l7 -512q2 -47 21 -67.5t75 -31.5l102 -20v-94l-364 10l-371 -10v94l104 20q53 10 74 32t23 67q6 174 6 512l-6 604
l-240 -6q-63 -2 -104 -40t-70 -132l-37 -121h-96z" />
    <glyph glyph-name="U" unicode="U" horiz-adv-x="1734" 
d="M39 1350v94l342 -10l381 10v-94l-103 -21q-55 -10 -75.5 -30.5t-20.5 -69.5v-721q0 -393 379 -393q113 0 200 39t134 101t70.5 132t23.5 141q0 125 -2 401.5t-2 299.5q0 49 -20.5 69.5t-75.5 30.5l-105 21v94l267 -10l268 10v-94l-105 -21q-55 -10 -75.5 -30.5
t-20.5 -69.5l-4 -699q0 -270 -170 -415.5t-455 -145.5q-279 0 -454.5 137.5t-175.5 385.5v737q0 49 -20.5 69.5t-76.5 30.5z" />
    <glyph glyph-name="V" unicode="V" horiz-adv-x="1589" 
d="M-31 1350v94l373 -10l395 10v-94l-106 -21q-57 -12 -78 -34q-12 -13 -12 -32q0 -14 6 -32q49 -150 120.5 -343.5t147.5 -386t96 -245.5l369 975q7 19 7 33q0 19 -12 31q-22 22 -79 34l-102 21v94l266 -10l266 10v-94l-98 -21q-45 -8 -68.5 -29.5t-40.5 -66.5l-487 -1245
l-260 -21q-254 614 -504 1264q-18 47 -38.5 68.5t-63.5 29.5z" />
    <glyph glyph-name="W" unicode="W" horiz-adv-x="2371" 
d="M-25 1350v94l359 -10l393 10v-94l-104 -21q-57 -12 -79 -34q-13 -13 -13 -33q0 -14 6 -31q190 -590 305 -961l293 740l-72 221q-16 47 -36.5 68.5t-65.5 29.5l-97 21v94l359 -8l415 8v-94l-114 -25q-39 -8 -59.5 -24.5t-30.5 -58.5q-3 -12 -3 -26q0 -36 19 -88
q35 -119 160 -460.5t143 -395.5l322 959q6 18 6 32q0 20 -13 32q-20 22 -77 34l-107 21v94l326 -10l205 10v-94l-99 -21q-45 -8 -68.5 -29.5t-39.5 -66.5q-141 -381 -253 -692.5t-153 -431.5l-43 -121l-237 -21q-254 684 -330 893l-344 -872l-244 -21q-258 768 -428 1264
q-16 47 -37.5 68.5t-64.5 29.5z" />
    <glyph glyph-name="X" unicode="X" horiz-adv-x="1542" 
d="M2 -10v94l96 20q18 4 31.5 9.5t28 17.5t20.5 17.5t22.5 23.5t18.5 23q213 256 393 532q-176 264 -338 490q-66 94 -155 112l-99 21v94l418 -10l375 10v-94l-119 -21q-45 -8 -51 -45q-1 -7 -1 -14q0 -30 22 -60q84 -156 210 -348q127 190 224 348q25 43 24 68q0 41 -53 51
l-104 21v84h290l244 10v-94l-96 -21q-61 -12 -131 -98q-272 -358 -336 -447q301 -453 401 -589q55 -76 125 -91l94 -20v-94l-360 10l-389 -10v94l104 20q60 10 61 47q0 21 -20 50l-278 436q-131 -182 -285 -436q-16 -26 -16 -46q0 -39 65 -51l121 -20v-94l-293 10z" />
    <glyph glyph-name="Y" unicode="Y" horiz-adv-x="1470" 
d="M-39 1350v94l377 -10l416 10v-94l-109 -21q-82 -16 -81 -61q0 -17 11 -39l295 -516q57 104 265 512q12 22 11 40q0 48 -85 64l-105 21v94l334 -10l205 10v-94l-92 -21q-41 -8 -64.5 -29.5t-50.5 -66.5q-225 -391 -373 -676v-100q0 -123 5 -254q2 -49 19 -68.5t73 -30.5
l104 -20v-94l-338 10l-395 -10v94l102 20q53 10 70.5 30t22.5 69q4 66 4 254v90q-213 352 -416 684q-29 45 -52.5 66.5t-66.5 31.5z" />
    <glyph glyph-name="Z" unicode="Z" horiz-adv-x="1458" 
d="M80 -8v86q319 451 852 1241h-559q-59 0 -92 -40t-56 -138l-24 -101h-90l-17 416q20 -2 52 -6t110 -10t129 -6l944 8v-88q-487 -705 -827 -1207q-8 -8 -4 -20t24 -12h453q47 0 70.5 3t58.5 15t61.5 43t53.5 82l90 176h86l-66 -444q-264 10 -381 10h-622z" />
    <glyph glyph-name="bracketleft" unicode="[" horiz-adv-x="720" 
d="M172 -348v1898h516v-92h-340q0 -2 14.5 -42t32 -94t40 -139t40 -173t29.5 -198t12 -214t-12 -214t-29.5 -198t-40 -172t-40 -137t-32 -93t-14.5 -42h340v-90h-516z" />
    <glyph glyph-name="backslash" unicode="\" horiz-adv-x="1110" 
d="M43 1669l92 49l932 -1943l-98 -49z" />
    <glyph glyph-name="bracketright" unicode="]" horiz-adv-x="720" 
d="M33 -258h340q0 2 -14.5 42t-32 93t-40 137t-40 172t-29.5 198t-12 214t12 214t29.5 198t40 173t40 139t32 94t14.5 42h-340v92h516v-1898h-516v90z" />
    <glyph glyph-name="asciicircum" unicode="^" horiz-adv-x="1181" 
d="M141 465l367 969h164l366 -969h-127l-321 864l-322 -864h-127z" />
    <glyph glyph-name="underscore" unicode="_" horiz-adv-x="1271" 
d="M287 -227h698v-164h-698v164z" />
    <glyph glyph-name="grave" unicode="`" horiz-adv-x="860" 
d="M180 1548h389l111 -374l-100 -13z" />
    <glyph glyph-name="a" unicode="a" horiz-adv-x="1091" 
d="M63 233q0 96 53.5 165t144.5 105t176 52t181 23v131q0 59 -1 85.5t-8 63.5t-20.5 52.5t-40 27.5t-67.5 12q-104 0 -104 -61v-211l-111 -45q-68 10 -117 59t-49 115q0 82 70 137t167 76.5t214 21.5q168 0 274.5 -78.5t106.5 -244.5q0 -80 -7 -270.5t-7 -231.5
q0 -39 20 -63.5t53 -24.5q49 0 72 27l20 -68q-23 -53 -95.5 -86t-147.5 -33q-86 0 -142.5 42t-72.5 114q-23 -57 -94.5 -106.5t-176.5 -49.5q-121 0 -206 73.5t-85 190.5zM354 303q0 -63 36 -107t110 -44q49 0 82.5 26.5t33.5 54.5l2 263q-264 -31 -264 -193z" />
    <glyph glyph-name="b" unicode="b" horiz-adv-x="1224" 
d="M-10 1425v50l377 71h71v-407q0 -57 -8 -121t-16 -98l-8 -35l18 -4q88 162 309 161q172 0 298 -131t126 -376q0 -248 -152.5 -405t-373.5 -157q-145 0 -305 80q-63 -23 -133 -71l-66 20q8 145 8 330v854q0 104 -14.5 149t-50.5 60zM442 193q0 -117 142 -117
q125 0 194.5 103.5t69.5 314.5q0 190 -70.5 286.5t-195.5 96.5q-139 0 -140 -162v-522z" />
    <glyph glyph-name="c" unicode="c" horiz-adv-x="1011" 
d="M66 510q0 223 151.5 377.5t362.5 154.5q197 0 281.5 -70.5t84.5 -150.5q0 -147 -194 -176l-95 27q4 96 5 168q0 68 -13.5 87t-75.5 19q-190 0 -190 -401q0 -193 86 -291t219 -98q78 0 140.5 30.5t91.5 73.5l57 -63q-129 -227 -434 -228q-82 0 -164 33t-153.5 95.5
t-115.5 170t-44 242.5z" />
    <glyph glyph-name="d" unicode="d" horiz-adv-x="1265" 
d="M68 500q0 227 138 384.5t345 157.5q129 0 229 -53v197q0 113 -10 153.5t-49 55.5l-80 30v50l371 71h73v-1167q0 -145 8.5 -204.5t147.5 -63.5v-78l-381 -49h-74l9 147l-15 2q-90 -164 -313 -164q-170 0 -284.5 144.5t-114.5 386.5zM385 532q0 -162 66.5 -258t185.5 -96
q49 0 80 10.5t44 34t16 46t3 61.5v383q0 127 -28.5 180t-118.5 53q-248 0 -248 -414z" />
    <glyph glyph-name="e" unicode="e" horiz-adv-x="1073" 
d="M68 510q0 213 145 372.5t358 159.5q203 0 321 -108.5t118 -296.5v-62l-625 5v-35q0 -182 87 -286.5t210 -104.5q80 0 148.5 30.5t99.5 75.5l57 -63q-129 -227 -446 -228q-201 0 -337 136.5t-136 404.5zM391 668l297 6q1 19 1 36q0 113 -23 172q-27 69 -107 68
q-84 0 -121 -70.5t-47 -211.5z" />
    <glyph glyph-name="f" unicode="f" horiz-adv-x="784" 
d="M51 874v117h166q0 150 50 266.5t134 185t182.5 102.5t207.5 34q90 0 173 -24.5t83 -90.5q0 -84 -67 -145.5t-146 -61.5q-8 0 -36 43t-71 85t-86 42q-72 0 -98 -96q-20 -74 -21 -340l230 15l-17 -156l-213 35v-690q0 -49 17.5 -72t68.5 -33l105 -20v-80l-363 10l-289 -10
v80l60 14q55 14 75.5 33.5t20.5 64.5v692h-166z" />
    <glyph glyph-name="g" unicode="g" horiz-adv-x="1236" 
d="M51 -272q0 152 207 213v18q-162 37 -162 186q0 53 52.5 118t130.5 122q-76 43 -124.5 119t-48.5 176q0 158 123 260t338 102q74 0 161 -19t136 -52l359 67v-247l-43 -17l-195 90q63 -86 64 -196q0 -160 -130.5 -258.5t-334.5 -98.5q-125 0 -232 37q-35 -59 -35 -76
q0 -27 18.5 -39t63.5 -18q18 -2 62.5 -7t161 -17.5t239.5 -24.5q279 -29 279 -295q0 -162 -153.5 -281.5t-463.5 -119.5q-76 0 -143.5 8t-149 31.5t-131 80t-49.5 138.5zM301 -223q0 -219 299 -219q262 0 262 206q0 57 -31.5 87t-105.5 43q-154 25 -367 30q-57 -43 -57 -147
zM418 700q0 -289 168 -288q51 0 82.5 22.5t45 66.5t17.5 80.5t4 92.5q0 283 -153 282q-55 0 -90 -22.5t-50.5 -64.5t-19.5 -79t-4 -90z" />
    <glyph glyph-name="h" unicode="h" horiz-adv-x="1286" 
d="M41 -10v80l41 14q41 14 57.5 22.5t27.5 27t11 48.5v1004q0 111 -10 152.5t-45 56.5l-82 30v50l369 71h73v-411l-24 -265l16 -4q35 63 116 119.5t195 56.5q158 0 247 -93t89 -259l-2 -508q0 -47 19.5 -66.5t72.5 -31.5l60 -14v-80l-297 10l-297 -10v80l41 14q66 23 81 79
t15 243v161q0 61 -5 106.5t-20.5 95.5t-51.5 77.5t-91 27.5q-100 0 -132 -60t-32 -183v-449q0 -51 10.5 -68.5t57.5 -29.5l59 -14v-80l-270 10z" />
    <glyph glyph-name="i" unicode="i" horiz-adv-x="690" 
d="M45 -10v80l59 14q55 14 76 33.5t21 64.5v447q0 109 -12.5 151.5t-51.5 57.5l-80 30v50l363 137h90q-4 -150 -4 -348v-525q0 -47 18.5 -66.5t73.5 -31.5l61 -14v-80l-305 10zM152 1397q0 82 57 140t141 58t141.5 -58t57.5 -140t-57.5 -140.5t-141.5 -58.5t-141 58.5
t-57 140.5z" />
    <glyph glyph-name="j" unicode="j" horiz-adv-x="665" 
d="M-12 -442q104 37 145 106.5t41 202.5v762q0 109 -12 151.5t-49 57.5l-80 30v50l362 137h88q-4 -150 -4 -348v-512q0 -47 20.5 -66.5t75.5 -34.5l58 -14v-80h-156v-170q0 -182 -119 -276q-93 -73 -246 -74q-43 0 -92 6zM125 1397q0 82 58.5 140t140.5 58t140 -58t58 -140
t-58 -140.5t-140 -58.5t-140.5 58.5t-58.5 140.5z" />
    <glyph glyph-name="k" unicode="k" horiz-adv-x="1255" 
d="M31 -10v80l59 14q55 14 74.5 32.5t19.5 65.5v1004q0 111 -10 152.5t-47 56.5l-80 30v50l375 71h74q-6 -303 -7 -547v-381h138l192 201q24 27 24 51q0 7 -2 14q-9 30 -50 34l-97 10v90l273 -10l256 10v-80l-54 -14q-104 -31 -178 -101l-164 -153l254 -490q18 -39 40 -55
t67 -29l63 -18v-80l-374 2l-52 -4l-250 522h-86v-336q0 -47 19.5 -65.5t77.5 -32.5l57 -14v-80l-373 10z" />
    <glyph glyph-name="l" unicode="l" horiz-adv-x="679" 
d="M31 -10v80l61 14q55 12 74.5 31.5t19.5 66.5v1004q0 111 -10 152.5t-47 56.5l-80 30v50l377 71h74q-6 -338 -6 -622v-742q0 -47 19 -66.5t75 -31.5l67 -14v-80l-315 10z" />
    <glyph glyph-name="m" unicode="m" horiz-adv-x="1939" 
d="M53 868v50l365 137h59l-4 -185l16 -4q35 66 120 121t210 55q225 0 291 -174l18 -2q35 63 116 119.5t196 56.5q158 0 247 -93t89 -259l-2 -508q0 -47 19 -66.5t73 -31.5l59 -14v-80l-297 10l-287 -10v80l31 14q63 31 79.5 86t16.5 236v161q0 66 -4 108t-20.5 94t-55 78.5
t-98.5 26.5q-82 0 -117.5 -44t-35.5 -171l-2 -477q0 -45 19.5 -63.5t72.5 -34.5l47 -14v-80l-285 10l-297 -10v80l41 14q66 23 81 79t15 243v161q0 66 -4 108t-20.5 94t-55 78.5t-98.5 26.5q-84 0 -118.5 -49t-34.5 -194v-449q0 -51 10 -68.5t57 -29.5l60 -14v-80l-281 10
l-289 -10v80l41 14q41 14 57.5 22.5t28 27t11.5 48.5v467q0 109 -10.5 141.5t-49.5 47.5z" />
    <glyph glyph-name="n" unicode="n" horiz-adv-x="1300" 
d="M53 868v50l365 137h59l-4 -185l16 -4q35 63 116 119.5t196 56.5q158 0 247 -93t89 -259l-2 -508q0 -47 19.5 -66.5t72.5 -31.5l59 -14v-80l-297 10l-297 -10v80l41 14q66 23 81 79t15 243v161q0 61 -5 106.5t-20.5 95.5t-51 77.5t-90.5 27.5q-100 0 -132 -60t-32 -183
v-449q0 -51 10 -68.5t57 -29.5l60 -14v-80l-271 10l-299 -10v80l41 14q41 14 57.5 22.5t28 27t11.5 48.5v467q0 109 -10.5 141.5t-49.5 47.5z" />
    <glyph glyph-name="o" unicode="o" horiz-adv-x="1210" 
d="M66 500q0 231 150.5 386.5t401.5 155.5q90 0 178.5 -28.5t168 -87t129 -165t49.5 -243.5q0 -240 -151.5 -394.5t-397.5 -154.5q-215 0 -371.5 141.5t-156.5 389.5zM387 526q0 -461 221 -460q57 0 98.5 27.5t63 68.5t33.5 102.5t15 110.5t3 114q0 223 -61.5 340
t-161.5 117q-68 0 -113 -38t-64.5 -106.5t-26.5 -131t-7 -144.5z" />
    <glyph glyph-name="p" unicode="p" horiz-adv-x="1259" 
d="M23 -428l59 14q53 12 71.5 32t18.5 67v944q0 111 -10 152.5t-47 56.5l-80 30v50l362 137h54l-11 -170l19 -4q88 162 309 161q172 0 298 -131t126 -376q0 -248 -152.5 -405t-373.5 -157q-115 0 -213 45q29 -88 28 -260v-73q0 -47 20.5 -67.5t76.5 -31.5l88 -14v-90
l-328 10l-315 -10v90zM477 193q0 -117 141 -117q125 0 195 103.5t70 314.5q0 190 -71 286.5t-196 96.5q-139 0 -139 -162v-522z" />
    <glyph glyph-name="q" unicode="q" horiz-adv-x="1232" 
d="M68 500q0 227 138 384.5t345 157.5q172 0 285 -94q61 94 223 94l49 -10q-18 -182 -18 -457v-890q0 -47 18 -66.5t72 -32.5l59 -14v-90l-311 10l-328 -10v90l88 14q55 10 75.5 31t20.5 68v157q0 203 17 287l-19 4q-98 -164 -313 -164q-170 0 -285.5 144.5t-115.5 386.5z
M385 532q0 -162 66.5 -258t185.5 -96q49 0 80 10.5t44 34t16 46t3 61.5v383q0 129 -26.5 181t-116.5 52q-252 0 -252 -414z" />
    <glyph glyph-name="r" unicode="r" horiz-adv-x="946" 
d="M53 868v50l365 137h59l-10 -230l16 -4q141 213 279 213q88 0 131 -46t43 -120q0 -115 -125 -184h-25q-111 80 -188 94l-100 -39v-557q0 -47 20.5 -67.5t73.5 -30.5l88 -14v-80l-328 10l-297 -10v80l41 14q41 14 57.5 22.5t28 27t11.5 48.5v447q0 113 -10.5 153.5
t-49.5 55.5z" />
    <glyph glyph-name="s" unicode="s" horiz-adv-x="948" 
d="M88 725q0 156 122 236.5t288 80.5q215 0 342 -36l-21 -291h-106l-51 166q-8 27 -45 46t-82 19q-154 0 -154 -131q0 -59 51 -103t125 -75t146.5 -66.5t124 -102.5t51.5 -163q0 -160 -122 -248t-325 -88q-86 0 -171 14.5t-126 28.5l-43 15v317h109q27 -88 59 -162
q51 -117 186 -116q68 0 114 35.5t46 105.5q0 63 -53 107t-129 75t-152.5 67t-130 104.5t-53.5 164.5z" />
    <glyph glyph-name="t" unicode="t" horiz-adv-x="835" 
d="M6 874v113q182 12 256 80t113 225h112v-301h306l-13 -147l-293 30v-567q0 -172 148 -172q37 0 85 20.5t71 45.5l32 -74q-41 -72 -135 -115t-190 -43q-145 0 -230.5 74t-85.5 205v626h-176z" />
    <glyph glyph-name="u" unicode="u" horiz-adv-x="1277" 
d="M39 920v79l209 7l229 16q-10 -109 -10 -633q0 -127 46 -179t134 -52q55 0 97 34.5t42 104.5v498q0 53 -16 77.5t-68 34.5l-59 13v79l229 9l230 14q-10 -274 -10 -643q0 -145 8 -204.5t147 -63.5v-78l-381 -49h-73l6 149l-19 2q-35 -57 -112.5 -111.5t-184.5 -54.5
q-156 0 -239.5 92.5t-83.5 257.5l2 476q0 49 -16.5 73.5t-65.5 38.5z" />
    <glyph glyph-name="v" unicode="v" horiz-adv-x="1136" 
d="M-20 938v80l333 -10l289 10v-80l-70 -14q-55 -12 -73 -35q-10 -12 -10 -29q0 -15 8 -35l223 -579q119 293 217 579q6 16 6 30q0 20 -13 32q-22 20 -81 37l-47 14v80l192 -10l203 10v-80l-41 -14q-49 -18 -66.5 -37t-37.5 -66l-346 -833h-199q-203 504 -352 837
q-23 47 -38.5 65.5t-56.5 33.5z" />
    <glyph glyph-name="w" unicode="w" horiz-adv-x="1626" 
d="M-14 938v80l319 -10l283 10v-80l-70 -14q-53 -12 -71 -34q-10 -13 -10 -33q0 -14 5 -32l127 -450q219 608 224 620h190l270 -641q84 319 119 471q4 15 4 27q0 23 -13 36q-19 19 -77 36l-53 14v80l209 -10l200 10v-80l-38 -14q-51 -18 -71 -37t-36 -66
q-49 -135 -114.5 -343t-106.5 -349l-41 -141h-145q-242 588 -302 725q-94 -256 -178 -490.5t-82 -234.5h-153q-150 553 -254 837q-18 45 -35.5 64.5t-58.5 34.5z" />
    <glyph glyph-name="x" unicode="x" horiz-adv-x="1173" 
d="M-6 -10v80l57 12q109 25 156 86q94 127 237 321l-217 336q-31 41 -59.5 60.5t-83.5 38.5l-41 14v80l303 -10l316 10v-80l-70 -14q-31 -6 -40 -21.5t-3 -33t22 -44.5l117 -196l135 205q20 33 20 54q0 34 -48 42l-64 8v80l230 -10l190 10v-80l-41 -14q-104 -37 -158 -99
q-92 -123 -215 -272l228 -371q31 -43 61.5 -64.5t83.5 -33.5l55 -12v-82l-297 10l-315 -10v80l78 16q29 6 28.5 31t-28.5 69l-129 215q-25 -33 -64 -94t-65 -106l-27 -43q-12 -16 -12 -30q0 -33 74 -48l49 -10v-80l-269 10z" />
    <glyph glyph-name="y" unicode="y" horiz-adv-x="1144" 
d="M-18 938v80l309 -10l315 10v-80l-59 -14q-53 -12 -70 -36q-9 -13 -9 -31q0 -16 7 -36l199 -575q96 248 217 579q6 16 6 30q0 20 -13 32q-22 20 -79 37l-49 14v80l207 -10l202 10v-80l-41 -14q-47 -16 -66.5 -38t-39.5 -71l-567 -1374l-236 20l338 527h-123q2 0 -50 143
t-129 352t-132 342q-20 51 -35.5 66.5t-60.5 32.5z" />
    <glyph glyph-name="z" unicode="z" horiz-adv-x="1105" 
d="M45 -6v86l612 842h-227q-82 0 -126 -21.5t-58.5 -50.5t-36.5 -105l-21 -63l-88 4v342q94 -6 174 -6h752l10 -72l-612 -852h311q80 0 125 50.5t90 216.5h90l-34 -375q-129 10 -648 10q-215 0 -313 -6z" />
    <glyph glyph-name="braceleft" unicode="{" horiz-adv-x="780" 
d="M10 620.5q0 38.5 23.5 64.5t62.5 26q41 0 144 -52q31 23 39 50.5t8 85.5q0 70 -21.5 243.5t-21.5 210.5q0 168 100 246t358 78l17 -94h-14q-76 0 -100.5 -48.5t-24.5 -142.5q0 -25 2 -81t2 -85v-186q0 -96 -63.5 -186.5t-190.5 -131.5q129 -35 191.5 -126t62.5 -187v-186
q0 -29 -2 -85.5t-2 -82.5q0 -92 24.5 -140.5t100.5 -48.5h14l-17 -94q-258 0 -358 78t-100 246q0 37 21.5 211t21.5 243q0 59 -7.5 86t-37.5 50q-102 -51 -146 -52q-39 0 -62.5 26t-23.5 64.5z" />
    <glyph glyph-name="bar" unicode="|" horiz-adv-x="462" 
d="M168 -403v2068h127v-2068h-127z" />
    <glyph glyph-name="braceright" unicode="}" horiz-adv-x="778" 
d="M61 -238h15q76 0 100.5 48.5t24.5 140.5q0 27 -2 83t-2 85v186q0 96 62.5 187.5t191.5 125.5q-127 41 -190.5 131.5t-63.5 186.5v186q0 29 2 85.5t2 80.5q0 94 -24.5 142.5t-100.5 48.5h-15l17 94q258 0 358.5 -78t100.5 -246q0 -37 -21.5 -211t-21.5 -243q0 -57 8 -85
t39 -51q102 51 143 52q39 0 62.5 -26t23.5 -64.5t-23.5 -64.5t-62.5 -26q-43 0 -145 52q-31 -23 -38 -49.5t-7 -86.5q0 -70 21.5 -243.5t21.5 -210.5q0 -168 -100.5 -246t-358.5 -78z" />
    <glyph glyph-name="asciitilde" unicode="~" 
d="M147 561q0 129 74 207t172 78q90 0 233.5 -45t215.5 -45q106 0 141 110h98q0 -129 -73.5 -206.5t-171.5 -77.5q-86 0 -232.5 45t-216.5 45q-106 0 -141 -111h-99z" />
    <glyph glyph-name="uni00A0" unicode="&#xa0;" horiz-adv-x="512" 
 />
    <glyph glyph-name="exclamdown" unicode="&#xa1;" horiz-adv-x="722" 
d="M133 -225q0 106 39 205.5t83 230.5t52 303h109q8 -172 52 -303t83 -230.5t39 -205.5q0 -96 -61.5 -162t-166 -66t-167 66t-62.5 162zM158 834q0 86 61.5 147t147.5 61q88 0 149.5 -61t61.5 -147t-61.5 -147.5t-149.5 -61.5q-86 0 -147.5 61.5t-61.5 147.5z" />
    <glyph glyph-name="cent" unicode="&#xa2;" 
d="M150 510q0 223 151.5 377.5t362.5 154.5q90 0 165 -20l129 266l82 -33l-129 -264q119 -66 119 -170q0 -147 -194 -176l-80 23l-201 -418q80 -94 217 -94q78 0 140.5 30.5t91.5 73.5l57 -63q-129 -227 -434 -228q-92 0 -187 41l-147 -305l-82 31l151 317
q-212 152 -212 457zM467 545q0 -119 35 -205l243 506q0 61 -14 80.5t-74 19.5q-190 0 -190 -401z" />
    <glyph glyph-name="sterling" unicode="&#xa3;" 
d="M31 461v100h262v207h-262v100h266v72q0 150 52 266.5t141.5 184t192.5 101.5t218 34q82 0 166 -24.5t84 -71.5q0 -82 -71.5 -164t-131.5 -82q-8 0 -37.5 47t-73.5 95t-89 48q-76 0 -107 -96q-20 -74 -20 -340v-70h354v-100h-352q0 -72 -13 -207h365v-100h-377
q-12 -66 -65.5 -143.5t-137.5 -124.5q94 47 226 47q53 0 137 -17.5t145.5 -32t132 -2t119.5 61.5l49 -53q-14 -43 -36.5 -83t-62.5 -91.5t-104.5 -82t-142.5 -30.5q-96 0 -284.5 88t-245.5 100q-39 -129 -160 -129q-92 0 -117 74q-25 72 35 123q43 37 113 37q43 0 80 -6
q8 29 12 264h-260z" />
    <glyph glyph-name="currency" unicode="&#xa4;" 
d="M80 297l160 158q-96 121 -96.5 280.5t96.5 278.5l-160 160l82 86l160 -162q123 96 282 96q158 0 281 -96l159 162l82 -86l-159 -160q96 -119 96 -279t-96 -280l159 -158l-82 -86l-159 162q-123 -96 -281 -97q-160 0 -282 97l-160 -162zM266 735.5q0 -149.5 95.5 -251
t241 -101.5t241.5 101.5t96 251t-96 250.5t-241.5 101t-241 -101t-95.5 -250.5z" />
    <glyph glyph-name="yen" unicode="&#xa5;" 
d="M-80 1337v107l303 -10l385 10v-94l-100 -21q-111 -23 -72 -98l281 -549l254 543q39 82 -72 104l-94 21v94l266 -10l213 10v-105l-45 -10q-39 -10 -60.5 -30.5t-48.5 -65.5l-202 -365h233v-100h-282l-99 -207h381v-100h-383v-258q0 -47 19.5 -67.5t70.5 -31.5l99 -20v-94
l-355 10l-352 -10v94l96 20q53 10 71.5 31t18.5 68v258h-395v100h389l-110 207h-279v100h230l-205 363q-45 84 -115 98z" />
    <glyph glyph-name="brokenbar" unicode="&#xa6;" horiz-adv-x="475" 
d="M174 -403v921h127v-921h-127zM174 733v932h127v-932h-127z" />
    <glyph glyph-name="section" unicode="&#xa7;" 
d="M29 4l108 39q35 -115 131.5 -181.5t206.5 -66.5q150 0 256.5 109.5t106.5 322.5q0 272 -97.5 569.5t-195.5 434.5l86 37q78 -88 119 -136.5t135 -176.5t147 -228t99.5 -238.5t46.5 -261.5q0 -291 -181.5 -454.5t-435.5 -163.5q-143 0 -252.5 45t-167 112.5t-85 128
t-27.5 109.5zM29 1163q0 291 181 455t435 164q143 0 253 -45t167 -113t85 -128t28 -110l-109 -38q-35 115 -131 181t-207 66q-150 0 -256 -112.5t-106 -327.5q0 -272 96 -564t197 -431l-87 -37q-78 88 -118.5 136t-135 176t-147.5 228.5t-99 238.5t-46 261z" />
    <glyph glyph-name="dieresis" unicode="&#xa8;" horiz-adv-x="860" 
d="M53 1317q0 72 48.5 121t119.5 49q74 0 123 -49t49 -121t-49 -121t-123 -49q-72 0 -120 49t-48 121zM469 1317q0 72 48 121t120 49t121 -49t49 -121t-49 -121t-121 -49t-120 49t-48 121z" />
    <glyph glyph-name="copyright" unicode="&#xa9;" horiz-adv-x="1933" 
d="M88 721q0 369 253 621.5t623.5 252.5t625.5 -252.5t255 -621.5t-254 -621t-626 -252q-371 0 -624 252t-253 621zM238 721q0 -313 209.5 -525t517.5 -212q309 0 520 212t211 525t-212 526t-519.5 213t-517 -213t-209.5 -526zM485 702q0 233 146.5 388t378.5 155
q174 0 259 -64.5t85 -131.5q0 -66 -47 -109t-119 -51l-49 41v123q0 61 -29 78.5t-100 17.5q-133 0 -219 -109.5t-86 -302.5q0 -205 96 -300t248 -95q176 0 270 143l14 25l56 -78q-131 -240 -428 -239q-201 0 -338.5 129.5t-137.5 379.5z" />
    <glyph glyph-name="ordfeminine" unicode="&#xaa;" horiz-adv-x="909" 
d="M94 879q0 109 111.5 172t304.5 82v47q0 123 -25 157q-31 43 -120 43q-63 0 -64 -45v-131l-51 -33q-66 10 -103.5 42t-37.5 83q0 68 88 117t233 49q133 0 206 -64.5t73 -187.5l-7 -323q-4 -94 56 -94q41 0 80 26l22 -47q-23 -39 -73 -66.5t-105 -27.5q-131 0 -160 106
q-18 -37 -73.5 -71.5t-126.5 -34.5q-111 0 -169.5 58.5t-58.5 142.5zM289 909q0 -49 32.5 -77.5t77.5 -28.5q111 0 111 117v151q-221 -33 -221 -162z" />
    <glyph glyph-name="guillemotleft" unicode="&#xab;" horiz-adv-x="1177" 
d="M72 727l487 578h66l-189 -566v-24l189 -565h-66zM512 727l487 578h66l-188 -566v-24l188 -565h-66z" />
    <glyph glyph-name="logicalnot" unicode="&#xac;" 
d="M131 854v121h946v-483h-123v362h-823z" />
    <glyph glyph-name="uni00AD" unicode="&#xad;" horiz-adv-x="737" 
 />
    <glyph glyph-name="registered" unicode="&#xae;" horiz-adv-x="1933" 
d="M88 721q0 369 253 621.5t623.5 252.5t625.5 -252.5t255 -621.5t-254 -621t-626 -252q-371 0 -624 252t-253 621zM238 721q0 -313 209.5 -525t517 -212t514.5 206q-133 0 -208 46.5t-136 138.5q-49 76 -90 140.5t-60.5 95t-28.5 42.5q-23 0 -61.5 2t-58.5 2
q8 -145 12 -307q2 -45 59 -57l82 -17v-67l-241 6l-252 -6v67l84 17q61 12 61 57q0 10 1 61.5t2 133.5t1 168l-4 362q-6 47 -61 60l-84 16v68l331 -5q98 12 213 13q121 0 213.5 -61.5t92.5 -207.5q0 -82 -52.5 -149.5t-142.5 -110.5l147 -215q63 -96 134 -161q51 -41 118 -52
q145 195 146 451q0 313 -212 526t-519.5 213t-517 -213t-209.5 -526zM842 743q55 -10 149 -10q49 0 98.5 54.5t49.5 156.5q0 96 -61.5 147.5t-157.5 51.5h-64q-14 0 -14 -10v-390z" />
    <glyph glyph-name="macron" unicode="&#xaf;" horiz-adv-x="1095" 
d="M221 1186v155h653v-155h-653z" />
    <glyph glyph-name="degree" unicode="&#xb0;" horiz-adv-x="878" 
d="M74 1104q0 160 105.5 263t259 103t260 -103t106.5 -263q0 -162 -106.5 -265.5t-260 -103.5t-259 103.5t-105.5 265.5zM213 1103.5q0 -102.5 64.5 -173t160.5 -70.5q98 0 163 69.5t65 174.5q0 102 -64.5 172t-163.5 70q-96 0 -160.5 -70t-64.5 -172.5z" />
    <glyph glyph-name="plusminus" unicode="&#xb1;" 
d="M100 0v143h1008v-143h-1008zM100 672v143h422v440h164v-440h422v-143h-422v-443h-164v443h-422z" />
    <glyph glyph-name="uni00B2" unicode="&#xb2;" horiz-adv-x="768" 
d="M63 625v98q213 176 304 268q72 76 92 124t20 104q0 68 -41 116.5t-114 48.5q-49 0 -50 -28v-150l-53 -41q-63 2 -110.5 39t-47.5 88q0 76 88.5 129.5t235.5 53.5q127 0 217 -61.5t90 -164.5q0 -84 -40 -139t-148 -135q-37 -27 -74 -54.5t-62.5 -49t-47 -38t-34 -26.5
t-14.5 -12l422 8l-18 -180q-186 2 -365 2h-250z" />
    <glyph glyph-name="uni00B3" unicode="&#xb3;" horiz-adv-x="768" 
d="M55 756q0 47 48.5 86t109.5 39l55 -33v-148q0 -8 60 -8q80 0 124 47t44 113q0 68 -48.5 115t-136.5 47l-104 -4l-8 96q39 0 60.5 2t63.5 9t64.5 20.5t42 40t19.5 65.5q0 61 -43.5 90t-102.5 29q-98 0 -194 -64l-39 66q49 47 134 79t173 32q113 0 193.5 -47.5t80.5 -151.5
q0 -129 -166 -172v-8q92 -10 149.5 -64.5t57.5 -140.5q0 -131 -111.5 -207t-263.5 -76q-131 0 -196.5 41t-65.5 107z" />
    <glyph glyph-name="acute" unicode="&#xb4;" horiz-adv-x="860" 
d="M201 1174l110 374h389l-399 -387z" />
    <glyph glyph-name="mu" unicode="&#xb5;" horiz-adv-x="1277" 
d="M39 920v79l209 7l229 16q-10 -109 -10 -633q0 -127 46 -179t134 -52q55 0 97 34.5t42 104.5v498q0 53 -16 77.5t-68 34.5l-59 13v79l229 9l230 14q-10 -274 -10 -643q0 -145 8 -204.5t147 -63.5v-78l-381 -49h-73l6 149l-19 2q-102 -166 -276 -166q-55 0 -113.5 20.5
t-85.5 57.5l12 -555h-211q47 330 54 811v16l2 476q0 49 -16.5 73.5t-65.5 38.5z" />
    <glyph glyph-name="mu" unicode="&#x3bc;" horiz-adv-x="1277" 
d="M39 920v79l209 7l229 16q-10 -109 -10 -633q0 -127 46 -179t134 -52q55 0 97 34.5t42 104.5v498q0 53 -16 77.5t-68 34.5l-59 13v79l229 9l230 14q-10 -274 -10 -643q0 -145 8 -204.5t147 -63.5v-78l-381 -49h-73l6 149l-19 2q-102 -166 -276 -166q-55 0 -113.5 20.5
t-85.5 57.5l12 -555h-211q47 330 54 811v16l2 476q0 49 -16.5 73.5t-65.5 38.5z" />
    <glyph glyph-name="paragraph" unicode="&#xb6;" horiz-adv-x="1482" 
d="M70 932q0 217 152.5 359.5t359.5 142.5h686v-1837h-113v1728h-254q-90 0 -90 -80v-1401q0 -162 -81 -266t-255 -104q-115 0 -203 69.5t-88 202.5q0 86 60.5 148.5t144.5 62.5q86 0 142.5 -54.5t56.5 -138.5q0 -49 -26.5 -96t-67.5 -63l2 -19q199 0 198 269v548h-86
q-276 0 -407 150t-131 379z" />
    <glyph glyph-name="periodcentered" unicode="&#xb7;" horiz-adv-x="550" 
d="M96 745q0 72 53.5 125.5t126.5 53.5q72 0 125.5 -53.5t53.5 -125.5q0 -74 -53.5 -126t-125.5 -52q-74 0 -127 52t-53 126z" />
    <glyph glyph-name="cedilla" unicode="&#xb8;" horiz-adv-x="860" 
d="M150 -541l14 74q70 -31 117 -31q68 0 109.5 31t41.5 92q0 47 -27.5 87t-71.5 63.5t-76 37t-67 21.5l277 223l68 -16l-134 -154q43 0 89.5 -10t98.5 -33.5t86 -74t34 -119.5q0 -125 -94.5 -186.5t-227.5 -61.5q-143 0 -237 57z" />
    <glyph glyph-name="uni00B9" unicode="&#xb9;" horiz-adv-x="768" 
d="M137 1264v94l256 94h129v-702q0 -16 17 -19l131 -22v-84l-258 6l-267 -6v86l150 20q16 2 16 19v550z" />
    <glyph glyph-name="ordmasculine" unicode="&#xba;" horiz-adv-x="897" 
d="M76 1065q0 176 101.5 286.5t279.5 110.5q152 0 258 -102.5t106 -282.5t-104.5 -289.5t-276.5 -109.5q-147 0 -255.5 100.5t-108.5 286.5zM283 1087q0 -162 49 -247.5t125 -85.5q162 0 161 301q0 160 -50 245.5t-124 85.5q-53 0 -86.5 -26.5t-49 -75.5t-20.5 -93.5
t-5 -103.5z" />
    <glyph glyph-name="guillemotright" unicode="&#xbb;" horiz-adv-x="1177" 
d="M113 150l188 565v24l-188 566h65l488 -578l-488 -577h-65zM553 150l188 565v24l-188 566h65l488 -578l-488 -577h-65z" />
    <glyph glyph-name="onequarter" unicode="&#xbc;" horiz-adv-x="2088" 
d="M166 1264v94l256 94h129v-702q0 -16 16 -19l131 -22v-84l-258 6l-266 -6v86l150 20q16 2 16 19v550zM385 43l1274 1436l65 -62l-1271 -1435zM1206 240v96q51 111 377 553l182 -27q-360 -424 -419 -526h243q0 113 -14 213l219 4v-217h119v-96h-119v-119q0 -27 21 -33
l86 -20v-74l-213 6l-209 -6v76l86 18q27 6 26 33l-2 119h-383z" />
    <glyph glyph-name="onehalf" unicode="&#xbd;" horiz-adv-x="2088" 
d="M166 1264v94l256 94h129v-702q0 -16 16 -19l131 -22v-84l-258 6l-266 -6v86l150 20q16 2 16 19v550zM385 43l1274 1436l65 -62l-1271 -1435zM1300 0v98q213 176 304 269q72 76 92 124t20 103q0 68 -41 117t-114 49q-49 0 -50 -29v-149l-53 -41q-63 2 -110.5 38.5
t-47.5 88.5q0 76 88.5 129t235.5 53q127 0 217 -61.5t90 -163.5q0 -84 -40 -139.5t-148 -135.5q-37 -27 -74 -54.5t-62.5 -49t-47 -37.5t-34 -26.5t-14.5 -12.5l422 8l-18 -180q-186 2 -365 2h-250z" />
    <glyph glyph-name="threequarters" unicode="&#xbe;" horiz-adv-x="2088" 
d="M180 756q0 47 48 86t110 39l55 -33v-148q0 -8 60 -8q80 0 124 47t44 113q0 68 -48.5 115t-136.5 47l-104 -4l-8 96q39 0 60.5 2t63 9t64.5 20.5t42 40t19 65.5q0 61 -43 90t-102 29q-100 0 -195 -64l-38 66q49 47 134 79t173 32q113 0 193.5 -47.5t80.5 -151.5
q0 -129 -166 -172v-8q92 -10 149.5 -64.5t57.5 -140.5q0 -131 -111.5 -207t-263.5 -76q-131 0 -196.5 41t-65.5 107zM385 43l1274 1436l65 -62l-1271 -1435zM1204 240v96q51 111 377 553l182 -27q-360 -424 -420 -526h244q0 113 -14 213l219 4v-217h119v-96h-119v-119
q0 -27 20 -33l86 -20v-74l-212 6l-209 -6v76l86 18q27 6 26 33l-2 119h-383z" />
    <glyph glyph-name="questiondown" unicode="&#xbf;" horiz-adv-x="964" 
d="M72 -162q0 84 43 157t103.5 124t121.5 94t104 86t43 82q0 14 -3 28.5t-9 31t-8 24.5l55 18q66 -25 109 -76t43 -79q0 -61 -39 -138t-87 -136.5t-87 -134.5t-39 -136q0 -174 121 -174q43 0 57 13t14 40q0 8 -1 24.5t-1 26.5l-6 189l62 35q92 -4 163.5 -54.5t71.5 -115.5
q0 -94 -96 -169t-315 -75q-184 0 -302 82.5t-118 232.5zM297 809q0 86 61.5 147.5t147.5 61.5q88 0 149.5 -61.5t61.5 -147.5t-61.5 -147.5t-149.5 -61.5q-86 0 -147.5 61.5t-61.5 147.5z" />
    <glyph glyph-name="Agrave" unicode="&#xc0;" horiz-adv-x="1589" 
d="M-33 -10v94l96 20q47 8 69 30t40 67l471 1247l289 39q217 -592 491 -1284q20 -49 40 -69.5t65 -29.5l96 -20v-94l-377 10l-375 -10v94l107 20q57 12 77.5 34t4.5 65l-133 372h-488q-88 -231 -123 -372q-31 -82 78 -99l137 -20v-94l-362 10zM475 682h420l-211 588z
M539 1987h389l110 -375l-100 -13z" />
    <glyph glyph-name="Aacute" unicode="&#xc1;" horiz-adv-x="1589" 
d="M-33 -10v94l96 20q47 8 69 30t40 67l471 1247l289 39q217 -592 491 -1284q20 -49 40 -69.5t65 -29.5l96 -20v-94l-377 10l-375 -10v94l107 20q57 12 77.5 34t4.5 65l-133 372h-488q-88 -231 -123 -372q-31 -82 78 -99l137 -20v-94l-362 10zM475 682h420l-211 588z
M559 1612l111 375h389l-400 -388z" />
    <glyph glyph-name="Acircumflex" unicode="&#xc2;" horiz-adv-x="1589" 
d="M-33 -10v94l96 20q47 8 69 30t40 67l471 1247l289 39q217 -592 491 -1284q20 -49 40 -69.5t65 -29.5l96 -20v-94l-377 10l-375 -10v94l107 20q57 12 77.5 34t4.5 65l-133 372h-488q-88 -231 -123 -372q-31 -82 78 -99l137 -20v-94l-362 10zM442 1602l293 397h123
l297 -397l-47 -41l-307 178h-4l-299 -176zM475 682h420l-211 588z" />
    <glyph glyph-name="Atilde" unicode="&#xc3;" horiz-adv-x="1589" 
d="M-33 -10v94l96 20q47 8 69 30t40 67l471 1247l289 39q217 -592 491 -1284q20 -49 40 -69.5t65 -29.5l96 -20v-94l-377 10l-375 -10v94l107 20q57 12 77.5 34t4.5 65l-133 372h-488q-88 -231 -123 -372q-31 -82 78 -99l137 -20v-94l-362 10zM432 1638q23 96 91.5 184.5
t162.5 88.5q49 0 159.5 -46t133.5 -46q49 0 68.5 12t50.5 67l67 -24q-27 -100 -90 -185t-162 -85q-51 0 -150 44t-128 44q-49 0 -78 -13.5t-57 -64.5zM475 682h420l-211 588z" />
    <glyph glyph-name="Adieresis" unicode="&#xc4;" horiz-adv-x="1589" 
d="M-33 -10v94l96 20q47 8 69 30t40 67l471 1247l289 39q217 -592 491 -1284q20 -49 40 -69.5t65 -29.5l96 -20v-94l-377 10l-375 -10v94l107 20q57 12 77.5 34t4.5 65l-133 372h-488q-88 -231 -123 -372q-31 -82 78 -99l137 -20v-94l-362 10zM422 1755q0 72 48 121t120 49
q74 0 123 -49t49 -121t-49 -121t-123 -49q-72 0 -120 49t-48 121zM475 682h420l-211 588zM838 1755q0 72 48 121t119.5 49t121 -49t49.5 -121t-49.5 -121t-121 -49t-119.5 49t-48 121z" />
    <glyph glyph-name="Aring" unicode="&#xc5;" horiz-adv-x="1593" 
d="M-31 -10v94l97 20q47 8 68.5 30t39.5 67q102 264 268 706.5t168 446.5q-137 86 -137 258q0 131 91 219t222 88q133 0 223.5 -88t90.5 -219q0 -158 -121 -248q172 -469 446 -1161q20 -49 40 -69.5t65 -29.5l96 -20v-94l-377 10l-375 -10v94l107 20q57 12 77.5 34t4.5 65
l-133 372h-488q-88 -231 -123 -372q-31 -82 78 -99l138 -20v-94l-363 10zM477 682h420l-211 588zM586 1612q0 -92 54 -152.5t146.5 -60.5t146.5 60.5t54 152.5t-54 151.5t-146.5 59.5t-146.5 -59.5t-54 -151.5z" />
    <glyph glyph-name="AE" unicode="&#xc6;" horiz-adv-x="2148" 
d="M-61 -10l4 94l96 20q102 20 145 97l598 1136l-106 13v94l461 -10h546q51 0 128 6t131 10l51 6q-16 -125 -35 -416h-100l-23 80q-31 106 -62.5 153.5t-86.5 47.5h-363q-23 0 -29 -7t-6 -26v-493q106 0 221 6q47 2 68.5 24.5t36.5 79.5l26 113h99l-10 -283l10 -270h-99
l-26 113q-14 57 -36 79.5t-69 24.5l-221 6v-444q0 -129 142 -129h215q86 0 144 31.5t109 132.5l78 155h97q-35 -297 -48 -444q-285 10 -401 10h-487l-377 -10v94l104 20q55 10 76 32t21 67q2 129 4 370h-443l-176 -372q-18 -43 -4 -64.5t68 -32.5l112 -20l-4 -94l-356 10z
M573 682h392v33l-9 551q0 51 -36 57l-17 2z" />
    <glyph glyph-name="Ccedilla" unicode="&#xc7;" horiz-adv-x="1538" 
d="M90 711q0 328 215 540.5t565 212.5q199 0 412 -57l154 27l-43 -433h-101l-35 103q-84 252 -366 252q-223 0 -341 -170t-118 -418q0 -299 148.5 -472t410.5 -173q98 0 205 27l137 323h107q-10 -172 -19 -399q-256 -104 -557 -105q-8 0 -25.5 1t-25.5 1l-72 -84
q43 0 89.5 -10t98.5 -33.5t86 -74t34 -119.5q0 -125 -94.5 -186.5t-227.5 -61.5q-143 0 -238 57l15 74q70 -31 117 -31q68 0 109.5 31t41.5 92q0 47 -27.5 87t-71.5 63.5t-76 37t-67 21.5l181 148q-268 41 -444.5 224t-176.5 505z" />
    <glyph glyph-name="Egrave" unicode="&#xc8;" horiz-adv-x="1466" 
d="M78 -10v94l104 20q55 10 76 32t21 67q6 174 6 512l-6 514q-4 51 -22.5 70.5t-74.5 29.5l-104 21v94l338 -10h585q51 0 128 6l128 10l54 6q-14 -125 -35 -416h-100l-23 80q-31 106 -62.5 153.5t-86.5 47.5h-361q-23 0 -29 -7t-6 -26v-493q104 0 219 6q47 4 70 26.5
t35 77.5l26 113h99l-10 -283l10 -270h-99l-26 113q-14 57 -37 79.5t-68 24.5l-219 6v-444q0 -129 144 -129h211q86 0 144 31.5t110 132.5l77 155h97q-35 -297 -48 -444q-283 10 -399 10h-528zM471 1987h389l111 -375l-101 -13z" />
    <glyph glyph-name="Eacute" unicode="&#xc9;" horiz-adv-x="1466" 
d="M78 -10v94l104 20q55 10 76 32t21 67q6 174 6 512l-6 514q-4 51 -22.5 70.5t-74.5 29.5l-104 21v94l338 -10h585q51 0 128 6l128 10l54 6q-14 -125 -35 -416h-100l-23 80q-31 106 -62.5 153.5t-86.5 47.5h-361q-23 0 -29 -7t-6 -26v-493q104 0 219 6q47 4 70 26.5
t35 77.5l26 113h99l-10 -283l10 -270h-99l-26 113q-14 57 -37 79.5t-68 24.5l-219 6v-444q0 -129 144 -129h211q86 0 144 31.5t110 132.5l77 155h97q-35 -297 -48 -444q-283 10 -399 10h-528zM590 1612l110 375h390l-400 -388z" />
    <glyph glyph-name="Ecircumflex" unicode="&#xca;" horiz-adv-x="1466" 
d="M78 -10v94l104 20q55 10 76 32t21 67q6 174 6 512l-6 514q-4 51 -22.5 70.5t-74.5 29.5l-104 21v94l338 -10h585q51 0 128 6l128 10l54 6q-14 -125 -35 -416h-100l-23 80q-31 106 -62.5 153.5t-86.5 47.5h-361q-23 0 -29 -7t-6 -26v-493q104 0 219 6q47 4 70 26.5
t35 77.5l26 113h99l-10 -283l10 -270h-99l-26 113q-14 57 -37 79.5t-68 24.5l-219 6v-444q0 -129 144 -129h211q86 0 144 31.5t110 132.5l77 155h97q-35 -297 -48 -444q-283 10 -399 10h-528zM375 1602l293 397h123l296 -397l-47 -41l-307 178h-4l-299 -176z" />
    <glyph glyph-name="Edieresis" unicode="&#xcb;" horiz-adv-x="1466" 
d="M78 -10v94l104 20q55 10 76 32t21 67q6 174 6 512l-6 514q-4 51 -22.5 70.5t-74.5 29.5l-104 21v94l338 -10h585q51 0 128 6l128 10l54 6q-14 -125 -35 -416h-100l-23 80q-31 106 -62.5 153.5t-86.5 47.5h-361q-23 0 -29 -7t-6 -26v-493q104 0 219 6q47 4 70 26.5
t35 77.5l26 113h99l-10 -283l10 -270h-99l-26 113q-14 57 -37 79.5t-68 24.5l-219 6v-444q0 -129 144 -129h211q86 0 144 31.5t110 132.5l77 155h97q-35 -297 -48 -444q-283 10 -399 10h-528zM354 1755q0 72 48.5 121t119.5 49q76 0 124 -49t48 -121t-48 -121t-124 -49
q-72 0 -120 49t-48 121zM770 1755q0 72 48 121t120 49t121 -49t49 -121t-49 -121t-121 -49t-120 49t-48 121z" />
    <glyph glyph-name="Igrave" unicode="&#xcc;" horiz-adv-x="892" 
d="M78 -10v94l104 20q53 10 73.5 32t23.5 67q6 174 6 512l-6 514q-4 51 -22.5 70.5t-74.5 29.5l-104 21v94l366 -10l371 10v-94l-104 -21q-55 -10 -74 -29.5t-23 -70.5q-6 -176 -6 -514l6 -512q2 -45 22.5 -66.5t74.5 -32.5l104 -20v-94l-371 10zM197 1987h389l110 -375
l-100 -13z" />
    <glyph glyph-name="Iacute" unicode="&#xcd;" horiz-adv-x="892" 
d="M78 -10v94l104 20q53 10 73.5 32t23.5 67q6 174 6 512l-6 514q-4 51 -22.5 70.5t-74.5 29.5l-104 21v94l366 -10l371 10v-94l-104 -21q-55 -10 -74 -29.5t-23 -70.5q-6 -176 -6 -514l6 -512q2 -45 22.5 -66.5t74.5 -32.5l104 -20v-94l-371 10zM197 1612l110 375h389
l-399 -388z" />
    <glyph glyph-name="Icircumflex" unicode="&#xce;" horiz-adv-x="892" 
d="M78 -10v94l104 20q53 10 73.5 32t23.5 67q6 174 6 512l-6 514q-4 51 -22.5 70.5t-74.5 29.5l-104 21v94l366 -10l371 10v-94l-104 -21q-55 -10 -74 -29.5t-23 -70.5q-6 -176 -6 -514l6 -512q2 -45 22.5 -66.5t74.5 -32.5l104 -20v-94l-371 10zM90 1602l293 397h123
l297 -397l-47 -41l-307 178h-5l-299 -176z" />
    <glyph glyph-name="Idieresis" unicode="&#xcf;" horiz-adv-x="892" 
d="M70 1755q0 72 48 121t120 49q74 0 123 -49t49 -121t-49.5 -121t-122.5 -49q-72 0 -120 49t-48 121zM78 -10v94l104 20q53 10 73.5 32t23.5 67q6 174 6 512l-6 514q-4 51 -22.5 70.5t-74.5 29.5l-104 21v94l366 -10l371 10v-94l-104 -21q-55 -10 -74 -29.5t-23 -70.5
q-6 -176 -6 -514l6 -512q2 -45 22.5 -66.5t74.5 -32.5l104 -20v-94l-371 10zM485 1755q0 72 48.5 121t120 49t120.5 -49t49 -121t-49 -121t-120.5 -49t-120 49t-48.5 121z" />
    <glyph glyph-name="Eth" unicode="&#xd0;" horiz-adv-x="1769" 
d="M78 686v111h217l-6 432q-4 51 -22.5 70.5t-73.5 29.5l-105 21v94l299 -10q238 20 555 20q354 0 544.5 -208t190.5 -513q0 -336 -204.5 -542.5t-604.5 -206.5q-244 0 -481 16l-299 -10v94l105 20q53 10 73.5 32t22.5 67q6 166 6 483h-217zM618 686l3 -442
q0 -104 40.5 -130t192.5 -26q76 0 136.5 12.5t126 50t108.5 101t71.5 175.5t28.5 263q0 330 -116.5 490.5t-407.5 160.5q-37 0 -82 1t-66 1q-23 0 -29 -7t-6 -25v-514h365v-111h-365z" />
    <glyph glyph-name="Ntilde" unicode="&#xd1;" horiz-adv-x="1824" 
d="M68 -10v94l104 20q55 10 74.5 31t21.5 68q20 840 21 1026q0 47 -20.5 68.5t-73.5 31.5l-101 21v94l293 -10l313 10q35 -104 97 -189l661 -890l-16 864q-2 49 -21.5 69.5t-72.5 30.5l-107 21v94l270 -10l263 10v-94l-105 -21q-55 -10 -75.5 -30.5t-20.5 -69.5
q-8 -522 -8 -1239h-219q-528 727 -947 1265q2 -778 2 -1052q0 -47 19.5 -67.5t75.5 -31.5l106 -20v-94l-270 10zM557 1638q23 96 91.5 184.5t162.5 88.5q49 0 159.5 -46t133.5 -46q49 0 68.5 12t50.5 67l67 -24q-27 -100 -90 -185t-162 -85q-51 0 -150.5 44t-127.5 44
q-49 0 -78 -13.5t-57 -64.5z" />
    <glyph glyph-name="Ograve" unicode="&#xd2;" horiz-adv-x="1714" 
d="M88 702q0 328 216 544t552 218q147 0 283.5 -47t246 -136t175 -232.5t65.5 -323.5q0 -326 -225 -541t-561 -215q-100 0 -204 28t-202 88t-175 144t-124 207t-47 266zM432 743q0 -334 120 -495.5t322 -161.5q408 0 408 602q0 336 -110.5 498t-309.5 162q-129 0 -218 -55.5
t-133 -149.5t-61.5 -190.5t-17.5 -209.5zM606 1987h389l111 -375l-100 -13z" />
    <glyph glyph-name="Oacute" unicode="&#xd3;" horiz-adv-x="1714" 
d="M88 702q0 328 216 544t552 218q147 0 283.5 -47t246 -136t175 -232.5t65.5 -323.5q0 -326 -225 -541t-561 -215q-100 0 -204 28t-202 88t-175 144t-124 207t-47 266zM432 743q0 -334 120 -495.5t322 -161.5q408 0 408 602q0 336 -110.5 498t-309.5 162q-129 0 -218 -55.5
t-133 -149.5t-61.5 -190.5t-17.5 -209.5zM668 1612l110 375h389l-399 -388z" />
    <glyph glyph-name="Ocircumflex" unicode="&#xd4;" horiz-adv-x="1714" 
d="M88 702q0 328 216 544t552 218q147 0 283.5 -47t246 -136t175 -232.5t65.5 -323.5q0 -326 -225 -541t-561 -215q-100 0 -204 28t-202 88t-175 144t-124 207t-47 266zM432 743q0 -334 120 -495.5t322 -161.5q408 0 408 602q0 336 -110.5 498t-309.5 162q-129 0 -218 -55.5
t-133 -149.5t-61.5 -190.5t-17.5 -209.5zM500 1602l293 397h122l297 -397l-47 -41l-307 178h-4l-299 -176z" />
    <glyph glyph-name="Otilde" unicode="&#xd5;" horiz-adv-x="1714" 
d="M88 702q0 328 216 544t552 218q147 0 283.5 -47t246 -136t175 -232.5t65.5 -323.5q0 -326 -225 -541t-561 -215q-100 0 -204 28t-202 88t-175 144t-124 207t-47 266zM432 743q0 -334 120 -495.5t322 -161.5q408 0 408 602q0 336 -110.5 498t-309.5 162q-129 0 -218 -55.5
t-133 -149.5t-61.5 -190.5t-17.5 -209.5zM489 1638q23 96 91.5 184.5t162.5 88.5q49 0 160 -46t133 -46q49 0 68.5 12t50.5 67l68 -24q-27 -100 -90.5 -185t-161.5 -85q-51 0 -150.5 44t-128.5 44q-49 0 -77.5 -13.5t-57.5 -64.5z" />
    <glyph glyph-name="Odieresis" unicode="&#xd6;" horiz-adv-x="1714" 
d="M88 702q0 328 216 544t552 218q147 0 283.5 -47t246 -136t175 -232.5t65.5 -323.5q0 -326 -225 -541t-561 -215q-100 0 -204 28t-202 88t-175 144t-124 207t-47 266zM432 743q0 -334 120 -495.5t322 -161.5q408 0 408 602q0 336 -110.5 498t-309.5 162q-129 0 -218 -55.5
t-133 -149.5t-61.5 -190.5t-17.5 -209.5zM479 1755q0 72 48 121t120 49q74 0 123 -49t49 -121t-49 -121t-123 -49q-72 0 -120 49t-48 121zM895 1755q0 72 48 121t120 49t121 -49t49 -121t-49 -121t-121 -49t-120 49t-48 121z" />
    <glyph glyph-name="multiply" unicode="&#xd7;" 
d="M78 293l434 446l-434 447l94 94l432 -446l420 432l96 -101l-420 -430l433 -442l-93 -96l-436 444l-432 -442z" />
    <glyph glyph-name="Oslash" unicode="&#xd8;" horiz-adv-x="1714" 
d="M88 702q0 328 216 544t552 218q238 0 432 -114l187 249l84 -61l-185 -248q252 -207 252 -565q0 -326 -225 -541t-561 -215q-195 0 -379 99l-191 -256l-84 61l187 250q-285 210 -285 579zM432 743q0 -274 82 -432l653 879q-109 158 -305 158q-129 0 -218 -55.5
t-133 -149.5t-61.5 -190.5t-17.5 -209.5zM573 219q113 -133 301 -133q408 0 408 602q0 242 -61 399z" />
    <glyph glyph-name="Ugrave" unicode="&#xd9;" horiz-adv-x="1734" 
d="M39 1350v94l342 -10l381 10v-94l-103 -21q-55 -10 -75.5 -30.5t-20.5 -69.5v-721q0 -393 379 -393q113 0 200 39t134 101t70.5 132t23.5 141q0 125 -2 401.5t-2 299.5q0 49 -20.5 69.5t-75.5 30.5l-105 21v94l267 -10l268 10v-94l-105 -21q-55 -10 -75.5 -30.5
t-20.5 -69.5l-4 -699q0 -270 -170 -415.5t-455 -145.5q-279 0 -454.5 137.5t-175.5 385.5v737q0 49 -20.5 69.5t-76.5 30.5zM606 1987h389l111 -375l-100 -13z" />
    <glyph glyph-name="Uacute" unicode="&#xda;" horiz-adv-x="1734" 
d="M39 1350v94l342 -10l381 10v-94l-103 -21q-55 -10 -75.5 -30.5t-20.5 -69.5v-721q0 -393 379 -393q113 0 200 39t134 101t70.5 132t23.5 141q0 125 -2 401.5t-2 299.5q0 49 -20.5 69.5t-75.5 30.5l-105 21v94l267 -10l268 10v-94l-105 -21q-55 -10 -75.5 -30.5
t-20.5 -69.5l-4 -699q0 -270 -170 -415.5t-455 -145.5q-279 0 -454.5 137.5t-175.5 385.5v737q0 49 -20.5 69.5t-76.5 30.5zM709 1612l110 375h389l-399 -388z" />
    <glyph glyph-name="Ucircumflex" unicode="&#xdb;" horiz-adv-x="1734" 
d="M39 1350v94l342 -10l381 10v-94l-103 -21q-55 -10 -75.5 -30.5t-20.5 -69.5v-721q0 -393 379 -393q113 0 200 39t134 101t70.5 132t23.5 141q0 125 -2 401.5t-2 299.5q0 49 -20.5 69.5t-75.5 30.5l-105 21v94l267 -10l268 10v-94l-105 -21q-55 -10 -75.5 -30.5
t-20.5 -69.5l-4 -699q0 -270 -170 -415.5t-455 -145.5q-279 0 -454.5 137.5t-175.5 385.5v737q0 49 -20.5 69.5t-76.5 30.5zM510 1602l293 397h123l297 -397l-47 -41l-308 178h-4l-299 -176z" />
    <glyph glyph-name="Udieresis" unicode="&#xdc;" horiz-adv-x="1734" 
d="M39 1350v94l342 -10l381 10v-94l-103 -21q-55 -10 -75.5 -30.5t-20.5 -69.5v-721q0 -393 379 -393q113 0 200 39t134 101t70.5 132t23.5 141q0 125 -2 401.5t-2 299.5q0 49 -20.5 69.5t-75.5 30.5l-105 21v94l267 -10l268 10v-94l-105 -21q-55 -10 -75.5 -30.5
t-20.5 -69.5l-4 -699q0 -270 -170 -415.5t-455 -145.5q-279 0 -454.5 137.5t-175.5 385.5v737q0 49 -20.5 69.5t-76.5 30.5zM489 1755q0 72 48.5 121t119.5 49q76 0 124 -49t48 -121t-48 -121t-124 -49q-72 0 -120 49t-48 121zM905 1755q0 72 48 121t120 49t121 -49t49 -121
t-49 -121t-121 -49t-120 49t-48 121z" />
    <glyph glyph-name="Yacute" unicode="&#xdd;" horiz-adv-x="1470" 
d="M-39 1350v94l377 -10l416 10v-94l-109 -21q-113 -23 -70 -100l295 -516q57 104 265 512q43 82 -74 104l-105 21v94l334 -10l205 10v-94l-92 -21q-41 -8 -64.5 -29.5t-50.5 -66.5q-225 -391 -373 -676v-100q0 -123 5 -254q2 -49 19 -68.5t73 -30.5l104 -20v-94l-338 10
l-395 -10v94l102 20q53 10 70.5 30t22.5 69q4 66 4 254v90q-213 352 -416 684q-29 45 -52.5 66.5t-66.5 31.5zM610 1632l111 375h389l-399 -387z" />
    <glyph glyph-name="Thorn" unicode="&#xde;" horiz-adv-x="1484" 
d="M78 -10v94l104 20q53 10 73.5 32t23.5 67q6 174 6 512l-6 514q-4 51 -22.5 70.5t-74.5 29.5l-104 21v94l368 -10l365 10v-94l-104 -21q-23 -4 -39.5 -10t-27.5 -17.5t-16.5 -17.5t-8.5 -25.5t-4 -28.5t-2 -38t-1 -41q164 20 353 20q76 0 153.5 -23.5t151 -69.5t120 -130
t46.5 -192q0 -84 -26 -160t-80 -144.5t-153.5 -109.5t-232.5 -41l-123 12v97l23 -2h6q51 0 88 10t75 39.5t58 95t20 164.5q0 154 -92 244t-227 90h-160q-4 -180 -4 -336l6 -512q2 -45 22.5 -66.5t74.5 -32.5l104 -20v-94l-365 10z" />
    <glyph glyph-name="germandbls" unicode="&#xdf;" horiz-adv-x="1265" 
d="M53 -10v80l60 14q55 12 75.5 31.5t20.5 66.5v701h-150v110h150q0 289 138 435.5t360 146.5q182 0 275 -89t93 -222q0 -70 -27.5 -128.5t-61.5 -91t-61.5 -70.5t-27.5 -69q0 -59 32 -113.5t78 -100.5t92 -97t77.5 -127t31.5 -164q0 -125 -97 -223t-259 -98
q-74 0 -133.5 14t-83.5 29l-23 14l27 84q55 -39 141 -39q53 0 95.5 36t42.5 111q0 55 -44.5 122t-96.5 119t-96 127t-44 146q0 53 32.5 105.5t80 96.5t94.5 89t79.5 104.5t32.5 123.5q0 104 -61 151t-143 47q-109 0 -173.5 -67.5t-64.5 -210.5v-1188l-281 4z" />
    <glyph glyph-name="agrave" unicode="&#xe0;" horiz-adv-x="1091" 
d="M63 233q0 96 53.5 165t144.5 105t176 52t181 23v131q0 59 -1 85.5t-8 63.5t-20.5 52.5t-40 27.5t-67.5 12q-104 0 -104 -61v-211l-111 -45q-68 10 -117 59t-49 115q0 82 70 137t167 76.5t214 21.5q168 0 274.5 -78.5t106.5 -244.5q0 -80 -7 -270.5t-7 -231.5
q0 -39 20 -63.5t53 -24.5q49 0 72 27l20 -68q-23 -53 -95.5 -86t-147.5 -33q-86 0 -142.5 42t-72.5 114q-23 -57 -94.5 -106.5t-176.5 -49.5q-121 0 -206 73.5t-85 190.5zM264 1548h389l111 -374l-100 -13zM354 303q0 -63 36 -107t110 -44q49 0 82.5 26.5t33.5 54.5l2 263
q-264 -31 -264 -193z" />
    <glyph glyph-name="aacute" unicode="&#xe1;" horiz-adv-x="1091" 
d="M63 233q0 96 53.5 165t144.5 105t176 52t181 23v131q0 59 -1 85.5t-8 63.5t-20.5 52.5t-40 27.5t-67.5 12q-104 0 -104 -61v-211l-111 -45q-68 10 -117 59t-49 115q0 82 70 137t167 76.5t214 21.5q168 0 274.5 -78.5t106.5 -244.5q0 -80 -7 -270.5t-7 -231.5
q0 -39 20 -63.5t53 -24.5q49 0 72 27l20 -68q-23 -53 -95.5 -86t-147.5 -33q-86 0 -142.5 42t-72.5 114q-23 -57 -94.5 -106.5t-176.5 -49.5q-121 0 -206 73.5t-85 190.5zM285 1174l110 374h389l-399 -387zM354 303q0 -63 36 -107t110 -44q49 0 82.5 26.5t33.5 54.5l2 263
q-264 -31 -264 -193z" />
    <glyph glyph-name="acircumflex" unicode="&#xe2;" horiz-adv-x="1091" 
d="M63 233q0 96 53.5 165t144.5 105t176 52t181 23v131q0 59 -1 85.5t-8 63.5t-20.5 52.5t-40 27.5t-67.5 12q-104 0 -104 -61v-211l-111 -45q-68 10 -117 59t-49 115q0 82 70 137t167 76.5t214 21.5q168 0 274.5 -78.5t106.5 -244.5q0 -80 -7 -270.5t-7 -231.5
q0 -39 20 -63.5t53 -24.5q49 0 72 27l20 -68q-23 -53 -95.5 -86t-147.5 -33q-86 0 -142.5 42t-72.5 114q-23 -57 -94.5 -106.5t-176.5 -49.5q-121 0 -206 73.5t-85 190.5zM168 1163l293 398h123l297 -398l-47 -41l-308 178h-4l-299 -176zM354 303q0 -63 36 -107t110 -44
q49 0 82.5 26.5t33.5 54.5l2 263q-264 -31 -264 -193z" />
    <glyph glyph-name="atilde" unicode="&#xe3;" horiz-adv-x="1091" 
d="M63 233q0 96 53.5 165t144.5 105t176 52t181 23v131q0 59 -1 85.5t-8 63.5t-20.5 52.5t-40 27.5t-67.5 12q-104 0 -104 -61v-211l-111 -45q-68 10 -117 59t-49 115q0 82 70 137t167 76.5t214 21.5q168 0 274.5 -78.5t106.5 -244.5q0 -80 -7 -270.5t-7 -231.5
q0 -39 20 -63.5t53 -24.5q49 0 72 27l20 -68q-23 -53 -95.5 -86t-147.5 -33q-86 0 -142.5 42t-72.5 114q-23 -57 -94.5 -106.5t-176.5 -49.5q-121 0 -206 73.5t-85 190.5zM158 1200q23 96 91 184.5t163 88.5q49 0 159.5 -46.5t133.5 -46.5q49 0 68.5 12.5t49.5 67.5l68 -24
q-27 -100 -90.5 -185.5t-161.5 -85.5q-51 0 -150.5 44t-128.5 44q-49 0 -77.5 -13t-57.5 -64zM354 303q0 -63 36 -107t110 -44q49 0 82.5 26.5t33.5 54.5l2 263q-264 -31 -264 -193z" />
    <glyph glyph-name="adieresis" unicode="&#xe4;" horiz-adv-x="1091" 
d="M63 233q0 96 53.5 165t144.5 105t176 52t181 23v131q0 59 -1 85.5t-8 63.5t-20.5 52.5t-40 27.5t-67.5 12q-104 0 -104 -61v-211l-111 -45q-68 10 -117 59t-49 115q0 82 70 137t167 76.5t214 21.5q168 0 274.5 -78.5t106.5 -244.5q0 -80 -7 -270.5t-7 -231.5
q0 -39 20 -63.5t53 -24.5q49 0 72 27l20 -68q-23 -53 -95.5 -86t-147.5 -33q-86 0 -142.5 42t-72.5 114q-23 -57 -94.5 -106.5t-176.5 -49.5q-121 0 -206 73.5t-85 190.5zM147 1317q0 72 48.5 121t119.5 49q74 0 123 -49t49 -121t-49 -121t-123 -49q-72 0 -120 49t-48 121z
M354 303q0 -63 36 -107t110 -44q49 0 82.5 26.5t33.5 54.5l2 263q-264 -31 -264 -193zM563 1317q0 72 48 121t120 49t121 -49t49 -121t-49 -121t-121 -49t-120 49t-48 121z" />
    <glyph glyph-name="aring" unicode="&#xe5;" horiz-adv-x="1091" 
d="M63 233q0 96 53.5 165t144.5 105t176 52t181 23v131q0 59 -1 85.5t-8 63.5t-20.5 52.5t-40 27.5t-67.5 12q-104 0 -104 -61v-211l-111 -45q-68 10 -117 59t-49 115q0 82 70 137t167 76.5t214 21.5q168 0 274.5 -78.5t106.5 -244.5q0 -80 -7 -270.5t-7 -231.5
q0 -39 20 -63.5t53 -24.5q49 0 72 27l20 -68q-23 -53 -95.5 -86t-147.5 -33q-86 0 -142.5 42t-72.5 114q-23 -57 -94.5 -106.5t-176.5 -49.5q-121 0 -206 73.5t-85 190.5zM293 1366q0 104 73.5 176t178.5 72q109 0 181.5 -70.5t72.5 -177t-73 -177.5t-181 -71
q-104 0 -178 71t-74 177zM354 303q0 -63 36 -107t110 -44q49 0 82.5 26.5t33.5 54.5l2 263q-264 -31 -264 -193zM397 1366q0 -70 41 -114t107 -44q68 0 108.5 44t40.5 114q0 68 -41 111t-108.5 43t-107.5 -43t-40 -111z" />
    <glyph glyph-name="ae" unicode="&#xe6;" horiz-adv-x="1601" 
d="M63 233q0 311 541 342v134q0 59 -1 85.5t-8 63.5t-20.5 52.5t-40 27.5t-67.5 12q-45 0 -67.5 -11t-22.5 -50v-211l-111 -45q-68 10 -117 59t-49 115q0 121 118 178t298 57q90 0 180 -27.5t125 -68.5q109 96 281 96q203 0 320.5 -108.5t117.5 -296.5v-62l-618 -53
q8 -170 90 -269t198 -99q80 0 148.5 30.5t99.5 75.5l58 -63q-129 -227 -443 -228q-246 0 -373 187q-96 -186 -342 -187q-121 0 -208 73.5t-87 190.5zM356 289q0 -57 36 -98t110 -41q59 0 98 30.5t47 75.5q-41 104 -43 225q-248 -30 -248 -192zM922 618l301 29
q10 135 -23 219t-110 84q-94 0 -131 -80t-37 -252z" />
    <glyph glyph-name="ccedilla" unicode="&#xe7;" horiz-adv-x="1011" 
d="M66 510q0 223 151.5 377.5t362.5 154.5q197 0 281.5 -70.5t84.5 -150.5q0 -147 -194 -176l-95 27q4 96 5 168q0 68 -13.5 87t-75.5 19q-190 0 -190 -401q0 -193 86 -291t219 -98q78 0 140.5 30.5t91.5 73.5l57 -63q-129 -223 -430 -228l-70 -82q43 0 89 -10t98.5 -33.5
t86 -74t33.5 -119.5q0 -125 -94 -186.5t-227 -61.5q-143 0 -238 57l15 74q70 -31 116 -31q68 0 110 31t42 92q0 47 -27.5 87t-71.5 63.5t-76 37t-67 21.5l180 148q-158 35 -269 169t-111 359z" />
    <glyph glyph-name="egrave" unicode="&#xe8;" horiz-adv-x="1073" 
d="M68 510q0 213 145 372.5t358 159.5q203 0 321 -108.5t118 -296.5v-62l-625 5v-35q0 -182 87 -286.5t210 -104.5q80 0 148.5 30.5t99.5 75.5l57 -63q-129 -227 -446 -228q-201 0 -337 136.5t-136 404.5zM266 1548h389l111 -374l-100 -13zM391 668l297 6q4 139 -22.5 207.5
t-106.5 68.5q-84 0 -121 -70.5t-47 -211.5z" />
    <glyph glyph-name="eacute" unicode="&#xe9;" horiz-adv-x="1073" 
d="M68 510q0 213 145 372.5t358 159.5q203 0 321 -108.5t118 -296.5v-62l-625 5v-35q0 -182 87 -286.5t210 -104.5q80 0 148.5 30.5t99.5 75.5l57 -63q-129 -227 -446 -228q-201 0 -337 136.5t-136 404.5zM287 1174l110 374h389l-399 -387zM391 668l297 6q4 139 -22.5 207.5
t-106.5 68.5q-84 0 -121 -70.5t-47 -211.5z" />
    <glyph glyph-name="ecircumflex" unicode="&#xea;" horiz-adv-x="1073" 
d="M68 510q0 213 145 372.5t358 159.5q203 0 321 -108.5t118 -296.5v-62l-625 5v-35q0 -182 87 -286.5t210 -104.5q80 0 148.5 30.5t99.5 75.5l57 -63q-129 -227 -446 -228q-201 0 -337 136.5t-136 404.5zM170 1163l293 398h123l297 -398l-47 -41l-308 178h-4l-299 -176z
M391 668l297 6q4 139 -22.5 207.5t-106.5 68.5q-84 0 -121 -70.5t-47 -211.5z" />
    <glyph glyph-name="edieresis" unicode="&#xeb;" horiz-adv-x="1073" 
d="M68 510q0 213 145 372.5t358 159.5q203 0 321 -108.5t118 -296.5v-62l-625 5v-35q0 -182 87 -286.5t210 -104.5q80 0 148.5 30.5t99.5 75.5l57 -63q-129 -227 -446 -228q-201 0 -337 136.5t-136 404.5zM150 1317q0 72 48 121t119 49q76 0 124 -49t48 -121t-48 -121
t-124 -49q-72 0 -119.5 49t-47.5 121zM391 668l297 6q4 139 -22.5 207.5t-106.5 68.5q-84 0 -121 -70.5t-47 -211.5zM565 1317q0 72 48.5 121t120 49t120.5 -49t49 -121t-49 -121t-120.5 -49t-120 49t-48.5 121z" />
    <glyph glyph-name="igrave" unicode="&#xec;" horiz-adv-x="690" 
d="M45 -10v80l59 14q55 14 76 33.5t21 64.5v447q0 109 -12.5 151.5t-51.5 57.5l-80 30v50l363 137h90q-4 -150 -4 -348v-525q0 -47 18.5 -66.5t73.5 -31.5l61 -14v-80l-305 10zM61 1548h390l110 -374l-100 -13z" />
    <glyph glyph-name="iacute" unicode="&#xed;" horiz-adv-x="690" 
d="M45 -10v80l59 14q55 14 76 33.5t21 64.5v447q0 109 -12.5 151.5t-51.5 57.5l-80 30v50l363 137h90q-4 -150 -4 -348v-525q0 -47 18.5 -66.5t73.5 -31.5l61 -14v-80l-305 10zM82 1174l111 374h389l-400 -387z" />
    <glyph glyph-name="icircumflex" unicode="&#xee;" horiz-adv-x="690" 
d="M-35 1163l293 398h123l297 -398l-47 -41l-307 178h-5l-299 -176zM45 -10v80l59 14q55 14 76 33.5t21 64.5v447q0 109 -12.5 151.5t-51.5 57.5l-80 30v50l363 137h90q-4 -150 -4 -348v-525q0 -47 18.5 -66.5t73.5 -31.5l61 -14v-80l-305 10z" />
    <glyph glyph-name="idieresis" unicode="&#xef;" horiz-adv-x="690" 
d="M-55 1317q0 72 48 121t120 49q76 0 124 -49t48 -121t-48.5 -121t-123.5 -49q-72 0 -120 49t-48 121zM45 -10v80l59 14q55 14 76 33.5t21 64.5v447q0 109 -12.5 151.5t-51.5 57.5l-80 30v50l363 137h90q-4 -150 -4 -348v-525q0 -47 18.5 -66.5t73.5 -31.5l61 -14v-80
l-305 10zM360 1317q0 72 48.5 121t120 49t120.5 -49t49 -121t-49 -121t-120.5 -49t-120 49t-48.5 121z" />
    <glyph glyph-name="eth" unicode="&#xf0;" horiz-adv-x="1200" 
d="M66 500q0 240 145 391t342 151q141 0 223 -59q-68 154 -211 303l-192 -100l-45 86l166 86q-96 88 -240 194l61 43q172 -68 318 -165l211 110l43 -84l-168 -88q416 -330 416 -829q0 -244 -150.5 -407t-394.5 -163q-215 0 -369.5 141.5t-154.5 389.5zM383 526
q0 -461 221 -460q57 0 98 27.5t62.5 68.5t34 102.5t15.5 110.5t3 114q0 223 -61.5 340t-161.5 117q-68 0 -113 -38t-64.5 -106.5t-26.5 -131t-7 -144.5z" />
    <glyph glyph-name="ntilde" unicode="&#xf1;" horiz-adv-x="1300" 
d="M53 868v50l365 137h59l-4 -185l16 -4q35 63 116 119.5t196 56.5q158 0 247 -93t89 -259l-2 -508q0 -47 19.5 -66.5t72.5 -31.5l59 -14v-80l-297 10l-297 -10v80l41 14q66 23 81 79t15 243v161q0 61 -5 106.5t-20.5 95.5t-51 77.5t-90.5 27.5q-100 0 -132 -60t-32 -183
v-449q0 -51 10 -68.5t57 -29.5l60 -14v-80l-271 10l-299 -10v80l41 14q41 14 57.5 22.5t28 27t11.5 48.5v467q0 109 -10.5 141.5t-49.5 47.5zM274 1200q23 96 91.5 184.5t162.5 88.5q49 0 160 -46.5t133 -46.5q49 0 68.5 12.5t50.5 67.5l68 -24q-27 -100 -90.5 -185.5
t-161.5 -85.5q-51 0 -150.5 44t-128.5 44q-49 0 -77.5 -13t-57.5 -64z" />
    <glyph glyph-name="ograve" unicode="&#xf2;" horiz-adv-x="1210" 
d="M66 500q0 231 150.5 386.5t401.5 155.5q90 0 178.5 -28.5t168 -87t129 -165t49.5 -243.5q0 -240 -151.5 -394.5t-397.5 -154.5q-215 0 -371.5 141.5t-156.5 389.5zM334 1548h389l111 -374l-101 -13zM387 526q0 -461 221 -460q57 0 98.5 27.5t63 68.5t33.5 102.5t15 110.5
t3 114q0 223 -61.5 340t-161.5 117q-68 0 -113 -38t-64.5 -106.5t-26.5 -131t-7 -144.5z" />
    <glyph glyph-name="oacute" unicode="&#xf3;" horiz-adv-x="1210" 
d="M66 500q0 231 150.5 386.5t401.5 155.5q90 0 178.5 -28.5t168 -87t129 -165t49.5 -243.5q0 -240 -151.5 -394.5t-397.5 -154.5q-215 0 -371.5 141.5t-156.5 389.5zM387 526q0 -461 221 -460q57 0 98.5 27.5t63 68.5t33.5 102.5t15 110.5t3 114q0 223 -61.5 340
t-161.5 117q-68 0 -113 -38t-64.5 -106.5t-26.5 -131t-7 -144.5zM416 1174l110 374h389l-399 -387z" />
    <glyph glyph-name="ocircumflex" unicode="&#xf4;" horiz-adv-x="1210" 
d="M66 500q0 231 150.5 386.5t401.5 155.5q90 0 178.5 -28.5t168 -87t129 -165t49.5 -243.5q0 -240 -151.5 -394.5t-397.5 -154.5q-215 0 -371.5 141.5t-156.5 389.5zM248 1163l293 398h123l297 -398l-48 -41l-307 178h-4l-299 -176zM387 526q0 -461 221 -460
q57 0 98.5 27.5t63 68.5t33.5 102.5t15 110.5t3 114q0 223 -61.5 340t-161.5 117q-68 0 -113 -38t-64.5 -106.5t-26.5 -131t-7 -144.5z" />
    <glyph glyph-name="otilde" unicode="&#xf5;" horiz-adv-x="1210" 
d="M66 500q0 231 150.5 386.5t401.5 155.5q90 0 178.5 -28.5t168 -87t129 -165t49.5 -243.5q0 -240 -151.5 -394.5t-397.5 -154.5q-215 0 -371.5 141.5t-156.5 389.5zM238 1200q23 96 91 184.5t163 88.5q49 0 159.5 -46.5t132.5 -46.5q49 0 68.5 12.5t50.5 67.5l68 -24
q-27 -100 -90.5 -185.5t-161.5 -85.5q-51 0 -150.5 44t-128.5 44q-49 0 -77.5 -13t-57.5 -64zM387 526q0 -461 221 -460q57 0 98.5 27.5t63 68.5t33.5 102.5t15 110.5t3 114q0 223 -61.5 340t-161.5 117q-68 0 -113 -38t-64.5 -106.5t-26.5 -131t-7 -144.5z" />
    <glyph glyph-name="odieresis" unicode="&#xf6;" horiz-adv-x="1210" 
d="M66 500q0 231 150.5 386.5t401.5 155.5q90 0 178.5 -28.5t168 -87t129 -165t49.5 -243.5q0 -240 -151.5 -394.5t-397.5 -154.5q-215 0 -371.5 141.5t-156.5 389.5zM227 1317q0 72 48.5 121t119.5 49q76 0 124 -49t48 -121t-48 -121t-124 -49q-72 0 -120 49t-48 121z
M387 526q0 -461 221 -460q57 0 98.5 27.5t63 68.5t33.5 102.5t15 110.5t3 114q0 223 -61.5 340t-161.5 117q-68 0 -113 -38t-64.5 -106.5t-26.5 -131t-7 -144.5zM643 1317q0 72 48 121t120 49t121 -49t49 -121t-49 -121t-121 -49t-120 49t-48 121z" />
    <glyph glyph-name="divide" unicode="&#xf7;" 
d="M100 672v143h1008v-143h-1008zM424 395q0 76 53 128t127 52t127 -52t53 -128q0 -74 -53 -127t-127 -53t-127 53t-53 127zM424 1092q0 74 53 127t127 53t127 -53.5t53 -126.5q0 -76 -53 -128.5t-127 -52.5t-127 52.5t-53 128.5z" />
    <glyph glyph-name="oslash" unicode="&#xf8;" horiz-adv-x="1210" 
d="M66 499.5q0 231.5 150.5 387t401.5 155.5q172 0 310 -90l116 138l64 -56l-115 -135q150 -145 150 -381q0 -240 -151.5 -394.5t-397.5 -154.5q-178 0 -311 94l-142 -165l-61 55l139 162q-153 153 -153 384.5zM387 526q0 -111 12 -196l381 448q-57 168 -182 168
q-68 0 -113 -38t-64.5 -106.5t-26.5 -131t-7 -144.5zM424 229q55 -164 184 -163q57 0 98.5 27.5t63 68.5t33.5 102.5t15 110.5t3 114q0 94 -14 191z" />
    <glyph glyph-name="ugrave" unicode="&#xf9;" horiz-adv-x="1277" 
d="M39 920v79l209 7l229 16q-10 -109 -10 -633q0 -127 46 -179t134 -52q55 0 97 34.5t42 104.5v498q0 53 -16 77.5t-68 34.5l-59 13v79l229 9l230 14q-10 -274 -10 -643q0 -145 8 -204.5t147 -63.5v-78l-381 -49h-73l6 149l-19 2q-35 -57 -112.5 -111.5t-184.5 -54.5
q-156 0 -239.5 92.5t-83.5 257.5l2 476q0 49 -16.5 73.5t-65.5 38.5zM383 1548h389l111 -374l-101 -13z" />
    <glyph glyph-name="uacute" unicode="&#xfa;" horiz-adv-x="1277" 
d="M39 920v79l209 7l229 16q-10 -109 -10 -633q0 -127 46 -179t134 -52q55 0 97 34.5t42 104.5v498q0 53 -16 77.5t-68 34.5l-59 13v79l229 9l230 14q-10 -274 -10 -643q0 -145 8 -204.5t147 -63.5v-78l-381 -49h-73l6 149l-19 2q-35 -57 -112.5 -111.5t-184.5 -54.5
q-156 0 -239.5 92.5t-83.5 257.5l2 476q0 49 -16.5 73.5t-65.5 38.5zM424 1174l111 374h389l-400 -387z" />
    <glyph glyph-name="ucircumflex" unicode="&#xfb;" horiz-adv-x="1277" 
d="M39 920v79l209 7l229 16q-10 -109 -10 -633q0 -127 46 -179t134 -52q55 0 97 34.5t42 104.5v498q0 53 -16 77.5t-68 34.5l-59 13v79l229 9l230 14q-10 -274 -10 -643q0 -145 8 -204.5t147 -63.5v-78l-381 -49h-73l6 149l-19 2q-35 -57 -112.5 -111.5t-184.5 -54.5
q-156 0 -239.5 92.5t-83.5 257.5l2 476q0 49 -16.5 73.5t-65.5 38.5zM287 1163l293 398h122l297 -398l-47 -41l-307 178h-4l-299 -176z" />
    <glyph glyph-name="udieresis" unicode="&#xfc;" horiz-adv-x="1277" 
d="M39 920v79l209 7l229 16q-10 -109 -10 -633q0 -127 46 -179t134 -52q55 0 97 34.5t42 104.5v498q0 53 -16 77.5t-68 34.5l-59 13v79l229 9l230 14q-10 -274 -10 -643q0 -145 8 -204.5t147 -63.5v-78l-381 -49h-73l6 149l-19 2q-35 -57 -112.5 -111.5t-184.5 -54.5
q-156 0 -239.5 92.5t-83.5 257.5l2 476q0 49 -16.5 73.5t-65.5 38.5zM266 1317q0 72 48 121t120 49q74 0 123 -49t49 -121t-49 -121t-123 -49q-72 0 -120 49t-48 121zM682 1317q0 72 48 121t120 49t121 -49t49 -121t-49 -121t-121 -49t-120 49t-48 121z" />
    <glyph glyph-name="yacute" unicode="&#xfd;" horiz-adv-x="1144" 
d="M-18 938v80l309 -10l315 10v-80l-59 -14q-53 -12 -69.5 -36t-2.5 -67l199 -575q96 248 217 579q14 41 -7.5 61.5t-78.5 37.5l-49 14v80l207 -10l202 10v-80l-41 -14q-47 -16 -66.5 -38t-39.5 -71l-567 -1374l-236 20l338 527h-123q2 0 -50 143t-129 352t-132 342
q-20 51 -35.5 66.5t-60.5 32.5zM426 1174l111 374h389l-400 -387z" />
    <glyph glyph-name="thorn" unicode="&#xfe;" horiz-adv-x="1226" 
d="M-12 -428l59 14q53 12 71.5 32t18.5 67v1480q0 113 -10 154t-49 55l-86 31v49l373 72h77v-412q0 -168 -30 -235l18 -5q115 168 303 168q174 0 300 -132t126 -367q0 -250 -144.5 -412t-363.5 -162q-74 0 -142.5 25.5t-94.5 56.5q33 -72 32 -203v-163q0 -47 21.5 -69
t75.5 -30l88 -14v-80l-328 10l-315 -10v80zM442 201q0 -123 150 -123q246 0 246 416q0 381 -248 380q-147 0 -148 -149v-524z" />
    <glyph glyph-name="ydieresis" unicode="&#xff;" horiz-adv-x="1144" 
d="M-18 938v80l309 -10l315 10v-80l-59 -14q-53 -12 -69.5 -36t-2.5 -67l199 -575q96 248 217 579q14 41 -7.5 61.5t-78.5 37.5l-49 14v80l207 -10l202 10v-80l-41 -14q-47 -16 -66.5 -38t-39.5 -71l-567 -1374l-236 20l338 527h-123q2 0 -50 143t-129 352t-132 342
q-20 51 -35.5 66.5t-60.5 32.5zM201 1317q0 72 48 121t120 49q74 0 123 -49t49 -121t-49.5 -121t-122.5 -49q-72 0 -120 49t-48 121zM616 1317q0 72 48.5 121t120 49t120.5 -49t49 -121t-49 -121t-120.5 -49t-120 49t-48.5 121z" />
    <glyph glyph-name="OE" unicode="&#x152;" horiz-adv-x="2385" 
d="M90 690q0 188 67.5 339t182.5 242t259 138t306 47q80 0 395 -22h621q51 0 128 6t130 10l51 6q-16 -125 -35 -416h-100l-24 80q-33 109 -64 155t-86 46h-360q-23 0 -29 -7t-6 -26v-493q104 0 219 6q47 2 69.5 24.5t36.5 79.5l27 113h98l-10 -283l10 -270h-98l-27 113
q-14 57 -36.5 79.5t-69.5 24.5l-219 6v-444q0 -129 141 -129h213q88 0 146.5 30.5t109.5 133.5l78 155h96q-37 -297 -47 -444q-285 10 -401 10h-662q-229 -16 -358 -16q-356 0 -554 202.5t-198 503.5zM444 702q0 -291 146.5 -444.5t413.5 -153.5l198 -2v1092
q0 74 -18.5 104.5t-81.5 36.5q-70 4 -90 4q-568 0 -568 -637z" />
    <glyph glyph-name="oe" unicode="&#x153;" horiz-adv-x="1826" 
d="M66 500q0 231 150.5 386.5t401.5 155.5q221 0 369 -139q145 139 338 139q203 0 320.5 -108.5t117.5 -296.5v-62l-624 5v-35q0 -182 87 -286.5t210 -104.5q80 0 148.5 30.5t98.5 75.5l58 -63q-129 -227 -447 -228q-201 0 -329 129q-147 -129 -371 -129
q-215 0 -371.5 141.5t-156.5 389.5zM387 526q0 -461 221 -460q57 0 98.5 27.5t63 68.5t33.5 102.5t15 110.5t3 114q0 223 -61.5 340t-161.5 117q-68 0 -113 -38t-64.5 -106.5t-26.5 -131t-7 -144.5zM1145 668l297 6q4 139 -22.5 207.5t-106.5 68.5q-84 0 -121 -70.5
t-47 -211.5z" />
    <glyph glyph-name="Ydieresis" unicode="&#x178;" horiz-adv-x="1470" 
d="M-39 1350v94l377 -10l416 10v-94l-109 -21q-113 -23 -70 -100l295 -516q57 104 265 512q43 82 -74 104l-105 21v94l334 -10l205 10v-94l-92 -21q-41 -8 -64.5 -29.5t-50.5 -66.5q-225 -391 -373 -676v-100q0 -123 5 -254q2 -49 19 -68.5t73 -30.5l104 -20v-94l-338 10
l-395 -10v94l102 20q53 10 70.5 30t22.5 69q4 66 4 254v90q-213 352 -416 684q-29 45 -52.5 66.5t-66.5 31.5zM358 1755q0 72 48.5 121t119.5 49q76 0 124 -49t48 -121t-48 -121t-124 -49q-72 0 -120 49t-48 121zM774 1755q0 72 48 121t120 49t121 -49t49 -121t-49 -121
t-121 -49t-120 49t-48 121z" />
    <glyph glyph-name="circumflex" unicode="&#x2c6;" horiz-adv-x="860" 
d="M74 1163l293 398h122l297 -398l-47 -41l-307 178h-4l-299 -176z" />
    <glyph glyph-name="tilde" unicode="&#x2dc;" horiz-adv-x="860" 
d="M63 1200q23 96 91.5 184.5t162.5 88.5q49 0 160 -46.5t133 -46.5q49 0 68.5 12.5t50.5 67.5l68 -24q-27 -100 -90.5 -185.5t-161.5 -85.5q-51 0 -150.5 44t-128.5 44q-49 0 -77.5 -13t-57.5 -64z" />
    <glyph glyph-name="uni2000" unicode="&#x2000;" horiz-adv-x="1003" 
 />
    <glyph glyph-name="uni2001" unicode="&#x2001;" horiz-adv-x="2007" 
 />
    <glyph glyph-name="uni2002" unicode="&#x2002;" horiz-adv-x="1003" 
 />
    <glyph glyph-name="uni2003" unicode="&#x2003;" horiz-adv-x="2007" 
 />
    <glyph glyph-name="uni2004" unicode="&#x2004;" horiz-adv-x="667" 
 />
    <glyph glyph-name="uni2005" unicode="&#x2005;" horiz-adv-x="501" 
 />
    <glyph glyph-name="uni2006" unicode="&#x2006;" horiz-adv-x="333" 
 />
    <glyph glyph-name="uni2007" unicode="&#x2007;" horiz-adv-x="333" 
 />
    <glyph glyph-name="uni2008" unicode="&#x2008;" horiz-adv-x="249" 
 />
    <glyph glyph-name="uni2009" unicode="&#x2009;" horiz-adv-x="401" 
 />
    <glyph glyph-name="uni200A" unicode="&#x200a;" horiz-adv-x="110" 
 />
    <glyph glyph-name="uni2010" unicode="&#x2010;" horiz-adv-x="737" 
d="M121 494v182h495v-182h-495z" />
    <glyph glyph-name="uni2011" unicode="&#x2011;" horiz-adv-x="737" 
d="M121 494v182h495v-182h-495z" />
    <glyph glyph-name="figuredash" unicode="&#x2012;" horiz-adv-x="737" 
d="M121 494v182h495v-182h-495z" />
    <glyph glyph-name="endash" unicode="&#x2013;" horiz-adv-x="1478" 
d="M125 598v143h1229v-143h-1229z" />
    <glyph glyph-name="emdash" unicode="&#x2014;" horiz-adv-x="2555" 
d="M125 598v143h2306v-143h-2306z" />
    <glyph glyph-name="quoteleft" unicode="&#x2018;" horiz-adv-x="616" 
d="M74 1008q0 180 143 330.5t332 209.5l37 -65q-248 -119 -248 -318q0 -172 211 -233q4 -4 4 -17q0 -59 -78 -132.5t-141 -73.5q-94 0 -177 86t-83 213z" />
    <glyph glyph-name="quoteright" unicode="&#x2019;" horiz-adv-x="657" 
d="M88 713q248 119 248 317q0 172 -211 234q-4 4 -4 16q0 59 77.5 133t141.5 74q94 0 177 -86t83 -213q0 -180 -143.5 -330.5t-331.5 -210.5z" />
    <glyph glyph-name="quotesinglbase" unicode="&#x201a;" horiz-adv-x="634" 
d="M39 -365q248 119 248 318q0 172 -211 233q-4 4 -4 17q0 59 77.5 133t141.5 74q94 0 177 -86t83 -213q0 -180 -143.5 -331t-331.5 -210z" />
    <glyph glyph-name="quotedblleft" unicode="&#x201c;" horiz-adv-x="1153" 
d="M74 1008q0 180 143 330.5t332 209.5l37 -65q-248 -119 -248 -318q0 -172 211 -233q4 -4 4 -17q0 -59 -78 -132.5t-141 -73.5q-94 0 -177 86t-83 213zM610 1008q0 180 143.5 330.5t331.5 209.5l37 -65q-248 -119 -248 -318q0 -172 211 -233q4 -4 5 -17q0 -59 -78 -132.5
t-142 -73.5q-94 0 -177 86t-83 213z" />
    <glyph glyph-name="quotedblright" unicode="&#x201d;" horiz-adv-x="1193" 
d="M88 713q248 119 248 317q0 172 -211 234q-4 4 -4 16q0 59 77.5 133t141.5 74q94 0 177 -86t83 -213q0 -180 -143.5 -330.5t-331.5 -210.5zM625 713q248 119 247 317q0 172 -210 234q-4 4 -5 16q0 59 78 133t142 74q94 0 177 -86t83 -213q0 -180 -143.5 -330.5
t-331.5 -210.5z" />
    <glyph glyph-name="quotedblbase" unicode="&#x201e;" horiz-adv-x="1171" 
d="M39 -365q248 119 248 318q0 172 -211 233q-4 4 -4 17q0 59 77.5 133t141.5 74q94 0 177 -86t83 -213q0 -180 -143.5 -331t-331.5 -210zM575 -365q248 119 248 318q0 172 -211 233q-4 4 -4 17q0 59 78 133t141 74q94 0 177 -86t83 -213q0 -180 -143 -331t-332 -210z" />
    <glyph glyph-name="bullet" unicode="&#x2022;" horiz-adv-x="772" 
d="M109 710.5q0 114.5 80.5 196.5t195.5 82t197 -82t82 -196.5t-82 -195.5t-197 -81t-195.5 81t-80.5 195.5z" />
    <glyph glyph-name="ellipsis" unicode="&#x2026;" horiz-adv-x="1886" 
d="M88 178q0 86 61.5 147.5t149.5 61.5q86 0 147.5 -61.5t61.5 -147.5t-61.5 -147.5t-147.5 -61.5q-88 0 -149.5 61.5t-61.5 147.5zM733 178q0 86 61.5 147.5t149.5 61.5q86 0 147.5 -61.5t61.5 -147.5t-61.5 -147.5t-147.5 -61.5q-88 0 -149.5 61.5t-61.5 147.5zM1378 178
q0 86 61.5 147.5t149.5 61.5q86 0 147.5 -61.5t61.5 -147.5t-61.5 -147.5t-147.5 -61.5q-88 0 -149.5 61.5t-61.5 147.5z" />
    <glyph glyph-name="uni202F" unicode="&#x202f;" horiz-adv-x="401" 
 />
    <glyph glyph-name="guilsinglleft" unicode="&#x2039;" horiz-adv-x="784" 
d="M59 727l529 578h108l-252 -566v-24l252 -565h-108z" />
    <glyph glyph-name="guilsinglright" unicode="&#x203a;" horiz-adv-x="784" 
d="M88 150l252 565v24l-252 566h109l528 -578l-528 -577h-109z" />
    <glyph glyph-name="uni205F" unicode="&#x205f;" horiz-adv-x="501" 
 />
    <glyph glyph-name="Euro" unicode="&#x20ac;" 
d="M-16 522v101h131q-4 27 -4 88q0 55 6 118h-133v101h149q41 231 195.5 382.5t400.5 151.5q111 0 203 -25.5t127 -52.5l112 52v-451h-90l-6 35q-31 180 -99.5 261t-213.5 81q-268 0 -307 -434h399v-101h-403q-4 -49 -5 -75q0 -2 7 -131h401v-101h-393q61 -393 354 -393
q106 0 190.5 60.5t122.5 183.5l91 -29q-33 -178 -174.5 -276.5t-319.5 -98.5q-242 0 -404.5 149.5t-197.5 403.5h-139z" />
    <glyph glyph-name="trademark" unicode="&#x2122;" horiz-adv-x="2543" 
d="M102 1159l2 291q113 -12 172 -12l289 -2l285 2l172 12l2 -291h-78l-20 82q-12 49 -30.5 68.5t-49.5 19.5h-160v-639q0 -25 10.5 -35t38.5 -14l78 -10v-99l-260 5l-238 -5v99l74 10q29 4 40 14.5t11 34.5v639h-159q-31 0 -49.5 -19.5t-30.5 -68.5l-21 -82h-78zM1133 532
v99l73 10q29 4 39 14.5t10 34.5l7 594q0 25 -10.5 35t-39.5 16l-55 11v98l262 -8l180 8q90 -305 207 -606l174 569v37l129 -8l322 8v-98l-78 -11q-29 -6 -39 -16t-10 -35l16 -594q0 -25 10.5 -35t39.5 -14l75 -10v-99l-262 5l-239 -5v99l75 10q29 4 40.5 14.5t11.5 34.5
l-11 627l-243 -780h-179l-272 780l8 -627q0 -25 11.5 -35t39.5 -14l76 -10v-99l-178 5z" />
    <glyph glyph-name="uniE000" unicode="&#xe000;" horiz-adv-x="1020" 
d="M0 1020h1020v-1020h-1020v1020z" />
    <glyph glyph-name="uniFB01" unicode="&#xfb01;" horiz-adv-x="1460" 
d="M51 874v119h166q0 150 50 266.5t134 184t182.5 101.5t207.5 34q90 0 173 -24.5t83 -90.5q0 -84 -67 -145.5t-146 -61.5q-8 0 -36 43t-71 85t-86 42q-72 0 -98 -96q-20 -74 -21 -340l455 13q57 2 110.5 14t77.5 24l25 13h90q-4 -150 -4 -348v-525q0 -47 18.5 -66.5
t73.5 -31.5l62 -14v-80l-306 10l-309 -10v80l59 14q55 14 76 33.5t21 64.5v547q0 70 -17.5 98.5t-83.5 32.5l-348 25v-690q0 -49 17.5 -72t68.5 -33l105 -20v-80l-383 10l-269 -10v80l60 14q55 14 75.5 33.5t20.5 64.5v692h-166z" />
    <glyph glyph-name="uniFB02" unicode="&#xfb02;" horiz-adv-x="1464" 
d="M51 874v119h166q0 150 50 266.5t134 184t182.5 101.5t207.5 34q219 0 360 -82l59 49h74q-6 -338 -6 -622v-742q0 -47 19.5 -66.5t74.5 -31.5l68 -14v-80l-316 10l-309 -10v80l62 14q55 12 74.5 31.5t19.5 66.5v1063q-51 78 -145.5 130t-166.5 52q-41 0 -72.5 -26.5
t-43.5 -69.5q-20 -74 -21 -340l271 15l-17 -156l-254 35v-690q0 -49 17.5 -72t68.5 -33l105 -20v-80l-383 10l-269 -10v80l60 14q55 14 75.5 33.5t20.5 64.5v692h-166z" />
    <glyph glyph-name="uniFB03" unicode="&#xfb03;" horiz-adv-x="2213" 
d="M51 874v117h166q4 221 146.5 378t381.5 157q72 0 138.5 -24.5t66.5 -71.5q0 -82 -58 -147.5t-118 -65.5q-8 0 -26.5 38.5t-51 78.5t-75.5 40q-33 0 -53.5 -15.5t-30 -54t-12.5 -78.5t-3 -116v-119h449q0 150 53 267.5t141 185t189.5 101.5t210.5 34q76 0 155.5 -24.5
t79.5 -71.5q0 -82 -67.5 -164t-124.5 -82q-8 0 -36 47t-71 95t-86 48q-35 0 -69.5 -23.5t-49.5 -72.5q-20 -74 -20 -340l455 13q57 2 110 14t78 24l25 13h90q-4 -150 -4 -348v-525q0 -47 18 -66.5t74 -31.5l61 -14v-80l-305 10l-309 -10v80l59 14q55 14 75.5 33.5t20.5 64.5
v547q0 70 -17 98.5t-83 32.5l-348 25v-690q0 -49 17.5 -72t68.5 -33l104 -20v-80l-383 10l-268 -10v80l59 14q55 14 76 33.5t21 64.5v692h-449v-679q0 -49 17.5 -72t68.5 -33l105 -20v-80l-383 10l-269 -10v80l60 14q55 14 75.5 33.5t20.5 64.5v692h-166z" />
    <glyph glyph-name="uniFB04" unicode="&#xfb04;" horiz-adv-x="2217" 
d="M51 874v117h166q4 221 146.5 378t381.5 157q72 0 138.5 -24.5t66.5 -71.5q0 -82 -58 -147.5t-118 -65.5q-8 0 -26.5 38.5t-51 78.5t-75.5 40q-33 0 -53.5 -15.5t-30 -54t-12.5 -78.5t-3 -116v-119h449q0 150 50 266.5t134 185t182.5 102.5t206.5 34q219 0 361 -82l59 49
h74q-6 -338 -6 -622v-742q0 -47 19.5 -66.5t74.5 -31.5l67 -14v-80l-315 10l-309 -10v80l61 14q55 12 74.5 31.5t19.5 66.5v1063q-51 78 -145 130t-166 52q-41 0 -72.5 -26.5t-44.5 -69.5q-20 -74 -20 -340l270 15l-16 -156l-254 35v-690q0 -49 17.5 -72t68.5 -33l104 -20
v-80l-383 10l-268 -10v80l59 14q55 14 76 33.5t21 64.5v692h-449v-679q0 -49 17.5 -72t68.5 -33l105 -20v-80l-383 10l-269 -10v80l60 14q55 14 75.5 33.5t20.5 64.5v692h-166z" />
    </font>
</defs>
</svg>
