<?xml version="1.0" standalone="no"?>
<!DOCTYPE svg PUBLIC "-//W3C//DTD SVG 1.1//EN" "http://www.w3.org/Graphics/SVG/1.1/DTD/svg11.dtd" >
<svg xmlns="http://www.w3.org/2000/svg" xmlns:xlink="http://www.w3.org/1999/xlink" version="1.1">
<metadata>
Created by FontForge 20170731 at Sun Dec 11 23:00:25 2011
 By Aleksey,,,
Copyright (c) 2011 by Henrik Kubel, A2/SW/HK. All rights reserved.
</metadata>
<defs>
<font id="Antwerp-Italic" horiz-adv-x="1208" >
  <font-face 
    font-family="Antwerp"
    font-weight="400"
    font-style="italic"
    font-stretch="normal"
    units-per-em="2048"
    panose-1="2 0 5 5 7 0 0 9 0 3"
    ascent="1536"
    descent="-512"
    x-height="1010"
    cap-height="1444"
    bbox="-430 -569 2593 1985"
    underline-thickness="40"
    underline-position="-391"
    slope="-12"
    unicode-range="U+0020-FB04"
  />
<missing-glyph horiz-adv-x="481" 
 />
    <glyph glyph-name=".notdef" horiz-adv-x="481" 
 />
    <glyph glyph-name=".null" horiz-adv-x="0" 
 />
    <glyph glyph-name="nonmarkingreturn" horiz-adv-x="682" 
 />
    <glyph glyph-name="space" unicode=" " horiz-adv-x="512" 
 />
    <glyph glyph-name="exclam" unicode="!" horiz-adv-x="657" 
d="M55 141.5q0 71.5 50.5 121.5t120 50t119.5 -50t50 -121.5t-49 -122t-120.5 -50.5t-121 50.5t-49.5 122zM285 487q74 291 104 654q8 74 13.5 108.5t17.5 84.5t30.5 73t49 40t75.5 17q63 0 100.5 -40t37.5 -101q0 -16 -2 -32.5t-10 -38.5l-11 -33q-4 -12 -17.5 -39
t-16.5 -35t-21.5 -42t-20.5 -38q-164 -315 -258 -594z" />
    <glyph glyph-name="quotedbl" unicode="&#x22;" horiz-adv-x="968" 
d="M176 829l219 635h301l-424 -635h-96zM629 829l219 635h301l-424 -635h-96z" />
    <glyph glyph-name="numbersign" unicode="#" 
d="M104 506l19 90h295l57 272h-295l17 90h295l96 476h92l-96 -476h268l96 476h96l-96 -476h291l-18 -90h-291l-56 -272h291l-18 -90h-291l-102 -506h-97l103 506h-268l-101 -506h-92l100 506h-295zM510 596h268l56 272h-267z" />
    <glyph glyph-name="dollar" unicode="$" 
d="M25 57q88 168 147 404l111 24l-25 -340q45 -43 129 -61l195 598q-68 59 -98.5 90t-77 87t-65.5 110.5t-19 115.5q0 178 141 277.5t350 99.5h23l82 250h81l-84 -256q207 -23 302 -82q-68 -143 -123 -336h-86l-11 295q-72 23 -112 29l-160 -494q10 -10 52 -47t57 -51
l50 -50q36 -36 50 -56.5t38.5 -56.5t35 -65.5t19.5 -67.5t9 -77q0 -205 -159.5 -316.5t-393.5 -111.5q-35 0 -51 2l-100 -313h-82l102 317q-196 21 -327 82zM465 70q20 -2 59 -2q131 0 213 74.5t82 185.5q0 82 -45 150.5t-129 146.5zM545 1155q0 -106 117 -227l143 440
q-115 -2 -187.5 -56.5t-72.5 -156.5z" />
    <glyph glyph-name="percent" unicode="%" horiz-adv-x="1585" 
d="M25 37l1609 1423l52 -61l-1610 -1428zM260 987q0 47 8 88q31 162 131.5 270.5t231.5 108.5q109 0 171 -77t62 -193q0 -45 -8 -86q-33 -160 -133 -269.5t-231 -109.5q-109 0 -170.5 75.5t-61.5 192.5zM410 905q0 -113 79 -112q127 0 203 337q20 82 21 144q0 111 -78 110
q-129 0 -205 -340q-20 -78 -20 -139zM848 238q0 47 8 88q33 162 132 270.5t233 108.5q109 0 172 -77t63 -194q0 -45 -8 -86q-33 -160 -134.5 -269.5t-232.5 -109.5q-109 0 -171 76t-62 193zM999 156q0 -113 80 -113q127 0 203 338q20 82 21 143q0 109 -78 109
q-129 0 -205 -338q-21 -78 -21 -139z" />
    <glyph glyph-name="ampersand" unicode="&#x26;" horiz-adv-x="2207" 
d="M100 397q0 238 114 459t289 353t353 132q74 0 129 -40.5t55 -112.5t-54 -141.5t-155 -98.5q317 10 365 19l78 278h205l-105 -303l234 21l-66 -99l-188 8l-240 -749h-2l8 -17q147 35 283 185l37 -45q-57 -98 -199.5 -187.5t-261.5 -89.5q-37 0 -62.5 15.5t-25.5 42.5
q0 18 16.5 75.5t48 152.5t61.5 185t75 220.5t71 209.5l-731 -4q-88 -184 -88 -405q0 -358 205 -555t504 -197q139 0 275 43t260 132t218.5 214t150.5 302.5t56 381.5q0 240 -116.5 439.5t-286.5 199.5q-63 0 -105.5 31t-42.5 90q0 57 38 91t93 34q141 0 263 -129t190 -326.5
t68 -404.5q0 -248 -82 -473t-227.5 -394t-360.5 -269.5t-467 -100.5q-213 0 -383 68.5t-276.5 185.5t-162 263t-55.5 310zM459 940h149q135 0 217 79t82 161q0 96 -94 96q-84 0 -182 -96.5t-172 -239.5z" />
    <glyph glyph-name="quotesingle" unicode="'" horiz-adv-x="516" 
d="M176 829l219 635h301l-424 -635h-96z" />
    <glyph glyph-name="parenleft" unicode="(" horiz-adv-x="649" 
d="M96 379q0 375 207 687t563 505l47 -45q-289 -190 -459.5 -560t-170.5 -745q0 -336 118 -514l-53 -39q-113 106 -182.5 301t-69.5 410z" />
    <glyph glyph-name="parenright" unicode=")" horiz-adv-x="647" 
d="M-193 -285q289 188 460 552t171 734q0 342 -119 533l54 37q113 -106 182.5 -300t69.5 -409q0 -375 -206 -687t-564 -507z" />
    <glyph glyph-name="asterisk" unicode="*" 
d="M211 854l76 121l395 8l-317 234l2 143l151 18l205 -350l47 406l131 61l72 -125l-195 -356l371 166l115 -99l-76 -125h-406l330 -235l-4 -148l-152 -16l-211 352l-40 -405l-132 -64l-73 125l192 357l-366 -172z" />
    <glyph glyph-name="plus" unicode="+" 
d="M195 686l30 98h404l129 441h114l-129 -441h408l-29 -98h-407l-129 -442h-115l129 442h-405z" />
    <glyph glyph-name="comma" unicode="," horiz-adv-x="589" 
d="M-129 -276q156 53 232.5 127.5t76.5 156.5q0 111 -162 158q0 57 58.5 117.5t109.5 60.5q70 0 138.5 -63.5t68.5 -159.5q0 -90 -45 -167t-121.5 -131t-154.5 -90t-170 -65z" />
    <glyph glyph-name="hyphen" unicode="-" horiz-adv-x="761" 
d="M141 494l52 151h477l-52 -151h-477z" />
    <glyph glyph-name="period" unicode="." horiz-adv-x="561" 
d="M25 141.5q0 71.5 50 121.5t122 50q70 0 120 -50t50 -121.5t-49.5 -122t-121 -50.5t-121.5 50.5t-50 122z" />
    <glyph glyph-name="slash" unicode="/" horiz-adv-x="935" 
d="M-137 -238l1265 1946l72 -43l-1266 -1946z" />
    <glyph glyph-name="zero" unicode="0" 
d="M139 451q0 213 90 441t253 391t343 163q182 0 271.5 -137.5t89.5 -341.5q0 -240 -93.5 -471.5t-252 -379t-334.5 -147.5q-184 0 -275.5 135.5t-91.5 346.5zM346 291q0 -238 170 -238q203 0 381 594q96 324 96 488q0 227 -162 227q-104 0 -199 -132t-192 -448
q-94 -298 -94 -491z" />
    <glyph glyph-name="one" unicode="1" 
d="M145 -14l23 90l145 24q102 16 127 93q43 129 170 549.5t140 480.5q14 66 -7 65q-27 0 -294 -51l30 104l475 125l90 -30q-16 -53 -167.5 -551t-202.5 -692q-20 -82 43 -93l188 -24l-20 -86l-381 10z" />
    <glyph glyph-name="two" unicode="2" 
d="M-6 -6l33 143q528 381 667 504q131 117 199 221.5t68 237.5q0 119 -66 187.5t-190 68.5q-51 0 -103.5 -23.5t-54.5 -64.5l4 -250l-59 -31q-82 10 -139.5 63.5t-57.5 125.5q0 98 121 187t336 89q197 0 332 -92t135 -254q0 -150 -95.5 -257.5t-320.5 -262.5l-539 -379
l778 12l-106 -219h-711q-198 0 -231 -6z" />
    <glyph glyph-name="three" unicode="3" 
d="M45 233q0 82 61.5 133.5t147.5 51.5q23 0 35 -2l35 -51q-12 -41 -24.5 -95.5t-20 -88.5t-7.5 -36q0 -39 59.5 -65.5t123.5 -26.5q172 0 264 102.5t92 241.5q0 135 -109.5 226.5t-316.5 105.5l35 127q68 -6 125 -6q170 0 267 79t97 181q0 90 -63.5 154.5t-188.5 64.5
q-143 0 -284 -86l-35 72q178 141 416 141q180 0 285.5 -91t105.5 -216q0 -147 -122 -242.5t-288 -99.5q131 -31 223.5 -130t92.5 -241q0 -207 -161 -337t-409 -130q-176 0 -306 71.5t-130 192.5z" />
    <glyph glyph-name="four" unicode="4" 
d="M27 408l28 104q31 39 204 219t383 397.5t290 305.5h242q-852 -784 -990 -920h514l17 55q51 174 59 256l262 -6l-110 -307h223l-37 -104h-217l-66 -228q-16 -47 -5.5 -69.5t59.5 -32.5l90 -19l-29 -75l-307 12l-279 -10l25 80l90 18q57 10 86 31.5t43 66.5l64 224z" />
    <glyph glyph-name="five" unicode="5" 
d="M74 231q0 80 61.5 132.5t147.5 52.5q23 0 34 -2l35 -49q-45 -174 -49 -220q0 -43 52.5 -68.5t133.5 -25.5q158 0 253.5 97.5t95.5 232.5q0 176 -145.5 285.5t-416.5 136.5l224 629l774 20q-12 -41 -72 -229q-70 -10 -264 -11q-78 0 -248 3.5t-174 3.5l-78 -224
q121 -16 226.5 -54t194.5 -100.5t140.5 -160.5t51.5 -219q0 -209 -158 -350.5t-387 -141.5q-182 0 -307 71.5t-125 190.5z" />
    <glyph glyph-name="six" unicode="6" 
d="M119 489q0 209 104.5 395.5t272.5 313.5t372.5 206t409.5 91l20 -72q-233 -51 -466.5 -195.5t-407.5 -385.5l20 -15q109 113 279 113q188 0 295.5 -123t107.5 -303q0 -217 -152.5 -381t-379.5 -164t-351 143.5t-124 376.5zM342 373q0 -127 54.5 -220.5t176.5 -93.5
q135 0 224.5 144.5t89.5 326.5q0 127 -57.5 215.5t-172.5 88.5q-141 0 -228 -137.5t-87 -323.5z" />
    <glyph glyph-name="seven" unicode="7" 
d="M207 12q106 170 263 377t275.5 346t263 303t169.5 193l-7 8q-133 -53 -407 -53h-451l58 237l950 -2v-143q-70 -94 -178.5 -247.5t-335.5 -506t-326 -561.5z" />
    <glyph glyph-name="eight" unicode="8" 
d="M78 358q0 297 418 402q-195 145 -195 334q0 162 133 261t320 99q199 0 314.5 -93t115.5 -239q0 -121 -91.5 -212t-277.5 -119q262 -186 262 -416q0 -160 -137 -284t-397 -124q-193 0 -329 106.5t-136 284.5zM291 342q0 -125 84 -204t217 -79q111 0 188.5 71t77.5 181
q0 106 -76.5 197.5t-224.5 191.5q-115 -43 -190.5 -142t-75.5 -216zM524 1143q0 -82 55.5 -151.5t170.5 -149.5q119 33 185 111.5t66 179.5q0 96 -65.5 163.5t-175.5 67.5q-98 0 -167 -59.5t-69 -161.5z" />
    <glyph glyph-name="nine" unicode="9" 
d="M33 2q233 51 466.5 194.5t407.5 387.5l-20 12q-109 -113 -279 -113q-188 0 -295.5 123t-107.5 303q0 217 152.5 382t380 165t351 -144.5t123.5 -377.5q0 -209 -104 -395.5t-272 -313.5t-373 -204.5t-410 -90.5zM444 893q0 -127 57.5 -215t172.5 -88q141 0 228 137t87 326
q0 125 -54 218t-177 93q-135 0 -224.5 -143.5t-89.5 -327.5z" />
    <glyph glyph-name="colon" unicode=":" horiz-adv-x="634" 
d="M37 141.5q0 71.5 50 121.5t120 50q72 0 122 -50t50 -121.5t-50 -122t-122 -50.5t-121 50.5t-49 122zM248 809q0 72 50 122t122 50q70 0 120 -50t50 -122t-49 -122t-121 -50t-122 50t-50 122z" />
    <glyph glyph-name="semicolon" unicode=";" horiz-adv-x="632" 
d="M-131 -276q158 53 234.5 127.5t76.5 156.5q0 109 -162 158q0 57 57.5 117.5t108.5 60.5q70 0 139.5 -63.5t69.5 -159.5q0 -90 -45 -167t-121.5 -131t-155.5 -91t-171 -64zM250 809q0 72 50 122t122 50q70 0 120 -50t50 -122t-49 -122t-121 -50t-122 50t-50 122z" />
    <glyph glyph-name="less" unicode="&#x3c;" 
d="M147 662l46 145l1034 375l-35 -113l-930 -330l-10 -30l717 -326l-33 -96z" />
    <glyph glyph-name="equal" unicode="=" 
d="M145 506l27 90h911l-26 -90h-912zM252 868l24 90h912l-27 -90h-909z" />
    <glyph glyph-name="greater" unicode="&#x3e;" 
d="M117 287l35 112l931 328l11 33l-717 330l31 92l790 -375l-47 -145z" />
    <glyph glyph-name="question" unicode="?" horiz-adv-x="915" 
d="M166 141.5q0 71.5 50 121.5t122 50q70 0 120 -50t50 -121.5t-49 -122t-121 -50.5t-122 50.5t-50 122zM297 1159q0 117 98.5 211t255.5 94q164 0 255 -92t91 -209q0 -111 -57 -194.5t-138 -132t-163 -87t-139.5 -80.5t-57.5 -91q0 -31 20.5 -50.5t49.5 -19.5q76 0 94 92
l49 -16q-8 -74 -56 -111t-107 -37q-63 0 -112.5 43t-49.5 115t45 128t109.5 96t130 80t110.5 98.5t45 131.5q0 90 -59.5 143.5t-143.5 53.5q-88 0 -145 -54t-62 -130q33 37 84 37q41 0 67 -28t26 -67q0 -41 -29 -69.5t-76 -28.5q-55 0 -95 48t-40 126z" />
    <glyph glyph-name="at" unicode="@" horiz-adv-x="2091" 
d="M106 401q0 199 79 388.5t216.5 339t345 240.5t447.5 91q377 0 606.5 -215t229.5 -524q0 -319 -218.5 -535.5t-515.5 -216.5q-111 0 -110 86q0 72 155 457l-14 10q-317 -553 -541 -553q-162 0 -161 193q0 104 47 247.5t122.5 278.5t187.5 229.5t226 94.5q141 0 238 -119
l43 90q49 25 117 25q53 0 69 -11q-123 -373 -295 -925q229 12 386 207.5t157 437.5q0 203 -102.5 353.5t-263 224t-351.5 73.5q-162 0 -314.5 -61.5t-278.5 -175t-201.5 -293t-75.5 -396.5q0 -350 222 -588.5t618 -238.5q358 0 585 149l31 -73q-319 -207 -705 -207
q-258 0 -478 105.5t-361.5 318t-141.5 493.5zM836 168q0 -23 13 -38t34 -15q82 0 269 249.5t243 407.5q-14 68 -60.5 116t-93.5 48q-90 0 -189.5 -154.5t-157.5 -334t-58 -279.5z" />
    <glyph glyph-name="A" unicode="A" horiz-adv-x="1519" 
d="M-176 -10l24 78l105 20q51 8 80.5 28.5t64.5 67.5q430 571 940 1264l185 39q10 -1032 22 -1301q2 -47 16.5 -68.5t57.5 -29.5l92 -20l-27 -78l-319 10l-326 -10l25 78l115 20q63 12 92.5 33.5t32.5 64.5v105l-3 295h-479l-276 -400q-22 -30 -22 -51q0 -36 63 -47l121 -20
l-27 -78l-328 10zM586 680h418l-3 575z" />
    <glyph glyph-name="B" unicode="B" horiz-adv-x="1474" 
d="M-55 -10q18 59 22 78l109 20q57 10 85.5 31.5t45.5 66.5q63 190 166 529q154 512 153 567q0 29 -17 41t-58 20l-103 21l27 80l301 -10q98 8 360 8q156 0 271.5 -85t115.5 -224q0 -170 -119.5 -272.5t-306.5 -127.5l-2 -14q131 -33 228.5 -125t97.5 -223
q0 -166 -145.5 -277.5t-368.5 -111.5h-29q-100 0 -189 3t-185.5 8t-151.5 7zM444 160q0 -57 41 -77t133 -20h101q162 0 261 85t99 243q0 133 -92 219t-239 90l-158 5q-27 -90 -75 -263.5t-54 -193.5q-17 -57 -17 -88zM625 817q115 -43 229 -43q150 0 251 88t101 246
q0 115 -77.5 181.5t-202.5 66.5q-100 0 -156 -6z" />
    <glyph glyph-name="C" unicode="C" horiz-adv-x="1605" 
d="M174 631q0 168 64.5 319.5t179 265t283.5 181t366 67.5q125 0 266.5 -30.5t239.5 -77.5l170 26l-150 -424l-92 -4l2 150q0 86 -61.5 148.5t-154.5 90t-204 27.5q-297 0 -489.5 -198.5t-192.5 -503.5q0 -248 161 -417t458 -169q76 0 147 20l193 314l80 -8
q-53 -201 -80 -363q-268 -76 -479 -76q-309 0 -508 184.5t-199 477.5z" />
    <glyph glyph-name="D" unicode="D" horiz-adv-x="1787" 
d="M-51 -6l20 74l113 20q57 10 85 31.5t42 66.5q61 190 164 529q102 338 149 528q6 24 6 41q0 20 -8 30q-14 19 -67 29l-103 21l27 80l334 -10q248 16 364 16q291 0 480.5 -175t189.5 -452q0 -367 -270.5 -606.5t-669.5 -239.5q-68 0 -547 23zM444 172q0 -57 57.5 -78.5
t170.5 -21.5h106q334 0 526.5 203.5t192.5 519.5q0 252 -146.5 407.5t-389.5 155.5h-142q-35 0 -45 -33q-63 -215 -179 -614.5t-140 -481.5q-11 -37 -11 -57z" />
    <glyph glyph-name="E" unicode="E" horiz-adv-x="1490" 
d="M-53 -10l22 78l113 20q57 10 85 31.5t42 66.5q61 190 164 529q102 338 149 528q6 24 6 41q0 20 -8 30q-14 19 -67 29l-103 21l27 80l303 -10h514l326 22q-53 -125 -160 -416h-80l6 101q1 23 2 43q0 68 -16 104q-20 47 -80 47h-379q-33 0 -43 -32l-158 -525q115 0 236 6
q53 4 81.5 23.5t59.5 77.5l58 112h75l-84 -282l-57 -250h-76l6 117q1 11 1 20q0 41 -14 57q-17 20 -69 23l-243 6l-133 -461q-9 -30 -10 -52q0 -27 14 -45q25 -32 100 -32h346q82 0 145.5 31t151.5 129l143 176h80l-202 -444q-266 10 -385 10h-580z" />
    <glyph glyph-name="F" unicode="F" horiz-adv-x="1380" 
d="M-53 -10l22 78l111 20q57 10 83.5 30.5t43.5 67.5q63 190 166 529q102 338 149 528q6 25 6 41q0 27 -17 39t-58 20l-103 21l27 80l303 -10h573l326 22q-53 -125 -158 -416h-82q4 90 4 140q0 80 -20 117.5t-72 37.5h-436q-16 0 -24.5 -4t-11.5 -10t-7 -18
q-23 -78 -83 -272.5t-91 -301.5q233 2 352 8q53 4 82 23.5t60 77.5l57 112h76l-84 -282l-58 -250h-75q6 123 6 137q0 45 -17.5 60.5t-64.5 19.5l-359 8l-131 -457q-8 -29 -8 -41q0 -45 74 -57l127 -20l-21 -78l-348 10z" />
    <glyph glyph-name="G" unicode="G" horiz-adv-x="1738" 
d="M174 631q0 168 64.5 319.5t179 265t283.5 181t366 67.5q125 0 266.5 -30.5t239.5 -77.5l170 26l-150 -424l-92 -4q2 47 2 150q0 129 -124 197.5t-296 68.5q-303 0 -492.5 -197.5t-189.5 -504.5q0 -106 34 -206t103.5 -187t191.5 -139t282 -52q86 0 188 20l86 334
q6 19 6 34q0 46 -53 52l-192 27l28 88l338 -14l318 16l-33 -88l-41 -6q-86 -12 -108.5 -27.5t-39.5 -77.5q-57 -205 -94 -350q-78 -55 -232.5 -89t-301.5 -34q-309 0 -508 184.5t-199 477.5z" />
    <glyph glyph-name="H" unicode="H" horiz-adv-x="1835" 
d="M-53 -10l22 78l113 20q55 10 84 31.5t43 66.5q61 190 164 529q102 338 149 528q7 24 7 41q0 18 -8 29q-15 20 -66 30l-125 21l28 80l336 -10l330 10l-27 -80l-114 -21q-59 -10 -86 -30.5t-43 -69.5q-53 -166 -144 -463h776q90 297 130 463q7 27 7 45q0 17 -6 26
q-13 19 -65 29l-104 21l28 80l310 -10l333 10l-26 -80l-113 -21q-61 -10 -89 -30.5t-42 -69.5q-57 -190 -160 -528l-151 -529q-6 -22 -6 -37q0 -19 8 -30q14 -20 65 -31l125 -20l-26 -78l-336 10l-328 -10l25 78l112 20q57 10 85 30.5t44 67.5q59 180 152 500h-774
l-142 -500q-6 -23 -6 -39t6 -27q12 -22 64 -32l147 -20l-24 -78l-359 10z" />
    <glyph glyph-name="I" unicode="I" horiz-adv-x="835" 
d="M-53 -10l22 78l111 20q57 10 85 31.5t44 66.5q61 190 164 529q100 338 149 528q6 24 6 41q0 20 -8 31q-14 20 -65 28l-125 21l28 80l326 -10l340 10l-27 -80l-114 -21q-61 -10 -86 -29.5t-43 -70.5q-61 -190 -162 -528q-100 -338 -150 -529q-6 -23 -6 -39q0 -18 7 -29
q13 -22 65 -30l125 -20l-25 -78l-338 10z" />
    <glyph glyph-name="J" unicode="J" horiz-adv-x="1394" 
d="M147 -197q0 53 35 90t88 37q45 0 78 -31.5t33 -78.5q0 -45 -31 -76t-82 -33q8 -27 52.5 -48t85.5 -21q135 0 206 133q55 104 165 443t155 462h-285l33 94h285q45 135 119.5 253t142.5 171l-2 16q-98 -39 -240 -38q-94 0 -274.5 43t-235.5 43q-74 0 -133 -50.5t-63 -115.5
q35 35 86 34q41 0 71.5 -27.5t30.5 -64.5q0 -49 -33 -78.5t-74 -29.5q-68 0 -109.5 54t-41.5 136q0 135 93 245t276 110q104 0 214.5 -41t225.5 -90.5t207 -61.5q0 211 145 211q47 0 81 -33t34 -78q0 -106 -139 -147q-25 -35 -43.5 -68.5t-29.5 -56.5t-26.5 -71t-21.5 -66.5
t-26.5 -93t-29.5 -105.5h240l-29 -94h-235q-25 -80 -103.5 -349.5t-115.5 -367.5q-70 -186 -178.5 -290.5t-298.5 -104.5q-123 0 -212.5 69.5t-89.5 165.5z" />
    <glyph glyph-name="K" unicode="K" horiz-adv-x="1622" 
d="M-53 -10q14 35 26 78l109 20q55 10 83 31.5t44 66.5q61 190 164 529q154 508 153 567q0 29 -16 42t-55 19l-123 21l26 80l330 -10l338 10l-27 -80l-114 -21q-61 -10 -88 -29.5t-43 -70.5q-51 -166 -144 -463h215q207 174 467 443q39 39 39 73q0 31 -65 47l-97 21l29 80
l309 -10l277 10l-29 -80l-98 -23q-53 -12 -106.5 -45.5t-159.5 -128.5q-360 -317 -504 -446l373 -522q45 -63 108.5 -95t177.5 -41l-43 -71h-166q-113 0 -168 16.5t-82 59.5q-156 256 -409 618h-92q-68 -221 -137 -475q-12 -43 -13 -66q0 -45 72 -57l131 -20l-25 -78
l-340 10z" />
    <glyph glyph-name="L" unicode="L" horiz-adv-x="1351" 
d="M-53 -10l24 78l111 20q57 10 85 31.5t42 66.5q61 190 164 529l149 526q6 25 6 43q0 27 -16 39t-57 20l-113 21l25 80l327 -10l334 10l-27 -80l-114 -21q-61 -10 -89 -30.5t-44 -69.5q-59 -190 -160 -528q-88 -289 -139 -492q-8 -33 -9 -53q0 -72 117 -72h225q86 0 151 31
t146 129l146 176h78l-191 -444q-276 10 -395 10h-467z" />
    <glyph glyph-name="M" unicode="M" horiz-adv-x="2217" 
d="M-119 -10l27 78l110 20q55 10 79 29.5t48 68.5q45 90 162 354.5t213 483.5l94 219q9 26 9 44q0 16 -7 26q-14 20 -65 30l-115 21l29 80l295 -10l190 10l92 -1159l756 1071q27 39 29 88l217 -10l313 10l-26 -80l-111 -21q-63 -12 -91 -31.5t-40 -68.5q-33 -123 -94.5 -387
t-106.5 -467l-45 -203q-4 -20 -4 -36q0 -20 7 -32q13 -22 65 -30l139 -20l-25 -78l-360 10l-334 -10l25 78l114 20q61 10 89 30.5t40 67.5l273 1108l-920 -1306h-106q-8 98 -28.5 360t-41 502t-43.5 440q-346 -827 -452 -1104q-9 -25 -9 -42q0 -15 7 -25q14 -20 69 -31
l141 -20l-24 -78l-322 10z" />
    <glyph glyph-name="N" unicode="N" horiz-adv-x="1728" 
d="M-66 -10l23 78l113 20q57 10 83.5 30.5t43.5 67.5q180 543 331 1057q7 24 8 42q0 17 -7 28q-13 23 -64 30l-119 21l27 80l278 -10l191 10q12 -96 37 -150l432 -972q31 98 227 921q6 24 6 41q0 18 -7 29q-13 20 -64 30l-105 21l29 80l270 -10l268 10l-26 -80l-115 -21
q-61 -10 -88 -30.5t-41 -69.5q-147 -537 -358 -1253h-99q-152 365 -296 685t-212 458l-67 137q-227 -813 -303 -1084q-7 -24 -7 -40.5t7 -27.5q14 -22 65 -30l146 -20l-27 -78l-324 10z" />
    <glyph glyph-name="O" unicode="O" horiz-adv-x="1697" 
d="M158 567q0 231 117.5 437t328.5 333t463 127q248 0 424 -160.5t176 -437.5q0 -231 -116.5 -437t-326.5 -333t-460 -127q-252 0 -429 161t-177 437zM391 520q0 -215 118 -333.5t302 -118.5q162 0 289 91t196.5 228t105.5 273.5t36 250.5q0 213 -120 333t-302 120
q-131 0 -240.5 -61.5t-178.5 -154.5t-117 -210t-68.5 -222.5t-20.5 -195.5z" />
    <glyph glyph-name="P" unicode="P" horiz-adv-x="1392" 
d="M-53 -10l24 78l111 20q55 10 81.5 30.5t45.5 67.5q61 190 164 529q100 338 149 528q6 25 6 43q0 27 -16 39t-57 18l-125 21l28 80l414 -8q123 20 221 20q223 0 348 -124t125 -304q0 -199 -131 -329t-325 -130q-137 0 -214 60.5t-77 132.5q0 41 25.5 67.5t64.5 26.5
q33 0 54.5 -22.5t21.5 -53.5q0 -37 -23.5 -61.5t-56.5 -30.5q68 -37 133 -37q125 0 214 99.5t89 271.5q0 94 -35 164.5t-88 105.5t-105 50.5t-102 15.5h-69q-51 0 -78 -59.5t-105 -342.5l-67 -241q-139 -483 -141 -492q-14 -55 -15 -78q0 -45 74 -57l137 -20l-26 -78
l-351 10z" />
    <glyph glyph-name="Q" unicode="Q" horiz-adv-x="1591" 
d="M98 150q0 78 69 132t193 54q236 0 496 -193q215 100 350 290t135 429q0 252 -132 377t-320 125q-225 0 -347 -134t-122 -315q0 -154 87 -263t236 -109q80 0 147.5 49t67.5 117q0 61 -39.5 95t-88 43t-88.5 41t-40 93q0 43 36 80t93 37q104 0 166 -98.5t62 -192.5
q0 -156 -104.5 -260.5t-272.5 -104.5q-211 0 -340 130t-129 323q0 106 43 205.5t126 181.5t220 132t311 50t322.5 -68.5t246 -210t97.5 -327.5q0 -139 -65.5 -268t-171 -223.5t-211 -161t-211.5 -109.5q18 -10 173.5 -114.5t255 -164t251 -119.5t262.5 -60q86 0 86 65
q0 18 -21.5 65.5t-21.5 75.5q0 35 22.5 59.5t65.5 24.5q45 0 75.5 -32.5t30.5 -83.5q0 -125 -134 -222.5t-312 -97.5q-88 0 -172 24.5t-147.5 59.5t-140.5 96.5t-128 110.5t-133 129t-133 127q-76 -37 -193 -65.5t-217 -28.5q-125 0 -208 50.5t-83 154.5zM276 150
q0 -59 54.5 -91t134.5 -32q72 0 153.5 21.5t124.5 45.5q-66 72 -161 118t-170 46q-57 0 -96.5 -28.5t-39.5 -79.5z" />
    <glyph glyph-name="R" unicode="R" horiz-adv-x="1548" 
d="M-53 -10l24 78l111 20q55 10 81.5 30.5t45.5 67.5q61 190 164 529q102 338 149 528q4 33 4 39q0 49 -71 61l-125 21l28 80l324 -6q68 0 115 2q6 0 43 4t92 8t104 4q147 0 264 -98t117 -248q0 -72 -27.5 -140.5t-84 -130t-155.5 -104.5t-230 -55q178 -270 323 -481
q43 -63 105.5 -95t177.5 -41l-43 -71h-166q-113 0 -168 16.5t-82 59.5q-334 530 -377 594q-76 0 -112 2q-94 -324 -136 -478q-4 -20 -4 -26q0 -57 76 -72l115 -20l-23 -78l-336 10zM606 772q102 -33 195 -33q150 0 261.5 98.5t111.5 249.5q0 131 -75 201t-202 70h-86
q-16 0 -24.5 -4t-11.5 -10.5t-7 -18.5z" />
    <glyph glyph-name="S" unicode="S" horiz-adv-x="1161" 
d="M12 57q88 168 148 404l110 24l-24 -340q84 -78 254 -77q135 0 221 70.5t86 189.5q0 72 -37 139.5t-92 117.5t-119.5 108.5t-120 111.5t-92.5 127t-37 153q0 178 141.5 278.5t350.5 100.5q117 0 236.5 -28.5t166.5 -59.5q-68 -143 -123 -336h-86l-10 295q-100 35 -188 35
q-117 0 -191 -55t-74 -160q0 -74 50.5 -146.5t123 -135t145.5 -129t123 -154.5t50 -184q0 -205 -161 -321t-392 -116q-266 0 -459 88z" />
    <glyph glyph-name="T" unicode="T" horiz-adv-x="1515" 
d="M205 1122q0 133 101.5 245t299.5 112q139 0 491.5 -85t458.5 -85q61 0 89 29.5t28 64.5q0 37 -27.5 79t-27.5 68q0 29 20.5 50.5t53.5 21.5q49 0 81.5 -36t32.5 -107q0 -119 -113.5 -206t-324.5 -87q-72 0 -215 16l-174 -530q-129 -393 -160 -506q-4 -16 -4 -27
q0 -43 64 -51l149 -20l-27 -78l-354 10l-332 -10l25 78l111 20q57 10 83.5 30.5t45.5 67.5q57 152 141 396q57 168 129 387l88 268l-178 27q-154 23 -271 22q-88 0 -147 -56t-61 -145q33 51 100 52q49 0 81 -33t32 -82t-38 -84t-87 -35q-68 0 -116 58.5t-48 160.5z" />
    <glyph glyph-name="U" unicode="U" horiz-adv-x="1746" 
d="M240 362q0 70 24 150l219 731q7 23 7 40q0 19 -9 30q-16 20 -67 30l-123 21l24 80l324 -10l342 10l-25 -80l-110 -21q-61 -10 -88 -30.5t-41 -69.5l-219 -727q-23 -80 -23 -137q0 -150 108.5 -222.5t262.5 -72.5q123 0 216 38t154.5 112.5t98.5 150.5t71 184
q104 324 195 674q6 23 6 39q0 19 -8 31q-14 20 -66 30l-122 21l26 80l289 -10l262 10l-22 -80l-117 -21q-59 -10 -86 -30.5t-41 -69.5l-211 -692q-43 -147 -97.5 -247.5t-137 -179.5t-202.5 -117t-282 -38q-238 0 -385 104.5t-147 288.5z" />
    <glyph glyph-name="V" unicode="V" horiz-adv-x="1511" 
d="M238 1364l28 80l289 -10l358 10l-28 -80l-121 -21q-66 -12 -91.5 -30.5t-27.5 -67.5q-20 -670 -20 -1069l735 1030q43 59 43 88q0 33 -72 49l-96 21l31 80l325 -10l230 10l-29 -80l-113 -21q-82 -14 -143 -96l-942 -1259l-203 -21l2 111q4 113 8.5 305t4.5 348
q0 336 -5 514q-2 47 -17 68.5t-56 29.5z" />
    <glyph glyph-name="W" unicode="W" horiz-adv-x="2287" 
d="M238 1364l30 80l291 -10l350 10l-26 -80l-121 -21q-61 -10 -89 -32.5t-30 -65.5l-49 -1093l625 829l4 264q0 47 -14.5 68.5t-57.5 29.5l-111 21l27 80l334 -8l358 8l-30 -80l-132 -21q-35 -6 -55 -12t-42.5 -20.5t-33 -42t-12.5 -70.5q-29 -946 -29 -1020l740 1067
q18 26 17 45q0 40 -73 53l-118 21l26 80l326 -10l250 10l-27 -80l-108 -21q-49 -8 -81 -29.5t-67 -66.5q-254 -334 -482.5 -649t-330.5 -463l-102 -147l-205 -21q27 678 27 879l-644 -858l-211 -21q6 175 19.5 465t20 479.5t6.5 337.5q0 78 -78 94z" />
    <glyph glyph-name="X" unicode="X" horiz-adv-x="1423" 
d="M-152 -10l29 78l96 20q76 14 156 90q289 276 561 553q-133 430 -166 514q-31 88 -102 98l-127 21l31 80l329 -10l336 10l-33 -82l-120 -19q-72 -12 -72 -75q0 -25 10 -66l31 -110l61 -226q82 82 169 174.5t134 143.5l46 51q39 39 38 72q0 29 -36 36l-93 21l31 80l246 -10
l268 10l-33 -80l-100 -21q-80 -14 -166 -98q-285 -264 -471 -457q78 -283 189 -610q27 -80 86 -90l122 -20q-27 -72 -30 -78l-301 10l-330 -10l31 78l102 20q84 14 84 64q0 12 -6 34l-131 457q-23 -23 -161 -168t-280 -291q-45 -41 -45 -63q0 -27 45 -33l142 -20l-31 -78
l-260 10z" />
    <glyph glyph-name="Y" unicode="Y" horiz-adv-x="1650" 
d="M213 1313q33 68 119 109.5t182 41.5q197 0 285 -140t88 -357q0 -147 -45 -332l28 -6q160 412 340.5 623.5t399.5 211.5q104 0 168.5 -56t64.5 -138q0 -63 -46 -124t-126 -91l-69 10q78 51 77 123q0 49 -32.5 79.5t-87.5 30.5q-127 0 -265 -137q-176 -174 -339.5 -515
t-163.5 -507q0 -27 12 -36t49 -15l123 -20l-27 -78l-309 10l-363 -10l25 78l119 20q63 10 92 30.5t45 67.5q49 141 88 340t39 355q0 446 -358 446l-97 -24z" />
    <glyph glyph-name="Z" unicode="Z" horiz-adv-x="1472" 
d="M-61 -8l26 94q152 137 373 346q479 449 932 901h-627q-59 0 -106.5 -45t-104.5 -147l-55 -101h-78l107 416q176 -23 292 -22l906 8l-27 -94q-588 -547 -1260 -1217q-6 -6 -8 -13t4 -13.5t21 -6.5h522q88 0 150.5 29t146.5 131l147 176h72l-201 -444q-266 10 -385 10h-557
z" />
    <glyph glyph-name="bracketleft" unicode="[" horiz-adv-x="700" 
d="M-53 -348l557 1898h473l-23 -77h-360q-2 -174 -39 -432.5t-88 -424.5q-152 -483 -367 -888h342l-22 -76h-473z" />
    <glyph glyph-name="backslash" unicode="\" horiz-adv-x="1107" 
d="M395 1729l78 18l377 -2015l-80 -15z" />
    <glyph glyph-name="bracketright" unicode="]" horiz-adv-x="696" 
d="M-211 -348l23 76h350q20 461 160 954q100 358 335 791h-342l25 77h473l-559 -1898h-465z" />
    <glyph glyph-name="asciicircum" unicode="^" horiz-adv-x="1105" 
d="M113 465l632 969h148l47 -969h-100l-31 872h-18l-560 -872h-118z" />
    <glyph glyph-name="underscore" unicode="_" horiz-adv-x="1146" 
d="M-23 -346l35 119h670l-37 -119h-668z" />
    <glyph glyph-name="grave" unicode="`" horiz-adv-x="739" 
d="M348 1518h275l165 -375l-83 -13z" />
    <glyph glyph-name="a" unicode="a" horiz-adv-x="1144" 
d="M35 162q0 104 47 248.5t122 278.5t186.5 228.5t225.5 94.5q139 0 240 -119l43 90q45 25 115 25q55 0 71 -11q-213 -647 -282 -872l10 -19q45 14 118 79t111 124l37 -45q-49 -100 -173 -197.5t-220 -97.5q-94 0 -94 78q0 66 158 465l-13 10q-317 -553 -542 -553
q-160 0 -160 193zM244 168q0 -23 13 -38t36 -15q82 0 268.5 249.5t241.5 407.5q-14 68 -60.5 116t-93.5 48q-90 0 -189.5 -153.5t-157.5 -333t-58 -281.5z" />
    <glyph glyph-name="b" unicode="b" horiz-adv-x="1073" 
d="M51 160q0 39 29 142.5t83 265t98 285.5t112.5 315.5t87.5 242.5l-191 -14l15 59q215 94 436 94q-207 -539 -318 -837l-131 -359l15 -10q115 256 303 462t311 206q82 0 121 -51.5t39 -135.5q0 -180 -116 -381.5t-295 -338t-343 -136.5q-111 0 -183.5 57.5t-72.5 133.5z
M276 154q0 -39 33 -68t84 -29q84 0 194.5 131t188.5 301t78 277q0 82 -51 82q-84 0 -262.5 -235.5t-255.5 -417.5q-9 -18 -9 -41z" />
    <glyph glyph-name="c" unicode="c" horiz-adv-x="851" 
d="M47 270q0 121 52.5 253t136 239.5t201.5 178.5t241 71q100 0 158.5 -44t58.5 -114q0 -63 -62.5 -122.5t-130.5 -69.5l-45 34q43 127 43 185q0 47 -43 47q-86 0 -181 -101.5t-156.5 -247t-61.5 -266.5q0 -100 43 -153.5t117 -53.5t135 57.5t86 139.5l59 -47
q-27 -113 -126 -200t-246 -87q-109 0 -194 74.5t-85 226.5z" />
    <glyph glyph-name="d" unicode="d" horiz-adv-x="1159" 
d="M35 162q0 104 47 248.5t123 278.5t187.5 228.5t223.5 94.5q72 0 140.5 -34t113.5 -85l174 518l-186 -14l14 59q213 94 435 94q-59 -150 -232.5 -640t-259.5 -785l10 -19q45 14 118 79t114 124l37 -45q-51 -100 -174 -197.5t-220 -97.5q-94 0 -94 80q0 72 158 463l-14 10
q-137 -244 -284 -398.5t-269 -154.5q-162 0 -162 193zM246 168q0 -23 13 -38t34 -15q82 0 275.5 250.5t246.5 406.5q-12 66 -64.5 115t-101.5 49q-92 0 -190.5 -154.5t-155.5 -334t-57 -279.5z" />
    <glyph glyph-name="e" unicode="e" horiz-adv-x="872" 
d="M47 280.5q0 159.5 89 329.5t238.5 286t305.5 116q104 0 162.5 -48.5t58.5 -132.5q0 -129 -176 -233t-438 -121q-29 -86 -29 -168q0 -98 44 -150.5t116 -52.5q74 0 136 57.5t87 139.5l47 -45q-25 -113 -120 -201t-242 -88q-113 0 -196 76t-83 235.5zM311 549
q178 18 302 110.5t124 192.5q0 35 -23.5 58.5t-62.5 23.5q-96 0 -186.5 -111.5t-153.5 -273.5z" />
    <glyph glyph-name="f" unicode="f" horiz-adv-x="653" 
d="M-387 -399q0 47 35 82.5t92 35.5q20 0 39.5 -14t19.5 -39v-67q0 -53 41 -54q51 0 92 81t105 294l282 965h-184l25 73h184q211 633 594 633q86 0 135 -41t49 -96q0 -49 -36.5 -88t-116.5 -39q-25 0 -37 2q0 158 -92 158q-123 0 -287 -529l211 13l-43 -119l-189 33
l-251 -807q-102 -328 -220 -468t-284 -140q-78 0 -121 39t-43 92z" />
    <glyph glyph-name="g" unicode="g" horiz-adv-x="1017" 
d="M-184 -229q0 106 93 168.5t232 62.5q150 0 271 -35l6 17q-162 43 -232.5 96t-70.5 133q0 63 48 111.5t118 70.5q-158 96 -158 273q0 152 114.5 248t272.5 96q199 0 297 -119q12 27 86 60.5t172 33.5q6 0 22.5 -1t26.5 -1l-67 -194l-213 55q45 -63 45 -154
q0 -147 -106.5 -247.5t-280.5 -100.5q-90 0 -150 25q-72 -41 -72 -97q0 -63 113 -108q33 -12 103.5 -40t102.5 -41t87 -40t80.5 -49.5t55.5 -54t42 -69.5t12 -85q0 -156 -145.5 -241t-366.5 -85q-209 0 -373.5 85.5t-164.5 226.5zM-10 -248q0 -100 114.5 -161.5t266.5 -61.5
q135 0 221 47t86 133q0 59 -45 104.5t-113.5 68t-132 32.5t-117.5 10q-117 0 -198.5 -44t-81.5 -128zM322 594q0 -74 34.5 -127t102.5 -53q100 0 160.5 105.5t60.5 236.5q0 86 -37 135t-102 49q-100 0 -159.5 -108.5t-59.5 -237.5z" />
    <glyph glyph-name="h" unicode="h" horiz-adv-x="1138" 
d="M-6 -10l455 1421l-191 -14l14 59q209 92 430 96q-6 -18 -66.5 -197t-125 -366.5t-86.5 -255.5l-131 -379l14 -10q78 137 180.5 278.5t240.5 265.5t237 124q51 0 80.5 -31t29.5 -76q0 -53 -78.5 -243.5t-156.5 -360.5t-78 -176l6 -16q47 14 120 78.5t111 123.5l35 -47
q-49 -106 -178 -200.5t-231 -94.5q-41 0 -64.5 17.5t-23.5 44.5q0 53 164.5 406.5t164.5 389.5q0 23 -20 23q-76 0 -291 -268.5t-266 -378.5l-56 -168q-49 -51 -180 -51q-34 0 -59 6z" />
    <glyph glyph-name="i" unicode="i" horiz-adv-x="622" 
d="M45 27q0 47 156.5 431t156.5 404q0 27 -22 27q-53 0 -164 -133l-39 39q10 18 28.5 41.5t59.5 69.5t99.5 76t121.5 30q47 0 76 -33t29 -90q0 -20 -16.5 -72.5t-48 -137.5t-57.5 -149.5t-68 -167t-52 -131.5l-41 -104l8 -16q53 14 128 77.5t118 122.5l35 -45
q-49 -106 -185.5 -201.5t-238.5 -95.5q-39 0 -61.5 16.5t-22.5 41.5zM395 1368q0 59 42 102t101.5 43t102.5 -43t43 -102t-43 -101t-102.5 -42t-101.5 42t-42 101z" />
    <glyph glyph-name="j" unicode="j" horiz-adv-x="612" 
d="M-367 -399q0 49 36 83.5t93 34.5q20 0 39 -14t19 -39v-67q0 -53 41 -54q49 0 88 74t104 287q6 18 93 295.5t139.5 453.5t52.5 205q0 27 -25 27q-53 0 -161 -131l-41 39q10 16 29.5 42.5t60.5 70.5t101 74t124 30q49 0 76.5 -32t27.5 -89q0 -35 -29.5 -142.5t-88 -296
t-84.5 -280.5q-6 -20 -6 -41q0 -47 65 -59l51 -11l-14 -61h-150q-92 -285 -205.5 -407.5t-271.5 -122.5q-78 0 -121 39t-43 92zM379 1370.5q0 59.5 43 101t102 41.5q57 0 100.5 -41.5t43.5 -101t-42 -102.5t-101.5 -43t-102.5 43t-43 102.5z" />
    <glyph glyph-name="k" unicode="k" horiz-adv-x="1165" 
d="M-4 -10q178 575 455 1421l-193 -14l14 59q213 92 435 96q-135 -395 -273 -784l-145 -414l14 -10q51 106 114.5 209.5t148.5 213.5t186.5 177.5t197.5 67.5q78 0 127 -44t49 -118q0 -70 -49 -135.5t-122.5 -109.5t-142.5 -72.5t-124 -40.5q0 -4 -1 -14.5t-1 -16.5
q0 -57 6 -115.5t23.5 -130.5t56.5 -116t94 -44q53 0 90 45q-33 6 -57.5 33t-24.5 62q0 31 23 53t55 22q37 0 61.5 -27.5t24.5 -64.5q0 -109 -88 -179.5t-186 -70.5q-131 0 -190.5 112t-59.5 343q0 66 10 117l-53 18q-125 -186 -180 -305l-53 -178q-23 -25 -82.5 -38
t-110.5 -13q-31 0 -49 6zM504 569l149 -32q92 33 187.5 104.5t95.5 149.5q0 35 -20.5 56t-53.5 21q-66 0 -167 -87t-191 -212z" />
    <glyph glyph-name="l" unicode="l" horiz-adv-x="579" 
d="M23 27q0 63 450 1384l-205 -14l17 59q215 94 436 94l-287 -833l-194 -592l8 -14q53 14 130 77.5t118 120.5l34 -45q-51 -106 -186 -200.5t-242 -94.5q-73 1 -79 58z" />
    <glyph glyph-name="m" unicode="m" horiz-adv-x="1751" 
d="M43 -10q285 752 285 864q0 33 -25 33q-53 0 -162 -131l-39 39q10 18 29 41.5t59.5 69.5t99 76t122.5 30q57 0 88.5 -39t31.5 -99q0 -168 -194 -520l14 -10q61 106 127 205.5t154 212t179 181.5t167 69q55 0 84 -37t29 -90q0 -193 -199 -531l14 -10q53 94 133 203.5
t174.5 216t194.5 177.5t176 71q51 0 79 -30t28 -77q0 -121 -310 -772l-4 -8l6 -16q45 14 119 78.5t113 123.5l33 -47q-49 -106 -178.5 -200.5t-229.5 -94.5q-41 0 -65.5 17.5t-24.5 44.5q0 55 167 401t167 395q0 23 -21 23q-82 0 -287.5 -235.5t-295.5 -450.5
q-27 -63 -45 -133q-20 -20 -78 -34.5t-105 -14.5q-57 0 -63 20q10 29 91 217.5t145.5 362.5t64.5 237q0 31 -23 31q-74 0 -276.5 -265.5t-257.5 -381.5l-49 -168q-49 -51 -181 -51q-36 0 -61 6z" />
    <glyph glyph-name="n" unicode="n" horiz-adv-x="1187" 
d="M45 -10q283 752 283 866q0 33 -23 33q-53 0 -164 -133l-37 39q6 12 27 39.5t59.5 71.5t98 75t123.5 31q57 0 88.5 -39t31.5 -99q0 -168 -192 -520l14 -10q55 96 130 203.5t167 216t190.5 178.5t174.5 70q51 0 79.5 -30t28.5 -77q0 -53 -77.5 -242.5t-155.5 -359.5
t-78 -176l6 -16q45 14 118 77.5t112 122.5l36 -45q-51 -109 -180 -203t-229 -94q-41 0 -65.5 17.5t-24.5 44.5q0 53 166 406.5t166 389.5q0 23 -21 23q-76 0 -293 -268.5t-268 -376.5l-51 -170q-53 -51 -181 -51q-39 0 -59 6z" />
    <glyph glyph-name="o" unicode="o" horiz-adv-x="1001" 
d="M57 297q0 162 74 324.5t215 276.5t309 114q129 0 209 -91.5t80 -232.5q0 -121 -43 -247t-117.5 -231.5t-189.5 -173t-244 -67.5t-211 83t-82 245zM260 270q0 -84 34 -151.5t112 -67.5q90 0 170.5 116t122.5 269.5t42 282.5q0 209 -127 209q-94 0 -178 -113t-130 -263.5
t-46 -281.5z" />
    <glyph glyph-name="p" unicode="p" horiz-adv-x="1089" 
d="M-311 -520l30 80l78 14q59 12 86 30.5t45 67.5q23 61 400 1174q-119 -35 -215 -72l-11 74q53 23 250 88l99 299q98 16 127 16q27 0 75 -6l-92 -268q145 35 254 35q127 0 189.5 -73t62.5 -169q0 -160 -90 -345t-243.5 -320.5t-311.5 -135.5q-94 0 -176 47l-70 -215
q-49 -154 -49 -174q0 -25 20.5 -36t69.5 -17l119 -14l-31 -80l-317 8zM303 164q0 -45 64.5 -75t111.5 -30q80 0 168 111t145.5 271.5t57.5 297.5q0 170 -158 170q-63 0 -153 -20q-236 -696 -236 -725z" />
    <glyph glyph-name="q" unicode="q" horiz-adv-x="1077" 
d="M33 162q0 104 47 248.5t123 278.5t187.5 228.5t225.5 94.5q156 0 252 -119l43 90q45 25 115 25q55 0 72 -11l-64 -190l-403 -1174l8 -18q49 16 120.5 76.5t110.5 118.5l35 -46q-47 -100 -174 -197t-227 -97q-92 0 -92 79q0 61 119.5 377t232.5 586l-16 10
q-137 -244 -283 -398.5t-270 -154.5q-162 0 -162 193zM244 168q0 -23 13 -38t36 -15q82 0 276.5 250.5t245.5 406.5q-14 66 -65.5 115t-100.5 49q-90 0 -189.5 -153.5t-157.5 -333t-58 -281.5z" />
    <glyph glyph-name="r" unicode="r" horiz-adv-x="980" 
d="M45 -10q266 723 266 866q0 33 -22 33q-25 0 -65 -33t-68 -65l-29 -35l-39 39q135 217 309 217q57 0 88 -41t31 -101q0 -150 -176 -516l14 -10q348 662 541 662q63 0 98 -40t35 -96q0 -61 -41 -129.5t-117 -107.5l-69 18q0 131 -2 195q-147 -166 -283.5 -361.5
t-179.5 -281.5l-51 -168q-53 -51 -181 -51q-39 0 -59 6z" />
    <glyph glyph-name="s" unicode="s" horiz-adv-x="798" 
d="M-16 29q23 57 41 128.5t24 114.5l8 43l68 2l27 -221q72 -51 163 -51q86 0 142.5 43t56.5 127q0 55 -53 116.5t-115.5 109.5t-116 122t-53.5 150q0 145 111.5 222t269.5 77q164 0 262 -47q-57 -139 -84 -256h-65l-6 112q-4 49 -37 83t-90 34q-76 0 -125.5 -40t-49.5 -114
q0 -47 34 -95t82 -91t96.5 -87t82 -100.5t33.5 -113.5q0 -156 -116.5 -242t-274.5 -86q-94 0 -192 22t-123 38z" />
    <glyph glyph-name="t" unicode="t" horiz-adv-x="706" 
d="M59 27q0 18 16.5 76.5t47.5 152.5t62.5 184t75.5 220.5t71 209.5h-180l30 76q135 12 183 25l77 274h205l-104 -303l233 21l-65 -99l-189 8l-241 -749l8 -17q147 35 282 185l37 -45q-57 -98 -199.5 -187.5t-261.5 -89.5q-37 0 -62.5 15.5t-25.5 42.5z" />
    <glyph glyph-name="u" unicode="u" horiz-adv-x="1187" 
d="M86 74q0 74 127 407.5t127 376.5q0 29 -23 29q-27 0 -67.5 -33t-69.5 -66l-26 -32l-37 39q125 217 297 217q49 0 81.5 -35t32.5 -86q0 -80 -123.5 -395.5t-123.5 -343.5q0 -23 22 -23q74 0 276.5 264t258.5 381q33 115 47 172q53 49 182 49q43 0 59 -4
q-66 -172 -168 -486.5t-108 -381.5l8 -17q45 14 118 79t114 124l34 -45q-47 -100 -168.5 -197.5t-218.5 -97.5q-41 0 -60.5 21.5t-19.5 52.5q0 141 174 582l-14 10q-61 -109 -127.5 -209t-153.5 -211t-178.5 -178.5t-167.5 -67.5q-51 0 -77.5 30t-26.5 75z" />
    <glyph glyph-name="v" unicode="v" horiz-adv-x="1030" 
d="M41 795l10 16q10 16 21.5 33.5t31 41t43 45t52 40t62.5 30t71 11.5q61 0 99 -43t38 -125q0 -98 -29.5 -288.5t-58.5 -330.5l-31 -141l10 -12q164 96 340.5 343t176.5 373q0 47 -29 74t-70 27q-74 0 -116 -53q33 -6 57 -29t24 -57q0 -31 -21.5 -53.5t-53.5 -22.5
q-37 0 -59.5 24.5t-22.5 63.5q0 90 91 170t202 80q92 0 127.5 -52.5t35.5 -115.5q0 -129 -129 -321.5t-314 -352.5t-337 -201q-41 0 -78 12.5t-37 26.5l13 66q14 66 31.5 167t36 212.5t31.5 221t13 173.5q0 41 -30 41q-25 0 -65 -33t-68 -65l-29 -35z" />
    <glyph glyph-name="w" unicode="w" horiz-adv-x="1593" 
d="M41 795q125 217 289 217q63 0 101 -43t38 -125q0 -98 -38 -288.5t-77 -330.5l-39 -141l11 -12q68 43 291 335.5t223 378.5q0 100 -37 101q-74 0 -162 -131l-37 39q125 217 283 217q63 0 103 -43t40 -127q0 -137 -43 -393t-72 -365l11 -12q164 96 340 338.5t176 375.5
q0 49 -29 75t-72 26q-70 0 -114 -51q33 -6 57.5 -30t24.5 -58q0 -31 -22.5 -52.5t-55.5 -21.5q-37 0 -59.5 24.5t-22.5 63.5q0 90 91 170t204 80q90 0 126 -53.5t36 -116.5q0 -127 -129 -320.5t-314.5 -353.5t-337.5 -199q-39 0 -71.5 12.5t-32.5 26.5q0 12 21.5 114.5
t47 245t35.5 232.5q-14 -35 -115.5 -180.5t-248 -298t-234.5 -152.5q-41 0 -77.5 12.5t-36.5 26.5l8 35q8 35 22.5 93.5t32 132t33.5 155.5t30.5 160t22.5 149.5t8 118.5q0 35 -30 35q-53 0 -162 -131z" />
    <glyph glyph-name="x" unicode="x" horiz-adv-x="1136" 
d="M-16 55q0 100 65 242q12 2 28.5 2t37.5 -2q-10 -57 -11 -96q0 -66 41 -66q80 0 344 340l-49 131q-45 119 -74.5 167t-62.5 48q-63 0 -70 -159l-61 10q0 139 54.5 239.5t146.5 100.5q70 0 128 -87t138 -337q137 219 236.5 321.5t187.5 102.5q41 0 62.5 -25.5t21.5 -66.5
q0 -111 -96 -236l-62 8q27 66 27 113q0 33 -29 33q-43 0 -135 -93.5t-186 -218.5q129 -385 190 -385q10 0 24.5 9.5t26 21.5t24.5 30.5t20 31t16 28.5l10 14l37 -49q-33 -80 -103.5 -169t-146.5 -89q-61 0 -110.5 87t-116.5 288l-23 66q-186 -266 -285.5 -353.5
t-175.5 -87.5q-29 0 -49 24.5t-20 61.5z" />
    <glyph glyph-name="y" unicode="y" horiz-adv-x="1009" 
d="M-430 -451q18 6 97 31t127 42.5t121 45t134.5 58t112.5 63.5q12 20 24.5 289.5t12.5 431.5q0 352 -54 424q16 20 80 47t90 27q61 0 73.5 -64.5t12.5 -277.5q0 -438 -34 -693l16 -6l45 49q160 174 294 400.5t136 371.5q0 49 -28.5 75t-71.5 26q-72 0 -115 -53
q33 -6 57.5 -29t24.5 -57q0 -31 -22.5 -53.5t-53.5 -22.5q-37 0 -60.5 24.5t-23.5 63.5q0 90 91.5 170t203.5 80q92 0 127 -52.5t35 -115.5q0 -166 -192.5 -454t-498.5 -565.5t-589 -391.5z" />
    <glyph glyph-name="z" unicode="z" horiz-adv-x="1056" 
d="M20 162q0 115 89.5 196.5t219.5 130t260 90.5t224 101t102 137l-12 4q-45 -80 -166 -80q-68 0 -173 34t-152 34t-73 -26.5t-26 -65.5q0 -63 35 -121l-55 -18q-98 109 -98 243q0 82 58 135.5t148 53.5q88 0 240 -76t203 -76q45 0 71 21q-51 6 -51 59q0 25 16.5 40t41.5 15
q33 0 55 -31.5t22 -84.5q0 -117 -78.5 -205t-195.5 -138.5t-235.5 -88t-216 -76.5t-119.5 -82l8 -13q47 39 127 39q109 0 259 -70.5t195 -70.5q106 0 107 141h55q14 -57 15 -118q0 -111 -53.5 -168.5t-145.5 -57.5q-63 0 -136 41t-128.5 91.5t-119 91t-110.5 40.5
t-70.5 -25.5t-23.5 -53.5q0 -39 22.5 -60.5t53.5 -21.5l37 6q10 -10 10 -27q0 -31 -24.5 -48t-59.5 -17q-59 0 -105.5 48t-46.5 128z" />
    <glyph glyph-name="braceleft" unicode="{" horiz-adv-x="749" 
d="M90 686q0 41 24.5 61.5t59.5 20.5q61 0 127 -61q39 27 64 102q27 86 49 198.5t34.5 185.5t41 153.5t68.5 126t117 76t185 30.5q43 0 101 -4l-7 -82h-22q-78 0 -132.5 -39t-83 -102.5t-50 -141t-43 -160.5t-52 -156t-89 -131t-140.5 -83q129 -72 129 -215
q0 -55 -56.5 -265t-56.5 -298q0 -154 158 -154h12l-32 -80q-201 0 -280 52.5t-79 158.5q0 78 71 300t87 290q10 39 10 98q0 51 -14 88q-59 -47 -123 -47q-33 0 -55.5 21.5t-22.5 56.5z" />
    <glyph glyph-name="bar" unicode="|" horiz-adv-x="456" 
d="M-66 -403l590 2068h78l-594 -2068h-74z" />
    <glyph glyph-name="braceright" unicode="}" horiz-adv-x="761" 
d="M-184 -332l8 84h31q129 0 192.5 88t120.5 314q0 2 9 39.5t12.5 49t15.5 50.5t21.5 56.5t26.5 53t33.5 56t42 49.5t53.5 46t63.5 35.5t76.5 28.5q-135 63 -135 218q0 84 50 287.5t50 248.5q0 141 -149 141h-14l38 78q14 2 78 2q125 0 197 -53t72 -139q0 -111 -77 -367
t-77 -307q0 -49 14 -86q57 45 125 45q33 0 55.5 -21.5t22.5 -56.5q0 -39 -24.5 -60.5t-59.5 -21.5q-59 0 -127 64q-31 -25 -63.5 -85.5t-48.5 -121.5q-18 -61 -40 -157.5t-36.5 -153t-40 -130t-57 -117.5t-77.5 -85t-114 -59.5t-156 -18.5q-14 0 -112 6z" />
    <glyph glyph-name="asciitilde" unicode="~" 
d="M203 616q0 117 66.5 184.5t164.5 67.5q82 0 244 -80.5t235 -80.5q133 0 142 135h82q0 -115 -65.5 -176.5t-164.5 -61.5q-86 0 -247.5 79t-231.5 79q-133 0 -141 -146h-84z" />
    <glyph glyph-name="uni00A0" unicode="&#xa0;" horiz-adv-x="512" 
 />
    <glyph glyph-name="exclamdown" unicode="&#xa1;" horiz-adv-x="608" 
d="M-88 -373q0 16 2 32.5t9 38.5l11 34q4 12 17.5 38.5t16.5 35t21.5 42t20.5 37.5q164 315 258 594l72 -16q-74 -291 -104 -653q-8 -74 -13.5 -109t-17.5 -85t-30.5 -72.5t-49.5 -40t-76 -17.5q-63 0 -100 40t-37 101zM229 809q0 72 49.5 122t121 50t120.5 -50t49 -122
t-50 -122t-119.5 -50t-120 50t-50.5 122z" />
    <glyph glyph-name="cent" unicode="&#xa2;" 
d="M131 -270l176 286q-119 80 -119 254q0 121 52.5 253t136.5 239.5t201.5 178.5t240.5 71q41 0 86 -11l170 281l58 -33l-168 -274q72 -43 71 -121q0 -63 -62.5 -122.5t-129.5 -69.5l-49 36l-336 -557q41 -35 100 -35q74 0 135.5 57.5t85.5 139.5l60 -47
q-27 -113 -126.5 -200t-246.5 -87q-53 0 -102 19l-175 -287zM399 313q0 -68 19 -114l422 696q-4 33 -41 33q-86 0 -181.5 -101.5t-157 -247t-61.5 -266.5z" />
    <glyph glyph-name="sterling" unicode="&#xa3;" 
d="M-4 90q0 51 36 80t95 29q2 0 57 -6q57 72 115 299h-217l18 83h219q6 25 27 104t33 120h-234l19 84h235q39 156 107.5 271.5t151.5 181t167 97t170 31.5q145 0 213 -49t68 -112q0 -57 -37 -99.5t-104 -42.5q-25 0 -45.5 9.5t-20.5 15.5t1 26.5t1 28.5q0 70 -27.5 99.5
t-82.5 29.5q-119 0 -199 -172q-53 -115 -115 -315h361l-19 -84h-364l-72 -224h391l-16 -83h-406q-59 -211 -243 -306q20 4 63 4q88 -2 269.5 -40.5t271.5 -38.5q96 0 190 92l23 -60q-133 -233 -369 -233q-70 0 -167 43t-192.5 94t-142.5 62q-39 -113 -133 -113
q-41 0 -68.5 26.5t-27.5 67.5z" />
    <glyph glyph-name="currency" unicode="&#xa4;" 
d="M111 438l178 111q-61 137 -25 285q33 147 156 239l-111 184l74 50l111 -185q133 66 280 29q141 -33 234 -156l184 113l45 -74l-184 -112q68 -137 30 -287q-37 -147 -155 -240l108 -182l-73 -47l-109 182q-137 -66 -283 -29q-150 39 -237 158l-180 -115zM346 813
q-35 -141 36 -263t208 -155q137 -35 256 41t153 217q35 143 -34.5 266t-208.5 156q-139 35 -257 -42t-153 -220z" />
    <glyph glyph-name="yen" unicode="&#xa5;" 
d="M117 475l24 86h367l-45 221h-258l26 86h215l-81 377q-20 90 -80 105l-97 24l25 80l291 -10l315 10l-24 -80l-119 -24q-49 -12 -67.5 -35t-10.5 -70l115 -592l436 586q29 33 18.5 64.5t-57.5 39.5l-109 19l25 82l270 -10l236 20l-25 -80l-77 -26q-80 -27 -140 -101
l-305 -379h211l-27 -86h-249l-170 -221h356l-25 -86h-358l-82 -289q-23 -80 57 -98l93 -20l-25 -78l-299 10l-291 -10l25 78l104 20q53 10 77 30.5t38 67.5l82 289h-385z" />
    <glyph glyph-name="brokenbar" unicode="&#xa6;" horiz-adv-x="456" 
d="M-66 -403l263 921h77l-268 -921h-72zM258 733l268 932h78l-268 -932h-78z" />
    <glyph glyph-name="section" unicode="&#xa7;" 
d="M-18 125q0 16 4 57l86 -2q0 -150 88 -263.5t235 -113.5q150 0 250 101.5t142 266.5t42 388q0 158 -25.5 333t-58.5 271l70 19q233 -498 234 -867q0 -166 -50.5 -298t-133.5 -210.5t-182 -120.5t-204 -42q-248 0 -372.5 136t-124.5 345zM244 971q0 168 52 301t138 210
t186.5 116.5t208.5 39.5q229 0 352.5 -139t123.5 -340q0 -20 -5 -53h-88q-12 164 -92 270.5t-233 106.5q-143 0 -241.5 -107.5t-140.5 -275.5t-42 -385q0 -152 21.5 -333t52.5 -261l-68 -17q-225 505 -225 867z" />
    <glyph glyph-name="dieresis" unicode="&#xa8;" horiz-adv-x="829" 
d="M313 1314.5q0 61.5 43 104.5t104.5 43t104.5 -43t43 -104.5t-43 -103.5t-104.5 -42t-104.5 42t-43 103.5zM705 1314.5q0 61.5 43 104.5t104 43t104 -43t43 -104.5t-43 -103.5t-104 -42t-104 42t-43 103.5z" />
    <glyph glyph-name="copyright" unicode="&#xa9;" horiz-adv-x="1939" 
d="M195 721q0 352 242.5 593.5t594.5 241.5q356 0 600 -241.5t244 -593.5t-243.5 -594t-600.5 -242q-354 0 -595.5 242t-241.5 594zM299 720.5q0 -317.5 212 -531.5t521 -214q313 0 526.5 214t213.5 531.5t-213 531.5t-527 214q-309 0 -521 -214t-212 -531.5zM578 702
q0 229 138 382t359 153q164 0 245 -62.5t81 -126t-43 -104.5t-109 -49l-43 37v121q0 66 -28.5 84t-102.5 18q-131 0 -216 -110.5t-85 -307.5q0 -209 95.5 -306t242.5 -97q92 0 160.5 40t91.5 79l25 39l43 -62q-125 -231 -404 -231q-190 0 -320 127.5t-130 375.5z" />
    <glyph glyph-name="ordfeminine" unicode="&#xaa;" horiz-adv-x="976" 
d="M225 836q0 119 63.5 266t167 254.5t203.5 107.5q115 0 189 -82l33 60q29 18 92 18q53 0 59 -6q-211 -618 -213 -670l6 -6q41 16 95.5 68.5t83.5 99.5l28 -39q-41 -90 -133 -162.5t-174 -72.5q-74 0 -78 69q0 59 109 330l-11 6q-240 -406 -391 -405q-129 0 -129 164z
M395 864q0 -61 33 -61q57 0 192.5 180t178.5 297q-12 49 -47 84t-68 35q-86 0 -187.5 -208t-101.5 -327z" />
    <glyph glyph-name="guillemotleft" unicode="&#xab;" horiz-adv-x="1155" 
d="M156 727l585 578l72 -7l-387 -579l-6 -25l137 -540l-65 -4zM575 727l588 578l70 -7l-389 -579l-4 -25l137 -540l-66 -4z" />
    <glyph glyph-name="logicalnot" unicode="&#xac;" 
d="M252 868l24 90h912l-131 -452h-103l109 362h-811z" />
    <glyph glyph-name="uni00AD" unicode="&#xad;" horiz-adv-x="761" 
 />
    <glyph glyph-name="registered" unicode="&#xae;" horiz-adv-x="1939" 
d="M195 721q0 352 242.5 593.5t594.5 241.5q356 0 600 -241.5t244 -593.5t-243.5 -594t-600.5 -242q-354 0 -595.5 242t-241.5 594zM299 720.5q0 -317.5 212 -531.5t521 -214q322 0 533 222q-145 -2 -218 42t-137 136q-29 45 -96 151.5t-86 132.5h-127q0 -147 4 -309
q2 -33 15.5 -45t50.5 -20l76 -15v-57l-238 8l-240 -8v57l78 15q35 6 50.5 20t17.5 45q0 2 1 19.5t1 48.5t1 71.5t2 101t1 122.5l-4 362q-4 33 -18.5 46.5t-49.5 19.5l-78 16v53l326 -4l14 2q14 0 37 2t48.5 4.5t56 3.5t55.5 1q119 0 209 -59.5t90 -201.5q0 -82 -54.5 -150.5
t-148.5 -109.5l156 -221q76 -109 135 -162q49 -43 127 -53q150 199 150 459q0 317 -213 531t-527 214q-309 0 -521 -214t-212 -531.5zM903 737q70 -12 156 -12q53 0 104 56.5t51 162.5q0 98 -63.5 151.5t-163.5 53.5h-63q-20 0 -21 -16v-396z" />
    <glyph glyph-name="macron" unicode="&#xaf;" horiz-adv-x="929" 
d="M334 1190l35 121h581l-35 -121h-581z" />
    <glyph glyph-name="degree" unicode="&#xb0;" horiz-adv-x="876" 
d="M262 1104q0 147 99.5 244.5t240.5 97.5t240.5 -97.5t99.5 -244.5q0 -150 -99.5 -247t-240.5 -97t-240.5 97t-99.5 247zM377 1103.5q0 -102.5 64.5 -173t160.5 -70.5t160.5 70.5t64.5 173t-64.5 172.5t-160.5 70t-160.5 -70t-64.5 -172.5z" />
    <glyph glyph-name="plusminus" unicode="&#xb1;" 
d="M12 0l27 96h924l-27 -96h-924zM201 686l30 98h404l129 441h115l-129 -441h407l-29 -98h-407l-129 -442h-115l129 442h-405z" />
    <glyph glyph-name="uni00B2" unicode="&#xb2;" horiz-adv-x="768" 
d="M123 616l24 95q0 -2 66 45t168 121.5t180 134t116 117t38 135.5q0 63 -37 100t-105 37q-92 0 -92 -45v-144l-35 -18q-57 2 -95 36t-38 77q0 57 79 108t210 51q113 0 199 -57t86 -149q0 -86 -53.5 -145.5t-184.5 -145.5l-334 -217q29 0 204 5t251 5l-65 -137h-388
q-147 -1 -194 -9z" />
    <glyph glyph-name="uni00B3" unicode="&#xb3;" horiz-adv-x="768" 
d="M160 758q0 115 164 114l24 -36q-27 -90 -33 -127q2 -18 40 -31.5t69 -13.5q100 0 151.5 48t51.5 122q0 88 -65.5 136t-201.5 66l25 82q43 -4 82 -4q100 0 154.5 45t54.5 105q0 49 -38 83.5t-110 34.5q-86 0 -176 -55l-30 53q123 88 268 88q125 0 188.5 -55t63.5 -129
q0 -86 -71 -141.5t-173 -61.5q82 -20 135 -74.5t53 -138.5q0 -123 -99 -195.5t-251 -72.5q-111 0 -193.5 42t-82.5 116z" />
    <glyph glyph-name="acute" unicode="&#xb4;" horiz-adv-x="739" 
d="M389 1143l238 375h274l-428 -388z" />
    <glyph glyph-name="uni00B5" unicode="&#xb5;" horiz-adv-x="1187" 
d="M-156 -500q43 137 258 690q33 94 98.5 263.5t102.5 272.5t37 132t-23 29q-27 0 -67.5 -33t-69.5 -66l-26 -32l-37 39q125 217 297 217q49 0 81.5 -35t32.5 -86q0 -80 -123.5 -395.5t-123.5 -343.5q0 -23 22 -23q74 0 276.5 264t258.5 381q33 115 47 172q53 49 182 49
q43 0 59 -4q-66 -172 -168 -486.5t-108 -381.5l8 -17q45 14 118 79t114 124l34 -45q-47 -100 -168.5 -197.5t-218.5 -97.5q-41 0 -60.5 21.5t-19.5 52.5q0 141 174 582l-14 10q-379 -666 -616 -666q-59 0 -84 37l-117 -498z" />
    <glyph glyph-name="paragraph" unicode="&#xb6;" horiz-adv-x="1433" 
d="M57 -317q0 63 45 110t111 47q68 0 111 -43t43 -106q0 -80 -68 -127l4 -15q92 0 149.5 66t96.5 238l135 612h-16q-205 0 -331 131t-126 311q0 242 184.5 384.5t448.5 142.5h547l-418 -1837h-94l395 1742h-203q-88 0 -104 -79l-332 -1477q-70 -313 -326 -313
q-94 0 -173 56.5t-79 156.5z" />
    <glyph glyph-name="periodcentered" unicode="&#xb7;" horiz-adv-x="555" 
d="M178 733.5q0 65.5 46 112.5t111.5 47t112 -47t46.5 -112.5t-46.5 -112t-112 -46.5t-111.5 46.5t-46 112z" />
    <glyph glyph-name="cedilla" unicode="&#xb8;" horiz-adv-x="739" 
d="M-129 -508l27 66q82 -41 161 -41q162 0 162 129q0 14 -5 28.5t-12 26.5t-20.5 24.5t-25 21.5t-29.5 20.5t-29.5 17.5t-33 15.5t-29.5 12.5t-28.5 12t-22.5 9l295 199l57 -19l-152 -137q98 -29 159 -85t61 -132q0 -100 -80 -164.5t-219.5 -64.5t-235.5 61z" />
    <glyph glyph-name="uni00B9" unicode="&#xb9;" horiz-adv-x="768" 
d="M213 616l18 64l113 18q47 8 59 45q154 510 170 586q6 27 -16 27q-18 0 -176 -21l18 70q199 41 310 70l69 -23q-131 -430 -200 -688q-6 -23 -7 -33q0 -31 47 -37l99 -16l-19 -62l-231 9z" />
    <glyph glyph-name="ordmasculine" unicode="&#xba;" horiz-adv-x="839" 
d="M240 928q0 193 132 364.5t324 171.5q102 0 167 -70.5t65 -181.5q0 -195 -131 -367.5t-326 -172.5q-102 0 -166.5 65.5t-64.5 190.5zM414 938q0 -186 112 -186q70 0 124.5 75.5t79 178t24.5 200.5q0 84 -28 134.5t-71 50.5q-106 0 -173.5 -147.5t-67.5 -305.5z" />
    <glyph glyph-name="guillemotright" unicode="&#xbb;" horiz-adv-x="1155" 
d="M59 154l387 581l5 25l-136 538l62 7l338 -578l-588 -577zM477 154l389 581l4 25l-137 538l66 7l338 -578l-590 -577z" />
    <glyph glyph-name="onequarter" unicode="&#xbc;" horiz-adv-x="2088" 
d="M211 616l18 64l113 18q47 8 59 45q154 510 170 586q6 27 -16 27q-18 0 -176 -21l18 70q199 41 310 70l69 -23q-131 -430 -201 -688q-6 -23 -6 -33q0 -31 47 -37l99 -16l-19 -62l-231 9zM334 39l1505 1444l51 -56l-1505 -1441zM1204 240l15 69q106 111 542 537
q25 -2 75 -4t75 -4q-504 -446 -590 -525h293q45 172 47 181h170l-57 -181h137l-25 -73h-133q-41 -143 -41 -152q0 -23 33 -29l63 -12l-20 -53l-189 6l-194 -6l18 55l64 14q57 12 69 56l35 121h-387z" />
    <glyph glyph-name="onehalf" unicode="&#xbd;" horiz-adv-x="2088" 
d="M211 616l18 64l113 18q47 8 59 45q154 510 170 586q6 27 -16 27q-18 0 -176 -21l18 70q199 41 310 70l69 -23q-131 -430 -201 -688q-6 -23 -6 -33q0 -31 47 -37l99 -16l-19 -62l-231 9zM334 39l1505 1444l51 -56l-1505 -1441zM1202 -8l25 94q0 -2 65.5 45t168 122
t180 134t115.5 116.5t38 135.5q0 63 -37 100t-104 37q-92 0 -92 -45v-143l-35 -19q-57 2 -95 36t-38 77q0 57 78.5 108.5t209.5 51.5q113 0 199 -57.5t86 -149.5q0 -86 -53 -145.5t-184 -145.5l-334 -217q29 0 204 5t250 5l-65 -137h-387q-148 0 -195 -8z" />
    <glyph glyph-name="threequarters" unicode="&#xbe;" horiz-adv-x="2088" 
d="M203 758q0 115 164 114l24 -36q-27 -90 -33 -127q2 -18 40 -31.5t69 -13.5q100 0 151.5 48t51.5 122q0 88 -65.5 136t-201.5 66l25 82q43 -4 82 -4q100 0 154.5 45t54.5 105q0 49 -38 83.5t-110 34.5q-86 0 -176 -55l-30 53q123 88 268 88q125 0 188.5 -55t63.5 -129
q0 -86 -71 -141.5t-173 -61.5q82 -20 135 -74.5t53 -138.5q0 -123 -99 -195.5t-251 -72.5q-111 0 -193.5 42t-82.5 116zM334 39l1505 1444l51 -56l-1505 -1441zM1223 240l14 69q106 111 543 537q25 -2 75 -4t74 -4q-504 -446 -590 -525h293q45 172 47 181h170l-57 -181h137
l-24 -73h-133q-41 -143 -41 -152q0 -23 32 -29l64 -12l-21 -53l-188 6l-195 -6l19 55l63 14q57 12 70 56l35 121h-387z" />
    <glyph glyph-name="questiondown" unicode="&#xbf;" horiz-adv-x="897" 
d="M-80 -213q0 111 57.5 195t138.5 132t162.5 87t139 81t57.5 91q0 31 -20.5 50t-48.5 19q-76 0 -95 -92l-49 17q8 74 56.5 110.5t107.5 36.5q63 0 112.5 -43t49.5 -114.5t-45 -128t-109.5 -96.5t-130 -80t-111 -98t-45.5 -132q0 -90 59.5 -143.5t143.5 -53.5
q88 0 145.5 54.5t61.5 130.5q-33 -37 -84 -37q-41 0 -66.5 27.5t-25.5 66.5q0 41 28.5 69.5t75.5 28.5q55 0 95.5 -48t40.5 -126q0 -117 -98.5 -211t-256.5 -94q-164 0 -255 92t-91 209zM410 809q0 72 49 122t120.5 50t122 -50t50.5 -122t-50.5 -122t-121.5 -50
q-70 0 -120 50t-50 122z" />
    <glyph glyph-name="Agrave" unicode="&#xc0;" horiz-adv-x="1519" 
d="M-176 -10l24 78l105 20q51 8 80.5 28.5t64.5 67.5q430 571 940 1264l185 39q10 -1032 22 -1301q2 -47 16.5 -68.5t57.5 -29.5l92 -20l-27 -78l-319 10l-326 -10l25 78l115 20q63 12 92.5 33.5t32.5 64.5v105l-3 295h-479l-276 -400q-59 -80 41 -98l121 -20l-27 -78
l-328 10zM586 680h418l-3 575zM872 1972h275l166 -375l-84 -12z" />
    <glyph glyph-name="Aacute" unicode="&#xc1;" horiz-adv-x="1519" 
d="M-176 -10l24 78l105 20q51 8 80.5 28.5t64.5 67.5q430 571 940 1264l185 39q10 -1032 22 -1301q2 -47 16.5 -68.5t57.5 -29.5l92 -20l-27 -78l-319 10l-326 -10l25 78l115 20q63 12 92.5 33.5t32.5 64.5v105l-3 295h-479l-276 -400q-59 -80 41 -98l121 -20l-27 -78
l-328 10zM586 680h418l-3 575zM938 1597l238 375h274l-428 -387z" />
    <glyph glyph-name="Acircumflex" unicode="&#xc2;" horiz-adv-x="1519" 
d="M-176 -10l24 78l105 20q51 8 80.5 28.5t64.5 67.5q430 571 940 1264l185 39q10 -1032 22 -1301q2 -47 16.5 -68.5t57.5 -29.5l92 -20l-27 -78l-319 10l-326 -10l25 78l115 20q63 12 92.5 33.5t32.5 64.5v105l-3 295h-479l-276 -400q-59 -80 41 -98l121 -20l-27 -78
l-328 10zM586 680h418l-3 575zM815 1614l344 371h111l184 -371l-51 -37l-211 225h-4l-332 -223z" />
    <glyph glyph-name="Atilde" unicode="&#xc3;" horiz-adv-x="1519" 
d="M-176 -10l24 78l105 20q51 8 80.5 28.5t64.5 67.5q430 571 940 1264l185 39q10 -1032 22 -1301q2 -47 16.5 -68.5t57.5 -29.5l92 -20l-27 -78l-319 10l-326 -10l25 78l115 20q63 12 92.5 33.5t32.5 64.5v105l-3 295h-479l-276 -400q-59 -80 41 -98l121 -20l-27 -78
l-328 10zM586 680h418l-3 575zM854 1661q82 211 227 211q49 0 141.5 -39t120.5 -39q41 0 68 15.5t62 66.5l38 -23q-82 -209 -223 -208q-53 0 -139 36.5t-113 36.5q-88 0 -141 -80z" />
    <glyph glyph-name="Adieresis" unicode="&#xc4;" horiz-adv-x="1519" 
d="M-176 -10l24 78l105 20q51 8 80.5 28.5t64.5 67.5q430 571 940 1264l185 39q10 -1032 22 -1301q2 -47 16.5 -68.5t57.5 -29.5l92 -20l-27 -78l-319 10l-326 -10l25 78l115 20q63 12 92.5 33.5t32.5 64.5v105l-3 295h-479l-276 -400q-59 -80 41 -98l121 -20l-27 -78
l-328 10zM586 680h418l-3 575zM817 1769.5q0 61.5 43 104.5t104.5 43t104.5 -43t43 -104.5t-43 -103.5t-104.5 -42t-104.5 42t-43 103.5zM1208 1769.5q0 61.5 43 104.5t104.5 43t104.5 -43t43 -104.5t-43 -103.5t-104.5 -42t-104.5 42t-43 103.5z" />
    <glyph glyph-name="Aring" unicode="&#xc5;" horiz-adv-x="1519" 
d="M-176 -10l24 78l105 20q51 8 80.5 28.5t64.5 67.5q526 698 881 1184q-135 84 -135 252q0 127 88 213t215 86q129 0 216 -85t87 -214q0 -109 -63.5 -187.5t-163.5 -103.5q12 -956 22 -1143q2 -47 16.5 -68.5t57.5 -29.5l92 -20l-27 -78l-319 10l-326 -10l25 78l115 20
q63 12 92.5 33.5t32.5 64.5v105l-3 295h-479l-276 -400q-59 -80 41 -98l121 -20l-27 -78l-328 10zM586 680h418l-3 575zM942 1620q0 -94 55.5 -154.5t149.5 -60.5t149.5 60.5t55.5 154.5t-55.5 154.5t-149.5 60.5t-149.5 -60.5t-55.5 -154.5z" />
    <glyph glyph-name="AE" unicode="&#xc6;" horiz-adv-x="2181" 
d="M-190 -10l24 78l100 20q109 20 179 96q207 221 578.5 655.5t432.5 503.5l-194 21l26 70h924l326 22q-53 -125 -160 -416h-80q8 90 8 148q0 147 -96 147h-373q-16 0 -24 -4t-11.5 -10t-7.5 -18l-159 -527q111 2 231 8q53 4 83 23.5t58 77.5l58 112h75l-84 -282l-57 -250
h-76q6 121 6 127q0 51 -15 69.5t-66 20.5l-240 8l-125 -432q-18 -66 -18 -90q0 -70 112 -70h344q86 0 150.5 30t146.5 130l144 176h79l-202 -444q-266 10 -385 10h-586l-303 -10l24 78l111 20q57 10 86 31.5t43 66.5l125 408h-416l-330 -410q-25 -31 -24 -55q0 -33 51 -41
l117 -20l-25 -78l-364 10zM680 690h373l188 623q6 16 -8 16h-8z" />
    <glyph glyph-name="Ccedilla" unicode="&#xc7;" horiz-adv-x="1605" 
d="M174 631q0 168 64.5 319.5t179 265t283.5 181t366 67.5q125 0 266.5 -30.5t239.5 -77.5l170 26l-150 -424l-92 -4l2 150q0 86 -61.5 148.5t-154.5 90t-204 27.5q-297 0 -489.5 -198.5t-192.5 -503.5q0 -248 161 -417t458 -169q76 0 147 20l193 314l80 -8
q-53 -201 -80 -363q-268 -76 -479 -76q-51 0 -101 6l-106 -98q98 -29 158.5 -85t60.5 -132q0 -100 -80 -164.5t-219 -64.5t-236 61l27 66q82 -41 162 -41q162 0 162 129q0 14 -5.5 28.5t-12.5 26.5t-20.5 24.5t-24.5 21.5t-29.5 20.5t-30 17.5t-33 15.5t-29.5 12.5t-28.5 12
t-22.5 9l227 154q-240 49 -383 223t-143 420z" />
    <glyph glyph-name="Egrave" unicode="&#xc8;" horiz-adv-x="1490" 
d="M-53 -10l22 78l113 20q57 10 85 31.5t42 66.5q61 190 164 529q102 338 149 528q12 51 -2 70.5t-67 29.5l-103 21l27 80l303 -10h514l326 22q-53 -125 -160 -416h-80l6 101q6 100 -14.5 147t-79.5 47h-379q-33 0 -43 -32l-158 -525q115 0 236 6q53 4 81.5 23.5t59.5 77.5
l58 112h75l-84 -282l-57 -250h-76l6 117q4 57 -13 77.5t-69 22.5l-243 6l-133 -461q-20 -66 4 -97.5t100 -31.5h346q82 0 145.5 31t151.5 129l143 176h80l-202 -444q-266 10 -385 10h-580zM678 1968h274l166 -375l-84 -12z" />
    <glyph glyph-name="Eacute" unicode="&#xc9;" horiz-adv-x="1490" 
d="M-53 -10l22 78l113 20q57 10 85 31.5t42 66.5q61 190 164 529q102 338 149 528q12 51 -2 70.5t-67 29.5l-103 21l27 80l303 -10h514l326 22q-53 -125 -160 -416h-80l6 101q6 100 -14.5 147t-79.5 47h-379q-33 0 -43 -32l-158 -525q115 0 236 6q53 4 81.5 23.5t59.5 77.5
l58 112h75l-84 -282l-57 -250h-76l6 117q4 57 -13 77.5t-69 22.5l-243 6l-133 -461q-20 -66 4 -97.5t100 -31.5h346q82 0 145.5 31t151.5 129l143 176h80l-202 -444q-266 10 -385 10h-580zM870 1593l238 375h274l-428 -387z" />
    <glyph glyph-name="Ecircumflex" unicode="&#xca;" horiz-adv-x="1490" 
d="M-53 -10l22 78l113 20q57 10 85 31.5t42 66.5q61 190 164 529q102 338 149 528q12 51 -2 70.5t-67 29.5l-103 21l27 80l303 -10h514l326 22q-53 -125 -160 -416h-80l6 101q6 100 -14.5 147t-79.5 47h-379q-33 0 -43 -32l-158 -525q115 0 236 6q53 4 81.5 23.5t59.5 77.5
l58 112h75l-84 -282l-57 -250h-76l6 117q4 57 -13 77.5t-69 22.5l-243 6l-133 -461q-20 -66 4 -97.5t100 -31.5h346q82 0 145.5 31t151.5 129l143 176h80l-202 -444q-266 10 -385 10h-580zM668 1610l344 370h110l185 -370l-52 -37l-211 225h-4l-331 -223z" />
    <glyph glyph-name="Edieresis" unicode="&#xcb;" horiz-adv-x="1490" 
d="M-53 -10l22 78l113 20q57 10 85 31.5t42 66.5q61 190 164 529q102 338 149 528q12 51 -2 70.5t-67 29.5l-103 21l27 80l303 -10h514l326 22q-53 -125 -160 -416h-80l6 101q6 100 -14.5 147t-79.5 47h-379q-33 0 -43 -32l-158 -525q115 0 236 6q53 4 81.5 23.5t59.5 77.5
l58 112h75l-84 -282l-57 -250h-76l6 117q4 57 -13 77.5t-69 22.5l-243 6l-133 -461q-20 -66 4 -97.5t100 -31.5h346q82 0 145.5 31t151.5 129l143 176h80l-202 -444q-266 10 -385 10h-580zM666 1765.5q0 61.5 43 104.5t104 43t104.5 -43t43.5 -104.5t-43.5 -103.5
t-104.5 -42t-104 42t-43 103.5zM1057 1765.5q0 61.5 43 104.5t104.5 43t104.5 -43t43 -104.5t-43 -103.5t-104.5 -42t-104.5 42t-43 103.5z" />
    <glyph glyph-name="Igrave" unicode="&#xcc;" horiz-adv-x="835" 
d="M-53 -10l22 78l111 20q57 10 85 31.5t44 66.5q61 190 164 529q100 338 149 528q12 51 -2 71.5t-65 28.5l-125 21l28 80l326 -10l340 10l-27 -80l-114 -21q-61 -10 -86 -29.5t-43 -70.5q-61 -190 -162 -528q-100 -338 -150 -529q-12 -47 1.5 -68.5t64.5 -29.5l125 -20
l-25 -78l-338 10zM367 1968h274l166 -375l-84 -12z" />
    <glyph glyph-name="Iacute" unicode="&#xcd;" horiz-adv-x="835" 
d="M-53 -10l22 78l111 20q57 10 85 31.5t44 66.5q61 190 164 529q100 338 149 528q12 51 -2 71.5t-65 28.5l-125 21l28 80l326 -10l340 10l-27 -80l-114 -21q-61 -10 -86 -29.5t-43 -70.5q-61 -190 -162 -528q-100 -338 -150 -529q-12 -47 1.5 -68.5t64.5 -29.5l125 -20
l-25 -78l-338 10zM612 1593l238 375h274l-428 -387z" />
    <glyph glyph-name="Icircumflex" unicode="&#xce;" horiz-adv-x="835" 
d="M-53 -10l22 78l111 20q57 10 85 31.5t44 66.5q61 190 164 529q100 338 149 528q12 51 -2 71.5t-65 28.5l-125 21l28 80l326 -10l340 10l-27 -80l-114 -21q-61 -10 -86 -29.5t-43 -70.5q-61 -190 -162 -528q-100 -338 -150 -529q-12 -47 1.5 -68.5t64.5 -29.5l125 -20
l-25 -78l-338 10zM420 1610l344 370h110l185 -370l-51 -37l-211 225h-4l-332 -223z" />
    <glyph glyph-name="Idieresis" unicode="&#xcf;" horiz-adv-x="835" 
d="M-53 -10l22 78l111 20q57 10 85 31.5t44 66.5q61 190 164 529q100 338 149 528q12 51 -2 71.5t-65 28.5l-125 21l28 80l326 -10l340 10l-27 -80l-114 -21q-61 -10 -86 -29.5t-43 -70.5q-61 -190 -162 -528q-100 -338 -150 -529q-12 -47 1.5 -68.5t64.5 -29.5l125 -20
l-25 -78l-338 10zM410 1765.5q0 61.5 43 104.5t104 43t104.5 -43t43.5 -104.5t-43.5 -103.5t-104.5 -42t-104 42t-43 103.5zM801 1765.5q0 61.5 43 104.5t104.5 43t104.5 -43t43 -104.5t-43 -103.5t-104.5 -42t-104.5 42t-43 103.5z" />
    <glyph glyph-name="Eth" unicode="&#xd0;" horiz-adv-x="1787" 
d="M-51 -6l20 74l113 20q57 10 85 31.5t42 66.5q57 178 153 494h-208l28 96h209l131 467q12 51 -2 70.5t-67 29.5l-103 21l27 80l334 -10q248 16 364 16q291 0 480.5 -175t189.5 -452q0 -367 -270.5 -606.5t-669.5 -239.5q-68 0 -547 23zM444 172q0 -57 57.5 -78.5
t170.5 -21.5h106q334 0 526.5 203.5t192.5 519.5q0 252 -146.5 407.5t-389.5 155.5h-142q-35 0 -45 -33l-162 -549h494l-29 -96h-493l-129 -451q-11 -37 -11 -57z" />
    <glyph glyph-name="Ntilde" unicode="&#xd1;" horiz-adv-x="1728" 
d="M-66 -10l23 78l113 20q57 10 83.5 30.5t43.5 67.5q180 543 331 1057q14 47 1 69.5t-64 30.5l-119 21l27 80l278 -10l191 10q12 -96 37 -150l432 -972q31 98 227 921q12 49 -1 69.5t-64 30.5l-105 21l29 80l270 -10l268 10l-26 -80l-115 -21q-61 -10 -88 -30.5t-41 -69.5
q-147 -537 -358 -1253h-99q-152 365 -296 685t-212 458l-67 137q-227 -813 -303 -1084q-14 -47 0 -68.5t65 -29.5l146 -20l-27 -78l-324 10zM848 1661q82 211 227 211q47 0 139.5 -39t122.5 -39q43 0 69 15.5t60 66.5l39 -23q-82 -209 -223 -208q-53 0 -139 36.5t-113 36.5
q-88 0 -141 -80z" />
    <glyph glyph-name="Ograve" unicode="&#xd2;" horiz-adv-x="1697" 
d="M158 567q0 231 117.5 437t328.5 333t463 127q248 0 424 -160.5t176 -437.5q0 -231 -116.5 -437t-326.5 -333t-460 -127q-252 0 -429 161t-177 437zM391 520q0 -215 118 -333.5t302 -118.5q162 0 289 91t196.5 228t105.5 273.5t36 250.5q0 213 -120 333t-302 120
q-131 0 -240.5 -61.5t-178.5 -154.5t-117 -210t-68.5 -222.5t-20.5 -195.5zM846 1972h274l166 -375l-84 -12z" />
    <glyph glyph-name="Oacute" unicode="&#xd3;" horiz-adv-x="1697" 
d="M158 567q0 231 117.5 437t328.5 333t463 127q248 0 424 -160.5t176 -437.5q0 -231 -116.5 -437t-326.5 -333t-460 -127q-252 0 -429 161t-177 437zM391 520q0 -215 118 -333.5t302 -118.5q162 0 289 91t196.5 228t105.5 273.5t36 250.5q0 213 -120 333t-302 120
q-131 0 -240.5 -61.5t-178.5 -154.5t-117 -210t-68.5 -222.5t-20.5 -195.5zM905 1597l238 375h274l-428 -387z" />
    <glyph glyph-name="Ocircumflex" unicode="&#xd4;" horiz-adv-x="1697" 
d="M158 567q0 231 117.5 437t328.5 333t463 127q248 0 424 -160.5t176 -437.5q0 -231 -116.5 -437t-326.5 -333t-460 -127q-252 0 -429 161t-177 437zM391 520q0 -215 118 -333.5t302 -118.5q162 0 289 91t196.5 228t105.5 273.5t36 250.5q0 213 -120 333t-302 120
q-131 0 -240.5 -61.5t-178.5 -154.5t-117 -210t-68.5 -222.5t-20.5 -195.5zM754 1614l344 371h110l185 -371l-52 -37l-211 225h-4l-331 -223z" />
    <glyph glyph-name="Otilde" unicode="&#xd5;" horiz-adv-x="1697" 
d="M158 567q0 231 117.5 437t328.5 333t463 127q248 0 424 -160.5t176 -437.5q0 -231 -116.5 -437t-326.5 -333t-460 -127q-252 0 -429 161t-177 437zM391 520q0 -215 118 -333.5t302 -118.5q162 0 289 91t196.5 228t105.5 273.5t36 250.5q0 213 -120 333t-302 120
q-131 0 -240.5 -61.5t-178.5 -154.5t-117 -210t-68.5 -222.5t-20.5 -195.5zM784 1661q82 211 228 211q49 0 141 -39t121 -39q41 0 67.5 15.5t61.5 66.5l39 -23q-82 -209 -223 -208q-53 0 -139.5 36.5t-112.5 36.5q-88 0 -142 -80z" />
    <glyph glyph-name="Odieresis" unicode="&#xd6;" horiz-adv-x="1697" 
d="M158 567q0 231 117.5 437t328.5 333t463 127q248 0 424 -160.5t176 -437.5q0 -231 -116.5 -437t-326.5 -333t-460 -127q-252 0 -429 161t-177 437zM391 520q0 -215 118 -333.5t302 -118.5q162 0 289 91t196.5 228t105.5 273.5t36 250.5q0 213 -120 333t-302 120
q-131 0 -240.5 -61.5t-178.5 -154.5t-117 -210t-68.5 -222.5t-20.5 -195.5zM778 1769.5q0 61.5 43 104.5t104.5 43t104.5 -43t43 -104.5t-43 -103.5t-104.5 -42t-104.5 42t-43 103.5zM1169 1769.5q0 61.5 43 104.5t104.5 43t104.5 -43t43 -104.5t-43 -103.5t-104.5 -42
t-104.5 42t-43 103.5z" />
    <glyph glyph-name="multiply" unicode="&#xd7;" 
d="M131 362l481 392l-258 389l82 53l252 -381l463 381l53 -78l-465 -379l267 -393l-78 -61l-264 391l-482 -391z" />
    <glyph glyph-name="Oslash" unicode="&#xd8;" horiz-adv-x="1697" 
d="M150 -154l215 258q-207 166 -207 463q0 231 117.5 437t329.5 333t462 127q186 0 342 -98l215 260l70 -59l-213 -254q188 -168 188 -447q0 -231 -117.5 -437t-327.5 -333t-460 -127q-176 0 -324 82l-217 -264zM391 520q0 -170 82 -284l840 1015q-117 113 -297 113
q-162 0 -289 -91t-196.5 -227.5t-104.5 -273.5t-35 -252zM532 164q113 -96 279 -96q162 0 289 91t196.5 228t105.5 273.5t36 250.5q0 154 -70 267z" />
    <glyph glyph-name="Ugrave" unicode="&#xd9;" horiz-adv-x="1746" 
d="M240 362q0 70 24 150l219 731q14 49 -2 69.5t-67 30.5l-123 21l24 80l324 -10l342 10l-25 -80l-110 -21q-61 -10 -88 -30.5t-41 -69.5l-219 -727q-23 -80 -23 -137q0 -150 108.5 -222.5t262.5 -72.5q123 0 216 38t154.5 112.5t98.5 150.5t71 184q104 324 195 674
q12 49 -2 69.5t-66 30.5l-122 21l26 80l289 -10l262 10l-22 -80l-117 -21q-59 -10 -86 -30.5t-41 -69.5l-211 -692q-43 -147 -97.5 -247.5t-137 -179.5t-202.5 -117t-282 -38q-238 0 -385 104.5t-147 288.5zM895 1972h274l166 -375l-84 -12z" />
    <glyph glyph-name="Uacute" unicode="&#xda;" horiz-adv-x="1746" 
d="M240 362q0 70 24 150l219 731q14 49 -2 69.5t-67 30.5l-123 21l24 80l324 -10l342 10l-25 -80l-110 -21q-61 -10 -88 -30.5t-41 -69.5l-219 -727q-23 -80 -23 -137q0 -150 108.5 -222.5t262.5 -72.5q123 0 216 38t154.5 112.5t98.5 150.5t71 184q104 324 195 674
q12 49 -2 69.5t-66 30.5l-122 21l26 80l289 -10l262 10l-22 -80l-117 -21q-59 -10 -86 -30.5t-41 -69.5l-211 -692q-43 -147 -97.5 -247.5t-137 -179.5t-202.5 -117t-282 -38q-238 0 -385 104.5t-147 288.5zM1047 1597l237 375h275l-429 -387z" />
    <glyph glyph-name="Ucircumflex" unicode="&#xdb;" horiz-adv-x="1746" 
d="M240 362q0 70 24 150l219 731q14 49 -2 69.5t-67 30.5l-123 21l24 80l324 -10l342 10l-25 -80l-110 -21q-61 -10 -88 -30.5t-41 -69.5l-219 -727q-23 -80 -23 -137q0 -150 108.5 -222.5t262.5 -72.5q123 0 216 38t154.5 112.5t98.5 150.5t71 184q104 324 195 674
q12 49 -2 69.5t-66 30.5l-122 21l26 80l289 -10l262 10l-22 -80l-117 -21q-59 -10 -86 -30.5t-41 -69.5l-211 -692q-43 -147 -97.5 -247.5t-137 -179.5t-202.5 -117t-282 -38q-238 0 -385 104.5t-147 288.5zM852 1614l344 371h111l184 -371l-51 -37l-211 225h-4l-332 -223z
" />
    <glyph glyph-name="Udieresis" unicode="&#xdc;" horiz-adv-x="1746" 
d="M240 362q0 70 24 150l219 731q14 49 -2 69.5t-67 30.5l-123 21l24 80l324 -10l342 10l-25 -80l-110 -21q-61 -10 -88 -30.5t-41 -69.5l-219 -727q-23 -80 -23 -137q0 -150 108.5 -222.5t262.5 -72.5q123 0 216 38t154.5 112.5t98.5 150.5t71 184q104 324 195 674
q12 49 -2 69.5t-66 30.5l-122 21l26 80l289 -10l262 10l-22 -80l-117 -21q-59 -10 -86 -30.5t-41 -69.5l-211 -692q-43 -147 -97.5 -247.5t-137 -179.5t-202.5 -117t-282 -38q-238 0 -385 104.5t-147 288.5zM887 1769.5q0 61.5 43 104.5t104.5 43t104.5 -43t43 -104.5
t-43 -103.5t-104.5 -42t-104.5 42t-43 103.5zM1278 1769.5q0 61.5 43 104.5t104.5 43t104.5 -43t43 -104.5t-43 -103.5t-104.5 -42t-104.5 42t-43 103.5z" />
    <glyph glyph-name="Yacute" unicode="&#xdd;" horiz-adv-x="1650" 
d="M213 1313q33 68 119 109.5t182 41.5q197 0 285 -140t88 -357q0 -147 -45 -332l28 -6q160 412 340.5 623.5t399.5 211.5q104 0 168.5 -56t64.5 -138q0 -63 -46 -124t-126 -91l-69 10q78 51 77 123q0 49 -32.5 79.5t-87.5 30.5q-127 0 -265 -137q-176 -174 -339.5 -515
t-163.5 -507q0 -27 12 -36t49 -15l123 -20l-27 -78l-309 10l-363 -10l25 78l119 20q63 10 92 30.5t45 67.5q49 141 88 340t39 355q0 446 -358 446l-97 -24zM958 1597l238 375h274l-428 -387z" />
    <glyph glyph-name="Thorn" unicode="&#xde;" horiz-adv-x="1392" 
d="M-133 -240q4 18 22 78l113 21q53 10 82 31.5t43 66.5q61 190 164 543q217 754 217 786q0 27 -15.5 39t-54.5 18l-125 21l27 80l338 -10l328 10l-25 -80l-115 -21q-61 -10 -86.5 -29.5t-44.5 -70.5q-37 -106 -69 -231q106 25 202 24q223 0 347 -124t124 -304
q0 -199 -130 -328.5t-324 -129.5q-137 0 -215 61t-78 131q0 41 26.5 67.5t65.5 26.5q33 0 55.5 -21.5t22.5 -52.5q0 -37 -25.5 -62.5t-58.5 -31.5q68 -37 133 -37q125 0 215 99.5t90 271.5q0 78 -22.5 138.5t-57.5 96t-80 59.5t-87 33t-83 9h-67q-47 0 -65.5 -15.5
t-30.5 -60.5l-254 -880q-12 -41 -13 -66q0 -45 72 -57l127 -21l-25 -78l-340 11z" />
    <glyph glyph-name="germandbls" unicode="&#xdf;" horiz-adv-x="1097" 
d="M-395 -399q0 47 34.5 82.5t92.5 35.5q20 0 39.5 -14t19.5 -39v-67q0 -53 41 -54q51 0 92 81t105 294l282 965h-184l25 73h184q193 639 567 639q139 0 210 -70.5t71 -178.5q0 -76 -37 -139.5t-88 -107.5t-103.5 -84t-89.5 -86t-37 -95q0 -57 70 -264t70 -310
q0 -127 -81 -210t-214 -83q-98 0 -166 55.5t-68 127.5q0 47 29 73.5t66 26.5q39 0 62.5 -24.5t23.5 -57.5t-23 -58.5t-61 -31.5q29 -39 98 -39q57 0 99 44t42 120q0 78 -61.5 285.5t-61.5 252.5q0 49 57.5 125t126 145.5t126 167t57.5 187.5q0 68 -36 110t-103 42
q-29 0 -54.5 -10.5t-49 -35t-42 -49t-40 -69.5t-36 -78t-35 -92.5t-32.5 -95t-33.5 -104t-32.5 -101.5q-51 -158 -144 -450t-114 -357q-106 -330 -220 -469t-279 -139q-78 0 -121 39t-43 92z" />
    <glyph glyph-name="agrave" unicode="&#xe0;" horiz-adv-x="1144" 
d="M35 162q0 104 47 248.5t122 278.5t186.5 228.5t225.5 94.5q139 0 240 -119l43 90q45 25 115 25q55 0 71 -11q-213 -647 -282 -872l10 -19q45 14 118 79t111 124l37 -45q-49 -100 -173 -197.5t-220 -97.5q-94 0 -94 78q0 66 158 465l-13 10q-317 -553 -542 -553
q-160 0 -160 193zM244 168q0 -23 13 -38t36 -15q82 0 268.5 249.5t241.5 407.5q-14 68 -60.5 116t-93.5 48q-90 0 -189.5 -153.5t-157.5 -333t-58 -281.5zM391 1518h275l165 -375l-83 -13z" />
    <glyph glyph-name="aacute" unicode="&#xe1;" horiz-adv-x="1144" 
d="M35 162q0 104 47 248.5t122 278.5t186.5 228.5t225.5 94.5q139 0 240 -119l43 90q45 25 115 25q55 0 71 -11q-213 -647 -282 -872l10 -19q45 14 118 79t111 124l37 -45q-49 -100 -173 -197.5t-220 -97.5q-94 0 -94 78q0 66 158 465l-13 10q-317 -553 -542 -553
q-160 0 -160 193zM244 168q0 -23 13 -38t36 -15q82 0 268.5 249.5t241.5 407.5q-14 68 -60.5 116t-93.5 48q-90 0 -189.5 -153.5t-157.5 -333t-58 -281.5zM557 1143l238 375h274l-428 -388z" />
    <glyph glyph-name="acircumflex" unicode="&#xe2;" horiz-adv-x="1144" 
d="M35 162q0 104 47 248.5t122 278.5t186.5 228.5t225.5 94.5q139 0 240 -119l43 90q45 25 115 25q55 0 71 -11q-213 -647 -282 -872l10 -19q45 14 118 79t111 124l37 -45q-49 -100 -173 -197.5t-220 -97.5q-94 0 -94 78q0 66 158 465l-13 10q-317 -553 -542 -553
q-160 0 -160 193zM244 168q0 -23 13 -38t36 -15q82 0 268.5 249.5t241.5 407.5q-14 68 -60.5 116t-93.5 48q-90 0 -189.5 -153.5t-157.5 -333t-58 -281.5zM381 1159l344 371h111l184 -371l-51 -37l-211 226h-4l-332 -224z" />
    <glyph glyph-name="atilde" unicode="&#xe3;" horiz-adv-x="1144" 
d="M35 162q0 104 47 248.5t122 278.5t186.5 228.5t225.5 94.5q139 0 240 -119l43 90q45 25 115 25q55 0 71 -11q-213 -647 -282 -872l10 -19q45 14 118 79t111 124l37 -45q-49 -100 -173 -197.5t-220 -97.5q-94 0 -94 78q0 66 158 465l-13 10q-317 -553 -542 -553
q-160 0 -160 193zM244 168q0 -23 13 -38t36 -15q82 0 268.5 249.5t241.5 407.5q-14 68 -60.5 116t-93.5 48q-90 0 -189.5 -153.5t-157.5 -333t-58 -281.5zM461 1206q82 211 227 211q49 0 141.5 -39t120.5 -39q41 0 67.5 15.5t61.5 66.5l39 -22q-82 -209 -223 -209
q-53 0 -139 37t-113 37q-88 0 -141 -80z" />
    <glyph glyph-name="adieresis" unicode="&#xe4;" horiz-adv-x="1144" 
d="M35 162q0 104 47 248.5t122 278.5t186.5 228.5t225.5 94.5q139 0 240 -119l43 90q45 25 115 25q55 0 71 -11q-213 -647 -282 -872l10 -19q45 14 118 79t111 124l37 -45q-49 -100 -173 -197.5t-220 -97.5q-94 0 -94 78q0 66 158 465l-13 10q-317 -553 -542 -553
q-160 0 -160 193zM244 168q0 -23 13 -38t36 -15q82 0 268.5 249.5t241.5 407.5q-14 68 -60.5 116t-93.5 48q-90 0 -189.5 -153.5t-157.5 -333t-58 -281.5zM436 1314.5q0 61.5 43 104.5t104.5 43t104.5 -43t43 -104.5t-43 -103.5t-104.5 -42t-104.5 42t-43 103.5zM827 1314.5
q0 61.5 43 104.5t104.5 43t104.5 -43t43 -104.5t-43 -103.5t-104.5 -42t-104.5 42t-43 103.5z" />
    <glyph glyph-name="aring" unicode="&#xe5;" horiz-adv-x="1144" 
d="M35 162q0 104 47 248.5t122 278.5t186.5 228.5t225.5 94.5q139 0 240 -119l43 90q45 25 115 25q55 0 71 -11q-213 -647 -282 -872l10 -19q45 14 118 79t111 124l37 -45q-49 -100 -173 -197.5t-220 -97.5q-94 0 -94 78q0 66 158 465l-13 10q-317 -553 -542 -553
q-160 0 -160 193zM244 168q0 -23 13 -38t36 -15q82 0 268.5 249.5t241.5 407.5q-14 68 -60.5 116t-93.5 48q-90 0 -189.5 -153.5t-157.5 -333t-58 -281.5zM522 1337.5q0 96.5 67.5 162t164 65.5t163 -64.5t66.5 -163.5q0 -96 -66.5 -161.5t-163 -65.5t-164 65.5t-67.5 162z
M602 1337.5q0 -69.5 41 -114.5t110.5 -45t109.5 45t40 114q0 72 -40 117t-109.5 45t-110.5 -46t-41 -115.5z" />
    <glyph glyph-name="ae" unicode="&#xe6;" horiz-adv-x="1402" 
d="M33 162q0 141 80 337.5t224 354.5t294 158q154 0 252 -138q160 137 329 138q104 0 163 -48.5t59 -132.5q0 -129 -178.5 -234t-436.5 -120q-31 -92 -31 -168q0 -98 44.5 -150.5t118 -52.5t136 57.5t87.5 139.5l47 -45q-25 -113 -120 -201t-245 -88q-111 0 -192.5 75
t-83.5 232q-217 -307 -385 -307q-162 0 -162 193zM244 168q0 -23 13 -38t36 -15q43 0 127 84t174 211q70 215 203 376q-18 66 -54 108t-79 42q-88 0 -189.5 -151.5t-166 -333t-64.5 -283.5zM842 549q180 18 303 110.5t123 192.5q0 37 -23.5 59.5t-60.5 22.5
q-96 0 -187.5 -111.5t-154.5 -273.5z" />
    <glyph glyph-name="ccedilla" unicode="&#xe7;" horiz-adv-x="851" 
d="M-98 -508l26 66q82 -41 162 -41q162 0 162 129q0 14 -5 28.5t-12.5 26.5t-20.5 24.5t-24.5 21.5t-30 20.5t-29.5 17.5t-32.5 15.5t-30 12.5t-29 12t-22.5 9l222 150q-84 25 -137.5 95.5t-53.5 191t52.5 252.5t136 239.5t201.5 178.5t241 71q100 0 158.5 -44t58.5 -114
q0 -63 -62.5 -122.5t-130.5 -69.5l-45 34q43 127 43 185q0 47 -43 47q-86 0 -181 -101.5t-156.5 -247t-61.5 -266.5q0 -100 43 -153.5t117 -53.5t135 57.5t86 139.5l59 -47q-27 -113 -126 -200t-246 -87h-9l-100 -92q98 -29 158.5 -85t60.5 -132q0 -100 -80 -164.5
t-219 -64.5t-235 61z" />
    <glyph glyph-name="egrave" unicode="&#xe8;" horiz-adv-x="872" 
d="M47 280.5q0 159.5 89 329.5t238.5 286t305.5 116q104 0 162.5 -48.5t58.5 -132.5q0 -129 -176 -233t-438 -121q-29 -86 -29 -168q0 -98 44 -150.5t116 -52.5q74 0 136 57.5t87 139.5l47 -45q-25 -113 -120 -201t-242 -88q-113 0 -196 76t-83 235.5zM311 549
q178 18 302 110.5t124 192.5q0 35 -23.5 58.5t-62.5 23.5q-96 0 -186.5 -111.5t-153.5 -273.5zM346 1518h275l165 -375l-84 -13z" />
    <glyph glyph-name="eacute" unicode="&#xe9;" horiz-adv-x="872" 
d="M47 280.5q0 159.5 89 329.5t238.5 286t305.5 116q104 0 162.5 -48.5t58.5 -132.5q0 -129 -176 -233t-438 -121q-29 -86 -29 -168q0 -98 44 -150.5t116 -52.5q74 0 136 57.5t87 139.5l47 -45q-25 -113 -120 -201t-242 -88q-113 0 -196 76t-83 235.5zM311 549
q178 18 302 110.5t124 192.5q0 35 -23.5 58.5t-62.5 23.5q-96 0 -186.5 -111.5t-153.5 -273.5zM504 1143l237 375h275l-428 -388z" />
    <glyph glyph-name="ecircumflex" unicode="&#xea;" horiz-adv-x="872" 
d="M47 280.5q0 159.5 89 329.5t238.5 286t305.5 116q104 0 162.5 -48.5t58.5 -132.5q0 -129 -176 -233t-438 -121q-29 -86 -29 -168q0 -98 44 -150.5t116 -52.5q74 0 136 57.5t87 139.5l47 -45q-25 -113 -120 -201t-242 -88q-113 0 -196 76t-83 235.5zM299 1159l344 371h111
l184 -371l-51 -37l-211 226h-4l-332 -224zM311 549q178 18 302 110.5t124 192.5q0 35 -23.5 58.5t-62.5 23.5q-96 0 -186.5 -111.5t-153.5 -273.5z" />
    <glyph glyph-name="edieresis" unicode="&#xeb;" horiz-adv-x="872" 
d="M47 280.5q0 159.5 89 329.5t238.5 286t305.5 116q104 0 162.5 -48.5t58.5 -132.5q0 -129 -176 -233t-438 -121q-29 -86 -29 -168q0 -98 44 -150.5t116 -52.5q74 0 136 57.5t87 139.5l47 -45q-25 -113 -120 -201t-242 -88q-113 0 -196 76t-83 235.5zM311 549
q178 18 302 110.5t124 192.5q0 35 -23.5 58.5t-62.5 23.5q-96 0 -186.5 -111.5t-153.5 -273.5zM362 1314.5q0 61.5 43.5 104.5t104.5 43t104 -43t43 -104.5t-43 -103.5t-104 -42t-104.5 42t-43.5 103.5zM754 1314.5q0 61.5 43 104.5t104.5 43t104.5 -43t43 -104.5
t-43 -103.5t-104.5 -42t-104.5 42t-43 103.5z" />
    <glyph glyph-name="igrave" unicode="&#xec;" horiz-adv-x="636" 
d="M45 27q0 47 156.5 431t156.5 404q0 27 -22 27q-53 0 -164 -133l-39 39q10 18 28.5 41.5t59.5 69.5t99.5 76t121.5 30q47 0 76 -33t29 -90q0 -20 -16.5 -72.5t-48 -137.5t-57.5 -149.5t-68 -167t-52 -131.5l-41 -104l8 -16q53 14 128 77.5t118 122.5l35 -45
q-49 -106 -185.5 -201.5t-238.5 -95.5q-39 0 -61.5 16.5t-22.5 41.5zM168 1518h274l166 -375l-84 -13z" />
    <glyph glyph-name="iacute" unicode="&#xed;" horiz-adv-x="636" 
d="M45 27q0 47 156.5 431t156.5 404q0 27 -22 27q-53 0 -164 -133l-39 39q10 18 28.5 41.5t59.5 69.5t99.5 76t121.5 30q47 0 76 -33t29 -90q0 -20 -16.5 -72.5t-48 -137.5t-57.5 -149.5t-68 -167t-52 -131.5l-41 -104l8 -16q53 14 128 77.5t118 122.5l35 -45
q-49 -106 -185.5 -201.5t-238.5 -95.5q-39 0 -61.5 16.5t-22.5 41.5zM264 1143l238 375h274l-428 -388z" />
    <glyph glyph-name="icircumflex" unicode="&#xee;" horiz-adv-x="636" 
d="M45 27q0 47 156.5 431t156.5 404q0 27 -22 27q-53 0 -164 -133l-39 39q10 18 28.5 41.5t59.5 69.5t99.5 76t121.5 30q47 0 76 -33t29 -90q0 -20 -16.5 -72.5t-48 -137.5t-57.5 -149.5t-68 -167t-52 -131.5l-41 -104l8 -16q53 14 128 77.5t118 122.5l35 -45
q-49 -106 -185.5 -201.5t-238.5 -95.5q-39 0 -61.5 16.5t-22.5 41.5zM137 1159l344 371h111l184 -371l-51 -37l-211 226h-4l-332 -224z" />
    <glyph glyph-name="idieresis" unicode="&#xef;" horiz-adv-x="636" 
d="M45 27q0 47 156.5 431t156.5 404q0 27 -22 27q-53 0 -164 -133l-39 39q10 18 28.5 41.5t59.5 69.5t99.5 76t121.5 30q47 0 76 -33t29 -90q0 -20 -16.5 -72.5t-48 -137.5t-57.5 -149.5t-68 -167t-52 -131.5l-41 -104l8 -16q53 14 128 77.5t118 122.5l35 -45
q-49 -106 -185.5 -201.5t-238.5 -95.5q-39 0 -61.5 16.5t-22.5 41.5zM162 1314.5q0 61.5 43 104.5t104.5 43t104.5 -43t43 -104.5t-43 -103.5t-104.5 -42t-104.5 42t-43 103.5zM553 1314.5q0 61.5 43 104.5t104.5 43t104.5 -43t43 -104.5t-43 -103.5t-104.5 -42t-104.5 42
t-43 103.5z" />
    <glyph glyph-name="eth" unicode="&#xf0;" horiz-adv-x="1005" 
d="M57 301q0 162 68 323.5t196 274.5t277 113q127 0 178 -107l15 6q-35 184 -146 371l-196 -96l-17 78l170 84q-96 145 -174 208l49 43q127 -86 228 -200l223 110l16 -75l-190 -97q195 -262 194 -598q0 -125 -38 -256t-108.5 -247.5t-188 -191.5t-261.5 -75q-131 0 -213 84
t-82 248zM260 270q0 -84 34 -151.5t112 -67.5q90 0 171.5 116t126 269.5t44.5 282.5q0 96 -37 152.5t-97 56.5q-94 0 -178 -113t-130 -263.5t-46 -281.5z" />
    <glyph glyph-name="ntilde" unicode="&#xf1;" horiz-adv-x="1187" 
d="M45 -10q283 752 283 866q0 33 -23 33q-53 0 -164 -133l-37 39q6 12 27 39.5t59.5 71.5t98 75t123.5 31q57 0 88.5 -39t31.5 -99q0 -168 -192 -520l14 -10q55 96 130 203.5t167 216t190.5 178.5t174.5 70q51 0 79.5 -30t28.5 -77q0 -53 -77.5 -242.5t-155.5 -359.5
t-78 -176l6 -16q45 14 118 77.5t112 122.5l36 -45q-51 -109 -180 -203t-229 -94q-41 0 -65.5 17.5t-24.5 44.5q0 53 166 406.5t166 389.5q0 23 -21 23q-76 0 -293 -268.5t-268 -376.5l-51 -170q-53 -51 -181 -51q-39 0 -59 6zM418 1206q82 211 227 211q47 0 139.5 -39
t122.5 -39q43 0 68.5 15.5t60.5 66.5l39 -22q-82 -209 -223 -209q-53 0 -139 37t-113 37q-88 0 -141 -80z" />
    <glyph glyph-name="ograve" unicode="&#xf2;" horiz-adv-x="1001" 
d="M57 297q0 162 74 324.5t215 276.5t309 114q129 0 209 -91.5t80 -232.5q0 -121 -43 -247t-117.5 -231.5t-189.5 -173t-244 -67.5t-211 83t-82 245zM260 270q0 -84 34 -151.5t112 -67.5q90 0 170.5 116t122.5 269.5t42 282.5q0 209 -127 209q-94 0 -178 -113t-130 -263.5
t-46 -281.5zM367 1518h274l166 -375l-84 -13z" />
    <glyph glyph-name="oacute" unicode="&#xf3;" horiz-adv-x="1001" 
d="M57 297q0 162 74 324.5t215 276.5t309 114q129 0 209 -91.5t80 -232.5q0 -121 -43 -247t-117.5 -231.5t-189.5 -173t-244 -67.5t-211 83t-82 245zM260 270q0 -84 34 -151.5t112 -67.5q90 0 170.5 116t122.5 269.5t42 282.5q0 209 -127 209q-94 0 -178 -113t-130 -263.5
t-46 -281.5zM496 1143l237 375h275l-428 -388z" />
    <glyph glyph-name="ocircumflex" unicode="&#xf4;" horiz-adv-x="1001" 
d="M57 297q0 162 74 324.5t215 276.5t309 114q129 0 209 -91.5t80 -232.5q0 -121 -43 -247t-117.5 -231.5t-189.5 -173t-244 -67.5t-211 83t-82 245zM260 270q0 -84 34 -151.5t112 -67.5q90 0 170.5 116t122.5 269.5t42 282.5q0 209 -127 209q-94 0 -178 -113t-130 -263.5
t-46 -281.5zM352 1159l344 371h111l184 -371l-51 -37l-211 226h-4l-332 -224z" />
    <glyph glyph-name="otilde" unicode="&#xf5;" horiz-adv-x="1001" 
d="M57 297q0 162 74 324.5t215 276.5t309 114q129 0 209 -91.5t80 -232.5q0 -121 -43 -247t-117.5 -231.5t-189.5 -173t-244 -67.5t-211 83t-82 245zM260 270q0 -84 34 -151.5t112 -67.5q90 0 170.5 116t122.5 269.5t42 282.5q0 209 -127 209q-94 0 -178 -113t-130 -263.5
t-46 -281.5zM332 1206q82 211 227 211q47 0 139.5 -39t122.5 -39q43 0 68.5 15.5t60.5 66.5l39 -22q-82 -209 -223 -209q-53 0 -139 37t-113 37q-88 0 -141 -80z" />
    <glyph glyph-name="odieresis" unicode="&#xf6;" horiz-adv-x="1001" 
d="M57 297q0 162 74 324.5t215 276.5t309 114q129 0 209 -91.5t80 -232.5q0 -121 -43 -247t-117.5 -231.5t-189.5 -173t-244 -67.5t-211 83t-82 245zM260 270q0 -84 34 -151.5t112 -67.5q90 0 170.5 116t122.5 269.5t42 282.5q0 209 -127 209q-94 0 -178 -113t-130 -263.5
t-46 -281.5zM342 1314.5q0 61.5 43 104.5t104.5 43t104.5 -43t43 -104.5t-43 -103.5t-104.5 -42t-104.5 42t-43 103.5zM733 1314.5q0 61.5 43 104.5t104.5 43t104.5 -43t43 -104.5t-43 -103.5t-104.5 -42t-104.5 42t-43 103.5z" />
    <glyph glyph-name="divide" unicode="&#xf7;" 
d="M197 688l26 90h912l-27 -90h-911zM416 389q0 66 44 110t107.5 44t106.5 -44t43 -110q0 -63 -43 -107t-106.5 -44t-107.5 44t-44 107zM584 1075.5q0 63.5 44 107.5t107.5 44t107.5 -44t44 -107.5t-44 -108.5t-107.5 -45t-107.5 45t-44 108.5z" />
    <glyph glyph-name="oslash" unicode="&#xf8;" horiz-adv-x="1001" 
d="M-82 -66l176 181q-37 80 -37 182q0 162 74 324.5t215 276.5t309 114q133 0 213 -97l193 199l51 -57l-203 -209q35 -74 35 -160q0 -121 -43 -247t-117.5 -231.5t-189.5 -173t-244 -67.5q-131 0 -211 82l-166 -172zM260 287l477 493q-16 147 -123 148q-92 0 -175 -108.5
t-129 -255t-50 -277.5zM268 184q31 -133 138 -133q84 0 160.5 104.5t120.5 245t52 271.5z" />
    <glyph glyph-name="ugrave" unicode="&#xf9;" horiz-adv-x="1187" 
d="M86 74q0 74 127 407.5t127 376.5q0 29 -23 29q-27 0 -67.5 -33t-69.5 -66l-26 -32l-37 39q125 217 297 217q49 0 81.5 -35t32.5 -86q0 -80 -123.5 -395.5t-123.5 -343.5q0 -23 22 -23q74 0 276.5 264t258.5 381q33 115 47 172q53 49 182 49q43 0 59 -4
q-66 -172 -168 -486.5t-108 -381.5l8 -17q45 14 118 79t114 124l34 -45q-47 -100 -168.5 -197.5t-218.5 -97.5q-41 0 -60.5 21.5t-19.5 52.5q0 141 174 582l-14 10q-61 -109 -127.5 -209t-153.5 -211t-178.5 -178.5t-167.5 -67.5q-51 0 -77.5 30t-26.5 75zM373 1518h274
l166 -375l-84 -13z" />
    <glyph glyph-name="uacute" unicode="&#xfa;" horiz-adv-x="1187" 
d="M86 74q0 74 127 407.5t127 376.5q0 29 -23 29q-27 0 -67.5 -33t-69.5 -66l-26 -32l-37 39q125 217 297 217q49 0 81.5 -35t32.5 -86q0 -80 -123.5 -395.5t-123.5 -343.5q0 -23 22 -23q74 0 276.5 264t258.5 381q33 115 47 172q53 49 182 49q43 0 59 -4
q-66 -172 -168 -486.5t-108 -381.5l8 -17q45 14 118 79t114 124l34 -45q-47 -100 -168.5 -197.5t-218.5 -97.5q-41 0 -60.5 21.5t-19.5 52.5q0 141 174 582l-14 10q-61 -109 -127.5 -209t-153.5 -211t-178.5 -178.5t-167.5 -67.5q-51 0 -77.5 30t-26.5 75zM627 1143l237 375
h275l-428 -388z" />
    <glyph glyph-name="ucircumflex" unicode="&#xfb;" horiz-adv-x="1187" 
d="M86 74q0 74 127 407.5t127 376.5q0 29 -23 29q-27 0 -67.5 -33t-69.5 -66l-26 -32l-37 39q125 217 297 217q49 0 81.5 -35t32.5 -86q0 -80 -123.5 -395.5t-123.5 -343.5q0 -23 22 -23q74 0 276.5 264t258.5 381q33 115 47 172q53 49 182 49q43 0 59 -4
q-66 -172 -168 -486.5t-108 -381.5l8 -17q45 14 118 79t114 124l34 -45q-47 -100 -168.5 -197.5t-218.5 -97.5q-41 0 -60.5 21.5t-19.5 52.5q0 141 174 582l-14 10q-61 -109 -127.5 -209t-153.5 -211t-178.5 -178.5t-167.5 -67.5q-51 0 -77.5 30t-26.5 75zM406 1159l344 371
h110l184 -371l-51 -37l-211 226h-4l-332 -224z" />
    <glyph glyph-name="udieresis" unicode="&#xfc;" horiz-adv-x="1187" 
d="M86 74q0 74 127 407.5t127 376.5q0 29 -23 29q-27 0 -67.5 -33t-69.5 -66l-26 -32l-37 39q125 217 297 217q49 0 81.5 -35t32.5 -86q0 -80 -123.5 -395.5t-123.5 -343.5q0 -23 22 -23q74 0 276.5 264t258.5 381q33 115 47 172q53 49 182 49q43 0 59 -4
q-66 -172 -168 -486.5t-108 -381.5l8 -17q45 14 118 79t114 124l34 -45q-47 -100 -168.5 -197.5t-218.5 -97.5q-41 0 -60.5 21.5t-19.5 52.5q0 141 174 582l-14 10q-61 -109 -127.5 -209t-153.5 -211t-178.5 -178.5t-167.5 -67.5q-51 0 -77.5 30t-26.5 75zM414 1314.5
q0 61.5 43 104.5t104.5 43t104.5 -43t43 -104.5t-43 -103.5t-104.5 -42t-104.5 42t-43 103.5zM805 1314.5q0 61.5 43 104.5t104.5 43t104.5 -43t43 -104.5t-43 -103.5t-104.5 -42t-104.5 42t-43 103.5z" />
    <glyph glyph-name="yacute" unicode="&#xfd;" horiz-adv-x="1015" 
d="M-430 -451q18 6 97 31t127 42.5t121 45t134.5 58t112.5 63.5q12 20 24.5 289.5t12.5 431.5q0 352 -54 424q16 20 80 47t90 27q61 0 73.5 -64.5t12.5 -277.5q0 -438 -34 -693l16 -6l45 49q160 174 294 400.5t136 371.5q0 49 -28.5 75t-71.5 26q-72 0 -115 -53
q33 -6 57.5 -29t24.5 -57q0 -31 -22.5 -53.5t-53.5 -22.5q-37 0 -60.5 24.5t-23.5 63.5q0 90 91.5 170t203.5 80q92 0 127 -52.5t35 -115.5q0 -166 -192.5 -454t-498.5 -565.5t-589 -391.5zM483 1143l238 375h274l-428 -388z" />
    <glyph glyph-name="thorn" unicode="&#xfe;" horiz-adv-x="1089" 
d="M-311 -520l30 80l78 14q59 12 86 30.5t45 67.5q23 61 400 1174q-119 -35 -215 -72l-11 74q53 23 250 88l178 526q98 16 127 17q37 0 80 -6q-23 -66 -83 -235t-93 -261q145 35 254 35q127 0 189.5 -73t62.5 -169q0 -160 -90 -345t-243.5 -320.5t-311.5 -135.5
q-33 0 -88 13.5t-88 33.5l-70 -215q-49 -154 -49 -174q0 -25 20.5 -36t69.5 -17l119 -14l-31 -80l-317 8zM307 164q0 -53 59.5 -79t112.5 -26q80 0 168 111t145.5 271.5t57.5 297.5q0 170 -158 170q-68 0 -157 -20q-18 -55 -84 -258t-105 -327t-39 -140z" />
    <glyph glyph-name="ydieresis" unicode="&#xff;" horiz-adv-x="1015" 
d="M-430 -451q18 6 97 31t127 42.5t121 45t134.5 58t112.5 63.5q12 20 24.5 289.5t12.5 431.5q0 352 -54 424q16 20 80 47t90 27q61 0 73.5 -64.5t12.5 -277.5q0 -438 -34 -693l16 -6l45 49q160 174 294 400.5t136 371.5q0 49 -28.5 75t-71.5 26q-72 0 -115 -53
q33 -6 57.5 -29t24.5 -57q0 -31 -22.5 -53.5t-53.5 -22.5q-37 0 -60.5 24.5t-23.5 63.5q0 90 91.5 170t203.5 80q92 0 127 -52.5t35 -115.5q0 -166 -192.5 -454t-498.5 -565.5t-589 -391.5zM293 1314.5q0 61.5 43 104.5t104.5 43t104.5 -43t43 -104.5t-43 -103.5t-104.5 -42
t-104.5 42t-43 103.5zM684 1314.5q0 61.5 43 104.5t104.5 43t104.5 -43t43 -104.5t-43 -103.5t-104.5 -42t-104.5 42t-43 103.5z" />
    <glyph glyph-name="OE" unicode="&#x152;" horiz-adv-x="2433" 
d="M168 608q0 358 271.5 603t660.5 245q72 0 143.5 -3t160.5 -10t138 -9h590l326 22q-53 -125 -160 -416h-78q6 125 6 156q0 139 -96 139h-375q-16 0 -24.5 -4t-11.5 -10t-7 -18l-160 -527q115 2 236 8q51 4 82 23.5t59 77.5l58 112h73l-84 -282l-57 -250h-74l6 127
q2 51 -14 68.5t-68 21.5l-239 8l-137 -461q-8 -27 -9 -55q0 -76 113 -76h344q86 0 150.5 30t146.5 130l143 176h80l-202 -444q-266 10 -385 10h-576q-256 -20 -371 -20q-291 0 -475 174.5t-184 453.5zM418 631q0 -254 147.5 -404.5t409.5 -150.5q139 0 151 35
q123 393 308 1015q29 100 28 134q0 57 -53 78.5t-160 21.5h-102q-344 0 -536.5 -202.5t-192.5 -526.5z" />
    <glyph glyph-name="oe" unicode="&#x153;" horiz-adv-x="1497" 
d="M57 297q0 119 43 245t117 230.5t187.5 172t240.5 67.5q96 0 165 -54.5t97 -146.5q82 90 186.5 145.5t211.5 55.5q102 0 161.5 -48.5t59.5 -132.5q0 -129 -176 -233t-439 -121q-31 -92 -30 -168q0 -98 44 -150.5t117.5 -52.5t136 57.5t85.5 139.5l49 -45
q-25 -113 -120 -201t-245 -88q-180 0 -248 156q-152 -156 -350 -156q-129 0 -211 83t-82 245zM260 270q0 -84 34 -151.5t112 -67.5q90 0 171.5 116t126 269.5t44.5 282.5q0 209 -134 209q-94 0 -178 -113t-130 -263.5t-46 -281.5zM934 549q180 18 303 110.5t123 192.5
q0 37 -23.5 59.5t-62.5 22.5q-96 0 -186.5 -111.5t-153.5 -273.5z" />
    <glyph glyph-name="Ydieresis" unicode="&#x178;" horiz-adv-x="1650" 
d="M213 1313q33 68 119 109.5t182 41.5q197 0 285 -140t88 -357q0 -147 -45 -332l28 -6q160 412 340.5 623.5t399.5 211.5q104 0 168.5 -56t64.5 -138q0 -63 -46 -124t-126 -91l-69 10q78 51 77 123q0 49 -32.5 79.5t-87.5 30.5q-127 0 -265 -137q-176 -174 -339.5 -515
t-163.5 -507q0 -27 12 -36t49 -15l123 -20l-27 -78l-309 10l-363 -10l25 78l119 20q63 10 92 30.5t45 67.5q49 141 88 340t39 355q0 446 -358 446l-97 -24zM743 1749q0 61 43 104t104.5 43t104.5 -43t43 -104t-43 -103t-104.5 -42t-104.5 42t-43 103zM1135 1749q0 61 43 104
t104 43t104.5 -43t43.5 -104t-43.5 -103t-104.5 -42t-104 42t-43 103z" />
    <glyph glyph-name="circumflex" unicode="&#x2c6;" horiz-adv-x="739" 
d="M264 1159l344 371h111l184 -371l-51 -37l-211 226h-4l-332 -224z" />
    <glyph glyph-name="tilde" unicode="&#x2dc;" horiz-adv-x="739" 
d="M283 1206q82 211 227 211q47 0 139 -39t123 -39q43 0 68.5 15.5t60.5 66.5l39 -22q-82 -209 -223 -209q-53 0 -139 37t-113 37q-88 0 -141 -80z" />
    <glyph glyph-name="uni2000" unicode="&#x2000;" horiz-adv-x="991" 
 />
    <glyph glyph-name="uni2001" unicode="&#x2001;" horiz-adv-x="1984" 
 />
    <glyph glyph-name="uni2002" unicode="&#x2002;" horiz-adv-x="991" 
 />
    <glyph glyph-name="uni2003" unicode="&#x2003;" horiz-adv-x="1984" 
 />
    <glyph glyph-name="uni2004" unicode="&#x2004;" horiz-adv-x="661" 
 />
    <glyph glyph-name="uni2005" unicode="&#x2005;" horiz-adv-x="495" 
 />
    <glyph glyph-name="uni2006" unicode="&#x2006;" horiz-adv-x="329" 
 />
    <glyph glyph-name="uni2007" unicode="&#x2007;" horiz-adv-x="329" 
 />
    <glyph glyph-name="uni2008" unicode="&#x2008;" horiz-adv-x="247" 
 />
    <glyph glyph-name="uni2009" unicode="&#x2009;" horiz-adv-x="395" 
 />
    <glyph glyph-name="uni200A" unicode="&#x200a;" horiz-adv-x="108" 
 />
    <glyph glyph-name="uni2010" unicode="&#x2010;" horiz-adv-x="761" 
d="M141 494l52 151h477l-52 -151h-477z" />
    <glyph glyph-name="uni2011" unicode="&#x2011;" horiz-adv-x="761" 
d="M141 494l52 151h477l-52 -151h-477z" />
    <glyph glyph-name="figuredash" unicode="&#x2012;" horiz-adv-x="761" 
d="M141 494l52 151h477l-52 -151h-477z" />
    <glyph glyph-name="endash" unicode="&#x2013;" horiz-adv-x="1458" 
d="M158 598l39 113h1181l-37 -113h-1183z" />
    <glyph glyph-name="emdash" unicode="&#x2014;" horiz-adv-x="2496" 
d="M158 598l39 113h2220l-39 -113h-2220z" />
    <glyph glyph-name="quoteleft" unicode="&#x2018;" horiz-adv-x="585" 
d="M258 1063q0 90 45 167t122 131t154.5 90t170.5 65l30 -56q-156 -53 -232.5 -128t-76.5 -156q0 -111 162 -158q0 -57 -58.5 -117.5t-109.5 -60.5q-70 0 -138.5 63.5t-68.5 159.5z" />
    <glyph glyph-name="quoteright" unicode="&#x2019;" horiz-adv-x="612" 
d="M215 881q156 53 232.5 127.5t76.5 156.5q0 111 -162 158q0 57 58.5 117.5t109.5 60.5q70 0 138.5 -63.5t68.5 -159.5q0 -90 -45 -167t-121.5 -131t-154.5 -90t-170 -65z" />
    <glyph glyph-name="quotesinglbase" unicode="&#x201a;" horiz-adv-x="589" 
d="M-129 -276q156 53 232.5 127.5t76.5 156.5q0 111 -162 158q0 57 58.5 117.5t109.5 60.5q70 0 138.5 -63.5t68.5 -159.5q0 -90 -45 -167t-121.5 -131t-154.5 -90t-170 -65z" />
    <glyph glyph-name="quotedblleft" unicode="&#x201c;" horiz-adv-x="1056" 
d="M244 1065q0 90 45 167t121.5 131t154.5 90t170 65l31 -56q-156 -53 -232.5 -127.5t-76.5 -156.5q0 -111 161 -158q0 -57 -58 -117.5t-109 -60.5q-70 0 -138.5 63.5t-68.5 159.5zM705 1065q0 90 45 167t121.5 131t154.5 90t170 65l31 -56q-156 -53 -232.5 -127.5
t-76.5 -156.5q0 -111 161 -158q0 -57 -58 -117.5t-110 -60.5q-70 0 -138 63.5t-68 159.5z" />
    <glyph glyph-name="quotedblright" unicode="&#x201d;" horiz-adv-x="1085" 
d="M174 881q156 53 232.5 127.5t76.5 156.5q0 111 -161 158q0 57 58 117.5t109 60.5q70 0 138.5 -63.5t68.5 -159.5q0 -90 -45 -167t-121.5 -131t-154.5 -90t-170 -65zM641 881q156 53 232.5 127.5t76.5 156.5q0 111 -162 158q0 57 58.5 117.5t109.5 60.5q70 0 138.5 -63.5
t68.5 -159.5q0 -90 -45 -167t-121.5 -131t-154.5 -90t-170 -65z" />
    <glyph glyph-name="quotedblbase" unicode="&#x201e;" horiz-adv-x="1071" 
d="M-150 -276q156 53 233 127.5t77 156.5q0 111 -162 158q0 57 58.5 117.5t109.5 60.5q70 0 138.5 -63.5t68.5 -159.5q0 -90 -45 -167t-122 -131t-155 -90t-170 -65zM328 -276q156 53 232.5 127.5t76.5 156.5q0 111 -162 158q0 57 58.5 117.5t109.5 60.5q70 0 138.5 -63.5
t68.5 -159.5q0 -90 -45 -167t-122 -131t-154.5 -90t-170.5 -65z" />
    <glyph glyph-name="bullet" unicode="&#x2022;" horiz-adv-x="759" 
d="M176 710.5q0 106.5 75 181.5t181.5 75t181 -75t74.5 -181.5t-74.5 -181t-181 -74.5t-181.5 74.5t-75 181z" />
    <glyph glyph-name="ellipsis" unicode="&#x2026;" horiz-adv-x="1978" 
d="M25 141.5q0 71.5 50 121.5t122 50q70 0 120 -50t50 -121.5t-49.5 -122t-121 -50.5t-121.5 50.5t-50 122zM733 141.5q0 71.5 50.5 121.5t121.5 50q70 0 120 -50t50 -121.5t-49 -122t-120.5 -50.5t-122 50.5t-50.5 122zM1442 141.5q0 71.5 50 121.5t122 50q70 0 120 -50
t50 -121.5t-49 -122t-121 -50.5t-122 50.5t-50 122z" />
    <glyph glyph-name="uni202F" unicode="&#x202f;" horiz-adv-x="395" 
 />
    <glyph glyph-name="guilsinglleft" unicode="&#x2039;" horiz-adv-x="731" 
d="M154 727l616 578l70 -7l-420 -596l-6 -24l112 -524l-65 -4z" />
    <glyph glyph-name="guilsinglright" unicode="&#x203a;" horiz-adv-x="727" 
d="M23 154l417 596l6 24l-110 524l63 7l308 -578l-617 -577z" />
    <glyph glyph-name="uni205F" unicode="&#x205f;" horiz-adv-x="495" 
 />
    <glyph glyph-name="Euro" unicode="&#x20ac;" 
d="M31 537l20 86h146q12 119 49 231h-158l21 86h165q94 231 266.5 377.5t391.5 146.5q102 0 191 -25.5t126 -54.5l144 37q-59 -135 -174 -405l-78 4q8 102 8 139q0 104 -47 161.5t-172 57.5q-143 0 -251 -122.5t-175 -315.5h465l-21 -86h-471q-31 -109 -41 -231h471l-20 -86
h-455q2 -201 93 -309.5t247 -108.5q193 0 340 174l45 -62q-166 -262 -491 -262q-125 0 -219.5 48.5t-148.5 130t-81 180t-27 209.5h-159z" />
    <glyph glyph-name="trademark" unicode="&#x2122;" horiz-adv-x="2365" 
d="M283 557l24 74l82 10q33 4 46.5 15.5t23.5 39.5l233 656h-172q-70 0 -123 -95l-37 -71h-67l96 264q111 -12 174 -12l244 -2l242 2l186 12l-90 -264h-66l11 71q14 94 -56 95h-166l-227 -656q-8 -29 -1 -39t34 -16l96 -10l-22 -74l-224 4zM985 557l25 74l80 10
q33 4 47 15.5t24 39.5l232 607q18 49 -33 57l-51 10l24 74l193 -6l145 6l19 -670l446 629l12 41l146 -6l223 6l-23 -74l-71 -10q-51 -8 -70 -57l-192 -607q-16 -49 32 -55l80 -10l-26 -74l-240 4l-188 -4l24 74l66 10q35 6 50 17.5t23 37.5l207 635l-551 -776h-116l-27 776
l-229 -635q-16 -49 34 -55l97 -10l-25 -74l-188 4z" />
    <glyph glyph-name="uniE000" unicode="&#xe000;" horiz-adv-x="1010" 
d="M0 1010h1010v-1010h-1010v1010z" />
    <glyph glyph-name="uniFB01" unicode="&#xfb01;" horiz-adv-x="1136" 
d="M-387 -399q0 47 35 82.5t92 35.5q20 0 39.5 -14t19.5 -39v-67q0 -53 41 -54q51 0 92 81t105 294l282 965h-184l25 73h184q211 633 594 633q86 0 135 -41t49 -96q0 -49 -36.5 -88t-116.5 -39q-25 0 -37 2q0 158 -92 158q-123 0 -287 -529q78 0 238.5 19.5t191.5 19.5
q96 0 96 -79q0 -39 -86 -256l-168 -422l-43 -113l9 -16q53 14 127.5 77.5t117.5 122.5l35 -45q-49 -106 -184 -201.5t-238 -95.5q-39 0 -61.5 16.5t-22.5 41.5q0 47 157 429t157 402q0 27 -23 27h-321q-51 -158 -144.5 -450t-114.5 -357q-106 -330 -219.5 -469t-279.5 -139
q-78 0 -121 39t-43 92z" />
    <glyph glyph-name="uniFB02" unicode="&#xfb02;" horiz-adv-x="1155" 
d="M-387 -399q0 47 35 82.5t92 35.5q20 0 39.5 -14t19.5 -39v-67q0 -53 41 -54q51 0 92 81t105 294l282 965h-184l25 73h184q211 633 594 633q55 0 112.5 -18.5t84.5 -38.5q76 16 161 16l-286 -833l-195 -592l8 -14q53 14 130 77.5t118 120.5l35 -45q-51 -106 -186.5 -200.5
t-241.5 -94.5q-72 0 -80 58q0 84 428 1319q-14 41 -69.5 91t-116.5 50q-123 0 -287 -529l211 13l-43 -119l-189 33l-251 -807q-102 -328 -220 -468t-284 -140q-78 0 -121 39t-43 92z" />
    <glyph glyph-name="uniFB03" unicode="&#xfb03;" horiz-adv-x="1675" 
d="M-387 -399q0 47 35 82.5t92 35.5q20 0 39.5 -14t19.5 -39v-67q0 -53 41 -54q51 0 92 81t105 294l282 965h-186l25 73h184q211 633 594 633q76 0 141.5 -31.5t102.5 -82.5q119 115 293 114q86 0 135 -41t49 -96q0 -49 -37 -88t-117 -39q-25 0 -37 2q0 158 -92 158
q-123 0 -287 -529q78 0 239 19.5t192 19.5q96 0 96 -79q0 -39 -86 -256l-168 -422l-43 -113l8 -16q53 14 128 77.5t118 122.5l35 -45q-49 -106 -184.5 -201.5t-237.5 -95.5q-39 0 -61.5 16.5t-22.5 41.5q0 47 156.5 429t156.5 402q0 27 -22 27h-322q-33 -104 -80 -262
t-72.5 -243t-67.5 -206t-75 -187.5t-83 -149.5t-102 -132t-123 -94t-157 -72l-33 51q98 51 169 147.5t147 305.5q39 111 127 399.5t137 442.5h-324l-251 -807q-102 -328 -220 -468t-284 -140q-78 0 -121 39t-43 92zM553 958h326q72 211 172 371q-23 66 -78 112t-105 46
q-47 0 -90 -39t-81 -116t-62.5 -140.5t-56.5 -159.5z" />
    <glyph glyph-name="uniFB04" unicode="&#xfb04;" horiz-adv-x="1691" 
d="M-387 -399q0 47 35 82.5t92 35.5q20 0 39.5 -14t19.5 -39v-67q0 -53 41 -54q51 0 92 81t105 294l282 965h-186l25 73h184q211 633 594 633q76 0 141.5 -31.5t102.5 -82.5q119 115 293 114q55 0 113.5 -18.5t84.5 -38.5q76 16 162 16l-287 -833l-194 -592l8 -14
q53 14 130 77.5t118 120.5l34 -45q-51 -106 -186 -200.5t-242 -94.5q-72 0 -79 58q0 84 428 1319q-14 41 -69.5 91t-117.5 50q-123 0 -286 -529l210 13l-43 -119l-188 33q-33 -104 -80 -262t-72.5 -243t-67.5 -206t-75 -187.5t-83 -149.5t-102 -132t-123 -94t-157 -72
l-33 51q98 51 169 147.5t147 305.5q39 111 127 399.5t137 442.5h-324l-251 -807q-102 -328 -220 -468t-284 -140q-78 0 -121 39t-43 92zM553 958h326q72 211 172 371q-23 66 -78 112t-105 46q-47 0 -90 -39t-81 -116t-62.5 -140.5t-56.5 -159.5z" />
    </font>
</defs>
</svg>
