<?xml version="1.0" standalone="no"?>
<!DOCTYPE svg PUBLIC "-//W3C//DTD SVG 1.1//EN" "http://www.w3.org/Graphics/SVG/1.1/DTD/svg11.dtd" >
<svg xmlns="http://www.w3.org/2000/svg" xmlns:xlink="http://www.w3.org/1999/xlink" version="1.1">
<metadata>
Created by FontForge 20170731 at Sun Dec 11 23:03:21 2011
 By Aleksey,,,
Copyright (c) 2011 by Henrik Kubel, A2/SW/HK. All rights reserved.
</metadata>
<defs>
<font id="Antwerp-SemiBold" horiz-adv-x="1208" >
  <font-face 
    font-family="Antwerp"
    font-weight="600"
    font-stretch="normal"
    units-per-em="2048"
    panose-1="2 0 5 5 6 0 0 2 0 3"
    ascent="1536"
    descent="-512"
    x-height="1008"
    cap-height="1444"
    bbox="-74 -590 2433 1991"
    underline-thickness="40"
    underline-position="-391"
    unicode-range="U+0020-FB04"
  />
<missing-glyph horiz-adv-x="129" 
 />
    <glyph glyph-name=".notdef" horiz-adv-x="129" 
 />
    <glyph glyph-name=".null" horiz-adv-x="0" 
 />
    <glyph glyph-name="nonmarkingreturn" horiz-adv-x="682" 
 />
    <glyph glyph-name="space" unicode=" " horiz-adv-x="512" 
 />
    <glyph glyph-name="exclam" unicode="!" horiz-adv-x="698" 
d="M147 1253q0 94 52.5 152.5t148.5 58.5t149.5 -58t53.5 -153q0 -109 -71.5 -337t-82.5 -431h-96q-10 203 -82 431t-72 337zM150 166q0 80 57 138t139 58t139.5 -58t57.5 -138q0 -82 -57.5 -139.5t-139.5 -57.5t-139 57.5t-57 139.5z" />
    <glyph glyph-name="quotedbl" unicode="&#x22;" horiz-adv-x="997" 
d="M123 829v635h330l-226 -635h-104zM575 829v635h330l-225 -635h-105z" />
    <glyph glyph-name="numbersign" unicode="#" 
d="M51 494v112h299v252h-299v111h299v465h121v-465h262v465h127v-465h295v-111h-295v-252h295v-112h-295v-494h-127v494h-262v-494h-121v494h-299zM471 606h262v252h-262v-252z" />
    <glyph glyph-name="dollar" unicode="$" 
d="M96 463l103 10q18 -92 86 -248q31 -70 107.5 -106.5t178.5 -40.5v526q-207 90 -276 141q-164 121 -164 326q0 141 114.5 254t325.5 133v254h93v-250q82 0 182 -14t163.5 -28.5t73.5 -20.5q-25 -188 -39 -357h-88q-31 113 -71 228q-33 84 -221 86v-467q211 -94 274 -137
q195 -129 195 -330q0 -184 -129.5 -304t-339.5 -141v-319h-93v313q-223 0 -462 74q-1 209 -13 418zM395 1151q0 -76 44 -123t132 -96v414q-78 -18 -127 -67.5t-49 -127.5zM664 84q84 18 139 78.5t55 156.5q0 147 -194 244v-479z" />
    <glyph glyph-name="percent" unicode="%" horiz-adv-x="1626" 
d="M82 1079q0 152 98.5 262.5t233.5 110.5t234.5 -110.5t99.5 -262.5q0 -150 -99.5 -262t-234.5 -112t-233.5 112t-98.5 262zM139 33l1272 1427l74 -65l-1272 -1430zM303 1079.5q0 -67.5 3 -109.5t13.5 -89t34 -70t60.5 -23q39 0 62.5 23t33.5 70t13 89t3 109.5t-3 109.5
t-13 89t-33.5 70.5t-62.5 23.5q-37 0 -60.5 -23.5t-34 -70.5t-13.5 -89t-3 -109.5zM874 344q0 150 100.5 261.5t236 111.5t235.5 -111.5t100 -261.5q0 -152 -99 -262.5t-236.5 -110.5t-237 110.5t-99.5 262.5zM1098 344q0 -66 3 -110t13 -90t35 -68.5t61 -22.5
q39 0 62.5 22.5t34 70t13.5 89t3 109.5t-3 110t-13.5 89t-34 70.5t-62.5 23.5q-49 0 -75.5 -47t-31.5 -101.5t-5 -144.5z" />
    <glyph glyph-name="ampersand" unicode="&#x26;" horiz-adv-x="1740" 
d="M109 350.5q0 153.5 103 272t288 172.5q-133 76 -197.5 152.5t-64.5 176.5q0 147 114.5 245.5t315.5 98.5q166 0 278.5 -84t112.5 -227q0 -100 -76 -185t-225 -132q356 -328 366 -336l43 61q96 137 99 217q0 66 -74 76l-94 14v89l270 -11l262 11v-89l-76 -18
q-20 -6 -41.5 -18.5t-47 -39t-45 -48t-53.5 -66.5t-52.5 -70.5t-61.5 -85t-61 -86.5l307 -274q78 -72 199 -88v-82l-205 4l-231 -6l-246 231q-209 -256 -492 -256q-197 0 -306 114t-109 267.5zM389 449q0 -127 83 -208t204 -81q172 0 272 129l-442 418q-49 -41 -83 -113.5
t-34 -144.5zM494 1212q0 -84 47 -156.5t155 -154.5q76 37 122 116t46 154q0 94 -55 151.5t-139 57.5q-72 0 -124 -46t-52 -122z" />
    <glyph glyph-name="quotesingle" unicode="'" horiz-adv-x="544" 
d="M123 829v635h330l-226 -635h-104z" />
    <glyph glyph-name="parenleft" unicode="(" horiz-adv-x="659" 
d="M68 586v39q0 266 143 544.5t369 401.5l43 -45q-82 -88 -139.5 -212t-83 -255t-35 -231.5t-9.5 -196.5v-49q0 -137 15.5 -274.5t80 -324t173.5 -300.5l-43 -43q-227 121 -370.5 399.5t-143.5 546.5z" />
    <glyph glyph-name="parenright" unicode=")" horiz-adv-x="659" 
d="M35 -317q109 115 173 301t79.5 323t15.5 275v49q0 96 -9 196.5t-35 231.5t-83 255t-139 212l43 45q225 -123 368.5 -401.5t143.5 -544.5v-39q0 -268 -143.5 -547t-370.5 -399z" />
    <glyph glyph-name="asterisk" unicode="*" 
d="M100 629l47 159l375 121l-375 121l-47 160l164 74l299 -285l-84 407l127 113l123 -117l-88 -403l303 283l164 -72l-47 -162l-385 -119l385 -121l47 -159l-164 -72l-305 283l90 -406l-123 -115l-127 113l84 404l-299 -283z" />
    <glyph glyph-name="plus" unicode="+" 
d="M106 676v129h426v440h144v-440h424v-129h-424v-443h-144v443h-426z" />
    <glyph glyph-name="comma" unicode="," horiz-adv-x="618" 
d="M47 -338q121 57 179.5 136t58.5 161q0 162 -203 219q-4 4 -4 17q8 66 76.5 130t130.5 64q88 0 165.5 -81t77.5 -199q0 -170 -135 -310.5t-311 -197.5z" />
    <glyph glyph-name="hyphen" unicode="-" horiz-adv-x="745" 
d="M125 494v172h496v-172h-496z" />
    <glyph glyph-name="period" unicode="." horiz-adv-x="581" 
d="M94 166q0 80 57.5 138t139.5 58t139 -58t57 -138q0 -82 -57 -139.5t-139 -57.5t-139.5 57.5t-57.5 139.5z" />
    <glyph glyph-name="slash" unicode="/" horiz-adv-x="1105" 
d="M43 -229l930 1943l88 -45l-926 -1943z" />
    <glyph glyph-name="zero" unicode="0" 
d="M72 717q0 301 153.5 521t376.5 220q225 0 378 -220t153 -521q0 -197 -68 -368t-190.5 -275.5t-272.5 -104.5q-223 0 -376.5 223.5t-153.5 524.5zM383 717q0 -375 48 -515.5t171 -140.5t172 140.5t49 515.5t-48 510t-173 135q-84 0 -130 -55.5t-67.5 -194.5t-21.5 -395z
" />
    <glyph glyph-name="one" unicode="1" 
d="M207 1178v110l471 154h123q-8 -344 -8 -770l2 -469q0 -78 104 -92l164 -25v-100l-434 14l-410 -14v100l164 25q104 14 104 92q2 322 2 469v469q0 68 -34 67q-51 1 -248 -30z" />
    <glyph glyph-name="two" unicode="2" 
d="M104 -2v152q301 264 463 446q111 125 155 223.5t44 206.5q0 141 -62.5 230.5t-187.5 89.5q-111 0 -110 -74q0 -133 12 -287l-49 -41q-115 0 -189 58.5t-74 156.5q0 31 13.5 68t49.5 79t89 74.5t142 55t200 22.5q195 0 337 -99t142 -280q0 -121 -72.5 -229.5
t-218.5 -233.5q-356 -307 -401 -354l711 6l-41 -272q-324 4 -613 4q-295 0 -340 -2z" />
    <glyph glyph-name="three" unicode="3" 
d="M86 209q0 76 61.5 131t182.5 66l49 -44l4 -253q0 -49 100 -50q152 0 232 91.5t80 216.5q0 141 -92.5 230t-286.5 89l-121 -4l4 131q211 6 319.5 84t108.5 197q0 86 -65.5 145t-172.5 59q-162 0 -313 -100l-43 80q82 78 210 128t280 50q176 0 285.5 -89t109.5 -226
q0 -131 -104.5 -218t-266.5 -110q172 -4 309.5 -107.5t137.5 -285.5q0 -201 -171 -326t-409 -125q-207 0 -317.5 70t-110.5 170z" />
    <glyph glyph-name="four" unicode="4" 
d="M31 381v131q31 66 251 431.5t330 535.5l287 -6q-647 -836 -723 -975h461v37q0 231 -12 317l311 6v-360h223v-117h-223v-199q0 -47 20.5 -66.5t75.5 -31.5l88 -21v-73l-336 10l-327 -10v73l86 21q55 12 74.5 31.5t19.5 66.5v199h-606z" />
    <glyph glyph-name="five" unicode="5" 
d="M90 207q0 76 62.5 132t179.5 64l49 -41l6 -253q0 -49 117 -50q154 0 251 86t97 220q0 164 -115.5 253t-326.5 89q-150 0 -242 -19l25 756h387l487 8l-12 -258q-90 -14 -240 -14l-528 12l-11 -229q90 8 179 8q123 0 233.5 -28t206.5 -84t152.5 -157.5t56.5 -236.5
q0 -199 -164 -348.5t-428 -149.5q-207 0 -314.5 69t-107.5 171z" />
    <glyph glyph-name="six" unicode="6" 
d="M51 578q0 371 266.5 636t712.5 373l64 -80q-227 -78 -438.5 -254t-311.5 -452l21 -6q43 68 131 120t215 52q186 0 324.5 -131t138.5 -353q0 -217 -156 -365.5t-391 -148.5q-281 0 -428.5 176.5t-147.5 432.5zM375 471q0 -98 18.5 -180t76.5 -148.5t153 -66.5
q236 0 235 373q0 172 -63.5 278.5t-180.5 106.5q-239 -1 -239 -363z" />
    <glyph glyph-name="seven" unicode="7" 
d="M90 1171v273h1057v-154q-6 -12 -106.5 -198.5t-139.5 -269.5t-116.5 -251t-125 -312t-75.5 -284l-367 -22q43 139 112.5 289.5t137.5 267.5t157 246t143 199.5t124 157.5t74 93l-9 11q-113 -45 -467 -46h-399z" />
    <glyph glyph-name="eight" unicode="8" 
d="M70 350q0 158 107.5 250t234.5 109q-137 49 -219 141t-82 223q0 182 146 286.5t370 104.5q201 0 332 -90t131 -248q0 -96 -81 -178t-218 -112q193 -74 273.5 -180.5t80.5 -245.5q0 -170 -142.5 -305.5t-410.5 -135.5q-248 0 -385 109.5t-137 271.5zM315 352
q0 -119 76 -200.5t223 -81.5q106 0 188.5 63.5t82.5 169.5q0 47 -10.5 84t-40 71t-52 54t-80 50t-88 43t-110.5 48q-88 -45 -138.5 -128t-50.5 -173zM395 1169q0 -96 73 -160.5t226 -127.5q68 39 109 113.5t41 150.5q0 98 -64.5 161.5t-173.5 63.5q-94 0 -152.5 -55.5
t-58.5 -145.5z" />
    <glyph glyph-name="nine" unicode="9" 
d="M33 944q0 217 155.5 364.5t391.5 147.5q281 0 428 -176t147 -432q0 -371 -266 -636t-713 -374l-63 82q102 35 202.5 90.5t207 139t196.5 206.5t143 269l-20 6q-113 -170 -342 -170q-186 0 -326.5 131t-140.5 352zM348 977q0 -172 63.5 -277.5t180.5 -105.5q240 0 239 362
q0 72 -11 135.5t-36.5 124t-77 97.5t-122.5 37q-236 0 -236 -373z" />
    <glyph glyph-name="colon" unicode=":" horiz-adv-x="649" 
d="M127 166q0 80 57.5 138t139.5 58t139 -58t57 -138q0 -82 -57 -139.5t-139 -57.5t-139.5 57.5t-57.5 139.5zM127 807q0 82 57.5 139.5t139.5 57.5t139 -57.5t57 -139.5t-57 -139.5t-139 -57.5t-139.5 57.5t-57.5 139.5z" />
    <glyph glyph-name="semicolon" unicode=";" horiz-adv-x="641" 
d="M70 -338q121 57 179 136t58 161q0 162 -203 219q-4 4 -4 17q8 66 77 130t130 64q88 0 166 -81t78 -199q0 -170 -135 -310.5t-312 -197.5zM129 807q0 82 57.5 139.5t137.5 57.5q82 0 139 -57.5t57 -139.5t-57 -139.5t-139 -57.5q-80 0 -137.5 57.5t-57.5 139.5z" />
    <glyph glyph-name="less" unicode="&#x3c;" 
d="M90 641v186l946 375v-127l-835 -321v-41l835 -322v-125z" />
    <glyph glyph-name="equal" unicode="=" 
d="M131 496v110h946v-110h-946zM131 858v111h946v-111h-946z" />
    <glyph glyph-name="greater" unicode="&#x3e;" 
d="M170 266v125l838 322v41l-838 321v127l948 -375v-186z" />
    <glyph glyph-name="question" unicode="?" horiz-adv-x="968" 
d="M70 1227q0 92 94 164.5t299 72.5q184 0 301 -84t117 -233q0 -82 -42 -157t-102.5 -129t-122 -101t-103.5 -92t-42 -84q0 -12 18 -86l-55 -11q-47 25 -88 72t-41 98q0 63 41 137t90 130.5t90 130t41 137.5q0 74 -36.5 132t-112.5 58q-82 0 -82 -55l8 -233l-59 -35
q-84 4 -148.5 53t-64.5 115zM254 166q0 82 58.5 139t140.5 57t139 -57t57 -139t-57 -139.5t-139 -57.5t-140.5 57.5t-58.5 139.5z" />
    <glyph glyph-name="at" unicode="@" horiz-adv-x="2125" 
d="M90 477q0 434 300 708.5t745 274.5q418 0 669.5 -242.5t251.5 -613.5q0 -262 -149.5 -448.5t-395.5 -186.5q-92 0 -154.5 43t-80.5 113q-23 -57 -93.5 -106.5t-174.5 -49.5q-123 0 -206 74t-83 186q0 92 50 160t137 103.5t175 54t191 24.5v131q0 129 -26.5 186.5
t-125.5 57.5q-111 0 -110 -65v-201l-95 -41q-68 10 -114.5 56t-46.5 110q0 111 127 169t307 58q168 0 267 -79t99 -244q0 -78 -6 -272.5t-6 -235.5q0 -96 96 -97q121 0 213.5 160t92.5 336q0 332 -217.5 541t-552.5 209q-342 0 -575.5 -230.5t-233.5 -632.5
q0 -168 55 -319.5t159.5 -273t276.5 -193.5t389 -72q274 0 492 138l43 -70q-102 -96 -289.5 -149.5t-364.5 -53.5q-469 0 -752.5 272.5t-283.5 710.5zM983 291q0 -68 39 -112t113 -44q55 0 95 34t40 77l2 250q-289 -37 -289 -205z" />
    <glyph glyph-name="A" unicode="A" horiz-adv-x="1574" 
d="M-31 -10v88l99 20q47 8 68.5 30t39.5 67l475 1253l254 39q219 -598 498 -1290q20 -47 40.5 -69t65.5 -30l99 -20v-88l-363 10l-360 -10v88l106 20q57 12 79 34q12 12 12 31q0 15 -7 34l-139 383h-492q-88 -240 -127 -383q-6 -19 -6 -34q0 -19 11 -32q18 -23 73 -33
l129 -20v-88l-350 10zM479 682h424l-213 588z" />
    <glyph glyph-name="B" unicode="B" horiz-adv-x="1507" 
d="M80 -10v90l106 20q55 10 75 31t22 66q6 180 6 518l-6 518q-2 51 -21.5 70.5t-75.5 29.5l-106 21v90l303 -10q360 8 522 8q180 0 299 -90t119 -248q0 -127 -88 -219t-244 -117v-14q174 -16 289 -120t115 -253q0 -70 -24.5 -134.5t-80 -126t-162 -99t-251.5 -37.5
q-256 0 -494 16zM582 692l4 -454q0 -88 46 -121t148 -33q133 0 217 79t84 222q0 307 -356 307h-143zM582 817q63 -27 168 -26q143 0 206.5 72.5t63.5 217.5q0 266 -301 267q-68 0 -137 -9v-522z" />
    <glyph glyph-name="C" unicode="C" horiz-adv-x="1529" 
d="M94 709q0 326 215 540.5t561 214.5q195 0 398 -57l155 27q-33 -293 -43 -433h-92l-43 125q-78 225 -360 226q-221 0 -351.5 -160t-130.5 -424q0 -303 155 -478t425 -175q106 0 215 28l131 322h98q-10 -164 -14 -387q-266 -109 -551 -109q-326 0 -547 194t-221 546z" />
    <glyph glyph-name="D" unicode="D" horiz-adv-x="1751" 
d="M80 -10v90l106 20q55 10 75 31t22 66q6 180 6 518l-6 518q-4 51 -22.5 70.5t-74.5 29.5l-106 21v90l303 -10q240 20 526 20q358 0 552 -208t194 -513q0 -336 -208 -542.5t-611 -206.5q-279 0 -453 16zM582 238q0 -102 49 -129t205 -27q76 0 140 12t133 52t116 103.5
t77.5 176.5t30.5 264q0 326 -128 491t-423 165q-18 0 -86.5 1t-79.5 1q-23 0 -28.5 -7.5t-5.5 -25.5v-1077z" />
    <glyph glyph-name="E" unicode="E" horiz-adv-x="1454" 
d="M80 -10v88l106 20q55 10 76 32t21 67q6 180 6 518l-6 518q0 51 -20.5 70.5t-76.5 29.5l-106 21v90l332 -10h569q51 0 129 6t131 10l53 6q-16 -125 -37 -416h-92l-24 84q-31 106 -61.5 153.5t-90.5 47.5h-373q-23 0 -28.5 -7t-5.5 -26v-506q119 2 235 9q47 4 69.5 25.5
t37.5 78.5l26 113h92l-10 -277l10 -270h-92l-26 113q-14 57 -37 78.5t-70 25.5l-235 8v-452q0 -68 34.5 -98.5t110.5 -30.5h221q113 0 170.5 55t165.5 270h90q-25 -145 -53 -444q-281 10 -399 10h-510z" />
    <glyph glyph-name="F" unicode="F" horiz-adv-x="1388" 
d="M80 -10v90l106 20q55 10 75 31t22 66q6 180 6 518l-6 518q-4 51 -22.5 70.5t-74.5 29.5l-106 21v90l362 -10h562q53 0 135 6t139 10l55 6q-14 -125 -35 -416h-94l-24 101q-25 100 -57.5 142t-92.5 42h-414q-23 0 -28.5 -7t-5.5 -26v-547q150 2 264 9q47 2 69.5 24.5
t36.5 79.5l27 113h92l-10 -277l10 -270h-92l-27 113q-14 57 -36.5 79.5t-69.5 24.5l-264 8v-452q0 -45 21.5 -65.5t76.5 -31.5l127 -20v-90l-365 10z" />
    <glyph glyph-name="G" unicode="G" horiz-adv-x="1716" 
d="M92 715q0 178 70.5 323.5t189.5 236.5t266.5 140t307.5 49q236 0 417 -57q115 23 158 29q-27 -227 -43 -435h-92q-12 37 -30.5 107t-26.5 94q-18 63 -116.5 106.5t-234.5 43.5q-260 0 -407.5 -161t-147.5 -441q0 -92 18.5 -180.5t62.5 -176.5t112 -153.5t175.5 -106.5
t242.5 -41q98 0 144 13.5t46 52.5v291q0 47 -19.5 65t-76.5 29l-125 20v94l367 -10l321 10v-94l-65 -20q-59 -18 -79 -36t-20 -65v-354q-326 -119 -581 -119q-193 0 -343.5 49.5t-240.5 125t-148.5 178t-80 198t-21.5 195.5z" />
    <glyph glyph-name="H" unicode="H" horiz-adv-x="1826" 
d="M80 -10v90l106 20q55 10 75 31t22 66q6 184 6 522l-6 514q-2 49 -21.5 69.5t-75.5 30.5l-106 21v90l354 -10l352 10v-90l-104 -21q-55 -10 -72.5 -29.5t-21.5 -70.5q-6 -139 -6 -442h663l-6 442q-4 51 -21.5 70.5t-72.5 29.5l-105 21v90l353 -10l354 10v-90l-107 -21
q-55 -10 -74.5 -30.5t-21.5 -69.5q-6 -176 -6 -514l6 -522q2 -45 21.5 -65.5t74.5 -31.5l107 -20v-90l-354 10l-353 -10v90l105 20q55 10 73.5 30t20.5 67q6 170 6 489h-663l6 -489q2 -47 20.5 -66.5t73.5 -30.5l104 -20v-90l-352 10z" />
    <glyph glyph-name="I" unicode="I" horiz-adv-x="870" 
d="M80 -10v90l106 20q55 10 75 30t22 71q6 176 6 514l-6 518q-2 51 -21.5 70.5t-75.5 29.5l-106 21v90l354 -10l357 10v-90l-107 -21q-55 -10 -74.5 -29.5t-21.5 -70.5q-6 -180 -6 -518l6 -514q2 -51 21.5 -70.5t74.5 -30.5l107 -20v-90l-357 10z" />
    <glyph glyph-name="J" unicode="J" horiz-adv-x="847" 
d="M6 -297q133 29 192.5 108.5t61.5 260.5q6 436 6 643l-6 518q-2 49 -20.5 68.5t-73.5 31.5l-98 21v90l346 -10l352 10v-90l-104 -21q-57 -10 -76 -29.5t-21 -70.5q-6 -180 -6 -518l2 -514q2 -47 23.5 -68.5t77.5 -30.5l104 -14v-88h-207q-37 -358 -520 -385z" />
    <glyph glyph-name="K" unicode="K" horiz-adv-x="1615" 
d="M80 -10v88l106 20q53 10 74 32t23 67q6 180 6 518l-6 518q-2 51 -21.5 70.5t-75.5 29.5l-106 21v90l356 -10l355 10v-90l-107 -21q-55 -10 -74.5 -29.5t-21.5 -70.5q-6 -145 -6 -442h209q145 180 321 421q23 33 23 56q0 47 -80 65l-90 21v90l303 -10l280 10v-90l-106 -23
q-49 -10 -88 -43t-125 -131q-193 -215 -254 -297l467 -674q12 -18 21.5 -30.5t22.5 -22.5t20 -15t26.5 -11.5t27 -8.5t37 -9t41.5 -11v-88l-280 10l-160 -6l-440 692h-176l6 -489q2 -45 22.5 -66.5t73.5 -32.5l107 -20v-88l-355 10z" />
    <glyph glyph-name="L" unicode="L" horiz-adv-x="1384" 
d="M80 -10v90l106 20q55 10 75 31t22 66q6 195 6 532l-6 504q-2 51 -21.5 70.5t-75.5 29.5l-106 21v90l356 -10l355 10v-90l-107 -21q-55 -10 -74.5 -29.5t-21.5 -70.5q-6 -166 -6 -504q0 -387 4 -506q2 -66 33.5 -90t109.5 -24h207q47 0 71.5 3t57.5 16t60.5 45t54.5 85
l94 176h82l-47 -444q-289 10 -406 10h-489z" />
    <glyph glyph-name="M" unicode="M" horiz-adv-x="2183" 
d="M72 -10v90l106 20q57 10 76.5 30t19.5 67q0 88 9.5 464.5t9.5 454.5q0 150 -14 176q-14 29 -80 41l-107 21v90l338 -10l258 10q139 -377 141 -383l291 -729q49 127 143.5 382t163.5 447l70 193v90q49 -4 138 -6t139 -4l325 10v-90l-106 -21q-55 -10 -76 -30.5t-21 -69.5
q0 -199 4.5 -461t8.5 -420l2 -155q0 -47 19.5 -66.5t74.5 -30.5l106 -20v-90l-382 10l-326 -10v90l106 20q55 10 76 30t21 67q0 389 -2 660t-7 347l-2 78l-483 -1294h-178q-342 856 -522 1292q2 -809 2 -1083q0 -47 18.5 -66.5t73.5 -30.5l104 -20v-90l-270 10z" />
    <glyph glyph-name="N" unicode="N" horiz-adv-x="1806" 
d="M70 -10v90l106 20q55 10 74.5 30t21.5 67q20 942 21 1036q0 47 -20.5 68.5t-73.5 31.5l-103 21v90l287 -10l283 10q37 -102 94 -178l680 -914q-14 748 -19 881q-2 49 -21.5 69.5t-74.5 30.5l-106 21v90l270 -10l264 10v-90l-106 -21q-55 -10 -76 -30.5t-21 -69.5
q0 -23 -5 -420t-5 -823h-190q-545 750 -951 1270q2 -788 2 -1063q0 -47 20.5 -66.5t76.5 -30.5l108 -20v-90l-274 10z" />
    <glyph glyph-name="O" unicode="O" horiz-adv-x="1710" 
d="M92 702q0 330 215 545t553 217q143 0 276.5 -47t242 -136t173 -233.5t64.5 -322.5q0 -328 -220 -542t-558 -214q-129 0 -257 46t-240 133.5t-180.5 231.5t-68.5 322zM406 743q0 -334 129 -498.5t333 -164.5q129 0 219.5 55t134.5 150.5t62.5 192.5t18.5 210
q0 334 -121 499t-326 165q-129 0 -222 -55.5t-140.5 -150.5t-67.5 -193.5t-20 -209.5z" />
    <glyph glyph-name="P" unicode="P" horiz-adv-x="1372" 
d="M80 -10v90l106 20q55 10 76 31t21 66q6 180 6 518l-6 518q0 51 -20.5 70.5t-76.5 29.5l-106 21v90l409 -6q268 18 396 18q78 0 150.5 -21.5t138 -67.5t105.5 -129t40 -191q0 -82 -28.5 -159t-87 -144.5t-161 -108.5t-235.5 -41l-109 12v92q49 -2 70 -2q119 0 179.5 85
t60.5 243t-69 241t-202 83h-114q-23 0 -30 -8.5t-7 -24.5q-4 -262 -4 -600l6 -518q0 -45 20.5 -65.5t75.5 -31.5l107 -20v-90l-347 10z" />
    <glyph glyph-name="Q" unicode="Q" horiz-adv-x="1710" 
d="M92 702q0 328 215 544t553 218q143 0 276.5 -47t242 -136t173 -233.5t64.5 -322.5q0 -248 -129 -435.5t-350 -266.5q573 -262 581 -265q213 -84 350 -84q66 0 127 17l-4 -97q-203 -94 -403 -94q-297 0 -649 221q-43 29 -182.5 128.5t-190.5 123.5q-279 10 -476.5 204.5
t-197.5 524.5zM406 743q0 -334 129 -498.5t333 -164.5q129 0 219.5 55t134.5 150.5t62.5 192.5t18.5 210q0 334 -121 499t-326 165q-129 0 -222 -55.5t-140.5 -150.5t-67.5 -193.5t-20 -209.5z" />
    <glyph glyph-name="R" unicode="R" horiz-adv-x="1570" 
d="M80 -10v90l106 20q55 10 76 31t21 66q6 180 6 518l-6 518q-2 51 -21.5 70.5t-75.5 29.5l-106 21v90l412 -6q4 0 62 4t145 8t147 4q487 0 487 -377q0 -115 -78.5 -211t-212.5 -141q160 -233 242 -350q57 -82 95 -130t110 -105.5t141 -65.5l-22 -92q-14 0 -40 -1t-38 -1
q-223 0 -318 43q-70 31 -142.5 131t-165.5 268t-128 221h-194q0 -207 6 -446q2 -47 22.5 -66.5t77.5 -30.5l107 -20v-90l-353 10zM582 766q78 -23 174 -23q25 0 53.5 5.5t68.5 26t70.5 52t53 91t22.5 137.5q0 150 -78 221.5t-219 71.5h-109q-25 0 -30.5 -7.5t-5.5 -25.5
v-549z" />
    <glyph glyph-name="S" unicode="S" horiz-adv-x="1247" 
d="M109 463l102 10q20 -92 88 -246q31 -72 114 -109.5t191 -37.5q113 0 191.5 62.5t78.5 176.5q0 72 -39.5 126.5t-104 90t-142.5 67.5t-156 70t-142.5 87t-104.5 128t-40 183q0 156 136.5 274.5t382.5 118.5q119 0 259 -25.5t173 -39.5q-23 -188 -37 -357h-88
q-31 113 -74 228q-31 82 -227 82q-102 0 -180 -51.5t-78 -151.5q0 -88 75.5 -152.5t183 -109.5t215 -96.5t183.5 -144.5t76 -224q0 -203 -157 -328t-404 -125q-195 0 -463 76q0 209 -12 418z" />
    <glyph glyph-name="T" unicode="T" horiz-adv-x="1488" 
d="M41 1024q8 82 12 190.5t4 174.5l2 67q0 -2 39 -6t115 -10t152 -6l378 -4l381 4q76 0 152 6t115 10t39 6q2 -246 18 -432h-92q-55 182 -91 237.5t-120 57.5l-250 4q-4 -270 -4 -608l4 -518q0 -45 19.5 -65.5t74.5 -31.5l109 -20v-90l-353 10l-356 -10v90l107 20
q55 10 76.5 31t21.5 66q4 180 4 518l-4 608l-250 -4q-84 -2 -120 -57.5t-91 -237.5h-92z" />
    <glyph glyph-name="U" unicode="U" horiz-adv-x="1724" 
d="M39 1354v90l336 -10l362 10v-90l-102 -21q-57 -10 -77.5 -30.5t-20.5 -69.5v-729q0 -399 391 -400q117 0 204 39t134 104.5t69.5 138.5t22.5 153q0 125 -2 398t-2 296q0 49 -20.5 69.5t-76.5 30.5l-106 21v90l268 -10l267 10v-90l-107 -21q-55 -10 -75.5 -30.5
t-20.5 -69.5l-4 -698q0 -272 -165 -419t-452 -147q-281 0 -450.5 136.5t-169.5 386.5v741q0 49 -20.5 69.5t-76.5 30.5z" />
    <glyph glyph-name="V" unicode="V" horiz-adv-x="1572" 
d="M-33 1354v90l359 -10l381 10v-90l-109 -21q-57 -12 -79 -34q-13 -13 -13 -33q0 -14 6 -31q86 -252 375 -1004l373 1004q7 19 7 33q0 19 -13 31q-22 22 -80 34l-103 21v90l281 -10l254 10v-90l-99 -21q-47 -8 -70.5 -29.5t-39.5 -66.5l-486 -1249l-241 -21
q-248 618 -500 1268q-18 47 -38.5 68.5t-65.5 29.5z" />
    <glyph glyph-name="W" unicode="W" horiz-adv-x="2351" 
d="M-31 1354v90l346 -10l379 10v-90l-106 -21q-94 -20 -94 -65q0 -16 6 -35q223 -680 319 -991l299 757l-76 236q-16 47 -37.5 68.5t-66.5 29.5l-98 21v90l360 -10l385 10v-90l-117 -25q-92 -18 -92 -102q0 -47 31 -133l301 -850l334 991q6 18 6 31q0 49 -92 67l-107 21v90
l326 -10l207 10v-90l-98 -21q-45 -8 -70 -29.5t-41 -66.5q-160 -436 -440 -1249l-234 -21l-328 891q-113 -274 -340 -870l-227 -21l-69 205q-70 207 -178.5 527.5t-184.5 535.5q-16 45 -38.5 67.5t-65.5 30.5z" />
    <glyph glyph-name="X" unicode="X" horiz-adv-x="1527" 
d="M6 -10v90l98 20q12 2 23.5 6.5t23 10.5t17.5 10t16.5 15.5t13.5 13.5t15 16t14 16q209 262 394 539l-349 498q-63 90 -153 108l-99 21v90l340 -10l420 10v-90l-118 -21q-55 -8 -56 -55q0 -25 25 -64q90 -160 219 -352l225 352q27 41 27 70q0 39 -55 49l-107 21v82
q94 -2 285 -2l252 10v-90l-97 -21q-70 -16 -135 -98q-256 -336 -336 -451q274 -412 410 -596q53 -74 125 -88l96 -20v-90l-350 10l-369 -10v90l105 20q57 12 57 47q0 20 -16 48q-59 94 -287 444q-170 -264 -287 -444q-20 -33 -20 -48q0 -35 63 -47l119 -20v-90l-295 10z" />
    <glyph glyph-name="Y" unicode="Y" horiz-adv-x="1456" 
d="M-31 1354v90l361 -10l393 10v-90l-111 -21q-83 -17 -82 -63q0 -17 11 -37l307 -541q86 152 285 537q11 22 11 39q0 49 -87 65l-107 21v90l330 -10l207 10v-90l-92 -21q-43 -8 -66.5 -29.5t-50.5 -66.5l-383 -680q-2 -88 -2 -100q0 -63 6 -260q2 -47 19.5 -66.5
t72.5 -30.5l107 -20v-90l-332 10l-375 -10v90l105 20q55 10 72.5 30t19.5 67q4 66 4 260v90q-227 387 -416 688q-29 45 -52.5 66.5t-68.5 31.5z" />
    <glyph glyph-name="Z" unicode="Z" horiz-adv-x="1447" 
d="M84 -8v86q328 455 868 1245h-577q-59 0 -92 -42t-58 -140l-24 -101h-86l-17 416q20 -2 53 -6t112 -10t130 -6h623l297 8v-88q-453 -649 -838 -1213q-8 -10 -4 -21t23 -11h467q45 0 70.5 3t59 16t61.5 45t54 85l92 176h82l-67 -444q-266 10 -385 10h-596z" />
    <glyph glyph-name="bracketleft" unicode="[" horiz-adv-x="716" 
d="M176 -348v1898h508v-88h-344q150 -449 149 -864q0 -403 -149 -862h344v-84h-508z" />
    <glyph glyph-name="backslash" unicode="\" horiz-adv-x="1105" 
d="M43 1669l88 45l930 -1943l-92 -45z" />
    <glyph glyph-name="bracketright" unicode="]" horiz-adv-x="716" 
d="M31 -264h344q-150 459 -150 862q0 416 150 864h-344v88h508v-1898h-508v84z" />
    <glyph glyph-name="asciicircum" unicode="^" horiz-adv-x="1191" 
d="M154 465l366 969h152l366 -969h-116l-322 868h-8l-322 -868h-116z" />
    <glyph glyph-name="underscore" unicode="_" horiz-adv-x="1204" 
d="M252 -227h698v-150h-698v150z" />
    <glyph glyph-name="grave" unicode="`" horiz-adv-x="849" 
d="M182 1538h355l129 -375l-95 -12z" />
    <glyph glyph-name="a" unicode="a" horiz-adv-x="1069" 
d="M68 229q0 92 50 160t137 103.5t175 54t191 24.5v131q0 129 -27 186.5t-125 57.5q-111 0 -111 -65v-201l-94 -41q-68 10 -115 56t-47 110q0 111 127 169t308 58q168 0 267 -79t99 -244q0 -41 -7 -243t-7 -251q0 -96 78 -96q51 0 75 28l21 -59q-25 -53 -91.5 -86
t-140.5 -33q-86 0 -141 42t-65 114q-23 -57 -93.5 -106.5t-175.5 -49.5q-123 0 -205.5 73.5t-82.5 186.5zM332 291q0 -68 39 -112t112 -44q55 0 95 34t40 77l3 250q-289 -37 -289 -205z" />
    <glyph glyph-name="b" unicode="b" horiz-adv-x="1210" 
d="M0 1430v45q59 12 176 36.5t168 34.5h68v-420l-31 -254l18 -4q90 164 312 164q174 0 300 -132t126 -376q0 -240 -149.5 -397.5t-371.5 -157.5q-150 0 -299 78q-41 -16 -120 -63l-64 16q6 80 6 330v866q0 98 -11 143t-48 60zM414 266q0 -106 41 -152t127 -46
q129 0 202.5 103t73.5 314q0 190 -75.5 289.5t-202.5 99.5q-166 0 -166 -167v-441z" />
    <glyph glyph-name="c" unicode="c" horiz-adv-x="1007" 
d="M72 500q0 225 148.5 378.5t359.5 153.5q188 0 272 -68.5t84 -144.5q0 -143 -184 -170l-84 29v29q0 27 1 62.5t1 64.5q0 68 -15.5 87t-79.5 19q-98 0 -157.5 -97.5t-59.5 -307.5q0 -195 90.5 -294.5t225.5 -99.5q80 0 146.5 34t94.5 83l54 -61q-125 -227 -426 -228
q-84 0 -165 32t-150.5 93.5t-112.5 167t-43 238.5z" />
    <glyph glyph-name="d" unicode="d" horiz-adv-x="1251" 
d="M72 494q0 227 139 382.5t348 155.5q131 0 236 -55v213q0 113 -11.5 153.5t-50.5 55.5l-80 31v45l346 71h70q-2 -121 -2 -700v-455q0 -180 23.5 -228t134.5 -59v-71q-145 -16 -351 -49h-73l6 147l-14 2q-94 -164 -316 -164q-172 0 -288.5 141.5t-116.5 383.5zM358 526
q0 -170 72 -268t195 -98q100 0 135 41t35 116v390q0 121 -40 177t-134 56q-78 0 -132.5 -37t-81 -101.5t-38 -131t-11.5 -144.5z" />
    <glyph glyph-name="e" unicode="e" horiz-adv-x="1060" 
d="M72 500q0 221 144 376.5t347 155.5q201 0 314.5 -113.5t113.5 -291.5v-56l-633 2v-38q0 -186 90.5 -290t217.5 -104q82 0 152.5 33t101.5 84l53 -61q-125 -227 -434 -228q-197 0 -332 134.5t-135 396.5zM365 657l335 7q0 15 1 29q0 115 -29 179q-33 72 -119 72
q-172 0 -188 -287z" />
    <glyph glyph-name="f" unicode="f" horiz-adv-x="761" 
d="M55 879v104h164q2 154 50 270.5t128 184t174.5 100.5t198.5 33q86 0 169 -24.5t83 -84.5q0 -70 -61.5 -129t-133.5 -59q-6 0 -33.5 39t-69.5 79t-87 40q-84 0 -117 -99q-29 -86 -28 -350l233 14l-16 -145l-217 29v-693q0 -49 17 -71.5t71 -32.5l106 -21v-73l-326 10
l-299 -10v73l60 15q57 14 77.5 33.5t20.5 64.5v703h-164z" />
    <glyph glyph-name="g" unicode="g" horiz-adv-x="1198" 
d="M55 -272q0 160 207 225v18q-156 33 -156 181q0 98 164 227q-78 43 -125 117.5t-47 175.5q0 156 122 258t331 102q184 0 291 -71l348 61v-227l-35 -13l-203 78q61 -88 62 -194q0 -160 -126 -258.5t-329 -98.5q-117 0 -217 35q-33 -61 -33 -84q0 -33 29 -46t123 -24
l356 -38q291 -35 291 -283q0 -164 -150.5 -281.5t-447.5 -117.5q-80 0 -153.5 12t-145.5 38.5t-114 80t-42 127.5zM287 -225q0 -111 79.5 -165t219.5 -54q270 0 270 211q0 59 -30.5 91.5t-104.5 45.5q-152 27 -363 33q-71 -45 -71 -162zM391 694q0 -293 172 -293
q51 0 85 22.5t48.5 67t18.5 82t4 91.5q0 287 -160 286q-55 0 -91 -22.5t-51.5 -64.5t-20.5 -79t-5 -90z" />
    <glyph glyph-name="h" unicode="h" horiz-adv-x="1273" 
d="M57 1430v45l344 71h70v-422l-27 -262l17 -4q35 61 118 117.5t195 56.5q158 0 246 -91t88 -257q0 -98 -2 -287.5t-2 -220.5q0 -47 20.5 -66.5t73.5 -31.5l59 -15v-73l-284 10l-285 -10v73l45 15q66 20 82 75.5t16 235.5v170q0 66 -5 113t-21.5 99t-55 80t-98.5 28
q-111 0 -146.5 -65.5t-35.5 -199.5v-438q0 -47 14.5 -66.5t63.5 -31.5l57 -15v-73l-264 10l-281 -10v73l41 15q41 14 57.5 22.5t28 26.5t11.5 49v1014q0 113 -10.5 154.5t-45.5 54.5z" />
    <glyph glyph-name="i" unicode="i" horiz-adv-x="667" 
d="M49 -10v73l60 15q57 14 77.5 33.5t20.5 64.5v447q0 109 -12.5 151.5t-53.5 56.5l-80 31v45l336 137h86q-4 -150 -4 -348v-520q0 -47 19.5 -66.5t74.5 -31.5l62 -15v-73l-291 10zM154 1386.5q0 75.5 54 130t130 54.5t130 -54.5t54 -130t-54 -130t-130 -54.5t-130 54.5
t-54 130z" />
    <glyph glyph-name="j" unicode="j" horiz-adv-x="641" 
d="M-8 -442q104 37 146 107.5t42 201.5v756q0 109 -12 151.5t-51 56.5l-80 31v45l336 137h84q-4 -150 -4 -348v-508q0 -47 20.5 -66.5t77.5 -33.5l57 -14v-74h-157v-156q0 -162 -91.5 -254t-267.5 -100q-39 0 -59 2zM127 1386.5q0 75.5 53 130t131 54.5t131.5 -54.5
t53.5 -130t-53.5 -130t-131.5 -54.5t-131 54.5t-53 130z" />
    <glyph glyph-name="k" unicode="k" horiz-adv-x="1228" 
d="M33 -10v73l59 15q57 14 76.5 32.5t19.5 65.5v1014q0 113 -10 153.5t-49 55.5l-80 31v45l348 71h70q-6 -309 -6 -553v-385h131q164 166 205 209q26 26 25 49q0 6 -2 13q-9 29 -52 34l-92 11v86l256 -11l260 11v-76l-55 -14q-102 -29 -181 -101l-180 -168l271 -477
q20 -39 42.5 -55.5t67.5 -28.5l64 -18v-74l-324 2l-72 -4q-61 125 -274 516h-90v-336q0 -47 19.5 -65.5t78.5 -32.5l57 -15v-73l-301 10z" />
    <glyph glyph-name="l" unicode="l" horiz-adv-x="655" 
d="M33 -10v73l61 15q55 12 75.5 31.5t20.5 66.5v1014q0 113 -10 153.5t-49 55.5l-80 31v45l350 71h70q-6 -338 -6 -622v-748q0 -47 19.5 -66.5t76.5 -31.5l68 -15v-73l-301 10z" />
    <glyph glyph-name="m" unicode="m" horiz-adv-x="1912" 
d="M57 862v45l334 137h58l-5 -182l17 -4q35 63 120 118.5t207 55.5q223 0 291 -172l19 -2q33 63 116.5 118.5t198.5 55.5q158 0 245 -91t87 -257l-2 -508q0 -47 19.5 -66.5t74.5 -31.5l59 -15v-73l-284 10l-279 -10v73q92 27 114.5 80.5t22.5 245.5v170q0 51 -2 88t-13 84
t-29.5 77t-55.5 50.5t-88 20.5q-92 0 -133 -49.5t-41 -174.5v-80q0 -100 -2 -249v-150q0 -51 29.5 -71.5t115.5 -41.5v-73l-276 10l-281 -10v73l41 15q66 23 82.5 76t16.5 235v170q0 51 -2.5 88t-13.5 84t-29.5 77t-55.5 50.5t-88 20.5q-96 0 -135 -52.5t-39 -191.5v-459
q0 -49 13.5 -67.5t62.5 -30.5l59 -15v-73l-272 10l-275 -10v73l41 15q59 20 79 36.5t20 61.5v463q0 109 -10.5 143.5t-51.5 48.5z" />
    <glyph glyph-name="n" unicode="n" horiz-adv-x="1275" 
d="M57 862v45l334 137h58l-5 -182l17 -4q35 61 119 117.5t196 56.5q158 0 246 -91t88 -257q0 -98 -2 -287.5t-2 -220.5q0 -47 20.5 -66.5t73.5 -31.5l60 -15v-73l-285 10l-285 -10v73l45 15q66 20 82.5 75.5t16.5 235.5v170q0 66 -5.5 113t-21.5 99t-55 80t-99 28
q-113 0 -147.5 -64.5t-34.5 -200.5v-438q0 -49 13.5 -67.5t62.5 -30.5l59 -15v-73l-264 10l-283 -10v73l41 15q59 20 79 36.5t20 61.5v463q0 109 -10.5 143.5t-51.5 48.5z" />
    <glyph glyph-name="o" unicode="o" horiz-adv-x="1191" 
d="M72 494q0 231 147.5 384.5t390.5 153.5q92 0 178 -29.5t163 -89t123 -164t46 -237.5q0 -240 -148.5 -391.5t-385.5 -151.5q-209 0 -361.5 138.5t-152.5 386.5zM360 520q0 -229 64.5 -345t175.5 -116q231 0 231 424q0 225 -67.5 341t-173.5 116q-230 0 -230 -420z" />
    <glyph glyph-name="p" unicode="p" horiz-adv-x="1249" 
d="M27 -432l59 14q55 12 73.5 31.5t18.5 67.5v942q0 113 -10 153.5t-49 54.5l-80 31v45l336 137h53l-8 -172l18 -4q90 164 312 164q174 0 300 -132t126 -376q0 -238 -148.5 -395.5t-372.5 -157.5q-127 0 -229 49q29 -80 29 -249v-90q0 -49 20.5 -69t77.5 -30l88 -14v-84
l-315 10l-299 -10v84zM453 266q0 -106 41 -152t127 -46q129 0 202.5 103t73.5 314q0 190 -76 289.5t-203 99.5q-166 0 -165 -167v-441z" />
    <glyph glyph-name="q" unicode="q" horiz-adv-x="1218" 
d="M72 494q0 227 138 382.5t349 155.5q170 0 289 -92q59 86 199 92l45 -10q-18 -164 -19 -457v-884q0 -47 18.5 -67t71.5 -32l62 -14v-84l-297 10l-318 -10v84l90 14q55 8 76 28.5t21 70.5v161q0 174 16 287l-18 4q-102 -164 -316 -164q-172 0 -289.5 141.5t-117.5 383.5z
M358 526q0 -170 73 -268t196 -98q100 0 134 41t34 116v390q0 123 -38 178t-132 55q-78 0 -133.5 -38t-83 -101.5t-39 -130t-11.5 -144.5z" />
    <glyph glyph-name="r" unicode="r" horiz-adv-x="923" 
d="M57 862v45l334 137h58l-9 -229l17 -4q55 82 131 146.5t153 64.5q84 0 127 -44t43 -112q0 -109 -120 -170h-27q-113 86 -170 97q-78 -31 -123 -60v-557q0 -47 20.5 -67.5t75.5 -30.5l88 -15v-73l-315 10l-281 -10v73l41 15q59 20 79 36.5t20 61.5v447q0 113 -11.5 153.5
t-50.5 54.5z" />
    <glyph glyph-name="s" unicode="s" horiz-adv-x="925" 
d="M94 27q4 61 4 153q0 121 -4 154l99 2l63 -158q47 -119 178 -119q82 0 127 42t45 102q0 66 -53 111.5t-128 77.5t-149.5 68t-128 102.5t-53.5 160.5q0 154 112.5 231.5t274.5 77.5q211 0 334 -41q-23 -96 -22 -276l-91 -2l-55 149q-14 37 -53 57.5t-86 20.5
q-160 0 -160 -133q0 -61 51.5 -106.5t125 -76t148.5 -66.5t126 -102.5t51 -160.5q0 -156 -114.5 -241t-301.5 -85q-82 0 -167 14.5t-128 28.5z" />
    <glyph glyph-name="t" unicode="t" horiz-adv-x="819" 
d="M10 879v104q164 12 239 82t109 211h105v-293l309 10l-14 -139l-295 25v-570q0 -188 149 -188q39 0 88.5 22.5t69.5 49.5l33 -66q-39 -74 -128 -116t-183 -42q-139 0 -221.5 72t-82.5 201v637h-178z" />
    <glyph glyph-name="u" unicode="u" horiz-adv-x="1255" 
d="M35 913v76l237 8l179 15q-10 -98 -11 -574q0 -166 42 -233.5t147 -67.5q162 0 162 225v426q0 53 -16.5 78t-69.5 35l-60 12v76l252 8l176 15q-10 -252 -10 -621q0 -180 23.5 -228t134.5 -59v-71q-145 -16 -351 -49h-73l6 147l-19 4q-35 -57 -112.5 -111.5t-186.5 -54.5
q-156 0 -238.5 91.5t-82.5 256.5l2 471q0 51 -16.5 76t-67.5 37z" />
    <glyph glyph-name="v" unicode="v" horiz-adv-x="1126" 
d="M-16 932v76l266 -11l323 11v-76l-69 -14q-55 -12 -74 -35q-10 -12 -10 -29q0 -15 8 -35l229 -590q176 449 226 590q6 16 5 30q0 20 -12 32q-22 20 -81 37l-47 14v76l215 -11l180 11v-76l-43 -14q-49 -18 -66.5 -37t-38.5 -66l-338 -827h-184q-182 451 -352 831
q-23 47 -39 65.5t-57 33.5z" />
    <glyph glyph-name="w" unicode="w" horiz-adv-x="1615" 
d="M-10 932v76l264 -11l309 11v-76l-69 -14q-82 -16 -82 -66q0 -16 6 -37l137 -479q166 436 240 651h166l266 -663q90 307 125 452q12 49 12 70q0 31 -19.5 47t-68.5 27l-53 12v76l207 -11l198 11v-76l-39 -14q-53 -20 -72.5 -38t-33.5 -63q-57 -156 -123 -363.5
t-103 -336.5l-38 -129h-136q-219 549 -292 733l-269 -733h-139q-139 500 -258 831q-16 45 -32.5 63.5t-61.5 35.5z" />
    <glyph glyph-name="x" unicode="x" horiz-adv-x="1150" 
d="M0 -10v73l53 13q104 23 158 90q102 131 240 313q-129 201 -226 340q-27 37 -53.5 56.5t-77.5 37.5l-51 19v76l285 -11l297 11v-76l-70 -14q-45 -10 -45 -39q0 -23 25 -60l122 -198l142 204q20 29 20 49q0 27 -24.5 39.5t-83.5 18.5v76l217 -11l194 11v-76l-41 -14
q-104 -37 -157 -99q-98 -123 -217 -270l235 -373q47 -74 145 -98l52 -12v-76l-279 10l-299 -10v73l76 17q33 6 33 35q0 20 -29 65q-88 141 -141 221q-45 -59 -129 -194q-43 -70 -43 -88q0 -27 67 -43l49 -13v-73l-251 10z" />
    <glyph glyph-name="y" unicode="y" horiz-adv-x="1126" 
d="M-14 932v76l288 -11l304 11v-76l-64 -14q-82 -18 -82 -62q0 -18 8 -41l211 -590q115 276 221 590q6 18 7 35q0 41 -93 68l-49 14v76l205 -11l201 11v-76l-41 -14q-49 -16 -66.5 -37t-38.5 -70l-567 -1370l-223 20l332 527h-97q-6 16 -63 169.5t-130 343t-126 318.5
q-20 51 -35.5 66.5t-60.5 32.5z" />
    <glyph glyph-name="z" unicode="z" horiz-adv-x="1085" 
d="M51 -6v80l611 839h-226q-123 0 -160.5 -35.5t-68.5 -140.5l-21 -69l-84 4v342q137 -6 369 -6h522l11 -66q-250 -344 -611 -850h301q86 0 139.5 52.5t98.5 213.5h86l-35 -368q-127 10 -635 10q-199 0 -297 -6z" />
    <glyph glyph-name="braceleft" unicode="{" horiz-adv-x="770" 
d="M12 620.5q0 38.5 23.5 62.5t58.5 24q45 0 144 -54q49 47 49 150q0 70 -18.5 231.5t-18.5 204.5q0 172 95 253t353 81l17 -90h-15q-92 0 -120.5 -62.5t-28.5 -183.5q0 -18 1 -56t1 -59v-176q0 -98 -57.5 -188t-184.5 -140q127 -43 184.5 -134t57.5 -189v-176q0 -20 -1 -58
t-1 -57q0 -121 28.5 -183.5t120.5 -62.5h15l-17 -90q-258 0 -353 81t-95 253q0 43 17.5 213t17.5 248q0 80 -45 123q-98 -53 -146 -54q-35 0 -58.5 25t-23.5 63.5z" />
    <glyph glyph-name="bar" unicode="|" horiz-adv-x="456" 
d="M172 -403v2068h113v-2068h-113z" />
    <glyph glyph-name="braceright" unicode="}" horiz-adv-x="768" 
d="M53 -242h15q92 0 120.5 62.5t28.5 183.5q0 18 -1 56t-1 59v176q0 98 57.5 189t184.5 134q-127 49 -184.5 139.5t-57.5 188.5v176q0 20 1 58.5t1 56.5q0 121 -28.5 183.5t-120.5 62.5h-15l17 90q258 0 353 -81t95 -253q0 -43 -18.5 -205t-18.5 -231q0 -102 49 -150
q98 53 144 54q35 0 58.5 -24t23.5 -62.5t-23.5 -63.5t-58.5 -25q-47 0 -146 54q-45 -43 -45 -123q0 -78 17.5 -248t17.5 -213q0 -172 -95 -253t-353 -81z" />
    <glyph glyph-name="asciitilde" unicode="~" 
d="M137 578q0 125 72 199.5t170 74.5q88 0 236.5 -59.5t222.5 -59.5q115 0 141 123h92q0 -123 -70.5 -195.5t-169.5 -72.5q-86 0 -237.5 58.5t-220.5 58.5q-115 0 -142 -127h-94z" />
    <glyph glyph-name="uni00A0" unicode="&#xa0;" horiz-adv-x="512" 
 />
    <glyph glyph-name="exclamdown" unicode="&#xa1;" horiz-adv-x="698" 
d="M147 -281q0 109 72 337.5t82 430.5h96q10 -203 82 -431t72 -337q0 -94 -53.5 -152.5t-149.5 -58.5t-148.5 58.5t-52.5 152.5zM150 807q0 82 57 139.5t139 57.5t139.5 -57.5t57.5 -139.5q0 -80 -57.5 -138.5t-139.5 -58.5t-139 58.5t-57 138.5z" />
    <glyph glyph-name="cent" unicode="&#xa2;" 
d="M158 500q0 225 148.5 378.5t359.5 153.5q78 0 151 -18l129 272l78 -31l-127 -270q63 -33 94 -79t31 -87q0 -141 -184 -168l-45 19l-15 71l-235 -510q84 -90 217 -90q80 0 145.5 35t95.5 82l54 -61q-125 -227 -426 -228q-92 0 -191 41l-141 -305l-78 31l148 313
q-209 150 -209 451zM444 535q0 -135 48 -224l260 561q-6 37 -23.5 52.5t-66.5 15.5q-98 0 -158 -97t-60 -308z" />
    <glyph glyph-name="sterling" unicode="&#xa3;" 
d="M53 78q0 61 44 92t106 31q43 0 76 -13q23 61 28 283h-252v94h258v213h-258v94h262q0 322 162 479.5t410 157.5q80 0 168 -22.5t88 -71.5q0 -74 -62.5 -148.5t-126.5 -74.5q-16 0 -44.5 43t-67.5 87t-84 44q-82 0 -112 -100.5t-38 -339.5q0 -4 -1 -26.5t-1 -27.5h367v-94
h-367q-2 -92 -16 -213h383v-94h-395q-16 -84 -56.5 -145.5t-152.5 -137.5q76 31 198 31q41 0 177.5 -24.5t199.5 -24.5q119 0 187 74l45 -54q-16 -41 -40 -80.5t-65 -88t-106.5 -77t-143.5 -28.5q-102 0 -283.5 86t-217.5 96q-45 -127 -158 -127q-55 0 -83 34t-28 73z" />
    <glyph glyph-name="currency" unicode="&#xa4;" 
d="M96 301l156 158q-96 123 -96 276q0 156 96 275l-156 157l74 80l158 -160q119 96 278 97q156 0 275 -97l157 160l74 -80l-156 -157q96 -119 97 -275q0 -154 -97 -276l156 -158l-74 -78l-157 160q-119 -96 -275 -96q-160 0 -278 96l-158 -160zM266 735.5
q0 -147.5 98.5 -250t242 -102.5t239.5 102.5t96 250t-96 249.5t-239.5 102t-242 -102t-98.5 -249.5z" />
    <glyph glyph-name="yen" unicode="&#xa5;" 
d="M-74 1346v98l297 -10l369 10v-90l-100 -21q-111 -23 -72 -98l282 -559l263 553q39 82 -72 104l-94 21v90l272 -10l209 10v-98l-55 -13q-39 -10 -60.5 -30.5t-48.5 -65.5l-205 -369h230v-96h-277l-104 -211h381v-96h-383v-268q0 -47 19.5 -67.5t70.5 -31.5l98 -20v-88
l-336 10l-334 -10v88l97 20q53 10 71.5 31t18.5 68v268h-395v96h389l-115 211h-274v96h227l-205 367q-45 84 -113 98z" />
    <glyph glyph-name="brokenbar" unicode="&#xa6;" horiz-adv-x="456" 
d="M172 -403v921h113v-921h-113zM172 733v932h113v-932h-113z" />
    <glyph glyph-name="section" unicode="&#xa7;" 
d="M49 10l101 33q31 -111 118.5 -183.5t208.5 -72.5q154 0 257.5 118t103.5 333q0 270 -95.5 562t-191.5 427l78 37q68 -78 112.5 -133.5t130.5 -177.5t139.5 -224t96.5 -238.5t43 -257.5q0 -287 -174 -450.5t-418 -163.5q-113 0 -204 31t-146 76t-93 100t-52.5 101
t-14.5 83zM53 1147q0 291 175 452.5t421 161.5q137 0 242.5 -45t159 -111.5t79 -127t25.5 -107.5l-100 -33q-29 111 -118 183.5t-208 72.5q-156 0 -259 -119.5t-103 -336.5q0 -270 94 -558t192 -425l-78 -37q-68 80 -91 109.5t-103 133t-123 179t-98.5 184t-81 215.5
t-25.5 209z" />
    <glyph glyph-name="dieresis" unicode="&#xa8;" horiz-adv-x="849" 
d="M59 1331.5q0 67.5 47.5 114.5t115 47t114.5 -47t47 -114.5t-47 -115t-114.5 -47.5t-115 47.5t-47.5 115zM467 1331.5q0 67.5 47 114.5t114.5 47t115 -47t47.5 -114.5t-47.5 -115t-115 -47.5t-114.5 47.5t-47 115z" />
    <glyph glyph-name="copyright" unicode="&#xa9;" horiz-adv-x="1912" 
d="M90 721q0 362 250 611t614 249q367 0 618 -249t251 -611q0 -365 -251 -612.5t-617.5 -247.5t-615.5 247.5t-249 612.5zM225 721q0 -315 211 -528t518 -213q309 0 521.5 213t212.5 528q0 313 -212 527t-522 214q-307 0 -518 -214t-211 -527zM483 702q0 231 143.5 385
t370.5 154q172 0 255 -63.5t83 -129t-46 -107.5t-113 -50l-48 39v123q0 61 -28.5 79.5t-102.5 18.5q-131 0 -217 -110.5t-86 -303.5q0 -207 96.5 -303t245.5 -96q92 0 163 42t95 83l25 41l51 -74q-129 -236 -420 -235q-197 0 -332 128.5t-135 378.5z" />
    <glyph glyph-name="ordfeminine" unicode="&#xaa;" horiz-adv-x="907" 
d="M98 881q0 209 416 252v51q0 131 -36 166.5t-124 35.5q-61 0 -61 -47v-125l-45 -30q-135 16 -135 119q0 66 86 113.5t229 47.5q131 0 201.5 -65.5t70.5 -188.5q0 -43 -3 -171t-3 -154q0 -92 60 -92q43 0 77 24l21 -43q-23 -39 -69 -65.5t-99 -26.5q-131 0 -158 111
q-18 -41 -73.5 -76t-130.5 -35q-109 0 -166.5 58.5t-57.5 140.5zM281 909q0 -51 33.5 -81.5t80.5 -30.5q72 0 95.5 42t23.5 136v102q-233 -37 -233 -168z" />
    <glyph glyph-name="guillemotleft" unicode="&#xab;" horiz-adv-x="1175" 
d="M72 727l487 578h68l-215 -566v-24l215 -565h-68zM512 727l487 578h68l-215 -566v-24l215 -565h-68z" />
    <glyph glyph-name="logicalnot" unicode="&#xac;" 
d="M131 858v111h946v-473h-114v362h-832z" />
    <glyph glyph-name="uni00AD" unicode="&#xad;" horiz-adv-x="745" 
 />
    <glyph glyph-name="registered" unicode="&#xae;" horiz-adv-x="1912" 
d="M90 721q0 362 250 611t614 249q367 0 618 -249t251 -611.5t-251 -610t-617.5 -247.5t-615.5 246.5t-249 611.5zM225 721q0 -315 210 -527t519 -212q313 0 521 211q-139 0 -215 44t-138 134q-41 63 -79.5 127.5t-61.5 103.5t-35 53q-20 0 -61 1t-62 1q4 -145 11 -307
q2 -51 63 -61l80 -15v-63l-236 6l-254 -6v63l82 15q59 12 64 61q0 6 1 55.5t2 133.5t1 174l-4 362q-2 29 -17.5 42t-46.5 20l-82 16v61l330 -4q74 12 213 13q53 0 101.5 -11.5t96.5 -39t76.5 -83t28.5 -131.5q0 -168 -196 -258v-4l135 -200q70 -102 131 -158.5t137 -71.5
q147 195 148 455q0 313 -212 527t-522 214q-307 0 -518 -214t-211 -527zM829 741q66 -12 152 -12q49 0 99 56.5t50 158.5q0 96 -62 148.5t-159 52.5h-63q-16 0 -17 -12v-392z" />
    <glyph glyph-name="macron" unicode="&#xaf;" horiz-adv-x="1026" 
d="M195 1186v147h636v-147h-636z" />
    <glyph glyph-name="degree" unicode="&#xb0;" horiz-adv-x="872" 
d="M78 1104q0 156 104.5 257t254 101t254 -101t104.5 -257q0 -158 -104.5 -259.5t-254 -101.5t-254 101.5t-104.5 259.5zM211 1103.5q0 -102.5 64.5 -173t160.5 -70.5t161 70.5t65 173t-65 172.5t-161 70t-160.5 -70t-64.5 -172.5z" />
    <glyph glyph-name="plusminus" unicode="&#xb1;" 
d="M106 0v127h994v-127h-994zM106 676v129h426v440h144v-440h424v-129h-424v-443h-144v443h-426z" />
    <glyph glyph-name="uni00B2" unicode="&#xb2;" horiz-adv-x="768" 
d="M70 629v90q213 178 301 270q72 78 92 127t20 105q0 68 -43 116.5t-118 48.5q-51 0 -52 -30v-144l-49 -38q-61 2 -106 35.5t-45 82.5q0 72 83 125t228 53q127 0 215 -59t88 -162q0 -80 -39 -135t-141 -135q-43 -33 -99.5 -79t-97.5 -79l-39 -33l420 9l-18 -170
q-178 2 -357 2h-243z" />
    <glyph glyph-name="uni00B3" unicode="&#xb3;" horiz-adv-x="768" 
d="M63 756q0 47 46.5 82.5t103.5 35.5l49 -30v-144q0 -10 60 -10q80 0 130 47t50 117q0 74 -51.5 118t-139.5 44q-78 0 -102 -4l-8 90q258 4 258 141q0 59 -41 90t-105 31q-104 0 -194 -64l-35 64q43 43 126 74.5t169 31.5q111 0 188.5 -47t77.5 -147q0 -129 -164 -172v-8
q90 -10 147.5 -63.5t57.5 -141.5q0 -131 -109.5 -206t-261.5 -75q-127 0 -189.5 40t-62.5 106z" />
    <glyph glyph-name="acute" unicode="&#xb4;" horiz-adv-x="849" 
d="M197 1163l131 375h354l-389 -387z" />
    <glyph glyph-name="mu" unicode="&#xb5;" horiz-adv-x="1255" 
d="M35 913v76l237 8l179 15q-10 -98 -11 -574q0 -166 42 -233.5t147 -67.5q162 0 162 225v426q0 53 -16.5 78t-69.5 35l-60 12v76l252 8l176 15q-10 -252 -10 -621q0 -180 23.5 -228t134.5 -59v-71q-145 -16 -351 -49h-73l6 147l-19 4q-35 -57 -112.5 -111.5t-186.5 -54.5
q-129 0 -200 68l6 -543h-191q57 418 64 813v10l2 471q0 51 -16.5 76t-67.5 37z" />
    <glyph glyph-name="mu" unicode="&#x3bc;" horiz-adv-x="1255" 
d="M35 913v76l237 8l179 15q-10 -98 -11 -574q0 -166 42 -233.5t147 -67.5q162 0 162 225v426q0 53 -16.5 78t-69.5 35l-60 12v76l252 8l176 15q-10 -252 -10 -621q0 -180 23.5 -228t134.5 -59v-71q-145 -16 -351 -49h-73l6 147l-19 4q-35 -57 -112.5 -111.5t-186.5 -54.5
q-129 0 -200 68l6 -543h-191q57 418 64 813v10l2 471q0 51 -16.5 76t-67.5 37z" />
    <glyph glyph-name="paragraph" unicode="&#xb6;" horiz-adv-x="1454" 
d="M70 942q0 215 151.5 353.5t360.5 138.5h655v-1837h-109v1732h-243q-90 0 -90 -80v-1386q0 -391 -322 -391q-104 0 -189 63.5t-85 185.5q0 78 56 135.5t132 57.5q78 0 131 -51t53 -127q0 -45 -25.5 -88t-62.5 -60l2 -16q199 0 199 264v588h-66q-287 0 -417.5 143.5
t-130.5 374.5z" />
    <glyph glyph-name="periodcentered" unicode="&#xb7;" horiz-adv-x="548" 
d="M102 741.5q0 69.5 51.5 120.5t121 51t120.5 -51t51 -120.5t-51 -121t-120.5 -51.5t-121 51.5t-51.5 121z" />
    <glyph glyph-name="cedilla" unicode="&#xb8;" horiz-adv-x="849" 
d="M150 -532l14 69q70 -31 125 -31q152 0 151 123q0 135 -250 203l271 217l65 -16l-129 -150q43 0 87 -10t95.5 -32.5t84 -72t32.5 -116.5q0 -121 -90 -181.5t-217 -60.5q-139 1 -239 58z" />
    <glyph glyph-name="uni00B9" unicode="&#xb9;" horiz-adv-x="768" 
d="M141 1270v90l252 92h121v-698q0 -23 18 -25l121 -18v-82l-243 6l-254 -6v82l141 18q18 2 18 25v553z" />
    <glyph glyph-name="ordmasculine" unicode="&#xba;" horiz-adv-x="901" 
d="M80 1069q0 174 101.5 284.5t277.5 110.5q152 0 257 -101t105 -281.5t-104.5 -289t-274.5 -108.5q-145 0 -253.5 99.5t-108.5 285.5zM274 1092q0 -164 52.5 -251t130.5 -87q174 0 174 305q0 164 -53.5 250t-131.5 86q-172 0 -172 -303z" />
    <glyph glyph-name="guillemotright" unicode="&#xbb;" horiz-adv-x="1175" 
d="M109 150l213 565v24l-213 566h65l488 -578l-488 -577h-65zM549 150l213 565v24l-213 566h65l488 -578l-488 -577h-65z" />
    <glyph glyph-name="onequarter" unicode="&#xbc;" horiz-adv-x="2088" 
d="M178 1270v90l252 92h121v-698q0 -23 18 -25l121 -18v-82l-244 6l-253 -6v82l141 18q18 2 18 25v553zM381 39l1278 1440l61 -58l-1274 -1439zM1204 205v112q10 20 60.5 99.5t141.5 212.5t177 252l170 -2q-299 -391 -424 -566h262q0 31 -12 203l207 4l-4 -207h114v-108
h-114v-86q0 -29 26 -35l82 -21v-69l-207 6l-202 -6v72l82 18q29 6 28 35v86h-387z" />
    <glyph glyph-name="onehalf" unicode="&#xbd;" horiz-adv-x="2088" 
d="M178 1270v90l252 92h121v-698q0 -23 18 -25l121 -18v-82l-244 6l-253 -6v82l141 18q18 2 18 25v553zM381 39l1278 1440l61 -58l-1274 -1439zM1294 0v90q213 178 301 270q72 78 92.5 127.5t20.5 104.5q0 68 -43 117t-119 49q-51 0 -51 -31v-143l-49 -39q-61 2 -106.5 35.5
t-45.5 83.5q0 72 83 125t229 53q127 0 215 -59.5t88 -161.5q0 -80 -39 -135.5t-141 -135.5q-43 -33 -99.5 -79t-97.5 -78l-39 -33l420 8l-19 -170q-178 2 -356 2h-244z" />
    <glyph glyph-name="threequarters" unicode="&#xbe;" horiz-adv-x="2088" 
d="M197 756q0 47 46 82.5t103 35.5l49 -30v-144q0 -10 60 -10q80 0 130 47t50 117q0 74 -51.5 118t-139.5 44q-78 0 -102 -4l-8 90q258 4 258 141q0 59 -41 90t-105 31q-104 0 -194 -64l-35 64q43 43 126 74.5t169 31.5q111 0 188.5 -47t77.5 -147q0 -129 -164 -172v-8
q90 -10 147.5 -63.5t57.5 -141.5q0 -131 -109.5 -206t-260.5 -75q-127 0 -189.5 40t-62.5 106zM381 39l1278 1440l61 -58l-1274 -1439zM1202 205v112q10 20 60.5 99.5t141.5 212.5t177 252l170 -2q-299 -391 -424 -566h262q0 31 -12 203l207 4l-4 -207h114v-108h-114v-86
q0 -29 26 -35l82 -21v-69l-207 6l-202 -6v72l82 18q29 6 28 35v86h-387z" />
    <glyph glyph-name="questiondown" unicode="&#xbf;" horiz-adv-x="948" 
d="M74 -174q0 82 42 156.5t102.5 129t121.5 101.5t103 92t42 84q0 12 -18 86q18 2 55 10q51 -29 87 -77t42 -78q-2 -66 -43 -140.5t-90 -133t-89 -134.5t-40 -139q0 -76 36 -134.5t114 -58.5q82 0 82 58q0 10 -1.5 30.5t-1.5 32.5l-4 170l58 35q84 -4 148.5 -53t64.5 -115
q0 -92 -94.5 -164.5t-298.5 -72.5q-184 0 -301 82.5t-117 232.5zM307 807q0 82 57.5 139.5t139.5 57.5t139 -57.5t57 -139.5t-57 -139.5t-139 -57.5t-139.5 57.5t-57.5 139.5z" />
    <glyph glyph-name="Agrave" unicode="&#xc0;" horiz-adv-x="1574" 
d="M-31 -10v88l99 20q47 8 68.5 30t39.5 67l475 1253l254 39q219 -598 498 -1290q20 -47 40.5 -69t65.5 -30l99 -20v-88l-363 10l-360 -10v88l106 20q57 12 79 34t5 65l-139 383h-492q-88 -240 -127 -383q-14 -43 4.5 -65.5t73.5 -33.5l129 -20v-88l-350 10zM479 682h424
l-213 588zM532 1974h355l129 -375l-94 -12z" />
    <glyph glyph-name="Aacute" unicode="&#xc1;" horiz-adv-x="1574" 
d="M-31 -10v88l99 20q47 8 68.5 30t39.5 67l475 1253l254 39q219 -598 498 -1290q20 -47 40.5 -69t65.5 -30l99 -20v-88l-363 10l-360 -10v88l106 20q57 12 79 34t5 65l-139 383h-492q-88 -240 -127 -383q-14 -43 4.5 -65.5t73.5 -33.5l129 -20v-88l-350 10zM479 682h424
l-213 588zM561 1599l131 375h355l-390 -387z" />
    <glyph glyph-name="Acircumflex" unicode="&#xc2;" horiz-adv-x="1574" 
d="M-31 -10v88l99 20q47 8 68.5 30t39.5 67l475 1253l254 39q219 -598 498 -1290q20 -47 40.5 -69t65.5 -30l99 -20v-88l-363 10l-360 -10v88l106 20q57 12 79 34t5 65l-139 383h-492q-88 -240 -127 -383q-14 -43 4.5 -65.5t73.5 -33.5l129 -20v-88l-350 10zM440 1597
l287 390h119l291 -390l-45 -38l-301 192h-5l-292 -190zM479 682h424l-213 588z" />
    <glyph glyph-name="Atilde" unicode="&#xc3;" horiz-adv-x="1574" 
d="M-31 -10v88l99 20q47 8 68.5 30t39.5 67l475 1253l254 39q219 -598 498 -1290q20 -47 40.5 -69t65.5 -30l99 -20v-88l-363 10l-360 -10v88l106 20q57 12 79 34t5 65l-139 383h-492q-88 -240 -127 -383q-14 -43 4.5 -65.5t73.5 -33.5l129 -20v-88l-350 10zM430 1632
q23 98 87.5 179t156.5 81q49 0 158.5 -44t136.5 -44q47 0 68.5 14.5t49.5 69.5l60 -24q-25 -102 -85.5 -179t-160.5 -77q-43 0 -146.5 41t-129.5 41q-47 0 -77 -15.5t-56 -64.5zM479 682h424l-213 588z" />
    <glyph glyph-name="Adieresis" unicode="&#xc4;" horiz-adv-x="1574" 
d="M-31 -10v88l99 20q47 8 68.5 30t39.5 67l475 1253l254 39q219 -598 498 -1290q20 -47 40.5 -69t65.5 -30l99 -20v-88l-363 10l-360 -10v88l106 20q57 12 79 34t5 65l-139 383h-492q-88 -240 -127 -383q-14 -43 4.5 -65.5t73.5 -33.5l129 -20v-88l-350 10zM422 1767.5
q0 67.5 47 114.5t114.5 47t114.5 -47t47 -114.5t-47 -114.5t-114.5 -47t-114.5 47t-47 114.5zM479 682h424l-213 588zM829 1767.5q0 67.5 47.5 114.5t115 47t114.5 -47t47 -114.5t-47 -114.5t-114.5 -47t-115 47t-47.5 114.5z" />
    <glyph glyph-name="Aring" unicode="&#xc5;" horiz-adv-x="1574" 
d="M-31 -10v88l99 20q47 8 68.5 30t39.5 67q207 526 440 1159q-145 88 -145 260q0 129 90 217t219 88q131 0 220.5 -87t89.5 -218q0 -166 -138 -256q160 -436 451 -1161q20 -47 40.5 -69t65.5 -30l99 -20v-88l-363 10l-360 -10v88l106 20q57 12 79 34t5 65l-139 383h-492
q-88 -240 -127 -383q-14 -43 4.5 -65.5t73.5 -33.5l129 -20v-88l-350 10zM479 682h424l-213 588zM580 1614q0 -92 54 -152.5t146 -60.5t147.5 60.5t55.5 152.5t-55.5 152.5t-147.5 60.5t-146 -60.5t-54 -152.5z" />
    <glyph glyph-name="AE" unicode="&#xc6;" horiz-adv-x="2140" 
d="M-57 -10l2 88q4 0 34.5 6t38 7t33 8t34.5 11.5t29.5 13.5t31 18.5t22.5 22.5t22 30q47 84 187.5 344t279 521t150.5 281l-100 13v90l423 -10h537q51 0 130 6t132 10l51 6q-16 -125 -34 -416h-95l-22 84q-29 102 -62.5 151.5t-89.5 49.5h-374q-23 0 -29 -7t-6 -26v-506
q121 2 235 9q47 2 69.5 24.5t37.5 79.5l26 113h93l-11 -277l11 -270h-93l-26 113q-14 57 -37 78.5t-70 25.5l-235 8v-452q0 -129 143 -129h225q86 0 144.5 30.5t109.5 132.5l82 162h90q-25 -145 -53 -444q-283 10 -401 10h-478l-360 -10v88l107 20q55 10 75.5 32t20.5 67
q0 10 1 62t1 139v182h-443l-186 -385q-12 -25 -12 -43q0 -41 74 -54l114 -20l-2 -88l-352 10zM582 684h393v586q0 35 -9.5 46t-29.5 11h-23z" />
    <glyph glyph-name="Ccedilla" unicode="&#xc7;" horiz-adv-x="1529" 
d="M94 709q0 326 215 540.5t561 214.5q195 0 398 -57l155 27q-33 -293 -43 -433h-92l-43 125q-78 225 -360 226q-221 0 -351.5 -160t-130.5 -424q0 -303 155 -478t425 -175q106 0 215 28l131 322h98q-10 -164 -14 -387q-266 -109 -551 -109q-33 0 -49 2l-74 -88q43 0 87 -10
t95.5 -32.5t84 -72t32.5 -116.5q0 -121 -90 -181.5t-217 -60.5q-139 0 -239 58l14 69q70 -31 125 -31q152 0 151 123q0 135 -250 203l185 148q-274 41 -448.5 229.5t-174.5 499.5z" />
    <glyph glyph-name="Egrave" unicode="&#xc8;" horiz-adv-x="1454" 
d="M80 -10v88l106 20q55 10 76 32t21 67q6 180 6 518l-6 518q0 51 -20.5 70.5t-76.5 29.5l-106 21v90l332 -10h569q51 0 129 6t131 10l53 6q-16 -125 -37 -416h-92l-24 84q-31 106 -61.5 153.5t-90.5 47.5h-373q-23 0 -28.5 -7t-5.5 -26v-506q119 2 235 9q47 4 69.5 25.5
t37.5 78.5l26 113h92l-10 -277l10 -270h-92l-26 113q-14 57 -37 78.5t-70 25.5l-235 8v-452q0 -68 34.5 -98.5t110.5 -30.5h221q113 0 170.5 55t165.5 270h90q-25 -145 -53 -444q-281 10 -399 10h-510zM469 1974h354l129 -375l-94 -12z" />
    <glyph glyph-name="Eacute" unicode="&#xc9;" horiz-adv-x="1454" 
d="M80 -10v88l106 20q55 10 76 32t21 67q6 180 6 518l-6 518q0 51 -20.5 70.5t-76.5 29.5l-106 21v90l332 -10h569q51 0 129 6t131 10l53 6q-16 -125 -37 -416h-92l-24 84q-31 106 -61.5 153.5t-90.5 47.5h-373q-23 0 -28.5 -7t-5.5 -26v-506q119 2 235 9q47 4 69.5 25.5
t37.5 78.5l26 113h92l-10 -277l10 -270h-92l-26 113q-14 57 -37 78.5t-70 25.5l-235 8v-452q0 -68 34.5 -98.5t110.5 -30.5h221q113 0 170.5 55t165.5 270h90q-25 -145 -53 -444q-281 10 -399 10h-510zM571 1599l131 375h355l-389 -387z" />
    <glyph glyph-name="Ecircumflex" unicode="&#xca;" horiz-adv-x="1454" 
d="M80 -10v88l106 20q55 10 76 32t21 67q6 180 6 518l-6 518q0 51 -20.5 70.5t-76.5 29.5l-106 21v90l332 -10h569q51 0 129 6t131 10l53 6q-16 -125 -37 -416h-92l-24 84q-31 106 -61.5 153.5t-90.5 47.5h-373q-23 0 -28.5 -7t-5.5 -26v-506q119 2 235 9q47 4 69.5 25.5
t37.5 78.5l26 113h92l-10 -277l10 -270h-92l-26 113q-14 57 -37 78.5t-70 25.5l-235 8v-452q0 -68 34.5 -98.5t110.5 -30.5h221q113 0 170.5 55t165.5 270h90q-25 -145 -53 -444q-281 10 -399 10h-510zM379 1597l287 390h118l291 -390l-45 -38l-301 192h-4l-293 -190z" />
    <glyph glyph-name="Edieresis" unicode="&#xcb;" horiz-adv-x="1454" 
d="M80 -10v88l106 20q55 10 76 32t21 67q6 180 6 518l-6 518q0 51 -20.5 70.5t-76.5 29.5l-106 21v90l332 -10h569q51 0 129 6t131 10l53 6q-16 -125 -37 -416h-92l-24 84q-31 106 -61.5 153.5t-90.5 47.5h-373q-23 0 -28.5 -7t-5.5 -26v-506q119 2 235 9q47 4 69.5 25.5
t37.5 78.5l26 113h92l-10 -277l10 -270h-92l-26 113q-14 57 -37 78.5t-70 25.5l-235 8v-452q0 -68 34.5 -98.5t110.5 -30.5h221q113 0 170.5 55t165.5 270h90q-25 -145 -53 -444q-281 10 -399 10h-510zM362 1767.5q0 67.5 47.5 114.5t115 47t114.5 -47t47 -114.5t-47 -114.5
t-114.5 -47t-115 47t-47.5 114.5zM770 1767.5q0 67.5 47 114.5t114.5 47t115 -47t47.5 -114.5t-47.5 -114.5t-115 -47t-114.5 47t-47 114.5z" />
    <glyph glyph-name="Igrave" unicode="&#xcc;" horiz-adv-x="870" 
d="M80 -10v90l106 20q55 10 75 30t22 71q6 176 6 514l-6 518q-2 51 -21.5 70.5t-75.5 29.5l-106 21v90l354 -10l357 10v-90l-107 -21q-55 -10 -74.5 -29.5t-21.5 -70.5q-6 -180 -6 -518l6 -514q2 -51 21.5 -70.5t74.5 -30.5l107 -20v-90l-357 10zM184 1974h355l129 -375
l-95 -12z" />
    <glyph glyph-name="Iacute" unicode="&#xcd;" horiz-adv-x="870" 
d="M80 -10v90l106 20q55 10 75 30t22 71q6 176 6 514l-6 518q-2 51 -21.5 70.5t-75.5 29.5l-106 21v90l354 -10l357 10v-90l-107 -21q-55 -10 -74.5 -29.5t-21.5 -70.5q-6 -180 -6 -518l6 -514q2 -51 21.5 -70.5t74.5 -30.5l107 -20v-90l-357 10zM199 1599l131 375h354
l-389 -387z" />
    <glyph glyph-name="Icircumflex" unicode="&#xce;" horiz-adv-x="870" 
d="M80 -10v90l106 20q55 10 75 30t22 71q6 176 6 514l-6 518q-2 51 -21.5 70.5t-75.5 29.5l-106 21v90l354 -10l357 10v-90l-107 -21q-55 -10 -74.5 -29.5t-21.5 -70.5q-6 -180 -6 -518l6 -514q2 -51 21.5 -70.5t74.5 -30.5l107 -20v-90l-357 10zM86 1597l287 390h119
l290 -390l-45 -38l-301 192h-4l-293 -190z" />
    <glyph glyph-name="Idieresis" unicode="&#xcf;" horiz-adv-x="870" 
d="M70 1767.5q0 67.5 47 114.5t114.5 47t114.5 -47t47 -114.5t-47 -114.5t-114.5 -47t-114.5 47t-47 114.5zM80 -10v90l106 20q55 10 75 30t22 71q6 176 6 514l-6 518q-2 51 -21.5 70.5t-75.5 29.5l-106 21v90l354 -10l357 10v-90l-107 -21q-55 -10 -74.5 -29.5t-21.5 -70.5
q-6 -180 -6 -518l6 -514q2 -51 21.5 -70.5t74.5 -30.5l107 -20v-90l-357 10zM477 1767.5q0 67.5 47 114.5t115 47t115 -47t47 -114.5t-47 -114.5t-115 -47t-115 47t-47 114.5z" />
    <glyph glyph-name="Eth" unicode="&#xd0;" horiz-adv-x="1751" 
d="M80 -10v90l106 20q55 10 75 31t22 66q6 172 6 489h-205v105h205l-6 442q-4 51 -22.5 70.5t-74.5 29.5l-106 21v90l303 -10q240 20 526 20q358 0 552 -208t194 -513q0 -336 -208 -542.5t-611 -206.5q-279 0 -453 16zM582 238q0 -102 49 -129t205 -27q76 0 140 12t133 52
t116 103.5t77.5 176.5t30.5 264q0 326 -128 491t-423 165q-18 0 -86.5 1t-79.5 1q-23 0 -28.5 -7.5t-5.5 -25.5v-524h391v-105h-391v-448z" />
    <glyph glyph-name="Ntilde" unicode="&#xd1;" horiz-adv-x="1806" 
d="M70 -10v90l106 20q55 10 74.5 30t21.5 67q20 942 21 1036q0 47 -20.5 68.5t-73.5 31.5l-103 21v90l287 -10l283 10q37 -102 94 -178l680 -914q-14 748 -19 881q-2 49 -21.5 69.5t-74.5 30.5l-106 21v90l270 -10l264 10v-90l-106 -21q-55 -10 -76 -30.5t-21 -69.5
q0 -23 -5 -420t-5 -823h-190q-545 750 -951 1270q2 -788 2 -1063q0 -47 20.5 -66.5t76.5 -30.5l108 -20v-90l-274 10zM545 1632q23 98 87 179t156 81q49 0 159 -44t136 -44q47 0 69 14.5t50 69.5l60 -24q-25 -102 -85.5 -179t-160.5 -77q-43 0 -146.5 41t-130.5 41
q-47 0 -76.5 -15.5t-56.5 -64.5z" />
    <glyph glyph-name="Ograve" unicode="&#xd2;" horiz-adv-x="1710" 
d="M92 702q0 330 215 545t553 217q143 0 276.5 -47t242 -136t173 -233.5t64.5 -322.5q0 -328 -220 -542t-558 -214q-129 0 -257 46t-240 133.5t-180.5 231.5t-68.5 322zM406 743q0 -334 129 -498.5t333 -164.5q129 0 219.5 55t134.5 150.5t62.5 192.5t18.5 210
q0 334 -121 499t-326 165q-129 0 -222 -55.5t-140.5 -150.5t-67.5 -193.5t-20 -209.5zM604 1974h354l129 -375l-94 -12z" />
    <glyph glyph-name="Oacute" unicode="&#xd3;" horiz-adv-x="1710" 
d="M92 702q0 330 215 545t553 217q143 0 276.5 -47t242 -136t173 -233.5t64.5 -322.5q0 -328 -220 -542t-558 -214q-129 0 -257 46t-240 133.5t-180.5 231.5t-68.5 322zM406 743q0 -334 129 -498.5t333 -164.5q129 0 219.5 55t134.5 150.5t62.5 192.5t18.5 210
q0 334 -121 499t-326 165q-129 0 -222 -55.5t-140.5 -150.5t-67.5 -193.5t-20 -209.5zM664 1599l131 375h354l-389 -387z" />
    <glyph glyph-name="Ocircumflex" unicode="&#xd4;" horiz-adv-x="1710" 
d="M92 702q0 330 215 545t553 217q143 0 276.5 -47t242 -136t173 -233.5t64.5 -322.5q0 -328 -220 -542t-558 -214q-129 0 -257 46t-240 133.5t-180.5 231.5t-68.5 322zM406 743q0 -334 129 -498.5t333 -164.5q129 0 219.5 55t134.5 150.5t62.5 192.5t18.5 210
q0 334 -121 499t-326 165q-129 0 -222 -55.5t-140.5 -150.5t-67.5 -193.5t-20 -209.5zM504 1597l287 390h118l291 -390l-45 -38l-301 192h-4l-293 -190z" />
    <glyph glyph-name="Otilde" unicode="&#xd5;" horiz-adv-x="1710" 
d="M92 702q0 330 215 545t553 217q143 0 276.5 -47t242 -136t173 -233.5t64.5 -322.5q0 -328 -220 -542t-558 -214q-129 0 -257 46t-240 133.5t-180.5 231.5t-68.5 322zM406 743q0 -334 129 -498.5t333 -164.5q129 0 219.5 55t134.5 150.5t62.5 192.5t18.5 210
q0 334 -121 499t-326 165q-129 0 -222 -55.5t-140.5 -150.5t-67.5 -193.5t-20 -209.5zM494 1632q23 98 87 179t156 81q49 0 159 -44t136 -44q47 0 68.5 14.5t50.5 69.5l59 -24q-25 -102 -85 -179t-160 -77q-43 0 -146.5 41t-130.5 41q-47 0 -76.5 -15.5t-56.5 -64.5z" />
    <glyph glyph-name="Odieresis" unicode="&#xd6;" horiz-adv-x="1710" 
d="M92 702q0 330 215 545t553 217q143 0 276.5 -47t242 -136t173 -233.5t64.5 -322.5q0 -328 -220 -542t-558 -214q-129 0 -257 46t-240 133.5t-180.5 231.5t-68.5 322zM406 743q0 -334 129 -498.5t333 -164.5q129 0 219.5 55t134.5 150.5t62.5 192.5t18.5 210
q0 334 -121 499t-326 165q-129 0 -222 -55.5t-140.5 -150.5t-67.5 -193.5t-20 -209.5zM487 1767.5q0 67.5 47.5 114.5t115 47t114.5 -47t47 -114.5t-47 -114.5t-114.5 -47t-115 47t-47.5 114.5zM895 1767.5q0 67.5 47 114.5t114.5 47t115 -47t47.5 -114.5t-47.5 -114.5
t-115 -47t-114.5 47t-47 114.5z" />
    <glyph glyph-name="multiply" unicode="&#xd7;" 
d="M100 307l420 432l-420 430l86 86l418 -432l406 418l86 -90l-406 -416l418 -428l-82 -86l-422 430l-418 -428z" />
    <glyph glyph-name="Oslash" unicode="&#xd8;" horiz-adv-x="1710" 
d="M92 702q0 330 215 545t553 217q233 0 422 -116l184 247l80 -59l-182 -244q252 -207 252 -567q0 -328 -220 -542t-558 -214q-203 0 -385 101l-191 -254l-80 59l187 250q-277 208 -277 577zM406 743q0 -279 94 -444l669 899q-115 154 -313 154q-129 0 -222 -55.5
t-140.5 -150.5t-67.5 -193.5t-20 -209.5zM559 213q119 -133 309 -133q129 0 219.5 55t134.5 150.5t62.5 192.5t18.5 210q0 254 -80 418z" />
    <glyph glyph-name="Ugrave" unicode="&#xd9;" horiz-adv-x="1724" 
d="M39 1354v90l336 -10l362 10v-90l-102 -21q-57 -10 -77.5 -30.5t-20.5 -69.5v-729q0 -399 391 -400q117 0 204 39t134 104.5t69.5 138.5t22.5 153q0 125 -2 398t-2 296q0 49 -20.5 69.5t-76.5 30.5l-106 21v90l268 -10l267 10v-90l-107 -21q-55 -10 -75.5 -30.5
t-20.5 -69.5l-4 -698q0 -272 -165 -419t-452 -147q-281 0 -450.5 136.5t-169.5 386.5v741q0 49 -20.5 69.5t-76.5 30.5zM602 1974h354l129 -375l-94 -12z" />
    <glyph glyph-name="Uacute" unicode="&#xda;" horiz-adv-x="1724" 
d="M39 1354v90l336 -10l362 10v-90l-102 -21q-57 -10 -77.5 -30.5t-20.5 -69.5v-729q0 -399 391 -400q117 0 204 39t134 104.5t69.5 138.5t22.5 153q0 125 -2 398t-2 296q0 49 -20.5 69.5t-76.5 30.5l-106 21v90l268 -10l267 10v-90l-107 -21q-55 -10 -75.5 -30.5
t-20.5 -69.5l-4 -698q0 -272 -165 -419t-452 -147q-281 0 -450.5 136.5t-169.5 386.5v741q0 49 -20.5 69.5t-76.5 30.5zM692 1599l131 375h355l-390 -387z" />
    <glyph glyph-name="Ucircumflex" unicode="&#xdb;" horiz-adv-x="1724" 
d="M39 1354v90l336 -10l362 10v-90l-102 -21q-57 -10 -77.5 -30.5t-20.5 -69.5v-729q0 -399 391 -400q117 0 204 39t134 104.5t69.5 138.5t22.5 153q0 125 -2 398t-2 296q0 49 -20.5 69.5t-76.5 30.5l-106 21v90l268 -10l267 10v-90l-107 -21q-55 -10 -75.5 -30.5
t-20.5 -69.5l-4 -698q0 -272 -165 -419t-452 -147q-281 0 -450.5 136.5t-169.5 386.5v741q0 49 -20.5 69.5t-76.5 30.5zM510 1597l287 390h118l291 -390l-45 -38l-301 192h-4l-293 -190z" />
    <glyph glyph-name="Udieresis" unicode="&#xdc;" horiz-adv-x="1724" 
d="M39 1354v90l336 -10l362 10v-90l-102 -21q-57 -10 -77.5 -30.5t-20.5 -69.5v-729q0 -399 391 -400q117 0 204 39t134 104.5t69.5 138.5t22.5 153q0 125 -2 398t-2 296q0 49 -20.5 69.5t-76.5 30.5l-106 21v90l268 -10l267 10v-90l-107 -21q-55 -10 -75.5 -30.5
t-20.5 -69.5l-4 -698q0 -272 -165 -419t-452 -147q-281 0 -450.5 136.5t-169.5 386.5v741q0 49 -20.5 69.5t-76.5 30.5zM494 1767.5q0 67.5 47 114.5t114.5 47t114.5 -47t47 -114.5t-47 -114.5t-114.5 -47t-114.5 47t-47 114.5zM901 1767.5q0 67.5 47 114.5t114.5 47
t115 -47t47.5 -114.5t-47.5 -114.5t-115 -47t-114.5 47t-47 114.5z" />
    <glyph glyph-name="Yacute" unicode="&#xdd;" horiz-adv-x="1456" 
d="M-31 1354v90l361 -10l393 10v-90l-111 -21q-113 -23 -71 -100l307 -541q86 152 285 537q43 82 -76 104l-107 21v90l330 -10l207 10v-90l-92 -21q-43 -8 -66.5 -29.5t-50.5 -66.5l-383 -680q-2 -88 -2 -100q0 -63 6 -260q2 -47 19.5 -66.5t72.5 -30.5l107 -20v-90l-332 10
l-375 -10v90l105 20q55 10 72.5 30t19.5 67q4 66 4 260v90q-227 387 -416 688q-29 45 -52.5 66.5t-68.5 31.5zM610 1616l131 375h355l-389 -387z" />
    <glyph glyph-name="Thorn" unicode="&#xde;" horiz-adv-x="1456" 
d="M80 -10v90l106 20q55 10 75 31t22 66q6 180 6 518l-6 518q-2 51 -21.5 70.5t-75.5 29.5l-106 21v90l356 -10l350 10v-90l-104 -21q-23 -4 -39 -9t-27.5 -15.5t-16.5 -16.5t-9 -25.5t-5 -28.5t-2 -41t-1 -46q164 20 350 20q78 0 154.5 -22.5t148.5 -69.5t117 -131t45 -192
q0 -84 -25.5 -160t-80 -144.5t-155 -109.5t-235.5 -41l-125 12v93q0 -2 51 -3q260 0 260 320q0 162 -97 247t-245 85h-163q-4 -180 -4 -340l6 -518q2 -45 22.5 -65.5t75.5 -31.5l104 -20v-90l-350 10z" />
    <glyph glyph-name="germandbls" unicode="&#xdf;" horiz-adv-x="1236" 
d="M53 -10v73l60 15q57 14 77.5 33.5t20.5 64.5v707h-145v100h145q0 291 135 439.5t352 148.5q176 0 270.5 -88t94.5 -219q0 -72 -33 -133.5t-71.5 -96.5t-71.5 -74.5t-33 -72.5q0 -57 34 -111.5t81 -103.5t95 -101.5t82 -126t34 -157.5q0 -123 -94.5 -216.5t-251.5 -93.5
q-70 0 -128.5 14.5t-83 28t-24.5 15.5l27 80q53 -33 139 -33q66 0 112 36t46 109q0 57 -46.5 126t-100.5 123t-100 121t-46 120q0 66 48 136.5t104.5 124.5t104.5 132t48 156q0 106 -60.5 153t-144.5 47q-115 0 -180.5 -73.5t-65.5 -229.5v-1167l-247 4z" />
    <glyph glyph-name="agrave" unicode="&#xe0;" horiz-adv-x="1069" 
d="M68 229q0 92 50 160t137 103.5t175 54t191 24.5v131q0 129 -27 186.5t-125 57.5q-111 0 -111 -65v-201l-94 -41q-68 10 -115 56t-47 110q0 111 127 169t308 58q168 0 267 -79t99 -244q0 -41 -7 -243t-7 -251q0 -96 78 -96q51 0 75 28l21 -59q-25 -53 -91.5 -86
t-140.5 -33q-86 0 -141 42t-65 114q-23 -57 -93.5 -106.5t-175.5 -49.5q-123 0 -205.5 73.5t-82.5 186.5zM260 1538h354l129 -375l-94 -12zM332 291q0 -68 39 -112t112 -44q55 0 95 34t40 77l3 250q-289 -37 -289 -205z" />
    <glyph glyph-name="aacute" unicode="&#xe1;" horiz-adv-x="1069" 
d="M68 229q0 92 50 160t137 103.5t175 54t191 24.5v131q0 129 -27 186.5t-125 57.5q-111 0 -111 -65v-201l-94 -41q-68 10 -115 56t-47 110q0 111 127 169t308 58q168 0 267 -79t99 -244q0 -41 -7 -243t-7 -251q0 -96 78 -96q51 0 75 28l21 -59q-25 -53 -91.5 -86
t-140.5 -33q-86 0 -141 42t-65 114q-23 -57 -93.5 -106.5t-175.5 -49.5q-123 0 -205.5 73.5t-82.5 186.5zM291 1163l131 375h354l-389 -387zM332 291q0 -68 39 -112t112 -44q55 0 95 34t40 77l3 250q-289 -37 -289 -205z" />
    <glyph glyph-name="acircumflex" unicode="&#xe2;" horiz-adv-x="1069" 
d="M68 229q0 92 50 160t137 103.5t175 54t191 24.5v131q0 129 -27 186.5t-125 57.5q-111 0 -111 -65v-201l-94 -41q-68 10 -115 56t-47 110q0 111 127 169t308 58q168 0 267 -79t99 -244q0 -41 -7 -243t-7 -251q0 -96 78 -96q51 0 75 28l21 -59q-25 -53 -91.5 -86
t-140.5 -33q-86 0 -141 42t-65 114q-23 -57 -93.5 -106.5t-175.5 -49.5q-123 0 -205.5 73.5t-82.5 186.5zM170 1161l287 389h118l291 -389l-45 -39l-301 193h-4l-293 -191zM332 291q0 -68 39 -112t112 -44q55 0 95 34t40 77l3 250q-289 -37 -289 -205z" />
    <glyph glyph-name="atilde" unicode="&#xe3;" horiz-adv-x="1069" 
d="M68 229q0 92 50 160t137 103.5t175 54t191 24.5v131q0 129 -27 186.5t-125 57.5q-111 0 -111 -65v-201l-94 -41q-68 10 -115 56t-47 110q0 111 127 169t308 58q168 0 267 -79t99 -244q0 -41 -7 -243t-7 -251q0 -96 78 -96q51 0 75 28l21 -59q-25 -53 -91.5 -86
t-140.5 -33q-86 0 -141 42t-65 114q-23 -57 -93.5 -106.5t-175.5 -49.5q-123 0 -205.5 73.5t-82.5 186.5zM150 1196q23 98 87 179t156 81q49 0 159 -44t136 -44q47 0 68.5 14.5t50.5 69.5l59 -25q-25 -102 -85 -179t-160 -77q-43 0 -146.5 41t-130.5 41q-47 0 -76.5 -15
t-56.5 -64zM332 291q0 -68 39 -112t112 -44q55 0 95 34t40 77l3 250q-289 -37 -289 -205z" />
    <glyph glyph-name="adieresis" unicode="&#xe4;" horiz-adv-x="1069" 
d="M68 229q0 92 50 160t137 103.5t175 54t191 24.5v131q0 129 -27 186.5t-125 57.5q-111 0 -111 -65v-201l-94 -41q-68 10 -115 56t-47 110q0 111 127 169t308 58q168 0 267 -79t99 -244q0 -41 -7 -243t-7 -251q0 -96 78 -96q51 0 75 28l21 -59q-25 -53 -91.5 -86
t-140.5 -33q-86 0 -141 42t-65 114q-23 -57 -93.5 -106.5t-175.5 -49.5q-123 0 -205.5 73.5t-82.5 186.5zM147 1331.5q0 67.5 47.5 114.5t115 47t114.5 -47t47 -114.5t-47 -115t-114.5 -47.5t-115 47.5t-47.5 115zM332 291q0 -68 39 -112t112 -44q55 0 95 34t40 77l3 250
q-289 -37 -289 -205zM555 1331.5q0 67.5 47 114.5t114.5 47t115 -47t47.5 -114.5t-47.5 -115t-115 -47.5t-114.5 47.5t-47 115z" />
    <glyph glyph-name="aring" unicode="&#xe5;" horiz-adv-x="1069" 
d="M68 229q0 92 50 160t137 103.5t175 54t191 24.5v131q0 129 -27 186.5t-125 57.5q-111 0 -111 -65v-201l-94 -41q-68 10 -115 56t-47 110q0 111 127 169t308 58q168 0 267 -79t99 -244q0 -41 -7 -243t-7 -251q0 -96 78 -96q51 0 75 28l21 -59q-25 -53 -91.5 -86
t-140.5 -33q-86 0 -141 42t-65 114q-23 -57 -93.5 -106.5t-175.5 -49.5q-123 0 -205.5 73.5t-82.5 186.5zM287 1347.5q0 102.5 70.5 171t170.5 68.5q102 0 173 -68.5t71 -171t-70.5 -172t-173.5 -69.5q-100 0 -170.5 69.5t-70.5 172zM332 291q0 -68 39 -112t112 -44
q55 0 95 34t40 77l3 250q-289 -37 -289 -205zM381 1347.5q0 -69.5 40 -113.5t107.5 -44t108.5 44t41 113.5t-41 113.5t-108.5 44t-107.5 -44t-40 -113.5z" />
    <glyph glyph-name="ae" unicode="&#xe6;" horiz-adv-x="1585" 
d="M68 229q0 303 542 340v133q0 86 -7 131.5t-42 79t-102 33.5q-100 0 -101 -65v-201l-96 -41q-66 10 -114 56t-48 110q0 113 116 170t294 57q94 0 179 -28.5t120 -75.5q111 104 283 104q199 0 310 -112.5t111 -292.5v-56l-618 -51v-2q16 -184 96 -281.5t205 -97.5
q84 0 154.5 39t99.5 80l51 -61q-125 -227 -428 -228q-260 0 -379 195q-47 -96 -136 -145.5t-202 -49.5q-123 0 -205.5 73.5t-82.5 186.5zM334 279q0 -66 39 -108t112 -42q66 0 111 39t49 98q-31 61 -35 219q-276 -36 -276 -206zM895 606l332 33v68q0 111 -39 175t-113 64
q-180 0 -180 -340z" />
    <glyph glyph-name="ccedilla" unicode="&#xe7;" horiz-adv-x="1007" 
d="M72 499.5q0 225.5 148.5 379t359.5 153.5q188 0 272 -68.5t84 -144.5q0 -143 -184 -170l-84 29v29q0 27 1 62.5t1 64.5q0 68 -15.5 87t-79.5 19q-98 0 -157.5 -97.5t-59.5 -307.5q0 -195 90.5 -294.5t225.5 -99.5q80 0 146.5 34t94.5 83l54 -61q-123 -223 -418 -228
l-74 -86q43 0 87 -10t95.5 -32.5t84 -72t32.5 -116.5q0 -121 -90 -181.5t-217 -60.5q-139 0 -240 58l15 69q70 -31 125 -31q152 0 151 123q0 135 -250 203l183 148q-160 31 -270.5 162.5t-110.5 357z" />
    <glyph glyph-name="egrave" unicode="&#xe8;" horiz-adv-x="1060" 
d="M72 500q0 221 144 376.5t347 155.5q201 0 314.5 -113.5t113.5 -291.5v-56l-633 2v-38q0 -186 90.5 -290t217.5 -104q82 0 152.5 33t101.5 84l53 -61q-125 -227 -434 -228q-197 0 -332 134.5t-135 396.5zM268 1538h355l129 -375l-95 -12zM365 657l335 7q4 137 -28.5 208.5
t-118.5 71.5q-172 0 -188 -287z" />
    <glyph glyph-name="eacute" unicode="&#xe9;" horiz-adv-x="1060" 
d="M72 500q0 221 144 376.5t347 155.5q201 0 314.5 -113.5t113.5 -291.5v-56l-633 2v-38q0 -186 90.5 -290t217.5 -104q82 0 152.5 33t101.5 84l53 -61q-125 -227 -434 -228q-197 0 -332 134.5t-135 396.5zM297 1163l131 375h354l-389 -387zM365 657l335 7
q4 137 -28.5 208.5t-118.5 71.5q-172 0 -188 -287z" />
    <glyph glyph-name="ecircumflex" unicode="&#xea;" horiz-adv-x="1060" 
d="M72 500q0 221 144 376.5t347 155.5q201 0 314.5 -113.5t113.5 -291.5v-56l-633 2v-38q0 -186 90.5 -290t217.5 -104q82 0 152.5 33t101.5 84l53 -61q-125 -227 -434 -228q-197 0 -332 134.5t-135 396.5zM178 1161l287 389h119l290 -389l-45 -39l-301 193h-4l-293 -191z
M365 657l335 7q4 137 -28.5 208.5t-118.5 71.5q-172 0 -188 -287z" />
    <glyph glyph-name="edieresis" unicode="&#xeb;" horiz-adv-x="1060" 
d="M72 500q0 221 144 376.5t347 155.5q201 0 314.5 -113.5t113.5 -291.5v-56l-633 2v-38q0 -186 90.5 -290t217.5 -104q82 0 152.5 33t101.5 84l53 -61q-125 -227 -434 -228q-197 0 -332 134.5t-135 396.5zM162 1331.5q0 67.5 47 114.5t114.5 47t114.5 -47t47 -114.5
t-47 -115t-114.5 -47.5t-114.5 47.5t-47 115zM365 657l335 7q4 137 -28.5 208.5t-118.5 71.5q-172 0 -188 -287zM569 1331.5q0 67.5 47.5 114.5t115 47t114.5 -47t47 -114.5t-47 -115t-114.5 -47.5t-115 47.5t-47.5 115z" />
    <glyph glyph-name="igrave" unicode="&#xec;" horiz-adv-x="667" 
d="M49 -10v73l60 15q57 14 77.5 33.5t20.5 64.5v447q0 109 -12.5 151.5t-53.5 56.5l-80 31v45l336 137h86q-4 -150 -4 -348v-520q0 -47 19.5 -66.5t74.5 -31.5l62 -15v-73l-291 10zM59 1538h355l129 -375l-94 -12z" />
    <glyph glyph-name="iacute" unicode="&#xed;" horiz-adv-x="667" 
d="M49 -10v73l60 15q57 14 77.5 33.5t20.5 64.5v447q0 109 -12.5 151.5t-53.5 56.5l-80 31v45l336 137h86q-4 -150 -4 -348v-520q0 -47 19.5 -66.5t74.5 -31.5l62 -15v-73l-291 10zM88 1163l131 375h354l-389 -387z" />
    <glyph glyph-name="icircumflex" unicode="&#xee;" horiz-adv-x="667" 
d="M-31 1161l287 389h119l291 -389l-45 -39l-302 193h-4l-292 -191zM49 -10v73l60 15q57 14 77.5 33.5t20.5 64.5v447q0 109 -12.5 151.5t-53.5 56.5l-80 31v45l336 137h86q-4 -150 -4 -348v-520q0 -47 19.5 -66.5t74.5 -31.5l62 -15v-73l-291 10z" />
    <glyph glyph-name="idieresis" unicode="&#xef;" horiz-adv-x="667" 
d="M-47 1331.5q0 67.5 47 114.5t114.5 47t114.5 -47t47 -114.5t-47 -115t-114.5 -47.5t-114.5 47.5t-47 115zM49 -10v73l60 15q57 14 77.5 33.5t20.5 64.5v447q0 109 -12.5 151.5t-53.5 56.5l-80 31v45l336 137h86q-4 -150 -4 -348v-520q0 -47 19.5 -66.5t74.5 -31.5l62 -15
v-73l-291 10zM360 1331.5q0 67.5 47.5 114.5t115 47t114.5 -47t47 -114.5t-47 -115t-114.5 -47.5t-115 47.5t-47.5 115z" />
    <glyph glyph-name="eth" unicode="&#xf0;" horiz-adv-x="1185" 
d="M72 494q0 236 141 387t344 151q133 0 217 -59q-78 164 -217 313l-188 -100l-41 80l166 86q-123 117 -236 194l57 43q168 -68 310 -170l206 109l39 -78l-168 -88q190 -158 301 -371t111 -465q0 -242 -147.5 -399.5t-384.5 -157.5q-209 0 -359.5 138.5t-150.5 386.5z
M356 520q0 -229 65.5 -345t176.5 -116q231 0 231 424q0 225 -67.5 341t-173.5 116q-232 0 -232 -420z" />
    <glyph glyph-name="ntilde" unicode="&#xf1;" horiz-adv-x="1275" 
d="M57 862v45l334 137h58l-5 -182l17 -4q35 61 119 117.5t196 56.5q158 0 246 -91t88 -257q0 -98 -2 -287.5t-2 -220.5q0 -47 20.5 -66.5t73.5 -31.5l60 -15v-73l-285 10l-285 -10v73l45 15q66 20 82.5 75.5t16.5 235.5v170q0 66 -5.5 113t-21.5 99t-55 80t-99 28
q-113 0 -147.5 -64.5t-34.5 -200.5v-438q0 -49 13.5 -67.5t62.5 -30.5l59 -15v-73l-264 10l-283 -10v73l41 15q59 20 79 36.5t20 61.5v463q0 109 -10.5 143.5t-51.5 48.5zM272 1196q23 98 87.5 179t156.5 81q49 0 158.5 -44t136.5 -44q47 0 68.5 14.5t50.5 69.5l59 -25
q-25 -102 -85 -179t-161 -77q-43 0 -146 41t-130 41q-47 0 -77 -15t-56 -64z" />
    <glyph glyph-name="ograve" unicode="&#xf2;" horiz-adv-x="1191" 
d="M72 494q0 231 147.5 384.5t390.5 153.5q92 0 178 -29.5t163 -89t123 -164t46 -237.5q0 -240 -148.5 -391.5t-385.5 -151.5q-209 0 -361.5 138.5t-152.5 386.5zM338 1538h354l129 -375l-94 -12zM360 520q0 -229 64.5 -345t175.5 -116q231 0 231 424q0 225 -67.5 341
t-173.5 116q-230 0 -230 -420z" />
    <glyph glyph-name="oacute" unicode="&#xf3;" horiz-adv-x="1191" 
d="M72 494q0 231 147.5 384.5t390.5 153.5q92 0 178 -29.5t163 -89t123 -164t46 -237.5q0 -240 -148.5 -391.5t-385.5 -151.5q-209 0 -361.5 138.5t-152.5 386.5zM352 1163l131 375h355l-389 -387zM360 520q0 -229 64.5 -345t175.5 -116q231 0 231 424q0 225 -67.5 341
t-173.5 116q-230 0 -230 -420z" />
    <glyph glyph-name="ocircumflex" unicode="&#xf4;" horiz-adv-x="1191" 
d="M72 494q0 231 147.5 384.5t390.5 153.5q92 0 178 -29.5t163 -89t123 -164t46 -237.5q0 -240 -148.5 -391.5t-385.5 -151.5q-209 0 -361.5 138.5t-152.5 386.5zM240 1161l286 389h119l291 -389l-45 -39l-301 193h-4l-293 -191zM360 520q0 -229 64.5 -345t175.5 -116
q231 0 231 424q0 225 -67.5 341t-173.5 116q-230 0 -230 -420z" />
    <glyph glyph-name="otilde" unicode="&#xf5;" horiz-adv-x="1191" 
d="M72 494q0 231 147.5 384.5t390.5 153.5q92 0 178 -29.5t163 -89t123 -164t46 -237.5q0 -240 -148.5 -391.5t-385.5 -151.5q-209 0 -361.5 138.5t-152.5 386.5zM229 1196q23 98 87.5 179t156.5 81q49 0 158.5 -44t136.5 -44q47 0 68.5 14.5t50.5 69.5l59 -25
q-25 -102 -85 -179t-161 -77q-43 0 -146 41t-130 41q-47 0 -77 -15t-56 -64zM360 520q0 -229 64.5 -345t175.5 -116q231 0 231 424q0 225 -67.5 341t-173.5 116q-230 0 -230 -420z" />
    <glyph glyph-name="odieresis" unicode="&#xf6;" horiz-adv-x="1191" 
d="M72 494q0 231 147.5 384.5t390.5 153.5q92 0 178 -29.5t163 -89t123 -164t46 -237.5q0 -240 -148.5 -391.5t-385.5 -151.5q-209 0 -361.5 138.5t-152.5 386.5zM223 1331.5q0 67.5 47 114.5t115 47t115 -47t47 -114.5t-47 -115t-115 -47.5t-115 47.5t-47 115zM360 520
q0 -229 64.5 -345t175.5 -116q231 0 231 424q0 225 -67.5 341t-173.5 116q-230 0 -230 -420zM631 1331.5q0 67.5 47 114.5t114.5 47t114.5 -47t47 -114.5t-47 -115t-114.5 -47.5t-114.5 47.5t-47 115z" />
    <glyph glyph-name="divide" unicode="&#xf7;" 
d="M106 676v129h994v-129h-994zM432 391q0 72 50 122t122 50q70 0 120 -50t50 -122q0 -70 -50 -120t-119.5 -50t-121 50t-51.5 120zM432 1090q0 70 51.5 120t121 50t119.5 -50.5t50 -119.5q0 -72 -50 -122t-120 -50q-72 0 -122 50t-50 122z" />
    <glyph glyph-name="oslash" unicode="&#xf8;" horiz-adv-x="1193" 
d="M72 494q0 231 147.5 384.5t390.5 153.5q166 0 301 -90l121 143l60 -51l-119 -143q147 -143 147 -379q0 -240 -148.5 -391.5t-385.5 -151.5q-176 0 -307 94l-138 -161l-59 51l137 160q-147 148 -147 381zM360 520q0 -123 19 -215l403 481q-66 154 -192 154
q-230 0 -230 -420zM406 215q63 -156 194 -156q231 0 231 424q0 119 -22 215z" />
    <glyph glyph-name="ugrave" unicode="&#xf9;" horiz-adv-x="1255" 
d="M35 913v76l237 8l179 15q-10 -98 -11 -574q0 -166 42 -233.5t147 -67.5q162 0 162 225v426q0 53 -16.5 78t-69.5 35l-60 12v76l252 8l176 15q-10 -252 -10 -621q0 -180 23.5 -228t134.5 -59v-71q-145 -16 -351 -49h-73l6 147l-19 4q-35 -57 -112.5 -111.5t-186.5 -54.5
q-156 0 -238.5 91.5t-82.5 256.5l2 471q0 51 -16.5 76t-67.5 37zM369 1538h354l129 -375l-94 -12z" />
    <glyph glyph-name="uacute" unicode="&#xfa;" horiz-adv-x="1255" 
d="M35 913v76l237 8l179 15q-10 -98 -11 -574q0 -166 42 -233.5t147 -67.5q162 0 162 225v426q0 53 -16.5 78t-69.5 35l-60 12v76l252 8l176 15q-10 -252 -10 -621q0 -180 23.5 -228t134.5 -59v-71q-145 -16 -351 -49h-73l6 147l-19 4q-35 -57 -112.5 -111.5t-186.5 -54.5
q-156 0 -238.5 91.5t-82.5 256.5l2 471q0 51 -16.5 76t-67.5 37zM414 1163l131 375h354l-389 -387z" />
    <glyph glyph-name="ucircumflex" unicode="&#xfb;" horiz-adv-x="1255" 
d="M35 913v76l237 8l179 15q-10 -98 -11 -574q0 -166 42 -233.5t147 -67.5q162 0 162 225v426q0 53 -16.5 78t-69.5 35l-60 12v76l252 8l176 15q-10 -252 -10 -621q0 -180 23.5 -228t134.5 -59v-71q-145 -16 -351 -49h-73l6 147l-19 4q-35 -57 -112.5 -111.5t-186.5 -54.5
q-156 0 -238.5 91.5t-82.5 256.5l2 471q0 51 -16.5 76t-67.5 37zM279 1161l286 389h119l291 -389l-45 -39l-301 193h-4l-293 -191z" />
    <glyph glyph-name="udieresis" unicode="&#xfc;" horiz-adv-x="1255" 
d="M35 913v76l237 8l179 15q-10 -98 -11 -574q0 -166 42 -233.5t147 -67.5q162 0 162 225v426q0 53 -16.5 78t-69.5 35l-60 12v76l252 8l176 15q-10 -252 -10 -621q0 -180 23.5 -228t134.5 -59v-71q-145 -16 -351 -49h-73l6 147l-19 4q-35 -57 -112.5 -111.5t-186.5 -54.5
q-156 0 -238.5 91.5t-82.5 256.5l2 471q0 51 -16.5 76t-67.5 37zM262 1331.5q0 67.5 47 114.5t115 47t115 -47t47 -114.5t-47 -115t-115 -47.5t-115 47.5t-47 115zM670 1331.5q0 67.5 47 114.5t114.5 47t114.5 -47t47 -114.5t-47 -115t-114.5 -47.5t-114.5 47.5t-47 115z
" />
    <glyph glyph-name="yacute" unicode="&#xfd;" horiz-adv-x="1126" 
d="M-14 932v76l288 -11l304 11v-76l-64 -14q-82 -18 -82 -62q0 -18 8 -41l211 -590q115 276 221 590q6 18 7 35q0 41 -93 68l-49 14v76l205 -11l201 11v-76l-41 -14q-49 -16 -66.5 -37t-38.5 -70l-567 -1370l-223 20l332 527h-97q-6 16 -63 169.5t-130 343t-126 318.5
q-20 51 -35.5 66.5t-60.5 32.5zM410 1163l131 375h354l-389 -387z" />
    <glyph glyph-name="thorn" unicode="&#xfe;" horiz-adv-x="1212" 
d="M-10 -434l59 14q55 12 73.5 31.5t18.5 66.5v1491q0 113 -10 154t-49 55l-86 31v45l346 72h72v-418q0 -166 -31 -242l18 -2q117 168 312 168q176 0 301 -134t125 -363q0 -246 -142.5 -406t-361.5 -160q-76 0 -148.5 24.5t-101.5 55.5q33 -68 33 -207v-164
q0 -47 21.5 -68.5t76.5 -29.5l88 -14v-78l-315 10l-299 -10v78zM414 221q0 -152 174 -151q135 0 199.5 114.5t64.5 302.5q0 193 -70.5 290t-197.5 97q-170 0 -170 -161v-492z" />
    <glyph glyph-name="ydieresis" unicode="&#xff;" horiz-adv-x="1126" 
d="M-14 932v76l288 -11l304 11v-76l-64 -14q-82 -18 -82 -62q0 -18 8 -41l211 -590q115 276 221 590q6 18 7 35q0 41 -93 68l-49 14v76l205 -11l201 11v-76l-41 -14q-49 -16 -66.5 -37t-38.5 -70l-567 -1370l-223 20l332 527h-97q-6 16 -63 169.5t-130 343t-126 318.5
q-20 51 -35.5 66.5t-60.5 32.5zM207 1331.5q0 67.5 47 114.5t114.5 47t114.5 -47t47 -114.5t-47 -115t-114.5 -47.5t-114.5 47.5t-47 115zM614 1331.5q0 67.5 47.5 114.5t115 47t114.5 -47t47 -114.5t-47 -115t-114.5 -47.5t-115 47.5t-47.5 115z" />
    <glyph glyph-name="OE" unicode="&#x152;" horiz-adv-x="2373" 
d="M94 690q0 152 45 280t122 216t181.5 150.5t224 91t248.5 28.5q70 0 392 -22h594q51 0 129.5 6t132.5 10l51 6q-16 -125 -35 -416h-94l-25 84q-31 104 -63.5 152.5t-87.5 48.5h-373q-25 0 -31 -7t-6 -26v-506q121 2 236 9q49 2 71.5 24.5t36.5 79.5l27 113h92l-10 -277
l10 -270h-92l-27 113q-14 57 -36.5 79.5t-71.5 24.5l-236 8v-452q0 -129 143 -129h226q86 0 143 30.5t111 132.5l84 162h88q-31 -190 -51 -444q-285 10 -402 10h-637q-233 -16 -352 -16q-360 0 -559 202.5t-199 503.5zM418 700q0 -293 150.5 -447.5t426.5 -154.5l211 -2
v1102q0 72 -22.5 103.5t-89.5 37.5q-70 4 -97 4q-579 0 -579 -643z" />
    <glyph glyph-name="oe" unicode="&#x153;" horiz-adv-x="1820" 
d="M72 494q0 231 147.5 384.5t390.5 153.5q225 0 371 -153q143 154 342 153q201 0 314.5 -113.5t113.5 -291.5v-56l-633 2v-38q0 -186 90 -290t217 -104q82 0 153 33t101 84l54 -61q-125 -227 -437 -228q-209 0 -335 142q-145 -141 -375 -142q-209 0 -361.5 138.5
t-152.5 386.5zM360 520q0 -229 64.5 -345t175.5 -116q231 0 231 424q0 225 -67.5 341t-173.5 116q-230 0 -230 -420zM1122 657l338 7v10q2 133 -30.5 201.5t-118.5 68.5q-169 0 -189 -287z" />
    <glyph glyph-name="Ydieresis" unicode="&#x178;" horiz-adv-x="1456" 
d="M-31 1354v90l361 -10l393 10v-90l-111 -21q-113 -23 -71 -100l307 -541q86 152 285 537q43 82 -76 104l-107 21v90l330 -10l207 10v-90l-92 -21q-43 -8 -66.5 -29.5t-50.5 -66.5l-383 -680q-2 -88 -2 -100q0 -63 6 -260q2 -47 19.5 -66.5t72.5 -30.5l107 -20v-90l-332 10
l-375 -10v90l105 20q55 10 72.5 30t19.5 67q4 66 4 260v90q-227 387 -416 688q-29 45 -52.5 66.5t-68.5 31.5zM367 1767.5q0 67.5 47 114.5t114.5 47t114.5 -47t47 -114.5t-47 -114.5t-114.5 -47t-114.5 47t-47 114.5zM774 1767.5q0 67.5 47 114.5t115 47t115 -47t47 -114.5
t-47 -114.5t-115 -47t-115 47t-47 114.5z" />
    <glyph glyph-name="circumflex" unicode="&#x2c6;" horiz-adv-x="849" 
d="M76 1161l286 389h119l291 -389l-45 -39l-301 193h-4l-293 -191z" />
    <glyph glyph-name="tilde" unicode="&#x2dc;" horiz-adv-x="849" 
d="M66 1196q23 98 87 179t156 81q49 0 159 -44t136 -44q47 0 68.5 14.5t50.5 69.5l59 -25q-25 -102 -85 -179t-160 -77q-43 0 -146.5 41t-130.5 41q-47 0 -76.5 -15t-56.5 -64z" />
    <glyph glyph-name="uni2000" unicode="&#x2000;" horiz-adv-x="995" 
 />
    <glyph glyph-name="uni2001" unicode="&#x2001;" horiz-adv-x="1990" 
 />
    <glyph glyph-name="uni2002" unicode="&#x2002;" horiz-adv-x="995" 
 />
    <glyph glyph-name="uni2003" unicode="&#x2003;" horiz-adv-x="1990" 
 />
    <glyph glyph-name="uni2004" unicode="&#x2004;" horiz-adv-x="663" 
 />
    <glyph glyph-name="uni2005" unicode="&#x2005;" horiz-adv-x="497" 
 />
    <glyph glyph-name="uni2006" unicode="&#x2006;" horiz-adv-x="331" 
 />
    <glyph glyph-name="uni2007" unicode="&#x2007;" horiz-adv-x="331" 
 />
    <glyph glyph-name="uni2008" unicode="&#x2008;" horiz-adv-x="247" 
 />
    <glyph glyph-name="uni2009" unicode="&#x2009;" horiz-adv-x="397" 
 />
    <glyph glyph-name="uni200A" unicode="&#x200a;" horiz-adv-x="110" 
 />
    <glyph glyph-name="uni2010" unicode="&#x2010;" horiz-adv-x="745" 
d="M125 494v172h496v-172h-496z" />
    <glyph glyph-name="uni2011" unicode="&#x2011;" horiz-adv-x="745" 
d="M125 494v172h496v-172h-496z" />
    <glyph glyph-name="figuredash" unicode="&#x2012;" horiz-adv-x="745" 
d="M125 494v172h496v-172h-496z" />
    <glyph glyph-name="endash" unicode="&#x2013;" horiz-adv-x="1482" 
d="M127 598v133h1229v-133h-1229z" />
    <glyph glyph-name="emdash" unicode="&#x2014;" horiz-adv-x="2560" 
d="M127 598v133h2306v-133h-2306z" />
    <glyph glyph-name="quoteleft" unicode="&#x2018;" horiz-adv-x="602" 
d="M80 1028q0 170 135 310.5t311 197.5l35 -61q-121 -57 -179 -136t-58 -161q0 -162 202 -220q4 -4 4 -16q-8 -66 -76.5 -130t-129.5 -64q-88 0 -166 80.5t-78 199.5z" />
    <glyph glyph-name="quoteright" unicode="&#x2019;" horiz-adv-x="636" 
d="M92 764q121 57 179.5 136t58.5 161q0 162 -203 219q-4 4 -4 16q8 66 76.5 130.5t130.5 64.5q88 0 165.5 -81t77.5 -200q0 -170 -135 -310t-311 -198z" />
    <glyph glyph-name="quotesinglbase" unicode="&#x201a;" horiz-adv-x="618" 
d="M47 -338q121 57 179.5 136t58.5 161q0 162 -203 219q-4 4 -4 17q8 66 76.5 130t130.5 64q88 0 165.5 -81t77.5 -199q0 -170 -135 -310.5t-311 -197.5z" />
    <glyph glyph-name="quotedblleft" unicode="&#x201c;" horiz-adv-x="1114" 
d="M27 1028q0 170 135 310.5t311 197.5l35 -61q-121 -57 -179.5 -136t-58.5 -161q0 -162 203 -220q4 -4 4 -16q-8 -66 -76.5 -130t-130.5 -64q-88 0 -165.5 80.5t-77.5 199.5zM569 1028q0 170 135.5 310.5t311.5 197.5l35 -61q-121 -57 -179.5 -136t-58.5 -161
q0 -162 203 -220q4 -4 4 -16q-8 -66 -77 -130t-130 -64q-88 0 -166 80.5t-78 199.5z" />
    <glyph glyph-name="quotedblright" unicode="&#x201d;" horiz-adv-x="1153" 
d="M53 764q121 57 179.5 136t58.5 161q0 162 -203 219q-4 4 -4 16q8 66 76.5 130.5t130.5 64.5q88 0 166 -81t78 -200q0 -170 -135.5 -310t-311.5 -198zM594 764q121 57 179 136t58 161q0 162 -202 219q-4 4 -4 16q8 66 76.5 130.5t129.5 64.5q88 0 166 -81t78 -200
q0 -170 -135 -310t-311 -198z" />
    <glyph glyph-name="quotedblbase" unicode="&#x201e;" horiz-adv-x="1134" 
d="M29 -338q121 57 179 136t58 161q0 162 -203 219q-4 4 -4 17q8 66 77 130t130 64q88 0 166 -81t78 -199q0 -170 -135 -310.5t-312 -197.5zM569 -338q121 57 179.5 136t58.5 161q0 162 -203 219q-4 4 -4 17q8 66 76.5 130t130.5 64q88 0 166 -81t78 -199
q0 -170 -135.5 -310.5t-311.5 -197.5z" />
    <glyph glyph-name="bullet" unicode="&#x2022;" horiz-adv-x="763" 
d="M111 710.5q0 112.5 78.5 191.5t191.5 79t191.5 -79t78.5 -191.5t-78.5 -191.5t-191.5 -79t-191.5 79t-78.5 191.5z" />
    <glyph glyph-name="ellipsis" unicode="&#x2026;" horiz-adv-x="1900" 
d="M94 166q0 80 57.5 138t139.5 58t139 -58t57 -138q0 -82 -57 -139.5t-139 -57.5t-139.5 57.5t-57.5 139.5zM754 166q0 80 57 138t139 58t139.5 -58t57.5 -138q0 -82 -57.5 -139.5t-139.5 -57.5t-139 57.5t-57 139.5zM1413 166q0 80 57.5 138t139.5 58t139 -58t57 -138
q0 -82 -57 -139.5t-139 -57.5t-139.5 57.5t-57.5 139.5z" />
    <glyph glyph-name="uni202F" unicode="&#x202f;" horiz-adv-x="397" 
 />
    <glyph glyph-name="guilsinglleft" unicode="&#x2039;" horiz-adv-x="770" 
d="M63 727l519 578h98l-262 -566v-24l262 -565h-98z" />
    <glyph glyph-name="guilsinglright" unicode="&#x203a;" horiz-adv-x="770" 
d="M90 150l260 565v24l-260 566h96l519 -578l-519 -577h-96z" />
    <glyph glyph-name="uni205F" unicode="&#x205f;" horiz-adv-x="497" 
 />
    <glyph glyph-name="Euro" unicode="&#x20ac;" 
d="M-8 526v97h133q-4 27 -4 86q0 61 6 125h-135v96h151q43 233 196 383.5t392 150.5q106 0 192.5 -25.5t120.5 -52.5l125 52l-10 -459h-84l-8 43q-35 184 -100.5 265t-212.5 81q-276 0 -320 -438h414v-96h-420q-2 -27 -2 -82q0 -47 4 -129h418v-97h-408q61 -403 359 -403
q236 0 329 254l80 -29q-35 -178 -172 -278.5t-311 -100.5q-242 0 -399.5 151.5t-192.5 405.5h-141z" />
    <glyph glyph-name="trademark" unicode="&#x2122;" horiz-adv-x="2453" 
d="M113 1180q2 90 2 274q70 -14 442 -14q371 0 438 14q0 -184 2 -274h-71l-19 75q-23 88 -82 88h-159v-628q0 -25 11 -36t38 -13l78 -11v-88l-250 4l-224 -4v88l74 11q29 4 40 14t11 35v628h-159q-59 0 -82 -88l-19 -75h-71zM1092 567v88l67 11q29 4 39 14t10 35l6 583
q0 43 -49 52l-55 10v88l199 -6l213 6q31 -102 83 -255t89 -255l37 -100q104 322 182 573v37l121 -6l290 6v-88l-71 -10q-51 -8 -49 -52l14 -583q0 -25 11.5 -36t37.5 -13l72 -11v-88l-240 4l-225 -4v88l72 11q29 4 40 14t11 35l-12 612l-244 -752h-154l-272 752l6 -612
q0 -25 11 -35t40 -14l72 -11v-88l-174 4z" />
    <glyph glyph-name="uniE000" unicode="&#xe000;" horiz-adv-x="1010" 
d="M0 1010h1010v-1010h-1010v1010z" />
    <glyph glyph-name="uniFB01" unicode="&#xfb01;" horiz-adv-x="1394" 
d="M55 879v104h164q2 154 50 270.5t128 184t174.5 100.5t198.5 33q86 0 169 -24.5t83 -84.5q0 -70 -61.5 -129t-133.5 -59q-6 0 -33.5 39t-69.5 79t-87 40q-84 0 -117 -99q-29 -86 -28 -350l356 10q184 4 276 51h86q-4 -150 -4 -348v-520q0 -47 19.5 -66.5t74.5 -31.5
l62 -15v-73l-289 10l-295 -10v73l60 15q55 12 75.5 31.5t20.5 66.5v543q0 86 -17.5 114.5t-74.5 30.5l-350 15v-691q0 -49 17 -71.5t71 -32.5l106 -21v-73l-326 10l-299 -10v73l60 15q57 14 77.5 33.5t20.5 64.5v703h-164z" />
    <glyph glyph-name="uniFB02" unicode="&#xfb02;" horiz-adv-x="1398" 
d="M55 879v104h164q4 295 165 441.5t386 146.5q184 0 313 -76l62 51h72q-8 -330 -9 -585v-785q0 -47 19.5 -67.5t75.5 -30.5l69 -15v-73l-299 10l-297 -10v73l64 15q55 12 74.5 31.5t19.5 66.5v1067q-25 78 -114 133.5t-169 55.5q-53 0 -86 -26t-48 -89.5t-20 -135
t-5 -198.5l233 14l-16 -145l-217 29v-693q0 -49 17 -71.5t71 -32.5l106 -21v-73l-360 10l-265 -10v73l60 15q57 14 77.5 33.5t20.5 64.5v703h-164z" />
    <glyph glyph-name="uniFB03" unicode="&#xfb03;" horiz-adv-x="2109" 
d="M55 879v104h164q2 229 141.5 379.5t360.5 150.5q72 0 136.5 -22.5t64.5 -65.5q0 -70 -54.5 -131t-109.5 -61q-6 0 -24.5 35t-52.5 70.5t-77 35.5q-74 0 -93 -82t-19 -276v-33h442q2 154 50 270.5t128 184t174 100.5t199 33q86 0 169 -24.5t83 -84.5q0 -70 -61.5 -129
t-133.5 -59q-6 0 -33.5 39t-69.5 79t-87 40q-84 0 -117 -99q-29 -86 -29 -350l357 10q184 4 276 51h86q-4 -150 -4 -348v-520q0 -47 19.5 -66.5t74.5 -31.5l62 -15v-73l-289 10l-295 -10v73l59 15q55 12 76 31.5t21 66.5v543q0 86 -17.5 114.5t-75.5 30.5l-350 15v-691
q0 -49 17.5 -71.5t70.5 -32.5l107 -21v-73l-326 10l-299 -10v73l60 15q57 14 77.5 33.5t20.5 64.5v703h-442v-691q0 -49 17 -71.5t71 -32.5l106 -21v-73l-340 10l-285 -10v73l60 15q57 14 77.5 33.5t20.5 64.5v703h-164z" />
    <glyph glyph-name="uniFB04" unicode="&#xfb04;" horiz-adv-x="2113" 
d="M55 879v104h164q2 229 141.5 379.5t360.5 150.5q72 0 136.5 -22.5t64.5 -65.5q0 -70 -54.5 -131t-109.5 -61q-6 0 -24.5 35t-52.5 70.5t-77 35.5q-74 0 -93 -82t-19 -276v-33h442q4 295 165 441.5t386 146.5q184 0 313 -76l62 51h71q-8 -330 -8 -585v-785
q0 -47 19.5 -67.5t74.5 -30.5l70 -15v-73l-299 10l-297 -10v73l63 15q55 12 75 31.5t20 66.5v1067q-25 78 -114 133.5t-169 55.5q-53 0 -86 -26t-48 -89.5t-20.5 -135t-5.5 -198.5l234 14l-17 -145l-217 29v-693q0 -49 17.5 -71.5t70.5 -32.5l107 -21v-73l-361 10l-264 -10
v73l60 15q57 14 77.5 33.5t20.5 64.5v703h-442v-691q0 -49 17 -71.5t71 -32.5l106 -21v-73l-340 10l-285 -10v73l60 15q57 14 77.5 33.5t20.5 64.5v703h-164z" />
    </font>
</defs>
</svg>
