<?xml version="1.0" standalone="no"?>
<!DOCTYPE svg PUBLIC "-//W3C//DTD SVG 1.1//EN" "http://www.w3.org/Graphics/SVG/1.1/DTD/svg11.dtd" >
<svg xmlns="http://www.w3.org/2000/svg" xmlns:xlink="http://www.w3.org/1999/xlink" version="1.1">
<metadata>
Created by FontForge 20170731 at Sun Dec 11 23:03:02 2011
 By Aleksey,,,
Copyright (c) 2011 by Henrik Kubel, A2/SW/HK. All rights reserved.
</metadata>
<defs>
<font id="Antwerp-LightItalic" horiz-adv-x="1208" >
  <font-face 
    font-family="Antwerp"
    font-weight="300"
    font-style="italic"
    font-stretch="normal"
    units-per-em="2048"
    panose-1="2 0 5 5 7 0 0 9 0 3"
    ascent="1536"
    descent="-512"
    x-height="1001"
    cap-height="1444"
    bbox="-414 -567 2552 1974"
    underline-thickness="40"
    underline-position="-391"
    slope="-12"
    unicode-range="U+0020-FB04"
  />
<missing-glyph horiz-adv-x="481" 
 />
    <glyph glyph-name=".notdef" horiz-adv-x="481" 
 />
    <glyph glyph-name=".null" horiz-adv-x="0" 
 />
    <glyph glyph-name="nonmarkingreturn" horiz-adv-x="682" 
 />
    <glyph glyph-name="space" unicode=" " horiz-adv-x="512" 
 />
    <glyph glyph-name="exclam" unicode="!" horiz-adv-x="634" 
d="M57 129q0 66 46.5 113t112 47t111.5 -47t46 -113t-46 -113t-111.5 -47t-112 47t-46.5 113zM281 483q68 268 122 668q4 25 9.5 72t8.5 66.5t8 45t13 41.5q37 88 129 88q57 0 86 -34.5t29 -83.5q0 -14 -2 -30t-8 -34t-10 -31.5t-15.5 -36t-15.5 -34t-18.5 -39t-18.5 -35.5
q-137 -287 -258 -635z" />
    <glyph glyph-name="quotedbl" unicode="&#x22;" horiz-adv-x="862" 
d="M176 829l219 635h248l-395 -635h-72zM575 829l220 635h247l-395 -635h-72z" />
    <glyph glyph-name="numbersign" unicode="#" 
d="M121 512l16 80h295l57 282h-294l14 80h295l96 480h78l-96 -480h272l96 480h82l-96 -480h291l-15 -80h-290l-58 -282h291l-16 -80h-291l-100 -512h-82l100 512h-272l-101 -512h-78l101 512h-295zM510 592h272l58 282h-273z" />
    <glyph glyph-name="dollar" unicode="$" 
d="M37 59q88 168 147 404l105 24l-31 -337q37 -43 131 -68l199 625q-78 72 -119 115.5t-80 118.5t-39 149q0 176 136.5 274t342.5 100l80 248h76l-80 -252q96 -8 191.5 -36.5t132.5 -55.5q-72 -131 -123 -324h-82l-6 295q-63 25 -141 35l-162 -508q12 -12 59 -57t64.5 -62.5
t55.5 -58.5t54.5 -68.5t39 -67.5t30.5 -80t8 -83q0 -205 -159.5 -312.5t-383.5 -107.5q-37 0 -55 2l-98 -313h-76l100 317q-180 21 -317 84zM459 68q43 -6 84 -7q127 0 209 76t82 187q0 154 -187 327zM547 1159q0 -109 110 -233l146 452q-111 -4 -183.5 -58.5t-72.5 -160.5z
" />
    <glyph glyph-name="percent" unicode="%" horiz-adv-x="1550" 
d="M25 37l1589 1421l45 -51l-1591 -1430zM274 1087q41 158 136.5 261.5t220.5 103.5q127 0 185 -106.5t18 -258.5q-43 -158 -138.5 -262t-218.5 -104q-127 0 -185.5 107t-17.5 259zM426 1087q-84 -299 49 -299q74 0 121 81t86 218q80 301 -47 302q-129 -1 -209 -302z
M850 338q43 158 138 261t220 103q127 0 186.5 -107.5t18.5 -256.5q-43 -160 -139 -263.5t-219 -103.5q-129 0 -187.5 107.5t-17.5 259.5zM1004 338q-84 -299 49 -299q74 0 122 82t85 217q80 299 -48 299t-208 -299z" />
    <glyph glyph-name="ampersand" unicode="&#x26;" horiz-adv-x="2115" 
d="M90 403q0 227 107.5 443.5t272.5 347.5t331 131q74 0 128 -41t54 -110.5t-45 -136t-133 -97.5q293 12 340 21l76 270h176l-99 -299l234 20l-64 -92l-186 8l-248 -759l8 -17q156 31 293 189l41 -37q-47 -96 -191.5 -185.5t-264.5 -89.5q-33 0 -55.5 15.5t-22.5 38.5
q0 27 39 148.5t117.5 353t113.5 335.5h-721q-86 -180 -86 -395q0 -350 202 -542.5t494 -192.5q172 0 336 68.5t299.5 194.5t218 330.5t82.5 452.5q0 229 -108.5 422t-253.5 193q-55 0 -93 27.5t-38 80.5q0 51 33.5 81t83.5 30q193 0 332 -248t139 -559q0 -223 -73 -435
t-206 -383t-345 -275.5t-468 -104.5q-207 0 -373 65.5t-268 177t-155.5 253.5t-53.5 302zM418 932h168q139 0 213.5 71.5t74.5 155.5q0 47 -27.5 77t-82.5 30q-86 0 -179 -94.5t-167 -239.5z" />
    <glyph glyph-name="quotesingle" unicode="'" horiz-adv-x="462" 
d="M176 829l219 635h248l-395 -635h-72z" />
    <glyph glyph-name="parenleft" unicode="(" horiz-adv-x="634" 
d="M102 369q0 373 203 692t557 516l43 -45q-287 -182 -467 -561t-180 -748q0 -348 133 -506l-47 -43q-115 102 -178.5 289t-63.5 406z" />
    <glyph glyph-name="parenright" unicode=")" horiz-adv-x="632" 
d="M-193 -281q287 182 467.5 552t180.5 737q0 150 -34 297t-99 229l47 43q115 -102 178 -288.5t63 -405.5q0 -373 -202.5 -692.5t-557.5 -516.5z" />
    <glyph glyph-name="asterisk" unicode="*" 
d="M229 901l76 107l397 -4l-307 249l8 133l142 9l192 -355l68 400l123 51l59 -119l-207 -346l379 143l101 -96l-76 -110l-408 14l320 -254l-11 -135l-139 -8l-198 358l-64 -401l-123 -54l-61 119l205 348l-375 -151z" />
    <glyph glyph-name="plus" unicode="+" 
d="M213 692l25 82h399l127 440h98l-127 -440h402l-25 -82h-401l-127 -442h-99l127 442h-399z" />
    <glyph glyph-name="comma" unicode="," horiz-adv-x="565" 
d="M-129 -256q156 55 229.5 129t73.5 150q0 92 -147 137q0 47 48 108.5t93 61.5q63 0 130 -58.5t67 -146.5q0 -86 -43 -158.5t-120 -125t-144.5 -85t-153.5 -63.5z" />
    <glyph glyph-name="hyphen" unicode="-" horiz-adv-x="763" 
d="M147 494l50 141h471l-50 -141h-471z" />
    <glyph glyph-name="period" unicode="." horiz-adv-x="546" 
d="M29 129q0 66 46 113t111.5 47t111.5 -47t46 -113t-46 -113t-111.5 -47t-111.5 47t-46 113z" />
    <glyph glyph-name="slash" unicode="/" horiz-adv-x="929" 
d="M-133 -238l1263 1946l68 -39l-1266 -1943z" />
    <glyph glyph-name="zero" unicode="0" 
d="M150 420q0 150 54 327t144 332.5t222 260t272 104.5q172 0 254 -128t82 -321q0 -244 -95.5 -482.5t-256 -391t-332.5 -152.5t-258 126t-86 325zM334 285q0 -236 180 -236q213 0 397 604q100 326 101 490q0 221 -168 221q-229 0 -412 -584q-98 -307 -98 -495z" />
    <glyph glyph-name="one" unicode="1" 
d="M162 -14l22 86l146 24q102 16 127 92q43 129 172 557.5t141 487.5q14 66 -6 65q-41 -2 -295 -51l27 94l444 125l90 -30q-39 -137 -176 -577.5t-195 -670.5q-20 -82 43 -92l189 -24l-21 -82l-374 10z" />
    <glyph glyph-name="two" unicode="2" 
d="M12 -6l33 139q524 385 664 508q129 115 197.5 223.5t68.5 241.5q0 117 -67.5 186.5t-192.5 69.5q-49 0 -111.5 -25.5t-64.5 -64.5v-234l-47 -32q-76 6 -127.5 57t-51.5 115q0 96 120 185t323 89q184 0 315 -88t131 -250q0 -150 -94 -261.5t-311 -266.5l-566 -406l791 17
l-88 -195q-352 -2 -547 -2q-338 0 -375 -6z" />
    <glyph glyph-name="three" unicode="3" 
d="M57 229q0 76 57.5 125t135.5 49q20 0 31 -2l34 -51q-53 -182 -53 -205q0 -43 67.5 -70.5t131.5 -27.5q176 0 269 105.5t93 242.5t-107.5 229.5t-312.5 110.5l35 121q68 -6 125 -6q168 0 266.5 82t98.5 186q0 92 -62.5 158.5t-187.5 66.5q-139 0 -287 -92l-35 70
q178 135 396 135q176 0 279.5 -90t103.5 -211q0 -154 -122 -250t-294 -96q129 -31 221 -132.5t92 -242.5q0 -207 -155.5 -336t-397.5 -129q-170 0 -296 69.5t-126 190.5z" />
    <glyph glyph-name="four" unicode="4" 
d="M43 406l29 100q31 39 202.5 220t382.5 401.5t291 306.5h221q-848 -791 -985 -926h531l16 57q51 174 60 256l231 -8l-111 -307h224l-37 -100l-217 2l-66 -232q-16 -47 -6 -69.5t59 -32.5l90 -19l-28 -71l-277 12l-278 -10l24 75l90 19q57 10 84 30.5t45 67.5l64 225z" />
    <glyph glyph-name="five" unicode="5" 
d="M88 227q0 76 57.5 126t135.5 50q20 0 30 -2l35 -49q-53 -182 -53 -207q0 -43 61.5 -71.5t143.5 -28.5q162 0 260 101.5t98 238.5q0 184 -148.5 298t-408.5 144l221 607l744 20l-70 -207q-70 -10 -260 -10l-404 4l-86 -244q115 -18 216.5 -56t189.5 -101.5t139 -160.5
t51 -220q0 -207 -155.5 -348.5t-374.5 -141.5q-184 0 -303 70.5t-119 187.5z" />
    <glyph glyph-name="six" unicode="6" 
d="M139 485q0 209 102.5 396.5t266.5 316.5t363.5 208t398.5 89l8 -72q-221 -37 -455.5 -184t-421.5 -416l23 -12q109 119 287 119q190 0 294.5 -123t104.5 -299q0 -207 -146.5 -373t-369.5 -166t-339 141.5t-116 374.5zM334 383q0 -131 57.5 -229.5t188.5 -98.5
q141 0 230 140.5t89 322.5q0 129 -59.5 222.5t-184.5 93.5q-150 0 -235.5 -135.5t-85.5 -315.5z" />
    <glyph glyph-name="seven" unicode="7" 
d="M223 8q143 231 360.5 509t399.5 491t207 247l-2 7q-164 -57 -408 -58h-442l45 215l920 -2v-139q-68 -96 -175.5 -253t-332 -510t-322.5 -552z" />
    <glyph glyph-name="eight" unicode="8" 
d="M90 362q0 297 422 410q-195 139 -195 326q0 168 135.5 263t305.5 95q193 0 305.5 -91t112.5 -241q0 -123 -90.5 -215t-274.5 -125q133 -96 193.5 -191t60.5 -218q0 -160 -135 -283t-385 -123q-182 0 -318.5 105.5t-136.5 287.5zM281 346q0 -127 87 -209t228 -82
q115 0 196.5 76t81.5 188q0 207 -307 400q-123 -43 -204.5 -147.5t-81.5 -225.5zM510 1139q0 -84 58.5 -156t179.5 -154q129 31 199.5 112t70.5 185q0 98 -67.5 173t-188.5 75q-106 0 -179 -63t-73 -172z" />
    <glyph glyph-name="nine" unicode="9" 
d="M57 2q221 37 456 184.5t421 415.5l-23 12q-109 -119 -286 -118q-190 0 -295 122.5t-105 299.5q0 207 146.5 372.5t370 165.5t339 -141t115.5 -375q0 -209 -102.5 -396.5t-266 -316.5t-363.5 -207.5t-398 -89.5zM436 907q0 -129 59.5 -222t184.5 -93q150 0 235.5 135
t85.5 315q0 131 -57 229.5t-188 98.5q-141 0 -230.5 -140.5t-89.5 -322.5z" />
    <glyph glyph-name="colon" unicode=":" horiz-adv-x="614" 
d="M43 129q0 66 46 113t111.5 47t111.5 -47t46 -113t-46 -113t-111.5 -47t-111.5 47t-46 113zM248 806.5q0 65.5 46 113t111.5 47.5t111.5 -47.5t46 -113t-46 -112.5t-111.5 -47t-111.5 47t-46 112.5z" />
    <glyph glyph-name="semicolon" unicode=";" horiz-adv-x="610" 
d="M-119 -256q156 55 229.5 129t73.5 150q0 92 -147 137q0 47 48 108.5t93 61.5q63 0 130 -58.5t67 -146.5q0 -86 -43 -158.5t-120 -125t-144.5 -85t-153.5 -63.5zM254 806.5q0 65.5 46 113t111.5 47.5t111.5 -47.5t46 -113t-46 -112.5t-111.5 -47t-111.5 47t-46 112.5z" />
    <glyph glyph-name="less" unicode="&#x3c;" 
d="M154 672l45 125l1032 374l-33 -98l-942 -336l-10 -26l706 -326l-32 -88z" />
    <glyph glyph-name="equal" unicode="=" 
d="M156 512l22 80h899l-22 -80h-899zM260 874l23 80h899l-23 -80h-899z" />
    <glyph glyph-name="greater" unicode="&#x3e;" 
d="M117 297l33 98l944 336l10 27l-707 336l31 77l768 -374l-45 -125z" />
    <glyph glyph-name="question" unicode="?" horiz-adv-x="890" 
d="M178 129q0 66 46 113t111.5 47t112 -47t46.5 -113t-46.5 -113t-112 -47t-111.5 47t-46 113zM297 1165q0 113 97.5 206t246.5 93q168 0 250 -92t82 -198q0 -111 -56.5 -196t-136.5 -136t-159.5 -91t-136 -84t-56.5 -94q0 -33 21.5 -54t56.5 -21q76 0 98 94l45 -17
q-10 -74 -59 -109.5t-108.5 -35.5t-107.5 42t-48 112q0 72 46 128t112.5 96t133 81t112.5 103.5t46 142.5q0 92 -60.5 147t-148.5 55q-94 0 -153.5 -58t-59.5 -136q33 33 84 33q39 0 62.5 -27t23.5 -62q0 -39 -25.5 -65.5t-72.5 -26.5q-57 0 -93 48t-36 122z" />
    <glyph glyph-name="at" unicode="@" horiz-adv-x="2076" 
d="M111 408q0 186 74.5 370.5t207.5 334t340 242.5t449 93q377 0 600 -214t223 -519q0 -322 -219 -534t-506 -212q-102 0 -102 82q0 61 157 461l-12 10q-322 -553 -545 -553q-152 0 -151 176q0 100 47 243.5t122.5 282t188.5 234.5t227 96q135 0 236 -112l47 84
q41 25 90 24.5t64 -10.5q-164 -494 -297 -915l6 -13q254 37 399.5 226.5t145.5 425.5q0 299 -209 474t-504 175q-160 0 -312.5 -60.5t-276.5 -171t-199.5 -286.5t-75.5 -391q0 -164 52 -311.5t152.5 -265.5t263 -186.5t367.5 -68.5q360 0 584 150l33 -70
q-322 -207 -697 -207q-256 0 -473 104.5t-357 316.5t-140 495zM815 139q0 -18 12.5 -33.5t32.5 -15.5q55 0 170 125t220.5 289t142.5 272q-14 68 -58.5 114t-93.5 46q-80 0 -161 -100.5t-137 -235.5t-92 -265t-36 -196z" />
    <glyph glyph-name="A" unicode="A" horiz-adv-x="1499" 
d="M-172 -10l25 73l104 21q51 8 81 28.5t64 67.5l940 1268l160 39q8 -1036 21 -1305q2 -47 16 -68.5t57 -29.5l93 -21l-25 -73l-305 10l-316 -10l25 73l115 21q63 12 93 33.5t32 64.5l-2 414h-480l-288 -414q-21 -29 -22 -50q0 -36 63 -48l120 -21l-26 -73l-336 10zM588 686
h420l-2 584z" />
    <glyph glyph-name="B" unicode="B" horiz-adv-x="1449" 
d="M-51 -10l20 73l111 21q57 10 86 31.5t45 66.5q61 195 164 533q45 150 83 284t52 193l14 57q4 22 5 39q0 21 -8 32q-13 19 -64 30l-103 20l25 74l301 -10q166 8 330 8q158 0 272.5 -86t114.5 -219q0 -166 -116 -271.5t-298 -132.5l-2 -14q119 -33 201 -121t82 -211
q0 -172 -143.5 -288.5t-368.5 -116.5q-94 0 -496 18zM428 223q-10 -34 -10 -60q0 -48 34 -70q52 -34 164 -34h68q166 0 267.5 89.5t101.5 244.5q0 133 -85 222.5t-229 89.5h-176zM596 813q129 -45 240 -45q156 0 263 93t107 255q0 115 -85 181.5t-206 66.5q-43 0 -72.5 -1
t-40.5 -2t-25.5 -3t-28.5 -2z" />
    <glyph glyph-name="C" unicode="C" horiz-adv-x="1581" 
d="M178 627q0 225 111.5 415.5t316.5 306t459 115.5q264 0 491 -108l170 26l-149 -415l-88 -6l2 143q2 139 -121 205.5t-295 66.5q-309 0 -501.5 -200.5t-192.5 -503.5q0 -100 37 -200.5t107.5 -191t191.5 -145.5t272 -55q72 0 152 22l186 304l72 -9q-43 -190 -70 -352
q-268 -76 -465 -76q-293 0 -489.5 180.5t-196.5 477.5z" />
    <glyph glyph-name="D" unicode="D" horiz-adv-x="1765" 
d="M-49 -10l22 73l111 21q57 10 84 30.5t45 67.5q61 195 164 533q102 338 151 534q6 23 6 40q0 19 -8 30q-14 20 -67 31l-144 20l25 74l344 -10q256 20 373 20q283 0 471 -172t188 -457q0 -238 -125 -432t-339 -305t-468 -111q-39 0 -524 23zM424 223q-9 -29 -9 -52
q0 -48 39 -70q56 -32 193 -33h117q344 0 537.5 203.5t193.5 529.5q0 246 -145.5 403.5t-403.5 157.5q-37 0 -82 1t-65 1q-25 0 -32 -7t-13 -26z" />
    <glyph glyph-name="E" unicode="E" horiz-adv-x="1466" 
d="M-49 -10l20 73l113 21q57 10 85 31.5t42 66.5q63 195 166 533q102 338 151 534q4 22 5 39q0 21 -8 32q-13 19 -66 30l-103 20l25 74l303 -10h483l326 22q-53 -125 -160 -416h-73l6 101q1 24 1 44q0 69 -16 107q-20 49 -80 49h-378q-33 0 -43 -32l-166 -537q121 2 241 8
q53 4 83 25.5t61 79.5l57 112h70l-84 -282l-58 -250h-69l6 117q1 11 1 20q0 41 -14 57q-17 20 -69 23l-250 8l-131 -467q-8 -29 -8 -51q0 -30 14 -47q25 -31 98 -31h353q86 0 149.5 31t147.5 133l145 176h70l-203 -444q-266 10 -385 10h-549z" />
    <glyph glyph-name="F" unicode="F" horiz-adv-x="1355" 
d="M-49 -10l20 73l113 21q57 10 85 31.5t44 66.5q61 195 164 533q45 150 83 284t52 193l14 57q6 25 6 42q0 19 -7 29q-13 19 -66 30l-103 20l25 74l303 -10h543l325 22q-53 -125 -157 -416h-76l6 101q1 25 2 46q0 68 -15 105q-19 49 -79 49h-442q-16 0 -24.5 -4t-11.5 -10
t-7 -18l-175 -578q240 2 357 8q53 4 82.5 25.5t60.5 79.5l57 112h70l-84 -282l-57 -250h-70l6 117q1 11 1 20q0 41 -14 57q-17 20 -69 23l-366 8l-131 -467q-7 -22 -7 -38q0 -17 8 -28q15 -22 68 -32l123 -21l-20 -73l-328 10z" />
    <glyph glyph-name="G" unicode="G" horiz-adv-x="1710" 
d="M178 627q0 225 111.5 415.5t316.5 306t459 115.5q264 0 491 -108l170 26l-149 -415l-88 -6l2 143q2 139 -121 205.5t-295 66.5q-309 0 -501.5 -200.5t-192.5 -503.5q0 -100 37 -200.5t107.5 -191t191.5 -145.5t272 -55q41 0 93.5 7t84.5 13l31 6q41 131 90 330q7 24 7 42
q0 50 -50 57l-217 24l29 80l344 -14l297 16l-33 -82l-80 -10q-51 -8 -69.5 -27.5t-34.5 -72.5q-70 -236 -97 -355q-72 -55 -223 -90t-297 -35q-293 0 -489.5 180.5t-196.5 477.5z" />
    <glyph glyph-name="H" unicode="H" horiz-adv-x="1804" 
d="M-49 -10l22 73l113 21q55 10 82 30.5t45 67.5q61 195 164 533q102 338 151 534q4 22 5 39q0 21 -8 32q-13 19 -64 30l-125 20l26 74l322 -10l313 10l-24 -74l-115 -20q-59 -10 -82.5 -28.5t-46.5 -72.5q-55 -176 -145 -473h800l134 473q7 27 7 45q0 17 -6 26
q-13 19 -65 30l-104 20l26 74l299 -10l314 10l-25 -74l-113 -20q-59 -10 -84.5 -30t-46.5 -71q-59 -197 -161 -534q-102 -338 -154 -533q-7 -23 -7 -39.5t7 -26.5q14 -22 68 -32l124 -21l-24 -73l-322 10l-311 -10l23 73l112 21q57 10 85 30.5t44 67.5q61 184 154 504h-801
l-141 -504q-9 -24 -9 -41q0 -15 7 -25q14 -22 65 -32l148 -21l-25 -73l-342 10z" />
    <glyph glyph-name="I" unicode="I" horiz-adv-x="811" 
d="M-49 -10l22 73l111 21q57 10 84 30.5t45 67.5q61 195 164 533l151 534q6 24 6 41q0 20 -8 31q-14 20 -65 29l-125 20l26 74l322 -10l313 10l-24 -74l-115 -20q-59 -10 -82.5 -28.5t-46.5 -72.5q-61 -197 -164 -534q-45 -150 -83 -283t-52 -190l-14 -60q-7 -23 -8 -40
q0 -16 7 -27q13 -23 64 -31l127 -21l-24 -73l-322 10z" />
    <glyph glyph-name="J" unicode="J" horiz-adv-x="1353" 
d="M131 -203q0 49 32 84t85 35q43 0 72.5 -30.5t29.5 -75.5q0 -43 -27.5 -71t-74.5 -32q8 -33 48 -52.5t85 -19.5q133 0 201 121q47 82 100 230.5t124 362.5t118 337h-285l31 90h284q43 135 119 260t144 178l-3 17q-104 -41 -239 -41q-94 0 -272.5 39t-233.5 39
q-74 0 -133.5 -52.5t-61.5 -113.5q29 29 76 28q35 0 63.5 -24.5t28.5 -54.5q0 -45 -29.5 -71t-64.5 -26q-57 0 -95 49.5t-38 122.5q0 57 18.5 113.5t57.5 108t108.5 84t159.5 32.5q129 0 336 -80.5t307 -93.5q0 213 139 213q45 0 77 -31.5t32 -74.5q0 -96 -133 -144
q-72 -111 -96.5 -178t-87.5 -299h235l-27 -90h-233q-27 -84 -105.5 -350t-113.5 -359q-33 -86 -68 -149.5t-90 -124.5t-134 -94t-177 -33q-115 0 -202 65.5t-87 155.5z" />
    <glyph glyph-name="K" unicode="K" horiz-adv-x="1589" 
d="M-49 -10l24 73l111 21q55 10 83 31.5t44 66.5q61 195 164 533q102 338 151 534q4 22 5 39q0 21 -8 32q-13 19 -64 30l-123 20l24 74l324 -10l313 10l-24 -74l-115 -20q-59 -10 -83.5 -30t-45.5 -71q-55 -176 -147 -473h229q184 160 467 453q40 43 40 71q0 37 -67 50
l-100 20l27 74l301 -10l276 10l-26 -74l-99 -22q-55 -12 -108.5 -46t-157.5 -128q-121 -111 -313.5 -282t-198.5 -177l369 -520q45 -63 107.5 -95t174.5 -41l-41 -67q-41 2 -93 4t-78.5 3t-59.5 3t-49.5 5t-36 8t-28.5 12.5t-19 16.5t-19 24q-129 211 -413 618h-111
l-141 -504q-7 -23 -7 -39.5t7 -27.5q14 -23 65 -31l125 -21l-22 -73l-322 10z" />
    <glyph glyph-name="L" unicode="L" horiz-adv-x="1325" 
d="M-49 -10l24 73l109 21q57 10 85 31.5t44 66.5q61 195 164 533q102 338 151 534q4 22 5 39q0 21 -8 32q-13 19 -64 30l-123 20l24 74l324 -10l313 10l-24 -74l-115 -20q-59 -10 -83.5 -30t-45.5 -71q-61 -197 -164 -534l-145 -506q-9 -28 -9 -48q0 -27 15 -41
q27 -26 107 -26h225q86 0 149.5 31t147.5 133l147 176h68l-180 -444q-285 10 -404 10h-426z" />
    <glyph glyph-name="M" unicode="M" horiz-adv-x="2191" 
d="M-115 -10l25 73l110 21q55 10 80 29.5t47 68.5q84 180 204 447.5t198 443.5l76 176q9 26 8 45q0 16 -6 25q-14 20 -66 31l-115 20l27 74l281 -10l172 10l92 -1192l794 1110q27 43 27 82l178 -10l316 10l-27 -74l-111 -20q-61 -10 -88.5 -31t-42.5 -70
q-152 -608 -249 -1067q-8 -24 -9 -42q0 -16 8 -26q15 -22 68 -30l139 -21l-22 -73l-350 10l-314 -10l23 73l115 21q59 10 86.5 30.5t42.5 67.5q49 162 117.5 441.5t111.5 478.5l45 198l-936 -1312h-90q-14 154 -50 612.5t-61 695.5q-352 -840 -463 -1114q-9 -25 -8 -42
q0 -15 6 -25q14 -20 70 -31l141 -21l-22 -73l-326 10z" />
    <glyph glyph-name="N" unicode="N" horiz-adv-x="1703" 
d="M-61 -10l22 73l113 21q57 10 83.5 30.5t43.5 67.5q172 518 334 1067q7 24 7 43q0 17 -6 27q-13 23 -65 31l-119 20l25 74l274 -10l164 10q14 -90 37 -144l436 -985q111 434 232 934q6 24 6 41q0 18 -7 29q-13 20 -65 31l-104 20l26 74l264 -10l269 10l-25 -74l-115 -20
q-61 -10 -87.5 -31t-41.5 -70q-145 -543 -360 -1259h-74q-152 365 -295 686t-211 461l-65 139q-231 -823 -307 -1094q-7 -24 -8 -41q0 -16 7 -26q13 -20 66 -31l146 -21l-25 -73l-324 10z" />
    <glyph glyph-name="O" unicode="O" horiz-adv-x="1677" 
d="M164 567q0 231 116.5 437t324.5 333t454 127q242 0 414 -160.5t172 -437.5q0 -231 -117 -437t-323 -333t-447 -127q-244 0 -419 161t-175 437zM367 522q0 -223 123.5 -339.5t308.5 -116.5q170 0 303 92t203.5 230t105.5 273.5t35 249.5q0 223 -126 340t-310 117
q-137 0 -251 -62.5t-184.5 -156.5t-119.5 -212t-68.5 -222.5t-19.5 -192.5z" />
    <glyph glyph-name="P" unicode="P" horiz-adv-x="1370" 
d="M-49 -10l22 73l111 21q57 10 84 30.5t45 67.5q61 195 164 533l151 534q6 24 6 41q0 20 -8 31q-14 20 -65 29l-125 20l26 74l406 -6q78 18 207 18q221 0 345 -122t124 -304q0 -205 -133 -333t-320 -128q-135 0 -215 60.5t-80 140.5q0 35 24.5 59.5t59.5 24.5
q29 0 49.5 -19.5t20.5 -48.5q0 -33 -22.5 -56t-51.5 -32q55 -41 150 -41q135 0 228 96.5t93 272.5q0 92 -34.5 161.5t-90 105.5t-112 53.5t-111.5 17.5h-92q-45 0 -66.5 -45t-83.5 -270q-18 -70 -30 -111l-64 -223l-147 -533q-7 -23 -7 -39.5t7 -27.5q14 -23 65 -31l127 -21
l-24 -73l-324 10z" />
    <glyph glyph-name="Q" unicode="Q" horiz-adv-x="1562" 
d="M119 152q0 78 67.5 128t188.5 50q233 0 481 -191q215 104 350 284.5t135 428.5q0 258 -130 395t-330 137q-199 0 -334 -132t-135 -332q0 -164 91 -268.5t234 -104.5q74 0 138.5 45t64.5 115q0 53 -25.5 84.5t-62.5 45t-73 27t-61.5 44t-25.5 81.5q0 39 33 73t82 34
q96 0 160.5 -86t64.5 -211q0 -164 -111.5 -250t-263.5 -86q-170 0 -301 114.5t-131 319.5q0 238 181.5 402.5t496.5 164.5q258 0 450.5 -163.5t192.5 -440.5q0 -139 -63.5 -269t-166 -225.5t-203.5 -162t-202 -109.5q63 -41 176 -123t184.5 -130t168 -102t186.5 -81t178 -27
q94 0 94 72q0 14 -17 61.5t-17 75.5q0 78 80 78q41 0 68.5 -30.5t27.5 -75.5q0 -115 -123 -207t-291 -92q-100 0 -191.5 29.5t-178.5 92t-147 115.5t-155.5 149.5t-148.5 143.5q-72 -39 -187.5 -67.5t-214.5 -28.5q-121 0 -202.5 51.5t-81.5 153.5zM279 154q0 -66 57 -100
t137 -34q74 0 154 24t125 50q-68 78 -164 126t-174 48q-53 0 -94 -28.5t-41 -85.5z" />
    <glyph glyph-name="R" unicode="R" horiz-adv-x="1517" 
d="M-49 -10l22 73l113 21q55 10 82 30.5t45 67.5q61 195 164 533q102 338 151 534q4 22 5 39q0 21 -8 33q-13 20 -64 29l-125 20l26 74l412 -6q109 18 236 18q147 0 264 -99.5t117 -246.5q0 -162 -125 -283.5t-402 -146.5l346 -485q45 -63 107.5 -95t175.5 -41l-41 -67
q-41 2 -93 4t-79 3t-59.5 3t-48 5t-35 8t-29.5 12.5t-20.5 16.5t-18.5 24q-43 70 -189.5 284.5t-215.5 311.5h-113q-72 -242 -139 -482q-4 -18 -4 -32q0 -21 9 -34q15 -22 66 -32l97 -21l-21 -73l-299 10zM580 768q111 -31 233 -31q147 0 254 98.5t107 251.5q0 133 -79 205
t-206 72h-98q-23 0 -29 -7t-12 -26z" />
    <glyph glyph-name="S" unicode="S" horiz-adv-x="1150" 
d="M23 59q88 168 147 404l104 24l-32 -337q39 -41 120.5 -65t165.5 -24q129 0 210 77t81 188q0 86 -52 166.5t-127 146.5t-148.5 131.5t-126 148t-52.5 171.5q0 178 139.5 276t348.5 98q106 0 226 -31.5t165 -64.5q-70 -131 -123 -324h-82l-6 295q-98 39 -199 39
q-117 0 -194.5 -55t-77.5 -168q0 -76 51 -150.5t125 -139t147.5 -131t125 -157t51.5 -190.5q0 -139 -82 -236.5t-201 -139.5t-258 -42q-245 0 -446 90z" />
    <glyph glyph-name="T" unicode="T" horiz-adv-x="1468" 
d="M211 1130q0 55 21.5 111.5t65.5 110t123 86t179 32.5q117 0 463 -71.5t450 -71.5q68 0 94.5 22.5t26.5 67.5q0 31 -15 86.5t-15 75.5q0 14 13 28.5t38 14.5q47 0 77.5 -33t30.5 -104q0 -115 -115.5 -195t-322.5 -80q-82 0 -207 17l-182 -555q-100 -307 -154 -490
q-10 -27 -9 -45q0 -13 4 -22q11 -23 61 -31l147 -21l-24 -73l-347 10l-309 -10l23 73l110 21q57 10 84 30.5t45 67.5q166 428 363 1075q-299 45 -438 46q-92 0 -152.5 -60.5t-60.5 -152.5q33 47 92 47q45 0 76.5 -31t31.5 -74q0 -49 -34.5 -81.5t-82.5 -32.5q-61 0 -106 54
t-45 158z" />
    <glyph glyph-name="U" unicode="U" horiz-adv-x="1734" 
d="M272 512l220 737q7 23 6 40q0 19 -9 30q-16 20 -67 31l-123 20l25 74l323 -10l311 10l-24 -74l-111 -20q-61 -10 -87.5 -31t-41.5 -70l-219 -733q-20 -77 -20 -140q0 -33 6 -62q16 -83 76.5 -135t135.5 -75.5t161 -23.5q125 0 219 39t155.5 114.5t97 151.5t72.5 184
q106 330 197 680q6 23 6 40q0 19 -8 30q-14 20 -66 31l-123 20l25 74l285 -10l262 10l-23 -74l-116 -20q-59 -10 -86 -31t-41 -70l-211 -698q-88 -297 -247 -439.5t-462 -142.5q-285 0 -429 147q-95 96 -95 236q0 74 26 160z" />
    <glyph glyph-name="V" unicode="V" horiz-adv-x="1490" 
d="M244 1370l26 74l289 -10l328 10l-27 -74l-121 -20q-61 -10 -89.5 -33t-28.5 -66l-23 -1097l780 1097q19 25 20 44q0 38 -75 55l-96 20l28 74l330 -10l215 10l-26 -74l-113 -20q-82 -14 -143 -97l-951 -1265l-172 -21q4 72 7.5 188.5t9.5 473.5q2 134 2 254q0 202 -6 368
q-2 47 -17.5 68.5t-56.5 30.5z" />
    <glyph glyph-name="W" unicode="W" horiz-adv-x="2246" 
d="M244 1370l28 74l287 -10l330 10l-27 -74l-121 -20q-119 -20 -120 -99q-14 -442 -48 -1099l627 825l2 274q0 47 -14 68.5t-58 30.5l-110 20l27 74l327 -8l338 8l-29 -74l-131 -20q-66 -10 -103.5 -54.5t-43.5 -146.5q-14 -272 -27 -991l756 1093q18 26 18 45q0 40 -73 54
l-119 20l27 74l350 -10l215 10l-27 -74l-108 -20q-49 -8 -81 -30t-67 -67q-641 -856 -926 -1265l-174 -21q16 641 29 887q-434 -582 -657 -866l-174 -21q7 169 20.5 466.5t20 485t6.5 336.5q0 78 -78 95z" />
    <glyph glyph-name="X" unicode="X" horiz-adv-x="1388" 
d="M-150 -10l29 73l96 21q72 14 152 90q287 276 559 553l-156 524q-14 45 -37.5 66.5t-64.5 32.5l-127 20l29 74l325 -10l310 10l-31 -74l-121 -20q-49 -8 -68 -41q-11 -20 -11 -44q0 -16 5 -34q47 -176 101 -369q193 190 350 369q53 55 52 85q0 25 -36 34l-96 20l29 74
l317 -10l189 10l-31 -74l-101 -20q-82 -16 -163 -99q-291 -268 -478 -460q72 -287 175 -617q12 -29 18 -40t24.5 -28.5t43.5 -21.5l122 -21l-28 -73l-287 10l-311 -10l28 73l107 21q82 15 82 70q0 12 -4 26l-133 469q-215 -221 -451 -469q-29 -27 -39 -45t-2 -31.5t41 -19.5
l141 -21l-28 -73l-240 10z" />
    <glyph glyph-name="Y" unicode="Y" horiz-adv-x="1650" 
d="M219 1309q25 72 102.5 113.5t178.5 41.5q102 0 175 -44t112.5 -119.5t57 -163.5t17.5 -193q0 -150 -33 -309l29 -6q334 836 758 835q102 0 165.5 -56t63.5 -136q0 -57 -43 -113.5t-119 -87.5l-71 8q80 49 80 121q0 51 -32 83t-89 32q-131 0 -280.5 -149.5t-261 -348.5
t-191.5 -411q-68 -186 -68 -271q0 -27 12.5 -36t48.5 -15l125 -21l-24 -73l-285 10l-358 -10l22 73l121 21q63 10 92 30.5t45 67.5q49 139 88 341t39 358q0 205 -87 326.5t-275 121.5q-49 0 -115 -20z" />
    <glyph glyph-name="Z" unicode="Z" horiz-adv-x="1449" 
d="M-55 -8l24 86q526 471 1311 1261h-635q-59 0 -107.5 -48t-105.5 -150l-55 -101h-72l107 416q20 -2 52 -6t110.5 -10t130.5 -6l874 8l-25 -88q-489 -446 -1273 -1227q-27 -33 14 -33h541q86 0 148.5 31t148.5 133l147 176h68l-201 -444q-266 10 -385 10h-543z" />
    <glyph glyph-name="bracketleft" unicode="[" horiz-adv-x="690" 
d="M-55 -348l573 1898h459l-23 -71h-336q0 -31 -9 -118t-51 -298t-109 -434q-147 -487 -361 -908h336l-23 -69h-456z" />
    <glyph glyph-name="backslash" unicode="\" horiz-adv-x="1099" 
d="M397 1729l72 18l375 -2015l-72 -15z" />
    <glyph glyph-name="bracketright" unicode="]" horiz-adv-x="686" 
d="M-217 -348l22 69h328q41 418 189 908q66 213 150.5 426t137.5 317l54 107h-336l22 71h459l-576 -1898h-450z" />
    <glyph glyph-name="asciicircum" unicode="^" horiz-adv-x="1091" 
d="M102 465l633 969h135l45 -969h-86l-30 887h-23l-571 -887h-103z" />
    <glyph glyph-name="underscore" unicode="_" horiz-adv-x="1091" 
d="M-45 -330l31 103h659l-31 -103h-659z" />
    <glyph glyph-name="grave" unicode="`" horiz-adv-x="739" 
d="M371 1507h235l185 -374l-78 -13z" />
    <glyph glyph-name="a" unicode="a" horiz-adv-x="1130" 
d="M37 145q0 100 47 243.5t123 282t188.5 234.5t227.5 96q135 0 235 -112l47 84q41 25 90 24.5t64 -10.5q-47 -143 -136 -413.5t-153 -464.5q4 -2 6 -8.5t6 -10.5q45 14 120 83t114 130l39 -39q-49 -102 -168 -198.5t-211 -96.5q-90 0 -90 74q0 55 159 469l-12 10
q-322 -553 -545 -553q-151 0 -151 176zM225 139q0 -18 12.5 -33.5t32.5 -15.5q55 0 170 125t220.5 289t142.5 272q-14 68 -58.5 114t-93.5 46q-80 0 -160.5 -100.5t-137 -235.5t-92.5 -265t-36 -196z" />
    <glyph glyph-name="b" unicode="b" horiz-adv-x="1046" 
d="M57 160q0 23 9.5 67.5t29 111.5t40 132.5t52 160.5t56 164.5t62.5 174t58.5 162t56.5 155.5t46 127l-191 -14l13 53q193 94 413 94q-193 -479 -321 -854l-129 -350l14 -10q115 254 299.5 460.5t304.5 206.5q156 0 156 -184q0 -178 -110.5 -377.5t-283.5 -335t-337 -135.5
q-102 0 -170 58.5t-68 132.5zM256 158q0 -47 39 -75t102 -28q86 0 195.5 133.5t183.5 305.5t74 284q0 88 -51 88q-84 0 -264.5 -227t-264.5 -424q-14 -32 -14 -57z" />
    <glyph glyph-name="c" unicode="c" horiz-adv-x="837" 
d="M53 266q0 160 81 329t226.5 287.5t307.5 118.5q98 0 152 -40.5t54 -108.5q0 -61 -59 -118.5t-117 -65.5l-45 34q43 115 43 175q0 47 -43 47q-92 0 -190 -101.5t-160.5 -245t-62.5 -264.5q0 -106 44 -161.5t122 -55.5q76 0 136 59.5t79 139.5l59 -47
q-20 -102 -114.5 -190.5t-243.5 -88.5q-102 0 -185.5 72.5t-83.5 224.5z" />
    <glyph glyph-name="d" unicode="d" horiz-adv-x="1134" 
d="M37 145q0 100 47 245t123 282t188.5 233t227.5 96q143 0 243 -112l176 526l-186 -14l12 53q0 4 53.5 24.5t154 45t198.5 32.5q-2 0 -58.5 -151.5t-136.5 -376.5t-127 -377q-57 -184 -172 -542l11 -19q45 14 120.5 83t114.5 130l39 -39q-49 -102 -169 -198.5t-212 -96.5
q-90 0 -90 74q0 59 162 469l-15 10q-137 -240 -283.5 -396.5t-269.5 -156.5q-151 0 -151 176zM225 139q0 -18 12.5 -33.5t32.5 -15.5q84 0 284 258t257 428q-12 66 -60.5 113t-99.5 47q-80 0 -161.5 -100.5t-138 -236.5t-91.5 -265t-35 -195z" />
    <glyph glyph-name="e" unicode="e" horiz-adv-x="858" 
d="M53 279q0 158 84 324.5t229.5 282t301.5 115.5q100 0 157.5 -46t57.5 -130q0 -129 -183.5 -229t-429.5 -117q-31 -90 -30 -172q0 -102 45 -156.5t123 -54.5q76 0 135 58.5t78 138.5l47 -43q-23 -109 -110 -195t-234 -86q-109 0 -190 75t-81 235zM293 545
q180 18 306 110.5t126 192.5q0 37 -23.5 59.5t-62.5 22.5q-98 0 -190.5 -112.5t-155.5 -272.5z" />
    <glyph glyph-name="f" unicode="f" horiz-adv-x="634" 
d="M-373 -410q0 41 31 74t76 33q55 0 57 -53l2 -62q0 -47 41 -47q51 0 93 81t106 292l291 973h-185l23 67h184q215 641 588 641q78 0 119 -34.5t41 -88.5q0 -45 -33 -78.5t-105 -33.5q-39 131 -137 131q-121 0 -289 -537l211 13l-41 -113l-188 33l-258 -803
q-25 -74 -34 -102.5t-39.5 -108.5t-52.5 -120t-62.5 -103.5t-79.5 -95t-92.5 -57.5t-112.5 -26q-66 0 -110 36t-44 89z" />
    <glyph glyph-name="g" unicode="g" horiz-adv-x="976" 
d="M-190 -229q0 111 96 172t229 61q147 0 283 -39l6 17q-166 51 -234.5 106t-68.5 131q0 121 162 178q-158 88 -158 269q0 150 111.5 242.5t261.5 92.5q190 0 286 -112q-2 4 30 23.5t96.5 39t133.5 19.5q6 0 18.5 -1t20.5 -1l-65 -176l-211 55q20 -25 32.5 -74t12.5 -80
q0 -139 -101.5 -239.5t-279.5 -100.5q-80 0 -127 19q-84 -41 -84 -103q0 -59 107 -110q41 -20 111.5 -50t110.5 -48.5t92 -49t79.5 -60.5t48 -74t20.5 -97q0 -145 -138 -228t-359 -83q-199 0 -360.5 82t-161.5 219zM-27 -240q0 -104 114 -164.5t263 -60.5q139 0 227.5 46
t88.5 132q0 61 -46.5 107.5t-117 69t-134 32.5t-116.5 10q-117 0 -198 -45t-81 -127zM301 596q0 -78 37 -129t106 -51q104 0 167 104.5t63 233.5q0 184 -148 184q-104 0 -164.5 -109.5t-60.5 -232.5z" />
    <glyph glyph-name="h" unicode="h" horiz-adv-x="1114" 
d="M0 -10l451 1425l-191 -14l14 53q182 92 404 96l-264 -792l-142 -414l15 -10q76 133 182 276.5t242.5 267t230.5 123.5q49 0 75.5 -28.5t26.5 -71.5q0 -72 -158.5 -432t-158.5 -363l6 -16q45 14 121 83t115 130l37 -39q-51 -111 -172 -203t-220 -92q-37 0 -59.5 18.5
t-22.5 43.5q0 53 169 415.5t169 399.5q0 23 -20 22q-74 0 -303.5 -279.5t-280.5 -385.5l-53 -168q-49 -51 -164 -51q-29 0 -49 6z" />
    <glyph glyph-name="i" unicode="i" horiz-adv-x="602" 
d="M49 27q0 45 158 436t158 409q0 27 -25 27t-66 -36t-69 -72l-29 -35l-39 30q4 8 12.5 22.5t37 52.5t59 65.5t79 51t97.5 23.5q47 0 78.5 -30.5t31.5 -81.5q0 -29 -44 -144.5t-111.5 -278.5t-93.5 -235l-45 -122l8 -17q55 14 134 82t122 129l37 -37q-51 -109 -182.5 -203
t-231.5 -94q-35 0 -55.5 16.5t-20.5 41.5zM395 1362q0 53 39 92t92.5 39t92 -39t38.5 -92t-38.5 -92t-92 -39t-92.5 39t-39 92z" />
    <glyph glyph-name="j" unicode="j" horiz-adv-x="593" 
d="M-350 -406q0 41 29.5 72t80.5 31q20 0 38 -15.5t20 -37.5l2 -62q0 -47 41 -47q49 0 91 82t107 291q49 160 167 551t118 413q0 27 -24.5 27t-65.5 -36t-70 -72l-28 -35l-39 30q4 8 12 22.5t37 52.5t59.5 65.5t78.5 51t97 23.5q47 0 79 -30.5t32 -81.5q0 -35 -28.5 -137.5
t-87 -293t-89.5 -292.5q-6 -23 -6 -37q0 -49 64 -61l51 -11l-13 -57h-147q-88 -289 -192.5 -409.5t-260.5 -120.5q-74 0 -113.5 36.5t-39.5 87.5zM381 1362q0 53 39 92t92 39t92 -39t39 -92t-39 -92t-92 -39t-92 39t-39 92z" />
    <glyph glyph-name="k" unicode="k" horiz-adv-x="1142" 
d="M0 -10l451 1425l-191 -14l14 53q182 92 404 96l-264 -792l-142 -414l15 -10q53 109 113.5 210t145.5 212.5t183 178t195 66.5q78 0 126 -44t48 -113q0 -92 -91.5 -174t-186.5 -123t-175 -58q0 -68 7 -132t24.5 -142t59.5 -126t102 -48q57 0 98 49q-31 6 -54.5 33
t-23.5 59q0 29 20.5 49.5t49.5 20.5q35 0 57.5 -21.5t22.5 -56.5q0 -109 -80 -177.5t-174 -68.5q-131 0 -196.5 117t-65.5 375l6 82l-45 16q-135 -205 -187 -313l-49 -170q-51 -51 -166 -51q-31 0 -51 6zM485 567l131 -32q102 35 209 107.5t107 154.5q0 37 -19.5 58.5
t-54.5 21.5q-70 0 -175.5 -91.5t-197.5 -218.5z" />
    <glyph glyph-name="l" unicode="l" horiz-adv-x="559" 
d="M27 27q0 29 76.5 269.5t217 657t154.5 461.5l-203 -14l17 53q188 94 409 94l-284 -831l-199 -608l8 -17q55 14 134 81t120 130l37 -37q-51 -111 -179 -204t-229 -93q-73 1 -79 58z" />
    <glyph glyph-name="m" unicode="m" horiz-adv-x="1736" 
d="M49 -10q283 745 283 874q0 33 -23 33q-53 -2 -164 -141q-10 6 -39 30q4 8 12.5 22.5t38 52.5t61.5 65.5t82 51t101 23.5q55 0 85 -36.5t30 -92.5q0 -176 -197 -528l15 -10q61 106 124.5 204.5t150.5 212t176 182t163 68.5q55 0 84 -37.5t29 -91.5q0 -211 -187 -528
l15 -10q74 131 185.5 276.5t251.5 268t237 122.5q49 0 75.5 -28.5t26.5 -73.5q0 -55 -79 -252.5t-156 -367.5l-80 -173l6 -16q45 14 121.5 83t115.5 130l35 -39q-51 -109 -173 -202t-218 -93q-37 0 -59.5 18.5t-22.5 43.5q0 57 170 409.5t170 405.5q0 23 -20 22
q-43 0 -135.5 -75.5t-192.5 -189.5t-194.5 -271.5t-133.5 -300.5q-16 -20 -71.5 -34.5t-100.5 -14.5q-53 0 -53 18q295 672 295 836q0 33 -23 32q-74 0 -286.5 -275.5t-266.5 -389.5l-47 -168q-45 -51 -168 -51q-29 0 -49 6z" />
    <glyph glyph-name="n" unicode="n" horiz-adv-x="1163" 
d="M51 -10q283 752 283 876q0 33 -23 33q-25 0 -65.5 -36t-69.5 -72l-29 -35l-38 30q4 8 12 22.5t36.5 52.5t60.5 65.5t82 51t101 23.5q55 0 85 -36.5t30 -92.5q0 -172 -197 -528l15 -10q76 133 183.5 277.5t244.5 267t231 122.5q49 0 75 -27.5t26 -72.5q0 -72 -158 -431
t-158 -361l6 -17q45 14 120 82t114 129l39 -37q-53 -111 -173 -204t-218 -93q-37 0 -60.5 18.5t-23.5 43.5q0 53 170 415.5t170 399.5q0 23 -21 22q-76 0 -306 -278.5t-282 -384.5l-49 -170q-49 -51 -166 -51q-29 0 -47 6z" />
    <glyph glyph-name="o" unicode="o" horiz-adv-x="985" 
d="M66 297q0 160 70.5 319.5t206.5 272t302 112.5q121 0 199 -91t78 -226q0 -162 -67 -323.5t-201 -276.5t-302 -115q-127 0 -206.5 83t-79.5 245zM246 281q0 -55 12 -104.5t49 -90.5t96 -41q94 0 174 112.5t122 262t42 280.5q0 221 -141 222q-98 0 -183 -110t-128 -255
t-43 -276z" />
    <glyph glyph-name="p" unicode="p" horiz-adv-x="1069" 
d="M-305 -518l31 78l73 14q59 12 86 30.5t45 67.5q16 41 400 1170q-141 -45 -213 -72l-13 68q53 23 250 88l97 297q41 16 110 16q39 0 64 -6l-90 -266q145 35 256 34q127 0 188 -72.5t61 -166.5q0 -156 -91 -341t-244.5 -318.5t-307.5 -133.5q-29 0 -87 14.5t-89 30.5
q-23 -74 -55.5 -175t-48 -151t-15.5 -61q0 -39 72 -49l139 -18l-30 -78l-306 10zM276 160q0 -53 76 -77t131 -24q70 0 156 105.5t147.5 265.5t61.5 301q0 178 -158 178q-68 0 -180 -24q-14 -51 -73.5 -229.5l-110 -330t-50.5 -165.5z" />
    <glyph glyph-name="q" unicode="q" horiz-adv-x="1052" 
d="M37 145q0 100 47 245t123 282t188.5 233t227.5 96q143 0 243 -112q4 6 14.5 26.5t14.5 27.5t15.5 20.5t22.5 18.5t29.5 10t41.5 5q61 0 75 -12q-12 -35 -65 -169t-78 -210q-45 -137 -156.5 -471t-173.5 -516l10 -18q47 14 122 78.5t114 123.5l37 -39q-47 -102 -171 -198
t-220 -96q-88 0 -88 73q0 59 117.5 379t228.5 590l-15 10q-139 -242 -284.5 -397.5t-268.5 -155.5q-151 0 -151 176zM225 139q0 -18 12.5 -33.5t32.5 -15.5q84 0 285 258t258 428q-14 66 -62.5 113t-99.5 47q-80 0 -160.5 -100.5t-137 -235.5t-92.5 -265t-36 -196z" />
    <glyph glyph-name="r" unicode="r" horiz-adv-x="948" 
d="M51 -10q88 242 174 518t86 358q0 33 -22 33q-25 0 -65 -36t-68 -72l-29 -35l-39 30q4 8 12.5 22.5t37 52.5t60 65.5t82 51t101.5 23.5q55 0 85 -36.5t30 -92.5q0 -139 -177 -528l15 -10q350 659 530 659q57 0 89 -36.5t32 -88.5q0 -55 -35 -118.5t-98 -100.5l-70 19
l-4 178q-119 -137 -230.5 -290t-161.5 -231.5t-71 -115.5l-51 -174q-49 -51 -166 -51q-29 0 -47 6z" />
    <glyph glyph-name="s" unicode="s" horiz-adv-x="763" 
d="M-18 29q23 57 40 124.5t23 108.5l6 39h66l24 -207q29 -23 80 -40t92 -17q78 0 138.5 45t60.5 131q0 45 -35 91t-84 88t-97 87t-83 103.5t-35 119.5q0 152 112.5 225.5t258.5 73.5q160 0 244 -47q-55 -127 -82 -239h-62l-6 151q-2 29 -42 47.5t-85 18.5q-78 0 -128 -41
t-50 -117q0 -59 51 -122.5t112.5 -111.5t113 -117t51.5 -134q0 -152 -115 -236t-266 -84q-94 0 -186 21t-117 39z" />
    <glyph glyph-name="t" unicode="t" horiz-adv-x="692" 
d="M61 23q0 27 39 149.5t119 356t115 337.5h-180l28 70q135 12 183 25l75 270h176l-98 -299l234 20l-64 -92l-186 8l-248 -759l8 -17q156 31 293 189l41 -37q-47 -96 -191.5 -185.5t-265.5 -89.5q-33 0 -55.5 15.5t-22.5 38.5z" />
    <glyph glyph-name="u" unicode="u" horiz-adv-x="1165" 
d="M90 70q0 70 127 407.5t127 390.5q0 29 -22 29q-61 -2 -164 -141l-39 30l11 23q7 14 33.5 52t56.5 65.5t79 51t100 23.5q45 0 74 -31.5t33 -74.5q0 -86 -127 -413.5t-127 -356.5q0 -23 22 -23q74 0 289 274.5t273 391.5l45 168q49 49 166 49q35 0 47 -4
q-63 -168 -168 -498.5t-105 -376.5l6 -16q45 14 121 83t117 130l37 -39q-47 -102 -165 -198.5t-210 -96.5q-37 0 -55.5 20.5t-18.5 47.5q0 141 176 594l-16 10q-57 -102 -123.5 -202.5t-155 -214t-180.5 -184.5t-166 -71q-98 1 -98 101z" />
    <glyph glyph-name="v" unicode="v" horiz-adv-x="989" 
d="M41 786l11 23q7 14 32 52t53.5 65.5t75.5 51t96 23.5q137 0 137 -170q0 -98 -30.5 -287.5t-61.5 -330.5l-30 -139l10 -11q162 92 345 351.5t183 380.5q0 49 -28.5 74.5t-71.5 25.5q-76 0 -119 -53q74 -25 74 -82q0 -27 -20.5 -48.5t-49.5 -21.5q-35 0 -55.5 22.5
t-20.5 59.5q0 82 89.5 155.5t191.5 73.5q156 0 156 -163q0 -125 -122 -310.5t-300 -344t-332 -214.5q-106 0 -107 23l9 37q6 37 17 96t24.5 135t27 160t24.5 164t18 152.5t7 119.5q0 43 -32 43q-25 0 -65 -36t-68 -72l-29 -35z" />
    <glyph glyph-name="w" unicode="w" horiz-adv-x="1538" 
d="M41 786l11 23q7 14 32 52t53.5 65.5t75.5 51t96 23.5q137 0 137 -172q0 -98 -40.5 -286.5t-81.5 -329.5l-43 -139l10 -11q47 0 495 615q37 49 37 92q0 127 -37 127q-27 0 -66.5 -35t-66.5 -71l-26 -35l-39 30q4 8 10 22.5t30.5 52.5t51.5 65.5t72 51t94 23.5
q66 0 105.5 -44t39.5 -130q0 -137 -41 -380.5t-76 -372.5l11 -11q162 94 345 347.5t183 382.5q0 49 -29.5 74.5t-72.5 25.5q-74 0 -119 -51q74 -25 74 -84q0 -27 -20.5 -47.5t-49.5 -20.5q-35 0 -55.5 22.5t-20.5 57.5q0 82 89 156.5t192 74.5q156 0 155 -165
q0 -190 -259 -486.5t-494 -380.5q-94 0 -94 23q0 14 21.5 123.5t48 258t34.5 240.5q-86 -137 -221 -309q-268 -336 -381 -336q-109 0 -109 23l9 37q10 37 25.5 97t33.5 136t36.5 160t34 164t24.5 153.5t9 120.5q0 37 -32 37q-53 -2 -162 -141z" />
    <glyph glyph-name="x" unicode="x" horiz-adv-x="1120" 
d="M-12 51q0 96 67 242l58 -10q-8 -43 -9 -93q0 -70 41 -69q72 0 347 346l-52 129q-27 66 -40 96.5t-31.5 66.5t-34 49t-33.5 13q-63 0 -70 -164l-57 5q0 143 48 241t126 98q63 0 112.5 -66.5t114.5 -246.5l43 -117q145 225 245 327.5t190 102.5q76 0 75 -86
q0 -106 -88 -237l-61 8q27 63 27 117q0 35 -27 35q-33 0 -65.5 -20.5t-94.5 -86.5q-88 -94 -176 -215q145 -387 199 -387q47 2 112 141l35 -45q-18 -63 -89 -159.5t-134 -96.5q-53 0 -101.5 85t-121.5 286l-25 68q-137 -193 -236.5 -295.5t-142.5 -123t-88 -20.5
q-25 0 -44 23.5t-19 58.5z" />
    <glyph glyph-name="y" unicode="y" horiz-adv-x="980" 
d="M-414 -473q369 125 570 262q14 8 30.5 278.5t16.5 456.5q0 344 -45 404q16 20 69.5 46.5t77.5 26.5q53 0 67.5 -37.5t14.5 -156.5q0 -223 -14.5 -496.5t-28.5 -339.5l18 -12q90 98 190.5 228t201 312.5t100.5 295.5q0 49 -28.5 74.5t-71.5 25.5q-76 0 -119 -53
q74 -25 74 -82q0 -27 -20.5 -48.5t-49.5 -21.5q-35 0 -55.5 22.5t-20.5 59.5q0 82 89 155.5t192 73.5q156 0 155 -163q0 -90 -106.5 -280.5t-272 -402.5t-402 -417t-464.5 -305z" />
    <glyph glyph-name="z" unicode="z" horiz-adv-x="1032" 
d="M20 156q0 90 65 164.5t163 123t210.5 96.5t211 86t163 93t64.5 117l-12 2q-16 -35 -60.5 -59.5t-103.5 -24.5q-70 0 -168 32.5t-145.5 32.5t-72 -26.5t-24.5 -67.5q0 -68 37 -133l-47 -19q-96 104 -96 242q0 78 59.5 132t141.5 54q84 0 220 -67.5t181 -67.5q39 0 80 21
q-16 2 -28.5 18.5t-12.5 32.5q0 45 45 45q29 0 46 -35t17 -88q0 -102 -72.5 -184t-182 -133t-221 -92t-207 -82t-121.5 -82l8 -13q51 33 127 33q84 0 171 -39t157.5 -76.5t113.5 -37.5q106 0 107 149h47q14 -55 14 -117q0 -109 -52 -163t-138 -54q-80 0 -174.5 66.5
t-178.5 133.5t-141 67q-47 0 -71.5 -26t-24.5 -54q0 -37 22.5 -58.5t52.5 -21.5q14 0 33 6q6 -12 6 -29q0 -31 -21.5 -48t-49.5 -17q-51 0 -94.5 46t-43.5 122z" />
    <glyph glyph-name="braceleft" unicode="{" horiz-adv-x="727" 
d="M94 686q0 41 24.5 61.5t59.5 20.5q57 0 127 -66q43 35 78 164q18 68 45 201q25 119 39 177.5t53 142t88 119.5t136 57.5t206 9.5l-6 -74h-12q-61 0 -110.5 -24.5t-80 -56.5t-56.5 -90t-38 -98t-29 -108q-16 -66 -25 -99.5t-26.5 -87.5t-36 -85t-46 -68t-64.5 -60.5
t-84 -41.5q109 -72 108 -215q0 -61 -18 -139l-37 -146q-59 -225 -59 -280q0 -158 159 -158h13l-33 -74q-180 0 -254 54.5t-74 156.5q0 59 27 155.5t70 227.5t61 207q10 43 10 102q0 49 -14 86q-59 -47 -123 -47q-33 0 -55.5 20.5t-22.5 55.5z" />
    <glyph glyph-name="bar" unicode="|" horiz-adv-x="450" 
d="M-59 -403l589 2068h64l-594 -2068h-59z" />
    <glyph glyph-name="braceright" unicode="}" horiz-adv-x="739" 
d="M-184 -332l8 78h14q139 0 202.5 84t123.5 289l41 145q31 109 105.5 209t197.5 145q-111 82 -111 218q0 84 48.5 290.5t48.5 251.5q0 141 -150 142h-14l39 73q16 2 51 2q117 0 190.5 -55t73.5 -137q0 -111 -76 -369t-76 -309q0 -49 15 -86q59 47 123 47q33 0 55.5 -20.5
t22.5 -55.5q0 -41 -25 -61.5t-59 -20.5q-57 0 -127 66q-29 -23 -62 -86.5t-51 -124.5q-16 -55 -36.5 -136t-33 -133.5t-35 -120t-44 -110.5t-56.5 -89t-76 -72.5t-100 -43t-131 -16.5q-43 0 -96 6z" />
    <glyph glyph-name="asciitilde" unicode="~" 
d="M207 637q0 113 63.5 176.5t161.5 63.5q78 0 246 -92.5t244 -92.5q141 0 141 144h78q0 -111 -62.5 -167.5t-163.5 -56.5q-86 0 -252.5 90.5t-236.5 90.5q-66 0 -103.5 -39t-37.5 -117h-78z" />
    <glyph glyph-name="uni00A0" unicode="&#xa0;" horiz-adv-x="512" 
 />
    <glyph glyph-name="exclamdown" unicode="&#xa1;" horiz-adv-x="581" 
d="M-88 -410q0 14 2 29.5t8 34t10.5 32t15.5 36t15 34t18.5 39t18.5 35.5q137 287 258 635l59 -12q-68 -268 -122 -668q-4 -25 -9.5 -72t-8.5 -66.5t-8 -45t-13 -41.5q-37 -88 -129 -88q-57 0 -86 34.5t-29 83.5zM225 806.5q0 65.5 46 113t112 47.5t112 -47.5t46 -113
t-46 -112.5t-112 -47t-112 47t-46 112.5z" />
    <glyph glyph-name="cent" unicode="&#xa2;" 
d="M156 -270l174 286q-98 70 -113 222q-2 12 -2 38q0 158 85 326t230.5 283.5t300.5 115.5q51 0 89 -12l178 293l51 -27l-174 -288q66 -41 65 -115q0 -63 -60 -121.5t-122 -66.5l-45 36l-344 -567q37 -35 102 -35q76 0 135.5 58.5t77.5 138.5l60 -45q-23 -106 -116 -193.5
t-243 -87.5q-57 0 -104 21l-172 -285zM406 311q0 -80 24 -129l426 705q-4 35 -41 35q-92 0 -189.5 -100.5t-158.5 -244t-61 -266.5z" />
    <glyph glyph-name="sterling" unicode="&#xa3;" 
d="M25 80q0 51 34.5 78.5t90.5 27.5q29 0 59 -6q51 70 115 322h-213l14 80h217q31 119 61 227h-231l14 80h236q43 166 110.5 283.5t148.5 178t157.5 87t160.5 26.5q121 0 193 -50t72 -111q0 -49 -30 -85t-87 -36q-14 0 -29.5 3t-23.5 7l-9 4q4 25 5 37q0 57 -36 96t-98 39
q-88 0 -163.5 -117.5t-151.5 -361.5h369l-15 -80h-377l-73 -227h403l-14 -80h-418q-68 -250 -240 -326q102 14 311.5 -37t299.5 -51t166 80l14 -53q-117 -205 -340 -205q-84 0 -263 91t-226 97q-35 -104 -123 -104q-37 0 -63.5 25.5t-26.5 60.5z" />
    <glyph glyph-name="currency" unicode="&#xa4;" 
d="M121 453l178 106q-57 135 -18 283q37 143 159 233l-104 185l67 40l103 -184q137 63 276 25q139 -37 226 -160l184 106l37 -65l-182 -109q63 -139 24 -284q-39 -143 -160 -234l103 -180l-68 -41l-102 182q-131 -63 -279 -24q-143 41 -229 162l-178 -107zM350 821
q-37 -141 31 -264t203 -160q137 -37 258 37t157 213q39 141 -29.5 266t-205.5 162q-135 37 -255 -38t-159 -216z" />
    <glyph glyph-name="yen" unicode="&#xa5;" 
d="M141 481l23 80h362l-43 227h-254l25 80h213l-80 383q-10 47 -26.5 72t-51.5 33l-96 24l23 74l286 -10l285 10l-23 -74l-116 -26q-49 -12 -68.5 -34t-11.5 -69l110 -604l449 598q29 33 18.5 64.5t-57.5 40.5l-109 18l23 76l266 -10l225 20l-22 -74l-78 -26
q-80 -27 -139 -101l-307 -385h207l-25 -80h-246l-172 -227h352l-22 -80h-354l-84 -299q-23 -80 57 -98l86 -21l-23 -73l-274 10l-270 -10l22 73l98 21q53 10 77 30.5t38 67.5l84 299h-377z" />
    <glyph glyph-name="brokenbar" unicode="&#xa6;" horiz-adv-x="462" 
d="M-53 -403l262 921h63l-264 -921h-61zM270 733l269 932h63l-268 -932h-64z" />
    <glyph glyph-name="section" unicode="&#xa7;" 
d="M2 135q0 23 4 72l80 -8q-2 -10 -2 -29q0 -143 87 -251.5t232 -108.5q119 0 206 59t135.5 165.5t71 236.5t22.5 288q0 154 -26 331t-58 275l61 19q80 -170 148.5 -400.5t68.5 -443.5q0 -319 -166 -495.5t-383 -176.5q-229 0 -355 130t-126 337zM266 956q0 168 50.5 300.5
t134.5 209t182 115.5t203 39q205 0 329.5 -133t124.5 -334q0 -31 -6 -66l-82 9v20q0 158 -82 263.5t-237 105.5q-113 0 -197 -64.5t-132 -175t-70.5 -242t-22.5 -282.5q0 -145 20.5 -330.5t50.5 -261.5l-61 -18q-205 489 -205 845z" />
    <glyph glyph-name="dieresis" unicode="&#xa8;" horiz-adv-x="821" 
d="M313 1316.5q0 59.5 40 99.5t99.5 40t99.5 -40t40 -99.5t-40 -99t-99.5 -39.5t-99.5 39.5t-40 99zM696 1316.5q0 59.5 41 99.5t98.5 40t98.5 -40t41 -99.5t-41 -99t-98.5 -39.5t-98.5 39.5t-41 99z" />
    <glyph glyph-name="copyright" unicode="&#xa9;" horiz-adv-x="1916" 
d="M199 721q0 348 238.5 585.5t586.5 237.5q350 0 589.5 -237.5t239.5 -585.5q0 -346 -239.5 -583.5t-589.5 -237.5q-348 0 -586.5 237.5t-238.5 583.5zM287 721q0 -317 213 -532.5t524 -215.5q313 0 527 215t214 533q0 319 -214 534t-527 215q-311 0 -524 -215t-213 -534z
M575 702q0 229 136.5 381t353.5 152q162 0 240.5 -61.5t78.5 -124.5q0 -61 -42 -101.5t-105 -48.5l-39 35v119q0 66 -29.5 86t-103.5 20q-131 0 -215 -111.5t-84 -310.5q0 -211 94 -308t242 -97q57 0 107.5 16.5t79 39t50 45t29.5 38.5l8 16l39 -57q-121 -227 -397 -227
q-186 0 -314.5 126.5t-128.5 372.5z" />
    <glyph glyph-name="ordfeminine" unicode="&#xaa;" horiz-adv-x="966" 
d="M229 842q0 203 149.5 414.5t299.5 211.5q98 0 174 -75l35 53q18 18 71 18l60 -4q-219 -629 -219 -678l6 -4q43 16 98 73.5t86 109.5l29 -37q-41 -96 -128 -167t-171 -71q-74 0 -76 68q0 12 2 27.5t8 37t12.5 38.5t17.5 47t19.5 50.5t23.5 59.5t26 63l-11 8
q-244 -399 -387 -399q-66 0 -95.5 45t-29.5 111zM385 868q0 -63 31 -63q57 0 198.5 183t186.5 308q-12 45 -47 79t-68 34q-66 0 -138.5 -102.5t-117.5 -229.5t-45 -209z" />
    <glyph glyph-name="guillemotleft" unicode="&#xab;" horiz-adv-x="1157" 
d="M160 727l577 578h66l-387 -586l-4 -25l159 -544h-65zM580 727l577 578h64l-387 -586l-5 -25l160 -544h-63z" />
    <glyph glyph-name="logicalnot" unicode="&#xac;" 
d="M225 874l23 80h899l-127 -442h-94l110 362h-811z" />
    <glyph glyph-name="uni00AD" unicode="&#xad;" horiz-adv-x="763" 
 />
    <glyph glyph-name="registered" unicode="&#xae;" horiz-adv-x="1916" 
d="M199 721q0 348 238.5 585.5t586.5 237.5q350 0 589.5 -237.5t239.5 -585.5q0 -346 -239.5 -583.5t-589.5 -237.5q-348 0 -586.5 237.5t-238.5 583.5zM287 721q0 -317 213 -532.5t524 -215.5q324 0 539 228q-100 -4 -172 22.5t-108 60t-81 97.5l-88 137.5t-94 145.5h-129
q-2 -152 2 -314q2 -35 15.5 -47t52.5 -20l73 -15v-53l-237 10l-236 -10v53l76 15q39 8 53.5 21t16.5 46q8 131 8 363l-4 362q-4 35 -17.5 48.5t-52.5 21.5l-76 14v49l324 -4q121 12 211 13q51 0 98 -11.5t94 -38t75 -81t28 -128.5q0 -82 -54.5 -150.5t-150.5 -107.5
l160 -223q74 -104 135 -164q49 -43 129 -53q152 197 151 461q0 319 -214 534t-527 215q-311 0 -524 -215t-213 -534zM891 735q74 -12 160 -12q53 0 105 57.5t52 163.5q0 100 -64.5 154.5t-164.5 54.5h-64q-25 0 -24 -20v-398z" />
    <glyph glyph-name="macron" unicode="&#xaf;" horiz-adv-x="874" 
d="M326 1192l32 108h557l-32 -108h-557z" />
    <glyph glyph-name="degree" unicode="&#xb0;" horiz-adv-x="868" 
d="M268 1103.5q0 145.5 96.5 240t235.5 94.5t235.5 -94.5t96.5 -240t-96.5 -239.5t-235.5 -94t-235.5 94t-96.5 239.5zM375 1103.5q0 -102.5 64.5 -172t160.5 -69.5t160.5 69.5t64.5 172t-64.5 172.5t-160.5 70t-160.5 -70t-64.5 -172.5z" />
    <glyph glyph-name="plusminus" unicode="&#xb1;" 
d="M31 0l22 82h897l-22 -82h-897zM225 692l25 82h399l127 440h98l-126 -440h401l-25 -82h-401l-127 -442h-98l127 442h-400z" />
    <glyph glyph-name="uni00B2" unicode="&#xb2;" horiz-adv-x="768" 
d="M139 618l23 87q0 -2 125 92t284 217q154 117 154 250q0 66 -38 102.5t-107 36.5q-102 0 -103 -45v-131l-28 -19q-53 0 -87 30t-34 69q0 55 75.5 106t200.5 51q109 0 191 -56t82 -146q0 -86 -51.5 -144.5t-178.5 -144.5l-352 -242q72 0 227.5 4t229.5 6l-52 -116h-376
q-150 -1 -185 -7z" />
    <glyph glyph-name="uni00B3" unicode="&#xb3;" horiz-adv-x="768" 
d="M170 750q0 51 38 79.5t105 28.5l25 -35l-33 -118q0 -23 37 -36.5t74 -13.5q100 0 155.5 57.5t55.5 131.5q0 82 -59.5 132t-205.5 62l25 78q39 -6 82 -6q104 0 159.5 47t55.5 109q0 51 -38 87t-109 36q-84 0 -175 -58l-28 51q119 84 254 84q121 0 183.5 -54t62.5 -126
q0 -86 -70 -142.5t-168 -62.5q76 -18 128 -73.5t52 -139.5q0 -119 -93 -194.5t-239 -75.5q-109 0 -191.5 39t-82.5 113z" />
    <glyph glyph-name="acute" unicode="&#xb4;" horiz-adv-x="739" 
d="M371 1133l266 374h235l-423 -387z" />
    <glyph glyph-name="uni00B5" unicode="&#xb5;" horiz-adv-x="1165" 
d="M-152 -500q20 57 116.5 301t148.5 375q23 82 83 244t104 285.5t44 162.5q0 29 -22 29q-61 -2 -164 -141l-39 30l11 23q7 14 33.5 52t56.5 65.5t79 51t100 23.5q45 0 74 -31.5t33 -74.5q0 -86 -127 -413.5t-127 -356.5q0 -23 22 -23q74 0 289 274.5t273 391.5l45 168
q49 49 166 49q35 0 47 -4q-63 -168 -168 -498.5t-105 -376.5l6 -16q45 14 121 83t117 130l37 -39q-47 -102 -165 -198.5t-210 -96.5q-37 0 -55.5 20.5t-18.5 47.5q0 141 176 594l-16 10q-57 -102 -123.5 -202.5t-155 -214t-180.5 -184.5t-166 -71q-51 0 -77 31l-123 -492z
" />
    <glyph glyph-name="paragraph" unicode="&#xb6;" horiz-adv-x="1421" 
d="M90 -338q0 55 40 97t99 42q61 0 100.5 -40t39.5 -95q0 -66 -60 -117l4 -12q88 0 146.5 52.5t87.5 193.5l139 702h-8q-201 0 -331 132.5t-130 318.5q0 160 94.5 276.5t229.5 169t288 52.5h514l-366 -1837h-88l348 1749h-201q-47 0 -69.5 -18.5t-30.5 -61.5l-303 -1512
q-57 -285 -303 -284q-92 0 -166 50t-74 142z" />
    <glyph glyph-name="periodcentered" unicode="&#xb7;" horiz-adv-x="552" 
d="M184 731.5q0 63.5 44 107.5t107.5 44t107.5 -44t44 -107.5t-44 -107.5t-107.5 -44t-107.5 44t-44 107.5z" />
    <glyph glyph-name="cedilla" unicode="&#xb8;" horiz-adv-x="739" 
d="M-160 -508l29 59q80 -39 166 -38q162 0 162 131q0 29 -18.5 56.5t-53.5 49t-59.5 33.5t-61.5 29l-39 14l291 203l55 -17l-151 -139q98 -31 149 -86t51 -121q0 -92 -75.5 -158.5t-221.5 -66.5q-133 0 -223 51z" />
    <glyph glyph-name="uni00B9" unicode="&#xb9;" horiz-adv-x="768" 
d="M231 616l15 58l96 14q57 10 70 51q35 111 103.5 350.5t68.5 262.5q0 20 -13 20q-27 0 -170 -20l17 61l284 64l64 -19q-156 -524 -207 -723q-2 -4 -2 -12q0 -27 25 -31l118 -18l-16 -58h-453z" />
    <glyph glyph-name="ordmasculine" unicode="&#xba;" horiz-adv-x="827" 
d="M246 934q0 121 54 242.5t159.5 206.5t232.5 85q96 0 157.5 -70.5t61.5 -172.5q0 -195 -124.5 -367t-315.5 -172q-98 0 -161.5 62.5t-63.5 185.5zM406 969q0 -205 120 -205q72 0 124 71.5t75 167t23 193.5q0 94 -29 145.5t-76 51.5q-76 0 -132 -70t-80.5 -164t-24.5 -190z
" />
    <glyph glyph-name="guillemotright" unicode="&#xbb;" horiz-adv-x="1157" 
d="M76 150l387 585l4 25l-160 545h62l348 -578l-580 -577h-61zM494 150l387 585l4 25l-160 545h63l349 -578l-580 -577h-63z" />
    <glyph glyph-name="onequarter" unicode="&#xbc;" horiz-adv-x="2088" 
d="M225 616l15 58l96 14q57 10 70 51q35 111 103.5 350.5t68.5 262.5q0 20 -13 20q-27 0 -170 -20l17 61l284 64l64 -19q-156 -524 -207 -723q-2 -4 -2 -12q0 -27 24 -31l119 -18l-16 -58h-453zM328 35l1505 1450l47 -51l-1507 -1448zM1214 240l13 63q90 96 542 543l142 -4
q-506 -457 -592 -535h303l12 41q29 98 35 139h150l-56 -180h138l-25 -67h-131l-39 -136q-8 -25 -2 -37t31 -16l57 -10l-16 -47l-179 6l-184 -6l17 49l63 14q59 14 72 58l37 125h-388z" />
    <glyph glyph-name="onehalf" unicode="&#xbd;" horiz-adv-x="2088" 
d="M225 616l15 58l96 14q57 10 70 51q35 111 103.5 350.5t68.5 262.5q0 20 -13 20q-27 0 -170 -20l17 61l284 64l64 -19q-156 -524 -207 -723q-2 -4 -2 -12q0 -27 24 -31l119 -18l-16 -58h-453zM328 35l1505 1450l47 -51l-1507 -1448zM1214 -6l23 86q0 -2 125 92t285 217
q154 117 153 250q0 66 -38 102.5t-107 36.5q-102 0 -103 -45v-131l-28 -18q-53 0 -87 29.5t-34 68.5q0 55 75.5 106.5t200.5 51.5q109 0 191 -56.5t82 -146.5q0 -86 -51.5 -144.5t-178.5 -144.5l-352 -242q72 0 227.5 4.5t229.5 6.5l-51 -117h-377q-150 0 -185 -6z" />
    <glyph glyph-name="threequarters" unicode="&#xbe;" horiz-adv-x="2088" 
d="M215 750q0 51 38 79.5t105 28.5l25 -35l-33 -118q0 -23 37 -36.5t74 -13.5q100 0 155.5 57.5t55.5 131.5q0 82 -59.5 132t-204.5 62l24 78q39 -6 82 -6q104 0 159.5 47t55.5 109q0 51 -38 87t-109 36q-84 0 -174 -58l-29 51q119 84 254 84q121 0 183.5 -54t62.5 -126
q0 -86 -70 -142.5t-168 -62.5q76 -18 128 -73.5t52 -139.5q0 -119 -93 -194.5t-239 -75.5q-109 0 -191.5 39t-82.5 113zM328 35l1505 1450l47 -51l-1507 -1448zM1241 240l12 63q90 96 543 543l141 -4q-506 -457 -591 -535h303l12 41q29 98 35 139h149l-55 -180h137l-24 -67
h-131l-39 -136q-8 -25 -2 -37t30 -16l58 -10l-17 -47l-178 6l-184 -6l16 49l64 14q59 14 71 58l37 125h-387z" />
    <glyph glyph-name="questiondown" unicode="&#xbf;" horiz-adv-x="878" 
d="M-88 -236q0 111 56.5 196t136 136t159.5 91t136.5 84t56.5 94q0 33 -21.5 54t-56.5 21q-76 0 -98 -94l-45 16q10 74 59 110t108.5 36t107.5 -42t48 -112q0 -72 -46 -128t-112.5 -96t-133 -81t-112.5 -103.5t-46 -142.5q0 -92 60 -147t148 -55q94 0 153.5 58t59.5 136
q-33 -33 -84 -33q-39 0 -62.5 27t-23.5 61q0 39 26 66t73 27q57 0 93 -48.5t36 -121.5q0 -113 -97.5 -206t-246.5 -93q-168 0 -250 92t-82 198zM391 808.5q0 65.5 46 113t111.5 47.5t112 -47.5t46.5 -113t-46.5 -112.5t-112 -47t-111.5 47t-46 112.5z" />
    <glyph glyph-name="Agrave" unicode="&#xc0;" horiz-adv-x="1499" 
d="M-172 -10l25 73l104 21q51 8 81 28.5t64 67.5l940 1268l160 39q8 -1036 21 -1305q2 -47 16 -68.5t57 -29.5l93 -21l-25 -73l-305 10l-316 -10l25 73l115 21q63 12 93 33.5t32 64.5l-2 414h-480l-288 -414q-57 -80 41 -98l120 -21l-26 -73l-336 10zM588 686h420l-2 584z
M864 1962h236l184 -375l-78 -12z" />
    <glyph glyph-name="Aacute" unicode="&#xc1;" horiz-adv-x="1499" 
d="M-172 -10l25 73l104 21q51 8 81 28.5t64 67.5l940 1268l160 39q8 -1036 21 -1305q2 -47 16 -68.5t57 -29.5l93 -21l-25 -73l-305 10l-316 -10l25 73l115 21q63 12 93 33.5t32 64.5l-2 414h-480l-288 -414q-57 -80 41 -98l120 -21l-26 -73l-336 10zM588 686h420l-2 584z
M911 1587l267 375h235l-424 -387z" />
    <glyph glyph-name="Acircumflex" unicode="&#xc2;" horiz-adv-x="1499" 
d="M-172 -10l25 73l104 21q51 8 81 28.5t64 67.5l940 1268l160 39q8 -1036 21 -1305q2 -47 16 -68.5t57 -29.5l93 -21l-25 -73l-305 10l-316 -10l25 73l115 21q63 12 93 33.5t32 64.5l-2 414h-480l-288 -414q-57 -80 41 -98l120 -21l-26 -73l-336 10zM588 686h420l-2 584z
M805 1614l328 360h106l180 -360l-51 -37l-201 235h-4l-319 -233z" />
    <glyph glyph-name="Atilde" unicode="&#xc3;" horiz-adv-x="1499" 
d="M-172 -10l25 73l104 21q51 8 81 28.5t64 67.5l940 1268l160 39q8 -1036 21 -1305q2 -47 16 -68.5t57 -29.5l93 -21l-25 -73l-305 10l-316 -10l25 73l115 21q63 12 93 33.5t32 64.5l-2 414h-480l-288 -414q-57 -80 41 -98l120 -21l-26 -73l-336 10zM588 686h420l-2 584z
M862 1665q84 190 217 190q47 0 133 -36.5t119 -36.5q41 0 68.5 15t64.5 67l31 -23q-41 -88 -90 -138t-125 -50q-53 0 -135 34.5t-107 34.5q-88 0 -145 -80z" />
    <glyph glyph-name="Adieresis" unicode="&#xc4;" horiz-adv-x="1499" 
d="M-172 -10l25 73l104 21q51 8 81 28.5t64 67.5l940 1268l160 39q8 -1036 21 -1305q2 -47 16 -68.5t57 -29.5l93 -21l-25 -73l-305 10l-316 -10l25 73l115 21q63 12 93 33.5t32 64.5l-2 414h-480l-288 -414q-57 -80 41 -98l120 -21l-26 -73l-336 10zM588 686h420l-2 584z
M825 1771.5q0 59.5 40 99.5t99.5 40t99.5 -40t40 -99.5t-40 -99.5t-99.5 -40t-99.5 40t-40 99.5zM1208 1771.5q0 59.5 41 99.5t98.5 40t98.5 -40t41 -99.5t-41 -99.5t-98.5 -40t-98.5 40t-41 99.5z" />
    <glyph glyph-name="Aring" unicode="&#xc5;" horiz-adv-x="1499" 
d="M-172 -10l25 73l104 21q51 8 81 28.5t64 67.5q580 770 881 1188q-143 84 -143 256q0 127 86 211t211 84q127 0 213 -84t86 -211q0 -109 -65.5 -187.5t-168.5 -101.5q14 -1026 21 -1153q2 -47 16 -68.5t57 -29.5l93 -21l-25 -73l-305 10l-316 -10l25 73l115 21
q63 12 93 33.5t32 64.5l-2 414h-480l-288 -414q-57 -80 41 -98l120 -21l-26 -73l-336 10zM588 686h420l-2 584zM932 1624q0 -96 55 -156.5t149.5 -60.5t150.5 61.5t56 155.5t-56 155.5t-150.5 61.5t-149.5 -60.5t-55 -156.5z" />
    <glyph glyph-name="AE" unicode="&#xc6;" horiz-adv-x="2146" 
d="M-188 -10l24 73l101 21q115 23 178 96l1024 1176l-185 14l25 64h864l326 22q-53 -125 -160 -416h-74l7 101q6 102 -14.5 151t-80.5 49h-377q-41 0 -51 -32l-159 -535q121 0 241 6q53 4 83 25.5t61 79.5l57 112h70l-84 -282l-58 -250h-69l6 117q4 57 -13.5 77.5
t-68.5 22.5l-250 8l-133 -467q-39 -129 106 -129h353q86 0 149.5 31t147.5 133l145 176h70l-203 -444q-266 10 -385 10h-563l-299 -10l22 73l111 21q57 10 85.5 31.5t43.5 66.5l133 420h-408l-348 -422q-57 -80 29 -96l106 -21l-22 -73l-340 10zM678 692h366l187 608l4 33
h-14z" />
    <glyph glyph-name="Ccedilla" unicode="&#xc7;" horiz-adv-x="1581" 
d="M178 627q0 225 111.5 415.5t316.5 306t459 115.5q264 0 491 -108l170 26l-149 -415l-88 -6l2 143q2 139 -121 205.5t-295 66.5q-309 0 -501.5 -200.5t-192.5 -503.5q0 -100 37 -200.5t107.5 -191t191.5 -145.5t272 -55q72 0 152 22l186 304l72 -9q-43 -190 -70 -352
q-268 -76 -465 -76q-61 0 -108 8l-113 -104q98 -31 149.5 -86t51.5 -121q0 -92 -76 -158.5t-221 -66.5q-133 0 -223 51l28 59q80 -39 166 -38q162 0 162 131q0 29 -18.5 56.5t-53.5 49t-59.5 33.5t-61.5 29l-38 14l233 164q-225 53 -364.5 221t-139.5 416z" />
    <glyph glyph-name="Egrave" unicode="&#xc8;" horiz-adv-x="1466" 
d="M-49 -10l20 73l113 21q57 10 85 31.5t42 66.5q63 195 166 533q102 338 151 534q10 51 -3 70.5t-66 30.5l-103 20l25 74l303 -10h483l326 22q-53 -125 -160 -416h-73l6 101q6 102 -14.5 151t-80.5 49h-378q-33 0 -43 -32l-166 -537q121 2 241 8q53 4 83 25.5t61 79.5
l57 112h70l-84 -282l-58 -250h-69l6 117q4 57 -13.5 77.5t-68.5 22.5l-250 8l-131 -467q-18 -68 6.5 -98.5t97.5 -30.5h353q86 0 149.5 31t147.5 133l145 176h70l-203 -444q-266 10 -385 10h-549zM659 1962h236l184 -375l-78 -12z" />
    <glyph glyph-name="Eacute" unicode="&#xc9;" horiz-adv-x="1466" 
d="M-49 -10l20 73l113 21q57 10 85 31.5t42 66.5q63 195 166 533q102 338 151 534q10 51 -3 70.5t-66 30.5l-103 20l25 74l303 -10h483l326 22q-53 -125 -160 -416h-73l6 101q6 102 -14.5 151t-80.5 49h-378q-33 0 -43 -32l-166 -537q121 2 241 8q53 4 83 25.5t61 79.5
l57 112h70l-84 -282l-58 -250h-69l6 117q4 57 -13.5 77.5t-68.5 22.5l-250 8l-131 -467q-18 -68 6.5 -98.5t97.5 -30.5h353q86 0 149.5 31t147.5 133l145 176h70l-203 -444q-266 10 -385 10h-549zM842 1587l266 375h235l-423 -387z" />
    <glyph glyph-name="Ecircumflex" unicode="&#xca;" horiz-adv-x="1466" 
d="M-49 -10l20 73l113 21q57 10 85 31.5t42 66.5q63 195 166 533q102 338 151 534q10 51 -3 70.5t-66 30.5l-103 20l25 74l303 -10h483l326 22q-53 -125 -160 -416h-73l6 101q6 102 -14.5 151t-80.5 49h-378q-33 0 -43 -32l-166 -537q121 2 241 8q53 4 83 25.5t61 79.5
l57 112h70l-84 -282l-58 -250h-69l6 117q4 57 -13.5 77.5t-68.5 22.5l-250 8l-131 -467q-18 -68 6.5 -98.5t97.5 -30.5h353q86 0 149.5 31t147.5 133l145 176h70l-203 -444q-266 10 -385 10h-549zM670 1614l327 360h107l180 -360l-51 -37l-201 235h-4l-319 -233z" />
    <glyph glyph-name="Edieresis" unicode="&#xcb;" horiz-adv-x="1466" 
d="M-49 -10l20 73l113 21q57 10 85 31.5t42 66.5q63 195 166 533q102 338 151 534q10 51 -3 70.5t-66 30.5l-103 20l25 74l303 -10h483l326 22q-53 -125 -160 -416h-73l6 101q6 102 -14.5 151t-80.5 49h-378q-33 0 -43 -32l-166 -537q121 2 241 8q53 4 83 25.5t61 79.5
l57 112h70l-84 -282l-58 -250h-69l6 117q4 57 -13.5 77.5t-68.5 22.5l-250 8l-131 -467q-18 -68 6.5 -98.5t97.5 -30.5h353q86 0 149.5 31t147.5 133l145 176h70l-203 -444q-266 10 -385 10h-549zM659 1771.5q0 59.5 41 99.5t98.5 40t98.5 -40t41 -99.5t-41 -99.5t-98.5 -40
t-98.5 40t-41 99.5zM1042 1771.5q0 59.5 40 99.5t99.5 40t99.5 -40t40 -99.5t-40 -99.5t-99.5 -40t-99.5 40t-40 99.5z" />
    <glyph glyph-name="Igrave" unicode="&#xcc;" horiz-adv-x="811" 
d="M-49 -10l22 73l111 21q57 10 84 30.5t45 67.5q61 195 164 533l151 534q12 51 -2 71.5t-65 29.5l-125 20l26 74l322 -10l313 10l-24 -74l-115 -20q-59 -10 -82.5 -28.5t-46.5 -72.5q-61 -197 -164 -534q-45 -150 -83 -283t-52 -190l-14 -60q-14 -45 -1 -67.5t64 -30.5
l127 -21l-24 -73l-322 10zM362 1962h236l184 -375l-77 -12z" />
    <glyph glyph-name="Iacute" unicode="&#xcd;" horiz-adv-x="811" 
d="M-49 -10l22 73l111 21q57 10 84 30.5t45 67.5q61 195 164 533l151 534q12 51 -2 71.5t-65 29.5l-125 20l26 74l322 -10l313 10l-24 -74l-115 -20q-59 -10 -82.5 -28.5t-46.5 -72.5q-61 -197 -164 -534q-45 -150 -83 -283t-52 -190l-14 -60q-14 -45 -1 -67.5t64 -30.5
l127 -21l-24 -73l-322 10zM600 1587l266 375h236l-424 -387z" />
    <glyph glyph-name="Icircumflex" unicode="&#xce;" horiz-adv-x="811" 
d="M-49 -10l22 73l111 21q57 10 84 30.5t45 67.5q61 195 164 533l151 534q12 51 -2 71.5t-65 29.5l-125 20l26 74l322 -10l313 10l-24 -74l-115 -20q-59 -10 -82.5 -28.5t-46.5 -72.5q-61 -197 -164 -534q-45 -150 -83 -283t-52 -190l-14 -60q-14 -45 -1 -67.5t64 -30.5
l127 -21l-24 -73l-322 10zM418 1614l327 360h107l180 -360l-51 -37l-201 235h-4l-319 -233z" />
    <glyph glyph-name="Idieresis" unicode="&#xcf;" horiz-adv-x="811" 
d="M-49 -10l22 73l111 21q57 10 84 30.5t45 67.5q61 195 164 533l151 534q12 51 -2 71.5t-65 29.5l-125 20l26 74l322 -10l313 10l-24 -74l-115 -20q-59 -10 -82.5 -28.5t-46.5 -72.5q-61 -197 -164 -534q-45 -150 -83 -283t-52 -190l-14 -60q-14 -45 -1 -67.5t64 -30.5
l127 -21l-24 -73l-322 10zM397 1771.5q0 59.5 41 99.5t98.5 40t98.5 -40t41 -99.5t-41 -99.5t-98.5 -40t-98.5 40t-41 99.5zM780 1771.5q0 59.5 40 99.5t99.5 40t99.5 -40t40 -99.5t-40 -99.5t-99.5 -40t-99.5 40t-40 99.5z" />
    <glyph glyph-name="Eth" unicode="&#xd0;" horiz-adv-x="1765" 
d="M-49 -10l22 73l111 21q57 10 84 30.5t45 67.5q57 184 156 504h-224l29 90h221l133 473q12 49 -2 69.5t-67 31.5l-144 20l25 74l344 -10q256 20 373 20q283 0 471 -172t188 -457q0 -238 -125 -432t-339 -305t-468 -111q-39 0 -524 23zM424 223q-27 -90 29.5 -121.5
t193.5 -33.5h117q344 0 537.5 203.5t193.5 529.5q0 246 -145.5 403.5t-403.5 157.5q-37 0 -82 1t-65 1q-25 0 -32 -7t-13 -26l-166 -555h530l-28 -90h-529z" />
    <glyph glyph-name="Ntilde" unicode="&#xd1;" horiz-adv-x="1703" 
d="M-61 -10l22 73l113 21q57 10 83.5 30.5t43.5 67.5q172 518 334 1067q14 47 0.5 69.5t-64.5 31.5l-119 20l25 74l274 -10l164 10q14 -90 37 -144l436 -985q111 434 232 934q12 49 -1.5 69.5t-64.5 31.5l-104 20l26 74l264 -10l269 10l-25 -74l-115 -20q-61 -10 -87.5 -31
t-41.5 -70q-145 -543 -360 -1259h-74q-152 365 -295 686t-211 461l-65 139q-231 -823 -307 -1094q-14 -47 -1 -67.5t66 -30.5l146 -21l-25 -73l-324 10zM856 1665q84 190 217 190q47 0 133 -36.5t119 -36.5q41 0 68.5 15t64.5 67l31 -23q-41 -88 -90 -138t-125 -50
q-53 0 -135 34.5t-107 34.5q-88 0 -145 -80z" />
    <glyph glyph-name="Ograve" unicode="&#xd2;" horiz-adv-x="1677" 
d="M164 567q0 231 116.5 437t324.5 333t454 127q242 0 414 -160.5t172 -437.5q0 -231 -117 -437t-323 -333t-447 -127q-244 0 -419 161t-175 437zM367 522q0 -223 123.5 -339.5t308.5 -116.5q170 0 303 92t203.5 230t105.5 273.5t35 249.5q0 223 -126 340t-310 117
q-137 0 -251 -62.5t-184.5 -156.5t-119.5 -212t-68.5 -222.5t-19.5 -192.5zM862 1962h236l184 -375l-78 -12z" />
    <glyph glyph-name="Oacute" unicode="&#xd3;" horiz-adv-x="1677" 
d="M164 567q0 231 116.5 437t324.5 333t454 127q242 0 414 -160.5t172 -437.5q0 -231 -117 -437t-323 -333t-447 -127q-244 0 -419 161t-175 437zM367 522q0 -223 123.5 -339.5t308.5 -116.5q170 0 303 92t203.5 230t105.5 273.5t35 249.5q0 223 -126 340t-310 117
q-137 0 -251 -62.5t-184.5 -156.5t-119.5 -212t-68.5 -222.5t-19.5 -192.5zM895 1587l266 375h236l-424 -387z" />
    <glyph glyph-name="Ocircumflex" unicode="&#xd4;" horiz-adv-x="1677" 
d="M164 567q0 231 116.5 437t324.5 333t454 127q242 0 414 -160.5t172 -437.5q0 -231 -117 -437t-323 -333t-447 -127q-244 0 -419 161t-175 437zM367 522q0 -223 123.5 -339.5t308.5 -116.5q170 0 303 92t203.5 230t105.5 273.5t35 249.5q0 223 -126 340t-310 117
q-137 0 -251 -62.5t-184.5 -156.5t-119.5 -212t-68.5 -222.5t-19.5 -192.5zM754 1614l327 360h107l180 -360l-51 -37l-201 235h-4l-319 -233z" />
    <glyph glyph-name="Otilde" unicode="&#xd5;" horiz-adv-x="1677" 
d="M164 567q0 231 116.5 437t324.5 333t454 127q242 0 414 -160.5t172 -437.5q0 -231 -117 -437t-323 -333t-447 -127q-244 0 -419 161t-175 437zM367 522q0 -223 123.5 -339.5t308.5 -116.5q170 0 303 92t203.5 230t105.5 273.5t35 249.5q0 223 -126 340t-310 117
q-137 0 -251 -62.5t-184.5 -156.5t-119.5 -212t-68.5 -222.5t-19.5 -192.5zM795 1665q84 190 217 190q47 0 133 -36.5t119 -36.5q41 0 68.5 15t64.5 67l30 -23q-41 -88 -90 -138t-125 -50q-53 0 -135 34.5t-106 34.5q-88 0 -146 -80z" />
    <glyph glyph-name="Odieresis" unicode="&#xd6;" horiz-adv-x="1677" 
d="M164 567q0 231 116.5 437t324.5 333t454 127q242 0 414 -160.5t172 -437.5q0 -231 -117 -437t-323 -333t-447 -127q-244 0 -419 161t-175 437zM367 522q0 -223 123.5 -339.5t308.5 -116.5q170 0 303 92t203.5 230t105.5 273.5t35 249.5q0 223 -126 340t-310 117
q-137 0 -251 -62.5t-184.5 -156.5t-119.5 -212t-68.5 -222.5t-19.5 -192.5zM778 1771.5q0 59.5 41 99.5t98.5 40t98.5 -40t41 -99.5t-41 -99.5t-98.5 -40t-98.5 40t-41 99.5zM1161 1771.5q0 59.5 40 99.5t99.5 40t99.5 -40t40 -99.5t-40 -99.5t-99.5 -40t-99.5 40t-40 99.5z
" />
    <glyph glyph-name="multiply" unicode="&#xd7;" 
d="M160 365l461 385l-254 385l73 47l248 -375l445 373l47 -68l-445 -373l260 -387l-69 -57l-260 387l-463 -385z" />
    <glyph glyph-name="Oslash" unicode="&#xd8;" horiz-adv-x="1677" 
d="M150 -158l217 264q-203 166 -203 461q0 231 116.5 437t324.5 333t454 127q190 0 340 -102l219 264l65 -55l-219 -260q180 -170 181 -445q0 -231 -117 -437t-323 -333t-447 -127q-172 0 -322 86l-219 -268zM367 522q0 -184 92 -303l854 1038q-121 111 -303 111
q-137 0 -251 -62.5t-184.5 -156.5t-119.5 -212t-68.5 -222.5t-19.5 -192.5zM518 156q115 -90 281 -90q170 0 303 92t203.5 230t105.5 273.5t35 249.5q0 166 -78 281z" />
    <glyph glyph-name="Ugrave" unicode="&#xd9;" horiz-adv-x="1734" 
d="M272 512l220 737q14 49 -2.5 69.5t-67.5 31.5l-123 20l25 74l323 -10l311 10l-24 -74l-111 -20q-61 -10 -87.5 -31t-41.5 -70l-219 -733q-31 -119 -14.5 -202t77 -135t135.5 -75.5t161 -23.5q125 0 219 39t155.5 114.5t97 151.5t72.5 184q106 330 197 680q12 49 -2 69.5
t-66 31.5l-123 20l25 74l285 -10l262 10l-23 -74l-116 -20q-59 -10 -86 -31t-41 -70l-211 -698q-88 -297 -247 -439.5t-462 -142.5q-285 0 -429.5 146.5t-68.5 396.5zM911 1962h236l184 -375l-78 -12z" />
    <glyph glyph-name="Uacute" unicode="&#xda;" horiz-adv-x="1734" 
d="M272 512l220 737q14 49 -2.5 69.5t-67.5 31.5l-123 20l25 74l323 -10l311 10l-24 -74l-111 -20q-61 -10 -87.5 -31t-41.5 -70l-219 -733q-31 -119 -14.5 -202t77 -135t135.5 -75.5t161 -23.5q125 0 219 39t155.5 114.5t97 151.5t72.5 184q106 330 197 680q12 49 -2 69.5
t-66 31.5l-123 20l25 74l285 -10l262 10l-23 -74l-116 -20q-59 -10 -86 -31t-41 -70l-211 -698q-88 -297 -247 -439.5t-462 -142.5q-285 0 -429.5 146.5t-68.5 396.5zM1022 1587l266 375h236l-424 -387z" />
    <glyph glyph-name="Ucircumflex" unicode="&#xdb;" horiz-adv-x="1734" 
d="M272 512l220 737q14 49 -2.5 69.5t-67.5 31.5l-123 20l25 74l323 -10l311 10l-24 -74l-111 -20q-61 -10 -87.5 -31t-41.5 -70l-219 -733q-31 -119 -14.5 -202t77 -135t135.5 -75.5t161 -23.5q125 0 219 39t155.5 114.5t97 151.5t72.5 184q106 330 197 680q12 49 -2 69.5
t-66 31.5l-123 20l25 74l285 -10l262 10l-23 -74l-116 -20q-59 -10 -86 -31t-41 -70l-211 -698q-88 -297 -247 -439.5t-462 -142.5q-285 0 -429.5 146.5t-68.5 396.5zM852 1614l328 360h106l180 -360l-51 -37l-201 235h-4l-319 -233z" />
    <glyph glyph-name="Udieresis" unicode="&#xdc;" horiz-adv-x="1734" 
d="M272 512l220 737q14 49 -2.5 69.5t-67.5 31.5l-123 20l25 74l323 -10l311 10l-24 -74l-111 -20q-61 -10 -87.5 -31t-41.5 -70l-219 -733q-31 -119 -14.5 -202t77 -135t135.5 -75.5t161 -23.5q125 0 219 39t155.5 114.5t97 151.5t72.5 184q106 330 197 680q12 49 -2 69.5
t-66 31.5l-123 20l25 74l285 -10l262 10l-23 -74l-116 -20q-59 -10 -86 -31t-41 -70l-211 -698q-88 -297 -247 -439.5t-462 -142.5q-285 0 -429.5 146.5t-68.5 396.5zM891 1771.5q0 59.5 40 99.5t99.5 40t99 -40t39.5 -99.5t-39.5 -99.5t-99 -40t-99.5 40t-40 99.5z
M1274 1771.5q0 59.5 41 99.5t98 40t98 -40t41 -99.5t-41 -99.5t-98 -40t-98 40t-41 99.5z" />
    <glyph glyph-name="Yacute" unicode="&#xdd;" horiz-adv-x="1650" 
d="M219 1309q25 72 102.5 113.5t178.5 41.5q102 0 175 -44t112.5 -119.5t57 -163.5t17.5 -193q0 -150 -33 -309l29 -6q334 836 758 835q102 0 165.5 -56t63.5 -136q0 -57 -43 -113.5t-119 -87.5l-71 8q80 49 80 121q0 51 -32 83t-89 32q-131 0 -280.5 -149.5t-261 -348.5
t-191.5 -411q-68 -186 -68 -271q0 -27 12.5 -36t48.5 -15l125 -21l-24 -73l-285 10l-358 -10l22 73l121 21q63 10 92 30.5t45 67.5q49 139 88 341t39 358q0 205 -87 326.5t-275 121.5q-49 0 -115 -20zM940 1587l266 375h236l-424 -387z" />
    <glyph glyph-name="Thorn" unicode="&#xde;" horiz-adv-x="1374" 
d="M-131 -236l20 74l115 21q55 10 82 31.5t43 66.5q61 195 164 532l219 760q12 51 -1 70.5t-65 30.5l-124 20l26 74l322 -10l313 10l-25 -74l-114 -20q-59 -10 -83 -28.5t-46 -72.5q-33 -100 -70 -221q98 18 207 19q221 0 345 -122t124 -304q0 -201 -129 -326t-313 -125
q-141 0 -223.5 60.5t-82.5 129.5q0 35 25 59.5t59 24.5q29 0 49.5 -19t20.5 -48q0 -33 -22.5 -56.5t-51.5 -31.5q70 -41 150 -41q129 0 225 97t96 271q0 176 -106.5 257t-241.5 81h-153l-140 -465q-45 -150 -81.5 -282.5t-51.5 -190.5l-14 -59q-14 -45 0 -67.5t65 -30.5
l125 -21l-20 -74l-328 11z" />
    <glyph glyph-name="germandbls" unicode="&#xdf;" horiz-adv-x="1064" 
d="M-387 -406q0 41 29.5 72t81.5 31q20 0 37.5 -15.5t19.5 -37.5l2 -62q0 -47 41 -47q51 0 94 82t105 291q51 176 149 502.5t141 470.5h-184l23 67h184q186 651 536 651q133 0 199 -66.5t66 -176.5q0 -90 -53.5 -170t-116 -127t-115.5 -108.5t-53 -121.5q0 -53 63.5 -268
t63.5 -313q0 -123 -76 -201t-205 -78q-96 0 -158.5 54.5t-62.5 119.5q0 41 27.5 67t60.5 26q37 0 57.5 -23t20.5 -53.5t-19.5 -54t-56.5 -27.5q27 -43 102 -43q57 0 97.5 46t40.5 124t-55.5 289t-55.5 256q0 41 54.5 114.5t120 145t119.5 172t54 186.5q0 72 -35.5 116
t-105.5 44q-35 0 -66.5 -16.5t-59.5 -56.5t-48.5 -74.5t-47 -107.5t-41 -116t-43 -138t-42.5 -138l-258 -803q-111 -338 -213.5 -473t-263.5 -135q-74 0 -114 36.5t-40 87.5z" />
    <glyph glyph-name="agrave" unicode="&#xe0;" horiz-adv-x="1130" 
d="M37 145q0 100 47 243.5t123 282t188.5 234.5t227.5 96q135 0 235 -112l47 84q41 25 90 24.5t64 -10.5q-47 -143 -136 -413.5t-153 -464.5q4 -2 6 -8.5t6 -10.5q45 14 120 83t114 130l39 -39q-49 -102 -168 -198.5t-211 -96.5q-90 0 -90 74q0 55 159 469l-12 10
q-322 -553 -545 -553q-151 0 -151 176zM225 139q0 -18 12.5 -33.5t32.5 -15.5q55 0 170 125t220.5 289t142.5 272q-14 68 -58.5 114t-93.5 46q-80 0 -160.5 -100.5t-137 -235.5t-92.5 -265t-36 -196zM410 1507h235l184 -374l-77 -13z" />
    <glyph glyph-name="aacute" unicode="&#xe1;" horiz-adv-x="1130" 
d="M37 145q0 100 47 243.5t123 282t188.5 234.5t227.5 96q135 0 235 -112l47 84q41 25 90 24.5t64 -10.5q-47 -143 -136 -413.5t-153 -464.5q4 -2 6 -8.5t6 -10.5q45 14 120 83t114 130l39 -39q-49 -102 -168 -198.5t-211 -96.5q-90 0 -90 74q0 55 159 469l-12 10
q-322 -553 -545 -553q-151 0 -151 176zM225 139q0 -18 12.5 -33.5t32.5 -15.5q55 0 170 125t220.5 289t142.5 272q-14 68 -58.5 114t-93.5 46q-80 0 -160.5 -100.5t-137 -235.5t-92.5 -265t-36 -196zM559 1133l266 374h236l-424 -387z" />
    <glyph glyph-name="acircumflex" unicode="&#xe2;" horiz-adv-x="1130" 
d="M37 145q0 100 47 243.5t123 282t188.5 234.5t227.5 96q135 0 235 -112l47 84q41 25 90 24.5t64 -10.5q-47 -143 -136 -413.5t-153 -464.5q4 -2 6 -8.5t6 -10.5q45 14 120 83t114 130l39 -39q-49 -102 -168 -198.5t-211 -96.5q-90 0 -90 74q0 55 159 469l-12 10
q-322 -553 -545 -553q-151 0 -151 176zM225 139q0 -18 12.5 -33.5t32.5 -15.5q55 0 170 125t220.5 289t142.5 272q-14 68 -58.5 114t-93.5 46q-80 0 -160.5 -100.5t-137 -235.5t-92.5 -265t-36 -196zM399 1159l328 361h107l180 -361l-51 -37l-201 236h-4l-320 -234z" />
    <glyph glyph-name="atilde" unicode="&#xe3;" horiz-adv-x="1130" 
d="M37 145q0 100 47 243.5t123 282t188.5 234.5t227.5 96q135 0 235 -112l47 84q41 25 90 24.5t64 -10.5q-47 -143 -136 -413.5t-153 -464.5q4 -2 6 -8.5t6 -10.5q45 14 120 83t114 130l39 -39q-49 -102 -168 -198.5t-211 -96.5q-90 0 -90 74q0 55 159 469l-12 10
q-322 -553 -545 -553q-151 0 -151 176zM225 139q0 -18 12.5 -33.5t32.5 -15.5q55 0 170 125t220.5 289t142.5 272q-14 68 -58.5 114t-93.5 46q-80 0 -160.5 -100.5t-137 -235.5t-92.5 -265t-36 -196zM487 1210q84 190 218 191q47 0 133 -37t118 -37q41 0 69 15.5t65 66.5
l30 -23q-41 -88 -90 -138t-125 -50q-53 0 -135 35t-106 35q-88 0 -146 -80z" />
    <glyph glyph-name="adieresis" unicode="&#xe4;" horiz-adv-x="1130" 
d="M37 145q0 100 47 243.5t123 282t188.5 234.5t227.5 96q135 0 235 -112l47 84q41 25 90 24.5t64 -10.5q-47 -143 -136 -413.5t-153 -464.5q4 -2 6 -8.5t6 -10.5q45 14 120 83t114 130l39 -39q-49 -102 -168 -198.5t-211 -96.5q-90 0 -90 74q0 55 159 469l-12 10
q-322 -553 -545 -553q-151 0 -151 176zM225 139q0 -18 12.5 -33.5t32.5 -15.5q55 0 170 125t220.5 289t142.5 272q-14 68 -58.5 114t-93.5 46q-80 0 -160.5 -100.5t-137 -235.5t-92.5 -265t-36 -196zM457 1316.5q0 59.5 40 99.5t99 40t99 -40t40 -99.5t-40 -99t-99 -39.5
t-99 39.5t-40 99zM840 1316.5q0 59.5 41 99.5t98 40t98 -40t41 -99.5t-41 -99t-98 -39.5t-98 39.5t-41 99z" />
    <glyph glyph-name="aring" unicode="&#xe5;" horiz-adv-x="1130" 
d="M37 145q0 100 47 243.5t123 282t188.5 234.5t227.5 96q135 0 235 -112l47 84q41 25 90 24.5t64 -10.5q-47 -143 -136 -413.5t-153 -464.5q4 -2 6 -8.5t6 -10.5q45 14 120 83t114 130l39 -39q-49 -102 -168 -198.5t-211 -96.5q-90 0 -90 74q0 55 159 469l-12 10
q-322 -553 -545 -553q-151 0 -151 176zM225 139q0 -18 12.5 -33.5t32.5 -15.5q55 0 170 125t220.5 289t142.5 272q-14 68 -58.5 114t-93.5 46q-80 0 -160.5 -100.5t-137 -235.5t-92.5 -265t-36 -196zM530 1327q0 92 63.5 154.5t156.5 62.5q94 0 157.5 -61.5t63.5 -155.5
t-63.5 -156.5t-157.5 -62.5q-92 0 -156 63.5t-64 155.5zM600 1327q0 -72 40 -116t110 -44q72 0 112.5 45t40.5 115t-41 115t-112 45q-70 0 -110 -44t-40 -116z" />
    <glyph glyph-name="ae" unicode="&#xe6;" horiz-adv-x="1382" 
d="M37 145q0 100 50 245t130 281t195.5 233t230.5 97q141 0 238 -124q152 125 311 124q100 0 157.5 -46t57.5 -130q0 -129 -183.5 -229t-428.5 -117q-31 -90 -31 -172q0 -102 45 -156.5t123 -54.5q76 0 135 58.5t78 138.5l47 -43q-23 -109 -110 -195t-234 -86
q-109 0 -189.5 75t-80.5 235q-223 -309 -390 -310q-151 0 -151 176zM225 139q0 -18 12.5 -33.5t32.5 -15.5q45 0 135.5 90t186.5 226q45 215 205 391q-43 139 -125 139q-102 0 -212 -166t-172.5 -352.5t-62.5 -278.5zM817 545q180 18 306 110.5t126 192.5q0 37 -23.5 59.5
t-62.5 22.5q-98 0 -190.5 -112.5t-155.5 -272.5z" />
    <glyph glyph-name="ccedilla" unicode="&#xe7;" horiz-adv-x="837" 
d="M-98 -508l28 59q80 -39 166 -38q162 0 162 131q0 29 -18.5 56.5t-53 49t-59.5 33.5t-61 29l-39 14l219 154q-82 23 -137.5 93t-55.5 193q0 160 81 329t226.5 287.5t307.5 118.5q98 0 152 -40.5t54 -108.5q0 -61 -59 -118.5t-117 -65.5l-45 34q43 115 43 175q0 47 -43 47
q-92 0 -190 -101.5t-160.5 -245t-62.5 -264.5q0 -106 44 -161.5t122 -55.5q76 0 136 59.5t79 139.5l59 -47q-20 -100 -113.5 -188.5t-240.5 -90.5l-105 -96q98 -31 149.5 -86t51.5 -121q0 -92 -76 -158.5t-221 -66.5q-133 0 -223 51z" />
    <glyph glyph-name="egrave" unicode="&#xe8;" horiz-adv-x="858" 
d="M53 279q0 158 84 324.5t229.5 282t301.5 115.5q100 0 157.5 -46t57.5 -130q0 -129 -183.5 -229t-429.5 -117q-31 -90 -30 -172q0 -102 45 -156.5t123 -54.5q76 0 135 58.5t78 138.5l47 -43q-23 -109 -110 -195t-234 -86q-109 0 -190 75t-81 235zM293 545
q180 18 306 110.5t126 192.5q0 37 -23.5 59.5t-62.5 22.5q-98 0 -190.5 -112.5t-155.5 -272.5zM354 1507h236l184 -374l-78 -13z" />
    <glyph glyph-name="eacute" unicode="&#xe9;" horiz-adv-x="858" 
d="M53 279q0 158 84 324.5t229.5 282t301.5 115.5q100 0 157.5 -46t57.5 -130q0 -129 -183.5 -229t-429.5 -117q-31 -90 -30 -172q0 -102 45 -156.5t123 -54.5q76 0 135 58.5t78 138.5l47 -43q-23 -109 -110 -195t-234 -86q-109 0 -190 75t-81 235zM293 545
q180 18 306 110.5t126 192.5q0 37 -23.5 59.5t-62.5 22.5q-98 0 -190.5 -112.5t-155.5 -272.5zM524 1133l267 374h235l-424 -387z" />
    <glyph glyph-name="ecircumflex" unicode="&#xea;" horiz-adv-x="858" 
d="M53 279q0 158 84 324.5t229.5 282t301.5 115.5q100 0 157.5 -46t57.5 -130q0 -129 -183.5 -229t-429.5 -117q-31 -90 -30 -172q0 -102 45 -156.5t123 -54.5q76 0 135 58.5t78 138.5l47 -43q-23 -109 -110 -195t-234 -86q-109 0 -190 75t-81 235zM291 1159l327 361h107
l180 -361l-51 -37l-201 236h-4l-319 -234zM293 545q180 18 306 110.5t126 192.5q0 37 -23.5 59.5t-62.5 22.5q-98 0 -190.5 -112.5t-155.5 -272.5z" />
    <glyph glyph-name="edieresis" unicode="&#xeb;" horiz-adv-x="858" 
d="M53 279q0 158 84 324.5t229.5 282t301.5 115.5q100 0 157.5 -46t57.5 -130q0 -129 -183.5 -229t-429.5 -117q-31 -90 -30 -172q0 -102 45 -156.5t123 -54.5q76 0 135 58.5t78 138.5l47 -43q-23 -109 -110 -195t-234 -86q-109 0 -190 75t-81 235zM293 545
q180 18 306 110.5t126 192.5q0 37 -23.5 59.5t-62.5 22.5q-98 0 -190.5 -112.5t-155.5 -272.5zM371 1316.5q0 59.5 40 99.5t99 40t99 -40t40 -99.5t-40 -99t-99 -39.5t-99 39.5t-40 99zM754 1316.5q0 59.5 41 99.5t98 40t98 -40t41 -99.5t-41 -99t-98 -39.5t-98 39.5t-41 99
z" />
    <glyph glyph-name="igrave" unicode="&#xec;" horiz-adv-x="602" 
d="M49 27q0 45 158 436t158 409q0 27 -25 27t-66 -36t-69 -72l-29 -35l-39 30q4 8 12.5 22.5t37 52.5t59 65.5t79 51t97.5 23.5q47 0 78.5 -30.5t31.5 -81.5q0 -29 -44 -144.5t-111.5 -278.5t-93.5 -235l-45 -122l8 -17q55 14 134 82t122 129l37 -37q-51 -109 -182.5 -203
t-231.5 -94q-35 0 -55.5 16.5t-20.5 41.5zM276 1507h236l184 -374l-78 -13z" />
    <glyph glyph-name="iacute" unicode="&#xed;" horiz-adv-x="602" 
d="M49 27q0 45 158 436t158 409q0 27 -25 27t-66 -36t-69 -72l-29 -35l-39 30q4 8 12.5 22.5t37 52.5t59 65.5t79 51t97.5 23.5q47 0 78.5 -30.5t31.5 -81.5q0 -29 -44 -144.5t-111.5 -278.5t-93.5 -235l-45 -122l8 -17q55 14 134 82t122 129l37 -37q-51 -109 -182.5 -203
t-231.5 -94q-35 0 -55.5 16.5t-20.5 41.5zM233 1133l267 374h235l-424 -387z" />
    <glyph glyph-name="icircumflex" unicode="&#xee;" horiz-adv-x="602" 
d="M49 27q0 45 158 436t158 409q0 27 -25 27t-66 -36t-69 -72l-29 -35l-39 30q4 8 12.5 22.5t37 52.5t59 65.5t79 51t97.5 23.5q47 0 78.5 -30.5t31.5 -81.5q0 -29 -44 -144.5t-111.5 -278.5t-93.5 -235l-45 -122l8 -17q55 14 134 82t122 129l37 -37q-51 -109 -182.5 -203
t-231.5 -94q-35 0 -55.5 16.5t-20.5 41.5zM186 1159l328 361h107l180 -361l-51 -37l-201 236h-4l-320 -234z" />
    <glyph glyph-name="idieresis" unicode="&#xef;" horiz-adv-x="602" 
d="M49 27q0 45 158 436t158 409q0 27 -25 27t-66 -36t-69 -72l-29 -35l-39 30q4 8 12.5 22.5t37 52.5t59 65.5t79 51t97.5 23.5q47 0 78.5 -30.5t31.5 -81.5q0 -29 -44 -144.5t-111.5 -278.5t-93.5 -235l-45 -122l8 -17q55 14 134 82t122 129l37 -37q-51 -109 -182.5 -203
t-231.5 -94q-35 0 -55.5 16.5t-20.5 41.5zM207 1316.5q0 59.5 40 99.5t99.5 40t99 -40t39.5 -99.5t-39.5 -99t-99 -39.5t-99.5 39.5t-40 99zM590 1316.5q0 59.5 41 99.5t98 40t98 -40t41 -99.5t-41 -99t-98 -39.5t-98 39.5t-41 99z" />
    <glyph glyph-name="eth" unicode="&#xf0;" horiz-adv-x="985" 
d="M66 297q0 158 68.5 318.5t195.5 273t274 112.5q51 0 100.5 -30.5t69.5 -89.5l17 4q-33 203 -150 399l-188 -92l-15 72l164 82q-98 145 -178 206l47 43q121 -82 223 -204l236 116l14 -71l-205 -103q184 -262 185 -596q0 -125 -36 -256t-103.5 -246.5t-181.5 -190.5
t-251 -75q-127 0 -206.5 83t-79.5 245zM246 281q0 -55 12 -104.5t49 -90.5t96 -41q94 0 175 112.5t123 263t42 279.5q0 221 -143 222q-98 0 -183 -110t-128 -255t-43 -276z" />
    <glyph glyph-name="ntilde" unicode="&#xf1;" horiz-adv-x="1163" 
d="M51 -10q283 752 283 876q0 33 -23 33q-25 0 -65.5 -36t-69.5 -72l-29 -35l-38 30q4 8 12 22.5t36.5 52.5t60.5 65.5t82 51t101 23.5q55 0 85 -36.5t30 -92.5q0 -172 -197 -528l15 -10q76 133 183.5 277.5t244.5 267t231 122.5q49 0 75 -27.5t26 -72.5q0 -72 -158 -431
t-158 -361l6 -17q45 14 120 82t114 129l39 -37q-53 -111 -173 -204t-218 -93q-37 0 -60.5 18.5t-23.5 43.5q0 53 170 415.5t170 399.5q0 23 -21 22q-76 0 -306 -278.5t-282 -384.5l-49 -170q-49 -51 -166 -51q-29 0 -47 6zM426 1210q84 190 217 191q47 0 133 -37t119 -37
q41 0 68.5 15.5t64.5 66.5l31 -23q-41 -88 -90 -138t-125 -50q-53 0 -135 35t-107 35q-88 0 -145 -80z" />
    <glyph glyph-name="ograve" unicode="&#xf2;" horiz-adv-x="989" 
d="M66 297q0 160 70.5 319.5t206.5 272t302 112.5q121 0 199 -91t78 -226q0 -162 -67 -323.5t-201 -276.5t-302 -115q-127 0 -206.5 83t-79.5 245zM246 281q0 -55 12 -104.5t49 -90.5t96 -41q94 0 174 112.5t122 262t42 280.5q0 221 -141 222q-98 0 -183 -110t-128 -255
t-43 -276zM379 1507h235l185 -374l-78 -13z" />
    <glyph glyph-name="oacute" unicode="&#xf3;" horiz-adv-x="989" 
d="M66 297q0 160 70.5 319.5t206.5 272t302 112.5q121 0 199 -91t78 -226q0 -162 -67 -323.5t-201 -276.5t-302 -115q-127 0 -206.5 83t-79.5 245zM246 281q0 -55 12 -104.5t49 -90.5t96 -41q94 0 174 112.5t122 262t42 280.5q0 221 -141 222q-98 0 -183 -110t-128 -255
t-43 -276zM489 1133l267 374h235l-424 -387z" />
    <glyph glyph-name="ocircumflex" unicode="&#xf4;" horiz-adv-x="989" 
d="M66 297q0 160 70.5 319.5t206.5 272t302 112.5q121 0 199 -91t78 -226q0 -162 -67 -323.5t-201 -276.5t-302 -115q-127 0 -206.5 83t-79.5 245zM246 281q0 -55 12 -104.5t49 -90.5t96 -41q94 0 174 112.5t122 262t42 280.5q0 221 -141 222q-98 0 -183 -110t-128 -255
t-43 -276zM362 1159l328 361h107l180 -361l-51 -37l-201 236h-4l-320 -234z" />
    <glyph glyph-name="otilde" unicode="&#xf5;" horiz-adv-x="989" 
d="M66 297q0 160 70.5 319.5t206.5 272t302 112.5q121 0 199 -91t78 -226q0 -162 -67 -323.5t-201 -276.5t-302 -115q-127 0 -206.5 83t-79.5 245zM246 281q0 -55 12 -104.5t49 -90.5t96 -41q94 0 174 112.5t122 262t42 280.5q0 221 -141 222q-98 0 -183 -110t-128 -255
t-43 -276zM332 1210q84 190 217 191q47 0 133 -37t119 -37q41 0 68.5 15.5t64.5 66.5l31 -23q-41 -88 -90.5 -138t-124.5 -50q-53 0 -135.5 35t-106.5 35q-88 0 -146 -80z" />
    <glyph glyph-name="odieresis" unicode="&#xf6;" horiz-adv-x="989" 
d="M66 297q0 160 70.5 319.5t206.5 272t302 112.5q121 0 199 -91t78 -226q0 -162 -67 -323.5t-201 -276.5t-302 -115q-127 0 -206.5 83t-79.5 245zM246 281q0 -55 12 -104.5t49 -90.5t96 -41q94 0 174 112.5t122 262t42 280.5q0 221 -141 222q-98 0 -183 -110t-128 -255
t-43 -276zM348 1316.5q0 59.5 41 99.5t98.5 40t98.5 -40t41 -99.5t-41 -99t-98.5 -39.5t-98.5 39.5t-41 99zM731 1316.5q0 59.5 40 99.5t99.5 40t99.5 -40t40 -99.5t-40 -99t-99.5 -39.5t-99.5 39.5t-40 99z" />
    <glyph glyph-name="divide" unicode="&#xf7;" 
d="M213 688l20 80h900l-21 -80h-899zM446 389.5q0 59.5 41 101t100.5 41.5t100.5 -41.5t41 -101t-41 -101.5t-100.5 -42t-100.5 42t-41 101.5zM590 1067q0 59 41 101t100.5 42t100 -42t40.5 -101t-40.5 -101t-100 -42t-100.5 42t-41 101z" />
    <glyph glyph-name="oslash" unicode="&#xf8;" horiz-adv-x="985" 
d="M-82 -72l182 191q-35 74 -34 178q0 160 70.5 319.5t206.5 272t302 112.5q127 0 207 -100l201 211l47 -53l-211 -219q33 -76 33 -156q0 -162 -67 -323.5t-201 -276.5t-302 -115q-137 0 -215 90l-172 -180zM246 270l489 512q-25 139 -135 140q-98 0 -183 -110t-128 -255
t-43 -276v-11zM256 182q35 -137 147 -137q92 0 172 109.5t122 256t44 277.5z" />
    <glyph glyph-name="ugrave" unicode="&#xf9;" horiz-adv-x="1165" 
d="M90 70q0 70 127 407.5t127 390.5q0 29 -22 29q-61 -2 -164 -141l-39 30l11 23q7 14 33.5 52t56.5 65.5t79 51t100 23.5q45 0 74 -31.5t33 -74.5q0 -86 -127 -413.5t-127 -356.5q0 -23 22 -23q74 0 289 274.5t273 391.5l45 168q49 49 166 49q35 0 47 -4
q-63 -168 -168 -498.5t-105 -376.5l6 -16q45 14 121 83t117 130l37 -39q-47 -102 -165 -198.5t-210 -96.5q-37 0 -55.5 20.5t-18.5 47.5q0 141 176 594l-16 10q-57 -102 -123.5 -202.5t-155 -214t-180.5 -184.5t-166 -71q-98 1 -98 101zM375 1507h235l185 -374l-78 -13z" />
    <glyph glyph-name="uacute" unicode="&#xfa;" horiz-adv-x="1165" 
d="M90 70q0 70 127 407.5t127 390.5q0 29 -22 29q-61 -2 -164 -141l-39 30l11 23q7 14 33.5 52t56.5 65.5t79 51t100 23.5q45 0 74 -31.5t33 -74.5q0 -86 -127 -413.5t-127 -356.5q0 -23 22 -23q74 0 289 274.5t273 391.5l45 168q49 49 166 49q35 0 47 -4
q-63 -168 -168 -498.5t-105 -376.5l6 -16q45 14 121 83t117 130l37 -39q-47 -102 -165 -198.5t-210 -96.5q-37 0 -55.5 20.5t-18.5 47.5q0 141 176 594l-16 10q-57 -102 -123.5 -202.5t-155 -214t-180.5 -184.5t-166 -71q-98 1 -98 101zM616 1133l267 374h235l-424 -387z
" />
    <glyph glyph-name="ucircumflex" unicode="&#xfb;" horiz-adv-x="1165" 
d="M90 70q0 70 127 407.5t127 390.5q0 29 -22 29q-61 -2 -164 -141l-39 30l11 23q7 14 33.5 52t56.5 65.5t79 51t100 23.5q45 0 74 -31.5t33 -74.5q0 -86 -127 -413.5t-127 -356.5q0 -23 22 -23q74 0 289 274.5t273 391.5l45 168q49 49 166 49q35 0 47 -4
q-63 -168 -168 -498.5t-105 -376.5l6 -16q45 14 121 83t117 130l37 -39q-47 -102 -165 -198.5t-210 -96.5q-37 0 -55.5 20.5t-18.5 47.5q0 141 176 594l-16 10q-57 -102 -123.5 -202.5t-155 -214t-180.5 -184.5t-166 -71q-98 1 -98 101zM418 1159l327 361h107l180 -361
l-51 -37l-201 236h-4l-319 -234z" />
    <glyph glyph-name="udieresis" unicode="&#xfc;" horiz-adv-x="1165" 
d="M90 70q0 70 127 407.5t127 390.5q0 29 -22 29q-61 -2 -164 -141l-39 30l11 23q7 14 33.5 52t56.5 65.5t79 51t100 23.5q45 0 74 -31.5t33 -74.5q0 -86 -127 -413.5t-127 -356.5q0 -23 22 -23q74 0 289 274.5t273 391.5l45 168q49 49 166 49q35 0 47 -4
q-63 -168 -168 -498.5t-105 -376.5l6 -16q45 14 121 83t117 130l37 -39q-47 -102 -165 -198.5t-210 -96.5q-37 0 -55.5 20.5t-18.5 47.5q0 141 176 594l-16 10q-57 -102 -123.5 -202.5t-155 -214t-180.5 -184.5t-166 -71q-98 1 -98 101zM424 1316.5q0 59.5 40 99.5t99.5 40
t99 -40t39.5 -99.5t-39.5 -99t-99 -39.5t-99.5 39.5t-40 99zM807 1316.5q0 59.5 41 99.5t98.5 40t98 -40t40.5 -99.5t-40.5 -99t-98 -39.5t-98.5 39.5t-41 99z" />
    <glyph glyph-name="yacute" unicode="&#xfd;" horiz-adv-x="980" 
d="M-414 -473q369 125 570 262q14 8 30.5 278.5t16.5 456.5q0 344 -45 404q16 20 69.5 46.5t77.5 26.5q53 0 67.5 -37.5t14.5 -156.5q0 -223 -14.5 -496.5t-28.5 -339.5l18 -12q90 98 190.5 228t201 312.5t100.5 295.5q0 49 -28.5 74.5t-71.5 25.5q-76 0 -119 -53
q74 -25 74 -82q0 -27 -20.5 -48.5t-49.5 -21.5q-35 0 -55.5 22.5t-20.5 59.5q0 82 89 155.5t192 73.5q156 0 155 -163q0 -90 -106.5 -280.5t-272 -402.5t-402 -417t-464.5 -305zM475 1133l266 374h236l-424 -387z" />
    <glyph glyph-name="thorn" unicode="&#xfe;" horiz-adv-x="1069" 
d="M-305 -518l31 78l73 14q59 12 86 30.5t45 67.5q16 41 400 1170q-141 -45 -213 -72l-13 68q53 23 250 88l178 522q41 16 111 16q43 0 68 -6l-176 -491q145 35 256 34q127 0 188 -72.5t61 -166.5q0 -156 -91 -341t-244.5 -318.5t-307.5 -133.5q-29 0 -87 14.5t-89 30.5
q-23 -74 -55.5 -175t-48 -151t-15.5 -61q0 -39 72 -49l139 -18l-30 -78l-306 10zM276 160q0 -53 76 -77t131 -24q70 0 156 105.5t147.5 265.5t61.5 301q0 178 -158 178q-68 0 -180 -24q-14 -51 -73.5 -229.5l-110 -330t-50.5 -165.5z" />
    <glyph glyph-name="ydieresis" unicode="&#xff;" horiz-adv-x="980" 
d="M-414 -473q369 125 570 262q14 8 30.5 278.5t16.5 456.5q0 344 -45 404q16 20 69.5 46.5t77.5 26.5q53 0 67.5 -37.5t14.5 -156.5q0 -223 -14.5 -496.5t-28.5 -339.5l18 -12q90 98 190.5 228t201 312.5t100.5 295.5q0 49 -28.5 74.5t-71.5 25.5q-76 0 -119 -53
q74 -25 74 -82q0 -27 -20.5 -48.5t-49.5 -21.5q-35 0 -55.5 22.5t-20.5 59.5q0 82 89 155.5t192 73.5q156 0 155 -163q0 -90 -106.5 -280.5t-272 -402.5t-402 -417t-464.5 -305zM309 1316.5q0 59.5 40 99.5t99.5 40t99.5 -40t40 -99.5t-40 -99t-99.5 -39.5t-99.5 39.5
t-40 99zM692 1316.5q0 59.5 41 99.5t98.5 40t98.5 -40t41 -99.5t-41 -99t-98.5 -39.5t-98.5 39.5t-41 99z" />
    <glyph glyph-name="OE" unicode="&#x152;" horiz-adv-x="2412" 
d="M174 608q0 238 125 432.5t339 305t468 110.5q86 0 261 -11t263 -11h479l326 22q-53 -125 -160 -416h-73l6 101q6 102 -14.5 151t-79.5 49h-379q-16 0 -25.5 -5t-11.5 -9t-6 -18l-162 -537q117 2 237 8q53 4 83 25.5t61 79.5l57 112h70l-84 -282l-58 -250h-69l6 117
q4 57 -13.5 77.5t-68.5 22.5l-248 8l-133 -467q-20 -66 4.5 -97.5t100.5 -31.5h352q86 0 149.5 31t147.5 133l145 176h70l-203 -444q-266 10 -385 10h-545q-256 -20 -372 -20q-283 0 -471.5 171.5t-188.5 456.5zM395 633q0 -246 145.5 -403.5t403.5 -157.5h88q90 0 101 34
l329 1104q27 90 -27.5 122t-191.5 34h-117q-344 0 -537.5 -203.5t-193.5 -529.5z" />
    <glyph glyph-name="oe" unicode="&#x153;" horiz-adv-x="1488" 
d="M66 297q0 119 38.5 242t108.5 226t178.5 169.5t233.5 66.5q96 0 167.5 -60t98.5 -159q74 98 184.5 158.5t222.5 60.5q100 0 157.5 -46t57.5 -130q0 -129 -183 -229t-429 -117q-31 -90 -31 -172q0 -102 45.5 -156.5t122.5 -54.5q76 0 135.5 58.5t77.5 138.5l47 -43
q-23 -109 -109.5 -195t-234.5 -86q-80 0 -148.5 41t-98.5 129q-150 -170 -355 -170q-127 0 -206.5 83t-79.5 245zM246 281q0 -55 12 -104.5t49 -90.5t96 -41q94 0 175 112.5t123 263t42 279.5q0 221 -143 222q-98 0 -183 -110t-128 -255t-43 -276zM924 545q180 18 306 110.5
t126 192.5q0 37 -23.5 59.5t-62.5 22.5q-98 0 -190.5 -112.5t-155.5 -272.5z" />
    <glyph glyph-name="Ydieresis" unicode="&#x178;" horiz-adv-x="1650" 
d="M219 1309q25 72 102.5 113.5t178.5 41.5q102 0 175 -44t112.5 -119.5t57 -163.5t17.5 -193q0 -150 -33 -309l29 -6q334 836 758 835q102 0 165.5 -56t63.5 -136q0 -57 -43 -113.5t-119 -87.5l-71 8q80 49 80 121q0 51 -32 83t-89 32q-131 0 -280.5 -149.5t-261 -348.5
t-191.5 -411q-68 -186 -68 -271q0 -27 12.5 -36t48.5 -15l125 -21l-24 -73l-285 10l-358 -10l22 73l121 21q63 10 92 30.5t45 67.5q49 139 88 341t39 358q0 205 -87 326.5t-275 121.5q-49 0 -115 -20zM743 1751q0 59 40 99t99.5 40t99.5 -40t40 -99t-40 -99t-99.5 -40
t-99.5 40t-40 99zM1126 1751q0 59 41 99t98.5 40t98.5 -40t41 -99t-41 -99t-98.5 -40t-98.5 40t-41 99z" />
    <glyph glyph-name="circumflex" unicode="&#x2c6;" horiz-adv-x="739" 
d="M281 1159l327 361h107l180 -361l-51 -37l-201 236h-4l-320 -234z" />
    <glyph glyph-name="tilde" unicode="&#x2dc;" horiz-adv-x="739" 
d="M299 1210q84 190 217 191q47 0 133 -37t119 -37q41 0 68.5 15.5t64.5 66.5l31 -23q-41 -88 -90 -138t-125 -50q-53 0 -135 35t-107 35q-88 0 -145 -80z" />
    <glyph glyph-name="uni2000" unicode="&#x2000;" horiz-adv-x="987" 
 />
    <glyph glyph-name="uni2001" unicode="&#x2001;" horiz-adv-x="1974" 
 />
    <glyph glyph-name="uni2002" unicode="&#x2002;" horiz-adv-x="987" 
 />
    <glyph glyph-name="uni2003" unicode="&#x2003;" horiz-adv-x="1974" 
 />
    <glyph glyph-name="uni2004" unicode="&#x2004;" horiz-adv-x="657" 
 />
    <glyph glyph-name="uni2005" unicode="&#x2005;" horiz-adv-x="493" 
 />
    <glyph glyph-name="uni2006" unicode="&#x2006;" horiz-adv-x="327" 
 />
    <glyph glyph-name="uni2007" unicode="&#x2007;" horiz-adv-x="327" 
 />
    <glyph glyph-name="uni2008" unicode="&#x2008;" horiz-adv-x="245" 
 />
    <glyph glyph-name="uni2009" unicode="&#x2009;" horiz-adv-x="393" 
 />
    <glyph glyph-name="uni200A" unicode="&#x200a;" horiz-adv-x="108" 
 />
    <glyph glyph-name="uni2010" unicode="&#x2010;" horiz-adv-x="763" 
d="M147 494l50 141h471l-50 -141h-471z" />
    <glyph glyph-name="uni2011" unicode="&#x2011;" horiz-adv-x="763" 
d="M147 494l50 141h471l-50 -141h-471z" />
    <glyph glyph-name="figuredash" unicode="&#x2012;" horiz-adv-x="763" 
d="M147 494l50 141h471l-50 -141h-471z" />
    <glyph glyph-name="endash" unicode="&#x2013;" horiz-adv-x="1447" 
d="M162 598l37 102h1167l-37 -102h-1167z" />
    <glyph glyph-name="emdash" unicode="&#x2014;" horiz-adv-x="2471" 
d="M162 598l37 102h2191l-37 -102h-2191z" />
    <glyph glyph-name="quoteleft" unicode="&#x2018;" horiz-adv-x="555" 
d="M272 1094q0 86 43 158.5t120 125t144.5 85t153.5 63.5l33 -51q-156 -55 -229.5 -129t-73.5 -150q0 -92 147 -137q0 -47 -48 -108.5t-93 -61.5q-63 0 -130 58.5t-67 146.5z" />
    <glyph glyph-name="quoteright" unicode="&#x2019;" horiz-adv-x="587" 
d="M225 920q156 55 229.5 128.5t73.5 149.5q0 92 -147 137q0 47 48 108.5t93 61.5q63 0 130 -58t67 -147q0 -86 -43 -158.5t-120 -124.5t-144.5 -85t-153.5 -64z" />
    <glyph glyph-name="quotesinglbase" unicode="&#x201a;" horiz-adv-x="565" 
d="M-129 -256q156 55 229.5 129t73.5 150q0 92 -147 137q0 47 48 108.5t93 61.5q63 0 130 -58.5t67 -146.5q0 -86 -43 -158.5t-120 -125t-144.5 -85t-153.5 -63.5z" />
    <glyph glyph-name="quotedblleft" unicode="&#x201c;" horiz-adv-x="995" 
d="M272 1096q0 86 43 158.5t120 125t144.5 85t153.5 63.5l33 -51q-156 -55 -229.5 -129t-73.5 -150q0 -92 147 -137q0 -47 -48 -108.5t-93 -61.5q-63 0 -130 58.5t-67 146.5zM715 1096q0 86 43 158.5t119.5 125t144.5 85t154 63.5l32 -51q-156 -55 -229.5 -129t-73.5 -150
q0 -92 148 -137q0 -47 -48.5 -108.5t-93.5 -61.5q-63 0 -129.5 58.5t-66.5 146.5z" />
    <glyph glyph-name="quotedblright" unicode="&#x201d;" horiz-adv-x="1030" 
d="M225 920q156 55 229.5 128.5t73.5 149.5q0 92 -147 137q0 47 48 108.5t93 61.5q63 0 130 -58t67 -147q0 -86 -43 -158.5t-120 -124.5t-144.5 -85t-153.5 -64zM668 920q156 55 229.5 128.5t73.5 149.5q0 92 -148 137q0 47 48.5 108.5t93.5 61.5q63 0 129.5 -58t66.5 -147
q0 -86 -43 -158.5t-119.5 -124.5t-144.5 -85t-154 -64z" />
    <glyph glyph-name="quotedblbase" unicode="&#x201e;" horiz-adv-x="1019" 
d="M-129 -256q156 55 229.5 129t73.5 150q0 92 -147 137q0 47 48 108.5t93 61.5q63 0 130 -58.5t67 -146.5q0 -86 -43 -158.5t-120 -125t-144.5 -85t-153.5 -63.5zM326 -256q156 55 229.5 129t73.5 150q0 92 -148 137q0 47 48.5 108.5t93.5 61.5q63 0 129.5 -58.5
t66.5 -146.5q0 -86 -43 -158.5t-119.5 -125t-144.5 -85t-154 -63.5z" />
    <glyph glyph-name="bullet" unicode="&#x2022;" horiz-adv-x="749" 
d="M180 711q0 104 73 177t175 73q104 0 177 -73t73 -177q0 -102 -73 -175t-177 -73q-102 0 -175 73t-73 175z" />
    <glyph glyph-name="ellipsis" unicode="&#x2026;" horiz-adv-x="1951" 
d="M29 129q0 66 46 113t111.5 47t111.5 -47t46 -113t-46 -113t-111.5 -47t-111.5 47t-46 113zM731 129q0 66 46 113t111.5 47t112 -47t46.5 -113t-46.5 -113t-112 -47t-111.5 47t-46 113zM1434 129q0 66 46 113t111.5 47t111.5 -47t46 -113t-46 -113t-111.5 -47t-111.5 47
t-46 113z" />
    <glyph glyph-name="uni202F" unicode="&#x202f;" horiz-adv-x="393" 
 />
    <glyph glyph-name="guilsinglleft" unicode="&#x2039;" horiz-adv-x="731" 
d="M158 727l616 578h66l-430 -607l-7 -24l127 -524h-65z" />
    <glyph glyph-name="guilsinglright" unicode="&#x203a;" horiz-adv-x="727" 
d="M27 150l428 606l6 24l-125 525h61l310 -578l-619 -577h-61z" />
    <glyph glyph-name="uni205F" unicode="&#x205f;" horiz-adv-x="493" 
 />
    <glyph glyph-name="Euro" unicode="&#x20ac;" 
d="M49 543l17 80h145q12 127 51 241h-162l17 80h174q94 229 262 374.5t383 145.5q98 0 184 -25.5t115 -52.5l141 35l-172 -405l-63 4l6 63q4 57 4 86q0 215 -231 215q-141 0 -249 -124.5t-175 -315.5h458l-16 -80h-469q-33 -123 -43 -241h477l-16 -80h-465q0 -203 91 -317.5
t253 -114.5q197 0 344 182l43 -55q-164 -268 -483 -269q-233 0 -349 157t-116 384v33h-156z" />
    <glyph glyph-name="trademark" unicode="&#x2122;" horiz-adv-x="2293" 
d="M270 567l21 64l84 12q35 6 48 16.5t23 38.5l236 662h-168q-74 0 -127 -96l-33 -68h-63l94 254q111 -12 174 -12l213 -2l238 2l190 12l-88 -254h-61l10 68q14 96 -57 96h-168l-230 -662q-8 -29 -2 -39t35 -16l90 -12l-20 -64l-209 4zM963 567l20 64l80 12q33 6 47 16.5
t27 38.5l227 613q8 29 1 39t-36 18l-49 12l20 64l183 -6l127 6l24 -684l469 643l15 41l125 -6l211 6l-21 -64l-68 -12q-53 -14 -69 -57l-197 -613q-8 -29 -2 -39t35 -16l74 -12l-23 -64l-233 4l-166 -4l22 64l62 12q35 6 50 17.5t24 37.5l215 641l-564 -774h-100l-31 774
l-229 -641q-8 -29 -1 -39t36 -16l96 -12l-21 -64l-186 4z" />
    <glyph glyph-name="uniE000" unicode="&#xe000;" horiz-adv-x="1000" 
d="M0 1000h1000v-1000h-1000v1000z" />
    <glyph glyph-name="uniFB01" unicode="&#xfb01;" horiz-adv-x="1095" 
d="M-373 -410q0 41 31 74t76 33q55 0 57 -53l2 -62q0 -47 41 -47q51 0 93 81t106 292l291 973h-185l23 67h184q109 324 264.5 482.5t343.5 158.5q78 0 119 -34.5t41 -88.5q0 -45 -32.5 -78.5t-104.5 -33.5q-39 131 -137 131q-43 0 -93.5 -61.5t-93.5 -158t-72.5 -173
t-50.5 -144.5h58q82 0 231.5 16.5t171.5 16.5q29 0 41 -16.5t12 -33t-34.5 -106.5t-105 -269t-124.5 -320l-47 -127l8 -17q55 14 134 82t122 129l37 -37q-51 -109 -181 -203t-230 -94q-35 0 -55.5 16.5t-20.5 41.5q0 53 153.5 446t153.5 408h-342l-258 -803
q-92 -293 -174 -418q-125 -195 -299 -195q-66 0 -110 36t-44 89z" />
    <glyph glyph-name="uniFB02" unicode="&#xfb02;" horiz-adv-x="1105" 
d="M-373 -410q0 41 31 74t76 33q55 0 57 -53l2 -62q0 -47 41 -47q51 0 93 81t106 292l291 973h-185l23 67h184q111 332 247 486.5t320 154.5q55 0 113.5 -19.5t73.5 -37.5q70 16 145 16l-284 -831l-199 -608l8 -17q55 14 134 81t120 130l37 -37q-51 -111 -179 -204t-229 -93
q-72 0 -80 58q0 43 424 1321q-8 39 -51 88t-112 49q-135 0 -304 -537l211 13l-41 -113l-188 33l-258 -803q-92 -293 -174 -418q-125 -195 -299 -195q-66 0 -110 36t-44 89z" />
    <glyph glyph-name="uniFB03" unicode="&#xfb03;" horiz-adv-x="1605" 
d="M-373 -410q0 41 31 74t76 33q55 0 57 -53l2 -62q0 -47 41 -47q51 0 93 81t106 292l291 973h-185l23 67h184l8 25q27 80 59.5 154.5t85 161.5t112 150.5t142.5 106.5t171 43q156 0 231 -114q49 49 128 81.5t157 32.5q80 0 132 -35.5t52 -87.5q0 -45 -32.5 -78.5
t-104.5 -33.5q-39 131 -137 131q-43 0 -86 -45t-85 -134t-71 -164t-68 -194h58q82 0 231.5 16.5t171.5 16.5q29 0 41 -16.5t12 -33t-34.5 -106.5t-105.5 -269t-124 -320l-47 -127l8 -17q55 14 134 82t122 129l37 -37q-51 -109 -181 -203t-230 -94q-35 0 -55.5 16.5
t-20.5 41.5q0 53 153.5 446t153.5 408h-342l-170 -543q-115 -367 -228.5 -540t-334.5 -271l-37 47q145 84 239.5 288t284.5 826l60 193h-324l-258 -803q-92 -293 -174 -418q-125 -195 -299 -195q-66 0 -110 36t-44 89zM530 948h326q76 229 182 393q-27 72 -77 108t-105 36
q-49 0 -94 -39t-84 -116t-64.5 -142.5t-58.5 -165.5z" />
    <glyph glyph-name="uniFB04" unicode="&#xfb04;" horiz-adv-x="1615" 
d="M-373 -410q0 41 31 74t76 33q55 0 57 -53l2 -62q0 -47 41 -47q51 0 93 81t106 292l291 973h-185l23 67h184l8 25q27 80 59.5 154.5t85 161.5t112 150.5t142.5 106.5t171 43q156 0 231 -114q49 49 128 81.5t157 32.5q115 0 182 -55q47 14 133 14l-285 -831l-198 -608
l8 -17q55 14 134 81t120 130l37 -37q-51 -111 -179 -204t-229 -93q-74 0 -80 58q0 43 424 1321q-6 25 -15 49t-44 56t-84 32q-92 0 -176 -153.5t-148 -383.5l211 13l-41 -113l-188 33l-170 -543q-115 -367 -228.5 -540t-334.5 -271l-37 47q145 84 239.5 288t284.5 826
l60 193h-324l-258 -803q-92 -293 -174 -418q-125 -195 -299 -195q-66 0 -110 36t-44 89zM530 948h326q76 229 182 393q-27 72 -77 108t-105 36q-49 0 -94 -39t-84 -116t-64.5 -142.5t-58.5 -165.5z" />
    </font>
</defs>
</svg>
