<?xml version="1.0" standalone="no"?>
<!DOCTYPE svg PUBLIC "-//W3C//DTD SVG 1.1//EN" "http://www.w3.org/Graphics/SVG/1.1/DTD/svg11.dtd" >
<svg xmlns="http://www.w3.org/2000/svg" xmlns:xlink="http://www.w3.org/1999/xlink" version="1.1">
<metadata>
Created by FontForge 20170731 at Sun Dec 11 23:00:16 2011
 By Aleksey,,,
Copyright (c) 2011 by Henrik Kubel, A2/SW/HK. All rights reserved.
</metadata>
<defs>
<font id="Antwerp-Regular" horiz-adv-x="1208" >
  <font-face 
    font-family="Antwerp"
    font-weight="400"
    font-stretch="normal"
    units-per-em="2048"
    panose-1="2 0 5 5 8 0 0 2 0 3"
    ascent="1536"
    descent="-512"
    x-height="987"
    cap-height="1444"
    bbox="-61 -569 2437 1964"
    underline-thickness="40"
    underline-position="-391"
    unicode-range="U+0020-FB04"
  />
<missing-glyph horiz-adv-x="387" 
 />
    <glyph glyph-name=".notdef" horiz-adv-x="387" 
 />
    <glyph glyph-name=".null" horiz-adv-x="0" 
 />
    <glyph glyph-name="nonmarkingreturn" horiz-adv-x="682" 
 />
    <glyph glyph-name="space" unicode=" " horiz-adv-x="512" 
 />
    <glyph glyph-name="exclam" unicode="!" horiz-adv-x="645" 
d="M152 141.5q0 71.5 50 121.5t122 50q70 0 120 -50t50 -121.5t-49.5 -122t-121 -50.5t-121.5 50.5t-50 122zM172 1303q0 162 152 161q147 0 147 -161q0 -78 -52 -368t-61 -474h-71q-10 180 -62.5 470t-52.5 372z" />
    <glyph glyph-name="quotedbl" unicode="&#x22;" horiz-adv-x="968" 
d="M123 829v635h301l-205 -635h-96zM575 829v635h302l-205 -635h-97z" />
    <glyph glyph-name="numbersign" unicode="#" 
d="M61 506v90h306v272h-306v90h306v476h96v-476h278v476h99v-476h303v-90h-303v-272h303v-90h-303v-506h-99v506h-278v-506h-96v506h-306zM463 596h278v272h-278v-272z" />
    <glyph glyph-name="dollar" unicode="$" 
d="M121 467l90 10q25 -109 96 -264q29 -66 100.5 -103.5t159.5 -41.5v565q-98 43 -153.5 73.5t-125 85t-102 125t-32.5 160.5q0 143 110.5 252t302.5 129v254h84v-248q82 0 181.5 -14t159 -27.5t71.5 -19.5q-25 -188 -39 -356h-82q-35 121 -74 235q-25 80 -217 82v-496
q215 -98 283 -147q174 -125 174 -309q0 -188 -128 -304t-329 -135v-315h-84v313q-63 2 -127.5 9.5t-116 18.5t-90 21.5t-68.5 19.5t-32 9q0 199 -12 418zM369 1145q0 -131 198 -236v447q-88 -16 -143 -71.5t-55 -139.5zM651 68q102 12 172 77.5t70 169.5q0 92 -62.5 156
t-179.5 123v-526z" />
    <glyph glyph-name="percent" unicode="%" horiz-adv-x="1611" 
d="M94 1083q0 154 87 261.5t220.5 107.5t220.5 -107.5t87 -261.5q0 -152 -87 -260t-220.5 -108t-220.5 108t-87 260zM135 35l1272 1423l66 -55l-1272 -1430zM274 1083q0 -137 26 -216t101.5 -79t101 79t25.5 216q0 135 -25.5 217t-101 82t-101.5 -82t-26 -217zM903 340
q0 152 87 259.5t222.5 107.5t222.5 -107.5t87 -259.5q0 -154 -87 -261.5t-222.5 -107.5t-222.5 107.5t-87 261.5zM1085 340q0 -297 127 -297q76 0 101.5 80t25.5 217q0 135 -25.5 216t-101.5 81q-127 0 -127 -297z" />
    <glyph glyph-name="ampersand" unicode="&#x26;" horiz-adv-x="1712" 
d="M129 354q0 158 105.5 278t289.5 167q-131 51 -207.5 138t-76.5 200q0 141 104.5 238.5t294.5 97.5q156 0 261.5 -84t105.5 -220q0 -102 -76 -192t-223 -137l389 -357l43 70q100 162 100 225q0 57 -78 72l-104 18v78l272 -8l258 10v-80l-86 -18q-51 -16 -90 -57t-108 -146
l-148 -219l303 -274q80 -72 211 -88v-72l-188 6l-191 -8l-262 262q-203 -283 -481 -283q-197 0 -307.5 113.5t-110.5 269.5zM348 428q0 -129 84 -217t219 -88q94 0 177 51t141 137l-451 420q-80 -47 -125 -131t-45 -172zM440 1206q0 -86 48.5 -160.5t170.5 -160.5
q86 49 135.5 132t49.5 165q0 100 -61.5 157.5t-145.5 57.5q-80 0 -138.5 -51.5t-58.5 -139.5z" />
    <glyph glyph-name="quotesingle" unicode="'" horiz-adv-x="516" 
d="M123 829v635h301l-205 -635h-96z" />
    <glyph glyph-name="parenleft" unicode="(" horiz-adv-x="649" 
d="M78 586v39q0 268 142 540.5t372 395.5l35 -45q-96 -78 -164 -195t-100.5 -245t-46 -235.5t-13.5 -209.5v-49q0 -102 13.5 -211t46 -237t101 -245.5t165.5 -195.5l-35 -43q-156 80 -275.5 239.5t-180 341t-60.5 355.5z" />
    <glyph glyph-name="parenright" unicode=")" horiz-adv-x="649" 
d="M20 -307q96 78 165 195.5t101.5 245.5t46 236.5t13.5 211.5v49q0 102 -13.5 209.5t-46 235.5t-100 245t-163.5 195l34 45q229 -123 371.5 -395.5t142.5 -540.5v-39q0 -174 -60 -355.5t-180 -341t-276 -239.5z" />
    <glyph glyph-name="asterisk" unicode="*" 
d="M131 641l41 137l375 127l-375 129l-41 137l141 64l301 -274l-77 401l106 98l107 -100l-80 -399l307 272l139 -62l-39 -139l-389 -127l389 -125l39 -139l-139 -61l-309 272l82 -401l-107 -99l-106 97l77 401l-301 -275z" />
    <glyph glyph-name="plus" unicode="+" 
d="M123 686v98h430v441h102v-441h428v-98h-428v-442h-102v442h-430z" />
    <glyph glyph-name="comma" unicode="," horiz-adv-x="589" 
d="M68 -285q215 109 215 260q0 137 -187 191q-2 2 -2 12q8 57 66.5 113.5t111.5 56.5q78 0 145.5 -70.5t67.5 -173.5q0 -147 -116.5 -270t-272.5 -172z" />
    <glyph glyph-name="hyphen" unicode="-" horiz-adv-x="763" 
d="M133 494v151h496v-151h-496z" />
    <glyph glyph-name="period" unicode="." horiz-adv-x="610" 
d="M133 141.5q0 71.5 50 121.5t122 50t122 -50t50 -121.5t-50 -122t-122 -50.5t-122 50.5t-50 122z" />
    <glyph glyph-name="slash" unicode="/" horiz-adv-x="1097" 
d="M45 -236l924 1946l84 -41l-926 -1943z" />
    <glyph glyph-name="zero" unicode="0" 
d="M92 717q0 307 141.5 524t368.5 217t368.5 -217t141.5 -524t-141.5 -527.5t-368.5 -220.5q-152 0 -269.5 104.5t-179 274.5t-61.5 369zM346 716.5q0 -366.5 62.5 -516t193.5 -149.5t194.5 150.5t63.5 515.5q0 250 -30.5 396.5t-85 202.5t-142.5 56q-131 0 -193.5 -144.5
t-62.5 -511z" />
    <glyph glyph-name="one" unicode="1" 
d="M223 1188v100l424 154h127q-10 -539 -10 -965q0 -203 2 -284q2 -78 96 -93l180 -24v-90l-409 14l-385 -14v90l168 24q106 14 106 93q2 332 2 479v49q0 367 -2 467q-2 47 -30 47q-27 0 -269 -47z" />
    <glyph glyph-name="two" unicode="2" 
d="M125 -2v131l59 59q61 59 128 124t150 149t132 139q121 131 163 224.5t42 201.5q0 145 -67.5 237.5t-213.5 92.5q-141 0 -141 -84l4 -248l-49 -41q-84 2 -144.5 54.5t-60.5 131.5q0 100 125 194.5t348 94.5q193 0 322 -100.5t129 -278.5q0 -113 -63.5 -210t-213.5 -240
q-322 -305 -420 -410l727 10l-37 -233q-266 4 -567 4q-305 0 -352 -2z" />
    <glyph glyph-name="three" unicode="3" 
d="M106 197q0 70 55.5 114.5t145.5 50.5l49 -40l2 -222q0 -49 129 -49q170 0 258.5 93.5t88.5 217.5q0 139 -100.5 230.5t-303.5 91.5l-129 -6l4 123q236 16 345.5 101t109.5 208q0 104 -75 156.5t-183 52.5q-154 0 -305 -109l-43 68q190 178 473 178q176 0 274 -85t98 -210
q0 -262 -366 -340q162 -4 300 -112.5t138 -286.5q0 -205 -160.5 -329t-400.5 -124q-201 0 -302.5 64t-101.5 164z" />
    <glyph glyph-name="four" unicode="4" 
d="M51 401v111q33 72 254 431.5t352 555.5l213 -6q-586 -795 -692 -985h494v37q0 252 -13 338l252 6l-4 -381h230v-107h-230v-219q0 -47 20.5 -66.5t80.5 -31.5l88 -21v-73l-308 10l-303 -10v73l90 21q57 12 77 31.5t20 66.5v219h-621z" />
    <glyph glyph-name="five" unicode="5" 
d="M115 197q0 70 55 114.5t145 50.5l50 -40q-2 -43 0 -120t2 -102q0 -49 145 -49q160 0 262.5 92.5t102.5 225.5q0 186 -139.5 278t-354.5 92q-106 0 -197 -12l37 709q61 0 139 1l156 2q78 1 158 2t147.5 3t121.5 3t83 3l31 2l-15 -223q-80 -12 -258 -12l-479 8l-14 -271
q66 4 127 4q117 0 226.5 -25.5t208.5 -79.5t159.5 -153.5t60.5 -232.5q0 -199 -155.5 -348.5t-403.5 -149.5q-199 0 -300 64t-101 164z" />
    <glyph glyph-name="six" unicode="6" 
d="M84 563q0 375 251 645.5t679 378.5l41 -71q-233 -82 -429 -263.5t-311 -480.5l25 -6q47 82 140 133t218 51q180 0 311.5 -127t131.5 -348q0 -217 -146.5 -361.5t-376.5 -144.5q-254 0 -394 172t-140 422zM346 467q0 -154 67.5 -276.5t209.5 -122.5q133 0 202.5 109.5
t69.5 266.5q0 170 -76 280t-205 110q-131 0 -199.5 -105.5t-68.5 -261.5z" />
    <glyph glyph-name="seven" unicode="7" 
d="M117 1194l2 233h999v-141q-487 -856 -588 -1331l-297 -23q176 569 748 1311l-4 8q-147 -57 -451 -57h-409z" />
    <glyph glyph-name="eight" unicode="8" 
d="M102 350q0 154 105.5 252t232.5 127q-125 49 -206.5 140.5t-81.5 215.5q0 178 135 278.5t331 100.5q190 0 316.5 -90t126.5 -248q0 -102 -75 -186t-222 -125q352 -143 352 -428q0 -160 -137 -289t-383 -129q-240 0 -367 115.5t-127 265.5zM311 356q0 -125 79 -212
t224 -87q123 0 203 71t80 187q0 135 -91 214t-290 157q-98 -55 -151.5 -141.5t-53.5 -188.5zM373 1159q0 -104 73.5 -170.5t231.5 -132.5q90 39 140 117t50 166q0 111 -73.5 177t-180.5 66q-100 0 -170.5 -60.5t-70.5 -162.5z" />
    <glyph glyph-name="nine" unicode="9" 
d="M63 956q0 217 146.5 358.5t374.5 141.5q258 0 397 -169t139 -419q0 -375 -251 -645t-679 -379l-40 72q233 82 428.5 263t310.5 480l-25 7q-106 -184 -348 -185q-180 0 -316.5 128t-136.5 347zM309 985q0 -170 76 -278.5t203 -108.5q133 0 202.5 105.5t69.5 261.5
q0 94 -24.5 178t-90 149.5t-163.5 65.5q-133 0 -203 -107.5t-70 -265.5z" />
    <glyph glyph-name="colon" unicode=":" horiz-adv-x="610" 
d="M133 141.5q0 71.5 50 121.5t122 50t122 -50t50 -121.5t-50 -122t-122 -50.5t-122 50.5t-50 122zM133 809q0 72 50 122t122 50t122 -50t50 -122t-50 -122t-122 -50t-122 50t-50 122z" />
    <glyph glyph-name="semicolon" unicode=";" horiz-adv-x="612" 
d="M92 -285q215 109 215 260q0 137 -186 191q-2 2 -2 12q8 57 66.5 113.5t111.5 56.5q78 0 145.5 -70.5t67.5 -173.5q0 -147 -117 -270t-272 -172zM137 809q0 72 50.5 122t122 50t121.5 -50t50 -122t-50 -122t-121.5 -50t-122 50t-50.5 122z" />
    <glyph glyph-name="less" unicode="&#x3c;" 
d="M86 662v145l946 375v-103l-856 -329v-33l856 -330v-100z" />
    <glyph glyph-name="equal" unicode="=" 
d="M131 506v90h946v-90h-946zM131 868v90h946v-90h-946z" />
    <glyph glyph-name="greater" unicode="&#x3e;" 
d="M174 287v100l858 330v33l-858 329v103l948 -375v-145z" />
    <glyph glyph-name="question" unicode="?" horiz-adv-x="940" 
d="M70 1239q0 86 95 155.5t271 69.5q182 0 294 -83t112 -234q0 -80 -41 -160t-100.5 -140.5t-119 -113.5t-100.5 -104t-41 -90q0 -25 11 -86l-52 4q-18 14 -49 74.5t-35 80.5q4 70 49.5 146t96.5 131t93 131t42 147q0 98 -47 162t-152 64q-111 0 -110 -62l2 -221l-49 -35
q-72 4 -121 50t-49 114zM252 141.5q0 71.5 50 121.5t122 50t122 -50t50 -121.5t-50 -122t-122 -50.5t-122 50.5t-50 122z" />
    <glyph glyph-name="at" unicode="@" horiz-adv-x="1988" 
d="M94 469q0 403 273.5 660t681.5 257q391 0 628.5 -234t237.5 -581q0 -266 -139.5 -434t-362.5 -168q-82 0 -143.5 42t-75.5 114q-25 -57 -94.5 -106.5t-169.5 -49.5q-127 0 -206 74t-79 178q0 303 549 338v137q0 113 -38 177.5t-144 64.5q-121 0 -121 -76v-174l-64 -37
q-66 10 -109.5 50t-43.5 102q0 90 112.5 149.5t286.5 59.5q168 0 254 -76t86 -246q0 -80 -8 -264t-8 -227q0 -115 106 -115q102 0 177 78t108 185.5t33 221.5q0 315 -210 521t-540 206q-356 0 -566 -233.5t-210 -585.5q0 -160 53 -307t153.5 -266t260.5 -189.5t358 -70.5
q117 0 254 34.5t240 108.5l35 -53q-100 -90 -267.5 -140.5t-324.5 -50.5q-432 0 -697.5 257t-265.5 669zM858 268q0 -74 45 -120t119 -46q68 0 117 43t51 127l4 224q-47 -6 -72.5 -10.5t-73 -15.5t-74 -26.5t-57 -39t-45 -58.5t-14.5 -78z" />
    <glyph glyph-name="A" unicode="A" horiz-adv-x="1550" 
d="M-27 -10v80l103 20q47 8 70.5 29.5t41.5 66.5l490 1262l176 39q225 -606 512 -1299q20 -47 40.5 -68.5t66.5 -29.5l102 -20v-80l-332 10l-334 -10v80l111 20q57 12 79 34q12 12 12 31q0 15 -7 33l-152 402h-495l-140 -402q-7 -20 -7 -35q0 -18 11 -30q19 -23 76 -33
l115 -20v-80l-305 10zM489 684h433l-217 586z" />
    <glyph glyph-name="B" unicode="B" horiz-adv-x="1466" 
d="M86 -10v80l109 20q57 10 77.5 30.5t22.5 67.5q6 188 6 527l-6 528q-2 51 -21.5 70.5t-78.5 29.5l-109 21v80l330 -10q8 0 179 4t259 4q184 0 304 -92.5t120 -249.5q0 -129 -88 -223.5t-248 -118.5v-15q176 -16 290 -120.5t114 -255.5q0 -66 -26 -128.5t-82 -122
t-165.5 -96t-257.5 -36.5q-172 0 -418 16zM528 700l4 -473q0 -94 54.5 -123.5t189.5 -29.5q145 0 231.5 83t86.5 228q0 156 -93.5 235.5t-312.5 79.5h-160zM528 813q88 -27 197 -27q170 0 242.5 82t72.5 213q0 133 -77.5 205t-229.5 72q-25 0 -205 -8v-537z" />
    <glyph glyph-name="C" unicode="C" horiz-adv-x="1515" 
d="M102 709q0 319 216.5 537t553.5 218q184 0 367 -55l160 25q-2 -23 -19.5 -185t-23.5 -248h-76l-43 129q-76 231 -360 232q-223 0 -375 -145.5t-152 -448.5q0 -311 165 -489.5t456 -178.5q119 0 231 31l121 320h82q-8 -160 -8 -365q-256 -117 -539 -117q-344 0 -550 206
t-206 534z" />
    <glyph glyph-name="D" unicode="D" horiz-adv-x="1736" 
d="M86 -10v80l109 20q57 10 77.5 30.5t22.5 67.5q6 188 6 527l-6 528q-2 51 -21.5 70.5t-78.5 29.5l-109 21v80l311 -10q248 20 469 20q369 0 566.5 -208t197.5 -513q0 -336 -213 -542.5t-626 -206.5q-219 0 -394 16zM530 227q0 -100 61.5 -127.5t229.5 -27.5
q100 0 187.5 24.5t174.5 87t138 191.5t51 315q0 322 -149.5 494t-456.5 172h-199q-25 0 -31 -7.5t-6 -25.5v-1096z" />
    <glyph glyph-name="E" unicode="E" horiz-adv-x="1429" 
d="M86 -10v80l109 20q57 10 78.5 31.5t21.5 66.5q6 188 6 527l-6 528q-4 51 -23.5 70.5t-76.5 29.5l-109 21v80l322 -10h532q53 0 133 6t135 10l54 6q-16 -125 -37 -416h-80l-25 95q-29 104 -62.5 152t-92.5 48h-400q-25 0 -31 -7t-6 -25v-525q150 0 269 6q49 4 72.5 25.5
t37.5 79.5l27 112h80l-10 -266l10 -270h-80l-27 113q-14 55 -37.5 77.5t-72.5 26.5l-269 6v-461q0 -129 152 -129h242q88 0 144 31t110 133l92 172h75q-43 -254 -63 -444q-281 10 -401 10h-471z" />
    <glyph glyph-name="F" unicode="F" horiz-adv-x="1368" 
d="M86 -10v80l109 20q57 10 77.5 30.5t22.5 67.5q6 188 6 527l-6 528q-2 51 -21.5 70.5t-78.5 29.5l-109 21v80l332 -10h555l327 22q-14 -125 -34 -416h-82l-25 101q-29 102 -61.5 148t-91.5 46h-441q-25 0 -31 -7t-6 -25v-566q201 0 318 6q51 2 73.5 25t36.5 80l27 113h80
l-10 -267l10 -270h-80l-27 113q-14 57 -36.5 79.5t-73.5 24.5l-318 6v-459q0 -47 21.5 -68.5t79.5 -29.5l133 -20v-80l-344 10z" />
    <glyph glyph-name="G" unicode="G" horiz-adv-x="1683" 
d="M104 715q0 178 69 323.5t184.5 236.5t261 140t303.5 49q217 0 399 -55l160 25q-2 -23 -19.5 -185t-23.5 -248h-76l-43 129q-39 117 -141.5 174.5t-243.5 57.5q-266 0 -423 -166t-157 -446q0 -127 35 -242t108.5 -214t203.5 -158.5t303 -59.5q217 0 217 78v301
q0 49 -20.5 68.5t-80.5 29.5l-127 20v84l348 -10l287 10v-84l-72 -18q-57 -14 -76.5 -34.5t-19.5 -67.5v-365q-301 -119 -538 -119q-188 0 -336 49.5t-236 125t-145.5 178t-79 198t-21.5 195.5z" />
    <glyph glyph-name="H" unicode="H" horiz-adv-x="1810" 
d="M86 -10v80l109 20q57 10 77.5 30.5t22.5 67.5q6 201 6 539l-6 518q-2 47 -22.5 67.5t-77.5 30.5l-109 21v80l328 -10l327 10v-80l-108 -21q-57 -10 -76.5 -30.5t-21.5 -67.5q-6 -152 -7 -465h754l-6 465q-2 47 -21.5 67.5t-76.5 30.5l-109 21v80l328 -10l327 10v-80
l-108 -21q-57 -10 -77.5 -30.5t-22.5 -67.5q-6 -180 -7 -518l7 -539q2 -47 22.5 -67.5t77.5 -30.5l108 -20v-80l-327 10l-328 -10v80l109 20q57 10 76.5 30.5t21.5 67.5q6 178 6 498h-754l7 -498q2 -47 21 -67.5t77 -30.5l108 -20v-80l-327 10z" />
    <glyph glyph-name="I" unicode="I" horiz-adv-x="827" 
d="M86 -10v80l109 20q57 10 77.5 30.5t22.5 67.5q6 201 6 539l-6 518q-2 47 -22.5 67.5t-77.5 30.5l-109 21v80l328 -10l327 10v-80l-108 -21q-57 -10 -76.5 -30.5t-21.5 -67.5q-6 -180 -7 -518l7 -539q2 -47 21 -67.5t77 -30.5l108 -20v-80l-327 10z" />
    <glyph glyph-name="J" unicode="J" horiz-adv-x="806" 
d="M10 -297q137 29 198.5 108.5t63.5 260.5q0 16 1 120.5t3.5 254t2.5 280.5l-7 518q-2 47 -22.5 67.5t-77.5 30.5l-109 21v80l328 -10l328 10v-80l-109 -21q-57 -10 -76.5 -30.5t-21.5 -67.5q-6 -180 -6 -518l2 -537q2 -47 24.5 -68.5t79.5 -29.5l107 -14v-78h-213
q-14 -193 -131 -281t-332 -92z" />
    <glyph glyph-name="K" unicode="K" horiz-adv-x="1581" 
d="M86 -10v80l109 20q57 10 77.5 30.5t22.5 67.5q6 188 6 527l-6 528q0 51 -20.5 70.5t-79.5 29.5l-109 21v80l330 -10l325 10v-80l-108 -21q-57 -10 -76.5 -29.5t-21.5 -70.5q-6 -166 -7 -463h226q168 213 338 439q27 35 26 63q0 45 -84 61l-102 21v80l303 -10l276 10v-80
l-98 -23q-57 -14 -94 -43.5t-123 -130.5q-74 -86 -145.5 -171t-103.5 -121.5t-36 -43.5l461 -655q43 -63 119 -82l102 -26v-78l-272 10l-121 -6q-287 455 -452 692h-220l7 -498q2 -45 22.5 -66.5t75.5 -31.5l108 -20v-80l-325 10z" />
    <glyph glyph-name="L" unicode="L" horiz-adv-x="1363" 
d="M86 -10v80l109 20q57 10 77.5 30.5t22.5 67.5q6 193 6 531l-6 524q0 51 -20.5 70.5t-79.5 29.5l-109 21v80l330 -10l325 10v-80l-108 -21q-57 -10 -76.5 -29.5t-21.5 -70.5q-6 -186 -7 -524q0 -186 9 -506q2 -66 33.5 -90.5t109.5 -24.5h223q88 0 144.5 31t109.5 133
l92 172h76q-43 -254 -63 -444q-281 10 -402 10h-452z" />
    <glyph glyph-name="M" unicode="M" horiz-adv-x="2131" 
d="M76 -10v80l110 20q55 10 76 30.5t23 67.5q18 645 18 1008q0 84 -16.5 109.5t-79.5 37.5l-111 21v80l297 -10l221 10q55 -160 469 -1165q207 524 418 1085v80l215 -10l318 10v-80l-109 -21q-57 -10 -77.5 -30.5t-20.5 -69.5l14 -1055q0 -47 20.5 -67.5t77.5 -30.5l107 -20
v-80l-336 10l-319 -10v80l110 20q57 10 77.5 30.5t20.5 67.5l-12 1104q-35 -92 -252 -639t-262 -665h-127q-311 762 -543 1302q0 -768 3 -1102q0 -47 19 -67.5t77 -30.5l108 -20v-80l-274 10z" />
    <glyph glyph-name="N" unicode="N" horiz-adv-x="1773" 
d="M76 -10v80l108 20q57 10 78 30.5t23 67.5q20 645 20 1055q0 47 -20.5 68.5t-77.5 31.5l-103 21v80l271 -10l225 10q39 -94 86 -156l717 -960q-10 518 -21 915q-2 49 -22.5 69.5t-75.5 30.5l-110 21v80l274 -10l264 10v-80l-108 -21q-57 -10 -78 -30.5t-21 -69.5
q-12 -1075 -12 -1253h-131q-582 797 -959 1280q2 -807 3 -1082q0 -47 20 -67.5t78 -30.5l110 -20v-80l-282 10z" />
    <glyph glyph-name="O" unicode="O" horiz-adv-x="1701" 
d="M104 702q0 332 209 546t555 216q135 0 263.5 -47t232.5 -136t167.5 -233.5t63.5 -322.5q0 -332 -208.5 -544t-552.5 -212q-131 0 -258 46t-233.5 133.5t-172.5 231.5t-66 322zM354 743q0 -330 145.5 -501.5t360.5 -171.5q106 0 192.5 38.5t139.5 101t89 145.5t50.5 166
t14.5 167q0 330 -143.5 502t-358.5 172q-133 0 -232.5 -58.5t-152.5 -152.5t-79 -196.5t-26 -211.5z" />
    <glyph glyph-name="P" unicode="P" horiz-adv-x="1347" 
d="M86 -10v80l109 20q57 10 77.5 30.5t22.5 67.5q6 188 6 527l-6 528q-4 51 -23.5 70.5t-76.5 29.5l-109 21v80l399 -6q223 18 355 18q78 0 152.5 -21.5t142 -67.5t108.5 -129t41 -191q0 -82 -28.5 -159t-88 -144.5t-166 -108.5t-243.5 -41l-109 12v86q70 -2 90 -2
q135 0 216 89t81 255q0 156 -81 240t-218 84h-168q-23 0 -30 -8.5t-7 -24.5q-4 -272 -4 -610l7 -527q2 -45 22.5 -66.5t75.5 -31.5l108 -20v-80l-323 10z" />
    <glyph glyph-name="Q" unicode="Q" horiz-adv-x="1701" 
d="M104 702q0 332 210 547t554 215q135 0 263.5 -47t232.5 -136t167.5 -233.5t63.5 -322.5q0 -262 -134 -455.5t-369 -263.5q414 -186 613.5 -260t340.5 -74q55 0 90 11l6 -89q-180 -86 -370 -86q-199 0 -362 78t-404 258q-139 106 -228 129q-131 4 -249.5 52.5t-215 137.5
t-153 229t-56.5 310zM354 743q0 -330 145.5 -501.5t360.5 -171.5q106 0 192.5 38.5t139.5 101t89 145.5t50.5 166t14.5 167q0 330 -143.5 502t-358.5 172q-133 0 -232.5 -58.5t-152.5 -152.5t-79 -196.5t-26 -211.5z" />
    <glyph glyph-name="R" unicode="R" horiz-adv-x="1531" 
d="M86 -10v80l109 20q57 10 78.5 31.5t21.5 66.5q6 188 6 527l-6 528q-4 51 -23.5 70.5t-76.5 29.5l-109 21v80l414 -6q2 0 56 4t138 8t142 4q74 0 143.5 -16.5t140 -54t113.5 -116.5t43 -190q0 -121 -78 -218t-215 -154l231 -334q66 -94 108 -146.5t114.5 -104.5t152.5 -63
l-22 -82h-70q-211 0 -305 56q-33 18 -66.5 52t-72.5 92t-62.5 95t-73 121t-63.5 109q-49 82 -90 143h-236q0 -215 7 -455q2 -47 24.5 -67.5t79.5 -30.5l111 -20v-80l-332 10zM528 756q129 -20 177 -21h86q84 0 161.5 79t77.5 241q0 147 -89 225t-234 78h-142q-25 0 -31 -7.5
t-6 -25.5v-569z" />
    <glyph glyph-name="S" unicode="S" horiz-adv-x="1218" 
d="M119 465l90 10q27 -109 98 -264q33 -72 116 -110t179 -38q119 0 205 70t86 189q0 76 -41 134t-105.5 96t-143.5 71.5t-158.5 71.5t-144 85t-105.5 123t-41 174q0 160 133 273.5t362 113.5q84 0 183.5 -14t155.5 -27.5t73 -19.5q-25 -188 -39 -356h-80q-33 121 -74 235
q-29 82 -227 82q-121 0 -197.5 -58.5t-76.5 -160.5q0 -63 41 -115.5t105.5 -90.5t144 -73t158.5 -75.5t143.5 -89t105.5 -123t41 -166.5q0 -203 -146.5 -323t-371.5 -120q-66 0 -133.5 7.5t-121.5 18.5t-95 21.5t-73 20.5t-34 10q2 32 2 79q1 120 -14 339z" />
    <glyph glyph-name="T" unicode="T" horiz-adv-x="1470" 
d="M49 1034q8 82 13.5 187.5t7.5 171.5v63q0 -2 38.5 -6t116.5 -10t156 -6l354 -4l355 4q78 0 155.5 6t116.5 10t39 6q4 -236 20 -422h-86l-28 92q-37 119 -76 162t-111 43l-264 2q-6 -281 -6 -618l6 -527q2 -47 21.5 -67.5t76.5 -30.5l107 -20v-80l-326 10l-329 -10v80
l110 20q55 10 75.5 31.5t22.5 66.5q6 188 7 527l-7 618l-264 -2q-72 0 -110.5 -43t-75.5 -162l-29 -92h-86z" />
    <glyph glyph-name="U" unicode="U" horiz-adv-x="1720" 
d="M51 1364v80l324 -10l330 10v-80l-107 -21q-57 -10 -78.5 -30.5t-21.5 -69.5v-745q0 -219 114.5 -314.5t298.5 -95.5q125 0 214 40t135.5 109.5t67 148.5t20.5 173q0 125 -2.5 393.5t-2.5 290.5q0 49 -20 69.5t-78 30.5l-110 21v80l272 -10l264 10v-80l-108 -21
q-57 -10 -79 -30.5t-22 -69.5l-4 -698q0 -276 -154.5 -426t-443.5 -150q-283 0 -441.5 134.5t-158.5 388.5v751q0 49 -20.5 69.5t-77.5 30.5z" />
    <glyph glyph-name="V" unicode="V" horiz-adv-x="1552" 
d="M-20 1364v80l329 -10l348 10v-80l-114 -21q-85 -14 -85 -71q0 -16 7 -35q121 -348 385 -1055l383 1055q7 19 7 35q0 57 -85 71l-115 21l2 80l310 -10l227 10v-80l-100 -21q-47 -8 -72 -29.5t-43 -66.5l-487 -1259l-197 -21q-233 629 -494 1278q-18 47 -39.5 68.5
t-66.5 29.5z" />
    <glyph glyph-name="W" unicode="W" horiz-adv-x="2316" 
d="M-14 1364v80l325 -10l348 10v-80l-110 -21q-94 -16 -94 -65q0 -16 6 -35q309 -932 344 -1057l313 793q-41 119 -90 260q-16 49 -38.5 72.5t-67.5 31.5l-97 21v80l379 -10l307 10v-80l-127 -25q-96 -21 -96 -92q0 -21 8 -47q53 -168 353 -1014l362 1057q8 25 8 39
q0 51 -80 64l-124 18v80l323 -10l213 10v-80l-102 -21q-45 -8 -71 -29.5t-42 -66.5q-195 -512 -457 -1259l-194 -21q-231 641 -320 887l-334 -866l-192 -21q-266 784 -444 1278q-18 47 -41 68.5t-68 29.5z" />
    <glyph glyph-name="X" unicode="X" horiz-adv-x="1499" 
d="M16 -10v80l84 16q47 10 74 26.5t70 67.5q205 270 393 547l-365 514q-61 84 -149 102l-103 21v80l324 -10l373 10v-80l-117 -18q-51 -8 -51 -56q0 -39 55 -127l197 -301q133 190 221 344q35 57 35 88q0 39 -53 49l-109 21v76l272 -6l269 10v-80l-101 -21q-74 -14 -139 -98
q-225 -291 -340 -457q221 -330 426 -608q55 -76 127 -90l100 -20v-80l-321 10l-338 -10v80l104 20q59 12 60 45q0 10 -15 39q-59 96 -174.5 271.5t-132.5 199.5q-139 -207 -299 -457q-23 -33 -22 -53q0 -35 61 -45l117 -20v-80l-285 10z" />
    <glyph glyph-name="Y" unicode="Y" horiz-adv-x="1437" 
d="M-27 1364v80l330 -10l348 10v-80l-127 -21q-72 -11 -72 -56q0 -20 15 -48q68 -125 149.5 -267.5t128.5 -221.5l50 -82q137 217 317 567q14 29 14 47q0 47 -84 61l-112 21v80l276 -10l254 10v-80l-94 -21q-45 -8 -69.5 -29.5t-51.5 -66.5l-403 -690v-100q0 -139 4 -271
q2 -47 20.5 -67.5t75.5 -30.5l109 -20v-78l-322 10l-334 -10v78l109 20q55 10 73.5 29.5t20.5 68.5q4 66 4 271v90q-190 332 -416 698q-27 45 -52 66.5t-71 31.5z" />
    <glyph glyph-name="Z" unicode="Z" horiz-adv-x="1429" 
d="M92 -8v86q348 465 901 1255h-610q-59 0 -93 -45t-61 -147l-26 -101h-78l-16 416q182 -23 301 -22l874 8v-88q-371 -520 -868 -1223q-8 -8 -4 -20.5t22 -12.5h498q88 0 143 29t109 131l94 176h74l-68 -444q-274 10 -397 10h-539z" />
    <glyph glyph-name="bracketleft" unicode="[" horiz-adv-x="708" 
d="M184 -348v1898h492v-77h-350q111 -520 110 -873q0 -354 -110 -874h350v-74h-492z" />
    <glyph glyph-name="backslash" unicode="\" horiz-adv-x="1097" 
d="M43 1669l84 41l924 -1946l-82 -38z" />
    <glyph glyph-name="bracketright" unicode="]" horiz-adv-x="708" 
d="M31 -274h350q-111 520 -111 874q0 352 111 873h-350v77h491v-1898h-491v74z" />
    <glyph glyph-name="asciicircum" unicode="^" horiz-adv-x="1181" 
d="M156 465l366 969h133l367 -969h-96l-328 881h-18l-328 -881h-96z" />
    <glyph glyph-name="underscore" unicode="_" horiz-adv-x="1071" 
d="M186 -227h699v-119h-699v119z" />
    <glyph glyph-name="grave" unicode="`" horiz-adv-x="829" 
d="M186 1518h285l170 -375l-82 -13z" />
    <glyph glyph-name="a" unicode="a" horiz-adv-x="1024" 
d="M78 223q0 162 153.5 241t395.5 95v133q0 113 -38 179.5t-143 66.5q-123 0 -122 -74v-176l-64 -37q-63 10 -108.5 50t-45.5 104q0 90 113 148.5t289 58.5q166 0 252 -77t86 -247q0 -78 -8.5 -256t-8.5 -221q0 -113 91 -113q53 0 86 33l20 -43q-27 -53 -84 -86t-123 -33
q-82 0 -133 42t-59 116q-25 -57 -94.5 -107.5t-172.5 -50.5q-125 0 -203.5 74t-78.5 180zM291 268q0 -74 45 -120t119 -46q68 0 117 43t51 127l4 224q-47 -6 -73 -10.5t-73 -15.5t-73.5 -26.5t-57.5 -39t-45 -58.5t-14 -78z" />
    <glyph glyph-name="b" unicode="b" horiz-adv-x="1181" 
d="M16 1440v35l283 71h59v-442q0 -57 -7 -121.5t-13 -99.5l-6 -35l18 -4q45 80 131 124t185 44q178 0 306 -134.5t128 -373.5q0 -219 -141.5 -377t-368.5 -158q-147 0 -285 66q-31 -14 -100 -51l-60 14q2 82 2 328v977q0 90 -47 106zM358 291q0 -121 52.5 -181.5
t171.5 -60.5q139 0 218 106.5t79 313.5q0 197 -87 302.5t-221 105.5q-111 0 -162 -53.5t-51 -127.5v-405z" />
    <glyph glyph-name="c" unicode="c" horiz-adv-x="993" 
d="M82 479q0 227 140 380t356 153q170 0 250.5 -64.5t80.5 -132t-47 -107.5t-112 -49l-68 33v131q0 70 -19.5 88.5t-87.5 18.5q-119 0 -195.5 -106.5t-76.5 -309.5q0 -197 100.5 -297t237.5 -100q86 0 157.5 38t104.5 99l43 -57q-123 -227 -409 -228q-186 0 -320.5 130
t-134.5 380z" />
    <glyph glyph-name="d" unicode="d" horiz-adv-x="1226" 
d="M82 481q0 225 139 378t354 153q137 0 248 -56v244q0 113 -11 154t-50 55l-84 31v35l299 71h61q-6 -293 -6 -567v-719q0 -92 15.5 -119.5t76.5 -36.5l70 -10v-61l-303 -49h-62l5 147l-17 2q-109 -164 -319 -164q-178 0 -297 135t-119 377zM305 514q0 -184 84 -286.5
t213 -102.5q115 0 168 48t53 120v403q0 115 -60.5 174.5t-162.5 59.5q-106 0 -176 -68.5t-94.5 -157t-24.5 -190.5z" />
    <glyph glyph-name="e" unicode="e" horiz-adv-x="1036" 
d="M84 479q0 238 139 385.5t326 147.5q197 0 301 -122t104 -284v-43h-647q-2 -16 -2 -49q0 -195 96.5 -296t231.5 -101q86 0 159.5 38t106.5 99l45 -57q-123 -227 -409 -228q-190 0 -320.5 129t-130.5 381zM311 637l418 6v18q0 273 -188 273q-102 0 -162 -78t-68 -219z" />
    <glyph glyph-name="f" unicode="f" horiz-adv-x="716" 
d="M61 -10v63l64 15q57 14 77.5 33.5t20.5 64.5v721h-157v82h157q2 156 49 274.5t124 185t166 98.5t188 32q74 0 150.5 -25t76.5 -72q0 -45 -53.5 -99t-108.5 -54q-4 0 -28.5 33.5t-67.5 66.5t-88 33q-106 0 -152 -103q-45 -96 -45 -372l238 14l-17 -125l-221 35v-713
q0 -49 18.5 -71.5t71.5 -32.5l109 -21v-63l-309 10z" />
    <glyph glyph-name="g" unicode="g" horiz-adv-x="1124" 
d="M66 -268q0 90 58 151.5t150 91.5v19q-147 31 -147 162q0 102 139 211q-168 92 -168 288q0 156 115 256.5t305 100.5q156 0 262 -72l328 51v-192l-25 -6l-233 65q80 -82 80 -196q0 -160 -116 -258.5t-304 -98.5q-102 0 -184 33q-33 -53 -33 -96t38 -59.5t189 -30.5
l230 -25q295 -31 294 -262q0 -166 -143 -280.5t-418 -114.5q-195 0 -306 73.5t-111 188.5zM258 -225q0 -111 84 -167.5t217 -56.5t210 56.5t77 165.5q0 129 -129 153q-182 31 -359 37q-41 -20 -70.5 -69t-29.5 -119zM322 674q0 -143 56 -218t140 -75q186 0 187 266
q0 147 -53.5 220t-137.5 73q-74 0 -120 -45t-59 -99t-13 -122z" />
    <glyph glyph-name="h" unicode="h" horiz-adv-x="1214" 
d="M51 1440v35l291 71h61v-442q0 -197 -30 -258l18 -4q37 57 122 113.5t198 56.5q328 0 327 -340l-4 -506q0 -45 20.5 -64.5t78.5 -33.5l59 -15v-63l-260 10l-264 -10v63l57 15q68 16 85 69t17 223v185q0 186 -36 252q-49 90 -170 90q-133 0 -175.5 -74t-42.5 -229v-418
q0 -47 18.5 -66.5t74.5 -31.5l61 -15v-63l-256 10l-248 -10v63l41 15q61 20 81 36.5t20 61.5v1034q0 113 -10.5 154t-49.5 55z" />
    <glyph glyph-name="i" unicode="i" horiz-adv-x="626" 
d="M57 -10v63l62 15q59 14 79.5 33.5t20.5 64.5v446q0 109 -12 152t-53 57l-84 31v35l284 137h78q-4 -150 -4 -348v-510q0 -47 19.5 -65.5t76.5 -32.5l64 -15v-63l-264 10zM158 1366q0 66 45 111t108 45q66 0 111 -46t45 -109.5t-45 -109t-110.5 -45.5t-109.5 45.5
t-44 108.5z" />
    <glyph glyph-name="j" unicode="j" horiz-adv-x="600" 
d="M0 -442q109 37 151 106.5t42 202.5v745q0 109 -12.5 152t-51.5 57l-84 31v35l285 137h78q-6 -150 -7 -348v-498q0 -47 20.5 -66.5t80.5 -33.5l59 -15v-63h-162v-127q0 -326 -325 -367l-33 -4zM131 1366q0 66 45 111t108.5 45t109.5 -46t46 -109.5t-45 -109t-110 -45.5
q-63 0 -108.5 45.5t-45.5 108.5z" />
    <glyph glyph-name="k" unicode="k" horiz-adv-x="1175" 
d="M37 -10v63l61 15q59 14 79 32.5t20 65.5v1034q0 113 -10.5 154t-49.5 55l-84 31v35l299 71h62q-6 -319 -6 -563v-395h118q190 176 232 219q26 26 26 50q0 6 -2 11q-8 29 -53 35l-90 10v76l225 -10l266 10v-65l-55 -15q-106 -29 -184 -100l-217 -195l303 -450
q25 -37 49.5 -54.5t69.5 -29.5l63 -19v-63l-160 2l-174 -4q-61 125 -321 506h-96v-336q0 -47 19 -65.5t79 -32.5l61 -15v-63l-280 10z" />
    <glyph glyph-name="l" unicode="l" horiz-adv-x="606" 
d="M37 -10v63l61 15q59 12 80 31.5t21 66.5v1034q0 113 -11.5 154t-50.5 55l-82 31v35l299 71h62q-6 -338 -6 -622v-758q0 -47 19.5 -65.5t78.5 -32.5l70 -15v-63l-275 10z" />
    <glyph glyph-name="m" unicode="m" horiz-adv-x="1863" 
d="M66 852v35l272 137h57l-6 -178l19 -4q35 57 120.5 112.5t200.5 55.5q221 0 293 -166l18 -2q33 61 119 115.5t201 54.5q162 0 245 -87t83 -253l-5 -506q0 -45 20.5 -65.5t76.5 -32.5l61 -15v-63l-262 10l-260 -10v63l55 15q63 16 82 69t19 223v185q0 55 -2.5 94t-14.5 90
t-32.5 82t-61.5 53.5t-98 22.5q-125 0 -169 -74t-44 -242v-405q0 -45 20.5 -64.5t75.5 -33.5l57 -15v-63l-258 10l-250 -10v63l43 15q68 23 84.5 71.5t16.5 220.5v185q0 55 -2 94t-14.5 90t-33 82t-61.5 53.5t-98 22.5q-127 0 -170 -75t-43 -247v-399q0 -47 18.5 -66.5
t73.5 -31.5l61 -15v-63l-260 10l-245 -10v63l43 15q59 20 79.5 38.5t20.5 59.5v452q0 111 -10.5 150t-50.5 53z" />
    <glyph glyph-name="n" unicode="n" horiz-adv-x="1230" 
d="M66 852v35l272 137h57l-6 -178l19 -4q35 57 120.5 113.5t198.5 56.5q328 0 328 -340l-4 -506q0 -45 20.5 -64.5t77.5 -33.5l59 -15v-63l-260 10l-264 -10v63l57 15q31 8 43.5 13t27.5 20.5t20.5 41t7.5 68.5q4 61 4 334q0 186 -37 252q-49 90 -170 90q-133 0 -175 -74
t-42 -229v-418q0 -47 18.5 -66.5t73.5 -31.5l61 -15v-63l-256 10l-249 -10v63l43 15q61 20 80.5 36.5t19.5 61.5v452q0 111 -10.5 150t-50.5 53z" />
    <glyph glyph-name="o" unicode="o" horiz-adv-x="1157" 
d="M82 481q0 231 140 381t372 150q195 0 338 -134.5t143 -377.5q0 -238 -140 -384.5t-368 -146.5q-125 0 -231.5 53.5t-180 173t-73.5 285.5zM305 508q0 -223 80 -341t199 -118q78 0 133 39t82.5 105.5t40 134t12.5 143.5q0 229 -79 344t-198 115q-78 0 -134 -39
t-83.5 -105.5t-40 -134t-12.5 -143.5z" />
    <glyph glyph-name="p" unicode="p" horiz-adv-x="1228" 
d="M35 -444l61 14q55 12 74.5 31.5t19.5 66.5v944q0 113 -10 154t-49 55l-84 31v35l283 137h55l-6 -176l18 -4q45 80 131 124t185 44q178 0 306 -134.5t128 -373.5q0 -215 -141.5 -375t-366.5 -160q-156 0 -264 58q31 -76 31 -232v-127q0 -47 21.5 -68.5t76.5 -29.5l92 -14
v-68l-295 10l-266 -10v68zM406 258q0 -96 63 -149.5t156 -53.5q139 0 220 101.5t81 312.5q0 193 -86 297t-217 104q-111 0 -164 -51t-53 -125v-436z" />
    <glyph glyph-name="q" unicode="q" horiz-adv-x="1191" 
d="M82 481q0 227 138 379t355 152q168 0 295 -82q57 66 144 82l47 -11q-23 -164 -23 -456v-875q0 -47 18.5 -66.5t73.5 -31.5l64 -14v-68l-266 10l-295 -10v68l92 14q55 8 76.5 28.5t21.5 69.5v172q0 137 13 289l-17 2q-111 -164 -321 -164q-176 0 -296 136t-120 376z
M305 514q0 -184 84 -286.5t215 -102.5q115 0 167 48t52 120v403q0 115 -60.5 174.5t-162.5 59.5q-152 0 -223.5 -126t-71.5 -290z" />
    <glyph glyph-name="r" unicode="r" horiz-adv-x="880" 
d="M66 852v35l272 137h57l-8 -229l19 -4q53 78 136 144t163 66q76 0 116.5 -39.5t40.5 -95.5q0 -96 -112 -145h-27q-119 98 -137 102q-127 -63 -166 -98v-559q0 -47 21.5 -67.5t76.5 -30.5l92 -15v-63l-295 10l-247 -10v63l43 15q61 20 80.5 36.5t19.5 61.5v446
q0 113 -11.5 154t-49.5 55z" />
    <glyph glyph-name="s" unicode="s" horiz-adv-x="882" 
d="M104 27q6 92 7 176q0 45 -5 110l78 2l58 -147q47 -119 188 -119q86 0 131 44t45 114q0 68 -51 117t-125 80.5t-147.5 66.5t-125 98.5t-51.5 151.5q0 145 104.5 218t260.5 73q193 0 295 -45q-10 -66 -25 -252l-75 -4l-50 153q-8 29 -50 47.5t-91 18.5q-80 0 -129 -33
t-49 -104q0 -63 51 -109.5t125 -78.5t147.5 -67.5t125 -102t51.5 -161.5q0 -145 -108.5 -225t-262.5 -80q-78 0 -158 14.5t-121 28.5z" />
    <glyph glyph-name="t" unicode="t" horiz-adv-x="786" 
d="M20 854v82q59 4 148 55q119 68 158 256l88 -2v-284h317l-14 -123l-303 30v-555q0 -125 36.5 -171t116.5 -46q37 0 90.5 23.5t73.5 56.5l33 -49q-31 -76 -112 -117t-171 -41q-127 0 -202.5 66.5t-75.5 195.5v623h-183z" />
    <glyph glyph-name="u" unicode="u" horiz-adv-x="1210" 
d="M33 903v66l254 10l112 12q-12 -109 -12 -536q0 -190 43 -273.5t166 -83.5q127 0 165 78t38 248v354q0 51 -17.5 77t-68.5 36l-64 12v66l258 10l113 12q-12 -190 -12 -362v-369q0 -92 15 -119.5t77 -36.5l69 -10v-61l-303 -49h-61l4 147l-16 2q-35 -57 -113 -110.5
t-188 -53.5q-315 0 -316 346l2 463q0 49 -18.5 75t-69.5 38z" />
    <glyph glyph-name="v" unicode="v" horiz-adv-x="1105" 
d="M-8 922v65l256 -10l272 10v-65l-71 -15q-55 -10 -75 -34q-11 -13 -11 -30q0 -15 8 -34l250 -623q8 14 100 258t137 365q7 17 7 31q0 19 -13 30q-23 20 -86 37l-47 15v65l199 -10l196 10v-65l-43 -15q-51 -18 -69.5 -36.5t-38.5 -65.5l-345 -817h-131q-141 348 -354 821
q-23 47 -39 65.5t-59 32.5z" />
    <glyph glyph-name="w" unicode="w" horiz-adv-x="1595" 
d="M-2 922v65l233 -10l285 10v-65l-72 -15q-82 -16 -82 -67q0 -12 7 -35l157 -547q158 403 273 715h119l270 -719q94 332 155 553q3 11 3 21q0 59 -93 81l-51 13v65l203 -10l194 10v-65l-38 -15q-55 -20 -75 -36.5t-36 -61.5q-43 -123 -109.5 -326.5t-112.5 -349t-44 -145.5
h-109q-176 471 -282 753q-35 -88 -285 -753h-109q-119 395 -262 821q-16 47 -31.5 63.5t-66.5 34.5z" />
    <glyph glyph-name="x" unicode="x" horiz-adv-x="1105" 
d="M14 -10v63q145 41 205 111q115 137 246 297l-240 348q-33 45 -59.5 62.5t-85.5 37.5l-37 13v65l215 -10l295 10v-65l-64 -15q-45 -8 -45 -45q0 -47 68 -139l86 -123q82 100 154 211q23 33 22 53q0 31 -55 45l-51 13v65l204 -10l197 10v-65l-41 -15q-117 -41 -160 -98
q-106 -125 -223 -268q84 -125 256 -375q33 -47 68 -67.5t118 -45.5v-63l-219 10l-290 -10v63l73 15q41 8 41 34q0 10 -16 48l-170 247q-27 -33 -54.5 -70.5t-51 -71.5t-31.5 -46q-49 -66 -50 -98q0 -27 56 -43l49 -15v-63l-217 10z" />
    <glyph glyph-name="y" unicode="y" horiz-adv-x="1093" 
d="M-6 922v65l248 -10l278 10v-65l-67 -15q-83 -20 -84 -71q0 -13 6 -29q31 -94 68.5 -194.5t89 -232.5t73.5 -194q98 231 219 572q23 59 23 80q0 27 -22.5 41t-73.5 28l-52 15v65l205 -10l195 10v-65l-43 -15q-49 -16 -64.5 -33.5t-36.5 -66.5l-567 -1366l-199 20l322 527
h-45q-41 98 -156.5 388t-175.5 433q-20 51 -37.5 66.5t-62.5 31.5z" />
    <glyph glyph-name="z" unicode="z" horiz-adv-x="1048" 
d="M66 -6v69l606 832h-223q-131 0 -176.5 -34t-69.5 -132l-21 -78l-76 4v334q33 -8 181 -8h645l10 -57l-606 -842h338q84 0 130 50t93 216h80l-37 -358q-133 10 -612 10q-158 0 -262 -6z" />
    <glyph glyph-name="braceleft" unicode="{" horiz-adv-x="749" 
d="M20 621q0 78 74 77q49 0 139 -53q53 63 54 178q0 70 -12.5 208t-12.5 188q0 88 15.5 147t59.5 109.5t132 74t223 23.5l17 -80h-15q-55 0 -93 -20.5t-59.5 -49t-32.5 -77t-14 -89t-3 -98.5v-192q0 -240 -218 -349q217 -98 218 -344v-194q0 -72 6 -121t24.5 -102.5
t61.5 -81t110 -27.5h15l-17 -80q-135 0 -223 23.5t-132 74t-59.5 109.5t-15.5 148q0 47 11.5 176t11.5 200q0 135 -49 195q-92 -53 -142 -53q-33 0 -53.5 21.5t-20.5 58.5z" />
    <glyph glyph-name="bar" unicode="|" horiz-adv-x="446" 
d="M182 -403v2068h82v-2068h-82z" />
    <glyph glyph-name="braceright" unicode="}" horiz-adv-x="747" 
d="M39 -252h14q68 0 111 27.5t61.5 81t24.5 102.5t6 121v194q0 246 217 344q-217 109 -217 349v192q0 57 -3 98t-14.5 89.5t-33 77t-59 49t-93.5 20.5h-14l16 80q135 0 223.5 -23.5t132.5 -74t59 -109.5t15 -147q0 -49 -12 -187.5t-12 -208.5q0 -115 53 -178q90 53 139 53
q74 0 74 -77q0 -37 -20.5 -58.5t-53.5 -21.5q-49 0 -141 53q-49 -59 -49 -195q0 -72 11 -200.5t11 -175.5q0 -88 -15 -147.5t-59 -110t-132.5 -74t-223.5 -23.5z" />
    <glyph glyph-name="asciitilde" unicode="~" 
d="M145 616q0 117 65.5 184.5t164.5 67.5q80 0 241.5 -80.5t237.5 -80.5q133 0 141 135h84q0 -115 -65.5 -176.5t-165.5 -61.5q-86 0 -248 79t-231 79q-133 0 -142 -146h-82z" />
    <glyph glyph-name="uni00A0" unicode="&#xa0;" horiz-adv-x="512" 
 />
    <glyph glyph-name="exclamdown" unicode="&#xa1;" horiz-adv-x="618" 
d="M137 809q0 72 50.5 122t122 50t121.5 -50t50 -122t-50 -122t-121.5 -50t-122 50t-50.5 122zM158 -342q0 78 52 363.5t62 465.5h72q10 -182 61.5 -470.5t51.5 -370.5q0 -160 -148 -160q-151 0 -151 172z" />
    <glyph glyph-name="cent" unicode="&#xa2;" 
d="M178 479q0 227 140.5 380t355.5 153q61 0 123 -15l127 285l67 -27l-123 -278q70 -29 104 -76t34 -86q0 -68 -47.5 -107.5t-112.5 -48.5l-55 29l-5 115l-264 -608q90 -78 215 -78q84 0 158 39t104 98l43 -57q-123 -227 -409 -228q-96 0 -195 41l-133 -305l-67 27l139 313
q-199 139 -199 434zM399 514q0 -156 72 -258l285 651q-23 23 -84 23q-119 0 -196 -106.5t-77 -309.5z" />
    <glyph glyph-name="sterling" unicode="&#xa3;" 
d="M61 68q0 45 38 78.5t112 33.5q31 0 68 -6q49 102 59 318h-234v83h238l10 224h-248v84h256q2 160 50.5 278.5t128 185t173 98.5t197.5 32q74 0 150 -21.5t76 -69t-51.5 -113t-108.5 -65.5q-4 0 -29.5 37t-70 73t-89.5 36q-88 0 -131 -92.5t-61 -298.5q-6 -74 -6 -80h387
v-84h-393q-18 -176 -25 -224h418v-83h-432q-37 -186 -197 -316q41 10 123 10q68 0 188.5 -23.5t178.5 -23.5q176 0 256 94l32 -53q-37 -92 -130 -172t-240 -80q-76 0 -143.5 23.5t-159 74t-140.5 72.5q-59 -121 -153 -121q-45 0 -71 27t-26 64z" />
    <glyph glyph-name="currency" unicode="&#xa4;" horiz-adv-x="1216" 
d="M133 311l150 154q-94 121 -94.5 270.5t94.5 270.5l-150 153l60 64l151 -156q113 96 264.5 96t263.5 -96l152 156l59 -64l-149 -153q94 -121 94 -270.5t-94 -270.5l149 -154l-59 -63l-152 155q-113 -96 -264 -96t-264 96l-151 -155zM274 735.5q0 -147.5 96.5 -250
t238 -102.5t237.5 102.5t96 250t-96 249.5t-237.5 102t-238 -102t-96.5 -249.5z" />
    <glyph glyph-name="yen" unicode="&#xa5;" 
d="M-61 1362v82l286 -10l334 10v-80l-100 -21q-111 -23 -72 -98l287 -579l280 573q43 82 -71 104l-97 21v80l287 -10l199 10v-82l-76 -19q-39 -10 -60.5 -30.5t-48.5 -65.5l-206 -379h221v-86h-264l-117 -221h381v-86h-383v-289q0 -47 19.5 -67.5t70.5 -30.5l98 -20v-78
l-301 10l-297 -10v78l97 20q53 10 71.5 30.5t18.5 67.5v289h-396v86h389l-120 221h-269v86h224l-201 377q-43 82 -113 98z" />
    <glyph glyph-name="brokenbar" unicode="&#xa6;" horiz-adv-x="450" 
d="M184 -403v921h82v-921h-82zM184 733v932h82v-932h-82z" />
    <glyph glyph-name="section" unicode="&#xa7;" 
d="M94 25l84 22q14 -106 88 -191t215 -85q166 0 262.5 133t96.5 356q0 262 -91.5 544.5t-185.5 418.5l64 34q70 -82 135 -174t149 -231t135.5 -298t51.5 -304q0 -283 -158 -446.5t-381 -163.5q-131 0 -228.5 44t-144.5 110.5t-69.5 124t-22.5 106.5zM106 1114
q0 291 164 448.5t387 157.5q102 0 184.5 -29.5t130.5 -73.5t80.5 -98.5t45 -99.5t12.5 -82l-84 -20q-12 104 -86 189t-215 85q-168 0 -265.5 -135t-97.5 -356q0 -262 91.5 -544t185.5 -415l-61 -37q-472 588 -472 1010z" />
    <glyph glyph-name="dieresis" unicode="&#xa8;" horiz-adv-x="829" 
d="M72 1316.5q0 61.5 42 104.5t103.5 43t104.5 -43t43 -104.5t-43 -103.5t-104.5 -42t-103.5 42t-42 103.5zM465 1316.5q0 61.5 42 104.5t103.5 43t104.5 -43t43 -104.5t-43 -103.5t-104.5 -42t-103.5 42t-42 103.5z" />
    <glyph glyph-name="copyright" unicode="&#xa9;" horiz-adv-x="1873" 
d="M96 721q0 352 243 593.5t595 241.5q356 0 600 -241.5t244 -593.5t-244 -594t-600 -242q-354 0 -596 242t-242 594zM201 720.5q0 -317.5 212 -531.5t521 -214q313 0 526 214t213 531.5t-213 531.5t-526 214q-309 0 -521 -214t-212 -531.5zM479 702q0 229 138.5 382
t359.5 153q164 0 245 -62.5t81 -126t-43 -104.5t-109 -49l-43 37v121q0 66 -28.5 84t-102.5 18q-131 0 -216 -110.5t-85 -307.5q0 -209 95 -306t243 -97q92 0 160.5 40t91.5 79l24 39l43 -62q-125 -231 -403 -231q-190 0 -320.5 127.5t-130.5 375.5z" />
    <glyph glyph-name="ordfeminine" unicode="&#xaa;" horiz-adv-x="905" 
d="M111 881q0 209 411 247v58q0 72 -12 116t-42 63t-57.5 24.5t-74.5 5.5q-31 0 -44 -11.5t-13 -42.5v-112l-35 -27q-123 18 -123 107q0 63 84 108t223 45q123 0 189.5 -66.5t66.5 -189.5q0 -43 -3 -167t-3 -150q-2 -102 67 -103q41 0 76 21l17 -31q-43 -90 -150 -90
q-59 0 -101 32t-52 87q-20 -45 -72.5 -82t-136.5 -37q-102 0 -158.5 56.5t-56.5 138.5zM266 907q0 -55 35 -91t88 -36q80 0 106.5 45t26.5 154v104q-256 -37 -256 -176z" />
    <glyph glyph-name="guillemotleft" unicode="&#xab;" horiz-adv-x="1171" 
d="M76 727l487 578h68l-269 -566v-24l269 -565h-68zM516 727l488 578h67l-268 -566v-24l268 -565h-67z" />
    <glyph glyph-name="logicalnot" unicode="&#xac;" 
d="M131 868v90h946v-452h-94v362h-852z" />
    <glyph glyph-name="uni00AD" unicode="&#xad;" horiz-adv-x="763" 
 />
    <glyph glyph-name="registered" unicode="&#xae;" horiz-adv-x="1873" 
d="M96 721q0 352 243 593.5t595 241.5q356 0 600 -241.5t244 -593.5t-244 -593t-600 -241q-354 0 -596 241t-242 593zM201 720.5q0 -317.5 212 -530.5t521 -213q324 0 532 220q-147 0 -222 41t-136 131q-37 53 -101.5 162.5t-76.5 127.5q-20 0 -63.5 1.5t-63.5 1.5
q0 -150 6 -312q2 -35 14.5 -46t53.5 -19l75 -15v-55l-223 6l-256 -6v55l78 15q66 10 67 65v20q0 17 1.5 48t2.5 71.5t1 101.5v122l-5 362q-4 33 -17 45.5t-50 20.5l-78 16v53l326 -4l14 2q14 0 36.5 2t48.5 4.5t56.5 3.5t55.5 1q119 0 209 -59.5t90 -201.5q0 -170 -201 -256
v-6l139 -202q78 -109 138.5 -166.5t138.5 -65.5q150 199 149 459q0 317 -213 531t-526 214q-309 0 -521 -214t-212 -531.5zM805 737q70 -12 156 -12q53 0 104 56.5t51 162.5q0 98 -63.5 151.5t-163.5 53.5h-64q-20 0 -20 -16v-396z" />
    <glyph glyph-name="macron" unicode="&#xaf;" horiz-adv-x="888" 
d="M141 1190v131h604v-131h-604z" />
    <glyph glyph-name="degree" unicode="&#xb0;" horiz-adv-x="860" 
d="M88 1104q0 147 99.5 244.5t242.5 97.5q141 0 241.5 -97.5t100.5 -244.5q0 -152 -99.5 -248t-242.5 -96t-242.5 96t-99.5 248zM205 1103.5q0 -102.5 64.5 -173t160.5 -70.5t160.5 70.5t64.5 173t-64.5 172.5t-160.5 70t-160.5 -70t-64.5 -172.5z" />
    <glyph glyph-name="plusminus" unicode="&#xb1;" 
d="M123 0v96h960v-96h-960zM123 686v98h430v441h102v-441h428v-98h-428v-442h-102v442h-430z" />
    <glyph glyph-name="uni00B2" unicode="&#xb2;" horiz-adv-x="768" 
d="M86 637v74q209 186 293 278q74 80 93.5 130t19.5 106q0 74 -47.5 121t-127.5 47q-53 0 -53 -35v-133l-43 -35q-53 2 -94 31.5t-41 70.5q0 66 76 121t211 55q121 0 206 -58t85 -159q0 -68 -34 -123t-130 -139q-14 -10 -74.5 -63.5t-112 -100.5t-53.5 -49l416 8l-19 -149
q-164 2 -342 2h-229z" />
    <glyph glyph-name="uni00B3" unicode="&#xb3;" horiz-adv-x="768" 
d="M80 756q0 43 40 74.5t93 35.5l39 -30q0 -23 1 -68t1 -68q0 -14 63 -14q82 0 139.5 48t57.5 124q0 162 -199 162q-61 0 -102 -4l-8 82q125 0 201.5 38t76.5 115q0 55 -40 89t-111 34q-106 0 -189 -65l-30 59q37 39 116.5 69.5t157.5 30.5q104 0 177 -47t73 -141
q0 -57 -43 -104.5t-127 -71.5q86 -16 147.5 -67.5t61.5 -143.5q0 -129 -105.5 -204t-253.5 -75q-117 0 -177 39.5t-60 102.5z" />
    <glyph glyph-name="acute" unicode="&#xb4;" horiz-adv-x="829" 
d="M193 1143l172 375h280l-369 -388z" />
    <glyph glyph-name="uni00B5" unicode="&#xb5;" horiz-adv-x="1210" 
d="M33 903v66l254 10l112 12q-12 -109 -12 -536q0 -188 42 -272.5t167 -84.5q127 0 165 78t38 248v354q0 51 -17.5 77t-68.5 36l-64 12v66l258 10l113 12q-10 -291 -10 -641q0 -18 -1 -54t-1 -51.5t2 -42t8 -38.5t16 -26.5t26.5 -21.5t41.5 -12l69 -10v-61l-305 -49h-61
l6 147l-18 4q-37 -59 -112 -112.5t-185 -53.5q-150 0 -226 82q0 -367 2 -551h-170q66 362 72 809q0 92 2 268.5t2 200.5q0 49 -18.5 75t-69.5 38z" />
    <glyph glyph-name="paragraph" unicode="&#xb6;" horiz-adv-x="1400" 
d="M100 948q0 201 150.5 343.5t408.5 142.5h517v-1837h-99v1742h-223q-90 0 -90 -79v-1442q0 -348 -289 -348q-94 0 -170 53t-76 158q0 66 45 110.5t109 44.5q66 0 110 -42t44 -105q0 -37 -20.5 -74t-53.5 -53l2 -15q94 0 146.5 56.5t52.5 197.5v664h-46q-254 0 -386 142
t-132 341z" />
    <glyph glyph-name="periodcentered" unicode="&#xb7;" horiz-adv-x="542" 
d="M113 733.5q0 65.5 46 112.5t111.5 47t112.5 -47t47 -112.5t-47 -112t-112.5 -46.5t-111.5 46.5t-46 112z" />
    <glyph glyph-name="cedilla" unicode="&#xb8;" horiz-adv-x="829" 
d="M154 -516l14 61q66 -29 137 -28q154 0 154 123q0 43 -32 78.5t-83 58t-85 33t-66 18.5l256 207l63 -17l-123 -143q41 0 83 -9t92 -30.5t81 -68t31 -111.5q0 -111 -82 -168t-201 -57q-133 0 -239 53z" />
    <glyph glyph-name="uni00B9" unicode="&#xb9;" horiz-adv-x="768" 
d="M152 1280v80l243 88h103v-690q0 -33 22 -35l125 -14v-72l-239 6l-230 -6v72l123 14q27 2 27 35v559z" />
    <glyph glyph-name="ordmasculine" unicode="&#xba;" horiz-adv-x="911" 
d="M92 1069q0 174 100.5 284.5t270.5 110.5q147 0 252.5 -101t105.5 -282q0 -178 -104.5 -285.5t-270.5 -107.5q-141 0 -247.5 99.5t-106.5 281.5zM258 1092q0 -166 58.5 -254t142.5 -88q197 0 196 311q0 170 -57 256t-143 86q-197 0 -197 -311z" />
    <glyph glyph-name="guillemotright" unicode="&#xbb;" horiz-adv-x="1171" 
d="M100 150l265 565v24l-265 566h66l487 -578l-487 -577h-66zM541 150l264 565v24l-264 566h65l488 -578l-488 -577h-65z" />
    <glyph glyph-name="onequarter" unicode="&#xbc;" horiz-adv-x="2088" 
d="M207 1280v80l244 88h102v-690q0 -33 22 -35l125 -14v-72l-239 6l-230 -6v72l123 14q27 2 27 35v559zM379 35l1282 1446l55 -51l-1280 -1446zM1200 229v90q16 33 385 543l148 -16q-307 -360 -433 -535h283v49q0 37 -10 160l178 4q0 -27 -1 -101.5t-1 -111.5h119v-82h-119
v-116q0 -33 35 -41l74 -17v-61l-195 6l-190 -6v61l75 17q35 8 35 41v116h-383z" />
    <glyph glyph-name="onehalf" unicode="&#xbd;" horiz-adv-x="2088" 
d="M207 1280v80l244 88h102v-690q0 -33 22 -35l125 -14v-72l-239 6l-230 -6v72l123 14q27 2 27 35v559zM379 35l1282 1446l55 -51l-1280 -1446zM1288 0v74q209 186 293 278q74 80 93.5 130t19.5 106q0 74 -47.5 121t-126.5 47q-53 0 -54 -35v-133l-43 -35q-53 2 -94 31.5
t-41 70.5q0 66 76 121t211 55q121 0 206 -58t85 -159q0 -68 -34 -123t-130 -139q-14 -10 -74.5 -63t-112 -100.5t-53.5 -49.5l416 8l-18 -149q-164 2 -342 2h-230z" />
    <glyph glyph-name="threequarters" unicode="&#xbe;" horiz-adv-x="2088" 
d="M229 756q0 43 40 74.5t93 35.5l39 -30q0 -23 1 -68t1 -68q0 -14 64 -14q82 0 139.5 48t57.5 124q0 162 -199 162q-61 0 -103 -4l-8 82q125 0 202 38t77 115q0 55 -40 89t-112 34q-106 0 -188 -65l-31 59q37 39 117 69.5t158 30.5q104 0 176.5 -47t72.5 -141
q0 -57 -43 -104.5t-127 -71.5q86 -16 147.5 -67.5t61.5 -143.5q0 -129 -105.5 -204t-252.5 -75q-117 0 -177.5 39.5t-60.5 102.5zM379 35l1282 1446l55 -51l-1280 -1446zM1198 229v90q16 33 385 543l148 -16q-307 -360 -433 -535h283v49q0 37 -10 160l178 4q0 -27 -1 -101.5
t-1 -111.5h119v-82h-119v-116q0 -33 35 -41l73 -17v-61l-194 6l-191 -6v61l76 17q35 8 35 41v116h-383z" />
    <glyph glyph-name="questiondown" unicode="&#xbf;" horiz-adv-x="915" 
d="M80 -197q0 80 41 160t100.5 140.5t118.5 113.5t100 104.5t41 90.5q0 25 -10 86l51 -4q18 -14 49 -75t35 -81q-4 -70 -49 -145.5t-96 -131t-93 -131t-42 -147.5q0 -98 47 -161.5t151 -63.5q111 0 111 61l-2 221l49 35q72 -4 121 -50t49 -114q0 -86 -95 -155.5t-272 -69.5
q-182 0 -293.5 82.5t-111.5 234.5zM326 809q0 72 50 122t121.5 50t122 -50t50.5 -122t-50.5 -122t-122 -50t-121.5 50t-50 122z" />
    <glyph glyph-name="Agrave" unicode="&#xc0;" horiz-adv-x="1550" 
d="M-27 -10v80l103 20q47 8 70.5 29.5t41.5 66.5l490 1262l176 39q225 -606 512 -1299q20 -47 40.5 -68.5t66.5 -29.5l102 -20v-80l-332 10l-334 -10v80l111 20q57 12 78.5 33.5t5.5 64.5l-152 402h-495l-140 -402q-16 -43 3.5 -65.5t76.5 -32.5l115 -20v-80l-305 10z
M489 684h433l-217 586zM520 1952h285l170 -375l-82 -12z" />
    <glyph glyph-name="Aacute" unicode="&#xc1;" horiz-adv-x="1550" 
d="M-27 -10v80l103 20q47 8 70.5 29.5t41.5 66.5l490 1262l176 39q225 -606 512 -1299q20 -47 40.5 -68.5t66.5 -29.5l102 -20v-80l-332 10l-334 -10v80l111 20q57 12 78.5 33.5t5.5 64.5l-152 402h-495l-140 -402q-16 -43 3.5 -65.5t76.5 -32.5l115 -20v-80l-305 10z
M489 684h433l-217 586zM571 1577l172 375h281l-369 -387z" />
    <glyph glyph-name="Acircumflex" unicode="&#xc2;" horiz-adv-x="1550" 
d="M-27 -10v80l103 20q47 8 70.5 29.5t41.5 66.5l490 1262l176 39q225 -606 512 -1299q20 -47 40.5 -68.5t66.5 -29.5l102 -20v-80l-332 10l-334 -10v80l111 20q57 12 78.5 33.5t5.5 64.5l-152 402h-495l-140 -402q-16 -43 3.5 -65.5t76.5 -32.5l115 -20v-80l-305 10z
M440 1593l273 371h114l277 -371l-43 -37l-287 222h-4l-278 -219zM489 684h433l-217 586z" />
    <glyph glyph-name="Atilde" unicode="&#xc3;" horiz-adv-x="1550" 
d="M-27 -10v80l103 20q47 8 70.5 29.5t41.5 66.5l490 1262l176 39q225 -606 512 -1299q20 -47 40.5 -68.5t66.5 -29.5l102 -20v-80l-332 10l-334 -10v80l111 20q57 12 78.5 33.5t5.5 64.5l-152 402h-495l-140 -402q-16 -43 3.5 -65.5t76.5 -32.5l115 -20v-80l-305 10z
M432 1626q20 94 75.5 163t143.5 69q45 0 156 -38t147 -38q43 0 68 17.5t49 70.5l45 -23q-25 -106 -78 -167.5t-157 -61.5q-43 0 -147.5 36t-125.5 36q-86 0 -129 -86zM489 684h433l-217 586z" />
    <glyph glyph-name="Adieresis" unicode="&#xc4;" horiz-adv-x="1550" 
d="M-27 -10v80l103 20q47 8 70.5 29.5t41.5 66.5l490 1262l176 39q225 -606 512 -1299q20 -47 40.5 -68.5t66.5 -29.5l102 -20v-80l-332 10l-334 -10v80l111 20q57 12 78.5 33.5t5.5 64.5l-152 402h-495l-140 -402q-16 -43 3.5 -65.5t76.5 -32.5l115 -20v-80l-305 10z
M426 1751q0 61 42 104t103.5 43t104.5 -43t43 -104t-43 -103t-104.5 -42t-103.5 42t-42 103zM489 684h433l-217 586zM819 1751q0 61 42 104t103.5 43t104.5 -43t43 -104t-43 -103t-104.5 -42t-103.5 42t-42 103z" />
    <glyph glyph-name="Aring" unicode="&#xc5;" horiz-adv-x="1550" 
d="M-27 -10v80l103 20q47 8 70.5 29.5t41.5 66.5q258 651 451 1162q-78 37 -124 108.5t-46 163.5q0 127 88 213t213 86q129 0 216 -85t87 -214q0 -90 -46 -162t-122 -108q201 -530 461 -1162q20 -47 40.5 -68.5t66.5 -29.5l102 -20v-80l-332 10l-334 -10v80l111 20
q57 12 78.5 33.5t5.5 64.5l-152 402h-495l-140 -402q-16 -43 3.5 -65.5t76.5 -32.5l115 -20v-80l-305 10zM489 684h433l-217 586zM567 1620q0 -94 54.5 -154.5t148.5 -60.5t149.5 60.5t55.5 154.5t-55.5 154.5t-149.5 60.5t-148.5 -60.5t-54.5 -154.5z" />
    <glyph glyph-name="AE" unicode="&#xc6;" horiz-adv-x="2129" 
d="M-49 -10v78q143 25 192 55q37 25 60 61q109 190 361.5 647t287.5 519l-82 14v80l350 -10h522q53 0 131 6l130 10l51 6q0 -12 -9.5 -150.5t-17.5 -265.5h-80l-26 95q-31 106 -63 153t-91 47h-377q-45 0 -53 -8t-8 -49v-500q70 0 266 4q47 2 71.5 24.5t39.5 80.5l26 112h80
l-10 -264l10 -270h-80l-26 113q-25 104 -111 106q-197 4 -266 4v-461q2 -129 147 -129h248q88 0 143.5 31t110.5 133l92 172h76l-64 -444q-281 10 -401 10h-461l-332 -10v78l111 20q55 10 75.5 30.5t20.5 67.5q0 45 2 181.5t2 226.5h-452l-207 -410q-12 -25 -12 -45
q0 -39 75 -51l119 -20v-78l-342 10zM594 688h405v103q0 106 -1 270t-1 207q0 55 -45 65z" />
    <glyph glyph-name="Ccedilla" unicode="&#xc7;" horiz-adv-x="1515" 
d="M102 709q0 319 216.5 537t553.5 218q184 0 367 -55l160 25q-2 -23 -19.5 -185t-23.5 -248h-76l-43 129q-76 231 -360 232q-223 0 -375 -145.5t-152 -448.5q0 -311 165 -489.5t456 -178.5q119 0 231 31l121 320h82q-8 -160 -8 -365q-256 -117 -539 -117q-31 0 -45 2
l-82 -96q41 0 83 -9t92 -30.5t81 -68t31 -111.5q0 -111 -82 -168t-201 -57q-133 0 -239 53l14 61q66 -29 137 -28q154 0 154 123q0 43 -32 78.5t-83 58t-85 33t-66 18.5l186 152q-287 41 -453 238.5t-166 490.5z" />
    <glyph glyph-name="Egrave" unicode="&#xc8;" horiz-adv-x="1429" 
d="M86 -10v80l109 20q57 10 78.5 31.5t21.5 66.5q6 188 6 527l-6 528q-4 51 -23.5 70.5t-76.5 29.5l-109 21v80l322 -10h532q53 0 133 6t135 10l54 6q-16 -125 -37 -416h-80l-25 95q-29 104 -62.5 152t-92.5 48h-400q-25 0 -31 -7t-6 -25v-525q150 0 269 6q49 4 72.5 25.5
t37.5 79.5l27 112h80l-10 -266l10 -270h-80l-27 113q-14 55 -37.5 77.5t-72.5 26.5l-269 6v-461q0 -129 152 -129h242q88 0 144 31t110 133l92 172h75q-43 -254 -63 -444q-281 10 -401 10h-471zM467 1952h285l170 -375l-82 -12z" />
    <glyph glyph-name="Eacute" unicode="&#xc9;" horiz-adv-x="1429" 
d="M86 -10v80l109 20q57 10 78.5 31.5t21.5 66.5q6 188 6 527l-6 528q-4 51 -23.5 70.5t-76.5 29.5l-109 21v80l322 -10h532q53 0 133 6t135 10l54 6q-16 -125 -37 -416h-80l-25 95q-29 104 -62.5 152t-92.5 48h-400q-25 0 -31 -7t-6 -25v-525q150 0 269 6q49 4 72.5 25.5
t37.5 79.5l27 112h80l-10 -266l10 -270h-80l-27 113q-14 55 -37.5 77.5t-72.5 26.5l-269 6v-461q0 -129 152 -129h242q88 0 144 31t110 133l92 172h75q-43 -254 -63 -444q-281 10 -401 10h-471zM543 1577l172 375h280l-368 -387z" />
    <glyph glyph-name="Ecircumflex" unicode="&#xca;" horiz-adv-x="1429" 
d="M86 -10v80l109 20q57 10 78.5 31.5t21.5 66.5q6 188 6 527l-6 528q-4 51 -23.5 70.5t-76.5 29.5l-109 21v80l322 -10h532q53 0 133 6t135 10l54 6q-16 -125 -37 -416h-80l-25 95q-29 104 -62.5 152t-92.5 48h-400q-25 0 -31 -7t-6 -25v-525q150 0 269 6q49 4 72.5 25.5
t37.5 79.5l27 112h80l-10 -266l10 -270h-80l-27 113q-14 55 -37.5 77.5t-72.5 26.5l-269 6v-461q0 -129 152 -129h242q88 0 144 31t110 133l92 172h75q-43 -254 -63 -444q-281 10 -401 10h-471zM389 1593l273 371h114l277 -371l-43 -37l-287 222h-4l-279 -219z" />
    <glyph glyph-name="Edieresis" unicode="&#xcb;" horiz-adv-x="1429" 
d="M86 -10v80l109 20q57 10 78.5 31.5t21.5 66.5q6 188 6 527l-6 528q-4 51 -23.5 70.5t-76.5 29.5l-109 21v80l322 -10h532q53 0 133 6t135 10l54 6q-16 -125 -37 -416h-80l-25 95q-29 104 -62.5 152t-92.5 48h-400q-25 0 -31 -7t-6 -25v-525q150 0 269 6q49 4 72.5 25.5
t37.5 79.5l27 112h80l-10 -266l10 -270h-80l-27 113q-14 55 -37.5 77.5t-72.5 26.5l-269 6v-461q0 -129 152 -129h242q88 0 144 31t110 133l92 172h75q-43 -254 -63 -444q-281 10 -401 10h-471zM379 1751q0 61 42 104t103.5 43t104.5 -43t43 -104t-43 -103t-104.5 -42
t-103.5 42t-42 103zM772 1751q0 61 42 104t103.5 43t104.5 -43t43 -104t-43 -103t-104.5 -42t-103.5 42t-42 103z" />
    <glyph glyph-name="Igrave" unicode="&#xcc;" horiz-adv-x="827" 
d="M86 -10v80l109 20q57 10 77.5 30.5t22.5 67.5q6 201 6 539l-6 518q-2 47 -22.5 67.5t-77.5 30.5l-109 21v80l328 -10l327 10v-80l-108 -21q-57 -10 -76.5 -30.5t-21.5 -67.5q-6 -180 -7 -518l7 -539q2 -47 21 -67.5t77 -30.5l108 -20v-80l-327 10zM164 1952h285l169 -375
l-81 -12z" />
    <glyph glyph-name="Iacute" unicode="&#xcd;" horiz-adv-x="827" 
d="M86 -10v80l109 20q57 10 77.5 30.5t22.5 67.5q6 201 6 539l-6 518q-2 47 -22.5 67.5t-77.5 30.5l-109 21v80l328 -10l327 10v-80l-108 -21q-57 -10 -76.5 -30.5t-21.5 -67.5q-6 -180 -7 -518l7 -539q2 -47 21 -67.5t77 -30.5l108 -20v-80l-327 10zM209 1577l172 375h281
l-369 -387z" />
    <glyph glyph-name="Icircumflex" unicode="&#xce;" horiz-adv-x="827" 
d="M82 1593l272 371h115l276 -371l-43 -37l-286 222h-4l-279 -219zM86 -10v80l109 20q57 10 77.5 30.5t22.5 67.5q6 201 6 539l-6 518q-2 47 -22.5 67.5t-77.5 30.5l-109 21v80l328 -10l327 10v-80l-108 -21q-57 -10 -76.5 -30.5t-21.5 -67.5q-6 -180 -7 -518l7 -539
q2 -47 21 -67.5t77 -30.5l108 -20v-80l-327 10z" />
    <glyph glyph-name="Idieresis" unicode="&#xcf;" horiz-adv-x="827" 
d="M72 1751q0 61 42 104t103.5 43t104.5 -43t43 -104t-43 -103t-104.5 -42t-103.5 42t-42 103zM86 -10v80l109 20q57 10 77.5 30.5t22.5 67.5q6 201 6 539l-6 518q-2 47 -22.5 67.5t-77.5 30.5l-109 21v80l328 -10l327 10v-80l-108 -21q-57 -10 -76.5 -30.5t-21.5 -67.5
q-6 -180 -7 -518l7 -539q2 -47 21 -67.5t77 -30.5l108 -20v-80l-327 10zM465 1751q0 61 42 104t103.5 43t104.5 -43t43 -104t-43 -103t-104.5 -42t-103.5 42t-42 103z" />
    <glyph glyph-name="Eth" unicode="&#xd0;" horiz-adv-x="1736" 
d="M86 -10v80l109 20q57 10 77.5 30.5t22.5 67.5q6 178 6 498h-184v94h184l-6 463q-2 51 -21.5 70.5t-78.5 29.5l-109 21v80l311 -10q248 20 469 20q369 0 566.5 -208t197.5 -513q0 -336 -213 -542.5t-626 -206.5q-219 0 -394 16zM530 227q0 -100 61.5 -127.5t229.5 -27.5
q100 0 187.5 24.5t174.5 87t138 191.5t51 315q0 322 -149.5 494t-456.5 172h-199q-25 0 -31 -7.5t-6 -25.5v-543h445v-94h-445v-459z" />
    <glyph glyph-name="Ntilde" unicode="&#xd1;" horiz-adv-x="1773" 
d="M76 -10v80l108 20q57 10 78 30.5t23 67.5q20 645 20 1055q0 47 -20.5 68.5t-77.5 31.5l-103 21v80l271 -10l225 10q39 -94 86 -156l717 -960q-10 518 -21 915q-2 49 -22.5 69.5t-75.5 30.5l-110 21v80l274 -10l264 10v-80l-108 -21q-57 -10 -78 -30.5t-21 -69.5
q-12 -1075 -12 -1253h-131q-582 797 -959 1280q2 -807 3 -1082q0 -47 20 -67.5t78 -30.5l110 -20v-80l-282 10zM526 1626q20 94 75.5 163t143.5 69q45 0 156 -38t148 -38q43 0 67.5 17.5t48.5 70.5l45 -23q-25 -106 -78 -167.5t-157 -61.5q-43 0 -147.5 36t-125.5 36
q-86 0 -129 -86z" />
    <glyph glyph-name="Ograve" unicode="&#xd2;" horiz-adv-x="1701" 
d="M104 702q0 332 209 546t555 216q135 0 263.5 -47t232.5 -136t167.5 -233.5t63.5 -322.5q0 -332 -208.5 -544t-552.5 -212q-131 0 -258 46t-233.5 133.5t-172.5 231.5t-66 322zM354 743q0 -330 145.5 -501.5t360.5 -171.5q106 0 192.5 38.5t139.5 101t89 145.5t50.5 166
t14.5 167q0 330 -143.5 502t-358.5 172q-133 0 -232.5 -58.5t-152.5 -152.5t-79 -196.5t-26 -211.5zM600 1952h285l170 -375l-82 -12z" />
    <glyph glyph-name="Oacute" unicode="&#xd3;" horiz-adv-x="1701" 
d="M104 702q0 332 209 546t555 216q135 0 263.5 -47t232.5 -136t167.5 -233.5t63.5 -322.5q0 -332 -208.5 -544t-552.5 -212q-131 0 -258 46t-233.5 133.5t-172.5 231.5t-66 322zM354 743q0 -330 145.5 -501.5t360.5 -171.5q106 0 192.5 38.5t139.5 101t89 145.5t50.5 166
t14.5 167q0 330 -143.5 502t-358.5 172q-133 0 -232.5 -58.5t-152.5 -152.5t-79 -196.5t-26 -211.5zM659 1577l172 375h281l-369 -387z" />
    <glyph glyph-name="Ocircumflex" unicode="&#xd4;" horiz-adv-x="1701" 
d="M104 702q0 332 209 546t555 216q135 0 263.5 -47t232.5 -136t167.5 -233.5t63.5 -322.5q0 -332 -208.5 -544t-552.5 -212q-131 0 -258 46t-233.5 133.5t-172.5 231.5t-66 322zM354 743q0 -330 145.5 -501.5t360.5 -171.5q106 0 192.5 38.5t139.5 101t89 145.5t50.5 166
t14.5 167q0 330 -143.5 502t-358.5 172q-133 0 -232.5 -58.5t-152.5 -152.5t-79 -196.5t-26 -211.5zM516 1593l272 371h115l277 -371l-43 -37l-287 222h-4l-279 -219z" />
    <glyph glyph-name="Otilde" unicode="&#xd5;" horiz-adv-x="1701" 
d="M104 702q0 332 209 546t555 216q135 0 263.5 -47t232.5 -136t167.5 -233.5t63.5 -322.5q0 -332 -208.5 -544t-552.5 -212q-131 0 -258 46t-233.5 133.5t-172.5 231.5t-66 322zM354 743q0 -330 145.5 -501.5t360.5 -171.5q106 0 192.5 38.5t139.5 101t89 145.5t50.5 166
t14.5 167q0 330 -143.5 502t-358.5 172q-133 0 -232.5 -58.5t-152.5 -152.5t-79 -196.5t-26 -211.5zM506 1626q20 94 75.5 163t143.5 69q45 0 155.5 -38t147.5 -38q43 0 67.5 17.5t49.5 70.5l45 -23q-25 -106 -78 -167.5t-158 -61.5q-43 0 -147.5 36t-124.5 36
q-86 0 -129 -86z" />
    <glyph glyph-name="Odieresis" unicode="&#xd6;" horiz-adv-x="1701" 
d="M104 702q0 332 209 546t555 216q135 0 263.5 -47t232.5 -136t167.5 -233.5t63.5 -322.5q0 -332 -208.5 -544t-552.5 -212q-131 0 -258 46t-233.5 133.5t-172.5 231.5t-66 322zM354 743q0 -330 145.5 -501.5t360.5 -171.5q106 0 192.5 38.5t139.5 101t89 145.5t50.5 166
t14.5 167q0 330 -143.5 502t-358.5 172q-133 0 -232.5 -58.5t-152.5 -152.5t-79 -196.5t-26 -211.5zM506 1751q0 61 42 104t103.5 43t104.5 -43t43 -104t-43 -103t-104.5 -42t-103.5 42t-42 103zM899 1751q0 61 42 104t103.5 43t104.5 -43t43 -104t-43 -103t-104.5 -42
t-103.5 42t-42 103z" />
    <glyph glyph-name="multiply" unicode="&#xd7;" 
d="M147 338l392 401l-392 400l68 67l389 -401l377 387l68 -68l-377 -387l389 -401l-64 -66l-393 402l-389 -400z" />
    <glyph glyph-name="Oslash" unicode="&#xd8;" horiz-adv-x="1701" 
d="M104 702q0 332 209 546t555 216q225 0 406 -116l180 239l72 -51l-180 -240q250 -209 249 -571q0 -332 -208.5 -544t-552.5 -212q-217 0 -398 109l-190 -256l-72 53l191 254q-261 204 -261 573zM354 743q0 -293 121 -467l701 941q-131 145 -332 145q-133 0 -232.5 -58.5
t-152.5 -152.5t-79 -196.5t-26 -211.5zM530 205q135 -135 330 -135q106 0 192.5 38.5t139.5 101t89 145.5t50.5 166t14.5 167q0 281 -115 455z" />
    <glyph glyph-name="Ugrave" unicode="&#xd9;" horiz-adv-x="1720" 
d="M51 1364v80l324 -10l330 10v-80l-107 -21q-57 -10 -78.5 -30.5t-21.5 -69.5v-745q0 -219 114.5 -314.5t298.5 -95.5q125 0 214 40t135.5 109.5t67 148.5t20.5 173q0 125 -2.5 393.5t-2.5 290.5q0 49 -20 69.5t-78 30.5l-110 21v80l272 -10l264 10v-80l-108 -21
q-57 -10 -79 -30.5t-22 -69.5l-4 -698q0 -276 -154.5 -426t-443.5 -150q-283 0 -441.5 134.5t-158.5 388.5v751q0 49 -20.5 69.5t-77.5 30.5zM606 1952h285l170 -375l-82 -12z" />
    <glyph glyph-name="Uacute" unicode="&#xda;" horiz-adv-x="1720" 
d="M51 1364v80l324 -10l330 10v-80l-107 -21q-57 -10 -78.5 -30.5t-21.5 -69.5v-745q0 -219 114.5 -314.5t298.5 -95.5q125 0 214 40t135.5 109.5t67 148.5t20.5 173q0 125 -2.5 393.5t-2.5 290.5q0 49 -20 69.5t-78 30.5l-110 21v80l272 -10l264 10v-80l-108 -21
q-57 -10 -79 -30.5t-22 -69.5l-4 -698q0 -276 -154.5 -426t-443.5 -150q-283 0 -441.5 134.5t-158.5 388.5v751q0 49 -20.5 69.5t-77.5 30.5zM678 1577l172 375h280l-368 -387z" />
    <glyph glyph-name="Ucircumflex" unicode="&#xdb;" horiz-adv-x="1720" 
d="M51 1364v80l324 -10l330 10v-80l-107 -21q-57 -10 -78.5 -30.5t-21.5 -69.5v-745q0 -219 114.5 -314.5t298.5 -95.5q125 0 214 40t135.5 109.5t67 148.5t20.5 173q0 125 -2.5 393.5t-2.5 290.5q0 49 -20 69.5t-78 30.5l-110 21v80l272 -10l264 10v-80l-108 -21
q-57 -10 -79 -30.5t-22 -69.5l-4 -698q0 -276 -154.5 -426t-443.5 -150q-283 0 -441.5 134.5t-158.5 388.5v751q0 49 -20.5 69.5t-77.5 30.5zM526 1593l273 371h114l277 -371l-43 -37l-287 222h-4l-278 -219z" />
    <glyph glyph-name="Udieresis" unicode="&#xdc;" horiz-adv-x="1720" 
d="M51 1364v80l324 -10l330 10v-80l-107 -21q-57 -10 -78.5 -30.5t-21.5 -69.5v-745q0 -219 114.5 -314.5t298.5 -95.5q125 0 214 40t135.5 109.5t67 148.5t20.5 173q0 125 -2.5 393.5t-2.5 290.5q0 49 -20 69.5t-78 30.5l-110 21v80l272 -10l264 10v-80l-108 -21
q-57 -10 -79 -30.5t-22 -69.5l-4 -698q0 -276 -154.5 -426t-443.5 -150q-283 0 -441.5 134.5t-158.5 388.5v751q0 49 -20.5 69.5t-77.5 30.5zM516 1751q0 61 42 104t103.5 43t104.5 -43t43 -104t-43 -103t-104.5 -42t-103.5 42t-42 103zM909 1751q0 61 42 104t103.5 43
t104.5 -43t43 -104t-43 -103t-104.5 -42t-103.5 42t-42 103z" />
    <glyph glyph-name="Yacute" unicode="&#xdd;" horiz-adv-x="1437" 
d="M-27 1364v80l330 -10l348 10v-80l-127 -21q-104 -16 -57 -104q68 -125 149.5 -267.5t128.5 -221.5l50 -82q137 217 317 567q14 29 14 47q0 47 -84 61l-112 21v80l276 -10l254 10v-80l-94 -21q-45 -8 -69.5 -29.5t-51.5 -66.5l-403 -690v-100q0 -139 4 -271
q2 -47 20.5 -67.5t75.5 -30.5l109 -20v-78l-322 10l-334 -10v78l109 20q55 10 73.5 29.5t20.5 68.5q4 66 4 271v90q-190 332 -416 698q-27 45 -52 66.5t-71 31.5zM602 1583l172 375h281l-369 -387z" />
    <glyph glyph-name="Thorn" unicode="&#xde;" horiz-adv-x="1398" 
d="M86 -10v78l109 20q57 10 77.5 30.5t22.5 67.5q6 190 6 529l-6 528q-4 51 -23.5 70.5t-76.5 29.5l-109 21v80l330 -10l325 10v-80l-108 -21q-68 -14 -82 -36.5t-16 -114.5q-2 -27 -3 -41q168 20 347 20q78 0 153.5 -22.5t144 -69.5t110.5 -131t42 -192q0 -84 -25.5 -160
t-80 -144.5t-155.5 -109.5t-241 -41l-129 12v86q41 -2 93 -2q129 0 212.5 85t83.5 257q0 326 -372 326h-183q-4 -180 -4 -350l7 -529q2 -47 22.5 -67.5t77.5 -30.5l106 -20v-78l-325 10z" />
    <glyph glyph-name="germandbls" unicode="&#xdf;" horiz-adv-x="1181" 
d="M53 -10v63l64 15q57 12 77.5 31.5t20.5 66.5v721h-137v80h137q0 293 123 442.5t334 149.5q164 0 265 -85t101 -210q0 -78 -42 -143.5t-91 -103.5t-91 -83t-42 -84q0 -49 36 -103.5t87 -105.5t103.5 -106.5t88 -127t35.5 -147.5q0 -121 -87 -205t-238 -84
q-61 0 -117.5 14.5t-81.5 28.5l-25 15l27 69q76 -37 164 -37q82 0 125 40t43 112q0 53 -49 123t-109.5 126t-110 128t-49.5 131q0 66 42 135.5t91.5 122.5t91.5 130t42 155q0 109 -60.5 161t-148.5 52q-123 0 -184.5 -90.5t-61.5 -243.5v-1147l-184 4z" />
    <glyph glyph-name="agrave" unicode="&#xe0;" horiz-adv-x="1024" 
d="M78 223q0 162 153.5 241t395.5 95v133q0 113 -38 179.5t-143 66.5q-123 0 -122 -74v-176l-64 -37q-63 10 -108.5 50t-45.5 104q0 90 113 148.5t289 58.5q166 0 252 -77t86 -247q0 -78 -8.5 -256t-8.5 -221q0 -113 91 -113q53 0 86 33l20 -43q-27 -53 -84 -86t-123 -33
q-82 0 -133 42t-59 116q-25 -57 -94.5 -107.5t-172.5 -50.5q-125 0 -203.5 74t-78.5 180zM256 1518h285l170 -375l-82 -13zM291 268q0 -74 45 -120t119 -46q68 0 117 43t51 127l4 224q-47 -6 -73 -10.5t-73 -15.5t-73.5 -26.5t-57.5 -39t-45 -58.5t-14 -78z" />
    <glyph glyph-name="aacute" unicode="&#xe1;" horiz-adv-x="1024" 
d="M78 223q0 162 153.5 241t395.5 95v133q0 113 -38 179.5t-143 66.5q-123 0 -122 -74v-176l-64 -37q-63 10 -108.5 50t-45.5 104q0 90 113 148.5t289 58.5q166 0 252 -77t86 -247q0 -78 -8.5 -256t-8.5 -221q0 -113 91 -113q53 0 86 33l20 -43q-27 -53 -84 -86t-123 -33
q-82 0 -133 42t-59 116q-25 -57 -94.5 -107.5t-172.5 -50.5q-125 0 -203.5 74t-78.5 180zM291 268q0 -74 45 -120t119 -46q68 0 117 43t51 127l4 224q-47 -6 -73 -10.5t-73 -15.5t-73.5 -26.5t-57.5 -39t-45 -58.5t-14 -78zM307 1143l172 375h281l-369 -388z" />
    <glyph glyph-name="acircumflex" unicode="&#xe2;" horiz-adv-x="1024" 
d="M78 223q0 162 153.5 241t395.5 95v133q0 113 -38 179.5t-143 66.5q-123 0 -122 -74v-176l-64 -37q-63 10 -108.5 50t-45.5 104q0 90 113 148.5t289 58.5q166 0 252 -77t86 -247q0 -78 -8.5 -256t-8.5 -221q0 -113 91 -113q53 0 86 33l20 -43q-27 -53 -84 -86t-123 -33
q-82 0 -133 42t-59 116q-25 -57 -94.5 -107.5t-172.5 -50.5q-125 0 -203.5 74t-78.5 180zM176 1159l273 371h114l277 -371l-43 -37l-287 221h-4l-279 -219zM291 268q0 -74 45 -120t119 -46q68 0 117 43t51 127l4 224q-47 -6 -73 -10.5t-73 -15.5t-73.5 -26.5t-57.5 -39
t-45 -58.5t-14 -78z" />
    <glyph glyph-name="atilde" unicode="&#xe3;" horiz-adv-x="1024" 
d="M78 223q0 162 153.5 241t395.5 95v133q0 113 -38 179.5t-143 66.5q-123 0 -122 -74v-176l-64 -37q-63 10 -108.5 50t-45.5 104q0 90 113 148.5t289 58.5q166 0 252 -77t86 -247q0 -78 -8.5 -256t-8.5 -221q0 -113 91 -113q53 0 86 33l20 -43q-27 -53 -84 -86t-123 -33
q-82 0 -133 42t-59 116q-25 -57 -94.5 -107.5t-172.5 -50.5q-125 0 -203.5 74t-78.5 180zM137 1192q20 94 75.5 162.5t143.5 68.5q45 0 156 -37.5t147 -37.5q43 0 68 17t49 71l45 -23q-25 -106 -78 -167.5t-157 -61.5q-43 0 -147.5 35.5t-125.5 35.5q-86 0 -129 -86z
M291 268q0 -74 45 -120t119 -46q68 0 117 43t51 127l4 224q-47 -6 -73 -10.5t-73 -15.5t-73.5 -26.5t-57.5 -39t-45 -58.5t-14 -78z" />
    <glyph glyph-name="adieresis" unicode="&#xe4;" horiz-adv-x="1024" 
d="M78 223q0 162 153.5 241t395.5 95v133q0 113 -38 179.5t-143 66.5q-123 0 -122 -74v-176l-64 -37q-63 10 -108.5 50t-45.5 104q0 90 113 148.5t289 58.5q166 0 252 -77t86 -247q0 -78 -8.5 -256t-8.5 -221q0 -113 91 -113q53 0 86 33l20 -43q-27 -53 -84 -86t-123 -33
q-82 0 -133 42t-59 116q-25 -57 -94.5 -107.5t-172.5 -50.5q-125 0 -203.5 74t-78.5 180zM152 1316.5q0 61.5 42 104.5t103 43t104 -43t43 -104.5t-43 -103.5t-104 -42t-103 42t-42 103.5zM291 268q0 -74 45 -120t119 -46q68 0 117 43t51 127l4 224q-47 -6 -73 -10.5
t-73 -15.5t-73.5 -26.5t-57.5 -39t-45 -58.5t-14 -78zM545 1316.5q0 61.5 42 104.5t103.5 43t104.5 -43t43 -104.5t-43 -103.5t-104.5 -42t-103.5 42t-42 103.5z" />
    <glyph glyph-name="aring" unicode="&#xe5;" horiz-adv-x="1024" 
d="M78 223q0 162 153.5 241t395.5 95v133q0 113 -38 179.5t-143 66.5q-123 0 -122 -74v-176l-64 -37q-63 10 -108.5 50t-45.5 104q0 90 113 148.5t289 58.5q166 0 252 -77t86 -247q0 -78 -8.5 -256t-8.5 -221q0 -113 91 -113q53 0 86 33l20 -43q-27 -53 -84 -86t-123 -33
q-82 0 -133 42t-59 116q-25 -57 -94.5 -107.5t-172.5 -50.5q-125 0 -203.5 74t-78.5 180zM270 1315q0 98 66.5 162.5t163.5 64.5q98 0 163.5 -64.5t65.5 -162.5t-65.5 -163t-163.5 -65q-96 0 -163 65t-67 163zM291 268q0 -74 45 -120t119 -46q68 0 117 43t51 127l4 224
q-47 -6 -73 -10.5t-73 -15.5t-73.5 -26.5t-57.5 -39t-45 -58.5t-14 -78zM348 1314.5q0 -69.5 41 -114.5t110.5 -45t111.5 45t42 114.5t-42 116t-111.5 46.5t-110.5 -46.5t-41 -116z" />
    <glyph glyph-name="ae" unicode="&#xe6;" horiz-adv-x="1552" 
d="M78 223q0 285 545 336v133q0 113 -38 179.5t-143 66.5q-121 0 -120 -74v-176l-64 -37q-63 10 -108.5 50t-45.5 104q0 90 112 148.5t286 58.5q219 0 284 -121q109 121 285 121q190 0 289.5 -119t99.5 -285v-43l-614 -49v-8q8 -195 96 -296t225 -101q72 0 138.5 35.5t90 61
t38.5 46.5l41 -57q-121 -227 -402 -228q-127 0 -233.5 54.5t-155.5 158.5q-31 -92 -123 -152.5t-209 -60.5q-125 0 -199.5 74t-74.5 180zM291 258q0 -76 45 -122t119 -46q84 0 142 57.5t50 137.5q-20 88 -24 209q-68 -10 -111 -21.5t-101.5 -36t-89 -70t-30.5 -108.5z
M844 586l389 45v24q0 283 -182 283q-207 0 -207 -352z" />
    <glyph glyph-name="ccedilla" unicode="&#xe7;" horiz-adv-x="993" 
d="M82 479q0 227 140 380t356 153q170 0 250.5 -64.5t80.5 -132t-47 -107.5t-112 -49l-68 33v131q0 70 -19.5 88.5t-87.5 18.5q-119 0 -195.5 -106.5t-76.5 -309.5q0 -197 100.5 -297t237.5 -100q86 0 157.5 38t104.5 99l43 -57q-123 -227 -409 -228h-7l-79 -94
q41 0 82.5 -9t92 -30.5t81 -68t30.5 -111.5q0 -111 -82 -168t-200 -57q-133 0 -240 53l14 61q66 -29 138 -28q154 0 153 123q0 43 -31.5 78.5t-83 58t-85 33t-66.5 18.5l186 152q-156 31 -257 157.5t-101 341.5z" />
    <glyph glyph-name="egrave" unicode="&#xe8;" horiz-adv-x="1036" 
d="M84 479q0 238 139 385.5t326 147.5q197 0 301 -122t104 -284v-43h-647q-2 -16 -2 -49q0 -195 96.5 -296t231.5 -101q86 0 159.5 38t106.5 99l45 -57q-123 -227 -409 -228q-190 0 -320.5 129t-130.5 381zM274 1518h285l170 -375l-82 -13zM311 637l418 6q6 291 -188 291
q-102 0 -162 -78t-68 -219z" />
    <glyph glyph-name="eacute" unicode="&#xe9;" horiz-adv-x="1036" 
d="M84 479q0 238 139 385.5t326 147.5q197 0 301 -122t104 -284v-43h-647q-2 -16 -2 -49q0 -195 96.5 -296t231.5 -101q86 0 159.5 38t106.5 99l45 -57q-123 -227 -409 -228q-190 0 -320.5 129t-130.5 381zM311 637l418 6q6 291 -188 291q-102 0 -162 -78t-68 -219z
M326 1143l172 375h280l-368 -388z" />
    <glyph glyph-name="ecircumflex" unicode="&#xea;" horiz-adv-x="1036" 
d="M84 479q0 238 139 385.5t326 147.5q197 0 301 -122t104 -284v-43h-647q-2 -16 -2 -49q0 -195 96.5 -296t231.5 -101q86 0 159.5 38t106.5 99l45 -57q-123 -227 -409 -228q-190 0 -320.5 129t-130.5 381zM197 1159l272 371h115l276 -371l-43 -37l-287 221h-4l-278 -219z
M311 637l418 6q6 291 -188 291q-102 0 -162 -78t-68 -219z" />
    <glyph glyph-name="edieresis" unicode="&#xeb;" horiz-adv-x="1036" 
d="M84 479q0 238 139 385.5t326 147.5q197 0 301 -122t104 -284v-43h-647q-2 -16 -2 -49q0 -195 96.5 -296t231.5 -101q86 0 159.5 38t106.5 99l45 -57q-123 -227 -409 -228q-190 0 -320.5 129t-130.5 381zM186 1316.5q0 61.5 42 104.5t103.5 43t104.5 -43t43 -104.5
t-43 -103.5t-104.5 -42t-103.5 42t-42 103.5zM311 637l418 6q6 291 -188 291q-102 0 -162 -78t-68 -219zM580 1316.5q0 61.5 42 104.5t103 43t104 -43t43 -104.5t-43 -103.5t-104 -42t-103 42t-42 103.5z" />
    <glyph glyph-name="igrave" unicode="&#xec;" horiz-adv-x="626" 
d="M55 1518h285l170 -375l-82 -13zM57 -10v63l62 15q59 14 79.5 33.5t20.5 64.5v446q0 109 -12 152t-53 57l-84 31v35l284 137h78q-4 -150 -4 -348v-510q0 -47 19.5 -65.5t76.5 -32.5l64 -15v-63l-264 10z" />
    <glyph glyph-name="iacute" unicode="&#xed;" horiz-adv-x="626" 
d="M57 -10v63l62 15q59 14 79.5 33.5t20.5 64.5v446q0 109 -12 152t-53 57l-84 31v35l284 137h78q-4 -150 -4 -348v-510q0 -47 19.5 -65.5t76.5 -32.5l64 -15v-63l-264 10zM104 1143l172 375h281l-369 -388z" />
    <glyph glyph-name="icircumflex" unicode="&#xee;" horiz-adv-x="626" 
d="M-25 1159l273 371h114l277 -371l-43 -37l-287 221h-4l-278 -219zM57 -10v63l62 15q59 14 79.5 33.5t20.5 64.5v446q0 109 -12 152t-53 57l-84 31v35l284 137h78q-4 -150 -4 -348v-510q0 -47 19.5 -65.5t76.5 -32.5l64 -15v-63l-264 10z" />
    <glyph glyph-name="idieresis" unicode="&#xef;" horiz-adv-x="626" 
d="M-35 1316.5q0 61.5 42 104.5t103.5 43t104.5 -43t43 -104.5t-43 -103.5t-104.5 -42t-103.5 42t-42 103.5zM57 -10v63l62 15q59 14 79.5 33.5t20.5 64.5v446q0 109 -12 152t-53 57l-84 31v35l284 137h78q-4 -150 -4 -348v-510q0 -47 19.5 -65.5t76.5 -32.5l64 -15v-63
l-264 10zM358 1316.5q0 61.5 42 104.5t103.5 43t104.5 -43t43 -104.5t-43 -103.5t-104.5 -42t-103.5 42t-42 103.5z" />
    <glyph glyph-name="eth" unicode="&#xf0;" horiz-adv-x="1155" 
d="M82 481q0 233 132 382t349 149q117 0 205 -60q-82 170 -225 334l-183 -96l-32 65l164 84q-129 135 -224 197l47 43q154 -68 293 -178l197 104l33 -65l-168 -88q184 -164 293.5 -388.5t109.5 -457.5q0 -238 -140 -387.5t-366 -149.5q-125 0 -231.5 53.5t-180 173
t-73.5 285.5zM305 508q0 -225 79 -342t200 -117q78 0 133 39t82.5 105.5t40 134t12.5 143.5q0 229 -80 344t-199 115q-78 0 -133 -39t-82.5 -105.5t-40 -134t-12.5 -143.5z" />
    <glyph glyph-name="ntilde" unicode="&#xf1;" horiz-adv-x="1230" 
d="M66 852v35l272 137h57l-6 -178l19 -4q35 57 120.5 113.5t198.5 56.5q328 0 328 -340l-4 -506q0 -45 20.5 -64.5t77.5 -33.5l59 -15v-63l-260 10l-264 -10v63l57 15q31 8 43.5 13t27.5 20.5t20.5 41t7.5 68.5q4 61 4 334q0 186 -37 252q-49 90 -170 90q-133 0 -175 -74
t-42 -229v-418q0 -47 18.5 -66.5t73.5 -31.5l61 -15v-63l-256 10l-249 -10v63l43 15q61 20 80.5 36.5t19.5 61.5v452q0 111 -10.5 150t-50.5 53zM270 1192q20 94 75.5 162.5t143.5 68.5q45 0 156 -37.5t148 -37.5q43 0 67.5 17t48.5 71l45 -23q-25 -106 -78 -167.5
t-157 -61.5q-43 0 -147.5 35.5t-125.5 35.5q-86 0 -129 -86z" />
    <glyph glyph-name="ograve" unicode="&#xf2;" horiz-adv-x="1157" 
d="M82 481q0 231 140 381t372 150q195 0 338 -134.5t143 -377.5q0 -238 -140 -384.5t-368 -146.5q-125 0 -231.5 53.5t-180 173t-73.5 285.5zM305 508q0 -223 80 -341t199 -118q78 0 133 39t82.5 105.5t40 134t12.5 143.5q0 229 -79 344t-198 115q-78 0 -134 -39
t-83.5 -105.5t-40 -134t-12.5 -143.5zM344 1518h285l170 -375l-82 -13z" />
    <glyph glyph-name="oacute" unicode="&#xf3;" horiz-adv-x="1157" 
d="M82 481q0 231 140 381t372 150q195 0 338 -134.5t143 -377.5q0 -238 -140 -384.5t-368 -146.5q-125 0 -231.5 53.5t-180 173t-73.5 285.5zM305 508q0 -223 80 -341t199 -118q78 0 133 39t82.5 105.5t40 134t12.5 143.5q0 229 -79 344t-198 115q-78 0 -134 -39
t-83.5 -105.5t-40 -134t-12.5 -143.5zM350 1143l172 375h281l-369 -388z" />
    <glyph glyph-name="ocircumflex" unicode="&#xf4;" horiz-adv-x="1157" 
d="M82 481q0 231 140 381t372 150q195 0 338 -134.5t143 -377.5q0 -238 -140 -384.5t-368 -146.5q-125 0 -231.5 53.5t-180 173t-73.5 285.5zM244 1159l272 371h115l276 -371l-43 -37l-286 221h-5l-278 -219zM305 508q0 -223 80 -341t199 -118q78 0 133 39t82.5 105.5
t40 134t12.5 143.5q0 229 -79 344t-198 115q-78 0 -134 -39t-83.5 -105.5t-40 -134t-12.5 -143.5z" />
    <glyph glyph-name="otilde" unicode="&#xf5;" horiz-adv-x="1157" 
d="M82 481q0 231 140 381t372 150q195 0 338 -134.5t143 -377.5q0 -238 -140 -384.5t-368 -146.5q-125 0 -231.5 53.5t-180 173t-73.5 285.5zM233 1192q20 94 76 162.5t144 68.5q45 0 155.5 -37.5t147.5 -37.5q43 0 67.5 17t48.5 71l46 -23q-25 -106 -78.5 -167.5
t-157.5 -61.5q-43 0 -147.5 35.5t-124.5 35.5q-86 0 -129 -86zM305 508q0 -223 80 -341t199 -118q78 0 133 39t82.5 105.5t40 134t12.5 143.5q0 229 -79 344t-198 115q-78 0 -134 -39t-83.5 -105.5t-40 -134t-12.5 -143.5z" />
    <glyph glyph-name="odieresis" unicode="&#xf6;" horiz-adv-x="1157" 
d="M82 481q0 231 140 381t372 150q195 0 338 -134.5t143 -377.5q0 -238 -140 -384.5t-368 -146.5q-125 0 -231.5 53.5t-180 173t-73.5 285.5zM233 1316.5q0 61.5 42 104.5t103.5 43t104.5 -43t43 -104.5t-43 -103.5t-104.5 -42t-103.5 42t-42 103.5zM305 508q0 -223 80 -341
t199 -118q78 0 133 39t82.5 105.5t40 134t12.5 143.5q0 229 -79 344t-198 115q-78 0 -134 -39t-83.5 -105.5t-40 -134t-12.5 -143.5zM627 1316.5q0 61.5 42 104.5t103.5 43t104.5 -43t43 -104.5t-43 -103.5t-104.5 -42t-103.5 42t-42 103.5z" />
    <glyph glyph-name="divide" unicode="&#xf7;" 
d="M123 684v96h960v-96h-960zM453 389.5q0 63.5 44 107.5t107.5 44t106.5 -44t43 -107.5t-43 -108.5t-106.5 -45t-107.5 45t-44 108.5zM453 1077q0 63 44 107.5t107.5 44.5t106.5 -44t43 -108q0 -66 -43 -109.5t-106.5 -43.5t-107.5 43.5t-44 109.5z" />
    <glyph glyph-name="oslash" unicode="&#xf8;" horiz-adv-x="1157" 
d="M82 481q0 231 140 381t372 150q162 0 293 -97l125 154l49 -43l-125 -154q139 -139 139 -372q0 -238 -140 -384.5t-368 -146.5q-170 0 -297 97l-129 -156l-51 45l131 154q-139 139 -139 372zM305 508q0 -152 37 -252l444 537q-78 137 -211 137q-78 0 -134 -39
t-83.5 -105.5t-40 -134t-12.5 -143.5zM373 188q76 -139 211 -139q78 0 133 39t82.5 105.5t40 134t12.5 143.5q0 156 -37 256z" />
    <glyph glyph-name="ugrave" unicode="&#xf9;" horiz-adv-x="1210" 
d="M33 903v66l254 10l112 12q-12 -109 -12 -536q0 -190 43 -273.5t166 -83.5q127 0 165 78t38 248v354q0 51 -17.5 77t-68.5 36l-64 12v66l258 10l113 12q-12 -190 -12 -362v-369q0 -92 15 -119.5t77 -36.5l69 -10v-61l-303 -49h-61l4 147l-16 2q-35 -57 -113 -110.5
t-188 -53.5q-315 0 -316 346l2 463q0 49 -18.5 75t-69.5 38zM342 1518h285l170 -375l-82 -13z" />
    <glyph glyph-name="uacute" unicode="&#xfa;" horiz-adv-x="1210" 
d="M33 903v66l254 10l112 12q-12 -109 -12 -536q0 -190 43 -273.5t166 -83.5q127 0 165 78t38 248v354q0 51 -17.5 77t-68.5 36l-64 12v66l258 10l113 12q-12 -190 -12 -362v-369q0 -92 15 -119.5t77 -36.5l69 -10v-61l-303 -49h-61l4 147l-16 2q-35 -57 -113 -110.5
t-188 -53.5q-315 0 -316 346l2 463q0 49 -18.5 75t-69.5 38zM399 1143l172 375h281l-369 -388z" />
    <glyph glyph-name="ucircumflex" unicode="&#xfb;" horiz-adv-x="1210" 
d="M33 903v66l254 10l112 12q-12 -109 -12 -536q0 -190 43 -273.5t166 -83.5q127 0 165 78t38 248v354q0 51 -17.5 77t-68.5 36l-64 12v66l258 10l113 12q-12 -190 -12 -362v-369q0 -92 15 -119.5t77 -36.5l69 -10v-61l-303 -49h-61l4 147l-16 2q-35 -57 -113 -110.5
t-188 -53.5q-315 0 -316 346l2 463q0 49 -18.5 75t-69.5 38zM264 1159l273 371h114l277 -371l-43 -37l-287 221h-4l-279 -219z" />
    <glyph glyph-name="udieresis" unicode="&#xfc;" horiz-adv-x="1210" 
d="M33 903v66l254 10l112 12q-12 -109 -12 -536q0 -190 43 -273.5t166 -83.5q127 0 165 78t38 248v354q0 51 -17.5 77t-68.5 36l-64 12v66l258 10l113 12q-12 -190 -12 -362v-369q0 -92 15 -119.5t77 -36.5l69 -10v-61l-303 -49h-61l4 147l-16 2q-35 -57 -113 -110.5
t-188 -53.5q-315 0 -316 346l2 463q0 49 -18.5 75t-69.5 38zM254 1316.5q0 61.5 42 104.5t103.5 43t104.5 -43t43 -104.5t-43 -103.5t-104.5 -42t-103.5 42t-42 103.5zM647 1316.5q0 61.5 42 104.5t103.5 43t104.5 -43t43 -104.5t-43 -103.5t-104.5 -42t-103.5 42t-42 103.5
z" />
    <glyph glyph-name="yacute" unicode="&#xfd;" horiz-adv-x="1093" 
d="M-6 922v65l248 -10l278 10v-65l-67 -15q-104 -25 -78 -100q31 -94 68.5 -194.5t89 -232.5t73.5 -194q98 231 219 572q23 59 23 80q0 27 -22.5 41t-73.5 28l-52 15v65l205 -10l195 10v-65l-43 -15q-49 -16 -64.5 -33.5t-36.5 -66.5l-567 -1366l-199 20l322 527h-45
q-41 98 -156.5 388t-175.5 433q-20 51 -37.5 66.5t-62.5 31.5zM381 1143l172 375h281l-369 -388z" />
    <glyph glyph-name="thorn" unicode="&#xfe;" horiz-adv-x="1183" 
d="M-6 -444l61 14q55 12 75 31.5t20 66.5v1512q0 113 -10.5 153.5t-49.5 55.5l-86 30v35l293 72h63v-428q0 -74 -8 -136.5t-16 -89.5l-6 -26l16 -2q119 168 326 168q184 0 307 -139.5t123 -354.5q0 -236 -139.5 -392.5t-356.5 -156.5q-80 0 -162 24.5t-112 55.5
q33 -68 33 -217v-164q0 -47 21.5 -68.5t78.5 -29.5l90 -14v-68l-293 10l-268 -10v68zM360 262q0 -207 224 -207q133 0 215 108.5t82 311.5q0 195 -85 298.5t-221 103.5q-109 0 -162 -52.5t-53 -134.5v-428z" />
    <glyph glyph-name="ydieresis" unicode="&#xff;" horiz-adv-x="1093" 
d="M-6 922v65l248 -10l278 10v-65l-67 -15q-104 -25 -78 -100q31 -94 68.5 -194.5t89 -232.5t73.5 -194q98 231 219 572q23 59 23 80q0 27 -22.5 41t-73.5 28l-52 15v65l205 -10l195 10v-65l-43 -15q-49 -16 -64.5 -33.5t-36.5 -66.5l-567 -1366l-199 20l322 527h-45
q-41 98 -156.5 388t-175.5 433q-20 51 -37.5 66.5t-62.5 31.5zM219 1316.5q0 61.5 42 104.5t103.5 43t104.5 -43t43 -104.5t-43 -103.5t-104.5 -42t-103.5 42t-42 103.5zM612 1316.5q0 61.5 42 104.5t103.5 43t104.5 -43t43 -104.5t-43 -103.5t-104.5 -42t-103.5 42
t-42 103.5z" />
    <glyph glyph-name="OE" unicode="&#x152;" horiz-adv-x="2351" 
d="M106 690q0 190 68 339t184.5 241t264 139t315.5 47q53 0 381 -22h541q53 0 134 6t134 10l53 6q-16 -125 -35 -416h-82l-24 95q-27 102 -61.5 151t-94.5 49h-399q-25 0 -31 -7t-6 -25v-525q152 0 270 6q49 2 71.5 24.5t37.5 80.5l26 112h80l-10 -266l10 -270h-80l-26 113
q-14 57 -37 79.5t-72 24.5l-270 6v-461q0 -129 147 -129h248q86 0 142.5 31t111.5 133l92 172h76q-43 -254 -63 -444q-281 10 -402 10h-586q-240 -16 -342 -16q-369 0 -567.5 201.5t-198.5 504.5zM367 696q0 -295 158.5 -451.5t453.5 -156.5h143q61 0 78 21.5t17 74.5v1073
q0 49 -28 73t-99 24h-117q-606 -1 -606 -658z" />
    <glyph glyph-name="oe" unicode="&#x153;" horiz-adv-x="1804" 
d="M82 481q0 231 140 381t372 150q233 0 373 -178q68 86 160 132t190 46q199 0 303 -122t104 -284v-43h-649v-49q0 -195 96.5 -296t231.5 -101q86 0 158.5 38t107.5 99l43 -57q-123 -227 -409 -228q-225 0 -353 166q-137 -166 -383 -166q-125 0 -231.5 53.5t-180 173
t-73.5 285.5zM305 508q0 -223 80 -341t199 -118q78 0 133 39t82.5 105.5t40 134t12.5 143.5q0 229 -79 344t-198 115q-78 0 -134 -39t-83.5 -105.5t-40 -134t-12.5 -143.5zM1079 637l418 6v16q0 125 -48 200t-140 75q-102 0 -162 -78t-68 -219z" />
    <glyph glyph-name="Ydieresis" unicode="&#x178;" horiz-adv-x="1437" 
d="M-27 1364v80l330 -10l348 10v-80l-127 -21q-104 -16 -57 -104q68 -125 149.5 -267.5t128.5 -221.5l50 -82q137 217 317 567q14 29 14 47q0 47 -84 61l-112 21v80l276 -10l254 10v-80l-94 -21q-45 -8 -69.5 -29.5t-51.5 -66.5l-403 -690v-100q0 -139 4 -271
q2 -47 20.5 -67.5t75.5 -30.5l109 -20v-78l-322 10l-334 -10v78l109 20q55 10 73.5 29.5t20.5 68.5q4 66 4 271v90q-190 332 -416 698q-27 45 -52 66.5t-71 31.5zM375 1751q0 61 42 104t103.5 43t104.5 -43t43 -104t-43 -103t-104.5 -42t-103.5 42t-42 103zM768 1751
q0 61 42 104t103.5 43t104.5 -43t43 -104t-43 -103t-104.5 -42t-103.5 42t-42 103z" />
    <glyph glyph-name="circumflex" unicode="&#x2c6;" horiz-adv-x="829" 
d="M82 1159l272 371h115l276 -371l-43 -37l-286 221h-4l-279 -219z" />
    <glyph glyph-name="tilde" unicode="&#x2dc;" horiz-adv-x="829" 
d="M72 1192q20 94 75.5 162.5t143.5 68.5q45 0 155.5 -37.5t147.5 -37.5q43 0 67.5 17t49.5 71l45 -23q-25 -106 -78 -167.5t-158 -61.5q-43 0 -147.5 35.5t-124.5 35.5q-86 0 -129 -86z" />
    <glyph glyph-name="uni2000" unicode="&#x2000;" horiz-adv-x="980" 
 />
    <glyph glyph-name="uni2001" unicode="&#x2001;" horiz-adv-x="1964" 
 />
    <glyph glyph-name="uni2002" unicode="&#x2002;" horiz-adv-x="980" 
 />
    <glyph glyph-name="uni2003" unicode="&#x2003;" horiz-adv-x="1964" 
 />
    <glyph glyph-name="uni2004" unicode="&#x2004;" horiz-adv-x="653" 
 />
    <glyph glyph-name="uni2005" unicode="&#x2005;" horiz-adv-x="489" 
 />
    <glyph glyph-name="uni2006" unicode="&#x2006;" horiz-adv-x="325" 
 />
    <glyph glyph-name="uni2007" unicode="&#x2007;" horiz-adv-x="325" 
 />
    <glyph glyph-name="uni2008" unicode="&#x2008;" horiz-adv-x="243" 
 />
    <glyph glyph-name="uni2009" unicode="&#x2009;" horiz-adv-x="391" 
 />
    <glyph glyph-name="uni200A" unicode="&#x200a;" horiz-adv-x="108" 
 />
    <glyph glyph-name="uni2010" unicode="&#x2010;" horiz-adv-x="763" 
d="M133 494v151h496v-151h-496z" />
    <glyph glyph-name="uni2011" unicode="&#x2011;" horiz-adv-x="763" 
d="M133 494v151h496v-151h-496z" />
    <glyph glyph-name="figuredash" unicode="&#x2012;" horiz-adv-x="763" 
d="M133 494v151h496v-151h-496z" />
    <glyph glyph-name="endash" unicode="&#x2013;" horiz-adv-x="1490" 
d="M131 598v113h1229v-113h-1229z" />
    <glyph glyph-name="emdash" unicode="&#x2014;" horiz-adv-x="2568" 
d="M131 598v113h2306v-113h-2306z" />
    <glyph glyph-name="quoteleft" unicode="&#x2018;" horiz-adv-x="575" 
d="M92 1069q0 147 117 270t272 172l29 -53q-106 -53 -160.5 -121.5t-54.5 -138.5q0 -137 186 -190q2 -2 2 -13q-8 -57 -66.5 -113.5t-111.5 -56.5q-78 0 -145.5 71t-67.5 173z" />
    <glyph glyph-name="quoteright" unicode="&#x2019;" horiz-adv-x="598" 
d="M104 866q215 109 215 260q0 137 -186 191q-2 2 -2 12q8 57 66.5 113.5t111.5 56.5q78 0 145.5 -70.5t67.5 -173.5q0 -147 -116.5 -270t-272.5 -172z" />
    <glyph glyph-name="quotesinglbase" unicode="&#x201a;" horiz-adv-x="589" 
d="M68 -285q215 109 215 260q0 137 -187 191q-2 2 -2 12q8 57 66.5 113.5t111.5 56.5q78 0 145.5 -70.5t67.5 -173.5q0 -147 -116.5 -270t-272.5 -172z" />
    <glyph glyph-name="quotedblleft" unicode="&#x201c;" horiz-adv-x="1038" 
d="M96 1069q0 147 117 270t272 172l29 -53q-106 -53 -160.5 -121.5t-54.5 -138.5q0 -137 186 -190q2 -2 2 -13q-8 -57 -66.5 -113.5t-111.5 -56.5q-78 0 -145.5 71t-67.5 173zM553 1069q0 147 116.5 270t272.5 172l29 -53q-106 -53 -160.5 -121.5t-54.5 -138.5
q0 -137 186 -190q2 -2 2 -13q-8 -57 -66.5 -113.5t-111.5 -56.5q-78 0 -145.5 71t-67.5 173z" />
    <glyph glyph-name="quotedblright" unicode="&#x201d;" horiz-adv-x="1038" 
d="M57 866q215 109 215 260q0 137 -186 191q-2 2 -2 12q8 57 66.5 113.5t111.5 56.5q78 0 145.5 -70.5t67.5 -173.5q0 -147 -116.5 -270t-272.5 -172zM532 866q215 109 216 260q0 137 -187 191q-2 2 -2 12q8 57 66.5 113.5t111.5 56.5q78 0 145.5 -70.5t67.5 -173.5
q0 -147 -116.5 -270t-272.5 -172z" />
    <glyph glyph-name="quotedblbase" unicode="&#x201e;" horiz-adv-x="1038" 
d="M57 -285q215 109 215 260q0 137 -186 191q-2 2 -2 12q8 57 66.5 113.5t111.5 56.5q78 0 145.5 -70.5t67.5 -173.5q0 -147 -116.5 -270t-272.5 -172zM532 -285q215 109 216 260q0 137 -187 191q-2 2 -2 12q8 57 66.5 113.5t111.5 56.5q78 0 145.5 -70.5t67.5 -173.5
q0 -147 -116.5 -270t-272.5 -172z" />
    <glyph glyph-name="bullet" unicode="&#x2022;" horiz-adv-x="747" 
d="M119 710.5q0 106.5 73.5 181.5t180 75t182.5 -75t76 -181.5t-76 -181t-182.5 -74.5t-180 74.5t-73.5 181z" />
    <glyph glyph-name="ellipsis" unicode="&#x2026;" horiz-adv-x="1933" 
d="M106 141.5q0 71.5 50.5 121.5t122.5 50q70 0 120 -50t50 -121.5t-49.5 -122t-121 -50.5t-122 50.5t-50.5 122zM795 141.5q0 71.5 50 121.5t122 50q70 0 120 -50t50 -121.5t-49.5 -122t-121 -50.5t-121.5 50.5t-50 122zM1483 141.5q0 71.5 50 121.5t122 50q70 0 120 -50
t50 -121.5t-49.5 -122t-121 -50.5t-121.5 50.5t-50 122z" />
    <glyph glyph-name="uni202F" unicode="&#x202f;" horiz-adv-x="391" 
 />
    <glyph glyph-name="guilsinglleft" unicode="&#x2039;" horiz-adv-x="741" 
d="M72 727l497 578h78l-282 -566v-24l282 -565h-78z" />
    <glyph glyph-name="guilsinglright" unicode="&#x203a;" horiz-adv-x="741" 
d="M94 150l281 565v24l-281 566h76l498 -578l-498 -577h-76z" />
    <glyph glyph-name="uni205F" unicode="&#x205f;" horiz-adv-x="489" 
 />
    <glyph glyph-name="Euro" unicode="&#x20ac;" 
d="M8 537v86h137q-2 27 -2 84q0 78 9 137h-144v86h156q45 238 191.5 386t371.5 148q180 0 291 -75l137 53l-18 -436h-80l-13 57q-33 158 -95 236.5t-212 78.5q-137 0 -228 -107.5t-116 -340.5h445v-86h-451q-2 -31 -2 -96q0 -47 4 -125h449v-86h-439q31 -205 129.5 -313.5
t237.5 -108.5q123 0 208 58t144 210l70 -25q-37 -182 -165 -285.5t-296 -103.5q-244 0 -391.5 156t-181.5 412h-146z" />
    <glyph glyph-name="trademark" unicode="&#x2122;" horiz-adv-x="2273" 
d="M121 1221l2 243q113 -12 172 -12l233 -2l232 2l172 12l2 -243h-62l-14 69q-18 88 -86 88h-160v-616q0 -25 10.5 -35t39.5 -14l77 -11v-63l-219 4l-203 -4v63l74 11q29 4 40 14t11 35v616h-159q-68 0 -86 -88l-15 -69h-61zM1038 639v63l58 11q29 4 39 14t10 35l8 571
q0 25 -10 35t-39 16l-55 11v63l188 -6l160 6l215 -600l192 563v37l129 -6l211 6v-63l-63 -11q-49 -8 -49 -51l14 -571q0 -25 10 -35t39 -14l62 -11v-63l-197 4l-195 -4v63l62 11q29 4 40 14t11 35l-12 596l-250 -715h-103l-270 715l2 -596q0 -25 11.5 -35t39.5 -14l62 -11
v-63l-160 4z" />
    <glyph glyph-name="uniE000" unicode="&#xe000;" horiz-adv-x="985" 
d="M0 985h985v-985h-985v985z" />
    <glyph glyph-name="uniFB01" unicode="&#xfb01;" horiz-adv-x="1271" 
d="M61 -10v63l64 15q57 12 77.5 32.5t20.5 65.5v721h-157v82h157q2 156 49 274.5t124 185t166 98.5t188 32q74 0 150.5 -25t76.5 -72q0 -45 -53.5 -99t-108.5 -54q-4 0 -28.5 33.5t-67.5 66.5t-88 33q-106 0 -152 -103q-45 -96 -45 -372l324 10q160 4 243 47h78
q-6 -150 -6 -348v-510q0 -47 19.5 -65.5t78.5 -32.5l62 -15v-63l-262 10l-266 -10v63l59 15q59 14 79.5 33.5t20.5 64.5v620q0 53 -18.5 67.5t-67.5 16.5l-344 17v-709q0 -49 18.5 -71.5t71.5 -32.5l109 -21v-63l-316 10z" />
    <glyph glyph-name="uniFB02" unicode="&#xfb02;" horiz-adv-x="1271" 
d="M61 -10v63l64 15q57 12 77.5 32.5t20.5 65.5v721h-157v82h157q2 156 48 273.5t124 184t167 99.5t188 33q129 0 217 -58q27 18 49 45h65q-6 -264 -6 -452v-928q0 -47 19.5 -66.5t79.5 -31.5l69 -15v-63l-272 10l-269 -10v63l64 15q57 12 77.5 31.5t20.5 66.5v1118
q0 61 -72.5 109.5t-156.5 48.5q-131 0 -172 -148q-29 -96 -29 -327l248 14l-16 -125l-232 31v-709q0 -49 18.5 -71.5t71.5 -32.5l109 -21v-63l-316 10z" />
    <glyph glyph-name="uniFB03" unicode="&#xfb03;" horiz-adv-x="1912" 
d="M61 -10v63l64 15q57 12 77.5 32.5t20.5 65.5v721h-157v82h157q2 246 133 383t320 137q68 0 128 -18.5t60 -53.5q0 -45 -44 -98t-93 -53q-2 0 -21.5 28.5t-54.5 56t-76 27.5q-47 0 -76.5 -26.5t-43 -88t-17.5 -125t-4 -169.5h430q2 156 49.5 274.5t124 185t165.5 98.5
t188 32q74 0 150.5 -25t76.5 -72q0 -45 -53.5 -99t-108.5 -54q-4 0 -28.5 33.5t-67.5 66.5t-88 33q-106 0 -152 -103q-45 -96 -45 -372l324 10q160 4 243 47h78q-6 -150 -6 -348v-510q0 -47 19.5 -65.5t78.5 -32.5l62 -15v-63l-262 10l-266 -10v63l59 15q59 14 79.5 33.5
t20.5 64.5v620q0 53 -18.5 67.5t-67.5 16.5l-344 17v-709q0 -49 19.5 -71.5t72.5 -32.5l107 -21v-63l-316 10l-253 -10v63l59 15q59 14 79.5 33.5t20.5 64.5v721h-430v-709q0 -49 18.5 -71.5t71.5 -32.5l109 -21v-63l-316 10z" />
    <glyph glyph-name="uniFB04" unicode="&#xfb04;" horiz-adv-x="1912" 
d="M61 -10v63l64 15q57 12 77.5 32.5t20.5 65.5v721h-157v82h157q2 246 133 383t320 137q68 0 128 -18.5t60 -53.5q0 -45 -44 -98t-93 -53q-2 0 -21.5 28.5t-54.5 56t-76 27.5q-47 0 -76.5 -26.5t-43 -88t-17.5 -125t-4 -169.5h430q2 156 48 273.5t124 184t167 99.5t188 33
q129 0 217 -58q27 18 49 45h65q-6 -264 -6 -452v-928q0 -47 19.5 -66.5t79.5 -31.5l69 -15v-63l-272 10l-269 -10v63l64 15q57 12 77.5 31.5t20.5 66.5v1118q0 61 -72.5 109.5t-156.5 48.5q-131 0 -172 -148q-29 -96 -29 -327l248 14l-16 -125l-232 31v-709
q0 -49 18.5 -71.5t71.5 -32.5l109 -21v-63l-316 10l-256 -10v63l64 15q57 12 77.5 32.5t20.5 65.5v721h-430v-709q0 -49 18.5 -71.5t71.5 -32.5l109 -21v-63l-316 10z" />
    </font>
</defs>
</svg>
