<?xml version="1.0" standalone="no"?>
<!DOCTYPE svg PUBLIC "-//W3C//DTD SVG 1.1//EN" "http://www.w3.org/Graphics/SVG/1.1/DTD/svg11.dtd" >
<svg xmlns="http://www.w3.org/2000/svg" xmlns:xlink="http://www.w3.org/1999/xlink" version="1.1">
<metadata>
Created by FontForge 20170731 at Thu Jun  1 18:08:03 2017
 By Aleksey,,,
Copyright (c) 2017 by Timo Gaessner. All rights reserved.
</metadata>
<defs>
<font id="MaisonNeueExtended-Book" horiz-adv-x="720" >
  <font-face 
    font-family="Maison Neue Extended Book"
    font-weight="400"
    font-stretch="expanded"
    units-per-em="1000"
    panose-1="2 11 5 5 4 0 0 0 0 0"
    ascent="755"
    descent="-245"
    x-height="530"
    cap-height="700"
    bbox="-756 -300 2589 1013"
    underline-thickness="70"
    underline-position="-400"
    unicode-range="U+000D-FEFF"
  />
<missing-glyph horiz-adv-x="678" 
d="M64 -5v423q0 128 84.5 210t207.5 82q124 0 209 -82t85 -210v-423h-28l-65 65l-68 -65l-63 65l-71 -65l-69 65l-63 -65l-67 65l-66 -65h-26zM164 300l63 63l64 -63l14 14l-64 63l64 64l-14 14l-64 -64l-63 64l-14 -14l63 -64l-63 -63zM424 300l63 63l64 -63l14 14l-64 63
l64 64l-14 14l-64 -64l-63 64l-14 -14l63 -64l-63 -63z" />
    <glyph glyph-name="fi" unicode="fi" horiz-adv-x="593" 
d="M438 714h95v-91h-95v91zM197 530h331v-530h-82v461h-249v-461h-82v461h-95v69h95v54q0 53 32.5 84t94.5 31h110v-72h-105q-50 0 -50 -50v-47z" />
    <glyph glyph-name="fl" unicode="fl" horiz-adv-x="594" 
d="M446 730h82v-730h-82v461h-249v-461h-82v461h-95v69h95v54q0 53 32.5 84t94.5 31h110v-72h-105q-50 0 -50 -50v-47h249v200z" />
    <glyph glyph-name="W_W_W" unicode="WWW" horiz-adv-x="2609" 
d="M181 0l-161 700h90l134 -580h2l221 580h85l222 -580h2l221 580h85l222 -580h2l222 580h84l222 -580h2l222 580h84l223 -580h2l132 580h90l-160 -700h-105l-223 575h-2l-224 -575h-81l-223 575h-2l-224 -575h-81l-223 575h-2l-225 -575h-80l-223 575h-2l-225 -575h-103z
" />
    <glyph glyph-name="w_w_w" unicode="www" horiz-adv-x="2177" 
d="M184 0l-159 530h82l122 -415h2l174 415h79l174 -415h2l174 415h79l175 -415h2l174 415h79l174 -415h2l174 415h79l174 -415h2l122 415h82l-159 -530h-73l-187 444h-2l-186 -444h-54l-187 444h-2l-186 -444h-54l-187 444h-2l-187 -444h-54l-186 444h-2l-187 -444h-73z" />
    <glyph glyph-name=".notdef" horiz-adv-x="678" 
d="M64 -5v423q0 128 84.5 210t207.5 82q124 0 209 -82t85 -210v-423h-28l-65 65l-68 -65l-63 65l-71 -65l-69 65l-63 -65l-67 65l-66 -65h-26zM164 300l63 63l64 -63l14 14l-64 63l64 64l-14 14l-64 -64l-63 64l-14 -14l63 -64l-63 -63zM424 300l63 63l64 -63l14 14l-64 63
l64 64l-14 14l-64 -64l-63 64l-14 -14l63 -64l-63 -63z" />
    <glyph glyph-name=".null" horiz-adv-x="0" 
 />
    <glyph glyph-name="nonmarkingreturn" horiz-adv-x="333" 
 />
    <glyph glyph-name="CR" unicode="&#xd;" horiz-adv-x="333" 
 />
    <glyph glyph-name="space" unicode=" " horiz-adv-x="271" 
 />
    <glyph glyph-name="exclam" unicode="!" horiz-adv-x="393" 
d="M152 205v495h89v-495h-89zM136 0v118h121v-118h-121z" />
    <glyph glyph-name="quotedbl" unicode="&#x22;" horiz-adv-x="396" 
d="M91 478v222h77v-222h-77zM228 478v222h77v-222h-77z" />
    <glyph glyph-name="numbersign" unicode="#" horiz-adv-x="838" 
d="M765 447h-155l-33 -189h155l-13 -70h-155l-33 -188h-76l33 188h-197l-33 -188h-76l33 188h-154l12 70h155l33 189h-155l12 69h155l33 184h76l-33 -184h197l33 184h76l-33 -184h155zM501 258l33 189h-197l-33 -189h197z" />
    <glyph glyph-name="dollar" unicode="$" horiz-adv-x="698" 
d="M372 403q41 -8 68.5 -15t63.5 -19t59.5 -27.5t46 -37t33 -52t10.5 -67.5q0 -88 -74.5 -144t-201.5 -56h-5v-95h-51v98q-119 12 -191.5 77.5t-84.5 180.5l86 13q21 -173 190 -195v267q-40 8 -65 14.5t-59 17.5t-55 24.5t-41.5 32t-30 44.5t-9.5 58q0 85 72 139t188 54v86
h51v-89q103 -12 171 -70t81 -145l-83 -16q-30 134 -169 155v-233zM145 524q0 -25 13 -43.5t40 -31t53.5 -20t69.5 -16.5v227h-1q-78 0 -126.5 -32t-48.5 -84zM378 60q89 0 140 34t51 89q0 32 -15 55t-45.5 38.5t-60 25t-76.5 19.5v-261h6z" />
    <glyph glyph-name="percent" unicode="%" horiz-adv-x="1112" 
d="M354 -71l-67 36l487 810l64 -41zM262 271q-90 0 -145.5 60.5t-55.5 158.5t55.5 158.5t145.5 60.5q91 0 147 -60.5t56 -158.5t-56 -158.5t-147 -60.5zM262 339q58 0 91.5 40.5t33.5 110.5t-33.5 111t-91.5 41q-57 0 -90.5 -41t-33.5 -111t33.5 -110.5t90.5 -40.5zM849 -9
q-90 0 -145.5 60.5t-55.5 158.5t55.5 158.5t145.5 60.5q91 0 146.5 -60.5t55.5 -158.5t-55.5 -158.5t-146.5 -60.5zM849 58q58 0 91.5 41t33.5 111t-33.5 111t-91.5 41q-57 0 -90.5 -41t-33.5 -111t33.5 -111t90.5 -41z" />
    <glyph glyph-name="ampersand" unicode="&#x26;" horiz-adv-x="750" 
d="M724 93l-46 -59l-82 64q-32 -54 -101 -83.5t-165 -29.5q-122 0 -195.5 55.5t-73.5 147.5q0 130 150 210q-47 40 -67.5 75.5t-20.5 79.5q0 71 58 116.5t149 45.5q92 0 150.5 -45t71.5 -125l-80 -13q-21 111 -142 111q-57 0 -91 -24.5t-34 -65.5q0 -31 20 -58.5t71 -66.5
l247 -193v157h75v-216zM330 57q78 0 131.5 23.5t73.5 65.5l-263 204q-129 -62 -129 -156q0 -60 52.5 -98.5t134.5 -38.5z" />
    <glyph glyph-name="quotesingle" unicode="'" horiz-adv-x="259" 
d="M91 478v222h77v-222h-77z" />
    <glyph glyph-name="parenleft" unicode="(" horiz-adv-x="367" 
d="M292 -197q-201 221 -201 492t201 492l54 -45q-91 -109 -131 -214t-40 -233t40 -233t131 -214z" />
    <glyph glyph-name="parenright" unicode=")" horiz-adv-x="367" 
d="M75 -197l-54 45q91 109 131 214t40 233t-40 233t-131 214l54 45q201 -221 201 -492t-201 -492z" />
    <glyph glyph-name="asterisk" unicode="*" horiz-adv-x="487" 
d="M138 341l-48 42l94 112l-123 74l32 53l119 -69v145h62v-145l120 69l32 -53l-124 -74l95 -112l-49 -42l-105 130z" />
    <glyph glyph-name="plus" unicode="+" horiz-adv-x="589" 
d="M528 402v-69h-197v-211h-73v211h-197v69h197v210h73v-210h197z" />
    <glyph glyph-name="comma" unicode="," horiz-adv-x="303" 
d="M96 -104v44q47 9 47 60h-52v112h121v-97q0 -111 -116 -119z" />
    <glyph glyph-name="hyphen" unicode="-" horiz-adv-x="363" 
d="M51 258v78h261v-78h-261z" />
    <glyph glyph-name="period" unicode="." horiz-adv-x="303" 
d="M91 0v118h121v-118h-121z" />
    <glyph glyph-name="slash" unicode="/" horiz-adv-x="530" 
d="M70 -45l-54 30l445 762l53 -32z" />
    <glyph glyph-name="zero" unicode="0" horiz-adv-x="723" 
d="M362 -14q-142 0 -229.5 96.5t-87.5 253.5t87.5 253.5t229.5 96.5q141 0 228.5 -96.5t87.5 -253.5t-87.5 -253.5t-228.5 -96.5zM362 58q107 0 170.5 75t63.5 203t-63.5 203t-170.5 75q-108 0 -171.5 -75t-63.5 -203t63.5 -203t171.5 -75z" />
    <glyph glyph-name="one" unicode="1" horiz-adv-x="427" 
d="M245 0v579l-210 -123v89l219 127h72v-672h-81z" />
    <glyph glyph-name="two" unicode="2" horiz-adv-x="665" 
d="M168 176q-15 -20 -20 -40t-5 -64h458v-72h-545v67q0 93 43 149q28 37 77.5 62.5t147.5 54.5q117 35 160 68.5t43 89.5q0 53 -48 88t-124 35q-93 0 -150.5 -47t-66.5 -134l-80 9q14 113 92 178.5t205 65.5q111 0 182.5 -55.5t71.5 -139.5q0 -82 -56 -132t-188 -89
q-161 -48 -197 -94z" />
    <glyph glyph-name="three" unicode="3" horiz-adv-x="657" 
d="M334 -14q-122 0 -198 62t-90 172l81 15q10 -86 62 -132t145 -46q88 0 136.5 37.5t48.5 102.5q0 128 -166 128h-97v69h97q69 0 107.5 28.5t38.5 78.5q0 49 -45.5 81t-120.5 32q-82 0 -132 -37.5t-62 -106.5l-81 14q14 91 89.5 146.5t185.5 55.5q108 0 175.5 -50.5
t67.5 -131.5q0 -89 -89 -136v-2q114 -46 114 -173q0 -94 -72.5 -150.5t-194.5 -56.5z" />
    <glyph glyph-name="four" unicode="4" horiz-adv-x="658" 
d="M437 0v131h-429v71l379 470h132v-469h108v-72h-108v-131h-82zM98 203h339v412h-2z" />
    <glyph glyph-name="five" unicode="5" horiz-adv-x="672" 
d="M342 -14q-119 0 -198.5 53t-102.5 147l77 23q41 -152 224 -152q99 0 156 45.5t57 120.5t-58.5 120.5t-154.5 45.5q-123 0 -214 -81l-73 19l72 345h443v-72h-380l-40 -195l2 -1q82 55 197 55q127 0 207 -65t80 -171q0 -107 -81 -172t-213 -65z" />
    <glyph glyph-name="six" unicode="6" horiz-adv-x="684" 
d="M374 447q120 0 197 -64.5t77 -165.5q0 -102 -80 -166.5t-203 -64.5q-151 0 -235.5 89.5t-84.5 251.5q0 159 88.5 259t227.5 100q100 0 172 -49t94 -134l-78 -23q-42 134 -186 134q-102 0 -168.5 -78.5t-68.5 -203.5h4q29 52 95.5 83.5t148.5 31.5zM365 58
q89 0 145.5 43.5t56.5 115.5q0 75 -54.5 119.5t-147.5 44.5q-88 0 -147.5 -48t-59.5 -117q0 -70 57.5 -114t149.5 -44z" />
    <glyph glyph-name="seven" unicode="7" horiz-adv-x="580" 
d="M116 0l338 598v2h-438v72h533v-69l-338 -603h-95z" />
    <glyph glyph-name="eight" unicode="8" horiz-adv-x="652" 
d="M326 -15q-140 0 -220 56.5t-80 146.5q0 61 40.5 109t111.5 69v2q-106 42 -106 139q0 81 72 130t182 49q111 0 182.5 -49t71.5 -130q0 -47 -27.5 -83t-77.5 -56v-2q71 -21 111 -69t40 -109q0 -90 -80 -146.5t-220 -56.5zM326 397q78 0 125 29.5t47 77.5q0 51 -47.5 81
t-124.5 30q-76 0 -123.5 -30t-47.5 -81q0 -48 46.5 -77.5t124.5 -29.5zM326 60q103 0 160 36t57 96q0 59 -59 97t-158 38q-98 0 -157 -38t-59 -97q0 -60 57 -96t159 -36z" />
    <glyph glyph-name="nine" unicode="9" horiz-adv-x="655" 
d="M315 686q139 0 217 -84t78 -237q0 -183 -72.5 -281.5t-208.5 -98.5q-98 0 -165.5 46t-91.5 130l78 26q42 -126 179 -126q86 0 135.5 63.5t55.5 183.5h-2q-64 -81 -212 -81q-124 0 -197.5 62.5t-73.5 166.5q0 100 79 165t201 65zM315 301q87 0 140 42.5t53 112.5
q0 66 -55 110t-138 44q-86 0 -140.5 -43t-54.5 -111q0 -73 51.5 -114t143.5 -41z" />
    <glyph glyph-name="colon" unicode=":" horiz-adv-x="303" 
d="M91 341v118h121v-118h-121zM91 0v118h121v-118h-121z" />
    <glyph glyph-name="semicolon" unicode=";" horiz-adv-x="303" 
d="M91 341v118h121v-118h-121zM96 -104v44q47 9 47 60h-52v112h121v-97q0 -111 -116 -119z" />
    <glyph glyph-name="less" unicode="&#x3c;" horiz-adv-x="551" 
d="M450 83l-389 234v68l389 234l40 -64l-345 -204l345 -204z" />
    <glyph glyph-name="equal" unicode="=" horiz-adv-x="553" 
d="M61 410v73h431v-73h-431zM61 223v72h431v-72h-431z" />
    <glyph glyph-name="greater" unicode="&#x3e;" horiz-adv-x="551" 
d="M101 83l-40 64l345 204l-345 204l40 64l389 -234v-68z" />
    <glyph glyph-name="question" unicode="?" horiz-adv-x="657" 
d="M245 192v63q0 96 113 148q77 35 103.5 61t26.5 63q0 49 -42 79t-107 30q-83 0 -130.5 -41t-52.5 -113l-85 7q5 103 77 164.5t190 61.5q103 0 170.5 -53t67.5 -137q0 -56 -38 -99t-130 -84q-44 -19 -61 -40t-17 -55v-55h-85zM229 0v118h121v-118h-121z" />
    <glyph glyph-name="at" unicode="@" horiz-adv-x="859" 
d="M432 -75q-170 0 -270.5 97t-100.5 268q0 154 104.5 259.5t263.5 105.5q167 0 268 -97t101 -252q0 -108 -37.5 -163t-108.5 -55q-77 0 -101 53h-2q-17 -26 -56 -41.5t-88 -15.5q-68 0 -108 30.5t-40 83.5q0 88 123 116q89 19 116.5 32t27.5 36q0 22 -23 35t-62 13
q-94 0 -109 -75l-69 12q10 57 59 91.5t119 34.5q73 0 115.5 -35.5t42.5 -96.5v-136q0 -46 11 -61.5t45 -15.5q77 0 77 158q0 129 -80 208t-221 79q-132 0 -216 -87t-84 -216q0 -146 80.5 -224.5t222.5 -78.5q120 0 215 46l27 -57q-106 -51 -242 -51zM412 148q52 0 83 20.5
t31 54.5v85h-2q-14 -24 -117 -47q-43 -10 -61 -23.5t-18 -35.5q0 -54 84 -54z" />
    <glyph glyph-name="A" unicode="A" horiz-adv-x="731" 
d="M634 0l-65 147h-406l-65 -147h-93l315 700h91l315 -700h-92zM195 222h342l-170 386h-2z" />
    <glyph glyph-name="B" unicode="B" horiz-adv-x="715" 
d="M86 0v700h352q93 0 149 -49t56 -131q0 -51 -22 -89.5t-61 -55.5v-2q50 -18 79.5 -62t29.5 -105q0 -101 -63 -153.5t-184 -52.5h-336zM172 404h247q137 0 137 112q0 105 -137 105h-247v-217zM172 79h235q91 0 133 30.5t42 95.5q0 67 -40 96t-132 29h-238v-251z" />
    <glyph glyph-name="C" unicode="C" horiz-adv-x="774" 
d="M406 -15q-158 0 -259.5 103.5t-101.5 261.5t101.5 261.5t259.5 103.5q126 0 218.5 -64t114.5 -169l-85 -21q-22 85 -88 130t-160 45q-119 0 -195.5 -79t-76.5 -207t76.5 -207t195.5 -79q94 0 160 50t89 145l84 -21q-22 -116 -113.5 -184.5t-219.5 -68.5z" />
    <glyph glyph-name="D" unicode="D" horiz-adv-x="749" 
d="M86 0v700h272q164 0 255 -90t91 -260q0 -175 -90 -262.5t-258 -87.5h-270zM172 79h181q131 0 196.5 66t65.5 205q0 271 -260 271h-183v-542z" />
    <glyph glyph-name="E" unicode="E" horiz-adv-x="645" 
d="M86 0v700h503v-79h-417v-222h385v-75h-385v-245h417v-79h-503z" />
    <glyph glyph-name="F" unicode="F" horiz-adv-x="636" 
d="M86 0v700h504v-79h-418v-251h386v-75h-386v-295h-86z" />
    <glyph glyph-name="G" unicode="G" horiz-adv-x="774" 
d="M399 -15q-155 0 -254.5 103.5t-99.5 261.5t99.5 261.5t254.5 103.5q123 0 213 -68t113 -175l-85 -21q-23 88 -87 136.5t-154 48.5q-116 0 -190.5 -79t-74.5 -207q0 -127 74.5 -206.5t190.5 -79.5q111 0 176.5 59t66.5 146h-233v74h320v-61q0 -131 -90 -214t-240 -83z" />
    <glyph glyph-name="H" unicode="H" horiz-adv-x="765" 
d="M86 0v700h86v-303h421v303h87v-700h-87v320h-421v-320h-86z" />
    <glyph glyph-name="I" unicode="I" horiz-adv-x="258" 
d="M86 0v700h86v-700h-86z" />
    <glyph glyph-name="J" unicode="J" horiz-adv-x="604" 
d="M280 -15q-116 0 -176.5 57.5t-73.5 175.5l84 11q10 -89 48.5 -127t117.5 -38q157 0 157 203v433h87v-444q0 -129 -63.5 -200t-180.5 -71z" />
    <glyph glyph-name="K" unicode="K" horiz-adv-x="677" 
d="M86 0v700h86v-374h2l360 374h123l-300 -305l315 -395h-110l-263 337h-2l-125 -130v-207h-86z" />
    <glyph glyph-name="L" unicode="L" horiz-adv-x="597" 
d="M86 0v700h86v-621h390v-79h-476z" />
    <glyph glyph-name="M" unicode="M" horiz-adv-x="977" 
d="M86 0v700h116l286 -566h2l285 566h116v-700h-87v581h-2l-296 -581h-35l-297 581h-2v-581h-86z" />
    <glyph glyph-name="N" unicode="N" horiz-adv-x="775" 
d="M86 0v700h94l421 -578h2v578h87v-700h-95l-421 578h-2v-578h-86z" />
    <glyph glyph-name="O" unicode="O" horiz-adv-x="812" 
d="M406 -15q-159 0 -260 103t-101 262t101 262t260 103q160 0 260 -103t100 -262t-100 -262t-260 -103zM406 64q121 0 196.5 78.5t75.5 207.5t-75.5 207.5t-196.5 78.5t-196.5 -78.5t-75.5 -207.5t75.5 -207.5t196.5 -78.5z" />
    <glyph glyph-name="P" unicode="P" horiz-adv-x="709" 
d="M86 0v700h357q112 0 176.5 -58t64.5 -157q0 -100 -64.5 -157.5t-176.5 -57.5h-271v-270h-86zM172 349h268q80 0 118.5 33.5t38.5 102.5q0 136 -157 136h-268v-272z" />
    <glyph glyph-name="Q" unicode="Q" horiz-adv-x="812" 
d="M766 350q0 -139 -79 -239l76 -69l-53 -55l-78 71q-95 -73 -226 -73q-159 0 -260 103t-101 262t101 262t260 103q160 0 260 -103t100 -262zM406 64q94 0 164 50l-176 159l54 54l176 -159q54 76 54 182q0 129 -75.5 207.5t-196.5 78.5t-196.5 -78.5t-75.5 -207.5
t75.5 -207.5t196.5 -78.5z" />
    <glyph glyph-name="R" unicode="R" horiz-adv-x="700" 
d="M457 284v-1l182 -283h-100l-178 283h-189v-283h-86v700h340q113 0 176 -55t63 -153q0 -93 -54.5 -147t-153.5 -61zM172 362h250q156 0 156 130q0 129 -158 129h-248v-259z" />
    <glyph glyph-name="S" unicode="S" horiz-adv-x="671" 
d="M363 -15q-143 0 -229 68.5t-99 192.5l85 13q27 -197 244 -197q85 0 135 32.5t50 88.5t-49.5 87.5t-176.5 57.5q-149 30 -209 73.5t-60 120.5q0 86 71.5 139.5t185.5 53.5q115 0 195 -60t97 -158l-85 -17q-14 75 -69 116.5t-139 41.5q-76 0 -123 -31.5t-47 -82.5
q0 -44 43.5 -69.5t160.5 -49.5q160 -33 226 -82.5t66 -137.5q0 -91 -74.5 -145.5t-198.5 -54.5z" />
    <glyph glyph-name="T" unicode="T" horiz-adv-x="684" 
d="M299 0v621h-264v79h614v-79h-264v-621h-86z" />
    <glyph glyph-name="U" unicode="U" horiz-adv-x="761" 
d="M380 -15q-299 0 -299 281v434h86v-430q0 -109 52 -157.5t161 -48.5q110 0 162 48.5t52 157.5v430h86v-434q0 -281 -300 -281z" />
    <glyph glyph-name="V" unicode="V" horiz-adv-x="746" 
d="M326 0l-321 700h96l271 -598h2l271 598h96l-321 -700h-94z" />
    <glyph glyph-name="W" unicode="W" horiz-adv-x="1019" 
d="M181 0l-161 700h90l134 -580h2l221 580h85l222 -580h2l133 580h90l-160 -700h-105l-223 575h-2l-225 -575h-103z" />
    <glyph glyph-name="X" unicode="X" horiz-adv-x="693" 
d="M10 0l272 355l-264 345h109l217 -290h2l215 290h115l-265 -345l272 -355h-114l-223 300h-2l-224 -300h-110z" />
    <glyph glyph-name="Y" unicode="Y" horiz-adv-x="693" 
d="M303 0v284l-303 416h104l241 -340h2l241 340h105l-303 -416v-284h-87z" />
    <glyph glyph-name="Z" unicode="Z" horiz-adv-x="715" 
d="M45 0v70l511 549v2h-485v79h599v-70l-511 -549v-2h495v-79h-609z" />
    <glyph glyph-name="bracketleft" unicode="[" horiz-adv-x="339" 
d="M86 -181v912h223v-74h-143v-764h143v-74h-223z" />
    <glyph glyph-name="backslash" unicode="\" horiz-adv-x="530" 
d="M460 -45l-444 760l53 32l445 -762z" />
    <glyph glyph-name="bracketright" unicode="]" horiz-adv-x="339" 
d="M253 -181h-223v74h143v764h-143v74h223v-912z" />
    <glyph glyph-name="asciicircum" unicode="^" horiz-adv-x="553" 
d="M482 325h-82l-123 280l-123 -280h-83l173 375h65z" />
    <glyph glyph-name="underscore" unicode="_" horiz-adv-x="603" 
d="M51 -151v70h501v-70h-501z" />
    <glyph glyph-name="grave" unicode="`" horiz-adv-x="309" 
d="M178 590l-117 116h103l84 -116h-70z" />
    <glyph glyph-name="a" unicode="a" horiz-adv-x="580" 
d="M242 -15q-92 0 -144 42t-52 115q0 70 53.5 108t180.5 58q85 14 118.5 32t33.5 49q0 38 -36 61t-97 23q-69 0 -114 -33.5t-57 -93.5l-79 17q15 83 82.5 132.5t167.5 49.5q101 0 161 -47t60 -126v-372h-79v67h-2q-27 -37 -80.5 -59.5t-116.5 -22.5zM259 58q71 0 125 38.5
t54 88.5v114h-2q-11 -20 -43 -33t-98 -24q-89 -15 -127.5 -38t-38.5 -62q0 -84 130 -84z" />
    <glyph glyph-name="b" unicode="b" horiz-adv-x="676" 
d="M346 -15q-131 0 -199 81h-2v-66h-79v730h82v-267h2q69 82 201 82q120 0 199.5 -80t79.5 -200q0 -123 -80 -201.5t-204 -78.5zM341 57q95 0 151 56.5t56 151.5q0 94 -55.5 151t-146.5 57q-84 0 -141 -48.5t-57 -119.5v-80q0 -70 56 -119t137 -49z" />
    <glyph glyph-name="c" unicode="c" horiz-adv-x="639" 
d="M329 -15q-122 0 -202.5 79.5t-80.5 200.5t80.5 200.5t202.5 79.5q99 0 173 -52t96 -139l-79 -20q-20 69 -69.5 104t-120.5 35q-88 0 -144.5 -57t-56.5 -151t56.5 -151t144.5 -57q71 0 120.5 35t69.5 104l79 -20q-22 -87 -96 -139t-173 -52z" />
    <glyph glyph-name="d" unicode="d" horiz-adv-x="676" 
d="M330 -15q-124 0 -204 78.5t-80 201.5q0 120 79.5 200t199.5 80q132 0 201 -82h2v267h82v-730h-79v66h-2q-68 -81 -199 -81zM335 57q81 0 137 49t56 119v80q0 71 -57 119.5t-141 48.5q-91 0 -146.5 -57t-55.5 -151q0 -95 56 -151.5t151 -56.5z" />
    <glyph glyph-name="e" unicode="e" horiz-adv-x="649" 
d="M329 -15q-128 0 -205.5 75.5t-77.5 201.5q0 127 78.5 205t203.5 78q119 0 197.5 -78.5t78.5 -200.5v-30h-475q1 -79 58.5 -130t141.5 -51q127 0 194 113l65 -43q-84 -140 -259 -140zM130 302h390q-5 73 -60.5 123t-131.5 50q-82 0 -137.5 -49.5t-60.5 -123.5z" />
    <glyph glyph-name="f" unicode="f" horiz-adv-x="420" 
d="M135 0v461h-115v69h115v54q0 53 32.5 84t94.5 31h120v-72h-115q-50 0 -50 -50v-47h188v-69h-188v-461h-82z" />
    <glyph glyph-name="g" unicode="g" horiz-adv-x="671" 
d="M348 -240q-193 0 -261 155l70 36q30 -62 75.5 -90.5t115.5 -28.5q80 0 131.5 46.5t51.5 119.5v72h-2q-66 -85 -200 -85q-126 0 -204.5 77.5t-78.5 202.5q0 120 79.5 200t199.5 80q130 0 201 -82h2v67h82v-536q0 -103 -73.5 -168.5t-188.5 -65.5zM334 57q81 0 137.5 49
t56.5 119v80q0 71 -57.5 119.5t-141.5 48.5q-91 0 -146 -57t-55 -151q0 -97 55 -152.5t151 -55.5z" />
    <glyph glyph-name="h" unicode="h" horiz-adv-x="650" 
d="M66 0v730h82v-266h2q65 81 188 81q112 0 181.5 -62.5t69.5 -163.5v-319h-82v303q0 79 -46.5 124.5t-127.5 45.5t-133 -49t-52 -125v-299h-82z" />
    <glyph glyph-name="i" unicode="i" horiz-adv-x="213" 
d="M58 623v91h95v-91h-95zM66 0v530h82v-530h-82z" />
    <glyph glyph-name="j" unicode="j" horiz-adv-x="222" 
d="M68 623v91h95v-91h-95zM-55 -173v72h72q58 0 58 54v577h82v-582q0 -59 -36 -90t-98 -31h-78z" />
    <glyph glyph-name="k" unicode="k" horiz-adv-x="602" 
d="M66 0v730h82v-451h2l295 251h124l-254 -214l267 -316h-107l-220 264h-2l-105 -90v-174h-82z" />
    <glyph glyph-name="l" unicode="l" horiz-adv-x="213" 
d="M66 0v730h82v-730h-82z" />
    <glyph glyph-name="m" unicode="m" horiz-adv-x="970" 
d="M66 0v530h80v-56h2q58 71 169 71q54 0 103 -24.5t75 -63.5h2q65 88 186 88q98 0 162.5 -56.5t64.5 -142.5v-346h-82v323q0 68 -41 109t-109 41q-67 0 -108.5 -41.5t-41.5 -107.5v-324h-80v324q0 65 -42.5 107t-107.5 42q-67 0 -108.5 -41.5t-41.5 -108.5v-323h-82z" />
    <glyph glyph-name="n" unicode="n" horiz-adv-x="650" 
d="M66 0v530h80v-66h2q30 38 81 59.5t109 21.5q112 0 181.5 -62.5t69.5 -163.5v-319h-82v303q0 79 -45.5 124.5t-123.5 45.5q-84 0 -137 -48.5t-53 -125.5v-299h-82z" />
    <glyph glyph-name="o" unicode="o" horiz-adv-x="668" 
d="M334 -15q-125 0 -206.5 79t-81.5 201q0 121 81.5 200.5t206.5 79.5t207 -79.5t82 -200.5t-82 -200.5t-207 -79.5zM334 57q91 0 149 57t58 151t-58 151t-149 57q-90 0 -148 -57.5t-58 -150.5t58 -150.5t148 -57.5z" />
    <glyph glyph-name="p" unicode="p" horiz-adv-x="666" 
d="M66 -225v755h82v-67h2q70 82 196 82q117 0 195.5 -80t78.5 -200q0 -121 -79 -200.5t-200 -79.5q-61 0 -111 22.5t-80 58.5h-2v-291h-82zM336 57q90 0 146 57t56 151q0 95 -54.5 151.5t-142.5 56.5q-83 0 -138 -49t-55 -119v-80q0 -70 54 -119t134 -49z" />
    <glyph glyph-name="q" unicode="q" horiz-adv-x="666" 
d="M600 -225h-82v291h-2q-30 -36 -80 -58.5t-111 -22.5q-121 0 -200 79.5t-79 200.5q0 120 78.5 200t195.5 80q126 0 196 -82h2v67h82v-755zM330 57q80 0 134 49t54 119v80q0 70 -55 119t-138 49q-88 0 -142.5 -56.5t-54.5 -151.5q0 -94 56 -151t146 -57z" />
    <glyph glyph-name="r" unicode="r" horiz-adv-x="384" 
d="M66 0v530h78v-52h2q51 61 135 61q39 0 82 -12l-18 -78q-42 11 -71 11q-57 0 -91.5 -38t-34.5 -107v-315h-82z" />
    <glyph glyph-name="s" unicode="s" horiz-adv-x="597" 
d="M318 -15q-116 0 -193 53.5t-89 142.5l76 17q26 -143 206 -143q76 0 119.5 22.5t43.5 62.5q0 39 -39.5 60.5t-135.5 34.5q-139 19 -194.5 54t-55.5 101q0 70 62 112.5t163 42.5q97 0 169 -49t86 -123l-76 -15q-15 54 -63 85.5t-116 31.5q-65 0 -105.5 -22.5t-40.5 -59.5
q0 -35 36.5 -54t136.5 -33q139 -20 196 -58t57 -107q0 -71 -66.5 -113.5t-176.5 -42.5z" />
    <glyph glyph-name="t" unicode="t" horiz-adv-x="416" 
d="M387 461h-170v-340q0 -27 13 -38t45 -11h83v-72h-84q-74 0 -106.5 28.5t-32.5 93.5v339h-115v69h115v119h82v-119h170v-69z" />
    <glyph glyph-name="u" unicode="u" horiz-adv-x="632" 
d="M288 -15q-106 0 -169 62t-63 167v316h82v-300q0 -82 44 -127.5t125 -45.5q77 0 127 49t50 125v299h82v-530h-80v66h-2q-64 -81 -196 -81z" />
    <glyph glyph-name="v" unicode="v" horiz-adv-x="618" 
d="M271 0l-261 530h90l209 -438h2l208 438h89l-261 -530h-76z" />
    <glyph glyph-name="w" unicode="w" horiz-adv-x="889" 
d="M184 0l-159 530h82l122 -415h2l174 415h79l174 -415h2l122 415h82l-158 -530h-74l-186 444h-2l-187 -444h-73z" />
    <glyph glyph-name="x" unicode="x" horiz-adv-x="564" 
d="M5 0l224 270l-216 260h100l168 -206h2l168 206h100l-217 -260l225 -270h-100l-176 216h-2l-176 -216h-100z" />
    <glyph glyph-name="y" unicode="y" horiz-adv-x="597" 
d="M117 -225l136 271l-243 484h94l194 -398h2l193 398h94l-377 -755h-93z" />
    <glyph glyph-name="z" unicode="z" horiz-adv-x="593" 
d="M30 0v65l413 394v2h-396v69h513v-65l-414 -394v-2h416v-69h-532z" />
    <glyph glyph-name="braceleft" unicode="{" horiz-adv-x="405" 
d="M285 -181q-70 0 -101.5 34t-31.5 109v218q0 34 -11.5 46.5t-41.5 12.5h-28v92h28q31 0 42 12.5t11 47.5v196q0 76 31.5 110t101.5 34h90v-79h-77q-36 0 -51 -19t-15 -65v-190q0 -44 -21 -68t-52 -24v-2q31 0 52 -24t21 -69v-210q0 -46 15 -65t51 -19h77v-78h-90z" />
    <glyph glyph-name="bar" unicode="|" horiz-adv-x="260" 
d="M101 -300v1075h58v-1075h-58z" />
    <glyph glyph-name="braceright" unicode="}" horiz-adv-x="405" 
d="M120 -181h-90v78h77q36 0 51 19t15 65v210q0 45 21 69t52 24v2q-31 0 -52 24t-21 68v190q0 46 -15 65t-51 19h-77v79h90q70 0 101.5 -34t31.5 -110v-196q0 -35 11.5 -47.5t41.5 -12.5h28v-92h-28q-30 0 -41.5 -12.5t-11.5 -46.5v-218q0 -75 -31.5 -109t-101.5 -34z" />
    <glyph glyph-name="asciitilde" unicode="~" horiz-adv-x="634" 
d="M131 273l-70 22q14 66 52.5 101.5t94.5 35.5q41 0 82 -21t74.5 -42t58.5 -21q29 0 47 19.5t32 65.5l71 -22q-15 -66 -53.5 -102t-94.5 -36q-41 0 -81.5 21.5t-74.5 42.5t-58 21q-30 0 -48 -19t-32 -66z" />
    <glyph glyph-name="uni00A0" unicode="&#xa0;" horiz-adv-x="271" 
 />
    <glyph glyph-name="exclamdown" unicode="&#xa1;" horiz-adv-x="313" 
d="M96 530h121v-118h-121v118zM112 325h89v-495h-89v495z" />
    <glyph glyph-name="cent" unicode="&#xa2;" horiz-adv-x="684" 
d="M376 56q66 5 113 40.5t67 98.5l77 -19q-22 -82 -92 -133t-165 -57v-96h-51v96q-119 9 -194 86.5t-75 192.5t75 192.5t194 86.5v87h51v-87q95 -6 165 -57t92 -133l-77 -19q-20 63 -67 98.5t-113 40.5v-418zM136 265q0 -88 51.5 -144.5t137.5 -64.5v418
q-86 -8 -137.5 -64.5t-51.5 -144.5z" />
    <glyph glyph-name="sterling" unicode="&#xa3;" horiz-adv-x="670" 
d="M284 81v-2h335v-79h-548v79h57q59 0 94.5 33.5t35.5 87.5q0 50 -48 105h-139v74h72q-54 61 -54 133q0 94 70 148.5t187 54.5q119 0 197 -57.5t91 -156.5l-86 -14q-29 149 -202 149q-79 0 -122.5 -32.5t-43.5 -91.5q0 -34 17.5 -64.5t51.5 -68.5h262v-74h-206
q34 -51 34 -105q0 -77 -55 -119z" />
    <glyph glyph-name="currency" unicode="&#xa4;" horiz-adv-x="599" 
d="M533 330q0 -85 -46 -150l67 -67l-39 -38l-66 64q-64 -53 -150 -53q-88 0 -150 53l-64 -64l-39 38l65 66q-46 65 -46 151q0 87 45 149l-64 65l39 39l62 -63q63 55 152 55q88 0 152 -56l64 64l39 -39l-65 -66q44 -64 44 -148zM300 160q68 0 108.5 46t40.5 122
q0 79 -40.5 126t-108.5 47q-69 0 -109.5 -47t-40.5 -126q0 -77 40.5 -122.5t109.5 -45.5z" />
    <glyph glyph-name="yen" unicode="&#xa5;" horiz-adv-x="713" 
d="M703 700l-259 -355h190v-74h-234v-71h234v-74h-234v-126h-87v126h-243v74h243v71h-243v74h199l-259 355h104l241 -340h2l241 340h105z" />
    <glyph glyph-name="brokenbar" unicode="&#xa6;" horiz-adv-x="260" 
d="M101 350v425h58v-425h-58zM101 -300v425h58v-425h-58z" />
    <glyph glyph-name="section" unicode="&#xa7;" horiz-adv-x="696" 
d="M529 103q58 -46 58 -117q0 -73 -62.5 -122t-157.5 -49q-99 0 -169.5 53t-80.5 137l85 13q8 -59 53.5 -92.5t111.5 -33.5q56 0 94.5 26.5t38.5 67.5q0 34 -26.5 57.5t-88.5 43.5l-156 51q-78 25 -113 61.5t-35 89.5q0 72 86 138q-58 46 -58 117q0 74 62.5 122.5
t157.5 48.5q99 0 169.5 -53t80.5 -137l-85 -12q-8 59 -53.5 92t-111.5 33q-56 0 -94.5 -26.5t-38.5 -67.5q0 -34 26 -57t89 -44l156 -50q77 -25 112.5 -61.5t35.5 -89.5q0 -72 -86 -139zM271 206l145 -47l43 -15q69 49 69 94q0 29 -24 49t-79 37l-145 47q-30 10 -43 16
q-69 -48 -69 -94q0 -29 24 -49.5t79 -37.5z" />
    <glyph glyph-name="dieresis" unicode="&#xa8;" horiz-adv-x="407" 
d="M61 580v93h95v-93h-95zM251 580v93h95v-93h-95z" />
    <glyph glyph-name="copyright" unicode="&#xa9;" horiz-adv-x="717" 
d="M359 16q-131 0 -219.5 88.5t-88.5 219.5t88.5 218.5t219.5 87.5t219 -87.5t88 -218.5t-88 -219.5t-219 -88.5zM359 66q108 0 179.5 73.5t71.5 184.5q0 110 -71 183t-180 73t-180.5 -73t-71.5 -183q0 -111 71.5 -184.5t180.5 -73.5zM367 140q-70 0 -113 50t-43 133t43 133
t113 50q56 0 95.5 -34.5t47.5 -89.5l-63 -12q-14 75 -80 75q-41 0 -65.5 -33t-24.5 -89t24.5 -89t65.5 -33q66 0 80 75l63 -12q-8 -55 -47.5 -89.5t-95.5 -34.5z" />
    <glyph glyph-name="ordfeminine" unicode="&#xaa;" horiz-adv-x="310" 
d="M121 417q-47 0 -76.5 22t-29.5 58q0 39 29 59.5t99 31.5q40 7 54.5 13.5t14.5 18.5q0 15 -15.5 24t-42.5 9q-30 0 -50.5 -14.5t-25.5 -39.5l-63 12q9 44 46.5 70t92.5 26q58 0 91.5 -27t33.5 -73v-183h-60v31h-1q-27 -38 -97 -38zM132 471q34 0 59 15.5t25 35.5v45h-1
q-7 -14 -62 -24q-43 -8 -59 -17.5t-16 -25.5q0 -29 54 -29z" />
    <glyph glyph-name="guillemotleft" unicode="&#xab;" horiz-adv-x="478" 
d="M181 95l-110 186l110 186h80l-113 -186l113 -186h-80zM338 95l-110 186l110 186h80l-113 -186l113 -186h-80z" />
    <glyph glyph-name="logicalnot" unicode="&#xac;" horiz-adv-x="628" 
d="M478 174v184h-417v79h506v-263h-89z" />
    <glyph glyph-name="uni00AD" unicode="&#xad;" horiz-adv-x="363" 
d="M51 258v78h261v-78h-261z" />
    <glyph glyph-name="registered" unicode="&#xae;" horiz-adv-x="717" 
d="M359 630q131 0 219 -87.5t88 -218.5t-88 -219.5t-219 -88.5t-219.5 88.5t-88.5 219.5t88.5 218.5t219.5 87.5zM359 66q108 0 179.5 73.5t71.5 184.5q0 110 -71 183t-180 73t-180.5 -73t-71.5 -183q0 -111 71.5 -184.5t180.5 -73.5zM507 390q0 -84 -77 -106l74 -136h-72
l-68 131h-53v-131h-66v350h145q55 0 86 -29t31 -79zM380 334q60 0 60 56q0 51 -60 51h-66v-107h66z" />
    <glyph glyph-name="macron" unicode="&#xaf;" horiz-adv-x="420" 
d="M61 590v63h298v-63h-298z" />
    <glyph glyph-name="degree" unicode="&#xb0;" horiz-adv-x="435" 
d="M218 365q-77 0 -127 47.5t-50 122.5t50 122.5t127 47.5q76 0 126 -47.5t50 -122.5t-50 -122.5t-126 -47.5zM218 432q46 0 75 28.5t29 74.5t-29 74.5t-75 28.5q-47 0 -76 -28.5t-29 -74.5t29 -74.5t76 -28.5z" />
    <glyph glyph-name="plusminus" unicode="&#xb1;" horiz-adv-x="592" 
d="M334 460h197v-68h-197v-192h-73v192h-197v68h197v192h73v-192zM61 70v67h468v-67h-468z" />
    <glyph glyph-name="acute" unicode="&#xb4;" horiz-adv-x="309" 
d="M61 590l84 116h103l-117 -116h-70z" />
    <glyph glyph-name="paragraph" unicode="&#xb6;" horiz-adv-x="577" 
d="M177 -136v536q-61 2 -103.5 43.5t-42.5 105.5q0 70 42.5 110.5t107.5 40.5h306v-836h-87v757h-137v-757h-86z" />
    <glyph glyph-name="periodcentered" unicode="&#xb7;" horiz-adv-x="243" 
d="M61 322v118h121v-118h-121z" />
    <glyph glyph-name="cedilla" unicode="&#xb8;" horiz-adv-x="344" 
d="M183 -40q46 0 73 -24.5t27 -62.5q0 -41 -31 -66.5t-81 -25.5q-60 0 -110 39l34 45q37 -32 76 -32q25 0 40 11.5t15 30.5q0 39 -53 39q-32 0 -62 -25l-45 20l72 121l45 -18l-38 -58q18 6 38 6z" />
    <glyph glyph-name="ordmasculine" unicode="&#xba;" horiz-adv-x="343" 
d="M172 417q-68 0 -112.5 41.5t-44.5 103.5t44.5 103.5t112.5 41.5t112 -41.5t44 -103.5t-44 -103.5t-112 -41.5zM172 475q40 0 64.5 24.5t24.5 62.5t-24.5 62.5t-64.5 24.5t-64.5 -24.5t-24.5 -62.5t24.5 -62.5t64.5 -24.5z" />
    <glyph glyph-name="guillemotright" unicode="&#xbb;" horiz-adv-x="478" 
d="M140 95h-80l113 186l-113 186h80l110 -186zM297 95h-80l113 186l-113 186h80l110 -186z" />
    <glyph glyph-name="onequarter" unicode="&#xbc;" horiz-adv-x="905" 
d="M197 -69l-62 33l486 811l60 -38zM161 280v344l-136 -72v74l142 74h67v-420h-73zM754 0v77h-262v64l217 279h117v-279h64v-64h-64v-77h-72zM570 141h184v233h-1z" />
    <glyph glyph-name="onehalf" unicode="&#xbd;" horiz-adv-x="929" 
d="M621 775l60 -38l-484 -806l-62 33zM161 280v344l-136 -72v74l142 74h67v-420h-73zM634 111q-15 -18 -16 -48h275v-63h-350v50q0 64 32 97q36 39 134 68q71 22 94.5 39t23.5 46q0 30 -26 48t-70 18q-51 0 -82.5 -26.5t-35.5 -70.5l-70 3q4 71 56 114t132 43
q72 0 120 -36.5t48 -91.5q0 -52 -32.5 -81.5t-119.5 -57.5q-95 -30 -113 -51z" />
    <glyph glyph-name="threequarters" unicode="&#xbe;" horiz-adv-x="1011" 
d="M303 -69l-62 33l486 811l60 -38zM209 271q-79 0 -128 39.5t-56 108.5l71 10q8 -95 113 -95q47 0 73 18.5t26 52.5q0 67 -97 67h-48v55h47q87 0 87 59q0 28 -24.5 44t-66.5 16q-90 0 -111 -81l-68 18q14 59 62 92.5t117 33.5q71 0 116.5 -33.5t45.5 -87.5q0 -53 -53 -84
v-1q30 -14 47.5 -41.5t17.5 -59.5q0 -58 -47.5 -94.5t-123.5 -36.5zM860 0v77h-262v64l217 279h117v-279h64v-64h-64v-77h-72zM676 141h184v233h-1z" />
    <glyph glyph-name="questiondown" unicode="&#xbf;" horiz-adv-x="657" 
d="M428 530v-118h-121v118h121zM412 338v-63q0 -96 -113 -148q-77 -35 -103.5 -61t-26.5 -63q0 -49 42 -79t107 -30q83 0 130.5 41t52.5 113l85 -7q-5 -103 -77 -164.5t-190 -61.5q-103 0 -170.5 53t-67.5 137q0 56 38 99t130 84q44 19 61 40t17 55v55h85z" />
    <glyph glyph-name="Agrave" unicode="&#xc0;" horiz-adv-x="731" 
d="M416 760h-70l-117 116h103zM634 0l-65 147h-406l-65 -147h-93l315 700h91l315 -700h-92zM195 222h342l-170 386h-2z" />
    <glyph glyph-name="Aacute" unicode="&#xc1;" horiz-adv-x="731" 
d="M503 876l-117 -116h-70l84 116h103zM634 0l-65 147h-406l-65 -147h-93l315 700h91l315 -700h-92zM195 222h342l-170 386h-2z" />
    <glyph glyph-name="Acircumflex" unicode="&#xc2;" horiz-adv-x="731" 
d="M366 832l-86 -92l-43 40l76 81h105l76 -81l-43 -40zM634 0l-65 147h-406l-65 -147h-93l315 700h91l315 -700h-92zM195 222h342l-170 386h-2z" />
    <glyph glyph-name="Atilde" unicode="&#xc3;" horiz-adv-x="731" 
d="M293 793q-37 0 -45 -33h-47q4 43 29 67.5t66 24.5q33 0 78.5 -19.5t66.5 -19.5q38 0 45 34h46q-3 -43 -28 -67.5t-67 -24.5q-33 0 -78 19t-66 19zM634 0l-65 147h-406l-65 -147h-93l315 700h91l315 -700h-92zM195 222h342l-170 386h-2z" />
    <glyph glyph-name="Adieresis" unicode="&#xc4;" horiz-adv-x="731" 
d="M318 843v-93h-95v93h95zM508 843v-93h-95v93h95zM634 0l-65 147h-406l-65 -147h-93l315 700h91l315 -700h-92zM195 222h342l-170 386h-2z" />
    <glyph glyph-name="Aring" unicode="&#xc5;" horiz-adv-x="731" 
d="M634 0l-65 147h-406l-65 -147h-93l300 667q-61 30 -61 99q0 49 34.5 81t87.5 32t87.5 -32t34.5 -81q0 -69 -62 -100l300 -666h-92zM366 831q-29 0 -47.5 -18t-18.5 -47t18.5 -47.5t47.5 -18.5t47 18.5t18 47.5q0 28 -18.5 46.5t-46.5 18.5zM195 222h342l-170 386h-2z" />
    <glyph glyph-name="AE" unicode="&#xc6;" horiz-adv-x="986" 
d="M930 621h-337v-222h305v-75h-305v-245h337v-79h-424v153h-330l-74 -153h-97l344 700h581v-79zM212 228h294v393h-104z" />
    <glyph glyph-name="Ccedilla" unicode="&#xc7;" horiz-adv-x="774" 
d="M406 64q94 0 160 50t89 145l84 -21q-21 -110 -104 -177t-202 -75l-31 -47q18 6 38 6q46 0 73 -24.5t27 -62.5q0 -41 -31 -66.5t-81 -25.5q-60 0 -110 39l34 45q37 -32 76 -32q25 0 40 11.5t15 30.5q0 39 -53 39q-32 0 -62 -25l-45 20l55 92q-147 10 -240 112t-93 252
q0 158 101.5 261.5t259.5 103.5q126 0 218.5 -64t114.5 -169l-85 -21q-22 85 -88 130t-160 45q-119 0 -195.5 -79t-76.5 -207t76.5 -207t195.5 -79z" />
    <glyph glyph-name="Egrave" unicode="&#xc8;" horiz-adv-x="645" 
d="M326 760l-117 116h103l84 -116h-70zM86 0v700h503v-79h-417v-222h385v-75h-385v-245h417v-79h-503z" />
    <glyph glyph-name="Eacute" unicode="&#xc9;" horiz-adv-x="645" 
d="M296 760l84 116h103l-117 -116h-70zM86 0v700h503v-79h-417v-222h385v-75h-385v-245h417v-79h-503z" />
    <glyph glyph-name="Ecircumflex" unicode="&#xca;" horiz-adv-x="645" 
d="M346 832l-86 -92l-43 40l76 81h105l76 -81l-43 -40zM589 621h-417v-222h385v-75h-385v-245h417v-79h-503v700h503v-79z" />
    <glyph glyph-name="Edieresis" unicode="&#xcb;" horiz-adv-x="645" 
d="M203 750v93h95v-93h-95zM393 750v93h95v-93h-95zM86 0v700h503v-79h-417v-222h385v-75h-385v-245h417v-79h-503z" />
    <glyph glyph-name="Igrave" unicode="&#xcc;" horiz-adv-x="258" 
d="M109 760l-117 116h103l84 -116h-70zM86 0v700h86v-700h-86z" />
    <glyph glyph-name="Iacute" unicode="&#xcd;" horiz-adv-x="258" 
d="M79 760l84 116h103l-117 -116h-70zM86 0v700h86v-700h-86z" />
    <glyph glyph-name="Icircumflex" unicode="&#xce;" horiz-adv-x="258" 
d="M181 861l76 -81l-43 -40l-85 92l-86 -92l-43 40l76 81h105zM86 0v700h86v-700h-86z" />
    <glyph glyph-name="Idieresis" unicode="&#xcf;" horiz-adv-x="258" 
d="M-14 750v93h95v-93h-95zM176 750v93h95v-93h-95zM86 0v700h86v-700h-86z" />
    <glyph glyph-name="Eth" unicode="&#xd0;" horiz-adv-x="749" 
d="M358 700q164 0 255 -90t91 -260q0 -175 -90 -262.5t-258 -87.5h-270v315h-96v70h96v315h272zM353 79q131 0 196.5 66t65.5 205q0 271 -260 271h-183v-236h220v-70h-220v-236h181z" />
    <glyph glyph-name="Ntilde" unicode="&#xd1;" horiz-adv-x="775" 
d="M459 755q-33 0 -78 19t-66 19q-37 0 -45 -33h-47q4 43 29 67.5t66 24.5q33 0 78.5 -19.5t66.5 -19.5q38 0 45 34h46q-3 -43 -28 -67.5t-67 -24.5zM86 0v700h94l421 -578h2v578h87v-700h-95l-421 578h-2v-578h-86z" />
    <glyph glyph-name="Ograve" unicode="&#xd2;" horiz-adv-x="812" 
d="M386 775l-117 116h103l84 -116h-70zM406 -15q-159 0 -260 103t-101 262t101 262t260 103q160 0 260 -103t100 -262t-100 -262t-260 -103zM406 64q121 0 196.5 78.5t75.5 207.5t-75.5 207.5t-196.5 78.5t-196.5 -78.5t-75.5 -207.5t75.5 -207.5t196.5 -78.5z" />
    <glyph glyph-name="Oacute" unicode="&#xd3;" horiz-adv-x="812" 
d="M356 775l84 116h103l-117 -116h-70zM406 -15q-159 0 -260 103t-101 262t101 262t260 103q160 0 260 -103t100 -262t-100 -262t-260 -103zM406 64q121 0 196.5 78.5t75.5 207.5t-75.5 207.5t-196.5 78.5t-196.5 -78.5t-75.5 -207.5t75.5 -207.5t196.5 -78.5z" />
    <glyph glyph-name="Ocircumflex" unicode="&#xd4;" horiz-adv-x="812" 
d="M406 847l-86 -92l-43 40l76 81h105l76 -81l-43 -40zM406 715q160 0 260 -103t100 -262t-100 -262t-260 -103q-159 0 -260 103t-101 262t101 262t260 103zM406 64q121 0 196.5 78.5t75.5 207.5t-75.5 207.5t-196.5 78.5t-196.5 -78.5t-75.5 -207.5t75.5 -207.5
t196.5 -78.5z" />
    <glyph glyph-name="Otilde" unicode="&#xd5;" horiz-adv-x="812" 
d="M477 770q-33 0 -78 19t-66 19q-37 0 -45 -33h-47q4 43 29 67.5t66 24.5q33 0 78.5 -19.5t66.5 -19.5q38 0 45 34h46q-3 -43 -28 -67.5t-67 -24.5zM406 -15q-159 0 -260 103t-101 262t101 262t260 103q160 0 260 -103t100 -262t-100 -262t-260 -103zM406 64
q121 0 196.5 78.5t75.5 207.5t-75.5 207.5t-196.5 78.5t-196.5 -78.5t-75.5 -207.5t75.5 -207.5t196.5 -78.5z" />
    <glyph glyph-name="Odieresis" unicode="&#xd6;" horiz-adv-x="812" 
d="M263 765v93h95v-93h-95zM453 765v93h95v-93h-95zM406 -15q-159 0 -260 103t-101 262t101 262t260 103q160 0 260 -103t100 -262t-100 -262t-260 -103zM406 64q121 0 196.5 78.5t75.5 207.5t-75.5 207.5t-196.5 78.5t-196.5 -78.5t-75.5 -207.5t75.5 -207.5t196.5 -78.5z
" />
    <glyph glyph-name="multiply" unicode="&#xd7;" horiz-adv-x="548" 
d="M110 133l-49 49l165 164l-165 163l49 50l164 -165l164 165l49 -50l-165 -163l165 -164l-49 -49l-164 164z" />
    <glyph glyph-name="Oslash" unicode="&#xd8;" horiz-adv-x="812" 
d="M669 609q97 -102 97 -259q0 -159 -100 -262t-260 -103q-127 0 -220 68l-47 -54l-45 37l48 56q-97 102 -97 258q0 159 101 262t260 103q127 0 219 -68l47 54l44 -38zM131 350q0 -118 65 -197l377 434q-69 52 -167 52q-122 0 -198.5 -79.5t-76.5 -209.5zM406 61
q123 0 199 79.5t76 209.5q0 119 -65 197l-378 -434q71 -52 168 -52z" />
    <glyph glyph-name="Ugrave" unicode="&#xd9;" horiz-adv-x="761" 
d="M360 760l-117 116h103l84 -116h-70zM380 -15q-299 0 -299 281v434h86v-430q0 -109 52 -157.5t161 -48.5q110 0 162 48.5t52 157.5v430h86v-434q0 -281 -300 -281z" />
    <glyph glyph-name="Uacute" unicode="&#xda;" horiz-adv-x="761" 
d="M330 760l84 116h103l-117 -116h-70zM380 -15q-299 0 -299 281v434h86v-430q0 -109 52 -157.5t161 -48.5q110 0 162 48.5t52 157.5v430h86v-434q0 -281 -300 -281z" />
    <glyph glyph-name="Ucircumflex" unicode="&#xdb;" horiz-adv-x="761" 
d="M380 832l-86 -92l-43 40l76 81h105l76 -81l-43 -40zM594 700h86v-434q0 -281 -300 -281q-299 0 -299 281v434h86v-430q0 -109 52 -157.5t161 -48.5q110 0 162 48.5t52 157.5v430z" />
    <glyph glyph-name="Udieresis" unicode="&#xdc;" horiz-adv-x="761" 
d="M237 750v93h95v-93h-95zM427 750v93h95v-93h-95zM380 -15q-299 0 -299 281v434h86v-430q0 -109 52 -157.5t161 -48.5q110 0 162 48.5t52 157.5v430h86v-434q0 -281 -300 -281z" />
    <glyph glyph-name="Yacute" unicode="&#xdd;" horiz-adv-x="693" 
d="M296 760l84 116h103l-117 -116h-70zM303 0v284l-303 416h104l241 -340h2l241 340h105l-303 -416v-284h-87z" />
    <glyph glyph-name="Thorn" unicode="&#xde;" horiz-adv-x="709" 
d="M443 568q109 0 175 -58.5t66 -157.5q0 -100 -65.5 -157t-175.5 -57h-271v-138h-86v700h86v-132h271zM440 217q157 0 157 135q0 137 -157 137h-268v-272h268z" />
    <glyph glyph-name="germandbls" unicode="&#xdf;" horiz-adv-x="627" 
d="M66 0v489q0 105 66.5 165.5t178.5 60.5q103 0 168 -53.5t65 -135.5q0 -44 -25 -79.5t-67 -55.5v-2q61 -17 95 -66t34 -113q0 -101 -74 -155.5t-205 -54.5h-58v72h63q192 0 192 138q0 64 -44 100t-124 36h-87v71h65q73 0 113 27.5t40 81.5q0 52 -40 84.5t-109 32.5
q-77 0 -121 -42t-44 -122v-479h-82z" />
    <glyph glyph-name="agrave" unicode="&#xe0;" horiz-adv-x="580" 
d="M279 605l-117 116h103l84 -116h-70zM242 -15q-92 0 -144 42t-52 115q0 70 53.5 108t180.5 58q85 14 118.5 32t33.5 49q0 38 -36 61t-97 23q-69 0 -114 -33.5t-57 -93.5l-79 17q15 83 82.5 132.5t167.5 49.5q101 0 161 -47t60 -126v-372h-79v67h-2q-27 -37 -80.5 -59.5
t-116.5 -22.5zM259 58q71 0 125 38.5t54 88.5v114h-2q-11 -20 -43 -33t-98 -24q-89 -15 -127.5 -38t-38.5 -62q0 -84 130 -84z" />
    <glyph glyph-name="aacute" unicode="&#xe1;" horiz-adv-x="580" 
d="M249 605l84 116h103l-117 -116h-70zM242 -15q-92 0 -144 42t-52 115q0 70 53.5 108t180.5 58q85 14 118.5 32t33.5 49q0 38 -36 61t-97 23q-69 0 -114 -33.5t-57 -93.5l-79 17q15 83 82.5 132.5t167.5 49.5q101 0 161 -47t60 -126v-372h-79v67h-2q-27 -37 -80.5 -59.5
t-116.5 -22.5zM259 58q71 0 125 38.5t54 88.5v114h-2q-11 -20 -43 -33t-98 -24q-89 -15 -127.5 -38t-38.5 -62q0 -84 130 -84z" />
    <glyph glyph-name="acircumflex" unicode="&#xe2;" horiz-adv-x="580" 
d="M299 677l-86 -92l-43 40l76 81h105l76 -81l-43 -40zM299 545q101 0 161 -47t60 -126v-372h-79v67h-2q-27 -37 -80.5 -59.5t-116.5 -22.5q-92 0 -144 42t-52 115q0 70 53.5 108t180.5 58q85 14 118.5 32t33.5 49q0 38 -36 61t-97 23q-69 0 -114 -33.5t-57 -93.5l-79 17
q15 83 82.5 132.5t167.5 49.5zM438 185v114h-2q-11 -20 -43 -33t-98 -24q-89 -15 -127.5 -38t-38.5 -62q0 -84 130 -84q71 0 125 38.5t54 88.5z" />
    <glyph glyph-name="atilde" unicode="&#xe3;" horiz-adv-x="580" 
d="M370 600q-33 0 -78 19t-66 19q-38 0 -45 -33h-47q4 43 29 67.5t66 24.5q33 0 78.5 -19.5t66.5 -19.5q38 0 45 34h46q-3 -43 -28 -67.5t-67 -24.5zM242 -15q-92 0 -144 42t-52 115q0 70 53.5 108t180.5 58q85 14 118.5 32t33.5 49q0 38 -36 61t-97 23q-69 0 -114 -33.5
t-57 -93.5l-79 17q15 83 82.5 132.5t167.5 49.5q101 0 161 -47t60 -126v-372h-79v67h-2q-27 -37 -80.5 -59.5t-116.5 -22.5zM259 58q71 0 125 38.5t54 88.5v114h-2q-11 -20 -43 -33t-98 -24q-89 -15 -127.5 -38t-38.5 -62q0 -84 130 -84z" />
    <glyph glyph-name="adieresis" unicode="&#xe4;" horiz-adv-x="580" 
d="M156 595v93h95v-93h-95zM346 595v93h95v-93h-95zM242 -15q-92 0 -144 42t-52 115q0 70 53.5 108t180.5 58q85 14 118.5 32t33.5 49q0 38 -36 61t-97 23q-69 0 -114 -33.5t-57 -93.5l-79 17q15 83 82.5 132.5t167.5 49.5q101 0 161 -47t60 -126v-372h-79v67h-2
q-27 -37 -80.5 -59.5t-116.5 -22.5zM259 58q71 0 125 38.5t54 88.5v114h-2q-11 -20 -43 -33t-98 -24q-89 -15 -127.5 -38t-38.5 -62q0 -84 130 -84z" />
    <glyph glyph-name="aring" unicode="&#xe5;" horiz-adv-x="580" 
d="M284 569q-48 0 -79 28.5t-31 73.5q0 44 31 73t79 29q47 0 78.5 -29t31.5 -73q0 -45 -31 -73.5t-79 -28.5zM284 611q26 0 42.5 17t16.5 43q0 25 -16.5 42t-42.5 17t-42.5 -16.5t-16.5 -42.5t16.5 -43t42.5 -17zM242 -15q-92 0 -144 42t-52 115q0 70 53.5 108t180.5 58
q85 14 118.5 32t33.5 49q0 38 -36 61t-97 23q-69 0 -114 -33.5t-57 -93.5l-79 17q15 83 82.5 132.5t167.5 49.5q101 0 161 -47t60 -126v-372h-79v67h-2q-27 -37 -80.5 -59.5t-116.5 -22.5zM259 58q71 0 125 38.5t54 88.5v114h-2q-11 -20 -43 -33t-98 -24q-89 -15 -127.5 -38
t-38.5 -62q0 -84 130 -84z" />
    <glyph glyph-name="ae" unicode="&#xe6;" horiz-adv-x="1019" 
d="M973 266v-30h-464q2 -81 56 -132.5t140 -51.5q123 0 188 116l64 -42q-83 -141 -252 -141q-76 0 -135.5 30t-94.5 84q-29 -51 -93 -82.5t-144 -31.5q-88 0 -138.5 42t-50.5 115q0 59 39 95t94.5 49.5t111.5 23t95 28t39 51.5q0 40 -37 64.5t-100 24.5q-70 0 -116 -35
t-53 -94l-76 9q8 84 76 135.5t169 51.5q147 0 198 -95q73 95 210 95q119 0 196.5 -79t77.5 -200zM509 300h383q-5 77 -60 127.5t-133 50.5q-80 0 -133 -49.5t-57 -128.5zM433 185v118h-2q-13 -26 -64 -41.5t-103 -22.5t-94 -31t-42 -66q0 -47 31.5 -68t97.5 -21
q71 0 123.5 40t52.5 92z" />
    <glyph glyph-name="ccedilla" unicode="&#xe7;" horiz-adv-x="639" 
d="M329 57q71 0 120.5 35t69.5 104l79 -20q-21 -81 -86.5 -132t-155.5 -58l-31 -47q18 6 38 6q46 0 73 -24.5t27 -62.5q0 -41 -31 -66.5t-81 -25.5q-60 0 -110 39l34 45q37 -32 76 -32q25 0 40 11.5t15 30.5q0 39 -53 39q-32 0 -62 -25l-45 20l55 92q-112 10 -183.5 88
t-71.5 191q0 121 80.5 200.5t202.5 79.5q99 0 173 -52t96 -139l-79 -20q-20 69 -69.5 104t-120.5 35q-88 0 -144.5 -57t-56.5 -151t56.5 -151t144.5 -57z" />
    <glyph glyph-name="egrave" unicode="&#xe8;" horiz-adv-x="649" 
d="M308 605l-117 116h103l84 -116h-70zM329 -15q-128 0 -205.5 75.5t-77.5 201.5q0 127 78.5 205t203.5 78q119 0 197.5 -78.5t78.5 -200.5v-30h-475q1 -79 58.5 -130t141.5 -51q127 0 194 113l65 -43q-84 -140 -259 -140zM130 302h390q-5 73 -60.5 123t-131.5 50
q-82 0 -137.5 -49.5t-60.5 -123.5z" />
    <glyph glyph-name="eacute" unicode="&#xe9;" horiz-adv-x="649" 
d="M278 605l84 116h103l-117 -116h-70zM329 -15q-128 0 -205.5 75.5t-77.5 201.5q0 127 78.5 205t203.5 78q119 0 197.5 -78.5t78.5 -200.5v-30h-475q1 -79 58.5 -130t141.5 -51q127 0 194 113l65 -43q-84 -140 -259 -140zM130 302h390q-5 73 -60.5 123t-131.5 50
q-82 0 -137.5 -49.5t-60.5 -123.5z" />
    <glyph glyph-name="ecircumflex" unicode="&#xea;" horiz-adv-x="649" 
d="M328 677l-86 -92l-43 40l76 81h105l76 -81l-43 -40zM604 266v-30h-475q1 -79 58.5 -130t141.5 -51q127 0 194 113l65 -43q-84 -140 -259 -140q-128 0 -205.5 75.5t-77.5 201.5q0 127 78.5 205t203.5 78q119 0 197.5 -78.5t78.5 -200.5zM130 302h390q-5 73 -60.5 123
t-131.5 50q-82 0 -137.5 -49.5t-60.5 -123.5z" />
    <glyph glyph-name="edieresis" unicode="&#xeb;" horiz-adv-x="649" 
d="M185 595v93h95v-93h-95zM375 595v93h95v-93h-95zM329 -15q-128 0 -205.5 75.5t-77.5 201.5q0 127 78.5 205t203.5 78q119 0 197.5 -78.5t78.5 -200.5v-30h-475q1 -79 58.5 -130t141.5 -51q127 0 194 113l65 -43q-84 -140 -259 -140zM130 302h390q-5 73 -60.5 123
t-131.5 50q-82 0 -137.5 -49.5t-60.5 -123.5z" />
    <glyph glyph-name="igrave" unicode="&#xec;" horiz-adv-x="213" 
d="M86 590l-117 116h103l84 -116h-70zM66 0v530h82v-530h-82z" />
    <glyph glyph-name="iacute" unicode="&#xed;" horiz-adv-x="213" 
d="M56 590l84 116h103l-117 -116h-70zM66 0v530h82v-530h-82z" />
    <glyph glyph-name="icircumflex" unicode="&#xee;" horiz-adv-x="213" 
d="M158 691l76 -81l-43 -40l-85 92l-86 -92l-43 40l76 81h105zM66 0v530h82v-530h-82z" />
    <glyph glyph-name="idieresis" unicode="&#xef;" horiz-adv-x="204" 
d="M-29 580v93h95v-93h-95zM138 580v93h95v-93h-95zM66 0v530h82v-530h-82z" />
    <glyph glyph-name="eth" unicode="&#xf0;" horiz-adv-x="668" 
d="M457 660q166 -196 166 -385q0 -129 -80.5 -209.5t-208.5 -80.5q-126 0 -207 79t-81 201q0 121 80 200.5t203 79.5q93 0 155 -45h2q-38 71 -99 138l-137 -45l-15 45l115 38q-34 34 -104 97v2h102q39 -36 76 -76l138 45l15 -45zM334 57q93 0 150 57t57 151t-58 151t-149 57
q-92 0 -149 -57t-57 -151t57 -151t149 -57z" />
    <glyph glyph-name="ntilde" unicode="&#xf1;" horiz-adv-x="650" 
d="M408 600q-33 0 -78 19t-66 19q-38 0 -45 -33h-47q4 43 29 67.5t66 24.5q33 0 78.5 -19.5t66.5 -19.5q38 0 45 34h46q-3 -43 -28 -67.5t-67 -24.5zM66 0v530h80v-66h2q30 38 81 59.5t109 21.5q112 0 181.5 -62.5t69.5 -163.5v-319h-82v303q0 79 -45.5 124.5t-123.5 45.5
q-84 0 -137 -48.5t-53 -125.5v-299h-82z" />
    <glyph glyph-name="ograve" unicode="&#xf2;" horiz-adv-x="668" 
d="M314 605l-117 116h103l84 -116h-70zM334 -15q-125 0 -206.5 79t-81.5 201q0 121 81.5 200.5t206.5 79.5t207 -79.5t82 -200.5t-82 -200.5t-207 -79.5zM334 57q91 0 149 57t58 151t-58 151t-149 57q-90 0 -148 -57.5t-58 -150.5t58 -150.5t148 -57.5z" />
    <glyph glyph-name="oacute" unicode="&#xf3;" horiz-adv-x="668" 
d="M284 605l84 116h103l-117 -116h-70zM334 -15q-125 0 -206.5 79t-81.5 201q0 121 81.5 200.5t206.5 79.5t207 -79.5t82 -200.5t-82 -200.5t-207 -79.5zM334 57q91 0 149 57t58 151t-58 151t-149 57q-90 0 -148 -57.5t-58 -150.5t58 -150.5t148 -57.5z" />
    <glyph glyph-name="ocircumflex" unicode="&#xf4;" horiz-adv-x="668" 
d="M334 677l-86 -92l-43 40l76 81h105l76 -81l-43 -40zM334 545q125 0 207 -79.5t82 -200.5t-82 -200.5t-207 -79.5t-206.5 79t-81.5 201q0 121 81.5 200.5t206.5 79.5zM334 57q91 0 149 57t58 151t-58 151t-149 57q-90 0 -148 -57.5t-58 -150.5t58 -150.5t148 -57.5z" />
    <glyph glyph-name="otilde" unicode="&#xf5;" horiz-adv-x="668" 
d="M405 600q-33 0 -78 19t-66 19q-37 0 -45 -33h-47q4 43 29 67.5t66 24.5q33 0 78.5 -19.5t66.5 -19.5q38 0 45 34h46q-3 -43 -28 -67.5t-67 -24.5zM334 -15q-125 0 -206.5 79t-81.5 201q0 121 81.5 200.5t206.5 79.5t207 -79.5t82 -200.5t-82 -200.5t-207 -79.5zM334 57
q91 0 149 57t58 151t-58 151t-149 57q-90 0 -148 -57.5t-58 -150.5t58 -150.5t148 -57.5z" />
    <glyph glyph-name="odieresis" unicode="&#xf6;" horiz-adv-x="668" 
d="M191 595v93h95v-93h-95zM381 595v93h95v-93h-95zM334 -15q-125 0 -206.5 79t-81.5 201q0 121 81.5 200.5t206.5 79.5t207 -79.5t82 -200.5t-82 -200.5t-207 -79.5zM334 57q91 0 149 57t58 151t-58 151t-149 57q-90 0 -148 -57.5t-58 -150.5t58 -150.5t148 -57.5z" />
    <glyph glyph-name="divide" unicode="&#xf7;" horiz-adv-x="540" 
d="M269 496q-29 0 -48.5 20t-19.5 48q0 30 19.5 50.5t48.5 20.5q30 0 50.5 -20.5t20.5 -50.5q0 -29 -20.5 -48.5t-50.5 -19.5zM61 333v69h418v-69h-418zM269 96q-29 0 -48.5 20t-19.5 49t20 49.5t48 20.5q30 0 50.5 -20.5t20.5 -49.5t-20.5 -49t-50.5 -20z" />
    <glyph glyph-name="oslash" unicode="&#xf8;" horiz-adv-x="668" 
d="M555 450q68 -76 68 -185q0 -121 -82 -200.5t-207 -79.5q-108 0 -185 61l-46 -46l-34 34l45 45q-68 76 -68 186q0 121 81.5 200.5t206.5 79.5q107 0 186 -61l47 46l34 -34zM124 265q0 -80 42 -134l304 302q-57 44 -136 44q-92 0 -151 -58t-59 -154zM334 53q93 0 152 58
t59 154q0 80 -42 134l-303 -303q55 -43 134 -43z" />
    <glyph glyph-name="ugrave" unicode="&#xf9;" horiz-adv-x="632" 
d="M292 590l-117 116h103l84 -116h-70zM288 -15q-106 0 -169 62t-63 167v316h82v-300q0 -82 44 -127.5t125 -45.5q77 0 127 49t50 125v299h82v-530h-80v66h-2q-64 -81 -196 -81z" />
    <glyph glyph-name="uacute" unicode="&#xfa;" horiz-adv-x="632" 
d="M262 590l84 116h103l-117 -116h-70zM288 -15q-106 0 -169 62t-63 167v316h82v-300q0 -82 44 -127.5t125 -45.5q77 0 127 49t50 125v299h82v-530h-80v66h-2q-64 -81 -196 -81z" />
    <glyph glyph-name="ucircumflex" unicode="&#xfb;" horiz-adv-x="632" 
d="M312 662l-86 -92l-43 40l76 81h105l76 -81l-43 -40zM484 530h82v-530h-80v66h-2q-64 -81 -196 -81q-106 0 -169 62t-63 167v316h82v-300q0 -82 44 -127.5t125 -45.5q77 0 127 49t50 125v299z" />
    <glyph glyph-name="udieresis" unicode="&#xfc;" horiz-adv-x="632" 
d="M169 580v93h95v-93h-95zM359 580v93h95v-93h-95zM288 -15q-106 0 -169 62t-63 167v316h82v-300q0 -82 44 -127.5t125 -45.5q77 0 127 49t50 125v299h82v-530h-80v66h-2q-64 -81 -196 -81z" />
    <glyph glyph-name="yacute" unicode="&#xfd;" horiz-adv-x="597" 
d="M249 590l84 116h103l-117 -116h-70zM117 -225l136 271l-243 484h94l194 -398h2l193 398h94l-377 -755h-93z" />
    <glyph glyph-name="thorn" unicode="&#xfe;" horiz-adv-x="666" 
d="M346 545q117 0 195.5 -80t78.5 -200q0 -121 -79 -200.5t-200 -79.5q-61 0 -111 22.5t-80 58.5h-2v-291h-82v955h82v-267h2q70 82 196 82zM336 57q90 0 146 57t56 151q0 95 -54.5 151.5t-142.5 56.5q-83 0 -138 -49t-55 -119v-80q0 -70 54 -119t134 -49z" />
    <glyph glyph-name="ydieresis" unicode="&#xff;" horiz-adv-x="597" 
d="M156 580v93h95v-93h-95zM346 580v93h95v-93h-95zM117 -225l136 271l-243 484h94l194 -398h2l193 398h94l-377 -755h-93z" />
    <glyph glyph-name="Amacron" unicode="&#x100;" horiz-adv-x="731" 
d="M515 823v-63h-298v63h298zM634 0l-65 147h-406l-65 -147h-93l315 700h91l315 -700h-92zM195 222h342l-170 386h-2z" />
    <glyph glyph-name="amacron" unicode="&#x101;" horiz-adv-x="580" 
d="M150 605v63h298v-63h-298zM242 -15q-92 0 -144 42t-52 115q0 70 53.5 108t180.5 58q85 14 118.5 32t33.5 49q0 38 -36 61t-97 23q-69 0 -114 -33.5t-57 -93.5l-79 17q15 83 82.5 132.5t167.5 49.5q101 0 161 -47t60 -126v-372h-79v67h-2q-27 -37 -80.5 -59.5
t-116.5 -22.5zM259 58q71 0 125 38.5t54 88.5v114h-2q-11 -20 -43 -33t-98 -24q-89 -15 -127.5 -38t-38.5 -62q0 -84 130 -84z" />
    <glyph glyph-name="Abreve" unicode="&#x102;" horiz-adv-x="731" 
d="M366 750q-62 0 -99.5 32t-41.5 89h48q14 -57 93 -57q81 0 93 57h50q-4 -57 -42.5 -89t-100.5 -32zM634 0l-65 147h-406l-65 -147h-93l315 700h91l315 -700h-92zM195 222h342l-170 386h-2z" />
    <glyph glyph-name="abreve" unicode="&#x103;" horiz-adv-x="580" 
d="M299 595q-62 0 -99.5 32t-41.5 89h48q14 -57 93 -57q81 0 93 57h50q-4 -57 -42.5 -89t-100.5 -32zM242 -15q-92 0 -144 42t-52 115q0 70 53.5 108t180.5 58q85 14 118.5 32t33.5 49q0 38 -36 61t-97 23q-69 0 -114 -33.5t-57 -93.5l-79 17q15 83 82.5 132.5t167.5 49.5
q101 0 161 -47t60 -126v-372h-79v67h-2q-27 -37 -80.5 -59.5t-116.5 -22.5zM259 58q71 0 125 38.5t54 88.5v114h-2q-11 -20 -43 -33t-98 -24q-89 -15 -127.5 -38t-38.5 -62q0 -84 130 -84z" />
    <glyph glyph-name="Aogonek" unicode="&#x104;" horiz-adv-x="731" 
d="M728 -117l24 -61q-45 -21 -93 -21q-43 0 -66.5 22t-22.5 62q3 62 82 115h-18l-65 147h-406l-65 -147h-93l315 700h91l315 -700h-13q-77 -43 -77 -100q0 -34 33 -34q25 0 59 17zM195 222h342l-170 386h-2z" />
    <glyph glyph-name="aogonek" unicode="&#x105;" horiz-adv-x="580" 
d="M520 -117l24 -61q-45 -21 -93 -21q-43 0 -66.5 22t-22.5 62q3 62 82 115h-3v67h-2q-27 -37 -80.5 -59.5t-116.5 -22.5q-92 0 -144 42t-52 115q0 70 53.5 108t180.5 58q85 14 118.5 32t33.5 49q0 38 -36 61t-97 23q-69 0 -114 -33.5t-57 -93.5l-79 17q15 83 82.5 132.5
t167.5 49.5q101 0 161 -47t60 -126v-372h-15q-77 -43 -77 -100q0 -34 33 -34q25 0 59 17zM438 185v114h-2q-11 -20 -43 -33t-98 -24q-89 -15 -127.5 -38t-38.5 -62q0 -84 130 -84q71 0 125 38.5t54 88.5z" />
    <glyph glyph-name="Cacute" unicode="&#x106;" horiz-adv-x="774" 
d="M356 775l84 116h103l-117 -116h-70zM406 -15q-158 0 -259.5 103.5t-101.5 261.5t101.5 261.5t259.5 103.5q126 0 218.5 -64t114.5 -169l-85 -21q-22 85 -88 130t-160 45q-119 0 -195.5 -79t-76.5 -207t76.5 -207t195.5 -79q94 0 160 50t89 145l84 -21
q-22 -116 -113.5 -184.5t-219.5 -68.5z" />
    <glyph glyph-name="cacute" unicode="&#x107;" horiz-adv-x="639" 
d="M279 605l84 116h103l-117 -116h-70zM329 -15q-122 0 -202.5 79.5t-80.5 200.5t80.5 200.5t202.5 79.5q99 0 173 -52t96 -139l-79 -20q-20 69 -69.5 104t-120.5 35q-88 0 -144.5 -57t-56.5 -151t56.5 -151t144.5 -57q71 0 120.5 35t69.5 104l79 -20q-22 -87 -96 -139
t-173 -52z" />
    <glyph glyph-name="Ccircumflex" unicode="&#x108;" horiz-adv-x="774" 
d="M406 847l-86 -92l-43 40l76 81h105l76 -81l-43 -40zM406 64q94 0 160 50t89 145l84 -21q-22 -116 -113.5 -184.5t-219.5 -68.5q-158 0 -259.5 103.5t-101.5 261.5t101.5 261.5t259.5 103.5q126 0 218.5 -64t114.5 -169l-85 -21q-22 85 -88 130t-160 45q-119 0 -195.5 -79
t-76.5 -207t76.5 -207t195.5 -79z" />
    <glyph glyph-name="ccircumflex" unicode="&#x109;" horiz-adv-x="639" 
d="M329 677l-86 -92l-43 40l76 81h105l76 -81l-43 -40zM329 57q71 0 120.5 35t69.5 104l79 -20q-22 -87 -96 -139t-173 -52q-122 0 -202.5 79.5t-80.5 200.5t80.5 200.5t202.5 79.5q99 0 173 -52t96 -139l-79 -20q-20 69 -69.5 104t-120.5 35q-88 0 -144.5 -57t-56.5 -151
t56.5 -151t144.5 -57z" />
    <glyph glyph-name="Cdotaccent" unicode="&#x10a;" horiz-adv-x="774" 
d="M359 775v92h94v-92h-94zM406 -15q-158 0 -259.5 103.5t-101.5 261.5t101.5 261.5t259.5 103.5q126 0 218.5 -64t114.5 -169l-85 -21q-22 85 -88 130t-160 45q-119 0 -195.5 -79t-76.5 -207t76.5 -207t195.5 -79q94 0 160 50t89 145l84 -21q-22 -116 -113.5 -184.5
t-219.5 -68.5z" />
    <glyph glyph-name="cdotaccent" unicode="&#x10b;" horiz-adv-x="639" 
d="M282 605v92h94v-92h-94zM329 -15q-122 0 -202.5 79.5t-80.5 200.5t80.5 200.5t202.5 79.5q99 0 173 -52t96 -139l-79 -20q-20 69 -69.5 104t-120.5 35q-88 0 -144.5 -57t-56.5 -151t56.5 -151t144.5 -57q71 0 120.5 35t69.5 104l79 -20q-22 -87 -96 -139t-173 -52z" />
    <glyph glyph-name="Ccaron" unicode="&#x10c;" horiz-adv-x="774" 
d="M458 765h-105l-76 81l43 40l86 -91l85 91l43 -40zM406 64q94 0 160 50t89 145l84 -21q-22 -116 -113.5 -184.5t-219.5 -68.5q-158 0 -259.5 103.5t-101.5 261.5t101.5 261.5t259.5 103.5q126 0 218.5 -64t114.5 -169l-85 -21q-22 85 -88 130t-160 45q-119 0 -195.5 -79
t-76.5 -207t76.5 -207t195.5 -79z" />
    <glyph glyph-name="ccaron" unicode="&#x10d;" horiz-adv-x="639" 
d="M381 595h-105l-76 81l43 40l86 -91l85 91l43 -40zM329 57q71 0 120.5 35t69.5 104l79 -20q-22 -87 -96 -139t-173 -52q-122 0 -202.5 79.5t-80.5 200.5t80.5 200.5t202.5 79.5q99 0 173 -52t96 -139l-79 -20q-20 69 -69.5 104t-120.5 35q-88 0 -144.5 -57t-56.5 -151
t56.5 -151t144.5 -57z" />
    <glyph glyph-name="Dcaron" unicode="&#x10e;" horiz-adv-x="749" 
d="M398 750h-105l-76 81l43 40l86 -91l85 91l43 -40zM358 700q164 0 255 -90t91 -260q0 -175 -90 -262.5t-258 -87.5h-270v700h272zM353 79q131 0 196.5 66t65.5 205q0 271 -260 271h-183v-542h181z" />
    <glyph glyph-name="dcaron" unicode="&#x10f;" horiz-adv-x="750" 
d="M330 -15q-124 0 -204 78.5t-80 201.5q0 120 79.5 200t199.5 80q132 0 201 -82h2v267h82v-730h-79v66h-2q-68 -81 -199 -81zM660 542v38q40 7 40 52h-45v97h105v-84q0 -97 -100 -103zM335 57q81 0 137 49t56 119v80q0 71 -57 119.5t-141 48.5q-91 0 -146.5 -57t-55.5 -151
q0 -95 56 -151.5t151 -56.5z" />
    <glyph glyph-name="Dcroat" unicode="&#x110;" horiz-adv-x="749" 
d="M358 700q164 0 255 -90t91 -260q0 -175 -90 -262.5t-258 -87.5h-270v315h-96v70h96v315h272zM353 79q131 0 196.5 66t65.5 205q0 271 -260 271h-183v-236h220v-70h-220v-236h181z" />
    <glyph glyph-name="dcroat" unicode="&#x111;" horiz-adv-x="676" 
d="M656 667v-63h-46v-604h-79v66h-2q-68 -81 -199 -81q-124 0 -204 78.5t-80 201.5q0 120 79.5 200t199.5 80q132 0 201 -82h2v141h-208v63h208v63h82v-63h46zM528 225v80q0 71 -57 119.5t-141 48.5q-91 0 -146.5 -57t-55.5 -151q0 -95 56 -151.5t151 -56.5q81 0 137 49
t56 119z" />
    <glyph glyph-name="Emacron" unicode="&#x112;" horiz-adv-x="645" 
d="M197 760v63h298v-63h-298zM86 0v700h503v-79h-417v-222h385v-75h-385v-245h417v-79h-503z" />
    <glyph glyph-name="emacron" unicode="&#x113;" horiz-adv-x="649" 
d="M179 605v63h298v-63h-298zM329 -15q-128 0 -205.5 75.5t-77.5 201.5q0 127 78.5 205t203.5 78q119 0 197.5 -78.5t78.5 -200.5v-30h-475q1 -79 58.5 -130t141.5 -51q127 0 194 113l65 -43q-84 -140 -259 -140zM130 302h390q-5 73 -60.5 123t-131.5 50q-82 0 -137.5 -49.5
t-60.5 -123.5z" />
    <glyph glyph-name="Ebreve" unicode="&#x114;" horiz-adv-x="645" 
d="M346 750q-62 0 -99.5 32t-41.5 89h48q14 -57 93 -57q81 0 93 57h50q-4 -57 -42.5 -89t-100.5 -32zM86 0v700h503v-79h-417v-222h385v-75h-385v-245h417v-79h-503z" />
    <glyph glyph-name="ebreve" unicode="&#x115;" horiz-adv-x="649" 
d="M328 595q-62 0 -99.5 32t-41.5 89h48q14 -57 93 -57q81 0 93 57h50q-4 -57 -42.5 -89t-100.5 -32zM329 -15q-128 0 -205.5 75.5t-77.5 201.5q0 127 78.5 205t203.5 78q119 0 197.5 -78.5t78.5 -200.5v-30h-475q1 -79 58.5 -130t141.5 -51q127 0 194 113l65 -43
q-84 -140 -259 -140zM130 302h390q-5 73 -60.5 123t-131.5 50q-82 0 -137.5 -49.5t-60.5 -123.5z" />
    <glyph glyph-name="Edotaccent" unicode="&#x116;" horiz-adv-x="645" 
d="M299 760v92h94v-92h-94zM86 0v700h503v-79h-417v-222h385v-75h-385v-245h417v-79h-503z" />
    <glyph glyph-name="edotaccent" unicode="&#x117;" horiz-adv-x="649" 
d="M281 605v92h94v-92h-94zM329 -15q-128 0 -205.5 75.5t-77.5 201.5q0 127 78.5 205t203.5 78q119 0 197.5 -78.5t78.5 -200.5v-30h-475q1 -79 58.5 -130t141.5 -51q127 0 194 113l65 -43q-84 -140 -259 -140zM130 302h390q-5 73 -60.5 123t-131.5 50q-82 0 -137.5 -49.5
t-60.5 -123.5z" />
    <glyph glyph-name="Eogonek" unicode="&#x118;" horiz-adv-x="645" 
d="M589 621h-417v-222h385v-75h-385v-245h417v-79h-41q-77 -43 -77 -100q0 -34 33 -34q25 0 59 17l24 -61q-45 -21 -93 -21q-43 0 -66.5 22t-22.5 62q3 62 82 115h-401v700h503v-79z" />
    <glyph glyph-name="eogonek" unicode="&#x119;" horiz-adv-x="649" 
d="M604 266v-30h-475q1 -79 58.5 -130t141.5 -51q127 0 194 113l65 -43q-56 -93 -156 -125q-77 -43 -77 -100q0 -34 33 -34q25 0 59 17l24 -61q-45 -21 -93 -21q-43 0 -66.5 22t-22.5 62q3 52 62 101q-7 -1 -22 -1q-128 0 -205.5 75.5t-77.5 201.5q0 127 78.5 205t203.5 78
q119 0 197.5 -78.5t78.5 -200.5zM130 302h390q-5 73 -60.5 123t-131.5 50q-82 0 -137.5 -49.5t-60.5 -123.5z" />
    <glyph glyph-name="Ecaron" unicode="&#x11a;" horiz-adv-x="645" 
d="M398 750h-105l-76 81l43 40l86 -91l85 91l43 -40zM589 621h-417v-222h385v-75h-385v-245h417v-79h-503v700h503v-79z" />
    <glyph glyph-name="ecaron" unicode="&#x11b;" horiz-adv-x="649" 
d="M380 595h-105l-76 81l43 40l86 -91l85 91l43 -40zM604 266v-30h-475q1 -79 58.5 -130t141.5 -51q127 0 194 113l65 -43q-84 -140 -259 -140q-128 0 -205.5 75.5t-77.5 201.5q0 127 78.5 205t203.5 78q119 0 197.5 -78.5t78.5 -200.5zM130 302h390q-5 73 -60.5 123
t-131.5 50q-82 0 -137.5 -49.5t-60.5 -123.5z" />
    <glyph glyph-name="Gcircumflex" unicode="&#x11c;" horiz-adv-x="774" 
d="M399 847l-86 -92l-43 40l76 81h105l76 -81l-43 -40zM409 343h320v-61q0 -131 -90 -214t-240 -83q-155 0 -254.5 103.5t-99.5 261.5t99.5 261.5t254.5 103.5q123 0 213 -68t113 -175l-85 -21q-23 88 -87 136.5t-154 48.5q-116 0 -190.5 -79t-74.5 -207q0 -127 74.5 -206.5
t190.5 -79.5q111 0 176.5 59t66.5 146h-233v74z" />
    <glyph glyph-name="gcircumflex" unicode="&#x11d;" horiz-adv-x="671" 
d="M325 677l-86 -92l-43 40l76 81h105l76 -81l-43 -40zM528 530h82v-536q0 -103 -73.5 -168.5t-188.5 -65.5q-193 0 -261 155l70 36q30 -62 75.5 -90.5t115.5 -28.5q80 0 131.5 46.5t51.5 119.5v72h-2q-66 -85 -200 -85q-126 0 -204.5 77.5t-78.5 202.5q0 120 79.5 200
t199.5 80q130 0 201 -82h2v67zM528 225v80q0 71 -57.5 119.5t-141.5 48.5q-91 0 -146 -57t-55 -151q0 -97 55 -152.5t151 -55.5q81 0 137.5 49t56.5 119z" />
    <glyph glyph-name="Gbreve" unicode="&#x11e;" horiz-adv-x="774" 
d="M399 765q-62 0 -99.5 32t-41.5 89h48q14 -57 93 -57q81 0 93 57h50q-4 -57 -42.5 -89t-100.5 -32zM399 -15q-155 0 -254.5 103.5t-99.5 261.5t99.5 261.5t254.5 103.5q123 0 213 -68t113 -175l-85 -21q-23 88 -87 136.5t-154 48.5q-116 0 -190.5 -79t-74.5 -207
q0 -127 74.5 -206.5t190.5 -79.5q111 0 176.5 59t66.5 146h-233v74h320v-61q0 -131 -90 -214t-240 -83z" />
    <glyph glyph-name="gbreve" unicode="&#x11f;" horiz-adv-x="671" 
d="M325 595q-62 0 -99.5 32t-41.5 89h48q14 -57 93 -57q81 0 93 57h50q-4 -57 -42.5 -89t-100.5 -32zM348 -240q-193 0 -261 155l70 36q30 -62 75.5 -90.5t115.5 -28.5q80 0 131.5 46.5t51.5 119.5v72h-2q-66 -85 -200 -85q-126 0 -204.5 77.5t-78.5 202.5q0 120 79.5 200
t199.5 80q130 0 201 -82h2v67h82v-536q0 -103 -73.5 -168.5t-188.5 -65.5zM334 57q81 0 137.5 49t56.5 119v80q0 71 -57.5 119.5t-141.5 48.5q-91 0 -146 -57t-55 -151q0 -97 55 -152.5t151 -55.5z" />
    <glyph glyph-name="Gdotaccent" unicode="&#x120;" horiz-adv-x="774" 
d="M352 775v92h94v-92h-94zM399 -15q-155 0 -254.5 103.5t-99.5 261.5t99.5 261.5t254.5 103.5q123 0 213 -68t113 -175l-85 -21q-23 88 -87 136.5t-154 48.5q-116 0 -190.5 -79t-74.5 -207q0 -127 74.5 -206.5t190.5 -79.5q111 0 176.5 59t66.5 146h-233v74h320v-61
q0 -131 -90 -214t-240 -83z" />
    <glyph glyph-name="gdotaccent" unicode="&#x121;" horiz-adv-x="671" 
d="M278 605v92h94v-92h-94zM348 -240q-193 0 -261 155l70 36q30 -62 75.5 -90.5t115.5 -28.5q80 0 131.5 46.5t51.5 119.5v72h-2q-66 -85 -200 -85q-126 0 -204.5 77.5t-78.5 202.5q0 120 79.5 200t199.5 80q130 0 201 -82h2v67h82v-536q0 -103 -73.5 -168.5t-188.5 -65.5z
M334 57q81 0 137.5 49t56.5 119v80q0 71 -57.5 119.5t-141.5 48.5q-91 0 -146 -57t-55 -151q0 -97 55 -152.5t151 -55.5z" />
    <glyph glyph-name="Gcommaaccent" unicode="&#x122;" horiz-adv-x="774" 
d="M399 -15q-155 0 -254.5 103.5t-99.5 261.5t99.5 261.5t254.5 103.5q123 0 213 -68t113 -175l-85 -21q-23 88 -87 136.5t-154 48.5q-116 0 -190.5 -79t-74.5 -207q0 -127 74.5 -206.5t190.5 -79.5q111 0 176.5 59t66.5 146h-233v74h320v-61q0 -131 -90 -214t-240 -83z
M351 -253v38q40 7 40 52h-45v97h105v-84q0 -97 -100 -103z" />
    <glyph glyph-name="gcommaaccent" unicode="&#x123;" horiz-adv-x="671" 
d="M375 790v-38q-43 -7 -43 -51h47v-95h-109v82q0 94 105 102zM348 -240q-193 0 -261 155l70 36q30 -62 75.5 -90.5t115.5 -28.5q80 0 131.5 46.5t51.5 119.5v72h-2q-66 -85 -200 -85q-126 0 -204.5 77.5t-78.5 202.5q0 120 79.5 200t199.5 80q130 0 201 -82h2v67h82v-536
q0 -103 -73.5 -168.5t-188.5 -65.5zM334 57q81 0 137.5 49t56.5 119v80q0 71 -57.5 119.5t-141.5 48.5q-91 0 -146 -57t-55 -151q0 -97 55 -152.5t151 -55.5z" />
    <glyph glyph-name="Hcircumflex" unicode="&#x124;" horiz-adv-x="765" 
d="M382 832l-86 -92l-43 40l76 81h105l76 -81l-43 -40zM593 700h87v-700h-87v320h-421v-320h-86v700h86v-303h421v303z" />
    <glyph glyph-name="hcircumflex" unicode="&#x125;" horiz-adv-x="650" 
d="M323 832l-86 -92l-43 40l76 81h105l76 -81l-43 -40zM338 545q112 0 181.5 -62.5t69.5 -163.5v-319h-82v303q0 79 -46.5 124.5t-127.5 45.5t-133 -49t-52 -125v-299h-82v730h82v-266h2q65 81 188 81z" />
    <glyph glyph-name="Hbar" unicode="&#x126;" horiz-adv-x="756" 
d="M756 584v-70h-80v-514h-87v320h-420v-320h-87v514h-82v70h82v116h87v-116h420v116h87v-116h80zM589 397v117h-420v-117h420z" />
    <glyph glyph-name="hbar" unicode="&#x127;" horiz-adv-x="650" 
d="M338 545q112 0 181.5 -62.5t69.5 -163.5v-319h-82v303q0 79 -46.5 124.5t-127.5 45.5t-133 -49t-52 -125v-299h-82v604h-61v63h61v63h82v-63h193v-63h-193v-140h2q65 81 188 81z" />
    <glyph glyph-name="Itilde" unicode="&#x128;" horiz-adv-x="258" 
d="M200 755q-33 0 -78 19t-66 19q-38 0 -45 -33h-47q4 43 29 67.5t66 24.5q33 0 78.5 -19.5t66.5 -19.5q38 0 45 34h46q-3 -43 -28 -67.5t-67 -24.5zM86 0v700h86v-700h-86z" />
    <glyph glyph-name="itilde" unicode="&#x129;" horiz-adv-x="213" 
d="M177 585q-33 0 -78 19t-66 19q-38 0 -45 -33h-47q4 43 29 67.5t66 24.5q33 0 78.5 -19.5t66.5 -19.5q38 0 45 34h46q-3 -43 -28 -67.5t-67 -24.5zM66 0v530h82v-530h-82z" />
    <glyph glyph-name="Imacron" unicode="&#x12a;" horiz-adv-x="258" 
d="M-20 760v63h298v-63h-298zM86 0v700h86v-700h-86z" />
    <glyph glyph-name="imacron" unicode="&#x12b;" horiz-adv-x="213" 
d="M-43 590v63h298v-63h-298zM66 0v530h82v-530h-82z" />
    <glyph glyph-name="Ibreve" unicode="&#x12c;" horiz-adv-x="258" 
d="M129 750q-62 0 -99.5 32t-41.5 89h48q14 -57 93 -57q81 0 93 57h50q-4 -57 -42.5 -89t-100.5 -32zM86 0v700h86v-700h-86z" />
    <glyph glyph-name="ibreve" unicode="&#x12d;" horiz-adv-x="213" 
d="M106 580q-62 0 -99.5 32t-41.5 89h48q14 -57 93 -57q81 0 93 57h50q-4 -57 -42.5 -89t-100.5 -32zM66 0v530h82v-530h-82z" />
    <glyph glyph-name="Iogonek" unicode="&#x12e;" horiz-adv-x="258" 
d="M178 -117l24 -61q-45 -21 -93 -21q-43 0 -66.5 22t-22.5 62q3 62 82 115h-16v700h86v-700h-9q-77 -43 -77 -100q0 -34 33 -34q25 0 59 17z" />
    <glyph glyph-name="iogonek" unicode="&#x12f;" horiz-adv-x="213" 
d="M153 714v-91h-95v91h95zM153 -117l24 -61q-45 -21 -93 -21q-43 0 -66.5 22t-22.5 62q3 62 82 115h-11v530h82v-530h-10q-77 -43 -77 -100q0 -34 33 -34q25 0 59 17z" />
    <glyph glyph-name="Idotaccent" unicode="&#x130;" horiz-adv-x="258" 
d="M82 760v92h94v-92h-94zM86 0v700h86v-700h-86z" />
    <glyph glyph-name="dotlessi" unicode="&#x131;" horiz-adv-x="213" 
d="M66 0v530h82v-530h-82z" />
    <glyph glyph-name="Jcircumflex" unicode="&#x134;" horiz-adv-x="604" 
d="M532 861l76 -81l-43 -40l-85 92l-86 -92l-43 40l76 81h105zM437 267v433h87v-444q0 -129 -63.5 -200t-180.5 -71q-116 0 -176.5 57.5t-73.5 175.5l84 11q10 -89 48.5 -127t117.5 -38q157 0 157 203z" />
    <glyph glyph-name="jcircumflex" unicode="&#x135;" horiz-adv-x="222" 
d="M168 691l76 -81l-43 -40l-85 92l-86 -92l-43 40l76 81h105zM75 -47v577h82v-582q0 -59 -36 -90t-98 -31h-78v72h72q58 0 58 54z" />
    <glyph glyph-name="Kcommaaccent" unicode="&#x136;" horiz-adv-x="677" 
d="M86 0v700h86v-374h2l360 374h123l-300 -305l315 -395h-110l-263 337h-2l-125 -130v-207h-86zM324 -238v38q40 7 40 52h-45v97h105v-84q0 -97 -100 -103z" />
    <glyph glyph-name="kcommaaccent" unicode="&#x137;" horiz-adv-x="602" 
d="M66 0v730h82v-451h2l295 251h124l-254 -214l267 -316h-107l-220 264h-2l-105 -90v-174h-82zM266 -238v38q40 7 40 52h-45v97h105v-84q0 -97 -100 -103z" />
    <glyph glyph-name="kgreenlandic" unicode="&#x138;" horiz-adv-x="583" 
d="M66 0v530h82v-251h2l281 251h120l-242 -214l253 -316h-105l-206 264h-2l-101 -90v-174h-82z" />
    <glyph glyph-name="Lacute" unicode="&#x139;" horiz-adv-x="597" 
d="M79 760l84 116h103l-117 -116h-70zM86 0v700h86v-621h390v-79h-476z" />
    <glyph glyph-name="lacute" unicode="&#x13a;" horiz-adv-x="213" 
d="M57 790l84 116h103l-117 -116h-70zM66 0v730h82v-730h-82z" />
    <glyph glyph-name="Lcommaaccent" unicode="&#x13b;" horiz-adv-x="597" 
d="M86 0v700h86v-621h390v-79h-476zM276 -238v38q40 7 40 52h-45v97h105v-84q0 -97 -100 -103z" />
    <glyph glyph-name="lcommaaccent" unicode="&#x13c;" horiz-adv-x="213" 
d="M66 0v730h82v-730h-82zM58 -238v38q40 7 40 52h-45v97h105v-84q0 -97 -100 -103z" />
    <glyph glyph-name="Lcaron" unicode="&#x13d;" horiz-adv-x="572" 
d="M86 0v700h86v-621h390v-79h-476zM461 512v38q40 7 40 52h-45v97h105v-84q0 -97 -100 -103z" />
    <glyph glyph-name="lcaron" unicode="&#x13e;" horiz-adv-x="288" 
d="M66 0v730h82v-730h-82zM198 542v38q40 7 40 52h-45v97h105v-84q0 -97 -100 -103z" />
    <glyph glyph-name="Ldot" unicode="&#x13f;" horiz-adv-x="597" 
d="M86 0v700h86v-621h390v-79h-476zM342 332v118h121v-118h-121z" />
    <glyph glyph-name="ldot" unicode="&#x140;" horiz-adv-x="318" 
d="M66 0v730h82v-730h-82zM198 322v118h121v-118h-121z" />
    <glyph glyph-name="Lslash" unicode="&#x141;" horiz-adv-x="620" 
d="M226 79h390v-79h-476v236l-107 -99l-33 34l140 130v399h86v-320l204 183l35 -39l-239 -213v-232z" />
    <glyph glyph-name="lslash" unicode="&#x142;" horiz-adv-x="307" 
d="M322 508l-127 -118v-390h-82v331l-92 -85l-35 37l127 117v330h82v-270l92 86z" />
    <glyph glyph-name="Nacute" unicode="&#x143;" horiz-adv-x="775" 
d="M338 760l84 116h103l-117 -116h-70zM86 0v700h94l421 -578h2v578h87v-700h-95l-421 578h-2v-578h-86z" />
    <glyph glyph-name="nacute" unicode="&#x144;" horiz-adv-x="650" 
d="M287 605l84 116h103l-117 -116h-70zM66 0v530h80v-66h2q30 38 81 59.5t109 21.5q112 0 181.5 -62.5t69.5 -163.5v-319h-82v303q0 79 -45.5 124.5t-123.5 45.5q-84 0 -137 -48.5t-53 -125.5v-299h-82z" />
    <glyph glyph-name="Ncommaaccent" unicode="&#x145;" horiz-adv-x="775" 
d="M86 0v700h94l421 -578h2v578h87v-700h-95l-421 578h-2v-578h-86zM351 -238v38q40 7 40 52h-45v97h105v-84q0 -97 -100 -103z" />
    <glyph glyph-name="ncommaaccent" unicode="&#x146;" horiz-adv-x="650" 
d="M66 0v530h80v-66h2q30 38 81 59.5t109 21.5q112 0 181.5 -62.5t69.5 -163.5v-319h-82v303q0 79 -45.5 124.5t-123.5 45.5q-84 0 -137 -48.5t-53 -125.5v-299h-82zM280 -238v38q40 7 40 52h-45v97h105v-84q0 -97 -100 -103z" />
    <glyph glyph-name="Ncaron" unicode="&#x147;" horiz-adv-x="775" 
d="M440 750h-105l-76 81l43 40l86 -91l85 91l43 -40zM603 700h87v-700h-95l-421 578h-2v-578h-86v700h94l421 -578h2v578z" />
    <glyph glyph-name="ncaron" unicode="&#x148;" horiz-adv-x="650" 
d="M389 595h-105l-76 81l43 40l86 -91l85 91l43 -40zM338 545q112 0 181.5 -62.5t69.5 -163.5v-319h-82v303q0 79 -45.5 124.5t-123.5 45.5q-84 0 -137 -48.5t-53 -125.5v-299h-82v530h80v-66h2q30 38 81 59.5t109 21.5z" />
    <glyph glyph-name="Eng" unicode="&#x14a;" horiz-adv-x="777" 
d="M605 700h87v-753q0 -59 -37 -89.5t-105 -30.5h-69v75h76q30 0 43.5 13t13.5 41v44l-440 572h-2v-572h-86v700h89l428 -557h2v557z" />
    <glyph glyph-name="eng" unicode="&#x14b;" horiz-adv-x="650" 
d="M338 545q112 0 181.5 -62.5t69.5 -163.5v-372q0 -59 -36.5 -89.5t-103.5 -30.5h-68v72h69q31 0 44 12.5t13 41.5v350q0 79 -45.5 124.5t-123.5 45.5q-84 0 -137 -48.5t-53 -125.5v-299h-82v530h80v-66h2q30 38 81 59.5t109 21.5z" />
    <glyph glyph-name="Omacron" unicode="&#x14c;" horiz-adv-x="812" 
d="M257 775v63h298v-63h-298zM406 -15q-159 0 -260 103t-101 262t101 262t260 103q160 0 260 -103t100 -262t-100 -262t-260 -103zM406 64q121 0 196.5 78.5t75.5 207.5t-75.5 207.5t-196.5 78.5t-196.5 -78.5t-75.5 -207.5t75.5 -207.5t196.5 -78.5z" />
    <glyph glyph-name="omacron" unicode="&#x14d;" horiz-adv-x="668" 
d="M185 605v63h298v-63h-298zM334 -15q-125 0 -206.5 79t-81.5 201q0 121 81.5 200.5t206.5 79.5t207 -79.5t82 -200.5t-82 -200.5t-207 -79.5zM334 57q91 0 149 57t58 151t-58 151t-149 57q-90 0 -148 -57.5t-58 -150.5t58 -150.5t148 -57.5z" />
    <glyph glyph-name="Obreve" unicode="&#x14e;" horiz-adv-x="812" 
d="M406 765q-62 0 -99.5 32t-41.5 89h48q14 -57 93 -57q81 0 93 57h50q-4 -57 -42.5 -89t-100.5 -32zM406 -15q-159 0 -260 103t-101 262t101 262t260 103q160 0 260 -103t100 -262t-100 -262t-260 -103zM406 64q121 0 196.5 78.5t75.5 207.5t-75.5 207.5t-196.5 78.5
t-196.5 -78.5t-75.5 -207.5t75.5 -207.5t196.5 -78.5z" />
    <glyph glyph-name="obreve" unicode="&#x14f;" horiz-adv-x="668" 
d="M334 595q-62 0 -99.5 32t-41.5 89h48q14 -57 93 -57q81 0 93 57h50q-4 -57 -42.5 -89t-100.5 -32zM334 -15q-125 0 -206.5 79t-81.5 201q0 121 81.5 200.5t206.5 79.5t207 -79.5t82 -200.5t-82 -200.5t-207 -79.5zM334 57q91 0 149 57t58 151t-58 151t-149 57
q-90 0 -148 -57.5t-58 -150.5t58 -150.5t148 -57.5z" />
    <glyph glyph-name="Ohungarumlaut" unicode="&#x150;" horiz-adv-x="812" 
d="M264 775l80 116h101l-112 -116h-69zM426 775l81 116h100l-111 -116h-70zM406 -15q-159 0 -260 103t-101 262t101 262t260 103q160 0 260 -103t100 -262t-100 -262t-260 -103zM406 64q121 0 196.5 78.5t75.5 207.5t-75.5 207.5t-196.5 78.5t-196.5 -78.5t-75.5 -207.5
t75.5 -207.5t196.5 -78.5z" />
    <glyph glyph-name="ohungarumlaut" unicode="&#x151;" horiz-adv-x="668" 
d="M192 605l80 116h101l-112 -116h-69zM354 605l81 116h100l-111 -116h-70zM334 -15q-125 0 -206.5 79t-81.5 201q0 121 81.5 200.5t206.5 79.5t207 -79.5t82 -200.5t-82 -200.5t-207 -79.5zM334 57q91 0 149 57t58 151t-58 151t-149 57q-90 0 -148 -57.5t-58 -150.5
t58 -150.5t148 -57.5z" />
    <glyph glyph-name="OE" unicode="&#x152;" horiz-adv-x="1083" 
d="M396 -15q-158 0 -254.5 102.5t-96.5 262.5q0 158 99 261.5t252 103.5q102 0 177 -45h2v30h453v-79h-366v-222h333v-75h-333v-245h366v-79h-453v31h-2q-76 -46 -177 -46zM399 64q104 0 176 64v450q-72 58 -176 58q-117 0 -192 -79t-75 -207q0 -130 72 -208t195 -78z" />
    <glyph glyph-name="oe" unicode="&#x153;" horiz-adv-x="1145" 
d="M1100 266v-30h-475q1 -79 58.5 -130.5t141.5 -51.5q128 0 195 114l64 -43q-83 -140 -259 -140q-84 0 -147.5 34.5t-97.5 96.5q-37 -61 -101 -96t-145 -35q-125 0 -206.5 79t-81.5 201q0 121 81.5 200.5t206.5 79.5q81 0 146 -36t102 -98q34 63 97 98.5t145 35.5
q119 0 197.5 -78.5t78.5 -200.5zM334 54q91 0 149.5 58.5t58.5 152.5t-58.5 152.5t-149.5 58.5t-149 -58.5t-58 -152.5t58 -152.5t149 -58.5zM626 301h391q-5 74 -60.5 124.5t-132.5 50.5q-83 0 -138.5 -50t-59.5 -125z" />
    <glyph glyph-name="Racute" unicode="&#x154;" horiz-adv-x="700" 
d="M489 876l-117 -116h-70l84 116h103zM457 284v-1l182 -283h-100l-178 283h-189v-283h-86v700h340q113 0 176 -55t63 -153q0 -93 -54.5 -147t-153.5 -61zM172 362h250q156 0 156 130q0 129 -158 129h-248v-259z" />
    <glyph glyph-name="racute" unicode="&#x155;" horiz-adv-x="384" 
d="M126 590l84 116h103l-117 -116h-70zM66 0v530h78v-52h2q51 61 135 61q39 0 82 -12l-18 -78q-42 11 -71 11q-57 0 -91.5 -38t-34.5 -107v-315h-82z" />
    <glyph glyph-name="Rcommaaccent" unicode="&#x156;" horiz-adv-x="700" 
d="M457 284v-1l182 -283h-100l-178 283h-189v-283h-86v700h340q113 0 176 -55t63 -153q0 -93 -54.5 -147t-153.5 -61zM172 362h250q156 0 156 130q0 129 -158 129h-248v-259zM309 -148v97h105v-84q0 -97 -100 -103v38q40 7 40 52h-45z" />
    <glyph glyph-name="rcommaaccent" unicode="&#x157;" horiz-adv-x="384" 
d="M66 0v530h78v-52h2q51 61 135 61q39 0 82 -12l-18 -78q-42 11 -71 11q-57 0 -91.5 -38t-34.5 -107v-315h-82zM59 -238v38q40 7 40 52h-45v97h105v-84q0 -97 -100 -103z" />
    <glyph glyph-name="Rcaron" unicode="&#x158;" horiz-adv-x="700" 
d="M404 750h-105l-76 81l43 40l86 -91l85 91l43 -40zM457 284v-1l182 -283h-100l-178 283h-189v-283h-86v700h340q113 0 176 -55t63 -153q0 -93 -54.5 -147t-153.5 -61zM172 362h250q156 0 156 130q0 129 -158 129h-248v-259z" />
    <glyph glyph-name="rcaron" unicode="&#x159;" horiz-adv-x="384" 
d="M228 580h-105l-76 81l43 40l86 -91l85 91l43 -40zM281 539q39 0 82 -12l-18 -78q-42 11 -71 11q-57 0 -91.5 -38t-34.5 -107v-315h-82v530h78v-52h2q51 61 135 61z" />
    <glyph glyph-name="Sacute" unicode="&#x15a;" horiz-adv-x="671" 
d="M261 775l84 116h103l-117 -116h-70zM363 -15q-143 0 -229 68.5t-99 192.5l85 13q27 -197 244 -197q85 0 135 32.5t50 88.5t-49.5 87.5t-176.5 57.5q-149 30 -209 73.5t-60 120.5q0 86 71.5 139.5t185.5 53.5q115 0 195 -60t97 -158l-85 -17q-14 75 -69 116.5t-139 41.5
q-76 0 -123 -31.5t-47 -82.5q0 -44 43.5 -69.5t160.5 -49.5q160 -33 226 -82.5t66 -137.5q0 -91 -74.5 -145.5t-198.5 -54.5z" />
    <glyph glyph-name="sacute" unicode="&#x15b;" horiz-adv-x="597" 
d="M231 605l84 116h103l-117 -116h-70zM318 -15q-116 0 -193 53.5t-89 142.5l76 17q26 -143 206 -143q76 0 119.5 22.5t43.5 62.5q0 39 -39.5 60.5t-135.5 34.5q-139 19 -194.5 54t-55.5 101q0 70 62 112.5t163 42.5q97 0 169 -49t86 -123l-76 -15q-15 54 -63 85.5
t-116 31.5q-65 0 -105.5 -22.5t-40.5 -59.5q0 -35 36.5 -54t136.5 -33q139 -20 196 -58t57 -107q0 -71 -66.5 -113.5t-176.5 -42.5z" />
    <glyph glyph-name="Scircumflex" unicode="&#x15c;" horiz-adv-x="671" 
d="M311 847l-86 -92l-43 40l76 81h105l76 -81l-43 -40zM344 405q160 -33 226 -82.5t66 -137.5q0 -91 -74.5 -145.5t-198.5 -54.5q-143 0 -229 68.5t-99 192.5l85 13q27 -197 244 -197q85 0 135 32.5t50 88.5t-49.5 87.5t-176.5 57.5q-149 30 -209 73.5t-60 120.5
q0 86 71.5 139.5t185.5 53.5q115 0 195 -60t97 -158l-85 -17q-14 75 -69 116.5t-139 41.5q-76 0 -123 -31.5t-47 -82.5q0 -44 43.5 -69.5t160.5 -49.5z" />
    <glyph glyph-name="scircumflex" unicode="&#x15d;" horiz-adv-x="597" 
d="M281 677l-86 -92l-43 40l76 81h105l76 -81l-43 -40zM308 306q139 -20 196 -58t57 -107q0 -71 -66.5 -113.5t-176.5 -42.5q-116 0 -193 53.5t-89 142.5l76 17q26 -143 206 -143q76 0 119.5 22.5t43.5 62.5q0 39 -39.5 60.5t-135.5 34.5q-139 19 -194.5 54t-55.5 101
q0 70 62 112.5t163 42.5q97 0 169 -49t86 -123l-76 -15q-15 54 -63 85.5t-116 31.5q-65 0 -105.5 -22.5t-40.5 -59.5q0 -35 36.5 -54t136.5 -33z" />
    <glyph glyph-name="Scedilla" unicode="&#x15e;" horiz-adv-x="671" 
d="M636 185q0 -85 -66.5 -139t-179.5 -60l-31 -47q18 6 38 6q46 0 73 -24.5t27 -62.5q0 -41 -31 -66.5t-81 -25.5q-60 0 -110 39l34 45q37 -32 76 -32q25 0 40 11.5t15 30.5q0 39 -53 39q-32 0 -62 -25l-45 20l55 92q-131 7 -209.5 74.5t-90.5 185.5l85 13q27 -197 244 -197
q85 0 135 32.5t50 88.5t-49.5 87.5t-176.5 57.5q-149 30 -209 73.5t-60 120.5q0 86 71.5 139.5t185.5 53.5q115 0 195 -60t97 -158l-85 -17q-14 75 -69 116.5t-139 41.5q-76 0 -123 -31.5t-47 -82.5q0 -44 43.5 -69.5t160.5 -49.5q160 -33 226 -82.5t66 -137.5z" />
    <glyph glyph-name="scedilla" unicode="&#x15f;" horiz-adv-x="597" 
d="M561 141q0 -66 -58 -108t-156 -47l-31 -47q18 6 38 6q46 0 73 -24.5t27 -62.5q0 -41 -31 -66.5t-81 -25.5q-60 0 -110 39l34 45q37 -32 76 -32q25 0 40 11.5t15 30.5q0 39 -53 39q-32 0 -62 -25l-45 20l55 92q-107 6 -176 58.5t-80 136.5l76 17q26 -143 206 -143
q76 0 119.5 22.5t43.5 62.5q0 39 -39.5 60.5t-135.5 34.5q-139 19 -194.5 54t-55.5 101q0 70 62 112.5t163 42.5q97 0 169 -49t86 -123l-76 -15q-15 54 -63 85.5t-116 31.5q-65 0 -105.5 -22.5t-40.5 -59.5q0 -35 36.5 -54t136.5 -33q139 -20 196 -58t57 -107z" />
    <glyph glyph-name="Scaron" unicode="&#x160;" horiz-adv-x="671" 
d="M363 765h-105l-76 81l43 40l86 -91l85 91l43 -40zM344 405q160 -33 226 -82.5t66 -137.5q0 -91 -74.5 -145.5t-198.5 -54.5q-143 0 -229 68.5t-99 192.5l85 13q27 -197 244 -197q85 0 135 32.5t50 88.5t-49.5 87.5t-176.5 57.5q-149 30 -209 73.5t-60 120.5
q0 86 71.5 139.5t185.5 53.5q115 0 195 -60t97 -158l-85 -17q-14 75 -69 116.5t-139 41.5q-76 0 -123 -31.5t-47 -82.5q0 -44 43.5 -69.5t160.5 -49.5z" />
    <glyph glyph-name="scaron" unicode="&#x161;" horiz-adv-x="597" 
d="M333 595h-105l-76 81l43 40l86 -91l85 91l43 -40zM308 306q139 -20 196 -58t57 -107q0 -71 -66.5 -113.5t-176.5 -42.5q-116 0 -193 53.5t-89 142.5l76 17q26 -143 206 -143q76 0 119.5 22.5t43.5 62.5q0 39 -39.5 60.5t-135.5 34.5q-139 19 -194.5 54t-55.5 101
q0 70 62 112.5t163 42.5q97 0 169 -49t86 -123l-76 -15q-15 54 -63 85.5t-116 31.5q-65 0 -105.5 -22.5t-40.5 -59.5q0 -35 36.5 -54t136.5 -33z" />
    <glyph glyph-name="uni0162" unicode="&#x162;" horiz-adv-x="684" 
d="M385 0h-17l-30 -46q18 6 38 6q46 0 73 -24.5t27 -62.5q0 -41 -31 -66.5t-81 -25.5q-60 0 -110 39l34 45q37 -32 76 -32q25 0 40 11.5t15 30.5q0 39 -53 39q-32 0 -62 -25l-45 20l54 91h-14v621h-264v79h614v-79h-264v-621z" />
    <glyph glyph-name="uni0163" unicode="&#x163;" horiz-adv-x="416" 
d="M387 461h-170v-340q0 -27 13 -38t45 -11h83v-72h-84h-15l-30 -46q18 6 38 6q46 0 73 -24.5t27 -62.5q0 -41 -31 -66.5t-81 -25.5q-60 0 -110 39l34 45q37 -32 76 -32q25 0 40 11.5t15 30.5q0 39 -53 39q-32 0 -62 -25l-45 20l59 98q-74 21 -74 115v339h-115v69h115v119
h82v-119h170v-69z" />
    <glyph glyph-name="Tcaron" unicode="&#x164;" horiz-adv-x="684" 
d="M397 750h-105l-76 81l43 40l86 -91l85 91l43 -40zM35 700h614v-79h-264v-621h-86v621h-264v79z" />
    <glyph glyph-name="tcaron" unicode="&#x165;" horiz-adv-x="416" 
d="M282 765h105v-84q0 -97 -100 -103v38q40 7 40 52h-45v97zM217 649v-119h170v-69h-170v-340q0 -27 13 -38t45 -11h83v-72h-84q-74 0 -106.5 28.5t-32.5 93.5v339h-115v69h115v119h82z" />
    <glyph glyph-name="Tbar" unicode="&#x166;" horiz-adv-x="684" 
d="M649 621h-264v-236h170v-70h-170v-315h-86v315h-146v70h146v236h-264v79h614v-79z" />
    <glyph glyph-name="tbar" unicode="&#x167;" horiz-adv-x="416" 
d="M387 461h-170v-154h159v-63h-159v-123q0 -27 13 -38t45 -11h83v-72h-84q-74 0 -106.5 28.5t-32.5 93.5v122h-95v63h95v154h-115v69h115v119h82v-119h170v-69z" />
    <glyph glyph-name="Utilde" unicode="&#x168;" horiz-adv-x="761" 
d="M451 755q-33 0 -78 19t-66 19q-37 0 -45 -33h-47q4 43 29 67.5t66 24.5q33 0 78.5 -19.5t66.5 -19.5q38 0 45 34h46q-3 -43 -28 -67.5t-67 -24.5zM380 -15q-299 0 -299 281v434h86v-430q0 -109 52 -157.5t161 -48.5q110 0 162 48.5t52 157.5v430h86v-434
q0 -281 -300 -281z" />
    <glyph glyph-name="utilde" unicode="&#x169;" horiz-adv-x="632" 
d="M383 585q-33 0 -78 19t-66 19q-37 0 -45 -33h-47q4 43 29 67.5t66 24.5q33 0 78.5 -19.5t66.5 -19.5q38 0 45 34h46q-3 -43 -28 -67.5t-67 -24.5zM288 -15q-106 0 -169 62t-63 167v316h82v-300q0 -82 44 -127.5t125 -45.5q77 0 127 49t50 125v299h82v-530h-80v66h-2
q-64 -81 -196 -81z" />
    <glyph glyph-name="Umacron" unicode="&#x16a;" horiz-adv-x="761" 
d="M231 760v63h298v-63h-298zM380 -15q-299 0 -299 281v434h86v-430q0 -109 52 -157.5t161 -48.5q110 0 162 48.5t52 157.5v430h86v-434q0 -281 -300 -281z" />
    <glyph glyph-name="umacron" unicode="&#x16b;" horiz-adv-x="632" 
d="M163 590v63h298v-63h-298zM288 -15q-106 0 -169 62t-63 167v316h82v-300q0 -82 44 -127.5t125 -45.5q77 0 127 49t50 125v299h82v-530h-80v66h-2q-64 -81 -196 -81z" />
    <glyph glyph-name="Ubreve" unicode="&#x16c;" horiz-adv-x="761" 
d="M380 750q-62 0 -99.5 32t-41.5 89h48q14 -57 93 -57q81 0 93 57h50q-4 -57 -42.5 -89t-100.5 -32zM380 -15q-299 0 -299 281v434h86v-430q0 -109 52 -157.5t161 -48.5q110 0 162 48.5t52 157.5v430h86v-434q0 -281 -300 -281z" />
    <glyph glyph-name="ubreve" unicode="&#x16d;" horiz-adv-x="632" 
d="M312 580q-62 0 -99.5 32t-41.5 89h48q14 -57 93 -57q81 0 93 57h50q-4 -57 -42.5 -89t-100.5 -32zM288 -15q-106 0 -169 62t-63 167v316h82v-300q0 -82 44 -127.5t125 -45.5q77 0 127 49t50 125v299h82v-530h-80v66h-2q-64 -81 -196 -81z" />
    <glyph glyph-name="Uring" unicode="&#x16e;" horiz-adv-x="761" 
d="M380 653q-53 0 -87.5 32t-34.5 81t34.5 81t87.5 32t87.5 -32t34.5 -81t-34.5 -81t-87.5 -32zM380 700q29 0 47 18.5t18 47.5q0 28 -18.5 46.5t-46.5 18.5q-29 0 -47.5 -18t-18.5 -47t18.5 -47.5t47.5 -18.5zM380 -15q-299 0 -299 281v434h86v-430q0 -109 52 -157.5
t161 -48.5q110 0 162 48.5t52 157.5v430h86v-434q0 -281 -300 -281z" />
    <glyph glyph-name="uring" unicode="&#x16f;" horiz-adv-x="632" 
d="M312 483q-53 0 -87.5 32t-34.5 81t34.5 81t87.5 32t87.5 -32t34.5 -81t-34.5 -81t-87.5 -32zM312 530q29 0 47 18.5t18 47.5q0 28 -18.5 46.5t-46.5 18.5q-29 0 -47.5 -18t-18.5 -47t18.5 -47.5t47.5 -18.5zM288 -15q-106 0 -169 62t-63 167v316h82v-300q0 -82 44 -127.5
t125 -45.5q77 0 127 49t50 125v299h82v-530h-80v66h-2q-64 -81 -196 -81z" />
    <glyph glyph-name="Uhungarumlaut" unicode="&#x170;" horiz-adv-x="761" 
d="M238 760l80 116h101l-112 -116h-69zM400 760l81 116h100l-111 -116h-70zM380 -15q-299 0 -299 281v434h86v-430q0 -109 52 -157.5t161 -48.5q110 0 162 48.5t52 157.5v430h86v-434q0 -281 -300 -281z" />
    <glyph glyph-name="uhungarumlaut" unicode="&#x171;" horiz-adv-x="632" 
d="M170 590l80 116h101l-112 -116h-69zM332 590l81 116h100l-111 -116h-70zM288 -15q-106 0 -169 62t-63 167v316h82v-300q0 -82 44 -127.5t125 -45.5q77 0 127 49t50 125v299h82v-530h-80v66h-2q-64 -81 -196 -81z" />
    <glyph glyph-name="Uogonek" unicode="&#x172;" horiz-adv-x="761" 
d="M594 700h86v-434q0 -215 -177 -266q-77 -43 -77 -100q0 -34 33 -34q25 0 59 17l24 -61q-45 -21 -93 -21q-43 0 -66.5 22t-22.5 62q3 54 64 102q-28 -2 -44 -2q-299 0 -299 281v434h86v-430q0 -109 52 -157.5t161 -48.5q110 0 162 48.5t52 157.5v430z" />
    <glyph glyph-name="uogonek" unicode="&#x173;" horiz-adv-x="632" 
d="M573 -117l24 -61q-45 -21 -93 -21q-43 0 -66.5 22t-22.5 62q3 62 82 115h-11v66h-2q-64 -81 -196 -81q-106 0 -169 62t-63 167v316h82v-300q0 -82 44 -127.5t125 -45.5q77 0 127 49t50 125v299h82v-530h-8q-77 -43 -77 -100q0 -34 33 -34q25 0 59 17z" />
    <glyph glyph-name="Wcircumflex" unicode="&#x174;" horiz-adv-x="1019" 
d="M510 832l-86 -92l-43 40l76 81h105l76 -81l-43 -40zM909 700h90l-160 -700h-105l-223 575h-2l-225 -575h-103l-161 700h90l134 -580h2l221 580h85l222 -580h2z" />
    <glyph glyph-name="wcircumflex" unicode="&#x175;" horiz-adv-x="889" 
d="M445 662l-86 -92l-43 40l76 81h105l76 -81l-43 -40zM782 530h82l-158 -530h-74l-186 444h-2l-187 -444h-73l-159 530h82l122 -415h2l174 415h79l174 -415h2z" />
    <glyph glyph-name="Ycircumflex" unicode="&#x176;" horiz-adv-x="693" 
d="M346 832l-86 -92l-43 40l76 81h105l76 -81l-43 -40zM588 700h105l-303 -416v-284h-87v284l-303 416h104l241 -340h2z" />
    <glyph glyph-name="ycircumflex" unicode="&#x177;" horiz-adv-x="597" 
d="M299 662l-86 -92l-43 40l76 81h105l76 -81l-43 -40zM493 530h94l-377 -755h-93l136 271l-243 484h94l194 -398h2z" />
    <glyph glyph-name="Ydieresis" unicode="&#x178;" horiz-adv-x="693" 
d="M203 750v93h95v-93h-95zM393 750v93h95v-93h-95zM303 0v284l-303 416h104l241 -340h2l241 340h105l-303 -416v-284h-87z" />
    <glyph glyph-name="Zacute" unicode="&#x179;" horiz-adv-x="715" 
d="M321 760l84 116h103l-117 -116h-70zM45 0v70l511 549v2h-485v79h599v-70l-511 -549v-2h495v-79h-609z" />
    <glyph glyph-name="zacute" unicode="&#x17a;" horiz-adv-x="593" 
d="M246 590l84 116h103l-117 -116h-70zM30 0v65l413 394v2h-396v69h513v-65l-414 -394v-2h416v-69h-532z" />
    <glyph glyph-name="Zdotaccent" unicode="&#x17b;" horiz-adv-x="715" 
d="M324 760v92h94v-92h-94zM45 0v70l511 549v2h-485v79h599v-70l-511 -549v-2h495v-79h-609z" />
    <glyph glyph-name="zdotaccent" unicode="&#x17c;" horiz-adv-x="593" 
d="M248 623v91h95v-91h-95zM30 0v65l413 394v2h-396v69h513v-65l-414 -394v-2h416v-69h-532z" />
    <glyph glyph-name="Zcaron" unicode="&#x17d;" horiz-adv-x="715" 
d="M423 750h-105l-76 81l43 40l86 -91l85 91l43 -40zM670 630l-511 -549v-2h495v-79h-609v70l511 549v2h-485v79h599v-70z" />
    <glyph glyph-name="zcaron" unicode="&#x17e;" horiz-adv-x="593" 
d="M348 580h-105l-76 81l43 40l86 -91l85 91l43 -40zM146 69h416v-69h-532v65l413 394v2h-396v69h513v-65l-414 -394v-2z" />
    <glyph glyph-name="longs" unicode="&#x17f;" horiz-adv-x="326" 
d="M115 0v460h-95v70h95v68q0 53 32.5 84.5t94.5 31.5h110v-72h-105q-50 0 -50 -51v-591h-82z" />
    <glyph glyph-name="uni018E" unicode="&#x18e;" horiz-adv-x="645" 
d="M559 0h-503v79h417v245h-385v75h385v222h-417v79h503v-700z" />
    <glyph glyph-name="uni018F" unicode="&#x18f;" horiz-adv-x="779" 
d="M388 -15q-155 0 -249 99t-94 263v39h600q-3 110 -75.5 180t-182.5 70q-82 0 -144 -40.5t-95 -114.5l-79 36q41 92 126 145t192 53q156 0 251.5 -101t95.5 -266q0 -162 -96 -262.5t-250 -100.5zM388 64q109 0 181 69.5t76 177.5h-512q4 -109 74.5 -178t180.5 -69z" />
    <glyph glyph-name="florin" unicode="&#x192;" horiz-adv-x="500" 
d="M355 642q-29 0 -42.5 -12t-18.5 -42l-11 -58h172v-72h-184l-92 -522q-19 -109 -143 -109h-87v72h89q29 0 43 11.5t19 41.5l89 506h-149v72h161l14 75q19 109 142 109h108v-72h-110z" />
    <glyph glyph-name="uni01CD" unicode="&#x1cd;" horiz-adv-x="731" 
d="M418 750h-105l-76 81l43 40l86 -91l85 91l43 -40zM634 0l-65 147h-406l-65 -147h-93l315 700h91l315 -700h-92zM195 222h342l-170 386h-2z" />
    <glyph glyph-name="uni01CE" unicode="&#x1ce;" horiz-adv-x="580" 
d="M351 595h-105l-76 81l43 40l86 -91l85 91l43 -40zM299 545q101 0 161 -47t60 -126v-372h-79v67h-2q-27 -37 -80.5 -59.5t-116.5 -22.5q-92 0 -144 42t-52 115q0 70 53.5 108t180.5 58q85 14 118.5 32t33.5 49q0 38 -36 61t-97 23q-69 0 -114 -33.5t-57 -93.5l-79 17
q15 83 82.5 132.5t167.5 49.5zM438 185v114h-2q-11 -20 -43 -33t-98 -24q-89 -15 -127.5 -38t-38.5 -62q0 -84 130 -84q71 0 125 38.5t54 88.5z" />
    <glyph glyph-name="uni01CF" unicode="&#x1cf;" horiz-adv-x="258" 
d="M214 871l43 -40l-76 -81h-105l-76 81l43 40l86 -91zM86 0v700h86v-700h-86z" />
    <glyph glyph-name="uni01D0" unicode="&#x1d0;" horiz-adv-x="213" 
d="M191 701l43 -40l-76 -81h-105l-76 81l43 40l86 -91zM66 0v530h82v-530h-82z" />
    <glyph glyph-name="uni01D1" unicode="&#x1d1;" horiz-adv-x="812" 
d="M458 765h-105l-76 81l43 40l86 -91l85 91l43 -40zM406 715q160 0 260 -103t100 -262t-100 -262t-260 -103q-159 0 -260 103t-101 262t101 262t260 103zM406 64q121 0 196.5 78.5t75.5 207.5t-75.5 207.5t-196.5 78.5t-196.5 -78.5t-75.5 -207.5t75.5 -207.5t196.5 -78.5z
" />
    <glyph glyph-name="uni01D2" unicode="&#x1d2;" horiz-adv-x="668" 
d="M386 595h-105l-76 81l43 40l86 -91l85 91l43 -40zM334 545q125 0 207 -79.5t82 -200.5t-82 -200.5t-207 -79.5t-206.5 79t-81.5 201q0 121 81.5 200.5t206.5 79.5zM334 57q91 0 149 57t58 151t-58 151t-149 57q-90 0 -148 -57.5t-58 -150.5t58 -150.5t148 -57.5z" />
    <glyph glyph-name="uni01D3" unicode="&#x1d3;" horiz-adv-x="761" 
d="M432 750h-105l-76 81l43 40l86 -91l85 91l43 -40zM594 700h86v-434q0 -281 -300 -281q-299 0 -299 281v434h86v-430q0 -109 52 -157.5t161 -48.5q110 0 162 48.5t52 157.5v430z" />
    <glyph glyph-name="uni01D4" unicode="&#x1d4;" horiz-adv-x="632" 
d="M364 580h-105l-76 81l43 40l86 -91l85 91l43 -40zM484 530h82v-530h-80v66h-2q-64 -81 -196 -81q-106 0 -169 62t-63 167v316h82v-300q0 -82 44 -127.5t125 -45.5q77 0 127 49t50 125v299z" />
    <glyph glyph-name="uni01D5" unicode="&#x1d5;" horiz-adv-x="761" 
d="M231 883v63h298v-63h-298zM237 750v93h95v-93h-95zM427 750v93h95v-93h-95zM380 -15q-299 0 -299 281v434h86v-430q0 -109 52 -157.5t161 -48.5q110 0 162 48.5t52 157.5v430h86v-434q0 -281 -300 -281z" />
    <glyph glyph-name="uni01D6" unicode="&#x1d6;" horiz-adv-x="632" 
d="M163 713v63h298v-63h-298zM169 580v93h95v-93h-95zM359 580v93h95v-93h-95zM288 -15q-106 0 -169 62t-63 167v316h82v-300q0 -82 44 -127.5t125 -45.5q77 0 127 49t50 125v299h82v-530h-80v66h-2q-64 -81 -196 -81z" />
    <glyph glyph-name="uni01D7" unicode="&#x1d7;" horiz-adv-x="761" 
d="M330 883l84 116h103l-117 -116h-70zM237 750v93h95v-93h-95zM427 750v93h95v-93h-95zM380 -15q-299 0 -299 281v434h86v-430q0 -109 52 -157.5t161 -48.5q110 0 162 48.5t52 157.5v430h86v-434q0 -281 -300 -281z" />
    <glyph glyph-name="uni01D8" unicode="&#x1d8;" horiz-adv-x="632" 
d="M262 713l84 116h103l-117 -116h-70zM169 580v93h95v-93h-95zM359 580v93h95v-93h-95zM288 -15q-106 0 -169 62t-63 167v316h82v-300q0 -82 44 -127.5t125 -45.5q77 0 127 49t50 125v299h82v-530h-80v66h-2q-64 -81 -196 -81z" />
    <glyph glyph-name="uni01D9" unicode="&#x1d9;" horiz-adv-x="761" 
d="M432 873h-105l-76 81l43 40l86 -91l85 91l43 -40zM332 843v-93h-95v93h95zM427 750v93h95v-93h-95zM594 700h86v-434q0 -281 -300 -281q-299 0 -299 281v434h86v-430q0 -109 52 -157.5t161 -48.5q110 0 162 48.5t52 157.5v430z" />
    <glyph glyph-name="uni01DA" unicode="&#x1da;" horiz-adv-x="632" 
d="M364 703h-105l-76 81l43 40l86 -91l85 91l43 -40zM264 673v-93h-95v93h95zM359 580v93h95v-93h-95zM484 530h82v-530h-80v66h-2q-64 -81 -196 -81q-106 0 -169 62t-63 167v316h82v-300q0 -82 44 -127.5t125 -45.5q77 0 127 49t50 125v299z" />
    <glyph glyph-name="uni01DB" unicode="&#x1db;" horiz-adv-x="761" 
d="M360 883l-117 116h103l84 -116h-70zM237 750v93h95v-93h-95zM427 750v93h95v-93h-95zM380 -15q-299 0 -299 281v434h86v-430q0 -109 52 -157.5t161 -48.5q110 0 162 48.5t52 157.5v430h86v-434q0 -281 -300 -281z" />
    <glyph glyph-name="uni01DC" unicode="&#x1dc;" horiz-adv-x="632" 
d="M292 713l-117 116h103l84 -116h-70zM169 580v93h95v-93h-95zM359 580v93h95v-93h-95zM288 -15q-106 0 -169 62t-63 167v316h82v-300q0 -82 44 -127.5t125 -45.5q77 0 127 49t50 125v299h82v-530h-80v66h-2q-64 -81 -196 -81z" />
    <glyph glyph-name="uni01DE" unicode="&#x1de;" horiz-adv-x="731" 
d="M515 946v-63h-298v63h298zM318 750h-95v93h95v-93zM508 750h-95v93h95v-93zM634 0l-65 147h-406l-65 -147h-93l315 700h91l315 -700h-92zM195 222h342l-170 386h-2z" />
    <glyph glyph-name="uni01DF" unicode="&#x1df;" horiz-adv-x="580" 
d="M150 728v63h298v-63h-298zM156 595v93h95v-93h-95zM346 595v93h95v-93h-95zM242 -15q-92 0 -144 42t-52 115q0 70 53.5 108t180.5 58q85 14 118.5 32t33.5 49q0 38 -36 61t-97 23q-69 0 -114 -33.5t-57 -93.5l-79 17q15 83 82.5 132.5t167.5 49.5q101 0 161 -47t60 -126
v-372h-79v67h-2q-27 -37 -80.5 -59.5t-116.5 -22.5zM259 58q71 0 125 38.5t54 88.5v114h-2q-11 -20 -43 -33t-98 -24q-89 -15 -127.5 -38t-38.5 -62q0 -84 130 -84z" />
    <glyph glyph-name="Aringacute" unicode="&#x1fa;" horiz-adv-x="731" 
d="M634 0l-65 147h-406l-65 -147h-93l300 667q-61 30 -61 99q0 36 19.5 63.5t52.5 40.5l83 115h103l-109 -108q42 -8 68.5 -38.5t26.5 -72.5q0 -69 -62 -100l300 -666h-92zM366 831q-29 0 -47.5 -18t-18.5 -47t18.5 -47.5t47.5 -18.5t47 18.5t18 47.5q0 28 -18.5 46.5
t-46.5 18.5zM195 222h342l-170 386h-2z" />
    <glyph glyph-name="aringacute" unicode="&#x1fb;" horiz-adv-x="581" 
d="M289 579q-48 0 -79 28.5t-31 73.5q0 33 18.5 59t50.5 37l78 107h103l-106 -105q34 -10 55 -36.5t21 -61.5q0 -45 -31 -73.5t-79 -28.5zM289 740q-26 0 -42.5 -16.5t-16.5 -42.5t16.5 -43t42.5 -17t42.5 17t16.5 43q0 25 -17 42t-42 17zM299 545q101 0 161 -47t60 -126
v-372h-79v67h-2q-27 -37 -80.5 -59.5t-116.5 -22.5q-92 0 -144 42t-52 115q0 70 53.5 108t180.5 58q85 14 118.5 32t33.5 49q0 38 -36 61t-97 23q-69 0 -114 -33.5t-57 -93.5l-79 17q15 83 82.5 132.5t167.5 49.5zM438 185v114h-2q-11 -20 -43 -33t-98 -24
q-89 -15 -127.5 -38t-38.5 -62q0 -84 130 -84q71 0 125 38.5t54 88.5z" />
    <glyph glyph-name="AEacute" unicode="&#x1fc;" horiz-adv-x="986" 
d="M635 876l-117 -116h-70l84 116h103zM930 621h-337v-222h305v-75h-305v-245h337v-79h-424v153h-330l-74 -153h-97l344 700h581v-79zM212 228h294v393h-104z" />
    <glyph glyph-name="aeacute" unicode="&#x1fd;" horiz-adv-x="1019" 
d="M647 706l-117 -116h-70l84 116h103zM973 266v-30h-464q2 -81 56 -132.5t140 -51.5q123 0 188 116l64 -42q-83 -141 -252 -141q-76 0 -135.5 30t-94.5 84q-29 -51 -93 -82.5t-144 -31.5q-88 0 -138.5 42t-50.5 115q0 59 39 95t94.5 49.5t111.5 23t95 28t39 51.5
q0 40 -37 64.5t-100 24.5q-70 0 -116 -35t-53 -94l-76 9q8 84 76 135.5t169 51.5q147 0 198 -95q73 95 210 95q119 0 196.5 -79t77.5 -200zM509 300h383q-5 77 -60 127.5t-133 50.5q-80 0 -133 -49.5t-57 -128.5zM433 185v118h-2q-13 -26 -64 -41.5t-103 -22.5t-94 -31
t-42 -66q0 -47 31.5 -68t97.5 -21q71 0 123.5 40t52.5 92z" />
    <glyph glyph-name="Oslashacute" unicode="&#x1fe;" horiz-adv-x="812" 
d="M543 891l-117 -116h-70l84 116h103zM669 609q97 -102 97 -259q0 -159 -100 -262t-260 -103q-127 0 -220 68l-47 -54l-45 37l48 56q-97 102 -97 258q0 159 101 262t260 103q127 0 219 -68l47 54l44 -38zM131 350q0 -118 65 -197l377 434q-69 52 -167 52
q-122 0 -198.5 -79.5t-76.5 -209.5zM406 61q123 0 199 79.5t76 209.5q0 119 -65 197l-378 -434q71 -52 168 -52z" />
    <glyph glyph-name="oslashacute" unicode="&#x1ff;" horiz-adv-x="668" 
d="M471 721l-117 -116h-70l84 116h103zM555 450q68 -76 68 -185q0 -121 -82 -200.5t-207 -79.5q-108 0 -185 61l-46 -46l-34 34l45 45q-68 76 -68 186q0 121 81.5 200.5t206.5 79.5q107 0 186 -61l47 46l34 -34zM124 265q0 -80 42 -134l304 302q-57 44 -136 44
q-92 0 -151 -58t-59 -154zM334 53q93 0 152 58t59 154q0 80 -42 134l-303 -303q55 -43 134 -43z" />
    <glyph glyph-name="Scommaaccent" unicode="&#x218;" horiz-adv-x="671" 
d="M363 -15q-143 0 -229 68.5t-99 192.5l85 13q27 -197 244 -197q85 0 135 32.5t50 88.5t-49.5 87.5t-176.5 57.5q-149 30 -209 73.5t-60 120.5q0 86 71.5 139.5t185.5 53.5q115 0 195 -60t97 -158l-85 -17q-14 75 -69 116.5t-139 41.5q-76 0 -123 -31.5t-47 -82.5
q0 -44 43.5 -69.5t160.5 -49.5q160 -33 226 -82.5t66 -137.5q0 -91 -74.5 -145.5t-198.5 -54.5zM315 -253v38q40 7 40 52h-45v97h105v-84q0 -97 -100 -103z" />
    <glyph glyph-name="scommaaccent" unicode="&#x219;" horiz-adv-x="597" 
d="M318 -15q-116 0 -193 53.5t-89 142.5l76 17q26 -143 206 -143q76 0 119.5 22.5t43.5 62.5q0 39 -39.5 60.5t-135.5 34.5q-139 19 -194.5 54t-55.5 101q0 70 62 112.5t163 42.5q97 0 169 -49t86 -123l-76 -15q-15 54 -63 85.5t-116 31.5q-65 0 -105.5 -22.5t-40.5 -59.5
q0 -35 36.5 -54t136.5 -33q139 -20 196 -58t57 -107q0 -71 -66.5 -113.5t-176.5 -42.5zM272 -253v38q40 7 40 52h-45v97h105v-84q0 -97 -100 -103z" />
    <glyph glyph-name="uni021A" unicode="&#x21a;" horiz-adv-x="684" 
d="M299 0v621h-264v79h614v-79h-264v-621h-86zM294 -238v38q40 7 40 52h-45v97h105v-84q0 -97 -100 -103z" />
    <glyph glyph-name="uni021B" unicode="&#x21b;" horiz-adv-x="416" 
d="M387 461h-170v-340q0 -27 13 -38t45 -11h83v-72h-84q-74 0 -106.5 28.5t-32.5 93.5v339h-115v69h115v119h82v-119h170v-69zM180 -148v97h105v-84q0 -97 -100 -103v38q40 7 40 52h-45z" />
    <glyph glyph-name="uni0228" unicode="&#x228;" horiz-adv-x="645" 
d="M589 621h-417v-222h385v-75h-385v-245h417v-79h-225l-30 -46q18 6 38 6q46 0 73 -24.5t27 -62.5q0 -41 -31 -66.5t-81 -25.5q-60 0 -110 39l34 45q37 -32 76 -32q25 0 40 11.5t15 30.5q0 39 -53 39q-32 0 -62 -25l-45 20l54 91h-223v700h503v-79z" />
    <glyph glyph-name="uni0229" unicode="&#x229;" horiz-adv-x="649" 
d="M604 266v-30h-475q1 -79 58.5 -130t141.5 -51q127 0 194 113l65 -43q-76 -128 -232 -139l-31 -47q18 6 38 6q46 0 73 -24.5t27 -62.5q0 -41 -31 -66.5t-81 -25.5q-60 0 -110 39l34 45q37 -32 76 -32q25 0 40 11.5t15 30.5q0 39 -53 39q-32 0 -62 -25l-45 20l55 92
q-116 8 -185.5 82.5t-69.5 193.5q0 127 78.5 205t203.5 78q119 0 197.5 -78.5t78.5 -200.5zM130 302h390q-5 73 -60.5 123t-131.5 50q-82 0 -137.5 -49.5t-60.5 -123.5z" />
    <glyph glyph-name="uni0237" unicode="&#x237;" horiz-adv-x="222" 
d="M-55 -173v72h72q58 0 58 54v577h82v-582q0 -59 -36 -90t-98 -31h-78z" />
    <glyph glyph-name="uni0258" unicode="&#x258;" horiz-adv-x="649" 
d="M320 -15q-175 0 -259 140l65 43q67 -113 194 -113q84 0 141.5 51t58.5 130h-475v30q0 122 78.5 200.5t197.5 78.5q125 0 203.5 -78t78.5 -205q0 -126 -77.5 -201.5t-205.5 -75.5zM519 302q-5 74 -60.5 123.5t-137.5 49.5q-76 0 -131.5 -50t-60.5 -123h390z" />
    <glyph glyph-name="uni0259" unicode="&#x259;" horiz-adv-x="649" 
d="M321 -15q-119 0 -197 78.5t-78 200.5v30h475q-1 79 -59 130t-142 51q-126 0 -194 -114l-64 42q87 142 258 142q128 0 206 -75.5t78 -201.5t-79 -204.5t-204 -78.5zM321 55q82 0 137.5 49.5t60.5 123.5h-390q5 -73 60.5 -123t131.5 -50z" />
    <glyph glyph-name="circumflex" unicode="&#x2c6;" horiz-adv-x="379" 
d="M318 610l-43 -40l-85 92l-86 -92l-43 40l76 81h105z" />
    <glyph glyph-name="caron" unicode="&#x2c7;" horiz-adv-x="379" 
d="M275 701l43 -40l-76 -81h-105l-76 81l43 40l86 -91z" />
    <glyph glyph-name="breve" unicode="&#x2d8;" horiz-adv-x="386" 
d="M202 580q-62 0 -99.5 32t-41.5 89h48q14 -57 93 -57q81 0 93 57h50q-4 -57 -42.5 -89t-100.5 -32z" />
    <glyph glyph-name="dotaccent" unicode="&#x2d9;" horiz-adv-x="216" 
d="M61 590v92h94v-92h-94z" />
    <glyph glyph-name="ring" unicode="&#x2da;" horiz-adv-x="366" 
d="M183 483q-53 0 -87.5 32t-34.5 81t34.5 81t87.5 32t87.5 -32t34.5 -81t-34.5 -81t-87.5 -32zM183 530q29 0 47 18.5t18 47.5q0 28 -18 46.5t-47 18.5t-47.5 -18t-18.5 -47t18.5 -47.5t47.5 -18.5z" />
    <glyph glyph-name="ogonek" unicode="&#x2db;" horiz-adv-x="304" 
d="M150 -199q-43 0 -66.5 22t-22.5 62q1 34 28.5 67.5t73.5 59.5l41 -12q-77 -43 -77 -100q0 -34 33 -34q25 0 59 17l24 -61q-45 -21 -93 -21z" />
    <glyph glyph-name="tilde" unicode="&#x2dc;" horiz-adv-x="431" 
d="M297 585q-33 0 -78 19t-66 19q-37 0 -45 -33h-47q4 43 29 67.5t66 24.5q33 0 78.5 -19.5t66.5 -19.5q38 0 45 34h46q-3 -43 -28 -67.5t-67 -24.5z" />
    <glyph glyph-name="hungarumlaut" unicode="&#x2dd;" horiz-adv-x="465" 
d="M61 590l80 116h101l-112 -116h-69zM223 590l81 116h100l-111 -116h-70z" />
    <glyph glyph-name="gravecomb" unicode="&#x300;" horiz-adv-x="0" 
d="M-70 590l-117 116h103l84 -116h-70z" />
    <glyph glyph-name="acutecomb" unicode="&#x301;" horiz-adv-x="0" 
d="M-187 590l84 116h103l-117 -116h-70z" />
    <glyph glyph-name="uni0302" unicode="&#x302;" horiz-adv-x="0" 
d="M0 610l-43 -40l-85 92l-86 -92l-43 40l76 81h105z" />
    <glyph glyph-name="tildecomb" unicode="&#x303;" horiz-adv-x="0" 
d="M-95 585q-33 0 -78 19t-66 19q-37 0 -45 -33h-47q4 43 29 67.5t66 24.5q33 0 78.5 -19.5t66.5 -19.5q38 0 45 34h46q-3 -43 -28 -67.5t-67 -24.5z" />
    <glyph glyph-name="uni0304" unicode="&#x304;" horiz-adv-x="0" 
d="M-298 590v63h298v-63h-298z" />
    <glyph glyph-name="uni0306" unicode="&#x306;" horiz-adv-x="0" 
d="M-143 580q-62 0 -99.5 32t-41.5 89h48q14 -57 93 -57q81 0 93 57h50q-4 -57 -42.5 -89t-100.5 -32z" />
    <glyph glyph-name="uni0307" unicode="&#x307;" horiz-adv-x="0" 
d="M-94 590v92h94v-92h-94z" />
    <glyph glyph-name="uni0308" unicode="&#x308;" horiz-adv-x="0" 
d="M-285 580v93h95v-93h-95zM-95 580v93h95v-93h-95z" />
    <glyph glyph-name="uni030A" unicode="&#x30a;" horiz-adv-x="0" 
d="M-122 483q-53 0 -87.5 32t-34.5 81t34.5 81t87.5 32t87.5 -32t34.5 -81t-34.5 -81t-87.5 -32zM-122 530q29 0 47 18.5t18 47.5q0 28 -18.5 46.5t-46.5 18.5q-29 0 -47.5 -18t-18.5 -47t18.5 -47.5t47.5 -18.5z" />
    <glyph glyph-name="uni030B" unicode="&#x30b;" horiz-adv-x="0" 
d="M-343 590l80 116h101l-112 -116h-69zM-181 590l81 116h100l-111 -116h-70z" />
    <glyph glyph-name="uni030C" unicode="&#x30c;" horiz-adv-x="0" 
d="M-43 701l43 -40l-76 -81h-105l-76 81l43 40l86 -91z" />
    <glyph glyph-name="uni0312" unicode="&#x312;" horiz-adv-x="0" 
d="M-4 775v-38q-43 -7 -43 -51h47v-95h-109v82q0 94 105 102z" />
    <glyph glyph-name="dotbelowcomb" unicode="&#x323;" horiz-adv-x="0" 
d="M-94 -142v92h94v-92h-94z" />
    <glyph glyph-name="uni0326" unicode="&#x326;" horiz-adv-x="0" 
d="M-101 -238v38q40 7 40 52h-45v97h105v-84q0 -97 -100 -103z" />
    <glyph glyph-name="uni0327" unicode="&#x327;" horiz-adv-x="0" 
d="M-100 -40q46 0 73 -24.5t27 -62.5q0 -41 -31 -66.5t-81 -25.5q-60 0 -110 39l34 45q37 -32 76 -32q25 0 40 11.5t15 30.5q0 39 -53 39q-32 0 -62 -25l-45 20l72 121l45 -18l-38 -58q18 6 38 6z" />
    <glyph glyph-name="uni0328" unicode="&#x328;" horiz-adv-x="0" 
d="M-93 -199q-43 0 -66.5 22t-22.5 62q1 34 28.5 67.5t73.5 59.5l41 -12q-77 -43 -77 -100q0 -34 33 -34q25 0 59 17l24 -61q-45 -21 -93 -21z" />
    <glyph glyph-name="uni0335" unicode="&#x335;" horiz-adv-x="0" 
d="M-402 323v70h402v-70h-402z" />
    <glyph glyph-name="uni0336" unicode="&#x336;" horiz-adv-x="0" 
d="M-756 323v70h756v-70h-756z" />
    <glyph glyph-name="uni0337" unicode="&#x337;" horiz-adv-x="0" 
d="M-496 0l-34 33l496 497l34 -34z" />
    <glyph glyph-name="uni0338" unicode="&#x338;" horiz-adv-x="0" 
d="M-578 0l-44 37l578 665l44 -38z" />
    <glyph glyph-name="uni0394" unicode="&#x394;" horiz-adv-x="732" 
d="M412 700l315 -700h-722l316 700h91zM132 77h469l-234 531h-2z" />
    <glyph glyph-name="uni03A9" unicode="&#x3a9;" horiz-adv-x="798" 
d="M585 68v-2h154v-66h-298v63q223 66 223 297q0 122 -73.5 199t-191.5 77q-117 0 -191 -77t-74 -199q0 -231 222 -297v-63h-297v66h153v2q-167 92 -167 292q0 154 100 254.5t254 100.5t254 -100.5t100 -254.5q0 -201 -168 -292z" />
    <glyph glyph-name="uni03BC" unicode="&#x3bc;" horiz-adv-x="642" 
d="M495 530h81v-530h-79v66h-2q-64 -81 -193 -81q-98 0 -152 57h-2v-267h-82v755h82v-300q0 -82 44 -127.5t125 -45.5q77 0 127.5 49t50.5 125v299z" />
    <glyph glyph-name="pi" unicode="&#x3c0;" horiz-adv-x="749" 
d="M699 458h-136v-328q0 -33 12.5 -45.5t45.5 -12.5h74v-72h-94q-61 0 -90 29t-29 90v339h-243v-458h-77v458h-142v72h679v-72z" />
    <glyph glyph-name="uni0E3F" unicode="&#xe3f;" horiz-adv-x="734" 
d="M569 373q50 -17 80 -61.5t30 -105.5q0 -101 -63 -153.5t-184 -52.5h-38v-110h-51v110h-247v700h247v101h51v-101h54q93 0 149 -49t56 -131q0 -51 -22.5 -89.5t-61.5 -55.5v-2zM182 621v-217h161v217h-161zM429 621h-35v-217h35q137 0 137 112q0 105 -137 105zM182 79h161
v251h-161v-251zM417 79q91 0 133 30.5t42 96.5t-40 95t-132 29h-26v-251h23z" />
    <glyph glyph-name="uni1E04" unicode="&#x1e04;" horiz-adv-x="715" 
d="M86 0v700h352q93 0 149 -49t56 -131q0 -51 -22 -89.5t-61 -55.5v-2q50 -18 79.5 -62t29.5 -105q0 -101 -63 -153.5t-184 -52.5h-336zM172 404h247q137 0 137 112q0 105 -137 105h-247v-217zM172 79h235q91 0 133 30.5t42 95.5q0 67 -40 96t-132 29h-238v-251zM312 -142
v92h94v-92h-94z" />
    <glyph glyph-name="uni1E05" unicode="&#x1e05;" horiz-adv-x="676" 
d="M346 -15q-131 0 -199 81h-2v-66h-79v730h82v-267h2q69 82 201 82q120 0 199.5 -80t79.5 -200q0 -123 -80 -201.5t-204 -78.5zM341 57q95 0 151 56.5t56 151.5q0 94 -55.5 151t-146.5 57q-84 0 -141 -48.5t-57 -119.5v-80q0 -70 56 -119t137 -49zM303 -157v92h94v-92h-94z
" />
    <glyph glyph-name="uni1E0C" unicode="&#x1e0c;" horiz-adv-x="749" 
d="M86 0v700h272q164 0 255 -90t91 -260q0 -175 -90 -262.5t-258 -87.5h-270zM172 79h181q131 0 196.5 66t65.5 205q0 271 -260 271h-183v-542zM325 -142v92h94v-92h-94z" />
    <glyph glyph-name="uni1E0D" unicode="&#x1e0d;" horiz-adv-x="676" 
d="M330 -15q-124 0 -204 78.5t-80 201.5q0 120 79.5 200t199.5 80q132 0 201 -82h2v267h82v-730h-79v66h-2q-68 -81 -199 -81zM335 57q81 0 137 49t56 119v80q0 71 -57 119.5t-141 48.5q-91 0 -146.5 -57t-55.5 -151q0 -95 56 -151.5t151 -56.5zM286 -142v92h94v-92h-94z
" />
    <glyph glyph-name="uni1E24" unicode="&#x1e24;" horiz-adv-x="765" 
d="M86 0v700h86v-303h421v303h87v-700h-87v320h-421v-320h-86zM335 -142v92h94v-92h-94z" />
    <glyph glyph-name="uni1E25" unicode="&#x1e25;" horiz-adv-x="650" 
d="M66 0v730h82v-266h2q65 81 188 81q112 0 181.5 -62.5t69.5 -163.5v-319h-82v303q0 79 -46.5 124.5t-127.5 45.5t-133 -49t-52 -125v-299h-82zM281 -142v92h94v-92h-94z" />
    <glyph glyph-name="uni1E36" unicode="&#x1e36;" horiz-adv-x="597" 
d="M86 0v700h86v-621h390v-79h-476zM277 -142v92h94v-92h-94z" />
    <glyph glyph-name="uni1E37" unicode="&#x1e37;" horiz-adv-x="213" 
d="M66 0v730h82v-730h-82zM59 -142v92h94v-92h-94z" />
    <glyph glyph-name="uni1E44" unicode="&#x1e44;" horiz-adv-x="775" 
d="M341 760v92h94v-92h-94zM86 0v700h94l421 -578h2v578h87v-700h-95l-421 578h-2v-578h-86z" />
    <glyph glyph-name="uni1E45" unicode="&#x1e45;" horiz-adv-x="650" 
d="M290 605v92h94v-92h-94zM66 0v530h80v-66h2q30 38 81 59.5t109 21.5q112 0 181.5 -62.5t69.5 -163.5v-319h-82v303q0 79 -45.5 124.5t-123.5 45.5q-84 0 -137 -48.5t-53 -125.5v-299h-82z" />
    <glyph glyph-name="uni1E46" unicode="&#x1e46;" horiz-adv-x="775" 
d="M86 0v700h94l421 -578h2v578h87v-700h-95l-421 578h-2v-578h-86zM352 -142v92h94v-92h-94z" />
    <glyph glyph-name="uni1E47" unicode="&#x1e47;" horiz-adv-x="650" 
d="M66 0v530h80v-66h2q30 38 81 59.5t109 21.5q112 0 181.5 -62.5t69.5 -163.5v-319h-82v303q0 79 -45.5 124.5t-123.5 45.5q-84 0 -137 -48.5t-53 -125.5v-299h-82zM281 -142v92h94v-92h-94z" />
    <glyph glyph-name="uni1E4C" unicode="&#x1e4c;" horiz-adv-x="812" 
d="M356 897l84 116h103l-117 -116h-70zM477 770q-33 0 -78 19t-66 19q-37 0 -45 -33h-47q4 43 29 67.5t66 24.5q33 0 78.5 -19.5t66.5 -19.5q38 0 45 34h46q-3 -43 -28 -67.5t-67 -24.5zM406 -15q-159 0 -260 103t-101 262t101 262t260 103q160 0 260 -103t100 -262
t-100 -262t-260 -103zM406 64q121 0 196.5 78.5t75.5 207.5t-75.5 207.5t-196.5 78.5t-196.5 -78.5t-75.5 -207.5t75.5 -207.5t196.5 -78.5z" />
    <glyph glyph-name="uni1E4D" unicode="&#x1e4d;" horiz-adv-x="668" 
d="M284 727l84 116h103l-117 -116h-70zM405 600q-33 0 -78 19t-66 19q-37 0 -45 -33h-47q4 43 29 67.5t66 24.5q33 0 78.5 -19.5t66.5 -19.5q38 0 45 34h46q-3 -43 -28 -67.5t-67 -24.5zM334 -15q-125 0 -206.5 79t-81.5 201q0 121 81.5 200.5t206.5 79.5t207 -79.5
t82 -200.5t-82 -200.5t-207 -79.5zM334 57q91 0 149 57t58 151t-58 151t-149 57q-90 0 -148 -57.5t-58 -150.5t58 -150.5t148 -57.5z" />
    <glyph glyph-name="uni1E62" unicode="&#x1e62;" horiz-adv-x="671" 
d="M363 -15q-143 0 -229 68.5t-99 192.5l85 13q27 -197 244 -197q85 0 135 32.5t50 88.5t-49.5 87.5t-176.5 57.5q-149 30 -209 73.5t-60 120.5q0 86 71.5 139.5t185.5 53.5q115 0 195 -60t97 -158l-85 -17q-14 75 -69 116.5t-139 41.5q-76 0 -123 -31.5t-47 -82.5
q0 -44 43.5 -69.5t160.5 -49.5q160 -33 226 -82.5t66 -137.5q0 -91 -74.5 -145.5t-198.5 -54.5zM316 -157v92h94v-92h-94z" />
    <glyph glyph-name="uni1E63" unicode="&#x1e63;" horiz-adv-x="597" 
d="M318 -15q-116 0 -193 53.5t-89 142.5l76 17q26 -143 206 -143q76 0 119.5 22.5t43.5 62.5q0 39 -39.5 60.5t-135.5 34.5q-139 19 -194.5 54t-55.5 101q0 70 62 112.5t163 42.5q97 0 169 -49t86 -123l-76 -15q-15 54 -63 85.5t-116 31.5q-65 0 -105.5 -22.5t-40.5 -59.5
q0 -35 36.5 -54t136.5 -33q139 -20 196 -58t57 -107q0 -71 -66.5 -113.5t-176.5 -42.5zM273 -157v92h94v-92h-94z" />
    <glyph glyph-name="uni1E6C" unicode="&#x1e6c;" horiz-adv-x="684" 
d="M299 0v621h-264v79h614v-79h-264v-621h-86zM295 -142v92h94v-92h-94z" />
    <glyph glyph-name="uni1E6D" unicode="&#x1e6d;" horiz-adv-x="416" 
d="M387 461h-170v-340q0 -27 13 -38t45 -11h83v-72h-84q-74 0 -106.5 28.5t-32.5 93.5v339h-115v69h115v119h82v-119h170v-69zM186 -142v92h94v-92h-94z" />
    <glyph glyph-name="Wgrave" unicode="&#x1e80;" horiz-adv-x="1019" 
d="M490 760l-117 116h103l84 -116h-70zM181 0l-161 700h90l134 -580h2l221 580h85l222 -580h2l133 580h90l-160 -700h-105l-223 575h-2l-225 -575h-103z" />
    <glyph glyph-name="wgrave" unicode="&#x1e81;" horiz-adv-x="889" 
d="M425 590l-117 116h103l84 -116h-70zM184 0l-159 530h82l122 -415h2l174 415h79l174 -415h2l122 415h82l-158 -530h-74l-186 444h-2l-187 -444h-73z" />
    <glyph glyph-name="Wacute" unicode="&#x1e82;" horiz-adv-x="1019" 
d="M460 760l84 116h103l-117 -116h-70zM181 0l-161 700h90l134 -580h2l221 580h85l222 -580h2l133 580h90l-160 -700h-105l-223 575h-2l-225 -575h-103z" />
    <glyph glyph-name="wacute" unicode="&#x1e83;" horiz-adv-x="889" 
d="M395 590l84 116h103l-117 -116h-70zM184 0l-159 530h82l122 -415h2l174 415h79l174 -415h2l122 415h82l-158 -530h-74l-186 444h-2l-187 -444h-73z" />
    <glyph glyph-name="Wdieresis" unicode="&#x1e84;" horiz-adv-x="1019" 
d="M367 750v93h95v-93h-95zM557 750v93h95v-93h-95zM181 0l-161 700h90l134 -580h2l221 580h85l222 -580h2l133 580h90l-160 -700h-105l-223 575h-2l-225 -575h-103z" />
    <glyph glyph-name="wdieresis" unicode="&#x1e85;" horiz-adv-x="889" 
d="M302 580v93h95v-93h-95zM492 580v93h95v-93h-95zM184 0l-159 530h82l122 -415h2l174 415h79l174 -415h2l122 415h82l-158 -530h-74l-186 444h-2l-187 -444h-73z" />
    <glyph glyph-name="uni1E92" unicode="&#x1e92;" horiz-adv-x="715" 
d="M45 0v70l511 549v2h-485v79h599v-70l-511 -549v-2h495v-79h-609zM311 -142v92h94v-92h-94z" />
    <glyph glyph-name="uni1E93" unicode="&#x1e93;" horiz-adv-x="593" 
d="M30 0v65l413 394v2h-396v69h513v-65l-414 -394v-2h416v-69h-532zM248 -142v92h94v-92h-94z" />
    <glyph glyph-name="uni1EA0" unicode="&#x1ea0;" horiz-adv-x="731" 
d="M726 0h-92l-65 147h-406l-65 -147h-93l315 700h91zM195 222h342l-170 386h-2zM319 -142v92h94v-92h-94z" />
    <glyph glyph-name="uni1EA1" unicode="&#x1ea1;" horiz-adv-x="580" 
d="M242 -15q-92 0 -144 42t-52 115q0 70 53.5 108t180.5 58q85 14 118.5 32t33.5 49q0 38 -36 61t-97 23q-69 0 -114 -33.5t-57 -93.5l-79 17q15 83 82.5 132.5t167.5 49.5q101 0 161 -47t60 -126v-372h-79v67h-2q-27 -37 -80.5 -59.5t-116.5 -22.5zM259 58q71 0 125 38.5
t54 88.5v114h-2q-11 -20 -43 -33t-98 -24q-89 -15 -127.5 -38t-38.5 -62q0 -84 130 -84zM244 -157v92h94v-92h-94z" />
    <glyph glyph-name="uni1EAC" unicode="&#x1eac;" horiz-adv-x="731" 
d="M366 832l-86 -92l-43 40l76 81h105l76 -81l-43 -40zM726 0h-92l-65 147h-406l-65 -147h-93l315 700h91zM195 222h342l-170 386h-2zM319 -142v92h94v-92h-94z" />
    <glyph glyph-name="uni1EAD" unicode="&#x1ead;" horiz-adv-x="580" 
d="M299 677l-86 -92l-43 40l76 81h105l76 -81l-43 -40zM299 545q101 0 161 -47t60 -126v-372h-79v67h-2q-27 -37 -80.5 -59.5t-116.5 -22.5q-92 0 -144 42t-52 115q0 70 53.5 108t180.5 58q85 14 118.5 32t33.5 49q0 38 -36 61t-97 23q-69 0 -114 -33.5t-57 -93.5l-79 17
q15 83 82.5 132.5t167.5 49.5zM438 185v114h-2q-11 -20 -43 -33t-98 -24q-89 -15 -127.5 -38t-38.5 -62q0 -84 130 -84q71 0 125 38.5t54 88.5zM244 -157v92h94v-92h-94z" />
    <glyph glyph-name="uni1EB8" unicode="&#x1eb8;" horiz-adv-x="645" 
d="M86 0v700h503v-79h-417v-222h385v-75h-385v-245h417v-79h-503zM291 -142v92h94v-92h-94z" />
    <glyph glyph-name="uni1EB9" unicode="&#x1eb9;" horiz-adv-x="649" 
d="M329 -15q-128 0 -205.5 75.5t-77.5 201.5q0 127 78.5 205t203.5 78q119 0 197.5 -78.5t78.5 -200.5v-30h-475q1 -79 58.5 -130t141.5 -51q127 0 194 113l65 -43q-84 -140 -259 -140zM130 302h390q-5 73 -60.5 123t-131.5 50q-82 0 -137.5 -49.5t-60.5 -123.5zM282 -157
v92h94v-92h-94z" />
    <glyph glyph-name="uni1EBC" unicode="&#x1ebc;" horiz-adv-x="645" 
d="M417 755q-33 0 -78 19t-66 19q-37 0 -45 -33h-47q4 43 29 67.5t66 24.5q33 0 78.5 -19.5t66.5 -19.5q38 0 45 34h46q-3 -43 -28 -67.5t-67 -24.5zM86 0v700h503v-79h-417v-222h385v-75h-385v-245h417v-79h-503z" />
    <glyph glyph-name="uni1EBD" unicode="&#x1ebd;" horiz-adv-x="649" 
d="M399 600q-33 0 -78 19t-66 19q-37 0 -45 -33h-47q4 43 29 67.5t66 24.5q33 0 78.5 -19.5t66.5 -19.5q38 0 45 34h46q-3 -43 -28 -67.5t-67 -24.5zM329 -15q-128 0 -205.5 75.5t-77.5 201.5q0 127 78.5 205t203.5 78q119 0 197.5 -78.5t78.5 -200.5v-30h-475
q1 -79 58.5 -130t141.5 -51q127 0 194 113l65 -43q-84 -140 -259 -140zM130 302h390q-5 73 -60.5 123t-131.5 50q-82 0 -137.5 -49.5t-60.5 -123.5z" />
    <glyph glyph-name="uni1EC6" unicode="&#x1ec6;" horiz-adv-x="645" 
d="M346 832l-86 -92l-43 40l76 81h105l76 -81l-43 -40zM589 621h-417v-222h385v-75h-385v-245h417v-79h-503v700h503v-79zM291 -142v92h94v-92h-94z" />
    <glyph glyph-name="uni1EC7" unicode="&#x1ec7;" horiz-adv-x="649" 
d="M328 677l-86 -92l-43 40l76 81h105l76 -81l-43 -40zM604 266v-30h-475q1 -79 58.5 -130t141.5 -51q127 0 194 113l65 -43q-84 -140 -259 -140q-128 0 -205.5 75.5t-77.5 201.5q0 127 78.5 205t203.5 78q119 0 197.5 -78.5t78.5 -200.5zM130 302h390q-5 73 -60.5 123
t-131.5 50q-82 0 -137.5 -49.5t-60.5 -123.5zM282 -157v92h94v-92h-94z" />
    <glyph glyph-name="uni1ECA" unicode="&#x1eca;" horiz-adv-x="258" 
d="M86 0v700h86v-700h-86zM82 -142v92h94v-92h-94z" />
    <glyph glyph-name="uni1ECB" unicode="&#x1ecb;" horiz-adv-x="213" 
d="M58 623v91h95v-91h-95zM66 0v530h82v-530h-82zM55 -142v92h94v-92h-94z" />
    <glyph glyph-name="uni1ECC" unicode="&#x1ecc;" horiz-adv-x="812" 
d="M406 -15q-159 0 -260 103t-101 262t101 262t260 103q160 0 260 -103t100 -262t-100 -262t-260 -103zM406 64q121 0 196.5 78.5t75.5 207.5t-75.5 207.5t-196.5 78.5t-196.5 -78.5t-75.5 -207.5t75.5 -207.5t196.5 -78.5zM359 -157v92h94v-92h-94z" />
    <glyph glyph-name="uni1ECD" unicode="&#x1ecd;" horiz-adv-x="668" 
d="M334 -15q-125 0 -206.5 79t-81.5 201q0 121 81.5 200.5t206.5 79.5t207 -79.5t82 -200.5t-82 -200.5t-207 -79.5zM334 57q91 0 149 57t58 151t-58 151t-149 57q-90 0 -148 -57.5t-58 -150.5t58 -150.5t148 -57.5zM287 -157v92h94v-92h-94z" />
    <glyph glyph-name="uni1ED8" unicode="&#x1ed8;" horiz-adv-x="812" 
d="M406 847l-86 -92l-43 40l76 81h105l76 -81l-43 -40zM406 715q160 0 260 -103t100 -262t-100 -262t-260 -103q-159 0 -260 103t-101 262t101 262t260 103zM406 64q121 0 196.5 78.5t75.5 207.5t-75.5 207.5t-196.5 78.5t-196.5 -78.5t-75.5 -207.5t75.5 -207.5
t196.5 -78.5zM359 -157v92h94v-92h-94z" />
    <glyph glyph-name="uni1ED9" unicode="&#x1ed9;" horiz-adv-x="668" 
d="M334 677l-86 -92l-43 40l76 81h105l76 -81l-43 -40zM334 545q125 0 207 -79.5t82 -200.5t-82 -200.5t-207 -79.5t-206.5 79t-81.5 201q0 121 81.5 200.5t206.5 79.5zM334 57q91 0 149 57t58 151t-58 151t-149 57q-90 0 -148 -57.5t-58 -150.5t58 -150.5t148 -57.5z
M287 -157v92h94v-92h-94z" />
    <glyph glyph-name="uni1EE4" unicode="&#x1ee4;" horiz-adv-x="761" 
d="M380 -15q-299 0 -299 281v434h86v-430q0 -109 52 -157.5t161 -48.5q110 0 162 48.5t52 157.5v430h86v-434q0 -281 -300 -281zM333 -157v92h94v-92h-94z" />
    <glyph glyph-name="uni1EE5" unicode="&#x1ee5;" horiz-adv-x="632" 
d="M288 -15q-106 0 -169 62t-63 167v316h82v-300q0 -82 44 -127.5t125 -45.5q77 0 127 49t50 125v299h82v-530h-80v66h-2q-64 -81 -196 -81zM241 -157v92h94v-92h-94z" />
    <glyph glyph-name="Ygrave" unicode="&#x1ef2;" horiz-adv-x="693" 
d="M326 760l-117 116h103l84 -116h-70zM303 0v284l-303 416h104l241 -340h2l241 340h105l-303 -416v-284h-87z" />
    <glyph glyph-name="ygrave" unicode="&#x1ef3;" horiz-adv-x="597" 
d="M279 590l-117 116h103l84 -116h-70zM117 -225l136 271l-243 484h94l194 -398h2l193 398h94l-377 -755h-93z" />
    <glyph glyph-name="uni1EF4" unicode="&#x1ef4;" horiz-adv-x="693" 
d="M303 0v284l-303 416h104l241 -340h2l241 340h105l-303 -416v-284h-87zM299 -142v92h94v-92h-94z" />
    <glyph glyph-name="uni1EF5" unicode="&#x1ef5;" horiz-adv-x="597" 
d="M117 -225l136 271l-243 484h94l194 -398h2l193 398h94l-377 -755h-93zM360 -142v92h94v-92h-94z" />
    <glyph glyph-name="uni1EF8" unicode="&#x1ef8;" horiz-adv-x="693" 
d="M417 755q-33 0 -78 19t-66 19q-37 0 -45 -33h-47q4 43 29 67.5t66 24.5q33 0 78.5 -19.5t66.5 -19.5q38 0 45 34h46q-3 -43 -28 -67.5t-67 -24.5zM303 0v284l-303 416h104l241 -340h2l241 340h105l-303 -416v-284h-87z" />
    <glyph glyph-name="uni1EF9" unicode="&#x1ef9;" horiz-adv-x="597" 
d="M370 585q-33 0 -78 19t-66 19q-38 0 -45 -33h-47q4 43 29 67.5t66 24.5q33 0 78.5 -19.5t66.5 -19.5q38 0 45 34h46q-3 -43 -28 -67.5t-67 -24.5zM117 -225l136 271l-243 484h94l194 -398h2l193 398h94l-377 -755h-93z" />
    <glyph glyph-name="uni2002" unicode="&#x2002;" horiz-adv-x="750" 
 />
    <glyph glyph-name="uni2003" unicode="&#x2003;" horiz-adv-x="1000" 
 />
    <glyph glyph-name="uni2004" unicode="&#x2004;" horiz-adv-x="350" 
 />
    <glyph glyph-name="uni2005" unicode="&#x2005;" horiz-adv-x="250" 
 />
    <glyph glyph-name="uni2007" unicode="&#x2007;" 
 />
    <glyph glyph-name="uni2008" unicode="&#x2008;" horiz-adv-x="303" 
 />
    <glyph glyph-name="uni2009" unicode="&#x2009;" horiz-adv-x="150" 
 />
    <glyph glyph-name="uni200A" unicode="&#x200a;" horiz-adv-x="75" 
 />
    <glyph glyph-name="uni200B" unicode="&#x200b;" horiz-adv-x="0" 
 />
    <glyph glyph-name="endash" unicode="&#x2013;" horiz-adv-x="555" 
d="M51 258v78h453v-78h-453z" />
    <glyph glyph-name="emdash" unicode="&#x2014;" horiz-adv-x="841" 
d="M51 258v78h739v-78h-739z" />
    <glyph glyph-name="quoteleft" unicode="&#x2018;" horiz-adv-x="263" 
d="M187 700v-44q-47 -9 -47 -60h52v-112h-121v97q0 111 116 119z" />
    <glyph glyph-name="quoteright" unicode="&#x2019;" horiz-adv-x="263" 
d="M76 484v44q47 9 47 60h-52v112h121v-97q0 -111 -116 -119z" />
    <glyph glyph-name="quotesinglbase" unicode="&#x201a;" horiz-adv-x="303" 
d="M96 -104v44q47 9 47 60h-52v112h121v-97q0 -111 -116 -119z" />
    <glyph glyph-name="quotedblleft" unicode="&#x201c;" horiz-adv-x="469" 
d="M207 700v-44q-47 -9 -47 -60h52v-112h-121v97q0 111 116 119zM373 700v-44q-47 -9 -47 -60h52v-112h-121v97q0 111 116 119z" />
    <glyph glyph-name="quotedblright" unicode="&#x201d;" horiz-adv-x="469" 
d="M96 484v44q47 9 47 60h-52v112h121v-97q0 -111 -116 -119zM262 484v44q47 9 47 60h-52v112h121v-97q0 -111 -116 -119z" />
    <glyph glyph-name="quotedblbase" unicode="&#x201e;" horiz-adv-x="469" 
d="M96 -104v44q47 9 47 60h-52v112h121v-97q0 -111 -116 -119zM262 -104v44q47 9 47 60h-52v112h121v-97q0 -111 -116 -119z" />
    <glyph glyph-name="dagger" unicode="&#x2020;" horiz-adv-x="622" 
d="M270 -196v649h-219v77h219v230h82v-230h219v-77h-219v-649h-82z" />
    <glyph glyph-name="daggerdbl" unicode="&#x2021;" horiz-adv-x="622" 
d="M270 -196v232h-219v77h219v340h-219v77h219v229h82v-229h219v-77h-219v-340h219v-77h-219v-232h-82z" />
    <glyph glyph-name="bullet" unicode="&#x2022;" horiz-adv-x="357" 
d="M179 292q-40 0 -64 25t-24 64q0 38 24 63t64 25q39 0 63 -25t24 -63q0 -39 -24 -64t-63 -25z" />
    <glyph glyph-name="ellipsis" unicode="&#x2026;" horiz-adv-x="786" 
d="M91 0v118h121v-118h-121zM333 0v118h121v-118h-121zM574 0v118h121v-118h-121z" />
    <glyph glyph-name="perthousand" unicode="&#x2030;" horiz-adv-x="1571" 
d="M354 -71l-67 36l487 810l64 -41zM262 271q-90 0 -145.5 60.5t-55.5 158.5t55.5 158.5t145.5 60.5q91 0 147 -60.5t56 -158.5t-56 -158.5t-147 -60.5zM262 339q58 0 91.5 40.5t33.5 110.5t-33.5 111t-91.5 41q-57 0 -90.5 -41t-33.5 -111t33.5 -110.5t90.5 -40.5zM849 -9
q-90 0 -145.5 60.5t-55.5 158.5t55.5 158.5t145.5 60.5q91 0 146.5 -60.5t55.5 -158.5t-55.5 -158.5t-146.5 -60.5zM1308 -9q-90 0 -145.5 60.5t-55.5 158.5t55.5 158.5t145.5 60.5q91 0 146.5 -60.5t55.5 -158.5t-55.5 -158.5t-146.5 -60.5zM849 58q58 0 91.5 41t33.5 111
t-33.5 111t-91.5 41q-57 0 -90.5 -41t-33.5 -111t33.5 -111t90.5 -41zM1308 58q58 0 91.5 41t33.5 111t-33.5 111t-91.5 41q-57 0 -90.5 -41t-33.5 -111t33.5 -111t90.5 -41z" />
    <glyph glyph-name="guilsinglleft" unicode="&#x2039;" horiz-adv-x="322" 
d="M181 95l-110 186l110 186h80l-113 -186l113 -186h-80z" />
    <glyph glyph-name="guilsinglright" unicode="&#x203a;" horiz-adv-x="322" 
d="M141 95h-80l113 186l-113 186h80l110 -186z" />
    <glyph glyph-name="fraction" unicode="&#x2044;" horiz-adv-x="208" 
d="M-107 -69l-62 33l486 811l60 -38z" />
    <glyph glyph-name="uni207A" unicode="&#x207a;" horiz-adv-x="433" 
d="M372 239v-60h-121v-124h-68v124h-122v60h122v124h68v-124h121z" />
    <glyph glyph-name="uni207B" unicode="&#x207b;" horiz-adv-x="403" 
d="M61 179v60h281v-60h-281z" />
    <glyph glyph-name="lira" unicode="&#x20a4;" horiz-adv-x="622" 
d="M503 365h88q0 -159 -100 -262t-260 -103h-87v317l-76 -28l-27 67l103 38v79l-77 -28l-26 67l103 38v150h87v-119l207 76l26 -67l-233 -85v-80l207 76l26 -67l-233 -85v-270q121 0 196.5 78.5t75.5 207.5z" />
    <glyph glyph-name="uni20A8" unicode="&#x20a8;" horiz-adv-x="678" 
d="M637 631h-129v-2q46 -39 57 -100h72v-74h-71q-10 -75 -63.5 -119.5t-142.5 -50.5v-2l182 -283h-100l-180 284h-196v78h259q134 0 153 93h-411v74h410q-18 92 -154 92h-257v79h571v-69z" />
    <glyph glyph-name="uni20A9" unicode="&#x20a9;" horiz-adv-x="1084" 
d="M1064 431h-98l-19 -83h117v-66h-132l-66 -282h-95l-110 282h-239l-110 -282h-94l-65 282h-133v66h117l-19 83h-98v65h83l-47 204h82l47 -204h240l78 204h77l78 -204h241l47 204h83l-48 -204h83v-65zM541 587l-36 -91h73l-35 91h-2zM200 431l20 -83h148l32 83h-200z
M448 348h188l-32 83h-124zM864 348l20 83h-201l32 -83h149zM277 110l66 172h-108l40 -172h2zM809 110l40 172h-108l66 -172h2z" />
    <glyph glyph-name="Euro" unicode="&#x20ac;" horiz-adv-x="881" 
d="M754 267l82 -20q-22 -121 -118 -191.5t-228 -70.5q-130 0 -226 70t-130 185h-109v74h96q-2 24 -2 36q0 23 1 34h-95v74h109q33 116 129 186.5t227 70.5q129 0 224 -68.5t120 -183.5l-83 -20q-24 95 -93.5 145t-167.5 50q-95 0 -166 -48t-100 -132h327v-74h-343
q-2 -22 -2 -34t2 -36h272v-74h-256q30 -83 101 -130.5t165 -47.5q100 0 170.5 52t93.5 153z" />
    <glyph glyph-name="uni20BD" unicode="&#x20bd;" horiz-adv-x="795" 
d="M498 700q112 0 176.5 -58t64.5 -157q0 -100 -64 -157.5t-177 -57.5h-270v-78h244v-74h-244v-118h-87v118h-100v74h100v78h-100v74h100v356h357zM495 349q158 0 158 136t-158 136h-267v-272h267z" />
    <glyph glyph-name="uni2116" unicode="&#x2116;" horiz-adv-x="1227" 
d="M977 271q-90 0 -145.5 60.5t-55.5 158.5t55.5 158.5t145.5 60.5q89 0 144.5 -60.5t55.5 -158.5t-55.5 -158.5t-144.5 -60.5zM81 0v700h94l421 -578h2v578h87v-700h-94l-421 578h-2v-578h-87zM977 340q56 0 89 40.5t33 109.5t-33 109.5t-89 40.5t-89.5 -40.5t-33.5 -109.5
t33.5 -109.5t89.5 -40.5zM776 143v73h401v-73h-401z" />
    <glyph glyph-name="uni2117" unicode="&#x2117;" horiz-adv-x="717" 
d="M359 16q-131 0 -219.5 88.5t-88.5 219.5t88.5 218.5t219.5 87.5t219 -87.5t88 -218.5t-88 -219.5t-219 -88.5zM359 66q108 0 179.5 73.5t71.5 184.5q0 110 -71 183t-180 73t-180.5 -73t-71.5 -183q0 -111 71.5 -184.5t180.5 -73.5zM264 146v350h130q57 0 89 -29.5
t32 -81.5q0 -53 -32 -82t-90 -29h-62v-128h-67zM331 331h57q27 0 43.5 14.5t16.5 39.5q0 54 -59 54h-58v-108z" />
    <glyph glyph-name="trademark" unicode="&#x2122;" horiz-adv-x="772" 
d="M147 361v284h-101v55h259v-55h-100v-284h-58zM351 361v339h81l104 -255h1l105 255h79v-339h-58v254h-1l-103 -254h-45l-104 254h-1v-254h-58z" />
    <glyph glyph-name="oneeighth" unicode="&#x215b;" horiz-adv-x="953" 
d="M197 -69l-62 33l486 811l60 -38zM161 280v344l-136 -72v74l142 74h67v-420h-73zM733 -9q-86 0 -138.5 35.5t-52.5 93.5q0 75 87 111v1q-60 30 -60 84q0 49 46.5 81t117.5 32q70 0 116.5 -32t46.5 -81q0 -54 -60 -84v-1q87 -36 87 -111q0 -58 -52.5 -93.5t-137.5 -35.5z
M733 253q41 0 67 16.5t26 42.5q0 28 -25 44.5t-68 16.5t-68.5 -16.5t-25.5 -44.5q0 -26 26.5 -42.5t67.5 -16.5zM733 53q55 0 86.5 18.5t31.5 52.5q0 33 -32.5 53.5t-85.5 20.5t-85.5 -20.5t-32.5 -53.5q0 -34 31 -52.5t87 -18.5z" />
    <glyph glyph-name="threeeighths" unicode="&#x215c;" horiz-adv-x="1059" 
d="M303 -69l-62 33l486 811l60 -38zM209 271q-79 0 -128 39.5t-56 108.5l71 10q8 -95 113 -95q47 0 73 18.5t26 52.5q0 67 -97 67h-48v55h47q87 0 87 59q0 28 -24.5 44t-66.5 16q-90 0 -111 -81l-68 18q14 59 62 92.5t117 33.5q71 0 116.5 -33.5t45.5 -87.5q0 -53 -53 -84
v-1q30 -14 47.5 -41.5t17.5 -59.5q0 -58 -47.5 -94.5t-123.5 -36.5zM839 -9q-86 0 -138.5 35.5t-52.5 93.5q0 75 87 111v1q-60 30 -60 84q0 49 46.5 81t117.5 32q70 0 116.5 -32t46.5 -81q0 -54 -60 -84v-1q87 -36 87 -111q0 -58 -52.5 -93.5t-137.5 -35.5zM839 253
q41 0 67 16.5t26 42.5q0 28 -25 44.5t-68 16.5t-68.5 -16.5t-25.5 -44.5q0 -26 26.5 -42.5t67.5 -16.5zM839 53q55 0 86.5 18.5t31.5 52.5q0 33 -32.5 53.5t-85.5 20.5t-85.5 -20.5t-32.5 -53.5q0 -34 31 -52.5t87 -18.5z" />
    <glyph glyph-name="fiveeighths" unicode="&#x215d;" horiz-adv-x="1085" 
d="M329 -69l-62 33l486 811l60 -38zM222 271q-74 0 -126 33t-66 89l68 23q23 -82 123 -82q52 0 82.5 24t30.5 65q0 40 -31 64t-82 24q-63 0 -117 -48l-66 19l43 218h282v-63h-228l-21 -100l1 -1q47 31 115 31q78 0 127 -40.5t49 -105.5t-51 -107.5t-133 -42.5zM865 -9
q-86 0 -138.5 35.5t-52.5 93.5q0 75 87 111v1q-60 30 -60 84q0 49 46.5 81t117.5 32q70 0 116.5 -32t46.5 -81q0 -54 -60 -84v-1q87 -36 87 -111q0 -58 -52.5 -93.5t-137.5 -35.5zM865 253q41 0 67 16.5t26 42.5q0 28 -25 44.5t-68 16.5t-68.5 -16.5t-25.5 -44.5
q0 -26 26.5 -42.5t67.5 -16.5zM865 53q55 0 86.5 18.5t31.5 52.5q0 33 -32.5 53.5t-85.5 20.5t-85.5 -20.5t-32.5 -53.5q0 -34 31 -52.5t87 -18.5z" />
    <glyph glyph-name="seveneighths" unicode="&#x215e;" horiz-adv-x="966" 
d="M210 -69l-62 33l486 811l60 -38zM66 280l192 356v1h-258v63h342v-57l-194 -363h-82zM746 -9q-86 0 -138.5 35.5t-52.5 93.5q0 75 87 111v1q-60 30 -60 84q0 49 46.5 81t117.5 32q70 0 116.5 -32t46.5 -81q0 -54 -60 -84v-1q87 -36 87 -111q0 -58 -52.5 -93.5
t-137.5 -35.5zM746 253q41 0 67 16.5t26 42.5q0 28 -25 44.5t-68 16.5t-68.5 -16.5t-25.5 -44.5q0 -26 26.5 -42.5t67.5 -16.5zM746 53q55 0 86.5 18.5t31.5 52.5q0 33 -32.5 53.5t-85.5 20.5t-85.5 -20.5t-32.5 -53.5q0 -34 31 -52.5t87 -18.5z" />
    <glyph glyph-name="arrowleft" unicode="&#x2190;" 
d="M669 383v-73h-478l168 -156l-52 -54l-256 246l256 246l52 -54l-167 -155h477z" />
    <glyph glyph-name="arrowup" unicode="&#x2191;" horiz-adv-x="594" 
d="M543 403l-55 -54l-152 165v-473h-77v474l-153 -166l-55 54l246 256z" />
    <glyph glyph-name="arrowright" unicode="&#x2192;" 
d="M413 592l256 -246l-256 -246l-52 54l168 156h-478v73h477l-167 155z" />
    <glyph glyph-name="arrowdown" unicode="&#x2193;" horiz-adv-x="594" 
d="M488 352l55 -54l-246 -256l-246 256l55 54l153 -166v474h77v-473z" />
    <glyph glyph-name="arrowboth" unicode="&#x2194;" horiz-adv-x="849" 
d="M541 592l257 -246l-257 -246l-50 53l171 159h-475l171 -159l-50 -53l-257 246l257 246l50 -53l-169 -158h471l-169 158z" />
    <glyph glyph-name="arrowupdn" unicode="&#x2195;" horiz-adv-x="594" 
d="M331 126l158 170l54 -51l-246 -257l-246 257l54 51l157 -169v446l-157 -169l-54 51l246 257l246 -257l-54 -51l-158 170v-448z" />
    <glyph glyph-name="uni2196" unicode="&#x2196;" horiz-adv-x="565" 
d="M514 171l-52 -54l-338 338l7 -227l-72 -1l-8 353l352 -8l-1 -73l-224 8z" />
    <glyph glyph-name="uni2197" unicode="&#x2197;" horiz-adv-x="565" 
d="M51 171l336 336l-224 -8l-1 73l352 8l-8 -353l-72 1l7 227l-338 -338z" />
    <glyph glyph-name="uni2198" unicode="&#x2198;" horiz-adv-x="565" 
d="M51 526l52 54l338 -338l-7 227l72 1l8 -353l-352 8l1 73l224 -8z" />
    <glyph glyph-name="uni2199" unicode="&#x2199;" horiz-adv-x="565" 
d="M514 530l-336 -336l224 8l1 -73l-352 -8l8 353l72 -1l-7 -227l338 338z" />
    <glyph glyph-name="uni21B3" unicode="&#x21b3;" horiz-adv-x="733" 
d="M426 592l256 -246l-256 -246l-52 54l167 156h-440v390h76v-317h363l-166 155z" />
    <glyph glyph-name="partialdiff" unicode="&#x2202;" horiz-adv-x="584" 
d="M307 788q112 0 172 -95.5t60 -275.5q0 -432 -262 -432q-106 0 -168.5 66t-62.5 179q0 124 60.5 197t163.5 73q89 0 181 -41q-9 247 -144 247q-46 0 -98 -52l-56 59q73 75 154 75zM278 67q164 0 173 309q-88 47 -174 47q-70 0 -107.5 -50.5t-37.5 -143.5
q0 -77 38.5 -119.5t107.5 -42.5z" />
    <glyph glyph-name="emptyset" unicode="&#x2205;" horiz-adv-x="839" 
d="M686 606q102 -104 102 -256q0 -155 -106 -260t-262 -105q-121 0 -217 67l-90 -103l-51 43l90 103q-101 104 -101 255q0 155 106 260t263 105q120 0 214 -65l93 106l51 -44zM130 350q0 -118 71 -198l385 442q-73 49 -166 49q-125 0 -207.5 -83t-82.5 -210zM420 57
q125 0 207 83t82 210q0 117 -73 200l-385 -442q73 -51 169 -51z" />
    <glyph glyph-name="product" unicode="&#x220f;" horiz-adv-x="776" 
d="M162 -141v762h-127v79h706v-79h-127v-762h-86v762h-280v-762h-86z" />
    <glyph glyph-name="summation" unicode="&#x2211;" horiz-adv-x="609" 
d="M71 -100v71l257 329l-257 329v71h492v-79h-380l256 -321l-256 -321h380v-79h-492z" />
    <glyph glyph-name="minus" unicode="&#x2212;" horiz-adv-x="539" 
d="M61 333v69h417v-69h-417z" />
    <glyph glyph-name="radical" unicode="&#x221a;" horiz-adv-x="662" 
d="M556 700h96l-284 -700h-87l-138 337h-122v79h182l119 -305h2z" />
    <glyph glyph-name="infinity" unicode="&#x221e;" horiz-adv-x="724" 
d="M225 111q-71 0 -117.5 54t-46.5 138t46.5 138t117.5 54q42 0 80 -25.5t57 -67.5q19 42 57 67.5t80 25.5q71 0 117.5 -54t46.5 -138t-46.5 -138t-117.5 -54q-42 0 -80 25.5t-57 67.5q-19 -42 -57 -67.5t-80 -25.5zM227 178q75 0 111 125q-36 125 -111 125q-44 0 -70.5 -34
t-26.5 -91t26.5 -91t70.5 -34zM497 178q44 0 70 34t26 91t-26 91t-70 34q-75 0 -111 -125q36 -125 111 -125z" />
    <glyph glyph-name="integral" unicode="&#x222b;" horiz-adv-x="481" 
d="M61 -240v79q79 0 107.5 26.5t28.5 99.5v582q0 108 50.5 153t172.5 45v-79q-78 0 -107 -26.5t-29 -99.5v-582q0 -108 -50.5 -153t-172.5 -45z" />
    <glyph glyph-name="approxequal" unicode="&#x2248;" horiz-adv-x="610" 
d="M128 364l-67 21q13 62 50 96t90 34q39 0 78 -20t71 -40t56 -20q27 0 44.5 18.5t30.5 62.5l68 -21q-14 -62 -51 -96.5t-90 -34.5q-31 0 -62.5 12.5t-52.5 28t-45.5 28t-43.5 12.5q-28 0 -45.5 -18t-30.5 -63zM128 189l-67 21q13 62 50 96t90 34q39 0 78 -20t71 -40t56 -20
q27 0 44.5 18.5t30.5 62.5l68 -21q-14 -62 -51 -96.5t-90 -34.5q-39 0 -78 20.5t-71 40.5t-55 20q-28 0 -45.5 -18t-30.5 -63z" />
    <glyph glyph-name="notequal" unicode="&#x2260;" horiz-adv-x="553" 
d="M492 410h-153l-64 -115h217v-72h-258l-61 -109l-45 26l46 83h-113v72h154l64 115h-218v73h259l60 108l46 -26l-46 -82h112v-73z" />
    <glyph glyph-name="lessequal" unicode="&#x2264;" horiz-adv-x="556" 
d="M450 125l-389 234v67l389 233l39 -59l-347 -208l346 -207zM495 0h-434v72h434v-72z" />
    <glyph glyph-name="greaterequal" unicode="&#x2265;" horiz-adv-x="556" 
d="M106 125l-38 60l346 207l-347 208l39 59l389 -233v-67zM61 0v72h434v-72h-434z" />
    <glyph glyph-name="lozenge" unicode="&#x25ca;" horiz-adv-x="660" 
d="M276 0l-215 350l215 350h108l215 -350l-215 -350h-108zM330 53l185 297l-185 297l-185 -297z" />
    <glyph glyph-name="uniF8FF" unicode="&#xf8ff;" horiz-adv-x="686" 
d="M50 0v423q0 118 87 205t205 87q119 0 206.5 -87t87.5 -205v-423h-28l-65 65l-68 -65l-63 65l-71 -65l-69 65l-63 -65l-67 65l-66 -65h-26zM216 307q29 0 50 20.5t21 49.5q0 30 -20.5 51t-50.5 21q-29 0 -50 -21t-21 -51q0 -29 21 -49.5t50 -20.5zM470 307q29 0 50.5 21
t21.5 49q0 30 -21 51t-51 21q-29 0 -49.5 -21t-20.5 -51q0 -29 21 -49.5t49 -20.5z" />
    <glyph glyph-name="uniFEFF" unicode="&#xfeff;" horiz-adv-x="0" 
 />
    <glyph glyph-name="i.loclTRK" horiz-adv-x="213" 
d="M58 623v91h95v-91h-95zM66 0v530h82v-530h-82z" />
    <glyph glyph-name="a.ordn" horiz-adv-x="310" 
d="M121 417q-47 0 -76.5 22t-29.5 58q0 39 29 59.5t99 31.5q40 7 54.5 13.5t14.5 18.5q0 15 -15.5 24t-42.5 9q-30 0 -50.5 -14.5t-25.5 -39.5l-63 12q9 44 46.5 70t92.5 26q58 0 91.5 -27t33.5 -73v-183h-60v31h-1q-27 -38 -97 -38zM132 471q34 0 59 15.5t25 35.5v45h-1
q-7 -14 -62 -24q-43 -8 -59 -17.5t-16 -25.5q0 -29 54 -29z" />
    <glyph glyph-name="b.ordn" horiz-adv-x="357" 
d="M195 707q63 0 104.5 -41t41.5 -104t-41.5 -104t-104.5 -41q-68 0 -100 37h-1v-30h-64v380h68v-130h1q36 33 96 33zM183 475q42 0 66.5 24t24.5 63t-24.5 63t-66.5 24q-37 0 -60.5 -19.5t-23.5 -44.5v-46q0 -25 23.5 -44.5t60.5 -19.5z" />
    <glyph glyph-name="c.ordn" horiz-adv-x="328" 
d="M169 417q-68 0 -111 40.5t-43 104.5t43 104.5t111 40.5q54 0 93.5 -27.5t50.5 -70.5l-62 -17q-17 57 -82 57q-39 0 -62.5 -23.5t-23.5 -63.5t23.5 -63.5t62.5 -23.5q65 0 82 57l62 -17q-11 -43 -50.5 -70.5t-93.5 -27.5z" />
    <glyph glyph-name="d.ordn" horiz-adv-x="357" 
d="M162 707q60 0 96 -33h1v130h68v-380h-64v30h-1q-32 -37 -100 -37q-63 0 -104.5 41t-41.5 104t41.5 104t104.5 41zM174 475q37 0 60.5 19.5t23.5 44.5v46q0 25 -23.5 44.5t-60.5 19.5q-42 0 -66.5 -24t-24.5 -63t24.5 -63t66.5 -24z" />
    <glyph glyph-name="e.ordn" horiz-adv-x="333" 
d="M317 560v-24h-232q11 -61 86 -61q49 0 86 45l47 -43q-53 -60 -133 -60q-71 0 -113.5 39t-42.5 105q0 64 42.5 105t109.5 41q68 0 109 -41t41 -106zM85 591h162q-2 25 -24 41.5t-56 16.5q-69 0 -82 -58z" />
    <glyph glyph-name="f.ordn" horiz-adv-x="234" 
d="M63 424v218h-58v58h58v26q0 35 22 56t64 21h64v-56h-57q-26 0 -26 -24v-23h99v-58h-99v-218h-67z" />
    <glyph glyph-name="g.ordn" horiz-adv-x="356" 
d="M178 296q-93 0 -144 72l47 38q21 -28 42 -40t54 -12q84 0 84 78v16h-1q-33 -31 -95 -31q-67 0 -108.5 40t-41.5 104q0 62 43 104t110 42q61 0 93 -34h1v27h64v-263q0 -65 -40.5 -103t-107.5 -38zM174 475q38 0 61 18t23 46v46q0 27 -23 45.5t-60 18.5q-42 0 -67 -24.5
t-25 -63.5q0 -40 24.5 -63t66.5 -23z" />
    <glyph glyph-name="h.ordn" horiz-adv-x="357" 
d="M30 424v380h68v-134h1q35 37 97 37q60 0 98 -35t38 -84v-164h-68v151q0 33 -23 54t-58 21q-37 0 -61 -22t-24 -55v-149h-68z" />
    <glyph glyph-name="i.ordn" horiz-adv-x="132" 
d="M30 747v66h71v-66h-71zM33 424v276h67v-276h-67z" />
    <glyph glyph-name="j.ordn" horiz-adv-x="135" 
d="M34 747v66h71v-66h-71zM-40 323v63h44q32 0 32 30v284h68v-283q0 -50 -21.5 -72t-70.5 -22h-52z" />
    <glyph glyph-name="k.ordn" horiz-adv-x="324" 
d="M30 424v380h68v-216h1l127 112h94l-128 -111l132 -165h-82l-95 125h-1l-48 -42v-83h-68z" />
    <glyph glyph-name="l.ordn" horiz-adv-x="128" 
d="M30 424v380h68v-380h-68z" />
    <glyph glyph-name="m.ordn" horiz-adv-x="517" 
d="M30 424v276h61v-31h1q28 38 86 38q29 0 54.5 -12.5t37.5 -32.5h1q34 45 96 45q54 0 89 -33t35 -83v-167h-62v158q0 31 -19 49t-50 18t-50 -18t-19 -49v-158h-60v158q0 30 -19 48.5t-49 18.5q-32 0 -51 -18t-19 -49v-158h-63z" />
    <glyph glyph-name="n.ordn" horiz-adv-x="357" 
d="M30 424v276h64v-34h1q33 41 101 41q60 0 97.5 -35t37.5 -84v-164h-67v150q0 34 -23 54.5t-59 20.5q-37 0 -60.5 -21.5t-23.5 -54.5v-149h-68z" />
    <glyph glyph-name="o.ordn" horiz-adv-x="343" 
d="M172 417q-68 0 -112.5 41.5t-44.5 103.5t44.5 103.5t112.5 41.5t112 -41.5t44 -103.5t-44 -103.5t-112 -41.5zM172 475q40 0 64.5 24.5t24.5 62.5t-24.5 62.5t-64.5 24.5t-64.5 -24.5t-24.5 -62.5t24.5 -62.5t64.5 -24.5z" />
    <glyph glyph-name="p.ordn" horiz-adv-x="354" 
d="M194 707q62 0 103 -40.5t41 -104.5t-41 -104.5t-103 -40.5t-95 33h-1v-147h-68v397h65v-29h1q31 36 98 36zM182 475q41 0 65 24t24 63t-24 63t-65 24q-36 0 -59.5 -19.5t-23.5 -44.5v-46q0 -25 23.5 -44.5t59.5 -19.5z" />
    <glyph glyph-name="q.ordn" horiz-adv-x="354" 
d="M160 707q67 0 98 -36h1v29h65v-397h-68v147h-1q-33 -33 -95 -33t-103 40.5t-41 104.5t41 104.5t103 40.5zM172 475q36 0 59.5 19.5t23.5 44.5v46q0 25 -23.5 44.5t-59.5 19.5q-41 0 -65 -24t-24 -63t24 -63t65 -24z" />
    <glyph glyph-name="r.ordn" horiz-adv-x="222" 
d="M170 705q20 0 52 -8l-14 -61q-26 6 -40 6q-70 0 -70 -93v-125h-68v276h64v-28h1q26 33 75 33z" />
    <glyph glyph-name="s.ordn" horiz-adv-x="331" 
d="M176 417q-61 0 -101.5 26t-49.5 69l62 18q17 -58 89 -58q64 0 64 33q0 14 -16 21.5t-60 13.5q-68 10 -96.5 29t-28.5 54q0 37 33.5 60.5t85.5 23.5t90 -22.5t50 -61.5l-60 -17q-17 46 -80 46q-54 0 -54 -28q0 -11 14 -17t55 -13q71 -11 102 -31.5t31 -56.5
q0 -41 -35.5 -65t-94.5 -24z" />
    <glyph glyph-name="t.ordn" horiz-adv-x="226" 
d="M221 642h-96v-133q0 -13 6.5 -17.5t23.5 -4.5h51v-63h-60q-48 0 -68 18t-20 59v141h-53v58h53v67h67v-67h96v-58z" />
    <glyph glyph-name="u.ordn" horiz-adv-x="347" 
d="M249 700h68v-276h-64v31h-1q-33 -38 -98 -38q-59 0 -94 33.5t-35 91.5v158h68v-154q0 -38 18 -54.5t58 -16.5q35 0 57.5 21.5t22.5 54.5v149z" />
    <glyph glyph-name="v.ordn" horiz-adv-x="339" 
d="M141 424l-131 276h73l86 -196h1l86 196h72l-130 -276h-57z" />
    <glyph glyph-name="w.ordn" horiz-adv-x="494" 
d="M92 424l-82 276h70l56 -192h1l78 192h65l78 -192h1l56 192h69l-81 -276h-70l-85 203h-1l-86 -203h-69z" />
    <glyph glyph-name="x.ordn" horiz-adv-x="359" 
d="M10 424l128 142l-121 134h85l77 -91h1l77 91h85l-120 -134l127 -142h-85l-84 99h-1l-84 -99h-85z" />
    <glyph glyph-name="y.ordn" horiz-adv-x="348" 
d="M262 700h76l-197 -397h-76l73 144l-128 253h78l86 -184h1z" />
    <glyph glyph-name="z.ordn" horiz-adv-x="320" 
d="M10 424v53l195 164v1h-190v58h290v-53l-195 -164v-1h200v-58h-300z" />
    <glyph glyph-name="a.ss01" horiz-adv-x="648" 
d="M501 530h81v-530h-81v55h-2q-62 -70 -185 -70q-119 0 -193.5 77.5t-74.5 202.5t74.5 202.5t193.5 77.5q123 0 185 -70h2v55zM324 57q75 0 125.5 41.5t50.5 101.5v130q0 60 -50.5 101.5t-125.5 41.5q-91 0 -143.5 -55.5t-52.5 -152.5t52.5 -152.5t143.5 -55.5z" />
    <glyph glyph-name="aacute.ss01" horiz-adv-x="648" 
d="M279 605l84 116h103l-117 -116h-70zM501 530h81v-530h-81v55h-2q-62 -70 -185 -70q-119 0 -193.5 77.5t-74.5 202.5t74.5 202.5t193.5 77.5q123 0 185 -70h2v55zM324 57q75 0 125.5 41.5t50.5 101.5v130q0 60 -50.5 101.5t-125.5 41.5q-91 0 -143.5 -55.5t-52.5 -152.5
t52.5 -152.5t143.5 -55.5z" />
    <glyph glyph-name="abreve.ss01" horiz-adv-x="648" 
d="M329 595q-62 0 -99.5 32t-41.5 89h48q14 -57 93 -57q81 0 93 57h50q-4 -57 -42.5 -89t-100.5 -32zM501 530h81v-530h-81v55h-2q-62 -70 -185 -70q-119 0 -193.5 77.5t-74.5 202.5t74.5 202.5t193.5 77.5q123 0 185 -70h2v55zM324 57q75 0 125.5 41.5t50.5 101.5v130
q0 60 -50.5 101.5t-125.5 41.5q-91 0 -143.5 -55.5t-52.5 -152.5t52.5 -152.5t143.5 -55.5z" />
    <glyph glyph-name="uni01CE.ss01" horiz-adv-x="648" 
d="M381 595h-105l-76 81l43 40l86 -91l85 91l43 -40zM501 530h81v-530h-81v55h-2q-62 -70 -185 -70q-119 0 -193.5 77.5t-74.5 202.5t74.5 202.5t193.5 77.5q123 0 185 -70h2v55zM500 200v130q0 60 -50.5 101.5t-125.5 41.5q-91 0 -143.5 -55.5t-52.5 -152.5t52.5 -152.5
t143.5 -55.5q75 0 125.5 41.5t50.5 101.5z" />
    <glyph glyph-name="acircumflex.ss01" horiz-adv-x="648" 
d="M329 677l-86 -92l-43 40l76 81h105l76 -81l-43 -40zM501 530h81v-530h-81v55h-2q-62 -70 -185 -70q-119 0 -193.5 77.5t-74.5 202.5t74.5 202.5t193.5 77.5q123 0 185 -70h2v55zM500 200v130q0 60 -50.5 101.5t-125.5 41.5q-91 0 -143.5 -55.5t-52.5 -152.5t52.5 -152.5
t143.5 -55.5q75 0 125.5 41.5t50.5 101.5z" />
    <glyph glyph-name="uni1EAD.ss01" horiz-adv-x="648" 
d="M329 677l-86 -92l-43 40l76 81h105l76 -81l-43 -40zM501 530h81v-530h-81v55h-2q-62 -70 -185 -70q-119 0 -193.5 77.5t-74.5 202.5t74.5 202.5t193.5 77.5q123 0 185 -70h2v55zM500 200v130q0 60 -50.5 101.5t-125.5 41.5q-91 0 -143.5 -55.5t-52.5 -152.5t52.5 -152.5
t143.5 -55.5q75 0 125.5 41.5t50.5 101.5zM282 -157v92h94v-92h-94z" />
    <glyph glyph-name="adieresis.ss01" horiz-adv-x="648" 
d="M186 595v93h95v-93h-95zM376 595v93h95v-93h-95zM501 530h81v-530h-81v55h-2q-62 -70 -185 -70q-119 0 -193.5 77.5t-74.5 202.5t74.5 202.5t193.5 77.5q123 0 185 -70h2v55zM324 57q75 0 125.5 41.5t50.5 101.5v130q0 60 -50.5 101.5t-125.5 41.5q-91 0 -143.5 -55.5
t-52.5 -152.5t52.5 -152.5t143.5 -55.5z" />
    <glyph glyph-name="uni01DF.ss01" horiz-adv-x="648" 
d="M180 728v63h298v-63h-298zM186 595v93h95v-93h-95zM376 595v93h95v-93h-95zM501 530h81v-530h-81v55h-2q-62 -70 -185 -70q-119 0 -193.5 77.5t-74.5 202.5t74.5 202.5t193.5 77.5q123 0 185 -70h2v55zM324 57q75 0 125.5 41.5t50.5 101.5v130q0 60 -50.5 101.5
t-125.5 41.5q-91 0 -143.5 -55.5t-52.5 -152.5t52.5 -152.5t143.5 -55.5z" />
    <glyph glyph-name="uni1EA1.ss01" horiz-adv-x="648" 
d="M501 530h81v-530h-81v55h-2q-62 -70 -185 -70q-119 0 -193.5 77.5t-74.5 202.5t74.5 202.5t193.5 77.5q123 0 185 -70h2v55zM324 57q75 0 125.5 41.5t50.5 101.5v130q0 60 -50.5 101.5t-125.5 41.5q-91 0 -143.5 -55.5t-52.5 -152.5t52.5 -152.5t143.5 -55.5zM282 -157
v92h94v-92h-94z" />
    <glyph glyph-name="agrave.ss01" horiz-adv-x="648" 
d="M309 605l-117 116h103l84 -116h-70zM501 530h81v-530h-81v55h-2q-62 -70 -185 -70q-119 0 -193.5 77.5t-74.5 202.5t74.5 202.5t193.5 77.5q123 0 185 -70h2v55zM324 57q75 0 125.5 41.5t50.5 101.5v130q0 60 -50.5 101.5t-125.5 41.5q-91 0 -143.5 -55.5t-52.5 -152.5
t52.5 -152.5t143.5 -55.5z" />
    <glyph glyph-name="amacron.ss01" horiz-adv-x="648" 
d="M180 605v63h298v-63h-298zM501 530h81v-530h-81v55h-2q-62 -70 -185 -70q-119 0 -193.5 77.5t-74.5 202.5t74.5 202.5t193.5 77.5q123 0 185 -70h2v55zM324 57q75 0 125.5 41.5t50.5 101.5v130q0 60 -50.5 101.5t-125.5 41.5q-91 0 -143.5 -55.5t-52.5 -152.5
t52.5 -152.5t143.5 -55.5z" />
    <glyph glyph-name="aogonek.ss01" horiz-adv-x="648" 
d="M587 -117l24 -61q-45 -21 -93 -21q-43 0 -66.5 22t-22.5 62q3 62 82 115h-10v55h-2q-62 -70 -185 -70q-119 0 -193.5 77.5t-74.5 202.5t74.5 202.5t193.5 77.5q123 0 185 -70h2v55h81v-530h-10q-77 -43 -77 -100q0 -34 33 -34q25 0 59 17zM500 200v130q0 60 -50.5 101.5
t-125.5 41.5q-91 0 -143.5 -55.5t-52.5 -152.5t52.5 -152.5t143.5 -55.5q75 0 125.5 41.5t50.5 101.5z" />
    <glyph glyph-name="aring.ss01" horiz-adv-x="648" 
d="M316 579q-48 0 -79 28.5t-31 73.5q0 44 31 73t79 29q47 0 78.5 -29t31.5 -73q0 -45 -31 -73.5t-79 -28.5zM316 621q26 0 42.5 17t16.5 43q0 25 -16.5 42t-42.5 17t-42.5 -16.5t-16.5 -42.5t16.5 -43t42.5 -17zM501 530h81v-530h-81v55h-2q-62 -70 -185 -70
q-119 0 -193.5 77.5t-74.5 202.5t74.5 202.5t193.5 77.5q123 0 185 -70h2v55zM324 57q75 0 125.5 41.5t50.5 101.5v130q0 60 -50.5 101.5t-125.5 41.5q-91 0 -143.5 -55.5t-52.5 -152.5t52.5 -152.5t143.5 -55.5z" />
    <glyph glyph-name="aringacute.ss01" horiz-adv-x="648" 
d="M316 579q-48 0 -79 28.5t-31 73.5q0 36 21 62.5t56 35.5l76 105h103l-108 -107q33 -10 52.5 -36t19.5 -60q0 -45 -31 -73.5t-79 -28.5zM316 740q-26 0 -42.5 -16.5t-16.5 -42.5t16.5 -43t42.5 -17t42.5 17t16.5 43q0 25 -16.5 42t-42.5 17zM501 530h81v-530h-81v55h-2
q-62 -70 -185 -70q-119 0 -193.5 77.5t-74.5 202.5t74.5 202.5t193.5 77.5q123 0 185 -70h2v55zM500 200v130q0 60 -50.5 101.5t-125.5 41.5q-91 0 -143.5 -55.5t-52.5 -152.5t52.5 -152.5t143.5 -55.5q75 0 125.5 41.5t50.5 101.5z" />
    <glyph glyph-name="atilde.ss01" horiz-adv-x="648" 
d="M400 600q-33 0 -78 19t-66 19q-38 0 -45 -33h-47q4 43 29 67.5t66 24.5q33 0 78.5 -19.5t66.5 -19.5q38 0 45 34h46q-3 -43 -28 -67.5t-67 -24.5zM501 530h81v-530h-81v55h-2q-62 -70 -185 -70q-119 0 -193.5 77.5t-74.5 202.5t74.5 202.5t193.5 77.5q123 0 185 -70h2v55
zM324 57q75 0 125.5 41.5t50.5 101.5v130q0 60 -50.5 101.5t-125.5 41.5q-91 0 -143.5 -55.5t-52.5 -152.5t52.5 -152.5t143.5 -55.5z" />
    <glyph glyph-name="aring.ss02" horiz-adv-x="580" 
d="M390 533q61 -18 95.5 -60t34.5 -101v-372h-79v67h-2q-27 -37 -80.5 -59.5t-116.5 -22.5q-92 0 -144 42t-52 115q0 70 53.5 108t180.5 58q85 14 118.5 32t33.5 49q0 38 -36 61t-97 23q-69 0 -114 -33.5t-57 -93.5l-79 17q11 63 53 107t106 63q-31 31 -31 78q0 49 34.5 81
t87.5 32t87.5 -32t34.5 -81q0 -45 -31 -78zM233 611q0 -29 18.5 -47.5t47.5 -18.5t47 18.5t18 47.5t-18 47t-47 18t-47.5 -18t-18.5 -47zM438 185v114h-2q-11 -20 -43 -33t-98 -24q-89 -15 -127.5 -38t-38.5 -62q0 -84 130 -84q71 0 125 38.5t54 88.5z" />
    <glyph glyph-name="aringacute.ss02" horiz-adv-x="580" 
d="M390 533q61 -18 95.5 -60t34.5 -101v-372h-79v67h-2q-27 -37 -80.5 -59.5t-116.5 -22.5q-92 0 -144 42t-52 115q0 70 53.5 108t180.5 58q85 14 118.5 32t33.5 49q0 38 -36 61t-97 23q-69 0 -114 -33.5t-57 -93.5l-79 17q11 63 53 107t106 63q-31 31 -31 78
q0 36 19.5 63.5t52.5 40.5l83 115h103l-109 -108q42 -8 68.5 -38.5t26.5 -72.5q0 -45 -31 -78zM233 611q0 -29 18.5 -47.5t47.5 -18.5t47 18.5t18 47.5t-18 47t-47 18t-47.5 -18t-18.5 -47zM438 185v114h-2q-11 -20 -43 -33t-98 -24q-89 -15 -127.5 -38t-38.5 -62
q0 -84 130 -84q71 0 125 38.5t54 88.5z" />
    <glyph glyph-name="f.ss03" horiz-adv-x="351" 
d="M115 0v461h-95v69h95v54q0 53 32.5 84t94.5 31h110v-72h-105q-50 0 -50 -50v-47h138v-69h-138v-461h-82z" />
    <glyph glyph-name="j.ss03" horiz-adv-x="213" 
d="M58 623v91h95v-91h-95zM66 -225v755h82v-755h-82z" />
    <glyph glyph-name="t.ss03" horiz-adv-x="353" 
d="M338 461h-141v-340q0 -27 13 -38t45 -11h73v-72h-74q-74 0 -106.5 28.5t-32.5 93.5v339h-95v69h95v119h82v-119h141v-69z" />
    <glyph glyph-name="zero.case" horiz-adv-x="723" 
d="M362 -15q-142 0 -229.5 100.5t-87.5 264.5t87.5 264.5t229.5 100.5q141 0 228.5 -101t87.5 -264t-87.5 -264t-228.5 -101zM362 64q105 0 166 77t61 209t-61 209t-166 77q-106 0 -167 -76.5t-61 -209.5t61 -209.5t167 -76.5z" />
    <glyph glyph-name="one.case" horiz-adv-x="432" 
d="M245 0v602l-210 -127v92l219 133h77v-700h-86z" />
    <glyph glyph-name="two.case" horiz-adv-x="666" 
d="M174 183q-15 -21 -20 -41t-5 -63h453v-79h-546v70q0 98 43 155q29 39 77.5 66t144.5 57q117 37 158.5 71t41.5 92q0 55 -46 90t-120 35q-90 0 -144.5 -48.5t-65.5 -137.5l-87 10q14 118 92 186.5t205 68.5q112 0 183.5 -58t71.5 -146q0 -86 -56 -139t-188 -93
q-158 -48 -192 -96z" />
    <glyph glyph-name="three.case" horiz-adv-x="660" 
d="M336 -15q-122 0 -199 65t-91 180l88 15q10 -88 62 -134.5t140 -46.5q86 0 133 37.5t47 104.5q0 131 -161 131h-98v75h98q65 0 102 29.5t37 80.5q0 50 -44.5 82t-114.5 32q-80 0 -128.5 -38t-61.5 -109l-87 15q15 96 90 153.5t187 57.5q108 0 176 -53t68 -138
q0 -92 -87 -140v-2q112 -51 112 -181q0 -98 -73 -157t-195 -59z" />
    <glyph glyph-name="four.case" horiz-adv-x="661" 
d="M436 0v137h-428v76l376 487h139v-486h107v-77h-107v-137h-87zM102 214h334v426h-2z" />
    <glyph glyph-name="five.case" horiz-adv-x="674" 
d="M343 -15q-119 0 -199 55.5t-103 152.5l83 25q42 -154 219 -154q94 0 150.5 45.5t56.5 122.5q0 78 -57.5 125t-149.5 47q-126 0 -212 -83l-76 20l71 359h446v-79h-378l-39 -197l2 -1q85 55 194 55q127 0 207 -68t80 -178q0 -111 -81.5 -179t-213.5 -68z" />
    <glyph glyph-name="six.case" horiz-adv-x="687" 
d="M376 466q120 0 197.5 -67.5t77.5 -172.5q0 -107 -81 -174t-204 -67q-152 0 -236.5 93.5t-84.5 261.5q0 167 89 271t228 104q101 0 172.5 -51.5t94.5 -140.5l-82 -24q-42 139 -183 139q-99 0 -164.5 -79.5t-68.5 -206.5h2q33 52 98.5 83t144.5 31zM366 62q87 0 143 45
t56 119q0 78 -53.5 124t-145.5 46q-86 0 -144.5 -50t-58.5 -120q0 -72 56.5 -118t146.5 -46z" />
    <glyph glyph-name="seven.case" horiz-adv-x="581" 
d="M113 0l333 619v2h-430v79h534v-72l-336 -628h-101z" />
    <glyph glyph-name="eight.case" horiz-adv-x="657" 
d="M328 -15q-141 0 -221.5 60t-80.5 154q0 62 39 111.5t108 71.5v2q-101 44 -101 143q0 85 72.5 136.5t183.5 51.5q112 0 184.5 -51.5t72.5 -136.5q0 -99 -101 -143v-2q69 -22 108 -71.5t39 -111.5q0 -94 -80.5 -154t-222.5 -60zM328 416q77 0 122 30t45 80t-46.5 80.5
t-120.5 30.5t-120 -30.5t-46 -80.5t45 -80t121 -30zM328 67q100 0 156 36.5t56 98.5q0 61 -57.5 99t-154.5 38q-96 0 -153.5 -38t-57.5 -99q0 -62 55.5 -98.5t155.5 -36.5z" />
    <glyph glyph-name="nine.case" horiz-adv-x="655" 
d="M315 715q139 0 217 -87.5t78 -247.5q0 -189 -73 -292t-208 -103q-98 0 -165.5 48t-91.5 135l78 27q41 -133 179 -133q86 0 135.5 67.5t55.5 192.5h-2q-64 -84 -212 -84q-124 0 -197.5 64.5t-73.5 172.5q0 104 79 172t201 68zM315 311q87 0 140 45t53 119q0 70 -55 116.5
t-138 46.5q-86 0 -140.5 -46t-54.5 -117q0 -77 51.5 -120.5t143.5 -43.5z" />
    <glyph glyph-name="zero.tf" 
d="M360 -15q-142 0 -229 100.5t-87 264.5t87 264.5t229 100.5t229 -100.5t87 -264.5t-87 -264.5t-229 -100.5zM360 64q105 0 166.5 77t61.5 209t-61.5 209t-166.5 77t-166.5 -77t-61.5 -209t61.5 -209t166.5 -77z" />
    <glyph glyph-name="one.tf" 
d="M408 79h207v-79h-510v79h217v523l-210 -127v92l219 133h77v-621z" />
    <glyph glyph-name="two.tf" 
d="M201 183q-15 -21 -20 -41t-5 -63h453v-79h-546v70q0 98 43 155q29 39 77.5 66t144.5 57q117 37 158.5 71t41.5 92q0 55 -46 90t-120 35q-90 0 -144.5 -48.5t-65.5 -137.5l-87 10q14 118 92 186.5t205 68.5q112 0 183.5 -58t71.5 -146q0 -86 -56 -139t-188 -93
q-158 -48 -192 -96z" />
    <glyph glyph-name="three.tf" 
d="M371 -15q-122 0 -199 65t-91 180l88 15q10 -88 62 -134.5t140 -46.5q86 0 133 37.5t47 104.5q0 131 -161 131h-98v75h98q65 0 102 29.5t37 80.5q0 50 -44.5 82t-114.5 32q-80 0 -128.5 -38t-61.5 -109l-87 15q15 96 90 153.5t187 57.5q108 0 176 -53t68 -138
q0 -92 -87 -140v-2q112 -51 112 -181q0 -98 -73 -157t-195 -59z" />
    <glyph glyph-name="four.tf" 
d="M476 0v137h-428v76l376 487h139v-486h107v-77h-107v-137h-87zM142 214h334v426h-2z" />
    <glyph glyph-name="five.tf" 
d="M364 -15q-119 0 -199 55.5t-103 152.5l83 25q42 -154 219 -154q94 0 150.5 45.5t56.5 122.5q0 78 -57.5 125t-149.5 47q-126 0 -212 -83l-76 20l71 359h446v-79h-378l-39 -197l2 -1q85 55 194 55q127 0 207 -68t80 -178q0 -111 -81.5 -179t-213.5 -68z" />
    <glyph glyph-name="six.tf" 
d="M392 466q120 0 197.5 -67.5t77.5 -172.5q0 -107 -81 -174t-204 -67q-152 0 -236.5 93.5t-84.5 261.5q0 167 89 271t228 104q101 0 172.5 -51.5t94.5 -140.5l-82 -24q-42 139 -183 139q-99 0 -164.5 -79.5t-68.5 -206.5h2q33 52 98.5 83t144.5 31zM382 62q87 0 143 45
t56 119q0 78 -53.5 124t-145.5 46q-86 0 -144.5 -50t-58.5 -120q0 -72 56.5 -118t146.5 -46z" />
    <glyph glyph-name="seven.tf" 
d="M190 0l333 619v2h-430v79h534v-72l-336 -628h-101z" />
    <glyph glyph-name="eight.tf" 
d="M361 -15q-141 0 -221.5 60t-80.5 154q0 62 39 111.5t108 71.5v2q-101 44 -101 143q0 85 72.5 136.5t183.5 51.5q112 0 184.5 -51.5t72.5 -136.5q0 -99 -101 -143v-2q69 -22 108 -71.5t39 -111.5q0 -94 -80.5 -154t-222.5 -60zM361 416q77 0 122 30t45 80t-46.5 80.5
t-120.5 30.5t-120 -30.5t-46 -80.5t45 -80t121 -30zM361 67q100 0 156 36.5t56 98.5q0 61 -57.5 99t-154.5 38q-96 0 -153.5 -38t-57.5 -99q0 -62 55.5 -98.5t155.5 -36.5z" />
    <glyph glyph-name="nine.tf" 
d="M356 715q139 0 217 -87.5t78 -247.5q0 -189 -73 -292t-208 -103q-98 0 -165.5 48t-91.5 135l78 27q41 -133 179 -133q86 0 135.5 67.5t55.5 192.5h-2q-64 -84 -212 -84q-124 0 -197.5 64.5t-73.5 172.5q0 104 79 172t201 68zM356 311q87 0 140 45t53 119q0 70 -55 116.5
t-138 46.5q-86 0 -140.5 -46t-54.5 -117q0 -77 51.5 -120.5t143.5 -43.5z" />
    <glyph glyph-name="zero.zero" horiz-adv-x="723" 
d="M362 686q141 0 228.5 -96.5t87.5 -253.5t-87.5 -253.5t-228.5 -96.5q-142 0 -229.5 96.5t-87.5 253.5t87.5 253.5t229.5 96.5zM125 336q0 -137 71 -213l275 469q-50 25 -109 25q-109 0 -173 -75.5t-64 -205.5zM362 55q108 0 172 76t64 205q0 144 -77 219l-276 -471
q52 -29 117 -29z" />
    <glyph glyph-name="zero.zero.case" horiz-adv-x="723" 
d="M362 715q141 0 228.5 -101t87.5 -264t-87.5 -264t-228.5 -101q-142 0 -229.5 100.5t-87.5 264.5t87.5 264.5t229.5 100.5zM129 350q0 -138 66 -218l281 480q-50 30 -114 30q-108 0 -170.5 -78.5t-62.5 -213.5zM362 58q107 0 169.5 78.5t62.5 213.5q0 144 -71 223
l-281 -482q51 -33 120 -33z" />
    <glyph glyph-name="zero.zero.tf" 
d="M360 715q141 0 228.5 -101t87.5 -264t-87.5 -264t-228.5 -101q-142 0 -229.5 100.5t-87.5 264.5t87.5 264.5t229.5 100.5zM127 350q0 -138 66 -218l281 480q-50 30 -114 30q-108 0 -170.5 -78.5t-62.5 -213.5zM360 58q107 0 169.5 78.5t62.5 213.5q0 144 -71 223
l-281 -482q51 -33 120 -33z" />
    <glyph glyph-name="zero.subs" horiz-adv-x="461" 
d="M231 -159q-90 0 -145.5 60.5t-55.5 158.5t55.5 158.5t145.5 60.5q89 0 144.5 -60.5t55.5 -158.5t-55.5 -158.5t-144.5 -60.5zM231 -96q59 0 93.5 42t34.5 114t-34.5 114t-93.5 42t-93.5 -42t-34.5 -114t34.5 -114t93.5 -42z" />
    <glyph glyph-name="one.subs" horiz-adv-x="304" 
d="M161 -150v344l-136 -72v74l142 74h67v-420h-73z" />
    <glyph glyph-name="two.subs" horiz-adv-x="417" 
d="M122 -39q-15 -18 -16 -48h275v-63h-350v50q0 64 32 97q36 39 134 68q71 22 94.5 39t23.5 46q0 30 -26 48t-70 18q-51 0 -82.5 -26.5t-35.5 -70.5l-70 3q4 71 56 114t132 43q72 0 120 -36.5t48 -91.5q0 -52 -32.5 -81.5t-119.5 -57.5q-95 -30 -113 -51z" />
    <glyph glyph-name="three.subs" horiz-adv-x="410" 
d="M209 -159q-79 0 -128 39.5t-56 108.5l71 10q8 -95 113 -95q47 0 73 18.5t26 52.5q0 67 -97 67h-48v55h47q87 0 87 59q0 28 -24.5 44t-66.5 16q-90 0 -111 -81l-68 18q14 59 62 92.5t117 33.5q71 0 116.5 -33.5t45.5 -87.5q0 -53 -53 -84v-1q30 -14 47.5 -41.5t17.5 -59.5
q0 -58 -47.5 -94.5t-123.5 -36.5z" />
    <glyph glyph-name="four.subs" horiz-adv-x="423" 
d="M272 -150v77h-262v64l217 279h117v-279h64v-64h-64v-77h-72zM88 -9h184v233h-1z" />
    <glyph glyph-name="five.subs" horiz-adv-x="436" 
d="M222 -159q-74 0 -126 33t-66 89l68 23q23 -82 123 -82q52 0 82.5 24t30.5 65q0 40 -31 64t-82 24q-63 0 -117 -48l-66 19l43 218h282v-63h-228l-21 -100l1 -1q47 31 115 31q78 0 127 -40.5t49 -105.5t-51 -107.5t-133 -42.5z" />
    <glyph glyph-name="six.subs" horiz-adv-x="449" 
d="M240 130q80 0 129.5 -39.5t49.5 -99.5q0 -66 -52.5 -108t-129.5 -42q-98 0 -152.5 56.5t-54.5 157.5q0 102 56 163t149 61q65 0 109.5 -30.5t59.5 -80.5l-67 -20q-25 69 -102 69q-57 0 -91 -37t-38 -100h1q48 50 133 50zM237 -96q48 0 78.5 23.5t30.5 63.5
q0 38 -29.5 60.5t-80.5 22.5q-49 0 -81.5 -25t-32.5 -62t31.5 -60t83.5 -23z" />
    <glyph glyph-name="seven.subs" horiz-adv-x="347" 
d="M66 -150l192 356v1h-258v63h342v-57l-194 -363h-82z" />
    <glyph glyph-name="eight.subs" horiz-adv-x="441" 
d="M221 -159q-86 0 -138.5 35.5t-52.5 93.5q0 75 87 111v1q-60 30 -60 84q0 49 46.5 81t117.5 32q70 0 116.5 -32t46.5 -81q0 -54 -60 -84v-1q87 -36 87 -111q0 -58 -52.5 -93.5t-137.5 -35.5zM221 103q41 0 67 16.5t26 42.5q0 28 -25 44.5t-68 16.5t-68.5 -16.5
t-25.5 -44.5q0 -26 26.5 -42.5t67.5 -16.5zM221 -97q55 0 86.5 18.5t31.5 52.5q0 33 -32.5 53.5t-85.5 20.5t-85.5 -20.5t-32.5 -53.5q0 -34 31 -52.5t87 -18.5z" />
    <glyph glyph-name="nine.subs" horiz-adv-x="432" 
d="M210 279q90 0 141 -55t51 -152q0 -109 -48.5 -170t-134.5 -61q-64 0 -108 30t-61 82l67 22q22 -71 102 -71q46 0 74.5 34t32.5 94h-2q-41 -39 -117 -39q-80 0 -128.5 38t-48.5 102t50 105t130 41zM103 133q0 -37 29.5 -59.5t77.5 -22.5q47 0 76.5 22.5t29.5 59.5
t-29.5 60t-76.5 23q-48 0 -77.5 -23t-29.5 -60z" />
    <glyph glyph-name="zero.dnom" horiz-adv-x="461" 
d="M231 -9q-90 0 -145.5 60.5t-55.5 158.5t55.5 158.5t145.5 60.5q89 0 144.5 -60.5t55.5 -158.5t-55.5 -158.5t-144.5 -60.5zM231 54q59 0 93.5 42t34.5 114t-34.5 114t-93.5 42t-93.5 -42t-34.5 -114t34.5 -114t93.5 -42z" />
    <glyph glyph-name="one.dnom" horiz-adv-x="304" 
d="M161 0v344l-136 -72v74l142 74h67v-420h-73z" />
    <glyph glyph-name="two.dnom" horiz-adv-x="417" 
d="M122 111q-15 -18 -16 -48h275v-63h-350v50q0 64 32 97q36 39 134 68q71 22 94.5 39t23.5 46q0 30 -26 48t-70 18q-51 0 -82.5 -26.5t-35.5 -70.5l-70 3q4 71 56 114t132 43q72 0 120 -36.5t48 -91.5q0 -52 -32.5 -81.5t-119.5 -57.5q-95 -30 -113 -51z" />
    <glyph glyph-name="three.dnom" horiz-adv-x="410" 
d="M209 -9q-79 0 -128 39.5t-56 108.5l71 10q8 -95 113 -95q47 0 73 18.5t26 52.5q0 67 -97 67h-48v55h47q87 0 87 59q0 28 -24.5 44t-66.5 16q-90 0 -111 -81l-68 18q14 59 62 92.5t117 33.5q71 0 116.5 -33.5t45.5 -87.5q0 -53 -53 -84v-1q30 -14 47.5 -41.5t17.5 -59.5
q0 -58 -47.5 -94.5t-123.5 -36.5z" />
    <glyph glyph-name="four.dnom" horiz-adv-x="423" 
d="M272 0v77h-262v64l217 279h117v-279h64v-64h-64v-77h-72zM88 141h184v233h-1z" />
    <glyph glyph-name="five.dnom" horiz-adv-x="436" 
d="M222 -9q-74 0 -126 33t-66 89l68 23q23 -82 123 -82q52 0 82.5 24t30.5 65q0 40 -31 64t-82 24q-63 0 -117 -48l-66 19l43 218h282v-63h-228l-21 -100l1 -1q47 31 115 31q78 0 127 -40.5t49 -105.5t-51 -107.5t-133 -42.5z" />
    <glyph glyph-name="six.dnom" horiz-adv-x="449" 
d="M240 280q80 0 129.5 -39.5t49.5 -99.5q0 -66 -52.5 -108t-129.5 -42q-98 0 -152.5 56.5t-54.5 157.5q0 102 56 163t149 61q65 0 109.5 -30.5t59.5 -80.5l-67 -20q-25 69 -102 69q-57 0 -91 -37t-38 -100h1q48 50 133 50zM237 54q48 0 78.5 23.5t30.5 63.5
q0 38 -29.5 60.5t-80.5 22.5q-49 0 -81.5 -25t-32.5 -62t31.5 -60t83.5 -23z" />
    <glyph glyph-name="seven.dnom" horiz-adv-x="347" 
d="M66 0l192 356v1h-258v63h342v-57l-194 -363h-82z" />
    <glyph glyph-name="eight.dnom" horiz-adv-x="441" 
d="M221 -9q-86 0 -138.5 35.5t-52.5 93.5q0 75 87 111v1q-60 30 -60 84q0 49 46.5 81t117.5 32q70 0 116.5 -32t46.5 -81q0 -54 -60 -84v-1q87 -36 87 -111q0 -58 -52.5 -93.5t-137.5 -35.5zM221 253q41 0 67 16.5t26 42.5q0 28 -25 44.5t-68 16.5t-68.5 -16.5t-25.5 -44.5
q0 -26 26.5 -42.5t67.5 -16.5zM221 53q55 0 86.5 18.5t31.5 52.5q0 33 -32.5 53.5t-85.5 20.5t-85.5 -20.5t-32.5 -53.5q0 -34 31 -52.5t87 -18.5z" />
    <glyph glyph-name="nine.dnom" horiz-adv-x="432" 
d="M210 429q90 0 141 -55t51 -152q0 -109 -48.5 -170t-134.5 -61q-64 0 -108 30t-61 82l67 22q22 -71 102 -71q46 0 74.5 34t32.5 94h-2q-41 -39 -117 -39q-80 0 -128.5 38t-48.5 102t50 105t130 41zM103 283q0 -37 29.5 -59.5t77.5 -22.5q47 0 76.5 22.5t29.5 59.5
t-29.5 60t-76.5 23q-48 0 -77.5 -23t-29.5 -60z" />
    <glyph glyph-name="zero.numr" horiz-adv-x="461" 
d="M231 271q-90 0 -145.5 60.5t-55.5 158.5t55.5 158.5t145.5 60.5q89 0 144.5 -60.5t55.5 -158.5t-55.5 -158.5t-144.5 -60.5zM231 334q59 0 93.5 42t34.5 114t-34.5 114t-93.5 42t-93.5 -42t-34.5 -114t34.5 -114t93.5 -42z" />
    <glyph glyph-name="one.numr" horiz-adv-x="304" 
d="M161 280v344l-136 -72v74l142 74h67v-420h-73z" />
    <glyph glyph-name="two.numr" horiz-adv-x="417" 
d="M122 391q-15 -18 -16 -48h275v-63h-350v50q0 64 32 97q36 39 134 68q71 22 94.5 39t23.5 46q0 30 -26 48t-70 18q-51 0 -82.5 -26.5t-35.5 -70.5l-70 3q4 71 56 114t132 43q72 0 120 -36.5t48 -91.5q0 -52 -32.5 -81.5t-119.5 -57.5q-95 -30 -113 -51z" />
    <glyph glyph-name="three.numr" horiz-adv-x="410" 
d="M209 271q-79 0 -128 39.5t-56 108.5l71 10q8 -95 113 -95q47 0 73 18.5t26 52.5q0 67 -97 67h-48v55h47q87 0 87 59q0 28 -24.5 44t-66.5 16q-90 0 -111 -81l-68 18q14 59 62 92.5t117 33.5q71 0 116.5 -33.5t45.5 -87.5q0 -53 -53 -84v-1q30 -14 47.5 -41.5t17.5 -59.5
q0 -58 -47.5 -94.5t-123.5 -36.5z" />
    <glyph glyph-name="four.numr" horiz-adv-x="423" 
d="M272 280v77h-262v64l217 279h117v-279h64v-64h-64v-77h-72zM88 421h184v233h-1z" />
    <glyph glyph-name="five.numr" horiz-adv-x="436" 
d="M222 271q-74 0 -126 33t-66 89l68 23q23 -82 123 -82q52 0 82.5 24t30.5 65q0 40 -31 64t-82 24q-63 0 -117 -48l-66 19l43 218h282v-63h-228l-21 -100l1 -1q47 31 115 31q78 0 127 -40.5t49 -105.5t-51 -107.5t-133 -42.5z" />
    <glyph glyph-name="six.numr" horiz-adv-x="449" 
d="M240 560q80 0 129.5 -39.5t49.5 -99.5q0 -66 -52.5 -108t-129.5 -42q-98 0 -152.5 56.5t-54.5 157.5q0 102 56 163t149 61q65 0 109.5 -30.5t59.5 -80.5l-67 -20q-25 69 -102 69q-57 0 -91 -37t-38 -100h1q48 50 133 50zM237 334q48 0 78.5 23.5t30.5 63.5
q0 38 -29.5 60.5t-80.5 22.5q-49 0 -81.5 -25t-32.5 -62t31.5 -60t83.5 -23z" />
    <glyph glyph-name="seven.numr" horiz-adv-x="347" 
d="M66 280l192 356v1h-258v63h342v-57l-194 -363h-82z" />
    <glyph glyph-name="eight.numr" horiz-adv-x="441" 
d="M221 271q-86 0 -138.5 35.5t-52.5 93.5q0 75 87 111v1q-60 30 -60 84q0 49 46.5 81t117.5 32q70 0 116.5 -32t46.5 -81q0 -54 -60 -84v-1q87 -36 87 -111q0 -58 -52.5 -93.5t-137.5 -35.5zM221 533q41 0 67 16.5t26 42.5q0 28 -25 44.5t-68 16.5t-68.5 -16.5t-25.5 -44.5
q0 -26 26.5 -42.5t67.5 -16.5zM221 333q55 0 86.5 18.5t31.5 52.5q0 33 -32.5 53.5t-85.5 20.5t-85.5 -20.5t-32.5 -53.5q0 -34 31 -52.5t87 -18.5z" />
    <glyph glyph-name="nine.numr" horiz-adv-x="432" 
d="M210 709q90 0 141 -55t51 -152q0 -109 -48.5 -170t-134.5 -61q-64 0 -108 30t-61 82l67 22q22 -71 102 -71q46 0 74.5 34t32.5 94h-2q-41 -39 -117 -39q-80 0 -128.5 38t-48.5 102t50 105t130 41zM103 563q0 -37 29.5 -59.5t77.5 -22.5q47 0 76.5 22.5t29.5 59.5
t-29.5 60t-76.5 23q-48 0 -77.5 -23t-29.5 -60z" />
    <glyph glyph-name="zero.sups" horiz-adv-x="461" 
d="M231 371q-90 0 -145.5 60.5t-55.5 158.5t55.5 158.5t145.5 60.5q89 0 144.5 -60.5t55.5 -158.5t-55.5 -158.5t-144.5 -60.5zM231 434q59 0 93.5 42t34.5 114t-34.5 114t-93.5 42t-93.5 -42t-34.5 -114t34.5 -114t93.5 -42z" />
    <glyph glyph-name="one.sups" horiz-adv-x="304" 
d="M161 380v344l-136 -72v74l142 74h67v-420h-73z" />
    <glyph glyph-name="two.sups" horiz-adv-x="417" 
d="M122 491q-15 -18 -16 -48h275v-63h-350v50q0 64 32 97q36 39 134 68q71 22 94.5 39t23.5 46q0 30 -26 48t-70 18q-51 0 -82.5 -26.5t-35.5 -70.5l-70 3q4 71 56 114t132 43q72 0 120 -36.5t48 -91.5q0 -52 -32.5 -81.5t-119.5 -57.5q-95 -30 -113 -51z" />
    <glyph glyph-name="three.sups" horiz-adv-x="410" 
d="M209 371q-79 0 -128 39.5t-56 108.5l71 10q8 -95 113 -95q47 0 73 18.5t26 52.5q0 67 -97 67h-48v55h47q87 0 87 59q0 28 -24.5 44t-66.5 16q-90 0 -111 -81l-68 18q14 59 62 92.5t117 33.5q71 0 116.5 -33.5t45.5 -87.5q0 -53 -53 -84v-1q30 -14 47.5 -41.5t17.5 -59.5
q0 -58 -47.5 -94.5t-123.5 -36.5z" />
    <glyph glyph-name="four.sups" horiz-adv-x="423" 
d="M272 380v77h-262v64l217 279h117v-279h64v-64h-64v-77h-72zM88 521h184v233h-1z" />
    <glyph glyph-name="five.sups" horiz-adv-x="436" 
d="M222 371q-74 0 -126 33t-66 89l68 23q23 -82 123 -82q52 0 82.5 24t30.5 65q0 40 -31 64t-82 24q-63 0 -117 -48l-66 19l43 218h282v-63h-228l-21 -100l1 -1q47 31 115 31q78 0 127 -40.5t49 -105.5t-51 -107.5t-133 -42.5z" />
    <glyph glyph-name="six.sups" horiz-adv-x="449" 
d="M240 660q80 0 129.5 -39.5t49.5 -99.5q0 -66 -52.5 -108t-129.5 -42q-98 0 -152.5 56.5t-54.5 157.5q0 102 56 163t149 61q65 0 109.5 -30.5t59.5 -80.5l-67 -20q-25 69 -102 69q-57 0 -91 -37t-38 -100h1q48 50 133 50zM237 434q48 0 78.5 23.5t30.5 63.5
q0 38 -29.5 60.5t-80.5 22.5q-49 0 -81.5 -25t-32.5 -62t31.5 -60t83.5 -23z" />
    <glyph glyph-name="seven.sups" horiz-adv-x="347" 
d="M66 380l192 356v1h-258v63h342v-57l-194 -363h-82z" />
    <glyph glyph-name="eight.sups" horiz-adv-x="441" 
d="M221 371q-86 0 -138.5 35.5t-52.5 93.5q0 75 87 111v1q-60 30 -60 84q0 49 46.5 81t117.5 32q70 0 116.5 -32t46.5 -81q0 -54 -60 -84v-1q87 -36 87 -111q0 -58 -52.5 -93.5t-137.5 -35.5zM221 633q41 0 67 16.5t26 42.5q0 28 -25 44.5t-68 16.5t-68.5 -16.5t-25.5 -44.5
q0 -26 26.5 -42.5t67.5 -16.5zM221 433q55 0 86.5 18.5t31.5 52.5q0 33 -32.5 53.5t-85.5 20.5t-85.5 -20.5t-32.5 -53.5q0 -34 31 -52.5t87 -18.5z" />
    <glyph glyph-name="nine.sups" horiz-adv-x="432" 
d="M210 809q90 0 141 -55t51 -152q0 -109 -48.5 -170t-134.5 -61q-64 0 -108 30t-61 82l67 22q22 -71 102 -71q46 0 74.5 34t32.5 94h-2q-41 -39 -117 -39q-80 0 -128.5 38t-48.5 102t50 105t130 41zM103 663q0 -37 29.5 -59.5t77.5 -22.5q47 0 76.5 22.5t29.5 59.5
t-29.5 60t-76.5 23q-48 0 -77.5 -23t-29.5 -60z" />
    <glyph glyph-name="braceleft.case" horiz-adv-x="405" 
d="M285 -131q-70 0 -101.5 34t-31.5 109v218q0 34 -11.5 46.5t-41.5 12.5h-28v92h28q31 0 42 12.5t11 47.5v196q0 76 31.5 110t101.5 34h90v-79h-77q-36 0 -51 -19t-15 -65v-190q0 -44 -21 -68t-52 -24v-2q31 0 52 -24t21 -69v-210q0 -46 15 -65t51 -19h77v-78h-90z" />
    <glyph glyph-name="braceright.case" horiz-adv-x="405" 
d="M120 -131h-90v78h77q36 0 51 19t15 65v210q0 45 21 69t52 24v2q-31 0 -52 24t-21 68v190q0 46 -15 65t-51 19h-77v79h90q70 0 101.5 -34t31.5 -110v-196q0 -35 11.5 -47.5t41.5 -12.5h28v-92h-28q-30 0 -41.5 -12.5t-11.5 -46.5v-218q0 -75 -31.5 -109t-101.5 -34z" />
    <glyph glyph-name="bracketleft.case" horiz-adv-x="339" 
d="M86 -131v912h223v-74h-143v-764h143v-74h-223z" />
    <glyph glyph-name="bracketright.case" horiz-adv-x="339" 
d="M253 -131h-223v74h143v764h-143v74h223v-912z" />
    <glyph glyph-name="parenleft.case" horiz-adv-x="367" 
d="M292 -147q-201 221 -201 492t201 492l54 -45q-91 -109 -131 -214t-40 -233t40 -233t131 -214z" />
    <glyph glyph-name="parenright.case" horiz-adv-x="367" 
d="M75 -147l-54 45q91 109 131 214t40 233t-40 233t-131 214l54 45q201 -221 201 -492t-201 -492z" />
    <glyph glyph-name="emdash.case" horiz-adv-x="841" 
d="M51 323v78h739v-78h-739z" />
    <glyph glyph-name="endash.case" horiz-adv-x="555" 
d="M51 323v78h453v-78h-453z" />
    <glyph glyph-name="hyphen.case" horiz-adv-x="363" 
d="M51 323v78h261v-78h-261z" />
    <glyph glyph-name="uni00AD.case" horiz-adv-x="363" 
d="M51 323v78h261v-78h-261z" />
    <glyph glyph-name="guillemotleft.case" horiz-adv-x="478" 
d="M181 145l-110 186l110 186h80l-113 -186l113 -186h-80zM338 145l-110 186l110 186h80l-113 -186l113 -186h-80z" />
    <glyph glyph-name="guillemotright.case" horiz-adv-x="478" 
d="M140 145h-80l113 186l-113 186h80l110 -186zM297 145h-80l113 186l-113 186h80l110 -186z" />
    <glyph glyph-name="guilsinglleft.case" horiz-adv-x="322" 
d="M181 145l-110 186l110 186h80l-113 -186l113 -186h-80z" />
    <glyph glyph-name="guilsinglright.case" horiz-adv-x="322" 
d="M141 145h-80l113 186l-113 186h80l110 -186z" />
    <glyph glyph-name="uni0E3F.tf" 
d="M550 373q50 -17 80 -61.5t30 -105.5q0 -101 -63 -153.5t-184 -52.5h-33v-110h-51v110h-238v700h238v101h51v-101h49q93 0 149 -49t56 -131q0 -51 -22.5 -89.5t-61.5 -55.5v-2zM177 621v-217h152v217h-152zM409 621h-29v-217h30q137 0 137 112q0 105 -138 105zM177 79h152
v251h-152v-251zM398 79q91 0 133 30.5t42 96.5t-40.5 95t-132.5 29h-20v-251h18z" />
    <glyph glyph-name="cent.tf" 
d="M372 56q66 5 113 40.5t67 98.5l77 -19q-22 -82 -92 -133t-165 -57v-96h-51v96q-117 9 -193 87t-76 192q0 113 76 191.5t193 87.5v87h51v-87q95 -6 165 -57t92 -133l-77 -19q-20 63 -67 98.5t-113 40.5v-418zM132 265q0 -87 53 -144t136 -65v418q-83 -8 -136 -65t-53 -144
z" />
    <glyph glyph-name="currency.tf" 
d="M593 330q0 -85 -46 -150l66 -67l-38 -38l-66 64q-64 -53 -150 -53q-88 0 -150 53l-65 -64l-38 38l65 67q-46 65 -46 150t45 149l-64 65l38 39l63 -63q63 55 152 55q88 0 152 -56l64 64l38 -39l-64 -66q44 -64 44 -148zM360 160q68 0 108 46t40 122q0 79 -40 126t-108 47
q-69 0 -109.5 -47t-40.5 -126q0 -77 40.5 -122.5t109.5 -45.5z" />
    <glyph glyph-name="dollar.tf" 
d="M383 403q41 -8 68.5 -15t63.5 -19t59.5 -27.5t46 -37t33 -52t10.5 -67.5q0 -88 -74.5 -144t-201.5 -56h-5v-95h-51v98q-119 12 -191.5 77.5t-84.5 180.5l86 13q21 -173 190 -195v267q-40 8 -65 14.5t-59 17.5t-55 24.5t-41.5 32t-30 44.5t-9.5 58q0 85 72 139t188 54v86
h51v-89q103 -12 171 -70t81 -145l-83 -16q-30 134 -169 155v-233zM156 524q0 -25 13 -43.5t40 -31t53.5 -20t69.5 -16.5v227h-1q-78 0 -126.5 -32t-48.5 -84zM389 60q89 0 140 34t51 89q0 32 -15 55t-45.5 38.5t-60 25t-76.5 19.5v-261h6z" />
    <glyph glyph-name="Euro.tf" 
d="M601 259l84 -14q-13 -121 -89.5 -190.5t-195.5 -69.5q-113 0 -192 68.5t-105 186.5h-87v74h76q-1 12 -1 36q0 23 1 34h-76v74h86q26 119 105.5 188t192.5 69q112 0 189 -65.5t94 -175.5l-82 -16q-16 87 -68 132.5t-133 45.5q-79 0 -135 -47t-78 -131h285v-74h-297
q-1 -11 -1 -34q0 -24 1 -36h226v-74h-214q23 -84 78 -130t135 -46q85 0 136.5 49.5t64.5 145.5z" />
    <glyph glyph-name="florin.tf" 
d="M508 642q-29 0 -42.5 -12t-19.5 -42l-11 -58h173v-72h-184l-79 -444l-14 -78q-17 -109 -142 -109h-87v72h89q29 0 42.5 11.5t19.5 41.5l89 506h-150v72h162l13 75q20 109 143 109h108v-72h-110z" />
    <glyph glyph-name="lira.tf" 
d="M547 365h88q0 -159 -100 -262t-260 -103h-87v317l-76 -28l-27 67l103 38v79l-76 -28l-27 67l103 38v150h87v-119l207 76l26 -67l-233 -85v-80l207 76l26 -67l-233 -85v-270q121 0 196.5 78.5t75.5 207.5z" />
    <glyph glyph-name="uni20BD.tf" 
d="M428 700q112 0 177 -58t65 -157q0 -100 -64.5 -157.5t-177.5 -57.5h-200v-78h174v-74h-174v-118h-87v118h-100v74h100v78h-100v74h100v356h287zM425 349q81 0 119.5 33.5t38.5 102.5q0 136 -158 136h-197v-272h197z" />
    <glyph glyph-name="uni20A8.tf" 
d="M645 631h-130v-2q47 -38 58 -100h72v-74h-72q-9 -75 -62.5 -119.5t-142.5 -50.5v-2l182 -283h-100l-180 284h-196v78h258q134 0 154 93h-411v74h410q-20 92 -155 92h-256v79h571v-69z" />
    <glyph glyph-name="sterling.tf" 
d="M292 81v-2h334v-79h-548v79h58q59 0 94 33.5t35 87.5q0 52 -48 105h-139v74h73q-55 60 -55 133q0 94 70 148.5t187 54.5q119 0 197.5 -57.5t91.5 -156.5l-87 -14q-27 149 -202 149q-78 0 -122 -33t-44 -91q0 -35 18 -65t52 -68h262v-74h-207q35 -50 35 -105
q0 -77 -55 -119z" />
    <glyph glyph-name="uni20A9.tf" 
d="M715 484h-52l-12 -69h64v-67h-76l-63 -348h-90l-108 348h-38l-107 -348h-90l-63 348h-75v67h63l-12 69h-51v65h39l-27 151h77l26 -151h479l26 151h77l-27 -151h40v-65zM131 484l12 -69h146l21 69h-179zM576 415l12 69h-179l21 -69h146zM197 118l71 230h-113l40 -230h2z
M524 118l40 230h-113l71 -230h2z" />
    <glyph glyph-name="yen.tf" 
d="M695 700l-250 -355h197v-74h-239v-71h239v-74h-239v-126h-86v126h-238v74h238v71h-238v74h196l-250 355h102l232 -339h2l232 339h102z" />
    <glyph glyph-name="plus.tf" 
d="M593 402v-69h-197v-211h-73v211h-197v69h197v210h73v-210h197z" />
    <glyph glyph-name="minus.tf" 
d="M151 333v69h417v-69h-417z" />
    <glyph glyph-name="multiply.tf" 
d="M196 133l-49 49l165 164l-165 163l49 50l164 -165l164 165l49 -50l-165 -163l165 -164l-49 -49l-164 164z" />
    <glyph glyph-name="divide.tf" 
d="M359 496q-29 0 -48.5 20t-19.5 48q0 30 19.5 50.5t48.5 20.5q30 0 50.5 -20.5t20.5 -50.5q0 -29 -20.5 -48.5t-50.5 -19.5zM151 333v69h418v-69h-418zM359 96q-29 0 -48.5 20t-19.5 49t20 49.5t48 20.5q30 0 50.5 -20.5t20.5 -49.5t-20.5 -49t-50.5 -20z" />
    <glyph glyph-name="equal.tf" 
d="M145 410v73h431v-73h-431zM145 223v72h431v-72h-431z" />
    <glyph glyph-name="notequal.tf" 
d="M576 410h-153l-64 -115h217v-72h-258l-61 -109l-45 26l46 83h-113v72h154l64 115h-218v73h259l60 108l46 -26l-46 -82h112v-73z" />
    <glyph glyph-name="greater.tf" 
d="M185 83l-40 64l345 204l-345 204l40 64l389 -234v-68z" />
    <glyph glyph-name="less.tf" 
d="M534 83l-389 234v68l389 234l40 -64l-345 -204l345 -204z" />
    <glyph glyph-name="greaterequal.tf" 
d="M188 125l-38 60l346 207l-347 208l39 59l389 -233v-67zM143 0v72h434v-72h-434z" />
    <glyph glyph-name="lessequal.tf" 
d="M532 125l-389 234v67l389 233l39 -59l-347 -208l346 -207zM577 0h-434v72h434v-72z" />
    <glyph glyph-name="plusminus.tf" 
d="M398 460h197v-68h-197v-192h-73v192h-197v68h197v192h73v-192zM125 70v67h468v-67h-468z" />
    <glyph glyph-name="approxequal.tf" 
d="M183 364l-67 21q13 62 50 96t90 34q39 0 78 -20t71 -40t56 -20q27 0 44.5 18.5t30.5 62.5l68 -21q-14 -62 -51 -96.5t-90 -34.5q-31 0 -62.5 12.5t-52.5 28t-45.5 28t-43.5 12.5q-28 0 -45.5 -18t-30.5 -63zM183 189l-67 21q13 62 50 96t90 34q39 0 78 -20t71 -40t56 -20
q27 0 44.5 18.5t30.5 62.5l68 -21q-14 -62 -51 -96.5t-90 -34.5q-39 0 -78 20.5t-71 40.5t-55 20q-28 0 -45.5 -18t-30.5 -63z" />
    <glyph glyph-name="percent.tf" 
d="M232 441q-90 0 -145.5 60.5t-55.5 158.5t55.5 158.5t145.5 60.5q91 0 146.5 -60.5t55.5 -158.5t-55.5 -158.5t-146.5 -60.5zM232 509q57 0 90.5 40.5t33.5 110.5t-33.5 111t-90.5 41t-90.5 -41t-33.5 -111t33.5 -110.5t90.5 -40.5zM172 196l-39 68l395 228l39 -68z
M488 -179q-90 0 -145.5 60.5t-55.5 158.5t55.5 158.5t145.5 60.5q91 0 146.5 -60.5t55.5 -158.5t-55.5 -158.5t-146.5 -60.5zM488 -112q57 0 90.5 41t33.5 111t-33.5 111t-90.5 41t-90.5 -41t-33.5 -111t33.5 -111t90.5 -41z" />
    <glyph glyph-name="perthousand.tf" 
d="M231 471q-91 0 -146.5 60.5t-55.5 158.5t55.5 158.5t146.5 60.5t146 -60.5t55 -158.5t-55.5 -158.5t-145.5 -60.5zM231 539q57 0 90.5 40.5t33.5 110.5q0 71 -33.5 111.5t-90.5 40.5q-58 0 -91.5 -40.5t-33.5 -111.5q0 -70 33.5 -110.5t91.5 -40.5zM105 266l-26 71
l480 173l25 -70zM209 -219q-86 0 -140 61t-54 158t54 158t140 61q73 0 120 -47q16 68 65 107.5t117 39.5q86 0 140 -61t54 -158t-54 -158t-140 -61q-74 0 -121 47q-16 -69 -64.5 -108t-116.5 -39zM510 -52q53 0 85.5 41t32.5 111t-32.5 111t-85.5 41t-85.5 -41t-32.5 -111
t32.5 -111t85.5 -41zM210 -152q53 0 85.5 41t32.5 111t-32.5 111t-85.5 41q-54 0 -86 -41t-32 -111q0 -71 32 -111.5t86 -40.5z" />
    <glyph glyph-name="at.case" horiz-adv-x="859" 
d="M432 -15q-170 0 -270.5 97t-100.5 268q0 154 104.5 259.5t263.5 105.5q167 0 268 -97t101 -252q0 -108 -37.5 -163t-108.5 -55q-77 0 -101 53h-2q-17 -26 -56 -41.5t-88 -15.5q-68 0 -108 30.5t-40 83.5q0 88 123 116q89 19 116.5 32t27.5 36q0 22 -23 35t-62 13
q-94 0 -109 -75l-69 12q10 57 59 91.5t119 34.5q73 0 115.5 -35.5t42.5 -96.5v-136q0 -46 11 -61.5t45 -15.5q77 0 77 158q0 129 -80 208t-221 79q-132 0 -216 -87t-84 -216q0 -146 80.5 -224.5t222.5 -78.5q120 0 215 46l27 -57q-106 -51 -242 -51zM412 208q52 0 83 20.5
t31 54.5v85h-2q-14 -24 -117 -47q-43 -10 -61 -23.5t-18 -35.5q0 -54 84 -54z" />
    <glyph glyph-name="slashshortcomb_alt" horiz-adv-x="0" 
d="M0 386l-179 -166v17l-122 -113l-35 37l157 145v-16l144 134z" />
    <glyph glyph-name="slashlongcomb_alt" horiz-adv-x="0" 
d="M0 460l-276 -246v4l-156 -145l-33 34l190 177l9 8l15 14l216 193z" />
    <glyph glyph-name="uni0307.alt" horiz-adv-x="0" 
d="M-95 623v91h95v-91h-95z" />
    <glyph glyph-name="uni0335.alt" horiz-adv-x="0" 
d="M-336 331v63h336v-63h-336z" />
    </font>
</defs>
</svg>
