<svg xmlns="http://www.w3.org/2000/svg" viewBox="0 0 39.2 39.2"><defs><style>.cls-1{fill:#ed1c24;}.cls-2{fill:#fff;}</style></defs><title>Asset 27</title><g id="Layer_2" data-name="Layer 2"><g id="Layer_1-2" data-name="Layer 1"><path class="cls-1" d="M19.6,39.2A19.6,19.6,0,1,0,0,19.6,19.61,19.61,0,0,0,19.6,39.2"/><path class="cls-2" d="M19.58,11.07l-4.66,1.8V14c1.25-.26,2.86-.67,3.26-.67s.36.55.36,6.79c0,1.73,0,5.66,0,5.66,0,.65-.53,1-1.27,1.08l-2,.29v1L19.62,28l4.66.17v-1l-2.14-.29c-.64-.09-1.1-.43-1.12-1.08,0-1-.05-2.13-.05-3.38,0-5,.12-11.3.12-11.3Z"/></g></g></svg>