<svg xmlns="http://www.w3.org/2000/svg" viewBox="0 0 39.2 39.2"><defs><style>.cls-1{fill:#ed1c24;}.cls-2{fill:#fff;}</style></defs><title>Asset 25</title><g id="Layer_2" data-name="Layer 2"><g id="Layer_1-2" data-name="Layer 1"><path class="cls-1" d="M19.6,39.2A19.6,19.6,0,1,0,0,19.6,19.61,19.61,0,0,0,19.6,39.2"/><path class="cls-2" d="M14.09,28.14c.58,0,2.64,0,4.2,0,3.6,0,6.41.05,6.41.05l.41-2.52-8.67.16,5.07-5.13c2.18-2.23,3.16-3.39,3.16-5.21,0-2.83-2.25-4.44-5.13-4.44-3.46,0-5.4,1.87-5.4,3.31a2.07,2.07,0,0,0,2,2l.6-.48V13.21c0-.86,1.15-1.05,1.83-1.05,2.56,0,3.48,1.85,3.48,3.93,0,1.52-.41,2.79-2.45,5-1.69,1.8-5.55,5.64-5.55,5.64Z"/></g></g></svg>