<svg xmlns="http://www.w3.org/2000/svg" viewBox="0 0 39.2 39.2"><defs><style>.cls-1{fill:#ed1c24;}.cls-2{fill:#fff;}</style></defs><title>Asset 26</title><g id="Layer_2" data-name="Layer 2"><g id="Layer_1-2" data-name="Layer 1"><path class="cls-1" d="M19.6,39.2A19.6,19.6,0,1,0,0,19.6,19.61,19.61,0,0,0,19.6,39.2"/><path class="cls-2" d="M15.15,13.71a5.63,5.63,0,0,1,3.55-1.32c2.14,0,3.1,1.15,3.1,2.54,0,1.87-1.78,3.2-5.47,3.67l0,1.42s1-.07,1.56-.07c3.38,0,4.87,1.75,4.87,3.79,0,1.75-1.25,3.67-4.27,3.67-.77,0-1.68-.09-1.68-.57V24.43L16.18,24c-1.1.08-2.11.7-2.11,1.76,0,1.46,1.39,2.61,4.58,2.61,3.7,0,6.48-2.06,6.48-5.33,0-2.92-2.88-4.65-5.08-4.7,2.35-.4,4.26-1.8,4.26-4.06,0-1.72-1.34-3.35-4.22-3.35A7.59,7.59,0,0,0,14.65,13Z"/></g></g></svg>