<svg xmlns="http://www.w3.org/2000/svg" viewBox="0 0 39.2 39.2"><defs><style>.cls-1{fill:#00a651;}.cls-2{fill:#fff;}</style></defs><title>Asset 18</title><g id="Layer_2" data-name="Layer 2"><g id="Layer_1-2" data-name="Layer 1"><path class="cls-1" d="M19.6,39.2A19.6,19.6,0,1,0,0,19.6,19.61,19.61,0,0,0,19.6,39.2"/><path class="cls-2" d="M20.73,26.25c0,.74-.26,1-1.15,1.15l-1.06.24v.86l3.39-.12,3.45.12v-.86L24.3,27.4c-.89-.19-1.17-.41-1.17-1.15V23.56h2.71v-1.2H23.13V17.78l-2.54.07c.07.5.14,2.74.14,4.08v.43h-6c1.44-2.54,7.92-11.59,7.92-11.59l-2-.07c-2.35,3.45-6.76,10.61-7.27,11.69v1.17h7.37Z"/></g></g></svg>