<svg xmlns="http://www.w3.org/2000/svg" viewBox="0 0 39.2 39.2"><defs><style>.cls-1{fill:#00a651;}.cls-2{fill:#fff;}</style></defs><title>Asset 17</title><g id="Layer_2" data-name="Layer 2"><g id="Layer_1-2" data-name="Layer 1"><path class="cls-1" d="M19.6,39.2A19.6,19.6,0,1,0,0,19.6,19.61,19.61,0,0,0,19.6,39.2"/><path class="cls-2" d="M18.68,27.39c-.77,0-1.87-.1-1.87-.58v-2.4l-.58-.48c-1.1.08-2.11.7-2.11,1.76,0,1.46,1.46,2.61,4.58,2.61a6.08,6.08,0,0,0,6.38-5.85c0-4.33-4.41-5.7-7.72-5.7-.41,0-.89,0-1.2.05l.19-3.4s3.6,0,5.33,0a24.67,24.67,0,0,0,3.14-.12L25,10.9s-6.94.24-9.62.24l-.44,8c.48-.05,1.47-.1,2-.1,3.1,0,6.15,1.15,6.15,4.49,0,2.07-1.78,3.82-4.37,3.82"/></g></g></svg>