<svg xmlns="http://www.w3.org/2000/svg" viewBox="0 0 39.2 39.2"><defs><style>.cls-1{fill:#00a651;}.cls-2{fill:#fff;}</style></defs><title>Asset 16</title><g id="Layer_2" data-name="Layer 2"><g id="Layer_1-2" data-name="Layer 1"><path class="cls-1" d="M19.6,39.2A19.6,19.6,0,1,0,0,19.6,19.61,19.61,0,0,0,19.6,39.2"/><path class="cls-2" d="M19.62,29.08a5.71,5.71,0,0,0,6-5.88c0-3.62-2.47-5.54-5.09-5.54a4.67,4.67,0,0,0-4.25,2.25L16,19.84c2-5.18,5.19-7.73,8.59-8.95l-.33-.77C17.73,11.78,13.6,16.24,13.6,22.19c0,3.67,2.06,6.89,6,6.89m-3.33-5.83c0-2.23,1.12-4.32,3.33-4.32s3.51,2,3.51,4.61C23.13,25.79,22,28,19.72,28c-2.5,0-3.43-2.74-3.43-4.73"/></g></g></svg>