<svg xmlns="http://www.w3.org/2000/svg" viewBox="0 0 39.2 39.2"><defs><style>.cls-1{fill:#2e3192;}.cls-2{fill:#fff;}</style></defs><title>Asset 24</title><g id="Layer_2" data-name="Layer 2"><g id="Layer_1-2" data-name="Layer 1"><path class="cls-1" d="M19.6,39.2A19.6,19.6,0,1,0,0,19.6,19.61,19.61,0,0,0,19.6,39.2"/><path class="cls-2" d="M21.52,20.21H16.41L19,13.37Zm.36,1.06s1.18,3,1.85,4.84c.24.7-.12,1-1,1.16l-1.3.24v.86l3.75-.12,3.69.12v-.86l-1.2-.24c-.76-.15-1-.46-1.27-1.16C23,18,20.32,10.83,20.32,10.83l-1.63.46s-3.12,8.16-5.81,14.85a1.56,1.56,0,0,1-1.34,1.13l-1.2.24v.86l2.52-.12,3.67.12v-.86l-1.25-.24c-.89-.17-1.22-.46-1-1.16,0,0,.6-1.72,1.7-4.84Z"/></g></g></svg>