<svg xmlns="http://www.w3.org/2000/svg" viewBox="0 0 39.2 39.2"><defs><style>.cls-1{fill:#2e3192;}.cls-2{fill:#fff;}</style></defs><title>Asset 23</title><g id="Layer_2" data-name="Layer 2"><g id="Layer_1-2" data-name="Layer 1"><path class="cls-1" d="M19.6,39.2A19.6,19.6,0,1,0,0,19.6,19.61,19.61,0,0,0,19.6,39.2"/><path class="cls-2" d="M14.58,19c0-5.59,3.55-7.11,6.46-7.11A4.1,4.1,0,0,1,25.33,15l.44,1.3h.76l.53-5.07-1.89.27A13.29,13.29,0,0,0,21,10.84a8.71,8.71,0,0,0-9,8.86c0,4.7,3,8.66,8.78,8.66A13.79,13.79,0,0,0,27.06,27c0-2.21.07-4.16.07-4.16h-.86L24.9,26.51a9.48,9.48,0,0,1-2.81.39c-4.75,0-7.51-3-7.51-7.92"/></g></g></svg>