<svg xmlns="http://www.w3.org/2000/svg" viewBox="0 0 39.2 39.2"><defs><style>.cls-1{fill:#2e3192;}.cls-2{fill:#fff;}</style></defs><title>Asset 29</title><g id="Layer_2" data-name="Layer 2"><g id="Layer_1-2" data-name="Layer 1"><path class="cls-1" d="M19.6,39.2A19.6,19.6,0,1,0,0,19.6,19.61,19.61,0,0,0,19.6,39.2"/><path class="cls-2" d="M17.23,19v-6.3c0-.24,0-.38.44-.38h4.77c1,0,1.47.84,1.85,2.36l.29,1.17h.86c.24-3.41.43-4.87.43-4.87s-2.4.26-3.81.26H16l-3.69-.12V12l1.3.24c.89.17,1.1.36,1.17,1.18,0,0,.08,2.31.08,6.27s-.08,6.23-.08,6.23c0,.72-.28,1-1.17,1.16l-1.3.24v.86L16,28.07h5.31c1.44,0,4.7.12,4.7.12l.82-5.2H26l-1.13,2.06C24,26.78,23.16,27,21.94,27H19c-1.23,0-1.76-.48-1.76-1.51V20s1.88,0,3.29.09c.77.05,1.06.34,1.3,1.23l.33,1.32H23l-.12-3.17L23,16.39h-.84l-.33,1.32c-.22.88-.53,1.17-1.3,1.22-1.41.07-3.29.1-3.29.1"/></g></g></svg>