<svg xmlns="http://www.w3.org/2000/svg" viewBox="0 0 39.2 39.2"><defs><style>.cls-1{fill:#d88d2a;}.cls-2{fill:#fff;}</style></defs><title>Asset 20</title><g id="Layer_2" data-name="Layer 2"><g id="Layer_1-2" data-name="Layer 1"><path class="cls-1" d="M19.6,39.2A19.6,19.6,0,1,0,0,19.6,19.61,19.61,0,0,0,19.6,39.2"/><path class="cls-2" d="M21.09,25.9V17.52c0-4,.07-6.26.07-6.26.07-.81.26-1,1.17-1.17l1.28-.24V9l-3.68.12L16.36,9v.87l1.18.24c.89.19,1.1.36,1.17,1.17,0,0,.08,2.3.08,6.26,0,3.48-.08,7.54-.08,7.54,0,2.93-1.08,3.89-3.12,4.32l.41.84c2.91-.1,5.09-1.27,5.09-4.32"/></g></g></svg>