<svg xmlns="http://www.w3.org/2000/svg" viewBox="0 0 39.2 39.2"><defs><style>.cls-1{fill:#1c9ad6;}.cls-2{fill:#fff;}</style></defs><title>Asset 28</title><g id="Layer_2" data-name="Layer 2"><g id="Layer_1-2" data-name="Layer 1"><path class="cls-1" d="M19.6,39.2A19.6,19.6,0,1,0,0,19.6,19.61,19.61,0,0,0,19.6,39.2"/><path class="cls-2" d="M20.07,27.33l-1.3-.24c-.89-.17-1.15-.44-1.17-1.16,0,0-.08-2.28-.08-6.23s.05-7.23.05-7.23c0-.24.05-.38.46-.38h2.25A3.46,3.46,0,0,1,24,15.88C24,18.62,22.3,20,20.14,20L19,20v1a7.08,7.08,0,0,0,1.3.14c4.56,0,6.24-2.88,6.24-5.3,0-3.58-2.95-4.8-5.28-4.8-1.56,0-3.89.22-3.89.22l-4.63-.08V12l1.3.24c.88.17,1.1.36,1.17,1.18,0,0,.07,2.3.07,6.27s-.07,6.23-.07,6.23c0,.72-.29,1-1.17,1.16l-1.3.24v.86l3.7-.12,3.67.12Z"/></g></g></svg>