<svg xmlns="http://www.w3.org/2000/svg" viewBox="0 0 39.2 39.2"><defs><style>.cls-1{fill:#ffd949;}.cls-2{fill:#fff;}</style></defs><title>Asset 22</title><g id="Layer_2" data-name="Layer 2"><g id="Layer_1-2" data-name="Layer 1"><path class="cls-1" d="M19.6,39.2A19.6,19.6,0,1,0,0,19.6,19.61,19.61,0,0,0,19.6,39.2"/><path class="cls-2" d="M20,12c2.19,0,4,1.23,4,3.63,0,2.73-1.75,3.79-2.71,3.79a27.57,27.57,0,0,1-3.46-.19V12.34c0-.24,0-.39.43-.39Zm-4.56,7.61c0,4-.07,6.24-.07,6.24,0,.72-.29,1-1.18,1.15l-1.29.24v.87l3.69-.12,3.77.12v-.87L19.1,27c-.89-.16-1.15-.4-1.17-1.15-.08-2.81-.1-5.4-.1-5.4h2.93c.7,1,2.4,3.94,3.22,5.09,1.29,1.9,2.51,2.83,6,2.83l.24-1a3.58,3.58,0,0,1-2.18-.91,19.06,19.06,0,0,1-2.35-2.81l-2.66-3.79v-.1c2.18-.89,3.45-2.52,3.45-4.42,0-3.57-3-4.43-5.06-4.43-1.56,0-3.68.21-3.68.21L12.94,11v.86l1.29.24c.89.17,1.11.36,1.18,1.18,0,0,.07,2.3.07,6.26"/></g></g></svg>