<svg xmlns="http://www.w3.org/2000/svg" viewBox="0 0 39.2 39.2"><defs><style>.cls-1{fill:#ffd949;}.cls-2{fill:#fff;}</style></defs><title>Asset 21</title><g id="Layer_2" data-name="Layer 2"><g id="Layer_1-2" data-name="Layer 1"><path class="cls-1" d="M19.6,39.2A19.6,19.6,0,1,0,0,19.6,19.61,19.61,0,0,0,19.6,39.2"/><path class="cls-2" d="M25.25,30s1.61-4.8,5.52-14.83a1.59,1.59,0,0,1,1.35-1.13l1.2-.24V13l-2.52.12L27,13v.86l1.29.24c.89.17,1.3.46,1.06,1.16L24.94,28s-3-8.4-4-11.58c-.58-1.73.07-2.14.91-2.31l1.42-.29V13l-3,.1L15.53,13v.86l1.2.24A1.41,1.41,0,0,1,18,15.21l1.08,3.3L15.32,28s-2.43-7.6-4.2-12.78c-.24-.7.16-1,1.05-1.16l1.3-.24V13l-3.89.12L5.88,13v.86l1.2.24a1.5,1.5,0,0,1,1.28,1.16c2.08,5.8,5.28,15,5.28,15l2-.24,3.93-10.15c.92,2.88,3.7,10.39,3.7,10.39Z"/></g></g></svg>