<svg xmlns="http://www.w3.org/2000/svg" viewBox="0 0 39.2 39.2"><defs><style>.cls-1{fill:#d88d2a;}.cls-2{fill:#fff;}</style></defs><title>Asset 19</title><g id="Layer_2" data-name="Layer 2"><g id="Layer_1-2" data-name="Layer 1"><path class="cls-1" d="M19.6,39.2A19.6,19.6,0,1,0,0,19.6,19.61,19.61,0,0,0,19.6,39.2"/><path class="cls-2" d="M23.08,12.37c-6.6,9.29-10.75,14.79-10.75,14.79v1l3-.1h6c1.44,0,4.71.12,4.71.12L26.87,23h-.81l-1.13,2.07C24,26.78,23.15,27,21.93,27h-6c-.36,0-.36-.24-.27-.38,6.63-9.18,10.4-14.38,10.4-14.38v-1s-2.84.09-10,.09A29.55,29.55,0,0,1,12.52,11l.19,4.87h.87l.31-1.17c.38-1.52.84-2.34,1.82-2.34Z"/></g></g></svg>