<svg xmlns="http://www.w3.org/2000/svg" viewBox="0 0 464.4 427.79"><defs><style>.cls-1,.cls-10,.cls-12,.cls-14,.cls-15,.cls-2,.cls-6,.cls-8,.cls-9{fill:none;}.cls-1{stroke:#a8a9ac;}.cls-1,.cls-11,.cls-12,.cls-13,.cls-14,.cls-15,.cls-2,.cls-3,.cls-4,.cls-6,.cls-8,.cls-9{stroke-linecap:round;stroke-linejoin:round;}.cls-1,.cls-4,.cls-6,.cls-7{stroke-width:0.15px;}.cls-10,.cls-11,.cls-12,.cls-13,.cls-14,.cls-15,.cls-16,.cls-2,.cls-3,.cls-4,.cls-6,.cls-7,.cls-8,.cls-9{stroke:#231f20;}.cls-10,.cls-13,.cls-14,.cls-15,.cls-2,.cls-9{stroke-width:0.25px;}.cls-2{stroke-dasharray:1.32 1.32;}.cls-11,.cls-13,.cls-3,.cls-4,.cls-5,.cls-7{fill:#fff;}.cls-3{stroke-width:0.15px;}.cls-10,.cls-16,.cls-7{stroke-miterlimit:10;}.cls-16,.cls-8{stroke-width:0.4px;}.cls-11,.cls-12{stroke-width:0.2px;}.cls-14{stroke-dasharray:2 2;}.cls-15{stroke-dasharray:1.98 1.98;}.cls-16{fill:#dee2e1;}.cls-17{fill:#231f20;}</style></defs><title>Asset 990</title><g id="Layer_2" data-name="Layer 2"><g id="Unit11C_Pop-Up"><g id="LINE"><line class="cls-1" x1="448.01" y1="57.5" x2="448.01" y2="181.84"/></g><g id="LINE-2" data-name="LINE"><line class="cls-1" x1="448.01" y1="234.22" x2="448.01" y2="321.41"/></g><g id="LINE-3" data-name="LINE"><line class="cls-1" x1="443.33" y1="57.5" x2="443.33" y2="181.84"/></g><g id="LINE-4" data-name="LINE"><line class="cls-1" x1="443.33" y1="234.22" x2="443.33" y2="321.41"/></g><g id="LINE-5" data-name="LINE"><line class="cls-1" x1="438.64" y1="57.5" x2="438.64" y2="181.84"/></g><g id="LINE-6" data-name="LINE"><line class="cls-1" x1="438.64" y1="234.22" x2="438.64" y2="321.41"/></g><g id="LINE-7" data-name="LINE"><line class="cls-1" x1="433.95" y1="57.5" x2="433.95" y2="181.84"/></g><g id="LINE-8" data-name="LINE"><line class="cls-1" x1="433.95" y1="234.22" x2="433.95" y2="321.41"/></g><g id="LINE-9" data-name="LINE"><line class="cls-1" x1="429.26" y1="22.58" x2="429.26" y2="181.84"/></g><g id="LINE-10" data-name="LINE"><line class="cls-1" x1="429.26" y1="234.22" x2="429.26" y2="321.41"/></g><g id="LINE-11" data-name="LINE"><line class="cls-1" x1="424.58" y1="22.58" x2="424.58" y2="222.97"/></g><g id="LINE-12" data-name="LINE"><line class="cls-1" x1="424.58" y1="256.72" x2="424.58" y2="321.41"/></g><g id="LINE-13" data-name="LINE"><line class="cls-1" x1="419.89" y1="22.58" x2="419.89" y2="222.97"/></g><g id="LINE-14" data-name="LINE"><line class="cls-1" x1="419.89" y1="256.72" x2="419.89" y2="321.41"/></g><g id="LINE-15" data-name="LINE"><line class="cls-1" x1="415.2" y1="22.58" x2="415.2" y2="222.97"/></g><g id="LINE-16" data-name="LINE"><line class="cls-1" x1="415.2" y1="256.72" x2="415.2" y2="321.41"/></g><g id="LINE-17" data-name="LINE"><line class="cls-1" x1="410.51" y1="22.58" x2="410.51" y2="222.97"/></g><g id="LINE-18" data-name="LINE"><line class="cls-1" x1="410.51" y1="256.72" x2="410.51" y2="297.97"/></g><g id="LINE-19" data-name="LINE"><line class="cls-1" x1="405.83" y1="22.58" x2="405.83" y2="222.97"/></g><g id="LINE-20" data-name="LINE"><line class="cls-1" x1="405.83" y1="256.72" x2="405.83" y2="297.97"/></g><g id="LINE-21" data-name="LINE"><line class="cls-1" x1="401.14" y1="22.58" x2="401.14" y2="222.97"/></g><g id="LINE-22" data-name="LINE"><line class="cls-1" x1="401.14" y1="256.72" x2="401.14" y2="297.97"/></g><g id="LINE-23" data-name="LINE"><line class="cls-1" x1="396.45" y1="22.58" x2="396.45" y2="222.97"/></g><g id="LINE-24" data-name="LINE"><line class="cls-1" x1="396.45" y1="256.72" x2="396.45" y2="297.97"/></g><g id="LINE-25" data-name="LINE"><line class="cls-1" x1="391.76" y1="22.58" x2="391.76" y2="222.97"/></g><g id="LINE-26" data-name="LINE"><line class="cls-1" x1="391.76" y1="256.72" x2="391.76" y2="297.97"/></g><g id="LINE-27" data-name="LINE"><line class="cls-1" x1="387.08" y1="22.58" x2="387.08" y2="222.97"/></g><g id="LINE-28" data-name="LINE"><line class="cls-1" x1="387.08" y1="256.72" x2="387.08" y2="297.97"/></g><g id="LINE-29" data-name="LINE"><line class="cls-1" x1="382.39" y1="22.58" x2="382.39" y2="222.97"/></g><g id="LINE-30" data-name="LINE"><line class="cls-1" x1="382.39" y1="256.72" x2="382.39" y2="297.97"/></g><g id="LINE-31" data-name="LINE"><line class="cls-1" x1="377.7" y1="22.58" x2="377.7" y2="222.97"/></g><g id="LINE-32" data-name="LINE"><line class="cls-1" x1="377.7" y1="256.72" x2="377.7" y2="297.97"/></g><g id="LINE-33" data-name="LINE"><line class="cls-1" x1="373.01" y1="22.58" x2="373.01" y2="222.97"/></g><g id="LINE-34" data-name="LINE"><line class="cls-1" x1="373.01" y1="256.72" x2="373.01" y2="297.97"/></g><g id="LINE-35" data-name="LINE"><line class="cls-1" x1="368.33" y1="22.58" x2="368.33" y2="222.97"/></g><g id="LINE-36" data-name="LINE"><line class="cls-1" x1="368.33" y1="256.72" x2="368.33" y2="297.97"/></g><g id="LINE-37" data-name="LINE"><line class="cls-1" x1="363.64" y1="22.58" x2="363.64" y2="222.97"/></g><g id="LINE-38" data-name="LINE"><line class="cls-1" x1="363.64" y1="256.72" x2="363.64" y2="297.97"/></g><g id="LINE-39" data-name="LINE"><line class="cls-1" x1="358.95" y1="22.58" x2="358.95" y2="222.97"/></g><g id="LINE-40" data-name="LINE"><line class="cls-1" x1="358.95" y1="256.72" x2="358.95" y2="297.97"/></g><g id="LINE-41" data-name="LINE"><line class="cls-1" x1="354.26" y1="22.58" x2="354.26" y2="222.97"/></g><g id="LINE-42" data-name="LINE"><line class="cls-1" x1="354.26" y1="256.72" x2="354.26" y2="297.97"/></g><g id="LINE-43" data-name="LINE"><line class="cls-1" x1="349.58" y1="22.58" x2="349.58" y2="222.97"/></g><g id="LINE-44" data-name="LINE"><line class="cls-1" x1="349.58" y1="332.78" x2="349.58" y2="404.96"/></g><g id="LINE-45" data-name="LINE"><line class="cls-1" x1="349.58" y1="256.72" x2="349.58" y2="297.97"/></g><g id="LINE-46" data-name="LINE"><line class="cls-1" x1="344.89" y1="22.58" x2="344.89" y2="222.97"/></g><g id="LINE-47" data-name="LINE"><line class="cls-1" x1="344.89" y1="332.78" x2="344.89" y2="404.96"/></g><g id="LINE-48" data-name="LINE"><line class="cls-1" x1="344.89" y1="256.72" x2="344.89" y2="297.97"/></g><g id="LINE-49" data-name="LINE"><line class="cls-1" x1="340.2" y1="22.58" x2="340.2" y2="329.26"/></g><g id="LINE-50" data-name="LINE"><line class="cls-1" x1="340.2" y1="332.78" x2="340.2" y2="404.96"/></g><g id="LINE-51" data-name="LINE"><line class="cls-1" x1="335.51" y1="22.58" x2="335.51" y2="329.26"/></g><g id="LINE-52" data-name="LINE"><line class="cls-1" x1="335.51" y1="332.78" x2="335.51" y2="404.96"/></g><g id="LINE-53" data-name="LINE"><line class="cls-1" x1="330.83" y1="22.58" x2="330.83" y2="329.26"/></g><g id="LINE-54" data-name="LINE"><line class="cls-1" x1="330.83" y1="332.78" x2="330.83" y2="404.96"/></g><g id="LINE-55" data-name="LINE"><line class="cls-1" x1="326.14" y1="22.58" x2="326.14" y2="329.26"/></g><g id="LINE-56" data-name="LINE"><line class="cls-1" x1="326.14" y1="332.78" x2="326.14" y2="404.96"/></g><g id="LINE-57" data-name="LINE"><line class="cls-1" x1="321.45" y1="22.58" x2="321.45" y2="329.26"/></g><g id="LINE-58" data-name="LINE"><line class="cls-1" x1="321.45" y1="332.78" x2="321.45" y2="404.96"/></g><g id="LINE-59" data-name="LINE"><line class="cls-1" x1="316.76" y1="57.39" x2="316.76" y2="329.26"/></g><g id="LINE-60" data-name="LINE"><line class="cls-1" x1="316.76" y1="332.78" x2="316.76" y2="404.96"/></g><g id="LINE-61" data-name="LINE"><line class="cls-1" x1="312.08" y1="57.39" x2="312.08" y2="329.26"/></g><g id="LINE-62" data-name="LINE"><line class="cls-1" x1="312.08" y1="332.78" x2="312.08" y2="404.96"/></g><g id="LINE-63" data-name="LINE"><line class="cls-1" x1="307.39" y1="57.39" x2="307.39" y2="329.26"/></g><g id="LINE-64" data-name="LINE"><line class="cls-1" x1="307.39" y1="332.78" x2="307.39" y2="404.96"/></g><g id="LINE-65" data-name="LINE"><line class="cls-1" x1="302.7" y1="57.39" x2="302.7" y2="329.26"/></g><g id="LINE-66" data-name="LINE"><line class="cls-1" x1="302.7" y1="332.78" x2="302.7" y2="404.96"/></g><g id="LINE-67" data-name="LINE"><line class="cls-1" x1="298.01" y1="57.39" x2="298.01" y2="329.26"/></g><g id="LINE-68" data-name="LINE"><line class="cls-1" x1="298.01" y1="332.78" x2="298.01" y2="404.96"/></g><g id="LINE-69" data-name="LINE"><line class="cls-1" x1="293.33" y1="57.39" x2="293.33" y2="181.84"/></g><g id="LINE-70" data-name="LINE"><line class="cls-1" x1="288.64" y1="57.39" x2="288.64" y2="181.84"/></g><g id="LINE-71" data-name="LINE"><line class="cls-1" x1="288.64" y1="361.49" x2="288.64" y2="407.78"/></g><g id="LINE-72" data-name="LINE"><line class="cls-1" x1="283.95" y1="361.72" x2="283.95" y2="407.78"/></g><g id="LINE-73" data-name="LINE"><line class="cls-1" x1="279.26" y1="361.72" x2="279.26" y2="407.78"/></g><g id="LINE-74" data-name="LINE"><line class="cls-1" x1="274.58" y1="361.72" x2="274.58" y2="407.78"/></g><g id="LINE-75" data-name="LINE"><line class="cls-1" x1="269.89" y1="361.49" x2="269.89" y2="407.78"/></g><g id="LINE-76" data-name="LINE"><line class="cls-1" x1="144.17" y1="290.35" x2="291.87" y2="290.35"/></g><g id="LINE-77" data-name="LINE"><line class="cls-1" x1="143.46" y1="295.04" x2="292.06" y2="295.04"/></g><g id="LINE-78" data-name="LINE"><line class="cls-1" x1="143.46" y1="299.73" x2="292.06" y2="299.73"/></g><g id="LINE-79" data-name="LINE"><line class="cls-1" x1="143.46" y1="304.41" x2="292.06" y2="304.41"/></g><g id="LINE-80" data-name="LINE"><line class="cls-1" x1="143.46" y1="309.1" x2="292.06" y2="309.1"/></g><g id="LINE-81" data-name="LINE"><line class="cls-1" x1="143.46" y1="313.79" x2="292.06" y2="313.79"/></g><g id="LINE-82" data-name="LINE"><line class="cls-1" x1="143.46" y1="318.48" x2="292.06" y2="318.48"/></g><g id="LINE-83" data-name="LINE"><line class="cls-1" x1="143.46" y1="323.16" x2="292.06" y2="323.16"/></g><g id="LINE-84" data-name="LINE"><line class="cls-1" x1="143.46" y1="327.85" x2="291.87" y2="327.85"/></g><g id="LINE-85" data-name="LINE"><line class="cls-1" x1="223.03" y1="336.23" x2="264.28" y2="336.23"/></g><g id="LINE-86" data-name="LINE"><line class="cls-1" x1="223.03" y1="340.91" x2="264.28" y2="340.91"/></g><g id="LINE-87" data-name="LINE"><line class="cls-1" x1="223.03" y1="345.6" x2="264.05" y2="345.6"/></g><g id="LINE-88" data-name="LINE"><line class="cls-1" x1="223.03" y1="350.29" x2="264.28" y2="350.29"/></g><g id="LINE-89" data-name="LINE"><line class="cls-1" x1="223.03" y1="354.98" x2="264.28" y2="354.98"/></g><g id="LINE-90" data-name="LINE"><line class="cls-1" x1="223.03" y1="359.66" x2="264.28" y2="359.66"/></g><g id="LINE-91" data-name="LINE"><line class="cls-1" x1="223.03" y1="364.35" x2="264.28" y2="364.35"/></g><g id="LINE-92" data-name="LINE"><line class="cls-1" x1="152.7" y1="57.5" x2="152.7" y2="183.25"/></g><g id="LINE-93" data-name="LINE"><line class="cls-1" x1="148.01" y1="57.5" x2="148.01" y2="183.25"/></g><g id="LINE-94" data-name="LINE"><line class="cls-1" x1="143.33" y1="57.5" x2="143.33" y2="183.25"/></g><g id="LINE-95" data-name="LINE"><line class="cls-1" x1="138.64" y1="57.5" x2="138.64" y2="183.25"/></g><g id="LINE-96" data-name="LINE"><line class="cls-1" x1="133.95" y1="46.84" x2="133.95" y2="183.75"/></g><g id="LINE-97" data-name="LINE"><line class="cls-1" x1="133.95" y1="189.48" x2="133.95" y2="329.38"/></g><g id="LINE-98" data-name="LINE"><line class="cls-1" x1="129.26" y1="45.08" x2="129.26" y2="183.25"/></g><g id="LINE-99" data-name="LINE"><line class="cls-1" x1="129.26" y1="186.76" x2="129.26" y2="329.26"/></g><g id="LINE-100" data-name="LINE"><line class="cls-1" x1="124.58" y1="45.08" x2="124.58" y2="183.25"/></g><g id="LINE-101" data-name="LINE"><line class="cls-1" x1="124.58" y1="186.76" x2="124.58" y2="329.26"/></g><g id="LINE-102" data-name="LINE"><line class="cls-1" x1="119.89" y1="45.08" x2="119.89" y2="183.25"/></g><g id="LINE-103" data-name="LINE"><line class="cls-1" x1="119.89" y1="186.76" x2="119.89" y2="329.26"/></g><g id="LINE-104" data-name="LINE"><line class="cls-1" x1="115.2" y1="45.08" x2="115.2" y2="183.25"/></g><g id="LINE-105" data-name="LINE"><line class="cls-1" x1="115.2" y1="186.76" x2="115.2" y2="329.26"/></g><g id="LINE-106" data-name="LINE"><line class="cls-1" x1="110.51" y1="45.08" x2="110.51" y2="183.25"/></g><g id="LINE-107" data-name="LINE"><line class="cls-1" x1="110.51" y1="186.76" x2="110.51" y2="329.26"/></g><g id="LINE-108" data-name="LINE"><line class="cls-1" x1="105.83" y1="45.08" x2="105.83" y2="183.25"/></g><g id="LINE-109" data-name="LINE"><line class="cls-1" x1="105.83" y1="186.76" x2="105.83" y2="329.26"/></g><g id="LINE-110" data-name="LINE"><line class="cls-1" x1="101.14" y1="45.08" x2="101.14" y2="183.25"/></g><g id="LINE-111" data-name="LINE"><line class="cls-1" x1="101.14" y1="186.76" x2="101.14" y2="329.26"/></g><g id="LINE-112" data-name="LINE"><line class="cls-1" x1="96.45" y1="45.68" x2="96.45" y2="183.44"/></g><g id="LINE-113" data-name="LINE"><line class="cls-1" x1="96.45" y1="186.88" x2="96.45" y2="327.84"/></g><g id="LINE-114" data-name="LINE"><line class="cls-1" x1="91.77" y1="45.08" x2="91.77" y2="183.25"/></g><g id="LINE-115" data-name="LINE"><line class="cls-1" x1="87.08" y1="45.08" x2="87.08" y2="183.25"/></g><g id="LINE-116" data-name="LINE"><line class="cls-1" x1="87.08" y1="248.4" x2="87.08" y2="306.29"/></g><g id="LINE-117" data-name="LINE"><line class="cls-1" x1="87.08" y1="186.76" x2="87.08" y2="244.89"/></g><g id="LINE-118" data-name="LINE"><line class="cls-1" x1="82.39" y1="45.08" x2="82.39" y2="183.25"/></g><g id="LINE-119" data-name="LINE"><line class="cls-1" x1="82.39" y1="248.4" x2="82.39" y2="306.29"/></g><g id="LINE-120" data-name="LINE"><line class="cls-1" x1="82.39" y1="186.76" x2="82.39" y2="244.89"/></g><g id="LINE-121" data-name="LINE"><line class="cls-1" x1="77.7" y1="45.08" x2="77.7" y2="183.25"/></g><g id="LINE-122" data-name="LINE"><line class="cls-1" x1="77.7" y1="248.4" x2="77.7" y2="306.29"/></g><g id="LINE-123" data-name="LINE"><line class="cls-1" x1="77.7" y1="186.76" x2="77.7" y2="244.89"/></g><g id="LINE-124" data-name="LINE"><line class="cls-1" x1="73.02" y1="45.08" x2="73.02" y2="183.25"/></g><g id="LINE-125" data-name="LINE"><line class="cls-1" x1="73.02" y1="248.4" x2="73.02" y2="306.29"/></g><g id="LINE-126" data-name="LINE"><line class="cls-1" x1="73.02" y1="186.76" x2="73.02" y2="244.89"/></g><g id="LINE-127" data-name="LINE"><line class="cls-1" x1="68.33" y1="45.08" x2="68.33" y2="183.25"/></g><g id="LINE-128" data-name="LINE"><line class="cls-1" x1="68.33" y1="248.4" x2="68.33" y2="306.29"/></g><g id="LINE-129" data-name="LINE"><line class="cls-1" x1="68.33" y1="186.76" x2="68.33" y2="244.89"/></g><g id="LINE-130" data-name="LINE"><line class="cls-1" x1="63.64" y1="45.08" x2="63.64" y2="183.25"/></g><g id="LINE-131" data-name="LINE"><line class="cls-1" x1="63.64" y1="248.4" x2="63.64" y2="306.29"/></g><g id="LINE-132" data-name="LINE"><line class="cls-1" x1="63.64" y1="186.76" x2="63.64" y2="244.89"/></g><g id="LINE-133" data-name="LINE"><line class="cls-1" x1="58.95" y1="45.08" x2="58.95" y2="183.25"/></g><g id="LINE-134" data-name="LINE"><line class="cls-1" x1="58.95" y1="248.4" x2="58.95" y2="306.29"/></g><g id="LINE-135" data-name="LINE"><line class="cls-1" x1="58.95" y1="186.76" x2="58.95" y2="244.89"/></g><g id="LINE-136" data-name="LINE"><line class="cls-1" x1="54.27" y1="45.08" x2="54.27" y2="183.25"/></g><g id="LINE-137" data-name="LINE"><line class="cls-1" x1="54.27" y1="248.4" x2="54.27" y2="306.29"/></g><g id="LINE-138" data-name="LINE"><line class="cls-1" x1="54.27" y1="186.76" x2="54.27" y2="244.89"/></g><g id="LINE-139" data-name="LINE"><line class="cls-1" x1="49.58" y1="45.08" x2="49.58" y2="183.25"/></g><g id="LINE-140" data-name="LINE"><line class="cls-1" x1="49.58" y1="248.4" x2="49.58" y2="306.29"/></g><g id="LINE-141" data-name="LINE"><line class="cls-1" x1="49.58" y1="186.76" x2="49.58" y2="244.89"/></g><g id="LINE-142" data-name="LINE"><line class="cls-1" x1="44.89" y1="45.08" x2="44.89" y2="183.25"/></g><g id="LINE-143" data-name="LINE"><line class="cls-1" x1="44.89" y1="248.4" x2="44.89" y2="306.29"/></g><g id="LINE-144" data-name="LINE"><line class="cls-1" x1="44.89" y1="186.76" x2="44.89" y2="244.89"/></g><g id="LINE-145" data-name="LINE"><line class="cls-1" x1="40.2" y1="45.08" x2="40.2" y2="183.25"/></g><g id="LINE-146" data-name="LINE"><line class="cls-1" x1="40.2" y1="248.4" x2="40.2" y2="306.29"/></g><g id="LINE-147" data-name="LINE"><line class="cls-1" x1="40.2" y1="186.76" x2="40.2" y2="244.89"/></g><g id="LINE-148" data-name="LINE"><line class="cls-1" x1="35.52" y1="45.08" x2="35.52" y2="183.25"/></g><g id="LINE-149" data-name="LINE"><line class="cls-1" x1="35.52" y1="186.76" x2="35.52" y2="244.89"/></g><g id="LINE-150" data-name="LINE"><line class="cls-1" x1="30.83" y1="45.08" x2="30.83" y2="183.25"/></g><g id="LINE-151" data-name="LINE"><line class="cls-1" x1="30.83" y1="186.76" x2="30.83" y2="244.89"/></g><g id="LINE-152" data-name="LINE"><line class="cls-1" x1="26.14" y1="45.08" x2="26.14" y2="183.25"/></g><g id="LINE-153" data-name="LINE"><line class="cls-1" x1="26.14" y1="186.76" x2="26.14" y2="244.89"/></g><g id="LINE-154" data-name="LINE"><line class="cls-1" x1="21.45" y1="57.5" x2="21.45" y2="183.25"/></g><g id="LINE-155" data-name="LINE"><line class="cls-1" x1="21.45" y1="186.76" x2="21.45" y2="244.89"/></g><g id="LINE-156" data-name="LINE"><line class="cls-1" x1="16.77" y1="57.5" x2="16.77" y2="183.25"/></g><g id="LINE-157" data-name="LINE"><line class="cls-1" x1="16.77" y1="186.76" x2="16.77" y2="244.89"/></g><g id="LINE-158" data-name="LINE"><line class="cls-1" x1="12.08" y1="57.5" x2="12.08" y2="183.25"/></g><g id="LINE-159" data-name="LINE"><line class="cls-1" x1="12.08" y1="186.76" x2="12.08" y2="244.89"/></g><g id="LINE-160" data-name="LINE"><line class="cls-1" x1="7.39" y1="57.5" x2="7.39" y2="183.25"/></g><g id="LINE-161" data-name="LINE"><line class="cls-1" x1="7.39" y1="186.76" x2="7.39" y2="244.89"/></g><g id="LINE-162" data-name="LINE"><line class="cls-1" x1="283.95" y1="45.08" x2="283.95" y2="181.84"/></g><g id="LINE-163" data-name="LINE"><line class="cls-1" x1="279.26" y1="45.08" x2="279.26" y2="181.84"/></g><g id="LINE-164" data-name="LINE"><line class="cls-1" x1="274.58" y1="45.08" x2="274.58" y2="181.84"/></g><g id="LINE-165" data-name="LINE"><line class="cls-1" x1="269.89" y1="45.08" x2="269.89" y2="181.84"/></g><g id="LINE-166" data-name="LINE"><line class="cls-1" x1="265.2" y1="45.08" x2="265.2" y2="181.84"/></g><g id="LINE-167" data-name="LINE"><line class="cls-1" x1="260.51" y1="45.08" x2="260.51" y2="181.84"/></g><g id="LINE-168" data-name="LINE"><line class="cls-1" x1="255.83" y1="45.08" x2="255.83" y2="181.84"/></g><g id="LINE-169" data-name="LINE"><line class="cls-1" x1="251.14" y1="45.08" x2="251.14" y2="181.84"/></g><g id="LINE-170" data-name="LINE"><line class="cls-1" x1="246.45" y1="45.08" x2="246.45" y2="181.84"/></g><g id="LINE-171" data-name="LINE"><line class="cls-1" x1="241.76" y1="45.08" x2="241.76" y2="181.84"/></g><g id="LINE-172" data-name="LINE"><line class="cls-1" x1="237.08" y1="45.08" x2="237.08" y2="181.84"/></g><g id="LINE-173" data-name="LINE"><line class="cls-1" x1="232.39" y1="45.08" x2="232.39" y2="181.84"/></g><g id="LINE-174" data-name="LINE"><line class="cls-1" x1="227.7" y1="45.08" x2="227.7" y2="181.84"/></g><g id="LINE-175" data-name="LINE"><line class="cls-1" x1="223.01" y1="45.08" x2="223.01" y2="181.84"/></g><g id="LINE-176" data-name="LINE"><line class="cls-1" x1="218.33" y1="45.08" x2="218.33" y2="181.84"/></g><g id="LINE-177" data-name="LINE"><line class="cls-1" x1="213.64" y1="45.08" x2="213.64" y2="181.84"/></g><g id="LINE-178" data-name="LINE"><line class="cls-1" x1="208.95" y1="45.08" x2="208.95" y2="181.84"/></g><g id="LINE-179" data-name="LINE"><line class="cls-1" x1="208.95" y1="185.36" x2="208.95" y2="284.5"/></g><g id="LINE-180" data-name="LINE"><line class="cls-1" x1="204.26" y1="45.08" x2="204.26" y2="181.84"/></g><g id="LINE-181" data-name="LINE"><line class="cls-1" x1="204.26" y1="185.36" x2="204.26" y2="284.5"/></g><g id="LINE-182" data-name="LINE"><line class="cls-1" x1="199.58" y1="45.08" x2="199.58" y2="181.84"/></g><g id="LINE-183" data-name="LINE"><line class="cls-1" x1="199.58" y1="185.36" x2="199.58" y2="284.5"/></g><g id="LINE-184" data-name="LINE"><line class="cls-1" x1="194.89" y1="45.08" x2="194.89" y2="181.84"/></g><g id="LINE-185" data-name="LINE"><line class="cls-1" x1="194.89" y1="185.36" x2="194.89" y2="284.5"/></g><g id="LINE-186" data-name="LINE"><line class="cls-1" x1="190.2" y1="45.08" x2="190.2" y2="181.84"/></g><g id="LINE-187" data-name="LINE"><line class="cls-1" x1="190.2" y1="185.36" x2="190.2" y2="284.5"/></g><g id="LINE-188" data-name="LINE"><line class="cls-1" x1="185.51" y1="45.08" x2="185.51" y2="181.84"/></g><g id="LINE-189" data-name="LINE"><line class="cls-1" x1="185.51" y1="185.36" x2="185.51" y2="284.5"/></g><g id="LINE-190" data-name="LINE"><line class="cls-1" x1="180.83" y1="45.08" x2="180.83" y2="181.84"/></g><g id="LINE-191" data-name="LINE"><line class="cls-1" x1="180.83" y1="185.36" x2="180.83" y2="284.5"/></g><g id="LINE-192" data-name="LINE"><line class="cls-1" x1="176.14" y1="45.08" x2="176.14" y2="181.84"/></g><g id="LINE-193" data-name="LINE"><line class="cls-1" x1="176.14" y1="185.36" x2="176.14" y2="284.5"/></g><g id="LINE-194" data-name="LINE"><line class="cls-1" x1="171.45" y1="57.5" x2="171.45" y2="181.84"/></g><g id="LINE-195" data-name="LINE"><line class="cls-1" x1="166.76" y1="57.5" x2="166.76" y2="181.84"/></g><g id="LINE-196" data-name="LINE"><line class="cls-1" x1="166.76" y1="221.57" x2="166.76" y2="284.5"/></g><g id="LINE-197" data-name="LINE"><line class="cls-1" x1="162.08" y1="57.5" x2="162.08" y2="181.84"/></g><g id="LINE-198" data-name="LINE"><line class="cls-1" x1="162.08" y1="221.57" x2="162.08" y2="284.5"/></g><g id="LINE-199" data-name="LINE"><line class="cls-1" x1="157.39" y1="221.57" x2="157.39" y2="284.5"/></g><g id="LINE-200" data-name="LINE"><line class="cls-1" x1="152.7" y1="221.57" x2="152.7" y2="284.5"/></g><g id="LINE-201" data-name="LINE"><line class="cls-1" x1="148.01" y1="221.57" x2="148.01" y2="284.5"/></g><line class="cls-1" x1="98.34" y1="329.38" x2="132.43" y2="329.38"/><line class="cls-1" x1="143.46" y1="325.89" x2="143.46" y2="283.61"/><line class="cls-1" x1="137.72" y1="291.88" x2="137.72" y2="325.89"/><line class="cls-1" x1="302.13" y1="332.9" x2="338.35" y2="332.9"/><line class="cls-1" x1="302.13" y1="329.38" x2="338.35" y2="329.38"/><line class="cls-1" x1="292.17" y1="291.35" x2="292.17" y2="327.02"/><line class="cls-1" x1="295.57" y1="291.88" x2="295.57" y2="327.99"/><line class="cls-1" x1="92.72" y1="207.5" x2="92.72" y2="292.87"/><line class="cls-1" x1="98.34" y1="186.88" x2="135.29" y2="186.88"/><line class="cls-1" x1="98.34" y1="183.36" x2="132.81" y2="183.36"/><line class="cls-1" x1="175.45" y1="181.96" x2="208.95" y2="181.96"/><line class="cls-1" x1="175.45" y1="185.47" x2="208.95" y2="185.47"/><line class="cls-1" x1="175.57" y1="288.13" x2="209.78" y2="288.13"/><line class="cls-1" x1="175.57" y1="284.61" x2="209.78" y2="284.61"/><line class="cls-1" x1="332.25" y1="405.08" x2="298.5" y2="405.08"/><line class="cls-1" x1="168.31" y1="230.65" x2="168.31" y2="277.61"/><line class="cls-1" x1="226.78" y1="332.9" x2="260.88" y2="332.9"/><line class="cls-1" x1="298.5" y1="410.83" x2="332.22" y2="410.83"/><g id="LWPOLYLINE"><path class="cls-2" d="M408,17.08,376.24,28.62a33.69,33.69,0,0,1-2-11.54,33.92,33.92,0,0,1-2,11.54L340.45,17.08"/></g><g id="LWPOLYLINE-2" data-name="LWPOLYLINE"><rect class="cls-3" x="2.68" y="66.16" width="103.41" height="108.33"/></g><g id="LWPOLYLINE-3" data-name="LWPOLYLINE"><rect class="cls-3" x="326.72" y="59.29" width="121.68" height="91.4"/></g><g id="LWPOLYLINE-4" data-name="LWPOLYLINE"><rect class="cls-4" x="139.71" y="92.34" width="15" height="56.25"/></g><g id="LWPOLYLINE-5" data-name="LWPOLYLINE"><rect class="cls-4" x="160.45" y="84.11" width="15" height="56.25"/></g><rect class="cls-5" x="231" y="335.47" width="25.31" height="27.89"/><g id="LWPOLYLINE-6" data-name="LWPOLYLINE"><rect class="cls-4" x="2.68" y="84.84" width="80.63" height="71.25"/></g><g id="LWPOLYLINE-7" data-name="LWPOLYLINE"><rect class="cls-4" x="2.68" y="158.08" width="15.94" height="20.16"/></g><g id="LWPOLYLINE-8" data-name="LWPOLYLINE"><rect class="cls-4" x="2.68" y="62.69" width="15.94" height="20.16"/></g><g id="LWPOLYLINE-9" data-name="LWPOLYLINE"><rect class="cls-6" x="8.03" y="121.74" width="14.68" height="31.81"/></g><g id="LINE-203" data-name="LINE"><line class="cls-6" x1="5.49" y1="84.84" x2="5.49" y2="156.09"/></g><g id="LINE-204" data-name="LINE"><line class="cls-6" x1="80.49" y1="84.84" x2="80.49" y2="156.09"/></g><g id="LWPOLYLINE-10" data-name="LWPOLYLINE"><rect class="cls-6" x="8.03" y="87.38" width="14.68" height="31.81"/></g><g id="LWPOLYLINE-11" data-name="LWPOLYLINE"><rect class="cls-4" x="267.39" y="57.86" width="16.88" height="22.5"/></g><g id="LWPOLYLINE-12" data-name="LWPOLYLINE"><rect class="cls-4" x="267.39" y="144.11" width="16.88" height="22.5"/></g><g id="LWPOLYLINE-13" data-name="LWPOLYLINE"><rect class="cls-4" x="203.64" y="84.11" width="80.63" height="56.25"/></g><g id="LINE-205" data-name="LINE"><line class="cls-6" x1="281.45" y1="84.11" x2="281.45" y2="140.36"/></g><g id="LINE-206" data-name="LINE"><line class="cls-6" x1="206.45" y1="84.11" x2="206.45" y2="140.36"/></g><g id="LWPOLYLINE-14" data-name="LWPOLYLINE"><rect class="cls-6" x="264.23" y="113.51" width="14.68" height="24.31"/></g><g id="LWPOLYLINE-15" data-name="LWPOLYLINE"><rect class="cls-6" x="264.23" y="86.65" width="14.68" height="24.31"/></g><g id="LWPOLYLINE-16" data-name="LWPOLYLINE"><rect class="cls-4" x="338.35" y="348.66" width="12.71" height="37.84"/></g><g id="LWPOLYLINE-17" data-name="LWPOLYLINE"><path class="cls-4" d="M376.7,219.23a12.81,12.81,0,0,1,1.17-1.16,12,12,0,0,1,16.89,1.16l-1.06.93v10.9H377.76v-10.9Z"/></g><g id="LWPOLYLINE-18" data-name="LWPOLYLINE"><path class="cls-4" d="M354.2,219.23a12.81,12.81,0,0,1,1.17-1.16,12,12,0,0,1,16.89,1.16l-1.06.93v10.9H355.26v-10.9Z"/></g><g id="LWPOLYLINE-19" data-name="LWPOLYLINE"><line class="cls-6" x1="379.62" y1="218.48" x2="379.62" y2="231.06"/></g><g id="LWPOLYLINE-20" data-name="LWPOLYLINE"><line class="cls-6" x1="391.85" y1="218.48" x2="391.85" y2="231.06"/></g><g id="LWPOLYLINE-21" data-name="LWPOLYLINE"><path class="cls-6" d="M393.7,220.16a10.55,10.55,0,0,0-14.91-1,11.13,11.13,0,0,0-1,1"/></g><g id="LWPOLYLINE-22" data-name="LWPOLYLINE"><path class="cls-4" d="M399.06,219.23a14.22,14.22,0,0,1,1.17-1.16,12,12,0,0,1,16.89,1.16l-1.06.93v10.9H400.13v-10.9Z"/></g><g id="LWPOLYLINE-23" data-name="LWPOLYLINE"><line class="cls-6" x1="401.98" y1="218.48" x2="401.98" y2="231.06"/></g><g id="LWPOLYLINE-24" data-name="LWPOLYLINE"><line class="cls-6" x1="414.21" y1="218.48" x2="414.21" y2="231.06"/></g><g id="LWPOLYLINE-25" data-name="LWPOLYLINE"><path class="cls-6" d="M416.06,220.16a10.55,10.55,0,0,0-14.91-1,9.92,9.92,0,0,0-1,1"/></g><g id="LWPOLYLINE-26" data-name="LWPOLYLINE"><line class="cls-6" x1="357.12" y1="218.48" x2="357.12" y2="231.06"/></g><g id="LWPOLYLINE-27" data-name="LWPOLYLINE"><line class="cls-6" x1="369.35" y1="218.48" x2="369.35" y2="231.06"/></g><g id="LWPOLYLINE-28" data-name="LWPOLYLINE"><path class="cls-6" d="M371.2,220.16a10.55,10.55,0,0,0-14.91-1,11.13,11.13,0,0,0-1,1"/></g><line class="cls-6" x1="27.36" y1="84.84" x2="27.36" y2="156.09"/><line class="cls-6" x1="24.93" y1="84.84" x2="24.93" y2="156.09"/><g id="LWPOLYLINE-29" data-name="LWPOLYLINE"><polygon class="cls-4" points="132.19 90.2 131.01 88.2 130.7 88.39 130.12 88.49 129.62 88.19 128.48 86.62 127.56 85.34 126.8 84.2 125.83 82.67 124.99 81.25 124.65 80.68 124.39 80.2 124.07 79.6 123.7 78.92 122.89 77.31 122.17 75.78 121.63 74.56 121.61 73.98 121.98 73.53 122.3 73.34 120.81 70.79 140.4 59.31 151.78 78.72 132.19 90.2"/></g><g id="LINE-207" data-name="LINE"><line class="cls-6" x1="141.9" y1="61.85" x2="122.31" y2="73.34"/></g><g id="LINE-208" data-name="LINE"><line class="cls-6" x1="131.02" y1="88.2" x2="150.61" y2="76.71"/></g><g id="ARC"><path class="cls-6" d="M137.53,64.41a40.19,40.19,0,0,0,8.71,14.87"/></g><g id="ARC-2" data-name="ARC"><path class="cls-6" d="M140.44,62.71a101.88,101.88,0,0,0,8.71,14.86"/></g><g id="LWPOLYLINE-30" data-name="LWPOLYLINE"><path class="cls-4" d="M335.77,168.1v17.81l-5.81-.29a3.75,3.75,0,0,1-3.57-3.74v-9.74a3.76,3.76,0,0,1,3.57-3.75Z"/></g><g id="LWPOLYLINE-31" data-name="LWPOLYLINE"><path class="cls-4" d="M384.53,186.13V168.32l5.81.29a3.76,3.76,0,0,1,3.57,3.75v9.74a3.75,3.75,0,0,1-3.57,3.74Z"/></g><g id="LWPOLYLINE-32" data-name="LWPOLYLINE"><path class="cls-4" d="M337.88,166.7h17.81l-.29-5.82a3.76,3.76,0,0,0-3.75-3.56h-9.74a3.75,3.75,0,0,0-3.74,3.56Z"/></g><g id="LWPOLYLINE-33" data-name="LWPOLYLINE"><path class="cls-4" d="M363.66,166.7h17.81l-.29-5.82a3.75,3.75,0,0,0-3.74-3.56h-9.75a3.75,3.75,0,0,0-3.74,3.56Z"/></g><g id="LWPOLYLINE-34" data-name="LWPOLYLINE"><path class="cls-4" d="M381.47,186.74H363.66l.29,5.81a3.75,3.75,0,0,0,3.74,3.57h9.75a3.75,3.75,0,0,0,3.74-3.57Z"/></g><g id="LWPOLYLINE-35" data-name="LWPOLYLINE"><path class="cls-4" d="M355.69,186.74H337.88l.29,5.81a3.75,3.75,0,0,0,3.74,3.57h9.74a3.76,3.76,0,0,0,3.75-3.57Z"/></g><g id="LWPOLYLINE-36" data-name="LWPOLYLINE"><path class="cls-6" d="M335.77,184.51l-5.74-.29a2.34,2.34,0,0,1-2.23-2.34v-9.74A2.34,2.34,0,0,1,330,169.8l5.74-.29"/></g><g id="LWPOLYLINE-37" data-name="LWPOLYLINE"><path class="cls-6" d="M384.53,169.73l5.74.29a2.34,2.34,0,0,1,2.23,2.34v9.74a2.34,2.34,0,0,1-2.23,2.34l-5.74.29"/></g><g id="LWPOLYLINE-38" data-name="LWPOLYLINE"><path class="cls-6" d="M354.28,166.7,354,161a2.36,2.36,0,0,0-2.35-2.22h-9.74a2.35,2.35,0,0,0-2.34,2.22l-.28,5.75"/></g><g id="LWPOLYLINE-39" data-name="LWPOLYLINE"><path class="cls-6" d="M380.16,166.93l-.29-5.74a2.34,2.34,0,0,0-2.34-2.23h-9.74a2.34,2.34,0,0,0-2.34,2.23l-.29,5.74"/></g><g id="LWPOLYLINE-40" data-name="LWPOLYLINE"><path class="cls-6" d="M365.07,186.74l.28,5.74a2.36,2.36,0,0,0,2.34,2.23h9.75a2.36,2.36,0,0,0,2.34-2.23l.28-5.74"/></g><g id="LWPOLYLINE-41" data-name="LWPOLYLINE"><path class="cls-6" d="M339.19,186.51l.29,5.74a2.34,2.34,0,0,0,2.34,2.23h9.74a2.34,2.34,0,0,0,2.34-2.23l.29-5.74"/></g><g id="LWPOLYLINE-42" data-name="LWPOLYLINE"><rect class="cls-4" x="332.02" y="162.95" width="56.25" height="28.13"/></g><g id="LWPOLYLINE-43" data-name="LWPOLYLINE"><polygon class="cls-4" points="381.49 63.17 382.33 33.17 409.05 33.08 410.08 63.08 381.49 63.17"/></g><g id="LWPOLYLINE-44" data-name="LWPOLYLINE"><polygon class="cls-4" points="337.24 63.17 338.08 33.17 364.8 33.08 365.83 63.08 337.24 63.17"/></g><g id="CIRCLE"><path class="cls-4" d="M368.52,47.07a5.15,5.15,0,1,1,5.14,5.15,5.14,5.14,0,0,1-5.14-5.15Z"/></g><g id="LWPOLYLINE-45" data-name="LWPOLYLINE"><rect class="cls-4" x="365.66" y="89.32" width="32.83" height="34.02"/></g><g id="LWPOLYLINE-46" data-name="LWPOLYLINE"><rect class="cls-4" x="330.68" y="79.31" width="16.88" height="53.44" rx="1.88"/></g><g id="CIRCLE-2" data-name="CIRCLE"><path class="cls-4" d="M334.43,110.24a.47.47,0,1,1,.47.47.47.47,0,0,1-.47-.47Z"/></g><g id="CIRCLE-3" data-name="CIRCLE"><path class="cls-4" d="M342.86,110.24a.47.47,0,1,1,.47.47.47.47,0,0,1-.47-.47Z"/></g><g id="CIRCLE-4" data-name="CIRCLE"><path class="cls-4" d="M334.43,101.81a.47.47,0,1,1,.93,0,.47.47,0,0,1-.93,0Z"/></g><g id="CIRCLE-5" data-name="CIRCLE"><path class="cls-4" d="M342.86,101.81a.47.47,0,0,1,.94,0,.47.47,0,0,1-.94,0Z"/></g><g id="CIRCLE-6" data-name="CIRCLE"><path class="cls-4" d="M334.43,93.37a.47.47,0,1,1,.47.47.47.47,0,0,1-.47-.47Z"/></g><g id="CIRCLE-7" data-name="CIRCLE"><path class="cls-4" d="M342.86,93.37a.47.47,0,1,1,.47.47.47.47,0,0,1-.47-.47Z"/></g><g id="CIRCLE-8" data-name="CIRCLE"><path class="cls-4" d="M334.43,84.93a.47.47,0,1,1,.47.47.47.47,0,0,1-.47-.47Z"/></g><g id="CIRCLE-9" data-name="CIRCLE"><path class="cls-4" d="M342.86,84.93a.47.47,0,1,1,.47.47.47.47,0,0,1-.47-.47Z"/></g><g id="CIRCLE-10" data-name="CIRCLE"><path class="cls-4" d="M334.43,118.68a.47.47,0,1,1,.47.47.47.47,0,0,1-.47-.47Z"/></g><g id="CIRCLE-11" data-name="CIRCLE"><path class="cls-4" d="M342.86,118.68a.47.47,0,1,1,.47.47.47.47,0,0,1-.47-.47Z"/></g><g id="CIRCLE-12" data-name="CIRCLE"><path class="cls-4" d="M334.43,127.12a.47.47,0,1,1,.47.47.47.47,0,0,1-.47-.47Z"/></g><g id="CIRCLE-13" data-name="CIRCLE"><path class="cls-4" d="M342.86,127.12a.47.47,0,1,1,.47.47.47.47,0,0,1-.47-.47Z"/></g><g id="CIRCLE-14" data-name="CIRCLE"><path class="cls-4" d="M334.43,110.24a.47.47,0,1,1,.47.47.47.47,0,0,1-.47-.47Z"/></g><g id="CIRCLE-15" data-name="CIRCLE"><path class="cls-4" d="M342.86,110.24a.47.47,0,1,1,.47.47.47.47,0,0,1-.47-.47Z"/></g><g id="CIRCLE-16" data-name="CIRCLE"><path class="cls-4" d="M334.43,101.81a.47.47,0,1,1,.93,0,.47.47,0,0,1-.93,0Z"/></g><g id="CIRCLE-17" data-name="CIRCLE"><path class="cls-4" d="M342.86,101.81a.47.47,0,0,1,.94,0,.47.47,0,0,1-.94,0Z"/></g><g id="CIRCLE-18" data-name="CIRCLE"><path class="cls-4" d="M334.43,93.37a.47.47,0,1,1,.47.47.47.47,0,0,1-.47-.47Z"/></g><g id="CIRCLE-19" data-name="CIRCLE"><path class="cls-4" d="M342.86,93.37a.47.47,0,1,1,.47.47.47.47,0,0,1-.47-.47Z"/></g><g id="CIRCLE-20" data-name="CIRCLE"><path class="cls-4" d="M334.43,84.93a.47.47,0,1,1,.47.47.47.47,0,0,1-.47-.47Z"/></g><g id="CIRCLE-21" data-name="CIRCLE"><path class="cls-4" d="M342.86,84.93a.47.47,0,1,1,.47.47.47.47,0,0,1-.47-.47Z"/></g><g id="CIRCLE-22" data-name="CIRCLE"><path class="cls-4" d="M334.43,118.68a.47.47,0,1,1,.47.47.47.47,0,0,1-.47-.47Z"/></g><g id="CIRCLE-23" data-name="CIRCLE"><path class="cls-4" d="M342.86,118.68a.47.47,0,1,1,.47.47.47.47,0,0,1-.47-.47Z"/></g><g id="CIRCLE-24" data-name="CIRCLE"><path class="cls-4" d="M334.43,127.12a.47.47,0,1,1,.47.47.47.47,0,0,1-.47-.47Z"/></g><g id="CIRCLE-25" data-name="CIRCLE"><path class="cls-4" d="M342.86,127.12a.47.47,0,1,1,.47.47.47.47,0,0,1-.47-.47Z"/></g><g id="LINE-209" data-name="LINE"><line class="cls-6" x1="385.48" y1="63.16" x2="386.31" y2="33.15"/></g><g id="LINE-210" data-name="LINE"><line class="cls-6" x1="386.2" y1="37.37" x2="405.2" y2="37.31"/></g><g id="LINE-211" data-name="LINE"><line class="cls-6" x1="405.06" y1="33.09" x2="406.1" y2="63.09"/></g><g id="LINE-212" data-name="LINE"><line class="cls-6" x1="341.23" y1="63.16" x2="342.06" y2="33.15"/></g><g id="LINE-213" data-name="LINE"><line class="cls-6" x1="341.95" y1="37.37" x2="360.95" y2="37.31"/></g><g id="LINE-214" data-name="LINE"><line class="cls-6" x1="360.81" y1="33.09" x2="361.85" y2="63.09"/></g><rect class="cls-4" x="417.21" y="62.95" width="33.75" height="84.38"/><g id="LINE-215" data-name="LINE"><line class="cls-6" x1="446.27" y1="92.64" x2="418.19" y2="92.64"/></g><g id="LWPOLYLINE-47" data-name="LWPOLYLINE"><polyline class="cls-6" points="417.21 142.64 446.27 142.64 446.27 67.64 417.21 67.64"/></g><g id="ARC-3" data-name="ARC"><path class="cls-6" d="M441.78,68.58a59.57,59.57,0,0,0,0,23.12"/></g><g id="ARC-4" data-name="ARC"><path class="cls-6" d="M441.78,91.7a1.24,1.24,0,0,0,1,.94"/></g><g id="ARC-5" data-name="ARC"><path class="cls-6" d="M442.76,67.64a1.22,1.22,0,0,0-1,.94"/></g><g id="ARC-6" data-name="ARC"><path class="cls-6" d="M442.76,92.64a1.22,1.22,0,0,0-1,.94"/></g><g id="ARC-7" data-name="ARC"><path class="cls-6" d="M441.78,141.7a1.24,1.24,0,0,0,1,.94"/></g><g id="ARC-8" data-name="ARC"><path class="cls-6" d="M417.21,91.7a1.24,1.24,0,0,0,1,.94"/></g><g id="ARC-9" data-name="ARC"><path class="cls-6" d="M418.19,92.64a1.22,1.22,0,0,0-1,.94"/></g><g id="ARC-10" data-name="ARC"><path class="cls-6" d="M418.19,67.64a1.22,1.22,0,0,0-1,.94"/></g><g id="ARC-11" data-name="ARC"><path class="cls-6" d="M417.21,141.7a1.24,1.24,0,0,0,1,.94"/></g><g id="LINE-216" data-name="LINE"><line class="cls-6" x1="446.27" y1="117.64" x2="418.19" y2="117.64"/></g><g id="ARC-12" data-name="ARC"><path class="cls-6" d="M441.78,118.58a59.57,59.57,0,0,0,0,23.12"/></g><g id="ARC-13" data-name="ARC"><path class="cls-6" d="M442.76,117.64a1.22,1.22,0,0,0-1,.94"/></g><g id="ARC-14" data-name="ARC"><path class="cls-6" d="M441.78,116.7a1.24,1.24,0,0,0,1,.94"/></g><g id="ARC-15" data-name="ARC"><path class="cls-6" d="M418.19,117.64a1.22,1.22,0,0,0-1,.94"/></g><g id="ARC-16" data-name="ARC"><path class="cls-6" d="M417.21,116.7a1.24,1.24,0,0,0,1,.94"/></g><g id="ARC-17" data-name="ARC"><path class="cls-6" d="M441.78,93.58a59.57,59.57,0,0,0,0,23.12"/></g><g id="ARC-18" data-name="ARC"><path class="cls-6" d="M441.78,91.7a1.24,1.24,0,0,0,1,.94"/></g><g id="ARC-19" data-name="ARC"><path class="cls-6" d="M442.76,67.64a1.22,1.22,0,0,0-1,.94"/></g><g id="ARC-20" data-name="ARC"><path class="cls-6" d="M442.76,92.64a1.22,1.22,0,0,0-1,.94"/></g><g id="ARC-21" data-name="ARC"><path class="cls-6" d="M441.78,141.7a1.24,1.24,0,0,0,1,.94"/></g><g id="ARC-22" data-name="ARC"><path class="cls-6" d="M417.21,91.7a1.24,1.24,0,0,0,1,.94"/></g><g id="ARC-23" data-name="ARC"><path class="cls-6" d="M418.19,92.64a1.22,1.22,0,0,0-1,.94"/></g><g id="ARC-24" data-name="ARC"><path class="cls-6" d="M418.19,67.64a1.22,1.22,0,0,0-1,.94"/></g><g id="ARC-25" data-name="ARC"><path class="cls-6" d="M417.21,141.7a1.24,1.24,0,0,0,1,.94"/></g><g id="ARC-26" data-name="ARC"><path class="cls-6" d="M442.76,117.64a1.22,1.22,0,0,0-1,.94"/></g><g id="ARC-27" data-name="ARC"><path class="cls-6" d="M441.78,116.7a1.24,1.24,0,0,0,1,.94"/></g><g id="ARC-28" data-name="ARC"><path class="cls-6" d="M418.19,117.64a1.22,1.22,0,0,0-1,.94"/></g><g id="ARC-29" data-name="ARC"><path class="cls-6" d="M417.21,116.7a1.24,1.24,0,0,0,1,.94"/></g><path class="cls-7" d="M436.27,73.37s-5.28-6.86-7.94-5.57,7.24,10.46,7.24,10.46,3.9,4,4.65,2S436.27,73.37,436.27,73.37Z"/><path class="cls-7" d="M434.52,85.34s4.37,7.08,6.29,5.76-3.56-9.44-3.56-9.44-3.83-7.57-5.71-5.53S434.52,85.34,434.52,85.34Z"/><path class="cls-7" d="M439.91,126.26s-3.62.75-5.2,8.34-1.11,7.68-.31,8,4.2-2.24,5.22-9.2S441.17,126.58,439.91,126.26Z"/><g id="LWPOLYLINE-48" data-name="LWPOLYLINE"><rect class="cls-4" x="287.7" y="78.2" width="15" height="56.25"/></g><rect class="cls-4" x="268.83" y="104.81" width="44.9" height="1.76" transform="translate(185.59 396.97) rotate(-90)"/><line class="cls-6" x1="261.73" y1="83.99" x2="261.73" y2="140.36"/><line class="cls-6" x1="259.3" y1="83.99" x2="259.3" y2="140.36"/><g id="LWPOLYLINE-49" data-name="LWPOLYLINE"><polyline class="cls-8" points="137.95 39.58 137.95 45.2 25.45 45.2 25.45 39.58"/></g><g id="LWPOLYLINE-50" data-name="LWPOLYLINE"><polyline class="cls-8" points="430.45 17.07 430.45 22.7 317.95 22.7 317.95 17.07"/></g><g id="LWPOLYLINE-51" data-name="LWPOLYLINE"><polyline class="cls-8" points="284.2 39.58 284.2 45.2 171.7 45.2 171.7 39.58"/></g><g id="LWPOLYLINE-52" data-name="LWPOLYLINE"><polygon class="cls-9" points="107.84 35.83 55.57 35.83 55.57 37.05 107.83 37.06 107.84 35.83"/></g><g id="LWPOLYLINE-53" data-name="LWPOLYLINE"><polygon class="cls-9" points="135.14 35.83 134.2 35.83 110.42 35.83 110.42 37.06 135.14 37.05 135.14 35.83"/></g><g id="LWPOLYLINE-54" data-name="LWPOLYLINE"><polygon class="cls-9" points="28.26 35.83 29.2 35.83 52.99 35.83 52.99 37.06 28.26 37.05 28.26 35.83"/></g><g id="LWPOLYLINE-55" data-name="LWPOLYLINE"><polygon class="cls-9" points="254.09 35.83 201.82 35.83 201.82 37.05 254.08 37.06 254.09 35.83"/></g><g id="LWPOLYLINE-56" data-name="LWPOLYLINE"><polygon class="cls-9" points="281.39 35.83 280.45 35.83 256.67 35.83 256.67 37.06 281.39 37.05 281.39 35.83"/></g><g id="LWPOLYLINE-57" data-name="LWPOLYLINE"><polygon class="cls-9" points="174.51 35.83 175.45 35.83 199.24 35.83 199.24 37.06 174.51 37.05 174.51 35.83"/></g><g id="LWPOLYLINE-58" data-name="LWPOLYLINE"><polygon class="cls-9" points="339.99 13.32 339.05 13.32 321.7 13.32 320.77 13.32 320.77 14.55 339.05 14.55 339.99 14.55 339.99 13.32"/></g><g id="LWPOLYLINE-59" data-name="LWPOLYLINE"><polygon class="cls-9" points="372.68 13.32 371.98 13.32 341.86 13.32 341.86 14.55 372.67 14.55 372.68 13.32"/></g><g id="LWPOLYLINE-60" data-name="LWPOLYLINE"><polygon class="cls-9" points="406.55 13.32 405.61 13.32 376.43 13.32 375.73 13.32 375.73 14.55 406.55 14.55 406.55 13.32"/></g><g id="LWPOLYLINE-61" data-name="LWPOLYLINE"><polygon class="cls-9" points="427.64 13.32 426.7 13.32 408.42 13.32 408.42 14.55 427.64 14.55 427.64 13.32"/></g><line class="cls-9" x1="29.2" y1="39.58" x2="134.2" y2="39.58"/><line class="cls-9" x1="175.45" y1="39.58" x2="280.45" y2="39.58"/><line class="cls-9" x1="321.7" y1="17.08" x2="427.64" y2="17.08"/><g id="LWPOLYLINE-62" data-name="LWPOLYLINE"><polygon class="cls-10" points="111.12 37.05 110.42 37.06 110.42 35.83 111.12 35.83 111.12 34.89 109.36 34.89 109.36 32.54 108.42 32.54 108.42 34.89 107.37 34.89 107.37 35.83 107.84 35.83 107.84 37.06 107.13 37.05 107.13 38.23 108.07 38.23 108.07 39.11 109.24 39.11 109.24 39.58 111.12 39.58 111.12 37.05"/></g><g id="LWPOLYLINE-63" data-name="LWPOLYLINE"><polygon class="cls-10" points="137.95 34.89 136.37 34.89 136.37 31.14 135.43 31.14 135.43 34.89 134.2 34.89 134.2 35.83 135.14 35.83 135.14 37.05 134.2 37.05 134.2 39.58 137.95 39.58 137.95 34.89"/></g><g id="LWPOLYLINE-64" data-name="LWPOLYLINE"><polygon class="cls-10" points="52.28 37.05 52.99 37.06 52.99 35.83 52.28 35.83 52.28 34.89 54.04 34.89 54.04 32.54 54.98 32.54 54.98 34.89 56.03 34.89 56.03 35.83 55.56 35.83 55.56 37.06 56.27 37.05 56.27 38.23 55.33 38.23 55.33 39.11 54.16 39.11 54.16 39.58 52.28 39.58 52.28 37.05"/></g><g id="LWPOLYLINE-65" data-name="LWPOLYLINE"><polygon class="cls-10" points="25.45 34.89 27.03 34.89 27.03 31.14 27.97 31.14 27.97 34.89 29.2 34.89 29.2 35.83 28.26 35.83 28.26 37.05 29.2 37.05 29.2 39.58 25.45 39.58 25.45 34.89"/></g><g id="LWPOLYLINE-66" data-name="LWPOLYLINE"><polygon class="cls-10" points="257.37 37.05 256.67 37.06 256.67 35.83 257.37 35.83 257.37 34.89 255.61 34.89 255.61 32.54 254.67 32.54 254.67 34.89 253.62 34.89 253.62 35.83 254.09 35.83 254.09 37.06 253.38 37.05 253.38 38.23 254.32 38.23 254.32 39.11 255.49 39.11 255.49 39.58 257.37 39.58 257.37 37.05"/></g><g id="LWPOLYLINE-67" data-name="LWPOLYLINE"><polygon class="cls-10" points="284.2 34.89 282.62 34.89 282.62 31.14 281.68 31.14 281.68 34.89 280.45 34.89 280.45 35.83 281.39 35.83 281.39 37.05 280.45 37.05 280.45 39.58 284.2 39.58 284.2 34.89"/></g><g id="LWPOLYLINE-68" data-name="LWPOLYLINE"><polygon class="cls-10" points="198.53 37.05 199.24 37.06 199.24 35.83 198.53 35.83 198.53 34.89 200.29 34.89 200.29 32.54 201.23 32.54 201.23 34.89 202.28 34.89 202.28 35.83 201.81 35.83 201.81 37.06 202.52 37.05 202.52 38.23 201.58 38.23 201.58 39.11 200.41 39.11 200.41 39.58 198.53 39.58 198.53 37.05"/></g><g id="LWPOLYLINE-69" data-name="LWPOLYLINE"><polygon class="cls-10" points="171.7 34.89 173.28 34.89 173.28 31.14 174.22 31.14 174.22 34.89 175.45 34.89 175.45 35.83 174.51 35.83 174.51 37.05 175.45 37.05 175.45 39.58 171.7 39.58 171.7 34.89"/></g><g id="LWPOLYLINE-70" data-name="LWPOLYLINE"><polyline class="cls-10" points="373.74 10.04 374.67 10.04 374.67 12.39 376.43 12.39 376.43 13.32 375.73 13.32 375.73 14.55 376.43 14.55 376.43 17.07 374.56 17.07 374.56 16.61 373.85 16.61 373.85 17.07 371.98 17.07 371.98 14.55 372.67 14.55 372.68 13.32 371.98 13.32 371.98 12.39 373.74 12.39 373.74 10.04"/></g><g id="LWPOLYLINE-71" data-name="LWPOLYLINE"><polygon class="cls-10" points="405.61 14.55 406.55 14.55 406.55 13.32 405.61 13.32 405.61 12.39 407.49 12.39 407.49 10.04 408.42 10.04 408.42 12.39 409.36 12.39 409.36 13.32 408.42 13.32 408.42 14.55 409.36 14.55 409.36 15.73 408.54 15.73 408.54 16.61 407.49 16.61 407.49 17.07 405.61 17.07 405.61 14.55"/></g><g id="LWPOLYLINE-72" data-name="LWPOLYLINE"><polygon class="cls-10" points="430.45 12.39 429.52 12.39 429.52 8.64 428.58 8.64 428.58 12.39 426.7 12.39 426.7 13.32 427.64 13.32 427.64 14.55 426.7 14.55 426.7 17.07 430.45 17.07 430.45 12.39"/></g><g id="LWPOLYLINE-73" data-name="LWPOLYLINE"><polygon class="cls-10" points="321.7 14.55 320.77 14.55 320.77 13.32 321.7 13.32 321.7 12.39 319.83 12.39 319.83 8.64 318.89 8.64 318.89 12.39 317.95 12.39 317.95 17.07 321.7 17.07 321.7 14.55"/></g><g id="LWPOLYLINE-74" data-name="LWPOLYLINE"><polygon class="cls-10" points="342.8 14.55 341.86 14.55 341.86 13.32 342.8 13.32 342.8 12.39 340.92 12.39 340.92 10.04 339.99 10.04 339.99 12.39 339.05 12.39 339.05 13.32 339.99 13.32 339.99 14.55 339.05 14.55 339.05 15.73 339.87 15.73 339.87 16.61 340.92 16.61 340.92 17.07 342.8 17.07 342.8 14.55"/></g><g id="LWPOLYLINE-75" data-name="LWPOLYLINE"><polyline class="cls-10" points="373.74 10.04 374.67 10.04 374.67 12.39 376.43 12.39 376.43 13.32 375.73 13.32 375.73 14.55 376.43 14.55 376.43 17.07 374.56 17.07 374.56 16.61 373.85 16.61 373.85 17.07 371.98 17.07 371.98 14.55 372.67 14.55 372.68 13.32 371.98 13.32 371.98 12.39 373.74 12.39 373.74 10.04"/></g><g id="LWPOLYLINE-76" data-name="LWPOLYLINE"><polyline class="cls-8" points="137.95 39.58 137.95 31.14 25.45 31.14 25.45 39.58"/></g><g id="LWPOLYLINE-77" data-name="LWPOLYLINE"><polyline class="cls-8" points="284.2 39.58 284.2 31.14 171.7 31.14 171.7 39.58"/></g><g id="LWPOLYLINE-78" data-name="LWPOLYLINE"><polyline class="cls-8" points="430.45 17.07 430.45 8.64 317.95 8.64 317.95 17.07"/></g><g id="LWPOLYLINE-79" data-name="LWPOLYLINE"><rect class="cls-11" x="171.21" y="272.44" width="33.75" height="1.64" transform="translate(-138.14 213.03) rotate(-45)"/></g><g id="LWPOLYLINE-80" data-name="LWPOLYLINE"><rect class="cls-12" x="89.2" y="207.5" width="1.64" height="33.75"/></g><g id="LWPOLYLINE-81" data-name="LWPOLYLINE"><rect class="cls-12" x="89.2" y="252.27" width="1.64" height="33.75"/></g><g id="LWPOLYLINE-82" data-name="LWPOLYLINE"><rect class="cls-12" x="220.34" y="286.49" width="33.75" height="1.64"/></g><g id="LWPOLYLINE-83" data-name="LWPOLYLINE"><rect class="cls-12" x="170.18" y="230.65" width="1.64" height="22.5"/></g><g id="LWPOLYLINE-84" data-name="LWPOLYLINE"><rect class="cls-12" x="170.18" y="253.15" width="1.64" height="22.5"/></g><g id="LWPOLYLINE-85" data-name="LWPOLYLINE"><rect class="cls-11" x="125.55" y="296.24" width="1.64" height="33.75" transform="translate(-184.4 181.06) rotate(-45)"/></g><g id="LWPOLYLINE-86" data-name="LWPOLYLINE"><rect class="cls-12" x="98.34" y="331.25" width="33.75" height="1.64"/></g><g id="LWPOLYLINE-87" data-name="LWPOLYLINE"><rect class="cls-12" x="226.78" y="329.38" width="33.75" height="1.64"/></g><g id="LWPOLYLINE-88" data-name="LWPOLYLINE"><rect class="cls-12" x="292.17" y="364.3" width="1.64" height="28.13"/></g><g id="LWPOLYLINE-89" data-name="LWPOLYLINE"><rect class="cls-11" x="294.3" y="392.84" width="33.75" height="2.11" transform="translate(-187.38 335.41) rotate(-45)"/></g><g id="LWPOLYLINE-90" data-name="LWPOLYLINE"><rect class="cls-12" x="220.34" y="286.49" width="33.75" height="1.64"/></g><g id="LWPOLYLINE-91" data-name="LWPOLYLINE"><rect class="cls-12" x="98.34" y="331.25" width="33.75" height="1.64"/></g><g id="LWPOLYLINE-92" data-name="LWPOLYLINE"><rect class="cls-12" x="226.78" y="329.38" width="33.75" height="1.64"/></g><g id="ARC-30" data-name="ARC"><path class="cls-12" d="M209.32,284.61a33.73,33.73,0,0,0-9.88-23.86"/></g><g id="ARC-31" data-name="ARC"><path class="cls-12" d="M137.72,291.88a33.8,33.8,0,0,0-23.87,9.88"/></g><g id="ARC-32" data-name="ARC"><path class="cls-12" d="M332.25,405.08a34.26,34.26,0,0,0-8.39-22.37"/></g><g id="LWPOLYLINE-93" data-name="LWPOLYLINE"><rect class="cls-9" x="216.59" y="185.47" width="58.13" height="30.94"/></g><g id="LWPOLYLINE-94" data-name="LWPOLYLINE"><path class="cls-9" d="M269.67,201V195.2a4.69,4.69,0,0,0-4.68-4.69H226.31a4.68,4.68,0,0,0-4.68,4.69v12.42a4.68,4.68,0,0,0,4.68,4.69H265a4.69,4.69,0,0,0,4.68-4.69V201.8"/></g><g id="ARC-33" data-name="ARC"><path class="cls-9" d="M267.49,201a3.29,3.29,0,1,0,0,.79"/></g><g id="LWPOLYLINE-95" data-name="LWPOLYLINE"><path class="cls-9" d="M264.27,201.8h11.06V201H264.27a.39.39,0,1,0,0,.78Z"/></g><g id="LWPOLYLINE-96" data-name="LWPOLYLINE"><rect class="cls-9" x="37.17" y="332.9" width="34.69" height="69.37"/></g><g id="LWPOLYLINE-97" data-name="LWPOLYLINE"><rect class="cls-9" x="42.8" y="336.53" width="24.38" height="61.05" rx="4.69"/></g><g id="CIRCLE-26" data-name="CIRCLE"><path class="cls-9" d="M52.88,390.85A2.11,2.11,0,1,1,55,393a2.1,2.1,0,0,1-2.11-2.11Z"/></g><g id="LWPOLYLINE-98" data-name="LWPOLYLINE"><rect class="cls-9" x="177.8" y="332.9" width="35.63" height="69.37"/></g><g id="ARC-34" data-name="ARC"><path class="cls-9" d="M196,395a3.29,3.29,0,1,0-.79,0"/></g><g id="LWPOLYLINE-99" data-name="LWPOLYLINE"><path class="cls-9" d="M195.22,391.78V403.1H196V391.78a.39.39,0,1,0-.78,0Z"/></g><g id="ARC-35" data-name="ARC"><path class="cls-13" d="M54.92,395a3.29,3.29,0,1,0-.79,0"/></g><g id="LWPOLYLINE-100" data-name="LWPOLYLINE"><path class="cls-13" d="M54.13,391.78V403.1h.77V391.78a.39.39,0,1,0-.77,0Z"/></g><g id="LWPOLYLINE-101" data-name="LWPOLYLINE"><rect class="cls-9" x="177.8" y="332.9" width="35.63" height="69.37"/></g><g id="LWPOLYLINE-102" data-name="LWPOLYLINE"><rect class="cls-9" x="177.8" y="332.9" width="35.63" height="69.37"/></g><g id="LWPOLYLINE-103" data-name="LWPOLYLINE"><rect class="cls-13" x="177.07" y="332.81" width="0.83" height="36.07"/></g><line class="cls-13" x1="177.07" y1="364.07" x2="177.9" y2="364.07"/><g id="LINE-217" data-name="LINE"><line class="cls-13" x1="231" y1="363.36" x2="256.31" y2="363.36"/></g><g id="LINE-218" data-name="LINE"><line class="cls-13" x1="256.31" y1="363.36" x2="256.31" y2="335.47"/></g><g id="LINE-219" data-name="LINE"><line class="cls-13" x1="256.31" y1="335.47" x2="231" y2="335.47"/></g><g id="LINE-220" data-name="LINE"><line class="cls-13" x1="231" y1="335.47" x2="231" y2="363.36"/></g><g id="LWPOLYLINE-104" data-name="LWPOLYLINE"><rect class="cls-13" x="411.12" y="298.09" width="29.18" height="23.2"/></g><g id="LWPOLYLINE-105" data-name="LWPOLYLINE"><polygon class="cls-13" points="452.6 298.09 440.42 298.07 440.42 321.51 452.6 321.53 452.6 298.09"/></g><g id="LWPOLYLINE-106" data-name="LWPOLYLINE"><rect class="cls-13" x="343.62" y="298.09" width="67.5" height="23.44"/></g><g id="LWPOLYLINE-107" data-name="LWPOLYLINE"><rect class="cls-13" x="428.86" y="234.34" width="23.75" height="22.5"/></g><g id="LWPOLYLINE-108" data-name="LWPOLYLINE"><rect class="cls-13" x="341.98" y="223.09" width="86.88" height="33.75"/></g><polyline class="cls-14" points="407.12 256.84 407.12 237.18 425.29 237.18 425.29 256.84"/><g id="LWPOLYLINE-109" data-name="LWPOLYLINE"><polyline class="cls-9" points="376.45 242.26 376.45 254.26 398.95 254.26 398.95 242.26 376.45 242.26"/></g><rect class="cls-13" x="387.48" y="240.15" width="2.74" height="1.15" transform="translate(777.71 481.44) rotate(180)"/><path class="cls-13" d="M386.88,241.18a1,1,0,0,0,.26.27v5.77a.42.42,0,0,0,.84,0v-5.77a.8.8,0,0,0-.84-1.36A.79.79,0,0,0,386.88,241.18Z"/><g id="CIRCLE-27" data-name="CIRCLE"><path class="cls-9" d="M380.49,305.81a.7.7,0,1,1,.7-.69.7.7,0,0,1-.7.69Z"/></g><g id="CIRCLE-28" data-name="CIRCLE"><path class="cls-9" d="M376.12,305.81a.7.7,0,1,1,0-1.39.7.7,0,1,1,0,1.39Z"/></g><g id="CIRCLE-29" data-name="CIRCLE"><path class="cls-9" d="M376.12,308.68a.7.7,0,1,1,.7-.7.7.7,0,0,1-.7.7Z"/></g><g id="CIRCLE-30" data-name="CIRCLE"><path class="cls-9" d="M378.31,308.68a.7.7,0,1,1,.69-.7.7.7,0,0,1-.69.7Z"/></g><g id="CIRCLE-31" data-name="CIRCLE"><path class="cls-9" d="M380.49,308.68a.7.7,0,1,1,0-1.39.7.7,0,1,1,0,1.39Z"/></g><g id="LWPOLYLINE-110" data-name="LWPOLYLINE"><rect class="cls-9" x="364.81" y="302.24" width="26.99" height="16.03" rx="0.38"/></g><circle class="cls-9" cx="369.62" cy="314.12" r="1.32"/><path class="cls-9" d="M373.62,310.94v5.85a.57.57,0,0,1-.57.56H366.2a.57.57,0,0,1-.57-.56v-5.85a0,0,0,0,1,.05,0h7.89A0,0,0,0,1,373.62,310.94Z"/><circle class="cls-9" cx="378.31" cy="314.12" r="1.32"/><path class="cls-9" d="M382.3,310.94v5.85a.57.57,0,0,1-.57.56h-6.85a.57.57,0,0,1-.57-.56v-5.85a0,0,0,0,1,.05,0h7.89A0,0,0,0,1,382.3,310.94Z"/><circle class="cls-9" cx="386.99" cy="314.12" r="1.32"/><path class="cls-9" d="M391,310.94v5.85a.56.56,0,0,1-.57.56h-6.85a.57.57,0,0,1-.57-.56v-5.85a0,0,0,0,1,.05,0h7.89A0,0,0,0,1,391,310.94Z"/><circle class="cls-9" cx="386.99" cy="306.55" r="1.32"/><path class="cls-9" d="M383,309.73v-5.85a.56.56,0,0,1,.57-.55h6.85a.55.55,0,0,1,.57.55v5.85a.05.05,0,0,1-.05,0H383A.05.05,0,0,1,383,309.73Z"/><circle class="cls-9" cx="369.62" cy="306.55" r="1.32"/><path class="cls-9" d="M365.63,309.73v-5.85a.56.56,0,0,1,.57-.55h6.85a.56.56,0,0,1,.57.55v5.85a.05.05,0,0,1-.05,0h-7.89A.05.05,0,0,1,365.63,309.73Z"/><g id="LINE-221" data-name="LINE"><line class="cls-9" x1="343.62" y1="309.78" x2="344.62" y2="309.78"/><line class="cls-15" x1="346.6" y1="309.78" x2="409.13" y2="309.78"/><line class="cls-9" x1="410.12" y1="309.78" x2="411.12" y2="309.78"/></g><g id="LWPOLYLINE-111" data-name="LWPOLYLINE"><line class="cls-14" x1="154.71" y1="284.61" x2="154.71" y2="222.5"/></g><g id="LWPOLYLINE-112" data-name="LWPOLYLINE"><polyline class="cls-14" points="89.2 295.16 48.42 295.16 48.42 248.52"/></g><g id="LWPOLYLINE-113" data-name="LWPOLYLINE"><polyline class="cls-14" points="14.32 245 14.32 198.13 89.2 198.13"/></g><g id="LWPOLYLINE-114" data-name="LWPOLYLINE"><line class="cls-14" x1="279.05" y1="407.9" x2="279.05" y2="361.61"/></g><g id="LWPOLYLINE-115" data-name="LWPOLYLINE"><line class="cls-14" x1="341.98" y1="232.47" x2="427.06" y2="232.47"/></g><g id="LWPOLYLINE-116" data-name="LWPOLYLINE"><line class="cls-14" x1="341.98" y1="232.47" x2="427.06" y2="232.47"/></g><g id="LINE-222" data-name="LINE"><line class="cls-10" x1="161.24" y1="280.67" x2="148.18" y2="280.67"/></g><g id="LINE-223" data-name="LINE"><line class="cls-10" x1="161.24" y1="278.25" x2="148.18" y2="278.25"/></g><g id="LINE-224" data-name="LINE"><line class="cls-10" x1="161.24" y1="275.83" x2="148.18" y2="275.83"/></g><g id="LINE-225" data-name="LINE"><line class="cls-10" x1="161.24" y1="273.41" x2="148.18" y2="273.41"/></g><g id="LINE-226" data-name="LINE"><line class="cls-10" x1="161.24" y1="270.99" x2="148.18" y2="270.99"/></g><g id="LINE-227" data-name="LINE"><line class="cls-10" x1="148.18" y1="268.57" x2="161.24" y2="268.57"/></g><g id="LINE-228" data-name="LINE"><line class="cls-10" x1="20.85" y1="241.06" x2="7.79" y2="241.06"/></g><g id="LINE-229" data-name="LINE"><line class="cls-10" x1="20.85" y1="238.64" x2="7.79" y2="238.64"/></g><g id="LINE-230" data-name="LINE"><line class="cls-10" x1="20.85" y1="236.22" x2="7.79" y2="236.22"/></g><g id="LINE-231" data-name="LINE"><line class="cls-10" x1="20.85" y1="233.8" x2="7.79" y2="233.8"/></g><g id="LINE-232" data-name="LINE"><line class="cls-10" x1="20.85" y1="231.38" x2="7.79" y2="231.38"/></g><g id="LINE-233" data-name="LINE"><line class="cls-10" x1="7.79" y1="228.96" x2="20.85" y2="228.96"/></g><g id="LINE-234" data-name="LINE"><line class="cls-10" x1="41.9" y1="252.47" x2="54.95" y2="252.47"/></g><g id="LINE-235" data-name="LINE"><line class="cls-10" x1="41.9" y1="254.89" x2="54.95" y2="254.89"/></g><g id="LINE-236" data-name="LINE"><line class="cls-10" x1="41.9" y1="257.31" x2="54.95" y2="257.31"/></g><g id="LINE-237" data-name="LINE"><line class="cls-10" x1="41.9" y1="259.73" x2="54.95" y2="259.73"/></g><g id="LINE-238" data-name="LINE"><line class="cls-10" x1="41.9" y1="262.15" x2="54.95" y2="262.15"/></g><g id="LINE-239" data-name="LINE"><line class="cls-10" x1="54.95" y1="264.56" x2="41.9" y2="264.56"/></g><g id="LINE-240" data-name="LINE"><line class="cls-10" x1="85.26" y1="191.6" x2="85.26" y2="204.66"/></g><g id="LINE-241" data-name="LINE"><line class="cls-10" x1="82.84" y1="191.6" x2="82.84" y2="204.66"/></g><g id="LINE-242" data-name="LINE"><line class="cls-10" x1="80.42" y1="191.6" x2="80.42" y2="204.66"/></g><g id="LINE-243" data-name="LINE"><line class="cls-10" x1="78" y1="191.6" x2="78" y2="204.66"/></g><g id="LINE-244" data-name="LINE"><line class="cls-10" x1="75.58" y1="191.6" x2="75.58" y2="204.66"/></g><g id="LINE-245" data-name="LINE"><line class="cls-10" x1="73.16" y1="204.66" x2="73.16" y2="191.6"/></g><g id="LINE-246" data-name="LINE"><line class="cls-10" x1="31.05" y1="191.6" x2="31.05" y2="204.66"/></g><g id="LINE-247" data-name="LINE"><line class="cls-10" x1="28.63" y1="191.6" x2="28.63" y2="204.66"/></g><g id="LINE-248" data-name="LINE"><line class="cls-10" x1="26.21" y1="191.6" x2="26.21" y2="204.66"/></g><g id="LINE-249" data-name="LINE"><line class="cls-10" x1="23.79" y1="191.6" x2="23.79" y2="204.66"/></g><g id="LINE-250" data-name="LINE"><line class="cls-10" x1="21.37" y1="191.6" x2="21.37" y2="204.66"/></g><g id="LINE-251" data-name="LINE"><line class="cls-10" x1="18.95" y1="204.66" x2="18.95" y2="191.6"/></g><g id="LINE-252" data-name="LINE"><line class="cls-10" x1="285.57" y1="403.95" x2="272.52" y2="403.95"/></g><g id="LINE-253" data-name="LINE"><line class="cls-10" x1="285.58" y1="401.53" x2="272.52" y2="401.53"/></g><g id="LINE-254" data-name="LINE"><line class="cls-10" x1="285.58" y1="399.11" x2="272.52" y2="399.11"/></g><g id="LINE-255" data-name="LINE"><line class="cls-10" x1="285.58" y1="396.69" x2="272.52" y2="396.69"/></g><g id="LINE-256" data-name="LINE"><line class="cls-10" x1="285.58" y1="394.27" x2="272.52" y2="394.27"/></g><g id="LINE-257" data-name="LINE"><line class="cls-10" x1="272.52" y1="391.85" x2="285.58" y2="391.85"/></g><g id="LINE-258" data-name="LINE"><line class="cls-10" x1="41.9" y1="259.73" x2="54.95" y2="259.73"/></g><g id="LINE-259" data-name="LINE"><line class="cls-10" x1="285.58" y1="396.69" x2="272.52" y2="396.69"/></g><g id="ARC-36" data-name="ARC"><path class="cls-13" d="M151.53,387.88c-.3,2.72-.86,9.93-.86,9.93"/></g><g id="ARC-37" data-name="ARC"><path class="cls-13" d="M161.24,394.2a.72.72,0,0,0,.66-.45c.13-.3.24-.6.34-.91a12.75,12.75,0,0,0,.56-2.52c0-.46.09-.92.11-1.38a13.9,13.9,0,0,0-.29-3.58,8.68,8.68,0,0,0-2.65-4.57,4.13,4.13,0,0,0-5.62,0,8.71,8.71,0,0,0-2.56,4.63,13.43,13.43,0,0,0-.22,3.58c0,.46.08.92.14,1.37a12.17,12.17,0,0,0,.6,2.52c.11.3.23.61.36.9a.72.72,0,0,0,.67.44Z"/></g><g id="ARC-38" data-name="ARC"><path class="cls-13" d="M162.92,387.77c.35,2.72.88,10,.88,10"/></g><g id="ARC-39" data-name="ARC"><path class="cls-13" d="M150.67,397.68a.94.94,0,0,1,.83-.89,48.45,48.45,0,0,1,11.46,0,.93.93,0,0,1,.83.89v0c.05,1,.08,2,.11,2.95a1.28,1.28,0,0,1-1.16,1.29c-1.83.16-3.67.24-5.51.23s-3.68-.07-5.51-.23a1.26,1.26,0,0,1-1.15-1.29c0-1,.06-2,.1-2.95Z"/></g><g id="LWPOLYLINE-117" data-name="LWPOLYLINE"><path class="cls-9" d="M124.4,396.82h7.16a.8.8,0,0,0,.8-.79v-9.55a.8.8,0,0,0-.8-.8H116.44a.8.8,0,0,0-.79.8V396a.8.8,0,0,0,.79.79h8Z"/></g><g id="ARC-40" data-name="ARC"><path class="cls-13" d="M123.6,398.8a1,1,0,1,0,.8,0Z"/></g><g id="ARC-41" data-name="ARC"><path class="cls-13" d="M119,399.92a1,1,0,1,0,0-.4Z"/></g><g id="ARC-42" data-name="ARC"><path class="cls-13" d="M129,399.92a1,1,0,0,1-1,.81,1,1,0,1,1,1-1.21Z"/></g><g id="LINE-260" data-name="LINE"><path class="cls-13" d="M123.6,394.91v4.81a.4.4,0,0,0,.8,0v-4.81a.4.4,0,0,0-.8,0Z"/></g><line class="cls-13" x1="120" y1="399.72" x2="117.18" y2="399.72"/><line class="cls-13" x1="130.82" y1="399.72" x2="128" y2="399.72"/><g id="LWPOLYLINE-118" data-name="LWPOLYLINE"><path class="cls-9" d="M100.55,396.82h7.16a.79.79,0,0,0,.79-.79v-9.55a.79.79,0,0,0-.79-.8H92.59a.8.8,0,0,0-.8.8V396a.8.8,0,0,0,.8.79h8Z"/></g><g id="LWPOLYLINE-119" data-name="LWPOLYLINE"><rect class="cls-9" x="85.63" y="383.3" width="57.28" height="19.09"/></g><g id="ARC-43" data-name="ARC"><path class="cls-13" d="M99.55,398.8a1,1,0,0,0-.6.92,1,1,0,1,0,1.4-.92Z"/></g><g id="ARC-44" data-name="ARC"><path class="cls-13" d="M95,399.92a1,1,0,1,0,0-.4Z"/></g><g id="ARC-45" data-name="ARC"><path class="cls-13" d="M104.94,399.92a1,1,0,1,1,0-.4Z"/></g><g id="LINE-261" data-name="LINE"><path class="cls-13" d="M99.55,394.91v4.81a.4.4,0,1,0,.8,0v-4.81a.4.4,0,0,0-.8,0Z"/></g><line class="cls-13" x1="95.95" y1="399.72" x2="93.13" y2="399.72"/><line class="cls-13" x1="106.77" y1="399.72" x2="103.95" y2="399.72"/><g id="LWPOLYLINE-120" data-name="LWPOLYLINE"><rect class="cls-13" x="266.16" y="224.5" width="19.46" height="25.34"/></g><g id="LWPOLYLINE-121" data-name="LWPOLYLINE"><path class="cls-13" d="M270,244.87a1.08,1.08,0,0,1-1.08-1.09V230.57a1.08,1.08,0,0,1,1.08-1.09h9.78a.9.9,0,0,1,.9.91V244a.9.9,0,0,1-.9.91Z"/></g><g id="ARC-46" data-name="ARC"><path class="cls-13" d="M269.4,259.66c3.1-.35,11.3-1,11.3-1"/></g><g id="ARC-47" data-name="ARC"><path class="cls-13" d="M276.6,270.7a.83.83,0,0,1-.51.75c-.34.14-.69.27-1,.39a14.15,14.15,0,0,1-2.87.63c-.52.06-1,.1-1.56.13a15.12,15.12,0,0,1-4.08-.34,10,10,0,0,1-5.2-3,4.85,4.85,0,0,1-1.23-3.22,4.78,4.78,0,0,1,1.29-3.18,9.91,9.91,0,0,1,5.26-2.91,15.52,15.52,0,0,1,4.08-.26c.52,0,1,.09,1.56.16a14.2,14.2,0,0,1,2.86.69c.35.12.69.26,1,.41a.81.81,0,0,1,.49.76Z"/></g><g id="ARC-48" data-name="ARC"><path class="cls-13" d="M269.28,272.61c3.09.4,11.42,1,11.42,1"/></g><g id="ARC-49" data-name="ARC"><path class="cls-13" d="M280.56,258.68a1.06,1.06,0,0,0-1,.94,54.61,54.61,0,0,0,0,13,1.08,1.08,0,0,0,1,1h0c1.11,0,2.23.09,3.35.12a1.43,1.43,0,0,0,1.46-1.31q.27-3.14.27-6.27c0-2.09-.09-4.19-.27-6.27a1.42,1.42,0,0,0-1.46-1.31c-1.12,0-2.24.06-3.35.12Z"/></g><g id="ARC-50" data-name="ARC"><path class="cls-13" d="M282,236.72a1.14,1.14,0,1,1,0,.91Z"/></g><g id="ARC-51" data-name="ARC"><path class="cls-13" d="M283.27,231.49a1.14,1.14,0,1,1-.46,0Z"/></g><g id="ARC-52" data-name="ARC"><path class="cls-13" d="M283.27,242.86a1.14,1.14,0,1,0-.46,0Z"/></g><g id="LINE-262" data-name="LINE"><path class="cls-13" d="M277.56,236.72H283a.46.46,0,1,1,0,.91h-5.48a.46.46,0,0,1,0-.91Z"/></g><line class="cls-13" x1="283.04" y1="232.62" x2="283.04" y2="229.42"/><line class="cls-13" x1="283.04" y1="244.93" x2="283.04" y2="241.73"/><g id="LWPOLYLINE-122" data-name="LWPOLYLINE"><polygon class="cls-16" points="213.42 413.64 295.57 413.64 295.57 410.82 298.5 410.82 298.5 405.08 293.81 405.08 293.81 392.43 290.3 392.43 290.3 407.89 267.8 407.89 267.8 361.61 290.3 361.61 290.3 364.3 293.81 364.3 293.81 332.89 302.13 332.89 302.13 329.38 295.57 329.38 295.57 325.63 292.06 325.63 292.06 329.38 260.53 329.38 260.53 332.89 264.28 332.89 264.28 366.64 223.03 366.64 223.03 332.89 226.78 332.89 226.78 329.38 143.46 329.38 143.46 325.63 137.72 325.63 137.72 329.38 132.09 329.38 132.09 332.89 213.42 332.89 213.42 402.27 177.8 402.27 177.8 368.52 174.28 368.52 174.28 402.27 37.17 402.27 37.17 332.89 98.34 332.89 98.34 329.38 92.72 329.38 92.72 286.02 89.2 286.02 89.2 306.41 37.17 306.41 37.17 248.52 89.2 248.52 89.2 252.27 92.72 252.27 92.72 241.25 89.2 241.25 89.2 245 3.07 245 3.07 186.88 89.2 186.88 89.2 207.5 92.72 207.5 92.72 186.88 98.34 186.88 98.34 183.36 3.07 183.36 3.07 57.62 25.45 57.62 25.45 22.7 21.7 22.7 20.45 24.9 18.84 26.85 16.91 28.49 14.7 29.77 12.34 30.64 9.85 31.08 7.31 31.08 4.82 30.64 2.44 29.77 0.2 28.45 0.2 247.88 34.3 247.88 34.3 410.82 213.42 410.82 213.42 413.64"/></g><g id="LWPOLYLINE-123" data-name="LWPOLYLINE"><polygon class="cls-16" points="353.52 413.64 353.52 328.79 434.91 328.79 447.8 328.79 460.04 328.79 460.04 183.42 464.2 183.42 464.2 0.2 460.45 0.2 459.2 2.4 457.59 4.35 455.66 5.99 453.47 7.27 451.09 8.14 448.6 8.58 446.06 8.58 443.57 8.14 441.19 7.27 439 5.99 437.07 4.35 435.45 2.4 434.2 0.2 430.45 0.2 430.45 57.51 451.08 57.51 451.08 181.96 428.7 181.96 428.7 234.34 452.6 234.34 452.6 321.53 343.62 321.53 343.62 329.38 335.88 329.38 335.88 332.89 350.65 332.89 350.65 405.08 332.22 405.08 332.22 410.82 346.2 410.82 346.2 413.64 350.65 413.64 353.52 413.64"/></g><g id="LWPOLYLINE-124" data-name="LWPOLYLINE"><polygon class="cls-16" points="295.57 291.88 295.57 181.96 287.72 181.96 287.72 57.51 317.95 57.51 317.95 0.2 314.2 0.2 312.95 2.4 311.34 4.35 309.41 5.99 307.22 7.27 304.84 8.14 302.35 8.58 299.81 8.58 297.32 8.14 294.94 7.27 292.75 5.99 290.82 4.35 289.2 2.4 287.95 0.2 284.2 0.2 284.2 181.96 209.2 181.96 209.2 185.47 213.07 185.47 213.07 284.61 209.32 284.61 209.32 288.13 220.34 288.13 220.34 281.33 216.59 281.33 216.59 185.47 274.71 185.47 274.71 218.75 285.96 218.75 285.96 281.33 254.09 281.33 254.09 288.13 292.06 288.13 292.06 291.88 295.57 291.88"/></g><g id="LWPOLYLINE-125" data-name="LWPOLYLINE"><polygon class="cls-16" points="143.46 291.88 143.46 288.13 175.57 288.13 175.57 284.61 171.82 284.61 171.82 275.65 168.31 275.65 168.31 284.61 143.46 284.61 143.46 221.68 168.31 221.68 168.31 230.65 171.82 230.65 171.82 185.47 175.45 185.47 175.45 181.96 160.45 181.96 160.45 57.62 171.7 57.62 171.7 22.7 167.95 22.7 166.7 24.9 165.09 26.85 163.16 28.49 160.97 29.77 158.59 30.64 156.09 31.08 153.56 31.08 151.07 30.64 148.69 29.77 146.5 28.49 144.57 26.85 142.95 24.9 141.7 22.7 137.95 22.7 137.95 57.62 154.71 57.62 154.71 183.36 132.09 183.36 132.09 186.88 137.72 186.88 137.72 291.88 143.46 291.88"/></g><path class="cls-17" d="M37.36,114.31h.88l1.82,4.45h0l1.82-4.45h.88v5.6h-.66v-4.54h0l-1.89,4.54h-.28L38,115.37h0v4.54h-.66Z"/><path class="cls-17" d="M47.71,118.78H45.19l-.39,1.13h-.68l2-5.6h.64l2,5.6H48.1Zm-.2-.57-1-3h0l-1,3Z"/><path class="cls-17" d="M49.67,118.06l.65-.12A1.47,1.47,0,0,0,52,119.41c.77,0,1.28-.36,1.28-.91s-.37-.87-1.54-1.24c-1.34-.44-1.78-.83-1.78-1.59s.73-1.48,1.79-1.48a2,2,0,0,1,2,1.64l-.65.13a1.34,1.34,0,0,0-1.39-1.14c-.68,0-1.13.33-1.13.85s.32.67,1.35,1c1.45.47,2,1,2,1.84S53.13,120,52,120A2,2,0,0,1,49.67,118.06Z"/><path class="cls-17" d="M56.7,114.94H55v-.63h4.15v.63H57.37v5H56.7Z"/><path class="cls-17" d="M60.58,114.31h3.36v.63h-2.7v1.79h2.48v.59H61.24v2h2.7v.62H60.58Z"/><path class="cls-17" d="M68,117.61l1.23,2.3h-.78l-1.18-2.27H66.19v2.27h-.66v-5.6h2c1.17,0,1.87.63,1.87,1.66a1.54,1.54,0,0,1-1.4,1.62Zm-.52-.59c.82,0,1.25-.36,1.25-1s-.42-1-1.25-1H66.19V117Z"/><path class="cls-17" d="M34.85,122.81H37a1.46,1.46,0,0,1,1.63,1.45,1.18,1.18,0,0,1-.66,1.15v0a1.34,1.34,0,0,1,.87,1.33c0,1.08-.68,1.65-2,1.65h-2Zm2,2.38c.73,0,1.09-.3,1.09-.9s-.37-.85-1.09-.85H35.5v1.75Zm-.1,2.6c1,0,1.39-.31,1.39-1s-.39-1-1.37-1H35.5v2Z"/><path class="cls-17" d="M40.47,122.81h3.36v.63h-2.7v1.79h2.48v.59H41.13v2h2.7v.62H40.47Z"/><path class="cls-17" d="M45.42,122.81h1.75c1.41,0,2.41,1,2.41,2.8,0,2-1,2.8-2.46,2.8h-1.7Zm1.66,5c1.13,0,1.84-.6,1.84-2.18s-.71-2.17-1.79-2.17H46.08v4.35Z"/><path class="cls-17" d="M53.71,126.11l1.24,2.3h-.78L53,126.14H51.87v2.27h-.66v-5.6h2c1.17,0,1.86.63,1.86,1.66a1.54,1.54,0,0,1-1.4,1.62Zm-.52-.59c.83,0,1.26-.36,1.26-1s-.42-1-1.26-1H51.87v2.08Z"/><path class="cls-17" d="M56.38,125.61c0-1.75.94-2.92,2.36-2.92s2.35,1.17,2.35,2.92-.94,2.92-2.35,2.92S56.38,127.36,56.38,125.61Zm4,0c0-1.41-.65-2.29-1.69-2.29s-1.7.88-1.7,2.29.65,2.3,1.7,2.3S60.43,127,60.43,125.61Z"/><path class="cls-17" d="M62.44,125.61c0-1.75.94-2.92,2.36-2.92s2.35,1.17,2.35,2.92-.94,2.92-2.35,2.92S62.44,127.36,62.44,125.61Zm4,0c0-1.41-.65-2.29-1.69-2.29s-1.7.88-1.7,2.29.65,2.3,1.7,2.3S66.49,127,66.49,125.61Z"/><path class="cls-17" d="M68.78,122.81h.88l1.82,4.45h0l1.81-4.45h.88v5.6h-.66v-4.54h0l-1.89,4.54h-.28l-1.88-4.54h0v4.54h-.66Z"/><path class="cls-17" d="M29,132.07l-1.25.8v-.69l1.33-.87h.58v5.6H29Z"/><path class="cls-17" d="M31.26,135.05l.66-.11c.11,1,.58,1.47,1.41,1.47a1.08,1.08,0,0,0,1.2-1.08c0-.76-.44-1.12-1.32-1.12h-.4v-.58h.4c.66,0,1.17-.4,1.17-.9s-.4-.93-1.06-.93a1.17,1.17,0,0,0-1.26,1.06l-.65-.1a1.8,1.8,0,0,1,1.91-1.57,1.54,1.54,0,0,1,1.73,1.49,1.37,1.37,0,0,1-.76,1.18h0a1.5,1.5,0,0,1,.89,1.46,1.69,1.69,0,0,1-1.85,1.7A2,2,0,0,1,31.26,135.05Z"/><path class="cls-17" d="M36.84,131.31h.58v1.79h-.58Z"/><path class="cls-17" d="M38.56,133.72h2.09v.6H38.56Z"/><path class="cls-17" d="M41.92,135.43l.65-.16A1.41,1.41,0,1,0,44,133.69a1.79,1.79,0,0,0-1.35.59l-.59-.14.54-2.83h2.93v.63H43.1l-.3,1.55h0a2.11,2.11,0,0,1,1.29-.39A1.88,1.88,0,0,1,46,135a1.92,1.92,0,0,1-2,2A2,2,0,0,1,41.92,135.43Z"/><path class="cls-17" d="M47.3,131.31h.58v1.79H47.3Zm1.05,0h.59v1.79h-.59Z"/><path class="cls-17" d="M52.63,135.47,54,134.18l-1.32-1.3.4-.39,1.28,1.31,1.3-1.31.39.39-1.31,1.3L56,135.47l-.39.39-1.3-1.31L53,135.86Z"/><path class="cls-17" d="M60.18,132.07l-1.25.8v-.69l1.33-.87h.58v5.6h-.66Z"/><path class="cls-17" d="M63.3,136.29h3v.62H62.6v-.53a2,2,0,0,1,.23-1.06c.2-.37.55-.64,1.43-1.09,1.15-.6,1.49-.94,1.49-1.5s-.49-.91-1.17-.91a1.31,1.31,0,0,0-1.4,1.36l-.66-.06a1.93,1.93,0,0,1,2.06-1.93,1.69,1.69,0,0,1,1.83,1.54c0,.82-.41,1.31-1.64,1.94-.94.47-1.19.65-1.34.93A1.58,1.58,0,0,0,63.3,136.29Z"/><path class="cls-17" d="M68.14,131.31h.58v1.79h-.58Z"/><path class="cls-17" d="M70.14,133.72h2.09v.6H70.14Z"/><path class="cls-17" d="M77.6,133.78c0,2.27-.61,3.25-2,3.25a1.77,1.77,0,0,1-1.8-1.42l.61-.16a1.18,1.18,0,0,0,1.19,1c.89,0,1.3-.56,1.36-2h0a1.71,1.71,0,0,1-1.44.63,1.79,1.79,0,0,1-2-1.92,1.88,1.88,0,0,1,2-1.9C76.77,131.19,77.6,132.06,77.6,133.78Zm-.77-.65a1.25,1.25,0,0,0-1.33-1.33,1.31,1.31,0,1,0,1.33,1.33Z"/><path class="cls-17" d="M79.18,131.31h.59v1.79h-.59Zm1.06,0h.58v1.79h-.58Z"/><path class="cls-17" d="M198.56,154.49h2.15a1.45,1.45,0,0,1,1.63,1.44,1.22,1.22,0,0,1-.65,1.16h0a1.34,1.34,0,0,1,.86,1.33c0,1.08-.68,1.65-2,1.65h-2Zm2,2.37c.73,0,1.09-.29,1.09-.89s-.37-.86-1.09-.86h-1.37v1.75Zm-.09,2.6c1,0,1.39-.31,1.39-1s-.4-1-1.38-1h-1.29v2Z"/><path class="cls-17" d="M204.18,154.49h3.36v.62h-2.7v1.79h2.48v.59h-2.48v2h2.7v.62h-3.36Z"/><path class="cls-17" d="M209.14,154.49h1.74c1.41,0,2.41,1,2.41,2.79,0,2-1,2.8-2.46,2.8h-1.69Zm1.65,5c1.14,0,1.84-.6,1.84-2.18,0-1.43-.7-2.17-1.79-2.17h-1.05v4.35Z"/><path class="cls-17" d="M217.43,157.78l1.23,2.3h-.78l-1.18-2.27h-1.12v2.27h-.66v-5.59h2c1.17,0,1.86.62,1.86,1.65a1.53,1.53,0,0,1-1.39,1.62Zm-.52-.59c.82,0,1.25-.36,1.25-1.05s-.42-1-1.25-1h-1.33v2.08Z"/><path class="cls-17" d="M220.09,157.29c0-1.76.94-2.92,2.36-2.92s2.36,1.16,2.36,2.92-.95,2.91-2.36,2.91S220.09,159,220.09,157.29Zm4,0c0-1.42-.65-2.3-1.69-2.3s-1.7.88-1.7,2.3.65,2.29,1.7,2.29S224.14,158.7,224.14,157.29Z"/><path class="cls-17" d="M226.15,157.29c0-1.76.94-2.92,2.36-2.92s2.36,1.16,2.36,2.92-1,2.91-2.36,2.91S226.15,159,226.15,157.29Zm4,0c0-1.42-.64-2.3-1.69-2.3s-1.7.88-1.7,2.3.65,2.29,1.7,2.29S230.2,158.7,230.2,157.29Z"/><path class="cls-17" d="M232.5,154.49h.88l1.81,4.44h0l1.81-4.44h.88v5.59h-.66v-4.54h0l-1.88,4.54h-.28l-1.89-4.54h0v4.54h-.65Z"/><path class="cls-17" d="M242.94,159.46h3v.62h-3.72v-.52a2,2,0,0,1,.23-1.07c.2-.36.55-.64,1.43-1.09,1.16-.6,1.49-.94,1.49-1.5s-.48-.91-1.16-.91a1.3,1.3,0,0,0-1.4,1.36l-.67-.06a1.93,1.93,0,0,1,2.07-1.92,1.68,1.68,0,0,1,1.83,1.53c0,.83-.42,1.31-1.65,1.94-.94.47-1.19.65-1.34.93A1.47,1.47,0,0,0,242.94,159.46Z"/><path class="cls-17" d="M197.82,163.74l-1.25.81v-.7l1.33-.86h.59v5.59h-.67Z"/><path class="cls-17" d="M201.26,163.74l-1.25.81v-.7l1.33-.86h.58v5.59h-.66Z"/><path class="cls-17" d="M203.88,163h.59v1.78h-.59Z"/><path class="cls-17" d="M205.6,165.39h2.09v.6H205.6Z"/><path class="cls-17" d="M209.14,165.79c0-1.82.9-2.92,2.21-2.92s2.22,1.1,2.22,2.92-.91,2.91-2.22,2.91S209.14,167.6,209.14,165.79Zm3.76,0c0-1.47-.61-2.3-1.55-2.3s-1.55.83-1.55,2.3.62,2.29,1.55,2.29S212.9,167.25,212.9,165.79Z"/><path class="cls-17" d="M215.09,163h.58v1.78h-.58Zm1,0h.59v1.78h-.59Z"/><path class="cls-17" d="M220.42,167.14l1.32-1.29-1.32-1.3.4-.39,1.28,1.31,1.3-1.31.39.39-1.31,1.3,1.31,1.29-.39.4-1.3-1.32-1.28,1.32Z"/><path class="cls-17" d="M228,163.74l-1.25.81v-.7l1.33-.86h.58v5.59H228Z"/><path class="cls-17" d="M231.09,168h3v.62h-3.72v-.52a2,2,0,0,1,.23-1.07c.2-.36.54-.64,1.42-1.09,1.16-.6,1.5-.94,1.5-1.5s-.49-.91-1.17-.91a1.31,1.31,0,0,0-1.4,1.36l-.66-.06a1.92,1.92,0,0,1,2.06-1.92,1.68,1.68,0,0,1,1.83,1.53c0,.83-.41,1.31-1.64,1.94-.94.47-1.2.65-1.34.93A1.58,1.58,0,0,0,231.09,168Z"/><path class="cls-17" d="M235.93,163h.58v1.78h-.58Z"/><path class="cls-17" d="M237.93,165.39H240v.6h-2.09Z"/><path class="cls-17" d="M243.32,163.63v0h-2.91V163h3.67v.57l-2.27,5h-.75Z"/><path class="cls-17" d="M245.7,163h.58v1.78h-.58Zm1.06,0h.58v1.78h-.58Z"/><path class="cls-17" d="M327.84,122.26h.65v5H331v.63h-3.18Z"/><path class="cls-17" d="M332.49,122.26h.66v5.6h-.66Z"/><path class="cls-17" d="M334.48,122.26h.7l1.66,4.72h0l1.67-4.72h.68l-2,5.6h-.71Z"/><path class="cls-17" d="M340.56,122.26h.66v5.6h-.66Z"/><path class="cls-17" d="M343.13,122.26h.77l2.55,4.57h0v-4.57h.67v5.6h-.79l-2.54-4.57h0v4.57h-.65Z"/><path class="cls-17" d="M348.76,125.06c0-1.78.92-2.92,2.35-2.92a2.08,2.08,0,0,1,2.13,1.85l-.65.12a1.44,1.44,0,0,0-1.48-1.35c-1,0-1.69.88-1.69,2.3s.65,2.29,1.69,2.29a1.43,1.43,0,0,0,1.5-1.64h-1.42v-.62h2.07v.57a2.09,2.09,0,0,1-2.15,2.32C349.68,128,348.76,126.83,348.76,125.06Z"/><path class="cls-17" d="M356.87,128l2.85-6,.45.2-2.86,6Z"/><path class="cls-17" d="M364.11,122.26h1.74c1.42,0,2.42,1,2.42,2.79,0,2-1,2.81-2.47,2.81h-1.69Zm1.65,5c1.14,0,1.84-.6,1.84-2.18,0-1.43-.7-2.17-1.79-2.17h-1.05v4.35Z"/><path class="cls-17" d="M369.91,122.26h.65v5.6h-.65Z"/><path class="cls-17" d="M372.47,122.26h.78l2.54,4.57h0v-4.57h.66v5.6h-.78l-2.55-4.57h0v4.57h-.66Z"/><path class="cls-17" d="M378.4,122.26h.65v5.6h-.65Z"/><path class="cls-17" d="M381,122.26h.78l2.54,4.57h0v-4.57H385v5.6h-.78l-2.55-4.57h0v4.57H381Z"/><path class="cls-17" d="M386.59,125.06c0-1.78.93-2.92,2.36-2.92a2.08,2.08,0,0,1,2.13,1.85l-.66.12a1.44,1.44,0,0,0-1.47-1.35c-1.05,0-1.7.88-1.7,2.3s.65,2.29,1.7,2.29a1.43,1.43,0,0,0,1.5-1.64H389v-.62h2.07v.57A2.09,2.09,0,0,1,389,128C387.52,128,386.59,126.83,386.59,125.06Z"/><path class="cls-17" d="M397.77,125.55l1.23,2.31h-.78L397,125.59h-1.12v2.27h-.66v-5.6h2c1.17,0,1.86.62,1.86,1.66a1.55,1.55,0,0,1-1.39,1.62Zm-.52-.59c.82,0,1.25-.36,1.25-1s-.42-1-1.25-1h-1.33V125Z"/><path class="cls-17" d="M400.43,125.06c0-1.75.94-2.92,2.36-2.92s2.35,1.17,2.35,2.92-.94,2.92-2.35,2.92S400.43,126.81,400.43,125.06Zm4.05,0c0-1.42-.65-2.3-1.69-2.3s-1.7.88-1.7,2.3.65,2.29,1.7,2.29S404.48,126.47,404.48,125.06Z"/><path class="cls-17" d="M406.49,125.06c0-1.75.94-2.92,2.36-2.92s2.35,1.17,2.35,2.92-.94,2.92-2.35,2.92S406.49,126.81,406.49,125.06Zm4.05,0c0-1.42-.65-2.3-1.69-2.3s-1.7.88-1.7,2.3.65,2.29,1.7,2.29S410.54,126.47,410.54,125.06Z"/><path class="cls-17" d="M412.84,122.26h.88l1.81,4.45h0l1.81-4.45h.88v5.6h-.66v-4.54h0l-1.89,4.54h-.28l-1.88-4.54h0v4.54h-.65Z"/><path class="cls-17" d="M347.52,131.51l-1.25.81v-.7l1.33-.86h.58v5.6h-.66Z"/><path class="cls-17" d="M352.4,135.21h-2.8v-.57l2.47-3.88h1v3.87h.71v.58h-.71v1.15h-.67Zm0-.58v-3.35h0l-2.13,3.35Z"/><path class="cls-17" d="M355.13,130.76h.59v1.78h-.59Z"/><path class="cls-17" d="M356.85,133.17h2.09v.6h-2.09Z"/><path class="cls-17" d="M364.66,134.55a1.88,1.88,0,0,1-2,1.93c-1.46,0-2.3-1.1-2.3-2.83s1-3,2.32-3a1.8,1.8,0,0,1,1.87,1.5l-.62.15a1.18,1.18,0,0,0-1.23-1c-.92,0-1.6.87-1.66,2.22h0a1.88,1.88,0,0,1,1.67-.84A1.86,1.86,0,0,1,364.66,134.55Zm-.64,0a1.28,1.28,0,0,0-1.35-1.34,1.33,1.33,0,1,0,0,2.66A1.28,1.28,0,0,0,364,134.55Z"/><path class="cls-17" d="M366.19,130.76h.59v1.78h-.59Zm1.06,0h.58v1.78h-.58Z"/><path class="cls-17" d="M371.53,134.92l1.31-1.3-1.31-1.29.39-.39,1.29,1.31,1.29-1.31.39.39-1.31,1.29,1.31,1.3-.39.39L373.21,134l-1.29,1.31Z"/><path class="cls-17" d="M379.07,131.51l-1.25.81v-.7l1.33-.86h.59v5.6h-.67Z"/><path class="cls-17" d="M381.28,134.8a1.57,1.57,0,0,1,1.05-1.51h0a1.25,1.25,0,0,1-.74-1.17,1.79,1.79,0,0,1,3.52,0,1.27,1.27,0,0,1-.73,1.17h0a1.59,1.59,0,0,1,1,1.51c0,1-.82,1.68-2.07,1.68S381.28,135.81,381.28,134.8Zm3.46,0c0-.67-.54-1.11-1.39-1.11s-1.39.44-1.39,1.11.54,1.08,1.39,1.08S384.74,135.42,384.74,134.76Zm-.28-2.61c0-.54-.45-.91-1.11-.91s-1.1.37-1.1.91.44.88,1.1.88S384.46,132.69,384.46,132.15Z"/><path class="cls-17" d="M386.84,130.76h.59v1.78h-.59Z"/><path class="cls-17" d="M388.84,133.17h2.09v.6h-2.09Z"/><path class="cls-17" d="M392.15,134.49l.65-.1c.12,1,.59,1.46,1.41,1.46a1.07,1.07,0,0,0,1.2-1.08c0-.76-.43-1.12-1.32-1.12h-.4v-.57h.4c.66,0,1.18-.4,1.18-.9s-.4-.93-1.07-.93a1.19,1.19,0,0,0-1.26,1.05l-.65-.09a1.8,1.8,0,0,1,1.91-1.57,1.54,1.54,0,0,1,1.73,1.49,1.33,1.33,0,0,1-.76,1.17v0a1.49,1.49,0,0,1,.9,1.45,1.7,1.7,0,0,1-1.86,1.71A2,2,0,0,1,392.15,134.49Z"/><path class="cls-17" d="M397.71,130.76h.58v1.78h-.58Zm1.06,0h.58v1.78h-.58Z"/><path class="cls-17" d="M305.12,358.5h3.37v.63h-2.71v2h2.49v.59h-2.49v2.38h-.66Z"/><path class="cls-17" d="M310,361.3c0-1.75.95-2.92,2.36-2.92s2.36,1.17,2.36,2.92-.94,2.92-2.36,2.92S310,363.05,310,361.3Zm4.06,0c0-1.41-.65-2.29-1.7-2.29s-1.69.88-1.69,2.29.64,2.3,1.69,2.3S314.1,362.72,314.1,361.3Z"/><path class="cls-17" d="M317.75,361.77l-2-3.27h.77l1.51,2.62h0l1.52-2.62h.76l-2,3.27v2.33h-.66Z"/><path class="cls-17" d="M322,358.5h3.36v.63h-2.71v1.79h2.48v.59h-2.48v2h2.71v.62H322Z"/><path class="cls-17" d="M329.79,361.8l1.23,2.3h-.77l-1.18-2.27H328v2.27h-.66v-5.6h2c1.17,0,1.86.63,1.86,1.66a1.54,1.54,0,0,1-1.4,1.62Zm-.52-.59c.83,0,1.26-.36,1.26-1s-.42-1-1.26-1H328v2.08Z"/><path class="cls-17" d="M235.29,347.82H236l.83,4.55h0l1.39-4.55h.62l1.39,4.55h0l.82-4.55h.68l-1,5.59h-.8l-1.37-4.49h0l-1.37,4.49h-.81Z"/><path class="cls-17" d="M242.67,353.53l2.85-6,.45.2-2.86,6Z"/><path class="cls-17" d="M247.66,347.82h1.74c1.42,0,2.42,1,2.42,2.79,0,2-1,2.8-2.46,2.8h-1.7Zm1.66,5c1.13,0,1.83-.6,1.83-2.18s-.7-2.17-1.79-2.17h-1v4.35Z"/><path class="cls-17" d="M434.51,242l.66-.11a1.46,1.46,0,0,0,1.65,1.46c.78,0,1.29-.36,1.29-.9s-.38-.88-1.55-1.25c-1.33-.44-1.78-.83-1.78-1.58s.74-1.48,1.79-1.48a2,2,0,0,1,2,1.63l-.64.13a1.35,1.35,0,0,0-1.4-1.14c-.67,0-1.12.34-1.12.86s.32.66,1.34,1c1.46.47,2,1,2,1.84s-.79,1.53-1.95,1.53A2.05,2.05,0,0,1,434.51,242Z"/><path class="cls-17" d="M439.85,241c0-1.76.94-2.92,2.36-2.92s2.36,1.16,2.36,2.92-.95,2.91-2.36,2.91S439.85,242.76,439.85,241Zm4,0c0-1.42-.65-2.3-1.69-2.3s-1.7.88-1.7,2.3.65,2.29,1.7,2.29S443.9,242.42,443.9,241Z"/><path class="cls-17" d="M445.22,243.92l2.85-6,.45.2-2.86,6Z"/><path class="cls-17" d="M438.22,246.71h.68l.82,4.55h0l1.38-4.55h.62l1.4,4.55h0l.83-4.55h.67l-1,5.59h-.8l-1.38-4.49h0l-1.37,4.49h-.81Z"/><path class="cls-17" d="M410.47,244.25h1.74c1.42,0,2.42,1,2.42,2.79,0,2-1,2.81-2.47,2.81h-1.69Zm1.65,5c1.14,0,1.84-.6,1.84-2.18,0-1.43-.7-2.17-1.79-2.17h-1.05v4.35Z"/><path class="cls-17" d="M415.39,244.25h.68l.83,4.55h0l1.39-4.55h.62l1.39,4.55h0l.82-4.55h.68l-1,5.6H420l-1.37-4.5h0l-1.37,4.5h-.8Z"/><path class="cls-17" d="M426.46,309.58l1.23,2.3h-.77l-1.19-2.27h-1.12v2.27H424v-5.59h2c1.17,0,1.86.62,1.86,1.65a1.54,1.54,0,0,1-1.4,1.62Zm-.52-.59c.83,0,1.26-.36,1.26-1.05s-.43-1-1.26-1h-1.33V309Z"/><polygon class="cls-17" points="311.85 427.79 317.25 413.39 322.64 427.79 311.85 427.79"/></g></g></svg>