<svg xmlns="http://www.w3.org/2000/svg" viewBox="0 0 345.99 452.37"><defs><style>.cls-1,.cls-10,.cls-11,.cls-14,.cls-15,.cls-2,.cls-6,.cls-8,.cls-9{fill:none;}.cls-1{stroke:#a8a9ac;}.cls-1,.cls-11,.cls-12,.cls-13,.cls-14,.cls-15,.cls-2,.cls-3,.cls-4,.cls-6,.cls-8,.cls-9{stroke-linecap:round;stroke-linejoin:round;}.cls-1,.cls-4,.cls-6,.cls-7{stroke-width:0.15px;}.cls-10,.cls-11,.cls-12,.cls-13,.cls-14,.cls-15,.cls-16,.cls-2,.cls-3,.cls-4,.cls-6,.cls-7,.cls-8,.cls-9{stroke:#231f20;}.cls-10,.cls-13,.cls-14,.cls-15,.cls-2,.cls-8{stroke-width:0.25px;}.cls-2{stroke-dasharray:1.32 1.32;}.cls-12,.cls-13,.cls-3,.cls-4,.cls-5,.cls-7{fill:#fff;}.cls-3{stroke-width:0.15px;}.cls-10,.cls-16,.cls-7{stroke-miterlimit:10;}.cls-16,.cls-9{stroke-width:0.4px;}.cls-11,.cls-12{stroke-width:0.2px;}.cls-14{stroke-dasharray:1.99 1.99;}.cls-15{stroke-dasharray:2 2;}.cls-16{fill:#dee2e1;}.cls-17{fill:#231f20;}</style></defs><title>Asset 7</title><g id="Layer_2" data-name="Layer 2"><g id="Unit6-14B_Pop-Up"><g id="LINE"><line class="cls-1" x1="341.74" y1="250.75" x2="341.74" y2="329.38"/></g><g id="LINE-2" data-name="LINE"><line class="cls-1" x1="337.06" y1="250.75" x2="337.06" y2="329.38"/></g><g id="LINE-3" data-name="LINE"><line class="cls-1" x1="332.37" y1="250.75" x2="332.37" y2="329.38"/></g><g id="LINE-4" data-name="LINE"><line class="cls-1" x1="327.68" y1="250.75" x2="327.68" y2="329.38"/></g><g id="LINE-5" data-name="LINE"><line class="cls-1" x1="322.99" y1="250.75" x2="322.99" y2="329.38"/></g><g id="LINE-6" data-name="LINE"><line class="cls-1" x1="318.31" y1="250.75" x2="318.31" y2="329.38"/></g><g id="LINE-7" data-name="LINE"><line class="cls-1" x1="313.62" y1="250.75" x2="313.62" y2="329.38"/></g><g id="LINE-8" data-name="LINE"><line class="cls-1" x1="308.93" y1="250.75" x2="308.93" y2="329.38"/></g><g id="LINE-9" data-name="LINE"><line class="cls-1" x1="304.24" y1="57.62" x2="304.24" y2="183.36"/></g><g id="LINE-10" data-name="LINE"><line class="cls-1" x1="304.24" y1="250.75" x2="304.24" y2="329.38"/></g><g id="LINE-11" data-name="LINE"><line class="cls-1" x1="304.24" y1="186.88" x2="304.24" y2="227.31"/></g><g id="LINE-12" data-name="LINE"><line class="cls-1" x1="299.56" y1="45.2" x2="299.56" y2="183.36"/></g><g id="LINE-13" data-name="LINE"><line class="cls-1" x1="299.56" y1="250.75" x2="299.56" y2="329.38"/></g><g id="LINE-14" data-name="LINE"><line class="cls-1" x1="299.56" y1="186.88" x2="299.56" y2="227.31"/></g><g id="LINE-15" data-name="LINE"><line class="cls-1" x1="294.87" y1="45.2" x2="294.87" y2="183.36"/></g><g id="LINE-16" data-name="LINE"><line class="cls-1" x1="294.87" y1="250.75" x2="294.87" y2="329.38"/></g><g id="LINE-17" data-name="LINE"><line class="cls-1" x1="294.87" y1="186.88" x2="294.87" y2="227.31"/></g><g id="LINE-18" data-name="LINE"><line class="cls-1" x1="290.18" y1="45.2" x2="290.18" y2="183.36"/></g><g id="LINE-19" data-name="LINE"><line class="cls-1" x1="290.18" y1="250.75" x2="290.18" y2="329.38"/></g><g id="LINE-20" data-name="LINE"><line class="cls-1" x1="290.18" y1="186.88" x2="290.18" y2="227.31"/></g><g id="LINE-21" data-name="LINE"><line class="cls-1" x1="285.49" y1="45.2" x2="285.49" y2="183.36"/></g><g id="LINE-22" data-name="LINE"><line class="cls-1" x1="280.81" y1="45.2" x2="280.81" y2="182.21"/></g><g id="LINE-23" data-name="LINE"><line class="cls-1" x1="280.81" y1="186.88" x2="280.81" y2="328.23"/></g><g id="LINE-24" data-name="LINE"><line class="cls-1" x1="276.12" y1="45.2" x2="276.12" y2="183.36"/></g><g id="LINE-25" data-name="LINE"><line class="cls-1" x1="276.12" y1="186.88" x2="276.12" y2="329.38"/></g><g id="LINE-26" data-name="LINE"><line class="cls-1" x1="271.43" y1="45.2" x2="271.43" y2="183.36"/></g><g id="LINE-27" data-name="LINE"><line class="cls-1" x1="271.43" y1="186.88" x2="271.43" y2="329.38"/></g><g id="LINE-28" data-name="LINE"><line class="cls-1" x1="266.74" y1="45.2" x2="266.74" y2="183.36"/></g><g id="LINE-29" data-name="LINE"><line class="cls-1" x1="266.74" y1="186.88" x2="266.74" y2="329.38"/></g><g id="LINE-30" data-name="LINE"><line class="cls-1" x1="262.06" y1="45.2" x2="262.06" y2="183.36"/></g><g id="LINE-31" data-name="LINE"><line class="cls-1" x1="262.06" y1="186.88" x2="262.06" y2="329.38"/></g><g id="LINE-32" data-name="LINE"><line class="cls-1" x1="257.37" y1="45.2" x2="257.37" y2="183.36"/></g><g id="LINE-33" data-name="LINE"><line class="cls-1" x1="257.37" y1="186.88" x2="257.37" y2="329.38"/></g><g id="LINE-34" data-name="LINE"><line class="cls-1" x1="252.68" y1="45.2" x2="252.68" y2="183.36"/></g><g id="LINE-35" data-name="LINE"><line class="cls-1" x1="252.68" y1="186.88" x2="252.68" y2="329.38"/></g><g id="LINE-36" data-name="LINE"><line class="cls-1" x1="247.99" y1="45.2" x2="247.99" y2="183.36"/></g><g id="LINE-37" data-name="LINE"><line class="cls-1" x1="247.99" y1="186.88" x2="247.99" y2="329.38"/></g><g id="LINE-38" data-name="LINE"><line class="cls-1" x1="243.31" y1="45.2" x2="243.31" y2="181.96"/></g><g id="LINE-39" data-name="LINE"><line class="cls-1" x1="243.31" y1="186.88" x2="243.31" y2="327.74"/></g><g id="LINE-40" data-name="LINE"><line class="cls-1" x1="238.62" y1="45.2" x2="238.62" y2="183.36"/></g><g id="LINE-41" data-name="LINE"><line class="cls-1" x1="233.93" y1="45.2" x2="233.93" y2="183.36"/></g><g id="LINE-42" data-name="LINE"><line class="cls-1" x1="233.93" y1="217.35" x2="233.93" y2="258.83"/></g><g id="LINE-43" data-name="LINE"><line class="cls-1" x1="229.24" y1="45.2" x2="229.24" y2="183.36"/></g><g id="LINE-44" data-name="LINE"><line class="cls-1" x1="229.24" y1="217.35" x2="229.24" y2="258.83"/></g><g id="LINE-45" data-name="LINE"><line class="cls-1" x1="224.56" y1="45.2" x2="224.56" y2="183.36"/></g><g id="LINE-46" data-name="LINE"><line class="cls-1" x1="224.56" y1="217.35" x2="224.56" y2="258.36"/></g><g id="LINE-47" data-name="LINE"><line class="cls-1" x1="219.87" y1="45.2" x2="219.87" y2="183.36"/></g><g id="LINE-48" data-name="LINE"><line class="cls-1" x1="219.87" y1="217.35" x2="219.87" y2="258.36"/></g><g id="LINE-49" data-name="LINE"><line class="cls-1" x1="215.18" y1="45.2" x2="215.18" y2="183.36"/></g><g id="LINE-50" data-name="LINE"><line class="cls-1" x1="215.18" y1="217.35" x2="215.18" y2="258.36"/></g><g id="LINE-51" data-name="LINE"><line class="cls-1" x1="210.49" y1="45.2" x2="210.49" y2="183.36"/></g><g id="LINE-52" data-name="LINE"><line class="cls-1" x1="210.49" y1="217.35" x2="210.49" y2="258.36"/></g><g id="LINE-53" data-name="LINE"><line class="cls-1" x1="205.81" y1="45.2" x2="205.81" y2="183.36"/></g><g id="LINE-54" data-name="LINE"><line class="cls-1" x1="205.81" y1="217.35" x2="205.81" y2="258.36"/></g><g id="LINE-55" data-name="LINE"><line class="cls-1" x1="201.12" y1="45.2" x2="201.12" y2="183.36"/></g><g id="LINE-56" data-name="LINE"><line class="cls-1" x1="201.12" y1="217.35" x2="201.12" y2="258.83"/></g><g id="LINE-57" data-name="LINE"><line class="cls-1" x1="196.43" y1="45.2" x2="196.43" y2="183.36"/></g><g id="LINE-58" data-name="LINE"><line class="cls-1" x1="196.43" y1="217.35" x2="196.43" y2="258.83"/></g><g id="LINE-59" data-name="LINE"><line class="cls-1" x1="191.74" y1="45.2" x2="191.74" y2="183.36"/></g><g id="LINE-60" data-name="LINE"><line class="cls-1" x1="191.74" y1="217.35" x2="191.74" y2="258.83"/></g><g id="LINE-61" data-name="LINE"><line class="cls-1" x1="187.06" y1="67.82" x2="187.06" y2="183.36"/></g><g id="LINE-62" data-name="LINE"><line class="cls-1" x1="187.06" y1="217.35" x2="187.06" y2="258.83"/></g><g id="LINE-63" data-name="LINE"><line class="cls-1" x1="182.37" y1="67.82" x2="182.37" y2="183.36"/></g><g id="LINE-64" data-name="LINE"><line class="cls-1" x1="182.37" y1="362.19" x2="182.37" y2="406.14"/></g><g id="LINE-65" data-name="LINE"><line class="cls-1" x1="182.37" y1="217.35" x2="182.37" y2="258.83"/></g><g id="LINE-66" data-name="LINE"><line class="cls-1" x1="177.68" y1="67.82" x2="177.68" y2="183.36"/></g><g id="LINE-67" data-name="LINE"><line class="cls-1" x1="177.68" y1="362.19" x2="177.68" y2="406.14"/></g><g id="LINE-68" data-name="LINE"><line class="cls-1" x1="177.68" y1="217.35" x2="177.68" y2="258.83"/></g><g id="LINE-69" data-name="LINE"><line class="cls-1" x1="172.99" y1="67.82" x2="172.99" y2="183.36"/></g><g id="LINE-70" data-name="LINE"><line class="cls-1" x1="172.99" y1="362.19" x2="172.99" y2="406.14"/></g><g id="LINE-71" data-name="LINE"><line class="cls-1" x1="172.99" y1="217.35" x2="172.99" y2="258.83"/></g><g id="LINE-72" data-name="LINE"><line class="cls-1" x1="168.31" y1="67.82" x2="168.31" y2="183.36"/></g><g id="LINE-73" data-name="LINE"><line class="cls-1" x1="168.31" y1="362.19" x2="168.31" y2="406.14"/></g><g id="LINE-74" data-name="LINE"><line class="cls-1" x1="168.31" y1="217.35" x2="168.31" y2="258.83"/></g><g id="LINE-75" data-name="LINE"><line class="cls-1" x1="163.62" y1="67.82" x2="163.62" y2="183.36"/></g><g id="LINE-76" data-name="LINE"><line class="cls-1" x1="163.62" y1="404.09" x2="163.62" y2="406.37"/></g><g id="LINE-77" data-name="LINE"><line class="cls-1" x1="163.62" y1="217.35" x2="163.62" y2="257.89"/></g><g id="LINE-78" data-name="LINE"><line class="cls-1" x1="163.62" y1="362.34" x2="163.62" y2="402.95"/></g><g id="LINE-79" data-name="LINE"><line class="cls-1" x1="158.93" y1="217.35" x2="158.93" y2="258.83"/></g><g id="LINE-80" data-name="LINE"><line class="cls-1" x1="154.24" y1="22.7" x2="154.24" y2="340.1"/></g><g id="LINE-81" data-name="LINE"><line class="cls-1" x1="153.66" y1="344.38" x2="153.66" y2="431.92"/></g><g id="LINE-82" data-name="LINE"><line class="cls-1" x1="149.56" y1="22.7" x2="149.56" y2="340.86"/></g><g id="LINE-83" data-name="LINE"><line class="cls-1" x1="148.97" y1="344.38" x2="148.97" y2="431.92"/></g><g id="LINE-84" data-name="LINE"><line class="cls-1" x1="144.87" y1="22.7" x2="144.87" y2="340.86"/></g><g id="LINE-85" data-name="LINE"><line class="cls-1" x1="144.28" y1="344.38" x2="144.28" y2="431.92"/></g><g id="LINE-86" data-name="LINE"><line class="cls-1" x1="140.18" y1="22.7" x2="140.18" y2="340.86"/></g><g id="LINE-87" data-name="LINE"><line class="cls-1" x1="139.59" y1="344.38" x2="139.59" y2="431.92"/></g><g id="LINE-88" data-name="LINE"><line class="cls-1" x1="135.49" y1="22.7" x2="135.49" y2="340.86"/></g><g id="LINE-89" data-name="LINE"><line class="cls-1" x1="134.91" y1="344.38" x2="134.91" y2="431.92"/></g><g id="LINE-90" data-name="LINE"><line class="cls-1" x1="130.81" y1="22.7" x2="130.81" y2="340.86"/></g><g id="LINE-91" data-name="LINE"><line class="cls-1" x1="130.22" y1="344.38" x2="130.22" y2="431.92"/></g><g id="LINE-92" data-name="LINE"><line class="cls-1" x1="126.12" y1="22.7" x2="126.12" y2="340.86"/></g><g id="LINE-93" data-name="LINE"><line class="cls-1" x1="125.53" y1="344.38" x2="125.53" y2="431.92"/></g><g id="LINE-94" data-name="LINE"><line class="cls-1" x1="121.43" y1="22.7" x2="121.43" y2="340.86"/></g><g id="LINE-95" data-name="LINE"><line class="cls-1" x1="120.84" y1="344.38" x2="120.84" y2="431.92"/></g><g id="LINE-96" data-name="LINE"><line class="cls-1" x1="116.74" y1="22.7" x2="116.74" y2="339.46"/></g><g id="LINE-97" data-name="LINE"><line class="cls-1" x1="116.16" y1="344.38" x2="116.16" y2="431.92"/></g><g id="LINE-98" data-name="LINE"><line class="cls-1" x1="112.06" y1="22.7" x2="112.06" y2="238.68"/></g><g id="LINE-99" data-name="LINE"><line class="cls-1" x1="111.47" y1="344.38" x2="111.47" y2="431.92"/></g><g id="LINE-100" data-name="LINE"><line class="cls-1" x1="112.06" y1="276.18" x2="112.06" y2="317.07"/></g><g id="LINE-101" data-name="LINE"><line class="cls-1" x1="112.06" y1="340.51" x2="112.06" y2="340.86"/></g><g id="LINE-102" data-name="LINE"><line class="cls-1" x1="107.37" y1="22.7" x2="107.37" y2="238.68"/></g><g id="LINE-103" data-name="LINE"><line class="cls-1" x1="106.78" y1="344.38" x2="106.78" y2="431.92"/></g><g id="LINE-104" data-name="LINE"><line class="cls-1" x1="107.37" y1="276.18" x2="107.37" y2="317.07"/></g><g id="LINE-105" data-name="LINE"><line class="cls-1" x1="107.37" y1="340.51" x2="107.37" y2="340.86"/></g><g id="LINE-106" data-name="LINE"><line class="cls-1" x1="102.68" y1="22.7" x2="102.68" y2="238.68"/></g><g id="LINE-107" data-name="LINE"><line class="cls-1" x1="102.68" y1="276.18" x2="102.68" y2="317.07"/></g><g id="LINE-108" data-name="LINE"><line class="cls-1" x1="102.68" y1="340.51" x2="102.68" y2="340.86"/></g><g id="LINE-109" data-name="LINE"><line class="cls-1" x1="97.99" y1="22.7" x2="97.99" y2="238.68"/></g><g id="LINE-110" data-name="LINE"><line class="cls-1" x1="97.99" y1="340.51" x2="97.99" y2="340.86"/></g><g id="LINE-111" data-name="LINE"><line class="cls-1" x1="97.99" y1="276.18" x2="97.99" y2="317.07"/></g><g id="LINE-112" data-name="LINE"><line class="cls-1" x1="93.31" y1="22.7" x2="93.31" y2="238.68"/></g><g id="LINE-113" data-name="LINE"><line class="cls-1" x1="93.31" y1="353.17" x2="93.31" y2="399.46"/></g><g id="LINE-114" data-name="LINE"><line class="cls-1" x1="93.31" y1="276.18" x2="93.31" y2="317.07"/></g><g id="LINE-115" data-name="LINE"><line class="cls-1" x1="93.31" y1="340.51" x2="93.31" y2="340.86"/></g><g id="LINE-116" data-name="LINE"><line class="cls-1" x1="88.62" y1="22.7" x2="88.62" y2="238.68"/></g><g id="LINE-117" data-name="LINE"><line class="cls-1" x1="88.62" y1="353.17" x2="88.62" y2="399.46"/></g><g id="LINE-118" data-name="LINE"><line class="cls-1" x1="88.62" y1="276.18" x2="88.62" y2="317.07"/></g><g id="LINE-119" data-name="LINE"><line class="cls-1" x1="88.62" y1="340.51" x2="88.62" y2="340.86"/></g><g id="LINE-120" data-name="LINE"><line class="cls-1" x1="83.93" y1="22.7" x2="83.93" y2="238.68"/></g><g id="LINE-121" data-name="LINE"><line class="cls-1" x1="83.93" y1="353.17" x2="83.93" y2="399.46"/></g><g id="LINE-122" data-name="LINE"><line class="cls-1" x1="83.93" y1="276.18" x2="83.93" y2="317.07"/></g><g id="LINE-123" data-name="LINE"><line class="cls-1" x1="83.93" y1="340.51" x2="83.93" y2="340.86"/></g><g id="LINE-124" data-name="LINE"><line class="cls-1" x1="79.24" y1="22.7" x2="79.24" y2="238.68"/></g><g id="LINE-125" data-name="LINE"><line class="cls-1" x1="79.24" y1="353.17" x2="79.24" y2="399.46"/></g><g id="LINE-126" data-name="LINE"><line class="cls-1" x1="79.24" y1="276.18" x2="79.24" y2="317.07"/></g><g id="LINE-127" data-name="LINE"><line class="cls-1" x1="79.24" y1="340.51" x2="79.24" y2="340.86"/></g><g id="LINE-128" data-name="LINE"><line class="cls-1" x1="74.56" y1="22.7" x2="74.56" y2="238.68"/></g><g id="LINE-129" data-name="LINE"><line class="cls-1" x1="74.56" y1="353.17" x2="74.56" y2="399.46"/></g><g id="LINE-130" data-name="LINE"><line class="cls-1" x1="74.56" y1="276.18" x2="74.56" y2="317.07"/></g><g id="LINE-131" data-name="LINE"><line class="cls-1" x1="74.56" y1="340.51" x2="74.56" y2="340.86"/></g><g id="LINE-132" data-name="LINE"><line class="cls-1" x1="69.87" y1="22.7" x2="69.87" y2="238.68"/></g><g id="LINE-133" data-name="LINE"><line class="cls-1" x1="69.87" y1="353.17" x2="69.87" y2="399.46"/></g><g id="LINE-134" data-name="LINE"><line class="cls-1" x1="69.87" y1="276.18" x2="69.87" y2="317.07"/></g><g id="LINE-135" data-name="LINE"><line class="cls-1" x1="69.87" y1="340.51" x2="69.87" y2="340.86"/></g><g id="LINE-136" data-name="LINE"><line class="cls-1" x1="65.18" y1="22.7" x2="65.18" y2="238.68"/></g><g id="LINE-137" data-name="LINE"><line class="cls-1" x1="65.18" y1="353.17" x2="65.18" y2="399.46"/></g><g id="LINE-138" data-name="LINE"><line class="cls-1" x1="65.18" y1="276.18" x2="65.18" y2="317.07"/></g><g id="LINE-139" data-name="LINE"><line class="cls-1" x1="65.18" y1="340.51" x2="65.18" y2="340.86"/></g><g id="LINE-140" data-name="LINE"><line class="cls-1" x1="60.49" y1="22.7" x2="60.49" y2="238.68"/></g><g id="LINE-141" data-name="LINE"><line class="cls-1" x1="60.49" y1="340.51" x2="60.49" y2="340.86"/></g><g id="LINE-142" data-name="LINE"><line class="cls-1" x1="60.49" y1="276.18" x2="60.49" y2="317.07"/></g><g id="LINE-143" data-name="LINE"><line class="cls-1" x1="55.81" y1="22.7" x2="55.81" y2="238.68"/></g><g id="LINE-144" data-name="LINE"><line class="cls-1" x1="55.81" y1="340.51" x2="55.81" y2="340.86"/></g><g id="LINE-145" data-name="LINE"><line class="cls-1" x1="55.81" y1="276.18" x2="55.81" y2="317.07"/></g><g id="LINE-146" data-name="LINE"><line class="cls-1" x1="51.12" y1="22.7" x2="51.12" y2="238.68"/></g><g id="LINE-147" data-name="LINE"><line class="cls-1" x1="51.12" y1="340.51" x2="51.12" y2="340.86"/></g><g id="LINE-148" data-name="LINE"><line class="cls-1" x1="51.12" y1="276.18" x2="51.12" y2="317.07"/></g><g id="LINE-149" data-name="LINE"><line class="cls-1" x1="46.43" y1="22.7" x2="46.43" y2="238.68"/></g><g id="LINE-150" data-name="LINE"><line class="cls-1" x1="46.43" y1="276.18" x2="46.43" y2="340.86"/></g><g id="LINE-151" data-name="LINE"><line class="cls-1" x1="41.74" y1="22.7" x2="41.74" y2="238.68"/></g><g id="LINE-152" data-name="LINE"><line class="cls-1" x1="41.74" y1="276.18" x2="41.74" y2="340.86"/></g><g id="LINE-153" data-name="LINE"><line class="cls-1" x1="37.06" y1="22.7" x2="37.06" y2="238.68"/></g><g id="LINE-154" data-name="LINE"><line class="cls-1" x1="37.06" y1="276.18" x2="37.06" y2="340.86"/></g><g id="LINE-155" data-name="LINE"><line class="cls-1" x1="32.37" y1="22.7" x2="32.37" y2="238.68"/></g><g id="LINE-156" data-name="LINE"><line class="cls-1" x1="32.37" y1="276.18" x2="32.37" y2="340.86"/></g><g id="LINE-157" data-name="LINE"><line class="cls-1" x1="27.68" y1="22.7" x2="27.68" y2="340.86"/></g><g id="LINE-158" data-name="LINE"><line class="cls-1" x1="22.99" y1="22.7" x2="22.99" y2="340.86"/></g><g id="LINE-159" data-name="LINE"><line class="cls-1" x1="18.31" y1="22.7" x2="18.31" y2="340.86"/></g><g id="LINE-160" data-name="LINE"><line class="cls-1" x1="13.62" y1="22.7" x2="13.62" y2="340.86"/></g><g id="LINE-161" data-name="LINE"><line class="cls-1" x1="8.93" y1="22.7" x2="8.93" y2="340.86"/></g><g id="LINE-162" data-name="LINE"><line class="cls-1" x1="4.24" y1="22.7" x2="4.24" y2="340.86"/></g><line class="cls-1" x1="106.25" y1="431.92" x2="142.37" y2="431.92"/><line class="cls-1" x1="119.44" y1="344.38" x2="153.19" y2="344.38"/><line class="cls-1" x1="119.44" y1="340.86" x2="153.19" y2="340.86"/><line class="cls-1" x1="235.81" y1="221.1" x2="235.81" y2="255.47"/><line class="cls-1" x1="241.55" y1="220.36" x2="241.55" y2="255.47"/><line class="cls-1" x1="245.3" y1="329.38" x2="282.58" y2="329.38"/><line class="cls-1" x1="282.8" y1="323.64" x2="282.8" y2="286.39"/><line class="cls-1" x1="245.3" y1="186.88" x2="279.89" y2="186.88"/><line class="cls-1" x1="245.3" y1="183.36" x2="279.05" y2="183.36"/><line class="cls-1" x1="285.97" y1="193.03" x2="285.97" y2="221.85"/><line class="cls-1" x1="106.25" y1="437.66" x2="140.56" y2="437.66"/><line class="cls-1" x1="97.99" y1="397.59" x2="97.99" y2="353.17"/><g id="LWPOLYLINE"><path class="cls-2" d="M61.31,17.08,35,27a28,28,0,0,1-1.81-9.92"/></g><g id="LWPOLYLINE-2" data-name="LWPOLYLINE"><path class="cls-2" d="M5.06,17.08,31.38,27a28,28,0,0,0,1.81-9.92"/></g><g id="LWPOLYLINE-3" data-name="LWPOLYLINE"><path class="cls-2" d="M155.06,17.08,128.75,27a28,28,0,0,1-1.81-9.92"/></g><g id="LWPOLYLINE-4" data-name="LWPOLYLINE"><path class="cls-2" d="M98.81,17.08,125.13,27a28,28,0,0,0,1.81-9.92"/></g><g id="LWPOLYLINE-5" data-name="LWPOLYLINE"><rect class="cls-3" x="168.19" y="77.02" width="104.88" height="97.59"/></g><g id="LWPOLYLINE-6" data-name="LWPOLYLINE"><rect class="cls-3" x="11.82" y="35.69" width="123.71" height="110.57"/></g><g id="LWPOLYLINE-7" data-name="LWPOLYLINE"><rect class="cls-4" x="293.81" y="97.47" width="15" height="56.25"/></g><g id="LWPOLYLINE-8" data-name="LWPOLYLINE"><rect class="cls-4" x="141.82" y="68.44" width="15" height="56.25"/></g><path class="cls-5" d="M91.73,233.65a10.77,10.77,0,0,0-1.17,1.17l1.06.92v10.9h15.94v-10.9l1.06-.92A12,12,0,0,0,91.73,233.65Z"/><path class="cls-5" d="M65.43,233.65a11.65,11.65,0,0,0-1.16,1.17l1.06.92v10.9H81.27v-10.9l1.06-.92A12,12,0,0,0,65.43,233.65Z"/><path class="cls-5" d="M39.14,233.65A10.77,10.77,0,0,0,38,234.82l1.06.92v10.9H55v-10.9l1.06-.92A12,12,0,0,0,39.14,233.65Z"/><g id="LWPOLYLINE-9" data-name="LWPOLYLINE"><polygon class="cls-4" points="125.76 69.83 149.84 51.92 134.58 30 109.42 46.37 125.76 69.83"/></g><g id="LINE-163" data-name="LINE"><line class="cls-6" x1="123.48" y1="66.56" x2="147.57" y2="48.65"/></g><g id="LINE-164" data-name="LINE"><line class="cls-6" x1="144.18" y1="51.16" x2="133.32" y2="35.57"/></g><g id="LINE-165" data-name="LINE"><line class="cls-6" x1="136.86" y1="33.27" x2="111.7" y2="49.64"/></g><g id="LWPOLYLINE-10" data-name="LWPOLYLINE"><path class="cls-4" d="M49.87,177.17H67.68l-.29-5.81a3.75,3.75,0,0,0-3.74-3.57H53.91a3.76,3.76,0,0,0-3.75,3.57Z"/></g><g id="LWPOLYLINE-11" data-name="LWPOLYLINE"><path class="cls-4" d="M75.65,177.17H93.47l-.29-5.81a3.76,3.76,0,0,0-3.75-3.57H79.69a3.76,3.76,0,0,0-3.75,3.57Z"/></g><g id="LWPOLYLINE-12" data-name="LWPOLYLINE"><path class="cls-4" d="M66.28,177.17,66,171.43a2.34,2.34,0,0,0-2.34-2.23H53.91a2.34,2.34,0,0,0-2.34,2.23l-.29,5.74"/></g><g id="LWPOLYLINE-13" data-name="LWPOLYLINE"><path class="cls-4" d="M92.15,177.4l-.28-5.74a2.35,2.35,0,0,0-2.34-2.23H79.79a2.36,2.36,0,0,0-2.35,2.23l-.28,5.74"/></g><g id="LWPOLYLINE-14" data-name="LWPOLYLINE"><path class="cls-4" d="M93.47,197.21H75.65l.29,5.82a3.76,3.76,0,0,0,3.75,3.56h9.74A3.76,3.76,0,0,0,93.18,203Z"/></g><g id="LWPOLYLINE-15" data-name="LWPOLYLINE"><path class="cls-4" d="M67.68,197.21H49.87l.29,5.82a3.76,3.76,0,0,0,3.75,3.56h9.74A3.75,3.75,0,0,0,67.39,203Z"/></g><g id="LWPOLYLINE-16" data-name="LWPOLYLINE"><path class="cls-4" d="M77.06,197.21l.29,5.75a2.34,2.34,0,0,0,2.34,2.22h9.74A2.34,2.34,0,0,0,91.77,203l.29-5.75"/></g><g id="LWPOLYLINE-17" data-name="LWPOLYLINE"><path class="cls-4" d="M51.18,197l.29,5.74A2.34,2.34,0,0,0,53.81,205h9.74a2.34,2.34,0,0,0,2.34-2.23l.29-5.74"/></g><g id="LWPOLYLINE-18" data-name="LWPOLYLINE"><path class="cls-4" d="M47.29,178.29V196.1l-5.81-.29a3.76,3.76,0,0,1-3.57-3.75v-9.74a3.75,3.75,0,0,1,3.57-3.74Z"/></g><g id="LWPOLYLINE-19" data-name="LWPOLYLINE"><path class="cls-4" d="M47.29,194.69l-5.74-.29a2.34,2.34,0,0,1-2.23-2.34v-9.74A2.34,2.34,0,0,1,41.55,180l5.74-.29"/></g><g id="LWPOLYLINE-20" data-name="LWPOLYLINE"><path class="cls-4" d="M96.05,196.1V178.29l5.81.29a3.75,3.75,0,0,1,3.57,3.74v9.74a3.76,3.76,0,0,1-3.57,3.75Z"/></g><g id="LWPOLYLINE-21" data-name="LWPOLYLINE"><path class="cls-4" d="M96.05,179.69l5.74.29a2.34,2.34,0,0,1,2.23,2.34v9.74a2.34,2.34,0,0,1-2.23,2.34l-5.74.29"/></g><g id="LWPOLYLINE-22" data-name="LWPOLYLINE"><rect class="cls-4" x="43.54" y="173.13" width="56.25" height="28.13"/></g><g id="LWPOLYLINE-23" data-name="LWPOLYLINE"><rect class="cls-4" x="16.47" y="136.76" width="17.7" height="18.44"/></g><g id="LWPOLYLINE-24" data-name="LWPOLYLINE"><rect class="cls-4" x="162.12" y="90.07" width="80.63" height="71.25"/></g><g id="LWPOLYLINE-25" data-name="LWPOLYLINE"><rect class="cls-4" x="162.12" y="163.31" width="15.94" height="15.9"/></g><g id="LWPOLYLINE-26" data-name="LWPOLYLINE"><rect class="cls-4" x="162.12" y="71.97" width="15.94" height="15.9"/></g><g id="LWPOLYLINE-27" data-name="LWPOLYLINE"><rect class="cls-6" x="167.47" y="126.97" width="14.68" height="31.81"/></g><g id="LINE-166" data-name="LINE"><line class="cls-6" x1="164.93" y1="90.07" x2="164.93" y2="161.32"/></g><g id="LINE-167" data-name="LINE"><line class="cls-6" x1="239.93" y1="90.07" x2="239.93" y2="161.32"/></g><g id="LWPOLYLINE-28" data-name="LWPOLYLINE"><rect class="cls-6" x="167.47" y="92.61" width="14.68" height="31.81"/></g><rect class="cls-4" x="127.96" y="94.73" width="44.9" height="1.76" transform="translate(246.02 -54.79) rotate(90)"/><g id="LWPOLYLINE-29" data-name="LWPOLYLINE"><path class="cls-6" d="M90.56,234.82a10.77,10.77,0,0,1,1.17-1.17,12,12,0,0,1,16.89,1.17l-1.06.92v10.91H91.62V235.74Z"/></g><g id="LWPOLYLINE-30" data-name="LWPOLYLINE"><line class="cls-6" x1="93.47" y1="234.07" x2="93.47" y2="246.65"/></g><g id="LWPOLYLINE-31" data-name="LWPOLYLINE"><line class="cls-6" x1="105.71" y1="234.07" x2="105.71" y2="246.65"/></g><g id="LWPOLYLINE-32" data-name="LWPOLYLINE"><path class="cls-6" d="M107.56,235.74a10.57,10.57,0,0,0-14.91-1,12.51,12.51,0,0,0-1,1"/></g><g id="LWPOLYLINE-33" data-name="LWPOLYLINE"><path class="cls-6" d="M64.27,234.82a11.65,11.65,0,0,1,1.16-1.17,12,12,0,0,1,16.9,1.17l-1.06.92v10.91H65.33V235.74Z"/></g><g id="LWPOLYLINE-34" data-name="LWPOLYLINE"><line class="cls-6" x1="67.18" y1="234.07" x2="67.18" y2="246.65"/></g><g id="LWPOLYLINE-35" data-name="LWPOLYLINE"><line class="cls-6" x1="79.41" y1="234.07" x2="79.41" y2="246.65"/></g><g id="LWPOLYLINE-36" data-name="LWPOLYLINE"><path class="cls-6" d="M81.27,235.74a10.57,10.57,0,0,0-14.91-1,11.13,11.13,0,0,0-1,1"/></g><g id="LWPOLYLINE-37" data-name="LWPOLYLINE"><path class="cls-6" d="M38,234.82a10.77,10.77,0,0,1,1.17-1.17A12,12,0,0,1,56,234.82l-1.06.92v10.91H39V235.74Z"/></g><g id="LWPOLYLINE-38" data-name="LWPOLYLINE"><line class="cls-6" x1="40.88" y1="234.07" x2="40.88" y2="246.65"/></g><g id="LWPOLYLINE-39" data-name="LWPOLYLINE"><line class="cls-6" x1="53.12" y1="234.07" x2="53.12" y2="246.65"/></g><g id="LWPOLYLINE-40" data-name="LWPOLYLINE"><path class="cls-6" d="M55,235.74a10.57,10.57,0,0,0-14.91-1,12.51,12.51,0,0,0-1,1"/></g><g id="LWPOLYLINE-41" data-name="LWPOLYLINE"><polygon class="cls-4" points="282.51 79.13 281.19 77.22 280.89 77.42 280.32 77.57 279.8 77.31 278.56 75.82 277.54 74.61 276.7 73.53 275.63 72.07 274.68 70.71 274.3 70.17 274.01 69.71 273.64 69.14 273.23 68.48 272.3 66.94 271.47 65.46 270.85 64.29 270.79 63.71 271.13 63.23 271.44 63.02 269.76 60.59 288.48 47.72 301.22 66.26 282.51 79.13"/></g><g id="LINE-168" data-name="LINE"><line class="cls-6" x1="290.15" y1="50.15" x2="271.44" y2="63.02"/></g><g id="LINE-169" data-name="LINE"><line class="cls-6" x1="281.19" y1="77.22" x2="299.91" y2="64.35"/></g><g id="ARC"><path class="cls-6" d="M286,53a40.24,40.24,0,0,0,9.76,14.2"/></g><g id="ARC-2" data-name="ARC"><path class="cls-6" d="M288.76,51.11a100.59,100.59,0,0,0,9.76,14.19"/></g><line class="cls-6" x1="184.63" y1="161.32" x2="184.63" y2="90.07"/><line class="cls-6" x1="187.06" y1="161.32" x2="187.06" y2="90.07"/><rect class="cls-4" x="3.19" y="42.02" width="33.75" height="84.38"/><g id="LINE-170" data-name="LINE"><line class="cls-6" x1="7.88" y1="96.71" x2="35.96" y2="96.71"/></g><g id="LWPOLYLINE-42" data-name="LWPOLYLINE"><polyline class="cls-6" points="36.94 46.71 7.88 46.71 7.88 121.71 36.94 121.71"/></g><g id="ARC-3" data-name="ARC"><path class="cls-6" d="M12.37,120.77a59.57,59.57,0,0,0,0-23.12"/></g><g id="ARC-4" data-name="ARC"><path class="cls-6" d="M12.37,97.65a1.22,1.22,0,0,0-1-.94"/></g><g id="ARC-5" data-name="ARC"><path class="cls-6" d="M11.39,121.71a1.24,1.24,0,0,0,1-.94"/></g><g id="ARC-6" data-name="ARC"><path class="cls-6" d="M11.39,96.71a1.24,1.24,0,0,0,1-.94"/></g><g id="ARC-7" data-name="ARC"><path class="cls-6" d="M12.37,47.65a1.22,1.22,0,0,0-1-.94"/></g><g id="ARC-8" data-name="ARC"><path class="cls-6" d="M36.94,97.65a1.22,1.22,0,0,0-1-.94"/></g><g id="ARC-9" data-name="ARC"><path class="cls-6" d="M36,96.71a1.24,1.24,0,0,0,1-.94"/></g><g id="ARC-10" data-name="ARC"><path class="cls-6" d="M36,121.71a1.24,1.24,0,0,0,1-.94"/></g><g id="ARC-11" data-name="ARC"><path class="cls-6" d="M36.94,47.65a1.22,1.22,0,0,0-1-.94"/></g><g id="LINE-171" data-name="LINE"><line class="cls-6" x1="7.88" y1="71.71" x2="35.96" y2="71.71"/></g><g id="ARC-12" data-name="ARC"><path class="cls-6" d="M12.37,70.77a59.57,59.57,0,0,0,0-23.12"/></g><g id="ARC-13" data-name="ARC"><path class="cls-6" d="M11.39,71.71a1.24,1.24,0,0,0,1-.94"/></g><g id="ARC-14" data-name="ARC"><path class="cls-6" d="M12.37,72.65a1.22,1.22,0,0,0-1-.94"/></g><g id="ARC-15" data-name="ARC"><path class="cls-6" d="M36,71.71a1.24,1.24,0,0,0,1-.94"/></g><g id="ARC-16" data-name="ARC"><path class="cls-6" d="M36.94,72.65a1.22,1.22,0,0,0-1-.94"/></g><g id="ARC-17" data-name="ARC"><path class="cls-6" d="M12.37,95.77a59.57,59.57,0,0,0,0-23.12"/></g><g id="ARC-18" data-name="ARC"><path class="cls-6" d="M12.37,97.65a1.22,1.22,0,0,0-1-.94"/></g><g id="ARC-19" data-name="ARC"><path class="cls-6" d="M11.39,121.71a1.24,1.24,0,0,0,1-.94"/></g><g id="ARC-20" data-name="ARC"><path class="cls-6" d="M11.39,96.71a1.24,1.24,0,0,0,1-.94"/></g><g id="ARC-21" data-name="ARC"><path class="cls-6" d="M12.37,47.65a1.22,1.22,0,0,0-1-.94"/></g><g id="ARC-22" data-name="ARC"><path class="cls-6" d="M36.94,97.65a1.22,1.22,0,0,0-1-.94"/></g><g id="ARC-23" data-name="ARC"><path class="cls-6" d="M36,96.71a1.24,1.24,0,0,0,1-.94"/></g><g id="ARC-24" data-name="ARC"><path class="cls-6" d="M36,121.71a1.24,1.24,0,0,0,1-.94"/></g><g id="ARC-25" data-name="ARC"><path class="cls-6" d="M36.94,47.65a1.22,1.22,0,0,0-1-.94"/></g><g id="ARC-26" data-name="ARC"><path class="cls-6" d="M11.39,71.71a1.24,1.24,0,0,0,1-.94"/></g><g id="ARC-27" data-name="ARC"><path class="cls-6" d="M12.37,72.65a1.22,1.22,0,0,0-1-.94"/></g><g id="ARC-28" data-name="ARC"><path class="cls-6" d="M36,71.71a1.24,1.24,0,0,0,1-.94"/></g><g id="ARC-29" data-name="ARC"><path class="cls-6" d="M36.94,72.65a1.22,1.22,0,0,0-1-.94"/></g><path class="cls-7" d="M17.88,116s5.28,6.86,7.94,5.57-7.24-10.46-7.24-10.46-3.9-4-4.65-2S17.88,116,17.88,116Z"/><path class="cls-7" d="M19.63,104s-4.37-7.08-6.29-5.77,3.56,9.44,3.56,9.44,3.83,7.58,5.71,5.54S19.63,104,19.63,104Z"/><path class="cls-7" d="M14.24,63.08s3.62-.74,5.2-8.34,1.11-7.67.31-8-4.2,2.24-5.22,9.2S13,62.77,14.24,63.08Z"/><path class="cls-7" d="M72.35,109.32s-10.08.6-9.73-9.83S67,70.4,76.5,64.5,97.62,81.08,97.62,81.08s7.6,11.3-4.81,19.84S72.35,109.32,72.35,109.32Z"/><g id="LWPOLYLINE-43" data-name="LWPOLYLINE"><polyline class="cls-8" points="30.96 12.39 30.96 13.32 6.94 13.32 6.94 12.39"/></g><g id="LWPOLYLINE-44" data-name="LWPOLYLINE"><polyline class="cls-9" points="63.19 17.07 63.19 22.7 3.19 22.7 3.19 17.07"/></g><g id="LWPOLYLINE-45" data-name="LWPOLYLINE"><polyline class="cls-9" points="156.94 17.07 156.94 22.7 96.94 22.7 96.94 17.07"/></g><g id="LWPOLYLINE-46" data-name="LWPOLYLINE"><polyline class="cls-9" points="303.19 39.58 303.19 45.2 190.69 45.2 190.69 39.58"/></g><g id="LWPOLYLINE-47" data-name="LWPOLYLINE"><rect class="cls-8" x="6" y="13.33" width="25.66" height="1.23"/></g><g id="LWPOLYLINE-48" data-name="LWPOLYLINE"><rect class="cls-8" x="34.71" y="13.33" width="25.66" height="1.23"/></g><g id="LWPOLYLINE-49" data-name="LWPOLYLINE"><rect class="cls-8" x="99.75" y="13.33" width="25.66" height="1.23"/></g><g id="LWPOLYLINE-50" data-name="LWPOLYLINE"><rect class="cls-8" x="128.46" y="13.33" width="25.66" height="1.23"/></g><g id="LWPOLYLINE-51" data-name="LWPOLYLINE"><rect class="cls-8" x="193.5" y="35.83" width="24.72" height="1.23"/></g><g id="LWPOLYLINE-52" data-name="LWPOLYLINE"><rect class="cls-8" x="220.81" y="35.83" width="52.27" height="1.23"/></g><g id="LWPOLYLINE-53" data-name="LWPOLYLINE"><rect class="cls-8" x="275.65" y="35.83" width="24.73" height="1.23"/></g><line class="cls-8" x1="6.94" y1="17.08" x2="59.44" y2="17.08"/><line class="cls-8" x1="100.69" y1="17.08" x2="153.19" y2="17.08"/><line class="cls-8" x1="194.44" y1="39.58" x2="299.44" y2="39.58"/><g id="LWPOLYLINE-54" data-name="LWPOLYLINE"><polygon class="cls-10" points="6.94 14.55 6 14.55 6 13.32 6.94 13.32 6.94 12.39 5.06 12.39 5.06 8.64 4.13 8.64 4.13 12.39 3.19 12.39 3.19 17.07 6.94 17.07 6.94 14.55"/></g><g id="LWPOLYLINE-55" data-name="LWPOLYLINE"><polyline class="cls-10" points="32.72 10.04 33.66 10.04 33.66 12.39 35.41 12.39 35.41 13.32 34.71 13.32 34.71 14.55 35.41 14.55 35.41 17.07 33.54 17.07 33.54 16.61 32.84 16.61 32.84 17.07 30.96 17.07 30.96 14.55 31.65 14.55 31.66 13.32 30.96 13.32 30.96 12.39 32.72 12.39 32.72 10.04"/></g><g id="LWPOLYLINE-56" data-name="LWPOLYLINE"><polygon class="cls-10" points="63.19 12.39 62.25 12.39 62.25 8.64 61.31 8.64 61.31 12.39 59.44 12.39 59.44 13.32 60.38 13.32 60.38 14.55 59.44 14.55 59.44 17.07 63.19 17.07 63.19 12.39"/></g><g id="LWPOLYLINE-57" data-name="LWPOLYLINE"><polygon class="cls-10" points="100.69 14.55 99.75 14.55 99.75 13.32 100.69 13.32 100.69 12.39 98.81 12.39 98.81 8.64 97.88 8.64 97.88 12.39 96.94 12.39 96.94 17.07 100.69 17.07 100.69 14.55"/></g><g id="LWPOLYLINE-58" data-name="LWPOLYLINE"><polyline class="cls-10" points="126.47 10.04 127.41 10.04 127.41 12.39 129.16 12.39 129.16 13.32 128.46 13.32 128.46 14.55 129.16 14.55 129.16 17.07 127.29 17.07 127.29 16.61 126.59 16.61 126.59 17.07 124.71 17.07 124.71 14.55 125.4 14.55 125.42 13.32 124.71 13.32 124.71 12.39 126.47 12.39 126.47 10.04"/></g><g id="LWPOLYLINE-59" data-name="LWPOLYLINE"><polygon class="cls-10" points="156.94 12.39 156 12.39 156 8.64 155.06 8.64 155.06 12.39 153.19 12.39 153.19 13.32 154.13 13.32 154.13 14.55 153.19 14.55 153.19 17.07 156.94 17.07 156.94 12.39"/></g><g id="LWPOLYLINE-60" data-name="LWPOLYLINE"><polygon class="cls-10" points="194.44 37.06 193.5 37.06 193.5 35.83 194.44 35.83 194.44 34.89 193.21 34.89 193.21 31.14 192.27 31.14 192.27 34.89 190.69 34.89 190.69 39.58 194.44 39.58 194.44 37.06"/></g><g id="LWPOLYLINE-61" data-name="LWPOLYLINE"><polygon class="cls-10" points="303.19 34.89 301.61 34.89 301.61 31.14 300.67 31.14 300.67 34.89 299.44 34.89 299.44 35.83 300.38 35.83 300.38 37.06 299.44 37.06 299.44 39.58 303.19 39.58 303.19 34.89"/></g><g id="LWPOLYLINE-62" data-name="LWPOLYLINE"><polygon class="cls-10" points="221.51 38.23 220.57 38.23 220.57 39.11 219.4 39.11 219.4 39.58 217.52 39.58 217.52 37.06 218.23 37.06 218.23 35.83 217.52 35.83 217.52 34.89 219.28 34.89 219.28 32.54 220.22 32.54 220.22 34.89 221.51 34.89 221.51 35.83 220.81 35.83 220.81 37.06 221.51 37.06 221.51 38.23"/></g><g id="LWPOLYLINE-63" data-name="LWPOLYLINE"><polygon class="cls-10" points="272.37 38.23 273.31 38.23 273.31 39.11 274.48 39.11 274.48 39.58 276.35 39.58 276.35 37.06 275.65 37.06 275.65 35.83 276.35 35.83 276.35 34.89 274.6 34.89 274.6 32.54 273.66 32.54 273.66 34.89 272.37 34.89 272.37 35.83 273.07 35.83 273.07 37.06 272.37 37.06 272.37 38.23"/></g><g id="LWPOLYLINE-64" data-name="LWPOLYLINE"><polyline class="cls-9" points="63.19 17.07 63.19 0.2 3.19 0.2 3.19 17.07"/></g><g id="LWPOLYLINE-65" data-name="LWPOLYLINE"><polyline class="cls-9" points="156.94 17.07 156.94 0.2 96.94 0.2 96.94 17.07"/></g><g id="LWPOLYLINE-66" data-name="LWPOLYLINE"><polyline class="cls-9" points="303.19 39.58 303.19 31.14 190.69 31.14 190.69 39.58"/></g><g id="LWPOLYLINE-67" data-name="LWPOLYLINE"><rect class="cls-11" x="102.06" y="419.68" width="33.75" height="2.11" transform="translate(-262.67 207.33) rotate(-45)"/></g><g id="LWPOLYLINE-68" data-name="LWPOLYLINE"><rect class="cls-12" x="236.03" y="241.52" width="33.75" height="1.64" transform="translate(-97.28 249.81) rotate(-45)"/></g><g id="LWPOLYLINE-69" data-name="LWPOLYLINE"><rect class="cls-11" x="282.8" y="193.03" width="1.64" height="28.12"/></g><g id="LWPOLYLINE-70" data-name="LWPOLYLINE"><rect class="cls-11" x="284.67" y="289.89" width="1.64" height="33.75"/></g><g id="LWPOLYLINE-71" data-name="LWPOLYLINE"><rect class="cls-11" x="245.3" y="331.25" width="33.75" height="1.64"/></g><g id="LWPOLYLINE-72" data-name="LWPOLYLINE"><rect class="cls-11" x="164.09" y="258.83" width="33.75" height="1.64"/></g><g id="LWPOLYLINE-73" data-name="LWPOLYLINE"><rect class="cls-11" x="99.87" y="361.96" width="1.64" height="33.75"/></g><g id="LWPOLYLINE-74" data-name="LWPOLYLINE"><rect class="cls-11" x="159.16" y="367.64" width="1.64" height="33.75"/></g><g id="LWPOLYLINE-75" data-name="LWPOLYLINE"><rect class="cls-12" x="102.06" y="419.68" width="33.75" height="2.11" transform="translate(-262.67 207.33) rotate(-45)"/></g><g id="ARC-30" data-name="ARC"><path class="cls-11" d="M140,431.92a34.24,34.24,0,0,0-8.39-22.37"/></g><g id="ARC-31" data-name="ARC"><path class="cls-11" d="M265.41,231a33.73,33.73,0,0,0-23.86-9.88"/></g><g id="ARC-32" data-name="ARC"><path class="cls-11" d="M140,431.92a34.24,34.24,0,0,0-8.39-22.37"/></g><g id="LWPOLYLINE-76" data-name="LWPOLYLINE"><rect class="cls-8" x="308.23" y="332.9" width="34.99" height="69.72"/></g><g id="LWPOLYLINE-77" data-name="LWPOLYLINE"><path class="cls-8" d="M337.29,341.22V392.9a4.69,4.69,0,0,1-4.69,4.68h-15a4.69,4.69,0,0,1-4.69-4.68V341.22a4.69,4.69,0,0,1,4.69-4.69h15a4.69,4.69,0,0,1,4.69,4.69"/></g><g id="ARC-33" data-name="ARC"><path class="cls-8" d="M208.4,395a3.28,3.28,0,1,0-.78,0"/></g><g id="LWPOLYLINE-78" data-name="LWPOLYLINE"><path class="cls-8" d="M207.62,391.75v10.52h.77V391.75a.39.39,0,1,0-.77,0Z"/></g><g id="LWPOLYLINE-79" data-name="LWPOLYLINE"><rect class="cls-8" x="190.22" y="332.9" width="35.63" height="69.37"/></g><g id="LWPOLYLINE-80" data-name="LWPOLYLINE"><rect class="cls-8" x="225.85" y="332.9" width="0.83" height="0.94"/></g><g id="LWPOLYLINE-81" data-name="LWPOLYLINE"><rect class="cls-8" x="225.85" y="333.83" width="0.83" height="34.22"/></g><g id="LWPOLYLINE-82" data-name="LWPOLYLINE"><rect class="cls-8" x="190.22" y="332.9" width="35.63" height="69.37"/></g><g id="ARC-34" data-name="ARC"><path class="cls-13" d="M325.5,395.05a3.28,3.28,0,1,0-.79,0"/></g><g id="LWPOLYLINE-83" data-name="LWPOLYLINE"><path class="cls-13" d="M324.71,391.81v10.52h.78V391.81a.39.39,0,0,0-.39-.4A.4.4,0,0,0,324.71,391.81Z"/></g><rect class="cls-13" x="69.55" y="364.3" width="25.31" height="27.89"/><g id="LWPOLYLINE-84" data-name="LWPOLYLINE"><rect class="cls-13" x="3.19" y="238.68" width="25.11" height="37.5"/></g><g id="LWPOLYLINE-85" data-name="LWPOLYLINE"><rect class="cls-13" x="2.69" y="317.06" width="115.34" height="23.79"/></g><g id="LWPOLYLINE-86" data-name="LWPOLYLINE"><rect class="cls-13" x="28.3" y="238.68" width="88.21" height="37.5"/></g><g id="LWPOLYLINE-87" data-name="LWPOLYLINE"><polyline class="cls-8" points="61.37 259.03 61.37 272.68 86.96 272.68 86.96 259.03 61.37 259.03"/></g><rect class="cls-13" x="73.92" y="256.62" width="3.12" height="1.31" transform="translate(150.95 514.56) rotate(180)"/><path class="cls-13" d="M73.23,257.8a.86.86,0,0,0,.3.3v6.57a.48.48,0,1,0,1,0V258.1a.9.9,0,1,0-1.25-.3Z"/><g id="CIRCLE"><path class="cls-8" d="M84.16,323.76a.7.7,0,1,1,.7-.7.7.7,0,0,1-.7.7Z"/></g><g id="CIRCLE-2" data-name="CIRCLE"><path class="cls-8" d="M79.79,323.76a.7.7,0,0,1,0-1.4.7.7,0,1,1,0,1.4Z"/></g><g id="CIRCLE-3" data-name="CIRCLE"><path class="cls-8" d="M79.79,326.62a.7.7,0,1,1,.7-.69.7.7,0,0,1-.7.69Z"/></g><g id="CIRCLE-4" data-name="CIRCLE"><path class="cls-8" d="M82,326.62a.7.7,0,1,1,.69-.69.69.69,0,0,1-.69.69Z"/></g><g id="CIRCLE-5" data-name="CIRCLE"><path class="cls-8" d="M84.16,326.62a.7.7,0,1,1,.7-.69.69.69,0,0,1-.7.69Z"/></g><g id="LWPOLYLINE-88" data-name="LWPOLYLINE"><rect class="cls-8" x="68.48" y="320.18" width="26.99" height="16.03" rx="0.38"/></g><circle class="cls-8" cx="73.3" cy="332.06" r="1.32"/><path class="cls-8" d="M77.29,328.88v5.85a.56.56,0,0,1-.57.56H69.87a.57.57,0,0,1-.57-.56v-5.85a0,0,0,0,1,0,0h7.89A0,0,0,0,1,77.29,328.88Z"/><circle class="cls-8" cx="81.98" cy="332.06" r="1.32"/><path class="cls-8" d="M86,328.88v5.85a.56.56,0,0,1-.57.56H78.55a.57.57,0,0,1-.57-.56v-5.85s0,0,0,0h7.89A0,0,0,0,1,86,328.88Z"/><circle class="cls-8" cx="90.66" cy="332.06" r="1.32"/><path class="cls-8" d="M94.65,328.88v5.85a.56.56,0,0,1-.57.56H87.23a.57.57,0,0,1-.57-.56v-5.85s0,0,0,0H94.6A0,0,0,0,1,94.65,328.88Z"/><circle class="cls-8" cx="90.66" cy="324.49" r="1.32"/><path class="cls-8" d="M86.66,327.67v-5.85a.56.56,0,0,1,.57-.55h6.85a.55.55,0,0,1,.57.55v5.85a0,0,0,0,1-.05.05H86.71A.05.05,0,0,1,86.66,327.67Z"/><circle class="cls-8" cx="73.3" cy="324.49" r="1.32"/><path class="cls-8" d="M69.3,327.67v-5.85a.56.56,0,0,1,.57-.55h6.85a.55.55,0,0,1,.57.55v5.85a0,0,0,0,1-.05.05H69.35A0,0,0,0,1,69.3,327.67Z"/><g id="LINE-172" data-name="LINE"><line class="cls-8" x1="46.38" y1="328.2" x2="47.38" y2="328.2"/><line class="cls-14" x1="49.37" y1="328.2" x2="116.04" y2="328.2"/><line class="cls-8" x1="117.03" y1="328.2" x2="118.03" y2="328.2"/></g><line class="cls-8" x1="46.55" y1="317.05" x2="46.55" y2="341.53"/><line class="cls-8" x1="18.54" y1="317.05" x2="18.54" y2="341.53"/><g id="LWPOLYLINE-89" data-name="LWPOLYLINE"><line class="cls-15" x1="297.56" y1="227.31" x2="297.56" y2="186.88"/></g><g id="LWPOLYLINE-90" data-name="LWPOLYLINE"><polyline class="cls-15" points="286.31 262 331.67 262 331.67 329.38"/></g><g id="LWPOLYLINE-91" data-name="LWPOLYLINE"><line class="cls-15" x1="174.4" y1="406.37" x2="174.4" y2="362.19"/></g><g id="LWPOLYLINE-92" data-name="LWPOLYLINE"><polyline class="cls-15" points="52.82 276.18 52.82 252.74 28.3 252.74"/></g><line class="cls-15" x1="28.3" y1="247.03" x2="116.51" y2="247.03"/><g id="LINE-173" data-name="LINE"><line class="cls-10" x1="291.04" y1="223.69" x2="304.09" y2="223.69"/></g><g id="LINE-174" data-name="LINE"><line class="cls-10" x1="291.04" y1="221.27" x2="304.09" y2="221.27"/></g><g id="LINE-175" data-name="LINE"><line class="cls-10" x1="291.04" y1="218.86" x2="304.09" y2="218.85"/></g><g id="LINE-176" data-name="LINE"><line class="cls-10" x1="291.04" y1="216.44" x2="304.09" y2="216.44"/></g><g id="LINE-177" data-name="LINE"><line class="cls-10" x1="291.04" y1="214.02" x2="304.09" y2="214.02"/></g><g id="LINE-178" data-name="LINE"><line class="cls-10" x1="304.09" y1="211.6" x2="291.04" y2="211.6"/></g><g id="LINE-179" data-name="LINE"><line class="cls-10" x1="325.14" y1="325.43" x2="338.19" y2="325.43"/></g><g id="LINE-180" data-name="LINE"><line class="cls-10" x1="325.14" y1="323.01" x2="338.19" y2="323.01"/></g><g id="LINE-181" data-name="LINE"><line class="cls-10" x1="325.14" y1="320.59" x2="338.19" y2="320.59"/></g><g id="LINE-182" data-name="LINE"><line class="cls-10" x1="325.14" y1="318.18" x2="338.19" y2="318.17"/></g><g id="LINE-183" data-name="LINE"><line class="cls-10" x1="325.14" y1="315.76" x2="338.19" y2="315.76"/></g><g id="LINE-184" data-name="LINE"><line class="cls-10" x1="338.19" y1="313.34" x2="325.14" y2="313.34"/></g><g id="LINE-185" data-name="LINE"><line class="cls-10" x1="290.26" y1="255.47" x2="290.26" y2="268.52"/></g><g id="LINE-186" data-name="LINE"><line class="cls-10" x1="292.68" y1="255.47" x2="292.68" y2="268.52"/></g><g id="LINE-187" data-name="LINE"><line class="cls-10" x1="295.1" y1="255.47" x2="295.1" y2="268.52"/></g><g id="LINE-188" data-name="LINE"><line class="cls-10" x1="297.52" y1="255.47" x2="297.52" y2="268.52"/></g><g id="LINE-189" data-name="LINE"><line class="cls-10" x1="299.94" y1="255.47" x2="299.94" y2="268.52"/></g><g id="LINE-190" data-name="LINE"><line class="cls-10" x1="302.36" y1="268.52" x2="302.36" y2="255.47"/></g><g id="LINE-191" data-name="LINE"><line class="cls-10" x1="180.93" y1="402.43" x2="167.87" y2="402.43"/></g><g id="LINE-192" data-name="LINE"><line class="cls-10" x1="180.93" y1="400.01" x2="167.87" y2="400.01"/></g><g id="LINE-193" data-name="LINE"><line class="cls-10" x1="180.93" y1="397.59" x2="167.87" y2="397.59"/></g><g id="LINE-194" data-name="LINE"><line class="cls-10" x1="180.93" y1="395.17" x2="167.87" y2="395.17"/></g><g id="LINE-195" data-name="LINE"><line class="cls-10" x1="180.93" y1="392.75" x2="167.87" y2="392.75"/></g><g id="LINE-196" data-name="LINE"><line class="cls-10" x1="167.87" y1="390.33" x2="180.93" y2="390.33"/></g><g id="LWPOLYLINE-93" data-name="LWPOLYLINE"><rect class="cls-13" x="264.66" y="382.53" width="25.88" height="19.87"/></g><g id="LWPOLYLINE-94" data-name="LWPOLYLINE"><path class="cls-13" d="M269.75,386.41a1.11,1.11,0,0,1,1.11-1.11h13.49a1.11,1.11,0,0,1,1.11,1.11v10a.93.93,0,0,1-.93.93H270.67a.92.92,0,0,1-.92-.93Z"/></g><g id="ARC-35" data-name="ARC"><path class="cls-13" d="M254.64,385.84c.35,3.17,1,11.54,1,11.54"/></g><g id="ARC-36" data-name="ARC"><path class="cls-13" d="M243.37,393.19a.85.85,0,0,1-.77-.52c-.15-.35-.28-.7-.4-1.06a14.84,14.84,0,0,1-.64-2.94c-.06-.53-.11-1.06-.13-1.59a15.27,15.27,0,0,1,.34-4.16,10.12,10.12,0,0,1,3.07-5.32,4.8,4.8,0,0,1,6.54.07,10,10,0,0,1,3,5.37,15.34,15.34,0,0,1,.27,4.17c0,.53-.09,1.06-.17,1.59a14.11,14.11,0,0,1-.7,2.92c-.12.36-.26.71-.41,1a.84.84,0,0,1-.78.5Z"/></g><g id="ARC-37" data-name="ARC"><path class="cls-13" d="M241.42,385.71c-.42,3.16-1,11.67-1,11.67"/></g><g id="ARC-38" data-name="ARC"><path class="cls-13" d="M255.65,397.23a1.12,1.12,0,0,0-1-1,57,57,0,0,0-13.31,0,1.1,1.1,0,0,0-1,1v0c-.06,1.14-.1,2.28-.13,3.43a1.47,1.47,0,0,0,1.34,1.49q3.19.27,6.41.27c2.13,0,4.27-.09,6.4-.27a1.47,1.47,0,0,0,1.34-1.49c0-1.15-.07-2.29-.12-3.43Z"/></g><g id="ARC-39" data-name="ARC"><path class="cls-13" d="M278.07,398.7a1.17,1.17,0,1,1-.93,0Z"/></g><g id="ARC-40" data-name="ARC"><path class="cls-13" d="M283.4,400a1.17,1.17,0,1,1,0-.47Z"/></g><g id="ARC-41" data-name="ARC"><path class="cls-13" d="M271.8,400a1.17,1.17,0,1,0,0-.47Z"/></g><g id="LINE-197" data-name="LINE"><path class="cls-13" d="M278.07,394.17v5.6a.47.47,0,0,1-.93,0v-5.6a.47.47,0,0,1,.93,0Z"/></g><line class="cls-13" x1="282.25" y1="399.77" x2="285.53" y2="399.77"/><line class="cls-13" x1="269.68" y1="399.77" x2="272.95" y2="399.77"/><g id="LWPOLYLINE-95" data-name="LWPOLYLINE"><rect class="cls-13" x="209.97" y="271.88" width="19.87" height="25.88"/></g><g id="LWPOLYLINE-96" data-name="LWPOLYLINE"><path class="cls-13" d="M213.85,292.67a1.11,1.11,0,0,1-1.11-1.11V278.07a1.11,1.11,0,0,1,1.11-1.11h10a.92.92,0,0,1,.92.92v13.87a.92.92,0,0,1-.92.92Z"/></g><g id="ARC-42" data-name="ARC"><path class="cls-13" d="M213.27,307.77c3.17-.35,11.54-1,11.54-1"/></g><g id="ARC-43" data-name="ARC"><path class="cls-13" d="M220.62,319.05a.84.84,0,0,1-.52.77c-.35.14-.7.28-1.06.4a15.31,15.31,0,0,1-2.93.64c-.53.06-1.06.1-1.6.13a15.75,15.75,0,0,1-4.16-.34,10.09,10.09,0,0,1-5.31-3.07,4.79,4.79,0,0,1,.06-6.54,10.15,10.15,0,0,1,5.37-3,15.77,15.77,0,0,1,4.17-.26c.53,0,1.06.09,1.59.16a15.16,15.16,0,0,1,2.92.7q.54.19,1,.42a.85.85,0,0,1,.51.78Z"/></g><g id="ARC-44" data-name="ARC"><path class="cls-13" d="M213.14,321c3.17.41,11.67,1,11.67,1"/></g><g id="ARC-45" data-name="ARC"><path class="cls-13" d="M224.67,306.77a1.1,1.1,0,0,0-1,1,55.48,55.48,0,0,0,0,13.3,1.09,1.09,0,0,0,1,1h0c1.15.05,2.29.1,3.43.12a1.46,1.46,0,0,0,1.49-1.34q.28-3.19.28-6.4t-.28-6.4a1.46,1.46,0,0,0-1.49-1.34l-3.43.12Z"/></g><g id="ARC-46" data-name="ARC"><path class="cls-13" d="M226.13,284.35a1.16,1.16,0,0,1,2.23.46,1.15,1.15,0,0,1-.69,1.07,1.17,1.17,0,0,1-1.54-.6Z"/></g><g id="ARC-47" data-name="ARC"><path class="cls-13" d="M227.43,279a1.17,1.17,0,0,1-.23,2.31A1.17,1.17,0,0,1,227,279Z"/></g><g id="ARC-48" data-name="ARC"><path class="cls-13" d="M227.43,290.62a1.17,1.17,0,0,0-.23-2.31,1.17,1.17,0,0,0-.23,2.31Z"/></g><g id="LINE-198" data-name="LINE"><path class="cls-13" d="M221.61,284.35h5.59a.47.47,0,1,1,0,.93h-5.59a.47.47,0,1,1,0-.93Z"/></g><line class="cls-13" x1="227.2" y1="280.17" x2="227.2" y2="276.89"/><line class="cls-13" x1="227.2" y1="292.74" x2="227.2" y2="289.46"/><g id="LWPOLYLINE-97" data-name="LWPOLYLINE"><polygon class="cls-16" points="101.45 441.41 101.51 441.41 101.51 440.47 103.33 440.47 103.33 437.66 106.25 437.66 106.25 431.92 101.51 431.92 101.51 395.71 97.99 395.71 97.99 399.46 64.24 399.46 64.24 353.17 97.99 353.17 97.99 361.96 101.51 361.96 101.51 344.38 119.44 344.38 119.44 340.86 3.19 340.86 3.19 0.2 0.2 0.2 0.2 262.11 0.2 279.99 0.2 343.74 57.09 343.74 57.09 401.22 98.64 401.22 98.64 441.41 101.23 441.41 101.45 441.41"/></g><g id="LWPOLYLINE-98" data-name="LWPOLYLINE"><polygon class="cls-16" points="235.81 221.1 241.55 221.1 241.55 186.88 245.3 186.88 245.3 183.36 162.56 183.36 162.56 67.82 190.69 67.82 190.69 0.2 186.94 0.2 185.69 2.4 184.07 4.35 182.14 5.99 179.95 7.27 177.57 8.14 175.08 8.58 172.55 8.58 170.05 8.14 167.68 7.27 165.49 5.99 163.55 4.35 161.94 2.4 160.69 0.2 156.82 0.2 156.82 217.35 235.81 217.35 235.81 221.1"/></g><g id="LWPOLYLINE-99" data-name="LWPOLYLINE"><polygon class="cls-16" points="66.27 22.7 96.94 22.7 96.94 0.2 93.19 0.2 91.94 2.4 90.32 4.35 88.39 5.99 86.2 7.27 83.82 8.14 81.33 8.58 78.8 8.58 76.3 8.14 73.92 7.27 71.74 5.99 69.8 4.35 68.19 2.4 66.94 0.2 63.19 0.2 63.19 22.7 66.27 22.7"/></g><g id="LWPOLYLINE-100" data-name="LWPOLYLINE"><polygon class="cls-16" points="162.56 441.39 162.56 410.82 345.79 410.82 345.79 247.88 311.68 247.88 311.68 28.45 309.76 26.81 308.19 24.9 306.94 22.7 303.19 22.7 303.19 57.62 308.81 57.62 308.81 183.36 279.05 183.36 279.05 186.88 282.8 186.88 282.8 193.03 286.31 193.03 286.31 186.88 308.81 186.88 308.81 227.31 286.31 227.31 286.31 221.16 282.8 221.16 282.8 289.89 286.31 289.89 286.31 250.75 342.92 250.75 342.92 329.38 286.31 329.38 286.31 323.64 282.8 323.64 282.8 329.38 279.05 329.38 279.05 332.89 342.92 332.89 342.92 402.27 229.36 402.27 229.36 368.05 225.84 368.05 225.84 402.27 190.22 402.27 190.22 332.89 245.3 332.89 245.3 329.38 241.55 329.38 241.55 254.85 235.81 254.85 235.81 258.83 197.84 258.83 197.84 265.63 229.71 265.63 229.71 329.38 160.34 329.38 160.34 265.63 164.09 265.63 164.09 258.83 156.82 258.83 156.82 340.86 153.19 340.86 153.19 344.38 159.16 344.38 159.16 367.64 162.68 367.64 162.68 362.19 185.65 362.19 185.65 406.37 162.68 406.37 162.68 401.39 159.16 401.39 159.16 431.92 140 431.92 140 437.66 153.95 437.66 153.95 440.47 160.45 440.47 160.45 441.39 160.72 441.39 162.56 441.39"/></g><path class="cls-17" d="M222.77,50.56h.88L225.47,55h0l1.82-4.45h.88v5.6h-.67V51.62h0l-1.89,4.54h-.28l-1.89-4.54h0v4.54h-.66Z"/><path class="cls-17" d="M233.12,55H230.6l-.39,1.13h-.68l2-5.6h.64l2,5.6h-.68Zm-.2-.57-1-3h0l-1,3Z"/><path class="cls-17" d="M235.07,54.3l.66-.11a1.47,1.47,0,0,0,1.65,1.47c.78,0,1.29-.36,1.29-.91s-.37-.88-1.54-1.25c-1.34-.43-1.78-.83-1.78-1.58s.73-1.48,1.79-1.48a2,2,0,0,1,2,1.63l-.65.14a1.34,1.34,0,0,0-1.39-1.14c-.68,0-1.13.33-1.13.85s.32.67,1.34,1c1.46.47,2,1,2,1.83s-.79,1.54-2,1.54A2.06,2.06,0,0,1,235.07,54.3Z"/><path class="cls-17" d="M242.11,51.19h-1.74v-.63h4.15v.63h-1.74v5h-.67Z"/><path class="cls-17" d="M246,50.56h3.36v.63h-2.7V53h2.48v.59h-2.48v2h2.7v.62H246Z"/><path class="cls-17" d="M253.45,53.86l1.23,2.3h-.78l-1.18-2.27H251.6v2.27h-.66v-5.6h2c1.17,0,1.86.63,1.86,1.66a1.53,1.53,0,0,1-1.39,1.62Zm-.52-.59c.82,0,1.25-.36,1.25-1.05s-.42-1-1.25-1H251.6v2.08Z"/><path class="cls-17" d="M220.26,59.06h2.15A1.46,1.46,0,0,1,224,60.51a1.19,1.19,0,0,1-.66,1.15v0a1.34,1.34,0,0,1,.87,1.32c0,1.08-.68,1.66-2,1.66h-2Zm2,2.38c.73,0,1.09-.3,1.09-.9s-.37-.85-1.09-.85h-1.38v1.75Zm-.1,2.6c1,0,1.39-.32,1.39-1s-.39-1-1.37-1h-1.3v2Z"/><path class="cls-17" d="M225.88,59.06h3.36v.63h-2.7v1.79H229v.59h-2.48v2h2.7v.62h-3.36Z"/><path class="cls-17" d="M230.83,59.06h1.75c1.41,0,2.41,1,2.41,2.79,0,2-1,2.81-2.46,2.81h-1.7Zm1.66,5c1.13,0,1.84-.6,1.84-2.19,0-1.43-.71-2.16-1.79-2.16h-1V64Z"/><path class="cls-17" d="M239.12,62.36l1.23,2.3h-.77l-1.18-2.27h-1.12v2.27h-.66v-5.6h2c1.17,0,1.86.63,1.86,1.66a1.54,1.54,0,0,1-1.4,1.62Zm-.52-.59c.83,0,1.26-.36,1.26-1.05s-.43-1-1.26-1h-1.32v2.08Z"/><path class="cls-17" d="M241.79,61.86c0-1.75.94-2.92,2.35-2.92s2.36,1.17,2.36,2.92-.94,2.92-2.36,2.92S241.79,63.61,241.79,61.86Zm4.05,0c0-1.41-.65-2.29-1.7-2.29s-1.69.88-1.69,2.29.65,2.3,1.69,2.3S245.84,63.28,245.84,61.86Z"/><path class="cls-17" d="M247.85,61.86c0-1.75.94-2.92,2.36-2.92s2.35,1.17,2.35,2.92-.94,2.92-2.35,2.92S247.85,63.61,247.85,61.86Zm4.05,0c0-1.41-.65-2.29-1.69-2.29s-1.7.88-1.7,2.29.65,2.3,1.7,2.3S251.9,63.28,251.9,61.86Z"/><path class="cls-17" d="M254.19,59.06h.88l1.82,4.45h0l1.82-4.45h.88v5.6h-.66V60.12h0L257,64.66h-.28l-1.88-4.54h0v4.54h-.66Z"/><path class="cls-17" d="M214.05,68.31l-1.25.81v-.69l1.33-.87h.58v5.6h-.66Z"/><path class="cls-17" d="M216.3,71.3l.66-.11c.11,1,.58,1.47,1.4,1.47a1.07,1.07,0,0,0,1.2-1.08c0-.76-.43-1.12-1.32-1.12h-.4v-.58h.4c.67,0,1.18-.4,1.18-.9s-.4-.93-1.06-.93a1.19,1.19,0,0,0-1.27,1.06l-.65-.1a1.81,1.81,0,0,1,1.92-1.57,1.54,1.54,0,0,1,1.72,1.49,1.36,1.36,0,0,1-.76,1.18h0a1.5,1.5,0,0,1,.9,1.46,1.69,1.69,0,0,1-1.86,1.7A2,2,0,0,1,216.3,71.3Z"/><path class="cls-17" d="M221.88,67.56h.58v1.79h-.58Z"/><path class="cls-17" d="M223.6,70h2.08v.6H223.6Z"/><path class="cls-17" d="M227.13,70.36c0-1.81.9-2.92,2.21-2.92s2.22,1.11,2.22,2.92-.9,2.92-2.22,2.92S227.13,72.18,227.13,70.36Zm3.76,0c0-1.46-.61-2.29-1.55-2.29s-1.55.83-1.55,2.29.62,2.3,1.55,2.3S230.89,71.82,230.89,70.36Z"/><path class="cls-17" d="M233.08,67.56h.58v1.79h-.58Zm1.06,0h.58v1.79h-.58Z"/><path class="cls-17" d="M238.42,71.72l1.31-1.29-1.31-1.3.39-.39,1.29,1.31,1.29-1.31.39.39-1.31,1.3,1.31,1.29-.39.39L240.1,70.8l-1.29,1.31Z"/><path class="cls-17" d="M246,68.31l-1.25.81v-.69l1.33-.87h.58v5.6H246Z"/><path class="cls-17" d="M249.09,72.54h3v.62h-3.72v-.53a2,2,0,0,1,.23-1.06c.2-.37.55-.64,1.43-1.1,1.16-.6,1.49-.93,1.49-1.49s-.48-.91-1.16-.91a1.29,1.29,0,0,0-1.4,1.36l-.67-.06a1.94,1.94,0,0,1,2.07-1.93A1.68,1.68,0,0,1,252.2,69c0,.82-.42,1.31-1.65,1.93-.94.47-1.19.66-1.34.94A1.47,1.47,0,0,0,249.09,72.54Z"/><path class="cls-17" d="M253.92,67.56h.59v1.79h-.59Z"/><path class="cls-17" d="M255.92,70H258v.6h-2.09Z"/><path class="cls-17" d="M263.38,70c0,2.27-.61,3.25-2,3.25a1.78,1.78,0,0,1-1.8-1.42l.61-.16a1.18,1.18,0,0,0,1.19,1c.89,0,1.31-.57,1.36-2h0a1.7,1.7,0,0,1-1.44.63,1.8,1.8,0,0,1-1.95-1.92,1.88,1.88,0,0,1,2-1.9C262.55,67.44,263.38,68.31,263.38,70Zm-.77-.65a1.33,1.33,0,1,0-1.32,1.29A1.25,1.25,0,0,0,262.61,69.38Z"/><path class="cls-17" d="M265,67.56h.59v1.79H265Zm1.06,0h.58v1.79H266Z"/><path class="cls-17" d="M41.76,127.16h.66v5h2.52v.63H41.76Z"/><path class="cls-17" d="M46.41,127.16h.66v5.6h-.66Z"/><path class="cls-17" d="M48.4,127.16h.7l1.66,4.72h0l1.67-4.72h.69l-2,5.6h-.7Z"/><path class="cls-17" d="M54.49,127.16h.65v5.6h-.65Z"/><path class="cls-17" d="M57.05,127.16h.78l2.54,4.57h0v-4.57h.66v5.6h-.78l-2.55-4.57h0v4.57h-.66Z"/><path class="cls-17" d="M62.68,130c0-1.78.93-2.92,2.36-2.92a2.08,2.08,0,0,1,2.13,1.85l-.66.12A1.44,1.44,0,0,0,65,127.66c-1.05,0-1.7.88-1.7,2.3s.65,2.29,1.7,2.29a1.42,1.42,0,0,0,1.49-1.64H65.11V130h2.07v.57A2.09,2.09,0,0,1,65,132.88C63.61,132.88,62.68,131.73,62.68,130Z"/><path class="cls-17" d="M70.79,132.88l2.86-6,.44.2-2.86,6Z"/><path class="cls-17" d="M78,127.16h1.75c1.41,0,2.41,1,2.41,2.79,0,2-1,2.81-2.46,2.81H78Zm1.66,5c1.13,0,1.84-.6,1.84-2.18,0-1.43-.71-2.17-1.79-2.17h-1v4.35Z"/><path class="cls-17" d="M83.83,127.16h.66v5.6h-.66Z"/><path class="cls-17" d="M86.4,127.16h.77l2.55,4.57h0v-4.57h.67v5.6h-.79l-2.54-4.57h0v4.57H86.4Z"/><path class="cls-17" d="M92.32,127.16H93v5.6h-.66Z"/><path class="cls-17" d="M94.89,127.16h.77l2.54,4.57h0v-4.57h.66v5.6H98.1l-2.54-4.57h0v4.57h-.65Z"/><path class="cls-17" d="M100.51,130c0-1.78.93-2.92,2.36-2.92a2.08,2.08,0,0,1,2.13,1.85l-.66.12a1.43,1.43,0,0,0-1.47-1.35c-1,0-1.69.88-1.69,2.3s.65,2.29,1.69,2.29a1.43,1.43,0,0,0,1.5-1.64H103V130H105v.57a2.1,2.1,0,0,1-2.15,2.32C101.44,132.88,100.51,131.73,100.51,130Z"/><path class="cls-17" d="M111.69,130.45l1.23,2.31h-.77L111,130.49h-1.12v2.27h-.65v-5.6h2c1.16,0,1.86.62,1.86,1.65a1.55,1.55,0,0,1-1.4,1.63Zm-.52-.59c.82,0,1.25-.36,1.25-1.05s-.42-1-1.25-1h-1.33v2.08Z"/><path class="cls-17" d="M114.35,130c0-1.75,1-2.92,2.36-2.92s2.36,1.17,2.36,2.92-.94,2.92-2.36,2.92S114.35,131.71,114.35,130Zm4.06,0c0-1.42-.65-2.3-1.7-2.3s-1.7.88-1.7,2.3.65,2.29,1.7,2.29S118.41,131.37,118.41,130Z"/><path class="cls-17" d="M120.41,130c0-1.75,1-2.92,2.36-2.92s2.36,1.17,2.36,2.92-.94,2.92-2.36,2.92S120.41,131.71,120.41,130Zm4.06,0c0-1.42-.65-2.3-1.7-2.3s-1.69.88-1.69,2.3.64,2.29,1.69,2.29S124.47,131.37,124.47,130Z"/><path class="cls-17" d="M126.76,127.16h.88l1.81,4.45h0l1.82-4.45h.88v5.6h-.67v-4.54h0l-1.89,4.54h-.28l-1.89-4.54h0v4.54h-.66Z"/><path class="cls-17" d="M61.56,136.41l-1.24.81v-.7l1.32-.86h.59v5.6h-.67Z"/><path class="cls-17" d="M63.82,139.39l.65-.1c.12,1,.59,1.46,1.41,1.46a1.07,1.07,0,0,0,1.2-1.08c0-.76-.43-1.12-1.32-1.12h-.4V138h.4c.66,0,1.18-.4,1.18-.9s-.4-.93-1.07-.93a1.19,1.19,0,0,0-1.26,1l-.65-.09a1.8,1.8,0,0,1,1.91-1.57A1.54,1.54,0,0,1,67.6,137a1.33,1.33,0,0,1-.76,1.17v0a1.49,1.49,0,0,1,.9,1.45,1.7,1.7,0,0,1-1.86,1.71A2,2,0,0,1,63.82,139.39Z"/><path class="cls-17" d="M69.39,135.66H70v1.78h-.59Z"/><path class="cls-17" d="M71.11,138.07H73.2v.6H71.11Z"/><path class="cls-17" d="M74.35,139.7a1.58,1.58,0,0,1,1.05-1.51h0a1.26,1.26,0,0,1-.73-1.17,1.78,1.78,0,0,1,3.51,0,1.25,1.25,0,0,1-.73,1.17h0a1.57,1.57,0,0,1,1,1.51c0,1-.82,1.68-2.06,1.68S74.35,140.71,74.35,139.7Zm3.46,0c0-.67-.54-1.11-1.38-1.11S75,139,75,139.66s.54,1.08,1.4,1.08S77.81,140.32,77.81,139.66Zm-.28-2.61c0-.54-.45-.91-1.1-.91s-1.11.37-1.11.91.44.88,1.11.88S77.53,137.59,77.53,137.05Z"/><path class="cls-17" d="M79.92,135.66h.59v1.78h-.59Zm1.06,0h.58v1.78H81Z"/><path class="cls-17" d="M85.26,139.82l1.31-1.3-1.31-1.29.39-.39,1.29,1.31,1.29-1.31.39.39-1.31,1.29,1.31,1.3-.39.39-1.29-1.31-1.29,1.31Z"/><path class="cls-17" d="M92.8,136.41l-1.25.81v-.7l1.33-.86h.58v5.6H92.8Z"/><path class="cls-17" d="M99.13,138.12c0,2.27-.61,3.26-2,3.26a1.78,1.78,0,0,1-1.8-1.43l.61-.16a1.18,1.18,0,0,0,1.19,1c.89,0,1.31-.57,1.36-2.05h0a1.69,1.69,0,0,1-1.43.63,1.79,1.79,0,0,1-2-1.91,1.88,1.88,0,0,1,2-1.9C98.3,135.54,99.13,136.4,99.13,138.12Zm-.77-.64A1.33,1.33,0,1,0,97,138.77,1.25,1.25,0,0,0,98.36,137.48Z"/><path class="cls-17" d="M100.71,135.66h.58v1.78h-.58Z"/><path class="cls-17" d="M102.71,138.07h2.09v.6h-2.09Z"/><path class="cls-17" d="M106,139.7a1.57,1.57,0,0,1,1-1.51h0a1.25,1.25,0,0,1-.74-1.17,1.79,1.79,0,0,1,3.52,0,1.26,1.26,0,0,1-.74,1.17h0a1.57,1.57,0,0,1,1,1.51c0,1-.81,1.68-2.06,1.68S106,140.71,106,139.7Zm3.45,0c0-.67-.53-1.11-1.38-1.11s-1.39.44-1.39,1.11.54,1.08,1.39,1.08S109.4,140.32,109.4,139.66Zm-.28-2.61c0-.54-.44-.91-1.1-.91s-1.1.37-1.1.91.44.88,1.1.88S109.12,137.59,109.12,137.05Z"/><path class="cls-17" d="M111.52,135.66h.58v1.78h-.58Zm1,0h.59v1.78h-.59Z"/><path class="cls-17" d="M116.92,374.49h3.37v.62h-2.71v2h2.48v.59h-2.48v2.38h-.66Z"/><path class="cls-17" d="M121.84,377.29c0-1.75.94-2.92,2.36-2.92s2.36,1.17,2.36,2.92-1,2.91-2.36,2.91S121.84,379,121.84,377.29Zm4,0c0-1.42-.64-2.3-1.69-2.3s-1.7.88-1.7,2.3.65,2.29,1.7,2.29S125.89,378.7,125.89,377.29Z"/><path class="cls-17" d="M129.55,377.75l-2-3.26h.77l1.51,2.61h0l1.52-2.61h.77l-2,3.26v2.33h-.66Z"/><path class="cls-17" d="M133.82,374.49h3.35v.62h-2.7v1.79H137v.59h-2.48v2h2.7v.62h-3.35Z"/><path class="cls-17" d="M141.59,377.78l1.23,2.3h-.77l-1.19-2.27h-1.12v2.27h-.65v-5.59h2c1.16,0,1.86.62,1.86,1.65a1.55,1.55,0,0,1-1.4,1.63Zm-.52-.59c.82,0,1.26-.36,1.26-1.05s-.43-1-1.26-1h-1.33v2.08Z"/><path class="cls-17" d="M73,375.41h.68l.83,4.55h0l1.39-4.55h.62L77.92,380h0l.82-4.55h.68l-1,5.6h-.8l-1.38-4.49h0L74.84,381H74Z"/><path class="cls-17" d="M80.38,381.13l2.85-6,.45.2-2.86,6Z"/><path class="cls-17" d="M85.37,375.41h1.74c1.42,0,2.42,1,2.42,2.79,0,2-1,2.81-2.46,2.81h-1.7Zm1.66,5c1.13,0,1.83-.6,1.83-2.19,0-1.43-.7-2.16-1.79-2.16H86v4.35Z"/><path class="cls-17" d="M32.85,329l1.23,2.3h-.77L32.12,329H31v2.27h-.65v-5.6h2a1.63,1.63,0,0,1,1.86,1.66,1.54,1.54,0,0,1-1.4,1.62Zm-.52-.6c.83,0,1.26-.35,1.26-1s-.43-1-1.26-1H31v2.07Z"/><path class="cls-17" d="M34.76,262.93H36.5c1.42,0,2.42,1,2.42,2.79,0,2-1,2.8-2.46,2.8h-1.7Zm1.66,5c1.13,0,1.84-.6,1.84-2.18s-.71-2.17-1.8-2.17h-1v4.35Z"/><path class="cls-17" d="M39.85,262.93h.68l.82,4.55h0l1.38-4.55h.62l1.39,4.55h0l.82-4.55h.68l-1,5.59h-.8L43.07,264h0l-1.37,4.49h-.8Z"/><path class="cls-17" d="M5.35,266.67l.65-.11A1.47,1.47,0,0,0,7.66,268c.77,0,1.29-.36,1.29-.9s-.38-.88-1.55-1.25c-1.33-.44-1.78-.83-1.78-1.58s.73-1.48,1.79-1.48a2,2,0,0,1,2,1.63l-.65.13a1.34,1.34,0,0,0-1.39-1.14c-.68,0-1.12.34-1.12.86s.31.66,1.34,1c1.45.47,2,1,2,1.84s-.79,1.53-1.95,1.53A2,2,0,0,1,5.35,266.67Z"/><path class="cls-17" d="M10.53,265.73c0-1.76.94-2.92,2.35-2.92s2.36,1.16,2.36,2.92-.94,2.91-2.36,2.91S10.53,267.48,10.53,265.73Zm4.05,0c0-1.42-.65-2.3-1.7-2.3s-1.69.88-1.69,2.3.65,2.29,1.69,2.29S14.58,267.14,14.58,265.73Z"/><path class="cls-17" d="M15.73,268.64l2.86-6,.45.2-2.87,6Z"/><path class="cls-17" d="M19.81,262.93h.68l.82,4.55h0l1.38-4.55h.62l1.39,4.55h0l.82-4.55h.68l-1,5.59h-.8L23,264h0l-1.36,4.49h-.81Z"/><polygon class="cls-17" points="119.59 452.37 124.99 437.97 130.39 452.37 119.59 452.37"/></g></g></svg>