<svg xmlns="http://www.w3.org/2000/svg" viewBox="0 0 744.78 337.68"><defs><style>.cls-1,.cls-10,.cls-3,.cls-4{fill:#b4c0be;}.cls-1,.cls-10,.cls-11,.cls-12,.cls-13,.cls-14,.cls-15,.cls-16,.cls-2,.cls-3,.cls-4,.cls-5,.cls-6,.cls-7,.cls-8,.cls-9{stroke:#fff;}.cls-1,.cls-10,.cls-11,.cls-12,.cls-13,.cls-14,.cls-15,.cls-2,.cls-3,.cls-5,.cls-6,.cls-8,.cls-9{stroke-linecap:round;stroke-linejoin:round;}.cls-1{stroke-width:0.15px;}.cls-11,.cls-12,.cls-13,.cls-14,.cls-15,.cls-2,.cls-5,.cls-6,.cls-7,.cls-8,.cls-9{fill:none;}.cls-2,.cls-3,.cls-4{stroke-width:0.15px;}.cls-16,.cls-4,.cls-7{stroke-miterlimit:10;}.cls-16,.cls-5{stroke-width:0.4px;}.cls-10,.cls-11,.cls-12,.cls-13,.cls-14,.cls-15,.cls-6,.cls-7,.cls-9{stroke-width:0.25px;}.cls-8{stroke-width:0.2px;}.cls-9{stroke-dasharray:1.32 1.32;}.cls-11{stroke-dasharray:1.32 1.32;}.cls-12{stroke-dasharray:1.36 1.36;}.cls-13{stroke-dasharray:1.36 1.36;}.cls-14{stroke-dasharray:1.28 1.28;}.cls-15{stroke-dasharray:2 2;}.cls-16{fill:#e1e5e5;}.cls-17,.cls-38,.cls-48,.cls-71,.cls-75,.cls-77,.cls-78,.cls-79{font-size:8px;font-family:MaisonNeue-Book, Maison Neue;}.cls-17,.cls-38,.cls-48,.cls-71,.cls-75,.cls-77,.cls-78,.cls-79,.cls-80{fill:#fff;}.cls-18{letter-spacing:0.08em;}.cls-19{letter-spacing:0.07em;}.cls-20{letter-spacing:0.06em;}.cls-21{letter-spacing:0.06em;}.cls-22{letter-spacing:0.06em;}.cls-23{letter-spacing:0.06em;}.cls-24,.cls-48{letter-spacing:0.07em;}.cls-25{letter-spacing:0.07em;}.cls-26{letter-spacing:0.08em;}.cls-27{letter-spacing:0.07em;}.cls-28{letter-spacing:0.05em;}.cls-29{letter-spacing:0.07em;}.cls-30{letter-spacing:0.07em;}.cls-31{letter-spacing:0.03em;}.cls-32{letter-spacing:0.06em;}.cls-33{letter-spacing:-0.02em;}.cls-34{letter-spacing:0.02em;}.cls-35{letter-spacing:0.03em;}.cls-36{letter-spacing:0.08em;}.cls-37{letter-spacing:0.06em;}.cls-38,.cls-46{letter-spacing:0.11em;}.cls-39{letter-spacing:0.11em;}.cls-40{letter-spacing:0.09em;}.cls-41{letter-spacing:0.13em;}.cls-42{letter-spacing:0.11em;}.cls-43{letter-spacing:0.11em;}.cls-44,.cls-77{letter-spacing:0.1em;}.cls-45{letter-spacing:0.12em;}.cls-47,.cls-78{letter-spacing:0.1em;}.cls-49{letter-spacing:0.05em;}.cls-50{letter-spacing:0.05em;}.cls-51{letter-spacing:0em;}.cls-52{letter-spacing:0.07em;}.cls-53{letter-spacing:0.05em;}.cls-54{letter-spacing:0.08em;}.cls-55{letter-spacing:0.05em;}.cls-56{letter-spacing:0.08em;}.cls-57{letter-spacing:0.07em;}.cls-58{letter-spacing:0.07em;}.cls-59{letter-spacing:0.07em;}.cls-60{letter-spacing:0.07em;}.cls-61{letter-spacing:0.08em;}.cls-62{letter-spacing:0.06em;}.cls-63{letter-spacing:-0.02em;}.cls-64{letter-spacing:0.08em;}.cls-65{letter-spacing:-0.02em;}.cls-66{letter-spacing:0.02em;}.cls-67{letter-spacing:0.07em;}.cls-68{letter-spacing:0.06em;}.cls-69{letter-spacing:0.08em;}.cls-70{letter-spacing:0.06em;}.cls-71{letter-spacing:0.1em;}.cls-72{letter-spacing:0.08em;}.cls-73{letter-spacing:0.12em;}.cls-74{letter-spacing:0.1em;}.cls-75{letter-spacing:0.08em;}.cls-76{letter-spacing:0.11em;}.cls-79{letter-spacing:0.03em;}</style></defs><title>Asset 1</title><g id="Layer_2" data-name="Layer 2"><g id="A-RUG"><g id="LWPOLYLINE"><rect class="cls-1" x="599.6" y="39.27" width="102.72" height="171.31"/></g><g id="LWPOLYLINE-2" data-name="LWPOLYLINE"><rect class="cls-1" x="38" y="43.64" width="97.33" height="87.12"/></g></g><g id="A-FURN-MASK"><g id="LWPOLYLINE-3" data-name="LWPOLYLINE"><path class="cls-2" d="M485.49,140.71a10.77,10.77,0,0,1-1.17,1.17,12,12,0,0,1-16.89-1.17l1.06-.92v-10.9h15.94v10.9Z"/></g><g id="LWPOLYLINE-4" data-name="LWPOLYLINE"><path class="cls-2" d="M508,140.71a10.77,10.77,0,0,1-1.17,1.17,12,12,0,0,1-16.89-1.17l1.06-.92v-10.9h15.94v10.9Z"/></g><g id="LWPOLYLINE-5" data-name="LWPOLYLINE"><path class="cls-2" d="M556.45,132.87h17.82l-.29,5.81a3.76,3.76,0,0,1-3.75,3.57h-9.74a3.76,3.76,0,0,1-3.75-3.57Z"/></g><g id="LWPOLYLINE-6" data-name="LWPOLYLINE"><path class="cls-2" d="M574.49,84.11H556.67l.3-5.81a3.74,3.74,0,0,1,3.74-3.57h9.74a3.76,3.76,0,0,1,3.75,3.57Z"/></g><g id="LWPOLYLINE-7" data-name="LWPOLYLINE"><path class="cls-2" d="M555.05,130.76V113l-5.81.29a3.75,3.75,0,0,0-3.57,3.74v9.75a3.75,3.75,0,0,0,3.57,3.74Z"/></g><g id="LWPOLYLINE-8" data-name="LWPOLYLINE"><path class="cls-2" d="M555.05,105V87.17l-5.81.29a3.75,3.75,0,0,0-3.57,3.74v9.74a3.76,3.76,0,0,0,3.57,3.75Z"/></g><g id="LWPOLYLINE-9" data-name="LWPOLYLINE"><polygon class="cls-3" points="706.74 217.01 605.49 217.01 605.49 183.26 671.43 183.26 671.43 157.07 706.74 157.07 706.74 217.01"/></g><g id="LWPOLYLINE-10" data-name="LWPOLYLINE"><polygon class="cls-3" points="680.62 111.91 710.61 112.89 710.58 139.61 680.58 140.51 680.62 111.91"/></g><g id="LWPOLYLINE-11" data-name="LWPOLYLINE"><polygon class="cls-3" points="680.62 61.2 710.61 62.17 710.58 88.89 680.58 89.79 680.62 61.2"/></g><g id="LWPOLYLINE-12" data-name="LWPOLYLINE"><rect class="cls-2" x="108.25" y="295.04" width="22.5" height="16.88"/></g><g id="LWPOLYLINE-13" data-name="LWPOLYLINE"><rect class="cls-2" x="22" y="295.04" width="22.5" height="16.88"/></g><g id="LWPOLYLINE-14" data-name="LWPOLYLINE"><rect class="cls-2" x="48.25" y="231.29" width="56.25" height="80.63"/></g><g id="LWPOLYLINE-15" data-name="LWPOLYLINE"><rect class="cls-2" x="48.25" y="183.95" width="56.25" height="15"/></g><g id="LWPOLYLINE-16" data-name="LWPOLYLINE"><rect class="cls-2" x="237.77" y="242.54" width="12.71" height="37.84"/></g><g id="LWPOLYLINE-17" data-name="LWPOLYLINE"><rect class="cls-3" x="50.6" y="38.29" width="71.25" height="80.63"/></g><g id="LWPOLYLINE-18" data-name="LWPOLYLINE"><rect class="cls-2" x="58.1" y="163.21" width="56.25" height="15"/></g><g id="LWPOLYLINE-19" data-name="LWPOLYLINE"><path class="cls-2" d="M575.09,87.17V105l5.82-.29a3.76,3.76,0,0,0,3.56-3.75V91.2a3.75,3.75,0,0,0-3.56-3.74Z"/></g><g id="LWPOLYLINE-20" data-name="LWPOLYLINE"><path class="cls-2" d="M575.09,113v17.81l5.82-.29a3.75,3.75,0,0,0,3.56-3.74V117a3.75,3.75,0,0,0-3.56-3.74Z"/></g><g id="LWPOLYLINE-21" data-name="LWPOLYLINE"><polygon class="cls-3" points="58.09 149.67 43.28 175.78 19.64 163.32 32.8 136.34 58.09 149.67"/></g><g id="LINE"><line class="cls-2" x1="54.57" y1="147.81" x2="39.75" y2="173.92"/></g><g id="LINE-2" data-name="LINE"><line class="cls-2" x1="41.83" y1="170.24" x2="25.03" y2="161.39"/></g><g id="LINE-3" data-name="LINE"><line class="cls-2" x1="23.17" y1="165.18" x2="36.32" y2="138.2"/></g><g id="CIRCLE"><path class="cls-3" d="M638.73,126.85a16.66,16.66,0,1,1-16.65,16.65,16.66,16.66,0,0,1,16.65-16.65Z"/></g><g id="LWPOLYLINE-22" data-name="LWPOLYLINE"><rect class="cls-3" x="608.37" y="30.04" width="56.25" height="15"/></g><rect class="cls-3" x="614.68" y="32.74" width="44.9" height="1.76"/></g><g id="A-FURN"><g id="LWPOLYLINE-23" data-name="LWPOLYLINE"><line class="cls-2" x1="482.58" y1="141.47" x2="482.58" y2="128.89"/></g><g id="LWPOLYLINE-24" data-name="LWPOLYLINE"><line class="cls-2" x1="470.34" y1="141.47" x2="470.34" y2="128.89"/></g><g id="LWPOLYLINE-25" data-name="LWPOLYLINE"><path class="cls-2" d="M468.49,139.79a10.57,10.57,0,0,0,14.91,1,10,10,0,0,0,1-1"/></g><g id="LWPOLYLINE-26" data-name="LWPOLYLINE"><line class="cls-2" x1="505.08" y1="141.47" x2="505.08" y2="128.89"/></g><g id="LWPOLYLINE-27" data-name="LWPOLYLINE"><line class="cls-2" x1="492.84" y1="141.47" x2="492.84" y2="128.89"/></g><g id="LWPOLYLINE-28" data-name="LWPOLYLINE"><path class="cls-2" d="M491,139.79a10.57,10.57,0,0,0,14.91,1,10,10,0,0,0,1-1"/></g><g id="LWPOLYLINE-29" data-name="LWPOLYLINE"><path class="cls-2" d="M572.86,132.87l-.29,5.74a2.34,2.34,0,0,1-2.34,2.23h-9.74a2.34,2.34,0,0,1-2.34-2.23l-.29-5.74"/></g><g id="LWPOLYLINE-30" data-name="LWPOLYLINE"><path class="cls-2" d="M558.08,84.11l.29-5.74a2.34,2.34,0,0,1,2.34-2.23h9.74a2.34,2.34,0,0,1,2.34,2.23l.29,5.74"/></g><g id="LWPOLYLINE-31" data-name="LWPOLYLINE"><path class="cls-2" d="M555.05,114.36l-5.74.28a2.36,2.36,0,0,0-2.23,2.34v9.75a2.36,2.36,0,0,0,2.23,2.34l5.74.28"/></g><g id="LWPOLYLINE-32" data-name="LWPOLYLINE"><path class="cls-2" d="M555.28,88.48l-5.74.29a2.34,2.34,0,0,0-2.23,2.34v9.74a2.34,2.34,0,0,0,2.23,2.34l5.74.29"/></g><g id="LWPOLYLINE-33" data-name="LWPOLYLINE"><path class="cls-2" d="M575.09,103.57l5.75-.29a2.34,2.34,0,0,0,2.22-2.34V91.2a2.34,2.34,0,0,0-2.22-2.34l-5.75-.28"/></g><g id="LWPOLYLINE-34" data-name="LWPOLYLINE"><path class="cls-2" d="M574.86,129.45l5.74-.29a2.34,2.34,0,0,0,2.23-2.34v-9.74a2.34,2.34,0,0,0-2.23-2.34l-5.74-.29"/></g><g id="LINE-4" data-name="LINE"><line class="cls-2" x1="640.81" y1="212.32" x2="640.81" y2="184.24"/></g><g id="LWPOLYLINE-35" data-name="LWPOLYLINE"><polyline class="cls-2" points="706.74 179.2 702.06 179.2 702.06 212.32 610.18 212.32 610.18 183.26"/></g><g id="ARC"><path class="cls-2" d="M639.87,207.83a91.8,91.8,0,0,0-28.75,0"/></g><g id="ARC-2" data-name="ARC"><path class="cls-2" d="M640.81,208.81a1.22,1.22,0,0,0-.94-1"/></g><g id="ARC-3" data-name="ARC"><path class="cls-2" d="M611.12,207.83a1.22,1.22,0,0,0-.94,1"/></g><g id="ARC-4" data-name="ARC"><path class="cls-2" d="M640.81,184.24a1.23,1.23,0,0,0-.94-1"/></g><g id="ARC-5" data-name="ARC"><path class="cls-2" d="M641.74,183.26a1.21,1.21,0,0,0-.93,1"/></g><g id="ARC-6" data-name="ARC"><path class="cls-2" d="M611.12,183.26a1.23,1.23,0,0,0-.94,1"/></g><g id="LINE-5" data-name="LINE"><line class="cls-2" x1="671.43" y1="212.32" x2="671.43" y2="183.26"/></g><g id="ARC-7" data-name="ARC"><path class="cls-2" d="M670.49,207.83a91.8,91.8,0,0,0-28.75,0"/></g><g id="ARC-8" data-name="ARC"><path class="cls-2" d="M671.43,208.81a1.21,1.21,0,0,0-.94-1"/></g><g id="ARC-9" data-name="ARC"><path class="cls-2" d="M641.74,207.83a1.19,1.19,0,0,0-.93,1"/></g><g id="LINE-6" data-name="LINE"><line class="cls-2" x1="671.43" y1="212.32" x2="671.43" y2="183.26"/></g><g id="ARC-10" data-name="ARC"><path class="cls-2" d="M671.43,208.81a1.21,1.21,0,0,0-.94-1"/></g><g id="ARC-11" data-name="ARC"><path class="cls-2" d="M701.12,207.83a91.8,91.8,0,0,0-28.75,0"/></g><g id="ARC-12" data-name="ARC"><path class="cls-2" d="M702.06,208.81a1.22,1.22,0,0,0-.94-1"/></g><g id="ARC-13" data-name="ARC"><path class="cls-2" d="M672.37,207.83a1.22,1.22,0,0,0-.94,1"/></g><g id="LINE-7" data-name="LINE"><line class="cls-2" x1="680.61" y1="115.9" x2="710.61" y2="116.88"/></g><g id="LINE-8" data-name="LINE"><line class="cls-2" x1="706.39" y1="116.75" x2="706.37" y2="135.74"/></g><g id="LINE-9" data-name="LINE"><line class="cls-2" x1="710.59" y1="135.62" x2="680.58" y2="136.52"/></g><g id="LINE-10" data-name="LINE"><line class="cls-2" x1="680.61" y1="65.19" x2="710.61" y2="66.16"/></g><g id="LINE-11" data-name="LINE"><line class="cls-2" x1="706.39" y1="66.03" x2="706.37" y2="85.03"/></g><g id="LINE-12" data-name="LINE"><line class="cls-2" x1="710.59" y1="84.91" x2="680.58" y2="85.81"/></g><g id="LINE-13" data-name="LINE"><line class="cls-2" x1="104.5" y1="309.11" x2="48.25" y2="309.11"/></g><g id="LINE-14" data-name="LINE"><line class="cls-2" x1="104.5" y1="234.11" x2="48.25" y2="234.11"/></g><g id="LINE-15" data-name="LINE"><line class="cls-2" x1="104.5" y1="286.35" x2="48.25" y2="289.34"/></g><g id="LWPOLYLINE-36" data-name="LWPOLYLINE"><rect class="cls-2" x="50.79" y="291.88" width="24.31" height="14.68"/></g><g id="LINE-16" data-name="LINE"><line class="cls-2" x1="104.5" y1="278.93" x2="48.65" y2="289.32"/></g><g id="LWPOLYLINE-37" data-name="LWPOLYLINE"><rect class="cls-2" x="77.65" y="291.88" width="24.31" height="14.68"/></g><g id="LINE-17" data-name="LINE"><line class="cls-2" x1="121.85" y1="64.65" x2="50.6" y2="60.87"/></g><g id="LWPOLYLINE-38" data-name="LWPOLYLINE"><rect class="cls-2" x="53.14" y="43.64" width="31.81" height="14.68"/></g><g id="LINE-18" data-name="LINE"><line class="cls-2" x1="121.85" y1="74.06" x2="50.99" y2="60.89"/></g><g id="LINE-19" data-name="LINE"><line class="cls-2" x1="121.85" y1="41.1" x2="50.6" y2="41.1"/></g><g id="LINE-20" data-name="LINE"><line class="cls-2" x1="121.85" y1="116.1" x2="50.6" y2="116.1"/></g><g id="LWPOLYLINE-39" data-name="LWPOLYLINE"><rect class="cls-2" x="87.49" y="43.64" width="31.81" height="14.68"/></g><g id="ARC-14" data-name="ARC"><path class="cls-2" d="M640.81,208.81a1.22,1.22,0,0,0-.94-1"/></g><g id="ARC-15" data-name="ARC"><path class="cls-2" d="M611.12,207.83a1.22,1.22,0,0,0-.94,1"/></g><g id="ARC-16" data-name="ARC"><path class="cls-2" d="M640.81,184.24a1.23,1.23,0,0,0-.94-1"/></g><g id="ARC-17" data-name="ARC"><path class="cls-2" d="M641.74,183.26a1.21,1.21,0,0,0-.93,1"/></g><g id="ARC-18" data-name="ARC"><path class="cls-2" d="M611.12,183.26a1.23,1.23,0,0,0-.94,1"/></g><g id="ARC-19" data-name="ARC"><path class="cls-2" d="M671.43,208.81a1.21,1.21,0,0,0-.94-1"/></g><g id="ARC-20" data-name="ARC"><path class="cls-2" d="M641.74,207.83a1.19,1.19,0,0,0-.93,1"/></g><g id="ARC-21" data-name="ARC"><path class="cls-2" d="M671.43,208.81a1.21,1.21,0,0,0-.94-1"/></g><g id="ARC-22" data-name="ARC"><path class="cls-2" d="M702.06,208.81a1.22,1.22,0,0,0-.94-1"/></g><g id="ARC-23" data-name="ARC"><path class="cls-2" d="M672.37,207.83a1.22,1.22,0,0,0-.94,1"/></g><g id="LWPOLYLINE-40" data-name="LWPOLYLINE"><rect class="cls-3" x="551.3" y="80.37" width="28.13" height="56.25"/></g><g id="LWPOLYLINE-41" data-name="LWPOLYLINE"><rect class="cls-3" x="32.6" y="38.29" width="15.9" height="15.94"/></g><g id="LWPOLYLINE-42" data-name="LWPOLYLINE"><rect class="cls-3" x="123.94" y="38.29" width="15.9" height="15.94"/></g><g id="CIRCLE-2" data-name="CIRCLE"><path class="cls-3" d="M697.91,100.5a5.15,5.15,0,1,1,5.15,5.15,5.14,5.14,0,0,1-5.15-5.15Z"/></g><path class="cls-4" d="M696.33,202.64s6.86-5.28,5.56-7.94-10.46,7.24-10.46,7.24-4,3.9-2,4.65S696.33,202.64,696.33,202.64Z"/><path class="cls-4" d="M685.25,200s-7.08,4.36-5.76,6.29,9.44-3.56,9.44-3.56,7.57-3.83,5.53-5.71S685.25,200,685.25,200Z"/><path class="cls-4" d="M626.56,206s-.75-3.62-8.34-5.2-7.68-1.12-8-.31,2.24,4.2,9.2,5.22S626.24,207.21,626.56,206Z"/></g><g id="A-GLAZ-SILL"><g id="LWPOLYLINE-43" data-name="LWPOLYLINE"><polyline class="cls-5" points="727.71 95.36 722.08 95.36 722.08 35.36 727.71 35.36"/></g><g id="LWPOLYLINE-44" data-name="LWPOLYLINE"><polyline class="cls-5" points="727.71 189.11 722.08 189.11 722.08 129.11 727.71 129.11"/></g><g id="LWPOLYLINE-45" data-name="LWPOLYLINE"><polyline class="cls-5" points="11.45 63.01 17.07 63.01 17.07 153.01 11.45 153.01"/></g><g id="LWPOLYLINE-46" data-name="LWPOLYLINE"><polyline class="cls-5" points="11.45 214.89 17.07 214.89 17.07 288.01 11.45 288.01"/></g><g id="LWPOLYLINE-47" data-name="LWPOLYLINE"><line class="cls-5" x1="11.45" y1="152.07" x2="6.76" y2="152.07"/><line class="cls-5" x1="6.76" y1="62.07" x2="11.45" y2="62.07"/></g></g><g id="A-GLAZ"><g id="LWPOLYLINE-48" data-name="LWPOLYLINE"><rect class="cls-6" x="730.23" y="38.17" width="1.23" height="25.66"/></g><g id="LWPOLYLINE-49" data-name="LWPOLYLINE"><rect class="cls-6" x="730.23" y="66.88" width="1.23" height="25.66"/></g><g id="LWPOLYLINE-50" data-name="LWPOLYLINE"><rect class="cls-6" x="730.23" y="131.92" width="1.23" height="25.66"/></g><g id="LWPOLYLINE-51" data-name="LWPOLYLINE"><rect class="cls-6" x="730.23" y="160.63" width="1.23" height="25.66"/></g><g id="LWPOLYLINE-52" data-name="LWPOLYLINE"><polygon class="cls-6" points="8.93 91.18 8.93 64.89 7.7 64.89 7.7 65.83 7.7 90.47 7.7 91.18 8.93 91.18"/></g><g id="LWPOLYLINE-53" data-name="LWPOLYLINE"><polygon class="cls-6" points="8.93 149.26 8.93 93.75 7.7 93.75 7.7 94.46 7.7 149.26 8.93 149.26"/></g><g id="LWPOLYLINE-54" data-name="LWPOLYLINE"><polygon class="cls-6" points="8.93 238.36 8.93 217.7 7.7 217.7 7.7 218.64 7.7 237.66 7.7 238.36 8.93 238.36"/></g><g id="LWPOLYLINE-55" data-name="LWPOLYLINE"><polygon class="cls-6" points="8.93 285.2 8.93 240.94 7.7 240.94 7.7 241.65 7.7 285.2 8.93 285.2"/></g><line class="cls-6" x1="11.45" y1="63.41" x2="11.45" y2="149.41"/><line class="cls-6" x1="11.45" y1="199.41" x2="11.45" y2="285.41"/><line class="cls-6" x1="727.69" y1="5.92" x2="727.69" y2="91.92"/><line class="cls-6" x1="727.69" y1="132.78" x2="727.69" y2="188.27"/></g><g id="A-GLAZ-MUL"><g id="LWPOLYLINE-56" data-name="LWPOLYLINE"><polygon class="cls-7" points="730.23 39.11 730.23 38.17 731.46 38.17 731.46 39.11 732.4 39.11 732.4 37.23 736.15 37.23 736.15 36.29 732.4 36.29 732.4 35.36 727.71 35.36 727.71 39.11 730.23 39.11"/></g><g id="LWPOLYLINE-57" data-name="LWPOLYLINE"><polyline class="cls-7" points="734.74 64.89 734.74 65.83 732.4 65.83 732.4 67.58 731.46 67.58 731.46 66.88 730.23 66.88 730.23 67.58 727.71 67.58 727.71 65.71 728.18 65.71 728.18 65 727.71 65 727.71 63.13 730.23 63.13 730.23 63.82 731.46 63.83 731.46 63.13 732.4 63.13 732.4 64.89 734.74 64.89"/></g><g id="LWPOLYLINE-58" data-name="LWPOLYLINE"><polygon class="cls-7" points="732.4 95.36 732.4 94.42 736.15 94.42 736.15 93.48 732.4 93.48 732.4 91.61 731.46 91.61 731.46 92.54 730.23 92.54 730.23 91.61 727.71 91.61 727.71 95.36 732.4 95.36"/></g><g id="LWPOLYLINE-59" data-name="LWPOLYLINE"><polygon class="cls-7" points="730.23 132.86 730.23 131.92 731.46 131.92 731.46 132.86 732.4 132.86 732.4 130.98 736.15 130.98 736.15 130.04 732.4 130.04 732.4 129.11 727.71 129.11 727.71 132.86 730.23 132.86"/></g><g id="LWPOLYLINE-60" data-name="LWPOLYLINE"><polyline class="cls-7" points="734.74 158.64 734.74 159.57 732.4 159.57 732.4 161.33 731.46 161.33 731.46 160.63 730.23 160.63 730.23 161.33 727.71 161.33 727.71 159.46 728.18 159.46 728.18 158.75 727.71 158.75 727.71 156.88 730.23 156.88 730.23 157.57 731.46 157.58 731.46 156.88 732.4 156.88 732.4 158.64 734.74 158.64"/></g><g id="LWPOLYLINE-61" data-name="LWPOLYLINE"><polygon class="cls-7" points="732.4 189.11 732.4 188.17 736.15 188.17 736.15 187.23 732.4 187.23 732.4 185.36 731.46 185.36 731.46 186.29 730.23 186.29 730.23 185.36 727.71 185.36 727.71 189.11 732.4 189.11"/></g><g id="LWPOLYLINE-62" data-name="LWPOLYLINE"><polygon class="cls-7" points="11.45 152.07 11.45 148.32 8.93 148.32 8.93 149.26 7.7 149.26 7.7 148.32 6.76 148.32 6.76 150.2 6.76 152.07 11.45 152.07"/></g><g id="LWPOLYLINE-63" data-name="LWPOLYLINE"><polygon class="cls-7" points="11.45 62.08 11.45 65.83 8.93 65.83 8.93 64.89 7.7 64.89 7.7 65.83 6.76 65.83 6.76 63.95 6.76 62.08 11.45 62.08"/></g><g id="LWPOLYLINE-64" data-name="LWPOLYLINE"><polygon class="cls-7" points="10.1 94.46 10.1 93.52 10.98 93.52 10.98 92.35 11.45 92.35 11.45 90.47 8.93 90.47 8.93 91.18 7.7 91.18 7.7 90.47 6.76 90.47 6.76 91.18 6.76 93.75 6.76 94.46 7.7 94.46 7.7 93.75 8.93 93.75 8.93 94.46 10.1 94.46"/></g><g id="LWPOLYLINE-65" data-name="LWPOLYLINE"><polygon class="cls-7" points="11.45 288.01 11.45 284.26 8.93 284.26 8.93 285.2 7.7 285.2 7.7 284.26 6.76 284.26 6.76 286.14 6.76 288.01 11.45 288.01"/></g><g id="LWPOLYLINE-66" data-name="LWPOLYLINE"><polygon class="cls-7" points="11.45 214.89 11.45 218.64 8.93 218.64 8.93 217.7 7.7 217.7 7.7 218.64 6.76 218.64 6.76 216.76 6.76 214.89 11.45 214.89"/></g><g id="LWPOLYLINE-67" data-name="LWPOLYLINE"><polygon class="cls-7" points="10.1 241.65 10.1 240.71 10.98 240.71 10.98 239.54 11.45 239.54 11.45 237.66 8.93 237.66 8.93 238.36 7.7 238.36 7.7 237.66 6.76 237.66 6.76 238.36 6.76 240.94 6.76 241.65 7.7 241.65 7.7 240.94 8.93 240.94 8.93 241.65 10.1 241.65"/></g></g><g id="A-OUTER_WINDOW_SILL" data-name="A-OUTER WINDOW SILL"><g id="LWPOLYLINE-68" data-name="LWPOLYLINE"><polyline class="cls-5" points="727.71 95.36 744.58 95.36 744.58 35.36 727.71 35.36"/></g><g id="LWPOLYLINE-69" data-name="LWPOLYLINE"><polyline class="cls-5" points="727.71 189.11 744.58 189.11 744.58 129.11 727.71 129.11"/></g><g id="LWPOLYLINE-70" data-name="LWPOLYLINE"><polyline class="cls-5" points="6.76 62.08 0.2 62.08 0.2 152.07 6.76 152.07"/></g><g id="LWPOLYLINE-71" data-name="LWPOLYLINE"><polyline class="cls-5" points="6.76 214.89 0.2 214.89 0.2 288.01 6.76 288.01"/></g></g><g id="A-DOOR"><g id="LWPOLYLINE-72" data-name="LWPOLYLINE"><rect class="cls-8" x="179.33" y="95.36" width="33.75" height="1.64"/></g><g id="LWPOLYLINE-73" data-name="LWPOLYLINE"><rect class="cls-8" x="279.58" y="62.9" width="1.64" height="33.75"/></g><g id="LWPOLYLINE-74" data-name="LWPOLYLINE"><rect class="cls-8" x="303.14" y="225.84" width="1.64" height="33.75"/></g><g id="LWPOLYLINE-75" data-name="LWPOLYLINE"><rect class="cls-8" x="303.14" y="276.18" width="1.64" height="33.75"/></g><g id="LWPOLYLINE-76" data-name="LWPOLYLINE"><rect class="cls-8" x="196.2" y="141.29" width="28.13" height="1.64"/></g><g id="LWPOLYLINE-77" data-name="LWPOLYLINE"><rect class="cls-8" x="168.08" y="141.29" width="28.13" height="1.64"/></g><g id="LWPOLYLINE-78" data-name="LWPOLYLINE"><rect class="cls-8" x="190.35" y="195.2" width="22.55" height="1.64"/></g><g id="LWPOLYLINE-79" data-name="LWPOLYLINE"><rect class="cls-8" x="167.9" y="195.2" width="22.45" height="1.64"/></g><g id="LWPOLYLINE-80" data-name="LWPOLYLINE"><rect class="cls-8" x="237.89" y="300.38" width="33.75" height="2.11" transform="translate(-138.53 268.43) rotate(-45)"/></g><g id="LWPOLYLINE-81" data-name="LWPOLYLINE"><rect class="cls-8" x="262.1" y="113.23" width="2.11" height="33.75" transform="translate(-14.92 224.19) rotate(-45)"/></g><g id="LWPOLYLINE-82" data-name="LWPOLYLINE"><rect class="cls-8" x="206.76" y="212.21" width="33.75" height="2.11" transform="translate(-85.3 220.6) rotate(-45)"/></g><g id="LWPOLYLINE-83" data-name="LWPOLYLINE"><rect class="cls-8" x="145.17" y="239.97" width="33.75" height="1.64"/></g><g id="LWPOLYLINE-84" data-name="LWPOLYLINE"><rect class="cls-8" x="360.68" y="196.02" width="33.75" height="1.64"/></g><g id="ARC-24" data-name="ARC"><path class="cls-8" d="M275.83,312.62a34.26,34.26,0,0,0-8.39-22.37"/></g><g id="ARC-25" data-name="ARC"><path class="cls-8" d="M250.48,118.92a34.32,34.32,0,0,0-8.4,22.37"/></g><g id="ARC-26" data-name="ARC"><path class="cls-8" d="M212.44,226a34.27,34.27,0,0,0,22.38,8.39"/></g><g id="LWPOLYLINE-85" data-name="LWPOLYLINE"><path class="cls-9" d="M727.71,93.48l-9.93-26.31a28.11,28.11,0,0,1,9.93-1.81"/></g><g id="LWPOLYLINE-86" data-name="LWPOLYLINE"><path class="cls-9" d="M727.71,37.23l-9.93,26.32a28.33,28.33,0,0,0,9.93,1.81"/></g><g id="LWPOLYLINE-87" data-name="LWPOLYLINE"><path class="cls-9" d="M727.71,187.23l-9.93-26.31a28.11,28.11,0,0,1,9.93-1.81"/></g><g id="LWPOLYLINE-88" data-name="LWPOLYLINE"><path class="cls-9" d="M727.71,131l-9.93,26.32a28.33,28.33,0,0,0,9.93,1.81"/></g></g><g id="A-BATH"><g id="LWPOLYLINE-89" data-name="LWPOLYLINE"><rect class="cls-6" x="283.1" y="108.83" width="69.37" height="34.69"/></g><g id="LWPOLYLINE-90" data-name="LWPOLYLINE"><rect class="cls-6" x="287.79" y="113.52" width="61.05" height="24.38" rx="4.69" ry="4.69"/></g><g id="CIRCLE-3" data-name="CIRCLE"><path class="cls-6" d="M293.52,123.6a2.11,2.11,0,1,1-2.11,2.11,2.1,2.1,0,0,1,2.11-2.11Z"/></g><g id="LWPOLYLINE-91" data-name="LWPOLYLINE"><rect class="cls-6" x="352.47" y="108.83" width="34.69" height="34.69"/></g><g id="LWPOLYLINE-92" data-name="LWPOLYLINE"><rect class="cls-10" x="352.36" y="108.84" width="34.83" height="0.83"/></g><g id="LWPOLYLINE-93" data-name="LWPOLYLINE"><rect class="cls-10" x="352.4" y="109.71" width="0.83" height="33.74"/></g><g id="ARC-27" data-name="ARC"><path class="cls-6" d="M379.88,126.11a3.29,3.29,0,1,1,0-.79"/></g><g id="LWPOLYLINE-94" data-name="LWPOLYLINE"><path class="cls-6" d="M376.64,125.32h10.52v.78H376.64a.4.4,0,0,1-.4-.39A.39.39,0,0,1,376.64,125.32Z"/></g><g id="ARC-28" data-name="ARC"><path class="cls-10" d="M289.9,125.31a3.25,3.25,0,1,1,0,.79"/></g><g id="LWPOLYLINE-95" data-name="LWPOLYLINE"><path class="cls-10" d="M293.14,126.1H282.61v-.78h10.53a.39.39,0,0,1,.4.39A.4.4,0,0,1,293.14,126.1Z"/></g><g id="LWPOLYLINE-96" data-name="LWPOLYLINE"><rect class="cls-6" x="203.88" y="241.02" width="30.94" height="58.72"/></g><g id="LWPOLYLINE-97" data-name="LWPOLYLINE"><path class="cls-6" d="M219.27,294.69h5.82a4.69,4.69,0,0,0,4.69-4.69V251.33a4.68,4.68,0,0,0-4.69-4.68H212.67a4.68,4.68,0,0,0-4.69,4.68V290a4.69,4.69,0,0,0,4.69,4.69h5.82"/></g><g id="ARC-29" data-name="ARC"><path class="cls-6" d="M219.33,291.51a3.65,3.65,0,1,0-.88,0"/></g><g id="LWPOLYLINE-98" data-name="LWPOLYLINE"><path class="cls-6" d="M218.49,288.3v11.43h.78V288.3a.39.39,0,1,0-.78,0Z"/></g></g><g id="A-MECH"><g id="LINE-21" data-name="LINE"><line class="cls-10" x1="337.68" y1="305.71" x2="337.68" y2="280.4"/></g><g id="LINE-22" data-name="LINE"><line class="cls-10" x1="337.68" y1="280.4" x2="309.79" y2="280.4"/></g><g id="LINE-23" data-name="LINE"><line class="cls-10" x1="309.79" y1="280.4" x2="309.79" y2="305.71"/></g><g id="LINE-24" data-name="LINE"><line class="cls-10" x1="309.79" y1="305.71" x2="337.68" y2="305.71"/></g></g><g id="A-KITCHEN_APPLIANCE" data-name="A-KITCHEN APPLIANCE"><g id="LWPOLYLINE-99" data-name="LWPOLYLINE"><polygon class="cls-6" points="421.65 147.31 398.58 147.31 398.58 35.29 515.82 35.29 515.82 57.79 421.65 57.79 421.65 147.31"/></g><g id="LWPOLYLINE-100" data-name="LWPOLYLINE"><rect class="cls-10" x="459.58" y="100.04" width="59.53" height="37.5"/></g><g id="CIRCLE-4" data-name="CIRCLE"><path class="cls-6" d="M474.66,51.73a.7.7,0,1,1-.7.69.69.69,0,0,1,.7-.69Z"/></g><g id="CIRCLE-5" data-name="CIRCLE"><path class="cls-6" d="M479,51.73a.7.7,0,1,1-.7.69.69.69,0,0,1,.7-.69Z"/></g><g id="CIRCLE-6" data-name="CIRCLE"><path class="cls-6" d="M479,48.86a.7.7,0,1,1-.7.7.69.69,0,0,1,.7-.7Z"/></g><g id="CIRCLE-7" data-name="CIRCLE"><path class="cls-6" d="M476.84,48.86a.7.7,0,1,1-.7.7.7.7,0,0,1,.7-.7Z"/></g><g id="CIRCLE-8" data-name="CIRCLE"><path class="cls-6" d="M474.66,48.86a.7.7,0,1,1-.7.7.69.69,0,0,1,.7-.7Z"/></g><g id="LWPOLYLINE-101" data-name="LWPOLYLINE"><rect class="cls-6" x="463.35" y="39.27" width="26.99" height="16.03" rx="0.38" ry="0.38"/></g><circle class="cls-6" cx="485.52" cy="43.42" r="1.32"/><path class="cls-6" d="M481.53,46.6V40.75a.55.55,0,0,1,.57-.55H489a.56.56,0,0,1,.57.55V46.6a.06.06,0,0,1,0,0h-7.89A.05.05,0,0,1,481.53,46.6Z"/><circle class="cls-6" cx="476.84" cy="43.42" r="1.32"/><path class="cls-6" d="M472.85,46.6V40.75a.55.55,0,0,1,.57-.55h6.85a.55.55,0,0,1,.56.55V46.6s0,0,0,0H472.9A.05.05,0,0,1,472.85,46.6Z"/><circle class="cls-6" cx="468.16" cy="43.42" r="1.32"/><path class="cls-6" d="M464.17,46.6V40.75a.55.55,0,0,1,.56-.55h6.86a.55.55,0,0,1,.56.55V46.6s0,0,0,0h-7.9S464.17,46.62,464.17,46.6Z"/><circle class="cls-6" cx="468.16" cy="50.99" r="1.32"/><path class="cls-6" d="M472.15,47.81v5.85a.56.56,0,0,1-.56.56h-6.86a.56.56,0,0,1-.56-.56V47.81a0,0,0,0,1,0,0h7.9A0,0,0,0,1,472.15,47.81Z"/><circle class="cls-6" cx="485.52" cy="50.99" r="1.32"/><path class="cls-6" d="M489.52,47.81v5.85a.57.57,0,0,1-.57.56H482.1a.56.56,0,0,1-.57-.56V47.81a0,0,0,0,1,.05,0h7.89S489.52,47.79,489.52,47.81Z"/><g id="LINE-25" data-name="LINE"><line class="cls-6" x1="515.44" y1="47.77" x2="514.77" y2="47.77"/><line class="cls-11" x1="513.46" y1="47.77" x2="411.49" y2="47.77"/><polyline class="cls-6" points="410.83 47.77 410.17 47.77 410.17 48.43"/><line class="cls-12" x1="410.17" y1="49.78" x2="410.17" y2="84.36"/><line class="cls-6" x1="410.17" y1="85.04" x2="410.17" y2="85.7"/></g><line class="cls-6" x1="482.58" y1="100.04" x2="482.58" y2="100.71"/><line class="cls-13" x1="482.58" y1="102.07" x2="482.58" y2="120.45"/><polyline class="cls-6" points="482.58 121.13 482.58 121.79 481.92 121.79"/><line class="cls-14" x1="480.64" y1="121.79" x2="463.36" y2="121.79"/><polyline class="cls-6" points="462.72 121.79 462.06 121.79 462.06 121.13"/><line class="cls-13" x1="462.06" y1="119.77" x2="462.06" y2="101.39"/><line class="cls-6" x1="462.06" y1="100.71" x2="462.06" y2="100.04"/><g id="LWPOLYLINE-102" data-name="LWPOLYLINE"><polyline class="cls-6" points="508.54 114.24 508.54 102.24 486.04 102.24 486.04 114.24 508.54 114.24"/></g><rect class="cls-10" x="494.77" y="115.2" width="2.74" height="1.15"/><path class="cls-10" d="M498.12,115.32a.87.87,0,0,0-.27-.27v-5.77a.41.41,0,0,0-.41-.42.42.42,0,0,0-.42.42v5.77a.8.8,0,0,0-.26,1.1.8.8,0,0,0,1.36-.83Z"/><line class="cls-6" x1="398.58" y1="85.7" x2="421.65" y2="85.7"/><line class="cls-6" x1="421.69" y1="121.85" x2="397.02" y2="121.85"/></g><g id="A-ABOVE"><g id="LWPOLYLINE-103" data-name="LWPOLYLINE"><line class="cls-15" x1="162.16" y1="182.07" x2="218.64" y2="182.07"/></g><g id="LWPOLYLINE-104" data-name="LWPOLYLINE"><line class="cls-15" x1="158.88" y1="156.06" x2="234.82" y2="156.06"/></g><g id="LWPOLYLINE-105" data-name="LWPOLYLINE"><polyline class="cls-15" points="168.4 95.36 168.72 49.54 223.57 49.54 223.57 95.36"/></g><g id="LWPOLYLINE-106" data-name="LWPOLYLINE"><line class="cls-15" x1="317.9" y1="263.29" x2="317.9" y2="222.15"/></g><g id="LWPOLYLINE-107" data-name="LWPOLYLINE"><polyline class="cls-9" points="459.58 128.17 512.08 128.17 512.08 100.04"/></g></g><g id="A-HANGER"><g id="LINE-26" data-name="LINE"><line class="cls-7" x1="214.69" y1="175.55" x2="214.69" y2="188.6"/></g><g id="LINE-27" data-name="LINE"><line class="cls-7" x1="212.27" y1="175.55" x2="212.27" y2="188.6"/></g><g id="LINE-28" data-name="LINE"><line class="cls-7" x1="209.85" y1="175.55" x2="209.85" y2="188.6"/></g><g id="LINE-29" data-name="LINE"><line class="cls-7" x1="207.43" y1="175.55" x2="207.43" y2="188.6"/></g><g id="LINE-30" data-name="LINE"><line class="cls-7" x1="205.01" y1="175.55" x2="205.01" y2="188.6"/></g><g id="LINE-31" data-name="LINE"><line class="cls-7" x1="202.59" y1="188.6" x2="202.59" y2="175.55"/></g><g id="LINE-32" data-name="LINE"><line class="cls-7" x1="230.87" y1="149.53" x2="230.87" y2="162.59"/></g><g id="LINE-33" data-name="LINE"><line class="cls-7" x1="228.45" y1="149.53" x2="228.45" y2="162.59"/></g><g id="LINE-34" data-name="LINE"><line class="cls-7" x1="226.03" y1="149.53" x2="226.03" y2="162.59"/></g><g id="LINE-35" data-name="LINE"><line class="cls-7" x1="223.61" y1="149.53" x2="223.61" y2="162.59"/></g><g id="LINE-36" data-name="LINE"><line class="cls-7" x1="221.19" y1="149.53" x2="221.19" y2="162.59"/></g><g id="LINE-37" data-name="LINE"><line class="cls-7" x1="218.78" y1="162.59" x2="218.78" y2="149.53"/></g><g id="LINE-38" data-name="LINE"><line class="cls-7" x1="172.66" y1="43.01" x2="172.66" y2="56.06"/></g><g id="LINE-39" data-name="LINE"><line class="cls-7" x1="175.08" y1="43.01" x2="175.08" y2="56.06"/></g><g id="LINE-40" data-name="LINE"><line class="cls-7" x1="177.5" y1="43.01" x2="177.5" y2="56.06"/></g><g id="LINE-41" data-name="LINE"><line class="cls-7" x1="179.92" y1="43.01" x2="179.92" y2="56.06"/></g><g id="LINE-42" data-name="LINE"><line class="cls-7" x1="182.34" y1="43.01" x2="182.34" y2="56.06"/></g><g id="LINE-43" data-name="LINE"><line class="cls-7" x1="184.76" y1="56.06" x2="184.76" y2="43.01"/></g><g id="LINE-44" data-name="LINE"><line class="cls-7" x1="230.1" y1="91.41" x2="217.04" y2="91.41"/></g><g id="LINE-45" data-name="LINE"><line class="cls-7" x1="230.1" y1="88.99" x2="217.04" y2="88.99"/></g><g id="LINE-46" data-name="LINE"><line class="cls-7" x1="230.1" y1="86.57" x2="217.04" y2="86.57"/></g><g id="LINE-47" data-name="LINE"><line class="cls-7" x1="230.1" y1="84.15" x2="217.04" y2="84.15"/></g><g id="LINE-48" data-name="LINE"><line class="cls-7" x1="230.1" y1="81.73" x2="217.04" y2="81.73"/></g><g id="LINE-49" data-name="LINE"><line class="cls-7" x1="217.04" y1="79.31" x2="230.1" y2="79.31"/></g><g id="LINE-50" data-name="LINE"><line class="cls-7" x1="174.93" y1="91.41" x2="161.87" y2="91.41"/></g><g id="LINE-51" data-name="LINE"><line class="cls-7" x1="174.93" y1="88.99" x2="161.87" y2="88.99"/></g><g id="LINE-52" data-name="LINE"><line class="cls-7" x1="174.93" y1="86.57" x2="161.87" y2="86.57"/></g><g id="LINE-53" data-name="LINE"><line class="cls-7" x1="174.93" y1="84.15" x2="161.87" y2="84.15"/></g><g id="LINE-54" data-name="LINE"><line class="cls-7" x1="174.93" y1="81.73" x2="161.87" y2="81.73"/></g><g id="LINE-55" data-name="LINE"><line class="cls-7" x1="161.87" y1="79.31" x2="174.93" y2="79.31"/></g><g id="LINE-56" data-name="LINE"><line class="cls-7" x1="311.38" y1="226.1" x2="324.43" y2="226.1"/></g><g id="LINE-57" data-name="LINE"><line class="cls-7" x1="311.38" y1="228.52" x2="324.43" y2="228.52"/></g><g id="LINE-58" data-name="LINE"><line class="cls-7" x1="311.38" y1="230.94" x2="324.43" y2="230.94"/></g><g id="LINE-59" data-name="LINE"><line class="cls-7" x1="311.38" y1="233.36" x2="324.43" y2="233.36"/></g><g id="LINE-60" data-name="LINE"><line class="cls-7" x1="311.38" y1="235.78" x2="324.43" y2="235.78"/></g><g id="LINE-61" data-name="LINE"><line class="cls-7" x1="324.43" y1="238.2" x2="311.38" y2="238.2"/></g></g><g id="FAUCETS"><g id="LWPOLYLINE-108" data-name="LWPOLYLINE"><rect class="cls-10" x="336.61" y="242.8" width="26.49" height="20.34"/></g><g id="LWPOLYLINE-109" data-name="LWPOLYLINE"><path class="cls-10" d="M357.89,246.78a1.14,1.14,0,0,0-1.13-1.14H343a1.14,1.14,0,0,0-1.14,1.14V257a1,1,0,0,0,.95.95H357a1,1,0,0,0,.94-.95Z"/></g><g id="ARC-30" data-name="ARC"><path class="cls-10" d="M373.35,246.19c-.36,3.24-1,11.81-1,11.81"/></g><g id="ARC-31" data-name="ARC"><path class="cls-10" d="M384.89,253.71a.87.87,0,0,0,.79-.53c.15-.36.28-.72.41-1.09a14.59,14.59,0,0,0,.65-3c.06-.54.11-1.09.14-1.63a16.48,16.48,0,0,0-.35-4.26,10.31,10.31,0,0,0-3.15-5.44,4.93,4.93,0,0,0-6.69.06,10.44,10.44,0,0,0-3,5.5,16.11,16.11,0,0,0-.27,4.27c0,.54.09,1.09.16,1.63a15.33,15.33,0,0,0,.72,3c.13.36.27.72.43,1.07a.86.86,0,0,0,.8.52Z"/></g><g id="ARC-32" data-name="ARC"><path class="cls-10" d="M386.89,246.06c.42,3.23,1,11.94,1,11.94"/></g><g id="ARC-33" data-name="ARC"><path class="cls-10" d="M372.32,257.85a1.12,1.12,0,0,1,1-1.06,56.76,56.76,0,0,1,13.62,0,1.11,1.11,0,0,1,1,1.06v0c.06,1.17.1,2.33.13,3.5a1.52,1.52,0,0,1-1.37,1.53q-3.27.28-6.56.28c-2.18,0-4.37-.09-6.55-.28a1.5,1.5,0,0,1-1.37-1.53c0-1.17.07-2.33.12-3.5Z"/></g><g id="ARC-34" data-name="ARC"><path class="cls-10" d="M349.37,259.35a1.19,1.19,0,1,0,1,0Z"/></g><g id="ARC-35" data-name="ARC"><path class="cls-10" d="M343.91,260.68a1.19,1.19,0,1,0,0-.48Z"/></g><g id="ARC-36" data-name="ARC"><path class="cls-10" d="M355.79,260.68a1.19,1.19,0,1,1,0-.48Z"/></g><g id="LINE-62" data-name="LINE"><path class="cls-10" d="M349.37,254.72v5.72a.48.48,0,1,0,1,0v-5.72a.48.48,0,0,0-1,0Z"/></g><line class="cls-10" x1="345.09" y1="260.44" x2="341.74" y2="260.44"/><line class="cls-10" x1="357.96" y1="260.44" x2="354.61" y2="260.44"/><g id="ARC-37" data-name="ARC"><path class="cls-10" d="M362.6,53.61c-.33-3-1-11-1-11"/></g><g id="ARC-38" data-name="ARC"><path class="cls-10" d="M373.31,46.64a.8.8,0,0,1,.73.49c.14.33.26.67.37,1a13.14,13.14,0,0,1,.61,2.78c.06.5.1,1,.13,1.51a14.64,14.64,0,0,1-.33,4,9.56,9.56,0,0,1-2.91,5,4.55,4.55,0,0,1-6.2-.06,9.6,9.6,0,0,1-2.82-5.1,15,15,0,0,1-.25-4c0-.5.09-1,.15-1.51a14,14,0,0,1,.67-2.77c.12-.34.25-.67.39-1a.82.82,0,0,1,.75-.48Z"/></g><g id="ARC-39" data-name="ARC"><path class="cls-10" d="M375.16,53.73c.39-3,1-11.07,1-11.07"/></g><g id="ARC-40" data-name="ARC"><path class="cls-10" d="M361.65,42.8a1,1,0,0,0,.92,1,51.42,51.42,0,0,0,6.32.38,51.14,51.14,0,0,0,6.31-.38,1,1,0,0,0,.92-1v0c.05-1.08.09-2.17.12-3.25A1.4,1.4,0,0,0,375,38.15c-2-.17-4-.26-6.07-.26s-4.06.09-6.08.26a1.38,1.38,0,0,0-1.27,1.42c0,1.08.06,2.17.11,3.25Z"/></g><g id="LWPOLYLINE-110" data-name="LWPOLYLINE"><path class="cls-6" d="M332.69,44h7.89a.87.87,0,0,1,.88.88V55.44a.87.87,0,0,1-.88.87H323.91a.87.87,0,0,1-.87-.87V44.91a.87.87,0,0,1,.87-.88h8.78Z"/></g><g id="ARC-41" data-name="ARC"><path class="cls-10" d="M331.8,41.85a1.12,1.12,0,0,1-.66-1,1.11,1.11,0,1,1,1.55,1Z"/></g><g id="ARC-42" data-name="ARC"><path class="cls-10" d="M326.74,40.61a1.11,1.11,0,1,1,0,.44Z"/></g><g id="ARC-43" data-name="ARC"><path class="cls-10" d="M337.75,40.61a1.11,1.11,0,0,0-2.19.22,1.11,1.11,0,0,0,1.11,1.11,1.09,1.09,0,0,0,1.08-.89Z"/></g><g id="LINE-63" data-name="LINE"><path class="cls-10" d="M331.8,46.14V40.83a.45.45,0,0,1,.89,0v5.31a.45.45,0,0,1-.89,0Z"/></g><line class="cls-10" x1="327.83" y1="40.83" x2="324.73" y2="40.83"/><line class="cls-10" x1="339.77" y1="40.83" x2="336.66" y2="40.83"/><g id="LWPOLYLINE-111" data-name="LWPOLYLINE"><path class="cls-6" d="M306.38,44h7.9a.87.87,0,0,1,.87.88V55.44a.87.87,0,0,1-.87.87H297.61a.88.88,0,0,1-.88-.87V44.91a.88.88,0,0,1,.88-.88h8.77Z"/></g><g id="LWPOLYLINE-112" data-name="LWPOLYLINE"><rect class="cls-6" x="289.93" y="37.89" width="63.16" height="21.05"/></g><g id="ARC-44" data-name="ARC"><path class="cls-10" d="M305.28,41.85a1.12,1.12,0,0,1-.66-1,1.1,1.1,0,0,1,1.1-1.1,1.11,1.11,0,0,1,.45,2.12Z"/></g><g id="ARC-45" data-name="ARC"><path class="cls-10" d="M300.22,40.61a1.11,1.11,0,1,1,0,.44Z"/></g><g id="ARC-46" data-name="ARC"><path class="cls-10" d="M311.23,40.61a1.11,1.11,0,1,0,0,.44Z"/></g><g id="LINE-64" data-name="LINE"><path class="cls-10" d="M305.28,46.14V40.83a.45.45,0,0,1,.89,0v5.31a.45.45,0,0,1-.89,0Z"/></g><line class="cls-10" x1="301.31" y1="40.83" x2="298.2" y2="40.83"/><line class="cls-10" x1="313.24" y1="40.83" x2="310.14" y2="40.83"/><g id="LWPOLYLINE-113" data-name="LWPOLYLINE"><rect class="cls-10" x="170.23" y="285.84" width="25.22" height="19.37"/></g><g id="LWPOLYLINE-114" data-name="LWPOLYLINE"><path class="cls-10" d="M175.19,289.62a1.08,1.08,0,0,1,1.08-1.08h13.15a1.08,1.08,0,0,1,1.08,1.08v9.73a.9.9,0,0,1-.9.91H176.09a.9.9,0,0,1-.9-.91Z"/></g><g id="ARC-47" data-name="ARC"><path class="cls-10" d="M160.47,289.07c.34,3.08,1,11.24,1,11.24"/></g><g id="ARC-48" data-name="ARC"><path class="cls-10" d="M149.48,296.23a.83.83,0,0,1-.75-.51c-.15-.34-.27-.68-.39-1a14.06,14.06,0,0,1-.63-2.86c-.06-.52-.1-1-.13-1.55a15.35,15.35,0,0,1,.34-4.06,9.84,9.84,0,0,1,3-5.18,4.68,4.68,0,0,1,6.37.06,9.81,9.81,0,0,1,2.9,5.24,15.34,15.34,0,0,1,.25,4.06c0,.52-.09,1-.16,1.55a14.78,14.78,0,0,1-.68,2.85c-.12.34-.26.69-.41,1a.81.81,0,0,1-.76.49Z"/></g><g id="ARC-49" data-name="ARC"><path class="cls-10" d="M147.57,288.94c-.4,3.08-1,11.37-1,11.37"/></g><g id="ARC-50" data-name="ARC"><path class="cls-10" d="M161.44,300.17a1.06,1.06,0,0,0-.94-1,54.11,54.11,0,0,0-13,0,1.06,1.06,0,0,0-.94,1v0c-.05,1.11-.09,2.23-.12,3.34a1.42,1.42,0,0,0,1.31,1.45q3.1.27,6.24.27t6.24-.27a1.42,1.42,0,0,0,1.3-1.45c0-1.11-.06-2.23-.12-3.34Z"/></g><g id="ARC-51" data-name="ARC"><path class="cls-10" d="M183.3,301.6a1.14,1.14,0,1,1-.91,0Z"/></g><g id="ARC-52" data-name="ARC"><path class="cls-10" d="M188.5,302.87a1.14,1.14,0,1,1,0-.46Z"/></g><g id="ARC-53" data-name="ARC"><path class="cls-10" d="M177.19,302.87a1.14,1.14,0,1,0,0-.46Z"/></g><g id="LINE-65" data-name="LINE"><path class="cls-10" d="M183.3,297.19v5.45a.46.46,0,0,1-.91,0v-5.45a.46.46,0,1,1,.91,0Z"/></g><line class="cls-10" x1="187.38" y1="302.64" x2="190.57" y2="302.64"/><line class="cls-10" x1="175.12" y1="302.64" x2="178.31" y2="302.64"/></g><g id="A-WALL"><g id="LWPOLYLINE-115" data-name="LWPOLYLINE"><polygon class="cls-16" points="0.2 288.01 0.2 291.76 2.08 291.76 2.08 321.19 83.06 321.16 83.06 321.18 144.12 321.18 239.15 321.18 239.15 318.36 242.08 318.36 242.08 312.62 238.33 312.62 238.33 234.34 234.82 234.34 234.82 238.09 178.92 238.09 178.92 241.61 234.82 241.61 234.82 299.73 202.94 299.73 202.94 305.36 139.19 305.36 139.19 241.61 145.17 241.61 145.17 238.09 139.19 238.09 139.19 234.34 135.68 234.34 135.68 311.92 17.07 311.92 17.07 288.01 9.23 288.01 0.2 288.01"/></g><g id="LWPOLYLINE-116" data-name="LWPOLYLINE"><polygon class="cls-16" points="0.2 211.14 0.2 214.89 38.76 214.89 38.76 183.95 135.68 183.95 135.68 199.18 139.19 199.18 139.19 196.84 167.9 196.84 167.9 193.32 162.16 193.32 162.16 170.82 218.64 170.82 218.64 193.32 212.9 193.32 212.9 196.84 234.82 196.84 234.82 200.59 238.33 200.59 238.33 149.26 242.08 149.26 242.08 141.29 224.33 141.29 224.33 144.81 234.82 144.81 234.82 167.31 158.88 167.31 158.88 144.81 168.08 144.81 168.08 141.29 158.88 141.29 158.88 137.54 155.37 137.54 155.37 167.31 135.68 167.31 135.68 178.21 17.07 178.21 17.07 153.01 11.45 153.01 11.45 152.07 0.2 152.07 0.2 155.82 2.08 155.82 2.08 211.14 0.2 211.14"/></g><g id="LWPOLYLINE-117" data-name="LWPOLYLINE"><polygon class="cls-16" points="0.2 58.33 0.2 62.08 11.45 62.08 11.45 63.01 17.07 63.01 17.07 38.29 155.37 38.29 155.37 103.79 158.88 103.79 158.88 98.87 179.33 98.87 179.33 95.36 158.88 95.36 158.88 38.29 234.82 38.29 234.82 95.36 213.08 95.36 213.08 98.87 238.33 98.87 238.33 55.98 279.58 55.98 279.58 62.9 283.1 62.9 283.1 37.7 387.16 37.7 387.16 143.52 283.1 143.52 283.1 96.64 279.58 96.64 279.58 141.29 275.83 141.29 275.83 149.26 422.08 149.26 422.08 145.75 398.65 145.75 398.65 35.36 515.6 35.36 515.6 58.79 519.12 58.79 519.12 30.32 709.78 30.32 709.78 35.36 744.58 35.36 744.58 31.61 742.38 30.43 740.4 28.9 738.71 27.07 737.33 24.98 736.33 22.69 735.71 20.27 735.5 17.78 735.71 15.29 736.33 12.87 737.33 10.58 738.71 8.49 740.4 6.66 742.38 5.13 744.58 3.95 744.58 0.2 530.37 0.2 530.37 4.42 273.96 4.42 273.96 9.57 2.08 9.57 2.08 58.33 0.2 58.33"/></g><g id="LWPOLYLINE-118" data-name="LWPOLYLINE"><polygon class="cls-16" points="275.83 318.36 289.78 318.36 289.78 321.18 305.83 321.18 305.83 321.2 343.57 321.16 343.57 276.76 401.05 276.76 401.05 219.87 464.8 219.87 482.67 219.87 744.58 219.87 744.58 219.11 742.38 217.86 740.43 216.24 738.79 214.31 737.52 212.12 736.64 209.74 736.2 207.25 736.2 204.72 736.64 202.22 737.52 199.84 738.79 197.65 740.43 195.72 742.38 194.11 744.58 192.86 744.58 189.11 709.78 189.11 709.78 217 586.73 217 586.73 190.86 394.43 190.86 394.43 197.66 398.18 197.66 398.18 263.29 332.67 263.29 332.67 197.66 360.68 197.66 360.68 190.86 303.14 190.86 303.14 225.84 306.65 225.84 306.65 222.15 329.15 222.15 329.15 263.29 306.65 263.29 306.65 259.59 303.14 259.59 303.14 276.18 306.65 276.18 306.65 273.48 339.58 273.48 339.58 315.43 306.65 315.43 306.65 309.93 303.14 309.93 303.14 312.62 275.83 312.62 275.83 318.36"/></g><g id="LWPOLYLINE-119" data-name="LWPOLYLINE"><polygon class="cls-16" points="722.08 121.59 722.08 129.11 744.58 129.11 744.58 125.36 742.38 124.11 740.43 122.49 738.79 120.56 737.52 118.37 736.64 115.99 736.2 113.5 736.2 110.97 736.64 108.47 737.52 106.09 738.79 103.9 740.43 101.97 742.38 100.36 744.58 99.11 744.58 95.36 722.08 95.36 722.08 121.59"/></g></g><g id="LABELS"><text class="cls-17" transform="translate(77.78 134.15)"><tspan class="cls-18">M<tspan class="cls-19" x="7.4" y="0">A</tspan><tspan class="cls-20" x="12.71" y="0">S</tspan><tspan class="cls-21" x="18.01" y="0">T</tspan><tspan class="cls-22" x="23.22" y="0">E</tspan><tspan class="cls-23" x="28.17" y="0">R </tspan></tspan><tspan class="cls-24"><tspan x="-2.51" y="8.5">B</tspan><tspan class="cls-22" x="3.11" y="8.5">E</tspan><tspan class="cls-25" x="8.06" y="8.5">D</tspan><tspan class="cls-26" x="13.85" y="8.5">RO</tspan><tspan class="cls-27" x="25.4" y="8.5">O</tspan><tspan class="cls-20" x="31.42" y="8.5">M</tspan></tspan><tspan class="cls-28" x="-9.26" y="17">1</tspan><tspan class="cls-29" x="-5.84" y="17">2</tspan><tspan x="-0.5" y="17">&apos;</tspan><tspan class="cls-30" x="1.54" y="17">-</tspan><tspan class="cls-31" x="4.99" y="17">5</tspan><tspan class="cls-32" x="9.96" y="17">&quot;</tspan><tspan class="cls-33" x="13.54" y="17"> </tspan><tspan class="cls-34" x="15.54" y="17">×</tspan><tspan class="cls-33" x="20.04" y="17"> </tspan><tspan class="cls-28" x="22.04" y="17">1</tspan><tspan class="cls-29" x="25.46" y="17">2</tspan><tspan class="cls-35" x="30.8" y="17">&apos;</tspan><tspan class="cls-36" x="33.12" y="17">-</tspan><tspan class="cls-37" x="36.63" y="17">9</tspan><tspan class="cls-20" x="41.85" y="17">&quot;</tspan></text><text class="cls-38" transform="translate(173.93 69.89)">D<tspan class="cls-39" x="6.11" y="0">R</tspan><tspan class="cls-40" x="11.87" y="0">E</tspan><tspan class="cls-41" x="17.12" y="0">S</tspan><tspan class="cls-42" x="22.95" y="0">S</tspan><tspan class="cls-43" x="28.67" y="0">I</tspan><tspan x="31.55" y="0">N</tspan><tspan class="cls-44" x="37.83" y="0">G</tspan><tspan class="cls-45"><tspan x="8.87" y="8.5">RO</tspan><tspan class="cls-46" x="21.07" y="8.5">O</tspan><tspan class="cls-47" x="27.41" y="8.5">M</tspan></tspan></text><text class="cls-48" transform="translate(52.07 214.89)">B<tspan class="cls-22" x="5.62" y="0">E</tspan><tspan class="cls-25" x="10.58" y="0">D</tspan><tspan class="cls-26" x="16.36" y="0">RO</tspan><tspan class="cls-27" x="27.92" y="0">O</tspan><tspan class="cls-20" x="33.94" y="0">M 2</tspan><tspan class="cls-49"><tspan x="-1.07" y="8.5">1</tspan><tspan class="cls-50" x="2.36" y="8.5">1</tspan><tspan class="cls-51" x="5.79" y="8.5">&apos;</tspan><tspan class="cls-52" x="7.83" y="8.5">-</tspan><tspan class="cls-53" x="11.29" y="8.5">4</tspan><tspan class="cls-23" x="16.17" y="8.5">&quot;</tspan><tspan class="cls-33" x="19.75" y="8.5"> </tspan><tspan class="cls-34" x="21.75" y="8.5">×</tspan><tspan class="cls-33" x="26.25" y="8.5"> </tspan><tspan x="28.25" y="8.5">1</tspan><tspan class="cls-50" x="31.69" y="8.5">1</tspan><tspan class="cls-35" x="35.11" y="8.5">&apos;</tspan><tspan class="cls-54" x="37.43" y="8.5">-</tspan><tspan class="cls-55" x="41.01" y="8.5">0</tspan><tspan class="cls-32" x="46.59" y="8.5">&quot;</tspan></tspan></text><text class="cls-17" transform="translate(596.24 106.62)"><tspan class="cls-21">L<tspan class="cls-36" x="4.65" y="0">I</tspan><tspan class="cls-56" x="7.29" y="0">V</tspan><tspan class="cls-57" x="12.73" y="0">I</tspan><tspan class="cls-27" x="15.29" y="0">N</tspan><tspan class="cls-20" x="21.25" y="0">G / </tspan><tspan class="cls-58" x="36.27" y="0">D</tspan><tspan class="cls-57" x="42.07" y="0">I</tspan><tspan class="cls-59" x="44.64" y="0">N</tspan><tspan class="cls-60" x="50.56" y="0">I</tspan><tspan class="cls-27" x="53.13" y="0">N</tspan><tspan class="cls-20" x="59.08" y="0">G </tspan><tspan class="cls-61" x="67.43" y="0">RO</tspan><tspan class="cls-27" x="78.98" y="0">O</tspan><tspan class="cls-20" x="85" y="0">M</tspan></tspan><tspan class="cls-20" x="19.14" y="8.5">1</tspan><tspan class="cls-62" x="22.62" y="8.5">6</tspan><tspan x="28.06" y="8.5">&apos;</tspan><tspan class="cls-63" x="30.1" y="8.5">-</tspan><tspan class="cls-64" x="32.87" y="8.5">7</tspan><tspan class="cls-20" x="37.55" y="8.5">&quot;</tspan><tspan class="cls-65" x="41.13" y="8.5"> </tspan><tspan class="cls-66" x="43.12" y="8.5">×</tspan><tspan class="cls-65" x="47.63" y="8.5"> </tspan><tspan class="cls-67" x="49.63" y="8.5">1</tspan><tspan class="cls-68" x="53.17" y="8.5">8</tspan><tspan class="cls-35" x="58.2" y="8.5">&apos;</tspan><tspan class="cls-69" x="60.52" y="8.5">-</tspan><tspan class="cls-70" x="64.1" y="8.5">6</tspan><tspan class="cls-20" x="69.54" y="8.5">&quot;</tspan></text><text class="cls-71" transform="translate(258.12 263.07)">F<tspan class="cls-72" x="5.25" y="0">O</tspan><tspan class="cls-73" x="11.36" y="0">Y</tspan><tspan class="cls-74" x="16.9" y="0">E</tspan><tspan class="cls-44" x="22.17" y="0">R</tspan></text><text class="cls-75" transform="translate(315.57 295.05)">W<tspan class="cls-76" x="7.41" y="0">/</tspan><tspan class="cls-44" x="11.84" y="0">D</tspan></text><text class="cls-77" transform="translate(407.68 106.65)">R</text><text class="cls-78" transform="translate(406.74 136.62)">W</text><text class="cls-79" transform="translate(466.05 114.11)">D<tspan class="cls-34" x="5.45" y="0">W</tspan></text><polygon class="cls-80" points="255.41 337.68 260.81 323.28 266.2 337.68 255.41 337.68"/></g></g></svg>