<svg xmlns="http://www.w3.org/2000/svg" viewBox="0 0 592.26 303.39"><defs><style>.cls-1,.cls-11,.cls-12,.cls-13,.cls-15,.cls-3,.cls-6,.cls-7,.cls-8,.cls-9{fill:none;}.cls-1,.cls-10,.cls-11,.cls-12,.cls-13,.cls-14,.cls-15,.cls-2,.cls-3,.cls-4,.cls-5,.cls-6,.cls-7,.cls-8,.cls-9{stroke:#fff;}.cls-1,.cls-10,.cls-11,.cls-12,.cls-13,.cls-2,.cls-3,.cls-4,.cls-6,.cls-7,.cls-9{stroke-linecap:round;stroke-linejoin:round;}.cls-1,.cls-10,.cls-11,.cls-12,.cls-13,.cls-7,.cls-8{stroke-width:0.25px;}.cls-1{stroke-dasharray:1.32 1.32;}.cls-10,.cls-2,.cls-4,.cls-5{fill:#b5c1c0;}.cls-2{stroke-width:0.15px;}.cls-3,.cls-4,.cls-5{stroke-width:0.15px;}.cls-14,.cls-15,.cls-5,.cls-8{stroke-miterlimit:10;}.cls-14,.cls-15,.cls-6{stroke-width:0.4px;}.cls-9{stroke-width:0.2px;}.cls-11{stroke-dasharray:1.99 1.99;}.cls-12{stroke-dasharray:2.03 2.03;}.cls-13{stroke-dasharray:2 2;}.cls-14{fill:#e1e5e5;}.cls-16,.cls-52,.cls-57,.cls-59,.cls-63,.cls-64{font-size:8px;font-family:MaisonNeue-Book, Maison Neue;}.cls-16,.cls-52,.cls-57,.cls-59,.cls-63,.cls-64,.cls-65{fill:#fff;}.cls-17{letter-spacing:0.08em;}.cls-18{letter-spacing:0.07em;}.cls-19{letter-spacing:0.06em;}.cls-20{letter-spacing:0.06em;}.cls-21{letter-spacing:0.06em;}.cls-22{letter-spacing:0.06em;}.cls-23{letter-spacing:0.07em;}.cls-24{letter-spacing:0.07em;}.cls-25{letter-spacing:0.08em;}.cls-26{letter-spacing:0.07em;}.cls-27{letter-spacing:0.05em;}.cls-28{letter-spacing:0.07em;}.cls-29{letter-spacing:0.07em;}.cls-30{letter-spacing:0.03em;}.cls-31{letter-spacing:0.06em;}.cls-32{letter-spacing:-0.02em;}.cls-33{letter-spacing:0.02em;}.cls-34{letter-spacing:0.03em;}.cls-35{letter-spacing:0.07em;}.cls-36{letter-spacing:0.06em;}.cls-37{letter-spacing:0.06em;}.cls-38{letter-spacing:0.06em;}.cls-39{letter-spacing:-0.02em;}.cls-40{letter-spacing:0.02em;}.cls-41{letter-spacing:0.06em;}.cls-42{letter-spacing:0.08em;}.cls-43{letter-spacing:0.08em;}.cls-44{letter-spacing:0.07em;}.cls-45{letter-spacing:0.07em;}.cls-46{letter-spacing:0.07em;}.cls-47{letter-spacing:0.07em;}.cls-48{letter-spacing:0.08em;}.cls-49{letter-spacing:0.05em;}.cls-50{letter-spacing:0.04em;}.cls-51{letter-spacing:0.07em;}.cls-52{letter-spacing:0.1em;}.cls-53{letter-spacing:0.08em;}.cls-54{letter-spacing:0.12em;}.cls-55{letter-spacing:0.1em;}.cls-56,.cls-63{letter-spacing:0.1em;}.cls-57{letter-spacing:0.08em;}.cls-58{letter-spacing:0.11em;}.cls-59{letter-spacing:0.01em;}.cls-60{letter-spacing:0.02em;}.cls-61{letter-spacing:0.04em;}.cls-62{letter-spacing:0.02em;}.cls-64{letter-spacing:0.11em;}</style></defs><title>Asset 1</title><g id="Layer_2" data-name="Layer 2"><g id="A-JULIET"><g id="LWPOLYLINE"><path class="cls-1" d="M247.29,17.22,215.58,28.76a33.64,33.64,0,0,1-2-11.54,33.64,33.64,0,0,1-2,11.54L179.79,17.22"/></g><g id="LWPOLYLINE-2" data-name="LWPOLYLINE"><path class="cls-1" d="M393.66,17.22,361.94,28.76a33.87,33.87,0,0,1-2-11.54,33.64,33.64,0,0,1-2,11.54L326.16,17.22"/></g></g><g id="A-RUG"><g id="LWPOLYLINE-3" data-name="LWPOLYLINE"><rect class="cls-2" x="17.37" y="27.02" width="95.82" height="123.22"/></g><g id="LWPOLYLINE-4" data-name="LWPOLYLINE"><rect class="cls-2" x="314.33" y="36.43" width="122.06" height="124.17"/></g><g id="LWPOLYLINE-5" data-name="LWPOLYLINE"><rect class="cls-2" x="17.37" y="27.02" width="95.82" height="123.22"/></g><g id="LWPOLYLINE-6" data-name="LWPOLYLINE"><rect class="cls-2" x="309.77" y="36.43" width="126.61" height="124.17"/></g></g><g id="A-FURN-MASK"><g id="LWPOLYLINE-7" data-name="LWPOLYLINE"><rect class="cls-3" x="136.65" y="53.08" width="15" height="64.38"/></g><g id="LWPOLYLINE-8" data-name="LWPOLYLINE"><rect class="cls-3" x="363.87" y="77" width="41.5" height="45.74"/></g><g id="LWPOLYLINE-9" data-name="LWPOLYLINE"><rect class="cls-4" x="307.54" y="57.68" width="33.75" height="84.38"/></g><g id="LWPOLYLINE-10" data-name="LWPOLYLINE"><rect class="cls-4" x="360.45" y="152.59" width="53.44" height="16.87" rx="1.88" ry="1.88"/></g><g id="LWPOLYLINE-11" data-name="LWPOLYLINE"><polygon class="cls-4" points="417.45 59.9 416.51 29.9 389.79 29.9 388.86 59.9 417.45 59.9"/></g><g id="CIRCLE"><path class="cls-4" d="M420.63,38.3a5.49,5.49,0,1,1,5.49,5.49,5.49,5.49,0,0,1-5.49-5.49Z"/></g><g id="LWPOLYLINE-12" data-name="LWPOLYLINE"><polygon class="cls-4" points="352 59.9 352.94 29.9 379.66 29.9 380.6 59.9 352 59.9"/></g><g id="LWPOLYLINE-13" data-name="LWPOLYLINE"><rect class="cls-4" x="314.11" y="30.8" width="20.15" height="20.46"/></g><g id="LWPOLYLINE-14" data-name="LWPOLYLINE"><rect class="cls-4" x="314.11" y="148.47" width="20.15" height="20.46"/></g><g id="LWPOLYLINE-15" data-name="LWPOLYLINE"><rect class="cls-4" x="426.12" y="72.9" width="15" height="56.25"/></g><g id="LWPOLYLINE-16" data-name="LWPOLYLINE"><rect class="cls-3" x="443.46" y="52.85" width="15" height="56.25"/></g><g id="LWPOLYLINE-17" data-name="LWPOLYLINE"><rect class="cls-3" x="295.55" y="72.95" width="10.69" height="53.82"/></g><path class="cls-5" d="M322,131.64s5.28,6.86,7.94,5.57-7.24-10.46-7.24-10.46-3.9-4-4.65-2S322,131.64,322,131.64Z"/><path class="cls-5" d="M324.66,120.56s-4.37-7.08-6.29-5.76,3.56,9.44,3.56,9.44,3.83,7.57,5.71,5.53S324.66,120.56,324.66,120.56Z"/><path class="cls-5" d="M318.7,78.74s3.62-.74,5.2-8.34,1.12-7.67.31-8S320,64.64,319,71.59,317.45,78.43,318.7,78.74Z"/><rect class="cls-4" x="410.46" y="100.15" width="44.9" height="1.76" transform="translate(533.94 -331.89) rotate(90)"/></g><g id="A-FURN"><g id="LINE"><line class="cls-3" x1="312.23" y1="112.37" x2="340.31" y2="112.37"/></g><g id="LWPOLYLINE-18" data-name="LWPOLYLINE"><polyline class="cls-3" points="341.29 62.37 312.23 62.37 312.23 137.37 341.29 137.37"/></g><g id="ARC"><path class="cls-3" d="M316.73,136.43a59.62,59.62,0,0,0,0-23.13"/></g><g id="ARC-2" data-name="ARC"><path class="cls-3" d="M316.73,113.3a1.22,1.22,0,0,0-1-.93"/></g><g id="ARC-3" data-name="ARC"><path class="cls-3" d="M315.74,137.37a1.24,1.24,0,0,0,1-.94"/></g><g id="ARC-4" data-name="ARC"><path class="cls-3" d="M315.74,112.37a1.24,1.24,0,0,0,1-.94"/></g><g id="ARC-5" data-name="ARC"><path class="cls-3" d="M316.73,63.3a1.22,1.22,0,0,0-1-.93"/></g><g id="ARC-6" data-name="ARC"><path class="cls-3" d="M341.29,113.3a1.19,1.19,0,0,0-1-.93"/></g><g id="ARC-7" data-name="ARC"><path class="cls-3" d="M340.31,112.37a1.22,1.22,0,0,0,1-.94"/></g><g id="ARC-8" data-name="ARC"><path class="cls-3" d="M340.31,137.37a1.22,1.22,0,0,0,1-.94"/></g><g id="ARC-9" data-name="ARC"><path class="cls-3" d="M341.29,63.3a1.19,1.19,0,0,0-1-.93"/></g><g id="LINE-2" data-name="LINE"><line class="cls-3" x1="312.23" y1="87.37" x2="340.31" y2="87.37"/></g><g id="ARC-10" data-name="ARC"><path class="cls-3" d="M316.73,86.43a59.62,59.62,0,0,0,0-23.13"/></g><g id="ARC-11" data-name="ARC"><path class="cls-3" d="M315.74,87.37a1.24,1.24,0,0,0,1-.94"/></g><g id="ARC-12" data-name="ARC"><path class="cls-3" d="M316.73,88.3a1.22,1.22,0,0,0-1-.93"/></g><g id="ARC-13" data-name="ARC"><path class="cls-3" d="M340.31,87.37a1.22,1.22,0,0,0,1-.94"/></g><g id="ARC-14" data-name="ARC"><path class="cls-3" d="M341.29,88.3a1.19,1.19,0,0,0-1-.93"/></g><g id="ARC-15" data-name="ARC"><path class="cls-3" d="M316.73,111.43a59.62,59.62,0,0,0,0-23.13"/></g><g id="CIRCLE-2" data-name="CIRCLE"><path class="cls-3" d="M390.92,165.25a.47.47,0,1,1,.47.47.47.47,0,0,1-.47-.47Z"/></g><g id="CIRCLE-3" data-name="CIRCLE"><path class="cls-3" d="M390.92,156.81a.47.47,0,1,1,.47.47.47.47,0,0,1-.47-.47Z"/></g><g id="CIRCLE-4" data-name="CIRCLE"><path class="cls-3" d="M382.48,165.25a.47.47,0,1,1,.47.47.47.47,0,0,1-.47-.47Z"/></g><g id="CIRCLE-5" data-name="CIRCLE"><path class="cls-3" d="M382.48,156.81a.47.47,0,1,1,.47.47.47.47,0,0,1-.47-.47Z"/></g><g id="CIRCLE-6" data-name="CIRCLE"><path class="cls-3" d="M374,165.25a.47.47,0,1,1,.47.47.47.47,0,0,1-.47-.47Z"/></g><g id="CIRCLE-7" data-name="CIRCLE"><path class="cls-3" d="M374,156.81a.47.47,0,1,1,.47.47.47.47,0,0,1-.47-.47Z"/></g><g id="CIRCLE-8" data-name="CIRCLE"><path class="cls-3" d="M365.61,165.25a.47.47,0,1,1,.46.47.47.47,0,0,1-.46-.47Z"/></g><g id="CIRCLE-9" data-name="CIRCLE"><path class="cls-3" d="M365.61,156.81a.47.47,0,1,1,.46.47.47.47,0,0,1-.46-.47Z"/></g><g id="CIRCLE-10" data-name="CIRCLE"><path class="cls-3" d="M399.36,165.25a.47.47,0,1,1,.46.47.47.47,0,0,1-.46-.47Z"/></g><g id="CIRCLE-11" data-name="CIRCLE"><path class="cls-3" d="M399.36,156.81a.47.47,0,1,1,.46.47.47.47,0,0,1-.46-.47Z"/></g><g id="CIRCLE-12" data-name="CIRCLE"><path class="cls-3" d="M407.79,165.25a.47.47,0,1,1,.47.47.47.47,0,0,1-.47-.47Z"/></g><g id="CIRCLE-13" data-name="CIRCLE"><path class="cls-3" d="M407.79,156.81a.47.47,0,1,1,.47.47.47.47,0,0,1-.47-.47Z"/></g><g id="LINE-3" data-name="LINE"><line class="cls-3" x1="413.46" y1="59.9" x2="412.53" y2="29.9"/></g><g id="LINE-4" data-name="LINE"><line class="cls-3" x1="412.65" y1="34.12" x2="393.66" y2="34.12"/></g><g id="LINE-5" data-name="LINE"><line class="cls-3" x1="393.78" y1="29.9" x2="392.84" y2="59.9"/></g><g id="LINE-6" data-name="LINE"><line class="cls-3" x1="355.99" y1="59.9" x2="356.93" y2="29.9"/></g><g id="LINE-7" data-name="LINE"><line class="cls-3" x1="356.8" y1="34.12" x2="375.8" y2="34.12"/></g><g id="LINE-8" data-name="LINE"><line class="cls-3" x1="375.68" y1="29.9" x2="376.61" y2="59.9"/></g><g id="ARC-16" data-name="ARC"><path class="cls-3" d="M316.73,113.3a1.22,1.22,0,0,0-1-.93"/></g><g id="ARC-17" data-name="ARC"><path class="cls-3" d="M315.74,137.37a1.24,1.24,0,0,0,1-.94"/></g><g id="ARC-18" data-name="ARC"><path class="cls-3" d="M315.74,112.37a1.24,1.24,0,0,0,1-.94"/></g><g id="ARC-19" data-name="ARC"><path class="cls-3" d="M316.73,63.3a1.22,1.22,0,0,0-1-.93"/></g><g id="ARC-20" data-name="ARC"><path class="cls-3" d="M341.29,113.3a1.19,1.19,0,0,0-1-.93"/></g><g id="ARC-21" data-name="ARC"><path class="cls-3" d="M340.31,112.37a1.22,1.22,0,0,0,1-.94"/></g><g id="ARC-22" data-name="ARC"><path class="cls-3" d="M340.31,137.37a1.22,1.22,0,0,0,1-.94"/></g><g id="ARC-23" data-name="ARC"><path class="cls-3" d="M341.29,63.3a1.19,1.19,0,0,0-1-.93"/></g><g id="ARC-24" data-name="ARC"><path class="cls-3" d="M315.74,87.37a1.24,1.24,0,0,0,1-.94"/></g><g id="ARC-25" data-name="ARC"><path class="cls-3" d="M316.73,88.3a1.22,1.22,0,0,0-1-.93"/></g><g id="ARC-26" data-name="ARC"><path class="cls-3" d="M340.31,87.37a1.22,1.22,0,0,0,1-.94"/></g><g id="ARC-27" data-name="ARC"><path class="cls-3" d="M341.29,88.3a1.19,1.19,0,0,0-1-.93"/></g><g id="CIRCLE-14" data-name="CIRCLE"><path class="cls-3" d="M390.92,165.25a.47.47,0,1,1,.47.47.47.47,0,0,1-.47-.47Z"/></g><g id="CIRCLE-15" data-name="CIRCLE"><path class="cls-3" d="M390.92,156.81a.47.47,0,1,1,.47.47.47.47,0,0,1-.47-.47Z"/></g><g id="CIRCLE-16" data-name="CIRCLE"><path class="cls-3" d="M382.48,165.25a.47.47,0,1,1,.47.47.47.47,0,0,1-.47-.47Z"/></g><g id="CIRCLE-17" data-name="CIRCLE"><path class="cls-3" d="M382.48,156.81a.47.47,0,1,1,.47.47.47.47,0,0,1-.47-.47Z"/></g><g id="CIRCLE-18" data-name="CIRCLE"><path class="cls-3" d="M374,165.25a.47.47,0,1,1,.47.47.47.47,0,0,1-.47-.47Z"/></g><g id="CIRCLE-19" data-name="CIRCLE"><path class="cls-3" d="M374,156.81a.47.47,0,1,1,.47.47.47.47,0,0,1-.47-.47Z"/></g><g id="CIRCLE-20" data-name="CIRCLE"><path class="cls-3" d="M365.61,165.25a.47.47,0,1,1,.46.47.47.47,0,0,1-.46-.47Z"/></g><g id="CIRCLE-21" data-name="CIRCLE"><path class="cls-3" d="M365.61,156.81a.47.47,0,1,1,.46.47.47.47,0,0,1-.46-.47Z"/></g><g id="CIRCLE-22" data-name="CIRCLE"><path class="cls-3" d="M399.36,165.25a.47.47,0,1,1,.46.47.47.47,0,0,1-.46-.47Z"/></g><g id="CIRCLE-23" data-name="CIRCLE"><path class="cls-3" d="M399.36,156.81a.47.47,0,1,1,.46.47.47.47,0,0,1-.46-.47Z"/></g><g id="CIRCLE-24" data-name="CIRCLE"><path class="cls-3" d="M407.79,165.25a.47.47,0,1,1,.47.47.47.47,0,0,1-.47-.47Z"/></g><g id="CIRCLE-25" data-name="CIRCLE"><path class="cls-3" d="M407.79,156.81a.47.47,0,1,1,.47.47.47.47,0,0,1-.47-.47Z"/></g><g id="LWPOLYLINE-19" data-name="LWPOLYLINE"><rect class="cls-4" x="11.74" y="53.08" width="80.63" height="71.25"/></g><g id="LWPOLYLINE-20" data-name="LWPOLYLINE"><rect class="cls-4" x="11.74" y="126.32" width="15.94" height="20.16"/></g><g id="LWPOLYLINE-21" data-name="LWPOLYLINE"><rect class="cls-4" x="11.74" y="30.93" width="15.94" height="20.16"/></g><g id="LINE-9" data-name="LINE"><line class="cls-3" x1="36.22" y1="53.08" x2="34.32" y2="124.33"/></g><g id="LWPOLYLINE-22" data-name="LWPOLYLINE"><rect class="cls-3" x="17.1" y="89.98" width="14.68" height="31.81"/></g><g id="LINE-10" data-name="LINE"><line class="cls-3" x1="41.7" y1="53.08" x2="34.34" y2="123.93"/></g><g id="LINE-11" data-name="LINE"><line class="cls-3" x1="14.56" y1="53.08" x2="14.56" y2="124.33"/></g><g id="LINE-12" data-name="LINE"><line class="cls-3" x1="89.56" y1="53.08" x2="89.56" y2="124.33"/></g><g id="LWPOLYLINE-23" data-name="LWPOLYLINE"><rect class="cls-3" x="17.1" y="55.62" width="14.68" height="31.81"/></g><g id="LWPOLYLINE-24" data-name="LWPOLYLINE"><rect class="cls-4" x="544.48" y="26.6" width="16.88" height="22.5"/></g><g id="LWPOLYLINE-25" data-name="LWPOLYLINE"><rect class="cls-4" x="544.48" y="112.85" width="16.88" height="22.5"/></g><g id="LWPOLYLINE-26" data-name="LWPOLYLINE"><rect class="cls-4" x="480.73" y="52.85" width="80.63" height="56.25"/></g><g id="LINE-13" data-name="LINE"><line class="cls-3" x1="558.54" y1="52.85" x2="558.54" y2="109.1"/></g><g id="LINE-14" data-name="LINE"><line class="cls-3" x1="483.54" y1="52.85" x2="483.54" y2="109.1"/></g><g id="LINE-15" data-name="LINE"><line class="cls-3" x1="537.28" y1="52.85" x2="538.77" y2="109.1"/></g><g id="LWPOLYLINE-27" data-name="LWPOLYLINE"><rect class="cls-3" x="541.31" y="82.25" width="14.68" height="24.31"/></g><g id="LINE-16" data-name="LINE"><line class="cls-3" x1="532.82" y1="52.85" x2="538.75" y2="108.7"/></g><g id="LWPOLYLINE-28" data-name="LWPOLYLINE"><rect class="cls-3" x="541.31" y="55.39" width="14.68" height="24.31"/></g><g id="LWPOLYLINE-29" data-name="LWPOLYLINE"><rect class="cls-3" x="222.92" y="65.53" width="22.5" height="15.94" transform="translate(16.62 187.11) rotate(-45)"/></g><g id="LWPOLYLINE-30" data-name="LWPOLYLINE"><rect class="cls-3" x="191.84" y="96.61" width="22.5" height="15.94" transform="translate(-14.47 174.24) rotate(-45)"/></g><g id="LINE-17" data-name="LINE"><line class="cls-3" x1="244.04" y1="74.9" x2="232.77" y2="63.63"/></g><g id="LINE-18" data-name="LINE"><line class="cls-3" x1="246.78" y1="72.15" x2="235.51" y2="60.89"/></g><g id="LINE-19" data-name="LINE"><line class="cls-3" x1="193.22" y1="103.18" x2="204.49" y2="114.45"/></g><g id="LINE-20" data-name="LINE"><line class="cls-3" x1="190.47" y1="105.93" x2="201.74" y2="117.2"/></g><g id="LWPOLYLINE-31" data-name="LWPOLYLINE"><rect class="cls-3" x="226.88" y="92.66" width="15.94" height="22.5" transform="translate(-4.69 196.5) rotate(-45)"/></g><g id="LWPOLYLINE-32" data-name="LWPOLYLINE"><rect class="cls-3" x="195.79" y="61.57" width="15.94" height="22.5" transform="translate(8.18 165.41) rotate(-45)"/></g><g id="LINE-21" data-name="LINE"><line class="cls-3" x1="233.44" y1="113.77" x2="244.71" y2="102.5"/></g><g id="LINE-22" data-name="LINE"><line class="cls-3" x1="236.19" y1="116.52" x2="247.46" y2="105.25"/></g><g id="LINE-23" data-name="LINE"><line class="cls-3" x1="205.17" y1="62.96" x2="193.9" y2="74.23"/></g><g id="LINE-24" data-name="LINE"><line class="cls-3" x1="202.42" y1="60.21" x2="191.15" y2="71.48"/></g><g id="CIRCLE-26" data-name="CIRCLE"><path class="cls-4" d="M201.33,70.4a25.41,25.41,0,1,1,0,35.94,25.4,25.4,0,0,1,0-35.94Z"/></g></g><g id="A-GLAZ-SILL"><g id="LWPOLYLINE-33" data-name="LWPOLYLINE"><polyline class="cls-6" points="561.59 17.22 561.59 22.84 449.79 22.84 449.79 17.22"/></g><g id="LINE-25" data-name="LINE"><line class="cls-7" x1="480.37" y1="12.53" x2="531.7" y2="12.53"/></g><g id="LINE-26" data-name="LINE"><line class="cls-7" x1="535.45" y1="12.53" x2="558.54" y2="12.53"/></g><g id="LINE-27" data-name="LINE"><line class="cls-7" x1="476.62" y1="12.53" x2="453.53" y2="12.53"/></g><g id="LWPOLYLINE-34" data-name="LWPOLYLINE"><polyline class="cls-6" points="269.79 17.22 269.79 22.84 157.29 22.84 157.29 17.22"/></g><g id="LWPOLYLINE-35" data-name="LWPOLYLINE"><polyline class="cls-6" points="416.16 17.22 416.16 22.84 303.66 22.84 303.66 17.22"/></g><g id="LWPOLYLINE-36" data-name="LWPOLYLINE"><polyline class="cls-6" points="123.54 17.22 123.54 22.84 11.74 22.84 11.74 17.22"/></g></g><g id="A-GLAZ"><g id="LWPOLYLINE-37" data-name="LWPOLYLINE"><polygon class="cls-7" points="179.32 13.47 178.38 13.47 161.04 13.47 160.1 13.47 160.1 14.7 178.38 14.7 179.32 14.7 179.32 13.47"/></g><g id="LWPOLYLINE-38" data-name="LWPOLYLINE"><polygon class="cls-7" points="212.02 13.47 211.31 13.47 181.2 13.47 181.2 14.7 212 14.7 212.02 13.47"/></g><g id="LWPOLYLINE-39" data-name="LWPOLYLINE"><polygon class="cls-7" points="245.88 13.47 244.95 13.47 215.77 13.47 215.06 13.47 215.06 14.7 245.88 14.7 245.88 13.47"/></g><g id="LWPOLYLINE-40" data-name="LWPOLYLINE"><polygon class="cls-7" points="266.98 13.47 266.04 13.47 247.76 13.47 247.76 14.7 266.98 14.7 266.98 13.47"/></g><g id="LWPOLYLINE-41" data-name="LWPOLYLINE"><polygon class="cls-7" points="325.69 13.47 324.75 13.47 307.41 13.47 306.47 13.47 306.47 14.7 324.75 14.7 325.69 14.7 325.69 13.47"/></g><g id="LWPOLYLINE-42" data-name="LWPOLYLINE"><polygon class="cls-7" points="358.38 13.47 357.68 13.47 327.56 13.47 327.56 14.7 358.37 14.7 358.38 13.47"/></g><g id="LWPOLYLINE-43" data-name="LWPOLYLINE"><polygon class="cls-7" points="392.25 13.47 391.31 13.47 362.13 13.47 361.43 13.47 361.43 14.7 392.25 14.7 392.25 13.47"/></g><g id="LWPOLYLINE-44" data-name="LWPOLYLINE"><polygon class="cls-7" points="413.35 13.47 412.41 13.47 394.13 13.47 394.13 14.7 413.35 14.7 413.35 13.47"/></g><g id="LWPOLYLINE-45" data-name="LWPOLYLINE"><polygon class="cls-7" points="532.18 13.47 479.91 13.47 479.91 14.7 532.17 14.7 532.18 13.47"/></g><g id="LWPOLYLINE-46" data-name="LWPOLYLINE"><polygon class="cls-7" points="559.48 13.47 558.54 13.47 534.75 13.47 534.75 14.7 559.48 14.7 559.48 13.47"/></g><g id="LWPOLYLINE-47" data-name="LWPOLYLINE"><polygon class="cls-7" points="452.6 13.47 453.53 13.47 477.32 13.47 477.32 14.7 452.6 14.7 452.6 13.47"/></g><g id="LWPOLYLINE-48" data-name="LWPOLYLINE"><polygon class="cls-7" points="93.43 13.47 41.16 13.47 41.16 14.7 93.42 14.7 93.43 13.47"/></g><g id="LWPOLYLINE-49" data-name="LWPOLYLINE"><polygon class="cls-7" points="120.73 13.47 119.79 13.47 96 13.47 96 14.7 120.73 14.7 120.73 13.47"/></g><g id="LWPOLYLINE-50" data-name="LWPOLYLINE"><polygon class="cls-7" points="13.85 13.47 14.78 13.47 38.57 13.47 38.57 14.7 13.85 14.7 13.85 13.47"/></g><line class="cls-7" x1="14.78" y1="17.22" x2="120.45" y2="17.22"/><line class="cls-7" x1="161.04" y1="17.22" x2="266.04" y2="17.22"/><line class="cls-7" x1="307.41" y1="17.22" x2="412.41" y2="17.22"/><line class="cls-7" x1="453.53" y1="17.22" x2="558.54" y2="17.22"/></g><g id="A-GLAZ-MUL"><g id="LWPOLYLINE-51" data-name="LWPOLYLINE"><polyline class="cls-8" points="213.07 10.19 214.01 10.19 214.01 12.53 215.77 12.53 215.77 13.47 215.06 13.47 215.06 14.7 215.77 14.7 215.77 17.22 213.89 17.22 213.89 16.75 213.19 16.75 213.19 17.22 211.31 17.22 211.31 14.7 212 14.7 212.02 13.47 211.31 13.47 211.31 12.53 213.07 12.53 213.07 10.19"/></g><g id="LWPOLYLINE-52" data-name="LWPOLYLINE"><polygon class="cls-8" points="244.95 14.7 245.88 14.7 245.88 13.47 244.95 13.47 244.95 12.53 246.82 12.53 246.82 10.19 247.76 10.19 247.76 12.53 248.7 12.53 248.7 13.47 247.76 13.47 247.76 14.7 248.7 14.7 248.7 15.87 247.88 15.87 247.88 16.75 246.82 16.75 246.82 17.22 244.95 17.22 244.95 14.7"/></g><g id="LWPOLYLINE-53" data-name="LWPOLYLINE"><polygon class="cls-8" points="269.79 12.53 268.85 12.53 268.85 8.78 267.92 8.78 267.92 12.53 266.04 12.53 266.04 13.47 266.98 13.47 266.98 14.7 266.04 14.7 266.04 17.22 269.79 17.22 269.79 12.53"/></g><g id="LWPOLYLINE-54" data-name="LWPOLYLINE"><polygon class="cls-8" points="161.04 14.7 160.1 14.7 160.1 13.47 161.04 13.47 161.04 12.53 159.16 12.53 159.16 8.78 158.23 8.78 158.23 12.53 157.29 12.53 157.29 17.22 161.04 17.22 161.04 14.7"/></g><g id="LWPOLYLINE-55" data-name="LWPOLYLINE"><polygon class="cls-8" points="182.13 14.7 181.2 14.7 181.2 13.47 182.13 13.47 182.13 12.53 180.26 12.53 180.26 10.19 179.32 10.19 179.32 12.53 178.38 12.53 178.38 13.47 179.32 13.47 179.32 14.7 178.38 14.7 178.38 15.87 179.2 15.87 179.2 16.75 180.26 16.75 180.26 17.22 182.13 17.22 182.13 14.7"/></g><g id="LWPOLYLINE-56" data-name="LWPOLYLINE"><polyline class="cls-8" points="359.44 10.19 360.38 10.19 360.38 12.53 362.13 12.53 362.13 13.47 361.43 13.47 361.43 14.7 362.13 14.7 362.13 17.22 360.26 17.22 360.26 16.75 359.56 16.75 359.56 17.22 357.68 17.22 357.68 14.7 358.37 14.7 358.38 13.47 357.68 13.47 357.68 12.53 359.44 12.53 359.44 10.19"/></g><g id="LWPOLYLINE-57" data-name="LWPOLYLINE"><polygon class="cls-8" points="391.31 14.7 392.25 14.7 392.25 13.47 391.31 13.47 391.31 12.53 393.19 12.53 393.19 10.19 394.13 10.19 394.13 12.53 395.06 12.53 395.06 13.47 394.13 13.47 394.13 14.7 395.06 14.7 395.06 15.87 394.24 15.87 394.24 16.75 393.19 16.75 393.19 17.22 391.31 17.22 391.31 14.7"/></g><g id="LWPOLYLINE-58" data-name="LWPOLYLINE"><polygon class="cls-8" points="416.16 12.53 415.22 12.53 415.22 8.78 414.28 8.78 414.28 12.53 412.41 12.53 412.41 13.47 413.35 13.47 413.35 14.7 412.41 14.7 412.41 17.22 416.16 17.22 416.16 12.53"/></g><g id="LWPOLYLINE-59" data-name="LWPOLYLINE"><polygon class="cls-8" points="307.41 14.7 306.47 14.7 306.47 13.47 307.41 13.47 307.41 12.53 305.53 12.53 305.53 8.78 304.6 8.78 304.6 12.53 303.66 12.53 303.66 17.22 307.41 17.22 307.41 14.7"/></g><g id="LWPOLYLINE-60" data-name="LWPOLYLINE"><polygon class="cls-8" points="328.5 14.7 327.56 14.7 327.56 13.47 328.5 13.47 328.5 12.53 326.63 12.53 326.63 10.19 325.69 10.19 325.69 12.53 324.75 12.53 324.75 13.47 325.69 13.47 325.69 14.7 324.75 14.7 324.75 15.87 325.57 15.87 325.57 16.75 326.63 16.75 326.63 17.22 328.5 17.22 328.5 14.7"/></g><g id="LWPOLYLINE-61" data-name="LWPOLYLINE"><polygon class="cls-8" points="535.45 14.7 534.75 14.7 534.75 13.47 535.45 13.47 535.45 12.53 533.7 12.53 533.7 10.19 532.76 10.19 532.76 12.53 531.7 12.53 531.7 13.47 532.17 13.47 532.17 14.7 531.47 14.7 531.47 15.87 532.41 15.87 532.41 16.75 533.58 16.75 533.58 17.22 535.45 17.22 535.45 14.7"/></g><g id="LWPOLYLINE-62" data-name="LWPOLYLINE"><polygon class="cls-8" points="562.29 12.53 560.71 12.53 560.71 8.78 559.77 8.78 559.77 12.53 558.54 12.53 558.54 13.47 559.48 13.47 559.48 14.7 558.54 14.7 558.54 17.22 562.29 17.22 562.29 12.53"/></g><g id="LWPOLYLINE-63" data-name="LWPOLYLINE"><polygon class="cls-8" points="476.62 14.7 477.32 14.7 477.32 13.47 476.62 13.47 476.62 12.53 478.38 12.53 478.38 10.19 479.31 10.19 479.31 12.53 480.37 12.53 480.37 13.47 479.9 13.47 479.9 14.7 480.6 14.7 480.6 15.87 479.67 15.87 479.67 16.75 478.5 16.75 478.5 17.22 476.62 17.22 476.62 14.7"/></g><g id="LWPOLYLINE-64" data-name="LWPOLYLINE"><polygon class="cls-8" points="449.78 12.53 451.37 12.53 451.37 8.78 452.31 8.78 452.31 12.53 453.53 12.53 453.53 13.47 452.6 13.47 452.6 14.7 453.53 14.7 453.53 17.22 449.78 17.22 449.78 12.53"/></g><g id="LWPOLYLINE-65" data-name="LWPOLYLINE"><polygon class="cls-8" points="96.7 14.7 96 14.7 96 13.47 96.7 13.47 96.7 12.53 94.95 12.53 94.95 10.19 94.01 10.19 94.01 12.53 92.95 12.53 92.95 13.47 93.42 13.47 93.42 14.7 92.72 14.7 92.72 15.87 93.66 15.87 93.66 16.75 94.83 16.75 94.83 17.22 96.7 17.22 96.7 14.7"/></g><g id="LWPOLYLINE-66" data-name="LWPOLYLINE"><polygon class="cls-8" points="123.54 12.53 121.96 12.53 121.96 8.78 121.02 8.78 121.02 12.53 119.79 12.53 119.79 13.47 120.73 13.47 120.73 14.7 119.79 14.7 119.79 17.22 123.54 17.22 123.54 12.53"/></g><g id="LWPOLYLINE-67" data-name="LWPOLYLINE"><polygon class="cls-8" points="37.87 14.7 38.57 14.7 38.57 13.47 37.87 13.47 37.87 12.53 39.63 12.53 39.63 10.19 40.56 10.19 40.56 12.53 41.62 12.53 41.62 13.47 41.15 13.47 41.15 14.7 41.85 14.7 41.85 15.87 40.92 15.87 40.92 16.75 39.74 16.75 39.74 17.22 37.87 17.22 37.87 14.7"/></g><g id="LWPOLYLINE-68" data-name="LWPOLYLINE"><polygon class="cls-8" points="11.03 12.53 12.62 12.53 12.62 8.78 13.56 8.78 13.56 12.53 14.78 12.53 14.78 13.47 13.85 13.47 13.85 14.7 14.78 14.7 14.78 17.22 11.03 17.22 11.03 12.53"/></g></g><g id="A-OUTER_WINDOW_SILL" data-name="A-OUTER WINDOW SILL"><g id="LWPOLYLINE-69" data-name="LWPOLYLINE"><polyline class="cls-6" points="269.79 17.22 269.79 8.78 157.29 8.78 157.29 17.22"/></g><g id="LWPOLYLINE-70" data-name="LWPOLYLINE"><polyline class="cls-6" points="416.16 17.22 416.16 8.78 303.66 8.78 303.66 17.22"/></g><g id="LWPOLYLINE-71" data-name="LWPOLYLINE"><polyline class="cls-6" points="562.29 17.22 562.29 8.78 449.79 8.78 449.79 17.22"/></g><g id="LWPOLYLINE-72" data-name="LWPOLYLINE"><polyline class="cls-6" points="123.54 17.22 123.54 8.78 11.04 8.78 11.04 17.22"/></g></g><g id="A-DOOR"><g id="LWPOLYLINE-73" data-name="LWPOLYLINE"><rect class="cls-9" x="501.12" y="167.22" width="1.64" height="33.75"/></g><g id="LWPOLYLINE-74" data-name="LWPOLYLINE"><rect class="cls-9" x="443.32" y="144.5" width="33.75" height="1.64" transform="translate(32.03 367.97) rotate(-45)"/></g><g id="LWPOLYLINE-75" data-name="LWPOLYLINE"><rect class="cls-9" x="139.37" y="125.64" width="1.64" height="33.75" transform="translate(-59.71 140.88) rotate(-45)"/></g><g id="LWPOLYLINE-76" data-name="LWPOLYLINE"><rect class="cls-9" x="423.33" y="210.59" width="1.64" height="33.75" transform="translate(-36.61 366.54) rotate(-45)"/></g><g id="LWPOLYLINE-77" data-name="LWPOLYLINE"><rect class="cls-9" x="473.48" y="212.81" width="22.48" height="1.64"/></g><g id="LWPOLYLINE-78" data-name="LWPOLYLINE"><rect class="cls-9" x="450.96" y="212.81" width="22.52" height="1.64"/></g><g id="LWPOLYLINE-79" data-name="LWPOLYLINE"><rect class="cls-9" x="64.59" y="160.19" width="33.75" height="1.64"/></g><g id="LWPOLYLINE-80" data-name="LWPOLYLINE"><rect class="cls-9" x="112.06" y="160.19" width="33.75" height="1.64"/></g><g id="LWPOLYLINE-81" data-name="LWPOLYLINE"><rect class="cls-9" x="423.33" y="210.59" width="1.64" height="33.75" transform="translate(-36.61 366.54) rotate(-45)"/></g><g id="ARC-28" data-name="ARC"><path class="cls-9" d="M481.43,156.67a33.74,33.74,0,0,0-9.89-23.86"/></g><g id="ARC-29" data-name="ARC"><path class="cls-9" d="M151.55,121.28a33.77,33.77,0,0,0-23.87,9.89"/></g><g id="ARC-30" data-name="ARC"><path class="cls-9" d="M412.8,215a33.74,33.74,0,0,0-9.89,23.86"/></g><g id="ARC-31" data-name="ARC"><path class="cls-9" d="M412.8,215a33.74,33.74,0,0,0-9.89,23.86"/></g></g><g id="A-KITCHEN_APPLIANCE" data-name="A-KITCHEN APPLIANCE"><g id="LWPOLYLINE-83" data-name="LWPOLYLINE"><polyline class="cls-7" points="343.85 238.82 342.68 238.82 342.68 210.16 343.85 210.16 377.4 210.16"/></g><g id="LWPOLYLINE-84" data-name="LWPOLYLINE"><rect class="cls-7" x="314.67" y="210.69" width="28.01" height="23.85"/></g><g id="LWPOLYLINE-85" data-name="LWPOLYLINE"><rect class="cls-7" x="167.6" y="163.7" width="22.81" height="24.84"/></g><g id="LWPOLYLINE-86" data-name="LWPOLYLINE"><polyline class="cls-7" points="190.25 188.55 190.25 210.69 314.81 210.69 314.81 233.66 167.6 233.66 167.6 188.55"/></g><g id="LWPOLYLINE-87" data-name="LWPOLYLINE"><polyline class="cls-7" points="234.33 227.55 234.33 214.16 209.22 214.16 209.22 227.55 234.33 227.55"/></g><rect class="cls-10" x="218.97" y="228.63" width="3.06" height="1.28"/><path class="cls-10" d="M222.7,228.75a.92.92,0,0,0-.3-.29V222a.46.46,0,0,0-.46-.46.47.47,0,0,0-.47.46v6.45a.89.89,0,0,0,.93,1.52A.9.9,0,0,0,222.7,228.75Z"/><g id="CIRCLE-27" data-name="CIRCLE"><path class="cls-7" d="M275.8,216a.78.78,0,1,1,.78-.78.78.78,0,0,1-.78.78Z"/></g><g id="CIRCLE-28" data-name="CIRCLE"><path class="cls-7" d="M270.89,216a.78.78,0,1,1,.78-.78.78.78,0,0,1-.78.78Z"/></g><g id="CIRCLE-29" data-name="CIRCLE"><path class="cls-7" d="M270.89,219.2a.79.79,0,1,1,.78-.79.78.78,0,0,1-.78.79Z"/></g><g id="CIRCLE-30" data-name="CIRCLE"><path class="cls-7" d="M273.35,219.2a.79.79,0,1,1,.78-.79.79.79,0,0,1-.78.79Z"/></g><g id="CIRCLE-31" data-name="CIRCLE"><path class="cls-7" d="M275.8,219.2a.79.79,0,1,1,.78-.79.78.78,0,0,1-.78.79Z"/></g><g id="LWPOLYLINE-88" data-name="LWPOLYLINE"><rect class="cls-7" x="258.2" y="211.97" width="30.29" height="18" rx="0.42" ry="0.42"/></g><circle class="cls-7" cx="263.6" cy="225.3" r="1.48"/><path class="cls-7" d="M268.08,221.74v6.56a.62.62,0,0,1-.63.62h-7.69a.62.62,0,0,1-.64-.62v-6.56a.06.06,0,0,1,.05-.06H268A.06.06,0,0,1,268.08,221.74Z"/><circle class="cls-7" cx="273.35" cy="225.3" r="1.48"/><path class="cls-7" d="M277.83,221.74v6.56a.63.63,0,0,1-.64.62H269.5a.63.63,0,0,1-.64-.62v-6.56a.06.06,0,0,1,.06-.06h8.86A.06.06,0,0,1,277.83,221.74Z"/><circle class="cls-7" cx="283.09" cy="225.3" r="1.48"/><path class="cls-7" d="M287.57,221.74v6.56a.62.62,0,0,1-.63.62h-7.7a.62.62,0,0,1-.63-.62v-6.56a.06.06,0,0,1,.05-.06h8.86A.06.06,0,0,1,287.57,221.74Z"/><circle class="cls-7" cx="283.09" cy="216.81" r="1.48"/><path class="cls-7" d="M278.61,220.37v-6.56a.62.62,0,0,1,.63-.62h7.7a.62.62,0,0,1,.63.62v6.56a.06.06,0,0,1-.05.06h-8.86A.06.06,0,0,1,278.61,220.37Z"/><circle class="cls-7" cx="263.6" cy="216.81" r="1.48"/><path class="cls-7" d="M259.12,220.37v-6.56a.62.62,0,0,1,.64-.62h7.69a.62.62,0,0,1,.63.62v6.56a.06.06,0,0,1-.05.06h-8.86A.06.06,0,0,1,259.12,220.37Z"/><g id="LINE-28" data-name="LINE"><line class="cls-7" x1="314.63" y1="220.95" x2="313.63" y2="220.95"/><line class="cls-11" x1="311.63" y1="220.95" x2="181" y2="220.95"/><polyline class="cls-7" points="180 220.95 179 220.95 179 219.95"/><line class="cls-12" x1="179.01" y1="217.92" x2="179.01" y2="190.56"/><line class="cls-7" x1="179.01" y1="189.55" x2="179.01" y2="188.55"/></g><g id="LWPOLYLINE-89" data-name="LWPOLYLINE"><rect class="cls-13" x="190.41" y="210.81" width="17.21" height="22.5"/></g></g><g id="A-BATH"><g id="LWPOLYLINE-90" data-name="LWPOLYLINE"><rect class="cls-7" x="1.95" y="163.7" width="36.16" height="69.96"/></g><g id="LWPOLYLINE-91" data-name="LWPOLYLINE"><path class="cls-7" d="M21.1,229.27h7.22a4.75,4.75,0,0,0,4.75-4.75V172.09a4.75,4.75,0,0,0-4.75-4.75H13.1a4.75,4.75,0,0,0-4.75,4.75v52.43a4.75,4.75,0,0,0,4.75,4.75h7.22"/></g><g id="ARC-32" data-name="ARC"><path class="cls-7" d="M21.28,226.8a3.28,3.28,0,1,0-.78,0"/></g><g id="LWPOLYLINE-92" data-name="LWPOLYLINE"><path class="cls-7" d="M20.5,223.54v10.17h.77V223.54a.39.39,0,1,0-.77,0Z"/></g><g id="LWPOLYLINE-93" data-name="LWPOLYLINE"><rect class="cls-7" x="520.1" y="205.07" width="35.62" height="33.75"/></g><g id="ARC-33" data-name="ARC"><path class="cls-7" d="M549.45,220.61a3.29,3.29,0,1,0,0,.79"/></g><g id="LWPOLYLINE-94" data-name="LWPOLYLINE"><path class="cls-7" d="M546.19,221.4h10.17v-.78H546.19a.38.38,0,0,0-.39.39A.39.39,0,0,0,546.19,221.4Z"/></g><g id="LWPOLYLINE-95" data-name="LWPOLYLINE"><rect class="cls-10" x="521.04" y="204.27" width="33.75" height="0.83"/></g><g id="LWPOLYLINE-96" data-name="LWPOLYLINE"><rect class="cls-10" x="520.1" y="204.27" width="0.94" height="0.83"/></g><g id="LWPOLYLINE-97" data-name="LWPOLYLINE"><rect class="cls-10" x="554.79" y="204.27" width="0.94" height="0.83"/></g></g><g id="A-MECH"><g id="LINE-29" data-name="LINE"><line class="cls-10" x1="347.85" y1="236.63" x2="369.88" y2="236.63"/></g><g id="LINE-30" data-name="LINE"><line class="cls-10" x1="369.88" y1="236.63" x2="369.88" y2="212.35"/></g><g id="LINE-31" data-name="LINE"><line class="cls-10" x1="369.88" y1="212.35" x2="347.85" y2="212.35"/></g><g id="LINE-32" data-name="LINE"><line class="cls-10" x1="347.85" y1="212.35" x2="347.85" y2="236.63"/></g></g><g id="A-ABOVE"><g id="LWPOLYLINE-98" data-name="LWPOLYLINE"><line class="cls-13" x1="447.21" y1="228.04" x2="513.31" y2="228.04"/></g><g id="LWPOLYLINE-99" data-name="LWPOLYLINE"><polyline class="cls-13" points="108.31 208.94 152.84 208.94 152.84 163.7"/></g></g><g id="A-HANGER"><g id="LINE-33" data-name="LINE"><line class="cls-8" x1="112.25" y1="215.47" x2="112.25" y2="202.41"/></g><g id="LINE-34" data-name="LINE"><line class="cls-8" x1="114.67" y1="215.47" x2="114.67" y2="202.41"/></g><g id="LINE-35" data-name="LINE"><line class="cls-8" x1="117.09" y1="215.47" x2="117.09" y2="202.41"/></g><g id="LINE-36" data-name="LINE"><line class="cls-8" x1="119.51" y1="215.47" x2="119.51" y2="202.41"/></g><g id="LINE-37" data-name="LINE"><line class="cls-8" x1="121.93" y1="215.47" x2="121.93" y2="202.41"/></g><g id="LINE-38" data-name="LINE"><line class="cls-8" x1="124.35" y1="202.41" x2="124.35" y2="215.47"/></g><g id="LINE-39" data-name="LINE"><line class="cls-8" x1="451.16" y1="234.1" x2="451.16" y2="221.04"/></g><g id="LINE-40" data-name="LINE"><line class="cls-8" x1="453.58" y1="234.1" x2="453.58" y2="221.04"/></g><g id="LINE-41" data-name="LINE"><line class="cls-8" x1="456" y1="234.1" x2="456" y2="221.04"/></g><g id="LINE-42" data-name="LINE"><line class="cls-8" x1="458.41" y1="234.1" x2="458.42" y2="221.04"/></g><g id="LINE-43" data-name="LINE"><line class="cls-8" x1="460.83" y1="234.1" x2="460.84" y2="221.04"/></g><g id="LINE-44" data-name="LINE"><line class="cls-8" x1="463.25" y1="221.04" x2="463.25" y2="234.1"/></g><g id="LINE-45" data-name="LINE"><line class="cls-8" x1="146.31" y1="167.65" x2="159.36" y2="167.65"/></g><g id="LINE-46" data-name="LINE"><line class="cls-8" x1="146.31" y1="170.07" x2="159.36" y2="170.07"/></g><g id="LINE-47" data-name="LINE"><line class="cls-8" x1="146.31" y1="172.49" x2="159.36" y2="172.49"/></g><g id="LINE-48" data-name="LINE"><line class="cls-8" x1="146.31" y1="174.91" x2="159.36" y2="174.91"/></g><g id="LINE-49" data-name="LINE"><line class="cls-8" x1="146.31" y1="177.33" x2="159.36" y2="177.33"/></g><g id="LINE-50" data-name="LINE"><line class="cls-8" x1="159.36" y1="179.75" x2="146.31" y2="179.75"/></g></g><g id="FAUCETS"><g id="LWPOLYLINE-100" data-name="LWPOLYLINE"><rect class="cls-7" x="44.57" y="213.37" width="25.51" height="19.59"/></g><g id="LWPOLYLINE-101" data-name="LWPOLYLINE"><path class="cls-7" d="M65.07,217.2A1.09,1.09,0,0,0,64,216.1H50.68a1.09,1.09,0,0,0-1.09,1.1V227a.91.91,0,0,0,.91.91H64.16a.91.91,0,0,0,.91-.91Z"/></g><g id="ARC-34" data-name="ARC"><path class="cls-7" d="M80,216.63c-.35,3.12-1,11.38-1,11.38"/></g><g id="ARC-35" data-name="ARC"><path class="cls-7" d="M91.07,223.87a.81.81,0,0,0,.76-.51c.15-.34.28-.69.4-1a15.06,15.06,0,0,0,.63-2.89c.06-.53.1-1.05.13-1.58a15.3,15.3,0,0,0-.34-4.1,9.94,9.94,0,0,0-3-5.24,4.87,4.87,0,0,0-3.23-1.23,4.82,4.82,0,0,0-3.21,1.3,10,10,0,0,0-2.93,5.29A15.74,15.74,0,0,0,80,218c0,.52.09,1.05.16,1.57a14.38,14.38,0,0,0,.69,2.88c.12.35.26.69.41,1a.82.82,0,0,0,.77.5Z"/></g><g id="ARC-36" data-name="ARC"><path class="cls-7" d="M93,216.5c.41,3.12,1,11.51,1,11.51"/></g><g id="ARC-37" data-name="ARC"><path class="cls-7" d="M79,227.86a1.08,1.08,0,0,1,1-1,55.28,55.28,0,0,1,13.11,0,1.06,1.06,0,0,1,.95,1v0c.06,1.13.1,2.25.13,3.38a1.46,1.46,0,0,1-1.33,1.47c-2.09.18-4.2.27-6.31.27s-4.21-.09-6.31-.27a1.45,1.45,0,0,1-1.32-1.47c0-1.13.07-2.25.12-3.38Z"/></g><g id="ARC-38" data-name="ARC"><path class="cls-7" d="M56.87,229.37a1.14,1.14,0,0,0-.69,1,1.16,1.16,0,0,0,1.15,1.15,1.15,1.15,0,0,0,.46-2.2Z"/></g><g id="ARC-39" data-name="ARC"><path class="cls-7" d="M51.61,230.65a1.15,1.15,0,0,0,2.27-.23,1.15,1.15,0,0,0-2.27-.23Z"/></g><g id="ARC-40" data-name="ARC"><path class="cls-7" d="M63.05,230.65a1.15,1.15,0,1,1,0-.46Z"/></g><g id="LINE-51" data-name="LINE"><path class="cls-7" d="M56.87,224.91v5.51a.46.46,0,0,0,.92,0v-5.51a.46.46,0,1,0-.92,0Z"/></g><line class="cls-7" x1="52.75" y1="230.42" x2="49.52" y2="230.42"/><line class="cls-7" x1="65.14" y1="230.42" x2="61.91" y2="230.42"/><g id="LWPOLYLINE-102" data-name="LWPOLYLINE"><rect class="cls-7" x="564.41" y="173.34" width="20.26" height="26.39"/></g><g id="LWPOLYLINE-103" data-name="LWPOLYLINE"><path class="cls-7" d="M568.37,178.53a1.13,1.13,0,0,0-1.14,1.13v13.75a1.14,1.14,0,0,0,1.14,1.14h10.17a1,1,0,0,0,1-1V179.47a1,1,0,0,0-1-.94Z"/></g><g id="ARC-41" data-name="ARC"><path class="cls-7" d="M567.78,163.13c3.23.35,11.77,1,11.77,1"/></g><g id="ARC-42" data-name="ARC"><path class="cls-7" d="M575.27,151.63a.85.85,0,0,0-.53-.78c-.35-.15-.71-.29-1.08-.41a14.5,14.5,0,0,0-3-.65c-.54-.07-1.08-.11-1.62-.14a15.94,15.94,0,0,0-4.25.35,10.33,10.33,0,0,0-5.42,3.13,4.91,4.91,0,0,0,.07,6.67,10.33,10.33,0,0,0,5.48,3,15.91,15.91,0,0,0,4.25.27c.54,0,1.08-.09,1.62-.17a14.69,14.69,0,0,0,3-.71c.36-.13.72-.27,1.07-.42a.87.87,0,0,0,.51-.8Z"/></g><g id="ARC-43" data-name="ARC"><path class="cls-7" d="M567.65,149.64c3.22-.42,11.9-1,11.9-1"/></g><g id="ARC-44" data-name="ARC"><path class="cls-7" d="M579.4,164.15a1.12,1.12,0,0,1-1.06-1,56.26,56.26,0,0,1,0-13.56,1.12,1.12,0,0,1,1.06-1h0c1.17-.05,2.33-.1,3.5-.12a1.49,1.49,0,0,1,1.52,1.36q.29,3.26.28,6.53t-.28,6.53a1.49,1.49,0,0,1-1.52,1.36c-1.17,0-2.33-.07-3.5-.12Z"/></g><g id="ARC-45" data-name="ARC"><path class="cls-7" d="M581,187a1.19,1.19,0,1,0,0-.95Z"/></g><g id="ARC-46" data-name="ARC"><path class="cls-7" d="M582.28,192.45a1.19,1.19,0,1,0-.48,0Z"/></g><g id="ARC-47" data-name="ARC"><path class="cls-7" d="M582.28,180.62a1.19,1.19,0,1,1-.48,0Z"/></g><g id="LINE-52" data-name="LINE"><path class="cls-7" d="M576.34,187H582a.48.48,0,1,0,0-.95h-5.7a.48.48,0,1,0,0,.95Z"/></g><line class="cls-7" x1="582.04" y1="191.28" x2="582.04" y2="194.61"/><line class="cls-7" x1="582.04" y1="178.46" x2="582.04" y2="181.8"/></g><g id="A-WALL"><g id="LWPOLYLINE-104" data-name="LWPOLYLINE"><polygon class="cls-14" points="451.66 251.11 451.66 240.78 563.93 240.78 563.93 214.12 592.05 214.12 592.05 0.76 591.04 2.55 589.42 4.5 587.49 6.14 585.3 7.41 582.92 8.28 580.43 8.73 577.9 8.73 575.4 8.28 573.03 7.41 570.84 6.14 568.91 4.5 567.29 2.55 566.04 0.34 562.29 0.34 562.29 17.22 561.59 17.22 561.59 137.92 499.24 137.92 499.24 156.67 481.43 156.67 481.43 160.19 499.24 160.19 499.24 167.22 502.76 167.22 502.76 141.44 584.79 141.44 584.79 205.07 555.73 205.07 555.73 238.82 520.1 238.82 520.1 205.07 502.76 205.07 502.76 200.97 499.24 200.97 499.24 212.81 495.96 212.81 495.96 216.32 513.3 216.32 513.3 238.82 447.21 238.82 447.21 216.32 450.96 216.32 450.96 212.81 440.41 212.81 440.41 238.82 436.66 238.82 436.66 244.56 439.59 244.56 439.59 250.19 445.34 250.19 445.34 251.11 448.09 251.11 451.66 251.11"/></g><g id="LWPOLYLINE-105" data-name="LWPOLYLINE"><polygon class="cls-14" points="444.15 160.19 447.68 160.19 447.68 156.67 443.93 156.67 443.93 22.84 449.79 22.84 449.79 0.34 446.04 0.34 444.79 2.55 443.17 4.5 441.24 6.14 439.05 7.41 436.68 8.28 434.18 8.73 431.65 8.73 429.15 8.28 426.78 7.41 424.59 6.14 422.66 4.5 421.04 2.55 419.79 0.34 416.04 0.34 416.04 22.84 440.41 22.84 440.41 160.19 444.15 160.19"/></g><g id="LWPOLYLINE-106" data-name="LWPOLYLINE"><polygon class="cls-14" points="151.55 121.28 157.29 121.28 157.29 0.34 153.54 0.34 152.29 2.55 150.67 4.5 148.74 6.14 146.55 7.41 144.18 8.28 141.68 8.73 139.15 8.73 136.65 8.28 134.28 7.41 132.09 6.14 130.16 4.5 128.54 2.55 127.29 0.34 123.54 0.34 123.54 22.84 151.55 22.84 151.55 75.42 151.55 121.28"/></g><g id="LWPOLYLINE-107" data-name="LWPOLYLINE"><polygon class="cls-14" points="296.16 53.9 303.66 53.9 303.66 0.34 299.79 0.34 298.54 2.55 296.92 4.5 294.99 6.14 292.8 7.41 290.43 8.28 287.93 8.73 285.4 8.73 282.9 8.28 280.53 7.41 278.34 6.14 276.41 4.5 274.79 2.55 273.54 0.34 269.79 0.34 269.79 17.22 269.67 17.22 269.67 53.9 296.16 53.9"/></g><polygon class="cls-14" points="386.04 238.82 386.04 210.23 376.43 210.23 376.43 238.82 342.56 238.82 342.56 233.66 167.6 233.66 167.6 163.7 191.04 163.7 191.04 160.19 157.29 160.19 157.29 155.03 151.55 155.03 151.55 160.19 145.81 160.19 145.81 163.7 164.09 163.7 164.09 220.19 108.31 220.19 108.31 163.7 112.06 163.7 112.06 160.19 98.34 160.19 98.34 163.7 104.79 163.7 104.79 233.08 3.07 233.08 3.07 163.7 64.59 163.7 64.59 160.19 11.74 160.19 11.74 17.22 11.04 17.22 11.04 0.34 0.2 0.34 0.2 241.31 344.79 241.31 344.79 247.62 344.79 248.27 344.79 250.19 344.79 303.19 378.36 303.19 378.36 250.19 388.97 250.19 388.97 244.56 402.91 244.56 402.91 238.82 386.04 238.82"/><line class="cls-15" x1="11.04" y1="0.34" x2="123.54" y2="0.34"/><line class="cls-15" x1="157.29" y1="0.34" x2="269.79" y2="0.34"/></g><g id="LABELS"><text class="cls-16" transform="translate(47.44 80.27)"><tspan class="cls-17">M<tspan class="cls-18" x="7.4" y="0">A</tspan><tspan class="cls-19" x="12.71" y="0">S</tspan><tspan class="cls-20" x="18.01" y="0">T</tspan><tspan class="cls-21" x="23.22" y="0">E</tspan><tspan class="cls-22" x="28.17" y="0">R </tspan></tspan><tspan class="cls-23"><tspan x="-2.51" y="8.5">B</tspan><tspan class="cls-21" x="3.11" y="8.5">E</tspan><tspan class="cls-24" x="8.06" y="8.5">D</tspan><tspan class="cls-25" x="13.85" y="8.5">RO</tspan><tspan class="cls-26" x="25.4" y="8.5">O</tspan><tspan class="cls-19" x="31.42" y="8.5">M</tspan></tspan><tspan class="cls-27" x="-9.14" y="17">1</tspan><tspan class="cls-28" x="-5.72" y="17">2</tspan><tspan x="-0.38" y="17">&apos;</tspan><tspan class="cls-29" x="1.66" y="17">-</tspan><tspan class="cls-30" x="5.11" y="17">5</tspan><tspan class="cls-31" x="10.08" y="17">&quot;</tspan><tspan class="cls-32" x="13.66" y="17"> </tspan><tspan class="cls-33" x="15.66" y="17">×</tspan><tspan class="cls-32" x="20.16" y="17"> </tspan><tspan class="cls-27" x="22.16" y="17">1</tspan><tspan class="cls-28" x="25.58" y="17">2</tspan><tspan class="cls-34" x="30.92" y="17">&apos;</tspan><tspan class="cls-35" x="33.24" y="17">-</tspan><tspan class="cls-36" x="36.69" y="17">8</tspan><tspan class="cls-31" x="41.73" y="17">&quot;</tspan></text><text class="cls-16" transform="translate(471.65 121.28)"><tspan class="cls-23">B<tspan class="cls-21" x="5.62" y="0">E</tspan><tspan class="cls-24" x="10.58" y="0">D</tspan><tspan class="cls-25" x="16.36" y="0">RO</tspan><tspan class="cls-26" x="27.92" y="0">O</tspan><tspan class="cls-19" x="33.94" y="0">M 2</tspan></tspan><tspan class="cls-37" x="-3" y="8.5">1</tspan><tspan class="cls-38" x="0.49" y="8.5">0</tspan><tspan x="6.09" y="8.5">&apos;</tspan><tspan class="cls-29" x="8.13" y="8.5">-</tspan><tspan class="cls-30" x="11.58" y="8.5">5</tspan><tspan class="cls-31" x="16.55" y="8.5">&quot;</tspan><tspan class="cls-39" x="20.12" y="8.5"> </tspan><tspan class="cls-40" x="22.12" y="8.5">×</tspan><tspan class="cls-39" x="26.63" y="8.5"> </tspan><tspan class="cls-41" x="28.63" y="8.5">1</tspan><tspan class="cls-38" x="32.12" y="8.5">0</tspan><tspan class="cls-34" x="37.71" y="8.5">&apos;</tspan><tspan class="cls-35" x="40.03" y="8.5">-</tspan><tspan class="cls-20" x="43.48" y="8.5">8</tspan><tspan class="cls-31" x="48.52" y="8.5">&quot;</tspan></text><text class="cls-16" transform="translate(199.06 146.48)"><tspan class="cls-20">L<tspan class="cls-42" x="4.65" y="0">I</tspan><tspan class="cls-43" x="7.29" y="0">V</tspan><tspan class="cls-44" x="12.73" y="0">I</tspan><tspan class="cls-26" x="15.29" y="0">N</tspan><tspan class="cls-19" x="21.25" y="0">G / </tspan><tspan class="cls-45" x="36.27" y="0">D</tspan><tspan class="cls-44" x="42.07" y="0">I</tspan><tspan class="cls-46" x="44.64" y="0">N</tspan><tspan class="cls-47" x="50.56" y="0">I</tspan><tspan class="cls-26" x="53.13" y="0">N</tspan><tspan class="cls-19" x="59.08" y="0">G </tspan><tspan class="cls-48" x="67.43" y="0">RO</tspan><tspan class="cls-26" x="78.98" y="0">O</tspan><tspan class="cls-19" x="85" y="0">M</tspan></tspan><tspan class="cls-49" x="18.1" y="8.5">2</tspan><tspan class="cls-30" x="23.33" y="8.5">5</tspan><tspan x="28.3" y="8.5">&apos;</tspan><tspan class="cls-50" x="30.34" y="8.5">-</tspan><tspan class="cls-51" x="33.59" y="8.5">2</tspan><tspan class="cls-19" x="38.93" y="8.5">&quot;</tspan><tspan class="cls-32" x="42.5" y="8.5"> </tspan><tspan class="cls-33" x="44.5" y="8.5">×</tspan><tspan class="cls-32" x="49.01" y="8.5"> </tspan><tspan class="cls-27" x="51.01" y="8.5">1</tspan><tspan class="cls-28" x="54.43" y="8.5">2</tspan><tspan class="cls-34" x="59.77" y="8.5">&apos;</tspan><tspan class="cls-35" x="62.09" y="8.5">-</tspan><tspan class="cls-36" x="65.54" y="8.5">8</tspan><tspan class="cls-31" x="70.57" y="8.5">&quot;</tspan></text><text class="cls-52" transform="translate(398.12 204.43)">F<tspan class="cls-53" x="5.25" y="0">O</tspan><tspan class="cls-54" x="11.36" y="0">Y</tspan><tspan class="cls-55" x="16.9" y="0">E</tspan><tspan class="cls-56" x="22.17" y="0">R</tspan></text><text class="cls-57" transform="translate(350.1 227.82)">W<tspan class="cls-58" x="7.41" y="0">/</tspan><tspan class="cls-56" x="11.84" y="0">D</tspan></text><text class="cls-59" transform="translate(168.47 180.62)">W<tspan class="cls-60" x="6.81" y="0">/</tspan><tspan class="cls-61" x="10.5" y="0">S</tspan><tspan class="cls-62" x="15.64" y="0">O</tspan></text><text class="cls-63" transform="translate(325.77 225.63)">R</text><text class="cls-64" transform="translate(192.58 225.3)">D<tspan class="cls-56" x="6.09" y="0">W</tspan></text><polygon class="cls-65" points="413.68 259.91 419.07 245.51 424.48 259.91 413.68 259.91"/></g></g></svg>