<svg xmlns="http://www.w3.org/2000/svg" viewBox="0 0 744.78 321.38"><defs><style>.cls-1,.cls-3,.cls-4{fill:#b3bebd;}.cls-1,.cls-10,.cls-11,.cls-2,.cls-3,.cls-4,.cls-5,.cls-6,.cls-7,.cls-8,.cls-9{stroke:#fff;}.cls-1,.cls-10,.cls-2,.cls-3,.cls-4,.cls-5,.cls-6,.cls-8,.cls-9{stroke-linecap:round;stroke-linejoin:round;}.cls-1{stroke-width:0.15px;}.cls-10,.cls-2,.cls-5,.cls-6,.cls-7,.cls-8,.cls-9{fill:none;}.cls-2,.cls-4{stroke-width:0.15px;}.cls-10,.cls-3,.cls-6,.cls-7,.cls-9{stroke-width:0.25px;}.cls-11,.cls-5{stroke-width:0.4px;}.cls-11,.cls-7{stroke-miterlimit:10;}.cls-8{stroke-width:0.2px;}.cls-9{stroke-dasharray:1.32 1.32;}.cls-10{stroke-dasharray:2 2;}.cls-11{fill:#e1e5e5;}.cls-12,.cls-34,.cls-44,.cls-59,.cls-65,.cls-66{font-size:8px;fill:#fff;font-family:MaisonNeue-Book, Maison Neue;}.cls-13{letter-spacing:0.08em;}.cls-14{letter-spacing:0.07em;}.cls-15{letter-spacing:0.06em;}.cls-16{letter-spacing:0.06em;}.cls-17{letter-spacing:0.06em;}.cls-18{letter-spacing:0.06em;}.cls-19,.cls-59{letter-spacing:0.07em;}.cls-20{letter-spacing:0.07em;}.cls-21{letter-spacing:0.08em;}.cls-22{letter-spacing:0.07em;}.cls-23{letter-spacing:0.06em;}.cls-24{letter-spacing:0.08em;}.cls-25{letter-spacing:0.06em;}.cls-26{letter-spacing:0.06em;}.cls-27{letter-spacing:-0.02em;}.cls-28{letter-spacing:0.02em;}.cls-29{letter-spacing:0.05em;}.cls-30{letter-spacing:0.07em;}.cls-31{letter-spacing:0.03em;}.cls-32{letter-spacing:0.06em;}.cls-33{letter-spacing:0.06em;}.cls-34,.cls-42{letter-spacing:0.11em;}.cls-35{letter-spacing:0.11em;}.cls-36{letter-spacing:0.09em;}.cls-37{letter-spacing:0.13em;}.cls-38{letter-spacing:0.11em;}.cls-39{letter-spacing:0.11em;}.cls-40,.cls-66{letter-spacing:0.1em;}.cls-41{letter-spacing:0.12em;}.cls-43,.cls-65{letter-spacing:0.1em;}.cls-44{letter-spacing:0.11em;}.cls-45{letter-spacing:0.1em;}.cls-46{letter-spacing:0.11em;}.cls-47{letter-spacing:0.1em;}.cls-48{letter-spacing:0.1em;}.cls-49{letter-spacing:0.14em;}.cls-50{letter-spacing:0.05em;}.cls-51{letter-spacing:0.06em;}.cls-52{letter-spacing:-0.02em;}.cls-53{letter-spacing:0.02em;}.cls-54{letter-spacing:0.05em;}.cls-55{letter-spacing:0.05em;}.cls-56{letter-spacing:0.03em;}.cls-57{letter-spacing:0.07em;}.cls-58{letter-spacing:0.06em;}.cls-60{letter-spacing:0.05em;}.cls-61{letter-spacing:0em;}.cls-62{letter-spacing:0.06em;}.cls-63{letter-spacing:0.07em;}.cls-64{letter-spacing:0.06em;}</style></defs><title>Asset 2</title><g id="Layer_2" data-name="Layer 2"><g id="A-RUG"><g id="LWPOLYLINE"><rect class="cls-1" x="594.11" y="34.07" width="111.19" height="122.48"/></g></g><g id="A-STAIR-ELEVATOR"><g id="LWPOLYLINE-2" data-name="LWPOLYLINE"><path class="cls-2" d="M289.31,124.32a1.7,1.7,0,0,0,.59.1,1.88,1.88,0,0,0,1.47-.72,1.5,1.5,0,0,1,.05.37,1.52,1.52,0,0,1-1.52,1.52,3.81,3.81,0,0,1-.59,0"/></g><g id="LWPOLYLINE-3" data-name="LWPOLYLINE"><path class="cls-2" d="M398.18,116.33H289.9a5.83,5.83,0,0,0-.59,0"/></g><g id="LWPOLYLINE-4" data-name="LWPOLYLINE"><polyline class="cls-2" points="386.93 35.47 357.98 35.47 357.98 76.14"/></g><g id="LWPOLYLINE-5" data-name="LWPOLYLINE"><rect class="cls-2" x="347.67" y="35.47" width="10.31" height="38.91"/></g><g id="LWPOLYLINE-6" data-name="LWPOLYLINE"><rect class="cls-2" x="347.67" y="77.9" width="10.31" height="38.44"/></g><g id="LWPOLYLINE-7" data-name="LWPOLYLINE"><rect class="cls-2" x="337.36" y="35.47" width="10.31" height="38.91"/></g><g id="LWPOLYLINE-8" data-name="LWPOLYLINE"><rect class="cls-2" x="337.36" y="77.9" width="10.31" height="38.44"/></g><g id="LWPOLYLINE-9" data-name="LWPOLYLINE"><rect class="cls-2" x="327.04" y="35.47" width="10.31" height="38.91"/></g><g id="LWPOLYLINE-10" data-name="LWPOLYLINE"><rect class="cls-2" x="327.04" y="77.9" width="10.31" height="38.44"/></g><g id="LWPOLYLINE-11" data-name="LWPOLYLINE"><rect class="cls-2" x="316.73" y="35.47" width="10.31" height="38.91"/></g><g id="LWPOLYLINE-12" data-name="LWPOLYLINE"><rect class="cls-2" x="316.73" y="77.9" width="10.31" height="38.44"/></g><g id="LWPOLYLINE-13" data-name="LWPOLYLINE"><rect class="cls-2" x="306.42" y="35.47" width="10.31" height="38.91"/></g><g id="LWPOLYLINE-14" data-name="LWPOLYLINE"><rect class="cls-2" x="306.42" y="77.9" width="10.31" height="38.44"/></g><g id="LWPOLYLINE-15" data-name="LWPOLYLINE"><rect class="cls-2" x="296.11" y="35.47" width="10.31" height="40.06"/></g><g id="LWPOLYLINE-16" data-name="LWPOLYLINE"><rect class="cls-2" x="296.11" y="77.9" width="10.31" height="38.44"/></g><g id="LWPOLYLINE-17" data-name="LWPOLYLINE"><path class="cls-2" d="M296.11,35.47H285.79V88.91a14.77,14.77,0,0,1,10.32-14.08Z"/></g><g id="LWPOLYLINE-18" data-name="LWPOLYLINE"><rect class="cls-2" x="246.19" y="90.43" width="39.61" height="10.31"/></g><g id="LWPOLYLINE-19" data-name="LWPOLYLINE"><rect class="cls-2" x="246.19" y="100.75" width="39.61" height="10.31"/></g><g id="LWPOLYLINE-20" data-name="LWPOLYLINE"><path class="cls-3" d="M398.18,139.65v3.52H300.56a14.77,14.77,0,0,1-14.77-14.77V88.91a14.77,14.77,0,0,1,12.15-14.53h60V77.9H300.56a11.25,11.25,0,0,0-11.25,11.25V128.4a11.25,11.25,0,0,0,11.25,11.25Z"/></g><g id="LWPOLYLINE-21" data-name="LWPOLYLINE"><path class="cls-2" d="M397.94,117.15h-108a3.81,3.81,0,0,0-.59,0"/></g><g id="LWPOLYLINE-22" data-name="LWPOLYLINE"><path class="cls-2" d="M289.31,127.43a5.65,5.65,0,0,0,.59,0,3.4,3.4,0,0,0,0-6.8,2,2,0,0,0-.59.09"/></g><g id="LWPOLYLINE-23" data-name="LWPOLYLINE"><path class="cls-2" d="M289.31,119.08a3.81,3.81,0,0,1,.59,0h108v-1.88"/></g><g id="LWPOLYLINE-24" data-name="LWPOLYLINE"><path class="cls-2" d="M289.31,128.26a5.83,5.83,0,0,0,.59,0,4.22,4.22,0,1,0,0-8.44H398.18v-3.52"/></g><g id="LWPOLYLINE-25" data-name="LWPOLYLINE"><path class="cls-3" d="M395.37,111.29h1.4V46.72a9.85,9.85,0,0,0-9.84-9.84H257.44a9.85,9.85,0,0,0-9.85,9.84v60.94H249V46.72a8.43,8.43,0,0,1,8.44-8.43H386.93a8.43,8.43,0,0,1,8.44,8.43Z"/></g></g><g id="A-FURN-MASK"><g id="LWPOLYLINE-26" data-name="LWPOLYLINE"><rect class="cls-4" x="621.54" y="201.92" width="56.25" height="15"/></g><g id="LWPOLYLINE-27" data-name="LWPOLYLINE"><rect class="cls-4" x="160.58" y="177.55" width="56.25" height="15"/></g><g id="LWPOLYLINE-28" data-name="LWPOLYLINE"><rect class="cls-4" x="112.18" y="295.04" width="22.5" height="16.88"/></g><g id="LWPOLYLINE-29" data-name="LWPOLYLINE"><rect class="cls-4" x="25.93" y="295.04" width="22.5" height="16.88"/></g><g id="LWPOLYLINE-30" data-name="LWPOLYLINE"><rect class="cls-4" x="52.18" y="231.29" width="56.25" height="80.63"/></g><g id="LWPOLYLINE-31" data-name="LWPOLYLINE"><rect class="cls-4" x="52.18" y="185.05" width="56.25" height="15"/></g><g id="LWPOLYLINE-32" data-name="LWPOLYLINE"><rect class="cls-4" x="52.18" y="166.75" width="56.25" height="15"/></g><g id="LWPOLYLINE-33" data-name="LWPOLYLINE"><rect class="cls-4" x="69.27" y="37.85" width="22.5" height="15.94"/></g><g id="LWPOLYLINE-34" data-name="LWPOLYLINE"><polygon class="cls-4" points="675.58 192.11 677.49 190.8 677.28 190.49 677.14 189.92 677.4 189.4 678.89 188.16 680.09 187.14 681.17 186.3 682.63 185.23 683.99 184.28 684.54 183.9 684.99 183.62 685.57 183.25 686.22 182.83 687.77 181.91 689.24 181.07 690.42 180.45 691 180.4 691.48 180.73 691.69 181.04 694.12 179.36 706.99 198.08 688.45 210.82 675.58 192.11"/></g><g id="LINE"><line class="cls-2" x1="704.55" y1="199.75" x2="691.69" y2="181.04"/></g><g id="LINE-2" data-name="LINE"><line class="cls-2" x1="677.49" y1="190.8" x2="690.36" y2="209.51"/></g><g id="ARC"><path class="cls-2" d="M701.69,195.58a40.15,40.15,0,0,0-14.2,9.76"/></g><g id="ARC-2" data-name="ARC"><path class="cls-2" d="M703.6,198.36a101.27,101.27,0,0,0-14.2,9.76"/></g></g><g id="A-FURN"><g id="LINE-3" data-name="LINE"><line class="cls-2" x1="108.43" y1="309.11" x2="52.18" y2="309.11"/></g><g id="LINE-4" data-name="LINE"><line class="cls-2" x1="108.43" y1="234.11" x2="52.18" y2="234.11"/></g><g id="LINE-5" data-name="LINE"><line class="cls-2" x1="108.43" y1="286.35" x2="52.18" y2="289.34"/></g><g id="LWPOLYLINE-35" data-name="LWPOLYLINE"><rect class="cls-2" x="54.72" y="291.88" width="24.31" height="14.68"/></g><g id="LINE-6" data-name="LINE"><line class="cls-2" x1="108.43" y1="278.93" x2="52.57" y2="289.32"/></g><g id="LWPOLYLINE-36" data-name="LWPOLYLINE"><rect class="cls-2" x="81.58" y="291.88" width="24.31" height="14.68"/></g><g id="LWPOLYLINE-37" data-name="LWPOLYLINE"><rect class="cls-2" x="95.51" y="37.72" width="35.63" height="80.62"/></g><g id="LINE-7" data-name="LINE"><line class="cls-2" x1="95.51" y1="40.53" x2="131.14" y2="40.53"/></g><g id="LINE-8" data-name="LINE"><line class="cls-2" x1="95.51" y1="62.27" x2="131.14" y2="60.3"/></g><g id="LINE-9" data-name="LINE"><line class="cls-2" x1="95.51" y1="66.3" x2="130.74" y2="60.32"/></g><g id="LWPOLYLINE-38" data-name="LWPOLYLINE"><rect class="cls-2" x="98.05" y="43.07" width="30.54" height="14.68"/></g><g id="LINE-10" data-name="LINE"><line class="cls-2" x1="95.51" y1="40.53" x2="131.14" y2="40.53"/></g><line class="cls-2" x1="95.51" y1="115.53" x2="131.14" y2="115.53"/><g id="LWPOLYLINE-39" data-name="LWPOLYLINE"><rect class="cls-2" x="29.37" y="37.72" width="35.63" height="80.63"/></g><g id="LINE-11" data-name="LINE"><line class="cls-2" x1="65" y1="40.53" x2="29.37" y2="40.53"/></g><g id="LINE-12" data-name="LINE"><line class="cls-2" x1="65" y1="62.27" x2="29.37" y2="60.3"/></g><g id="LINE-13" data-name="LINE"><line class="cls-2" x1="65" y1="66.3" x2="29.77" y2="60.32"/></g><g id="LWPOLYLINE-40" data-name="LWPOLYLINE"><rect class="cls-2" x="31.92" y="43.07" width="30.54" height="14.68"/></g><g id="LINE-14" data-name="LINE"><line class="cls-2" x1="65" y1="40.53" x2="29.37" y2="40.53"/></g><line class="cls-2" x1="65" y1="115.53" x2="29.37" y2="115.53"/><g id="LWPOLYLINE-41" data-name="LWPOLYLINE"><rect class="cls-4" x="614.08" y="27.96" width="71.25" height="80.63"/></g><g id="LINE-15" data-name="LINE"><line class="cls-2" x1="685.33" y1="52.44" x2="614.08" y2="50.54"/></g><g id="LWPOLYLINE-42" data-name="LWPOLYLINE"><rect class="cls-2" x="616.62" y="33.32" width="31.81" height="14.68"/></g><g id="LINE-16" data-name="LINE"><line class="cls-2" x1="685.33" y1="57.92" x2="614.48" y2="50.56"/></g><g id="LINE-17" data-name="LINE"><line class="cls-2" x1="685.33" y1="30.78" x2="614.08" y2="30.78"/></g><g id="LINE-18" data-name="LINE"><line class="cls-2" x1="685.33" y1="105.78" x2="614.08" y2="105.78"/></g><g id="LWPOLYLINE-43" data-name="LWPOLYLINE"><rect class="cls-2" x="650.98" y="33.32" width="31.81" height="14.68"/></g><g id="LWPOLYLINE-44" data-name="LWPOLYLINE"><rect class="cls-4" x="596.09" y="27.96" width="15.9" height="15.94"/></g><g id="LWPOLYLINE-45" data-name="LWPOLYLINE"><rect class="cls-4" x="687.43" y="27.96" width="15.9" height="15.94"/></g></g><g id="A-GLAZ-SILL"><g id="LWPOLYLINE-46" data-name="LWPOLYLINE"><polyline class="cls-5" points="727.71 95.36 722.08 95.36 722.08 35.36 727.71 35.36"/></g><g id="LWPOLYLINE-47" data-name="LWPOLYLINE"><polyline class="cls-5" points="727.71 189.11 722.08 189.11 722.08 129.11 727.71 129.11"/></g><g id="LWPOLYLINE-48" data-name="LWPOLYLINE"><polyline class="cls-5" points="11.45 63.01 17.07 63.01 17.07 153.01 11.45 153.01"/></g><g id="LWPOLYLINE-49" data-name="LWPOLYLINE"><polyline class="cls-5" points="11.45 214.89 17.07 214.89 17.07 288.01 11.45 288.01"/></g><g id="LWPOLYLINE-50" data-name="LWPOLYLINE"><line class="cls-5" x1="11.45" y1="152.07" x2="6.76" y2="152.07"/><line class="cls-5" x1="6.76" y1="63.01" x2="11.45" y2="63.01"/></g></g><g id="A-GLAZ"><g id="LWPOLYLINE-51" data-name="LWPOLYLINE"><rect class="cls-6" x="730.23" y="38.17" width="1.23" height="25.66"/></g><g id="LWPOLYLINE-52" data-name="LWPOLYLINE"><rect class="cls-6" x="730.23" y="66.88" width="1.23" height="25.66"/></g><g id="LWPOLYLINE-53" data-name="LWPOLYLINE"><rect class="cls-6" x="730.23" y="131.92" width="1.23" height="25.66"/></g><g id="LWPOLYLINE-54" data-name="LWPOLYLINE"><rect class="cls-6" x="730.23" y="160.63" width="1.23" height="25.66"/></g><g id="LWPOLYLINE-55" data-name="LWPOLYLINE"><polygon class="cls-6" points="8.93 91.18 8.93 64.89 7.7 64.89 7.7 65.83 7.7 90.47 7.7 91.18 8.93 91.18"/></g><g id="LWPOLYLINE-56" data-name="LWPOLYLINE"><polygon class="cls-6" points="8.93 149.26 8.93 93.75 7.7 93.75 7.7 94.46 7.7 149.26 8.93 149.26"/></g><g id="LWPOLYLINE-57" data-name="LWPOLYLINE"><polygon class="cls-6" points="8.93 238.36 8.93 216.76 7.7 216.76 7.7 218.64 7.7 237.66 7.7 238.36 8.93 238.36"/></g><g id="LWPOLYLINE-58" data-name="LWPOLYLINE"><polygon class="cls-6" points="8.93 285.2 8.93 240.94 7.7 240.94 7.7 241.65 7.7 285.2 8.93 285.2"/></g><line class="cls-6" x1="11.49" y1="65.54" x2="11.49" y2="150.01"/><line class="cls-6" x1="11.49" y1="208.5" x2="11.49" y2="292.97"/><line class="cls-6" x1="727.76" y1="34.04" x2="727.76" y2="189.2"/></g><g id="A-GLAZ-MUL"><g id="LWPOLYLINE-59" data-name="LWPOLYLINE"><polygon class="cls-7" points="730.23 39.11 730.23 38.17 731.46 38.17 731.46 39.11 732.4 39.11 732.4 37.23 736.15 37.23 736.15 36.29 732.4 36.29 732.4 35.36 727.71 35.36 727.71 39.11 730.23 39.11"/></g><g id="LWPOLYLINE-60" data-name="LWPOLYLINE"><polygon class="cls-7" points="732.4 95.36 732.4 94.42 736.15 94.42 736.15 93.48 732.4 93.48 732.4 91.61 731.46 91.61 731.46 92.54 730.23 92.54 730.23 91.61 727.71 91.61 727.71 95.36 732.4 95.36"/></g><g id="LWPOLYLINE-61" data-name="LWPOLYLINE"><polygon class="cls-7" points="730.23 132.86 730.23 131.92 731.46 131.92 731.46 132.86 732.4 132.86 732.4 130.98 736.15 130.98 736.15 130.04 732.4 130.04 732.4 129.11 727.71 129.11 727.71 132.86 730.23 132.86"/></g><g id="LWPOLYLINE-62" data-name="LWPOLYLINE"><polyline class="cls-7" points="734.74 158.64 734.74 159.57 732.4 159.57 732.4 161.33 731.46 161.33 731.46 160.63 730.23 160.63 730.23 161.33 727.71 161.33 727.71 159.46 728.18 159.46 728.18 158.75 727.71 158.75 727.71 156.88 730.23 156.88 730.23 157.57 731.46 157.58 731.46 156.88 732.4 156.88 732.4 158.64 734.74 158.64"/></g><g id="LWPOLYLINE-63" data-name="LWPOLYLINE"><polygon class="cls-7" points="732.4 189.11 732.4 188.17 736.15 188.17 736.15 187.23 732.4 187.23 732.4 185.36 731.46 185.36 731.46 186.29 730.23 186.29 730.23 185.36 727.71 185.36 727.71 189.11 732.4 189.11"/></g><g id="LWPOLYLINE-64" data-name="LWPOLYLINE"><polygon class="cls-7" points="11.45 152.07 11.45 148.32 8.93 148.32 8.93 149.26 7.7 149.26 7.7 148.32 6.76 148.32 6.76 150.2 6.76 152.07 11.45 152.07"/></g><g id="LWPOLYLINE-65" data-name="LWPOLYLINE"><polygon class="cls-7" points="11.45 63.01 11.45 65.83 8.93 65.83 8.93 64.89 7.7 64.89 7.7 65.83 6.76 65.83 6.76 63.95 6.76 63.01 11.45 63.01"/></g><g id="LWPOLYLINE-66" data-name="LWPOLYLINE"><polygon class="cls-7" points="10.1 94.46 10.1 93.52 10.98 93.52 10.98 92.35 11.45 92.35 11.45 90.47 8.93 90.47 8.93 91.18 7.7 91.18 7.7 90.47 6.76 90.47 6.76 91.18 6.76 93.75 6.76 94.46 7.7 94.46 7.7 93.75 8.93 93.75 8.93 94.46 10.1 94.46"/></g><g id="LWPOLYLINE-67" data-name="LWPOLYLINE"><polygon class="cls-7" points="11.45 288.01 11.45 284.26 8.93 284.26 8.93 285.2 7.7 285.2 7.7 284.26 6.76 284.26 6.76 286.14 6.76 288.01 11.45 288.01"/></g><g id="LWPOLYLINE-68" data-name="LWPOLYLINE"><polygon class="cls-7" points="11.45 214.89 11.45 218.64 8.93 218.64 8.93 216.76 7.7 216.76 7.7 218.64 6.76 218.64 6.76 215.82 6.76 214.89 11.45 214.89"/></g><g id="LWPOLYLINE-69" data-name="LWPOLYLINE"><polygon class="cls-7" points="10.1 241.65 10.1 240.71 10.98 240.71 10.98 239.54 11.45 239.54 11.45 237.66 8.93 237.66 8.93 238.36 7.7 238.36 7.7 237.66 6.76 237.66 6.76 238.36 6.76 240.94 6.76 241.65 7.7 241.65 7.7 240.94 8.93 240.94 8.93 241.65 10.1 241.65"/></g><g id="LWPOLYLINE-70" data-name="LWPOLYLINE"><polyline class="cls-7" points="734.74 64.89 734.74 65.83 732.4 65.83 732.4 67.58 731.46 67.58 731.46 66.88 730.23 66.88 730.23 67.58 727.71 67.58 727.71 65.71 728.18 65.71 728.18 65 727.71 65 727.71 63.13 730.23 63.13 730.23 63.82 731.46 63.83 731.46 63.13 732.4 63.13 732.4 64.89 734.74 64.89"/></g></g><g id="A-OUTER_WINDOW_SILL" data-name="A-OUTER WINDOW SILL"><g id="LWPOLYLINE-71" data-name="LWPOLYLINE"><polyline class="cls-5" points="727.71 95.36 744.58 95.36 744.58 35.36 727.71 35.36"/></g><g id="LWPOLYLINE-72" data-name="LWPOLYLINE"><polyline class="cls-5" points="727.71 189.11 744.58 189.11 744.58 129.11 727.71 129.11"/></g><g id="LWPOLYLINE-73" data-name="LWPOLYLINE"><polyline class="cls-5" points="6.76 62.08 0.2 62.08 0.2 152.07 6.76 152.07"/></g><g id="LWPOLYLINE-74" data-name="LWPOLYLINE"><polyline class="cls-5" points="6.76 214.89 0.2 214.89 0.2 288.01 6.76 288.01"/></g></g><g id="A-DOOR"><g id="LWPOLYLINE-75" data-name="LWPOLYLINE"><rect class="cls-8" x="414.45" y="147.24" width="1.64" height="33.75" transform="translate(5.58 341.71) rotate(-45)"/></g><g id="LWPOLYLINE-76" data-name="LWPOLYLINE"><rect class="cls-8" x="527.29" y="144.34" width="33.75" height="1.64"/></g><g id="LWPOLYLINE-77" data-name="LWPOLYLINE"><rect class="cls-8" x="488.79" y="190.98" width="33.75" height="1.64"/></g><g id="LWPOLYLINE-78" data-name="LWPOLYLINE"><rect class="cls-8" x="446.93" y="144.34" width="33.75" height="1.64"/></g><g id="LWPOLYLINE-79" data-name="LWPOLYLINE"><rect class="cls-8" x="407.67" y="190.98" width="33.75" height="1.64"/></g><g id="LWPOLYLINE-80" data-name="LWPOLYLINE"><rect class="cls-8" x="365.37" y="203.05" width="28.12" height="1.64"/></g><g id="LWPOLYLINE-81" data-name="LWPOLYLINE"><rect class="cls-8" x="337.24" y="203.05" width="28.13" height="1.64"/></g><g id="LWPOLYLINE-82" data-name="LWPOLYLINE"><rect class="cls-8" x="255.81" y="206.79" width="33.75" height="1.64" transform="translate(-66.93 253.63) rotate(-45)"/></g><g id="LWPOLYLINE-83" data-name="LWPOLYLINE"><rect class="cls-8" x="230.5" y="155.97" width="1.64" height="33.75" transform="translate(-54.47 214.19) rotate(-45)"/></g><g id="LWPOLYLINE-84" data-name="LWPOLYLINE"><rect class="cls-8" x="241.09" y="250.04" width="33.75" height="1.64"/></g><g id="LWPOLYLINE-85" data-name="LWPOLYLINE"><rect class="cls-8" x="153.02" y="239.38" width="33.75" height="1.64"/></g><g id="LWPOLYLINE-86" data-name="LWPOLYLINE"><rect class="cls-8" x="200.37" y="132.27" width="33.75" height="1.64"/></g><g id="LWPOLYLINE-87" data-name="LWPOLYLINE"><rect class="cls-8" x="150.79" y="104.38" width="33.75" height="1.64"/></g><g id="LWPOLYLINE-88" data-name="LWPOLYLINE"><rect class="cls-8" x="414.45" y="147.24" width="1.64" height="33.75" transform="translate(5.58 341.71) rotate(-45)"/></g><g id="LWPOLYLINE-89" data-name="LWPOLYLINE"><rect class="cls-8" x="527.29" y="144.34" width="33.75" height="1.64"/></g><g id="LWPOLYLINE-90" data-name="LWPOLYLINE"><rect class="cls-8" x="488.79" y="190.98" width="33.75" height="1.64"/></g><g id="LWPOLYLINE-91" data-name="LWPOLYLINE"><rect class="cls-8" x="407.67" y="190.98" width="33.75" height="1.64"/></g><g id="LWPOLYLINE-92" data-name="LWPOLYLINE"><rect class="cls-8" x="241.09" y="250.04" width="33.75" height="1.64"/></g><g id="ARC-3" data-name="ARC"><path class="cls-8" d="M403.92,185.36a33.73,33.73,0,0,0,23.86-9.89"/></g><g id="ARC-4" data-name="ARC"><path class="cls-8" d="M251.45,196.25a33.75,33.75,0,0,0,9.89,23.87"/></g><g id="ARC-5" data-name="ARC"><path class="cls-8" d="M242.67,151.61a33.76,33.76,0,0,0-23.87,9.88"/></g><g id="ARC-6" data-name="ARC"><path class="cls-8" d="M403.92,185.36a33.73,33.73,0,0,0,23.86-9.89"/></g><g id="LWPOLYLINE-93" data-name="LWPOLYLINE"><path class="cls-9" d="M727.71,93.48l-9.93-26.31a28.11,28.11,0,0,1,9.93-1.81"/></g><g id="LWPOLYLINE-94" data-name="LWPOLYLINE"><path class="cls-9" d="M727.71,37.23l-9.93,26.32a28.33,28.33,0,0,0,9.93,1.81"/></g><g id="LWPOLYLINE-95" data-name="LWPOLYLINE"><path class="cls-9" d="M727.71,187.23l-9.93-26.31a28.11,28.11,0,0,1,9.93-1.81"/></g><g id="LWPOLYLINE-96" data-name="LWPOLYLINE"><path class="cls-9" d="M727.71,131l-9.93,26.32a28.33,28.33,0,0,0,9.93,1.81"/></g></g><g id="A-BATH"><g id="LWPOLYLINE-97" data-name="LWPOLYLINE"><rect class="cls-6" x="404.03" y="75.04" width="37.53" height="0.86"/></g><g id="LWPOLYLINE-98" data-name="LWPOLYLINE"><rect class="cls-6" x="403.92" y="75.9" width="38.44" height="68.44"/></g><g id="LWPOLYLINE-99" data-name="LWPOLYLINE"><rect class="cls-6" x="411.42" y="78.6" width="24.38" height="61.05" rx="4.69" ry="4.69"/></g><g id="CIRCLE"><path class="cls-6" d="M423.61,130.81a2.11,2.11,0,1,1-2.11,2.11,2.11,2.11,0,0,1,2.11-2.11Z"/></g><g id="LWPOLYLINE-100" data-name="LWPOLYLINE"><rect class="cls-6" x="403.92" y="33.72" width="38.44" height="42.19"/></g><g id="ARC-7" data-name="ARC"><path class="cls-6" d="M423.23,40.7a3.29,3.29,0,1,0,.79,0"/></g><g id="LWPOLYLINE-101" data-name="LWPOLYLINE"><path class="cls-6" d="M424,44V33.79h-.78V44a.39.39,0,0,0,.78,0Z"/></g><g id="LWPOLYLINE-102" data-name="LWPOLYLINE"><path class="cls-6" d="M226.34,51.29h-5.82A4.69,4.69,0,0,0,215.83,56V94.65a4.69,4.69,0,0,0,4.69,4.69h12.42a4.69,4.69,0,0,0,4.69-4.69V56a4.69,4.69,0,0,0-4.69-4.69h-5.82"/></g><g id="ARC-8" data-name="ARC"><path class="cls-6" d="M226.33,53.47a3.29,3.29,0,1,0,.79,0"/></g><g id="LWPOLYLINE-103" data-name="LWPOLYLINE"><path class="cls-6" d="M227.12,56.69V45.5h-.78V56.69a.41.41,0,0,0,.39.43A.41.41,0,0,0,227.12,56.69Z"/></g><g id="LWPOLYLINE-104" data-name="LWPOLYLINE"><rect class="cls-6" x="280.13" y="251.68" width="0.71" height="28.47"/></g><g id="LWPOLYLINE-105" data-name="LWPOLYLINE"><rect class="cls-6" x="280.13" y="280.15" width="0.71" height="40.88"/></g><g id="ARC-9" data-name="ARC"><path class="cls-6" d="M294.65,259a3.24,3.24,0,1,0,.79,0"/></g><g id="LWPOLYLINE-106" data-name="LWPOLYLINE"><path class="cls-6" d="M295.44,262.21V251.68h-.77v10.53a.39.39,0,1,0,.77,0Z"/></g><g id="LWPOLYLINE-107" data-name="LWPOLYLINE"><polyline class="cls-6" points="280.05 315.43 310.99 315.43 310.99 251.68 280.05 251.68"/></g><g id="LWPOLYLINE-108" data-name="LWPOLYLINE"><rect class="cls-3" x="441.53" y="33.56" width="0.78" height="42.32"/></g><g id="ARC-10" data-name="ARC"><path class="cls-6" d="M423.23,40.7a3.29,3.29,0,1,0,.79,0"/></g><g id="LWPOLYLINE-109" data-name="LWPOLYLINE"><path class="cls-6" d="M424,44V33.79h-.78V44a.39.39,0,0,0,.78,0Z"/></g><g id="ARC-11" data-name="ARC"><path class="cls-3" d="M424,137.35a3.29,3.29,0,1,0-.79,0"/></g><g id="LWPOLYLINE-110" data-name="LWPOLYLINE"><path class="cls-3" d="M423.24,134.09v10.17H424V134.09a.39.39,0,0,0-.78,0Z"/></g><g id="ARC-12" data-name="ARC"><path class="cls-3" d="M424,137.35a3.29,3.29,0,1,0-.79,0"/></g><g id="LWPOLYLINE-111" data-name="LWPOLYLINE"><path class="cls-3" d="M423.24,134.09v10.17H424V134.09a.39.39,0,0,0-.78,0Z"/></g><g id="LWPOLYLINE-112" data-name="LWPOLYLINE"><rect class="cls-6" x="211.73" y="46.25" width="30.94" height="58.12"/></g><g id="LWPOLYLINE-113" data-name="LWPOLYLINE"><path class="cls-6" d="M226.34,51.29h-5.82A4.69,4.69,0,0,0,215.83,56V94.65a4.69,4.69,0,0,0,4.69,4.69h12.42a4.69,4.69,0,0,0,4.69-4.69V56a4.69,4.69,0,0,0-4.69-4.69h-5.82"/></g><g id="ARC-13" data-name="ARC"><path class="cls-3" d="M496,55.65c3.06.33,11.13,1,11.13,1"/></g><g id="ARC-14" data-name="ARC"><path class="cls-3" d="M503.11,44.77a.82.82,0,0,0-.5-.75c-.34-.14-.68-.26-1-.38a14.45,14.45,0,0,0-2.83-.62c-.51-.06-1-.1-1.54-.13a15.08,15.08,0,0,0-4,.33,9.78,9.78,0,0,0-5.12,3,4.62,4.62,0,0,0,.06,6.3,9.8,9.8,0,0,0,5.18,2.87,15.49,15.49,0,0,0,4,.25c.52,0,1-.09,1.54-.16a14.46,14.46,0,0,0,2.82-.67c.34-.13.68-.26,1-.41a.79.79,0,0,0,.48-.75Z"/></g><g id="ARC-15" data-name="ARC"><path class="cls-3" d="M495.9,42.88c3.05-.39,11.25-1,11.25-1"/></g><g id="ARC-16" data-name="ARC"><path class="cls-3" d="M507,56.61a1.06,1.06,0,0,1-1-.93,54.42,54.42,0,0,1,0-12.84,1.06,1.06,0,0,1,1-.93h0c1.1,0,2.2-.09,3.31-.12a1.43,1.43,0,0,1,1.44,1.29q.25,3.09.26,6.18t-.26,6.18a1.43,1.43,0,0,1-1.44,1.29c-1.11,0-2.21-.07-3.31-.12Z"/></g><g id="LWPOLYLINE-114" data-name="LWPOLYLINE"><path class="cls-6" d="M505.76,86.06V78a.89.89,0,0,0-.89-.89h-10.7a.89.89,0,0,0-.89.89V95a.89.89,0,0,0,.89.89h10.7a.89.89,0,0,0,.89-.89V86.06Z"/></g><g id="ARC-17" data-name="ARC"><path class="cls-3" d="M508,87a1.12,1.12,0,1,0,0-.9Z"/></g><g id="ARC-18" data-name="ARC"><path class="cls-3" d="M509.24,92.1a1.13,1.13,0,1,0-.45,0Z"/></g><g id="ARC-19" data-name="ARC"><path class="cls-3" d="M509.24,80.9a1.13,1.13,0,0,1-.23,2.23,1.13,1.13,0,0,1-.22-2.23Z"/></g><g id="LINE-19" data-name="LINE"><path class="cls-3" d="M503.62,87H509a.45.45,0,0,0,0-.9h-5.39a.45.45,0,1,0,0,.9Z"/></g><line class="cls-3" x1="509.01" y1="90.99" x2="509.01" y2="94.14"/><line class="cls-3" x1="509.01" y1="78.86" x2="509.01" y2="82.02"/><g id="LWPOLYLINE-115" data-name="LWPOLYLINE"><path class="cls-6" d="M505.76,112.79v-8a.89.89,0,0,0-.89-.9h-10.7a.89.89,0,0,0-.89.9v16.94a.89.89,0,0,0,.89.89h10.7a.89.89,0,0,0,.89-.89v-8.92Z"/></g><g id="LWPOLYLINE-116" data-name="LWPOLYLINE"><rect class="cls-6" x="490.6" y="65.31" width="21.4" height="64.2"/></g><g id="ARC-20" data-name="ARC"><path class="cls-3" d="M508,113.91a1.12,1.12,0,1,0,0-.9Z"/></g><g id="ARC-21" data-name="ARC"><path class="cls-3" d="M509.24,119.06a1.13,1.13,0,0,0-.23-2.23,1.13,1.13,0,0,0-.22,2.23Z"/></g><g id="ARC-22" data-name="ARC"><path class="cls-3" d="M509.24,107.86a1.13,1.13,0,1,1-.45,0Z"/></g><g id="LINE-20" data-name="LINE"><path class="cls-3" d="M503.62,113.91H509a.45.45,0,1,0,0-.9h-5.39a.45.45,0,1,0,0,.9Z"/></g><line class="cls-3" x1="509.01" y1="117.94" x2="509.01" y2="121.1"/><line class="cls-3" x1="509.01" y1="105.82" x2="509.01" y2="108.97"/><g id="LWPOLYLINE-117" data-name="LWPOLYLINE"><rect class="cls-3" x="215.44" y="256.24" width="20.08" height="26.15"/></g><g id="LWPOLYLINE-118" data-name="LWPOLYLINE"><path class="cls-3" d="M231.6,277.26a1.12,1.12,0,0,0,1.12-1.12V262.5a1.12,1.12,0,0,0-1.12-1.12H221.51a.93.93,0,0,0-.93.93v14a.94.94,0,0,0,.93.94Z"/></g><g id="ARC-23" data-name="ARC"><path class="cls-3" d="M232.18,292.52c-3.2-.35-11.66-1-11.66-1"/></g><g id="ARC-24" data-name="ARC"><path class="cls-3" d="M224.76,303.91a.83.83,0,0,0,.52.78c.35.15.71.28,1.07.4a14.37,14.37,0,0,0,3,.65c.54.06,1.08.11,1.61.14a16.06,16.06,0,0,0,4.21-.35,10.2,10.2,0,0,0,5.37-3.1,4.85,4.85,0,0,0-.06-6.61,10.26,10.26,0,0,0-5.43-3,16.08,16.08,0,0,0-4.21-.26c-.54,0-1.08.09-1.61.16a14.76,14.76,0,0,0-2.95.71c-.36.13-.72.27-1.07.42a.84.84,0,0,0-.5.79Z"/></g><g id="ARC-25" data-name="ARC"><path class="cls-3" d="M232.31,305.89c-3.2.41-11.79,1-11.79,1"/></g><g id="ARC-26" data-name="ARC"><path class="cls-3" d="M220.66,291.51a1.11,1.11,0,0,1,1.06,1,56.65,56.65,0,0,1,0,13.44,1.12,1.12,0,0,1-1.06,1h0l-3.46.12a1.47,1.47,0,0,1-1.51-1.35q-.28-3.23-.28-6.47t.28-6.47a1.49,1.49,0,0,1,1.51-1.36c1.15,0,2.3.07,3.46.13Z"/></g><g id="ARC-27" data-name="ARC"><path class="cls-3" d="M219.18,268.85a1.17,1.17,0,0,0-1.07-.71,1.18,1.18,0,1,0,1.07,1.65Z"/></g><g id="ARC-28" data-name="ARC"><path class="cls-3" d="M217.87,263.46a1.17,1.17,0,0,0-.94,1.15,1.18,1.18,0,1,0,2.35,0,1.17,1.17,0,0,0-.94-1.15Z"/></g><g id="ARC-29" data-name="ARC"><path class="cls-3" d="M217.87,275.18a1.17,1.17,0,0,1-.94-1.15,1.18,1.18,0,1,1,2.35,0,1.17,1.17,0,0,1-.94,1.15Z"/></g><g id="LINE-21" data-name="LINE"><path class="cls-3" d="M223.76,268.85h-5.65a.47.47,0,1,0,0,.94h5.65a.47.47,0,1,0,0-.94Z"/></g><line class="cls-3" x1="218.11" y1="264.62" x2="218.11" y2="261.31"/><line class="cls-3" x1="218.11" y1="277.33" x2="218.11" y2="274.02"/><g id="LWPOLYLINE-119" data-name="LWPOLYLINE"><rect class="cls-3" x="179.68" y="40.61" width="24.74" height="19.33"/></g><g id="LWPOLYLINE-120" data-name="LWPOLYLINE"><path class="cls-3" d="M184.54,56.16a1.06,1.06,0,0,0,1.06,1.08h12.9a1.07,1.07,0,0,0,1.06-1.08V46.45a.9.9,0,0,0-.89-.9H185.42a.89.89,0,0,0-.88.9Z"/></g><g id="ARC-30" data-name="ARC"><path class="cls-3" d="M170.1,56.72c.34-3.08,1-11.22,1-11.22"/></g><g id="ARC-31" data-name="ARC"><path class="cls-3" d="M159.33,49.57a.82.82,0,0,0-.74.51c-.14.34-.26.68-.38,1A14.62,14.62,0,0,0,157.6,54c-.06.52-.1,1-.13,1.55a15.3,15.3,0,0,0,.33,4.05,9.88,9.88,0,0,0,2.93,5.17,4.53,4.53,0,0,0,6.25-.06,9.85,9.85,0,0,0,2.84-5.23,15.72,15.72,0,0,0,.25-4c0-.52-.09-1-.16-1.55a13.81,13.81,0,0,0-.67-2.84q-.18-.53-.39-1a.8.8,0,0,0-.75-.49Z"/></g><g id="ARC-32" data-name="ARC"><path class="cls-3" d="M157.46,56.84c-.39-3.07-1-11.34-1-11.34"/></g><g id="ARC-33" data-name="ARC"><path class="cls-3" d="M171.06,45.64a1.05,1.05,0,0,1-.92,1,50.15,50.15,0,0,1-6.36.38,50,50,0,0,1-6.36-.38,1.07,1.07,0,0,1-.93-1v0q-.09-1.66-.12-3.33a1.41,1.41,0,0,1,1.28-1.45c2-.18,4.08-.27,6.12-.27s4.08.09,6.12.27a1.42,1.42,0,0,1,1.28,1.45q0,1.66-.12,3.33Z"/></g><g id="ARC-34" data-name="ARC"><path class="cls-3" d="M192.49,44.21a1.13,1.13,0,0,0-.44-2.17,1.11,1.11,0,0,0-1,.68,1.14,1.14,0,0,0,.57,1.49Z"/></g><g id="ARC-35" data-name="ARC"><path class="cls-3" d="M197.59,43A1.11,1.11,0,0,0,196.5,42a1.14,1.14,0,0,0,0,2.27,1.11,1.11,0,0,0,1.09-.91Z"/></g><g id="ARC-36" data-name="ARC"><path class="cls-3" d="M186.5,43a1.14,1.14,0,1,1,0,.45Z"/></g><g id="LINE-22" data-name="LINE"><path class="cls-3" d="M192.49,48.61V43.17a.45.45,0,1,0-.89,0v5.44a.45.45,0,1,0,.89,0Z"/></g><line class="cls-3" x1="196.49" y1="43.17" x2="199.62" y2="43.17"/><line class="cls-3" x1="184.48" y1="43.17" x2="187.6" y2="43.17"/></g><g id="A-MECH"><g id="LINE-23" data-name="LINE"><line class="cls-3" x1="337.7" y1="268.09" x2="363.01" y2="268.09"/></g><g id="LINE-24" data-name="LINE"><line class="cls-3" x1="363.01" y1="268.09" x2="363.01" y2="240.2"/></g><g id="LINE-25" data-name="LINE"><line class="cls-3" x1="363.01" y1="240.2" x2="337.7" y2="240.2"/></g><g id="LINE-26" data-name="LINE"><line class="cls-3" x1="337.7" y1="240.2" x2="337.7" y2="268.09"/></g><g id="LINE-27" data-name="LINE"><line class="cls-3" x1="367.23" y1="268.09" x2="392.54" y2="268.09"/></g><g id="LINE-28" data-name="LINE"><line class="cls-3" x1="392.54" y1="268.09" x2="392.54" y2="240.2"/></g><g id="LINE-29" data-name="LINE"><line class="cls-3" x1="392.54" y1="240.2" x2="367.23" y2="240.2"/></g><g id="LINE-30" data-name="LINE"><line class="cls-3" x1="367.23" y1="240.2" x2="367.23" y2="268.09"/></g></g><g id="A-ABOVE"><g id="LWPOLYLINE-121" data-name="LWPOLYLINE"><line class="cls-10" x1="403.92" y1="205.75" x2="445.17" y2="205.75"/></g><g id="LWPOLYLINE-122" data-name="LWPOLYLINE"><line class="cls-10" x1="484.43" y1="205.75" x2="533.06" y2="205.75"/></g><g id="LWPOLYLINE-123" data-name="LWPOLYLINE"><polyline class="cls-10" points="194.51 241.02 194.51 304.18 147.04 304.18"/></g><g id="LWPOLYLINE-124" data-name="LWPOLYLINE"><line class="cls-10" x1="191.81" y1="119.15" x2="242.67" y2="119.15"/></g><g id="LWPOLYLINE-125" data-name="LWPOLYLINE"><polyline class="cls-10" points="523.54 43.91 574.78 43.91 574.78 144.34"/></g></g><g id="A-HANGER"><g id="LINE-31" data-name="LINE"><line class="cls-7" x1="529.11" y1="199.22" x2="529.11" y2="212.27"/></g><g id="LINE-32" data-name="LINE"><line class="cls-7" x1="526.69" y1="199.22" x2="526.69" y2="212.27"/></g><g id="LINE-33" data-name="LINE"><line class="cls-7" x1="524.28" y1="199.22" x2="524.27" y2="212.27"/></g><g id="LINE-34" data-name="LINE"><line class="cls-7" x1="521.86" y1="199.22" x2="521.86" y2="212.27"/></g><g id="LINE-35" data-name="LINE"><line class="cls-7" x1="519.44" y1="199.22" x2="519.44" y2="212.27"/></g><g id="LINE-36" data-name="LINE"><line class="cls-7" x1="517.02" y1="212.27" x2="517.02" y2="199.22"/></g><g id="LINE-37" data-name="LINE"><line class="cls-7" x1="441.22" y1="199.22" x2="441.22" y2="212.27"/></g><g id="LINE-38" data-name="LINE"><line class="cls-7" x1="438.8" y1="199.22" x2="438.8" y2="212.27"/></g><g id="LINE-39" data-name="LINE"><line class="cls-7" x1="436.39" y1="199.22" x2="436.38" y2="212.27"/></g><g id="LINE-40" data-name="LINE"><line class="cls-7" x1="433.97" y1="199.22" x2="433.96" y2="212.27"/></g><g id="LINE-41" data-name="LINE"><line class="cls-7" x1="431.55" y1="199.22" x2="431.55" y2="212.27"/></g><g id="LINE-42" data-name="LINE"><line class="cls-7" x1="429.13" y1="212.27" x2="429.13" y2="199.22"/></g><g id="LINE-43" data-name="LINE"><line class="cls-7" x1="201.03" y1="244.97" x2="187.98" y2="244.97"/></g><g id="LINE-44" data-name="LINE"><line class="cls-7" x1="201.03" y1="247.39" x2="187.98" y2="247.39"/></g><g id="LINE-45" data-name="LINE"><line class="cls-7" x1="201.03" y1="249.8" x2="187.98" y2="249.81"/></g><g id="LINE-46" data-name="LINE"><line class="cls-7" x1="201.03" y1="252.22" x2="187.98" y2="252.22"/></g><g id="LINE-47" data-name="LINE"><line class="cls-7" x1="201.03" y1="254.64" x2="187.98" y2="254.64"/></g><g id="LINE-48" data-name="LINE"><line class="cls-7" x1="187.98" y1="257.06" x2="201.03" y2="257.06"/></g><g id="LINE-49" data-name="LINE"><line class="cls-7" x1="150.99" y1="310.71" x2="150.99" y2="297.66"/></g><g id="LINE-50" data-name="LINE"><line class="cls-7" x1="153.41" y1="310.71" x2="153.41" y2="297.66"/></g><g id="LINE-51" data-name="LINE"><line class="cls-7" x1="155.83" y1="310.71" x2="155.83" y2="297.66"/></g><g id="LINE-52" data-name="LINE"><line class="cls-7" x1="158.25" y1="310.71" x2="158.25" y2="297.66"/></g><g id="LINE-53" data-name="LINE"><line class="cls-7" x1="160.67" y1="310.71" x2="160.67" y2="297.66"/></g><g id="LINE-54" data-name="LINE"><line class="cls-7" x1="163.09" y1="297.66" x2="163.09" y2="310.71"/></g><g id="LINE-55" data-name="LINE"><line class="cls-7" x1="197.27" y1="112.62" x2="197.27" y2="125.67"/></g><g id="LINE-56" data-name="LINE"><line class="cls-7" x1="199.69" y1="112.62" x2="199.69" y2="125.67"/></g><g id="LINE-57" data-name="LINE"><line class="cls-7" x1="202.11" y1="112.62" x2="202.11" y2="125.67"/></g><g id="LINE-58" data-name="LINE"><line class="cls-7" x1="204.53" y1="112.62" x2="204.53" y2="125.67"/></g><g id="LINE-59" data-name="LINE"><line class="cls-7" x1="206.95" y1="112.62" x2="206.95" y2="125.67"/></g><g id="LINE-60" data-name="LINE"><line class="cls-7" x1="209.37" y1="125.67" x2="209.37" y2="112.62"/></g><g id="LINE-61" data-name="LINE"><line class="cls-7" x1="581.31" y1="140.39" x2="568.25" y2="140.39"/></g><g id="LINE-62" data-name="LINE"><line class="cls-7" x1="581.31" y1="137.98" x2="568.25" y2="137.98"/></g><g id="LINE-63" data-name="LINE"><line class="cls-7" x1="581.31" y1="135.56" x2="568.25" y2="135.56"/></g><g id="LINE-64" data-name="LINE"><line class="cls-7" x1="581.31" y1="133.14" x2="568.25" y2="133.14"/></g><g id="LINE-65" data-name="LINE"><line class="cls-7" x1="581.31" y1="130.72" x2="568.25" y2="130.72"/></g><g id="LINE-66" data-name="LINE"><line class="cls-7" x1="568.25" y1="128.3" x2="581.31" y2="128.3"/></g><g id="LINE-67" data-name="LINE"><line class="cls-7" x1="527.49" y1="37.38" x2="527.49" y2="50.44"/></g><g id="LINE-68" data-name="LINE"><line class="cls-7" x1="529.91" y1="37.38" x2="529.91" y2="50.44"/></g><g id="LINE-69" data-name="LINE"><line class="cls-7" x1="532.32" y1="37.38" x2="532.33" y2="50.44"/></g><g id="LINE-70" data-name="LINE"><line class="cls-7" x1="534.74" y1="37.38" x2="534.74" y2="50.44"/></g><g id="LINE-71" data-name="LINE"><line class="cls-7" x1="537.16" y1="37.38" x2="537.16" y2="50.44"/></g><g id="LINE-72" data-name="LINE"><line class="cls-7" x1="539.58" y1="50.44" x2="539.58" y2="37.38"/></g><g id="LINE-73" data-name="LINE"><line class="cls-7" x1="581.31" y1="63.2" x2="568.25" y2="63.2"/></g><g id="LINE-74" data-name="LINE"><line class="cls-7" x1="581.31" y1="60.78" x2="568.25" y2="60.78"/></g><g id="LINE-75" data-name="LINE"><line class="cls-7" x1="581.31" y1="58.36" x2="568.25" y2="58.36"/></g><g id="LINE-76" data-name="LINE"><line class="cls-7" x1="581.31" y1="55.94" x2="568.25" y2="55.94"/></g><g id="LINE-77" data-name="LINE"><line class="cls-7" x1="581.31" y1="53.52" x2="568.25" y2="53.52"/></g><g id="LINE-78" data-name="LINE"><line class="cls-7" x1="568.25" y1="51.1" x2="581.31" y2="51.1"/></g><g id="LINE-79" data-name="LINE"><line class="cls-7" x1="438.8" y1="199.22" x2="438.8" y2="212.27"/></g></g><g id="A-WALL"><g id="LWPOLYLINE-126" data-name="LWPOLYLINE"><polyline class="cls-11" points="310.99 315.43 215.37 315.43 215.37 251.68 241.09 251.68 241.09 248.17 237.34 248.17 237.34 237.5 186.77 237.5 186.77 241.02 205.76 241.02 205.76 315.43 147.04 315.43 147.04 241.02 153.02 241.02 153.02 237.5 147.04 237.5 147.04 233.75 143.53 233.75 143.53 311.92 17.07 311.92 17.07 288.01 10.78 288.01 0.2 288.01 0.2 291.76 2.08 291.76 2.08 317.92 82.18 317.92 144.12 317.92 144.12 321.18 343.57 321.18 343.57 276.76 400.99 276.76 400.99 219.87 464.8 219.87 464.8 192.74 482.67 192.74 482.67 219.87 744.58 219.87 744.58 219.11 742.38 217.86 740.43 216.24 738.79 214.31 737.52 212.12 736.64 209.74 736.2 207.25 736.2 204.72 736.64 202.22 737.52 199.84 738.79 197.65 740.43 195.72 742.38 194.11 744.58 192.86 744.58 189.11 709.19 189.11 709.19 217 589.54 217 589.54 186.3 586.03 186.3 586.03 190.98 522.54 190.98 522.54 194.5 533.06 194.5 533.06 217 484.43 217 484.43 194.5 488.79 194.5 488.79 190.98 441.42 190.98 441.42 194.5 445.17 194.5 445.17 217 403.92 217 403.92 194.5 407.67 194.5 407.67 190.98 403.92 190.98 403.92 185.36 398.18 185.36 398.18 203.05 393.49 203.05 393.49 206.57 398.18 206.57 398.18 269.61 318.25 269.61 318.25 221.1 332.67 221.1 332.67 206.57 337.24 206.57 337.24 203.05 332.67 203.05 332.67 192.74 285.2 192.74 285.2 196.25 288.95 196.25 288.95 248.17 274.84 248.17 274.84 251.68 310.99 251.68 310.99 315.43"/></g><g id="LWPOLYLINE-127" data-name="LWPOLYLINE"><polygon class="cls-11" points="722.08 120.55 722.08 129.11 744.58 129.11 744.58 125.36 742.38 124.11 740.43 122.49 738.79 120.55 737.52 118.37 736.64 115.99 736.2 113.5 736.2 110.97 736.64 108.47 737.52 106.09 738.79 103.9 740.43 101.97 742.38 100.36 744.58 99.11 744.58 95.36 722.08 95.36 722.08 120.55"/></g><g id="LWPOLYLINE-128" data-name="LWPOLYLINE"><polygon class="cls-11" points="0.2 62.08 6.76 62.08 6.76 63.01 17.07 63.01 17.07 37.82 143.53 37.82 143.53 144.11 147.04 144.11 147.04 107.89 150.79 107.89 150.79 104.38 147.04 104.38 147.04 40.63 210.79 40.63 210.79 46.25 242.67 46.25 242.67 104.38 184.54 104.38 184.54 107.89 188.29 107.89 188.29 133.91 200.37 133.91 200.37 130.4 191.81 130.4 191.81 107.89 242.67 107.89 242.67 130.4 234.12 130.4 234.12 133.91 242.67 133.91 242.67 151.61 246.19 151.61 246.19 46.72 246.4 44.53 247.04 42.42 248.22 40.3 249.48 38.77 251.19 37.37 253.13 36.33 255.24 35.69 257.44 35.47 386.93 35.47 389.12 35.69 391.23 36.33 393.18 37.37 394.88 38.77 396.28 40.47 397.32 42.42 397.96 44.53 398.18 46.72 398.18 151.61 403.92 151.61 403.92 147.86 446.93 147.86 446.93 144.34 403.92 144.34 403.92 33.72 441.42 33.72 441.42 30.32 512.05 30.32 512.05 144.34 480.68 144.34 480.68 147.86 527.29 147.86 527.29 144.34 523.54 144.34 523.54 32.66 586.03 32.66 586.03 144.34 561.04 144.34 561.04 147.86 586.03 147.86 586.03 152.55 589.54 152.55 589.54 28.44 709.78 28.44 709.78 35.36 744.58 35.36 744.58 31.61 742.38 30.43 740.4 28.9 738.71 27.07 737.33 24.98 736.33 22.69 735.71 20.24 735.5 17.78 735.71 15.29 736.33 12.87 737.33 10.58 738.71 8.49 740.4 6.66 742.38 5.13 744.58 3.95 744.58 0.2 530.37 0.2 530.37 4.42 273.96 4.42 273.96 9.57 2.08 9.57 2.08 58.33 0.2 58.33 0.2 60.37 0.2 62.08"/></g><g id="LWPOLYLINE-129" data-name="LWPOLYLINE"><polygon class="cls-11" points="0.2 211.14 0.2 214.89 38.76 214.89 38.76 185.12 143.53 185.12 143.53 200 147.04 200 147.04 196.25 251.45 196.25 251.45 192.74 246.19 192.74 246.19 185.36 242.67 185.36 242.67 192.74 147.04 192.74 147.04 177.86 143.53 177.86 143.53 181.61 17.07 181.61 17.07 153.01 11.45 153.01 11.45 152.07 0.2 152.07 0.2 155.82 2.08 155.82 2.08 211.14 0.2 211.14"/></g></g><g id="LABELS"><text class="cls-12" transform="translate(635.82 130.81)"><tspan class="cls-13">M<tspan class="cls-14" x="7.4" y="0">A</tspan><tspan class="cls-15" x="12.71" y="0">S</tspan><tspan class="cls-16" x="18.01" y="0">T</tspan><tspan class="cls-17" x="23.22" y="0">E</tspan><tspan class="cls-18" x="28.17" y="0">R </tspan></tspan><tspan class="cls-19"><tspan x="-2.51" y="8.5">B</tspan><tspan class="cls-17" x="3.11" y="8.5">E</tspan><tspan class="cls-20" x="8.06" y="8.5">D</tspan><tspan class="cls-21" x="13.85" y="8.5">RO</tspan><tspan class="cls-22" x="25.4" y="8.5">O</tspan><tspan class="cls-15" x="31.42" y="8.5">M</tspan></tspan><tspan class="cls-15" x="-9.4" y="17">1</tspan><tspan class="cls-23" x="-5.92" y="17">6</tspan><tspan x="-0.48" y="17">&apos;</tspan><tspan class="cls-24" x="1.56" y="17">-</tspan><tspan class="cls-25" x="5.07" y="17">9</tspan><tspan class="cls-26" x="10.28" y="17">&quot;</tspan><tspan class="cls-27" x="13.85" y="17"> </tspan><tspan class="cls-28" x="15.85" y="17">×</tspan><tspan class="cls-27" x="20.36" y="17"> </tspan><tspan class="cls-29" x="22.36" y="17">1</tspan><tspan class="cls-30" x="25.78" y="17">2</tspan><tspan class="cls-31" x="31.12" y="17">&apos;</tspan><tspan class="cls-32" x="33.44" y="17">-</tspan><tspan class="cls-33" x="36.78" y="17">3</tspan><tspan class="cls-26" x="41.99" y="17">&quot;</tspan></text><text class="cls-34" transform="translate(527.63 93.75)">D<tspan class="cls-35" x="6.11" y="0">R</tspan><tspan class="cls-36" x="11.87" y="0">E</tspan><tspan class="cls-37" x="17.12" y="0">S</tspan><tspan class="cls-38" x="22.95" y="0">S</tspan><tspan class="cls-39" x="28.67" y="0">I</tspan><tspan x="31.55" y="0">N</tspan><tspan class="cls-40" x="37.83" y="0">G</tspan><tspan class="cls-41"><tspan x="8.87" y="8.5">RO</tspan><tspan class="cls-42" x="21.07" y="8.5">O</tspan><tspan class="cls-43" x="27.41" y="8.5">M</tspan></tspan></text><text class="cls-44" transform="translate(348.95 220.12)">U<tspan class="cls-45" x="6.14" y="0">T</tspan><tspan class="cls-46" x="11.68" y="0">I</tspan><tspan class="cls-47" x="14.56" y="0">L</tspan><tspan class="cls-48" x="19.54" y="0">I</tspan><tspan class="cls-49" x="22.38" y="0">T</tspan><tspan class="cls-43" x="28.24" y="0">Y</tspan><tspan class="cls-41"><tspan x="3.76" y="8.5">RO</tspan><tspan class="cls-42" x="15.95" y="8.5">O</tspan><tspan class="cls-43" x="22.29" y="8.5">M</tspan></tspan></text><text class="cls-12" transform="translate(57.27 141.05)"><tspan class="cls-19">B<tspan class="cls-17" x="5.62" y="0">E</tspan><tspan class="cls-20" x="10.58" y="0">D</tspan><tspan class="cls-21" x="16.36" y="0">RO</tspan><tspan class="cls-22" x="27.92" y="0">O</tspan><tspan class="cls-15" x="33.94" y="0">M 2</tspan></tspan><tspan class="cls-50" x="-1.88" y="8.5">1</tspan><tspan class="cls-30" x="1.54" y="8.5">2</tspan><tspan x="6.89" y="8.5">&apos;</tspan><tspan class="cls-24" x="8.93" y="8.5">-</tspan><tspan class="cls-51" x="12.44" y="8.5">9</tspan><tspan class="cls-15" x="17.65" y="8.5">&quot;</tspan><tspan class="cls-52" x="21.23" y="8.5"> </tspan><tspan class="cls-53" x="23.23" y="8.5">×</tspan><tspan class="cls-52" x="27.73" y="8.5"> </tspan><tspan class="cls-54" x="29.73" y="8.5">1</tspan><tspan class="cls-55" x="33.17" y="8.5">1</tspan><tspan class="cls-56" x="36.59" y="8.5">&apos;</tspan><tspan class="cls-57" x="38.91" y="8.5">-</tspan><tspan class="cls-58" x="42.36" y="8.5">8</tspan><tspan class="cls-15" x="47.4" y="8.5">&quot;</tspan></text><text class="cls-59" transform="translate(57.29 216.06)">B<tspan class="cls-17" x="5.62" y="0">E</tspan><tspan class="cls-20" x="10.58" y="0">D</tspan><tspan class="cls-21" x="16.36" y="0">RO</tspan><tspan class="cls-22" x="27.92" y="0">O</tspan><tspan class="cls-15" x="33.94" y="0">M 3</tspan><tspan class="cls-54"><tspan x="-0.86" y="8.5">1</tspan><tspan class="cls-60" x="2.57" y="8.5">1</tspan><tspan class="cls-61" x="6" y="8.5">&apos;</tspan><tspan class="cls-62" x="8.04" y="8.5">-</tspan><tspan class="cls-33" x="11.39" y="8.5">3</tspan><tspan class="cls-18" x="16.59" y="8.5">&quot;</tspan><tspan class="cls-52" x="20.16" y="8.5"> </tspan><tspan class="cls-53" x="22.16" y="8.5">×</tspan><tspan class="cls-52" x="26.67" y="8.5"> </tspan><tspan x="28.67" y="8.5">1</tspan><tspan class="cls-60" x="32.11" y="8.5">1</tspan><tspan class="cls-31" x="35.53" y="8.5">&apos;</tspan><tspan class="cls-63" x="37.85" y="8.5">-</tspan><tspan class="cls-64" x="41.3" y="8.5">8</tspan><tspan class="cls-15" x="46.33" y="8.5">&quot;</tspan></tspan></text><text class="cls-65" transform="translate(376.3 256.89)">W</text><text class="cls-66" transform="translate(347.34 256.64)">D</text></g></g></svg>