<svg xmlns="http://www.w3.org/2000/svg" viewBox="0 0 345.99 456.62"><defs><style>.cls-1,.cls-10,.cls-16,.cls-3,.cls-6,.cls-7,.cls-8,.cls-9{fill:none;}.cls-1,.cls-10,.cls-11,.cls-15,.cls-16,.cls-17,.cls-2,.cls-3,.cls-4,.cls-5,.cls-6,.cls-7,.cls-8,.cls-9{stroke:#231f20;}.cls-1,.cls-10,.cls-11,.cls-16,.cls-2,.cls-3,.cls-4,.cls-6,.cls-7{stroke-linecap:round;stroke-linejoin:round;}.cls-1,.cls-11,.cls-15,.cls-16,.cls-6,.cls-8{stroke-width:0.25px;}.cls-1{stroke-dasharray:1.32 1.32;}.cls-11,.cls-15,.cls-2,.cls-4,.cls-5{fill:#fff;}.cls-2{stroke-width:0.15px;}.cls-3,.cls-4,.cls-5{stroke-width:0.15px;}.cls-15,.cls-17,.cls-5,.cls-8,.cls-9{stroke-miterlimit:10;}.cls-17,.cls-7{stroke-width:0.4px;}.cls-9{stroke-width:0.4px;}.cls-10{stroke-width:0.2px;}.cls-12,.cls-18,.cls-50,.cls-54,.cls-58{font-size:8px;font-family:MaisonNeue-Book, Maison Neue;}.cls-12,.cls-18,.cls-50,.cls-54,.cls-58,.cls-59{fill:#231f20;}.cls-12{letter-spacing:0.08em;}.cls-13{letter-spacing:0.11em;}.cls-14,.cls-54{letter-spacing:0.1em;}.cls-16{stroke-dasharray:2 2;}.cls-17{fill:#e1e5e5;}.cls-19{letter-spacing:0.08em;}.cls-20{letter-spacing:0.07em;}.cls-21{letter-spacing:0.06em;}.cls-22{letter-spacing:0.06em;}.cls-23{letter-spacing:0.06em;}.cls-24{letter-spacing:0.06em;}.cls-25{letter-spacing:0.07em;}.cls-26{letter-spacing:0.07em;}.cls-27{letter-spacing:0.08em;}.cls-28{letter-spacing:0.07em;}.cls-29{letter-spacing:0.05em;}.cls-30{letter-spacing:0.08em;}.cls-31{letter-spacing:0.05em;}.cls-32{letter-spacing:0.06em;}.cls-33{letter-spacing:-0.02em;}.cls-34{letter-spacing:0.02em;}.cls-35{letter-spacing:0.05em;}.cls-36{letter-spacing:0.07em;}.cls-37{letter-spacing:0.03em;}.cls-38{letter-spacing:0.08em;}.cls-39{letter-spacing:0.06em;}.cls-40{letter-spacing:0.08em;}.cls-41{letter-spacing:0.07em;}.cls-42{letter-spacing:0.07em;}.cls-43{letter-spacing:0.07em;}.cls-44{letter-spacing:0.07em;}.cls-45{letter-spacing:0.08em;}.cls-46{letter-spacing:0.07em;}.cls-47{letter-spacing:0.06em;}.cls-48{letter-spacing:0.06em;}.cls-49{letter-spacing:0.06em;}.cls-50{letter-spacing:0.1em;}.cls-51{letter-spacing:0.08em;}.cls-52{letter-spacing:0.12em;}.cls-53{letter-spacing:0.1em;}.cls-55{letter-spacing:0.02em;}.cls-56{letter-spacing:-0.02em;}.cls-57{letter-spacing:0.04em;}.cls-58{letter-spacing:0.03em;}</style></defs><title>Asset 3</title><g id="Layer_2" data-name="Layer 2"><g id="A-JULIET"><g id="LWPOLYLINE"><path class="cls-1" d="M61.24,17.08,34.93,27a28,28,0,0,1-1.81-9.92"/></g><g id="LWPOLYLINE-2" data-name="LWPOLYLINE"><path class="cls-1" d="M5,17.08,31.31,27a28.23,28.23,0,0,0,1.81-9.92"/></g><g id="LWPOLYLINE-3" data-name="LWPOLYLINE"><path class="cls-1" d="M155,17.08,128.68,27a28,28,0,0,1-1.81-9.92"/></g><g id="LWPOLYLINE-4" data-name="LWPOLYLINE"><path class="cls-1" d="M98.74,17.08,125.06,27a28.23,28.23,0,0,0,1.81-9.92"/></g><g id="LWPOLYLINE-5" data-name="LWPOLYLINE"><path class="cls-1" d="M280.6,39.58,248.89,51.12a33.69,33.69,0,0,1-2-11.54,33.92,33.92,0,0,1-2,11.54L213.1,39.58"/></g></g><g id="HIDE_A-RUG" data-name="HIDE A-RUG"><g id="LWPOLYLINE-6" data-name="LWPOLYLINE"><rect class="cls-2" x="168.19" y="69.95" width="110.86" height="111.19"/></g><g id="LWPOLYLINE-7" data-name="LWPOLYLINE"><rect class="cls-2" x="11.75" y="35.69" width="137.71" height="121.76"/></g><g id="LWPOLYLINE-8" data-name="LWPOLYLINE"><rect class="cls-2" x="168.19" y="69.95" width="110.86" height="111.19"/></g><g id="LWPOLYLINE-9" data-name="LWPOLYLINE"><rect class="cls-2" x="11.75" y="35.69" width="137.71" height="121.76"/></g></g><g id="A-FURN-MASK"><g id="LWPOLYLINE-10" data-name="LWPOLYLINE"><rect class="cls-3" x="293.81" y="97.47" width="15" height="56.25"/></g><g id="LWPOLYLINE-11" data-name="LWPOLYLINE"><rect class="cls-3" x="69.09" y="80.43" width="32.27" height="32.27"/></g><g id="LWPOLYLINE-12" data-name="LWPOLYLINE"><polygon class="cls-4" points="125 70.6 145.35 48.54 126.28 29.82 104.6 50.57 125 70.6"/></g><g id="CIRCLE"><path class="cls-4" d="M102.72,35.54a5.15,5.15,0,1,1,5.15,5.14,5.16,5.16,0,0,1-5.15-5.14Z"/></g><g id="LWPOLYLINE-13" data-name="LWPOLYLINE"><rect class="cls-4" x="141.82" y="68.42" width="15" height="56.25"/></g><rect class="cls-4" x="130.79" y="96.3" width="44.9" height="1.76" transform="translate(250.42 -56.07) rotate(90)"/></g><g id="A-FURN"><g id="LINE"><line class="cls-3" x1="122.16" y1="67.81" x2="142.5" y2="45.75"/></g><g id="LINE-2" data-name="LINE"><line class="cls-3" x1="139.64" y1="48.84" x2="126.08" y2="35.54"/></g><g id="LINE-3" data-name="LINE"><line class="cls-3" x1="129.13" y1="32.61" x2="107.44" y2="53.37"/></g><g id="LWPOLYLINE-14" data-name="LWPOLYLINE"><path class="cls-3" d="M48.62,178.31v17.81l-5.82-.29a3.75,3.75,0,0,1-3.56-3.74v-9.74a3.76,3.76,0,0,1,3.56-3.75Z"/></g><g id="LWPOLYLINE-15" data-name="LWPOLYLINE"><path class="cls-3" d="M97.38,196.34V178.53l5.81.29a3.75,3.75,0,0,1,3.56,3.75v9.74a3.74,3.74,0,0,1-3.56,3.74Z"/></g><g id="LWPOLYLINE-16" data-name="LWPOLYLINE"><path class="cls-3" d="M50.73,176.91H68.54l-.29-5.82a3.76,3.76,0,0,0-3.75-3.56H54.76A3.75,3.75,0,0,0,51,171.09Z"/></g><g id="LWPOLYLINE-17" data-name="LWPOLYLINE"><path class="cls-3" d="M76.51,176.91H94.32L94,171.09a3.76,3.76,0,0,0-3.75-3.56H80.54a3.75,3.75,0,0,0-3.74,3.56Z"/></g><g id="LWPOLYLINE-18" data-name="LWPOLYLINE"><path class="cls-3" d="M94.32,197H76.51l.29,5.81a3.75,3.75,0,0,0,3.74,3.57h9.74A3.76,3.76,0,0,0,94,202.76Z"/></g><g id="LWPOLYLINE-19" data-name="LWPOLYLINE"><path class="cls-3" d="M68.54,197H50.73l.29,5.81a3.75,3.75,0,0,0,3.74,3.57H64.5a3.76,3.76,0,0,0,3.75-3.57Z"/></g><g id="LWPOLYLINE-20" data-name="LWPOLYLINE"><path class="cls-3" d="M48.62,194.72l-5.74-.29a2.34,2.34,0,0,1-2.23-2.34v-9.74A2.34,2.34,0,0,1,42.88,180l5.74-.29"/></g><g id="LWPOLYLINE-21" data-name="LWPOLYLINE"><path class="cls-3" d="M97.38,179.94l5.74.29a2.34,2.34,0,0,1,2.23,2.34v9.74a2.34,2.34,0,0,1-2.23,2.34l-5.74.29"/></g><g id="LWPOLYLINE-22" data-name="LWPOLYLINE"><path class="cls-3" d="M67.13,176.91l-.29-5.75a2.34,2.34,0,0,0-2.34-2.22H54.76a2.34,2.34,0,0,0-2.34,2.22l-.29,5.75"/></g><g id="LWPOLYLINE-23" data-name="LWPOLYLINE"><path class="cls-3" d="M93,177.14l-.29-5.74a2.34,2.34,0,0,0-2.34-2.23H80.64a2.34,2.34,0,0,0-2.34,2.23L78,177.14"/></g><g id="LWPOLYLINE-24" data-name="LWPOLYLINE"><path class="cls-3" d="M77.92,197l.28,5.74a2.35,2.35,0,0,0,2.34,2.23h9.74a2.36,2.36,0,0,0,2.35-2.23l.28-5.74"/></g><g id="LWPOLYLINE-25" data-name="LWPOLYLINE"><path class="cls-3" d="M52,196.72l.29,5.74a2.34,2.34,0,0,0,2.34,2.23h9.74a2.34,2.34,0,0,0,2.34-2.23l.28-5.74"/></g><g id="LWPOLYLINE-26" data-name="LWPOLYLINE"><rect class="cls-4" x="44.87" y="173.16" width="56.25" height="28.13"/></g><g id="LWPOLYLINE-27" data-name="LWPOLYLINE"><polygon class="cls-4" points="3.15 30.52 3.15 131.77 36.9 131.77 36.9 65.83 63.09 65.83 63.09 30.52 3.15 30.52"/></g><g id="LWPOLYLINE-28" data-name="LWPOLYLINE"><rect class="cls-4" x="16.16" y="134.54" width="17.7" height="18.44"/></g><g id="LINE-4" data-name="LINE"><line class="cls-3" x1="7.83" y1="96.46" x2="35.91" y2="96.46"/></g><g id="LWPOLYLINE-29" data-name="LWPOLYLINE"><polyline class="cls-3" points="40.95 30.52 40.95 35.21 7.83 35.21 7.83 127.08 36.9 127.08"/></g><g id="ARC"><path class="cls-3" d="M12.33,97.39a91.8,91.8,0,0,1,0,28.75"/></g><g id="ARC-2" data-name="ARC"><path class="cls-3" d="M11.34,96.46a1.22,1.22,0,0,1,1,.93"/></g><g id="ARC-3" data-name="ARC"><path class="cls-3" d="M12.33,126.14a1.22,1.22,0,0,1-1,.94"/></g><g id="ARC-4" data-name="ARC"><path class="cls-3" d="M35.91,96.46a1.22,1.22,0,0,1,1,.93"/></g><g id="ARC-5" data-name="ARC"><path class="cls-3" d="M36.9,95.52a1.24,1.24,0,0,1-1,.94"/></g><g id="ARC-6" data-name="ARC"><path class="cls-3" d="M36.9,126.14a1.22,1.22,0,0,1-1,.94"/></g><g id="LINE-5" data-name="LINE"><line class="cls-3" x1="7.83" y1="65.83" x2="36.9" y2="65.83"/></g><g id="ARC-7" data-name="ARC"><path class="cls-3" d="M12.33,66.77a91.8,91.8,0,0,1,0,28.75"/></g><g id="ARC-8" data-name="ARC"><path class="cls-3" d="M11.34,65.83a1.24,1.24,0,0,1,1,.94"/></g><g id="ARC-9" data-name="ARC"><path class="cls-3" d="M12.33,95.52a1.24,1.24,0,0,1-1,.94"/></g><g id="ARC-10" data-name="ARC"><path class="cls-3" d="M11.34,65.83a1.24,1.24,0,0,1,1,.94"/></g><g id="ARC-11" data-name="ARC"><path class="cls-3" d="M12.33,36.14a91.8,91.8,0,0,1,0,28.75"/></g><g id="ARC-12" data-name="ARC"><path class="cls-3" d="M11.34,35.21a1.22,1.22,0,0,1,1,.93"/></g><g id="ARC-13" data-name="ARC"><path class="cls-3" d="M12.33,64.89a1.22,1.22,0,0,1-1,.94"/></g><g id="ARC-14" data-name="ARC"><path class="cls-3" d="M11.34,96.46a1.22,1.22,0,0,1,1,.93"/></g><g id="ARC-15" data-name="ARC"><path class="cls-3" d="M12.33,126.14a1.22,1.22,0,0,1-1,.94"/></g><g id="ARC-16" data-name="ARC"><path class="cls-3" d="M35.91,96.46a1.22,1.22,0,0,1,1,.93"/></g><g id="ARC-17" data-name="ARC"><path class="cls-3" d="M36.9,95.52a1.24,1.24,0,0,1-1,.94"/></g><g id="ARC-18" data-name="ARC"><path class="cls-3" d="M36.9,126.14a1.22,1.22,0,0,1-1,.94"/></g><g id="ARC-19" data-name="ARC"><path class="cls-3" d="M11.34,65.83a1.24,1.24,0,0,1,1,.94"/></g><g id="ARC-20" data-name="ARC"><path class="cls-3" d="M12.33,95.52a1.24,1.24,0,0,1-1,.94"/></g><g id="ARC-21" data-name="ARC"><path class="cls-3" d="M11.34,65.83a1.24,1.24,0,0,1,1,.94"/></g><g id="ARC-22" data-name="ARC"><path class="cls-3" d="M11.34,35.21a1.22,1.22,0,0,1,1,.93"/></g><g id="ARC-23" data-name="ARC"><path class="cls-3" d="M12.33,64.89a1.22,1.22,0,0,1-1,.94"/></g><path class="cls-5" d="M17.52,40.93s5.27-6.85,7.93-5.56-7.24,10.46-7.24,10.46-3.9,4-4.64,2S17.52,40.93,17.52,40.93Z"/><path class="cls-5" d="M20.16,52s-4.37,7.08-6.29,5.77,3.55-9.44,3.55-9.44,3.84-7.58,5.71-5.54S20.16,52,20.16,52Z"/><path class="cls-5" d="M14.2,110.71s3.61.74,5.2,8.34,1.11,7.67.3,8-4.19-2.24-5.22-9.2S12.94,111,14.2,110.71Z"/><g id="LWPOLYLINE-30" data-name="LWPOLYLINE"><rect class="cls-4" x="162.58" y="90.08" width="80.62" height="71.25"/></g><g id="LWPOLYLINE-31" data-name="LWPOLYLINE"><rect class="cls-4" x="162.58" y="163.32" width="15.94" height="15.9"/></g><g id="LWPOLYLINE-32" data-name="LWPOLYLINE"><rect class="cls-4" x="162.58" y="71.98" width="15.94" height="15.9"/></g><g id="LWPOLYLINE-33" data-name="LWPOLYLINE"><rect class="cls-3" x="167.93" y="126.98" width="14.68" height="31.81"/></g><g id="LINE-6" data-name="LINE"><line class="cls-3" x1="165.39" y1="90.08" x2="165.39" y2="161.33"/></g><g id="LINE-7" data-name="LINE"><line class="cls-3" x1="240.39" y1="90.08" x2="240.39" y2="161.33"/></g><g id="LWPOLYLINE-34" data-name="LWPOLYLINE"><rect class="cls-3" x="167.93" y="92.62" width="14.68" height="31.81"/></g><g id="LWPOLYLINE-35" data-name="LWPOLYLINE"><path class="cls-3" d="M88.65,236.16A12.81,12.81,0,0,1,89.82,235a12,12,0,0,1,16.89,1.16l-1.06.93V248H89.71v-10.9Z"/></g><g id="LWPOLYLINE-36" data-name="LWPOLYLINE"><line class="cls-3" x1="91.57" y1="235.41" x2="91.57" y2="247.99"/></g><g id="LWPOLYLINE-37" data-name="LWPOLYLINE"><line class="cls-3" x1="103.8" y1="235.41" x2="103.8" y2="247.99"/></g><g id="LWPOLYLINE-38" data-name="LWPOLYLINE"><path class="cls-3" d="M105.65,237.09a10.57,10.57,0,0,0-14.91-1,11.13,11.13,0,0,0-1,1"/></g><g id="LWPOLYLINE-39" data-name="LWPOLYLINE"><path class="cls-3" d="M62.36,236.16A12.7,12.7,0,0,1,63.52,235a12,12,0,0,1,16.9,1.16l-1.06.93V248H63.42v-10.9Z"/></g><g id="LWPOLYLINE-40" data-name="LWPOLYLINE"><line class="cls-3" x1="65.27" y1="235.41" x2="65.27" y2="247.99"/></g><g id="LWPOLYLINE-41" data-name="LWPOLYLINE"><line class="cls-3" x1="77.51" y1="235.41" x2="77.51" y2="247.99"/></g><g id="LWPOLYLINE-42" data-name="LWPOLYLINE"><path class="cls-3" d="M79.36,237.09a10.57,10.57,0,0,0-14.91-1,10,10,0,0,0-1,1"/></g><g id="LWPOLYLINE-43" data-name="LWPOLYLINE"><path class="cls-3" d="M36.06,236.16A12.81,12.81,0,0,1,37.23,235a12,12,0,0,1,16.89,1.16l-1.06.93V248H37.12v-10.9Z"/></g><g id="LWPOLYLINE-44" data-name="LWPOLYLINE"><line class="cls-3" x1="38.98" y1="235.41" x2="38.98" y2="247.99"/></g><g id="LWPOLYLINE-45" data-name="LWPOLYLINE"><line class="cls-3" x1="51.21" y1="235.41" x2="51.21" y2="247.99"/></g><g id="LWPOLYLINE-46" data-name="LWPOLYLINE"><path class="cls-3" d="M53.06,237.09a10.57,10.57,0,0,0-14.91-1,11.13,11.13,0,0,0-1,1"/></g><g id="LWPOLYLINE-47" data-name="LWPOLYLINE"><polygon class="cls-4" points="283.85 78.23 282.54 76.32 282.23 76.53 281.66 76.67 281.14 76.41 279.9 74.92 278.88 73.72 278.04 72.64 276.97 71.18 276.02 69.82 275.64 69.27 275.36 68.82 274.98 68.24 274.57 67.59 273.64 66.04 272.81 64.57 272.19 63.39 272.13 62.81 272.47 62.33 272.78 62.12 271.1 59.69 289.82 46.82 302.56 65.36 283.85 78.23"/></g><g id="LINE-8" data-name="LINE"><line class="cls-3" x1="291.49" y1="49.26" x2="272.78" y2="62.12"/></g><g id="LINE-9" data-name="LINE"><line class="cls-3" x1="282.54" y1="76.32" x2="301.25" y2="63.45"/></g><g id="ARC-24" data-name="ARC"><path class="cls-3" d="M287.32,52.12a40.15,40.15,0,0,0,9.76,14.2"/></g><g id="ARC-25" data-name="ARC"><path class="cls-3" d="M290.1,50.21a101.27,101.27,0,0,0,9.76,14.2"/></g></g><g id="A-GLAZ-SILL"><g id="LWPOLYLINE-48" data-name="LWPOLYLINE"><polyline class="cls-6" points="30.89 12.39 30.89 13.32 6.87 13.32 6.87 12.39"/></g><g id="LWPOLYLINE-49" data-name="LWPOLYLINE"><polyline class="cls-6" points="59.37 12.39 59.37 13.32 35.34 13.32 35.34 12.39"/></g><g id="LWPOLYLINE-50" data-name="LWPOLYLINE"><polyline class="cls-7" points="63.12 17.07 63.12 22.7 3.12 22.7 3.12 17.07"/></g><g id="LWPOLYLINE-51" data-name="LWPOLYLINE"><polyline class="cls-6" points="124.64 12.39 124.64 13.32 100.62 13.32 100.62 12.39"/></g><g id="LWPOLYLINE-52" data-name="LWPOLYLINE"><polyline class="cls-6" points="153.12 12.39 153.12 13.32 129.09 13.32 129.09 12.39"/></g><g id="LWPOLYLINE-53" data-name="LWPOLYLINE"><polyline class="cls-7" points="156.87 17.07 156.87 22.7 96.87 22.7 96.87 17.07"/></g><g id="LWPOLYLINE-54" data-name="LWPOLYLINE"><polyline class="cls-7" points="303.1 39.58 303.1 45.2 190.6 45.2 190.6 39.58"/></g></g><g id="A-GLAZ"><g id="LWPOLYLINE-55" data-name="LWPOLYLINE"><rect class="cls-6" x="5.93" y="13.33" width="25.66" height="1.23"/></g><g id="LWPOLYLINE-56" data-name="LWPOLYLINE"><rect class="cls-6" x="34.64" y="13.33" width="25.66" height="1.23"/></g><g id="LWPOLYLINE-57" data-name="LWPOLYLINE"><rect class="cls-6" x="99.68" y="13.33" width="25.66" height="1.23"/></g><g id="LWPOLYLINE-58" data-name="LWPOLYLINE"><rect class="cls-6" x="128.39" y="13.33" width="25.66" height="1.23"/></g><g id="LWPOLYLINE-59" data-name="LWPOLYLINE"><polygon class="cls-6" points="212.63 35.83 211.7 35.83 194.35 35.83 193.41 35.83 193.41 37.05 211.7 37.05 212.63 37.05 212.63 35.83"/></g><g id="LWPOLYLINE-60" data-name="LWPOLYLINE"><polygon class="cls-6" points="245.33 35.83 244.63 35.83 214.51 35.83 214.51 37.05 245.32 37.05 245.33 35.83"/></g><g id="LWPOLYLINE-61" data-name="LWPOLYLINE"><polygon class="cls-6" points="279.2 35.83 278.26 35.83 249.08 35.83 248.38 35.83 248.38 37.05 279.2 37.05 279.2 35.83"/></g><g id="LWPOLYLINE-62" data-name="LWPOLYLINE"><polygon class="cls-6" points="300.29 35.83 299.35 35.83 281.07 35.83 281.07 37.05 300.29 37.05 300.29 35.83"/></g><line class="cls-6" x1="194.35" y1="39.57" x2="299.35" y2="39.57"/><line class="cls-6" x1="100.62" y1="17.08" x2="153.12" y2="17.08"/><line class="cls-6" x1="5.93" y1="17.08" x2="59.37" y2="17.08"/></g><g id="A-GLAZ-MUL"><g id="LWPOLYLINE-63" data-name="LWPOLYLINE"><polygon class="cls-8" points="6.87 14.55 5.93 14.55 5.93 13.32 6.87 13.32 6.87 12.39 4.99 12.39 4.99 8.64 4.05 8.64 4.05 12.39 3.12 12.39 3.12 17.07 6.87 17.07 6.87 14.55"/></g><g id="LWPOLYLINE-64" data-name="LWPOLYLINE"><polyline class="cls-8" points="32.65 10.04 33.59 10.04 33.59 12.39 35.34 12.39 35.34 13.32 34.64 13.32 34.64 14.55 35.34 14.55 35.34 17.07 33.47 17.07 33.47 16.61 32.76 16.61 32.76 17.07 30.89 17.07 30.89 14.55 31.58 14.55 31.59 13.32 30.89 13.32 30.89 12.39 32.65 12.39 32.65 10.04"/></g><g id="LWPOLYLINE-65" data-name="LWPOLYLINE"><polygon class="cls-8" points="63.12 12.39 62.18 12.39 62.18 8.64 61.24 8.64 61.24 12.39 59.37 12.39 59.37 13.32 60.3 13.32 60.3 14.55 59.37 14.55 59.37 17.07 63.12 17.07 63.12 12.39"/></g><g id="LWPOLYLINE-66" data-name="LWPOLYLINE"><polygon class="cls-8" points="100.62 14.55 99.68 14.55 99.68 13.32 100.62 13.32 100.62 12.39 98.74 12.39 98.74 8.64 97.8 8.64 97.8 12.39 96.87 12.39 96.87 17.07 100.62 17.07 100.62 14.55"/></g><g id="LWPOLYLINE-67" data-name="LWPOLYLINE"><polyline class="cls-8" points="126.4 10.04 127.33 10.04 127.33 12.39 129.09 12.39 129.09 13.32 128.39 13.32 128.39 14.55 129.09 14.55 129.09 17.07 127.22 17.07 127.22 16.61 126.51 16.61 126.51 17.07 124.64 17.07 124.64 14.55 125.33 14.55 125.34 13.32 124.64 13.32 124.64 12.39 126.4 12.39 126.4 10.04"/></g><g id="LWPOLYLINE-68" data-name="LWPOLYLINE"><polygon class="cls-8" points="156.87 12.39 155.93 12.39 155.93 8.64 154.99 8.64 154.99 12.39 153.12 12.39 153.12 13.32 154.05 13.32 154.05 14.55 153.12 14.55 153.12 17.07 156.87 17.07 156.87 12.39"/></g><g id="LWPOLYLINE-69" data-name="LWPOLYLINE"><polyline class="cls-8" points="246.38 32.54 247.32 32.54 247.32 34.89 249.08 34.89 249.08 35.83 248.38 35.83 248.38 37.05 249.08 37.05 249.08 39.58 247.2 39.58 247.2 39.11 246.5 39.11 246.5 39.58 244.63 39.58 244.63 37.05 245.32 37.05 245.33 35.83 244.63 35.83 244.63 34.89 246.38 34.89 246.38 32.54"/></g><g id="LWPOLYLINE-70" data-name="LWPOLYLINE"><polygon class="cls-8" points="278.26 37.05 279.2 37.05 279.2 35.83 278.26 35.83 278.26 34.89 280.13 34.89 280.13 32.54 281.07 32.54 281.07 34.89 282.01 34.89 282.01 35.83 281.07 35.83 281.07 37.05 282.01 37.05 282.01 38.23 281.19 38.23 281.19 39.11 280.13 39.11 280.13 39.58 278.26 39.58 278.26 37.05"/></g><g id="LWPOLYLINE-71" data-name="LWPOLYLINE"><polygon class="cls-8" points="303.1 34.89 302.16 34.89 302.16 31.14 301.23 31.14 301.23 34.89 299.35 34.89 299.35 35.83 300.29 35.83 300.29 37.05 299.35 37.05 299.35 39.58 303.1 39.58 303.1 34.89"/></g><g id="LWPOLYLINE-72" data-name="LWPOLYLINE"><polygon class="cls-8" points="194.35 37.05 193.41 37.05 193.41 35.83 194.35 35.83 194.35 34.89 192.48 34.89 192.48 31.14 191.54 31.14 191.54 34.89 190.6 34.89 190.6 39.58 194.35 39.58 194.35 37.05"/></g><g id="LWPOLYLINE-73" data-name="LWPOLYLINE"><polygon class="cls-8" points="215.45 37.05 214.51 37.05 214.51 35.83 215.45 35.83 215.45 34.89 213.57 34.89 213.57 32.54 212.63 32.54 212.63 34.89 211.7 34.89 211.7 35.83 212.63 35.83 212.63 37.05 211.7 37.05 211.7 38.23 212.52 38.23 212.52 39.11 213.57 39.11 213.57 39.58 215.45 39.58 215.45 37.05"/></g></g><g id="A-OUTER_WINDOW_SILL" data-name="A-OUTER WINDOW SILL"><g id="LWPOLYLINE-74" data-name="LWPOLYLINE"><polyline class="cls-7" points="63.12 17.07 63.12 0.2 3.12 0.2 3.12 17.07"/></g><g id="LWPOLYLINE-75" data-name="LWPOLYLINE"><polyline class="cls-7" points="156.87 17.07 156.87 0.2 96.87 0.2 96.87 17.07"/></g><g id="LWPOLYLINE-76" data-name="LWPOLYLINE"><polyline class="cls-7" points="303.1 39.58 303.1 31.14 190.6 31.14 190.6 39.58"/></g><line class="cls-9" x1="303.19" y1="22.7" x2="188.95" y2="22.7"/></g><g id="A-DOOR"><g id="LWPOLYLINE-77" data-name="LWPOLYLINE"><rect class="cls-10" x="235.86" y="241.12" width="33.75" height="2.11" transform="translate(-97.22 249.64) rotate(-45)"/></g><g id="LWPOLYLINE-78" data-name="LWPOLYLINE"><rect class="cls-10" x="101.89" y="419.75" width="33.75" height="1.64" transform="translate(-262.6 207.16) rotate(-45)"/></g><g id="LWPOLYLINE-79" data-name="LWPOLYLINE"><rect class="cls-10" x="282.8" y="193.03" width="1.64" height="28.13"/></g><g id="LWPOLYLINE-80" data-name="LWPOLYLINE"><rect class="cls-10" x="284.67" y="289.89" width="1.64" height="33.75"/></g><g id="LWPOLYLINE-81" data-name="LWPOLYLINE"><rect class="cls-10" x="245.3" y="331.25" width="33.75" height="1.64"/></g><g id="LWPOLYLINE-82" data-name="LWPOLYLINE"><rect class="cls-10" x="164.09" y="258.83" width="33.75" height="1.64"/></g><g id="LWPOLYLINE-83" data-name="LWPOLYLINE"><rect class="cls-10" x="99.87" y="361.96" width="1.64" height="33.75"/></g><g id="LWPOLYLINE-84" data-name="LWPOLYLINE"><rect class="cls-10" x="159.16" y="367.64" width="1.64" height="33.75"/></g><g id="LWPOLYLINE-85" data-name="LWPOLYLINE"><rect class="cls-10" x="245.3" y="331.25" width="33.75" height="1.64"/></g><g id="ARC-26" data-name="ARC"><path class="cls-10" d="M263.92,229.49a34.26,34.26,0,0,0-22.37-8.39"/></g><g id="ARC-27" data-name="ARC"><path class="cls-10" d="M140,431.92a33.76,33.76,0,0,0-9.88-23.87"/></g></g><g id="A-BATH"><g id="LWPOLYLINE-86" data-name="LWPOLYLINE"><rect class="cls-6" x="309.16" y="332.9" width="33.75" height="69.37"/></g><g id="LWPOLYLINE-87" data-name="LWPOLYLINE"><path class="cls-6" d="M337.73,340.2v52.61a4.77,4.77,0,0,1-4.77,4.77H317.69a4.77,4.77,0,0,1-4.78-4.77V340.2a4.78,4.78,0,0,1,4.78-4.77H333a4.78,4.78,0,0,1,4.77,4.77"/></g><g id="ARC-28" data-name="ARC"><path class="cls-6" d="M208.4,395a3.28,3.28,0,1,0-.78,0"/></g><g id="LWPOLYLINE-88" data-name="LWPOLYLINE"><path class="cls-6" d="M207.62,391.78v11.47h.77V391.78a.39.39,0,1,0-.77,0Z"/></g><g id="LWPOLYLINE-89" data-name="LWPOLYLINE"><rect class="cls-6" x="190.22" y="332.9" width="35.63" height="69.37"/></g><g id="LWPOLYLINE-90" data-name="LWPOLYLINE"><rect class="cls-11" x="225.84" y="332.9" width="0.83" height="35.62"/></g><g id="ARC-29" data-name="ARC"><path class="cls-11" d="M325.5,395.05a3.28,3.28,0,1,0-.79,0"/></g><g id="LWPOLYLINE-91" data-name="LWPOLYLINE"><path class="cls-11" d="M324.71,391.84v11.41h.78V391.84a.41.41,0,0,0-.39-.43A.41.41,0,0,0,324.71,391.84Z"/></g></g><g id="A-MECH"><g id="LWPOLYLINE-92" data-name="LWPOLYLINE"><rect class="cls-11" x="70.42" y="367.84" width="23.3" height="22.03"/></g><text class="cls-12" transform="translate(73.68 381.36)">W<tspan class="cls-13" x="7.41" y="0">/</tspan><tspan class="cls-14" x="11.84" y="0">D</tspan></text></g><g id="A-KITCHEN_APPLIANCE" data-name="A-KITCHEN APPLIANCE"><g id="LWPOLYLINE-93" data-name="LWPOLYLINE"><rect class="cls-8" x="1.59" y="317.08" width="117.84" height="25.09"/></g><g id="LWPOLYLINE-94" data-name="LWPOLYLINE"><rect class="cls-15" x="1.55" y="238.68" width="114.88" height="37.5"/></g><g id="LWPOLYLINE-95" data-name="LWPOLYLINE"><polyline class="cls-8" points="59.17 259.74 59.17 272.58 83.26 272.58 83.26 259.74 59.17 259.74"/></g><rect class="cls-15" x="70.98" y="257.47" width="2.93" height="1.23" transform="translate(144.89 516.17) rotate(180)"/><path class="cls-15" d="M70.33,258.58a1,1,0,0,0,.29.28v6.19a.45.45,0,0,0,.89,0v-6.19a.85.85,0,1,0-1.18-.28Z"/><g id="CIRCLE-2" data-name="CIRCLE"><path class="cls-8" d="M84.26,323.89a.7.7,0,1,1,.69-.7.7.7,0,0,1-.69.7Z"/></g><g id="CIRCLE-3" data-name="CIRCLE"><path class="cls-8" d="M79.88,323.89a.7.7,0,0,1,0-1.4.7.7,0,1,1,0,1.4Z"/></g><g id="CIRCLE-4" data-name="CIRCLE"><path class="cls-8" d="M79.88,326.75a.7.7,0,1,1,.7-.69.69.69,0,0,1-.7.69Z"/></g><g id="CIRCLE-5" data-name="CIRCLE"><path class="cls-8" d="M82.07,326.75a.7.7,0,1,1,0-1.39.7.7,0,1,1,0,1.39Z"/></g><g id="CIRCLE-6" data-name="CIRCLE"><path class="cls-8" d="M84.26,326.75a.7.7,0,1,1,.69-.69.69.69,0,0,1-.69.69Z"/></g><g id="LWPOLYLINE-96" data-name="LWPOLYLINE"><rect class="cls-8" x="68.58" y="320.31" width="26.99" height="16.03" rx="0.38" ry="0.38"/></g><circle class="cls-8" cx="73.39" cy="332.19" r="1.32"/><path class="cls-8" d="M77.38,329v5.85a.56.56,0,0,1-.57.55H70a.57.57,0,0,1-.57-.55V329a.05.05,0,0,1,0,0h7.89A0,0,0,0,1,77.38,329Z"/><circle class="cls-8" cx="82.07" cy="332.19" r="1.32"/><path class="cls-8" d="M86.06,329v5.85a.56.56,0,0,1-.56.55H78.64a.56.56,0,0,1-.56-.55V329a0,0,0,0,1,0,0H86A0,0,0,0,1,86.06,329Z"/><circle class="cls-8" cx="90.75" cy="332.19" r="1.32"/><path class="cls-8" d="M94.74,329v5.85a.56.56,0,0,1-.56.55H87.32a.56.56,0,0,1-.56-.55V329a0,0,0,0,1,0,0h7.9A0,0,0,0,1,94.74,329Z"/><circle class="cls-8" cx="90.75" cy="324.62" r="1.32"/><path class="cls-8" d="M86.76,327.8V322a.56.56,0,0,1,.56-.55h6.86a.56.56,0,0,1,.56.55v5.85a0,0,0,0,1,0,.05H86.8A0,0,0,0,1,86.76,327.8Z"/><circle class="cls-8" cx="73.39" cy="324.62" r="1.32"/><path class="cls-8" d="M69.39,327.8V322a.57.57,0,0,1,.57-.55h6.85a.56.56,0,0,1,.57.55v5.85a0,0,0,0,1,0,.05H69.44A.05.05,0,0,1,69.39,327.8Z"/><g id="LINE-10" data-name="LINE"><line class="cls-16" x1="46.48" y1="328.85" x2="119.09" y2="328.85"/></g><line class="cls-8" x1="18.58" y1="317.08" x2="18.58" y2="342.67"/><line class="cls-8" x1="46.48" y1="317.08" x2="46.48" y2="342.67"/><line class="cls-8" x1="27.93" y1="238.68" x2="27.93" y2="276.18"/></g><g id="A-ABOVE"><g id="LWPOLYLINE-97" data-name="LWPOLYLINE"><line class="cls-16" x1="297.56" y1="227.31" x2="297.56" y2="186.88"/></g><g id="LWPOLYLINE-98" data-name="LWPOLYLINE"><polyline class="cls-16" points="286.31 262 331.67 262 331.67 329.38"/></g><g id="LWPOLYLINE-99" data-name="LWPOLYLINE"><line class="cls-16" x1="174.4" y1="406.37" x2="174.4" y2="362.19"/></g><g id="LWPOLYLINE-100" data-name="LWPOLYLINE"><line class="cls-16" x1="116.44" y1="248.05" x2="27.93" y2="248.05"/></g><polyline class="cls-16" points="49.59 276.06 49.59 252.73 27.93 252.73"/></g><g id="A-HANGER"><g id="LINE-11" data-name="LINE"><line class="cls-8" x1="291.04" y1="223.69" x2="304.09" y2="223.69"/></g><g id="LINE-12" data-name="LINE"><line class="cls-8" x1="291.04" y1="221.27" x2="304.09" y2="221.27"/></g><g id="LINE-13" data-name="LINE"><line class="cls-8" x1="291.04" y1="218.86" x2="304.09" y2="218.85"/></g><g id="LINE-14" data-name="LINE"><line class="cls-8" x1="291.04" y1="216.44" x2="304.09" y2="216.44"/></g><g id="LINE-15" data-name="LINE"><line class="cls-8" x1="291.04" y1="214.02" x2="304.09" y2="214.02"/></g><g id="LINE-16" data-name="LINE"><line class="cls-8" x1="304.09" y1="211.6" x2="291.04" y2="211.6"/></g><g id="LINE-17" data-name="LINE"><line class="cls-8" x1="325.14" y1="325.43" x2="338.19" y2="325.43"/></g><g id="LINE-18" data-name="LINE"><line class="cls-8" x1="325.14" y1="323.01" x2="338.19" y2="323.01"/></g><g id="LINE-19" data-name="LINE"><line class="cls-8" x1="325.14" y1="320.59" x2="338.19" y2="320.59"/></g><g id="LINE-20" data-name="LINE"><line class="cls-8" x1="325.14" y1="318.18" x2="338.19" y2="318.17"/></g><g id="LINE-21" data-name="LINE"><line class="cls-8" x1="325.14" y1="315.76" x2="338.19" y2="315.76"/></g><g id="LINE-22" data-name="LINE"><line class="cls-8" x1="338.19" y1="313.34" x2="325.14" y2="313.34"/></g><g id="LINE-23" data-name="LINE"><line class="cls-8" x1="290.26" y1="255.47" x2="290.26" y2="268.52"/></g><g id="LINE-24" data-name="LINE"><line class="cls-8" x1="292.68" y1="255.47" x2="292.68" y2="268.52"/></g><g id="LINE-25" data-name="LINE"><line class="cls-8" x1="295.1" y1="255.47" x2="295.1" y2="268.52"/></g><g id="LINE-26" data-name="LINE"><line class="cls-8" x1="297.52" y1="255.47" x2="297.52" y2="268.52"/></g><g id="LINE-27" data-name="LINE"><line class="cls-8" x1="299.94" y1="255.47" x2="299.94" y2="268.52"/></g><g id="LINE-28" data-name="LINE"><line class="cls-8" x1="302.36" y1="268.52" x2="302.36" y2="255.47"/></g><g id="LINE-29" data-name="LINE"><line class="cls-8" x1="180.93" y1="402.43" x2="167.87" y2="402.43"/></g><g id="LINE-30" data-name="LINE"><line class="cls-8" x1="180.93" y1="400.01" x2="167.87" y2="400.01"/></g><g id="LINE-31" data-name="LINE"><line class="cls-8" x1="180.93" y1="397.59" x2="167.87" y2="397.59"/></g><g id="LINE-32" data-name="LINE"><line class="cls-8" x1="180.93" y1="395.17" x2="167.87" y2="395.17"/></g><g id="LINE-33" data-name="LINE"><line class="cls-8" x1="180.93" y1="392.75" x2="167.87" y2="392.75"/></g><g id="LINE-34" data-name="LINE"><line class="cls-8" x1="167.87" y1="390.33" x2="180.93" y2="390.33"/></g></g><g id="FAUCETS"><g id="LWPOLYLINE-102" data-name="LWPOLYLINE"><rect class="cls-11" x="210.53" y="271.18" width="19.08" height="24.85"/></g><g id="LWPOLYLINE-103" data-name="LWPOLYLINE"><path class="cls-11" d="M214.26,291.15a1.06,1.06,0,0,1-1.06-1.07v-13a1.06,1.06,0,0,1,1.06-1.06h9.59a.88.88,0,0,1,.88.89v13.31a.88.88,0,0,1-.88.89Z"/></g><g id="ARC-30" data-name="ARC"><path class="cls-11" d="M213.71,305.65c3-.34,11.08-1,11.08-1"/></g><g id="ARC-31" data-name="ARC"><path class="cls-11" d="M220.76,316.47a.8.8,0,0,1-.49.74c-.34.14-.68.27-1,.38a13.67,13.67,0,0,1-2.82.62c-.51.06-1,.1-1.53.13a15,15,0,0,1-4-.33,9.73,9.73,0,0,1-5.1-2.95,4.62,4.62,0,0,1,.06-6.28,9.81,9.81,0,0,1,5.16-2.85,15.34,15.34,0,0,1,4-.25c.51,0,1,.09,1.53.16a14.2,14.2,0,0,1,2.81.67c.34.12.67.26,1,.4a.83.83,0,0,1,.48.75Z"/></g><g id="ARC-32" data-name="ARC"><path class="cls-11" d="M213.59,318.35c3,.39,11.2,1,11.2,1"/></g><g id="ARC-33" data-name="ARC"><path class="cls-11" d="M224.65,304.68a1.07,1.07,0,0,0-1,.93,53.92,53.92,0,0,0,0,12.78,1.07,1.07,0,0,0,1,.93h0c1.09.05,2.19.09,3.29.12a1.41,1.41,0,0,0,1.43-1.29q.27-3.07.26-6.15t-.26-6.15a1.4,1.4,0,0,0-1.43-1.28c-1.1,0-2.2.06-3.29.12Z"/></g><g id="ARC-34" data-name="ARC"><path class="cls-11" d="M226.06,283.15a1.12,1.12,0,1,1,0,.9Z"/></g><g id="ARC-35" data-name="ARC"><path class="cls-11" d="M227.31,278a1.13,1.13,0,1,1-.45,0Z"/></g><g id="ARC-36" data-name="ARC"><path class="cls-11" d="M227.31,289.17a1.1,1.1,0,0,0,.89-1.09,1.12,1.12,0,1,0-1.34,1.09Z"/></g><g id="LINE-35" data-name="LINE"><path class="cls-11" d="M221.71,283.15h5.37a.45.45,0,0,1,0,.9h-5.37a.45.45,0,0,1,0-.9Z"/></g><line class="cls-11" x1="227.08" y1="279.14" x2="227.08" y2="275.99"/><line class="cls-11" x1="227.08" y1="291.21" x2="227.08" y2="288.07"/><g id="LWPOLYLINE-104" data-name="LWPOLYLINE"><rect class="cls-11" x="266.32" y="383.14" width="24.85" height="19.08"/></g><g id="LWPOLYLINE-105" data-name="LWPOLYLINE"><path class="cls-11" d="M271.2,386.87a1.06,1.06,0,0,1,1.06-1.07h13a1.06,1.06,0,0,1,1.06,1.07v9.58a.88.88,0,0,1-.88.89H272.08a.88.88,0,0,1-.88-.89Z"/></g><g id="ARC-37" data-name="ARC"><path class="cls-11" d="M256.7,386.32c.33,3,1,11.08,1,11.08"/></g><g id="ARC-38" data-name="ARC"><path class="cls-11" d="M245.87,393.37a.8.8,0,0,1-.74-.5c-.14-.33-.27-.67-.38-1a14.35,14.35,0,0,1-.62-2.82c-.06-.51-.1-1-.13-1.53a15.35,15.35,0,0,1,.33-4,9.86,9.86,0,0,1,2.95-5.1,4.62,4.62,0,0,1,6.28.06,9.71,9.71,0,0,1,2.85,5.16,14.92,14.92,0,0,1,.25,4c0,.51-.09,1-.16,1.53a13.53,13.53,0,0,1-.67,2.81c-.12.34-.25.67-.4,1a.81.81,0,0,1-.75.49Z"/></g><g id="ARC-39" data-name="ARC"><path class="cls-11" d="M244,386.2c-.39,3-1,11.2-1,11.2"/></g><g id="ARC-40" data-name="ARC"><path class="cls-11" d="M257.66,397.26a1.06,1.06,0,0,0-.93-1,53.92,53.92,0,0,0-12.78,0,1.06,1.06,0,0,0-.93,1v0c-.06,1.09-.1,2.19-.12,3.29a1.4,1.4,0,0,0,1.28,1.43c2.05.18,4.1.26,6.15.26s4.1-.08,6.15-.26a1.41,1.41,0,0,0,1.29-1.43c0-1.1-.07-2.2-.12-3.29Z"/></g><g id="ARC-41" data-name="ARC"><path class="cls-11" d="M279.19,398.67a1.1,1.1,0,0,1,.67,1,1.12,1.12,0,0,1-1.12,1.12,1.12,1.12,0,0,1-.45-2.14Z"/></g><g id="ARC-42" data-name="ARC"><path class="cls-11" d="M284.31,399.91a1.1,1.1,0,0,1-1.09.9,1.12,1.12,0,1,1,1.09-1.34Z"/></g><g id="ARC-43" data-name="ARC"><path class="cls-11" d="M273.17,399.91a1.12,1.12,0,1,0,0-.44Z"/></g><g id="LINE-36" data-name="LINE"><path class="cls-11" d="M279.19,394.32v5.37a.45.45,0,0,1-.9,0v-5.37a.45.45,0,0,1,.9,0Z"/></g><line class="cls-11" x1="283.2" y1="399.69" x2="286.35" y2="399.69"/><line class="cls-11" x1="271.13" y1="399.69" x2="274.28" y2="399.69"/></g><g id="A-WALL"><g id="LWPOLYLINE-106" data-name="LWPOLYLINE"><polygon class="cls-17" points="98.58 441.44 101.51 441.44 101.51 440.47 103.33 440.47 103.33 437.66 106.25 437.66 106.25 431.92 101.51 431.92 101.51 395.71 97.99 395.71 97.99 399.46 64.24 399.46 64.24 353.17 97.99 353.17 97.99 361.96 101.51 361.96 101.51 344.38 119.44 344.38 119.44 340.86 3.12 340.86 3.12 0.2 0.2 0.2 0.2 343.74 51.7 343.74 51.7 401.22 98.58 401.22 98.58 440.47 98.58 441.44"/></g><g id="LWPOLYLINE-107" data-name="LWPOLYLINE"><polygon class="cls-17" points="96.94 22.7 96.94 0.2 93.19 0.2 91.94 2.4 90.32 4.35 88.39 5.99 86.2 7.27 83.82 8.14 81.33 8.58 78.8 8.58 76.3 8.14 73.92 7.27 71.74 5.99 69.8 4.35 68.19 2.4 66.94 0.2 63.19 0.2 63.19 22.7 86.55 22.7 96.94 22.7"/></g><g id="LWPOLYLINE-108" data-name="LWPOLYLINE"><polygon class="cls-17" points="162.56 441.41 162.56 410.82 345.79 410.82 345.79 247.88 311.68 247.88 311.68 28.45 309.8 26.85 308.19 24.9 306.94 22.7 303.19 22.7 303.19 57.62 308.81 57.62 308.81 183.36 279.05 183.36 279.05 186.88 282.8 186.88 282.8 193.03 286.31 193.03 286.31 186.88 308.81 186.88 308.81 227.31 286.31 227.31 286.31 221.16 282.8 221.16 282.8 289.89 286.31 289.89 286.31 250.75 342.92 250.75 342.92 329.38 286.31 329.38 286.31 323.64 282.8 323.64 282.8 329.38 279.05 329.38 279.05 332.89 342.92 332.89 342.92 402.27 229.36 402.27 229.36 368.52 225.84 368.52 225.84 402.27 190.22 402.27 190.22 332.89 245.3 332.89 245.3 329.38 241.55 329.38 241.55 254.85 235.81 254.85 235.81 258.83 197.84 258.83 197.84 265.63 229.71 265.63 229.71 329.38 160.34 329.38 160.34 265.63 164.09 265.63 164.09 258.83 156.82 258.83 156.78 340.86 153.19 340.86 153.19 344.38 159.16 344.38 159.16 367.64 162.68 367.64 162.68 362.19 185.65 362.19 185.65 406.37 162.68 406.37 162.68 401.39 159.16 401.39 159.16 431.92 140 431.92 140 437.66 153.95 437.66 153.95 440.47 160.45 440.47 160.45 441.41 162.18 441.41 162.56 441.41"/></g><g id="LWPOLYLINE-109" data-name="LWPOLYLINE"><polygon class="cls-17" points="241.55 221.1 241.55 186.88 245.3 186.88 245.3 183.36 162.56 183.36 162.56 67.82 190.69 67.82 190.69 0.2 186.94 0.2 185.69 2.4 184.07 4.35 182.14 5.99 179.95 7.27 177.57 8.14 175.08 8.58 172.55 8.58 170.05 8.14 167.68 7.27 165.49 5.99 163.55 4.35 161.94 2.4 160.69 0.2 156.82 0.2 156.82 217.35 235.81 217.35 235.81 221.1 241.55 221.1"/></g></g><g id="LABELS"><text class="cls-18" transform="translate(216.06 63.45)"><tspan class="cls-19">M<tspan class="cls-20" x="7.4" y="0">A</tspan><tspan class="cls-21" x="12.71" y="0">S</tspan><tspan class="cls-22" x="18.01" y="0">T</tspan><tspan class="cls-23" x="23.22" y="0">E</tspan><tspan class="cls-24" x="28.17" y="0">R </tspan></tspan><tspan class="cls-25"><tspan x="-2.51" y="8.5">B</tspan><tspan class="cls-23" x="3.11" y="8.5">E</tspan><tspan class="cls-26" x="8.06" y="8.5">D</tspan><tspan class="cls-27" x="13.85" y="8.5">RO</tspan><tspan class="cls-28" x="25.4" y="8.5">O</tspan><tspan class="cls-21" x="31.42" y="8.5">M</tspan></tspan><tspan class="cls-29" x="-9.57" y="17">1</tspan><tspan class="cls-21" x="-6.15" y="17">3</tspan><tspan x="-0.94" y="17">&apos;</tspan><tspan class="cls-30" x="1.1" y="17">-</tspan><tspan class="cls-31" x="4.68" y="17">0</tspan><tspan class="cls-32" x="10.27" y="17">&quot;</tspan><tspan class="cls-33" x="13.84" y="17"> </tspan><tspan class="cls-34" x="15.84" y="17">×</tspan><tspan class="cls-33" x="20.35" y="17"> </tspan><tspan class="cls-35" x="22.35" y="17">1</tspan><tspan class="cls-36" x="25.77" y="17">2</tspan><tspan class="cls-37" x="31.11" y="17">&apos;</tspan><tspan class="cls-38" x="33.43" y="17">-</tspan><tspan class="cls-39" x="36.94" y="17">9</tspan><tspan class="cls-21" x="42.15" y="17">&quot;</tspan></text><text class="cls-18" transform="translate(47.03 138.16)"><tspan class="cls-22">L<tspan class="cls-38" x="4.65" y="0">I</tspan><tspan class="cls-40" x="7.29" y="0">V</tspan><tspan class="cls-41" x="12.73" y="0">I</tspan><tspan class="cls-28" x="15.29" y="0">N</tspan><tspan class="cls-21" x="21.25" y="0">G / </tspan><tspan class="cls-42" x="36.27" y="0">D</tspan><tspan class="cls-41" x="42.07" y="0">I</tspan><tspan class="cls-43" x="44.64" y="0">N</tspan><tspan class="cls-44" x="50.56" y="0">I</tspan><tspan class="cls-28" x="53.13" y="0">N</tspan><tspan class="cls-21" x="59.08" y="0">G </tspan><tspan class="cls-45" x="67.43" y="0">RO</tspan><tspan class="cls-28" x="78.98" y="0">O</tspan><tspan class="cls-21" x="85" y="0">M</tspan></tspan><tspan class="cls-29" x="18.96" y="8.5">1</tspan><tspan class="cls-21" x="22.38" y="8.5">3</tspan><tspan x="27.59" y="8.5">&apos;</tspan><tspan class="cls-46" x="29.63" y="8.5">-</tspan><tspan class="cls-22" x="33.08" y="8.5">8</tspan><tspan class="cls-32" x="38.12" y="8.5">&quot;</tspan><tspan class="cls-33" x="41.7" y="8.5"> </tspan><tspan class="cls-34" x="43.7" y="8.5">×</tspan><tspan class="cls-33" x="48.2" y="8.5"> </tspan><tspan class="cls-47" x="50.2" y="8.5">1</tspan><tspan class="cls-48" x="53.7" y="8.5">9</tspan><tspan class="cls-37" x="58.91" y="8.5">&apos;</tspan><tspan class="cls-46" x="61.23" y="8.5">-</tspan><tspan class="cls-49" x="64.68" y="8.5">8</tspan><tspan class="cls-32" x="69.72" y="8.5">&quot;</tspan></text><text class="cls-50" transform="translate(116.82 381.88)">F<tspan class="cls-51" x="5.25" y="0">O</tspan><tspan class="cls-52" x="11.36" y="0">Y</tspan><tspan class="cls-53" x="16.9" y="0">E</tspan><tspan class="cls-14" x="22.17" y="0">R</tspan></text><text class="cls-54" transform="translate(29.82 331.67)">R</text><text class="cls-18" transform="translate(4.82 267.88)"><tspan class="cls-55">S</tspan><tspan class="cls-56" x="4.94" y="0">O</tspan><tspan class="cls-57" x="10.22" y="0">/</tspan><tspan x="14.1" y="0">W</tspan></text><text class="cls-58" transform="translate(33.25 267.75)">D<tspan class="cls-34" x="5.45" y="0">W</tspan></text><polygon class="cls-59" points="119.39 456.62 124.79 442.22 130.19 456.62 119.39 456.62"/></g></g></svg>