<svg xmlns="http://www.w3.org/2000/svg" viewBox="0 0 399.07 617.28"><defs><style>.cls-1,.cls-3,.cls-4,.cls-8{fill:#b4c0be;}.cls-1,.cls-10,.cls-11,.cls-12,.cls-2,.cls-3,.cls-4,.cls-5,.cls-6,.cls-7,.cls-70,.cls-8,.cls-9{stroke:#fff;}.cls-1,.cls-10,.cls-11,.cls-2,.cls-3,.cls-5,.cls-6,.cls-70,.cls-8,.cls-9{stroke-linecap:round;stroke-linejoin:round;}.cls-1{stroke-width:0.15px;}.cls-10,.cls-11,.cls-2,.cls-5,.cls-6,.cls-7,.cls-70,.cls-9{fill:none;}.cls-2,.cls-3,.cls-4{stroke-width:0.15px;}.cls-12,.cls-4,.cls-7{stroke-miterlimit:10;}.cls-5{stroke-width:0.4px;}.cls-10,.cls-11,.cls-6,.cls-7,.cls-70,.cls-8,.cls-9{stroke-width:0.25px;}.cls-9{stroke-dasharray:1.96 1.96;}.cls-10{stroke-dasharray:2.06 2.06;}.cls-11{stroke-dasharray:2 2;}.cls-12{fill:#dfe4e4;stroke-width:0.4px;}.cls-13,.cls-57,.cls-62,.cls-64,.cls-65,.cls-68{font-size:8px;font-family:MaisonNeue-Book, Maison Neue;}.cls-13,.cls-57,.cls-62,.cls-64,.cls-65,.cls-68,.cls-69{fill:#fff;}.cls-14{letter-spacing:0.08em;}.cls-15{letter-spacing:0.07em;}.cls-16{letter-spacing:0.06em;}.cls-17{letter-spacing:0.06em;}.cls-18{letter-spacing:0.06em;}.cls-19{letter-spacing:0.06em;}.cls-20{letter-spacing:0.07em;}.cls-21{letter-spacing:0.07em;}.cls-22{letter-spacing:0.08em;}.cls-23{letter-spacing:0.07em;}.cls-24{letter-spacing:0.05em;}.cls-25{letter-spacing:0.08em;}.cls-26{letter-spacing:0.05em;}.cls-27{letter-spacing:-0.02em;}.cls-28{letter-spacing:0.02em;}.cls-29{letter-spacing:0.05em;}.cls-30{letter-spacing:0.03em;}.cls-31{letter-spacing:0.04em;}.cls-32{letter-spacing:0.05em;}.cls-33{letter-spacing:0.05em;}.cls-34{letter-spacing:0.06em;}.cls-35{letter-spacing:0.06em;}.cls-36{letter-spacing:0.06em;}.cls-37{letter-spacing:-0.02em;}.cls-38{letter-spacing:0.02em;}.cls-39{letter-spacing:0.06em;}.cls-40{letter-spacing:0.07em;}.cls-41{letter-spacing:0.05em;}.cls-42{letter-spacing:0.05em;}.cls-43{letter-spacing:0.07em;}.cls-44{letter-spacing:0.08em;}.cls-45{letter-spacing:0.08em;}.cls-46{letter-spacing:0.07em;}.cls-47{letter-spacing:0.07em;}.cls-48{letter-spacing:0.07em;}.cls-49{letter-spacing:0.07em;}.cls-50{letter-spacing:0.08em;}.cls-51{letter-spacing:0.06em;}.cls-52{letter-spacing:0.08em;}.cls-53{letter-spacing:0.07em;}.cls-54{letter-spacing:0.06em;}.cls-55{letter-spacing:0.03em;}.cls-56{letter-spacing:0.04em;}.cls-57{letter-spacing:0.1em;}.cls-58{letter-spacing:0.08em;}.cls-59{letter-spacing:0.12em;}.cls-60{letter-spacing:0.1em;}.cls-61,.cls-64{letter-spacing:0.1em;}.cls-62{letter-spacing:0.08em;}.cls-63{letter-spacing:0.11em;}.cls-65{letter-spacing:0.01em;}.cls-66{letter-spacing:0.03em;}.cls-67{letter-spacing:0.04em;}.cls-68{letter-spacing:0.03em;}.cls-70{stroke-dasharray:1.32 1.32;}</style></defs><title>Asset 1</title><g id="Layer_2" data-name="Layer 2"><g id="A-RUG"><g id="LWPOLYLINE"><rect class="cls-1" x="255.73" y="36.35" width="111.61" height="126.78"/></g><g id="LWPOLYLINE-2" data-name="LWPOLYLINE"><rect class="cls-1" x="255.73" y="36.35" width="111.61" height="126.78"/></g><g id="LWPOLYLINE-3" data-name="LWPOLYLINE"><rect class="cls-1" x="35.4" y="34.89" width="143.37" height="114.86"/></g></g><g id="A-FURN-MASK"><g id="LWPOLYLINE-4" data-name="LWPOLYLINE"><rect class="cls-2" x="251.11" y="516.65" width="15" height="56.25"/></g><g id="LWPOLYLINE-5" data-name="LWPOLYLINE"><path class="cls-2" d="M284.53,66.92h3.13a2.81,2.81,0,0,1,2.81,2.82v60a2.81,2.81,0,0,1-2.81,2.81h-3.13a3.79,3.79,0,0,1-2.66-1.1L278.45,128a3.7,3.7,0,0,1-1.1-2.65V74.1a3.72,3.72,0,0,1,1.1-2.65L281.87,68A3.79,3.79,0,0,1,284.53,66.92Z"/></g><g id="LWPOLYLINE-6" data-name="LWPOLYLINE"><rect class="cls-2" x="225.96" y="71.68" width="15" height="56.25"/></g><g id="LWPOLYLINE-7" data-name="LWPOLYLINE"><polygon class="cls-3" points="28.77 41.45 28.77 142.7 62.52 142.7 62.52 76.76 102.55 76.76 102.55 41.45 28.77 41.45"/></g><g id="CIRCLE"><path class="cls-2" d="M92.66,109.21a19.1,19.1,0,1,1,19.1,19.1,19.1,19.1,0,0,1-19.1-19.1Z"/></g><g id="LWPOLYLINE-8" data-name="LWPOLYLINE"><rect class="cls-2" x="28.53" y="528.34" width="15.94" height="22.5"/></g><g id="LWPOLYLINE-9" data-name="LWPOLYLINE"><rect class="cls-2" x="135.8" y="508.19" width="15" height="56.25"/></g><g id="LWPOLYLINE-10" data-name="LWPOLYLINE"><path class="cls-2" d="M83.84,256.26a11.65,11.65,0,0,1-1.17-1.16,12,12,0,0,1,1.17-16.9l.92,1.06H95.67V255.2H84.76Z"/></g><g id="LWPOLYLINE-11" data-name="LWPOLYLINE"><path class="cls-2" d="M83.84,278.76a11.65,11.65,0,0,1-1.17-1.16,12,12,0,0,1,1.17-16.9l.92,1.06H95.67V277.7H84.76Z"/></g><g id="LWPOLYLINE-12" data-name="LWPOLYLINE"><path class="cls-2" d="M83.84,301.26a11.65,11.65,0,0,1-1.17-1.16,12,12,0,0,1,1.17-16.9l.92,1.06H95.67V300.2H84.76Z"/></g><g id="LWPOLYLINE-13" data-name="LWPOLYLINE"><rect class="cls-3" x="205.37" y="60.52" width="15" height="56.25"/></g><rect class="cls-3" x="194.34" y="88.4" width="44.9" height="1.76" transform="translate(306.07 -127.51) rotate(90)"/><path class="cls-4" d="M43.12,51.87S48.39,45,51.05,46.3s-7.24,10.46-7.24,10.46-3.9,4-4.64,2S43.12,51.87,43.12,51.87Z"/><path class="cls-4" d="M45.74,62.88s-4.54,7-6.43,5.61,3.79-9.35,3.79-9.35,4-7.48,5.84-5.4S45.74,62.88,45.74,62.88Z"/><path class="cls-4" d="M39.82,121.64s3.62.74,5.2,8.34,1.12,7.67.31,8-4.2-2.25-5.22-9.2S38.57,122,39.82,121.64Z"/></g><g id="A-FURN"><g id="LWPOLYLINE-14" data-name="LWPOLYLINE"><polygon class="cls-3" points="155.99 112.63 184.5 122.03 176.92 147.66 147.89 140.05 155.99 112.63"/></g><g id="LINE"><line class="cls-3" x1="154.86" y1="116.45" x2="183.37" y2="125.86"/></g><g id="LINE-2" data-name="LINE"><line class="cls-3" x1="179.36" y1="124.54" x2="173.97" y2="142.76"/></g><g id="LINE-3" data-name="LINE"><line class="cls-3" x1="178.05" y1="143.83" x2="149.02" y2="136.23"/></g><g id="LINE-4" data-name="LINE"><line class="cls-2" x1="33.46" y1="107.39" x2="61.54" y2="107.39"/></g><g id="LWPOLYLINE-15" data-name="LWPOLYLINE"><polyline class="cls-2" points="66.58 41.45 66.58 46.14 33.46 46.14 33.46 138.01 62.52 138.01"/></g><g id="ARC"><path class="cls-2" d="M38,108.33a91.8,91.8,0,0,1,0,28.75"/></g><g id="ARC-2" data-name="ARC"><path class="cls-2" d="M37,107.39a1.22,1.22,0,0,1,1,.94"/></g><g id="ARC-3" data-name="ARC"><path class="cls-2" d="M38,137.08a1.22,1.22,0,0,1-1,.93"/></g><g id="ARC-4" data-name="ARC"><path class="cls-2" d="M61.54,107.39a1.19,1.19,0,0,1,1,.94"/></g><g id="ARC-5" data-name="ARC"><path class="cls-2" d="M62.52,106.45a1.22,1.22,0,0,1-1,.94"/></g><g id="ARC-6" data-name="ARC"><path class="cls-2" d="M62.52,137.08a1.19,1.19,0,0,1-1,.93"/></g><g id="LINE-5" data-name="LINE"><line class="cls-2" x1="33.46" y1="76.76" x2="62.52" y2="76.76"/></g><g id="ARC-7" data-name="ARC"><path class="cls-2" d="M38,77.7a91.8,91.8,0,0,1,0,28.75"/></g><g id="ARC-8" data-name="ARC"><path class="cls-2" d="M37,76.76a1.24,1.24,0,0,1,1,.94"/></g><g id="ARC-9" data-name="ARC"><path class="cls-2" d="M38,106.45a1.24,1.24,0,0,1-1,.94"/></g><g id="ARC-10" data-name="ARC"><path class="cls-2" d="M37,76.76a1.24,1.24,0,0,1,1,.94"/></g><g id="ARC-11" data-name="ARC"><path class="cls-2" d="M38,47.08a91.8,91.8,0,0,1,0,28.75"/></g><g id="ARC-12" data-name="ARC"><path class="cls-2" d="M37,46.14a1.22,1.22,0,0,1,1,.94"/></g><g id="ARC-13" data-name="ARC"><path class="cls-2" d="M38,75.83a1.22,1.22,0,0,1-1,.93"/></g><g id="LWPOLYLINE-16" data-name="LWPOLYLINE"><polygon class="cls-3" points="152.76 73.65 181.15 63.91 173.27 38.38 144.33 46.33 152.76 73.65"/></g><g id="LINE-6" data-name="LINE"><line class="cls-3" x1="151.58" y1="69.84" x2="179.97" y2="60.1"/></g><g id="LINE-7" data-name="LINE"><line class="cls-3" x1="175.98" y1="61.47" x2="170.38" y2="43.31"/></g><g id="LINE-8" data-name="LINE"><line class="cls-3" x1="174.45" y1="42.19" x2="145.5" y2="50.14"/></g><g id="LWPOLYLINE-17" data-name="LWPOLYLINE"><line class="cls-2" x1="83.09" y1="253.35" x2="95.67" y2="253.35"/></g><g id="LWPOLYLINE-18" data-name="LWPOLYLINE"><line class="cls-2" x1="83.09" y1="241.11" x2="95.67" y2="241.11"/></g><g id="LWPOLYLINE-19" data-name="LWPOLYLINE"><path class="cls-2" d="M84.76,239.26a10.57,10.57,0,0,0-1,14.91,11.13,11.13,0,0,0,1,1"/></g><g id="LWPOLYLINE-20" data-name="LWPOLYLINE"><line class="cls-2" x1="83.09" y1="275.85" x2="95.67" y2="275.85"/></g><g id="LWPOLYLINE-21" data-name="LWPOLYLINE"><line class="cls-2" x1="83.09" y1="263.61" x2="95.67" y2="263.61"/></g><g id="LWPOLYLINE-22" data-name="LWPOLYLINE"><path class="cls-2" d="M84.76,261.76a10.57,10.57,0,0,0-1,14.91,11.13,11.13,0,0,0,1,1"/></g><g id="LWPOLYLINE-23" data-name="LWPOLYLINE"><line class="cls-2" x1="83.09" y1="298.35" x2="95.67" y2="298.35"/></g><g id="LWPOLYLINE-24" data-name="LWPOLYLINE"><line class="cls-2" x1="83.09" y1="286.11" x2="95.67" y2="286.11"/></g><g id="LWPOLYLINE-25" data-name="LWPOLYLINE"><path class="cls-2" d="M84.76,284.26a10.57,10.57,0,0,0-1,14.91,11.13,11.13,0,0,0,1,1"/></g><g id="ARC-14" data-name="ARC"><path class="cls-2" d="M37,107.39a1.22,1.22,0,0,1,1,.94"/></g><g id="ARC-15" data-name="ARC"><path class="cls-2" d="M38,137.08a1.22,1.22,0,0,1-1,.93"/></g><g id="ARC-16" data-name="ARC"><path class="cls-2" d="M61.54,107.39a1.19,1.19,0,0,1,1,.94"/></g><g id="ARC-17" data-name="ARC"><path class="cls-2" d="M62.52,106.45a1.22,1.22,0,0,1-1,.94"/></g><g id="ARC-18" data-name="ARC"><path class="cls-2" d="M62.52,137.08a1.19,1.19,0,0,1-1,.93"/></g><g id="ARC-19" data-name="ARC"><path class="cls-2" d="M37,76.76a1.24,1.24,0,0,1,1,.94"/></g><g id="ARC-20" data-name="ARC"><path class="cls-2" d="M38,106.45a1.24,1.24,0,0,1-1,.94"/></g><g id="ARC-21" data-name="ARC"><path class="cls-2" d="M37,76.76a1.24,1.24,0,0,1,1,.94"/></g><g id="ARC-22" data-name="ARC"><path class="cls-2" d="M37,46.14a1.22,1.22,0,0,1,1,.94"/></g><g id="ARC-23" data-name="ARC"><path class="cls-2" d="M38,75.83a1.22,1.22,0,0,1-1,.93"/></g><g id="LWPOLYLINE-26" data-name="LWPOLYLINE"><polygon class="cls-3" points="260.83 47.36 258.92 48.68 259.13 48.98 259.27 49.55 259.01 50.07 257.52 51.32 256.32 52.33 255.23 53.17 253.78 54.25 252.41 55.19 251.87 55.57 251.42 55.86 250.84 56.23 250.18 56.64 248.64 57.57 247.16 58.4 245.99 59.02 245.41 59.08 244.93 58.74 244.72 58.44 242.29 60.11 229.42 41.4 247.96 28.65 260.83 47.36"/></g><g id="LINE-9" data-name="LINE"><line class="cls-2" x1="231.85" y1="39.72" x2="244.72" y2="58.43"/></g><g id="LINE-10" data-name="LINE"><line class="cls-2" x1="258.92" y1="48.68" x2="246.05" y2="29.96"/></g><g id="ARC-24" data-name="ARC"><path class="cls-2" d="M234.72,43.89a40,40,0,0,0,14.2-9.76"/></g><g id="ARC-25" data-name="ARC"><path class="cls-2" d="M232.81,41.11A101.27,101.27,0,0,0,247,31.35"/></g><g id="LWPOLYLINE-27" data-name="LWPOLYLINE"><polygon class="cls-3" points="247.75 134.62 249.06 136.53 249.36 136.32 249.93 136.17 250.46 136.43 251.7 137.92 252.71 139.13 253.55 140.21 254.63 141.67 255.57 143.03 255.95 143.57 256.24 144.03 256.61 144.6 257.02 145.26 257.95 146.81 258.78 148.28 259.41 149.45 259.46 150.03 259.12 150.51 258.82 150.72 260.49 153.16 241.78 166.02 229.03 147.48 247.75 134.62"/></g><g id="LINE-11" data-name="LINE"><line class="cls-2" x1="240.47" y1="163.95" x2="259.18" y2="151.09"/></g><g id="LINE-12" data-name="LINE"><line class="cls-2" x1="249.42" y1="136.89" x2="230.71" y2="149.76"/></g><g id="ARC-26" data-name="ARC"><path class="cls-2" d="M244.64,161.08a40.2,40.2,0,0,0-9.76-14.19"/></g><g id="ARC-27" data-name="ARC"><path class="cls-2" d="M241.86,163a101.27,101.27,0,0,0-9.76-14.2"/></g><g id="LWPOLYLINE-28" data-name="LWPOLYLINE"><rect class="cls-3" x="291.78" y="64.11" width="80.63" height="71.25"/></g><g id="LWPOLYLINE-29" data-name="LWPOLYLINE"><rect class="cls-3" x="356.46" y="137.35" width="15.94" height="20.16"/></g><g id="LWPOLYLINE-30" data-name="LWPOLYLINE"><rect class="cls-3" x="356.46" y="41.96" width="15.94" height="20.16"/></g><g id="LINE-13" data-name="LINE"><line class="cls-2" x1="347.93" y1="64.11" x2="349.82" y2="135.36"/></g><g id="LWPOLYLINE-31" data-name="LWPOLYLINE"><rect class="cls-2" x="352.36" y="101.01" width="14.68" height="31.81"/></g><g id="LINE-14" data-name="LINE"><line class="cls-2" x1="342.44" y1="64.11" x2="349.8" y2="134.96"/></g><g id="LINE-15" data-name="LINE"><line class="cls-2" x1="369.59" y1="64.11" x2="369.59" y2="135.36"/></g><g id="LINE-16" data-name="LINE"><line class="cls-2" x1="294.59" y1="64.11" x2="294.59" y2="135.36"/></g><g id="LWPOLYLINE-32" data-name="LWPOLYLINE"><rect class="cls-2" x="352.36" y="66.65" width="14.68" height="31.81"/></g><g id="LWPOLYLINE-33" data-name="LWPOLYLINE"><rect class="cls-3" x="356.23" y="490.4" width="16.88" height="22.5"/></g><g id="LWPOLYLINE-34" data-name="LWPOLYLINE"><rect class="cls-3" x="356.23" y="576.65" width="16.88" height="22.5"/></g><g id="LWPOLYLINE-35" data-name="LWPOLYLINE"><rect class="cls-3" x="292.48" y="516.65" width="80.63" height="56.25"/></g><g id="LINE-17" data-name="LINE"><line class="cls-2" x1="370.29" y1="516.65" x2="370.29" y2="572.9"/></g><g id="LINE-18" data-name="LINE"><line class="cls-2" x1="295.29" y1="516.65" x2="295.29" y2="572.9"/></g><g id="LINE-19" data-name="LINE"><line class="cls-2" x1="349.03" y1="516.65" x2="350.52" y2="572.9"/></g><g id="LWPOLYLINE-36" data-name="LWPOLYLINE"><rect class="cls-2" x="353.07" y="546.04" width="14.68" height="24.31"/></g><g id="LINE-20" data-name="LINE"><line class="cls-2" x1="344.58" y1="516.65" x2="350.5" y2="572.5"/></g><g id="LWPOLYLINE-37" data-name="LWPOLYLINE"><rect class="cls-2" x="353.07" y="519.19" width="14.68" height="24.31"/></g><g id="LWPOLYLINE-38" data-name="LWPOLYLINE"><rect class="cls-2" x="28.91" y="554.69" width="80.63" height="35.63"/></g><g id="LINE-21" data-name="LINE"><line class="cls-2" x1="31.72" y1="554.69" x2="31.72" y2="590.31"/></g><g id="LINE-22" data-name="LINE"><line class="cls-2" x1="53.46" y1="554.69" x2="51.49" y2="590.31"/></g><g id="LINE-23" data-name="LINE"><line class="cls-2" x1="57.49" y1="554.69" x2="51.51" y2="589.91"/></g><g id="LWPOLYLINE-39" data-name="LWPOLYLINE"><rect class="cls-2" x="34.27" y="557.23" width="14.68" height="30.54"/></g><g id="LINE-24" data-name="LINE"><line class="cls-2" x1="31.72" y1="554.69" x2="31.72" y2="590.31"/></g><line class="cls-2" x1="106.72" y1="554.69" x2="106.72" y2="590.31"/><g id="LWPOLYLINE-40" data-name="LWPOLYLINE"><rect class="cls-2" x="28.91" y="488.86" width="80.63" height="35.63"/></g><g id="LINE-25" data-name="LINE"><line class="cls-2" x1="31.72" y1="524.48" x2="31.72" y2="488.86"/></g><g id="LINE-26" data-name="LINE"><line class="cls-2" x1="53.46" y1="524.48" x2="51.49" y2="488.86"/></g><g id="LINE-27" data-name="LINE"><line class="cls-2" x1="57.49" y1="524.48" x2="51.51" y2="489.25"/></g><g id="LWPOLYLINE-41" data-name="LWPOLYLINE"><rect class="cls-2" x="34.27" y="491.4" width="14.68" height="30.54"/></g><g id="LINE-28" data-name="LINE"><line class="cls-2" x1="31.72" y1="524.48" x2="31.72" y2="488.86"/></g><line class="cls-2" x1="106.72" y1="524.48" x2="106.72" y2="488.86"/><g id="LWPOLYLINE-42" data-name="LWPOLYLINE"><rect class="cls-2" x="110.9" y="401.06" width="37.84" height="12.71"/></g><g id="LWPOLYLINE-43" data-name="LWPOLYLINE"><path class="cls-2" d="M135.48,191l-13.54-4.46,1.68-4.34a3,3,0,0,1,3.74-1.77l7.4,2.44a3,3,0,0,1,2,3.64Z"/></g><g id="LWPOLYLINE-44" data-name="LWPOLYLINE"><path class="cls-2" d="M68.93,191l13.54-4.46-1.68-4.34a3,3,0,0,0-3.74-1.77l-7.4,2.44a3,3,0,0,0-2,3.64Z"/></g><g id="LWPOLYLINE-45" data-name="LWPOLYLINE"><path class="cls-2" d="M86,185.82l14.2-1.23L99.59,180a3,3,0,0,0-3.23-2.58l-7.76.67a3,3,0,0,0-2.74,3.1Z"/></g><g id="LWPOLYLINE-46" data-name="LWPOLYLINE"><path class="cls-2" d="M118.38,185.82l-14.2-1.23.64-4.61a3,3,0,0,1,3.23-2.58l7.76.67a3,3,0,0,1,2.74,3.1Z"/></g><g id="LWPOLYLINE-47" data-name="LWPOLYLINE"><path class="cls-2" d="M135.48,206.38l-13.54,4.46,1.68,4.35a3,3,0,0,0,3.74,1.76l7.4-2.43a3,3,0,0,0,2-3.65Z"/></g><g id="LWPOLYLINE-48" data-name="LWPOLYLINE"><path class="cls-2" d="M68.93,206.38l13.54,4.46-1.68,4.35A3,3,0,0,1,77.05,217l-7.4-2.43a3,3,0,0,1-2-3.65Z"/></g><g id="LWPOLYLINE-49" data-name="LWPOLYLINE"><path class="cls-2" d="M86,211.56l14.2,1.23-.64,4.61A3,3,0,0,1,96.36,220l-7.76-.67a3,3,0,0,1-2.74-3.1Z"/></g><g id="LWPOLYLINE-50" data-name="LWPOLYLINE"><path class="cls-2" d="M118.38,211.56l-14.2,1.23.64,4.61a3,3,0,0,0,3.23,2.58l7.76-.67a3,3,0,0,0,2.74-3.1Z"/></g><g id="LWPOLYLINE-51" data-name="LWPOLYLINE"><path class="cls-2" d="M123,186.8l1.66-4.29A1.89,1.89,0,0,1,127,181.4l7.4,2.44a1.89,1.89,0,0,1,1.22,2.28l-1.22,4.44"/></g><g id="LWPOLYLINE-52" data-name="LWPOLYLINE"><path class="cls-2" d="M81.4,186.8l-1.66-4.29a1.89,1.89,0,0,0-2.34-1.11L70,183.84a1.89,1.89,0,0,0-1.22,2.28L70,190.56"/></g><g id="LWPOLYLINE-53" data-name="LWPOLYLINE"><path class="cls-2" d="M99.1,184.6,98.48,180a1.87,1.87,0,0,0-2-1.61l-7.76.67A1.86,1.86,0,0,0,87,181l.16,4.6"/></g><g id="LWPOLYLINE-54" data-name="LWPOLYLINE"><path class="cls-2" d="M105.31,184.6l.62-4.56a1.87,1.87,0,0,1,2-1.61l7.76.67a1.88,1.88,0,0,1,1.72,1.93l-.17,4.6"/></g><g id="LWPOLYLINE-55" data-name="LWPOLYLINE"><path class="cls-2" d="M123,210.4l1.66,4.29a1.87,1.87,0,0,0,2.34,1.1l7.4-2.44a1.87,1.87,0,0,0,1.22-2.27l-1.22-4.44"/></g><g id="LWPOLYLINE-56" data-name="LWPOLYLINE"><path class="cls-2" d="M81.4,210.4l-1.66,4.29a1.87,1.87,0,0,1-2.34,1.1L70,213.35a1.88,1.88,0,0,1-1.22-2.27L70,206.64"/></g><g id="LWPOLYLINE-57" data-name="LWPOLYLINE"><path class="cls-2" d="M99.1,212.6l-.62,4.56a1.87,1.87,0,0,1-2,1.61l-7.76-.67A1.87,1.87,0,0,1,87,216.16l.16-4.59"/></g><g id="LWPOLYLINE-58" data-name="LWPOLYLINE"><path class="cls-2" d="M105.31,212.6l.62,4.56a1.87,1.87,0,0,0,2,1.61l7.76-.67a1.89,1.89,0,0,0,1.72-1.94l-.17-4.59"/></g><g id="ELLIPSE"><path class="cls-3" d="M61.73,198.6c0,8.28,18.12,15,40.48,15s40.47-6.72,40.47-15-18.12-15-40.47-15-40.48,6.71-40.48,15Z"/></g><g id="CIRCLE-2" data-name="CIRCLE"><path class="cls-3" d="M164,93.14a5.15,5.15,0,1,1,5.14,5.15A5.14,5.14,0,0,1,164,93.14Z"/></g><path class="cls-4" d="M165.1,140.27s1.6,1.53,5.89-.27,4.18-2.07,4.07-2.58-2.54-1.31-6.33.56S164.83,139.54,165.1,140.27Z"/><path class="cls-4" d="M170.36,134.38s-4.78,2.09-4.41,3.84,7.17-2.73,7.17-2.73,2.9-1.71,1.84-2.43S170.36,134.38,170.36,134.38Z"/><path class="cls-4" d="M159.85,47.53s.05,2.22,4.36,4,4.41,1.5,4.69,1.06S168,49.83,164,48.48,160.17,46.82,159.85,47.53Z"/><path class="cls-4" d="M167.74,47.08s-4.87-1.9-5.84-.4,7,3.15,7,3.15,3.26.84,3-.42S167.74,47.08,167.74,47.08Z"/></g><g id="A-GLAZ-SILL"><g id="LWPOLYLINE-59" data-name="LWPOLYLINE"><polyline class="cls-5" points="94.89 17.07 94.89 22.7 31.14 22.7 31.14 17.07"/></g><g id="LWPOLYLINE-60" data-name="LWPOLYLINE"><polyline class="cls-5" points="192.39 17.07 192.39 22.7 128.64 22.7 128.64 17.07"/></g><g id="LWPOLYLINE-61" data-name="LWPOLYLINE"><polyline class="cls-5" points="365.82 17.07 365.82 22.7 312.86 22.7 312.86 17.07"/></g><g id="LWPOLYLINE-62" data-name="LWPOLYLINE"><line class="cls-5" x1="178.57" y1="605.82" x2="178.57" y2="610.51"/><line class="cls-5" x1="217.95" y1="610.51" x2="217.95" y2="605.82"/></g><g id="LWPOLYLINE-63" data-name="LWPOLYLINE"><polyline class="cls-5" points="279.11 17.07 279.11 22.7 226.14 22.7 226.14 17.07"/></g></g><g id="A-GLAZ"><g id="LWPOLYLINE-64" data-name="LWPOLYLINE"><rect class="cls-6" x="33.95" y="13.33" width="27.53" height="1.23"/></g><g id="LWPOLYLINE-65" data-name="LWPOLYLINE"><rect class="cls-6" x="64.54" y="13.33" width="27.54" height="1.23"/></g><g id="LWPOLYLINE-66" data-name="LWPOLYLINE"><polygon class="cls-6" points="296.78 608.34 270.49 608.34 270.49 609.58 271.43 609.58 296.07 609.58 296.78 609.58 296.78 608.34"/></g><g id="LWPOLYLINE-67" data-name="LWPOLYLINE"><polygon class="cls-6" points="354.86 608.35 299.36 608.34 299.36 609.58 300.06 609.58 354.86 609.58 354.86 608.35"/></g><g id="LWPOLYLINE-68" data-name="LWPOLYLINE"><rect class="cls-6" x="131.45" y="13.33" width="27.53" height="1.23"/></g><g id="LWPOLYLINE-69" data-name="LWPOLYLINE"><rect class="cls-6" x="162.04" y="13.33" width="27.54" height="1.23"/></g><g id="LWPOLYLINE-70" data-name="LWPOLYLINE"><rect class="cls-6" x="315.67" y="13.33" width="22.14" height="1.23"/></g><g id="LWPOLYLINE-71" data-name="LWPOLYLINE"><rect class="cls-6" x="340.86" y="13.33" width="22.15" height="1.23"/></g><g id="LWPOLYLINE-72" data-name="LWPOLYLINE"><rect class="cls-6" x="181.39" y="608.34" width="33.75" height="1.23"/></g><g id="LWPOLYLINE-73" data-name="LWPOLYLINE"><rect class="cls-6" x="228.95" y="13.33" width="22.14" height="1.23"/></g><g id="LWPOLYLINE-74" data-name="LWPOLYLINE"><rect class="cls-6" x="254.15" y="13.33" width="22.15" height="1.23"/></g><g id="LWPOLYLINE-75" data-name="LWPOLYLINE"><polygon class="cls-6" points="104.47 608.34 130.75 608.34 130.75 609.58 129.82 609.58 105.17 609.58 104.47 609.58 104.47 608.34"/></g><g id="LWPOLYLINE-76" data-name="LWPOLYLINE"><polygon class="cls-6" points="46.38 608.35 101.89 608.34 101.89 609.58 101.18 609.58 46.38 609.58 46.38 608.35"/></g><g id="LWPOLYLINE-77" data-name="LWPOLYLINE"><rect class="cls-6" x="131.45" y="13.33" width="27.53" height="1.23"/></g><g id="LWPOLYLINE-78" data-name="LWPOLYLINE"><rect class="cls-6" x="340.86" y="13.33" width="22.15" height="1.23"/></g></g><g id="A-GLAZ-MUL"><g id="LWPOLYLINE-79" data-name="LWPOLYLINE"><polygon class="cls-7" points="34.89 14.55 33.95 14.55 33.95 13.32 34.89 13.32 34.89 12.39 33.01 12.39 33.01 8.64 32.08 8.64 32.08 12.39 31.14 12.39 31.14 17.07 34.89 17.07 34.89 14.55"/></g><g id="LWPOLYLINE-80" data-name="LWPOLYLINE"><polyline class="cls-7" points="62.54 10.04 63.48 10.04 63.48 12.39 65.24 12.39 65.24 13.32 64.54 13.32 64.54 14.55 65.24 14.55 65.24 17.07 63.36 17.07 63.36 16.61 62.66 16.61 62.66 17.07 60.79 17.07 60.79 14.55 61.48 14.55 61.49 13.32 60.79 13.32 60.79 12.39 62.54 12.39 62.54 10.04"/></g><g id="LWPOLYLINE-81" data-name="LWPOLYLINE"><polygon class="cls-7" points="94.89 12.39 93.95 12.39 93.95 8.64 93.01 8.64 93.01 12.39 91.14 12.39 91.14 13.32 92.08 13.32 92.08 14.55 91.14 14.55 91.14 17.07 94.89 17.07 94.89 12.39"/></g><g id="LWPOLYLINE-82" data-name="LWPOLYLINE"><polygon class="cls-7" points="267.68 605.83 271.43 605.83 271.43 608.34 270.49 608.35 270.49 609.58 271.43 609.58 271.43 610.51 269.55 610.51 267.68 610.51 267.68 605.83"/></g><g id="LWPOLYLINE-83" data-name="LWPOLYLINE"><polygon class="cls-7" points="300.06 607.17 299.12 607.17 299.12 606.29 297.95 606.29 297.95 605.83 296.07 605.83 296.07 608.34 296.78 608.34 296.78 609.58 296.07 609.58 296.07 610.51 296.78 610.51 299.36 610.51 300.06 610.51 300.06 609.58 299.36 609.58 299.36 608.34 300.06 608.34 300.06 607.17"/></g><g id="LWPOLYLINE-84" data-name="LWPOLYLINE"><polygon class="cls-7" points="132.39 14.55 131.45 14.55 131.45 13.32 132.39 13.32 132.39 12.39 130.51 12.39 130.51 8.64 129.57 8.64 129.57 12.39 128.64 12.39 128.64 17.07 132.39 17.07 132.39 14.55"/></g><g id="LWPOLYLINE-85" data-name="LWPOLYLINE"><polyline class="cls-7" points="160.04 10.04 160.98 10.04 160.98 12.39 162.74 12.39 162.74 13.32 162.04 13.32 162.04 14.55 162.74 14.55 162.74 17.07 160.86 17.07 160.86 16.61 160.16 16.61 160.16 17.07 158.29 17.07 158.29 14.55 158.98 14.55 158.99 13.32 158.29 13.32 158.29 12.39 160.04 12.39 160.04 10.04"/></g><g id="LWPOLYLINE-86" data-name="LWPOLYLINE"><polygon class="cls-7" points="192.39 12.39 191.45 12.39 191.45 8.64 190.51 8.64 190.51 12.39 188.64 12.39 188.64 13.32 189.57 13.32 189.57 14.55 188.64 14.55 188.64 17.07 192.39 17.07 192.39 12.39"/></g><g id="LWPOLYLINE-87" data-name="LWPOLYLINE"><polygon class="cls-7" points="316.61 14.55 315.67 14.55 315.67 13.32 316.61 13.32 316.61 12.39 314.73 12.39 314.73 8.64 313.79 8.64 313.79 12.39 312.86 12.39 312.86 17.07 316.61 17.07 316.61 14.55"/></g><g id="LWPOLYLINE-88" data-name="LWPOLYLINE"><polyline class="cls-7" points="338.87 10.04 339.81 10.04 339.81 12.39 341.57 12.39 341.57 13.32 340.86 13.32 340.86 14.55 341.57 14.55 341.57 17.07 339.69 17.07 339.69 16.61 338.99 16.61 338.99 17.07 337.11 17.07 337.11 14.55 337.81 14.55 337.82 13.32 337.11 13.32 337.11 12.39 338.87 12.39 338.87 10.04"/></g><g id="LWPOLYLINE-89" data-name="LWPOLYLINE"><polygon class="cls-7" points="365.82 12.39 364.89 12.39 364.89 8.64 363.95 8.64 363.95 12.39 362.07 12.39 362.07 13.32 363.01 13.32 363.01 14.55 362.07 14.55 362.07 17.07 365.82 17.07 365.82 12.39"/></g><g id="LWPOLYLINE-90" data-name="LWPOLYLINE"><polygon class="cls-7" points="217.95 605.83 214.2 605.83 214.2 608.34 215.14 608.35 215.14 609.58 214.2 609.58 214.2 610.51 216.07 610.51 217.95 610.51 217.95 605.83"/></g><g id="LWPOLYLINE-91" data-name="LWPOLYLINE"><polygon class="cls-7" points="178.57 605.83 182.32 605.83 182.32 608.34 181.39 608.35 181.39 609.58 182.32 609.58 182.32 610.51 180.45 610.51 178.57 610.51 178.57 605.83"/></g><g id="LWPOLYLINE-92" data-name="LWPOLYLINE"><polygon class="cls-7" points="357.68 605.83 353.93 605.83 353.93 608.34 354.86 608.34 354.86 609.58 353.93 609.58 353.93 610.51 355.8 610.51 357.68 610.51 357.68 605.83"/></g><g id="LWPOLYLINE-93" data-name="LWPOLYLINE"><polygon class="cls-7" points="229.89 14.55 228.95 14.55 228.95 13.32 229.89 13.32 229.89 12.39 228.01 12.39 228.01 8.64 227.07 8.64 227.07 12.39 226.14 12.39 226.14 17.07 229.89 17.07 229.89 14.55"/></g><g id="LWPOLYLINE-94" data-name="LWPOLYLINE"><polyline class="cls-7" points="252.15 10.04 253.09 10.04 253.09 12.39 254.85 12.39 254.85 13.32 254.15 13.32 254.15 14.55 254.85 14.55 254.85 17.07 252.97 17.07 252.97 16.61 252.27 16.61 252.27 17.07 250.4 17.07 250.4 14.55 251.09 14.55 251.1 13.32 250.4 13.32 250.4 12.39 252.15 12.39 252.15 10.04"/></g><g id="LWPOLYLINE-95" data-name="LWPOLYLINE"><polygon class="cls-7" points="279.11 12.39 278.17 12.39 278.17 8.64 277.23 8.64 277.23 12.39 275.36 12.39 275.36 13.32 276.29 13.32 276.29 14.55 275.36 14.55 275.36 17.07 279.11 17.07 279.11 12.39"/></g><g id="LWPOLYLINE-96" data-name="LWPOLYLINE"><polygon class="cls-7" points="133.57 605.83 129.82 605.83 129.82 608.34 130.75 608.35 130.75 609.58 129.82 609.58 129.82 610.51 131.69 610.51 133.57 610.51 133.57 605.83"/></g><g id="LWPOLYLINE-97" data-name="LWPOLYLINE"><polygon class="cls-7" points="101.18 607.17 102.12 607.17 102.12 606.29 103.29 606.29 103.29 605.83 105.17 605.83 105.17 608.34 104.47 608.34 104.47 609.58 105.17 609.58 105.17 610.51 104.47 610.51 101.89 610.51 101.18 610.51 101.18 609.58 101.89 609.58 101.89 608.34 101.18 608.34 101.18 607.17"/></g><g id="LWPOLYLINE-98" data-name="LWPOLYLINE"><polygon class="cls-7" points="43.57 605.83 47.32 605.83 47.32 608.34 46.38 608.34 46.38 609.58 47.32 609.58 47.32 610.51 45.44 610.51 43.57 610.51 43.57 605.83"/></g></g><g id="A-OUTER_WINDOW_SILL" data-name="A-OUTER WINDOW SILL"><g id="LWPOLYLINE-99" data-name="LWPOLYLINE"><polyline class="cls-5" points="94.89 17.07 94.89 8.64 31.14 8.64 31.14 17.07"/></g><g id="LWPOLYLINE-100" data-name="LWPOLYLINE"><polyline class="cls-5" points="192.39 17.07 192.39 8.64 128.64 8.64 128.64 17.07"/></g><g id="LWPOLYLINE-101" data-name="LWPOLYLINE"><polyline class="cls-5" points="365.82 17.07 365.82 8.64 312.86 8.64 312.86 17.07"/></g><g id="LWPOLYLINE-102" data-name="LWPOLYLINE"><polyline class="cls-5" points="357.68 610.51 357.68 617.08 267.68 617.08 267.68 610.51"/></g><g id="LWPOLYLINE-103" data-name="LWPOLYLINE"><polyline class="cls-5" points="178.57 610.51 178.57 617.08 217.95 617.08 217.95 610.51"/></g><g id="LWPOLYLINE-104" data-name="LWPOLYLINE"><polyline class="cls-5" points="279.11 17.07 279.11 8.64 226.14 8.64 226.14 17.07"/></g><g id="LWPOLYLINE-105" data-name="LWPOLYLINE"><polyline class="cls-5" points="43.57 610.51 43.57 617.08 133.57 617.08 133.57 610.51"/></g></g><g id="A-DOOR"><g id="LWPOLYLINE-106" data-name="LWPOLYLINE"><rect class="cls-6" x="306.7" y="487.7" width="22.5" height="1.64"/></g><g id="LWPOLYLINE-107" data-name="LWPOLYLINE"><rect class="cls-6" x="122.57" y="458.85" width="33.75" height="1.64" transform="translate(-284.19 233.24) rotate(-45)"/></g><g id="LWPOLYLINE-108" data-name="LWPOLYLINE"><rect class="cls-6" x="300.55" y="421.14" width="1.64" height="33.75"/></g><g id="LWPOLYLINE-109" data-name="LWPOLYLINE"><rect class="cls-6" x="23.39" y="421.4" width="33.75" height="1.64" transform="translate(-286.76 152.14) rotate(-45)"/></g><g id="LWPOLYLINE-110" data-name="LWPOLYLINE"><rect class="cls-6" x="269.72" y="411.86" width="1.64" height="33.75" transform="translate(-223.93 316.88) rotate(-45)"/></g><g id="LWPOLYLINE-111" data-name="LWPOLYLINE"><rect class="cls-6" x="329.2" y="487.7" width="22.5" height="1.64"/></g><g id="LWPOLYLINE-112" data-name="LWPOLYLINE"><rect class="cls-6" x="201.43" y="424.42" width="1.64" height="33.75"/></g><g id="LWPOLYLINE-113" data-name="LWPOLYLINE"><rect class="cls-6" x="161" y="498.25" width="33.75" height="1.64"/></g><g id="LWPOLYLINE-114" data-name="LWPOLYLINE"><rect class="cls-6" x="204.16" y="370.86" width="22.5" height="1.64"/></g><g id="LWPOLYLINE-115" data-name="LWPOLYLINE"><rect class="cls-6" x="226.66" y="370.86" width="22.5" height="1.64"/></g><g id="LWPOLYLINE-116" data-name="LWPOLYLINE"><rect class="cls-6" x="281.59" y="338.54" width="1.64" height="33.75" transform="translate(-168.6 303.79) rotate(-45)"/></g><g id="LWPOLYLINE-117" data-name="LWPOLYLINE"><rect class="cls-6" x="300.55" y="217.7" width="1.64" height="33.75"/></g><g id="LWPOLYLINE-118" data-name="LWPOLYLINE"><rect class="cls-6" x="253.91" y="245" width="1.64" height="33.75"/></g><g id="LWPOLYLINE-119" data-name="LWPOLYLINE"><rect class="cls-6" x="108.25" y="441.76" width="33.75" height="1.64"/></g><g id="LWPOLYLINE-120" data-name="LWPOLYLINE"><rect class="cls-6" x="34.07" y="439.89" width="28.13" height="1.64"/></g><g id="LWPOLYLINE-121" data-name="LWPOLYLINE"><rect class="cls-6" x="62.19" y="439.89" width="28.13" height="1.64"/></g><g id="LWPOLYLINE-122" data-name="LWPOLYLINE"><rect class="cls-6" x="253.91" y="183.36" width="1.64" height="33.75"/></g><g id="LWPOLYLINE-123" data-name="LWPOLYLINE"><rect class="cls-6" x="300.55" y="421.14" width="1.64" height="33.75"/></g><g id="LWPOLYLINE-124" data-name="LWPOLYLINE"><rect class="cls-6" x="161" y="498.25" width="33.75" height="1.64"/></g><g id="LWPOLYLINE-125" data-name="LWPOLYLINE"><rect class="cls-6" x="300.55" y="217.7" width="1.64" height="33.75"/></g><g id="ARC-28" data-name="ARC"><path class="cls-6" d="M126.94,471a33.72,33.72,0,0,0,23.86,9.88"/></g><g id="ARC-29" data-name="ARC"><path class="cls-6" d="M52.78,410.87A33.77,33.77,0,0,0,28.91,401"/></g><g id="ARC-30" data-name="ARC"><path class="cls-6" d="M281.89,441.25a33.74,33.74,0,0,0,9.89-23.86"/></g><g id="ARC-31" data-name="ARC"><path class="cls-6" d="M271.06,342.9a33.73,33.73,0,0,0-9.88,23.86"/></g></g><g id="A-BATH"><g id="LWPOLYLINE-126" data-name="LWPOLYLINE"><rect class="cls-6" x="307.23" y="183.01" width="61.05" height="24.37" rx="4.69" ry="4.69"/></g><g id="CIRCLE-3" data-name="CIRCLE"><path class="cls-6" d="M359.44,195.2a2.11,2.11,0,1,1,2.11,2.11,2.11,2.11,0,0,1-2.11-2.11Z"/></g><g id="LWPOLYLINE-127" data-name="LWPOLYLINE"><rect class="cls-6" x="302.16" y="317.25" width="37.5" height="0.83"/></g><g id="ARC-32" data-name="ARC"><path class="cls-6" d="M365.69,335.42a3.29,3.29,0,1,0,0,.79"/></g><g id="LWPOLYLINE-128" data-name="LWPOLYLINE"><path class="cls-6" d="M362.45,336.21H373v-.77H362.45a.39.39,0,1,0,0,.77Z"/></g><g id="LWPOLYLINE-129" data-name="LWPOLYLINE"><path class="cls-6" d="M356.94,378.17v-6a4.85,4.85,0,0,0-4.85-4.85h-40a4.85,4.85,0,0,0-4.85,4.85V385a4.85,4.85,0,0,0,4.85,4.85h40a4.85,4.85,0,0,0,4.85-4.85v-6"/></g><g id="ARC-33" data-name="ARC"><path class="cls-6" d="M354,378.17a3.29,3.29,0,1,0,0,.79"/></g><g id="LWPOLYLINE-130" data-name="LWPOLYLINE"><path class="cls-6" d="M350.78,379H361v-.77H350.78a.39.39,0,1,0,0,.77Z"/></g><g id="LWPOLYLINE-131" data-name="LWPOLYLINE"><polyline class="cls-6" points="154.32 565.75 154.32 595.51 217.95 595.51 217.95 565.75"/></g><g id="LWPOLYLINE-132" data-name="LWPOLYLINE"><rect class="cls-6" x="188.89" y="565.52" width="29.06" height="0.83"/></g><g id="LWPOLYLINE-133" data-name="LWPOLYLINE"><rect class="cls-6" x="154.32" y="565.52" width="34.57" height="0.83"/></g><g id="ARC-34" data-name="ARC"><path class="cls-6" d="M211.67,580.35a3.28,3.28,0,1,0,0,.78"/></g><g id="LWPOLYLINE-134" data-name="LWPOLYLINE"><path class="cls-6" d="M208.41,581.13h10.17v-.77H208.41a.39.39,0,1,0,0,.77Z"/></g><g id="LWPOLYLINE-135" data-name="LWPOLYLINE"><rect class="cls-6" x="302.19" y="177.39" width="70.78" height="34.69"/></g><g id="LWPOLYLINE-136" data-name="LWPOLYLINE"><polyline class="cls-6" points="302.19 318.01 302.19 353.64 372.97 353.64 372.97 318.01"/></g><g id="LWPOLYLINE-137" data-name="LWPOLYLINE"><rect class="cls-6" x="301.77" y="363.01" width="59.03" height="30.94"/></g><g id="ARC-35" data-name="ARC"><path class="cls-8" d="M366,194.8a3.29,3.29,0,1,0,0,.79"/></g><g id="LWPOLYLINE-138" data-name="LWPOLYLINE"><path class="cls-8" d="M362.77,195.59h10.17v-.78H362.77a.39.39,0,0,0,0,.78Z"/></g><line class="cls-6" x1="333.56" y1="317.25" x2="333.56" y2="318.01"/></g><g id="A-MECH"><g id="LINE-29" data-name="LINE"><line class="cls-8" x1="236.33" y1="454.25" x2="236.33" y2="428.94"/></g><g id="LINE-30" data-name="LINE"><line class="cls-8" x1="236.33" y1="428.94" x2="208.44" y2="428.94"/></g><g id="LINE-31" data-name="LINE"><line class="cls-8" x1="208.44" y1="428.94" x2="208.44" y2="454.25"/></g><g id="LINE-32" data-name="LINE"><line class="cls-8" x1="208.44" y1="454.25" x2="236.33" y2="454.25"/></g><g id="LINE-33" data-name="LINE"><line class="cls-8" x1="208.44" y1="428.94" x2="208.44" y2="454.25"/></g></g><g id="A-KITCHEN_APPLIANCE" data-name="A-KITCHEN APPLIANCE"><g id="LWPOLYLINE-139" data-name="LWPOLYLINE"><rect class="cls-6" x="108.25" y="265.98" width="15" height="28.13"/></g><g id="LWPOLYLINE-140" data-name="LWPOLYLINE"><line class="cls-6" x1="123.25" y1="294.11" x2="116.4" y2="275.92"/></g><g id="LWPOLYLINE-141" data-name="LWPOLYLINE"><polyline class="cls-6" points="190.51 252.75 190.51 367.93 79.73 367.93 79.73 344.43 167.05 344.43 167.05 252.75"/></g><g id="LWPOLYLINE-142" data-name="LWPOLYLINE"><line class="cls-6" x1="108.25" y1="294.11" x2="115.08" y2="275.92"/></g><g id="LWPOLYLINE-143" data-name="LWPOLYLINE"><line class="cls-6" x1="114.43" y1="273.43" x2="108.25" y2="265.98"/></g><g id="LWPOLYLINE-144" data-name="LWPOLYLINE"><line class="cls-6" x1="117.12" y1="273.52" x2="123.25" y2="265.98"/></g><g id="CIRCLE-4" data-name="CIRCLE"><path class="cls-6" d="M114.1,274.43a1.64,1.64,0,1,1,1.64,1.64,1.64,1.64,0,0,1-1.64-1.64Z"/></g><g id="LWPOLYLINE-145" data-name="LWPOLYLINE"><path class="cls-6" d="M114.23,280.56H106.6a.52.52,0,0,1,0-1h7.61a.52.52,0,0,1,0,1Z"/></g><g id="CIRCLE-5" data-name="CIRCLE"><path class="cls-6" d="M105.64,280a1,1,0,1,1,1,1,1,1,0,0,1-1-1Z"/></g><g id="LWPOLYLINE-146" data-name="LWPOLYLINE"><rect class="cls-6" x="105.75" y="280.56" width="1.75" height="1.46"/></g><g id="LWPOLYLINE-147" data-name="LWPOLYLINE"><rect class="cls-6" x="105.75" y="282.02" width="1.75" height="0.17"/></g><g id="LWPOLYLINE-148" data-name="LWPOLYLINE"><path class="cls-6" d="M107.54,282.19h-1.82v1.08a1.45,1.45,0,0,0,1.82,0Z"/></g><g id="LWPOLYLINE-149" data-name="LWPOLYLINE"><rect class="cls-8" x="86.45" y="230.36" width="39.37" height="75.94"/></g><g id="LWPOLYLINE-150" data-name="LWPOLYLINE"><rect class="cls-6" x="167.08" y="228.48" width="23.44" height="24.87"/></g><g id="LWPOLYLINE-151" data-name="LWPOLYLINE"><polyline class="cls-6" points="108.55 295.18 122.48 295.18 122.48 269.07 108.55 269.07 108.55 295.18"/></g><rect class="cls-8" x="105.18" y="280.12" width="3.18" height="1.33" transform="translate(387.56 174.02) rotate(90)"/><path class="cls-8" d="M107.3,283.08a.92.92,0,0,0,.31-.31h6.7a.47.47,0,0,0,.48-.48.48.48,0,0,0-.48-.48h-6.7a.92.92,0,1,0-.31,1.27Z"/><g id="CIRCLE-6" data-name="CIRCLE"><path class="cls-6" d="M175.61,288.06a.7.7,0,1,1-.7-.7.7.7,0,0,1,.7.7Z"/></g><g id="CIRCLE-7" data-name="CIRCLE"><path class="cls-6" d="M175.61,292.43a.7.7,0,1,1-1.4,0,.7.7,0,1,1,1.4,0Z"/></g><g id="CIRCLE-8" data-name="CIRCLE"><path class="cls-6" d="M178.47,292.43a.7.7,0,1,1-1.39,0,.7.7,0,1,1,1.39,0Z"/></g><g id="CIRCLE-9" data-name="CIRCLE"><path class="cls-6" d="M178.47,290.24a.7.7,0,1,1-.7-.69.7.7,0,0,1,.7.69Z"/></g><g id="CIRCLE-10" data-name="CIRCLE"><path class="cls-6" d="M178.47,288.06a.7.7,0,1,1-.7-.7.69.69,0,0,1,.7.7Z"/></g><g id="LWPOLYLINE-152" data-name="LWPOLYLINE"><rect class="cls-6" x="172.03" y="276.75" width="16.03" height="26.99" rx="0.38" ry="0.38"/></g><circle class="cls-6" cx="183.91" cy="298.92" r="1.32"/><path class="cls-6" d="M180.73,294.93h5.85a.56.56,0,0,1,.56.57v6.85a.57.57,0,0,1-.56.57h-5.85a0,0,0,0,1,0-.05V295A0,0,0,0,1,180.73,294.93Z"/><circle class="cls-6" cx="183.91" cy="290.24" r="1.32"/><path class="cls-6" d="M180.73,286.25h5.85a.56.56,0,0,1,.56.57v6.85a.57.57,0,0,1-.56.57h-5.85a0,0,0,0,1,0-.05V286.3A0,0,0,0,1,180.73,286.25Z"/><circle class="cls-6" cx="183.91" cy="281.56" r="1.32"/><path class="cls-6" d="M180.73,277.57h5.85a.56.56,0,0,1,.56.57V285a.57.57,0,0,1-.56.57h-5.85s0,0,0-.05v-7.89A0,0,0,0,1,180.73,277.57Z"/><circle class="cls-6" cx="176.34" cy="281.56" r="1.32"/><path class="cls-6" d="M179.52,285.56h-5.85a.56.56,0,0,1-.55-.57v-6.85a.55.55,0,0,1,.55-.57h5.85a0,0,0,0,1,0,.05v7.89A.05.05,0,0,1,179.52,285.56Z"/><circle class="cls-6" cx="176.34" cy="298.92" r="1.32"/><path class="cls-6" d="M179.52,302.92h-5.85a.56.56,0,0,1-.55-.57V295.5a.55.55,0,0,1,.55-.57h5.85a0,0,0,0,1,0,.05v7.89A0,0,0,0,1,179.52,302.92Z"/><g id="LINE-34" data-name="LINE"><line class="cls-6" x1="179.57" y1="253.43" x2="179.57" y2="254.43"/><line class="cls-9" x1="179.57" y1="256.39" x2="179.57" y2="353.53"/><polyline class="cls-6" points="179.57 354.51 179.57 355.51 178.57 355.51"/><line class="cls-10" x1="176.51" y1="355.51" x2="132.31" y2="355.51"/><line class="cls-6" x1="131.28" y1="355.51" x2="130.28" y2="355.51"/></g><line class="cls-6" x1="96.76" y1="344.5" x2="96.76" y2="369.55"/><line class="cls-6" x1="130.28" y1="344.5" x2="130.28" y2="370.99"/></g><g id="A-ABOVE"><g id="LWPOLYLINE-153" data-name="LWPOLYLINE"><line class="cls-11" x1="356.22" y1="474.58" x2="302.19" y2="474.58"/></g><g id="LWPOLYLINE-154" data-name="LWPOLYLINE"><line class="cls-11" x1="252.86" y1="355.51" x2="199.89" y2="355.51"/></g><g id="LWPOLYLINE-155" data-name="LWPOLYLINE"><polyline class="cls-11" points="211.14 241.25 211.14 302.66 253.91 302.66"/></g><g id="LWPOLYLINE-156" data-name="LWPOLYLINE"><line class="cls-11" x1="150.8" y1="428.64" x2="99.46" y2="428.64"/></g><g id="LWPOLYLINE-157" data-name="LWPOLYLINE"><line class="cls-11" x1="95.94" y1="454.65" x2="28.91" y2="454.65"/></g><g id="LWPOLYLINE-158" data-name="LWPOLYLINE"><line class="cls-11" x1="207.04" y1="177.39" x2="207.04" y2="212.9"/></g><g id="LWPOLYLINE-159" data-name="LWPOLYLINE"><line class="cls-11" x1="221.57" y1="226.49" x2="253.91" y2="226.49"/></g><g id="LWPOLYLINE-160" data-name="LWPOLYLINE"><polyline class="cls-11" points="95.83 306.29 95.83 239.73 125.83 239.73"/></g><polyline class="cls-11" points="125.71 243.74 104.85 243.74 104.85 261.76 125.71 261.76"/></g><g id="A-HANGER"><g id="LINE-35" data-name="LINE"><line class="cls-7" x1="352.27" y1="467.46" x2="352.27" y2="480.52"/></g><g id="LINE-36" data-name="LINE"><line class="cls-7" x1="349.85" y1="467.46" x2="349.85" y2="480.52"/></g><g id="LINE-37" data-name="LINE"><line class="cls-7" x1="347.43" y1="467.46" x2="347.43" y2="480.52"/></g><g id="LINE-38" data-name="LINE"><line class="cls-7" x1="345.01" y1="467.46" x2="345.01" y2="480.52"/></g><g id="LINE-39" data-name="LINE"><line class="cls-7" x1="342.59" y1="467.46" x2="342.59" y2="480.52"/></g><g id="LINE-40" data-name="LINE"><line class="cls-7" x1="340.17" y1="480.52" x2="340.17" y2="467.46"/></g><g id="LINE-41" data-name="LINE"><line class="cls-7" x1="248.91" y1="348.99" x2="248.91" y2="362.04"/></g><g id="LINE-42" data-name="LINE"><line class="cls-7" x1="246.49" y1="348.99" x2="246.49" y2="362.04"/></g><g id="LINE-43" data-name="LINE"><line class="cls-7" x1="244.07" y1="348.99" x2="244.07" y2="362.04"/></g><g id="LINE-44" data-name="LINE"><line class="cls-7" x1="241.65" y1="348.99" x2="241.65" y2="362.04"/></g><g id="LINE-45" data-name="LINE"><line class="cls-7" x1="239.23" y1="348.99" x2="239.23" y2="362.04"/></g><g id="LINE-46" data-name="LINE"><line class="cls-7" x1="236.81" y1="362.04" x2="236.81" y2="348.98"/></g><g id="LINE-47" data-name="LINE"><line class="cls-7" x1="249.96" y1="296.13" x2="249.96" y2="309.19"/></g><g id="LINE-48" data-name="LINE"><line class="cls-7" x1="247.55" y1="296.13" x2="247.55" y2="309.19"/></g><g id="LINE-49" data-name="LINE"><line class="cls-7" x1="245.13" y1="296.13" x2="245.13" y2="309.19"/></g><g id="LINE-50" data-name="LINE"><line class="cls-7" x1="242.71" y1="296.13" x2="242.71" y2="309.19"/></g><g id="LINE-51" data-name="LINE"><line class="cls-7" x1="240.29" y1="296.13" x2="240.29" y2="309.19"/></g><g id="LINE-52" data-name="LINE"><line class="cls-7" x1="237.87" y1="309.19" x2="237.87" y2="296.13"/></g><g id="LINE-53" data-name="LINE"><line class="cls-7" x1="204.61" y1="245.2" x2="217.66" y2="245.2"/></g><g id="LINE-54" data-name="LINE"><line class="cls-7" x1="204.61" y1="247.62" x2="217.66" y2="247.62"/></g><g id="LINE-55" data-name="LINE"><line class="cls-7" x1="204.61" y1="250.04" x2="217.66" y2="250.04"/></g><g id="LINE-56" data-name="LINE"><line class="cls-7" x1="204.61" y1="252.46" x2="217.66" y2="252.46"/></g><g id="LINE-57" data-name="LINE"><line class="cls-7" x1="204.61" y1="254.88" x2="217.66" y2="254.88"/></g><g id="LINE-58" data-name="LINE"><line class="cls-7" x1="217.66" y1="257.3" x2="204.61" y2="257.3"/></g><g id="LINE-59" data-name="LINE"><line class="cls-7" x1="146.85" y1="421.52" x2="146.85" y2="434.58"/></g><g id="LINE-60" data-name="LINE"><line class="cls-7" x1="144.43" y1="421.52" x2="144.43" y2="434.58"/></g><g id="LINE-61" data-name="LINE"><line class="cls-7" x1="142.02" y1="421.52" x2="142.01" y2="434.58"/></g><g id="LINE-62" data-name="LINE"><line class="cls-7" x1="139.6" y1="421.52" x2="139.6" y2="434.58"/></g><g id="LINE-63" data-name="LINE"><line class="cls-7" x1="137.18" y1="421.52" x2="137.18" y2="434.58"/></g><g id="LINE-64" data-name="LINE"><line class="cls-7" x1="134.76" y1="434.58" x2="134.76" y2="421.52"/></g><g id="LINE-65" data-name="LINE"><line class="cls-7" x1="92" y1="447.54" x2="92" y2="460.59"/></g><g id="LINE-66" data-name="LINE"><line class="cls-7" x1="89.58" y1="447.54" x2="89.58" y2="460.59"/></g><g id="LINE-67" data-name="LINE"><line class="cls-7" x1="87.16" y1="447.54" x2="87.16" y2="460.59"/></g><g id="LINE-68" data-name="LINE"><line class="cls-7" x1="84.74" y1="447.54" x2="84.74" y2="460.59"/></g><g id="LINE-69" data-name="LINE"><line class="cls-7" x1="82.32" y1="447.54" x2="82.32" y2="460.59"/></g><g id="LINE-70" data-name="LINE"><line class="cls-7" x1="79.9" y1="460.59" x2="79.9" y2="447.54"/></g><g id="LINE-71" data-name="LINE"><line class="cls-7" x1="200.51" y1="181.33" x2="213.56" y2="181.33"/></g><g id="LINE-72" data-name="LINE"><line class="cls-7" x1="200.51" y1="183.75" x2="213.56" y2="183.75"/></g><g id="LINE-73" data-name="LINE"><line class="cls-7" x1="200.51" y1="186.17" x2="213.56" y2="186.17"/></g><g id="LINE-74" data-name="LINE"><line class="cls-7" x1="200.51" y1="188.59" x2="213.56" y2="188.59"/></g><g id="LINE-75" data-name="LINE"><line class="cls-7" x1="200.51" y1="191.01" x2="213.56" y2="191.01"/></g><g id="LINE-76" data-name="LINE"><line class="cls-7" x1="213.56" y1="193.43" x2="200.51" y2="193.43"/></g><g id="LINE-77" data-name="LINE"><line class="cls-7" x1="249.96" y1="219.96" x2="249.96" y2="233.02"/></g><g id="LINE-78" data-name="LINE"><line class="cls-7" x1="247.55" y1="219.96" x2="247.55" y2="233.02"/></g><g id="LINE-79" data-name="LINE"><line class="cls-7" x1="245.13" y1="219.96" x2="245.13" y2="233.02"/></g><g id="LINE-80" data-name="LINE"><line class="cls-7" x1="242.71" y1="219.96" x2="242.71" y2="233.02"/></g><g id="LINE-81" data-name="LINE"><line class="cls-7" x1="240.29" y1="219.96" x2="240.29" y2="233.02"/></g><g id="LINE-82" data-name="LINE"><line class="cls-7" x1="237.87" y1="233.02" x2="237.87" y2="219.96"/></g><g id="LINE-83" data-name="LINE"><line class="cls-7" x1="204.61" y1="247.62" x2="217.66" y2="247.62"/></g></g><g id="FAUCETS"><g id="ARC-36" data-name="ARC"><path class="cls-8" d="M358.16,290.16c2.84-.32,10.32-.9,10.32-.9"/></g><g id="ARC-37" data-name="ARC"><path class="cls-8" d="M364.73,300.24a.75.75,0,0,1-.46.69c-.31.13-.63.25-.95.35a13.05,13.05,0,0,1-2.62.58c-.48.05-.95.09-1.43.12a14.08,14.08,0,0,1-3.72-.31,9,9,0,0,1-4.75-2.75,4.28,4.28,0,0,1,.06-5.84,9,9,0,0,1,4.8-2.65,13.74,13.74,0,0,1,3.73-.24c.47,0,.95.08,1.42.15a13.59,13.59,0,0,1,2.61.62c.32.12.63.24.94.38a.74.74,0,0,1,.45.69Z"/></g><g id="ARC-38" data-name="ARC"><path class="cls-8" d="M358.05,302c2.83.36,10.43.9,10.43.9"/></g><g id="ARC-39" data-name="ARC"><path class="cls-8" d="M368.35,289.26a1,1,0,0,0-.93.87,50.67,50.67,0,0,0,0,11.89,1,1,0,0,0,.93.87h0c1,.05,2,.08,3.06.11a1.32,1.32,0,0,0,1.34-1.2c.16-1.9.24-3.81.24-5.72s-.08-3.83-.24-5.73a1.32,1.32,0,0,0-1.34-1.2c-1,0-2,.06-3.06.11Z"/></g><g id="LWPOLYLINE-161" data-name="LWPOLYLINE"><path class="cls-6" d="M367.19,262v7.44a.83.83,0,0,1-.83.83h-9.91a.83.83,0,0,1-.83-.83v-15.7a.83.83,0,0,1,.83-.83h9.91a.83.83,0,0,1,.83.83V262Z"/></g><g id="ARC-40" data-name="ARC"><path class="cls-8" d="M369.25,261.14a1,1,0,1,1,1.37,1.37,1,1,0,0,1-1.37-.53Z"/></g><g id="ARC-41" data-name="ARC"><path class="cls-8" d="M370.41,256.37a1,1,0,1,1-.42,0Z"/></g><g id="ARC-42" data-name="ARC"><path class="cls-8" d="M370.41,266.75a1,1,0,1,0-.42,0Z"/></g><g id="LINE-84" data-name="LINE"><path class="cls-8" d="M365.2,261.14h5a.42.42,0,0,1,0,.84h-5a.42.42,0,0,1,0-.84Z"/></g><line class="cls-8" x1="370.2" y1="257.4" x2="370.2" y2="254.48"/><line class="cls-8" x1="370.2" y1="268.64" x2="370.2" y2="265.72"/><g id="LWPOLYLINE-162" data-name="LWPOLYLINE"><path class="cls-6" d="M367.19,237.19v7.44a.83.83,0,0,1-.83.83h-9.91a.83.83,0,0,1-.83-.83v-15.7a.83.83,0,0,1,.83-.83h9.91a.83.83,0,0,1,.83.83v8.26Z"/></g><g id="LWPOLYLINE-163" data-name="LWPOLYLINE"><rect class="cls-6" x="353.14" y="221.7" width="19.83" height="59.5"/></g><g id="ARC-43" data-name="ARC"><path class="cls-8" d="M369.25,236.16a1,1,0,1,1,0,.83Z"/></g><g id="ARC-44" data-name="ARC"><path class="cls-8" d="M370.41,231.39a1,1,0,0,1-.21,2.06,1,1,0,0,1-.21-2.06Z"/></g><g id="ARC-45" data-name="ARC"><path class="cls-8" d="M370.41,241.76a1,1,0,0,0-.21-2.06,1,1,0,0,0-.21,2.06Z"/></g><g id="LINE-85" data-name="LINE"><path class="cls-8" d="M365.2,236.16h5a.42.42,0,1,1,0,.83h-5a.42.42,0,0,1,0-.83Z"/></g><line class="cls-8" x1="370.2" y1="232.42" x2="370.2" y2="229.49"/><line class="cls-8" x1="370.2" y1="243.66" x2="370.2" y2="240.73"/><g id="LWPOLYLINE-164" data-name="LWPOLYLINE"><rect class="cls-8" x="352.85" y="398.29" width="20.66" height="26.91"/></g><g id="LWPOLYLINE-165" data-name="LWPOLYLINE"><path class="cls-8" d="M356.89,419.91a1.14,1.14,0,0,1-1.15-1.15v-14a1.14,1.14,0,0,1,1.15-1.15h10.38a1,1,0,0,1,1,1V419a1,1,0,0,1-1,1Z"/></g><g id="ARC-46" data-name="ARC"><path class="cls-8" d="M356.29,435.61c3.3-.36,12-1.05,12-1.05"/></g><g id="ARC-47" data-name="ARC"><path class="cls-8" d="M363.93,447.34a.88.88,0,0,1-.54.8c-.36.15-.73.29-1.1.41a15.1,15.1,0,0,1-3.05.67c-.55.06-1.1.11-1.66.14a16.58,16.58,0,0,1-4.33-.36,10.57,10.57,0,0,1-5.52-3.19,5,5,0,0,1,.07-6.8,10.43,10.43,0,0,1,5.58-3.08,16.15,16.15,0,0,1,4.33-.28c.56,0,1.11.1,1.66.17a15.3,15.3,0,0,1,3,.73c.37.13.73.28,1.09.43a.86.86,0,0,1,.52.81Z"/></g><g id="ARC-48" data-name="ARC"><path class="cls-8" d="M356.16,449.37c3.29.42,12.13,1.05,12.13,1.05"/></g><g id="ARC-49" data-name="ARC"><path class="cls-8" d="M368.14,434.57a1.14,1.14,0,0,0-1.08,1,57.14,57.14,0,0,0,0,13.83,1.15,1.15,0,0,0,1.08,1h0c1.19.05,2.38.1,3.57.12a1.52,1.52,0,0,0,1.55-1.39q.28-3.31.28-6.66t-.28-6.65a1.54,1.54,0,0,0-1.55-1.4c-1.19,0-2.38.08-3.57.13Z"/></g><g id="ARC-50" data-name="ARC"><path class="cls-8" d="M369.66,411.26a1.21,1.21,0,1,1,0,1Z"/></g><g id="ARC-51" data-name="ARC"><path class="cls-8" d="M371,405.71a1.21,1.21,0,1,1-.48,0Z"/></g><g id="ARC-52" data-name="ARC"><path class="cls-8" d="M371,417.78a1.21,1.21,0,1,0-.48,0Z"/></g><g id="LINE-86" data-name="LINE"><path class="cls-8" d="M365,411.26h5.81a.49.49,0,0,1,0,1H365a.49.49,0,1,1,0-1Z"/></g><line class="cls-8" x1="370.77" y1="406.91" x2="370.77" y2="403.51"/><line class="cls-8" x1="370.77" y1="419.98" x2="370.77" y2="416.58"/><g id="LWPOLYLINE-166" data-name="LWPOLYLINE"><rect class="cls-8" x="220.73" y="533.31" width="19.53" height="25.44"/></g><g id="LWPOLYLINE-167" data-name="LWPOLYLINE"><path class="cls-8" d="M224.54,538.31a1.09,1.09,0,0,0-1.09,1.09v13.26a1.09,1.09,0,0,0,1.09,1.09h9.81a.91.91,0,0,0,.91-.91V539.22a.91.91,0,0,0-.91-.91Z"/></g><g id="ARC-53" data-name="ARC"><path class="cls-8" d="M224,523.46c3.11.35,11.34,1,11.34,1"/></g><g id="ARC-54" data-name="ARC"><path class="cls-8" d="M231.2,512.38a.84.84,0,0,0-.51-.76c-.34-.14-.69-.27-1-.39a15.06,15.06,0,0,0-2.89-.63c-.52-.06-1-.1-1.56-.13a15.16,15.16,0,0,0-4.09.34,10,10,0,0,0-5.23,3,4.71,4.71,0,0,0,.07,6.42,9.88,9.88,0,0,0,5.28,2.92,15.15,15.15,0,0,0,4.09.26c.53,0,1.05-.09,1.57-.16a14.29,14.29,0,0,0,2.87-.69c.35-.12.69-.26,1-.41a.85.85,0,0,0,.5-.77Z"/></g><g id="ARC-55" data-name="ARC"><path class="cls-8" d="M223.85,510.46c3.11-.4,11.47-1,11.47-1"/></g><g id="ARC-56" data-name="ARC"><path class="cls-8" d="M235.18,524.45a1.1,1.1,0,0,1-1-1,56.47,56.47,0,0,1,0-13.08,1.09,1.09,0,0,1,1-.95h0l3.37-.12a1.44,1.44,0,0,1,1.47,1.32q.27,3.13.27,6.29t-.27,6.29a1.44,1.44,0,0,1-1.47,1.32l-3.37-.12Z"/></g><g id="ARC-57" data-name="ARC"><path class="cls-8" d="M236.62,546.49a1.13,1.13,0,0,0,1,.68,1.14,1.14,0,1,0-1-1.6Z"/></g><g id="ARC-58" data-name="ARC"><path class="cls-8" d="M237.9,551.73a1.15,1.15,0,1,0-.46,0Z"/></g><g id="ARC-59" data-name="ARC"><path class="cls-8" d="M237.9,540.33a1.15,1.15,0,1,1-.46,0Z"/></g><g id="LINE-87" data-name="LINE"><path class="cls-8" d="M232.17,546.49h5.5a.46.46,0,0,0,0-.92h-5.5a.46.46,0,0,0,0,.92Z"/></g><line class="cls-8" x1="237.67" y1="550.6" x2="237.67" y2="553.82"/><line class="cls-8" x1="237.67" y1="538.24" x2="237.67" y2="541.46"/></g><g id="A-WALL"><g id="LWPOLYLINE-168" data-name="LWPOLYLINE"><polygon class="cls-12" points="357.68 617.08 361.43 617.08 361.43 615.2 398.87 615.2 398.87 0.2 395.12 0.2 393.89 2.32 392.31 4.2 390.43 5.78 388.3 7 385.99 7.84 383.57 8.27 381.12 8.27 378.7 7.84 376.4 7 374.27 5.78 372.39 4.2 370.81 2.32 369.57 0.2 365.82 0.2 365.82 33.48 372.97 33.48 372.97 173.87 294.93 173.87 294.93 177.39 298.68 177.39 298.68 217.7 302.19 217.7 302.19 177.39 372.97 177.39 372.97 314.5 339.69 314.5 339.69 318.01 372.97 318.01 372.97 353.64 302.19 353.64 302.19 251.45 298.68 251.45 298.68 366.76 294.93 366.76 294.93 372.5 298.68 372.5 298.68 413.87 291.78 413.87 291.78 417.39 298.68 417.39 298.68 421.14 302.19 421.14 302.19 363.01 360.8 363.01 360.8 394.89 373.44 394.89 373.44 458.64 302.19 458.64 302.19 454.89 298.68 454.89 298.68 489.34 306.7 489.34 306.7 485.82 302.19 485.82 302.19 462.15 356.21 462.15 356.21 485.82 351.7 485.82 351.7 489.34 373.07 489.34 373.07 600.2 357.68 600.2 357.68 608.59 357.68 617.08"/></g><g id="LWPOLYLINE-169" data-name="LWPOLYLINE"><polygon class="cls-12" points="267.68 617.08 267.68 600.2 251.11 600.2 251.11 417.39 258.03 417.39 258.03 413.87 194.75 413.87 194.75 417.39 201.43 417.39 201.43 424.42 204.94 424.42 204.94 420.67 240.33 420.67 240.33 461.92 204.94 461.92 204.94 458.17 201.43 458.17 201.43 498.25 194.75 498.25 194.75 501.76 240.33 501.76 240.33 565.51 217.95 565.51 217.95 617.08 221.7 617.08 221.7 615.2 263.93 615.2 263.93 617.08 267.68 617.08"/></g><g id="LWPOLYLINE-170" data-name="LWPOLYLINE"><polygon class="cls-12" points="137.32 617.08 137.32 615.2 174.82 615.2 174.82 617.08 178.57 617.08 178.57 595.51 154.32 595.51 154.32 501.76 161 501.76 161 498.25 154.32 498.25 154.32 480.9 150.8 480.9 150.8 600.2 133.57 600.2 133.57 617.08 137.32 617.08"/></g><g id="LWPOLYLINE-171" data-name="LWPOLYLINE"><polygon class="cls-12" points="39.82 617.08 43.57 617.08 43.57 600.2 28.91 600.2 28.91 469.42 99.46 469.42 99.46 443.4 108.25 443.4 108.25 439.89 99.46 439.89 99.46 417.39 150.8 417.39 150.8 439.89 142 439.89 142 443.4 150.8 443.4 150.8 447.15 154.32 447.15 154.32 417.39 161 417.39 161 413.87 99.46 413.87 99.46 410.06 95.94 410.06 95.94 439.89 90.32 439.89 90.32 443.4 95.94 443.4 95.94 465.9 28.91 465.9 28.91 443.4 34.07 443.4 34.07 439.89 28.91 439.89 28.91 434.73 23.17 434.73 23.17 437.66 17.54 437.66 17.54 439.42 14.26 439.42 14.26 490.51 0.2 490.51 0.2 608.64 0.2 615.2 39.82 615.2 39.82 617.08"/></g><g id="LWPOLYLINE-172" data-name="LWPOLYLINE"><polygon class="cls-12" points="28.91 400.98 28.91 372.5 33.45 372.5 33.45 367.93 28.91 367.93 28.91 33.48 31.14 33.48 31.14 0.2 27.39 0.2 26.14 2.4 24.52 4.35 22.59 5.99 20.4 7.27 18.02 8.14 15.53 8.58 14.26 8.58 14.26 382.47 17.54 382.47 17.54 387.04 23.17 387.04 23.17 400.98 28.91 400.98"/></g><g id="LWPOLYLINE-173" data-name="LWPOLYLINE"><polygon class="cls-12" points="95.94 376.31 99.46 376.31 99.46 372.5 204.16 372.5 204.16 366.82 199.89 366.82 199.89 344.32 252.86 344.32 252.86 366.76 249.16 366.76 249.16 372.56 261.18 372.56 261.18 366.76 257.43 366.74 257.43 278.75 253.91 278.75 253.91 313.91 199.89 313.91 199.89 241.25 253.91 241.25 253.91 245 257.43 245 257.43 217.11 253.91 217.11 253.91 237.74 221.57 237.74 221.57 212.9 195.79 212.9 195.79 177.39 253.91 177.39 253.91 183.36 257.43 183.36 257.43 177.39 261.18 177.39 261.18 173.87 226.14 173.87 226.14 0.2 222.39 0.2 221.14 2.4 219.52 4.35 217.59 5.99 215.4 7.27 213.02 8.14 210.53 8.58 208 8.58 205.5 8.14 203.12 7.27 200.94 5.99 199 4.35 197.39 2.4 196.14 0.2 192.39 0.2 192.39 35.01 220.4 35.01 220.4 148.09 192.27 148.09 192.27 224.97 167.07 224.97 167.07 228.48 190.51 228.48 190.51 367.93 81.53 367.93 81.53 344.5 78.01 344.5 78.01 367.93 72.82 367.93 72.82 372.5 95.94 372.5 95.94 376.31"/></g><g id="LWPOLYLINE-174" data-name="LWPOLYLINE"><polygon class="cls-12" points="279.11 22.7 312.86 22.7 312.86 0.2 309.11 0.2 307.86 2.4 306.24 4.35 304.31 5.99 302.12 7.27 299.74 8.14 297.25 8.58 294.71 8.58 292.22 8.14 289.84 7.27 287.65 5.99 285.72 4.35 284.11 2.4 282.86 0.2 279.11 0.2 279.11 18.47 279.11 22.7"/></g><g id="LWPOLYLINE-175" data-name="LWPOLYLINE"><polygon class="cls-12" points="94.89 22.7 128.64 22.7 128.64 0.2 124.89 0.2 123.64 2.4 122.02 4.35 120.09 5.99 117.9 7.27 115.52 8.14 113.03 8.58 110.5 8.58 108 8.14 105.62 7.27 103.44 5.99 101.5 4.35 99.89 2.4 98.64 0.2 94.89 0.2 94.89 22.7"/></g></g><g id="LABELS"><text class="cls-13" transform="translate(288.86 44.38)"><tspan class="cls-14">M<tspan class="cls-15" x="7.4" y="0">A</tspan><tspan class="cls-16" x="12.71" y="0">S</tspan><tspan class="cls-17" x="18.01" y="0">T</tspan><tspan class="cls-18" x="23.22" y="0">E</tspan><tspan class="cls-19" x="28.17" y="0">R </tspan></tspan><tspan class="cls-20"><tspan x="-2.51" y="8.5">B</tspan><tspan class="cls-18" x="3.11" y="8.5">E</tspan><tspan class="cls-21" x="8.06" y="8.5">D</tspan><tspan class="cls-22" x="13.85" y="8.5">RO</tspan><tspan class="cls-23" x="25.4" y="8.5">O</tspan><tspan class="cls-16" x="31.42" y="8.5">M</tspan></tspan><tspan class="cls-24" x="-10.5" y="17">1</tspan><tspan class="cls-16" x="-7.09" y="17">3</tspan><tspan x="-1.88" y="17">&apos;</tspan><tspan class="cls-25" x="0.17" y="17">-</tspan><tspan class="cls-26" x="3.75" y="17">0</tspan><tspan class="cls-16" x="9.33" y="17">&quot;</tspan><tspan class="cls-27" x="12.91" y="17"> </tspan><tspan class="cls-28" x="14.91" y="17"></tspan><tspan class="cls-19" x="19.41" y="17"> </tspan><tspan class="cls-29" x="22.05" y="17">1</tspan><tspan class="cls-16" x="25.46" y="17">3</tspan><tspan class="cls-30" x="30.68" y="17">&apos;</tspan><tspan class="cls-31" x="33" y="17">-</tspan><tspan class="cls-32" x="36.23" y="17">1</tspan><tspan class="cls-33" x="39.66" y="17">1</tspan><tspan class="cls-34" x="43.09" y="17">&quot;</tspan></text><text class="cls-13" transform="translate(285.86 585.65)"><tspan class="cls-20">B<tspan class="cls-18" x="5.62" y="0">E</tspan><tspan class="cls-21" x="10.58" y="0">D</tspan><tspan class="cls-22" x="16.36" y="0">RO</tspan><tspan class="cls-23" x="27.92" y="0">O</tspan><tspan class="cls-16" x="33.94" y="0">M 2</tspan></tspan><tspan class="cls-35" x="-4.87" y="8.5">1</tspan><tspan class="cls-36" x="-1.38" y="8.5">0</tspan><tspan x="4.22" y="8.5">&apos;</tspan><tspan class="cls-31" x="6.26" y="8.5">-</tspan><tspan class="cls-35" x="9.49" y="8.5">1</tspan><tspan class="cls-26" x="12.98" y="8.5">0</tspan><tspan class="cls-34" x="18.56" y="8.5">&quot;</tspan><tspan class="cls-37" x="22.14" y="8.5"> </tspan><tspan class="cls-38" x="24.14" y="8.5"></tspan><tspan class="cls-37" x="28.64" y="8.5"> </tspan><tspan class="cls-39" x="30.64" y="8.5">1</tspan><tspan class="cls-36" x="34.13" y="8.5">0</tspan><tspan class="cls-30" x="39.73" y="8.5">&apos;</tspan><tspan class="cls-40" x="42.05" y="8.5">-</tspan><tspan class="cls-41" x="45.51" y="8.5">4</tspan><tspan class="cls-34" x="50.39" y="8.5">&quot;</tspan></text><text class="cls-13" transform="translate(57.11 538.33)"><tspan class="cls-20">B<tspan class="cls-18" x="5.62" y="0">E</tspan><tspan class="cls-21" x="10.58" y="0">D</tspan><tspan class="cls-22" x="16.36" y="0">RO</tspan><tspan class="cls-23" x="27.92" y="0">O</tspan><tspan class="cls-16" x="33.94" y="0">M 3</tspan></tspan><tspan class="cls-35" x="-3.89" y="8.5">1</tspan><tspan class="cls-36" x="-0.4" y="8.5">0</tspan><tspan x="5.2" y="8.5">&apos;</tspan><tspan class="cls-31" x="7.24" y="8.5">-</tspan><tspan class="cls-35" x="10.47" y="8.5">1</tspan><tspan class="cls-26" x="13.96" y="8.5">0</tspan><tspan class="cls-34" x="19.54" y="8.5">&quot;</tspan><tspan class="cls-37" x="23.12" y="8.5"> </tspan><tspan class="cls-38" x="25.12" y="8.5"></tspan><tspan class="cls-37" x="29.62" y="8.5"> </tspan><tspan class="cls-42" x="31.62" y="8.5">1</tspan><tspan class="cls-43" x="35.05" y="8.5">2</tspan><tspan class="cls-30" x="40.39" y="8.5">&apos;</tspan><tspan class="cls-31" x="42.7" y="8.5">-</tspan><tspan class="cls-33" x="45.93" y="8.5">1</tspan><tspan class="cls-19" x="49.36" y="8.5">&quot;</tspan></text><text class="cls-13" transform="translate(64.46 161.08)"><tspan class="cls-17">L<tspan class="cls-44" x="4.65" y="0">I</tspan><tspan class="cls-45" x="7.29" y="0">V</tspan><tspan class="cls-46" x="12.73" y="0">I</tspan><tspan class="cls-23" x="15.29" y="0">N</tspan><tspan class="cls-16" x="21.25" y="0">G / </tspan><tspan class="cls-47" x="36.27" y="0">D</tspan><tspan class="cls-46" x="42.07" y="0">I</tspan><tspan class="cls-48" x="44.64" y="0">N</tspan><tspan class="cls-49" x="50.56" y="0">I</tspan><tspan class="cls-23" x="53.13" y="0">N</tspan><tspan class="cls-16" x="59.08" y="0">G </tspan><tspan class="cls-50" x="67.43" y="0">RO</tspan><tspan class="cls-23" x="78.98" y="0">O</tspan><tspan class="cls-16" x="85" y="0">M</tspan></tspan><tspan class="cls-51" x="17" y="8.5">1</tspan><tspan class="cls-52" x="20.52" y="8.5">7</tspan><tspan x="25.2" y="8.5">&apos;</tspan><tspan class="cls-25" x="27.24" y="8.5">-</tspan><tspan class="cls-26" x="30.82" y="8.5">0</tspan><tspan class="cls-16" x="36.4" y="8.5">&quot;</tspan><tspan class="cls-37" x="39.98" y="8.5"> </tspan><tspan class="cls-38" x="41.98" y="8.5"></tspan><tspan class="cls-37" x="46.48" y="8.5"> </tspan><tspan class="cls-53" x="48.48" y="8.5">1</tspan><tspan class="cls-54" x="52.02" y="8.5">8</tspan><tspan class="cls-55" x="57.05" y="8.5">&apos;</tspan><tspan class="cls-56" x="59.37" y="8.5">-</tspan><tspan class="cls-39" x="62.6" y="8.5">1</tspan><tspan class="cls-26" x="66.09" y="8.5">0</tspan><tspan class="cls-16" x="71.68" y="8.5">&quot;</tspan></text><text class="cls-57" transform="translate(58.03 413.77)">F<tspan class="cls-58" x="5.25" y="0">O</tspan><tspan class="cls-59" x="11.36" y="0">Y</tspan><tspan class="cls-60" x="16.9" y="0">E</tspan><tspan class="cls-61" x="22.17" y="0">R</tspan></text><text class="cls-62" transform="translate(213.89 445.52)">W<tspan class="cls-63" x="7.41" y="0">/</tspan><tspan class="cls-61" x="11.84" y="0">D</tspan></text><text class="cls-64" transform="translate(111.08 358.54)">R</text><text class="cls-65" transform="translate(173.38 239.73)">W<tspan class="cls-66" x="6.81" y="0">/</tspan><tspan class="cls-67"><tspan x="-0.11" y="8.5">S</tspan><tspan class="cls-66" x="5.03" y="8.5">O</tspan></tspan></text><text class="cls-68" transform="translate(108.97 255.2)">D<tspan class="cls-28" x="5.45" y="0">W</tspan></text><polygon class="cls-69" points="1.56 410.55 15.96 415.95 1.56 421.35 1.56 410.55"/><line class="cls-6" x1="47.32" y1="605.82" x2="129.82" y2="605.82"/><line class="cls-6" x1="180.85" y1="605.82" x2="215.45" y2="605.82"/><line class="cls-6" x1="268.88" y1="605.82" x2="353.93" y2="605.82"/><line class="cls-6" x1="34.89" y1="17.08" x2="92.08" y2="17.08"/><line class="cls-6" x1="132.39" y1="17.08" x2="189.58" y2="17.08"/><line class="cls-6" x1="229.89" y1="17.08" x2="276.29" y2="17.08"/><line class="cls-6" x1="316.61" y1="17.08" x2="362.59" y2="17.08"/></g><g id="JULIET"><g id="LWPOLYLINE-176" data-name="LWPOLYLINE"><path class="cls-70" d="M93.14,16.74,65,26.66a28,28,0,0,1-1.81-9.92"/></g><g id="LWPOLYLINE-177" data-name="LWPOLYLINE"><path class="cls-70" d="M33.14,16.74l28.19,9.92a28.23,28.23,0,0,0,1.81-9.92"/></g><g id="LWPOLYLINE-178" data-name="LWPOLYLINE"><path class="cls-70" d="M190.64,16.74l-28.19,9.92a28,28,0,0,1-1.81-9.92"/></g><g id="LWPOLYLINE-179" data-name="LWPOLYLINE"><path class="cls-70" d="M130.64,16.74l28.19,9.92a28.23,28.23,0,0,0,1.81-9.92"/></g><g id="LWPOLYLINE-180" data-name="LWPOLYLINE"><path class="cls-70" d="M364.07,16.74l-22.8,9.92a28.22,28.22,0,0,1-1.8-9.92"/></g><g id="LWPOLYLINE-181" data-name="LWPOLYLINE"><path class="cls-70" d="M314.86,16.74l22.8,9.92a28.23,28.23,0,0,0,1.81-9.92"/></g><g id="LWPOLYLINE-182" data-name="LWPOLYLINE"><path class="cls-70" d="M277.36,16.74l-22.8,9.92a28,28,0,0,1-1.81-9.92"/></g><g id="LWPOLYLINE-183" data-name="LWPOLYLINE"><path class="cls-70" d="M228.14,16.74l22.8,9.92a28.23,28.23,0,0,0,1.81-9.92"/></g></g></g></svg>