<?xml version="1.0" standalone="no"?>
<!DOCTYPE svg PUBLIC "-//W3C//DTD SVG 20010904//EN"
 "http://www.w3.org/TR/2001/REC-SVG-20010904/DTD/svg10.dtd">
<svg version="1.0" xmlns="http://www.w3.org/2000/svg"
 width="700.000000pt" height="700.000000pt" viewBox="0 0 700.000000 700.000000"
 preserveAspectRatio="xMidYMid meet">
<metadata>
Created by potrace 1.11, written by Peter Selinger 2001-2013
</metadata>
<g transform="translate(0.000000,700.000000) scale(0.100000,-0.100000)"
fill="#000000" stroke="none">
<path d="M0 3500 l0 -3500 3500 0 3500 0 0 3500 0 3500 -3500 0 -3500 0 0
-3500z m3708 3316 c46 -4 91 -9 100 -11 10 -1 51 -8 92 -15 509 -83 978 -327
1349 -700 108 -109 124 -127 219 -253 196 -257 343 -558 421 -861 33 -127 34
-129 58 -276 30 -185 25 -560 -11 -760 -4 -19 -11 -62 -17 -94 -36 -202 -154
-514 -274 -721 -33 -57 -165 -257 -174 -265 -4 -3 -22 -25 -41 -50 -94 -122
-272 -300 -390 -390 -25 -19 -47 -38 -50 -41 -3 -4 -52 -38 -110 -76 -304
-203 -640 -336 -985 -388 -60 -9 -121 -19 -135 -22 -14 -3 -308 -7 -654 -9
l-629 -3 74 50 c530 364 745 978 547 1564 -116 345 -390 648 -723 800 -61 28
-158 64 -190 71 -5 1 -39 9 -75 18 -92 22 -129 26 -272 33 -104 4 -128 3 -129
-8 -1 -8 -2 -963 -3 -2124 l-1 -2110 -758 0 c-498 0 -761 3 -765 10 -9 14 -9
6629 -1 6635 12 8 3435 4 3527 -4z m3090 -23 c4 -6 7 -1498 6 -3315 l-1 -3303
-354 -1 -354 -1 -80 30 c-44 16 -93 35 -110 43 -16 7 -196 79 -400 159 -203
81 -383 153 -400 160 -28 12 -363 146 -965 384 -140 56 -264 106 -275 111 -11
4 -362 144 -780 311 -418 166 -763 305 -767 308 -4 3 289 6 650 7 361 0 693 4
737 7 502 40 987 221 1377 516 60 44 125 95 145 113 84 73 263 257 319 328 32
41 64 80 70 86 22 24 144 212 192 297 156 274 286 664 317 957 4 36 9 79 11
95 8 66 10 316 3 415 -31 465 -167 873 -424 1275 -191 299 -488 593 -805 797
-99 63 -290 165 -373 199 -31 12 -53 25 -48 28 18 12 2302 5 2309 -6z m-4778
-2568 c8 -2 28 -6 43 -9 113 -20 318 -114 433 -199 233 -173 417 -466 458
-732 2 -16 7 -49 11 -73 9 -57 9 -224 0 -292 -47 -367 -275 -696 -605 -877
-114 -63 -285 -118 -400 -129 -30 -3 -60 -7 -67 -9 -9 -3 -11 274 -11 1167 l0
1170 61 -6 c34 -4 69 -9 77 -11z m-97 -2579 c18 -8 253 -103 522 -211 977
-392 1661 -667 1690 -680 17 -8 224 -91 460 -185 237 -95 444 -178 460 -185
17 -7 137 -56 268 -108 131 -52 234 -97 230 -99 -4 -2 -831 -4 -1838 -4
l-1830 1 -2 743 c-1 408 1 742 4 742 3 0 19 -6 36 -14z"/>
</g>
</svg>
