<svg xmlns="http://www.w3.org/2000/svg" viewBox="0 0 464.404 427.786"><title>_nofpUnit11C_x</title><g id="Layer_2" data-name="Layer 2"><g id="Unit11C_Rest"><g id="LWPOLYLINE"><path d="M407.954,17.075,376.239,28.618A33.759,33.759,0,0,1,374.2,17.075a33.736,33.736,0,0,1-2.036,11.543L340.454,17.075" style="fill:none;stroke:#231f20;stroke-linecap:round;stroke-linejoin:round;stroke-width:0.25px;stroke-dasharray:1.3229475021362305,1.3229475021362305"/></g><g id="LWPOLYLINE-2" data-name="LWPOLYLINE"><rect x="2.677" y="66.162" width="103.409" height="108.328" style="fill:#fff;stroke:#231f20;stroke-linecap:round;stroke-linejoin:round;stroke-width:0.15px"/></g><g id="LWPOLYLINE-3" data-name="LWPOLYLINE"><rect x="326.719" y="59.29" width="121.683" height="91.401" style="fill:#fff;stroke:#231f20;stroke-linecap:round;stroke-linejoin:round;stroke-width:0.15px"/></g><g id="LWPOLYLINE-4" data-name="LWPOLYLINE"><rect x="139.712" y="92.343" width="15" height="56.25" style="fill:#fff;stroke:#231f20;stroke-linecap:round;stroke-linejoin:round;stroke-width:0.150000005960464px"/></g><g id="LWPOLYLINE-5" data-name="LWPOLYLINE"><rect x="160.454" y="84.107" width="15" height="56.25" style="fill:#fff;stroke:#231f20;stroke-linecap:round;stroke-linejoin:round;stroke-width:0.150000005960464px"/></g><rect x="231.001" y="335.473" width="25.313" height="27.891" style="fill:#fff"/><g id="LWPOLYLINE-6" data-name="LWPOLYLINE"><rect x="2.677" y="84.843" width="80.625" height="71.25" style="fill:#fff;stroke:#231f20;stroke-linecap:round;stroke-linejoin:round;stroke-width:0.150000005960464px"/></g><g id="LWPOLYLINE-7" data-name="LWPOLYLINE"><rect x="2.677" y="158.085" width="15.937" height="20.156" style="fill:#fff;stroke:#231f20;stroke-linecap:round;stroke-linejoin:round;stroke-width:0.150000005960464px"/></g><g id="LWPOLYLINE-8" data-name="LWPOLYLINE"><rect x="2.677" y="62.694" width="15.937" height="20.156" style="fill:#fff;stroke:#231f20;stroke-linecap:round;stroke-linejoin:round;stroke-width:0.150000005960464px"/></g><g id="LWPOLYLINE-9" data-name="LWPOLYLINE"><rect x="8.031" y="121.741" width="14.683" height="31.809" style="fill:none;stroke:#231f20;stroke-linecap:round;stroke-linejoin:round;stroke-width:0.150000005960464px"/></g><g id="LINE-2" data-name="LINE"><line x1="5.489" y1="84.843" x2="5.489" y2="156.093" style="fill:none;stroke:#231f20;stroke-linecap:round;stroke-linejoin:round;stroke-width:0.150000005960464px"/></g><g id="LINE-3" data-name="LINE"><line x1="80.489" y1="84.843" x2="80.489" y2="156.093" style="fill:none;stroke:#231f20;stroke-linecap:round;stroke-linejoin:round;stroke-width:0.150000005960464px"/></g><g id="LWPOLYLINE-10" data-name="LWPOLYLINE"><rect x="8.031" y="87.385" width="14.683" height="31.809" style="fill:none;stroke:#231f20;stroke-linecap:round;stroke-linejoin:round;stroke-width:0.150000005960464px"/></g><g id="LWPOLYLINE-11" data-name="LWPOLYLINE"><rect x="267.389" y="57.857" width="16.875" height="22.5" style="fill:#fff;stroke:#231f20;stroke-linecap:round;stroke-linejoin:round;stroke-width:0.150000005960464px"/></g><g id="LWPOLYLINE-12" data-name="LWPOLYLINE"><rect x="267.389" y="144.107" width="16.875" height="22.5" style="fill:#fff;stroke:#231f20;stroke-linecap:round;stroke-linejoin:round;stroke-width:0.150000005960464px"/></g><g id="LWPOLYLINE-13" data-name="LWPOLYLINE"><rect x="203.639" y="84.107" width="80.625" height="56.25" style="fill:#fff;stroke:#231f20;stroke-linecap:round;stroke-linejoin:round;stroke-width:0.150000005960464px"/></g><g id="LINE-4" data-name="LINE"><line x1="281.451" y1="84.107" x2="281.451" y2="140.357" style="fill:none;stroke:#231f20;stroke-linecap:round;stroke-linejoin:round;stroke-width:0.150000005960464px"/></g><g id="LINE-5" data-name="LINE"><line x1="206.451" y1="84.107" x2="206.451" y2="140.357" style="fill:none;stroke:#231f20;stroke-linecap:round;stroke-linejoin:round;stroke-width:0.150000005960464px"/></g><g id="LWPOLYLINE-14" data-name="LWPOLYLINE"><rect x="264.226" y="113.506" width="14.683" height="24.309" style="fill:none;stroke:#231f20;stroke-linecap:round;stroke-linejoin:round;stroke-width:0.150000005960464px"/></g><g id="LWPOLYLINE-15" data-name="LWPOLYLINE"><rect x="264.226" y="86.649" width="14.683" height="24.309" style="fill:none;stroke:#231f20;stroke-linecap:round;stroke-linejoin:round;stroke-width:0.150000005960464px"/></g><g id="LWPOLYLINE-16" data-name="LWPOLYLINE"><rect x="338.351" y="348.662" width="12.708" height="37.841" style="fill:#fff;stroke:#231f20;stroke-linecap:round;stroke-linejoin:round;stroke-width:0.150000005960464px"/></g><g id="LWPOLYLINE-17" data-name="LWPOLYLINE"><path d="M376.7,219.232a12.107,12.107,0,0,1,1.166-1.166,11.973,11.973,0,0,1,16.893,1.166l-1.061.923v10.9H377.765v-10.9Z" style="fill:#fff;stroke:#231f20;stroke-linecap:round;stroke-linejoin:round;stroke-width:0.150000005960464px"/></g><g id="LWPOLYLINE-18" data-name="LWPOLYLINE"><path d="M354.2,219.232a12.107,12.107,0,0,1,1.166-1.166,11.973,11.973,0,0,1,16.893,1.166l-1.061.923v10.9H355.265v-10.9Z" style="fill:#fff;stroke:#231f20;stroke-linecap:round;stroke-linejoin:round;stroke-width:0.150000005960464px"/></g><g id="LWPOLYLINE-19" data-name="LWPOLYLINE"><line x1="379.616" y1="218.479" x2="379.616" y2="231.059" style="fill:none;stroke:#231f20;stroke-linecap:round;stroke-linejoin:round;stroke-width:0.150000005960464px"/></g><g id="LWPOLYLINE-20" data-name="LWPOLYLINE"><line x1="391.851" y1="218.479" x2="391.851" y2="231.059" style="fill:none;stroke:#231f20;stroke-linecap:round;stroke-linejoin:round;stroke-width:0.150000005960464px"/></g><g id="LWPOLYLINE-21" data-name="LWPOLYLINE"><path d="M393.7,220.155a10.567,10.567,0,0,0-15.937,0" style="fill:none;stroke:#231f20;stroke-linecap:round;stroke-linejoin:round;stroke-width:0.150000005960464px"/></g><g id="LWPOLYLINE-22" data-name="LWPOLYLINE"><path d="M399.065,219.232a11.968,11.968,0,0,1,18.058,0l-1.06.923v10.9H400.125v-10.9Z" style="fill:#fff;stroke:#231f20;stroke-linecap:round;stroke-linejoin:round;stroke-width:0.150000005960464px"/></g><g id="LWPOLYLINE-23" data-name="LWPOLYLINE"><line x1="401.976" y1="218.479" x2="401.976" y2="231.059" style="fill:none;stroke:#231f20;stroke-linecap:round;stroke-linejoin:round;stroke-width:0.150000005960464px"/></g><g id="LWPOLYLINE-24" data-name="LWPOLYLINE"><line x1="414.212" y1="218.479" x2="414.212" y2="231.059" style="fill:none;stroke:#231f20;stroke-linecap:round;stroke-linejoin:round;stroke-width:0.150000005960464px"/></g><g id="LWPOLYLINE-25" data-name="LWPOLYLINE"><path d="M416.063,220.155a10.572,10.572,0,0,0-15.938,0" style="fill:none;stroke:#231f20;stroke-linecap:round;stroke-linejoin:round;stroke-width:0.150000005960464px"/></g><g id="LWPOLYLINE-26" data-name="LWPOLYLINE"><line x1="357.116" y1="218.479" x2="357.116" y2="231.059" style="fill:none;stroke:#231f20;stroke-linecap:round;stroke-linejoin:round;stroke-width:0.150000005960464px"/></g><g id="LWPOLYLINE-27" data-name="LWPOLYLINE"><line x1="369.351" y1="218.479" x2="369.351" y2="231.059" style="fill:none;stroke:#231f20;stroke-linecap:round;stroke-linejoin:round;stroke-width:0.150000005960464px"/></g><g id="LWPOLYLINE-28" data-name="LWPOLYLINE"><path d="M371.2,220.155a10.567,10.567,0,0,0-15.937,0" style="fill:none;stroke:#231f20;stroke-linecap:round;stroke-linejoin:round;stroke-width:0.150000005960464px"/></g><line x1="27.355" y1="84.843" x2="27.355" y2="156.093" style="fill:none;stroke:#231f20;stroke-linecap:round;stroke-linejoin:round;stroke-width:0.150000005960464px"/><line x1="24.925" y1="84.843" x2="24.925" y2="156.093" style="fill:none;stroke:#231f20;stroke-linecap:round;stroke-linejoin:round;stroke-width:0.150000005960464px"/><g id="LWPOLYLINE-29" data-name="LWPOLYLINE"><polygon points="132.189 90.202 131.015 88.2 130.696 88.387 130.121 88.49 129.617 88.194 128.483 86.617 127.558 85.343 126.798 84.203 125.831 82.671 124.989 81.246 124.648 80.676 124.394 80.202 124.066 79.599 123.703 78.917 122.888 77.307 122.166 75.779 121.626 74.563 121.614 73.978 121.985 73.526 122.304 73.339 120.81 70.791 140.404 59.306 151.782 78.717 132.189 90.202" style="fill:#fff;stroke:#231f20;stroke-linecap:round;stroke-linejoin:round;stroke-width:0.150000005960464px"/></g><g id="LINE-6" data-name="LINE"><line x1="141.897" y1="61.854" x2="122.311" y2="73.34" style="fill:none;stroke:#231f20;stroke-linecap:round;stroke-linejoin:round;stroke-width:0.150000005960464px"/></g><g id="LINE-7" data-name="LINE"><line x1="131.015" y1="88.2" x2="150.609" y2="76.715" style="fill:none;stroke:#231f20;stroke-linecap:round;stroke-linejoin:round;stroke-width:0.150000005960464px"/></g><g id="ARC"><path d="M137.53,64.414a40.145,40.145,0,0,0,8.711,14.861" style="fill:none;stroke:#231f20;stroke-linecap:round;stroke-linejoin:round;stroke-width:0.150000005960464px"/></g><g id="ARC-2" data-name="ARC"><path d="M140.441,62.707a101.189,101.189,0,0,0,8.712,14.861" style="fill:none;stroke:#231f20;stroke-linecap:round;stroke-linejoin:round;stroke-width:0.150000005960464px"/></g><g id="LWPOLYLINE-30" data-name="LWPOLYLINE"><path d="M335.768,168.1v17.812l-5.812-.29a3.75,3.75,0,0,1-3.563-3.746v-9.74a3.75,3.75,0,0,1,3.563-3.746Z" style="fill:#fff;stroke:#231f20;stroke-linecap:round;stroke-linejoin:round;stroke-width:0.150000005960464px"/></g><g id="LWPOLYLINE-31" data-name="LWPOLYLINE"><path d="M384.531,186.135V168.322l5.812.291a3.75,3.75,0,0,1,3.563,3.745V182.1a3.75,3.75,0,0,1-3.563,3.745Z" style="fill:#fff;stroke:#231f20;stroke-linecap:round;stroke-linejoin:round;stroke-width:0.150000005960464px"/></g><g id="LWPOLYLINE-32" data-name="LWPOLYLINE"><path d="M337.878,166.7H355.69l-.29-5.813a3.749,3.749,0,0,0-3.746-3.562h-9.74a3.749,3.749,0,0,0-3.746,3.562Z" style="fill:#fff;stroke:#231f20;stroke-linecap:round;stroke-linejoin:round;stroke-width:0.150000005960464px"/></g><g id="LWPOLYLINE-33" data-name="LWPOLYLINE"><path d="M363.659,166.7h17.813l-.291-5.813a3.749,3.749,0,0,0-3.745-3.562H367.7a3.749,3.749,0,0,0-3.745,3.562Z" style="fill:#fff;stroke:#231f20;stroke-linecap:round;stroke-linejoin:round;stroke-width:0.150000005960464px"/></g><g id="LWPOLYLINE-34" data-name="LWPOLYLINE"><path d="M381.472,186.741H363.659l.291,5.812a3.749,3.749,0,0,0,3.745,3.563h9.741a3.75,3.75,0,0,0,3.745-3.563Z" style="fill:#fff;stroke:#231f20;stroke-linecap:round;stroke-linejoin:round;stroke-width:0.150000005960464px"/></g><g id="LWPOLYLINE-35" data-name="LWPOLYLINE"><path d="M355.69,186.741H337.878l.29,5.812a3.75,3.75,0,0,0,3.746,3.563h9.74a3.75,3.75,0,0,0,3.746-3.563Z" style="fill:#fff;stroke:#231f20;stroke-linecap:round;stroke-linejoin:round;stroke-width:0.150000005960464px"/></g><g id="LWPOLYLINE-36" data-name="LWPOLYLINE"><path d="M335.768,184.506l-5.742-.287a2.343,2.343,0,0,1-2.226-2.341v-9.74a2.343,2.343,0,0,1,2.226-2.341l5.742-.287" style="fill:none;stroke:#231f20;stroke-linecap:round;stroke-linejoin:round;stroke-width:0.150000005960464px"/></g><g id="LWPOLYLINE-37" data-name="LWPOLYLINE"><path d="M384.531,169.73l5.742.287a2.345,2.345,0,0,1,2.227,2.341V182.1a2.345,2.345,0,0,1-2.227,2.341l-5.742.287" style="fill:none;stroke:#231f20;stroke-linecap:round;stroke-linejoin:round;stroke-width:0.150000005960464px"/></g><g id="LWPOLYLINE-38" data-name="LWPOLYLINE"><path d="M354.282,166.7,354,160.953a2.343,2.343,0,0,0-2.341-2.226h-9.74a2.343,2.343,0,0,0-2.341,2.226l-.287,5.743" style="fill:none;stroke:#231f20;stroke-linecap:round;stroke-linejoin:round;stroke-width:0.150000005960464px"/></g><g id="LWPOLYLINE-39" data-name="LWPOLYLINE"><path d="M380.16,166.93l-.287-5.742a2.344,2.344,0,0,0-2.341-2.227h-9.741a2.344,2.344,0,0,0-2.341,2.227l-.287,5.742" style="fill:none;stroke:#231f20;stroke-linecap:round;stroke-linejoin:round;stroke-width:0.150000005960464px"/></g><g id="LWPOLYLINE-40" data-name="LWPOLYLINE"><path d="M365.067,186.741l.287,5.742a2.344,2.344,0,0,0,2.341,2.226h9.741a2.342,2.342,0,0,0,2.34-2.226l.288-5.742" style="fill:none;stroke:#231f20;stroke-linecap:round;stroke-linejoin:round;stroke-width:0.150000005960464px"/></g><g id="LWPOLYLINE-41" data-name="LWPOLYLINE"><path d="M339.19,186.506l.287,5.742a2.343,2.343,0,0,0,2.341,2.227h9.74a2.343,2.343,0,0,0,2.341-2.227l.287-5.742" style="fill:none;stroke:#231f20;stroke-linecap:round;stroke-linejoin:round;stroke-width:0.150000005960464px"/></g><g id="LWPOLYLINE-42" data-name="LWPOLYLINE"><rect x="332.018" y="162.946" width="56.25" height="28.125" style="fill:#fff;stroke:#231f20;stroke-linecap:round;stroke-linejoin:round;stroke-width:0.150000005960464px"/></g><g id="LWPOLYLINE-43" data-name="LWPOLYLINE"><polygon points="381.491 63.171 382.327 33.168 409.046 33.078 410.084 63.075 381.491 63.171" style="fill:#fff;stroke:#231f20;stroke-linecap:round;stroke-linejoin:round;stroke-width:0.150000005960464px"/></g><g id="LWPOLYLINE-44" data-name="LWPOLYLINE"><polygon points="337.242 63.171 338.079 33.168 364.797 33.078 365.835 63.075 337.242 63.171" style="fill:#fff;stroke:#231f20;stroke-linecap:round;stroke-linejoin:round;stroke-width:0.150000005960464px"/></g><g id="CIRCLE"><path d="M368.518,47.074a5.145,5.145,0,1,1,5.145,5.145,5.145,5.145,0,0,1-5.145-5.145Z" style="fill:#fff;stroke:#231f20;stroke-linecap:round;stroke-linejoin:round;stroke-width:0.150000005960464px"/></g><g id="LWPOLYLINE-45" data-name="LWPOLYLINE"><rect x="365.661" y="89.318" width="32.83" height="34.018" style="fill:#fff;stroke:#231f20;stroke-linecap:round;stroke-linejoin:round;stroke-width:0.150000005960464px"/></g><g id="LWPOLYLINE-46" data-name="LWPOLYLINE"><rect x="330.677" y="79.306" width="16.875" height="53.438" rx="1.875" style="fill:#fff;stroke:#231f20;stroke-linecap:round;stroke-linejoin:round;stroke-width:0.150000005960464px"/></g><g id="CIRCLE-2" data-name="CIRCLE"><path d="M334.427,110.244a.469.469,0,1,1,.469.468.469.469,0,0,1-.469-.468Z" style="fill:#fff;stroke:#231f20;stroke-linecap:round;stroke-linejoin:round;stroke-width:0.150000005960464px"/></g><g id="CIRCLE-3" data-name="CIRCLE"><path d="M342.865,110.244a.469.469,0,1,1,.468.468.468.468,0,0,1-.468-.468Z" style="fill:#fff;stroke:#231f20;stroke-linecap:round;stroke-linejoin:round;stroke-width:0.150000005960464px"/></g><g id="CIRCLE-4" data-name="CIRCLE"><path d="M334.427,101.806a.469.469,0,1,1,.469.469.469.469,0,0,1-.469-.469Z" style="fill:#fff;stroke:#231f20;stroke-linecap:round;stroke-linejoin:round;stroke-width:0.150000005960464px"/></g><g id="CIRCLE-5" data-name="CIRCLE"><path d="M342.865,101.806a.469.469,0,1,1,.468.469.468.468,0,0,1-.468-.469Z" style="fill:#fff;stroke:#231f20;stroke-linecap:round;stroke-linejoin:round;stroke-width:0.150000005960464px"/></g><g id="CIRCLE-6" data-name="CIRCLE"><path d="M334.427,93.369a.469.469,0,1,1,.469.468.469.469,0,0,1-.469-.468Z" style="fill:#fff;stroke:#231f20;stroke-linecap:round;stroke-linejoin:round;stroke-width:0.150000005960464px"/></g><g id="CIRCLE-7" data-name="CIRCLE"><path d="M342.865,93.369a.469.469,0,1,1,.468.468.468.468,0,0,1-.468-.468Z" style="fill:#fff;stroke:#231f20;stroke-linecap:round;stroke-linejoin:round;stroke-width:0.150000005960464px"/></g><g id="CIRCLE-8" data-name="CIRCLE"><path d="M334.427,84.931a.469.469,0,1,1,.469.469.469.469,0,0,1-.469-.469Z" style="fill:#fff;stroke:#231f20;stroke-linecap:round;stroke-linejoin:round;stroke-width:0.150000005960464px"/></g><g id="CIRCLE-9" data-name="CIRCLE"><path d="M342.865,84.931a.469.469,0,1,1,.468.469.468.468,0,0,1-.468-.469Z" style="fill:#fff;stroke:#231f20;stroke-linecap:round;stroke-linejoin:round;stroke-width:0.150000005960464px"/></g><g id="CIRCLE-10" data-name="CIRCLE"><path d="M334.427,118.681a.469.469,0,1,1,.469.469.469.469,0,0,1-.469-.469Z" style="fill:#fff;stroke:#231f20;stroke-linecap:round;stroke-linejoin:round;stroke-width:0.150000005960464px"/></g><g id="CIRCLE-11" data-name="CIRCLE"><path d="M342.865,118.681a.469.469,0,1,1,.468.469.468.468,0,0,1-.468-.469Z" style="fill:#fff;stroke:#231f20;stroke-linecap:round;stroke-linejoin:round;stroke-width:0.150000005960464px"/></g><g id="CIRCLE-12" data-name="CIRCLE"><path d="M334.427,127.119a.469.469,0,1,1,.469.468.469.469,0,0,1-.469-.468Z" style="fill:#fff;stroke:#231f20;stroke-linecap:round;stroke-linejoin:round;stroke-width:0.150000005960464px"/></g><g id="CIRCLE-13" data-name="CIRCLE"><path d="M342.865,127.119a.469.469,0,1,1,.468.468.468.468,0,0,1-.468-.468Z" style="fill:#fff;stroke:#231f20;stroke-linecap:round;stroke-linejoin:round;stroke-width:0.150000005960464px"/></g><g id="CIRCLE-14" data-name="CIRCLE"><path d="M334.427,110.244a.469.469,0,1,1,.469.468.469.469,0,0,1-.469-.468Z" style="fill:#fff;stroke:#231f20;stroke-linecap:round;stroke-linejoin:round;stroke-width:0.150000005960464px"/></g><g id="CIRCLE-15" data-name="CIRCLE"><path d="M342.865,110.244a.469.469,0,1,1,.468.468.468.468,0,0,1-.468-.468Z" style="fill:#fff;stroke:#231f20;stroke-linecap:round;stroke-linejoin:round;stroke-width:0.150000005960464px"/></g><g id="CIRCLE-16" data-name="CIRCLE"><path d="M334.427,101.806a.469.469,0,1,1,.469.469.469.469,0,0,1-.469-.469Z" style="fill:#fff;stroke:#231f20;stroke-linecap:round;stroke-linejoin:round;stroke-width:0.150000005960464px"/></g><g id="CIRCLE-17" data-name="CIRCLE"><path d="M342.865,101.806a.469.469,0,1,1,.468.469.468.468,0,0,1-.468-.469Z" style="fill:#fff;stroke:#231f20;stroke-linecap:round;stroke-linejoin:round;stroke-width:0.150000005960464px"/></g><g id="CIRCLE-18" data-name="CIRCLE"><path d="M334.427,93.369a.469.469,0,1,1,.469.468.469.469,0,0,1-.469-.468Z" style="fill:#fff;stroke:#231f20;stroke-linecap:round;stroke-linejoin:round;stroke-width:0.150000005960464px"/></g><g id="CIRCLE-19" data-name="CIRCLE"><path d="M342.865,93.369a.469.469,0,1,1,.468.468.468.468,0,0,1-.468-.468Z" style="fill:#fff;stroke:#231f20;stroke-linecap:round;stroke-linejoin:round;stroke-width:0.150000005960464px"/></g><g id="CIRCLE-20" data-name="CIRCLE"><path d="M334.427,84.931a.469.469,0,1,1,.469.469.469.469,0,0,1-.469-.469Z" style="fill:#fff;stroke:#231f20;stroke-linecap:round;stroke-linejoin:round;stroke-width:0.150000005960464px"/></g><g id="CIRCLE-21" data-name="CIRCLE"><path d="M342.865,84.931a.469.469,0,1,1,.468.469.468.468,0,0,1-.468-.469Z" style="fill:#fff;stroke:#231f20;stroke-linecap:round;stroke-linejoin:round;stroke-width:0.150000005960464px"/></g><g id="CIRCLE-22" data-name="CIRCLE"><path d="M334.427,118.681a.469.469,0,1,1,.469.469.469.469,0,0,1-.469-.469Z" style="fill:#fff;stroke:#231f20;stroke-linecap:round;stroke-linejoin:round;stroke-width:0.150000005960464px"/></g><g id="CIRCLE-23" data-name="CIRCLE"><path d="M342.865,118.681a.469.469,0,1,1,.468.469.468.468,0,0,1-.468-.469Z" style="fill:#fff;stroke:#231f20;stroke-linecap:round;stroke-linejoin:round;stroke-width:0.150000005960464px"/></g><g id="CIRCLE-24" data-name="CIRCLE"><path d="M334.427,127.119a.469.469,0,1,1,.469.468.469.469,0,0,1-.469-.468Z" style="fill:#fff;stroke:#231f20;stroke-linecap:round;stroke-linejoin:round;stroke-width:0.150000005960464px"/></g><g id="CIRCLE-25" data-name="CIRCLE"><path d="M342.865,127.119a.469.469,0,1,1,.468.468.468.468,0,0,1-.468-.468Z" style="fill:#fff;stroke:#231f20;stroke-linecap:round;stroke-linejoin:round;stroke-width:0.150000005960464px"/></g><g id="LINE-8" data-name="LINE"><line x1="385.477" y1="63.158" x2="386.314" y2="33.155" style="fill:none;stroke:#231f20;stroke-linecap:round;stroke-linejoin:round;stroke-width:0.150000005960464px"/></g><g id="LINE-9" data-name="LINE"><line x1="386.203" y1="37.374" x2="405.198" y2="37.31" style="fill:none;stroke:#231f20;stroke-linecap:round;stroke-linejoin:round;stroke-width:0.150000005960464px"/></g><g id="LINE-10" data-name="LINE"><line x1="405.06" y1="33.092" x2="406.098" y2="63.089" style="fill:none;stroke:#231f20;stroke-linecap:round;stroke-linejoin:round;stroke-width:0.150000005960464px"/></g><g id="LINE-11" data-name="LINE"><line x1="341.228" y1="63.158" x2="342.065" y2="33.155" style="fill:none;stroke:#231f20;stroke-linecap:round;stroke-linejoin:round;stroke-width:0.150000005960464px"/></g><g id="LINE-12" data-name="LINE"><line x1="341.955" y1="37.374" x2="360.95" y2="37.31" style="fill:none;stroke:#231f20;stroke-linecap:round;stroke-linejoin:round;stroke-width:0.150000005960464px"/></g><g id="LINE-13" data-name="LINE"><line x1="360.811" y1="33.092" x2="361.849" y2="63.089" style="fill:none;stroke:#231f20;stroke-linecap:round;stroke-linejoin:round;stroke-width:0.150000005960464px"/></g><rect x="417.211" y="62.951" width="33.75" height="84.375" style="fill:#fff;stroke:#231f20;stroke-linecap:round;stroke-linejoin:round;stroke-width:0.150000005960464px"/><g id="LINE-14" data-name="LINE"><line x1="446.274" y1="92.638" x2="418.193" y2="92.638" style="fill:none;stroke:#231f20;stroke-linecap:round;stroke-linejoin:round;stroke-width:0.150000005960464px"/></g><g id="LWPOLYLINE-47" data-name="LWPOLYLINE"><polyline points="417.211 142.638 446.274 142.638 446.274 67.638 417.211 67.638" style="fill:none;stroke:#231f20;stroke-linecap:round;stroke-linejoin:round;stroke-width:0.150000005960464px"/></g><g id="ARC-3" data-name="ARC"><path d="M441.78,68.576a59.552,59.552,0,0,0,0,23.125" style="fill:none;stroke:#231f20;stroke-linecap:round;stroke-linejoin:round;stroke-width:0.150000005960464px"/></g><g id="ARC-4" data-name="ARC"><path d="M441.78,91.7a1.223,1.223,0,0,0,.982.937" style="fill:none;stroke:#231f20;stroke-linecap:round;stroke-linejoin:round;stroke-width:0.150000005960464px"/></g><g id="ARC-5" data-name="ARC"><path d="M442.762,67.638a1.226,1.226,0,0,0-.982.938" style="fill:none;stroke:#231f20;stroke-linecap:round;stroke-linejoin:round;stroke-width:0.150000005960464px"/></g><g id="ARC-6" data-name="ARC"><path d="M442.762,92.638a1.226,1.226,0,0,0-.982.938" style="fill:none;stroke:#231f20;stroke-linecap:round;stroke-linejoin:round;stroke-width:0.150000005960464px"/></g><g id="ARC-7" data-name="ARC"><path d="M441.78,141.7a1.223,1.223,0,0,0,.982.937" style="fill:none;stroke:#231f20;stroke-linecap:round;stroke-linejoin:round;stroke-width:0.150000005960464px"/></g><g id="ARC-8" data-name="ARC"><path d="M417.211,91.7a1.223,1.223,0,0,0,.982.937" style="fill:none;stroke:#231f20;stroke-linecap:round;stroke-linejoin:round;stroke-width:0.150000005960464px"/></g><g id="ARC-9" data-name="ARC"><path d="M418.193,92.638a1.226,1.226,0,0,0-.982.938" style="fill:none;stroke:#231f20;stroke-linecap:round;stroke-linejoin:round;stroke-width:0.150000005960464px"/></g><g id="ARC-10" data-name="ARC"><path d="M418.193,67.638a1.226,1.226,0,0,0-.982.938" style="fill:none;stroke:#231f20;stroke-linecap:round;stroke-linejoin:round;stroke-width:0.150000005960464px"/></g><g id="ARC-11" data-name="ARC"><path d="M417.211,141.7a1.223,1.223,0,0,0,.982.937" style="fill:none;stroke:#231f20;stroke-linecap:round;stroke-linejoin:round;stroke-width:0.150000005960464px"/></g><g id="LINE-15" data-name="LINE"><line x1="446.274" y1="117.638" x2="418.193" y2="117.638" style="fill:none;stroke:#231f20;stroke-linecap:round;stroke-linejoin:round;stroke-width:0.150000005960464px"/></g><g id="ARC-12" data-name="ARC"><path d="M441.78,118.576a59.552,59.552,0,0,0,0,23.125" style="fill:none;stroke:#231f20;stroke-linecap:round;stroke-linejoin:round;stroke-width:0.150000005960464px"/></g><g id="ARC-13" data-name="ARC"><path d="M442.762,117.638a1.226,1.226,0,0,0-.982.938" style="fill:none;stroke:#231f20;stroke-linecap:round;stroke-linejoin:round;stroke-width:0.150000005960464px"/></g><g id="ARC-14" data-name="ARC"><path d="M441.78,116.7a1.223,1.223,0,0,0,.982.937" style="fill:none;stroke:#231f20;stroke-linecap:round;stroke-linejoin:round;stroke-width:0.150000005960464px"/></g><g id="ARC-15" data-name="ARC"><path d="M418.193,117.638a1.226,1.226,0,0,0-.982.938" style="fill:none;stroke:#231f20;stroke-linecap:round;stroke-linejoin:round;stroke-width:0.150000005960464px"/></g><g id="ARC-16" data-name="ARC"><path d="M417.211,116.7a1.223,1.223,0,0,0,.982.937" style="fill:none;stroke:#231f20;stroke-linecap:round;stroke-linejoin:round;stroke-width:0.150000005960464px"/></g><g id="ARC-17" data-name="ARC"><path d="M441.78,93.576a59.552,59.552,0,0,0,0,23.125" style="fill:none;stroke:#231f20;stroke-linecap:round;stroke-linejoin:round;stroke-width:0.150000005960464px"/></g><g id="ARC-18" data-name="ARC"><path d="M441.78,91.7a1.223,1.223,0,0,0,.982.937" style="fill:none;stroke:#231f20;stroke-linecap:round;stroke-linejoin:round;stroke-width:0.150000005960464px"/></g><g id="ARC-19" data-name="ARC"><path d="M442.762,67.638a1.226,1.226,0,0,0-.982.938" style="fill:none;stroke:#231f20;stroke-linecap:round;stroke-linejoin:round;stroke-width:0.150000005960464px"/></g><g id="ARC-20" data-name="ARC"><path d="M442.762,92.638a1.226,1.226,0,0,0-.982.938" style="fill:none;stroke:#231f20;stroke-linecap:round;stroke-linejoin:round;stroke-width:0.150000005960464px"/></g><g id="ARC-21" data-name="ARC"><path d="M441.78,141.7a1.223,1.223,0,0,0,.982.937" style="fill:none;stroke:#231f20;stroke-linecap:round;stroke-linejoin:round;stroke-width:0.150000005960464px"/></g><g id="ARC-22" data-name="ARC"><path d="M417.211,91.7a1.223,1.223,0,0,0,.982.937" style="fill:none;stroke:#231f20;stroke-linecap:round;stroke-linejoin:round;stroke-width:0.150000005960464px"/></g><g id="ARC-23" data-name="ARC"><path d="M418.193,92.638a1.226,1.226,0,0,0-.982.938" style="fill:none;stroke:#231f20;stroke-linecap:round;stroke-linejoin:round;stroke-width:0.150000005960464px"/></g><g id="ARC-24" data-name="ARC"><path d="M418.193,67.638a1.226,1.226,0,0,0-.982.938" style="fill:none;stroke:#231f20;stroke-linecap:round;stroke-linejoin:round;stroke-width:0.150000005960464px"/></g><g id="ARC-25" data-name="ARC"><path d="M417.211,141.7a1.223,1.223,0,0,0,.982.937" style="fill:none;stroke:#231f20;stroke-linecap:round;stroke-linejoin:round;stroke-width:0.150000005960464px"/></g><g id="ARC-26" data-name="ARC"><path d="M442.762,117.638a1.226,1.226,0,0,0-.982.938" style="fill:none;stroke:#231f20;stroke-linecap:round;stroke-linejoin:round;stroke-width:0.150000005960464px"/></g><g id="ARC-27" data-name="ARC"><path d="M441.78,116.7a1.223,1.223,0,0,0,.982.937" style="fill:none;stroke:#231f20;stroke-linecap:round;stroke-linejoin:round;stroke-width:0.150000005960464px"/></g><g id="ARC-28" data-name="ARC"><path d="M418.193,117.638a1.226,1.226,0,0,0-.982.938" style="fill:none;stroke:#231f20;stroke-linecap:round;stroke-linejoin:round;stroke-width:0.150000005960464px"/></g><g id="ARC-29" data-name="ARC"><path d="M417.211,116.7a1.223,1.223,0,0,0,.982.937" style="fill:none;stroke:#231f20;stroke-linecap:round;stroke-linejoin:round;stroke-width:0.150000005960464px"/></g><path d="M436.266,73.365s-5.274-6.856-7.935-5.565,7.241,10.459,7.241,10.459,3.9,3.984,4.644,1.994S436.266,73.365,436.266,73.365Z" style="fill:#fff;stroke:#231f20;stroke-miterlimit:10;stroke-width:0.150000005960464px"/><path d="M434.516,85.339s4.369,7.077,6.289,5.763-3.556-9.44-3.556-9.44-3.833-7.575-5.708-5.537S434.516,85.339,434.516,85.339Z" style="fill:#fff;stroke:#231f20;stroke-miterlimit:10;stroke-width:0.150000005960464px"/><path d="M439.91,126.262s-3.617.745-5.2,8.339-1.115,7.677-.309,8.009,4.2-2.243,5.22-9.2S441.167,126.577,439.91,126.262Z" style="fill:#fff;stroke:#231f20;stroke-miterlimit:10;stroke-width:0.150000005960464px"/><g id="LWPOLYLINE-48" data-name="LWPOLYLINE"><rect x="287.702" y="78.202" width="15" height="56.25" style="fill:#fff;stroke:#231f20;stroke-linecap:round;stroke-linejoin:round;stroke-width:0.150000005960464px"/></g><rect x="268.827" y="104.814" width="44.903" height="1.758" transform="translate(185.585 396.971) rotate(-90)" style="fill:#fff;stroke:#231f20;stroke-linecap:round;stroke-linejoin:round;stroke-width:0.150000005960464px"/><line x1="261.729" y1="83.989" x2="261.729" y2="140.358" style="fill:none;stroke:#231f20;stroke-linecap:round;stroke-linejoin:round;stroke-width:0.150000005960464px"/><line x1="259.299" y1="83.989" x2="259.299" y2="140.358" style="fill:none;stroke:#231f20;stroke-linecap:round;stroke-linejoin:round;stroke-width:0.150000005960464px"/><g id="LWPOLYLINE-49" data-name="LWPOLYLINE"><polyline points="137.954 39.575 137.954 45.2 25.454 45.2 25.454 39.575" style="fill:none;stroke:#231f20;stroke-linecap:round;stroke-linejoin:round;stroke-width:0.4px"/></g><g id="LWPOLYLINE-50" data-name="LWPOLYLINE"><polyline points="430.454 17.075 430.454 22.7 317.954 22.7 317.954 17.075" style="fill:none;stroke:#231f20;stroke-linecap:round;stroke-linejoin:round;stroke-width:0.4px"/></g><g id="LWPOLYLINE-51" data-name="LWPOLYLINE"><polyline points="284.204 39.575 284.204 45.2 171.704 45.2 171.704 39.575" style="fill:none;stroke:#231f20;stroke-linecap:round;stroke-linejoin:round;stroke-width:0.4px"/></g><g id="LWPOLYLINE-52" data-name="LWPOLYLINE"><polygon points="107.843 35.825 55.571 35.825 55.571 37.055 107.831 37.056 107.843 35.825" style="fill:none;stroke:#231f20;stroke-linecap:round;stroke-linejoin:round;stroke-width:0.25px"/></g><g id="LWPOLYLINE-53" data-name="LWPOLYLINE"><polygon points="135.141 35.825 134.204 35.825 110.415 35.825 110.415 37.056 135.141 37.055 135.141 35.825" style="fill:none;stroke:#231f20;stroke-linecap:round;stroke-linejoin:round;stroke-width:0.25px"/></g><g id="LWPOLYLINE-54" data-name="LWPOLYLINE"><polygon points="28.26 35.825 29.198 35.825 52.987 35.825 52.987 37.056 28.26 37.055 28.26 35.825" style="fill:none;stroke:#231f20;stroke-linecap:round;stroke-linejoin:round;stroke-width:0.25px"/></g><g id="LWPOLYLINE-55" data-name="LWPOLYLINE"><polygon points="254.093 35.825 201.821 35.825 201.821 37.055 254.081 37.056 254.093 35.825" style="fill:none;stroke:#231f20;stroke-linecap:round;stroke-linejoin:round;stroke-width:0.25px"/></g><g id="LWPOLYLINE-56" data-name="LWPOLYLINE"><polygon points="281.391 35.825 280.454 35.825 256.665 35.825 256.665 37.056 281.391 37.055 281.391 35.825" style="fill:none;stroke:#231f20;stroke-linecap:round;stroke-linejoin:round;stroke-width:0.25px"/></g><g id="LWPOLYLINE-57" data-name="LWPOLYLINE"><polygon points="174.51 35.825 175.448 35.825 199.237 35.825 199.237 37.056 174.51 37.055 174.51 35.825" style="fill:none;stroke:#231f20;stroke-linecap:round;stroke-linejoin:round;stroke-width:0.25px"/></g><g id="LWPOLYLINE-58" data-name="LWPOLYLINE"><polygon points="339.985 13.325 339.048 13.325 321.704 13.325 320.766 13.325 320.766 14.555 339.048 14.555 339.985 14.555 339.985 13.325" style="fill:none;stroke:#231f20;stroke-linecap:round;stroke-linejoin:round;stroke-width:0.25px"/></g><g id="LWPOLYLINE-59" data-name="LWPOLYLINE"><polygon points="372.68 13.325 371.977 13.325 341.86 13.325 341.86 14.555 372.668 14.555 372.68 13.325" style="fill:none;stroke:#231f20;stroke-linecap:round;stroke-linejoin:round;stroke-width:0.25px"/></g><g id="LWPOLYLINE-60" data-name="LWPOLYLINE"><polygon points="406.547 13.325 405.61 13.325 376.43 13.325 375.727 13.325 375.727 14.555 406.547 14.555 406.547 13.325" style="fill:none;stroke:#231f20;stroke-linecap:round;stroke-linejoin:round;stroke-width:0.25px"/></g><g id="LWPOLYLINE-61" data-name="LWPOLYLINE"><polygon points="427.641 13.325 426.704 13.325 408.422 13.325 408.422 14.555 427.641 14.555 427.641 13.325" style="fill:none;stroke:#231f20;stroke-linecap:round;stroke-linejoin:round;stroke-width:0.25px"/></g><line x1="29.198" y1="39.575" x2="134.204" y2="39.575" style="fill:none;stroke:#231f20;stroke-linecap:round;stroke-linejoin:round;stroke-width:0.25px"/><line x1="175.448" y1="39.575" x2="280.454" y2="39.575" style="fill:none;stroke:#231f20;stroke-linecap:round;stroke-linejoin:round;stroke-width:0.25px"/><line x1="321.704" y1="17.075" x2="427.641" y2="17.075" style="fill:none;stroke:#231f20;stroke-linecap:round;stroke-linejoin:round;stroke-width:0.25px"/><g id="LWPOLYLINE-62" data-name="LWPOLYLINE"><polygon points="111.118 37.055 110.415 37.056 110.415 35.825 111.118 35.825 111.118 34.888 109.36 34.888 109.36 32.544 108.423 32.544 108.423 34.888 107.368 34.888 107.368 35.825 107.837 35.825 107.837 37.056 107.134 37.055 107.134 38.227 108.071 38.227 108.071 39.106 109.243 39.106 109.243 39.575 111.118 39.575 111.118 37.055" style="fill:none;stroke:#231f20;stroke-miterlimit:10;stroke-width:0.25px"/></g><g id="LWPOLYLINE-63" data-name="LWPOLYLINE"><polygon points="137.954 34.888 136.372 34.888 136.372 31.137 135.434 31.137 135.434 34.888 134.204 34.888 134.204 35.825 135.141 35.825 135.141 37.055 134.204 37.055 134.204 39.575 137.954 39.575 137.954 34.888" style="fill:none;stroke:#231f20;stroke-miterlimit:10;stroke-width:0.25px"/></g><g id="LWPOLYLINE-64" data-name="LWPOLYLINE"><polygon points="52.284 37.055 52.987 37.056 52.987 35.825 52.284 35.825 52.284 34.888 54.041 34.888 54.041 32.544 54.979 32.544 54.979 34.888 56.034 34.888 56.034 35.825 55.565 35.825 55.565 37.056 56.268 37.055 56.268 38.227 55.331 38.227 55.331 39.106 54.159 39.106 54.159 39.575 52.284 39.575 52.284 37.055" style="fill:none;stroke:#231f20;stroke-miterlimit:10;stroke-width:0.25px"/></g><g id="LWPOLYLINE-65" data-name="LWPOLYLINE"><polygon points="25.448 34.888 27.03 34.888 27.03 31.137 27.967 31.137 27.967 34.888 29.198 34.888 29.198 35.825 28.26 35.825 28.26 37.055 29.198 37.055 29.198 39.575 25.448 39.575 25.448 34.888" style="fill:none;stroke:#231f20;stroke-miterlimit:10;stroke-width:0.25px"/></g><g id="LWPOLYLINE-66" data-name="LWPOLYLINE"><polygon points="257.368 37.055 256.665 37.056 256.665 35.825 257.368 35.825 257.368 34.888 255.61 34.888 255.61 32.544 254.673 32.544 254.673 34.888 253.618 34.888 253.618 35.825 254.087 35.825 254.087 37.056 253.384 37.055 253.384 38.227 254.321 38.227 254.321 39.106 255.493 39.106 255.493 39.575 257.368 39.575 257.368 37.055" style="fill:none;stroke:#231f20;stroke-miterlimit:10;stroke-width:0.25px"/></g><g id="LWPOLYLINE-67" data-name="LWPOLYLINE"><polygon points="284.204 34.888 282.622 34.888 282.622 31.137 281.684 31.137 281.684 34.888 280.454 34.888 280.454 35.825 281.391 35.825 281.391 37.055 280.454 37.055 280.454 39.575 284.204 39.575 284.204 34.888" style="fill:none;stroke:#231f20;stroke-miterlimit:10;stroke-width:0.25px"/></g><g id="LWPOLYLINE-68" data-name="LWPOLYLINE"><polygon points="198.534 37.055 199.237 37.056 199.237 35.825 198.534 35.825 198.534 34.888 200.291 34.888 200.291 32.544 201.229 32.544 201.229 34.888 202.284 34.888 202.284 35.825 201.815 35.825 201.815 37.056 202.518 37.055 202.518 38.227 201.581 38.227 201.581 39.106 200.409 39.106 200.409 39.575 198.534 39.575 198.534 37.055" style="fill:none;stroke:#231f20;stroke-miterlimit:10;stroke-width:0.25px"/></g><g id="LWPOLYLINE-69" data-name="LWPOLYLINE"><polygon points="171.698 34.888 173.28 34.888 173.28 31.137 174.217 31.137 174.217 34.888 175.448 34.888 175.448 35.825 174.51 35.825 174.51 37.055 175.448 37.055 175.448 39.575 171.698 39.575 171.698 34.888" style="fill:none;stroke:#231f20;stroke-miterlimit:10;stroke-width:0.25px"/></g><g id="LWPOLYLINE-70" data-name="LWPOLYLINE"><polyline points="373.735 10.044 374.673 10.044 374.673 12.388 376.43 12.388 376.43 13.325 375.727 13.325 375.727 14.555 376.43 14.555 376.43 17.075 374.555 17.075 374.555 16.606 373.852 16.606 373.852 17.075 371.977 17.075 371.977 14.555 372.668 14.555 372.68 13.325 371.977 13.325 371.977 12.388 373.735 12.388 373.735 10.044" style="fill:none;stroke:#231f20;stroke-miterlimit:10;stroke-width:0.25px"/></g><g id="LWPOLYLINE-71" data-name="LWPOLYLINE"><polygon points="405.61 14.555 406.547 14.555 406.547 13.325 405.61 13.325 405.61 12.388 407.485 12.388 407.485 10.044 408.423 10.044 408.423 12.388 409.36 12.388 409.36 13.325 408.422 13.325 408.422 14.555 409.36 14.555 409.36 15.727 408.54 15.727 408.54 16.606 407.485 16.606 407.485 17.075 405.61 17.075 405.61 14.555" style="fill:none;stroke:#231f20;stroke-miterlimit:10;stroke-width:0.25px"/></g><g id="LWPOLYLINE-72" data-name="LWPOLYLINE"><polygon points="430.454 12.388 429.516 12.388 429.516 8.637 428.579 8.637 428.579 12.388 426.704 12.388 426.704 13.325 427.641 13.325 427.641 14.555 426.704 14.555 426.704 17.075 430.454 17.075 430.454 12.388" style="fill:none;stroke:#231f20;stroke-miterlimit:10;stroke-width:0.25px"/></g><g id="LWPOLYLINE-73" data-name="LWPOLYLINE"><polygon points="321.704 14.555 320.766 14.555 320.766 13.325 321.704 13.325 321.704 12.388 319.829 12.388 319.829 8.637 318.891 8.637 318.891 12.388 317.954 12.388 317.954 17.075 321.704 17.075 321.704 14.555" style="fill:none;stroke:#231f20;stroke-miterlimit:10;stroke-width:0.25px"/></g><g id="LWPOLYLINE-74" data-name="LWPOLYLINE"><polygon points="342.798 14.555 341.86 14.555 341.86 13.325 342.798 13.325 342.798 12.388 340.923 12.388 340.923 10.044 339.985 10.044 339.985 12.388 339.048 12.388 339.048 13.325 339.985 13.325 339.985 14.555 339.048 14.555 339.048 15.727 339.868 15.727 339.868 16.606 340.923 16.606 340.923 17.075 342.798 17.075 342.798 14.555" style="fill:none;stroke:#231f20;stroke-miterlimit:10;stroke-width:0.25px"/></g><g id="LWPOLYLINE-75" data-name="LWPOLYLINE"><polyline points="373.735 10.044 374.673 10.044 374.673 12.388 376.43 12.388 376.43 13.325 375.727 13.325 375.727 14.555 376.43 14.555 376.43 17.075 374.555 17.075 374.555 16.606 373.852 16.606 373.852 17.075 371.977 17.075 371.977 14.555 372.668 14.555 372.68 13.325 371.977 13.325 371.977 12.388 373.735 12.388 373.735 10.044" style="fill:none;stroke:#231f20;stroke-miterlimit:10;stroke-width:0.25px"/></g><g id="LWPOLYLINE-76" data-name="LWPOLYLINE"><polyline points="137.954 39.575 137.954 31.138 25.454 31.138 25.454 39.575" style="fill:none;stroke:#231f20;stroke-linecap:round;stroke-linejoin:round;stroke-width:0.4px"/></g><g id="LWPOLYLINE-77" data-name="LWPOLYLINE"><polyline points="284.204 39.575 284.204 31.138 171.704 31.138 171.704 39.575" style="fill:none;stroke:#231f20;stroke-linecap:round;stroke-linejoin:round;stroke-width:0.4px"/></g><g id="LWPOLYLINE-78" data-name="LWPOLYLINE"><polyline points="430.454 17.075 430.454 8.638 317.954 8.638 317.954 17.075" style="fill:none;stroke:#231f20;stroke-linecap:round;stroke-linejoin:round;stroke-width:0.4px"/></g><g id="LWPOLYLINE-79" data-name="LWPOLYLINE"><rect x="171.209" y="272.441" width="33.75" height="1.641" transform="translate(-138.137 213.032) rotate(-45)" style="fill:#fff;stroke:#231f20;stroke-linecap:round;stroke-linejoin:round;stroke-width:0.200000002980232px"/></g><g id="LWPOLYLINE-80" data-name="LWPOLYLINE"><rect x="89.204" y="207.505" width="1.641" height="33.75" style="fill:none;stroke:#231f20;stroke-linecap:round;stroke-linejoin:round;stroke-width:0.200000002980232px"/></g><g id="LWPOLYLINE-81" data-name="LWPOLYLINE"><rect x="89.204" y="252.27" width="1.641" height="33.75" style="fill:none;stroke:#231f20;stroke-linecap:round;stroke-linejoin:round;stroke-width:0.200000002980232px"/></g><g id="LWPOLYLINE-82" data-name="LWPOLYLINE"><rect x="220.337" y="286.489" width="33.75" height="1.641" style="fill:none;stroke:#231f20;stroke-linecap:round;stroke-linejoin:round;stroke-width:0.200000002980232px"/></g><g id="LWPOLYLINE-83" data-name="LWPOLYLINE"><rect x="170.18" y="230.649" width="1.641" height="22.5" style="fill:none;stroke:#231f20;stroke-linecap:round;stroke-linejoin:round;stroke-width:0.200000002980232px"/></g><g id="LWPOLYLINE-84" data-name="LWPOLYLINE"><rect x="170.18" y="253.149" width="1.641" height="22.5" style="fill:none;stroke:#231f20;stroke-linecap:round;stroke-linejoin:round;stroke-width:0.200000002980232px"/></g><g id="LWPOLYLINE-85" data-name="LWPOLYLINE"><rect x="125.547" y="296.242" width="1.641" height="33.75" transform="translate(-184.395 181.065) rotate(-45)" style="fill:#fff;stroke:#231f20;stroke-linecap:round;stroke-linejoin:round;stroke-width:0.200000002980232px"/></g><g id="LWPOLYLINE-86" data-name="LWPOLYLINE"><rect x="98.345" y="331.255" width="33.75" height="1.641" style="fill:none;stroke:#231f20;stroke-linecap:round;stroke-linejoin:round;stroke-width:0.200000002980232px"/></g><g id="LWPOLYLINE-87" data-name="LWPOLYLINE"><rect x="226.782" y="329.38" width="33.75" height="1.641" style="fill:none;stroke:#231f20;stroke-linecap:round;stroke-linejoin:round;stroke-width:0.200000002980232px"/></g><g id="LWPOLYLINE-88" data-name="LWPOLYLINE"><rect x="292.173" y="364.302" width="1.641" height="28.125" style="fill:none;stroke:#231f20;stroke-linecap:round;stroke-linejoin:round;stroke-width:0.200000002980232px"/></g><g id="LWPOLYLINE-89" data-name="LWPOLYLINE"><rect x="294.304" y="392.841" width="33.75" height="2.109" transform="translate(-187.384 335.406) rotate(-45)" style="fill:#fff;stroke:#231f20;stroke-linecap:round;stroke-linejoin:round;stroke-width:0.200000002980232px"/></g><g id="LWPOLYLINE-90" data-name="LWPOLYLINE"><rect x="220.337" y="286.489" width="33.75" height="1.641" style="fill:none;stroke:#231f20;stroke-linecap:round;stroke-linejoin:round;stroke-width:0.200000002980232px"/></g><g id="LWPOLYLINE-91" data-name="LWPOLYLINE"><rect x="98.345" y="331.255" width="33.75" height="1.641" style="fill:none;stroke:#231f20;stroke-linecap:round;stroke-linejoin:round;stroke-width:0.200000002980232px"/></g><g id="LWPOLYLINE-92" data-name="LWPOLYLINE"><rect x="226.782" y="329.38" width="33.75" height="1.641" style="fill:none;stroke:#231f20;stroke-linecap:round;stroke-linejoin:round;stroke-width:0.200000002980232px"/></g><g id="ARC-30" data-name="ARC"><path d="M209.321,284.614a33.753,33.753,0,0,0-9.885-23.865" style="fill:none;stroke:#231f20;stroke-linecap:round;stroke-linejoin:round;stroke-width:0.200000002980232px"/></g><g id="ARC-31" data-name="ARC"><path d="M137.72,291.88a33.745,33.745,0,0,0-23.865,9.885" style="fill:none;stroke:#231f20;stroke-linecap:round;stroke-linejoin:round;stroke-width:0.200000002980232px"/></g><g id="ARC-32" data-name="ARC"><path d="M332.251,405.083a34.266,34.266,0,0,0-8.394-22.373" style="fill:none;stroke:#231f20;stroke-linecap:round;stroke-linejoin:round;stroke-width:0.200000002980232px"/></g><g id="LWPOLYLINE-93" data-name="LWPOLYLINE"><rect x="216.587" y="185.473" width="58.125" height="30.938" style="fill:none;stroke:#231f20;stroke-linecap:round;stroke-linejoin:round;stroke-width:0.25px"/></g><g id="LWPOLYLINE-94" data-name="LWPOLYLINE"><path d="M269.673,201.023V195.2a4.687,4.687,0,0,0-4.688-4.687H226.313a4.686,4.686,0,0,0-4.687,4.687v12.422a4.686,4.686,0,0,0,4.687,4.687h38.672a4.687,4.687,0,0,0,4.688-4.687V201.8" style="fill:none;stroke:#231f20;stroke-linecap:round;stroke-linejoin:round;stroke-width:0.25px"/></g><g id="ARC-33" data-name="ARC"><path d="M267.492,201.01a3.28,3.28,0,1,0,0,.788" style="fill:none;stroke:#231f20;stroke-linecap:round;stroke-linejoin:round;stroke-width:0.25px"/></g><g id="LWPOLYLINE-95" data-name="LWPOLYLINE"><path d="M264.269,201.8h11.056v-.775H264.269a.389.389,0,1,0,0,.775Z" style="fill:none;stroke:#231f20;stroke-linecap:round;stroke-linejoin:round;stroke-width:0.25px"/></g><g id="LWPOLYLINE-96" data-name="LWPOLYLINE"><rect x="37.173" y="332.895" width="34.687" height="69.375" style="fill:none;stroke:#231f20;stroke-linecap:round;stroke-linejoin:round;stroke-width:0.25px"/></g><g id="LWPOLYLINE-97" data-name="LWPOLYLINE"><path d="M47.485,336.528h15a4.687,4.687,0,0,1,4.687,4.687V392.9a4.687,4.687,0,0,1-4.687,4.687h-15A4.688,4.688,0,0,1,42.8,392.9v-51.68A4.688,4.688,0,0,1,47.485,336.528Z" style="fill:none;stroke:#231f20;stroke-linecap:round;stroke-linejoin:round;stroke-width:0.25px"/></g><g id="CIRCLE-26" data-name="CIRCLE"><path d="M52.876,390.846a2.11,2.11,0,1,1,2.109,2.11,2.109,2.109,0,0,1-2.109-2.11Z" style="fill:none;stroke:#231f20;stroke-linecap:round;stroke-linejoin:round;stroke-width:0.25px"/></g><g id="LWPOLYLINE-98" data-name="LWPOLYLINE"><rect x="177.798" y="332.895" width="35.625" height="69.375" style="fill:none;stroke:#231f20;stroke-linecap:round;stroke-linejoin:round;stroke-width:0.25px"/></g><g id="ARC-34" data-name="ARC"><path d="M196.011,394.988a3.279,3.279,0,1,0-.788,0" style="fill:none;stroke:#231f20;stroke-linecap:round;stroke-linejoin:round;stroke-width:0.25px"/></g><g id="LWPOLYLINE-99" data-name="LWPOLYLINE"><path d="M195.223,391.776V403.1H196V391.776a.39.39,0,1,0-.775,0Z" style="fill:none;stroke:#231f20;stroke-linecap:round;stroke-linejoin:round;stroke-width:0.25px"/></g><g id="ARC-35" data-name="ARC"><path d="M54.918,394.988a3.28,3.28,0,1,0-.789,0" style="fill:#fff;stroke:#231f20;stroke-linecap:round;stroke-linejoin:round;stroke-width:0.25px"/></g><g id="LWPOLYLINE-100" data-name="LWPOLYLINE"><path d="M54.129,391.776V403.1H54.9V391.776a.39.39,0,1,0-.775,0Z" style="fill:#fff;stroke:#231f20;stroke-linecap:round;stroke-linejoin:round;stroke-width:0.25px"/></g><g id="LWPOLYLINE-101" data-name="LWPOLYLINE"><rect x="177.798" y="332.895" width="35.625" height="69.375" style="fill:none;stroke:#231f20;stroke-linecap:round;stroke-linejoin:round;stroke-width:0.25px"/></g><g id="LWPOLYLINE-102" data-name="LWPOLYLINE"><rect x="177.798" y="332.895" width="35.625" height="69.375" style="fill:none;stroke:#231f20;stroke-linecap:round;stroke-linejoin:round;stroke-width:0.25px"/></g><g id="LWPOLYLINE-103" data-name="LWPOLYLINE"><rect x="177.07" y="332.806" width="0.828" height="36.068" style="fill:#fff;stroke:#231f20;stroke-linecap:round;stroke-linejoin:round;stroke-width:0.25px"/></g><line x1="177.07" y1="364.067" x2="177.898" y2="364.067" style="fill:#fff;stroke:#231f20;stroke-linecap:round;stroke-linejoin:round;stroke-width:0.25px"/><g id="LINE-16" data-name="LINE"><line x1="231.001" y1="363.364" x2="256.313" y2="363.364" style="fill:#fff;stroke:#231f20;stroke-linecap:round;stroke-linejoin:round;stroke-width:0.25px"/></g><g id="LINE-17" data-name="LINE"><line x1="256.313" y1="363.364" x2="256.313" y2="335.473" style="fill:#fff;stroke:#231f20;stroke-linecap:round;stroke-linejoin:round;stroke-width:0.25px"/></g><g id="LINE-18" data-name="LINE"><line x1="256.313" y1="335.473" x2="231.001" y2="335.473" style="fill:#fff;stroke:#231f20;stroke-linecap:round;stroke-linejoin:round;stroke-width:0.25px"/></g><g id="LINE-19" data-name="LINE"><line x1="231.001" y1="335.473" x2="231.001" y2="363.364" style="fill:#fff;stroke:#231f20;stroke-linecap:round;stroke-linejoin:round;stroke-width:0.25px"/></g><g id="LWPOLYLINE-104" data-name="LWPOLYLINE"><rect x="411.118" y="298.091" width="29.18" height="23.203" style="fill:#fff;stroke:#231f20;stroke-linecap:round;stroke-linejoin:round;stroke-width:0.25px"/></g><g id="LWPOLYLINE-105" data-name="LWPOLYLINE"><polygon points="452.602 298.091 440.415 298.071 440.415 321.508 452.602 321.528 452.602 298.091" style="fill:#fff;stroke:#231f20;stroke-linecap:round;stroke-linejoin:round;stroke-width:0.25px"/></g><g id="LWPOLYLINE-106" data-name="LWPOLYLINE"><rect x="343.618" y="298.091" width="67.5" height="23.438" style="fill:#fff;stroke:#231f20;stroke-linecap:round;stroke-linejoin:round;stroke-width:0.25px"/></g><g id="LWPOLYLINE-107" data-name="LWPOLYLINE"><rect x="428.856" y="234.341" width="23.746" height="22.5" style="fill:#fff;stroke:#231f20;stroke-linecap:round;stroke-linejoin:round;stroke-width:0.25px"/></g><g id="LWPOLYLINE-108" data-name="LWPOLYLINE"><rect x="341.977" y="223.091" width="86.879" height="33.75" style="fill:#fff;stroke:#231f20;stroke-linecap:round;stroke-linejoin:round;stroke-width:0.25px"/></g><polyline points="407.119 256.841 407.119 237.176 425.285 237.176 425.285 256.841" style="fill:none;stroke:#231f20;stroke-linecap:round;stroke-linejoin:round;stroke-width:0.25px;stroke-dasharray:2,2"/><g id="LWPOLYLINE-109" data-name="LWPOLYLINE"><polyline points="376.454 242.262 376.454 254.262 398.954 254.262 398.954 242.262 376.454 242.262" style="fill:none;stroke:#231f20;stroke-linecap:round;stroke-linejoin:round;stroke-width:0.25px"/></g><rect x="387.484" y="240.145" width="2.741" height="1.151" transform="translate(777.708 481.441) rotate(180)" style="fill:#fff;stroke:#231f20;stroke-linecap:round;stroke-linejoin:round;stroke-width:0.25px"/><path d="M386.881,241.183a.806.806,0,0,0,.263.263v5.776a.416.416,0,0,0,.832,0v-5.776a.8.8,0,1,0-1.1-.263Z" style="fill:#fff;stroke:#231f20;stroke-linecap:round;stroke-linejoin:round;stroke-width:0.25px"/><g id="LINE-20" data-name="LINE"><line x1="343.618" y1="309.775" x2="344.618" y2="309.775" style="fill:none;stroke:#231f20;stroke-linecap:round;stroke-linejoin:round;stroke-width:0.25px"/><line x1="346.603" y1="309.775" x2="409.126" y2="309.775" style="fill:none;stroke:#231f20;stroke-linecap:round;stroke-linejoin:round;stroke-width:0.25px;stroke-dasharray:1.9848484992980957,1.9848484992980957"/><line x1="410.118" y1="309.775" x2="411.118" y2="309.775" style="fill:none;stroke:#231f20;stroke-linecap:round;stroke-linejoin:round;stroke-width:0.25px"/></g><g id="LWPOLYLINE-110" data-name="LWPOLYLINE"><line x1="154.712" y1="284.614" x2="154.712" y2="222.505" style="fill:none;stroke:#231f20;stroke-linecap:round;stroke-linejoin:round;stroke-width:0.25px;stroke-dasharray:2,2"/></g><g id="LWPOLYLINE-111" data-name="LWPOLYLINE"><polyline points="89.204 295.161 48.423 295.161 48.424 248.521" style="fill:none;stroke:#231f20;stroke-linecap:round;stroke-linejoin:round;stroke-width:0.25px;stroke-dasharray:2,2"/></g><g id="LWPOLYLINE-112" data-name="LWPOLYLINE"><polyline points="14.321 245.005 14.321 198.13 89.204 198.13" style="fill:none;stroke:#231f20;stroke-linecap:round;stroke-linejoin:round;stroke-width:0.25px;stroke-dasharray:2,2"/></g><g id="LWPOLYLINE-113" data-name="LWPOLYLINE"><line x1="279.048" y1="407.895" x2="279.048" y2="361.606" style="fill:none;stroke:#231f20;stroke-linecap:round;stroke-linejoin:round;stroke-width:0.25px;stroke-dasharray:2,2"/></g><g id="LWPOLYLINE-114" data-name="LWPOLYLINE"><line x1="341.977" y1="232.466" x2="427.055" y2="232.466" style="fill:none;stroke:#231f20;stroke-linecap:round;stroke-linejoin:round;stroke-width:0.25px;stroke-dasharray:2,2"/></g><g id="LWPOLYLINE-115" data-name="LWPOLYLINE"><line x1="341.977" y1="232.466" x2="427.055" y2="232.466" style="fill:none;stroke:#231f20;stroke-linecap:round;stroke-linejoin:round;stroke-width:0.25px;stroke-dasharray:2,2"/></g><g id="LINE-21" data-name="LINE"><line x1="161.239" y1="280.668" x2="148.185" y2="280.668" style="fill:none;stroke:#231f20;stroke-miterlimit:10;stroke-width:0.25px"/></g><g id="LINE-22" data-name="LINE"><line x1="161.239" y1="278.249" x2="148.185" y2="278.249" style="fill:none;stroke:#231f20;stroke-miterlimit:10;stroke-width:0.25px"/></g><g id="LINE-23" data-name="LINE"><line x1="161.239" y1="275.829" x2="148.185" y2="275.829" style="fill:none;stroke:#231f20;stroke-miterlimit:10;stroke-width:0.25px"/></g><g id="LINE-24" data-name="LINE"><line x1="161.239" y1="273.41" x2="148.185" y2="273.409" style="fill:none;stroke:#231f20;stroke-miterlimit:10;stroke-width:0.25px"/></g><g id="LINE-25" data-name="LINE"><line x1="161.239" y1="270.991" x2="148.185" y2="270.99" style="fill:none;stroke:#231f20;stroke-miterlimit:10;stroke-width:0.25px"/></g><g id="LINE-26" data-name="LINE"><line x1="148.185" y1="268.571" x2="161.239" y2="268.571" style="fill:none;stroke:#231f20;stroke-miterlimit:10;stroke-width:0.25px"/></g><g id="LINE-27" data-name="LINE"><line x1="20.848" y1="241.059" x2="7.794" y2="241.059" style="fill:none;stroke:#231f20;stroke-miterlimit:10;stroke-width:0.25px"/></g><g id="LINE-28" data-name="LINE"><line x1="20.848" y1="238.639" x2="7.794" y2="238.639" style="fill:none;stroke:#231f20;stroke-miterlimit:10;stroke-width:0.25px"/></g><g id="LINE-29" data-name="LINE"><line x1="20.849" y1="236.22" x2="7.794" y2="236.219" style="fill:none;stroke:#231f20;stroke-miterlimit:10;stroke-width:0.25px"/></g><g id="LINE-30" data-name="LINE"><line x1="20.848" y1="233.801" x2="7.794" y2="233.8" style="fill:none;stroke:#231f20;stroke-miterlimit:10;stroke-width:0.25px"/></g><g id="LINE-31" data-name="LINE"><line x1="20.849" y1="231.381" x2="7.794" y2="231.381" style="fill:none;stroke:#231f20;stroke-miterlimit:10;stroke-width:0.25px"/></g><g id="LINE-32" data-name="LINE"><line x1="7.794" y1="228.962" x2="20.849" y2="228.962" style="fill:none;stroke:#231f20;stroke-miterlimit:10;stroke-width:0.25px"/></g><g id="LINE-33" data-name="LINE"><line x1="41.896" y1="252.468" x2="54.95" y2="252.468" style="fill:none;stroke:#231f20;stroke-miterlimit:10;stroke-width:0.25px"/></g><g id="LINE-34" data-name="LINE"><line x1="41.896" y1="254.888" x2="54.95" y2="254.888" style="fill:none;stroke:#231f20;stroke-miterlimit:10;stroke-width:0.25px"/></g><g id="LINE-35" data-name="LINE"><line x1="41.895" y1="257.307" x2="54.95" y2="257.308" style="fill:none;stroke:#231f20;stroke-miterlimit:10;stroke-width:0.25px"/></g><g id="LINE-36" data-name="LINE"><line x1="41.896" y1="259.726" x2="54.95" y2="259.727" style="fill:none;stroke:#231f20;stroke-miterlimit:10;stroke-width:0.25px"/></g><g id="LINE-37" data-name="LINE"><line x1="41.895" y1="262.145" x2="54.95" y2="262.146" style="fill:none;stroke:#231f20;stroke-miterlimit:10;stroke-width:0.25px"/></g><g id="LINE-38" data-name="LINE"><line x1="54.95" y1="264.565" x2="41.895" y2="264.565" style="fill:none;stroke:#231f20;stroke-miterlimit:10;stroke-width:0.25px"/></g><g id="LINE-39" data-name="LINE"><line x1="85.258" y1="191.602" x2="85.258" y2="204.657" style="fill:none;stroke:#231f20;stroke-miterlimit:10;stroke-width:0.25px"/></g><g id="LINE-40" data-name="LINE"><line x1="82.838" y1="191.602" x2="82.838" y2="204.657" style="fill:none;stroke:#231f20;stroke-miterlimit:10;stroke-width:0.25px"/></g><g id="LINE-41" data-name="LINE"><line x1="80.419" y1="191.602" x2="80.418" y2="204.657" style="fill:none;stroke:#231f20;stroke-miterlimit:10;stroke-width:0.25px"/></g><g id="LINE-42" data-name="LINE"><line x1="78" y1="191.602" x2="77.999" y2="204.657" style="fill:none;stroke:#231f20;stroke-miterlimit:10;stroke-width:0.25px"/></g><g id="LINE-43" data-name="LINE"><line x1="75.581" y1="191.602" x2="75.58" y2="204.657" style="fill:none;stroke:#231f20;stroke-miterlimit:10;stroke-width:0.25px"/></g><g id="LINE-44" data-name="LINE"><line x1="73.161" y1="204.657" x2="73.161" y2="191.602" style="fill:none;stroke:#231f20;stroke-miterlimit:10;stroke-width:0.25px"/></g><g id="LINE-45" data-name="LINE"><line x1="31.046" y1="191.602" x2="31.046" y2="204.657" style="fill:none;stroke:#231f20;stroke-miterlimit:10;stroke-width:0.25px"/></g><g id="LINE-46" data-name="LINE"><line x1="28.627" y1="191.602" x2="28.627" y2="204.657" style="fill:none;stroke:#231f20;stroke-miterlimit:10;stroke-width:0.25px"/></g><g id="LINE-47" data-name="LINE"><line x1="26.208" y1="191.602" x2="26.207" y2="204.657" style="fill:none;stroke:#231f20;stroke-miterlimit:10;stroke-width:0.25px"/></g><g id="LINE-48" data-name="LINE"><line x1="23.788" y1="191.602" x2="23.788" y2="204.657" style="fill:none;stroke:#231f20;stroke-miterlimit:10;stroke-width:0.25px"/></g><g id="LINE-49" data-name="LINE"><line x1="21.369" y1="191.602" x2="21.368" y2="204.657" style="fill:none;stroke:#231f20;stroke-miterlimit:10;stroke-width:0.25px"/></g><g id="LINE-50" data-name="LINE"><line x1="18.95" y1="204.657" x2="18.95" y2="191.602" style="fill:none;stroke:#231f20;stroke-miterlimit:10;stroke-width:0.25px"/></g><g id="LINE-51" data-name="LINE"><line x1="285.575" y1="403.949" x2="272.52" y2="403.949" style="fill:none;stroke:#231f20;stroke-miterlimit:10;stroke-width:0.25px"/></g><g id="LINE-52" data-name="LINE"><line x1="285.575" y1="401.53" x2="272.521" y2="401.53" style="fill:none;stroke:#231f20;stroke-miterlimit:10;stroke-width:0.25px"/></g><g id="LINE-53" data-name="LINE"><line x1="285.575" y1="399.111" x2="272.521" y2="399.11" style="fill:none;stroke:#231f20;stroke-miterlimit:10;stroke-width:0.25px"/></g><g id="LINE-54" data-name="LINE"><line x1="285.575" y1="396.691" x2="272.521" y2="396.69" style="fill:none;stroke:#231f20;stroke-miterlimit:10;stroke-width:0.25px"/></g><g id="LINE-55" data-name="LINE"><line x1="285.575" y1="394.272" x2="272.521" y2="394.271" style="fill:none;stroke:#231f20;stroke-miterlimit:10;stroke-width:0.25px"/></g><g id="LINE-56" data-name="LINE"><line x1="272.521" y1="391.853" x2="285.575" y2="391.853" style="fill:none;stroke:#231f20;stroke-miterlimit:10;stroke-width:0.25px"/></g><g id="LINE-57" data-name="LINE"><line x1="41.896" y1="259.726" x2="54.95" y2="259.727" style="fill:none;stroke:#231f20;stroke-miterlimit:10;stroke-width:0.25px"/></g><g id="LINE-58" data-name="LINE"><line x1="285.575" y1="396.691" x2="272.521" y2="396.69" style="fill:none;stroke:#231f20;stroke-miterlimit:10;stroke-width:0.25px"/></g><g id="ARC-36" data-name="ARC"><path d="M151.534,387.876c-.3,2.728-.868,9.933-.868,9.933" style="fill:#fff;stroke:#231f20;stroke-linecap:round;stroke-linejoin:round;stroke-width:0.25px"/></g><g id="ARC-37" data-name="ARC"><path d="M161.24,394.2a.727.727,0,0,0,.663-.447q.186-.448.342-.91a12.766,12.766,0,0,0,.553-2.527q.078-.684.114-1.371a13.443,13.443,0,0,0-.3-3.584,8.718,8.718,0,0,0-2.643-4.574,4.13,4.13,0,0,0-5.627.055,8.719,8.719,0,0,0-2.554,4.623,13.427,13.427,0,0,0-.226,3.59q.049.685.14,1.369a12.8,12.8,0,0,0,.6,2.515c.11.305.229.607.359.9a.725.725,0,0,0,.672.434Z" style="fill:#fff;stroke:#231f20;stroke-linecap:round;stroke-linejoin:round;stroke-width:0.25px"/></g><g id="ARC-38" data-name="ARC"><path d="M162.921,387.766c.354,2.721.875,10.043.875,10.043" style="fill:#fff;stroke:#231f20;stroke-linecap:round;stroke-linejoin:round;stroke-width:0.25px"/></g><g id="ARC-39" data-name="ARC"><path d="M150.672,397.684a.946.946,0,0,1,.833-.9,48.245,48.245,0,0,1,11.452,0,.946.946,0,0,1,.833.9v-.02q.071,1.475.107,2.949a1.264,1.264,0,0,1-1.154,1.285q-2.749.237-5.511.236t-5.511-.236a1.263,1.263,0,0,1-1.154-1.285q.036-1.474.106-2.949Z" style="fill:#fff;stroke:#231f20;stroke-linecap:round;stroke-linejoin:round;stroke-width:0.25px"/></g><g id="LWPOLYLINE-116" data-name="LWPOLYLINE"><path d="M124.4,396.821h7.161a.8.8,0,0,0,.795-.8v-9.547a.8.8,0,0,0-.795-.8H116.445a.8.8,0,0,0-.8.8v9.547a.8.8,0,0,0,.8.8H124.4Z" style="fill:none;stroke:#231f20;stroke-linecap:round;stroke-linejoin:round;stroke-width:0.25px"/></g><g id="ARC-40" data-name="ARC"><path d="M123.6,398.8a1,1,0,1,0,.8,0Z" style="fill:#fff;stroke:#231f20;stroke-linecap:round;stroke-linejoin:round;stroke-width:0.25px"/></g><g id="ARC-41" data-name="ARC"><path d="M119.008,399.923a1,1,0,1,0,0-.4Z" style="fill:#fff;stroke:#231f20;stroke-linecap:round;stroke-linejoin:round;stroke-width:0.25px"/></g><g id="ARC-42" data-name="ARC"><path d="M129,399.923a1,1,0,1,1,0-.4Z" style="fill:#fff;stroke:#231f20;stroke-linecap:round;stroke-linejoin:round;stroke-width:0.25px"/></g><g id="LINE-59" data-name="LINE"><path d="M123.6,394.908v4.814a.4.4,0,0,0,.8,0v-4.814a.4.4,0,0,0-.8,0Z" style="fill:#fff;stroke:#231f20;stroke-linecap:round;stroke-linejoin:round;stroke-width:0.25px"/></g><line x1="120.001" y1="399.722" x2="117.183" y2="399.722" style="fill:#fff;stroke:#231f20;stroke-linecap:round;stroke-linejoin:round;stroke-width:0.25px"/><line x1="130.822" y1="399.722" x2="128.004" y2="399.722" style="fill:#fff;stroke:#231f20;stroke-linecap:round;stroke-linejoin:round;stroke-width:0.25px"/><g id="LWPOLYLINE-117" data-name="LWPOLYLINE"><path d="M100.546,396.821h7.16a.8.8,0,0,0,.8-.8v-9.547a.8.8,0,0,0-.8-.8H92.59a.8.8,0,0,0-.8.8v9.547a.8.8,0,0,0,.8.8h7.956Z" style="fill:none;stroke:#231f20;stroke-linecap:round;stroke-linejoin:round;stroke-width:0.25px"/></g><g id="LWPOLYLINE-118" data-name="LWPOLYLINE"><rect x="85.629" y="383.296" width="57.281" height="19.094" style="fill:none;stroke:#231f20;stroke-linecap:round;stroke-linejoin:round;stroke-width:0.25px"/></g><g id="ARC-43" data-name="ARC"><path d="M99.548,398.8a1,1,0,1,0,.8,0Z" style="fill:#fff;stroke:#231f20;stroke-linecap:round;stroke-linejoin:round;stroke-width:0.25px"/></g><g id="ARC-44" data-name="ARC"><path d="M94.955,399.923a1,1,0,1,0,0-.4Z" style="fill:#fff;stroke:#231f20;stroke-linecap:round;stroke-linejoin:round;stroke-width:0.25px"/></g><g id="ARC-45" data-name="ARC"><path d="M104.943,399.923a1,1,0,1,1,0-.4Z" style="fill:#fff;stroke:#231f20;stroke-linecap:round;stroke-linejoin:round;stroke-width:0.25px"/></g><g id="LINE-60" data-name="LINE"><path d="M99.548,394.908v4.814a.4.4,0,0,0,.8,0v-4.814a.4.4,0,1,0-.8,0Z" style="fill:#fff;stroke:#231f20;stroke-linecap:round;stroke-linejoin:round;stroke-width:0.25px"/></g><line x1="95.948" y1="399.722" x2="93.13" y2="399.722" style="fill:#fff;stroke:#231f20;stroke-linecap:round;stroke-linejoin:round;stroke-width:0.25px"/><line x1="106.769" y1="399.722" x2="103.951" y2="399.722" style="fill:#fff;stroke:#231f20;stroke-linecap:round;stroke-linejoin:round;stroke-width:0.25px"/><g id="LWPOLYLINE-119" data-name="LWPOLYLINE"><rect x="266.162" y="224.505" width="19.459" height="25.342" style="fill:#fff;stroke:#231f20;stroke-linecap:round;stroke-linejoin:round;stroke-width:0.25px"/></g><g id="LWPOLYLINE-120" data-name="LWPOLYLINE"><path d="M269.963,244.869a1.086,1.086,0,0,1-1.086-1.086V230.569a1.086,1.086,0,0,1,1.086-1.086h9.775a.9.9,0,0,1,.9.905v13.576a.905.905,0,0,1-.9.905Z" style="fill:#fff;stroke:#231f20;stroke-linecap:round;stroke-linejoin:round;stroke-width:0.25px"/></g><g id="ARC-46" data-name="ARC"><path d="M269.4,259.657c3.1-.343,11.3-.988,11.3-.988" style="fill:#fff;stroke:#231f20;stroke-linecap:round;stroke-linejoin:round;stroke-width:0.25px"/></g><g id="ARC-47" data-name="ARC"><path d="M276.6,270.7a.826.826,0,0,1-.508.755q-.512.212-1.035.389a14.582,14.582,0,0,1-2.875.629q-.779.088-1.56.129a15.3,15.3,0,0,1-4.077-.336,9.908,9.908,0,0,1-5.2-3.007,4.7,4.7,0,0,1,.062-6.4,9.921,9.921,0,0,1,5.26-2.906,15.321,15.321,0,0,1,4.083-.257q.781.056,1.557.16a14.429,14.429,0,0,1,2.862.685q.52.186,1.028.408a.826.826,0,0,1,.493.765Z" style="fill:#fff;stroke:#231f20;stroke-linecap:round;stroke-linejoin:round;stroke-width:0.25px"/></g><g id="ARC-48" data-name="ARC"><path d="M269.276,272.611c3.1.4,11.426,1,11.426,1" style="fill:#fff;stroke:#231f20;stroke-linecap:round;stroke-linejoin:round;stroke-width:0.25px"/></g><g id="ARC-49" data-name="ARC"><path d="M280.559,258.676a1.078,1.078,0,0,0-1.019.947,55.024,55.024,0,0,0,0,13.029,1.079,1.079,0,0,0,1.019.948h-.022q1.675.079,3.354.121a1.437,1.437,0,0,0,1.461-1.313q.272-3.127.269-6.269t-.269-6.27a1.437,1.437,0,0,0-1.461-1.313q-1.677.042-3.354.122Z" style="fill:#fff;stroke:#231f20;stroke-linecap:round;stroke-linejoin:round;stroke-width:0.25px"/></g><g id="ARC-50" data-name="ARC"><path d="M281.993,236.719a1.141,1.141,0,1,1,0,.913Z" style="fill:#fff;stroke:#231f20;stroke-linecap:round;stroke-linejoin:round;stroke-width:0.25px"/></g><g id="ARC-51" data-name="ARC"><path d="M283.267,231.494a1.141,1.141,0,1,1-.456,0Z" style="fill:#fff;stroke:#231f20;stroke-linecap:round;stroke-linejoin:round;stroke-width:0.25px"/></g><g id="ARC-52" data-name="ARC"><path d="M283.267,242.857a1.141,1.141,0,1,0-.456,0Z" style="fill:#fff;stroke:#231f20;stroke-linecap:round;stroke-linejoin:round;stroke-width:0.25px"/></g><g id="LINE-61" data-name="LINE"><path d="M277.563,236.719h5.476a.457.457,0,0,1,0,.913h-5.476a.457.457,0,1,1,0-.913Z" style="fill:#fff;stroke:#231f20;stroke-linecap:round;stroke-linejoin:round;stroke-width:0.25px"/></g><line x1="283.039" y1="232.623" x2="283.039" y2="229.417" style="fill:#fff;stroke:#231f20;stroke-linecap:round;stroke-linejoin:round;stroke-width:0.25px"/><line x1="283.039" y1="244.934" x2="283.039" y2="241.728" style="fill:#fff;stroke:#231f20;stroke-linecap:round;stroke-linejoin:round;stroke-width:0.25px"/><g id="LWPOLYLINE-121" data-name="LWPOLYLINE"><polygon points="213.423 413.638 295.571 413.638 295.571 410.825 298.501 410.825 298.501 405.083 293.813 405.083 293.813 392.427 290.298 392.427 290.298 407.895 267.798 407.895 267.798 361.606 290.298 361.606 290.298 364.302 293.813 364.302 293.813 332.895 302.134 332.895 302.134 329.38 295.571 329.38 295.571 325.63 292.055 325.63 292.055 329.38 260.532 329.38 260.532 332.895 264.282 332.895 264.282 366.645 223.032 366.645 223.032 332.895 226.782 332.895 226.782 329.38 143.462 329.38 143.462 325.63 137.72 325.63 137.72 329.38 132.095 329.38 132.095 332.895 213.423 332.895 213.423 402.27 177.798 402.27 177.798 368.52 174.282 368.52 174.282 402.27 37.173 402.27 37.173 332.895 98.345 332.895 98.345 329.38 92.72 329.38 92.72 286.02 89.204 286.02 89.204 306.411 37.173 306.411 37.173 248.52 89.204 248.52 89.204 252.27 92.72 252.27 92.72 241.255 89.204 241.255 89.204 245.005 3.071 245.005 3.071 186.88 89.204 186.88 89.204 207.505 92.72 207.505 92.72 186.88 98.345 186.88 98.345 183.364 3.071 183.364 3.071 57.622 25.454 57.622 25.454 22.7 21.704 22.7 20.454 24.903 18.838 26.854 16.906 28.492 14.697 29.774 12.339 30.639 9.845 31.082 7.312 31.082 4.819 30.639 2.441 29.766 0.2 28.448 0.2 247.876 34.302 247.876 34.302 410.825 213.423 410.825 213.423 413.638" style="fill:#dee2e1;stroke:#231f20;stroke-miterlimit:10;stroke-width:0.4px"/></g><g id="LWPOLYLINE-122" data-name="LWPOLYLINE"><polygon points="353.52 413.638 353.52 328.794 434.907 328.794 447.798 328.794 460.044 328.794 460.044 183.423 464.204 183.423 464.204 0.2 460.454 0.2 459.204 2.403 457.588 4.354 455.656 5.992 453.467 7.266 451.089 8.139 448.595 8.582 446.062 8.582 443.569 8.139 441.191 7.266 439.002 5.992 437.07 4.354 435.454 2.403 434.204 0.2 430.454 0.2 430.454 57.505 451.079 57.505 451.079 181.958 428.696 181.958 428.696 234.341 452.602 234.341 452.602 321.528 343.618 321.528 343.618 329.38 335.884 329.38 335.884 332.895 350.649 332.895 350.649 405.083 332.217 405.083 332.217 410.825 346.196 410.825 346.196 413.638 350.649 413.638 353.52 413.638" style="fill:#dee2e1;stroke:#231f20;stroke-miterlimit:10;stroke-width:0.4px"/></g><g id="LWPOLYLINE-123" data-name="LWPOLYLINE"><polygon points="295.571 291.88 295.571 181.958 287.72 181.958 287.72 57.505 317.954 57.505 317.954 0.2 314.204 0.2 312.954 2.403 311.338 4.354 309.406 5.992 307.217 7.266 304.839 8.139 302.345 8.582 299.812 8.582 297.319 8.139 294.941 7.266 292.752 5.992 290.82 4.354 289.204 2.403 287.954 0.2 284.204 0.2 284.204 181.958 209.204 181.958 209.204 185.473 213.071 185.473 213.071 284.614 209.321 284.614 209.321 288.13 220.337 288.13 220.337 281.333 216.587 281.333 216.587 185.473 274.712 185.473 274.712 218.755 285.962 218.755 285.962 281.333 254.087 281.333 254.087 288.13 292.055 288.13 292.055 291.88 295.571 291.88" style="fill:#dee2e1;stroke:#231f20;stroke-miterlimit:10;stroke-width:0.4px"/></g><g id="LWPOLYLINE-124" data-name="LWPOLYLINE"><polygon points="143.462 291.88 143.462 288.13 175.571 288.13 175.571 284.614 171.821 284.614 171.821 275.649 168.305 275.649 168.305 284.614 143.462 284.614 143.462 221.684 168.305 221.684 168.305 230.649 171.821 230.649 171.821 185.473 175.454 185.473 175.454 181.958 160.454 181.958 160.454 57.622 171.704 57.622 171.704 22.7 167.954 22.7 166.704 24.903 165.088 26.854 163.156 28.492 160.967 29.766 158.589 30.639 156.095 31.082 153.562 31.082 151.069 30.639 148.691 29.766 146.502 28.492 144.57 26.854 142.954 24.903 141.704 22.7 137.954 22.7 137.954 57.622 154.712 57.622 154.712 183.364 132.095 183.364 132.095 186.88 137.72 186.88 137.72 291.88 143.462 291.88" style="fill:#dee2e1;stroke:#231f20;stroke-miterlimit:10;stroke-width:0.4px"/></g><path d="M37.362,114.315h.88l1.815,4.445h.016l1.815-4.445h.88v5.6H42.1V115.37h-.016L40.2,119.912h-.28l-1.887-4.542h-.016v4.542h-.656Z" style="fill:#231f20"/><path d="M47.706,118.784H45.187l-.391,1.128h-.68l2.014-5.6h.64l2.007,5.6H48.1Zm-.2-.575-1.047-2.991h-.017L45.4,118.209Z" style="fill:#231f20"/><path d="M49.665,118.057l.655-.112a1.465,1.465,0,0,0,1.655,1.463c.776,0,1.288-.36,1.288-.9,0-.567-.376-.879-1.544-1.247-1.335-.44-1.782-.831-1.782-1.583,0-.872.735-1.479,1.791-1.479a1.953,1.953,0,0,1,2.03,1.631l-.647.136a1.343,1.343,0,0,0-1.392-1.144c-.679,0-1.127.336-1.127.856,0,.432.32.664,1.344.983,1.455.472,1.983.96,1.983,1.84,0,.911-.792,1.535-1.952,1.535A2.054,2.054,0,0,1,49.665,118.057Z" style="fill:#231f20"/><path d="M56.7,114.939H54.961v-.624H59.11v.624H57.367v4.973H56.7Z" style="fill:#231f20"/><path d="M60.582,114.315h3.359v.624h-2.7v1.791h2.478v.591H61.238v1.967h2.7v.624H60.582Z" style="fill:#231f20"/><path d="M68.036,117.609l1.231,2.3h-.775l-1.184-2.271H66.189v2.271h-.656v-5.6h2.039c1.168,0,1.863.624,1.863,1.655a1.544,1.544,0,0,1-1.4,1.623Zm-.52-.592c.824,0,1.256-.36,1.256-1.047s-.424-1.031-1.256-1.031H66.189v2.078Z" style="fill:#231f20"/><path d="M34.848,122.815H37a1.457,1.457,0,0,1,1.631,1.447,1.194,1.194,0,0,1-.656,1.151v.016a1.341,1.341,0,0,1,.864,1.327c0,1.08-.68,1.656-1.967,1.656H34.848Zm2.031,2.375c.728,0,1.087-.3,1.087-.9,0-.56-.368-.855-1.087-.855H35.5v1.751Zm-.1,2.6c.975,0,1.391-.312,1.391-1.032,0-.695-.392-.983-1.375-.983H35.5v2.015Z" style="fill:#231f20"/><path d="M40.472,122.815H43.83v.624h-2.7v1.791h2.478v.591H41.128v1.967h2.7v.624H40.472Z" style="fill:#231f20"/><path d="M45.423,122.815h1.743c1.415,0,2.415,1.023,2.415,2.79,0,1.975-1,2.807-2.463,2.807h-1.7Zm1.655,4.973c1.135,0,1.839-.6,1.839-2.183,0-1.431-.7-2.166-1.791-2.166H46.079v4.349Z" style="fill:#231f20"/><path d="M53.713,126.109l1.231,2.3h-.775l-1.183-2.271h-1.12v2.271h-.655v-5.6H53.25c1.167,0,1.862.624,1.862,1.655a1.544,1.544,0,0,1-1.4,1.623Zm-.52-.592c.824,0,1.256-.36,1.256-1.047s-.424-1.031-1.256-1.031H51.866v2.078Z" style="fill:#231f20"/><path d="M56.376,125.613c0-1.751.943-2.918,2.359-2.918s2.358,1.167,2.358,2.918-.943,2.919-2.358,2.919S56.376,127.364,56.376,125.613Zm4.054,0c0-1.415-.648-2.3-1.7-2.3s-1.7.88-1.7,2.3.647,2.3,1.7,2.3S60.43,127.028,60.43,125.613Z" style="fill:#231f20"/><path d="M62.437,125.613c0-1.751.943-2.918,2.359-2.918s2.358,1.167,2.358,2.918-.943,2.919-2.358,2.919S62.437,127.364,62.437,125.613Zm4.053,0c0-1.415-.647-2.3-1.694-2.3s-1.7.88-1.7,2.3.648,2.3,1.7,2.3S66.49,127.028,66.49,125.613Z" style="fill:#231f20"/><path d="M68.784,122.815h.88l1.815,4.445H71.5l1.815-4.445h.88v5.6h-.664V123.87H73.51l-1.887,4.542h-.28l-1.887-4.542H69.44v4.542h-.656Z" style="fill:#231f20"/><path d="M29.009,132.067l-1.247.807v-.7l1.327-.863h.584v5.6h-.664Z" style="fill:#231f20"/><path d="M31.263,135.049l.656-.1c.112.983.584,1.463,1.407,1.463a1.072,1.072,0,0,0,1.2-1.079c0-.76-.431-1.12-1.319-1.12h-.4v-.576h.4c.664,0,1.175-.4,1.175-.9,0-.576-.4-.928-1.063-.928a1.184,1.184,0,0,0-1.263,1.056l-.648-.1a1.8,1.8,0,0,1,1.911-1.567,1.54,1.54,0,0,1,1.728,1.487,1.353,1.353,0,0,1-.76,1.176v.015a1.489,1.489,0,0,1,.895,1.456,1.689,1.689,0,0,1-1.855,1.7A1.974,1.974,0,0,1,31.263,135.049Z" style="fill:#231f20"/><path d="M36.839,131.315h.583V133.1h-.583Z" style="fill:#231f20"/><path d="M38.559,133.721h2.087v.6H38.559Z" style="fill:#231f20"/><path d="M41.919,135.433l.647-.16A1.413,1.413,0,1,0,44,133.69a1.805,1.805,0,0,0-1.352.591l-.583-.144.535-2.822h2.935v.624H43.1l-.3,1.55.016.009a2.088,2.088,0,0,1,1.287-.384,1.878,1.878,0,0,1,1.944,1.927A1.93,1.93,0,0,1,44,137.032,1.956,1.956,0,0,1,41.919,135.433Z" style="fill:#231f20"/><path d="M47.3,131.315h.583V133.1H47.3Zm1.056,0h.583V133.1h-.583Z" style="fill:#231f20"/><path d="M52.634,135.473l1.311-1.3-1.311-1.295.392-.392,1.288,1.311,1.3-1.311.392.392-1.312,1.295,1.312,1.3-.392.391-1.3-1.311-1.288,1.311Z" style="fill:#231f20"/><path d="M60.178,132.067l-1.248.807v-.7l1.327-.863h.584v5.6h-.663Z" style="fill:#231f20"/><path d="M63.3,136.288h3.014v.624H62.6v-.528a2.013,2.013,0,0,1,.232-1.064c.2-.367.543-.639,1.422-1.095,1.16-.6,1.5-.935,1.5-1.5,0-.536-.488-.912-1.167-.912a1.3,1.3,0,0,0-1.4,1.36l-.663-.056a1.927,1.927,0,0,1,2.063-1.927,1.68,1.68,0,0,1,1.831,1.535c0,.824-.416,1.311-1.648,1.935-.935.472-1.191.655-1.335.936A1.551,1.551,0,0,0,63.3,136.288Z" style="fill:#231f20"/><path d="M68.14,131.315h.584V133.1H68.14Z" style="fill:#231f20"/><path d="M70.138,133.721h2.087v.6H70.138Z" style="fill:#231f20"/><path d="M77.6,133.777c0,2.271-.608,3.255-2.039,3.255a1.776,1.776,0,0,1-1.8-1.424l.608-.16a1.176,1.176,0,0,0,1.191.976c.887,0,1.3-.567,1.36-2.047H76.91a1.708,1.708,0,0,1-1.439.632,1.794,1.794,0,0,1-1.951-1.919,1.877,1.877,0,0,1,1.983-1.9C76.766,131.2,77.6,132.058,77.6,133.777Zm-.768-.647A1.251,1.251,0,0,0,75.5,131.8a1.312,1.312,0,1,0,1.327,1.328Z" style="fill:#231f20"/><path d="M79.182,131.315h.583V133.1h-.583Zm1.055,0h.584V133.1h-.584Z" style="fill:#231f20"/><path d="M198.56,154.486h2.151a1.458,1.458,0,0,1,1.631,1.448,1.194,1.194,0,0,1-.656,1.151v.017a1.338,1.338,0,0,1,.863,1.327c0,1.079-.679,1.655-1.966,1.655H198.56Zm2.03,2.375c.728,0,1.088-.295,1.088-.895,0-.56-.368-.856-1.088-.856h-1.375v1.751Zm-.095,2.6c.975,0,1.391-.311,1.391-1.031,0-.7-.392-.984-1.375-.984h-1.3v2.015Z" style="fill:#231f20"/><path d="M204.184,154.486h3.358v.624h-2.7V156.9h2.479v.592h-2.479v1.967h2.7v.624h-3.358Z" style="fill:#231f20"/><path d="M209.135,154.486h1.743c1.415,0,2.415,1.024,2.415,2.791,0,1.975-1,2.807-2.463,2.807h-1.7Zm1.655,4.974c1.135,0,1.839-.6,1.839-2.183,0-1.431-.7-2.167-1.791-2.167h-1.047v4.35Z" style="fill:#231f20"/><path d="M217.425,157.781l1.231,2.3h-.775l-1.183-2.271h-1.12v2.271h-.656v-5.6h2.04c1.167,0,1.862.624,1.862,1.656a1.545,1.545,0,0,1-1.4,1.623Zm-.52-.591c.824,0,1.256-.361,1.256-1.048s-.424-1.032-1.256-1.032h-1.327v2.08Z" style="fill:#231f20"/><path d="M220.088,157.285c0-1.751.943-2.918,2.359-2.918s2.358,1.167,2.358,2.918-.943,2.919-2.358,2.919S220.088,159.036,220.088,157.285Zm4.054,0c0-1.415-.648-2.295-1.695-2.295s-1.695.88-1.695,2.295.647,2.3,1.695,2.3S224.142,158.7,224.142,157.285Z" style="fill:#231f20"/><path d="M226.149,157.285c0-1.751.943-2.918,2.358-2.918s2.359,1.167,2.359,2.918-.944,2.919-2.359,2.919S226.149,159.036,226.149,157.285Zm4.053,0c0-1.415-.647-2.295-1.695-2.295s-1.695.88-1.695,2.295.648,2.3,1.695,2.3S230.2,158.7,230.2,157.285Z" style="fill:#231f20"/><path d="M232.5,154.486h.88l1.815,4.447h.016l1.815-4.447h.879v5.6h-.663v-4.542h-.016l-1.887,4.542h-.28l-1.887-4.542h-.016v4.542H232.5Z" style="fill:#231f20"/><path d="M242.936,159.46h3.014v.624h-3.718v-.528a2.024,2.024,0,0,1,.232-1.064c.2-.367.543-.639,1.423-1.094,1.159-.6,1.5-.936,1.5-1.5,0-.536-.487-.912-1.167-.912a1.3,1.3,0,0,0-1.4,1.36l-.664-.056a1.927,1.927,0,0,1,2.063-1.927,1.68,1.68,0,0,1,1.831,1.535c0,.824-.416,1.311-1.647,1.935-.936.472-1.191.655-1.335.936A1.54,1.54,0,0,0,242.936,159.46Z" style="fill:#231f20"/><path d="M197.821,163.738l-1.248.808v-.695l1.327-.865h.584v5.6h-.663Z" style="fill:#231f20"/><path d="M201.258,163.738l-1.247.808v-.695l1.327-.865h.584v5.6h-.664Z" style="fill:#231f20"/><path d="M203.883,162.986h.583v1.784h-.583Z" style="fill:#231f20"/><path d="M205.6,165.394h2.087v.6H205.6Z" style="fill:#231f20"/><path d="M209.136,165.785c0-1.814.9-2.918,2.215-2.918s2.215,1.1,2.215,2.918-.9,2.919-2.215,2.919C210.055,168.7,209.136,167.6,209.136,165.785Zm3.766,0c0-1.463-.616-2.295-1.551-2.295s-1.552.832-1.552,2.295.616,2.3,1.552,2.3S212.9,167.248,212.9,165.785Z" style="fill:#231f20"/><path d="M215.088,162.986h.583v1.784h-.583Zm1.055,0h.584v1.784h-.584Z" style="fill:#231f20"/><path d="M220.423,167.145l1.311-1.3-1.311-1.3.392-.392,1.288,1.312,1.295-1.312.392.392-1.312,1.3,1.312,1.3-.392.391-1.295-1.311-1.288,1.311Z" style="fill:#231f20"/><path d="M227.967,163.738l-1.248.808v-.695l1.327-.865h.584v5.6h-.663Z" style="fill:#231f20"/><path d="M231.092,167.96h3.015v.624h-3.718v-.528a2.024,2.024,0,0,1,.232-1.064c.2-.367.543-.639,1.423-1.094,1.159-.6,1.495-.936,1.495-1.5,0-.536-.488-.912-1.167-.912a1.3,1.3,0,0,0-1.4,1.36l-.663-.056a1.927,1.927,0,0,1,2.063-1.927A1.68,1.68,0,0,1,234.2,164.4c0,.824-.416,1.311-1.648,1.935-.935.472-1.191.655-1.335.936A1.554,1.554,0,0,0,231.092,167.96Z" style="fill:#231f20"/><path d="M235.929,162.986h.584v1.784h-.584Z" style="fill:#231f20"/><path d="M237.927,165.394h2.087v.6h-2.087Z" style="fill:#231f20"/><path d="M243.324,163.626v-.016h-2.91v-.624h3.661v.577l-2.27,5.021h-.744Z" style="fill:#231f20"/><path d="M245.7,162.986h.584v1.784H245.7Zm1.055,0h.584v1.784h-.584Z" style="fill:#231f20"/><path d="M327.836,122.26h.655v4.973h2.526v.624h-3.181Z" style="fill:#231f20"/><path d="M332.489,122.26h.655v5.6h-.655Z" style="fill:#231f20"/><path d="M334.48,122.26h.695l1.663,4.718h.016l1.671-4.718h.688l-2.015,5.6h-.7Z" style="fill:#231f20"/><path d="M340.56,122.26h.656v5.6h-.656Z" style="fill:#231f20"/><path d="M343.128,122.26h.776l2.542,4.566h.017V122.26h.663v5.6h-.785l-2.542-4.565h-.016v4.565h-.655Z" style="fill:#231f20"/><path d="M348.755,125.059c0-1.776.928-2.919,2.36-2.919a2.077,2.077,0,0,1,2.127,1.847l-.656.12a1.431,1.431,0,0,0-1.471-1.343c-1.048,0-1.695.879-1.695,2.3s.647,2.294,1.695,2.294a1.427,1.427,0,0,0,1.5-1.639h-1.423v-.624h2.07v.568a2.087,2.087,0,0,1-2.142,2.319C349.683,127.977,348.755,126.834,348.755,125.059Z" style="fill:#231f20"/><path d="M356.869,127.977l2.853-6.036.449.2-2.863,6.021Z" style="fill:#231f20"/><path d="M364.107,122.26h1.744c1.414,0,2.414,1.023,2.414,2.79,0,1.975-1,2.807-2.463,2.807h-1.695Zm1.656,4.973c1.135,0,1.838-.6,1.838-2.183,0-1.431-.7-2.166-1.791-2.166h-1.047v4.349Z" style="fill:#231f20"/><path d="M369.905,122.26h.655v5.6h-.655Z" style="fill:#231f20"/><path d="M372.472,122.26h.776l2.543,4.566h.015V122.26h.664v5.6h-.783l-2.543-4.565h-.015v4.565h-.657Z" style="fill:#231f20"/><path d="M378.394,122.26h.656v5.6h-.656Z" style="fill:#231f20"/><path d="M380.962,122.26h.776l2.542,4.566h.016V122.26h.664v5.6h-.785l-2.542-4.565h-.016v4.565h-.655Z" style="fill:#231f20"/><path d="M386.589,125.059c0-1.776.928-2.919,2.36-2.919a2.077,2.077,0,0,1,2.127,1.847l-.656.12a1.431,1.431,0,0,0-1.471-1.343c-1.048,0-1.695.879-1.695,2.3s.647,2.294,1.695,2.294a1.427,1.427,0,0,0,1.5-1.639h-1.423v-.624h2.07v.568a2.087,2.087,0,0,1-2.142,2.319C387.517,127.977,386.589,126.834,386.589,125.059Z" style="fill:#231f20"/><path d="M397.765,125.554l1.231,2.3h-.776l-1.183-2.271h-1.119v2.271h-.657v-5.6H397.3c1.168,0,1.864.624,1.864,1.655a1.544,1.544,0,0,1-1.4,1.623Zm-.52-.591c.823,0,1.255-.36,1.255-1.048s-.424-1.031-1.255-1.031h-1.327v2.079Z" style="fill:#231f20"/><path d="M400.427,125.059c0-1.751.944-2.919,2.358-2.919s2.359,1.168,2.359,2.919-.943,2.918-2.359,2.918S400.427,126.81,400.427,125.059Zm4.053,0c0-1.416-.646-2.3-1.695-2.3s-1.7.879-1.7,2.3.648,2.294,1.7,2.294S404.48,126.474,404.48,125.059Z" style="fill:#231f20"/><path d="M406.488,125.059c0-1.751.943-2.919,2.357-2.919s2.36,1.168,2.36,2.919-.944,2.918-2.36,2.918S406.488,126.81,406.488,125.059Zm4.053,0c0-1.416-.647-2.3-1.7-2.3s-1.694.879-1.694,2.3.647,2.294,1.694,2.294S410.541,126.474,410.541,125.059Z" style="fill:#231f20"/><path d="M412.836,122.26h.878l1.816,4.446h.016l1.815-4.446h.879v5.6h-.663v-4.541h-.017l-1.887,4.541h-.279l-1.887-4.541h-.016v4.541h-.655Z" style="fill:#231f20"/><path d="M347.519,131.512l-1.248.807v-.695l1.327-.864h.584v5.6h-.663Z" style="fill:#231f20"/><path d="M352.4,135.213h-2.8v-.575l2.462-3.878h1v3.87h.713v.583h-.713v1.144H352.4Zm0-.583v-3.35h-.017l-2.127,3.35Z" style="fill:#231f20"/><path d="M355.131,130.76h.583v1.783h-.583Z" style="fill:#231f20"/><path d="M356.851,133.167h2.088v.6h-2.088Z" style="fill:#231f20"/><path d="M364.662,134.55a1.883,1.883,0,0,1-1.983,1.927c-1.463,0-2.295-1.1-2.295-2.83,0-1.76.984-3.007,2.319-3.007a1.812,1.812,0,0,1,1.871,1.5l-.623.152a1.187,1.187,0,0,0-1.233-1.039c-.919,0-1.6.871-1.654,2.223h.016a1.969,1.969,0,0,1,3.582,1.079Zm-.648,0a1.275,1.275,0,0,0-1.343-1.343,1.325,1.325,0,0,0-1.408,1.343,1.308,1.308,0,0,0,1.416,1.319A1.275,1.275,0,0,0,364.014,134.55Z" style="fill:#231f20"/><path d="M366.191,130.76h.584v1.783h-.584Zm1.057,0h.583v1.783h-.583Z" style="fill:#231f20"/><path d="M371.527,134.918l1.311-1.3-1.311-1.3.393-.391,1.287,1.311,1.3-1.311.392.391-1.312,1.3,1.312,1.3-.392.392-1.3-1.312-1.287,1.312Z" style="fill:#231f20"/><path d="M379.071,131.512l-1.247.807v-.695l1.326-.864h.584v5.6h-.663Z" style="fill:#231f20"/><path d="M381.281,134.8a1.565,1.565,0,0,1,1.047-1.5v-.016a1.247,1.247,0,0,1-.735-1.168,1.787,1.787,0,0,1,3.518,0,1.262,1.262,0,0,1-.736,1.168v.016a1.569,1.569,0,0,1,1.04,1.5c0,1.007-.816,1.679-2.064,1.679S381.281,135.805,381.281,134.8Zm3.454-.04c0-.672-.536-1.1-1.384-1.1s-1.39.432-1.39,1.1.535,1.08,1.39,1.08S384.735,135.421,384.735,134.758Zm-.28-2.607c0-.543-.448-.911-1.1-.911s-1.1.368-1.1.911.439.88,1.1.88S384.455,132.687,384.455,132.151Z" style="fill:#231f20"/><path d="M386.843,130.76h.584v1.783h-.584Z" style="fill:#231f20"/><path d="M388.841,133.167h2.087v.6h-2.087Z" style="fill:#231f20"/><path d="M392.148,134.494l.655-.1c.113.984.583,1.463,1.408,1.463a1.072,1.072,0,0,0,1.2-1.079c0-.76-.432-1.12-1.32-1.12h-.4v-.575h.4c.664,0,1.175-.4,1.175-.9,0-.575-.4-.927-1.062-.927a1.184,1.184,0,0,0-1.264,1.055l-.647-.1a1.8,1.8,0,0,1,1.911-1.567,1.539,1.539,0,0,1,1.726,1.488,1.348,1.348,0,0,1-.759,1.175v.015a1.491,1.491,0,0,1,.9,1.456,1.69,1.69,0,0,1-1.855,1.7A1.973,1.973,0,0,1,392.148,134.494Z" style="fill:#231f20"/><path d="M397.711,130.76h.584v1.783h-.584Zm1.055,0h.583v1.783h-.583Z" style="fill:#231f20"/><path d="M305.122,358.5h3.366v.624h-2.711v2h2.487v.592h-2.487V364.1h-.655Z" style="fill:#231f20"/><path d="M310.043,361.3c0-1.751.943-2.918,2.359-2.918s2.357,1.167,2.357,2.918-.943,2.919-2.357,2.919S310.043,363.053,310.043,361.3Zm4.053,0c0-1.415-.647-2.3-1.694-2.3s-1.695.88-1.695,2.3.646,2.295,1.695,2.295S314.1,362.717,314.1,361.3Z" style="fill:#231f20"/><path d="M317.75,361.766l-1.959-3.263h.767l1.512,2.615h.016l1.519-2.615h.768l-1.959,3.263V364.1h-.664Z" style="fill:#231f20"/><path d="M322.018,358.5h3.359v.624h-2.7v1.791h2.479v.592h-2.479v1.967h2.7v.624h-3.359Z" style="fill:#231f20"/><path d="M329.793,361.8l1.23,2.3h-.775l-1.184-2.272h-1.119V364.1h-.655v-5.6h2.039c1.167,0,1.862.624,1.862,1.655a1.544,1.544,0,0,1-1.4,1.623Zm-.52-.592c.823,0,1.255-.36,1.255-1.048s-.424-1.031-1.255-1.031h-1.328v2.079Z" style="fill:#231f20"/><path d="M235.292,347.817h.679l.824,4.549h.016l1.383-4.549h.624l1.391,4.549h.016l.824-4.549h.679l-1.039,5.6h-.8l-1.375-4.494H238.5l-1.367,4.494h-.808Z" style="fill:#231f20"/><path d="M242.666,353.533l2.855-6.036.447.2-2.862,6.02Z" style="fill:#231f20"/><path d="M247.66,347.817H249.4c1.415,0,2.415,1.023,2.415,2.791,0,1.974-1,2.806-2.462,2.806h-1.7Zm1.656,4.973c1.135,0,1.838-.6,1.838-2.182,0-1.432-.7-2.167-1.791-2.167h-1.047v4.349Z" style="fill:#231f20"/><path d="M434.509,241.949l.657-.111a1.462,1.462,0,0,0,1.654,1.462c.775,0,1.287-.359,1.287-.9,0-.568-.375-.879-1.543-1.247-1.335-.44-1.783-.832-1.783-1.583,0-.872.736-1.479,1.791-1.479a1.954,1.954,0,0,1,2.031,1.63l-.647.137a1.342,1.342,0,0,0-1.392-1.144c-.68,0-1.127.336-1.127.856,0,.431.32.663,1.344.983,1.455.472,1.982.959,1.982,1.839,0,.911-.792,1.535-1.951,1.535A2.054,2.054,0,0,1,434.509,241.949Z" style="fill:#231f20"/><path d="M439.847,241.006c0-1.751.944-2.918,2.36-2.918s2.358,1.167,2.358,2.918-.943,2.918-2.358,2.918S439.847,242.757,439.847,241.006Zm4.055,0c0-1.416-.648-2.295-1.695-2.295s-1.7.879-1.7,2.295.648,2.294,1.7,2.294S443.9,242.421,443.9,241.006Z" style="fill:#231f20"/><path d="M445.214,243.924l2.856-6.036.447.2-2.862,6.02Z" style="fill:#231f20"/><path d="M438.218,246.707h.68l.823,4.55h.017l1.383-4.55h.623l1.391,4.55h.017l.823-4.55h.679l-1.039,5.6h-.8l-1.375-4.493h-.017l-1.367,4.493h-.807Z" style="fill:#231f20"/><path d="M410.468,244.249h1.745c1.414,0,2.414,1.024,2.414,2.791,0,1.975-1,2.807-2.463,2.807h-1.7Zm1.657,4.974c1.134,0,1.838-.6,1.838-2.183,0-1.432-.7-2.167-1.792-2.167h-1.046v4.35Z" style="fill:#231f20"/><path d="M415.394,244.249h.68l.823,4.55h.017l1.382-4.55h.624l1.391,4.55h.017l.822-4.55h.68l-1.039,5.6h-.8l-1.375-4.494H418.6l-1.367,4.494h-.808Z" style="fill:#231f20"/><path d="M426.463,309.58l1.23,2.3h-.775l-1.184-2.272h-1.119v2.272h-.656v-5.6H426c1.168,0,1.863.624,1.863,1.656a1.545,1.545,0,0,1-1.4,1.623Zm-.521-.592c.823,0,1.255-.36,1.255-1.047s-.424-1.032-1.255-1.032h-1.327v2.079Z" style="fill:#231f20"/><polygon points="311.845 427.786 317.245 413.386 322.645 427.786 311.845 427.786" style="fill:#231f20"/><rect x="368.283" y="296.063" width="20.045" height="28.123" rx="0.857" transform="translate(68.181 688.43) rotate(-90)" style="fill:none;stroke:#231f20;stroke-linecap:round;stroke-linejoin:round;stroke-width:0.25px"/><path d="M366.21,311.534a.786.786,0,1,1,.786.786h-.011a.775.775,0,0,1-.775-.775Z" style="fill:none;stroke:#231f20;stroke-linecap:round;stroke-linejoin:round;stroke-width:0.25px"/><path d="M366.21,308.715a.786.786,0,1,1,.786.786h-.011A.786.786,0,0,1,366.21,308.715Z" style="fill:none;stroke:#231f20;stroke-linecap:round;stroke-linejoin:round;stroke-width:0.25px"/><path d="M366.21,303.078a.786.786,0,1,1,.8.775h-.022A.775.775,0,0,1,366.21,303.078Z" style="fill:none;stroke:#231f20;stroke-linecap:round;stroke-linejoin:round;stroke-width:0.25px"/><path d="M366.21,305.9a.786.786,0,1,1,.8.775h-.022A.775.775,0,0,1,366.21,305.9Z" style="fill:none;stroke:#231f20;stroke-linecap:round;stroke-linejoin:round;stroke-width:0.25px"/><line x1="386.472" y1="319.66" x2="386.472" y2="317.15" style="fill:none;stroke:#221f1f;stroke-linecap:round;stroke-linejoin:round;stroke-width:0.25px"/><line x1="386.472" y1="312.635" x2="386.472" y2="310.126" style="fill:none;stroke:#221f1f;stroke-linecap:round;stroke-linejoin:round;stroke-width:0.25px"/><line x1="384.386" y1="313.794" x2="381.077" y2="311.917" style="fill:none;stroke:#221f1f;stroke-linecap:round;stroke-linejoin:round;stroke-width:0.25px"/><line x1="384.386" y1="315.989" x2="381.077" y2="317.866" style="fill:none;stroke:#221f1f;stroke-linecap:round;stroke-linejoin:round;stroke-width:0.25px"/><line x1="388.477" y1="313.794" x2="391.785" y2="311.917" style="fill:none;stroke:#221f1f;stroke-linecap:round;stroke-linejoin:round;stroke-width:0.25px"/><line x1="388.477" y1="315.989" x2="391.785" y2="317.866" style="fill:none;stroke:#221f1f;stroke-linecap:round;stroke-linejoin:round;stroke-width:0.25px"/><ellipse cx="386.472" cy="314.892" rx="0.864" ry="0.846" style="fill:none;stroke:#221f1f;stroke-linecap:round;stroke-linejoin:round;stroke-width:0.25px"/><line x1="386.472" y1="310.124" x2="386.472" y2="307.615" style="fill:none;stroke:#221f1f;stroke-linecap:round;stroke-linejoin:round;stroke-width:0.25px"/><line x1="386.472" y1="303.1" x2="386.472" y2="300.59" style="fill:none;stroke:#221f1f;stroke-linecap:round;stroke-linejoin:round;stroke-width:0.25px"/><line x1="384.386" y1="304.259" x2="381.077" y2="302.382" style="fill:none;stroke:#221f1f;stroke-linecap:round;stroke-linejoin:round;stroke-width:0.25px"/><line x1="384.386" y1="306.454" x2="381.077" y2="308.33" style="fill:none;stroke:#221f1f;stroke-linecap:round;stroke-linejoin:round;stroke-width:0.25px"/><line x1="388.477" y1="304.259" x2="391.785" y2="302.382" style="fill:none;stroke:#221f1f;stroke-linecap:round;stroke-linejoin:round;stroke-width:0.25px"/><line x1="388.477" y1="306.454" x2="391.785" y2="308.33" style="fill:none;stroke:#221f1f;stroke-linecap:round;stroke-linejoin:round;stroke-width:0.25px"/><ellipse cx="386.472" cy="305.356" rx="0.864" ry="0.846" style="fill:none;stroke:#221f1f;stroke-linecap:round;stroke-linejoin:round;stroke-width:0.25px"/><line x1="374.908" y1="310.124" x2="374.908" y2="307.615" style="fill:none;stroke:#221f1f;stroke-linecap:round;stroke-linejoin:round;stroke-width:0.25px"/><line x1="374.908" y1="303.1" x2="374.908" y2="300.59" style="fill:none;stroke:#221f1f;stroke-linecap:round;stroke-linejoin:round;stroke-width:0.25px"/><line x1="372.822" y1="304.259" x2="369.514" y2="302.382" style="fill:none;stroke:#221f1f;stroke-linecap:round;stroke-linejoin:round;stroke-width:0.25px"/><line x1="372.822" y1="306.454" x2="369.514" y2="308.33" style="fill:none;stroke:#221f1f;stroke-linecap:round;stroke-linejoin:round;stroke-width:0.25px"/><line x1="376.913" y1="304.259" x2="380.222" y2="302.382" style="fill:none;stroke:#221f1f;stroke-linecap:round;stroke-linejoin:round;stroke-width:0.25px"/><line x1="376.913" y1="306.454" x2="380.222" y2="308.33" style="fill:none;stroke:#221f1f;stroke-linecap:round;stroke-linejoin:round;stroke-width:0.25px"/><ellipse cx="374.908" cy="305.356" rx="0.864" ry="0.846" style="fill:none;stroke:#221f1f;stroke-linecap:round;stroke-linejoin:round;stroke-width:0.25px"/><line x1="374.908" y1="319.659" x2="374.908" y2="317.149" style="fill:none;stroke:#221f1f;stroke-linecap:round;stroke-linejoin:round;stroke-width:0.25px"/><line x1="374.908" y1="312.634" x2="374.908" y2="310.124" style="fill:none;stroke:#221f1f;stroke-linecap:round;stroke-linejoin:round;stroke-width:0.25px"/><line x1="372.822" y1="313.793" x2="369.514" y2="311.916" style="fill:none;stroke:#221f1f;stroke-linecap:round;stroke-linejoin:round;stroke-width:0.25px"/><line x1="372.822" y1="315.988" x2="369.514" y2="317.865" style="fill:none;stroke:#221f1f;stroke-linecap:round;stroke-linejoin:round;stroke-width:0.25px"/><line x1="376.913" y1="313.793" x2="380.222" y2="311.916" style="fill:none;stroke:#221f1f;stroke-linecap:round;stroke-linejoin:round;stroke-width:0.25px"/><line x1="376.913" y1="315.988" x2="380.222" y2="317.865" style="fill:none;stroke:#221f1f;stroke-linecap:round;stroke-linejoin:round;stroke-width:0.25px"/><ellipse cx="374.908" cy="314.89" rx="0.864" ry="0.846" style="fill:none;stroke:#221f1f;stroke-linecap:round;stroke-linejoin:round;stroke-width:0.25px"/><path d="M380.239,310.123H369.578a.063.063,0,0,0-.064.063v8.724a.758.758,0,0,0,.766.75h9.256a.759.759,0,0,0,.767-.75v-8.724a.064.064,0,0,0-.064-.063" style="fill:none;stroke:#221f1f;stroke-linecap:round;stroke-linejoin:round;stroke-width:0.25px"/><path d="M380.239,310.126H369.578a.063.063,0,0,1-.064-.063v-8.724a.758.758,0,0,1,.766-.75h9.256a.759.759,0,0,1,.767.75v8.724a.064.064,0,0,1-.064.063" style="fill:none;stroke:#221f1f;stroke-linecap:round;stroke-linejoin:round;stroke-width:0.25px"/><path d="M391.721,310.123H381.06a.064.064,0,0,0-.064.063v8.724a.759.759,0,0,0,.767.75h9.256a.758.758,0,0,0,.766-.75v-8.724a.063.063,0,0,0-.064-.063" style="fill:none;stroke:#221f1f;stroke-linecap:round;stroke-linejoin:round;stroke-width:0.25px"/><path d="M391.721,310.126H381.06a.064.064,0,0,1-.064-.063v-8.724a.759.759,0,0,1,.767-.75h9.256a.758.758,0,0,1,.766.75v8.724a.063.063,0,0,1-.064.063" style="fill:none;stroke:#221f1f;stroke-linecap:round;stroke-linejoin:round;stroke-width:0.25px"/></g></g></svg>