<svg xmlns="http://www.w3.org/2000/svg" viewBox="0 0 460.244 406.92"><title>A_Unit12-14C_x</title><g id="Layer_2" data-name="Layer 2"><g id="Unit12-14C_Rest"><g id="LWPOLYLINE"><rect x="338.197" y="50.983" width="108.027" height="90.39" style="fill:#fff;stroke:#231f20;stroke-linecap:round;stroke-linejoin:round;stroke-width:0.15px"/></g><g id="LWPOLYLINE-2" data-name="LWPOLYLINE"><rect x="4.761" y="42.127" width="112.288" height="111.843" style="fill:#fff;stroke:#231f20;stroke-linecap:round;stroke-linejoin:round;stroke-width:0.15px"/></g><g id="LWPOLYLINE-3" data-name="LWPOLYLINE"><rect x="160.454" y="62.31" width="15" height="56.25" style="fill:#fff;stroke:#231f20;stroke-linecap:round;stroke-linejoin:round;stroke-width:0.150000005960464px"/></g><g id="LWPOLYLINE-4" data-name="LWPOLYLINE"><rect x="139.712" y="70.546" width="15" height="56.25" style="fill:#fff;stroke:#231f20;stroke-linecap:round;stroke-linejoin:round;stroke-width:0.150000005960464px"/></g><rect x="231.001" y="313.911" width="25.313" height="27.891" style="fill:#fff"/><g id="LWPOLYLINE-5" data-name="LWPOLYLINE"><path d="M386.275,173.548V155.736l5.812.29a3.75,3.75,0,0,1,3.563,3.746v9.74a3.75,3.75,0,0,1-3.563,3.746Z" style="fill:#fff;stroke:#231f20;stroke-linecap:round;stroke-linejoin:round;stroke-width:0.150000005960464px"/></g><g id="LWPOLYLINE-6" data-name="LWPOLYLINE"><path d="M337.512,155.515v17.813l-5.812-.291a3.75,3.75,0,0,1-3.563-3.745v-9.741a3.75,3.75,0,0,1,3.563-3.745Z" style="fill:#fff;stroke:#231f20;stroke-linecap:round;stroke-linejoin:round;stroke-width:0.150000005960464px"/></g><g id="LWPOLYLINE-7" data-name="LWPOLYLINE"><path d="M384.165,174.954H366.353l.29,5.813a3.75,3.75,0,0,0,3.746,3.562h9.74a3.751,3.751,0,0,0,3.746-3.562Z" style="fill:#fff;stroke:#231f20;stroke-linecap:round;stroke-linejoin:round;stroke-width:0.150000005960464px"/></g><g id="LWPOLYLINE-8" data-name="LWPOLYLINE"><path d="M358.384,174.954H340.571l.291,5.813a3.75,3.75,0,0,0,3.745,3.562h9.741a3.75,3.75,0,0,0,3.745-3.562Z" style="fill:#fff;stroke:#231f20;stroke-linecap:round;stroke-linejoin:round;stroke-width:0.150000005960464px"/></g><g id="LWPOLYLINE-9" data-name="LWPOLYLINE"><path d="M340.571,154.909h17.813l-.291-5.812a3.75,3.75,0,0,0-3.745-3.563h-9.741a3.75,3.75,0,0,0-3.745,3.563Z" style="fill:#fff;stroke:#231f20;stroke-linecap:round;stroke-linejoin:round;stroke-width:0.150000005960464px"/></g><g id="LWPOLYLINE-10" data-name="LWPOLYLINE"><path d="M366.353,154.909h17.812l-.29-5.812a3.751,3.751,0,0,0-3.746-3.563h-9.74a3.75,3.75,0,0,0-3.746,3.563Z" style="fill:#fff;stroke:#231f20;stroke-linecap:round;stroke-linejoin:round;stroke-width:0.150000005960464px"/></g><g id="LWPOLYLINE-11" data-name="LWPOLYLINE"><path d="M386.275,157.144l5.742.287a2.343,2.343,0,0,1,2.226,2.341v9.74a2.343,2.343,0,0,1-2.226,2.341l-5.742.287" style="fill:#fff;stroke:#231f20;stroke-linecap:round;stroke-linejoin:round;stroke-width:0.150000005960464px"/></g><g id="LWPOLYLINE-12" data-name="LWPOLYLINE"><path d="M337.512,171.92l-5.742-.287a2.345,2.345,0,0,1-2.227-2.341v-9.741a2.345,2.345,0,0,1,2.227-2.341l5.742-.287" style="fill:#fff;stroke:#231f20;stroke-linecap:round;stroke-linejoin:round;stroke-width:0.150000005960464px"/></g><g id="LWPOLYLINE-13" data-name="LWPOLYLINE"><path d="M367.761,174.954l.287,5.742a2.343,2.343,0,0,0,2.341,2.227h9.74a2.343,2.343,0,0,0,2.341-2.227l.287-5.742" style="fill:#fff;stroke:#231f20;stroke-linecap:round;stroke-linejoin:round;stroke-width:0.150000005960464px"/></g><g id="LWPOLYLINE-14" data-name="LWPOLYLINE"><path d="M341.883,174.72l.287,5.742a2.345,2.345,0,0,0,2.341,2.227h9.741a2.345,2.345,0,0,0,2.341-2.227l.287-5.742" style="fill:#fff;stroke:#231f20;stroke-linecap:round;stroke-linejoin:round;stroke-width:0.150000005960464px"/></g><g id="LWPOLYLINE-15" data-name="LWPOLYLINE"><path d="M356.976,154.909l-.287-5.742a2.344,2.344,0,0,0-2.341-2.226h-9.741a2.344,2.344,0,0,0-2.341,2.226l-.287,5.742" style="fill:#fff;stroke:#231f20;stroke-linecap:round;stroke-linejoin:round;stroke-width:0.150000005960464px"/></g><g id="LWPOLYLINE-16" data-name="LWPOLYLINE"><path d="M382.853,155.144l-.287-5.742a2.343,2.343,0,0,0-2.341-2.227h-9.74a2.343,2.343,0,0,0-2.341,2.227l-.287,5.742" style="fill:#fff;stroke:#231f20;stroke-linecap:round;stroke-linejoin:round;stroke-width:0.150000005960464px"/></g><g id="LWPOLYLINE-17" data-name="LWPOLYLINE"><rect x="333.775" y="150.579" width="56.25" height="28.125" style="fill:#fff;stroke:#231f20;stroke-linecap:round;stroke-linejoin:round;stroke-width:0.150000005960464px"/></g><g id="LWPOLYLINE-18" data-name="LWPOLYLINE"><path d="M377.533,198.214a11.974,11.974,0,0,1,18.058,0l-1.061.924v10.9H378.593v-10.9Z" style="fill:#fff;stroke:#231f20;stroke-linecap:round;stroke-linejoin:round;stroke-width:0.150000005960464px"/></g><g id="LWPOLYLINE-19" data-name="LWPOLYLINE"><path d="M355.033,198.214a11.974,11.974,0,0,1,18.058,0l-1.061.924v10.9H356.093v-10.9Z" style="fill:#fff;stroke:#231f20;stroke-linecap:round;stroke-linejoin:round;stroke-width:0.150000005960464px"/></g><g id="LWPOLYLINE-20" data-name="LWPOLYLINE"><line x1="380.444" y1="197.462" x2="380.444" y2="210.042" style="fill:none;stroke:#231f20;stroke-linecap:round;stroke-linejoin:round;stroke-width:0.150000005960464px"/></g><g id="LWPOLYLINE-21" data-name="LWPOLYLINE"><line x1="392.679" y1="197.462" x2="392.679" y2="210.042" style="fill:none;stroke:#231f20;stroke-linecap:round;stroke-linejoin:round;stroke-width:0.150000005960464px"/></g><g id="LWPOLYLINE-22" data-name="LWPOLYLINE"><path d="M394.53,199.138a10.562,10.562,0,0,0-15.937,0" style="fill:none;stroke:#231f20;stroke-linecap:round;stroke-linejoin:round;stroke-width:0.150000005960464px"/></g><g id="LWPOLYLINE-23" data-name="LWPOLYLINE"><path d="M399.893,198.214a11.974,11.974,0,0,1,18.058,0l-1.06.924v10.9H400.953v-10.9Z" style="fill:#fff;stroke:#231f20;stroke-linecap:round;stroke-linejoin:round;stroke-width:0.150000005960464px"/></g><g id="LWPOLYLINE-24" data-name="LWPOLYLINE"><line x1="402.804" y1="197.462" x2="402.804" y2="210.042" style="fill:none;stroke:#231f20;stroke-linecap:round;stroke-linejoin:round;stroke-width:0.150000005960464px"/></g><g id="LWPOLYLINE-25" data-name="LWPOLYLINE"><line x1="415.04" y1="197.462" x2="415.04" y2="210.042" style="fill:none;stroke:#231f20;stroke-linecap:round;stroke-linejoin:round;stroke-width:0.150000005960464px"/></g><g id="LWPOLYLINE-26" data-name="LWPOLYLINE"><path d="M416.891,199.138a10.567,10.567,0,0,0-15.938,0" style="fill:none;stroke:#231f20;stroke-linecap:round;stroke-linejoin:round;stroke-width:0.150000005960464px"/></g><g id="LWPOLYLINE-27" data-name="LWPOLYLINE"><line x1="357.944" y1="197.462" x2="357.944" y2="210.042" style="fill:none;stroke:#231f20;stroke-linecap:round;stroke-linejoin:round;stroke-width:0.150000005960464px"/></g><g id="LWPOLYLINE-28" data-name="LWPOLYLINE"><line x1="370.179" y1="197.462" x2="370.179" y2="210.042" style="fill:none;stroke:#231f20;stroke-linecap:round;stroke-linejoin:round;stroke-width:0.150000005960464px"/></g><g id="LWPOLYLINE-29" data-name="LWPOLYLINE"><path d="M372.03,199.138a10.562,10.562,0,0,0-15.937,0" style="fill:none;stroke:#231f20;stroke-linecap:round;stroke-linejoin:round;stroke-width:0.150000005960464px"/></g><g id="LWPOLYLINE-30" data-name="LWPOLYLINE"><polygon points="118.761 55.95 117.446 54.038 117.142 54.247 116.575 54.391 116.051 54.132 114.807 52.641 113.792 51.436 112.952 50.354 111.877 48.896 110.935 47.535 110.554 46.991 110.266 46.537 109.895 45.96 109.484 45.305 108.556 43.758 107.726 42.286 107.099 41.112 107.045 40.529 107.382 40.052 107.687 39.842 106.014 37.409 124.729 24.542 137.476 43.083 118.761 55.95" style="fill:#fff;stroke:#231f20;stroke-linecap:round;stroke-linejoin:round;stroke-width:0.150000005960464px"/></g><g id="LINE"><line x1="126.402" y1="26.976" x2="107.694" y2="39.843" style="fill:none;stroke:#231f20;stroke-linecap:round;stroke-linejoin:round;stroke-width:0.150000005960464px"/></g><g id="LINE-2" data-name="LINE"><line x1="117.446" y1="54.038" x2="136.161" y2="41.171" style="fill:none;stroke:#231f20;stroke-linecap:round;stroke-linejoin:round;stroke-width:0.150000005960464px"/></g><g id="ARC"><path d="M122.23,29.844a40.153,40.153,0,0,0,9.76,14.2" style="fill:none;stroke:#231f20;stroke-linecap:round;stroke-linejoin:round;stroke-width:0.150000005960464px"/></g><g id="ARC-2" data-name="ARC"><path d="M125.012,27.932a101.147,101.147,0,0,0,9.759,14.2" style="fill:none;stroke:#231f20;stroke-linecap:round;stroke-linejoin:round;stroke-width:0.150000005960464px"/></g><g id="LWPOLYLINE-31" data-name="LWPOLYLINE"><rect x="3.071" y="62.483" width="80.625" height="71.25" style="fill:#fff;stroke:#231f20;stroke-linecap:round;stroke-linejoin:round;stroke-width:0.150000005960464px"/></g><g id="LWPOLYLINE-32" data-name="LWPOLYLINE"><rect x="3.071" y="135.725" width="15.937" height="20.156" style="fill:#fff;stroke:#231f20;stroke-linecap:round;stroke-linejoin:round;stroke-width:0.150000005960464px"/></g><g id="LWPOLYLINE-33" data-name="LWPOLYLINE"><rect x="3.071" y="40.334" width="15.937" height="20.156" style="fill:#fff;stroke:#231f20;stroke-linecap:round;stroke-linejoin:round;stroke-width:0.150000005960464px"/></g><g id="LWPOLYLINE-34" data-name="LWPOLYLINE"><rect x="8.426" y="99.381" width="14.683" height="31.809" style="fill:none;stroke:#231f20;stroke-linecap:round;stroke-linejoin:round;stroke-width:0.150000005960464px"/></g><g id="LINE-5" data-name="LINE"><line x1="5.884" y1="62.483" x2="5.884" y2="133.733" style="fill:none;stroke:#231f20;stroke-linecap:round;stroke-linejoin:round;stroke-width:0.150000005960464px"/></g><g id="LINE-6" data-name="LINE"><line x1="80.884" y1="62.483" x2="80.884" y2="133.733" style="fill:none;stroke:#231f20;stroke-linecap:round;stroke-linejoin:round;stroke-width:0.150000005960464px"/></g><g id="LWPOLYLINE-35" data-name="LWPOLYLINE"><rect x="8.426" y="65.025" width="14.683" height="31.809" style="fill:none;stroke:#231f20;stroke-linecap:round;stroke-linejoin:round;stroke-width:0.150000005960464px"/></g><g id="LWPOLYLINE-36" data-name="LWPOLYLINE"><rect x="267.095" y="36.06" width="16.875" height="22.5" style="fill:#fff;stroke:#231f20;stroke-linecap:round;stroke-linejoin:round;stroke-width:0.150000005960464px"/></g><g id="LWPOLYLINE-37" data-name="LWPOLYLINE"><rect x="267.095" y="122.31" width="16.875" height="22.5" style="fill:#fff;stroke:#231f20;stroke-linecap:round;stroke-linejoin:round;stroke-width:0.150000005960464px"/></g><g id="LWPOLYLINE-38" data-name="LWPOLYLINE"><rect x="203.345" y="62.31" width="80.625" height="56.25" style="fill:#fff;stroke:#231f20;stroke-linecap:round;stroke-linejoin:round;stroke-width:0.150000005960464px"/></g><g id="LINE-7" data-name="LINE"><line x1="281.157" y1="62.31" x2="281.157" y2="118.56" style="fill:none;stroke:#231f20;stroke-linecap:round;stroke-linejoin:round;stroke-width:0.150000005960464px"/></g><g id="LINE-8" data-name="LINE"><line x1="206.157" y1="62.31" x2="206.157" y2="118.56" style="fill:none;stroke:#231f20;stroke-linecap:round;stroke-linejoin:round;stroke-width:0.150000005960464px"/></g><g id="LWPOLYLINE-39" data-name="LWPOLYLINE"><rect x="263.932" y="91.709" width="14.683" height="24.309" style="fill:none;stroke:#231f20;stroke-linecap:round;stroke-linejoin:round;stroke-width:0.150000005960464px"/></g><g id="LWPOLYLINE-40" data-name="LWPOLYLINE"><rect x="263.932" y="64.852" width="14.683" height="24.309" style="fill:none;stroke:#231f20;stroke-linecap:round;stroke-linejoin:round;stroke-width:0.150000005960464px"/></g><g id="LWPOLYLINE-41" data-name="LWPOLYLINE"><rect x="338.214" y="330.018" width="12.708" height="37.841" style="fill:#fff;stroke:#231f20;stroke-linecap:round;stroke-linejoin:round;stroke-width:0.150000005960464px"/></g><g id="LWPOLYLINE-42" data-name="LWPOLYLINE"><rect x="287.134" y="68.053" width="15" height="56.25" style="fill:#fff;stroke:#231f20;stroke-linecap:round;stroke-linejoin:round;stroke-width:0.150000005960464px"/></g><rect x="268.258" y="94.665" width="44.903" height="1.758" transform="translate(195.166 386.254) rotate(-90)" style="fill:#fff;stroke:#231f20;stroke-linecap:round;stroke-linejoin:round;stroke-width:0.150000005960464px"/><line x1="25.651" y1="133.673" x2="25.651" y2="62.423" style="fill:none;stroke:#231f20;stroke-linecap:round;stroke-linejoin:round;stroke-width:0.150000005960464px"/><line x1="28.081" y1="133.673" x2="28.081" y2="62.423" style="fill:none;stroke:#231f20;stroke-linecap:round;stroke-linejoin:round;stroke-width:0.150000005960464px"/><g id="LWPOLYLINE-43" data-name="LWPOLYLINE"><polygon points="386.421 55.091 387.258 25.088 413.976 24.998 415.014 54.995 386.421 55.091" style="fill:#fff;stroke:#231f20;stroke-linecap:round;stroke-linejoin:round;stroke-width:0.150000005960464px"/></g><g id="LWPOLYLINE-44" data-name="LWPOLYLINE"><polygon points="342.172 55.091 343.009 25.088 369.727 24.998 370.765 54.995 342.172 55.091" style="fill:#fff;stroke:#231f20;stroke-linecap:round;stroke-linejoin:round;stroke-width:0.150000005960464px"/></g><g id="CIRCLE"><path d="M373.448,38.994a5.145,5.145,0,1,1,5.145,5.145,5.144,5.144,0,0,1-5.145-5.145Z" style="fill:#fff;stroke:#231f20;stroke-linecap:round;stroke-linejoin:round;stroke-width:0.150000005960464px"/></g><g id="LWPOLYLINE-45" data-name="LWPOLYLINE"><rect x="365.205" y="79.169" width="32.83" height="34.018" style="fill:#fff;stroke:#231f20;stroke-linecap:round;stroke-linejoin:round;stroke-width:0.150000005960464px"/></g><g id="LINE-9" data-name="LINE"><line x1="390.407" y1="55.077" x2="391.244" y2="25.074" style="fill:none;stroke:#231f20;stroke-linecap:round;stroke-linejoin:round;stroke-width:0.150000005960464px"/></g><g id="LINE-10" data-name="LINE"><line x1="391.133" y1="29.293" x2="410.129" y2="29.23" style="fill:none;stroke:#231f20;stroke-linecap:round;stroke-linejoin:round;stroke-width:0.150000005960464px"/></g><g id="LINE-11" data-name="LINE"><line x1="409.99" y1="25.011" x2="411.028" y2="55.008" style="fill:none;stroke:#231f20;stroke-linecap:round;stroke-linejoin:round;stroke-width:0.150000005960464px"/></g><g id="LINE-12" data-name="LINE"><line x1="346.158" y1="55.077" x2="346.995" y2="25.074" style="fill:none;stroke:#231f20;stroke-linecap:round;stroke-linejoin:round;stroke-width:0.150000005960464px"/></g><g id="LINE-13" data-name="LINE"><line x1="346.885" y1="29.293" x2="365.88" y2="29.23" style="fill:none;stroke:#231f20;stroke-linecap:round;stroke-linejoin:round;stroke-width:0.150000005960464px"/></g><g id="LINE-14" data-name="LINE"><line x1="365.741" y1="25.011" x2="366.779" y2="55.008" style="fill:none;stroke:#231f20;stroke-linecap:round;stroke-linejoin:round;stroke-width:0.150000005960464px"/></g><rect x="417.567" y="53.657" width="33.75" height="84.375" style="fill:#fff;stroke:#231f20;stroke-linecap:round;stroke-linejoin:round;stroke-width:0.150000005960464px"/><g id="LINE-15" data-name="LINE"><line x1="446.629" y1="83.344" x2="418.549" y2="83.344" style="fill:none;stroke:#231f20;stroke-linecap:round;stroke-linejoin:round;stroke-width:0.150000005960464px"/></g><g id="LWPOLYLINE-46" data-name="LWPOLYLINE"><polyline points="417.567 133.344 446.629 133.344 446.629 58.344 417.567 58.344" style="fill:none;stroke:#231f20;stroke-linecap:round;stroke-linejoin:round;stroke-width:0.150000005960464px"/></g><g id="ARC-3" data-name="ARC"><path d="M442.135,59.282a59.591,59.591,0,0,0,0,23.125" style="fill:none;stroke:#231f20;stroke-linecap:round;stroke-linejoin:round;stroke-width:0.150000005960464px"/></g><g id="ARC-4" data-name="ARC"><path d="M442.135,82.407a1.226,1.226,0,0,0,.982.937" style="fill:none;stroke:#231f20;stroke-linecap:round;stroke-linejoin:round;stroke-width:0.150000005960464px"/></g><g id="ARC-5" data-name="ARC"><path d="M443.117,58.344a1.227,1.227,0,0,0-.982.938" style="fill:none;stroke:#231f20;stroke-linecap:round;stroke-linejoin:round;stroke-width:0.150000005960464px"/></g><g id="ARC-6" data-name="ARC"><path d="M443.117,83.344a1.227,1.227,0,0,0-.982.938" style="fill:none;stroke:#231f20;stroke-linecap:round;stroke-linejoin:round;stroke-width:0.150000005960464px"/></g><g id="ARC-7" data-name="ARC"><path d="M442.135,132.407a1.226,1.226,0,0,0,.982.937" style="fill:none;stroke:#231f20;stroke-linecap:round;stroke-linejoin:round;stroke-width:0.150000005960464px"/></g><g id="ARC-8" data-name="ARC"><path d="M417.567,82.407a1.223,1.223,0,0,0,.982.937" style="fill:none;stroke:#231f20;stroke-linecap:round;stroke-linejoin:round;stroke-width:0.150000005960464px"/></g><g id="ARC-9" data-name="ARC"><path d="M418.549,83.344a1.224,1.224,0,0,0-.982.938" style="fill:none;stroke:#231f20;stroke-linecap:round;stroke-linejoin:round;stroke-width:0.150000005960464px"/></g><g id="ARC-10" data-name="ARC"><path d="M418.549,58.344a1.224,1.224,0,0,0-.982.938" style="fill:none;stroke:#231f20;stroke-linecap:round;stroke-linejoin:round;stroke-width:0.150000005960464px"/></g><g id="ARC-11" data-name="ARC"><path d="M417.567,132.407a1.223,1.223,0,0,0,.982.937" style="fill:none;stroke:#231f20;stroke-linecap:round;stroke-linejoin:round;stroke-width:0.150000005960464px"/></g><g id="LINE-16" data-name="LINE"><line x1="446.629" y1="108.344" x2="418.549" y2="108.344" style="fill:none;stroke:#231f20;stroke-linecap:round;stroke-linejoin:round;stroke-width:0.150000005960464px"/></g><g id="ARC-12" data-name="ARC"><path d="M442.135,109.282a59.591,59.591,0,0,0,0,23.125" style="fill:none;stroke:#231f20;stroke-linecap:round;stroke-linejoin:round;stroke-width:0.150000005960464px"/></g><g id="ARC-13" data-name="ARC"><path d="M443.117,108.344a1.227,1.227,0,0,0-.982.938" style="fill:none;stroke:#231f20;stroke-linecap:round;stroke-linejoin:round;stroke-width:0.150000005960464px"/></g><g id="ARC-14" data-name="ARC"><path d="M442.135,107.407a1.226,1.226,0,0,0,.982.937" style="fill:none;stroke:#231f20;stroke-linecap:round;stroke-linejoin:round;stroke-width:0.150000005960464px"/></g><g id="ARC-15" data-name="ARC"><path d="M418.549,108.344a1.224,1.224,0,0,0-.982.938" style="fill:none;stroke:#231f20;stroke-linecap:round;stroke-linejoin:round;stroke-width:0.150000005960464px"/></g><g id="ARC-16" data-name="ARC"><path d="M417.567,107.407a1.223,1.223,0,0,0,.982.937" style="fill:none;stroke:#231f20;stroke-linecap:round;stroke-linejoin:round;stroke-width:0.150000005960464px"/></g><g id="ARC-17" data-name="ARC"><path d="M442.135,84.282a59.591,59.591,0,0,0,0,23.125" style="fill:none;stroke:#231f20;stroke-linecap:round;stroke-linejoin:round;stroke-width:0.150000005960464px"/></g><g id="ARC-18" data-name="ARC"><path d="M442.135,82.407a1.226,1.226,0,0,0,.982.937" style="fill:none;stroke:#231f20;stroke-linecap:round;stroke-linejoin:round;stroke-width:0.150000005960464px"/></g><g id="ARC-19" data-name="ARC"><path d="M443.117,58.344a1.227,1.227,0,0,0-.982.938" style="fill:none;stroke:#231f20;stroke-linecap:round;stroke-linejoin:round;stroke-width:0.150000005960464px"/></g><g id="ARC-20" data-name="ARC"><path d="M443.117,83.344a1.227,1.227,0,0,0-.982.938" style="fill:none;stroke:#231f20;stroke-linecap:round;stroke-linejoin:round;stroke-width:0.150000005960464px"/></g><g id="ARC-21" data-name="ARC"><path d="M442.135,132.407a1.226,1.226,0,0,0,.982.937" style="fill:none;stroke:#231f20;stroke-linecap:round;stroke-linejoin:round;stroke-width:0.150000005960464px"/></g><g id="ARC-22" data-name="ARC"><path d="M417.567,82.407a1.223,1.223,0,0,0,.982.937" style="fill:none;stroke:#231f20;stroke-linecap:round;stroke-linejoin:round;stroke-width:0.150000005960464px"/></g><g id="ARC-23" data-name="ARC"><path d="M418.549,83.344a1.224,1.224,0,0,0-.982.938" style="fill:none;stroke:#231f20;stroke-linecap:round;stroke-linejoin:round;stroke-width:0.150000005960464px"/></g><g id="ARC-24" data-name="ARC"><path d="M418.549,58.344a1.224,1.224,0,0,0-.982.938" style="fill:none;stroke:#231f20;stroke-linecap:round;stroke-linejoin:round;stroke-width:0.150000005960464px"/></g><g id="ARC-25" data-name="ARC"><path d="M417.567,132.407a1.223,1.223,0,0,0,.982.937" style="fill:none;stroke:#231f20;stroke-linecap:round;stroke-linejoin:round;stroke-width:0.150000005960464px"/></g><g id="ARC-26" data-name="ARC"><path d="M443.117,108.344a1.227,1.227,0,0,0-.982.938" style="fill:none;stroke:#231f20;stroke-linecap:round;stroke-linejoin:round;stroke-width:0.150000005960464px"/></g><g id="ARC-27" data-name="ARC"><path d="M442.135,107.407a1.226,1.226,0,0,0,.982.937" style="fill:none;stroke:#231f20;stroke-linecap:round;stroke-linejoin:round;stroke-width:0.150000005960464px"/></g><g id="ARC-28" data-name="ARC"><path d="M418.549,108.344a1.224,1.224,0,0,0-.982.938" style="fill:none;stroke:#231f20;stroke-linecap:round;stroke-linejoin:round;stroke-width:0.150000005960464px"/></g><g id="ARC-29" data-name="ARC"><path d="M417.567,107.407a1.223,1.223,0,0,0,.982.937" style="fill:none;stroke:#231f20;stroke-linecap:round;stroke-linejoin:round;stroke-width:0.150000005960464px"/></g><path d="M436.621,64.071s-5.273-6.856-7.934-5.565,7.24,10.459,7.24,10.459,3.9,3.984,4.644,1.994S436.621,64.071,436.621,64.071Z" style="fill:#fff;stroke:#231f20;stroke-miterlimit:10;stroke-width:0.150000005960464px"/><path d="M434.872,76.044s4.368,7.078,6.289,5.764-3.557-9.441-3.557-9.441-3.833-7.574-5.707-5.536S434.872,76.044,434.872,76.044Z" style="fill:#fff;stroke:#231f20;stroke-miterlimit:10;stroke-width:0.150000005960464px"/><path d="M440.265,116.968s-3.617.745-5.2,8.339-1.116,7.676-.31,8.009,4.2-2.243,5.221-9.2S441.522,117.283,440.265,116.968Z" style="fill:#fff;stroke:#231f20;stroke-miterlimit:10;stroke-width:0.150000005960464px"/><g id="LWPOLYLINE-47" data-name="LWPOLYLINE"><rect x="328.348" y="69.46" width="16.875" height="53.438" rx="1.875" style="fill:#fff;stroke:#231f20;stroke-linecap:round;stroke-linejoin:round;stroke-width:0.150000005960464px"/></g><g id="CIRCLE-2" data-name="CIRCLE"><path d="M341,100.866a.469.469,0,1,1,.469-.469.469.469,0,0,1-.469.469Z" style="fill:none;stroke:#231f20;stroke-linecap:round;stroke-linejoin:round;stroke-width:0.150000005960464px"/></g><g id="CIRCLE-3" data-name="CIRCLE"><path d="M332.566,100.866a.469.469,0,1,1,.469-.469.468.468,0,0,1-.469.469Z" style="fill:none;stroke:#231f20;stroke-linecap:round;stroke-linejoin:round;stroke-width:0.150000005960464px"/></g><g id="CIRCLE-4" data-name="CIRCLE"><path d="M341,92.428a.469.469,0,1,1,.469-.468.468.468,0,0,1-.469.468Z" style="fill:none;stroke:#231f20;stroke-linecap:round;stroke-linejoin:round;stroke-width:0.150000005960464px"/></g><g id="CIRCLE-5" data-name="CIRCLE"><path d="M332.566,92.428a.469.469,0,1,1,.469-.468.467.467,0,0,1-.469.468Z" style="fill:none;stroke:#231f20;stroke-linecap:round;stroke-linejoin:round;stroke-width:0.150000005960464px"/></g><g id="CIRCLE-6" data-name="CIRCLE"><path d="M341,83.991a.469.469,0,1,1,.469-.469.469.469,0,0,1-.469.469Z" style="fill:none;stroke:#231f20;stroke-linecap:round;stroke-linejoin:round;stroke-width:0.150000005960464px"/></g><g id="CIRCLE-7" data-name="CIRCLE"><path d="M332.566,83.991a.469.469,0,1,1,.469-.469.468.468,0,0,1-.469.469Z" style="fill:none;stroke:#231f20;stroke-linecap:round;stroke-linejoin:round;stroke-width:0.150000005960464px"/></g><g id="CIRCLE-8" data-name="CIRCLE"><path d="M341,75.553a.469.469,0,1,1,.469-.468.468.468,0,0,1-.469.468Z" style="fill:none;stroke:#231f20;stroke-linecap:round;stroke-linejoin:round;stroke-width:0.150000005960464px"/></g><g id="CIRCLE-9" data-name="CIRCLE"><path d="M332.566,75.553a.469.469,0,1,1,.469-.468.467.467,0,0,1-.469.468Z" style="fill:none;stroke:#231f20;stroke-linecap:round;stroke-linejoin:round;stroke-width:0.150000005960464px"/></g><g id="CIRCLE-10" data-name="CIRCLE"><path d="M341,109.3a.469.469,0,1,1,.469-.468.468.468,0,0,1-.469.468Z" style="fill:none;stroke:#231f20;stroke-linecap:round;stroke-linejoin:round;stroke-width:0.150000005960464px"/></g><g id="CIRCLE-11" data-name="CIRCLE"><path d="M332.566,109.3a.469.469,0,1,1,.469-.468.467.467,0,0,1-.469.468Z" style="fill:none;stroke:#231f20;stroke-linecap:round;stroke-linejoin:round;stroke-width:0.150000005960464px"/></g><g id="CIRCLE-12" data-name="CIRCLE"><path d="M341,117.741a.469.469,0,1,1,.469-.469.469.469,0,0,1-.469.469Z" style="fill:none;stroke:#231f20;stroke-linecap:round;stroke-linejoin:round;stroke-width:0.150000005960464px"/></g><g id="CIRCLE-13" data-name="CIRCLE"><path d="M332.566,117.741a.469.469,0,1,1,.469-.469.468.468,0,0,1-.469.469Z" style="fill:none;stroke:#231f20;stroke-linecap:round;stroke-linejoin:round;stroke-width:0.150000005960464px"/></g><g id="CIRCLE-14" data-name="CIRCLE"><path d="M341,100.866a.469.469,0,1,1,.469-.469.469.469,0,0,1-.469.469Z" style="fill:none;stroke:#231f20;stroke-linecap:round;stroke-linejoin:round;stroke-width:0.150000005960464px"/></g><g id="CIRCLE-15" data-name="CIRCLE"><path d="M332.566,100.866a.469.469,0,1,1,.469-.469.468.468,0,0,1-.469.469Z" style="fill:none;stroke:#231f20;stroke-linecap:round;stroke-linejoin:round;stroke-width:0.150000005960464px"/></g><g id="CIRCLE-16" data-name="CIRCLE"><path d="M341,92.428a.469.469,0,1,1,.469-.468.468.468,0,0,1-.469.468Z" style="fill:none;stroke:#231f20;stroke-linecap:round;stroke-linejoin:round;stroke-width:0.150000005960464px"/></g><g id="CIRCLE-17" data-name="CIRCLE"><path d="M332.566,92.428a.469.469,0,1,1,.469-.468.467.467,0,0,1-.469.468Z" style="fill:none;stroke:#231f20;stroke-linecap:round;stroke-linejoin:round;stroke-width:0.150000005960464px"/></g><g id="CIRCLE-18" data-name="CIRCLE"><path d="M341,83.991a.469.469,0,1,1,.469-.469.469.469,0,0,1-.469.469Z" style="fill:none;stroke:#231f20;stroke-linecap:round;stroke-linejoin:round;stroke-width:0.150000005960464px"/></g><g id="CIRCLE-19" data-name="CIRCLE"><path d="M332.566,83.991a.469.469,0,1,1,.469-.469.468.468,0,0,1-.469.469Z" style="fill:none;stroke:#231f20;stroke-linecap:round;stroke-linejoin:round;stroke-width:0.150000005960464px"/></g><g id="CIRCLE-20" data-name="CIRCLE"><path d="M341,75.553a.469.469,0,1,1,.469-.468.468.468,0,0,1-.469.468Z" style="fill:none;stroke:#231f20;stroke-linecap:round;stroke-linejoin:round;stroke-width:0.150000005960464px"/></g><g id="CIRCLE-21" data-name="CIRCLE"><path d="M332.566,75.553a.469.469,0,1,1,.469-.468.467.467,0,0,1-.469.468Z" style="fill:none;stroke:#231f20;stroke-linecap:round;stroke-linejoin:round;stroke-width:0.150000005960464px"/></g><g id="CIRCLE-22" data-name="CIRCLE"><path d="M341,109.3a.469.469,0,1,1,.469-.468.468.468,0,0,1-.469.468Z" style="fill:none;stroke:#231f20;stroke-linecap:round;stroke-linejoin:round;stroke-width:0.150000005960464px"/></g><g id="CIRCLE-23" data-name="CIRCLE"><path d="M332.566,109.3a.469.469,0,1,1,.469-.468.467.467,0,0,1-.469.468Z" style="fill:none;stroke:#231f20;stroke-linecap:round;stroke-linejoin:round;stroke-width:0.150000005960464px"/></g><g id="CIRCLE-24" data-name="CIRCLE"><path d="M341,117.741a.469.469,0,1,1,.469-.469.469.469,0,0,1-.469.469Z" style="fill:none;stroke:#231f20;stroke-linecap:round;stroke-linejoin:round;stroke-width:0.150000005960464px"/></g><g id="CIRCLE-25" data-name="CIRCLE"><path d="M332.566,117.741a.469.469,0,1,1,.469-.469.468.468,0,0,1-.469.469Z" style="fill:none;stroke:#231f20;stroke-linecap:round;stroke-linejoin:round;stroke-width:0.150000005960464px"/></g><line x1="261.412" y1="62.311" x2="261.412" y2="118.561" style="fill:none;stroke:#231f20;stroke-linecap:round;stroke-linejoin:round;stroke-width:0.150000005960464px"/><line x1="258.982" y1="62.311" x2="258.982" y2="118.561" style="fill:none;stroke:#231f20;stroke-linecap:round;stroke-linejoin:round;stroke-width:0.150000005960464px"/><g id="LWPOLYLINE-48" data-name="LWPOLYLINE"><polyline points="137.954 17.778 137.954 23.403 25.454 23.403 25.454 17.778" style="fill:none;stroke:#231f20;stroke-linecap:round;stroke-linejoin:round;stroke-width:0.4px"/></g><g id="LWPOLYLINE-49" data-name="LWPOLYLINE"><polyline points="284.204 17.778 284.204 23.403 171.704 23.403 171.704 17.778" style="fill:none;stroke:#231f20;stroke-linecap:round;stroke-linejoin:round;stroke-width:0.4px"/></g><g id="LWPOLYLINE-50" data-name="LWPOLYLINE"><polyline points="430.454 17.778 430.454 23.403 317.954 23.403 317.954 17.778" style="fill:none;stroke:#231f20;stroke-linecap:round;stroke-linejoin:round;stroke-width:0.4px"/></g><g id="LWPOLYLINE-51" data-name="LWPOLYLINE"><polygon points="107.843 14.028 55.571 14.028 55.571 15.259 107.831 15.259 107.843 14.028" style="fill:none;stroke:#231f20;stroke-linecap:round;stroke-linejoin:round;stroke-width:0.25px"/></g><g id="LWPOLYLINE-52" data-name="LWPOLYLINE"><polygon points="135.141 14.028 134.204 14.028 110.415 14.028 110.415 15.259 135.141 15.259 135.141 14.028" style="fill:none;stroke:#231f20;stroke-linecap:round;stroke-linejoin:round;stroke-width:0.25px"/></g><g id="LWPOLYLINE-53" data-name="LWPOLYLINE"><polygon points="28.26 14.028 29.198 14.028 52.987 14.028 52.987 15.259 28.26 15.259 28.26 14.028" style="fill:none;stroke:#231f20;stroke-linecap:round;stroke-linejoin:round;stroke-width:0.25px"/></g><g id="LWPOLYLINE-54" data-name="LWPOLYLINE"><polygon points="254.093 14.028 201.821 14.028 201.821 15.259 254.081 15.259 254.093 14.028" style="fill:none;stroke:#231f20;stroke-linecap:round;stroke-linejoin:round;stroke-width:0.25px"/></g><g id="LWPOLYLINE-55" data-name="LWPOLYLINE"><polygon points="281.391 14.028 280.454 14.028 256.665 14.028 256.665 15.259 281.391 15.259 281.391 14.028" style="fill:none;stroke:#231f20;stroke-linecap:round;stroke-linejoin:round;stroke-width:0.25px"/></g><g id="LWPOLYLINE-56" data-name="LWPOLYLINE"><polygon points="174.51 14.028 175.448 14.028 199.237 14.028 199.237 15.259 174.51 15.259 174.51 14.028" style="fill:none;stroke:#231f20;stroke-linecap:round;stroke-linejoin:round;stroke-width:0.25px"/></g><g id="LWPOLYLINE-57" data-name="LWPOLYLINE"><polygon points="400.343 14.028 348.071 14.028 348.071 15.259 400.331 15.259 400.343 14.028" style="fill:none;stroke:#231f20;stroke-linecap:round;stroke-linejoin:round;stroke-width:0.25px"/></g><g id="LWPOLYLINE-58" data-name="LWPOLYLINE"><polygon points="427.641 14.028 426.704 14.028 402.915 14.028 402.915 15.259 427.641 15.259 427.641 14.028" style="fill:none;stroke:#231f20;stroke-linecap:round;stroke-linejoin:round;stroke-width:0.25px"/></g><g id="LWPOLYLINE-59" data-name="LWPOLYLINE"><polygon points="320.86 14.051 321.794 14.051 345.487 14.052 345.487 15.235 320.86 15.235 320.86 14.051" style="fill:none;stroke:#231f20;stroke-linecap:round;stroke-linejoin:round;stroke-width:0.25px"/></g><g id="LWPOLYLINE-60" data-name="LWPOLYLINE"><polygon points="107.843 14.028 55.571 14.028 55.571 15.259 107.831 15.259 107.843 14.028" style="fill:none;stroke:#231f20;stroke-linecap:round;stroke-linejoin:round;stroke-width:0.25px"/></g><g id="LWPOLYLINE-61" data-name="LWPOLYLINE"><polygon points="135.141 14.028 134.204 14.028 110.415 14.028 110.415 15.259 135.141 15.259 135.141 14.028" style="fill:none;stroke:#231f20;stroke-linecap:round;stroke-linejoin:round;stroke-width:0.25px"/></g><g id="LWPOLYLINE-62" data-name="LWPOLYLINE"><polygon points="28.26 14.028 29.198 14.028 52.987 14.028 52.987 15.259 28.26 15.259 28.26 14.028" style="fill:none;stroke:#231f20;stroke-linecap:round;stroke-linejoin:round;stroke-width:0.25px"/></g><g id="LWPOLYLINE-63" data-name="LWPOLYLINE"><polygon points="254.093 14.028 201.821 14.028 201.821 15.259 254.081 15.259 254.093 14.028" style="fill:none;stroke:#231f20;stroke-linecap:round;stroke-linejoin:round;stroke-width:0.25px"/></g><g id="LWPOLYLINE-64" data-name="LWPOLYLINE"><polygon points="281.391 14.028 280.454 14.028 256.665 14.028 256.665 15.259 281.391 15.259 281.391 14.028" style="fill:none;stroke:#231f20;stroke-linecap:round;stroke-linejoin:round;stroke-width:0.25px"/></g><g id="LWPOLYLINE-65" data-name="LWPOLYLINE"><polygon points="174.51 14.028 175.448 14.028 199.237 14.028 199.237 15.259 174.51 15.259 174.51 14.028" style="fill:none;stroke:#231f20;stroke-linecap:round;stroke-linejoin:round;stroke-width:0.25px"/></g><g id="LWPOLYLINE-66" data-name="LWPOLYLINE"><polygon points="400.343 14.028 348.071 14.028 348.071 15.259 400.331 15.259 400.343 14.028" style="fill:none;stroke:#231f20;stroke-linecap:round;stroke-linejoin:round;stroke-width:0.25px"/></g><g id="LWPOLYLINE-67" data-name="LWPOLYLINE"><polygon points="427.641 14.028 426.704 14.028 402.915 14.028 402.915 15.259 427.641 15.259 427.641 14.028" style="fill:none;stroke:#231f20;stroke-linecap:round;stroke-linejoin:round;stroke-width:0.25px"/></g><line x1="321.698" y1="17.778" x2="426.521" y2="17.778" style="fill:none;stroke:#231f20;stroke-linecap:round;stroke-linejoin:round;stroke-width:0.25px"/><line x1="28.535" y1="17.778" x2="134.204" y2="17.778" style="fill:none;stroke:#231f20;stroke-linecap:round;stroke-linejoin:round;stroke-width:0.25px"/><line x1="175.448" y1="17.778" x2="280.454" y2="17.778" style="fill:none;stroke:#231f20;stroke-linecap:round;stroke-linejoin:round;stroke-width:0.25px"/><g id="LWPOLYLINE-68" data-name="LWPOLYLINE"><polygon points="111.118 15.259 110.415 15.259 110.415 14.028 111.118 14.028 111.118 13.091 109.36 13.091 109.36 10.747 108.423 10.747 108.423 13.091 107.368 13.091 107.368 14.028 107.837 14.028 107.837 15.259 107.134 15.259 107.134 16.43 108.071 16.43 108.071 17.309 109.243 17.309 109.243 17.778 111.118 17.778 111.118 15.259" style="fill:none;stroke:#231f20;stroke-miterlimit:10;stroke-width:0.25px"/></g><g id="LWPOLYLINE-69" data-name="LWPOLYLINE"><polygon points="137.954 13.091 136.372 13.091 136.372 9.341 135.434 9.341 135.434 13.091 134.204 13.091 134.204 14.028 135.141 14.028 135.141 15.259 134.204 15.259 134.204 17.778 137.954 17.778 137.954 13.091" style="fill:none;stroke:#231f20;stroke-miterlimit:10;stroke-width:0.25px"/></g><g id="LWPOLYLINE-70" data-name="LWPOLYLINE"><polygon points="52.284 15.259 52.987 15.259 52.987 14.028 52.284 14.028 52.284 13.091 54.041 13.091 54.041 10.747 54.979 10.747 54.979 13.091 56.034 13.091 56.034 14.028 55.565 14.028 55.565 15.259 56.268 15.259 56.268 16.43 55.331 16.43 55.331 17.309 54.159 17.309 54.159 17.778 52.284 17.778 52.284 15.259" style="fill:none;stroke:#231f20;stroke-miterlimit:10;stroke-width:0.25px"/></g><g id="LWPOLYLINE-71" data-name="LWPOLYLINE"><polygon points="25.448 13.091 27.03 13.091 27.03 9.341 27.967 9.341 27.967 13.091 29.198 13.091 29.198 14.028 28.26 14.028 28.26 15.259 29.198 15.259 29.198 17.778 25.448 17.778 25.448 13.091" style="fill:none;stroke:#231f20;stroke-miterlimit:10;stroke-width:0.25px"/></g><g id="LWPOLYLINE-72" data-name="LWPOLYLINE"><polygon points="257.368 15.259 256.665 15.259 256.665 14.028 257.368 14.028 257.368 13.091 255.61 13.091 255.61 10.747 254.673 10.747 254.673 13.091 253.618 13.091 253.618 14.028 254.087 14.028 254.087 15.259 253.384 15.259 253.384 16.43 254.321 16.43 254.321 17.309 255.493 17.309 255.493 17.778 257.368 17.778 257.368 15.259" style="fill:none;stroke:#231f20;stroke-miterlimit:10;stroke-width:0.25px"/></g><g id="LWPOLYLINE-73" data-name="LWPOLYLINE"><polygon points="284.204 13.091 282.622 13.091 282.622 9.341 281.684 9.341 281.684 13.091 280.454 13.091 280.454 14.028 281.391 14.028 281.391 15.259 280.454 15.259 280.454 17.778 284.204 17.778 284.204 13.091" style="fill:none;stroke:#231f20;stroke-miterlimit:10;stroke-width:0.25px"/></g><g id="LWPOLYLINE-74" data-name="LWPOLYLINE"><polygon points="198.534 15.259 199.237 15.259 199.237 14.028 198.534 14.028 198.534 13.091 200.291 13.091 200.291 10.747 201.229 10.747 201.229 13.091 202.284 13.091 202.284 14.028 201.815 14.028 201.815 15.259 202.518 15.259 202.518 16.43 201.581 16.43 201.581 17.309 200.409 17.309 200.409 17.778 198.534 17.778 198.534 15.259" style="fill:none;stroke:#231f20;stroke-miterlimit:10;stroke-width:0.25px"/></g><g id="LWPOLYLINE-75" data-name="LWPOLYLINE"><polygon points="171.698 13.091 173.28 13.091 173.28 9.341 174.217 9.341 174.217 13.091 175.448 13.091 175.448 14.028 174.51 14.028 174.51 15.259 175.448 15.259 175.448 17.778 171.698 17.778 171.698 13.091" style="fill:none;stroke:#231f20;stroke-miterlimit:10;stroke-width:0.25px"/></g><g id="LWPOLYLINE-76" data-name="LWPOLYLINE"><polygon points="403.618 15.259 402.915 15.259 402.915 14.028 403.618 14.028 403.618 13.091 401.86 13.091 401.86 10.747 400.923 10.747 400.923 13.091 399.868 13.091 399.868 14.028 400.337 14.028 400.337 15.259 399.634 15.259 399.634 16.43 400.571 16.43 400.571 17.309 401.743 17.309 401.743 17.778 403.618 17.778 403.618 15.259" style="fill:none;stroke:#231f20;stroke-miterlimit:10;stroke-width:0.25px"/></g><g id="LWPOLYLINE-77" data-name="LWPOLYLINE"><polygon points="430.454 13.091 428.872 13.091 428.872 9.341 427.934 9.341 427.934 13.091 426.704 13.091 426.704 14.028 427.641 14.028 427.641 15.259 426.704 15.259 426.704 17.778 430.454 17.778 430.454 13.091" style="fill:none;stroke:#231f20;stroke-miterlimit:10;stroke-width:0.25px"/></g><g id="LWPOLYLINE-78" data-name="LWPOLYLINE"><polygon points="344.784 15.259 345.487 15.259 345.487 14.028 344.784 14.028 344.784 13.091 346.541 13.091 346.541 10.747 347.479 10.747 347.479 13.091 348.534 13.091 348.534 14.028 348.065 14.028 348.065 15.259 348.768 15.259 348.768 16.43 347.831 16.43 347.831 17.309 346.659 17.309 346.659 17.778 344.784 17.778 344.784 15.259" style="fill:none;stroke:#231f20;stroke-miterlimit:10;stroke-width:0.25px"/></g><g id="LWPOLYLINE-79" data-name="LWPOLYLINE"><polygon points="317.948 13.091 319.53 13.091 319.53 9.341 320.467 9.341 320.467 13.091 321.698 13.091 321.698 14.028 320.76 14.028 320.76 15.259 321.698 15.259 321.698 17.778 317.948 17.778 317.948 13.091" style="fill:none;stroke:#231f20;stroke-miterlimit:10;stroke-width:0.25px"/></g><g id="LWPOLYLINE-80" data-name="LWPOLYLINE"><polygon points="111.118 15.259 110.415 15.259 110.415 14.028 111.118 14.028 111.118 13.091 109.36 13.091 109.36 10.747 108.423 10.747 108.423 13.091 107.368 13.091 107.368 14.028 107.837 14.028 107.837 15.259 107.134 15.259 107.134 16.43 108.071 16.43 108.071 17.309 109.243 17.309 109.243 17.778 111.118 17.778 111.118 15.259" style="fill:none;stroke:#231f20;stroke-miterlimit:10;stroke-width:0.25px"/></g><g id="LWPOLYLINE-81" data-name="LWPOLYLINE"><polygon points="137.954 13.091 136.372 13.091 136.372 9.341 135.434 9.341 135.434 13.091 134.204 13.091 134.204 14.028 135.141 14.028 135.141 15.259 134.204 15.259 134.204 17.778 137.954 17.778 137.954 13.091" style="fill:none;stroke:#231f20;stroke-miterlimit:10;stroke-width:0.25px"/></g><g id="LWPOLYLINE-82" data-name="LWPOLYLINE"><polygon points="52.284 15.259 52.987 15.259 52.987 14.028 52.284 14.028 52.284 13.091 54.041 13.091 54.041 10.747 54.979 10.747 54.979 13.091 56.034 13.091 56.034 14.028 55.565 14.028 55.565 15.259 56.268 15.259 56.268 16.43 55.331 16.43 55.331 17.309 54.159 17.309 54.159 17.778 52.284 17.778 52.284 15.259" style="fill:none;stroke:#231f20;stroke-miterlimit:10;stroke-width:0.25px"/></g><g id="LWPOLYLINE-83" data-name="LWPOLYLINE"><polygon points="25.448 13.091 27.03 13.091 27.03 9.341 27.967 9.341 27.967 13.091 29.198 13.091 29.198 14.028 28.26 14.028 28.26 15.259 29.198 15.259 29.198 17.778 25.448 17.778 25.448 13.091" style="fill:none;stroke:#231f20;stroke-miterlimit:10;stroke-width:0.25px"/></g><g id="LWPOLYLINE-84" data-name="LWPOLYLINE"><polygon points="257.368 15.259 256.665 15.259 256.665 14.028 257.368 14.028 257.368 13.091 255.61 13.091 255.61 10.747 254.673 10.747 254.673 13.091 253.618 13.091 253.618 14.028 254.087 14.028 254.087 15.259 253.384 15.259 253.384 16.43 254.321 16.43 254.321 17.309 255.493 17.309 255.493 17.778 257.368 17.778 257.368 15.259" style="fill:none;stroke:#231f20;stroke-miterlimit:10;stroke-width:0.25px"/></g><g id="LWPOLYLINE-85" data-name="LWPOLYLINE"><polygon points="284.204 13.091 282.622 13.091 282.622 9.341 281.684 9.341 281.684 13.091 280.454 13.091 280.454 14.028 281.391 14.028 281.391 15.259 280.454 15.259 280.454 17.778 284.204 17.778 284.204 13.091" style="fill:none;stroke:#231f20;stroke-miterlimit:10;stroke-width:0.25px"/></g><g id="LWPOLYLINE-86" data-name="LWPOLYLINE"><polygon points="198.534 15.259 199.237 15.259 199.237 14.028 198.534 14.028 198.534 13.091 200.291 13.091 200.291 10.747 201.229 10.747 201.229 13.091 202.284 13.091 202.284 14.028 201.815 14.028 201.815 15.259 202.518 15.259 202.518 16.43 201.581 16.43 201.581 17.309 200.409 17.309 200.409 17.778 198.534 17.778 198.534 15.259" style="fill:none;stroke:#231f20;stroke-miterlimit:10;stroke-width:0.25px"/></g><g id="LWPOLYLINE-87" data-name="LWPOLYLINE"><polygon points="171.698 13.091 173.28 13.091 173.28 9.341 174.217 9.341 174.217 13.091 175.448 13.091 175.448 14.028 174.51 14.028 174.51 15.259 175.448 15.259 175.448 17.778 171.698 17.778 171.698 13.091" style="fill:none;stroke:#231f20;stroke-miterlimit:10;stroke-width:0.25px"/></g><g id="LWPOLYLINE-88" data-name="LWPOLYLINE"><polygon points="403.618 15.259 402.915 15.259 402.915 14.028 403.618 14.028 403.618 13.091 401.86 13.091 401.86 10.747 400.923 10.747 400.923 13.091 399.868 13.091 399.868 14.028 400.337 14.028 400.337 15.259 399.634 15.259 399.634 16.43 400.571 16.43 400.571 17.309 401.743 17.309 401.743 17.778 403.618 17.778 403.618 15.259" style="fill:none;stroke:#231f20;stroke-miterlimit:10;stroke-width:0.25px"/></g><g id="LWPOLYLINE-89" data-name="LWPOLYLINE"><polygon points="430.454 13.091 428.872 13.091 428.872 9.341 427.934 9.341 427.934 13.091 426.704 13.091 426.704 14.028 427.641 14.028 427.641 15.259 426.704 15.259 426.704 17.778 430.454 17.778 430.454 13.091" style="fill:none;stroke:#231f20;stroke-miterlimit:10;stroke-width:0.25px"/></g><g id="LWPOLYLINE-90" data-name="LWPOLYLINE"><polygon points="344.784 15.259 345.487 15.259 345.487 14.028 344.784 14.028 344.784 13.091 346.541 13.091 346.541 10.747 347.479 10.747 347.479 13.091 348.534 13.091 348.534 14.028 348.065 14.028 348.065 15.259 348.768 15.259 348.768 16.43 347.831 16.43 347.831 17.309 346.659 17.309 346.659 17.778 344.784 17.778 344.784 15.259" style="fill:none;stroke:#231f20;stroke-miterlimit:10;stroke-width:0.25px"/></g><g id="LWPOLYLINE-91" data-name="LWPOLYLINE"><polyline points="137.954 17.778 137.954 9.341 25.454 9.341 25.454 17.778" style="fill:none;stroke:#231f20;stroke-linecap:round;stroke-linejoin:round;stroke-width:0.4px"/></g><g id="LWPOLYLINE-92" data-name="LWPOLYLINE"><polyline points="284.204 17.778 284.204 9.341 171.704 9.341 171.704 17.778" style="fill:none;stroke:#231f20;stroke-linecap:round;stroke-linejoin:round;stroke-width:0.4px"/></g><g id="LWPOLYLINE-93" data-name="LWPOLYLINE"><polyline points="430.454 17.778 430.454 9.341 317.954 9.341 317.954 17.778" style="fill:none;stroke:#231f20;stroke-linecap:round;stroke-linejoin:round;stroke-width:0.4px"/></g><g id="LWPOLYLINE-94" data-name="LWPOLYLINE"><rect x="171.209" y="250.644" width="33.75" height="1.641" transform="translate(-122.724 206.648) rotate(-45)" style="fill:none;stroke:#231f20;stroke-linecap:round;stroke-linejoin:round;stroke-width:0.200000002980232px"/></g><g id="LWPOLYLINE-95" data-name="LWPOLYLINE"><rect x="89.204" y="185.708" width="1.641" height="33.75" style="fill:none;stroke:#231f20;stroke-linecap:round;stroke-linejoin:round;stroke-width:0.200000002980232px"/></g><g id="LWPOLYLINE-96" data-name="LWPOLYLINE"><rect x="89.204" y="230.473" width="1.641" height="33.75" style="fill:none;stroke:#231f20;stroke-linecap:round;stroke-linejoin:round;stroke-width:0.200000002980232px"/></g><g id="LWPOLYLINE-97" data-name="LWPOLYLINE"><rect x="220.337" y="264.692" width="33.75" height="1.641" style="fill:none;stroke:#231f20;stroke-linecap:round;stroke-linejoin:round;stroke-width:0.200000002980232px"/></g><g id="LWPOLYLINE-98" data-name="LWPOLYLINE"><rect x="170.18" y="208.852" width="1.641" height="22.5" style="fill:none;stroke:#231f20;stroke-linecap:round;stroke-linejoin:round;stroke-width:0.200000002980232px"/></g><g id="LWPOLYLINE-99" data-name="LWPOLYLINE"><rect x="170.18" y="231.352" width="1.641" height="22.5" style="fill:none;stroke:#231f20;stroke-linecap:round;stroke-linejoin:round;stroke-width:0.200000002980232px"/></g><g id="LWPOLYLINE-100" data-name="LWPOLYLINE"><rect x="125.547" y="274.445" width="1.641" height="33.75" transform="translate(-168.983 174.681) rotate(-45)" style="fill:none;stroke:#231f20;stroke-linecap:round;stroke-linejoin:round;stroke-width:0.200000002980232px"/></g><g id="LWPOLYLINE-101" data-name="LWPOLYLINE"><rect x="98.345" y="309.458" width="33.75" height="1.641" style="fill:none;stroke:#231f20;stroke-linecap:round;stroke-linejoin:round;stroke-width:0.200000002980232px"/></g><g id="LWPOLYLINE-102" data-name="LWPOLYLINE"><rect x="226.782" y="307.583" width="33.75" height="1.641" style="fill:none;stroke:#231f20;stroke-linecap:round;stroke-linejoin:round;stroke-width:0.200000002980232px"/></g><g id="LWPOLYLINE-103" data-name="LWPOLYLINE"><rect x="292.173" y="342.505" width="1.641" height="28.125" style="fill:none;stroke:#231f20;stroke-linecap:round;stroke-linejoin:round;stroke-width:0.200000002980232px"/></g><g id="LWPOLYLINE-104" data-name="LWPOLYLINE"><rect x="294.304" y="371.045" width="33.75" height="2.109" transform="translate(-171.972 329.022) rotate(-45)" style="fill:none;stroke:#231f20;stroke-linecap:round;stroke-linejoin:round;stroke-width:0.200000002980232px"/></g><g id="LWPOLYLINE-105" data-name="LWPOLYLINE"><rect x="171.209" y="250.644" width="33.75" height="1.641" transform="translate(-122.724 206.648) rotate(-45)" style="fill:#fff;stroke:#231f20;stroke-linecap:round;stroke-linejoin:round;stroke-width:0.200000002980232px"/></g><g id="LWPOLYLINE-106" data-name="LWPOLYLINE"><rect x="89.204" y="185.708" width="1.641" height="33.75" style="fill:none;stroke:#231f20;stroke-linecap:round;stroke-linejoin:round;stroke-width:0.200000002980232px"/></g><g id="LWPOLYLINE-107" data-name="LWPOLYLINE"><rect x="89.204" y="230.473" width="1.641" height="33.75" style="fill:none;stroke:#231f20;stroke-linecap:round;stroke-linejoin:round;stroke-width:0.200000002980232px"/></g><g id="LWPOLYLINE-108" data-name="LWPOLYLINE"><rect x="220.337" y="264.692" width="33.75" height="1.641" style="fill:none;stroke:#231f20;stroke-linecap:round;stroke-linejoin:round;stroke-width:0.200000002980232px"/></g><g id="LWPOLYLINE-109" data-name="LWPOLYLINE"><rect x="170.18" y="208.852" width="1.641" height="22.5" style="fill:none;stroke:#231f20;stroke-linecap:round;stroke-linejoin:round;stroke-width:0.200000002980232px"/></g><g id="LWPOLYLINE-110" data-name="LWPOLYLINE"><rect x="170.18" y="231.352" width="1.641" height="22.5" style="fill:none;stroke:#231f20;stroke-linecap:round;stroke-linejoin:round;stroke-width:0.200000002980232px"/></g><g id="LWPOLYLINE-111" data-name="LWPOLYLINE"><rect x="125.547" y="274.445" width="1.641" height="33.75" transform="translate(-168.983 174.681) rotate(-45)" style="fill:#fff;stroke:#231f20;stroke-linecap:round;stroke-linejoin:round;stroke-width:0.200000002980232px"/></g><g id="LWPOLYLINE-112" data-name="LWPOLYLINE"><rect x="98.345" y="309.458" width="33.75" height="1.641" style="fill:none;stroke:#231f20;stroke-linecap:round;stroke-linejoin:round;stroke-width:0.200000002980232px"/></g><g id="LWPOLYLINE-113" data-name="LWPOLYLINE"><rect x="226.782" y="307.583" width="33.75" height="1.641" style="fill:none;stroke:#231f20;stroke-linecap:round;stroke-linejoin:round;stroke-width:0.200000002980232px"/></g><g id="LWPOLYLINE-114" data-name="LWPOLYLINE"><rect x="292.173" y="342.505" width="1.641" height="28.125" style="fill:none;stroke:#231f20;stroke-linecap:round;stroke-linejoin:round;stroke-width:0.200000002980232px"/></g><g id="LWPOLYLINE-115" data-name="LWPOLYLINE"><rect x="294.304" y="371.045" width="33.75" height="2.109" transform="translate(-171.972 329.022) rotate(-45)" style="fill:#fff;stroke:#231f20;stroke-linecap:round;stroke-linejoin:round;stroke-width:0.200000002980232px"/></g><g id="ARC-30" data-name="ARC"><path d="M209.321,262.817a33.753,33.753,0,0,0-9.885-23.865" style="fill:none;stroke:#231f20;stroke-linecap:round;stroke-linejoin:round;stroke-width:0.200000002980232px"/></g><g id="ARC-31" data-name="ARC"><path d="M137.72,270.083a33.749,33.749,0,0,0-23.865,9.885" style="fill:none;stroke:#231f20;stroke-linecap:round;stroke-linejoin:round;stroke-width:0.200000002980232px"/></g><g id="ARC-32" data-name="ARC"><path d="M332.251,383.286a34.268,34.268,0,0,0-8.394-22.373" style="fill:none;stroke:#231f20;stroke-linecap:round;stroke-linejoin:round;stroke-width:0.200000002980232px"/></g><g id="ARC-33" data-name="ARC"><path d="M209.321,262.817a33.753,33.753,0,0,0-9.885-23.865" style="fill:none;stroke:#231f20;stroke-linecap:round;stroke-linejoin:round;stroke-width:0.200000002980232px"/></g><g id="ARC-34" data-name="ARC"><path d="M137.72,270.083a33.749,33.749,0,0,0-23.865,9.885" style="fill:none;stroke:#231f20;stroke-linecap:round;stroke-linejoin:round;stroke-width:0.200000002980232px"/></g><g id="ARC-35" data-name="ARC"><path d="M332.251,383.286a34.268,34.268,0,0,0-8.394-22.373" style="fill:none;stroke:#231f20;stroke-linecap:round;stroke-linejoin:round;stroke-width:0.200000002980232px"/></g><g id="ARC-36" data-name="ARC"><path d="M55,373.556a2.649,2.649,0,1,0-.636,0" style="fill:#fff;stroke:#231f20;stroke-linecap:round;stroke-linejoin:round;stroke-width:0.200000002980232px"/></g><g id="LWPOLYLINE-116" data-name="LWPOLYLINE"><rect x="216.037" y="163.677" width="59.114" height="31.172" style="fill:none;stroke:#231f20;stroke-linecap:round;stroke-linejoin:round;stroke-width:0.25px"/></g><g id="LWPOLYLINE-117" data-name="LWPOLYLINE"><path d="M269.673,179.461v-5.823a4.688,4.688,0,0,0-4.688-4.688H226.313a4.687,4.687,0,0,0-4.687,4.688v12.421a4.687,4.687,0,0,0,4.687,4.688h38.672a4.688,4.688,0,0,0,4.688-4.688v-5.823" style="fill:none;stroke:#231f20;stroke-linecap:round;stroke-linejoin:round;stroke-width:0.25px"/></g><g id="ARC-37" data-name="ARC"><path d="M266.492,179.447a3.28,3.28,0,1,0,0,.789" style="fill:none;stroke:#231f20;stroke-linecap:round;stroke-linejoin:round;stroke-width:0.25px"/></g><g id="LWPOLYLINE-118" data-name="LWPOLYLINE"><path d="M263.236,180.236h11.476v-.775H263.236a.388.388,0,1,0,0,.775Z" style="fill:none;stroke:#231f20;stroke-linecap:round;stroke-linejoin:round;stroke-width:0.25px"/></g><g id="LWPOLYLINE-119" data-name="LWPOLYLINE"><path d="M54.985,375.786h7.5a4.688,4.688,0,0,0,4.688-4.688V319.419a4.688,4.688,0,0,0-4.688-4.688h-15a4.687,4.687,0,0,0-4.687,4.688V371.1a4.687,4.687,0,0,0,4.687,4.688H54.36" style="fill:none;stroke:#231f20;stroke-linecap:round;stroke-linejoin:round;stroke-width:0.25px"/></g><g id="LWPOLYLINE-120" data-name="LWPOLYLINE"><rect x="177.798" y="311.098" width="35.625" height="69.375" style="fill:none;stroke:#231f20;stroke-linecap:round;stroke-linejoin:round;stroke-width:0.25px"/></g><g id="ARC-38" data-name="ARC"><path d="M196.011,373.191a3.279,3.279,0,1,0-.788,0" style="fill:none;stroke:#231f20;stroke-linecap:round;stroke-linejoin:round;stroke-width:0.25px"/></g><g id="LWPOLYLINE-121" data-name="LWPOLYLINE"><path d="M195.223,369.935v10.538H196V369.935a.388.388,0,1,0-.775,0Z" style="fill:none;stroke:#231f20;stroke-linecap:round;stroke-linejoin:round;stroke-width:0.25px"/></g><g id="LWPOLYLINE-122" data-name="LWPOLYLINE"><polygon points="71.681 311.098 71.642 381.356 36.624 381.247 36.664 310.989 71.681 311.098" style="fill:none;stroke:#231f20;stroke-linecap:round;stroke-linejoin:round;stroke-width:0.25px"/></g><g id="LWPOLYLINE-123" data-name="LWPOLYLINE"><rect x="177.527" y="311.098" width="35.895" height="69.375" style="fill:none;stroke:#231f20;stroke-linecap:round;stroke-linejoin:round;stroke-width:0.25px"/></g><g id="LWPOLYLINE-124" data-name="LWPOLYLINE"><rect x="177.798" y="311.098" width="35.625" height="69.375" style="fill:none;stroke:#231f20;stroke-linecap:round;stroke-linejoin:round;stroke-width:0.25px"/></g><g id="LWPOLYLINE-125" data-name="LWPOLYLINE"><rect x="177.033" y="311.098" width="0.828" height="35.625" style="fill:#fff;stroke:#231f20;stroke-linecap:round;stroke-linejoin:round;stroke-width:0.25px"/></g><line x1="177.033" y1="340.44" x2="177.861" y2="340.44" style="fill:none;stroke:#231f20;stroke-linecap:round;stroke-linejoin:round;stroke-width:0.25px"/><g id="LINE-17" data-name="LINE"><line x1="231.001" y1="341.802" x2="256.313" y2="341.802" style="fill:#fff;stroke:#231f20;stroke-linecap:round;stroke-linejoin:round;stroke-width:0.25px"/></g><g id="LINE-18" data-name="LINE"><line x1="256.313" y1="341.802" x2="256.313" y2="313.911" style="fill:#fff;stroke:#231f20;stroke-linecap:round;stroke-linejoin:round;stroke-width:0.25px"/></g><g id="LINE-19" data-name="LINE"><line x1="256.313" y1="313.911" x2="231.001" y2="313.911" style="fill:#fff;stroke:#231f20;stroke-linecap:round;stroke-linejoin:round;stroke-width:0.25px"/></g><g id="LINE-20" data-name="LINE"><line x1="231.001" y1="313.911" x2="231.001" y2="341.802" style="fill:#fff;stroke:#231f20;stroke-linecap:round;stroke-linejoin:round;stroke-width:0.25px"/></g><g id="LWPOLYLINE-126" data-name="LWPOLYLINE"><rect x="412.407" y="276.294" width="27.891" height="23.203" style="fill:#fff;stroke:#231f20;stroke-linecap:round;stroke-linejoin:round;stroke-width:0.25px"/></g><g id="LWPOLYLINE-127" data-name="LWPOLYLINE"><polyline points="428.856 212.544 452.602 212.544 452.602 235.044 428.856 235.044" style="fill:none;stroke:#231f20;stroke-linecap:round;stroke-linejoin:round;stroke-width:0.25px"/></g><g id="LWPOLYLINE-128" data-name="LWPOLYLINE"><rect x="342.446" y="276.294" width="1.172" height="31.289" style="fill:none;stroke:#231f20;stroke-linecap:round;stroke-linejoin:round;stroke-width:0.25px"/></g><g id="LWPOLYLINE-129" data-name="LWPOLYLINE"><rect x="343.618" y="276.294" width="68.789" height="23.438" style="fill:none;stroke:#231f20;stroke-linecap:round;stroke-linejoin:round;stroke-width:0.25px"/></g><g id="LWPOLYLINE-130" data-name="LWPOLYLINE"><polygon points="428.548 235.044 341.977 235.044 341.977 201.294 428.548 201.294 428.548 212.544 452.602 212.544 452.602 235.044 428.548 235.044" style="fill:#fff;stroke:#231f20;stroke-linecap:round;stroke-linejoin:round;stroke-width:0.25px"/></g><g id="LWPOLYLINE-131" data-name="LWPOLYLINE"><polygon points="452.602 276.294 440.415 276.274 440.415 299.711 452.602 299.731 452.602 276.294" style="fill:#fff;stroke:#231f20;stroke-linecap:round;stroke-linejoin:round;stroke-width:0.25px"/></g><g id="LWPOLYLINE-132" data-name="LWPOLYLINE"><polyline points="374.417 218.2 374.417 232.255 400.77 232.255 400.77 218.2 374.417 218.2" style="fill:none;stroke:#231f20;stroke-linecap:round;stroke-linejoin:round;stroke-width:0.25px"/></g><rect x="387.335" y="215.721" width="3.21" height="1.348" transform="translate(777.881 432.789) rotate(180)" style="fill:#fff;stroke:#231f20;stroke-linecap:round;stroke-linejoin:round;stroke-width:0.25px"/><path d="M386.629,216.936a.929.929,0,0,0,.309.308v6.766a.487.487,0,1,0,.974,0v-6.766a.933.933,0,1,0-1.283-.308Z" style="fill:#fff;stroke:#231f20;stroke-linecap:round;stroke-linejoin:round;stroke-width:0.25px"/><g id="LINE-21" data-name="LINE"><line x1="407.214" y1="234.7" x2="407.214" y2="234.039" style="fill:none;stroke:#231f20;stroke-linecap:round;stroke-linejoin:round;stroke-width:0.25px"/><line x1="407.214" y1="232.659" x2="407.214" y2="219.551" style="fill:none;stroke:#231f20;stroke-linecap:round;stroke-linejoin:round;stroke-width:0.25px;stroke-dasharray:1.3797643184661865,1.3797643184661865"/><polyline points="407.214 218.861 407.214 218.2 407.876 218.2" style="fill:none;stroke:#231f20;stroke-linecap:round;stroke-linejoin:round;stroke-width:0.25px"/><line x1="409.163" y1="218.2" x2="423.965" y2="218.2" style="fill:none;stroke:#231f20;stroke-linecap:round;stroke-linejoin:round;stroke-width:0.25px;stroke-dasharray:1.2871116399765015,1.2871116399765015"/><polyline points="424.608 218.2 425.27 218.2 425.27 218.861" style="fill:none;stroke:#231f20;stroke-linecap:round;stroke-linejoin:round;stroke-width:0.25px"/><line x1="425.27" y1="220.241" x2="425.27" y2="233.349" style="fill:none;stroke:#231f20;stroke-linecap:round;stroke-linejoin:round;stroke-width:0.25px;stroke-dasharray:1.3797643184661865,1.3797643184661865"/><line x1="425.27" y1="234.039" x2="425.27" y2="234.7" style="fill:none;stroke:#231f20;stroke-linecap:round;stroke-linejoin:round;stroke-width:0.25px"/></g><g id="LWPOLYLINE-133" data-name="LWPOLYLINE"><line x1="343.668" y1="286.606" x2="412.409" y2="286.606" style="fill:none;stroke:#231f20;stroke-linecap:round;stroke-linejoin:round;stroke-width:0.25px;stroke-dasharray:2,2"/></g><g id="LWPOLYLINE-134" data-name="LWPOLYLINE"><line x1="154.712" y1="262.817" x2="154.712" y2="200.708" style="fill:none;stroke:#231f20;stroke-linecap:round;stroke-linejoin:round;stroke-width:0.25px;stroke-dasharray:2,2"/></g><g id="LWPOLYLINE-135" data-name="LWPOLYLINE"><polyline points="89.204 273.364 48.423 273.364 48.424 226.724" style="fill:none;stroke:#231f20;stroke-linecap:round;stroke-linejoin:round;stroke-width:0.25px;stroke-dasharray:2,2"/></g><g id="LWPOLYLINE-136" data-name="LWPOLYLINE"><polyline points="14.321 223.208 14.321 176.333 89.204 176.333" style="fill:none;stroke:#231f20;stroke-linecap:round;stroke-linejoin:round;stroke-width:0.25px;stroke-dasharray:2,2"/></g><g id="LWPOLYLINE-137" data-name="LWPOLYLINE"><line x1="279.048" y1="386.098" x2="279.048" y2="339.809" style="fill:none;stroke:#231f20;stroke-linecap:round;stroke-linejoin:round;stroke-width:0.25px;stroke-dasharray:2,2"/></g><g id="LWPOLYLINE-138" data-name="LWPOLYLINE"><line x1="154.712" y1="262.817" x2="154.712" y2="200.708" style="fill:none;stroke:#231f20;stroke-linecap:round;stroke-linejoin:round;stroke-width:0.25px;stroke-dasharray:2,2"/></g><g id="LWPOLYLINE-139" data-name="LWPOLYLINE"><polyline points="89.204 273.364 48.423 273.364 48.424 226.724" style="fill:none;stroke:#231f20;stroke-linecap:round;stroke-linejoin:round;stroke-width:0.25px;stroke-dasharray:2,2"/></g><g id="LWPOLYLINE-140" data-name="LWPOLYLINE"><polyline points="14.321 223.208 14.321 176.333 89.204 176.333" style="fill:none;stroke:#231f20;stroke-linecap:round;stroke-linejoin:round;stroke-width:0.25px;stroke-dasharray:2,2"/></g><g id="LWPOLYLINE-141" data-name="LWPOLYLINE"><line x1="279.048" y1="386.098" x2="279.048" y2="339.809" style="fill:none;stroke:#231f20;stroke-linecap:round;stroke-linejoin:round;stroke-width:0.25px;stroke-dasharray:2,2"/></g><g id="LWPOLYLINE-142" data-name="LWPOLYLINE"><line x1="341.802" y1="210.448" x2="428.548" y2="210.448" style="fill:none;stroke:#231f20;stroke-linecap:round;stroke-linejoin:round;stroke-width:0.25px;stroke-dasharray:2,2"/></g><line x1="428.856" y1="234.422" x2="428.856" y2="213.005" style="fill:none;stroke:#231f20;stroke-linecap:round;stroke-linejoin:round;stroke-width:0.25px;stroke-dasharray:2,2"/><g id="LINE-22" data-name="LINE"><line x1="161.239" y1="258.871" x2="148.185" y2="258.871" style="fill:none;stroke:#231f20;stroke-miterlimit:10;stroke-width:0.25px"/></g><g id="LINE-23" data-name="LINE"><line x1="161.239" y1="256.452" x2="148.185" y2="256.452" style="fill:none;stroke:#231f20;stroke-miterlimit:10;stroke-width:0.25px"/></g><g id="LINE-24" data-name="LINE"><line x1="161.239" y1="254.032" x2="148.185" y2="254.032" style="fill:none;stroke:#231f20;stroke-miterlimit:10;stroke-width:0.25px"/></g><g id="LINE-25" data-name="LINE"><line x1="161.239" y1="251.613" x2="148.185" y2="251.612" style="fill:none;stroke:#231f20;stroke-miterlimit:10;stroke-width:0.25px"/></g><g id="LINE-26" data-name="LINE"><line x1="161.239" y1="249.194" x2="148.185" y2="249.193" style="fill:none;stroke:#231f20;stroke-miterlimit:10;stroke-width:0.25px"/></g><g id="LINE-27" data-name="LINE"><line x1="148.185" y1="246.775" x2="161.239" y2="246.775" style="fill:none;stroke:#231f20;stroke-miterlimit:10;stroke-width:0.25px"/></g><g id="LINE-28" data-name="LINE"><line x1="20.848" y1="219.262" x2="7.794" y2="219.262" style="fill:none;stroke:#231f20;stroke-miterlimit:10;stroke-width:0.25px"/></g><g id="LINE-29" data-name="LINE"><line x1="20.848" y1="216.842" x2="7.794" y2="216.842" style="fill:none;stroke:#231f20;stroke-miterlimit:10;stroke-width:0.25px"/></g><g id="LINE-30" data-name="LINE"><line x1="20.849" y1="214.423" x2="7.794" y2="214.422" style="fill:none;stroke:#231f20;stroke-miterlimit:10;stroke-width:0.25px"/></g><g id="LINE-31" data-name="LINE"><line x1="20.848" y1="212.004" x2="7.794" y2="212.003" style="fill:none;stroke:#231f20;stroke-miterlimit:10;stroke-width:0.25px"/></g><g id="LINE-32" data-name="LINE"><line x1="20.849" y1="209.584" x2="7.794" y2="209.584" style="fill:none;stroke:#231f20;stroke-miterlimit:10;stroke-width:0.25px"/></g><g id="LINE-33" data-name="LINE"><line x1="7.794" y1="207.165" x2="20.849" y2="207.165" style="fill:none;stroke:#231f20;stroke-miterlimit:10;stroke-width:0.25px"/></g><g id="LINE-34" data-name="LINE"><line x1="41.896" y1="230.671" x2="54.95" y2="230.671" style="fill:none;stroke:#231f20;stroke-miterlimit:10;stroke-width:0.25px"/></g><g id="LINE-35" data-name="LINE"><line x1="41.896" y1="233.091" x2="54.95" y2="233.091" style="fill:none;stroke:#231f20;stroke-miterlimit:10;stroke-width:0.25px"/></g><g id="LINE-36" data-name="LINE"><line x1="41.895" y1="235.51" x2="54.95" y2="235.511" style="fill:none;stroke:#231f20;stroke-miterlimit:10;stroke-width:0.25px"/></g><g id="LINE-37" data-name="LINE"><line x1="41.896" y1="237.929" x2="54.95" y2="237.93" style="fill:none;stroke:#231f20;stroke-miterlimit:10;stroke-width:0.25px"/></g><g id="LINE-38" data-name="LINE"><line x1="41.895" y1="240.349" x2="54.95" y2="240.349" style="fill:none;stroke:#231f20;stroke-miterlimit:10;stroke-width:0.25px"/></g><g id="LINE-39" data-name="LINE"><line x1="54.95" y1="242.768" x2="41.895" y2="242.768" style="fill:none;stroke:#231f20;stroke-miterlimit:10;stroke-width:0.25px"/></g><g id="LINE-40" data-name="LINE"><line x1="85.258" y1="169.806" x2="85.258" y2="182.86" style="fill:none;stroke:#231f20;stroke-miterlimit:10;stroke-width:0.25px"/></g><g id="LINE-41" data-name="LINE"><line x1="82.838" y1="169.805" x2="82.838" y2="182.86" style="fill:none;stroke:#231f20;stroke-miterlimit:10;stroke-width:0.25px"/></g><g id="LINE-42" data-name="LINE"><line x1="80.419" y1="169.805" x2="80.418" y2="182.86" style="fill:none;stroke:#231f20;stroke-miterlimit:10;stroke-width:0.25px"/></g><g id="LINE-43" data-name="LINE"><line x1="78" y1="169.805" x2="77.999" y2="182.86" style="fill:none;stroke:#231f20;stroke-miterlimit:10;stroke-width:0.25px"/></g><g id="LINE-44" data-name="LINE"><line x1="75.581" y1="169.805" x2="75.58" y2="182.86" style="fill:none;stroke:#231f20;stroke-miterlimit:10;stroke-width:0.25px"/></g><g id="LINE-45" data-name="LINE"><line x1="73.161" y1="182.86" x2="73.161" y2="169.805" style="fill:none;stroke:#231f20;stroke-miterlimit:10;stroke-width:0.25px"/></g><g id="LINE-46" data-name="LINE"><line x1="31.046" y1="169.806" x2="31.046" y2="182.86" style="fill:none;stroke:#231f20;stroke-miterlimit:10;stroke-width:0.25px"/></g><g id="LINE-47" data-name="LINE"><line x1="28.627" y1="169.805" x2="28.627" y2="182.86" style="fill:none;stroke:#231f20;stroke-miterlimit:10;stroke-width:0.25px"/></g><g id="LINE-48" data-name="LINE"><line x1="26.208" y1="169.805" x2="26.207" y2="182.86" style="fill:none;stroke:#231f20;stroke-miterlimit:10;stroke-width:0.25px"/></g><g id="LINE-49" data-name="LINE"><line x1="23.788" y1="169.805" x2="23.788" y2="182.86" style="fill:none;stroke:#231f20;stroke-miterlimit:10;stroke-width:0.25px"/></g><g id="LINE-50" data-name="LINE"><line x1="21.369" y1="169.805" x2="21.368" y2="182.86" style="fill:none;stroke:#231f20;stroke-miterlimit:10;stroke-width:0.25px"/></g><g id="LINE-51" data-name="LINE"><line x1="18.95" y1="182.86" x2="18.95" y2="169.805" style="fill:none;stroke:#231f20;stroke-miterlimit:10;stroke-width:0.25px"/></g><g id="LINE-52" data-name="LINE"><line x1="285.575" y1="382.152" x2="272.52" y2="382.152" style="fill:none;stroke:#231f20;stroke-miterlimit:10;stroke-width:0.25px"/></g><g id="LINE-53" data-name="LINE"><line x1="285.575" y1="379.733" x2="272.521" y2="379.733" style="fill:none;stroke:#231f20;stroke-miterlimit:10;stroke-width:0.25px"/></g><g id="LINE-54" data-name="LINE"><line x1="285.575" y1="377.314" x2="272.521" y2="377.313" style="fill:none;stroke:#231f20;stroke-miterlimit:10;stroke-width:0.25px"/></g><g id="LINE-55" data-name="LINE"><line x1="285.575" y1="374.894" x2="272.521" y2="374.894" style="fill:none;stroke:#231f20;stroke-miterlimit:10;stroke-width:0.25px"/></g><g id="LINE-56" data-name="LINE"><line x1="285.575" y1="372.475" x2="272.521" y2="372.474" style="fill:none;stroke:#231f20;stroke-miterlimit:10;stroke-width:0.25px"/></g><g id="LINE-57" data-name="LINE"><line x1="272.521" y1="370.056" x2="285.575" y2="370.056" style="fill:none;stroke:#231f20;stroke-miterlimit:10;stroke-width:0.25px"/></g><g id="LINE-58" data-name="LINE"><line x1="20.848" y1="216.842" x2="7.794" y2="216.842" style="fill:none;stroke:#231f20;stroke-miterlimit:10;stroke-width:0.25px"/></g><g id="LINE-59" data-name="LINE"><line x1="41.896" y1="230.671" x2="54.95" y2="230.671" style="fill:none;stroke:#231f20;stroke-miterlimit:10;stroke-width:0.25px"/></g><g id="LINE-60" data-name="LINE"><line x1="41.896" y1="233.091" x2="54.95" y2="233.091" style="fill:none;stroke:#231f20;stroke-miterlimit:10;stroke-width:0.25px"/></g><g id="LINE-61" data-name="LINE"><line x1="41.895" y1="235.51" x2="54.95" y2="235.511" style="fill:none;stroke:#231f20;stroke-miterlimit:10;stroke-width:0.25px"/></g><g id="LINE-62" data-name="LINE"><line x1="41.896" y1="237.929" x2="54.95" y2="237.93" style="fill:none;stroke:#231f20;stroke-miterlimit:10;stroke-width:0.25px"/></g><g id="LINE-63" data-name="LINE"><line x1="41.895" y1="240.349" x2="54.95" y2="240.349" style="fill:none;stroke:#231f20;stroke-miterlimit:10;stroke-width:0.25px"/></g><g id="LINE-64" data-name="LINE"><line x1="54.95" y1="242.768" x2="41.895" y2="242.768" style="fill:none;stroke:#231f20;stroke-miterlimit:10;stroke-width:0.25px"/></g><g id="LINE-65" data-name="LINE"><line x1="85.258" y1="169.806" x2="85.258" y2="182.86" style="fill:none;stroke:#231f20;stroke-miterlimit:10;stroke-width:0.25px"/></g><g id="LINE-66" data-name="LINE"><line x1="21.369" y1="169.805" x2="21.368" y2="182.86" style="fill:none;stroke:#231f20;stroke-miterlimit:10;stroke-width:0.25px"/></g><g id="LINE-67" data-name="LINE"><line x1="285.575" y1="379.733" x2="272.521" y2="379.733" style="fill:none;stroke:#231f20;stroke-miterlimit:10;stroke-width:0.25px"/></g><g id="ARC-39" data-name="ARC"><path d="M153.2,364.925c-.332,3.007-.957,10.95-.957,10.95" style="fill:#fff;stroke:#231f20;stroke-linecap:round;stroke-linejoin:round;stroke-width:0.25px"/></g><g id="ARC-40" data-name="ARC"><path d="M163.9,371.9a.8.8,0,0,0,.731-.493q.206-.5.377-1a14.117,14.117,0,0,0,.61-2.785q.086-.755.125-1.512a14.813,14.813,0,0,0-.326-3.951,9.6,9.6,0,0,0-2.914-5.042,4.554,4.554,0,0,0-6.2.06,9.614,9.614,0,0,0-2.816,5.1,14.8,14.8,0,0,0-.249,3.957c.036.5.087,1.008.155,1.509a13.967,13.967,0,0,0,.663,2.773q.181.506.4,1a.8.8,0,0,0,.741.478Z" style="fill:#fff;stroke:#231f20;stroke-linecap:round;stroke-linejoin:round;stroke-width:0.25px"/></g><g id="ARC-41" data-name="ARC"><path d="M165.753,364.8c.391,3,.965,11.072.965,11.072" style="fill:#fff;stroke:#231f20;stroke-linecap:round;stroke-linejoin:round;stroke-width:0.25px"/></g><g id="ARC-42" data-name="ARC"><path d="M152.25,375.737a1.044,1.044,0,0,1,.918-.987,53.177,53.177,0,0,1,12.625,0,1.044,1.044,0,0,1,.918.987v-.022q.078,1.625.118,3.251a1.394,1.394,0,0,1-1.272,1.416q-3.032.262-6.075.26t-6.075-.26a1.394,1.394,0,0,1-1.273-1.416q.04-1.626.118-3.251Z" style="fill:#fff;stroke:#231f20;stroke-linecap:round;stroke-linejoin:round;stroke-width:0.25px"/></g><g id="LWPOLYLINE-143" data-name="LWPOLYLINE"><path d="M123.289,374.5h7.893a.877.877,0,0,0,.877-.877V363.1a.877.877,0,0,0-.877-.877H114.519a.877.877,0,0,0-.877.877v10.525a.877.877,0,0,0,.877.877h8.77Z" style="fill:#fff;stroke:#231f20;stroke-linecap:round;stroke-linejoin:round;stroke-width:0.25px"/></g><g id="ARC-43" data-name="ARC"><path d="M122.408,376.688a1.106,1.106,0,1,0,.885,0Z" style="fill:#fff;stroke:#231f20;stroke-linecap:round;stroke-linejoin:round;stroke-width:0.25px"/></g><g id="ARC-44" data-name="ARC"><path d="M117.345,377.922a1.105,1.105,0,1,0,0-.442Z" style="fill:#fff;stroke:#231f20;stroke-linecap:round;stroke-linejoin:round;stroke-width:0.25px"/></g><g id="ARC-45" data-name="ARC"><path d="M128.356,377.922a1.105,1.105,0,1,1,0-.442Z" style="fill:#fff;stroke:#231f20;stroke-linecap:round;stroke-linejoin:round;stroke-width:0.25px"/></g><g id="LINE-68" data-name="LINE"><path d="M122.408,372.4V377.7a.443.443,0,1,0,.885,0V372.4a.443.443,0,0,0-.885,0Z" style="fill:#fff;stroke:#231f20;stroke-linecap:round;stroke-linejoin:round;stroke-width:0.25px"/></g><line x1="118.439" y1="377.701" x2="115.333" y2="377.701" style="fill:#fff;stroke:#231f20;stroke-linecap:round;stroke-linejoin:round;stroke-width:0.25px"/><line x1="130.368" y1="377.701" x2="127.262" y2="377.701" style="fill:#fff;stroke:#231f20;stroke-linecap:round;stroke-linejoin:round;stroke-width:0.25px"/><g id="LWPOLYLINE-144" data-name="LWPOLYLINE"><path d="M96.993,374.5h7.893a.877.877,0,0,0,.877-.877V363.1a.877.877,0,0,0-.877-.877H88.222a.877.877,0,0,0-.877.877v10.525a.877.877,0,0,0,.877.877h8.771Z" style="fill:#fff;stroke:#231f20;stroke-linecap:round;stroke-linejoin:round;stroke-width:0.25px"/></g><g id="LWPOLYLINE-145" data-name="LWPOLYLINE"><rect x="80.548" y="359.593" width="63.146" height="21.049" style="fill:none;stroke:#231f20;stroke-linecap:round;stroke-linejoin:round;stroke-width:0.25px"/></g><g id="ARC-46" data-name="ARC"><path d="M95.892,376.688a1.106,1.106,0,1,0,.885,0Z" style="fill:#fff;stroke:#231f20;stroke-linecap:round;stroke-linejoin:round;stroke-width:0.25px"/></g><g id="ARC-47" data-name="ARC"><path d="M90.829,377.922a1.105,1.105,0,1,0,0-.442Z" style="fill:#fff;stroke:#231f20;stroke-linecap:round;stroke-linejoin:round;stroke-width:0.25px"/></g><g id="ARC-48" data-name="ARC"><path d="M101.84,377.922a1.105,1.105,0,1,1,0-.442Z" style="fill:#fff;stroke:#231f20;stroke-linecap:round;stroke-linejoin:round;stroke-width:0.25px"/></g><g id="LINE-69" data-name="LINE"><path d="M95.892,372.4V377.7a.443.443,0,1,0,.885,0V372.4a.443.443,0,0,0-.885,0Z" style="fill:#fff;stroke:#231f20;stroke-linecap:round;stroke-linejoin:round;stroke-width:0.25px"/></g><line x1="91.924" y1="377.701" x2="88.817" y2="377.701" style="fill:#fff;stroke:#231f20;stroke-linecap:round;stroke-linejoin:round;stroke-width:0.25px"/><line x1="103.853" y1="377.701" x2="100.746" y2="377.701" style="fill:#fff;stroke:#231f20;stroke-linecap:round;stroke-linejoin:round;stroke-width:0.25px"/><g id="ARC-49" data-name="ARC"><path d="M269.492,247.119c3.143.347,11.445,1,11.445,1" style="fill:#fff;stroke:#231f20;stroke-linecap:round;stroke-linejoin:round;stroke-width:0.25px"/></g><g id="ARC-50" data-name="ARC"><path d="M276.778,235.936a.835.835,0,0,0-.515-.764q-.517-.215-1.048-.394a14.717,14.717,0,0,0-2.911-.637q-.789-.09-1.581-.131a15.482,15.482,0,0,0-4.129.34,10.05,10.05,0,0,0-5.27,3.046,4.76,4.76,0,0,0,.063,6.483,10.051,10.051,0,0,0,5.328,2.943,15.5,15.5,0,0,0,4.135.26q.79-.057,1.577-.162a14.66,14.66,0,0,0,2.9-.693q.526-.189,1.04-.414a.837.837,0,0,0,.5-.774Z" style="fill:#fff;stroke:#231f20;stroke-linecap:round;stroke-linejoin:round;stroke-width:0.25px"/></g><g id="ARC-51" data-name="ARC"><path d="M269.365,234c3.136-.408,11.572-1.008,11.572-1.008" style="fill:#fff;stroke:#231f20;stroke-linecap:round;stroke-linejoin:round;stroke-width:0.25px"/></g><g id="ARC-52" data-name="ARC"><path d="M280.793,248.112a1.092,1.092,0,0,1-1.032-.959,55.715,55.715,0,0,1,0-13.195,1.092,1.092,0,0,1,1.032-.96h-.023q1.7-.081,3.4-.123a1.455,1.455,0,0,1,1.479,1.33q.274,3.167.272,6.349t-.272,6.349a1.455,1.455,0,0,1-1.479,1.33q-1.7-.041-3.4-.123Z" style="fill:#fff;stroke:#231f20;stroke-linecap:round;stroke-linejoin:round;stroke-width:0.25px"/></g><g id="LWPOLYLINE-146" data-name="LWPOLYLINE"><rect x="266.21" y="198.397" width="19.708" height="25.666" style="fill:#fff;stroke:#231f20;stroke-linecap:round;stroke-linejoin:round;stroke-width:0.25px"/></g><g id="LWPOLYLINE-147" data-name="LWPOLYLINE"><path d="M270.06,203.439a1.1,1.1,0,0,0-1.1,1.1v13.383a1.1,1.1,0,0,0,1.1,1.1h9.9a.916.916,0,0,0,.917-.916v-13.75a.916.916,0,0,0-.917-.916Z" style="fill:#fff;stroke:#231f20;stroke-linecap:round;stroke-linejoin:round;stroke-width:0.25px"/></g><g id="ARC-53" data-name="ARC"><path d="M282.421,211.692a1.155,1.155,0,1,0,0-.924Z" style="fill:#fff;stroke:#231f20;stroke-linecap:round;stroke-linejoin:round;stroke-width:0.25px"/></g><g id="ARC-54" data-name="ARC"><path d="M283.711,216.984a1.156,1.156,0,1,0-.462,0Z" style="fill:#fff;stroke:#231f20;stroke-linecap:round;stroke-linejoin:round;stroke-width:0.25px"/></g><g id="ARC-55" data-name="ARC"><path d="M283.711,205.476a1.156,1.156,0,1,1-.462,0Z" style="fill:#fff;stroke:#231f20;stroke-linecap:round;stroke-linejoin:round;stroke-width:0.25px"/></g><g id="LINE-70" data-name="LINE"><path d="M277.933,211.692h5.547a.462.462,0,0,0,0-.924h-5.547a.462.462,0,1,0,0,.924Z" style="fill:#fff;stroke:#231f20;stroke-linecap:round;stroke-linejoin:round;stroke-width:0.25px"/></g><line x1="283.48" y1="215.84" x2="283.48" y2="219.087" style="fill:#fff;stroke:#231f20;stroke-linecap:round;stroke-linejoin:round;stroke-width:0.25px"/><line x1="283.48" y1="203.373" x2="283.48" y2="206.62" style="fill:#fff;stroke:#231f20;stroke-linecap:round;stroke-linejoin:round;stroke-width:0.25px"/><g id="LWPOLYLINE-148" data-name="LWPOLYLINE"><polygon points="346.196 391.841 353.52 391.841 353.52 306.997 434.907 306.997 447.798 306.997 460.044 306.997 460.044 0.816 459.093 2.244 457.417 4.039 455.47 5.537 453.305 6.696 450.98 7.487 448.557 7.888 446.101 7.888 443.678 7.487 441.353 6.696 439.188 5.537 437.241 4.039 435.565 2.244 434.204 0.2 430.454 0.2 430.454 48.833 451.079 48.833 451.079 160.161 428.696 160.161 428.696 212.544 452.602 212.544 452.602 299.731 343.618 299.731 343.618 307.583 335.884 307.583 335.884 311.098 350.649 311.098 350.649 383.286 332.251 383.286 332.251 389.028 346.196 389.028 346.196 391.841" style="fill:#dee2e1;stroke:#231f20;stroke-miterlimit:10;stroke-width:0.400000005960465px"/></g><g id="LWPOLYLINE-149" data-name="LWPOLYLINE"><polygon points="294.765 391.841 295.571 391.841 295.571 389.028 298.501 389.028 298.501 383.286 293.813 383.281 293.813 370.63 290.298 370.63 290.298 386.098 267.798 386.098 267.798 339.809 290.298 339.809 290.298 342.505 293.813 342.505 293.813 311.098 302.134 311.098 302.134 307.583 295.571 307.583 295.571 303.833 292.055 303.833 292.055 307.583 260.532 307.583 260.532 311.098 264.282 311.098 264.282 344.848 223.032 344.848 223.032 311.098 226.782 311.098 226.782 307.583 143.462 307.583 143.462 303.833 137.72 303.833 137.72 307.583 132.095 307.583 132.095 311.098 213.423 311.098 213.423 380.473 177.798 380.473 177.798 346.723 174.282 346.723 174.282 380.473 37.173 380.473 37.173 311.098 98.345 311.098 98.345 307.583 92.72 307.583 92.72 264.223 89.204 264.223 89.204 284.614 37.173 284.614 37.173 226.723 89.204 226.723 89.204 230.473 92.72 230.473 92.72 219.458 89.204 219.458 89.204 223.208 3.071 223.208 3.071 165.083 89.204 165.083 89.204 185.708 92.72 185.708 92.72 165.083 98.345 165.083 98.345 161.567 3.071 161.567 3.071 35.825 25.454 35.825 25.454 0.903 21.704 0.903 20.343 2.948 18.667 4.742 16.72 6.24 14.481 7.425 12.23 8.19 9.807 8.591 7.351 8.591 4.928 8.19 2.603 7.399 0.2 6.057 0.2 229.72 29.791 229.72 29.791 389.028 213.423 389.028 213.423 391.841 293.52 391.841 294.765 391.841" style="fill:#dee2e1;stroke:#231f20;stroke-miterlimit:10;stroke-width:0.400000005960465px"/></g><g id="LWPOLYLINE-150" data-name="LWPOLYLINE"><polygon points="292.055 270.083 295.571 270.083 295.571 160.161 287.72 160.161 287.72 48.833 317.954 48.833 317.954 0.2 314.204 0.2 312.843 2.244 311.167 4.039 309.22 5.537 307.055 6.696 304.73 7.487 302.307 7.888 299.851 7.888 297.428 7.487 295.103 6.696 292.938 5.537 290.991 4.039 289.315 2.244 287.954 0.2 284.204 0.2 284.204 160.161 209.204 160.161 209.204 163.677 213.071 163.677 213.071 262.817 209.321 262.817 209.321 266.333 220.337 266.333 220.337 259.536 216.587 259.536 216.587 163.677 274.712 163.677 274.712 196.958 285.962 196.958 285.962 259.536 254.087 259.536 254.087 266.333 292.055 266.333 292.055 270.083" style="fill:#dee2e1;stroke:#231f20;stroke-miterlimit:10;stroke-width:0.400000005960465px"/></g><g id="LWPOLYLINE-151" data-name="LWPOLYLINE"><polygon points="137.72 270.083 143.462 270.083 143.462 266.333 175.571 266.333 175.571 262.817 171.821 262.817 171.821 253.852 168.305 253.852 168.305 262.817 143.462 262.817 143.462 199.888 168.305 199.888 168.305 208.852 171.821 208.852 171.821 163.677 175.454 163.677 175.454 160.161 160.454 160.161 160.454 35.825 171.704 35.825 171.704 0.903 167.954 0.903 166.593 2.948 164.917 4.742 162.97 6.24 160.805 7.399 158.48 8.19 156.057 8.591 153.601 8.591 151.178 8.19 148.853 7.399 146.688 6.24 144.741 4.742 143.065 2.948 141.704 0.903 137.954 0.903 137.954 35.825 154.712 35.825 154.712 161.567 132.095 161.567 132.095 165.083 137.72 165.083 137.72 259.279 137.72 270.083" style="fill:#dee2e1;stroke:#231f20;stroke-miterlimit:10;stroke-width:0.400000005960465px"/></g><g id="LINE-71" data-name="LINE"><path d="M54.985,380.329v-9.4a.313.313,0,1,0-.625,0v0a.313.313,0,1,1,.625,0" style="fill:#dee2e1;stroke:#231f20;stroke-linecap:round;stroke-linejoin:round;stroke-width:0.25px"/></g><path d="M189.8,130.716h2.151a1.457,1.457,0,0,1,1.631,1.447,1.2,1.2,0,0,1-.656,1.152v.016a1.34,1.34,0,0,1,.863,1.327c0,1.08-.679,1.655-1.966,1.655H189.8Zm2.03,2.375c.729,0,1.088-.3,1.088-.9,0-.56-.368-.856-1.088-.856h-1.375v1.751Zm-.095,2.6c.975,0,1.391-.312,1.391-1.032,0-.695-.391-.983-1.375-.983h-1.3v2.015Z" style="fill:#231f20"/><path d="M195.426,130.716h3.359v.624h-2.7v1.791h2.479v.592h-2.479v1.967h2.7v.623h-3.359Z" style="fill:#231f20"/><path d="M200.377,130.716h1.744c1.415,0,2.414,1.024,2.414,2.791,0,1.975-1,2.806-2.462,2.806h-1.7Zm1.656,4.974c1.134,0,1.839-.6,1.839-2.183,0-1.431-.705-2.167-1.791-2.167h-1.048v4.35Z" style="fill:#231f20"/><path d="M208.667,134.011l1.232,2.3h-.776l-1.183-2.271h-1.119v2.271h-.656v-5.6H208.2c1.168,0,1.863.624,1.863,1.656a1.546,1.546,0,0,1-1.4,1.623Zm-.519-.592c.823,0,1.255-.36,1.255-1.047s-.424-1.032-1.255-1.032h-1.327v2.079Z" style="fill:#231f20"/><path d="M211.331,133.515c0-1.751.943-2.918,2.358-2.918s2.358,1.167,2.358,2.918-.943,2.919-2.358,2.919S211.331,135.266,211.331,133.515Zm4.053,0c0-1.415-.647-2.295-1.695-2.295s-1.695.88-1.695,2.295.647,2.294,1.695,2.294S215.384,134.93,215.384,133.515Z" style="fill:#231f20"/><path d="M217.391,133.515c0-1.751.943-2.918,2.358-2.918s2.359,1.167,2.359,2.918-.943,2.919-2.359,2.919S217.391,135.266,217.391,133.515Zm4.054,0c0-1.415-.648-2.295-1.7-2.295s-1.695.88-1.695,2.295.648,2.294,1.695,2.294S221.445,134.93,221.445,133.515Z" style="fill:#231f20"/><path d="M223.739,130.716h.879l1.815,4.446h.016l1.815-4.446h.88v5.6h-.664v-4.541h-.016l-1.887,4.541h-.28l-1.886-4.541h-.017v4.541h-.655Z" style="fill:#231f20"/><path d="M234.178,135.69h3.014v.623h-3.718v-.527a2.02,2.02,0,0,1,.232-1.064c.2-.368.543-.64,1.423-1.095,1.16-.6,1.5-.936,1.5-1.5,0-.536-.487-.912-1.167-.912a1.3,1.3,0,0,0-1.4,1.36l-.664-.057a1.926,1.926,0,0,1,2.063-1.926,1.68,1.68,0,0,1,1.832,1.535c0,.823-.416,1.311-1.648,1.935-.935.471-1.191.655-1.335.935A1.559,1.559,0,0,0,234.178,135.69Z" style="fill:#231f20"/><path d="M189.063,139.968l-1.247.808v-.7l1.327-.864h.584v5.6h-.664Z" style="fill:#231f20"/><path d="M192.5,139.968l-1.247.808v-.7l1.328-.864h.584v5.6H192.5Z" style="fill:#231f20"/><path d="M195.125,139.216h.583V141h-.583Z" style="fill:#231f20"/><path d="M196.845,141.623h2.087v.6h-2.087Z" style="fill:#231f20"/><path d="M200.378,142.015c0-1.815.9-2.918,2.215-2.918s2.215,1.1,2.215,2.918-.9,2.919-2.215,2.919C201.3,144.934,200.378,143.83,200.378,142.015Zm3.766,0c0-1.463-.615-2.295-1.551-2.295s-1.552.832-1.552,2.295.617,2.294,1.552,2.294S204.144,143.478,204.144,142.015Z" style="fill:#231f20"/><path d="M206.33,139.216h.584V141h-.584Zm1.055,0h.584V141h-.584Z" style="fill:#231f20"/><path d="M211.665,143.374l1.312-1.295-1.312-1.3.392-.392,1.288,1.311,1.295-1.311.392.392-1.312,1.3,1.312,1.295-.392.392-1.295-1.311-1.288,1.311Z" style="fill:#231f20"/><path d="M219.209,139.968l-1.248.808v-.7l1.328-.864h.584v5.6h-.664Z" style="fill:#231f20"/><path d="M222.334,144.19h3.015v.623h-3.718v-.527a2.02,2.02,0,0,1,.232-1.064c.2-.368.544-.64,1.423-1.095,1.16-.6,1.5-.936,1.5-1.5,0-.536-.488-.912-1.167-.912a1.3,1.3,0,0,0-1.4,1.36l-.663-.057a1.927,1.927,0,0,1,2.063-1.926,1.68,1.68,0,0,1,1.831,1.535c0,.823-.416,1.311-1.648,1.935-.935.471-1.191.655-1.335.935A1.559,1.559,0,0,0,222.334,144.19Z" style="fill:#231f20"/><path d="M227.171,139.216h.584V141h-.584Z" style="fill:#231f20"/><path d="M229.169,141.623h2.087v.6h-2.087Z" style="fill:#231f20"/><path d="M234.566,139.856v-.016h-2.91v-.624h3.662v.576l-2.271,5.021H232.3Z" style="fill:#231f20"/><path d="M236.941,139.216h.584V141h-.584Zm1.056,0h.584V141H238Z" style="fill:#231f20"/><path d="M40.434,86.888h.88l1.815,4.446h.016l1.814-4.446h.88v5.6h-.663V87.944H45.16l-1.887,4.541h-.28l-1.887-4.541H41.09v4.541h-.656Z" style="fill:#231f20"/><path d="M50.778,91.358H48.259l-.391,1.127h-.68l2.015-5.6h.639l2.007,5.6h-.68Zm-.2-.576-1.047-2.99h-.017l-1.047,2.99Z" style="fill:#231f20"/><path d="M52.737,90.63l.655-.112a1.464,1.464,0,0,0,1.655,1.463c.776,0,1.287-.359,1.287-.9,0-.568-.376-.879-1.543-1.248-1.335-.439-1.783-.831-1.783-1.583,0-.871.736-1.479,1.791-1.479A1.957,1.957,0,0,1,56.831,88.4l-.648.137a1.343,1.343,0,0,0-1.392-1.144c-.679,0-1.126.336-1.126.855,0,.432.319.664,1.342.984,1.455.472,1.984.959,1.984,1.839,0,.911-.792,1.535-1.951,1.535A2.053,2.053,0,0,1,52.737,90.63Z" style="fill:#231f20"/><path d="M59.776,87.512H58.033v-.624h4.149v.624H60.439v4.973h-.663Z" style="fill:#231f20"/><path d="M63.654,86.888h3.358v.624h-2.7V89.3h2.479V89.9H64.31v1.967h2.7v.623H63.654Z" style="fill:#231f20"/><path d="M71.108,90.183l1.231,2.3h-.775L70.38,90.214H69.261v2.271h-.656v-5.6h2.039c1.168,0,1.863.624,1.863,1.655a1.544,1.544,0,0,1-1.4,1.623Zm-.52-.592c.824,0,1.255-.36,1.255-1.048s-.424-1.031-1.255-1.031H69.261v2.079Z" style="fill:#231f20"/><path d="M36.6,95.388h2.15a1.458,1.458,0,0,1,1.632,1.447,1.2,1.2,0,0,1-.656,1.152V98a1.34,1.34,0,0,1,.863,1.327c0,1.08-.679,1.655-1.966,1.655H36.6Zm2.03,2.375c.729,0,1.088-.3,1.088-.9,0-.56-.368-.856-1.088-.856H37.255v1.751Zm-.1,2.6c.975,0,1.391-.312,1.391-1.032,0-.695-.391-.983-1.375-.983h-1.3v2.015Z" style="fill:#231f20"/><path d="M42.224,95.388h3.358v.624h-2.7V97.8h2.479V98.4H42.879v1.967h2.7v.623H42.224Z" style="fill:#231f20"/><path d="M47.175,95.388h1.743c1.415,0,2.414,1.024,2.414,2.791,0,1.975-1,2.806-2.461,2.806h-1.7Zm1.656,4.974c1.134,0,1.838-.6,1.838-2.183,0-1.432-.7-2.167-1.791-2.167H47.831v4.35Z" style="fill:#231f20"/><path d="M55.465,98.683l1.232,2.3h-.776l-1.183-2.271H53.619v2.271h-.657v-5.6H55c1.168,0,1.864.624,1.864,1.655a1.544,1.544,0,0,1-1.4,1.623Zm-.519-.592c.823,0,1.255-.36,1.255-1.048s-.424-1.031-1.255-1.031H53.619v2.079Z" style="fill:#231f20"/><path d="M58.128,98.187c0-1.751.944-2.919,2.359-2.919s2.358,1.168,2.358,2.919-.943,2.918-2.358,2.918S58.128,99.938,58.128,98.187Zm4.054,0c0-1.416-.647-2.3-1.7-2.3s-1.7.879-1.7,2.3.648,2.294,1.7,2.294S62.182,99.6,62.182,98.187Z" style="fill:#231f20"/><path d="M64.189,98.187c0-1.751.943-2.919,2.358-2.919s2.359,1.168,2.359,2.919-.944,2.918-2.359,2.918S64.189,99.938,64.189,98.187Zm4.054,0c0-1.416-.648-2.3-1.7-2.3s-1.695.879-1.695,2.3.647,2.294,1.695,2.294S68.243,99.6,68.243,98.187Z" style="fill:#231f20"/><path d="M70.537,95.388h.878l1.816,4.446h.016l1.815-4.446h.88v5.6h-.664V96.444h-.016l-1.888,4.541H73.1l-1.887-4.541h-.016v4.541h-.655Z" style="fill:#231f20"/><path d="M30.761,104.64l-1.247.808v-.7l1.327-.864h.584v5.6h-.664Z" style="fill:#231f20"/><path d="M33.015,107.622l.656-.1c.112.984.583,1.463,1.408,1.463a1.072,1.072,0,0,0,1.2-1.079c0-.759-.432-1.119-1.32-1.119h-.4v-.576h.4c.664,0,1.175-.4,1.175-.9,0-.576-.4-.928-1.062-.928a1.184,1.184,0,0,0-1.264,1.056l-.647-.1a1.8,1.8,0,0,1,1.911-1.567,1.539,1.539,0,0,1,1.726,1.488,1.348,1.348,0,0,1-.759,1.175v.016a1.489,1.489,0,0,1,.9,1.455,1.689,1.689,0,0,1-1.854,1.7A1.974,1.974,0,0,1,33.015,107.622Z" style="fill:#231f20"/><path d="M38.591,103.888h.583v1.783h-.583Z" style="fill:#231f20"/><path d="M40.311,106.3H42.4v.6H40.311Z" style="fill:#231f20"/><path d="M43.67,108.006l.648-.16a1.413,1.413,0,1,0,1.431-1.583,1.805,1.805,0,0,0-1.351.592l-.583-.144.535-2.823h2.935v.624H44.854l-.3,1.551.016.008a2.088,2.088,0,0,1,1.287-.384,1.878,1.878,0,0,1,1.943,1.927,1.929,1.929,0,0,1-2.047,1.991A1.956,1.956,0,0,1,43.67,108.006Z" style="fill:#231f20"/><path d="M49.05,103.888h.583v1.783H49.05Zm1.056,0h.583v1.783h-.583Z" style="fill:#231f20"/><path d="M54.386,108.046l1.312-1.3-1.312-1.3.392-.391,1.288,1.311,1.295-1.311.391.391-1.311,1.3,1.311,1.3-.391.392-1.295-1.312-1.288,1.312Z" style="fill:#231f20"/><path d="M61.93,104.64l-1.248.808v-.7l1.327-.864h.584v5.6H61.93Z" style="fill:#231f20"/><path d="M65.055,108.862H68.07v.623H64.352v-.528a2.019,2.019,0,0,1,.231-1.063c.2-.368.544-.64,1.423-1.095,1.16-.6,1.5-.936,1.5-1.5,0-.536-.487-.912-1.167-.912a1.3,1.3,0,0,0-1.4,1.359l-.663-.056a1.926,1.926,0,0,1,2.062-1.927,1.68,1.68,0,0,1,1.831,1.536c0,.823-.416,1.311-1.647,1.935-.936.471-1.191.655-1.335.935A1.559,1.559,0,0,0,65.055,108.862Z" style="fill:#231f20"/><path d="M69.892,103.888h.584v1.783h-.584Z" style="fill:#231f20"/><path d="M71.89,106.3h2.087v.6H71.89Z" style="fill:#231f20"/><path d="M79.35,106.351c0,2.271-.607,3.254-2.039,3.254a1.775,1.775,0,0,1-1.8-1.423l.608-.16a1.174,1.174,0,0,0,1.191.975c.888,0,1.3-.567,1.359-2.046h-.007a1.716,1.716,0,0,1-1.44.631,1.794,1.794,0,0,1-1.951-1.919,1.877,1.877,0,0,1,1.983-1.895C78.518,103.768,79.35,104.632,79.35,106.351Zm-.768-.647a1.251,1.251,0,0,0-1.327-1.328,1.311,1.311,0,1,0,1.327,1.328Z" style="fill:#231f20"/><path d="M80.934,103.888h.583v1.783h-.583Zm1.056,0h.583v1.783H81.99Z" style="fill:#231f20"/><path d="M343.74,95h.656v4.974h2.526v.623H343.74Z" style="fill:#231f20"/><path d="M348.394,95h.655v5.6h-.655Z" style="fill:#231f20"/><path d="M350.384,95h.7l1.663,4.718h.016L354.43,95h.688l-2.015,5.6h-.7Z" style="fill:#231f20"/><path d="M356.465,95h.657v5.6h-.657Z" style="fill:#231f20"/><path d="M359.033,95h.775l2.543,4.566h.016V95h.664v5.6h-.784l-2.542-4.565h-.017v4.565h-.655Z" style="fill:#231f20"/><path d="M364.661,97.8c0-1.776.927-2.919,2.358-2.919a2.076,2.076,0,0,1,2.127,1.848l-.655.119a1.43,1.43,0,0,0-1.472-1.343c-1.047,0-1.694.879-1.694,2.3s.647,2.294,1.694,2.294a1.427,1.427,0,0,0,1.5-1.639h-1.424v-.623h2.072V98.4a2.087,2.087,0,0,1-2.144,2.319C365.588,100.714,364.661,99.571,364.661,97.8Z" style="fill:#231f20"/><path d="M372.773,100.714l2.854-6.036.449.2-2.863,6.021Z" style="fill:#231f20"/><path d="M380.012,95h1.743c1.415,0,2.415,1.023,2.415,2.791,0,1.975-1,2.806-2.463,2.806h-1.695Zm1.655,4.974c1.136,0,1.839-.6,1.839-2.183,0-1.432-.7-2.167-1.791-2.167h-1.047v4.35Z" style="fill:#231f20"/><path d="M385.81,95h.655v5.6h-.655Z" style="fill:#231f20"/><path d="M388.377,95h.776l2.543,4.566h.015V95h.664v5.6h-.784l-2.542-4.565h-.016v4.565h-.656Z" style="fill:#231f20"/><path d="M394.3,95h.657v5.6H394.3Z" style="fill:#231f20"/><path d="M396.867,95h.775l2.543,4.566h.016V95h.664v5.6h-.784l-2.542-4.565h-.017v4.565h-.655Z" style="fill:#231f20"/><path d="M402.5,97.8c0-1.776.927-2.919,2.358-2.919a2.076,2.076,0,0,1,2.127,1.848l-.655.119a1.43,1.43,0,0,0-1.472-1.343c-1.047,0-1.694.879-1.694,2.3s.647,2.294,1.694,2.294a1.427,1.427,0,0,0,1.5-1.639h-1.424v-.623H407V98.4a2.087,2.087,0,0,1-2.144,2.319C403.422,100.714,402.5,99.571,402.5,97.8Z" style="fill:#231f20"/><path d="M413.669,98.291l1.232,2.3h-.776l-1.183-2.271h-1.119v2.271h-.657V95h2.04c1.167,0,1.863.624,1.863,1.655a1.544,1.544,0,0,1-1.4,1.623Zm-.519-.591c.823,0,1.255-.36,1.255-1.048s-.424-1.031-1.255-1.031h-1.327V97.7Z" style="fill:#231f20"/><path d="M416.331,97.8c0-1.751.944-2.919,2.359-2.919s2.359,1.168,2.359,2.919-.943,2.918-2.359,2.918S416.331,99.547,416.331,97.8Zm4.054,0c0-1.416-.647-2.3-1.695-2.3S417,96.38,417,97.8s.647,2.294,1.694,2.294S420.385,99.211,420.385,97.8Z" style="fill:#231f20"/><path d="M422.392,97.8c0-1.751.943-2.919,2.358-2.919s2.36,1.168,2.36,2.919-.944,2.918-2.36,2.918S422.392,99.547,422.392,97.8Zm4.054,0c0-1.416-.648-2.3-1.7-2.3s-1.694.879-1.694,2.3.648,2.294,1.694,2.294S426.446,99.211,426.446,97.8Z" style="fill:#231f20"/><path d="M428.74,95h.88l1.815,4.446h.016L433.265,95h.88v5.6h-.663V96.053h-.017l-1.886,4.541H431.3l-1.886-4.541H429.4v4.541h-.656Z" style="fill:#231f20"/><path d="M363.252,104.249l-1.248.808v-.7l1.327-.864h.584v5.6h-.663Z" style="fill:#231f20"/><path d="M368.134,107.951h-2.8v-.576L367.8,103.5h1v3.87h.711v.584H368.8v1.143h-.664Zm0-.584v-3.35h-.015l-2.127,3.35Z" style="fill:#231f20"/><path d="M370.865,103.5h.584v1.783h-.584Z" style="fill:#231f20"/><path d="M372.585,105.9h2.087v.6h-2.087Z" style="fill:#231f20"/><path d="M380.4,107.287a1.883,1.883,0,0,1-1.982,1.927c-1.463,0-2.3-1.095-2.3-2.83,0-1.76.983-3.007,2.319-3.007a1.81,1.81,0,0,1,1.87,1.5l-.623.152a1.186,1.186,0,0,0-1.231-1.039c-.92,0-1.6.871-1.656,2.223h.016a1.883,1.883,0,0,1,1.672-.84A1.864,1.864,0,0,1,380.4,107.287Zm-.647,0a1.276,1.276,0,0,0-1.343-1.343A1.323,1.323,0,0,0,377,107.287a1.307,1.307,0,0,0,1.415,1.319A1.275,1.275,0,0,0,379.748,107.287Z" style="fill:#231f20"/><path d="M381.925,103.5h.583v1.783h-.583Zm1.056,0h.583v1.783h-.583Z" style="fill:#231f20"/><path d="M387.261,107.655l1.311-1.3-1.311-1.3.392-.391,1.287,1.311,1.3-1.311.392.391-1.311,1.3,1.311,1.3-.392.392-1.3-1.312-1.287,1.312Z" style="fill:#231f20"/><path d="M394.8,104.249l-1.247.808v-.7l1.327-.864h.584v5.6H394.8Z" style="fill:#231f20"/><path d="M401.394,107.287a1.883,1.883,0,0,1-1.982,1.927c-1.463,0-2.295-1.095-2.295-2.83,0-1.76.983-3.007,2.319-3.007a1.81,1.81,0,0,1,1.87,1.5l-.623.152a1.186,1.186,0,0,0-1.231-1.039c-.92,0-1.6.871-1.656,2.223h.016a1.883,1.883,0,0,1,1.672-.84A1.864,1.864,0,0,1,401.394,107.287Zm-.647,0a1.276,1.276,0,0,0-1.343-1.343A1.323,1.323,0,0,0,398,107.287a1.307,1.307,0,0,0,1.415,1.319A1.275,1.275,0,0,0,400.747,107.287Z" style="fill:#231f20"/><path d="M402.92,103.5h.584v1.783h-.584Z" style="fill:#231f20"/><path d="M404.918,105.9h2.087v.6h-2.087Z" style="fill:#231f20"/><path d="M408.224,107.231l.656-.1c.112.984.583,1.463,1.408,1.463a1.072,1.072,0,0,0,1.2-1.079c0-.76-.432-1.119-1.32-1.119h-.4v-.576h.4c.664,0,1.175-.4,1.175-.9,0-.576-.4-.928-1.062-.928a1.184,1.184,0,0,0-1.264,1.055l-.647-.1a1.8,1.8,0,0,1,1.911-1.567,1.539,1.539,0,0,1,1.726,1.488,1.348,1.348,0,0,1-.759,1.175v.016a1.489,1.489,0,0,1,.895,1.455,1.689,1.689,0,0,1-1.854,1.7A1.974,1.974,0,0,1,408.224,107.231Z" style="fill:#231f20"/><path d="M413.788,103.5h.583v1.783h-.583Zm1.055,0h.583v1.783h-.583Z" style="fill:#231f20"/><path d="M305.115,334.213h3.366v.624h-2.71v2h2.486v.591h-2.486v2.382h-.656Z" style="fill:#231f20"/><path d="M310.036,337.012c0-1.751.943-2.919,2.359-2.919s2.358,1.168,2.358,2.919-.943,2.918-2.358,2.918S310.036,338.763,310.036,337.012Zm4.053,0c0-1.416-.647-2.3-1.694-2.3s-1.695.879-1.695,2.3.647,2.294,1.695,2.294S314.089,338.427,314.089,337.012Z" style="fill:#231f20"/><path d="M317.743,337.476l-1.959-3.263h.767l1.512,2.614h.016l1.519-2.614h.768l-1.959,3.263v2.333h-.664Z" style="fill:#231f20"/><path d="M322.011,334.213h3.359v.624h-2.7v1.791h2.479v.592h-2.479v1.966h2.7v.623h-3.359Z" style="fill:#231f20"/><path d="M329.786,337.507l1.231,2.3h-.775l-1.184-2.27h-1.119v2.27h-.656v-5.6h2.039c1.168,0,1.863.624,1.863,1.655a1.544,1.544,0,0,1-1.4,1.623Zm-.52-.592c.823,0,1.255-.359,1.255-1.047s-.424-1.031-1.255-1.031h-1.327v2.078Z" style="fill:#231f20"/><path d="M235.292,326.861h.68l.823,4.55h.017l1.383-4.55h.624l1.39,4.55h.017l.823-4.55h.68l-1.039,5.6h-.8l-1.375-4.494H238.5l-1.367,4.494h-.807Z" style="fill:#231f20"/><path d="M242.666,332.579l2.855-6.037.448.2-2.862,6.021Z" style="fill:#231f20"/><path d="M247.661,326.861H249.4c1.415,0,2.415,1.024,2.415,2.791,0,1.975-1,2.807-2.463,2.807h-1.695Zm1.655,4.974c1.136,0,1.839-.6,1.839-2.183,0-1.431-.7-2.167-1.791-2.167h-1.047v4.35Z" style="fill:#231f20"/><path d="M433.487,220.679l.655-.112a1.464,1.464,0,0,0,1.655,1.463c.776,0,1.287-.36,1.287-.9,0-.568-.376-.88-1.543-1.248-1.335-.439-1.783-.831-1.783-1.583,0-.871.736-1.479,1.791-1.479a1.956,1.956,0,0,1,2.032,1.631l-.648.136a1.343,1.343,0,0,0-1.392-1.143c-.679,0-1.126.336-1.126.855,0,.432.319.664,1.342.984,1.455.471,1.984.959,1.984,1.839,0,.911-.792,1.535-1.951,1.535A2.054,2.054,0,0,1,433.487,220.679Z" style="fill:#231f20"/><path d="M438.825,219.736c0-1.751.943-2.919,2.359-2.919s2.358,1.168,2.358,2.919-.943,2.918-2.358,2.918S438.825,221.487,438.825,219.736Zm4.053,0c0-1.416-.647-2.295-1.694-2.295s-1.7.879-1.7,2.295.647,2.294,1.7,2.294S442.878,221.151,442.878,219.736Z" style="fill:#231f20"/><path d="M444.192,222.654l2.854-6.036.449.2-2.863,6.021Z" style="fill:#231f20"/><path d="M437.2,225.437h.678l.825,4.55h.015l1.384-4.55h.623l1.392,4.55h.015l.825-4.55h.678l-1.039,5.6h-.8l-1.375-4.494H440.4l-1.367,4.494h-.808Z" style="fill:#231f20"/><path d="M427.275,289.4l1.231,2.3h-.775l-1.184-2.27h-1.119v2.27h-.656v-5.6h2.039c1.168,0,1.863.624,1.863,1.656a1.545,1.545,0,0,1-1.4,1.623Zm-.52-.591c.824,0,1.255-.36,1.255-1.047s-.424-1.032-1.255-1.032h-1.327v2.079Z" style="fill:#231f20"/><polygon points="310.524 406.92 315.924 392.52 321.324 406.92 310.524 406.92" style="fill:#231f20"/><path d="M410.823,223.743h1.743c1.415,0,2.415,1.023,2.415,2.79,0,1.975-1,2.807-2.463,2.807h-1.695Zm1.655,4.973c1.136,0,1.839-.6,1.839-2.183,0-1.431-.7-2.166-1.791-2.166h-1.047v4.349Z" style="fill:#231f20"/><path d="M415.748,223.743h.679l.824,4.549h.016l1.384-4.549h.623l1.391,4.549h.016l.823-4.549h.68l-1.039,5.6h-.8l-1.375-4.494h-.015l-1.368,4.494h-.807Z" style="fill:#231f20"/><rect x="367.666" y="274.215" width="20.045" height="28.123" rx="0.857" transform="translate(89.412 665.965) rotate(-90)" style="fill:none;stroke:#221f1f;stroke-linecap:round;stroke-linejoin:round;stroke-width:0.25px"/><path d="M365.593,289.686a.786.786,0,1,1,.785.786h-.011a.775.775,0,0,1-.775-.775Z" style="fill:none;stroke:#221f1f;stroke-linecap:round;stroke-linejoin:round;stroke-width:0.25px"/><path d="M365.593,286.867a.786.786,0,1,1,.785.786h-.011A.785.785,0,0,1,365.593,286.867Z" style="fill:none;stroke:#221f1f;stroke-linecap:round;stroke-linejoin:round;stroke-width:0.25px"/><path d="M365.593,281.23a.786.786,0,1,1,.8.775h-.023A.774.774,0,0,1,365.593,281.23Z" style="fill:none;stroke:#221f1f;stroke-linecap:round;stroke-linejoin:round;stroke-width:0.25px"/><path d="M365.593,284.054a.786.786,0,1,1,.8.775h-.023A.774.774,0,0,1,365.593,284.054Z" style="fill:none;stroke:#221f1f;stroke-linecap:round;stroke-linejoin:round;stroke-width:0.25px"/><line x1="385.855" y1="297.812" x2="385.855" y2="295.302" style="fill:none;stroke:#211e1f;stroke-linecap:round;stroke-linejoin:round;stroke-width:0.25px"/><line x1="385.855" y1="290.787" x2="385.855" y2="288.277" style="fill:none;stroke:#211e1f;stroke-linecap:round;stroke-linejoin:round;stroke-width:0.25px"/><line x1="383.768" y1="291.946" x2="380.46" y2="290.069" style="fill:none;stroke:#211e1f;stroke-linecap:round;stroke-linejoin:round;stroke-width:0.25px"/><line x1="383.768" y1="294.141" x2="380.46" y2="296.018" style="fill:none;stroke:#211e1f;stroke-linecap:round;stroke-linejoin:round;stroke-width:0.25px"/><line x1="387.86" y1="291.946" x2="391.168" y2="290.069" style="fill:none;stroke:#211e1f;stroke-linecap:round;stroke-linejoin:round;stroke-width:0.25px"/><line x1="387.86" y1="294.141" x2="391.168" y2="296.018" style="fill:none;stroke:#211e1f;stroke-linecap:round;stroke-linejoin:round;stroke-width:0.25px"/><ellipse cx="385.855" cy="293.044" rx="0.864" ry="0.846" style="fill:none;stroke:#211e1f;stroke-linecap:round;stroke-linejoin:round;stroke-width:0.25px"/><line x1="385.855" y1="288.276" x2="385.855" y2="285.767" style="fill:none;stroke:#211e1f;stroke-linecap:round;stroke-linejoin:round;stroke-width:0.25px"/><line x1="385.855" y1="281.252" x2="385.855" y2="278.742" style="fill:none;stroke:#211e1f;stroke-linecap:round;stroke-linejoin:round;stroke-width:0.25px"/><line x1="383.768" y1="282.41" x2="380.46" y2="280.534" style="fill:none;stroke:#211e1f;stroke-linecap:round;stroke-linejoin:round;stroke-width:0.25px"/><line x1="383.768" y1="284.605" x2="380.46" y2="286.482" style="fill:none;stroke:#211e1f;stroke-linecap:round;stroke-linejoin:round;stroke-width:0.25px"/><line x1="387.86" y1="282.41" x2="391.168" y2="280.534" style="fill:none;stroke:#211e1f;stroke-linecap:round;stroke-linejoin:round;stroke-width:0.25px"/><line x1="387.86" y1="284.605" x2="391.168" y2="286.482" style="fill:none;stroke:#211e1f;stroke-linecap:round;stroke-linejoin:round;stroke-width:0.25px"/><ellipse cx="385.855" cy="283.508" rx="0.864" ry="0.846" style="fill:none;stroke:#211e1f;stroke-linecap:round;stroke-linejoin:round;stroke-width:0.25px"/><line x1="374.291" y1="288.276" x2="374.291" y2="285.767" style="fill:none;stroke:#211e1f;stroke-linecap:round;stroke-linejoin:round;stroke-width:0.25px"/><line x1="374.291" y1="281.252" x2="374.291" y2="278.742" style="fill:none;stroke:#211e1f;stroke-linecap:round;stroke-linejoin:round;stroke-width:0.25px"/><line x1="372.205" y1="282.41" x2="368.896" y2="280.534" style="fill:none;stroke:#211e1f;stroke-linecap:round;stroke-linejoin:round;stroke-width:0.25px"/><line x1="372.205" y1="284.605" x2="368.896" y2="286.482" style="fill:none;stroke:#211e1f;stroke-linecap:round;stroke-linejoin:round;stroke-width:0.25px"/><line x1="376.296" y1="282.41" x2="379.604" y2="280.534" style="fill:none;stroke:#211e1f;stroke-linecap:round;stroke-linejoin:round;stroke-width:0.25px"/><line x1="376.296" y1="284.605" x2="379.604" y2="286.482" style="fill:none;stroke:#211e1f;stroke-linecap:round;stroke-linejoin:round;stroke-width:0.25px"/><ellipse cx="374.291" cy="283.508" rx="0.864" ry="0.846" style="fill:none;stroke:#211e1f;stroke-linecap:round;stroke-linejoin:round;stroke-width:0.25px"/><line x1="374.291" y1="297.811" x2="374.291" y2="295.301" style="fill:none;stroke:#211e1f;stroke-linecap:round;stroke-linejoin:round;stroke-width:0.25px"/><line x1="374.291" y1="290.786" x2="374.291" y2="288.276" style="fill:none;stroke:#211e1f;stroke-linecap:round;stroke-linejoin:round;stroke-width:0.25px"/><line x1="372.205" y1="291.945" x2="368.896" y2="290.068" style="fill:none;stroke:#211e1f;stroke-linecap:round;stroke-linejoin:round;stroke-width:0.25px"/><line x1="372.205" y1="294.14" x2="368.896" y2="296.017" style="fill:none;stroke:#211e1f;stroke-linecap:round;stroke-linejoin:round;stroke-width:0.25px"/><line x1="376.296" y1="291.945" x2="379.604" y2="290.068" style="fill:none;stroke:#211e1f;stroke-linecap:round;stroke-linejoin:round;stroke-width:0.25px"/><line x1="376.296" y1="294.14" x2="379.604" y2="296.017" style="fill:none;stroke:#211e1f;stroke-linecap:round;stroke-linejoin:round;stroke-width:0.25px"/><ellipse cx="374.291" cy="293.042" rx="0.864" ry="0.846" style="fill:none;stroke:#211e1f;stroke-linecap:round;stroke-linejoin:round;stroke-width:0.25px"/><path d="M379.622,288.275H368.96a.064.064,0,0,0-.064.063v8.724a.759.759,0,0,0,.767.75h9.256a.758.758,0,0,0,.766-.75v-8.724a.063.063,0,0,0-.063-.063" style="fill:none;stroke:#211e1f;stroke-linecap:round;stroke-linejoin:round;stroke-width:0.25px"/><path d="M379.622,288.277H368.96a.063.063,0,0,1-.064-.062v-8.724a.759.759,0,0,1,.767-.75h9.256a.758.758,0,0,1,.766.75v8.724a.063.063,0,0,1-.063.062" style="fill:none;stroke:#211e1f;stroke-linecap:round;stroke-linejoin:round;stroke-width:0.25px"/><path d="M391.1,288.275H380.443a.064.064,0,0,0-.064.063v8.724a.758.758,0,0,0,.766.75H390.4a.758.758,0,0,0,.766-.75v-8.724a.064.064,0,0,0-.064-.063" style="fill:none;stroke:#211e1f;stroke-linecap:round;stroke-linejoin:round;stroke-width:0.25px"/><path d="M391.1,288.277H380.443a.063.063,0,0,1-.064-.062v-8.724a.758.758,0,0,1,.766-.75H390.4a.758.758,0,0,1,.766.75v8.724a.063.063,0,0,1-.064.062" style="fill:none;stroke:#211e1f;stroke-linecap:round;stroke-linejoin:round;stroke-width:0.25px"/></g></g></svg>