<svg xmlns="http://www.w3.org/2000/svg" viewBox="0 0 460.24 406.92"><defs><style>.cls-1,.cls-10,.cls-11,.cls-2,.cls-3,.cls-5{fill:#fff;}.cls-1,.cls-10,.cls-11,.cls-12,.cls-13,.cls-14,.cls-15,.cls-16,.cls-2,.cls-4,.cls-5,.cls-6,.cls-7,.cls-8,.cls-9{stroke:#231f20;}.cls-1,.cls-10,.cls-11,.cls-12,.cls-13,.cls-14,.cls-16,.cls-2,.cls-4,.cls-6,.cls-7,.cls-9{stroke-linecap:round;stroke-linejoin:round;}.cls-1{stroke-width:0.15px;}.cls-2,.cls-4,.cls-5{stroke-width:0.15px;}.cls-12,.cls-13,.cls-14,.cls-4,.cls-6,.cls-7,.cls-8,.cls-9{fill:none;}.cls-15,.cls-5,.cls-8{stroke-miterlimit:10;}.cls-6{stroke-width:0.4px;}.cls-11,.cls-12,.cls-13,.cls-14,.cls-16,.cls-7,.cls-8{stroke-width:0.25px;}.cls-10,.cls-9{stroke-width:0.2px;}.cls-12{stroke-dasharray:1.38 1.38;}.cls-13{stroke-dasharray:1.29 1.29;}.cls-14{stroke-dasharray:2 2;}.cls-15,.cls-16{fill:#dee2e1;}.cls-15{stroke-width:0.4px;}.cls-17{fill:#231f20;}</style></defs><title>Asset 5</title><g id="Layer_2" data-name="Layer 2"><g id="Unit12-14C_Rest"><g id="LWPOLYLINE"><rect class="cls-1" x="338.2" y="50.98" width="108.03" height="90.39"/></g><g id="LWPOLYLINE-2" data-name="LWPOLYLINE"><rect class="cls-1" x="4.76" y="42.13" width="112.29" height="111.84"/></g><g id="LWPOLYLINE-3" data-name="LWPOLYLINE"><rect class="cls-2" x="160.45" y="62.31" width="15" height="56.25"/></g><g id="LWPOLYLINE-4" data-name="LWPOLYLINE"><rect class="cls-2" x="139.71" y="70.55" width="15" height="56.25"/></g><rect class="cls-3" x="231" y="313.91" width="25.31" height="27.89"/><g id="LWPOLYLINE-5" data-name="LWPOLYLINE"><path class="cls-2" d="M386.27,173.55V155.74l5.82.29a3.75,3.75,0,0,1,3.56,3.74v9.74a3.76,3.76,0,0,1-3.56,3.75Z"/></g><g id="LWPOLYLINE-6" data-name="LWPOLYLINE"><path class="cls-2" d="M337.51,155.52v17.81L331.7,173a3.75,3.75,0,0,1-3.56-3.75v-9.74a3.74,3.74,0,0,1,3.56-3.74Z"/></g><g id="LWPOLYLINE-7" data-name="LWPOLYLINE"><path class="cls-2" d="M384.17,175H366.35l.29,5.82a3.76,3.76,0,0,0,3.75,3.56h9.74a3.75,3.75,0,0,0,3.74-3.56Z"/></g><g id="LWPOLYLINE-8" data-name="LWPOLYLINE"><path class="cls-2" d="M358.38,175H340.57l.29,5.82a3.76,3.76,0,0,0,3.75,3.56h9.74a3.75,3.75,0,0,0,3.74-3.56Z"/></g><g id="LWPOLYLINE-9" data-name="LWPOLYLINE"><path class="cls-2" d="M340.57,154.91h17.81l-.29-5.81a3.75,3.75,0,0,0-3.74-3.57h-9.74a3.76,3.76,0,0,0-3.75,3.57Z"/></g><g id="LWPOLYLINE-10" data-name="LWPOLYLINE"><path class="cls-2" d="M366.35,154.91h17.82l-.3-5.81a3.75,3.75,0,0,0-3.74-3.57h-9.74a3.76,3.76,0,0,0-3.75,3.57Z"/></g><g id="LWPOLYLINE-11" data-name="LWPOLYLINE"><path class="cls-2" d="M386.27,157.14l5.75.29a2.34,2.34,0,0,1,2.22,2.34v9.74a2.34,2.34,0,0,1-2.22,2.34l-5.75.29"/></g><g id="LWPOLYLINE-12" data-name="LWPOLYLINE"><path class="cls-2" d="M337.51,171.92l-5.74-.29a2.34,2.34,0,0,1-2.23-2.34v-9.74a2.34,2.34,0,0,1,2.23-2.34l5.74-.29"/></g><g id="LWPOLYLINE-13" data-name="LWPOLYLINE"><path class="cls-2" d="M367.76,175l.29,5.75a2.34,2.34,0,0,0,2.34,2.22h9.74a2.34,2.34,0,0,0,2.34-2.22l.29-5.75"/></g><g id="LWPOLYLINE-14" data-name="LWPOLYLINE"><path class="cls-2" d="M341.88,174.72l.29,5.74a2.34,2.34,0,0,0,2.34,2.23h9.74a2.34,2.34,0,0,0,2.34-2.23l.29-5.74"/></g><g id="LWPOLYLINE-15" data-name="LWPOLYLINE"><path class="cls-2" d="M357,154.91l-.29-5.74a2.34,2.34,0,0,0-2.34-2.23h-9.74a2.34,2.34,0,0,0-2.34,2.23l-.29,5.74"/></g><g id="LWPOLYLINE-16" data-name="LWPOLYLINE"><path class="cls-2" d="M382.85,155.14l-.28-5.74a2.36,2.36,0,0,0-2.34-2.23h-9.75a2.36,2.36,0,0,0-2.34,2.23l-.28,5.74"/></g><g id="LWPOLYLINE-17" data-name="LWPOLYLINE"><rect class="cls-2" x="333.77" y="150.58" width="56.25" height="28.13"/></g><g id="LWPOLYLINE-18" data-name="LWPOLYLINE"><path class="cls-2" d="M377.53,198.21a11.65,11.65,0,0,1,1.17-1.16,12,12,0,0,1,16.89,1.16l-1.06.93V210H378.59v-10.9Z"/></g><g id="LWPOLYLINE-19" data-name="LWPOLYLINE"><path class="cls-2" d="M355,198.21a11.65,11.65,0,0,1,1.17-1.16,12,12,0,0,1,16.89,1.16l-1.06.93V210H356.09v-10.9Z"/></g><g id="LWPOLYLINE-20" data-name="LWPOLYLINE"><line class="cls-4" x1="380.44" y1="197.46" x2="380.44" y2="210.04"/></g><g id="LWPOLYLINE-21" data-name="LWPOLYLINE"><line class="cls-4" x1="392.68" y1="197.46" x2="392.68" y2="210.04"/></g><g id="LWPOLYLINE-22" data-name="LWPOLYLINE"><path class="cls-4" d="M394.53,199.14a10.57,10.57,0,0,0-14.91-1,11.13,11.13,0,0,0-1,1"/></g><g id="LWPOLYLINE-23" data-name="LWPOLYLINE"><path class="cls-2" d="M399.89,198.21a11.65,11.65,0,0,1,1.17-1.16A12,12,0,0,1,418,198.21l-1.06.93V210H401v-10.9Z"/></g><g id="LWPOLYLINE-24" data-name="LWPOLYLINE"><line class="cls-4" x1="402.8" y1="197.46" x2="402.8" y2="210.04"/></g><g id="LWPOLYLINE-25" data-name="LWPOLYLINE"><line class="cls-4" x1="415.04" y1="197.46" x2="415.04" y2="210.04"/></g><g id="LWPOLYLINE-26" data-name="LWPOLYLINE"><path class="cls-4" d="M416.89,199.14a10.57,10.57,0,0,0-14.91-1,11.13,11.13,0,0,0-1,1"/></g><g id="LWPOLYLINE-27" data-name="LWPOLYLINE"><line class="cls-4" x1="357.94" y1="197.46" x2="357.94" y2="210.04"/></g><g id="LWPOLYLINE-28" data-name="LWPOLYLINE"><line class="cls-4" x1="370.18" y1="197.46" x2="370.18" y2="210.04"/></g><g id="LWPOLYLINE-29" data-name="LWPOLYLINE"><path class="cls-4" d="M372,199.14a10.57,10.57,0,0,0-14.91-1,11.13,11.13,0,0,0-1,1"/></g><g id="LWPOLYLINE-30" data-name="LWPOLYLINE"><polygon class="cls-2" points="118.76 55.95 117.45 54.04 117.14 54.25 116.58 54.39 116.05 54.13 114.81 52.64 113.79 51.44 112.95 50.35 111.88 48.9 110.94 47.53 110.55 46.99 110.27 46.54 109.89 45.96 109.48 45.3 108.56 43.76 107.73 42.29 107.1 41.11 107.05 40.53 107.38 40.05 107.69 39.84 106.01 37.41 124.73 24.54 137.48 43.08 118.76 55.95"/></g><g id="LINE"><line class="cls-4" x1="126.4" y1="26.98" x2="107.69" y2="39.84"/></g><g id="LINE-2" data-name="LINE"><line class="cls-4" x1="117.45" y1="54.04" x2="136.16" y2="41.17"/></g><g id="ARC"><path class="cls-4" d="M122.23,29.84A40.15,40.15,0,0,0,132,44"/></g><g id="ARC-2" data-name="ARC"><path class="cls-4" d="M125,27.93a102.12,102.12,0,0,0,9.76,14.2"/></g><g id="LWPOLYLINE-31" data-name="LWPOLYLINE"><rect class="cls-2" x="3.07" y="62.48" width="80.63" height="71.25"/></g><g id="LWPOLYLINE-32" data-name="LWPOLYLINE"><rect class="cls-2" x="3.07" y="135.72" width="15.94" height="20.16"/></g><g id="LWPOLYLINE-33" data-name="LWPOLYLINE"><rect class="cls-2" x="3.07" y="40.33" width="15.94" height="20.16"/></g><g id="LWPOLYLINE-34" data-name="LWPOLYLINE"><rect class="cls-4" x="8.43" y="99.38" width="14.68" height="31.81"/></g><g id="LINE-5" data-name="LINE"><line class="cls-4" x1="5.88" y1="62.48" x2="5.88" y2="133.73"/></g><g id="LINE-6" data-name="LINE"><line class="cls-4" x1="80.88" y1="62.48" x2="80.88" y2="133.73"/></g><g id="LWPOLYLINE-35" data-name="LWPOLYLINE"><rect class="cls-4" x="8.43" y="65.02" width="14.68" height="31.81"/></g><g id="LWPOLYLINE-36" data-name="LWPOLYLINE"><rect class="cls-2" x="267.09" y="36.06" width="16.88" height="22.5"/></g><g id="LWPOLYLINE-37" data-name="LWPOLYLINE"><rect class="cls-2" x="267.09" y="122.31" width="16.88" height="22.5"/></g><g id="LWPOLYLINE-38" data-name="LWPOLYLINE"><rect class="cls-2" x="203.34" y="62.31" width="80.62" height="56.25"/></g><g id="LINE-7" data-name="LINE"><line class="cls-4" x1="281.16" y1="62.31" x2="281.16" y2="118.56"/></g><g id="LINE-8" data-name="LINE"><line class="cls-4" x1="206.16" y1="62.31" x2="206.16" y2="118.56"/></g><g id="LWPOLYLINE-39" data-name="LWPOLYLINE"><rect class="cls-4" x="263.93" y="91.71" width="14.68" height="24.31"/></g><g id="LWPOLYLINE-40" data-name="LWPOLYLINE"><rect class="cls-4" x="263.93" y="64.85" width="14.68" height="24.31"/></g><g id="LWPOLYLINE-41" data-name="LWPOLYLINE"><rect class="cls-2" x="338.21" y="330.02" width="12.71" height="37.84"/></g><g id="LWPOLYLINE-42" data-name="LWPOLYLINE"><rect class="cls-2" x="287.13" y="68.05" width="15" height="56.25"/></g><rect class="cls-2" x="268.26" y="94.67" width="44.9" height="1.76" transform="translate(195.17 386.25) rotate(-90)"/><line class="cls-4" x1="25.65" y1="133.67" x2="25.65" y2="62.42"/><line class="cls-4" x1="28.08" y1="133.67" x2="28.08" y2="62.42"/><g id="LWPOLYLINE-43" data-name="LWPOLYLINE"><polygon class="cls-2" points="386.42 55.09 387.26 25.09 413.98 25 415.01 54.99 386.42 55.09"/></g><g id="LWPOLYLINE-44" data-name="LWPOLYLINE"><polygon class="cls-2" points="342.17 55.09 343.01 25.09 369.73 25 370.76 54.99 342.17 55.09"/></g><g id="CIRCLE"><path class="cls-2" d="M373.45,39a5.15,5.15,0,1,1,5.14,5.15A5.14,5.14,0,0,1,373.45,39Z"/></g><g id="LWPOLYLINE-45" data-name="LWPOLYLINE"><rect class="cls-2" x="365.2" y="79.17" width="32.83" height="34.02"/></g><g id="LINE-9" data-name="LINE"><line class="cls-4" x1="390.41" y1="55.08" x2="391.24" y2="25.07"/></g><g id="LINE-10" data-name="LINE"><line class="cls-4" x1="391.13" y1="29.29" x2="410.13" y2="29.23"/></g><g id="LINE-11" data-name="LINE"><line class="cls-4" x1="409.99" y1="25.01" x2="411.03" y2="55.01"/></g><g id="LINE-12" data-name="LINE"><line class="cls-4" x1="346.16" y1="55.08" x2="347" y2="25.07"/></g><g id="LINE-13" data-name="LINE"><line class="cls-4" x1="346.88" y1="29.29" x2="365.88" y2="29.23"/></g><g id="LINE-14" data-name="LINE"><line class="cls-4" x1="365.74" y1="25.01" x2="366.78" y2="55.01"/></g><rect class="cls-2" x="417.57" y="53.66" width="33.75" height="84.38"/><g id="LINE-15" data-name="LINE"><line class="cls-4" x1="446.63" y1="83.34" x2="418.55" y2="83.34"/></g><g id="LWPOLYLINE-46" data-name="LWPOLYLINE"><polyline class="cls-4" points="417.57 133.34 446.63 133.34 446.63 58.34 417.57 58.34"/></g><g id="ARC-3" data-name="ARC"><path class="cls-4" d="M442.14,59.28a59.23,59.23,0,0,0,0,23.13"/></g><g id="ARC-4" data-name="ARC"><path class="cls-4" d="M442.14,82.41a1.19,1.19,0,0,0,1,.93"/></g><g id="ARC-5" data-name="ARC"><path class="cls-4" d="M443.12,58.34a1.22,1.22,0,0,0-1,.94"/></g><g id="ARC-6" data-name="ARC"><path class="cls-4" d="M443.12,83.34a1.22,1.22,0,0,0-1,.94"/></g><g id="ARC-7" data-name="ARC"><path class="cls-4" d="M442.14,132.41a1.19,1.19,0,0,0,1,.93"/></g><g id="ARC-8" data-name="ARC"><path class="cls-4" d="M417.57,82.41a1.19,1.19,0,0,0,1,.93"/></g><g id="ARC-9" data-name="ARC"><path class="cls-4" d="M418.55,83.34a1.22,1.22,0,0,0-1,.94"/></g><g id="ARC-10" data-name="ARC"><path class="cls-4" d="M418.55,58.34a1.22,1.22,0,0,0-1,.94"/></g><g id="ARC-11" data-name="ARC"><path class="cls-4" d="M417.57,132.41a1.19,1.19,0,0,0,1,.93"/></g><g id="LINE-16" data-name="LINE"><line class="cls-4" x1="446.63" y1="108.34" x2="418.55" y2="108.34"/></g><g id="ARC-12" data-name="ARC"><path class="cls-4" d="M442.14,109.28a59.23,59.23,0,0,0,0,23.13"/></g><g id="ARC-13" data-name="ARC"><path class="cls-4" d="M443.12,108.34a1.22,1.22,0,0,0-1,.94"/></g><g id="ARC-14" data-name="ARC"><path class="cls-4" d="M442.14,107.41a1.19,1.19,0,0,0,1,.93"/></g><g id="ARC-15" data-name="ARC"><path class="cls-4" d="M418.55,108.34a1.22,1.22,0,0,0-1,.94"/></g><g id="ARC-16" data-name="ARC"><path class="cls-4" d="M417.57,107.41a1.19,1.19,0,0,0,1,.93"/></g><g id="ARC-17" data-name="ARC"><path class="cls-4" d="M442.14,84.28a59.23,59.23,0,0,0,0,23.13"/></g><g id="ARC-18" data-name="ARC"><path class="cls-4" d="M442.14,82.41a1.19,1.19,0,0,0,1,.93"/></g><g id="ARC-19" data-name="ARC"><path class="cls-4" d="M443.12,58.34a1.22,1.22,0,0,0-1,.94"/></g><g id="ARC-20" data-name="ARC"><path class="cls-4" d="M443.12,83.34a1.22,1.22,0,0,0-1,.94"/></g><g id="ARC-21" data-name="ARC"><path class="cls-4" d="M442.14,132.41a1.19,1.19,0,0,0,1,.93"/></g><g id="ARC-22" data-name="ARC"><path class="cls-4" d="M417.57,82.41a1.19,1.19,0,0,0,1,.93"/></g><g id="ARC-23" data-name="ARC"><path class="cls-4" d="M418.55,83.34a1.22,1.22,0,0,0-1,.94"/></g><g id="ARC-24" data-name="ARC"><path class="cls-4" d="M418.55,58.34a1.22,1.22,0,0,0-1,.94"/></g><g id="ARC-25" data-name="ARC"><path class="cls-4" d="M417.57,132.41a1.19,1.19,0,0,0,1,.93"/></g><g id="ARC-26" data-name="ARC"><path class="cls-4" d="M443.12,108.34a1.22,1.22,0,0,0-1,.94"/></g><g id="ARC-27" data-name="ARC"><path class="cls-4" d="M442.14,107.41a1.19,1.19,0,0,0,1,.93"/></g><g id="ARC-28" data-name="ARC"><path class="cls-4" d="M418.55,108.34a1.22,1.22,0,0,0-1,.94"/></g><g id="ARC-29" data-name="ARC"><path class="cls-4" d="M417.57,107.41a1.19,1.19,0,0,0,1,.93"/></g><path class="cls-5" d="M436.62,64.07s-5.27-6.86-7.93-5.56S435.93,69,435.93,69s3.9,4,4.64,2S436.62,64.07,436.62,64.07Z"/><path class="cls-5" d="M434.87,76s4.37,7.08,6.29,5.77-3.56-9.44-3.56-9.44-3.83-7.58-5.7-5.54S434.87,76,434.87,76Z"/><path class="cls-5" d="M440.27,117s-3.62.74-5.2,8.34-1.12,7.67-.31,8,4.2-2.25,5.22-9.2S441.52,117.28,440.27,117Z"/><g id="LWPOLYLINE-47" data-name="LWPOLYLINE"><rect class="cls-2" x="328.35" y="69.46" width="16.88" height="53.44" rx="1.88"/></g><g id="CIRCLE-2" data-name="CIRCLE"><path class="cls-4" d="M341,100.87a.47.47,0,0,1,0-.94.47.47,0,1,1,0,.94Z"/></g><g id="CIRCLE-3" data-name="CIRCLE"><path class="cls-4" d="M332.57,100.87a.47.47,0,1,1,.47-.47.47.47,0,0,1-.47.47Z"/></g><g id="CIRCLE-4" data-name="CIRCLE"><path class="cls-4" d="M341,92.43a.47.47,0,0,1,0-.94.47.47,0,1,1,0,.94Z"/></g><g id="CIRCLE-5" data-name="CIRCLE"><path class="cls-4" d="M332.57,92.43A.47.47,0,1,1,333,92a.47.47,0,0,1-.47.47Z"/></g><g id="CIRCLE-6" data-name="CIRCLE"><path class="cls-4" d="M341,84a.47.47,0,0,1,0-.94.47.47,0,1,1,0,.94Z"/></g><g id="CIRCLE-7" data-name="CIRCLE"><path class="cls-4" d="M332.57,84a.47.47,0,1,1,.47-.47.47.47,0,0,1-.47.47Z"/></g><g id="CIRCLE-8" data-name="CIRCLE"><path class="cls-4" d="M341,75.55a.47.47,0,0,1,0-.93.47.47,0,1,1,0,.93Z"/></g><g id="CIRCLE-9" data-name="CIRCLE"><path class="cls-4" d="M332.57,75.55a.47.47,0,1,1,.47-.47.47.47,0,0,1-.47.47Z"/></g><g id="CIRCLE-10" data-name="CIRCLE"><path class="cls-4" d="M341,109.3a.47.47,0,0,1,0-.93.47.47,0,1,1,0,.93Z"/></g><g id="CIRCLE-11" data-name="CIRCLE"><path class="cls-4" d="M332.57,109.3a.47.47,0,1,1,.47-.47.47.47,0,0,1-.47.47Z"/></g><g id="CIRCLE-12" data-name="CIRCLE"><path class="cls-4" d="M341,117.74a.47.47,0,0,1,0-.94.47.47,0,1,1,0,.94Z"/></g><g id="CIRCLE-13" data-name="CIRCLE"><path class="cls-4" d="M332.57,117.74a.47.47,0,1,1,.47-.47.47.47,0,0,1-.47.47Z"/></g><g id="CIRCLE-14" data-name="CIRCLE"><path class="cls-4" d="M341,100.87a.47.47,0,0,1,0-.94.47.47,0,1,1,0,.94Z"/></g><g id="CIRCLE-15" data-name="CIRCLE"><path class="cls-4" d="M332.57,100.87a.47.47,0,1,1,.47-.47.47.47,0,0,1-.47.47Z"/></g><g id="CIRCLE-16" data-name="CIRCLE"><path class="cls-4" d="M341,92.43a.47.47,0,0,1,0-.94.47.47,0,1,1,0,.94Z"/></g><g id="CIRCLE-17" data-name="CIRCLE"><path class="cls-4" d="M332.57,92.43A.47.47,0,1,1,333,92a.47.47,0,0,1-.47.47Z"/></g><g id="CIRCLE-18" data-name="CIRCLE"><path class="cls-4" d="M341,84a.47.47,0,0,1,0-.94.47.47,0,1,1,0,.94Z"/></g><g id="CIRCLE-19" data-name="CIRCLE"><path class="cls-4" d="M332.57,84a.47.47,0,1,1,.47-.47.47.47,0,0,1-.47.47Z"/></g><g id="CIRCLE-20" data-name="CIRCLE"><path class="cls-4" d="M341,75.55a.47.47,0,0,1,0-.93.47.47,0,1,1,0,.93Z"/></g><g id="CIRCLE-21" data-name="CIRCLE"><path class="cls-4" d="M332.57,75.55a.47.47,0,1,1,.47-.47.47.47,0,0,1-.47.47Z"/></g><g id="CIRCLE-22" data-name="CIRCLE"><path class="cls-4" d="M341,109.3a.47.47,0,0,1,0-.93.47.47,0,1,1,0,.93Z"/></g><g id="CIRCLE-23" data-name="CIRCLE"><path class="cls-4" d="M332.57,109.3a.47.47,0,1,1,.47-.47.47.47,0,0,1-.47.47Z"/></g><g id="CIRCLE-24" data-name="CIRCLE"><path class="cls-4" d="M341,117.74a.47.47,0,0,1,0-.94.47.47,0,1,1,0,.94Z"/></g><g id="CIRCLE-25" data-name="CIRCLE"><path class="cls-4" d="M332.57,117.74a.47.47,0,1,1,.47-.47.47.47,0,0,1-.47.47Z"/></g><line class="cls-4" x1="261.41" y1="62.31" x2="261.41" y2="118.56"/><line class="cls-4" x1="258.98" y1="62.31" x2="258.98" y2="118.56"/><g id="LWPOLYLINE-48" data-name="LWPOLYLINE"><polyline class="cls-6" points="137.95 17.78 137.95 23.4 25.45 23.4 25.45 17.78"/></g><g id="LWPOLYLINE-49" data-name="LWPOLYLINE"><polyline class="cls-6" points="284.2 17.78 284.2 23.4 171.7 23.4 171.7 17.78"/></g><g id="LWPOLYLINE-50" data-name="LWPOLYLINE"><polyline class="cls-6" points="430.45 17.78 430.45 23.4 317.95 23.4 317.95 17.78"/></g><g id="LWPOLYLINE-51" data-name="LWPOLYLINE"><polygon class="cls-7" points="107.84 14.03 55.57 14.03 55.57 15.26 107.83 15.26 107.84 14.03"/></g><g id="LWPOLYLINE-52" data-name="LWPOLYLINE"><polygon class="cls-7" points="135.14 14.03 134.2 14.03 110.42 14.03 110.42 15.26 135.14 15.26 135.14 14.03"/></g><g id="LWPOLYLINE-53" data-name="LWPOLYLINE"><polygon class="cls-7" points="28.26 14.03 29.2 14.03 52.99 14.03 52.99 15.26 28.26 15.26 28.26 14.03"/></g><g id="LWPOLYLINE-54" data-name="LWPOLYLINE"><polygon class="cls-7" points="254.09 14.03 201.82 14.03 201.82 15.26 254.08 15.26 254.09 14.03"/></g><g id="LWPOLYLINE-55" data-name="LWPOLYLINE"><polygon class="cls-7" points="281.39 14.03 280.45 14.03 256.67 14.03 256.67 15.26 281.39 15.26 281.39 14.03"/></g><g id="LWPOLYLINE-56" data-name="LWPOLYLINE"><polygon class="cls-7" points="174.51 14.03 175.45 14.03 199.24 14.03 199.24 15.26 174.51 15.26 174.51 14.03"/></g><g id="LWPOLYLINE-57" data-name="LWPOLYLINE"><polygon class="cls-7" points="400.34 14.03 348.07 14.03 348.07 15.26 400.33 15.26 400.34 14.03"/></g><g id="LWPOLYLINE-58" data-name="LWPOLYLINE"><polygon class="cls-7" points="427.64 14.03 426.7 14.03 402.92 14.03 402.92 15.26 427.64 15.26 427.64 14.03"/></g><g id="LWPOLYLINE-59" data-name="LWPOLYLINE"><polygon class="cls-7" points="320.86 14.05 321.79 14.05 345.49 14.05 345.49 15.23 320.86 15.23 320.86 14.05"/></g><g id="LWPOLYLINE-60" data-name="LWPOLYLINE"><polygon class="cls-7" points="107.84 14.03 55.57 14.03 55.57 15.26 107.83 15.26 107.84 14.03"/></g><g id="LWPOLYLINE-61" data-name="LWPOLYLINE"><polygon class="cls-7" points="135.14 14.03 134.2 14.03 110.42 14.03 110.42 15.26 135.14 15.26 135.14 14.03"/></g><g id="LWPOLYLINE-62" data-name="LWPOLYLINE"><polygon class="cls-7" points="28.26 14.03 29.2 14.03 52.99 14.03 52.99 15.26 28.26 15.26 28.26 14.03"/></g><g id="LWPOLYLINE-63" data-name="LWPOLYLINE"><polygon class="cls-7" points="254.09 14.03 201.82 14.03 201.82 15.26 254.08 15.26 254.09 14.03"/></g><g id="LWPOLYLINE-64" data-name="LWPOLYLINE"><polygon class="cls-7" points="281.39 14.03 280.45 14.03 256.67 14.03 256.67 15.26 281.39 15.26 281.39 14.03"/></g><g id="LWPOLYLINE-65" data-name="LWPOLYLINE"><polygon class="cls-7" points="174.51 14.03 175.45 14.03 199.24 14.03 199.24 15.26 174.51 15.26 174.51 14.03"/></g><g id="LWPOLYLINE-66" data-name="LWPOLYLINE"><polygon class="cls-7" points="400.34 14.03 348.07 14.03 348.07 15.26 400.33 15.26 400.34 14.03"/></g><g id="LWPOLYLINE-67" data-name="LWPOLYLINE"><polygon class="cls-7" points="427.64 14.03 426.7 14.03 402.92 14.03 402.92 15.26 427.64 15.26 427.64 14.03"/></g><line class="cls-7" x1="321.7" y1="17.78" x2="426.52" y2="17.78"/><line class="cls-7" x1="28.54" y1="17.78" x2="134.2" y2="17.78"/><line class="cls-7" x1="175.45" y1="17.78" x2="280.45" y2="17.78"/><g id="LWPOLYLINE-68" data-name="LWPOLYLINE"><polygon class="cls-8" points="111.12 15.26 110.42 15.26 110.42 14.03 111.12 14.03 111.12 13.09 109.36 13.09 109.36 10.75 108.42 10.75 108.42 13.09 107.37 13.09 107.37 14.03 107.84 14.03 107.84 15.26 107.13 15.26 107.13 16.43 108.07 16.43 108.07 17.31 109.24 17.31 109.24 17.78 111.12 17.78 111.12 15.26"/></g><g id="LWPOLYLINE-69" data-name="LWPOLYLINE"><polygon class="cls-8" points="137.95 13.09 136.37 13.09 136.37 9.34 135.43 9.34 135.43 13.09 134.2 13.09 134.2 14.03 135.14 14.03 135.14 15.26 134.2 15.26 134.2 17.78 137.95 17.78 137.95 13.09"/></g><g id="LWPOLYLINE-70" data-name="LWPOLYLINE"><polygon class="cls-8" points="52.28 15.26 52.99 15.26 52.99 14.03 52.28 14.03 52.28 13.09 54.04 13.09 54.04 10.75 54.98 10.75 54.98 13.09 56.03 13.09 56.03 14.03 55.56 14.03 55.56 15.26 56.27 15.26 56.27 16.43 55.33 16.43 55.33 17.31 54.16 17.31 54.16 17.78 52.28 17.78 52.28 15.26"/></g><g id="LWPOLYLINE-71" data-name="LWPOLYLINE"><polygon class="cls-8" points="25.45 13.09 27.03 13.09 27.03 9.34 27.97 9.34 27.97 13.09 29.2 13.09 29.2 14.03 28.26 14.03 28.26 15.26 29.2 15.26 29.2 17.78 25.45 17.78 25.45 13.09"/></g><g id="LWPOLYLINE-72" data-name="LWPOLYLINE"><polygon class="cls-8" points="257.37 15.26 256.67 15.26 256.67 14.03 257.37 14.03 257.37 13.09 255.61 13.09 255.61 10.75 254.67 10.75 254.67 13.09 253.62 13.09 253.62 14.03 254.09 14.03 254.09 15.26 253.38 15.26 253.38 16.43 254.32 16.43 254.32 17.31 255.49 17.31 255.49 17.78 257.37 17.78 257.37 15.26"/></g><g id="LWPOLYLINE-73" data-name="LWPOLYLINE"><polygon class="cls-8" points="284.2 13.09 282.62 13.09 282.62 9.34 281.68 9.34 281.68 13.09 280.45 13.09 280.45 14.03 281.39 14.03 281.39 15.26 280.45 15.26 280.45 17.78 284.2 17.78 284.2 13.09"/></g><g id="LWPOLYLINE-74" data-name="LWPOLYLINE"><polygon class="cls-8" points="198.53 15.26 199.24 15.26 199.24 14.03 198.53 14.03 198.53 13.09 200.29 13.09 200.29 10.75 201.23 10.75 201.23 13.09 202.28 13.09 202.28 14.03 201.81 14.03 201.81 15.26 202.52 15.26 202.52 16.43 201.58 16.43 201.58 17.31 200.41 17.31 200.41 17.78 198.53 17.78 198.53 15.26"/></g><g id="LWPOLYLINE-75" data-name="LWPOLYLINE"><polygon class="cls-8" points="171.7 13.09 173.28 13.09 173.28 9.34 174.22 9.34 174.22 13.09 175.45 13.09 175.45 14.03 174.51 14.03 174.51 15.26 175.45 15.26 175.45 17.78 171.7 17.78 171.7 13.09"/></g><g id="LWPOLYLINE-76" data-name="LWPOLYLINE"><polygon class="cls-8" points="403.62 15.26 402.92 15.26 402.92 14.03 403.62 14.03 403.62 13.09 401.86 13.09 401.86 10.75 400.92 10.75 400.92 13.09 399.87 13.09 399.87 14.03 400.34 14.03 400.34 15.26 399.63 15.26 399.63 16.43 400.57 16.43 400.57 17.31 401.74 17.31 401.74 17.78 403.62 17.78 403.62 15.26"/></g><g id="LWPOLYLINE-77" data-name="LWPOLYLINE"><polygon class="cls-8" points="430.45 13.09 428.87 13.09 428.87 9.34 427.93 9.34 427.93 13.09 426.7 13.09 426.7 14.03 427.64 14.03 427.64 15.26 426.7 15.26 426.7 17.78 430.45 17.78 430.45 13.09"/></g><g id="LWPOLYLINE-78" data-name="LWPOLYLINE"><polygon class="cls-8" points="344.78 15.26 345.49 15.26 345.49 14.03 344.78 14.03 344.78 13.09 346.54 13.09 346.54 10.75 347.48 10.75 347.48 13.09 348.53 13.09 348.53 14.03 348.06 14.03 348.06 15.26 348.77 15.26 348.77 16.43 347.83 16.43 347.83 17.31 346.66 17.31 346.66 17.78 344.78 17.78 344.78 15.26"/></g><g id="LWPOLYLINE-79" data-name="LWPOLYLINE"><polygon class="cls-8" points="317.95 13.09 319.53 13.09 319.53 9.34 320.47 9.34 320.47 13.09 321.7 13.09 321.7 14.03 320.76 14.03 320.76 15.26 321.7 15.26 321.7 17.78 317.95 17.78 317.95 13.09"/></g><g id="LWPOLYLINE-80" data-name="LWPOLYLINE"><polygon class="cls-8" points="111.12 15.26 110.42 15.26 110.42 14.03 111.12 14.03 111.12 13.09 109.36 13.09 109.36 10.75 108.42 10.75 108.42 13.09 107.37 13.09 107.37 14.03 107.84 14.03 107.84 15.26 107.13 15.26 107.13 16.43 108.07 16.43 108.07 17.31 109.24 17.31 109.24 17.78 111.12 17.78 111.12 15.26"/></g><g id="LWPOLYLINE-81" data-name="LWPOLYLINE"><polygon class="cls-8" points="137.95 13.09 136.37 13.09 136.37 9.34 135.43 9.34 135.43 13.09 134.2 13.09 134.2 14.03 135.14 14.03 135.14 15.26 134.2 15.26 134.2 17.78 137.95 17.78 137.95 13.09"/></g><g id="LWPOLYLINE-82" data-name="LWPOLYLINE"><polygon class="cls-8" points="52.28 15.26 52.99 15.26 52.99 14.03 52.28 14.03 52.28 13.09 54.04 13.09 54.04 10.75 54.98 10.75 54.98 13.09 56.03 13.09 56.03 14.03 55.56 14.03 55.56 15.26 56.27 15.26 56.27 16.43 55.33 16.43 55.33 17.31 54.16 17.31 54.16 17.78 52.28 17.78 52.28 15.26"/></g><g id="LWPOLYLINE-83" data-name="LWPOLYLINE"><polygon class="cls-8" points="25.45 13.09 27.03 13.09 27.03 9.34 27.97 9.34 27.97 13.09 29.2 13.09 29.2 14.03 28.26 14.03 28.26 15.26 29.2 15.26 29.2 17.78 25.45 17.78 25.45 13.09"/></g><g id="LWPOLYLINE-84" data-name="LWPOLYLINE"><polygon class="cls-8" points="257.37 15.26 256.67 15.26 256.67 14.03 257.37 14.03 257.37 13.09 255.61 13.09 255.61 10.75 254.67 10.75 254.67 13.09 253.62 13.09 253.62 14.03 254.09 14.03 254.09 15.26 253.38 15.26 253.38 16.43 254.32 16.43 254.32 17.31 255.49 17.31 255.49 17.78 257.37 17.78 257.37 15.26"/></g><g id="LWPOLYLINE-85" data-name="LWPOLYLINE"><polygon class="cls-8" points="284.2 13.09 282.62 13.09 282.62 9.34 281.68 9.34 281.68 13.09 280.45 13.09 280.45 14.03 281.39 14.03 281.39 15.26 280.45 15.26 280.45 17.78 284.2 17.78 284.2 13.09"/></g><g id="LWPOLYLINE-86" data-name="LWPOLYLINE"><polygon class="cls-8" points="198.53 15.26 199.24 15.26 199.24 14.03 198.53 14.03 198.53 13.09 200.29 13.09 200.29 10.75 201.23 10.75 201.23 13.09 202.28 13.09 202.28 14.03 201.81 14.03 201.81 15.26 202.52 15.26 202.52 16.43 201.58 16.43 201.58 17.31 200.41 17.31 200.41 17.78 198.53 17.78 198.53 15.26"/></g><g id="LWPOLYLINE-87" data-name="LWPOLYLINE"><polygon class="cls-8" points="171.7 13.09 173.28 13.09 173.28 9.34 174.22 9.34 174.22 13.09 175.45 13.09 175.45 14.03 174.51 14.03 174.51 15.26 175.45 15.26 175.45 17.78 171.7 17.78 171.7 13.09"/></g><g id="LWPOLYLINE-88" data-name="LWPOLYLINE"><polygon class="cls-8" points="403.62 15.26 402.92 15.26 402.92 14.03 403.62 14.03 403.62 13.09 401.86 13.09 401.86 10.75 400.92 10.75 400.92 13.09 399.87 13.09 399.87 14.03 400.34 14.03 400.34 15.26 399.63 15.26 399.63 16.43 400.57 16.43 400.57 17.31 401.74 17.31 401.74 17.78 403.62 17.78 403.62 15.26"/></g><g id="LWPOLYLINE-89" data-name="LWPOLYLINE"><polygon class="cls-8" points="430.45 13.09 428.87 13.09 428.87 9.34 427.93 9.34 427.93 13.09 426.7 13.09 426.7 14.03 427.64 14.03 427.64 15.26 426.7 15.26 426.7 17.78 430.45 17.78 430.45 13.09"/></g><g id="LWPOLYLINE-90" data-name="LWPOLYLINE"><polygon class="cls-8" points="344.78 15.26 345.49 15.26 345.49 14.03 344.78 14.03 344.78 13.09 346.54 13.09 346.54 10.75 347.48 10.75 347.48 13.09 348.53 13.09 348.53 14.03 348.06 14.03 348.06 15.26 348.77 15.26 348.77 16.43 347.83 16.43 347.83 17.31 346.66 17.31 346.66 17.78 344.78 17.78 344.78 15.26"/></g><g id="LWPOLYLINE-91" data-name="LWPOLYLINE"><polyline class="cls-6" points="137.95 17.78 137.95 9.34 25.45 9.34 25.45 17.78"/></g><g id="LWPOLYLINE-92" data-name="LWPOLYLINE"><polyline class="cls-6" points="284.2 17.78 284.2 9.34 171.7 9.34 171.7 17.78"/></g><g id="LWPOLYLINE-93" data-name="LWPOLYLINE"><polyline class="cls-6" points="430.45 17.78 430.45 9.34 317.95 9.34 317.95 17.78"/></g><g id="LWPOLYLINE-94" data-name="LWPOLYLINE"><rect class="cls-9" x="171.21" y="250.64" width="33.75" height="1.64" transform="translate(-122.72 206.65) rotate(-45)"/></g><g id="LWPOLYLINE-95" data-name="LWPOLYLINE"><rect class="cls-9" x="89.2" y="185.71" width="1.64" height="33.75"/></g><g id="LWPOLYLINE-96" data-name="LWPOLYLINE"><rect class="cls-9" x="89.2" y="230.47" width="1.64" height="33.75"/></g><g id="LWPOLYLINE-97" data-name="LWPOLYLINE"><rect class="cls-9" x="220.34" y="264.69" width="33.75" height="1.64"/></g><g id="LWPOLYLINE-98" data-name="LWPOLYLINE"><rect class="cls-9" x="170.18" y="208.85" width="1.64" height="22.5"/></g><g id="LWPOLYLINE-99" data-name="LWPOLYLINE"><rect class="cls-9" x="170.18" y="231.35" width="1.64" height="22.5"/></g><g id="LWPOLYLINE-100" data-name="LWPOLYLINE"><rect class="cls-9" x="125.55" y="274.45" width="1.64" height="33.75" transform="translate(-168.98 174.68) rotate(-45)"/></g><g id="LWPOLYLINE-101" data-name="LWPOLYLINE"><rect class="cls-9" x="98.34" y="309.46" width="33.75" height="1.64"/></g><g id="LWPOLYLINE-102" data-name="LWPOLYLINE"><rect class="cls-9" x="226.78" y="307.58" width="33.75" height="1.64"/></g><g id="LWPOLYLINE-103" data-name="LWPOLYLINE"><rect class="cls-9" x="292.17" y="342.5" width="1.64" height="28.13"/></g><g id="LWPOLYLINE-104" data-name="LWPOLYLINE"><rect class="cls-9" x="294.3" y="371.04" width="33.75" height="2.11" transform="translate(-171.97 329.02) rotate(-45)"/></g><g id="LWPOLYLINE-105" data-name="LWPOLYLINE"><rect class="cls-10" x="171.21" y="250.64" width="33.75" height="1.64" transform="translate(-122.72 206.65) rotate(-45)"/></g><g id="LWPOLYLINE-106" data-name="LWPOLYLINE"><rect class="cls-9" x="89.2" y="185.71" width="1.64" height="33.75"/></g><g id="LWPOLYLINE-107" data-name="LWPOLYLINE"><rect class="cls-9" x="89.2" y="230.47" width="1.64" height="33.75"/></g><g id="LWPOLYLINE-108" data-name="LWPOLYLINE"><rect class="cls-9" x="220.34" y="264.69" width="33.75" height="1.64"/></g><g id="LWPOLYLINE-109" data-name="LWPOLYLINE"><rect class="cls-9" x="170.18" y="208.85" width="1.64" height="22.5"/></g><g id="LWPOLYLINE-110" data-name="LWPOLYLINE"><rect class="cls-9" x="170.18" y="231.35" width="1.64" height="22.5"/></g><g id="LWPOLYLINE-111" data-name="LWPOLYLINE"><rect class="cls-10" x="125.55" y="274.45" width="1.64" height="33.75" transform="translate(-168.98 174.68) rotate(-45)"/></g><g id="LWPOLYLINE-112" data-name="LWPOLYLINE"><rect class="cls-9" x="98.34" y="309.46" width="33.75" height="1.64"/></g><g id="LWPOLYLINE-113" data-name="LWPOLYLINE"><rect class="cls-9" x="226.78" y="307.58" width="33.75" height="1.64"/></g><g id="LWPOLYLINE-114" data-name="LWPOLYLINE"><rect class="cls-9" x="292.17" y="342.5" width="1.64" height="28.13"/></g><g id="LWPOLYLINE-115" data-name="LWPOLYLINE"><rect class="cls-10" x="294.3" y="371.04" width="33.75" height="2.11" transform="translate(-171.97 329.02) rotate(-45)"/></g><g id="ARC-30" data-name="ARC"><path class="cls-9" d="M209.32,262.82A33.76,33.76,0,0,0,199.44,239"/></g><g id="ARC-31" data-name="ARC"><path class="cls-9" d="M137.72,270.08A33.77,33.77,0,0,0,113.85,280"/></g><g id="ARC-32" data-name="ARC"><path class="cls-9" d="M332.25,383.29a34.27,34.27,0,0,0-8.39-22.38"/></g><g id="ARC-33" data-name="ARC"><path class="cls-9" d="M209.32,262.82A33.76,33.76,0,0,0,199.44,239"/></g><g id="ARC-34" data-name="ARC"><path class="cls-9" d="M137.72,270.08A33.77,33.77,0,0,0,113.85,280"/></g><g id="ARC-35" data-name="ARC"><path class="cls-9" d="M332.25,383.29a34.27,34.27,0,0,0-8.39-22.38"/></g><g id="ARC-36" data-name="ARC"><path class="cls-10" d="M55,373.56a2.65,2.65,0,1,0-.64,0"/></g><g id="LWPOLYLINE-116" data-name="LWPOLYLINE"><rect class="cls-7" x="216.04" y="163.68" width="59.11" height="31.17"/></g><g id="LWPOLYLINE-117" data-name="LWPOLYLINE"><path class="cls-7" d="M269.67,179.46v-5.82A4.69,4.69,0,0,0,265,169H226.31a4.68,4.68,0,0,0-4.68,4.69v12.42a4.68,4.68,0,0,0,4.68,4.69H265a4.69,4.69,0,0,0,4.68-4.69v-5.82"/></g><g id="ARC-37" data-name="ARC"><path class="cls-7" d="M266.49,179.45a3.29,3.29,0,1,0,0,.79"/></g><g id="LWPOLYLINE-118" data-name="LWPOLYLINE"><path class="cls-7" d="M263.24,180.24h11.47v-.78H263.24a.38.38,0,0,0-.39.39A.39.39,0,0,0,263.24,180.24Z"/></g><g id="LWPOLYLINE-119" data-name="LWPOLYLINE"><path class="cls-7" d="M55,375.79h7.5a4.69,4.69,0,0,0,4.68-4.69V319.42a4.69,4.69,0,0,0-4.68-4.69h-15a4.69,4.69,0,0,0-4.69,4.69V371.1a4.69,4.69,0,0,0,4.69,4.69h6.87"/></g><g id="LWPOLYLINE-120" data-name="LWPOLYLINE"><rect class="cls-7" x="177.8" y="311.1" width="35.63" height="69.37"/></g><g id="ARC-38" data-name="ARC"><path class="cls-7" d="M196,373.19a3.29,3.29,0,1,0-.79,0"/></g><g id="LWPOLYLINE-121" data-name="LWPOLYLINE"><path class="cls-7" d="M195.22,369.93v10.54H196V369.93a.39.39,0,0,0-.78,0Z"/></g><g id="LWPOLYLINE-122" data-name="LWPOLYLINE"><polygon class="cls-7" points="71.68 311.1 71.64 381.36 36.62 381.25 36.66 310.99 71.68 311.1"/></g><g id="LWPOLYLINE-123" data-name="LWPOLYLINE"><rect class="cls-7" x="177.53" y="311.1" width="35.9" height="69.37"/></g><g id="LWPOLYLINE-124" data-name="LWPOLYLINE"><rect class="cls-7" x="177.8" y="311.1" width="35.63" height="69.37"/></g><g id="LWPOLYLINE-125" data-name="LWPOLYLINE"><rect class="cls-11" x="177.03" y="311.1" width="0.83" height="35.62"/></g><line class="cls-7" x1="177.03" y1="340.44" x2="177.86" y2="340.44"/><g id="LINE-17" data-name="LINE"><line class="cls-11" x1="231" y1="341.8" x2="256.31" y2="341.8"/></g><g id="LINE-18" data-name="LINE"><line class="cls-11" x1="256.31" y1="341.8" x2="256.31" y2="313.91"/></g><g id="LINE-19" data-name="LINE"><line class="cls-11" x1="256.31" y1="313.91" x2="231" y2="313.91"/></g><g id="LINE-20" data-name="LINE"><line class="cls-11" x1="231" y1="313.91" x2="231" y2="341.8"/></g><g id="LWPOLYLINE-126" data-name="LWPOLYLINE"><rect class="cls-11" x="412.41" y="276.29" width="27.89" height="23.2"/></g><g id="LWPOLYLINE-127" data-name="LWPOLYLINE"><polyline class="cls-7" points="428.86 212.54 452.6 212.54 452.6 235.04 428.86 235.04"/></g><g id="LWPOLYLINE-128" data-name="LWPOLYLINE"><rect class="cls-7" x="342.45" y="276.29" width="1.17" height="31.29"/></g><g id="LWPOLYLINE-129" data-name="LWPOLYLINE"><rect class="cls-7" x="343.62" y="276.29" width="68.79" height="23.44"/></g><g id="LWPOLYLINE-130" data-name="LWPOLYLINE"><polygon class="cls-11" points="428.55 235.04 341.98 235.04 341.98 201.29 428.55 201.29 428.55 212.54 452.6 212.54 452.6 235.04 428.55 235.04"/></g><g id="LWPOLYLINE-131" data-name="LWPOLYLINE"><polygon class="cls-11" points="452.6 276.29 440.42 276.27 440.42 299.71 452.6 299.73 452.6 276.29"/></g><g id="LWPOLYLINE-132" data-name="LWPOLYLINE"><polyline class="cls-7" points="374.42 218.2 374.42 232.25 400.77 232.25 400.77 218.2 374.42 218.2"/></g><rect class="cls-11" x="387.34" y="215.72" width="3.21" height="1.35" transform="translate(777.88 432.79) rotate(180)"/><path class="cls-11" d="M386.63,216.94a.89.89,0,0,0,.31.3V224a.49.49,0,1,0,1,0v-6.77a.93.93,0,0,0-1-1.59A.94.94,0,0,0,386.63,216.94Z"/><g id="CIRCLE-26" data-name="CIRCLE"><path class="cls-7" d="M379.87,282.17a.7.7,0,1,1,.7-.7.7.7,0,0,1-.7.7Z"/></g><g id="CIRCLE-27" data-name="CIRCLE"><path class="cls-7" d="M375.5,282.17a.7.7,0,0,1,0-1.4.7.7,0,1,1,0,1.4Z"/></g><g id="CIRCLE-28" data-name="CIRCLE"><path class="cls-7" d="M375.5,285a.7.7,0,1,1,0-1.39.7.7,0,1,1,0,1.39Z"/></g><g id="CIRCLE-29" data-name="CIRCLE"><path class="cls-7" d="M377.69,285a.7.7,0,1,1,.7-.7.7.7,0,0,1-.7.7Z"/></g><g id="CIRCLE-30" data-name="CIRCLE"><path class="cls-7" d="M379.87,285a.7.7,0,1,1,.7-.7.69.69,0,0,1-.7.7Z"/></g><g id="LWPOLYLINE-133" data-name="LWPOLYLINE"><rect class="cls-7" x="364.2" y="278.59" width="26.99" height="16.03" rx="0.38"/></g><circle class="cls-7" cx="369.01" cy="290.47" r="1.32"/><path class="cls-7" d="M373,287.29v5.85a.56.56,0,0,1-.57.56h-6.85a.57.57,0,0,1-.57-.56v-5.85a0,0,0,0,1,.05,0H373A0,0,0,0,1,373,287.29Z"/><circle class="cls-7" cx="377.69" cy="290.47" r="1.32"/><path class="cls-7" d="M381.68,287.29v5.85a.56.56,0,0,1-.57.56h-6.85a.57.57,0,0,1-.57-.56v-5.85s0,0,.05,0h7.89A0,0,0,0,1,381.68,287.29Z"/><circle class="cls-7" cx="386.37" cy="290.47" r="1.32"/><path class="cls-7" d="M390.36,287.29v5.85a.56.56,0,0,1-.56.56h-6.86a.56.56,0,0,1-.56-.56v-5.85a0,0,0,0,1,0,0h7.9A0,0,0,0,1,390.36,287.29Z"/><circle class="cls-7" cx="386.37" cy="282.9" r="1.32"/><path class="cls-7" d="M382.38,286.08v-5.85a.55.55,0,0,1,.56-.55h6.86a.55.55,0,0,1,.56.55v5.85a0,0,0,0,1,0,.05h-7.9A0,0,0,0,1,382.38,286.08Z"/><circle class="cls-7" cx="369.01" cy="282.9" r="1.32"/><path class="cls-7" d="M365,286.08v-5.85a.56.56,0,0,1,.57-.55h6.85a.55.55,0,0,1,.57.55v5.85a0,0,0,0,1-.05.05h-7.89A0,0,0,0,1,365,286.08Z"/><g id="LINE-21" data-name="LINE"><line class="cls-7" x1="407.21" y1="234.7" x2="407.21" y2="234.04"/><line class="cls-12" x1="407.21" y1="232.66" x2="407.21" y2="219.55"/><polyline class="cls-7" points="407.21 218.86 407.21 218.2 407.88 218.2"/><line class="cls-13" x1="409.16" y1="218.2" x2="423.96" y2="218.2"/><polyline class="cls-7" points="424.61 218.2 425.27 218.2 425.27 218.86"/><line class="cls-12" x1="425.27" y1="220.24" x2="425.27" y2="233.35"/><line class="cls-7" x1="425.27" y1="234.04" x2="425.27" y2="234.7"/></g><g id="LWPOLYLINE-134" data-name="LWPOLYLINE"><line class="cls-14" x1="343.67" y1="286.61" x2="412.41" y2="286.61"/></g><g id="LWPOLYLINE-135" data-name="LWPOLYLINE"><line class="cls-14" x1="154.71" y1="262.82" x2="154.71" y2="200.71"/></g><g id="LWPOLYLINE-136" data-name="LWPOLYLINE"><polyline class="cls-14" points="89.2 273.36 48.42 273.36 48.42 226.72"/></g><g id="LWPOLYLINE-137" data-name="LWPOLYLINE"><polyline class="cls-14" points="14.32 223.21 14.32 176.33 89.2 176.33"/></g><g id="LWPOLYLINE-138" data-name="LWPOLYLINE"><line class="cls-14" x1="279.05" y1="386.1" x2="279.05" y2="339.81"/></g><g id="LWPOLYLINE-139" data-name="LWPOLYLINE"><line class="cls-14" x1="154.71" y1="262.82" x2="154.71" y2="200.71"/></g><g id="LWPOLYLINE-140" data-name="LWPOLYLINE"><polyline class="cls-14" points="89.2 273.36 48.42 273.36 48.42 226.72"/></g><g id="LWPOLYLINE-141" data-name="LWPOLYLINE"><polyline class="cls-14" points="14.32 223.21 14.32 176.33 89.2 176.33"/></g><g id="LWPOLYLINE-142" data-name="LWPOLYLINE"><line class="cls-14" x1="279.05" y1="386.1" x2="279.05" y2="339.81"/></g><g id="LWPOLYLINE-143" data-name="LWPOLYLINE"><line class="cls-14" x1="341.8" y1="210.45" x2="428.55" y2="210.45"/></g><line class="cls-14" x1="428.86" y1="234.42" x2="428.86" y2="213.01"/><g id="LINE-22" data-name="LINE"><line class="cls-8" x1="161.24" y1="258.87" x2="148.18" y2="258.87"/></g><g id="LINE-23" data-name="LINE"><line class="cls-8" x1="161.24" y1="256.45" x2="148.18" y2="256.45"/></g><g id="LINE-24" data-name="LINE"><line class="cls-8" x1="161.24" y1="254.03" x2="148.18" y2="254.03"/></g><g id="LINE-25" data-name="LINE"><line class="cls-8" x1="161.24" y1="251.61" x2="148.18" y2="251.61"/></g><g id="LINE-26" data-name="LINE"><line class="cls-8" x1="161.24" y1="249.19" x2="148.18" y2="249.19"/></g><g id="LINE-27" data-name="LINE"><line class="cls-8" x1="148.18" y1="246.77" x2="161.24" y2="246.77"/></g><g id="LINE-28" data-name="LINE"><line class="cls-8" x1="20.85" y1="219.26" x2="7.79" y2="219.26"/></g><g id="LINE-29" data-name="LINE"><line class="cls-8" x1="20.85" y1="216.84" x2="7.79" y2="216.84"/></g><g id="LINE-30" data-name="LINE"><line class="cls-8" x1="20.85" y1="214.42" x2="7.79" y2="214.42"/></g><g id="LINE-31" data-name="LINE"><line class="cls-8" x1="20.85" y1="212" x2="7.79" y2="212"/></g><g id="LINE-32" data-name="LINE"><line class="cls-8" x1="20.85" y1="209.58" x2="7.79" y2="209.58"/></g><g id="LINE-33" data-name="LINE"><line class="cls-8" x1="7.79" y1="207.17" x2="20.85" y2="207.17"/></g><g id="LINE-34" data-name="LINE"><line class="cls-8" x1="41.9" y1="230.67" x2="54.95" y2="230.67"/></g><g id="LINE-35" data-name="LINE"><line class="cls-8" x1="41.9" y1="233.09" x2="54.95" y2="233.09"/></g><g id="LINE-36" data-name="LINE"><line class="cls-8" x1="41.9" y1="235.51" x2="54.95" y2="235.51"/></g><g id="LINE-37" data-name="LINE"><line class="cls-8" x1="41.9" y1="237.93" x2="54.95" y2="237.93"/></g><g id="LINE-38" data-name="LINE"><line class="cls-8" x1="41.9" y1="240.35" x2="54.95" y2="240.35"/></g><g id="LINE-39" data-name="LINE"><line class="cls-8" x1="54.95" y1="242.77" x2="41.9" y2="242.77"/></g><g id="LINE-40" data-name="LINE"><line class="cls-8" x1="85.26" y1="169.81" x2="85.26" y2="182.86"/></g><g id="LINE-41" data-name="LINE"><line class="cls-8" x1="82.84" y1="169.81" x2="82.84" y2="182.86"/></g><g id="LINE-42" data-name="LINE"><line class="cls-8" x1="80.42" y1="169.81" x2="80.42" y2="182.86"/></g><g id="LINE-43" data-name="LINE"><line class="cls-8" x1="78" y1="169.81" x2="78" y2="182.86"/></g><g id="LINE-44" data-name="LINE"><line class="cls-8" x1="75.58" y1="169.81" x2="75.58" y2="182.86"/></g><g id="LINE-45" data-name="LINE"><line class="cls-8" x1="73.16" y1="182.86" x2="73.16" y2="169.81"/></g><g id="LINE-46" data-name="LINE"><line class="cls-8" x1="31.05" y1="169.81" x2="31.05" y2="182.86"/></g><g id="LINE-47" data-name="LINE"><line class="cls-8" x1="28.63" y1="169.81" x2="28.63" y2="182.86"/></g><g id="LINE-48" data-name="LINE"><line class="cls-8" x1="26.21" y1="169.81" x2="26.21" y2="182.86"/></g><g id="LINE-49" data-name="LINE"><line class="cls-8" x1="23.79" y1="169.81" x2="23.79" y2="182.86"/></g><g id="LINE-50" data-name="LINE"><line class="cls-8" x1="21.37" y1="169.81" x2="21.37" y2="182.86"/></g><g id="LINE-51" data-name="LINE"><line class="cls-8" x1="18.95" y1="182.86" x2="18.95" y2="169.81"/></g><g id="LINE-52" data-name="LINE"><line class="cls-8" x1="285.57" y1="382.15" x2="272.52" y2="382.15"/></g><g id="LINE-53" data-name="LINE"><line class="cls-8" x1="285.58" y1="379.73" x2="272.52" y2="379.73"/></g><g id="LINE-54" data-name="LINE"><line class="cls-8" x1="285.58" y1="377.31" x2="272.52" y2="377.31"/></g><g id="LINE-55" data-name="LINE"><line class="cls-8" x1="285.58" y1="374.89" x2="272.52" y2="374.89"/></g><g id="LINE-56" data-name="LINE"><line class="cls-8" x1="285.58" y1="372.48" x2="272.52" y2="372.47"/></g><g id="LINE-57" data-name="LINE"><line class="cls-8" x1="272.52" y1="370.06" x2="285.58" y2="370.06"/></g><g id="LINE-58" data-name="LINE"><line class="cls-8" x1="20.85" y1="216.84" x2="7.79" y2="216.84"/></g><g id="LINE-59" data-name="LINE"><line class="cls-8" x1="41.9" y1="230.67" x2="54.95" y2="230.67"/></g><g id="LINE-60" data-name="LINE"><line class="cls-8" x1="41.9" y1="233.09" x2="54.95" y2="233.09"/></g><g id="LINE-61" data-name="LINE"><line class="cls-8" x1="41.9" y1="235.51" x2="54.95" y2="235.51"/></g><g id="LINE-62" data-name="LINE"><line class="cls-8" x1="41.9" y1="237.93" x2="54.95" y2="237.93"/></g><g id="LINE-63" data-name="LINE"><line class="cls-8" x1="41.9" y1="240.35" x2="54.95" y2="240.35"/></g><g id="LINE-64" data-name="LINE"><line class="cls-8" x1="54.95" y1="242.77" x2="41.9" y2="242.77"/></g><g id="LINE-65" data-name="LINE"><line class="cls-8" x1="85.26" y1="169.81" x2="85.26" y2="182.86"/></g><g id="LINE-66" data-name="LINE"><line class="cls-8" x1="21.37" y1="169.81" x2="21.37" y2="182.86"/></g><g id="LINE-67" data-name="LINE"><line class="cls-8" x1="285.58" y1="379.73" x2="272.52" y2="379.73"/></g><g id="ARC-39" data-name="ARC"><path class="cls-11" d="M153.2,364.92c-.33,3-1,11-1,11"/></g><g id="ARC-40" data-name="ARC"><path class="cls-11" d="M163.9,371.9a.81.81,0,0,0,.73-.5c.14-.33.26-.66.38-1a14,14,0,0,0,.61-2.79c.06-.5.1-1,.12-1.51a15,15,0,0,0-.32-4,9.64,9.64,0,0,0-2.92-5,4.55,4.55,0,0,0-6.2.06,9.66,9.66,0,0,0-2.82,5.1,15,15,0,0,0-.24,4c0,.51.08,1,.15,1.51a14.61,14.61,0,0,0,.66,2.78c.12.33.26.66.4,1a.8.8,0,0,0,.74.48Z"/></g><g id="ARC-41" data-name="ARC"><path class="cls-11" d="M165.75,364.8c.39,3,1,11.08,1,11.08"/></g><g id="ARC-42" data-name="ARC"><path class="cls-11" d="M152.25,375.74a1,1,0,0,1,.92-1,52.58,52.58,0,0,1,12.62,0,1,1,0,0,1,.92,1v0c0,1.08.09,2.16.12,3.25a1.39,1.39,0,0,1-1.27,1.41c-2,.18-4.05.26-6.08.26s-4-.08-6.07-.26a1.39,1.39,0,0,1-1.28-1.41c0-1.09.07-2.17.12-3.25Z"/></g><g id="LWPOLYLINE-144" data-name="LWPOLYLINE"><path class="cls-11" d="M123.29,374.5h7.89a.87.87,0,0,0,.88-.87V363.1a.88.88,0,0,0-.88-.88H114.52a.88.88,0,0,0-.88.88v10.53a.87.87,0,0,0,.88.87h8.77Z"/></g><g id="ARC-43" data-name="ARC"><path class="cls-11" d="M122.41,376.69a1.1,1.1,0,0,0,.44,2.12,1.11,1.11,0,0,0,.44-2.12Z"/></g><g id="ARC-44" data-name="ARC"><path class="cls-11" d="M117.35,377.92a1.09,1.09,0,0,0,1.08.89,1.11,1.11,0,1,0-1.08-1.33Z"/></g><g id="ARC-45" data-name="ARC"><path class="cls-11" d="M128.36,377.92a1.11,1.11,0,0,1-2.19-.22,1.1,1.1,0,0,1,1.1-1.1,1.11,1.11,0,0,1,1.09.88Z"/></g><g id="LINE-68" data-name="LINE"><path class="cls-11" d="M122.41,372.39v5.31a.44.44,0,0,0,.88,0v-5.31a.44.44,0,1,0-.88,0Z"/></g><line class="cls-11" x1="118.44" y1="377.7" x2="115.33" y2="377.7"/><line class="cls-11" x1="130.37" y1="377.7" x2="127.26" y2="377.7"/><g id="LWPOLYLINE-145" data-name="LWPOLYLINE"><path class="cls-11" d="M97,374.5h7.9a.87.87,0,0,0,.87-.87V363.1a.88.88,0,0,0-.87-.88H88.22a.88.88,0,0,0-.87.88v10.53a.87.87,0,0,0,.87.87H97Z"/></g><g id="LWPOLYLINE-146" data-name="LWPOLYLINE"><rect class="cls-7" x="80.55" y="359.59" width="63.15" height="21.05"/></g><g id="ARC-46" data-name="ARC"><path class="cls-11" d="M95.89,376.69a1.11,1.11,0,0,0,.44,2.12,1.11,1.11,0,0,0,1-.67,1.1,1.1,0,0,0-.57-1.45Z"/></g><g id="ARC-47" data-name="ARC"><path class="cls-11" d="M90.83,377.92a1.1,1.1,0,0,0,1.08.89,1.11,1.11,0,1,0-1.08-1.33Z"/></g><g id="ARC-48" data-name="ARC"><path class="cls-11" d="M101.84,377.92a1.1,1.1,0,1,1,0-.44Z"/></g><g id="LINE-69" data-name="LINE"><path class="cls-11" d="M95.89,372.39v5.31a.45.45,0,0,0,.89,0v-5.31a.45.45,0,0,0-.89,0Z"/></g><line class="cls-11" x1="91.92" y1="377.7" x2="88.82" y2="377.7"/><line class="cls-11" x1="103.85" y1="377.7" x2="100.75" y2="377.7"/><g id="ARC-49" data-name="ARC"><path class="cls-11" d="M269.49,247.12c3.15.35,11.45,1,11.45,1"/></g><g id="ARC-50" data-name="ARC"><path class="cls-11" d="M276.78,235.94a.84.84,0,0,0-.52-.77q-.51-.21-1.05-.39a14.4,14.4,0,0,0-2.91-.64c-.52-.06-1.05-.1-1.58-.13a15.52,15.52,0,0,0-4.13.34,10.05,10.05,0,0,0-5.27,3.05,4.75,4.75,0,0,0,.07,6.48,10,10,0,0,0,5.32,2.94,15.58,15.58,0,0,0,4.14.26c.53,0,1-.09,1.58-.16a14.57,14.57,0,0,0,2.9-.69c.35-.13.69-.27,1-.42a.85.85,0,0,0,.5-.77Z"/></g><g id="ARC-51" data-name="ARC"><path class="cls-11" d="M269.37,234c3.13-.41,11.57-1,11.57-1"/></g><g id="ARC-52" data-name="ARC"><path class="cls-11" d="M280.79,248.11a1.08,1.08,0,0,1-1-1,56,56,0,0,1,0-13.19,1.08,1.08,0,0,1,1-1h0c1.13-.06,2.26-.1,3.4-.12a1.45,1.45,0,0,1,1.48,1.33q.27,3.16.27,6.35c0,2.11-.09,4.23-.27,6.34a1.45,1.45,0,0,1-1.48,1.33c-1.14,0-2.27-.06-3.4-.12Z"/></g><g id="LWPOLYLINE-147" data-name="LWPOLYLINE"><rect class="cls-11" x="266.21" y="198.4" width="19.71" height="25.67"/></g><g id="LWPOLYLINE-148" data-name="LWPOLYLINE"><path class="cls-11" d="M270.06,203.44a1.1,1.1,0,0,0-1.1,1.1v13.38a1.1,1.1,0,0,0,1.1,1.1H280a.92.92,0,0,0,.92-.92V204.36a.92.92,0,0,0-.92-.92Z"/></g><g id="ARC-53" data-name="ARC"><path class="cls-11" d="M282.42,211.69a1.16,1.16,0,1,0,0-.92Z"/></g><g id="ARC-54" data-name="ARC"><path class="cls-11" d="M283.71,217a1.16,1.16,0,1,0-.46,0Z"/></g><g id="ARC-55" data-name="ARC"><path class="cls-11" d="M283.71,205.48a1.16,1.16,0,1,1-.46,0Z"/></g><g id="LINE-70" data-name="LINE"><path class="cls-11" d="M277.93,211.69h5.55a.46.46,0,0,0,0-.92h-5.55a.46.46,0,1,0,0,.92Z"/></g><line class="cls-11" x1="283.48" y1="215.84" x2="283.48" y2="219.09"/><line class="cls-11" x1="283.48" y1="203.37" x2="283.48" y2="206.62"/><g id="LWPOLYLINE-149" data-name="LWPOLYLINE"><polygon class="cls-15" points="346.2 391.84 353.52 391.84 353.52 307 434.91 307 447.8 307 460.04 307 460.04 0.82 459.09 2.24 457.42 4.04 455.47 5.54 453.31 6.7 450.98 7.49 448.56 7.89 446.1 7.89 443.68 7.49 441.35 6.7 439.19 5.54 437.24 4.04 435.56 2.24 434.2 0.2 430.45 0.2 430.45 48.83 451.08 48.83 451.08 160.16 428.7 160.16 428.7 212.54 452.6 212.54 452.6 299.73 343.62 299.73 343.62 307.58 335.88 307.58 335.88 311.1 350.65 311.1 350.65 383.29 332.25 383.29 332.25 389.03 346.2 389.03 346.2 391.84"/></g><g id="LWPOLYLINE-150" data-name="LWPOLYLINE"><polygon class="cls-15" points="294.76 391.84 295.57 391.84 295.57 389.03 298.5 389.03 298.5 383.29 293.81 383.28 293.81 370.63 290.3 370.63 290.3 386.1 267.8 386.1 267.8 339.81 290.3 339.81 290.3 342.5 293.81 342.5 293.81 311.1 302.13 311.1 302.13 307.58 295.57 307.58 295.57 303.83 292.06 303.83 292.06 307.58 260.53 307.58 260.53 311.1 264.28 311.1 264.28 344.85 223.03 344.85 223.03 311.1 226.78 311.1 226.78 307.58 143.46 307.58 143.46 303.83 137.72 303.83 137.72 307.58 132.09 307.58 132.09 311.1 213.42 311.1 213.42 380.47 177.8 380.47 177.8 346.72 174.28 346.72 174.28 380.47 37.17 380.47 37.17 311.1 98.34 311.1 98.34 307.58 92.72 307.58 92.72 264.22 89.2 264.22 89.2 284.61 37.17 284.61 37.17 226.72 89.2 226.72 89.2 230.47 92.72 230.47 92.72 219.46 89.2 219.46 89.2 223.21 3.07 223.21 3.07 165.08 89.2 165.08 89.2 185.71 92.72 185.71 92.72 165.08 98.34 165.08 98.34 161.57 3.07 161.57 3.07 35.83 25.45 35.83 25.45 0.9 21.7 0.9 20.34 2.95 18.67 4.74 16.72 6.24 14.48 7.42 12.23 8.19 9.81 8.59 7.35 8.59 4.93 8.19 2.6 7.4 0.2 6.06 0.2 229.72 29.79 229.72 29.79 389.03 213.42 389.03 213.42 391.84 293.52 391.84 294.76 391.84"/></g><g id="LWPOLYLINE-151" data-name="LWPOLYLINE"><polygon class="cls-15" points="292.06 270.08 295.57 270.08 295.57 160.16 287.72 160.16 287.72 48.83 317.95 48.83 317.95 0.2 314.2 0.2 312.84 2.24 311.17 4.04 309.22 5.54 307.06 6.7 304.73 7.49 302.31 7.89 299.85 7.89 297.43 7.49 295.1 6.7 292.94 5.54 290.99 4.04 289.31 2.24 287.95 0.2 284.2 0.2 284.2 160.16 209.2 160.16 209.2 163.68 213.07 163.68 213.07 262.82 209.32 262.82 209.32 266.33 220.34 266.33 220.34 259.54 216.59 259.54 216.59 163.68 274.71 163.68 274.71 196.96 285.96 196.96 285.96 259.54 254.09 259.54 254.09 266.33 292.06 266.33 292.06 270.08"/></g><g id="LWPOLYLINE-152" data-name="LWPOLYLINE"><polygon class="cls-15" points="137.72 270.08 143.46 270.08 143.46 266.33 175.57 266.33 175.57 262.82 171.82 262.82 171.82 253.85 168.31 253.85 168.31 262.82 143.46 262.82 143.46 199.89 168.31 199.89 168.31 208.85 171.82 208.85 171.82 163.68 175.45 163.68 175.45 160.16 160.45 160.16 160.45 35.83 171.7 35.83 171.7 0.9 167.95 0.9 166.59 2.95 164.92 4.74 162.97 6.24 160.81 7.4 158.48 8.19 156.06 8.59 153.6 8.59 151.18 8.19 148.85 7.4 146.69 6.24 144.74 4.74 143.06 2.95 141.7 0.9 137.95 0.9 137.95 35.83 154.71 35.83 154.71 161.57 132.09 161.57 132.09 165.08 137.72 165.08 137.72 259.28 137.72 270.08"/></g><g id="LINE-71" data-name="LINE"><path class="cls-16" d="M55,380.33v-9.4a.32.32,0,0,0-.63,0v0a.32.32,0,0,1,.63,0"/></g><path class="cls-17" d="M189.8,130.72H192a1.45,1.45,0,0,1,1.63,1.44,1.18,1.18,0,0,1-.65,1.15v0a1.34,1.34,0,0,1,.86,1.33c0,1.08-.68,1.65-2,1.65h-2Zm2,2.37c.73,0,1.09-.29,1.09-.89s-.37-.86-1.09-.86h-1.37v1.75Zm-.09,2.6c1,0,1.39-.31,1.39-1s-.39-1-1.38-1h-1.29v2Z"/><path class="cls-17" d="M195.43,130.72h3.35v.62h-2.7v1.79h2.48v.59h-2.48v2h2.7v.62h-3.35Z"/><path class="cls-17" d="M200.38,130.72h1.74c1.42,0,2.41,1,2.41,2.79,0,2-1,2.8-2.46,2.8h-1.69Zm1.65,5c1.14,0,1.84-.6,1.84-2.18,0-1.43-.7-2.17-1.79-2.17H201v4.35Z"/><path class="cls-17" d="M208.67,134l1.23,2.3h-.78L207.94,134h-1.12v2.27h-.66v-5.59h2c1.17,0,1.87.62,1.87,1.65a1.54,1.54,0,0,1-1.4,1.62Zm-.52-.59c.82,0,1.25-.36,1.25-1s-.42-1-1.25-1h-1.33v2.08Z"/><path class="cls-17" d="M211.33,133.52c0-1.76.94-2.92,2.36-2.92s2.36,1.16,2.36,2.92-1,2.91-2.36,2.91S211.33,135.27,211.33,133.52Zm4,0c0-1.42-.64-2.3-1.69-2.3s-1.7.88-1.7,2.3.65,2.29,1.7,2.29S215.38,134.93,215.38,133.52Z"/><path class="cls-17" d="M217.39,133.52c0-1.76.94-2.92,2.36-2.92s2.36,1.16,2.36,2.92-1,2.91-2.36,2.91S217.39,135.27,217.39,133.52Zm4.05,0c0-1.42-.64-2.3-1.69-2.3s-1.7.88-1.7,2.3.65,2.29,1.7,2.29S221.44,134.93,221.44,133.52Z"/><path class="cls-17" d="M223.74,130.72h.88l1.81,4.44h0l1.81-4.44h.88v5.59h-.66v-4.54h0l-1.88,4.54h-.28l-1.89-4.54h0v4.54h-.65Z"/><path class="cls-17" d="M234.18,135.69h3v.62h-3.72v-.52a2,2,0,0,1,.24-1.07c.2-.37.54-.64,1.42-1.09,1.16-.6,1.49-.94,1.49-1.5s-.48-.91-1.16-.91a1.3,1.3,0,0,0-1.4,1.36l-.67-.06a1.93,1.93,0,0,1,2.07-1.92,1.68,1.68,0,0,1,1.83,1.53c0,.83-.42,1.31-1.65,1.94-.93.47-1.19.65-1.33.93A1.58,1.58,0,0,0,234.18,135.69Z"/><path class="cls-17" d="M189.06,140l-1.24.81v-.7l1.32-.86h.59v5.59h-.67Z"/><path class="cls-17" d="M192.5,140l-1.25.81v-.7l1.33-.86h.58v5.59h-.66Z"/><path class="cls-17" d="M195.13,139.22h.58V141h-.58Z"/><path class="cls-17" d="M196.85,141.62h2.08v.6h-2.08Z"/><path class="cls-17" d="M200.38,142c0-1.82.9-2.92,2.21-2.92s2.22,1.1,2.22,2.92-.91,2.91-2.22,2.91S200.38,143.83,200.38,142Zm3.76,0c0-1.47-.61-2.3-1.55-2.3s-1.55.83-1.55,2.3.62,2.29,1.55,2.29S204.14,143.48,204.14,142Z"/><path class="cls-17" d="M206.33,139.22h.58V141h-.58Zm1.06,0H208V141h-.58Z"/><path class="cls-17" d="M211.67,143.37l1.31-1.29-1.31-1.3.39-.39,1.29,1.31,1.29-1.31.39.39-1.31,1.3,1.31,1.29-.39.4-1.29-1.32-1.29,1.32Z"/><path class="cls-17" d="M219.21,140l-1.25.81v-.7l1.33-.86h.58v5.59h-.66Z"/><path class="cls-17" d="M222.33,144.19h3v.62h-3.72v-.52a2,2,0,0,1,.23-1.07c.2-.37.55-.64,1.43-1.09,1.16-.6,1.49-.94,1.49-1.5s-.49-.91-1.17-.91a1.31,1.31,0,0,0-1.4,1.36l-.66-.06a1.92,1.92,0,0,1,2.06-1.92,1.68,1.68,0,0,1,1.83,1.53c0,.83-.41,1.31-1.64,1.94-.94.47-1.19.65-1.34.93A1.58,1.58,0,0,0,222.33,144.19Z"/><path class="cls-17" d="M227.17,139.22h.59V141h-.59Z"/><path class="cls-17" d="M229.17,141.62h2.09v.6h-2.09Z"/><path class="cls-17" d="M234.57,139.86v0h-2.91v-.62h3.66v.57l-2.27,5h-.75Z"/><path class="cls-17" d="M236.94,139.22h.58V141h-.58Zm1.06,0h.58V141H238Z"/><path class="cls-17" d="M40.43,86.89h.88l1.82,4.44h0L45,86.89h.88v5.6h-.66V87.94h0l-1.89,4.55H43l-1.88-4.55h0v4.55h-.66Z"/><path class="cls-17" d="M50.78,91.36H48.26l-.39,1.13h-.68l2-5.6h.64l2,5.6h-.68Zm-.2-.58-1-3h0l-1,3Z"/><path class="cls-17" d="M52.74,90.63l.65-.11A1.46,1.46,0,0,0,55.05,92c.77,0,1.28-.36,1.28-.9s-.37-.88-1.54-1.25C53.46,89.39,53,89,53,88.25s.73-1.48,1.79-1.48a2,2,0,0,1,2,1.63l-.65.14a1.34,1.34,0,0,0-1.39-1.15c-.68,0-1.13.34-1.13.86s.32.66,1.35,1c1.45.47,2,1,2,1.84s-.79,1.54-2,1.54A2.05,2.05,0,0,1,52.74,90.63Z"/><path class="cls-17" d="M59.78,87.51H58v-.62h4.15v.62H60.44v5h-.66Z"/><path class="cls-17" d="M63.65,86.89H67v.62h-2.7V89.3h2.48v.59H64.31v2H67v.63H63.65Z"/><path class="cls-17" d="M71.11,90.18l1.23,2.31h-.78l-1.18-2.28H69.26v2.28H68.6v-5.6h2c1.17,0,1.87.62,1.87,1.65a1.55,1.55,0,0,1-1.4,1.63Zm-.52-.59c.82,0,1.25-.36,1.25-1s-.42-1-1.25-1H69.26v2.08Z"/><path class="cls-17" d="M36.6,95.39h2.15a1.46,1.46,0,0,1,1.63,1.45A1.21,1.21,0,0,1,39.73,98h0a1.34,1.34,0,0,1,.86,1.33c0,1.08-.68,1.66-2,1.66h-2Zm2,2.37c.73,0,1.09-.29,1.09-.89S39.35,96,38.63,96H37.26v1.75Zm-.1,2.6c1,0,1.4-.31,1.4-1s-.4-1-1.38-1H37.26v2Z"/><path class="cls-17" d="M42.22,95.39h3.36V96h-2.7V97.8h2.48v.59H42.88v2h2.7V101H42.22Z"/><path class="cls-17" d="M47.18,95.39h1.74c1.41,0,2.41,1,2.41,2.79,0,2-1,2.81-2.46,2.81H47.18Zm1.65,5c1.14,0,1.84-.6,1.84-2.18S50,96,48.88,96H47.83v4.35Z"/><path class="cls-17" d="M55.47,98.68,56.7,101h-.78l-1.18-2.28H53.62V101H53v-5.6h2c1.17,0,1.86.62,1.86,1.65a1.55,1.55,0,0,1-1.39,1.63ZM55,98.09c.82,0,1.25-.36,1.25-1s-.42-1-1.25-1H53.62v2.08Z"/><path class="cls-17" d="M58.13,98.19c0-1.75.94-2.92,2.36-2.92s2.36,1.17,2.36,2.92-1,2.92-2.36,2.92S58.13,99.94,58.13,98.19Zm4,0c0-1.42-.65-2.3-1.69-2.3s-1.7.88-1.7,2.3.65,2.29,1.7,2.29S62.18,99.6,62.18,98.19Z"/><path class="cls-17" d="M64.19,98.19c0-1.75.94-2.92,2.36-2.92s2.36,1.17,2.36,2.92-1,2.92-2.36,2.92S64.19,99.94,64.19,98.19Zm4,0c0-1.42-.64-2.3-1.69-2.3s-1.7.88-1.7,2.3.65,2.29,1.7,2.29S68.24,99.6,68.24,98.19Z"/><path class="cls-17" d="M70.54,95.39h.88l1.81,4.44h0l1.81-4.44h.88V101h-.66V96.44h0L73.37,101H73.1l-1.89-4.55h0V101h-.65Z"/><path class="cls-17" d="M30.76,104.64l-1.25.81v-.7l1.33-.86h.59v5.6h-.67Z"/><path class="cls-17" d="M33,107.62l.65-.1c.11,1,.58,1.46,1.41,1.46a1.07,1.07,0,0,0,1.2-1.08c0-.76-.43-1.12-1.32-1.12h-.4v-.57H35a1.05,1.05,0,0,0,1.17-.91c0-.57-.4-.92-1.06-.92a1.17,1.17,0,0,0-1.26,1.05l-.65-.09a1.8,1.8,0,0,1,1.91-1.57,1.54,1.54,0,0,1,1.73,1.49,1.35,1.35,0,0,1-.76,1.17v0a1.47,1.47,0,0,1,.89,1.45,1.69,1.69,0,0,1-1.85,1.71A2,2,0,0,1,33,107.62Z"/><path class="cls-17" d="M38.59,103.89h.58v1.78h-.58Z"/><path class="cls-17" d="M40.31,106.29H42.4v.6H40.31Z"/><path class="cls-17" d="M43.67,108l.65-.16a1.41,1.41,0,1,0,1.43-1.59,1.83,1.83,0,0,0-1.35.59l-.59-.14.54-2.82h2.93v.62H44.85l-.3,1.55h0a2.05,2.05,0,0,1,1.28-.38,1.88,1.88,0,0,1,1.95,1.92,1.93,1.93,0,0,1-2,2A2,2,0,0,1,43.67,108Z"/><path class="cls-17" d="M49.05,103.89h.58v1.78h-.58Zm1.06,0h.58v1.78h-.58Z"/><path class="cls-17" d="M54.39,108.05l1.31-1.3-1.31-1.29.39-.4,1.29,1.31,1.29-1.31.39.4-1.31,1.29,1.31,1.3-.39.39-1.29-1.31-1.29,1.31Z"/><path class="cls-17" d="M61.93,104.64l-1.25.81v-.7l1.33-.86h.58v5.6h-.66Z"/><path class="cls-17" d="M65.06,108.86h3v.63H64.35V109a2,2,0,0,1,.23-1.07c.2-.36.55-.64,1.43-1.09,1.16-.6,1.49-.94,1.49-1.5s-.49-.91-1.17-.91a1.29,1.29,0,0,0-1.39,1.36l-.67,0a1.93,1.93,0,0,1,2.06-1.93,1.68,1.68,0,0,1,1.84,1.53c0,.83-.42,1.31-1.65,1.94-.94.47-1.19.65-1.34.93A1.49,1.49,0,0,0,65.06,108.86Z"/><path class="cls-17" d="M69.89,103.89h.59v1.78h-.59Z"/><path class="cls-17" d="M71.89,106.29H74v.6H71.89Z"/><path class="cls-17" d="M79.35,106.35c0,2.27-.61,3.26-2,3.26a1.78,1.78,0,0,1-1.8-1.43l.61-.16a1.18,1.18,0,0,0,1.19,1c.89,0,1.3-.57,1.36-2h0a1.71,1.71,0,0,1-1.44.63,1.79,1.79,0,0,1-2-1.92,1.88,1.88,0,0,1,2-1.89C78.52,103.77,79.35,104.63,79.35,106.35Zm-.77-.65a1.33,1.33,0,1,0-1.32,1.3A1.24,1.24,0,0,0,78.58,105.7Z"/><path class="cls-17" d="M80.93,103.89h.59v1.78h-.59Zm1.06,0h.58v1.78H82Z"/><path class="cls-17" d="M343.74,95h.66v5h2.52v.62h-3.18Z"/><path class="cls-17" d="M348.39,95h.66v5.59h-.66Z"/><path class="cls-17" d="M350.38,95h.7l1.66,4.71h0L354.43,95h.69l-2,5.59h-.7Z"/><path class="cls-17" d="M356.47,95h.65v5.59h-.65Z"/><path class="cls-17" d="M359,95h.78l2.54,4.56h0V95H363v5.59h-.78L359.7,96h0v4.56H359Z"/><path class="cls-17" d="M364.66,97.8c0-1.78.93-2.92,2.36-2.92a2.07,2.07,0,0,1,2.13,1.84l-.66.12A1.43,1.43,0,0,0,367,95.5c-1,0-1.7.88-1.7,2.3s.65,2.29,1.7,2.29a1.43,1.43,0,0,0,1.5-1.64h-1.43v-.62h2.07v.57a2.08,2.08,0,0,1-2.14,2.31C365.59,100.71,364.66,99.57,364.66,97.8Z"/><path class="cls-17" d="M372.77,100.71l2.86-6,.45.2-2.87,6Z"/><path class="cls-17" d="M380,95h1.75c1.41,0,2.41,1,2.41,2.79,0,2-1,2.8-2.46,2.8H380Zm1.66,5c1.13,0,1.84-.6,1.84-2.18s-.71-2.17-1.79-2.17h-1.05V100Z"/><path class="cls-17" d="M385.81,95h.66v5.59h-.66Z"/><path class="cls-17" d="M388.38,95h.77l2.55,4.56h0V95h.67v5.59h-.79L389.05,96h0v4.56h-.65Z"/><path class="cls-17" d="M394.3,95H395v5.59h-.66Z"/><path class="cls-17" d="M396.87,95h.77l2.55,4.56h0V95h.66v5.59h-.78L397.54,96h0v4.56h-.65Z"/><path class="cls-17" d="M402.49,97.8c0-1.78.93-2.92,2.36-2.92A2.07,2.07,0,0,1,407,96.72l-.66.12a1.43,1.43,0,0,0-1.47-1.34c-1,0-1.69.88-1.69,2.3s.65,2.29,1.69,2.29a1.43,1.43,0,0,0,1.5-1.64h-1.42v-.62H407v.57a2.09,2.09,0,0,1-2.15,2.31C403.42,100.71,402.49,99.57,402.49,97.8Z"/><path class="cls-17" d="M413.67,98.29l1.23,2.3h-.77l-1.19-2.27h-1.12v2.27h-.65V95h2c1.16,0,1.86.62,1.86,1.65a1.55,1.55,0,0,1-1.4,1.63Zm-.52-.59c.82,0,1.25-.36,1.25-1s-.42-1-1.25-1h-1.33V97.7Z"/><path class="cls-17" d="M416.33,97.8c0-1.76.94-2.92,2.36-2.92s2.36,1.16,2.36,2.92-.94,2.91-2.36,2.91S416.33,99.55,416.33,97.8Zm4.06,0c0-1.42-.65-2.3-1.7-2.3s-1.69.88-1.69,2.3.64,2.29,1.69,2.29S420.39,99.21,420.39,97.8Z"/><path class="cls-17" d="M422.39,97.8c0-1.76.95-2.92,2.36-2.92s2.36,1.16,2.36,2.92-.94,2.91-2.36,2.91S422.39,99.55,422.39,97.8Zm4.06,0c0-1.42-.65-2.3-1.7-2.3s-1.69.88-1.69,2.3.64,2.29,1.69,2.29S426.45,99.21,426.45,97.8Z"/><path class="cls-17" d="M428.74,95h.88l1.82,4.44h0L433.27,95h.87v5.59h-.66V96.05h0l-1.89,4.54h-.28l-1.89-4.54h0v4.54h-.66Z"/><path class="cls-17" d="M363.25,104.25l-1.25.81v-.7l1.33-.86h.59v5.59h-.67Z"/><path class="cls-17" d="M368.13,108h-2.79v-.58l2.46-3.87h1v3.87h.71V108h-.71v1.14h-.67Zm0-.58V104h0L366,107.37Z"/><path class="cls-17" d="M370.86,103.5h.59v1.78h-.59Z"/><path class="cls-17" d="M372.59,105.9h2.08v.6h-2.08Z"/><path class="cls-17" d="M380.39,107.29a1.87,1.87,0,0,1-2,1.92c-1.46,0-2.29-1.09-2.29-2.83s1-3,2.32-3a1.81,1.81,0,0,1,1.87,1.49l-.63.15a1.18,1.18,0,0,0-1.23-1c-.92,0-1.6.88-1.65,2.23h0a1.88,1.88,0,0,1,1.67-.84A1.86,1.86,0,0,1,380.39,107.29Zm-.64,0a1.28,1.28,0,0,0-1.35-1.35,1.33,1.33,0,0,0-1.4,1.35,1.31,1.31,0,0,0,1.41,1.32A1.28,1.28,0,0,0,379.75,107.29Z"/><path class="cls-17" d="M381.93,103.5h.58v1.78h-.58Zm1.05,0h.58v1.78H383Z"/><path class="cls-17" d="M387.26,107.66l1.31-1.3-1.31-1.3.39-.39,1.29,1.31,1.29-1.31.4.39-1.31,1.3,1.31,1.3-.4.39-1.29-1.31-1.29,1.31Z"/><path class="cls-17" d="M394.8,104.25l-1.24.81v-.7l1.32-.86h.59v5.59h-.67Z"/><path class="cls-17" d="M401.39,107.29a1.87,1.87,0,0,1-2,1.92c-1.46,0-2.29-1.09-2.29-2.83s1-3,2.32-3a1.82,1.82,0,0,1,1.87,1.49l-.63.15a1.18,1.18,0,0,0-1.23-1c-.92,0-1.6.88-1.65,2.23h0a1.88,1.88,0,0,1,1.67-.84A1.86,1.86,0,0,1,401.39,107.29Zm-.64,0a1.28,1.28,0,0,0-1.35-1.35,1.33,1.33,0,0,0-1.4,1.35,1.31,1.31,0,0,0,1.41,1.32A1.29,1.29,0,0,0,400.75,107.29Z"/><path class="cls-17" d="M402.92,103.5h.58v1.78h-.58Z"/><path class="cls-17" d="M404.92,105.9H407v.6h-2.09Z"/><path class="cls-17" d="M408.22,107.23l.66-.1c.11,1,.58,1.46,1.41,1.46a1.07,1.07,0,0,0,1.2-1.08c0-.76-.43-1.12-1.32-1.12h-.4v-.57h.4a1.05,1.05,0,0,0,1.17-.91c0-.57-.4-.93-1.06-.93A1.17,1.17,0,0,0,409,105l-.65-.1a1.8,1.8,0,0,1,1.91-1.56,1.54,1.54,0,0,1,1.73,1.48,1.36,1.36,0,0,1-.76,1.18v0a1.47,1.47,0,0,1,.89,1.45,1.68,1.68,0,0,1-1.85,1.7A2,2,0,0,1,408.22,107.23Z"/><path class="cls-17" d="M413.79,103.5h.58v1.78h-.58Zm1,0h.59v1.78h-.59Z"/><path class="cls-17" d="M305.11,334.21h3.37v.63h-2.71v2h2.49v.59h-2.49v2.38h-.66Z"/><path class="cls-17" d="M310,337c0-1.75.94-2.92,2.35-2.92s2.36,1.17,2.36,2.92-.94,2.92-2.36,2.92S310,338.76,310,337Zm4,0c0-1.41-.65-2.29-1.7-2.29s-1.69.88-1.69,2.29.65,2.3,1.69,2.3S314.09,338.43,314.09,337Z"/><path class="cls-17" d="M317.74,337.48l-2-3.27h.77l1.51,2.62h0l1.52-2.62h.77l-2,3.27v2.33h-.67Z"/><path class="cls-17" d="M322,334.21h3.36v.63h-2.7v1.79h2.48v.59h-2.48v2h2.7v.62H322Z"/><path class="cls-17" d="M329.79,337.51l1.23,2.3h-.78l-1.18-2.27h-1.12v2.27h-.66v-5.6h2c1.17,0,1.87.63,1.87,1.66a1.54,1.54,0,0,1-1.4,1.62Zm-.52-.6c.82,0,1.25-.35,1.25-1s-.42-1-1.25-1h-1.33v2.07Z"/><path class="cls-17" d="M235.29,326.86H236l.83,4.55h0l1.38-4.55h.63l1.39,4.55h0l.82-4.55h.68l-1,5.6h-.8l-1.37-4.5h0l-1.37,4.5h-.81Z"/><path class="cls-17" d="M242.67,332.58l2.85-6,.45.2-2.86,6Z"/><path class="cls-17" d="M247.66,326.86h1.74c1.42,0,2.42,1,2.42,2.79,0,2-1,2.81-2.46,2.81h-1.7Zm1.66,5c1.13,0,1.83-.59,1.83-2.18,0-1.43-.7-2.16-1.79-2.16h-1v4.34Z"/><path class="cls-17" d="M433.49,220.68l.65-.11A1.46,1.46,0,0,0,435.8,222c.77,0,1.28-.36,1.28-.9s-.37-.88-1.54-1.25c-1.33-.44-1.78-.83-1.78-1.58s.73-1.48,1.79-1.48a2,2,0,0,1,2,1.63l-.65.13a1.34,1.34,0,0,0-1.39-1.14c-.68,0-1.13.34-1.13.86s.32.66,1.35,1c1.45.47,2,1,2,1.84s-.79,1.53-1.95,1.53A2,2,0,0,1,433.49,220.68Z"/><path class="cls-17" d="M438.82,219.74c0-1.76.95-2.92,2.36-2.92s2.36,1.16,2.36,2.92-.94,2.91-2.36,2.91S438.82,221.49,438.82,219.74Zm4.06,0c0-1.42-.65-2.3-1.7-2.3s-1.69.88-1.69,2.3.65,2.29,1.69,2.29S442.88,221.15,442.88,219.74Z"/><path class="cls-17" d="M444.19,222.65l2.86-6,.44.2-2.86,6Z"/><path class="cls-17" d="M437.2,225.44h.67l.83,4.55h0l1.39-4.55h.62l1.39,4.55h0l.82-4.55h.68l-1,5.59h-.8l-1.37-4.49h0L439,231h-.8Z"/><path class="cls-17" d="M427.27,289.4l1.24,2.3h-.78l-1.18-2.27h-1.12v2.27h-.66v-5.6h2c1.17,0,1.86.63,1.86,1.66a1.54,1.54,0,0,1-1.4,1.62Zm-.51-.59c.82,0,1.25-.36,1.25-1.05s-.42-1-1.25-1h-1.33v2.08Z"/><polygon class="cls-17" points="310.52 406.92 315.92 392.52 321.32 406.92 310.52 406.92"/><path class="cls-17" d="M410.82,223.74h1.75c1.41,0,2.41,1,2.41,2.79,0,2-1,2.81-2.46,2.81h-1.7Zm1.66,5c1.13,0,1.84-.6,1.84-2.19,0-1.43-.71-2.16-1.79-2.16h-1v4.35Z"/><path class="cls-17" d="M415.75,223.74h.68l.82,4.55h0l1.38-4.55h.62l1.4,4.55h0l.82-4.55h.68l-1,5.6h-.79L419,224.85h0l-1.36,4.49h-.81Z"/></g></g></svg>