<svg xmlns="http://www.w3.org/2000/svg" viewBox="0 0 825.56 448.53"><defs><style>.cls-1,.cls-11,.cls-12,.cls-2,.cls-4,.cls-5{fill:#fff;}.cls-1,.cls-10,.cls-11,.cls-12,.cls-13,.cls-14,.cls-15,.cls-16,.cls-17,.cls-18,.cls-19,.cls-2,.cls-3,.cls-5,.cls-6,.cls-7,.cls-8,.cls-9{stroke:#231f20;}.cls-1,.cls-10,.cls-11,.cls-12,.cls-13,.cls-14,.cls-15,.cls-16,.cls-17,.cls-18,.cls-2,.cls-3,.cls-4,.cls-6,.cls-7,.cls-8{stroke-linecap:round;stroke-linejoin:round;}.cls-1{stroke-width:0.15px;}.cls-2,.cls-3,.cls-5{stroke-width:0.15px;}.cls-10,.cls-13,.cls-14,.cls-15,.cls-16,.cls-17,.cls-18,.cls-3,.cls-6,.cls-7,.cls-8,.cls-9{fill:none;}.cls-4{stroke:#fff;}.cls-12,.cls-13,.cls-14,.cls-15,.cls-16,.cls-17,.cls-18,.cls-4,.cls-6,.cls-8,.cls-9{stroke-width:0.25px;}.cls-19,.cls-5,.cls-9{stroke-miterlimit:10;}.cls-6{stroke-dasharray:1.32 1.32;}.cls-19,.cls-7{stroke-width:0.4px;}.cls-10,.cls-11{stroke-width:0.2px;}.cls-13{stroke-dasharray:1.32 1.32;}.cls-14{stroke-dasharray:1.38 1.38;}.cls-15{stroke-dasharray:1.3 1.3;}.cls-16{stroke-dasharray:1.29 1.29;}.cls-17{stroke-dasharray:2.03 2.03;}.cls-18{stroke-dasharray:2 2;}.cls-19{fill:#dee2e1;}.cls-20{fill:#231f20;}</style></defs><title>Asset 7</title><g id="Layer_2" data-name="Layer 2"><g id="Unit15-22C_Rest"><g id="LWPOLYLINE"><rect class="cls-1" x="307.09" y="39.58" width="109.69" height="140.16"/></g><g id="LWPOLYLINE-2" data-name="LWPOLYLINE"><rect class="cls-1" x="461.02" y="54.76" width="113.14" height="123.22"/></g><g id="LWPOLYLINE-3" data-name="LWPOLYLINE"><path class="cls-2" d="M273.87,148.15a12.7,12.7,0,0,1,1.16,1.16,12,12,0,0,1-1.16,16.9l-.93-1.06H262V149.21h10.9Z"/></g><g id="LWPOLYLINE-4" data-name="LWPOLYLINE"><path class="cls-2" d="M273.87,125.65a12.7,12.7,0,0,1,1.16,1.16,12,12,0,0,1-1.16,16.9l-.93-1.06H262V126.71h10.9Z"/></g><g id="LWPOLYLINE-5" data-name="LWPOLYLINE"><path class="cls-2" d="M273.87,103.15a12.7,12.7,0,0,1,1.16,1.16,12,12,0,0,1-1.16,16.9l-.93-1.06H262V104.21h10.9Z"/></g><g id="LWPOLYLINE-6" data-name="LWPOLYLINE"><path class="cls-2" d="M273.87,80.85A12.7,12.7,0,0,1,275,82a12,12,0,0,1-1.16,16.9l-.93-1.06H262V81.91h10.9Z"/></g><g id="LWPOLYLINE-7" data-name="LWPOLYLINE"><rect class="cls-2" x="411.1" y="70.53" width="15" height="78.16"/></g><g id="CIRCLE"><path class="cls-3" d="M355.54,110.37a19.36,19.36,0,1,1,19.35,19.36,19.35,19.35,0,0,1-19.35-19.36Z"/></g><g id="LWPOLYLINE-8" data-name="LWPOLYLINE"><rect class="cls-2" x="455.4" y="154.07" width="15.94" height="20.16"/></g><g id="LWPOLYLINE-9" data-name="LWPOLYLINE"><rect class="cls-2" x="604.36" y="75.66" width="15" height="46.65"/></g><g id="LWPOLYLINE-10" data-name="LWPOLYLINE"><rect class="cls-2" x="455.4" y="58.68" width="15.94" height="20.16"/></g><g id="LWPOLYLINE-11" data-name="LWPOLYLINE"><rect class="cls-2" x="533.45" y="341.66" width="15" height="39.77"/></g><g id="LWPOLYLINE-12" data-name="LWPOLYLINE"><rect class="cls-2" x="787.27" y="363.47" width="15.94" height="22.5"/></g><g id="LWPOLYLINE-13" data-name="LWPOLYLINE"><rect class="cls-2" x="678.42" y="343.33" width="15" height="56.25"/></g><g id="LWPOLYLINE-14" data-name="LWPOLYLINE"><rect class="cls-2" x="33.34" y="242.78" width="61.53" height="10"/></g><rect class="cls-2" x="399.23" y="107.79" width="44.9" height="1.76" transform="translate(530.35 -313.01) rotate(90)"/><rect class="cls-4" x="634.31" y="204.81" width="25.31" height="27.89"/><g id="LWPOLYLINE-15" data-name="LWPOLYLINE"><line class="cls-3" x1="274.62" y1="151.06" x2="262.04" y2="151.06"/></g><g id="LWPOLYLINE-16" data-name="LWPOLYLINE"><line class="cls-3" x1="274.62" y1="163.29" x2="262.04" y2="163.29"/></g><g id="LWPOLYLINE-17" data-name="LWPOLYLINE"><path class="cls-3" d="M272.94,165.15a10.56,10.56,0,0,0,1-14.91,10,10,0,0,0-1-1"/></g><g id="LWPOLYLINE-18" data-name="LWPOLYLINE"><line class="cls-3" x1="274.62" y1="128.56" x2="262.04" y2="128.56"/></g><g id="LWPOLYLINE-19" data-name="LWPOLYLINE"><line class="cls-3" x1="274.62" y1="140.79" x2="262.04" y2="140.79"/></g><g id="LWPOLYLINE-20" data-name="LWPOLYLINE"><path class="cls-3" d="M272.94,142.65a10.56,10.56,0,0,0,1-14.91,10,10,0,0,0-1-1"/></g><g id="LWPOLYLINE-21" data-name="LWPOLYLINE"><line class="cls-3" x1="274.62" y1="106.06" x2="262.04" y2="106.06"/></g><g id="LWPOLYLINE-22" data-name="LWPOLYLINE"><line class="cls-3" x1="274.62" y1="118.29" x2="262.04" y2="118.29"/></g><g id="LWPOLYLINE-23" data-name="LWPOLYLINE"><path class="cls-3" d="M272.94,120.15a10.56,10.56,0,0,0,1-14.91,10,10,0,0,0-1-1"/></g><g id="LWPOLYLINE-24" data-name="LWPOLYLINE"><line class="cls-3" x1="274.62" y1="83.76" x2="262.04" y2="83.76"/></g><g id="LWPOLYLINE-25" data-name="LWPOLYLINE"><line class="cls-3" x1="274.62" y1="95.99" x2="262.04" y2="95.99"/></g><g id="LWPOLYLINE-26" data-name="LWPOLYLINE"><path class="cls-3" d="M272.94,97.85a10.56,10.56,0,0,0,1-14.91,10,10,0,0,0-1-1"/></g><g id="LWPOLYLINE-27" data-name="LWPOLYLINE"><polygon class="cls-2" points="590.74 80.01 589.42 78.1 589.12 78.31 588.55 78.45 588.03 78.2 586.78 76.7 585.77 75.5 584.93 74.42 583.86 72.96 582.91 71.6 582.53 71.06 582.24 70.6 581.87 70.02 581.46 69.37 580.53 67.82 579.7 66.35 579.08 65.17 579.02 64.59 579.36 64.11 579.66 63.91 577.99 61.47 596.71 48.61 609.45 67.15 590.74 80.01"/></g><g id="LINE"><line class="cls-3" x1="598.38" y1="51.04" x2="579.67" y2="63.91"/></g><g id="LINE-2" data-name="LINE"><line class="cls-3" x1="589.42" y1="78.1" x2="608.14" y2="65.23"/></g><g id="ARC"><path class="cls-3" d="M594.21,53.91A40.2,40.2,0,0,0,604,68.1"/></g><g id="ARC-2" data-name="ARC"><path class="cls-3" d="M597,52a101.17,101.17,0,0,0,9.76,14.19"/></g><g id="LWPOLYLINE-28" data-name="LWPOLYLINE"><rect class="cls-2" x="594.12" y="333.42" width="80.63" height="56.25"/></g><g id="LINE-3" data-name="LINE"><line class="cls-3" x1="671.93" y1="389.67" x2="671.93" y2="333.42"/></g><g id="LINE-4" data-name="LINE"><line class="cls-3" x1="596.93" y1="389.67" x2="596.93" y2="333.42"/></g><g id="LWPOLYLINE-29" data-name="LWPOLYLINE"><rect class="cls-3" x="654.71" y="335.96" width="14.68" height="24.31"/></g><g id="LWPOLYLINE-30" data-name="LWPOLYLINE"><rect class="cls-3" x="654.71" y="362.82" width="14.68" height="24.31"/></g><g id="LWPOLYLINE-31" data-name="LWPOLYLINE"><rect class="cls-2" x="659.79" y="314.68" width="15.9" height="15.94"/></g><g id="LWPOLYLINE-32" data-name="LWPOLYLINE"><rect class="cls-2" x="659.79" y="392.48" width="15.9" height="15.94"/></g><g id="LWPOLYLINE-33" data-name="LWPOLYLINE"><rect class="cls-2" x="722.22" y="323.79" width="80.62" height="35.63"/></g><g id="LINE-5" data-name="LINE"><line class="cls-3" x1="800.04" y1="359.41" x2="800.04" y2="323.79"/></g><g id="LWPOLYLINE-34" data-name="LWPOLYLINE"><rect class="cls-3" x="782.81" y="326.33" width="14.68" height="30.54"/></g><g id="LINE-6" data-name="LINE"><line class="cls-3" x1="800.04" y1="359.41" x2="800.04" y2="323.79"/></g><line class="cls-3" x1="725.04" y1="359.41" x2="725.04" y2="323.79"/><g id="LWPOLYLINE-35" data-name="LWPOLYLINE"><rect class="cls-2" x="722.22" y="389.67" width="80.63" height="35.63"/></g><g id="LINE-7" data-name="LINE"><line class="cls-3" x1="800.04" y1="389.67" x2="800.04" y2="425.3"/></g><g id="LWPOLYLINE-36" data-name="LWPOLYLINE"><rect class="cls-3" x="782.81" y="392.21" width="14.68" height="30.54"/></g><g id="LINE-8" data-name="LINE"><line class="cls-3" x1="800.04" y1="389.67" x2="800.04" y2="425.3"/></g><line class="cls-3" x1="725.04" y1="389.67" x2="725.04" y2="425.3"/><g id="LWPOLYLINE-37" data-name="LWPOLYLINE"><rect class="cls-2" x="454.92" y="80.81" width="80.63" height="71.25"/></g><g id="LWPOLYLINE-38" data-name="LWPOLYLINE"><rect class="cls-3" x="460.28" y="117.71" width="14.68" height="31.81"/></g><g id="LINE-9" data-name="LINE"><line class="cls-3" x1="457.74" y1="80.81" x2="457.74" y2="152.06"/></g><g id="LINE-10" data-name="LINE"><line class="cls-3" x1="532.74" y1="80.81" x2="532.74" y2="152.06"/></g><g id="LWPOLYLINE-39" data-name="LWPOLYLINE"><rect class="cls-3" x="460.28" y="83.35" width="14.68" height="31.81"/></g><line class="cls-3" x1="477.5" y1="152.08" x2="477.5" y2="80.83"/><line class="cls-3" x1="479.93" y1="152.08" x2="479.93" y2="80.83"/><g id="LWPOLYLINE-40" data-name="LWPOLYLINE"><path class="cls-2" d="M275,255.05H292.8l-.29-5.81a3.74,3.74,0,0,0-3.74-3.56H279a3.75,3.75,0,0,0-3.75,3.56Z"/></g><g id="LWPOLYLINE-41" data-name="LWPOLYLINE"><path class="cls-2" d="M291.4,255.05l-.29-5.74a2.34,2.34,0,0,0-2.34-2.23H279a2.34,2.34,0,0,0-2.34,2.23l-.29,5.74"/></g><g id="LWPOLYLINE-42" data-name="LWPOLYLINE"><path class="cls-2" d="M253.78,255.05H271.6l-.29-5.81a3.75,3.75,0,0,0-3.75-3.56h-9.74a3.75,3.75,0,0,0-3.75,3.56Z"/></g><g id="LWPOLYLINE-43" data-name="LWPOLYLINE"><path class="cls-2" d="M270.19,255.05l-.29-5.74a2.34,2.34,0,0,0-2.34-2.23h-9.74a2.34,2.34,0,0,0-2.34,2.23l-.29,5.74"/></g><g id="LWPOLYLINE-44" data-name="LWPOLYLINE"><path class="cls-2" d="M296.2,255.05H314l-.29-5.81a3.75,3.75,0,0,0-3.74-3.56h-9.75a3.75,3.75,0,0,0-3.74,3.56Z"/></g><g id="LWPOLYLINE-45" data-name="LWPOLYLINE"><path class="cls-2" d="M312.7,255.29l-.29-5.75a2.34,2.34,0,0,0-2.34-2.22h-9.74a2.34,2.34,0,0,0-2.34,2.22l-.29,5.75"/></g><g id="LWPOLYLINE-46" data-name="LWPOLYLINE"><path class="cls-2" d="M292.8,276.68H275l.29,5.81a3.75,3.75,0,0,0,3.75,3.56h9.74a3.74,3.74,0,0,0,3.74-3.56Z"/></g><g id="LWPOLYLINE-47" data-name="LWPOLYLINE"><path class="cls-2" d="M276.4,276.68l.29,5.74a2.34,2.34,0,0,0,2.34,2.23h9.74a2.34,2.34,0,0,0,2.34-2.23l.29-5.74"/></g><g id="LWPOLYLINE-48" data-name="LWPOLYLINE"><path class="cls-2" d="M314,276.68H296.2l.29,5.81a3.75,3.75,0,0,0,3.74,3.56H310a3.75,3.75,0,0,0,3.74-3.56Z"/></g><g id="LWPOLYLINE-49" data-name="LWPOLYLINE"><path class="cls-2" d="M297.61,276.68l.28,5.74a2.36,2.36,0,0,0,2.34,2.23H310a2.36,2.36,0,0,0,2.34-2.23l.28-5.74"/></g><g id="LWPOLYLINE-50" data-name="LWPOLYLINE"><path class="cls-2" d="M317.41,255.05h17.81l-.29-5.81a3.75,3.75,0,0,0-3.75-3.56h-9.74a3.74,3.74,0,0,0-3.74,3.56Z"/></g><g id="LWPOLYLINE-51" data-name="LWPOLYLINE"><path class="cls-2" d="M333.91,255.29l-.29-5.75a2.34,2.34,0,0,0-2.34-2.22h-9.74a2.34,2.34,0,0,0-2.34,2.22l-.29,5.75"/></g><g id="LWPOLYLINE-52" data-name="LWPOLYLINE"><path class="cls-2" d="M335.22,276.68H317.41l.29,5.81a3.74,3.74,0,0,0,3.74,3.56h9.74a3.75,3.75,0,0,0,3.75-3.56Z"/></g><g id="LWPOLYLINE-53" data-name="LWPOLYLINE"><path class="cls-2" d="M318.81,276.68l.29,5.74a2.34,2.34,0,0,0,2.34,2.23h9.74a2.34,2.34,0,0,0,2.34-2.23l.29-5.74"/></g><g id="LWPOLYLINE-54" data-name="LWPOLYLINE"><path class="cls-2" d="M271.6,276.68H253.78l.29,5.81a3.75,3.75,0,0,0,3.75,3.56h9.74a3.75,3.75,0,0,0,3.75-3.56Z"/></g><g id="LWPOLYLINE-55" data-name="LWPOLYLINE"><path class="cls-2" d="M255.1,276.44l.28,5.74a2.35,2.35,0,0,0,2.34,2.23h9.74a2.36,2.36,0,0,0,2.35-2.23l.28-5.74"/></g><g id="LWPOLYLINE-56" data-name="LWPOLYLINE"><rect class="cls-2" x="247.96" y="251.49" width="93.09" height="28.13"/></g><g id="LWPOLYLINE-57" data-name="LWPOLYLINE"><rect class="cls-2" x="310.96" y="154.81" width="18.44" height="17.7"/></g><g id="LWPOLYLINE-58" data-name="LWPOLYLINE"><rect class="cls-2" x="310.96" y="46.71" width="18.44" height="17.7"/></g><g id="LWPOLYLINE-59" data-name="LWPOLYLINE"><rect class="cls-2" x="348.18" y="167.54" width="53.44" height="16.88" rx="1.88"/></g><g id="CIRCLE-2" data-name="CIRCLE"><path class="cls-3" d="M370.21,180.2a.47.47,0,1,1,.47.47.47.47,0,0,1-.47-.47Z"/></g><g id="CIRCLE-3" data-name="CIRCLE"><path class="cls-3" d="M370.21,171.76a.47.47,0,1,1,.47.47.47.47,0,0,1-.47-.47Z"/></g><g id="CIRCLE-4" data-name="CIRCLE"><path class="cls-3" d="M378.64,180.2a.47.47,0,1,1,.47.47.47.47,0,0,1-.47-.47Z"/></g><g id="CIRCLE-5" data-name="CIRCLE"><path class="cls-3" d="M378.64,171.76a.47.47,0,1,1,.47.47.47.47,0,0,1-.47-.47Z"/></g><g id="CIRCLE-6" data-name="CIRCLE"><path class="cls-3" d="M387.08,180.2a.47.47,0,1,1,.47.47.47.47,0,0,1-.47-.47Z"/></g><g id="CIRCLE-7" data-name="CIRCLE"><path class="cls-3" d="M387.08,171.76a.47.47,0,1,1,.47.47.47.47,0,0,1-.47-.47Z"/></g><g id="CIRCLE-8" data-name="CIRCLE"><path class="cls-3" d="M395.52,180.2a.47.47,0,1,1,.47.47.47.47,0,0,1-.47-.47Z"/></g><g id="CIRCLE-9" data-name="CIRCLE"><path class="cls-3" d="M395.52,171.76a.47.47,0,1,1,.47.47.47.47,0,0,1-.47-.47Z"/></g><g id="CIRCLE-10" data-name="CIRCLE"><path class="cls-3" d="M361.77,180.2a.47.47,0,1,1,.47.47.47.47,0,0,1-.47-.47Z"/></g><g id="CIRCLE-11" data-name="CIRCLE"><path class="cls-3" d="M361.77,171.76a.47.47,0,1,1,.47.47.47.47,0,0,1-.47-.47Z"/></g><g id="CIRCLE-12" data-name="CIRCLE"><path class="cls-3" d="M353.33,180.2a.47.47,0,1,1,.47.47.47.47,0,0,1-.47-.47Z"/></g><g id="CIRCLE-13" data-name="CIRCLE"><path class="cls-3" d="M353.33,171.76a.47.47,0,1,1,.47.47.47.47,0,0,1-.47-.47Z"/></g><g id="CIRCLE-14" data-name="CIRCLE"><path class="cls-3" d="M370.21,180.2a.47.47,0,1,1,.47.47.47.47,0,0,1-.47-.47Z"/></g><g id="CIRCLE-15" data-name="CIRCLE"><path class="cls-3" d="M370.21,171.76a.47.47,0,1,1,.47.47.47.47,0,0,1-.47-.47Z"/></g><g id="CIRCLE-16" data-name="CIRCLE"><path class="cls-3" d="M378.64,180.2a.47.47,0,1,1,.47.47.47.47,0,0,1-.47-.47Z"/></g><g id="CIRCLE-17" data-name="CIRCLE"><path class="cls-3" d="M378.64,171.76a.47.47,0,1,1,.47.47.47.47,0,0,1-.47-.47Z"/></g><g id="CIRCLE-18" data-name="CIRCLE"><path class="cls-3" d="M387.08,180.2a.47.47,0,1,1,.47.47.47.47,0,0,1-.47-.47Z"/></g><g id="CIRCLE-19" data-name="CIRCLE"><path class="cls-3" d="M387.08,171.76a.47.47,0,1,1,.47.47.47.47,0,0,1-.47-.47Z"/></g><g id="CIRCLE-20" data-name="CIRCLE"><path class="cls-3" d="M395.52,180.2a.47.47,0,1,1,.47.47.47.47,0,0,1-.47-.47Z"/></g><g id="CIRCLE-21" data-name="CIRCLE"><path class="cls-3" d="M395.52,171.76a.47.47,0,1,1,.47.47.47.47,0,0,1-.47-.47Z"/></g><g id="CIRCLE-22" data-name="CIRCLE"><path class="cls-3" d="M361.77,180.2a.47.47,0,1,1,.47.47.47.47,0,0,1-.47-.47Z"/></g><g id="CIRCLE-23" data-name="CIRCLE"><path class="cls-3" d="M361.77,171.76a.47.47,0,1,1,.47.47.47.47,0,0,1-.47-.47Z"/></g><g id="CIRCLE-24" data-name="CIRCLE"><path class="cls-3" d="M353.33,180.2a.47.47,0,1,1,.47.47.47.47,0,0,1-.47-.47Z"/></g><g id="CIRCLE-25" data-name="CIRCLE"><path class="cls-3" d="M353.33,171.76a.47.47,0,1,1,.47.47.47.47,0,0,1-.47-.47Z"/></g><g id="WIPEOUT"><rect class="cls-2" x="392.23" y="261.3" width="19.69" height="18.52"/><polyline class="cls-2" points="392.23 261.3 392.23 279.82 411.92 279.82 411.92 261.3 392.23 261.3"/></g><g id="LINE-11" data-name="LINE"><line class="cls-3" x1="411.92" y1="278.65" x2="392.23" y2="278.65"/></g><g id="LINE-12" data-name="LINE"><line class="cls-3" x1="411.92" y1="262.47" x2="392.23" y2="262.47"/></g><g id="LINE-13" data-name="LINE"><line class="cls-3" x1="393.64" y1="262.47" x2="393.64" y2="278.65"/></g><g id="LINE-14" data-name="LINE"><line class="cls-3" x1="395.75" y1="262.47" x2="395.75" y2="278.65"/></g><g id="LINE-15" data-name="LINE"><line class="cls-3" x1="395.75" y1="262.47" x2="395.75" y2="278.65"/></g><g id="LWPOLYLINE-60" data-name="LWPOLYLINE"><rect class="cls-2" x="401.61" y="242.44" width="24.37" height="56.25"/></g><g id="LWPOLYLINE-61" data-name="LWPOLYLINE"><polygon class="cls-2" points="380.63 63.65 381.47 33.65 408.19 33.56 409.23 63.56 380.63 63.65"/></g><g id="LWPOLYLINE-62" data-name="LWPOLYLINE"><polygon class="cls-2" points="337.7 63.65 338.53 33.65 365.25 33.56 366.29 63.56 337.7 63.65"/></g><g id="LINE-16" data-name="LINE"><line class="cls-3" x1="384.62" y1="63.64" x2="385.46" y2="33.64"/></g><g id="LINE-17" data-name="LINE"><line class="cls-3" x1="385.35" y1="37.85" x2="404.34" y2="37.79"/></g><g id="LINE-18" data-name="LINE"><line class="cls-3" x1="404.2" y1="33.57" x2="405.24" y2="63.57"/></g><g id="LINE-19" data-name="LINE"><line class="cls-3" x1="341.68" y1="63.64" x2="342.52" y2="33.64"/></g><g id="LINE-20" data-name="LINE"><line class="cls-3" x1="342.41" y1="37.85" x2="361.4" y2="37.79"/></g><g id="LINE-21" data-name="LINE"><line class="cls-3" x1="361.27" y1="33.57" x2="362.3" y2="63.57"/></g><rect class="cls-2" x="300.96" y="67.47" width="33.75" height="84.38"/><g id="LINE-22" data-name="LINE"><line class="cls-3" x1="305.65" y1="122.15" x2="333.73" y2="122.15"/></g><g id="LWPOLYLINE-63" data-name="LWPOLYLINE"><polyline class="cls-3" points="334.71 72.15 305.65 72.15 305.65 147.15 334.71 147.15"/></g><g id="ARC-3" data-name="ARC"><path class="cls-3" d="M310.14,146.22a59.62,59.62,0,0,0,0-23.13"/></g><g id="ARC-4" data-name="ARC"><path class="cls-3" d="M310.14,123.09a1.23,1.23,0,0,0-1-.94"/></g><g id="ARC-5" data-name="ARC"><path class="cls-3" d="M309.16,147.15a1.21,1.21,0,0,0,1-.93"/></g><g id="ARC-6" data-name="ARC"><path class="cls-3" d="M309.16,122.15a1.21,1.21,0,0,0,1-.93"/></g><g id="ARC-7" data-name="ARC"><path class="cls-3" d="M310.14,73.09a1.23,1.23,0,0,0-1-.94"/></g><g id="ARC-8" data-name="ARC"><path class="cls-3" d="M334.71,123.09a1.23,1.23,0,0,0-1-.94"/></g><g id="ARC-9" data-name="ARC"><path class="cls-3" d="M333.73,122.15a1.21,1.21,0,0,0,1-.93"/></g><g id="ARC-10" data-name="ARC"><path class="cls-3" d="M333.73,147.15a1.21,1.21,0,0,0,1-.93"/></g><g id="ARC-11" data-name="ARC"><path class="cls-3" d="M334.71,73.09a1.23,1.23,0,0,0-1-.94"/></g><g id="LINE-23" data-name="LINE"><line class="cls-3" x1="305.65" y1="97.15" x2="333.73" y2="97.15"/></g><g id="ARC-12" data-name="ARC"><path class="cls-3" d="M310.14,96.22a59.62,59.62,0,0,0,0-23.13"/></g><g id="ARC-13" data-name="ARC"><path class="cls-3" d="M309.16,97.15a1.21,1.21,0,0,0,1-.93"/></g><g id="ARC-14" data-name="ARC"><path class="cls-3" d="M310.14,98.09a1.23,1.23,0,0,0-1-.94"/></g><g id="ARC-15" data-name="ARC"><path class="cls-3" d="M333.73,97.15a1.21,1.21,0,0,0,1-.93"/></g><g id="ARC-16" data-name="ARC"><path class="cls-3" d="M334.71,98.09a1.23,1.23,0,0,0-1-.94"/></g><g id="ARC-17" data-name="ARC"><path class="cls-3" d="M310.14,121.22a59.62,59.62,0,0,0,0-23.13"/></g><g id="ARC-18" data-name="ARC"><path class="cls-3" d="M310.14,123.09a1.23,1.23,0,0,0-1-.94"/></g><g id="ARC-19" data-name="ARC"><path class="cls-3" d="M309.16,147.15a1.21,1.21,0,0,0,1-.93"/></g><g id="ARC-20" data-name="ARC"><path class="cls-3" d="M309.16,122.15a1.21,1.21,0,0,0,1-.93"/></g><g id="ARC-21" data-name="ARC"><path class="cls-3" d="M310.14,73.09a1.23,1.23,0,0,0-1-.94"/></g><g id="ARC-22" data-name="ARC"><path class="cls-3" d="M334.71,123.09a1.23,1.23,0,0,0-1-.94"/></g><g id="ARC-23" data-name="ARC"><path class="cls-3" d="M333.73,122.15a1.21,1.21,0,0,0,1-.93"/></g><g id="ARC-24" data-name="ARC"><path class="cls-3" d="M333.73,147.15a1.21,1.21,0,0,0,1-.93"/></g><g id="ARC-25" data-name="ARC"><path class="cls-3" d="M334.71,73.09a1.23,1.23,0,0,0-1-.94"/></g><g id="ARC-26" data-name="ARC"><path class="cls-3" d="M309.16,97.15a1.21,1.21,0,0,0,1-.93"/></g><g id="ARC-27" data-name="ARC"><path class="cls-3" d="M310.14,98.09a1.23,1.23,0,0,0-1-.94"/></g><g id="ARC-28" data-name="ARC"><path class="cls-3" d="M333.73,97.15a1.21,1.21,0,0,0,1-.93"/></g><g id="ARC-29" data-name="ARC"><path class="cls-3" d="M334.71,98.09a1.23,1.23,0,0,0-1-.94"/></g><path class="cls-5" d="M315.66,141.43s5.27,6.85,7.93,5.56-7.24-10.46-7.24-10.46-3.9-4-4.64-2S315.66,141.43,315.66,141.43Z"/><path class="cls-5" d="M317.41,129.45s-4.37-7.07-6.29-5.76,3.55,9.44,3.55,9.44,3.84,7.57,5.71,5.54S317.41,129.45,317.41,129.45Z"/><path class="cls-5" d="M312,88.53s3.62-.75,5.2-8.34,1.12-7.68.31-8-4.2,2.24-5.22,9.2S310.76,88.21,312,88.53Z"/><line class="cls-3" x1="652.35" y1="333.42" x2="652.35" y2="389.67"/><line class="cls-3" x1="649.92" y1="333.42" x2="649.92" y2="389.67"/><line class="cls-3" x1="780.3" y1="323.79" x2="780.3" y2="359.41"/><line class="cls-3" x1="777.87" y1="323.79" x2="777.87" y2="359.41"/><line class="cls-3" x1="780.3" y1="389.67" x2="780.3" y2="425.3"/><line class="cls-3" x1="777.87" y1="389.67" x2="777.87" y2="425.3"/><g id="CIRCLE-26" data-name="CIRCLE"><path class="cls-2" d="M368.19,51.86A5.15,5.15,0,1,1,373.33,57a5.15,5.15,0,0,1-5.14-5.14Z"/></g><g id="LWPOLYLINE-64" data-name="LWPOLYLINE"><path class="cls-6" d="M522.78,39.58,493,49.5a28,28,0,0,1-1.81-9.92"/></g><g id="LWPOLYLINE-65" data-name="LWPOLYLINE"><path class="cls-6" d="M459.5,39.58l29.83,9.92a28,28,0,0,0,1.81-9.92"/></g><g id="LWPOLYLINE-66" data-name="LWPOLYLINE"><path class="cls-6" d="M612.31,39.58,582.48,49.5a28.23,28.23,0,0,1-1.81-9.92"/></g><g id="LWPOLYLINE-67" data-name="LWPOLYLINE"><path class="cls-6" d="M549,39.58l29.83,9.92a28,28,0,0,0,1.81-9.92"/></g><g id="LWPOLYLINE-68" data-name="LWPOLYLINE"><path class="cls-6" d="M401.38,17.08,369.66,28.62a33.68,33.68,0,0,1-2-11.54,33.69,33.69,0,0,1-2,11.54L333.88,17.08"/></g><g id="LWPOLYLINE-69" data-name="LWPOLYLINE"><polyline class="cls-7" points="423.88 17.07 423.88 22.7 311.38 22.7 311.38 17.07"/></g><g id="LWPOLYLINE-70" data-name="LWPOLYLINE"><line class="cls-7" x1="694.16" y1="441.76" x2="694.16" y2="437.08"/><line class="cls-7" x1="784.16" y1="437.08" x2="784.16" y2="441.76"/></g><g id="LWPOLYLINE-71" data-name="LWPOLYLINE"><polyline class="cls-7" points="694.16 437.07 694.16 431.45 784.16 431.45 784.16 437.07"/></g><g id="LWPOLYLINE-72" data-name="LWPOLYLINE"><polyline class="cls-7" points="546.7 437.07 546.7 431.45 636.7 431.45 636.7 437.07"/></g><g id="LWPOLYLINE-73" data-name="LWPOLYLINE"><polyline class="cls-7" points="312.31 308.99 312.31 304.89 423.38 304.89 423.38 308.99"/></g><g id="LWPOLYLINE-74" data-name="LWPOLYLINE"><polyline class="cls-7" points="192.78 308.99 192.78 304.89 276.69 304.89 276.69 308.99"/></g><g id="LWPOLYLINE-75" data-name="LWPOLYLINE"><polyline class="cls-7" points="60.13 308.99 60.13 306.06 103.13 306.06 103.13 308.99"/></g><g id="LWPOLYLINE-76" data-name="LWPOLYLINE"><polyline class="cls-7" points="457.63 39.58 457.63 45.2 524.66 45.2 524.66 39.58"/></g><g id="LWPOLYLINE-77" data-name="LWPOLYLINE"><polyline class="cls-7" points="547.16 39.58 547.16 45.2 614.19 45.2 614.19 39.58"/></g><g id="LWPOLYLINE-78" data-name="LWPOLYLINE"><polyline class="cls-7" points="191.84 17.07 191.84 22.7 277.63 22.7 277.63 17.07"/></g><g id="LWPOLYLINE-79" data-name="LWPOLYLINE"><polyline class="cls-7" points="470.06 437.07 470.06 431.45 509.43 431.45 509.43 437.07"/></g><line class="cls-7" x1="658.56" y1="45.2" x2="699.03" y2="45.2"/><g id="LWPOLYLINE-80" data-name="LWPOLYLINE"><rect class="cls-8" x="460.44" y="35.83" width="29.17" height="1.23"/></g><g id="LWPOLYLINE-81" data-name="LWPOLYLINE"><rect class="cls-8" x="492.67" y="35.83" width="29.18" height="1.23"/></g><g id="LWPOLYLINE-82" data-name="LWPOLYLINE"><polygon class="cls-8" points="789.5 35.83 788.56 35.83 749.03 35.83 749.03 37.05 789.5 37.05 789.5 35.83"/></g><g id="LWPOLYLINE-83" data-name="LWPOLYLINE"><rect class="cls-8" x="727.16" y="35.82" width="20" height="1.23"/></g><g id="LWPOLYLINE-84" data-name="LWPOLYLINE"><polygon class="cls-8" points="723.26 439.59 696.97 439.59 696.97 440.82 697.91 440.82 722.56 440.82 723.26 440.82 723.26 439.59"/></g><g id="LWPOLYLINE-85" data-name="LWPOLYLINE"><polygon class="cls-8" points="781.35 439.6 725.84 439.6 725.84 440.82 726.54 440.82 781.35 440.82 781.35 439.6"/></g><g id="LWPOLYLINE-86" data-name="LWPOLYLINE"><polygon class="cls-8" points="607.59 439.59 633.88 439.59 633.88 440.82 632.95 440.82 608.3 440.82 607.59 440.82 607.59 439.59"/></g><g id="LWPOLYLINE-87" data-name="LWPOLYLINE"><polygon class="cls-8" points="549.51 439.6 605.02 439.6 605.02 440.82 604.31 440.82 549.51 440.82 549.51 439.6"/></g><g id="LWPOLYLINE-88" data-name="LWPOLYLINE"><rect class="cls-8" x="472.86" y="439.59" width="33.75" height="1.23"/></g><g id="LWPOLYLINE-89" data-name="LWPOLYLINE"><polygon class="cls-8" points="396.34 311.51 421.06 311.51 421.06 312.74 420.13 312.74 397.04 312.74 396.34 312.74 396.34 311.51"/></g><g id="LWPOLYLINE-90" data-name="LWPOLYLINE"><polygon class="cls-8" points="341.49 311.51 393.76 311.51 393.76 312.74 393.06 312.74 341.49 312.74 341.49 311.51"/></g><g id="LWPOLYLINE-91" data-name="LWPOLYLINE"><polygon class="cls-8" points="338.92 311.51 314.19 311.51 314.19 312.74 315.13 312.74 338.21 312.74 338.92 312.74 338.92 311.51"/></g><g id="LWPOLYLINE-92" data-name="LWPOLYLINE"><polygon class="cls-8" points="247.2 311.51 194.19 311.51 194.19 312.74 195.48 312.74 247.2 312.74 247.2 311.51"/></g><g id="LWPOLYLINE-93" data-name="LWPOLYLINE"><polygon class="cls-8" points="249.78 311.51 274.81 311.51 274.81 312.74 273.88 312.74 250.48 312.74 249.78 312.74 249.78 311.51"/></g><g id="LWPOLYLINE-94" data-name="LWPOLYLINE"><rect class="cls-8" x="62.94" y="311.51" width="37.38" height="1.23"/></g><g id="LWPOLYLINE-95" data-name="LWPOLYLINE"><rect class="cls-8" x="549.97" y="35.83" width="29.17" height="1.23"/></g><g id="LWPOLYLINE-96" data-name="LWPOLYLINE"><rect class="cls-8" x="582.2" y="35.83" width="29.18" height="1.23"/></g><g id="LWPOLYLINE-97" data-name="LWPOLYLINE"><polygon class="cls-8" points="274.81 13.32 273.88 13.32 249.97 13.32 249.97 14.56 274.81 14.56 274.81 13.32"/></g><g id="LWPOLYLINE-98" data-name="LWPOLYLINE"><polygon class="cls-8" points="167.94 13.32 168.88 13.32 192.78 13.32 192.78 14.56 167.94 14.56 167.94 13.32"/></g><g id="LWPOLYLINE-99" data-name="LWPOLYLINE"><rect class="cls-8" x="194.66" y="13.33" width="53.44" height="1.23"/></g><g id="LWPOLYLINE-100" data-name="LWPOLYLINE"><polygon class="cls-8" points="333.41 13.32 332.47 13.32 315.13 13.32 314.19 13.32 314.19 14.55 332.47 14.55 333.41 14.55 333.41 13.32"/></g><g id="LWPOLYLINE-101" data-name="LWPOLYLINE"><polygon class="cls-8" points="366.1 13.32 365.4 13.32 335.28 13.32 335.28 14.55 366.09 14.55 366.1 13.32"/></g><g id="LWPOLYLINE-102" data-name="LWPOLYLINE"><polygon class="cls-8" points="399.97 13.32 399.03 13.32 369.85 13.32 369.15 13.32 369.15 14.55 399.97 14.55 399.97 13.32"/></g><g id="LWPOLYLINE-103" data-name="LWPOLYLINE"><polygon class="cls-8" points="421.06 13.32 420.13 13.32 401.85 13.32 401.85 14.55 421.06 14.55 421.06 13.32"/></g><g id="LWPOLYLINE-104" data-name="LWPOLYLINE"><polygon class="cls-8" points="699.03 35.83 698.1 35.83 660.44 35.83 660.44 37.05 699.03 37.05 699.03 35.83"/></g><g id="LWPOLYLINE-105" data-name="LWPOLYLINE"><rect class="cls-8" x="639.5" y="35.83" width="19.06" height="1.23"/></g><line class="cls-8" x1="191.84" y1="17.08" x2="275.75" y2="17.08"/><line class="cls-8" x1="315.13" y1="17.08" x2="423.88" y2="17.08"/><line class="cls-8" x1="461.38" y1="39.58" x2="520.91" y2="39.58"/><line class="cls-8" x1="550.91" y1="39.58" x2="610.44" y2="39.58"/><line class="cls-8" x1="659.03" y1="39.58" x2="699.03" y2="39.58"/><line class="cls-8" x1="746.22" y1="39.57" x2="792.31" y2="39.57"/><line class="cls-7" x1="746.22" y1="45.2" x2="792.31" y2="45.2"/><line class="cls-8" x1="195.13" y1="308.99" x2="273.88" y2="308.99"/><line class="cls-8" x1="314.19" y1="308.99" x2="420.13" y2="308.99"/><line class="cls-8" x1="473.8" y1="437.08" x2="506.61" y2="437.08"/><line class="cls-8" x1="550.45" y1="437.08" x2="632.95" y2="437.08"/><line class="cls-8" x1="697.91" y1="437.08" x2="781.35" y2="437.08"/><line class="cls-8" x1="63.88" y1="308.99" x2="99.38" y2="308.99"/><g id="LWPOLYLINE-106" data-name="LWPOLYLINE"><polygon class="cls-9" points="461.38 37.06 460.44 37.06 460.44 35.83 461.38 35.83 461.38 34.89 459.5 34.89 459.5 31.14 458.56 31.14 458.56 34.89 457.63 34.89 457.63 39.58 461.38 39.58 461.38 37.06"/></g><g id="LWPOLYLINE-107" data-name="LWPOLYLINE"><polyline class="cls-9" points="490.67 32.54 491.61 32.54 491.61 34.89 493.37 34.89 493.37 35.83 492.67 35.83 492.67 37.06 493.37 37.06 493.37 39.58 491.49 39.58 491.49 39.11 490.79 39.11 490.79 39.58 488.92 39.58 488.92 37.06 489.61 37.06 489.62 35.83 488.92 35.83 488.92 34.89 490.67 34.89 490.67 32.54"/></g><g id="LWPOLYLINE-108" data-name="LWPOLYLINE"><polygon class="cls-9" points="524.66 34.89 523.72 34.89 523.72 31.14 522.78 31.14 522.78 34.89 520.91 34.89 520.91 35.83 521.85 35.83 521.85 37.06 520.91 37.06 520.91 39.58 524.66 39.58 524.66 34.89"/></g><g id="LWPOLYLINE-109" data-name="LWPOLYLINE"><polygon class="cls-9" points="792.31 34.89 791.37 34.89 791.37 31.14 790.44 31.14 790.44 34.89 788.56 34.89 788.56 35.83 789.5 35.83 789.5 37.05 788.56 37.05 788.56 39.58 792.31 39.58 792.31 34.89"/></g><g id="LWPOLYLINE-110" data-name="LWPOLYLINE"><polygon class="cls-9" points="749.97 37.05 749.03 37.05 749.03 35.83 749.97 35.83 749.97 34.89 748.1 34.89 748.1 31.14 747.16 31.14 747.16 34.89 746.22 34.89 746.22 35.83 747.16 35.83 747.16 37.05 746.22 37.05 746.22 38.23 747.04 38.23 747.04 39.11 748.1 39.11 748.1 39.58 749.97 39.58 749.97 37.05"/></g><g id="LWPOLYLINE-111" data-name="LWPOLYLINE"><polygon class="cls-9" points="728.1 37.05 727.16 37.05 727.16 35.82 728.1 35.82 728.1 34.89 726.22 34.89 726.22 31.14 725.28 31.14 725.28 34.89 724.35 34.89 724.35 39.57 728.1 39.57 728.1 37.05"/></g><g id="LWPOLYLINE-112" data-name="LWPOLYLINE"><polygon class="cls-9" points="784.16 437.07 780.41 437.07 780.41 439.59 781.35 439.6 781.35 440.82 780.41 440.82 780.41 441.76 782.28 441.76 784.16 441.76 784.16 437.07"/></g><g id="LWPOLYLINE-113" data-name="LWPOLYLINE"><polygon class="cls-9" points="726.54 438.42 725.6 438.42 725.6 437.54 724.43 437.54 724.43 437.07 722.56 437.07 722.56 439.59 723.26 439.59 723.26 440.82 722.56 440.82 722.56 441.76 723.26 441.76 725.84 441.76 726.54 441.76 726.54 440.82 725.84 440.82 725.84 439.59 726.54 439.59 726.54 438.42"/></g><g id="LWPOLYLINE-114" data-name="LWPOLYLINE"><polygon class="cls-9" points="694.16 437.07 697.91 437.07 697.91 439.59 696.97 439.6 696.97 440.82 697.91 440.82 697.91 441.76 696.03 441.76 694.16 441.76 694.16 437.07"/></g><g id="LWPOLYLINE-115" data-name="LWPOLYLINE"><polygon class="cls-9" points="546.7 437.07 550.45 437.07 550.45 439.59 549.51 439.6 549.51 440.82 550.45 440.82 550.45 441.76 548.57 441.76 546.7 441.76 546.7 437.07"/></g><g id="LWPOLYLINE-116" data-name="LWPOLYLINE"><polygon class="cls-9" points="604.31 438.42 605.25 438.42 605.25 437.54 606.42 437.54 606.42 437.07 608.3 437.07 608.3 439.59 607.59 439.59 607.59 440.82 608.3 440.82 608.3 441.76 607.59 441.76 605.02 441.76 604.31 441.76 604.31 440.82 605.02 440.82 605.02 439.59 604.31 439.59 604.31 438.42"/></g><g id="LWPOLYLINE-117" data-name="LWPOLYLINE"><polygon class="cls-9" points="636.94 437.07 632.95 437.07 632.95 439.59 633.88 439.6 633.88 440.82 632.95 440.82 632.95 441.76 634.82 441.76 636.94 441.76 636.94 437.07"/></g><g id="LWPOLYLINE-118" data-name="LWPOLYLINE"><polygon class="cls-9" points="509.42 437.07 505.67 437.07 505.67 439.59 506.61 439.6 506.61 440.82 505.67 440.82 505.67 441.76 507.55 441.76 509.42 441.76 509.42 437.07"/></g><g id="LWPOLYLINE-119" data-name="LWPOLYLINE"><polygon class="cls-9" points="470.05 437.07 473.8 437.07 473.8 439.59 472.86 439.6 472.86 440.82 473.8 440.82 473.8 441.76 471.92 441.76 470.05 441.76 470.05 437.07"/></g><g id="LWPOLYLINE-120" data-name="LWPOLYLINE"><polygon class="cls-9" points="393.06 310.34 393.99 310.34 393.99 309.46 395.17 309.46 395.17 308.99 397.04 308.99 397.04 311.51 396.34 311.51 396.34 312.74 397.04 312.74 397.04 313.68 396.34 313.68 393.76 313.68 393.06 313.68 393.06 312.74 393.76 312.74 393.76 311.51 393.06 311.51 393.06 310.34"/></g><g id="LWPOLYLINE-121" data-name="LWPOLYLINE"><polygon class="cls-9" points="423.88 310.51 423.38 310.51 423.38 308.99 420.13 308.99 420.13 311.51 421.06 311.51 421.06 312.74 420.13 312.74 420.13 313.68 422 313.68 423.88 313.68 423.88 310.51"/></g><g id="LWPOLYLINE-122" data-name="LWPOLYLINE"><polygon class="cls-9" points="342.2 310.34 341.26 310.34 341.26 309.46 340.09 309.46 340.09 308.99 338.21 308.99 338.21 311.51 338.92 311.51 338.92 312.74 338.21 312.74 338.21 313.68 338.92 313.68 341.49 313.68 342.2 313.68 342.2 312.74 341.49 312.74 341.49 311.51 342.2 311.51 342.2 310.34"/></g><g id="LWPOLYLINE-123" data-name="LWPOLYLINE"><polygon class="cls-9" points="312.31 308.99 315.13 308.99 315.13 311.51 314.19 311.51 314.19 312.74 315.13 312.74 315.13 313.68 313.25 313.68 311.38 313.68 311.38 310.51 312.31 310.51 312.31 308.99"/></g><g id="LWPOLYLINE-124" data-name="LWPOLYLINE"><polygon class="cls-9" points="191.84 310.51 192.78 310.51 192.78 308.99 195.13 308.99 195.13 311.51 194.19 311.51 194.19 312.74 195.13 312.74 195.13 313.68 193.72 313.68 191.84 313.68 191.84 310.51"/></g><g id="LWPOLYLINE-125" data-name="LWPOLYLINE"><polygon class="cls-9" points="246.49 310.34 247.43 310.34 247.43 309.46 248.6 309.46 248.6 308.99 250.48 308.99 250.48 311.51 249.78 311.51 249.78 312.74 250.48 312.74 250.48 313.68 249.78 313.68 247.2 313.68 246.49 313.68 246.49 312.74 247.2 312.74 247.2 311.51 246.49 311.51 246.49 310.34"/></g><g id="LWPOLYLINE-126" data-name="LWPOLYLINE"><polygon class="cls-9" points="276.69 308.99 273.88 308.99 273.88 311.51 274.81 311.51 274.81 312.74 273.88 312.74 273.88 313.68 275.75 313.68 277.63 313.68 277.63 310.51 276.69 310.51 276.69 308.99"/></g><g id="LWPOLYLINE-127" data-name="LWPOLYLINE"><polygon class="cls-9" points="60.13 308.99 63.88 308.99 63.88 311.51 62.94 311.51 62.94 312.74 63.88 312.74 63.88 313.68 62 313.68 60.13 313.68 60.13 308.99"/></g><g id="LWPOLYLINE-128" data-name="LWPOLYLINE"><polygon class="cls-9" points="103.13 308.99 99.38 308.99 99.38 311.51 100.32 311.51 100.32 312.74 99.38 312.74 99.38 313.68 101.26 313.68 103.13 313.68 103.13 308.99"/></g><g id="LWPOLYLINE-129" data-name="LWPOLYLINE"><polygon class="cls-9" points="550.91 37.06 549.97 37.06 549.97 35.83 550.91 35.83 550.91 34.89 549.03 34.89 549.03 31.14 548.1 31.14 548.1 34.89 547.16 34.89 547.16 39.58 550.91 39.58 550.91 37.06"/></g><g id="LWPOLYLINE-130" data-name="LWPOLYLINE"><polyline class="cls-9" points="580.2 32.54 581.14 32.54 581.14 34.89 582.9 34.89 582.9 35.83 582.2 35.83 582.2 37.06 582.9 37.06 582.9 39.58 581.02 39.58 581.02 39.11 580.32 39.11 580.32 39.58 578.45 39.58 578.45 37.06 579.14 37.06 579.15 35.83 578.45 35.83 578.45 34.89 580.2 34.89 580.2 32.54"/></g><g id="LWPOLYLINE-131" data-name="LWPOLYLINE"><polygon class="cls-9" points="614.19 34.89 613.25 34.89 613.25 31.14 612.31 31.14 612.31 34.89 610.44 34.89 610.44 35.83 611.38 35.83 611.38 37.06 610.44 37.06 610.44 39.58 614.19 39.58 614.19 34.89"/></g><g id="LWPOLYLINE-132" data-name="LWPOLYLINE"><polygon class="cls-9" points="277.63 12.39 276.69 12.39 276.69 8.64 275.75 8.64 275.75 12.39 273.88 12.39 273.88 13.32 274.81 13.32 274.81 14.56 273.88 14.56 273.88 17.07 277.63 17.07 277.63 12.39"/></g><g id="LWPOLYLINE-133" data-name="LWPOLYLINE"><polygon class="cls-9" points="250.91 14.56 249.97 14.56 249.97 13.32 250.91 13.32 250.91 12.39 249.03 12.39 249.03 10.04 248.09 10.04 248.09 12.39 247.16 12.39 247.16 13.32 248.09 13.32 248.09 14.56 247.16 14.56 247.16 15.73 247.98 15.73 247.98 16.61 249.03 16.61 249.03 17.07 250.91 17.07 250.91 14.56"/></g><g id="LWPOLYLINE-134" data-name="LWPOLYLINE"><polygon class="cls-9" points="191.84 14.56 192.78 14.56 192.78 13.32 191.84 13.32 191.84 12.39 193.72 12.39 193.72 10.04 194.66 10.04 194.66 12.39 195.59 12.39 195.59 13.32 194.66 13.32 194.66 14.56 195.59 14.56 195.59 15.73 194.78 15.73 194.78 16.61 193.72 16.61 193.72 17.07 191.84 17.07 191.84 14.56"/></g><g id="LWPOLYLINE-135" data-name="LWPOLYLINE"><polygon class="cls-9" points="165.13 12.39 166.06 12.39 166.06 8.64 167 8.64 167 12.39 168.88 12.39 168.88 13.32 167.94 13.32 167.94 14.56 168.88 14.56 168.88 17.07 165.13 17.07 165.13 12.39"/></g><g id="LWPOLYLINE-136" data-name="LWPOLYLINE"><polyline class="cls-9" points="367.16 10.04 368.1 10.04 368.1 12.39 369.85 12.39 369.85 13.32 369.15 13.32 369.15 14.55 369.85 14.55 369.85 17.07 367.98 17.07 367.98 16.61 367.27 16.61 367.27 17.07 365.4 17.07 365.4 14.55 366.09 14.55 366.1 13.32 365.4 13.32 365.4 12.39 367.16 12.39 367.16 10.04"/></g><g id="LWPOLYLINE-137" data-name="LWPOLYLINE"><polygon class="cls-9" points="399.03 14.55 399.97 14.55 399.97 13.32 399.03 13.32 399.03 12.39 400.91 12.39 400.91 10.04 401.85 10.04 401.85 12.39 402.78 12.39 402.78 13.32 401.85 13.32 401.85 14.55 402.78 14.55 402.78 15.73 401.96 15.73 401.96 16.61 400.91 16.61 400.91 17.07 399.03 17.07 399.03 14.55"/></g><g id="LWPOLYLINE-138" data-name="LWPOLYLINE"><polygon class="cls-9" points="423.88 12.39 422.94 12.39 422.94 8.64 422 8.64 422 12.39 420.13 12.39 420.13 13.32 421.06 13.32 421.06 14.55 420.13 14.55 420.13 17.07 423.88 17.07 423.88 12.39"/></g><g id="LWPOLYLINE-139" data-name="LWPOLYLINE"><polygon class="cls-9" points="315.13 14.55 314.19 14.55 314.19 13.32 315.13 13.32 315.13 12.39 313.25 12.39 313.25 8.64 312.31 8.64 312.31 12.39 311.38 12.39 311.38 17.07 315.13 17.07 315.13 14.55"/></g><g id="LWPOLYLINE-140" data-name="LWPOLYLINE"><polygon class="cls-9" points="336.22 14.55 335.28 14.55 335.28 13.32 336.22 13.32 336.22 12.39 334.35 12.39 334.35 10.04 333.41 10.04 333.41 12.39 332.47 12.39 332.47 13.32 333.41 13.32 333.41 14.55 332.47 14.55 332.47 15.73 333.29 15.73 333.29 16.61 334.35 16.61 334.35 17.07 336.22 17.07 336.22 14.55"/></g><g id="LWPOLYLINE-141" data-name="LWPOLYLINE"><polygon class="cls-9" points="701.85 34.89 700.91 34.89 700.91 31.14 699.97 31.14 699.97 34.89 698.1 34.89 698.1 35.83 699.03 35.83 699.03 37.05 698.1 37.05 698.1 39.58 701.85 39.58 701.85 34.89"/></g><g id="LWPOLYLINE-142" data-name="LWPOLYLINE"><polygon class="cls-9" points="661.38 37.05 660.44 37.05 660.44 35.83 661.38 35.83 661.38 34.89 659.5 34.89 659.5 31.14 658.56 31.14 658.56 34.89 657.63 34.89 657.63 35.83 658.56 35.83 658.56 37.05 657.63 37.05 657.63 38.23 658.45 38.23 658.45 39.11 659.5 39.11 659.5 39.58 661.38 39.58 661.38 37.05"/></g><g id="LWPOLYLINE-143" data-name="LWPOLYLINE"><polygon class="cls-9" points="640.44 37.05 639.5 37.05 639.5 35.82 640.44 35.82 640.44 34.89 638.56 34.89 638.56 31.14 637.63 31.14 637.63 34.89 636.69 34.89 636.69 39.57 640.44 39.57 640.44 37.05"/></g><g id="LWPOLYLINE-144" data-name="LWPOLYLINE"><polyline class="cls-7" points="524.66 39.58 524.66 31.14 457.63 31.14 457.63 39.58"/></g><g id="LWPOLYLINE-145" data-name="LWPOLYLINE"><polyline class="cls-7" points="792.31 39.58 792.31 31.14 724.35 31.14 724.35 39.58"/></g><g id="LWPOLYLINE-146" data-name="LWPOLYLINE"><polyline class="cls-7" points="694.16 441.76 694.16 448.32 784.16 448.32 784.16 441.76"/></g><g id="LWPOLYLINE-147" data-name="LWPOLYLINE"><polyline class="cls-7" points="636.94 441.76 636.94 448.32 546.7 448.32 546.7 441.76"/></g><g id="LWPOLYLINE-148" data-name="LWPOLYLINE"><polyline class="cls-7" points="509.42 441.76 509.42 448.32 470.05 448.32 470.05 441.76"/></g><g id="LWPOLYLINE-149" data-name="LWPOLYLINE"><polyline class="cls-7" points="423.88 313.68 423.88 321.76 311.38 321.76 311.38 313.68"/></g><g id="LWPOLYLINE-150" data-name="LWPOLYLINE"><polyline class="cls-7" points="191.84 313.68 191.84 321.76 277.63 321.76 277.63 313.68"/></g><g id="LWPOLYLINE-151" data-name="LWPOLYLINE"><polyline class="cls-7" points="60.13 313.68 60.13 321.76 103.13 321.76 103.13 313.68"/></g><g id="LWPOLYLINE-152" data-name="LWPOLYLINE"><polyline class="cls-7" points="614.19 39.58 614.19 31.14 547.16 31.14 547.16 39.58"/></g><g id="LWPOLYLINE-153" data-name="LWPOLYLINE"><polyline class="cls-7" points="277.63 17.07 277.63 8.64 165.13 8.64 165.13 17.07"/></g><g id="LWPOLYLINE-154" data-name="LWPOLYLINE"><polyline class="cls-7" points="423.88 17.07 423.88 8.64 311.38 8.64 311.38 17.07"/></g><g id="LWPOLYLINE-155" data-name="LWPOLYLINE"><polyline class="cls-7" points="701.85 39.58 701.85 31.14 636.69 31.14 636.69 39.58"/></g><g id="LWPOLYLINE-156" data-name="LWPOLYLINE"><rect class="cls-10" x="145.03" y="242.78" width="33.75" height="1.64"/></g><g id="LWPOLYLINE-157" data-name="LWPOLYLINE"><rect class="cls-11" x="20.27" y="286.28" width="33.75" height="1.64" transform="translate(-192.13 110.35) rotate(-45)"/></g><g id="LWPOLYLINE-158" data-name="LWPOLYLINE"><rect class="cls-11" x="601.98" y="159.64" width="2.11" height="33.75" transform="translate(51.81 478.11) rotate(-45)"/></g><g id="LWPOLYLINE-159" data-name="LWPOLYLINE"><rect class="cls-10" x="728.91" y="123.72" width="1.64" height="33.75"/></g><g id="LWPOLYLINE-160" data-name="LWPOLYLINE"><rect class="cls-10" x="667.74" y="161.22" width="28.13" height="1.64"/></g><g id="LWPOLYLINE-161" data-name="LWPOLYLINE"><rect class="cls-10" x="628.84" y="161.22" width="28.13" height="1.64"/></g><g id="LWPOLYLINE-162" data-name="LWPOLYLINE"><rect class="cls-10" x="728.86" y="270.48" width="1.64" height="33.75"/></g><g id="LWPOLYLINE-163" data-name="LWPOLYLINE"><rect class="cls-10" x="686.14" y="250.04" width="33.75" height="1.64"/></g><g id="LWPOLYLINE-164" data-name="LWPOLYLINE"><rect class="cls-10" x="645.17" y="117.71" width="34.06" height="1.64"/></g><g id="LWPOLYLINE-165" data-name="LWPOLYLINE"><rect class="cls-10" x="539.77" y="262.58" width="28.13" height="1.64"/></g><g id="LWPOLYLINE-166" data-name="LWPOLYLINE"><rect class="cls-10" x="492.43" y="234.69" width="33.75" height="1.64"/></g><g id="LWPOLYLINE-167" data-name="LWPOLYLINE"><rect class="cls-10" x="630.31" y="236.57" width="33.75" height="1.64"/></g><g id="LWPOLYLINE-168" data-name="LWPOLYLINE"><rect class="cls-11" x="688.95" y="266.07" width="1.64" height="33.75" transform="translate(1.96 570.62) rotate(-45)"/></g><g id="LWPOLYLINE-169" data-name="LWPOLYLINE"><rect class="cls-11" x="546.47" y="282.13" width="33.75" height="1.64" transform="translate(-35.07 481.22) rotate(-45)"/></g><g id="LWPOLYLINE-170" data-name="LWPOLYLINE"><rect class="cls-10" x="529.93" y="393.95" width="1.64" height="33.75"/></g><g id="LWPOLYLINE-171" data-name="LWPOLYLINE"><rect class="cls-10" x="492.43" y="234.69" width="33.75" height="1.64"/></g><g id="ARC-30" data-name="ARC"><path class="cls-10" d="M49.65,275.75a33.74,33.74,0,0,0-23.86-9.89"/></g><g id="ARC-31" data-name="ARC"><path class="cls-10" d="M590.36,165.33A34.22,34.22,0,0,0,582,187.7"/></g><g id="ARC-32" data-name="ARC"><path class="cls-10" d="M678.42,304.18a33.76,33.76,0,0,0,23.87-9.88"/></g><g id="ARC-33" data-name="ARC"><path class="cls-10" d="M550.83,294.3a33.76,33.76,0,0,0,23.87,9.88"/></g><g id="LWPOLYLINE-172" data-name="LWPOLYLINE"><polyline class="cls-8" points="529.93 367.7 529.93 337.7 471.81 337.7 471.81 367.7"/></g><g id="ARC-34" data-name="ARC"><path class="cls-8" d="M479.09,354a3.29,3.29,0,1,0,0-.79"/></g><g id="LWPOLYLINE-173" data-name="LWPOLYLINE"><path class="cls-8" d="M482.3,353.25H471V354H482.3a.41.41,0,0,0,.43-.39A.41.41,0,0,0,482.3,353.25Z"/></g><g id="LWPOLYLINE-174" data-name="LWPOLYLINE"><rect class="cls-8" x="471.77" y="366.91" width="22.5" height="0.83"/></g><g id="LWPOLYLINE-175" data-name="LWPOLYLINE"><rect class="cls-8" x="494.27" y="366.91" width="35.62" height="0.83"/></g><g id="LWPOLYLINE-176" data-name="LWPOLYLINE"><rect class="cls-8" x="730.56" y="212.31" width="58.56" height="30.94"/></g><g id="LWPOLYLINE-177" data-name="LWPOLYLINE"><path class="cls-8" d="M785.36,228.35v-6.88a4.85,4.85,0,0,0-4.85-4.85h-40a4.85,4.85,0,0,0-4.85,4.85V234.3a4.85,4.85,0,0,0,4.85,4.85h40a4.85,4.85,0,0,0,4.85-4.85v-6"/></g><g id="LWPOLYLINE-178" data-name="LWPOLYLINE"><rect class="cls-8" x="730.56" y="162.39" width="69.37" height="34.69"/></g><g id="LWPOLYLINE-179" data-name="LWPOLYLINE"><rect class="cls-8" x="734.19" y="167.08" width="61.05" height="24.37" rx="4.69"/></g><g id="CIRCLE-27" data-name="CIRCLE"><path class="cls-8" d="M786.4,179.26a2.11,2.11,0,1,1,2.11,2.11,2.11,2.11,0,0,1-2.11-2.11Z"/></g><g id="LWPOLYLINE-180" data-name="LWPOLYLINE"><rect class="cls-8" x="702.43" y="45.2" width="28.13" height="58.12"/></g><g id="LWPOLYLINE-181" data-name="LWPOLYLINE"><rect class="cls-12" x="729.77" y="80.07" width="0.83" height="23.25"/></g><g id="LWPOLYLINE-182" data-name="LWPOLYLINE"><rect class="cls-12" x="729.77" y="45.2" width="0.83" height="34.87"/></g><g id="ARC-35" data-name="ARC"><path class="cls-8" d="M717.83,96.11a3.29,3.29,0,1,0-.79,0"/></g><g id="LWPOLYLINE-183" data-name="LWPOLYLINE"><path class="cls-8" d="M717,92.88V104h.78V92.88a.39.39,0,1,0-.78,0Z"/></g><g id="ARC-36" data-name="ARC"><path class="cls-12" d="M782.58,227.85a3.28,3.28,0,1,0,0,.78"/></g><g id="LWPOLYLINE-184" data-name="LWPOLYLINE"><path class="cls-12" d="M779.32,228.63h10.17v-.77H779.32a.39.39,0,1,0,0,.77Z"/></g><g id="LINE-24" data-name="LINE"><line class="cls-12" x1="659.63" y1="204.81" x2="634.31" y2="204.81"/></g><g id="LINE-25" data-name="LINE"><line class="cls-12" x1="634.31" y1="204.81" x2="634.31" y2="232.7"/></g><g id="LINE-26" data-name="LINE"><line class="cls-12" x1="634.31" y1="232.7" x2="659.63" y2="232.7"/></g><g id="LINE-27" data-name="LINE"><line class="cls-12" x1="659.63" y1="232.7" x2="659.63" y2="204.81"/></g><g id="LWPOLYLINE-185" data-name="LWPOLYLINE"><rect class="cls-8" x="167.94" y="47.31" width="23.91" height="101.25"/></g><g id="LWPOLYLINE-186" data-name="LWPOLYLINE"><rect class="cls-12" x="168.41" y="21.62" width="23.44" height="25.69"/></g><g id="LWPOLYLINE-187" data-name="LWPOLYLINE"><polyline class="cls-12" points="191.84 185.36 167.94 185.36 167.94 148.56 191.84 148.56"/></g><g id="LWPOLYLINE-188" data-name="LWPOLYLINE"><polyline class="cls-8" points="189.97 185.36 191.84 185.36 191.84 148.56 189.97 148.56"/></g><g id="LWPOLYLINE-189" data-name="LWPOLYLINE"><rect class="cls-12" x="233.09" y="62.31" width="37.5" height="121.88"/></g><g id="LWPOLYLINE-190" data-name="LWPOLYLINE"><polyline class="cls-8" points="249.92 121.82 235.73 121.82 235.73 148.43 249.92 148.43 249.92 121.82"/></g><rect class="cls-12" x="250.13" y="135.81" width="3.24" height="1.36" transform="translate(115.26 388.24) rotate(-90)"/><path class="cls-12" d="M251.2,134.16a.84.84,0,0,0-.31.31h-6.83a.49.49,0,1,0,0,1h6.83a.94.94,0,1,0,.31-1.29Z"/><g id="LINE-28" data-name="LINE"><line class="cls-8" x1="252.34" y1="95.3" x2="252.34" y2="95.97"/><line class="cls-13" x1="252.34" y1="97.28" x2="252.34" y2="115.05"/><polyline class="cls-8" points="252.34 115.71 252.34 116.37 251.68 116.37"/><line class="cls-14" x1="250.3" y1="116.37" x2="234.43" y2="116.37"/><line class="cls-8" x1="233.74" y1="116.37" x2="233.08" y2="116.37"/></g><g id="LINE-29" data-name="LINE"><line class="cls-8" x1="233.08" y1="74.48" x2="233.74" y2="74.48"/><line class="cls-14" x1="235.12" y1="74.48" x2="250.99" y2="74.48"/><polyline class="cls-8" points="251.68 74.48 252.34 74.48 252.34 75.14"/><line class="cls-13" x1="252.34" y1="76.45" x2="252.34" y2="94.23"/><polyline class="cls-8" points="252.34 94.89 252.34 95.55 251.68 95.55"/><line class="cls-14" x1="250.3" y1="95.55" x2="234.43" y2="95.55"/><line class="cls-8" x1="233.74" y1="95.55" x2="233.08" y2="95.55"/></g><g id="LINE-30" data-name="LINE"><line class="cls-8" x1="233.61" y1="153.59" x2="234.27" y2="153.59"/><line class="cls-15" x1="235.57" y1="153.59" x2="250.53" y2="153.59"/><polyline class="cls-8" points="251.18 153.59 251.84 153.59 251.84 154.26"/><line class="cls-16" x1="251.84" y1="155.54" x2="251.84" y2="170.34"/><polyline class="cls-8" points="251.84 170.99 251.84 171.65 251.18 171.65"/><line class="cls-15" x1="249.88" y1="171.65" x2="234.92" y2="171.65"/><line class="cls-8" x1="234.27" y1="171.65" x2="233.61" y2="171.65"/></g><g id="CIRCLE-28" data-name="CIRCLE"><path class="cls-8" d="M185.39,101.13a.76.76,0,0,1,1.51,0,.76.76,0,1,1-1.51,0Z"/></g><g id="CIRCLE-29" data-name="CIRCLE"><path class="cls-8" d="M185.39,96.39a.76.76,0,1,1,.75.75.75.75,0,0,1-.75-.75Z"/></g><g id="CIRCLE-30" data-name="CIRCLE"><path class="cls-8" d="M182.28,96.39a.76.76,0,1,1,.75.75.75.75,0,0,1-.75-.75Z"/></g><g id="CIRCLE-31" data-name="CIRCLE"><path class="cls-8" d="M182.28,98.76a.76.76,0,1,1,.75.76.76.76,0,0,1-.75-.76Z"/></g><g id="CIRCLE-32" data-name="CIRCLE"><path class="cls-8" d="M182.28,101.13a.76.76,0,0,1,1.51,0,.76.76,0,1,1-1.51,0Z"/></g><g id="LWPOLYLINE-191" data-name="LWPOLYLINE"><rect class="cls-8" x="171.88" y="84.12" width="17.39" height="29.27" rx="0.41"/></g><circle class="cls-8" cx="176.38" cy="89.34" r="1.43"/><path class="cls-8" d="M179.83,93.68h-6.35a.61.61,0,0,1-.6-.62V85.63a.61.61,0,0,1,.6-.62h6.35a.05.05,0,0,1,0,0v8.56A.06.06,0,0,1,179.83,93.68Z"/><circle class="cls-8" cx="176.38" cy="98.76" r="1.43"/><path class="cls-8" d="M179.83,103.09h-6.35a.6.6,0,0,1-.6-.61V95a.6.6,0,0,1,.6-.61h6.35a.05.05,0,0,1,0,0V103A.05.05,0,0,1,179.83,103.09Z"/><circle class="cls-8" cx="176.38" cy="108.18" r="1.43"/><path class="cls-8" d="M179.83,112.51h-6.35a.61.61,0,0,1-.6-.62v-7.43a.61.61,0,0,1,.6-.62h6.35a.06.06,0,0,1,0,.06v8.56A.05.05,0,0,1,179.83,112.51Z"/><circle class="cls-8" cx="184.59" cy="108.18" r="1.43"/><path class="cls-8" d="M181.14,103.84h6.35a.61.61,0,0,1,.6.62v7.43a.61.61,0,0,1-.6.62h-6.35a0,0,0,0,1,0-.05V103.9A.06.06,0,0,1,181.14,103.84Z"/><circle class="cls-8" cx="184.59" cy="89.34" r="1.43"/><path class="cls-8" d="M181.14,85h6.35a.61.61,0,0,1,.6.62v7.43a.61.61,0,0,1-.6.62h-6.35a.06.06,0,0,1,0-.06V85.06A0,0,0,0,1,181.14,85Z"/><g id="LINE-31" data-name="LINE"><line class="cls-8" x1="180.37" y1="47.31" x2="180.37" y2="48.31"/><line class="cls-17" x1="180.37" y1="50.33" x2="180.37" y2="146.55"/><line class="cls-8" x1="180.37" y1="147.56" x2="180.37" y2="148.56"/></g><g id="LWPOLYLINE-192" data-name="LWPOLYLINE"><line class="cls-18" x1="633.64" y1="72.5" x2="633.64" y2="116.45"/></g><g id="LWPOLYLINE-193" data-name="LWPOLYLINE"><line class="cls-18" x1="136.53" y1="229.65" x2="187.27" y2="229.65"/></g><g id="LWPOLYLINE-194" data-name="LWPOLYLINE"><line class="cls-18" x1="622.98" y1="175.98" x2="660.59" y2="175.98"/></g><g id="LWPOLYLINE-195" data-name="LWPOLYLINE"><line class="cls-18" x1="664.23" y1="175.98" x2="699.74" y2="175.98"/></g><g id="LWPOLYLINE-196" data-name="LWPOLYLINE"><line class="cls-18" x1="678.42" y1="236.92" x2="727.04" y2="236.92"/></g><g id="LWPOLYLINE-197" data-name="LWPOLYLINE"><line class="cls-18" x1="533.45" y1="249.46" x2="571.42" y2="249.46"/></g><g id="LWPOLYLINE-198" data-name="LWPOLYLINE"><polyline class="cls-6" points="233.09 174.81 261.22 174.81 261.22 71.68 233.09 71.68"/></g><g id="LINE-32" data-name="LINE"><line class="cls-9" x1="142.9" y1="223.13" x2="142.9" y2="236.18"/></g><g id="LINE-33" data-name="LINE"><line class="cls-9" x1="145.32" y1="223.13" x2="145.32" y2="236.18"/></g><g id="LINE-34" data-name="LINE"><line class="cls-9" x1="147.74" y1="223.13" x2="147.74" y2="236.18"/></g><g id="LINE-35" data-name="LINE"><line class="cls-9" x1="150.16" y1="223.13" x2="150.16" y2="236.18"/></g><g id="LINE-36" data-name="LINE"><line class="cls-9" x1="152.58" y1="236.18" x2="152.58" y2="223.13"/></g><g id="LINE-37" data-name="LINE"><line class="cls-9" x1="627.11" y1="100.99" x2="640.17" y2="100.99"/></g><g id="LINE-38" data-name="LINE"><line class="cls-9" x1="627.11" y1="103.41" x2="640.17" y2="103.41"/></g><g id="LINE-39" data-name="LINE"><line class="cls-9" x1="627.11" y1="105.83" x2="640.17" y2="105.83"/></g><g id="LINE-40" data-name="LINE"><line class="cls-9" x1="627.11" y1="108.25" x2="640.17" y2="108.25"/></g><g id="LINE-41" data-name="LINE"><line class="cls-9" x1="627.11" y1="110.67" x2="640.17" y2="110.67"/></g><g id="LINE-42" data-name="LINE"><line class="cls-9" x1="640.17" y1="113.09" x2="627.11" y2="113.09"/></g><g id="LINE-43" data-name="LINE"><line class="cls-9" x1="695.79" y1="169.45" x2="695.79" y2="182.51"/></g><g id="LINE-44" data-name="LINE"><line class="cls-9" x1="693.37" y1="169.45" x2="693.37" y2="182.51"/></g><g id="LINE-45" data-name="LINE"><line class="cls-9" x1="690.95" y1="169.45" x2="690.95" y2="182.51"/></g><g id="LINE-46" data-name="LINE"><line class="cls-9" x1="688.53" y1="169.45" x2="688.53" y2="182.51"/></g><g id="LINE-47" data-name="LINE"><line class="cls-9" x1="686.11" y1="169.45" x2="686.11" y2="182.51"/></g><g id="LINE-48" data-name="LINE"><line class="cls-9" x1="683.69" y1="182.51" x2="683.69" y2="169.45"/></g><g id="LINE-49" data-name="LINE"><line class="cls-9" x1="656.65" y1="169.45" x2="656.65" y2="182.51"/></g><g id="LINE-50" data-name="LINE"><line class="cls-9" x1="654.23" y1="169.45" x2="654.23" y2="182.51"/></g><g id="LINE-51" data-name="LINE"><line class="cls-9" x1="651.81" y1="169.45" x2="651.81" y2="182.51"/></g><g id="LINE-52" data-name="LINE"><line class="cls-9" x1="649.39" y1="169.45" x2="649.39" y2="182.51"/></g><g id="LINE-53" data-name="LINE"><line class="cls-9" x1="646.97" y1="169.45" x2="646.97" y2="182.51"/></g><g id="LINE-54" data-name="LINE"><line class="cls-9" x1="644.55" y1="182.51" x2="644.55" y2="169.45"/></g><g id="LINE-55" data-name="LINE"><line class="cls-9" x1="723.09" y1="230.39" x2="723.09" y2="243.45"/></g><g id="LINE-56" data-name="LINE"><line class="cls-9" x1="720.67" y1="230.39" x2="720.67" y2="243.45"/></g><g id="LINE-57" data-name="LINE"><line class="cls-9" x1="718.26" y1="230.39" x2="718.25" y2="243.45"/></g><g id="LINE-58" data-name="LINE"><line class="cls-9" x1="715.84" y1="230.39" x2="715.84" y2="243.45"/></g><g id="LINE-59" data-name="LINE"><line class="cls-9" x1="713.42" y1="230.39" x2="713.42" y2="243.45"/></g><g id="LINE-60" data-name="LINE"><line class="cls-9" x1="711" y1="243.45" x2="711" y2="230.39"/></g><g id="LINE-61" data-name="LINE"><line class="cls-9" x1="567.47" y1="242.93" x2="567.47" y2="255.99"/></g><g id="LINE-62" data-name="LINE"><line class="cls-9" x1="565.05" y1="242.93" x2="565.05" y2="255.98"/></g><g id="LINE-63" data-name="LINE"><line class="cls-9" x1="562.63" y1="242.93" x2="562.63" y2="255.98"/></g><g id="LINE-64" data-name="LINE"><line class="cls-9" x1="560.21" y1="242.93" x2="560.21" y2="255.98"/></g><g id="LINE-65" data-name="LINE"><line class="cls-9" x1="557.79" y1="242.93" x2="557.79" y2="255.98"/></g><g id="LINE-66" data-name="LINE"><line class="cls-9" x1="555.37" y1="255.98" x2="555.37" y2="242.93"/></g><g id="LINE-67" data-name="LINE"><line class="cls-9" x1="627.11" y1="108.25" x2="640.17" y2="108.25"/></g><g id="LWPOLYLINE-199" data-name="LWPOLYLINE"><rect class="cls-12" x="460.54" y="251.87" width="19.81" height="25.81"/></g><g id="LWPOLYLINE-200" data-name="LWPOLYLINE"><path class="cls-12" d="M476.48,272.61a1.11,1.11,0,0,0,1.11-1.11V258.05a1.11,1.11,0,0,0-1.11-1.11h-10a.92.92,0,0,0-.92.92v13.83a.92.92,0,0,0,.92.92Z"/></g><g id="ARC-37" data-name="ARC"><path class="cls-12" d="M477.05,287.67c-3.16-.35-11.5-1-11.5-1"/></g><g id="ARC-38" data-name="ARC"><path class="cls-12" d="M469.73,298.91a.82.82,0,0,0,.52.77c.34.14.69.28,1.05.4a15.31,15.31,0,0,0,2.93.64c.52.06,1,.1,1.59.13a15.64,15.64,0,0,0,4.15-.34,10.1,10.1,0,0,0,5.3-3.07,4.77,4.77,0,0,0-.07-6.51,10.08,10.08,0,0,0-5.35-3,15.29,15.29,0,0,0-4.16-.26c-.53,0-1.06.09-1.59.16a13.87,13.87,0,0,0-2.91.7c-.36.12-.7.26-1.05.41a.84.84,0,0,0-.5.78Z"/></g><g id="ARC-39" data-name="ARC"><path class="cls-12" d="M477.18,300.86c-3.15.41-11.63,1-11.63,1"/></g><g id="ARC-40" data-name="ARC"><path class="cls-12" d="M465.69,286.67a1.09,1.09,0,0,1,1,1,56.64,56.64,0,0,1,0,13.27,1.11,1.11,0,0,1-1,1h0c-1.13.05-2.27.09-3.41.12a1.47,1.47,0,0,1-1.49-1.34q-.27-3.18-.27-6.38t.27-6.39a1.47,1.47,0,0,1,1.49-1.33c1.14,0,2.28.07,3.41.12Z"/></g><g id="ARC-41" data-name="ARC"><path class="cls-12" d="M464.17,264.31a1.16,1.16,0,1,0,0,.93Z"/></g><g id="ARC-42" data-name="ARC"><path class="cls-12" d="M462.87,259a1.17,1.17,0,1,0,.47,0Z"/></g><g id="ARC-43" data-name="ARC"><path class="cls-12" d="M462.87,270.56a1.17,1.17,0,1,1,.47,0Z"/></g><g id="LINE-68" data-name="LINE"><path class="cls-12" d="M468.68,264.31h-5.57a.47.47,0,1,0,0,.93h5.57a.47.47,0,1,0,0-.93Z"/></g><line class="cls-12" x1="463.11" y1="260.14" x2="463.11" y2="256.88"/><line class="cls-12" x1="463.11" y1="272.68" x2="463.11" y2="269.41"/><g id="LWPOLYLINE-201" data-name="LWPOLYLINE"><rect class="cls-12" x="460.23" y="372.36" width="19.35" height="25.2"/></g><g id="LWPOLYLINE-202" data-name="LWPOLYLINE"><path class="cls-12" d="M475.8,392.61a1.08,1.08,0,0,0,1.08-1.08V378.39a1.08,1.08,0,0,0-1.08-1.08h-9.72a.9.9,0,0,0-.9.9v13.5a.9.9,0,0,0,.9.9Z"/></g><g id="ARC-44" data-name="ARC"><path class="cls-12" d="M476.36,407.31c-3.09-.34-11.24-1-11.24-1"/></g><g id="ARC-45" data-name="ARC"><path class="cls-12" d="M469.2,418.29a.84.84,0,0,0,.51.75c.34.14.68.27,1,.39a14.74,14.74,0,0,0,2.86.62c.51.06,1,.1,1.55.13a15.3,15.3,0,0,0,4.05-.33,10,10,0,0,0,5.18-3,4.89,4.89,0,0,0,1.22-3.2,4.81,4.81,0,0,0-1.29-3.17,9.86,9.86,0,0,0-5.23-2.89,15.34,15.34,0,0,0-4.06-.25c-.51,0-1,.09-1.54.16a14.61,14.61,0,0,0-2.85.68c-.34.12-.68.26-1,.4a.84.84,0,0,0-.49.76Z"/></g><g id="ARC-46" data-name="ARC"><path class="cls-12" d="M476.48,420.19c-3.08.4-11.36,1-11.36,1"/></g><g id="ARC-47" data-name="ARC"><path class="cls-12" d="M465.26,406.34a1.07,1.07,0,0,1,1,.94,55.36,55.36,0,0,1,0,13,1.07,1.07,0,0,1-1,.94h0c-1.11.06-2.23.1-3.34.12a1.42,1.42,0,0,1-1.45-1.3q-.27-3.11-.27-6.23t.27-6.24a1.42,1.42,0,0,1,1.45-1.3c1.11,0,2.23.06,3.34.12Z"/></g><g id="ARC-48" data-name="ARC"><path class="cls-12" d="M463.78,384.51a1.13,1.13,0,1,0,0,.9Z"/></g><g id="ARC-49" data-name="ARC"><path class="cls-12" d="M462.51,379.31a1.13,1.13,0,1,0,.46,0Z"/></g><g id="ARC-50" data-name="ARC"><path class="cls-12" d="M462.51,390.61a1.13,1.13,0,1,1,.46,0Z"/></g><g id="LINE-69" data-name="LINE"><path class="cls-12" d="M468.19,384.51h-5.45a.45.45,0,1,0,0,.9h5.45a.45.45,0,1,0,0-.9Z"/></g><line class="cls-12" x1="462.74" y1="380.43" x2="462.74" y2="377.25"/><line class="cls-12" x1="462.74" y1="392.67" x2="462.74" y2="389.49"/><g id="LWPOLYLINE-203" data-name="LWPOLYLINE"><rect class="cls-12" x="779.65" y="248.75" width="20.28" height="26.42"/></g><g id="LWPOLYLINE-204" data-name="LWPOLYLINE"><path class="cls-12" d="M783.61,270a1.13,1.13,0,0,1-1.13-1.14V255.07a1.12,1.12,0,0,1,1.13-1.13H793.8a.94.94,0,0,1,.94.94V269a1,1,0,0,1-.94,1Z"/></g><g id="ARC-51" data-name="ARC"><path class="cls-12" d="M783,285.39c3.24-.36,11.78-1,11.78-1"/></g><g id="ARC-52" data-name="ARC"><path class="cls-12" d="M790.52,296.9a.86.86,0,0,1-.53.79c-.35.14-.71.28-1.08.4a15.2,15.2,0,0,1-3,.66c-.54.06-1.09.1-1.63.13a15.57,15.57,0,0,1-4.25-.35,10.33,10.33,0,0,1-5.42-3.13,5.05,5.05,0,0,1-1.28-3.35,5,5,0,0,1,1.34-3.32,10.32,10.32,0,0,1,5.48-3,16.06,16.06,0,0,1,4.26-.27c.54,0,1.09.09,1.62.17a14.62,14.62,0,0,1,3,.71c.36.13.72.27,1.07.43a.84.84,0,0,1,.51.79Z"/></g><g id="ARC-53" data-name="ARC"><path class="cls-12" d="M782.89,298.89c3.23.42,11.91,1,11.91,1"/></g><g id="ARC-54" data-name="ARC"><path class="cls-12" d="M794.65,284.37a1.12,1.12,0,0,0-1.06,1,57.83,57.83,0,0,0,0,13.58,1.12,1.12,0,0,0,1.06,1h0c1.17.06,2.33.1,3.5.13a1.49,1.49,0,0,0,1.52-1.37q.29-3.26.28-6.53c0-2.18-.09-4.37-.28-6.54a1.51,1.51,0,0,0-1.52-1.37c-1.17,0-2.33.07-3.5.13Z"/></g><g id="ARC-55" data-name="ARC"><path class="cls-12" d="M796.21,261.48a1.19,1.19,0,1,1,0,.95Z"/></g><g id="ARC-56" data-name="ARC"><path class="cls-12" d="M797.54,256a1.2,1.2,0,0,1,1,1.17,1.19,1.19,0,0,1-2.38,0,1.2,1.2,0,0,1,.95-1.17Z"/></g><g id="ARC-57" data-name="ARC"><path class="cls-12" d="M797.54,267.88a1.19,1.19,0,1,0-.48,0Z"/></g><g id="LINE-70" data-name="LINE"><path class="cls-12" d="M791.59,261.48h5.71a.48.48,0,1,1,0,.95h-5.71a.48.48,0,0,1,0-.95Z"/></g><line class="cls-12" x1="797.3" y1="257.21" x2="797.3" y2="253.87"/><line class="cls-12" x1="797.3" y1="270.04" x2="797.3" y2="266.7"/><g id="ARC-58" data-name="ARC"><path class="cls-12" d="M782.76,72.24c3.26.36,11.87,1,11.87,1"/></g><g id="ARC-59" data-name="ARC"><path class="cls-12" d="M790.32,60.63a.89.89,0,0,0-.54-.79c-.36-.15-.72-.28-1.09-.41a15.5,15.5,0,0,0-3-.66c-.54-.06-1.09-.11-1.64-.14a16.24,16.24,0,0,0-4.28.36,10.42,10.42,0,0,0-5.47,3.16,4.92,4.92,0,0,0,.07,6.72,10.36,10.36,0,0,0,5.53,3.06,16.23,16.23,0,0,0,4.29.27c.54,0,1.09-.1,1.63-.17a15.53,15.53,0,0,0,3-.72c.36-.13.72-.27,1.08-.43a.88.88,0,0,0,.52-.8Z"/></g><g id="ARC-60" data-name="ARC"><path class="cls-12" d="M782.63,58.62c3.25-.42,12-1,12-1"/></g><g id="ARC-61" data-name="ARC"><path class="cls-12" d="M794.48,73.27a1.14,1.14,0,0,1-1.07-1,57.34,57.34,0,0,1,0-13.69,1.14,1.14,0,0,1,1.07-1h0c1.17-.06,2.35-.1,3.52-.13a1.51,1.51,0,0,1,1.54,1.38q.29,3.28.28,6.59c0,2.19-.09,4.39-.28,6.58A1.5,1.5,0,0,1,798,73.39c-1.17,0-2.35-.07-3.52-.12Z"/></g><g id="LWPOLYLINE-205" data-name="LWPOLYLINE"><path class="cls-8" d="M793.14,104.67V96.11a1,1,0,0,0-.95-1H780.78a1,1,0,0,0-.95,1v18.07a.94.94,0,0,0,.95.95h11.41a.94.94,0,0,0,.95-.95v-9.51Z"/></g><g id="ARC-62" data-name="ARC"><path class="cls-12" d="M795.51,105.63a1.22,1.22,0,0,0,1.1.72,1.2,1.2,0,1,0-1.1-1.68Z"/></g><g id="ARC-63" data-name="ARC"><path class="cls-12" d="M796.85,111.12a1.2,1.2,0,1,0-.48,0Z"/></g><g id="ARC-64" data-name="ARC"><path class="cls-12" d="M796.85,99.18a1.19,1.19,0,0,1,1,1.17,1.2,1.2,0,0,1-2.4,0,1.19,1.19,0,0,1,1-1.17Z"/></g><g id="LINE-71" data-name="LINE"><path class="cls-12" d="M790.86,105.63h5.75a.48.48,0,0,0,.48-.48.47.47,0,0,0-.48-.48h-5.75a.47.47,0,0,0-.48.48A.48.48,0,0,0,790.86,105.63Z"/></g><line class="cls-12" x1="796.61" y1="109.93" x2="796.61" y2="113.3"/><line class="cls-12" x1="796.61" y1="96.99" x2="796.61" y2="100.36"/><g id="LWPOLYLINE-206" data-name="LWPOLYLINE"><path class="cls-8" d="M793.14,133.19v-8.56a.94.94,0,0,0-.95-.95H780.78a.94.94,0,0,0-.95.95V142.7a1,1,0,0,0,.95,1h11.41a1,1,0,0,0,.95-1v-9.51Z"/></g><g id="LWPOLYLINE-207" data-name="LWPOLYLINE"><rect class="cls-8" x="776.98" y="82.54" width="22.82" height="68.47"/></g><g id="ARC-65" data-name="ARC"><path class="cls-12" d="M795.51,134.38a1.2,1.2,0,1,0,0-1Z"/></g><g id="ARC-66" data-name="ARC"><path class="cls-12" d="M796.85,139.87a1.2,1.2,0,1,0-.48,0Z"/></g><g id="ARC-67" data-name="ARC"><path class="cls-12" d="M796.85,127.93a1.2,1.2,0,1,1-.48,0Z"/></g><g id="LINE-72" data-name="LINE"><path class="cls-12" d="M790.86,134.38h5.75a.48.48,0,0,0,0-1h-5.75a.48.48,0,1,0,0,1Z"/></g><line class="cls-12" x1="796.61" y1="138.68" x2="796.61" y2="142.05"/><line class="cls-12" x1="796.61" y1="125.75" x2="796.61" y2="129.12"/><g id="LWPOLYLINE-208" data-name="LWPOLYLINE"><polygon class="cls-19" points="787.26 448.32 787.91 448.32 787.91 446.45 825.36 446.45 825.36 39.58 825.13 39.58 825.13 22.7 821.61 22.7 820.38 24.82 818.8 26.7 816.92 28.28 814.79 29.5 812.48 30.34 810.06 30.77 807.61 30.77 805.19 30.34 802.88 29.5 800.76 28.28 798.88 26.7 797.29 24.82 796.06 22.7 792.31 22.7 792.31 45.2 799.93 45.2 799.93 197.07 730.56 197.07 730.56 157.47 727.04 157.47 727.04 161.22 695.87 161.22 695.87 164.73 699.74 164.73 699.74 187.23 664.11 187.23 664.11 164.73 667.74 164.73 667.74 161.22 656.96 161.22 656.96 164.73 660.6 164.73 660.6 187.23 622.98 187.23 622.98 164.73 628.84 164.73 628.84 161.22 622.98 161.22 622.98 157.47 619.46 157.47 619.46 187.7 615.71 187.7 615.71 193.44 619.46 193.44 619.46 238.21 630.31 238.21 630.31 234.69 622.98 234.69 622.98 200.94 668.23 200.94 668.23 234.69 664.06 234.69 664.06 238.21 674.91 238.21 674.91 270.43 678.42 270.43 678.42 251.68 686.14 251.68 686.14 248.17 678.42 248.17 678.42 225.67 727.04 225.67 727.04 248.17 719.89 248.17 719.89 251.68 727.04 251.68 727.04 270.43 730.56 270.43 730.56 212.31 788.8 212.31 788.8 244.18 800.05 244.18 800.05 307.93 730.56 307.93 730.56 304.18 727.04 304.18 727.04 311.45 802.74 311.45 802.74 431.45 784.16 431.45 784.16 448.32 787.26 448.32"/></g><g id="LWPOLYLINE-209" data-name="LWPOLYLINE"><polygon class="cls-19" points="690.41 448.32 694.16 448.32 694.16 431.45 678.42 431.45 678.42 304.18 674.91 304.18 674.91 307.93 578.21 307.93 578.21 304.18 574.7 304.18 574.7 311.45 674.91 311.45 674.91 411.64 650.06 411.64 650.06 431.45 634.95 431.45 634.95 437.07 636.94 437.07 636.94 448.32 640.69 448.32 640.69 446.45 690.41 446.45 690.41 448.32"/></g><g id="LWPOLYLINE-210" data-name="LWPOLYLINE"><polygon class="cls-19" points="542.95 448.32 546.7 448.32 546.7 437.07 547.88 437.07 547.88 431.45 533.45 431.45 533.45 427.7 529.93 427.7 529.93 431.45 509.43 431.45 509.43 448.32 513.18 448.32 513.18 446.45 542.95 446.45 542.95 448.32"/></g><g id="LWPOLYLINE-211" data-name="LWPOLYLINE"><polygon class="cls-19" points="470.06 448.32 470.06 431.45 460.56 431.45 460.56 367.7 471.81 367.7 471.81 337.7 529.93 337.7 529.93 393.95 533.45 393.95 533.45 264.22 539.77 264.22 539.77 260.71 533.45 260.71 533.45 238.21 571.41 238.21 571.41 260.71 567.9 260.71 567.9 264.22 574.7 264.22 574.7 270.43 578.21 270.43 578.21 234.69 526.18 234.69 526.18 238.21 529.93 238.21 529.93 312.39 460.56 312.39 460.56 238.21 492.43 238.21 492.43 234.69 426.1 234.69 426.1 304.89 423.38 304.89 423.38 310.51 423.88 310.51 423.88 321.76 423.63 321.76 423.63 439.89 423.88 439.89 423.88 446.45 466.31 446.45 466.31 448.32 468.88 448.32 470.06 448.32"/></g><g id="LWPOLYLINE-212" data-name="LWPOLYLINE"><polygon class="cls-19" points="33.28 323.03 34.81 323.03 34.81 318.95 60.13 318.95 60.13 306.06 25.79 306.06 25.79 299.61 20.05 299.61 20.05 302.54 14.42 302.54 14.42 323.03 33.28 323.03"/></g><g id="LWPOLYLINE-213" data-name="LWPOLYLINE"><polygon class="cls-19" points="303.32 321.88 311.38 321.88 311.38 310.51 312.31 310.51 312.31 304.89 276.69 304.89 276.69 310.51 277.63 310.51 277.63 321.88 278.1 321.88 278.37 321.88 290.58 321.88 303.32 321.88"/></g><g id="LWPOLYLINE-214" data-name="LWPOLYLINE"><polygon class="cls-19" points="163.23 321.88 191.84 321.88 191.84 310.51 192.78 310.51 192.78 304.89 191.84 304.89 191.84 289.36 187.28 289.36 187.28 294.46 107.7 294.46 107.7 289.36 103.13 289.36 103.13 321.88 112.28 321.88 163.23 321.88"/></g><g id="LWPOLYLINE-215" data-name="LWPOLYLINE"><polygon class="cls-19" points="20.05 265.86 25.79 265.86 25.79 244.42 103.13 244.42 103.13 249.99 107.7 249.99 107.7 244.42 145.03 244.42 145.03 240.9 136.53 240.9 136.53 218.4 187.28 218.4 187.28 240.9 178.78 240.9 178.78 244.42 187.28 244.42 187.28 249.99 191.84 249.99 191.84 185.36 168.41 185.36 168.41 22.7 191.84 22.7 191.84 17.07 165.13 17.07 165.13 0.2 161.14 0.2 161.14 214.89 133.02 214.89 133.02 241.55 14.29 241.55 14.29 250.04 14.42 250.04 14.42 251.92 20.05 251.92 20.05 253.39 20.05 265.86"/></g><g id="LWPOLYLINE-216" data-name="LWPOLYLINE"><polygon class="cls-19" points="581.96 193.44 581.96 187.7 455.4 187.7 455.4 45.2 457.63 45.2 457.63 0.2 453.88 0.2 452.63 2.4 451.01 4.35 449.08 5.99 446.89 7.27 444.51 8.14 442.02 8.58 439.49 8.58 436.99 8.14 434.61 7.27 432.42 5.99 430.49 4.35 428.88 2.4 427.63 0.2 423.88 0.2 423.88 22.7 426.1 22.7 426.1 193.44 570.76 193.44 581.96 193.44"/></g><g id="LWPOLYLINE-217" data-name="LWPOLYLINE"><polygon class="cls-19" points="619.46 123.72 622.98 123.72 622.98 119.97 645.48 119.97 645.48 116.45 622.98 116.45 622.98 72.5 648.06 72.5 648.06 45.2 659.5 45.2 659.5 39.58 636.69 39.58 636.69 22.7 633.88 22.7 633.66 24.58 633.04 26.36 632.03 27.96 630.7 29.3 629.1 30.3 627.32 30.93 625.44 31.14 623.56 30.93 621.7 30.25 620.18 29.3 618.84 27.96 617.84 26.36 617.21 24.58 617 22.7 614.19 22.7 614.19 45.2 619.46 45.2 619.46 112.09 619.46 123.72"/></g><g id="LWPOLYLINE-218" data-name="LWPOLYLINE"><polygon class="cls-19" points="730.56 123.72 730.56 103.33 702.55 103.33 702.55 45.2 748.1 45.2 748.1 39.57 724.35 39.57 724.35 22.7 721.53 22.7 721.32 24.58 720.7 26.36 719.69 27.96 718.36 29.3 716.76 30.3 714.97 30.93 713.1 31.14 711.22 30.93 709.43 30.3 707.83 29.3 706.5 27.96 705.49 26.36 704.87 24.58 704.66 22.7 701.85 22.7 701.85 39.57 699.03 39.57 699.03 116.45 679.23 116.45 679.23 119.97 727.04 119.97 727.04 123.72 730.56 123.72"/></g><g id="LWPOLYLINE-219" data-name="LWPOLYLINE"><polygon class="cls-19" points="524.66 45.2 547.16 45.2 547.16 22.7 544.35 22.7 544.13 24.58 543.51 26.36 542.5 27.96 541.17 29.3 539.57 30.3 537.78 30.93 535.91 31.14 534.03 30.93 532.25 30.3 530.65 29.3 529.31 27.96 528.3 26.36 527.68 24.58 527.47 22.7 524.66 22.7 524.66 41.45 524.66 45.2"/></g><g id="LWPOLYLINE-220" data-name="LWPOLYLINE"><polygon class="cls-19" points="290.58 22.7 311.38 22.7 311.38 0.2 307.63 0.2 306.38 2.4 304.76 4.35 302.83 5.99 300.64 7.27 298.26 8.14 295.77 8.58 293.24 8.58 290.58 8.08 288.36 7.27 286.17 5.99 284.24 4.35 282.63 2.4 281.38 0.2 277.63 0.2 277.63 22.7 290.58 22.7"/></g><path class="cls-20" d="M489.14,102.58H490l1.81,4.44h0l1.81-4.44h.88v5.6h-.66v-4.55h0L492,108.18h-.28l-1.89-4.55h0v4.55h-.65Z"/><path class="cls-20" d="M499.48,107.05H497l-.39,1.13h-.68l2-5.6h.64l2,5.6h-.68Zm-.2-.58-1-3h0l-1.05,3Z"/><path class="cls-20" d="M501.44,106.32l.66-.11a1.46,1.46,0,0,0,1.65,1.46c.78,0,1.29-.36,1.29-.9s-.38-.88-1.54-1.25c-1.34-.44-1.79-.83-1.79-1.58a1.59,1.59,0,0,1,1.79-1.48,2,2,0,0,1,2,1.63l-.64.14a1.35,1.35,0,0,0-1.39-1.15c-.68,0-1.13.34-1.13.86s.32.66,1.34,1c1.46.47,2,1,2,1.84s-.79,1.54-1.95,1.54A2.06,2.06,0,0,1,501.44,106.32Z"/><path class="cls-20" d="M508.48,103.2h-1.74v-.62h4.15v.62h-1.75v5h-.66Z"/><path class="cls-20" d="M512.36,102.58h3.36v.62H513V105h2.48v.6H513v2h2.71v.63h-3.36Z"/><path class="cls-20" d="M519.81,105.87l1.23,2.31h-.77l-1.19-2.27H518v2.27h-.65v-5.6h2c1.16,0,1.86.62,1.86,1.65a1.55,1.55,0,0,1-1.4,1.63Zm-.52-.59c.83,0,1.26-.36,1.26-1s-.43-1-1.26-1H518v2.08Z"/><path class="cls-20" d="M486.62,111.08h2.15a1.46,1.46,0,0,1,1.64,1.45,1.2,1.2,0,0,1-.66,1.15h0a1.34,1.34,0,0,1,.86,1.33c0,1.08-.68,1.66-2,1.66h-2Zm2,2.37c.73,0,1.09-.29,1.09-.89s-.37-.86-1.09-.86h-1.37v1.75Zm-.09,2.6c1,0,1.39-.31,1.39-1s-.39-1-1.38-1h-1.29v2Z"/><path class="cls-20" d="M492.25,111.08h3.36v.62H492.9v1.79h2.48v.6H492.9v2h2.71v.63h-3.36Z"/><path class="cls-20" d="M497.2,111.08h1.74c1.42,0,2.42,1,2.42,2.79,0,2-1,2.81-2.47,2.81H497.2Zm1.65,5c1.14,0,1.84-.6,1.84-2.18s-.7-2.17-1.79-2.17h-1v4.35Z"/><path class="cls-20" d="M505.49,114.37l1.23,2.31h-.78l-1.18-2.27h-1.12v2.27H503v-5.6h2c1.17,0,1.87.62,1.87,1.65a1.55,1.55,0,0,1-1.4,1.63Zm-.52-.59c.82,0,1.25-.36,1.25-1s-.42-1-1.25-1h-1.33v2.08Z"/><path class="cls-20" d="M508.15,113.88c0-1.75,1-2.92,2.36-2.92s2.36,1.17,2.36,2.92-.94,2.92-2.36,2.92S508.15,115.63,508.15,113.88Zm4.06,0c0-1.42-.65-2.3-1.7-2.3s-1.69.88-1.69,2.3.64,2.29,1.69,2.29S512.21,115.29,512.21,113.88Z"/><path class="cls-20" d="M514.21,113.88c0-1.75.95-2.92,2.36-2.92s2.36,1.17,2.36,2.92-.94,2.92-2.36,2.92S514.21,115.63,514.21,113.88Zm4.06,0c0-1.42-.65-2.3-1.7-2.3s-1.69.88-1.69,2.3.64,2.29,1.69,2.29S518.27,115.29,518.27,113.88Z"/><path class="cls-20" d="M520.56,111.08h.88l1.82,4.44h0l1.82-4.44H526v5.6h-.67v-4.55h0l-1.89,4.55h-.28l-1.89-4.55h0v4.55h-.66Z"/><path class="cls-20" d="M481.51,120.33l-1.25.81v-.7l1.33-.86h.59v5.6h-.67Z"/><path class="cls-20" d="M486.39,124H483.6v-.57l2.46-3.88h1v3.87h.71V124h-.71v1.15h-.67Zm0-.58V120.1h0l-2.13,3.35Z"/><path class="cls-20" d="M489.12,119.58h.59v1.78h-.59Z"/><path class="cls-20" d="M490.84,122h2.09v.6h-2.09Z"/><path class="cls-20" d="M496.24,120.22v0h-2.91v-.62H497v.58l-2.27,5H494Z"/><path class="cls-20" d="M498.62,119.58h.58v1.78h-.58Zm1.05,0h.59v1.78h-.59Z"/><path class="cls-20" d="M504,123.74l1.31-1.3L504,121.15l.39-.39,1.29,1.31,1.3-1.31.39.39L506,122.44l1.31,1.3-.39.39-1.3-1.31-1.29,1.31Z"/><path class="cls-20" d="M511.5,120.33l-1.25.81v-.7l1.33-.86h.58v5.6h-.66Z"/><path class="cls-20" d="M513.75,123.31l.66-.1c.11,1,.58,1.46,1.4,1.46a1.07,1.07,0,0,0,1.2-1.08c0-.76-.43-1.12-1.32-1.12h-.4v-.57h.4c.67,0,1.18-.4,1.18-.91s-.4-.92-1.07-.92a1.19,1.19,0,0,0-1.26,1.05l-.65-.09a1.8,1.8,0,0,1,1.91-1.57,1.54,1.54,0,0,1,1.73,1.49,1.33,1.33,0,0,1-.76,1.17v0a1.49,1.49,0,0,1,.9,1.45,1.7,1.7,0,0,1-1.86,1.71A2,2,0,0,1,513.75,123.31Z"/><path class="cls-20" d="M519.33,119.58h.58v1.78h-.58Z"/><path class="cls-20" d="M521.32,122h2.09v.6h-2.09Z"/><path class="cls-20" d="M525.4,124.55h3v.63H524.7v-.53a2,2,0,0,1,.23-1.06c.2-.37.54-.64,1.42-1.1,1.16-.6,1.5-.94,1.5-1.5s-.49-.91-1.17-.91a1.3,1.3,0,0,0-1.4,1.36l-.66,0a1.92,1.92,0,0,1,2.06-1.93,1.68,1.68,0,0,1,1.83,1.53c0,.83-.42,1.32-1.65,1.94-.93.47-1.19.66-1.33.94A1.53,1.53,0,0,0,525.4,124.55Z"/><path class="cls-20" d="M530.23,119.58h.59v1.78h-.59Zm1.06,0h.58v1.78h-.58Z"/><path class="cls-20" d="M646.9,87.24h1.75c1.41,0,2.41,1,2.41,2.79,0,2-1,2.81-2.46,2.81h-1.7Zm1.66,5c1.13,0,1.84-.6,1.84-2.18s-.71-2.17-1.79-2.17h-1.05v4.35Z"/><path class="cls-20" d="M655.51,90.53l1.23,2.31H656l-1.18-2.27h-1.12v2.27H653v-5.6h2c1.17,0,1.86.62,1.86,1.66a1.55,1.55,0,0,1-1.4,1.62Zm-.52-.59c.83,0,1.26-.36,1.26-1s-.42-1-1.26-1h-1.32v2.08Z"/><path class="cls-20" d="M658.78,87.24h3.36v.62h-2.71v1.79h2.48v.6h-2.48v2h2.71v.63h-3.36Z"/><path class="cls-20" d="M663.62,91l.65-.11a1.46,1.46,0,0,0,1.66,1.46c.77,0,1.28-.36,1.28-.9s-.37-.88-1.54-1.25c-1.33-.44-1.78-.83-1.78-1.58s.73-1.48,1.79-1.48a2,2,0,0,1,2,1.63l-.65.14a1.34,1.34,0,0,0-1.39-1.15c-.68,0-1.13.34-1.13.86s.32.66,1.35,1c1.45.47,2,1,2,1.84s-.79,1.54-2,1.54A2.05,2.05,0,0,1,663.62,91Z"/><path class="cls-20" d="M669.44,91l.66-.11a1.46,1.46,0,0,0,1.65,1.46c.78,0,1.29-.36,1.29-.9s-.38-.88-1.54-1.25c-1.34-.44-1.79-.83-1.79-1.58a1.59,1.59,0,0,1,1.79-1.48,2,2,0,0,1,2,1.63l-.64.14a1.35,1.35,0,0,0-1.39-1.15c-.68,0-1.13.34-1.13.86s.32.66,1.34,1c1.46.47,2,1,2,1.84s-.79,1.54-2,1.54A2.06,2.06,0,0,1,669.44,91Z"/><path class="cls-20" d="M675.57,87.24h.66v5.6h-.66Z"/><path class="cls-20" d="M678.46,87.24h.77l2.54,4.57h0V87.24h.66v5.6h-.78l-2.54-4.57h0v4.57h-.65Z"/><path class="cls-20" d="M684.41,90c0-1.78.92-2.92,2.35-2.92A2.08,2.08,0,0,1,688.89,89l-.65.12a1.44,1.44,0,0,0-1.48-1.35c-1,0-1.69.88-1.69,2.3s.65,2.29,1.69,2.29a1.43,1.43,0,0,0,1.5-1.64h-1.42v-.62h2.07v.57A2.09,2.09,0,0,1,686.76,93C685.33,93,684.41,91.81,684.41,90Z"/><path class="cls-20" d="M658.28,99l1.23,2.31h-.78l-1.18-2.27h-1.12v2.27h-.66v-5.6h2c1.17,0,1.87.62,1.87,1.66a1.55,1.55,0,0,1-1.4,1.62Zm-.52-.59c.82,0,1.25-.36,1.25-1s-.42-1-1.25-1h-1.33v2.08Z"/><path class="cls-20" d="M661.26,98.54c0-1.75.94-2.92,2.36-2.92S666,96.79,666,98.54s-1,2.92-2.36,2.92S661.26,100.29,661.26,98.54Zm4,0c0-1.42-.64-2.3-1.69-2.3s-1.7.88-1.7,2.3.65,2.29,1.7,2.29S665.31,100,665.31,98.54Z"/><path class="cls-20" d="M667.64,98.54c0-1.75.94-2.92,2.36-2.92s2.36,1.17,2.36,2.92-1,2.92-2.36,2.92S667.64,100.29,667.64,98.54Zm4.05,0c0-1.42-.64-2.3-1.69-2.3s-1.7.88-1.7,2.3.65,2.29,1.7,2.29S671.69,100,671.69,98.54Z"/><path class="cls-20" d="M674.31,95.74h.88l1.81,4.45h0l1.81-4.45h.88v5.6h-.66V96.8h0l-1.88,4.54h-.28L675,96.8h0v4.54h-.65Z"/><path class="cls-20" d="M575.21,399.18h2.16a1.46,1.46,0,0,1,1.63,1.45,1.19,1.19,0,0,1-.66,1.15v0a1.33,1.33,0,0,1,.86,1.32c0,1.08-.68,1.66-2,1.66h-2Zm2,2.38q1.08,0,1.08-.9c0-.56-.36-.86-1.08-.86h-1.38v1.76Zm-.1,2.59c1,0,1.39-.31,1.39-1s-.39-1-1.37-1h-1.3v2Z"/><path class="cls-20" d="M580.84,399.18h3.36v.62h-2.71v1.8H584v.59h-2.48v2h2.71v.63h-3.36Z"/><path class="cls-20" d="M585.79,399.18h1.74c1.42,0,2.42,1,2.42,2.79,0,2-1,2.81-2.46,2.81h-1.7Zm1.65,5c1.14,0,1.84-.6,1.84-2.18s-.7-2.17-1.79-2.17h-1v4.35Z"/><path class="cls-20" d="M594.08,402.48l1.23,2.3h-.77l-1.19-2.27h-1.12v2.27h-.65v-5.6h2c1.16,0,1.86.62,1.86,1.66a1.54,1.54,0,0,1-1.4,1.62Zm-.52-.6c.82,0,1.26-.36,1.26-1s-.43-1-1.26-1h-1.33v2.08Z"/><path class="cls-20" d="M596.74,402c0-1.75,1-2.92,2.36-2.92s2.36,1.17,2.36,2.92-.94,2.92-2.36,2.92S596.74,403.73,596.74,402Zm4.06,0c0-1.42-.65-2.3-1.7-2.3s-1.69.88-1.69,2.3.64,2.29,1.69,2.29S600.8,403.39,600.8,402Z"/><path class="cls-20" d="M602.8,402c0-1.75,1-2.92,2.36-2.92s2.36,1.17,2.36,2.92-.94,2.92-2.36,2.92S602.8,403.73,602.8,402Zm4.06,0c0-1.42-.65-2.3-1.7-2.3s-1.69.88-1.69,2.3.64,2.29,1.69,2.29S606.86,403.39,606.86,402Z"/><path class="cls-20" d="M609.15,399.18H610l1.82,4.45h0l1.82-4.45h.88v5.6h-.67v-4.54h0L612,404.78h-.28l-1.89-4.54h0v4.54h-.66Z"/><path class="cls-20" d="M619.59,404.15h3v.63h-3.71v-.53a2,2,0,0,1,.23-1.06c.2-.37.54-.64,1.42-1.1,1.16-.6,1.5-.93,1.5-1.49s-.49-.92-1.17-.92a1.3,1.3,0,0,0-1.4,1.36l-.66-.05a1.92,1.92,0,0,1,2.06-1.93,1.68,1.68,0,0,1,1.83,1.54c0,.82-.42,1.31-1.65,1.93-.93.47-1.19.66-1.33.94A1.56,1.56,0,0,0,619.59,404.15Z"/><path class="cls-20" d="M574,408.43l-1.25.81v-.69l1.33-.87h.58v5.6H574Z"/><path class="cls-20" d="M577.1,412.65h3v.63H576.4v-.53a2,2,0,0,1,.23-1.06c.2-.37.55-.64,1.43-1.1,1.16-.6,1.49-.93,1.49-1.49s-.49-.92-1.17-.92a1.29,1.29,0,0,0-1.39,1.36l-.67-.05a1.93,1.93,0,0,1,2.06-1.93,1.68,1.68,0,0,1,1.84,1.54c0,.82-.42,1.31-1.65,1.93-.94.47-1.19.66-1.34.94A1.56,1.56,0,0,0,577.1,412.65Z"/><path class="cls-20" d="M581.94,407.68h.59v1.78h-.59Z"/><path class="cls-20" d="M583.66,410.09h2.09v.6h-2.09Z"/><path class="cls-20" d="M591.47,411.47a1.88,1.88,0,0,1-2,1.93c-1.46,0-2.3-1.1-2.3-2.83s1-3,2.32-3a1.8,1.8,0,0,1,1.87,1.5l-.62.15a1.18,1.18,0,0,0-1.23-1c-.92,0-1.6.87-1.66,2.22h0a1.88,1.88,0,0,1,1.67-.84A1.86,1.86,0,0,1,591.47,411.47Zm-.64,0a1.28,1.28,0,0,0-1.35-1.34,1.33,1.33,0,1,0,0,2.66A1.28,1.28,0,0,0,590.83,411.47Z"/><path class="cls-20" d="M593,407.68h.59v1.78H593Zm1.06,0h.58v1.78h-.58Z"/><path class="cls-20" d="M598.34,411.84l1.31-1.3-1.31-1.29.39-.39,1.29,1.31,1.29-1.31.39.39-1.31,1.29,1.31,1.3-.39.39L600,410.92l-1.29,1.31Z"/><path class="cls-20" d="M605.88,408.43l-1.25.81v-.69l1.33-.87h.59v5.6h-.67Z"/><path class="cls-20" d="M609.32,408.43l-1.25.81v-.69l1.33-.87H610v5.6h-.66Z"/><path class="cls-20" d="M611.94,407.68h.59v1.78h-.59Z"/><path class="cls-20" d="M613.94,410.09H616v.6h-2.09Z"/><path class="cls-20" d="M618,412.65h3v.63h-3.72v-.53a2,2,0,0,1,.24-1.06c.2-.37.54-.64,1.42-1.1,1.16-.6,1.49-.93,1.49-1.49s-.48-.92-1.16-.92a1.3,1.3,0,0,0-1.4,1.36l-.67-.05a1.93,1.93,0,0,1,2.07-1.93,1.68,1.68,0,0,1,1.83,1.54c0,.82-.42,1.31-1.65,1.93-.93.47-1.19.66-1.33.94A1.43,1.43,0,0,0,618,412.65Z"/><path class="cls-20" d="M622.85,407.68h.58v1.78h-.58Zm1.06,0h.58v1.78h-.58Z"/><path class="cls-20" d="M715.56,366.77h2.15a1.45,1.45,0,0,1,1.63,1.44,1.18,1.18,0,0,1-.65,1.15v0a1.34,1.34,0,0,1,.86,1.33c0,1.08-.68,1.65-2,1.65h-2Zm2,2.37c.73,0,1.09-.3,1.09-.89s-.37-.86-1.09-.86h-1.37v1.75Zm-.09,2.6c1,0,1.39-.31,1.39-1s-.39-1-1.38-1h-1.29v2Z"/><path class="cls-20" d="M721.18,366.77h3.36v.62h-2.7v1.79h2.48v.59h-2.48v2h2.7v.62h-3.36Z"/><path class="cls-20" d="M726.14,366.77h1.74c1.41,0,2.41,1,2.41,2.79,0,2-1,2.8-2.46,2.8h-1.69Zm1.65,5c1.14,0,1.84-.6,1.84-2.18s-.7-2.17-1.79-2.17h-1.05v4.35Z"/><path class="cls-20" d="M734.43,370.06l1.23,2.3h-.78l-1.18-2.27h-1.12v2.27h-.66v-5.59h2c1.17,0,1.87.62,1.87,1.65a1.54,1.54,0,0,1-1.4,1.62Zm-.52-.59c.82,0,1.25-.36,1.25-1.05s-.42-1-1.25-1h-1.33v2.08Z"/><path class="cls-20" d="M737.09,369.56c0-1.75.94-2.91,2.36-2.91s2.36,1.16,2.36,2.91-.95,2.92-2.36,2.92S737.09,371.32,737.09,369.56Zm4,0c0-1.41-.64-2.29-1.69-2.29s-1.7.88-1.7,2.29.65,2.3,1.7,2.3S741.14,371,741.14,369.56Z"/><path class="cls-20" d="M743.15,369.56c0-1.75.94-2.91,2.36-2.91s2.36,1.16,2.36,2.91-1,2.92-2.36,2.92S743.15,371.32,743.15,369.56Zm4.05,0c0-1.41-.64-2.29-1.69-2.29s-1.7.88-1.7,2.29.65,2.3,1.7,2.3S747.2,371,747.2,369.56Z"/><path class="cls-20" d="M749.5,366.77h.88l1.81,4.44h0l1.81-4.44h.88v5.59h-.66v-4.54h0l-1.88,4.54h-.28l-1.89-4.54h0v4.54h-.65Z"/><path class="cls-20" d="M759.07,370.5l.66-.1c.11,1,.58,1.46,1.41,1.46a1.07,1.07,0,0,0,1.2-1.08c0-.76-.44-1.12-1.33-1.12h-.39v-.58H761c.67,0,1.18-.4,1.18-.9s-.4-.93-1.06-.93a1.19,1.19,0,0,0-1.27,1.06l-.64-.1a1.8,1.8,0,0,1,1.91-1.56,1.53,1.53,0,0,1,1.72,1.48,1.36,1.36,0,0,1-.75,1.18h0a1.5,1.5,0,0,1,.89,1.46,1.68,1.68,0,0,1-1.85,1.7A2,2,0,0,1,759.07,370.5Z"/><path class="cls-20" d="M715.18,376l-1.25.81v-.7l1.33-.86h.58v5.59h-.66Z"/><path class="cls-20" d="M718.62,376l-1.25.81v-.7l1.33-.86h.58v5.59h-.66Z"/><path class="cls-20" d="M721.24,375.27h.59v1.78h-.59Z"/><path class="cls-20" d="M723,377.67h2.09v.6H723Z"/><path class="cls-20" d="M726.49,378.06c0-1.81.91-2.91,2.22-2.91s2.21,1.1,2.21,2.91S730,381,728.71,381,726.49,379.88,726.49,378.06Zm3.77,0c0-1.46-.62-2.29-1.55-2.29s-1.55.83-1.55,2.29.61,2.3,1.55,2.3S730.26,379.53,730.26,378.06Z"/><path class="cls-20" d="M732.45,375.27H733v1.78h-.58Zm1,0h.59v1.78h-.59Z"/><path class="cls-20" d="M737.78,379.42l1.31-1.29-1.31-1.3.39-.39,1.29,1.31,1.3-1.31.39.39-1.31,1.3,1.31,1.29-.39.4-1.3-1.32-1.29,1.32Z"/><path class="cls-20" d="M745.33,376l-1.25.81v-.7l1.33-.86H746v5.59h-.66Z"/><path class="cls-20" d="M748.76,376l-1.25.81v-.7l1.33-.86h.59v5.59h-.67Z"/><path class="cls-20" d="M751.39,375.27H752v1.78h-.58Z"/><path class="cls-20" d="M753.39,377.67h2.08v.6h-2.08Z"/><path class="cls-20" d="M757.46,380.24h3v.62h-3.72v-.52a2,2,0,0,1,.23-1.07c.2-.37.54-.64,1.42-1.09,1.16-.6,1.5-.94,1.5-1.5s-.49-.91-1.17-.91a1.3,1.3,0,0,0-1.4,1.36l-.66-.06a1.92,1.92,0,0,1,2.06-1.92,1.68,1.68,0,0,1,1.83,1.53c0,.83-.41,1.31-1.65,1.94-.93.47-1.19.65-1.33.93A1.58,1.58,0,0,0,757.46,380.24Z"/><path class="cls-20" d="M762.29,375.27h.59v1.78h-.59Zm1.06,0h.58v1.78h-.58Z"/><path class="cls-20" d="M292.17,206.71h.65v5h2.53v.62h-3.18Z"/><path class="cls-20" d="M296.82,206.71h.66v5.6h-.66Z"/><path class="cls-20" d="M298.81,206.71h.7l1.66,4.72h0l1.67-4.72h.68l-2,5.6h-.7Z"/><path class="cls-20" d="M304.89,206.71h.66v5.6h-.66Z"/><path class="cls-20" d="M307.46,206.71h.77l2.55,4.57h0v-4.57h.67v5.6h-.79l-2.54-4.57h0v4.57h-.65Z"/><path class="cls-20" d="M313.09,209.51c0-1.77.92-2.92,2.36-2.92a2.07,2.07,0,0,1,2.12,1.85l-.65.12a1.43,1.43,0,0,0-1.47-1.34c-1.05,0-1.7.88-1.7,2.29s.65,2.3,1.7,2.3a1.42,1.42,0,0,0,1.49-1.64h-1.42v-.63h2.07v.57a2.08,2.08,0,0,1-2.14,2.32C314,212.43,313.09,211.29,313.09,209.51Z"/><path class="cls-20" d="M321.2,212.43l2.85-6,.45.2-2.86,6Z"/><path class="cls-20" d="M328.44,206.71h1.74c1.42,0,2.42,1,2.42,2.79,0,2-1,2.81-2.47,2.81h-1.69Zm1.65,5c1.14,0,1.84-.6,1.84-2.19,0-1.43-.7-2.16-1.79-2.16h-1.05v4.35Z"/><path class="cls-20" d="M334.24,206.71h.65v5.6h-.65Z"/><path class="cls-20" d="M336.8,206.71h.78l2.54,4.57h0v-4.57h.66v5.6H340l-2.54-4.57h0v4.57h-.66Z"/><path class="cls-20" d="M342.73,206.71h.65v5.6h-.65Z"/><path class="cls-20" d="M345.29,206.71h.78l2.54,4.57h0v-4.57h.66v5.6h-.78L346,207.74h0v4.57h-.66Z"/><path class="cls-20" d="M350.92,209.51c0-1.77.93-2.92,2.36-2.92a2.08,2.08,0,0,1,2.13,1.85l-.66.12a1.43,1.43,0,0,0-1.47-1.34c-1,0-1.7.88-1.7,2.29s.65,2.3,1.7,2.3a1.43,1.43,0,0,0,1.5-1.64h-1.43v-.63h2.07v.57a2.08,2.08,0,0,1-2.14,2.32C351.85,212.43,350.92,211.29,350.92,209.51Z"/><path class="cls-20" d="M362.1,210l1.23,2.3h-.78L361.37,210h-1.12v2.27h-.66v-5.6h2c1.17,0,1.86.63,1.86,1.66A1.53,1.53,0,0,1,362.1,210Zm-.52-.59c.82,0,1.25-.37,1.25-1s-.42-1-1.25-1h-1.33v2.08Z"/><path class="cls-20" d="M364.76,209.51c0-1.75.94-2.92,2.36-2.92s2.36,1.17,2.36,2.92-1,2.92-2.36,2.92S364.76,211.26,364.76,209.51Zm4.05,0c0-1.41-.65-2.29-1.69-2.29s-1.7.88-1.7,2.29.65,2.3,1.7,2.3S368.81,210.93,368.81,209.51Z"/><path class="cls-20" d="M370.82,209.51c0-1.75.94-2.92,2.36-2.92s2.36,1.17,2.36,2.92-1,2.92-2.36,2.92S370.82,211.26,370.82,209.51Zm4.05,0c0-1.41-.65-2.29-1.69-2.29s-1.7.88-1.7,2.29.65,2.3,1.7,2.3S374.87,210.93,374.87,209.51Z"/><path class="cls-20" d="M377.17,206.71h.88l1.81,4.45h0l1.81-4.45h.88v5.6h-.66v-4.54h0L380,212.31h-.28l-1.88-4.54h0v4.54h-.65Z"/><path class="cls-20" d="M310.31,216l-1.25.81v-.69l1.33-.87H311v5.6h-.66Z"/><path class="cls-20" d="M312.56,219l.66-.11c.11,1,.58,1.47,1.4,1.47a1.07,1.07,0,0,0,1.2-1.08c0-.76-.43-1.12-1.32-1.12h-.4v-.58h.4c.67,0,1.18-.4,1.18-.9s-.4-.93-1.06-.93a1.19,1.19,0,0,0-1.27,1.06l-.65-.1a1.81,1.81,0,0,1,1.92-1.57,1.54,1.54,0,0,1,1.72,1.49,1.36,1.36,0,0,1-.76,1.18h0a1.5,1.5,0,0,1,.9,1.46,1.69,1.69,0,0,1-1.86,1.7A2,2,0,0,1,312.56,219Z"/><path class="cls-20" d="M318.14,215.21h.58V217h-.58Z"/><path class="cls-20" d="M319.86,217.62h2.08v.6h-2.08Z"/><path class="cls-20" d="M327.32,217.67c0,2.28-.61,3.26-2,3.26a1.77,1.77,0,0,1-1.8-1.42l.61-.16a1.17,1.17,0,0,0,1.19,1c.88,0,1.3-.57,1.36-2h0a1.69,1.69,0,0,1-1.44.64,1.79,1.79,0,0,1-1.95-1.92,1.88,1.88,0,0,1,2-1.9C326.48,215.09,327.32,216,327.32,217.67Zm-.77-.64a1.25,1.25,0,0,0-1.33-1.33,1.31,1.31,0,1,0,0,2.62A1.24,1.24,0,0,0,326.55,217Z"/><path class="cls-20" d="M328.9,215.21h.58V217h-.58Zm1.06,0h.58V217H330Z"/><path class="cls-20" d="M334.24,219.37l1.31-1.29-1.31-1.3.39-.39,1.29,1.31,1.29-1.31.39.39-1.31,1.3,1.31,1.29-.39.39-1.29-1.31-1.29,1.31Z"/><path class="cls-20" d="M341.48,220.19h3v.62h-3.72v-.53a2,2,0,0,1,.23-1.06c.2-.37.55-.64,1.42-1.1,1.16-.6,1.5-.93,1.5-1.49s-.49-.91-1.17-.91a1.3,1.3,0,0,0-1.4,1.36l-.66-.06a1.93,1.93,0,0,1,2.06-1.93,1.68,1.68,0,0,1,1.83,1.54c0,.82-.41,1.31-1.64,1.93-.94.47-1.19.66-1.34.94A1.58,1.58,0,0,0,341.48,220.19Z"/><path class="cls-20" d="M345.79,219.33l.65-.16a1.42,1.42,0,1,0,1.43-1.58,1.81,1.81,0,0,0-1.35.59l-.58-.14.53-2.83h2.94v.63H347l-.31,1.55h0A2.08,2.08,0,0,1,348,217a1.88,1.88,0,0,1,1.94,1.93,1.93,1.93,0,0,1-2.05,2A2,2,0,0,1,345.79,219.33Z"/><path class="cls-20" d="M351.17,215.21h.59V217h-.59Z"/><path class="cls-20" d="M353.17,217.62h2.09v.6h-2.09Z"/><path class="cls-20" d="M357.52,216l-1.25.81v-.69l1.33-.87h.58v5.6h-.66Z"/><path class="cls-20" d="M361,216l-1.25.81v-.69l1.33-.87h.58v5.6H361Z"/><path class="cls-20" d="M363.59,215.21h.58V217h-.58Zm1.05,0h.58V217h-.58Z"/><path class="cls-20" d="M63.66,272.08H67v.63H64.31v2H66.8v.6H64.31v2.38h-.65Z"/><path class="cls-20" d="M68.58,274.88c0-1.75.94-2.92,2.36-2.92s2.36,1.17,2.36,2.92-1,2.92-2.36,2.92S68.58,276.63,68.58,274.88Zm4,0c0-1.42-.65-2.29-1.69-2.29s-1.7.87-1.7,2.29.65,2.29,1.7,2.29S72.63,276.3,72.63,274.88Z"/><path class="cls-20" d="M76.29,275.34l-2-3.26h.76l1.51,2.62h0l1.52-2.62h.77l-2,3.26v2.34h-.66Z"/><path class="cls-20" d="M80.55,272.08h3.36v.63h-2.7v1.79h2.48v.59H81.21v2h2.7v.63H80.55Z"/><path class="cls-20" d="M88.33,275.38l1.23,2.3h-.78l-1.18-2.27H86.48v2.27h-.65v-5.6h2c1.17,0,1.87.63,1.87,1.66a1.54,1.54,0,0,1-1.4,1.62Zm-.52-.6c.82,0,1.25-.36,1.25-1s-.42-1-1.25-1H86.48v2.07Z"/><path class="cls-20" d="M638.39,215h.68l.83,4.55h0l1.38-4.55h.63l1.39,4.55h0l.82-4.55h.68l-1,5.59H643l-1.38-4.49h0l-1.37,4.49h-.81Z"/><path class="cls-20" d="M645.77,220.68l2.85-6,.45.2-2.86,6Z"/><path class="cls-20" d="M650.76,215h1.74c1.42,0,2.42,1,2.42,2.79,0,2-1,2.8-2.46,2.8h-1.7Zm1.66,5c1.13,0,1.84-.6,1.84-2.18,0-1.43-.71-2.17-1.8-2.17h-1v4.35Z"/><path class="cls-20" d="M180.62,166.35l1.23,2.3h-.78l-1.18-2.27h-1.12v2.27h-.66v-5.59h2c1.17,0,1.87.62,1.87,1.65a1.55,1.55,0,0,1-1.4,1.63Zm-.52-.59c.82,0,1.25-.36,1.25-1s-.42-1-1.25-1h-1.33v2.08Z"/><path class="cls-20" d="M237.17,159.42h1.74c1.42,0,2.42,1,2.42,2.79,0,2-1,2.8-2.46,2.8h-1.7Zm1.66,5c1.13,0,1.83-.6,1.83-2.18S240,160,238.87,160h-1v4.35Z"/><path class="cls-20" d="M242.26,159.42h.67l.83,4.55h0l1.39-4.55h.62l1.39,4.55h0l.82-4.55h.68l-1,5.59h-.8l-1.37-4.49h0L244.1,165h-.81Z"/><path class="cls-20" d="M237.76,107.05l.66-.12a1.46,1.46,0,0,0,1.65,1.47c.78,0,1.29-.36,1.29-.91s-.38-.88-1.55-1.24c-1.33-.44-1.78-.83-1.78-1.59a1.59,1.59,0,0,1,1.79-1.48,2,2,0,0,1,2,1.64l-.64.13a1.35,1.35,0,0,0-1.4-1.14c-.67,0-1.12.33-1.12.85s.32.67,1.34,1c1.46.47,2,1,2,1.84s-.79,1.53-1.95,1.53A2.05,2.05,0,0,1,237.76,107.05Z"/><path class="cls-20" d="M242.94,106.1c0-1.75.94-2.92,2.36-2.92s2.36,1.17,2.36,2.92-.95,2.92-2.36,2.92S242.94,107.85,242.94,106.1Zm4.05,0c0-1.41-.65-2.29-1.69-2.29s-1.7.88-1.7,2.29.65,2.3,1.7,2.3S247,107.52,247,106.1Z"/><path class="cls-20" d="M239.53,82.31h.68l.82,4.55h0l1.38-4.55h.63l1.39,4.55h0l.83-4.55H246l-1,5.6h-.8l-1.38-4.49h0l-1.37,4.49h-.81Z"/><polygon class="cls-20" points="0 276.37 14.4 281.77 0 287.17 0 276.37"/></g></g></svg>