<svg xmlns="http://www.w3.org/2000/svg" viewBox="0 0 744.78 405.87"><defs><style>.cls-1,.cls-10,.cls-12,.cls-2,.cls-3,.cls-5{fill:#fff;}.cls-1,.cls-10,.cls-11,.cls-12,.cls-13,.cls-14,.cls-15,.cls-16,.cls-17,.cls-2,.cls-4,.cls-5,.cls-6,.cls-7,.cls-8,.cls-9{stroke:#231f20;}.cls-1,.cls-10,.cls-11,.cls-12,.cls-13,.cls-14,.cls-15,.cls-16,.cls-2,.cls-4,.cls-6,.cls-7,.cls-9{stroke-linecap:round;stroke-linejoin:round;}.cls-1{stroke-width:0.15px;}.cls-2,.cls-4,.cls-5{stroke-width:0.15px;}.cls-11,.cls-13,.cls-14,.cls-15,.cls-16,.cls-4,.cls-6,.cls-7,.cls-8,.cls-9{fill:none;}.cls-17,.cls-5,.cls-8{stroke-miterlimit:10;}.cls-17,.cls-6{stroke-width:0.4px;}.cls-12,.cls-13,.cls-14,.cls-15,.cls-16,.cls-7,.cls-8{stroke-width:0.25px;}.cls-10,.cls-11,.cls-9{stroke-width:0.2px;}.cls-11,.cls-13{stroke-dasharray:1.32 1.32;}.cls-14{stroke-dasharray:2 2;}.cls-15{stroke-dasharray:1.28 1.28;}.cls-16{stroke-dasharray:1.34 1.34;}.cls-17{fill:#e1e5e5;}.cls-18{fill:#231f20;}</style></defs><title>Asset 6</title><g id="Layer_2" data-name="Layer 2"><g id="Unit15A_Rest"><g id="LWPOLYLINE"><rect class="cls-1" x="598.07" y="32.93" width="106.72" height="171.31"/></g><g id="LWPOLYLINE-2" data-name="LWPOLYLINE"><rect class="cls-1" x="594.55" y="281.87" width="87.12" height="97.33"/></g><g id="LWPOLYLINE-3" data-name="LWPOLYLINE"><path class="cls-2" d="M485.56,135.07a10.77,10.77,0,0,1-1.17,1.17,12,12,0,0,1-16.89-1.17l1.06-.92v-10.9H484.5v10.9Z"/></g><g id="LWPOLYLINE-4" data-name="LWPOLYLINE"><path class="cls-2" d="M508.06,135.07a10.77,10.77,0,0,1-1.17,1.17A12,12,0,0,1,490,135.07l1.06-.92v-10.9H507v10.9Z"/></g><g id="LWPOLYLINE-5" data-name="LWPOLYLINE"><polygon class="cls-2" points="702.06 213.91 600.8 213.91 600.8 180.16 666.74 180.16 666.74 153.97 702.06 153.97 702.06 213.91"/></g><g id="LWPOLYLINE-6" data-name="LWPOLYLINE"><rect class="cls-2" x="29.27" y="32.19" width="22.5" height="16.88"/></g><g id="LWPOLYLINE-7" data-name="LWPOLYLINE"><rect class="cls-2" x="115.52" y="32.19" width="22.5" height="16.88"/></g><g id="LWPOLYLINE-8" data-name="LWPOLYLINE"><rect class="cls-2" x="55.52" y="32.19" width="56.25" height="80.63"/></g><g id="LWPOLYLINE-9" data-name="LWPOLYLINE"><rect class="cls-2" x="55.52" y="156.41" width="56.25" height="15"/></g><g id="LWPOLYLINE-10" data-name="LWPOLYLINE"><rect class="cls-2" x="589.19" y="294.39" width="80.63" height="71.25"/></g><g id="LWPOLYLINE-11" data-name="LWPOLYLINE"><rect class="cls-2" x="625.36" y="222.04" width="56.25" height="15"/></g><g id="LWPOLYLINE-12" data-name="LWPOLYLINE"><rect class="cls-2" x="95.19" y="236.92" width="35.63" height="80.62"/></g><g id="LWPOLYLINE-13" data-name="LWPOLYLINE"><rect class="cls-2" x="28.96" y="236.92" width="35.63" height="80.62"/></g><g id="LWPOLYLINE-14" data-name="LWPOLYLINE"><rect class="cls-2" x="68.64" y="301.4" width="22.5" height="15.94"/></g><g id="LWPOLYLINE-15" data-name="LWPOLYLINE"><rect class="cls-2" x="55.52" y="175.04" width="56.25" height="15"/></g><rect class="cls-3" x="299.86" y="240.9" width="27.89" height="25.31"/><rect class="cls-3" x="299.86" y="269.5" width="27.89" height="25.31"/><g id="LWPOLYLINE-16" data-name="LWPOLYLINE"><line class="cls-4" x1="482.65" y1="135.83" x2="482.65" y2="123.25"/></g><g id="LWPOLYLINE-17" data-name="LWPOLYLINE"><line class="cls-4" x1="470.41" y1="135.83" x2="470.41" y2="123.25"/></g><g id="LWPOLYLINE-18" data-name="LWPOLYLINE"><path class="cls-4" d="M468.56,134.15a10.57,10.57,0,0,0,14.91,1,11.13,11.13,0,0,0,1-1"/></g><g id="LWPOLYLINE-19" data-name="LWPOLYLINE"><line class="cls-4" x1="505.15" y1="135.83" x2="505.15" y2="123.25"/></g><g id="LWPOLYLINE-20" data-name="LWPOLYLINE"><line class="cls-4" x1="492.91" y1="135.83" x2="492.91" y2="123.25"/></g><g id="LWPOLYLINE-21" data-name="LWPOLYLINE"><path class="cls-4" d="M491.06,134.15a10.57,10.57,0,0,0,14.91,1,11.13,11.13,0,0,0,1-1"/></g><g id="LINE"><line class="cls-4" x1="636.12" y1="209.23" x2="636.12" y2="181.15"/></g><g id="LWPOLYLINE-22" data-name="LWPOLYLINE"><polyline class="cls-4" points="702.06 176.11 697.37 176.11 697.37 209.23 605.49 209.23 605.49 180.16"/></g><g id="ARC"><path class="cls-4" d="M635.18,204.73a91.8,91.8,0,0,0-28.75,0"/></g><g id="ARC-2" data-name="ARC"><path class="cls-4" d="M636.12,205.71a1.24,1.24,0,0,0-.94-1"/></g><g id="ARC-3" data-name="ARC"><path class="cls-4" d="M606.43,204.73a1.24,1.24,0,0,0-.94,1"/></g><g id="ARC-4" data-name="ARC"><path class="cls-4" d="M636.12,181.15a1.24,1.24,0,0,0-.94-1"/></g><g id="ARC-5" data-name="ARC"><path class="cls-4" d="M637.06,180.16a1.22,1.22,0,0,0-.94,1"/></g><g id="ARC-6" data-name="ARC"><path class="cls-4" d="M606.43,180.16a1.24,1.24,0,0,0-.94,1"/></g><g id="LINE-2" data-name="LINE"><line class="cls-4" x1="666.74" y1="209.23" x2="666.74" y2="180.16"/></g><g id="ARC-7" data-name="ARC"><path class="cls-4" d="M665.81,204.73a91.8,91.8,0,0,0-28.75,0"/></g><g id="ARC-8" data-name="ARC"><path class="cls-4" d="M666.74,205.71a1.22,1.22,0,0,0-.93-1"/></g><g id="ARC-9" data-name="ARC"><path class="cls-4" d="M637.06,204.73a1.22,1.22,0,0,0-.94,1"/></g><g id="LINE-3" data-name="LINE"><line class="cls-4" x1="666.74" y1="209.23" x2="666.74" y2="180.16"/></g><g id="ARC-10" data-name="ARC"><path class="cls-4" d="M666.74,205.71a1.22,1.22,0,0,0-.93-1"/></g><g id="ARC-11" data-name="ARC"><path class="cls-4" d="M696.43,204.73a91.8,91.8,0,0,0-28.75,0"/></g><g id="ARC-12" data-name="ARC"><path class="cls-4" d="M697.37,205.71a1.24,1.24,0,0,0-.94-1"/></g><g id="ARC-13" data-name="ARC"><path class="cls-4" d="M667.68,204.73a1.24,1.24,0,0,0-.94,1"/></g><g id="LINE-4" data-name="LINE"><line class="cls-4" x1="55.52" y1="35" x2="111.77" y2="35"/></g><g id="LINE-5" data-name="LINE"><line class="cls-4" x1="55.52" y1="110" x2="111.77" y2="110"/></g><g id="LWPOLYLINE-23" data-name="LWPOLYLINE"><rect class="cls-4" x="84.92" y="37.55" width="24.31" height="14.68"/></g><g id="LWPOLYLINE-24" data-name="LWPOLYLINE"><rect class="cls-4" x="58.06" y="37.55" width="24.31" height="14.68"/></g><g id="LWPOLYLINE-25" data-name="LWPOLYLINE"><rect class="cls-4" x="594.55" y="331.29" width="14.68" height="31.81"/></g><g id="LINE-7" data-name="LINE"><line class="cls-4" x1="592.01" y1="294.39" x2="592.01" y2="365.64"/></g><g id="LINE-8" data-name="LINE"><line class="cls-4" x1="667.01" y1="294.39" x2="667.01" y2="365.64"/></g><g id="LWPOLYLINE-26" data-name="LWPOLYLINE"><rect class="cls-4" x="594.55" y="296.93" width="14.68" height="31.81"/></g><g id="LINE-9" data-name="LINE"><line class="cls-4" x1="95.19" y1="314.73" x2="130.82" y2="314.73"/></g><g id="LINE-10" data-name="LINE"><line class="cls-4" x1="95.19" y1="239.73" x2="130.82" y2="239.73"/></g><g id="LWPOLYLINE-27" data-name="LWPOLYLINE"><rect class="cls-4" x="97.74" y="297.51" width="30.54" height="14.68"/></g><g id="LINE-11" data-name="LINE"><line class="cls-4" x1="64.59" y1="314.73" x2="28.96" y2="314.73"/></g><g id="LINE-12" data-name="LINE"><line class="cls-4" x1="64.59" y1="239.73" x2="28.96" y2="239.73"/></g><g id="LWPOLYLINE-28" data-name="LWPOLYLINE"><rect class="cls-4" x="31.51" y="297.51" width="30.54" height="14.68"/></g><g id="ARC-14" data-name="ARC"><path class="cls-4" d="M636.12,205.71a1.24,1.24,0,0,0-.94-1"/></g><g id="ARC-15" data-name="ARC"><path class="cls-4" d="M606.43,204.73a1.24,1.24,0,0,0-.94,1"/></g><g id="ARC-16" data-name="ARC"><path class="cls-4" d="M636.12,181.15a1.24,1.24,0,0,0-.94-1"/></g><g id="ARC-17" data-name="ARC"><path class="cls-4" d="M637.06,180.16a1.22,1.22,0,0,0-.94,1"/></g><g id="ARC-18" data-name="ARC"><path class="cls-4" d="M606.43,180.16a1.24,1.24,0,0,0-.94,1"/></g><g id="LINE-13" data-name="LINE"><line class="cls-4" x1="666.74" y1="209.23" x2="666.74" y2="180.16"/></g><g id="ARC-19" data-name="ARC"><path class="cls-4" d="M666.74,205.71a1.22,1.22,0,0,0-.93-1"/></g><g id="ARC-20" data-name="ARC"><path class="cls-4" d="M637.06,204.73a1.22,1.22,0,0,0-.94,1"/></g><g id="ARC-21" data-name="ARC"><path class="cls-4" d="M666.74,205.71a1.22,1.22,0,0,0-.93-1"/></g><g id="ARC-22" data-name="ARC"><path class="cls-4" d="M697.37,205.71a1.24,1.24,0,0,0-.94-1"/></g><g id="ARC-23" data-name="ARC"><path class="cls-4" d="M667.68,204.73a1.24,1.24,0,0,0-.94,1"/></g><g id="LWPOLYLINE-29" data-name="LWPOLYLINE"><polygon class="cls-2" points="680.35 105.73 710.35 106.7 710.31 133.42 680.31 134.32 680.35 105.73"/></g><g id="LWPOLYLINE-30" data-name="LWPOLYLINE"><polygon class="cls-2" points="680.35 55.02 710.35 55.99 710.31 82.71 680.31 83.61 680.35 55.02"/></g><g id="LINE-14" data-name="LINE"><line class="cls-4" x1="680.34" y1="109.72" x2="710.34" y2="110.69"/></g><g id="LINE-15" data-name="LINE"><line class="cls-4" x1="706.12" y1="110.56" x2="706.1" y2="129.56"/></g><g id="LINE-16" data-name="LINE"><line class="cls-4" x1="710.32" y1="129.44" x2="680.32" y2="130.34"/></g><g id="LINE-17" data-name="LINE"><line class="cls-4" x1="680.34" y1="59" x2="710.34" y2="59.98"/></g><g id="LINE-18" data-name="LINE"><line class="cls-4" x1="706.12" y1="59.85" x2="706.1" y2="78.84"/></g><g id="LINE-19" data-name="LINE"><line class="cls-4" x1="710.32" y1="78.72" x2="680.32" y2="79.62"/></g><g id="CIRCLE"><path class="cls-2" d="M697.64,94.32a5.15,5.15,0,1,1,5.15,5.14,5.16,5.16,0,0,1-5.15-5.14Z"/></g><g id="LWPOLYLINE-31" data-name="LWPOLYLINE"><rect class="cls-2" x="293.5" y="327.92" width="12.71" height="37.84"/></g><path class="cls-5" d="M691.64,199.54s6.86-5.27,5.57-7.93-10.46,7.24-10.46,7.24-4,3.9-2,4.64S691.64,199.54,691.64,199.54Z"/><path class="cls-5" d="M680.56,196.9s-7.08,4.37-5.76,6.29,9.44-3.56,9.44-3.56,7.57-3.83,5.53-5.7S680.56,196.9,680.56,196.9Z"/><path class="cls-5" d="M621.87,202.86s-.75-3.61-8.34-5.2-7.68-1.11-8-.31,2.24,4.2,9.2,5.22S621.55,204.12,621.87,202.86Z"/><g id="LWPOLYLINE-32" data-name="LWPOLYLINE"><path class="cls-2" d="M571.5,75H553.69l.29-5.81a3.75,3.75,0,0,1,3.74-3.57h9.74a3.76,3.76,0,0,1,3.75,3.57Z"/></g><g id="LWPOLYLINE-33" data-name="LWPOLYLINE"><path class="cls-4" d="M555.09,75l.29-5.74a2.34,2.34,0,0,1,2.34-2.23h9.74a2.34,2.34,0,0,1,2.34,2.23l.29,5.74"/></g><g id="LWPOLYLINE-34" data-name="LWPOLYLINE"><path class="cls-2" d="M574.09,96.64v17.81l5.81-.29a3.76,3.76,0,0,0,3.57-3.75v-9.74a3.75,3.75,0,0,0-3.57-3.74Z"/></g><g id="LWPOLYLINE-35" data-name="LWPOLYLINE"><path class="cls-4" d="M574.09,113l5.74-.29a2.34,2.34,0,0,0,2.23-2.34v-9.74a2.34,2.34,0,0,0-2.23-2.34L574.09,98"/></g><g id="LWPOLYLINE-36" data-name="LWPOLYLINE"><path class="cls-2" d="M574.09,76.3V94.11l5.81-.29a3.75,3.75,0,0,0,3.57-3.74V80.34a3.76,3.76,0,0,0-3.57-3.75Z"/></g><g id="LWPOLYLINE-37" data-name="LWPOLYLINE"><path class="cls-4" d="M574.09,92.7l5.74-.28a2.34,2.34,0,0,0,2.23-2.34V80.34A2.34,2.34,0,0,0,579.83,78l-5.74-.29"/></g><g id="LWPOLYLINE-38" data-name="LWPOLYLINE"><path class="cls-2" d="M574.09,117v17.81l5.81-.29a3.75,3.75,0,0,0,3.57-3.74V121a3.76,3.76,0,0,0-3.57-3.75Z"/></g><g id="LWPOLYLINE-39" data-name="LWPOLYLINE"><path class="cls-4" d="M574.09,133.37l5.74-.28a2.34,2.34,0,0,0,2.23-2.34V121a2.34,2.34,0,0,0-2.23-2.34l-5.74-.29"/></g><g id="LWPOLYLINE-40" data-name="LWPOLYLINE"><path class="cls-2" d="M551.56,114.45V96.64l-5.81.29a3.74,3.74,0,0,0-3.56,3.74v9.74a3.75,3.75,0,0,0,3.56,3.75Z"/></g><g id="LWPOLYLINE-41" data-name="LWPOLYLINE"><path class="cls-4" d="M551.56,98l-5.74.29a2.34,2.34,0,0,0-2.23,2.34v9.74a2.34,2.34,0,0,0,2.23,2.34l5.74.29"/></g><g id="LWPOLYLINE-42" data-name="LWPOLYLINE"><path class="cls-2" d="M551.56,134.78V117l-5.81.29a3.75,3.75,0,0,0-3.56,3.75v9.74a3.75,3.75,0,0,0,3.56,3.74Z"/></g><g id="LWPOLYLINE-43" data-name="LWPOLYLINE"><path class="cls-4" d="M551.56,118.38l-5.74.29a2.34,2.34,0,0,0-2.23,2.34v9.74a2.34,2.34,0,0,0,2.23,2.34l5.74.28"/></g><g id="LWPOLYLINE-44" data-name="LWPOLYLINE"><path class="cls-2" d="M551.56,94.11V76.3l-5.81.29a3.75,3.75,0,0,0-3.56,3.75v9.74a3.74,3.74,0,0,0,3.56,3.74Z"/></g><g id="LWPOLYLINE-45" data-name="LWPOLYLINE"><path class="cls-4" d="M551.56,77.71l-5.74.29a2.34,2.34,0,0,0-2.23,2.34v9.74a2.34,2.34,0,0,0,2.23,2.34l5.74.28"/></g><g id="LWPOLYLINE-46" data-name="LWPOLYLINE"><path class="cls-2" d="M571.5,136.44H553.69l.29,5.81a3.74,3.74,0,0,0,3.74,3.56h9.74a3.75,3.75,0,0,0,3.75-3.56Z"/></g><g id="LWPOLYLINE-47" data-name="LWPOLYLINE"><path class="cls-4" d="M555.09,136.44l.29,5.74a2.34,2.34,0,0,0,2.34,2.23h9.74a2.34,2.34,0,0,0,2.34-2.23l.29-5.74"/></g><g id="LWPOLYLINE-48" data-name="LWPOLYLINE"><rect class="cls-2" x="548.53" y="71.79" width="28.12" height="67.5"/></g><line class="cls-4" x1="612.34" y1="365.66" x2="612.34" y2="294.41"/><line class="cls-4" x1="614.77" y1="365.66" x2="614.77" y2="294.41"/><g id="LWPOLYLINE-49" data-name="LWPOLYLINE"><rect class="cls-2" x="589.19" y="367.66" width="15.94" height="20.16"/></g><g id="LWPOLYLINE-50" data-name="LWPOLYLINE"><rect class="cls-2" x="589.19" y="272.26" width="15.94" height="20.16"/></g><g id="LWPOLYLINE-51" data-name="LWPOLYLINE"><rect class="cls-2" x="614.58" y="24.6" width="72.24" height="15"/></g><rect class="cls-2" x="628.24" y="27.3" width="44.9" height="1.76"/><path class="cls-5" d="M630.05,88.7s-11.2.65-10.81,7.49,11.64,18.89,20.27,22.66,9.71-8.21,10-12,2.12-15.53-8.67-18.35C640.79,88.48,638,87.85,630.05,88.7Z"/><path class="cls-5" d="M651.88,115.27s9.93,1.77,7.17,11.83-11,27.26-21.65,30.79-16.67-21-16.67-21S616,124.08,630,118.67,651.88,115.27,651.88,115.27Z"/><g id="LWPOLYLINE-52" data-name="LWPOLYLINE"><polygon class="cls-2" points="700.73 258.6 699.02 257.03 698.77 257.31 698.25 257.57 697.69 257.44 696.14 256.26 694.88 255.32 693.82 254.45 692.44 253.27 691.22 252.16 690.73 251.71 690.35 251.33 689.86 250.85 689.31 250.31 688.06 249.01 686.92 247.76 686.04 246.75 685.86 246.2 686.08 245.66 686.33 245.39 684.15 243.39 699.51 226.66 716.09 241.87 700.73 258.6"/></g><g id="LINE-20" data-name="LINE"><line class="cls-4" x1="701.69" y1="228.65" x2="686.34" y2="245.39"/></g><g id="LINE-21" data-name="LINE"><line class="cls-4" x1="699.02" y1="257.03" x2="714.38" y2="240.3"/></g><g id="ARC-24" data-name="ARC"><path class="cls-4" d="M698.26,232.38A40.1,40.1,0,0,0,711,244"/></g><g id="ARC-25" data-name="ARC"><path class="cls-4" d="M700.54,229.89a100.79,100.79,0,0,0,12.7,11.65"/></g><line class="cls-4" x1="28.96" y1="292.39" x2="64.59" y2="292.39"/><line class="cls-4" x1="28.96" y1="294.82" x2="64.59" y2="294.82"/><line class="cls-4" x1="95.19" y1="292.39" x2="130.82" y2="292.39"/><line class="cls-4" x1="95.19" y1="294.82" x2="130.82" y2="294.82"/><line class="cls-4" x1="55.52" y1="54.7" x2="111.77" y2="54.7"/><line class="cls-4" x1="55.52" y1="57.13" x2="111.77" y2="57.13"/><g id="LWPOLYLINE-53" data-name="LWPOLYLINE"><polyline class="cls-6" points="727.71 95.36 722.08 95.36 722.08 35.36 727.71 35.36"/></g><g id="LWPOLYLINE-54" data-name="LWPOLYLINE"><polyline class="cls-6" points="11.45 63.01 17.07 63.01 17.07 149.26 11.45 149.26"/></g><g id="LWPOLYLINE-55" data-name="LWPOLYLINE"><polyline class="cls-6" points="11.45 214.89 17.07 214.89 17.07 288.01 11.45 288.01"/></g><g id="LWPOLYLINE-56" data-name="LWPOLYLINE"><polyline class="cls-6" points="727.71 189.11 722.08 189.11 722.08 129.11 727.71 129.11"/></g><g id="LWPOLYLINE-57" data-name="LWPOLYLINE"><polyline class="cls-6" points="727.71 282.86 722.08 282.86 722.08 222.04 727.71 222.04"/></g><g id="LWPOLYLINE-58" data-name="LWPOLYLINE"><polyline class="cls-6" points="727.71 376.61 722.08 376.61 722.08 316.61 727.71 316.61"/></g><g id="LWPOLYLINE-59" data-name="LWPOLYLINE"><rect class="cls-7" x="730.23" y="38.17" width="1.23" height="25.66"/></g><g id="LWPOLYLINE-60" data-name="LWPOLYLINE"><rect class="cls-7" x="730.23" y="66.88" width="1.23" height="25.66"/></g><g id="LWPOLYLINE-61" data-name="LWPOLYLINE"><polygon class="cls-7" points="8.93 91.18 8.93 64.89 7.7 64.89 7.7 65.83 7.7 90.47 7.7 91.18 8.93 91.18"/></g><g id="LWPOLYLINE-62" data-name="LWPOLYLINE"><polygon class="cls-7" points="8.93 149.26 8.93 93.75 7.7 93.75 7.7 94.46 7.7 149.26 8.93 149.26"/></g><g id="LWPOLYLINE-63" data-name="LWPOLYLINE"><polygon class="cls-7" points="8.93 238.36 8.93 217.7 7.7 217.7 7.7 218.64 7.7 237.66 7.7 238.36 8.93 238.36"/></g><g id="LWPOLYLINE-64" data-name="LWPOLYLINE"><polygon class="cls-7" points="8.93 285.2 8.93 240.94 7.7 240.94 7.7 241.65 7.7 285.2 8.93 285.2"/></g><g id="LWPOLYLINE-65" data-name="LWPOLYLINE"><rect class="cls-7" x="730.23" y="131.92" width="1.23" height="25.66"/></g><g id="LWPOLYLINE-66" data-name="LWPOLYLINE"><rect class="cls-7" x="730.23" y="160.63" width="1.23" height="25.66"/></g><g id="LWPOLYLINE-67" data-name="LWPOLYLINE"><rect class="cls-7" x="730.23" y="225.67" width="1.23" height="25.66"/></g><g id="LWPOLYLINE-68" data-name="LWPOLYLINE"><rect class="cls-7" x="730.23" y="254.38" width="1.23" height="25.66"/></g><g id="LWPOLYLINE-69" data-name="LWPOLYLINE"><rect class="cls-7" x="730.23" y="319.42" width="1.23" height="25.66"/></g><g id="LWPOLYLINE-70" data-name="LWPOLYLINE"><rect class="cls-7" x="730.23" y="348.13" width="1.23" height="25.66"/></g><line class="cls-7" x1="11.43" y1="65.57" x2="11.43" y2="151.57"/><line class="cls-7" x1="11.45" y1="206.81" x2="11.45" y2="292.81"/><line class="cls-7" x1="727.71" y1="320.36" x2="727.71" y2="372.86"/><line class="cls-7" x1="727.71" y1="226.61" x2="727.71" y2="279.11"/><line class="cls-7" x1="727.71" y1="132.86" x2="727.71" y2="185.36"/><line class="cls-7" x1="727.71" y1="38.86" x2="727.71" y2="91.36"/><g id="LWPOLYLINE-71" data-name="LWPOLYLINE"><polygon class="cls-8" points="730.23 39.11 730.23 38.17 731.46 38.17 731.46 39.11 732.4 39.11 732.4 37.23 736.15 37.23 736.15 36.29 732.4 36.29 732.4 35.36 727.71 35.36 727.71 39.11 730.23 39.11"/></g><g id="LWPOLYLINE-72" data-name="LWPOLYLINE"><polyline class="cls-8" points="734.74 64.89 734.74 65.83 732.4 65.83 732.4 67.58 731.46 67.58 731.46 66.88 730.23 66.88 730.23 67.58 727.71 67.58 727.71 65.71 728.18 65.71 728.18 65 727.71 65 727.71 63.13 730.23 63.13 730.23 63.82 731.46 63.83 731.46 63.13 732.4 63.13 732.4 64.89 734.74 64.89"/></g><g id="LWPOLYLINE-73" data-name="LWPOLYLINE"><polygon class="cls-8" points="732.4 95.36 732.4 94.42 736.15 94.42 736.15 93.48 732.4 93.48 732.4 91.61 731.46 91.61 731.46 92.54 730.23 92.54 730.23 91.61 727.71 91.61 727.71 95.36 732.4 95.36"/></g><g id="LWPOLYLINE-74" data-name="LWPOLYLINE"><polygon class="cls-8" points="11.45 152.07 11.45 148.32 8.93 148.32 8.93 149.26 7.7 149.26 7.7 148.32 6.76 148.32 6.76 150.2 6.76 152.07 11.45 152.07"/></g><g id="LWPOLYLINE-75" data-name="LWPOLYLINE"><polygon class="cls-8" points="11.45 62.08 11.45 65.83 8.93 65.83 8.93 64.89 7.7 64.89 7.7 65.83 6.76 65.83 6.76 63.95 6.76 62.08 11.45 62.08"/></g><g id="LWPOLYLINE-76" data-name="LWPOLYLINE"><polygon class="cls-8" points="10.1 94.46 10.1 93.52 10.98 93.52 10.98 92.35 11.45 92.35 11.45 90.47 8.93 90.47 8.93 91.18 7.7 91.18 7.7 90.47 6.76 90.47 6.76 91.18 6.76 93.75 6.76 94.46 7.7 94.46 7.7 93.75 8.93 93.75 8.93 94.46 10.1 94.46"/></g><g id="LWPOLYLINE-77" data-name="LWPOLYLINE"><polygon class="cls-8" points="11.45 288.01 11.45 284.26 8.93 284.26 8.93 285.2 7.7 285.2 7.7 284.26 6.76 284.26 6.76 286.14 6.76 288.01 11.45 288.01"/></g><g id="LWPOLYLINE-78" data-name="LWPOLYLINE"><polygon class="cls-8" points="11.45 214.89 11.45 218.64 8.93 218.64 8.93 217.7 7.7 217.7 7.7 218.64 6.76 218.64 6.76 216.76 6.76 214.89 11.45 214.89"/></g><g id="LWPOLYLINE-79" data-name="LWPOLYLINE"><polygon class="cls-8" points="10.1 241.65 10.1 240.71 10.98 240.71 10.98 239.54 11.45 239.54 11.45 237.66 8.93 237.66 8.93 238.36 7.7 238.36 7.7 237.66 6.76 237.66 6.76 238.36 6.76 240.94 6.76 241.65 7.7 241.65 7.7 240.94 8.93 240.94 8.93 241.65 10.1 241.65"/></g><g id="LWPOLYLINE-80" data-name="LWPOLYLINE"><polygon class="cls-8" points="730.23 132.86 730.23 131.92 731.46 131.92 731.46 132.86 732.4 132.86 732.4 130.98 736.15 130.98 736.15 130.04 732.4 130.04 732.4 129.11 727.71 129.11 727.71 132.86 730.23 132.86"/></g><g id="LWPOLYLINE-81" data-name="LWPOLYLINE"><polyline class="cls-8" points="734.74 158.64 734.74 159.57 732.4 159.57 732.4 161.33 731.46 161.33 731.46 160.63 730.23 160.63 730.23 161.33 727.71 161.33 727.71 159.46 728.18 159.46 728.18 158.75 727.71 158.75 727.71 156.88 730.23 156.88 730.23 157.57 731.46 157.58 731.46 156.88 732.4 156.88 732.4 158.64 734.74 158.64"/></g><g id="LWPOLYLINE-82" data-name="LWPOLYLINE"><polygon class="cls-8" points="732.4 189.11 732.4 188.17 736.15 188.17 736.15 187.23 732.4 187.23 732.4 185.36 731.46 185.36 731.46 186.29 730.23 186.29 730.23 185.36 727.71 185.36 727.71 189.11 732.4 189.11"/></g><g id="LWPOLYLINE-83" data-name="LWPOLYLINE"><polygon class="cls-8" points="730.23 226.61 730.23 225.67 731.46 225.67 731.46 226.61 732.4 226.61 732.4 224.73 736.15 224.73 736.15 223.79 732.4 223.79 732.4 222.86 727.71 222.86 727.71 226.61 730.23 226.61"/></g><g id="LWPOLYLINE-84" data-name="LWPOLYLINE"><polyline class="cls-8" points="734.74 252.39 734.74 253.32 732.4 253.32 732.4 255.08 731.46 255.08 731.46 254.38 730.23 254.38 730.23 255.08 727.71 255.08 727.71 253.21 728.18 253.21 728.18 252.5 727.71 252.5 727.71 250.63 730.23 250.63 730.23 251.32 731.46 251.33 731.46 250.63 732.4 250.63 732.4 252.39 734.74 252.39"/></g><g id="LWPOLYLINE-85" data-name="LWPOLYLINE"><polygon class="cls-8" points="732.4 282.86 732.4 281.92 736.15 281.92 736.15 280.98 732.4 280.98 732.4 279.11 731.46 279.11 731.46 280.04 730.23 280.04 730.23 279.11 727.71 279.11 727.71 282.86 732.4 282.86"/></g><g id="LWPOLYLINE-86" data-name="LWPOLYLINE"><polygon class="cls-8" points="730.23 320.36 730.23 319.42 731.46 319.42 731.46 320.36 732.4 320.36 732.4 318.48 736.15 318.48 736.15 317.54 732.4 317.54 732.4 316.61 727.71 316.61 727.71 320.36 730.23 320.36"/></g><g id="LWPOLYLINE-87" data-name="LWPOLYLINE"><polyline class="cls-8" points="734.74 346.14 734.74 347.07 732.4 347.07 732.4 348.83 731.46 348.83 731.46 348.13 730.23 348.13 730.23 348.83 727.71 348.83 727.71 346.96 728.18 346.96 728.18 346.25 727.71 346.25 727.71 344.38 730.23 344.38 730.23 345.07 731.46 345.08 731.46 344.38 732.4 344.38 732.4 346.14 734.74 346.14"/></g><g id="LWPOLYLINE-88" data-name="LWPOLYLINE"><polygon class="cls-8" points="732.4 376.61 732.4 375.67 736.15 375.67 736.15 374.73 732.4 374.73 732.4 372.86 731.46 372.86 731.46 373.79 730.23 373.79 730.23 372.86 727.71 372.86 727.71 376.61 732.4 376.61"/></g><g id="LWPOLYLINE-89" data-name="LWPOLYLINE"><polyline class="cls-6" points="727.71 95.36 744.58 95.36 744.58 35.36 727.71 35.36"/></g><g id="LWPOLYLINE-90" data-name="LWPOLYLINE"><polyline class="cls-6" points="6.76 62.08 0.2 62.08 0.2 152.07 6.76 152.07"/></g><g id="LWPOLYLINE-91" data-name="LWPOLYLINE"><polyline class="cls-6" points="6.76 214.89 0.2 214.89 0.2 288.01 6.76 288.01"/></g><g id="LWPOLYLINE-92" data-name="LWPOLYLINE"><polyline class="cls-6" points="727.71 189.11 744.58 189.11 744.58 129.11 727.71 129.11"/></g><g id="LWPOLYLINE-93" data-name="LWPOLYLINE"><polyline class="cls-6" points="727.71 282.86 744.58 282.86 744.58 222.86 727.71 222.86"/></g><g id="LWPOLYLINE-94" data-name="LWPOLYLINE"><polyline class="cls-6" points="727.71 376.61 744.58 376.61 744.58 316.61 727.71 316.61"/></g><g id="LWPOLYLINE-95" data-name="LWPOLYLINE"><rect class="cls-9" x="211.37" y="369.48" width="33.75" height="1.64" transform="translate(-194.99 269.85) rotate(-45)"/></g><g id="LWPOLYLINE-96" data-name="LWPOLYLINE"><rect class="cls-9" x="545.95" y="267.04" width="33.75" height="1.64"/></g><g id="LWPOLYLINE-97" data-name="LWPOLYLINE"><rect class="cls-9" x="456.65" y="267.04" width="33.75" height="1.64"/></g><g id="LWPOLYLINE-98" data-name="LWPOLYLINE"><rect class="cls-9" x="467.69" y="200.29" width="2.11" height="33.75" transform="translate(-16.27 395.06) rotate(-45)"/></g><g id="LWPOLYLINE-99" data-name="LWPOLYLINE"><rect class="cls-9" x="450.68" y="218.64" width="1.64" height="33.75"/></g><g id="LWPOLYLINE-100" data-name="LWPOLYLINE"><rect class="cls-9" x="325.52" y="97" width="33.75" height="1.64"/></g><g id="LWPOLYLINE-101" data-name="LWPOLYLINE"><rect class="cls-9" x="250.05" y="93.6" width="33.75" height="1.64"/></g><g id="LWPOLYLINE-102" data-name="LWPOLYLINE"><rect class="cls-9" x="215.44" y="173.4" width="22.54" height="1.64"/></g><g id="LWPOLYLINE-103" data-name="LWPOLYLINE"><rect class="cls-9" x="320.13" y="107.19" width="1.64" height="33.75"/></g><g id="LWPOLYLINE-104" data-name="LWPOLYLINE"><rect class="cls-9" x="363.02" y="107.19" width="1.64" height="33.75"/></g><g id="LWPOLYLINE-105" data-name="LWPOLYLINE"><rect class="cls-9" x="292.36" y="239.73" width="1.64" height="28.19"/></g><g id="LWPOLYLINE-106" data-name="LWPOLYLINE"><rect class="cls-9" x="292.36" y="267.92" width="1.64" height="28.06"/></g><g id="LWPOLYLINE-107" data-name="LWPOLYLINE"><rect class="cls-9" x="249.58" y="239.73" width="1.64" height="28.19"/></g><g id="LWPOLYLINE-108" data-name="LWPOLYLINE"><rect class="cls-9" x="249.58" y="267.92" width="1.64" height="28.06"/></g><g id="LWPOLYLINE-109" data-name="LWPOLYLINE"><rect class="cls-9" x="192.98" y="173.4" width="22.46" height="1.64"/></g><g id="LWPOLYLINE-110" data-name="LWPOLYLINE"><rect class="cls-9" x="157.47" y="100.75" width="33.75" height="1.64"/></g><g id="LWPOLYLINE-111" data-name="LWPOLYLINE"><rect class="cls-9" x="219.65" y="190.42" width="33.75" height="2.11" transform="translate(-66.12 223.33) rotate(-45)"/></g><g id="LWPOLYLINE-112" data-name="LWPOLYLINE"><rect class="cls-9" x="274.99" y="117.45" width="2.11" height="33.75" transform="translate(-14.13 234.54) rotate(-45)"/></g><g id="LWPOLYLINE-113" data-name="LWPOLYLINE"><rect class="cls-10" x="211.37" y="369.48" width="33.75" height="1.64" transform="translate(-194.99 269.85) rotate(-45)"/></g><g id="LWPOLYLINE-114" data-name="LWPOLYLINE"><rect class="cls-9" x="545.95" y="267.04" width="33.75" height="1.64"/></g><g id="LWPOLYLINE-115" data-name="LWPOLYLINE"><rect class="cls-9" x="456.65" y="267.04" width="33.75" height="1.64"/></g><g id="LWPOLYLINE-116" data-name="LWPOLYLINE"><rect class="cls-10" x="467.69" y="200.29" width="2.11" height="33.75" transform="translate(-16.27 395.06) rotate(-45)"/></g><g id="LWPOLYLINE-117" data-name="LWPOLYLINE"><rect class="cls-9" x="450.68" y="218.64" width="1.64" height="33.75"/></g><g id="LWPOLYLINE-118" data-name="LWPOLYLINE"><rect class="cls-9" x="325.52" y="97" width="33.75" height="1.64"/></g><g id="LWPOLYLINE-119" data-name="LWPOLYLINE"><rect class="cls-9" x="250.05" y="93.6" width="33.75" height="1.64"/></g><g id="LWPOLYLINE-120" data-name="LWPOLYLINE"><rect class="cls-9" x="215.44" y="173.4" width="22.54" height="1.64"/></g><g id="LWPOLYLINE-121" data-name="LWPOLYLINE"><rect class="cls-9" x="149.97" y="230.83" width="33.75" height="1.64"/></g><g id="LWPOLYLINE-122" data-name="LWPOLYLINE"><rect class="cls-9" x="320.13" y="107.19" width="1.64" height="33.75"/></g><g id="LWPOLYLINE-123" data-name="LWPOLYLINE"><rect class="cls-9" x="363.02" y="107.19" width="1.64" height="33.75"/></g><g id="LWPOLYLINE-124" data-name="LWPOLYLINE"><rect class="cls-9" x="292.36" y="239.73" width="1.64" height="28.19"/></g><g id="LWPOLYLINE-125" data-name="LWPOLYLINE"><rect class="cls-9" x="292.36" y="267.92" width="1.64" height="28.06"/></g><g id="LWPOLYLINE-126" data-name="LWPOLYLINE"><rect class="cls-9" x="249.58" y="239.73" width="1.64" height="28.19"/></g><g id="LWPOLYLINE-127" data-name="LWPOLYLINE"><rect class="cls-9" x="249.58" y="267.92" width="1.64" height="28.06"/></g><g id="LWPOLYLINE-128" data-name="LWPOLYLINE"><rect class="cls-9" x="192.98" y="173.4" width="22.46" height="1.64"/></g><g id="LWPOLYLINE-129" data-name="LWPOLYLINE"><rect class="cls-9" x="157.47" y="100.75" width="33.75" height="1.64"/></g><g id="LWPOLYLINE-130" data-name="LWPOLYLINE"><rect class="cls-10" x="219.65" y="190.42" width="33.75" height="2.11" transform="translate(-66.12 223.33) rotate(-45)"/></g><g id="LWPOLYLINE-131" data-name="LWPOLYLINE"><rect class="cls-10" x="274.99" y="117.45" width="2.11" height="33.75" transform="translate(-14.13 234.54) rotate(-45)"/></g><g id="ARC-26" data-name="ARC"><path class="cls-9" d="M240.75,359a33.73,33.73,0,0,0-23.86-9.88"/></g><g id="ARC-27" data-name="ARC"><path class="cls-9" d="M481.42,228.35a34.2,34.2,0,0,0,8.4-22.37"/></g><g id="ARC-28" data-name="ARC"><path class="cls-9" d="M225.34,204.15a34.24,34.24,0,0,0,22.37,8.39"/></g><g id="ARC-29" data-name="ARC"><path class="cls-9" d="M263.37,123.14a34.32,34.32,0,0,0-8.4,22.37"/></g><g id="ARC-30" data-name="ARC"><path class="cls-9" d="M240.75,359a33.73,33.73,0,0,0-23.86-9.88"/></g><g id="ARC-31" data-name="ARC"><path class="cls-9" d="M481.42,228.35a34.2,34.2,0,0,0,8.4-22.37"/></g><g id="ARC-32" data-name="ARC"><path class="cls-9" d="M225.34,204.15a34.24,34.24,0,0,0,22.37,8.39"/></g><g id="ARC-33" data-name="ARC"><path class="cls-9" d="M263.37,123.14a34.32,34.32,0,0,0-8.4,22.37"/></g><g id="LWPOLYLINE-132" data-name="LWPOLYLINE"><path class="cls-11" d="M727.71,93.48l-9.93-26.31a28.11,28.11,0,0,1,9.93-1.81"/></g><g id="LWPOLYLINE-133" data-name="LWPOLYLINE"><path class="cls-11" d="M727.71,37.23l-9.93,26.32a28.33,28.33,0,0,0,9.93,1.81"/></g><g id="LWPOLYLINE-134" data-name="LWPOLYLINE"><path class="cls-11" d="M727.71,187.23l-9.93-26.31a28.11,28.11,0,0,1,9.93-1.81"/></g><g id="LWPOLYLINE-135" data-name="LWPOLYLINE"><path class="cls-11" d="M727.71,131l-9.93,26.32a28.33,28.33,0,0,0,9.93,1.81"/></g><g id="LWPOLYLINE-136" data-name="LWPOLYLINE"><path class="cls-11" d="M727.71,281l-9.93-26.31a28.11,28.11,0,0,1,9.93-1.81"/></g><g id="LWPOLYLINE-137" data-name="LWPOLYLINE"><path class="cls-11" d="M727.71,224.73l-9.93,26.32a28.33,28.33,0,0,0,9.93,1.81"/></g><g id="LWPOLYLINE-138" data-name="LWPOLYLINE"><path class="cls-11" d="M727.71,374.73l-9.93-26.31a28.11,28.11,0,0,1,9.93-1.81"/></g><g id="LWPOLYLINE-139" data-name="LWPOLYLINE"><path class="cls-11" d="M727.71,318.48l-9.93,26.32a28.33,28.33,0,0,0,9.93,1.81"/></g><g id="LWPOLYLINE-140" data-name="LWPOLYLINE"><rect class="cls-7" x="418.6" y="338.03" width="32.88" height="0.83"/></g><g id="LWPOLYLINE-141" data-name="LWPOLYLINE"><rect class="cls-7" x="418.55" y="268.77" width="33.78" height="69.28"/></g><g id="LWPOLYLINE-142" data-name="LWPOLYLINE"><rect class="cls-7" x="423.23" y="272.52" width="24.38" height="61.05" rx="4.69"/></g><g id="LWPOLYLINE-143" data-name="LWPOLYLINE"><rect class="cls-7" x="418.45" y="338.05" width="33.83" height="34.69"/></g><g id="LWPOLYLINE-144" data-name="LWPOLYLINE"><rect class="cls-7" x="451.57" y="338.05" width="0.83" height="33.75"/></g><g id="ARC-34" data-name="ARC"><path class="cls-7" d="M435.86,366.46a3.29,3.29,0,1,1,.79,0"/></g><g id="LWPOLYLINE-145" data-name="LWPOLYLINE"><path class="cls-7" d="M436.65,363.2v10.17h-.77V363.2a.39.39,0,1,1,.77,0Z"/></g><g id="LWPOLYLINE-146" data-name="LWPOLYLINE"><rect class="cls-7" x="451.57" y="371.8" width="0.83" height="0.94"/></g><g id="LWPOLYLINE-147" data-name="LWPOLYLINE"><path class="cls-7" d="M199.31,312.23v-5.82a4.69,4.69,0,0,0-4.69-4.69H156a4.69,4.69,0,0,0-4.69,4.69v12.42a4.69,4.69,0,0,0,4.69,4.69h38.67a4.69,4.69,0,0,0,4.69-4.69V313"/></g><g id="ARC-35" data-name="ARC"><path class="cls-7" d="M196.8,312.22a3.14,3.14,0,0,0-3.47-2.85,3.24,3.24,0,0,0-2.71,3.65,3.15,3.15,0,0,0,3.47,2.86A3.21,3.21,0,0,0,196.8,313"/></g><g id="LWPOLYLINE-148" data-name="LWPOLYLINE"><path class="cls-7" d="M193.74,313H204.2v-.78H193.74a.4.4,0,0,0-.4.39A.39.39,0,0,0,193.74,313Z"/></g><g id="ARC-36" data-name="ARC"><path class="cls-7" d="M231.7,87.32a3.28,3.28,0,1,0-.78,0"/></g><g id="LWPOLYLINE-149" data-name="LWPOLYLINE"><path class="cls-7" d="M230.92,84.06V94.23h.77V84.06a.39.39,0,1,0-.77,0Z"/></g><g id="LWPOLYLINE-150" data-name="LWPOLYLINE"><rect class="cls-7" x="215.37" y="29.85" width="30.94" height="63.75"/></g><g id="LWPOLYLINE-151" data-name="LWPOLYLINE"><rect class="cls-7" x="423.23" y="272.52" width="24.38" height="61.05" rx="4.69"/></g><g id="LWPOLYLINE-152" data-name="LWPOLYLINE"><polyline class="cls-7" points="452.28 372.74 418.45 372.74 418.45 338.05 452.28 338.05"/></g><g id="LWPOLYLINE-153" data-name="LWPOLYLINE"><polygon class="cls-7" points="145.91 296.64 204.36 296.61 204.22 328.6 145.91 328.69 145.91 296.64"/></g><g id="LWPOLYLINE-154" data-name="LWPOLYLINE"><rect class="cls-12" x="245.64" y="64.54" width="0.73" height="28.13"/></g><g id="LWPOLYLINE-155" data-name="LWPOLYLINE"><rect class="cls-12" x="245.64" y="30.79" width="0.73" height="33.75"/></g><g id="LWPOLYLINE-156" data-name="LWPOLYLINE"><rect class="cls-7" x="215.37" y="29.85" width="30.94" height="63.75"/></g><g id="LWPOLYLINE-157" data-name="LWPOLYLINE"><rect class="cls-12" x="245.64" y="29.85" width="0.73" height="0.94"/></g><g id="LWPOLYLINE-158" data-name="LWPOLYLINE"><rect class="cls-12" x="245.64" y="92.66" width="0.73" height="0.94"/></g><g id="ARC-37" data-name="ARC"><path class="cls-12" d="M435.82,275.64a3.29,3.29,0,1,1-.79,0"/></g><g id="LWPOLYLINE-159" data-name="LWPOLYLINE"><path class="cls-12" d="M435,278.9V268.73h.78V278.9a.39.39,0,1,1-.78,0Z"/></g><g id="LINE-22" data-name="LINE"><line class="cls-12" x1="327.75" y1="266.22" x2="327.75" y2="240.9"/></g><g id="LINE-23" data-name="LINE"><line class="cls-12" x1="327.75" y1="240.9" x2="299.86" y2="240.9"/></g><g id="LINE-24" data-name="LINE"><line class="cls-12" x1="299.86" y1="240.9" x2="299.86" y2="266.22"/></g><g id="LINE-25" data-name="LINE"><line class="cls-12" x1="299.86" y1="266.22" x2="327.75" y2="266.22"/></g><g id="LINE-26" data-name="LINE"><line class="cls-12" x1="327.75" y1="294.81" x2="327.75" y2="269.5"/></g><g id="LINE-27" data-name="LINE"><line class="cls-12" x1="327.75" y1="269.5" x2="299.86" y2="269.5"/></g><g id="LINE-28" data-name="LINE"><line class="cls-12" x1="299.86" y1="269.5" x2="299.86" y2="294.81"/></g><g id="LINE-29" data-name="LINE"><line class="cls-12" x1="299.86" y1="294.81" x2="327.75" y2="294.81"/></g><g id="LWPOLYLINE-160" data-name="LWPOLYLINE"><polygon class="cls-7" points="421.68 88.85 398.65 88.85 398.65 29.61 515.68 29.61 515.68 52.52 421.68 52.52 421.68 88.85"/></g><g id="LWPOLYLINE-161" data-name="LWPOLYLINE"><rect class="cls-12" x="398.65" y="124.07" width="23.03" height="23.92"/></g><g id="LWPOLYLINE-162" data-name="LWPOLYLINE"><rect class="cls-12" x="398.65" y="88.85" width="23.03" height="35.18"/></g><g id="LWPOLYLINE-163" data-name="LWPOLYLINE"><polyline class="cls-7" points="399.58 88.85 398.65 88.85 398.65 29.73 513.49 29.73"/></g><g id="LWPOLYLINE-164" data-name="LWPOLYLINE"><rect class="cls-7" x="485.83" y="97" width="22.5" height="15"/></g><g id="LWPOLYLINE-165" data-name="LWPOLYLINE"><line class="cls-7" x1="485.83" y1="97" x2="501.2" y2="103.84"/></g><g id="LWPOLYLINE-166" data-name="LWPOLYLINE"><line class="cls-7" x1="485.83" y1="112" x2="501.21" y2="105.16"/></g><g id="LWPOLYLINE-167" data-name="LWPOLYLINE"><line class="cls-7" x1="503.69" y1="105.81" x2="508.33" y2="112"/></g><g id="LWPOLYLINE-168" data-name="LWPOLYLINE"><line class="cls-7" x1="503.61" y1="103.12" x2="508.33" y2="97"/></g><g id="CIRCLE-2" data-name="CIRCLE"><path class="cls-7" d="M502.7,102.87a1.64,1.64,0,1,1-1.64,1.64,1.63,1.63,0,0,1,1.64-1.64Z"/></g><g id="LWPOLYLINE-169" data-name="LWPOLYLINE"><path class="cls-7" d="M496.57,106v7.61a.52.52,0,1,0,1,0V106a.52.52,0,0,0-1,0Z"/></g><g id="CIRCLE-3" data-name="CIRCLE"><path class="cls-7" d="M497.08,112.63a1,1,0,1,1-1,1,1,1,0,0,1,1-1Z"/></g><g id="LWPOLYLINE-170" data-name="LWPOLYLINE"><rect class="cls-7" x="495.11" y="112.74" width="1.46" height="1.75"/></g><g id="LWPOLYLINE-171" data-name="LWPOLYLINE"><rect class="cls-7" x="494.94" y="112.74" width="0.17" height="1.75"/></g><g id="LWPOLYLINE-172" data-name="LWPOLYLINE"><path class="cls-7" d="M494.94,112.7v1.83h-1.08a1.43,1.43,0,0,1,0-1.83Z"/></g><g id="LWPOLYLINE-173" data-name="LWPOLYLINE"><rect class="cls-12" x="459.58" y="94.42" width="59.53" height="37.5"/></g><g id="LWPOLYLINE-174" data-name="LWPOLYLINE"><polyline class="cls-7" points="399.58 88.85 398.65 88.85 398.65 29.73 513.49 29.73"/></g><g id="LWPOLYLINE-175" data-name="LWPOLYLINE"><polyline class="cls-7" points="508.49 112.36 508.49 97 486.06 97 486.06 112.36 508.49 112.36"/></g><rect class="cls-12" x="494.76" y="113.6" width="2.73" height="1.47"/><path class="cls-12" d="M498.1,113.75a.93.93,0,0,0-.27-.34V106a.48.48,0,0,0-.41-.53.49.49,0,0,0-.42.53v7.4a1.2,1.2,0,0,0-.26,1.4.7.7,0,0,0,1.09.34A1.2,1.2,0,0,0,498.1,113.75Z"/><g id="CIRCLE-4" data-name="CIRCLE"><path class="cls-7" d="M464.92,47.3a.83.83,0,1,1,0,1.66.83.83,0,0,1,0-1.66Z"/></g><g id="CIRCLE-5" data-name="CIRCLE"><path class="cls-7" d="M470.15,47.3a.83.83,0,1,1,0,1.66.83.83,0,1,1,0-1.66Z"/></g><g id="CIRCLE-6" data-name="CIRCLE"><path class="cls-7" d="M470.15,43.87a.83.83,0,0,1,.83.83.84.84,0,0,1-.83.84.85.85,0,0,1-.84-.84.84.84,0,0,1,.84-.83Z"/></g><g id="CIRCLE-7" data-name="CIRCLE"><path class="cls-7" d="M467.54,43.87a.83.83,0,0,1,.83.83.84.84,0,1,1-.83-.83Z"/></g><g id="CIRCLE-8" data-name="CIRCLE"><path class="cls-7" d="M464.92,43.87a.84.84,0,0,1,.84.83.85.85,0,0,1-.84.84.84.84,0,0,1-.83-.84.83.83,0,0,1,.83-.83Z"/></g><g id="LWPOLYLINE-176" data-name="LWPOLYLINE"><rect class="cls-7" x="451.42" y="32.41" width="32.24" height="19.15" rx="0.45"/></g><circle class="cls-7" cx="477.9" cy="37.37" r="1.58"/><path class="cls-7" d="M473.13,41.17v-7a.68.68,0,0,1,.68-.66H482a.68.68,0,0,1,.68.66v7a.06.06,0,0,1-.06.06h-9.43A.06.06,0,0,1,473.13,41.17Z"/><circle class="cls-7" cx="467.54" cy="37.37" r="1.58"/><path class="cls-7" d="M462.76,41.17v-7a.68.68,0,0,1,.68-.66h8.19a.68.68,0,0,1,.68.66v7a.06.06,0,0,1-.06.06h-9.43A.06.06,0,0,1,462.76,41.17Z"/><circle class="cls-7" cx="457.17" cy="37.37" r="1.58"/><path class="cls-7" d="M452.4,41.17v-7a.67.67,0,0,1,.67-.66h8.19a.68.68,0,0,1,.68.66v7a.06.06,0,0,1-.06.06h-9.43A.06.06,0,0,1,452.4,41.17Z"/><circle class="cls-7" cx="457.17" cy="46.42" r="1.58"/><path class="cls-7" d="M461.94,42.62v7a.68.68,0,0,1-.68.66h-8.19a.67.67,0,0,1-.67-.66v-7a.06.06,0,0,1,.05-.06h9.43A.06.06,0,0,1,461.94,42.62Z"/><circle class="cls-7" cx="477.9" cy="46.42" r="1.58"/><path class="cls-7" d="M482.68,42.62v7a.68.68,0,0,1-.68.66h-8.19a.68.68,0,0,1-.68-.66v-7a.06.06,0,0,1,.06-.06h9.43A.06.06,0,0,1,482.68,42.62Z"/><g id="LWPOLYLINE-177" data-name="LWPOLYLINE"><polyline class="cls-13" points="411.77 88.85 411.77 42.86 515.6 42.86"/></g><g id="LWPOLYLINE-178" data-name="LWPOLYLINE"><line class="cls-14" x1="538.57" y1="268.68" x2="538.57" y2="350.47"/></g><g id="LWPOLYLINE-179" data-name="LWPOLYLINE"><line class="cls-14" x1="556.26" y1="362.43" x2="585.68" y2="362.43"/></g><g id="LWPOLYLINE-180" data-name="LWPOLYLINE"><polyline class="cls-14" points="378.96 256.14 378.96 207.5 448.8 207.5"/></g><g id="LWPOLYLINE-181" data-name="LWPOLYLINE"><line class="cls-14" x1="378.02" y1="100.51" x2="378.02" y2="147.97"/></g><g id="LWPOLYLINE-182" data-name="LWPOLYLINE"><line class="cls-14" x1="307.01" y1="100.51" x2="307.01" y2="144.69"/></g><g id="LWPOLYLINE-183" data-name="LWPOLYLINE"><line class="cls-14" x1="236.46" y1="233.99" x2="236.46" y2="301.72"/></g><g id="LWPOLYLINE-184" data-name="LWPOLYLINE"><line class="cls-14" x1="183.26" y1="160.28" x2="247.71" y2="160.28"/></g><g id="LWPOLYLINE-185" data-name="LWPOLYLINE"><line class="cls-14" x1="200.6" y1="54.11" x2="200.6" y2="100.75"/></g><g id="LWPOLYLINE-186" data-name="LWPOLYLINE"><line class="cls-14" x1="153.72" y1="43.44" x2="193.8" y2="43.44"/></g><g id="LWPOLYLINE-187" data-name="LWPOLYLINE"><line class="cls-14" x1="538.57" y1="268.68" x2="538.57" y2="350.47"/></g><g id="LWPOLYLINE-188" data-name="LWPOLYLINE"><line class="cls-14" x1="556.26" y1="362.43" x2="585.68" y2="362.43"/></g><g id="LWPOLYLINE-189" data-name="LWPOLYLINE"><polyline class="cls-13" points="459.58 94.42 459.58 122.54 519.12 122.54"/></g><g id="LWPOLYLINE-190" data-name="LWPOLYLINE"><line class="cls-14" x1="459.58" y1="94.42" x2="459.58" y2="122.54"/></g><line class="cls-7" x1="482.68" y1="94.92" x2="482.68" y2="95.58"/><line class="cls-15" x1="482.68" y1="96.86" x2="482.68" y2="114.11"/><polyline class="cls-7" points="482.68 114.75 482.68 115.41 482.01 115.41"/><line class="cls-16" x1="480.67" y1="115.41" x2="462.57" y2="115.41"/><polyline class="cls-7" points="461.9 115.41 461.24 115.41 461.24 114.75"/><line class="cls-15" x1="461.23" y1="113.47" x2="461.23" y2="96.22"/><line class="cls-7" x1="461.23" y1="95.58" x2="461.23" y2="94.92"/><g id="LINE-30" data-name="LINE"><line class="cls-8" x1="545.1" y1="287.96" x2="532.04" y2="287.96"/></g><g id="LINE-31" data-name="LINE"><line class="cls-8" x1="545.1" y1="285.54" x2="532.04" y2="285.54"/></g><g id="LINE-32" data-name="LINE"><line class="cls-8" x1="545.1" y1="283.12" x2="532.04" y2="283.12"/></g><g id="LINE-33" data-name="LINE"><line class="cls-8" x1="545.1" y1="280.71" x2="532.04" y2="280.7"/></g><g id="LINE-34" data-name="LINE"><line class="cls-8" x1="545.1" y1="278.29" x2="532.04" y2="278.29"/></g><g id="LINE-35" data-name="LINE"><line class="cls-8" x1="532.04" y1="275.87" x2="545.1" y2="275.87"/></g><g id="LINE-36" data-name="LINE"><line class="cls-8" x1="581.73" y1="355.9" x2="581.73" y2="368.95"/></g><g id="LINE-37" data-name="LINE"><line class="cls-8" x1="579.31" y1="355.9" x2="579.31" y2="368.95"/></g><g id="LINE-38" data-name="LINE"><line class="cls-8" x1="576.89" y1="355.9" x2="576.89" y2="368.95"/></g><g id="LINE-39" data-name="LINE"><line class="cls-8" x1="574.47" y1="355.9" x2="574.47" y2="368.95"/></g><g id="LINE-40" data-name="LINE"><line class="cls-8" x1="572.05" y1="355.9" x2="572.05" y2="368.95"/></g><g id="LINE-41" data-name="LINE"><line class="cls-8" x1="569.63" y1="368.95" x2="569.63" y2="355.9"/></g><g id="LINE-42" data-name="LINE"><line class="cls-8" x1="385.49" y1="252.19" x2="372.43" y2="252.19"/></g><g id="LINE-43" data-name="LINE"><line class="cls-8" x1="385.49" y1="249.77" x2="372.43" y2="249.77"/></g><g id="LINE-44" data-name="LINE"><line class="cls-8" x1="385.49" y1="247.35" x2="372.43" y2="247.35"/></g><g id="LINE-45" data-name="LINE"><line class="cls-8" x1="385.49" y1="244.93" x2="372.43" y2="244.93"/></g><g id="LINE-46" data-name="LINE"><line class="cls-8" x1="385.49" y1="242.51" x2="372.43" y2="242.51"/></g><g id="LINE-47" data-name="LINE"><line class="cls-8" x1="372.43" y1="240.09" x2="385.49" y2="240.09"/></g><g id="LINE-48" data-name="LINE"><line class="cls-8" x1="444.86" y1="200.98" x2="444.86" y2="214.03"/></g><g id="LINE-49" data-name="LINE"><line class="cls-8" x1="442.44" y1="200.98" x2="442.44" y2="214.03"/></g><g id="LINE-50" data-name="LINE"><line class="cls-8" x1="440.02" y1="200.98" x2="440.02" y2="214.03"/></g><g id="LINE-51" data-name="LINE"><line class="cls-8" x1="437.6" y1="200.98" x2="437.6" y2="214.03"/></g><g id="LINE-52" data-name="LINE"><line class="cls-8" x1="435.18" y1="200.98" x2="435.18" y2="214.03"/></g><g id="LINE-53" data-name="LINE"><line class="cls-8" x1="432.76" y1="214.03" x2="432.76" y2="200.98"/></g><g id="LINE-54" data-name="LINE"><line class="cls-8" x1="384.55" y1="144.03" x2="371.49" y2="144.03"/></g><g id="LINE-55" data-name="LINE"><line class="cls-8" x1="384.55" y1="141.61" x2="371.49" y2="141.61"/></g><g id="LINE-56" data-name="LINE"><line class="cls-8" x1="384.55" y1="139.19" x2="371.49" y2="139.19"/></g><g id="LINE-57" data-name="LINE"><line class="cls-8" x1="384.55" y1="136.77" x2="371.49" y2="136.77"/></g><g id="LINE-58" data-name="LINE"><line class="cls-8" x1="384.55" y1="134.35" x2="371.49" y2="134.35"/></g><g id="LINE-59" data-name="LINE"><line class="cls-8" x1="371.49" y1="131.93" x2="384.55" y2="131.93"/></g><g id="LINE-60" data-name="LINE"><line class="cls-8" x1="313.53" y1="140.75" x2="300.48" y2="140.75"/></g><g id="LINE-61" data-name="LINE"><line class="cls-8" x1="313.53" y1="138.33" x2="300.48" y2="138.33"/></g><g id="LINE-62" data-name="LINE"><line class="cls-8" x1="313.53" y1="135.91" x2="300.48" y2="135.91"/></g><g id="LINE-63" data-name="LINE"><line class="cls-8" x1="313.53" y1="133.49" x2="300.48" y2="133.49"/></g><g id="LINE-64" data-name="LINE"><line class="cls-8" x1="313.53" y1="131.07" x2="300.48" y2="131.07"/></g><g id="LINE-65" data-name="LINE"><line class="cls-8" x1="300.48" y1="128.65" x2="313.53" y2="128.65"/></g><g id="LINE-66" data-name="LINE"><line class="cls-8" x1="242.99" y1="297.78" x2="229.93" y2="297.78"/></g><g id="LINE-67" data-name="LINE"><line class="cls-8" x1="242.99" y1="295.36" x2="229.93" y2="295.36"/></g><g id="LINE-68" data-name="LINE"><line class="cls-8" x1="242.99" y1="292.94" x2="229.93" y2="292.94"/></g><g id="LINE-69" data-name="LINE"><line class="cls-8" x1="242.99" y1="290.52" x2="229.93" y2="290.52"/></g><g id="LINE-70" data-name="LINE"><line class="cls-8" x1="242.99" y1="288.1" x2="229.93" y2="288.1"/></g><g id="LINE-71" data-name="LINE"><line class="cls-8" x1="229.93" y1="285.68" x2="242.99" y2="285.68"/></g><g id="LINE-72" data-name="LINE"><line class="cls-8" x1="243.76" y1="153.75" x2="243.76" y2="166.81"/></g><g id="LINE-73" data-name="LINE"><line class="cls-8" x1="241.34" y1="153.75" x2="241.34" y2="166.81"/></g><g id="LINE-74" data-name="LINE"><line class="cls-8" x1="238.92" y1="153.75" x2="238.92" y2="166.81"/></g><g id="LINE-75" data-name="LINE"><line class="cls-8" x1="236.5" y1="153.75" x2="236.5" y2="166.81"/></g><g id="LINE-76" data-name="LINE"><line class="cls-8" x1="234.09" y1="153.75" x2="234.08" y2="166.81"/></g><g id="LINE-77" data-name="LINE"><line class="cls-8" x1="231.67" y1="166.81" x2="231.67" y2="153.75"/></g><g id="LINE-78" data-name="LINE"><line class="cls-8" x1="207.13" y1="96.8" x2="194.07" y2="96.8"/></g><g id="LINE-79" data-name="LINE"><line class="cls-8" x1="207.13" y1="94.38" x2="194.07" y2="94.38"/></g><g id="LINE-80" data-name="LINE"><line class="cls-8" x1="207.13" y1="91.96" x2="194.07" y2="91.96"/></g><g id="LINE-81" data-name="LINE"><line class="cls-8" x1="207.13" y1="89.54" x2="194.07" y2="89.54"/></g><g id="LINE-82" data-name="LINE"><line class="cls-8" x1="207.13" y1="87.12" x2="194.07" y2="87.12"/></g><g id="LINE-83" data-name="LINE"><line class="cls-8" x1="194.07" y1="84.7" x2="207.13" y2="84.7"/></g><g id="LINE-84" data-name="LINE"><line class="cls-8" x1="189.86" y1="36.91" x2="189.86" y2="49.97"/></g><g id="LINE-85" data-name="LINE"><line class="cls-8" x1="187.44" y1="36.91" x2="187.44" y2="49.97"/></g><g id="LINE-86" data-name="LINE"><line class="cls-8" x1="185.02" y1="36.91" x2="185.02" y2="49.97"/></g><g id="LINE-87" data-name="LINE"><line class="cls-8" x1="182.6" y1="36.91" x2="182.6" y2="49.97"/></g><g id="LINE-88" data-name="LINE"><line class="cls-8" x1="180.18" y1="36.91" x2="180.18" y2="49.97"/></g><g id="LINE-89" data-name="LINE"><line class="cls-8" x1="177.76" y1="49.97" x2="177.76" y2="36.91"/></g><g id="LINE-90" data-name="LINE"><line class="cls-8" x1="545.1" y1="287.96" x2="532.04" y2="287.96"/></g><g id="LINE-91" data-name="LINE"><line class="cls-8" x1="545.1" y1="285.54" x2="532.04" y2="285.54"/></g><g id="LINE-92" data-name="LINE"><line class="cls-8" x1="545.1" y1="283.12" x2="532.04" y2="283.12"/></g><g id="LINE-93" data-name="LINE"><line class="cls-8" x1="545.1" y1="280.71" x2="532.04" y2="280.7"/></g><g id="LINE-94" data-name="LINE"><line class="cls-8" x1="545.1" y1="278.29" x2="532.04" y2="278.29"/></g><g id="LINE-95" data-name="LINE"><line class="cls-8" x1="532.04" y1="275.87" x2="545.1" y2="275.87"/></g><g id="LINE-96" data-name="LINE"><line class="cls-8" x1="581.73" y1="355.9" x2="581.73" y2="368.95"/></g><g id="LINE-97" data-name="LINE"><line class="cls-8" x1="579.31" y1="355.9" x2="579.31" y2="368.95"/></g><g id="LINE-98" data-name="LINE"><line class="cls-8" x1="576.89" y1="355.9" x2="576.89" y2="368.95"/></g><g id="LINE-99" data-name="LINE"><line class="cls-8" x1="574.47" y1="355.9" x2="574.47" y2="368.95"/></g><g id="LINE-100" data-name="LINE"><line class="cls-8" x1="572.05" y1="355.9" x2="572.05" y2="368.95"/></g><g id="LINE-101" data-name="LINE"><line class="cls-8" x1="569.63" y1="368.95" x2="569.63" y2="355.9"/></g><g id="LINE-102" data-name="LINE"><line class="cls-8" x1="384.55" y1="141.61" x2="371.49" y2="141.61"/></g><g id="ARC-38" data-name="ARC"><path class="cls-12" d="M499.12,353.69c3.21-.36,11.67-1,11.67-1"/></g><g id="ARC-39" data-name="ARC"><path class="cls-12" d="M506.55,365.08a.84.84,0,0,1-.53.78c-.35.15-.7.28-1.06.4a14.46,14.46,0,0,1-3,.65c-.54.07-1.07.11-1.61.14a16.1,16.1,0,0,1-4.21-.35,10.24,10.24,0,0,1-5.37-3.1,5.09,5.09,0,0,1-1.27-3.32,5,5,0,0,1,1.33-3.29,10.3,10.3,0,0,1,5.43-3,15.73,15.73,0,0,1,4.22-.26c.54,0,1.07.09,1.61.16a15.1,15.1,0,0,1,2.95.71c.36.13.71.27,1.06.42a.87.87,0,0,1,.51.79Z"/></g><g id="ARC-40" data-name="ARC"><path class="cls-12" d="M499,367.06c3.2.41,11.8,1,11.8,1"/></g><g id="ARC-41" data-name="ARC"><path class="cls-12" d="M510.64,352.68a1.1,1.1,0,0,0-1.05,1,56.73,56.73,0,0,0,0,13.45,1.11,1.11,0,0,0,1.05,1h0c1.15.05,2.31.1,3.46.12a1.48,1.48,0,0,0,1.51-1.35q.28-3.23.28-6.47t-.28-6.47a1.5,1.5,0,0,0-1.51-1.36c-1.15,0-2.31.07-3.46.13Z"/></g><g id="LWPOLYLINE-191" data-name="LWPOLYLINE"><path class="cls-7" d="M509.33,321.83v8.41a.94.94,0,0,1-.94.93H497.18a.93.93,0,0,1-.93-.93V312.49a.94.94,0,0,1,.93-.94h11.21a.94.94,0,0,1,.94.94v9.34Z"/></g><g id="ARC-42" data-name="ARC"><path class="cls-12" d="M511.65,320.89a1.18,1.18,0,1,1,1.55,1.55,1.18,1.18,0,0,1-1.55-.61Z"/></g><g id="ARC-43" data-name="ARC"><path class="cls-12" d="M513,315.5a1.17,1.17,0,0,1,.94,1.15,1.18,1.18,0,1,1-2.35,0,1.17,1.17,0,0,1,.94-1.15Z"/></g><g id="ARC-44" data-name="ARC"><path class="cls-12" d="M513,327.22a1.17,1.17,0,0,0,.94-1.15,1.18,1.18,0,1,0-2.35,0,1.17,1.17,0,0,0,.94,1.15Z"/></g><g id="LINE-103" data-name="LINE"><path class="cls-12" d="M507.08,320.89h5.65a.47.47,0,1,1,0,.94h-5.65a.47.47,0,1,1,0-.94Z"/></g><line class="cls-12" x1="512.73" y1="316.66" x2="512.73" y2="313.35"/><line class="cls-12" x1="512.73" y1="329.37" x2="512.73" y2="326.06"/><g id="LWPOLYLINE-192" data-name="LWPOLYLINE"><path class="cls-7" d="M509.33,293.82v8.4a.94.94,0,0,1-.94.94H497.18a.94.94,0,0,1-.93-.94V284.48a.94.94,0,0,1,.93-.94h11.21a.94.94,0,0,1,.94.94v9.34Z"/></g><g id="LWPOLYLINE-193" data-name="LWPOLYLINE"><rect class="cls-7" x="493.45" y="276.3" width="22.42" height="67.26"/></g><g id="ARC-45" data-name="ARC"><path class="cls-12" d="M198.34,240.51c3.28-.37,11.95-1,11.95-1"/></g><g id="ARC-46" data-name="ARC"><path class="cls-12" d="M206,252.19a.87.87,0,0,1-.54.8l-1.09.41a15.86,15.86,0,0,1-3,.66c-.55.06-1.1.11-1.65.14a16.5,16.5,0,0,1-4.32-.36,10.4,10.4,0,0,1-5.5-3.18,5.06,5.06,0,0,1-1.3-3.4,5.15,5.15,0,0,1,1.36-3.37,10.46,10.46,0,0,1,5.57-3.07,16,16,0,0,1,4.32-.28c.55,0,1.1.1,1.65.17a15,15,0,0,1,3,.73c.37.13.73.27,1.09.43a.86.86,0,0,1,.52.81Z"/></g><g id="ARC-47" data-name="ARC"><path class="cls-12" d="M198.21,254.21c3.27.43,12.08,1,12.08,1"/></g><g id="ARC-48" data-name="ARC"><path class="cls-12" d="M210.14,239.47a1.13,1.13,0,0,0-1.07,1,58.1,58.1,0,0,0,0,13.78,1.14,1.14,0,0,0,1.07,1h0c1.18.05,2.37.09,3.55.12a1.52,1.52,0,0,0,1.55-1.39q.28-3.3.28-6.63c0-2.21-.09-4.43-.28-6.63a1.52,1.52,0,0,0-1.55-1.39c-1.18,0-2.37.07-3.55.13Z"/></g><g id="LWPOLYLINE-194" data-name="LWPOLYLINE"><rect class="cls-12" x="195.27" y="264.59" width="20.59" height="26.81"/></g><g id="LWPOLYLINE-195" data-name="LWPOLYLINE"><path class="cls-12" d="M199.29,286.13a1.15,1.15,0,0,1-1.15-1.15V271a1.15,1.15,0,0,1,1.15-1.14h10.34a1,1,0,0,1,1,.95v14.37a1,1,0,0,1-1,.95Z"/></g><g id="ARC-49" data-name="ARC"><path class="cls-12" d="M212.2,277.51a1.21,1.21,0,1,1,0,1Z"/></g><g id="ARC-50" data-name="ARC"><path class="cls-12" d="M213.55,272a1.22,1.22,0,0,1,1,1.19,1.21,1.21,0,0,1-2.42,0,1.22,1.22,0,0,1,1-1.19Z"/></g><g id="ARC-51" data-name="ARC"><path class="cls-12" d="M213.55,284a1.21,1.21,0,1,0-.48,0Z"/></g><g id="LINE-104" data-name="LINE"><path class="cls-12" d="M207.52,277.51h5.79a.49.49,0,0,1,0,1h-5.79a.49.49,0,1,1,0-1Z"/></g><line class="cls-12" x1="213.31" y1="273.18" x2="213.31" y2="269.79"/><line class="cls-12" x1="213.31" y1="286.2" x2="213.31" y2="282.81"/><g id="LWPOLYLINE-196" data-name="LWPOLYLINE"><rect class="cls-12" x="290.85" y="61.74" width="19.9" height="25.91"/></g><g id="LWPOLYLINE-197" data-name="LWPOLYLINE"><path class="cls-12" d="M294.74,66.83A1.12,1.12,0,0,0,293.63,68V81.46a1.11,1.11,0,0,0,1.11,1.11h10a.93.93,0,0,0,.93-.93V67.76a.93.93,0,0,0-.93-.93Z"/></g><g id="ARC-52" data-name="ARC"><path class="cls-12" d="M294.16,51.71c3.18.35,11.56,1,11.56,1"/></g><g id="ARC-53" data-name="ARC"><path class="cls-12" d="M301.52,40.42a.84.84,0,0,0-.52-.77c-.35-.14-.7-.28-1.06-.4a14.68,14.68,0,0,0-2.94-.64c-.53-.06-1.06-.11-1.59-.13a15.38,15.38,0,0,0-4.17.34,10.07,10.07,0,0,0-5.32,3.08,4.91,4.91,0,0,0-1.26,3.28A5,5,0,0,0,286,48.44a10.14,10.14,0,0,0,5.38,3,15.42,15.42,0,0,0,4.18.27c.53,0,1.06-.1,1.59-.17a14.62,14.62,0,0,0,2.92-.7c.36-.13.71-.26,1.06-.42a.85.85,0,0,0,.5-.78Z"/></g><g id="ARC-54" data-name="ARC"><path class="cls-12" d="M294,38.47c3.16-.42,11.68-1,11.68-1"/></g><g id="ARC-55" data-name="ARC"><path class="cls-12" d="M305.57,52.72a1.12,1.12,0,0,1-1-1,57.15,57.15,0,0,1,0-13.33,1.12,1.12,0,0,1,1-1h0c1.14-.06,2.29-.1,3.43-.13a1.48,1.48,0,0,1,1.5,1.34q.27,3.21.27,6.42c0,2.14-.09,4.27-.27,6.41a1.48,1.48,0,0,1-1.5,1.34c-1.14,0-2.29-.07-3.43-.13Z"/></g><g id="ARC-56" data-name="ARC"><path class="cls-12" d="M307,75.17a1.19,1.19,0,0,0,1.07.7,1.17,1.17,0,0,0,1.17-1.17,1.19,1.19,0,0,0-.7-1.07,1.17,1.17,0,0,0-1.54.61Z"/></g><g id="ARC-57" data-name="ARC"><path class="cls-12" d="M308.34,80.51a1.17,1.17,0,1,0-.46,0Z"/></g><g id="ARC-58" data-name="ARC"><path class="cls-12" d="M308.34,68.89a1.17,1.17,0,1,1-.46,0Z"/></g><g id="LINE-105" data-name="LINE"><path class="cls-12" d="M302.51,75.17h5.6a.47.47,0,0,0,.47-.47.46.46,0,0,0-.47-.46h-5.6a.46.46,0,0,0-.47.46A.47.47,0,0,0,302.51,75.17Z"/></g><line class="cls-12" x1="308.11" y1="79.36" x2="308.11" y2="82.64"/><line class="cls-12" x1="308.11" y1="66.77" x2="308.11" y2="70.05"/><g id="LWPOLYLINE-198" data-name="LWPOLYLINE"><rect class="cls-12" x="356.22" y="30.79" width="25.91" height="19.9"/></g><g id="LWPOLYLINE-199" data-name="LWPOLYLINE"><path class="cls-12" d="M361.31,46.8a1.1,1.1,0,0,0,1.11,1.11h13.51A1.11,1.11,0,0,0,377,46.8v-10a.93.93,0,0,0-.92-.93H362.23a.93.93,0,0,0-.92.93Z"/></g><g id="ARC-59" data-name="ARC"><path class="cls-12" d="M346.19,47.38c.35-3.18,1-11.56,1-11.56"/></g><g id="ARC-60" data-name="ARC"><path class="cls-12" d="M334.89,40a.85.85,0,0,0-.77.52c-.14.35-.27.7-.39,1.06a14.7,14.7,0,0,0-.65,2.94c-.06.53-.1,1.06-.13,1.59a15.75,15.75,0,0,0,.34,4.17,10.14,10.14,0,0,0,3.08,5.32,4.79,4.79,0,0,0,6.54-.06,10.16,10.16,0,0,0,3-5.38,15.77,15.77,0,0,0,.26-4.17c0-.54-.09-1.07-.17-1.6a14.11,14.11,0,0,0-.7-2.92c-.12-.36-.26-.71-.41-1.05a.86.86,0,0,0-.78-.51Z"/></g><g id="ARC-61" data-name="ARC"><path class="cls-12" d="M332.94,47.51c-.41-3.17-1-11.69-1-11.69"/></g><g id="ARC-62" data-name="ARC"><path class="cls-12" d="M347.19,36a1.12,1.12,0,0,1-1,1,55,55,0,0,1-6.66.4,54.86,54.86,0,0,1-6.66-.4,1.1,1.1,0,0,1-1-1v0c-.06-1.14-.1-2.29-.13-3.43a1.48,1.48,0,0,1,1.35-1.49q3.19-.29,6.41-.28t6.41.28a1.46,1.46,0,0,1,1.34,1.49c0,1.14-.07,2.29-.12,3.43Z"/></g><g id="ARC-63" data-name="ARC"><path class="cls-12" d="M369.64,34.5a1.15,1.15,0,0,0,.7-1.07,1.16,1.16,0,1,0-1.63,1.07Z"/></g><g id="ARC-64" data-name="ARC"><path class="cls-12" d="M375,33.2a1.16,1.16,0,0,0-1.14-.94,1.17,1.17,0,0,0,0,2.34,1.16,1.16,0,0,0,1.14-.94Z"/></g><g id="ARC-65" data-name="ARC"><path class="cls-12" d="M363.36,33.2a1.17,1.17,0,0,1,2.31.23,1.16,1.16,0,0,1-1.16,1.17,1.18,1.18,0,0,1-1.15-.94Z"/></g><g id="LINE-106" data-name="LINE"><path class="cls-12" d="M369.64,39v-5.6a.47.47,0,1,0-.93,0V39a.47.47,0,1,0,.93,0Z"/></g><line class="cls-12" x1="373.83" y1="33.43" x2="377.11" y2="33.43"/><line class="cls-12" x1="361.24" y1="33.43" x2="364.52" y2="33.43"/><g id="ARC-66" data-name="ARC"><path class="cls-12" d="M511.65,292.65a1.18,1.18,0,1,1,0,.94Z"/></g><g id="ARC-67" data-name="ARC"><path class="cls-12" d="M513,287.25a1.18,1.18,0,0,1-.24,2.33,1.17,1.17,0,0,1-1.17-1.17,1.18,1.18,0,0,1,.94-1.16Z"/></g><g id="ARC-68" data-name="ARC"><path class="cls-12" d="M513,299a1.17,1.17,0,0,0,.94-1.15,1.18,1.18,0,1,0-2.35,0,1.17,1.17,0,0,0,.94,1.15Z"/></g><g id="LINE-107" data-name="LINE"><path class="cls-12" d="M507.08,292.65h5.65a.47.47,0,1,1,0,.94h-5.65a.47.47,0,1,1,0-.94Z"/></g><line class="cls-12" x1="512.73" y1="288.42" x2="512.73" y2="285.11"/><line class="cls-12" x1="512.73" y1="301.12" x2="512.73" y2="297.82"/><g id="LWPOLYLINE-200" data-name="LWPOLYLINE"><polygon class="cls-17" points="0.2 214.89 38.76 214.89 38.76 175.04 192.98 175.04 192.98 171.53 183.26 171.53 183.26 149.03 247.71 149.03 247.71 171.53 237.98 171.53 237.98 175.04 247.71 175.04 247.71 178.79 251.22 178.79 251.22 149.03 254.97 149.03 254.97 145.51 150.21 145.51 150.21 171.53 38.76 171.53 38.76 149.26 11.45 149.26 11.45 152.07 0.2 152.07 0.2 155.82 2.08 155.82 2.08 211.14 0.2 211.14 0.2 214.89"/></g><g id="LWPOLYLINE-201" data-name="LWPOLYLINE"><polygon class="cls-17" points="0.2 62.08 11.45 62.08 11.45 63.01 17.07 63.01 17.07 32.19 150.21 32.19 150.21 104.26 157.47 104.26 157.47 100.75 153.72 100.75 153.72 32.19 193.8 32.19 193.8 54.11 211.85 54.11 211.85 100.75 191.22 100.75 191.22 104.26 246.3 104.26 246.3 97.11 250.05 97.11 250.05 93.6 215.37 93.6 215.37 29.85 310.99 29.85 310.99 93.6 283.8 93.6 283.8 97.11 293.76 97.11 293.76 145.51 288.72 145.51 288.72 149.03 292.36 149.03 292.36 155.24 295.87 155.24 295.87 151.49 325.29 151.49 325.29 147.97 321.77 147.97 321.77 140.94 318.26 140.94 318.26 144.69 297.28 144.69 297.28 100.51 318.26 100.51 318.26 107.19 321.77 107.19 321.77 100.51 325.52 100.51 325.52 97 321.77 97 321.77 30.67 389.04 30.67 389.04 97 359.27 97 359.27 100.51 363.02 100.51 363.02 107.19 366.54 107.19 366.54 100.51 389.04 100.51 389.04 147.97 366.54 147.97 366.54 140.94 363.02 140.94 363.02 147.97 360.44 147.97 360.44 151.49 422.08 151.49 422.08 147.97 398.65 147.97 398.65 29.73 515.6 29.73 515.6 53.17 519.12 53.17 519.12 24.69 709.78 24.69 709.78 35.36 744.58 35.36 744.58 31.61 742.38 30.43 740.4 28.9 738.71 27.07 737.33 24.98 736.33 22.69 735.71 20.27 735.5 17.78 735.71 15.29 736.33 12.87 737.33 10.58 738.71 8.49 740.4 6.66 742.38 5.13 744.58 3.95 744.58 0.2 530.37 0.2 530.37 4.42 273.96 4.42 273.96 9.57 2.08 9.57 2.08 58.33 0.2 58.33 0.2 62.08"/></g><g id="LWPOLYLINE-202" data-name="LWPOLYLINE"><polygon class="cls-17" points="211.15 385.73 211.21 385.75 211.21 396.29 320.89 396.29 334.49 396.29 334.49 268.68 415.7 268.68 415.7 396.29 567.4 396.29 567.4 405.67 742.93 405.67 742.38 405.36 740.43 403.74 738.79 401.81 737.52 399.62 736.64 397.24 736.2 394.75 736.2 392.21 736.64 389.72 737.52 387.34 738.79 385.15 740.43 383.22 742.38 381.61 744.58 380.35 744.58 376.61 702.28 376.61 702.28 397.11 589.19 397.11 589.19 261.41 585.68 261.41 585.68 265.16 579.7 265.16 579.7 268.68 585.68 268.68 585.68 373.68 556.26 373.68 556.26 350.47 527.32 350.47 527.32 268.68 545.95 268.68 545.95 265.16 490.4 265.16 490.4 268.68 516.07 268.68 516.07 376.49 452.32 376.49 452.32 372.74 418.57 372.74 418.57 268.68 456.65 268.68 456.65 265.16 452.32 265.16 452.32 252.39 448.8 252.39 448.8 256.14 367.01 256.14 367.01 196.25 448.8 196.25 448.8 218.64 452.32 218.64 452.32 205.98 456.07 205.98 456.07 200.24 452.32 200.24 452.32 192.74 295.87 192.74 295.87 188.99 292.36 188.99 292.36 239.73 295.87 239.73 295.87 235.98 330.21 235.98 330.21 301.72 295.87 301.72 295.87 295.98 292.36 295.98 292.36 301.72 288.72 301.72 288.72 305.24 305.95 305.24 305.95 385.75 216.89 385.75 216.89 382.82 211.15 382.82 211.15 385.73"/></g><g id="LWPOLYLINE-203" data-name="LWPOLYLINE"><polygon class="cls-17" points="489.82 200.24 489.82 205.98 508.69 205.98 508.69 223.91 585.68 223.91 585.68 227.66 589.19 227.66 589.19 222.04 727.71 222.04 727.71 222.86 744.58 222.86 744.58 219.11 742.38 217.86 740.43 216.24 738.79 214.31 737.52 212.12 736.64 209.74 736.2 207.25 736.2 204.72 736.64 202.22 737.52 199.84 738.79 197.65 740.43 195.72 742.38 194.11 744.58 192.86 744.58 189.11 709.78 189.11 709.78 216.29 588.61 216.29 588.61 192.74 515.6 192.74 515.6 200.24 512.41 200.24 489.82 200.24"/></g><g id="LWPOLYLINE-204" data-name="LWPOLYLINE"><polygon class="cls-17" points="722.08 282.86 722.08 316.61 744.58 316.61 744.58 312.86 742.38 311.61 740.43 309.99 738.79 308.06 737.52 305.87 736.64 303.49 736.2 301 736.2 298.46 736.64 295.97 737.52 293.59 738.79 291.4 740.43 289.47 742.38 287.86 744.58 286.61 744.58 282.86 722.37 282.86 722.08 282.86"/></g><g id="LWPOLYLINE-205" data-name="LWPOLYLINE"><polygon class="cls-17" points="722.08 101.57 722.08 129.11 744.58 129.11 744.58 125.36 742.38 124.11 740.43 122.49 738.79 120.56 737.52 118.37 736.64 115.99 736.2 113.5 736.2 110.97 736.64 108.47 737.52 106.09 738.79 103.9 740.43 101.97 742.38 100.36 744.58 99.11 744.58 95.36 722.08 95.36 722.08 101.57"/></g><g id="LWPOLYLINE-206" data-name="LWPOLYLINE"><polygon class="cls-17" points="0.2 291.65 0.2 291.76 2.08 291.76 2.08 323.75 80.72 323.75 142.71 323.75 142.71 334.3 208.33 334.3 208.33 335.12 211.15 335.12 211.15 349.07 216.89 349.07 216.89 305.24 254.97 305.24 254.97 301.72 251.22 301.72 251.22 295.98 247.71 295.98 247.71 301.72 225.21 301.72 225.21 233.99 247.71 233.99 247.71 239.73 251.22 239.73 251.22 212.54 247.71 212.54 247.71 229.42 183.72 229.42 183.72 232.93 215.6 232.93 215.6 296.68 204.35 296.68 204.35 328.56 146.22 328.56 146.22 232.93 149.97 232.93 149.97 229.42 142.71 229.42 142.71 317.54 17.07 317.54 17.07 288.01 0.2 288.01 0.2 291.65"/></g><path class="cls-18" d="M645.62,249.67h.88l1.81,4.44h0l1.82-4.44H651v5.59h-.67v-4.54h0l-1.89,4.54h-.28l-1.89-4.54h0v4.54h-.66Z"/><path class="cls-18" d="M656,254.14h-2.51l-.4,1.12h-.68l2-5.59H655l2,5.59h-.68Zm-.2-.58-1-3h0l-1.05,3Z"/><path class="cls-18" d="M657.92,253.41l.66-.11a1.46,1.46,0,0,0,1.65,1.46c.78,0,1.29-.36,1.29-.9s-.38-.88-1.54-1.25c-1.34-.44-1.79-.83-1.79-1.58s.74-1.48,1.8-1.48a2,2,0,0,1,2,1.63l-.65.13a1.34,1.34,0,0,0-1.39-1.14c-.68,0-1.13.34-1.13.86s.32.66,1.34,1c1.46.47,2,1,2,1.84s-.8,1.53-2,1.53A2.05,2.05,0,0,1,657.92,253.41Z"/><path class="cls-18" d="M665,250.29h-1.74v-.62h4.15v.62h-1.74v5H665Z"/><path class="cls-18" d="M668.84,249.67h3.36v.62h-2.7v1.79H672v.59H669.5v2h2.7v.62h-3.36Z"/><path class="cls-18" d="M676.29,253l1.24,2.3h-.78L675.57,253h-1.12v2.27h-.66v-5.59h2c1.17,0,1.86.62,1.86,1.65a1.54,1.54,0,0,1-1.4,1.62Zm-.52-.59c.83,0,1.26-.36,1.26-1.05s-.42-1-1.26-1h-1.32v2.08Z"/><path class="cls-18" d="M643.11,258.17h2.15a1.45,1.45,0,0,1,1.63,1.44,1.18,1.18,0,0,1-.66,1.15v0a1.34,1.34,0,0,1,.87,1.33c0,1.08-.68,1.65-2,1.65h-2Zm2,2.37c.72,0,1.08-.3,1.08-.89s-.36-.86-1.08-.86h-1.38v1.75Zm-.1,2.6c1,0,1.39-.31,1.39-1s-.39-1-1.37-1h-1.3v2Z"/><path class="cls-18" d="M648.73,258.17h3.36v.62h-2.71v1.79h2.48v.59h-2.48v2h2.71v.62h-3.36Z"/><path class="cls-18" d="M653.68,258.17h1.74c1.42,0,2.42,1,2.42,2.79,0,2-1,2.8-2.46,2.8h-1.7Zm1.66,5c1.13,0,1.83-.6,1.83-2.18,0-1.43-.7-2.17-1.79-2.17h-1v4.35Z"/><path class="cls-18" d="M662,261.46l1.23,2.3h-.77l-1.19-2.27h-1.12v2.27h-.65v-5.59h2c1.16,0,1.86.62,1.86,1.65a1.54,1.54,0,0,1-1.4,1.62Zm-.52-.59c.83,0,1.26-.36,1.26-1.05s-.43-1-1.26-1h-1.33v2.08Z"/><path class="cls-18" d="M664.63,261c0-1.75,1-2.91,2.36-2.91s2.36,1.16,2.36,2.91-.94,2.92-2.36,2.92S664.63,262.72,664.63,261Zm4.06,0c0-1.41-.65-2.29-1.7-2.29s-1.69.88-1.69,2.29.65,2.3,1.69,2.3S668.69,262.38,668.69,261Z"/><path class="cls-18" d="M670.69,261c0-1.75.95-2.91,2.36-2.91s2.36,1.16,2.36,2.91-.94,2.92-2.36,2.92S670.69,262.72,670.69,261Zm4.06,0c0-1.41-.65-2.29-1.7-2.29s-1.69.88-1.69,2.29.65,2.3,1.69,2.3S674.75,262.38,674.75,261Z"/><path class="cls-18" d="M677,258.17h.88l1.82,4.44h0l1.82-4.44h.88v5.59h-.67v-4.54h0l-1.89,4.54h-.28l-1.89-4.54h0v4.54H677Z"/><path class="cls-18" d="M637.15,267.42l-1.25.81v-.7l1.33-.86h.58v5.59h-.66Z"/><path class="cls-18" d="M639.41,270.78l.65-.16a1.41,1.41,0,1,0,1.43-1.58,1.79,1.79,0,0,0-1.35.59l-.59-.14.54-2.82H643v.62h-2.43l-.3,1.55h0a2.1,2.1,0,0,1,1.29-.38,1.88,1.88,0,0,1,1.95,1.92,1.93,1.93,0,0,1-2,2A2,2,0,0,1,639.41,270.78Z"/><path class="cls-18" d="M644.79,266.67h.58v1.78h-.58Z"/><path class="cls-18" d="M646.51,269.07h2.09v.6h-2.09Z"/><path class="cls-18" d="M654.32,270.46a1.88,1.88,0,0,1-2,1.92c-1.47,0-2.3-1.09-2.3-2.83s1-3,2.32-3a1.81,1.81,0,0,1,1.87,1.49l-.62.15a1.19,1.19,0,0,0-1.23-1c-.92,0-1.6.88-1.66,2.23h0a1.88,1.88,0,0,1,1.67-.84A1.86,1.86,0,0,1,654.32,270.46Zm-.65,0a1.28,1.28,0,0,0-1.34-1.35,1.33,1.33,0,0,0-1.41,1.35,1.31,1.31,0,0,0,1.42,1.32A1.28,1.28,0,0,0,653.67,270.46Z"/><path class="cls-18" d="M655.85,266.67h.58v1.78h-.58Zm1,0h.59v1.78h-.59Z"/><path class="cls-18" d="M661.18,270.82l1.32-1.29-1.32-1.3.4-.39,1.28,1.31,1.3-1.31.39.39-1.31,1.3,1.31,1.29-.39.4-1.3-1.32-1.28,1.32Z"/><path class="cls-18" d="M668.73,267.42l-1.25.81v-.7l1.33-.86h.58v5.59h-.66Z"/><path class="cls-18" d="M671.85,271.64h3v.62h-3.72v-.52a2,2,0,0,1,.23-1.07c.2-.37.55-.64,1.42-1.09,1.16-.6,1.5-.94,1.5-1.5s-.49-.91-1.17-.91a1.31,1.31,0,0,0-1.4,1.36l-.66-.06a1.92,1.92,0,0,1,2.06-1.92,1.68,1.68,0,0,1,1.83,1.53c0,.83-.41,1.31-1.64,1.94-.94.47-1.19.65-1.34.93A1.58,1.58,0,0,0,671.85,271.64Z"/><path class="cls-18" d="M676.69,266.67h.58v1.78h-.58Z"/><path class="cls-18" d="M678.69,269.07h2.09v.6h-2.09Z"/><path class="cls-18" d="M682,270.4l.66-.1c.11,1,.58,1.46,1.41,1.46a1.07,1.07,0,0,0,1.2-1.08c0-.76-.43-1.12-1.32-1.12h-.4V269h.4a1.06,1.06,0,0,0,1.17-.91c0-.57-.4-.93-1.06-.93a1.17,1.17,0,0,0-1.26,1.06l-.65-.1a1.8,1.8,0,0,1,1.91-1.56,1.54,1.54,0,0,1,1.73,1.48,1.36,1.36,0,0,1-.76,1.18h0a1.5,1.5,0,0,1,.89,1.46,1.68,1.68,0,0,1-1.85,1.7A2,2,0,0,1,682,270.4Z"/><path class="cls-18" d="M687.56,266.67h.58v1.78h-.58Zm1.05,0h.59v1.78h-.59Z"/><path class="cls-18" d="M60.37,130.29h2.15a1.46,1.46,0,0,1,1.64,1.44,1.18,1.18,0,0,1-.66,1.15v0a1.34,1.34,0,0,1,.86,1.33c0,1.08-.68,1.65-2,1.65h-2Zm2,2.37c.73,0,1.09-.29,1.09-.89s-.37-.86-1.09-.86H61v1.75Zm-.09,2.6c1,0,1.39-.31,1.39-1s-.39-1-1.37-1H61v2Z"/><path class="cls-18" d="M66,130.29h3.36v.62H66.65v1.79h2.48v.59H66.65v2h2.71v.62H66Z"/><path class="cls-18" d="M71,130.29h1.74c1.42,0,2.42,1,2.42,2.79,0,2-1,2.8-2.47,2.8H71Zm1.65,5c1.14,0,1.84-.6,1.84-2.18s-.7-2.17-1.79-2.17H71.6v4.35Z"/><path class="cls-18" d="M79.24,133.58l1.23,2.3H79.7l-1.19-2.27H77.39v2.27h-.65v-5.59h2c1.16,0,1.86.62,1.86,1.65a1.54,1.54,0,0,1-1.4,1.62Zm-.52-.59c.82,0,1.25-.36,1.25-1.05s-.42-1-1.25-1H77.39V133Z"/><path class="cls-18" d="M81.9,133.08c0-1.75.95-2.91,2.36-2.91s2.36,1.16,2.36,2.91S85.68,136,84.26,136,81.9,134.84,81.9,133.08Zm4.06,0c0-1.41-.65-2.29-1.7-2.29s-1.69.88-1.69,2.29.64,2.3,1.69,2.3S86,134.5,86,133.08Z"/><path class="cls-18" d="M88,133.08c0-1.75,1-2.91,2.36-2.91s2.36,1.16,2.36,2.91S91.74,136,90.32,136,88,134.84,88,133.08Zm4.06,0c0-1.41-.65-2.29-1.7-2.29s-1.69.88-1.69,2.29.64,2.3,1.69,2.3S92,134.5,92,133.08Z"/><path class="cls-18" d="M94.31,130.29h.88L97,134.73h0l1.82-4.44h.88v5.59h-.67v-4.54h0l-1.89,4.54h-.28L95,131.34h0v4.54h-.66Z"/><path class="cls-18" d="M104.75,135.26h3v.62h-3.71v-.52a2,2,0,0,1,.23-1.07c.2-.37.54-.64,1.42-1.09,1.16-.6,1.5-.94,1.5-1.5s-.49-.91-1.17-.91a1.3,1.3,0,0,0-1.4,1.36l-.66-.06a1.92,1.92,0,0,1,2.06-1.92,1.68,1.68,0,0,1,1.83,1.53c0,.83-.42,1.31-1.65,1.94-.93.47-1.19.65-1.33.93A1.58,1.58,0,0,0,104.75,135.26Z"/><path class="cls-18" d="M58.65,139.54l-1.25.81v-.7l1.33-.86h.58v5.59h-.66Z"/><path class="cls-18" d="M61.78,143.76h3v.62H61.07v-.52a2,2,0,0,1,.23-1.07c.2-.37.55-.64,1.43-1.09,1.16-.6,1.49-.94,1.49-1.5s-.49-.91-1.17-.91a1.29,1.29,0,0,0-1.39,1.36l-.67-.06a1.92,1.92,0,0,1,2.06-1.92,1.68,1.68,0,0,1,1.84,1.53c0,.83-.42,1.31-1.65,1.94-.94.47-1.19.65-1.34.93A1.47,1.47,0,0,0,61.78,143.76Z"/><path class="cls-18" d="M66.61,138.79h.59v1.78h-.59Z"/><path class="cls-18" d="M68.33,141.19h2.09v.6H68.33Z"/><path class="cls-18" d="M74.26,143.24h-2.8v-.58l2.47-3.87h1v3.87h.72v.58h-.72v1.14h-.66Zm0-.58v-3.35h0l-2.13,3.35Z"/><path class="cls-18" d="M77,138.79h.58v1.78H77Zm1,0h.58v1.78h-.58Z"/><path class="cls-18" d="M82.33,142.94l1.31-1.29-1.31-1.3.39-.39L84,141.27l1.3-1.31.39.39-1.31,1.3,1.31,1.29-.39.4L84,142l-1.29,1.32Z"/><path class="cls-18" d="M89.88,139.54l-1.25.81v-.7l1.32-.86h.59v5.59h-.66Z"/><path class="cls-18" d="M93,143.76h3v.62H92.3v-.52a2,2,0,0,1,.23-1.07c.2-.37.54-.64,1.42-1.09,1.16-.6,1.5-.94,1.5-1.5s-.49-.91-1.17-.91a1.3,1.3,0,0,0-1.4,1.36l-.66-.06a1.92,1.92,0,0,1,2.06-1.92,1.68,1.68,0,0,1,1.83,1.53c0,.83-.42,1.31-1.65,1.94-.93.47-1.19.65-1.33.93A1.58,1.58,0,0,0,93,143.76Z"/><path class="cls-18" d="M97.84,138.79h.58v1.78h-.58Z"/><path class="cls-18" d="M99.83,141.19h2.09v.6H99.83Z"/><path class="cls-18" d="M105.76,143.24H103v-.58l2.46-3.87h1v3.87h.71v.58h-.71v1.14h-.67Zm0-.58v-3.35h0l-2.13,3.35Z"/><path class="cls-18" d="M108.5,138.79h.58v1.78h-.58Zm1,0h.59v1.78h-.59Z"/><path class="cls-18" d="M66.26,204.28h2.15A1.46,1.46,0,0,1,70,205.73a1.19,1.19,0,0,1-.65,1.15v0a1.34,1.34,0,0,1,.86,1.33c0,1.08-.68,1.65-2,1.65h-2Zm2,2.38c.73,0,1.09-.3,1.09-.9s-.37-.85-1.09-.85H66.92v1.75Zm-.1,2.6c1,0,1.4-.31,1.4-1s-.4-1-1.38-1H66.92v2Z"/><path class="cls-18" d="M71.88,204.28h3.36v.63h-2.7v1.79H75v.59H72.54v2h2.7v.62H71.88Z"/><path class="cls-18" d="M76.83,204.28h1.75c1.41,0,2.41,1,2.41,2.79,0,2-1,2.81-2.46,2.81h-1.7Zm1.66,5c1.14,0,1.84-.6,1.84-2.19,0-1.43-.7-2.16-1.79-2.16H77.49v4.35Z"/><path class="cls-18" d="M85.13,207.58l1.23,2.3h-.78l-1.18-2.27H83.28v2.27h-.66v-5.6h2c1.17,0,1.86.63,1.86,1.66a1.54,1.54,0,0,1-1.39,1.62Zm-.52-.59c.82,0,1.25-.36,1.25-1.05s-.42-1-1.25-1H83.28V207Z"/><path class="cls-18" d="M87.79,207.08c0-1.75.94-2.92,2.36-2.92s2.36,1.17,2.36,2.92-1,2.92-2.36,2.92S87.79,208.83,87.79,207.08Zm4,0c0-1.41-.65-2.29-1.69-2.29s-1.7.88-1.7,2.29.65,2.3,1.7,2.3S91.84,208.5,91.84,207.08Z"/><path class="cls-18" d="M93.85,207.08c0-1.75.94-2.92,2.36-2.92s2.36,1.17,2.36,2.92S97.62,210,96.21,210,93.85,208.83,93.85,207.08Zm4.05,0c0-1.41-.65-2.29-1.69-2.29s-1.7.88-1.7,2.29.65,2.3,1.7,2.3S97.9,208.5,97.9,207.08Z"/><path class="cls-18" d="M100.2,204.28h.88l1.81,4.45h0l1.81-4.45h.88v5.6h-.66v-4.54h0L103,209.88h-.28l-1.88-4.54h0v4.54h-.65Z"/><path class="cls-18" d="M109.77,208l.66-.11c.11,1,.58,1.47,1.4,1.47a1.07,1.07,0,0,0,1.2-1.08c0-.76-.43-1.12-1.32-1.12h-.39v-.58h.39c.67,0,1.18-.4,1.18-.9s-.4-.93-1.06-.93a1.19,1.19,0,0,0-1.27,1.06l-.64-.1a1.8,1.8,0,0,1,1.91-1.57,1.54,1.54,0,0,1,1.72,1.49,1.36,1.36,0,0,1-.76,1.18h0a1.49,1.49,0,0,1,.9,1.46,1.69,1.69,0,0,1-1.86,1.7A2,2,0,0,1,109.77,208Z"/><path class="cls-18" d="M65.32,213.54l-1.25.8v-.69l1.33-.87H66v5.6h-.66Z"/><path class="cls-18" d="M68.44,217.76h3v.62H67.74v-.53a2,2,0,0,1,.23-1.06c.2-.37.54-.64,1.42-1.1,1.16-.6,1.5-.93,1.5-1.49s-.49-.91-1.17-.91a1.3,1.3,0,0,0-1.4,1.36l-.66-.06a1.93,1.93,0,0,1,2.06-1.93,1.69,1.69,0,0,1,1.83,1.54c0,.82-.41,1.31-1.64,1.93-.94.48-1.2.66-1.34.94A1.58,1.58,0,0,0,68.44,217.76Z"/><path class="cls-18" d="M73.28,212.78h.58v1.79h-.58Z"/><path class="cls-18" d="M75,215.19h2.09v.6H75Z"/><path class="cls-18" d="M78.24,216.82a1.56,1.56,0,0,1,1.05-1.5v0a1.23,1.23,0,0,1-.74-1.16,1.79,1.79,0,0,1,3.52,0,1.25,1.25,0,0,1-.73,1.16v0a1.58,1.58,0,0,1,1,1.5c0,1-.82,1.68-2.07,1.68S78.24,217.83,78.24,216.82Zm3.46,0c0-.67-.54-1.1-1.39-1.1s-1.39.43-1.39,1.1.54,1.08,1.39,1.08S81.7,217.45,81.7,216.78Zm-.28-2.6c0-.55-.45-.92-1.11-.92s-1.1.37-1.1.92.44.87,1.1.87S81.42,214.71,81.42,214.18Z"/><path class="cls-18" d="M83.81,212.78h.58v1.79h-.58Zm1,0h.59v1.79h-.59Z"/><path class="cls-18" d="M89.14,216.94l1.31-1.29-1.31-1.3.4-.39,1.28,1.31,1.3-1.31.39.39-1.31,1.3,1.31,1.29-.39.39L90.82,216l-1.28,1.31Z"/><path class="cls-18" d="M96.69,213.54l-1.25.8v-.69l1.33-.87h.58v5.6h-.66Z"/><path class="cls-18" d="M100.13,213.54l-1.25.8v-.69l1.32-.87h.59v5.6h-.66Z"/><path class="cls-18" d="M102.75,212.78h.58v1.79h-.58Z"/><path class="cls-18" d="M104.75,215.19h2.08v.6h-2.08Z"/><path class="cls-18" d="M108,216.82a1.56,1.56,0,0,1,1.05-1.5v0a1.23,1.23,0,0,1-.74-1.16,1.79,1.79,0,0,1,3.52,0,1.25,1.25,0,0,1-.74,1.16v0a1.56,1.56,0,0,1,1,1.5c0,1-.81,1.68-2.06,1.68S108,217.83,108,216.82Zm3.45,0c0-.67-.53-1.1-1.38-1.1s-1.39.43-1.39,1.1.53,1.08,1.39,1.08S111.44,217.45,111.44,216.78Zm-.28-2.6c0-.55-.45-.92-1.1-.92s-1.1.37-1.1.92.44.87,1.1.87S111.16,214.71,111.16,214.18Z"/><path class="cls-18" d="M113.55,212.78h.59v1.79h-.59Zm1.06,0h.58v1.79h-.58Z"/><path class="cls-18" d="M534.11,157.31h.66v5h2.53v.62h-3.19Z"/><path class="cls-18" d="M538.77,157.31h.65v5.6h-.65Z"/><path class="cls-18" d="M540.76,157.31h.69l1.67,4.72h0l1.67-4.72h.69l-2,5.6h-.71Z"/><path class="cls-18" d="M546.84,157.31h.65v5.6h-.65Z"/><path class="cls-18" d="M549.41,157.31h.77l2.54,4.57h0v-4.57h.66v5.6h-.78l-2.54-4.56h0v4.56h-.65Z"/><path class="cls-18" d="M555,160.11c0-1.77.93-2.92,2.36-2.92a2.08,2.08,0,0,1,2.13,1.85l-.66.12a1.43,1.43,0,0,0-1.47-1.34c-1,0-1.69.88-1.69,2.29s.65,2.3,1.69,2.3a1.43,1.43,0,0,0,1.5-1.64h-1.43v-.63h2.08v.57a2.09,2.09,0,0,1-2.15,2.32C556,163,555,161.89,555,160.11Z"/><path class="cls-18" d="M563.15,163l2.85-6,.45.2-2.86,6Z"/><path class="cls-18" d="M570.39,157.31h1.74c1.41,0,2.41,1,2.41,2.79,0,2-1,2.81-2.46,2.81h-1.69Zm1.65,5c1.14,0,1.84-.6,1.84-2.19,0-1.43-.7-2.16-1.79-2.16H571v4.35Z"/><path class="cls-18" d="M576.18,157.31h.66v5.6h-.66Z"/><path class="cls-18" d="M578.75,157.31h.78l2.54,4.57h0v-4.57h.67v5.6H582l-2.54-4.56h0v4.56h-.66Z"/><path class="cls-18" d="M584.67,157.31h.66v5.6h-.66Z"/><path class="cls-18" d="M587.24,157.31H588l2.54,4.57h0v-4.57h.67v5.6h-.79l-2.54-4.56h0v4.56h-.66Z"/><path class="cls-18" d="M592.87,160.11c0-1.77.92-2.92,2.36-2.92a2.07,2.07,0,0,1,2.12,1.85l-.65.12a1.43,1.43,0,0,0-1.47-1.34c-1.05,0-1.7.88-1.7,2.29s.65,2.3,1.7,2.3a1.42,1.42,0,0,0,1.49-1.64H595.3v-.63h2.07v.57a2.08,2.08,0,0,1-2.14,2.32C593.79,163,592.87,161.89,592.87,160.11Z"/><path class="cls-18" d="M604,160.61l1.23,2.3h-.77l-1.18-2.27H602.2v2.27h-.66v-5.6h2c1.17,0,1.86.63,1.86,1.66a1.54,1.54,0,0,1-1.4,1.62Zm-.52-.59c.83,0,1.26-.36,1.26-1.05s-.43-1-1.26-1H602.2V160Z"/><path class="cls-18" d="M606.71,160.11c0-1.75.94-2.92,2.35-2.92s2.36,1.17,2.36,2.92-.94,2.92-2.36,2.92S606.71,161.86,606.71,160.11Zm4,0c0-1.41-.65-2.29-1.7-2.29s-1.69.88-1.69,2.29.65,2.3,1.69,2.3S610.76,161.53,610.76,160.11Z"/><path class="cls-18" d="M612.77,160.11c0-1.75.94-2.92,2.35-2.92s2.36,1.17,2.36,2.92-.94,2.92-2.36,2.92S612.77,161.86,612.77,160.11Zm4.05,0c0-1.41-.65-2.29-1.7-2.29s-1.69.88-1.69,2.29.65,2.3,1.69,2.3S616.82,161.53,616.82,160.11Z"/><path class="cls-18" d="M619.11,157.31H620l1.82,4.45h0l1.82-4.45h.88v5.6h-.66v-4.54h0L622,162.91h-.28l-1.88-4.54h0v4.54h-.66Z"/><path class="cls-18" d="M553.6,166.57l-1.25.8v-.69l1.33-.87h.58v5.6h-.66Z"/><path class="cls-18" d="M558.61,166.45H555.7v-.63h3.67v.58l-2.27,5h-.75Z"/><path class="cls-18" d="M561,165.81h.59v1.79H561Z"/><path class="cls-18" d="M562.71,168.22h2.09v.6h-2.09Z"/><path class="cls-18" d="M566.25,168.61c0-1.81.9-2.92,2.21-2.92s2.22,1.11,2.22,2.92-.91,2.92-2.22,2.92S566.25,170.43,566.25,168.61Zm3.76,0c0-1.46-.61-2.29-1.55-2.29s-1.55.83-1.55,2.29.62,2.3,1.55,2.3S570,170.07,570,168.61Z"/><path class="cls-18" d="M572.2,165.81h.58v1.79h-.58Zm1,0h.59v1.79h-.59Z"/><path class="cls-18" d="M577.53,170l1.31-1.29-1.31-1.3.4-.39,1.28,1.31,1.3-1.31.39.39-1.31,1.3L580.9,170l-.39.39-1.3-1.31-1.28,1.31Z"/><path class="cls-18" d="M585.08,166.57l-1.25.8v-.69l1.33-.87h.58v5.6h-.66Z"/><path class="cls-18" d="M587.29,169.85a1.56,1.56,0,0,1,1-1.5v0a1.25,1.25,0,0,1-.73-1.17,1.79,1.79,0,0,1,3.52,0,1.25,1.25,0,0,1-.74,1.17v0a1.56,1.56,0,0,1,1,1.5c0,1-.81,1.68-2.06,1.68S587.29,170.86,587.29,169.85Zm3.45,0c0-.67-.53-1.1-1.38-1.1s-1.39.43-1.39,1.1.53,1.08,1.39,1.08S590.74,170.47,590.74,169.81Zm-.28-2.61c0-.54-.45-.91-1.1-.91s-1.11.37-1.11.91.44.88,1.11.88S590.46,167.74,590.46,167.2Z"/><path class="cls-18" d="M592.85,165.81h.58v1.79h-.58Z"/><path class="cls-18" d="M594.85,168.22h2.09v.6h-2.09Z"/><path class="cls-18" d="M602.66,169.6a1.88,1.88,0,0,1-2,1.93c-1.47,0-2.3-1.1-2.3-2.83s1-3,2.32-3a1.81,1.81,0,0,1,1.87,1.5l-.62.15a1.19,1.19,0,0,0-1.24-1c-.91,0-1.59.87-1.65,2.22h0a2,2,0,0,1,3.58,1.08Zm-.65,0a1.28,1.28,0,0,0-1.34-1.34,1.32,1.32,0,0,0-1.41,1.34,1.3,1.3,0,0,0,1.42,1.32A1.27,1.27,0,0,0,602,169.6Z"/><path class="cls-18" d="M604.19,165.81h.58v1.79h-.58Zm1,0h.59v1.79h-.59Z"/><path class="cls-18" d="M246.34,340.36h3.37V341H247v2h2.49v.59H247V346h-.65Z"/><path class="cls-18" d="M251.26,343.16c0-1.75.94-2.92,2.36-2.92s2.36,1.17,2.36,2.92-.95,2.92-2.36,2.92S251.26,344.91,251.26,343.16Zm4.05,0c0-1.41-.64-2.29-1.69-2.29s-1.7.88-1.7,2.29.65,2.3,1.7,2.3S255.31,344.58,255.31,343.16Z"/><path class="cls-18" d="M259,343.63l-2-3.27h.77l1.51,2.62h0l1.52-2.62h.77l-2,3.27V346H259Z"/><path class="cls-18" d="M263.24,340.36h3.35V341h-2.7v1.79h2.48v.59h-2.48v2h2.7V346h-3.35Z"/><path class="cls-18" d="M271,343.66l1.23,2.3h-.77l-1.19-2.27h-1.12V346h-.65v-5.6h2a1.63,1.63,0,0,1,1.86,1.66,1.54,1.54,0,0,1-1.4,1.62Zm-.52-.59c.82,0,1.26-.36,1.26-1.05s-.43-1-1.26-1h-1.33v2.08Z"/><path class="cls-18" d="M310.48,280.53h.68l.82,4.55h0l1.38-4.55H314l1.39,4.55h0l.83-4.55h.68l-1,5.6h-.8l-1.38-4.49h0l-1.37,4.49h-.81Z"/><path class="cls-18" d="M311.51,250.54h1.75c1.41,0,2.41,1,2.41,2.79,0,2-1,2.81-2.46,2.81h-1.7Zm1.66,5c1.14,0,1.84-.6,1.84-2.18s-.7-2.17-1.79-2.17h-1.05v4.35Z"/><path class="cls-18" d="M410.86,106.73l1.23,2.3h-.77l-1.19-2.27H409V109h-.66v-5.6h2c1.17,0,1.86.63,1.86,1.66a1.54,1.54,0,0,1-1.4,1.62Zm-.52-.6c.83,0,1.26-.36,1.26-1s-.43-1-1.26-1H409v2.07Z"/><path class="cls-18" d="M406.89,132.18h.68l.82,4.55h0l1.38-4.55h.62l1.4,4.55h0l.83-4.55h.67l-1,5.6h-.8l-1.38-4.5h0l-1.36,4.5h-.81Z"/><path class="cls-18" d="M466.54,102.18h1.74c1.41,0,2.41,1,2.41,2.79,0,2-1,2.81-2.46,2.81h-1.69Zm1.65,5c1.14,0,1.84-.6,1.84-2.18,0-1.43-.7-2.17-1.79-2.17h-1.05v4.35Z"/><path class="cls-18" d="M471.46,102.18h.68l.82,4.55h0l1.38-4.55H475l1.39,4.55h0l.83-4.55h.68l-1,5.6h-.8l-1.38-4.5h0l-1.37,4.5h-.81Z"/><polygon class="cls-18" points="192.44 359.13 206.84 364.53 192.44 369.93 192.44 359.13"/></g></g></svg>