<svg xmlns="http://www.w3.org/2000/svg" viewBox="0 0 592.255 303.394"><title>nfp_Unit17-22B_x</title><g id="Layer_2" data-name="Layer 2"><g id="Unit17-22B_Rest"><g id="LWPOLYLINE"><path d="M247.29,17.22,215.575,28.763A33.763,33.763,0,0,1,213.54,17.22,33.74,33.74,0,0,1,211.5,28.763L179.79,17.22" style="fill:none;stroke:#231f20;stroke-linecap:round;stroke-linejoin:round;stroke-width:0.25px;stroke-dasharray:1.3229475021362305,1.3229475021362305"/></g><g id="LWPOLYLINE-2" data-name="LWPOLYLINE"><path d="M393.657,17.22,361.942,28.763a33.763,33.763,0,0,1-2.035-11.543,33.763,33.763,0,0,1-2.035,11.543L326.157,17.22" style="fill:none;stroke:#231f20;stroke-linecap:round;stroke-linejoin:round;stroke-width:0.25px;stroke-dasharray:1.3229475021362305,1.3229475021362305"/></g><g id="LWPOLYLINE-3" data-name="LWPOLYLINE"><rect x="314.325" y="36.426" width="122.064" height="124.167" style="fill:#fff;stroke:#231f20;stroke-linecap:round;stroke-linejoin:round;stroke-width:0.15px"/></g><g id="LWPOLYLINE-4" data-name="LWPOLYLINE"><rect x="17.368" y="36.426" width="95.822" height="105.629" style="fill:#fff;stroke:#231f20;stroke-linecap:round;stroke-linejoin:round;stroke-width:0.15px"/></g><g id="LWPOLYLINE-5" data-name="LWPOLYLINE"><rect x="309.775" y="36.426" width="126.615" height="124.167" style="fill:#fff;stroke:#231f20;stroke-linecap:round;stroke-linejoin:round;stroke-width:0.15px"/></g><g id="LWPOLYLINE-6" data-name="LWPOLYLINE"><rect x="136.652" y="53.079" width="15" height="60.298" style="fill:#fff;stroke:#231f20;stroke-linecap:round;stroke-linejoin:round;stroke-width:0.150000005960464px"/></g><g id="LWPOLYLINE-7" data-name="LWPOLYLINE"><rect x="307.544" y="57.68" width="33.75" height="84.375" style="fill:#fff;stroke:#231f20;stroke-linecap:round;stroke-linejoin:round;stroke-width:0.150000005960464px"/></g><g id="LWPOLYLINE-8" data-name="LWPOLYLINE"><rect x="356.699" y="152.594" width="53.438" height="16.875" rx="1.875" style="fill:#fff;stroke:#231f20;stroke-linecap:round;stroke-linejoin:round;stroke-width:0.150000005960464px"/></g><g id="LWPOLYLINE-9" data-name="LWPOLYLINE"><polygon points="396.777 60.425 395.82 30.426 369.101 30.444 368.184 60.444 396.777 60.425" style="fill:#fff;stroke:#231f20;stroke-linecap:round;stroke-linejoin:round;stroke-width:0.150000005960464px"/></g><g id="LWPOLYLINE-10" data-name="LWPOLYLINE"><rect x="314.113" y="30.801" width="20.152" height="20.463" style="fill:#fff;stroke:#231f20;stroke-linecap:round;stroke-linejoin:round;stroke-width:0.150000005960464px"/></g><g id="LWPOLYLINE-11" data-name="LWPOLYLINE"><rect x="314.113" y="148.47" width="20.152" height="20.463" style="fill:#fff;stroke:#231f20;stroke-linecap:round;stroke-linejoin:round;stroke-width:0.150000005960464px"/></g><g id="LWPOLYLINE-12" data-name="LWPOLYLINE"><rect x="426.961" y="70.378" width="15" height="56.25" style="fill:#fff;stroke:#231f20;stroke-linecap:round;stroke-linejoin:round;stroke-width:0.150000005960464px"/></g><g id="LWPOLYLINE-13" data-name="LWPOLYLINE"><rect x="443.461" y="52.849" width="15" height="56.25" style="fill:#fff;stroke:#231f20;stroke-linecap:round;stroke-linejoin:round;stroke-width:0.150000005960464px"/></g><g id="LWPOLYLINE-14" data-name="LWPOLYLINE"><rect x="295.55" y="72.955" width="10.69" height="53.824" style="fill:#fff;stroke:#231f20;stroke-linecap:round;stroke-linejoin:round;stroke-width:0.150000005960464px"/></g><path d="M322.024,131.64s5.273,6.857,7.934,5.565-7.24-10.459-7.24-10.459-3.9-3.983-4.644-1.994S322.024,131.64,322.024,131.64Z" style="fill:#fff;stroke:#231f20;stroke-miterlimit:10;stroke-width:0.150000005960464px"/><path d="M324.663,120.56s-4.369-7.078-6.289-5.764,3.557,9.441,3.557,9.441,3.833,7.574,5.707,5.536S324.663,120.56,324.663,120.56Z" style="fill:#fff;stroke:#231f20;stroke-miterlimit:10;stroke-width:0.150000005960464px"/><path d="M318.7,78.743S322.32,78,323.9,70.4s1.116-7.676.31-8.009-4.2,2.243-5.221,9.2S317.446,78.428,318.7,78.743Z" style="fill:#fff;stroke:#231f20;stroke-miterlimit:10;stroke-width:0.150000005960464px"/><rect x="411.302" y="97.625" width="44.903" height="1.758" transform="translate(532.257 -335.25) rotate(90)" style="fill:#fff;stroke:#231f20;stroke-linecap:round;stroke-linejoin:round;stroke-width:0.150000005960464px"/><rect x="348.539" y="213.598" width="22.031" height="24.275" style="fill:#fff;stroke:#231f20;stroke-miterlimit:10;stroke-width:0.25px"/><g id="WIPEOUT"><rect x="272.649" y="90.609" width="19.688" height="18.516" style="fill:#fff;stroke:#231f20;stroke-linecap:round;stroke-linejoin:round;stroke-width:0.150000005960464px"/><polyline points="272.649 90.609 272.649 109.125 292.337 109.125 292.337 90.609 272.649 90.609" style="fill:#fff;stroke:#231f20;stroke-linecap:round;stroke-linejoin:round;stroke-width:0.150000005960464px"/></g><g id="LINE"><line x1="292.337" y1="107.953" x2="272.649" y2="107.953" style="fill:none;stroke:#231f20;stroke-linecap:round;stroke-linejoin:round;stroke-width:0.150000005960464px"/></g><g id="LINE-2" data-name="LINE"><line x1="292.337" y1="91.781" x2="272.649" y2="91.781" style="fill:none;stroke:#231f20;stroke-linecap:round;stroke-linejoin:round;stroke-width:0.150000005960464px"/></g><g id="LINE-3" data-name="LINE"><line x1="274.055" y1="91.781" x2="274.055" y2="107.953" style="fill:none;stroke:#231f20;stroke-linecap:round;stroke-linejoin:round;stroke-width:0.150000005960464px"/></g><g id="LINE-4" data-name="LINE"><line x1="276.165" y1="91.781" x2="276.165" y2="107.953" style="fill:none;stroke:#231f20;stroke-linecap:round;stroke-linejoin:round;stroke-width:0.150000005960464px"/></g><g id="LINE-5" data-name="LINE"><line x1="276.165" y1="91.781" x2="276.165" y2="107.953" style="fill:none;stroke:#231f20;stroke-linecap:round;stroke-linejoin:round;stroke-width:0.150000005960464px"/></g><g id="LWPOLYLINE-15" data-name="LWPOLYLINE"><rect x="282.024" y="71.742" width="24.375" height="56.25" style="fill:#fff;stroke:#231f20;stroke-linecap:round;stroke-linejoin:round;stroke-width:0.150000005960464px"/></g><path d="M376.855,123.028s-9.882,2.033-11.035-8.333.163-29.414,8.735-36.621,23.27,13.392,23.27,13.392,9.137,10.1-1.916,20.318S376.855,123.028,376.855,123.028Z" style="fill:#fff;stroke:#231f20;stroke-miterlimit:10;stroke-width:0.150000005960464px"/><g id="LINE-6" data-name="LINE"><line x1="312.232" y1="112.367" x2="340.312" y2="112.367" style="fill:none;stroke:#231f20;stroke-linecap:round;stroke-linejoin:round;stroke-width:0.150000005960464px"/></g><g id="LWPOLYLINE-16" data-name="LWPOLYLINE"><polyline points="341.294 62.367 312.232 62.367 312.232 137.367 341.294 137.367" style="fill:none;stroke:#231f20;stroke-linecap:round;stroke-linejoin:round;stroke-width:0.150000005960464px"/></g><g id="ARC"><path d="M316.725,136.43a59.552,59.552,0,0,0,0-23.125" style="fill:none;stroke:#231f20;stroke-linecap:round;stroke-linejoin:round;stroke-width:0.150000005960464px"/></g><g id="ARC-2" data-name="ARC"><path d="M316.725,113.305a1.224,1.224,0,0,0-.982-.938" style="fill:none;stroke:#231f20;stroke-linecap:round;stroke-linejoin:round;stroke-width:0.150000005960464px"/></g><g id="ARC-3" data-name="ARC"><path d="M315.743,137.367a1.223,1.223,0,0,0,.982-.937" style="fill:none;stroke:#231f20;stroke-linecap:round;stroke-linejoin:round;stroke-width:0.150000005960464px"/></g><g id="ARC-4" data-name="ARC"><path d="M315.743,112.367a1.223,1.223,0,0,0,.982-.937" style="fill:none;stroke:#231f20;stroke-linecap:round;stroke-linejoin:round;stroke-width:0.150000005960464px"/></g><g id="ARC-5" data-name="ARC"><path d="M316.725,63.305a1.224,1.224,0,0,0-.982-.938" style="fill:none;stroke:#231f20;stroke-linecap:round;stroke-linejoin:round;stroke-width:0.150000005960464px"/></g><g id="ARC-6" data-name="ARC"><path d="M341.294,113.305a1.224,1.224,0,0,0-.982-.938" style="fill:none;stroke:#231f20;stroke-linecap:round;stroke-linejoin:round;stroke-width:0.150000005960464px"/></g><g id="ARC-7" data-name="ARC"><path d="M340.312,112.367a1.223,1.223,0,0,0,.982-.937" style="fill:none;stroke:#231f20;stroke-linecap:round;stroke-linejoin:round;stroke-width:0.150000005960464px"/></g><g id="ARC-8" data-name="ARC"><path d="M340.312,137.367a1.223,1.223,0,0,0,.982-.937" style="fill:none;stroke:#231f20;stroke-linecap:round;stroke-linejoin:round;stroke-width:0.150000005960464px"/></g><g id="ARC-9" data-name="ARC"><path d="M341.294,63.305a1.224,1.224,0,0,0-.982-.938" style="fill:none;stroke:#231f20;stroke-linecap:round;stroke-linejoin:round;stroke-width:0.150000005960464px"/></g><g id="LINE-7" data-name="LINE"><line x1="312.232" y1="87.367" x2="340.312" y2="87.367" style="fill:none;stroke:#231f20;stroke-linecap:round;stroke-linejoin:round;stroke-width:0.150000005960464px"/></g><g id="ARC-10" data-name="ARC"><path d="M316.725,86.43a59.552,59.552,0,0,0,0-23.125" style="fill:none;stroke:#231f20;stroke-linecap:round;stroke-linejoin:round;stroke-width:0.150000005960464px"/></g><g id="ARC-11" data-name="ARC"><path d="M315.743,87.367a1.223,1.223,0,0,0,.982-.937" style="fill:none;stroke:#231f20;stroke-linecap:round;stroke-linejoin:round;stroke-width:0.150000005960464px"/></g><g id="ARC-12" data-name="ARC"><path d="M316.725,88.305a1.224,1.224,0,0,0-.982-.938" style="fill:none;stroke:#231f20;stroke-linecap:round;stroke-linejoin:round;stroke-width:0.150000005960464px"/></g><g id="ARC-13" data-name="ARC"><path d="M340.312,87.367a1.223,1.223,0,0,0,.982-.937" style="fill:none;stroke:#231f20;stroke-linecap:round;stroke-linejoin:round;stroke-width:0.150000005960464px"/></g><g id="ARC-14" data-name="ARC"><path d="M341.294,88.305a1.224,1.224,0,0,0-.982-.938" style="fill:none;stroke:#231f20;stroke-linecap:round;stroke-linejoin:round;stroke-width:0.150000005960464px"/></g><g id="ARC-15" data-name="ARC"><path d="M316.725,111.43a59.552,59.552,0,0,0,0-23.125" style="fill:none;stroke:#231f20;stroke-linecap:round;stroke-linejoin:round;stroke-width:0.150000005960464px"/></g><g id="CIRCLE"><path d="M387.168,165.251a.469.469,0,1,1,.469.468.469.469,0,0,1-.469-.468Z" style="fill:none;stroke:#231f20;stroke-linecap:round;stroke-linejoin:round;stroke-width:0.150000005960464px"/></g><g id="CIRCLE-2" data-name="CIRCLE"><path d="M387.168,156.813a.469.469,0,1,1,.469.469.469.469,0,0,1-.469-.469Z" style="fill:none;stroke:#231f20;stroke-linecap:round;stroke-linejoin:round;stroke-width:0.150000005960464px"/></g><g id="CIRCLE-3" data-name="CIRCLE"><path d="M378.73,165.251a.469.469,0,1,1,.469.468.469.469,0,0,1-.469-.468Z" style="fill:none;stroke:#231f20;stroke-linecap:round;stroke-linejoin:round;stroke-width:0.150000005960464px"/></g><g id="CIRCLE-4" data-name="CIRCLE"><path d="M378.73,156.813a.469.469,0,1,1,.469.469.469.469,0,0,1-.469-.469Z" style="fill:none;stroke:#231f20;stroke-linecap:round;stroke-linejoin:round;stroke-width:0.150000005960464px"/></g><g id="CIRCLE-5" data-name="CIRCLE"><path d="M370.293,165.251a.469.469,0,1,1,.469.468.469.469,0,0,1-.469-.468Z" style="fill:none;stroke:#231f20;stroke-linecap:round;stroke-linejoin:round;stroke-width:0.150000005960464px"/></g><g id="CIRCLE-6" data-name="CIRCLE"><path d="M370.293,156.813a.469.469,0,1,1,.469.469.469.469,0,0,1-.469-.469Z" style="fill:none;stroke:#231f20;stroke-linecap:round;stroke-linejoin:round;stroke-width:0.150000005960464px"/></g><g id="CIRCLE-7" data-name="CIRCLE"><path d="M361.855,165.251a.469.469,0,1,1,.469.468.469.469,0,0,1-.469-.468Z" style="fill:none;stroke:#231f20;stroke-linecap:round;stroke-linejoin:round;stroke-width:0.150000005960464px"/></g><g id="CIRCLE-8" data-name="CIRCLE"><path d="M361.855,156.813a.469.469,0,1,1,.469.469.469.469,0,0,1-.469-.469Z" style="fill:none;stroke:#231f20;stroke-linecap:round;stroke-linejoin:round;stroke-width:0.150000005960464px"/></g><g id="CIRCLE-9" data-name="CIRCLE"><path d="M395.605,165.251a.469.469,0,1,1,.469.468.469.469,0,0,1-.469-.468Z" style="fill:none;stroke:#231f20;stroke-linecap:round;stroke-linejoin:round;stroke-width:0.150000005960464px"/></g><g id="CIRCLE-10" data-name="CIRCLE"><path d="M395.605,156.813a.469.469,0,1,1,.469.469.469.469,0,0,1-.469-.469Z" style="fill:none;stroke:#231f20;stroke-linecap:round;stroke-linejoin:round;stroke-width:0.150000005960464px"/></g><g id="CIRCLE-11" data-name="CIRCLE"><path d="M404.043,165.251a.469.469,0,1,1,.469.468.469.469,0,0,1-.469-.468Z" style="fill:none;stroke:#231f20;stroke-linecap:round;stroke-linejoin:round;stroke-width:0.150000005960464px"/></g><g id="CIRCLE-12" data-name="CIRCLE"><path d="M404.043,156.813a.469.469,0,1,1,.469.469.469.469,0,0,1-.469-.469Z" style="fill:none;stroke:#231f20;stroke-linecap:round;stroke-linejoin:round;stroke-width:0.150000005960464px"/></g><g id="LINE-8" data-name="LINE"><line x1="392.791" y1="60.428" x2="391.833" y2="30.428" style="fill:none;stroke:#231f20;stroke-linecap:round;stroke-linejoin:round;stroke-width:0.150000005960464px"/></g><g id="LINE-9" data-name="LINE"><line x1="391.961" y1="34.647" x2="372.965" y2="34.66" style="fill:none;stroke:#231f20;stroke-linecap:round;stroke-linejoin:round;stroke-width:0.150000005960464px"/></g><g id="LINE-10" data-name="LINE"><line x1="373.087" y1="30.441" x2="372.17" y2="60.442" style="fill:none;stroke:#231f20;stroke-linecap:round;stroke-linejoin:round;stroke-width:0.150000005960464px"/></g><g id="ARC-16" data-name="ARC"><path d="M316.725,113.305a1.224,1.224,0,0,0-.982-.938" style="fill:none;stroke:#231f20;stroke-linecap:round;stroke-linejoin:round;stroke-width:0.150000005960464px"/></g><g id="ARC-17" data-name="ARC"><path d="M315.743,137.367a1.223,1.223,0,0,0,.982-.937" style="fill:none;stroke:#231f20;stroke-linecap:round;stroke-linejoin:round;stroke-width:0.150000005960464px"/></g><g id="ARC-18" data-name="ARC"><path d="M315.743,112.367a1.223,1.223,0,0,0,.982-.937" style="fill:none;stroke:#231f20;stroke-linecap:round;stroke-linejoin:round;stroke-width:0.150000005960464px"/></g><g id="ARC-19" data-name="ARC"><path d="M316.725,63.305a1.224,1.224,0,0,0-.982-.938" style="fill:none;stroke:#231f20;stroke-linecap:round;stroke-linejoin:round;stroke-width:0.150000005960464px"/></g><g id="ARC-20" data-name="ARC"><path d="M341.294,113.305a1.224,1.224,0,0,0-.982-.938" style="fill:none;stroke:#231f20;stroke-linecap:round;stroke-linejoin:round;stroke-width:0.150000005960464px"/></g><g id="ARC-21" data-name="ARC"><path d="M340.312,112.367a1.223,1.223,0,0,0,.982-.937" style="fill:none;stroke:#231f20;stroke-linecap:round;stroke-linejoin:round;stroke-width:0.150000005960464px"/></g><g id="ARC-22" data-name="ARC"><path d="M340.312,137.367a1.223,1.223,0,0,0,.982-.937" style="fill:none;stroke:#231f20;stroke-linecap:round;stroke-linejoin:round;stroke-width:0.150000005960464px"/></g><g id="ARC-23" data-name="ARC"><path d="M341.294,63.305a1.224,1.224,0,0,0-.982-.938" style="fill:none;stroke:#231f20;stroke-linecap:round;stroke-linejoin:round;stroke-width:0.150000005960464px"/></g><g id="ARC-24" data-name="ARC"><path d="M315.743,87.367a1.223,1.223,0,0,0,.982-.937" style="fill:none;stroke:#231f20;stroke-linecap:round;stroke-linejoin:round;stroke-width:0.150000005960464px"/></g><g id="ARC-25" data-name="ARC"><path d="M316.725,88.305a1.224,1.224,0,0,0-.982-.938" style="fill:none;stroke:#231f20;stroke-linecap:round;stroke-linejoin:round;stroke-width:0.150000005960464px"/></g><g id="ARC-26" data-name="ARC"><path d="M340.312,87.367a1.223,1.223,0,0,0,.982-.937" style="fill:none;stroke:#231f20;stroke-linecap:round;stroke-linejoin:round;stroke-width:0.150000005960464px"/></g><g id="ARC-27" data-name="ARC"><path d="M341.294,88.305a1.224,1.224,0,0,0-.982-.938" style="fill:none;stroke:#231f20;stroke-linecap:round;stroke-linejoin:round;stroke-width:0.150000005960464px"/></g><g id="CIRCLE-13" data-name="CIRCLE"><path d="M387.168,165.251a.469.469,0,1,1,.469.468.469.469,0,0,1-.469-.468Z" style="fill:none;stroke:#231f20;stroke-linecap:round;stroke-linejoin:round;stroke-width:0.150000005960464px"/></g><g id="CIRCLE-14" data-name="CIRCLE"><path d="M387.168,156.813a.469.469,0,1,1,.469.469.469.469,0,0,1-.469-.469Z" style="fill:none;stroke:#231f20;stroke-linecap:round;stroke-linejoin:round;stroke-width:0.150000005960464px"/></g><g id="CIRCLE-15" data-name="CIRCLE"><path d="M378.73,165.251a.469.469,0,1,1,.469.468.469.469,0,0,1-.469-.468Z" style="fill:none;stroke:#231f20;stroke-linecap:round;stroke-linejoin:round;stroke-width:0.150000005960464px"/></g><g id="CIRCLE-16" data-name="CIRCLE"><path d="M378.73,156.813a.469.469,0,1,1,.469.469.469.469,0,0,1-.469-.469Z" style="fill:none;stroke:#231f20;stroke-linecap:round;stroke-linejoin:round;stroke-width:0.150000005960464px"/></g><g id="CIRCLE-17" data-name="CIRCLE"><path d="M370.293,165.251a.469.469,0,1,1,.469.468.469.469,0,0,1-.469-.468Z" style="fill:none;stroke:#231f20;stroke-linecap:round;stroke-linejoin:round;stroke-width:0.150000005960464px"/></g><g id="CIRCLE-18" data-name="CIRCLE"><path d="M370.293,156.813a.469.469,0,1,1,.469.469.469.469,0,0,1-.469-.469Z" style="fill:none;stroke:#231f20;stroke-linecap:round;stroke-linejoin:round;stroke-width:0.150000005960464px"/></g><g id="CIRCLE-19" data-name="CIRCLE"><path d="M361.855,165.251a.469.469,0,1,1,.469.468.469.469,0,0,1-.469-.468Z" style="fill:none;stroke:#231f20;stroke-linecap:round;stroke-linejoin:round;stroke-width:0.150000005960464px"/></g><g id="CIRCLE-20" data-name="CIRCLE"><path d="M361.855,156.813a.469.469,0,1,1,.469.469.469.469,0,0,1-.469-.469Z" style="fill:none;stroke:#231f20;stroke-linecap:round;stroke-linejoin:round;stroke-width:0.150000005960464px"/></g><g id="CIRCLE-21" data-name="CIRCLE"><path d="M395.605,165.251a.469.469,0,1,1,.469.468.469.469,0,0,1-.469-.468Z" style="fill:none;stroke:#231f20;stroke-linecap:round;stroke-linejoin:round;stroke-width:0.150000005960464px"/></g><g id="CIRCLE-22" data-name="CIRCLE"><path d="M395.605,156.813a.469.469,0,1,1,.469.469.469.469,0,0,1-.469-.469Z" style="fill:none;stroke:#231f20;stroke-linecap:round;stroke-linejoin:round;stroke-width:0.150000005960464px"/></g><g id="CIRCLE-23" data-name="CIRCLE"><path d="M404.043,165.251a.469.469,0,1,1,.469.468.469.469,0,0,1-.469-.468Z" style="fill:none;stroke:#231f20;stroke-linecap:round;stroke-linejoin:round;stroke-width:0.150000005960464px"/></g><g id="CIRCLE-24" data-name="CIRCLE"><path d="M404.043,156.813a.469.469,0,1,1,.469.469.469.469,0,0,1-.469-.469Z" style="fill:none;stroke:#231f20;stroke-linecap:round;stroke-linejoin:round;stroke-width:0.150000005960464px"/></g><g id="LWPOLYLINE-17" data-name="LWPOLYLINE"><rect x="11.743" y="53.079" width="80.625" height="71.25" style="fill:#fff;stroke:#231f20;stroke-linecap:round;stroke-linejoin:round;stroke-width:0.150000005960464px"/></g><g id="LWPOLYLINE-18" data-name="LWPOLYLINE"><rect x="11.743" y="126.321" width="15.937" height="20.156" style="fill:#fff;stroke:#231f20;stroke-linecap:round;stroke-linejoin:round;stroke-width:0.150000005960464px"/></g><g id="LWPOLYLINE-19" data-name="LWPOLYLINE"><rect x="11.743" y="30.931" width="15.937" height="20.156" style="fill:#fff;stroke:#231f20;stroke-linecap:round;stroke-linejoin:round;stroke-width:0.150000005960464px"/></g><g id="LWPOLYLINE-20" data-name="LWPOLYLINE"><rect x="17.097" y="89.978" width="14.683" height="31.809" style="fill:none;stroke:#231f20;stroke-linecap:round;stroke-linejoin:round;stroke-width:0.150000005960464px"/></g><g id="LINE-11" data-name="LINE"><line x1="14.555" y1="53.079" x2="14.555" y2="124.329" style="fill:none;stroke:#231f20;stroke-linecap:round;stroke-linejoin:round;stroke-width:0.150000005960464px"/></g><g id="LINE-12" data-name="LINE"><line x1="89.555" y1="53.079" x2="89.555" y2="124.329" style="fill:none;stroke:#231f20;stroke-linecap:round;stroke-linejoin:round;stroke-width:0.150000005960464px"/></g><g id="LWPOLYLINE-21" data-name="LWPOLYLINE"><rect x="17.097" y="55.621" width="14.683" height="31.809" style="fill:none;stroke:#231f20;stroke-linecap:round;stroke-linejoin:round;stroke-width:0.150000005960464px"/></g><g id="LWPOLYLINE-22" data-name="LWPOLYLINE"><rect x="544.477" y="26.599" width="16.875" height="22.5" style="fill:#fff;stroke:#231f20;stroke-linecap:round;stroke-linejoin:round;stroke-width:0.150000005960464px"/></g><g id="LWPOLYLINE-23" data-name="LWPOLYLINE"><rect x="544.477" y="112.849" width="16.875" height="22.5" style="fill:#fff;stroke:#231f20;stroke-linecap:round;stroke-linejoin:round;stroke-width:0.150000005960464px"/></g><g id="LWPOLYLINE-24" data-name="LWPOLYLINE"><rect x="480.727" y="52.849" width="80.625" height="56.25" style="fill:#fff;stroke:#231f20;stroke-linecap:round;stroke-linejoin:round;stroke-width:0.150000005960464px"/></g><g id="LINE-13" data-name="LINE"><line x1="558.54" y1="52.849" x2="558.54" y2="109.099" style="fill:none;stroke:#231f20;stroke-linecap:round;stroke-linejoin:round;stroke-width:0.150000005960464px"/></g><g id="LINE-14" data-name="LINE"><line x1="483.54" y1="52.849" x2="483.54" y2="109.099" style="fill:none;stroke:#231f20;stroke-linecap:round;stroke-linejoin:round;stroke-width:0.150000005960464px"/></g><g id="LWPOLYLINE-25" data-name="LWPOLYLINE"><rect x="541.315" y="82.247" width="14.683" height="24.309" style="fill:none;stroke:#231f20;stroke-linecap:round;stroke-linejoin:round;stroke-width:0.150000005960464px"/></g><g id="LWPOLYLINE-26" data-name="LWPOLYLINE"><rect x="541.315" y="55.391" width="14.683" height="24.309" style="fill:none;stroke:#231f20;stroke-linecap:round;stroke-linejoin:round;stroke-width:0.150000005960464px"/></g><line x1="34.301" y1="124.329" x2="34.301" y2="53.079" style="fill:none;stroke:#231f20;stroke-linecap:round;stroke-linejoin:round;stroke-width:0.150000005960464px"/><line x1="36.731" y1="124.329" x2="36.731" y2="53.079" style="fill:none;stroke:#231f20;stroke-linecap:round;stroke-linejoin:round;stroke-width:0.150000005960464px"/><g id="LWPOLYLINE-27" data-name="LWPOLYLINE"><path d="M203.927,47.113l-5.575,16.918-5.429-2.1a3.751,3.751,0,0,1-2.212-4.673l3.049-9.251a3.749,3.749,0,0,1,4.556-2.442Z" style="fill:#fff;stroke:#231f20;stroke-linecap:round;stroke-linejoin:round;stroke-width:0.150000005960464px"/></g><g id="LWPOLYLINE-28" data-name="LWPOLYLINE"><path d="M203.927,130.295l-5.575-16.918-5.429,2.095a3.751,3.751,0,0,0-2.212,4.673l3.049,9.251a3.749,3.749,0,0,0,4.556,2.442Z" style="fill:#fff;stroke:#231f20;stroke-linecap:round;stroke-linejoin:round;stroke-width:0.150000005960464px"/></g><g id="LWPOLYLINE-29" data-name="LWPOLYLINE"><path d="M197.452,108.923l-1.536-17.746-5.765.791a3.749,3.749,0,0,0-3.227,4.038l.84,9.7a3.75,3.75,0,0,0,3.872,3.424Z" style="fill:#fff;stroke:#231f20;stroke-linecap:round;stroke-linejoin:round;stroke-width:0.150000005960464px"/></g><g id="LWPOLYLINE-30" data-name="LWPOLYLINE"><path d="M197.452,68.485l-1.536,17.746-5.765-.791a3.749,3.749,0,0,1-3.227-4.038l.84-9.7a3.75,3.75,0,0,1,3.872-3.424Z" style="fill:#fff;stroke:#231f20;stroke-linecap:round;stroke-linejoin:round;stroke-width:0.150000005960464px"/></g><g id="LWPOLYLINE-31" data-name="LWPOLYLINE"><path d="M223.153,47.113l5.575,16.918,5.429-2.1a3.752,3.752,0,0,0,2.212-4.673l-3.049-9.251a3.75,3.75,0,0,0-4.556-2.442Z" style="fill:#fff;stroke:#231f20;stroke-linecap:round;stroke-linejoin:round;stroke-width:0.150000005960464px"/></g><g id="LWPOLYLINE-32" data-name="LWPOLYLINE"><path d="M223.153,130.295l5.575-16.918,5.429,2.095a3.752,3.752,0,0,1,2.212,4.673L233.32,129.4a3.75,3.75,0,0,1-4.556,2.442Z" style="fill:#fff;stroke:#231f20;stroke-linecap:round;stroke-linejoin:round;stroke-width:0.150000005960464px"/></g><g id="LWPOLYLINE-33" data-name="LWPOLYLINE"><path d="M229.628,108.923l1.536-17.746,5.765.791a3.749,3.749,0,0,1,3.227,4.038l-.84,9.7a3.751,3.751,0,0,1-3.873,3.424Z" style="fill:#fff;stroke:#231f20;stroke-linecap:round;stroke-linejoin:round;stroke-width:0.150000005960464px"/></g><g id="LWPOLYLINE-34" data-name="LWPOLYLINE"><path d="M229.628,68.485l1.536,17.746,5.765-.791a3.749,3.749,0,0,0,3.227-4.038l-.84-9.7a3.751,3.751,0,0,0-3.873-3.424Z" style="fill:#fff;stroke:#231f20;stroke-linecap:round;stroke-linejoin:round;stroke-width:0.150000005960464px"/></g><g id="LWPOLYLINE-35" data-name="LWPOLYLINE"><path d="M198.792,62.694l-5.363-2.07a2.344,2.344,0,0,1-1.382-2.92l3.048-9.252a2.345,2.345,0,0,1,2.848-1.526l5.543,1.525" style="fill:none;stroke:#231f20;stroke-linecap:round;stroke-linejoin:round;stroke-width:0.150000005960464px"/></g><g id="LWPOLYLINE-36" data-name="LWPOLYLINE"><path d="M198.792,114.715l-5.363,2.069a2.344,2.344,0,0,0-1.382,2.921l3.048,9.251a2.345,2.345,0,0,0,2.848,1.526l5.543-1.525" style="fill:none;stroke:#231f20;stroke-linecap:round;stroke-linejoin:round;stroke-width:0.150000005960464px"/></g><g id="LWPOLYLINE-37" data-name="LWPOLYLINE"><path d="M196.038,92.58l-5.7.781a2.344,2.344,0,0,0-2.017,2.524l.84,9.7a2.344,2.344,0,0,0,2.42,2.141l5.746-.21" style="fill:none;stroke:#231f20;stroke-linecap:round;stroke-linejoin:round;stroke-width:0.150000005960464px"/></g><g id="LWPOLYLINE-38" data-name="LWPOLYLINE"><path d="M229.913,107.875l5.749.052a2.343,2.343,0,0,0,2.36-2.206L238.6,96a2.345,2.345,0,0,0-2.085-2.468l-5.716-.624" style="fill:none;stroke:#231f20;stroke-linecap:round;stroke-linejoin:round;stroke-width:0.150000005960464px"/></g><g id="LWPOLYLINE-39" data-name="LWPOLYLINE"><path d="M196.038,84.828l-5.7-.781a2.344,2.344,0,0,1-2.017-2.524l.84-9.7a2.343,2.343,0,0,1,2.42-2.14l5.746.209" style="fill:none;stroke:#231f20;stroke-linecap:round;stroke-linejoin:round;stroke-width:0.150000005960464px"/></g><g id="LWPOLYLINE-40" data-name="LWPOLYLINE"><path d="M228.287,62.694l5.364-2.07a2.344,2.344,0,0,0,1.382-2.92l-3.049-9.252a2.344,2.344,0,0,0-2.847-1.526l-5.544,1.525" style="fill:none;stroke:#231f20;stroke-linecap:round;stroke-linejoin:round;stroke-width:0.150000005960464px"/></g><g id="LWPOLYLINE-41" data-name="LWPOLYLINE"><path d="M228.287,114.715l5.364,2.069a2.344,2.344,0,0,1,1.382,2.921l-3.049,9.251a2.344,2.344,0,0,1-2.847,1.526l-5.544-1.525" style="fill:none;stroke:#231f20;stroke-linecap:round;stroke-linejoin:round;stroke-width:0.150000005960464px"/></g><g id="LWPOLYLINE-42" data-name="LWPOLYLINE"><path d="M231.042,84.828l5.7-.781a2.345,2.345,0,0,0,2.017-2.524l-.84-9.7a2.343,2.343,0,0,0-2.42-2.14l-5.746.209" style="fill:none;stroke:#231f20;stroke-linecap:round;stroke-linejoin:round;stroke-width:0.150000005960464px"/></g><g id="ELLIPSE"><path d="M213.54,139.294c10.355,0,18.75-22.65,18.75-50.59s-8.395-50.59-18.75-50.59-18.75,22.65-18.75,50.59,8.4,50.59,18.75,50.59Z" style="fill:#fff;stroke:#231f20;stroke-linecap:round;stroke-linejoin:round;stroke-width:0.150000005960464px"/></g><line x1="538.8" y1="52.849" x2="538.8" y2="109.099" style="fill:none;stroke:#231f20;stroke-linecap:round;stroke-linejoin:round;stroke-width:0.150000005960464px"/><line x1="536.37" y1="52.849" x2="536.37" y2="109.099" style="fill:none;stroke:#231f20;stroke-linecap:round;stroke-linejoin:round;stroke-width:0.150000005960464px"/><g id="LWPOLYLINE-43" data-name="LWPOLYLINE"><polyline points="561.587 17.22 561.587 22.845 449.79 22.845 449.79 17.22" style="fill:none;stroke:#231f20;stroke-linecap:round;stroke-linejoin:round;stroke-width:0.4px"/></g><g id="LINE-17" data-name="LINE"><line x1="480.37" y1="12.532" x2="531.704" y2="12.532" style="fill:none;stroke:#231f20;stroke-linecap:round;stroke-linejoin:round;stroke-width:0.25px"/></g><g id="LINE-18" data-name="LINE"><line x1="535.454" y1="12.532" x2="558.54" y2="12.532" style="fill:none;stroke:#231f20;stroke-linecap:round;stroke-linejoin:round;stroke-width:0.25px"/></g><g id="LINE-19" data-name="LINE"><line x1="476.62" y1="12.532" x2="453.534" y2="12.532" style="fill:none;stroke:#231f20;stroke-linecap:round;stroke-linejoin:round;stroke-width:0.25px"/></g><g id="LWPOLYLINE-44" data-name="LWPOLYLINE"><polyline points="269.79 17.22 269.79 22.845 157.29 22.845 157.29 17.22" style="fill:none;stroke:#231f20;stroke-linecap:round;stroke-linejoin:round;stroke-width:0.4px"/></g><g id="LWPOLYLINE-45" data-name="LWPOLYLINE"><polyline points="416.157 17.22 416.157 22.845 303.657 22.845 303.657 17.22" style="fill:none;stroke:#231f20;stroke-linecap:round;stroke-linejoin:round;stroke-width:0.4px"/></g><g id="LWPOLYLINE-46" data-name="LWPOLYLINE"><polyline points="123.54 17.22 123.54 22.845 11.743 22.845 11.743 17.22" style="fill:none;stroke:#231f20;stroke-linecap:round;stroke-linejoin:round;stroke-width:0.4px"/></g><g id="LWPOLYLINE-47" data-name="LWPOLYLINE"><polygon points="179.321 13.47 178.384 13.47 161.04 13.47 160.102 13.47 160.102 14.7 178.384 14.7 179.321 14.7 179.321 13.47" style="fill:none;stroke:#231f20;stroke-linecap:round;stroke-linejoin:round;stroke-width:0.25px"/></g><g id="LWPOLYLINE-48" data-name="LWPOLYLINE"><polygon points="212.016 13.47 211.313 13.47 181.196 13.47 181.196 14.7 212.004 14.7 212.016 13.47" style="fill:none;stroke:#231f20;stroke-linecap:round;stroke-linejoin:round;stroke-width:0.25px"/></g><g id="LWPOLYLINE-49" data-name="LWPOLYLINE"><polygon points="245.884 13.47 244.946 13.47 215.766 13.47 215.063 13.47 215.063 14.7 245.884 14.7 245.884 13.47" style="fill:none;stroke:#231f20;stroke-linecap:round;stroke-linejoin:round;stroke-width:0.25px"/></g><g id="LWPOLYLINE-50" data-name="LWPOLYLINE"><polygon points="266.977 13.47 266.04 13.47 247.759 13.47 247.759 14.7 266.977 14.7 266.977 13.47" style="fill:none;stroke:#231f20;stroke-linecap:round;stroke-linejoin:round;stroke-width:0.25px"/></g><g id="LWPOLYLINE-51" data-name="LWPOLYLINE"><polygon points="325.688 13.47 324.751 13.47 307.407 13.47 306.47 13.47 306.47 14.7 324.751 14.7 325.688 14.7 325.688 13.47" style="fill:none;stroke:#231f20;stroke-linecap:round;stroke-linejoin:round;stroke-width:0.25px"/></g><g id="LWPOLYLINE-52" data-name="LWPOLYLINE"><polygon points="358.384 13.47 357.68 13.47 327.563 13.47 327.563 14.7 358.371 14.7 358.384 13.47" style="fill:none;stroke:#231f20;stroke-linecap:round;stroke-linejoin:round;stroke-width:0.25px"/></g><g id="LWPOLYLINE-53" data-name="LWPOLYLINE"><polygon points="392.251 13.47 391.313 13.47 362.134 13.47 361.43 13.47 361.43 14.7 392.251 14.7 392.251 13.47" style="fill:none;stroke:#231f20;stroke-linecap:round;stroke-linejoin:round;stroke-width:0.25px"/></g><g id="LWPOLYLINE-54" data-name="LWPOLYLINE"><polygon points="413.345 13.47 412.407 13.47 394.126 13.47 394.126 14.7 413.345 14.7 413.345 13.47" style="fill:none;stroke:#231f20;stroke-linecap:round;stroke-linejoin:round;stroke-width:0.25px"/></g><g id="LWPOLYLINE-55" data-name="LWPOLYLINE"><polygon points="532.179 13.47 479.907 13.47 479.907 14.7 532.166 14.7 532.179 13.47" style="fill:none;stroke:#231f20;stroke-linecap:round;stroke-linejoin:round;stroke-width:0.25px"/></g><g id="LWPOLYLINE-56" data-name="LWPOLYLINE"><polygon points="559.477 13.47 558.54 13.47 534.751 13.47 534.751 14.7 559.477 14.7 559.477 13.47" style="fill:none;stroke:#231f20;stroke-linecap:round;stroke-linejoin:round;stroke-width:0.25px"/></g><g id="LWPOLYLINE-57" data-name="LWPOLYLINE"><polygon points="452.596 13.47 453.534 13.47 477.323 13.47 477.323 14.7 452.596 14.7 452.596 13.47" style="fill:none;stroke:#231f20;stroke-linecap:round;stroke-linejoin:round;stroke-width:0.25px"/></g><g id="LWPOLYLINE-58" data-name="LWPOLYLINE"><polygon points="93.429 13.47 41.157 13.47 41.157 14.7 93.416 14.7 93.429 13.47" style="fill:none;stroke:#231f20;stroke-linecap:round;stroke-linejoin:round;stroke-width:0.25px"/></g><g id="LWPOLYLINE-59" data-name="LWPOLYLINE"><polygon points="120.727 13.47 119.79 13.47 96.001 13.47 96.001 14.7 120.727 14.7 120.727 13.47" style="fill:none;stroke:#231f20;stroke-linecap:round;stroke-linejoin:round;stroke-width:0.25px"/></g><g id="LWPOLYLINE-60" data-name="LWPOLYLINE"><polygon points="13.846 13.47 14.784 13.47 38.573 13.47 38.573 14.7 13.846 14.7 13.846 13.47" style="fill:none;stroke:#231f20;stroke-linecap:round;stroke-linejoin:round;stroke-width:0.25px"/></g><line x1="14.784" y1="17.22" x2="120.453" y2="17.22" style="fill:none;stroke:#231f20;stroke-linecap:round;stroke-linejoin:round;stroke-width:0.25px"/><line x1="161.04" y1="17.22" x2="266.04" y2="17.22" style="fill:none;stroke:#231f20;stroke-linecap:round;stroke-linejoin:round;stroke-width:0.25px"/><line x1="307.407" y1="17.22" x2="412.407" y2="17.22" style="fill:none;stroke:#231f20;stroke-linecap:round;stroke-linejoin:round;stroke-width:0.25px"/><line x1="453.534" y1="17.22" x2="558.54" y2="17.22" style="fill:none;stroke:#231f20;stroke-linecap:round;stroke-linejoin:round;stroke-width:0.25px"/><g id="LWPOLYLINE-61" data-name="LWPOLYLINE"><polyline points="213.071 10.188 214.009 10.188 214.009 12.532 215.766 12.532 215.766 13.47 215.063 13.47 215.063 14.7 215.766 14.7 215.766 17.22 213.891 17.22 213.891 16.751 213.188 16.751 213.188 17.22 211.313 17.22 211.313 14.7 212.004 14.7 212.016 13.47 211.313 13.47 211.313 12.532 213.071 12.532 213.071 10.188" style="fill:none;stroke:#231f20;stroke-miterlimit:10;stroke-width:0.25px"/></g><g id="LWPOLYLINE-62" data-name="LWPOLYLINE"><polygon points="244.946 14.7 245.884 14.7 245.884 13.47 244.946 13.47 244.946 12.532 246.821 12.532 246.821 10.188 247.759 10.188 247.759 12.532 248.696 12.532 248.696 13.47 247.759 13.47 247.759 14.7 248.696 14.7 248.696 15.872 247.876 15.872 247.876 16.751 246.821 16.751 246.821 17.22 244.946 17.22 244.946 14.7" style="fill:none;stroke:#231f20;stroke-miterlimit:10;stroke-width:0.25px"/></g><g id="LWPOLYLINE-63" data-name="LWPOLYLINE"><polygon points="269.79 12.532 268.852 12.532 268.852 8.782 267.915 8.782 267.915 12.532 266.04 12.532 266.04 13.47 266.977 13.47 266.977 14.7 266.04 14.7 266.04 17.22 269.79 17.22 269.79 12.532" style="fill:none;stroke:#231f20;stroke-miterlimit:10;stroke-width:0.25px"/></g><g id="LWPOLYLINE-64" data-name="LWPOLYLINE"><polygon points="161.04 14.7 160.102 14.7 160.102 13.47 161.04 13.47 161.04 12.532 159.165 12.532 159.165 8.782 158.227 8.782 158.227 12.532 157.29 12.532 157.29 17.22 161.04 17.22 161.04 14.7" style="fill:none;stroke:#231f20;stroke-miterlimit:10;stroke-width:0.25px"/></g><g id="LWPOLYLINE-65" data-name="LWPOLYLINE"><polygon points="182.134 14.7 181.196 14.7 181.196 13.47 182.134 13.47 182.134 12.532 180.259 12.532 180.259 10.188 179.321 10.188 179.321 12.532 178.384 12.532 178.384 13.47 179.321 13.47 179.321 14.7 178.384 14.7 178.384 15.872 179.204 15.872 179.204 16.751 180.259 16.751 180.259 17.22 182.134 17.22 182.134 14.7" style="fill:none;stroke:#231f20;stroke-miterlimit:10;stroke-width:0.25px"/></g><g id="LWPOLYLINE-66" data-name="LWPOLYLINE"><polyline points="359.438 10.188 360.376 10.188 360.376 12.532 362.134 12.532 362.134 13.47 361.43 13.47 361.43 14.7 362.134 14.7 362.134 17.22 360.259 17.22 360.259 16.751 359.555 16.751 359.555 17.22 357.68 17.22 357.68 14.7 358.371 14.7 358.384 13.47 357.68 13.47 357.68 12.532 359.438 12.532 359.438 10.188" style="fill:none;stroke:#231f20;stroke-miterlimit:10;stroke-width:0.25px"/></g><g id="LWPOLYLINE-67" data-name="LWPOLYLINE"><polygon points="391.313 14.7 392.251 14.7 392.251 13.47 391.313 13.47 391.313 12.532 393.188 12.532 393.188 10.188 394.126 10.188 394.126 12.532 395.063 12.532 395.063 13.47 394.126 13.47 394.126 14.7 395.063 14.7 395.063 15.872 394.243 15.872 394.243 16.751 393.188 16.751 393.188 17.22 391.313 17.22 391.313 14.7" style="fill:none;stroke:#231f20;stroke-miterlimit:10;stroke-width:0.25px"/></g><g id="LWPOLYLINE-68" data-name="LWPOLYLINE"><polygon points="416.157 12.532 415.22 12.532 415.22 8.782 414.282 8.782 414.282 12.532 412.407 12.532 412.407 13.47 413.345 13.47 413.345 14.7 412.407 14.7 412.407 17.22 416.157 17.22 416.157 12.532" style="fill:none;stroke:#231f20;stroke-miterlimit:10;stroke-width:0.25px"/></g><g id="LWPOLYLINE-69" data-name="LWPOLYLINE"><polygon points="307.407 14.7 306.47 14.7 306.47 13.47 307.407 13.47 307.407 12.532 305.532 12.532 305.532 8.782 304.595 8.782 304.595 12.532 303.657 12.532 303.657 17.22 307.407 17.22 307.407 14.7" style="fill:none;stroke:#231f20;stroke-miterlimit:10;stroke-width:0.25px"/></g><g id="LWPOLYLINE-70" data-name="LWPOLYLINE"><polygon points="328.501 14.7 327.563 14.7 327.563 13.47 328.501 13.47 328.501 12.532 326.626 12.532 326.626 10.188 325.688 10.188 325.688 12.532 324.751 12.532 324.751 13.47 325.688 13.47 325.688 14.7 324.751 14.7 324.751 15.872 325.571 15.872 325.571 16.751 326.626 16.751 326.626 17.22 328.501 17.22 328.501 14.7" style="fill:none;stroke:#231f20;stroke-miterlimit:10;stroke-width:0.25px"/></g><g id="LWPOLYLINE-71" data-name="LWPOLYLINE"><polygon points="535.454 14.7 534.751 14.7 534.751 13.47 535.454 13.47 535.454 12.532 533.696 12.532 533.696 10.188 532.759 10.188 532.759 12.532 531.704 12.532 531.704 13.47 532.173 13.47 532.173 14.7 531.47 14.7 531.47 15.872 532.407 15.872 532.407 16.751 533.579 16.751 533.579 17.22 535.454 17.22 535.454 14.7" style="fill:none;stroke:#231f20;stroke-miterlimit:10;stroke-width:0.25px"/></g><g id="LWPOLYLINE-72" data-name="LWPOLYLINE"><polygon points="562.29 12.532 560.708 12.532 560.708 8.782 559.77 8.782 559.77 12.532 558.54 12.532 558.54 13.47 559.477 13.47 559.477 14.7 558.54 14.7 558.54 17.22 562.29 17.22 562.29 12.532" style="fill:none;stroke:#231f20;stroke-miterlimit:10;stroke-width:0.25px"/></g><g id="LWPOLYLINE-73" data-name="LWPOLYLINE"><polygon points="476.62 14.7 477.323 14.7 477.323 13.47 476.62 13.47 476.62 12.532 478.377 12.532 478.377 10.188 479.315 10.188 479.315 12.532 480.37 12.532 480.37 13.47 479.901 13.47 479.901 14.7 480.604 14.7 480.604 15.872 479.666 15.872 479.666 16.751 478.495 16.751 478.495 17.22 476.62 17.22 476.62 14.7" style="fill:none;stroke:#231f20;stroke-miterlimit:10;stroke-width:0.25px"/></g><g id="LWPOLYLINE-74" data-name="LWPOLYLINE"><polygon points="449.784 12.532 451.372 12.532 451.372 8.782 452.309 8.782 452.309 12.532 453.534 12.532 453.534 13.47 452.596 13.47 452.596 14.7 453.534 14.7 453.534 17.22 449.784 17.22 449.784 12.532" style="fill:none;stroke:#231f20;stroke-miterlimit:10;stroke-width:0.25px"/></g><g id="LWPOLYLINE-75" data-name="LWPOLYLINE"><polygon points="96.704 14.7 96.001 14.7 96.001 13.47 96.704 13.47 96.704 12.532 94.946 12.532 94.946 10.188 94.009 10.188 94.009 12.532 92.954 12.532 92.954 13.47 93.423 13.47 93.423 14.7 92.72 14.7 92.72 15.872 93.657 15.872 93.657 16.751 94.829 16.751 94.829 17.22 96.704 17.22 96.704 14.7" style="fill:none;stroke:#231f20;stroke-miterlimit:10;stroke-width:0.25px"/></g><g id="LWPOLYLINE-76" data-name="LWPOLYLINE"><polygon points="123.54 12.532 121.958 12.532 121.958 8.782 121.02 8.782 121.02 12.532 119.79 12.532 119.79 13.47 120.727 13.47 120.727 14.7 119.79 14.7 119.79 17.22 123.54 17.22 123.54 12.532" style="fill:none;stroke:#231f20;stroke-miterlimit:10;stroke-width:0.25px"/></g><g id="LWPOLYLINE-77" data-name="LWPOLYLINE"><polygon points="37.87 14.7 38.573 14.7 38.573 13.47 37.87 13.47 37.87 12.532 39.627 12.532 39.627 10.188 40.565 10.188 40.565 12.532 41.62 12.532 41.62 13.47 41.151 13.47 41.151 14.7 41.854 14.7 41.854 15.872 40.916 15.872 40.916 16.751 39.745 16.751 39.745 17.22 37.87 17.22 37.87 14.7" style="fill:none;stroke:#231f20;stroke-miterlimit:10;stroke-width:0.25px"/></g><g id="LWPOLYLINE-78" data-name="LWPOLYLINE"><polygon points="11.034 12.532 12.622 12.532 12.622 8.782 13.559 8.782 13.559 12.532 14.784 12.532 14.784 13.47 13.846 13.47 13.846 14.7 14.784 14.7 14.784 17.22 11.034 17.22 11.034 12.532" style="fill:none;stroke:#231f20;stroke-miterlimit:10;stroke-width:0.25px"/></g><g id="LWPOLYLINE-79" data-name="LWPOLYLINE"><polyline points="269.79 17.22 269.79 8.782 157.29 8.782 157.29 17.22" style="fill:none;stroke:#231f20;stroke-linecap:round;stroke-linejoin:round;stroke-width:0.4px"/></g><g id="LWPOLYLINE-80" data-name="LWPOLYLINE"><polyline points="416.157 17.22 416.157 8.782 303.657 8.782 303.657 17.22" style="fill:none;stroke:#231f20;stroke-linecap:round;stroke-linejoin:round;stroke-width:0.4px"/></g><g id="LWPOLYLINE-81" data-name="LWPOLYLINE"><polyline points="562.29 17.22 562.29 8.782 449.79 8.782 449.79 17.22" style="fill:none;stroke:#231f20;stroke-linecap:round;stroke-linejoin:round;stroke-width:0.4px"/></g><g id="LWPOLYLINE-82" data-name="LWPOLYLINE"><polyline points="123.54 17.22 123.54 8.782 11.04 8.782 11.04 17.22" style="fill:none;stroke:#231f20;stroke-linecap:round;stroke-linejoin:round;stroke-width:0.4px"/></g><g id="LWPOLYLINE-83" data-name="LWPOLYLINE"><rect x="501.118" y="167.22" width="1.641" height="33.75" style="fill:none;stroke:#231f20;stroke-linecap:round;stroke-linejoin:round;stroke-width:0.200000002980232px"/></g><g id="LWPOLYLINE-84" data-name="LWPOLYLINE"><rect x="443.317" y="144.5" width="33.75" height="1.641" transform="translate(32.03 367.968) rotate(-45)" style="fill:#fff;stroke:#231f20;stroke-linecap:round;stroke-linejoin:round;stroke-width:0.200000002980232px"/></g><g id="LWPOLYLINE-85" data-name="LWPOLYLINE"><rect x="139.375" y="125.645" width="1.641" height="33.75" transform="translate(-59.714 140.876) rotate(-45)" style="fill:#fff;stroke:#231f20;stroke-linecap:round;stroke-linejoin:round;stroke-width:0.200000002980232px"/></g><g id="LWPOLYLINE-86" data-name="LWPOLYLINE"><rect x="423.331" y="210.594" width="1.641" height="33.75" transform="translate(-36.614 366.545) rotate(-45)" style="fill:none;stroke:#231f20;stroke-linecap:round;stroke-linejoin:round;stroke-width:0.200000002980232px"/></g><g id="LWPOLYLINE-87" data-name="LWPOLYLINE"><rect x="473.477" y="212.815" width="22.483" height="1.641" style="fill:none;stroke:#231f20;stroke-linecap:round;stroke-linejoin:round;stroke-width:0.200000002980232px"/></g><g id="LWPOLYLINE-88" data-name="LWPOLYLINE"><rect x="450.961" y="212.815" width="22.517" height="1.641" style="fill:none;stroke:#231f20;stroke-linecap:round;stroke-linejoin:round;stroke-width:0.200000002980232px"/></g><g id="LWPOLYLINE-89" data-name="LWPOLYLINE"><rect x="342.68" y="210.694" width="33.75" height="1.641" style="fill:#fff;stroke:#231f20;stroke-linecap:round;stroke-linejoin:round;stroke-width:0.200000002980232px"/></g><g id="LWPOLYLINE-90" data-name="LWPOLYLINE"><rect x="64.595" y="160.188" width="33.75" height="1.641" style="fill:none;stroke:#231f20;stroke-linecap:round;stroke-linejoin:round;stroke-width:0.200000002980232px"/></g><g id="LWPOLYLINE-91" data-name="LWPOLYLINE"><rect x="112.055" y="160.188" width="33.75" height="1.641" style="fill:none;stroke:#231f20;stroke-linecap:round;stroke-linejoin:round;stroke-width:0.200000002980232px"/></g><g id="LWPOLYLINE-92" data-name="LWPOLYLINE"><rect x="423.331" y="210.594" width="1.641" height="33.75" transform="translate(-36.614 366.545) rotate(-45)" style="fill:#fff;stroke:#231f20;stroke-linecap:round;stroke-linejoin:round;stroke-width:0.200000002980232px"/></g><g id="ARC-28" data-name="ARC"><path d="M481.43,156.673a33.748,33.748,0,0,0-9.886-23.865" style="fill:none;stroke:#231f20;stroke-linecap:round;stroke-linejoin:round;stroke-width:0.200000002980232px"/></g><g id="ARC-29" data-name="ARC"><path d="M151.548,121.282a33.751,33.751,0,0,0-23.865,9.885" style="fill:none;stroke:#231f20;stroke-linecap:round;stroke-linejoin:round;stroke-width:0.200000002980232px"/></g><g id="ARC-30" data-name="ARC"><path d="M412.8,214.956a33.753,33.753,0,0,0-9.885,23.865" style="fill:none;stroke:#231f20;stroke-linecap:round;stroke-linejoin:round;stroke-width:0.200000002980232px"/></g><g id="ARC-31" data-name="ARC"><path d="M412.8,214.956a33.753,33.753,0,0,0-9.885,23.865" style="fill:none;stroke:#231f20;stroke-linecap:round;stroke-linejoin:round;stroke-width:0.200000002980232px"/></g><g id="LWPOLYLINE-94" data-name="LWPOLYLINE"><rect x="314.672" y="210.694" width="28.008" height="23.85" style="fill:#fff;stroke:#231f20;stroke-linecap:round;stroke-linejoin:round;stroke-width:0.25px"/></g><g id="LWPOLYLINE-95" data-name="LWPOLYLINE"><rect x="167.602" y="163.704" width="22.626" height="24.844" style="fill:#fff;stroke:#231f20;stroke-linecap:round;stroke-linejoin:round;stroke-width:0.25px"/></g><g id="LWPOLYLINE-96" data-name="LWPOLYLINE"><polyline points="190.248 188.548 190.248 210.688 314.813 210.688 314.813 233.665 167.602 233.665 167.602 188.548" style="fill:none;stroke:#231f20;stroke-linecap:round;stroke-linejoin:round;stroke-width:0.25px"/></g><g id="LWPOLYLINE-97" data-name="LWPOLYLINE"><polyline points="234.334 227.55 234.334 214.157 209.223 214.157 209.223 227.55 234.334 227.55" style="fill:none;stroke:#231f20;stroke-linecap:round;stroke-linejoin:round;stroke-width:0.25px"/></g><rect x="218.966" y="228.628" width="3.059" height="1.284" style="fill:#fff;stroke:#231f20;stroke-linecap:round;stroke-linejoin:round;stroke-width:0.25px"/><path d="M222.7,228.754a.889.889,0,0,0-.294-.294v-6.446a.464.464,0,1,0-.928,0v6.446a.889.889,0,1,0,1.222.294Z" style="fill:#fff;stroke:#231f20;stroke-linecap:round;stroke-linejoin:round;stroke-width:0.25px"/><g id="LINE-20" data-name="LINE"><line x1="314.626" y1="220.946" x2="313.626" y2="220.946" style="fill:none;stroke:#231f20;stroke-linecap:round;stroke-linejoin:round;stroke-width:0.25px"/><line x1="311.632" y1="220.946" x2="181.002" y2="220.946" style="fill:none;stroke:#231f20;stroke-linecap:round;stroke-linejoin:round;stroke-width:0.25px;stroke-dasharray:1.9943467378616333,1.9943467378616333"/><polyline points="180.005 220.946 179.005 220.946 179.005 219.946" style="fill:none;stroke:#231f20;stroke-linecap:round;stroke-linejoin:round;stroke-width:0.25px"/><line x1="179.005" y1="217.92" x2="179.005" y2="190.561" style="fill:none;stroke:#231f20;stroke-linecap:round;stroke-linejoin:round;stroke-width:0.25px;stroke-dasharray:2.0265629291534424,2.0265629291534424"/><line x1="179.005" y1="189.548" x2="179.005" y2="188.548" style="fill:none;stroke:#231f20;stroke-linecap:round;stroke-linejoin:round;stroke-width:0.25px"/></g><g id="LWPOLYLINE-98" data-name="LWPOLYLINE"><polyline points="190.408 210.813 190.408 229.912 207.614 229.912 207.614 210.813" style="fill:none;stroke:#231f20;stroke-linecap:round;stroke-linejoin:round;stroke-width:0.25px;stroke-dasharray:2,2"/></g><g id="LWPOLYLINE-99" data-name="LWPOLYLINE"><rect x="1.95" y="163.704" width="36.16" height="69.961" style="fill:none;stroke:#231f20;stroke-linecap:round;stroke-linejoin:round;stroke-width:0.25px"/></g><g id="LWPOLYLINE-100" data-name="LWPOLYLINE"><path d="M21.1,229.27h7.215a4.755,4.755,0,0,0,4.755-4.755V172.092a4.755,4.755,0,0,0-4.755-4.755H13.1a4.755,4.755,0,0,0-4.755,4.755v52.423A4.755,4.755,0,0,0,13.1,229.27h7.215" style="fill:none;stroke:#231f20;stroke-linecap:round;stroke-linejoin:round;stroke-width:0.25px"/></g><g id="ARC-32" data-name="ARC"><path d="M21.285,226.8a3.28,3.28,0,1,0-.789,0" style="fill:none;stroke:#231f20;stroke-linecap:round;stroke-linejoin:round;stroke-width:0.25px"/></g><g id="LWPOLYLINE-101" data-name="LWPOLYLINE"><path d="M20.5,223.54v10.169h.775V223.54a.388.388,0,0,0-.775,0Z" style="fill:none;stroke:#231f20;stroke-linecap:round;stroke-linejoin:round;stroke-width:0.25px"/></g><g id="LWPOLYLINE-102" data-name="LWPOLYLINE"><rect x="520.102" y="205.071" width="35.625" height="33.75" style="fill:none;stroke:#231f20;stroke-linecap:round;stroke-linejoin:round;stroke-width:0.25px"/></g><g id="ARC-33" data-name="ARC"><path d="M549.445,220.608a3.279,3.279,0,1,0,0,.788" style="fill:none;stroke:#231f20;stroke-linecap:round;stroke-linejoin:round;stroke-width:0.25px"/></g><g id="LWPOLYLINE-103" data-name="LWPOLYLINE"><path d="M546.189,221.4h10.168v-.775H546.189a.388.388,0,1,0,0,.775Z" style="fill:none;stroke:#231f20;stroke-linecap:round;stroke-linejoin:round;stroke-width:0.25px"/></g><g id="LWPOLYLINE-104" data-name="LWPOLYLINE"><rect x="521.04" y="204.98" width="33.75" height="0.828" style="fill:#fff;stroke:#231f20;stroke-linecap:round;stroke-linejoin:round;stroke-width:0.25px"/></g><g id="LWPOLYLINE-105" data-name="LWPOLYLINE"><rect x="520.102" y="204.98" width="0.937" height="0.828" style="fill:#fff;stroke:#231f20;stroke-linecap:round;stroke-linejoin:round;stroke-width:0.25px"/></g><g id="LWPOLYLINE-106" data-name="LWPOLYLINE"><rect x="554.79" y="204.98" width="0.937" height="0.828" style="fill:#fff;stroke:#231f20;stroke-linecap:round;stroke-linejoin:round;stroke-width:0.25px"/></g><g id="LWPOLYLINE-107" data-name="LWPOLYLINE"><line x1="447.211" y1="228.04" x2="513.305" y2="228.04" style="fill:none;stroke:#231f20;stroke-linecap:round;stroke-linejoin:round;stroke-width:0.25px;stroke-dasharray:2,2"/></g><g id="LWPOLYLINE-108" data-name="LWPOLYLINE"><polyline points="108.305 208.938 152.837 208.938 152.837 163.704" style="fill:none;stroke:#231f20;stroke-linecap:round;stroke-linejoin:round;stroke-width:0.25px;stroke-dasharray:2,2"/></g><line x1="157.29" y1="0.345" x2="269.79" y2="0.345" style="fill:none;stroke:#231f20;stroke-miterlimit:10;stroke-width:0.4px"/><line x1="11.04" y1="0.345" x2="123.54" y2="0.345" style="fill:none;stroke:#231f20;stroke-miterlimit:10;stroke-width:0.4px"/><g id="LINE-21" data-name="LINE"><line x1="112.252" y1="215.466" x2="112.252" y2="202.411" style="fill:none;stroke:#231f20;stroke-miterlimit:10;stroke-width:0.25px"/></g><g id="LINE-22" data-name="LINE"><line x1="114.671" y1="215.466" x2="114.671" y2="202.411" style="fill:none;stroke:#231f20;stroke-miterlimit:10;stroke-width:0.25px"/></g><g id="LINE-23" data-name="LINE"><line x1="117.09" y1="215.466" x2="117.091" y2="202.411" style="fill:none;stroke:#231f20;stroke-miterlimit:10;stroke-width:0.25px"/></g><g id="LINE-24" data-name="LINE"><line x1="119.51" y1="215.466" x2="119.51" y2="202.411" style="fill:none;stroke:#231f20;stroke-miterlimit:10;stroke-width:0.25px"/></g><g id="LINE-25" data-name="LINE"><line x1="121.929" y1="215.466" x2="121.93" y2="202.411" style="fill:none;stroke:#231f20;stroke-miterlimit:10;stroke-width:0.25px"/></g><g id="LINE-26" data-name="LINE"><line x1="124.348" y1="202.412" x2="124.348" y2="215.466" style="fill:none;stroke:#231f20;stroke-miterlimit:10;stroke-width:0.25px"/></g><g id="LINE-27" data-name="LINE"><line x1="451.157" y1="234.099" x2="451.157" y2="221.044" style="fill:none;stroke:#231f20;stroke-miterlimit:10;stroke-width:0.25px"/></g><g id="LINE-28" data-name="LINE"><line x1="453.576" y1="234.099" x2="453.576" y2="221.044" style="fill:none;stroke:#231f20;stroke-miterlimit:10;stroke-width:0.25px"/></g><g id="LINE-29" data-name="LINE"><line x1="455.996" y1="234.099" x2="455.996" y2="221.044" style="fill:none;stroke:#231f20;stroke-miterlimit:10;stroke-width:0.25px"/></g><g id="LINE-30" data-name="LINE"><line x1="458.415" y1="234.099" x2="458.416" y2="221.044" style="fill:none;stroke:#231f20;stroke-miterlimit:10;stroke-width:0.25px"/></g><g id="LINE-31" data-name="LINE"><line x1="460.834" y1="234.099" x2="460.835" y2="221.044" style="fill:none;stroke:#231f20;stroke-miterlimit:10;stroke-width:0.25px"/></g><g id="LINE-32" data-name="LINE"><line x1="463.254" y1="221.044" x2="463.254" y2="234.099" style="fill:none;stroke:#231f20;stroke-miterlimit:10;stroke-width:0.25px"/></g><g id="LINE-33" data-name="LINE"><line x1="146.309" y1="167.65" x2="159.364" y2="167.65" style="fill:none;stroke:#231f20;stroke-miterlimit:10;stroke-width:0.25px"/></g><g id="LINE-34" data-name="LINE"><line x1="146.309" y1="170.07" x2="159.364" y2="170.07" style="fill:none;stroke:#231f20;stroke-miterlimit:10;stroke-width:0.25px"/></g><g id="LINE-35" data-name="LINE"><line x1="146.309" y1="172.489" x2="159.364" y2="172.49" style="fill:none;stroke:#231f20;stroke-miterlimit:10;stroke-width:0.25px"/></g><g id="LINE-36" data-name="LINE"><line x1="146.309" y1="174.908" x2="159.364" y2="174.909" style="fill:none;stroke:#231f20;stroke-miterlimit:10;stroke-width:0.25px"/></g><g id="LINE-37" data-name="LINE"><line x1="146.309" y1="177.327" x2="159.364" y2="177.328" style="fill:none;stroke:#231f20;stroke-miterlimit:10;stroke-width:0.25px"/></g><g id="LINE-38" data-name="LINE"><line x1="159.364" y1="179.747" x2="146.309" y2="179.747" style="fill:none;stroke:#231f20;stroke-miterlimit:10;stroke-width:0.25px"/></g><g id="LWPOLYLINE-109" data-name="LWPOLYLINE"><rect x="44.575" y="213.37" width="25.51" height="19.588" style="fill:none;stroke:#231f20;stroke-linecap:round;stroke-linejoin:round;stroke-width:0.25px"/></g><g id="LWPOLYLINE-110" data-name="LWPOLYLINE"><path d="M65.073,217.2A1.093,1.093,0,0,0,63.98,216.1h-13.3a1.093,1.093,0,0,0-1.094,1.093v9.839a.911.911,0,0,0,.911.911H64.162a.91.91,0,0,0,.911-.911Z" style="fill:none;stroke:#231f20;stroke-linecap:round;stroke-linejoin:round;stroke-width:0.25px"/></g><g id="ARC-34" data-name="ARC"><path d="M79.959,216.631c-.344,3.124-.994,11.375-.994,11.375" style="fill:none;stroke:#231f20;stroke-linecap:round;stroke-linejoin:round;stroke-width:0.25px"/></g><g id="ARC-35" data-name="ARC"><path d="M91.074,223.873a.831.831,0,0,0,.76-.512q.213-.514.391-1.042a14.618,14.618,0,0,0,.634-2.894q.089-.783.13-1.57a15.416,15.416,0,0,0-.338-4.1,9.987,9.987,0,0,0-3.027-5.238,4.732,4.732,0,0,0-6.444.063,9.985,9.985,0,0,0-2.925,5.3,15.4,15.4,0,0,0-.259,4.11q.057.786.161,1.567a14.533,14.533,0,0,0,.689,2.881q.189.525.412,1.035a.832.832,0,0,0,.769.5Z" style="fill:none;stroke:#231f20;stroke-linecap:round;stroke-linejoin:round;stroke-width:0.25px"/></g><g id="ARC-36" data-name="ARC"><path d="M93,216.505c.405,3.116,1,11.5,1,11.5" style="fill:none;stroke:#231f20;stroke-linecap:round;stroke-linejoin:round;stroke-width:0.25px"/></g><g id="ARC-37" data-name="ARC"><path d="M78.972,227.863a1.085,1.085,0,0,1,.954-1.026,55.324,55.324,0,0,1,13.115,0A1.086,1.086,0,0,1,94,227.863v-.023q.081,1.689.122,3.377a1.448,1.448,0,0,1-1.322,1.471q-3.147.273-6.311.27t-6.31-.27a1.448,1.448,0,0,1-1.322-1.471q.042-1.689.122-3.377Z" style="fill:none;stroke:#231f20;stroke-linecap:round;stroke-linejoin:round;stroke-width:0.25px"/></g><g id="ARC-38" data-name="ARC"><path d="M56.87,229.366a1.148,1.148,0,1,0,.919,0Z" style="fill:none;stroke:#231f20;stroke-linecap:round;stroke-linejoin:round;stroke-width:0.25px"/></g><g id="ARC-39" data-name="ARC"><path d="M51.61,230.648a1.148,1.148,0,1,0,0-.46Z" style="fill:none;stroke:#231f20;stroke-linecap:round;stroke-linejoin:round;stroke-width:0.25px"/></g><g id="ARC-40" data-name="ARC"><path d="M63.048,230.648a1.148,1.148,0,1,1,0-.46Z" style="fill:none;stroke:#231f20;stroke-linecap:round;stroke-linejoin:round;stroke-width:0.25px"/></g><g id="LINE-39" data-name="LINE"><path d="M56.87,224.906v5.512a.46.46,0,1,0,.919,0v-5.512a.46.46,0,1,0-.919,0Z" style="fill:none;stroke:#231f20;stroke-linecap:round;stroke-linejoin:round;stroke-width:0.25px"/></g><line x1="52.747" y1="230.418" x2="49.52" y2="230.418" style="fill:none;stroke:#231f20;stroke-linecap:round;stroke-linejoin:round;stroke-width:0.25px"/><line x1="65.139" y1="230.418" x2="61.912" y2="230.418" style="fill:none;stroke:#231f20;stroke-linecap:round;stroke-linejoin:round;stroke-width:0.25px"/><g id="LWPOLYLINE-111" data-name="LWPOLYLINE"><rect x="564.408" y="173.343" width="20.261" height="26.386" style="fill:none;stroke:#231f20;stroke-linecap:round;stroke-linejoin:round;stroke-width:0.25px"/></g><g id="LWPOLYLINE-112" data-name="LWPOLYLINE"><path d="M568.366,178.526a1.13,1.13,0,0,0-1.131,1.13v13.759a1.131,1.131,0,0,0,1.131,1.131h10.177a.943.943,0,0,0,.943-.943V179.468a.942.942,0,0,0-.943-.942Z" style="fill:none;stroke:#231f20;stroke-linecap:round;stroke-linejoin:round;stroke-width:0.25px"/></g><g id="ARC-41" data-name="ARC"><path d="M567.781,163.128c3.231.357,11.766,1.028,11.766,1.028" style="fill:none;stroke:#231f20;stroke-linecap:round;stroke-linejoin:round;stroke-width:0.25px"/></g><g id="ARC-42" data-name="ARC"><path d="M575.271,151.631a.858.858,0,0,0-.529-.785c-.355-.148-.714-.282-1.078-.405a15.1,15.1,0,0,0-2.993-.655q-.81-.093-1.625-.135a15.933,15.933,0,0,0-4.245.35,10.321,10.321,0,0,0-5.417,3.131,4.894,4.894,0,0,0,.064,6.665,10.321,10.321,0,0,0,5.477,3.025,15.962,15.962,0,0,0,4.252.268q.813-.059,1.621-.166a15.112,15.112,0,0,0,2.98-.713q.542-.2,1.07-.426a.86.86,0,0,0,.514-.8Z" style="fill:none;stroke:#231f20;stroke-linecap:round;stroke-linejoin:round;stroke-width:0.25px"/></g><g id="ARC-43" data-name="ARC"><path d="M567.65,149.64c3.224-.419,11.9-1.037,11.9-1.037" style="fill:none;stroke:#231f20;stroke-linecap:round;stroke-linejoin:round;stroke-width:0.25px"/></g><g id="ARC-44" data-name="ARC"><path d="M579.4,164.149a1.123,1.123,0,0,1-1.061-.986,57.285,57.285,0,0,1,0-13.566,1.125,1.125,0,0,1,1.061-.987l-.023,0q1.746-.084,3.493-.127a1.5,1.5,0,0,1,1.521,1.367q.282,3.256.28,6.528t-.28,6.528a1.5,1.5,0,0,1-1.521,1.367q-1.748-.043-3.493-.127Z" style="fill:none;stroke:#231f20;stroke-linecap:round;stroke-linejoin:round;stroke-width:0.25px"/></g><g id="ARC-45" data-name="ARC"><path d="M580.953,187.011a1.188,1.188,0,1,0,0-.95Z" style="fill:none;stroke:#231f20;stroke-linecap:round;stroke-linejoin:round;stroke-width:0.25px"/></g><g id="ARC-46" data-name="ARC"><path d="M582.279,192.451a1.189,1.189,0,1,0-.475,0Z" style="fill:none;stroke:#231f20;stroke-linecap:round;stroke-linejoin:round;stroke-width:0.25px"/></g><g id="ARC-47" data-name="ARC"><path d="M582.279,180.62a1.189,1.189,0,1,1-.475,0Z" style="fill:none;stroke:#231f20;stroke-linecap:round;stroke-linejoin:round;stroke-width:0.25px"/></g><g id="LINE-40" data-name="LINE"><path d="M576.339,187.011h5.7a.475.475,0,1,0,0-.95h-5.7a.475.475,0,1,0,0,.95Z" style="fill:none;stroke:#231f20;stroke-linecap:round;stroke-linejoin:round;stroke-width:0.25px"/></g><line x1="582.041" y1="191.275" x2="582.041" y2="194.613" style="fill:none;stroke:#231f20;stroke-linecap:round;stroke-linejoin:round;stroke-width:0.25px"/><line x1="582.041" y1="178.458" x2="582.041" y2="181.796" style="fill:none;stroke:#231f20;stroke-linecap:round;stroke-linejoin:round;stroke-width:0.25px"/><g id="LWPOLYLINE-113" data-name="LWPOLYLINE"><polygon points="451.664 251.106 451.664 240.784 563.93 240.784 563.93 214.124 592.055 214.124 592.055 0.758 591.04 2.548 589.424 4.498 587.492 6.136 585.303 7.411 582.925 8.284 580.431 8.727 577.898 8.727 575.404 8.284 573.026 7.411 570.838 6.136 568.906 4.498 567.29 2.548 566.04 0.345 562.29 0.345 562.29 17.22 561.587 17.22 561.587 137.923 499.243 137.923 499.243 156.673 481.43 156.673 481.43 160.188 499.243 160.188 499.243 167.22 502.759 167.22 502.759 141.438 584.79 141.438 584.79 205.071 555.727 205.071 555.727 238.821 520.102 238.821 520.102 205.071 502.759 205.071 502.759 200.97 499.243 200.97 499.243 212.806 495.961 212.806 495.961 216.321 513.305 216.321 513.305 238.821 447.211 238.821 447.211 216.321 450.961 216.321 450.961 212.806 440.414 212.806 440.414 238.821 436.664 238.821 436.664 244.563 439.594 244.563 439.594 250.188 445.336 250.188 445.336 251.106 448.089 251.106 451.664 251.106" style="fill:#e1e5e5;stroke:#231f20;stroke-miterlimit:10;stroke-width:0.4px"/></g><g id="LWPOLYLINE-114" data-name="LWPOLYLINE"><polygon points="444.148 160.188 447.68 160.188 447.68 156.673 443.93 156.673 443.93 22.845 449.79 22.845 449.79 0.345 446.04 0.345 444.79 2.548 443.174 4.498 441.242 6.136 439.053 7.411 436.675 8.284 434.181 8.727 431.648 8.727 429.154 8.284 426.776 7.411 424.588 6.136 422.656 4.498 421.04 2.548 419.79 0.345 416.04 0.345 416.04 22.845 440.414 22.845 440.414 160.188 444.148 160.188" style="fill:#e1e5e5;stroke:#231f20;stroke-miterlimit:10;stroke-width:0.4px"/></g><g id="LWPOLYLINE-115" data-name="LWPOLYLINE"><polygon points="151.548 121.282 157.29 121.282 157.29 0.345 153.54 0.345 152.29 2.548 150.674 4.498 148.742 6.136 146.553 7.411 144.175 8.284 141.681 8.727 139.148 8.727 136.654 8.284 134.276 7.411 132.088 6.136 130.156 4.498 128.54 2.548 127.29 0.345 123.54 0.345 123.54 22.845 151.548 22.845 151.548 75.421 151.548 121.282" style="fill:#e1e5e5;stroke:#231f20;stroke-miterlimit:10;stroke-width:0.4px"/></g><g id="LWPOLYLINE-116" data-name="LWPOLYLINE"><polygon points="296.156 53.899 303.657 53.899 303.657 0.345 299.79 0.345 298.54 2.548 296.924 4.498 294.992 6.136 292.803 7.411 290.425 8.284 287.931 8.727 285.398 8.727 282.904 8.284 280.526 7.411 278.338 6.136 276.406 4.498 274.79 2.548 273.54 0.345 269.79 0.345 269.79 17.22 269.673 17.22 269.673 53.899 296.156 53.899" style="fill:#e1e5e5;stroke:#231f20;stroke-miterlimit:10;stroke-width:0.4px"/></g><polygon points="386.039 238.821 386.039 210.227 376.43 210.227 376.43 238.821 342.562 238.821 342.562 233.665 167.602 233.665 167.602 163.704 191.04 163.704 191.04 160.188 157.29 160.188 157.29 155.032 151.548 155.032 151.548 160.188 145.805 160.188 145.805 163.704 164.087 163.704 164.087 220.188 108.305 220.188 108.305 163.704 112.055 163.704 112.055 160.188 98.345 160.188 98.345 163.704 104.79 163.704 104.79 233.079 3.071 233.079 3.071 163.704 64.595 163.704 64.595 160.188 11.743 160.188 11.743 17.22 11.04 17.22 11.04 0.345 0.2 0.345 0.2 241.311 344.789 241.311 344.789 247.616 344.789 248.269 344.789 250.188 344.789 303.194 378.359 303.194 378.359 250.188 388.969 250.188 388.969 244.563 402.914 244.563 402.914 238.821 386.039 238.821" style="fill:#e1e5e5;stroke:#231f20;stroke-miterlimit:10;stroke-width:0.4px"/><path d="M48.124,74.669H49l1.816,4.446h.015l1.816-4.446h.879v5.6h-.664V75.725H52.85l-1.887,4.541h-.28L48.8,75.725h-.015v4.541h-.657Z" style="fill:#231f20"/><path d="M58.468,79.139H55.949l-.391,1.127h-.68l2.015-5.6h.639l2.007,5.6H58.86Zm-.2-.576-1.047-2.99H57.2l-1.047,2.99Z" style="fill:#231f20"/><path d="M60.427,78.411l.655-.111a1.465,1.465,0,0,0,1.656,1.462c.775,0,1.287-.359,1.287-.9,0-.568-.376-.879-1.543-1.247-1.335-.44-1.784-.832-1.784-1.583,0-.872.736-1.479,1.792-1.479a1.955,1.955,0,0,1,2.031,1.63l-.648.137a1.342,1.342,0,0,0-1.391-1.144c-.68,0-1.127.336-1.127.856,0,.431.319.663,1.343.983,1.455.472,1.983.959,1.983,1.839,0,.911-.792,1.535-1.951,1.535A2.054,2.054,0,0,1,60.427,78.411Z" style="fill:#231f20"/><path d="M67.466,75.293H65.723v-.624h4.149v.624H68.129v4.973h-.663Z" style="fill:#231f20"/><path d="M71.344,74.669H74.7v.624H72v1.791h2.479v.592H72v1.967h2.7v.623H71.344Z" style="fill:#231f20"/><path d="M78.8,77.964l1.232,2.3h-.776L78.071,78h-1.12v2.271H76.3v-5.6h2.039c1.168,0,1.864.624,1.864,1.655a1.544,1.544,0,0,1-1.4,1.623Zm-.519-.592c.823,0,1.254-.36,1.254-1.048s-.423-1.031-1.254-1.031H76.951v2.079Z" style="fill:#231f20"/><path d="M45.61,83.169h2.151a1.457,1.457,0,0,1,1.631,1.447,1.2,1.2,0,0,1-.655,1.152v.016a1.341,1.341,0,0,1,.863,1.327c0,1.08-.68,1.655-1.967,1.655H45.61Zm2.031,2.375c.727,0,1.088-.3,1.088-.895,0-.56-.368-.856-1.088-.856H46.266v1.751Zm-.1,2.6c.976,0,1.391-.312,1.391-1.032,0-.7-.392-.983-1.375-.983h-1.3v2.015Z" style="fill:#231f20"/><path d="M51.234,83.169h3.358v.624h-2.7v1.791h2.478v.592H51.89v1.967h2.7v.623H51.234Z" style="fill:#231f20"/><path d="M56.185,83.169h1.743c1.415,0,2.415,1.024,2.415,2.791,0,1.975-1,2.806-2.463,2.806h-1.7Zm1.655,4.974c1.136,0,1.839-.6,1.839-2.183,0-1.431-.7-2.167-1.791-2.167H56.841v4.35Z" style="fill:#231f20"/><path d="M64.476,86.464l1.23,2.3h-.775L63.748,86.5h-1.12v2.271h-.655v-5.6h2.039c1.167,0,1.862.624,1.862,1.655a1.543,1.543,0,0,1-1.4,1.623Zm-.521-.592c.825,0,1.256-.36,1.256-1.048s-.424-1.031-1.256-1.031H62.628v2.079Z" style="fill:#231f20"/><path d="M67.138,85.968c0-1.751.943-2.918,2.359-2.918s2.359,1.167,2.359,2.918-.944,2.918-2.359,2.918S67.138,87.719,67.138,85.968Zm4.054,0c0-1.416-.648-2.3-1.695-2.3s-1.695.879-1.695,2.3.647,2.294,1.695,2.294S71.192,87.383,71.192,85.968Z" style="fill:#231f20"/><path d="M73.2,85.968c0-1.751.944-2.918,2.36-2.918s2.358,1.167,2.358,2.918-.943,2.918-2.358,2.918S73.2,87.719,73.2,85.968Zm4.054,0c0-1.416-.647-2.3-1.694-2.3s-1.7.879-1.7,2.3.647,2.294,1.7,2.294S77.252,87.383,77.252,85.968Z" style="fill:#231f20"/><path d="M79.546,83.169h.88l1.815,4.446h.016l1.816-4.446h.878v5.6h-.663V84.225h-.016l-1.887,4.541h-.28l-1.887-4.541H80.2v4.541h-.656Z" style="fill:#231f20"/><path d="M39.823,92.421l-1.248.808v-.7l1.328-.864h.584v5.6h-.664Z" style="fill:#231f20"/><path d="M42.948,96.643h3.015v.623H42.245v-.528a2.018,2.018,0,0,1,.232-1.063c.2-.368.544-.64,1.423-1.095,1.16-.6,1.5-.936,1.5-1.5,0-.536-.489-.912-1.168-.912a1.3,1.3,0,0,0-1.4,1.359l-.663-.056a1.927,1.927,0,0,1,2.063-1.926,1.68,1.68,0,0,1,1.831,1.535c0,.823-.416,1.311-1.648,1.935-.934.471-1.19.655-1.335.935A1.559,1.559,0,0,0,42.948,96.643Z" style="fill:#231f20"/><path d="M47.785,91.669h.584v1.783h-.584Z" style="fill:#231f20"/><path d="M49.506,94.076h2.087v.6H49.506Z" style="fill:#231f20"/><path d="M52.865,95.787l.648-.16a1.413,1.413,0,1,0,1.432-1.583,1.806,1.806,0,0,0-1.352.592l-.584-.144.536-2.823H56.48v.624H54.049l-.3,1.551.017.008a2.086,2.086,0,0,1,1.287-.384A1.879,1.879,0,0,1,56.991,95.4a1.928,1.928,0,0,1-2.046,1.991A1.956,1.956,0,0,1,52.865,95.787Z" style="fill:#231f20"/><path d="M58.244,91.669h.584v1.783h-.584Zm1.056,0h.584v1.783H59.3Z" style="fill:#231f20"/><path d="M63.581,95.827l1.311-1.3-1.311-1.3.392-.392,1.287,1.311,1.3-1.311.393.392-1.312,1.3,1.312,1.3-.393.392-1.3-1.312-1.287,1.312Z" style="fill:#231f20"/><path d="M71.124,92.421l-1.247.808v-.7l1.327-.864h.584v5.6h-.664Z" style="fill:#231f20"/><path d="M74.25,96.643h3.014v.623H73.546v-.528a2.008,2.008,0,0,1,.233-1.063c.2-.368.543-.64,1.422-1.095,1.16-.6,1.5-.936,1.5-1.5,0-.536-.488-.912-1.167-.912a1.3,1.3,0,0,0-1.4,1.359l-.664-.056A1.928,1.928,0,0,1,75.53,91.55a1.68,1.68,0,0,1,1.831,1.535c0,.823-.416,1.311-1.648,1.935-.935.471-1.191.655-1.335.935A1.559,1.559,0,0,0,74.25,96.643Z" style="fill:#231f20"/><path d="M79.087,91.669h.584v1.783h-.584Z" style="fill:#231f20"/><path d="M81.084,94.076h2.087v.6H81.084Z" style="fill:#231f20"/><path d="M84.326,95.707a1.566,1.566,0,0,1,1.048-1.5v-.016a1.246,1.246,0,0,1-.736-1.167,1.787,1.787,0,0,1,3.518,0,1.262,1.262,0,0,1-.735,1.167V94.2a1.569,1.569,0,0,1,1.039,1.5c0,1.008-.815,1.679-2.062,1.679S84.326,96.715,84.326,95.707Zm3.455-.04c0-.672-.537-1.1-1.383-1.1s-1.392.431-1.392,1.1.535,1.08,1.392,1.08S87.781,96.331,87.781,95.667ZM87.5,93.061c0-.544-.447-.912-1.1-.912s-1.1.368-1.1.912.44.879,1.1.879S87.5,93.6,87.5,93.061Z" style="fill:#231f20"/><path d="M89.892,91.669h.584v1.783h-.584Zm1.056,0h.583v1.783h-.583Z" style="fill:#231f20"/><path d="M472.342,115.685h2.151a1.457,1.457,0,0,1,1.631,1.447,1.194,1.194,0,0,1-.655,1.151v.017a1.339,1.339,0,0,1,.863,1.327c0,1.079-.679,1.655-1.967,1.655h-2.023Zm2.031,2.375c.728,0,1.088-.3,1.088-.9,0-.559-.368-.855-1.088-.855H473v1.751Zm-.095,2.6c.975,0,1.39-.312,1.39-1.031,0-.7-.391-.984-1.375-.984H473v2.015Z" style="fill:#231f20"/><path d="M477.966,115.685h3.358v.624h-2.7V118.1H481.1v.592h-2.479v1.966h2.7v.624h-3.358Z" style="fill:#231f20"/><path d="M482.917,115.685h1.743c1.415,0,2.415,1.023,2.415,2.79,0,1.975-1,2.807-2.462,2.807h-1.7Zm1.656,4.973c1.135,0,1.838-.6,1.838-2.183,0-1.431-.7-2.166-1.791-2.166h-1.047v4.349Z" style="fill:#231f20"/><path d="M491.208,118.979l1.231,2.3h-.776l-1.182-2.271h-1.12v2.271h-.656v-5.6h2.039c1.167,0,1.863.624,1.863,1.655a1.544,1.544,0,0,1-1.4,1.623Zm-.52-.592c.824,0,1.256-.359,1.256-1.047s-.424-1.031-1.256-1.031h-1.327v2.078Z" style="fill:#231f20"/><path d="M493.87,118.484c0-1.751.944-2.919,2.36-2.919s2.358,1.168,2.358,2.919-.943,2.918-2.358,2.918S493.87,120.235,493.87,118.484Zm4.054,0c0-1.416-.647-2.3-1.694-2.3s-1.7.879-1.7,2.3.648,2.294,1.7,2.294S497.924,119.9,497.924,118.484Z" style="fill:#231f20"/><path d="M499.931,118.484c0-1.751.943-2.919,2.359-2.919s2.359,1.168,2.359,2.919-.944,2.918-2.359,2.918S499.931,120.235,499.931,118.484Zm4.054,0c0-1.416-.648-2.3-1.695-2.3s-1.695.879-1.695,2.3.647,2.294,1.695,2.294S503.985,119.9,503.985,118.484Z" style="fill:#231f20"/><path d="M506.279,115.685h.879l1.816,4.446h.016l1.815-4.446h.879v5.6h-.663V116.74H511l-1.887,4.542h-.28l-1.887-4.542h-.015v4.542h-.656Z" style="fill:#231f20"/><path d="M516.718,120.658h3.015v.624h-3.718v-.528a2.019,2.019,0,0,1,.231-1.063c.2-.368.544-.64,1.423-1.1,1.16-.6,1.5-.935,1.5-1.5,0-.535-.488-.911-1.168-.911a1.3,1.3,0,0,0-1.4,1.359l-.663-.056A1.926,1.926,0,0,1,518,115.565a1.68,1.68,0,0,1,1.831,1.535c0,.824-.416,1.311-1.647,1.935-.935.472-1.191.656-1.335.936A1.554,1.554,0,0,0,516.718,120.658Z" style="fill:#231f20"/><path d="M470.182,124.937l-1.247.807v-.695l1.327-.864h.584v5.6h-.664Z" style="fill:#231f20"/><path d="M472.505,126.984c0-1.815.9-2.919,2.215-2.919s2.215,1.1,2.215,2.919-.9,2.918-2.215,2.918S472.505,128.8,472.505,126.984Zm3.766,0c0-1.464-.615-2.3-1.551-2.3s-1.552.831-1.552,2.3.616,2.294,1.552,2.294S476.271,128.446,476.271,126.984Z" style="fill:#231f20"/><path d="M478.47,124.185h.584v1.783h-.584Z" style="fill:#231f20"/><path d="M480.191,126.592h2.087v.6h-2.087Z" style="fill:#231f20"/><path d="M483.55,128.3l.648-.16a1.413,1.413,0,1,0,1.431-1.583,1.8,1.8,0,0,0-1.351.592l-.584-.144.536-2.823h2.934v.624h-2.43l-.305,1.551.017.008a2.084,2.084,0,0,1,1.287-.384,1.879,1.879,0,0,1,1.943,1.927,1.93,1.93,0,0,1-2.047,1.991A1.957,1.957,0,0,1,483.55,128.3Z" style="fill:#231f20"/><path d="M488.929,124.185h.584v1.783h-.584Zm1.056,0h.584v1.783h-.584Z" style="fill:#231f20"/><path d="M494.265,128.343l1.311-1.295-1.311-1.3.391-.391,1.289,1.311,1.3-1.311.391.391-1.311,1.3,1.311,1.295-.391.392-1.3-1.312-1.289,1.312Z" style="fill:#231f20"/><path d="M501.809,124.937l-1.248.807v-.695l1.327-.864h.584v5.6h-.663Z" style="fill:#231f20"/><path d="M504.132,126.984c0-1.815.9-2.919,2.215-2.919s2.215,1.1,2.215,2.919-.905,2.918-2.215,2.918S504.132,128.8,504.132,126.984Zm3.766,0c0-1.464-.616-2.3-1.551-2.3s-1.552.831-1.552,2.3.616,2.294,1.552,2.294S507.9,128.446,507.9,126.984Z" style="fill:#231f20"/><path d="M510.1,124.185h.584v1.783H510.1Z" style="fill:#231f20"/><path d="M512.1,126.592h2.087v.6H512.1Z" style="fill:#231f20"/><path d="M515.336,128.223a1.569,1.569,0,0,1,1.048-1.5V126.7a1.245,1.245,0,0,1-.735-1.168,1.787,1.787,0,0,1,3.517,0,1.261,1.261,0,0,1-.735,1.168v.015a1.571,1.571,0,0,1,1.039,1.5c0,1.007-.815,1.679-2.063,1.679S515.336,129.23,515.336,128.223Zm3.454-.04c0-.672-.535-1.1-1.383-1.1s-1.391.432-1.391,1.1.536,1.079,1.391,1.079S518.79,128.846,518.79,128.183Zm-.279-2.607c0-.544-.448-.911-1.1-.911s-1.1.367-1.1.911.439.88,1.1.88S518.511,126.112,518.511,125.576Z" style="fill:#231f20"/><path d="M520.9,124.185h.584v1.783H520.9Zm1.055,0h.583v1.783h-.583Z" style="fill:#231f20"/><path d="M199.747,140.88h.656v4.974h2.526v.623h-3.182Z" style="fill:#231f20"/><path d="M204.4,140.88h.655v5.6H204.4Z" style="fill:#231f20"/><path d="M206.391,140.88h.7l1.663,4.718h.016l1.671-4.718h.688l-2.015,5.6h-.7Z" style="fill:#231f20"/><path d="M212.472,140.88h.656v5.6h-.656Z" style="fill:#231f20"/><path d="M215.039,140.88h.776l2.543,4.566h.016V140.88h.663v5.6h-.783l-2.543-4.565H215.7v4.565h-.656Z" style="fill:#231f20"/><path d="M220.668,143.679c0-1.775.927-2.919,2.358-2.919a2.076,2.076,0,0,1,2.127,1.848l-.655.119a1.43,1.43,0,0,0-1.472-1.343c-1.047,0-1.7.879-1.7,2.3s.648,2.294,1.7,2.294a1.427,1.427,0,0,0,1.5-1.639H223.1v-.623h2.071v.568a2.086,2.086,0,0,1-2.143,2.318C221.6,146.6,220.668,145.454,220.668,143.679Z" style="fill:#231f20"/><path d="M228.78,146.6l2.855-6.036.447.2-2.862,6.021Z" style="fill:#231f20"/><path d="M236.019,140.88h1.743c1.415,0,2.415,1.024,2.415,2.791,0,1.975-1,2.806-2.462,2.806h-1.7Zm1.656,4.974c1.135,0,1.838-.6,1.838-2.183,0-1.432-.7-2.167-1.791-2.167h-1.047v4.35Z" style="fill:#231f20"/><path d="M241.817,140.88h.655v5.6h-.655Z" style="fill:#231f20"/><path d="M244.384,140.88h.776l2.542,4.566h.017V140.88h.663v5.6H247.6l-2.542-4.565h-.016v4.565h-.656Z" style="fill:#231f20"/><path d="M250.306,140.88h.656v5.6h-.656Z" style="fill:#231f20"/><path d="M252.873,140.88h.776l2.543,4.566h.016V140.88h.663v5.6h-.783l-2.543-4.565h-.016v4.565h-.656Z" style="fill:#231f20"/><path d="M258.5,143.679c0-1.775.927-2.919,2.358-2.919a2.076,2.076,0,0,1,2.127,1.848l-.655.119a1.43,1.43,0,0,0-1.472-1.343c-1.047,0-1.695.879-1.695,2.3s.648,2.294,1.695,2.294a1.427,1.427,0,0,0,1.5-1.639h-1.424v-.623H263v.568a2.086,2.086,0,0,1-2.143,2.318C259.429,146.6,258.5,145.454,258.5,143.679Z" style="fill:#231f20"/><path d="M269.677,144.175l1.23,2.3h-.775l-1.183-2.271h-1.12v2.271h-.655v-5.6h2.039c1.167,0,1.862.624,1.862,1.655a1.543,1.543,0,0,1-1.4,1.623Zm-.521-.592c.824,0,1.256-.36,1.256-1.048s-.424-1.031-1.256-1.031h-1.327v2.079Z" style="fill:#231f20"/><path d="M272.339,143.679c0-1.751.943-2.919,2.358-2.919s2.359,1.168,2.359,2.919-.943,2.918-2.359,2.918S272.339,145.43,272.339,143.679Zm4.053,0c0-1.416-.647-2.3-1.695-2.3s-1.695.879-1.695,2.3.648,2.294,1.695,2.294S276.392,145.094,276.392,143.679Z" style="fill:#231f20"/><path d="M278.4,143.679c0-1.751.944-2.919,2.359-2.919s2.358,1.168,2.358,2.919-.943,2.918-2.358,2.918S278.4,145.43,278.4,143.679Zm4.054,0c0-1.416-.648-2.3-1.695-2.3s-1.695.879-1.695,2.3.647,2.294,1.695,2.294S282.453,145.094,282.453,143.679Z" style="fill:#231f20"/><path d="M284.747,140.88h.88l1.815,4.446h.015l1.815-4.446h.88v5.6h-.663v-4.541h-.017l-1.887,4.541h-.28l-1.886-4.541H285.4v4.541h-.656Z" style="fill:#231f20"/><path d="M218.4,154.354h3.014v.623h-3.718v-.528a2.018,2.018,0,0,1,.232-1.063c.2-.368.544-.64,1.423-1.095,1.16-.6,1.5-.936,1.5-1.5,0-.536-.488-.912-1.168-.912a1.3,1.3,0,0,0-1.4,1.359l-.664-.056a1.927,1.927,0,0,1,2.063-1.927,1.68,1.68,0,0,1,1.831,1.536c0,.823-.416,1.311-1.647,1.935-.935.471-1.191.655-1.335.935A1.559,1.559,0,0,0,218.4,154.354Z" style="fill:#231f20"/><path d="M222.706,153.5l.647-.16a1.413,1.413,0,1,0,1.432-1.583,1.808,1.808,0,0,0-1.352.592l-.583-.144.535-2.823h2.935V150h-2.431l-.3,1.551.016.008a2.088,2.088,0,0,1,1.287-.384,1.879,1.879,0,0,1,1.944,1.927,1.929,1.929,0,0,1-2.047,1.991A1.956,1.956,0,0,1,222.706,153.5Z" style="fill:#231f20"/><path d="M228.085,149.38h.584v1.783h-.584Z" style="fill:#231f20"/><path d="M229.805,151.787h2.087v.6h-2.087Z" style="fill:#231f20"/><path d="M233.882,154.354H236.9v.623h-3.718v-.528a2.018,2.018,0,0,1,.232-1.063c.2-.368.544-.64,1.423-1.095,1.16-.6,1.5-.936,1.5-1.5,0-.536-.488-.912-1.168-.912a1.3,1.3,0,0,0-1.4,1.359l-.664-.056a1.928,1.928,0,0,1,2.063-1.927,1.68,1.68,0,0,1,1.831,1.536c0,.823-.416,1.311-1.647,1.935-.935.471-1.191.655-1.335.935A1.559,1.559,0,0,0,233.882,154.354Z" style="fill:#231f20"/><path d="M238.714,149.38h.584v1.783h-.584Zm1.056,0h.583v1.783h-.583Z" style="fill:#231f20"/><path d="M244.05,153.538l1.311-1.3-1.311-1.3.392-.391,1.287,1.311,1.295-1.311.392.391-1.311,1.3,1.311,1.3-.392.392-1.295-1.312-1.287,1.312Z" style="fill:#231f20"/><path d="M251.594,150.132l-1.248.808v-.7l1.327-.864h.584v5.6h-.663Z" style="fill:#231f20"/><path d="M254.719,154.354h3.014v.623h-3.718v-.528a2.018,2.018,0,0,1,.232-1.063c.2-.368.544-.64,1.423-1.095,1.16-.6,1.5-.936,1.5-1.5,0-.536-.488-.912-1.168-.912a1.3,1.3,0,0,0-1.4,1.359l-.664-.056A1.928,1.928,0,0,1,256,149.26a1.68,1.68,0,0,1,1.831,1.536c0,.823-.416,1.311-1.647,1.935-.935.471-1.191.655-1.335.935A1.559,1.559,0,0,0,254.719,154.354Z" style="fill:#231f20"/><path d="M259.556,149.38h.583v1.783h-.583Z" style="fill:#231f20"/><path d="M261.553,151.787h2.087v.6h-2.087Z" style="fill:#231f20"/><path d="M264.8,153.418a1.566,1.566,0,0,1,1.048-1.5V151.9a1.246,1.246,0,0,1-.736-1.167,1.787,1.787,0,0,1,3.518,0,1.261,1.261,0,0,1-.736,1.167v.016a1.569,1.569,0,0,1,1.04,1.5c0,1.007-.815,1.679-2.063,1.679S264.8,154.425,264.8,153.418Zm3.454-.04c0-.672-.535-1.1-1.383-1.1s-1.391.431-1.391,1.1.535,1.08,1.391,1.08S268.249,154.042,268.249,153.378Zm-.28-2.606c0-.544-.447-.912-1.1-.912s-1.1.368-1.1.912.439.879,1.1.879S267.969,151.307,267.969,150.772Z" style="fill:#231f20"/><path d="M270.361,149.38h.584v1.783h-.584Zm1.056,0H272v1.783h-.583Z" style="fill:#231f20"/><path d="M398.808,198.829h3.366v.624h-2.711v2h2.487v.591h-2.487v2.383h-.655Z" style="fill:#231f20"/><path d="M403.729,201.628c0-1.751.943-2.919,2.358-2.919s2.359,1.168,2.359,2.919-.944,2.918-2.359,2.918S403.729,203.379,403.729,201.628Zm4.053,0c0-1.416-.647-2.295-1.695-2.295s-1.695.879-1.695,2.295.647,2.294,1.695,2.294S407.782,203.043,407.782,201.628Z" style="fill:#231f20"/><path d="M411.436,202.092l-1.959-3.263h.767l1.511,2.615h.017l1.518-2.615h.768l-1.959,3.263v2.334h-.663Z" style="fill:#231f20"/><path d="M415.7,198.829h3.359v.624h-2.7v1.791h2.478v.592H416.36V203.8h2.7v.623H415.7Z" style="fill:#231f20"/><path d="M423.479,202.123l1.23,2.3h-.775l-1.184-2.271h-1.119v2.271h-.655v-5.6h2.039c1.167,0,1.862.624,1.862,1.656a1.545,1.545,0,0,1-1.4,1.623Zm-.521-.592c.824,0,1.256-.359,1.256-1.046s-.424-1.032-1.256-1.032h-1.327v2.078Z" style="fill:#231f20"/><path d="M350.266,222.226h.679l.824,4.55h.015l1.384-4.55h.623l1.392,4.55h.015l.825-4.55h.678l-1.039,5.6h-.8l-1.375-4.493h-.016l-1.367,4.493H351.3Z" style="fill:#231f20"/><path d="M357.64,227.943l2.854-6.037.448.2-2.863,6.02Z" style="fill:#231f20"/><path d="M362.634,222.226h1.743c1.415,0,2.414,1.023,2.414,2.79,0,1.975-1,2.806-2.462,2.806h-1.695Zm1.655,4.973c1.135,0,1.839-.6,1.839-2.183,0-1.431-.7-2.166-1.791-2.166h-1.048V227.2Z" style="fill:#231f20"/><path d="M168.626,175.024h.679l.824,4.549h.016l1.384-4.549h.623l1.391,4.549h.016l.824-4.549h.679l-1.039,5.6h-.8l-1.375-4.493h-.016l-1.367,4.493h-.808Z" style="fill:#231f20"/><path d="M175.4,180.74l2.855-6.036.447.2-2.862,6.02Z" style="fill:#231f20"/><path d="M179.244,178.766l.656-.112a1.463,1.463,0,0,0,1.655,1.462c.775,0,1.287-.359,1.287-.9,0-.567-.376-.879-1.543-1.247-1.335-.439-1.783-.831-1.783-1.583,0-.872.735-1.479,1.791-1.479a1.955,1.955,0,0,1,2.031,1.63l-.648.137a1.341,1.341,0,0,0-1.391-1.143c-.68,0-1.127.335-1.127.855,0,.432.319.663,1.343.983,1.455.472,1.983.959,1.983,1.839,0,.911-.792,1.535-1.951,1.535A2.053,2.053,0,0,1,179.244,178.766Z" style="fill:#231f20"/><path d="M184.463,177.822c0-1.751.943-2.918,2.359-2.918s2.358,1.167,2.358,2.918-.943,2.918-2.358,2.918S184.463,179.573,184.463,177.822Zm4.053,0c0-1.416-.647-2.294-1.694-2.294s-1.7.878-1.7,2.294.648,2.294,1.7,2.294S188.516,179.237,188.516,177.822Z" style="fill:#231f20"/><path d="M328.965,223.323l1.232,2.3h-.776l-1.183-2.27h-1.12v2.27h-.656v-5.6H328.5c1.168,0,1.864.625,1.864,1.656a1.546,1.546,0,0,1-1.4,1.623Zm-.519-.591c.823,0,1.254-.36,1.254-1.047s-.423-1.031-1.254-1.031h-1.328v2.078Z" style="fill:#231f20"/><path d="M193.272,217.482h1.743c1.415,0,2.414,1.023,2.414,2.791,0,1.974-1,2.806-2.462,2.806h-1.7Zm1.655,4.973c1.135,0,1.839-.6,1.839-2.182,0-1.432-.7-2.167-1.791-2.167h-1.048v4.349Z" style="fill:#231f20"/><path d="M198.837,217.482h.679l.824,4.549h.016l1.384-4.549h.623l1.391,4.549h.016l.824-4.549h.679l-1.039,5.6h-.8l-1.375-4.494h-.016l-1.367,4.494h-.808Z" style="fill:#231f20"/><polygon points="413.675 259.914 419.075 245.514 424.475 259.914 413.675 259.914" style="fill:#231f20"/><rect x="263.57" y="208.602" width="20.045" height="28.123" rx="0.857" transform="translate(50.929 496.256) rotate(-90)" style="fill:none;stroke:#221f1f;stroke-linecap:round;stroke-linejoin:round;stroke-width:0.25px"/><path d="M261.5,224.073a.786.786,0,1,1,.786.786h-.011a.775.775,0,0,1-.775-.775Z" style="fill:none;stroke:#221f1f;stroke-linecap:round;stroke-linejoin:round;stroke-width:0.25px"/><path d="M261.5,221.255a.786.786,0,1,1,.786.786h-.011A.787.787,0,0,1,261.5,221.255Z" style="fill:none;stroke:#221f1f;stroke-linecap:round;stroke-linejoin:round;stroke-width:0.25px"/><path d="M261.5,215.618a.786.786,0,1,1,.8.774.081.081,0,0,1-.022,0A.774.774,0,0,1,261.5,215.618Z" style="fill:none;stroke:#221f1f;stroke-linecap:round;stroke-linejoin:round;stroke-width:0.25px"/><path d="M261.5,218.442a.786.786,0,1,1,.8.775h-.022A.775.775,0,0,1,261.5,218.442Z" style="fill:none;stroke:#221f1f;stroke-linecap:round;stroke-linejoin:round;stroke-width:0.25px"/><line x1="281.759" y1="232.199" x2="281.759" y2="229.69" style="fill:none;stroke:#211e1f;stroke-linecap:round;stroke-linejoin:round;stroke-width:0.25px"/><line x1="281.759" y1="225.175" x2="281.759" y2="222.665" style="fill:none;stroke:#211e1f;stroke-linecap:round;stroke-linejoin:round;stroke-width:0.25px"/><line x1="279.673" y1="226.334" x2="276.364" y2="224.457" style="fill:none;stroke:#211e1f;stroke-linecap:round;stroke-linejoin:round;stroke-width:0.25px"/><line x1="279.673" y1="228.529" x2="276.364" y2="230.405" style="fill:none;stroke:#211e1f;stroke-linecap:round;stroke-linejoin:round;stroke-width:0.25px"/><line x1="283.764" y1="226.334" x2="287.072" y2="224.457" style="fill:none;stroke:#211e1f;stroke-linecap:round;stroke-linejoin:round;stroke-width:0.25px"/><line x1="283.764" y1="228.529" x2="287.072" y2="230.405" style="fill:none;stroke:#211e1f;stroke-linecap:round;stroke-linejoin:round;stroke-width:0.25px"/><ellipse cx="281.759" cy="227.431" rx="0.864" ry="0.846" style="fill:none;stroke:#211e1f;stroke-linecap:round;stroke-linejoin:round;stroke-width:0.25px"/><line x1="281.759" y1="222.664" x2="281.759" y2="220.154" style="fill:none;stroke:#211e1f;stroke-linecap:round;stroke-linejoin:round;stroke-width:0.25px"/><line x1="281.759" y1="215.639" x2="281.759" y2="213.129" style="fill:none;stroke:#211e1f;stroke-linecap:round;stroke-linejoin:round;stroke-width:0.25px"/><line x1="279.673" y1="216.798" x2="276.364" y2="214.921" style="fill:none;stroke:#211e1f;stroke-linecap:round;stroke-linejoin:round;stroke-width:0.25px"/><line x1="279.673" y1="218.993" x2="276.364" y2="220.87" style="fill:none;stroke:#211e1f;stroke-linecap:round;stroke-linejoin:round;stroke-width:0.25px"/><line x1="283.764" y1="216.798" x2="287.072" y2="214.921" style="fill:none;stroke:#211e1f;stroke-linecap:round;stroke-linejoin:round;stroke-width:0.25px"/><line x1="283.764" y1="218.993" x2="287.072" y2="220.87" style="fill:none;stroke:#211e1f;stroke-linecap:round;stroke-linejoin:round;stroke-width:0.25px"/><ellipse cx="281.759" cy="217.896" rx="0.864" ry="0.846" style="fill:none;stroke:#211e1f;stroke-linecap:round;stroke-linejoin:round;stroke-width:0.25px"/><line x1="270.195" y1="222.664" x2="270.195" y2="220.154" style="fill:none;stroke:#211e1f;stroke-linecap:round;stroke-linejoin:round;stroke-width:0.25px"/><line x1="270.195" y1="215.639" x2="270.195" y2="213.129" style="fill:none;stroke:#211e1f;stroke-linecap:round;stroke-linejoin:round;stroke-width:0.25px"/><line x1="268.109" y1="216.798" x2="264.801" y2="214.921" style="fill:none;stroke:#211e1f;stroke-linecap:round;stroke-linejoin:round;stroke-width:0.25px"/><line x1="268.109" y1="218.993" x2="264.801" y2="220.87" style="fill:none;stroke:#211e1f;stroke-linecap:round;stroke-linejoin:round;stroke-width:0.25px"/><line x1="272.2" y1="216.798" x2="275.509" y2="214.921" style="fill:none;stroke:#211e1f;stroke-linecap:round;stroke-linejoin:round;stroke-width:0.25px"/><line x1="272.2" y1="218.993" x2="275.509" y2="220.87" style="fill:none;stroke:#211e1f;stroke-linecap:round;stroke-linejoin:round;stroke-width:0.25px"/><ellipse cx="270.195" cy="217.896" rx="0.864" ry="0.846" style="fill:none;stroke:#211e1f;stroke-linecap:round;stroke-linejoin:round;stroke-width:0.25px"/><line x1="270.195" y1="232.198" x2="270.195" y2="229.689" style="fill:none;stroke:#211e1f;stroke-linecap:round;stroke-linejoin:round;stroke-width:0.25px"/><line x1="270.195" y1="225.173" x2="270.195" y2="222.664" style="fill:none;stroke:#211e1f;stroke-linecap:round;stroke-linejoin:round;stroke-width:0.25px"/><line x1="268.109" y1="226.332" x2="264.801" y2="224.456" style="fill:none;stroke:#211e1f;stroke-linecap:round;stroke-linejoin:round;stroke-width:0.25px"/><line x1="268.109" y1="228.527" x2="264.801" y2="230.404" style="fill:none;stroke:#211e1f;stroke-linecap:round;stroke-linejoin:round;stroke-width:0.25px"/><line x1="272.2" y1="226.332" x2="275.509" y2="224.456" style="fill:none;stroke:#211e1f;stroke-linecap:round;stroke-linejoin:round;stroke-width:0.25px"/><line x1="272.2" y1="228.527" x2="275.509" y2="230.404" style="fill:none;stroke:#211e1f;stroke-linecap:round;stroke-linejoin:round;stroke-width:0.25px"/><ellipse cx="270.195" cy="227.43" rx="0.864" ry="0.846" style="fill:none;stroke:#211e1f;stroke-linecap:round;stroke-linejoin:round;stroke-width:0.25px"/><path d="M275.526,222.663H264.865a.063.063,0,0,0-.064.062v8.724a.758.758,0,0,0,.766.75h9.256a.758.758,0,0,0,.767-.75v-8.724a.063.063,0,0,0-.064-.062" style="fill:none;stroke:#211e1f;stroke-linecap:round;stroke-linejoin:round;stroke-width:0.25px"/><path d="M275.526,222.665H264.865a.063.063,0,0,1-.064-.062v-8.725a.758.758,0,0,1,.766-.75h9.256a.759.759,0,0,1,.767.75V222.6a.063.063,0,0,1-.064.062" style="fill:none;stroke:#211e1f;stroke-linecap:round;stroke-linejoin:round;stroke-width:0.25px"/><path d="M287.008,222.663H276.347a.063.063,0,0,0-.064.062v8.724a.758.758,0,0,0,.766.75h9.257a.758.758,0,0,0,.766-.75v-8.724a.063.063,0,0,0-.064-.062" style="fill:none;stroke:#211e1f;stroke-linecap:round;stroke-linejoin:round;stroke-width:0.25px"/><path d="M287.008,222.665H276.347a.063.063,0,0,1-.064-.062v-8.725a.758.758,0,0,1,.766-.75h9.257a.758.758,0,0,1,.766.75V222.6a.063.063,0,0,1-.064.062" style="fill:none;stroke:#211e1f;stroke-linecap:round;stroke-linejoin:round;stroke-width:0.25px"/></g></g></svg>