<svg xmlns="http://www.w3.org/2000/svg" viewBox="0 0 395.498 576.034"><title>nfp_Unit18-22A_x</title><g id="Layer_2" data-name="Layer 2"><g id="Unit18-22A_Rest"><g id="LWPOLYLINE"><rect x="199.878" y="76.536" width="98.425" height="121.76" style="fill:#fff;stroke:#231f20;stroke-linecap:round;stroke-linejoin:round;stroke-width:0.15px"/></g><g id="LWPOLYLINE-2" data-name="LWPOLYLINE"><rect x="22.817" y="74.47" width="112.288" height="107.68" style="fill:#fff;stroke:#231f20;stroke-linecap:round;stroke-linejoin:round;stroke-width:0.15px"/></g><g id="LWPOLYLINE-3" data-name="LWPOLYLINE"><rect x="22.817" y="93.481" width="80.625" height="71.25" style="fill:none;stroke:#231f20;stroke-linecap:round;stroke-linejoin:round;stroke-width:0.150000005960464px"/></g><g id="LWPOLYLINE-4" data-name="LWPOLYLINE"><rect x="170.726" y="96.403" width="15" height="63.814" style="fill:#fff;stroke:#231f20;stroke-linecap:round;stroke-linejoin:round;stroke-width:0.150000005960464px"/></g><g id="LWPOLYLINE-5" data-name="LWPOLYLINE"><rect x="27.973" y="517.118" width="16.875" height="22.5" style="fill:#fff;stroke:#231f20;stroke-linecap:round;stroke-linejoin:round;stroke-width:0.150000005960464px"/></g><g id="LWPOLYLINE-6" data-name="LWPOLYLINE"><rect x="27.973" y="430.868" width="16.875" height="22.5" style="fill:#fff;stroke:#231f20;stroke-linecap:round;stroke-linejoin:round;stroke-width:0.150000005960464px"/></g><g id="LWPOLYLINE-7" data-name="LWPOLYLINE"><rect x="27.973" y="457.118" width="80.625" height="56.25" style="fill:#fff;stroke:#231f20;stroke-linecap:round;stroke-linejoin:round;stroke-width:0.150000005960464px"/></g><g id="LWPOLYLINE-8" data-name="LWPOLYLINE"><rect x="149.256" y="448.891" width="15" height="41.016" style="fill:#fff;stroke:#231f20;stroke-linecap:round;stroke-linejoin:round;stroke-width:0.150000005960464px"/></g><g id="LWPOLYLINE-9" data-name="LWPOLYLINE"><polygon points="152.043 186.644 153.435 184.787 153.139 184.565 152.822 184.074 152.9 183.495 153.914 181.839 154.731 180.492 155.488 179.351 156.527 177.866 157.514 176.539 157.908 176.003 158.247 175.586 158.675 175.049 159.164 174.451 160.333 173.076 161.462 171.819 162.375 170.85 162.909 170.613 163.469 170.78 163.765 171.001 165.536 168.638 183.711 182.257 170.219 200.263 152.043 186.644" style="fill:#fff;stroke:#231f20;stroke-linecap:round;stroke-linejoin:round;stroke-width:0.150000005960464px"/></g><g id="LWPOLYLINE-10" data-name="LWPOLYLINE"><polygon points="304.817 70.777 304.817 172.027 271.067 172.027 271.067 106.089 244.876 106.089 244.876 70.777 304.817 70.777" style="fill:#fff;stroke:#231f20;stroke-linecap:round;stroke-linejoin:round;stroke-width:0.150000005960464px"/></g><g id="LWPOLYLINE-11" data-name="LWPOLYLINE"><rect x="274.106" y="174.795" width="17.698" height="18.436" style="fill:none;stroke:#231f20;stroke-linecap:round;stroke-linejoin:round;stroke-width:0.150000005960464px"/></g><g id="LWPOLYLINE-12" data-name="LWPOLYLINE"><path d="M268.824,273.475a11.974,11.974,0,0,0,0,18.059l.924-1.061h10.9V274.536h-10.9Z" style="fill:#fff;stroke:#231f20;stroke-linecap:round;stroke-linejoin:round;stroke-width:0.150000005960464px"/></g><g id="LWPOLYLINE-13" data-name="LWPOLYLINE"><path d="M268.824,250.975a11.974,11.974,0,0,0,0,18.059l.924-1.061h10.9V252.036h-10.9Z" style="fill:#fff;stroke:#231f20;stroke-linecap:round;stroke-linejoin:round;stroke-width:0.150000005960464px"/></g><path d="M289.555,81.057s-5.273-6.856-7.934-5.565,7.24,10.459,7.24,10.459,3.9,3.984,4.644,1.994S289.555,81.057,289.555,81.057Z" style="fill:#fff;stroke:#231f20;stroke-miterlimit:10;stroke-width:0.150000005960464px"/><path d="M287.806,93.03s4.369,7.078,6.289,5.764-3.557-9.441-3.557-9.441-3.833-7.574-5.707-5.536S287.806,93.03,287.806,93.03Z" style="fill:#fff;stroke:#231f20;stroke-miterlimit:10;stroke-width:0.150000005960464px"/><path d="M293.581,150.964s-3.617.744-5.2,8.339-1.116,7.676-.31,8.009,4.2-2.243,5.221-9.2S294.838,151.279,293.581,150.964Z" style="fill:#fff;stroke:#231f20;stroke-miterlimit:10;stroke-width:0.150000005960464px"/><g id="LWPOLYLINE-14" data-name="LWPOLYLINE"><rect x="190.952" y="105.152" width="15" height="56.25" style="fill:#fff;stroke:#231f20;stroke-linecap:round;stroke-linejoin:round;stroke-width:0.150000005960464px"/></g><rect x="172.077" y="131.764" width="44.903" height="1.758" transform="translate(61.886 327.171) rotate(-90)" style="fill:#fff;stroke:#231f20;stroke-linecap:round;stroke-linejoin:round;stroke-width:0.150000005960464px"/><rect x="178.92" y="412.391" width="25.313" height="27.891" style="fill:#fff"/><g id="LWPOLYLINE-15" data-name="LWPOLYLINE"><rect x="22.817" y="166.531" width="15.937" height="20.156" style="fill:#fff;stroke:#231f20;stroke-linecap:round;stroke-linejoin:round;stroke-width:0.150000005960464px"/></g><g id="LWPOLYLINE-16" data-name="LWPOLYLINE"><rect x="22.817" y="71.14" width="15.937" height="20.156" style="fill:#fff;stroke:#231f20;stroke-linecap:round;stroke-linejoin:round;stroke-width:0.150000005960464px"/></g><g id="LWPOLYLINE-17" data-name="LWPOLYLINE"><rect x="28.172" y="130.38" width="14.683" height="31.809" style="fill:none;stroke:#231f20;stroke-linecap:round;stroke-linejoin:round;stroke-width:0.150000005960464px"/></g><g id="LINE"><line x1="25.63" y1="93.481" x2="25.63" y2="164.731" style="fill:none;stroke:#231f20;stroke-linecap:round;stroke-linejoin:round;stroke-width:0.150000005960464px"/></g><g id="LINE-2" data-name="LINE"><line x1="100.63" y1="93.481" x2="100.63" y2="164.731" style="fill:none;stroke:#231f20;stroke-linecap:round;stroke-linejoin:round;stroke-width:0.150000005960464px"/></g><g id="LWPOLYLINE-18" data-name="LWPOLYLINE"><rect x="28.172" y="96.023" width="14.683" height="31.809" style="fill:none;stroke:#231f20;stroke-linecap:round;stroke-linejoin:round;stroke-width:0.150000005960464px"/></g><g id="LINE-3" data-name="LINE"><line x1="30.786" y1="513.368" x2="30.786" y2="457.118" style="fill:none;stroke:#231f20;stroke-linecap:round;stroke-linejoin:round;stroke-width:0.150000005960464px"/></g><g id="LINE-4" data-name="LINE"><line x1="105.786" y1="513.368" x2="105.786" y2="457.118" style="fill:none;stroke:#231f20;stroke-linecap:round;stroke-linejoin:round;stroke-width:0.150000005960464px"/></g><g id="LWPOLYLINE-19" data-name="LWPOLYLINE"><rect x="33.328" y="459.661" width="14.683" height="24.309" style="fill:none;stroke:#231f20;stroke-linecap:round;stroke-linejoin:round;stroke-width:0.150000005960464px"/></g><g id="LWPOLYLINE-20" data-name="LWPOLYLINE"><rect x="33.328" y="486.517" width="14.683" height="24.309" style="fill:none;stroke:#231f20;stroke-linecap:round;stroke-linejoin:round;stroke-width:0.150000005960464px"/></g><g id="LINE-5" data-name="LINE"><line x1="181.94" y1="184.621" x2="164.103" y2="171.254" style="fill:none;stroke:#231f20;stroke-linecap:round;stroke-linejoin:round;stroke-width:0.150000005960464px"/></g><g id="LINE-6" data-name="LINE"><line x1="153.435" y1="184.787" x2="171.61" y2="198.406" style="fill:none;stroke:#231f20;stroke-linecap:round;stroke-linejoin:round;stroke-width:0.150000005960464px"/></g><g id="ARC"><path d="M177.889,181.585a40.153,40.153,0,0,0-10.33,13.785" style="fill:none;stroke:#231f20;stroke-linecap:round;stroke-linejoin:round;stroke-width:0.150000005960464px"/></g><g id="ARC-2" data-name="ARC"><path d="M180.59,183.609a101.183,101.183,0,0,0-10.331,13.785" style="fill:none;stroke:#231f20;stroke-linecap:round;stroke-linejoin:round;stroke-width:0.150000005960464px"/></g><g id="LINE-7" data-name="LINE"><line x1="300.13" y1="136.715" x2="272.049" y2="136.715" style="fill:none;stroke:#231f20;stroke-linecap:round;stroke-linejoin:round;stroke-width:0.150000005960464px"/></g><g id="LWPOLYLINE-21" data-name="LWPOLYLINE"><polyline points="267.01 70.777 267.01 75.464 300.13 75.464 300.13 167.34 271.067 167.34" style="fill:none;stroke:#231f20;stroke-linecap:round;stroke-linejoin:round;stroke-width:0.150000005960464px"/></g><g id="ARC-3" data-name="ARC"><path d="M295.636,137.652a91.738,91.738,0,0,0,0,28.75" style="fill:none;stroke:#231f20;stroke-linecap:round;stroke-linejoin:round;stroke-width:0.150000005960464px"/></g><g id="ARC-4" data-name="ARC"><path d="M296.618,136.715a1.223,1.223,0,0,0-.982.937" style="fill:none;stroke:#231f20;stroke-linecap:round;stroke-linejoin:round;stroke-width:0.150000005960464px"/></g><g id="ARC-5" data-name="ARC"><path d="M295.636,166.4a1.226,1.226,0,0,0,.982.938" style="fill:none;stroke:#231f20;stroke-linecap:round;stroke-linejoin:round;stroke-width:0.150000005960464px"/></g><g id="ARC-6" data-name="ARC"><path d="M272.049,136.715a1.224,1.224,0,0,0-.982.937" style="fill:none;stroke:#231f20;stroke-linecap:round;stroke-linejoin:round;stroke-width:0.150000005960464px"/></g><g id="ARC-7" data-name="ARC"><path d="M271.067,135.777a1.227,1.227,0,0,0,.982.938" style="fill:none;stroke:#231f20;stroke-linecap:round;stroke-linejoin:round;stroke-width:0.150000005960464px"/></g><g id="ARC-8" data-name="ARC"><path d="M271.067,166.4a1.227,1.227,0,0,0,.982.938" style="fill:none;stroke:#231f20;stroke-linecap:round;stroke-linejoin:round;stroke-width:0.150000005960464px"/></g><g id="LINE-8" data-name="LINE"><line x1="300.13" y1="106.089" x2="271.067" y2="106.089" style="fill:none;stroke:#231f20;stroke-linecap:round;stroke-linejoin:round;stroke-width:0.150000005960464px"/></g><g id="ARC-9" data-name="ARC"><path d="M295.636,107.027a91.738,91.738,0,0,0,0,28.75" style="fill:none;stroke:#231f20;stroke-linecap:round;stroke-linejoin:round;stroke-width:0.150000005960464px"/></g><g id="ARC-10" data-name="ARC"><path d="M296.618,106.089a1.226,1.226,0,0,0-.982.938" style="fill:none;stroke:#231f20;stroke-linecap:round;stroke-linejoin:round;stroke-width:0.150000005960464px"/></g><g id="ARC-11" data-name="ARC"><path d="M295.636,135.777a1.226,1.226,0,0,0,.982.938" style="fill:none;stroke:#231f20;stroke-linecap:round;stroke-linejoin:round;stroke-width:0.150000005960464px"/></g><g id="ARC-12" data-name="ARC"><path d="M296.618,106.089a1.226,1.226,0,0,0-.982.938" style="fill:none;stroke:#231f20;stroke-linecap:round;stroke-linejoin:round;stroke-width:0.150000005960464px"/></g><g id="ARC-13" data-name="ARC"><path d="M295.636,76.4a91.738,91.738,0,0,0,0,28.75" style="fill:none;stroke:#231f20;stroke-linecap:round;stroke-linejoin:round;stroke-width:0.150000005960464px"/></g><g id="ARC-14" data-name="ARC"><path d="M296.618,75.464a1.226,1.226,0,0,0-.982.938" style="fill:none;stroke:#231f20;stroke-linecap:round;stroke-linejoin:round;stroke-width:0.150000005960464px"/></g><g id="ARC-15" data-name="ARC"><path d="M295.636,105.152a1.223,1.223,0,0,0,.982.937" style="fill:none;stroke:#231f20;stroke-linecap:round;stroke-linejoin:round;stroke-width:0.150000005960464px"/></g><g id="LWPOLYLINE-22" data-name="LWPOLYLINE"><line x1="268.072" y1="276.387" x2="280.652" y2="276.387" style="fill:none;stroke:#231f20;stroke-linecap:round;stroke-linejoin:round;stroke-width:0.150000005960464px"/></g><g id="LWPOLYLINE-23" data-name="LWPOLYLINE"><line x1="268.072" y1="288.622" x2="280.652" y2="288.622" style="fill:none;stroke:#231f20;stroke-linecap:round;stroke-linejoin:round;stroke-width:0.150000005960464px"/></g><g id="LWPOLYLINE-24" data-name="LWPOLYLINE"><path d="M269.748,290.473a10.562,10.562,0,0,1,0-15.937" style="fill:none;stroke:#231f20;stroke-linecap:round;stroke-linejoin:round;stroke-width:0.150000005960464px"/></g><g id="LWPOLYLINE-25" data-name="LWPOLYLINE"><line x1="268.072" y1="253.887" x2="280.652" y2="253.887" style="fill:none;stroke:#231f20;stroke-linecap:round;stroke-linejoin:round;stroke-width:0.150000005960464px"/></g><g id="LWPOLYLINE-26" data-name="LWPOLYLINE"><line x1="268.072" y1="266.122" x2="280.652" y2="266.122" style="fill:none;stroke:#231f20;stroke-linecap:round;stroke-linejoin:round;stroke-width:0.150000005960464px"/></g><g id="LWPOLYLINE-27" data-name="LWPOLYLINE"><path d="M269.748,267.973a10.562,10.562,0,0,1,0-15.937" style="fill:none;stroke:#231f20;stroke-linecap:round;stroke-linejoin:round;stroke-width:0.150000005960464px"/></g><g id="LINE-9" data-name="LINE"><line x1="25.63" y1="93.481" x2="25.63" y2="164.731" style="fill:none;stroke:#231f20;stroke-linecap:round;stroke-linejoin:round;stroke-width:0.150000005960464px"/></g><g id="ARC-16" data-name="ARC"><path d="M295.636,137.652a91.738,91.738,0,0,0,0,28.75" style="fill:none;stroke:#231f20;stroke-linecap:round;stroke-linejoin:round;stroke-width:0.150000005960464px"/></g><g id="ARC-17" data-name="ARC"><path d="M296.618,136.715a1.223,1.223,0,0,0-.982.937" style="fill:none;stroke:#231f20;stroke-linecap:round;stroke-linejoin:round;stroke-width:0.150000005960464px"/></g><g id="ARC-18" data-name="ARC"><path d="M295.636,166.4a1.226,1.226,0,0,0,.982.938" style="fill:none;stroke:#231f20;stroke-linecap:round;stroke-linejoin:round;stroke-width:0.150000005960464px"/></g><g id="ARC-19" data-name="ARC"><path d="M272.049,136.715a1.224,1.224,0,0,0-.982.937" style="fill:none;stroke:#231f20;stroke-linecap:round;stroke-linejoin:round;stroke-width:0.150000005960464px"/></g><g id="ARC-20" data-name="ARC"><path d="M271.067,135.777a1.227,1.227,0,0,0,.982.938" style="fill:none;stroke:#231f20;stroke-linecap:round;stroke-linejoin:round;stroke-width:0.150000005960464px"/></g><g id="ARC-21" data-name="ARC"><path d="M271.067,166.4a1.227,1.227,0,0,0,.982.938" style="fill:none;stroke:#231f20;stroke-linecap:round;stroke-linejoin:round;stroke-width:0.150000005960464px"/></g><g id="ARC-22" data-name="ARC"><path d="M295.636,107.027a91.738,91.738,0,0,0,0,28.75" style="fill:none;stroke:#231f20;stroke-linecap:round;stroke-linejoin:round;stroke-width:0.150000005960464px"/></g><g id="ARC-23" data-name="ARC"><path d="M296.618,106.089a1.226,1.226,0,0,0-.982.938" style="fill:none;stroke:#231f20;stroke-linecap:round;stroke-linejoin:round;stroke-width:0.150000005960464px"/></g><g id="ARC-24" data-name="ARC"><path d="M295.636,135.777a1.226,1.226,0,0,0,.982.938" style="fill:none;stroke:#231f20;stroke-linecap:round;stroke-linejoin:round;stroke-width:0.150000005960464px"/></g><g id="ARC-25" data-name="ARC"><path d="M296.618,106.089a1.226,1.226,0,0,0-.982.938" style="fill:none;stroke:#231f20;stroke-linecap:round;stroke-linejoin:round;stroke-width:0.150000005960464px"/></g><g id="ARC-26" data-name="ARC"><path d="M295.636,76.4a91.738,91.738,0,0,0,0,28.75" style="fill:none;stroke:#231f20;stroke-linecap:round;stroke-linejoin:round;stroke-width:0.150000005960464px"/></g><g id="ARC-27" data-name="ARC"><path d="M296.618,75.464a1.226,1.226,0,0,0-.982.938" style="fill:none;stroke:#231f20;stroke-linecap:round;stroke-linejoin:round;stroke-width:0.150000005960464px"/></g><g id="ARC-28" data-name="ARC"><path d="M295.636,105.152a1.223,1.223,0,0,0,.982.937" style="fill:none;stroke:#231f20;stroke-linecap:round;stroke-linejoin:round;stroke-width:0.150000005960464px"/></g><g id="LWPOLYLINE-28" data-name="LWPOLYLINE"><path d="M361.25,98.4H343.438l.29-5.812a3.75,3.75,0,0,1,3.746-3.563h9.74a3.75,3.75,0,0,1,3.746,3.563Z" style="fill:#fff;stroke:#231f20;stroke-linecap:round;stroke-linejoin:round;stroke-width:0.150000005960464px"/></g><g id="LWPOLYLINE-29" data-name="LWPOLYLINE"><path d="M361.25,159.816H343.438l.29,5.812a3.75,3.75,0,0,0,3.746,3.563h9.74a3.75,3.75,0,0,0,3.746-3.563Z" style="fill:#fff;stroke:#231f20;stroke-linecap:round;stroke-linejoin:round;stroke-width:0.150000005960464px"/></g><g id="LWPOLYLINE-30" data-name="LWPOLYLINE"><path d="M344.846,98.4l.287-5.742a2.343,2.343,0,0,1,2.341-2.227h9.74a2.343,2.343,0,0,1,2.341,2.227l.287,5.742" style="fill:none;stroke:#231f20;stroke-linecap:round;stroke-linejoin:round;stroke-width:0.150000005960464px"/></g><g id="LWPOLYLINE-31" data-name="LWPOLYLINE"><path d="M364.888,120.012v17.813l5.812-.291a3.75,3.75,0,0,0,3.563-3.745v-9.741A3.75,3.75,0,0,0,370.7,120.3Z" style="fill:#fff;stroke:#231f20;stroke-linecap:round;stroke-linejoin:round;stroke-width:0.150000005960464px"/></g><g id="LWPOLYLINE-32" data-name="LWPOLYLINE"><path d="M364.888,136.417l5.742-.287a2.344,2.344,0,0,0,2.226-2.341v-9.741a2.344,2.344,0,0,0-2.226-2.341l-5.742-.287" style="fill:none;stroke:#231f20;stroke-linecap:round;stroke-linejoin:round;stroke-width:0.150000005960464px"/></g><g id="LWPOLYLINE-33" data-name="LWPOLYLINE"><path d="M364.888,99.677V117.49l5.812-.291a3.75,3.75,0,0,0,3.563-3.745v-9.741a3.75,3.75,0,0,0-3.563-3.745Z" style="fill:#fff;stroke:#231f20;stroke-linecap:round;stroke-linejoin:round;stroke-width:0.150000005960464px"/></g><g id="LWPOLYLINE-34" data-name="LWPOLYLINE"><path d="M364.888,116.082l5.742-.287a2.344,2.344,0,0,0,2.226-2.341v-9.741a2.344,2.344,0,0,0-2.226-2.341l-5.742-.287" style="fill:none;stroke:#231f20;stroke-linecap:round;stroke-linejoin:round;stroke-width:0.150000005960464px"/></g><g id="LWPOLYLINE-35" data-name="LWPOLYLINE"><path d="M364.888,140.347V158.16l5.812-.291a3.75,3.75,0,0,0,3.563-3.745v-9.741a3.75,3.75,0,0,0-3.563-3.745Z" style="fill:#fff;stroke:#231f20;stroke-linecap:round;stroke-linejoin:round;stroke-width:0.150000005960464px"/></g><g id="LWPOLYLINE-36" data-name="LWPOLYLINE"><path d="M364.888,156.752l5.742-.287a2.344,2.344,0,0,0,2.226-2.341v-9.741a2.344,2.344,0,0,0-2.226-2.341l-5.742-.287" style="fill:none;stroke:#231f20;stroke-linecap:round;stroke-linejoin:round;stroke-width:0.150000005960464px"/></g><g id="LWPOLYLINE-37" data-name="LWPOLYLINE"><path d="M338.61,137.825V120.012l-5.813.291a3.75,3.75,0,0,0-3.562,3.745v9.741a3.75,3.75,0,0,0,3.562,3.745Z" style="fill:#fff;stroke:#231f20;stroke-linecap:round;stroke-linejoin:round;stroke-width:0.150000005960464px"/></g><g id="LWPOLYLINE-38" data-name="LWPOLYLINE"><path d="M338.61,121.42l-5.742.287a2.344,2.344,0,0,0-2.227,2.341v9.741a2.344,2.344,0,0,0,2.227,2.341l5.742.287" style="fill:none;stroke:#231f20;stroke-linecap:round;stroke-linejoin:round;stroke-width:0.150000005960464px"/></g><g id="LWPOLYLINE-39" data-name="LWPOLYLINE"><path d="M338.61,158.16V140.347l-5.813.291a3.75,3.75,0,0,0-3.562,3.745v9.741a3.75,3.75,0,0,0,3.562,3.745Z" style="fill:#fff;stroke:#231f20;stroke-linecap:round;stroke-linejoin:round;stroke-width:0.150000005960464px"/></g><g id="LWPOLYLINE-40" data-name="LWPOLYLINE"><path d="M338.61,141.755l-5.742.287a2.344,2.344,0,0,0-2.227,2.341v9.741a2.344,2.344,0,0,0,2.227,2.341l5.742.287" style="fill:none;stroke:#231f20;stroke-linecap:round;stroke-linejoin:round;stroke-width:0.150000005960464px"/></g><g id="LWPOLYLINE-41" data-name="LWPOLYLINE"><path d="M338.61,117.49V99.677l-5.813.291a3.75,3.75,0,0,0-3.562,3.745v9.741A3.75,3.75,0,0,0,332.8,117.2Z" style="fill:#fff;stroke:#231f20;stroke-linecap:round;stroke-linejoin:round;stroke-width:0.150000005960464px"/></g><g id="LWPOLYLINE-42" data-name="LWPOLYLINE"><path d="M338.61,101.085l-5.742.287a2.344,2.344,0,0,0-2.227,2.341v9.741a2.344,2.344,0,0,0,2.227,2.341l5.742.287" style="fill:none;stroke:#231f20;stroke-linecap:round;stroke-linejoin:round;stroke-width:0.150000005960464px"/></g><g id="LWPOLYLINE-43" data-name="LWPOLYLINE"><path d="M344.846,159.816l.287,5.742a2.344,2.344,0,0,0,2.341,2.227h9.74a2.344,2.344,0,0,0,2.341-2.227l.287-5.742" style="fill:none;stroke:#231f20;stroke-linecap:round;stroke-linejoin:round;stroke-width:0.150000005960464px"/></g><g id="LWPOLYLINE-44" data-name="LWPOLYLINE"><rect x="335.938" y="95.169" width="32.311" height="67.5" style="fill:#fff;stroke:#231f20;stroke-linecap:round;stroke-linejoin:round;stroke-width:0.150000005960464px"/></g><g id="LWPOLYLINE-45" data-name="LWPOLYLINE"><rect x="268.858" y="364.159" width="37.841" height="12.708" style="fill:#fff;stroke:#231f20;stroke-linecap:round;stroke-linejoin:round;stroke-width:0.150000005960464px"/></g><g id="LWPOLYLINE-46" data-name="LWPOLYLINE"><polygon points="110.36 537.724 112.272 536.41 112.063 536.105 111.919 535.538 112.178 535.014 113.669 533.77 114.874 532.755 115.956 531.916 117.415 530.84 118.775 529.898 119.319 529.517 119.774 529.23 120.351 528.858 121.005 528.448 122.553 527.519 124.025 526.689 125.199 526.063 125.781 526.008 126.258 526.346 126.468 526.65 128.901 524.977 141.768 543.692 123.227 556.439 110.36 537.724" style="fill:#fff;stroke:#231f20;stroke-linecap:round;stroke-linejoin:round;stroke-width:0.150000005960464px"/></g><g id="LINE-10" data-name="LINE"><line x1="139.335" y1="545.365" x2="126.467" y2="526.658" style="fill:none;stroke:#231f20;stroke-linecap:round;stroke-linejoin:round;stroke-width:0.150000005960464px"/></g><g id="LINE-11" data-name="LINE"><line x1="112.272" y1="536.41" x2="125.139" y2="555.125" style="fill:none;stroke:#231f20;stroke-linecap:round;stroke-linejoin:round;stroke-width:0.150000005960464px"/></g><g id="ARC-29" data-name="ARC"><path d="M136.467,541.194a40.155,40.155,0,0,0-14.2,9.759" style="fill:none;stroke:#231f20;stroke-linecap:round;stroke-linejoin:round;stroke-width:0.150000005960464px"/></g><g id="ARC-30" data-name="ARC"><path d="M138.379,543.975a101.1,101.1,0,0,0-14.2,9.759" style="fill:none;stroke:#231f20;stroke-linecap:round;stroke-linejoin:round;stroke-width:0.150000005960464px"/></g><line x1="45.038" y1="164.731" x2="45.038" y2="93.481" style="fill:none;stroke:#231f20;stroke-linecap:round;stroke-linejoin:round;stroke-width:0.150000005960464px"/><line x1="47.468" y1="164.731" x2="47.468" y2="93.481" style="fill:none;stroke:#231f20;stroke-linecap:round;stroke-linejoin:round;stroke-width:0.150000005960464px"/><g id="LWPOLYLINE-47" data-name="LWPOLYLINE"><polygon points="232.617 184.858 208.142 202.231 192.003 180.937 215.346 162.069 232.617 184.858" style="fill:#fff;stroke:#231f20;stroke-linecap:round;stroke-linejoin:round;stroke-width:0.150000005960464px"/></g><g id="LINE-12" data-name="LINE"><line x1="230.209" y1="181.681" x2="205.734" y2="199.054" style="fill:none;stroke:#231f20;stroke-linecap:round;stroke-linejoin:round;stroke-width:0.150000005960464px"/></g><g id="LINE-13" data-name="LINE"><line x1="209.172" y1="196.605" x2="197.698" y2="181.467" style="fill:none;stroke:#231f20;stroke-linecap:round;stroke-linejoin:round;stroke-width:0.150000005960464px"/></g><g id="LINE-14" data-name="LINE"><line x1="194.411" y1="184.114" x2="217.754" y2="165.246" style="fill:none;stroke:#231f20;stroke-linecap:round;stroke-linejoin:round;stroke-width:0.150000005960464px"/></g><line x1="50.27" y1="513.375" x2="50.27" y2="457.119" style="fill:none;stroke:#231f20;stroke-linecap:round;stroke-linejoin:round;stroke-width:0.150000005960464px"/><line x1="52.7" y1="513.375" x2="52.7" y2="457.119" style="fill:none;stroke:#231f20;stroke-linecap:round;stroke-linejoin:round;stroke-width:0.150000005960464px"/><path d="M224.218,154.853s-9.663-2.9-5.758-12.571,14.1-25.813,25.069-28.088,14.127,22.831,14.127,22.831S260.9,150.25,246.326,154,224.218,154.853,224.218,154.853Z" style="fill:#fff;stroke:#231f20;stroke-miterlimit:10;stroke-width:0.150000005960464px"/><g id="LWPOLYLINE-48" data-name="LWPOLYLINE"><polyline points="100.044 39.575 100.044 45.2 33.95 45.2 33.95 39.575" style="fill:none;stroke:#231f20;stroke-linecap:round;stroke-linejoin:round;stroke-width:0.4px"/></g><g id="LWPOLYLINE-49" data-name="LWPOLYLINE"><line x1="147.856" y1="564.585" x2="147.856" y2="569.272" style="fill:none;stroke:#231f20;stroke-linecap:round;stroke-linejoin:round;stroke-width:0.4px"/><line x1="57.856" y1="569.271" x2="57.856" y2="564.584" style="fill:none;stroke:#231f20;stroke-linecap:round;stroke-linejoin:round;stroke-width:0.4px"/></g><g id="LWPOLYLINE-50" data-name="LWPOLYLINE"><polyline points="58.794 564.584 58.794 558.959 145.044 558.959 145.044 564.584" style="fill:none;stroke:#231f20;stroke-linecap:round;stroke-linejoin:round;stroke-width:0.4px"/></g><g id="LWPOLYLINE-51" data-name="LWPOLYLINE"><line x1="221.391" y1="564.584" x2="221.391" y2="569.271" style="fill:none;stroke:#231f20;stroke-linecap:round;stroke-linejoin:round;stroke-width:0.4px"/><line x1="182.016" y1="569.271" x2="182.016" y2="564.584" style="fill:none;stroke:#231f20;stroke-linecap:round;stroke-linejoin:round;stroke-width:0.4px"/></g><g id="LWPOLYLINE-52" data-name="LWPOLYLINE"><polyline points="219.516 564.584 219.516 558.959 183.891 558.959 183.891 564.584" style="fill:none;stroke:#231f20;stroke-linecap:round;stroke-linejoin:round;stroke-width:0.4px"/></g><g id="LWPOLYLINE-53" data-name="LWPOLYLINE"><line x1="283.794" y1="564.584" x2="283.794" y2="569.271" style="fill:none;stroke:#231f20;stroke-linecap:round;stroke-linejoin:round;stroke-width:0.4px"/><line x1="244.419" y1="569.271" x2="244.419" y2="564.584" style="fill:none;stroke:#231f20;stroke-linecap:round;stroke-linejoin:round;stroke-width:0.4px"/></g><g id="LWPOLYLINE-54" data-name="LWPOLYLINE"><polyline points="281.919 564.584 281.919 558.767 246.294 558.767 246.294 564.584" style="fill:none;stroke:#231f20;stroke-linecap:round;stroke-linejoin:round;stroke-width:0.4px"/></g><g id="LWPOLYLINE-55" data-name="LWPOLYLINE"><polyline points="122.544 39.574 122.544 45.2 185.708 45.2 185.708 39.574" style="fill:none;stroke:#231f20;stroke-linecap:round;stroke-linejoin:round;stroke-width:0.4px"/></g><g id="LWPOLYLINE-56" data-name="LWPOLYLINE"><polyline points="214.067 39.574 214.067 45.2 280.512 45.2 280.512 39.574" style="fill:none;stroke:#231f20;stroke-linecap:round;stroke-linejoin:round;stroke-width:0.4px"/></g><g id="LWPOLYLINE-57" data-name="LWPOLYLINE"><polyline points="303.012 39.575 303.012 45.2 371.684 45.2 371.684 39.575" style="fill:none;stroke:#231f20;stroke-linecap:round;stroke-linejoin:round;stroke-width:0.4px"/></g><g id="LWPOLYLINE-58" data-name="LWPOLYLINE"><rect x="36.763" y="35.825" width="28.705" height="1.23" style="fill:none;stroke:#231f20;stroke-linecap:round;stroke-linejoin:round;stroke-width:0.25px"/></g><g id="LWPOLYLINE-59" data-name="LWPOLYLINE"><rect x="68.52" y="35.825" width="28.711" height="1.23" style="fill:none;stroke:#231f20;stroke-linecap:round;stroke-linejoin:round;stroke-width:0.25px"/></g><g id="LWPOLYLINE-60" data-name="LWPOLYLINE"><polygon points="86.958 567.103 60.669 567.103 60.669 568.334 61.606 568.334 86.254 568.334 86.958 568.334 86.958 567.103" style="fill:none;stroke:#231f20;stroke-linecap:round;stroke-linejoin:round;stroke-width:0.25px"/></g><g id="LWPOLYLINE-61" data-name="LWPOLYLINE"><polygon points="145.044 567.103 89.536 567.103 89.536 568.334 90.239 568.334 145.044 568.334 145.044 567.103" style="fill:none;stroke:#231f20;stroke-linecap:round;stroke-linejoin:round;stroke-width:0.25px"/></g><g id="LWPOLYLINE-62" data-name="LWPOLYLINE"><rect x="125.356" y="35.825" width="28.705" height="1.23" style="fill:none;stroke:#231f20;stroke-linecap:round;stroke-linejoin:round;stroke-width:0.25px"/></g><g id="LWPOLYLINE-63" data-name="LWPOLYLINE"><rect x="157.114" y="35.825" width="28.711" height="1.23" style="fill:none;stroke:#231f20;stroke-linecap:round;stroke-linejoin:round;stroke-width:0.25px"/></g><g id="LWPOLYLINE-64" data-name="LWPOLYLINE"><rect x="213.949" y="35.824" width="30.346" height="1.23" style="fill:none;stroke:#231f20;stroke-linecap:round;stroke-linejoin:round;stroke-width:0.25px"/></g><g id="LWPOLYLINE-65" data-name="LWPOLYLINE"><rect x="247.348" y="35.824" width="30.352" height="1.23" style="fill:none;stroke:#231f20;stroke-linecap:round;stroke-linejoin:round;stroke-width:0.25px"/></g><g id="LWPOLYLINE-66" data-name="LWPOLYLINE"><rect x="305.824" y="35.825" width="30.346" height="1.23" style="fill:none;stroke:#231f20;stroke-linecap:round;stroke-linejoin:round;stroke-width:0.25px"/></g><g id="LWPOLYLINE-67" data-name="LWPOLYLINE"><rect x="339.223" y="35.825" width="30.352" height="1.23" style="fill:none;stroke:#231f20;stroke-linecap:round;stroke-linejoin:round;stroke-width:0.25px"/></g><g id="LWPOLYLINE-68" data-name="LWPOLYLINE"><rect x="184.829" y="567.103" width="33.75" height="1.23" style="fill:none;stroke:#231f20;stroke-linecap:round;stroke-linejoin:round;stroke-width:0.25px"/></g><g id="LWPOLYLINE-69" data-name="LWPOLYLINE"><rect x="247.231" y="567.103" width="33.75" height="1.23" style="fill:none;stroke:#231f20;stroke-linecap:round;stroke-linejoin:round;stroke-width:0.25px"/></g><line x1="57.972" y1="564.585" x2="283.33" y2="564.585" style="fill:none;stroke:#231f20;stroke-linecap:round;stroke-linejoin:round;stroke-width:0.25px"/><line x1="34.322" y1="39.575" x2="371.684" y2="39.575" style="fill:none;stroke:#231f20;stroke-linecap:round;stroke-linejoin:round;stroke-width:0.25px"/><g id="LWPOLYLINE-70" data-name="LWPOLYLINE"><polyline points="57.856 569.272 57.856 575.834 147.856 575.834 147.856 569.272" style="fill:none;stroke:#231f20;stroke-linecap:round;stroke-linejoin:round;stroke-width:0.4px"/></g><g id="LWPOLYLINE-71" data-name="LWPOLYLINE"><polyline points="188.637 39.575 188.637 32.544 122.544 32.544 122.544 39.575" style="fill:none;stroke:#231f20;stroke-linecap:round;stroke-linejoin:round;stroke-width:0.4px"/></g><g id="LWPOLYLINE-72" data-name="LWPOLYLINE"><polyline points="99.957 39.575 99.957 32.544 33.863 32.544 33.863 39.575" style="fill:none;stroke:#231f20;stroke-linecap:round;stroke-linejoin:round;stroke-width:0.4px"/></g><g id="LWPOLYLINE-73" data-name="LWPOLYLINE"><polyline points="280.512 39.574 280.512 32.543 211.137 32.543 211.137 39.574" style="fill:none;stroke:#231f20;stroke-linecap:round;stroke-linejoin:round;stroke-width:0.4px"/></g><g id="LWPOLYLINE-74" data-name="LWPOLYLINE"><polyline points="372.387 39.575 372.387 32.544 303.012 32.544 303.012 39.575" style="fill:none;stroke:#231f20;stroke-linecap:round;stroke-linejoin:round;stroke-width:0.4px"/></g><g id="LWPOLYLINE-75" data-name="LWPOLYLINE"><polyline points="182.016 569.271 182.016 575.834 221.391 575.834 221.391 569.271" style="fill:none;stroke:#231f20;stroke-linecap:round;stroke-linejoin:round;stroke-width:0.4px"/></g><g id="LWPOLYLINE-76" data-name="LWPOLYLINE"><polyline points="244.419 569.271 244.419 575.834 283.794 575.834 283.794 569.271" style="fill:none;stroke:#231f20;stroke-linecap:round;stroke-linejoin:round;stroke-width:0.4px"/></g><g id="LWPOLYLINE-77" data-name="LWPOLYLINE"><polygon points="37.7 37.055 36.763 37.055 36.763 35.825 37.7 35.825 37.7 34.888 35.825 34.888 35.825 31.137 34.888 31.137 34.888 34.888 33.95 34.888 33.95 39.575 37.7 39.575 37.7 37.055" style="fill:#fff;stroke:#231f20;stroke-miterlimit:10;stroke-width:0.25px"/></g><g id="LWPOLYLINE-78" data-name="LWPOLYLINE"><polyline points="66.528 32.544 67.466 32.544 67.466 34.888 69.223 34.888 69.223 35.825 68.52 35.825 68.52 37.056 69.223 37.056 69.223 39.575 67.348 39.575 67.348 39.106 66.645 39.106 66.645 39.575 64.77 39.575 64.77 37.056 65.461 37.056 65.473 35.825 64.77 35.825 64.77 34.888 66.528 34.888 66.528 32.544" style="fill:#fff;stroke:#231f20;stroke-miterlimit:10;stroke-width:0.25px"/></g><g id="LWPOLYLINE-79" data-name="LWPOLYLINE"><polygon points="100.044 34.888 99.106 34.888 99.106 31.137 98.169 31.137 98.169 34.888 96.294 34.888 96.294 35.825 97.231 35.825 97.231 37.055 96.294 37.055 96.294 39.575 100.044 39.575 100.044 34.888" style="fill:#fff;stroke:#231f20;stroke-miterlimit:10;stroke-width:0.25px"/></g><g id="LWPOLYLINE-80" data-name="LWPOLYLINE"><polygon points="147.856 564.584 144.106 564.584 144.106 567.103 145.044 567.103 145.044 568.334 144.106 568.334 144.106 569.271 145.981 569.271 147.856 569.271 147.856 564.584" style="fill:none;stroke:#231f20;stroke-miterlimit:10;stroke-width:0.25px"/></g><g id="LWPOLYLINE-81" data-name="LWPOLYLINE"><polygon points="57.856 564.584 61.606 564.584 61.606 567.103 60.669 567.103 60.669 568.334 61.606 568.334 61.606 569.271 59.731 569.271 57.856 569.271 57.856 564.584" style="fill:none;stroke:#231f20;stroke-miterlimit:10;stroke-width:0.25px"/></g><g id="LWPOLYLINE-82" data-name="LWPOLYLINE"><polygon points="90.239 565.931 89.301 565.931 89.301 565.053 88.129 565.053 88.129 564.584 86.254 564.584 86.254 567.103 86.958 567.103 86.958 568.334 86.254 568.334 86.254 569.271 86.958 569.271 89.536 569.271 90.239 569.271 90.239 568.334 89.536 568.334 89.536 567.103 90.239 567.103 90.239 565.931" style="fill:none;stroke:#231f20;stroke-miterlimit:10;stroke-width:0.25px"/></g><g id="LWPOLYLINE-83" data-name="LWPOLYLINE"><polygon points="126.294 37.055 125.356 37.055 125.356 35.825 126.294 35.825 126.294 34.888 124.419 34.888 124.419 31.137 123.481 31.137 123.481 34.888 122.544 34.888 122.544 39.575 126.294 39.575 126.294 37.055" style="fill:#fff;stroke:#231f20;stroke-miterlimit:10;stroke-width:0.25px"/></g><g id="LWPOLYLINE-84" data-name="LWPOLYLINE"><polyline points="155.122 32.544 156.059 32.544 156.059 34.888 157.817 34.888 157.817 35.825 157.114 35.825 157.114 37.056 157.817 37.056 157.817 39.575 155.942 39.575 155.942 39.106 155.239 39.106 155.239 39.575 153.364 39.575 153.364 37.056 154.055 37.056 154.067 35.825 153.364 35.825 153.364 34.888 155.122 34.888 155.122 32.544" style="fill:#fff;stroke:#231f20;stroke-miterlimit:10;stroke-width:0.25px"/></g><g id="LWPOLYLINE-85" data-name="LWPOLYLINE"><polygon points="188.637 34.888 187.7 34.888 187.7 31.137 186.762 31.137 186.762 34.888 184.887 34.888 184.887 35.825 185.825 35.825 185.825 37.055 184.887 37.055 184.887 39.575 188.637 39.575 188.637 34.888" style="fill:#fff;stroke:#231f20;stroke-miterlimit:10;stroke-width:0.25px"/></g><g id="LWPOLYLINE-86" data-name="LWPOLYLINE"><polygon points="214.887 37.055 213.949 37.055 213.949 35.824 214.887 35.824 214.887 34.887 213.012 34.887 213.012 31.137 212.074 31.137 212.074 34.887 211.137 34.887 211.137 39.574 214.887 39.574 214.887 37.055" style="fill:#fff;stroke:#231f20;stroke-miterlimit:10;stroke-width:0.25px"/></g><g id="LWPOLYLINE-87" data-name="LWPOLYLINE"><polyline points="245.356 32.543 246.293 32.543 246.293 34.887 248.051 34.887 248.051 35.824 247.348 35.824 247.348 37.055 248.051 37.055 248.051 39.574 246.176 39.574 246.176 39.105 245.473 39.105 245.473 39.574 243.598 39.574 243.598 37.055 244.289 37.055 244.301 35.824 243.598 35.824 243.598 34.887 245.356 34.887 245.356 32.543" style="fill:#fff;stroke:#231f20;stroke-miterlimit:10;stroke-width:0.25px"/></g><g id="LWPOLYLINE-88" data-name="LWPOLYLINE"><polygon points="280.512 34.887 279.575 34.887 279.575 31.137 278.637 31.137 278.637 34.887 276.762 34.887 276.762 35.824 277.7 35.824 277.7 37.055 276.762 37.055 276.762 39.574 280.512 39.574 280.512 34.887" style="fill:#fff;stroke:#231f20;stroke-miterlimit:10;stroke-width:0.25px"/></g><g id="LWPOLYLINE-89" data-name="LWPOLYLINE"><polygon points="306.762 37.056 305.824 37.056 305.824 35.825 306.762 35.825 306.762 34.888 304.887 34.888 304.887 31.138 303.949 31.138 303.949 34.888 303.012 34.888 303.012 39.575 306.762 39.575 306.762 37.056" style="fill:#fff;stroke:#231f20;stroke-miterlimit:10;stroke-width:0.25px"/></g><g id="LWPOLYLINE-90" data-name="LWPOLYLINE"><polyline points="337.231 32.544 338.168 32.544 338.168 34.888 339.926 34.888 339.926 35.825 339.223 35.825 339.223 37.056 339.926 37.056 339.926 39.575 338.051 39.575 338.051 39.106 337.348 39.106 337.348 39.575 335.473 39.575 335.473 37.056 336.164 37.056 336.176 35.825 335.473 35.825 335.473 34.888 337.231 34.888 337.231 32.544" style="fill:#fff;stroke:#231f20;stroke-miterlimit:10;stroke-width:0.25px"/></g><g id="LWPOLYLINE-91" data-name="LWPOLYLINE"><polygon points="372.387 34.888 371.45 34.888 371.45 31.138 370.512 31.138 370.512 34.888 368.637 34.888 368.637 35.825 369.575 35.825 369.575 37.056 368.637 37.056 368.637 39.575 372.387 39.575 372.387 34.888" style="fill:#fff;stroke:#231f20;stroke-miterlimit:10;stroke-width:0.25px"/></g><g id="LWPOLYLINE-92" data-name="LWPOLYLINE"><polygon points="182.016 564.584 185.766 564.584 185.766 567.103 184.829 567.103 184.829 568.334 185.766 568.334 185.766 569.271 183.891 569.271 182.016 569.271 182.016 564.584" style="fill:none;stroke:#231f20;stroke-miterlimit:10;stroke-width:0.25px"/></g><g id="LWPOLYLINE-93" data-name="LWPOLYLINE"><polygon points="221.391 564.584 217.641 564.584 217.641 567.103 218.579 567.103 218.579 568.334 217.641 568.334 217.641 569.271 219.516 569.271 221.391 569.271 221.391 564.584" style="fill:none;stroke:#231f20;stroke-miterlimit:10;stroke-width:0.25px"/></g><g id="LWPOLYLINE-94" data-name="LWPOLYLINE"><polygon points="244.419 564.584 248.169 564.584 248.169 567.103 247.231 567.103 247.231 568.334 248.169 568.334 248.169 569.271 246.294 569.271 244.419 569.271 244.419 564.584" style="fill:none;stroke:#231f20;stroke-miterlimit:10;stroke-width:0.25px"/></g><g id="LWPOLYLINE-95" data-name="LWPOLYLINE"><polygon points="283.794 564.584 280.044 564.584 280.044 567.103 280.981 567.103 280.981 568.334 280.044 568.334 280.044 569.271 281.919 569.271 283.794 569.271 283.794 564.584" style="fill:none;stroke:#231f20;stroke-miterlimit:10;stroke-width:0.25px"/></g><g id="LWPOLYLINE-96" data-name="LWPOLYLINE"><polygon points="147.856 564.584 144.106 564.584 144.106 567.103 145.044 567.103 145.044 568.334 144.106 568.334 144.106 569.271 145.981 569.271 147.856 569.271 147.856 564.584" style="fill:none;stroke:#231f20;stroke-miterlimit:10;stroke-width:0.25px"/></g><g id="LWPOLYLINE-97" data-name="LWPOLYLINE"><polygon points="182.016 564.584 185.766 564.584 185.766 567.103 184.829 567.103 184.829 568.334 185.766 568.334 185.766 569.271 183.891 569.271 182.016 569.271 182.016 564.584" style="fill:none;stroke:#231f20;stroke-miterlimit:10;stroke-width:0.25px"/></g><g id="LWPOLYLINE-98" data-name="LWPOLYLINE"><polygon points="221.391 564.584 217.641 564.584 217.641 567.103 218.579 567.103 218.579 568.334 217.641 568.334 217.641 569.271 219.516 569.271 221.391 569.271 221.391 564.584" style="fill:none;stroke:#231f20;stroke-miterlimit:10;stroke-width:0.25px"/></g><g id="LWPOLYLINE-99" data-name="LWPOLYLINE"><polygon points="244.419 564.584 248.169 564.584 248.169 567.103 247.231 567.103 247.231 568.334 248.169 568.334 248.169 569.271 246.294 569.271 244.419 569.271 244.419 564.584" style="fill:none;stroke:#231f20;stroke-miterlimit:10;stroke-width:0.25px"/></g><g id="LWPOLYLINE-100" data-name="LWPOLYLINE"><polygon points="283.794 564.584 280.044 564.584 280.044 567.103 280.981 567.103 280.981 568.334 280.044 568.334 280.044 569.271 281.919 569.271 283.794 569.271 283.794 564.584" style="fill:none;stroke:#231f20;stroke-miterlimit:10;stroke-width:0.25px"/></g><g id="LWPOLYLINE-101" data-name="LWPOLYLINE"><rect x="303.31" y="388.546" width="2.109" height="33.75" transform="translate(-197.53 333.964) rotate(-45)" style="fill:#fff;stroke:#231f20;stroke-linecap:round;stroke-linejoin:round;stroke-width:0.200000002980232px"/></g><g id="LWPOLYLINE-102" data-name="LWPOLYLINE"><rect x="56.977" y="409.888" width="33.75" height="1.641" style="fill:#fff;stroke:#231f20;stroke-linecap:round;stroke-linejoin:round;stroke-width:0.200000002980232px"/></g><g id="LWPOLYLINE-103" data-name="LWPOLYLINE"><rect x="144.926" y="238.719" width="1.641" height="33.75" style="fill:#fff;stroke:#231f20;stroke-linecap:round;stroke-linejoin:round;stroke-width:0.200000002980232px"/></g><g id="LWPOLYLINE-104" data-name="LWPOLYLINE"><rect x="100.161" y="244.184" width="1.641" height="33.75" style="fill:#fff;stroke:#231f20;stroke-linecap:round;stroke-linejoin:round;stroke-width:0.200000002980232px"/></g><g id="LWPOLYLINE-105" data-name="LWPOLYLINE"><rect x="146.801" y="300.242" width="1.641" height="33.75" style="fill:#fff;stroke:#231f20;stroke-linecap:round;stroke-linejoin:round;stroke-width:0.200000002980232px"/></g><g id="LWPOLYLINE-106" data-name="LWPOLYLINE"><rect x="103.23" y="348.779" width="33.75" height="2.109" transform="translate(-212.192 187.391) rotate(-45)" style="fill:#fff;stroke:#231f20;stroke-linecap:round;stroke-linejoin:round;stroke-width:0.200000002980232px"/></g><g id="LWPOLYLINE-107" data-name="LWPOLYLINE"><rect x="131.437" y="421.66" width="33.75" height="2.109" transform="translate(-255.465 228.683) rotate(-45)" style="fill:#fff;stroke:#231f20;stroke-linecap:round;stroke-linejoin:round;stroke-width:0.200000002980232px"/></g><g id="LWPOLYLINE-108" data-name="LWPOLYLINE"><rect x="174.701" y="407.82" width="33.75" height="1.641" style="fill:#fff;stroke:#231f20;stroke-linecap:round;stroke-linejoin:round;stroke-width:0.200000002980232px"/></g><g id="LWPOLYLINE-109" data-name="LWPOLYLINE"><rect x="244.076" y="489.115" width="35.977" height="1.641" style="fill:#fff;stroke:#231f20;stroke-linecap:round;stroke-linejoin:round;stroke-width:0.200000002980232px"/></g><g id="LWPOLYLINE-110" data-name="LWPOLYLINE"><rect x="164.389" y="490.082" width="1.641" height="33.75" style="fill:#fff;stroke:#231f20;stroke-linecap:round;stroke-linejoin:round;stroke-width:0.200000002980232px"/></g><g id="LWPOLYLINE-111" data-name="LWPOLYLINE"><polyline points="285.561 456.737 285.561 434.154 283.92 434.154 283.92 456.737" style="fill:none;stroke:#231f20;stroke-linecap:round;stroke-linejoin:round;stroke-width:0.200000002980232px"/></g><g id="LWPOLYLINE-112" data-name="LWPOLYLINE"><polyline points="285.561 456.737 285.561 479.154 283.92 479.154 283.92 456.737" style="fill:#fff;stroke:#231f20;stroke-linecap:round;stroke-linejoin:round;stroke-width:0.200000002980232px"/></g><g id="LWPOLYLINE-113" data-name="LWPOLYLINE"><rect x="56.977" y="409.888" width="33.75" height="1.641" style="fill:#fff;stroke:#231f20;stroke-linecap:round;stroke-linejoin:round;stroke-width:0.200000002980232px"/></g><g id="LWPOLYLINE-114" data-name="LWPOLYLINE"><rect x="144.926" y="238.719" width="1.641" height="33.75" style="fill:#fff;stroke:#231f20;stroke-linecap:round;stroke-linejoin:round;stroke-width:0.200000002980232px"/></g><g id="LWPOLYLINE-115" data-name="LWPOLYLINE"><rect x="100.161" y="244.184" width="1.641" height="33.75" style="fill:#fff;stroke:#231f20;stroke-linecap:round;stroke-linejoin:round;stroke-width:0.200000002980232px"/></g><g id="LWPOLYLINE-116" data-name="LWPOLYLINE"><rect x="174.701" y="407.82" width="33.75" height="1.641" style="fill:#fff;stroke:#231f20;stroke-linecap:round;stroke-linejoin:round;stroke-width:0.200000002980232px"/></g><g id="ARC-31" data-name="ARC"><path d="M315.552,384.349a34.268,34.268,0,0,0-22.374,8.394" style="fill:none;stroke:#231f20;stroke-linecap:round;stroke-linejoin:round;stroke-width:0.200000002980232px"/></g><g id="ARC-32" data-name="ARC"><path d="M141.176,361.02a34.262,34.262,0,0,0-8.393-22.373" style="fill:none;stroke:#231f20;stroke-linecap:round;stroke-linejoin:round;stroke-width:0.200000002980232px"/></g><g id="ARC-33" data-name="ARC"><path d="M127.24,411.528a34.268,34.268,0,0,0,8.394,22.373" style="fill:none;stroke:#231f20;stroke-linecap:round;stroke-linejoin:round;stroke-width:0.200000002980232px"/></g><g id="LWPOLYLINE-117" data-name="LWPOLYLINE"><path d="M98.169,39.575,69.712,52.3A31.171,31.171,0,0,1,67,39.575" style="fill:none;stroke:#231f20;stroke-linecap:round;stroke-linejoin:round;stroke-width:0.25px;stroke-dasharray:1.3229475021362305,1.3229475021362305"/></g><g id="LWPOLYLINE-118" data-name="LWPOLYLINE"><path d="M35.825,39.575,64.282,52.3A31.171,31.171,0,0,0,67,39.575" style="fill:none;stroke:#231f20;stroke-linecap:round;stroke-linejoin:round;stroke-width:0.25px;stroke-dasharray:1.3229475021362305,1.3229475021362305"/></g><g id="LWPOLYLINE-119" data-name="LWPOLYLINE"><path d="M186.762,39.575,158.305,52.3a31.187,31.187,0,0,1-2.715-12.724" style="fill:none;stroke:#231f20;stroke-linecap:round;stroke-linejoin:round;stroke-width:0.25px;stroke-dasharray:1.3229475021362305,1.3229475021362305"/></g><g id="LWPOLYLINE-120" data-name="LWPOLYLINE"><path d="M124.419,39.575,152.875,52.3a31.171,31.171,0,0,0,2.715-12.724" style="fill:none;stroke:#231f20;stroke-linecap:round;stroke-linejoin:round;stroke-width:0.25px;stroke-dasharray:1.3229475021362305,1.3229475021362305"/></g><g id="LWPOLYLINE-121" data-name="LWPOLYLINE"><path d="M277,39.575,248.539,52.3a31.187,31.187,0,0,1-2.715-12.724" style="fill:none;stroke:#231f20;stroke-linecap:round;stroke-linejoin:round;stroke-width:0.25px;stroke-dasharray:1.3229475021362305,1.3229475021362305"/></g><g id="LWPOLYLINE-122" data-name="LWPOLYLINE"><path d="M214.653,39.575,243.109,52.3a31.171,31.171,0,0,0,2.715-12.724" style="fill:none;stroke:#231f20;stroke-linecap:round;stroke-linejoin:round;stroke-width:0.25px;stroke-dasharray:1.3229475021362305,1.3229475021362305"/></g><g id="LWPOLYLINE-123" data-name="LWPOLYLINE"><path d="M368.871,39.575,340.415,52.3A31.171,31.171,0,0,1,337.7,39.575" style="fill:none;stroke:#231f20;stroke-linecap:round;stroke-linejoin:round;stroke-width:0.25px;stroke-dasharray:1.3229475021362305,1.3229475021362305"/></g><g id="LWPOLYLINE-124" data-name="LWPOLYLINE"><path d="M306.528,39.575,334.985,52.3A31.187,31.187,0,0,0,337.7,39.575" style="fill:none;stroke:#231f20;stroke-linecap:round;stroke-linejoin:round;stroke-width:0.25px;stroke-dasharray:1.3229475021362305,1.3229475021362305"/></g><g id="LWPOLYLINE-125" data-name="LWPOLYLINE"><rect x="64.246" y="345.567" width="35.874" height="0.828" style="fill:none;stroke:#231f20;stroke-linecap:round;stroke-linejoin:round;stroke-width:0.25px"/></g><g id="ARC-34" data-name="ARC"><path d="M37.242,363.783a3.28,3.28,0,1,1,0,.789" style="fill:none;stroke:#231f20;stroke-linecap:round;stroke-linejoin:round;stroke-width:0.25px"/></g><g id="LWPOLYLINE-126" data-name="LWPOLYLINE"><path d="M40.5,364.572H30.33V363.8H40.5a.388.388,0,1,1,0,.775Z" style="fill:none;stroke:#231f20;stroke-linecap:round;stroke-linejoin:round;stroke-width:0.25px"/></g><g id="LWPOLYLINE-127" data-name="LWPOLYLINE"><path d="M225.678,542.634V536.81a4.688,4.688,0,0,0-4.688-4.687H182.319a4.688,4.688,0,0,0-4.688,4.687v12.422a4.688,4.688,0,0,0,4.688,4.688H220.99a4.688,4.688,0,0,0,4.688-4.688v-5.823" style="fill:none;stroke:#231f20;stroke-linecap:round;stroke-linejoin:round;stroke-width:0.25px"/></g><g id="ARC-35" data-name="ARC"><path d="M224.5,542.62a3.284,3.284,0,1,0,0,.789" style="fill:#fff;stroke:#231f20;stroke-linecap:round;stroke-linejoin:round;stroke-width:0.25px"/></g><g id="LWPOLYLINE-128" data-name="LWPOLYLINE"><rect x="310.981" y="532.123" width="0.937" height="18.047" style="fill:none;stroke:#231f20;stroke-linecap:round;stroke-linejoin:round;stroke-width:0.25px"/></g><g id="LWPOLYLINE-129" data-name="LWPOLYLINE"><rect x="29.933" y="205.858" width="70.942" height="34.576" style="fill:none;stroke:#231f20;stroke-linecap:round;stroke-linejoin:round;stroke-width:0.25px"/></g><g id="LWPOLYLINE-130" data-name="LWPOLYLINE"><rect x="35.473" y="211.372" width="61.055" height="24.375" rx="4.687" style="fill:none;stroke:#231f20;stroke-linecap:round;stroke-linejoin:round;stroke-width:0.25px"/></g><g id="CIRCLE"><path d="M40.1,223.559a2.11,2.11,0,1,1,2.11,2.11,2.11,2.11,0,0,1-2.11-2.11Z" style="fill:none;stroke:#231f20;stroke-linecap:round;stroke-linejoin:round;stroke-width:0.25px"/></g><g id="LWPOLYLINE-131" data-name="LWPOLYLINE"><rect x="172.525" y="528.021" width="58.214" height="30.959" style="fill:none;stroke:#231f20;stroke-linecap:round;stroke-linejoin:round;stroke-width:0.25px"/></g><g id="LWPOLYLINE-132" data-name="LWPOLYLINE"><rect x="310.981" y="532.123" width="0.937" height="18.047" style="fill:none;stroke:#231f20;stroke-linecap:round;stroke-linejoin:round;stroke-width:0.25px"/></g><g id="CIRCLE-2" data-name="CIRCLE"><path d="M40.1,223.559a2.11,2.11,0,1,1,2.11,2.11,2.11,2.11,0,0,1-2.11-2.11Z" style="fill:none;stroke:#231f20;stroke-linecap:round;stroke-linejoin:round;stroke-width:0.25px"/></g><g id="LWPOLYLINE-133" data-name="LWPOLYLINE"><path d="M221.241,543.409H231.41v-.775H221.241a.388.388,0,1,0,0,.775Z" style="fill:#fff;stroke:#231f20;stroke-linecap:round;stroke-linejoin:round;stroke-width:0.25px"/></g><g id="LINE-15" data-name="LINE"><line x1="178.92" y1="440.281" x2="204.233" y2="440.281" style="fill:#fff;stroke:#231f20;stroke-linecap:round;stroke-linejoin:round;stroke-width:0.25px"/></g><g id="LINE-16" data-name="LINE"><line x1="204.233" y1="440.281" x2="204.233" y2="412.391" style="fill:#fff;stroke:#231f20;stroke-linecap:round;stroke-linejoin:round;stroke-width:0.25px"/></g><g id="LINE-17" data-name="LINE"><line x1="204.233" y1="412.391" x2="178.92" y2="412.391" style="fill:#fff;stroke:#231f20;stroke-linecap:round;stroke-linejoin:round;stroke-width:0.25px"/></g><g id="LINE-18" data-name="LINE"><line x1="178.92" y1="412.391" x2="178.92" y2="440.281" style="fill:#fff;stroke:#231f20;stroke-linecap:round;stroke-linejoin:round;stroke-width:0.25px"/></g><g id="LWPOLYLINE-134" data-name="LWPOLYLINE"><rect x="272.075" y="239.848" width="37.5" height="59.531" style="fill:#fff;stroke:#231f20;stroke-linecap:round;stroke-linejoin:round;stroke-width:0.25px"/></g><g id="LWPOLYLINE-135" data-name="LWPOLYLINE"><polyline points="293.859 269.87 305.859 269.87 305.859 247.37 293.859 247.37 293.859 269.87" style="fill:none;stroke:#231f20;stroke-linecap:round;stroke-linejoin:round;stroke-width:0.25px"/></g><rect x="290.947" y="256.894" width="2.741" height="1.151" transform="translate(549.787 -34.848) rotate(90)" style="fill:#fff;stroke:#231f20;stroke-linecap:round;stroke-linejoin:round;stroke-width:0.25px"/><path d="M292.78,259.443a.787.787,0,0,0,.263-.263h5.777a.417.417,0,0,0,0-.833h-5.777a.8.8,0,1,0-.263,1.1Z" style="fill:#fff;stroke:#231f20;stroke-linecap:round;stroke-linejoin:round;stroke-width:0.25px"/><g id="LWPOLYLINE-136" data-name="LWPOLYLINE"><polygon points="321.294 337.146 321.294 360.317 374.263 360.317 374.263 243.012 350.74 243.012 350.74 337.146 321.294 337.146" style="fill:none;stroke:#231f20;stroke-linecap:round;stroke-linejoin:round;stroke-width:0.25px"/></g><g id="LWPOLYLINE-137" data-name="LWPOLYLINE"><polygon points="263.876 337.1 287.809 337.088 287.797 360.183 263.853 360.138 263.876 337.1" style="fill:#fff;stroke:#231f20;stroke-linecap:round;stroke-linejoin:round;stroke-width:0.25px"/></g><g id="LWPOLYLINE-138" data-name="LWPOLYLINE"><rect x="287.778" y="337.1" width="33.516" height="23.28" style="fill:#fff;stroke:#231f20;stroke-linecap:round;stroke-linejoin:round;stroke-width:0.25px"/></g><line x1="287.956" y1="275.382" x2="288.617" y2="275.382" style="fill:none;stroke:#231f20;stroke-linecap:round;stroke-linejoin:round;stroke-width:0.25px"/><line x1="289.97" y1="275.382" x2="308.237" y2="275.382" style="fill:none;stroke:#231f20;stroke-linecap:round;stroke-linejoin:round;stroke-width:0.25px;stroke-dasharray:1.3531005382537842,1.3531005382537842"/><line x1="308.914" y1="275.382" x2="309.575" y2="275.382" style="fill:none;stroke:#231f20;stroke-linecap:round;stroke-linejoin:round;stroke-width:0.25px"/><line x1="309.575" y1="297.2" x2="308.914" y2="297.2" style="fill:none;stroke:#231f20;stroke-linecap:round;stroke-linejoin:round;stroke-width:0.25px"/><line x1="307.56" y1="297.2" x2="289.294" y2="297.2" style="fill:none;stroke:#231f20;stroke-linecap:round;stroke-linejoin:round;stroke-width:0.25px;stroke-dasharray:1.3531005382537842,1.3531005382537842"/><line x1="288.617" y1="297.2" x2="287.956" y2="297.2" style="fill:none;stroke:#231f20;stroke-linecap:round;stroke-linejoin:round;stroke-width:0.25px"/><g id="LWPOLYLINE-139" data-name="LWPOLYLINE"><line x1="159.692" y1="235.086" x2="159.692" y2="276.101" style="fill:none;stroke:#231f20;stroke-linecap:round;stroke-linejoin:round;stroke-width:0.25px;stroke-dasharray:2,2"/></g><g id="LWPOLYLINE-140" data-name="LWPOLYLINE"><polyline points="148.442 290.867 202.592 290.867 202.592 337.742" style="fill:none;stroke:#231f20;stroke-linecap:round;stroke-linejoin:round;stroke-width:0.25px;stroke-dasharray:2,2"/></g><g id="LWPOLYLINE-141" data-name="LWPOLYLINE"><line x1="48.598" y1="396.763" x2="100.161" y2="396.763" style="fill:none;stroke:#231f20;stroke-linecap:round;stroke-linejoin:round;stroke-width:0.25px;stroke-dasharray:2,2"/></g><g id="LWPOLYLINE-142" data-name="LWPOLYLINE"><line x1="298.686" y1="486.537" x2="298.686" y2="430.053" style="fill:none;stroke:#231f20;stroke-linecap:round;stroke-linejoin:round;stroke-width:0.25px;stroke-dasharray:2,2"/></g><g id="LINE-19" data-name="LINE"><line x1="363.895" y1="243.012" x2="363.895" y2="243.674" style="fill:none;stroke:#231f20;stroke-linecap:round;stroke-linejoin:round;stroke-width:0.25px"/><line x1="363.895" y1="245.001" x2="363.895" y2="347.813" style="fill:none;stroke:#231f20;stroke-linecap:round;stroke-linejoin:round;stroke-width:0.25px;stroke-dasharray:1.3266083002090454,1.3266083002090454"/><polyline points="363.895 348.476 363.895 349.137 363.234 349.137" style="fill:none;stroke:#231f20;stroke-linecap:round;stroke-linejoin:round;stroke-width:0.25px"/><line x1="361.902" y1="349.137" x2="322.621" y2="349.137" style="fill:none;stroke:#231f20;stroke-linecap:round;stroke-linejoin:round;stroke-width:0.25px;stroke-dasharray:1.3315651416778564,1.3315651416778564"/><line x1="321.955" y1="349.137" x2="321.294" y2="349.137" style="fill:none;stroke:#231f20;stroke-linecap:round;stroke-linejoin:round;stroke-width:0.25px"/></g><line x1="287.778" y1="239.744" x2="287.778" y2="240.405" style="fill:none;stroke:#231f20;stroke-linecap:round;stroke-linejoin:round;stroke-width:0.25px"/><line x1="287.778" y1="241.701" x2="287.778" y2="298.063" style="fill:none;stroke:#231f20;stroke-linecap:round;stroke-linejoin:round;stroke-width:0.25px;stroke-dasharray:1.2956777811050415,1.2956777811050415"/><line x1="287.778" y1="298.711" x2="287.778" y2="299.372" style="fill:none;stroke:#231f20;stroke-linecap:round;stroke-linejoin:round;stroke-width:0.25px"/><g id="LINE-20" data-name="LINE"><line x1="152.388" y1="284.34" x2="152.388" y2="297.394" style="fill:none;stroke:#231f20;stroke-miterlimit:10;stroke-width:0.25px"/></g><g id="LINE-21" data-name="LINE"><line x1="154.807" y1="284.34" x2="154.807" y2="297.394" style="fill:none;stroke:#231f20;stroke-miterlimit:10;stroke-width:0.25px"/></g><g id="LINE-22" data-name="LINE"><line x1="157.227" y1="284.34" x2="157.228" y2="297.394" style="fill:none;stroke:#231f20;stroke-miterlimit:10;stroke-width:0.25px"/></g><g id="LINE-23" data-name="LINE"><line x1="159.646" y1="284.34" x2="159.647" y2="297.394" style="fill:none;stroke:#231f20;stroke-miterlimit:10;stroke-width:0.25px"/></g><g id="LINE-24" data-name="LINE"><line x1="162.065" y1="284.34" x2="162.066" y2="297.394" style="fill:none;stroke:#231f20;stroke-miterlimit:10;stroke-width:0.25px"/></g><g id="LINE-25" data-name="LINE"><line x1="164.485" y1="297.394" x2="164.485" y2="284.34" style="fill:none;stroke:#231f20;stroke-miterlimit:10;stroke-width:0.25px"/></g><g id="LINE-26" data-name="LINE"><line x1="153.165" y1="239.032" x2="166.219" y2="239.032" style="fill:none;stroke:#231f20;stroke-miterlimit:10;stroke-width:0.25px"/></g><g id="LINE-27" data-name="LINE"><line x1="153.165" y1="241.451" x2="166.219" y2="241.451" style="fill:none;stroke:#231f20;stroke-miterlimit:10;stroke-width:0.25px"/></g><g id="LINE-28" data-name="LINE"><line x1="153.165" y1="243.871" x2="166.219" y2="243.871" style="fill:none;stroke:#231f20;stroke-miterlimit:10;stroke-width:0.25px"/></g><g id="LINE-29" data-name="LINE"><line x1="153.165" y1="246.29" x2="166.219" y2="246.291" style="fill:none;stroke:#231f20;stroke-miterlimit:10;stroke-width:0.25px"/></g><g id="LINE-30" data-name="LINE"><line x1="153.165" y1="248.709" x2="166.219" y2="248.71" style="fill:none;stroke:#231f20;stroke-miterlimit:10;stroke-width:0.25px"/></g><g id="LINE-31" data-name="LINE"><line x1="166.219" y1="251.128" x2="153.164" y2="251.128" style="fill:none;stroke:#231f20;stroke-miterlimit:10;stroke-width:0.25px"/></g><g id="LINE-32" data-name="LINE"><line x1="196.065" y1="333.796" x2="209.119" y2="333.796" style="fill:none;stroke:#231f20;stroke-miterlimit:10;stroke-width:0.25px"/></g><g id="LINE-33" data-name="LINE"><line x1="196.065" y1="331.377" x2="209.119" y2="331.377" style="fill:none;stroke:#231f20;stroke-miterlimit:10;stroke-width:0.25px"/></g><g id="LINE-34" data-name="LINE"><line x1="196.065" y1="328.957" x2="209.119" y2="328.957" style="fill:none;stroke:#231f20;stroke-miterlimit:10;stroke-width:0.25px"/></g><g id="LINE-35" data-name="LINE"><line x1="196.065" y1="326.538" x2="209.119" y2="326.537" style="fill:none;stroke:#231f20;stroke-miterlimit:10;stroke-width:0.25px"/></g><g id="LINE-36" data-name="LINE"><line x1="196.065" y1="324.119" x2="209.119" y2="324.118" style="fill:none;stroke:#231f20;stroke-miterlimit:10;stroke-width:0.25px"/></g><g id="LINE-37" data-name="LINE"><line x1="209.119" y1="321.699" x2="196.064" y2="321.699" style="fill:none;stroke:#231f20;stroke-miterlimit:10;stroke-width:0.25px"/></g><g id="LINE-38" data-name="LINE"><line x1="292.158" y1="482.591" x2="305.213" y2="482.591" style="fill:none;stroke:#231f20;stroke-miterlimit:10;stroke-width:0.25px"/></g><g id="LINE-39" data-name="LINE"><line x1="292.158" y1="480.172" x2="305.213" y2="480.172" style="fill:none;stroke:#231f20;stroke-miterlimit:10;stroke-width:0.25px"/></g><g id="LINE-40" data-name="LINE"><line x1="292.158" y1="477.752" x2="305.213" y2="477.751" style="fill:none;stroke:#231f20;stroke-miterlimit:10;stroke-width:0.25px"/></g><g id="LINE-41" data-name="LINE"><line x1="292.158" y1="475.333" x2="305.213" y2="475.332" style="fill:none;stroke:#231f20;stroke-miterlimit:10;stroke-width:0.25px"/></g><g id="LINE-42" data-name="LINE"><line x1="292.158" y1="472.914" x2="305.213" y2="472.913" style="fill:none;stroke:#231f20;stroke-miterlimit:10;stroke-width:0.25px"/></g><g id="LINE-43" data-name="LINE"><line x1="305.213" y1="470.494" x2="292.158" y2="470.494" style="fill:none;stroke:#231f20;stroke-miterlimit:10;stroke-width:0.25px"/></g><g id="LINE-44" data-name="LINE"><line x1="52.544" y1="390.235" x2="52.544" y2="403.29" style="fill:none;stroke:#231f20;stroke-miterlimit:10;stroke-width:0.25px"/></g><g id="LINE-45" data-name="LINE"><line x1="54.964" y1="390.235" x2="54.964" y2="403.29" style="fill:none;stroke:#231f20;stroke-miterlimit:10;stroke-width:0.25px"/></g><g id="LINE-46" data-name="LINE"><line x1="57.383" y1="390.235" x2="57.384" y2="403.29" style="fill:none;stroke:#231f20;stroke-miterlimit:10;stroke-width:0.25px"/></g><g id="LINE-47" data-name="LINE"><line x1="59.802" y1="390.235" x2="59.803" y2="403.29" style="fill:none;stroke:#231f20;stroke-miterlimit:10;stroke-width:0.25px"/></g><g id="LINE-48" data-name="LINE"><line x1="62.222" y1="390.235" x2="62.222" y2="403.29" style="fill:none;stroke:#231f20;stroke-miterlimit:10;stroke-width:0.25px"/></g><g id="LINE-49" data-name="LINE"><line x1="64.641" y1="403.289" x2="64.641" y2="390.235" style="fill:none;stroke:#231f20;stroke-miterlimit:10;stroke-width:0.25px"/></g><g id="ARC-36" data-name="ARC"><path d="M47.063,321.928c-3.094-.342-11.269-.985-11.269-.985" style="fill:#fff;stroke:#231f20;stroke-linecap:round;stroke-linejoin:round;stroke-width:0.25px"/></g><g id="ARC-37" data-name="ARC"><path d="M39.889,332.938a.825.825,0,0,0,.507.753q.51.212,1.033.387a14.407,14.407,0,0,0,2.866.628q.775.088,1.556.129a15.259,15.259,0,0,0,4.066-.335,9.887,9.887,0,0,0,5.188-3,4.686,4.686,0,0,0-.062-6.383,9.893,9.893,0,0,0-5.245-2.9,15.282,15.282,0,0,0-4.072-.256q-.778.055-1.553.159a14.479,14.479,0,0,0-2.853.683q-.521.186-1.025.408a.823.823,0,0,0-.493.762Z" style="fill:#fff;stroke:#231f20;stroke-linecap:round;stroke-linejoin:round;stroke-width:0.25px"/></g><g id="ARC-38" data-name="ARC"><path d="M47.188,334.846c-3.087.4-11.394.992-11.394.992" style="fill:#fff;stroke:#231f20;stroke-linecap:round;stroke-linejoin:round;stroke-width:0.25px"/></g><g id="ARC-39" data-name="ARC"><path d="M35.937,320.949a1.076,1.076,0,0,1,1.016.946,54.019,54.019,0,0,1,.386,6.5,54.043,54.043,0,0,1-.386,6.5,1.076,1.076,0,0,1-1.016.945h.022q-1.672.079-3.345.121a1.434,1.434,0,0,1-1.457-1.31q-.271-3.118-.268-6.251t.268-6.252a1.432,1.432,0,0,1,1.457-1.309q1.673.041,3.345.121Z" style="fill:#fff;stroke:#231f20;stroke-linecap:round;stroke-linejoin:round;stroke-width:0.25px"/></g><g id="LWPOLYLINE-143" data-name="LWPOLYLINE"><path d="M37.207,291.146v8.123a.9.9,0,0,0,.9.9H48.94a.9.9,0,0,0,.9-.9V282.121a.9.9,0,0,0-.9-.9H38.109a.9.9,0,0,0-.9.9v9.025Z" style="fill:none;stroke:#231f20;stroke-linecap:round;stroke-linejoin:round;stroke-width:0.25px"/></g><g id="ARC-40" data-name="ARC"><path d="M34.958,290.24a1.138,1.138,0,1,0,0,.91Z" style="fill:#fff;stroke:#231f20;stroke-linecap:round;stroke-linejoin:round;stroke-width:0.25px"/></g><g id="ARC-41" data-name="ARC"><path d="M33.688,285.029a1.138,1.138,0,1,0,.455,0Z" style="fill:#fff;stroke:#231f20;stroke-linecap:round;stroke-linejoin:round;stroke-width:0.25px"/></g><g id="ARC-42" data-name="ARC"><path d="M33.688,296.36a1.138,1.138,0,1,1,.455,0Z" style="fill:#fff;stroke:#231f20;stroke-linecap:round;stroke-linejoin:round;stroke-width:0.25px"/></g><g id="LINE-50" data-name="LINE"><path d="M39.376,290.24H33.915a.455.455,0,1,0,0,.91h5.461a.455.455,0,0,0,0-.91Z" style="fill:#fff;stroke:#231f20;stroke-linecap:round;stroke-linejoin:round;stroke-width:0.25px"/></g><line x1="33.915" y1="286.156" x2="33.915" y2="282.959" style="fill:#fff;stroke:#231f20;stroke-linecap:round;stroke-linejoin:round;stroke-width:0.25px"/><line x1="33.915" y1="298.432" x2="33.915" y2="295.234" style="fill:#fff;stroke:#231f20;stroke-linecap:round;stroke-linejoin:round;stroke-width:0.25px"/><g id="LWPOLYLINE-144" data-name="LWPOLYLINE"><path d="M37.207,264.085v8.123a.9.9,0,0,0,.9.9H48.94a.9.9,0,0,0,.9-.9V255.06a.9.9,0,0,0-.9-.9H38.109a.9.9,0,0,0-.9.9v9.025Z" style="fill:none;stroke:#231f20;stroke-linecap:round;stroke-linejoin:round;stroke-width:0.25px"/></g><g id="LWPOLYLINE-145" data-name="LWPOLYLINE"><rect x="30.889" y="247.162" width="21.661" height="64.983" style="fill:none;stroke:#231f20;stroke-linecap:round;stroke-linejoin:round;stroke-width:0.25px"/></g><g id="ARC-43" data-name="ARC"><path d="M34.958,262.953a1.138,1.138,0,1,0,0,.91Z" style="fill:#fff;stroke:#231f20;stroke-linecap:round;stroke-linejoin:round;stroke-width:0.25px"/></g><g id="ARC-44" data-name="ARC"><path d="M33.688,257.742a1.138,1.138,0,1,0,.455,0Z" style="fill:#fff;stroke:#231f20;stroke-linecap:round;stroke-linejoin:round;stroke-width:0.25px"/></g><g id="ARC-45" data-name="ARC"><path d="M33.688,269.073a1.138,1.138,0,1,1,.455,0Z" style="fill:#fff;stroke:#231f20;stroke-linecap:round;stroke-linejoin:round;stroke-width:0.25px"/></g><g id="LINE-51" data-name="LINE"><path d="M39.376,262.953H33.915a.455.455,0,1,0,0,.91h5.461a.455.455,0,0,0,0-.91Z" style="fill:#fff;stroke:#231f20;stroke-linecap:round;stroke-linejoin:round;stroke-width:0.25px"/></g><line x1="33.915" y1="258.869" x2="33.915" y2="255.672" style="fill:#fff;stroke:#231f20;stroke-linecap:round;stroke-linejoin:round;stroke-width:0.25px"/><line x1="33.915" y1="271.144" x2="33.915" y2="267.947" style="fill:#fff;stroke:#231f20;stroke-linecap:round;stroke-linejoin:round;stroke-width:0.25px"/><g id="LWPOLYLINE-146" data-name="LWPOLYLINE"><rect x="176.178" y="461.377" width="24.78" height="19.028" style="fill:#fff;stroke:#231f20;stroke-linecap:round;stroke-linejoin:round;stroke-width:0.25px"/></g><g id="LWPOLYLINE-147" data-name="LWPOLYLINE"><path d="M196.091,476.688a1.063,1.063,0,0,1-1.062,1.062H182.108a1.062,1.062,0,0,1-1.062-1.062V467.13a.885.885,0,0,1,.885-.885h13.275a.885.885,0,0,1,.885.885Z" style="fill:#fff;stroke:#231f20;stroke-linecap:round;stroke-linejoin:round;stroke-width:0.25px"/></g><g id="ARC-46" data-name="ARC"><path d="M210.551,477.237c-.335-3.034-.966-11.05-.966-11.05" style="fill:#fff;stroke:#231f20;stroke-linecap:round;stroke-linejoin:round;stroke-width:0.25px"/></g><g id="ARC-47" data-name="ARC"><path d="M221.348,470.2a.808.808,0,0,1,.738.5q.207.5.38,1.012a14.15,14.15,0,0,1,.615,2.811q.087.76.127,1.525a14.958,14.958,0,0,1-.329,3.987,9.7,9.7,0,0,1-2.94,5.088,4.6,4.6,0,0,1-6.259-.061,9.689,9.689,0,0,1-2.842-5.143,14.943,14.943,0,0,1-.251-3.993q.054-.764.156-1.523a14.168,14.168,0,0,1,.67-2.8c.121-.339.254-.675.4-1a.808.808,0,0,1,.748-.483Z" style="fill:#fff;stroke:#231f20;stroke-linecap:round;stroke-linejoin:round;stroke-width:0.25px"/></g><g id="ARC-48" data-name="ARC"><path d="M223.218,477.36c.394-3.028.974-11.173.974-11.173" style="fill:#fff;stroke:#231f20;stroke-linecap:round;stroke-linejoin:round;stroke-width:0.25px"/></g><g id="ARC-49" data-name="ARC"><path d="M209.592,466.327a1.054,1.054,0,0,0,.927,1,53.713,53.713,0,0,0,12.739,0,1.055,1.055,0,0,0,.927-1v.022q.078-1.64.119-3.281a1.406,1.406,0,0,0-1.284-1.429q-3.059-.264-6.131-.262t-6.13.262a1.406,1.406,0,0,0-1.284,1.429q.041,1.641.119,3.281Z" style="fill:#fff;stroke:#231f20;stroke-linecap:round;stroke-linejoin:round;stroke-width:0.25px"/></g><g id="ARC-50" data-name="ARC"><path d="M188.122,464.867a1.116,1.116,0,1,1,.892,0Z" style="fill:#fff;stroke:#231f20;stroke-linecap:round;stroke-linejoin:round;stroke-width:0.25px"/></g><g id="ARC-51" data-name="ARC"><path d="M183.013,463.621a1.116,1.116,0,1,1,0,.447Z" style="fill:#fff;stroke:#231f20;stroke-linecap:round;stroke-linejoin:round;stroke-width:0.25px"/></g><g id="ARC-52" data-name="ARC"><path d="M194.124,463.621a1.116,1.116,0,1,0,0,.447Z" style="fill:#fff;stroke:#231f20;stroke-linecap:round;stroke-linejoin:round;stroke-width:0.25px"/></g><g id="LINE-52" data-name="LINE"><path d="M188.122,469.2v-5.355a.446.446,0,1,1,.892,0V469.2a.446.446,0,1,1-.892,0Z" style="fill:#fff;stroke:#231f20;stroke-linecap:round;stroke-linejoin:round;stroke-width:0.25px"/></g><line x1="184.117" y1="463.844" x2="180.982" y2="463.844" style="fill:#fff;stroke:#231f20;stroke-linecap:round;stroke-linejoin:round;stroke-width:0.25px"/><line x1="196.154" y1="463.844" x2="193.019" y2="463.844" style="fill:#fff;stroke:#231f20;stroke-linecap:round;stroke-linejoin:round;stroke-width:0.25px"/><g id="LWPOLYLINE-148" data-name="LWPOLYLINE"><rect x="290.31" y="525.108" width="20.451" height="26.634" style="fill:#fff;stroke:#231f20;stroke-linecap:round;stroke-linejoin:round;stroke-width:0.25px"/></g><g id="LWPOLYLINE-149" data-name="LWPOLYLINE"><path d="M294.305,530.34a1.141,1.141,0,0,0-1.141,1.141v13.888a1.141,1.141,0,0,0,1.141,1.142h10.273a.952.952,0,0,0,.952-.952V531.291a.951.951,0,0,0-.952-.951Z" style="fill:#fff;stroke:#231f20;stroke-linecap:round;stroke-linejoin:round;stroke-width:0.25px"/></g><g id="ARC-53" data-name="ARC"><path d="M293.714,514.8c3.262.36,11.877,1.038,11.877,1.038" style="fill:#fff;stroke:#231f20;stroke-linecap:round;stroke-linejoin:round;stroke-width:0.25px"/></g><g id="ARC-54" data-name="ARC"><path d="M301.276,503.193a.869.869,0,0,0-.535-.793q-.537-.224-1.088-.408a15.16,15.16,0,0,0-3.021-.662q-.818-.093-1.64-.136a16.064,16.064,0,0,0-4.285.353,10.423,10.423,0,0,0-5.468,3.161,4.939,4.939,0,0,0,.065,6.727,10.424,10.424,0,0,0,5.528,3.054,16.051,16.051,0,0,0,4.292.27q.82-.058,1.636-.167a15.292,15.292,0,0,0,3.008-.72q.548-.2,1.08-.43a.868.868,0,0,0,.519-.8Z" style="fill:#fff;stroke:#231f20;stroke-linecap:round;stroke-linejoin:round;stroke-width:0.25px"/></g><g id="ARC-55" data-name="ARC"><path d="M293.583,501.183c3.254-.423,12.008-1.046,12.008-1.046" style="fill:#fff;stroke:#231f20;stroke-linecap:round;stroke-linejoin:round;stroke-width:0.25px"/></g><g id="ARC-56" data-name="ARC"><path d="M305.441,515.829a1.133,1.133,0,0,1-1.07-1,57.648,57.648,0,0,1,0-13.693,1.132,1.132,0,0,1,1.07-1h-.023q1.761-.084,3.526-.128a1.511,1.511,0,0,1,1.535,1.38q.285,3.287.282,6.589t-.282,6.589a1.51,1.51,0,0,1-1.535,1.38q-1.764-.043-3.526-.127Z" style="fill:#fff;stroke:#231f20;stroke-linecap:round;stroke-linejoin:round;stroke-width:0.25px"/></g><g id="ARC-57" data-name="ARC"><path d="M307.01,538.905a1.2,1.2,0,1,0,0-.959Z" style="fill:#fff;stroke:#231f20;stroke-linecap:round;stroke-linejoin:round;stroke-width:0.25px"/></g><g id="ARC-58" data-name="ARC"><path d="M308.349,544.4a1.2,1.2,0,1,0-.48,0Z" style="fill:#fff;stroke:#231f20;stroke-linecap:round;stroke-linejoin:round;stroke-width:0.25px"/></g><g id="ARC-59" data-name="ARC"><path d="M308.349,532.454a1.2,1.2,0,1,1-.48,0Z" style="fill:#fff;stroke:#231f20;stroke-linecap:round;stroke-linejoin:round;stroke-width:0.25px"/></g><g id="LINE-53" data-name="LINE"><path d="M302.354,538.905h5.755a.48.48,0,1,0,0-.959h-5.755a.48.48,0,1,0,0,.959Z" style="fill:#fff;stroke:#231f20;stroke-linecap:round;stroke-linejoin:round;stroke-width:0.25px"/></g><line x1="308.109" y1="543.21" x2="308.109" y2="546.579" style="fill:#fff;stroke:#231f20;stroke-linecap:round;stroke-linejoin:round;stroke-width:0.25px"/><line x1="308.109" y1="530.271" x2="308.109" y2="533.641" style="fill:#fff;stroke:#231f20;stroke-linecap:round;stroke-linejoin:round;stroke-width:0.25px"/><g id="LWPOLYLINE-150" data-name="LWPOLYLINE"><polygon points="287.544 575.834 287.544 573.959 319.536 573.959 319.536 495.317 319.067 495.317 319.067 431.919 326.919 431.919 326.919 429.575 326.919 420.837 321.294 420.837 321.248 418.099 315.552 418.099 315.552 423.063 278.295 423.063 278.295 426.771 283.92 426.771 283.92 434.154 287.436 434.154 287.436 429.86 309.936 429.86 309.936 486.345 287.436 486.345 287.436 479.154 283.92 479.154 283.92 486.345 278.647 486.345 278.647 488.688 314.272 488.688 314.272 490.798 278.647 490.798 278.647 493.142 310.981 493.142 310.981 558.767 281.919 558.767 281.919 564.584 283.794 564.584 283.794 575.834 284.192 575.834 287.544 575.834" style="fill:#e1e5e5;stroke:#231f20;stroke-miterlimit:10;stroke-width:0.4px"/></g><g id="LWPOLYLINE-151" data-name="LWPOLYLINE"><polygon points="244.419 575.834 244.419 564.584 246.294 564.584 246.294 558.767 240.669 558.767 240.669 493.142 244.076 493.142 244.076 486.345 240.669 486.345 240.669 426.771 244.545 426.771 244.545 423.063 217.358 423.063 217.358 404.263 213.842 404.263 213.842 407.82 208.451 407.82 208.451 411.528 213.842 411.528 213.842 445.086 167.904 445.086 167.904 411.528 174.701 411.507 174.701 407.799 160.99 407.82 160.99 411.528 164.389 411.528 164.389 490.082 167.904 490.082 167.904 461.267 230.717 461.267 230.717 558.767 219.516 558.767 219.516 564.584 221.391 564.584 221.391 575.834 225.141 575.834 225.141 573.959 240.669 573.959 240.669 575.834 244.419 575.834" style="fill:#e1e5e5;stroke:#231f20;stroke-miterlimit:10;stroke-width:0.4px"/></g><g id="LWPOLYLINE-152" data-name="LWPOLYLINE"><polygon points="178.266 575.834 182.016 575.834 182.016 564.584 183.891 564.584 183.891 558.959 172.592 558.959 172.592 527.272 167.904 527.272 167.904 523.832 164.389 523.832 164.389 537.087 145.053 537.087 145.053 564.584 147.865 564.584 147.865 575.834 151.606 575.834 151.606 573.959 178.266 573.959 178.266 575.834" style="fill:#e1e5e5;stroke:#231f20;stroke-miterlimit:10;stroke-width:0.4px"/></g><g id="LWPOLYLINE-153" data-name="LWPOLYLINE"><polygon points="57.856 575.834 57.856 564.584 58.794 564.584 58.794 558.959 27.973 558.959 27.973 411.528 56.977 411.528 56.977 407.82 48.598 407.82 48.598 385.32 100.161 385.32 100.161 407.82 90.727 407.82 90.727 411.528 127.24 411.528 127.24 407.82 103.676 407.82 103.676 366.57 107.426 366.57 107.426 360.828 103.676 360.828 103.676 277.934 100.161 277.934 100.161 381.805 30.786 381.805 30.786 346.372 64.536 346.372 64.536 342.622 30.786 342.622 30.786 205.789 100.161 205.789 100.161 244.184 103.676 244.184 103.676 205.789 107.426 205.747 107.426 202.231 22.817 202.273 22.817 55.98 33.95 55.98 33.95 22.7 4.419 22.7 4.37 22.7 0.2 22.7 0.2 302.075 5.356 302.075 5.356 573.959 54.106 573.959 54.106 575.834 57.856 575.834" style="fill:#e1e5e5;stroke:#231f20;stroke-miterlimit:10;stroke-width:0.4px"/></g><g id="LWPOLYLINE-154" data-name="LWPOLYLINE"><polygon points="321.294 382.943 321.294 370.404 381.528 370.404 383.638 370.404 383.638 242.075 395.298 242.075 395.298 6.665 395.239 6.696 392.914 7.487 390.49 7.888 388.035 7.888 385.612 7.487 383.009 6.548 381.121 5.537 379.175 4.039 377.498 2.244 376.138 0.2 372.388 0.2 372.388 39.575 371.684 39.575 371.684 66.059 392.427 66.059 392.427 204.5 350.825 204.5 350.825 243.13 374.263 243.13 374.263 360.125 263.872 360.125 263.872 336.687 259.302 336.687 259.302 360.125 254.858 360.125 254.858 364.888 315.552 364.888 315.552 384.349 321.248 384.349 321.294 382.943" style="fill:#e1e5e5;stroke:#231f20;stroke-miterlimit:10;stroke-width:0.4px"/></g><g id="LWPOLYLINE-155" data-name="LWPOLYLINE"><polygon points="213.842 370.513 217.358 370.513 217.358 364.888 221.108 364.888 221.108 360.125 217.358 360.125 217.358 204.5 191.45 204.5 191.45 67.817 214.067 67.817 214.067 39.574 211.137 39.574 211.137 22.7 208.324 22.703 208.113 24.577 207.489 26.361 206.483 27.96 205.147 29.296 203.548 30.302 201.764 30.926 199.887 31.137 198.01 30.926 196.226 30.302 194.626 29.296 193.291 27.96 192.285 26.361 191.661 24.577 191.45 22.7 188.637 22.7 188.638 39.574 185.708 39.574 185.708 202.273 141.176 202.231 141.176 205.747 144.926 205.789 144.926 238.677 148.442 238.677 148.442 235.086 170.942 235.086 170.942 276.101 148.442 276.101 148.442 272.427 144.926 272.427 144.926 300.2 148.442 300.2 148.442 279.617 213.842 279.617 213.842 337.508 148.442 337.508 148.442 333.95 144.926 333.95 144.926 360.828 141.176 360.828 141.176 366.763 213.842 366.763 213.842 370.513" style="fill:#e1e5e5;stroke:#231f20;stroke-miterlimit:10;stroke-width:0.4px"/></g><g id="LWPOLYLINE-156" data-name="LWPOLYLINE"><polygon points="296.544 45.2 303.012 45.2 303.012 22.7 300.199 22.703 299.988 24.578 299.364 26.361 298.359 27.961 297.023 29.297 295.423 30.302 293.456 30.947 291.762 31.138 289.885 30.926 288.101 30.302 286.501 29.297 285.165 27.961 284.16 26.361 283.536 24.578 283.325 22.7 280.512 22.7 280.512 45.2 296.544 45.2" style="fill:#e1e5e5;stroke:#231f20;stroke-miterlimit:10;stroke-width:0.4px"/></g><g id="LWPOLYLINE-157" data-name="LWPOLYLINE"><polygon points="111.263 45.2 122.544 45.2 122.544 22.7 119.731 22.703 119.52 24.578 118.896 26.361 117.89 27.961 116.554 29.297 114.955 30.302 113.171 30.926 111.263 31.134 109.416 30.926 107.633 30.302 106.033 29.297 104.697 27.961 103.692 26.361 103.068 24.578 102.856 22.7 100.044 22.703 100.044 45.2 111.263 45.2" style="fill:#e1e5e5;stroke:#231f20;stroke-miterlimit:10;stroke-width:0.4px"/></g><g id="LWPOLYLINE-158" data-name="LWPOLYLINE"><polygon points="178.266 575.834 182.016 575.834 182.016 564.584 183.891 564.584 183.891 558.959 172.592 558.959 172.592 527.272 167.904 527.272 167.904 523.832 164.389 523.832 164.389 537.087 145.053 537.087 145.053 564.584 147.865 564.584 147.865 575.834 151.606 575.834 151.606 573.959 178.266 573.959 178.266 575.834" style="fill:#e1e5e5;stroke:#231f20;stroke-miterlimit:10;stroke-width:0.4px"/></g><g id="LWPOLYLINE-159" data-name="LWPOLYLINE"><polygon points="296.544 45.2 303.012 45.2 303.012 22.7 300.199 22.703 299.988 24.578 299.364 26.361 298.359 27.961 297.023 29.297 295.423 30.302 293.456 30.947 291.762 31.138 289.885 30.926 288.101 30.302 286.501 29.297 285.165 27.961 284.16 26.361 283.536 24.578 283.325 22.7 280.512 22.7 280.512 45.2 296.544 45.2" style="fill:#e1e5e5;stroke:#231f20;stroke-miterlimit:10;stroke-width:0.4px"/></g><g id="LWPOLYLINE-160" data-name="LWPOLYLINE"><polygon points="111.263 45.2 122.544 45.2 122.544 22.7 119.731 22.703 119.52 24.578 118.896 26.361 117.89 27.961 116.554 29.297 114.955 30.302 113.171 30.926 111.263 31.134 109.416 30.926 107.633 30.302 106.033 29.297 104.697 27.961 103.692 26.361 103.068 24.578 102.856 22.7 100.044 22.703 100.044 45.2 111.263 45.2" style="fill:#e1e5e5;stroke:#231f20;stroke-miterlimit:10;stroke-width:0.4px"/></g><path d="M63.907,115.543h.88l1.815,4.446h.016l1.815-4.446h.879v5.6h-.663V116.6h-.016l-1.887,4.542h-.28L64.579,116.6h-.016v4.542h-.656Z" style="fill:#231f20"/><path d="M74.25,120.012H71.732l-.392,1.128h-.679l2.014-5.6h.64l2.007,5.6h-.679Zm-.2-.575L73,116.447h-.016l-1.047,2.99Z" style="fill:#231f20"/><path d="M76.209,119.285l.656-.111a1.464,1.464,0,0,0,1.655,1.462c.776,0,1.288-.36,1.288-.9,0-.568-.376-.88-1.544-1.248-1.335-.439-1.783-.831-1.783-1.583,0-.871.736-1.478,1.791-1.478a1.953,1.953,0,0,1,2.031,1.63l-.647.136a1.343,1.343,0,0,0-1.392-1.143c-.679,0-1.127.336-1.127.855,0,.432.32.664,1.343.983,1.455.472,1.983.96,1.983,1.84,0,.911-.792,1.535-1.951,1.535A2.055,2.055,0,0,1,76.209,119.285Z" style="fill:#231f20"/><path d="M83.248,116.167H81.505v-.624h4.15v.624H83.912v4.973h-.664Z" style="fill:#231f20"/><path d="M87.127,115.543h3.358v.624h-2.7v1.791h2.478v.592H87.783v1.966h2.7v.624H87.127Z" style="fill:#231f20"/><path d="M94.581,118.838l1.231,2.3h-.775l-1.184-2.271H92.734v2.271h-.656v-5.6h2.039c1.168,0,1.863.624,1.863,1.655a1.545,1.545,0,0,1-1.4,1.623Zm-.52-.592c.824,0,1.255-.361,1.255-1.048s-.423-1.031-1.255-1.031H92.734v2.079Z" style="fill:#231f20"/><path d="M61.393,124.043h2.15a1.458,1.458,0,0,1,1.632,1.447,1.194,1.194,0,0,1-.656,1.151v.017a1.341,1.341,0,0,1,.863,1.327c0,1.079-.679,1.655-1.967,1.655H61.393Zm2.03,2.375c.728,0,1.088-.3,1.088-.9,0-.559-.368-.855-1.088-.855H62.048v1.751Zm-.095,2.6c.975,0,1.391-.311,1.391-1.031,0-.695-.392-.983-1.375-.983h-1.3v2.014Z" style="fill:#231f20"/><path d="M67.017,124.043h3.358v.624h-2.7v1.791h2.479v.592H67.672v1.966h2.7v.624H67.017Z" style="fill:#231f20"/><path d="M71.968,124.043h1.743c1.415,0,2.414,1.023,2.414,2.791,0,1.974-1,2.806-2.462,2.806H71.968Zm1.655,4.973c1.135,0,1.839-.6,1.839-2.182,0-1.432-.7-2.167-1.791-2.167H72.623v4.349Z" style="fill:#231f20"/><path d="M80.258,127.338l1.231,2.3h-.775l-1.183-2.271h-1.12v2.271h-.656v-5.6h2.039c1.168,0,1.863.624,1.863,1.655a1.544,1.544,0,0,1-1.4,1.623Zm-.52-.592c.824,0,1.256-.361,1.256-1.048s-.424-1.031-1.256-1.031H78.411v2.079Z" style="fill:#231f20"/><path d="M82.921,126.842c0-1.751.943-2.918,2.359-2.918s2.358,1.167,2.358,2.918-.943,2.918-2.358,2.918S82.921,128.593,82.921,126.842Zm4.054,0c0-1.415-.648-2.3-1.695-2.3s-1.7.88-1.7,2.3.648,2.294,1.7,2.294S86.975,128.257,86.975,126.842Z" style="fill:#231f20"/><path d="M88.981,126.842c0-1.751.944-2.918,2.359-2.918s2.359,1.167,2.359,2.918-.944,2.918-2.359,2.918S88.981,128.593,88.981,126.842Zm4.054,0c0-1.415-.647-2.3-1.695-2.3s-1.7.88-1.7,2.3.647,2.294,1.7,2.294S93.035,128.257,93.035,126.842Z" style="fill:#231f20"/><path d="M95.329,124.043h.879l1.816,4.446h.015l1.816-4.446h.879v5.6h-.663V125.1h-.016l-1.888,4.542h-.279L96,125.1h-.016v4.542h-.656Z" style="fill:#231f20"/><path d="M55.99,133.295l-1.247.807v-.695l1.327-.864h.584v5.6H55.99Z" style="fill:#231f20"/><path d="M60.872,137h-2.8v-.576l2.463-3.878h1v3.87h.711V137h-.711v1.143h-.664Zm0-.584v-3.35h-.016l-2.126,3.35Z" style="fill:#231f20"/><path d="M63.6,132.543h.584v1.783H63.6Z" style="fill:#231f20"/><path d="M65.323,134.95H67.41v.6H65.323Z" style="fill:#231f20"/><path d="M68.683,136.661l.647-.16a1.413,1.413,0,1,0,1.431-1.583,1.807,1.807,0,0,0-1.351.592l-.583-.144.535-2.823H72.3v.624h-2.43l-.3,1.551.016.008a2.088,2.088,0,0,1,1.287-.383,1.877,1.877,0,0,1,1.943,1.926,1.929,1.929,0,0,1-2.047,1.991A1.955,1.955,0,0,1,68.683,136.661Z" style="fill:#231f20"/><path d="M74.062,132.543h.584v1.783h-.584Zm1.056,0H75.7v1.783h-.583Z" style="fill:#231f20"/><path d="M79.4,136.7l1.311-1.295-1.311-1.3.392-.391,1.288,1.311,1.294-1.311.393.391-1.312,1.3,1.312,1.295-.393.392-1.294-1.312-1.288,1.312Z" style="fill:#231f20"/><path d="M86.942,133.295l-1.248.807v-.695l1.327-.864h.584v5.6h-.663Z" style="fill:#231f20"/><path d="M91.824,137h-2.8v-.576l2.463-3.878h1v3.87H93.2V137h-.712v1.143h-.663Zm0-.584v-3.35h-.016l-2.127,3.35Z" style="fill:#231f20"/><path d="M94.555,132.543h.583v1.783h-.583Z" style="fill:#231f20"/><path d="M96.552,134.95h2.087v.6H96.552Z" style="fill:#231f20"/><path d="M99.912,136.661l.647-.16a1.413,1.413,0,1,0,1.432-1.583,1.806,1.806,0,0,0-1.352.592l-.583-.144.535-2.823h2.935v.624H101.1l-.3,1.551.016.008a2.088,2.088,0,0,1,1.287-.383,1.878,1.878,0,0,1,1.944,1.926,1.929,1.929,0,0,1-2.047,1.991A1.955,1.955,0,0,1,99.912,136.661Z" style="fill:#231f20"/><path d="M105.291,132.543h.583v1.783h-.583Zm1.056,0h.583v1.783h-.583Z" style="fill:#231f20"/><path d="M71.251,433.914H73.4a1.457,1.457,0,0,1,1.631,1.447,1.194,1.194,0,0,1-.656,1.151v.016a1.342,1.342,0,0,1,.864,1.327c0,1.08-.68,1.655-1.967,1.655H71.251Zm2.031,2.375c.728,0,1.088-.3,1.088-.9,0-.559-.369-.855-1.088-.855H71.907v1.751Zm-.1,2.6c.976,0,1.391-.312,1.391-1.032,0-.695-.392-.983-1.375-.983h-1.3v2.015Z" style="fill:#231f20"/><path d="M76.875,433.914h3.358v.624h-2.7v1.791h2.478v.592H77.531v1.966h2.7v.623H76.875Z" style="fill:#231f20"/><path d="M81.826,433.914h1.743c1.415,0,2.415,1.023,2.415,2.79,0,1.975-1,2.806-2.463,2.806h-1.7Zm1.655,4.973c1.136,0,1.839-.6,1.839-2.183,0-1.431-.7-2.166-1.791-2.166H82.482v4.349Z" style="fill:#231f20"/><path d="M90.117,437.208l1.231,2.3h-.776l-1.183-2.27h-1.12v2.27h-.655v-5.6h2.039c1.167,0,1.863.624,1.863,1.655a1.544,1.544,0,0,1-1.4,1.623Zm-.52-.592c.823,0,1.255-.359,1.255-1.047s-.424-1.031-1.255-1.031H88.269v2.078Z" style="fill:#231f20"/><path d="M92.779,436.713c0-1.751.944-2.919,2.359-2.919s2.359,1.168,2.359,2.919-.944,2.918-2.359,2.918S92.779,438.464,92.779,436.713Zm4.054,0c0-1.416-.648-2.3-1.695-2.3s-1.7.879-1.7,2.3.647,2.294,1.7,2.294S96.833,438.128,96.833,436.713Z" style="fill:#231f20"/><path d="M98.84,436.713c0-1.751.943-2.919,2.359-2.919s2.358,1.168,2.358,2.919-.943,2.918-2.358,2.918S98.84,438.464,98.84,436.713Zm4.053,0c0-1.416-.647-2.3-1.694-2.3s-1.7.879-1.7,2.3.648,2.294,1.7,2.294S102.893,438.128,102.893,436.713Z" style="fill:#231f20"/><path d="M105.187,433.914h.88l1.815,4.445h.016l1.815-4.445h.88v5.6h-.664v-4.541h-.016l-1.887,4.541h-.28l-1.887-4.541h-.016v4.541h-.656Z" style="fill:#231f20"/><path d="M115.627,438.887h3.014v.623h-3.718v-.527a2.013,2.013,0,0,1,.232-1.063c.2-.368.544-.64,1.423-1.1,1.16-.6,1.5-.936,1.5-1.5,0-.535-.488-.911-1.168-.911a1.3,1.3,0,0,0-1.4,1.359l-.664-.057a1.927,1.927,0,0,1,2.063-1.926,1.68,1.68,0,0,1,1.831,1.535c0,.824-.416,1.311-1.647,1.935-.935.472-1.191.656-1.335.936A1.554,1.554,0,0,0,115.627,438.887Z" style="fill:#231f20"/><path d="M70.882,443.166l-1.247.807v-.7l1.327-.863h.584v5.6h-.664Z" style="fill:#231f20"/><path d="M74.008,447.387h3.014v.623H73.3v-.527a2.013,2.013,0,0,1,.232-1.063c.2-.368.544-.64,1.423-1.1,1.16-.6,1.5-.936,1.5-1.5,0-.535-.488-.911-1.168-.911a1.3,1.3,0,0,0-1.4,1.359l-.664-.057a1.927,1.927,0,0,1,2.063-1.926,1.68,1.68,0,0,1,1.831,1.535c0,.824-.416,1.311-1.647,1.935-.935.472-1.191.656-1.335.936A1.554,1.554,0,0,0,74.008,447.387Z" style="fill:#231f20"/><path d="M78.845,442.414h.583V444.2h-.583Z" style="fill:#231f20"/><path d="M80.565,444.82h2.087v.6H80.565Z" style="fill:#231f20"/><path d="M84.915,443.166l-1.248.807v-.7L85,442.414h.584v5.6h-.664Z" style="fill:#231f20"/><path d="M87.541,442.414h.584V444.2h-.584Zm1.056,0h.584V444.2H88.6Z" style="fill:#231f20"/><path d="M92.877,446.572l1.311-1.3-1.311-1.3.392-.391,1.288,1.31,1.294-1.31.393.391-1.312,1.3,1.312,1.3-.393.392-1.294-1.312-1.288,1.312Z" style="fill:#231f20"/><path d="M100.421,443.166l-1.248.807v-.7l1.327-.863h.584v5.6h-.663Z" style="fill:#231f20"/><path d="M102.675,446.148l.655-.1c.112.983.584,1.463,1.408,1.463a1.072,1.072,0,0,0,1.2-1.08c0-.759-.432-1.119-1.319-1.119h-.4v-.576h.4c.664,0,1.175-.4,1.175-.9,0-.575-.4-.928-1.063-.928a1.185,1.185,0,0,0-1.264,1.056l-.647-.1a1.8,1.8,0,0,1,1.911-1.567,1.539,1.539,0,0,1,1.727,1.487,1.352,1.352,0,0,1-.76,1.176v.015a1.489,1.489,0,0,1,.9,1.455,1.69,1.69,0,0,1-1.855,1.7A1.973,1.973,0,0,1,102.675,446.148Z" style="fill:#231f20"/><path d="M108.251,442.414h.583V444.2h-.583Z" style="fill:#231f20"/><path d="M110.248,444.82h2.087v.6h-2.087Z" style="fill:#231f20"/><path d="M115.645,443.053v-.015h-2.91v-.624H116.4v.576l-2.271,5.02h-.743Z" style="fill:#231f20"/><path d="M118.02,442.414h.584V444.2h-.584Zm1.056,0h.583V444.2h-.583Z" style="fill:#231f20"/><path d="M244.206,202.81h.656v4.974h2.527v.623h-3.183Z" style="fill:#231f20"/><path d="M248.86,202.81h.656v5.6h-.656Z" style="fill:#231f20"/><path d="M250.851,202.81h.695l1.663,4.718h.016l1.672-4.718h.687l-2.015,5.6h-.7Z" style="fill:#231f20"/><path d="M256.932,202.81h.655v5.6h-.655Z" style="fill:#231f20"/><path d="M259.5,202.81h.777l2.542,4.566h.016V202.81h.664v5.6h-.784l-2.543-4.565h-.015v4.565H259.5Z" style="fill:#231f20"/><path d="M265.127,205.609c0-1.775.927-2.918,2.359-2.918a2.076,2.076,0,0,1,2.127,1.847l-.656.119a1.43,1.43,0,0,0-1.471-1.343c-1.048,0-1.7.88-1.7,2.3s.648,2.295,1.7,2.295a1.427,1.427,0,0,0,1.5-1.64h-1.423v-.623h2.07v.568a2.087,2.087,0,0,1-2.142,2.319C266.054,208.528,265.127,207.384,265.127,205.609Z" style="fill:#231f20"/><path d="M273.24,208.528l2.854-6.037.447.2-2.862,6.02Z" style="fill:#231f20"/><path d="M280.479,202.81h1.743c1.415,0,2.414,1.024,2.414,2.791,0,1.975-1,2.806-2.462,2.806h-1.695Zm1.655,4.974c1.135,0,1.839-.6,1.839-2.183,0-1.431-.7-2.167-1.791-2.167h-1.048v4.35Z" style="fill:#231f20"/><path d="M286.276,202.81h.656v5.6h-.656Z" style="fill:#231f20"/><path d="M288.843,202.81h.777l2.542,4.566h.016V202.81h.663v5.6h-.783l-2.543-4.565H289.5v4.565h-.656Z" style="fill:#231f20"/><path d="M294.766,202.81h.655v5.6h-.655Z" style="fill:#231f20"/><path d="M297.332,202.81h.777l2.542,4.566h.016V202.81h.663v5.6h-.783L298,203.842h-.015v4.565h-.657Z" style="fill:#231f20"/><path d="M302.961,205.609c0-1.775.927-2.918,2.359-2.918a2.076,2.076,0,0,1,2.127,1.847l-.656.119a1.43,1.43,0,0,0-1.471-1.343c-1.048,0-1.7.88-1.7,2.3s.648,2.295,1.7,2.295a1.427,1.427,0,0,0,1.5-1.64h-1.423v-.623h2.07v.568a2.087,2.087,0,0,1-2.142,2.319C303.888,208.528,302.961,207.384,302.961,205.609Z" style="fill:#231f20"/><path d="M314.136,206.105l1.231,2.3h-.776l-1.182-2.271h-1.121v2.271h-.655v-5.6h2.039c1.167,0,1.863.624,1.863,1.656a1.546,1.546,0,0,1-1.4,1.623Zm-.52-.592c.824,0,1.256-.36,1.256-1.047s-.424-1.032-1.256-1.032h-1.328v2.079Z" style="fill:#231f20"/><path d="M316.8,205.609c0-1.751.944-2.918,2.359-2.918s2.358,1.167,2.358,2.918-.943,2.919-2.358,2.919S316.8,207.36,316.8,205.609Zm4.054,0c0-1.415-.647-2.3-1.695-2.3s-1.7.88-1.7,2.3.648,2.295,1.7,2.295S320.852,207.024,320.852,205.609Z" style="fill:#231f20"/><path d="M322.859,205.609c0-1.751.943-2.918,2.358-2.918s2.359,1.167,2.359,2.918-.944,2.919-2.359,2.919S322.859,207.36,322.859,205.609Zm4.054,0c0-1.415-.648-2.3-1.7-2.3s-1.695.88-1.695,2.3.647,2.295,1.695,2.295S326.913,207.024,326.913,205.609Z" style="fill:#231f20"/><path d="M329.206,202.81h.88l1.815,4.446h.015l1.816-4.446h.88v5.6h-.664v-4.541h-.016l-1.888,4.541h-.279l-1.887-4.541h-.016v4.541h-.656Z" style="fill:#231f20"/><path d="M262.458,212.062l-1.247.808v-.7l1.327-.864h.584v5.6h-.664Z" style="fill:#231f20"/><path d="M267.474,211.95v-.016h-2.91v-.624h3.662v.576l-2.271,5.021h-.744Z" style="fill:#231f20"/><path d="M269.853,211.31h.584v1.784h-.584Z" style="fill:#231f20"/><path d="M271.574,213.717h2.087v.6h-2.087Z" style="fill:#231f20"/><path d="M275.923,212.062l-1.248.808v-.7L276,211.31h.584v5.6h-.663Z" style="fill:#231f20"/><path d="M278.247,214.109c0-1.815.9-2.918,2.214-2.918s2.215,1.1,2.215,2.918-.9,2.919-2.215,2.919S278.247,215.924,278.247,214.109Zm3.765,0c0-1.463-.615-2.3-1.551-2.3s-1.551.832-1.551,2.3.616,2.295,1.551,2.295S282.012,215.572,282.012,214.109Z" style="fill:#231f20"/><path d="M284.2,211.31h.584v1.784H284.2Zm1.055,0h.584v1.784h-.584Z" style="fill:#231f20"/><path d="M289.534,215.469l1.311-1.3-1.311-1.3.391-.392,1.288,1.311,1.295-1.311.392.392-1.312,1.3,1.312,1.3-.392.391-1.295-1.311-1.288,1.311Z" style="fill:#231f20"/><path d="M297.078,212.062l-1.248.808v-.7l1.327-.864h.584v5.6h-.663Z" style="fill:#231f20"/><path d="M302.093,211.95v-.016h-2.91v-.624h3.661v.576l-2.27,5.021h-.744Z" style="fill:#231f20"/><path d="M304.472,211.31h.584v1.784h-.584Z" style="fill:#231f20"/><path d="M306.469,213.717h2.087v.6h-2.087Z" style="fill:#231f20"/><path d="M313.93,213.773c0,2.271-.607,3.255-2.039,3.255a1.776,1.776,0,0,1-1.8-1.424l.608-.16a1.175,1.175,0,0,0,1.191.976c.888,0,1.3-.568,1.359-2.047h-.007a1.715,1.715,0,0,1-1.44.632,1.794,1.794,0,0,1-1.951-1.919,1.877,1.877,0,0,1,1.983-1.9C313.1,211.191,313.93,212.054,313.93,213.773Zm-.767-.647a1.251,1.251,0,0,0-1.328-1.328,1.312,1.312,0,1,0,1.328,1.328Z" style="fill:#231f20"/><path d="M315.513,211.31h.584v1.784h-.584Zm1.056,0h.584v1.784h-.584Z" style="fill:#231f20"/><path d="M305.274,349.46l1.231,2.3h-.775l-1.184-2.271h-1.119v2.271h-.656v-5.6h2.039c1.168,0,1.863.624,1.863,1.655a1.544,1.544,0,0,1-1.4,1.623Zm-.52-.592c.824,0,1.255-.36,1.255-1.048s-.424-1.031-1.255-1.031h-1.327v2.079Z" style="fill:#231f20"/><path d="M292.884,283.025h1.743c1.415,0,2.414,1.024,2.414,2.791,0,1.975-1,2.806-2.461,2.806h-1.7ZM294.539,288c1.135,0,1.839-.6,1.839-2.183,0-1.431-.7-2.167-1.791-2.167h-1.048V288Z" style="fill:#231f20"/><path d="M297.809,283.025h.68l.823,4.55h.017l1.382-4.55h.624l1.391,4.55h.017l.823-4.55h.68l-1.04,5.6h-.8l-1.375-4.493h-.017l-1.367,4.493h-.808Z" style="fill:#231f20"/><path d="M250.437,395.647H253.8v.624h-2.711v2h2.488v.591h-2.488v2.383h-.655Z" style="fill:#231f20"/><path d="M255.358,398.446c0-1.751.943-2.919,2.358-2.919s2.359,1.168,2.359,2.919-.944,2.918-2.359,2.918S255.358,400.2,255.358,398.446Zm4.054,0c0-1.416-.648-2.3-1.7-2.3s-1.695.879-1.695,2.3.647,2.294,1.695,2.294S259.412,399.861,259.412,398.446Z" style="fill:#231f20"/><path d="M263.065,398.91l-1.959-3.263h.767l1.511,2.614h.017l1.518-2.614h.768l-1.959,3.263v2.334h-.663Z" style="fill:#231f20"/><path d="M267.333,395.647h3.359v.624h-2.7v1.791h2.478v.592h-2.478v1.967h2.7v.623h-3.359Z" style="fill:#231f20"/><path d="M275.108,398.941l1.23,2.3h-.775l-1.184-2.271H273.26v2.271h-.655v-5.6h2.039c1.167,0,1.862.624,1.862,1.655a1.545,1.545,0,0,1-1.4,1.624Zm-.521-.592c.825,0,1.256-.359,1.256-1.047s-.424-1.031-1.256-1.031H273.26v2.078Z" style="fill:#231f20"/><path d="M184.166,424.02h.68l.823,4.549h.017l1.383-4.549h.624l1.39,4.549h.017l.823-4.549h.68l-1.039,5.6h-.8l-1.375-4.493h-.017l-1.367,4.493H185.2Z" style="fill:#231f20"/><path d="M190.9,429.737l2.854-6.037.448.2-2.863,6.021Z" style="fill:#231f20"/><path d="M195.254,424.02H197c1.416,0,2.416,1.024,2.416,2.79,0,1.976-1,2.807-2.463,2.807h-1.7Zm1.656,4.973c1.135,0,1.838-.6,1.838-2.183,0-1.43-.7-2.167-1.791-2.167h-1.046v4.35Z" style="fill:#231f20"/><polygon points="342.599 405.027 328.199 399.627 342.599 394.227 342.599 405.027" style="fill:#231f20"/><path d="M265.425,346.165h.679l.824,4.55h.016l1.384-4.55h.623l1.391,4.55h.016l.824-4.55h.679l-1.039,5.6h-.8l-1.375-4.494h-.016l-1.367,4.494h-.808Z" style="fill:#231f20"/><path d="M272,351.883l2.855-6.038.447.2-2.862,6.02Z" style="fill:#231f20"/><path d="M275.643,349.907l.655-.111a1.465,1.465,0,0,0,1.656,1.463c.775,0,1.287-.361,1.287-.9,0-.568-.376-.88-1.543-1.248-1.335-.439-1.784-.831-1.784-1.583,0-.871.736-1.478,1.791-1.478a1.955,1.955,0,0,1,2.032,1.631l-.648.135a1.342,1.342,0,0,0-1.391-1.143c-.68,0-1.127.336-1.127.855,0,.432.319.664,1.342.984,1.456.471,1.984.96,1.984,1.839,0,.912-.792,1.536-1.951,1.536A2.055,2.055,0,0,1,275.643,349.907Z" style="fill:#231f20"/><path d="M280.662,348.964c0-1.751.943-2.918,2.358-2.918s2.358,1.167,2.358,2.918-.943,2.919-2.358,2.919S280.662,350.715,280.662,348.964Zm4.053,0c0-1.415-.647-2.3-1.695-2.3s-1.695.88-1.695,2.3.647,2.3,1.695,2.3S284.715,350.379,284.715,348.964Z" style="fill:#231f20"/><rect x="352.995" y="274.375" width="20.045" height="28.123" rx="0.857" transform="translate(726.034 576.874) rotate(180)" style="fill:none;stroke:#221f1f;stroke-linecap:round;stroke-linejoin:round;stroke-width:0.25px"/><path d="M364.426,300.533a.787.787,0,1,1,.786-.786v.011a.774.774,0,0,1-.774.775Z" style="fill:none;stroke:#221f1f;stroke-linecap:round;stroke-linejoin:round;stroke-width:0.25px"/><path d="M361.608,300.533a.787.787,0,1,1,.786-.786v.011A.786.786,0,0,1,361.608,300.533Z" style="fill:none;stroke:#221f1f;stroke-linecap:round;stroke-linejoin:round;stroke-width:0.25px"/><path d="M355.971,300.533a.786.786,0,1,1,.775-.8v.023A.775.775,0,0,1,355.971,300.533Z" style="fill:none;stroke:#221f1f;stroke-linecap:round;stroke-linejoin:round;stroke-width:0.25px"/><path d="M358.8,300.533a.786.786,0,1,1,.775-.8v.023A.775.775,0,0,1,358.8,300.533Z" style="fill:none;stroke:#221f1f;stroke-linecap:round;stroke-linejoin:round;stroke-width:0.25px"/><line x1="372.553" y1="280.27" x2="370.043" y2="280.27" style="fill:none;stroke:#211e1f;stroke-linecap:round;stroke-linejoin:round;stroke-width:0.25px"/><line x1="365.528" y1="280.27" x2="363.018" y2="280.27" style="fill:none;stroke:#211e1f;stroke-linecap:round;stroke-linejoin:round;stroke-width:0.25px"/><line x1="366.687" y1="282.357" x2="364.81" y2="285.665" style="fill:none;stroke:#211e1f;stroke-linecap:round;stroke-linejoin:round;stroke-width:0.25px"/><line x1="368.882" y1="282.357" x2="370.758" y2="285.665" style="fill:none;stroke:#211e1f;stroke-linecap:round;stroke-linejoin:round;stroke-width:0.25px"/><line x1="366.687" y1="278.265" x2="364.81" y2="274.957" style="fill:none;stroke:#211e1f;stroke-linecap:round;stroke-linejoin:round;stroke-width:0.25px"/><line x1="368.882" y1="278.265" x2="370.758" y2="274.957" style="fill:none;stroke:#211e1f;stroke-linecap:round;stroke-linejoin:round;stroke-width:0.25px"/><ellipse cx="367.784" cy="280.27" rx="0.846" ry="0.864" style="fill:none;stroke:#211e1f;stroke-linecap:round;stroke-linejoin:round;stroke-width:0.25px"/><line x1="363.017" y1="280.27" x2="360.508" y2="280.27" style="fill:none;stroke:#211e1f;stroke-linecap:round;stroke-linejoin:round;stroke-width:0.25px"/><line x1="355.992" y1="280.27" x2="353.483" y2="280.27" style="fill:none;stroke:#211e1f;stroke-linecap:round;stroke-linejoin:round;stroke-width:0.25px"/><line x1="357.151" y1="282.357" x2="355.275" y2="285.665" style="fill:none;stroke:#211e1f;stroke-linecap:round;stroke-linejoin:round;stroke-width:0.25px"/><line x1="359.346" y1="282.357" x2="361.223" y2="285.665" style="fill:none;stroke:#211e1f;stroke-linecap:round;stroke-linejoin:round;stroke-width:0.25px"/><line x1="357.151" y1="278.265" x2="355.275" y2="274.957" style="fill:none;stroke:#211e1f;stroke-linecap:round;stroke-linejoin:round;stroke-width:0.25px"/><line x1="359.346" y1="278.265" x2="361.223" y2="274.957" style="fill:none;stroke:#211e1f;stroke-linecap:round;stroke-linejoin:round;stroke-width:0.25px"/><ellipse cx="358.249" cy="280.27" rx="0.846" ry="0.864" style="fill:none;stroke:#211e1f;stroke-linecap:round;stroke-linejoin:round;stroke-width:0.25px"/><line x1="363.017" y1="291.834" x2="360.508" y2="291.834" style="fill:none;stroke:#211e1f;stroke-linecap:round;stroke-linejoin:round;stroke-width:0.25px"/><line x1="355.992" y1="291.834" x2="353.483" y2="291.834" style="fill:none;stroke:#211e1f;stroke-linecap:round;stroke-linejoin:round;stroke-width:0.25px"/><line x1="357.151" y1="293.92" x2="355.275" y2="297.229" style="fill:none;stroke:#211e1f;stroke-linecap:round;stroke-linejoin:round;stroke-width:0.25px"/><line x1="359.346" y1="293.92" x2="361.223" y2="297.229" style="fill:none;stroke:#211e1f;stroke-linecap:round;stroke-linejoin:round;stroke-width:0.25px"/><line x1="357.151" y1="289.829" x2="355.275" y2="286.521" style="fill:none;stroke:#211e1f;stroke-linecap:round;stroke-linejoin:round;stroke-width:0.25px"/><line x1="359.346" y1="289.829" x2="361.223" y2="286.521" style="fill:none;stroke:#211e1f;stroke-linecap:round;stroke-linejoin:round;stroke-width:0.25px"/><ellipse cx="358.249" cy="291.834" rx="0.846" ry="0.864" style="fill:none;stroke:#211e1f;stroke-linecap:round;stroke-linejoin:round;stroke-width:0.25px"/><line x1="372.551" y1="291.834" x2="370.042" y2="291.834" style="fill:none;stroke:#211e1f;stroke-linecap:round;stroke-linejoin:round;stroke-width:0.25px"/><line x1="365.527" y1="291.834" x2="363.017" y2="291.834" style="fill:none;stroke:#211e1f;stroke-linecap:round;stroke-linejoin:round;stroke-width:0.25px"/><line x1="366.686" y1="293.92" x2="364.809" y2="297.229" style="fill:none;stroke:#211e1f;stroke-linecap:round;stroke-linejoin:round;stroke-width:0.25px"/><line x1="368.881" y1="293.92" x2="370.757" y2="297.229" style="fill:none;stroke:#211e1f;stroke-linecap:round;stroke-linejoin:round;stroke-width:0.25px"/><line x1="366.686" y1="289.829" x2="364.809" y2="286.521" style="fill:none;stroke:#211e1f;stroke-linecap:round;stroke-linejoin:round;stroke-width:0.25px"/><line x1="368.881" y1="289.829" x2="370.757" y2="286.521" style="fill:none;stroke:#211e1f;stroke-linecap:round;stroke-linejoin:round;stroke-width:0.25px"/><ellipse cx="367.783" cy="291.834" rx="0.846" ry="0.864" style="fill:none;stroke:#211e1f;stroke-linecap:round;stroke-linejoin:round;stroke-width:0.25px"/><path d="M363.016,286.5v10.662a.063.063,0,0,0,.062.064H371.8a.759.759,0,0,0,.75-.767v-9.256a.758.758,0,0,0-.75-.766h-8.725a.063.063,0,0,0-.062.063" style="fill:none;stroke:#211e1f;stroke-linecap:round;stroke-linejoin:round;stroke-width:0.25px"/><path d="M363.018,286.5v10.662a.063.063,0,0,1-.062.064h-8.724a.759.759,0,0,1-.75-.767v-9.256a.758.758,0,0,1,.75-.766h8.724a.063.063,0,0,1,.062.063" style="fill:none;stroke:#211e1f;stroke-linecap:round;stroke-linejoin:round;stroke-width:0.25px"/><path d="M363.016,275.021v10.661a.063.063,0,0,0,.062.064H371.8a.758.758,0,0,0,.75-.766v-9.257a.758.758,0,0,0-.75-.766h-8.725a.063.063,0,0,0-.062.064" style="fill:none;stroke:#211e1f;stroke-linecap:round;stroke-linejoin:round;stroke-width:0.25px"/><path d="M363.018,275.021v10.661a.063.063,0,0,1-.062.064h-8.724a.758.758,0,0,1-.75-.766v-9.257a.758.758,0,0,1,.75-.766h8.724a.063.063,0,0,1,.062.064" style="fill:none;stroke:#211e1f;stroke-linecap:round;stroke-linejoin:round;stroke-width:0.25px"/></g></g></svg>