<svg xmlns="http://www.w3.org/2000/svg" viewBox="0 0 680.17 448.53"><defs><style>.cls-1,.cls-17,.cls-19,.cls-20,.cls-6,.cls-9{fill:#fff;}.cls-1,.cls-10,.cls-11,.cls-12,.cls-13,.cls-16,.cls-17,.cls-18,.cls-19,.cls-2,.cls-20,.cls-21,.cls-22,.cls-23,.cls-24,.cls-25,.cls-26,.cls-27,.cls-28,.cls-29,.cls-4,.cls-5,.cls-6,.cls-9{stroke:#231f20;}.cls-1,.cls-10,.cls-11,.cls-13,.cls-14,.cls-18,.cls-19,.cls-2,.cls-20,.cls-21,.cls-22,.cls-23,.cls-24,.cls-25,.cls-26,.cls-27,.cls-28,.cls-3,.cls-5,.cls-6{stroke-linecap:round;}.cls-1,.cls-10,.cls-11,.cls-13,.cls-14,.cls-16,.cls-18,.cls-19,.cls-2,.cls-20,.cls-21,.cls-22,.cls-23,.cls-24,.cls-25,.cls-26,.cls-27,.cls-28,.cls-3,.cls-5,.cls-6,.cls-8{stroke-linejoin:round;}.cls-1{stroke-width:0.15px;}.cls-10,.cls-11,.cls-12,.cls-13,.cls-14,.cls-15,.cls-16,.cls-18,.cls-2,.cls-21,.cls-22,.cls-23,.cls-24,.cls-25,.cls-26,.cls-27,.cls-28,.cls-3,.cls-5,.cls-8{fill:none;}.cls-11,.cls-12,.cls-17,.cls-2,.cls-20,.cls-21,.cls-22,.cls-23,.cls-24,.cls-25,.cls-26,.cls-27,.cls-28,.cls-7{stroke-width:0.25px;}.cls-2{stroke-dasharray:1.32 1.32;}.cls-14,.cls-15,.cls-3{stroke:#a6a8ab;}.cls-14,.cls-15,.cls-3,.cls-5,.cls-6,.cls-9{stroke-width:0.15px;}.cls-3,.cls-4{fill-rule:evenodd;}.cls-29,.cls-4{fill:#dee2e1;}.cls-12,.cls-15,.cls-17,.cls-29,.cls-4,.cls-7,.cls-9{stroke-miterlimit:10;}.cls-10,.cls-29,.cls-4,.cls-8{stroke-width:0.4px;}.cls-7{fill:#dbdecd;stroke:#fff;}.cls-8{stroke:#787a62;}.cls-13,.cls-16{stroke-width:0.4px;}.cls-16{stroke-linecap:square;}.cls-18,.cls-19{stroke-width:0.2px;}.cls-21{stroke-dasharray:1.36 1.36;}.cls-22{stroke-dasharray:1.4 1.4;}.cls-23{stroke-dasharray:1.32 1.32;}.cls-24{stroke-dasharray:1.32 1.32;}.cls-25{stroke-dasharray:1.32 1.32;}.cls-26{stroke-dasharray:1.38 1.38;}.cls-27{stroke-dasharray:1.32 1.32;}.cls-28{stroke-dasharray:2 2;}.cls-30{fill:#231f20;}</style></defs><title>Asset 1438</title><g id="Layer_2" data-name="Layer 2"><g id="Unit25-26C_Rest"><g id="LWPOLYLINE"><rect class="cls-1" x="545.58" y="125.78" width="107.87" height="128.59"/></g><g id="LWPOLYLINE-2" data-name="LWPOLYLINE"><rect class="cls-1" x="156.24" y="36.06" width="92.77" height="107.58"/></g><g id="LWPOLYLINE-3" data-name="LWPOLYLINE"><rect class="cls-1" x="545.58" y="125.78" width="107.87" height="128.59"/></g><g id="LWPOLYLINE-4" data-name="LWPOLYLINE"><path class="cls-2" d="M261.85,17.08,230.14,28.62a33.69,33.69,0,0,1-2-11.54,33.68,33.68,0,0,1-2,11.54L194.35,17.08"/></g><path class="cls-3" d="M650.91,420l-1.88-.21-1.78-.63-1.6-1-1.34-1.34-1-1.6-.63-1.78-.21-1.88.21-1.88.63-1.78,1-1.6,1.34-1.34,1.6-1,1.78-.62,1.88-.22,1.88.22,1.78.62,1.6,1,1.34,1.34,1,1.6.63,1.78.21,1.88-.21,1.88-.74,1.95-.89,1.43-1.34,1.34-1.6,1-1.78.63-1.88.21Z"/><path class="cls-4" d="M664.26,297.39V412.53l-.31,2.61-.62,2.05-1.13,2.11-1.52,1.85-2,1.63-1.9,1-2.29.69-2.38.24H462.7v-3.29H652.06l2-.22,1.92-.68,1.66-1,1.41-1.41,1.06-1.69.66-1.89.23-2V297.39Z"/><g id="LWPOLYLINE-5" data-name="LWPOLYLINE"><path class="cls-5" d="M503.6,131.22a12,12,0,0,0,1.17-16.89,10.77,10.77,0,0,0-1.17-1.17l-.92,1.06h-10.9v15.94h10.9Z"/></g><g id="LWPOLYLINE-6" data-name="LWPOLYLINE"><path class="cls-5" d="M503.6,153.72a12,12,0,0,0,1.17-16.89,10.77,10.77,0,0,0-1.17-1.17l-.92,1.06h-10.9v15.94h10.9Z"/></g><g id="LWPOLYLINE-7" data-name="LWPOLYLINE"><path class="cls-5" d="M492.05,101.08a12,12,0,0,0-16.9-1.16,12.7,12.7,0,0,0-1.16,1.16l1.06.92v10.91H491V102Z"/></g><g id="LWPOLYLINE-8" data-name="LWPOLYLINE"><path class="cls-6" d="M495.4,385.92a141.62,141.62,0,0,0-23.3,0,.85.85,0,0,0-.71.84v.79a.42.42,0,0,0-.42-.42h-1.48a.42.42,0,0,0-.42.42v27.28a.42.42,0,0,0,.42.42h29.16a.42.42,0,0,0,.42-.42V387.55a.42.42,0,0,0-.42-.42h-2.11a.42.42,0,0,0-.42.42v-.79A.86.86,0,0,0,495.4,385.92Z"/></g><g id="LWPOLYLINE-9" data-name="LWPOLYLINE"><path class="cls-6" d="M514.59,385.92a141.62,141.62,0,0,1,23.3,0,.85.85,0,0,1,.71.84v.79a.42.42,0,0,1,.42-.42h1.48a.42.42,0,0,1,.42.42v27.28a.42.42,0,0,1-.42.42H511.34a.42.42,0,0,1-.42-.42V387.55a.42.42,0,0,1,.42-.42h2.11a.42.42,0,0,1,.42.42v-.79A.86.86,0,0,1,514.59,385.92Z"/></g><g id="LWPOLYLINE-10" data-name="LWPOLYLINE"><rect class="cls-6" x="483.85" y="346.62" width="37.18" height="23.29"/></g><g id="LWPOLYLINE-11" data-name="LWPOLYLINE"><rect class="cls-6" x="576.09" y="333.62" width="22.5" height="15.94"/></g><g id="LWPOLYLINE-12" data-name="LWPOLYLINE"><rect class="cls-6" x="601.45" y="333.62" width="22.5" height="15.94"/></g><g id="LWPOLYLINE-13" data-name="LWPOLYLINE"><rect class="cls-6" x="592.05" y="313.91" width="15.94" height="22.5"/></g><g id="LWPOLYLINE-14" data-name="LWPOLYLINE"><rect class="cls-6" x="592.05" y="373.01" width="15.94" height="22.5"/></g><g id="LWPOLYLINE-15" data-name="LWPOLYLINE"><rect class="cls-6" x="576.09" y="359.87" width="22.5" height="15.94"/></g><g id="LWPOLYLINE-16" data-name="LWPOLYLINE"><rect class="cls-6" x="601.45" y="359.87" width="22.5" height="15.94"/></g><g id="LWPOLYLINE-17" data-name="LWPOLYLINE"><rect class="cls-6" x="297.14" y="56.14" width="15" height="55.25"/></g><g id="LWPOLYLINE-18" data-name="LWPOLYLINE"><rect class="cls-6" x="309.67" y="360.77" width="15" height="46.54"/></g><g id="LWPOLYLINE-19" data-name="LWPOLYLINE"><path class="cls-6" d="M404.85,382.82v-3.13a2.81,2.81,0,0,0-2.81-2.82H360.79a2.81,2.81,0,0,0-2.81,2.82v3.13a3.74,3.74,0,0,0,1.09,2.65l3.43,3.43a3.78,3.78,0,0,0,2.65,1.1h32.52a3.75,3.75,0,0,0,2.65-1.1l3.43-3.43A3.7,3.7,0,0,0,404.85,382.82Z"/></g><g id="LWPOLYLINE-20" data-name="LWPOLYLINE"><path class="cls-6" d="M503.6,131.22a12,12,0,0,0,1.17-16.89,10.77,10.77,0,0,0-1.17-1.17l-.92,1.06h-10.9v15.94h10.9Z"/></g><g id="LWPOLYLINE-21" data-name="LWPOLYLINE"><path class="cls-6" d="M503.6,153.72a12,12,0,0,0,1.17-16.89,10.77,10.77,0,0,0-1.17-1.17l-.92,1.06h-10.9v15.94h10.9Z"/></g><g id="LWPOLYLINE-22" data-name="LWPOLYLINE"><path class="cls-5" d="M503.6,175.22a12,12,0,0,0,1.17-16.9,11.65,11.65,0,0,0-1.17-1.16l-.92,1.06h-10.9v15.94h10.9Z"/></g><g id="LWPOLYLINE-23" data-name="LWPOLYLINE"><path class="cls-6" d="M503.6,175.22a12,12,0,0,0,1.17-16.9,11.65,11.65,0,0,0-1.17-1.16l-.92,1.06h-10.9v15.94h10.9Z"/></g><g id="LWPOLYLINE-24" data-name="LWPOLYLINE"><path class="cls-6" d="M492.05,101.08a12,12,0,0,0-16.9-1.16,12.7,12.7,0,0,0-1.16,1.16l1.06.92v10.91H491V102Z"/></g><g id="LWPOLYLINE-25" data-name="LWPOLYLINE"><polygon class="cls-6" points="265.07 56.52 263.76 54.6 263.45 54.81 262.88 54.96 262.36 54.7 261.12 53.21 260.1 52 259.26 50.92 258.19 49.46 257.25 48.1 256.86 47.56 256.58 47.1 256.2 46.53 255.79 45.87 254.87 44.33 254.03 42.85 253.41 41.68 253.35 41.1 253.69 40.62 254 40.41 252.32 37.98 271.04 25.11 283.79 43.65 265.07 56.52"/></g><g id="LINE"><line class="cls-5" x1="272.71" y1="27.54" x2="254" y2="40.41"/></g><g id="LINE-2" data-name="LINE"><line class="cls-5" x1="263.76" y1="54.6" x2="282.47" y2="41.74"/></g><g id="ARC"><path class="cls-5" d="M268.54,30.41a40.24,40.24,0,0,0,9.76,14.2"/></g><g id="ARC-2" data-name="ARC"><path class="cls-5" d="M271.32,28.5a100.59,100.59,0,0,0,9.76,14.19"/></g><circle class="cls-7" cx="650.91" cy="304.26" r="9"/><path class="cls-8" d="M642.55,306.57a8.72,8.72,0,0,1,8.36-2.31"/><line class="cls-8" x1="645.63" y1="304.56" x2="642.26" y2="303.85"/><line class="cls-8" x1="647.19" y1="304.13" x2="645.13" y2="307.79"/><line class="cls-8" x1="648.92" y1="304" x2="642.79" y2="301.04"/><path class="cls-8" d="M657.81,309a8.71,8.71,0,0,1-6.9-4.74"/><line class="cls-8" x1="654.61" y1="308.04" x2="656.22" y2="310.9"/><line class="cls-8" x1="653.26" y1="307.15" x2="657.37" y2="306.28"/><line class="cls-8" x1="652.02" y1="305.93" x2="653.74" y2="312.15"/><path class="cls-8" d="M656.93,298.1a8.67,8.67,0,0,1-6,6.16"/><line class="cls-8" x1="655.31" y1="301.34" x2="658.26" y2="300.35"/><line class="cls-8" x1="654.18" y1="302.5" x2="654.11" y2="298.3"/><line class="cls-8" x1="652.76" y1="303.48" x2="659.18" y2="303.03"/><polyline class="cls-8" points="650.91 304.26 649.5 297.59 647.72 296.3"/><line class="cls-8" x1="650.38" y1="301.67" x2="646.59" y2="299.47"/><line class="cls-8" x1="650.11" y1="300.39" x2="653.34" y2="297.34"/><polyline class="cls-8" points="650.91 304.26 647.82 310.06 648.58 312.5"/><line class="cls-8" x1="649.47" y1="306.94" x2="650.47" y2="309.37"/><line class="cls-8" x1="648.08" y1="310.91" x2="650.56" y2="312.61"/><line class="cls-8" x1="649.13" y1="307.66" x2="646.57" y2="308.38"/><circle class="cls-7" cx="650.91" cy="363.15" r="9"/><path class="cls-8" d="M642.55,365.46a8.7,8.7,0,0,1,8.36-2.31"/><line class="cls-8" x1="645.63" y1="363.45" x2="642.26" y2="362.74"/><line class="cls-8" x1="647.19" y1="363.02" x2="645.13" y2="366.68"/><line class="cls-8" x1="648.92" y1="362.89" x2="642.79" y2="359.93"/><path class="cls-8" d="M657.81,367.89a8.71,8.71,0,0,1-6.9-4.74"/><line class="cls-8" x1="654.61" y1="366.92" x2="656.22" y2="369.78"/><line class="cls-8" x1="653.26" y1="366.03" x2="657.37" y2="365.17"/><line class="cls-8" x1="652.02" y1="364.82" x2="653.74" y2="371.03"/><path class="cls-8" d="M656.93,357a8.69,8.69,0,0,1-6,6.16"/><line class="cls-8" x1="655.31" y1="360.23" x2="658.26" y2="359.23"/><line class="cls-8" x1="654.18" y1="361.38" x2="654.11" y2="357.19"/><line class="cls-8" x1="652.76" y1="362.37" x2="659.18" y2="361.92"/><polyline class="cls-8" points="650.91 363.15 649.5 356.48 647.72 355.18"/><line class="cls-8" x1="650.38" y1="360.56" x2="646.59" y2="358.36"/><line class="cls-8" x1="650.11" y1="359.27" x2="653.34" y2="356.23"/><polyline class="cls-8" points="650.91 363.15 647.82 368.95 648.58 371.38"/><line class="cls-8" x1="649.47" y1="365.83" x2="650.47" y2="368.25"/><line class="cls-8" x1="648.08" y1="369.79" x2="650.56" y2="371.5"/><line class="cls-8" x1="649.13" y1="366.55" x2="646.57" y2="367.27"/><circle class="cls-7" cx="650.91" cy="331.51" r="9"/><path class="cls-8" d="M642.55,333.82a8.67,8.67,0,0,1,8.36-2.31"/><line class="cls-8" x1="645.63" y1="331.8" x2="642.26" y2="331.1"/><line class="cls-8" x1="647.19" y1="331.37" x2="645.13" y2="335.03"/><line class="cls-8" x1="648.92" y1="331.24" x2="642.79" y2="328.28"/><path class="cls-8" d="M657.81,336.24a8.7,8.7,0,0,1-6.9-4.73"/><line class="cls-8" x1="654.61" y1="335.28" x2="656.22" y2="338.14"/><line class="cls-8" x1="653.26" y1="334.39" x2="657.37" y2="333.53"/><line class="cls-8" x1="652.02" y1="333.17" x2="653.74" y2="339.39"/><path class="cls-8" d="M656.93,325.35a8.71,8.71,0,0,1-6,6.16"/><line class="cls-8" x1="655.31" y1="328.58" x2="658.26" y2="327.59"/><line class="cls-8" x1="654.18" y1="329.74" x2="654.11" y2="325.54"/><line class="cls-8" x1="652.76" y1="330.73" x2="659.18" y2="330.28"/><polyline class="cls-8" points="650.91 331.51 649.5 324.84 647.72 323.54"/><line class="cls-8" x1="650.38" y1="328.91" x2="646.59" y2="326.71"/><line class="cls-8" x1="650.11" y1="327.63" x2="653.34" y2="324.58"/><polyline class="cls-8" points="650.91 331.51 647.82 337.31 648.58 339.74"/><line class="cls-8" x1="649.47" y1="334.18" x2="650.47" y2="336.61"/><line class="cls-8" x1="648.08" y1="338.15" x2="650.56" y2="339.86"/><line class="cls-8" x1="649.13" y1="334.91" x2="646.57" y2="335.62"/><circle class="cls-7" cx="650.91" cy="393.26" r="9"/><path class="cls-8" d="M642.55,395.57a8.7,8.7,0,0,1,8.36-2.31"/><line class="cls-8" x1="645.63" y1="393.55" x2="642.26" y2="392.85"/><line class="cls-8" x1="647.19" y1="393.13" x2="645.13" y2="396.79"/><line class="cls-8" x1="648.92" y1="393" x2="642.79" y2="390.04"/><path class="cls-8" d="M657.81,398a8.71,8.71,0,0,1-6.9-4.74"/><line class="cls-8" x1="654.61" y1="397.03" x2="656.22" y2="399.89"/><line class="cls-8" x1="653.26" y1="396.14" x2="657.37" y2="395.28"/><line class="cls-8" x1="652.02" y1="394.93" x2="653.74" y2="401.14"/><path class="cls-8" d="M656.93,387.1a8.71,8.71,0,0,1-6,6.16"/><line class="cls-8" x1="655.31" y1="390.34" x2="658.26" y2="389.34"/><line class="cls-8" x1="654.18" y1="391.49" x2="654.11" y2="387.3"/><line class="cls-8" x1="652.76" y1="392.48" x2="659.18" y2="392.03"/><polyline class="cls-8" points="650.91 393.26 649.5 386.59 647.72 385.29"/><line class="cls-8" x1="650.38" y1="390.67" x2="646.59" y2="388.47"/><line class="cls-8" x1="650.11" y1="389.38" x2="653.34" y2="386.34"/><polyline class="cls-8" points="650.91 393.26 647.82 399.06 648.58 401.49"/><line class="cls-8" x1="649.47" y1="395.94" x2="650.47" y2="398.36"/><line class="cls-8" x1="648.08" y1="399.9" x2="650.56" y2="401.61"/><line class="cls-8" x1="649.13" y1="396.66" x2="646.57" y2="397.38"/><g id="LWPOLYLINE-26" data-name="LWPOLYLINE"><line class="cls-5" x1="504.36" y1="128.31" x2="491.78" y2="128.31"/></g><g id="LWPOLYLINE-27" data-name="LWPOLYLINE"><line class="cls-5" x1="504.36" y1="116.07" x2="491.78" y2="116.07"/></g><g id="LWPOLYLINE-28" data-name="LWPOLYLINE"><path class="cls-5" d="M502.68,114.22a11.13,11.13,0,0,1,1,1,10.57,10.57,0,0,1-1,14.91"/></g><g id="LWPOLYLINE-29" data-name="LWPOLYLINE"><line class="cls-5" x1="504.36" y1="150.81" x2="491.78" y2="150.81"/></g><g id="LWPOLYLINE-30" data-name="LWPOLYLINE"><line class="cls-5" x1="504.36" y1="138.57" x2="491.78" y2="138.57"/></g><g id="LWPOLYLINE-31" data-name="LWPOLYLINE"><path class="cls-5" d="M502.68,136.72a11.13,11.13,0,0,1,1,1,10.57,10.57,0,0,1-1,14.91"/></g><g id="LWPOLYLINE-32" data-name="LWPOLYLINE"><line class="cls-5" x1="489.13" y1="100.33" x2="489.13" y2="112.91"/></g><g id="LWPOLYLINE-33" data-name="LWPOLYLINE"><line class="cls-5" x1="476.9" y1="100.33" x2="476.9" y2="112.91"/></g><g id="LWPOLYLINE-34" data-name="LWPOLYLINE"><path class="cls-5" d="M475.05,102a9.92,9.92,0,0,1,1-1A10.56,10.56,0,0,1,491,102"/></g><g id="LINE-3" data-name="LINE"><line class="cls-5" x1="496.12" y1="415.25" x2="496.12" y2="387.55"/></g><g id="LINE-4" data-name="LINE"><line class="cls-5" x1="471.39" y1="387.13" x2="471.39" y2="415.25"/></g><g id="ARC-3" data-name="ARC"><path class="cls-5" d="M496.12,410.19a82,82,0,0,0-24.73,0"/></g><g id="ARC-4" data-name="ARC"><path class="cls-5" d="M496.12,413.56a208.2,208.2,0,0,0-24.73,0"/></g><g id="LINE-5" data-name="LINE"><line class="cls-5" x1="513.87" y1="415.25" x2="513.87" y2="387.55"/></g><g id="LINE-6" data-name="LINE"><line class="cls-5" x1="538.6" y1="387.13" x2="538.6" y2="415.25"/></g><g id="ARC-5" data-name="ARC"><path class="cls-5" d="M513.87,410.19a82,82,0,0,1,24.73,0"/></g><g id="ARC-6" data-name="ARC"><path class="cls-5" d="M513.87,413.56a208.2,208.2,0,0,1,24.73,0"/></g><g id="LINE-7" data-name="LINE"><line class="cls-5" x1="581.36" y1="333.62" x2="581.36" y2="349.55"/></g><g id="LINE-8" data-name="LINE"><line class="cls-5" x1="577.47" y1="333.62" x2="577.47" y2="349.55"/></g><g id="LINE-9" data-name="LINE"><line class="cls-5" x1="618.68" y1="333.62" x2="618.68" y2="349.55"/></g><g id="LINE-10" data-name="LINE"><line class="cls-5" x1="622.56" y1="333.62" x2="622.56" y2="349.55"/></g><g id="LINE-11" data-name="LINE"><line class="cls-5" x1="592.05" y1="319.18" x2="607.99" y2="319.18"/></g><g id="LINE-12" data-name="LINE"><line class="cls-5" x1="592.05" y1="315.29" x2="607.99" y2="315.29"/></g><g id="LINE-13" data-name="LINE"><line class="cls-5" x1="592.05" y1="390.24" x2="607.99" y2="390.24"/></g><g id="LINE-14" data-name="LINE"><line class="cls-5" x1="592.05" y1="394.13" x2="607.99" y2="394.13"/></g><g id="LINE-15" data-name="LINE"><line class="cls-5" x1="581.36" y1="359.87" x2="581.36" y2="375.8"/></g><g id="LINE-16" data-name="LINE"><line class="cls-5" x1="577.47" y1="359.87" x2="577.47" y2="375.8"/></g><g id="LINE-17" data-name="LINE"><line class="cls-5" x1="618.68" y1="359.87" x2="618.68" y2="375.8"/></g><g id="LINE-18" data-name="LINE"><line class="cls-5" x1="622.56" y1="359.87" x2="622.56" y2="375.8"/></g><g id="LWPOLYLINE-35" data-name="LWPOLYLINE"><line class="cls-5" x1="504.36" y1="128.31" x2="491.78" y2="128.31"/></g><g id="LWPOLYLINE-36" data-name="LWPOLYLINE"><line class="cls-5" x1="504.36" y1="116.07" x2="491.78" y2="116.07"/></g><g id="LWPOLYLINE-37" data-name="LWPOLYLINE"><path class="cls-5" d="M502.68,114.22a11.13,11.13,0,0,1,1,1,10.57,10.57,0,0,1-1,14.91"/></g><g id="LWPOLYLINE-38" data-name="LWPOLYLINE"><line class="cls-5" x1="504.36" y1="150.81" x2="491.78" y2="150.81"/></g><g id="LWPOLYLINE-39" data-name="LWPOLYLINE"><line class="cls-5" x1="504.36" y1="138.57" x2="491.78" y2="138.57"/></g><g id="LWPOLYLINE-40" data-name="LWPOLYLINE"><path class="cls-5" d="M502.68,136.72a11.13,11.13,0,0,1,1,1,10.57,10.57,0,0,1-1,14.91"/></g><g id="LWPOLYLINE-41" data-name="LWPOLYLINE"><line class="cls-5" x1="504.36" y1="172.31" x2="491.78" y2="172.31"/></g><g id="LWPOLYLINE-42" data-name="LWPOLYLINE"><line class="cls-5" x1="504.36" y1="160.07" x2="491.78" y2="160.07"/></g><g id="LWPOLYLINE-43" data-name="LWPOLYLINE"><path class="cls-5" d="M502.68,158.22a10,10,0,0,1,1,1,10.57,10.57,0,0,1-1,14.91"/></g><g id="LWPOLYLINE-44" data-name="LWPOLYLINE"><line class="cls-5" x1="504.36" y1="172.31" x2="491.78" y2="172.31"/></g><g id="LWPOLYLINE-45" data-name="LWPOLYLINE"><line class="cls-5" x1="504.36" y1="160.07" x2="491.78" y2="160.07"/></g><g id="LWPOLYLINE-46" data-name="LWPOLYLINE"><path class="cls-5" d="M502.68,158.22a10,10,0,0,1,1,1,10.57,10.57,0,0,1-1,14.91"/></g><g id="LWPOLYLINE-47" data-name="LWPOLYLINE"><line class="cls-5" x1="489.13" y1="100.33" x2="489.13" y2="112.91"/></g><g id="LWPOLYLINE-48" data-name="LWPOLYLINE"><line class="cls-5" x1="476.9" y1="100.33" x2="476.9" y2="112.91"/></g><g id="LWPOLYLINE-49" data-name="LWPOLYLINE"><path class="cls-5" d="M475.05,102a9.92,9.92,0,0,1,1-1A10.56,10.56,0,0,1,491,102"/></g><g id="LWPOLYLINE-50" data-name="LWPOLYLINE"><rect class="cls-6" x="585.02" y="322.83" width="30" height="63.75"/></g><g id="LWPOLYLINE-51" data-name="LWPOLYLINE"><rect class="cls-6" x="151.46" y="54.28" width="80.63" height="71.25"/></g><g id="LWPOLYLINE-52" data-name="LWPOLYLINE"><rect class="cls-6" x="151.46" y="127.52" width="15.94" height="20.16"/></g><g id="LWPOLYLINE-53" data-name="LWPOLYLINE"><rect class="cls-6" x="151.46" y="32.13" width="15.94" height="20.16"/></g><g id="LWPOLYLINE-54" data-name="LWPOLYLINE"><rect class="cls-5" x="156.82" y="91.17" width="14.68" height="31.81"/></g><g id="LINE-20" data-name="LINE"><line class="cls-5" x1="154.28" y1="54.28" x2="154.28" y2="125.53"/></g><g id="LINE-21" data-name="LINE"><line class="cls-5" x1="229.28" y1="54.28" x2="229.28" y2="125.53"/></g><g id="LWPOLYLINE-55" data-name="LWPOLYLINE"><rect class="cls-5" x="156.82" y="56.82" width="14.68" height="31.81"/></g><g id="LWPOLYLINE-56" data-name="LWPOLYLINE"><rect class="cls-6" x="465.19" y="301.37" width="76.07" height="30.06"/></g><g id="LINE-22" data-name="LINE"><line class="cls-5" x1="541.24" y1="304.37" x2="465.23" y2="304.37"/></g><g id="LINE-23" data-name="LINE"><line class="cls-5" x1="539.12" y1="304.37" x2="539.12" y2="331.42"/></g><g id="LINE-24" data-name="LINE"><line class="cls-5" x1="467.2" y1="304.37" x2="467.2" y2="331.42"/></g><line class="cls-5" x1="514.82" y1="304.26" x2="514.82" y2="331.32"/><line class="cls-5" x1="490.11" y1="304.26" x2="490.11" y2="331.32"/><g id="LWPOLYLINE-57" data-name="LWPOLYLINE"><rect class="cls-6" x="327.04" y="294.56" width="22.5" height="16.88"/></g><g id="LWPOLYLINE-58" data-name="LWPOLYLINE"><rect class="cls-6" x="413.29" y="294.56" width="22.5" height="16.88"/></g><g id="LWPOLYLINE-59" data-name="LWPOLYLINE"><rect class="cls-6" x="353.29" y="294.56" width="56.25" height="80.63"/></g><g id="LINE-25" data-name="LINE"><line class="cls-5" x1="353.29" y1="297.37" x2="409.54" y2="297.37"/></g><g id="LINE-26" data-name="LINE"><line class="cls-5" x1="353.29" y1="372.37" x2="409.54" y2="372.37"/></g><g id="LWPOLYLINE-60" data-name="LWPOLYLINE"><rect class="cls-5" x="382.69" y="299.92" width="24.31" height="14.68"/></g><g id="LWPOLYLINE-61" data-name="LWPOLYLINE"><rect class="cls-5" x="355.83" y="299.92" width="24.31" height="14.68"/></g><g id="WIPEOUT"><rect class="cls-6" x="336.14" y="268.23" width="18.52" height="19.69"/><polyline class="cls-6" points="354.66 268.24 336.14 268.24 336.14 287.92 354.66 287.92 354.66 268.24"/></g><g id="WIPEOUT-2" data-name="WIPEOUT"><rect class="cls-6" x="376.09" y="268.23" width="18.52" height="19.69"/><polyline class="cls-6" points="376.08 268.24 394.6 268.24 394.6 287.92 376.08 287.92 376.08 268.24"/></g><g id="LINE-28" data-name="LINE"><line class="cls-5" x1="337.31" y1="287.92" x2="337.31" y2="268.23"/></g><g id="LINE-29" data-name="LINE"><line class="cls-5" x1="353.48" y1="287.92" x2="353.48" y2="268.23"/></g><g id="LINE-30" data-name="LINE"><line class="cls-5" x1="353.48" y1="269.64" x2="337.31" y2="269.64"/></g><g id="LINE-31" data-name="LINE"><line class="cls-5" x1="393.43" y1="269.64" x2="377.26" y2="269.64"/></g><g id="LINE-32" data-name="LINE"><line class="cls-5" x1="353.48" y1="271.75" x2="337.31" y2="271.75"/></g><g id="LINE-33" data-name="LINE"><line class="cls-5" x1="393.43" y1="287.92" x2="393.43" y2="268.23"/></g><g id="LINE-34" data-name="LINE"><line class="cls-5" x1="377.26" y1="287.92" x2="377.26" y2="268.23"/></g><g id="LINE-35" data-name="LINE"><line class="cls-5" x1="377.26" y1="271.75" x2="393.43" y2="271.75"/></g><g id="LINE-36" data-name="LINE"><line class="cls-5" x1="377.26" y1="287.92" x2="377.26" y2="268.23"/></g><g id="LWPOLYLINE-62" data-name="LWPOLYLINE"><rect class="cls-6" x="325.79" y="276.84" width="78.16" height="15"/></g><line class="cls-5" x1="224.35" y1="302.13" x2="224.35" y2="336.33"/><g id="LWPOLYLINE-63" data-name="LWPOLYLINE"><rect class="cls-6" x="159.67" y="373.69" width="15" height="49.89"/></g><line class="cls-5" x1="176.06" y1="54.28" x2="176.06" y2="125.53"/><line class="cls-5" x1="173.63" y1="54.28" x2="173.63" y2="125.53"/><rect class="cls-6" x="638.94" y="189.35" width="44.9" height="1.76" transform="translate(851.63 -471.16) rotate(90)"/><line class="cls-5" x1="353.29" y1="316.68" x2="409.54" y2="316.68"/><line class="cls-5" x1="353.29" y1="319.11" x2="409.54" y2="319.11"/><g id="LWPOLYLINE-64" data-name="LWPOLYLINE"><rect class="cls-6" x="649.97" y="164.65" width="15" height="56.25"/></g><rect class="cls-6" x="638.95" y="192.53" width="44.9" height="1.76" transform="translate(854.81 -467.99) rotate(90)"/><g id="LWPOLYLINE-65" data-name="LWPOLYLINE"><polygon class="cls-6" points="628.33 152.01 627.39 122.01 600.67 122.01 599.74 152.01 628.33 152.01"/></g><g id="LINE-37" data-name="LINE"><line class="cls-5" x1="624.34" y1="152.01" x2="623.4" y2="122.01"/></g><g id="LINE-38" data-name="LINE"><line class="cls-5" x1="623.53" y1="126.23" x2="604.53" y2="126.23"/></g><g id="LINE-39" data-name="LINE"><line class="cls-5" x1="604.66" y1="122.01" x2="603.72" y2="152.01"/></g><rect class="cls-6" x="541.12" y="147.24" width="33.75" height="84.38"/><g id="LINE-40" data-name="LINE"><line class="cls-5" x1="545.8" y1="201.93" x2="573.89" y2="201.93"/></g><g id="LWPOLYLINE-66" data-name="LWPOLYLINE"><polyline class="cls-5" points="574.87 151.93 545.8 151.93 545.8 226.93 574.87 226.93"/></g><g id="ARC-7" data-name="ARC"><path class="cls-5" d="M550.3,226a59.57,59.57,0,0,0,0-23.12"/></g><g id="ARC-8" data-name="ARC"><path class="cls-5" d="M550.3,202.87a1.22,1.22,0,0,0-1-.94"/></g><g id="ARC-9" data-name="ARC"><path class="cls-5" d="M549.32,226.93a1.24,1.24,0,0,0,1-.94"/></g><g id="ARC-10" data-name="ARC"><path class="cls-5" d="M549.32,201.93a1.24,1.24,0,0,0,1-.94"/></g><g id="ARC-11" data-name="ARC"><path class="cls-5" d="M550.3,152.87a1.22,1.22,0,0,0-1-.94"/></g><g id="ARC-12" data-name="ARC"><path class="cls-5" d="M574.87,202.87a1.22,1.22,0,0,0-1-.94"/></g><g id="ARC-13" data-name="ARC"><path class="cls-5" d="M573.89,201.93a1.24,1.24,0,0,0,1-.94"/></g><g id="ARC-14" data-name="ARC"><path class="cls-5" d="M573.89,226.93a1.24,1.24,0,0,0,1-.94"/></g><g id="ARC-15" data-name="ARC"><path class="cls-5" d="M574.87,152.87a1.22,1.22,0,0,0-1-.94"/></g><g id="LINE-41" data-name="LINE"><line class="cls-5" x1="545.8" y1="176.93" x2="573.89" y2="176.93"/></g><g id="ARC-16" data-name="ARC"><path class="cls-5" d="M550.3,176a59.57,59.57,0,0,0,0-23.12"/></g><g id="ARC-17" data-name="ARC"><path class="cls-5" d="M549.32,176.93a1.24,1.24,0,0,0,1-.94"/></g><g id="ARC-18" data-name="ARC"><path class="cls-5" d="M550.3,177.87a1.22,1.22,0,0,0-1-.94"/></g><g id="ARC-19" data-name="ARC"><path class="cls-5" d="M573.89,176.93a1.24,1.24,0,0,0,1-.94"/></g><g id="ARC-20" data-name="ARC"><path class="cls-5" d="M574.87,177.87a1.22,1.22,0,0,0-1-.94"/></g><g id="ARC-21" data-name="ARC"><path class="cls-5" d="M550.3,201a59.57,59.57,0,0,0,0-23.12"/></g><g id="ARC-22" data-name="ARC"><path class="cls-5" d="M550.3,202.87a1.22,1.22,0,0,0-1-.94"/></g><g id="ARC-23" data-name="ARC"><path class="cls-5" d="M549.32,226.93a1.24,1.24,0,0,0,1-.94"/></g><g id="ARC-24" data-name="ARC"><path class="cls-5" d="M549.32,201.93a1.24,1.24,0,0,0,1-.94"/></g><g id="ARC-25" data-name="ARC"><path class="cls-5" d="M550.3,152.87a1.22,1.22,0,0,0-1-.94"/></g><g id="ARC-26" data-name="ARC"><path class="cls-5" d="M574.87,202.87a1.22,1.22,0,0,0-1-.94"/></g><g id="ARC-27" data-name="ARC"><path class="cls-5" d="M573.89,201.93a1.24,1.24,0,0,0,1-.94"/></g><g id="ARC-28" data-name="ARC"><path class="cls-5" d="M573.89,226.93a1.24,1.24,0,0,0,1-.94"/></g><g id="ARC-29" data-name="ARC"><path class="cls-5" d="M574.87,152.87a1.22,1.22,0,0,0-1-.94"/></g><g id="ARC-30" data-name="ARC"><path class="cls-5" d="M549.32,176.93a1.24,1.24,0,0,0,1-.94"/></g><g id="ARC-31" data-name="ARC"><path class="cls-5" d="M550.3,177.87a1.22,1.22,0,0,0-1-.94"/></g><g id="ARC-32" data-name="ARC"><path class="cls-5" d="M573.89,176.93a1.24,1.24,0,0,0,1-.94"/></g><g id="ARC-33" data-name="ARC"><path class="cls-5" d="M574.87,177.87a1.22,1.22,0,0,0-1-.94"/></g><path class="cls-9" d="M555.81,221.2s5.28,6.86,7.94,5.57-7.24-10.46-7.24-10.46-3.9-4-4.65-2S555.81,221.2,555.81,221.2Z"/><path class="cls-9" d="M557.56,209.23s-4.37-7.08-6.29-5.76,3.56,9.44,3.56,9.44,3.83,7.57,5.71,5.53S557.56,209.23,557.56,209.23Z"/><path class="cls-9" d="M552.17,168.31s3.62-.75,5.2-8.34,1.11-7.68.31-8-4.2,2.24-5.22,9.2S550.91,168,552.17,168.31Z"/><g id="LWPOLYLINE-67" data-name="LWPOLYLINE"><path class="cls-6" d="M554.12,71.42h17.81l-.29-5.81A3.75,3.75,0,0,0,567.9,62h-9.74a3.76,3.76,0,0,0-3.75,3.57Z"/></g><g id="LWPOLYLINE-68" data-name="LWPOLYLINE"><path class="cls-6" d="M570.52,71.42l-.28-5.74a2.34,2.34,0,0,0-2.34-2.23h-9.74a2.34,2.34,0,0,0-2.34,2.23l-.29,5.74"/></g><g id="LWPOLYLINE-69" data-name="LWPOLYLINE"><path class="cls-6" d="M532.91,71.42h17.82l-.3-5.81A3.75,3.75,0,0,0,546.69,62H537a3.76,3.76,0,0,0-3.75,3.57Z"/></g><g id="LWPOLYLINE-70" data-name="LWPOLYLINE"><path class="cls-6" d="M549.32,71.42,549,65.68a2.34,2.34,0,0,0-2.34-2.23H537a2.34,2.34,0,0,0-2.34,2.23l-.29,5.74"/></g><g id="LWPOLYLINE-71" data-name="LWPOLYLINE"><path class="cls-6" d="M575.33,71.42h17.81l-.29-5.81A3.76,3.76,0,0,0,589.1,62h-9.74a3.75,3.75,0,0,0-3.74,3.57Z"/></g><g id="LWPOLYLINE-72" data-name="LWPOLYLINE"><path class="cls-6" d="M591.83,71.65l-.29-5.74a2.34,2.34,0,0,0-2.34-2.23h-9.74a2.34,2.34,0,0,0-2.34,2.23l-.29,5.74"/></g><g id="LWPOLYLINE-73" data-name="LWPOLYLINE"><path class="cls-6" d="M571.93,93H554.12l.29,5.82a3.76,3.76,0,0,0,3.75,3.56h9.74a3.75,3.75,0,0,0,3.74-3.56Z"/></g><g id="LWPOLYLINE-74" data-name="LWPOLYLINE"><path class="cls-6" d="M555.53,93l.29,5.75a2.34,2.34,0,0,0,2.34,2.22h9.74a2.34,2.34,0,0,0,2.34-2.22l.28-5.75"/></g><g id="LWPOLYLINE-75" data-name="LWPOLYLINE"><path class="cls-6" d="M593.14,93H575.33l.29,5.82a3.75,3.75,0,0,0,3.74,3.56h9.74a3.76,3.76,0,0,0,3.75-3.56Z"/></g><g id="LWPOLYLINE-76" data-name="LWPOLYLINE"><path class="cls-6" d="M576.74,93l.28,5.75a2.34,2.34,0,0,0,2.34,2.22h9.74a2.34,2.34,0,0,0,2.34-2.22l.29-5.75"/></g><g id="LWPOLYLINE-77" data-name="LWPOLYLINE"><path class="cls-6" d="M596.53,71.42h17.82l-.29-5.81A3.76,3.76,0,0,0,610.31,62h-9.74a3.75,3.75,0,0,0-3.74,3.57Z"/></g><g id="LWPOLYLINE-78" data-name="LWPOLYLINE"><path class="cls-6" d="M613,71.65l-.29-5.74a2.34,2.34,0,0,0-2.34-2.23h-9.74a2.34,2.34,0,0,0-2.34,2.23L598,71.65"/></g><g id="LWPOLYLINE-79" data-name="LWPOLYLINE"><path class="cls-6" d="M614.35,93H596.53l.3,5.82a3.75,3.75,0,0,0,3.74,3.56h9.74a3.76,3.76,0,0,0,3.75-3.56Z"/></g><g id="LWPOLYLINE-80" data-name="LWPOLYLINE"><path class="cls-6" d="M597.94,93l.29,5.75a2.34,2.34,0,0,0,2.34,2.22h9.74a2.34,2.34,0,0,0,2.34-2.22l.29-5.75"/></g><g id="LWPOLYLINE-81" data-name="LWPOLYLINE"><path class="cls-6" d="M550.73,93H532.91l.29,5.82a3.76,3.76,0,0,0,3.75,3.56h9.74a3.75,3.75,0,0,0,3.74-3.56Z"/></g><g id="LWPOLYLINE-82" data-name="LWPOLYLINE"><path class="cls-6" d="M534.22,92.81l.29,5.74a2.34,2.34,0,0,0,2.34,2.23h9.74a2.34,2.34,0,0,0,2.34-2.23l.29-5.74"/></g><g id="LWPOLYLINE-83" data-name="LWPOLYLINE"><rect class="cls-6" x="527.08" y="67.86" width="93.09" height="28.12"/></g><g id="LWPOLYLINE-84" data-name="LWPOLYLINE"><rect class="cls-6" x="587.31" y="230.82" width="53.44" height="16.88" rx="1.88"/></g><g id="CIRCLE"><path class="cls-6" d="M609.81,234.57a.47.47,0,1,1-.47.47.47.47,0,0,1,.47-.47Z"/></g><g id="CIRCLE-2" data-name="CIRCLE"><path class="cls-6" d="M609.81,243a.47.47,0,1,1-.47.47.47.47,0,0,1,.47-.47Z"/></g><g id="CIRCLE-3" data-name="CIRCLE"><path class="cls-6" d="M618.25,234.57a.47.47,0,1,1-.47.47.47.47,0,0,1,.47-.47Z"/></g><g id="CIRCLE-4" data-name="CIRCLE"><path class="cls-6" d="M618.25,243a.47.47,0,1,1-.47.47.47.47,0,0,1,.47-.47Z"/></g><g id="CIRCLE-5" data-name="CIRCLE"><path class="cls-6" d="M626.69,234.57a.47.47,0,1,1-.47.47.47.47,0,0,1,.47-.47Z"/></g><g id="CIRCLE-6" data-name="CIRCLE"><path class="cls-6" d="M626.69,243a.47.47,0,1,1-.47.47.47.47,0,0,1,.47-.47Z"/></g><g id="CIRCLE-7" data-name="CIRCLE"><path class="cls-6" d="M635.13,234.57a.47.47,0,1,1-.47.47.47.47,0,0,1,.47-.47Z"/></g><g id="CIRCLE-8" data-name="CIRCLE"><path class="cls-6" d="M635.13,243a.47.47,0,1,1-.47.47.47.47,0,0,1,.47-.47Z"/></g><g id="CIRCLE-9" data-name="CIRCLE"><path class="cls-6" d="M601.38,234.57a.47.47,0,1,1-.47.47.47.47,0,0,1,.47-.47Z"/></g><g id="CIRCLE-10" data-name="CIRCLE"><path class="cls-6" d="M601.38,243a.47.47,0,1,1-.47.47.47.47,0,0,1,.47-.47Z"/></g><g id="CIRCLE-11" data-name="CIRCLE"><path class="cls-6" d="M592.94,234.57a.47.47,0,1,1-.47.47.47.47,0,0,1,.47-.47Z"/></g><g id="CIRCLE-12" data-name="CIRCLE"><path class="cls-6" d="M592.94,243a.47.47,0,1,1-.47.47.47.47,0,0,1,.47-.47Z"/></g><g id="CIRCLE-13" data-name="CIRCLE"><path class="cls-6" d="M609.81,234.57a.47.47,0,1,1-.47.47.47.47,0,0,1,.47-.47Z"/></g><g id="CIRCLE-14" data-name="CIRCLE"><path class="cls-6" d="M609.81,243a.47.47,0,1,1-.47.47.47.47,0,0,1,.47-.47Z"/></g><g id="CIRCLE-15" data-name="CIRCLE"><path class="cls-6" d="M618.25,234.57a.47.47,0,1,1-.47.47.47.47,0,0,1,.47-.47Z"/></g><g id="CIRCLE-16" data-name="CIRCLE"><path class="cls-6" d="M618.25,243a.47.47,0,1,1-.47.47.47.47,0,0,1,.47-.47Z"/></g><g id="CIRCLE-17" data-name="CIRCLE"><path class="cls-6" d="M626.69,234.57a.47.47,0,1,1-.47.47.47.47,0,0,1,.47-.47Z"/></g><g id="CIRCLE-18" data-name="CIRCLE"><path class="cls-6" d="M626.69,243a.47.47,0,1,1-.47.47.47.47,0,0,1,.47-.47Z"/></g><g id="CIRCLE-19" data-name="CIRCLE"><path class="cls-6" d="M635.13,234.57a.47.47,0,1,1-.47.47.47.47,0,0,1,.47-.47Z"/></g><g id="CIRCLE-20" data-name="CIRCLE"><path class="cls-6" d="M635.13,243a.47.47,0,1,1-.47.47.47.47,0,0,1,.47-.47Z"/></g><g id="CIRCLE-21" data-name="CIRCLE"><path class="cls-6" d="M601.38,234.57a.47.47,0,1,1-.47.47.47.47,0,0,1,.47-.47Z"/></g><g id="CIRCLE-22" data-name="CIRCLE"><path class="cls-6" d="M601.38,243a.47.47,0,1,1-.47.47.47.47,0,0,1,.47-.47Z"/></g><g id="CIRCLE-23" data-name="CIRCLE"><path class="cls-6" d="M592.94,234.57a.47.47,0,1,1-.47.47.47.47,0,0,1,.47-.47Z"/></g><g id="CIRCLE-24" data-name="CIRCLE"><path class="cls-6" d="M592.94,243a.47.47,0,1,1-.47.47.47.47,0,0,1,.47-.47Z"/></g><path class="cls-9" d="M612.6,166.87s9.33-3.81,12.38,6.16,5.26,28.94-1.84,37.6-25.34-8.87-25.34-8.87-10.84-8.24-1.86-20.32S612.6,166.87,612.6,166.87Z"/><g id="LWPOLYLINE-85" data-name="LWPOLYLINE"><polyline class="cls-10" points="283.42 17.07 283.42 22.7 171.85 22.7 171.85 17.07"/></g><g id="LWPOLYLINE-86" data-name="LWPOLYLINE"><polyline class="cls-10" points="383.12 39.58 383.12 45.2 319.98 45.2 319.98 39.58"/></g><g id="LWPOLYLINE-87" data-name="LWPOLYLINE"><polyline class="cls-10" points="430.49 39.58 430.49 45.2 473.61 45.2 473.61 39.58"/></g><g id="LWPOLYLINE-88" data-name="LWPOLYLINE"><polyline class="cls-10" points="321.85 437.07 321.85 431.45 423.1 431.45 423.1 437.07"/></g><g id="LWPOLYLINE-89" data-name="LWPOLYLINE"><polyline class="cls-10" points="278.73 437.07 278.73 431.45 243.1 431.45 243.1 437.07"/></g><g id="LWPOLYLINE-90" data-name="LWPOLYLINE"><polyline class="cls-10" points="149.35 437.07 149.35 431.45 104.35 431.45 104.35 437.07"/></g><g id="LWPOLYLINE-91" data-name="LWPOLYLINE"><polyline class="cls-10" points="74.35 437.07 74.35 431.45 29.35 431.45 29.35 437.07"/></g><g id="LWPOLYLINE-92" data-name="LWPOLYLINE"><polyline class="cls-10" points="649.04 39.58 649.04 45.2 498.22 45.2 498.22 39.58"/></g><g id="LWPOLYLINE-93" data-name="LWPOLYLINE"><polygon class="cls-11" points="193.88 13.32 192.95 13.32 175.6 13.32 174.67 13.32 174.67 14.55 192.95 14.55 193.88 14.55 193.88 13.32"/></g><g id="LWPOLYLINE-94" data-name="LWPOLYLINE"><polygon class="cls-11" points="226.58 13.32 225.88 13.32 195.76 13.32 195.76 14.55 226.57 14.55 226.58 13.32"/></g><g id="LWPOLYLINE-95" data-name="LWPOLYLINE"><polygon class="cls-11" points="260.45 13.32 259.51 13.32 230.33 13.32 229.63 13.32 229.63 14.55 260.45 14.55 260.45 13.32"/></g><g id="LWPOLYLINE-96" data-name="LWPOLYLINE"><polygon class="cls-11" points="281.54 13.32 280.6 13.32 262.32 13.32 262.32 14.55 281.54 14.55 281.54 13.32"/></g><g id="LWPOLYLINE-97" data-name="LWPOLYLINE"><polygon class="cls-11" points="360.76 35.82 321.85 35.83 320.92 35.83 320.92 37.05 360.76 37.05 360.76 35.82"/></g><g id="LWPOLYLINE-98" data-name="LWPOLYLINE"><polygon class="cls-11" points="382.32 35.83 381.38 35.83 362.63 35.82 362.63 37.05 382.32 37.05 382.32 35.83"/></g><g id="LWPOLYLINE-99" data-name="LWPOLYLINE"><polygon class="cls-11" points="432.01 35.82 470.92 35.83 471.85 35.83 471.85 37.05 432.01 37.05 432.01 35.82"/></g><g id="LWPOLYLINE-100" data-name="LWPOLYLINE"><polygon class="cls-11" points="410.45 35.83 411.38 35.83 430.13 35.82 430.13 37.05 410.45 37.05 410.45 35.83"/></g><g id="LWPOLYLINE-101" data-name="LWPOLYLINE"><polygon class="cls-11" points="395.56 439.59 420.29 439.59 420.29 440.82 419.35 440.82 396.27 440.82 395.56 440.82 395.56 439.59"/></g><g id="LWPOLYLINE-102" data-name="LWPOLYLINE"><polygon class="cls-11" points="349.16 439.59 392.99 439.6 392.99 440.82 392.28 440.82 349.16 440.82 349.16 439.59"/></g><g id="LWPOLYLINE-103" data-name="LWPOLYLINE"><polygon class="cls-11" points="346.58 439.59 324.67 439.59 324.67 440.82 325.6 440.82 345.88 440.82 346.58 440.82 346.58 439.59"/></g><g id="LWPOLYLINE-104" data-name="LWPOLYLINE"><polygon class="cls-11" points="457.79 380.54 457.79 328.5 456.56 328.5 456.56 380.53 457.79 380.54"/></g><g id="LWPOLYLINE-105" data-name="LWPOLYLINE"><polygon class="cls-11" points="457.79 406.55 457.79 405.61 457.79 382.41 456.56 382.41 456.56 406.55 457.79 406.55"/></g><g id="LWPOLYLINE-106" data-name="LWPOLYLINE"><polygon class="cls-11" points="457.79 302.95 457.79 303.89 457.79 326.63 456.56 326.63 456.56 302.95 457.79 302.95"/></g><g id="LWPOLYLINE-107" data-name="LWPOLYLINE"><polygon class="cls-11" points="546.75 273.95 516.28 273.95 515.35 273.95 515.35 272.72 546.75 272.72 546.75 273.95"/></g><g id="LWPOLYLINE-108" data-name="LWPOLYLINE"><polygon class="cls-11" points="599.25 273.95 598.31 273.95 550.27 273.95 548.63 273.95 548.63 272.72 599.25 272.72 599.25 273.95"/></g><g id="LWPOLYLINE-109" data-name="LWPOLYLINE"><rect class="cls-11" x="244.04" y="439.59" width="33.75" height="1.23"/></g><g id="LWPOLYLINE-110" data-name="LWPOLYLINE"><rect class="cls-11" x="107.17" y="439.59" width="39.38" height="1.23"/></g><g id="LWPOLYLINE-111" data-name="LWPOLYLINE"><polygon class="cls-11" points="615.17 35.83 614.24 35.83 534.9 35.83 533.85 35.83 533.85 37.05 615.17 37.05 615.17 35.83"/></g><g id="LWPOLYLINE-112" data-name="LWPOLYLINE"><polygon class="cls-11" points="649.04 35.83 648.1 35.83 617.75 35.83 617.75 37.05 649.04 37.05 649.04 35.83"/></g><g id="LWPOLYLINE-113" data-name="LWPOLYLINE"><rect class="cls-11" x="32.17" y="439.59" width="39.38" height="1.23"/></g><g id="LWPOLYLINE-114" data-name="LWPOLYLINE"><polygon class="cls-11" points="531.27 35.83 500.92 35.83 499.98 35.83 499.98 37.05 531.27 37.05 531.27 35.83"/></g><line class="cls-12" x1="175.6" y1="17.08" x2="282.48" y2="17.08"/><line class="cls-12" x1="321.85" y1="39.58" x2="381.39" y2="39.58"/><line class="cls-12" x1="430.49" y1="39.58" x2="473.61" y2="39.58"/><line class="cls-12" x1="499.4" y1="39.58" x2="649.7" y2="39.58"/><line class="cls-11" x1="33.1" y1="437.08" x2="70.6" y2="437.08"/><line class="cls-11" x1="108.1" y1="437.08" x2="145.6" y2="437.08"/><line class="cls-11" x1="244.98" y1="437.08" x2="276.85" y2="437.08"/><line class="cls-11" x1="325.6" y1="437.08" x2="421.23" y2="437.08"/><line class="cls-11" x1="454.04" y1="299.85" x2="454.04" y2="411.29"/><line class="cls-11" x1="512" y1="270.2" x2="600.19" y2="270.2"/><line class="cls-13" x1="448.45" y1="299.85" x2="448.45" y2="411.29"/><polyline class="cls-13" points="512 264.46 600.19 264.46 600.19 273.95"/><g id="LWPOLYLINE-115" data-name="LWPOLYLINE"><polyline class="cls-13" points="284.35 17.07 284.35 8.64 171.85 8.64 171.85 17.07"/></g><g id="LWPOLYLINE-116" data-name="LWPOLYLINE"><polyline class="cls-13" points="423.1 441.76 423.1 448.32 321.85 448.32 321.85 441.76"/></g><g id="LWPOLYLINE-117" data-name="LWPOLYLINE"><polyline class="cls-13" points="454.04 408.89 461.07 408.89 461.07 300.15 454.04 300.15"/></g><g id="LWPOLYLINE-118" data-name="LWPOLYLINE"><polyline class="cls-13" points="600.68 277.23 512.53 277.23 512.53 270.2"/></g><g id="LWPOLYLINE-119" data-name="LWPOLYLINE"><polyline class="cls-13" points="241.23 441.76 241.23 448.32 280.6 448.32 280.6 441.76"/></g><g id="LWPOLYLINE-120" data-name="LWPOLYLINE"><polyline class="cls-13" points="104.35 441.76 104.35 448.32 149.35 448.32 149.35 441.76"/></g><g id="LWPOLYLINE-121" data-name="LWPOLYLINE"><polyline class="cls-13" points="29.35 441.76 29.35 448.32 74.35 448.32 74.35 441.76"/></g><line class="cls-14" x1="601.13" y1="277.23" x2="637.2" y2="277.23"/><line class="cls-15" x1="600.19" y1="270.2" x2="634.41" y2="270.2"/><polyline class="cls-16" points="318.1 31.14 385.13 31.14 385.13 32.57"/><polyline class="cls-16" points="407.63 34.56 407.63 31.14 474.67 31.14 474.67 34"/><polyline class="cls-16" points="497.17 35.83 497.17 31.14 651.85 31.14 651.85 32.68"/><g id="LWPOLYLINE-122" data-name="LWPOLYLINE"><polygon class="cls-12" points="470.92 37.05 471.85 37.05 471.85 35.83 470.92 35.83 470.92 34.89 472.79 34.89 472.79 31.14 473.73 31.14 473.73 34.89 474.67 34.89 474.67 39.58 470.92 39.58 470.92 37.05"/></g><g id="LWPOLYLINE-123" data-name="LWPOLYLINE"><polyline class="cls-12" points="227.63 10.04 228.57 10.04 228.57 12.39 230.33 12.39 230.33 13.32 229.63 13.32 229.63 14.55 230.33 14.55 230.33 17.07 228.46 17.07 228.46 16.61 227.75 16.61 227.75 17.07 225.88 17.07 225.88 14.55 226.57 14.55 226.58 13.32 225.88 13.32 225.88 12.39 227.63 12.39 227.63 10.04"/></g><g id="LWPOLYLINE-124" data-name="LWPOLYLINE"><polygon class="cls-12" points="259.51 14.55 260.45 14.55 260.45 13.32 259.51 13.32 259.51 12.39 261.38 12.39 261.38 10.04 262.32 10.04 262.32 12.39 263.26 12.39 263.26 13.32 262.32 13.32 262.32 14.55 263.26 14.55 263.26 15.73 262.44 15.73 262.44 16.61 261.38 16.61 261.38 17.07 259.51 17.07 259.51 14.55"/></g><g id="LWPOLYLINE-125" data-name="LWPOLYLINE"><polygon class="cls-12" points="284.35 12.39 283.42 12.39 283.42 8.64 282.48 8.64 282.48 12.39 280.6 12.39 280.6 13.32 281.54 13.32 281.54 14.55 280.6 14.55 280.6 17.07 284.35 17.07 284.35 12.39"/></g><g id="LWPOLYLINE-126" data-name="LWPOLYLINE"><polygon class="cls-12" points="175.6 14.55 174.67 14.55 174.67 13.32 175.6 13.32 175.6 12.39 173.73 12.39 173.73 8.64 172.79 8.64 172.79 12.39 171.85 12.39 171.85 17.07 175.6 17.07 175.6 14.55"/></g><g id="LWPOLYLINE-127" data-name="LWPOLYLINE"><polygon class="cls-12" points="196.7 14.55 195.76 14.55 195.76 13.32 196.7 13.32 196.7 12.39 194.82 12.39 194.82 10.04 193.88 10.04 193.88 12.39 192.95 12.39 192.95 13.32 193.88 13.32 193.88 14.55 192.95 14.55 192.95 15.73 193.77 15.73 193.77 16.61 194.82 16.61 194.82 17.07 196.7 17.07 196.7 14.55"/></g><g id="LWPOLYLINE-128" data-name="LWPOLYLINE"><polygon class="cls-12" points="359.82 37.05 360.76 37.05 360.76 35.82 359.82 35.82 359.82 34.89 361.7 34.89 361.7 32.54 362.63 32.54 362.63 34.89 363.57 34.89 363.57 35.82 362.63 35.82 362.63 37.05 363.57 37.05 363.57 38.23 362.75 38.23 362.75 39.1 361.7 39.1 361.7 39.57 359.82 39.57 359.82 37.05"/></g><g id="LWPOLYLINE-129" data-name="LWPOLYLINE"><polygon class="cls-12" points="321.85 37.05 320.92 37.05 320.92 35.83 321.85 35.83 321.85 34.89 319.98 34.89 319.98 31.14 319.04 31.14 319.04 34.89 318.1 34.89 318.1 39.58 321.85 39.58 321.85 37.05"/></g><g id="LWPOLYLINE-130" data-name="LWPOLYLINE"><polygon class="cls-12" points="385.13 34.89 384.2 34.89 384.2 31.14 383.26 31.14 383.26 34.89 381.38 34.89 381.38 35.83 382.32 35.83 382.32 37.05 381.38 37.05 381.38 39.58 385.13 39.58 385.13 34.89"/></g><g id="LWPOLYLINE-131" data-name="LWPOLYLINE"><polygon class="cls-12" points="432.95 37.05 432.01 37.05 432.01 35.82 432.95 35.82 432.95 34.89 431.07 34.89 431.07 32.54 430.13 32.54 430.13 34.89 429.2 34.89 429.2 35.82 430.13 35.82 430.13 37.05 429.2 37.05 429.2 38.23 430.02 38.23 430.02 39.1 431.07 39.1 431.07 39.57 432.95 39.57 432.95 37.05"/></g><g id="LWPOLYLINE-132" data-name="LWPOLYLINE"><polygon class="cls-12" points="407.63 34.89 408.57 34.89 408.57 31.14 409.51 31.14 409.51 34.89 411.38 34.89 411.38 35.83 410.45 35.83 410.45 37.05 411.38 37.05 411.38 39.58 407.63 39.58 407.63 34.89"/></g><g id="LWPOLYLINE-133" data-name="LWPOLYLINE"><polygon class="cls-12" points="392.28 438.42 393.22 438.42 393.22 437.54 394.39 437.54 394.39 437.07 396.27 437.07 396.27 439.59 395.56 439.59 395.56 440.82 396.27 440.82 396.27 441.76 395.56 441.76 392.99 441.76 392.28 441.76 392.28 440.82 392.99 440.82 392.99 439.59 392.28 439.59 392.28 438.42"/></g><g id="LWPOLYLINE-134" data-name="LWPOLYLINE"><polygon class="cls-12" points="423.1 438.6 423.1 437.07 419.35 437.07 419.35 439.59 420.29 439.6 420.29 440.82 419.35 440.82 419.35 441.76 421.23 441.76 423.1 441.76 423.1 438.6"/></g><g id="LWPOLYLINE-135" data-name="LWPOLYLINE"><polygon class="cls-12" points="349.86 438.42 348.92 438.42 348.92 437.54 347.75 437.54 347.75 437.07 345.88 437.07 345.88 439.59 346.58 439.59 346.58 440.82 345.88 440.82 345.88 441.76 346.58 441.76 349.16 441.76 349.86 441.76 349.86 440.82 349.16 440.82 349.16 439.59 349.86 439.59 349.86 438.42"/></g><g id="LWPOLYLINE-136" data-name="LWPOLYLINE"><polygon class="cls-12" points="321.85 437.07 325.6 437.07 325.6 439.59 324.67 439.6 324.67 440.82 325.6 440.82 325.6 441.76 323.73 441.76 321.85 441.76 321.85 438.6 321.85 437.07"/></g><g id="LWPOLYLINE-137" data-name="LWPOLYLINE"><polygon class="cls-12" points="456.56 383.35 456.56 382.41 457.79 382.41 457.79 383.35 458.73 383.35 458.73 381.47 461.07 381.47 461.07 380.53 458.73 380.53 458.73 379.6 457.79 379.6 457.79 380.53 456.56 380.53 456.56 379.6 455.39 379.6 455.39 380.42 454.51 380.42 454.51 381.47 454.04 381.47 454.04 383.35 456.56 383.35"/></g><g id="LWPOLYLINE-138" data-name="LWPOLYLINE"><polygon class="cls-12" points="458.73 408.89 458.73 408.42 458.73 407.49 458.73 405.61 457.79 405.61 457.79 406.55 456.56 406.55 456.56 405.61 454.04 405.61 454.04 408.89 458.73 408.89"/></g><g id="LWPOLYLINE-139" data-name="LWPOLYLINE"><polygon class="cls-12" points="456.56 325.69 456.56 326.63 457.79 326.63 457.79 325.69 458.73 325.69 458.73 327.56 461.07 327.56 461.07 328.5 458.73 328.5 458.73 329.44 457.79 329.44 457.79 328.5 456.56 328.5 456.56 329.44 455.39 329.44 455.39 328.62 454.51 328.62 454.51 327.56 454.04 327.56 454.04 325.69 456.56 325.69"/></g><g id="LWPOLYLINE-140" data-name="LWPOLYLINE"><polygon class="cls-12" points="458.73 300.14 458.73 301.08 458.73 302.02 458.73 303.89 457.79 303.89 457.79 302.95 456.56 302.95 456.56 303.89 454.04 303.89 454.04 300.14 458.73 300.14"/></g><g id="LWPOLYLINE-141" data-name="LWPOLYLINE"><polygon class="cls-12" points="545.81 272.72 546.75 272.72 546.75 273.95 545.81 273.95 545.81 274.89 547.69 274.89 547.69 277.23 548.63 277.23 548.63 274.89 549.56 274.89 549.56 273.95 548.63 273.95 548.63 272.72 549.56 272.72 549.56 271.55 548.74 271.55 548.74 270.67 547.69 270.67 547.69 270.2 545.81 270.2 545.81 272.72"/></g><g id="LWPOLYLINE-142" data-name="LWPOLYLINE"><polygon class="cls-17" points="516.28 272.72 515.35 272.72 515.35 273.95 516.28 273.95 516.28 274.89 514.41 274.89 514.41 278.64 513.47 278.64 513.47 274.89 512.53 274.89 512.53 270.2 516.28 270.2 516.28 272.72"/></g><g id="LWPOLYLINE-143" data-name="LWPOLYLINE"><polygon class="cls-17" points="598.31 272.72 599.25 272.72 599.25 273.95 598.31 273.95 598.31 274.89 600.19 274.89 600.19 278.64 601.13 278.64 601.13 274.89 602.06 274.89 602.06 273.95 601.13 273.95 601.13 272.72 602.06 272.72 602.06 271.55 601.24 271.55 601.24 270.67 600.19 270.67 600.19 270.2 598.31 270.2 598.31 272.72"/></g><g id="LWPOLYLINE-144" data-name="LWPOLYLINE"><polygon class="cls-17" points="636.28 274.89 635.35 274.89 635.35 278.64 634.41 278.64 634.41 274.89 632.53 274.89 632.53 273.95 633.47 273.95 633.47 272.72 632.53 272.72 632.53 270.2 636.28 270.2 636.28 274.89"/></g><g id="LWPOLYLINE-145" data-name="LWPOLYLINE"><polygon class="cls-12" points="241.23 437.07 244.98 437.07 244.98 439.59 244.04 439.6 244.04 440.82 244.98 440.82 244.98 441.76 243.1 441.76 241.23 441.76 241.23 437.07"/></g><g id="LWPOLYLINE-146" data-name="LWPOLYLINE"><polygon class="cls-12" points="280.6 437.07 276.85 437.07 276.85 439.59 277.79 439.6 277.79 440.82 276.85 440.82 276.85 441.76 278.73 441.76 280.6 441.76 280.6 437.07"/></g><g id="LWPOLYLINE-147" data-name="LWPOLYLINE"><polygon class="cls-12" points="104.35 437.07 108.1 437.07 108.1 439.59 107.17 439.6 107.17 440.82 108.1 440.82 108.1 441.76 106.23 441.76 104.35 441.76 104.35 437.07"/></g><g id="LWPOLYLINE-148" data-name="LWPOLYLINE"><polygon class="cls-12" points="651.85 34.89 650.92 34.89 650.92 31.14 649.98 31.14 649.98 34.89 648.1 34.89 648.1 35.83 649.04 35.83 649.04 37.05 648.1 37.05 648.1 39.58 651.85 39.58 651.85 34.89"/></g><g id="LWPOLYLINE-149" data-name="LWPOLYLINE"><polygon class="cls-12" points="149.35 437.07 145.6 437.07 145.6 439.59 146.54 439.6 146.54 440.82 145.6 440.82 145.6 441.76 147.48 441.76 149.35 441.76 149.35 437.07"/></g><g id="LWPOLYLINE-150" data-name="LWPOLYLINE"><polygon class="cls-12" points="29.35 437.07 33.1 437.07 33.1 439.59 32.17 439.6 32.17 440.82 33.1 440.82 33.1 441.76 31.23 441.76 29.35 441.76 29.35 437.07"/></g><g id="LWPOLYLINE-151" data-name="LWPOLYLINE"><polygon class="cls-12" points="74.35 437.07 70.6 437.07 70.6 439.59 71.54 439.6 71.54 440.82 70.6 440.82 70.6 441.76 72.48 441.76 74.35 441.76 74.35 437.07"/></g><g id="LWPOLYLINE-152" data-name="LWPOLYLINE"><polygon class="cls-12" points="530.57 37.05 531.27 37.05 531.27 35.83 530.57 35.83 530.57 34.89 532.32 34.89 532.32 32.54 533.26 32.54 533.26 34.89 534.55 34.89 534.55 35.83 533.85 35.83 533.85 37.05 534.55 37.05 534.55 38.23 533.61 38.23 533.61 39.11 532.44 39.11 532.44 39.58 530.57 39.58 530.57 37.05"/></g><g id="LWPOLYLINE-153" data-name="LWPOLYLINE"><polygon class="cls-12" points="500.92 37.05 499.98 37.05 499.98 35.83 500.92 35.83 500.92 34.89 499.04 34.89 499.04 31.14 498.1 31.14 498.1 34.89 497.17 34.89 497.17 39.58 500.92 39.58 500.92 37.05"/></g><g id="LWPOLYLINE-154" data-name="LWPOLYLINE"><polygon class="cls-12" points="618.46 37.05 617.75 37.05 617.75 35.83 618.46 35.83 618.46 34.89 616.7 34.89 616.7 32.54 615.76 32.54 615.76 34.89 614.47 34.89 614.47 35.83 615.17 35.83 615.17 37.05 614.47 37.05 614.47 38.23 615.41 38.23 615.41 39.11 616.58 39.11 616.58 39.58 618.46 39.58 618.46 37.05"/></g><g id="LWPOLYLINE-155" data-name="LWPOLYLINE"><rect class="cls-18" x="36.96" y="362.28" width="1.64" height="33.75" transform="translate(-257.04 137.76) rotate(-45)"/></g><g id="LWPOLYLINE-156" data-name="LWPOLYLINE"><rect class="cls-18" x="313.77" y="120.2" width="1.64" height="33.75"/></g><g id="LWPOLYLINE-157" data-name="LWPOLYLINE"><rect class="cls-18" x="226.11" y="165.32" width="1.64" height="33.75"/></g><g id="LWPOLYLINE-158" data-name="LWPOLYLINE"><rect class="cls-18" x="285.88" y="189.22" width="1.64" height="22.5"/></g><g id="LWPOLYLINE-159" data-name="LWPOLYLINE"><rect class="cls-18" x="285.88" y="166.72" width="1.64" height="22.5"/></g><g id="LWPOLYLINE-160" data-name="LWPOLYLINE"><rect class="cls-18" x="102.36" y="320.59" width="1.64" height="33.75"/></g><g id="LWPOLYLINE-161" data-name="LWPOLYLINE"><rect class="cls-18" x="147.13" y="320.59" width="1.64" height="33.75"/></g><g id="LWPOLYLINE-162" data-name="LWPOLYLINE"><rect class="cls-19" x="267.39" y="191.46" width="1.64" height="33.75" transform="translate(-68.76 250.67) rotate(-45)"/></g><g id="LWPOLYLINE-163" data-name="LWPOLYLINE"><rect class="cls-19" x="248.94" y="262.45" width="1.64" height="33.75" transform="translate(-124.36 258.42) rotate(-45)"/></g><g id="LWPOLYLINE-164" data-name="LWPOLYLINE"><rect class="cls-18" x="226.23" y="302.13" width="1.64" height="33.75"/></g><g id="LWPOLYLINE-165" data-name="LWPOLYLINE"><rect class="cls-18" x="154.39" y="264.46" width="33.75" height="1.64"/></g><g id="LWPOLYLINE-166" data-name="LWPOLYLINE"><rect class="cls-18" x="237.6" y="343.33" width="33.75" height="1.64"/></g><g id="LWPOLYLINE-167" data-name="LWPOLYLINE"><rect class="cls-19" x="36.96" y="362.28" width="1.64" height="33.75" transform="translate(-257.04 137.76) rotate(-45)"/></g><g id="LWPOLYLINE-168" data-name="LWPOLYLINE"><rect class="cls-18" x="313.77" y="120.2" width="1.64" height="33.75"/></g><g id="LWPOLYLINE-169" data-name="LWPOLYLINE"><rect class="cls-18" x="102.36" y="320.59" width="1.64" height="33.75"/></g><g id="LWPOLYLINE-170" data-name="LWPOLYLINE"><rect class="cls-18" x="147.13" y="320.59" width="1.64" height="33.75"/></g><g id="LWPOLYLINE-171" data-name="LWPOLYLINE"><rect class="cls-18" x="154.39" y="264.46" width="33.75" height="1.64"/></g><g id="ARC-34" data-name="ARC"><path class="cls-18" d="M26.42,400.4a33.75,33.75,0,0,0,23.87-9.89"/></g><g id="ARC-35" data-name="ARC"><path class="cls-18" d="M256.86,195.83A33.74,33.74,0,0,0,247,219.69"/></g><g id="ARC-36" data-name="ARC"><path class="cls-18" d="M261.11,291.84A33.76,33.76,0,0,0,271,268"/></g><g id="ARC-37" data-name="ARC"><path class="cls-18" d="M26.42,400.4a33.75,33.75,0,0,0,23.87-9.89"/></g><g id="ARC-38" data-name="ARC"><path class="cls-18" d="M600.68,278.63c0,8.77,3.94,16.74,11.57,22.58"/></g><g id="LWPOLYLINE-172" data-name="LWPOLYLINE"><rect class="cls-19" x="606.48" y="287.89" width="33.5" height="1.32" transform="translate(8.48 594.75) rotate(-51.32)"/></g><rect class="cls-20" x="158.37" y="270.79" width="25.31" height="27.89"/><g id="LWPOLYLINE-173" data-name="LWPOLYLINE"><rect class="cls-11" x="315.13" y="45.2" width="69.65" height="34.69"/></g><g id="LWPOLYLINE-174" data-name="LWPOLYLINE"><path class="cls-11" d="M380.12,62.62V55.51a4.68,4.68,0,0,0-4.69-4.68H323.75a4.68,4.68,0,0,0-4.69,4.68v15a4.69,4.69,0,0,0,4.69,4.69h51.68a4.69,4.69,0,0,0,4.69-4.69V63.4"/></g><g id="ARC-39" data-name="ARC"><path class="cls-11" d="M376.56,62.61a3.24,3.24,0,1,0,0,.79"/></g><g id="LWPOLYLINE-175" data-name="LWPOLYLINE"><rect class="cls-20" x="315.41" y="183.43" width="35.63" height="0.83"/></g><g id="ARC-40" data-name="ARC"><path class="cls-20" d="M377.2,201.44a3.61,3.61,0,1,0,0,.86"/></g><g id="LWPOLYLINE-176" data-name="LWPOLYLINE"><path class="cls-20" d="M373.63,202.3h11.15v-.85H373.63a.43.43,0,1,0,0,.85Z"/></g><g id="LWPOLYLINE-177" data-name="LWPOLYLINE"><rect class="cls-11" x="281.07" y="344.38" width="13.12" height="2.46"/></g><g id="LWPOLYLINE-178" data-name="LWPOLYLINE"><rect class="cls-11" x="201.85" y="356.56" width="30.94" height="59.18"/></g><g id="LWPOLYLINE-179" data-name="LWPOLYLINE"><path class="cls-11" d="M217.4,362.31h-5.82a4.69,4.69,0,0,0-4.69,4.69v38.67a4.69,4.69,0,0,0,4.69,4.69H224a4.69,4.69,0,0,0,4.69-4.69V367a4.69,4.69,0,0,0-4.69-4.69h-5.82"/></g><g id="ARC-41" data-name="ARC"><path class="cls-11" d="M217.35,364.85a3.6,3.6,0,1,0,.87,0"/></g><g id="LWPOLYLINE-180" data-name="LWPOLYLINE"><path class="cls-11" d="M218.22,368.43V357.27h-.85v11.16a.43.43,0,0,0,.85,0Z"/></g><g id="ARC-42" data-name="ARC"><path class="cls-11" d="M376.56,62.61a3.24,3.24,0,1,0,0,.79"/></g><g id="LWPOLYLINE-181" data-name="LWPOLYLINE"><path class="cls-11" d="M373.31,63.4h11.47v-.77l-10,0h-1.49a.39.39,0,0,0-.39.39A.38.38,0,0,0,373.31,63.4Z"/></g><g id="LWPOLYLINE-182" data-name="LWPOLYLINE"><rect class="cls-11" x="281.07" y="344.38" width="13.12" height="2.46"/></g><line class="cls-11" x1="344" y1="183.43" x2="344" y2="184.26"/><g id="LWPOLYLINE-183" data-name="LWPOLYLINE"><rect class="cls-20" x="398.14" y="45.2" width="23.44" height="36.68"/></g><g id="LWPOLYLINE-184" data-name="LWPOLYLINE"><rect class="cls-11" x="398.14" y="81.88" width="23.44" height="102.89"/></g><g id="LWPOLYLINE-185" data-name="LWPOLYLINE"><rect class="cls-20" x="398.14" y="184.77" width="23.44" height="34.92"/></g><g id="LWPOLYLINE-186" data-name="LWPOLYLINE"><rect class="cls-20" x="462.83" y="105.32" width="37.5" height="117.89"/></g><line class="cls-11" x1="463.35" y1="193.26" x2="464.01" y2="193.26"/><line class="cls-21" x1="465.37" y1="193.26" x2="483.75" y2="193.26"/><polyline class="cls-11" points="484.44 193.26 485.1 193.26 485.1 193.92"/><line class="cls-22" x1="485.1" y1="195.32" x2="485.1" y2="211.44"/><polyline class="cls-11" points="485.1 212.15 485.1 212.81 484.44 212.81"/><line class="cls-21" x1="483.07" y1="212.81" x2="464.69" y2="212.81"/><line class="cls-11" x1="464.01" y1="212.81" x2="463.35" y2="212.81"/><line class="cls-11" x1="463.11" y1="137.48" x2="463.77" y2="137.48"/><line class="cls-21" x1="465.14" y1="137.48" x2="483.52" y2="137.48"/><polyline class="cls-11" points="484.2 137.48 484.86 137.48 484.86 138.14"/><line class="cls-23" x1="484.86" y1="139.46" x2="484.86" y2="159.96"/><polyline class="cls-11" points="484.86 160.62 484.86 161.28 484.2 161.28"/><line class="cls-21" x1="482.84" y1="161.28" x2="464.45" y2="161.28"/><line class="cls-11" x1="463.77" y1="161.28" x2="463.11" y2="161.28"/><path class="cls-20" d="M283.21,414.7c3.27.42,12.06,1.05,12.06,1.05"/><line class="cls-11" x1="491.78" y1="105.9" x2="491.78" y2="106.56"/><line class="cls-24" x1="491.78" y1="107.89" x2="491.78" y2="221.06"/><line class="cls-11" x1="491.78" y1="221.73" x2="491.78" y2="222.39"/><g id="CIRCLE-25" data-name="CIRCLE"><path class="cls-11" d="M415.43,134.75a.73.73,0,1,1,.73.73.73.73,0,0,1-.73-.73Z"/></g><g id="CIRCLE-26" data-name="CIRCLE"><path class="cls-11" d="M415.43,130.18a.73.73,0,1,1,.73.73.73.73,0,0,1-.73-.73Z"/></g><g id="CIRCLE-27" data-name="CIRCLE"><path class="cls-11" d="M412.44,130.18a.73.73,0,1,1,.73.73.72.72,0,0,1-.73-.73Z"/></g><g id="CIRCLE-28" data-name="CIRCLE"><path class="cls-11" d="M412.44,132.47a.73.73,0,1,1,.73.73.73.73,0,0,1-.73-.73Z"/></g><g id="CIRCLE-29" data-name="CIRCLE"><path class="cls-11" d="M412.44,134.75a.73.73,0,1,1,.73.73.73.73,0,0,1-.73-.73Z"/></g><g id="LWPOLYLINE-187" data-name="LWPOLYLINE"><rect class="cls-11" x="402.41" y="118.37" width="16.75" height="28.2" rx="0.39"/></g><circle class="cls-11" cx="406.75" cy="123.4" r="1.38"/><path class="cls-11" d="M410.07,127.57H404a.59.59,0,0,1-.58-.59v-7.16a.59.59,0,0,1,.58-.6h6.11a.05.05,0,0,1,.05,0v8.25A0,0,0,0,1,410.07,127.57Z"/><circle class="cls-11" cx="406.75" cy="132.47" r="1.38"/><path class="cls-11" d="M410.07,136.64H404a.58.58,0,0,1-.58-.59v-7.16a.58.58,0,0,1,.58-.59h6.11a0,0,0,0,1,.05,0v8.25A0,0,0,0,1,410.07,136.64Z"/><circle class="cls-11" cx="406.75" cy="141.54" r="1.38"/><path class="cls-11" d="M410.07,145.71H404a.58.58,0,0,1-.58-.59V138a.58.58,0,0,1,.58-.59h6.11a0,0,0,0,1,.05,0v8.24A0,0,0,0,1,410.07,145.71Z"/><circle class="cls-11" cx="414.66" cy="141.54" r="1.38"/><path class="cls-11" d="M411.34,137.37h6.11a.58.58,0,0,1,.58.59v7.16a.58.58,0,0,1-.58.59h-6.11a0,0,0,0,1,0-.05v-8.24A0,0,0,0,1,411.34,137.37Z"/><circle class="cls-11" cx="414.66" cy="123.4" r="1.38"/><path class="cls-11" d="M411.34,119.22h6.11a.59.59,0,0,1,.58.6V127a.59.59,0,0,1-.58.59h-6.11a0,0,0,0,1,0,0v-8.25A.05.05,0,0,1,411.34,119.22Z"/><g id="LINE-49" data-name="LINE"><line class="cls-11" x1="410.79" y1="81.88" x2="410.79" y2="82.54"/><line class="cls-25" x1="410.79" y1="83.86" x2="410.79" y2="183.45"/><line class="cls-11" x1="410.79" y1="184.11" x2="410.79" y2="184.77"/></g><g id="LWPOLYLINE-188" data-name="LWPOLYLINE"><polyline class="cls-11" points="479.33 164.96 466.7 164.96 466.7 187.35 479.33 187.35 479.33 164.96"/></g><rect class="cls-20" x="479.59" y="176.69" width="2.73" height="1.21" transform="translate(303.65 658.25) rotate(-90)"/><path class="cls-20" d="M480.46,175.33a.87.87,0,0,0-.27.27h-6.08a.41.41,0,1,0,0,.82h6.08a.86.86,0,0,0,1.15.27.78.78,0,0,0,.28-1.09A.88.88,0,0,0,480.46,175.33Z"/><g id="LINE-50" data-name="LINE"><line class="cls-11" x1="462.83" y1="116.41" x2="463.49" y2="116.41"/><line class="cls-26" x1="464.87" y1="116.41" x2="483.51" y2="116.41"/><polyline class="cls-11" points="484.2 116.41 484.86 116.41 484.86 117.07"/><line class="cls-27" x1="484.86" y1="118.39" x2="484.86" y2="136.16"/><line class="cls-11" x1="484.86" y1="136.82" x2="484.86" y2="137.48"/></g><g id="LWPOLYLINE-189" data-name="LWPOLYLINE"><polyline class="cls-28" points="162.9 161.57 162.9 208.44 224.24 208.44"/></g><g id="LWPOLYLINE-190" data-name="LWPOLYLINE"><line class="cls-28" x1="300.64" y1="216.41" x2="300.64" y2="161.57"/></g><g id="LWPOLYLINE-191" data-name="LWPOLYLINE"><line class="cls-28" x1="213.1" y1="343.33" x2="213.1" y2="297.27"/></g><g id="LWPOLYLINE-192" data-name="LWPOLYLINE"><line class="cls-28" x1="187.09" y1="359.26" x2="187.09" y2="306.29"/></g><g id="LINE-51" data-name="LINE"><line class="cls-12" x1="220.29" y1="201.91" x2="220.29" y2="214.97"/></g><g id="LINE-52" data-name="LINE"><line class="cls-12" x1="217.87" y1="201.91" x2="217.87" y2="214.97"/></g><g id="LINE-53" data-name="LINE"><line class="cls-12" x1="215.45" y1="201.91" x2="215.45" y2="214.97"/></g><g id="LINE-54" data-name="LINE"><line class="cls-12" x1="213.03" y1="201.91" x2="213.03" y2="214.97"/></g><g id="LINE-55" data-name="LINE"><line class="cls-12" x1="210.61" y1="201.91" x2="210.61" y2="214.97"/></g><g id="LINE-56" data-name="LINE"><line class="cls-12" x1="208.19" y1="214.97" x2="208.19" y2="201.91"/></g><g id="LINE-57" data-name="LINE"><line class="cls-12" x1="294.12" y1="165.51" x2="307.17" y2="165.51"/></g><g id="LINE-58" data-name="LINE"><line class="cls-12" x1="294.12" y1="167.93" x2="307.17" y2="167.93"/></g><g id="LINE-59" data-name="LINE"><line class="cls-12" x1="294.12" y1="170.35" x2="307.17" y2="170.35"/></g><g id="LINE-60" data-name="LINE"><line class="cls-12" x1="294.12" y1="172.77" x2="307.17" y2="172.77"/></g><g id="LINE-61" data-name="LINE"><line class="cls-12" x1="294.12" y1="175.19" x2="307.17" y2="175.19"/></g><g id="LINE-62" data-name="LINE"><line class="cls-12" x1="307.17" y1="177.61" x2="294.12" y2="177.61"/></g><g id="LINE-63" data-name="LINE"><line class="cls-12" x1="206.58" y1="301.22" x2="219.63" y2="301.22"/></g><g id="LINE-64" data-name="LINE"><line class="cls-12" x1="206.58" y1="303.64" x2="219.63" y2="303.64"/></g><g id="LINE-65" data-name="LINE"><line class="cls-12" x1="206.58" y1="306.06" x2="219.63" y2="306.06"/></g><g id="LINE-66" data-name="LINE"><line class="cls-12" x1="206.58" y1="308.47" x2="219.63" y2="308.48"/></g><g id="LINE-67" data-name="LINE"><line class="cls-12" x1="206.58" y1="310.89" x2="219.63" y2="310.89"/></g><g id="LINE-68" data-name="LINE"><line class="cls-12" x1="219.63" y1="313.31" x2="206.58" y2="313.31"/></g><g id="LINE-69" data-name="LINE"><line class="cls-12" x1="180.56" y1="310.24" x2="193.62" y2="310.24"/></g><g id="LINE-70" data-name="LINE"><line class="cls-12" x1="180.56" y1="312.66" x2="193.62" y2="312.66"/></g><g id="LINE-71" data-name="LINE"><line class="cls-12" x1="180.56" y1="315.08" x2="193.62" y2="315.08"/></g><g id="LINE-72" data-name="LINE"><line class="cls-12" x1="180.56" y1="317.5" x2="193.62" y2="317.5"/></g><g id="LINE-73" data-name="LINE"><line class="cls-12" x1="180.56" y1="319.92" x2="193.62" y2="319.92"/></g><g id="LINE-74" data-name="LINE"><line class="cls-12" x1="193.62" y1="322.34" x2="180.56" y2="322.34"/></g><g id="LINE-75" data-name="LINE"><line class="cls-12" x1="156.37" y1="165.51" x2="169.43" y2="165.51"/></g><g id="LINE-76" data-name="LINE"><line class="cls-12" x1="156.37" y1="167.93" x2="169.43" y2="167.93"/></g><g id="LINE-77" data-name="LINE"><line class="cls-12" x1="156.37" y1="170.35" x2="169.43" y2="170.35"/></g><g id="LINE-78" data-name="LINE"><line class="cls-12" x1="156.37" y1="172.77" x2="169.43" y2="172.77"/></g><g id="LINE-79" data-name="LINE"><line class="cls-12" x1="156.37" y1="175.19" x2="169.43" y2="175.19"/></g><g id="LINE-80" data-name="LINE"><line class="cls-12" x1="169.43" y1="177.61" x2="156.37" y2="177.61"/></g><g id="LINE-81" data-name="LINE"><line class="cls-12" x1="156.37" y1="172.77" x2="169.43" y2="172.77"/></g><rect class="cls-20" x="279.85" y="353.28" width="20.52" height="26.73"/><path class="cls-20" d="M283.86,374.76a1.14,1.14,0,0,1-1.14-1.15V359.68a1.14,1.14,0,0,1,1.14-1.15h10.31a1,1,0,0,1,1,1V373.8a1,1,0,0,1-1,1Z"/><path class="cls-20" d="M283.35,401c3.27-.37,11.92-1.05,11.92-1.05"/><path class="cls-20" d="M290.93,412.68a.87.87,0,0,1-.53.8c-.36.15-.73.28-1.09.41a15.86,15.86,0,0,1-3,.66c-.54.06-1.09.11-1.64.14a16.35,16.35,0,0,1-4.3-.36,10.42,10.42,0,0,1-5.49-3.17,5,5,0,0,1,.07-6.75,10.39,10.39,0,0,1,5.54-3.06,16,16,0,0,1,4.31-.28c.55,0,1.1.1,1.64.17a15.62,15.62,0,0,1,3,.72c.37.14.73.28,1.09.44a.88.88,0,0,1,.52.8Z"/><path class="cls-20" d="M295.12,400a1.14,1.14,0,0,0-1.08,1,57.76,57.76,0,0,0,0,13.74,1.14,1.14,0,0,0,1.08,1h0c1.18.06,2.36.1,3.54.13a1.52,1.52,0,0,0,1.54-1.39c.19-2.2.29-4.4.28-6.61s-.09-4.41-.28-6.61a1.52,1.52,0,0,0-1.54-1.39c-1.18,0-2.36.08-3.54.13Z"/><path class="cls-20" d="M296.61,366.16a1.21,1.21,0,1,1,0,1Z"/><path class="cls-20" d="M298,360.65a1.2,1.2,0,1,1-.48,0Z"/><path class="cls-20" d="M298,372.64a1.2,1.2,0,1,0-.48,0Z"/><path class="cls-20" d="M291.94,366.16h5.77a.49.49,0,1,1,0,1h-5.77a.49.49,0,0,1,0-1Z"/><line class="cls-20" x1="297.71" y1="361.84" x2="297.71" y2="358.46"/><line class="cls-20" x1="297.71" y1="374.83" x2="297.71" y2="371.45"/><path class="cls-20" d="M43.53,352.77c-3.27.36-11.92,1-11.92,1"/><path class="cls-20" d="M35.94,341.13a.89.89,0,0,1,.54-.8c.36-.15.72-.29,1.09-.41a15,15,0,0,1,3-.66c.55-.07,1.1-.11,1.65-.14a16.35,16.35,0,0,1,4.3.35A10.54,10.54,0,0,1,52,342.65,5,5,0,0,1,52,349.4a10.42,10.42,0,0,1-5.55,3.06,15.5,15.5,0,0,1-4.3.27c-.55,0-1.1-.09-1.65-.16a15,15,0,0,1-3-.73c-.37-.13-.73-.27-1.09-.43a.88.88,0,0,1-.52-.8Z"/><path class="cls-20" d="M43.66,339.11c-3.26-.43-12-1.05-12-1.05"/><path class="cls-20" d="M31.76,353.81a1.14,1.14,0,0,0,1.08-1,58.5,58.5,0,0,0,.41-6.87,58.37,58.37,0,0,0-.41-6.87,1.13,1.13,0,0,0-1.08-1h0c-1.18-.06-2.36-.1-3.54-.13a1.51,1.51,0,0,0-1.54,1.38q-.29,3.3-.29,6.62c0,2.2.1,4.41.29,6.61a1.51,1.51,0,0,0,1.54,1.38l3.54-.12Z"/><path class="cls-20" d="M60.21,303.65a1.13,1.13,0,1,1,0,.46Z"/><line class="cls-20" x1="61.33" y1="303.88" x2="58.15" y2="303.88"/><path class="cls-20" d="M68.49,304.11a1.14,1.14,0,0,1-1.11.9,1.13,1.13,0,0,1,0-2.26,1.14,1.14,0,0,1,1.11.9Z"/><line class="cls-20" x1="67.37" y1="303.88" x2="70.55" y2="303.88"/><g id="ARC-43" data-name="ARC"><path class="cls-20" d="M367.65,162.28c3.28-.36,11.94-1.05,11.94-1.05"/></g><g id="ARC-44" data-name="ARC"><path class="cls-20" d="M375.25,173.94a.89.89,0,0,1-.54.8c-.36.15-.72.29-1.09.41a15.16,15.16,0,0,1-3,.67c-.55.06-1.1.1-1.65.13a16,16,0,0,1-4.31-.35,10.54,10.54,0,0,1-5.49-3.18,5.06,5.06,0,0,1-1.3-3.39,5.13,5.13,0,0,1,1.36-3.37,10.4,10.4,0,0,1,5.56-3.07,15.6,15.6,0,0,1,4.31-.27c.55,0,1.1.09,1.65.17a14.92,14.92,0,0,1,3,.72c.37.13.73.27,1.09.43a.88.88,0,0,1,.52.81Z"/></g><g id="ARC-45" data-name="ARC"><path class="cls-20" d="M367.51,176c3.28.43,12.08,1.06,12.08,1.06"/></g><g id="ARC-46" data-name="ARC"><path class="cls-20" d="M379.44,161.24a1.14,1.14,0,0,0-1.08,1,58,58,0,0,0,0,13.77,1.14,1.14,0,0,0,1.08,1h0c1.18.05,2.36.1,3.55.13a1.52,1.52,0,0,0,1.54-1.39c.19-2.2.29-4.41.28-6.62s-.09-4.43-.28-6.63a1.52,1.52,0,0,0-1.54-1.39c-1.19,0-2.37.08-3.55.13Z"/></g><g id="LWPOLYLINE-193" data-name="LWPOLYLINE"><path class="cls-11" d="M378.09,129.67v8.6a1,1,0,0,1-1,1H365.66a1,1,0,0,1-1-1V120.1a1,1,0,0,1,1-.95h11.47a1,1,0,0,1,1,.95v9.57Z"/></g><g id="ARC-47" data-name="ARC"><path class="cls-20" d="M380.47,128.71a1.2,1.2,0,0,1,2.31.48,1.19,1.19,0,0,1-.72,1.1,1.21,1.21,0,0,1-1.59-.62Z"/></g><g id="ARC-48" data-name="ARC"><path class="cls-20" d="M381.82,123.19a1.2,1.2,0,0,1-.24,2.38,1.2,1.2,0,0,1-.24-2.38Z"/></g><g id="ARC-49" data-name="ARC"><path class="cls-20" d="M381.82,135.19a1.21,1.21,0,1,0-.48,0Z"/></g><g id="LINE-82" data-name="LINE"><path class="cls-20" d="M375.79,128.71h5.79a.48.48,0,0,1,.48.48.49.49,0,0,1-.48.48h-5.79a.49.49,0,0,1-.48-.48A.48.48,0,0,1,375.79,128.71Z"/></g><line class="cls-20" x1="381.58" y1="124.38" x2="381.58" y2="120.99"/><line class="cls-20" x1="381.58" y1="137.38" x2="381.58" y2="134"/><g id="LWPOLYLINE-194" data-name="LWPOLYLINE"><path class="cls-11" d="M378.09,101v8.6a1,1,0,0,1-1,1H365.66a1,1,0,0,1-1-1V91.43a1,1,0,0,1,1-1h11.47a1,1,0,0,1,1,1V101Z"/></g><g id="LWPOLYLINE-195" data-name="LWPOLYLINE"><rect class="cls-11" x="361.83" y="83.07" width="22.95" height="68.85"/></g><g id="ARC-50" data-name="ARC"><path class="cls-20" d="M380.47,99.8a1.2,1.2,0,0,1,2.31.48,1.19,1.19,0,0,1-.72,1.1,1.21,1.21,0,0,1-1.59-.62Z"/></g><g id="ARC-51" data-name="ARC"><path class="cls-20" d="M381.82,94.28a1.2,1.2,0,0,1-.24,2.38,1.2,1.2,0,0,1-.24-2.38Z"/></g><g id="ARC-52" data-name="ARC"><path class="cls-20" d="M381.82,106.28a1.21,1.21,0,1,0-.48,0Z"/></g><g id="LINE-83" data-name="LINE"><path class="cls-20" d="M375.79,99.8h5.79a.48.48,0,0,1,.48.48.49.49,0,0,1-.48.48h-5.79a.49.49,0,0,1-.48-.48A.48.48,0,0,1,375.79,99.8Z"/></g><line class="cls-20" x1="381.58" y1="95.47" x2="381.58" y2="92.08"/><line class="cls-20" x1="381.58" y1="108.47" x2="381.58" y2="105.09"/><g id="LWPOLYLINE-196" data-name="LWPOLYLINE"><rect class="cls-11" x="41.89" y="301.96" width="45" height="16.88"/></g><g id="LWPOLYLINE-197" data-name="LWPOLYLINE"><rect class="cls-11" x="53.96" y="305.71" width="20.86" height="9.38"/></g><g id="CIRCLE-30" data-name="CIRCLE"><path class="cls-11" d="M63.46,310.4a.94.94,0,1,1,.93.93.94.94,0,0,1-.93-.93Z"/></g><g id="LWPOLYLINE-198" data-name="LWPOLYLINE"><path class="cls-20" d="M64.86,302v6a.47.47,0,0,1-.94,0v-6h.94"/></g><g id="LWPOLYLINE-199" data-name="LWPOLYLINE"><polygon class="cls-29" points="423.1 448.32 426.85 448.32 426.85 446.45 462.48 446.45 462.48 421.14 461.07 421.14 461.07 408.89 448.42 408.89 448.42 415.39 429.55 415.39 429.55 431.45 423.1 431.45 423.1 439.79 423.1 448.32"/></g><g id="LWPOLYLINE-200" data-name="LWPOLYLINE"><polygon class="cls-29" points="318.1 448.32 321.85 448.32 321.85 431.45 309.9 431.45 309.9 335.88 306.38 335.88 306.38 343.32 271.35 343.32 271.35 346.84 300.29 346.84 300.29 425.82 278.73 425.82 278.73 437.07 280.6 437.07 280.6 448.32 284.35 448.32 284.35 446.45 318.1 446.45 318.1 448.32"/></g><g id="LWPOLYLINE-201" data-name="LWPOLYLINE"><polygon class="cls-29" points="241.23 448.32 241.23 437.07 243.1 437.07 243.1 425.82 233.96 425.82 233.96 415.39 201.85 415.39 201.85 357.27 233.96 357.27 233.96 346.84 237.6 346.84 237.6 343.32 227.87 343.32 227.87 335.88 224.35 335.88 224.35 343.32 201.85 343.32 201.85 297.27 224.35 297.27 224.35 302.13 227.87 302.13 227.87 267.97 237.24 267.97 237.24 264.46 188.14 264.46 188.14 267.97 191.89 267.97 191.89 301.72 150.64 301.72 150.64 267.97 154.39 267.97 154.39 264.46 150.64 264.46 150.64 260.71 147.13 260.71 147.13 320.59 150.64 320.59 150.64 306.29 198.34 306.29 198.34 359.26 150.64 359.26 150.64 354.34 147.13 354.34 147.1 360.32 143.38 360.32 143.38 363.83 174.67 363.83 174.67 431.45 149.35 431.45 149.35 448.32 153.1 448.32 153.1 446.45 237.48 446.45 237.48 448.32 241.23 448.32"/></g><g id="LWPOLYLINE-202" data-name="LWPOLYLINE"><polygon class="cls-29" points="100.6 448.32 104.35 448.32 104.35 431.45 74.35 431.45 74.35 448.32 78.1 448.32 78.1 446.45 100.6 446.45 100.6 448.32"/></g><g id="LWPOLYLINE-203" data-name="LWPOLYLINE"><polygon class="cls-29" points="25.6 448.32 29.35 448.32 29.35 431.45 26.42 431.45 26.42 400.39 20.68 400.39 20.68 414.34 17.17 414.34 17.17 446.45 25.6 446.45 25.6 448.32"/></g><g id="LWPOLYLINE-204" data-name="LWPOLYLINE"><polygon class="cls-29" points="26.42 366.64 26.42 363.83 109.63 363.83 109.63 360.32 105.88 360.32 105.88 354.34 102.36 354.34 102.36 360.32 26.42 360.32 26.42 301.96 102.36 301.96 102.36 320.59 105.88 320.59 105.88 223.21 147.13 223.21 147.13 226.96 150.64 226.96 150.64 223.21 246.97 223.21 246.97 219.69 227.75 219.69 227.75 199.07 224.24 199.07 224.24 219.69 151.46 219.69 151.46 161.57 224.24 161.57 224.24 165.32 227.75 165.32 227.75 161.57 246.97 161.57 246.97 158.05 151.46 158.05 151.46 22.7 171.85 22.7 171.85 0.2 168.1 0.2 166.85 2.4 165.24 4.35 163.31 5.99 161.12 7.27 158.74 8.14 156.25 8.58 153.71 8.58 151.22 8.14 148.59 7.12 148.59 219.69 130.6 219.69 111.39 219.69 102.44 219.69 102.44 274.65 102.44 299.09 17.17 299.09 17.17 355.39 17.17 363.72 20.68 363.72 20.68 366.64 26.42 366.64"/></g><g id="LWPOLYLINE-205" data-name="LWPOLYLINE"><polygon class="cls-29" points="309.9 302.13 309.9 294.69 448.42 294.69 448.42 300.14 462.48 300.14 462.48 293.69 512.53 293.69 512.53 264.46 418.65 264.46 418.65 291.18 309.9 291.18 309.9 264.46 270.99 264.46 270.99 267.97 287.05 267.97 287.05 294.69 306.38 294.69 306.38 302.13 309.9 302.13"/></g><g id="LWPOLYLINE-206" data-name="LWPOLYLINE"><polygon class="cls-29" points="315.41 120.2 315.41 45.2 319.98 45.2 319.98 39.57 318.1 39.57 318.1 0.2 314.35 0.2 313.1 2.4 311.49 4.35 309.56 5.99 307.37 7.27 304.99 8.14 302.5 8.58 299.96 8.58 297.47 8.14 295.09 7.27 292.9 5.99 290.97 4.35 289.35 2.4 288.1 0.2 284.35 0.2 284.35 17.07 283.42 17.07 283.42 22.7 287.05 22.7 287.05 50.01 311.89 50.01 311.89 120.2 315.41 120.2"/></g><g id="CIRCLE-31" data-name="CIRCLE"><path class="cls-29" d="M642.47,411.6a8.44,8.44,0,1,1,8.44,8.44,8.44,8.44,0,0,1-8.44-8.44Z"/></g><g id="LWPOLYLINE-207" data-name="LWPOLYLINE"><polygon class="cls-29" points="421.58 223.21 421.58 219.69 398.14 219.69 398.14 45.2 430.86 45.2 430.86 39.58 407.63 39.58 407.63 32.08 406.7 32.08 404.72 31.92 402.75 31.43 400.97 30.68 399.29 29.63 397.79 28.32 396.85 28.32 396.85 29.26 395.92 29.26 395.92 28.32 394.98 28.32 393.49 29.63 391.8 30.68 389.98 31.45 388.05 31.92 386.07 32.08 385.13 32.08 385.13 39.58 383.12 39.58 383.12 45.2 384.78 45.2 384.78 180.67 351.03 180.67 351.03 184.18 384.78 184.18 384.78 219.69 315.41 219.69 315.41 153.95 311.89 153.95 311.89 158.05 280.72 158.05 280.72 161.57 285.88 161.57 285.88 166.72 289.39 166.72 289.39 161.57 311.89 161.57 311.89 216.41 289.39 216.41 289.39 211.72 285.88 211.72 285.88 219.69 280.72 219.69 280.72 223.21 392.1 223.21 421.58 223.21"/></g><g id="LWPOLYLINE-208" data-name="LWPOLYLINE"><polygon class="cls-29" points="498.22 67.82 498.22 39.58 497.17 39.58 497.17 32.08 496.23 32.08 494.25 31.92 492.33 31.45 490.5 30.68 488.82 29.63 487.32 28.32 486.38 28.32 486.38 29.26 485.45 29.26 485.45 28.32 484.51 28.32 483.02 29.63 481.33 30.68 479.51 31.45 477.32 31.94 475.6 32.08 474.67 32.08 474.67 39.58 473.61 39.58 473.61 67.82 498.22 67.82"/></g><polygon class="cls-29" points="676.22 56.45 676.22 47.08 675.99 44.47 675.32 41.95 674.21 39.58 672.71 37.44 670.87 35.59 668.73 34.09 666.36 32.99 663.83 32.31 661.23 32.08 651.85 32.08 651.85 39.58 649.04 39.58 649.04 69.58 664.97 69.58 664.97 84.15 664.97 147.39 664.97 148.08 664.97 264.46 636.28 264.46 636.29 293.69 660.52 293.69 660.52 297.39 679.97 297.39 679.97 148.08 679.97 147.39 679.97 79.89 676.22 56.45"/><g id="LWPOLYLINE-209" data-name="LWPOLYLINE"><polygon class="cls-29" points="498.22 67.82 498.22 39.58 497.17 39.58 497.17 32.08 496.23 32.08 494.25 31.92 492.33 31.45 490.5 30.68 488.82 29.63 487.32 28.32 486.38 28.32 486.38 29.26 485.45 29.26 485.45 28.32 484.51 28.32 483.02 29.63 481.33 30.68 479.51 31.45 477.32 31.94 475.6 32.08 474.67 32.08 474.67 39.58 473.61 39.58 473.61 67.82 498.22 67.82"/></g><path class="cls-30" d="M185.25,78.17h.87l1.82,4.44h0l1.81-4.44h.88v5.6H190V79.22h0l-1.89,4.55h-.28l-1.88-4.55h0v4.55h-.65Z"/><path class="cls-30" d="M195.59,82.64h-2.52l-.39,1.13H192l2-5.6h.64l2,5.6H196Zm-.2-.58-1-3h0l-1.05,3Z"/><path class="cls-30" d="M197.55,81.91l.65-.11a1.47,1.47,0,0,0,1.66,1.46c.77,0,1.29-.36,1.29-.9s-.38-.88-1.55-1.25c-1.33-.44-1.78-.83-1.78-1.58s.73-1.48,1.79-1.48a2,2,0,0,1,2,1.63l-.65.14a1.34,1.34,0,0,0-1.39-1.15c-.68,0-1.12.34-1.12.86s.32.66,1.34,1c1.45.47,2,1,2,1.84s-.79,1.54-2,1.54A2.05,2.05,0,0,1,197.55,81.91Z"/><path class="cls-30" d="M204.59,78.79h-1.75v-.62H207v.62h-1.74v5h-.66Z"/><path class="cls-30" d="M208.47,78.17h3.35v.62h-2.7v1.79h2.48v.6h-2.48v2h2.7v.63h-3.35Z"/><path class="cls-30" d="M215.92,81.46l1.23,2.31h-.78l-1.18-2.28h-1.12v2.28h-.65v-5.6h2c1.16,0,1.86.62,1.86,1.65a1.55,1.55,0,0,1-1.4,1.63Zm-.52-.59c.82,0,1.25-.36,1.25-1.05s-.42-1-1.25-1h-1.33v2.08Z"/><path class="cls-30" d="M182.73,86.67h2.15a1.46,1.46,0,0,1,1.63,1.45,1.21,1.21,0,0,1-.65,1.15h0a1.34,1.34,0,0,1,.86,1.33c0,1.08-.68,1.66-2,1.66h-2Zm2,2.37c.73,0,1.09-.29,1.09-.89s-.37-.86-1.09-.86h-1.37V89Zm-.09,2.6c1,0,1.39-.31,1.39-1s-.39-1-1.38-1h-1.29v2Z"/><path class="cls-30" d="M188.35,86.67h3.36v.62H189v1.79h2.48v.6H189v2h2.7v.63h-3.36Z"/><path class="cls-30" d="M193.31,86.67h1.74c1.41,0,2.41,1,2.41,2.79,0,2-1,2.81-2.46,2.81h-1.69Zm1.65,5c1.14,0,1.84-.6,1.84-2.18,0-1.43-.7-2.17-1.79-2.17h-1v4.35Z"/><path class="cls-30" d="M201.6,90l1.23,2.31h-.78L200.87,90h-1.12v2.28h-.66v-5.6h2c1.17,0,1.87.62,1.87,1.65A1.55,1.55,0,0,1,201.6,90Zm-.52-.59c.82,0,1.25-.36,1.25-1.05s-.42-1-1.25-1h-1.33v2.08Z"/><path class="cls-30" d="M204.26,89.47c0-1.75.94-2.92,2.36-2.92S209,87.72,209,89.47s-.95,2.92-2.36,2.92S204.26,91.22,204.26,89.47Zm4.05,0c0-1.42-.64-2.3-1.69-2.3s-1.7.88-1.7,2.3.65,2.29,1.7,2.29S208.31,90.88,208.31,89.47Z"/><path class="cls-30" d="M210.32,89.47c0-1.75.94-2.92,2.36-2.92S215,87.72,215,89.47s-.95,2.92-2.36,2.92S210.32,91.22,210.32,89.47Zm4.05,0c0-1.42-.64-2.3-1.69-2.3s-1.7.88-1.7,2.3.65,2.29,1.7,2.29S214.37,90.88,214.37,89.47Z"/><path class="cls-30" d="M216.67,86.67h.88l1.81,4.44h0l1.81-4.44h.88v5.6h-.66V87.72h0l-1.88,4.55h-.28l-1.89-4.55h0v4.55h-.65Z"/><path class="cls-30" d="M176.79,95.92l-1.25.81V96l1.33-.86h.58v5.6h-.66Z"/><path class="cls-30" d="M181.67,99.62h-2.8v-.57l2.46-3.88h1V99h.72v.58h-.72v1.15h-.66Zm0-.58V95.69h0L179.53,99Z"/><path class="cls-30" d="M184.4,95.17H185V97h-.58Z"/><path class="cls-30" d="M186.12,97.58h2.09v.6h-2.09Z"/><path class="cls-30" d="M189.43,98.9l.65-.1c.11,1,.59,1.46,1.41,1.46a1.07,1.07,0,0,0,1.2-1.08c0-.76-.43-1.12-1.32-1.12H191v-.57h.4a1.06,1.06,0,0,0,1.18-.91c0-.57-.4-.92-1.07-.92a1.18,1.18,0,0,0-1.26,1l-.65-.09a1.8,1.8,0,0,1,1.91-1.57,1.54,1.54,0,0,1,1.73,1.49,1.33,1.33,0,0,1-.76,1.17v0a1.47,1.47,0,0,1,.89,1.45,1.69,1.69,0,0,1-1.85,1.71A2,2,0,0,1,189.43,98.9Z"/><path class="cls-30" d="M195,95.17h.58V97H195Zm1.06,0h.58V97h-.58Z"/><path class="cls-30" d="M200.33,99.33l1.31-1.3-1.31-1.29.39-.4L202,97.66l1.29-1.32.39.4L202.38,98l1.31,1.3-.39.39L202,98.41l-1.29,1.31Z"/><path class="cls-30" d="M207.87,95.92l-1.25.81V96l1.33-.86h.58v5.6h-.66Z"/><path class="cls-30" d="M211,100.14h3v.63h-3.72v-.53a2,2,0,0,1,.23-1.07c.2-.36.55-.64,1.43-1.09,1.16-.6,1.49-.94,1.49-1.5s-.49-.91-1.17-.91A1.29,1.29,0,0,0,210.88,97l-.67,0a1.93,1.93,0,0,1,2.06-1.93,1.68,1.68,0,0,1,1.84,1.53c0,.83-.42,1.32-1.65,1.94-.94.47-1.19.65-1.34.93A1.49,1.49,0,0,0,211,100.14Z"/><path class="cls-30" d="M215.83,95.17h.59V97h-.59Z"/><path class="cls-30" d="M217.83,97.58h2.09v.6h-2.09Z"/><path class="cls-30" d="M225.64,99a1.89,1.89,0,0,1-2,1.93c-1.47,0-2.3-1.1-2.3-2.83s1-3,2.32-3a1.8,1.8,0,0,1,1.87,1.49l-.62.16a1.18,1.18,0,0,0-1.23-1c-.92,0-1.6.87-1.66,2.22h0A2,2,0,0,1,225.64,99ZM225,99a1.27,1.27,0,0,0-1.34-1.34,1.33,1.33,0,1,0,0,2.66A1.27,1.27,0,0,0,225,99Z"/><path class="cls-30" d="M227.17,95.17h.58V97h-.58Zm1.06,0h.58V97h-.58Z"/><path class="cls-30" d="M354.71,400h2.15a1.45,1.45,0,0,1,1.63,1.44,1.19,1.19,0,0,1-.65,1.15v0a1.34,1.34,0,0,1,.86,1.33c0,1.08-.68,1.65-2,1.65h-2Zm2,2.37c.73,0,1.09-.29,1.09-.89s-.37-.86-1.09-.86h-1.38v1.75Zm-.1,2.6c1,0,1.4-.31,1.4-1s-.4-1-1.38-1h-1.3v2Z"/><path class="cls-30" d="M360.33,400h3.36v.62H361v1.79h2.48V403H361v2h2.7v.62h-3.36Z"/><path class="cls-30" d="M365.28,400H367c1.41,0,2.41,1,2.41,2.79,0,2-1,2.8-2.46,2.8h-1.7Zm1.66,5c1.13,0,1.84-.6,1.84-2.18s-.71-2.17-1.79-2.17h-1.05V405Z"/><path class="cls-30" d="M373.57,403.29l1.24,2.3H374l-1.18-2.27h-1.12v2.27h-.66V400h2c1.17,0,1.86.62,1.86,1.65a1.54,1.54,0,0,1-1.4,1.62Zm-.52-.59c.83,0,1.26-.36,1.26-1.05s-.42-1-1.26-1h-1.32v2.08Z"/><path class="cls-30" d="M376.24,402.8c0-1.76.94-2.92,2.36-2.92S381,401,381,402.8s-.94,2.91-2.35,2.91S376.24,404.55,376.24,402.8Zm4.05,0c0-1.42-.65-2.3-1.69-2.3s-1.7.88-1.7,2.3.65,2.29,1.7,2.29S380.29,404.21,380.29,402.8Z"/><path class="cls-30" d="M382.3,402.8c0-1.76.94-2.92,2.36-2.92S387,401,387,402.8s-.94,2.91-2.35,2.91S382.3,404.55,382.3,402.8Zm4.05,0c0-1.42-.65-2.3-1.69-2.3s-1.7.88-1.7,2.3.65,2.29,1.7,2.29S386.35,404.21,386.35,402.8Z"/><path class="cls-30" d="M388.65,400h.87l1.82,4.44h0l1.81-4.44h.88v5.59h-.66v-4.54h0l-1.89,4.54h-.28l-1.88-4.54h0v4.54h-.65Z"/><path class="cls-30" d="M399.09,405h3v.62h-3.72v-.52a2,2,0,0,1,.23-1.07c.2-.37.55-.64,1.43-1.09,1.16-.6,1.49-.94,1.49-1.5s-.49-.91-1.17-.91a1.29,1.29,0,0,0-1.39,1.36l-.67-.06a1.93,1.93,0,0,1,2.06-1.92,1.68,1.68,0,0,1,1.84,1.53c0,.83-.42,1.31-1.65,1.94-.94.47-1.19.65-1.34.93A1.47,1.47,0,0,0,399.09,405Z"/><path class="cls-30" d="M354.19,409.25l-1.25.81v-.7l1.33-.86h.58v5.59h-.66Z"/><path class="cls-30" d="M357.63,409.25l-1.25.81v-.7l1.33-.86h.58v5.59h-.66Z"/><path class="cls-30" d="M360.25,408.5h.59v1.78h-.59Z"/><path class="cls-30" d="M362,410.9h2.09v.6H362Z"/><path class="cls-30" d="M369.43,411c0,2.27-.61,3.25-2,3.25a1.79,1.79,0,0,1-1.8-1.42l.61-.16a1.18,1.18,0,0,0,1.19,1c.89,0,1.31-.57,1.36-2.05h0a1.69,1.69,0,0,1-1.43.63,1.8,1.8,0,0,1-2-1.92,1.88,1.88,0,0,1,2-1.89C368.6,408.38,369.43,409.24,369.43,411Zm-.77-.65a1.33,1.33,0,1,0-1.32,1.3A1.25,1.25,0,0,0,368.66,410.31Z"/><path class="cls-30" d="M371,408.5h.58v1.78H371Zm1.05,0h.59v1.78h-.59Z"/><path class="cls-30" d="M376.35,412.65l1.31-1.29-1.31-1.3.39-.39L378,411l1.3-1.31.39.39-1.31,1.3,1.31,1.29-.39.4-1.3-1.32-1.29,1.32Z"/><path class="cls-30" d="M383.9,409.25l-1.25.81v-.7l1.33-.86h.58v5.59h-.66Z"/><path class="cls-30" d="M387,413.47h3v.62h-3.72v-.52a2,2,0,0,1,.23-1.07c.2-.37.54-.64,1.42-1.09,1.16-.6,1.5-.94,1.5-1.5S389,409,388.3,409a1.3,1.3,0,0,0-1.4,1.36l-.66-.06a1.92,1.92,0,0,1,2.06-1.92,1.68,1.68,0,0,1,1.83,1.53c0,.83-.41,1.31-1.65,1.94-.93.47-1.19.65-1.33.93A1.58,1.58,0,0,0,387,413.47Z"/><path class="cls-30" d="M391.86,408.5h.58v1.78h-.58Z"/><path class="cls-30" d="M393.86,410.9h2.08v.6h-2.08Z"/><path class="cls-30" d="M399.25,409.14v0h-2.91v-.62H400v.57l-2.28,5H397Z"/><path class="cls-30" d="M401.63,408.5h.58v1.78h-.58Zm1.05,0h.59v1.78h-.59Z"/><path class="cls-30" d="M443.2,235.53h.66v5h2.53v.62H443.2Z"/><path class="cls-30" d="M447.86,235.53h.65v5.59h-.65Z"/><path class="cls-30" d="M449.85,235.53h.69l1.67,4.72h0l1.67-4.72h.69l-2,5.59h-.71Z"/><path class="cls-30" d="M455.93,235.53h.66v5.59h-.66Z"/><path class="cls-30" d="M458.5,235.53h.77l2.55,4.56h0v-4.56h.67v5.59h-.79l-2.54-4.56h0v4.56h-.65Z"/><path class="cls-30" d="M464.13,238.33c0-1.78.92-2.92,2.35-2.92a2.08,2.08,0,0,1,2.13,1.85l-.65.11a1.44,1.44,0,0,0-1.48-1.34c-1,0-1.69.88-1.69,2.3s.65,2.29,1.69,2.29A1.43,1.43,0,0,0,468,239h-1.42v-.62h2.07v.57a2.08,2.08,0,0,1-2.15,2.31C465.05,241.24,464.13,240.1,464.13,238.33Z"/><path class="cls-30" d="M472.24,241.24l2.85-6,.45.2-2.86,6Z"/><path class="cls-30" d="M479.48,235.53h1.74c1.42,0,2.41,1,2.41,2.79,0,2-1,2.8-2.46,2.8h-1.69Zm1.65,5c1.14,0,1.84-.6,1.84-2.18,0-1.43-.7-2.17-1.79-2.17h-1.05v4.35Z"/><path class="cls-30" d="M485.27,235.53h.66v5.59h-.66Z"/><path class="cls-30" d="M487.84,235.53h.78l2.54,4.56h0v-4.56h.66v5.59h-.78l-2.55-4.56h0v4.56h-.66Z"/><path class="cls-30" d="M493.76,235.53h.66v5.59h-.66Z"/><path class="cls-30" d="M496.33,235.53h.78l2.54,4.56h0v-4.56h.66v5.59h-.78L497,236.56h0v4.56h-.66Z"/><path class="cls-30" d="M502,238.33c0-1.78.93-2.92,2.36-2.92a2.07,2.07,0,0,1,2.12,1.85l-.65.11a1.43,1.43,0,0,0-1.47-1.34c-1.05,0-1.7.88-1.7,2.3s.65,2.29,1.7,2.29a1.42,1.42,0,0,0,1.49-1.64h-1.42v-.62h2.07v.57a2.08,2.08,0,0,1-2.14,2.31C502.89,241.24,502,240.1,502,238.33Z"/><path class="cls-30" d="M513.13,238.82l1.23,2.3h-.77l-1.18-2.27h-1.12v2.27h-.66v-5.59h2c1.17,0,1.86.62,1.86,1.65a1.55,1.55,0,0,1-1.4,1.63Zm-.52-.59c.83,0,1.26-.36,1.26-1s-.42-1-1.26-1h-1.32v2.08Z"/><path class="cls-30" d="M515.8,238.33c0-1.75.94-2.92,2.35-2.92s2.36,1.17,2.36,2.92-.94,2.91-2.36,2.91S515.8,240.08,515.8,238.33Zm4.05,0c0-1.42-.65-2.3-1.7-2.3s-1.69.88-1.69,2.3.65,2.29,1.69,2.29S519.85,239.74,519.85,238.33Z"/><path class="cls-30" d="M521.86,238.33c0-1.75.94-2.92,2.36-2.92s2.35,1.17,2.35,2.92-.94,2.91-2.35,2.91S521.86,240.08,521.86,238.33Zm4,0c0-1.42-.65-2.3-1.69-2.3s-1.7.88-1.7,2.3.65,2.29,1.7,2.29S525.91,239.74,525.91,238.33Z"/><path class="cls-30" d="M528.2,235.53h.88L530.9,240h0l1.81-4.44h.88v5.59H533v-4.54h0L531,241.12h-.28l-1.88-4.54h0v4.54h-.66Z"/><path class="cls-30" d="M462.27,244.78l-1.25.81v-.7l1.33-.86h.58v5.59h-.66Z"/><path class="cls-30" d="M467.15,248.48h-2.8v-.57l2.46-3.88h1v3.87h.71v.58h-.71v1.14h-.66Zm0-.58v-3.35h0L465,247.9Z"/><path class="cls-30" d="M469.88,244h.58v1.78h-.58Z"/><path class="cls-30" d="M471.6,246.43h2.09v.6H471.6Z"/><path class="cls-30" d="M477,244.67v0h-2.91V244h3.66v.57l-2.27,5h-.75Z"/><path class="cls-30" d="M479.37,244H480v1.78h-.59Zm1.06,0H481v1.78h-.58Z"/><path class="cls-30" d="M484.71,248.19l1.31-1.3-1.31-1.3.39-.39,1.29,1.31,1.29-1.31.39.39-1.31,1.3,1.31,1.3-.39.39-1.29-1.31-1.29,1.31Z"/><path class="cls-30" d="M492,249h3v.62h-3.72v-.52a2,2,0,0,1,.23-1.07c.2-.36.55-.64,1.43-1.09,1.16-.6,1.49-.94,1.49-1.5s-.49-.91-1.17-.91a1.29,1.29,0,0,0-1.39,1.36l-.67-.06a1.93,1.93,0,0,1,2.06-1.92,1.68,1.68,0,0,1,1.84,1.53c0,.83-.42,1.31-1.65,1.94-.94.47-1.19.65-1.34.93A1.49,1.49,0,0,0,492,249Z"/><path class="cls-30" d="M496.4,246.83c0-1.82.9-2.92,2.21-2.92s2.22,1.1,2.22,2.92-.9,2.91-2.22,2.91S496.4,248.64,496.4,246.83Zm3.76,0c0-1.47-.61-2.3-1.55-2.3s-1.55.83-1.55,2.3.62,2.29,1.55,2.29S500.16,248.29,500.16,246.83Z"/><path class="cls-30" d="M502.36,244H503v1.78h-.59Z"/><path class="cls-30" d="M504.36,246.43h2.09v.6h-2.09Z"/><path class="cls-30" d="M512.17,247.82a1.88,1.88,0,0,1-2,1.92c-1.46,0-2.3-1.09-2.3-2.83s1-3,2.32-3a1.8,1.8,0,0,1,1.87,1.49l-.62.15a1.18,1.18,0,0,0-1.23-1c-.92,0-1.6.87-1.66,2.22h0a1.88,1.88,0,0,1,1.67-.84A1.86,1.86,0,0,1,512.17,247.82Zm-.65,0a1.27,1.27,0,0,0-1.34-1.35,1.33,1.33,0,0,0-1.41,1.35,1.32,1.32,0,0,0,1.42,1.32A1.27,1.27,0,0,0,511.52,247.82Z"/><path class="cls-30" d="M513.7,244h.59v1.78h-.59Zm1.06,0h.58v1.78h-.58Z"/><path class="cls-30" d="M67.83,394.37h3.36V395H68.48v2H71v.59H68.48V400h-.65Z"/><path class="cls-30" d="M72.75,397.17c0-1.75.94-2.92,2.36-2.92s2.36,1.17,2.36,2.92-1,2.92-2.36,2.92S72.75,398.92,72.75,397.17Zm4,0c0-1.41-.64-2.29-1.69-2.29s-1.7.88-1.7,2.29.65,2.29,1.7,2.29S76.8,398.59,76.8,397.17Z"/><path class="cls-30" d="M80.46,397.63l-2-3.26h.76L80.78,397h0l1.52-2.62h.77l-2,3.26V400h-.66Z"/><path class="cls-30" d="M84.72,394.37h3.36V395h-2.7v1.79h2.48v.59H85.38v2h2.7V400H84.72Z"/><path class="cls-30" d="M92.5,397.67l1.23,2.3H93l-1.18-2.27H90.65V400H90v-5.6h2A1.63,1.63,0,0,1,93.9,396a1.54,1.54,0,0,1-1.4,1.62Zm-.52-.6c.82,0,1.25-.36,1.25-1s-.42-1-1.25-1H90.65v2.07Z"/><path class="cls-30" d="M409.54,202l1.23,2.3H410l-1.18-2.27h-1.12v2.27H407v-5.59h2c1.17,0,1.87.62,1.87,1.65a1.54,1.54,0,0,1-1.4,1.62Zm-.52-.59c.82,0,1.25-.36,1.25-1.05s-.42-1-1.25-1h-1.33v2.08Z"/><path class="cls-30" d="M469,149.65l.65-.11a1.46,1.46,0,0,0,1.66,1.46c.77,0,1.28-.36,1.28-.9s-.37-.88-1.54-1.25c-1.33-.44-1.78-.83-1.78-1.58s.73-1.48,1.79-1.48a2,2,0,0,1,2,1.63l-.65.14a1.34,1.34,0,0,0-1.39-1.15c-.68,0-1.13.34-1.13.86s.32.66,1.35,1c1.45.47,2,1,2,1.84s-.79,1.54-1.95,1.54A2.05,2.05,0,0,1,469,149.65Z"/><path class="cls-30" d="M474.13,148.71c0-1.75.95-2.92,2.36-2.92s2.36,1.17,2.36,2.92-.94,2.92-2.36,2.92S474.13,150.46,474.13,148.71Zm4.06,0c0-1.42-.65-2.3-1.7-2.3s-1.69.88-1.69,2.3.65,2.29,1.69,2.29S478.19,150.12,478.19,148.71Z"/><path class="cls-30" d="M163.3,281.2H164l.83,4.55h0l1.39-4.55h.62l1.39,4.55h0l.82-4.55h.68l-1,5.59h-.8l-1.37-4.49h0l-1.37,4.49h-.8Z"/><path class="cls-30" d="M170,286.91l2.85-6,.45.2-2.86,6Z"/><path class="cls-30" d="M174.39,281.2h1.75c1.41,0,2.41,1,2.41,2.79,0,2-1,2.8-2.46,2.8h-1.7Zm1.66,5c1.13,0,1.84-.6,1.84-2.18s-.71-2.17-1.8-2.17h-1v4.35Z"/><path class="cls-30" d="M467.66,200.34h1.74c1.42,0,2.42,1,2.42,2.79,0,2-1,2.81-2.47,2.81h-1.69Zm1.66,5c1.13,0,1.83-.6,1.83-2.18,0-1.43-.7-2.17-1.79-2.17h-1v4.35Z"/><path class="cls-30" d="M472.59,200.34h.67l.83,4.55h0l1.39-4.55h.62l1.39,4.55h0l.82-4.55H479l-1,5.6h-.8l-1.37-4.5h0l-1.37,4.5h-.8Z"/><path class="cls-30" d="M526.22,350.23h-1.74v-.62h4.15v.62h-1.75v5h-.66Z"/><path class="cls-30" d="M530.1,349.61h3.36v.62h-2.71V352h2.48v.6h-2.48v2h2.71v.63H530.1Z"/><path class="cls-30" d="M537.55,352.9l1.23,2.31H538l-1.19-2.28H535.7v2.28h-.65v-5.6h2c1.17,0,1.86.62,1.86,1.65a1.55,1.55,0,0,1-1.4,1.63Zm-.52-.59c.83,0,1.26-.36,1.26-1.05s-.43-1-1.26-1H535.7v2.08Z"/><path class="cls-30" d="M543,352.9l1.23,2.31h-.78l-1.18-2.28h-1.12v2.28h-.65v-5.6h2c1.17,0,1.87.62,1.87,1.65a1.55,1.55,0,0,1-1.4,1.63Zm-.52-.59c.82,0,1.25-.36,1.25-1.05s-.42-1-1.25-1h-1.33v2.08Z"/><path class="cls-30" d="M549,354.08h-2.52l-.39,1.13h-.68l2-5.6h.64l2,5.6h-.68Zm-.2-.58-1.05-3h0l-1,3Z"/><path class="cls-30" d="M551,352.41c0-1.75.95-2.92,2.36-2.92a2.1,2.1,0,0,1,2.14,1.95l-.65.11c-.16-.93-.67-1.44-1.49-1.44-1.05,0-1.69.88-1.69,2.3s.63,2.29,1.69,2.29c.86,0,1.38-.54,1.48-1.57l.68.09a2.08,2.08,0,0,1-2.16,2.11C551.89,355.33,551,354.18,551,352.41Z"/><path class="cls-30" d="M557.05,349.61h3.36v.62h-2.7V352h2.48v.6h-2.48v2h2.7v.63h-3.36Z"/><path class="cls-30" d="M517.08,358.86l-1.24.81V359l1.32-.86h.59v5.6h-.67Z"/><path class="cls-30" d="M522.1,358.75v0h-2.91v-.62h3.66v.57l-2.27,5h-.74Z"/><path class="cls-30" d="M524.48,358.11h.58v1.78h-.58Z"/><path class="cls-30" d="M526.2,360.51h2.09v.61H526.2Z"/><path class="cls-30" d="M533.66,360.57c0,2.27-.61,3.26-2,3.26a1.77,1.77,0,0,1-1.8-1.43l.61-.16a1.18,1.18,0,0,0,1.19,1c.89,0,1.3-.57,1.36-2.05h0a1.71,1.71,0,0,1-1.44.63,1.79,1.79,0,0,1-1.95-1.92,1.87,1.87,0,0,1,2-1.89C532.83,358,533.66,358.85,533.66,360.57Zm-.77-.65a1.25,1.25,0,0,0-1.33-1.32,1.31,1.31,0,1,0,1.33,1.32Z"/><path class="cls-30" d="M535.24,358.11h.59v1.78h-.59Zm1.06,0h.58v1.78h-.58Z"/><path class="cls-30" d="M540.58,362.27l1.31-1.3-1.31-1.29.39-.4,1.29,1.31,1.29-1.31.39.4L542.63,361l1.31,1.3-.39.39-1.29-1.31L541,362.66Z"/><path class="cls-30" d="M548.12,358.86l-1.25.81V359l1.33-.86h.59v5.6h-.67Z"/><path class="cls-30" d="M551.25,363.08h3v.63h-3.72v-.53a2,2,0,0,1,.24-1.07c.2-.36.54-.64,1.42-1.09,1.16-.6,1.49-.94,1.49-1.5s-.48-.91-1.16-.91a1.3,1.3,0,0,0-1.4,1.36l-.67-.05a1.93,1.93,0,0,1,2.07-1.93,1.68,1.68,0,0,1,1.83,1.53c0,.83-.42,1.32-1.65,1.94-.93.47-1.19.65-1.33.93A1.61,1.61,0,0,0,551.25,363.08Z"/><path class="cls-30" d="M556.09,358.11h.58v1.78h-.58Z"/><path class="cls-30" d="M558.08,360.51h2.09v.61h-2.09Z"/><path class="cls-30" d="M565.54,360.57c0,2.27-.61,3.26-2,3.26a1.79,1.79,0,0,1-1.8-1.43l.61-.16a1.18,1.18,0,0,0,1.19,1c.89,0,1.31-.57,1.36-2.05h0a1.69,1.69,0,0,1-1.43.63,1.8,1.8,0,0,1-2-1.92,1.88,1.88,0,0,1,2-1.89C564.71,358,565.54,358.85,565.54,360.57Zm-.77-.65a1.33,1.33,0,1,0-1.32,1.3A1.24,1.24,0,0,0,564.77,359.92Z"/><path class="cls-30" d="M567.13,358.11h.58v1.78h-.58Zm1,0h.58v1.78h-.58Z"/><polygon class="cls-30" points="0 380.44 14.4 385.84 0 391.24 0 380.44"/><path class="cls-30" d="M470.73,123.86h.67l.83,4.55h0l1.39-4.55h.62l1.39,4.55h0l.82-4.55h.68l-1,5.6h-.8L474,125h0l-1.37,4.5h-.8Z"/></g></g></svg>