<svg xmlns="http://www.w3.org/2000/svg" viewBox="0 0 508.466 370.478"><title>nfp_Unit25-33B_x</title><g id="Layer_2" data-name="Layer 2"><g id="Unit25-33B_Rest"><g id="LWPOLYLINE"><path d="M182.777,17.075,151.063,28.618a33.736,33.736,0,0,1-2.036-11.543,33.735,33.735,0,0,1-2.035,11.543L115.277,17.075" style="fill:none;stroke:#231f20;stroke-linecap:round;stroke-linejoin:round;stroke-width:0.25px;stroke-dasharray:1.3229475021362305,1.3229475021362305"/></g><g id="LWPOLYLINE-2" data-name="LWPOLYLINE"><rect x="69.547" y="59.367" width="98.667" height="101.181" style="fill:#fff;stroke:#231f20;stroke-linecap:round;stroke-linejoin:round;stroke-width:0.15px"/></g><g id="LWPOLYLINE-3" data-name="LWPOLYLINE"><rect x="220.82" y="26.234" width="103.872" height="94.104" style="fill:#fff;stroke:#231f20;stroke-linecap:round;stroke-linejoin:round;stroke-width:0.15px"/></g><g id="LWPOLYLINE-4" data-name="LWPOLYLINE"><polygon points="185.552 55.013 184.238 53.101 183.933 53.31 183.366 53.454 182.842 53.195 181.598 51.704 180.583 50.499 179.744 49.417 178.668 47.958 177.726 46.598 177.345 46.054 177.058 45.599 176.686 45.022 176.276 44.368 175.347 42.821 174.517 41.348 173.891 40.174 173.836 39.592 174.174 39.115 174.478 38.905 172.805 36.472 191.52 23.605 204.267 42.146 185.552 55.013" style="fill:#fff;stroke:#231f20;stroke-linecap:round;stroke-linejoin:round;stroke-width:0.150000005960464px"/></g><g id="LINE"><line x1="193.193" y1="26.038" x2="174.486" y2="38.906" style="fill:none;stroke:#231f20;stroke-linecap:round;stroke-linejoin:round;stroke-width:0.150000005960464px"/></g><g id="LINE-2" data-name="LINE"><line x1="184.238" y1="53.101" x2="202.953" y2="40.234" style="fill:none;stroke:#231f20;stroke-linecap:round;stroke-linejoin:round;stroke-width:0.150000005960464px"/></g><g id="ARC"><path d="M189.022,28.906a40.146,40.146,0,0,0,9.759,14.2" style="fill:none;stroke:#231f20;stroke-linecap:round;stroke-linejoin:round;stroke-width:0.150000005960464px"/></g><g id="ARC-2" data-name="ARC"><path d="M191.8,26.994a101.1,101.1,0,0,0,9.759,14.2" style="fill:none;stroke:#231f20;stroke-linecap:round;stroke-linejoin:round;stroke-width:0.150000005960464px"/></g><g id="LWPOLYLINE-5" data-name="LWPOLYLINE"><rect x="190.512" y="81.978" width="15" height="56.25" style="fill:#fff;stroke:#231f20;stroke-linecap:round;stroke-linejoin:round;stroke-width:0.150000005960464px"/></g><g id="LWPOLYLINE-6" data-name="LWPOLYLINE"><rect x="380.138" y="60.617" width="15" height="46.875" style="fill:#fff;stroke:#231f20;stroke-linecap:round;stroke-linejoin:round;stroke-width:0.150000005960464px"/></g><g id="LWPOLYLINE-7" data-name="LWPOLYLINE"><path d="M316.986,262.327a11.968,11.968,0,0,1,0,18.058l-.923-1.06h-10.9V263.387h10.9Z" style="fill:#fff;stroke:#231f20;stroke-linecap:round;stroke-linejoin:round;stroke-width:0.150000005960464px"/></g><g id="LWPOLYLINE-8" data-name="LWPOLYLINE"><path d="M316.986,239.827a11.968,11.968,0,0,1,0,18.058l-.923-1.06h-10.9V240.887h10.9Z" style="fill:#fff;stroke:#231f20;stroke-linecap:round;stroke-linejoin:round;stroke-width:0.150000005960464px"/></g><g id="LWPOLYLINE-9" data-name="LWPOLYLINE"><path d="M316.986,235.385a11.968,11.968,0,0,0,0-18.058l-.923,1.06h-10.9v15.938h10.9Z" style="fill:#fff;stroke:#231f20;stroke-linecap:round;stroke-linejoin:round;stroke-width:0.150000005960464px"/></g><g id="LWPOLYLINE-10" data-name="LWPOLYLINE"><rect x="341.951" y="66.479" width="15" height="56.25" style="fill:#fff;stroke:#231f20;stroke-linecap:round;stroke-linejoin:round;stroke-width:0.150000005960464px"/></g><rect x="432.387" y="165.434" width="24.275" height="22.031" style="fill:#fff"/><g id="LWPOLYLINE-11" data-name="LWPOLYLINE"><line x1="317.739" y1="265.238" x2="305.159" y2="265.238" style="fill:none;stroke:#231f20;stroke-linecap:round;stroke-linejoin:round;stroke-width:0.150000005960464px"/></g><g id="LWPOLYLINE-12" data-name="LWPOLYLINE"><line x1="317.739" y1="277.474" x2="305.159" y2="277.474" style="fill:none;stroke:#231f20;stroke-linecap:round;stroke-linejoin:round;stroke-width:0.150000005960464px"/></g><g id="LWPOLYLINE-13" data-name="LWPOLYLINE"><path d="M316.063,279.325a10.572,10.572,0,0,0,0-15.938" style="fill:none;stroke:#231f20;stroke-linecap:round;stroke-linejoin:round;stroke-width:0.150000005960464px"/></g><g id="LWPOLYLINE-14" data-name="LWPOLYLINE"><line x1="317.739" y1="242.738" x2="305.159" y2="242.738" style="fill:none;stroke:#231f20;stroke-linecap:round;stroke-linejoin:round;stroke-width:0.150000005960464px"/></g><g id="LWPOLYLINE-15" data-name="LWPOLYLINE"><line x1="317.739" y1="254.974" x2="305.159" y2="254.974" style="fill:none;stroke:#231f20;stroke-linecap:round;stroke-linejoin:round;stroke-width:0.150000005960464px"/></g><g id="LWPOLYLINE-16" data-name="LWPOLYLINE"><line x1="317.739" y1="232.474" x2="305.159" y2="232.474" style="fill:none;stroke:#231f20;stroke-linecap:round;stroke-linejoin:round;stroke-width:0.150000005960464px"/></g><g id="LWPOLYLINE-17" data-name="LWPOLYLINE"><line x1="317.739" y1="220.238" x2="305.159" y2="220.238" style="fill:none;stroke:#231f20;stroke-linecap:round;stroke-linejoin:round;stroke-width:0.150000005960464px"/></g><g id="LWPOLYLINE-18" data-name="LWPOLYLINE"><path d="M316.063,218.387a10.572,10.572,0,0,1,0,15.938" style="fill:none;stroke:#231f20;stroke-linecap:round;stroke-linejoin:round;stroke-width:0.150000005960464px"/></g><g id="LWPOLYLINE-19" data-name="LWPOLYLINE"><line x1="317.739" y1="277.474" x2="305.159" y2="277.474" style="fill:none;stroke:#231f20;stroke-linecap:round;stroke-linejoin:round;stroke-width:0.150000005960464px"/></g><g id="LWPOLYLINE-20" data-name="LWPOLYLINE"><path d="M316.063,240.992a10.633,10.633,0,0,1,1.028,1.019,10.412,10.412,0,0,1-1.028,14.779" style="fill:none;stroke:#231f20;stroke-linecap:round;stroke-linejoin:round;stroke-width:0.150000005960464px"/></g><rect x="210.668" y="29.679" width="33.75" height="84.375" style="fill:#fff;stroke:#231f20;stroke-linecap:round;stroke-linejoin:round;stroke-width:0.150000005960464px"/><g id="LINE-3" data-name="LINE"><line x1="215.355" y1="84.367" x2="243.436" y2="84.367" style="fill:none;stroke:#231f20;stroke-linecap:round;stroke-linejoin:round;stroke-width:0.150000005960464px"/></g><g id="LWPOLYLINE-21" data-name="LWPOLYLINE"><polyline points="244.418 34.367 215.355 34.367 215.355 109.367 244.418 109.367" style="fill:none;stroke:#231f20;stroke-linecap:round;stroke-linejoin:round;stroke-width:0.150000005960464px"/></g><g id="ARC-3" data-name="ARC"><path d="M219.849,108.429a59.552,59.552,0,0,0,0-23.125" style="fill:none;stroke:#231f20;stroke-linecap:round;stroke-linejoin:round;stroke-width:0.150000005960464px"/></g><g id="ARC-4" data-name="ARC"><path d="M219.849,85.3a1.223,1.223,0,0,0-.982-.937" style="fill:none;stroke:#231f20;stroke-linecap:round;stroke-linejoin:round;stroke-width:0.150000005960464px"/></g><g id="ARC-5" data-name="ARC"><path d="M218.867,109.367a1.224,1.224,0,0,0,.982-.938" style="fill:none;stroke:#231f20;stroke-linecap:round;stroke-linejoin:round;stroke-width:0.150000005960464px"/></g><g id="ARC-6" data-name="ARC"><path d="M218.867,84.367a1.224,1.224,0,0,0,.982-.938" style="fill:none;stroke:#231f20;stroke-linecap:round;stroke-linejoin:round;stroke-width:0.150000005960464px"/></g><g id="ARC-7" data-name="ARC"><path d="M219.849,35.3a1.223,1.223,0,0,0-.982-.937" style="fill:none;stroke:#231f20;stroke-linecap:round;stroke-linejoin:round;stroke-width:0.150000005960464px"/></g><g id="ARC-8" data-name="ARC"><path d="M244.418,85.3a1.224,1.224,0,0,0-.982-.937" style="fill:none;stroke:#231f20;stroke-linecap:round;stroke-linejoin:round;stroke-width:0.150000005960464px"/></g><g id="ARC-9" data-name="ARC"><path d="M243.436,84.367a1.226,1.226,0,0,0,.982-.938" style="fill:none;stroke:#231f20;stroke-linecap:round;stroke-linejoin:round;stroke-width:0.150000005960464px"/></g><g id="ARC-10" data-name="ARC"><path d="M243.436,109.367a1.226,1.226,0,0,0,.982-.938" style="fill:none;stroke:#231f20;stroke-linecap:round;stroke-linejoin:round;stroke-width:0.150000005960464px"/></g><g id="ARC-11" data-name="ARC"><path d="M244.418,35.3a1.224,1.224,0,0,0-.982-.937" style="fill:none;stroke:#231f20;stroke-linecap:round;stroke-linejoin:round;stroke-width:0.150000005960464px"/></g><g id="LINE-4" data-name="LINE"><line x1="215.355" y1="59.367" x2="243.436" y2="59.367" style="fill:none;stroke:#231f20;stroke-linecap:round;stroke-linejoin:round;stroke-width:0.150000005960464px"/></g><g id="ARC-12" data-name="ARC"><path d="M219.849,58.429a59.552,59.552,0,0,0,0-23.125" style="fill:none;stroke:#231f20;stroke-linecap:round;stroke-linejoin:round;stroke-width:0.150000005960464px"/></g><g id="ARC-13" data-name="ARC"><path d="M218.867,59.367a1.224,1.224,0,0,0,.982-.938" style="fill:none;stroke:#231f20;stroke-linecap:round;stroke-linejoin:round;stroke-width:0.150000005960464px"/></g><g id="ARC-14" data-name="ARC"><path d="M219.849,60.3a1.223,1.223,0,0,0-.982-.937" style="fill:none;stroke:#231f20;stroke-linecap:round;stroke-linejoin:round;stroke-width:0.150000005960464px"/></g><g id="ARC-15" data-name="ARC"><path d="M243.436,59.367a1.226,1.226,0,0,0,.982-.938" style="fill:none;stroke:#231f20;stroke-linecap:round;stroke-linejoin:round;stroke-width:0.150000005960464px"/></g><g id="ARC-16" data-name="ARC"><path d="M244.418,60.3a1.224,1.224,0,0,0-.982-.937" style="fill:none;stroke:#231f20;stroke-linecap:round;stroke-linejoin:round;stroke-width:0.150000005960464px"/></g><g id="ARC-17" data-name="ARC"><path d="M219.849,83.429a59.552,59.552,0,0,0,0-23.125" style="fill:none;stroke:#231f20;stroke-linecap:round;stroke-linejoin:round;stroke-width:0.150000005960464px"/></g><g id="ARC-18" data-name="ARC"><path d="M219.849,85.3a1.223,1.223,0,0,0-.982-.937" style="fill:none;stroke:#231f20;stroke-linecap:round;stroke-linejoin:round;stroke-width:0.150000005960464px"/></g><g id="ARC-19" data-name="ARC"><path d="M218.867,109.367a1.224,1.224,0,0,0,.982-.938" style="fill:none;stroke:#231f20;stroke-linecap:round;stroke-linejoin:round;stroke-width:0.150000005960464px"/></g><g id="ARC-20" data-name="ARC"><path d="M218.867,84.367a1.224,1.224,0,0,0,.982-.938" style="fill:none;stroke:#231f20;stroke-linecap:round;stroke-linejoin:round;stroke-width:0.150000005960464px"/></g><g id="ARC-21" data-name="ARC"><path d="M219.849,35.3a1.223,1.223,0,0,0-.982-.937" style="fill:none;stroke:#231f20;stroke-linecap:round;stroke-linejoin:round;stroke-width:0.150000005960464px"/></g><g id="ARC-22" data-name="ARC"><path d="M244.418,85.3a1.224,1.224,0,0,0-.982-.937" style="fill:none;stroke:#231f20;stroke-linecap:round;stroke-linejoin:round;stroke-width:0.150000005960464px"/></g><g id="ARC-23" data-name="ARC"><path d="M243.436,84.367a1.226,1.226,0,0,0,.982-.938" style="fill:none;stroke:#231f20;stroke-linecap:round;stroke-linejoin:round;stroke-width:0.150000005960464px"/></g><g id="ARC-24" data-name="ARC"><path d="M243.436,109.367a1.226,1.226,0,0,0,.982-.938" style="fill:none;stroke:#231f20;stroke-linecap:round;stroke-linejoin:round;stroke-width:0.150000005960464px"/></g><g id="ARC-25" data-name="ARC"><path d="M244.418,35.3a1.224,1.224,0,0,0-.982-.937" style="fill:none;stroke:#231f20;stroke-linecap:round;stroke-linejoin:round;stroke-width:0.150000005960464px"/></g><g id="ARC-26" data-name="ARC"><path d="M218.867,59.367a1.224,1.224,0,0,0,.982-.938" style="fill:none;stroke:#231f20;stroke-linecap:round;stroke-linejoin:round;stroke-width:0.150000005960464px"/></g><g id="ARC-27" data-name="ARC"><path d="M219.849,60.3a1.223,1.223,0,0,0-.982-.937" style="fill:none;stroke:#231f20;stroke-linecap:round;stroke-linejoin:round;stroke-width:0.150000005960464px"/></g><g id="ARC-28" data-name="ARC"><path d="M243.436,59.367a1.226,1.226,0,0,0,.982-.938" style="fill:none;stroke:#231f20;stroke-linecap:round;stroke-linejoin:round;stroke-width:0.150000005960464px"/></g><g id="ARC-29" data-name="ARC"><path d="M244.418,60.3a1.224,1.224,0,0,0-.982-.937" style="fill:none;stroke:#231f20;stroke-linecap:round;stroke-linejoin:round;stroke-width:0.150000005960464px"/></g><path d="M225.363,103.64s5.274,6.856,7.935,5.565-7.241-10.459-7.241-10.459-3.9-3.984-4.644-1.994S225.363,103.64,225.363,103.64Z" style="fill:#fff;stroke:#231f20;stroke-miterlimit:10;stroke-width:0.150000005960464px"/><path d="M227.113,91.667s-4.369-7.078-6.289-5.764,3.556,9.441,3.556,9.441,3.833,7.574,5.708,5.536S227.113,91.667,227.113,91.667Z" style="fill:#fff;stroke:#231f20;stroke-miterlimit:10;stroke-width:0.150000005960464px"/><path d="M221.719,50.743s3.617-.744,5.2-8.339,1.115-7.676.309-8.009-4.2,2.243-5.22,9.2S220.462,50.428,221.719,50.743Z" style="fill:#fff;stroke:#231f20;stroke-miterlimit:10;stroke-width:0.150000005960464px"/><rect x="325.326" y="93.725" width="44.903" height="1.758" transform="translate(442.381 -253.174) rotate(90)" style="fill:#fff;stroke:#231f20;stroke-linecap:round;stroke-linejoin:round;stroke-width:0.150000005960464px"/><g id="LWPOLYLINE-22" data-name="LWPOLYLINE"><rect x="63.962" y="74.478" width="80.625" height="71.25" style="fill:#fff;stroke:#231f20;stroke-linecap:round;stroke-linejoin:round;stroke-width:0.150000005960464px"/></g><g id="LWPOLYLINE-23" data-name="LWPOLYLINE"><rect x="69.316" y="111.377" width="14.683" height="31.809" style="fill:none;stroke:#231f20;stroke-linecap:round;stroke-linejoin:round;stroke-width:0.150000005960464px"/></g><g id="LINE-5" data-name="LINE"><line x1="66.774" y1="74.478" x2="66.774" y2="145.728" style="fill:none;stroke:#231f20;stroke-linecap:round;stroke-linejoin:round;stroke-width:0.150000005960464px"/></g><g id="LINE-6" data-name="LINE"><line x1="141.774" y1="74.478" x2="141.774" y2="145.728" style="fill:none;stroke:#231f20;stroke-linecap:round;stroke-linejoin:round;stroke-width:0.150000005960464px"/></g><g id="LWPOLYLINE-24" data-name="LWPOLYLINE"><rect x="69.316" y="77.02" width="14.683" height="31.809" style="fill:none;stroke:#231f20;stroke-linecap:round;stroke-linejoin:round;stroke-width:0.150000005960464px"/></g><g id="LWPOLYLINE-25" data-name="LWPOLYLINE"><rect x="488.741" y="29.774" width="16.875" height="22.5" style="fill:#fff;stroke:#231f20;stroke-linecap:round;stroke-linejoin:round;stroke-width:0.150000005960464px"/></g><g id="LWPOLYLINE-26" data-name="LWPOLYLINE"><rect x="488.741" y="116.024" width="16.875" height="22.5" style="fill:#fff;stroke:#231f20;stroke-linecap:round;stroke-linejoin:round;stroke-width:0.150000005960464px"/></g><g id="LWPOLYLINE-27" data-name="LWPOLYLINE"><rect x="424.991" y="56.024" width="80.625" height="56.25" style="fill:#fff;stroke:#231f20;stroke-linecap:round;stroke-linejoin:round;stroke-width:0.150000005960464px"/></g><g id="LINE-7" data-name="LINE"><line x1="502.803" y1="56.024" x2="502.803" y2="112.274" style="fill:none;stroke:#231f20;stroke-linecap:round;stroke-linejoin:round;stroke-width:0.150000005960464px"/></g><g id="LINE-8" data-name="LINE"><line x1="427.803" y1="56.024" x2="427.803" y2="112.274" style="fill:none;stroke:#231f20;stroke-linecap:round;stroke-linejoin:round;stroke-width:0.150000005960464px"/></g><g id="LWPOLYLINE-28" data-name="LWPOLYLINE"><rect x="485.578" y="85.423" width="14.683" height="24.309" style="fill:none;stroke:#231f20;stroke-linecap:round;stroke-linejoin:round;stroke-width:0.150000005960464px"/></g><g id="LWPOLYLINE-29" data-name="LWPOLYLINE"><rect x="485.578" y="58.566" width="14.683" height="24.309" style="fill:none;stroke:#231f20;stroke-linecap:round;stroke-linejoin:round;stroke-width:0.150000005960464px"/></g><g id="LWPOLYLINE-30" data-name="LWPOLYLINE"><rect x="218.315" y="117.042" width="20.152" height="20.463" style="fill:#fff;stroke:#231f20;stroke-linecap:round;stroke-linejoin:round;stroke-width:0.150000005960464px"/></g><line x1="86.641" y1="145.728" x2="86.641" y2="74.478" style="fill:none;stroke:#231f20;stroke-linecap:round;stroke-linejoin:round;stroke-width:0.150000005960464px"/><line x1="89.071" y1="145.728" x2="89.071" y2="74.478" style="fill:none;stroke:#231f20;stroke-linecap:round;stroke-linejoin:round;stroke-width:0.150000005960464px"/><g id="LWPOLYLINE-31" data-name="LWPOLYLINE"><rect x="64.769" y="49.709" width="16.875" height="22.5" style="fill:#fff;stroke:#231f20;stroke-linecap:round;stroke-linejoin:round;stroke-width:0.150000005960464px"/></g><g id="LWPOLYLINE-32" data-name="LWPOLYLINE"><rect x="64.769" y="147.997" width="16.875" height="22.5" style="fill:#fff;stroke:#231f20;stroke-linecap:round;stroke-linejoin:round;stroke-width:0.150000005960464px"/></g><g id="LWPOLYLINE-33" data-name="LWPOLYLINE"><path d="M315.362,175.153,301.444,181.8l2.4,4.433a3.246,3.246,0,0,0,4.255,1.387l7.611-3.634a3.246,3.246,0,0,0,1.6-4.181Z" style="fill:#fff;stroke:#231f20;stroke-linecap:round;stroke-linejoin:round;stroke-width:0.150000005960464px"/></g><g id="LWPOLYLINE-34" data-name="LWPOLYLINE"><path d="M295.56,182.467H280.137l.252,5.032a3.246,3.246,0,0,0,3.243,3.085h8.434a3.246,3.246,0,0,0,3.242-3.085Z" style="fill:#fff;stroke:#231f20;stroke-linecap:round;stroke-linejoin:round;stroke-width:0.150000005960464px"/></g><g id="LWPOLYLINE-35" data-name="LWPOLYLINE"><path d="M260.335,175.153l13.918,6.645-2.4,4.433a3.246,3.246,0,0,1-4.255,1.387l-7.611-3.634a3.246,3.246,0,0,1-1.6-4.181Z" style="fill:#fff;stroke:#231f20;stroke-linecap:round;stroke-linejoin:round;stroke-width:0.150000005960464px"/></g><g id="LWPOLYLINE-36" data-name="LWPOLYLINE"><path d="M315.362,162.046,301.444,155.4l2.4-4.433a3.246,3.246,0,0,1,4.255-1.386l7.611,3.634a3.246,3.246,0,0,1,1.6,4.181Z" style="fill:#fff;stroke:#231f20;stroke-linecap:round;stroke-linejoin:round;stroke-width:0.150000005960464px"/></g><g id="LWPOLYLINE-37" data-name="LWPOLYLINE"><path d="M295.56,154.732H280.137l.252-5.033a3.246,3.246,0,0,1,3.243-3.085h8.434a3.246,3.246,0,0,1,3.242,3.085Z" style="fill:#fff;stroke:#231f20;stroke-linecap:round;stroke-linejoin:round;stroke-width:0.150000005960464px"/></g><g id="LWPOLYLINE-38" data-name="LWPOLYLINE"><path d="M260.335,162.046l13.918-6.646-2.4-4.433a3.246,3.246,0,0,0-4.255-1.386l-7.611,3.634a3.246,3.246,0,0,0-1.6,4.181Z" style="fill:#fff;stroke:#231f20;stroke-linecap:round;stroke-linejoin:round;stroke-width:0.150000005960464px"/></g><g id="LWPOLYLINE-39" data-name="LWPOLYLINE"><path d="M302.544,181.273l2.367,4.38a2.03,2.03,0,0,0,2.66.866l7.611-3.634a2.029,2.029,0,0,0,1-2.613l-1.918-4.594" style="fill:none;stroke:#231f20;stroke-linecap:round;stroke-linejoin:round;stroke-width:0.150000005960464px"/></g><g id="LWPOLYLINE-40" data-name="LWPOLYLINE"><path d="M281.356,182.467l.249,4.971a2.029,2.029,0,0,0,2.027,1.929h8.434a2.029,2.029,0,0,0,2.026-1.929l.249-4.971" style="fill:none;stroke:#231f20;stroke-linecap:round;stroke-linejoin:round;stroke-width:0.150000005960464px"/></g><g id="LWPOLYLINE-41" data-name="LWPOLYLINE"><path d="M273.153,181.273l-2.367,4.38a2.03,2.03,0,0,1-2.66.866l-7.611-3.634a2.03,2.03,0,0,1-1-2.613l1.918-4.594" style="fill:none;stroke:#231f20;stroke-linecap:round;stroke-linejoin:round;stroke-width:0.150000005960464px"/></g><g id="LWPOLYLINE-42" data-name="LWPOLYLINE"><path d="M302.544,155.925l2.367-4.379a2.03,2.03,0,0,1,2.66-.867l7.611,3.634a2.031,2.031,0,0,1,1,2.614l-1.918,4.593" style="fill:none;stroke:#231f20;stroke-linecap:round;stroke-linejoin:round;stroke-width:0.150000005960464px"/></g><g id="LWPOLYLINE-43" data-name="LWPOLYLINE"><path d="M281.356,154.732l.249-4.972a2.029,2.029,0,0,1,2.027-1.928h8.434a2.029,2.029,0,0,1,2.026,1.928l.249,4.972" style="fill:none;stroke:#231f20;stroke-linecap:round;stroke-linejoin:round;stroke-width:0.150000005960464px"/></g><g id="LWPOLYLINE-44" data-name="LWPOLYLINE"><path d="M273.153,155.925l-2.367-4.379a2.03,2.03,0,0,0-2.66-.867l-7.611,3.634a2.032,2.032,0,0,0-1,2.614l1.918,4.593" style="fill:none;stroke:#231f20;stroke-linecap:round;stroke-linejoin:round;stroke-width:0.150000005960464px"/></g><g id="ELLIPSE"><path d="M256.175,168.4c0,8.4,14.181,15.206,31.674,15.206s31.673-6.808,31.673-15.206-14.181-15.207-31.673-15.207S256.175,160,256.175,168.4Z" style="fill:#fff;stroke:#231f20;stroke-linecap:round;stroke-linejoin:round;stroke-width:0.150000005960464px"/></g><path d="M281.97,55.1s8.874-1.476,9.548,7.8-1.147,26.2-9.03,32.33S262.21,82.505,262.21,82.505s-7.8-9.308,2.4-18.038S281.97,55.1,281.97,55.1Z" style="fill:#fff;stroke:#231f20;stroke-miterlimit:10;stroke-width:0.150000005960464px"/><g id="LWPOLYLINE-45" data-name="LWPOLYLINE"><polygon points="320.829 65.661 342.628 45.029 324.876 25.059 301.832 44.29 320.829 65.661" style="fill:#fff;stroke:#231f20;stroke-linecap:round;stroke-linejoin:round;stroke-width:0.150000005960464px"/></g><g id="LINE-9" data-name="LINE"><line x1="318.181" y1="62.682" x2="339.98" y2="42.049" style="fill:none;stroke:#231f20;stroke-linecap:round;stroke-linejoin:round;stroke-width:0.150000005960464px"/></g><g id="LINE-10" data-name="LINE"><line x1="336.909" y1="44.945" x2="324.289" y2="30.749" style="fill:none;stroke:#231f20;stroke-linecap:round;stroke-linejoin:round;stroke-width:0.150000005960464px"/></g><g id="LINE-11" data-name="LINE"><line x1="327.525" y1="28.039" x2="304.48" y2="47.27" style="fill:none;stroke:#231f20;stroke-linecap:round;stroke-linejoin:round;stroke-width:0.150000005960464px"/></g><line x1="483.222" y1="56.024" x2="483.222" y2="112.194" style="fill:none;stroke:#231f20;stroke-linecap:round;stroke-linejoin:round;stroke-width:0.150000005960464px"/><line x1="480.792" y1="56.024" x2="480.792" y2="112.194" style="fill:none;stroke:#231f20;stroke-linecap:round;stroke-linejoin:round;stroke-width:0.150000005960464px"/><g id="LWPOLYLINE-46" data-name="LWPOLYLINE"><polyline points="350.942 17.075 350.942 22.7 239.027 22.7 239.027 17.075" style="fill:none;stroke:#231f20;stroke-linecap:round;stroke-linejoin:round;stroke-width:0.4px"/></g><g id="LWPOLYLINE-47" data-name="LWPOLYLINE"><polyline points="497.777 17.075 497.777 22.7 385.277 22.7 385.277 17.075" style="fill:none;stroke:#231f20;stroke-linecap:round;stroke-linejoin:round;stroke-width:0.4px"/></g><g id="LWPOLYLINE-48" data-name="LWPOLYLINE"><polyline points="205.277 17.075 205.277 22.7 92.777 22.7 92.777 17.075" style="fill:none;stroke:#231f20;stroke-linecap:round;stroke-linejoin:round;stroke-width:0.4px"/></g><g id="LWPOLYLINE-49" data-name="LWPOLYLINE"><polygon points="321.417 13.325 269.145 13.325 269.145 14.555 321.404 14.556 321.417 13.325" style="fill:none;stroke:#231f20;stroke-linecap:round;stroke-linejoin:round;stroke-width:0.25px"/></g><g id="LWPOLYLINE-50" data-name="LWPOLYLINE"><polygon points="348.715 13.325 347.777 13.325 323.988 13.325 323.988 14.556 348.715 14.555 348.715 13.325" style="fill:none;stroke:#231f20;stroke-linecap:round;stroke-linejoin:round;stroke-width:0.25px"/></g><g id="LWPOLYLINE-51" data-name="LWPOLYLINE"><polygon points="241.834 13.325 242.771 13.325 266.56 13.325 266.56 14.556 241.834 14.555 241.834 13.325" style="fill:none;stroke:#231f20;stroke-linecap:round;stroke-linejoin:round;stroke-width:0.25px"/></g><g id="LWPOLYLINE-52" data-name="LWPOLYLINE"><polygon points="467.667 13.325 415.395 13.325 415.395 14.555 467.654 14.556 467.667 13.325" style="fill:none;stroke:#231f20;stroke-linecap:round;stroke-linejoin:round;stroke-width:0.25px"/></g><g id="LWPOLYLINE-53" data-name="LWPOLYLINE"><polygon points="494.965 13.325 494.027 13.325 470.238 13.325 470.238 14.556 494.965 14.555 494.965 13.325" style="fill:none;stroke:#231f20;stroke-linecap:round;stroke-linejoin:round;stroke-width:0.25px"/></g><g id="LWPOLYLINE-54" data-name="LWPOLYLINE"><polygon points="388.084 13.325 389.021 13.325 412.81 13.325 412.81 14.556 388.084 14.555 388.084 13.325" style="fill:none;stroke:#231f20;stroke-linecap:round;stroke-linejoin:round;stroke-width:0.25px"/></g><g id="LWPOLYLINE-55" data-name="LWPOLYLINE"><polygon points="114.809 13.325 113.871 13.325 96.527 13.325 95.59 13.325 95.59 14.556 113.871 14.556 114.809 14.556 114.809 13.325" style="fill:none;stroke:#231f20;stroke-linecap:round;stroke-linejoin:round;stroke-width:0.25px"/></g><g id="LWPOLYLINE-56" data-name="LWPOLYLINE"><polygon points="147.504 13.325 146.801 13.325 116.684 13.325 116.684 14.555 147.492 14.555 147.504 13.325" style="fill:none;stroke:#231f20;stroke-linecap:round;stroke-linejoin:round;stroke-width:0.25px"/></g><g id="LWPOLYLINE-57" data-name="LWPOLYLINE"><polygon points="181.371 13.325 180.434 13.325 151.254 13.325 150.551 13.325 150.551 14.555 181.371 14.555 181.371 13.325" style="fill:none;stroke:#231f20;stroke-linecap:round;stroke-linejoin:round;stroke-width:0.25px"/></g><g id="LWPOLYLINE-58" data-name="LWPOLYLINE"><polygon points="202.465 13.325 201.527 13.325 183.246 13.325 183.246 14.555 202.465 14.555 202.465 13.325" style="fill:none;stroke:#231f20;stroke-linecap:round;stroke-linejoin:round;stroke-width:0.25px"/></g><line x1="389.021" y1="17.075" x2="494.027" y2="17.075" style="fill:none;stroke:#231f20;stroke-linecap:round;stroke-linejoin:round;stroke-width:0.25px"/><line x1="347.777" y1="17.075" x2="239.027" y2="17.075" style="fill:none;stroke:#231f20;stroke-linecap:round;stroke-linejoin:round;stroke-width:0.25px"/><line x1="204.692" y1="17.075" x2="95.942" y2="17.075" style="fill:none;stroke:#231f20;stroke-linecap:round;stroke-linejoin:round;stroke-width:0.25px"/><g id="LWPOLYLINE-59" data-name="LWPOLYLINE"><polygon points="324.692 14.556 323.988 14.556 323.988 13.325 324.692 13.325 324.692 12.388 322.934 12.388 322.934 10.044 321.996 10.044 321.996 12.388 320.942 12.388 320.942 13.325 321.41 13.325 321.41 14.556 320.707 14.556 320.707 15.727 321.645 15.727 321.645 16.606 322.817 16.606 322.817 17.075 324.692 17.075 324.692 14.556" style="fill:none;stroke:#231f20;stroke-miterlimit:10;stroke-width:0.25px"/></g><g id="LWPOLYLINE-60" data-name="LWPOLYLINE"><polygon points="351.527 12.388 349.945 12.388 349.945 8.637 349.008 8.637 349.008 12.388 347.777 12.388 347.777 13.325 348.715 13.325 348.715 14.556 347.777 14.556 347.777 17.075 351.527 17.075 351.527 12.388" style="fill:none;stroke:#231f20;stroke-miterlimit:10;stroke-width:0.25px"/></g><g id="LWPOLYLINE-61" data-name="LWPOLYLINE"><polygon points="265.857 14.556 266.56 14.556 266.56 13.325 265.857 13.325 265.857 12.388 267.615 12.388 267.615 10.044 268.553 10.044 268.553 12.388 269.607 12.388 269.607 13.325 269.138 13.325 269.138 14.556 269.842 14.556 269.842 15.727 268.904 15.727 268.904 16.606 267.732 16.606 267.732 17.075 265.857 17.075 265.857 14.556" style="fill:none;stroke:#231f20;stroke-miterlimit:10;stroke-width:0.25px"/></g><g id="LWPOLYLINE-62" data-name="LWPOLYLINE"><polygon points="239.021 12.388 240.603 12.388 240.603 8.637 241.541 8.637 241.541 12.388 242.771 12.388 242.771 13.325 241.834 13.325 241.834 14.556 242.771 14.556 242.771 17.075 239.021 17.075 239.021 12.388" style="fill:none;stroke:#231f20;stroke-miterlimit:10;stroke-width:0.25px"/></g><g id="LWPOLYLINE-63" data-name="LWPOLYLINE"><polygon points="470.942 14.556 470.238 14.556 470.238 13.325 470.942 13.325 470.942 12.388 469.184 12.388 469.184 10.044 468.246 10.044 468.246 12.388 467.192 12.388 467.192 13.325 467.66 13.325 467.66 14.556 466.957 14.556 466.957 15.727 467.895 15.727 467.895 16.606 469.067 16.606 469.067 17.075 470.942 17.075 470.942 14.556" style="fill:none;stroke:#231f20;stroke-miterlimit:10;stroke-width:0.25px"/></g><g id="LWPOLYLINE-64" data-name="LWPOLYLINE"><polygon points="497.777 12.388 496.195 12.388 496.195 8.637 495.258 8.637 495.258 12.388 494.027 12.388 494.027 13.325 494.965 13.325 494.965 14.556 494.027 14.556 494.027 17.075 497.777 17.075 497.777 12.388" style="fill:none;stroke:#231f20;stroke-miterlimit:10;stroke-width:0.25px"/></g><g id="LWPOLYLINE-65" data-name="LWPOLYLINE"><polygon points="412.107 14.556 412.81 14.556 412.81 13.325 412.107 13.325 412.107 12.388 413.865 12.388 413.865 10.044 414.803 10.044 414.803 12.388 415.857 12.388 415.857 13.325 415.388 13.325 415.388 14.556 416.092 14.556 416.092 15.727 415.154 15.727 415.154 16.606 413.982 16.606 413.982 17.075 412.107 17.075 412.107 14.556" style="fill:none;stroke:#231f20;stroke-miterlimit:10;stroke-width:0.25px"/></g><g id="LWPOLYLINE-66" data-name="LWPOLYLINE"><polygon points="385.271 12.388 386.853 12.388 386.853 8.637 387.791 8.637 387.791 12.388 389.021 12.388 389.021 13.325 388.084 13.325 388.084 14.556 389.021 14.556 389.021 17.075 385.271 17.075 385.271 12.388" style="fill:none;stroke:#231f20;stroke-miterlimit:10;stroke-width:0.25px"/></g><g id="LWPOLYLINE-67" data-name="LWPOLYLINE"><polyline points="148.559 10.044 149.496 10.044 149.496 12.388 151.254 12.388 151.254 13.325 150.551 13.325 150.551 14.556 151.254 14.556 151.254 17.075 149.379 17.075 149.379 16.606 148.676 16.606 148.676 17.075 146.801 17.075 146.801 14.556 147.492 14.555 147.504 13.325 146.801 13.325 146.801 12.388 148.559 12.388 148.559 10.044" style="fill:none;stroke:#231f20;stroke-miterlimit:10;stroke-width:0.25px"/></g><g id="LWPOLYLINE-68" data-name="LWPOLYLINE"><polygon points="180.434 14.556 181.371 14.556 181.371 13.325 180.434 13.325 180.434 12.388 182.309 12.388 182.309 10.044 183.246 10.044 183.246 12.388 184.184 12.388 184.184 13.325 183.246 13.325 183.246 14.556 184.184 14.556 184.184 15.727 183.363 15.727 183.363 16.606 182.309 16.606 182.309 17.075 180.434 17.075 180.434 14.556" style="fill:none;stroke:#231f20;stroke-miterlimit:10;stroke-width:0.25px"/></g><g id="LWPOLYLINE-69" data-name="LWPOLYLINE"><polygon points="205.277 12.388 204.34 12.388 204.34 8.637 203.402 8.637 203.402 12.388 201.527 12.388 201.527 13.325 202.465 13.325 202.465 14.556 201.527 14.556 201.527 17.075 205.277 17.075 205.277 12.388" style="fill:none;stroke:#231f20;stroke-miterlimit:10;stroke-width:0.25px"/></g><g id="LWPOLYLINE-70" data-name="LWPOLYLINE"><polygon points="96.527 14.556 95.59 14.556 95.59 13.325 96.527 13.325 96.527 12.388 94.653 12.388 94.653 8.637 93.715 8.637 93.715 12.388 92.777 12.388 92.777 17.075 96.527 17.075 96.527 14.556" style="fill:none;stroke:#231f20;stroke-miterlimit:10;stroke-width:0.25px"/></g><g id="LWPOLYLINE-71" data-name="LWPOLYLINE"><polygon points="117.621 14.556 116.684 14.556 116.684 13.325 117.621 13.325 117.621 12.388 115.746 12.388 115.746 10.044 114.809 10.044 114.809 12.388 113.871 12.388 113.871 13.325 114.809 13.325 114.809 14.556 113.871 14.556 113.871 15.727 114.692 15.727 114.692 16.606 115.746 16.606 115.746 17.075 117.621 17.075 117.621 14.556" style="fill:none;stroke:#231f20;stroke-miterlimit:10;stroke-width:0.25px"/></g><g id="LWPOLYLINE-72" data-name="LWPOLYLINE"><polyline points="351.527 17.075 351.527 8.638 239.027 8.638 239.027 17.075" style="fill:none;stroke:#231f20;stroke-linecap:round;stroke-linejoin:round;stroke-width:0.4px"/></g><g id="LWPOLYLINE-73" data-name="LWPOLYLINE"><polyline points="497.777 17.075 497.777 8.638 385.277 8.638 385.277 17.075" style="fill:none;stroke:#231f20;stroke-linecap:round;stroke-linejoin:round;stroke-width:0.4px"/></g><g id="LWPOLYLINE-74" data-name="LWPOLYLINE"><polyline points="205.277 17.075 205.277 8.638 92.777 8.638 92.777 17.075" style="fill:none;stroke:#231f20;stroke-linecap:round;stroke-linejoin:round;stroke-width:0.4px"/></g><g id="LWPOLYLINE-75" data-name="LWPOLYLINE"><rect x="193.036" y="162.952" width="2.109" height="33.75" transform="translate(-70.309 189.913) rotate(-45)" style="fill:#fff;stroke:#231f20;stroke-linecap:round;stroke-linejoin:round;stroke-width:0.200000002980232px"/></g><g id="LWPOLYLINE-76" data-name="LWPOLYLINE"><rect x="379.626" y="140.137" width="33.75" height="1.641" transform="translate(16.461 321.654) rotate(-45)" style="fill:#fff;stroke:#231f20;stroke-linecap:round;stroke-linejoin:round;stroke-width:0.200000002980232px"/></g><g id="LWPOLYLINE-77" data-name="LWPOLYLINE"><rect x="467.192" y="152.309" width="33.75" height="1.641" style="fill:none;stroke:#231f20;stroke-linecap:round;stroke-linejoin:round;stroke-width:0.200000002980232px"/></g><g id="LWPOLYLINE-78" data-name="LWPOLYLINE"><rect x="424.184" y="159.575" width="1.641" height="33.75" style="fill:none;stroke:#231f20;stroke-linecap:round;stroke-linejoin:round;stroke-width:0.200000002980232px"/></g><g id="LWPOLYLINE-79" data-name="LWPOLYLINE"><rect x="383.988" y="197.075" width="33.75" height="1.641" style="fill:none;stroke:#231f20;stroke-linecap:round;stroke-linejoin:round;stroke-width:0.200000002980232px"/></g><g id="LWPOLYLINE-80" data-name="LWPOLYLINE"><rect x="61.253" y="206.802" width="1.641" height="33.75" style="fill:none;stroke:#231f20;stroke-linecap:round;stroke-linejoin:round;stroke-width:0.200000002980232px"/></g><g id="LWPOLYLINE-81" data-name="LWPOLYLINE"><rect x="130.159" y="207.27" width="1.641" height="33.75" style="fill:none;stroke:#231f20;stroke-linecap:round;stroke-linejoin:round;stroke-width:0.200000002980232px"/></g><g id="LWPOLYLINE-82" data-name="LWPOLYLINE"><rect x="339.835" y="318.496" width="1.641" height="33.75" transform="translate(-137.367 339.108) rotate(-45)" style="fill:#fff;stroke:#231f20;stroke-linecap:round;stroke-linejoin:round;stroke-width:0.200000002980232px"/></g><g id="LWPOLYLINE-83" data-name="LWPOLYLINE"><rect x="467.192" y="152.309" width="33.75" height="1.641" style="fill:none;stroke:#231f20;stroke-linecap:round;stroke-linejoin:round;stroke-width:0.200000002980232px"/></g><g id="LWPOLYLINE-84" data-name="LWPOLYLINE"><rect x="424.184" y="159.575" width="1.641" height="33.75" style="fill:none;stroke:#231f20;stroke-linecap:round;stroke-linejoin:round;stroke-width:0.200000002980232px"/></g><g id="LWPOLYLINE-85" data-name="LWPOLYLINE"><rect x="383.988" y="197.075" width="33.75" height="1.641" style="fill:none;stroke:#231f20;stroke-linecap:round;stroke-linejoin:round;stroke-width:0.200000002980232px"/></g><g id="ARC-30" data-name="ARC"><path d="M205.277,158.755a34.267,34.267,0,0,0-22.373,8.393" style="fill:none;stroke:#231f20;stroke-linecap:round;stroke-linejoin:round;stroke-width:0.200000002980232px"/></g><g id="ARC-31" data-name="ARC"><path d="M417.738,152.309a33.745,33.745,0,0,0-9.885-23.864" style="fill:none;stroke:#231f20;stroke-linecap:round;stroke-linejoin:round;stroke-width:0.200000002980232px"/></g><g id="ARC-32" data-name="ARC"><path d="M329.3,322.859a33.749,33.749,0,0,0-9.885,23.864" style="fill:none;stroke:#231f20;stroke-linecap:round;stroke-linejoin:round;stroke-width:0.200000002980232px"/></g><g id="LWPOLYLINE-86" data-name="LWPOLYLINE"><rect x="131.8" y="302.544" width="69.375" height="34.102" style="fill:none;stroke:#231f20;stroke-linecap:round;stroke-linejoin:round;stroke-width:0.25px"/></g><g id="LWPOLYLINE-87" data-name="LWPOLYLINE"><rect x="131.8" y="302.544" width="69.375" height="34.102" style="fill:none;stroke:#231f20;stroke-linecap:round;stroke-linejoin:round;stroke-width:0.25px"/></g><g id="LWPOLYLINE-88" data-name="LWPOLYLINE"><rect x="131.8" y="301.97" width="34.687" height="0.828" style="fill:#fff;stroke:#231f20;stroke-linecap:round;stroke-linejoin:round;stroke-width:0.25px"/></g><g id="ARC-33" data-name="ARC"><path d="M194.893,319.234a3.279,3.279,0,1,1,0-.789" style="fill:none;stroke:#231f20;stroke-linecap:round;stroke-linejoin:round;stroke-width:0.25px"/></g><g id="LWPOLYLINE-89" data-name="LWPOLYLINE"><path d="M191.637,318.445h10.168v.775H191.637a.388.388,0,1,1,0-.775Z" style="fill:none;stroke:#231f20;stroke-linecap:round;stroke-linejoin:round;stroke-width:0.25px"/></g><g id="LWPOLYLINE-90" data-name="LWPOLYLINE"><rect x="166.488" y="301.97" width="34.687" height="0.828" style="fill:#fff;stroke:#231f20;stroke-linecap:round;stroke-linejoin:round;stroke-width:0.25px"/></g><g id="LWPOLYLINE-91" data-name="LWPOLYLINE"><rect x="380.238" y="266.206" width="58.286" height="30.01" style="fill:none;stroke:#231f20;stroke-linecap:round;stroke-linejoin:round;stroke-width:0.25px"/></g><g id="LWPOLYLINE-92" data-name="LWPOLYLINE"><path d="M433.324,280.891v-5.824a4.686,4.686,0,0,0-4.687-4.687H389.965a4.687,4.687,0,0,0-4.688,4.687v12.422a4.688,4.688,0,0,0,4.688,4.688h38.672a4.687,4.687,0,0,0,4.687-4.688v-5.823" style="fill:none;stroke:#231f20;stroke-linecap:round;stroke-linejoin:round;stroke-width:0.25px"/></g><g id="ARC-34" data-name="ARC"><path d="M431.612,280.877a3.28,3.28,0,1,0,0,.789" style="fill:none;stroke:#231f20;stroke-linecap:round;stroke-linejoin:round;stroke-width:0.25px"/></g><g id="LWPOLYLINE-93" data-name="LWPOLYLINE"><path d="M428.356,281.666h10.168v-.775H428.356a.388.388,0,1,0,0,.775Z" style="fill:none;stroke:#231f20;stroke-linecap:round;stroke-linejoin:round;stroke-width:0.25px"/></g><g id="LINE-16" data-name="LINE"><line x1="456.662" y1="187.466" x2="456.662" y2="165.434" style="fill:#fff;stroke:#231f20;stroke-linecap:round;stroke-linejoin:round;stroke-width:0.25px"/></g><g id="LINE-17" data-name="LINE"><line x1="456.662" y1="165.434" x2="432.387" y2="165.434" style="fill:#fff;stroke:#231f20;stroke-linecap:round;stroke-linejoin:round;stroke-width:0.25px"/></g><g id="LINE-18" data-name="LINE"><line x1="432.387" y1="165.434" x2="432.387" y2="187.466" style="fill:#fff;stroke:#231f20;stroke-linecap:round;stroke-linejoin:round;stroke-width:0.25px"/></g><g id="LINE-19" data-name="LINE"><line x1="432.387" y1="187.466" x2="456.662" y2="187.466" style="fill:#fff;stroke:#231f20;stroke-linecap:round;stroke-linejoin:round;stroke-width:0.25px"/></g><g id="LWPOLYLINE-94" data-name="LWPOLYLINE"><rect x="214.3" y="203.856" width="23.203" height="104.664" style="fill:none;stroke:#231f20;stroke-linecap:round;stroke-linejoin:round;stroke-width:0.25px"/></g><g id="LWPOLYLINE-95" data-name="LWPOLYLINE"><rect x="214.3" y="339.341" width="44.181" height="26.133" style="fill:#fff;stroke:#231f20;stroke-linecap:round;stroke-linejoin:round;stroke-width:0.25px"/></g><g id="LWPOLYLINE-96" data-name="LWPOLYLINE"><polyline points="258.481 340.53 258.481 339.341 298.366 339.341" style="fill:#fff;stroke:#231f20;stroke-linecap:round;stroke-linejoin:round;stroke-width:0.200000002980232px"/></g><g id="LWPOLYLINE-97" data-name="LWPOLYLINE"><rect x="214.3" y="308.52" width="23.266" height="30.82" style="fill:#fff;stroke:#231f20;stroke-linecap:round;stroke-linejoin:round;stroke-width:0.25px"/></g><g id="LWPOLYLINE-98" data-name="LWPOLYLINE"><rect x="276.878" y="203.856" width="37.5" height="84.375" style="fill:#fff;stroke:#231f20;stroke-linecap:round;stroke-linejoin:round;stroke-width:0.25px"/></g><g id="LWPOLYLINE-99" data-name="LWPOLYLINE"><polyline points="291.833 239.042 279.833 239.042 279.833 261.542 291.833 261.542 291.833 239.042" style="fill:none;stroke:#231f20;stroke-linecap:round;stroke-linejoin:round;stroke-width:0.25px"/></g><rect x="292.004" y="250.867" width="2.741" height="1.151" transform="translate(41.933 544.817) rotate(-90)" style="fill:#fff;stroke:#231f20;stroke-linecap:round;stroke-linejoin:round;stroke-width:0.25px"/><path d="M292.912,249.469a.806.806,0,0,0-.263.263h-5.776a.417.417,0,0,0,0,.833h5.776a.8.8,0,1,0,.263-1.1Z" style="fill:#fff;stroke:#231f20;stroke-linecap:round;stroke-linejoin:round;stroke-width:0.25px"/><rect x="258.447" y="339.341" width="40.02" height="1.641" style="fill:#fff;stroke:#231f20;stroke-linecap:round;stroke-linejoin:round;stroke-width:0.200000002980232px"/><polyline points="259.301 366.859 258.481 366.859 258.481 339.341" style="fill:#fff;stroke:#231f20;stroke-linecap:round;stroke-linejoin:round;stroke-width:0.25px"/><line x1="278.457" y1="340.981" x2="278.457" y2="339.341" style="fill:none;stroke:#231f20;stroke-linecap:round;stroke-linejoin:round;stroke-width:0.200000002980232px"/><g id="LWPOLYLINE-100" data-name="LWPOLYLINE"><line x1="463.207" y1="167.075" x2="505.395" y2="167.075" style="fill:none;stroke:#231f20;stroke-linecap:round;stroke-linejoin:round;stroke-width:0.25px;stroke-dasharray:2,2"/></g><g id="LWPOLYLINE-101" data-name="LWPOLYLINE"><polyline points="61.253 199.77 14.379 199.77 14.379 244.302" style="fill:none;stroke:#231f20;stroke-linecap:round;stroke-linejoin:round;stroke-width:0.25px;stroke-dasharray:2,2"/></g><g id="LWPOLYLINE-102" data-name="LWPOLYLINE"><line x1="305.102" y1="203.52" x2="305.102" y2="288.364" style="fill:none;stroke:#231f20;stroke-linecap:round;stroke-linejoin:round;stroke-width:0.25px;stroke-dasharray:2,2"/></g><g id="LWPOLYLINE-103" data-name="LWPOLYLINE"><line x1="225.902" y1="203.915" x2="225.902" y2="308.52" style="fill:none;stroke:#231f20;stroke-linecap:round;stroke-linejoin:round;stroke-width:0.25px;stroke-dasharray:2,2"/></g><line x1="277.394" y1="214.289" x2="278.055" y2="214.289" style="fill:none;stroke:#231f20;stroke-linecap:round;stroke-linejoin:round;stroke-width:0.25px"/><line x1="279.361" y1="214.289" x2="296.989" y2="214.289" style="fill:none;stroke:#231f20;stroke-linecap:round;stroke-linejoin:round;stroke-width:0.25px;stroke-dasharray:1.3057643175125122,1.3057643175125122"/><polyline points="297.642 214.289 298.303 214.289 298.303 214.951" style="fill:none;stroke:#231f20;stroke-linecap:round;stroke-linejoin:round;stroke-width:0.25px"/><line x1="298.303" y1="216.316" x2="298.303" y2="234.754" style="fill:none;stroke:#231f20;stroke-linecap:round;stroke-linejoin:round;stroke-width:0.25px;stroke-dasharray:1.3657565116882324,1.3657565116882324"/><polyline points="298.303 235.437 298.303 236.098 297.642 236.098" style="fill:none;stroke:#231f20;stroke-linecap:round;stroke-linejoin:round;stroke-width:0.25px"/><line x1="296.336" y1="236.098" x2="278.708" y2="236.098" style="fill:none;stroke:#231f20;stroke-linecap:round;stroke-linejoin:round;stroke-width:0.25px;stroke-dasharray:1.3057643175125122,1.3057643175125122"/><line x1="278.055" y1="236.098" x2="277.394" y2="236.098" style="fill:none;stroke:#231f20;stroke-linecap:round;stroke-linejoin:round;stroke-width:0.25px"/><line x1="276.748" y1="263.808" x2="277.409" y2="263.808" style="fill:none;stroke:#231f20;stroke-linecap:round;stroke-linejoin:round;stroke-width:0.25px"/><line x1="278.771" y1="263.808" x2="297.155" y2="263.808" style="fill:none;stroke:#231f20;stroke-linecap:round;stroke-linejoin:round;stroke-width:0.25px;stroke-dasharray:1.3618035316467285,1.3618035316467285"/><polyline points="297.836 263.808 298.498 263.808 298.498 264.469" style="fill:none;stroke:#231f20;stroke-linecap:round;stroke-linejoin:round;stroke-width:0.25px"/><line x1="298.498" y1="265.792" x2="298.498" y2="286.285" style="fill:none;stroke:#231f20;stroke-linecap:round;stroke-linejoin:round;stroke-width:0.25px;stroke-dasharray:1.3221670389175415,1.3221670389175415"/><polyline points="298.498 286.946 298.498 287.608 297.836 287.608" style="fill:none;stroke:#231f20;stroke-linecap:round;stroke-linejoin:round;stroke-width:0.25px"/><line x1="296.474" y1="287.608" x2="278.09" y2="287.608" style="fill:none;stroke:#231f20;stroke-linecap:round;stroke-linejoin:round;stroke-width:0.25px;stroke-dasharray:1.3618035316467285,1.3618035316467285"/><line x1="277.409" y1="287.608" x2="276.748" y2="287.608" style="fill:none;stroke:#231f20;stroke-linecap:round;stroke-linejoin:round;stroke-width:0.25px"/><g id="LINE-20" data-name="LINE"><line x1="501.448" y1="160.548" x2="501.448" y2="173.602" style="fill:none;stroke:#231f20;stroke-miterlimit:10;stroke-width:0.25px"/></g><g id="LINE-21" data-name="LINE"><line x1="499.029" y1="160.548" x2="499.029" y2="173.602" style="fill:none;stroke:#231f20;stroke-miterlimit:10;stroke-width:0.25px"/></g><g id="LINE-22" data-name="LINE"><line x1="496.61" y1="160.548" x2="496.609" y2="173.602" style="fill:none;stroke:#231f20;stroke-miterlimit:10;stroke-width:0.25px"/></g><g id="LINE-23" data-name="LINE"><line x1="494.191" y1="160.548" x2="494.19" y2="173.602" style="fill:none;stroke:#231f20;stroke-miterlimit:10;stroke-width:0.25px"/></g><g id="LINE-24" data-name="LINE"><line x1="491.771" y1="160.548" x2="491.771" y2="173.602" style="fill:none;stroke:#231f20;stroke-miterlimit:10;stroke-width:0.25px"/></g><g id="LINE-25" data-name="LINE"><line x1="489.352" y1="173.602" x2="489.352" y2="160.547" style="fill:none;stroke:#231f20;stroke-miterlimit:10;stroke-width:0.25px"/></g><g id="LINE-26" data-name="LINE"><line x1="57.307" y1="193.243" x2="57.307" y2="206.298" style="fill:none;stroke:#231f20;stroke-miterlimit:10;stroke-width:0.25px"/></g><g id="LINE-27" data-name="LINE"><line x1="54.888" y1="193.243" x2="54.888" y2="206.297" style="fill:none;stroke:#231f20;stroke-miterlimit:10;stroke-width:0.25px"/></g><g id="LINE-28" data-name="LINE"><line x1="52.468" y1="193.243" x2="52.468" y2="206.297" style="fill:none;stroke:#231f20;stroke-miterlimit:10;stroke-width:0.25px"/></g><g id="LINE-29" data-name="LINE"><line x1="50.049" y1="193.243" x2="50.048" y2="206.297" style="fill:none;stroke:#231f20;stroke-miterlimit:10;stroke-width:0.25px"/></g><g id="LINE-30" data-name="LINE"><line x1="47.63" y1="193.243" x2="47.629" y2="206.297" style="fill:none;stroke:#231f20;stroke-miterlimit:10;stroke-width:0.25px"/></g><g id="LINE-31" data-name="LINE"><line x1="45.211" y1="206.297" x2="45.211" y2="193.243" style="fill:none;stroke:#231f20;stroke-miterlimit:10;stroke-width:0.25px"/></g><g id="LINE-32" data-name="LINE"><line x1="7.852" y1="240.355" x2="20.906" y2="240.355" style="fill:none;stroke:#231f20;stroke-miterlimit:10;stroke-width:0.25px"/></g><g id="LINE-33" data-name="LINE"><line x1="7.852" y1="237.936" x2="20.906" y2="237.936" style="fill:none;stroke:#231f20;stroke-miterlimit:10;stroke-width:0.25px"/></g><g id="LINE-34" data-name="LINE"><line x1="7.852" y1="235.517" x2="20.906" y2="235.516" style="fill:none;stroke:#231f20;stroke-miterlimit:10;stroke-width:0.25px"/></g><g id="LINE-35" data-name="LINE"><line x1="7.852" y1="233.098" x2="20.906" y2="233.097" style="fill:none;stroke:#231f20;stroke-miterlimit:10;stroke-width:0.25px"/></g><g id="LINE-36" data-name="LINE"><line x1="7.852" y1="230.678" x2="20.906" y2="230.677" style="fill:none;stroke:#231f20;stroke-miterlimit:10;stroke-width:0.25px"/></g><g id="LINE-37" data-name="LINE"><line x1="20.906" y1="228.259" x2="7.852" y2="228.259" style="fill:none;stroke:#231f20;stroke-miterlimit:10;stroke-width:0.25px"/></g><g id="LWPOLYLINE-104" data-name="LWPOLYLINE"><line x1="259.27" y1="355.396" x2="299.979" y2="355.396" style="fill:none;stroke:#231f20;stroke-linecap:round;stroke-linejoin:round;stroke-width:0.25px;stroke-dasharray:2,2"/></g><g id="LINE-38" data-name="LINE"><line x1="294.541" y1="348.868" x2="294.541" y2="361.923" style="fill:none;stroke:#231f20;stroke-miterlimit:10;stroke-width:0.25px"/></g><g id="LINE-39" data-name="LINE"><line x1="292.122" y1="348.868" x2="292.122" y2="361.923" style="fill:none;stroke:#231f20;stroke-miterlimit:10;stroke-width:0.25px"/></g><g id="LINE-40" data-name="LINE"><line x1="289.703" y1="348.868" x2="289.702" y2="361.923" style="fill:none;stroke:#231f20;stroke-miterlimit:10;stroke-width:0.25px"/></g><g id="LINE-41" data-name="LINE"><line x1="287.284" y1="348.868" x2="287.283" y2="361.923" style="fill:none;stroke:#231f20;stroke-miterlimit:10;stroke-width:0.25px"/></g><g id="LINE-42" data-name="LINE"><line x1="284.864" y1="348.868" x2="284.863" y2="361.923" style="fill:none;stroke:#231f20;stroke-miterlimit:10;stroke-width:0.25px"/></g><g id="LINE-43" data-name="LINE"><line x1="282.445" y1="361.923" x2="282.445" y2="348.868" style="fill:none;stroke:#231f20;stroke-miterlimit:10;stroke-width:0.25px"/></g><g id="ARC-35" data-name="ARC"><path d="M185.545,221.116c2.971.328,10.818.945,10.818.945" style="fill:#fff;stroke:#231f20;stroke-linecap:round;stroke-linejoin:round;stroke-width:0.25px"/></g><g id="ARC-36" data-name="ARC"><path d="M192.432,210.546a.791.791,0,0,0-.487-.722q-.489-.2-.991-.372a13.846,13.846,0,0,0-2.751-.6q-.746-.084-1.494-.124a14.709,14.709,0,0,0-3.9.322,9.492,9.492,0,0,0-4.98,2.879,4.5,4.5,0,0,0,.059,6.127,9.491,9.491,0,0,0,5.035,2.782,14.689,14.689,0,0,0,3.909.246q.747-.054,1.491-.153a13.87,13.87,0,0,0,2.739-.656q.5-.178.984-.391a.791.791,0,0,0,.472-.732Z" style="fill:#fff;stroke:#231f20;stroke-linecap:round;stroke-linejoin:round;stroke-width:0.25px"/></g><g id="ARC-37" data-name="ARC"><path d="M185.425,208.715c2.964-.385,10.938-.953,10.938-.953" style="fill:#fff;stroke:#231f20;stroke-linecap:round;stroke-linejoin:round;stroke-width:0.25px"/></g><g id="ARC-38" data-name="ARC"><path d="M196.226,222.055a1.032,1.032,0,0,1-.975-.908,52.586,52.586,0,0,1,0-12.471,1.031,1.031,0,0,1,.975-.907h-.021q1.6-.077,3.211-.116a1.377,1.377,0,0,1,1.4,1.257q.258,2.993.256,6t-.257,6a1.376,1.376,0,0,1-1.4,1.257q-1.606-.039-3.211-.116Z" style="fill:#fff;stroke:#231f20;stroke-linecap:round;stroke-linejoin:round;stroke-width:0.25px"/></g><g id="LWPOLYLINE-105" data-name="LWPOLYLINE"><path d="M195.007,250.663v-7.8a.866.866,0,0,0-.866-.866h-10.4a.866.866,0,0,0-.866.866v16.461a.866.866,0,0,0,.866.866h10.4a.866.866,0,0,0,.866-.866v-8.664Z" style="fill:none;stroke:#231f20;stroke-linecap:round;stroke-linejoin:round;stroke-width:0.25px"/></g><g id="ARC-39" data-name="ARC"><path d="M197.166,251.533a1.092,1.092,0,1,0,0-.873Z" style="fill:#fff;stroke:#231f20;stroke-linecap:round;stroke-linejoin:round;stroke-width:0.25px"/></g><g id="ARC-40" data-name="ARC"><path d="M198.385,256.535a1.092,1.092,0,1,0-.437,0Z" style="fill:#fff;stroke:#231f20;stroke-linecap:round;stroke-linejoin:round;stroke-width:0.25px"/></g><g id="ARC-41" data-name="ARC"><path d="M198.385,245.658a1.092,1.092,0,1,1-.437,0Z" style="fill:#fff;stroke:#231f20;stroke-linecap:round;stroke-linejoin:round;stroke-width:0.25px"/></g><g id="LINE-44" data-name="LINE"><path d="M192.925,251.533h5.242a.437.437,0,0,0,0-.873h-5.242a.437.437,0,1,0,0,.873Z" style="fill:#fff;stroke:#231f20;stroke-linecap:round;stroke-linejoin:round;stroke-width:0.25px"/></g><line x1="198.167" y1="255.454" x2="198.167" y2="258.523" style="fill:#fff;stroke:#231f20;stroke-linecap:round;stroke-linejoin:round;stroke-width:0.25px"/><line x1="198.167" y1="243.67" x2="198.167" y2="246.739" style="fill:#fff;stroke:#231f20;stroke-linecap:round;stroke-linejoin:round;stroke-width:0.25px"/><g id="LWPOLYLINE-106" data-name="LWPOLYLINE"><path d="M195.007,276.64v-7.8a.867.867,0,0,0-.866-.867h-10.4a.867.867,0,0,0-.866.867V285.3a.866.866,0,0,0,.866.866h10.4a.866.866,0,0,0,.866-.866V276.64Z" style="fill:none;stroke:#231f20;stroke-linecap:round;stroke-linejoin:round;stroke-width:0.25px"/></g><g id="LWPOLYLINE-107" data-name="LWPOLYLINE"><rect x="180.279" y="230.506" width="20.793" height="62.378" style="fill:none;stroke:#231f20;stroke-linecap:round;stroke-linejoin:round;stroke-width:0.25px"/></g><g id="ARC-42" data-name="ARC"><path d="M197.166,277.727a1.092,1.092,0,1,0,0-.874Z" style="fill:#fff;stroke:#231f20;stroke-linecap:round;stroke-linejoin:round;stroke-width:0.25px"/></g><g id="ARC-43" data-name="ARC"><path d="M198.385,282.728a1.092,1.092,0,1,0-.437,0Z" style="fill:#fff;stroke:#231f20;stroke-linecap:round;stroke-linejoin:round;stroke-width:0.25px"/></g><g id="ARC-44" data-name="ARC"><path d="M198.385,271.852a1.092,1.092,0,1,1-.437,0Z" style="fill:#fff;stroke:#231f20;stroke-linecap:round;stroke-linejoin:round;stroke-width:0.25px"/></g><g id="LINE-45" data-name="LINE"><path d="M192.925,277.727h5.242a.437.437,0,0,0,0-.874h-5.242a.437.437,0,0,0,0,.874Z" style="fill:#fff;stroke:#231f20;stroke-linecap:round;stroke-linejoin:round;stroke-width:0.25px"/></g><line x1="198.167" y1="281.647" x2="198.167" y2="284.716" style="fill:#fff;stroke:#231f20;stroke-linecap:round;stroke-linejoin:round;stroke-width:0.25px"/><line x1="198.167" y1="269.863" x2="198.167" y2="272.932" style="fill:#fff;stroke:#231f20;stroke-linecap:round;stroke-linejoin:round;stroke-width:0.25px"/><g id="LWPOLYLINE-108" data-name="LWPOLYLINE"><rect x="432.037" y="230.847" width="19.644" height="25.583" style="fill:#fff;stroke:#231f20;stroke-linecap:round;stroke-linejoin:round;stroke-width:0.25px"/></g><g id="LWPOLYLINE-109" data-name="LWPOLYLINE"><path d="M435.874,235.872a1.1,1.1,0,0,0-1.1,1.1v13.34a1.1,1.1,0,0,0,1.1,1.1h9.868a.914.914,0,0,0,.914-.914V236.786a.914.914,0,0,0-.914-.914Z" style="fill:#fff;stroke:#231f20;stroke-linecap:round;stroke-linejoin:round;stroke-width:0.25px"/></g><g id="ARC-45" data-name="ARC"><path d="M435.307,220.944c3.133.346,11.408,1,11.408,1" style="fill:#fff;stroke:#231f20;stroke-linecap:round;stroke-linejoin:round;stroke-width:0.25px"/></g><g id="ARC-46" data-name="ARC"><path d="M442.57,209.8a.837.837,0,0,0-.514-.762q-.516-.215-1.045-.392a14.541,14.541,0,0,0-2.9-.635c-.523-.06-1.049-.1-1.575-.131a15.427,15.427,0,0,0-4.116.339,10.01,10.01,0,0,0-5.252,3.036,4.745,4.745,0,0,0,.062,6.462,10.016,10.016,0,0,0,5.31,2.933,15.452,15.452,0,0,0,4.122.26q.789-.057,1.573-.161a14.623,14.623,0,0,0,2.888-.692q.526-.187,1.038-.412a.832.832,0,0,0,.5-.772Z" style="fill:#fff;stroke:#231f20;stroke-linecap:round;stroke-linejoin:round;stroke-width:0.25px"/></g><g id="ARC-47" data-name="ARC"><path d="M435.18,207.866c3.126-.406,11.535-1.005,11.535-1.005" style="fill:#fff;stroke:#231f20;stroke-linecap:round;stroke-linejoin:round;stroke-width:0.25px"/></g><g id="ARC-48" data-name="ARC"><path d="M446.571,221.934a1.089,1.089,0,0,1-1.029-.957,55.494,55.494,0,0,1,0-13.152,1.089,1.089,0,0,1,1.029-.957h-.023q1.694-.081,3.387-.122a1.45,1.45,0,0,1,1.475,1.325q.273,3.157.271,6.329t-.271,6.329a1.45,1.45,0,0,1-1.475,1.325q-1.694-.041-3.387-.122Z" style="fill:#fff;stroke:#231f20;stroke-linecap:round;stroke-linejoin:round;stroke-width:0.25px"/></g><g id="ARC-49" data-name="ARC"><path d="M448.019,244.1a1.152,1.152,0,1,0,0-.922Z" style="fill:#fff;stroke:#231f20;stroke-linecap:round;stroke-linejoin:round;stroke-width:0.25px"/></g><g id="ARC-50" data-name="ARC"><path d="M449.305,249.374a1.153,1.153,0,1,0-.461,0Z" style="fill:#fff;stroke:#231f20;stroke-linecap:round;stroke-linejoin:round;stroke-width:0.25px"/></g><g id="ARC-51" data-name="ARC"><path d="M449.305,237.9a1.153,1.153,0,1,1-.461,0Z" style="fill:#fff;stroke:#231f20;stroke-linecap:round;stroke-linejoin:round;stroke-width:0.25px"/></g><g id="LINE-46" data-name="LINE"><path d="M443.546,244.1h5.528a.461.461,0,1,0,0-.922h-5.528a.461.461,0,1,0,0,.922Z" style="fill:#fff;stroke:#231f20;stroke-linecap:round;stroke-linejoin:round;stroke-width:0.25px"/></g><line x1="449.074" y1="248.234" x2="449.074" y2="251.471" style="fill:#fff;stroke:#231f20;stroke-linecap:round;stroke-linejoin:round;stroke-width:0.25px"/><line x1="449.074" y1="235.807" x2="449.074" y2="239.043" style="fill:#fff;stroke:#231f20;stroke-linecap:round;stroke-linejoin:round;stroke-width:0.25px"/><g id="LWPOLYLINE-110" data-name="LWPOLYLINE"><polygon points="359.571 355.395 368.403 355.395 368.403 299.087 447.621 299.087 447.621 274.653 463.793 274.653 463.793 221.45 471.059 221.45 471.059 200.122 490.277 200.122 490.277 179.966 508.266 179.966 508.266 7.122 506.325 5.992 504.393 4.354 502.777 2.403 501.527 0.2 497.777 0.2 497.777 22.7 505.395 22.7 505.395 152.309 500.942 152.309 500.942 155.825 505.395 155.825 505.395 178.325 463.207 178.325 463.207 155.825 467.192 155.825 467.192 152.309 417.738 152.309 417.738 155.825 424.184 155.825 424.184 159.575 427.699 159.575 427.699 155.825 458.637 155.825 458.637 197.075 427.699 197.075 427.699 193.325 424.184 193.325 424.184 197.075 417.738 197.075 417.738 200.591 451.488 200.591 451.488 266.216 438.363 266.216 438.363 296.216 380.238 296.216 380.238 200.591 383.988 200.591 383.988 197.075 356.567 197.075 356.567 346.723 353.168 346.723 353.168 352.466 356.098 352.466 356.098 355.395 359.571 355.395" style="fill:#e1e5e5;stroke:#231f20;stroke-miterlimit:10;stroke-width:0.4px"/></g><g id="LWPOLYLINE-111" data-name="LWPOLYLINE"><polygon points="211.02 158.755 211.02 22.7 239.027 22.7 239.027 0.2 235.277 0.2 234.028 2.403 232.412 4.354 230.48 5.992 228.291 7.267 225.913 8.139 223.419 8.582 220.886 8.582 218.392 8.139 216.014 7.267 213.825 5.992 211.893 4.354 210.277 2.403 209.027 0.2 205.277 0.2 205.277 158.755 211.02 158.755" style="fill:#e1e5e5;stroke:#231f20;stroke-miterlimit:10;stroke-width:0.4px"/></g><g id="LWPOLYLINE-112" data-name="LWPOLYLINE"><polygon points="356.567 155.825 383.988 155.825 383.988 152.309 380.238 152.309 380.238 22.7 385.277 22.7 385.277 0.2 381.527 0.2 380.278 2.403 378.662 4.354 376.73 5.992 374.541 7.267 372.163 8.139 369.669 8.582 367.136 8.582 364.642 8.139 362.264 7.267 360.075 5.992 358.143 4.354 356.527 2.403 355.277 0.2 351.527 0.2 351.527 17.075 350.942 17.075 350.942 52.348 356.567 52.348 356.567 92.221 356.567 155.825" style="fill:#e1e5e5;stroke:#231f20;stroke-miterlimit:10;stroke-width:0.4px"/></g><polygon points="299.979 346.723 299.979 339.341 298.5 339.341 298.5 365.473 214.066 365.473 214.066 203.872 237.503 203.872 237.503 197.075 211.02 197.075 211.02 192.505 205.278 192.505 205.278 196.255 128.284 196.255 128.284 207.27 131.8 207.27 131.8 199.77 201.175 199.77 201.175 336.645 131.8 336.645 131.8 241.02 128.284 241.02 128.261 244.302 64.769 244.302 64.769 240.552 61.253 240.552 61.253 244.302 3.129 244.302 3.129 188.52 61.253 188.52 61.253 206.802 64.769 206.802 64.769 43.091 92.778 43.091 92.778 0.2 89.028 0.2 87.778 2.403 86.162 4.354 84.23 5.992 82.041 7.266 79.663 8.139 77.169 8.582 74.636 8.582 72.142 8.139 69.764 7.266 67.575 5.992 65.643 4.354 64.027 2.403 62.778 0.2 61.898 0.2 61.898 185.649 0.2 185.649 0.2 247.7 128.402 247.7 128.402 341.45 185.355 341.45 185.355 367.589 185.355 370.278 213.597 370.278 304.653 370.278 304.653 355.278 305.473 355.278 305.473 352.466 319.418 352.466 319.418 346.723 299.979 346.723" style="fill:#e1e5e5;stroke:#231f20;stroke-miterlimit:10;stroke-width:0.4px"/><path d="M98.49,97.994h.879l1.815,4.446h.016l1.815-4.446h.88v5.6h-.664V99.049h-.016l-1.887,4.542h-.28l-1.887-4.542h-.016v4.542H98.49Z" style="fill:#231f20"/><path d="M108.833,102.463h-2.519l-.391,1.128h-.68l2.015-5.6h.639l2.007,5.6h-.679Zm-.2-.575-1.047-2.99h-.016l-1.048,2.99Z" style="fill:#231f20"/><path d="M110.792,101.736l.656-.112a1.463,1.463,0,0,0,1.654,1.463c.776,0,1.288-.36,1.288-.9,0-.568-.376-.88-1.543-1.248-1.335-.439-1.783-.831-1.783-1.583,0-.871.735-1.479,1.791-1.479a1.955,1.955,0,0,1,2.031,1.631l-.648.136a1.342,1.342,0,0,0-1.391-1.143c-.68,0-1.127.336-1.127.855,0,.432.319.664,1.343.984,1.455.471,1.983.959,1.983,1.839,0,.911-.792,1.535-1.951,1.535A2.054,2.054,0,0,1,110.792,101.736Z" style="fill:#231f20"/><path d="M117.831,98.618h-1.743v-.624h4.15v.624h-1.744v4.973h-.663Z" style="fill:#231f20"/><path d="M121.709,97.994h3.359v.624h-2.7v1.791h2.479V101h-2.479v1.966h2.7v.624h-3.359Z" style="fill:#231f20"/><path d="M129.163,101.288l1.231,2.3h-.775l-1.184-2.271h-1.119v2.271h-.655v-5.6H128.7c1.167,0,1.862.624,1.862,1.655a1.544,1.544,0,0,1-1.4,1.623Zm-.52-.592c.824,0,1.256-.359,1.256-1.047s-.424-1.031-1.256-1.031h-1.327V100.7Z" style="fill:#231f20"/><path d="M95.975,106.494h2.151a1.457,1.457,0,0,1,1.631,1.447,1.194,1.194,0,0,1-.656,1.151v.017a1.34,1.34,0,0,1,.864,1.327c0,1.079-.68,1.655-1.967,1.655H95.975Zm2.031,2.375c.728,0,1.088-.3,1.088-.9,0-.559-.369-.855-1.088-.855H96.631v1.751Zm-.1,2.6c.976,0,1.391-.312,1.391-1.031,0-.7-.391-.984-1.375-.984h-1.3v2.015Z" style="fill:#231f20"/><path d="M101.6,106.494h3.358v.624h-2.7v1.791h2.478v.592h-2.478v1.966h2.7v.624H101.6Z" style="fill:#231f20"/><path d="M106.55,106.494h1.743c1.415,0,2.415,1.023,2.415,2.79,0,1.975-1,2.807-2.463,2.807h-1.7Zm1.655,4.973c1.136,0,1.839-.6,1.839-2.183,0-1.431-.7-2.166-1.791-2.166h-1.047v4.349Z" style="fill:#231f20"/><path d="M114.841,109.788l1.231,2.3H115.3l-1.183-2.271h-1.119v2.271h-.656v-5.6h2.039c1.167,0,1.863.624,1.863,1.655a1.544,1.544,0,0,1-1.4,1.623Zm-.52-.592c.823,0,1.255-.359,1.255-1.047s-.424-1.031-1.255-1.031h-1.327V109.2Z" style="fill:#231f20"/><path d="M117.5,109.293c0-1.751.944-2.919,2.359-2.919s2.359,1.168,2.359,2.919-.944,2.918-2.359,2.918S117.5,111.044,117.5,109.293Zm4.054,0c0-1.416-.647-2.3-1.7-2.3s-1.695.879-1.695,2.3.647,2.294,1.695,2.294S121.557,110.708,121.557,109.293Z" style="fill:#231f20"/><path d="M123.564,109.293c0-1.751.943-2.919,2.359-2.919s2.358,1.168,2.358,2.919-.943,2.918-2.358,2.918S123.564,111.044,123.564,109.293Zm4.054,0c0-1.416-.648-2.3-1.695-2.3s-1.7.879-1.7,2.3.648,2.294,1.7,2.294S127.618,110.708,127.618,109.293Z" style="fill:#231f20"/><path d="M129.911,106.494h.88l1.815,4.446h.016l1.815-4.446h.88v5.6h-.664v-4.542h-.016l-1.887,4.542h-.28l-1.887-4.542h-.016v4.542h-.656Z" style="fill:#231f20"/><path d="M89.547,115.746l-1.248.807v-.695l1.327-.864h.584v5.6h-.663Z" style="fill:#231f20"/><path d="M92.672,119.967h3.014v.624H91.969v-.528A2.009,2.009,0,0,1,92.2,119c.2-.368.543-.64,1.422-1.1,1.16-.6,1.5-.935,1.5-1.495,0-.535-.488-.911-1.167-.911a1.3,1.3,0,0,0-1.4,1.359l-.663-.056a1.927,1.927,0,0,1,2.063-1.927,1.68,1.68,0,0,1,1.831,1.535c0,.824-.416,1.311-1.648,1.935-.935.472-1.191.656-1.335.936A1.554,1.554,0,0,0,92.672,119.967Z" style="fill:#231f20"/><path d="M97.509,114.994h.584v1.783h-.584Z" style="fill:#231f20"/><path d="M99.229,117.4h2.087v.6H99.229Z" style="fill:#231f20"/><path d="M102.589,119.112l.647-.16a1.413,1.413,0,1,0,1.432-1.583,1.808,1.808,0,0,0-1.352.592l-.583-.144.535-2.823H106.2v.624h-2.431l-.3,1.551.016.008a2.088,2.088,0,0,1,1.287-.384,1.879,1.879,0,0,1,1.944,1.927,1.93,1.93,0,0,1-2.047,1.991A1.957,1.957,0,0,1,102.589,119.112Z" style="fill:#231f20"/><path d="M107.968,114.994h.584v1.783h-.584Zm1.056,0h.583v1.783h-.583Z" style="fill:#231f20"/><path d="M113.305,119.152l1.311-1.3-1.311-1.3.391-.391,1.288,1.311,1.3-1.311.392.391-1.312,1.3,1.312,1.3-.392.392-1.3-1.312-1.288,1.312Z" style="fill:#231f20"/><path d="M120.848,115.746l-1.248.807v-.695l1.328-.864h.584v5.6h-.664Z" style="fill:#231f20"/><path d="M123.107,119.112l.648-.16a1.413,1.413,0,1,0,1.431-1.583,1.805,1.805,0,0,0-1.351.592l-.584-.144.536-2.823h2.935v.624h-2.431l-.3,1.551.016.008a2.086,2.086,0,0,1,1.287-.384,1.878,1.878,0,0,1,1.943,1.927,1.929,1.929,0,0,1-2.047,1.991A1.957,1.957,0,0,1,123.107,119.112Z" style="fill:#231f20"/><path d="M128.487,114.994h.584v1.783h-.584Z" style="fill:#231f20"/><path d="M130.485,117.4h2.087v.6h-2.087Z" style="fill:#231f20"/><path d="M134.835,115.746l-1.248.807v-.695l1.327-.864h.584v5.6h-.663Z" style="fill:#231f20"/><path d="M138.272,115.746l-1.247.807v-.695l1.327-.864h.584v5.6h-.664Z" style="fill:#231f20"/><path d="M140.9,114.994h.583v1.783H140.9Zm1.055,0h.584v1.783h-.584Z" style="fill:#231f20"/><path d="M428.072,123.7h2.151a1.457,1.457,0,0,1,1.631,1.447,1.2,1.2,0,0,1-.655,1.152v.016a1.34,1.34,0,0,1,.863,1.327c0,1.079-.68,1.655-1.967,1.655h-2.023Zm2.031,2.375c.727,0,1.088-.3,1.088-.9,0-.559-.368-.855-1.088-.855h-1.375v1.751Zm-.1,2.6c.976,0,1.391-.312,1.391-1.032,0-.7-.392-.984-1.375-.984h-1.3v2.016Z" style="fill:#231f20"/><path d="M433.7,123.7h3.358v.624h-2.7v1.791h2.478v.592h-2.478v1.967h2.7v.623H433.7Z" style="fill:#231f20"/><path d="M438.647,123.7h1.743c1.415,0,2.415,1.023,2.415,2.79,0,1.976-1,2.807-2.463,2.807h-1.695Zm1.655,4.974c1.136,0,1.839-.6,1.839-2.184,0-1.431-.7-2.166-1.791-2.166H439.3v4.35Z" style="fill:#231f20"/><path d="M446.938,126.99l1.23,2.3h-.775l-1.183-2.271h-1.12v2.271h-.655v-5.6h2.039c1.167,0,1.862.624,1.862,1.655a1.543,1.543,0,0,1-1.4,1.623Zm-.521-.591c.825,0,1.256-.36,1.256-1.048s-.424-1.031-1.256-1.031H445.09V126.4Z" style="fill:#231f20"/><path d="M449.6,126.5c0-1.751.943-2.919,2.359-2.919s2.359,1.168,2.359,2.919-.944,2.918-2.359,2.918S449.6,128.246,449.6,126.5Zm4.054,0c0-1.416-.648-2.3-1.695-2.3s-1.695.879-1.695,2.3.647,2.294,1.695,2.294S453.654,127.91,453.654,126.5Z" style="fill:#231f20"/><path d="M455.661,126.5c0-1.751.943-2.919,2.359-2.919s2.358,1.168,2.358,2.919-.943,2.918-2.358,2.918S455.661,128.246,455.661,126.5Zm4.053,0c0-1.416-.647-2.3-1.694-2.3s-1.695.879-1.695,2.3.647,2.294,1.695,2.294S459.714,127.91,459.714,126.5Z" style="fill:#231f20"/><path d="M462.008,123.7h.88l1.815,4.446h.016l1.816-4.446h.878v5.6h-.663v-4.541h-.016l-1.887,4.541h-.28l-1.887-4.541h-.016v4.541h-.656Z" style="fill:#231f20"/><path d="M472.448,128.67h3.014v.623h-3.718v-.528a2.018,2.018,0,0,1,.232-1.063c.2-.368.544-.64,1.423-1.095,1.16-.6,1.5-.936,1.5-1.5,0-.535-.488-.911-1.168-.911a1.3,1.3,0,0,0-1.4,1.359l-.663-.056a1.928,1.928,0,0,1,2.063-1.927,1.68,1.68,0,0,1,1.831,1.535c0,.824-.416,1.311-1.647,1.935-.935.472-1.191.656-1.335.936A1.531,1.531,0,0,0,472.448,128.67Z" style="fill:#231f20"/><path d="M427.731,132.948l-1.248.807v-.695l1.327-.864h.584v5.6h-.663Z" style="fill:#231f20"/><path d="M431.168,132.948l-1.248.807v-.695l1.327-.864h.584v5.6h-.663Z" style="fill:#231f20"/><path d="M433.792,132.2h.584v1.783h-.584Z" style="fill:#231f20"/><path d="M435.512,134.6H437.6v.6h-2.087Z" style="fill:#231f20"/><path d="M439.863,132.948l-1.248.807v-.695l1.327-.864h.584v5.6h-.663Z" style="fill:#231f20"/><path d="M442.489,132.2h.584v1.783h-.584Zm1.055,0h.584v1.783h-.584Z" style="fill:#231f20"/><path d="M447.826,136.354l1.31-1.3-1.31-1.3.391-.391,1.287,1.311,1.295-1.311.393.391-1.312,1.3,1.312,1.3-.393.392-1.295-1.312-1.287,1.312Z" style="fill:#231f20"/><path d="M455.369,132.948l-1.248.807v-.695l1.328-.864h.584v5.6h-.664Z" style="fill:#231f20"/><path d="M458.494,137.17h3.014v.623H457.79v-.528a2.018,2.018,0,0,1,.233-1.063c.2-.368.543-.64,1.423-1.095,1.159-.6,1.495-.936,1.495-1.5,0-.535-.488-.911-1.167-.911a1.3,1.3,0,0,0-1.4,1.359L457.71,134a1.929,1.929,0,0,1,2.064-1.927,1.68,1.68,0,0,1,1.831,1.535c0,.824-.416,1.311-1.648,1.935-.935.472-1.191.656-1.335.936A1.559,1.559,0,0,0,458.494,137.17Z" style="fill:#231f20"/><path d="M463.331,132.2h.584v1.783h-.584Z" style="fill:#231f20"/><path d="M465.328,134.6h2.087v.6h-2.087Z" style="fill:#231f20"/><path d="M468.862,135c0-1.815.9-2.919,2.215-2.919s2.214,1.1,2.214,2.919-.9,2.918-2.214,2.918C469.782,137.913,468.862,136.81,468.862,135Zm3.766,0c0-1.464-.616-2.3-1.551-2.3s-1.551.831-1.551,2.3.615,2.294,1.551,2.294S472.628,136.458,472.628,135Z" style="fill:#231f20"/><path d="M474.814,132.2h.584v1.783h-.584Zm1.055,0h.583v1.783h-.583Z" style="fill:#231f20"/><path d="M246.561,125.987h.656v4.974h2.527v.624h-3.183Z" style="fill:#231f20"/><path d="M251.215,125.987h.655v5.6h-.655Z" style="fill:#231f20"/><path d="M253.205,125.987h.7l1.663,4.718h.016l1.671-4.718h.688l-2.015,5.6h-.7Z" style="fill:#231f20"/><path d="M259.286,125.987h.657v5.6h-.657Z" style="fill:#231f20"/><path d="M261.854,125.987h.775l2.543,4.566h.016v-4.566h.664v5.6h-.784l-2.542-4.566h-.017v4.566h-.655Z" style="fill:#231f20"/><path d="M267.482,128.786c0-1.775.928-2.918,2.358-2.918a2.075,2.075,0,0,1,2.127,1.847l-.655.12a1.431,1.431,0,0,0-1.472-1.344c-1.047,0-1.694.88-1.694,2.3s.647,2.295,1.694,2.295a1.427,1.427,0,0,0,1.5-1.639h-1.424v-.624h2.072v.568a2.087,2.087,0,0,1-2.144,2.319C268.41,131.705,267.482,130.561,267.482,128.786Z" style="fill:#231f20"/><path d="M275.594,131.705l2.855-6.037.448.2-2.862,6.02Z" style="fill:#231f20"/><path d="M282.833,125.987h1.744c1.415,0,2.415,1.024,2.415,2.791,0,1.975-1,2.807-2.463,2.807h-1.7Zm1.656,4.974c1.135,0,1.838-.6,1.838-2.183,0-1.431-.7-2.167-1.791-2.167H283.49v4.35Z" style="fill:#231f20"/><path d="M288.631,125.987h.655v5.6h-.655Z" style="fill:#231f20"/><path d="M291.2,125.987h.775l2.543,4.566h.016v-4.566h.664v5.6h-.785l-2.542-4.566h-.016v4.566H291.2Z" style="fill:#231f20"/><path d="M297.12,125.987h.657v5.6h-.657Z" style="fill:#231f20"/><path d="M299.688,125.987h.775l2.543,4.566h.016v-4.566h.664v5.6H302.9l-2.542-4.566h-.017v4.566h-.655Z" style="fill:#231f20"/><path d="M305.316,128.786c0-1.775.928-2.918,2.358-2.918a2.075,2.075,0,0,1,2.127,1.847l-.655.12a1.431,1.431,0,0,0-1.472-1.344c-1.047,0-1.694.88-1.694,2.3s.647,2.295,1.694,2.295a1.427,1.427,0,0,0,1.5-1.639h-1.424v-.624h2.072v.568a2.087,2.087,0,0,1-2.144,2.319C306.244,131.705,305.316,130.561,305.316,128.786Z" style="fill:#231f20"/><path d="M316.491,129.282l1.231,2.3h-.775l-1.184-2.271h-1.119v2.271h-.656v-5.6h2.039c1.168,0,1.863.624,1.863,1.656a1.546,1.546,0,0,1-1.4,1.623Zm-.52-.592c.823,0,1.255-.36,1.255-1.047s-.424-1.032-1.255-1.032h-1.327v2.079Z" style="fill:#231f20"/><path d="M319.153,128.786c0-1.751.943-2.918,2.358-2.918s2.359,1.167,2.359,2.918-.943,2.919-2.359,2.919S319.153,130.537,319.153,128.786Zm4.053,0c0-1.415-.647-2.3-1.695-2.3s-1.694.88-1.694,2.3.647,2.295,1.694,2.295S323.206,130.2,323.206,128.786Z" style="fill:#231f20"/><path d="M325.213,128.786c0-1.751.944-2.918,2.359-2.918s2.359,1.167,2.359,2.918-.943,2.919-2.359,2.919S325.213,130.537,325.213,128.786Zm4.054,0c0-1.415-.648-2.3-1.695-2.3s-1.695.88-1.695,2.3.648,2.295,1.695,2.295S329.267,130.2,329.267,128.786Z" style="fill:#231f20"/><path d="M331.561,125.987h.88l1.815,4.446h.016l1.814-4.446h.88v5.6H336.3v-4.542h-.017l-1.886,4.542h-.281l-1.886-4.542h-.016v4.542h-.656Z" style="fill:#231f20"/><path d="M265.91,135.239l-1.248.808v-.7l1.328-.864h.584v5.6h-.664Z" style="fill:#231f20"/><path d="M269.036,139.461h3.013v.624h-3.718v-.528a2.019,2.019,0,0,1,.233-1.064c.2-.367.543-.639,1.423-1.095,1.159-.6,1.5-.935,1.5-1.5,0-.536-.488-.912-1.167-.912a1.3,1.3,0,0,0-1.4,1.36l-.664-.056a1.928,1.928,0,0,1,2.064-1.927,1.68,1.68,0,0,1,1.831,1.535c0,.824-.416,1.311-1.648,1.935-.935.472-1.191.655-1.335.936A1.539,1.539,0,0,0,269.036,139.461Z" style="fill:#231f20"/><path d="M273.872,134.487h.583v1.784h-.583Z" style="fill:#231f20"/><path d="M275.592,136.894h2.087v.6h-2.087Z" style="fill:#231f20"/><path d="M279.943,135.239l-1.248.808v-.7l1.327-.864h.584v5.6h-.663Z" style="fill:#231f20"/><path d="M283.38,135.239l-1.248.808v-.7l1.327-.864h.584v5.6h-.663Z" style="fill:#231f20"/><path d="M286.006,134.487h.584v1.784h-.584Zm1.056,0h.584v1.784h-.584Z" style="fill:#231f20"/><path d="M291.343,138.646l1.311-1.3-1.311-1.295.392-.392,1.287,1.311,1.3-1.311.392.392L293.4,137.35l1.311,1.3-.392.391-1.3-1.311-1.287,1.311Z" style="fill:#231f20"/><path d="M298.886,135.239l-1.247.808v-.7l1.327-.864h.584v5.6h-.664Z" style="fill:#231f20"/><path d="M305.476,138.277a1.883,1.883,0,0,1-1.982,1.928c-1.463,0-2.3-1.1-2.3-2.831,0-1.759.983-3.006,2.319-3.006a1.809,1.809,0,0,1,1.87,1.5l-.623.152a1.186,1.186,0,0,0-1.231-1.04c-.92,0-1.6.872-1.656,2.223h.016a1.884,1.884,0,0,1,1.672-.839A1.863,1.863,0,0,1,305.476,138.277Zm-.648,0a1.275,1.275,0,0,0-1.342-1.343,1.324,1.324,0,0,0-1.408,1.343,1.309,1.309,0,0,0,1.416,1.32A1.275,1.275,0,0,0,304.828,138.277Z" style="fill:#231f20"/><path d="M307,134.487h.583v1.784H307Z" style="fill:#231f20"/><path d="M309,136.894h2.087v.6H309Z" style="fill:#231f20"/><path d="M314.4,135.127v-.016h-2.91v-.624h3.661v.577l-2.271,5.021h-.743Z" style="fill:#231f20"/><path d="M316.772,134.487h.583v1.784h-.583Zm1.055,0h.584v1.784h-.584Z" style="fill:#231f20"/><path d="M224.8,323.076l1.231,2.3h-.776l-1.183-2.271h-1.12v2.271H222.3v-5.6h2.039c1.167,0,1.863.624,1.863,1.656a1.546,1.546,0,0,1-1.4,1.623Zm-.52-.592c.824,0,1.255-.36,1.255-1.047s-.423-1.032-1.255-1.032h-1.328v2.079Z" style="fill:#231f20"/><path d="M282.135,276.075l.656-.112a1.465,1.465,0,0,0,1.655,1.463c.776,0,1.288-.359,1.288-.9,0-.568-.376-.879-1.544-1.247-1.335-.44-1.782-.832-1.782-1.584,0-.872.735-1.479,1.791-1.479a1.956,1.956,0,0,1,2.03,1.631l-.648.137a1.34,1.34,0,0,0-1.391-1.144c-.679,0-1.127.336-1.127.855,0,.432.32.664,1.344.984,1.455.472,1.982.959,1.982,1.839,0,.911-.792,1.535-1.951,1.535A2.054,2.054,0,0,1,282.135,276.075Z" style="fill:#231f20"/><path d="M287.474,275.132c0-1.751.943-2.919,2.358-2.919s2.359,1.168,2.359,2.919-.944,2.918-2.359,2.918S287.474,276.883,287.474,275.132Zm4.054,0c0-1.416-.648-2.3-1.7-2.3s-1.695.879-1.695,2.3.648,2.294,1.695,2.294S291.528,276.547,291.528,275.132Z" style="fill:#231f20"/><path d="M437,173.588h.68l.823,4.549h.017l1.383-4.549h.624l1.39,4.549h.017l.823-4.549h.68l-1.039,5.6h-.8l-1.375-4.494h-.017l-1.367,4.494h-.807Z" style="fill:#231f20"/><path d="M443.735,179.305l2.854-6.037.447.2-2.862,6.02Z" style="fill:#231f20"/><path d="M448.088,173.588h1.743c1.415,0,2.415,1.023,2.415,2.79,0,1.975-1,2.807-2.462,2.807h-1.7Zm1.656,4.973c1.135,0,1.838-.6,1.838-2.183,0-1.431-.7-2.166-1.791-2.166h-1.047v4.349Z" style="fill:#231f20"/><path d="M282.257,220.81H284c1.415,0,2.414,1.023,2.414,2.79,0,1.975-1,2.806-2.462,2.806h-1.695Zm1.655,4.973c1.135,0,1.839-.6,1.839-2.183,0-1.431-.7-2.166-1.791-2.166h-1.048v4.349Z" style="fill:#231f20"/><path d="M287.182,220.81h.68l.823,4.549h.017l1.382-4.549h.624l1.391,4.549h.017l.823-4.549h.68l-1.04,5.6h-.8l-1.375-4.493h-.017l-1.367,4.493h-.808Z" style="fill:#231f20"/><path d="M315.671,307.672h3.366v.624h-2.71v2h2.487v.592h-2.487v2.383h-.656Z" style="fill:#231f20"/><path d="M320.592,310.471c0-1.751.944-2.918,2.36-2.918s2.358,1.167,2.358,2.918-.943,2.919-2.358,2.919S320.592,312.222,320.592,310.471Zm4.054,0c0-1.415-.648-2.3-1.694-2.3s-1.7.88-1.7,2.3.648,2.3,1.7,2.3S324.646,311.886,324.646,310.471Z" style="fill:#231f20"/><path d="M328.3,310.935l-1.959-3.263h.768l1.511,2.615h.016l1.52-2.615h.767l-1.959,3.263v2.335H328.3Z" style="fill:#231f20"/><path d="M332.568,307.672h3.358v.624h-2.7v1.791H335.7v.592h-2.478v1.967h2.7v.624h-3.358Z" style="fill:#231f20"/><path d="M340.342,310.967l1.232,2.3H340.8L339.615,311H338.5v2.272h-.656v-5.6h2.039c1.168,0,1.864.624,1.864,1.655a1.544,1.544,0,0,1-1.4,1.623Zm-.519-.592c.823,0,1.254-.36,1.254-1.048s-.423-1.031-1.254-1.031H338.5v2.079Z" style="fill:#231f20"/><polygon points="329.904 367.782 335.304 353.382 340.704 367.782 329.904 367.782" style="fill:#231f20"/><rect x="215.502" y="242.728" width="20.045" height="28.123" rx="0.857" style="fill:none;stroke:#221f1f;stroke-linecap:round;stroke-linejoin:round;stroke-width:0.25px"/><path d="M224.115,244.694a.786.786,0,1,1-.786.786v-.011a.775.775,0,0,1,.775-.775Z" style="fill:none;stroke:#221f1f;stroke-linecap:round;stroke-linejoin:round;stroke-width:0.25px"/><path d="M226.934,244.694a.786.786,0,1,1-.787.786v-.011A.787.787,0,0,1,226.934,244.694Z" style="fill:none;stroke:#221f1f;stroke-linecap:round;stroke-linejoin:round;stroke-width:0.25px"/><path d="M232.57,244.694a.786.786,0,1,1-.774.8v-.022A.775.775,0,0,1,232.57,244.694Z" style="fill:none;stroke:#221f1f;stroke-linecap:round;stroke-linejoin:round;stroke-width:0.25px"/><path d="M229.746,244.694a.786.786,0,1,1-.774.8.081.081,0,0,1,0-.022A.774.774,0,0,1,229.746,244.694Z" style="fill:none;stroke:#221f1f;stroke-linecap:round;stroke-linejoin:round;stroke-width:0.25px"/><line x1="215.989" y1="264.956" x2="218.498" y2="264.956" style="fill:none;stroke:#211e1f;stroke-linecap:round;stroke-linejoin:round;stroke-width:0.25px"/><line x1="223.013" y1="264.956" x2="225.523" y2="264.956" style="fill:none;stroke:#211e1f;stroke-linecap:round;stroke-linejoin:round;stroke-width:0.25px"/><line x1="221.855" y1="262.87" x2="223.731" y2="259.562" style="fill:none;stroke:#211e1f;stroke-linecap:round;stroke-linejoin:round;stroke-width:0.25px"/><line x1="219.66" y1="262.87" x2="217.783" y2="259.562" style="fill:none;stroke:#211e1f;stroke-linecap:round;stroke-linejoin:round;stroke-width:0.25px"/><line x1="221.855" y1="266.961" x2="223.731" y2="270.27" style="fill:none;stroke:#211e1f;stroke-linecap:round;stroke-linejoin:round;stroke-width:0.25px"/><line x1="219.66" y1="266.961" x2="217.783" y2="270.27" style="fill:none;stroke:#211e1f;stroke-linecap:round;stroke-linejoin:round;stroke-width:0.25px"/><ellipse cx="220.757" cy="264.956" rx="0.846" ry="0.864" style="fill:none;stroke:#211e1f;stroke-linecap:round;stroke-linejoin:round;stroke-width:0.25px"/><line x1="225.524" y1="264.956" x2="228.034" y2="264.956" style="fill:none;stroke:#211e1f;stroke-linecap:round;stroke-linejoin:round;stroke-width:0.25px"/><line x1="232.549" y1="264.956" x2="235.059" y2="264.956" style="fill:none;stroke:#211e1f;stroke-linecap:round;stroke-linejoin:round;stroke-width:0.25px"/><line x1="231.39" y1="262.87" x2="233.267" y2="259.562" style="fill:none;stroke:#211e1f;stroke-linecap:round;stroke-linejoin:round;stroke-width:0.25px"/><line x1="229.195" y1="262.87" x2="227.318" y2="259.562" style="fill:none;stroke:#211e1f;stroke-linecap:round;stroke-linejoin:round;stroke-width:0.25px"/><line x1="231.39" y1="266.961" x2="233.267" y2="270.27" style="fill:none;stroke:#211e1f;stroke-linecap:round;stroke-linejoin:round;stroke-width:0.25px"/><line x1="229.195" y1="266.961" x2="227.318" y2="270.27" style="fill:none;stroke:#211e1f;stroke-linecap:round;stroke-linejoin:round;stroke-width:0.25px"/><ellipse cx="230.293" cy="264.956" rx="0.846" ry="0.864" style="fill:none;stroke:#211e1f;stroke-linecap:round;stroke-linejoin:round;stroke-width:0.25px"/><line x1="225.524" y1="253.393" x2="228.034" y2="253.393" style="fill:none;stroke:#211e1f;stroke-linecap:round;stroke-linejoin:round;stroke-width:0.25px"/><line x1="232.549" y1="253.393" x2="235.059" y2="253.393" style="fill:none;stroke:#211e1f;stroke-linecap:round;stroke-linejoin:round;stroke-width:0.25px"/><line x1="231.39" y1="251.306" x2="233.267" y2="247.998" style="fill:none;stroke:#211e1f;stroke-linecap:round;stroke-linejoin:round;stroke-width:0.25px"/><line x1="229.195" y1="251.306" x2="227.318" y2="247.998" style="fill:none;stroke:#211e1f;stroke-linecap:round;stroke-linejoin:round;stroke-width:0.25px"/><line x1="231.39" y1="255.398" x2="233.267" y2="258.706" style="fill:none;stroke:#211e1f;stroke-linecap:round;stroke-linejoin:round;stroke-width:0.25px"/><line x1="229.195" y1="255.398" x2="227.318" y2="258.706" style="fill:none;stroke:#211e1f;stroke-linecap:round;stroke-linejoin:round;stroke-width:0.25px"/><ellipse cx="230.293" cy="253.393" rx="0.846" ry="0.864" style="fill:none;stroke:#211e1f;stroke-linecap:round;stroke-linejoin:round;stroke-width:0.25px"/><line x1="215.99" y1="253.393" x2="218.499" y2="253.393" style="fill:none;stroke:#211e1f;stroke-linecap:round;stroke-linejoin:round;stroke-width:0.25px"/><line x1="223.015" y1="253.393" x2="225.524" y2="253.393" style="fill:none;stroke:#211e1f;stroke-linecap:round;stroke-linejoin:round;stroke-width:0.25px"/><line x1="221.856" y1="251.306" x2="223.732" y2="247.998" style="fill:none;stroke:#211e1f;stroke-linecap:round;stroke-linejoin:round;stroke-width:0.25px"/><line x1="219.661" y1="251.306" x2="217.784" y2="247.998" style="fill:none;stroke:#211e1f;stroke-linecap:round;stroke-linejoin:round;stroke-width:0.25px"/><line x1="221.856" y1="255.398" x2="223.732" y2="258.706" style="fill:none;stroke:#211e1f;stroke-linecap:round;stroke-linejoin:round;stroke-width:0.25px"/><line x1="219.661" y1="255.398" x2="217.784" y2="258.706" style="fill:none;stroke:#211e1f;stroke-linecap:round;stroke-linejoin:round;stroke-width:0.25px"/><ellipse cx="220.758" cy="253.393" rx="0.846" ry="0.864" style="fill:none;stroke:#211e1f;stroke-linecap:round;stroke-linejoin:round;stroke-width:0.25px"/><path d="M225.525,258.723V248.062a.063.063,0,0,0-.062-.064h-8.724a.758.758,0,0,0-.75.766v9.257a.758.758,0,0,0,.75.766h8.724a.063.063,0,0,0,.062-.064" style="fill:none;stroke:#211e1f;stroke-linecap:round;stroke-linejoin:round;stroke-width:0.25px"/><path d="M225.523,258.723V248.062a.064.064,0,0,1,.063-.064h8.724a.758.758,0,0,1,.75.766v9.257a.758.758,0,0,1-.75.766h-8.724a.063.063,0,0,1-.063-.064" style="fill:none;stroke:#211e1f;stroke-linecap:round;stroke-linejoin:round;stroke-width:0.25px"/><path d="M225.525,270.206V259.545a.063.063,0,0,0-.062-.064h-8.724a.758.758,0,0,0-.75.766V269.5a.758.758,0,0,0,.75.767h8.724a.063.063,0,0,0,.062-.064" style="fill:none;stroke:#211e1f;stroke-linecap:round;stroke-linejoin:round;stroke-width:0.25px"/><path d="M225.523,270.206V259.545a.063.063,0,0,1,.063-.064h8.724a.758.758,0,0,1,.75.766V269.5a.759.759,0,0,1-.75.767h-8.724a.064.064,0,0,1-.063-.064" style="fill:none;stroke:#211e1f;stroke-linecap:round;stroke-linejoin:round;stroke-width:0.25px"/></g></g></svg>