<svg xmlns="http://www.w3.org/2000/svg" viewBox="0 0 638.42 576.03"><defs><style>.cls-1,.cls-11,.cls-14,.cls-2,.cls-4{fill:#fff;}.cls-1,.cls-10,.cls-11,.cls-12,.cls-14,.cls-15,.cls-16,.cls-17,.cls-18,.cls-19,.cls-2,.cls-20,.cls-21,.cls-22,.cls-3,.cls-5,.cls-6,.cls-7{stroke:#231f20;}.cls-1,.cls-11,.cls-12,.cls-14,.cls-15,.cls-16,.cls-17,.cls-18,.cls-19,.cls-2,.cls-20,.cls-21,.cls-22,.cls-3,.cls-5,.cls-6{stroke-linecap:round;}.cls-1,.cls-11,.cls-12,.cls-14,.cls-15,.cls-16,.cls-17,.cls-18,.cls-19,.cls-2,.cls-20,.cls-21,.cls-22,.cls-3,.cls-5,.cls-6,.cls-9{stroke-linejoin:round;}.cls-1{stroke-width:0.15px;}.cls-13,.cls-2,.cls-3{stroke-width:0.15px;}.cls-10,.cls-12,.cls-13,.cls-15,.cls-16,.cls-17,.cls-18,.cls-19,.cls-20,.cls-21,.cls-22,.cls-3,.cls-5,.cls-6,.cls-9{fill:none;}.cls-5,.cls-7,.cls-9{stroke-width:0.4px;}.cls-10,.cls-14,.cls-15,.cls-16,.cls-17,.cls-18,.cls-19,.cls-20,.cls-21,.cls-22,.cls-6,.cls-8{stroke-width:0.25px;}.cls-7{fill:#e1e5e5;}.cls-10,.cls-13,.cls-7,.cls-8{stroke-miterlimit:10;}.cls-8{fill:#dbdecd;stroke:#fff;}.cls-9{stroke:#787a62;}.cls-11,.cls-12{stroke-width:0.2px;}.cls-13{stroke:#a7a9ac;}.cls-15{stroke-dasharray:1.32 1.32;}.cls-16{stroke-dasharray:2 2;}.cls-17{stroke-dasharray:1.29 1.29;}.cls-18{stroke-dasharray:1.3 1.3;}.cls-19{stroke-dasharray:1.34 1.34;}.cls-20{stroke-dasharray:1.35 1.35;}.cls-21{stroke-dasharray:1.29 1.29;}.cls-22{stroke-dasharray:1.32 1.32;}.cls-23{fill:#231f20;}</style></defs><title>Asset 3</title><g id="Layer_2" data-name="Layer 2"><g id="Unit34A_Rest"><g id="LWPOLYLINE"><rect class="cls-1" x="526.59" y="43.04" width="103.97" height="102.24"/></g><g id="LWPOLYLINE-2" data-name="LWPOLYLINE"><rect class="cls-1" x="209.27" y="70.3" width="119.29" height="105.43"/></g><g id="LWPOLYLINE-3" data-name="LWPOLYLINE"><path class="cls-2" d="M168.33,201.46a10.77,10.77,0,0,1,1.17-1.17,12,12,0,0,1,16.89,1.17l-1.06.92v10.9H169.39v-10.9Z"/></g><g id="LWPOLYLINE-4" data-name="LWPOLYLINE"><path class="cls-2" d="M163.89,201.46A12,12,0,0,0,147,200.29a10.77,10.77,0,0,0-1.17,1.17l1.06.92v10.9h15.94v-10.9Z"/></g><g id="LWPOLYLINE-5" data-name="LWPOLYLINE"><rect class="cls-2" x="554.72" y="59.91" width="80.63" height="71.25"/></g><g id="LWPOLYLINE-6" data-name="LWPOLYLINE"><rect class="cls-2" x="619.41" y="133.16" width="15.94" height="20.16"/></g><g id="LWPOLYLINE-7" data-name="LWPOLYLINE"><rect class="cls-2" x="619.41" y="37.76" width="15.94" height="20.16"/></g><g id="LWPOLYLINE-8" data-name="LWPOLYLINE"><rect class="cls-2" x="495.45" y="62.73" width="15" height="65.63"/></g><g id="LWPOLYLINE-9" data-name="LWPOLYLINE"><rect class="cls-2" x="71.44" y="461.43" width="80.63" height="56.25"/></g><g id="LWPOLYLINE-10" data-name="LWPOLYLINE"><path class="cls-2" d="M159.57,466.12h-3.13a2.81,2.81,0,0,0-2.81,2.81v41.25a2.81,2.81,0,0,0,2.81,2.81h3.13a3.7,3.7,0,0,0,2.65-1.1l3.43-3.43a3.7,3.7,0,0,0,1.1-2.65V473.29a3.74,3.74,0,0,0-1.1-2.65l-3.43-3.43A3.74,3.74,0,0,0,159.57,466.12Z"/></g><g id="LWPOLYLINE-11" data-name="LWPOLYLINE"><polygon class="cls-2" points="228.21 116.08 198.21 115.14 198.21 88.42 228.21 87.48 228.21 116.08"/></g><g id="LWPOLYLINE-12" data-name="LWPOLYLINE"><polygon class="cls-2" points="228.21 124.75 198.21 125.68 198.21 152.4 228.21 153.34 228.21 124.75"/></g><g id="LWPOLYLINE-13" data-name="LWPOLYLINE"><rect class="cls-2" x="252.35" y="96.12" width="45.4" height="40.02"/></g><g id="LWPOLYLINE-14" data-name="LWPOLYLINE"><rect class="cls-2" x="232.87" y="48.17" width="84.38" height="33.75"/></g><g id="LWPOLYLINE-15" data-name="LWPOLYLINE"><rect class="cls-2" x="204.91" y="56.83" width="20.2" height="19.03"/></g><g id="LWPOLYLINE-16" data-name="LWPOLYLINE"><path class="cls-2" d="M250.41,166.2H300.1a1.87,1.87,0,0,1,1.87,1.87V181.2a1.87,1.87,0,0,1-1.87,1.87H250.41a1.88,1.88,0,0,1-1.87-1.87V168.08A1.88,1.88,0,0,1,250.41,166.2Z"/></g><g id="LWPOLYLINE-17" data-name="LWPOLYLINE"><rect class="cls-2" x="203.37" y="460.15" width="15" height="56.25"/></g><g id="LWPOLYLINE-18" data-name="LWPOLYLINE"><path class="cls-2" d="M302.14,236.55l-16.07,7.68,2.76,5.12a3.77,3.77,0,0,0,4.92,1.6l8.79-4.2a3.75,3.75,0,0,0,1.84-4.83Z"/></g><g id="LWPOLYLINE-19" data-name="LWPOLYLINE"><path class="cls-2" d="M279.27,245H261.46l.29,5.81a3.75,3.75,0,0,0,3.75,3.56h9.74a3.75,3.75,0,0,0,3.74-3.56Z"/></g><g id="LWPOLYLINE-20" data-name="LWPOLYLINE"><path class="cls-2" d="M238.59,236.55l16.07,7.68-2.76,5.12A3.76,3.76,0,0,1,247,251l-8.79-4.2a3.75,3.75,0,0,1-1.84-4.83Z"/></g><g id="LWPOLYLINE-21" data-name="LWPOLYLINE"><path class="cls-2" d="M302.14,221.41l-16.07-7.67,2.76-5.12a3.76,3.76,0,0,1,4.92-1.6l8.79,4.19a3.75,3.75,0,0,1,1.84,4.83Z"/></g><g id="LWPOLYLINE-22" data-name="LWPOLYLINE"><path class="cls-2" d="M279.27,213H261.46l.29-5.82a3.76,3.76,0,0,1,3.75-3.56h9.74a3.75,3.75,0,0,1,3.74,3.56Z"/></g><g id="LWPOLYLINE-23" data-name="LWPOLYLINE"><path class="cls-2" d="M238.59,221.41l16.07-7.67-2.76-5.12A3.75,3.75,0,0,0,247,207l-8.79,4.19a3.75,3.75,0,0,0-1.84,4.83Z"/></g><g id="LWPOLYLINE-24" data-name="LWPOLYLINE"><rect class="cls-2" x="62.86" y="89.39" width="23.67" height="37.52"/></g><g id="LWPOLYLINE-25" data-name="LWPOLYLINE"><path class="cls-2" d="M106.7,100.72a139.45,139.45,0,0,1,0-23.3.85.85,0,0,1,.83-.71h.8a.42.42,0,0,1-.43-.42V74.81a.42.42,0,0,1,.43-.42h27.28a.42.42,0,0,1,.42.42V104a.42.42,0,0,1-.42.42H108.33a.42.42,0,0,1-.43-.42v-2.11a.42.42,0,0,1,.43-.42h-.8A.86.86,0,0,1,106.7,100.72Z"/></g><g id="LWPOLYLINE-26" data-name="LWPOLYLINE"><path class="cls-2" d="M106.7,119.31a139.45,139.45,0,0,0,0,23.3.85.85,0,0,0,.83.71h.8a.42.42,0,0,0-.43.42v1.48a.42.42,0,0,0,.43.42h27.28a.42.42,0,0,0,.42-.42V116.06a.42.42,0,0,0-.42-.42H108.33a.42.42,0,0,0-.43.42v2.11a.42.42,0,0,0,.43.42h-.8A.86.86,0,0,0,106.7,119.31Z"/></g><g id="LINE"><line class="cls-3" x1="557.53" y1="59.71" x2="557.53" y2="130.96"/></g><g id="LINE-2" data-name="LINE"><line class="cls-3" x1="149.76" y1="461.43" x2="149.76" y2="517.68"/></g><g id="LWPOLYLINE-27" data-name="LWPOLYLINE"><rect class="cls-2" x="71.32" y="520.95" width="15.94" height="15.9"/></g><g id="LWPOLYLINE-28" data-name="LWPOLYLINE"><rect class="cls-2" x="71.32" y="442.26" width="15.94" height="15.9"/></g><rect class="cls-4" x="240.43" y="437.78" width="25.31" height="27.89"/><g id="LWPOLYLINE-29" data-name="LWPOLYLINE"><line class="cls-3" x1="171.24" y1="200.7" x2="171.24" y2="213.28"/></g><g id="LWPOLYLINE-30" data-name="LWPOLYLINE"><line class="cls-3" x1="183.48" y1="200.7" x2="183.48" y2="213.28"/></g><g id="LWPOLYLINE-31" data-name="LWPOLYLINE"><path class="cls-3" d="M185.33,202.38a10.57,10.57,0,0,0-14.91-1,11.13,11.13,0,0,0-1,1"/></g><g id="LWPOLYLINE-32" data-name="LWPOLYLINE"><line class="cls-3" x1="160.98" y1="200.7" x2="160.98" y2="213.28"/></g><g id="LWPOLYLINE-33" data-name="LWPOLYLINE"><line class="cls-3" x1="148.74" y1="200.7" x2="148.74" y2="213.28"/></g><g id="LWPOLYLINE-34" data-name="LWPOLYLINE"><path class="cls-3" d="M146.89,202.38a11.13,11.13,0,0,1,1-1,10.57,10.57,0,0,1,14.91,1"/></g><g id="LWPOLYLINE-35" data-name="LWPOLYLINE"><rect class="cls-3" x="615.31" y="96.81" width="14.68" height="31.81"/></g><g id="LINE-3" data-name="LINE"><line class="cls-3" x1="632.53" y1="59.91" x2="632.53" y2="131.16"/></g><g id="LWPOLYLINE-36" data-name="LWPOLYLINE"><rect class="cls-3" x="615.31" y="62.45" width="14.68" height="31.81"/></g><g id="LINE-4" data-name="LINE"><line class="cls-3" x1="74.26" y1="517.68" x2="74.26" y2="461.43"/></g><g id="LWPOLYLINE-37" data-name="LWPOLYLINE"><rect class="cls-3" x="76.8" y="463.97" width="14.68" height="24.31"/></g><g id="LWPOLYLINE-38" data-name="LWPOLYLINE"><rect class="cls-3" x="76.8" y="490.83" width="14.68" height="24.31"/></g><g id="LINE-6" data-name="LINE"><line class="cls-3" x1="228.2" y1="112.09" x2="198.2" y2="111.16"/></g><g id="LINE-7" data-name="LINE"><line class="cls-3" x1="202.42" y1="111.28" x2="202.42" y2="92.28"/></g><g id="LINE-8" data-name="LINE"><line class="cls-3" x1="198.2" y1="92.41" x2="228.2" y2="91.47"/></g><g id="LINE-9" data-name="LINE"><line class="cls-3" x1="228.2" y1="128.73" x2="198.2" y2="129.67"/></g><g id="LINE-10" data-name="LINE"><line class="cls-3" x1="202.42" y1="129.54" x2="202.42" y2="148.54"/></g><g id="LINE-11" data-name="LINE"><line class="cls-3" x1="198.2" y1="148.41" x2="228.2" y2="149.35"/></g><g id="LINE-12" data-name="LINE"><line class="cls-3" x1="287.55" y1="52.86" x2="287.55" y2="80.94"/></g><g id="LWPOLYLINE-39" data-name="LWPOLYLINE"><polyline class="cls-3" points="237.55 81.92 237.55 52.86 312.55 52.86 312.55 81.92"/></g><g id="ARC"><path class="cls-3" d="M311.62,57.35a59.62,59.62,0,0,1-23.13,0"/></g><g id="ARC-2" data-name="ARC"><path class="cls-3" d="M288.49,57.35a1.23,1.23,0,0,1-.94-1"/></g><g id="ARC-3" data-name="ARC"><path class="cls-3" d="M312.55,56.37a1.21,1.21,0,0,1-.93,1"/></g><g id="ARC-4" data-name="ARC"><path class="cls-3" d="M287.55,56.37a1.21,1.21,0,0,1-.93,1"/></g><g id="ARC-5" data-name="ARC"><path class="cls-3" d="M238.49,57.35a1.23,1.23,0,0,1-.94-1"/></g><g id="ARC-6" data-name="ARC"><path class="cls-3" d="M288.49,81.92a1.24,1.24,0,0,1-.94-1"/></g><g id="ARC-7" data-name="ARC"><path class="cls-3" d="M287.55,80.94a1.22,1.22,0,0,1-.93,1"/></g><g id="ARC-8" data-name="ARC"><path class="cls-3" d="M312.55,80.94a1.22,1.22,0,0,1-.93,1"/></g><g id="ARC-9" data-name="ARC"><path class="cls-3" d="M238.49,81.92a1.24,1.24,0,0,1-.94-1"/></g><g id="LINE-13" data-name="LINE"><line class="cls-3" x1="262.55" y1="52.86" x2="262.55" y2="80.94"/></g><g id="ARC-10" data-name="ARC"><path class="cls-3" d="M261.62,57.35a59.62,59.62,0,0,1-23.13,0"/></g><g id="ARC-11" data-name="ARC"><path class="cls-3" d="M262.55,56.37a1.21,1.21,0,0,1-.93,1"/></g><g id="ARC-12" data-name="ARC"><path class="cls-3" d="M263.49,57.35a1.23,1.23,0,0,1-.94-1"/></g><g id="ARC-13" data-name="ARC"><path class="cls-3" d="M262.55,80.94a1.22,1.22,0,0,1-.93,1"/></g><g id="ARC-14" data-name="ARC"><path class="cls-3" d="M263.49,81.92a1.24,1.24,0,0,1-.94-1"/></g><g id="ARC-15" data-name="ARC"><path class="cls-3" d="M286.62,57.35a59.62,59.62,0,0,1-23.13,0"/></g><g id="CIRCLE"><path class="cls-3" d="M270.57,178.86a.47.47,0,1,1,.47.47.47.47,0,0,1-.47-.47Z"/></g><g id="CIRCLE-2" data-name="CIRCLE"><path class="cls-3" d="M270.57,170.42a.47.47,0,1,1,.47.47.47.47,0,0,1-.47-.47Z"/></g><g id="CIRCLE-3" data-name="CIRCLE"><path class="cls-3" d="M279,178.86a.47.47,0,1,1,.47.47.47.47,0,0,1-.47-.47Z"/></g><g id="CIRCLE-4" data-name="CIRCLE"><path class="cls-3" d="M279,170.42a.47.47,0,1,1,.47.47.47.47,0,0,1-.47-.47Z"/></g><g id="CIRCLE-5" data-name="CIRCLE"><path class="cls-3" d="M287.44,178.86a.47.47,0,1,1,.47.47.47.47,0,0,1-.47-.47Z"/></g><g id="CIRCLE-6" data-name="CIRCLE"><path class="cls-3" d="M287.44,170.42a.47.47,0,1,1,.47.47.47.47,0,0,1-.47-.47Z"/></g><g id="CIRCLE-7" data-name="CIRCLE"><path class="cls-3" d="M295.88,178.86a.47.47,0,1,1,.47.47.47.47,0,0,1-.47-.47Z"/></g><g id="CIRCLE-8" data-name="CIRCLE"><path class="cls-3" d="M295.88,170.42a.47.47,0,1,1,.47.47.47.47,0,0,1-.47-.47Z"/></g><g id="CIRCLE-9" data-name="CIRCLE"><path class="cls-3" d="M262.13,178.86a.47.47,0,1,1,.47.47.47.47,0,0,1-.47-.47Z"/></g><g id="CIRCLE-10" data-name="CIRCLE"><path class="cls-3" d="M262.13,170.42a.47.47,0,1,1,.47.47.47.47,0,0,1-.47-.47Z"/></g><g id="CIRCLE-11" data-name="CIRCLE"><path class="cls-3" d="M253.69,178.86a.47.47,0,1,1,.47.47.47.47,0,0,1-.47-.47Z"/></g><g id="CIRCLE-12" data-name="CIRCLE"><path class="cls-3" d="M253.69,170.42a.47.47,0,1,1,.47.47.47.47,0,0,1-.47-.47Z"/></g><g id="LWPOLYLINE-40" data-name="LWPOLYLINE"><path class="cls-3" d="M287.34,243.62l2.73,5.06a2.34,2.34,0,0,0,3.07,1l8.79-4.2a2.35,2.35,0,0,0,1.16-3l-2.22-5.3"/></g><g id="LWPOLYLINE-41" data-name="LWPOLYLINE"><path class="cls-3" d="M262.87,245l.28,5.74A2.36,2.36,0,0,0,265.5,253h9.74a2.35,2.35,0,0,0,2.34-2.23l.28-5.74"/></g><g id="LWPOLYLINE-42" data-name="LWPOLYLINE"><path class="cls-3" d="M253.39,243.62l-2.73,5.06a2.34,2.34,0,0,1-3.07,1l-8.79-4.2a2.34,2.34,0,0,1-1.15-3l2.21-5.3"/></g><g id="LWPOLYLINE-43" data-name="LWPOLYLINE"><path class="cls-3" d="M287.34,214.34l2.73-5.05a2.34,2.34,0,0,1,3.07-1l8.79,4.19a2.35,2.35,0,0,1,1.16,3l-2.22,5.31"/></g><g id="LWPOLYLINE-44" data-name="LWPOLYLINE"><path class="cls-3" d="M262.87,213l.28-5.75A2.36,2.36,0,0,1,265.5,205h9.74a2.35,2.35,0,0,1,2.34,2.22l.28,5.75"/></g><g id="LWPOLYLINE-45" data-name="LWPOLYLINE"><path class="cls-3" d="M253.39,214.34l-2.73-5.05a2.34,2.34,0,0,0-3.07-1l-8.79,4.19a2.34,2.34,0,0,0-1.15,3l2.21,5.31"/></g><g id="LINE-14" data-name="LINE"><line class="cls-3" x1="136.03" y1="101.44" x2="108.33" y2="101.44"/></g><g id="LINE-15" data-name="LINE"><line class="cls-3" x1="107.9" y1="76.71" x2="136.03" y2="76.71"/></g><g id="ARC-16" data-name="ARC"><path class="cls-3" d="M131,101.44a82,82,0,0,1,0-24.73"/></g><g id="ARC-17" data-name="ARC"><path class="cls-3" d="M134.34,101.44a208.2,208.2,0,0,1,0-24.73"/></g><g id="LINE-16" data-name="LINE"><line class="cls-3" x1="136.03" y1="118.59" x2="108.33" y2="118.59"/></g><g id="LINE-17" data-name="LINE"><line class="cls-3" x1="107.9" y1="143.32" x2="136.03" y2="143.32"/></g><g id="ARC-18" data-name="ARC"><path class="cls-3" d="M131,118.59a82,82,0,0,0,0,24.73"/></g><g id="ARC-19" data-name="ARC"><path class="cls-3" d="M134.34,118.59a208.2,208.2,0,0,0,0,24.73"/></g><g id="LINE-18" data-name="LINE"><line class="cls-3" x1="632.53" y1="59.91" x2="632.53" y2="131.16"/></g><g id="LINE-19" data-name="LINE"><line class="cls-3" x1="74.26" y1="517.68" x2="74.26" y2="461.43"/></g><g id="ARC-20" data-name="ARC"><path class="cls-3" d="M288.49,57.35a1.23,1.23,0,0,1-.94-1"/></g><g id="ARC-21" data-name="ARC"><path class="cls-3" d="M312.55,56.37a1.21,1.21,0,0,1-.93,1"/></g><g id="ARC-22" data-name="ARC"><path class="cls-3" d="M287.55,56.37a1.21,1.21,0,0,1-.93,1"/></g><g id="ARC-23" data-name="ARC"><path class="cls-3" d="M238.49,57.35a1.23,1.23,0,0,1-.94-1"/></g><g id="ARC-24" data-name="ARC"><path class="cls-3" d="M288.49,81.92a1.24,1.24,0,0,1-.94-1"/></g><g id="ARC-25" data-name="ARC"><path class="cls-3" d="M287.55,80.94a1.22,1.22,0,0,1-.93,1"/></g><g id="ARC-26" data-name="ARC"><path class="cls-3" d="M312.55,80.94a1.22,1.22,0,0,1-.93,1"/></g><g id="ARC-27" data-name="ARC"><path class="cls-3" d="M238.49,81.92a1.24,1.24,0,0,1-.94-1"/></g><g id="ARC-28" data-name="ARC"><path class="cls-3" d="M262.55,56.37a1.21,1.21,0,0,1-.93,1"/></g><g id="ARC-29" data-name="ARC"><path class="cls-3" d="M263.49,57.35a1.23,1.23,0,0,1-.94-1"/></g><g id="ARC-30" data-name="ARC"><path class="cls-3" d="M262.55,80.94a1.22,1.22,0,0,1-.93,1"/></g><g id="ARC-31" data-name="ARC"><path class="cls-3" d="M263.49,81.92a1.24,1.24,0,0,1-.94-1"/></g><g id="CIRCLE-13" data-name="CIRCLE"><path class="cls-3" d="M270.57,178.86a.47.47,0,1,1,.47.47.47.47,0,0,1-.47-.47Z"/></g><g id="CIRCLE-14" data-name="CIRCLE"><path class="cls-3" d="M270.57,170.42a.47.47,0,1,1,.47.47.47.47,0,0,1-.47-.47Z"/></g><g id="CIRCLE-15" data-name="CIRCLE"><path class="cls-3" d="M279,178.86a.47.47,0,1,1,.47.47.47.47,0,0,1-.47-.47Z"/></g><g id="CIRCLE-16" data-name="CIRCLE"><path class="cls-3" d="M279,170.42a.47.47,0,1,1,.47.47.47.47,0,0,1-.47-.47Z"/></g><g id="CIRCLE-17" data-name="CIRCLE"><path class="cls-3" d="M287.44,178.86a.47.47,0,1,1,.47.47.47.47,0,0,1-.47-.47Z"/></g><g id="CIRCLE-18" data-name="CIRCLE"><path class="cls-3" d="M287.44,170.42a.47.47,0,1,1,.47.47.47.47,0,0,1-.47-.47Z"/></g><g id="CIRCLE-19" data-name="CIRCLE"><path class="cls-3" d="M295.88,178.86a.47.47,0,1,1,.47.47.47.47,0,0,1-.47-.47Z"/></g><g id="CIRCLE-20" data-name="CIRCLE"><path class="cls-3" d="M295.88,170.42a.47.47,0,1,1,.47.47.47.47,0,0,1-.47-.47Z"/></g><g id="CIRCLE-21" data-name="CIRCLE"><path class="cls-3" d="M262.13,178.86a.47.47,0,1,1,.47.47.47.47,0,0,1-.47-.47Z"/></g><g id="CIRCLE-22" data-name="CIRCLE"><path class="cls-3" d="M262.13,170.42a.47.47,0,1,1,.47.47.47.47,0,0,1-.47-.47Z"/></g><g id="CIRCLE-23" data-name="CIRCLE"><path class="cls-3" d="M253.69,178.86a.47.47,0,1,1,.47.47.47.47,0,0,1-.47-.47Z"/></g><g id="CIRCLE-24" data-name="CIRCLE"><path class="cls-3" d="M253.69,170.42a.47.47,0,1,1,.47.47.47.47,0,0,1-.47-.47Z"/></g><g id="ELLIPSE"><path class="cls-2" d="M233.79,228.75c0,9.69,16.37,17.56,36.58,17.56S307,238.44,307,228.75s-16.38-17.57-36.58-17.57-36.58,7.87-36.58,17.57Z"/></g><g id="LWPOLYLINE-46" data-name="LWPOLYLINE"><rect class="cls-2" x="273.71" y="353.51" width="37.26" height="11.36"/></g><g id="LWPOLYLINE-47" data-name="LWPOLYLINE"><polygon class="cls-2" points="531.1 42.76 529.42 44.36 529.67 44.63 529.91 45.16 529.74 45.72 528.46 47.19 527.44 48.39 526.5 49.39 525.24 50.68 524.05 51.83 523.57 52.3 523.17 52.65 522.66 53.11 522.08 53.62 520.7 54.79 519.38 55.84 518.32 56.65 517.76 56.8 517.23 56.54 516.98 56.27 514.84 58.32 499.14 41.91 515.39 26.35 531.1 42.76"/></g><g id="LINE-20" data-name="LINE"><line class="cls-3" x1="501.27" y1="39.87" x2="516.98" y2="56.27"/></g><g id="LINE-21" data-name="LINE"><line class="cls-3" x1="529.42" y1="44.36" x2="513.71" y2="27.96"/></g><g id="ARC-32" data-name="ARC"><path class="cls-3" d="M504.77,43.53a40.1,40.1,0,0,0,12.44-11.92"/></g><g id="ARC-33" data-name="ARC"><path class="cls-3" d="M502.44,41.09a102.22,102.22,0,0,0,12.44-11.91"/></g><g id="LWPOLYLINE-48" data-name="LWPOLYLINE"><rect class="cls-2" x="335.5" y="94.71" width="15" height="56.25"/></g><rect class="cls-2" x="324.47" y="122.59" width="44.9" height="1.76" transform="translate(470.39 -223.45) rotate(90)"/><g id="LWPOLYLINE-49" data-name="LWPOLYLINE"><rect class="cls-2" x="17.74" y="80.51" width="30.06" height="51.57"/></g><g id="LINE-22" data-name="LINE"><line class="cls-3" x1="20.74" y1="80.51" x2="20.74" y2="132.04"/></g><g id="LINE-23" data-name="LINE"><line class="cls-3" x1="20.74" y1="130.06" x2="47.8" y2="130.06"/></g><line class="cls-3" x1="20.64" y1="82.44" x2="47.69" y2="82.44"/><line class="cls-3" x1="20.64" y1="107.15" x2="47.69" y2="107.15"/><line class="cls-3" x1="612.42" y1="59.91" x2="612.42" y2="131.16"/><line class="cls-3" x1="609.99" y1="59.91" x2="609.99" y2="131.16"/><line class="cls-3" x1="96.15" y1="461.45" x2="96.15" y2="517.68"/><line class="cls-3" x1="93.72" y1="461.45" x2="93.72" y2="517.68"/><g id="LWPOLYLINE-50" data-name="LWPOLYLINE"><polyline class="cls-5" points="635.34 17.07 635.34 22.7 522.85 22.7 522.85 17.07"/></g><g id="LWPOLYLINE-51" data-name="LWPOLYLINE"><polyline class="cls-5" points="489.1 17.07 489.1 22.7 379.52 22.7 379.52 17.07"/></g><g id="LWPOLYLINE-52" data-name="LWPOLYLINE"><polyline class="cls-5" points="342.85 39.58 342.85 45.2 183.47 45.2"/></g><g id="LWPOLYLINE-53" data-name="LWPOLYLINE"><polyline class="cls-5" points="177.85 120.58 183.47 120.58 183.47 45.33"/></g><g id="LWPOLYLINE-54" data-name="LWPOLYLINE"><polyline class="cls-5" points="65.82 253.45 74.37 253.45 74.37 219.81 65.82 219.81"/></g><g id="LWPOLYLINE-55" data-name="LWPOLYLINE"><line class="cls-5" x1="65.82" y1="478.33" x2="61.13" y2="478.33"/><line class="cls-5" x1="61.13" y1="438.95" x2="65.82" y2="438.95"/></g><g id="LWPOLYLINE-56" data-name="LWPOLYLINE"><polyline class="cls-5" points="65.82 478.32 71.44 478.32 71.44 438.95 65.82 438.95"/></g><g id="LWPOLYLINE-57" data-name="LWPOLYLINE"><polyline class="cls-5" points="65.82 534.58 71.44 534.58 71.44 495.2 65.82 495.2"/></g><g id="LWPOLYLINE-58" data-name="LWPOLYLINE"><line class="cls-5" x1="206.21" y1="564.58" x2="206.21" y2="569.27"/><line class="cls-5" x1="104.96" y1="569.27" x2="104.96" y2="564.58"/></g><g id="LWPOLYLINE-59" data-name="LWPOLYLINE"><polyline class="cls-5" points="206.21 564.58 206.21 558.96 104.96 558.96 104.96 564.58"/></g><g id="LWPOLYLINE-60" data-name="LWPOLYLINE"><polyline class="cls-5" points="342.85 39.58 342.85 45.2 183.47 45.2"/></g><g id="LWPOLYLINE-61" data-name="LWPOLYLINE"><line class="cls-5" x1="65.82" y1="253.45" x2="61.13" y2="253.45"/><line class="cls-5" x1="61.13" y1="219.81" x2="65.82" y2="219.81"/></g><g id="LWPOLYLINE-62" data-name="LWPOLYLINE"><line class="cls-5" x1="65.82" y1="534.58" x2="61.13" y2="534.58"/><line class="cls-5" x1="61.13" y1="495.2" x2="65.82" y2="495.2"/></g><g id="LWPOLYLINE-63" data-name="LWPOLYLINE"><polygon class="cls-6" points="605.24 13.32 552.97 13.32 552.97 14.56 605.23 14.56 605.24 13.32"/></g><g id="LWPOLYLINE-64" data-name="LWPOLYLINE"><polygon class="cls-6" points="632.54 13.32 631.6 13.32 607.81 13.32 607.81 14.56 632.54 14.56 632.54 13.32"/></g><g id="LWPOLYLINE-65" data-name="LWPOLYLINE"><polygon class="cls-6" points="525.66 13.32 526.59 13.32 550.38 13.32 550.38 14.56 525.66 14.56 525.66 13.32"/></g><g id="LWPOLYLINE-66" data-name="LWPOLYLINE"><polygon class="cls-6" points="458.99 13.32 406.72 13.32 406.72 14.56 458.98 14.56 458.99 13.32"/></g><g id="LWPOLYLINE-67" data-name="LWPOLYLINE"><polygon class="cls-6" points="486.29 13.32 485.35 13.32 461.56 13.32 461.56 14.56 486.29 14.56 486.29 13.32"/></g><g id="LWPOLYLINE-68" data-name="LWPOLYLINE"><polygon class="cls-6" points="379.41 13.32 380.34 13.32 404.13 13.32 404.13 14.56 379.41 14.56 379.41 13.32"/></g><g id="LWPOLYLINE-69" data-name="LWPOLYLINE"><polygon class="cls-6" points="305.82 35.83 242.07 35.83 242.07 37.06 305.81 37.06 305.82 35.83"/></g><g id="LWPOLYLINE-70" data-name="LWPOLYLINE"><polygon class="cls-6" points="340.04 35.83 339.1 35.83 307.69 35.83 307.69 37.06 340.04 37.06 340.04 35.83"/></g><g id="LWPOLYLINE-71" data-name="LWPOLYLINE"><polygon class="cls-6" points="209.25 35.83 210.19 35.83 240.19 35.83 240.19 37.06 209.25 37.06 209.25 35.83"/></g><g id="LWPOLYLINE-72" data-name="LWPOLYLINE"><path class="cls-7" d="M169.41,44.35H12.4A12.2,12.2,0,0,0,.2,56.55V540.23a12.2,12.2,0,0,0,12.2,12.2h44v-3.28h-44a8.92,8.92,0,0,1-8.92-8.92V56.55a8.92,8.92,0,0,1,8.92-8.92h157Z"/></g><g id="LWPOLYLINE-73" data-name="LWPOLYLINE"><polygon class="cls-6" points="63.3 250.64 63.3 222.62 62.07 222.62 62.07 223.56 62.07 244.35 62.07 250.64 63.3 250.64"/></g><g id="LWPOLYLINE-74" data-name="LWPOLYLINE"><polygon class="cls-6" points="63.3 475.51 63.3 441.76 62.07 441.76 62.07 442.7 62.07 469.22 62.07 475.51 63.3 475.51"/></g><g id="LWPOLYLINE-75" data-name="LWPOLYLINE"><polygon class="cls-6" points="63.3 531.76 63.3 498.01 62.07 498.01 62.07 498.95 62.07 525.47 62.07 531.76 63.3 531.76"/></g><g id="LWPOLYLINE-76" data-name="LWPOLYLINE"><polygon class="cls-6" points="174.1 35.83 207.38 35.83 207.38 37.06 175.33 37.06 174.1 35.83"/></g><g id="LWPOLYLINE-77" data-name="LWPOLYLINE"><polygon class="cls-6" points="174.11 35.83 175.32 37.04 175.33 66.29 174.11 66.29 174.11 35.83"/></g><g id="LWPOLYLINE-78" data-name="LWPOLYLINE"><rect class="cls-6" x="174.1" y="69.11" width="1.23" height="50.63"/></g><g id="LWPOLYLINE-79" data-name="LWPOLYLINE"><polygon class="cls-6" points="166.6 160.51 165.66 160.51 146.29 160.51 146.29 161.74 166.6 161.74 166.6 160.51"/></g><g id="LWPOLYLINE-80" data-name="LWPOLYLINE"><polygon class="cls-6" points="100.51 160.51 101.44 160.51 144.41 160.51 144.41 161.74 100.51 161.74 100.51 160.51"/></g><g id="LWPOLYLINE-81" data-name="LWPOLYLINE"><polygon class="cls-6" points="129.69 567.1 107.77 567.1 107.77 568.33 108.71 568.33 128.98 568.33 129.69 568.33 129.69 567.1"/></g><g id="LWPOLYLINE-82" data-name="LWPOLYLINE"><polygon class="cls-6" points="181.48 567.1 203.4 567.1 203.4 568.33 202.46 568.33 182.19 568.33 181.48 568.33 181.48 567.1"/></g><g id="LWPOLYLINE-83" data-name="LWPOLYLINE"><rect class="cls-6" x="132.26" y="567.1" width="46.64" height="1.23"/></g><g id="LWPOLYLINE-84" data-name="LWPOLYLINE"><polygon class="cls-6" points="129.69 567.1 107.77 567.1 107.77 568.33 108.71 568.33 128.98 568.33 129.69 568.33 129.69 567.1"/></g><g id="LWPOLYLINE-85" data-name="LWPOLYLINE"><polygon class="cls-6" points="181.48 567.1 203.4 567.1 203.4 568.33 202.46 568.33 182.19 568.33 181.48 568.33 181.48 567.1"/></g><g id="LWPOLYLINE-86" data-name="LWPOLYLINE"><rect class="cls-6" x="132.26" y="567.1" width="46.64" height="1.23"/></g><line class="cls-6" x1="65.82" y1="223.54" x2="65.82" y2="249.72"/><line class="cls-6" x1="65.82" y1="498.75" x2="65.82" y2="530.79"/><line class="cls-6" x1="65.82" y1="442.62" x2="65.82" y2="474.66"/><line class="cls-6" x1="107.46" y1="564.58" x2="202.93" y2="564.58"/><line class="cls-6" x1="378.47" y1="17.08" x2="485.35" y2="17.08"/><line class="cls-6" x1="525.66" y1="17.08" x2="632.54" y2="17.08"/><line class="cls-6" x1="100.51" y1="164.26" x2="165.66" y2="164.26"/><line class="cls-5" x1="97.31" y1="169.89" x2="170.59" y2="169.89"/><circle class="cls-8" cx="47.2" cy="399.58" r="7.18"/><path class="cls-9" d="M53.64,397.07a6.91,6.91,0,0,1-6.44,2.51"/><line class="cls-9" x1="51.36" y1="398.92" x2="54.1" y2="399.2"/><line class="cls-9" x1="50.16" y1="399.38" x2="51.5" y2="396.31"/><line class="cls-9" x1="48.8" y1="399.63" x2="53.91" y2="401.48"/><path class="cls-9" d="M41.34,396.38a7,7,0,0,1,5.86,3.2"/><line class="cls-9" x1="43.96" y1="396.89" x2="42.44" y2="394.75"/><line class="cls-9" x1="45.1" y1="397.48" x2="41.91" y2="398.5"/><line class="cls-9" x1="46.18" y1="398.35" x2="44.31" y2="393.56"/><path class="cls-9" d="M42.92,405a6.94,6.94,0,0,1,4.28-5.38"/><line class="cls-9" x1="43.95" y1="402.26" x2="41.68" y2="403.29"/><line class="cls-9" x1="44.75" y1="401.25" x2="45.15" y2="404.58"/><line class="cls-9" x1="45.8" y1="400.35" x2="40.74" y2="401.23"/><polyline class="cls-9" points="47.2 399.58 48.86 404.76 50.39 405.64"/><line class="cls-9" x1="47.84" y1="401.6" x2="51.02" y2="403.03"/><line class="cls-9" x1="48.15" y1="402.59" x2="45.84" y2="405.27"/><polyline class="cls-9" points="47.2 399.58 49.18 394.73 48.38 392.86"/><line class="cls-9" x1="48.12" y1="397.34" x2="47.14" y2="395.49"/><line class="cls-9" x1="48.91" y1="394.08" x2="46.79" y2="392.92"/><line class="cls-9" x1="48.33" y1="396.74" x2="50.31" y2="395.96"/><circle class="cls-8" cx="47.2" cy="383.11" r="7.18"/><path class="cls-9" d="M53.64,380.6a6.91,6.91,0,0,1-6.44,2.51"/><line class="cls-9" x1="51.36" y1="382.45" x2="54.1" y2="382.73"/><line class="cls-9" x1="50.16" y1="382.91" x2="51.5" y2="379.84"/><line class="cls-9" x1="48.8" y1="383.16" x2="53.91" y2="385.01"/><path class="cls-9" d="M41.34,379.92a7,7,0,0,1,5.86,3.19"/><line class="cls-9" x1="43.96" y1="380.42" x2="42.44" y2="378.28"/><line class="cls-9" x1="45.1" y1="381.01" x2="41.91" y2="382.04"/><line class="cls-9" x1="46.18" y1="381.88" x2="44.31" y2="377.09"/><path class="cls-9" d="M42.92,388.49a6.94,6.94,0,0,1,4.28-5.38"/><line class="cls-9" x1="43.95" y1="385.79" x2="41.68" y2="386.82"/><line class="cls-9" x1="44.75" y1="384.78" x2="45.15" y2="388.11"/><line class="cls-9" x1="45.8" y1="383.88" x2="40.74" y2="384.76"/><polyline class="cls-9" points="47.2 383.11 48.86 388.29 50.39 389.18"/><line class="cls-9" x1="47.84" y1="385.13" x2="51.02" y2="386.56"/><line class="cls-9" x1="48.15" y1="386.12" x2="45.84" y2="388.8"/><polyline class="cls-9" points="47.2 383.11 49.18 378.26 48.38 376.39"/><line class="cls-9" x1="48.12" y1="380.87" x2="47.14" y2="379.03"/><line class="cls-9" x1="48.91" y1="377.61" x2="46.79" y2="376.46"/><line class="cls-9" x1="48.33" y1="380.27" x2="50.31" y2="379.49"/><circle class="cls-8" cx="47.2" cy="317.47" r="7.18"/><path class="cls-9" d="M53.64,315a6.92,6.92,0,0,1-6.44,2.52"/><line class="cls-9" x1="51.36" y1="316.8" x2="54.1" y2="317.09"/><line class="cls-9" x1="50.16" y1="317.27" x2="51.5" y2="314.2"/><line class="cls-9" x1="48.8" y1="317.51" x2="53.91" y2="319.36"/><path class="cls-9" d="M41.34,314.27a7,7,0,0,1,5.86,3.2"/><line class="cls-9" x1="43.96" y1="314.78" x2="42.44" y2="312.64"/><line class="cls-9" x1="45.1" y1="315.37" x2="41.91" y2="316.39"/><line class="cls-9" x1="46.18" y1="316.24" x2="44.31" y2="311.44"/><path class="cls-9" d="M42.92,322.85a6.94,6.94,0,0,1,4.28-5.38"/><line class="cls-9" x1="43.95" y1="320.15" x2="41.68" y2="321.18"/><line class="cls-9" x1="44.75" y1="319.14" x2="45.15" y2="322.46"/><line class="cls-9" x1="45.8" y1="318.24" x2="40.74" y2="319.12"/><polyline class="cls-9" points="47.2 317.47 48.86 322.65 50.39 323.53"/><line class="cls-9" x1="47.84" y1="319.48" x2="51.02" y2="320.92"/><line class="cls-9" x1="48.15" y1="320.48" x2="45.84" y2="323.16"/><polyline class="cls-9" points="47.2 317.47 49.18 312.61 48.38 310.74"/><line class="cls-9" x1="48.12" y1="315.23" x2="47.14" y2="313.38"/><line class="cls-9" x1="48.91" y1="311.96" x2="46.79" y2="310.81"/><line class="cls-9" x1="48.33" y1="314.62" x2="50.31" y2="313.85"/><circle class="cls-8" cx="47.2" cy="301" r="7.18"/><path class="cls-9" d="M53.64,298.49A6.91,6.91,0,0,1,47.2,301"/><line class="cls-9" x1="51.36" y1="300.34" x2="54.1" y2="300.62"/><line class="cls-9" x1="50.16" y1="300.8" x2="51.5" y2="297.73"/><line class="cls-9" x1="48.8" y1="301.05" x2="53.91" y2="302.9"/><path class="cls-9" d="M41.34,297.8A7,7,0,0,1,47.2,301"/><line class="cls-9" x1="43.96" y1="298.31" x2="42.44" y2="296.17"/><line class="cls-9" x1="45.1" y1="298.9" x2="41.91" y2="299.92"/><line class="cls-9" x1="46.18" y1="299.77" x2="44.31" y2="294.97"/><path class="cls-9" d="M42.92,306.38A6.94,6.94,0,0,1,47.2,301"/><line class="cls-9" x1="43.95" y1="303.68" x2="41.68" y2="304.71"/><line class="cls-9" x1="44.75" y1="302.67" x2="45.15" y2="306"/><line class="cls-9" x1="45.8" y1="301.77" x2="40.74" y2="302.65"/><polyline class="cls-9" points="47.2 301 48.86 306.18 50.39 307.06"/><line class="cls-9" x1="47.84" y1="303.02" x2="51.02" y2="304.45"/><line class="cls-9" x1="48.15" y1="304.01" x2="45.84" y2="306.69"/><polyline class="cls-9" points="47.2 301 49.18 296.14 48.38 294.27"/><line class="cls-9" x1="48.12" y1="298.76" x2="47.14" y2="296.91"/><line class="cls-9" x1="48.91" y1="295.5" x2="46.79" y2="294.34"/><line class="cls-9" x1="48.33" y1="298.16" x2="50.31" y2="297.38"/><circle class="cls-8" cx="48.24" cy="196.82" r="7.85"/><path class="cls-9" d="M55.29,194.07a7.58,7.58,0,0,1-7,2.75"/><line class="cls-9" x1="52.79" y1="196.09" x2="55.78" y2="196.4"/><line class="cls-9" x1="51.48" y1="196.6" x2="52.94" y2="193.24"/><line class="cls-9" x1="49.99" y1="196.87" x2="55.57" y2="198.89"/><path class="cls-9" d="M41.83,193.33a7.59,7.59,0,0,1,6.41,3.49"/><line class="cls-9" x1="44.69" y1="193.88" x2="43.04" y2="191.54"/><line class="cls-9" x1="45.94" y1="194.53" x2="42.45" y2="195.64"/><line class="cls-9" x1="47.13" y1="195.47" x2="45.08" y2="190.23"/><path class="cls-9" d="M43.56,202.71a7.57,7.57,0,0,1,4.68-5.89"/><line class="cls-9" x1="44.68" y1="199.75" x2="42.21" y2="200.88"/><line class="cls-9" x1="45.56" y1="198.65" x2="46" y2="202.28"/><line class="cls-9" x1="46.71" y1="197.66" x2="41.18" y2="198.63"/><polyline class="cls-9" points="48.24 196.82 50.06 202.48 51.72 203.45"/><line class="cls-9" x1="48.93" y1="199.02" x2="52.42" y2="200.59"/><line class="cls-9" x1="49.28" y1="200.11" x2="46.75" y2="203.04"/><polyline class="cls-9" points="48.24 196.82 50.41 191.51 49.53 189.47"/><line class="cls-9" x1="49.25" y1="194.37" x2="48.17" y2="192.35"/><line class="cls-9" x1="50.1" y1="190.8" x2="47.8" y2="189.54"/><line class="cls-9" x1="49.48" y1="193.71" x2="51.64" y2="192.86"/><circle class="cls-8" cx="48.24" cy="178.81" r="7.85"/><path class="cls-9" d="M55.29,176.07a7.6,7.6,0,0,1-7,2.74"/><line class="cls-9" x1="52.79" y1="178.09" x2="55.78" y2="178.4"/><line class="cls-9" x1="51.48" y1="178.6" x2="52.94" y2="175.24"/><line class="cls-9" x1="49.99" y1="178.87" x2="55.57" y2="180.89"/><path class="cls-9" d="M41.83,175.32a7.61,7.61,0,0,1,6.41,3.49"/><line class="cls-9" x1="44.69" y1="175.87" x2="43.04" y2="173.53"/><line class="cls-9" x1="45.94" y1="176.52" x2="42.45" y2="177.64"/><line class="cls-9" x1="47.13" y1="177.47" x2="45.08" y2="172.23"/><path class="cls-9" d="M43.56,184.7a7.6,7.6,0,0,1,4.68-5.89"/><line class="cls-9" x1="44.68" y1="181.74" x2="42.21" y2="182.87"/><line class="cls-9" x1="45.56" y1="180.64" x2="46" y2="184.28"/><line class="cls-9" x1="46.71" y1="179.66" x2="41.18" y2="180.62"/><polyline class="cls-9" points="48.24 178.81 50.06 184.48 51.72 185.44"/><line class="cls-9" x1="48.93" y1="181.02" x2="52.42" y2="182.59"/><line class="cls-9" x1="49.28" y1="182.11" x2="46.75" y2="185.04"/><polyline class="cls-9" points="48.24 178.81 50.41 173.51 49.53 171.46"/><line class="cls-9" x1="49.25" y1="176.36" x2="48.17" y2="174.35"/><line class="cls-9" x1="50.1" y1="172.8" x2="47.8" y2="171.54"/><line class="cls-9" x1="49.48" y1="175.71" x2="51.64" y2="174.86"/><g id="LWPOLYLINE-87" data-name="LWPOLYLINE"><polygon class="cls-10" points="608.51 14.56 607.81 14.56 607.81 13.32 608.51 13.32 608.51 12.39 606.76 12.39 606.76 10.04 605.82 10.04 605.82 12.39 604.76 12.39 604.76 13.32 605.23 13.32 605.23 14.56 604.53 14.56 604.53 15.73 605.47 15.73 605.47 16.61 606.64 16.61 606.64 17.07 608.51 17.07 608.51 14.56"/></g><g id="LWPOLYLINE-88" data-name="LWPOLYLINE"><polygon class="cls-10" points="635.35 12.39 633.77 12.39 633.77 8.64 632.83 8.64 632.83 12.39 631.6 12.39 631.6 13.32 632.54 13.32 632.54 14.56 631.6 14.56 631.6 17.07 635.35 17.07 635.35 12.39"/></g><g id="LWPOLYLINE-89" data-name="LWPOLYLINE"><polygon class="cls-10" points="549.68 14.56 550.38 14.56 550.38 13.32 549.68 13.32 549.68 12.39 551.44 12.39 551.44 10.04 552.38 10.04 552.38 12.39 553.43 12.39 553.43 13.32 552.96 13.32 552.96 14.56 553.66 14.56 553.66 15.73 552.73 15.73 552.73 16.61 551.55 16.61 551.55 17.07 549.68 17.07 549.68 14.56"/></g><g id="LWPOLYLINE-90" data-name="LWPOLYLINE"><polygon class="cls-10" points="522.84 12.39 524.43 12.39 524.43 8.64 525.36 8.64 525.36 12.39 526.59 12.39 526.59 13.32 525.66 13.32 525.66 14.56 526.59 14.56 526.59 17.07 522.84 17.07 522.84 12.39"/></g><g id="LWPOLYLINE-91" data-name="LWPOLYLINE"><polygon class="cls-10" points="462.26 14.56 461.56 14.56 461.56 13.32 462.26 13.32 462.26 12.39 460.51 12.39 460.51 10.04 459.57 10.04 459.57 12.39 458.51 12.39 458.51 13.32 458.98 13.32 458.98 14.56 458.28 14.56 458.28 15.73 459.22 15.73 459.22 16.61 460.39 16.61 460.39 17.07 462.26 17.07 462.26 14.56"/></g><g id="LWPOLYLINE-92" data-name="LWPOLYLINE"><polygon class="cls-10" points="489.1 12.39 488.16 12.39 488.16 8.64 487.22 8.64 487.22 12.39 485.35 12.39 485.35 13.32 486.29 13.32 486.29 14.56 485.35 14.56 485.35 17.07 489.1 17.07 489.1 12.39"/></g><g id="LWPOLYLINE-93" data-name="LWPOLYLINE"><polygon class="cls-10" points="403.43 14.56 404.13 14.56 404.13 13.32 403.43 13.32 403.43 12.39 405.19 12.39 405.19 10.04 406.13 10.04 406.13 12.39 407.18 12.39 407.18 13.32 406.71 13.32 406.71 14.56 407.41 14.56 407.41 15.73 406.48 15.73 406.48 16.61 405.31 16.61 405.31 17.07 403.43 17.07 403.43 14.56"/></g><g id="LWPOLYLINE-94" data-name="LWPOLYLINE"><polygon class="cls-10" points="376.59 12.39 377.53 12.39 377.53 8.64 378.47 8.64 378.47 12.39 380.34 12.39 380.34 13.32 379.41 13.32 379.41 14.56 380.34 14.56 380.34 17.07 376.59 17.07 376.59 12.39"/></g><g id="LWPOLYLINE-95" data-name="LWPOLYLINE"><polygon class="cls-10" points="304.88 37.06 305.82 37.06 305.82 35.83 304.88 35.83 304.88 34.89 306.76 34.89 306.76 32.54 307.69 32.54 307.69 34.89 308.63 34.89 308.63 35.83 307.69 35.83 307.69 37.06 308.63 37.06 308.63 38.23 307.81 38.23 307.81 39.11 306.76 39.11 306.76 39.58 304.88 39.58 304.88 37.06"/></g><g id="LWPOLYLINE-96" data-name="LWPOLYLINE"><polygon class="cls-10" points="342.85 34.89 341.91 34.89 341.91 31.14 340.97 31.14 340.97 34.89 339.1 34.89 339.1 35.83 340.04 35.83 340.04 37.06 339.1 37.06 339.1 39.58 342.85 39.58 342.85 34.89"/></g><g id="LWPOLYLINE-97" data-name="LWPOLYLINE"><polygon class="cls-10" points="239.25 37.06 240.19 37.06 240.19 35.83 239.25 35.83 239.25 34.89 241.13 34.89 241.13 32.54 242.07 32.54 242.07 34.89 243 34.89 243 35.83 242.07 35.83 242.07 37.06 243 37.06 243 38.23 242.19 38.23 242.19 39.11 241.13 39.11 241.13 39.58 239.25 39.58 239.25 37.06"/></g><g id="LWPOLYLINE-98" data-name="LWPOLYLINE"><polygon class="cls-10" points="210.19 37.06 209.25 37.06 209.25 35.83 210.19 35.83 210.19 34.89 208.32 34.89 208.32 32.54 207.38 32.54 207.38 34.89 206.44 34.89 206.44 35.83 207.38 35.83 207.38 37.06 206.44 37.06 206.44 38.23 207.26 38.23 207.26 39.11 208.32 39.11 208.32 39.58 210.19 39.58 210.19 37.06"/></g><g id="LWPOLYLINE-99" data-name="LWPOLYLINE"><polygon class="cls-10" points="65.82 219.81 65.82 223.56 63.3 223.56 63.3 222.62 62.07 222.62 62.07 223.56 61.13 223.56 61.13 221.68 61.13 219.81 65.82 219.81"/></g><g id="LWPOLYLINE-100" data-name="LWPOLYLINE"><polygon class="cls-10" points="65.82 253.45 65.82 249.7 63.3 249.7 63.3 250.64 62.07 250.64 62.07 249.7 61.13 249.7 61.13 251.58 61.13 253.45 65.82 253.45"/></g><g id="LWPOLYLINE-101" data-name="LWPOLYLINE"><polygon class="cls-10" points="65.82 438.95 65.82 442.7 63.3 442.7 63.3 441.76 62.07 441.76 62.07 442.7 61.13 442.7 61.13 440.82 61.13 438.95 65.82 438.95"/></g><g id="LWPOLYLINE-102" data-name="LWPOLYLINE"><polygon class="cls-10" points="65.82 478.32 65.82 474.57 63.3 474.57 63.3 475.51 62.07 475.51 62.07 474.57 61.13 474.57 61.13 476.45 61.13 478.32 65.82 478.32"/></g><g id="LWPOLYLINE-103" data-name="LWPOLYLINE"><polygon class="cls-10" points="65.82 495.2 65.82 498.95 63.3 498.95 63.3 498.01 62.07 498.01 62.07 498.95 61.13 498.95 61.13 497.07 61.13 495.2 65.82 495.2"/></g><g id="LWPOLYLINE-104" data-name="LWPOLYLINE"><polygon class="cls-10" points="65.82 534.58 65.82 530.83 63.3 530.83 63.3 531.76 62.07 531.76 62.07 530.83 61.13 530.83 61.13 532.7 61.13 534.58 65.82 534.58"/></g><g id="LWPOLYLINE-105" data-name="LWPOLYLINE"><polygon class="cls-10" points="169.41 67.23 173.16 67.23 173.16 65.36 174.1 65.36 174.11 66.29 175.33 66.29 175.33 65.36 177.85 65.36 177.85 70.04 175.33 70.04 175.33 69.11 174.1 69.11 174.1 70.04 173.16 70.04 173.16 68.17 169.41 68.17 169.41 67.23"/></g><g id="LWPOLYLINE-106" data-name="LWPOLYLINE"><polygon class="cls-10" points="175.33 119.73 175.33 118.79 176.5 118.79 176.5 119.61 177.38 119.61 177.38 120.26 177.85 120.26 177.85 122.54 175.33 122.54 175.33 121.61 174.1 121.61 174.1 122.54 173.16 122.54 173.16 120.67 169.41 120.67 169.41 119.73 173.16 119.73 173.16 118.79 174.1 118.79 174.1 119.73 175.33 119.73"/></g><g id="LWPOLYLINE-107" data-name="LWPOLYLINE"><polygon class="cls-10" points="173.16 155.82 173.16 152.07 174.1 152.07 174.1 153.01 175.33 153.01 175.33 152.07 177.85 152.07 177.85 155.82 173.16 155.82"/></g><g id="LWPOLYLINE-108" data-name="LWPOLYLINE"><polygon class="cls-10" points="147.22 161.74 146.29 161.74 146.29 160.51 147.22 160.51 147.22 159.57 145.35 159.57 145.35 155.82 144.41 155.82 144.41 159.57 143.47 159.57 143.47 160.51 144.41 160.51 144.41 161.74 143.47 161.74 143.47 162.91 144.29 162.91 144.29 163.79 145.35 163.79 145.35 164.26 147.22 164.26 147.22 161.74"/></g><g id="LWPOLYLINE-109" data-name="LWPOLYLINE"><polygon class="cls-10" points="169.41 159.57 168.47 159.57 167.53 159.57 165.66 159.57 165.66 160.51 166.6 160.51 166.6 161.74 165.66 161.74 165.66 164.26 169.41 164.26 169.41 159.57"/></g><g id="LWPOLYLINE-110" data-name="LWPOLYLINE"><polygon class="cls-10" points="97.69 159.57 98.64 159.57 99.58 159.57 101.44 159.57 101.44 160.51 100.51 160.51 100.51 161.74 101.44 161.74 101.44 164.26 97.69 164.26 97.69 159.57"/></g><g id="LWPOLYLINE-111" data-name="LWPOLYLINE"><polygon class="cls-10" points="206.21 564.58 202.46 564.58 202.46 567.1 203.4 567.1 203.4 568.33 202.46 568.33 202.46 569.27 204.33 569.27 206.21 569.27 206.21 564.58"/></g><g id="LWPOLYLINE-112" data-name="LWPOLYLINE"><polygon class="cls-10" points="132.97 565.93 132.03 565.93 132.03 565.05 130.86 565.05 130.86 564.58 128.98 564.58 128.98 567.1 129.69 567.1 129.69 568.33 128.98 568.33 128.98 569.27 129.69 569.27 132.26 569.27 132.97 569.27 132.97 568.33 132.26 568.33 132.26 567.1 132.97 567.1 132.97 565.93"/></g><g id="LWPOLYLINE-113" data-name="LWPOLYLINE"><polygon class="cls-10" points="104.96 564.58 108.71 564.58 108.71 567.1 107.77 567.1 107.77 568.33 108.71 568.33 108.71 569.27 106.83 569.27 104.96 569.27 104.96 564.58"/></g><g id="LWPOLYLINE-114" data-name="LWPOLYLINE"><polygon class="cls-10" points="178.2 565.93 179.14 565.93 179.14 565.05 180.31 565.05 180.31 564.58 182.19 564.58 182.19 567.1 181.48 567.1 181.48 568.33 182.19 568.33 182.19 569.27 181.48 569.27 178.91 569.27 178.2 569.27 178.2 568.33 178.91 568.33 178.91 567.1 178.2 567.1 178.2 565.93"/></g><g id="LWPOLYLINE-115" data-name="LWPOLYLINE"><polygon class="cls-10" points="206.21 564.58 202.46 564.58 202.46 567.1 203.4 567.1 203.4 568.33 202.46 568.33 202.46 569.27 204.33 569.27 206.21 569.27 206.21 564.58"/></g><g id="LWPOLYLINE-116" data-name="LWPOLYLINE"><polygon class="cls-10" points="206.21 564.58 202.46 564.58 202.46 567.1 203.4 567.1 203.4 568.33 202.46 568.33 202.46 569.27 204.33 569.27 206.21 569.27 206.21 564.58"/></g><g id="LWPOLYLINE-117" data-name="LWPOLYLINE"><polygon class="cls-10" points="132.97 565.93 132.03 565.93 132.03 565.05 130.86 565.05 130.86 564.58 128.98 564.58 128.98 567.1 129.69 567.1 129.69 568.33 128.98 568.33 128.98 569.27 129.69 569.27 132.26 569.27 132.97 569.27 132.97 568.33 132.26 568.33 132.26 567.1 132.97 567.1 132.97 565.93"/></g><g id="LWPOLYLINE-118" data-name="LWPOLYLINE"><polygon class="cls-10" points="104.96 564.58 108.71 564.58 108.71 567.1 107.77 567.1 107.77 568.33 108.71 568.33 108.71 569.27 106.83 569.27 104.96 569.27 104.96 564.58"/></g><g id="LWPOLYLINE-119" data-name="LWPOLYLINE"><polygon class="cls-10" points="178.2 565.93 179.14 565.93 179.14 565.05 180.31 565.05 180.31 564.58 182.19 564.58 182.19 567.1 181.48 567.1 181.48 568.33 182.19 568.33 182.19 569.27 181.48 569.27 178.91 569.27 178.2 569.27 178.2 568.33 178.91 568.33 178.91 567.1 178.2 567.1 178.2 565.93"/></g><g id="LWPOLYLINE-120" data-name="LWPOLYLINE"><polyline class="cls-5" points="635.35 17.07 635.35 8.64 522.85 8.64 522.85 17.07"/></g><g id="LWPOLYLINE-121" data-name="LWPOLYLINE"><polyline class="cls-5" points="489.1 17.07 489.1 8.64 376.6 8.64 376.6 17.07"/></g><g id="LWPOLYLINE-122" data-name="LWPOLYLINE"><polyline class="cls-5" points="342.85 39.58 342.85 31.14 169.41 31.14"/></g><g id="LWPOLYLINE-123" data-name="LWPOLYLINE"><polyline class="cls-6" points="177.85 122.48 177.85 39.57 342.85 39.57 342.85 31.14"/><line class="cls-5" x1="169.41" y1="47.63" x2="169.41" y2="120.67"/></g><g id="LWPOLYLINE-124" data-name="LWPOLYLINE"><polyline class="cls-5" points="169.41 46.23 169.41 31.14 342.85 31.14 342.85 22.7"/></g><g id="LWPOLYLINE-125" data-name="LWPOLYLINE"><polyline class="cls-5" points="61.13 219.81 54.57 219.81 54.57 253.45 61.13 253.45"/></g><g id="LWPOLYLINE-126" data-name="LWPOLYLINE"><polyline class="cls-5" points="61.13 438.95 54.57 438.95 54.57 478.32 61.13 478.32"/></g><g id="LWPOLYLINE-127" data-name="LWPOLYLINE"><polyline class="cls-5" points="61.13 495.2 54.57 495.2 54.57 534.58 61.13 534.58"/></g><g id="LWPOLYLINE-128" data-name="LWPOLYLINE"><polyline class="cls-5" points="169.41 164.26 169.41 155.82 97.69 155.82 97.69 164.26"/></g><g id="LWPOLYLINE-129" data-name="LWPOLYLINE"><polyline class="cls-5" points="104.96 569.27 104.96 575.83 206.21 575.83 206.21 569.27"/></g><line class="cls-6" x1="169.41" y1="122.54" x2="173.22" y2="122.54"/><g id="LWPOLYLINE-130" data-name="LWPOLYLINE"><rect class="cls-11" x="373.76" y="170.61" width="33.75" height="1.64" transform="translate(-6.8 326.43) rotate(-45)"/></g><g id="LWPOLYLINE-131" data-name="LWPOLYLINE"><rect class="cls-12" x="452.3" y="182.78" width="33.75" height="1.64"/></g><g id="LWPOLYLINE-132" data-name="LWPOLYLINE"><rect class="cls-12" x="519.92" y="182.78" width="33.75" height="1.64"/></g><g id="LWPOLYLINE-133" data-name="LWPOLYLINE"><rect class="cls-12" x="419.84" y="139.89" width="33.75" height="1.64"/></g><g id="LWPOLYLINE-134" data-name="LWPOLYLINE"><polyline class="cls-12" points="264.88 305.12 287.42 305.12 287.42 303.48 264.88 303.48"/></g><g id="LWPOLYLINE-135" data-name="LWPOLYLINE"><polyline class="cls-12" points="264.88 305.12 242.42 305.12 242.42 303.48 264.88 303.48"/></g><g id="LWPOLYLINE-136" data-name="LWPOLYLINE"><rect class="cls-11" x="189.58" y="390.52" width="33.75" height="1.64" transform="translate(-216.25 260.61) rotate(-45)"/></g><g id="LWPOLYLINE-137" data-name="LWPOLYLINE"><rect class="cls-12" x="149.96" y="394.42" width="1.64" height="33.75"/></g><g id="LWPOLYLINE-138" data-name="LWPOLYLINE"><rect class="cls-12" x="228.94" y="308.87" width="1.64" height="33.75"/></g><g id="LWPOLYLINE-139" data-name="LWPOLYLINE"><rect class="cls-12" x="236.21" y="429.58" width="33.75" height="1.64"/></g><g id="LWPOLYLINE-140" data-name="LWPOLYLINE"><polyline class="cls-12" points="275.35 401.33 275.35 378.83 273.71 378.83 273.71 401.33"/></g><line class="cls-13" x1="177.85" y1="122.48" x2="177.85" y2="151.96"/><g id="LWPOLYLINE-141" data-name="LWPOLYLINE"><polyline class="cls-12" points="275.35 401.33 275.35 423.83 273.71 423.83 273.71 401.33"/></g><g id="LWPOLYLINE-142" data-name="LWPOLYLINE"><rect class="cls-12" x="219.69" y="521.46" width="1.64" height="33.75"/></g><g id="LWPOLYLINE-143" data-name="LWPOLYLINE"><rect class="cls-11" x="334.2" y="334.67" width="1.64" height="33.75" transform="translate(-150.45 339.86) rotate(-45)"/></g><g id="ARC-34" data-name="ARC"><path class="cls-12" d="M411.87,182.78A33.76,33.76,0,0,0,402,158.91"/></g><g id="ARC-35" data-name="ARC"><path class="cls-12" d="M194,402.7a33.73,33.73,0,0,0,23.86,9.88"/></g><g id="ARC-36" data-name="ARC"><path class="cls-12" d="M411.87,182.78A33.76,33.76,0,0,0,402,158.91"/></g><g id="ARC-37" data-name="ARC"><path class="cls-12" d="M323.67,339a33.74,33.74,0,0,0-9.88,23.87"/></g><g id="ARC-38" data-name="ARC"><path class="cls-12" d="M323.67,339a33.74,33.74,0,0,0-9.88,23.87"/></g><g id="ARC-39" data-name="ARC"><path class="cls-12" d="M169.41,122.54c-7.51,0-12.67,2.65-19,9"/></g><g id="LWPOLYLINE-144" data-name="LWPOLYLINE"><rect class="cls-11" x="161.6" y="126.11" width="1.23" height="31.29" transform="translate(-49.82 179.8) rotate(-51.32)"/></g><g id="LWPOLYLINE-145" data-name="LWPOLYLINE"><rect class="cls-6" x="457.34" y="22.7" width="34.7" height="71.72"/></g><g id="LWPOLYLINE-146" data-name="LWPOLYLINE"><rect class="cls-6" x="462.03" y="28.33" width="24.37" height="61.05" rx="4.69"/></g><g id="LWPOLYLINE-147" data-name="LWPOLYLINE"><rect class="cls-6" x="457.91" y="94.42" width="34.12" height="37.5"/></g><g id="LWPOLYLINE-148" data-name="LWPOLYLINE"><rect class="cls-14" x="457.34" y="94.42" width="0.82" height="37.5"/></g><g id="LWPOLYLINE-149" data-name="LWPOLYLINE"><rect class="cls-14" x="458.16" y="94.42" width="33.89" height="0.82"/></g><g id="ARC-40" data-name="ARC"><path class="cls-6" d="M474.64,125.42a3.68,3.68,0,1,0-.88,0"/></g><g id="LWPOLYLINE-150" data-name="LWPOLYLINE"><path class="cls-6" d="M473.76,121.77v11.39h.87V121.77a.44.44,0,0,0-.44-.43A.43.43,0,0,0,473.76,121.77Z"/></g><g id="ARC-41" data-name="ARC"><path class="cls-14" d="M473.77,30a3.49,3.49,0,1,0,.84,0"/></g><g id="LWPOLYLINE-151" data-name="LWPOLYLINE"><path class="cls-14" d="M474.61,33.49V22.7h-.83V33.49a.42.42,0,0,0,.83,0Z"/></g><g id="LWPOLYLINE-152" data-name="LWPOLYLINE"><rect class="cls-6" x="91.54" y="336.29" width="58.42" height="30.94"/></g><g id="LWPOLYLINE-153" data-name="LWPOLYLINE"><path class="cls-6" d="M96.87,352.62v5.82a4.69,4.69,0,0,0,4.69,4.69h38.67a4.69,4.69,0,0,0,4.69-4.69V346a4.69,4.69,0,0,0-4.69-4.69H101.56A4.69,4.69,0,0,0,96.87,346v5.82"/></g><g id="ARC-42" data-name="ARC"><path class="cls-14" d="M99.28,352.68a3.63,3.63,0,1,0,0-.88"/></g><g id="LWPOLYLINE-154" data-name="LWPOLYLINE"><path class="cls-14" d="M102.92,351.8H91.54v.86h11.38a.43.43,0,1,0,0-.86Z"/></g><g id="LINE-30" data-name="LINE"><line class="cls-14" x1="240.43" y1="465.67" x2="265.74" y2="465.67"/></g><g id="LINE-31" data-name="LINE"><line class="cls-14" x1="265.74" y1="465.67" x2="265.74" y2="437.78"/></g><g id="LINE-32" data-name="LINE"><line class="cls-14" x1="265.74" y1="437.78" x2="240.43" y2="437.78"/></g><g id="LINE-33" data-name="LINE"><line class="cls-14" x1="240.43" y1="437.78" x2="240.43" y2="465.67"/></g><g id="LWPOLYLINE-155" data-name="LWPOLYLINE"><polygon class="cls-6" points="97.39 198.83 97.39 275.36 167.9 275.36 167.9 298.39 74.37 298.39 74.37 198.83 97.39 198.83"/></g><g id="LWPOLYLINE-156" data-name="LWPOLYLINE"><rect class="cls-14" x="74.37" y="169.89" width="22.93" height="28.95"/></g><g id="LWPOLYLINE-157" data-name="LWPOLYLINE"><rect class="cls-14" x="137.89" y="203.64" width="53.44" height="31.88"/></g><g id="LWPOLYLINE-158" data-name="LWPOLYLINE"><rect class="cls-14" x="167.9" y="275.27" width="23.42" height="23.06"/></g><g id="CIRCLE-25" data-name="CIRCLE"><path class="cls-6" d="M135.17,281.06a.7.7,0,1,1,.69-.69.69.69,0,0,1-.69.69Z"/></g><g id="CIRCLE-26" data-name="CIRCLE"><path class="cls-6" d="M130.79,281.06a.7.7,0,1,1,.7-.69.69.69,0,0,1-.7.69Z"/></g><g id="CIRCLE-27" data-name="CIRCLE"><path class="cls-6" d="M130.79,283.93a.7.7,0,1,1,.7-.7.69.69,0,0,1-.7.7Z"/></g><g id="CIRCLE-28" data-name="CIRCLE"><path class="cls-6" d="M133,283.93a.7.7,0,1,1,0-1.39.7.7,0,1,1,0,1.39Z"/></g><g id="CIRCLE-29" data-name="CIRCLE"><path class="cls-6" d="M135.17,283.93a.7.7,0,1,1,.69-.7.7.7,0,0,1-.69.7Z"/></g><g id="LWPOLYLINE-159" data-name="LWPOLYLINE"><rect class="cls-6" x="119.49" y="277.49" width="26.99" height="16.03" rx="0.38"/></g><circle class="cls-6" cx="124.3" cy="289.37" r="1.32"/><path class="cls-6" d="M128.29,286.19V292a.55.55,0,0,1-.56.55h-6.86a.55.55,0,0,1-.56-.55v-5.85a0,0,0,0,1,0-.05h7.9A0,0,0,0,1,128.29,286.19Z"/><circle class="cls-6" cx="132.98" cy="289.37" r="1.32"/><path class="cls-6" d="M137,286.19V292a.55.55,0,0,1-.56.55h-6.86A.55.55,0,0,1,129,292v-5.85a0,0,0,0,1,0-.05h7.9A0,0,0,0,1,137,286.19Z"/><circle class="cls-6" cx="141.66" cy="289.37" r="1.32"/><path class="cls-6" d="M145.66,286.19V292a.56.56,0,0,1-.57.55h-6.85a.55.55,0,0,1-.57-.55v-5.85a0,0,0,0,1,.05-.05h7.89A.05.05,0,0,1,145.66,286.19Z"/><circle class="cls-6" cx="141.66" cy="281.8" r="1.32"/><path class="cls-6" d="M137.67,285v-5.85a.56.56,0,0,1,.57-.56h6.85a.57.57,0,0,1,.57.56V285s0,0,0,0h-7.89A0,0,0,0,1,137.67,285Z"/><circle class="cls-6" cx="124.3" cy="281.8" r="1.32"/><path class="cls-6" d="M120.31,285v-5.85a.56.56,0,0,1,.56-.56h6.86a.56.56,0,0,1,.56.56V285a0,0,0,0,1,0,0h-7.9A0,0,0,0,1,120.31,285Z"/><g id="LWPOLYLINE-160" data-name="LWPOLYLINE"><polyline class="cls-6" points="81.28 247.12 93.28 247.12 93.28 224.62 81.28 224.62 81.28 247.12"/></g><rect class="cls-14" x="78.37" y="234.15" width="2.74" height="1.15" transform="translate(314.47 154.98) rotate(90)"/><path class="cls-14" d="M80.2,236.7a.87.87,0,0,0,.27-.27h5.77a.41.41,0,0,0,.42-.41.42.42,0,0,0-.42-.42H80.47a.8.8,0,0,0-1.1-.26.8.8,0,0,0,.83,1.36Z"/><line class="cls-15" x1="137.67" y1="214.16" x2="191.28" y2="214.16"/><g id="LWPOLYLINE-161" data-name="LWPOLYLINE"><polyline class="cls-16" points="431.44 186.29 431.44 233.05 468.36 233.05"/></g><g id="LWPOLYLINE-162" data-name="LWPOLYLINE"><polyline class="cls-16" points="506.8 186.29 506.8 233.05 596.33 233.05 596.33 186.29"/></g><g id="LWPOLYLINE-163" data-name="LWPOLYLINE"><polyline class="cls-16" points="221.33 497.54 273.48 497.54 273.48 558.96"/></g><g id="LWPOLYLINE-164" data-name="LWPOLYLINE"><line class="cls-16" x1="227.3" y1="290" x2="293.87" y2="290"/></g><g id="LINE-34" data-name="LINE"><line class="cls-6" x1="74.37" y1="256.87" x2="75.03" y2="256.87"/><line class="cls-17" x1="76.32" y1="256.88" x2="85.98" y2="256.97"/><polyline class="cls-6" points="86.62 256.98 87.28 256.98 87.28 257.64"/><line class="cls-18" x1="87.28" y1="258.94" x2="87.28" y2="284.19"/><polyline class="cls-6" points="87.28 284.84 87.28 285.5 87.94 285.5"/><line class="cls-19" x1="89.29" y1="285.5" x2="166.57" y2="285.5"/><line class="cls-6" x1="167.24" y1="285.5" x2="167.9" y2="285.5"/></g><line class="cls-6" x1="97.3" y1="221.53" x2="96.64" y2="221.53"/><line class="cls-20" x1="95.28" y1="221.53" x2="79.71" y2="221.53"/><polyline class="cls-6" points="79.04 221.53 78.38 221.53 78.38 220.87"/><line class="cls-21" x1="78.38" y1="219.58" x2="78.38" y2="202.14"/><polyline class="cls-6" points="78.38 201.5 78.38 200.83 79.04 200.83"/><line class="cls-20" x1="80.39" y1="200.83" x2="95.96" y2="200.83"/><line class="cls-6" x1="96.64" y1="200.83" x2="97.3" y2="200.83"/><polyline class="cls-22" points="74.38 217.14 87.62 217.14 87.62 198.75"/><g id="LINE-35" data-name="LINE"><line class="cls-10" x1="589.8" y1="190.24" x2="602.85" y2="190.24"/></g><g id="LINE-36" data-name="LINE"><line class="cls-10" x1="589.8" y1="192.66" x2="602.85" y2="192.66"/></g><g id="LINE-37" data-name="LINE"><line class="cls-10" x1="589.8" y1="195.08" x2="602.85" y2="195.08"/></g><g id="LINE-38" data-name="LINE"><line class="cls-10" x1="589.8" y1="197.5" x2="602.85" y2="197.5"/></g><g id="LINE-39" data-name="LINE"><line class="cls-10" x1="589.8" y1="199.92" x2="602.85" y2="199.92"/></g><g id="LINE-40" data-name="LINE"><line class="cls-10" x1="602.85" y1="202.34" x2="589.8" y2="202.34"/></g><g id="LINE-41" data-name="LINE"><line class="cls-10" x1="424.92" y1="190.24" x2="437.97" y2="190.24"/></g><g id="LINE-42" data-name="LINE"><line class="cls-10" x1="424.92" y1="192.66" x2="437.97" y2="192.66"/></g><g id="LINE-43" data-name="LINE"><line class="cls-10" x1="424.92" y1="195.08" x2="437.97" y2="195.08"/></g><g id="LINE-44" data-name="LINE"><line class="cls-10" x1="424.92" y1="197.5" x2="437.97" y2="197.5"/></g><g id="LINE-45" data-name="LINE"><line class="cls-10" x1="424.92" y1="199.92" x2="437.97" y2="199.92"/></g><g id="LINE-46" data-name="LINE"><line class="cls-10" x1="437.97" y1="202.34" x2="424.92" y2="202.34"/></g><g id="LINE-47" data-name="LINE"><line class="cls-10" x1="464.41" y1="226.52" x2="464.41" y2="239.58"/></g><g id="LINE-48" data-name="LINE"><line class="cls-10" x1="461.99" y1="226.52" x2="461.99" y2="239.58"/></g><g id="LINE-49" data-name="LINE"><line class="cls-10" x1="459.57" y1="226.52" x2="459.57" y2="239.58"/></g><g id="LINE-50" data-name="LINE"><line class="cls-10" x1="457.15" y1="226.52" x2="457.15" y2="239.58"/></g><g id="LINE-51" data-name="LINE"><line class="cls-10" x1="454.73" y1="226.52" x2="454.73" y2="239.58"/></g><g id="LINE-52" data-name="LINE"><line class="cls-10" x1="452.32" y1="239.58" x2="452.32" y2="226.52"/></g><g id="LINE-53" data-name="LINE"><line class="cls-10" x1="526.08" y1="226.52" x2="526.08" y2="239.58"/></g><g id="LINE-54" data-name="LINE"><line class="cls-10" x1="523.66" y1="226.52" x2="523.66" y2="239.58"/></g><g id="LINE-55" data-name="LINE"><line class="cls-10" x1="521.24" y1="226.52" x2="521.24" y2="239.58"/></g><g id="LINE-56" data-name="LINE"><line class="cls-10" x1="518.82" y1="226.52" x2="518.82" y2="239.58"/></g><g id="LINE-57" data-name="LINE"><line class="cls-10" x1="516.4" y1="226.52" x2="516.4" y2="239.58"/></g><g id="LINE-58" data-name="LINE"><line class="cls-10" x1="513.99" y1="239.58" x2="513.99" y2="226.52"/></g><g id="LINE-59" data-name="LINE"><line class="cls-10" x1="500.27" y1="190.24" x2="513.32" y2="190.24"/></g><g id="LINE-60" data-name="LINE"><line class="cls-10" x1="500.27" y1="192.66" x2="513.32" y2="192.66"/></g><g id="LINE-61" data-name="LINE"><line class="cls-10" x1="500.27" y1="195.08" x2="513.32" y2="195.08"/></g><g id="LINE-62" data-name="LINE"><line class="cls-10" x1="500.27" y1="197.5" x2="513.32" y2="197.5"/></g><g id="LINE-63" data-name="LINE"><line class="cls-10" x1="500.27" y1="199.92" x2="513.32" y2="199.92"/></g><g id="LINE-64" data-name="LINE"><line class="cls-10" x1="513.32" y1="202.34" x2="500.27" y2="202.34"/></g><g id="LINE-65" data-name="LINE"><line class="cls-10" x1="240.61" y1="491.02" x2="240.61" y2="504.07"/></g><g id="LINE-66" data-name="LINE"><line class="cls-10" x1="238.19" y1="491.02" x2="238.19" y2="504.07"/></g><g id="LINE-67" data-name="LINE"><line class="cls-10" x1="235.77" y1="491.02" x2="235.77" y2="504.07"/></g><g id="LINE-68" data-name="LINE"><line class="cls-10" x1="233.36" y1="491.02" x2="233.35" y2="504.07"/></g><g id="LINE-69" data-name="LINE"><line class="cls-10" x1="230.94" y1="491.02" x2="230.94" y2="504.07"/></g><g id="LINE-70" data-name="LINE"><line class="cls-10" x1="228.52" y1="504.07" x2="228.52" y2="491.02"/></g><g id="LINE-71" data-name="LINE"><line class="cls-10" x1="266.95" y1="555.01" x2="280" y2="555.01"/></g><g id="LINE-72" data-name="LINE"><line class="cls-10" x1="266.95" y1="552.59" x2="280" y2="552.59"/></g><g id="LINE-73" data-name="LINE"><line class="cls-10" x1="266.95" y1="550.17" x2="280" y2="550.17"/></g><g id="LINE-74" data-name="LINE"><line class="cls-10" x1="266.95" y1="547.75" x2="280" y2="547.75"/></g><g id="LINE-75" data-name="LINE"><line class="cls-10" x1="266.95" y1="545.34" x2="280" y2="545.33"/></g><g id="LINE-76" data-name="LINE"><line class="cls-10" x1="280" y1="542.92" x2="266.95" y2="542.92"/></g><g id="LINE-77" data-name="LINE"><line class="cls-10" x1="289.92" y1="283.48" x2="289.92" y2="296.53"/></g><g id="LINE-78" data-name="LINE"><line class="cls-10" x1="287.5" y1="283.48" x2="287.5" y2="296.53"/></g><g id="LINE-79" data-name="LINE"><line class="cls-10" x1="285.08" y1="283.48" x2="285.08" y2="296.53"/></g><g id="LINE-80" data-name="LINE"><line class="cls-10" x1="282.66" y1="283.48" x2="282.66" y2="296.53"/></g><g id="LINE-81" data-name="LINE"><line class="cls-10" x1="280.24" y1="283.48" x2="280.24" y2="296.53"/></g><g id="LINE-82" data-name="LINE"><line class="cls-10" x1="277.82" y1="296.53" x2="277.82" y2="283.48"/></g><g id="ARC-43" data-name="ARC"><path class="cls-14" d="M397.18,112.67c-3.36-.37-12.22-1.07-12.22-1.07"/></g><g id="ARC-44" data-name="ARC"><path class="cls-14" d="M389.4,124.61a.89.89,0,0,0,.55.82c.37.15.74.29,1.12.42a15.69,15.69,0,0,0,3.11.68c.56.06,1.12.11,1.69.14a16.76,16.76,0,0,0,4.41-.36,10.82,10.82,0,0,0,5.63-3.26,5.1,5.1,0,0,0-.07-6.92,10.74,10.74,0,0,0-5.69-3.14,16.38,16.38,0,0,0-4.42-.28c-.56,0-1.12.1-1.68.17a15.73,15.73,0,0,0-3.1.74c-.37.14-.75.28-1.11.44a.88.88,0,0,0-.53.83Z"/></g><g id="ARC-45" data-name="ARC"><path class="cls-14" d="M397.32,126.68c-3.35.44-12.36,1.08-12.36,1.08"/></g><g id="ARC-46" data-name="ARC"><path class="cls-14" d="M385.11,111.61a1.15,1.15,0,0,1,1.1,1,59.38,59.38,0,0,1,0,14.1,1.16,1.16,0,0,1-1.1,1h0c-1.21.06-2.42.1-3.63.13a1.55,1.55,0,0,1-1.58-1.42c-.2-2.25-.3-4.52-.29-6.78s.09-4.53.29-6.78a1.55,1.55,0,0,1,1.58-1.42c1.21,0,2.42.07,3.63.13Z"/></g><g id="LWPOLYLINE-165" data-name="LWPOLYLINE"><path class="cls-6" d="M386.49,79.28v8.81a1,1,0,0,0,1,1h11.75a1,1,0,0,0,1-1V69.49a1,1,0,0,0-1-1H387.47a1,1,0,0,0-1,1v9.79Z"/></g><g id="ARC-47" data-name="ARC"><path class="cls-14" d="M384.05,78.29a1.24,1.24,0,1,0,0,1Z"/></g><g id="ARC-48" data-name="ARC"><path class="cls-14" d="M382.67,72.64a1.23,1.23,0,1,0,.5,0Z"/></g><g id="ARC-49" data-name="ARC"><path class="cls-14" d="M382.67,84.93a1.23,1.23,0,1,1,.5,0Z"/></g><g id="LINE-83" data-name="LINE"><path class="cls-14" d="M388.84,78.29h-5.92a.5.5,0,0,0,0,1h5.92a.5.5,0,1,0,0-1Z"/></g><line class="cls-14" x1="382.92" y1="73.86" x2="382.92" y2="70.4"/><line class="cls-14" x1="382.92" y1="87.18" x2="382.92" y2="83.71"/><g id="LWPOLYLINE-166" data-name="LWPOLYLINE"><path class="cls-6" d="M386.49,49.92v8.81a1,1,0,0,0,1,1h11.75a1,1,0,0,0,1-1V40.13a1,1,0,0,0-1-1H387.47a1,1,0,0,0-1,1v9.79Z"/></g><g id="LWPOLYLINE-167" data-name="LWPOLYLINE"><rect class="cls-6" x="379.64" y="31.56" width="23.5" height="70.49"/></g><g id="ARC-50" data-name="ARC"><path class="cls-14" d="M384.05,48.69a1.24,1.24,0,1,0,0,1Z"/></g><g id="ARC-51" data-name="ARC"><path class="cls-14" d="M382.67,43a1.23,1.23,0,1,0,.5,0Z"/></g><g id="ARC-52" data-name="ARC"><path class="cls-14" d="M382.67,55.33a1.23,1.23,0,1,1,.5,0Z"/></g><g id="LINE-84" data-name="LINE"><path class="cls-14" d="M388.84,48.69h-5.92a.5.5,0,0,0,0,1h5.92a.5.5,0,1,0,0-1Z"/></g><line class="cls-14" x1="382.92" y1="44.26" x2="382.92" y2="40.79"/><line class="cls-14" x1="382.92" y1="57.58" x2="382.92" y2="54.11"/><g id="LWPOLYLINE-168" data-name="LWPOLYLINE"><rect class="cls-14" x="159.62" y="339.56" width="19.5" height="25.4"/></g><g id="LWPOLYLINE-169" data-name="LWPOLYLINE"><path class="cls-14" d="M175.31,344.55a1.09,1.09,0,0,1,1.09,1.09v13.24a1.09,1.09,0,0,1-1.09,1.09h-9.8a.9.9,0,0,1-.9-.91V345.45a.9.9,0,0,1,.9-.9Z"/></g><g id="ARC-53" data-name="ARC"><path class="cls-14" d="M175.87,329.73c-3.11.34-11.32,1-11.32,1"/></g><g id="ARC-54" data-name="ARC"><path class="cls-14" d="M168.66,318.66a.86.86,0,0,1,.51-.76c.34-.14.69-.27,1-.39a14.24,14.24,0,0,1,2.88-.63c.52-.06,1-.1,1.57-.13a15.12,15.12,0,0,1,4.08.34,10,10,0,0,1,5.22,3,4.85,4.85,0,0,1,1.23,3.22,4.92,4.92,0,0,1-1.29,3.2,10,10,0,0,1-5.28,2.91,15.15,15.15,0,0,1-4.09.26c-.52,0-1-.09-1.56-.16a14.13,14.13,0,0,1-2.87-.69c-.35-.12-.69-.26-1-.41a.81.81,0,0,1-.49-.76Z"/></g><g id="ARC-55" data-name="ARC"><path class="cls-14" d="M176,316.74c-3.1-.4-11.45-1-11.45-1"/></g><g id="ARC-56" data-name="ARC"><path class="cls-14" d="M164.69,330.71a1.08,1.08,0,0,0,1-.95,54.86,54.86,0,0,0,0-13.06,1.08,1.08,0,0,0-1-.95h0l-3.36-.12a1.43,1.43,0,0,0-1.46,1.32c-.19,2.09-.27,4.18-.27,6.28s.08,4.19.27,6.28a1.44,1.44,0,0,0,1.46,1.32q1.68,0,3.36-.12Z"/></g><g id="ARC-57" data-name="ARC"><path class="cls-14" d="M163.19,352.72a1.14,1.14,0,1,1,0-.92Z"/></g><g id="ARC-58" data-name="ARC"><path class="cls-14" d="M161.92,358a1.15,1.15,0,1,1,.45,0Z"/></g><g id="ARC-59" data-name="ARC"><path class="cls-14" d="M161.92,346.56a1.15,1.15,0,0,0,.23,2.27,1.15,1.15,0,0,0,.22-2.27Z"/></g><g id="LINE-85" data-name="LINE"><path class="cls-14" d="M167.64,352.72h-5.49a.46.46,0,0,1,0-.92h5.49a.46.46,0,0,1,0,.92Z"/></g><line class="cls-14" x1="162.15" y1="356.82" x2="162.15" y2="360.03"/><line class="cls-14" x1="162.15" y1="344.48" x2="162.15" y2="347.7"/><g id="LWPOLYLINE-170" data-name="LWPOLYLINE"><rect class="cls-14" x="78.92" y="372.73" width="20.63" height="26.86"/></g><g id="LWPOLYLINE-171" data-name="LWPOLYLINE"><path class="cls-14" d="M95.52,394.31a1.15,1.15,0,0,0,1.15-1.15v-14A1.16,1.16,0,0,0,95.52,378H85.16a1,1,0,0,0-1,1v14.39a1,1,0,0,0,1,1Z"/></g><g id="ARC-60" data-name="ARC"><path class="cls-14" d="M96.11,410c-3.29-.37-12-1.05-12-1.05"/></g><g id="ARC-61" data-name="ARC"><path class="cls-14" d="M88.49,421.69a.86.86,0,0,0,.54.8c.36.15.72.29,1.09.41a15.1,15.1,0,0,0,3,.67c.55.06,1.1.11,1.65.14a16.58,16.58,0,0,0,4.33-.36,10.44,10.44,0,0,0,5.51-3.19,5,5,0,0,0-.07-6.78A10.44,10.44,0,0,0,99,410.3a15.72,15.72,0,0,0-4.33-.27c-.55,0-1.1.09-1.65.17a15,15,0,0,0-3,.72c-.37.13-.73.28-1.09.43a.9.9,0,0,0-.53.82Z"/></g><g id="ARC-62" data-name="ARC"><path class="cls-14" d="M96.25,423.72c-3.29.43-12.12,1-12.12,1"/></g><g id="ARC-63" data-name="ARC"><path class="cls-14" d="M84.29,409a1.14,1.14,0,0,1,1.08,1,58.35,58.35,0,0,1,0,13.81,1.15,1.15,0,0,1-1.08,1h0c-1.19.05-2.37.1-3.56.12a1.52,1.52,0,0,1-1.55-1.39q-.28-3.31-.28-6.64t.28-6.65a1.52,1.52,0,0,1,1.55-1.39c1.19,0,2.37.07,3.56.13Z"/></g><g id="ARC-64" data-name="ARC"><path class="cls-14" d="M82.7,385.67a1.21,1.21,0,0,0-2.31.49,1.2,1.2,0,0,0,2.31.48Z"/></g><g id="ARC-65" data-name="ARC"><path class="cls-14" d="M81.35,380.14a1.21,1.21,0,1,0,.49,0Z"/></g><g id="ARC-66" data-name="ARC"><path class="cls-14" d="M81.35,392.18a1.21,1.21,0,1,1,.49,0Z"/></g><g id="LINE-86" data-name="LINE"><path class="cls-14" d="M87.4,385.67H81.59a.49.49,0,0,0-.48.49.48.48,0,0,0,.48.48H87.4a.47.47,0,0,0,.48-.48A.48.48,0,0,0,87.4,385.67Z"/></g><line class="cls-14" x1="81.59" y1="381.33" x2="81.59" y2="377.94"/><line class="cls-14" x1="81.59" y1="394.38" x2="81.59" y2="390.98"/><g id="LWPOLYLINE-172" data-name="LWPOLYLINE"><polygon class="cls-7" points="288.71 575.83 289.45 575.83 289.45 493.85 289.45 434.94 299.84 434.94 299.84 368.64 313.79 368.64 313.79 362.89 269.96 362.89 269.96 373.68 273.71 373.68 273.71 378.83 277.23 378.83 277.23 369.69 294.1 369.69 294.1 429.57 277.23 429.57 277.23 423.83 273.71 423.83 273.71 429.57 269.96 429.57 269.96 433.09 278.05 433.09 278.05 466.61 228.83 466.61 228.83 433.09 236.21 433.09 236.21 429.57 221.33 429.57 221.33 412.58 217.81 412.58 217.81 431.92 214.06 431.92 214.06 435.43 217.81 435.43 217.81 521.46 221.33 521.46 221.33 486.29 284.73 486.29 284.73 558.96 221.33 558.96 221.33 555.21 217.81 555.21 217.81 558.96 206.21 558.96 206.21 575.83 209.96 575.83 209.96 573.96 236.21 573.96 236.21 575.83 239.96 575.83 288.71 575.83"/></g><g id="LWPOLYLINE-173" data-name="LWPOLYLINE"><polygon class="cls-7" points="54.57 495.2 71.44 495.16 71.44 478.32 54.57 478.32 54.57 482.07 56.44 482.07 56.44 491.45 54.57 491.45 54.57 495.2"/></g><g id="LWPOLYLINE-174" data-name="LWPOLYLINE"><polygon class="cls-7" points="54.57 438.95 71.44 438.95 71.44 435.43 180.31 435.43 180.31 431.92 153.47 431.92 153.47 428.17 149.96 428.17 149.96 431.92 78.71 431.92 78.71 368.17 91.83 368.17 91.83 336.29 149.96 336.29 149.96 394.42 153.47 394.42 153.47 373.68 217.81 373.68 217.81 378.83 221.33 378.83 221.33 373.68 236.21 373.68 236.21 362.89 232.46 362.89 232.46 342.62 228.94 342.62 228.94 369.11 159.57 369.11 159.57 305.12 228.94 305.12 228.94 308.87 232.46 308.87 232.46 305.12 242.42 305.12 242.42 301.61 227.3 301.61 227.3 278.4 293.87 278.4 293.87 301.61 287.42 301.61 287.42 305.12 297.38 305.12 297.38 281.68 301.54 281.68 301.54 274.89 191.33 274.89 191.3 298.32 74.37 298.32 74.37 253.56 54.57 253.56 54.57 257.31 56.44 257.31 56.44 280.97 54.57 280.97 54.57 333.47 56.44 333.47 56.44 367.7 54.57 367.7 54.57 414.57 56.44 414.57 56.44 435.2 54.57 435.2 54.57 438.95"/></g><g id="LWPOLYLINE-175" data-name="LWPOLYLINE"><polygon class="cls-7" points="354.1 371.45 354.1 247.7 609.33 247.7 609.33 184.42 638.22 184.42 638.22 8.64 635.35 8.64 635.35 182.78 553.67 182.78 553.67 186.29 607.58 186.29 607.58 244.3 495.55 244.3 495.55 186.29 519.92 186.29 519.92 182.78 495.55 182.78 495.55 179.03 492.03 179.03 492.03 182.78 486.05 182.78 486.05 186.29 492.03 186.29 492.03 223.79 468.36 223.79 468.36 244.3 420.19 244.3 420.19 186.29 452.3 186.29 452.3 182.78 411.87 182.78 411.87 186.29 415.62 186.29 415.62 244.3 350.7 244.3 350.7 274.89 346.54 274.89 346.54 281.68 350.7 281.68 350.7 362.89 347.54 362.89 347.54 368.64 350.47 368.64 350.47 371.45 351.99 371.45 354.1 371.45"/></g><g id="LWPOLYLINE-176" data-name="LWPOLYLINE"><polygon class="cls-7" points="74.37 219.81 74.37 169.89 97.69 169.89 97.69 155.82 56.44 155.82 56.44 216.06 54.57 216.06 54.57 219.81 64.09 219.81 74.37 219.81"/></g><g id="LWPOLYLINE-177" data-name="LWPOLYLINE"><polygon class="cls-7" points="350.7 203.05 374.37 203.05 374.37 186.29 378.12 186.29 378.12 182.78 374.37 182.78 374.37 141.53 419.84 141.53 419.84 138.01 379.53 138.01 379.53 17.07 376.6 17.07 376.6 0.2 372.85 0.2 371.49 2.24 369.81 4.04 367.87 5.54 365.7 6.7 363.38 7.49 360.95 7.89 358.5 7.89 356.07 7.49 353.75 6.7 351.58 5.54 349.64 4.04 347.96 2.24 346.6 0.2 342.85 0.2 342.85 53.17 350.7 53.17 350.7 179.8 350.7 203.05"/></g><g id="LWPOLYLINE-178" data-name="LWPOLYLINE"><polygon class="cls-7" points="178.94 169.89 183.47 169.89 183.47 155.82 169.41 155.82 169.41 169.89 178.94 169.89"/></g><g id="LWPOLYLINE-179" data-name="LWPOLYLINE"><polygon class="cls-7" points="495.55 145.28 495.55 22.7 522.85 22.7 522.85 0.2 519.1 0.2 517.74 2.24 516.06 4.04 514.12 5.54 511.95 6.7 509.63 7.49 507.2 7.89 504.75 7.89 502.32 7.49 500 6.7 497.83 5.54 495.89 4.04 494.21 2.24 492.85 0.2 489.1 0.2 489.1 22.7 492.03 22.7 492.03 131.92 458.28 131.92 458.28 138.01 453.59 138.01 453.59 141.53 492.03 141.53 492.03 145.28 495.55 145.28"/></g><g id="LWPOLYLINE-180" data-name="LWPOLYLINE"><polygon class="cls-7" points="104.96 575.83 104.96 542.9 71.44 542.9 71.44 534.58 54.57 534.58 54.57 538.33 56.44 538.33 56.44 573.96 101.21 573.96 101.21 575.83 104.96 575.83"/></g><circle class="cls-7" cx="88.32" cy="60.31" r="11.25"/><path class="cls-23" d="M551.87,150.62h.88l1.81,4.45h0l1.81-4.45h.88v5.6h-.66v-4.54h0l-1.89,4.54h-.27l-1.89-4.54h0v4.54h-.65Z"/><path class="cls-23" d="M562.21,155.09h-2.52l-.39,1.13h-.68l2-5.6h.65l2,5.6h-.68Zm-.2-.57-1-3h0l-1.05,3Z"/><path class="cls-23" d="M564.17,154.36l.65-.11a1.47,1.47,0,0,0,1.66,1.46c.78,0,1.29-.36,1.29-.9s-.38-.88-1.55-1.25c-1.33-.44-1.78-.83-1.78-1.58a1.59,1.59,0,0,1,1.79-1.48,2,2,0,0,1,2,1.63l-.65.14a1.34,1.34,0,0,0-1.39-1.14c-.68,0-1.12.33-1.12.85s.32.66,1.34,1c1.46.48,2,1,2,1.84s-.79,1.54-1.95,1.54A2.06,2.06,0,0,1,564.17,154.36Z"/><path class="cls-23" d="M571.21,151.25h-1.75v-.63h4.15v.63h-1.74v5h-.66Z"/><path class="cls-23" d="M575.09,150.62h3.36v.63h-2.71V153h2.48v.59h-2.48v2h2.71v.62h-3.36Z"/><path class="cls-23" d="M582.54,153.92l1.23,2.3H583L581.81,154h-1.12v2.27H580v-5.6h2a1.63,1.63,0,0,1,1.86,1.66,1.54,1.54,0,0,1-1.4,1.62Zm-.52-.6c.82,0,1.26-.36,1.26-1s-.43-1-1.26-1h-1.33v2.07Z"/><path class="cls-23" d="M549.35,159.12h2.15a1.46,1.46,0,0,1,1.63,1.45,1.19,1.19,0,0,1-.65,1.15v0a1.33,1.33,0,0,1,.86,1.32c0,1.08-.68,1.66-2,1.66h-2Zm2,2.38c.73,0,1.09-.3,1.09-.9s-.37-.85-1.09-.85H550v1.75Zm-.09,2.6c1,0,1.39-.32,1.39-1s-.39-1-1.38-1H550v2Z"/><path class="cls-23" d="M555,159.12h3.35v.63h-2.7v1.79h2.48v.59h-2.48v2h2.7v.62H555Z"/><path class="cls-23" d="M559.93,159.12h1.74c1.42,0,2.42,1,2.42,2.79,0,2-1,2.81-2.47,2.81h-1.69Zm1.65,5c1.14,0,1.84-.6,1.84-2.19,0-1.43-.7-2.16-1.79-2.16h-1v4.35Z"/><path class="cls-23" d="M568.22,162.42l1.23,2.3h-.78l-1.18-2.27h-1.12v2.27h-.66v-5.6h2c1.17,0,1.87.63,1.87,1.66a1.54,1.54,0,0,1-1.4,1.62Zm-.52-.6c.82,0,1.25-.36,1.25-1s-.42-1-1.25-1h-1.33v2.07Z"/><path class="cls-23" d="M570.88,161.92c0-1.75.94-2.92,2.36-2.92s2.36,1.17,2.36,2.92-1,2.92-2.36,2.92S570.88,163.67,570.88,161.92Zm4,0c0-1.42-.64-2.29-1.69-2.29s-1.7.87-1.7,2.29.65,2.29,1.7,2.29S574.93,163.34,574.93,161.92Z"/><path class="cls-23" d="M576.94,161.92c0-1.75.94-2.92,2.36-2.92s2.36,1.17,2.36,2.92-.95,2.92-2.36,2.92S576.94,163.67,576.94,161.92Zm4,0c0-1.42-.64-2.29-1.69-2.29s-1.69.87-1.69,2.29.64,2.29,1.69,2.29S581,163.34,581,161.92Z"/><path class="cls-23" d="M583.29,159.12h.88l1.81,4.45h0l1.81-4.45h.88v5.6H588v-4.54h0l-1.88,4.54h-.28L584,160.18h0v4.54h-.66Z"/><path class="cls-23" d="M543.74,168.37l-1.25.81v-.69l1.33-.87h.58v5.6h-.66Z"/><path class="cls-23" d="M546.87,172.6h3v.62h-3.72v-.53a2,2,0,0,1,.23-1.06c.2-.37.55-.64,1.43-1.1,1.16-.6,1.49-.93,1.49-1.49s-.49-.91-1.16-.91a1.29,1.29,0,0,0-1.4,1.35l-.67,0a1.94,1.94,0,0,1,2.07-1.93A1.68,1.68,0,0,1,550,169c0,.82-.42,1.31-1.65,1.93-.94.47-1.19.66-1.34.94A1.47,1.47,0,0,0,546.87,172.6Z"/><path class="cls-23" d="M551.7,167.62h.59v1.78h-.59Z"/><path class="cls-23" d="M553.42,170h2.09v.6h-2.09Z"/><path class="cls-23" d="M556.78,171.74l.65-.16a1.3,1.3,0,0,0,1.43,1.13,1.36,1.36,0,1,0,0-2.71,1.79,1.79,0,0,0-1.35.59l-.58-.15.53-2.82h2.94v.63H558l-.31,1.55h0a2.12,2.12,0,0,1,1.28-.38,1.89,1.89,0,0,1,1.95,1.93,1.93,1.93,0,0,1-2,2A2,2,0,0,1,556.78,171.74Z"/><path class="cls-23" d="M562.16,167.62h.59v1.78h-.59Zm1.06,0h.58v1.78h-.58Z"/><path class="cls-23" d="M567.5,171.78l1.31-1.3-1.31-1.29.39-.39,1.29,1.31,1.29-1.31.39.39-1.31,1.29,1.31,1.3-.39.39-1.29-1.31-1.29,1.31Z"/><path class="cls-23" d="M575,168.37l-1.25.81v-.69l1.33-.87h.58v5.6H575Z"/><path class="cls-23" d="M579.92,172.07h-2.8v-.57l2.47-3.88h1v3.87h.71v.58h-.71v1.15h-.67Zm0-.58v-3.35h0l-2.13,3.35Z"/><path class="cls-23" d="M582.65,167.62h.59v1.78h-.59Z"/><path class="cls-23" d="M584.65,170h2.09v.6h-2.09Z"/><path class="cls-23" d="M587.89,171.66a1.57,1.57,0,0,1,1.05-1.5v0a1.25,1.25,0,0,1-.73-1.17,1.78,1.78,0,0,1,3.51,0,1.27,1.27,0,0,1-.73,1.17v0a1.56,1.56,0,0,1,1,1.5c0,1-.82,1.68-2.07,1.68S587.89,172.67,587.89,171.66Zm3.46,0c0-.67-.54-1.1-1.39-1.1s-1.39.43-1.39,1.1.54,1.08,1.39,1.08S591.35,172.28,591.35,171.62Zm-.28-2.61c0-.54-.45-.91-1.11-.91s-1.1.37-1.1.91.44.88,1.1.88S591.07,169.55,591.07,169Z"/><path class="cls-23" d="M593.46,167.62H594v1.78h-.58Zm1.06,0h.58v1.78h-.58Z"/><path class="cls-23" d="M135.62,529.9h2.15a1.46,1.46,0,0,1,1.64,1.44,1.21,1.21,0,0,1-.66,1.16h0a1.34,1.34,0,0,1,.86,1.33c0,1.08-.68,1.65-2,1.65h-2Zm2,2.37c.73,0,1.09-.29,1.09-.89s-.37-.86-1.09-.86h-1.37v1.75Zm-.09,2.6c1,0,1.39-.31,1.39-1s-.39-1-1.38-1h-1.29v2Z"/><path class="cls-23" d="M141.25,529.9h3.36v.62H141.9v1.79h2.48v.59H141.9v2h2.71v.62h-3.36Z"/><path class="cls-23" d="M146.2,529.9h1.74c1.42,0,2.42,1,2.42,2.79,0,2-1,2.8-2.47,2.8H146.2Zm1.65,5c1.14,0,1.84-.6,1.84-2.18s-.7-2.17-1.79-2.17h-1.05v4.35Z"/><path class="cls-23" d="M154.49,533.19l1.23,2.3h-.78l-1.18-2.27h-1.12v2.27H152V529.9h2c1.17,0,1.87.62,1.87,1.65a1.55,1.55,0,0,1-1.4,1.63Zm-.52-.59c.82,0,1.25-.36,1.25-1.05s-.42-1-1.25-1h-1.33v2.08Z"/><path class="cls-23" d="M157.15,532.7c0-1.75.94-2.92,2.36-2.92s2.36,1.17,2.36,2.92-.94,2.91-2.36,2.91S157.15,534.45,157.15,532.7Zm4,0c0-1.42-.64-2.3-1.69-2.3s-1.7.88-1.7,2.3.65,2.29,1.7,2.29S161.2,534.11,161.2,532.7Z"/><path class="cls-23" d="M163.21,532.7c0-1.75.95-2.92,2.36-2.92s2.36,1.17,2.36,2.92-.94,2.91-2.36,2.91S163.21,534.45,163.21,532.7Zm4.06,0c0-1.42-.65-2.3-1.7-2.3s-1.69.88-1.69,2.3.64,2.29,1.69,2.29S167.27,534.11,167.27,532.7Z"/><path class="cls-23" d="M169.56,529.9h.88l1.81,4.44h0l1.82-4.44H175v5.59h-.66V531h0l-1.88,4.54h-.28L170.23,531h0v4.54h-.66Z"/><path class="cls-23" d="M180,534.87h3v.62H179.3V535a2,2,0,0,1,.23-1.07c.2-.37.54-.64,1.42-1.09,1.16-.6,1.5-.94,1.5-1.5s-.49-.91-1.17-.91a1.3,1.3,0,0,0-1.4,1.36l-.66-.06a1.92,1.92,0,0,1,2.06-1.92,1.68,1.68,0,0,1,1.83,1.53c0,.83-.42,1.31-1.65,1.94-.93.47-1.19.65-1.33.93A1.58,1.58,0,0,0,180,534.87Z"/><path class="cls-23" d="M134.54,539.15l-1.25.81v-.7l1.33-.86h.58V544h-.66Z"/><path class="cls-23" d="M136.79,542.13l.66-.1c.11,1,.58,1.46,1.41,1.46a1.07,1.07,0,0,0,1.2-1.08c0-.76-.44-1.12-1.32-1.12h-.4v-.57h.4a1.05,1.05,0,0,0,1.17-.91c0-.57-.4-.93-1.06-.93a1.19,1.19,0,0,0-1.27,1.06l-.64-.1a1.8,1.8,0,0,1,1.91-1.56,1.54,1.54,0,0,1,1.73,1.48,1.36,1.36,0,0,1-.76,1.18h0a1.5,1.5,0,0,1,.89,1.46,1.68,1.68,0,0,1-1.85,1.7A2,2,0,0,1,136.79,542.13Z"/><path class="cls-23" d="M142.37,538.4H143v1.78h-.58Z"/><path class="cls-23" d="M144.09,540.8h2.09v.6h-2.09Z"/><path class="cls-23" d="M151.9,542.19a1.88,1.88,0,0,1-2,1.92c-1.47,0-2.3-1.09-2.3-2.83s1-3,2.32-3a1.81,1.81,0,0,1,1.87,1.49l-.62.15a1.19,1.19,0,0,0-1.23-1c-.92,0-1.6.88-1.66,2.23h0a2,2,0,0,1,3.58,1.08Zm-.65,0a1.28,1.28,0,0,0-1.34-1.35,1.33,1.33,0,0,0-1.41,1.35,1.31,1.31,0,0,0,1.42,1.32A1.28,1.28,0,0,0,151.25,542.19Z"/><path class="cls-23" d="M153.43,538.4H154v1.78h-.58Zm1,0h.59v1.78h-.59Z"/><path class="cls-23" d="M158.76,542.55l1.32-1.29-1.32-1.3.4-.39,1.28,1.31,1.3-1.31.39.39-1.31,1.3,1.31,1.29-.39.4-1.3-1.32L159.16,543Z"/><path class="cls-23" d="M166.31,539.15l-1.25.81v-.7l1.33-.86H167V544h-.66Z"/><path class="cls-23" d="M169.75,539.15l-1.25.81v-.7l1.33-.86h.58V544h-.66Z"/><path class="cls-23" d="M172.37,538.4H173v1.78h-.58Z"/><path class="cls-23" d="M174.37,540.8h2.08v.6h-2.08Z"/><path class="cls-23" d="M177.73,542.52l.64-.16a1.42,1.42,0,1,0,1.44-1.59,1.83,1.83,0,0,0-1.36.59l-.58-.14.54-2.82h2.93V539h-2.43l-.3,1.55h0a2.08,2.08,0,0,1,1.29-.38,1.87,1.87,0,0,1,1.94,1.92,1.92,1.92,0,0,1-2,2A2,2,0,0,1,177.73,542.52Z"/><path class="cls-23" d="M183.11,538.4h.58v1.78h-.58Zm1,0h.59v1.78h-.59Z"/><path class="cls-23" d="M235.06,145.22h.66v5h2.52v.62h-3.18Z"/><path class="cls-23" d="M239.71,145.22h.66v5.6h-.66Z"/><path class="cls-23" d="M241.71,145.22h.69l1.66,4.72h0l1.67-4.72h.69l-2,5.6h-.7Z"/><path class="cls-23" d="M247.79,145.22h.65v5.6h-.65Z"/><path class="cls-23" d="M250.35,145.22h.78l2.54,4.57h0v-4.57h.66v5.6h-.78L251,146.26h0v4.56h-.66Z"/><path class="cls-23" d="M256,148c0-1.77.93-2.91,2.36-2.91a2.07,2.07,0,0,1,2.13,1.84l-.66.12a1.43,1.43,0,0,0-1.47-1.34c-1,0-1.69.88-1.69,2.29s.64,2.3,1.69,2.3a1.43,1.43,0,0,0,1.5-1.64h-1.43v-.62h2.07v.56a2.08,2.08,0,0,1-2.14,2.32C256.91,150.94,256,149.8,256,148Z"/><path class="cls-23" d="M264.09,150.94l2.86-6,.45.2-2.87,6Z"/><path class="cls-23" d="M271.33,145.22h1.75c1.41,0,2.41,1,2.41,2.8,0,2-1,2.8-2.46,2.8h-1.7Zm1.66,5c1.13,0,1.84-.6,1.84-2.18s-.71-2.17-1.79-2.17H272v4.35Z"/><path class="cls-23" d="M277.13,145.22h.66v5.6h-.66Z"/><path class="cls-23" d="M279.7,145.22h.77l2.55,4.57h0v-4.57h.67v5.6h-.79l-2.54-4.56h0v4.56h-.65Z"/><path class="cls-23" d="M285.62,145.22h.66v5.6h-.66Z"/><path class="cls-23" d="M288.19,145.22H289l2.55,4.57h0v-4.57h.67v5.6h-.79l-2.54-4.56h0v4.56h-.65Z"/><path class="cls-23" d="M293.82,148c0-1.77.92-2.91,2.35-2.91A2.07,2.07,0,0,1,298.3,147l-.65.12a1.43,1.43,0,0,0-1.48-1.34c-1,0-1.69.88-1.69,2.29s.65,2.3,1.69,2.3a1.43,1.43,0,0,0,1.5-1.64h-1.42v-.62h2.07v.56a2.09,2.09,0,0,1-2.15,2.32C294.74,150.94,293.82,149.8,293.82,148Z"/><path class="cls-23" d="M305,148.52l1.23,2.3h-.77l-1.19-2.27h-1.12v2.27h-.65v-5.6h2a1.63,1.63,0,0,1,1.86,1.66,1.54,1.54,0,0,1-1.4,1.62Zm-.52-.59c.82,0,1.26-.36,1.26-1.05s-.43-1-1.26-1h-1.33v2.08Z"/><path class="cls-23" d="M307.65,148c0-1.75,1-2.91,2.36-2.91s2.36,1.16,2.36,2.91-.94,2.92-2.36,2.92S307.65,149.77,307.65,148Zm4.06,0c0-1.41-.65-2.29-1.7-2.29s-1.69.88-1.69,2.29.64,2.3,1.69,2.3S311.71,149.44,311.71,148Z"/><path class="cls-23" d="M313.71,148c0-1.75,1-2.91,2.36-2.91s2.36,1.16,2.36,2.91-.94,2.92-2.36,2.92S313.71,149.77,313.71,148Zm4.06,0c0-1.41-.65-2.29-1.7-2.29s-1.69.88-1.69,2.29.64,2.3,1.69,2.3S317.77,149.44,317.77,148Z"/><path class="cls-23" d="M320.06,145.22h.88l1.82,4.45h0l1.82-4.45h.88v5.6h-.67v-4.54h0l-1.89,4.54h-.28l-1.89-4.54h0v4.54h-.66Z"/><path class="cls-23" d="M253.13,154.48l-1.25.8v-.69l1.33-.87h.58v5.6h-.66Z"/><path class="cls-23" d="M255.39,157.84l.64-.16a1.31,1.31,0,0,0,1.44,1.14,1.36,1.36,0,1,0,0-2.72,1.83,1.83,0,0,0-1.36.59l-.58-.14.54-2.83H259v.63h-2.43l-.3,1.55h0a2.08,2.08,0,0,1,1.29-.39,1.88,1.88,0,0,1,1.94,1.93,1.92,1.92,0,0,1-2,2A2,2,0,0,1,255.39,157.84Z"/><path class="cls-23" d="M260.77,153.72h.58v1.79h-.58Z"/><path class="cls-23" d="M262.49,156.13h2.08v.6h-2.08Z"/><path class="cls-23" d="M268.42,158.18h-2.8v-.58l2.46-3.88h1v3.88h.71v.58h-.71v1.14h-.66Zm0-.58v-3.36h0l-2.13,3.36Z"/><path class="cls-23" d="M271.15,153.72h.58v1.79h-.58Zm1.06,0h.58v1.79h-.58Z"/><path class="cls-23" d="M276.49,157.88l1.31-1.29-1.31-1.3.39-.39,1.28,1.31,1.3-1.31.39.39-1.31,1.3,1.31,1.29-.39.39-1.3-1.31-1.28,1.31Z"/><path class="cls-23" d="M283.73,158.7h3v.62H283v-.53a2,2,0,0,1,.23-1.06c.2-.37.54-.64,1.42-1.09,1.16-.6,1.5-.94,1.5-1.5s-.49-.91-1.17-.91a1.3,1.3,0,0,0-1.4,1.36l-.66-.06a1.92,1.92,0,0,1,2.06-1.92,1.68,1.68,0,0,1,1.83,1.53c0,.82-.41,1.31-1.64,1.94-.94.47-1.19.65-1.34.93A1.58,1.58,0,0,0,283.73,158.7Z"/><path class="cls-23" d="M288.18,156.52c0-1.81.9-2.91,2.21-2.91s2.22,1.1,2.22,2.91-.91,2.92-2.22,2.92S288.18,158.34,288.18,156.52Zm3.76,0c0-1.46-.61-2.29-1.55-2.29s-1.55.83-1.55,2.29.62,2.3,1.55,2.3S291.94,158,291.94,156.52Z"/><path class="cls-23" d="M294.14,153.72h.59v1.79h-.59Z"/><path class="cls-23" d="M296.14,156.13h2.09v.6h-2.09Z"/><path class="cls-23" d="M300.49,154.48l-1.25.8v-.69l1.33-.87h.58v5.6h-.66Z"/><path class="cls-23" d="M303.93,154.48l-1.25.8v-.69l1.33-.87h.58v5.6h-.66Z"/><path class="cls-23" d="M306.55,153.72h.59v1.79h-.59Zm1.06,0h.58v1.79h-.58Z"/><path class="cls-23" d="M274.82,329.4h3.37V330h-2.71v2H278v.59h-2.49V335h-.66Z"/><path class="cls-23" d="M279.75,332.2c0-1.75.94-2.92,2.35-2.92s2.36,1.17,2.36,2.92-.94,2.92-2.36,2.92S279.75,334,279.75,332.2Zm4.05,0c0-1.41-.65-2.29-1.7-2.29s-1.69.88-1.69,2.29.65,2.3,1.69,2.3S283.8,333.62,283.8,332.2Z"/><path class="cls-23" d="M287.45,332.67l-2-3.27h.77l1.51,2.62h0l1.52-2.62h.76l-1.95,3.27V335h-.67Z"/><path class="cls-23" d="M291.72,329.4h3.36V330h-2.7v1.79h2.48v.59h-2.48v2h2.7V335h-3.36Z"/><path class="cls-23" d="M299.5,332.7l1.23,2.3H300l-1.18-2.27h-1.12V335H297v-5.6h2c1.17,0,1.86.63,1.86,1.66a1.54,1.54,0,0,1-1.39,1.62Zm-.52-.59c.82,0,1.25-.36,1.25-1.05s-.42-1-1.25-1h-1.33v2.08Z"/><path class="cls-23" d="M169.24,282.76h.68l.82,4.55h0l1.38-4.55h.62l1.39,4.55h0l.82-4.55h.68l-1,5.6h-.8l-1.37-4.5h0l-1.36,4.5h-.81Z"/><path class="cls-23" d="M176,288.48l2.86-6,.44.2-2.86,6Z"/><path class="cls-23" d="M179.85,286.5l.66-.11a1.46,1.46,0,0,0,1.66,1.46c.77,0,1.28-.36,1.28-.9s-.37-.88-1.54-1.25c-1.34-.44-1.78-.83-1.78-1.58s.73-1.48,1.79-1.48a2,2,0,0,1,2,1.63l-.65.14a1.34,1.34,0,0,0-1.39-1.15c-.68,0-1.13.34-1.13.86s.32.66,1.35,1c1.45.47,2,1,2,1.84s-.79,1.54-2,1.54A2.06,2.06,0,0,1,179.85,286.5Z"/><path class="cls-23" d="M185.07,285.56c0-1.75,1-2.92,2.36-2.92s2.36,1.17,2.36,2.92-.94,2.92-2.36,2.92S185.07,287.31,185.07,285.56Zm4.06,0c0-1.42-.65-2.3-1.7-2.3s-1.69.88-1.69,2.3.64,2.29,1.69,2.29S189.13,287,189.13,285.56Z"/><path class="cls-23" d="M87.2,183.52l1.23,2.3h-.77l-1.19-2.27H85.35v2.27H84.7v-5.59h2c1.16,0,1.86.62,1.86,1.65a1.55,1.55,0,0,1-1.4,1.63Zm-.52-.59c.82,0,1.26-.36,1.26-1.05s-.43-1-1.26-1H85.35v2.08Z"/><path class="cls-23" d="M81,208.57h1.74c1.42,0,2.41,1,2.41,2.79,0,2-1,2.8-2.46,2.8H81Zm1.65,5c1.14,0,1.84-.6,1.84-2.18s-.7-2.17-1.79-2.17h-1v4.35Z"/><path class="cls-23" d="M86,208.57h.68l.83,4.55h0l1.38-4.55h.63l1.39,4.55h0l.82-4.55h.68l-1,5.59h-.8l-1.38-4.49h0l-1.37,4.49H87Z"/><path class="cls-23" d="M245.41,448.81h.68l.82,4.55h0l1.38-4.55h.62l1.39,4.55h0l.82-4.55h.68l-1,5.6H250l-1.37-4.49h0l-1.37,4.49h-.8Z"/><path class="cls-23" d="M252.14,454.53l2.85-6,.45.2-2.86,6Z"/><path class="cls-23" d="M256.49,448.81h1.75c1.41,0,2.41,1,2.41,2.79,0,2-1,2.81-2.46,2.81h-1.7Zm1.66,5c1.13,0,1.84-.6,1.84-2.19,0-1.43-.71-2.16-1.79-2.16h-1.05v4.35Z"/><path class="cls-23" d="M59.74,133.21H58v-.62h4.15v.62H60.41v5h-.67Z"/><path class="cls-23" d="M63.62,132.59H67v.62h-2.7V135h2.48v.59H64.28v2H67v.62H63.62Z"/><path class="cls-23" d="M71.08,135.88l1.23,2.3h-.78l-1.18-2.27H69.23v2.27h-.66v-5.59h2c1.17,0,1.87.62,1.87,1.65a1.54,1.54,0,0,1-1.4,1.62Zm-.52-.59c.82,0,1.25-.36,1.25-1s-.42-1-1.25-1H69.23v2.08Z"/><path class="cls-23" d="M76.52,135.88l1.23,2.3H77l-1.18-2.27H74.68v2.27H74v-5.59h2c1.17,0,1.86.62,1.86,1.65a1.54,1.54,0,0,1-1.4,1.62Zm-.52-.59c.83,0,1.26-.36,1.26-1s-.43-1-1.26-1H74.68v2.08Z"/><path class="cls-23" d="M82.56,137.06H80l-.39,1.12H79l2-5.59h.63l2,5.59H83Zm-.2-.58-1-3h0l-1,3Z"/><path class="cls-23" d="M84.49,135.39c0-1.76.94-2.92,2.36-2.92A2.1,2.1,0,0,1,89,134.42l-.66.11c-.16-.94-.67-1.44-1.48-1.44-1,0-1.7.88-1.7,2.3s.64,2.29,1.7,2.29c.86,0,1.37-.54,1.47-1.57l.68.09a2.07,2.07,0,0,1-2.15,2.1C85.41,138.3,84.49,137.16,84.49,135.39Z"/><path class="cls-23" d="M90.58,132.59h3.36v.62H91.23V135h2.48v.59H91.23v2h2.71v.62H90.58Z"/><path class="cls-23" d="M53.41,141.84l-1.24.81V142l1.32-.86h.59v5.59h-.67Z"/><path class="cls-23" d="M55.67,145.2l.65-.16a1.42,1.42,0,1,0,1.43-1.58,1.81,1.81,0,0,0-1.35.59l-.58-.14.53-2.82h2.94v.62H56.86l-.31,1.55h0a2.08,2.08,0,0,1,1.29-.38,1.87,1.87,0,0,1,1.94,1.92,1.93,1.93,0,0,1-2,2A2,2,0,0,1,55.67,145.2Z"/><path class="cls-23" d="M61.05,141.09h.59v1.78h-.59Z"/><path class="cls-23" d="M62.77,143.49h2.09v.6H62.77Z"/><path class="cls-23" d="M67.12,141.84l-1.24.81V142l1.32-.86h.59v5.59h-.67Z"/><path class="cls-23" d="M69.75,141.09h.58v1.78h-.58Zm1.06,0h.58v1.78h-.58Z"/><path class="cls-23" d="M75.09,145.24,76.4,144l-1.31-1.3.39-.39,1.29,1.31,1.29-1.31.39.39L77.14,144l1.31,1.29-.39.4-1.29-1.32-1.29,1.32Z"/><path class="cls-23" d="M85.46,143.55c0,2.27-.61,3.25-2,3.25a1.78,1.78,0,0,1-1.8-1.42l.61-.16a1.18,1.18,0,0,0,1.19,1c.89,0,1.3-.57,1.36-2h0a1.7,1.7,0,0,1-1.44.63,1.8,1.8,0,0,1-2-1.92,1.88,1.88,0,0,1,2-1.89C84.63,141,85.46,141.83,85.46,143.55Zm-.77-.65a1.33,1.33,0,1,0-1.32,1.3A1.25,1.25,0,0,0,84.69,142.9Z"/><path class="cls-23" d="M87,141.09h.58v1.78H87Z"/><path class="cls-23" d="M89,143.49h2.08v.6H89Z"/><path class="cls-23" d="M92.28,145.12a1.57,1.57,0,0,1,1-1.5h0a1.25,1.25,0,0,1-.74-1.17,1.79,1.79,0,0,1,3.52,0,1.27,1.27,0,0,1-.74,1.17h0a1.57,1.57,0,0,1,1,1.5c0,1-.81,1.68-2.06,1.68S92.28,146.13,92.28,145.12Zm3.45,0c0-.67-.53-1.1-1.38-1.1s-1.39.43-1.39,1.1.53,1.08,1.39,1.08S95.73,145.75,95.73,145.08Zm-.28-2.6c0-.55-.44-.91-1.1-.91s-1.1.36-1.1.91.44.88,1.1.88S95.45,143,95.45,142.48Z"/><path class="cls-23" d="M97.85,141.09h.58v1.78h-.58Zm1.05,0h.58v1.78H98.9Z"/><polygon class="cls-23" points="323.77 382.83 329.17 368.43 334.57 382.83 323.77 382.83"/></g></g></svg>