<svg xmlns="http://www.w3.org/2000/svg" viewBox="0 0 290.498 430.096"><title>Asset 1</title><g id="Layer_2" data-name="Layer 2"><g id="Unit5-10D_Rest"><g id="LWPOLYLINE"><rect x="156.587" y="56.626" width="85.732" height="92.227" style="fill:#fff;stroke:#231f20;stroke-linecap:round;stroke-linejoin:round;stroke-width:0.15px"/></g><g id="LWPOLYLINE-2" data-name="LWPOLYLINE"><rect x="11.702" y="58.856" width="126.381" height="98.242" style="fill:#fff;stroke:#231f20;stroke-linecap:round;stroke-linejoin:round;stroke-width:0.15px"/></g><g id="LWPOLYLINE-3" data-name="LWPOLYLINE"><rect x="260.649" y="74.614" width="15" height="56.25" style="fill:none;stroke:#231f20;stroke-linecap:round;stroke-linejoin:round;stroke-width:0.150000005960464px"/></g><g id="LWPOLYLINE-4" data-name="LWPOLYLINE"><rect x="65.861" y="90.323" width="32.271" height="32.271" style="fill:none;stroke:#231f20;stroke-linecap:round;stroke-linejoin:round;stroke-width:0.150000005960464px"/></g><g id="LWPOLYLINE-5" data-name="LWPOLYLINE"><rect x="5.724" y="65.789" width="33.75" height="84.375" style="fill:#fff;stroke:#231f20;stroke-linecap:round;stroke-linejoin:round;stroke-width:0.150000005960464px"/></g><g id="LWPOLYLINE-6" data-name="LWPOLYLINE"><rect x="260.649" y="74.614" width="15" height="56.25" style="fill:#fff;stroke:#231f20;stroke-linecap:round;stroke-linejoin:round;stroke-width:0.150000005960464px"/></g><g id="LWPOLYLINE-7" data-name="LWPOLYLINE"><polygon points="252.75 58.475 251.065 56.88 250.811 57.148 250.287 57.407 249.72 57.263 248.192 56.065 246.948 55.098 245.901 54.215 244.545 53.013 243.34 51.879 242.854 51.427 242.478 51.042 241.994 50.555 241.456 50.001 240.225 48.681 239.106 47.415 238.248 46.398 238.074 45.84 238.304 45.302 238.558 45.034 236.414 43.003 252.032 26.514 268.368 41.986 252.75 58.475" style="fill:#fff;stroke:#231f20;stroke-linecap:round;stroke-linejoin:round;stroke-width:0.150000005960464px"/></g><g id="LINE"><line x1="254.176" y1="28.544" x2="238.565" y2="45.033" style="fill:none;stroke:#231f20;stroke-linecap:round;stroke-linejoin:round;stroke-width:0.150000005960464px"/></g><g id="LINE-2" data-name="LINE"><line x1="251.065" y1="56.88" x2="266.683" y2="40.391" style="fill:none;stroke:#231f20;stroke-linecap:round;stroke-linejoin:round;stroke-width:0.150000005960464px"/></g><g id="ARC"><path d="M250.7,32.22A40.149,40.149,0,0,0,263.2,44.066" style="fill:none;stroke:#231f20;stroke-linecap:round;stroke-linejoin:round;stroke-width:0.150000005960464px"/></g><g id="ARC-2" data-name="ARC"><path d="M253.016,29.77a101.081,101.081,0,0,0,12.507,11.846" style="fill:none;stroke:#231f20;stroke-linecap:round;stroke-linejoin:round;stroke-width:0.150000005960464px"/></g><g id="LWPOLYLINE-8" data-name="LWPOLYLINE"><polygon points="44.33 63.631 45.276 33.632 71.994 33.638 72.924 63.639 44.33 63.631" style="fill:#fff;stroke:#231f20;stroke-linecap:round;stroke-linejoin:round;stroke-width:0.150000005960464px"/></g><g id="LINE-3" data-name="LINE"><line x1="48.317" y1="63.632" x2="49.262" y2="33.633" style="fill:none;stroke:#231f20;stroke-linecap:round;stroke-linejoin:round;stroke-width:0.150000005960464px"/></g><g id="LINE-4" data-name="LINE"><line x1="49.136" y1="37.851" x2="68.131" y2="37.856" style="fill:none;stroke:#231f20;stroke-linecap:round;stroke-linejoin:round;stroke-width:0.150000005960464px"/></g><g id="LINE-5" data-name="LINE"><line x1="68.008" y1="33.637" x2="68.938" y2="63.638" style="fill:none;stroke:#231f20;stroke-linecap:round;stroke-linejoin:round;stroke-width:0.150000005960464px"/></g><path d="M57.24,38.141s-.632,2.125,2.937,5.116,3.744,2.767,4.148,2.436,0-2.858-3.385-5.372S57.764,37.566,57.24,38.141Z" style="fill:#fff;stroke:#231f20;stroke-miterlimit:10;stroke-width:0.150000005960464px"/><path d="M64.884,40.121s-4.051-3.29-5.433-2.161,5.708,5.131,5.708,5.131,2.846,1.794,3,.523S64.884,40.121,64.884,40.121Z" style="fill:#fff;stroke:#231f20;stroke-miterlimit:10;stroke-width:0.150000005960464px"/><g id="LWPOLYLINE-9" data-name="LWPOLYLINE"><polygon points="89.908 63.631 90.853 33.632 117.571 33.638 118.501 63.639 89.908 63.631" style="fill:#fff;stroke:#231f20;stroke-linecap:round;stroke-linejoin:round;stroke-width:0.150000005960464px"/></g><g id="LINE-6" data-name="LINE"><line x1="93.894" y1="63.632" x2="94.839" y2="33.633" style="fill:none;stroke:#231f20;stroke-linecap:round;stroke-linejoin:round;stroke-width:0.150000005960464px"/></g><g id="LINE-7" data-name="LINE"><line x1="94.713" y1="37.851" x2="113.709" y2="37.856" style="fill:none;stroke:#231f20;stroke-linecap:round;stroke-linejoin:round;stroke-width:0.150000005960464px"/></g><g id="LINE-8" data-name="LINE"><line x1="113.585" y1="33.637" x2="114.515" y2="63.638" style="fill:none;stroke:#231f20;stroke-linecap:round;stroke-linejoin:round;stroke-width:0.150000005960464px"/></g><path d="M102.818,38.141s-.633,2.125,2.936,5.116,3.744,2.767,4.148,2.436,0-2.858-3.385-5.372S103.341,37.566,102.818,38.141Z" style="fill:#fff;stroke:#231f20;stroke-miterlimit:10;stroke-width:0.150000005960464px"/><path d="M110.461,40.121s-4.051-3.29-5.433-2.161,5.708,5.131,5.708,5.131,2.846,1.794,3,.523S110.461,40.121,110.461,40.121Z" style="fill:#fff;stroke:#231f20;stroke-miterlimit:10;stroke-width:0.150000005960464px"/><rect x="179.043" y="374.852" width="24.275" height="22.031" style="fill:#fff"/><rect x="178.525" y="372.563" width="25.313" height="27.891" style="fill:#fff;stroke:#231f20;stroke-linecap:round;stroke-linejoin:round;stroke-width:0.25px"/><g id="LWPOLYLINE-10" data-name="LWPOLYLINE"><rect x="130.583" y="78.333" width="15" height="56.25" style="fill:#fff;stroke:#231f20;stroke-linecap:round;stroke-linejoin:round;stroke-width:0.150000005960464px"/></g><rect x="119.556" y="106.214" width="44.903" height="1.758" transform="translate(249.1 -34.914) rotate(90)" style="fill:#fff;stroke:#231f20;stroke-linecap:round;stroke-linejoin:round;stroke-width:0.150000005960464px"/><g id="LINE-9" data-name="LINE"><line x1="10.411" y1="120.477" x2="38.492" y2="120.477" style="fill:none;stroke:#231f20;stroke-linecap:round;stroke-linejoin:round;stroke-width:0.150000005960464px"/></g><g id="LWPOLYLINE-11" data-name="LWPOLYLINE"><polyline points="39.474 70.477 10.411 70.477 10.411 145.477 39.474 145.477" style="fill:none;stroke:#231f20;stroke-linecap:round;stroke-linejoin:round;stroke-width:0.150000005960464px"/></g><g id="ARC-3" data-name="ARC"><path d="M14.905,144.539a59.552,59.552,0,0,0,0-23.125" style="fill:none;stroke:#231f20;stroke-linecap:round;stroke-linejoin:round;stroke-width:0.150000005960464px"/></g><g id="ARC-4" data-name="ARC"><path d="M14.905,121.414a1.223,1.223,0,0,0-.982-.937" style="fill:none;stroke:#231f20;stroke-linecap:round;stroke-linejoin:round;stroke-width:0.150000005960464px"/></g><g id="ARC-5" data-name="ARC"><path d="M13.923,145.477a1.224,1.224,0,0,0,.982-.938" style="fill:none;stroke:#231f20;stroke-linecap:round;stroke-linejoin:round;stroke-width:0.150000005960464px"/></g><g id="ARC-6" data-name="ARC"><path d="M13.923,120.477a1.224,1.224,0,0,0,.982-.938" style="fill:none;stroke:#231f20;stroke-linecap:round;stroke-linejoin:round;stroke-width:0.150000005960464px"/></g><g id="ARC-7" data-name="ARC"><path d="M14.905,71.414a1.223,1.223,0,0,0-.982-.937" style="fill:none;stroke:#231f20;stroke-linecap:round;stroke-linejoin:round;stroke-width:0.150000005960464px"/></g><g id="ARC-8" data-name="ARC"><path d="M39.474,121.414a1.224,1.224,0,0,0-.982-.937" style="fill:none;stroke:#231f20;stroke-linecap:round;stroke-linejoin:round;stroke-width:0.150000005960464px"/></g><g id="ARC-9" data-name="ARC"><path d="M38.492,120.477a1.226,1.226,0,0,0,.982-.938" style="fill:none;stroke:#231f20;stroke-linecap:round;stroke-linejoin:round;stroke-width:0.150000005960464px"/></g><g id="ARC-10" data-name="ARC"><path d="M38.492,145.477a1.226,1.226,0,0,0,.982-.938" style="fill:none;stroke:#231f20;stroke-linecap:round;stroke-linejoin:round;stroke-width:0.150000005960464px"/></g><g id="ARC-11" data-name="ARC"><path d="M39.474,71.414a1.224,1.224,0,0,0-.982-.937" style="fill:none;stroke:#231f20;stroke-linecap:round;stroke-linejoin:round;stroke-width:0.150000005960464px"/></g><g id="LINE-10" data-name="LINE"><line x1="10.411" y1="95.477" x2="38.492" y2="95.477" style="fill:none;stroke:#231f20;stroke-linecap:round;stroke-linejoin:round;stroke-width:0.150000005960464px"/></g><g id="ARC-12" data-name="ARC"><path d="M14.905,94.539a59.552,59.552,0,0,0,0-23.125" style="fill:none;stroke:#231f20;stroke-linecap:round;stroke-linejoin:round;stroke-width:0.150000005960464px"/></g><g id="ARC-13" data-name="ARC"><path d="M13.923,95.477a1.224,1.224,0,0,0,.982-.938" style="fill:none;stroke:#231f20;stroke-linecap:round;stroke-linejoin:round;stroke-width:0.150000005960464px"/></g><g id="ARC-14" data-name="ARC"><path d="M14.905,96.414a1.223,1.223,0,0,0-.982-.937" style="fill:none;stroke:#231f20;stroke-linecap:round;stroke-linejoin:round;stroke-width:0.150000005960464px"/></g><g id="ARC-15" data-name="ARC"><path d="M38.492,95.477a1.226,1.226,0,0,0,.982-.938" style="fill:none;stroke:#231f20;stroke-linecap:round;stroke-linejoin:round;stroke-width:0.150000005960464px"/></g><g id="ARC-16" data-name="ARC"><path d="M39.474,96.414a1.224,1.224,0,0,0-.982-.937" style="fill:none;stroke:#231f20;stroke-linecap:round;stroke-linejoin:round;stroke-width:0.150000005960464px"/></g><g id="ARC-17" data-name="ARC"><path d="M14.905,119.539a59.552,59.552,0,0,0,0-23.125" style="fill:none;stroke:#231f20;stroke-linecap:round;stroke-linejoin:round;stroke-width:0.150000005960464px"/></g><g id="ARC-18" data-name="ARC"><path d="M14.905,121.414a1.223,1.223,0,0,0-.982-.937" style="fill:none;stroke:#231f20;stroke-linecap:round;stroke-linejoin:round;stroke-width:0.150000005960464px"/></g><g id="ARC-19" data-name="ARC"><path d="M13.923,145.477a1.224,1.224,0,0,0,.982-.938" style="fill:none;stroke:#231f20;stroke-linecap:round;stroke-linejoin:round;stroke-width:0.150000005960464px"/></g><g id="ARC-20" data-name="ARC"><path d="M13.923,120.477a1.224,1.224,0,0,0,.982-.938" style="fill:none;stroke:#231f20;stroke-linecap:round;stroke-linejoin:round;stroke-width:0.150000005960464px"/></g><g id="ARC-21" data-name="ARC"><path d="M14.905,71.414a1.223,1.223,0,0,0-.982-.937" style="fill:none;stroke:#231f20;stroke-linecap:round;stroke-linejoin:round;stroke-width:0.150000005960464px"/></g><g id="ARC-22" data-name="ARC"><path d="M39.474,121.414a1.224,1.224,0,0,0-.982-.937" style="fill:none;stroke:#231f20;stroke-linecap:round;stroke-linejoin:round;stroke-width:0.150000005960464px"/></g><g id="ARC-23" data-name="ARC"><path d="M38.492,120.477a1.226,1.226,0,0,0,.982-.938" style="fill:none;stroke:#231f20;stroke-linecap:round;stroke-linejoin:round;stroke-width:0.150000005960464px"/></g><g id="ARC-24" data-name="ARC"><path d="M38.492,145.477a1.226,1.226,0,0,0,.982-.938" style="fill:none;stroke:#231f20;stroke-linecap:round;stroke-linejoin:round;stroke-width:0.150000005960464px"/></g><g id="ARC-25" data-name="ARC"><path d="M39.474,71.414a1.224,1.224,0,0,0-.982-.937" style="fill:none;stroke:#231f20;stroke-linecap:round;stroke-linejoin:round;stroke-width:0.150000005960464px"/></g><g id="ARC-26" data-name="ARC"><path d="M13.923,95.477a1.224,1.224,0,0,0,.982-.938" style="fill:none;stroke:#231f20;stroke-linecap:round;stroke-linejoin:round;stroke-width:0.150000005960464px"/></g><g id="ARC-27" data-name="ARC"><path d="M14.905,96.414a1.223,1.223,0,0,0-.982-.937" style="fill:none;stroke:#231f20;stroke-linecap:round;stroke-linejoin:round;stroke-width:0.150000005960464px"/></g><g id="ARC-28" data-name="ARC"><path d="M38.492,95.477a1.226,1.226,0,0,0,.982-.938" style="fill:none;stroke:#231f20;stroke-linecap:round;stroke-linejoin:round;stroke-width:0.150000005960464px"/></g><g id="ARC-29" data-name="ARC"><path d="M39.474,96.414a1.224,1.224,0,0,0-.982-.937" style="fill:none;stroke:#231f20;stroke-linecap:round;stroke-linejoin:round;stroke-width:0.150000005960464px"/></g><g id="LWPOLYLINE-12" data-name="LWPOLYLINE"><rect x="150.869" y="66.915" width="80.625" height="71.25" style="fill:#fff;stroke:#231f20;stroke-linecap:round;stroke-linejoin:round;stroke-width:0.150000005960464px"/></g><g id="LWPOLYLINE-13" data-name="LWPOLYLINE"><rect x="156.223" y="103.814" width="14.683" height="31.809" style="fill:none;stroke:#231f20;stroke-linecap:round;stroke-linejoin:round;stroke-width:0.150000005960464px"/></g><g id="LINE-12" data-name="LINE"><line x1="153.681" y1="66.915" x2="153.681" y2="138.165" style="fill:none;stroke:#231f20;stroke-linecap:round;stroke-linejoin:round;stroke-width:0.150000005960464px"/></g><g id="LWPOLYLINE-14" data-name="LWPOLYLINE"><rect x="156.223" y="69.457" width="14.683" height="31.809" style="fill:none;stroke:#231f20;stroke-linecap:round;stroke-linejoin:round;stroke-width:0.150000005960464px"/></g><g id="LWPOLYLINE-15" data-name="LWPOLYLINE"><rect x="150.868" y="140.26" width="15.938" height="15.897" style="fill:#fff;stroke:#231f20;stroke-linecap:round;stroke-linejoin:round;stroke-width:0.150000005960464px"/></g><g id="LWPOLYLINE-16" data-name="LWPOLYLINE"><rect x="150.868" y="48.923" width="15.938" height="15.897" style="fill:#fff;stroke:#231f20;stroke-linecap:round;stroke-linejoin:round;stroke-width:0.150000005960464px"/></g><g id="LWPOLYLINE-17" data-name="LWPOLYLINE"><path d="M59.628,231.185a11.979,11.979,0,0,1,18.059,0l-1.061.923v10.905H60.689v-10.9Z" style="fill:#fff;stroke:#231f20;stroke-linecap:round;stroke-linejoin:round;stroke-width:0.150000005960464px"/></g><g id="LWPOLYLINE-18" data-name="LWPOLYLINE"><path d="M37.128,231.185a11.979,11.979,0,0,1,18.059,0l-1.061.923v10.905H38.189v-10.9Z" style="fill:#fff;stroke:#231f20;stroke-linecap:round;stroke-linejoin:round;stroke-width:0.150000005960464px"/></g><g id="LWPOLYLINE-19" data-name="LWPOLYLINE"><line x1="62.54" y1="230.432" x2="62.54" y2="243.013" style="fill:none;stroke:#231f20;stroke-linecap:round;stroke-linejoin:round;stroke-width:0.150000005960464px"/></g><g id="LWPOLYLINE-20" data-name="LWPOLYLINE"><line x1="74.775" y1="230.432" x2="74.775" y2="243.013" style="fill:none;stroke:#231f20;stroke-linecap:round;stroke-linejoin:round;stroke-width:0.150000005960464px"/></g><g id="LWPOLYLINE-21" data-name="LWPOLYLINE"><path d="M76.626,232.108a10.567,10.567,0,0,0-15.937,0" style="fill:none;stroke:#231f20;stroke-linecap:round;stroke-linejoin:round;stroke-width:0.150000005960464px"/></g><g id="LWPOLYLINE-22" data-name="LWPOLYLINE"><path d="M81.989,231.185a11.974,11.974,0,0,1,18.058,0l-1.06.923v10.905H83.049v-10.9Z" style="fill:#fff;stroke:#231f20;stroke-linecap:round;stroke-linejoin:round;stroke-width:0.150000005960464px"/></g><g id="LWPOLYLINE-23" data-name="LWPOLYLINE"><line x1="84.9" y1="230.432" x2="84.9" y2="243.013" style="fill:none;stroke:#231f20;stroke-linecap:round;stroke-linejoin:round;stroke-width:0.150000005960464px"/></g><g id="LWPOLYLINE-24" data-name="LWPOLYLINE"><line x1="97.136" y1="230.432" x2="97.136" y2="243.013" style="fill:none;stroke:#231f20;stroke-linecap:round;stroke-linejoin:round;stroke-width:0.150000005960464px"/></g><g id="LWPOLYLINE-25" data-name="LWPOLYLINE"><path d="M98.987,232.108a10.572,10.572,0,0,0-15.938,0" style="fill:none;stroke:#231f20;stroke-linecap:round;stroke-linejoin:round;stroke-width:0.150000005960464px"/></g><g id="LWPOLYLINE-26" data-name="LWPOLYLINE"><line x1="40.04" y1="230.432" x2="40.04" y2="243.013" style="fill:none;stroke:#231f20;stroke-linecap:round;stroke-linejoin:round;stroke-width:0.150000005960464px"/></g><g id="LWPOLYLINE-27" data-name="LWPOLYLINE"><line x1="52.275" y1="230.432" x2="52.275" y2="243.013" style="fill:none;stroke:#231f20;stroke-linecap:round;stroke-linejoin:round;stroke-width:0.150000005960464px"/></g><g id="LWPOLYLINE-28" data-name="LWPOLYLINE"><path d="M54.126,232.108a10.567,10.567,0,0,0-15.937,0" style="fill:none;stroke:#231f20;stroke-linecap:round;stroke-linejoin:round;stroke-width:0.150000005960464px"/></g><g id="LWPOLYLINE-29" data-name="LWPOLYLINE"><path d="M58.149,178.028H75.962l-.291-5.812a3.75,3.75,0,0,0-3.745-3.563H62.185a3.75,3.75,0,0,0-3.745,3.563Z" style="fill:#fff;stroke:#231f20;stroke-linecap:round;stroke-linejoin:round;stroke-width:0.150000005960464px"/></g><g id="LWPOLYLINE-30" data-name="LWPOLYLINE"><path d="M83.93,178.028h17.813l-.291-5.812a3.749,3.749,0,0,0-3.745-3.563H87.966a3.75,3.75,0,0,0-3.745,3.563Z" style="fill:#fff;stroke:#231f20;stroke-linecap:round;stroke-linejoin:round;stroke-width:0.150000005960464px"/></g><g id="LWPOLYLINE-31" data-name="LWPOLYLINE"><path d="M74.554,178.028l-.287-5.742a2.344,2.344,0,0,0-2.341-2.226H62.185a2.344,2.344,0,0,0-2.341,2.226l-.287,5.742" style="fill:#fff;stroke:#231f20;stroke-linecap:round;stroke-linejoin:round;stroke-width:0.150000005960464px"/></g><g id="LWPOLYLINE-32" data-name="LWPOLYLINE"><path d="M100.431,178.263l-.287-5.742a2.343,2.343,0,0,0-2.341-2.227h-9.74a2.343,2.343,0,0,0-2.341,2.227l-.287,5.742" style="fill:#fff;stroke:#231f20;stroke-linecap:round;stroke-linejoin:round;stroke-width:0.150000005960464px"/></g><g id="LWPOLYLINE-33" data-name="LWPOLYLINE"><path d="M101.743,198.074H83.93l.291,5.812a3.75,3.75,0,0,0,3.745,3.563h9.741a3.749,3.749,0,0,0,3.745-3.563Z" style="fill:#fff;stroke:#231f20;stroke-linecap:round;stroke-linejoin:round;stroke-width:0.150000005960464px"/></g><g id="LWPOLYLINE-34" data-name="LWPOLYLINE"><path d="M75.962,198.074H58.149l.291,5.812a3.75,3.75,0,0,0,3.745,3.563h9.741a3.75,3.75,0,0,0,3.745-3.563Z" style="fill:#fff;stroke:#231f20;stroke-linecap:round;stroke-linejoin:round;stroke-width:0.150000005960464px"/></g><g id="LWPOLYLINE-35" data-name="LWPOLYLINE"><path d="M85.338,198.074l.288,5.742a2.342,2.342,0,0,0,2.34,2.226h9.741a2.344,2.344,0,0,0,2.341-2.226l.287-5.742" style="fill:#fff;stroke:#231f20;stroke-linecap:round;stroke-linejoin:round;stroke-width:0.150000005960464px"/></g><g id="LWPOLYLINE-36" data-name="LWPOLYLINE"><path d="M59.461,197.839l.287,5.742a2.344,2.344,0,0,0,2.341,2.227H71.83a2.342,2.342,0,0,0,2.34-2.227l.288-5.742" style="fill:#fff;stroke:#231f20;stroke-linecap:round;stroke-linejoin:round;stroke-width:0.150000005960464px"/></g><g id="LWPOLYLINE-37" data-name="LWPOLYLINE"><rect x="51.821" y="174.278" width="56.25" height="28.125" style="fill:#fff;stroke:#231f20;stroke-linecap:round;stroke-linejoin:round;stroke-width:0.150000005960464px"/></g><line x1="175.732" y1="66.915" x2="175.732" y2="138.165" style="fill:none;stroke:#231f20;stroke-linecap:round;stroke-linejoin:round;stroke-width:0.150000005960464px"/><line x1="173.302" y1="66.915" x2="173.302" y2="138.165" style="fill:none;stroke:#231f20;stroke-linecap:round;stroke-linejoin:round;stroke-width:0.150000005960464px"/><path d="M19.332,140.828s4.28,5.566,6.44,4.517-5.877-8.49-5.877-8.49-3.167-3.233-3.77-1.618S19.332,140.828,19.332,140.828Z" style="fill:#fff;stroke:#231f20;stroke-miterlimit:10;stroke-width:0.150000005960464px"/><path d="M21.474,131.834s-3.546-5.745-5.105-4.678,2.887,7.663,2.887,7.663,3.112,6.148,4.633,4.493S21.474,131.834,21.474,131.834Z" style="fill:#fff;stroke:#231f20;stroke-miterlimit:10;stroke-width:0.150000005960464px"/><path d="M16.636,83.77s2.937-.6,4.22-6.769.906-6.231.251-6.5S17.7,72.32,16.87,77.967,15.616,83.514,16.636,83.77Z" style="fill:#fff;stroke:#231f20;stroke-miterlimit:10;stroke-width:0.150000005960464px"/><g id="LWPOLYLINE-38" data-name="LWPOLYLINE"><polyline points="273.423 17.075 273.423 22.7 160.923 22.7 160.923 17.075" style="fill:none;stroke:#231f20;stroke-linecap:round;stroke-linejoin:round;stroke-width:0.4px"/></g><g id="LWPOLYLINE-39" data-name="LWPOLYLINE"><polyline points="127.173 17.075 127.173 22.7 14.673 22.7 14.673 17.075" style="fill:none;stroke:#231f20;stroke-linecap:round;stroke-linejoin:round;stroke-width:0.4px"/></g><g id="LWPOLYLINE-40" data-name="LWPOLYLINE"><polygon points="182.954 13.325 182.016 13.325 164.673 13.325 163.735 13.325 163.735 14.555 182.016 14.555 182.954 14.555 182.954 13.325" style="fill:none;stroke:#231f20;stroke-linecap:round;stroke-linejoin:round;stroke-width:0.25px"/></g><g id="LWPOLYLINE-41" data-name="LWPOLYLINE"><polygon points="215.649 13.325 214.946 13.325 184.829 13.325 184.829 14.555 215.637 14.555 215.649 13.325" style="fill:none;stroke:#231f20;stroke-linecap:round;stroke-linejoin:round;stroke-width:0.25px"/></g><g id="LWPOLYLINE-42" data-name="LWPOLYLINE"><polygon points="249.516 13.325 248.579 13.325 219.399 13.325 218.696 13.325 218.696 14.555 249.516 14.555 249.516 13.325" style="fill:none;stroke:#231f20;stroke-linecap:round;stroke-linejoin:round;stroke-width:0.25px"/></g><g id="LWPOLYLINE-43" data-name="LWPOLYLINE"><polygon points="270.61 13.325 269.673 13.325 251.391 13.325 251.391 14.555 270.61 14.555 270.61 13.325" style="fill:none;stroke:#231f20;stroke-linecap:round;stroke-linejoin:round;stroke-width:0.25px"/></g><g id="LWPOLYLINE-44" data-name="LWPOLYLINE"><polygon points="36.704 13.325 35.766 13.325 18.423 13.325 17.485 13.325 17.485 14.555 35.766 14.555 36.704 14.555 36.704 13.325" style="fill:none;stroke:#231f20;stroke-linecap:round;stroke-linejoin:round;stroke-width:0.25px"/></g><g id="LWPOLYLINE-45" data-name="LWPOLYLINE"><polygon points="69.399 13.325 68.696 13.325 38.579 13.325 38.579 14.555 69.387 14.555 69.399 13.325" style="fill:none;stroke:#231f20;stroke-linecap:round;stroke-linejoin:round;stroke-width:0.25px"/></g><g id="LWPOLYLINE-46" data-name="LWPOLYLINE"><polygon points="103.266 13.325 102.329 13.325 73.149 13.325 72.446 13.325 72.446 14.555 103.266 14.555 103.266 13.325" style="fill:none;stroke:#231f20;stroke-linecap:round;stroke-linejoin:round;stroke-width:0.25px"/></g><g id="LWPOLYLINE-47" data-name="LWPOLYLINE"><polygon points="124.36 13.325 123.423 13.325 105.141 13.325 105.141 14.555 124.36 14.555 124.36 13.325" style="fill:none;stroke:#231f20;stroke-linecap:round;stroke-linejoin:round;stroke-width:0.25px"/></g><line x1="18.423" y1="17.075" x2="123.423" y2="17.075" style="fill:none;stroke:#231f20;stroke-linecap:round;stroke-linejoin:round;stroke-width:0.25px"/><line x1="164.673" y1="17.075" x2="269.673" y2="17.075" style="fill:none;stroke:#231f20;stroke-linecap:round;stroke-linejoin:round;stroke-width:0.25px"/><g id="LWPOLYLINE-48" data-name="LWPOLYLINE"><polyline points="216.704 10.044 217.641 10.044 217.641 12.388 219.399 12.388 219.399 13.325 218.696 13.325 218.696 14.555 219.399 14.555 219.399 17.075 217.524 17.075 217.524 16.606 216.821 16.606 216.821 17.075 214.946 17.075 214.946 14.555 215.637 14.555 215.649 13.325 214.946 13.325 214.946 12.388 216.704 12.388 216.704 10.044" style="fill:none;stroke:#231f20;stroke-miterlimit:10;stroke-width:0.25px"/></g><g id="LWPOLYLINE-49" data-name="LWPOLYLINE"><polygon points="248.579 14.555 249.516 14.555 249.516 13.325 248.579 13.325 248.579 12.388 250.454 12.388 250.454 10.044 251.391 10.044 251.391 12.388 252.329 12.388 252.329 13.325 251.391 13.325 251.391 14.555 252.329 14.555 252.329 15.727 251.509 15.727 251.509 16.606 250.454 16.606 250.454 17.075 248.579 17.075 248.579 14.555" style="fill:none;stroke:#231f20;stroke-miterlimit:10;stroke-width:0.25px"/></g><g id="LWPOLYLINE-50" data-name="LWPOLYLINE"><polygon points="273.423 12.388 272.485 12.388 272.485 8.637 271.548 8.637 271.548 12.388 269.673 12.388 269.673 13.325 270.61 13.325 270.61 14.555 269.673 14.555 269.673 17.075 273.423 17.075 273.423 12.388" style="fill:none;stroke:#231f20;stroke-miterlimit:10;stroke-width:0.25px"/></g><g id="LWPOLYLINE-51" data-name="LWPOLYLINE"><polygon points="164.673 14.555 163.735 14.555 163.735 13.325 164.673 13.325 164.673 12.388 162.798 12.388 162.798 8.637 161.86 8.637 161.86 12.388 160.923 12.388 160.923 17.075 164.673 17.075 164.673 14.555" style="fill:none;stroke:#231f20;stroke-miterlimit:10;stroke-width:0.25px"/></g><g id="LWPOLYLINE-52" data-name="LWPOLYLINE"><polygon points="185.766 14.555 184.829 14.555 184.829 13.325 185.766 13.325 185.766 12.388 183.891 12.388 183.891 10.044 182.954 10.044 182.954 12.388 182.016 12.388 182.016 13.325 182.954 13.325 182.954 14.555 182.016 14.555 182.016 15.727 182.837 15.727 182.837 16.606 183.891 16.606 183.891 17.075 185.766 17.075 185.766 14.555" style="fill:none;stroke:#231f20;stroke-miterlimit:10;stroke-width:0.25px"/></g><g id="LWPOLYLINE-53" data-name="LWPOLYLINE"><polyline points="70.454 10.044 71.391 10.044 71.391 12.388 73.149 12.388 73.149 13.325 72.446 13.325 72.446 14.555 73.149 14.555 73.149 17.075 71.274 17.075 71.274 16.606 70.571 16.606 70.571 17.075 68.696 17.075 68.696 14.555 69.387 14.555 69.399 13.325 68.696 13.325 68.696 12.388 70.454 12.388 70.454 10.044" style="fill:none;stroke:#231f20;stroke-miterlimit:10;stroke-width:0.25px"/></g><g id="LWPOLYLINE-54" data-name="LWPOLYLINE"><polygon points="102.329 14.555 103.266 14.555 103.266 13.325 102.329 13.325 102.329 12.388 104.204 12.388 104.204 10.044 105.141 10.044 105.141 12.388 106.079 12.388 106.079 13.325 105.141 13.325 105.141 14.555 106.079 14.555 106.079 15.727 105.259 15.727 105.259 16.606 104.204 16.606 104.204 17.075 102.329 17.075 102.329 14.555" style="fill:none;stroke:#231f20;stroke-miterlimit:10;stroke-width:0.25px"/></g><g id="LWPOLYLINE-55" data-name="LWPOLYLINE"><polygon points="127.173 12.388 126.235 12.388 126.235 8.637 125.298 8.637 125.298 12.388 123.423 12.388 123.423 13.325 124.36 13.325 124.36 14.555 123.423 14.555 123.423 17.075 127.173 17.075 127.173 12.388" style="fill:none;stroke:#231f20;stroke-miterlimit:10;stroke-width:0.25px"/></g><g id="LWPOLYLINE-56" data-name="LWPOLYLINE"><polygon points="18.423 14.555 17.485 14.555 17.485 13.325 18.423 13.325 18.423 12.388 16.548 12.388 16.548 8.637 15.61 8.637 15.61 12.388 14.673 12.388 14.673 17.075 18.423 17.075 18.423 14.555" style="fill:none;stroke:#231f20;stroke-miterlimit:10;stroke-width:0.25px"/></g><g id="LWPOLYLINE-57" data-name="LWPOLYLINE"><polygon points="39.516 14.555 38.579 14.555 38.579 13.325 39.516 13.325 39.516 12.388 37.641 12.388 37.641 10.044 36.704 10.044 36.704 12.388 35.766 12.388 35.766 13.325 36.704 13.325 36.704 14.555 35.766 14.555 35.766 15.727 36.587 15.727 36.587 16.606 37.641 16.606 37.641 17.075 39.516 17.075 39.516 14.555" style="fill:none;stroke:#231f20;stroke-miterlimit:10;stroke-width:0.25px"/></g><g id="LWPOLYLINE-58" data-name="LWPOLYLINE"><polygon points="164.673 14.555 163.735 14.555 163.735 13.325 164.673 13.325 164.673 12.388 162.798 12.388 162.798 8.637 161.86 8.637 161.86 12.388 160.923 12.388 160.923 17.075 164.673 17.075 164.673 14.555" style="fill:none;stroke:#231f20;stroke-miterlimit:10;stroke-width:0.25px"/></g><g id="LWPOLYLINE-59" data-name="LWPOLYLINE"><polyline points="273.423 17.075 273.423 8.638 160.923 8.638 160.923 17.075" style="fill:none;stroke:#231f20;stroke-linecap:round;stroke-linejoin:round;stroke-width:0.4px"/></g><g id="LWPOLYLINE-60" data-name="LWPOLYLINE"><polyline points="127.173 17.075 127.173 8.638 14.673 8.638 14.673 17.075" style="fill:none;stroke:#231f20;stroke-linecap:round;stroke-linejoin:round;stroke-width:0.4px"/></g><g id="LWPOLYLINE-61" data-name="LWPOLYLINE"><rect x="172.578" y="212.639" width="33.75" height="2.109" transform="translate(-95.615 196.553) rotate(-45)" style="fill:#fff;stroke:#231f20;stroke-linecap:round;stroke-linejoin:round;stroke-width:0.200000002980232px"/></g><g id="LWPOLYLINE-62" data-name="LWPOLYLINE"><rect x="103.357" y="394.785" width="33.75" height="1.641" transform="translate(-244.52 200.887) rotate(-45)" style="fill:#fff;stroke:#231f20;stroke-linecap:round;stroke-linejoin:round;stroke-width:0.200000002980232px"/></g><g id="LWPOLYLINE-63" data-name="LWPOLYLINE"><rect x="221.391" y="166.841" width="1.641" height="33.75" style="fill:none;stroke:#231f20;stroke-linecap:round;stroke-linejoin:round;stroke-width:0.200000002980232px"/></g><g id="LWPOLYLINE-64" data-name="LWPOLYLINE"><rect x="182.016" y="234.223" width="33.75" height="1.641" style="fill:none;stroke:#231f20;stroke-linecap:round;stroke-linejoin:round;stroke-width:0.200000002980232px"/></g><g id="LWPOLYLINE-65" data-name="LWPOLYLINE"><rect x="80.942" y="369.458" width="1.641" height="33.75" style="fill:none;stroke:#231f20;stroke-linecap:round;stroke-linejoin:round;stroke-width:0.200000002980232px"/></g><g id="LWPOLYLINE-66" data-name="LWPOLYLINE"><rect x="171.235" y="369.458" width="1.641" height="33.75" style="fill:none;stroke:#231f20;stroke-linecap:round;stroke-linejoin:round;stroke-width:0.200000002980232px"/></g><g id="LWPOLYLINE-67" data-name="LWPOLYLINE"><rect x="145.22" y="239.878" width="1.641" height="28.125" style="fill:none;stroke:#231f20;stroke-linecap:round;stroke-linejoin:round;stroke-width:0.200000002980232px"/></g><g id="LWPOLYLINE-68" data-name="LWPOLYLINE"><rect x="145.22" y="280.6" width="1.641" height="28.125" style="fill:none;stroke:#231f20;stroke-linecap:round;stroke-linejoin:round;stroke-width:0.200000002980232px"/></g><g id="ARC-30" data-name="ARC"><path d="M200.64,201.015a34.273,34.273,0,0,0-22.374-8.393" style="fill:none;stroke:#231f20;stroke-linecap:round;stroke-linejoin:round;stroke-width:0.200000002980232px"/></g><g id="ARC-31" data-name="ARC"><path d="M141.47,406.958a33.748,33.748,0,0,0-9.886-23.865" style="fill:none;stroke:#231f20;stroke-linecap:round;stroke-linejoin:round;stroke-width:0.200000002980232px"/></g><g id="LWPOLYLINE-69" data-name="LWPOLYLINE"><rect x="174.751" y="285.371" width="34.295" height="70.273" style="fill:none;stroke:#231f20;stroke-linecap:round;stroke-linejoin:round;stroke-width:0.25px"/></g><g id="LWPOLYLINE-70" data-name="LWPOLYLINE"><path d="M204.447,293.613v53.156a4.821,4.821,0,0,1-4.821,4.822H184.2a4.821,4.821,0,0,1-4.821-4.822V293.613a4.82,4.82,0,0,1,4.821-4.821h15.429a4.82,4.82,0,0,1,4.821,4.821" style="fill:none;stroke:#231f20;stroke-linecap:round;stroke-linejoin:round;stroke-width:0.25px"/></g><g id="ARC-32" data-name="ARC"><path d="M193.014,347.865a3.685,3.685,0,1,0-.886,0" style="fill:#fff;stroke:#231f20;stroke-linecap:round;stroke-linejoin:round;stroke-width:0.25px"/></g><g id="LWPOLYLINE-71" data-name="LWPOLYLINE"><path d="M192.128,344.207V355.63H193V344.207a.436.436,0,1,0-.871,0Z" style="fill:#fff;stroke:#231f20;stroke-linecap:round;stroke-linejoin:round;stroke-width:0.25px"/></g><g id="LWPOLYLINE-72" data-name="LWPOLYLINE"><rect x="3.071" y="234.223" width="24.375" height="37.5" style="fill:#fff;stroke:#231f20;stroke-linecap:round;stroke-linejoin:round;stroke-width:0.25px"/></g><g id="LWPOLYLINE-73" data-name="LWPOLYLINE"><rect x="27.446" y="234.223" width="80.625" height="37.5" style="fill:#fff;stroke:#231f20;stroke-linecap:round;stroke-linejoin:round;stroke-width:0.25px"/></g><g id="LWPOLYLINE-74" data-name="LWPOLYLINE"><rect x="2.616" y="312.973" width="105.103" height="23.437" style="fill:#fff;stroke:#231f20;stroke-linecap:round;stroke-linejoin:round;stroke-width:0.25px"/></g><g id="LWPOLYLINE-75" data-name="LWPOLYLINE"><polyline points="61.448 254.519 61.448 268.748 88.127 268.748 88.127 254.519 61.448 254.519" style="fill:none;stroke:#231f20;stroke-linecap:round;stroke-linejoin:round;stroke-width:0.25px"/></g><rect x="74.526" y="252.009" width="3.25" height="1.364" transform="translate(152.303 505.383) rotate(180)" style="fill:#fff;stroke:#231f20;stroke-linecap:round;stroke-linejoin:round;stroke-width:0.25px"/><path d="M73.812,253.24a.949.949,0,0,0,.312.312V260.4a.494.494,0,0,0,.987,0v-6.849a.945.945,0,1,0-1.3-.312Z" style="fill:#fff;stroke:#231f20;stroke-linecap:round;stroke-linejoin:round;stroke-width:0.25px"/><g id="CIRCLE"><path d="M70.774,320.077a.7.7,0,1,1,.7-.7.7.7,0,0,1-.7.7Z" style="fill:none;stroke:#231f20;stroke-linecap:round;stroke-linejoin:round;stroke-width:0.25px"/></g><g id="CIRCLE-2" data-name="CIRCLE"><path d="M66.4,320.077a.7.7,0,1,1,.7-.7.7.7,0,0,1-.7.7Z" style="fill:none;stroke:#231f20;stroke-linecap:round;stroke-linejoin:round;stroke-width:0.25px"/></g><g id="CIRCLE-3" data-name="CIRCLE"><path d="M66.4,322.943a.7.7,0,1,1,.7-.7.7.7,0,0,1-.7.7Z" style="fill:none;stroke:#231f20;stroke-linecap:round;stroke-linejoin:round;stroke-width:0.25px"/></g><g id="CIRCLE-4" data-name="CIRCLE"><path d="M68.588,322.943a.7.7,0,1,1,.7-.7.7.7,0,0,1-.7.7Z" style="fill:none;stroke:#231f20;stroke-linecap:round;stroke-linejoin:round;stroke-width:0.25px"/></g><g id="CIRCLE-5" data-name="CIRCLE"><path d="M70.774,322.943a.7.7,0,1,1,.7-.7.7.7,0,0,1-.7.7Z" style="fill:none;stroke:#231f20;stroke-linecap:round;stroke-linejoin:round;stroke-width:0.25px"/></g><g id="LWPOLYLINE-76" data-name="LWPOLYLINE"><rect x="55.095" y="316.501" width="26.986" height="16.033" rx="0.375" style="fill:none;stroke:#231f20;stroke-linecap:round;stroke-linejoin:round;stroke-width:0.25px"/></g><circle cx="59.907" cy="328.383" r="1.323" style="fill:none;stroke:#231f20;stroke-linecap:round;stroke-linejoin:round;stroke-width:0.25px"/><path d="M63.9,325.205v5.85a.56.56,0,0,1-.567.553H56.481a.56.56,0,0,1-.568-.553v-5.85a.047.047,0,0,1,.048-.046h7.892A.046.046,0,0,1,63.9,325.205Z" style="fill:none;stroke:#231f20;stroke-linecap:round;stroke-linejoin:round;stroke-width:0.25px"/><circle cx="68.588" cy="328.383" r="1.323" style="fill:none;stroke:#231f20;stroke-linecap:round;stroke-linejoin:round;stroke-width:0.25px"/><path d="M72.581,325.205v5.85a.56.56,0,0,1-.567.553H65.162a.56.56,0,0,1-.568-.553v-5.85a.047.047,0,0,1,.048-.046h7.892A.046.046,0,0,1,72.581,325.205Z" style="fill:none;stroke:#231f20;stroke-linecap:round;stroke-linejoin:round;stroke-width:0.25px"/><circle cx="77.269" cy="328.383" r="1.323" style="fill:none;stroke:#231f20;stroke-linecap:round;stroke-linejoin:round;stroke-width:0.25px"/><path d="M81.262,325.205v5.85a.56.56,0,0,1-.567.553H73.843a.56.56,0,0,1-.568-.553v-5.85a.046.046,0,0,1,.048-.046h7.892A.046.046,0,0,1,81.262,325.205Z" style="fill:none;stroke:#231f20;stroke-linecap:round;stroke-linejoin:round;stroke-width:0.25px"/><circle cx="77.269" cy="320.813" r="1.323" style="fill:none;stroke:#231f20;stroke-linecap:round;stroke-linejoin:round;stroke-width:0.25px"/><path d="M73.275,323.992v-5.85a.561.561,0,0,1,.568-.554h6.852a.561.561,0,0,1,.567.554v5.85a.047.047,0,0,1-.047.046H73.323A.047.047,0,0,1,73.275,323.992Z" style="fill:none;stroke:#231f20;stroke-linecap:round;stroke-linejoin:round;stroke-width:0.25px"/><circle cx="59.907" cy="320.813" r="1.323" style="fill:none;stroke:#231f20;stroke-linecap:round;stroke-linejoin:round;stroke-width:0.25px"/><path d="M55.913,323.992v-5.85a.561.561,0,0,1,.568-.554h6.852a.561.561,0,0,1,.567.554v5.85a.047.047,0,0,1-.047.046H55.961A.048.048,0,0,1,55.913,323.992Z" style="fill:none;stroke:#231f20;stroke-linecap:round;stroke-linejoin:round;stroke-width:0.25px"/><g id="LINE-14" data-name="LINE"><line x1="33.774" y1="325.038" x2="34.774" y2="325.038" style="fill:none;stroke:#231f20;stroke-linecap:round;stroke-linejoin:round;stroke-width:0.25px"/><line x1="36.821" y1="325.038" x2="105.377" y2="325.038" style="fill:none;stroke:#231f20;stroke-linecap:round;stroke-linejoin:round;stroke-width:0.25px;stroke-dasharray:2.046459674835205,2.046459674835205"/><line x1="106.4" y1="325.038" x2="107.4" y2="325.038" style="fill:none;stroke:#231f20;stroke-linecap:round;stroke-linejoin:round;stroke-width:0.25px"/></g><line x1="33.774" y1="312.973" x2="33.774" y2="336.411" style="fill:none;stroke:#231f20;stroke-linecap:round;stroke-linejoin:round;stroke-width:0.25px"/><line x1="3.071" y1="248.286" x2="27.446" y2="248.286" style="fill:none;stroke:#231f20;stroke-linecap:round;stroke-linejoin:round;stroke-width:0.25px"/><g id="LWPOLYLINE-77" data-name="LWPOLYLINE"><polyline points="223.032 221.098 264.399 221.098 264.399 160.688" style="fill:none;stroke:#231f20;stroke-linecap:round;stroke-linejoin:round;stroke-width:0.25px;stroke-dasharray:2,2"/></g><g id="LWPOLYLINE-78" data-name="LWPOLYLINE"><line x1="159.985" y1="235.864" x2="159.985" y2="272.016" style="fill:none;stroke:#231f20;stroke-linecap:round;stroke-linejoin:round;stroke-width:0.25px;stroke-dasharray:2,2"/></g><g id="LWPOLYLINE-79" data-name="LWPOLYLINE"><line x1="159.985" y1="276.587" x2="159.985" y2="312.739" style="fill:none;stroke:#231f20;stroke-linecap:round;stroke-linejoin:round;stroke-width:0.25px;stroke-dasharray:2,2"/></g><g id="LWPOLYLINE-80" data-name="LWPOLYLINE"><line x1="27.446" y1="271.723" x2="108.071" y2="271.723" style="fill:none;stroke:#231f20;stroke-linecap:round;stroke-linejoin:round;stroke-width:0.25px;stroke-dasharray:2,2"/><line x1="108.071" y1="243.598" x2="27.446" y2="243.598" style="fill:none;stroke:#231f20;stroke-linecap:round;stroke-linejoin:round;stroke-width:0.25px;stroke-dasharray:2,2"/></g><polyline points="30.658 271.723 30.658 248.286 48.868 248.286 48.868 271.723" style="fill:none;stroke:#231f20;stroke-linecap:round;stroke-linejoin:round;stroke-width:0.25px;stroke-dasharray:2,2"/><g id="LWPOLYLINE-81" data-name="LWPOLYLINE"><path d="M250.923,17.075,219.208,28.618a33.735,33.735,0,0,1-2.035-11.543,33.736,33.736,0,0,1-2.036,11.543L183.423,17.075" style="fill:none;stroke:#231f20;stroke-linecap:round;stroke-linejoin:round;stroke-width:0.25px;stroke-dasharray:1.3229475021362305,1.3229475021362305"/></g><g id="LWPOLYLINE-82" data-name="LWPOLYLINE"><path d="M104.673,17.075,72.958,28.618a33.735,33.735,0,0,1-2.035-11.543,33.736,33.736,0,0,1-2.036,11.543L37.173,17.075" style="fill:none;stroke:#231f20;stroke-linecap:round;stroke-linejoin:round;stroke-width:0.25px;stroke-dasharray:1.3229475021362305,1.3229475021362305"/></g><g id="LWPOLYLINE-83" data-name="LWPOLYLINE"><path d="M250.923,17.075,219.208,28.618a33.735,33.735,0,0,1-2.035-11.543,33.736,33.736,0,0,1-2.036,11.543L183.423,17.075" style="fill:none;stroke:#231f20;stroke-linecap:round;stroke-linejoin:round;stroke-width:0.25px;stroke-dasharray:1.3229475021362305,1.3229475021362305"/></g><g id="LINE-15" data-name="LINE"><line x1="257.872" y1="164.81" x2="270.926" y2="164.81" style="fill:none;stroke:#231f20;stroke-miterlimit:10;stroke-width:0.25px"/></g><g id="LINE-16" data-name="LINE"><line x1="257.872" y1="167.23" x2="270.926" y2="167.23" style="fill:none;stroke:#231f20;stroke-miterlimit:10;stroke-width:0.25px"/></g><g id="LINE-17" data-name="LINE"><line x1="257.872" y1="169.649" x2="270.926" y2="169.65" style="fill:none;stroke:#231f20;stroke-miterlimit:10;stroke-width:0.25px"/></g><g id="LINE-18" data-name="LINE"><line x1="257.872" y1="172.068" x2="270.926" y2="172.069" style="fill:none;stroke:#231f20;stroke-miterlimit:10;stroke-width:0.25px"/></g><g id="LINE-19" data-name="LINE"><line x1="257.872" y1="174.487" x2="270.926" y2="174.488" style="fill:none;stroke:#231f20;stroke-miterlimit:10;stroke-width:0.25px"/></g><g id="LINE-20" data-name="LINE"><line x1="270.926" y1="176.907" x2="257.872" y2="176.907" style="fill:none;stroke:#231f20;stroke-miterlimit:10;stroke-width:0.25px"/></g><g id="LINE-21" data-name="LINE"><line x1="242.319" y1="214.571" x2="242.319" y2="227.626" style="fill:none;stroke:#231f20;stroke-miterlimit:10;stroke-width:0.25px"/></g><g id="LINE-22" data-name="LINE"><line x1="239.899" y1="214.571" x2="239.899" y2="227.626" style="fill:none;stroke:#231f20;stroke-miterlimit:10;stroke-width:0.25px"/></g><g id="LINE-23" data-name="LINE"><line x1="237.48" y1="214.571" x2="237.479" y2="227.625" style="fill:none;stroke:#231f20;stroke-miterlimit:10;stroke-width:0.25px"/></g><g id="LINE-24" data-name="LINE"><line x1="235.061" y1="214.571" x2="235.06" y2="227.626" style="fill:none;stroke:#231f20;stroke-miterlimit:10;stroke-width:0.25px"/></g><g id="LINE-25" data-name="LINE"><line x1="232.642" y1="214.571" x2="232.641" y2="227.625" style="fill:none;stroke:#231f20;stroke-miterlimit:10;stroke-width:0.25px"/></g><g id="LINE-26" data-name="LINE"><line x1="230.222" y1="227.625" x2="230.222" y2="214.571" style="fill:none;stroke:#231f20;stroke-miterlimit:10;stroke-width:0.25px"/></g><g id="LINE-27" data-name="LINE"><line x1="153.458" y1="239.81" x2="166.512" y2="239.81" style="fill:none;stroke:#231f20;stroke-miterlimit:10;stroke-width:0.25px"/></g><g id="LINE-28" data-name="LINE"><line x1="153.458" y1="242.23" x2="166.512" y2="242.23" style="fill:none;stroke:#231f20;stroke-miterlimit:10;stroke-width:0.25px"/></g><g id="LINE-29" data-name="LINE"><line x1="153.458" y1="244.649" x2="166.512" y2="244.65" style="fill:none;stroke:#231f20;stroke-miterlimit:10;stroke-width:0.25px"/></g><g id="LINE-30" data-name="LINE"><line x1="153.458" y1="247.068" x2="166.512" y2="247.069" style="fill:none;stroke:#231f20;stroke-miterlimit:10;stroke-width:0.25px"/></g><g id="LINE-31" data-name="LINE"><line x1="153.458" y1="249.487" x2="166.512" y2="249.488" style="fill:none;stroke:#231f20;stroke-miterlimit:10;stroke-width:0.25px"/></g><g id="LINE-32" data-name="LINE"><line x1="166.512" y1="251.907" x2="153.458" y2="251.907" style="fill:none;stroke:#231f20;stroke-miterlimit:10;stroke-width:0.25px"/></g><g id="LINE-33" data-name="LINE"><line x1="153.458" y1="280.533" x2="166.512" y2="280.533" style="fill:none;stroke:#231f20;stroke-miterlimit:10;stroke-width:0.25px"/></g><g id="LINE-34" data-name="LINE"><line x1="153.458" y1="282.952" x2="166.512" y2="282.952" style="fill:none;stroke:#231f20;stroke-miterlimit:10;stroke-width:0.25px"/></g><g id="LINE-35" data-name="LINE"><line x1="153.458" y1="285.371" x2="166.512" y2="285.372" style="fill:none;stroke:#231f20;stroke-miterlimit:10;stroke-width:0.25px"/></g><g id="LINE-36" data-name="LINE"><line x1="153.458" y1="287.791" x2="166.512" y2="287.792" style="fill:none;stroke:#231f20;stroke-miterlimit:10;stroke-width:0.25px"/></g><g id="LINE-37" data-name="LINE"><line x1="153.458" y1="290.21" x2="166.512" y2="290.211" style="fill:none;stroke:#231f20;stroke-miterlimit:10;stroke-width:0.25px"/></g><g id="LINE-38" data-name="LINE"><line x1="166.512" y1="292.629" x2="153.458" y2="292.629" style="fill:none;stroke:#231f20;stroke-miterlimit:10;stroke-width:0.25px"/></g><g id="ARC-33" data-name="ARC"><path d="M253.385,268.7c3.07.339,11.179.977,11.179.977" style="fill:#fff;stroke:#231f20;stroke-linecap:round;stroke-linejoin:round;stroke-width:0.25px"/></g><g id="ARC-34" data-name="ARC"><path d="M260.5,257.776a.815.815,0,0,0-.5-.746q-.506-.21-1.024-.385a14.325,14.325,0,0,0-2.844-.622q-.769-.089-1.543-.128a15.147,15.147,0,0,0-4.034.332,9.81,9.81,0,0,0-5.146,2.975,4.647,4.647,0,0,0,.061,6.332,9.81,9.81,0,0,0,5.2,2.875,15.168,15.168,0,0,0,4.04.254q.773-.056,1.54-.158a14.274,14.274,0,0,0,2.831-.678q.516-.184,1.017-.4a.817.817,0,0,0,.488-.756Z" style="fill:#fff;stroke:#231f20;stroke-linecap:round;stroke-linejoin:round;stroke-width:0.25px"/></g><g id="ARC-35" data-name="ARC"><path d="M253.261,255.884c3.063-.4,11.3-.984,11.3-.984" style="fill:#fff;stroke:#231f20;stroke-linecap:round;stroke-linejoin:round;stroke-width:0.25px"/></g><g id="ARC-36" data-name="ARC"><path d="M264.423,269.669a1.065,1.065,0,0,1-1.008-.937,54.4,54.4,0,0,1,0-12.888,1.066,1.066,0,0,1,1.008-.938H264.4q1.659-.079,3.318-.12a1.423,1.423,0,0,1,1.446,1.3q.268,3.093.265,6.2t-.265,6.2a1.421,1.421,0,0,1-1.446,1.3q-1.659-.04-3.318-.12Z" style="fill:#fff;stroke:#231f20;stroke-linecap:round;stroke-linejoin:round;stroke-width:0.25px"/></g><g id="LWPOLYLINE-84" data-name="LWPOLYLINE"><path d="M263.451,299.234v-8.057a.9.9,0,0,0-.9-.9H251.812a.9.9,0,0,0-.9.9v17.011a.9.9,0,0,0,.9.9h10.744a.9.9,0,0,0,.9-.9v-8.954Z" style="fill:none;stroke:#231f20;stroke-linecap:round;stroke-linejoin:round;stroke-width:0.25px"/></g><g id="ARC-37" data-name="ARC"><path d="M265.682,300.134a1.129,1.129,0,1,0,0-.9Z" style="fill:#fff;stroke:#231f20;stroke-linecap:round;stroke-linejoin:round;stroke-width:0.25px"/></g><g id="ARC-38" data-name="ARC"><path d="M266.942,305.3a1.129,1.129,0,1,0-.451,0Z" style="fill:#fff;stroke:#231f20;stroke-linecap:round;stroke-linejoin:round;stroke-width:0.25px"/></g><g id="ARC-39" data-name="ARC"><path d="M266.942,294.062a1.129,1.129,0,1,1-.451,0Z" style="fill:#fff;stroke:#231f20;stroke-linecap:round;stroke-linejoin:round;stroke-width:0.25px"/></g><g id="LINE-39" data-name="LINE"><path d="M261.3,300.134h5.418a.452.452,0,0,0,0-.9H261.3a.452.452,0,0,0,0,.9Z" style="fill:#fff;stroke:#231f20;stroke-linecap:round;stroke-linejoin:round;stroke-width:0.25px"/></g><line x1="266.717" y1="304.185" x2="266.717" y2="307.357" style="fill:#fff;stroke:#231f20;stroke-linecap:round;stroke-linejoin:round;stroke-width:0.25px"/><line x1="266.717" y1="292.007" x2="266.717" y2="295.179" style="fill:#fff;stroke:#231f20;stroke-linecap:round;stroke-linejoin:round;stroke-width:0.25px"/><g id="LWPOLYLINE-85" data-name="LWPOLYLINE"><path d="M263.451,326.08v-8.058a.9.9,0,0,0-.9-.9H251.812a.9.9,0,0,0-.9.9v17.011a.9.9,0,0,0,.9.895h10.744a.9.9,0,0,0,.9-.895V326.08Z" style="fill:none;stroke:#231f20;stroke-linecap:round;stroke-linejoin:round;stroke-width:0.25px"/></g><g id="LWPOLYLINE-86" data-name="LWPOLYLINE"><rect x="248.231" y="278.404" width="21.488" height="64.463" style="fill:none;stroke:#231f20;stroke-linecap:round;stroke-linejoin:round;stroke-width:0.25px"/></g><g id="ARC-40" data-name="ARC"><path d="M265.682,327.2a1.129,1.129,0,1,0,0-.9Z" style="fill:#fff;stroke:#231f20;stroke-linecap:round;stroke-linejoin:round;stroke-width:0.25px"/></g><g id="ARC-41" data-name="ARC"><path d="M266.942,332.371a1.129,1.129,0,1,0-.451,0Z" style="fill:#fff;stroke:#231f20;stroke-linecap:round;stroke-linejoin:round;stroke-width:0.25px"/></g><g id="ARC-42" data-name="ARC"><path d="M266.942,321.131a1.129,1.129,0,1,1-.451,0Z" style="fill:#fff;stroke:#231f20;stroke-linecap:round;stroke-linejoin:round;stroke-width:0.25px"/></g><g id="LINE-40" data-name="LINE"><path d="M261.3,327.2h5.418a.452.452,0,0,0,0-.9H261.3a.452.452,0,0,0,0,.9Z" style="fill:#fff;stroke:#231f20;stroke-linecap:round;stroke-linejoin:round;stroke-width:0.25px"/></g><line x1="266.717" y1="331.254" x2="266.717" y2="334.426" style="fill:#fff;stroke:#231f20;stroke-linecap:round;stroke-linejoin:round;stroke-width:0.25px"/><line x1="266.717" y1="319.076" x2="266.717" y2="322.248" style="fill:#fff;stroke:#231f20;stroke-linecap:round;stroke-linejoin:round;stroke-width:0.25px"/><g id="ARC-43" data-name="ARC"><path d="M27.535,398.472c-3.02.333-10.995.961-10.995.961" style="fill:#fff;stroke:#231f20;stroke-linecap:round;stroke-linejoin:round;stroke-width:0.25px"/></g><g id="ARC-44" data-name="ARC"><path d="M20.535,387.729a.8.8,0,0,1,.5-.735q.5-.206,1.007-.377a14.082,14.082,0,0,1,2.8-.613c.5-.057,1.011-.1,1.518-.126a14.894,14.894,0,0,1,3.967.327,9.65,9.65,0,0,1,5.062,2.926,4.573,4.573,0,0,1-.06,6.228,9.649,9.649,0,0,1-5.118,2.827,14.874,14.874,0,0,1-3.973.25c-.506-.036-1.012-.088-1.515-.155a14.1,14.1,0,0,1-2.784-.666q-.507-.181-1-.4a.8.8,0,0,1-.481-.744Z" style="fill:#fff;stroke:#231f20;stroke-linecap:round;stroke-linejoin:round;stroke-width:0.25px"/></g><g id="ARC-45" data-name="ARC"><path d="M27.657,385.868c-3.013-.392-11.117-.969-11.117-.969" style="fill:#fff;stroke:#231f20;stroke-linecap:round;stroke-linejoin:round;stroke-width:0.25px"/></g><g id="ARC-46" data-name="ARC"><path d="M16.679,399.426a1.048,1.048,0,0,0,.991-.922,52.653,52.653,0,0,0,.377-6.338,52.653,52.653,0,0,0-.377-6.338,1.048,1.048,0,0,0-.991-.922H16.7q-1.63-.078-3.264-.118a1.4,1.4,0,0,0-1.421,1.277q-.264,3.044-.261,6.1t.261,6.1a1.4,1.4,0,0,0,1.421,1.277q1.634-.039,3.264-.118Z" style="fill:#fff;stroke:#231f20;stroke-linecap:round;stroke-linejoin:round;stroke-width:0.25px"/></g><g id="LWPOLYLINE-87" data-name="LWPOLYLINE"><rect x="11.755" y="351.666" width="18.933" height="24.656" style="fill:#fff;stroke:#231f20;stroke-linecap:round;stroke-linejoin:round;stroke-width:0.25px"/></g><g id="LWPOLYLINE-88" data-name="LWPOLYLINE"><path d="M26.989,356.51a1.056,1.056,0,0,1,1.057,1.056v12.857a1.056,1.056,0,0,1-1.057,1.056h-9.51a.881.881,0,0,1-.881-.88V357.39a.881.881,0,0,1,.881-.88Z" style="fill:#fff;stroke:#231f20;stroke-linecap:round;stroke-linejoin:round;stroke-width:0.25px"/></g><g id="ARC-47" data-name="ARC"><path d="M15.115,364.439a1.111,1.111,0,1,1,0-.888Z" style="fill:#fff;stroke:#231f20;stroke-linecap:round;stroke-linejoin:round;stroke-width:0.25px"/></g><g id="ARC-48" data-name="ARC"><path d="M13.875,369.522a1.11,1.11,0,1,1,.444,0Z" style="fill:#fff;stroke:#231f20;stroke-linecap:round;stroke-linejoin:round;stroke-width:0.25px"/></g><g id="ARC-49" data-name="ARC"><path d="M13.875,358.467a1.11,1.11,0,1,0,.444,0Z" style="fill:#fff;stroke:#231f20;stroke-linecap:round;stroke-linejoin:round;stroke-width:0.25px"/></g><g id="LINE-41" data-name="LINE"><path d="M19.425,364.439H14.1a.444.444,0,0,1,0-.888h5.328a.444.444,0,1,1,0,.888Z" style="fill:#fff;stroke:#231f20;stroke-linecap:round;stroke-linejoin:round;stroke-width:0.25px"/></g><line x1="14.097" y1="368.423" x2="14.097" y2="371.543" style="fill:#fff;stroke:#231f20;stroke-linecap:round;stroke-linejoin:round;stroke-width:0.25px"/><line x1="14.097" y1="356.446" x2="14.097" y2="359.565" style="fill:#fff;stroke:#231f20;stroke-linecap:round;stroke-linejoin:round;stroke-width:0.25px"/><g id="LWPOLYLINE-89" data-name="LWPOLYLINE"><polygon points="155.415 415.513 214.243 415.512 214.243 382.466 290.298 382.466 290.298 8.582 289.031 8.582 286.537 8.139 284.159 7.266 281.97 5.992 280.038 4.354 278.422 2.403 277.173 0.2 273.423 0.2 273.423 33.481 275.649 33.481 275.649 157.348 215.766 157.348 215.766 160.864 219.516 160.864 219.516 166.841 223.032 166.841 223.032 160.864 275.649 160.864 275.649 232.348 223.032 232.348 223.032 200.591 219.516 200.591 219.516 232.348 215.766 232.348 215.766 235.864 269.673 235.864 269.673 355.63 174.751 355.63 174.751 286.255 208.97 286.255 208.97 282.739 174.751 282.739 174.751 235.864 182.016 235.864 182.016 232.348 178.266 232.348 178.266 226.372 172.524 226.372 172.487 232.348 145.22 232.348 145.22 239.878 148.735 239.878 148.735 235.864 171.235 235.864 171.235 272.016 148.735 272.016 148.735 268.003 145.22 268.003 145.22 280.6 148.735 280.6 148.735 276.587 171.235 276.587 171.235 312.739 148.735 312.739 148.735 308.725 145.22 308.725 145.22 336.411 141.47 336.411 141.47 339.927 171.235 339.948 171.235 369.458 174.751 369.458 174.751 365.239 208.501 365.239 208.501 406.958 174.751 406.958 174.751 403.208 171.235 403.208 171.235 406.958 141.47 406.958 141.47 412.7 155.415 412.7 155.415 415.513" style="fill:#dee2e1;stroke:#231f20;stroke-miterlimit:10;stroke-width:0.4px"/></g><g id="LWPOLYLINE-90" data-name="LWPOLYLINE"><polygon points="104.79 415.513 104.79 412.7 107.72 412.7 107.72 406.958 87.739 406.958 87.739 403.208 80.942 403.208 80.942 409.77 11.567 409.77 11.567 346.02 80.942 346.02 80.942 369.458 87.739 369.458 87.739 339.927 107.72 339.927 107.72 336.411 3.071 336.411 3.071 234.341 15.376 234.341 15.376 182.309 3.071 182.309 3.071 48.13 14.673 48.13 14.673 0.2 10.923 0.2 9.673 2.403 8.057 4.354 6.125 5.992 3.936 7.266 1.558 8.139 0.2 8.38 0.2 415.512 102.641 415.512 104.79 415.513" style="fill:#dee2e1;stroke:#231f20;stroke-miterlimit:10;stroke-width:0.4px"/></g><g id="LWPOLYLINE-91" data-name="LWPOLYLINE"><polygon points="178.266 192.622 178.266 160.864 182.016 160.864 182.016 157.348 150.962 157.348 150.962 48.13 160.923 48.13 160.923 0.2 157.173 0.2 155.923 2.403 154.307 4.354 152.375 5.992 150.186 7.266 147.808 8.139 145.28 8.582 142.781 8.582 140.287 8.139 137.909 7.266 135.72 5.992 133.788 4.354 132.172 2.403 130.923 0.2 127.173 0.2 127.173 48.13 145.22 48.13 145.22 186.645 172.524 186.645 172.524 192.622 178.266 192.622" style="fill:#dee2e1;stroke:#231f20;stroke-miterlimit:10;stroke-width:0.4px"/></g><path d="M185.977,90.814h.88l1.816,4.445h.015l1.816-4.445h.879v5.6h-.663V91.869H190.7l-1.887,4.542h-.28l-1.887-4.542h-.015v4.542h-.657Z" style="fill:#231f20"/><path d="M196.321,95.283H193.8l-.392,1.128h-.68l2.015-5.6h.64l2.006,5.6h-.679Zm-.2-.575-1.047-2.991h-.017l-1.046,2.991Z" style="fill:#231f20"/><path d="M198.28,94.556l.655-.112a1.465,1.465,0,0,0,1.656,1.463c.775,0,1.287-.36,1.287-.9,0-.568-.376-.88-1.543-1.248-1.335-.439-1.783-.831-1.783-1.583,0-.872.735-1.479,1.791-1.479a1.955,1.955,0,0,1,2.031,1.631l-.648.136a1.341,1.341,0,0,0-1.391-1.143c-.68,0-1.127.335-1.127.855,0,.432.319.664,1.343.983,1.455.472,1.983.96,1.983,1.84,0,.911-.792,1.535-1.951,1.535A2.054,2.054,0,0,1,198.28,94.556Z" style="fill:#231f20"/><path d="M205.319,91.438h-1.743v-.624h4.149v.624h-1.743v4.973h-.663Z" style="fill:#231f20"/><path d="M209.2,90.814h3.358v.624h-2.7v1.791h2.479v.591h-2.479v1.967h2.7v.624H209.2Z" style="fill:#231f20"/><path d="M216.651,94.108l1.232,2.3h-.776l-1.183-2.271H214.8v2.271h-.656v-5.6h2.039c1.168,0,1.864.624,1.864,1.655a1.545,1.545,0,0,1-1.4,1.623Zm-.519-.592c.823,0,1.255-.36,1.255-1.047s-.424-1.031-1.255-1.031H214.8v2.078Z" style="fill:#231f20"/><path d="M183.463,99.314h2.151a1.457,1.457,0,0,1,1.631,1.447,1.194,1.194,0,0,1-.655,1.151v.016a1.342,1.342,0,0,1,.863,1.328c0,1.079-.68,1.655-1.967,1.655h-2.023Zm2.031,2.375c.727,0,1.088-.3,1.088-.9,0-.559-.368-.855-1.088-.855h-1.375v1.751Zm-.1,2.6c.976,0,1.391-.312,1.391-1.031,0-.7-.392-.984-1.375-.984h-1.295v2.015Z" style="fill:#231f20"/><path d="M189.087,99.314h3.358v.624h-2.7v1.791h2.478v.591h-2.478v1.967h2.7v.624h-3.358Z" style="fill:#231f20"/><path d="M194.038,99.314h1.743c1.415,0,2.415,1.023,2.415,2.79,0,1.975-1,2.807-2.463,2.807h-1.695Zm1.655,4.973c1.136,0,1.839-.6,1.839-2.183,0-1.431-.7-2.166-1.791-2.166h-1.047v4.349Z" style="fill:#231f20"/><path d="M202.329,102.608l1.23,2.3h-.775L201.6,102.64h-1.12v2.271h-.655v-5.6h2.039c1.167,0,1.862.624,1.862,1.655a1.544,1.544,0,0,1-1.4,1.623Zm-.521-.592c.825,0,1.256-.36,1.256-1.047s-.424-1.031-1.256-1.031h-1.327v2.078Z" style="fill:#231f20"/><path d="M204.991,102.112c0-1.751.943-2.918,2.359-2.918s2.359,1.167,2.359,2.918-.944,2.919-2.359,2.919S204.991,103.863,204.991,102.112Zm4.054,0c0-1.415-.648-2.294-1.695-2.294s-1.695.879-1.695,2.294.648,2.3,1.695,2.3S209.045,103.527,209.045,102.112Z" style="fill:#231f20"/><path d="M211.052,102.112c0-1.751.943-2.918,2.359-2.918s2.358,1.167,2.358,2.918-.943,2.919-2.358,2.919S211.052,103.863,211.052,102.112Zm4.053,0c0-1.415-.647-2.294-1.694-2.294s-1.695.879-1.695,2.294.647,2.3,1.695,2.3S215.105,103.527,215.105,102.112Z" style="fill:#231f20"/><path d="M217.4,99.314h.88l1.816,4.445h.015l1.816-4.445h.878v5.6h-.663v-4.542h-.016l-1.887,4.542h-.28l-1.887-4.542h-.016v4.542H217.4Z" style="fill:#231f20"/><path d="M179.543,108.566l-1.248.807v-.7l1.327-.863h.584v5.6h-.663Z" style="fill:#231f20"/><path d="M182.98,108.566l-1.248.807v-.7l1.327-.863h.584v5.6h-.663Z" style="fill:#231f20"/><path d="M185.6,107.814h.584V109.6H185.6Z" style="fill:#231f20"/><path d="M187.324,110.22h2.087v.6h-2.087Z" style="fill:#231f20"/><path d="M191.675,108.566l-1.248.807v-.7l1.327-.863h.584v5.6h-.663Z" style="fill:#231f20"/><path d="M194.3,107.814h.584V109.6H194.3Zm1.055,0h.584V109.6h-.584Z" style="fill:#231f20"/><path d="M199.638,111.972l1.31-1.3-1.31-1.3.391-.392,1.287,1.311,1.295-1.311.393.392-1.312,1.3,1.312,1.3-.393.391-1.295-1.311-1.287,1.311Z" style="fill:#231f20"/><path d="M207.18,108.566l-1.247.807v-.7l1.328-.863h.584v5.6h-.665Z" style="fill:#231f20"/><path d="M210.306,112.787h3.014v.624H209.6v-.528a2.022,2.022,0,0,1,.233-1.064c.2-.367.543-.639,1.423-1.095,1.159-.6,1.495-.935,1.495-1.5,0-.535-.488-.911-1.167-.911a1.3,1.3,0,0,0-1.4,1.359l-.664-.056a1.929,1.929,0,0,1,2.064-1.927,1.68,1.68,0,0,1,1.831,1.535c0,.824-.416,1.311-1.648,1.935-.935.472-1.191.655-1.335.936A1.551,1.551,0,0,0,210.306,112.787Z" style="fill:#231f20"/><path d="M215.143,107.814h.584V109.6h-.584Z" style="fill:#231f20"/><path d="M217.14,110.22h2.087v.6H217.14Z" style="fill:#231f20"/><path d="M220.5,111.932l.647-.16a1.413,1.413,0,1,0,1.432-1.583,1.814,1.814,0,0,0-1.352.591l-.583-.144.535-2.822h2.935v.624h-2.431l-.3,1.55.015.009a2.088,2.088,0,0,1,1.287-.384,1.878,1.878,0,0,1,1.944,1.927,1.93,1.93,0,0,1-2.047,1.991A1.957,1.957,0,0,1,220.5,111.932Z" style="fill:#231f20"/><path d="M225.88,107.814h.584V109.6h-.584Zm1.055,0h.583V109.6h-.583Z" style="fill:#231f20"/><path d="M116.833,370.726H120.2v.624h-2.71v2h2.486v.591h-2.486v2.383h-.656Z" style="fill:#231f20"/><path d="M121.754,373.525c0-1.751.943-2.919,2.359-2.919s2.358,1.168,2.358,2.919-.943,2.918-2.358,2.918S121.754,375.276,121.754,373.525Zm4.053,0c0-1.416-.647-2.295-1.694-2.295s-1.695.879-1.695,2.295.647,2.294,1.695,2.294S125.807,374.94,125.807,373.525Z" style="fill:#231f20"/><path d="M129.461,373.989l-1.959-3.263h.767l1.512,2.614h.016l1.519-2.614h.768l-1.959,3.263v2.334h-.664Z" style="fill:#231f20"/><path d="M133.729,370.726h3.359v.624h-2.7v1.791h2.478v.592h-2.478V375.7h2.7v.623h-3.359Z" style="fill:#231f20"/><path d="M141.5,374.02l1.231,2.3h-.775l-1.184-2.271h-1.119v2.271H139v-5.6h2.039c1.168,0,1.863.624,1.863,1.655a1.545,1.545,0,0,1-1.4,1.624Zm-.52-.592c.823,0,1.255-.359,1.255-1.047s-.424-1.031-1.255-1.031h-1.327v2.078Z" style="fill:#231f20"/><path d="M41.526,140.666h.655v4.973h2.528v.624H41.526Z" style="fill:#231f20"/><path d="M46.179,140.666h.657v5.6h-.657Z" style="fill:#231f20"/><path d="M48.171,140.666h.7l1.663,4.717h.016l1.672-4.717H52.9l-2.016,5.6h-.7Z" style="fill:#231f20"/><path d="M54.252,140.666h.655v5.6h-.655Z" style="fill:#231f20"/><path d="M56.818,140.666H57.6l2.542,4.566h.016v-4.566h.663v5.6h-.783L57.49,141.7h-.016v4.566h-.656Z" style="fill:#231f20"/><path d="M62.447,143.465c0-1.776.927-2.919,2.358-2.919a2.076,2.076,0,0,1,2.127,1.847l-.655.12a1.43,1.43,0,0,0-1.472-1.343c-1.047,0-1.7.879-1.7,2.3s.648,2.294,1.7,2.294a1.427,1.427,0,0,0,1.5-1.639H64.878V143.5h2.07v.568a2.087,2.087,0,0,1-2.143,2.319C63.374,146.383,62.447,145.239,62.447,143.465Z" style="fill:#231f20"/><path d="M70.559,146.383l2.855-6.037.447.2L71,146.567Z" style="fill:#231f20"/><path d="M77.8,140.666h1.743c1.415,0,2.414,1.023,2.414,2.79,0,1.975-1,2.807-2.462,2.807H77.8Zm1.655,4.973c1.135,0,1.839-.6,1.839-2.183,0-1.431-.7-2.166-1.791-2.166H78.454v4.349Z" style="fill:#231f20"/><path d="M83.6,140.666h.656v5.6H83.6Z" style="fill:#231f20"/><path d="M86.163,140.666h.776l2.542,4.566H89.5v-4.566h.663v5.6h-.783L86.835,141.7h-.016v4.566h-.656Z" style="fill:#231f20"/><path d="M92.086,140.666h.655v5.6h-.655Z" style="fill:#231f20"/><path d="M94.652,140.666h.777l2.542,4.566h.016v-4.566h.663v5.6h-.783L95.324,141.7h-.016v4.566h-.656Z" style="fill:#231f20"/><path d="M100.281,143.465c0-1.776.927-2.919,2.358-2.919a2.076,2.076,0,0,1,2.127,1.847l-.655.12a1.43,1.43,0,0,0-1.472-1.343c-1.047,0-1.695.879-1.695,2.3s.648,2.294,1.695,2.294a1.427,1.427,0,0,0,1.5-1.639h-1.423V143.5h2.07v.568a2.087,2.087,0,0,1-2.143,2.319C101.208,146.383,100.281,145.239,100.281,143.465Z" style="fill:#231f20"/><path d="M111.456,143.96l1.23,2.3h-.775l-1.183-2.271h-1.12v2.271h-.655v-5.6h2.039c1.167,0,1.862.624,1.862,1.655a1.544,1.544,0,0,1-1.4,1.623Zm-.521-.592c.825,0,1.256-.36,1.256-1.047s-.424-1.031-1.256-1.031h-1.327v2.078Z" style="fill:#231f20"/><path d="M114.118,143.465c0-1.751.943-2.919,2.358-2.919s2.359,1.168,2.359,2.919-.944,2.918-2.359,2.918S114.118,145.215,114.118,143.465Zm4.054,0c0-1.416-.648-2.3-1.7-2.3s-1.695.879-1.695,2.3.648,2.294,1.695,2.294S118.172,144.88,118.172,143.465Z" style="fill:#231f20"/><path d="M120.179,143.465c0-1.751.943-2.919,2.358-2.919s2.358,1.168,2.358,2.919-.943,2.918-2.358,2.918S120.179,145.215,120.179,143.465Zm4.053,0c0-1.416-.647-2.3-1.695-2.3s-1.7.879-1.7,2.3.647,2.294,1.7,2.294S124.232,144.88,124.232,143.465Z" style="fill:#231f20"/><path d="M126.526,140.666h.88l1.815,4.445h.015l1.816-4.445h.879v5.6h-.664v-4.542h-.015l-1.888,4.542h-.279l-1.887-4.542h-.017v4.542h-.655Z" style="fill:#231f20"/><path d="M61.75,149.918l-1.247.807v-.7l1.327-.863h.584v5.6H61.75Z" style="fill:#231f20"/><path d="M64.876,154.139h3.013v.624H64.172v-.528a2.016,2.016,0,0,1,.232-1.063c.2-.368.543-.64,1.423-1.1,1.159-.6,1.5-.935,1.5-1.5,0-.535-.487-.911-1.167-.911a1.3,1.3,0,0,0-1.4,1.359l-.664-.056a1.928,1.928,0,0,1,2.063-1.927,1.68,1.68,0,0,1,1.831,1.535c0,.824-.416,1.311-1.647,1.935-.936.472-1.192.656-1.335.936A1.551,1.551,0,0,0,64.876,154.139Z" style="fill:#231f20"/><path d="M69.713,149.166H70.3v1.783h-.584Z" style="fill:#231f20"/><path d="M71.432,151.572h2.087v.6H71.432Z" style="fill:#231f20"/><path d="M76.83,149.805v-.015H73.92v-.624h3.661v.576l-2.271,5.021h-.743Z" style="fill:#231f20"/><path d="M79.2,149.166h.584v1.783H79.2Zm1.056,0h.584v1.783H80.26Z" style="fill:#231f20"/><path d="M84.541,153.324l1.31-1.3-1.31-1.295.391-.392,1.288,1.311,1.294-1.311.393.392L86.6,152.028l1.311,1.3-.393.391L86.22,152.4l-1.288,1.311Z" style="fill:#231f20"/><path d="M92.084,149.918l-1.247.807v-.7l1.327-.863h.584v5.6h-.664Z" style="fill:#231f20"/><path d="M98.414,151.629c0,2.27-.608,3.254-2.038,3.254a1.777,1.777,0,0,1-1.8-1.423l.608-.161a1.176,1.176,0,0,0,1.192.976c.887,0,1.3-.567,1.359-2.047h-.009a1.707,1.707,0,0,1-1.438.632,1.794,1.794,0,0,1-1.951-1.919,1.877,1.877,0,0,1,1.982-1.9C97.583,149.046,98.414,149.909,98.414,151.629Zm-.768-.648a1.251,1.251,0,0,0-1.327-1.328,1.312,1.312,0,1,0,1.327,1.328Z" style="fill:#231f20"/><path d="M99.994,149.166h.584v1.783h-.584Z" style="fill:#231f20"/><path d="M101.991,151.572h2.087v.6h-2.087Z" style="fill:#231f20"/><path d="M105.3,152.9l.656-.1c.111.983.583,1.463,1.407,1.463a1.071,1.071,0,0,0,1.2-1.079c0-.76-.431-1.12-1.319-1.12h-.4v-.575h.4c.664,0,1.176-.4,1.176-.9,0-.575-.4-.928-1.064-.928a1.183,1.183,0,0,0-1.263,1.056l-.648-.1a1.8,1.8,0,0,1,1.911-1.567,1.539,1.539,0,0,1,1.727,1.487,1.35,1.35,0,0,1-.76,1.176v.015a1.491,1.491,0,0,1,.9,1.456,1.69,1.69,0,0,1-1.855,1.7A1.974,1.974,0,0,1,105.3,152.9Z" style="fill:#231f20"/><path d="M110.861,149.166h.584v1.783h-.584Zm1.056,0h.583v1.783h-.583Z" style="fill:#231f20"/><path d="M34.1,256.765h1.744c1.415,0,2.415,1.024,2.415,2.791,0,1.975-1,2.807-2.463,2.807H34.1Zm1.656,4.974c1.135,0,1.839-.6,1.839-2.183,0-1.431-.7-2.167-1.791-2.167H34.754v4.35Z" style="fill:#231f20"/><path d="M39.022,256.765h.68l.824,4.55h.016l1.384-4.55h.623l1.391,4.55h.016l.823-4.55h.68l-1.039,5.6h-.8l-1.375-4.494h-.016l-1.367,4.494h-.808Z" style="fill:#231f20"/><path d="M19.364,325.4l1.232,2.3H19.82l-1.183-2.272h-1.12v2.272h-.656v-5.6H18.9c1.168,0,1.863.624,1.863,1.655a1.544,1.544,0,0,1-1.4,1.623Zm-.519-.592c.823,0,1.254-.36,1.254-1.048s-.423-1.031-1.254-1.031H17.517v2.079Z" style="fill:#231f20"/><path d="M8.484,256.317l.655-.112a1.465,1.465,0,0,0,1.656,1.463c.775,0,1.287-.36,1.287-.9,0-.567-.376-.879-1.543-1.247-1.336-.439-1.783-.831-1.783-1.583,0-.872.735-1.479,1.791-1.479a1.955,1.955,0,0,1,2.03,1.631l-.647.136a1.342,1.342,0,0,0-1.391-1.143c-.68,0-1.128.336-1.128.855,0,.432.32.663,1.344.984,1.455.471,1.983.959,1.983,1.838,0,.912-.792,1.536-1.952,1.536A2.054,2.054,0,0,1,8.484,256.317Z" style="fill:#231f20"/><path d="M13.662,255.374c0-1.751.943-2.919,2.358-2.919s2.359,1.168,2.359,2.919-.943,2.918-2.359,2.918S13.662,257.125,13.662,255.374Zm4.054,0c0-1.416-.648-2.295-1.7-2.295s-1.7.879-1.7,2.295.648,2.294,1.7,2.294S17.716,256.789,17.716,255.374Z" style="fill:#231f20"/><path d="M18.869,258.292l2.855-6.036.448.2-2.863,6.02Z" style="fill:#231f20"/><path d="M12.033,261.075h.679l.824,4.55h.016l1.383-4.55h.624l1.391,4.55h.016l.824-4.55h.679l-1.039,5.6h-.8l-1.375-4.494h-.016l-1.367,4.494h-.808Z" style="fill:#231f20"/><path d="M183.457,383.582h.68l.823,4.549h.016l1.383-4.549h.624l1.391,4.549h.016l.824-4.549h.679l-1.039,5.6h-.8l-1.375-4.493h-.016l-1.367,4.493h-.808Z" style="fill:#231f20"/><path d="M190.191,389.3l2.855-6.037.447.2-2.862,6.02Z" style="fill:#231f20"/><path d="M194.545,383.582h1.743c1.415,0,2.415,1.023,2.415,2.79,0,1.975-1,2.806-2.463,2.806h-1.7Zm1.655,4.972c1.136,0,1.839-.6,1.839-2.182,0-1.431-.7-2.167-1.791-2.167H195.2v4.349Z" style="fill:#231f20"/><polygon points="121.494 430.096 126.894 415.696 132.294 430.096 121.494 430.096" style="fill:#231f20"/></g></g></svg>