<svg xmlns="http://www.w3.org/2000/svg" viewBox="0 0 744.78 321.38"><defs><style>.cls-1,.cls-10,.cls-3,.cls-4,.cls-5{fill:#fff;}.cls-1,.cls-10,.cls-11,.cls-12,.cls-13,.cls-2,.cls-3,.cls-4,.cls-6,.cls-7,.cls-8,.cls-9{stroke:#231f20;}.cls-1,.cls-10,.cls-11,.cls-12,.cls-2,.cls-3,.cls-4,.cls-6,.cls-7,.cls-9{stroke-linecap:round;stroke-linejoin:round;}.cls-1{stroke-width:0.15px;}.cls-11,.cls-12,.cls-2,.cls-6,.cls-7,.cls-8,.cls-9{fill:none;}.cls-2,.cls-4{stroke-width:0.15px;}.cls-11,.cls-12,.cls-3,.cls-7,.cls-8{stroke-width:0.25px;}.cls-13,.cls-6{stroke-width:0.4px;}.cls-13,.cls-8{stroke-miterlimit:10;}.cls-10,.cls-9{stroke-width:0.2px;}.cls-11{stroke-dasharray:1.32 1.32;}.cls-12{stroke-dasharray:2 2;}.cls-13{fill:#dee2e1;}.cls-14{fill:#231f20;}</style></defs><title>Asset 10</title><g id="Layer_2" data-name="Layer 2"><g id="Unit5A_Upper_Rest"><g id="LWPOLYLINE"><rect class="cls-1" x="594.07" y="34.07" width="111.19" height="99.07"/></g><g id="LWPOLYLINE-2" data-name="LWPOLYLINE"><path class="cls-2" d="M289.31,124.32a1.7,1.7,0,0,0,.59.1,1.88,1.88,0,0,0,1.47-.72,1.5,1.5,0,0,1,.05.37,1.52,1.52,0,0,1-1.52,1.52,3.81,3.81,0,0,1-.59,0"/></g><g id="LWPOLYLINE-3" data-name="LWPOLYLINE"><path class="cls-2" d="M398.18,116.33H289.9a5.83,5.83,0,0,0-.59,0"/></g><g id="LWPOLYLINE-4" data-name="LWPOLYLINE"><polyline class="cls-2" points="386.93 35.47 357.98 35.47 357.98 76.14"/></g><g id="LWPOLYLINE-5" data-name="LWPOLYLINE"><polyline class="cls-2" points="357.98 74.38 347.67 74.38 347.67 35.47 357.98 35.47"/></g><g id="LWPOLYLINE-6" data-name="LWPOLYLINE"><rect class="cls-2" x="347.67" y="77.9" width="10.31" height="38.44"/></g><g id="LWPOLYLINE-7" data-name="LWPOLYLINE"><polyline class="cls-2" points="347.67 74.38 337.36 74.38 337.36 35.47 347.67 35.47"/></g><g id="LWPOLYLINE-8" data-name="LWPOLYLINE"><polyline class="cls-2" points="347.67 77.89 337.36 77.89 337.36 116.33 347.67 116.33"/></g><g id="LWPOLYLINE-9" data-name="LWPOLYLINE"><polyline class="cls-2" points="337.36 74.38 327.05 74.38 327.05 35.47 337.36 35.47"/></g><g id="LWPOLYLINE-10" data-name="LWPOLYLINE"><polyline class="cls-2" points="337.36 77.89 327.05 77.89 327.05 116.33 337.36 116.33"/></g><g id="LWPOLYLINE-11" data-name="LWPOLYLINE"><polyline class="cls-2" points="327.05 74.38 316.73 74.38 316.73 35.47 327.05 35.47"/></g><g id="LWPOLYLINE-12" data-name="LWPOLYLINE"><polyline class="cls-2" points="327.05 77.89 316.73 77.89 316.73 116.33 327.05 116.33"/></g><g id="LWPOLYLINE-13" data-name="LWPOLYLINE"><polyline class="cls-2" points="316.73 74.38 306.42 74.38 306.42 35.47 316.73 35.47"/></g><g id="LWPOLYLINE-14" data-name="LWPOLYLINE"><polyline class="cls-2" points="316.73 77.89 306.42 77.89 306.42 116.33 316.73 116.33"/></g><g id="LWPOLYLINE-15" data-name="LWPOLYLINE"><polyline class="cls-2" points="306.42 75.53 296.11 75.53 296.11 35.47 306.42 35.47"/></g><g id="LWPOLYLINE-16" data-name="LWPOLYLINE"><polyline class="cls-2" points="306.42 77.89 296.11 77.89 296.11 116.33 306.42 116.33"/></g><g id="LWPOLYLINE-17" data-name="LWPOLYLINE"><path class="cls-2" d="M296.11,35.47H285.79V88.91a14.77,14.77,0,0,1,10.32-14.08"/></g><g id="LWPOLYLINE-18" data-name="LWPOLYLINE"><rect class="cls-2" x="246.19" y="90.43" width="39.61" height="10.31"/></g><g id="LWPOLYLINE-19" data-name="LWPOLYLINE"><polyline class="cls-2" points="246.19 100.75 246.19 111.06 285.8 111.06 285.8 100.75"/></g><g id="LWPOLYLINE-20" data-name="LWPOLYLINE"><path class="cls-3" d="M398.18,139.65v3.52H300.56a14.77,14.77,0,0,1-14.77-14.77V88.91a14.77,14.77,0,0,1,12.15-14.53h60V77.9H300.56a11.25,11.25,0,0,0-11.25,11.25V128.4a11.25,11.25,0,0,0,11.25,11.25Z"/></g><g id="LWPOLYLINE-21" data-name="LWPOLYLINE"><path class="cls-2" d="M397.94,117.15h-108a3.81,3.81,0,0,0-.59,0"/></g><g id="LWPOLYLINE-22" data-name="LWPOLYLINE"><path class="cls-2" d="M289.31,127.43a5.65,5.65,0,0,0,.59,0,3.4,3.4,0,0,0,0-6.8,2,2,0,0,0-.59.09"/></g><g id="LWPOLYLINE-23" data-name="LWPOLYLINE"><path class="cls-2" d="M289.31,119.08a3.81,3.81,0,0,1,.59,0h108v-1.88"/></g><g id="LWPOLYLINE-24" data-name="LWPOLYLINE"><path class="cls-2" d="M289.31,128.26a5.83,5.83,0,0,0,.59,0,4.22,4.22,0,1,0,0-8.44H398.18v-3.52"/></g><g id="LWPOLYLINE-25" data-name="LWPOLYLINE"><path class="cls-3" d="M395.37,111.29h1.4V46.72a9.85,9.85,0,0,0-9.84-9.84H257.44a9.85,9.85,0,0,0-9.85,9.84v60.94H249V46.72a8.43,8.43,0,0,1,8.44-8.43H386.93a8.43,8.43,0,0,1,8.44,8.43Z"/></g><g id="LWPOLYLINE-26" data-name="LWPOLYLINE"><rect class="cls-4" x="621.54" y="201.92" width="56.25" height="15"/></g><g id="LWPOLYLINE-27" data-name="LWPOLYLINE"><rect class="cls-4" x="160.58" y="177.55" width="56.25" height="15"/></g><g id="LWPOLYLINE-28" data-name="LWPOLYLINE"><rect class="cls-4" x="112.18" y="295.04" width="22.5" height="16.88"/></g><g id="LWPOLYLINE-29" data-name="LWPOLYLINE"><rect class="cls-4" x="25.93" y="295.04" width="22.5" height="16.88"/></g><g id="LWPOLYLINE-30" data-name="LWPOLYLINE"><rect class="cls-4" x="52.18" y="231.29" width="56.25" height="80.63"/></g><g id="LWPOLYLINE-31" data-name="LWPOLYLINE"><rect class="cls-4" x="52.18" y="185.05" width="56.25" height="15"/></g><g id="LWPOLYLINE-32" data-name="LWPOLYLINE"><rect class="cls-4" x="52.18" y="166.75" width="56.25" height="15"/></g><g id="LWPOLYLINE-33" data-name="LWPOLYLINE"><rect class="cls-4" x="69.27" y="37.85" width="22.5" height="15.94"/></g><g id="LWPOLYLINE-34" data-name="LWPOLYLINE"><polygon class="cls-4" points="679.67 178.7 681.58 177.39 681.37 177.08 681.23 176.52 681.49 175.99 682.98 174.75 684.18 173.73 685.27 172.89 686.73 171.82 688.09 170.88 688.63 170.5 689.09 170.21 689.66 169.84 690.32 169.43 691.86 168.5 693.34 167.67 694.51 167.04 695.09 166.99 695.57 167.32 695.78 167.63 698.21 165.96 711.08 184.67 692.54 197.42 679.67 178.7"/></g><g id="LINE"><line class="cls-2" x1="708.65" y1="186.34" x2="695.78" y2="167.64"/></g><g id="LINE-2" data-name="LINE"><line class="cls-2" x1="681.58" y1="177.39" x2="694.45" y2="196.1"/></g><g id="ARC"><path class="cls-2" d="M705.78,182.17a40.24,40.24,0,0,0-14.2,9.76"/></g><g id="ARC-2" data-name="ARC"><path class="cls-2" d="M707.69,185a102.12,102.12,0,0,0-14.2,9.76"/></g><rect class="cls-5" x="337.7" y="240.2" width="25.31" height="27.89"/><rect class="cls-5" x="367.23" y="240.2" width="25.31" height="27.89"/><g id="LWPOLYLINE-35" data-name="LWPOLYLINE"><path class="cls-2" d="M682.52,115.75v-3.14a2.81,2.81,0,0,0-2.81-2.81h-60a2.81,2.81,0,0,0-2.82,2.81v3.14a3.78,3.78,0,0,0,1.1,2.65l3.43,3.43a3.75,3.75,0,0,0,2.65,1.09h51.27a3.74,3.74,0,0,0,2.65-1.09l3.43-3.43A3.78,3.78,0,0,0,682.52,115.75Z"/></g><g id="LINE-3" data-name="LINE"><line class="cls-2" x1="108.43" y1="309.11" x2="52.18" y2="309.11"/></g><g id="LINE-4" data-name="LINE"><line class="cls-2" x1="108.43" y1="234.11" x2="52.18" y2="234.11"/></g><g id="LWPOLYLINE-36" data-name="LWPOLYLINE"><rect class="cls-2" x="54.72" y="291.88" width="24.31" height="14.68"/></g><g id="LWPOLYLINE-37" data-name="LWPOLYLINE"><rect class="cls-2" x="81.58" y="291.88" width="24.31" height="14.68"/></g><g id="LWPOLYLINE-38" data-name="LWPOLYLINE"><rect class="cls-4" x="95.51" y="37.72" width="35.63" height="80.62"/></g><g id="LINE-5" data-name="LINE"><line class="cls-4" x1="95.51" y1="40.53" x2="131.14" y2="40.53"/></g><g id="LWPOLYLINE-39" data-name="LWPOLYLINE"><rect class="cls-4" x="98.05" y="43.07" width="30.54" height="14.68"/></g><g id="LINE-7" data-name="LINE"><line class="cls-4" x1="95.51" y1="40.53" x2="131.14" y2="40.53"/></g><line class="cls-4" x1="95.51" y1="115.53" x2="131.14" y2="115.53"/><g id="LWPOLYLINE-40" data-name="LWPOLYLINE"><rect class="cls-4" x="29.37" y="37.72" width="35.63" height="80.63"/></g><g id="LINE-8" data-name="LINE"><line class="cls-4" x1="65" y1="40.53" x2="29.37" y2="40.53"/></g><g id="LWPOLYLINE-41" data-name="LWPOLYLINE"><rect class="cls-4" x="31.92" y="43.07" width="30.54" height="14.68"/></g><g id="LINE-9" data-name="LINE"><line class="cls-4" x1="65" y1="40.53" x2="29.37" y2="40.53"/></g><line class="cls-4" x1="65" y1="115.53" x2="29.37" y2="115.53"/><g id="LWPOLYLINE-42" data-name="LWPOLYLINE"><rect class="cls-4" x="614.08" y="27.96" width="71.25" height="80.63"/></g><g id="LWPOLYLINE-43" data-name="LWPOLYLINE"><rect class="cls-2" x="616.62" y="33.32" width="31.81" height="14.68"/></g><g id="LINE-12" data-name="LINE"><line class="cls-2" x1="685.33" y1="30.78" x2="614.08" y2="30.78"/></g><g id="LINE-13" data-name="LINE"><line class="cls-2" x1="685.33" y1="105.78" x2="614.08" y2="105.78"/></g><g id="LWPOLYLINE-44" data-name="LWPOLYLINE"><rect class="cls-2" x="650.98" y="33.32" width="31.81" height="14.68"/></g><g id="LWPOLYLINE-45" data-name="LWPOLYLINE"><rect class="cls-4" x="596.09" y="27.96" width="15.9" height="15.94"/></g><g id="LWPOLYLINE-46" data-name="LWPOLYLINE"><rect class="cls-4" x="687.43" y="27.96" width="15.9" height="15.94"/></g><line class="cls-2" x1="614.08" y1="50.54" x2="685.33" y2="50.54"/><line class="cls-2" x1="614.08" y1="52.97" x2="685.33" y2="52.97"/><line class="cls-2" x1="95.51" y1="59.94" x2="131.14" y2="59.94"/><line class="cls-2" x1="95.51" y1="62.37" x2="131.14" y2="62.37"/><line class="cls-2" x1="29.37" y1="59.94" x2="65" y2="59.94"/><line class="cls-2" x1="29.37" y1="62.37" x2="65" y2="62.37"/><line class="cls-2" x1="52.18" y1="286.8" x2="108.43" y2="286.8"/><line class="cls-2" x1="52.18" y1="289.23" x2="108.43" y2="289.23"/><g id="LWPOLYLINE-47" data-name="LWPOLYLINE"><polyline class="cls-6" points="727.71 95.36 722.08 95.36 722.08 35.36 727.71 35.36"/></g><g id="LWPOLYLINE-48" data-name="LWPOLYLINE"><polyline class="cls-6" points="727.71 189.11 722.08 189.11 722.08 129.11 727.71 129.11"/></g><g id="LWPOLYLINE-49" data-name="LWPOLYLINE"><polyline class="cls-6" points="11.45 63.01 17.07 63.01 17.07 153.01 11.45 153.01"/></g><g id="LWPOLYLINE-50" data-name="LWPOLYLINE"><polyline class="cls-6" points="11.45 214.89 17.07 214.89 17.07 288.01 11.45 288.01"/></g><g id="LWPOLYLINE-51" data-name="LWPOLYLINE"><line class="cls-6" x1="11.45" y1="152.07" x2="6.76" y2="152.07"/><line class="cls-6" x1="6.76" y1="63.01" x2="11.45" y2="63.01"/></g><line class="cls-7" x1="266.02" y1="113.87" x2="263.88" y2="118.15"/><line class="cls-7" x1="266.09" y1="113.87" x2="268.25" y2="118.22"/><line class="cls-7" x1="266.05" y1="124.42" x2="266.05" y2="113.87"/><g id="LWPOLYLINE-52" data-name="LWPOLYLINE"><rect class="cls-7" x="730.23" y="38.17" width="1.23" height="25.66"/></g><g id="LWPOLYLINE-53" data-name="LWPOLYLINE"><rect class="cls-7" x="730.23" y="66.88" width="1.23" height="25.66"/></g><g id="LWPOLYLINE-54" data-name="LWPOLYLINE"><rect class="cls-7" x="730.23" y="131.92" width="1.23" height="25.66"/></g><g id="LWPOLYLINE-55" data-name="LWPOLYLINE"><rect class="cls-7" x="730.23" y="160.63" width="1.23" height="25.66"/></g><g id="LWPOLYLINE-56" data-name="LWPOLYLINE"><polygon class="cls-7" points="8.93 91.18 8.93 64.89 7.7 64.89 7.7 65.83 7.7 90.47 7.7 91.18 8.93 91.18"/></g><g id="LWPOLYLINE-57" data-name="LWPOLYLINE"><polygon class="cls-7" points="8.93 149.26 8.93 93.75 7.7 93.75 7.7 94.46 7.7 149.26 8.93 149.26"/></g><g id="LWPOLYLINE-58" data-name="LWPOLYLINE"><polygon class="cls-7" points="8.93 238.36 8.93 216.76 7.7 216.76 7.7 218.64 7.7 237.66 7.7 238.36 8.93 238.36"/></g><g id="LWPOLYLINE-59" data-name="LWPOLYLINE"><polygon class="cls-7" points="8.93 285.2 8.93 240.94 7.7 240.94 7.7 241.65 7.7 285.2 8.93 285.2"/></g><line class="cls-7" x1="11.49" y1="65.54" x2="11.49" y2="150.01"/><line class="cls-7" x1="11.49" y1="208.5" x2="11.49" y2="292.97"/><line class="cls-7" x1="727.76" y1="34.04" x2="727.76" y2="189.2"/><g id="LWPOLYLINE-60" data-name="LWPOLYLINE"><polygon class="cls-8" points="730.23 39.11 730.23 38.17 731.46 38.17 731.46 39.11 732.4 39.11 732.4 37.23 736.15 37.23 736.15 36.29 732.4 36.29 732.4 35.36 727.71 35.36 727.71 39.11 730.23 39.11"/></g><g id="LWPOLYLINE-61" data-name="LWPOLYLINE"><polygon class="cls-8" points="732.4 95.36 732.4 94.42 736.15 94.42 736.15 93.48 732.4 93.48 732.4 91.61 731.46 91.61 731.46 92.54 730.23 92.54 730.23 91.61 727.71 91.61 727.71 95.36 732.4 95.36"/></g><g id="LWPOLYLINE-62" data-name="LWPOLYLINE"><polygon class="cls-8" points="730.23 132.86 730.23 131.92 731.46 131.92 731.46 132.86 732.4 132.86 732.4 130.98 736.15 130.98 736.15 130.04 732.4 130.04 732.4 129.11 727.71 129.11 727.71 132.86 730.23 132.86"/></g><g id="LWPOLYLINE-63" data-name="LWPOLYLINE"><polyline class="cls-8" points="734.74 158.64 734.74 159.57 732.4 159.57 732.4 161.33 731.46 161.33 731.46 160.63 730.23 160.63 730.23 161.33 727.71 161.33 727.71 159.46 728.18 159.46 728.18 158.75 727.71 158.75 727.71 156.88 730.23 156.88 730.23 157.57 731.46 157.58 731.46 156.88 732.4 156.88 732.4 158.64 734.74 158.64"/></g><g id="LWPOLYLINE-64" data-name="LWPOLYLINE"><polygon class="cls-8" points="732.4 189.11 732.4 188.17 736.15 188.17 736.15 187.23 732.4 187.23 732.4 185.36 731.46 185.36 731.46 186.29 730.23 186.29 730.23 185.36 727.71 185.36 727.71 189.11 732.4 189.11"/></g><g id="LWPOLYLINE-65" data-name="LWPOLYLINE"><polygon class="cls-8" points="11.45 152.07 11.45 148.32 8.93 148.32 8.93 149.26 7.7 149.26 7.7 148.32 6.76 148.32 6.76 150.2 6.76 152.07 11.45 152.07"/></g><g id="LWPOLYLINE-66" data-name="LWPOLYLINE"><polygon class="cls-8" points="11.45 63.01 11.45 65.83 8.93 65.83 8.93 64.89 7.7 64.89 7.7 65.83 6.76 65.83 6.76 63.95 6.76 63.01 11.45 63.01"/></g><g id="LWPOLYLINE-67" data-name="LWPOLYLINE"><polygon class="cls-8" points="10.1 94.46 10.1 93.52 10.98 93.52 10.98 92.35 11.45 92.35 11.45 90.47 8.93 90.47 8.93 91.18 7.7 91.18 7.7 90.47 6.76 90.47 6.76 91.18 6.76 93.75 6.76 94.46 7.7 94.46 7.7 93.75 8.93 93.75 8.93 94.46 10.1 94.46"/></g><g id="LWPOLYLINE-68" data-name="LWPOLYLINE"><polygon class="cls-8" points="11.45 288.01 11.45 284.26 8.93 284.26 8.93 285.2 7.7 285.2 7.7 284.26 6.76 284.26 6.76 286.14 6.76 288.01 11.45 288.01"/></g><g id="LWPOLYLINE-69" data-name="LWPOLYLINE"><polygon class="cls-8" points="11.45 214.89 11.45 218.64 8.93 218.64 8.93 216.76 7.7 216.76 7.7 218.64 6.76 218.64 6.76 215.82 6.76 214.89 11.45 214.89"/></g><g id="LWPOLYLINE-70" data-name="LWPOLYLINE"><polygon class="cls-8" points="10.1 241.65 10.1 240.71 10.98 240.71 10.98 239.54 11.45 239.54 11.45 237.66 8.93 237.66 8.93 238.36 7.7 238.36 7.7 237.66 6.76 237.66 6.76 238.36 6.76 240.94 6.76 241.65 7.7 241.65 7.7 240.94 8.93 240.94 8.93 241.65 10.1 241.65"/></g><g id="LWPOLYLINE-71" data-name="LWPOLYLINE"><polyline class="cls-8" points="734.74 64.89 734.74 65.83 732.4 65.83 732.4 67.58 731.46 67.58 731.46 66.88 730.23 66.88 730.23 67.58 727.71 67.58 727.71 65.71 728.18 65.71 728.18 65 727.71 65 727.71 63.13 730.23 63.13 730.23 63.82 731.46 63.83 731.46 63.13 732.4 63.13 732.4 64.89 734.74 64.89"/></g><g id="LWPOLYLINE-72" data-name="LWPOLYLINE"><polyline class="cls-6" points="727.71 95.36 744.58 95.36 744.58 35.36 727.71 35.36"/></g><g id="LWPOLYLINE-73" data-name="LWPOLYLINE"><polyline class="cls-6" points="727.71 189.11 744.58 189.11 744.58 129.11 727.71 129.11"/></g><g id="LWPOLYLINE-74" data-name="LWPOLYLINE"><polyline class="cls-6" points="6.76 62.08 0.2 62.08 0.2 152.07 6.76 152.07"/></g><g id="LWPOLYLINE-75" data-name="LWPOLYLINE"><polyline class="cls-6" points="6.76 214.89 0.2 214.89 0.2 288.01 6.76 288.01"/></g><g id="LWPOLYLINE-76" data-name="LWPOLYLINE"><rect class="cls-9" x="414.45" y="147.24" width="1.64" height="33.75" transform="translate(5.58 341.71) rotate(-45)"/></g><g id="LWPOLYLINE-77" data-name="LWPOLYLINE"><rect class="cls-10" x="527.29" y="144.34" width="33.75" height="1.64"/></g><g id="LWPOLYLINE-78" data-name="LWPOLYLINE"><rect class="cls-10" x="488.79" y="190.98" width="33.75" height="1.64"/></g><g id="LWPOLYLINE-79" data-name="LWPOLYLINE"><rect class="cls-10" x="446.93" y="144.34" width="33.75" height="1.64"/></g><g id="LWPOLYLINE-80" data-name="LWPOLYLINE"><rect class="cls-10" x="407.67" y="190.98" width="33.75" height="1.64"/></g><g id="LWPOLYLINE-81" data-name="LWPOLYLINE"><rect class="cls-10" x="365.37" y="203.05" width="28.12" height="1.64"/></g><g id="LWPOLYLINE-82" data-name="LWPOLYLINE"><rect class="cls-10" x="337.24" y="203.05" width="28.13" height="1.64"/></g><g id="LWPOLYLINE-83" data-name="LWPOLYLINE"><rect class="cls-10" x="255.81" y="206.79" width="33.75" height="1.64" transform="translate(-66.93 253.63) rotate(-45)"/></g><g id="LWPOLYLINE-84" data-name="LWPOLYLINE"><rect class="cls-10" x="230.5" y="155.97" width="1.64" height="33.75" transform="translate(-54.47 214.19) rotate(-45)"/></g><g id="LWPOLYLINE-85" data-name="LWPOLYLINE"><rect class="cls-10" x="241.09" y="250.04" width="33.75" height="1.64"/></g><g id="LWPOLYLINE-86" data-name="LWPOLYLINE"><rect class="cls-10" x="153.02" y="239.38" width="33.75" height="1.64"/></g><g id="LWPOLYLINE-87" data-name="LWPOLYLINE"><rect class="cls-10" x="200.37" y="132.27" width="33.75" height="1.64"/></g><g id="LWPOLYLINE-88" data-name="LWPOLYLINE"><rect class="cls-10" x="150.79" y="104.38" width="33.75" height="1.64"/></g><g id="LWPOLYLINE-89" data-name="LWPOLYLINE"><rect class="cls-10" x="414.45" y="147.24" width="1.64" height="33.75" transform="translate(5.58 341.71) rotate(-45)"/></g><g id="LWPOLYLINE-90" data-name="LWPOLYLINE"><rect class="cls-10" x="527.29" y="144.34" width="33.75" height="1.64"/></g><g id="LWPOLYLINE-91" data-name="LWPOLYLINE"><rect class="cls-10" x="488.79" y="190.98" width="33.75" height="1.64"/></g><g id="LWPOLYLINE-92" data-name="LWPOLYLINE"><rect class="cls-10" x="407.67" y="190.98" width="33.75" height="1.64"/></g><g id="LWPOLYLINE-93" data-name="LWPOLYLINE"><rect class="cls-10" x="241.09" y="250.04" width="33.75" height="1.64"/></g><g id="ARC-3" data-name="ARC"><path class="cls-9" d="M403.92,185.36a33.73,33.73,0,0,0,23.86-9.89"/></g><g id="ARC-4" data-name="ARC"><path class="cls-9" d="M251.45,196.25a33.75,33.75,0,0,0,9.89,23.87"/></g><g id="ARC-5" data-name="ARC"><path class="cls-9" d="M242.67,151.61a33.76,33.76,0,0,0-23.87,9.88"/></g><g id="ARC-6" data-name="ARC"><path class="cls-9" d="M403.92,185.36a33.73,33.73,0,0,0,23.86-9.89"/></g><g id="LWPOLYLINE-94" data-name="LWPOLYLINE"><path class="cls-11" d="M727.71,93.48l-9.93-26.31a28.11,28.11,0,0,1,9.93-1.81"/></g><g id="LWPOLYLINE-95" data-name="LWPOLYLINE"><path class="cls-11" d="M727.71,37.23l-9.93,26.32a28.33,28.33,0,0,0,9.93,1.81"/></g><g id="LWPOLYLINE-96" data-name="LWPOLYLINE"><path class="cls-11" d="M727.71,187.23l-9.93-26.31a28.11,28.11,0,0,1,9.93-1.81"/></g><g id="LWPOLYLINE-97" data-name="LWPOLYLINE"><path class="cls-11" d="M727.71,131l-9.93,26.32a28.33,28.33,0,0,0,9.93,1.81"/></g><g id="LWPOLYLINE-98" data-name="LWPOLYLINE"><rect class="cls-7" x="404.03" y="75.04" width="37.53" height="0.86"/></g><g id="LWPOLYLINE-99" data-name="LWPOLYLINE"><rect class="cls-7" x="403.92" y="75.9" width="38.44" height="68.44"/></g><g id="LWPOLYLINE-100" data-name="LWPOLYLINE"><rect class="cls-7" x="411.42" y="78.6" width="24.38" height="61.05" rx="4.69"/></g><g id="CIRCLE"><path class="cls-7" d="M423.61,130.81a2.11,2.11,0,1,1-2.11,2.11,2.11,2.11,0,0,1,2.11-2.11Z"/></g><g id="LWPOLYLINE-101" data-name="LWPOLYLINE"><polyline class="cls-7" points="442.36 75.9 442.36 33.72 403.92 33.72 403.92 75.9"/></g><g id="ARC-7" data-name="ARC"><path class="cls-7" d="M423.23,40.7a3.29,3.29,0,1,0,.79,0"/></g><g id="LWPOLYLINE-102" data-name="LWPOLYLINE"><path class="cls-7" d="M424,44V33.79h-.78V44a.39.39,0,0,0,.78,0Z"/></g><g id="LWPOLYLINE-103" data-name="LWPOLYLINE"><path class="cls-7" d="M226.34,51.29h-5.82A4.69,4.69,0,0,0,215.83,56V94.65a4.69,4.69,0,0,0,4.69,4.69h12.42a4.69,4.69,0,0,0,4.69-4.69V56a4.69,4.69,0,0,0-4.69-4.69h-5.82"/></g><g id="ARC-8" data-name="ARC"><path class="cls-7" d="M226.33,53.47a3.29,3.29,0,1,0,.79,0"/></g><g id="LWPOLYLINE-104" data-name="LWPOLYLINE"><path class="cls-7" d="M227.12,56.69V45.5h-.78V56.69a.41.41,0,0,0,.39.43A.41.41,0,0,0,227.12,56.69Z"/></g><g id="LWPOLYLINE-105" data-name="LWPOLYLINE"><rect class="cls-7" x="280.13" y="251.68" width="0.71" height="28.47"/></g><g id="LWPOLYLINE-106" data-name="LWPOLYLINE"><rect class="cls-7" x="280.13" y="280.15" width="0.71" height="40.88"/></g><g id="ARC-9" data-name="ARC"><path class="cls-7" d="M294.65,259a3.24,3.24,0,1,0,.79,0"/></g><g id="LWPOLYLINE-107" data-name="LWPOLYLINE"><path class="cls-7" d="M295.44,262.21V251.68h-.77v10.53a.39.39,0,1,0,.77,0Z"/></g><g id="LWPOLYLINE-108" data-name="LWPOLYLINE"><polyline class="cls-7" points="280.05 315.43 310.99 315.43 310.99 251.68 280.05 251.68"/></g><g id="LWPOLYLINE-109" data-name="LWPOLYLINE"><rect class="cls-3" x="441.53" y="33.56" width="0.83" height="42.32"/></g><g id="ARC-10" data-name="ARC"><path class="cls-7" d="M423.23,40.7a3.29,3.29,0,1,0,.79,0"/></g><g id="LWPOLYLINE-110" data-name="LWPOLYLINE"><path class="cls-7" d="M424,44V33.79h-.78V44a.39.39,0,0,0,.78,0Z"/></g><g id="ARC-11" data-name="ARC"><path class="cls-3" d="M424,137.35a3.29,3.29,0,1,0-.79,0"/></g><g id="LWPOLYLINE-111" data-name="LWPOLYLINE"><path class="cls-3" d="M423.24,134.09v10.17H424V134.09a.39.39,0,0,0-.78,0Z"/></g><g id="ARC-12" data-name="ARC"><path class="cls-3" d="M424,137.35a3.29,3.29,0,1,0-.79,0"/></g><g id="LWPOLYLINE-112" data-name="LWPOLYLINE"><path class="cls-3" d="M423.24,134.09v10.17H424V134.09a.39.39,0,0,0-.78,0Z"/></g><g id="LWPOLYLINE-113" data-name="LWPOLYLINE"><rect class="cls-7" x="211.73" y="46.25" width="30.94" height="58.12"/></g><g id="LWPOLYLINE-114" data-name="LWPOLYLINE"><path class="cls-7" d="M226.34,51.29h-5.82A4.69,4.69,0,0,0,215.83,56V94.65a4.69,4.69,0,0,0,4.69,4.69h12.42a4.69,4.69,0,0,0,4.69-4.69V56a4.69,4.69,0,0,0-4.69-4.69h-5.82"/></g><g id="ARC-13" data-name="ARC"><path class="cls-3" d="M496,55.65c3.06.33,11.13,1,11.13,1"/></g><g id="ARC-14" data-name="ARC"><path class="cls-3" d="M503.11,44.77a.82.82,0,0,0-.5-.75c-.34-.14-.68-.26-1-.38a14.45,14.45,0,0,0-2.83-.62c-.51-.06-1-.1-1.54-.13a15.08,15.08,0,0,0-4,.33,9.78,9.78,0,0,0-5.12,3,4.62,4.62,0,0,0,.06,6.3,9.8,9.8,0,0,0,5.18,2.87,15.49,15.49,0,0,0,4,.25c.52,0,1-.09,1.54-.16a14.46,14.46,0,0,0,2.82-.67c.34-.13.68-.26,1-.41a.79.79,0,0,0,.48-.75Z"/></g><g id="ARC-15" data-name="ARC"><path class="cls-3" d="M495.9,42.88c3.05-.39,11.25-1,11.25-1"/></g><g id="ARC-16" data-name="ARC"><path class="cls-3" d="M507,56.61a1.06,1.06,0,0,1-1-.93,54.42,54.42,0,0,1,0-12.84,1.06,1.06,0,0,1,1-.93h0c1.1,0,2.2-.09,3.31-.12a1.43,1.43,0,0,1,1.44,1.29q.25,3.09.26,6.18t-.26,6.18a1.43,1.43,0,0,1-1.44,1.29c-1.11,0-2.21-.07-3.31-.12Z"/></g><g id="LWPOLYLINE-115" data-name="LWPOLYLINE"><path class="cls-7" d="M505.76,86.06V78a.89.89,0,0,0-.89-.89h-10.7a.89.89,0,0,0-.89.89V95a.89.89,0,0,0,.89.89h10.7a.89.89,0,0,0,.89-.89V86.06Z"/></g><g id="ARC-17" data-name="ARC"><path class="cls-3" d="M508,87a1.12,1.12,0,1,0,0-.9Z"/></g><g id="ARC-18" data-name="ARC"><path class="cls-3" d="M509.24,92.1a1.13,1.13,0,1,0-.45,0Z"/></g><g id="ARC-19" data-name="ARC"><path class="cls-3" d="M509.24,80.9a1.13,1.13,0,0,1-.23,2.23,1.13,1.13,0,0,1-.22-2.23Z"/></g><g id="LINE-14" data-name="LINE"><path class="cls-3" d="M503.62,87H509a.45.45,0,0,0,0-.9h-5.39a.45.45,0,1,0,0,.9Z"/></g><line class="cls-3" x1="509.01" y1="90.99" x2="509.01" y2="94.14"/><line class="cls-3" x1="509.01" y1="78.86" x2="509.01" y2="82.02"/><g id="LWPOLYLINE-116" data-name="LWPOLYLINE"><path class="cls-7" d="M505.76,112.79v-8a.89.89,0,0,0-.89-.9h-10.7a.89.89,0,0,0-.89.9v16.94a.89.89,0,0,0,.89.89h10.7a.89.89,0,0,0,.89-.89v-8.92Z"/></g><g id="LWPOLYLINE-117" data-name="LWPOLYLINE"><rect class="cls-7" x="490.6" y="65.31" width="21.4" height="64.2"/></g><g id="ARC-20" data-name="ARC"><path class="cls-3" d="M508,113.91a1.12,1.12,0,1,0,0-.9Z"/></g><g id="ARC-21" data-name="ARC"><path class="cls-3" d="M509.24,119.06a1.13,1.13,0,0,0-.23-2.23,1.13,1.13,0,0,0-.22,2.23Z"/></g><g id="ARC-22" data-name="ARC"><path class="cls-3" d="M509.24,107.86a1.13,1.13,0,1,1-.45,0Z"/></g><g id="LINE-15" data-name="LINE"><path class="cls-3" d="M503.62,113.91H509a.45.45,0,1,0,0-.9h-5.39a.45.45,0,1,0,0,.9Z"/></g><line class="cls-3" x1="509.01" y1="117.94" x2="509.01" y2="121.1"/><line class="cls-3" x1="509.01" y1="105.82" x2="509.01" y2="108.97"/><g id="LWPOLYLINE-118" data-name="LWPOLYLINE"><rect class="cls-3" x="215.44" y="256.24" width="20.08" height="26.15"/></g><g id="LWPOLYLINE-119" data-name="LWPOLYLINE"><path class="cls-3" d="M231.6,277.26a1.12,1.12,0,0,0,1.12-1.12V262.5a1.12,1.12,0,0,0-1.12-1.12H221.51a.93.93,0,0,0-.93.93v14a.94.94,0,0,0,.93.94Z"/></g><g id="ARC-23" data-name="ARC"><path class="cls-3" d="M232.18,292.52c-3.2-.35-11.66-1-11.66-1"/></g><g id="ARC-24" data-name="ARC"><path class="cls-3" d="M224.76,303.91a.83.83,0,0,0,.52.78c.35.15.71.28,1.07.4a14.37,14.37,0,0,0,3,.65c.54.06,1.08.11,1.61.14a16.06,16.06,0,0,0,4.21-.35,10.2,10.2,0,0,0,5.37-3.1,4.85,4.85,0,0,0-.06-6.61,10.26,10.26,0,0,0-5.43-3,16.08,16.08,0,0,0-4.21-.26c-.54,0-1.08.09-1.61.16a14.76,14.76,0,0,0-2.95.71c-.36.13-.72.27-1.07.42a.84.84,0,0,0-.5.79Z"/></g><g id="ARC-25" data-name="ARC"><path class="cls-3" d="M232.31,305.89c-3.2.41-11.79,1-11.79,1"/></g><g id="ARC-26" data-name="ARC"><path class="cls-3" d="M220.66,291.51a1.11,1.11,0,0,1,1.06,1,56.65,56.65,0,0,1,0,13.44,1.12,1.12,0,0,1-1.06,1h0l-3.46.12a1.47,1.47,0,0,1-1.51-1.35q-.28-3.23-.28-6.47t.28-6.47a1.49,1.49,0,0,1,1.51-1.36c1.15,0,2.3.07,3.46.13Z"/></g><g id="ARC-27" data-name="ARC"><path class="cls-3" d="M219.18,268.85a1.17,1.17,0,0,0-1.07-.71,1.18,1.18,0,1,0,1.07,1.65Z"/></g><g id="ARC-28" data-name="ARC"><path class="cls-3" d="M217.87,263.46a1.17,1.17,0,0,0-.94,1.15,1.18,1.18,0,1,0,2.35,0,1.17,1.17,0,0,0-.94-1.15Z"/></g><g id="ARC-29" data-name="ARC"><path class="cls-3" d="M217.87,275.18a1.17,1.17,0,0,1-.94-1.15,1.18,1.18,0,1,1,2.35,0,1.17,1.17,0,0,1-.94,1.15Z"/></g><g id="LINE-16" data-name="LINE"><path class="cls-3" d="M223.76,268.85h-5.65a.47.47,0,1,0,0,.94h5.65a.47.47,0,1,0,0-.94Z"/></g><line class="cls-3" x1="218.11" y1="264.62" x2="218.11" y2="261.31"/><line class="cls-3" x1="218.11" y1="277.33" x2="218.11" y2="274.02"/><g id="LWPOLYLINE-120" data-name="LWPOLYLINE"><rect class="cls-3" x="179.68" y="40.61" width="24.74" height="19.33"/></g><g id="LWPOLYLINE-121" data-name="LWPOLYLINE"><path class="cls-3" d="M184.54,56.16a1.06,1.06,0,0,0,1.06,1.08h12.9a1.07,1.07,0,0,0,1.06-1.08V46.45a.9.9,0,0,0-.89-.9H185.42a.89.89,0,0,0-.88.9Z"/></g><g id="ARC-30" data-name="ARC"><path class="cls-3" d="M170.1,56.72c.34-3.08,1-11.22,1-11.22"/></g><g id="ARC-31" data-name="ARC"><path class="cls-3" d="M159.33,49.57a.82.82,0,0,0-.74.51c-.14.34-.26.68-.38,1A14.62,14.62,0,0,0,157.6,54c-.06.52-.1,1-.13,1.55a15.3,15.3,0,0,0,.33,4.05,9.88,9.88,0,0,0,2.93,5.17,4.53,4.53,0,0,0,6.25-.06,9.85,9.85,0,0,0,2.84-5.23,15.72,15.72,0,0,0,.25-4c0-.52-.09-1-.16-1.55a13.81,13.81,0,0,0-.67-2.84q-.18-.53-.39-1a.8.8,0,0,0-.75-.49Z"/></g><g id="ARC-32" data-name="ARC"><path class="cls-3" d="M157.46,56.84c-.39-3.07-1-11.34-1-11.34"/></g><g id="ARC-33" data-name="ARC"><path class="cls-3" d="M171.06,45.64a1.05,1.05,0,0,1-.92,1,50.15,50.15,0,0,1-6.36.38,50,50,0,0,1-6.36-.38,1.07,1.07,0,0,1-.93-1v0q-.09-1.66-.12-3.33a1.41,1.41,0,0,1,1.28-1.45c2-.18,4.08-.27,6.12-.27s4.08.09,6.12.27a1.42,1.42,0,0,1,1.28,1.45q0,1.66-.12,3.33Z"/></g><g id="ARC-34" data-name="ARC"><path class="cls-3" d="M192.49,44.21a1.13,1.13,0,0,0-.44-2.17,1.11,1.11,0,0,0-1,.68,1.14,1.14,0,0,0,.57,1.49Z"/></g><g id="ARC-35" data-name="ARC"><path class="cls-3" d="M197.59,43A1.11,1.11,0,0,0,196.5,42a1.14,1.14,0,0,0,0,2.27,1.11,1.11,0,0,0,1.09-.91Z"/></g><g id="ARC-36" data-name="ARC"><path class="cls-3" d="M186.5,43a1.14,1.14,0,1,1,0,.45Z"/></g><g id="LINE-17" data-name="LINE"><path class="cls-3" d="M192.49,48.61V43.17a.45.45,0,1,0-.89,0v5.44a.45.45,0,1,0,.89,0Z"/></g><line class="cls-3" x1="196.49" y1="43.17" x2="199.62" y2="43.17"/><line class="cls-3" x1="184.48" y1="43.17" x2="187.6" y2="43.17"/><g id="LINE-18" data-name="LINE"><line class="cls-3" x1="337.7" y1="268.09" x2="363.01" y2="268.09"/></g><g id="LINE-19" data-name="LINE"><line class="cls-3" x1="363.01" y1="268.09" x2="363.01" y2="240.2"/></g><g id="LINE-20" data-name="LINE"><line class="cls-3" x1="363.01" y1="240.2" x2="337.7" y2="240.2"/></g><g id="LINE-21" data-name="LINE"><line class="cls-3" x1="337.7" y1="240.2" x2="337.7" y2="268.09"/></g><g id="LINE-22" data-name="LINE"><line class="cls-3" x1="367.23" y1="268.09" x2="392.54" y2="268.09"/></g><g id="LINE-23" data-name="LINE"><line class="cls-3" x1="392.54" y1="268.09" x2="392.54" y2="240.2"/></g><g id="LINE-24" data-name="LINE"><line class="cls-3" x1="392.54" y1="240.2" x2="367.23" y2="240.2"/></g><g id="LINE-25" data-name="LINE"><line class="cls-3" x1="367.23" y1="240.2" x2="367.23" y2="268.09"/></g><g id="LWPOLYLINE-122" data-name="LWPOLYLINE"><line class="cls-12" x1="403.92" y1="205.75" x2="445.17" y2="205.75"/></g><g id="LWPOLYLINE-123" data-name="LWPOLYLINE"><line class="cls-12" x1="484.43" y1="205.75" x2="533.06" y2="205.75"/></g><g id="LWPOLYLINE-124" data-name="LWPOLYLINE"><polyline class="cls-12" points="194.51 241.02 194.51 304.18 147.04 304.18"/></g><g id="LWPOLYLINE-125" data-name="LWPOLYLINE"><line class="cls-12" x1="191.81" y1="119.15" x2="242.67" y2="119.15"/></g><g id="LWPOLYLINE-126" data-name="LWPOLYLINE"><polyline class="cls-12" points="523.54 43.91 574.78 43.91 574.78 144.34"/></g><g id="LINE-26" data-name="LINE"><line class="cls-8" x1="529.11" y1="199.22" x2="529.11" y2="212.27"/></g><g id="LINE-27" data-name="LINE"><line class="cls-8" x1="526.69" y1="199.22" x2="526.69" y2="212.27"/></g><g id="LINE-28" data-name="LINE"><line class="cls-8" x1="524.28" y1="199.22" x2="524.27" y2="212.27"/></g><g id="LINE-29" data-name="LINE"><line class="cls-8" x1="521.86" y1="199.22" x2="521.86" y2="212.27"/></g><g id="LINE-30" data-name="LINE"><line class="cls-8" x1="519.44" y1="199.22" x2="519.44" y2="212.27"/></g><g id="LINE-31" data-name="LINE"><line class="cls-8" x1="517.02" y1="212.27" x2="517.02" y2="199.22"/></g><g id="LINE-32" data-name="LINE"><line class="cls-8" x1="441.22" y1="199.22" x2="441.22" y2="212.27"/></g><g id="LINE-33" data-name="LINE"><line class="cls-8" x1="438.8" y1="199.22" x2="438.8" y2="212.27"/></g><g id="LINE-34" data-name="LINE"><line class="cls-8" x1="436.39" y1="199.22" x2="436.38" y2="212.27"/></g><g id="LINE-35" data-name="LINE"><line class="cls-8" x1="433.97" y1="199.22" x2="433.96" y2="212.27"/></g><g id="LINE-36" data-name="LINE"><line class="cls-8" x1="431.55" y1="199.22" x2="431.55" y2="212.27"/></g><g id="LINE-37" data-name="LINE"><line class="cls-8" x1="429.13" y1="212.27" x2="429.13" y2="199.22"/></g><g id="LINE-38" data-name="LINE"><line class="cls-8" x1="201.03" y1="244.97" x2="187.98" y2="244.97"/></g><g id="LINE-39" data-name="LINE"><line class="cls-8" x1="201.03" y1="247.39" x2="187.98" y2="247.39"/></g><g id="LINE-40" data-name="LINE"><line class="cls-8" x1="201.03" y1="249.8" x2="187.98" y2="249.81"/></g><g id="LINE-41" data-name="LINE"><line class="cls-8" x1="201.03" y1="252.22" x2="187.98" y2="252.22"/></g><g id="LINE-42" data-name="LINE"><line class="cls-8" x1="201.03" y1="254.64" x2="187.98" y2="254.64"/></g><g id="LINE-43" data-name="LINE"><line class="cls-8" x1="187.98" y1="257.06" x2="201.03" y2="257.06"/></g><g id="LINE-44" data-name="LINE"><line class="cls-8" x1="150.99" y1="310.71" x2="150.99" y2="297.66"/></g><g id="LINE-45" data-name="LINE"><line class="cls-8" x1="153.41" y1="310.71" x2="153.41" y2="297.66"/></g><g id="LINE-46" data-name="LINE"><line class="cls-8" x1="155.83" y1="310.71" x2="155.83" y2="297.66"/></g><g id="LINE-47" data-name="LINE"><line class="cls-8" x1="158.25" y1="310.71" x2="158.25" y2="297.66"/></g><g id="LINE-48" data-name="LINE"><line class="cls-8" x1="160.67" y1="310.71" x2="160.67" y2="297.66"/></g><g id="LINE-49" data-name="LINE"><line class="cls-8" x1="163.09" y1="297.66" x2="163.09" y2="310.71"/></g><g id="LINE-50" data-name="LINE"><line class="cls-8" x1="197.27" y1="112.62" x2="197.27" y2="125.67"/></g><g id="LINE-51" data-name="LINE"><line class="cls-8" x1="199.69" y1="112.62" x2="199.69" y2="125.67"/></g><g id="LINE-52" data-name="LINE"><line class="cls-8" x1="202.11" y1="112.62" x2="202.11" y2="125.67"/></g><g id="LINE-53" data-name="LINE"><line class="cls-8" x1="204.53" y1="112.62" x2="204.53" y2="125.67"/></g><g id="LINE-54" data-name="LINE"><line class="cls-8" x1="206.95" y1="112.62" x2="206.95" y2="125.67"/></g><g id="LINE-55" data-name="LINE"><line class="cls-8" x1="209.37" y1="125.67" x2="209.37" y2="112.62"/></g><g id="LINE-56" data-name="LINE"><line class="cls-8" x1="581.31" y1="140.39" x2="568.25" y2="140.39"/></g><g id="LINE-57" data-name="LINE"><line class="cls-8" x1="581.31" y1="137.98" x2="568.25" y2="137.98"/></g><g id="LINE-58" data-name="LINE"><line class="cls-8" x1="581.31" y1="135.56" x2="568.25" y2="135.56"/></g><g id="LINE-59" data-name="LINE"><line class="cls-8" x1="581.31" y1="133.14" x2="568.25" y2="133.14"/></g><g id="LINE-60" data-name="LINE"><line class="cls-8" x1="581.31" y1="130.72" x2="568.25" y2="130.72"/></g><g id="LINE-61" data-name="LINE"><line class="cls-8" x1="568.25" y1="128.3" x2="581.31" y2="128.3"/></g><g id="LINE-62" data-name="LINE"><line class="cls-8" x1="527.49" y1="37.38" x2="527.49" y2="50.44"/></g><g id="LINE-63" data-name="LINE"><line class="cls-8" x1="529.91" y1="37.38" x2="529.91" y2="50.44"/></g><g id="LINE-64" data-name="LINE"><line class="cls-8" x1="532.32" y1="37.38" x2="532.33" y2="50.44"/></g><g id="LINE-65" data-name="LINE"><line class="cls-8" x1="534.74" y1="37.38" x2="534.74" y2="50.44"/></g><g id="LINE-66" data-name="LINE"><line class="cls-8" x1="537.16" y1="37.38" x2="537.16" y2="50.44"/></g><g id="LINE-67" data-name="LINE"><line class="cls-8" x1="539.58" y1="50.44" x2="539.58" y2="37.38"/></g><g id="LINE-68" data-name="LINE"><line class="cls-8" x1="581.31" y1="63.2" x2="568.25" y2="63.2"/></g><g id="LINE-69" data-name="LINE"><line class="cls-8" x1="581.31" y1="60.78" x2="568.25" y2="60.78"/></g><g id="LINE-70" data-name="LINE"><line class="cls-8" x1="581.31" y1="58.36" x2="568.25" y2="58.36"/></g><g id="LINE-71" data-name="LINE"><line class="cls-8" x1="581.31" y1="55.94" x2="568.25" y2="55.94"/></g><g id="LINE-72" data-name="LINE"><line class="cls-8" x1="581.31" y1="53.52" x2="568.25" y2="53.52"/></g><g id="LINE-73" data-name="LINE"><line class="cls-8" x1="568.25" y1="51.1" x2="581.31" y2="51.1"/></g><g id="LINE-74" data-name="LINE"><line class="cls-8" x1="438.8" y1="199.22" x2="438.8" y2="212.27"/></g><g id="LWPOLYLINE-127" data-name="LWPOLYLINE"><polyline class="cls-13" points="310.99 315.43 215.37 315.43 215.37 251.68 241.09 251.68 241.09 248.17 237.34 248.17 237.34 237.5 186.77 237.5 186.77 241.02 205.76 241.02 205.76 315.43 147.04 315.43 147.04 241.02 153.02 241.02 153.02 237.5 147.04 237.5 147.04 233.75 143.53 233.75 143.53 311.92 17.07 311.92 17.07 288.01 10.78 288.01 0.2 288.01 0.2 291.76 2.08 291.76 2.08 317.92 82.18 317.92 144.12 317.92 144.12 321.18 343.57 321.18 343.57 276.76 400.99 276.76 400.99 219.87 464.8 219.87 464.8 192.74 482.67 192.74 482.67 219.87 744.58 219.87 744.58 219.11 742.38 217.86 740.43 216.24 738.79 214.31 737.52 212.12 736.64 209.74 736.2 207.25 736.2 204.72 736.64 202.22 737.52 199.84 738.79 197.65 740.43 195.72 742.38 194.11 744.58 192.86 744.58 189.11 709.19 189.11 709.19 217 589.54 217 589.54 186.3 586.03 186.3 586.03 190.98 522.54 190.98 522.54 194.5 533.06 194.5 533.06 217 484.43 217 484.43 194.5 488.79 194.5 488.79 190.98 441.42 190.98 441.42 194.5 445.17 194.5 445.17 217 403.92 217 403.92 194.5 407.67 194.5 407.67 190.98 403.92 190.98 403.92 185.36 398.18 185.36 398.18 203.05 393.49 203.05 393.49 206.57 398.18 206.57 398.18 269.61 318.25 269.61 318.25 221.1 332.67 221.1 332.67 206.57 337.24 206.57 337.24 203.05 332.67 203.05 332.67 192.74 285.2 192.74 285.2 196.25 288.95 196.25 288.95 248.17 274.84 248.17 274.84 251.68 310.99 251.68 310.99 315.43"/></g><g id="LWPOLYLINE-128" data-name="LWPOLYLINE"><polygon class="cls-13" points="722.08 120.55 722.08 129.11 744.58 129.11 744.58 125.36 742.38 124.11 740.43 122.49 738.79 120.55 737.52 118.37 736.64 115.99 736.2 113.5 736.2 110.97 736.64 108.47 737.52 106.09 738.79 103.9 740.43 101.97 742.38 100.36 744.58 99.11 744.58 95.36 722.08 95.36 722.08 120.55"/></g><g id="LWPOLYLINE-129" data-name="LWPOLYLINE"><polygon class="cls-13" points="0.2 62.08 6.76 62.08 6.76 63.01 17.07 63.01 17.07 37.82 143.53 37.82 143.53 144.11 147.04 144.11 147.04 107.89 150.79 107.89 150.79 104.38 147.04 104.38 147.04 40.63 210.79 40.63 210.79 46.25 242.67 46.25 242.67 104.38 184.54 104.38 184.54 107.89 188.29 107.89 188.29 133.91 200.37 133.91 200.37 130.4 191.81 130.4 191.81 107.89 242.67 107.89 242.67 130.4 234.12 130.4 234.12 133.91 242.67 133.91 242.67 151.61 246.19 151.61 246.19 46.72 246.4 44.53 247.04 42.42 248.22 40.3 249.48 38.77 251.19 37.37 253.13 36.33 255.24 35.69 257.44 35.47 386.93 35.47 389.12 35.69 391.23 36.33 393.18 37.37 394.88 38.77 396.28 40.47 397.32 42.42 397.96 44.53 398.18 46.72 398.18 151.61 403.92 151.61 403.92 147.86 446.93 147.86 446.93 144.34 403.92 144.34 403.92 33.72 441.42 33.72 441.42 30.32 512.05 30.32 512.05 144.34 480.68 144.34 480.68 147.86 527.29 147.86 527.29 144.34 523.54 144.34 523.54 32.66 586.03 32.66 586.03 144.34 561.04 144.34 561.04 147.86 586.03 147.86 586.03 152.55 589.54 152.55 589.54 28.44 709.78 28.44 709.78 35.36 744.58 35.36 744.58 31.61 742.38 30.43 740.4 28.9 738.71 27.07 737.33 24.98 736.33 22.69 735.71 20.24 735.5 17.78 735.71 15.29 736.33 12.87 737.33 10.58 738.71 8.49 740.4 6.66 742.38 5.13 744.58 3.95 744.58 0.2 530.37 0.2 530.37 4.42 273.96 4.42 273.96 9.57 2.08 9.57 2.08 58.33 0.2 58.33 0.2 60.37 0.2 62.08"/></g><g id="LWPOLYLINE-130" data-name="LWPOLYLINE"><polygon class="cls-13" points="0.2 211.14 0.2 214.89 38.76 214.89 38.76 185.12 143.53 185.12 143.53 200 147.04 200 147.04 196.25 251.45 196.25 251.45 192.74 246.19 192.74 246.19 185.36 242.67 185.36 242.67 192.74 147.04 192.74 147.04 177.86 143.53 177.86 143.53 181.61 17.07 181.61 17.07 153.01 11.45 153.01 11.45 152.07 0.2 152.07 0.2 155.82 2.08 155.82 2.08 211.14 0.2 211.14"/></g><path class="cls-14" d="M636.51,125.21h.88l1.81,4.45h0l1.81-4.45h.88v5.6h-.66v-4.54h0l-1.88,4.54h-.28l-1.89-4.54h0v4.54h-.65Z"/><path class="cls-14" d="M646.85,129.68h-2.52l-.39,1.13h-.68l2-5.6h.64l2,5.6h-.68Zm-.2-.58-1-3h0l-1.05,3Z"/><path class="cls-14" d="M648.81,129l.66-.11a1.46,1.46,0,0,0,1.65,1.46c.78,0,1.29-.36,1.29-.9s-.38-.88-1.55-1.25c-1.33-.44-1.78-.83-1.78-1.58a1.59,1.59,0,0,1,1.79-1.48,2,2,0,0,1,2,1.63l-.64.14a1.35,1.35,0,0,0-1.4-1.15c-.67,0-1.12.34-1.12.86s.32.66,1.34,1c1.46.47,2,1,2,1.84s-.79,1.54-1.95,1.54A2.06,2.06,0,0,1,648.81,129Z"/><path class="cls-14" d="M655.85,125.83h-1.74v-.62h4.15v.62h-1.75v5h-.66Z"/><path class="cls-14" d="M659.73,125.21h3.36v.62h-2.71v1.79h2.48v.6h-2.48v2h2.71v.63h-3.36Z"/><path class="cls-14" d="M667.18,128.5l1.23,2.31h-.77l-1.19-2.27h-1.12v2.27h-.65v-5.6h2c1.17,0,1.86.62,1.86,1.65a1.55,1.55,0,0,1-1.4,1.63Zm-.52-.59c.83,0,1.26-.36,1.26-1s-.43-1-1.26-1h-1.33v2.08Z"/><path class="cls-14" d="M634,133.71h2.15a1.46,1.46,0,0,1,1.64,1.45,1.2,1.2,0,0,1-.66,1.15h0a1.34,1.34,0,0,1,.86,1.33c0,1.08-.68,1.66-2,1.66h-2Zm2,2.37c.73,0,1.09-.29,1.09-.89s-.37-.86-1.09-.86h-1.37v1.75Zm-.09,2.6c1,0,1.39-.31,1.39-1s-.39-1-1.37-1h-1.3v2Z"/><path class="cls-14" d="M639.62,133.71H643v.62h-2.71v1.79h2.48v.6h-2.48v2H643v.63h-3.36Z"/><path class="cls-14" d="M644.57,133.71h1.74c1.42,0,2.42,1,2.42,2.79,0,2-1,2.81-2.47,2.81h-1.69Zm1.65,5c1.14,0,1.84-.6,1.84-2.18,0-1.43-.7-2.17-1.79-2.17h-1v4.35Z"/><path class="cls-14" d="M652.86,137l1.23,2.31h-.77L652.13,137H651v2.27h-.65v-5.6h2c1.16,0,1.86.62,1.86,1.65a1.55,1.55,0,0,1-1.4,1.63Zm-.52-.59c.82,0,1.25-.36,1.25-1s-.42-1-1.25-1H651v2.08Z"/><path class="cls-14" d="M655.52,136.51c0-1.75,1-2.92,2.36-2.92s2.36,1.17,2.36,2.92-.94,2.92-2.36,2.92S655.52,138.26,655.52,136.51Zm4.06,0c0-1.42-.65-2.3-1.7-2.3s-1.69.88-1.69,2.3.64,2.29,1.69,2.29S659.58,137.92,659.58,136.51Z"/><path class="cls-14" d="M661.58,136.51c0-1.75.95-2.92,2.36-2.92s2.36,1.17,2.36,2.92-.94,2.92-2.36,2.92S661.58,138.26,661.58,136.51Zm4.06,0c0-1.42-.65-2.3-1.7-2.3s-1.69.88-1.69,2.3.64,2.29,1.69,2.29S665.64,137.92,665.64,136.51Z"/><path class="cls-14" d="M667.93,133.71h.88l1.81,4.45h0l1.82-4.45h.88v5.6h-.67v-4.54h0l-1.89,4.54h-.28l-1.89-4.54h0v4.54h-.66Z"/><path class="cls-14" d="M628,143l-1.25.81v-.7l1.33-.86h.58v5.6H628Z"/><path class="cls-14" d="M634.54,146a1.89,1.89,0,0,1-2,1.93c-1.46,0-2.29-1.1-2.29-2.83s1-3,2.32-3a1.81,1.81,0,0,1,1.87,1.5l-.62.15a1.19,1.19,0,0,0-1.24-1c-.92,0-1.6.87-1.65,2.22h0a1.89,1.89,0,0,1,1.68-.84A1.87,1.87,0,0,1,634.54,146Zm-.65,0a1.27,1.27,0,0,0-1.34-1.34,1.32,1.32,0,0,0-1.41,1.34,1.31,1.31,0,0,0,1.41,1.32A1.27,1.27,0,0,0,633.89,146Z"/><path class="cls-14" d="M636.06,142.21h.59V144h-.59Z"/><path class="cls-14" d="M637.78,144.62h2.09v.6h-2.09Z"/><path class="cls-14" d="M645.24,144.67c0,2.27-.6,3.26-2,3.26a1.77,1.77,0,0,1-1.79-1.43l.6-.16a1.18,1.18,0,0,0,1.19,1c.89,0,1.31-.57,1.36-2h0a1.73,1.73,0,0,1-1.44.63,1.79,1.79,0,0,1-2-1.91,1.88,1.88,0,0,1,2-1.9C644.41,142.09,645.24,143,645.24,144.67Zm-.76-.64a1.25,1.25,0,0,0-1.33-1.33,1.31,1.31,0,1,0,1.33,1.33Z"/><path class="cls-14" d="M646.83,142.21h.58V144h-.58Zm1,0h.59V144h-.59Z"/><path class="cls-14" d="M652.16,146.37l1.31-1.3-1.31-1.29.39-.39,1.29,1.31,1.3-1.31.39.39-1.31,1.29,1.31,1.3-.39.39-1.3-1.31-1.29,1.31Z"/><path class="cls-14" d="M659.71,143l-1.25.81v-.7l1.33-.86h.58v5.6h-.66Z"/><path class="cls-14" d="M662.83,147.18h3v.63h-3.72v-.53a2,2,0,0,1,.23-1.06c.2-.37.54-.64,1.42-1.1,1.16-.6,1.5-.94,1.5-1.49s-.49-.92-1.17-.92a1.3,1.3,0,0,0-1.4,1.36l-.66,0a1.92,1.92,0,0,1,2.06-1.93,1.68,1.68,0,0,1,1.83,1.54c0,.82-.41,1.31-1.64,1.93-.94.47-1.2.66-1.34.94A1.56,1.56,0,0,0,662.83,147.18Z"/><path class="cls-14" d="M667.67,142.21h.58V144h-.58Z"/><path class="cls-14" d="M669.67,144.62h2.08v.6h-2.08Z"/><path class="cls-14" d="M673,145.94l.66-.1c.11,1,.58,1.46,1.41,1.46a1.07,1.07,0,0,0,1.2-1.08c0-.76-.44-1.12-1.32-1.12h-.4v-.57h.4c.66,0,1.17-.4,1.17-.9s-.4-.93-1.06-.93a1.19,1.19,0,0,0-1.27,1.05l-.64-.09a1.8,1.8,0,0,1,1.91-1.57,1.54,1.54,0,0,1,1.73,1.49,1.35,1.35,0,0,1-.76,1.17v0a1.48,1.48,0,0,1,.89,1.45,1.69,1.69,0,0,1-1.85,1.71A2,2,0,0,1,673,145.94Z"/><path class="cls-14" d="M678.54,142.21h.58V144h-.58Zm1.05,0h.59V144h-.59Z"/><path class="cls-14" d="M349.6,218.3v-3.78h.66v3.73a1.34,1.34,0,1,0,2.68,0v-3.74h.67v3.78a1.79,1.79,0,0,1-2,1.94A1.77,1.77,0,0,1,349.6,218.3Z"/><path class="cls-14" d="M357.12,215.15h-1.74v-.63h4.15v.63h-1.75v5h-.66Z"/><path class="cls-14" d="M361.32,214.52H362v5.6h-.65Z"/><path class="cls-14" d="M364.21,214.52h.65v5h2.53v.62h-3.18Z"/><path class="cls-14" d="M369.18,214.52h.65v5.6h-.65Z"/><path class="cls-14" d="M373.36,215.15h-1.74v-.63h4.15v.63H374v5h-.67Z"/><path class="cls-14" d="M379.15,217.79l-2-3.27H378l1.51,2.62h0l1.52-2.62h.76l-1.95,3.27v2.33h-.67Z"/><path class="cls-14" d="M355.9,226.32l1.23,2.3h-.77l-1.19-2.27h-1.12v2.27h-.65V223h2a1.63,1.63,0,0,1,1.86,1.66,1.54,1.54,0,0,1-1.4,1.62Zm-.52-.6c.82,0,1.26-.35,1.26-1s-.43-1-1.26-1h-1.33v2.07Z"/><path class="cls-14" d="M358.88,225.82c0-1.75.95-2.92,2.36-2.92s2.36,1.17,2.36,2.92-.94,2.92-2.36,2.92S358.88,227.57,358.88,225.82Zm4.06,0c0-1.41-.65-2.29-1.7-2.29s-1.69.88-1.69,2.29.64,2.3,1.69,2.3S362.94,227.24,362.94,225.82Z"/><path class="cls-14" d="M365.26,225.82c0-1.75.95-2.92,2.36-2.92s2.36,1.17,2.36,2.92-.94,2.92-2.36,2.92S365.26,227.57,365.26,225.82Zm4.06,0c0-1.41-.65-2.29-1.7-2.29s-1.69.88-1.69,2.29.64,2.3,1.69,2.3S369.32,227.24,369.32,225.82Z"/><path class="cls-14" d="M371.93,223h.88l1.82,4.45h0l1.82-4.45h.88v5.6h-.67v-4.54h0l-1.89,4.54h-.28l-1.89-4.54h0v4.54h-.66Z"/><path class="cls-14" d="M58,135.45h2.15a1.46,1.46,0,0,1,1.63,1.45,1.19,1.19,0,0,1-.66,1.15v0a1.34,1.34,0,0,1,.87,1.32c0,1.08-.68,1.66-2,1.66H58Zm2,2.38q1.08,0,1.08-.9c0-.56-.36-.86-1.08-.86H58.61v1.76Zm-.1,2.59c1,0,1.39-.31,1.39-1s-.39-1-1.37-1h-1.3v2Z"/><path class="cls-14" d="M63.58,135.45h3.36v.62h-2.7v1.8h2.47v.59H64.24v2h2.7v.63H63.58Z"/><path class="cls-14" d="M68.53,135.45h1.74c1.42,0,2.42,1,2.42,2.79,0,2-1,2.81-2.46,2.81h-1.7Zm1.66,5c1.13,0,1.84-.6,1.84-2.18s-.71-2.17-1.8-2.17h-1v4.35Z"/><path class="cls-14" d="M76.82,138.75l1.23,2.3h-.77l-1.19-2.27H75v2.27h-.65v-5.6h2c1.17,0,1.86.62,1.86,1.66a1.54,1.54,0,0,1-1.4,1.62Zm-.52-.6c.82,0,1.26-.36,1.26-1s-.43-1-1.26-1H75v2.08Z"/><path class="cls-14" d="M79.48,138.25c0-1.75,1-2.92,2.36-2.92s2.36,1.17,2.36,2.92-.94,2.92-2.36,2.92S79.48,140,79.48,138.25Zm4.06,0c0-1.42-.65-2.3-1.7-2.3s-1.69.88-1.69,2.3.64,2.29,1.69,2.29S83.54,139.66,83.54,138.25Z"/><path class="cls-14" d="M85.54,138.25c0-1.75.95-2.92,2.36-2.92s2.36,1.17,2.36,2.92-.94,2.92-2.36,2.92S85.54,140,85.54,138.25Zm4.06,0c0-1.42-.65-2.3-1.7-2.3s-1.69.88-1.69,2.3.65,2.29,1.69,2.29S89.6,139.66,89.6,138.25Z"/><path class="cls-14" d="M91.89,135.45h.88l1.82,4.45h0l1.82-4.45h.88v5.6h-.67v-4.54h0l-1.89,4.54h-.28l-1.89-4.54h0v4.54h-.66Z"/><path class="cls-14" d="M102.33,140.42h3v.63h-3.72v-.53a2,2,0,0,1,.23-1.06c.2-.37.54-.64,1.42-1.1,1.16-.6,1.5-.93,1.5-1.49s-.49-.92-1.17-.92a1.3,1.3,0,0,0-1.4,1.36l-.66-.05a1.92,1.92,0,0,1,2.06-1.93,1.68,1.68,0,0,1,1.83,1.54c0,.82-.41,1.31-1.65,1.93-.93.47-1.19.66-1.33.94A1.56,1.56,0,0,0,102.33,140.42Z"/><path class="cls-14" d="M56.92,144.7l-1.25.81v-.7L57,144h.58v5.6h-.66Z"/><path class="cls-14" d="M60,148.92h3v.63H59.34V149a2,2,0,0,1,.23-1.06c.2-.37.55-.64,1.43-1.1,1.15-.6,1.49-.93,1.49-1.49s-.49-.92-1.17-.92a1.31,1.31,0,0,0-1.4,1.36l-.66-.05a1.92,1.92,0,0,1,2.06-1.93,1.67,1.67,0,0,1,1.83,1.54c0,.82-.41,1.31-1.64,1.93-.94.47-1.19.66-1.34.94A1.56,1.56,0,0,0,60,148.92Z"/><path class="cls-14" d="M64.88,144h.58v1.78h-.58Z"/><path class="cls-14" d="M66.6,146.36h2.09v.6H66.6Z"/><path class="cls-14" d="M74.06,146.41c0,2.27-.61,3.26-2,3.26a1.79,1.79,0,0,1-1.8-1.43l.61-.16a1.18,1.18,0,0,0,1.19,1c.89,0,1.31-.57,1.36-2.05h0a1.67,1.67,0,0,1-1.43.64,1.8,1.8,0,0,1-2-1.92,1.88,1.88,0,0,1,2-1.9C73.23,143.83,74.06,144.69,74.06,146.41Zm-.77-.64A1.33,1.33,0,1,0,72,147.06,1.25,1.25,0,0,0,73.29,145.77Z"/><path class="cls-14" d="M75.65,144h.58v1.78h-.58Zm1,0h.58v1.78H76.7Z"/><path class="cls-14" d="M81,148.11l1.31-1.3L81,145.52l.39-.39,1.29,1.31,1.3-1.31.39.39L83,146.81l1.31,1.3-.39.39-1.3-1.31-1.29,1.31Z"/><path class="cls-14" d="M88.53,144.7l-1.25.81v-.7L88.6,144h.59v5.6h-.66Z"/><path class="cls-14" d="M92,144.7l-1.25.81v-.7L92,144h.59v5.6H92Z"/><path class="cls-14" d="M94.59,144h.58v1.78h-.58Z"/><path class="cls-14" d="M96.58,146.36h2.09v.6H96.58Z"/><path class="cls-14" d="M99.83,148a1.56,1.56,0,0,1,1-1.5v0a1.25,1.25,0,0,1-.73-1.17,1.79,1.79,0,0,1,3.52,0,1.26,1.26,0,0,1-.74,1.17v0a1.56,1.56,0,0,1,1,1.5c0,1-.82,1.68-2.06,1.68S99.83,149,99.83,148Zm3.45,0c0-.67-.54-1.1-1.38-1.1s-1.39.43-1.39,1.1S101,149,101.9,149,103.28,148.61,103.28,148Zm-.28-2.61c0-.54-.45-.91-1.1-.91s-1.11.37-1.11.91.44.88,1.11.88S103,145.88,103,145.34Z"/><path class="cls-14" d="M105.39,144H106v1.78h-.59Zm1.06,0H107v1.78h-.58Z"/><path class="cls-14" d="M58,210.46h2.15a1.46,1.46,0,0,1,1.63,1.45,1.2,1.2,0,0,1-.65,1.15v0A1.33,1.33,0,0,1,62,214.4c0,1.08-.68,1.66-2,1.66H58Zm2,2.38c.73,0,1.09-.3,1.09-.9s-.37-.85-1.09-.85H58.64v1.75Zm-.1,2.6c1,0,1.4-.32,1.4-1s-.4-1-1.38-1H58.64v2Z"/><path class="cls-14" d="M63.6,210.46H67v.63h-2.7v1.79h2.48v.59H64.26v2H67v.62H63.6Z"/><path class="cls-14" d="M68.55,210.46H70.3c1.41,0,2.41,1,2.41,2.79,0,2-1,2.81-2.46,2.81h-1.7Zm1.66,5c1.14,0,1.84-.6,1.84-2.19,0-1.43-.7-2.16-1.79-2.16H69.21v4.35Z"/><path class="cls-14" d="M76.85,213.76l1.23,2.3H77.3l-1.18-2.27H75v2.27h-.66v-5.6h2c1.17,0,1.86.63,1.86,1.66a1.54,1.54,0,0,1-1.39,1.62Zm-.53-.59c.83,0,1.26-.37,1.26-1s-.42-1-1.26-1H75v2.08Z"/><path class="cls-14" d="M79.51,213.26c0-1.75.94-2.92,2.36-2.92s2.36,1.17,2.36,2.92-1,2.92-2.36,2.92S79.51,215,79.51,213.26Zm4,0c0-1.41-.65-2.29-1.69-2.29s-1.7.88-1.7,2.29.65,2.3,1.7,2.3S83.56,214.68,83.56,213.26Z"/><path class="cls-14" d="M85.57,213.26c0-1.75.94-2.92,2.36-2.92s2.36,1.17,2.36,2.92-1,2.92-2.36,2.92S85.57,215,85.57,213.26Zm4.05,0c0-1.41-.65-2.29-1.69-2.29s-1.7.88-1.7,2.29.65,2.3,1.7,2.3S89.62,214.68,89.62,213.26Z"/><path class="cls-14" d="M91.92,210.46h.88l1.81,4.45h0l1.81-4.45h.88v5.6h-.66v-4.54h0l-1.89,4.54h-.28l-1.88-4.54h0v4.54h-.65Z"/><path class="cls-14" d="M101.49,214.2l.66-.11c.11,1,.58,1.47,1.4,1.47a1.07,1.07,0,0,0,1.2-1.08c0-.76-.43-1.12-1.32-1.12H103v-.58h.4c.67,0,1.18-.4,1.18-.9s-.4-.93-1.06-.93a1.19,1.19,0,0,0-1.27,1.06l-.64-.1a1.8,1.8,0,0,1,1.91-1.57,1.54,1.54,0,0,1,1.72,1.49,1.36,1.36,0,0,1-.76,1.18h0a1.49,1.49,0,0,1,.9,1.46,1.69,1.69,0,0,1-1.86,1.7A2,2,0,0,1,101.49,214.2Z"/><path class="cls-14" d="M58,219.71l-1.25.81v-.69L58,219h.58v5.6H58Z"/><path class="cls-14" d="M61.39,219.71l-1.24.81v-.69l1.32-.87h.59v5.6h-.67Z"/><path class="cls-14" d="M64,219h.58v1.79H64Z"/><path class="cls-14" d="M65.74,221.37h2.08v.6H65.74Z"/><path class="cls-14" d="M69,222.7l.66-.11c.11,1,.58,1.47,1.41,1.47a1.07,1.07,0,0,0,1.2-1.08c0-.76-.43-1.12-1.32-1.12h-.4v-.58H71c.66,0,1.17-.4,1.17-.9s-.4-.93-1.06-.93a1.17,1.17,0,0,0-1.26,1.06l-.65-.1a1.8,1.8,0,0,1,1.91-1.57,1.54,1.54,0,0,1,1.73,1.49,1.37,1.37,0,0,1-.76,1.18h0A1.5,1.5,0,0,1,73,223a1.69,1.69,0,0,1-1.85,1.7A2,2,0,0,1,69,222.7Z"/><path class="cls-14" d="M74.61,219h.58v1.79h-.58Zm1,0h.59v1.79h-.59Z"/><path class="cls-14" d="M79.94,223.12l1.31-1.29-1.31-1.3.4-.39,1.28,1.31,1.3-1.31.39.39L82,221.83l1.31,1.29-.39.39-1.3-1.31-1.28,1.31Z"/><path class="cls-14" d="M87.49,219.71l-1.25.81v-.69l1.33-.87h.58v5.6h-.66Z"/><path class="cls-14" d="M90.92,219.71l-1.24.81v-.69L91,219h.59v5.6h-.67Z"/><path class="cls-14" d="M93.55,219h.58v1.79h-.58Z"/><path class="cls-14" d="M95.55,221.37h2.08v.6H95.55Z"/><path class="cls-14" d="M98.79,223a1.56,1.56,0,0,1,1-1.5v0a1.24,1.24,0,0,1-.74-1.17,1.79,1.79,0,0,1,3.52,0,1.25,1.25,0,0,1-.74,1.17v0a1.56,1.56,0,0,1,1,1.5c0,1-.81,1.68-2.06,1.68S98.79,224,98.79,223Zm3.45,0c0-.67-.53-1.1-1.38-1.1s-1.39.43-1.39,1.1S100,224,100.86,224,102.24,223.62,102.24,223Zm-.28-2.61c0-.54-.44-.91-1.1-.91s-1.1.37-1.1.91.44.88,1.1.88S102,220.89,102,220.35Z"/><path class="cls-14" d="M104.35,219h.59v1.79h-.59Zm1.06,0H106v1.79h-.58Z"/><path class="cls-14" d="M376.46,251.29h.68l.82,4.55h0l1.38-4.55H380l1.39,4.55h0l.82-4.55h.68l-1,5.6h-.8l-1.37-4.5h0l-1.36,4.5h-.81Z"/><path class="cls-14" d="M348,251h1.74c1.41,0,2.41,1,2.41,2.79,0,2-1,2.81-2.46,2.81H348Zm1.65,5c1.14,0,1.84-.6,1.84-2.19,0-1.43-.7-2.16-1.79-2.16h-1.05V256Z"/></g></g></svg>