<svg xmlns="http://www.w3.org/2000/svg" viewBox="0 0 345.99 456.62"><defs><style>.cls-1,.cls-11,.cls-14,.cls-3,.cls-6,.cls-7,.cls-8,.cls-9{fill:none;}.cls-1,.cls-10,.cls-11,.cls-12,.cls-13,.cls-14,.cls-15,.cls-2,.cls-3,.cls-4,.cls-5,.cls-6,.cls-7,.cls-8,.cls-9{stroke:#231f20;}.cls-1,.cls-10,.cls-11,.cls-12,.cls-14,.cls-2,.cls-3,.cls-4,.cls-6,.cls-7{stroke-linecap:round;stroke-linejoin:round;}.cls-1,.cls-12,.cls-13,.cls-14,.cls-6,.cls-8{stroke-width:0.25px;}.cls-1{stroke-dasharray:1.32 1.32;}.cls-10,.cls-12,.cls-13,.cls-2,.cls-4,.cls-5{fill:#fff;}.cls-2,.cls-3,.cls-5{stroke-width:0.15px;}.cls-4{stroke-width:0.22px;}.cls-13,.cls-15,.cls-5,.cls-8,.cls-9{stroke-miterlimit:10;}.cls-15,.cls-7{stroke-width:0.4px;}.cls-9{stroke-width:0.4px;}.cls-10,.cls-11{stroke-width:0.2px;}.cls-14{stroke-dasharray:2 2;}.cls-15{fill:#e1e5e5;}.cls-16{fill:#231f20;}</style></defs><title>Asset 6</title><g id="Layer_2" data-name="Layer 2"><g id="Unit5B_Rest"><g id="LWPOLYLINE"><path class="cls-1" d="M61.24,17.08,34.93,27a28,28,0,0,1-1.81-9.92"/></g><g id="LWPOLYLINE-2" data-name="LWPOLYLINE"><path class="cls-1" d="M5,17.08,31.31,27a28.23,28.23,0,0,0,1.81-9.92"/></g><g id="LWPOLYLINE-3" data-name="LWPOLYLINE"><path class="cls-1" d="M155,17.08,128.68,27a28,28,0,0,1-1.81-9.92"/></g><g id="LWPOLYLINE-4" data-name="LWPOLYLINE"><path class="cls-1" d="M98.74,17.08,125.06,27a28.23,28.23,0,0,0,1.81-9.92"/></g><g id="LWPOLYLINE-5" data-name="LWPOLYLINE"><path class="cls-1" d="M280.6,39.58,248.89,51.12a33.69,33.69,0,0,1-2-11.54,33.92,33.92,0,0,1-2,11.54L213.1,39.58"/></g><g id="LWPOLYLINE-6" data-name="LWPOLYLINE"><path class="cls-2" d="M88.65,236.16A12.81,12.81,0,0,1,89.82,235a12,12,0,0,1,16.89,1.16l-1.06.93V248H89.71v-10.9Z"/></g><g id="LWPOLYLINE-7" data-name="LWPOLYLINE"><path class="cls-2" d="M62.36,236.16A12.7,12.7,0,0,1,63.52,235a12,12,0,0,1,16.9,1.16l-1.06.93V248H63.42v-10.9Z"/></g><g id="LWPOLYLINE-8" data-name="LWPOLYLINE"><path class="cls-2" d="M36.06,236.16A12.81,12.81,0,0,1,37.23,235a12,12,0,0,1,16.89,1.16l-1.06.93V248H37.12v-10.9Z"/></g><g id="LWPOLYLINE-9" data-name="LWPOLYLINE"><path class="cls-2" d="M48.62,183v17.81l-5.82-.29a3.75,3.75,0,0,1-3.56-3.74V187a3.76,3.76,0,0,1,3.56-3.75Z"/></g><g id="LWPOLYLINE-10" data-name="LWPOLYLINE"><path class="cls-2" d="M97.38,201V183.22l5.81.29a3.75,3.75,0,0,1,3.56,3.75V197a3.75,3.75,0,0,1-3.56,3.74Z"/></g><g id="LWPOLYLINE-11" data-name="LWPOLYLINE"><path class="cls-2" d="M50.73,181.59H68.54l-.29-5.81a3.76,3.76,0,0,0-3.75-3.56H54.76A3.75,3.75,0,0,0,51,175.78Z"/></g><g id="LWPOLYLINE-12" data-name="LWPOLYLINE"><path class="cls-2" d="M76.51,181.59H94.32L94,175.78a3.76,3.76,0,0,0-3.75-3.56H80.54a3.75,3.75,0,0,0-3.74,3.56Z"/></g><g id="LWPOLYLINE-13" data-name="LWPOLYLINE"><path class="cls-2" d="M94.32,201.64H76.51l.29,5.81A3.75,3.75,0,0,0,80.54,211h9.74A3.75,3.75,0,0,0,94,207.45Z"/></g><g id="LWPOLYLINE-14" data-name="LWPOLYLINE"><path class="cls-2" d="M68.54,201.64H50.73l.29,5.81A3.74,3.74,0,0,0,54.76,211H64.5a3.75,3.75,0,0,0,3.75-3.56Z"/></g><g id="LWPOLYLINE-15" data-name="LWPOLYLINE"><path class="cls-2" d="M48.62,199.4l-5.74-.28a2.35,2.35,0,0,1-2.23-2.34V187a2.36,2.36,0,0,1,2.23-2.35l5.74-.28"/></g><g id="LWPOLYLINE-16" data-name="LWPOLYLINE"><path class="cls-2" d="M97.38,184.63l5.74.29a2.34,2.34,0,0,1,2.23,2.34V197a2.35,2.35,0,0,1-2.23,2.34l-5.74.28"/></g><g id="LWPOLYLINE-17" data-name="LWPOLYLINE"><path class="cls-2" d="M67.13,181.59l-.29-5.74a2.34,2.34,0,0,0-2.34-2.23H54.76a2.34,2.34,0,0,0-2.34,2.23l-.29,5.74"/></g><g id="LWPOLYLINE-18" data-name="LWPOLYLINE"><path class="cls-2" d="M93,181.83l-.29-5.74a2.34,2.34,0,0,0-2.34-2.23H80.64a2.34,2.34,0,0,0-2.34,2.23L78,181.83"/></g><g id="LWPOLYLINE-19" data-name="LWPOLYLINE"><path class="cls-2" d="M77.92,201.64l.28,5.74a2.35,2.35,0,0,0,2.34,2.23h9.74a2.36,2.36,0,0,0,2.35-2.23l.28-5.74"/></g><g id="LWPOLYLINE-20" data-name="LWPOLYLINE"><path class="cls-2" d="M52,201.4l.29,5.75a2.34,2.34,0,0,0,2.34,2.22h9.74a2.34,2.34,0,0,0,2.34-2.22L67,201.4"/></g><g id="LWPOLYLINE-21" data-name="LWPOLYLINE"><rect class="cls-2" x="44.87" y="177.84" width="56.25" height="28.13"/></g><g id="LWPOLYLINE-22" data-name="LWPOLYLINE"><rect class="cls-2" x="162.58" y="90.08" width="80.62" height="71.25"/></g><g id="LWPOLYLINE-23" data-name="LWPOLYLINE"><rect class="cls-2" x="162.58" y="163.32" width="15.94" height="15.9"/></g><g id="LWPOLYLINE-24" data-name="LWPOLYLINE"><rect class="cls-2" x="162.58" y="71.98" width="15.94" height="15.9"/></g><g id="LWPOLYLINE-25" data-name="LWPOLYLINE"><rect class="cls-3" x="167.93" y="126.98" width="14.68" height="31.81"/></g><g id="LINE"><line class="cls-3" x1="165.39" y1="90.08" x2="165.39" y2="161.33"/></g><g id="LINE-2" data-name="LINE"><line class="cls-3" x1="240.39" y1="90.08" x2="240.39" y2="161.33"/></g><g id="LWPOLYLINE-26" data-name="LWPOLYLINE"><rect class="cls-3" x="167.93" y="92.62" width="14.68" height="31.81"/></g><g id="LWPOLYLINE-27" data-name="LWPOLYLINE"><line class="cls-3" x1="91.57" y1="235.41" x2="91.57" y2="247.99"/></g><g id="LWPOLYLINE-28" data-name="LWPOLYLINE"><line class="cls-3" x1="103.8" y1="235.41" x2="103.8" y2="247.99"/></g><g id="LWPOLYLINE-29" data-name="LWPOLYLINE"><path class="cls-3" d="M105.65,237.09a10.57,10.57,0,0,0-14.91-1,11.13,11.13,0,0,0-1,1"/></g><g id="LWPOLYLINE-30" data-name="LWPOLYLINE"><line class="cls-3" x1="65.27" y1="235.41" x2="65.27" y2="247.99"/></g><g id="LWPOLYLINE-31" data-name="LWPOLYLINE"><line class="cls-3" x1="77.51" y1="235.41" x2="77.51" y2="247.99"/></g><g id="LWPOLYLINE-32" data-name="LWPOLYLINE"><path class="cls-3" d="M79.36,237.09a10.57,10.57,0,0,0-14.91-1,10,10,0,0,0-1,1"/></g><g id="LWPOLYLINE-33" data-name="LWPOLYLINE"><line class="cls-3" x1="38.98" y1="235.41" x2="38.98" y2="247.99"/></g><g id="LWPOLYLINE-34" data-name="LWPOLYLINE"><line class="cls-3" x1="51.21" y1="235.41" x2="51.21" y2="247.99"/></g><g id="LWPOLYLINE-35" data-name="LWPOLYLINE"><path class="cls-3" d="M53.06,237.09a10.57,10.57,0,0,0-14.91-1,11.13,11.13,0,0,0-1,1"/></g><g id="LWPOLYLINE-36" data-name="LWPOLYLINE"><polygon class="cls-2" points="282.51 81.04 281.19 79.13 280.89 79.33 280.32 79.48 279.8 79.22 278.56 77.73 277.54 76.52 276.7 75.44 275.63 73.98 274.68 72.62 274.3 72.08 274.01 71.62 273.64 71.05 273.23 70.39 272.3 68.84 271.47 67.37 270.85 66.2 270.79 65.62 271.13 65.14 271.44 64.93 269.76 62.5 288.48 49.63 301.22 68.17 282.51 81.04"/></g><g id="LINE-3" data-name="LINE"><line class="cls-3" x1="290.15" y1="52.06" x2="271.44" y2="64.93"/></g><g id="LINE-4" data-name="LINE"><line class="cls-3" x1="281.19" y1="79.13" x2="299.91" y2="66.26"/></g><g id="ARC"><path class="cls-3" d="M286,54.93a40.24,40.24,0,0,0,9.76,14.2"/></g><g id="ARC-2" data-name="ARC"><path class="cls-3" d="M288.76,53a100.59,100.59,0,0,0,9.76,14.19"/></g><line class="cls-3" x1="184.99" y1="161.31" x2="184.99" y2="90.06"/><line class="cls-3" x1="187.42" y1="161.31" x2="187.42" y2="90.06"/><g id="LWPOLYLINE-37" data-name="LWPOLYLINE"><rect class="cls-4" x="293.72" y="92.6" width="15" height="65.63"/></g><g id="LWPOLYLINE-38" data-name="LWPOLYLINE"><rect class="cls-2" x="141.88" y="68.52" width="15" height="56.25"/></g><g id="LWPOLYLINE-39" data-name="LWPOLYLINE"><polygon class="cls-2" points="125.82 69.91 149.9 52 134.64 30.07 109.48 46.44 125.82 69.91"/></g><g id="LINE-5" data-name="LINE"><line class="cls-3" x1="123.54" y1="66.64" x2="147.63" y2="48.72"/></g><g id="LINE-6" data-name="LINE"><line class="cls-3" x1="144.24" y1="51.24" x2="133.38" y2="35.65"/></g><g id="LINE-7" data-name="LINE"><line class="cls-3" x1="136.91" y1="33.34" x2="111.76" y2="49.71"/></g><g id="LWPOLYLINE-40" data-name="LWPOLYLINE"><rect class="cls-2" x="16.53" y="136.83" width="17.7" height="18.44"/></g><rect class="cls-2" x="128.01" y="94.81" width="44.9" height="1.76" transform="translate(246.15 -54.78) rotate(90)"/><rect class="cls-2" x="3.25" y="42.09" width="33.75" height="84.38"/><g id="LINE-8" data-name="LINE"><line class="cls-3" x1="7.93" y1="96.78" x2="36.01" y2="96.78"/></g><g id="LWPOLYLINE-41" data-name="LWPOLYLINE"><polyline class="cls-3" points="37 46.78 7.93 46.78 7.93 121.78 37 121.78"/></g><g id="ARC-3" data-name="ARC"><path class="cls-3" d="M12.43,120.84a59.57,59.57,0,0,0,0-23.12"/></g><g id="ARC-4" data-name="ARC"><path class="cls-3" d="M12.43,97.72a1.24,1.24,0,0,0-1-.94"/></g><g id="ARC-5" data-name="ARC"><path class="cls-3" d="M11.45,121.78a1.22,1.22,0,0,0,1-.94"/></g><g id="ARC-6" data-name="ARC"><path class="cls-3" d="M11.45,96.78a1.22,1.22,0,0,0,1-.94"/></g><g id="ARC-7" data-name="ARC"><path class="cls-3" d="M12.43,47.72a1.24,1.24,0,0,0-1-.94"/></g><g id="ARC-8" data-name="ARC"><path class="cls-3" d="M37,97.72a1.24,1.24,0,0,0-1-.94"/></g><g id="ARC-9" data-name="ARC"><path class="cls-3" d="M36,96.78a1.22,1.22,0,0,0,1-.94"/></g><g id="ARC-10" data-name="ARC"><path class="cls-3" d="M36,121.78a1.22,1.22,0,0,0,1-.94"/></g><g id="ARC-11" data-name="ARC"><path class="cls-3" d="M37,47.72a1.24,1.24,0,0,0-1-.94"/></g><g id="LINE-9" data-name="LINE"><line class="cls-3" x1="7.93" y1="71.78" x2="36.01" y2="71.78"/></g><g id="ARC-12" data-name="ARC"><path class="cls-3" d="M12.43,70.84a59.57,59.57,0,0,0,0-23.12"/></g><g id="ARC-13" data-name="ARC"><path class="cls-3" d="M11.45,71.78a1.22,1.22,0,0,0,1-.94"/></g><g id="ARC-14" data-name="ARC"><path class="cls-3" d="M12.43,72.72a1.24,1.24,0,0,0-1-.94"/></g><g id="ARC-15" data-name="ARC"><path class="cls-3" d="M36,71.78a1.22,1.22,0,0,0,1-.94"/></g><g id="ARC-16" data-name="ARC"><path class="cls-3" d="M37,72.72a1.24,1.24,0,0,0-1-.94"/></g><g id="ARC-17" data-name="ARC"><path class="cls-3" d="M12.43,95.84a59.57,59.57,0,0,0,0-23.12"/></g><g id="ARC-18" data-name="ARC"><path class="cls-3" d="M12.43,97.72a1.24,1.24,0,0,0-1-.94"/></g><g id="ARC-19" data-name="ARC"><path class="cls-3" d="M11.45,121.78a1.22,1.22,0,0,0,1-.94"/></g><g id="ARC-20" data-name="ARC"><path class="cls-3" d="M11.45,96.78a1.22,1.22,0,0,0,1-.94"/></g><g id="ARC-21" data-name="ARC"><path class="cls-3" d="M12.43,47.72a1.24,1.24,0,0,0-1-.94"/></g><g id="ARC-22" data-name="ARC"><path class="cls-3" d="M37,97.72a1.24,1.24,0,0,0-1-.94"/></g><g id="ARC-23" data-name="ARC"><path class="cls-3" d="M36,96.78a1.22,1.22,0,0,0,1-.94"/></g><g id="ARC-24" data-name="ARC"><path class="cls-3" d="M36,121.78a1.22,1.22,0,0,0,1-.94"/></g><g id="ARC-25" data-name="ARC"><path class="cls-3" d="M37,47.72a1.24,1.24,0,0,0-1-.94"/></g><g id="ARC-26" data-name="ARC"><path class="cls-3" d="M11.45,71.78a1.22,1.22,0,0,0,1-.94"/></g><g id="ARC-27" data-name="ARC"><path class="cls-3" d="M12.43,72.72a1.24,1.24,0,0,0-1-.94"/></g><g id="ARC-28" data-name="ARC"><path class="cls-3" d="M36,71.78a1.22,1.22,0,0,0,1-.94"/></g><g id="ARC-29" data-name="ARC"><path class="cls-3" d="M37,72.72a1.24,1.24,0,0,0-1-.94"/></g><path class="cls-5" d="M17.94,116.06s5.28,6.85,7.94,5.56-7.24-10.46-7.24-10.46-3.91-4-4.65-2S17.94,116.06,17.94,116.06Z"/><path class="cls-5" d="M19.69,104.08S15.32,97,13.4,98.32,17,107.76,17,107.76s3.83,7.57,5.71,5.53S19.69,104.08,19.69,104.08Z"/><path class="cls-5" d="M14.3,63.16s3.62-.75,5.2-8.34,1.11-7.68.31-8-4.2,2.24-5.22,9.2S13,62.84,14.3,63.16Z"/><path class="cls-5" d="M72.4,109.39s-10.07.6-9.72-9.83,4.37-29.08,13.88-35S97.68,81.16,97.68,81.16s7.59,11.3-4.81,19.83S72.4,109.39,72.4,109.39Z"/><g id="LWPOLYLINE-42" data-name="LWPOLYLINE"><polyline class="cls-6" points="30.89 12.39 30.89 13.32 6.87 13.32 6.87 12.39"/></g><g id="LWPOLYLINE-43" data-name="LWPOLYLINE"><polyline class="cls-6" points="59.37 12.39 59.37 13.32 35.34 13.32 35.34 12.39"/></g><g id="LWPOLYLINE-44" data-name="LWPOLYLINE"><polyline class="cls-7" points="63.12 17.07 63.12 22.7 3.12 22.7 3.12 17.07"/></g><g id="LWPOLYLINE-45" data-name="LWPOLYLINE"><polyline class="cls-6" points="124.64 12.39 124.64 13.32 100.62 13.32 100.62 12.39"/></g><g id="LWPOLYLINE-46" data-name="LWPOLYLINE"><polyline class="cls-6" points="153.12 12.39 153.12 13.32 129.09 13.32 129.09 12.39"/></g><g id="LWPOLYLINE-47" data-name="LWPOLYLINE"><polyline class="cls-7" points="156.87 17.07 156.87 22.7 96.87 22.7 96.87 17.07"/></g><g id="LWPOLYLINE-48" data-name="LWPOLYLINE"><polyline class="cls-7" points="303.1 39.58 303.1 45.2 190.6 45.2 190.6 39.58"/></g><g id="LWPOLYLINE-49" data-name="LWPOLYLINE"><rect class="cls-6" x="5.93" y="13.33" width="25.66" height="1.23"/></g><g id="LWPOLYLINE-50" data-name="LWPOLYLINE"><rect class="cls-6" x="34.64" y="13.33" width="25.66" height="1.23"/></g><g id="LWPOLYLINE-51" data-name="LWPOLYLINE"><rect class="cls-6" x="99.68" y="13.33" width="25.66" height="1.23"/></g><g id="LWPOLYLINE-52" data-name="LWPOLYLINE"><rect class="cls-6" x="128.39" y="13.33" width="25.66" height="1.23"/></g><g id="LWPOLYLINE-53" data-name="LWPOLYLINE"><polygon class="cls-6" points="212.63 35.83 211.7 35.83 194.35 35.83 193.41 35.83 193.41 37.05 211.7 37.05 212.63 37.05 212.63 35.83"/></g><g id="LWPOLYLINE-54" data-name="LWPOLYLINE"><polygon class="cls-6" points="245.33 35.83 244.63 35.83 214.51 35.83 214.51 37.05 245.32 37.05 245.33 35.83"/></g><g id="LWPOLYLINE-55" data-name="LWPOLYLINE"><polygon class="cls-6" points="279.2 35.83 278.26 35.83 249.08 35.83 248.38 35.83 248.38 37.05 279.2 37.05 279.2 35.83"/></g><g id="LWPOLYLINE-56" data-name="LWPOLYLINE"><polygon class="cls-6" points="300.29 35.83 299.35 35.83 281.07 35.83 281.07 37.05 300.29 37.05 300.29 35.83"/></g><line class="cls-6" x1="194.35" y1="39.57" x2="299.35" y2="39.57"/><line class="cls-6" x1="100.62" y1="17.08" x2="153.12" y2="17.08"/><line class="cls-6" x1="5.93" y1="17.08" x2="59.37" y2="17.08"/><g id="LWPOLYLINE-57" data-name="LWPOLYLINE"><polygon class="cls-8" points="6.87 14.55 5.93 14.55 5.93 13.32 6.87 13.32 6.87 12.39 4.99 12.39 4.99 8.64 4.05 8.64 4.05 12.39 3.12 12.39 3.12 17.07 6.87 17.07 6.87 14.55"/></g><g id="LWPOLYLINE-58" data-name="LWPOLYLINE"><polyline class="cls-8" points="32.65 10.04 33.59 10.04 33.59 12.39 35.34 12.39 35.34 13.32 34.64 13.32 34.64 14.55 35.34 14.55 35.34 17.07 33.47 17.07 33.47 16.61 32.76 16.61 32.76 17.07 30.89 17.07 30.89 14.55 31.58 14.55 31.59 13.32 30.89 13.32 30.89 12.39 32.65 12.39 32.65 10.04"/></g><g id="LWPOLYLINE-59" data-name="LWPOLYLINE"><polygon class="cls-8" points="63.12 12.39 62.18 12.39 62.18 8.64 61.24 8.64 61.24 12.39 59.37 12.39 59.37 13.32 60.3 13.32 60.3 14.55 59.37 14.55 59.37 17.07 63.12 17.07 63.12 12.39"/></g><g id="LWPOLYLINE-60" data-name="LWPOLYLINE"><polygon class="cls-8" points="100.62 14.55 99.68 14.55 99.68 13.32 100.62 13.32 100.62 12.39 98.74 12.39 98.74 8.64 97.8 8.64 97.8 12.39 96.87 12.39 96.87 17.07 100.62 17.07 100.62 14.55"/></g><g id="LWPOLYLINE-61" data-name="LWPOLYLINE"><polyline class="cls-8" points="126.4 10.04 127.33 10.04 127.33 12.39 129.09 12.39 129.09 13.32 128.39 13.32 128.39 14.55 129.09 14.55 129.09 17.07 127.22 17.07 127.22 16.61 126.51 16.61 126.51 17.07 124.64 17.07 124.64 14.55 125.33 14.55 125.34 13.32 124.64 13.32 124.64 12.39 126.4 12.39 126.4 10.04"/></g><g id="LWPOLYLINE-62" data-name="LWPOLYLINE"><polygon class="cls-8" points="156.87 12.39 155.93 12.39 155.93 8.64 154.99 8.64 154.99 12.39 153.12 12.39 153.12 13.32 154.05 13.32 154.05 14.55 153.12 14.55 153.12 17.07 156.87 17.07 156.87 12.39"/></g><g id="LWPOLYLINE-63" data-name="LWPOLYLINE"><polyline class="cls-8" points="246.38 32.54 247.32 32.54 247.32 34.89 249.08 34.89 249.08 35.83 248.38 35.83 248.38 37.05 249.08 37.05 249.08 39.58 247.2 39.58 247.2 39.11 246.5 39.11 246.5 39.58 244.63 39.58 244.63 37.05 245.32 37.05 245.33 35.83 244.63 35.83 244.63 34.89 246.38 34.89 246.38 32.54"/></g><g id="LWPOLYLINE-64" data-name="LWPOLYLINE"><polygon class="cls-8" points="278.26 37.05 279.2 37.05 279.2 35.83 278.26 35.83 278.26 34.89 280.13 34.89 280.13 32.54 281.07 32.54 281.07 34.89 282.01 34.89 282.01 35.83 281.07 35.83 281.07 37.05 282.01 37.05 282.01 38.23 281.19 38.23 281.19 39.11 280.13 39.11 280.13 39.58 278.26 39.58 278.26 37.05"/></g><g id="LWPOLYLINE-65" data-name="LWPOLYLINE"><polygon class="cls-8" points="303.1 34.89 302.16 34.89 302.16 31.14 301.23 31.14 301.23 34.89 299.35 34.89 299.35 35.83 300.29 35.83 300.29 37.05 299.35 37.05 299.35 39.58 303.1 39.58 303.1 34.89"/></g><g id="LWPOLYLINE-66" data-name="LWPOLYLINE"><polygon class="cls-8" points="194.35 37.05 193.41 37.05 193.41 35.83 194.35 35.83 194.35 34.89 192.48 34.89 192.48 31.14 191.54 31.14 191.54 34.89 190.6 34.89 190.6 39.58 194.35 39.58 194.35 37.05"/></g><g id="LWPOLYLINE-67" data-name="LWPOLYLINE"><polygon class="cls-8" points="215.45 37.05 214.51 37.05 214.51 35.83 215.45 35.83 215.45 34.89 213.57 34.89 213.57 32.54 212.63 32.54 212.63 34.89 211.7 34.89 211.7 35.83 212.63 35.83 212.63 37.05 211.7 37.05 211.7 38.23 212.52 38.23 212.52 39.11 213.57 39.11 213.57 39.58 215.45 39.58 215.45 37.05"/></g><g id="LWPOLYLINE-68" data-name="LWPOLYLINE"><polyline class="cls-7" points="63.12 17.07 63.12 0.2 3.12 0.2 3.12 17.07"/></g><g id="LWPOLYLINE-69" data-name="LWPOLYLINE"><polyline class="cls-7" points="156.87 17.07 156.87 0.2 96.87 0.2 96.87 17.07"/></g><g id="LWPOLYLINE-70" data-name="LWPOLYLINE"><polyline class="cls-7" points="303.1 39.58 303.1 31.14 190.6 31.14 190.6 39.58"/></g><line class="cls-9" x1="303.19" y1="22.7" x2="188.95" y2="22.7"/><g id="LWPOLYLINE-71" data-name="LWPOLYLINE"><rect class="cls-10" x="235.86" y="241.12" width="33.75" height="2.11" transform="translate(-97.22 249.64) rotate(-45)"/></g><g id="LWPOLYLINE-72" data-name="LWPOLYLINE"><rect class="cls-10" x="101.89" y="419.75" width="33.75" height="1.64" transform="translate(-262.6 207.16) rotate(-45)"/></g><g id="LWPOLYLINE-73" data-name="LWPOLYLINE"><rect class="cls-11" x="282.8" y="193.03" width="1.64" height="28.13"/></g><g id="LWPOLYLINE-74" data-name="LWPOLYLINE"><rect class="cls-11" x="284.67" y="289.89" width="1.64" height="33.75"/></g><g id="LWPOLYLINE-75" data-name="LWPOLYLINE"><rect class="cls-11" x="245.3" y="331.25" width="33.75" height="1.64"/></g><g id="LWPOLYLINE-76" data-name="LWPOLYLINE"><rect class="cls-11" x="164.09" y="258.83" width="33.75" height="1.64"/></g><g id="LWPOLYLINE-77" data-name="LWPOLYLINE"><rect class="cls-11" x="99.87" y="361.96" width="1.64" height="33.75"/></g><g id="LWPOLYLINE-78" data-name="LWPOLYLINE"><rect class="cls-11" x="159.16" y="367.64" width="1.64" height="33.75"/></g><g id="LWPOLYLINE-79" data-name="LWPOLYLINE"><rect class="cls-11" x="245.3" y="331.25" width="33.75" height="1.64"/></g><g id="ARC-30" data-name="ARC"><path class="cls-11" d="M263.92,229.49a34.26,34.26,0,0,0-22.37-8.39"/></g><g id="ARC-31" data-name="ARC"><path class="cls-11" d="M140,431.92a33.76,33.76,0,0,0-9.88-23.87"/></g><g id="LWPOLYLINE-80" data-name="LWPOLYLINE"><rect class="cls-6" x="309.16" y="332.9" width="33.75" height="69.37"/></g><g id="LWPOLYLINE-81" data-name="LWPOLYLINE"><path class="cls-6" d="M337.73,340.2v52.61a4.77,4.77,0,0,1-4.77,4.77H317.69a4.77,4.77,0,0,1-4.78-4.77V340.2a4.78,4.78,0,0,1,4.78-4.77H333a4.78,4.78,0,0,1,4.77,4.77"/></g><g id="ARC-32" data-name="ARC"><path class="cls-6" d="M208.4,395a3.28,3.28,0,1,0-.78,0"/></g><g id="LWPOLYLINE-82" data-name="LWPOLYLINE"><path class="cls-6" d="M207.62,391.78v11.47h.77V391.78a.39.39,0,1,0-.77,0Z"/></g><g id="LWPOLYLINE-83" data-name="LWPOLYLINE"><rect class="cls-6" x="190.22" y="332.9" width="35.63" height="69.37"/></g><g id="LWPOLYLINE-84" data-name="LWPOLYLINE"><rect class="cls-12" x="225.84" y="332.9" width="0.83" height="35.62"/></g><g id="ARC-33" data-name="ARC"><path class="cls-12" d="M325.5,395.05a3.28,3.28,0,1,0-.79,0"/></g><g id="LWPOLYLINE-85" data-name="LWPOLYLINE"><path class="cls-12" d="M324.71,391.84v11.41h.78V391.84a.41.41,0,0,0-.39-.43A.41.41,0,0,0,324.71,391.84Z"/></g><rect class="cls-12" x="68.72" y="364.89" width="25.31" height="27.89"/><g id="LWPOLYLINE-86" data-name="LWPOLYLINE"><rect class="cls-13" x="1.59" y="317.08" width="117.84" height="25.09"/></g><g id="LWPOLYLINE-87" data-name="LWPOLYLINE"><rect class="cls-13" x="1.55" y="238.68" width="114.88" height="37.5"/></g><g id="LWPOLYLINE-88" data-name="LWPOLYLINE"><polyline class="cls-8" points="59.17 259.74 59.17 272.58 83.26 272.58 83.26 259.74 59.17 259.74"/></g><rect class="cls-13" x="70.98" y="257.47" width="2.93" height="1.23" transform="translate(144.89 516.17) rotate(180)"/><path class="cls-13" d="M70.33,258.58a1,1,0,0,0,.29.28v6.19a.45.45,0,0,0,.89,0v-6.19a.85.85,0,1,0-1.18-.28Z"/><g id="CIRCLE"><path class="cls-8" d="M84.26,323.89a.7.7,0,1,1,.69-.7.7.7,0,0,1-.69.7Z"/></g><g id="CIRCLE-2" data-name="CIRCLE"><path class="cls-8" d="M79.88,323.89a.7.7,0,0,1,0-1.4.7.7,0,1,1,0,1.4Z"/></g><g id="CIRCLE-3" data-name="CIRCLE"><path class="cls-8" d="M79.88,326.75a.7.7,0,1,1,.7-.69.69.69,0,0,1-.7.69Z"/></g><g id="CIRCLE-4" data-name="CIRCLE"><path class="cls-8" d="M82.07,326.75a.7.7,0,1,1,0-1.39.7.7,0,1,1,0,1.39Z"/></g><g id="CIRCLE-5" data-name="CIRCLE"><path class="cls-8" d="M84.26,326.75a.7.7,0,1,1,.69-.69.69.69,0,0,1-.69.69Z"/></g><g id="LWPOLYLINE-89" data-name="LWPOLYLINE"><rect class="cls-8" x="68.58" y="320.31" width="26.99" height="16.03" rx="0.38"/></g><circle class="cls-8" cx="73.39" cy="332.19" r="1.32"/><path class="cls-8" d="M77.38,329v5.85a.56.56,0,0,1-.57.55H70a.57.57,0,0,1-.57-.55V329a.05.05,0,0,1,0,0h7.89A0,0,0,0,1,77.38,329Z"/><circle class="cls-8" cx="82.07" cy="332.19" r="1.32"/><path class="cls-8" d="M86.06,329v5.85a.56.56,0,0,1-.56.55H78.64a.56.56,0,0,1-.56-.55V329a0,0,0,0,1,0,0H86A0,0,0,0,1,86.06,329Z"/><circle class="cls-8" cx="90.75" cy="332.19" r="1.32"/><path class="cls-8" d="M94.74,329v5.85a.56.56,0,0,1-.56.55H87.32a.56.56,0,0,1-.56-.55V329a0,0,0,0,1,0,0h7.9A0,0,0,0,1,94.74,329Z"/><circle class="cls-8" cx="90.75" cy="324.62" r="1.32"/><path class="cls-8" d="M86.76,327.8V322a.56.56,0,0,1,.56-.55h6.86a.56.56,0,0,1,.56.55v5.85a0,0,0,0,1,0,.05H86.8A0,0,0,0,1,86.76,327.8Z"/><circle class="cls-8" cx="73.39" cy="324.62" r="1.32"/><path class="cls-8" d="M69.39,327.8V322a.57.57,0,0,1,.57-.55h6.85a.56.56,0,0,1,.57.55v5.85a0,0,0,0,1,0,.05H69.44A.05.05,0,0,1,69.39,327.8Z"/><g id="LINE-10" data-name="LINE"><line class="cls-14" x1="46.48" y1="328.85" x2="119.09" y2="328.85"/></g><line class="cls-8" x1="18.58" y1="317.08" x2="18.58" y2="342.67"/><line class="cls-8" x1="46.48" y1="317.08" x2="46.48" y2="342.67"/><line class="cls-8" x1="27.93" y1="238.68" x2="27.93" y2="276.18"/><g id="LWPOLYLINE-90" data-name="LWPOLYLINE"><line class="cls-14" x1="297.56" y1="227.31" x2="297.56" y2="186.88"/></g><g id="LWPOLYLINE-91" data-name="LWPOLYLINE"><polyline class="cls-14" points="286.31 262 331.67 262 331.67 329.38"/></g><g id="LWPOLYLINE-92" data-name="LWPOLYLINE"><line class="cls-14" x1="174.4" y1="406.37" x2="174.4" y2="362.19"/></g><g id="LWPOLYLINE-93" data-name="LWPOLYLINE"><line class="cls-14" x1="116.44" y1="248.05" x2="27.93" y2="248.05"/></g><polyline class="cls-14" points="49.59 276.06 49.59 252.73 27.93 252.73"/><g id="LINE-11" data-name="LINE"><line class="cls-8" x1="291.04" y1="223.69" x2="304.09" y2="223.69"/></g><g id="LINE-12" data-name="LINE"><line class="cls-8" x1="291.04" y1="221.27" x2="304.09" y2="221.27"/></g><g id="LINE-13" data-name="LINE"><line class="cls-8" x1="291.04" y1="218.86" x2="304.09" y2="218.85"/></g><g id="LINE-14" data-name="LINE"><line class="cls-8" x1="291.04" y1="216.44" x2="304.09" y2="216.44"/></g><g id="LINE-15" data-name="LINE"><line class="cls-8" x1="291.04" y1="214.02" x2="304.09" y2="214.02"/></g><g id="LINE-16" data-name="LINE"><line class="cls-8" x1="304.09" y1="211.6" x2="291.04" y2="211.6"/></g><g id="LINE-17" data-name="LINE"><line class="cls-8" x1="325.14" y1="325.43" x2="338.19" y2="325.43"/></g><g id="LINE-18" data-name="LINE"><line class="cls-8" x1="325.14" y1="323.01" x2="338.19" y2="323.01"/></g><g id="LINE-19" data-name="LINE"><line class="cls-8" x1="325.14" y1="320.59" x2="338.19" y2="320.59"/></g><g id="LINE-20" data-name="LINE"><line class="cls-8" x1="325.14" y1="318.18" x2="338.19" y2="318.17"/></g><g id="LINE-21" data-name="LINE"><line class="cls-8" x1="325.14" y1="315.76" x2="338.19" y2="315.76"/></g><g id="LINE-22" data-name="LINE"><line class="cls-8" x1="338.19" y1="313.34" x2="325.14" y2="313.34"/></g><g id="LINE-23" data-name="LINE"><line class="cls-8" x1="290.26" y1="255.47" x2="290.26" y2="268.52"/></g><g id="LINE-24" data-name="LINE"><line class="cls-8" x1="292.68" y1="255.47" x2="292.68" y2="268.52"/></g><g id="LINE-25" data-name="LINE"><line class="cls-8" x1="295.1" y1="255.47" x2="295.1" y2="268.52"/></g><g id="LINE-26" data-name="LINE"><line class="cls-8" x1="297.52" y1="255.47" x2="297.52" y2="268.52"/></g><g id="LINE-27" data-name="LINE"><line class="cls-8" x1="299.94" y1="255.47" x2="299.94" y2="268.52"/></g><g id="LINE-28" data-name="LINE"><line class="cls-8" x1="302.36" y1="268.52" x2="302.36" y2="255.47"/></g><g id="LINE-29" data-name="LINE"><line class="cls-8" x1="180.93" y1="402.43" x2="167.87" y2="402.43"/></g><g id="LINE-30" data-name="LINE"><line class="cls-8" x1="180.93" y1="400.01" x2="167.87" y2="400.01"/></g><g id="LINE-31" data-name="LINE"><line class="cls-8" x1="180.93" y1="397.59" x2="167.87" y2="397.59"/></g><g id="LINE-32" data-name="LINE"><line class="cls-8" x1="180.93" y1="395.17" x2="167.87" y2="395.17"/></g><g id="LINE-33" data-name="LINE"><line class="cls-8" x1="180.93" y1="392.75" x2="167.87" y2="392.75"/></g><g id="LINE-34" data-name="LINE"><line class="cls-8" x1="167.87" y1="390.33" x2="180.93" y2="390.33"/></g><g id="LWPOLYLINE-95" data-name="LWPOLYLINE"><rect class="cls-12" x="265.99" y="382.65" width="25.88" height="19.87"/></g><g id="LWPOLYLINE-96" data-name="LWPOLYLINE"><path class="cls-12" d="M271.08,386.53a1.11,1.11,0,0,1,1.11-1.11h13.49a1.11,1.11,0,0,1,1.11,1.11v10a.93.93,0,0,1-.93.93H272a.93.93,0,0,1-.92-.93Z"/></g><g id="ARC-34" data-name="ARC"><path class="cls-12" d="M256,386c.35,3.16,1,11.54,1,11.54"/></g><g id="ARC-35" data-name="ARC"><path class="cls-12" d="M244.7,393.3a.84.84,0,0,1-.77-.52c-.15-.34-.28-.7-.4-1a14.84,14.84,0,0,1-.64-2.94c-.06-.53-.11-1.06-.13-1.59a15.38,15.38,0,0,1,.34-4.17,10.13,10.13,0,0,1,3.07-5.31,4.82,4.82,0,0,1,6.54.06,10.15,10.15,0,0,1,3,5.37,15.8,15.8,0,0,1,.26,4.17c0,.54-.09,1.07-.17,1.6a14.76,14.76,0,0,1-.69,2.92q-.2.53-.42,1.05a.84.84,0,0,1-.78.5Z"/></g><g id="ARC-36" data-name="ARC"><path class="cls-12" d="M242.75,385.83c-.42,3.16-1,11.67-1,11.67"/></g><g id="ARC-37" data-name="ARC"><path class="cls-12" d="M257,397.35a1.1,1.1,0,0,0-1-1,55.56,55.56,0,0,0-13.31,0,1.08,1.08,0,0,0-1,1v0c-.06,1.14-.1,2.28-.13,3.42a1.46,1.46,0,0,0,1.34,1.49q3.2.28,6.41.28c2.13,0,4.27-.09,6.4-.28a1.45,1.45,0,0,0,1.34-1.49q0-1.71-.12-3.42Z"/></g><g id="ARC-38" data-name="ARC"><path class="cls-12" d="M279.4,398.81a1.19,1.19,0,0,1,.7,1.07,1.16,1.16,0,1,1-1.63-1.07Z"/></g><g id="ARC-39" data-name="ARC"><path class="cls-12" d="M284.73,400.12a1.17,1.17,0,1,1,0-.47Z"/></g><g id="ARC-40" data-name="ARC"><path class="cls-12" d="M273.13,400.12a1.17,1.17,0,1,0,0-.47Z"/></g><g id="LINE-35" data-name="LINE"><path class="cls-12" d="M279.4,394.29v5.59a.47.47,0,1,1-.93,0v-5.59a.47.47,0,1,1,.93,0Z"/></g><line class="cls-12" x1="283.58" y1="399.88" x2="286.86" y2="399.88"/><line class="cls-12" x1="271.01" y1="399.88" x2="274.28" y2="399.88"/><g id="LWPOLYLINE-97" data-name="LWPOLYLINE"><rect class="cls-12" x="210.11" y="270.69" width="19.87" height="25.88"/></g><g id="LWPOLYLINE-98" data-name="LWPOLYLINE"><path class="cls-12" d="M214,291.49a1.11,1.11,0,0,1-1.11-1.11V276.89a1.11,1.11,0,0,1,1.11-1.11h10a.93.93,0,0,1,.93.92v13.86a.93.93,0,0,1-.93.93Z"/></g><g id="ARC-41" data-name="ARC"><path class="cls-12" d="M213.42,306.59c3.17-.35,11.54-1,11.54-1"/></g><g id="ARC-42" data-name="ARC"><path class="cls-12" d="M220.76,317.87a.84.84,0,0,1-.51.77c-.35.14-.71.27-1.06.39a14.86,14.86,0,0,1-2.94.65c-.53.06-1.06.1-1.59.13a15.68,15.68,0,0,1-4.16-.34,10.14,10.14,0,0,1-5.32-3.08,5,5,0,0,1-1.25-3.28,4.85,4.85,0,0,1,1.32-3.25,10.11,10.11,0,0,1,5.37-3,15.75,15.75,0,0,1,4.17-.26c.53,0,1.06.09,1.59.16a14.78,14.78,0,0,1,2.92.7q.52.19,1,.42a.82.82,0,0,1,.5.78Z"/></g><g id="ARC-43" data-name="ARC"><path class="cls-12" d="M213.29,319.82c3.16.41,11.67,1,11.67,1"/></g><g id="ARC-44" data-name="ARC"><path class="cls-12" d="M224.81,305.59a1.1,1.1,0,0,0-1,1,56.89,56.89,0,0,0,0,13.3,1.12,1.12,0,0,0,1,1h0c1.14.05,2.28.09,3.43.12a1.47,1.47,0,0,0,1.49-1.34q.27-3.19.27-6.4t-.27-6.4a1.47,1.47,0,0,0-1.49-1.34c-1.15,0-2.29.06-3.43.12Z"/></g><g id="ARC-45" data-name="ARC"><path class="cls-12" d="M226.28,283.17a1.14,1.14,0,0,1,1.06-.7,1.16,1.16,0,1,1-1.06,1.63Z"/></g><g id="ARC-46" data-name="ARC"><path class="cls-12" d="M227.58,277.83a1.17,1.17,0,1,1-.47,0Z"/></g><g id="ARC-47" data-name="ARC"><path class="cls-12" d="M227.58,289.43a1.17,1.17,0,1,0-.47,0Z"/></g><g id="LINE-36" data-name="LINE"><path class="cls-12" d="M221.75,283.17h5.59a.46.46,0,0,1,.47.46.47.47,0,0,1-.47.47h-5.59a.46.46,0,0,1-.46-.47A.45.45,0,0,1,221.75,283.17Z"/></g><line class="cls-12" x1="227.34" y1="278.98" x2="227.34" y2="275.71"/><line class="cls-12" x1="227.34" y1="291.55" x2="227.34" y2="288.28"/><g id="LWPOLYLINE-99" data-name="LWPOLYLINE"><polygon class="cls-15" points="98.58 441.44 101.51 441.44 101.51 440.47 103.33 440.47 103.33 437.66 106.25 437.66 106.25 431.92 101.51 431.92 101.51 395.71 97.99 395.71 97.99 399.46 64.24 399.46 64.24 353.17 97.99 353.17 97.99 361.96 101.51 361.96 101.51 344.38 119.44 344.38 119.44 340.86 3.12 340.86 3.12 0.2 0.2 0.2 0.2 343.74 51.7 343.74 51.7 401.22 98.58 401.22 98.58 440.47 98.58 441.44"/></g><g id="LWPOLYLINE-100" data-name="LWPOLYLINE"><polygon class="cls-15" points="96.94 22.7 96.94 0.2 93.19 0.2 91.94 2.4 90.32 4.35 88.39 5.99 86.2 7.27 83.82 8.14 81.33 8.58 78.8 8.58 76.3 8.14 73.92 7.27 71.74 5.99 69.8 4.35 68.19 2.4 66.94 0.2 63.19 0.2 63.19 22.7 86.55 22.7 96.94 22.7"/></g><g id="LWPOLYLINE-101" data-name="LWPOLYLINE"><polygon class="cls-15" points="162.56 441.41 162.56 410.82 345.79 410.82 345.79 247.88 311.68 247.88 311.68 28.45 309.8 26.85 308.19 24.9 306.94 22.7 303.19 22.7 303.19 57.62 308.81 57.62 308.81 183.36 279.05 183.36 279.05 186.88 282.8 186.88 282.8 193.03 286.31 193.03 286.31 186.88 308.81 186.88 308.81 227.31 286.31 227.31 286.31 221.16 282.8 221.16 282.8 289.89 286.31 289.89 286.31 250.75 342.92 250.75 342.92 329.38 286.31 329.38 286.31 323.64 282.8 323.64 282.8 329.38 279.05 329.38 279.05 332.89 342.92 332.89 342.92 402.27 229.36 402.27 229.36 368.52 225.84 368.52 225.84 402.27 190.22 402.27 190.22 332.89 245.3 332.89 245.3 329.38 241.55 329.38 241.55 254.85 235.81 254.85 235.81 258.83 197.84 258.83 197.84 265.63 229.71 265.63 229.71 329.38 160.34 329.38 160.34 265.63 164.09 265.63 164.09 258.83 156.82 258.83 156.78 340.86 153.19 340.86 153.19 344.38 159.16 344.38 159.16 367.64 162.68 367.64 162.68 362.19 185.65 362.19 185.65 406.37 162.68 406.37 162.68 401.39 159.16 401.39 159.16 431.92 140 431.92 140 437.66 153.95 437.66 153.95 440.47 160.45 440.47 160.45 441.41 162.18 441.41 162.56 441.41"/></g><g id="LWPOLYLINE-102" data-name="LWPOLYLINE"><polygon class="cls-15" points="241.55 221.1 241.55 186.88 245.3 186.88 245.3 183.36 162.56 183.36 162.56 67.82 190.69 67.82 190.69 0.2 186.94 0.2 185.69 2.4 184.07 4.35 182.14 5.99 179.95 7.27 177.57 8.14 175.08 8.58 172.55 8.58 170.05 8.14 167.68 7.27 165.49 5.99 163.55 4.35 161.94 2.4 160.69 0.2 156.82 0.2 156.82 217.35 235.81 217.35 235.81 221.1 241.55 221.1"/></g><path class="cls-16" d="M216.75,58.81h.88l1.81,4.45h0l1.81-4.45h.88v5.6h-.66V59.87h0l-1.88,4.54h-.28l-1.89-4.54h0v4.54h-.65Z"/><path class="cls-16" d="M227.09,63.28h-2.52l-.39,1.13h-.68l2-5.6h.64l2,5.6h-.68Zm-.2-.57-1-3h0l-1.05,3Z"/><path class="cls-16" d="M229.05,62.55l.66-.11a1.46,1.46,0,0,0,1.65,1.46c.78,0,1.29-.36,1.29-.9s-.38-.88-1.55-1.25c-1.33-.44-1.78-.83-1.78-1.58a1.59,1.59,0,0,1,1.79-1.48,2,2,0,0,1,2,1.63l-.64.14a1.34,1.34,0,0,0-1.4-1.14c-.67,0-1.12.33-1.12.85s.32.66,1.34,1c1.46.48,2,1,2,1.84s-.79,1.54-2,1.54A2.06,2.06,0,0,1,229.05,62.55Z"/><path class="cls-16" d="M236.09,59.44h-1.74v-.63h4.15v.63h-1.75v5h-.66Z"/><path class="cls-16" d="M240,58.81h3.36v.63h-2.71v1.79h2.48v.59h-2.48v2h2.71v.63H240Z"/><path class="cls-16" d="M247.42,62.11l1.23,2.3h-.77l-1.19-2.27h-1.12v2.27h-.65v-5.6h2a1.63,1.63,0,0,1,1.86,1.66,1.54,1.54,0,0,1-1.4,1.62Zm-.52-.6c.83,0,1.26-.36,1.26-1s-.43-1-1.26-1h-1.33v2.07Z"/><path class="cls-16" d="M214.23,67.31h2.15A1.46,1.46,0,0,1,218,68.76a1.19,1.19,0,0,1-.66,1.15v0a1.33,1.33,0,0,1,.86,1.32c0,1.08-.68,1.66-2,1.66h-2Zm2,2.38c.73,0,1.09-.3,1.09-.9s-.37-.85-1.09-.85h-1.37v1.75Zm-.09,2.59c1,0,1.39-.31,1.39-1s-.39-1-1.38-1h-1.29v2Z"/><path class="cls-16" d="M219.86,67.31h3.36v.63h-2.71v1.79H223v.59h-2.48v2h2.71v.63h-3.36Z"/><path class="cls-16" d="M224.81,67.31h1.74c1.42,0,2.42,1,2.42,2.79,0,2-1,2.81-2.47,2.81h-1.69Zm1.65,5c1.14,0,1.84-.59,1.84-2.18,0-1.43-.7-2.16-1.79-2.16h-1v4.34Z"/><path class="cls-16" d="M233.1,70.61l1.23,2.3h-.78l-1.18-2.27h-1.12v2.27h-.65v-5.6h2c1.17,0,1.87.63,1.87,1.66a1.54,1.54,0,0,1-1.4,1.62Zm-.52-.6c.82,0,1.25-.36,1.25-1s-.42-1-1.25-1h-1.33V70Z"/><path class="cls-16" d="M235.76,70.11c0-1.75.94-2.92,2.36-2.92s2.36,1.17,2.36,2.92S239.53,73,238.12,73,235.76,71.86,235.76,70.11Zm4.06,0c0-1.42-.65-2.29-1.7-2.29s-1.7.87-1.7,2.29.65,2.29,1.7,2.29S239.82,71.52,239.82,70.11Z"/><path class="cls-16" d="M241.82,70.11c0-1.75,1-2.92,2.36-2.92s2.36,1.17,2.36,2.92S245.6,73,244.18,73,241.82,71.86,241.82,70.11Zm4.06,0c0-1.42-.65-2.29-1.7-2.29s-1.69.87-1.69,2.29.64,2.29,1.69,2.29S245.88,71.52,245.88,70.11Z"/><path class="cls-16" d="M248.17,67.31h.88l1.81,4.45h0l1.82-4.45h.87v5.6h-.66V68.37h0L251,72.91h-.28l-1.89-4.54h0v4.54h-.65Z"/><path class="cls-16" d="M208,76.56l-1.25.81v-.7l1.33-.86h.59v5.6H208Z"/><path class="cls-16" d="M210.28,79.55l.65-.11c.11,1,.59,1.46,1.41,1.46a1.07,1.07,0,0,0,1.2-1.07c0-.76-.43-1.12-1.32-1.12h-.4v-.58h.4c.66,0,1.17-.4,1.17-.9s-.4-.93-1.06-.93a1.18,1.18,0,0,0-1.26,1l-.65-.09a1.8,1.8,0,0,1,1.91-1.57,1.54,1.54,0,0,1,1.73,1.49,1.35,1.35,0,0,1-.76,1.17v0a1.5,1.5,0,0,1,.89,1.46,1.69,1.69,0,0,1-1.85,1.7A2,2,0,0,1,210.28,79.55Z"/><path class="cls-16" d="M215.85,75.81h.59v1.78h-.59Z"/><path class="cls-16" d="M217.57,78.22h2.09v.6h-2.09Z"/><path class="cls-16" d="M221.1,78.61c0-1.81.91-2.92,2.22-2.92s2.21,1.11,2.21,2.92-.9,2.92-2.21,2.92S221.1,80.42,221.1,78.61Zm3.77,0c0-1.46-.62-2.29-1.55-2.29s-1.55.83-1.55,2.29.61,2.29,1.55,2.29S224.87,80.07,224.87,78.61Z"/><path class="cls-16" d="M227.06,75.81h.58v1.78h-.58Zm1.05,0h.59v1.78h-.59Z"/><path class="cls-16" d="M232.39,80l1.31-1.3-1.31-1.29.39-.39,1.29,1.31,1.3-1.31.39.39-1.31,1.29,1.31,1.3-.39.39-1.3-1.31-1.29,1.31Z"/><path class="cls-16" d="M239.94,76.56l-1.25.81v-.7l1.33-.86h.58v5.6h-.66Z"/><path class="cls-16" d="M243.06,80.78h3v.63h-3.72v-.53a2,2,0,0,1,.23-1.06c.2-.37.54-.64,1.42-1.1,1.16-.6,1.5-.93,1.5-1.49s-.49-.91-1.17-.91a1.29,1.29,0,0,0-1.4,1.35l-.66,0a1.93,1.93,0,0,1,2.06-1.93,1.68,1.68,0,0,1,1.83,1.54c0,.82-.41,1.31-1.65,1.93-.93.47-1.19.66-1.33.94A1.56,1.56,0,0,0,243.06,80.78Z"/><path class="cls-16" d="M247.9,75.81h.58v1.78h-.58Z"/><path class="cls-16" d="M249.9,78.22H252v.6H249.9Z"/><path class="cls-16" d="M257.36,78.27c0,2.27-.61,3.26-2,3.26a1.77,1.77,0,0,1-1.8-1.42l.61-.17a1.17,1.17,0,0,0,1.19,1c.88,0,1.3-.57,1.36-2h0a1.7,1.7,0,0,1-1.44.64,1.79,1.79,0,0,1-1.95-1.92,1.88,1.88,0,0,1,2-1.9C256.52,75.69,257.36,76.55,257.36,78.27Zm-.77-.64a1.25,1.25,0,0,0-1.33-1.33,1.31,1.31,0,1,0,0,2.62A1.24,1.24,0,0,0,256.59,77.63Z"/><path class="cls-16" d="M258.94,75.81h.58v1.78h-.58Zm1.06,0h.58v1.78H260Z"/><path class="cls-16" d="M47.72,132.56h.65v5H50.9v.63H47.72Z"/><path class="cls-16" d="M52.37,132.56H53v5.6h-.66Z"/><path class="cls-16" d="M54.36,132.56h.7l1.66,4.72h0l1.67-4.72h.69l-2,5.6h-.7Z"/><path class="cls-16" d="M60.45,132.56h.65v5.6h-.65Z"/><path class="cls-16" d="M63,132.56h.78l2.54,4.56h0v-4.56H67v5.6h-.78l-2.55-4.57h0v4.57H63Z"/><path class="cls-16" d="M68.64,135.36c0-1.78.93-2.92,2.36-2.92a2.08,2.08,0,0,1,2.13,1.85l-.66.12A1.44,1.44,0,0,0,71,133.06c-1,0-1.7.88-1.7,2.3s.65,2.29,1.7,2.29A1.42,1.42,0,0,0,72.49,136H71.07v-.62h2.07V136A2.09,2.09,0,0,1,71,138.28C69.57,138.28,68.64,137.13,68.64,135.36Z"/><path class="cls-16" d="M76.75,138.28l2.86-6,.44.2-2.86,6Z"/><path class="cls-16" d="M84,132.56h1.75c1.41,0,2.41,1,2.41,2.79,0,2-1,2.81-2.46,2.81H84Zm1.66,5c1.13,0,1.84-.6,1.84-2.18,0-1.43-.71-2.17-1.79-2.17h-1v4.35Z"/><path class="cls-16" d="M89.79,132.56h.66v5.6h-.66Z"/><path class="cls-16" d="M92.36,132.56h.77l2.54,4.56h0v-4.56h.66v5.6h-.78L93,133.59h0v4.57h-.65Z"/><path class="cls-16" d="M98.28,132.56h.65v5.6h-.65Z"/><path class="cls-16" d="M100.85,132.56h.77l2.54,4.56h0v-4.56h.66v5.6h-.78l-2.54-4.57h0v4.57h-.65Z"/><path class="cls-16" d="M106.47,135.36c0-1.78.93-2.92,2.36-2.92a2.08,2.08,0,0,1,2.13,1.85l-.66.12a1.44,1.44,0,0,0-1.47-1.35c-1,0-1.69.88-1.69,2.3s.64,2.29,1.69,2.29a1.43,1.43,0,0,0,1.5-1.64h-1.42v-.62H111V136a2.1,2.1,0,0,1-2.15,2.32C107.4,138.28,106.47,137.13,106.47,135.36Z"/><path class="cls-16" d="M117.65,135.85l1.23,2.31h-.78l-1.18-2.28H115.8v2.28h-.65v-5.6h2c1.16,0,1.86.62,1.86,1.65a1.55,1.55,0,0,1-1.4,1.63Zm-.52-.59c.82,0,1.25-.36,1.25-1s-.42-1-1.25-1H115.8v2.08Z"/><path class="cls-16" d="M120.31,135.36c0-1.75.94-2.92,2.36-2.92s2.36,1.17,2.36,2.92-1,2.92-2.36,2.92S120.31,137.11,120.31,135.36Zm4,0c0-1.42-.64-2.3-1.69-2.3s-1.7.88-1.7,2.3.65,2.29,1.7,2.29S124.36,136.77,124.36,135.36Z"/><path class="cls-16" d="M126.37,135.36c0-1.75.95-2.92,2.36-2.92s2.36,1.17,2.36,2.92-.94,2.92-2.36,2.92S126.37,137.11,126.37,135.36Zm4.06,0c0-1.42-.65-2.3-1.7-2.3s-1.7.88-1.7,2.3.65,2.29,1.7,2.29S130.43,136.77,130.43,135.36Z"/><path class="cls-16" d="M132.72,132.56h.88l1.81,4.44h0l1.81-4.44h.88v5.6h-.66v-4.55h0l-1.89,4.55h-.28l-1.89-4.55h0v4.55h-.65Z"/><path class="cls-16" d="M67.52,141.81l-1.24.81v-.7l1.32-.86h.59v5.6h-.67Z"/><path class="cls-16" d="M69.78,144.79l.65-.1c.11,1,.59,1.46,1.41,1.46a1.07,1.07,0,0,0,1.2-1.08c0-.76-.43-1.12-1.32-1.12h-.4v-.57h.4a1.06,1.06,0,0,0,1.18-.91c0-.57-.4-.92-1.07-.92a1.18,1.18,0,0,0-1.26,1l-.65-.09a1.8,1.8,0,0,1,1.91-1.57,1.54,1.54,0,0,1,1.73,1.49,1.35,1.35,0,0,1-.76,1.17v0a1.48,1.48,0,0,1,.9,1.45,1.7,1.7,0,0,1-1.86,1.71A2,2,0,0,1,69.78,144.79Z"/><path class="cls-16" d="M75.35,141.06h.59v1.78h-.59Z"/><path class="cls-16" d="M77.07,143.46h2.09v.61H77.07Z"/><path class="cls-16" d="M80.31,145.1a1.58,1.58,0,0,1,1-1.51h0a1.26,1.26,0,0,1-.73-1.17,1.78,1.78,0,0,1,3.51,0,1.25,1.25,0,0,1-.73,1.17h0a1.57,1.57,0,0,1,1,1.51c0,1-.82,1.68-2.06,1.68S80.31,146.1,80.31,145.1Zm3.46,0c0-.68-.54-1.11-1.38-1.11s-1.4.43-1.4,1.11.54,1.08,1.4,1.08S83.77,145.72,83.77,145.06Zm-.28-2.61c0-.54-.45-.91-1.1-.91s-1.11.37-1.11.91.44.88,1.11.88S83.49,143,83.49,142.45Z"/><path class="cls-16" d="M85.88,141.06h.58v1.78h-.58Zm1.06,0h.58v1.78h-.58Z"/><path class="cls-16" d="M91.22,145.22l1.31-1.3-1.31-1.29.39-.4,1.29,1.32,1.29-1.32.39.4-1.31,1.29,1.31,1.3-.39.39L92.9,144.3l-1.29,1.31Z"/><path class="cls-16" d="M98.76,141.81l-1.25.81v-.7l1.33-.86h.58v5.6h-.66Z"/><path class="cls-16" d="M105.09,143.52c0,2.27-.61,3.26-2,3.26a1.78,1.78,0,0,1-1.8-1.43l.61-.16a1.18,1.18,0,0,0,1.19,1c.89,0,1.31-.57,1.36-2h0a1.71,1.71,0,0,1-1.44.63,1.79,1.79,0,0,1-1.95-1.92,1.88,1.88,0,0,1,2-1.89C104.26,140.94,105.09,141.8,105.09,143.52Zm-.77-.65a1.33,1.33,0,1,0-1.32,1.3A1.24,1.24,0,0,0,104.32,142.87Z"/><path class="cls-16" d="M106.67,141.06h.58v1.78h-.58Z"/><path class="cls-16" d="M108.67,143.46h2.08v.61h-2.08Z"/><path class="cls-16" d="M111.91,145.1a1.57,1.57,0,0,1,1-1.51h0a1.25,1.25,0,0,1-.74-1.17,1.79,1.79,0,0,1,3.52,0,1.26,1.26,0,0,1-.74,1.17h0a1.57,1.57,0,0,1,1,1.51c0,1-.81,1.68-2.06,1.68S111.91,146.1,111.91,145.1Zm3.45,0c0-.68-.53-1.11-1.38-1.11s-1.39.43-1.39,1.11.53,1.08,1.39,1.08S115.36,145.72,115.36,145.06Zm-.28-2.61c0-.54-.44-.91-1.1-.91s-1.1.37-1.1.91.44.88,1.1.88S115.08,143,115.08,142.45Z"/><path class="cls-16" d="M117.48,141.06h.58v1.78h-.58Zm1,0h.58v1.78h-.58Z"/><path class="cls-16" d="M117.51,376.28h3.37v.62h-2.71v2h2.49v.59h-2.49v2.39h-.66Z"/><path class="cls-16" d="M122.43,379.08c0-1.75.95-2.92,2.36-2.92s2.36,1.17,2.36,2.92-.94,2.92-2.36,2.92S122.43,380.83,122.43,379.08Zm4.06,0c0-1.42-.65-2.3-1.7-2.3s-1.69.88-1.69,2.3.64,2.29,1.69,2.29S126.49,380.49,126.49,379.08Z"/><path class="cls-16" d="M130.14,379.54l-2-3.26H129l1.51,2.61h0l1.52-2.61h.76l-2,3.26v2.34h-.66Z"/><path class="cls-16" d="M134.41,376.28h3.36v.62h-2.7v1.8h2.47v.59h-2.47v2h2.7v.63h-3.36Z"/><path class="cls-16" d="M142.18,379.57l1.23,2.31h-.77l-1.18-2.27h-1.12v2.27h-.66v-5.6h2c1.17,0,1.86.62,1.86,1.66a1.54,1.54,0,0,1-1.4,1.62Zm-.52-.59c.83,0,1.26-.36,1.26-1s-.43-1-1.26-1h-1.32V379Z"/><path class="cls-16" d="M33,329.37l1.23,2.3h-.78l-1.18-2.27H31.17v2.27h-.66v-5.6h2c1.17,0,1.86.63,1.86,1.66A1.53,1.53,0,0,1,33,329.35Zm-.52-.59c.82,0,1.25-.36,1.25-1s-.42-1-1.25-1H31.17v2.08Z"/><path class="cls-16" d="M5.1,266l.65-.11a1.46,1.46,0,0,0,1.66,1.46c.77,0,1.29-.36,1.29-.9s-.38-.88-1.55-1.25c-1.33-.44-1.78-.83-1.78-1.58s.73-1.48,1.79-1.48a2,2,0,0,1,2,1.63l-.65.13a1.34,1.34,0,0,0-1.39-1.14c-.68,0-1.12.34-1.12.86s.31.66,1.34,1c1.45.47,2,1,2,1.84S8.56,268,7.4,268A2,2,0,0,1,5.1,266Z"/><path class="cls-16" d="M10.12,265.09c0-1.75.94-2.92,2.35-2.92s2.36,1.17,2.36,2.92S13.89,268,12.47,268,10.12,266.84,10.12,265.09Zm4.05,0c0-1.42-.65-2.3-1.7-2.3s-1.69.88-1.69,2.3.65,2.29,1.69,2.29S14.17,266.5,14.17,265.09Z"/><path class="cls-16" d="M15.16,268,18,262l.44.2-2.86,6Z"/><path class="cls-16" d="M19.08,262.29h.67l.83,4.55h0L22,262.29h.62L24,266.84h0l.82-4.55h.68l-1,5.59h-.8l-1.37-4.49h0l-1.37,4.49h-.8Z"/><path class="cls-16" d="M33.94,262.15h1.74c1.42,0,2.42,1,2.42,2.79,0,2-1,2.81-2.47,2.81H33.94Zm1.65,5c1.14,0,1.84-.6,1.84-2.19,0-1.43-.7-2.16-1.79-2.16h-1v4.35Z"/><path class="cls-16" d="M38.86,262.15h.68l.83,4.55h0l1.39-4.55h.62l1.39,4.55h0l.82-4.55h.68l-1,5.6h-.8l-1.37-4.5h0l-1.37,4.5h-.8Z"/><polygon class="cls-16" points="119.39 456.62 124.79 442.22 130.19 456.62 119.39 456.62"/><path class="cls-16" d="M73.84,375.76h.68l.82,4.55h0l1.38-4.55h.62l1.4,4.55h0l.83-4.55h.68l-1,5.6h-.8l-1.38-4.5h0l-1.36,4.5h-.81Z"/><path class="cls-16" d="M81.21,381.48l2.86-6,.45.2-2.87,6Z"/><path class="cls-16" d="M86.21,375.76H88c1.41,0,2.41,1,2.41,2.79,0,2-1,2.81-2.46,2.81H86.21Zm1.65,5c1.14,0,1.84-.6,1.84-2.18s-.7-2.17-1.79-2.17h-1v4.35Z"/><g id="LWPOLYLINE-103" data-name="LWPOLYLINE"><path class="cls-1" d="M61.24,17.08,34.93,27a28,28,0,0,1-1.81-9.92"/></g><g id="LWPOLYLINE-104" data-name="LWPOLYLINE"><path class="cls-1" d="M5,17.08,31.31,27a28.23,28.23,0,0,0,1.81-9.92"/></g><g id="LWPOLYLINE-105" data-name="LWPOLYLINE"><path class="cls-1" d="M155,17.08,128.68,27a28,28,0,0,1-1.81-9.92"/></g><g id="LWPOLYLINE-106" data-name="LWPOLYLINE"><path class="cls-1" d="M98.74,17.08,125.06,27a28.23,28.23,0,0,0,1.81-9.92"/></g><g id="LWPOLYLINE-107" data-name="LWPOLYLINE"><path class="cls-1" d="M280.6,39.58,248.89,51.12a33.69,33.69,0,0,1-2-11.54,33.92,33.92,0,0,1-2,11.54L213.1,39.58"/></g><g id="LWPOLYLINE-108" data-name="LWPOLYLINE"><path class="cls-2" d="M88.65,236.16A12.81,12.81,0,0,1,89.82,235a12,12,0,0,1,16.89,1.16l-1.06.93V248H89.71v-10.9Z"/></g><g id="LWPOLYLINE-109" data-name="LWPOLYLINE"><path class="cls-2" d="M62.36,236.16A12.7,12.7,0,0,1,63.52,235a12,12,0,0,1,16.9,1.16l-1.06.93V248H63.42v-10.9Z"/></g><g id="LWPOLYLINE-110" data-name="LWPOLYLINE"><path class="cls-2" d="M36.06,236.16A12.81,12.81,0,0,1,37.23,235a12,12,0,0,1,16.89,1.16l-1.06.93V248H37.12v-10.9Z"/></g><g id="LWPOLYLINE-111" data-name="LWPOLYLINE"><path class="cls-2" d="M48.62,183v17.81l-5.82-.29a3.75,3.75,0,0,1-3.56-3.74V187a3.76,3.76,0,0,1,3.56-3.75Z"/></g><g id="LWPOLYLINE-112" data-name="LWPOLYLINE"><path class="cls-2" d="M97.38,201V183.22l5.81.29a3.75,3.75,0,0,1,3.56,3.75V197a3.75,3.75,0,0,1-3.56,3.74Z"/></g><g id="LWPOLYLINE-113" data-name="LWPOLYLINE"><path class="cls-2" d="M50.73,181.59H68.54l-.29-5.81a3.76,3.76,0,0,0-3.75-3.56H54.76A3.75,3.75,0,0,0,51,175.78Z"/></g><g id="LWPOLYLINE-114" data-name="LWPOLYLINE"><path class="cls-2" d="M76.51,181.59H94.32L94,175.78a3.76,3.76,0,0,0-3.75-3.56H80.54a3.75,3.75,0,0,0-3.74,3.56Z"/></g><g id="LWPOLYLINE-115" data-name="LWPOLYLINE"><path class="cls-2" d="M94.32,201.64H76.51l.29,5.81A3.75,3.75,0,0,0,80.54,211h9.74A3.75,3.75,0,0,0,94,207.45Z"/></g><g id="LWPOLYLINE-116" data-name="LWPOLYLINE"><path class="cls-2" d="M68.54,201.64H50.73l.29,5.81A3.74,3.74,0,0,0,54.76,211H64.5a3.75,3.75,0,0,0,3.75-3.56Z"/></g><g id="LWPOLYLINE-117" data-name="LWPOLYLINE"><path class="cls-2" d="M48.62,199.4l-5.74-.28a2.35,2.35,0,0,1-2.23-2.34V187a2.36,2.36,0,0,1,2.23-2.35l5.74-.28"/></g><g id="LWPOLYLINE-118" data-name="LWPOLYLINE"><path class="cls-2" d="M97.38,184.63l5.74.29a2.34,2.34,0,0,1,2.23,2.34V197a2.35,2.35,0,0,1-2.23,2.34l-5.74.28"/></g><g id="LWPOLYLINE-119" data-name="LWPOLYLINE"><path class="cls-2" d="M67.13,181.59l-.29-5.74a2.34,2.34,0,0,0-2.34-2.23H54.76a2.34,2.34,0,0,0-2.34,2.23l-.29,5.74"/></g><g id="LWPOLYLINE-120" data-name="LWPOLYLINE"><path class="cls-2" d="M93,181.83l-.29-5.74a2.34,2.34,0,0,0-2.34-2.23H80.64a2.34,2.34,0,0,0-2.34,2.23L78,181.83"/></g><g id="LWPOLYLINE-121" data-name="LWPOLYLINE"><path class="cls-2" d="M77.92,201.64l.28,5.74a2.35,2.35,0,0,0,2.34,2.23h9.74a2.36,2.36,0,0,0,2.35-2.23l.28-5.74"/></g><g id="LWPOLYLINE-122" data-name="LWPOLYLINE"><path class="cls-2" d="M52,201.4l.29,5.75a2.34,2.34,0,0,0,2.34,2.22h9.74a2.34,2.34,0,0,0,2.34-2.22L67,201.4"/></g><g id="LWPOLYLINE-123" data-name="LWPOLYLINE"><rect class="cls-2" x="44.87" y="177.84" width="56.25" height="28.13"/></g><g id="LWPOLYLINE-124" data-name="LWPOLYLINE"><rect class="cls-2" x="162.58" y="90.08" width="80.62" height="71.25"/></g><g id="LWPOLYLINE-125" data-name="LWPOLYLINE"><rect class="cls-2" x="162.58" y="163.32" width="15.94" height="15.9"/></g><g id="LWPOLYLINE-126" data-name="LWPOLYLINE"><rect class="cls-2" x="162.58" y="71.98" width="15.94" height="15.9"/></g><g id="LWPOLYLINE-127" data-name="LWPOLYLINE"><rect class="cls-3" x="167.93" y="126.98" width="14.68" height="31.81"/></g><g id="LINE-37" data-name="LINE"><line class="cls-3" x1="165.39" y1="90.08" x2="165.39" y2="161.33"/></g><g id="LINE-38" data-name="LINE"><line class="cls-3" x1="240.39" y1="90.08" x2="240.39" y2="161.33"/></g><g id="LWPOLYLINE-128" data-name="LWPOLYLINE"><rect class="cls-3" x="167.93" y="92.62" width="14.68" height="31.81"/></g><g id="LWPOLYLINE-129" data-name="LWPOLYLINE"><line class="cls-3" x1="91.57" y1="235.41" x2="91.57" y2="247.99"/></g><g id="LWPOLYLINE-130" data-name="LWPOLYLINE"><line class="cls-3" x1="103.8" y1="235.41" x2="103.8" y2="247.99"/></g><g id="LWPOLYLINE-131" data-name="LWPOLYLINE"><path class="cls-3" d="M105.65,237.09a10.57,10.57,0,0,0-14.91-1,11.13,11.13,0,0,0-1,1"/></g><g id="LWPOLYLINE-132" data-name="LWPOLYLINE"><line class="cls-3" x1="65.27" y1="235.41" x2="65.27" y2="247.99"/></g><g id="LWPOLYLINE-133" data-name="LWPOLYLINE"><line class="cls-3" x1="77.51" y1="235.41" x2="77.51" y2="247.99"/></g><g id="LWPOLYLINE-134" data-name="LWPOLYLINE"><path class="cls-3" d="M79.36,237.09a10.57,10.57,0,0,0-14.91-1,10,10,0,0,0-1,1"/></g><g id="LWPOLYLINE-135" data-name="LWPOLYLINE"><line class="cls-3" x1="38.98" y1="235.41" x2="38.98" y2="247.99"/></g><g id="LWPOLYLINE-136" data-name="LWPOLYLINE"><line class="cls-3" x1="51.21" y1="235.41" x2="51.21" y2="247.99"/></g><g id="LWPOLYLINE-137" data-name="LWPOLYLINE"><path class="cls-3" d="M53.06,237.09a10.57,10.57,0,0,0-14.91-1,11.13,11.13,0,0,0-1,1"/></g><g id="LWPOLYLINE-138" data-name="LWPOLYLINE"><polygon class="cls-2" points="282.51 81.04 281.19 79.13 280.89 79.33 280.32 79.48 279.8 79.22 278.56 77.73 277.54 76.52 276.7 75.44 275.63 73.98 274.68 72.62 274.3 72.08 274.01 71.62 273.64 71.05 273.23 70.39 272.3 68.84 271.47 67.37 270.85 66.2 270.79 65.62 271.13 65.14 271.44 64.93 269.76 62.5 288.48 49.63 301.22 68.17 282.51 81.04"/></g><g id="LINE-39" data-name="LINE"><line class="cls-3" x1="290.15" y1="52.06" x2="271.44" y2="64.93"/></g><g id="LINE-40" data-name="LINE"><line class="cls-3" x1="281.19" y1="79.13" x2="299.91" y2="66.26"/></g><g id="ARC-48" data-name="ARC"><path class="cls-3" d="M286,54.93a40.24,40.24,0,0,0,9.76,14.2"/></g><g id="ARC-49" data-name="ARC"><path class="cls-3" d="M288.76,53a100.59,100.59,0,0,0,9.76,14.19"/></g><line class="cls-3" x1="184.99" y1="161.31" x2="184.99" y2="90.06"/><line class="cls-3" x1="187.42" y1="161.31" x2="187.42" y2="90.06"/><g id="LWPOLYLINE-139" data-name="LWPOLYLINE"><rect class="cls-4" x="293.72" y="92.6" width="15" height="65.63"/></g><g id="LWPOLYLINE-140" data-name="LWPOLYLINE"><rect class="cls-2" x="141.88" y="68.52" width="15" height="56.25"/></g><g id="LWPOLYLINE-141" data-name="LWPOLYLINE"><polygon class="cls-2" points="125.82 69.91 149.9 52 134.64 30.07 109.48 46.44 125.82 69.91"/></g><g id="LINE-41" data-name="LINE"><line class="cls-3" x1="123.54" y1="66.64" x2="147.63" y2="48.72"/></g><g id="LINE-42" data-name="LINE"><line class="cls-3" x1="144.24" y1="51.24" x2="133.38" y2="35.65"/></g><g id="LINE-43" data-name="LINE"><line class="cls-3" x1="136.91" y1="33.34" x2="111.76" y2="49.71"/></g><g id="LWPOLYLINE-142" data-name="LWPOLYLINE"><rect class="cls-2" x="16.53" y="136.83" width="17.7" height="18.44"/></g><rect class="cls-2" x="128.01" y="94.81" width="44.9" height="1.76" transform="translate(246.15 -54.78) rotate(90)"/><rect class="cls-2" x="3.25" y="42.09" width="33.75" height="84.38"/><g id="LINE-44" data-name="LINE"><line class="cls-3" x1="7.93" y1="96.78" x2="36.01" y2="96.78"/></g><g id="LWPOLYLINE-143" data-name="LWPOLYLINE"><polyline class="cls-3" points="37 46.78 7.93 46.78 7.93 121.78 37 121.78"/></g><g id="ARC-50" data-name="ARC"><path class="cls-3" d="M12.43,120.84a59.57,59.57,0,0,0,0-23.12"/></g><g id="ARC-51" data-name="ARC"><path class="cls-3" d="M12.43,97.72a1.24,1.24,0,0,0-1-.94"/></g><g id="ARC-52" data-name="ARC"><path class="cls-3" d="M11.45,121.78a1.22,1.22,0,0,0,1-.94"/></g><g id="ARC-53" data-name="ARC"><path class="cls-3" d="M11.45,96.78a1.22,1.22,0,0,0,1-.94"/></g><g id="ARC-54" data-name="ARC"><path class="cls-3" d="M12.43,47.72a1.24,1.24,0,0,0-1-.94"/></g><g id="ARC-55" data-name="ARC"><path class="cls-3" d="M37,97.72a1.24,1.24,0,0,0-1-.94"/></g><g id="ARC-56" data-name="ARC"><path class="cls-3" d="M36,96.78a1.22,1.22,0,0,0,1-.94"/></g><g id="ARC-57" data-name="ARC"><path class="cls-3" d="M36,121.78a1.22,1.22,0,0,0,1-.94"/></g><g id="ARC-58" data-name="ARC"><path class="cls-3" d="M37,47.72a1.24,1.24,0,0,0-1-.94"/></g><g id="LINE-45" data-name="LINE"><line class="cls-3" x1="7.93" y1="71.78" x2="36.01" y2="71.78"/></g><g id="ARC-59" data-name="ARC"><path class="cls-3" d="M12.43,70.84a59.57,59.57,0,0,0,0-23.12"/></g><g id="ARC-60" data-name="ARC"><path class="cls-3" d="M11.45,71.78a1.22,1.22,0,0,0,1-.94"/></g><g id="ARC-61" data-name="ARC"><path class="cls-3" d="M12.43,72.72a1.24,1.24,0,0,0-1-.94"/></g><g id="ARC-62" data-name="ARC"><path class="cls-3" d="M36,71.78a1.22,1.22,0,0,0,1-.94"/></g><g id="ARC-63" data-name="ARC"><path class="cls-3" d="M37,72.72a1.24,1.24,0,0,0-1-.94"/></g><g id="ARC-64" data-name="ARC"><path class="cls-3" d="M12.43,95.84a59.57,59.57,0,0,0,0-23.12"/></g><g id="ARC-65" data-name="ARC"><path class="cls-3" d="M12.43,97.72a1.24,1.24,0,0,0-1-.94"/></g><g id="ARC-66" data-name="ARC"><path class="cls-3" d="M11.45,121.78a1.22,1.22,0,0,0,1-.94"/></g><g id="ARC-67" data-name="ARC"><path class="cls-3" d="M11.45,96.78a1.22,1.22,0,0,0,1-.94"/></g><g id="ARC-68" data-name="ARC"><path class="cls-3" d="M12.43,47.72a1.24,1.24,0,0,0-1-.94"/></g><g id="ARC-69" data-name="ARC"><path class="cls-3" d="M37,97.72a1.24,1.24,0,0,0-1-.94"/></g><g id="ARC-70" data-name="ARC"><path class="cls-3" d="M36,96.78a1.22,1.22,0,0,0,1-.94"/></g><g id="ARC-71" data-name="ARC"><path class="cls-3" d="M36,121.78a1.22,1.22,0,0,0,1-.94"/></g><g id="ARC-72" data-name="ARC"><path class="cls-3" d="M37,47.72a1.24,1.24,0,0,0-1-.94"/></g><g id="ARC-73" data-name="ARC"><path class="cls-3" d="M11.45,71.78a1.22,1.22,0,0,0,1-.94"/></g><g id="ARC-74" data-name="ARC"><path class="cls-3" d="M12.43,72.72a1.24,1.24,0,0,0-1-.94"/></g><g id="ARC-75" data-name="ARC"><path class="cls-3" d="M36,71.78a1.22,1.22,0,0,0,1-.94"/></g><g id="ARC-76" data-name="ARC"><path class="cls-3" d="M37,72.72a1.24,1.24,0,0,0-1-.94"/></g><path class="cls-5" d="M17.94,116.06s5.28,6.85,7.94,5.56-7.24-10.46-7.24-10.46-3.91-4-4.65-2S17.94,116.06,17.94,116.06Z"/><path class="cls-5" d="M19.69,104.08S15.32,97,13.4,98.32,17,107.76,17,107.76s3.83,7.57,5.71,5.53S19.69,104.08,19.69,104.08Z"/><path class="cls-5" d="M14.3,63.16s3.62-.75,5.2-8.34,1.11-7.68.31-8-4.2,2.24-5.22,9.2S13,62.84,14.3,63.16Z"/><path class="cls-5" d="M72.4,109.39s-10.07.6-9.72-9.83,4.37-29.08,13.88-35S97.68,81.16,97.68,81.16s7.59,11.3-4.81,19.83S72.4,109.39,72.4,109.39Z"/><g id="LWPOLYLINE-144" data-name="LWPOLYLINE"><polyline class="cls-6" points="30.89 12.39 30.89 13.32 6.87 13.32 6.87 12.39"/></g><g id="LWPOLYLINE-145" data-name="LWPOLYLINE"><polyline class="cls-6" points="59.37 12.39 59.37 13.32 35.34 13.32 35.34 12.39"/></g><g id="LWPOLYLINE-146" data-name="LWPOLYLINE"><polyline class="cls-7" points="63.12 17.07 63.12 22.7 3.12 22.7 3.12 17.07"/></g><g id="LWPOLYLINE-147" data-name="LWPOLYLINE"><polyline class="cls-6" points="124.64 12.39 124.64 13.32 100.62 13.32 100.62 12.39"/></g><g id="LWPOLYLINE-148" data-name="LWPOLYLINE"><polyline class="cls-6" points="153.12 12.39 153.12 13.32 129.09 13.32 129.09 12.39"/></g><g id="LWPOLYLINE-149" data-name="LWPOLYLINE"><polyline class="cls-7" points="156.87 17.07 156.87 22.7 96.87 22.7 96.87 17.07"/></g><g id="LWPOLYLINE-150" data-name="LWPOLYLINE"><polyline class="cls-7" points="303.1 39.58 303.1 45.2 190.6 45.2 190.6 39.58"/></g><g id="LWPOLYLINE-151" data-name="LWPOLYLINE"><rect class="cls-6" x="5.93" y="13.33" width="25.66" height="1.23"/></g><g id="LWPOLYLINE-152" data-name="LWPOLYLINE"><rect class="cls-6" x="34.64" y="13.33" width="25.66" height="1.23"/></g><g id="LWPOLYLINE-153" data-name="LWPOLYLINE"><rect class="cls-6" x="99.68" y="13.33" width="25.66" height="1.23"/></g><g id="LWPOLYLINE-154" data-name="LWPOLYLINE"><rect class="cls-6" x="128.39" y="13.33" width="25.66" height="1.23"/></g><g id="LWPOLYLINE-155" data-name="LWPOLYLINE"><polygon class="cls-6" points="212.63 35.83 211.7 35.83 194.35 35.83 193.41 35.83 193.41 37.05 211.7 37.05 212.63 37.05 212.63 35.83"/></g><g id="LWPOLYLINE-156" data-name="LWPOLYLINE"><polygon class="cls-6" points="245.33 35.83 244.63 35.83 214.51 35.83 214.51 37.05 245.32 37.05 245.33 35.83"/></g><g id="LWPOLYLINE-157" data-name="LWPOLYLINE"><polygon class="cls-6" points="279.2 35.83 278.26 35.83 249.08 35.83 248.38 35.83 248.38 37.05 279.2 37.05 279.2 35.83"/></g><g id="LWPOLYLINE-158" data-name="LWPOLYLINE"><polygon class="cls-6" points="300.29 35.83 299.35 35.83 281.07 35.83 281.07 37.05 300.29 37.05 300.29 35.83"/></g><line class="cls-6" x1="194.35" y1="39.57" x2="299.35" y2="39.57"/><line class="cls-6" x1="100.62" y1="17.08" x2="153.12" y2="17.08"/><line class="cls-6" x1="5.93" y1="17.08" x2="59.37" y2="17.08"/><g id="LWPOLYLINE-159" data-name="LWPOLYLINE"><polygon class="cls-8" points="6.87 14.55 5.93 14.55 5.93 13.32 6.87 13.32 6.87 12.39 4.99 12.39 4.99 8.64 4.05 8.64 4.05 12.39 3.12 12.39 3.12 17.07 6.87 17.07 6.87 14.55"/></g><g id="LWPOLYLINE-160" data-name="LWPOLYLINE"><polyline class="cls-8" points="32.65 10.04 33.59 10.04 33.59 12.39 35.34 12.39 35.34 13.32 34.64 13.32 34.64 14.55 35.34 14.55 35.34 17.07 33.47 17.07 33.47 16.61 32.76 16.61 32.76 17.07 30.89 17.07 30.89 14.55 31.58 14.55 31.59 13.32 30.89 13.32 30.89 12.39 32.65 12.39 32.65 10.04"/></g><g id="LWPOLYLINE-161" data-name="LWPOLYLINE"><polygon class="cls-8" points="63.12 12.39 62.18 12.39 62.18 8.64 61.24 8.64 61.24 12.39 59.37 12.39 59.37 13.32 60.3 13.32 60.3 14.55 59.37 14.55 59.37 17.07 63.12 17.07 63.12 12.39"/></g><g id="LWPOLYLINE-162" data-name="LWPOLYLINE"><polygon class="cls-8" points="100.62 14.55 99.68 14.55 99.68 13.32 100.62 13.32 100.62 12.39 98.74 12.39 98.74 8.64 97.8 8.64 97.8 12.39 96.87 12.39 96.87 17.07 100.62 17.07 100.62 14.55"/></g><g id="LWPOLYLINE-163" data-name="LWPOLYLINE"><polyline class="cls-8" points="126.4 10.04 127.33 10.04 127.33 12.39 129.09 12.39 129.09 13.32 128.39 13.32 128.39 14.55 129.09 14.55 129.09 17.07 127.22 17.07 127.22 16.61 126.51 16.61 126.51 17.07 124.64 17.07 124.64 14.55 125.33 14.55 125.34 13.32 124.64 13.32 124.64 12.39 126.4 12.39 126.4 10.04"/></g><g id="LWPOLYLINE-164" data-name="LWPOLYLINE"><polygon class="cls-8" points="156.87 12.39 155.93 12.39 155.93 8.64 154.99 8.64 154.99 12.39 153.12 12.39 153.12 13.32 154.05 13.32 154.05 14.55 153.12 14.55 153.12 17.07 156.87 17.07 156.87 12.39"/></g><g id="LWPOLYLINE-165" data-name="LWPOLYLINE"><polyline class="cls-8" points="246.38 32.54 247.32 32.54 247.32 34.89 249.08 34.89 249.08 35.83 248.38 35.83 248.38 37.05 249.08 37.05 249.08 39.58 247.2 39.58 247.2 39.11 246.5 39.11 246.5 39.58 244.63 39.58 244.63 37.05 245.32 37.05 245.33 35.83 244.63 35.83 244.63 34.89 246.38 34.89 246.38 32.54"/></g><g id="LWPOLYLINE-166" data-name="LWPOLYLINE"><polygon class="cls-8" points="278.26 37.05 279.2 37.05 279.2 35.83 278.26 35.83 278.26 34.89 280.13 34.89 280.13 32.54 281.07 32.54 281.07 34.89 282.01 34.89 282.01 35.83 281.07 35.83 281.07 37.05 282.01 37.05 282.01 38.23 281.19 38.23 281.19 39.11 280.13 39.11 280.13 39.58 278.26 39.58 278.26 37.05"/></g><g id="LWPOLYLINE-167" data-name="LWPOLYLINE"><polygon class="cls-8" points="303.1 34.89 302.16 34.89 302.16 31.14 301.23 31.14 301.23 34.89 299.35 34.89 299.35 35.83 300.29 35.83 300.29 37.05 299.35 37.05 299.35 39.58 303.1 39.58 303.1 34.89"/></g><g id="LWPOLYLINE-168" data-name="LWPOLYLINE"><polygon class="cls-8" points="194.35 37.05 193.41 37.05 193.41 35.83 194.35 35.83 194.35 34.89 192.48 34.89 192.48 31.14 191.54 31.14 191.54 34.89 190.6 34.89 190.6 39.58 194.35 39.58 194.35 37.05"/></g><g id="LWPOLYLINE-169" data-name="LWPOLYLINE"><polygon class="cls-8" points="215.45 37.05 214.51 37.05 214.51 35.83 215.45 35.83 215.45 34.89 213.57 34.89 213.57 32.54 212.63 32.54 212.63 34.89 211.7 34.89 211.7 35.83 212.63 35.83 212.63 37.05 211.7 37.05 211.7 38.23 212.52 38.23 212.52 39.11 213.57 39.11 213.57 39.58 215.45 39.58 215.45 37.05"/></g><g id="LWPOLYLINE-170" data-name="LWPOLYLINE"><polyline class="cls-7" points="63.12 17.07 63.12 0.2 3.12 0.2 3.12 17.07"/></g><g id="LWPOLYLINE-171" data-name="LWPOLYLINE"><polyline class="cls-7" points="156.87 17.07 156.87 0.2 96.87 0.2 96.87 17.07"/></g><g id="LWPOLYLINE-172" data-name="LWPOLYLINE"><polyline class="cls-7" points="303.1 39.58 303.1 31.14 190.6 31.14 190.6 39.58"/></g><line class="cls-9" x1="303.19" y1="22.7" x2="188.95" y2="22.7"/><g id="LWPOLYLINE-173" data-name="LWPOLYLINE"><rect class="cls-10" x="235.86" y="241.12" width="33.75" height="2.11" transform="translate(-97.22 249.64) rotate(-45)"/></g><g id="LWPOLYLINE-174" data-name="LWPOLYLINE"><rect class="cls-10" x="101.89" y="419.75" width="33.75" height="1.64" transform="translate(-262.6 207.16) rotate(-45)"/></g><g id="LWPOLYLINE-175" data-name="LWPOLYLINE"><rect class="cls-11" x="282.8" y="193.03" width="1.64" height="28.13"/></g><g id="LWPOLYLINE-176" data-name="LWPOLYLINE"><rect class="cls-11" x="284.67" y="289.89" width="1.64" height="33.75"/></g><g id="LWPOLYLINE-177" data-name="LWPOLYLINE"><rect class="cls-11" x="245.3" y="331.25" width="33.75" height="1.64"/></g><g id="LWPOLYLINE-178" data-name="LWPOLYLINE"><rect class="cls-11" x="164.09" y="258.83" width="33.75" height="1.64"/></g><g id="LWPOLYLINE-179" data-name="LWPOLYLINE"><rect class="cls-11" x="99.87" y="361.96" width="1.64" height="33.75"/></g><g id="LWPOLYLINE-180" data-name="LWPOLYLINE"><rect class="cls-11" x="159.16" y="367.64" width="1.64" height="33.75"/></g><g id="LWPOLYLINE-181" data-name="LWPOLYLINE"><rect class="cls-11" x="245.3" y="331.25" width="33.75" height="1.64"/></g><g id="ARC-77" data-name="ARC"><path class="cls-11" d="M263.92,229.49a34.26,34.26,0,0,0-22.37-8.39"/></g><g id="ARC-78" data-name="ARC"><path class="cls-11" d="M140,431.92a33.76,33.76,0,0,0-9.88-23.87"/></g><g id="LWPOLYLINE-182" data-name="LWPOLYLINE"><rect class="cls-6" x="309.16" y="332.9" width="33.75" height="69.37"/></g><g id="LWPOLYLINE-183" data-name="LWPOLYLINE"><path class="cls-6" d="M337.73,340.2v52.61a4.77,4.77,0,0,1-4.77,4.77H317.69a4.77,4.77,0,0,1-4.78-4.77V340.2a4.78,4.78,0,0,1,4.78-4.77H333a4.78,4.78,0,0,1,4.77,4.77"/></g><g id="ARC-79" data-name="ARC"><path class="cls-6" d="M208.4,395a3.28,3.28,0,1,0-.78,0"/></g><g id="LWPOLYLINE-184" data-name="LWPOLYLINE"><path class="cls-6" d="M207.62,391.78v11.47h.77V391.78a.39.39,0,1,0-.77,0Z"/></g><g id="LWPOLYLINE-185" data-name="LWPOLYLINE"><rect class="cls-6" x="190.22" y="332.9" width="35.63" height="69.37"/></g><g id="LWPOLYLINE-186" data-name="LWPOLYLINE"><rect class="cls-12" x="225.84" y="332.9" width="0.83" height="35.62"/></g><g id="ARC-80" data-name="ARC"><path class="cls-12" d="M325.5,395.05a3.28,3.28,0,1,0-.79,0"/></g><g id="LWPOLYLINE-187" data-name="LWPOLYLINE"><path class="cls-12" d="M324.71,391.84v11.41h.78V391.84a.41.41,0,0,0-.39-.43A.41.41,0,0,0,324.71,391.84Z"/></g><rect class="cls-12" x="68.72" y="364.89" width="25.31" height="27.89"/><g id="LWPOLYLINE-188" data-name="LWPOLYLINE"><rect class="cls-13" x="1.59" y="317.08" width="117.84" height="25.09"/></g><g id="LWPOLYLINE-189" data-name="LWPOLYLINE"><rect class="cls-13" x="1.55" y="238.68" width="114.88" height="37.5"/></g><g id="LWPOLYLINE-190" data-name="LWPOLYLINE"><polyline class="cls-8" points="59.17 259.74 59.17 272.58 83.26 272.58 83.26 259.74 59.17 259.74"/></g><rect class="cls-13" x="70.98" y="257.47" width="2.93" height="1.23" transform="translate(144.89 516.17) rotate(180)"/><path class="cls-13" d="M70.33,258.58a1,1,0,0,0,.29.28v6.19a.45.45,0,0,0,.89,0v-6.19a.85.85,0,1,0-1.18-.28Z"/><g id="CIRCLE-6" data-name="CIRCLE"><path class="cls-8" d="M84.26,323.89a.7.7,0,1,1,.69-.7.7.7,0,0,1-.69.7Z"/></g><g id="CIRCLE-7" data-name="CIRCLE"><path class="cls-8" d="M79.88,323.89a.7.7,0,0,1,0-1.4.7.7,0,1,1,0,1.4Z"/></g><g id="CIRCLE-8" data-name="CIRCLE"><path class="cls-8" d="M79.88,326.75a.7.7,0,1,1,.7-.69.69.69,0,0,1-.7.69Z"/></g><g id="CIRCLE-9" data-name="CIRCLE"><path class="cls-8" d="M82.07,326.75a.7.7,0,1,1,0-1.39.7.7,0,1,1,0,1.39Z"/></g><g id="CIRCLE-10" data-name="CIRCLE"><path class="cls-8" d="M84.26,326.75a.7.7,0,1,1,.69-.69.69.69,0,0,1-.69.69Z"/></g><g id="LWPOLYLINE-191" data-name="LWPOLYLINE"><rect class="cls-8" x="68.58" y="320.31" width="26.99" height="16.03" rx="0.38"/></g><circle class="cls-8" cx="73.39" cy="332.19" r="1.32"/><path class="cls-8" d="M77.38,329v5.85a.56.56,0,0,1-.57.55H70a.57.57,0,0,1-.57-.55V329a.05.05,0,0,1,0,0h7.89A0,0,0,0,1,77.38,329Z"/><circle class="cls-8" cx="82.07" cy="332.19" r="1.32"/><path class="cls-8" d="M86.06,329v5.85a.56.56,0,0,1-.56.55H78.64a.56.56,0,0,1-.56-.55V329a0,0,0,0,1,0,0H86A0,0,0,0,1,86.06,329Z"/><circle class="cls-8" cx="90.75" cy="332.19" r="1.32"/><path class="cls-8" d="M94.74,329v5.85a.56.56,0,0,1-.56.55H87.32a.56.56,0,0,1-.56-.55V329a0,0,0,0,1,0,0h7.9A0,0,0,0,1,94.74,329Z"/><circle class="cls-8" cx="90.75" cy="324.62" r="1.32"/><path class="cls-8" d="M86.76,327.8V322a.56.56,0,0,1,.56-.55h6.86a.56.56,0,0,1,.56.55v5.85a0,0,0,0,1,0,.05H86.8A0,0,0,0,1,86.76,327.8Z"/><circle class="cls-8" cx="73.39" cy="324.62" r="1.32"/><path class="cls-8" d="M69.39,327.8V322a.57.57,0,0,1,.57-.55h6.85a.56.56,0,0,1,.57.55v5.85a0,0,0,0,1,0,.05H69.44A.05.05,0,0,1,69.39,327.8Z"/><g id="LINE-46" data-name="LINE"><line class="cls-14" x1="46.48" y1="328.85" x2="119.09" y2="328.85"/></g><line class="cls-8" x1="18.58" y1="317.08" x2="18.58" y2="342.67"/><line class="cls-8" x1="46.48" y1="317.08" x2="46.48" y2="342.67"/><line class="cls-8" x1="27.93" y1="238.68" x2="27.93" y2="276.18"/><g id="LWPOLYLINE-192" data-name="LWPOLYLINE"><line class="cls-14" x1="297.56" y1="227.31" x2="297.56" y2="186.88"/></g><g id="LWPOLYLINE-193" data-name="LWPOLYLINE"><polyline class="cls-14" points="286.31 262 331.67 262 331.67 329.38"/></g><g id="LWPOLYLINE-194" data-name="LWPOLYLINE"><line class="cls-14" x1="174.4" y1="406.37" x2="174.4" y2="362.19"/></g><g id="LWPOLYLINE-195" data-name="LWPOLYLINE"><line class="cls-14" x1="116.44" y1="248.05" x2="27.93" y2="248.05"/></g><polyline class="cls-14" points="49.59 276.06 49.59 252.73 27.93 252.73"/><g id="LINE-47" data-name="LINE"><line class="cls-8" x1="291.04" y1="223.69" x2="304.09" y2="223.69"/></g><g id="LINE-48" data-name="LINE"><line class="cls-8" x1="291.04" y1="221.27" x2="304.09" y2="221.27"/></g><g id="LINE-49" data-name="LINE"><line class="cls-8" x1="291.04" y1="218.86" x2="304.09" y2="218.85"/></g><g id="LINE-50" data-name="LINE"><line class="cls-8" x1="291.04" y1="216.44" x2="304.09" y2="216.44"/></g><g id="LINE-51" data-name="LINE"><line class="cls-8" x1="291.04" y1="214.02" x2="304.09" y2="214.02"/></g><g id="LINE-52" data-name="LINE"><line class="cls-8" x1="304.09" y1="211.6" x2="291.04" y2="211.6"/></g><g id="LINE-53" data-name="LINE"><line class="cls-8" x1="325.14" y1="325.43" x2="338.19" y2="325.43"/></g><g id="LINE-54" data-name="LINE"><line class="cls-8" x1="325.14" y1="323.01" x2="338.19" y2="323.01"/></g><g id="LINE-55" data-name="LINE"><line class="cls-8" x1="325.14" y1="320.59" x2="338.19" y2="320.59"/></g><g id="LINE-56" data-name="LINE"><line class="cls-8" x1="325.14" y1="318.18" x2="338.19" y2="318.17"/></g><g id="LINE-57" data-name="LINE"><line class="cls-8" x1="325.14" y1="315.76" x2="338.19" y2="315.76"/></g><g id="LINE-58" data-name="LINE"><line class="cls-8" x1="338.19" y1="313.34" x2="325.14" y2="313.34"/></g><g id="LINE-59" data-name="LINE"><line class="cls-8" x1="290.26" y1="255.47" x2="290.26" y2="268.52"/></g><g id="LINE-60" data-name="LINE"><line class="cls-8" x1="292.68" y1="255.47" x2="292.68" y2="268.52"/></g><g id="LINE-61" data-name="LINE"><line class="cls-8" x1="295.1" y1="255.47" x2="295.1" y2="268.52"/></g><g id="LINE-62" data-name="LINE"><line class="cls-8" x1="297.52" y1="255.47" x2="297.52" y2="268.52"/></g><g id="LINE-63" data-name="LINE"><line class="cls-8" x1="299.94" y1="255.47" x2="299.94" y2="268.52"/></g><g id="LINE-64" data-name="LINE"><line class="cls-8" x1="302.36" y1="268.52" x2="302.36" y2="255.47"/></g><g id="LINE-65" data-name="LINE"><line class="cls-8" x1="180.93" y1="402.43" x2="167.87" y2="402.43"/></g><g id="LINE-66" data-name="LINE"><line class="cls-8" x1="180.93" y1="400.01" x2="167.87" y2="400.01"/></g><g id="LINE-67" data-name="LINE"><line class="cls-8" x1="180.93" y1="397.59" x2="167.87" y2="397.59"/></g><g id="LINE-68" data-name="LINE"><line class="cls-8" x1="180.93" y1="395.17" x2="167.87" y2="395.17"/></g><g id="LINE-69" data-name="LINE"><line class="cls-8" x1="180.93" y1="392.75" x2="167.87" y2="392.75"/></g><g id="LINE-70" data-name="LINE"><line class="cls-8" x1="167.87" y1="390.33" x2="180.93" y2="390.33"/></g><g id="LWPOLYLINE-197" data-name="LWPOLYLINE"><rect class="cls-12" x="265.99" y="382.65" width="25.88" height="19.87"/></g><g id="LWPOLYLINE-198" data-name="LWPOLYLINE"><path class="cls-12" d="M271.08,386.53a1.11,1.11,0,0,1,1.11-1.11h13.49a1.11,1.11,0,0,1,1.11,1.11v10a.93.93,0,0,1-.93.93H272a.93.93,0,0,1-.92-.93Z"/></g><g id="ARC-81" data-name="ARC"><path class="cls-12" d="M256,386c.35,3.16,1,11.54,1,11.54"/></g><g id="ARC-82" data-name="ARC"><path class="cls-12" d="M244.7,393.3a.84.84,0,0,1-.77-.52c-.15-.34-.28-.7-.4-1a14.84,14.84,0,0,1-.64-2.94c-.06-.53-.11-1.06-.13-1.59a15.38,15.38,0,0,1,.34-4.17,10.13,10.13,0,0,1,3.07-5.31,4.82,4.82,0,0,1,6.54.06,10.15,10.15,0,0,1,3,5.37,15.8,15.8,0,0,1,.26,4.17c0,.54-.09,1.07-.17,1.6a14.76,14.76,0,0,1-.69,2.92q-.2.53-.42,1.05a.84.84,0,0,1-.78.5Z"/></g><g id="ARC-83" data-name="ARC"><path class="cls-12" d="M242.75,385.83c-.42,3.16-1,11.67-1,11.67"/></g><g id="ARC-84" data-name="ARC"><path class="cls-12" d="M257,397.35a1.1,1.1,0,0,0-1-1,55.56,55.56,0,0,0-13.31,0,1.08,1.08,0,0,0-1,1v0c-.06,1.14-.1,2.28-.13,3.42a1.46,1.46,0,0,0,1.34,1.49q3.2.28,6.41.28c2.13,0,4.27-.09,6.4-.28a1.45,1.45,0,0,0,1.34-1.49q0-1.71-.12-3.42Z"/></g><g id="ARC-85" data-name="ARC"><path class="cls-12" d="M279.4,398.81a1.19,1.19,0,0,1,.7,1.07,1.16,1.16,0,1,1-1.63-1.07Z"/></g><g id="ARC-86" data-name="ARC"><path class="cls-12" d="M284.73,400.12a1.17,1.17,0,1,1,0-.47Z"/></g><g id="ARC-87" data-name="ARC"><path class="cls-12" d="M273.13,400.12a1.17,1.17,0,1,0,0-.47Z"/></g><g id="LINE-71" data-name="LINE"><path class="cls-12" d="M279.4,394.29v5.59a.47.47,0,1,1-.93,0v-5.59a.47.47,0,1,1,.93,0Z"/></g><line class="cls-12" x1="283.58" y1="399.88" x2="286.86" y2="399.88"/><line class="cls-12" x1="271.01" y1="399.88" x2="274.28" y2="399.88"/><g id="LWPOLYLINE-199" data-name="LWPOLYLINE"><rect class="cls-12" x="210.11" y="270.69" width="19.87" height="25.88"/></g><g id="LWPOLYLINE-200" data-name="LWPOLYLINE"><path class="cls-12" d="M214,291.49a1.11,1.11,0,0,1-1.11-1.11V276.89a1.11,1.11,0,0,1,1.11-1.11h10a.93.93,0,0,1,.93.92v13.86a.93.93,0,0,1-.93.93Z"/></g><g id="ARC-88" data-name="ARC"><path class="cls-12" d="M213.42,306.59c3.17-.35,11.54-1,11.54-1"/></g><g id="ARC-89" data-name="ARC"><path class="cls-12" d="M220.76,317.87a.84.84,0,0,1-.51.77c-.35.14-.71.27-1.06.39a14.86,14.86,0,0,1-2.94.65c-.53.06-1.06.1-1.59.13a15.68,15.68,0,0,1-4.16-.34,10.14,10.14,0,0,1-5.32-3.08,5,5,0,0,1-1.25-3.28,4.85,4.85,0,0,1,1.32-3.25,10.11,10.11,0,0,1,5.37-3,15.75,15.75,0,0,1,4.17-.26c.53,0,1.06.09,1.59.16a14.78,14.78,0,0,1,2.92.7q.52.19,1,.42a.82.82,0,0,1,.5.78Z"/></g><g id="ARC-90" data-name="ARC"><path class="cls-12" d="M213.29,319.82c3.16.41,11.67,1,11.67,1"/></g><g id="ARC-91" data-name="ARC"><path class="cls-12" d="M224.81,305.59a1.1,1.1,0,0,0-1,1,56.89,56.89,0,0,0,0,13.3,1.12,1.12,0,0,0,1,1h0c1.14.05,2.28.09,3.43.12a1.47,1.47,0,0,0,1.49-1.34q.27-3.19.27-6.4t-.27-6.4a1.47,1.47,0,0,0-1.49-1.34c-1.15,0-2.29.06-3.43.12Z"/></g><g id="ARC-92" data-name="ARC"><path class="cls-12" d="M226.28,283.17a1.14,1.14,0,0,1,1.06-.7,1.16,1.16,0,1,1-1.06,1.63Z"/></g><g id="ARC-93" data-name="ARC"><path class="cls-12" d="M227.58,277.83a1.17,1.17,0,1,1-.47,0Z"/></g><g id="ARC-94" data-name="ARC"><path class="cls-12" d="M227.58,289.43a1.17,1.17,0,1,0-.47,0Z"/></g><g id="LINE-72" data-name="LINE"><path class="cls-12" d="M221.75,283.17h5.59a.46.46,0,0,1,.47.46.47.47,0,0,1-.47.47h-5.59a.46.46,0,0,1-.46-.47A.45.45,0,0,1,221.75,283.17Z"/></g><line class="cls-12" x1="227.34" y1="278.98" x2="227.34" y2="275.71"/><line class="cls-12" x1="227.34" y1="291.55" x2="227.34" y2="288.28"/><g id="LWPOLYLINE-201" data-name="LWPOLYLINE"><polygon class="cls-15" points="98.58 441.44 101.51 441.44 101.51 440.47 103.33 440.47 103.33 437.66 106.25 437.66 106.25 431.92 101.51 431.92 101.51 395.71 97.99 395.71 97.99 399.46 64.24 399.46 64.24 353.17 97.99 353.17 97.99 361.96 101.51 361.96 101.51 344.38 119.44 344.38 119.44 340.86 3.12 340.86 3.12 0.2 0.2 0.2 0.2 343.74 51.7 343.74 51.7 401.22 98.58 401.22 98.58 440.47 98.58 441.44"/></g><g id="LWPOLYLINE-202" data-name="LWPOLYLINE"><polygon class="cls-15" points="96.94 22.7 96.94 0.2 93.19 0.2 91.94 2.4 90.32 4.35 88.39 5.99 86.2 7.27 83.82 8.14 81.33 8.58 78.8 8.58 76.3 8.14 73.92 7.27 71.74 5.99 69.8 4.35 68.19 2.4 66.94 0.2 63.19 0.2 63.19 22.7 86.55 22.7 96.94 22.7"/></g><g id="LWPOLYLINE-203" data-name="LWPOLYLINE"><polygon class="cls-15" points="162.56 441.41 162.56 410.82 345.79 410.82 345.79 247.88 311.68 247.88 311.68 28.45 309.8 26.85 308.19 24.9 306.94 22.7 303.19 22.7 303.19 57.62 308.81 57.62 308.81 183.36 279.05 183.36 279.05 186.88 282.8 186.88 282.8 193.03 286.31 193.03 286.31 186.88 308.81 186.88 308.81 227.31 286.31 227.31 286.31 221.16 282.8 221.16 282.8 289.89 286.31 289.89 286.31 250.75 342.92 250.75 342.92 329.38 286.31 329.38 286.31 323.64 282.8 323.64 282.8 329.38 279.05 329.38 279.05 332.89 342.92 332.89 342.92 402.27 229.36 402.27 229.36 368.52 225.84 368.52 225.84 402.27 190.22 402.27 190.22 332.89 245.3 332.89 245.3 329.38 241.55 329.38 241.55 254.85 235.81 254.85 235.81 258.83 197.84 258.83 197.84 265.63 229.71 265.63 229.71 329.38 160.34 329.38 160.34 265.63 164.09 265.63 164.09 258.83 156.82 258.83 156.78 340.86 153.19 340.86 153.19 344.38 159.16 344.38 159.16 367.64 162.68 367.64 162.68 362.19 185.65 362.19 185.65 406.37 162.68 406.37 162.68 401.39 159.16 401.39 159.16 431.92 140 431.92 140 437.66 153.95 437.66 153.95 440.47 160.45 440.47 160.45 441.41 162.18 441.41 162.56 441.41"/></g><g id="LWPOLYLINE-204" data-name="LWPOLYLINE"><polygon class="cls-15" points="241.55 221.1 241.55 186.88 245.3 186.88 245.3 183.36 162.56 183.36 162.56 67.82 190.69 67.82 190.69 0.2 186.94 0.2 185.69 2.4 184.07 4.35 182.14 5.99 179.95 7.27 177.57 8.14 175.08 8.58 172.55 8.58 170.05 8.14 167.68 7.27 165.49 5.99 163.55 4.35 161.94 2.4 160.69 0.2 156.82 0.2 156.82 217.35 235.81 217.35 235.81 221.1 241.55 221.1"/></g><path class="cls-16" d="M216.75,58.81h.88l1.81,4.45h0l1.81-4.45h.88v5.6h-.66V59.87h0l-1.88,4.54h-.28l-1.89-4.54h0v4.54h-.65Z"/><path class="cls-16" d="M227.09,63.28h-2.52l-.39,1.13h-.68l2-5.6h.64l2,5.6h-.68Zm-.2-.57-1-3h0l-1.05,3Z"/><path class="cls-16" d="M229.05,62.55l.66-.11a1.46,1.46,0,0,0,1.65,1.46c.78,0,1.29-.36,1.29-.9s-.38-.88-1.55-1.25c-1.33-.44-1.78-.83-1.78-1.58a1.59,1.59,0,0,1,1.79-1.48,2,2,0,0,1,2,1.63l-.64.14a1.34,1.34,0,0,0-1.4-1.14c-.67,0-1.12.33-1.12.85s.32.66,1.34,1c1.46.48,2,1,2,1.84s-.79,1.54-2,1.54A2.06,2.06,0,0,1,229.05,62.55Z"/><path class="cls-16" d="M236.09,59.44h-1.74v-.63h4.15v.63h-1.75v5h-.66Z"/><path class="cls-16" d="M240,58.81h3.36v.63h-2.71v1.79h2.48v.59h-2.48v2h2.71v.63H240Z"/><path class="cls-16" d="M247.42,62.11l1.23,2.3h-.77l-1.19-2.27h-1.12v2.27h-.65v-5.6h2a1.63,1.63,0,0,1,1.86,1.66,1.54,1.54,0,0,1-1.4,1.62Zm-.52-.6c.83,0,1.26-.36,1.26-1s-.43-1-1.26-1h-1.33v2.07Z"/><path class="cls-16" d="M214.23,67.31h2.15A1.46,1.46,0,0,1,218,68.76a1.19,1.19,0,0,1-.66,1.15v0a1.33,1.33,0,0,1,.86,1.32c0,1.08-.68,1.66-2,1.66h-2Zm2,2.38c.73,0,1.09-.3,1.09-.9s-.37-.85-1.09-.85h-1.37v1.75Zm-.09,2.59c1,0,1.39-.31,1.39-1s-.39-1-1.38-1h-1.29v2Z"/><path class="cls-16" d="M219.86,67.31h3.36v.63h-2.71v1.79H223v.59h-2.48v2h2.71v.63h-3.36Z"/><path class="cls-16" d="M224.81,67.31h1.74c1.42,0,2.42,1,2.42,2.79,0,2-1,2.81-2.47,2.81h-1.69Zm1.65,5c1.14,0,1.84-.59,1.84-2.18,0-1.43-.7-2.16-1.79-2.16h-1v4.34Z"/><path class="cls-16" d="M233.1,70.61l1.23,2.3h-.78l-1.18-2.27h-1.12v2.27h-.65v-5.6h2c1.17,0,1.87.63,1.87,1.66a1.54,1.54,0,0,1-1.4,1.62Zm-.52-.6c.82,0,1.25-.36,1.25-1s-.42-1-1.25-1h-1.33V70Z"/><path class="cls-16" d="M235.76,70.11c0-1.75.94-2.92,2.36-2.92s2.36,1.17,2.36,2.92S239.53,73,238.12,73,235.76,71.86,235.76,70.11Zm4.06,0c0-1.42-.65-2.29-1.7-2.29s-1.7.87-1.7,2.29.65,2.29,1.7,2.29S239.82,71.52,239.82,70.11Z"/><path class="cls-16" d="M241.82,70.11c0-1.75,1-2.92,2.36-2.92s2.36,1.17,2.36,2.92S245.6,73,244.18,73,241.82,71.86,241.82,70.11Zm4.06,0c0-1.42-.65-2.29-1.7-2.29s-1.69.87-1.69,2.29.64,2.29,1.69,2.29S245.88,71.52,245.88,70.11Z"/><path class="cls-16" d="M248.17,67.31h.88l1.81,4.45h0l1.82-4.45h.87v5.6h-.66V68.37h0L251,72.91h-.28l-1.89-4.54h0v4.54h-.65Z"/><path class="cls-16" d="M208,76.56l-1.25.81v-.7l1.33-.86h.59v5.6H208Z"/><path class="cls-16" d="M210.28,79.55l.65-.11c.11,1,.59,1.46,1.41,1.46a1.07,1.07,0,0,0,1.2-1.07c0-.76-.43-1.12-1.32-1.12h-.4v-.58h.4c.66,0,1.17-.4,1.17-.9s-.4-.93-1.06-.93a1.18,1.18,0,0,0-1.26,1l-.65-.09a1.8,1.8,0,0,1,1.91-1.57,1.54,1.54,0,0,1,1.73,1.49,1.35,1.35,0,0,1-.76,1.17v0a1.5,1.5,0,0,1,.89,1.46,1.69,1.69,0,0,1-1.85,1.7A2,2,0,0,1,210.28,79.55Z"/><path class="cls-16" d="M215.85,75.81h.59v1.78h-.59Z"/><path class="cls-16" d="M217.57,78.22h2.09v.6h-2.09Z"/><path class="cls-16" d="M221.1,78.61c0-1.81.91-2.92,2.22-2.92s2.21,1.11,2.21,2.92-.9,2.92-2.21,2.92S221.1,80.42,221.1,78.61Zm3.77,0c0-1.46-.62-2.29-1.55-2.29s-1.55.83-1.55,2.29.61,2.29,1.55,2.29S224.87,80.07,224.87,78.61Z"/><path class="cls-16" d="M227.06,75.81h.58v1.78h-.58Zm1.05,0h.59v1.78h-.59Z"/><path class="cls-16" d="M232.39,80l1.31-1.3-1.31-1.29.39-.39,1.29,1.31,1.3-1.31.39.39-1.31,1.29,1.31,1.3-.39.39-1.3-1.31-1.29,1.31Z"/><path class="cls-16" d="M239.94,76.56l-1.25.81v-.7l1.33-.86h.58v5.6h-.66Z"/><path class="cls-16" d="M243.06,80.78h3v.63h-3.72v-.53a2,2,0,0,1,.23-1.06c.2-.37.54-.64,1.42-1.1,1.16-.6,1.5-.93,1.5-1.49s-.49-.91-1.17-.91a1.29,1.29,0,0,0-1.4,1.35l-.66,0a1.93,1.93,0,0,1,2.06-1.93,1.68,1.68,0,0,1,1.83,1.54c0,.82-.41,1.31-1.65,1.93-.93.47-1.19.66-1.33.94A1.56,1.56,0,0,0,243.06,80.78Z"/><path class="cls-16" d="M247.9,75.81h.58v1.78h-.58Z"/><path class="cls-16" d="M249.9,78.22H252v.6H249.9Z"/><path class="cls-16" d="M257.36,78.27c0,2.27-.61,3.26-2,3.26a1.77,1.77,0,0,1-1.8-1.42l.61-.17a1.17,1.17,0,0,0,1.19,1c.88,0,1.3-.57,1.36-2h0a1.7,1.7,0,0,1-1.44.64,1.79,1.79,0,0,1-1.95-1.92,1.88,1.88,0,0,1,2-1.9C256.52,75.69,257.36,76.55,257.36,78.27Zm-.77-.64a1.25,1.25,0,0,0-1.33-1.33,1.31,1.31,0,1,0,0,2.62A1.24,1.24,0,0,0,256.59,77.63Z"/><path class="cls-16" d="M258.94,75.81h.58v1.78h-.58Zm1.06,0h.58v1.78H260Z"/><path class="cls-16" d="M47.72,132.56h.65v5H50.9v.63H47.72Z"/><path class="cls-16" d="M52.37,132.56H53v5.6h-.66Z"/><path class="cls-16" d="M54.36,132.56h.7l1.66,4.72h0l1.67-4.72h.69l-2,5.6h-.7Z"/><path class="cls-16" d="M60.45,132.56h.65v5.6h-.65Z"/><path class="cls-16" d="M63,132.56h.78l2.54,4.56h0v-4.56H67v5.6h-.78l-2.55-4.57h0v4.57H63Z"/><path class="cls-16" d="M68.64,135.36c0-1.78.93-2.92,2.36-2.92a2.08,2.08,0,0,1,2.13,1.85l-.66.12A1.44,1.44,0,0,0,71,133.06c-1,0-1.7.88-1.7,2.3s.65,2.29,1.7,2.29A1.42,1.42,0,0,0,72.49,136H71.07v-.62h2.07V136A2.09,2.09,0,0,1,71,138.28C69.57,138.28,68.64,137.13,68.64,135.36Z"/><path class="cls-16" d="M76.75,138.28l2.86-6,.44.2-2.86,6Z"/><path class="cls-16" d="M84,132.56h1.75c1.41,0,2.41,1,2.41,2.79,0,2-1,2.81-2.46,2.81H84Zm1.66,5c1.13,0,1.84-.6,1.84-2.18,0-1.43-.71-2.17-1.79-2.17h-1v4.35Z"/><path class="cls-16" d="M89.79,132.56h.66v5.6h-.66Z"/><path class="cls-16" d="M92.36,132.56h.77l2.54,4.56h0v-4.56h.66v5.6h-.78L93,133.59h0v4.57h-.65Z"/><path class="cls-16" d="M98.28,132.56h.65v5.6h-.65Z"/><path class="cls-16" d="M100.85,132.56h.77l2.54,4.56h0v-4.56h.66v5.6h-.78l-2.54-4.57h0v4.57h-.65Z"/><path class="cls-16" d="M106.47,135.36c0-1.78.93-2.92,2.36-2.92a2.08,2.08,0,0,1,2.13,1.85l-.66.12a1.44,1.44,0,0,0-1.47-1.35c-1,0-1.69.88-1.69,2.3s.64,2.29,1.69,2.29a1.43,1.43,0,0,0,1.5-1.64h-1.42v-.62H111V136a2.1,2.1,0,0,1-2.15,2.32C107.4,138.28,106.47,137.13,106.47,135.36Z"/><path class="cls-16" d="M117.65,135.85l1.23,2.31h-.78l-1.18-2.28H115.8v2.28h-.65v-5.6h2c1.16,0,1.86.62,1.86,1.65a1.55,1.55,0,0,1-1.4,1.63Zm-.52-.59c.82,0,1.25-.36,1.25-1s-.42-1-1.25-1H115.8v2.08Z"/><path class="cls-16" d="M120.31,135.36c0-1.75.94-2.92,2.36-2.92s2.36,1.17,2.36,2.92-1,2.92-2.36,2.92S120.31,137.11,120.31,135.36Zm4,0c0-1.42-.64-2.3-1.69-2.3s-1.7.88-1.7,2.3.65,2.29,1.7,2.29S124.36,136.77,124.36,135.36Z"/><path class="cls-16" d="M126.37,135.36c0-1.75.95-2.92,2.36-2.92s2.36,1.17,2.36,2.92-.94,2.92-2.36,2.92S126.37,137.11,126.37,135.36Zm4.06,0c0-1.42-.65-2.3-1.7-2.3s-1.7.88-1.7,2.3.65,2.29,1.7,2.29S130.43,136.77,130.43,135.36Z"/><path class="cls-16" d="M132.72,132.56h.88l1.81,4.44h0l1.81-4.44h.88v5.6h-.66v-4.55h0l-1.89,4.55h-.28l-1.89-4.55h0v4.55h-.65Z"/><path class="cls-16" d="M67.52,141.81l-1.24.81v-.7l1.32-.86h.59v5.6h-.67Z"/><path class="cls-16" d="M69.78,144.79l.65-.1c.11,1,.59,1.46,1.41,1.46a1.07,1.07,0,0,0,1.2-1.08c0-.76-.43-1.12-1.32-1.12h-.4v-.57h.4a1.06,1.06,0,0,0,1.18-.91c0-.57-.4-.92-1.07-.92a1.18,1.18,0,0,0-1.26,1l-.65-.09a1.8,1.8,0,0,1,1.91-1.57,1.54,1.54,0,0,1,1.73,1.49,1.35,1.35,0,0,1-.76,1.17v0a1.48,1.48,0,0,1,.9,1.45,1.7,1.7,0,0,1-1.86,1.71A2,2,0,0,1,69.78,144.79Z"/><path class="cls-16" d="M75.35,141.06h.59v1.78h-.59Z"/><path class="cls-16" d="M77.07,143.46h2.09v.61H77.07Z"/><path class="cls-16" d="M80.31,145.1a1.58,1.58,0,0,1,1-1.51h0a1.26,1.26,0,0,1-.73-1.17,1.78,1.78,0,0,1,3.51,0,1.25,1.25,0,0,1-.73,1.17h0a1.57,1.57,0,0,1,1,1.51c0,1-.82,1.68-2.06,1.68S80.31,146.1,80.31,145.1Zm3.46,0c0-.68-.54-1.11-1.38-1.11s-1.4.43-1.4,1.11.54,1.08,1.4,1.08S83.77,145.72,83.77,145.06Zm-.28-2.61c0-.54-.45-.91-1.1-.91s-1.11.37-1.11.91.44.88,1.11.88S83.49,143,83.49,142.45Z"/><path class="cls-16" d="M85.88,141.06h.58v1.78h-.58Zm1.06,0h.58v1.78h-.58Z"/><path class="cls-16" d="M91.22,145.22l1.31-1.3-1.31-1.29.39-.4,1.29,1.32,1.29-1.32.39.4-1.31,1.29,1.31,1.3-.39.39L92.9,144.3l-1.29,1.31Z"/><path class="cls-16" d="M98.76,141.81l-1.25.81v-.7l1.33-.86h.58v5.6h-.66Z"/><path class="cls-16" d="M105.09,143.52c0,2.27-.61,3.26-2,3.26a1.78,1.78,0,0,1-1.8-1.43l.61-.16a1.18,1.18,0,0,0,1.19,1c.89,0,1.31-.57,1.36-2h0a1.71,1.71,0,0,1-1.44.63,1.79,1.79,0,0,1-1.95-1.92,1.88,1.88,0,0,1,2-1.89C104.26,140.94,105.09,141.8,105.09,143.52Zm-.77-.65a1.33,1.33,0,1,0-1.32,1.3A1.24,1.24,0,0,0,104.32,142.87Z"/><path class="cls-16" d="M106.67,141.06h.58v1.78h-.58Z"/><path class="cls-16" d="M108.67,143.46h2.08v.61h-2.08Z"/><path class="cls-16" d="M111.91,145.1a1.57,1.57,0,0,1,1-1.51h0a1.25,1.25,0,0,1-.74-1.17,1.79,1.79,0,0,1,3.52,0,1.26,1.26,0,0,1-.74,1.17h0a1.57,1.57,0,0,1,1,1.51c0,1-.81,1.68-2.06,1.68S111.91,146.1,111.91,145.1Zm3.45,0c0-.68-.53-1.11-1.38-1.11s-1.39.43-1.39,1.11.53,1.08,1.39,1.08S115.36,145.72,115.36,145.06Zm-.28-2.61c0-.54-.44-.91-1.1-.91s-1.1.37-1.1.91.44.88,1.1.88S115.08,143,115.08,142.45Z"/><path class="cls-16" d="M117.48,141.06h.58v1.78h-.58Zm1,0h.58v1.78h-.58Z"/><path class="cls-16" d="M117.51,376.28h3.37v.62h-2.71v2h2.49v.59h-2.49v2.39h-.66Z"/><path class="cls-16" d="M122.43,379.08c0-1.75.95-2.92,2.36-2.92s2.36,1.17,2.36,2.92-.94,2.92-2.36,2.92S122.43,380.83,122.43,379.08Zm4.06,0c0-1.42-.65-2.3-1.7-2.3s-1.69.88-1.69,2.3.64,2.29,1.69,2.29S126.49,380.49,126.49,379.08Z"/><path class="cls-16" d="M130.14,379.54l-2-3.26H129l1.51,2.61h0l1.52-2.61h.76l-2,3.26v2.34h-.66Z"/><path class="cls-16" d="M134.41,376.28h3.36v.62h-2.7v1.8h2.47v.59h-2.47v2h2.7v.63h-3.36Z"/><path class="cls-16" d="M142.18,379.57l1.23,2.31h-.77l-1.18-2.27h-1.12v2.27h-.66v-5.6h2c1.17,0,1.86.62,1.86,1.66a1.54,1.54,0,0,1-1.4,1.62Zm-.52-.59c.83,0,1.26-.36,1.26-1s-.43-1-1.26-1h-1.32V379Z"/><path class="cls-16" d="M33,329.37l1.23,2.3h-.78l-1.18-2.27H31.17v2.27h-.66v-5.6h2c1.17,0,1.86.63,1.86,1.66A1.53,1.53,0,0,1,33,329.35Zm-.52-.59c.82,0,1.25-.36,1.25-1s-.42-1-1.25-1H31.17v2.08Z"/><path class="cls-16" d="M5.1,266l.65-.11a1.46,1.46,0,0,0,1.66,1.46c.77,0,1.29-.36,1.29-.9s-.38-.88-1.55-1.25c-1.33-.44-1.78-.83-1.78-1.58s.73-1.48,1.79-1.48a2,2,0,0,1,2,1.63l-.65.13a1.34,1.34,0,0,0-1.39-1.14c-.68,0-1.12.34-1.12.86s.31.66,1.34,1c1.45.47,2,1,2,1.84S8.56,268,7.4,268A2,2,0,0,1,5.1,266Z"/><path class="cls-16" d="M10.12,265.09c0-1.75.94-2.92,2.35-2.92s2.36,1.17,2.36,2.92S13.89,268,12.47,268,10.12,266.84,10.12,265.09Zm4.05,0c0-1.42-.65-2.3-1.7-2.3s-1.69.88-1.69,2.3.65,2.29,1.69,2.29S14.17,266.5,14.17,265.09Z"/><path class="cls-16" d="M15.16,268,18,262l.44.2-2.86,6Z"/><path class="cls-16" d="M19.08,262.29h.67l.83,4.55h0L22,262.29h.62L24,266.84h0l.82-4.55h.68l-1,5.59h-.8l-1.37-4.49h0l-1.37,4.49h-.8Z"/><path class="cls-16" d="M33.94,262.15h1.74c1.42,0,2.42,1,2.42,2.79,0,2-1,2.81-2.47,2.81H33.94Zm1.65,5c1.14,0,1.84-.6,1.84-2.19,0-1.43-.7-2.16-1.79-2.16h-1v4.35Z"/><path class="cls-16" d="M38.86,262.15h.68l.83,4.55h0l1.39-4.55h.62l1.39,4.55h0l.82-4.55h.68l-1,5.6h-.8l-1.37-4.5h0l-1.37,4.5h-.8Z"/><polygon class="cls-16" points="119.39 456.62 124.79 442.22 130.19 456.62 119.39 456.62"/><path class="cls-16" d="M73.84,375.76h.68l.82,4.55h0l1.38-4.55h.62l1.4,4.55h0l.83-4.55h.68l-1,5.6h-.8l-1.38-4.5h0l-1.36,4.5h-.81Z"/><path class="cls-16" d="M81.21,381.48l2.86-6,.45.2-2.87,6Z"/><path class="cls-16" d="M86.21,375.76H88c1.41,0,2.41,1,2.41,2.79,0,2-1,2.81-2.46,2.81H86.21Zm1.65,5c1.14,0,1.84-.6,1.84-2.18s-.7-2.17-1.79-2.17h-1v4.35Z"/></g></g></svg>