<svg xmlns="http://www.w3.org/2000/svg" viewBox="0 0 345.986 452.371"><title>Asset 8Unit6-14B_x</title><g id="Layer_2" data-name="Layer 2"><g id="Unit6-14B_Rest"><g id="LWPOLYLINE"><path d="M61.313,17.075,35,27a28.129,28.129,0,0,1-1.809-9.924" style="fill:none;stroke:#231f20;stroke-linecap:round;stroke-linejoin:round;stroke-width:0.25px;stroke-dasharray:1.3229475021362305,1.3229475021362305"/></g><g id="LWPOLYLINE-2" data-name="LWPOLYLINE"><path d="M5.063,17.075,31.379,27a28.129,28.129,0,0,0,1.809-9.924" style="fill:none;stroke:#231f20;stroke-linecap:round;stroke-linejoin:round;stroke-width:0.25px;stroke-dasharray:1.3229475021362305,1.3229475021362305"/></g><g id="LWPOLYLINE-3" data-name="LWPOLYLINE"><path d="M155.063,17.075,128.747,27a28.129,28.129,0,0,1-1.809-9.924" style="fill:none;stroke:#231f20;stroke-linecap:round;stroke-linejoin:round;stroke-width:0.25px;stroke-dasharray:1.3229475021362305,1.3229475021362305"/></g><g id="LWPOLYLINE-4" data-name="LWPOLYLINE"><path d="M98.813,17.075,125.129,27a28.129,28.129,0,0,0,1.809-9.924" style="fill:none;stroke:#231f20;stroke-linecap:round;stroke-linejoin:round;stroke-width:0.25px;stroke-dasharray:1.3229475021362305,1.3229475021362305"/></g><g id="LWPOLYLINE-5" data-name="LWPOLYLINE"><rect x="168.188" y="77.02" width="104.883" height="97.594" style="fill:#fff;stroke:#231f20;stroke-linecap:round;stroke-linejoin:round;stroke-width:0.15px"/></g><g id="LWPOLYLINE-6" data-name="LWPOLYLINE"><rect x="11.82" y="35.69" width="123.706" height="110.574" style="fill:#fff;stroke:#231f20;stroke-linecap:round;stroke-linejoin:round;stroke-width:0.15px"/></g><g id="LWPOLYLINE-7" data-name="LWPOLYLINE"><rect x="293.813" y="97.466" width="15" height="56.25" style="fill:#fff;stroke:#231f20;stroke-linecap:round;stroke-linejoin:round;stroke-width:0.150000005960464px"/></g><g id="LWPOLYLINE-8" data-name="LWPOLYLINE"><rect x="141.821" y="68.444" width="15" height="56.25" style="fill:#fff;stroke:#231f20;stroke-linecap:round;stroke-linejoin:round;stroke-width:0.150000005960464px"/></g><path d="M91.727,233.652a11.973,11.973,0,0,0-1.165,1.165l1.061.923v10.905H107.56v-10.9l1.061-.923A11.975,11.975,0,0,0,91.727,233.652Z" style="fill:#fff"/><path d="M65.432,233.652a11.973,11.973,0,0,0-1.165,1.165l1.061.923v10.905H81.265v-10.9l1.061-.923A11.975,11.975,0,0,0,65.432,233.652Z" style="fill:#fff"/><path d="M39.137,233.652a11.973,11.973,0,0,0-1.165,1.165l1.061.923v10.905H54.97v-10.9l1.061-.923A11.975,11.975,0,0,0,39.137,233.652Z" style="fill:#fff"/><g id="LWPOLYLINE-9" data-name="LWPOLYLINE"><polygon points="125.762 69.834 149.845 51.921 134.577 29.995 109.422 46.368 125.762 69.834" style="fill:#fff;stroke:#231f20;stroke-linecap:round;stroke-linejoin:round;stroke-width:0.150000005960464px"/></g><g id="LINE"><line x1="123.484" y1="66.562" x2="147.568" y2="48.65" style="fill:none;stroke:#231f20;stroke-linecap:round;stroke-linejoin:round;stroke-width:0.150000005960464px"/></g><g id="LINE-2" data-name="LINE"><line x1="144.177" y1="51.163" x2="133.322" y2="35.574" style="fill:none;stroke:#231f20;stroke-linecap:round;stroke-linejoin:round;stroke-width:0.150000005960464px"/></g><g id="LINE-3" data-name="LINE"><line x1="136.855" y1="33.266" x2="111.7" y2="49.64" style="fill:none;stroke:#231f20;stroke-linecap:round;stroke-linejoin:round;stroke-width:0.150000005960464px"/></g><g id="LWPOLYLINE-10" data-name="LWPOLYLINE"><path d="M49.872,177.169H67.685l-.291-5.813a3.75,3.75,0,0,0-3.745-3.562H53.908a3.75,3.75,0,0,0-3.745,3.562Z" style="fill:#fff;stroke:#231f20;stroke-linecap:round;stroke-linejoin:round;stroke-width:0.150000005960464px"/></g><g id="LWPOLYLINE-11" data-name="LWPOLYLINE"><path d="M75.654,177.169H93.466l-.291-5.813a3.749,3.749,0,0,0-3.745-3.562H79.69a3.75,3.75,0,0,0-3.746,3.562Z" style="fill:#fff;stroke:#231f20;stroke-linecap:round;stroke-linejoin:round;stroke-width:0.150000005960464px"/></g><g id="LWPOLYLINE-12" data-name="LWPOLYLINE"><path d="M66.277,177.169l-.287-5.742a2.344,2.344,0,0,0-2.341-2.227H53.908a2.344,2.344,0,0,0-2.341,2.227l-.287,5.742" style="fill:#fff;stroke:#231f20;stroke-linecap:round;stroke-linejoin:round;stroke-width:0.150000005960464px"/></g><g id="LWPOLYLINE-13" data-name="LWPOLYLINE"><path d="M92.154,177.4l-.287-5.742a2.344,2.344,0,0,0-2.341-2.227h-9.74a2.344,2.344,0,0,0-2.341,2.227l-.287,5.742" style="fill:#fff;stroke:#231f20;stroke-linecap:round;stroke-linejoin:round;stroke-width:0.150000005960464px"/></g><g id="LWPOLYLINE-14" data-name="LWPOLYLINE"><path d="M93.466,197.214H75.654l.29,5.812a3.75,3.75,0,0,0,3.746,3.563h9.74a3.749,3.749,0,0,0,3.745-3.563Z" style="fill:#fff;stroke:#231f20;stroke-linecap:round;stroke-linejoin:round;stroke-width:0.150000005960464px"/></g><g id="LWPOLYLINE-15" data-name="LWPOLYLINE"><path d="M67.685,197.214H49.872l.291,5.812a3.75,3.75,0,0,0,3.745,3.563h9.741a3.75,3.75,0,0,0,3.745-3.563Z" style="fill:#fff;stroke:#231f20;stroke-linecap:round;stroke-linejoin:round;stroke-width:0.150000005960464px"/></g><g id="LWPOLYLINE-16" data-name="LWPOLYLINE"><path d="M77.062,197.214l.287,5.742a2.344,2.344,0,0,0,2.341,2.227h9.74a2.344,2.344,0,0,0,2.341-2.227l.287-5.742" style="fill:#fff;stroke:#231f20;stroke-linecap:round;stroke-linejoin:round;stroke-width:0.150000005960464px"/></g><g id="LWPOLYLINE-17" data-name="LWPOLYLINE"><path d="M51.184,196.979l.287,5.743a2.344,2.344,0,0,0,2.341,2.226h9.741a2.344,2.344,0,0,0,2.341-2.226l.287-5.743" style="fill:#fff;stroke:#231f20;stroke-linecap:round;stroke-linejoin:round;stroke-width:0.150000005960464px"/></g><g id="LWPOLYLINE-18" data-name="LWPOLYLINE"><path d="M47.288,178.285V196.1l-5.812-.291a3.75,3.75,0,0,1-3.563-3.745v-9.741a3.749,3.749,0,0,1,3.563-3.745Z" style="fill:#fff;stroke:#231f20;stroke-linecap:round;stroke-linejoin:round;stroke-width:0.150000005960464px"/></g><g id="LWPOLYLINE-19" data-name="LWPOLYLINE"><path d="M47.288,194.69l-5.742-.288a2.343,2.343,0,0,1-2.227-2.34v-9.741a2.345,2.345,0,0,1,2.227-2.341l5.742-.287" style="fill:#fff;stroke:#231f20;stroke-linecap:round;stroke-linejoin:round;stroke-width:0.150000005960464px"/></g><g id="LWPOLYLINE-20" data-name="LWPOLYLINE"><path d="M96.05,196.1V178.285l5.813.291a3.749,3.749,0,0,1,3.562,3.745v9.741a3.749,3.749,0,0,1-3.562,3.745Z" style="fill:#fff;stroke:#231f20;stroke-linecap:round;stroke-linejoin:round;stroke-width:0.150000005960464px"/></g><g id="LWPOLYLINE-21" data-name="LWPOLYLINE"><path d="M96.05,179.693l5.742.287a2.344,2.344,0,0,1,2.227,2.341v9.741a2.342,2.342,0,0,1-2.227,2.34l-5.742.288" style="fill:#fff;stroke:#231f20;stroke-linecap:round;stroke-linejoin:round;stroke-width:0.150000005960464px"/></g><g id="LWPOLYLINE-22" data-name="LWPOLYLINE"><rect x="43.538" y="173.129" width="56.25" height="28.125" style="fill:#fff;stroke:#231f20;stroke-linecap:round;stroke-linejoin:round;stroke-width:0.150000005960464px"/></g><g id="LWPOLYLINE-23" data-name="LWPOLYLINE"><rect x="16.471" y="136.757" width="17.698" height="18.436" style="fill:#fff;stroke:#231f20;stroke-linecap:round;stroke-linejoin:round;stroke-width:0.150000005960464px"/></g><g id="LWPOLYLINE-24" data-name="LWPOLYLINE"><rect x="162.116" y="90.068" width="80.625" height="71.25" style="fill:#fff;stroke:#231f20;stroke-linecap:round;stroke-linejoin:round;stroke-width:0.150000005960464px"/></g><g id="LWPOLYLINE-25" data-name="LWPOLYLINE"><rect x="162.115" y="163.31" width="15.938" height="15.897" style="fill:#fff;stroke:#231f20;stroke-linecap:round;stroke-linejoin:round;stroke-width:0.150000005960464px"/></g><g id="LWPOLYLINE-26" data-name="LWPOLYLINE"><rect x="162.115" y="71.974" width="15.938" height="15.897" style="fill:#fff;stroke:#231f20;stroke-linecap:round;stroke-linejoin:round;stroke-width:0.150000005960464px"/></g><g id="LWPOLYLINE-27" data-name="LWPOLYLINE"><rect x="167.47" y="126.967" width="14.683" height="31.809" style="fill:none;stroke:#231f20;stroke-linecap:round;stroke-linejoin:round;stroke-width:0.150000005960464px"/></g><g id="LINE-4" data-name="LINE"><line x1="164.928" y1="90.068" x2="164.928" y2="161.318" style="fill:none;stroke:#231f20;stroke-linecap:round;stroke-linejoin:round;stroke-width:0.150000005960464px"/></g><g id="LINE-5" data-name="LINE"><line x1="239.928" y1="90.068" x2="239.928" y2="161.318" style="fill:none;stroke:#231f20;stroke-linecap:round;stroke-linejoin:round;stroke-width:0.150000005960464px"/></g><g id="LWPOLYLINE-28" data-name="LWPOLYLINE"><rect x="167.47" y="92.61" width="14.683" height="31.809" style="fill:none;stroke:#231f20;stroke-linecap:round;stroke-linejoin:round;stroke-width:0.150000005960464px"/></g><rect x="127.955" y="94.735" width="44.903" height="1.758" transform="translate(246.02 -54.793) rotate(90)" style="fill:#fff;stroke:#231f20;stroke-linecap:round;stroke-linejoin:round;stroke-width:0.150000005960464px"/><g id="LWPOLYLINE-29" data-name="LWPOLYLINE"><path d="M90.562,234.818a12.1,12.1,0,0,1,1.165-1.166,11.975,11.975,0,0,1,16.894,1.166l-1.061.923v10.9H91.623v-10.9Z" style="fill:none;stroke:#231f20;stroke-linecap:round;stroke-linejoin:round;stroke-width:0.150000005960464px"/></g><g id="LWPOLYLINE-30" data-name="LWPOLYLINE"><line x1="93.474" y1="234.065" x2="93.474" y2="246.645" style="fill:none;stroke:#231f20;stroke-linecap:round;stroke-linejoin:round;stroke-width:0.150000005960464px"/></g><g id="LWPOLYLINE-31" data-name="LWPOLYLINE"><line x1="105.709" y1="234.065" x2="105.709" y2="246.645" style="fill:none;stroke:#231f20;stroke-linecap:round;stroke-linejoin:round;stroke-width:0.150000005960464px"/></g><g id="LWPOLYLINE-32" data-name="LWPOLYLINE"><path d="M107.56,235.741a10.567,10.567,0,0,0-15.937,0" style="fill:none;stroke:#231f20;stroke-linecap:round;stroke-linejoin:round;stroke-width:0.150000005960464px"/></g><g id="LWPOLYLINE-33" data-name="LWPOLYLINE"><path d="M64.267,234.818a12.1,12.1,0,0,1,1.165-1.166,11.975,11.975,0,0,1,16.894,1.166l-1.061.923v10.9H65.328v-10.9Z" style="fill:none;stroke:#231f20;stroke-linecap:round;stroke-linejoin:round;stroke-width:0.150000005960464px"/></g><g id="LWPOLYLINE-34" data-name="LWPOLYLINE"><line x1="67.179" y1="234.065" x2="67.179" y2="246.645" style="fill:none;stroke:#231f20;stroke-linecap:round;stroke-linejoin:round;stroke-width:0.150000005960464px"/></g><g id="LWPOLYLINE-35" data-name="LWPOLYLINE"><line x1="79.414" y1="234.065" x2="79.414" y2="246.645" style="fill:none;stroke:#231f20;stroke-linecap:round;stroke-linejoin:round;stroke-width:0.150000005960464px"/></g><g id="LWPOLYLINE-36" data-name="LWPOLYLINE"><path d="M81.265,235.741a10.567,10.567,0,0,0-15.937,0" style="fill:none;stroke:#231f20;stroke-linecap:round;stroke-linejoin:round;stroke-width:0.150000005960464px"/></g><g id="LWPOLYLINE-37" data-name="LWPOLYLINE"><path d="M37.972,234.818a12.1,12.1,0,0,1,1.165-1.166,11.975,11.975,0,0,1,16.894,1.166l-1.061.923v10.9H39.033v-10.9Z" style="fill:none;stroke:#231f20;stroke-linecap:round;stroke-linejoin:round;stroke-width:0.150000005960464px"/></g><g id="LWPOLYLINE-38" data-name="LWPOLYLINE"><line x1="40.884" y1="234.065" x2="40.884" y2="246.645" style="fill:none;stroke:#231f20;stroke-linecap:round;stroke-linejoin:round;stroke-width:0.150000005960464px"/></g><g id="LWPOLYLINE-39" data-name="LWPOLYLINE"><line x1="53.119" y1="234.065" x2="53.119" y2="246.645" style="fill:none;stroke:#231f20;stroke-linecap:round;stroke-linejoin:round;stroke-width:0.150000005960464px"/></g><g id="LWPOLYLINE-40" data-name="LWPOLYLINE"><path d="M54.97,235.741a10.567,10.567,0,0,0-15.937,0" style="fill:none;stroke:#231f20;stroke-linecap:round;stroke-linejoin:round;stroke-width:0.150000005960464px"/></g><g id="LWPOLYLINE-41" data-name="LWPOLYLINE"><polygon points="282.509 79.127 281.194 77.215 280.89 77.425 280.323 77.569 279.799 77.309 278.555 75.819 277.54 74.614 276.7 73.532 275.625 72.073 274.683 70.713 274.302 70.169 274.014 69.714 273.643 69.137 273.233 68.483 272.304 66.935 271.474 65.463 270.847 64.289 270.793 63.707 271.13 63.229 271.435 63.02 269.762 60.586 288.477 47.72 301.224 66.261 282.509 79.127" style="fill:#fff;stroke:#231f20;stroke-linecap:round;stroke-linejoin:round;stroke-width:0.150000005960464px"/></g><g id="LINE-6" data-name="LINE"><line x1="290.15" y1="50.153" x2="271.442" y2="63.021" style="fill:none;stroke:#231f20;stroke-linecap:round;stroke-linejoin:round;stroke-width:0.150000005960464px"/></g><g id="LINE-7" data-name="LINE"><line x1="281.194" y1="77.215" x2="299.91" y2="64.348" style="fill:none;stroke:#231f20;stroke-linecap:round;stroke-linejoin:round;stroke-width:0.150000005960464px"/></g><g id="ARC"><path d="M285.978,53.021a40.157,40.157,0,0,0,9.76,14.2" style="fill:none;stroke:#231f20;stroke-linecap:round;stroke-linejoin:round;stroke-width:0.150000005960464px"/></g><g id="ARC-2" data-name="ARC"><path d="M288.76,51.109a101.031,101.031,0,0,0,9.759,14.2" style="fill:none;stroke:#231f20;stroke-linecap:round;stroke-linejoin:round;stroke-width:0.150000005960464px"/></g><line x1="184.626" y1="161.318" x2="184.626" y2="90.068" style="fill:none;stroke:#231f20;stroke-linecap:round;stroke-linejoin:round;stroke-width:0.150000005960464px"/><line x1="187.056" y1="161.318" x2="187.056" y2="90.068" style="fill:none;stroke:#231f20;stroke-linecap:round;stroke-linejoin:round;stroke-width:0.150000005960464px"/><rect x="3.188" y="42.02" width="33.75" height="84.375" style="fill:#fff;stroke:#231f20;stroke-linecap:round;stroke-linejoin:round;stroke-width:0.150000005960464px"/><g id="LINE-8" data-name="LINE"><line x1="7.876" y1="96.708" x2="35.956" y2="96.708" style="fill:none;stroke:#231f20;stroke-linecap:round;stroke-linejoin:round;stroke-width:0.150000005960464px"/></g><g id="LWPOLYLINE-42" data-name="LWPOLYLINE"><polyline points="36.938 46.708 7.876 46.708 7.876 121.708 36.938 121.708" style="fill:none;stroke:#231f20;stroke-linecap:round;stroke-linejoin:round;stroke-width:0.150000005960464px"/></g><g id="ARC-3" data-name="ARC"><path d="M12.369,120.77a59.552,59.552,0,0,0,0-23.125" style="fill:none;stroke:#231f20;stroke-linecap:round;stroke-linejoin:round;stroke-width:0.150000005960464px"/></g><g id="ARC-4" data-name="ARC"><path d="M12.369,97.645a1.222,1.222,0,0,0-.981-.937" style="fill:none;stroke:#231f20;stroke-linecap:round;stroke-linejoin:round;stroke-width:0.150000005960464px"/></g><g id="ARC-5" data-name="ARC"><path d="M11.388,121.708a1.224,1.224,0,0,0,.981-.938" style="fill:none;stroke:#231f20;stroke-linecap:round;stroke-linejoin:round;stroke-width:0.150000005960464px"/></g><g id="ARC-6" data-name="ARC"><path d="M11.388,96.708a1.224,1.224,0,0,0,.981-.938" style="fill:none;stroke:#231f20;stroke-linecap:round;stroke-linejoin:round;stroke-width:0.150000005960464px"/></g><g id="ARC-7" data-name="ARC"><path d="M12.369,47.645a1.222,1.222,0,0,0-.981-.937" style="fill:none;stroke:#231f20;stroke-linecap:round;stroke-linejoin:round;stroke-width:0.150000005960464px"/></g><g id="ARC-8" data-name="ARC"><path d="M36.938,97.645a1.222,1.222,0,0,0-.982-.937" style="fill:none;stroke:#231f20;stroke-linecap:round;stroke-linejoin:round;stroke-width:0.150000005960464px"/></g><g id="ARC-9" data-name="ARC"><path d="M35.956,96.708a1.224,1.224,0,0,0,.982-.938" style="fill:none;stroke:#231f20;stroke-linecap:round;stroke-linejoin:round;stroke-width:0.150000005960464px"/></g><g id="ARC-10" data-name="ARC"><path d="M35.956,121.708a1.224,1.224,0,0,0,.982-.938" style="fill:none;stroke:#231f20;stroke-linecap:round;stroke-linejoin:round;stroke-width:0.150000005960464px"/></g><g id="ARC-11" data-name="ARC"><path d="M36.938,47.645a1.222,1.222,0,0,0-.982-.937" style="fill:none;stroke:#231f20;stroke-linecap:round;stroke-linejoin:round;stroke-width:0.150000005960464px"/></g><g id="LINE-9" data-name="LINE"><line x1="7.876" y1="71.708" x2="35.956" y2="71.708" style="fill:none;stroke:#231f20;stroke-linecap:round;stroke-linejoin:round;stroke-width:0.150000005960464px"/></g><g id="ARC-12" data-name="ARC"><path d="M12.369,70.77a59.552,59.552,0,0,0,0-23.125" style="fill:none;stroke:#231f20;stroke-linecap:round;stroke-linejoin:round;stroke-width:0.150000005960464px"/></g><g id="ARC-13" data-name="ARC"><path d="M11.388,71.708a1.224,1.224,0,0,0,.981-.938" style="fill:none;stroke:#231f20;stroke-linecap:round;stroke-linejoin:round;stroke-width:0.150000005960464px"/></g><g id="ARC-14" data-name="ARC"><path d="M12.369,72.645a1.222,1.222,0,0,0-.981-.937" style="fill:none;stroke:#231f20;stroke-linecap:round;stroke-linejoin:round;stroke-width:0.150000005960464px"/></g><g id="ARC-15" data-name="ARC"><path d="M35.956,71.708a1.224,1.224,0,0,0,.982-.938" style="fill:none;stroke:#231f20;stroke-linecap:round;stroke-linejoin:round;stroke-width:0.150000005960464px"/></g><g id="ARC-16" data-name="ARC"><path d="M36.938,72.645a1.222,1.222,0,0,0-.982-.937" style="fill:none;stroke:#231f20;stroke-linecap:round;stroke-linejoin:round;stroke-width:0.150000005960464px"/></g><g id="ARC-17" data-name="ARC"><path d="M12.369,95.77a59.552,59.552,0,0,0,0-23.125" style="fill:none;stroke:#231f20;stroke-linecap:round;stroke-linejoin:round;stroke-width:0.150000005960464px"/></g><g id="ARC-18" data-name="ARC"><path d="M12.369,97.645a1.222,1.222,0,0,0-.981-.937" style="fill:none;stroke:#231f20;stroke-linecap:round;stroke-linejoin:round;stroke-width:0.150000005960464px"/></g><g id="ARC-19" data-name="ARC"><path d="M11.388,121.708a1.224,1.224,0,0,0,.981-.938" style="fill:none;stroke:#231f20;stroke-linecap:round;stroke-linejoin:round;stroke-width:0.150000005960464px"/></g><g id="ARC-20" data-name="ARC"><path d="M11.388,96.708a1.224,1.224,0,0,0,.981-.938" style="fill:none;stroke:#231f20;stroke-linecap:round;stroke-linejoin:round;stroke-width:0.150000005960464px"/></g><g id="ARC-21" data-name="ARC"><path d="M12.369,47.645a1.222,1.222,0,0,0-.981-.937" style="fill:none;stroke:#231f20;stroke-linecap:round;stroke-linejoin:round;stroke-width:0.150000005960464px"/></g><g id="ARC-22" data-name="ARC"><path d="M36.938,97.645a1.222,1.222,0,0,0-.982-.937" style="fill:none;stroke:#231f20;stroke-linecap:round;stroke-linejoin:round;stroke-width:0.150000005960464px"/></g><g id="ARC-23" data-name="ARC"><path d="M35.956,96.708a1.224,1.224,0,0,0,.982-.938" style="fill:none;stroke:#231f20;stroke-linecap:round;stroke-linejoin:round;stroke-width:0.150000005960464px"/></g><g id="ARC-24" data-name="ARC"><path d="M35.956,121.708a1.224,1.224,0,0,0,.982-.938" style="fill:none;stroke:#231f20;stroke-linecap:round;stroke-linejoin:round;stroke-width:0.150000005960464px"/></g><g id="ARC-25" data-name="ARC"><path d="M36.938,47.645a1.222,1.222,0,0,0-.982-.937" style="fill:none;stroke:#231f20;stroke-linecap:round;stroke-linejoin:round;stroke-width:0.150000005960464px"/></g><g id="ARC-26" data-name="ARC"><path d="M11.388,71.708a1.224,1.224,0,0,0,.981-.938" style="fill:none;stroke:#231f20;stroke-linecap:round;stroke-linejoin:round;stroke-width:0.150000005960464px"/></g><g id="ARC-27" data-name="ARC"><path d="M12.369,72.645a1.222,1.222,0,0,0-.981-.937" style="fill:none;stroke:#231f20;stroke-linecap:round;stroke-linejoin:round;stroke-width:0.150000005960464px"/></g><g id="ARC-28" data-name="ARC"><path d="M35.956,71.708a1.224,1.224,0,0,0,.982-.938" style="fill:none;stroke:#231f20;stroke-linecap:round;stroke-linejoin:round;stroke-width:0.150000005960464px"/></g><g id="ARC-29" data-name="ARC"><path d="M36.938,72.645a1.222,1.222,0,0,0-.982-.937" style="fill:none;stroke:#231f20;stroke-linecap:round;stroke-linejoin:round;stroke-width:0.150000005960464px"/></g><path d="M17.884,115.981s5.273,6.856,7.934,5.565-7.24-10.459-7.24-10.459-3.9-3.984-4.644-1.994S17.884,115.981,17.884,115.981Z" style="fill:#fff;stroke:#231f20;stroke-miterlimit:10;stroke-width:0.150000005960464px"/><path d="M19.633,104.007s-4.369-7.077-6.289-5.763,3.557,9.44,3.557,9.44,3.833,7.575,5.707,5.537S19.633,104.007,19.633,104.007Z" style="fill:#fff;stroke:#231f20;stroke-miterlimit:10;stroke-width:0.150000005960464px"/><path d="M14.239,63.084s3.618-.745,5.2-8.339,1.116-7.677.31-8.009-4.2,2.243-5.221,9.2S12.983,62.769,14.239,63.084Z" style="fill:#fff;stroke:#231f20;stroke-miterlimit:10;stroke-width:0.150000005960464px"/><path d="M72.346,109.317s-10.071.6-9.728-9.827S66.989,70.4,76.505,64.5,97.618,81.082,97.618,81.082s7.6,11.3-4.8,19.835S72.346,109.317,72.346,109.317Z" style="fill:#fff;stroke:#231f20;stroke-miterlimit:10;stroke-width:0.150000005960464px"/><g id="LWPOLYLINE-43" data-name="LWPOLYLINE"><polyline points="30.962 12.388 30.962 13.325 6.938 13.325 6.938 12.388" style="fill:none;stroke:#231f20;stroke-linecap:round;stroke-linejoin:round;stroke-width:0.25px"/></g><g id="LWPOLYLINE-44" data-name="LWPOLYLINE"><polyline points="63.188 17.075 63.188 22.7 3.188 22.7 3.188 17.075" style="fill:none;stroke:#231f20;stroke-linecap:round;stroke-linejoin:round;stroke-width:0.4px"/></g><g id="LWPOLYLINE-45" data-name="LWPOLYLINE"><polyline points="156.938 17.075 156.938 22.7 96.938 22.7 96.938 17.075" style="fill:none;stroke:#231f20;stroke-linecap:round;stroke-linejoin:round;stroke-width:0.4px"/></g><g id="LWPOLYLINE-46" data-name="LWPOLYLINE"><polyline points="303.188 39.575 303.188 45.2 190.688 45.2 190.688 39.575" style="fill:none;stroke:#231f20;stroke-linecap:round;stroke-linejoin:round;stroke-width:0.4px"/></g><g id="LWPOLYLINE-47" data-name="LWPOLYLINE"><rect x="6.001" y="13.325" width="25.658" height="1.23" style="fill:none;stroke:#231f20;stroke-linecap:round;stroke-linejoin:round;stroke-width:0.25px"/></g><g id="LWPOLYLINE-48" data-name="LWPOLYLINE"><rect x="34.712" y="13.325" width="25.664" height="1.23" style="fill:none;stroke:#231f20;stroke-linecap:round;stroke-linejoin:round;stroke-width:0.25px"/></g><g id="LWPOLYLINE-49" data-name="LWPOLYLINE"><rect x="99.751" y="13.325" width="25.658" height="1.23" style="fill:none;stroke:#231f20;stroke-linecap:round;stroke-linejoin:round;stroke-width:0.25px"/></g><g id="LWPOLYLINE-50" data-name="LWPOLYLINE"><rect x="128.462" y="13.325" width="25.664" height="1.23" style="fill:none;stroke:#231f20;stroke-linecap:round;stroke-linejoin:round;stroke-width:0.25px"/></g><g id="LWPOLYLINE-51" data-name="LWPOLYLINE"><rect x="193.501" y="35.825" width="24.72" height="1.23" style="fill:none;stroke:#231f20;stroke-linecap:round;stroke-linejoin:round;stroke-width:0.25px"/></g><g id="LWPOLYLINE-52" data-name="LWPOLYLINE"><rect x="220.805" y="35.825" width="52.266" height="1.23" style="fill:none;stroke:#231f20;stroke-linecap:round;stroke-linejoin:round;stroke-width:0.25px"/></g><g id="LWPOLYLINE-53" data-name="LWPOLYLINE"><rect x="275.649" y="35.825" width="24.727" height="1.23" style="fill:none;stroke:#231f20;stroke-linecap:round;stroke-linejoin:round;stroke-width:0.25px"/></g><line x1="6.938" y1="17.075" x2="59.438" y2="17.075" style="fill:none;stroke:#231f20;stroke-linecap:round;stroke-linejoin:round;stroke-width:0.25px"/><line x1="100.688" y1="17.075" x2="153.188" y2="17.075" style="fill:none;stroke:#231f20;stroke-linecap:round;stroke-linejoin:round;stroke-width:0.25px"/><line x1="194.438" y1="39.575" x2="299.438" y2="39.575" style="fill:none;stroke:#231f20;stroke-linecap:round;stroke-linejoin:round;stroke-width:0.25px"/><g id="LWPOLYLINE-54" data-name="LWPOLYLINE"><polygon points="6.938 14.555 6.001 14.555 6.001 13.325 6.938 13.325 6.938 12.388 5.063 12.388 5.063 8.637 4.126 8.637 4.126 12.388 3.188 12.388 3.188 17.075 6.938 17.075 6.938 14.555" style="fill:none;stroke:#231f20;stroke-miterlimit:10;stroke-width:0.25px"/></g><g id="LWPOLYLINE-55" data-name="LWPOLYLINE"><polyline points="32.72 10.044 33.657 10.044 33.657 12.388 35.415 12.388 35.415 13.325 34.712 13.325 34.712 14.555 35.415 14.555 35.415 17.075 33.54 17.075 33.54 16.606 32.837 16.606 32.837 17.075 30.962 17.075 30.962 14.555 31.652 14.555 31.665 13.325 30.962 13.325 30.962 12.388 32.72 12.388 32.72 10.044" style="fill:none;stroke:#231f20;stroke-miterlimit:10;stroke-width:0.25px"/></g><g id="LWPOLYLINE-56" data-name="LWPOLYLINE"><polygon points="63.188 12.388 62.251 12.388 62.251 8.637 61.313 8.637 61.313 12.388 59.438 12.388 59.438 13.325 60.376 13.325 60.376 14.555 59.438 14.555 59.438 17.075 63.188 17.075 63.188 12.388" style="fill:none;stroke:#231f20;stroke-miterlimit:10;stroke-width:0.25px"/></g><g id="LWPOLYLINE-57" data-name="LWPOLYLINE"><polygon points="100.688 14.555 99.751 14.555 99.751 13.325 100.688 13.325 100.688 12.388 98.813 12.388 98.813 8.637 97.876 8.637 97.876 12.388 96.938 12.388 96.938 17.075 100.688 17.075 100.688 14.555" style="fill:none;stroke:#231f20;stroke-miterlimit:10;stroke-width:0.25px"/></g><g id="LWPOLYLINE-58" data-name="LWPOLYLINE"><polyline points="126.47 10.044 127.407 10.044 127.407 12.388 129.165 12.388 129.165 13.325 128.462 13.325 128.462 14.555 129.165 14.555 129.165 17.075 127.29 17.075 127.29 16.606 126.587 16.606 126.587 17.075 124.712 17.075 124.712 14.555 125.402 14.555 125.415 13.325 124.712 13.325 124.712 12.388 126.47 12.388 126.47 10.044" style="fill:none;stroke:#231f20;stroke-miterlimit:10;stroke-width:0.25px"/></g><g id="LWPOLYLINE-59" data-name="LWPOLYLINE"><polygon points="156.938 12.388 156.001 12.388 156.001 8.637 155.063 8.637 155.063 12.388 153.188 12.388 153.188 13.325 154.126 13.325 154.126 14.555 153.188 14.555 153.188 17.075 156.938 17.075 156.938 12.388" style="fill:none;stroke:#231f20;stroke-miterlimit:10;stroke-width:0.25px"/></g><g id="LWPOLYLINE-60" data-name="LWPOLYLINE"><polygon points="194.438 37.056 193.501 37.056 193.501 35.825 194.438 35.825 194.438 34.888 193.208 34.888 193.208 31.138 192.27 31.138 192.27 34.888 190.688 34.888 190.688 39.575 194.438 39.575 194.438 37.056" style="fill:none;stroke:#231f20;stroke-miterlimit:10;stroke-width:0.25px"/></g><g id="LWPOLYLINE-61" data-name="LWPOLYLINE"><polygon points="303.188 34.888 301.606 34.888 301.606 31.137 300.669 31.138 300.669 34.888 299.438 34.888 299.438 35.825 300.376 35.825 300.376 37.056 299.438 37.056 299.438 39.575 303.188 39.575 303.188 34.888" style="fill:none;stroke:#231f20;stroke-miterlimit:10;stroke-width:0.25px"/></g><g id="LWPOLYLINE-62" data-name="LWPOLYLINE"><polygon points="221.509 38.227 220.571 38.227 220.571 39.106 219.399 39.106 219.399 39.575 217.524 39.575 217.524 37.056 218.227 37.056 218.227 35.825 217.524 35.825 217.524 34.887 219.282 34.887 219.282 32.544 220.22 32.544 220.22 34.887 221.509 34.887 221.509 35.825 220.805 35.825 220.805 37.056 221.509 37.056 221.509 38.227" style="fill:none;stroke:#231f20;stroke-miterlimit:10;stroke-width:0.25px"/></g><g id="LWPOLYLINE-63" data-name="LWPOLYLINE"><polygon points="272.368 38.227 273.305 38.227 273.305 39.106 274.477 39.106 274.477 39.575 276.352 39.575 276.352 37.056 275.649 37.056 275.649 35.825 276.352 35.825 276.352 34.887 274.595 34.887 274.595 32.544 273.657 32.544 273.657 34.887 272.368 34.887 272.368 35.825 273.071 35.825 273.071 37.056 272.368 37.056 272.368 38.227" style="fill:none;stroke:#231f20;stroke-miterlimit:10;stroke-width:0.25px"/></g><g id="LWPOLYLINE-64" data-name="LWPOLYLINE"><polyline points="63.188 17.075 63.188 0.2 3.188 0.2 3.188 17.075" style="fill:none;stroke:#231f20;stroke-linecap:round;stroke-linejoin:round;stroke-width:0.4px"/></g><g id="LWPOLYLINE-65" data-name="LWPOLYLINE"><polyline points="156.938 17.075 156.938 0.2 96.938 0.2 96.938 17.075" style="fill:none;stroke:#231f20;stroke-linecap:round;stroke-linejoin:round;stroke-width:0.4px"/></g><g id="LWPOLYLINE-66" data-name="LWPOLYLINE"><polyline points="303.188 39.575 303.188 31.138 190.688 31.138 190.688 39.575" style="fill:none;stroke:#231f20;stroke-linecap:round;stroke-linejoin:round;stroke-width:0.4px"/></g><g id="LWPOLYLINE-67" data-name="LWPOLYLINE"><rect x="102.058" y="419.677" width="33.75" height="2.109" transform="translate(-262.668 207.328) rotate(-45)" style="fill:none;stroke:#231f20;stroke-linecap:round;stroke-linejoin:round;stroke-width:0.200000002980232px"/></g><g id="LWPOLYLINE-68" data-name="LWPOLYLINE"><rect x="236.025" y="241.516" width="33.75" height="1.641" transform="translate(-97.285 249.806) rotate(-45)" style="fill:#fff;stroke:#231f20;stroke-linecap:round;stroke-linejoin:round;stroke-width:0.200000002980232px"/></g><g id="LWPOLYLINE-69" data-name="LWPOLYLINE"><rect x="282.798" y="193.032" width="1.641" height="28.125" style="fill:none;stroke:#231f20;stroke-linecap:round;stroke-linejoin:round;stroke-width:0.200000002980232px"/></g><g id="LWPOLYLINE-70" data-name="LWPOLYLINE"><rect x="284.673" y="289.888" width="1.641" height="33.75" style="fill:none;stroke:#231f20;stroke-linecap:round;stroke-linejoin:round;stroke-width:0.200000002980232px"/></g><g id="LWPOLYLINE-71" data-name="LWPOLYLINE"><rect x="245.298" y="331.255" width="33.75" height="1.641" style="fill:none;stroke:#231f20;stroke-linecap:round;stroke-linejoin:round;stroke-width:0.200000002980232px"/></g><g id="LWPOLYLINE-72" data-name="LWPOLYLINE"><rect x="164.087" y="258.833" width="33.75" height="1.641" style="fill:none;stroke:#231f20;stroke-linecap:round;stroke-linejoin:round;stroke-width:0.200000002980232px"/></g><g id="LWPOLYLINE-73" data-name="LWPOLYLINE"><rect x="99.868" y="361.958" width="1.641" height="33.75" style="fill:none;stroke:#231f20;stroke-linecap:round;stroke-linejoin:round;stroke-width:0.200000002980232px"/></g><g id="LWPOLYLINE-74" data-name="LWPOLYLINE"><rect x="159.165" y="367.641" width="1.641" height="33.75" style="fill:none;stroke:#231f20;stroke-linecap:round;stroke-linejoin:round;stroke-width:0.200000002980232px"/></g><g id="LWPOLYLINE-75" data-name="LWPOLYLINE"><rect x="102.058" y="419.677" width="33.75" height="2.109" transform="translate(-262.668 207.328) rotate(-45)" style="fill:#fff;stroke:#231f20;stroke-linecap:round;stroke-linejoin:round;stroke-width:0.200000002980232px"/></g><g id="ARC-30" data-name="ARC"><path d="M140.005,431.919a34.268,34.268,0,0,0-8.394-22.374" style="fill:none;stroke:#231f20;stroke-linecap:round;stroke-linejoin:round;stroke-width:0.200000002980232px"/></g><g id="ARC-31" data-name="ARC"><path d="M265.412,230.984a33.746,33.746,0,0,0-23.864-9.886" style="fill:none;stroke:#231f20;stroke-linecap:round;stroke-linejoin:round;stroke-width:0.200000002980232px"/></g><g id="ARC-32" data-name="ARC"><path d="M140.005,431.919a34.268,34.268,0,0,0-8.394-22.374" style="fill:none;stroke:#231f20;stroke-linecap:round;stroke-linejoin:round;stroke-width:0.200000002980232px"/></g><g id="LWPOLYLINE-76" data-name="LWPOLYLINE"><rect x="308.227" y="332.895" width="34.986" height="69.719" style="fill:none;stroke:#231f20;stroke-linecap:round;stroke-linejoin:round;stroke-width:0.25px"/></g><g id="LWPOLYLINE-77" data-name="LWPOLYLINE"><path d="M337.29,341.216V392.9a4.688,4.688,0,0,1-4.688,4.688h-15a4.687,4.687,0,0,1-4.687-4.688V341.216a4.687,4.687,0,0,1,4.687-4.688h15a4.688,4.688,0,0,1,4.688,4.688" style="fill:none;stroke:#231f20;stroke-linecap:round;stroke-linejoin:round;stroke-width:0.25px"/></g><g id="ARC-33" data-name="ARC"><path d="M208.4,394.988a3.279,3.279,0,1,0-.788,0" style="fill:none;stroke:#231f20;stroke-linecap:round;stroke-linejoin:round;stroke-width:0.25px"/></g><g id="LWPOLYLINE-78" data-name="LWPOLYLINE"><path d="M207.616,391.745V402.27h.775V391.745a.388.388,0,1,0-.775,0Z" style="fill:none;stroke:#231f20;stroke-linecap:round;stroke-linejoin:round;stroke-width:0.25px"/></g><g id="LWPOLYLINE-79" data-name="LWPOLYLINE"><rect x="190.22" y="332.895" width="35.625" height="69.375" style="fill:none;stroke:#231f20;stroke-linecap:round;stroke-linejoin:round;stroke-width:0.25px"/></g><g id="LWPOLYLINE-80" data-name="LWPOLYLINE"><rect x="225.848" y="332.895" width="0.828" height="0.938" style="fill:none;stroke:#231f20;stroke-linecap:round;stroke-linejoin:round;stroke-width:0.25px"/></g><g id="LWPOLYLINE-81" data-name="LWPOLYLINE"><rect x="225.848" y="333.833" width="0.828" height="34.219" style="fill:none;stroke:#231f20;stroke-linecap:round;stroke-linejoin:round;stroke-width:0.25px"/></g><g id="LWPOLYLINE-82" data-name="LWPOLYLINE"><rect x="190.22" y="332.895" width="35.625" height="69.375" style="fill:none;stroke:#231f20;stroke-linecap:round;stroke-linejoin:round;stroke-width:0.25px"/></g><g id="ARC-34" data-name="ARC"><path d="M325.5,395.051a3.28,3.28,0,1,0-.789,0" style="fill:#fff;stroke:#231f20;stroke-linecap:round;stroke-linejoin:round;stroke-width:0.25px"/></g><g id="LWPOLYLINE-83" data-name="LWPOLYLINE"><path d="M324.715,391.808v10.525h.775V391.808a.388.388,0,1,0-.775,0Z" style="fill:#fff;stroke:#231f20;stroke-linecap:round;stroke-linejoin:round;stroke-width:0.25px"/></g><rect x="69.551" y="364.3" width="25.313" height="27.891" style="fill:#fff;stroke:#231f20;stroke-linecap:round;stroke-linejoin:round;stroke-width:0.25px"/><g id="LWPOLYLINE-84" data-name="LWPOLYLINE"><rect x="3.188" y="238.677" width="25.109" height="37.5" style="fill:#fff;stroke:#231f20;stroke-linecap:round;stroke-linejoin:round;stroke-width:0.25px"/></g><g id="LWPOLYLINE-85" data-name="LWPOLYLINE"><rect x="2.693" y="317.065" width="115.338" height="23.789" style="fill:#fff;stroke:#231f20;stroke-linecap:round;stroke-linejoin:round;stroke-width:0.25px"/></g><g id="LWPOLYLINE-86" data-name="LWPOLYLINE"><rect x="28.297" y="238.677" width="88.212" height="37.5" style="fill:#fff;stroke:#231f20;stroke-linecap:round;stroke-linejoin:round;stroke-width:0.25px"/></g><g id="LWPOLYLINE-87" data-name="LWPOLYLINE"><polyline points="61.373 259.031 61.373 272.679 86.964 272.679 86.964 259.031 61.373 259.031" style="fill:none;stroke:#231f20;stroke-linecap:round;stroke-linejoin:round;stroke-width:0.25px"/></g><rect x="73.918" y="256.623" width="3.117" height="1.309" transform="translate(150.953 514.555) rotate(180)" style="fill:#fff;stroke:#231f20;stroke-linecap:round;stroke-linejoin:round;stroke-width:0.25px"/><path d="M73.232,257.8a.912.912,0,0,0,.3.3v6.57a.473.473,0,1,0,.946,0V258.1a.906.906,0,1,0-1.246-.3Z" style="fill:#fff;stroke:#231f20;stroke-linecap:round;stroke-linejoin:round;stroke-width:0.25px"/><g id="LINE-10" data-name="LINE"><line x1="46.384" y1="328.197" x2="47.384" y2="328.197" style="fill:none;stroke:#231f20;stroke-linecap:round;stroke-linejoin:round;stroke-width:0.25px"/><line x1="49.374" y1="328.197" x2="116.036" y2="328.197" style="fill:none;stroke:#231f20;stroke-linecap:round;stroke-linejoin:round;stroke-width:0.25px;stroke-dasharray:1.9899108409881592,1.9899108409881592"/><line x1="117.03" y1="328.197" x2="118.03" y2="328.197" style="fill:none;stroke:#231f20;stroke-linecap:round;stroke-linejoin:round;stroke-width:0.25px"/></g><line x1="46.548" y1="317.055" x2="46.548" y2="341.531" style="fill:none;stroke:#231f20;stroke-linecap:round;stroke-linejoin:round;stroke-width:0.25px"/><line x1="18.54" y1="317.055" x2="18.54" y2="341.531" style="fill:none;stroke:#231f20;stroke-linecap:round;stroke-linejoin:round;stroke-width:0.25px"/><g id="LWPOLYLINE-88" data-name="LWPOLYLINE"><line x1="297.563" y1="227.309" x2="297.563" y2="186.88" style="fill:none;stroke:#231f20;stroke-linecap:round;stroke-linejoin:round;stroke-width:0.25px;stroke-dasharray:2,2"/></g><g id="LWPOLYLINE-89" data-name="LWPOLYLINE"><polyline points="286.313 261.997 331.665 261.997 331.665 329.38" style="fill:none;stroke:#231f20;stroke-linecap:round;stroke-linejoin:round;stroke-width:0.25px;stroke-dasharray:2,2"/></g><g id="LWPOLYLINE-90" data-name="LWPOLYLINE"><line x1="174.399" y1="406.372" x2="174.399" y2="362.192" style="fill:none;stroke:#231f20;stroke-linecap:round;stroke-linejoin:round;stroke-width:0.25px;stroke-dasharray:2,2"/></g><g id="LWPOLYLINE-91" data-name="LWPOLYLINE"><polyline points="52.821 276.177 52.821 252.739 28.297 252.739" style="fill:none;stroke:#231f20;stroke-linecap:round;stroke-linejoin:round;stroke-width:0.25px;stroke-dasharray:2,2"/></g><line x1="28.297" y1="247.031" x2="116.509" y2="247.031" style="fill:none;stroke:#231f20;stroke-linecap:round;stroke-linejoin:round;stroke-width:0.25px;stroke-dasharray:2,2"/><g id="LINE-11" data-name="LINE"><line x1="291.036" y1="223.694" x2="304.09" y2="223.694" style="fill:none;stroke:#231f20;stroke-miterlimit:10;stroke-width:0.25px"/></g><g id="LINE-12" data-name="LINE"><line x1="291.036" y1="221.274" x2="304.09" y2="221.274" style="fill:none;stroke:#231f20;stroke-miterlimit:10;stroke-width:0.25px"/></g><g id="LINE-13" data-name="LINE"><line x1="291.036" y1="218.855" x2="304.09" y2="218.854" style="fill:none;stroke:#231f20;stroke-miterlimit:10;stroke-width:0.25px"/></g><g id="LINE-14" data-name="LINE"><line x1="291.036" y1="216.436" x2="304.09" y2="216.435" style="fill:none;stroke:#231f20;stroke-miterlimit:10;stroke-width:0.25px"/></g><g id="LINE-15" data-name="LINE"><line x1="291.036" y1="214.017" x2="304.09" y2="214.016" style="fill:none;stroke:#231f20;stroke-miterlimit:10;stroke-width:0.25px"/></g><g id="LINE-16" data-name="LINE"><line x1="304.09" y1="211.597" x2="291.036" y2="211.597" style="fill:none;stroke:#231f20;stroke-miterlimit:10;stroke-width:0.25px"/></g><g id="LINE-17" data-name="LINE"><line x1="325.138" y1="325.434" x2="338.192" y2="325.434" style="fill:none;stroke:#231f20;stroke-miterlimit:10;stroke-width:0.25px"/></g><g id="LINE-18" data-name="LINE"><line x1="325.137" y1="323.014" x2="338.192" y2="323.014" style="fill:none;stroke:#231f20;stroke-miterlimit:10;stroke-width:0.25px"/></g><g id="LINE-19" data-name="LINE"><line x1="325.137" y1="320.595" x2="338.192" y2="320.594" style="fill:none;stroke:#231f20;stroke-miterlimit:10;stroke-width:0.25px"/></g><g id="LINE-20" data-name="LINE"><line x1="325.137" y1="318.176" x2="338.192" y2="318.175" style="fill:none;stroke:#231f20;stroke-miterlimit:10;stroke-width:0.25px"/></g><g id="LINE-21" data-name="LINE"><line x1="325.137" y1="315.756" x2="338.192" y2="315.756" style="fill:none;stroke:#231f20;stroke-miterlimit:10;stroke-width:0.25px"/></g><g id="LINE-22" data-name="LINE"><line x1="338.192" y1="313.337" x2="325.137" y2="313.337" style="fill:none;stroke:#231f20;stroke-miterlimit:10;stroke-width:0.25px"/></g><g id="LINE-23" data-name="LINE"><line x1="290.259" y1="255.47" x2="290.259" y2="268.524" style="fill:none;stroke:#231f20;stroke-miterlimit:10;stroke-width:0.25px"/></g><g id="LINE-24" data-name="LINE"><line x1="292.679" y1="255.47" x2="292.679" y2="268.524" style="fill:none;stroke:#231f20;stroke-miterlimit:10;stroke-width:0.25px"/></g><g id="LINE-25" data-name="LINE"><line x1="295.098" y1="255.469" x2="295.099" y2="268.524" style="fill:none;stroke:#231f20;stroke-miterlimit:10;stroke-width:0.25px"/></g><g id="LINE-26" data-name="LINE"><line x1="297.517" y1="255.47" x2="297.518" y2="268.524" style="fill:none;stroke:#231f20;stroke-miterlimit:10;stroke-width:0.25px"/></g><g id="LINE-27" data-name="LINE"><line x1="299.937" y1="255.469" x2="299.937" y2="268.524" style="fill:none;stroke:#231f20;stroke-miterlimit:10;stroke-width:0.25px"/></g><g id="LINE-28" data-name="LINE"><line x1="302.356" y1="268.524" x2="302.356" y2="255.469" style="fill:none;stroke:#231f20;stroke-miterlimit:10;stroke-width:0.25px"/></g><g id="LINE-29" data-name="LINE"><line x1="180.926" y1="402.426" x2="167.872" y2="402.426" style="fill:none;stroke:#231f20;stroke-miterlimit:10;stroke-width:0.25px"/></g><g id="LINE-30" data-name="LINE"><line x1="180.927" y1="400.006" x2="167.872" y2="400.006" style="fill:none;stroke:#231f20;stroke-miterlimit:10;stroke-width:0.25px"/></g><g id="LINE-31" data-name="LINE"><line x1="180.927" y1="397.587" x2="167.872" y2="397.586" style="fill:none;stroke:#231f20;stroke-miterlimit:10;stroke-width:0.25px"/></g><g id="LINE-32" data-name="LINE"><line x1="180.927" y1="395.168" x2="167.872" y2="395.167" style="fill:none;stroke:#231f20;stroke-miterlimit:10;stroke-width:0.25px"/></g><g id="LINE-33" data-name="LINE"><line x1="180.927" y1="392.749" x2="167.872" y2="392.748" style="fill:none;stroke:#231f20;stroke-miterlimit:10;stroke-width:0.25px"/></g><g id="LINE-34" data-name="LINE"><line x1="167.872" y1="390.329" x2="180.927" y2="390.329" style="fill:none;stroke:#231f20;stroke-miterlimit:10;stroke-width:0.25px"/></g><g id="LWPOLYLINE-92" data-name="LWPOLYLINE"><rect x="264.663" y="382.531" width="25.879" height="19.872" style="fill:#fff;stroke:#231f20;stroke-linecap:round;stroke-linejoin:round;stroke-width:0.25px"/></g><g id="LWPOLYLINE-93" data-name="LWPOLYLINE"><path d="M269.746,386.413a1.109,1.109,0,0,1,1.109-1.109h13.5a1.109,1.109,0,0,1,1.109,1.109V396.4a.925.925,0,0,1-.925.924H270.671a.925.925,0,0,1-.925-.924Z" style="fill:#fff;stroke:#231f20;stroke-linecap:round;stroke-linejoin:round;stroke-width:0.25px"/></g><g id="ARC-35" data-name="ARC"><path d="M254.645,385.839c.35,3.169,1.008,11.54,1.008,11.54" style="fill:#fff;stroke:#231f20;stroke-linecap:round;stroke-linejoin:round;stroke-width:0.25px"/></g><g id="ARC-36" data-name="ARC"><path d="M243.369,393.186a.845.845,0,0,1-.771-.52q-.216-.522-.4-1.057a14.748,14.748,0,0,1-.643-2.935q-.092-.795-.132-1.594a15.62,15.62,0,0,1,.343-4.164,10.121,10.121,0,0,1,3.071-5.313,4.8,4.8,0,0,1,6.536.064,10.127,10.127,0,0,1,2.968,5.371,15.6,15.6,0,0,1,.262,4.17q-.057.8-.163,1.59a14.746,14.746,0,0,1-.7,2.923q-.191.531-.417,1.049a.843.843,0,0,1-.781.5Z" style="fill:#fff;stroke:#231f20;stroke-linecap:round;stroke-linejoin:round;stroke-width:0.25px"/></g><g id="ARC-37" data-name="ARC"><path d="M241.416,385.711c-.412,3.161-1.017,11.668-1.017,11.668" style="fill:#fff;stroke:#231f20;stroke-linecap:round;stroke-linejoin:round;stroke-width:0.25px"/></g><g id="ARC-38" data-name="ARC"><path d="M255.646,397.233a1.1,1.1,0,0,0-.967-1.04,56.076,56.076,0,0,0-13.305,0,1.1,1.1,0,0,0-.968,1.04v-.023q-.081,1.713-.124,3.426a1.469,1.469,0,0,0,1.341,1.492q3.194.277,6.4.274t6.4-.274a1.467,1.467,0,0,0,1.341-1.492q-.042-1.713-.124-3.426Z" style="fill:#fff;stroke:#231f20;stroke-linecap:round;stroke-linejoin:round;stroke-width:0.25px"/></g><g id="ARC-39" data-name="ARC"><path d="M278.069,398.7a1.165,1.165,0,1,1-.932,0Z" style="fill:#fff;stroke:#231f20;stroke-linecap:round;stroke-linejoin:round;stroke-width:0.25px"/></g><g id="ARC-40" data-name="ARC"><path d="M283.4,400a1.166,1.166,0,1,1,0-.466Z" style="fill:#fff;stroke:#231f20;stroke-linecap:round;stroke-linejoin:round;stroke-width:0.25px"/></g><g id="ARC-41" data-name="ARC"><path d="M271.8,400a1.166,1.166,0,1,0,0-.466Z" style="fill:#fff;stroke:#231f20;stroke-linecap:round;stroke-linejoin:round;stroke-width:0.25px"/></g><g id="LINE-35" data-name="LINE"><path d="M278.069,394.173v5.593a.466.466,0,0,1-.932,0v-5.593a.466.466,0,0,1,.932,0Z" style="fill:#fff;stroke:#231f20;stroke-linecap:round;stroke-linejoin:round;stroke-width:0.25px"/></g><line x1="282.251" y1="399.766" x2="285.525" y2="399.766" style="fill:#fff;stroke:#231f20;stroke-linecap:round;stroke-linejoin:round;stroke-width:0.25px"/><line x1="269.68" y1="399.766" x2="272.954" y2="399.766" style="fill:#fff;stroke:#231f20;stroke-linecap:round;stroke-linejoin:round;stroke-width:0.25px"/><g id="LWPOLYLINE-94" data-name="LWPOLYLINE"><rect x="209.965" y="271.875" width="19.872" height="25.879" style="fill:#fff;stroke:#231f20;stroke-linecap:round;stroke-linejoin:round;stroke-width:0.25px"/></g><g id="LWPOLYLINE-95" data-name="LWPOLYLINE"><path d="M213.847,292.671a1.108,1.108,0,0,1-1.109-1.109V278.068a1.108,1.108,0,0,1,1.109-1.109h9.982a.924.924,0,0,1,.924.924v13.864a.924.924,0,0,1-.924.924Z" style="fill:#fff;stroke:#231f20;stroke-linecap:round;stroke-linejoin:round;stroke-width:0.25px"/></g><g id="ARC-42" data-name="ARC"><path d="M213.273,307.773c3.169-.35,11.54-1.009,11.54-1.009" style="fill:#fff;stroke:#231f20;stroke-linecap:round;stroke-linejoin:round;stroke-width:0.25px"/></g><g id="ARC-43" data-name="ARC"><path d="M220.62,319.048a.845.845,0,0,1-.52.771q-.52.217-1.057.4a14.8,14.8,0,0,1-2.935.643q-.8.09-1.594.132a15.651,15.651,0,0,1-4.163-.343,10.137,10.137,0,0,1-5.314-3.071,4.8,4.8,0,0,1,.064-6.537,10.127,10.127,0,0,1,5.371-2.968,15.642,15.642,0,0,1,4.17-.262q.8.057,1.591.163a14.756,14.756,0,0,1,2.922.7c.354.126.7.266,1.049.417a.842.842,0,0,1,.5.78Z" style="fill:#fff;stroke:#231f20;stroke-linecap:round;stroke-linejoin:round;stroke-width:0.25px"/></g><g id="ARC-44" data-name="ARC"><path d="M213.145,321c3.162.411,11.668,1.016,11.668,1.016" style="fill:#fff;stroke:#231f20;stroke-linecap:round;stroke-linejoin:round;stroke-width:0.25px"/></g><g id="ARC-45" data-name="ARC"><path d="M224.667,306.771a1.1,1.1,0,0,0-1.04.968,56.068,56.068,0,0,0,0,13.3,1.1,1.1,0,0,0,1.04.968h-.023q1.713.082,3.426.124a1.467,1.467,0,0,0,1.492-1.341q.278-3.194.274-6.4t-.274-6.4a1.467,1.467,0,0,0-1.492-1.341q-1.713.042-3.426.124Z" style="fill:#fff;stroke:#231f20;stroke-linecap:round;stroke-linejoin:round;stroke-width:0.25px"/></g><g id="ARC-46" data-name="ARC"><path d="M226.132,284.349a1.165,1.165,0,1,1,0,.932Z" style="fill:#fff;stroke:#231f20;stroke-linecap:round;stroke-linejoin:round;stroke-width:0.25px"/></g><g id="ARC-47" data-name="ARC"><path d="M227.433,279.013a1.165,1.165,0,1,1-.466,0Z" style="fill:#fff;stroke:#231f20;stroke-linecap:round;stroke-linejoin:round;stroke-width:0.25px"/></g><g id="ARC-48" data-name="ARC"><path d="M227.433,290.617a1.165,1.165,0,1,0-.466,0Z" style="fill:#fff;stroke:#231f20;stroke-linecap:round;stroke-linejoin:round;stroke-width:0.25px"/></g><g id="LINE-36" data-name="LINE"><path d="M221.607,284.349H227.2a.466.466,0,0,1,0,.932h-5.593a.466.466,0,0,1,0-.932Z" style="fill:#fff;stroke:#231f20;stroke-linecap:round;stroke-linejoin:round;stroke-width:0.25px"/></g><line x1="227.2" y1="280.166" x2="227.2" y2="276.892" style="fill:#fff;stroke:#231f20;stroke-linecap:round;stroke-linejoin:round;stroke-width:0.25px"/><line x1="227.2" y1="292.738" x2="227.2" y2="289.464" style="fill:#fff;stroke:#231f20;stroke-linecap:round;stroke-linejoin:round;stroke-width:0.25px"/><g id="LWPOLYLINE-96" data-name="LWPOLYLINE"><polygon points="101.448 441.41 101.509 441.41 101.509 440.473 103.325 440.473 103.325 437.661 106.255 437.661 106.255 431.919 101.509 431.919 101.509 395.708 97.993 395.708 97.993 399.458 64.243 399.458 64.243 353.169 97.993 353.169 97.993 361.958 101.509 361.958 101.509 344.38 119.438 344.38 119.438 340.864 3.188 340.864 3.188 0.2 0.2 0.2 0.2 262.114 0.2 279.985 0.2 343.735 57.095 343.735 57.095 401.216 98.637 401.216 98.637 441.41 101.227 441.41 101.448 441.41" style="fill:#dee2e1;stroke:#231f20;stroke-miterlimit:10;stroke-width:0.4px"/></g><g id="LWPOLYLINE-97" data-name="LWPOLYLINE"><polygon points="235.805 221.098 241.548 221.098 241.548 186.88 245.298 186.88 245.298 183.364 162.563 183.364 162.563 67.817 190.688 67.817 190.688 0.2 186.938 0.2 185.688 2.403 184.073 4.354 182.14 5.992 179.952 7.266 177.574 8.139 175.08 8.582 172.547 8.582 170.053 8.139 167.675 7.266 165.486 5.992 163.554 4.354 161.938 2.403 160.688 0.2 156.821 0.2 156.821 217.348 235.805 217.348 235.805 221.098" style="fill:#dee2e1;stroke:#231f20;stroke-miterlimit:10;stroke-width:0.4px"/></g><g id="LWPOLYLINE-98" data-name="LWPOLYLINE"><polygon points="66.274 22.7 96.938 22.7 96.938 0.2 93.188 0.2 91.938 2.403 90.323 4.354 88.39 5.992 86.202 7.266 83.824 8.139 81.33 8.582 78.797 8.582 76.303 8.139 73.925 7.266 71.736 5.992 69.804 4.354 68.188 2.403 66.938 0.2 63.188 0.2 63.188 22.7 66.274 22.7" style="fill:#dee2e1;stroke:#231f20;stroke-miterlimit:10;stroke-width:0.4px"/></g><g id="LWPOLYLINE-99" data-name="LWPOLYLINE"><polygon points="162.563 441.393 162.563 410.825 345.786 410.825 345.786 247.876 311.684 247.876 311.684 28.448 309.765 26.807 308.188 24.903 306.938 22.7 303.188 22.7 303.188 57.622 308.813 57.622 308.813 183.364 279.048 183.364 279.048 186.88 282.798 186.88 282.798 193.032 286.313 193.032 286.313 186.88 308.813 186.88 308.813 227.309 286.313 227.309 286.313 221.157 282.798 221.157 282.798 289.888 286.313 289.888 286.313 250.747 342.915 250.747 342.915 329.38 286.313 329.38 286.313 323.638 282.798 323.638 282.798 329.38 279.048 329.38 279.048 332.895 342.915 332.895 342.915 402.27 229.36 402.27 229.36 368.052 225.845 368.052 225.845 402.27 190.22 402.27 190.22 332.895 245.298 332.895 245.298 329.38 241.548 329.38 241.548 254.848 235.805 254.848 235.805 258.833 197.837 258.833 197.837 265.63 229.712 265.63 229.712 329.38 160.337 329.38 160.337 265.63 164.087 265.63 164.087 258.833 156.821 258.833 156.821 340.864 153.188 340.864 153.188 344.38 159.165 344.38 159.165 367.641 162.68 367.641 162.68 362.192 185.649 362.192 185.649 406.372 162.68 406.372 162.68 401.391 159.165 401.391 159.165 431.919 140.005 431.919 140.005 437.661 153.95 437.661 153.95 440.473 160.454 440.473 160.454 441.393 160.719 441.393 162.563 441.393" style="fill:#dee2e1;stroke:#231f20;stroke-miterlimit:10;stroke-width:0.4px"/></g><path d="M222.772,50.563h.88l1.814,4.445h.016l1.816-4.445h.879v5.6h-.664V51.618H227.5l-1.887,4.542h-.28l-1.887-4.542h-.017V56.16h-.655Z" style="fill:#231f20"/><path d="M233.115,55.032H230.6l-.392,1.128h-.68l2.016-5.6h.638l2.008,5.6h-.68Zm-.2-.575-1.047-2.991h-.017L230.8,54.457Z" style="fill:#231f20"/><path d="M235.074,54.305l.656-.112a1.464,1.464,0,0,0,1.654,1.463c.777,0,1.288-.36,1.288-.9,0-.567-.376-.879-1.544-1.247-1.334-.44-1.782-.831-1.782-1.583,0-.872.736-1.479,1.791-1.479a1.954,1.954,0,0,1,2.031,1.631l-.647.136a1.343,1.343,0,0,0-1.393-1.144c-.678,0-1.126.336-1.126.856,0,.432.32.663,1.343.983,1.455.472,1.983.96,1.983,1.84,0,.911-.791,1.535-1.951,1.535A2.054,2.054,0,0,1,235.074,54.305Z" style="fill:#231f20"/><path d="M242.113,51.187h-1.742v-.624h4.149v.624h-1.743V56.16h-.664Z" style="fill:#231f20"/><path d="M245.992,50.563h3.358v.624h-2.7v1.791h2.479v.591h-2.479v1.967h2.7v.624h-3.358Z" style="fill:#231f20"/><path d="M253.446,53.857l1.231,2.3H253.9l-1.184-2.271H251.6V56.16h-.656v-5.6h2.039c1.168,0,1.863.624,1.863,1.655a1.544,1.544,0,0,1-1.4,1.623Zm-.521-.592c.825,0,1.256-.36,1.256-1.047s-.424-1.031-1.256-1.031H251.6v2.078Z" style="fill:#231f20"/><path d="M220.257,59.063h2.151a1.458,1.458,0,0,1,1.632,1.447,1.194,1.194,0,0,1-.656,1.151v.016A1.341,1.341,0,0,1,224.248,63c0,1.08-.68,1.656-1.967,1.656h-2.024Zm2.032,2.375c.727,0,1.088-.3,1.088-.9,0-.56-.37-.855-1.088-.855h-1.375v1.751Zm-.1,2.6c.975,0,1.391-.312,1.391-1.032,0-.7-.392-.983-1.375-.983h-1.3v2.015Z" style="fill:#231f20"/><path d="M225.881,59.063h3.359v.624h-2.7v1.791h2.478v.591h-2.478v1.967h2.7v.624h-3.359Z" style="fill:#231f20"/><path d="M230.833,59.063h1.743c1.415,0,2.414,1.023,2.414,2.79,0,1.975-1,2.807-2.462,2.807h-1.695Zm1.655,4.973c1.135,0,1.839-.6,1.839-2.183,0-1.431-.7-2.166-1.791-2.166h-1.048v4.349Z" style="fill:#231f20"/><path d="M239.123,62.357l1.231,2.3h-.775L238.4,62.389h-1.12V64.66h-.655v-5.6h2.039c1.167,0,1.862.624,1.862,1.655a1.545,1.545,0,0,1-1.4,1.623Zm-.52-.592c.824,0,1.256-.36,1.256-1.047s-.424-1.031-1.256-1.031h-1.327v2.078Z" style="fill:#231f20"/><path d="M241.786,61.861c0-1.751.943-2.918,2.358-2.918s2.359,1.167,2.359,2.918-.943,2.919-2.359,2.919S241.786,63.612,241.786,61.861Zm4.053,0c0-1.415-.647-2.295-1.695-2.295s-1.695.88-1.695,2.295.648,2.3,1.695,2.3S245.839,63.276,245.839,61.861Z" style="fill:#231f20"/><path d="M247.846,61.861c0-1.751.944-2.918,2.359-2.918s2.359,1.167,2.359,2.918-.943,2.919-2.359,2.919S247.846,63.612,247.846,61.861Zm4.054,0c0-1.415-.648-2.295-1.695-2.295s-1.7.88-1.7,2.295.649,2.3,1.7,2.3S251.9,63.276,251.9,61.861Z" style="fill:#231f20"/><path d="M254.194,59.063h.88l1.814,4.445h.016l1.816-4.445h.879v5.6h-.664V60.118h-.016l-1.886,4.542h-.281l-1.886-4.542h-.017V64.66h-.655Z" style="fill:#231f20"/><path d="M214.046,68.315l-1.248.807v-.7l1.329-.863h.584v5.6h-.665Z" style="fill:#231f20"/><path d="M216.3,71.3l.657-.1c.111.983.583,1.463,1.406,1.463a1.072,1.072,0,0,0,1.2-1.079c0-.76-.432-1.12-1.318-1.12h-.4v-.576h.4c.664,0,1.175-.4,1.175-.9,0-.576-.4-.928-1.064-.928a1.186,1.186,0,0,0-1.264,1.056l-.646-.1a1.8,1.8,0,0,1,1.91-1.567,1.541,1.541,0,0,1,1.728,1.487,1.351,1.351,0,0,1-.76,1.176v.015a1.489,1.489,0,0,1,.895,1.456,1.69,1.69,0,0,1-1.855,1.7A1.974,1.974,0,0,1,216.3,71.3Z" style="fill:#231f20"/><path d="M221.877,67.563h.584v1.783h-.584Z" style="fill:#231f20"/><path d="M223.6,69.969h2.087v.6H223.6Z" style="fill:#231f20"/><path d="M227.128,70.361c0-1.815.905-2.918,2.215-2.918s2.215,1.1,2.215,2.918-.9,2.919-2.215,2.919C228.048,73.28,227.128,72.176,227.128,70.361Zm3.766,0c0-1.463-.615-2.3-1.551-2.3s-1.55.832-1.55,2.3.615,2.3,1.55,2.3S230.894,71.824,230.894,70.361Z" style="fill:#231f20"/><path d="M233.081,67.563h.583v1.783h-.583Zm1.055,0h.584v1.783h-.584Z" style="fill:#231f20"/><path d="M238.418,71.721l1.31-1.3-1.31-1.3.39-.392,1.288,1.311,1.295-1.311.392.392-1.311,1.3,1.311,1.3-.392.391L240.1,70.8l-1.288,1.311Z" style="fill:#231f20"/><path d="M245.961,68.315l-1.249.807v-.7l1.329-.863h.584v5.6h-.664Z" style="fill:#231f20"/><path d="M249.086,72.536H252.1v.624h-3.718v-.528a2.022,2.022,0,0,1,.233-1.064c.2-.367.543-.639,1.422-1.095,1.16-.6,1.5-.935,1.5-1.5,0-.536-.489-.912-1.168-.912a1.3,1.3,0,0,0-1.4,1.36l-.664-.056a1.928,1.928,0,0,1,2.063-1.927,1.681,1.681,0,0,1,1.832,1.535c0,.824-.416,1.311-1.649,1.935-.935.472-1.191.655-1.334.936A1.537,1.537,0,0,0,249.086,72.536Z" style="fill:#231f20"/><path d="M253.923,67.563h.584v1.783h-.584Z" style="fill:#231f20"/><path d="M255.92,69.969h2.087v.6H255.92Z" style="fill:#231f20"/><path d="M263.38,70.025c0,2.271-.607,3.255-2.039,3.255a1.776,1.776,0,0,1-1.8-1.424l.607-.16a1.177,1.177,0,0,0,1.191.976c.888,0,1.3-.567,1.36-2.047h-.008a1.708,1.708,0,0,1-1.44.632,1.794,1.794,0,0,1-1.951-1.919,1.877,1.877,0,0,1,1.984-1.895C262.548,67.443,263.38,68.306,263.38,70.025Zm-.767-.647a1.251,1.251,0,0,0-1.327-1.328,1.312,1.312,0,1,0,1.327,1.328Z" style="fill:#231f20"/><path d="M264.964,67.563h.584v1.783h-.584Zm1.056,0h.583v1.783h-.583Z" style="fill:#231f20"/><path d="M41.759,127.16h.657v4.973h2.527v.624H41.759Z" style="fill:#231f20"/><path d="M46.414,127.16h.656v5.6h-.656Z" style="fill:#231f20"/><path d="M48.4,127.16H49.1l1.664,4.717h.016l1.672-4.717h.687l-2.015,5.6h-.7Z" style="fill:#231f20"/><path d="M54.486,127.16h.655v5.6h-.655Z" style="fill:#231f20"/><path d="M57.052,127.16h.776l2.543,4.566h.015V127.16h.664v5.6h-.783l-2.543-4.566h-.015v4.566h-.657Z" style="fill:#231f20"/><path d="M62.681,129.959c0-1.776.927-2.919,2.358-2.919a2.076,2.076,0,0,1,2.127,1.847l-.655.12a1.429,1.429,0,0,0-1.472-1.343c-1.047,0-1.7.879-1.7,2.3s.648,2.294,1.7,2.294a1.427,1.427,0,0,0,1.5-1.639H65.111v-.624h2.071v.568a2.087,2.087,0,0,1-2.143,2.319C63.608,132.877,62.681,131.733,62.681,129.959Z" style="fill:#231f20"/><path d="M70.793,132.877l2.855-6.037.447.2-2.862,6.021Z" style="fill:#231f20"/><path d="M78.033,127.16h1.742c1.416,0,2.415,1.023,2.415,2.79,0,1.975-1,2.807-2.462,2.807H78.033Zm1.654,4.973c1.136,0,1.84-.6,1.84-2.183,0-1.431-.7-2.166-1.791-2.166H78.688v4.349Z" style="fill:#231f20"/><path d="M83.83,127.16h.656v5.6H83.83Z" style="fill:#231f20"/><path d="M86.4,127.16h.776l2.542,4.566h.017V127.16H90.4v5.6h-.784l-2.542-4.566h-.017v4.566H86.4Z" style="fill:#231f20"/><path d="M92.32,127.16h.655v5.6H92.32Z" style="fill:#231f20"/><path d="M94.886,127.16h.776l2.543,4.566h.015V127.16h.664v5.6H98.1l-2.543-4.566h-.015v4.566h-.657Z" style="fill:#231f20"/><path d="M100.515,129.959c0-1.776.927-2.919,2.358-2.919A2.076,2.076,0,0,1,105,128.887l-.655.12a1.429,1.429,0,0,0-1.472-1.343c-1.047,0-1.7.879-1.7,2.3s.648,2.294,1.7,2.294a1.427,1.427,0,0,0,1.5-1.639h-1.424v-.624h2.071v.568a2.087,2.087,0,0,1-2.143,2.319C101.442,132.877,100.515,131.733,100.515,129.959Z" style="fill:#231f20"/><path d="M111.689,130.454l1.231,2.3h-.775l-1.183-2.271h-1.12v2.271h-.655v-5.6h2.039c1.167,0,1.862.624,1.862,1.655a1.544,1.544,0,0,1-1.4,1.623Zm-.52-.592c.825,0,1.256-.36,1.256-1.047s-.423-1.031-1.256-1.031h-1.327v2.078Z" style="fill:#231f20"/><path d="M114.351,129.959c0-1.751.943-2.919,2.36-2.919s2.358,1.168,2.358,2.919-.943,2.918-2.358,2.918S114.351,131.71,114.351,129.959Zm4.055,0c0-1.416-.649-2.3-1.7-2.3s-1.7.879-1.7,2.3.648,2.294,1.7,2.294S118.406,131.374,118.406,129.959Z" style="fill:#231f20"/><path d="M120.412,129.959c0-1.751.943-2.919,2.359-2.919s2.358,1.168,2.358,2.919-.943,2.918-2.358,2.918S120.412,131.71,120.412,129.959Zm4.054,0c0-1.416-.648-2.3-1.695-2.3s-1.7.879-1.7,2.3.647,2.294,1.7,2.294S124.466,131.374,124.466,129.959Z" style="fill:#231f20"/><path d="M126.759,127.16h.881l1.815,4.446h.015l1.815-4.446h.881v5.6H131.5v-4.542h-.016l-1.888,4.542h-.28l-1.887-4.542h-.015v4.542h-.657Z" style="fill:#231f20"/><path d="M61.564,136.412l-1.248.807v-.7l1.327-.863h.584v5.6h-.663Z" style="fill:#231f20"/><path d="M63.818,139.394l.655-.1c.113.983.583,1.463,1.407,1.463a1.072,1.072,0,0,0,1.2-1.079c0-.76-.432-1.12-1.32-1.12h-.4v-.575h.4c.663,0,1.175-.4,1.175-.9,0-.575-.4-.927-1.062-.927a1.184,1.184,0,0,0-1.264,1.055l-.648-.1a1.8,1.8,0,0,1,1.912-1.567,1.539,1.539,0,0,1,1.726,1.487,1.35,1.35,0,0,1-.76,1.176v.015a1.49,1.49,0,0,1,.9,1.456,1.69,1.69,0,0,1-1.856,1.7A1.973,1.973,0,0,1,63.818,139.394Z" style="fill:#231f20"/><path d="M69.393,135.66h.583v1.783h-.583Z" style="fill:#231f20"/><path d="M71.113,138.066H73.2v.6H71.113Z" style="fill:#231f20"/><path d="M74.355,139.7a1.569,1.569,0,0,1,1.047-1.5v-.015a1.246,1.246,0,0,1-.734-1.168,1.787,1.787,0,0,1,3.517,0,1.262,1.262,0,0,1-.736,1.168v.015a1.571,1.571,0,0,1,1.04,1.5c0,1.007-.816,1.679-2.064,1.679S74.355,140.705,74.355,139.7Zm3.454-.04c0-.672-.536-1.1-1.384-1.1s-1.39.432-1.39,1.1.535,1.079,1.39,1.079S77.809,140.321,77.809,139.658Zm-.28-2.607c0-.544-.447-.911-1.1-.911s-1.1.367-1.1.911.439.88,1.1.88S77.529,137.587,77.529,137.051Z" style="fill:#231f20"/><path d="M79.921,135.66h.584v1.783h-.584Zm1.055,0h.584v1.783h-.584Z" style="fill:#231f20"/><path d="M85.257,139.818l1.311-1.3-1.311-1.3.392-.392,1.288,1.312,1.3-1.312.392.392-1.312,1.3,1.312,1.3-.392.392-1.3-1.312-1.288,1.312Z" style="fill:#231f20"/><path d="M92.8,136.412l-1.247.807v-.7l1.327-.863h.584v5.6H92.8Z" style="fill:#231f20"/><path d="M99.13,138.123c0,2.27-.607,3.254-2.038,3.254a1.776,1.776,0,0,1-1.8-1.423l.608-.16a1.176,1.176,0,0,0,1.191.975c.888,0,1.3-.567,1.359-2.047h-.008a1.708,1.708,0,0,1-1.439.632,1.794,1.794,0,0,1-1.951-1.919,1.877,1.877,0,0,1,1.984-1.9C98.3,135.54,99.13,136.4,99.13,138.123Zm-.767-.648a1.25,1.25,0,0,0-1.326-1.327,1.311,1.311,0,1,0,1.326,1.327Z" style="fill:#231f20"/><path d="M100.711,135.66h.583v1.783h-.583Z" style="fill:#231f20"/><path d="M102.709,138.066h2.085v.6h-2.085Z" style="fill:#231f20"/><path d="M105.95,139.7a1.566,1.566,0,0,1,1.048-1.5v-.015a1.247,1.247,0,0,1-.737-1.168,1.788,1.788,0,0,1,3.519,0,1.26,1.26,0,0,1-.736,1.168v.015a1.571,1.571,0,0,1,1.04,1.5c0,1.007-.816,1.679-2.063,1.679S105.95,140.705,105.95,139.7Zm3.454-.04c0-.672-.535-1.1-1.383-1.1s-1.392.432-1.392,1.1.537,1.079,1.392,1.079S109.4,140.321,109.4,139.658Zm-.279-2.607c0-.544-.449-.911-1.1-.911s-1.1.367-1.1.911.439.88,1.1.88S109.125,137.587,109.125,137.051Z" style="fill:#231f20"/><path d="M111.515,135.66h.584v1.783h-.584Zm1.057,0h.583v1.783h-.583Z" style="fill:#231f20"/><path d="M116.919,374.488h3.366v.624h-2.71v2h2.487v.591h-2.487v2.383h-.656Z" style="fill:#231f20"/><path d="M121.839,377.287c0-1.751.944-2.919,2.36-2.919s2.358,1.168,2.358,2.919-.943,2.918-2.358,2.918S121.839,379.038,121.839,377.287Zm4.055,0c0-1.416-.648-2.295-1.7-2.295s-1.7.879-1.7,2.295.648,2.294,1.7,2.294S125.894,378.7,125.894,377.287Z" style="fill:#231f20"/><path d="M129.546,377.751l-1.959-3.263h.768l1.512,2.614h.015l1.52-2.614h.767l-1.958,3.263v2.334h-.665Z" style="fill:#231f20"/><path d="M133.816,374.488h3.357v.624h-2.7V376.9h2.479v.592h-2.479v1.966h2.7v.624h-3.357Z" style="fill:#231f20"/><path d="M141.589,377.782l1.232,2.3h-.776l-1.183-2.271h-1.119v2.271h-.656v-5.6h2.04c1.167,0,1.862.624,1.862,1.655a1.544,1.544,0,0,1-1.4,1.623Zm-.519-.592c.824,0,1.256-.359,1.256-1.047s-.424-1.031-1.256-1.031h-1.327v2.078Z" style="fill:#231f20"/><path d="M73,375.412h.679l.824,4.549h.016l1.384-4.549h.624l1.39,4.549h.016l.824-4.549h.68l-1.039,5.6h-.8l-1.375-4.493h-.015l-1.368,4.493h-.807Z" style="fill:#231f20"/><path d="M80.377,381.128l2.854-6.036.448.2-2.863,6.02Z" style="fill:#231f20"/><path d="M85.371,375.412h1.743c1.415,0,2.415,1.023,2.415,2.79,0,1.975-1,2.806-2.463,2.806h-1.7Zm1.655,4.973c1.136,0,1.839-.6,1.839-2.183,0-1.431-.7-2.166-1.791-2.166H86.027v4.349Z" style="fill:#231f20"/><path d="M32.851,328.957l1.231,2.3h-.776l-1.183-2.27H31v2.27h-.655v-5.6h2.039c1.167,0,1.863.624,1.863,1.655a1.545,1.545,0,0,1-1.4,1.623Zm-.519-.592c.823,0,1.254-.36,1.254-1.047s-.423-1.031-1.254-1.031H31v2.078Z" style="fill:#231f20"/><path d="M34.761,262.926H36.5c1.416,0,2.416,1.024,2.416,2.791,0,1.975-1,2.807-2.462,2.807h-1.7Zm1.655,4.974c1.135,0,1.839-.6,1.839-2.183,0-1.431-.7-2.167-1.791-2.167H35.417v4.35Z" style="fill:#231f20"/><path d="M39.845,262.926h.68l.824,4.55h.016l1.384-4.55h.624l1.39,4.55h.016l.824-4.55h.68l-1.039,5.6h-.8l-1.375-4.494h-.016l-1.367,4.494h-.808Z" style="fill:#231f20"/><path d="M5.347,266.669,6,266.557a1.465,1.465,0,0,0,1.656,1.463c.775,0,1.287-.36,1.287-.9,0-.568-.376-.88-1.543-1.248-1.335-.439-1.783-.831-1.783-1.583,0-.871.735-1.479,1.791-1.479a1.955,1.955,0,0,1,2.03,1.631l-.647.136A1.342,1.342,0,0,0,7.4,263.431c-.68,0-1.128.336-1.128.855,0,.432.32.664,1.344.984,1.455.471,1.982.959,1.982,1.839,0,.911-.791,1.535-1.951,1.535A2.055,2.055,0,0,1,5.347,266.669Z" style="fill:#231f20"/><path d="M10.526,265.726c0-1.751.943-2.919,2.358-2.919s2.36,1.168,2.36,2.919-.944,2.918-2.36,2.918S10.526,267.477,10.526,265.726Zm4.054,0c0-1.416-.648-2.3-1.7-2.3s-1.7.879-1.7,2.3.648,2.294,1.7,2.294S14.58,267.141,14.58,265.726Z" style="fill:#231f20"/><path d="M15.734,268.644l2.853-6.037.449.2-2.863,6.021Z" style="fill:#231f20"/><path d="M19.806,262.927h.68l.823,4.55h.017l1.383-4.55h.623l1.391,4.55h.017l.823-4.55h.679l-1.039,5.6h-.8l-1.375-4.494h-.017l-1.367,4.494h-.808Z" style="fill:#231f20"/><polygon points="119.594 452.371 124.994 437.971 130.394 452.371 119.594 452.371" style="fill:#231f20"/><rect x="71.955" y="314.995" width="20.045" height="28.123" rx="0.857" transform="translate(-247.079 411.034) rotate(-90)" style="fill:none;stroke:#221f1f;stroke-linecap:round;stroke-linejoin:round;stroke-width:0.25px"/><path d="M69.882,330.466a.786.786,0,1,1,.786.786h-.012a.775.775,0,0,1-.774-.775Z" style="fill:none;stroke:#221f1f;stroke-linecap:round;stroke-linejoin:round;stroke-width:0.25px"/><path d="M69.882,327.647a.786.786,0,1,1,.786.786h-.012A.786.786,0,0,1,69.882,327.647Z" style="fill:none;stroke:#221f1f;stroke-linecap:round;stroke-linejoin:round;stroke-width:0.25px"/><path d="M69.882,322.01a.786.786,0,1,1,.8.775h-.023A.775.775,0,0,1,69.882,322.01Z" style="fill:none;stroke:#221f1f;stroke-linecap:round;stroke-linejoin:round;stroke-width:0.25px"/><path d="M69.882,324.834a.786.786,0,1,1,.8.775h-.023A.775.775,0,0,1,69.882,324.834Z" style="fill:none;stroke:#221f1f;stroke-linecap:round;stroke-linejoin:round;stroke-width:0.25px"/><line x1="90.144" y1="338.592" x2="90.144" y2="336.083" style="fill:none;stroke:#211e1f;stroke-linecap:round;stroke-linejoin:round;stroke-width:0.25px"/><line x1="90.144" y1="331.567" x2="90.144" y2="329.058" style="fill:none;stroke:#211e1f;stroke-linecap:round;stroke-linejoin:round;stroke-width:0.25px"/><line x1="88.058" y1="332.726" x2="84.749" y2="330.85" style="fill:none;stroke:#211e1f;stroke-linecap:round;stroke-linejoin:round;stroke-width:0.25px"/><line x1="88.058" y1="334.921" x2="84.749" y2="336.798" style="fill:none;stroke:#211e1f;stroke-linecap:round;stroke-linejoin:round;stroke-width:0.25px"/><line x1="92.149" y1="332.726" x2="95.457" y2="330.85" style="fill:none;stroke:#211e1f;stroke-linecap:round;stroke-linejoin:round;stroke-width:0.25px"/><line x1="92.149" y1="334.921" x2="95.457" y2="336.798" style="fill:none;stroke:#211e1f;stroke-linecap:round;stroke-linejoin:round;stroke-width:0.25px"/><ellipse cx="90.144" cy="333.824" rx="0.864" ry="0.846" style="fill:none;stroke:#211e1f;stroke-linecap:round;stroke-linejoin:round;stroke-width:0.25px"/><line x1="90.144" y1="329.057" x2="90.144" y2="326.547" style="fill:none;stroke:#211e1f;stroke-linecap:round;stroke-linejoin:round;stroke-width:0.25px"/><line x1="90.144" y1="322.032" x2="90.144" y2="319.522" style="fill:none;stroke:#211e1f;stroke-linecap:round;stroke-linejoin:round;stroke-width:0.25px"/><line x1="88.058" y1="323.191" x2="84.749" y2="321.314" style="fill:none;stroke:#211e1f;stroke-linecap:round;stroke-linejoin:round;stroke-width:0.25px"/><line x1="88.058" y1="325.386" x2="84.749" y2="327.262" style="fill:none;stroke:#211e1f;stroke-linecap:round;stroke-linejoin:round;stroke-width:0.25px"/><line x1="92.149" y1="323.191" x2="95.457" y2="321.314" style="fill:none;stroke:#211e1f;stroke-linecap:round;stroke-linejoin:round;stroke-width:0.25px"/><line x1="92.149" y1="325.386" x2="95.457" y2="327.262" style="fill:none;stroke:#211e1f;stroke-linecap:round;stroke-linejoin:round;stroke-width:0.25px"/><ellipse cx="90.144" cy="324.288" rx="0.864" ry="0.846" style="fill:none;stroke:#211e1f;stroke-linecap:round;stroke-linejoin:round;stroke-width:0.25px"/><line x1="78.58" y1="329.057" x2="78.58" y2="326.547" style="fill:none;stroke:#211e1f;stroke-linecap:round;stroke-linejoin:round;stroke-width:0.25px"/><line x1="78.58" y1="322.032" x2="78.58" y2="319.522" style="fill:none;stroke:#211e1f;stroke-linecap:round;stroke-linejoin:round;stroke-width:0.25px"/><line x1="76.494" y1="323.191" x2="73.186" y2="321.314" style="fill:none;stroke:#211e1f;stroke-linecap:round;stroke-linejoin:round;stroke-width:0.25px"/><line x1="76.494" y1="325.386" x2="73.186" y2="327.262" style="fill:none;stroke:#211e1f;stroke-linecap:round;stroke-linejoin:round;stroke-width:0.25px"/><line x1="80.585" y1="323.191" x2="83.893" y2="321.314" style="fill:none;stroke:#211e1f;stroke-linecap:round;stroke-linejoin:round;stroke-width:0.25px"/><line x1="80.585" y1="325.386" x2="83.893" y2="327.262" style="fill:none;stroke:#211e1f;stroke-linecap:round;stroke-linejoin:round;stroke-width:0.25px"/><ellipse cx="78.58" cy="324.288" rx="0.864" ry="0.846" style="fill:none;stroke:#211e1f;stroke-linecap:round;stroke-linejoin:round;stroke-width:0.25px"/><line x1="78.58" y1="338.591" x2="78.58" y2="336.081" style="fill:none;stroke:#211e1f;stroke-linecap:round;stroke-linejoin:round;stroke-width:0.25px"/><line x1="78.58" y1="331.566" x2="78.58" y2="329.057" style="fill:none;stroke:#211e1f;stroke-linecap:round;stroke-linejoin:round;stroke-width:0.25px"/><line x1="76.494" y1="332.725" x2="73.186" y2="330.848" style="fill:none;stroke:#211e1f;stroke-linecap:round;stroke-linejoin:round;stroke-width:0.25px"/><line x1="76.494" y1="334.92" x2="73.186" y2="336.797" style="fill:none;stroke:#211e1f;stroke-linecap:round;stroke-linejoin:round;stroke-width:0.25px"/><line x1="80.585" y1="332.725" x2="83.893" y2="330.848" style="fill:none;stroke:#211e1f;stroke-linecap:round;stroke-linejoin:round;stroke-width:0.25px"/><line x1="80.585" y1="334.92" x2="83.893" y2="336.797" style="fill:none;stroke:#211e1f;stroke-linecap:round;stroke-linejoin:round;stroke-width:0.25px"/><ellipse cx="78.58" cy="333.823" rx="0.864" ry="0.846" style="fill:none;stroke:#211e1f;stroke-linecap:round;stroke-linejoin:round;stroke-width:0.25px"/><path d="M83.911,329.055H73.249a.063.063,0,0,0-.063.063v8.724a.758.758,0,0,0,.766.75h9.256a.759.759,0,0,0,.767-.75v-8.724a.064.064,0,0,0-.064-.063" style="fill:none;stroke:#211e1f;stroke-linecap:round;stroke-linejoin:round;stroke-width:0.25px"/><path d="M83.911,329.058H73.249a.063.063,0,0,1-.063-.063v-8.724a.758.758,0,0,1,.766-.75h9.256a.759.759,0,0,1,.767.75V329a.064.064,0,0,1-.064.063" style="fill:none;stroke:#211e1f;stroke-linecap:round;stroke-linejoin:round;stroke-width:0.25px"/><path d="M95.393,329.055H84.732a.064.064,0,0,0-.064.063v8.724a.758.758,0,0,0,.766.75h9.257a.758.758,0,0,0,.766-.75v-8.724a.063.063,0,0,0-.064-.063" style="fill:none;stroke:#211e1f;stroke-linecap:round;stroke-linejoin:round;stroke-width:0.25px"/><path d="M95.393,329.058H84.732a.064.064,0,0,1-.064-.063v-8.724a.758.758,0,0,1,.766-.75h9.257a.758.758,0,0,1,.766.75V329a.063.063,0,0,1-.064.063" style="fill:none;stroke:#211e1f;stroke-linecap:round;stroke-linejoin:round;stroke-width:0.25px"/></g></g></svg>