<svg xmlns="http://www.w3.org/2000/svg" viewBox="0 0 744.78 337.68"><defs><style>.cls-1,.cls-10,.cls-13,.cls-2,.cls-3,.cls-5{fill:#fff;}.cls-1,.cls-10,.cls-11,.cls-13,.cls-14,.cls-15,.cls-16,.cls-17,.cls-18,.cls-19,.cls-2,.cls-20,.cls-4,.cls-5,.cls-6,.cls-7,.cls-8,.cls-9{stroke:#231f20;}.cls-1,.cls-10,.cls-11,.cls-12,.cls-13,.cls-14,.cls-15,.cls-16,.cls-17,.cls-18,.cls-19,.cls-2,.cls-4,.cls-6,.cls-7,.cls-9{stroke-linecap:round;stroke-linejoin:round;}.cls-1{stroke-width:0.15px;}.cls-2,.cls-4,.cls-5{stroke-width:0.15px;}.cls-11,.cls-12,.cls-14,.cls-15,.cls-16,.cls-17,.cls-18,.cls-19,.cls-4,.cls-6,.cls-7,.cls-8,.cls-9{fill:none;}.cls-20,.cls-5,.cls-8{stroke-miterlimit:10;}.cls-20,.cls-6{stroke-width:0.4px;}.cls-13,.cls-14,.cls-15,.cls-16,.cls-17,.cls-18,.cls-19,.cls-7,.cls-8{stroke-width:0.25px;}.cls-10,.cls-11,.cls-12,.cls-9{stroke-width:0.2px;}.cls-11,.cls-19{stroke-dasharray:1.32 1.32;}.cls-12{stroke:#a7a9ac;}.cls-14{stroke-dasharray:1.32 1.32;}.cls-15{stroke-dasharray:1.36 1.36;}.cls-16{stroke-dasharray:1.36 1.36;}.cls-17{stroke-dasharray:1.28 1.28;}.cls-18{stroke-dasharray:2 2;}.cls-20{fill:#e1e5e5;}.cls-21{fill:#231f20;}</style></defs><title>Asset 8</title><g id="Layer_2" data-name="Layer 2"><g id="Unit7-14A_Rest"><g id="LWPOLYLINE"><rect class="cls-1" x="597.49" y="39.27" width="107.33" height="171.31"/></g><g id="LWPOLYLINE-2" data-name="LWPOLYLINE"><rect class="cls-1" x="38.55" y="43.54" width="97.33" height="90.43"/></g><g id="LWPOLYLINE-3" data-name="LWPOLYLINE"><path class="cls-2" d="M485.49,140.71a10.77,10.77,0,0,1-1.17,1.17,12,12,0,0,1-16.89-1.17l1.06-.92v-10.9h15.94v10.9Z"/></g><g id="LWPOLYLINE-4" data-name="LWPOLYLINE"><path class="cls-2" d="M508,140.71a10.77,10.77,0,0,1-1.17,1.17,12,12,0,0,1-16.89-1.17l1.06-.92v-10.9h15.94v10.9Z"/></g><g id="LWPOLYLINE-5" data-name="LWPOLYLINE"><path class="cls-2" d="M548,133.49h17.81l-.29,5.81a3.76,3.76,0,0,1-3.75,3.57h-9.74a3.75,3.75,0,0,1-3.74-3.57Z"/></g><g id="LWPOLYLINE-6" data-name="LWPOLYLINE"><path class="cls-2" d="M566.07,84.73H548.26l.29-5.81a3.75,3.75,0,0,1,3.74-3.57H562a3.76,3.76,0,0,1,3.75,3.57Z"/></g><g id="LWPOLYLINE-7" data-name="LWPOLYLINE"><path class="cls-2" d="M546.63,131.38V113.57l-5.81.29a3.76,3.76,0,0,0-3.57,3.75v9.74a3.75,3.75,0,0,0,3.57,3.74Z"/></g><g id="LWPOLYLINE-8" data-name="LWPOLYLINE"><path class="cls-2" d="M546.63,105.6V87.79l-5.81.29a3.75,3.75,0,0,0-3.57,3.74v9.74a3.76,3.76,0,0,0,3.57,3.75Z"/></g><g id="LWPOLYLINE-9" data-name="LWPOLYLINE"><rect class="cls-2" x="108.25" y="295.04" width="22.5" height="16.88"/></g><g id="LWPOLYLINE-10" data-name="LWPOLYLINE"><rect class="cls-2" x="22" y="295.04" width="22.5" height="16.88"/></g><g id="LWPOLYLINE-11" data-name="LWPOLYLINE"><rect class="cls-2" x="48.25" y="231.29" width="56.25" height="80.63"/></g><g id="LWPOLYLINE-12" data-name="LWPOLYLINE"><rect class="cls-2" x="48.25" y="183.95" width="56.25" height="15"/></g><g id="LWPOLYLINE-13" data-name="LWPOLYLINE"><rect class="cls-2" x="237.77" y="253.89" width="7.56" height="37.84"/></g><g id="LWPOLYLINE-14" data-name="LWPOLYLINE"><rect class="cls-2" x="50.6" y="38.29" width="71.25" height="80.63"/></g><g id="LWPOLYLINE-15" data-name="LWPOLYLINE"><rect class="cls-2" x="58.1" y="163.21" width="56.25" height="15"/></g><g id="LWPOLYLINE-16" data-name="LWPOLYLINE"><path class="cls-2" d="M566.68,87.79V105.6l5.81-.29a3.76,3.76,0,0,0,3.56-3.75V91.82a3.75,3.75,0,0,0-3.56-3.74Z"/></g><g id="LWPOLYLINE-17" data-name="LWPOLYLINE"><path class="cls-2" d="M566.68,113.57v17.81l5.81-.29a3.75,3.75,0,0,0,3.56-3.74v-9.74a3.76,3.76,0,0,0-3.56-3.75Z"/></g><rect class="cls-3" x="309.79" y="280.4" width="27.89" height="25.31"/><g id="LWPOLYLINE-18" data-name="LWPOLYLINE"><polygon class="cls-2" points="35.06 144.72 36.85 146.19 37.09 145.91 37.59 145.61 38.17 145.71 39.78 146.8 41.09 147.67 42.2 148.48 43.64 149.58 44.92 150.62 45.44 151.04 45.84 151.4 46.36 151.85 46.93 152.36 48.26 153.59 49.46 154.77 50.39 155.72 50.61 156.27 50.42 156.82 50.18 157.11 52.47 158.98 38.08 176.55 20.67 162.29 35.06 144.72"/></g><g id="LINE"><line class="cls-4" x1="35.79" y1="174.68" x2="50.17" y2="157.11"/></g><g id="LINE-2" data-name="LINE"><line class="cls-4" x1="36.86" y1="146.19" x2="22.46" y2="163.76"/></g><g id="ARC"><path class="cls-4" d="M39,170.76a40.27,40.27,0,0,0-13.33-10.92"/></g><g id="ARC-2" data-name="ARC"><path class="cls-4" d="M36.86,173.37a100.38,100.38,0,0,0-13.33-10.91"/></g><g id="LWPOLYLINE-19" data-name="LWPOLYLINE"><line class="cls-4" x1="482.58" y1="141.47" x2="482.58" y2="128.89"/></g><g id="LWPOLYLINE-20" data-name="LWPOLYLINE"><line class="cls-4" x1="470.34" y1="141.47" x2="470.34" y2="128.89"/></g><g id="LWPOLYLINE-21" data-name="LWPOLYLINE"><path class="cls-4" d="M468.49,139.79a10.57,10.57,0,0,0,14.91,1,10,10,0,0,0,1-1"/></g><g id="LWPOLYLINE-22" data-name="LWPOLYLINE"><line class="cls-4" x1="505.08" y1="141.47" x2="505.08" y2="128.89"/></g><g id="LWPOLYLINE-23" data-name="LWPOLYLINE"><line class="cls-4" x1="492.84" y1="141.47" x2="492.84" y2="128.89"/></g><g id="LWPOLYLINE-24" data-name="LWPOLYLINE"><path class="cls-4" d="M491,139.79a10.57,10.57,0,0,0,14.91,1,10,10,0,0,0,1-1"/></g><g id="LWPOLYLINE-25" data-name="LWPOLYLINE"><path class="cls-2" d="M564.44,133.49l-.29,5.74a2.34,2.34,0,0,1-2.34,2.23h-9.74a2.34,2.34,0,0,1-2.34-2.23l-.29-5.74"/></g><g id="LWPOLYLINE-26" data-name="LWPOLYLINE"><path class="cls-2" d="M549.66,84.73,550,79a2.34,2.34,0,0,1,2.34-2.23H562A2.34,2.34,0,0,1,564.37,79l.29,5.74"/></g><g id="LWPOLYLINE-27" data-name="LWPOLYLINE"><path class="cls-2" d="M546.63,115l-5.74.28a2.36,2.36,0,0,0-2.23,2.35v9.74a2.35,2.35,0,0,0,2.23,2.34l5.74.28"/></g><g id="LWPOLYLINE-28" data-name="LWPOLYLINE"><path class="cls-2" d="M546.86,89.1l-5.74.29a2.33,2.33,0,0,0-2.22,2.34v9.74a2.33,2.33,0,0,0,2.22,2.34l5.74.29"/></g><g id="LWPOLYLINE-29" data-name="LWPOLYLINE"><path class="cls-2" d="M566.68,104.19l5.74-.28a2.36,2.36,0,0,0,2.22-2.35V91.82a2.35,2.35,0,0,0-2.22-2.34l-5.74-.28"/></g><g id="LWPOLYLINE-30" data-name="LWPOLYLINE"><path class="cls-2" d="M566.44,130.07l5.74-.29a2.34,2.34,0,0,0,2.23-2.34V117.7a2.34,2.34,0,0,0-2.23-2.34l-5.74-.29"/></g><g id="LINE-3" data-name="LINE"><line class="cls-4" x1="104.5" y1="309.11" x2="48.25" y2="309.11"/></g><g id="LINE-4" data-name="LINE"><line class="cls-4" x1="104.5" y1="234.11" x2="48.25" y2="234.11"/></g><g id="LWPOLYLINE-31" data-name="LWPOLYLINE"><rect class="cls-4" x="50.79" y="291.88" width="24.31" height="14.68"/></g><g id="LWPOLYLINE-32" data-name="LWPOLYLINE"><rect class="cls-4" x="77.65" y="291.88" width="24.31" height="14.68"/></g><g id="LWPOLYLINE-33" data-name="LWPOLYLINE"><rect class="cls-4" x="53.14" y="43.64" width="31.81" height="14.68"/></g><g id="LINE-5" data-name="LINE"><line class="cls-4" x1="121.85" y1="41.1" x2="50.6" y2="41.1"/></g><g id="LINE-6" data-name="LINE"><line class="cls-4" x1="121.85" y1="116.1" x2="50.6" y2="116.1"/></g><g id="LWPOLYLINE-34" data-name="LWPOLYLINE"><rect class="cls-4" x="87.49" y="43.64" width="31.81" height="14.68"/></g><g id="LWPOLYLINE-35" data-name="LWPOLYLINE"><rect class="cls-2" x="542.88" y="80.99" width="28.13" height="56.25"/></g><g id="LWPOLYLINE-36" data-name="LWPOLYLINE"><rect class="cls-2" x="32.6" y="38.29" width="15.9" height="15.94"/></g><g id="LWPOLYLINE-37" data-name="LWPOLYLINE"><rect class="cls-2" x="123.94" y="38.29" width="15.9" height="15.94"/></g><line class="cls-4" x1="50.47" y1="60.38" x2="121.72" y2="60.38"/><line class="cls-4" x1="50.47" y1="62.81" x2="121.72" y2="62.81"/><g id="LWPOLYLINE-38" data-name="LWPOLYLINE"><polygon class="cls-2" points="701.48 217.43 600.22 217.43 600.22 183.68 666.16 183.68 666.16 157.49 701.48 157.49 701.48 217.43"/></g><g id="LINE-7" data-name="LINE"><line class="cls-4" x1="635.54" y1="212.74" x2="635.54" y2="184.66"/></g><g id="LWPOLYLINE-39" data-name="LWPOLYLINE"><polyline class="cls-4" points="701.48 179.62 696.79 179.62 696.79 212.74 604.91 212.74 604.91 183.68"/></g><g id="ARC-3" data-name="ARC"><path class="cls-4" d="M634.6,208.25a91.2,91.2,0,0,0-28.75,0"/></g><g id="ARC-4" data-name="ARC"><path class="cls-4" d="M635.54,209.23a1.22,1.22,0,0,0-.94-1"/></g><g id="ARC-5" data-name="ARC"><path class="cls-4" d="M605.85,208.25a1.22,1.22,0,0,0-.94,1"/></g><g id="ARC-6" data-name="ARC"><path class="cls-4" d="M635.54,184.66a1.22,1.22,0,0,0-.94-1"/></g><g id="ARC-7" data-name="ARC"><path class="cls-4" d="M636.47,183.68a1.19,1.19,0,0,0-.93,1"/></g><g id="ARC-8" data-name="ARC"><path class="cls-4" d="M605.85,183.68a1.22,1.22,0,0,0-.94,1"/></g><g id="LINE-8" data-name="LINE"><line class="cls-4" x1="666.16" y1="212.74" x2="666.16" y2="183.68"/></g><g id="ARC-9" data-name="ARC"><path class="cls-4" d="M665.22,208.25a91.2,91.2,0,0,0-28.75,0"/></g><g id="ARC-10" data-name="ARC"><path class="cls-4" d="M666.16,209.23a1.19,1.19,0,0,0-.94-1"/></g><g id="ARC-11" data-name="ARC"><path class="cls-4" d="M636.47,208.25a1.19,1.19,0,0,0-.93,1"/></g><g id="LINE-9" data-name="LINE"><line class="cls-4" x1="666.16" y1="212.74" x2="666.16" y2="183.68"/></g><g id="ARC-12" data-name="ARC"><path class="cls-4" d="M666.16,209.23a1.19,1.19,0,0,0-.94-1"/></g><g id="ARC-13" data-name="ARC"><path class="cls-4" d="M695.85,208.25a91.2,91.2,0,0,0-28.75,0"/></g><g id="ARC-14" data-name="ARC"><path class="cls-4" d="M696.79,209.23a1.22,1.22,0,0,0-.94-1"/></g><g id="ARC-15" data-name="ARC"><path class="cls-4" d="M667.1,208.25a1.22,1.22,0,0,0-.94,1"/></g><g id="ARC-16" data-name="ARC"><path class="cls-4" d="M635.54,209.23a1.22,1.22,0,0,0-.94-1"/></g><g id="ARC-17" data-name="ARC"><path class="cls-4" d="M605.85,208.25a1.22,1.22,0,0,0-.94,1"/></g><g id="ARC-18" data-name="ARC"><path class="cls-4" d="M635.54,184.66a1.22,1.22,0,0,0-.94-1"/></g><g id="ARC-19" data-name="ARC"><path class="cls-4" d="M636.47,183.68a1.19,1.19,0,0,0-.93,1"/></g><g id="ARC-20" data-name="ARC"><path class="cls-4" d="M605.85,183.68a1.22,1.22,0,0,0-.94,1"/></g><g id="LINE-10" data-name="LINE"><line class="cls-4" x1="666.16" y1="212.74" x2="666.16" y2="183.68"/></g><g id="ARC-21" data-name="ARC"><path class="cls-4" d="M666.16,209.23a1.19,1.19,0,0,0-.94-1"/></g><g id="ARC-22" data-name="ARC"><path class="cls-4" d="M636.47,208.25a1.19,1.19,0,0,0-.93,1"/></g><g id="ARC-23" data-name="ARC"><path class="cls-4" d="M666.16,209.23a1.19,1.19,0,0,0-.94-1"/></g><g id="ARC-24" data-name="ARC"><path class="cls-4" d="M696.79,209.23a1.22,1.22,0,0,0-.94-1"/></g><g id="ARC-25" data-name="ARC"><path class="cls-4" d="M667.1,208.25a1.22,1.22,0,0,0-.94,1"/></g><g id="LWPOLYLINE-40" data-name="LWPOLYLINE"><polygon class="cls-2" points="679.77 109.24 709.77 110.22 709.73 136.94 679.73 137.84 679.77 109.24"/></g><g id="LWPOLYLINE-41" data-name="LWPOLYLINE"><polygon class="cls-2" points="679.77 58.53 709.77 59.5 709.73 86.22 679.73 87.12 679.77 58.53"/></g><g id="LINE-11" data-name="LINE"><line class="cls-4" x1="679.76" y1="113.23" x2="709.76" y2="114.2"/></g><g id="LINE-12" data-name="LINE"><line class="cls-4" x1="705.54" y1="114.07" x2="705.52" y2="133.07"/></g><g id="LINE-13" data-name="LINE"><line class="cls-4" x1="709.74" y1="132.95" x2="679.74" y2="133.85"/></g><g id="LINE-14" data-name="LINE"><line class="cls-4" x1="679.76" y1="62.51" x2="709.76" y2="63.49"/></g><g id="LINE-15" data-name="LINE"><line class="cls-4" x1="705.54" y1="63.36" x2="705.52" y2="82.35"/></g><g id="LINE-16" data-name="LINE"><line class="cls-4" x1="709.74" y1="82.24" x2="679.74" y2="83.13"/></g><g id="CIRCLE"><path class="cls-2" d="M697.06,97.83a5.15,5.15,0,1,1,5.15,5.14,5.16,5.16,0,0,1-5.15-5.14Z"/></g><path class="cls-5" d="M691.06,203.05s6.86-5.27,5.57-7.93-10.46,7.24-10.46,7.24-4,3.9-2,4.64S691.06,203.05,691.06,203.05Z"/><path class="cls-5" d="M680,200.41s-7.08,4.37-5.76,6.29,9.44-3.55,9.44-3.55,7.57-3.84,5.53-5.71S680,200.41,680,200.41Z"/><path class="cls-5" d="M621.29,206.38s-.75-3.62-8.34-5.2-7.68-1.12-8-.31,2.24,4.2,9.2,5.22S621,207.63,621.29,206.38Z"/><g id="LWPOLYLINE-42" data-name="LWPOLYLINE"><rect class="cls-2" x="614" y="30.23" width="72.24" height="15"/></g><rect class="cls-2" x="627.66" y="32.93" width="44.9" height="1.76"/><path class="cls-5" d="M629.46,92.22s-11.19.64-10.81,7.48,11.65,18.89,20.28,22.67,9.71-8.22,10-12S651,94.81,640.21,92C640.21,92,637.38,91.36,629.46,92.22Z"/><path class="cls-5" d="M651.3,118.79s9.93,1.76,7.17,11.82-11,27.27-21.65,30.79-16.67-21-16.67-21-4.76-12.76,9.29-18.17S651.3,118.79,651.3,118.79Z"/><line class="cls-4" x1="48.25" y1="286.65" x2="104.5" y2="286.65"/><line class="cls-4" x1="48.25" y1="289.08" x2="104.5" y2="289.08"/><g id="LWPOLYLINE-43" data-name="LWPOLYLINE"><polyline class="cls-6" points="727.71 95.36 722.08 95.36 722.08 35.36 727.71 35.36"/></g><g id="LWPOLYLINE-44" data-name="LWPOLYLINE"><polyline class="cls-6" points="727.71 189.11 722.08 189.11 722.08 129.11 727.71 129.11"/></g><g id="LWPOLYLINE-45" data-name="LWPOLYLINE"><polyline class="cls-6" points="11.45 63.01 17.07 63.01 17.07 153.01 11.45 153.01"/></g><g id="LWPOLYLINE-46" data-name="LWPOLYLINE"><polyline class="cls-6" points="11.45 214.89 17.07 214.89 17.07 288.01 11.45 288.01"/></g><g id="LWPOLYLINE-47" data-name="LWPOLYLINE"><line class="cls-6" x1="11.45" y1="152.07" x2="6.76" y2="152.07"/><line class="cls-6" x1="6.76" y1="62.07" x2="11.45" y2="62.07"/></g><g id="LWPOLYLINE-48" data-name="LWPOLYLINE"><rect class="cls-7" x="730.23" y="38.17" width="1.23" height="25.66"/></g><g id="LWPOLYLINE-49" data-name="LWPOLYLINE"><rect class="cls-7" x="730.23" y="66.88" width="1.23" height="25.66"/></g><g id="LWPOLYLINE-50" data-name="LWPOLYLINE"><rect class="cls-7" x="730.23" y="131.92" width="1.23" height="25.66"/></g><g id="LWPOLYLINE-51" data-name="LWPOLYLINE"><rect class="cls-7" x="730.23" y="160.63" width="1.23" height="25.66"/></g><g id="LWPOLYLINE-52" data-name="LWPOLYLINE"><polygon class="cls-7" points="8.93 91.18 8.93 64.89 7.7 64.89 7.7 65.83 7.7 90.47 7.7 91.18 8.93 91.18"/></g><g id="LWPOLYLINE-53" data-name="LWPOLYLINE"><polygon class="cls-7" points="8.93 149.26 8.93 93.75 7.7 93.75 7.7 94.46 7.7 149.26 8.93 149.26"/></g><g id="LWPOLYLINE-54" data-name="LWPOLYLINE"><polygon class="cls-7" points="8.93 238.36 8.93 217.7 7.7 217.7 7.7 218.64 7.7 237.66 7.7 238.36 8.93 238.36"/></g><g id="LWPOLYLINE-55" data-name="LWPOLYLINE"><polygon class="cls-7" points="8.93 285.2 8.93 240.94 7.7 240.94 7.7 241.65 7.7 285.2 8.93 285.2"/></g><line class="cls-7" x1="11.45" y1="63.41" x2="11.45" y2="149.41"/><line class="cls-7" x1="11.45" y1="199.41" x2="11.45" y2="285.41"/><line class="cls-7" x1="727.69" y1="5.92" x2="727.69" y2="91.92"/><line class="cls-7" x1="727.69" y1="132.78" x2="727.69" y2="188.27"/><g id="LWPOLYLINE-56" data-name="LWPOLYLINE"><polygon class="cls-8" points="730.23 39.11 730.23 38.17 731.46 38.17 731.46 39.11 732.4 39.11 732.4 37.23 736.15 37.23 736.15 36.29 732.4 36.29 732.4 35.36 727.71 35.36 727.71 39.11 730.23 39.11"/></g><g id="LWPOLYLINE-57" data-name="LWPOLYLINE"><polyline class="cls-8" points="734.74 64.89 734.74 65.83 732.4 65.83 732.4 67.58 731.46 67.58 731.46 66.88 730.23 66.88 730.23 67.58 727.71 67.58 727.71 65.71 728.18 65.71 728.18 65 727.71 65 727.71 63.13 730.23 63.13 730.23 63.82 731.46 63.83 731.46 63.13 732.4 63.13 732.4 64.89 734.74 64.89"/></g><g id="LWPOLYLINE-58" data-name="LWPOLYLINE"><polygon class="cls-8" points="732.4 95.36 732.4 94.42 736.15 94.42 736.15 93.48 732.4 93.48 732.4 91.61 731.46 91.61 731.46 92.54 730.23 92.54 730.23 91.61 727.71 91.61 727.71 95.36 732.4 95.36"/></g><g id="LWPOLYLINE-59" data-name="LWPOLYLINE"><polygon class="cls-8" points="730.23 132.86 730.23 131.92 731.46 131.92 731.46 132.86 732.4 132.86 732.4 130.98 736.15 130.98 736.15 130.04 732.4 130.04 732.4 129.11 727.71 129.11 727.71 132.86 730.23 132.86"/></g><g id="LWPOLYLINE-60" data-name="LWPOLYLINE"><polyline class="cls-8" points="734.74 158.64 734.74 159.57 732.4 159.57 732.4 161.33 731.46 161.33 731.46 160.63 730.23 160.63 730.23 161.33 727.71 161.33 727.71 159.46 728.18 159.46 728.18 158.75 727.71 158.75 727.71 156.88 730.23 156.88 730.23 157.57 731.46 157.58 731.46 156.88 732.4 156.88 732.4 158.64 734.74 158.64"/></g><g id="LWPOLYLINE-61" data-name="LWPOLYLINE"><polygon class="cls-8" points="732.4 189.11 732.4 188.17 736.15 188.17 736.15 187.23 732.4 187.23 732.4 185.36 731.46 185.36 731.46 186.29 730.23 186.29 730.23 185.36 727.71 185.36 727.71 189.11 732.4 189.11"/></g><g id="LWPOLYLINE-62" data-name="LWPOLYLINE"><polygon class="cls-8" points="11.45 152.07 11.45 148.32 8.93 148.32 8.93 149.26 7.7 149.26 7.7 148.32 6.76 148.32 6.76 150.2 6.76 152.07 11.45 152.07"/></g><g id="LWPOLYLINE-63" data-name="LWPOLYLINE"><polygon class="cls-8" points="11.45 62.08 11.45 65.83 8.93 65.83 8.93 64.89 7.7 64.89 7.7 65.83 6.76 65.83 6.76 63.95 6.76 62.08 11.45 62.08"/></g><g id="LWPOLYLINE-64" data-name="LWPOLYLINE"><polygon class="cls-8" points="10.1 94.46 10.1 93.52 10.98 93.52 10.98 92.35 11.45 92.35 11.45 90.47 8.93 90.47 8.93 91.18 7.7 91.18 7.7 90.47 6.76 90.47 6.76 91.18 6.76 93.75 6.76 94.46 7.7 94.46 7.7 93.75 8.93 93.75 8.93 94.46 10.1 94.46"/></g><g id="LWPOLYLINE-65" data-name="LWPOLYLINE"><polygon class="cls-8" points="11.45 288.01 11.45 284.26 8.93 284.26 8.93 285.2 7.7 285.2 7.7 284.26 6.76 284.26 6.76 286.14 6.76 288.01 11.45 288.01"/></g><g id="LWPOLYLINE-66" data-name="LWPOLYLINE"><polygon class="cls-8" points="11.45 214.89 11.45 218.64 8.93 218.64 8.93 217.7 7.7 217.7 7.7 218.64 6.76 218.64 6.76 216.76 6.76 214.89 11.45 214.89"/></g><g id="LWPOLYLINE-67" data-name="LWPOLYLINE"><polygon class="cls-8" points="10.1 241.65 10.1 240.71 10.98 240.71 10.98 239.54 11.45 239.54 11.45 237.66 8.93 237.66 8.93 238.36 7.7 238.36 7.7 237.66 6.76 237.66 6.76 238.36 6.76 240.94 6.76 241.65 7.7 241.65 7.7 240.94 8.93 240.94 8.93 241.65 10.1 241.65"/></g><g id="LWPOLYLINE-68" data-name="LWPOLYLINE"><polyline class="cls-6" points="727.71 95.36 744.58 95.36 744.58 35.36 727.71 35.36"/></g><g id="LWPOLYLINE-69" data-name="LWPOLYLINE"><polyline class="cls-6" points="727.71 189.11 744.58 189.11 744.58 129.11 727.71 129.11"/></g><g id="LWPOLYLINE-70" data-name="LWPOLYLINE"><polyline class="cls-6" points="6.76 62.08 0.2 62.08 0.2 152.07 6.76 152.07"/></g><g id="LWPOLYLINE-71" data-name="LWPOLYLINE"><polyline class="cls-6" points="6.76 214.89 0.2 214.89 0.2 288.01 6.76 288.01"/></g><g id="LWPOLYLINE-72" data-name="LWPOLYLINE"><rect class="cls-9" x="179.33" y="95.36" width="33.75" height="1.64"/></g><g id="LWPOLYLINE-73" data-name="LWPOLYLINE"><rect class="cls-9" x="279.58" y="62.9" width="1.64" height="33.75"/></g><g id="LWPOLYLINE-74" data-name="LWPOLYLINE"><rect class="cls-9" x="303.14" y="225.84" width="1.64" height="33.75"/></g><g id="LWPOLYLINE-75" data-name="LWPOLYLINE"><rect class="cls-9" x="303.14" y="276.18" width="1.64" height="33.75"/></g><g id="LWPOLYLINE-76" data-name="LWPOLYLINE"><rect class="cls-9" x="196.2" y="141.29" width="28.13" height="1.64"/></g><g id="LWPOLYLINE-77" data-name="LWPOLYLINE"><rect class="cls-9" x="168.08" y="141.29" width="28.13" height="1.64"/></g><g id="LWPOLYLINE-78" data-name="LWPOLYLINE"><rect class="cls-9" x="190.35" y="195.2" width="22.55" height="1.64"/></g><g id="LWPOLYLINE-79" data-name="LWPOLYLINE"><rect class="cls-9" x="167.9" y="195.2" width="22.45" height="1.64"/></g><g id="LWPOLYLINE-80" data-name="LWPOLYLINE"><rect class="cls-10" x="237.89" y="300.38" width="33.75" height="2.11" transform="translate(-138.53 268.43) rotate(-45)"/></g><g id="LWPOLYLINE-81" data-name="LWPOLYLINE"><rect class="cls-10" x="262.1" y="113.23" width="2.11" height="33.75" transform="translate(-14.92 224.19) rotate(-45)"/></g><g id="LWPOLYLINE-82" data-name="LWPOLYLINE"><rect class="cls-10" x="206.76" y="212.21" width="33.75" height="2.11" transform="translate(-85.3 220.6) rotate(-45)"/></g><g id="LWPOLYLINE-83" data-name="LWPOLYLINE"><rect class="cls-9" x="145.17" y="239.97" width="33.75" height="1.64"/></g><g id="LWPOLYLINE-84" data-name="LWPOLYLINE"><rect class="cls-9" x="360.68" y="196.02" width="33.75" height="1.64"/></g><g id="ARC-26" data-name="ARC"><path class="cls-9" d="M275.83,312.62a34.26,34.26,0,0,0-8.39-22.37"/></g><g id="ARC-27" data-name="ARC"><path class="cls-9" d="M250.48,118.92a34.32,34.32,0,0,0-8.4,22.37"/></g><g id="ARC-28" data-name="ARC"><path class="cls-9" d="M212.44,226a34.27,34.27,0,0,0,22.38,8.39"/></g><g id="LWPOLYLINE-85" data-name="LWPOLYLINE"><path class="cls-11" d="M727.71,93.48l-9.93-26.31a28.11,28.11,0,0,1,9.93-1.81"/></g><g id="LWPOLYLINE-86" data-name="LWPOLYLINE"><path class="cls-11" d="M727.71,37.23l-9.93,26.32a28.33,28.33,0,0,0,9.93,1.81"/></g><g id="LWPOLYLINE-87" data-name="LWPOLYLINE"><path class="cls-11" d="M727.71,187.23l-9.93-26.31a28.11,28.11,0,0,1,9.93-1.81"/></g><g id="LWPOLYLINE-88" data-name="LWPOLYLINE"><path class="cls-11" d="M727.71,131l-9.93,26.32a28.33,28.33,0,0,0,9.93,1.81"/></g><line class="cls-12" x1="168.08" y1="144.81" x2="226.03" y2="144.81"/><g id="LWPOLYLINE-89" data-name="LWPOLYLINE"><rect class="cls-7" x="283.1" y="108.83" width="69.37" height="34.69"/></g><g id="LWPOLYLINE-90" data-name="LWPOLYLINE"><rect class="cls-7" x="287.79" y="113.52" width="61.05" height="24.38" rx="4.69"/></g><g id="CIRCLE-2" data-name="CIRCLE"><path class="cls-7" d="M293.52,123.6a2.11,2.11,0,1,1-2.11,2.11,2.1,2.1,0,0,1,2.11-2.11Z"/></g><g id="LWPOLYLINE-91" data-name="LWPOLYLINE"><rect class="cls-7" x="352.47" y="108.83" width="34.69" height="34.69"/></g><g id="LWPOLYLINE-92" data-name="LWPOLYLINE"><rect class="cls-13" x="352.36" y="108.84" width="34.83" height="0.83"/></g><g id="LWPOLYLINE-93" data-name="LWPOLYLINE"><rect class="cls-13" x="352.4" y="109.71" width="0.83" height="33.74"/></g><g id="ARC-29" data-name="ARC"><path class="cls-7" d="M379.88,126.11a3.29,3.29,0,1,1,0-.79"/></g><g id="LWPOLYLINE-94" data-name="LWPOLYLINE"><path class="cls-7" d="M376.64,125.32h10.52v.78H376.64a.4.4,0,0,1-.4-.39A.39.39,0,0,1,376.64,125.32Z"/></g><g id="ARC-30" data-name="ARC"><path class="cls-13" d="M289.9,125.31a3.25,3.25,0,1,1,0,.79"/></g><g id="LWPOLYLINE-95" data-name="LWPOLYLINE"><path class="cls-13" d="M293.14,126.1H282.61v-.78h10.53a.39.39,0,0,1,.4.39A.4.4,0,0,1,293.14,126.1Z"/></g><g id="LWPOLYLINE-96" data-name="LWPOLYLINE"><rect class="cls-7" x="203.88" y="241.02" width="30.94" height="58.72"/></g><g id="LWPOLYLINE-97" data-name="LWPOLYLINE"><path class="cls-7" d="M219.27,294.69h5.82a4.69,4.69,0,0,0,4.69-4.69V251.33a4.68,4.68,0,0,0-4.69-4.68H212.67a4.68,4.68,0,0,0-4.69,4.68V290a4.69,4.69,0,0,0,4.69,4.69h5.82"/></g><g id="ARC-31" data-name="ARC"><path class="cls-7" d="M219.33,291.51a3.65,3.65,0,1,0-.88,0"/></g><g id="LWPOLYLINE-98" data-name="LWPOLYLINE"><path class="cls-7" d="M218.49,288.3v11.43h.78V288.3a.39.39,0,1,0-.78,0Z"/></g><g id="LINE-17" data-name="LINE"><line class="cls-13" x1="337.68" y1="305.71" x2="337.68" y2="280.4"/></g><g id="LINE-18" data-name="LINE"><line class="cls-13" x1="337.68" y1="280.4" x2="309.79" y2="280.4"/></g><g id="LINE-19" data-name="LINE"><line class="cls-13" x1="309.79" y1="280.4" x2="309.79" y2="305.71"/></g><g id="LINE-20" data-name="LINE"><line class="cls-13" x1="309.79" y1="305.71" x2="337.68" y2="305.71"/></g><g id="LWPOLYLINE-99" data-name="LWPOLYLINE"><polygon class="cls-13" points="421.65 147.31 398.58 147.31 398.58 35.29 515.82 35.29 515.82 57.79 421.65 57.79 421.65 147.31"/></g><g id="LWPOLYLINE-100" data-name="LWPOLYLINE"><rect class="cls-13" x="459.58" y="100.04" width="59.53" height="37.5"/></g><g id="CIRCLE-3" data-name="CIRCLE"><path class="cls-7" d="M474.66,51.73a.7.7,0,1,1-.7.69.69.69,0,0,1,.7-.69Z"/></g><g id="CIRCLE-4" data-name="CIRCLE"><path class="cls-7" d="M479,51.73a.7.7,0,1,1-.7.69.69.69,0,0,1,.7-.69Z"/></g><g id="CIRCLE-5" data-name="CIRCLE"><path class="cls-7" d="M479,48.86a.7.7,0,1,1-.7.7.69.69,0,0,1,.7-.7Z"/></g><g id="CIRCLE-6" data-name="CIRCLE"><path class="cls-7" d="M476.84,48.86a.7.7,0,1,1-.7.7.7.7,0,0,1,.7-.7Z"/></g><g id="CIRCLE-7" data-name="CIRCLE"><path class="cls-7" d="M474.66,48.86a.7.7,0,1,1-.7.7.69.69,0,0,1,.7-.7Z"/></g><g id="LWPOLYLINE-101" data-name="LWPOLYLINE"><rect class="cls-7" x="463.35" y="39.27" width="26.99" height="16.03" rx="0.38"/></g><circle class="cls-7" cx="485.52" cy="43.42" r="1.32"/><path class="cls-7" d="M481.53,46.6V40.75a.55.55,0,0,1,.57-.55H489a.56.56,0,0,1,.57.55V46.6a.06.06,0,0,1,0,0h-7.89A.05.05,0,0,1,481.53,46.6Z"/><circle class="cls-7" cx="476.84" cy="43.42" r="1.32"/><path class="cls-7" d="M472.85,46.6V40.75a.55.55,0,0,1,.57-.55h6.85a.55.55,0,0,1,.56.55V46.6s0,0,0,0H472.9A.05.05,0,0,1,472.85,46.6Z"/><circle class="cls-7" cx="468.16" cy="43.42" r="1.32"/><path class="cls-7" d="M464.17,46.6V40.75a.55.55,0,0,1,.56-.55h6.86a.55.55,0,0,1,.56.55V46.6s0,0,0,0h-7.9S464.17,46.62,464.17,46.6Z"/><circle class="cls-7" cx="468.16" cy="50.99" r="1.32"/><path class="cls-7" d="M472.15,47.81v5.85a.56.56,0,0,1-.56.56h-6.86a.56.56,0,0,1-.56-.56V47.81a0,0,0,0,1,0,0h7.9A0,0,0,0,1,472.15,47.81Z"/><circle class="cls-7" cx="485.52" cy="50.99" r="1.32"/><path class="cls-7" d="M489.52,47.81v5.85a.57.57,0,0,1-.57.56H482.1a.56.56,0,0,1-.57-.56V47.81a0,0,0,0,1,.05,0h7.89S489.52,47.79,489.52,47.81Z"/><g id="LINE-21" data-name="LINE"><line class="cls-7" x1="515.44" y1="47.77" x2="514.77" y2="47.77"/><line class="cls-14" x1="513.46" y1="47.77" x2="411.49" y2="47.77"/><polyline class="cls-7" points="410.83 47.77 410.17 47.77 410.17 48.43"/><line class="cls-15" x1="410.17" y1="49.78" x2="410.17" y2="84.36"/><line class="cls-7" x1="410.17" y1="85.04" x2="410.17" y2="85.7"/></g><line class="cls-7" x1="482.58" y1="100.04" x2="482.58" y2="100.71"/><line class="cls-16" x1="482.58" y1="102.07" x2="482.58" y2="120.45"/><polyline class="cls-7" points="482.58 121.13 482.58 121.79 481.92 121.79"/><line class="cls-17" x1="480.64" y1="121.79" x2="463.36" y2="121.79"/><polyline class="cls-7" points="462.72 121.79 462.06 121.79 462.06 121.13"/><line class="cls-16" x1="462.06" y1="119.77" x2="462.06" y2="101.39"/><line class="cls-7" x1="462.06" y1="100.71" x2="462.06" y2="100.04"/><g id="LWPOLYLINE-102" data-name="LWPOLYLINE"><polyline class="cls-7" points="508.54 114.24 508.54 102.24 486.04 102.24 486.04 114.24 508.54 114.24"/></g><rect class="cls-13" x="494.77" y="115.2" width="2.74" height="1.15"/><path class="cls-13" d="M498.12,115.32a.87.87,0,0,0-.27-.27v-5.77a.41.41,0,0,0-.41-.42.42.42,0,0,0-.42.42v5.77a.8.8,0,0,0-.26,1.1.8.8,0,0,0,1.36-.83Z"/><line class="cls-7" x1="398.58" y1="85.7" x2="421.65" y2="85.7"/><line class="cls-7" x1="421.69" y1="121.85" x2="397.02" y2="121.85"/><g id="LWPOLYLINE-103" data-name="LWPOLYLINE"><line class="cls-18" x1="162.16" y1="182.07" x2="218.64" y2="182.07"/></g><g id="LWPOLYLINE-104" data-name="LWPOLYLINE"><line class="cls-18" x1="158.88" y1="156.06" x2="234.82" y2="156.06"/></g><g id="LWPOLYLINE-105" data-name="LWPOLYLINE"><polyline class="cls-18" points="168.4 95.36 168.72 49.54 223.57 49.54 223.57 95.36"/></g><g id="LWPOLYLINE-106" data-name="LWPOLYLINE"><line class="cls-18" x1="317.9" y1="263.29" x2="317.9" y2="222.15"/></g><g id="LWPOLYLINE-107" data-name="LWPOLYLINE"><polyline class="cls-19" points="459.58 128.17 512.08 128.17 512.08 100.04"/></g><g id="LINE-22" data-name="LINE"><line class="cls-8" x1="214.69" y1="175.55" x2="214.69" y2="188.6"/></g><g id="LINE-23" data-name="LINE"><line class="cls-8" x1="212.27" y1="175.55" x2="212.27" y2="188.6"/></g><g id="LINE-24" data-name="LINE"><line class="cls-8" x1="209.85" y1="175.55" x2="209.85" y2="188.6"/></g><g id="LINE-25" data-name="LINE"><line class="cls-8" x1="207.43" y1="175.55" x2="207.43" y2="188.6"/></g><g id="LINE-26" data-name="LINE"><line class="cls-8" x1="205.01" y1="175.55" x2="205.01" y2="188.6"/></g><g id="LINE-27" data-name="LINE"><line class="cls-8" x1="202.59" y1="188.6" x2="202.59" y2="175.55"/></g><g id="LINE-28" data-name="LINE"><line class="cls-8" x1="230.87" y1="149.53" x2="230.87" y2="162.59"/></g><g id="LINE-29" data-name="LINE"><line class="cls-8" x1="228.45" y1="149.53" x2="228.45" y2="162.59"/></g><g id="LINE-30" data-name="LINE"><line class="cls-8" x1="226.03" y1="149.53" x2="226.03" y2="162.59"/></g><g id="LINE-31" data-name="LINE"><line class="cls-8" x1="223.61" y1="149.53" x2="223.61" y2="162.59"/></g><g id="LINE-32" data-name="LINE"><line class="cls-8" x1="221.19" y1="149.53" x2="221.19" y2="162.59"/></g><g id="LINE-33" data-name="LINE"><line class="cls-8" x1="218.78" y1="162.59" x2="218.78" y2="149.53"/></g><g id="LINE-34" data-name="LINE"><line class="cls-8" x1="172.66" y1="43.01" x2="172.66" y2="56.06"/></g><g id="LINE-35" data-name="LINE"><line class="cls-8" x1="175.08" y1="43.01" x2="175.08" y2="56.06"/></g><g id="LINE-36" data-name="LINE"><line class="cls-8" x1="177.5" y1="43.01" x2="177.5" y2="56.06"/></g><g id="LINE-37" data-name="LINE"><line class="cls-8" x1="179.92" y1="43.01" x2="179.92" y2="56.06"/></g><g id="LINE-38" data-name="LINE"><line class="cls-8" x1="182.34" y1="43.01" x2="182.34" y2="56.06"/></g><g id="LINE-39" data-name="LINE"><line class="cls-8" x1="184.76" y1="56.06" x2="184.76" y2="43.01"/></g><g id="LINE-40" data-name="LINE"><line class="cls-8" x1="230.1" y1="91.41" x2="217.04" y2="91.41"/></g><g id="LINE-41" data-name="LINE"><line class="cls-8" x1="230.1" y1="88.99" x2="217.04" y2="88.99"/></g><g id="LINE-42" data-name="LINE"><line class="cls-8" x1="230.1" y1="86.57" x2="217.04" y2="86.57"/></g><g id="LINE-43" data-name="LINE"><line class="cls-8" x1="230.1" y1="84.15" x2="217.04" y2="84.15"/></g><g id="LINE-44" data-name="LINE"><line class="cls-8" x1="230.1" y1="81.73" x2="217.04" y2="81.73"/></g><g id="LINE-45" data-name="LINE"><line class="cls-8" x1="217.04" y1="79.31" x2="230.1" y2="79.31"/></g><g id="LINE-46" data-name="LINE"><line class="cls-8" x1="174.93" y1="91.41" x2="161.87" y2="91.41"/></g><g id="LINE-47" data-name="LINE"><line class="cls-8" x1="174.93" y1="88.99" x2="161.87" y2="88.99"/></g><g id="LINE-48" data-name="LINE"><line class="cls-8" x1="174.93" y1="86.57" x2="161.87" y2="86.57"/></g><g id="LINE-49" data-name="LINE"><line class="cls-8" x1="174.93" y1="84.15" x2="161.87" y2="84.15"/></g><g id="LINE-50" data-name="LINE"><line class="cls-8" x1="174.93" y1="81.73" x2="161.87" y2="81.73"/></g><g id="LINE-51" data-name="LINE"><line class="cls-8" x1="161.87" y1="79.31" x2="174.93" y2="79.31"/></g><g id="LINE-52" data-name="LINE"><line class="cls-8" x1="311.38" y1="226.1" x2="324.43" y2="226.1"/></g><g id="LINE-53" data-name="LINE"><line class="cls-8" x1="311.38" y1="228.52" x2="324.43" y2="228.52"/></g><g id="LINE-54" data-name="LINE"><line class="cls-8" x1="311.38" y1="230.94" x2="324.43" y2="230.94"/></g><g id="LINE-55" data-name="LINE"><line class="cls-8" x1="311.38" y1="233.36" x2="324.43" y2="233.36"/></g><g id="LINE-56" data-name="LINE"><line class="cls-8" x1="311.38" y1="235.78" x2="324.43" y2="235.78"/></g><g id="LINE-57" data-name="LINE"><line class="cls-8" x1="324.43" y1="238.2" x2="311.38" y2="238.2"/></g><g id="LWPOLYLINE-108" data-name="LWPOLYLINE"><rect class="cls-13" x="336.61" y="242.8" width="26.49" height="20.34"/></g><g id="LWPOLYLINE-109" data-name="LWPOLYLINE"><path class="cls-13" d="M357.89,246.78a1.14,1.14,0,0,0-1.13-1.14H343a1.14,1.14,0,0,0-1.14,1.14V257a1,1,0,0,0,.95.95H357a1,1,0,0,0,.94-.95Z"/></g><g id="ARC-32" data-name="ARC"><path class="cls-13" d="M373.35,246.19c-.36,3.24-1,11.81-1,11.81"/></g><g id="ARC-33" data-name="ARC"><path class="cls-13" d="M384.89,253.71a.87.87,0,0,0,.79-.53c.15-.36.28-.72.41-1.09a14.59,14.59,0,0,0,.65-3c.06-.54.11-1.09.14-1.63a16.48,16.48,0,0,0-.35-4.26,10.31,10.31,0,0,0-3.15-5.44,4.93,4.93,0,0,0-6.69.06,10.44,10.44,0,0,0-3,5.5,16.11,16.11,0,0,0-.27,4.27c0,.54.09,1.09.16,1.63a15.33,15.33,0,0,0,.72,3c.13.36.27.72.43,1.07a.86.86,0,0,0,.8.52Z"/></g><g id="ARC-34" data-name="ARC"><path class="cls-13" d="M386.89,246.06c.42,3.23,1,11.94,1,11.94"/></g><g id="ARC-35" data-name="ARC"><path class="cls-13" d="M372.32,257.85a1.12,1.12,0,0,1,1-1.06,56.76,56.76,0,0,1,13.62,0,1.11,1.11,0,0,1,1,1.06v0c.06,1.17.1,2.33.13,3.5a1.52,1.52,0,0,1-1.37,1.53q-3.27.28-6.56.28c-2.18,0-4.37-.09-6.55-.28a1.5,1.5,0,0,1-1.37-1.53c0-1.17.07-2.33.12-3.5Z"/></g><g id="ARC-36" data-name="ARC"><path class="cls-13" d="M349.37,259.35a1.19,1.19,0,1,0,1,0Z"/></g><g id="ARC-37" data-name="ARC"><path class="cls-13" d="M343.91,260.68a1.19,1.19,0,1,0,0-.48Z"/></g><g id="ARC-38" data-name="ARC"><path class="cls-13" d="M355.79,260.68a1.19,1.19,0,1,1,0-.48Z"/></g><g id="LINE-58" data-name="LINE"><path class="cls-13" d="M349.37,254.72v5.72a.48.48,0,1,0,1,0v-5.72a.48.48,0,0,0-1,0Z"/></g><line class="cls-13" x1="345.09" y1="260.44" x2="341.74" y2="260.44"/><line class="cls-13" x1="357.96" y1="260.44" x2="354.61" y2="260.44"/><g id="ARC-39" data-name="ARC"><path class="cls-13" d="M362.6,53.61c-.33-3-1-11-1-11"/></g><g id="ARC-40" data-name="ARC"><path class="cls-13" d="M373.31,46.64a.8.8,0,0,1,.73.49c.14.33.26.67.37,1a13.14,13.14,0,0,1,.61,2.78c.06.5.1,1,.13,1.51a14.64,14.64,0,0,1-.33,4,9.56,9.56,0,0,1-2.91,5,4.55,4.55,0,0,1-6.2-.06,9.6,9.6,0,0,1-2.82-5.1,15,15,0,0,1-.25-4c0-.5.09-1,.15-1.51a14,14,0,0,1,.67-2.77c.12-.34.25-.67.39-1a.82.82,0,0,1,.75-.48Z"/></g><g id="ARC-41" data-name="ARC"><path class="cls-13" d="M375.16,53.73c.39-3,1-11.07,1-11.07"/></g><g id="ARC-42" data-name="ARC"><path class="cls-13" d="M361.65,42.8a1,1,0,0,0,.92,1,51.42,51.42,0,0,0,6.32.38,51.14,51.14,0,0,0,6.31-.38,1,1,0,0,0,.92-1v0c.05-1.08.09-2.17.12-3.25A1.4,1.4,0,0,0,375,38.15c-2-.17-4-.26-6.07-.26s-4.06.09-6.08.26a1.38,1.38,0,0,0-1.27,1.42c0,1.08.06,2.17.11,3.25Z"/></g><g id="LWPOLYLINE-110" data-name="LWPOLYLINE"><path class="cls-7" d="M332.69,44h7.89a.87.87,0,0,1,.88.88V55.44a.87.87,0,0,1-.88.87H323.91a.87.87,0,0,1-.87-.87V44.91a.87.87,0,0,1,.87-.88h8.78Z"/></g><g id="ARC-43" data-name="ARC"><path class="cls-13" d="M331.8,41.85a1.12,1.12,0,0,1-.66-1,1.11,1.11,0,1,1,1.55,1Z"/></g><g id="ARC-44" data-name="ARC"><path class="cls-13" d="M326.74,40.61a1.11,1.11,0,1,1,0,.44Z"/></g><g id="ARC-45" data-name="ARC"><path class="cls-13" d="M337.75,40.61a1.11,1.11,0,0,0-2.19.22,1.11,1.11,0,0,0,1.11,1.11,1.09,1.09,0,0,0,1.08-.89Z"/></g><g id="LINE-59" data-name="LINE"><path class="cls-13" d="M331.8,46.14V40.83a.45.45,0,0,1,.89,0v5.31a.45.45,0,0,1-.89,0Z"/></g><line class="cls-13" x1="327.83" y1="40.83" x2="324.73" y2="40.83"/><line class="cls-13" x1="339.77" y1="40.83" x2="336.66" y2="40.83"/><g id="LWPOLYLINE-111" data-name="LWPOLYLINE"><path class="cls-7" d="M306.38,44h7.9a.87.87,0,0,1,.87.88V55.44a.87.87,0,0,1-.87.87H297.61a.88.88,0,0,1-.88-.87V44.91a.88.88,0,0,1,.88-.88h8.77Z"/></g><g id="LWPOLYLINE-112" data-name="LWPOLYLINE"><rect class="cls-7" x="289.93" y="37.89" width="63.16" height="21.05"/></g><g id="ARC-46" data-name="ARC"><path class="cls-13" d="M305.28,41.85a1.12,1.12,0,0,1-.66-1,1.1,1.1,0,0,1,1.1-1.1,1.11,1.11,0,0,1,.45,2.12Z"/></g><g id="ARC-47" data-name="ARC"><path class="cls-13" d="M300.22,40.61a1.11,1.11,0,1,1,0,.44Z"/></g><g id="ARC-48" data-name="ARC"><path class="cls-13" d="M311.23,40.61a1.11,1.11,0,1,0,0,.44Z"/></g><g id="LINE-60" data-name="LINE"><path class="cls-13" d="M305.28,46.14V40.83a.45.45,0,0,1,.89,0v5.31a.45.45,0,0,1-.89,0Z"/></g><line class="cls-13" x1="301.31" y1="40.83" x2="298.2" y2="40.83"/><line class="cls-13" x1="313.24" y1="40.83" x2="310.14" y2="40.83"/><g id="LWPOLYLINE-113" data-name="LWPOLYLINE"><rect class="cls-13" x="170.23" y="285.84" width="25.22" height="19.37"/></g><g id="LWPOLYLINE-114" data-name="LWPOLYLINE"><path class="cls-13" d="M175.19,289.62a1.08,1.08,0,0,1,1.08-1.08h13.15a1.08,1.08,0,0,1,1.08,1.08v9.73a.9.9,0,0,1-.9.91H176.09a.9.9,0,0,1-.9-.91Z"/></g><g id="ARC-49" data-name="ARC"><path class="cls-13" d="M160.47,289.07c.34,3.08,1,11.24,1,11.24"/></g><g id="ARC-50" data-name="ARC"><path class="cls-13" d="M149.48,296.23a.83.83,0,0,1-.75-.51c-.15-.34-.27-.68-.39-1a14.06,14.06,0,0,1-.63-2.86c-.06-.52-.1-1-.13-1.55a15.35,15.35,0,0,1,.34-4.06,9.84,9.84,0,0,1,3-5.18,4.68,4.68,0,0,1,6.37.06,9.81,9.81,0,0,1,2.9,5.24,15.34,15.34,0,0,1,.25,4.06c0,.52-.09,1-.16,1.55a14.78,14.78,0,0,1-.68,2.85c-.12.34-.26.69-.41,1a.81.81,0,0,1-.76.49Z"/></g><g id="ARC-51" data-name="ARC"><path class="cls-13" d="M147.57,288.94c-.4,3.08-1,11.37-1,11.37"/></g><g id="ARC-52" data-name="ARC"><path class="cls-13" d="M161.44,300.17a1.06,1.06,0,0,0-.94-1,54.11,54.11,0,0,0-13,0,1.06,1.06,0,0,0-.94,1v0c-.05,1.11-.09,2.23-.12,3.34a1.42,1.42,0,0,0,1.31,1.45q3.1.27,6.24.27t6.24-.27a1.42,1.42,0,0,0,1.3-1.45c0-1.11-.06-2.23-.12-3.34Z"/></g><g id="ARC-53" data-name="ARC"><path class="cls-13" d="M183.3,301.6a1.14,1.14,0,1,1-.91,0Z"/></g><g id="ARC-54" data-name="ARC"><path class="cls-13" d="M188.5,302.87a1.14,1.14,0,1,1,0-.46Z"/></g><g id="ARC-55" data-name="ARC"><path class="cls-13" d="M177.19,302.87a1.14,1.14,0,1,0,0-.46Z"/></g><g id="LINE-61" data-name="LINE"><path class="cls-13" d="M183.3,297.19v5.45a.46.46,0,0,1-.91,0v-5.45a.46.46,0,1,1,.91,0Z"/></g><line class="cls-13" x1="187.38" y1="302.64" x2="190.57" y2="302.64"/><line class="cls-13" x1="175.12" y1="302.64" x2="178.31" y2="302.64"/><g id="LWPOLYLINE-115" data-name="LWPOLYLINE"><polygon class="cls-20" points="0.2 288.01 0.2 291.76 2.08 291.76 2.08 321.19 83.06 321.16 83.06 321.18 144.12 321.18 239.15 321.18 239.15 318.36 242.08 318.36 242.08 312.62 238.33 312.62 238.33 234.34 234.82 234.34 234.82 238.09 178.92 238.09 178.92 241.61 234.82 241.61 234.82 299.73 202.94 299.73 202.94 305.36 139.19 305.36 139.19 241.61 145.17 241.61 145.17 238.09 139.19 238.09 139.19 234.34 135.68 234.34 135.68 311.92 17.07 311.92 17.07 288.01 9.23 288.01 0.2 288.01"/></g><g id="LWPOLYLINE-116" data-name="LWPOLYLINE"><polygon class="cls-20" points="0.2 211.14 0.2 214.89 38.76 214.89 38.76 183.95 135.68 183.95 135.68 199.18 139.19 199.18 139.19 196.84 167.9 196.84 167.9 193.32 162.16 193.32 162.16 170.82 218.64 170.82 218.64 193.32 212.9 193.32 212.9 196.84 234.82 196.84 234.82 200.59 238.33 200.59 238.33 149.26 242.08 149.26 242.08 141.29 224.33 141.29 224.33 144.81 234.82 144.81 234.82 167.31 158.88 167.31 158.88 144.81 168.08 144.81 168.08 141.29 158.88 141.29 158.88 137.54 155.37 137.54 155.37 167.31 135.68 167.31 135.68 178.21 17.07 178.21 17.07 153.01 11.45 153.01 11.45 152.07 0.2 152.07 0.2 155.82 2.08 155.82 2.08 211.14 0.2 211.14"/></g><g id="LWPOLYLINE-117" data-name="LWPOLYLINE"><polygon class="cls-20" points="0.2 58.33 0.2 62.08 11.45 62.08 11.45 63.01 17.07 63.01 17.07 38.29 155.37 38.29 155.37 103.79 158.88 103.79 158.88 98.87 179.33 98.87 179.33 95.36 158.88 95.36 158.88 38.29 234.82 38.29 234.82 95.36 213.08 95.36 213.08 98.87 238.33 98.87 238.33 55.98 279.58 55.98 279.58 62.9 283.1 62.9 283.1 37.7 387.16 37.7 387.16 143.52 283.1 143.52 283.1 96.64 279.58 96.64 279.58 141.29 275.83 141.29 275.83 149.26 422.08 149.26 422.08 145.75 398.65 145.75 398.65 35.36 515.6 35.36 515.6 58.79 519.12 58.79 519.12 30.32 709.78 30.32 709.78 35.36 744.58 35.36 744.58 31.61 742.38 30.43 740.4 28.9 738.71 27.07 737.33 24.98 736.33 22.69 735.71 20.27 735.5 17.78 735.71 15.29 736.33 12.87 737.33 10.58 738.71 8.49 740.4 6.66 742.38 5.13 744.58 3.95 744.58 0.2 530.37 0.2 530.37 4.42 273.96 4.42 273.96 9.57 2.08 9.57 2.08 58.33 0.2 58.33"/></g><g id="LWPOLYLINE-118" data-name="LWPOLYLINE"><polygon class="cls-20" points="275.83 318.36 289.78 318.36 289.78 321.18 305.83 321.18 305.83 321.2 343.57 321.16 343.57 276.76 401.05 276.76 401.05 219.87 464.8 219.87 482.67 219.87 744.58 219.87 744.58 219.11 742.38 217.86 740.43 216.24 738.79 214.31 737.52 212.12 736.64 209.74 736.2 207.25 736.2 204.72 736.64 202.22 737.52 199.84 738.79 197.65 740.43 195.72 742.38 194.11 744.58 192.86 744.58 189.11 709.78 189.11 709.78 217 586.73 217 586.73 190.86 394.43 190.86 394.43 197.66 398.18 197.66 398.18 263.29 332.67 263.29 332.67 197.66 360.68 197.66 360.68 190.86 303.14 190.86 303.14 225.84 306.65 225.84 306.65 222.15 329.15 222.15 329.15 263.29 306.65 263.29 306.65 259.59 303.14 259.59 303.14 276.18 306.65 276.18 306.65 273.48 339.58 273.48 339.58 315.43 306.65 315.43 306.65 309.93 303.14 309.93 303.14 312.62 275.83 312.62 275.83 318.36"/></g><g id="LWPOLYLINE-119" data-name="LWPOLYLINE"><polygon class="cls-20" points="722.08 121.59 722.08 129.11 744.58 129.11 744.58 125.36 742.38 124.11 740.43 122.49 738.79 120.56 737.52 118.37 736.64 115.99 736.2 113.5 736.2 110.97 736.64 108.47 737.52 106.09 738.79 103.9 740.43 101.97 742.38 100.36 744.58 99.11 744.58 95.36 722.08 95.36 722.08 121.59"/></g><path class="cls-21" d="M70.34,74.33h.88L73,78.78h0l1.82-4.45h.88v5.6h-.67V75.39h0l-1.89,4.54H72.9L71,75.39h0v4.54h-.66Z"/><path class="cls-21" d="M80.68,78.8H78.16l-.39,1.13h-.68l2-5.6h.64l2,5.6h-.67Zm-.2-.58-1-3h0l-1,3Z"/><path class="cls-21" d="M82.64,78.07,83.3,78A1.46,1.46,0,0,0,85,79.42c.78,0,1.29-.36,1.29-.9s-.38-.88-1.54-1.25c-1.34-.44-1.79-.83-1.79-1.58s.74-1.48,1.8-1.48a2,2,0,0,1,2,1.63l-.65.14a1.35,1.35,0,0,0-1.39-1.15c-.68,0-1.13.34-1.13.86s.32.66,1.34,1c1.46.48,2,1,2,1.84s-.8,1.54-2,1.54A2.06,2.06,0,0,1,82.64,78.07Z"/><path class="cls-21" d="M89.68,75H87.94v-.62h4.15V75H90.34v5h-.66Z"/><path class="cls-21" d="M93.56,74.33h3.36V75h-2.7v1.8h2.47v.59H94.22v2h2.7v.63H93.56Z"/><path class="cls-21" d="M101,77.63l1.23,2.3h-.77l-1.18-2.27H99.17v2.27h-.66v-5.6h2c1.17,0,1.86.62,1.86,1.66a1.54,1.54,0,0,1-1.4,1.62Zm-.52-.6c.83,0,1.26-.36,1.26-1s-.42-1-1.26-1H99.17V77Z"/><path class="cls-21" d="M67.83,82.83H70a1.46,1.46,0,0,1,1.63,1.45A1.19,1.19,0,0,1,71,85.43v0a1.33,1.33,0,0,1,.86,1.32c0,1.08-.67,1.66-2,1.66h-2Zm2,2.38q1.08,0,1.08-.9c0-.56-.36-.86-1.08-.86H68.48v1.76Zm-.1,2.59c1,0,1.39-.31,1.39-1s-.39-1-1.37-1h-1.3v2Z"/><path class="cls-21" d="M73.45,82.83h3.36v.62H74.1v1.8h2.48v.59H74.1v2h2.71v.63H73.45Z"/><path class="cls-21" d="M78.4,82.83h1.74c1.42,0,2.42,1,2.42,2.79,0,2-1,2.81-2.46,2.81H78.4Zm1.66,5c1.13,0,1.83-.6,1.83-2.18s-.7-2.17-1.79-2.17h-1V87.8Z"/><path class="cls-21" d="M86.69,86.13l1.23,2.3h-.77L86,86.16H84.84v2.27h-.65v-5.6h2c1.16,0,1.86.62,1.86,1.66a1.54,1.54,0,0,1-1.4,1.62Zm-.52-.6c.82,0,1.26-.36,1.26-1s-.43-1-1.26-1H84.84v2.08Z"/><path class="cls-21" d="M89.35,85.63c0-1.75,1-2.92,2.36-2.92s2.36,1.17,2.36,2.92-.94,2.92-2.36,2.92S89.35,87.38,89.35,85.63Zm4.06,0c0-1.42-.65-2.3-1.7-2.3S90,84.21,90,85.63s.64,2.29,1.69,2.29S93.41,87,93.41,85.63Z"/><path class="cls-21" d="M95.41,85.63c0-1.75,1-2.92,2.36-2.92s2.36,1.17,2.36,2.92-.94,2.92-2.36,2.92S95.41,87.38,95.41,85.63Zm4.06,0c0-1.42-.65-2.3-1.7-2.3s-1.69.88-1.69,2.3.65,2.29,1.69,2.29S99.47,87,99.47,85.63Z"/><path class="cls-21" d="M101.76,82.83h.88l1.82,4.45h0l1.82-4.45h.88v5.6h-.67V83.89h0l-1.89,4.54h-.28l-1.89-4.54h0v4.54h-.66Z"/><path class="cls-21" d="M61.92,92.08l-1.25.81v-.7L62,91.33h.58v5.6h-.66Z"/><path class="cls-21" d="M65.05,96.3h3v.63H64.34V96.4a2,2,0,0,1,.23-1.06c.2-.37.55-.64,1.43-1.1,1.16-.6,1.49-.93,1.49-1.49s-.49-.92-1.16-.92a1.3,1.3,0,0,0-1.4,1.36l-.67,0a1.93,1.93,0,0,1,2.07-1.93,1.68,1.68,0,0,1,1.83,1.54c0,.82-.42,1.31-1.65,1.93-.94.47-1.19.66-1.34.94A1.45,1.45,0,0,0,65.05,96.3Z"/><path class="cls-21" d="M69.88,91.33h.59v1.78h-.59Z"/><path class="cls-21" d="M71.6,93.74h2.09v.6H71.6Z"/><path class="cls-21" d="M75,95.45l.65-.16A1.41,1.41,0,1,0,77,93.71a1.81,1.81,0,0,0-1.35.59l-.58-.15.53-2.82h2.94V92H76.15l-.31,1.56h0a2.13,2.13,0,0,1,1.29-.38,1.88,1.88,0,0,1,1.94,1.93,1.93,1.93,0,0,1-2,2A2,2,0,0,1,75,95.45Z"/><path class="cls-21" d="M80.34,91.33h.59v1.78h-.59Zm1.06,0H82v1.78H81.4Z"/><path class="cls-21" d="M85.68,95.49,87,94.19,85.68,92.9l.39-.39,1.29,1.31,1.29-1.31.39.39-1.31,1.29L89,95.49l-.39.39-1.29-1.31-1.29,1.31Z"/><path class="cls-21" d="M93.22,92.08,92,92.89v-.7l1.33-.86h.59v5.6h-.67Z"/><path class="cls-21" d="M96.35,96.3h3v.63H95.64V96.4a2,2,0,0,1,.24-1.06c.2-.37.54-.64,1.42-1.1,1.16-.6,1.49-.93,1.49-1.49s-.48-.92-1.16-.92a1.3,1.3,0,0,0-1.4,1.36l-.67,0a1.93,1.93,0,0,1,2.07-1.93,1.68,1.68,0,0,1,1.83,1.54c0,.82-.42,1.31-1.65,1.93-.94.47-1.19.66-1.33.94A1.43,1.43,0,0,0,96.35,96.3Z"/><path class="cls-21" d="M101.18,91.33h.59v1.78h-.59Z"/><path class="cls-21" d="M103.18,93.74h2.09v.6h-2.09Z"/><path class="cls-21" d="M110.64,93.79c0,2.27-.61,3.26-2,3.26a1.79,1.79,0,0,1-1.8-1.43l.61-.16a1.18,1.18,0,0,0,1.19,1c.89,0,1.31-.57,1.36-2h0a1.7,1.7,0,0,1-1.43.64,1.8,1.8,0,0,1-2-1.92,1.88,1.88,0,0,1,2-1.9C109.81,91.21,110.64,92.07,110.64,93.79Zm-.77-.64a1.33,1.33,0,1,0-1.32,1.29A1.25,1.25,0,0,0,109.87,93.15Z"/><path class="cls-21" d="M112.23,91.33h.58v1.78h-.58Zm1,0h.58v1.78h-.58Z"/><path class="cls-21" d="M52.76,209.29h2.15a1.46,1.46,0,0,1,1.63,1.45,1.2,1.2,0,0,1-.66,1.15v0a1.33,1.33,0,0,1,.87,1.32c0,1.08-.68,1.66-2,1.66h-2Zm2,2.37c.72,0,1.09-.29,1.09-.89s-.37-.86-1.09-.86H53.41v1.75Zm-.1,2.6c1,0,1.39-.31,1.39-1s-.39-1-1.37-1h-1.3v2Z"/><path class="cls-21" d="M58.38,209.29h3.36v.62H59v1.79h2.47v.6H59v2h2.7v.63H58.38Z"/><path class="cls-21" d="M63.33,209.29h1.74c1.42,0,2.42,1,2.42,2.79,0,2-1,2.81-2.46,2.81h-1.7Zm1.66,5c1.13,0,1.84-.6,1.84-2.18s-.71-2.17-1.8-2.17H64v4.35Z"/><path class="cls-21" d="M71.62,212.58l1.23,2.31h-.77l-1.19-2.27H69.77v2.27h-.65v-5.6h2c1.17,0,1.86.62,1.86,1.66a1.55,1.55,0,0,1-1.4,1.62ZM71.1,212c.83,0,1.26-.36,1.26-1s-.43-1-1.26-1H69.77V212Z"/><path class="cls-21" d="M74.28,212.09c0-1.75,1-2.92,2.36-2.92S79,210.34,79,212.09,78.06,215,76.64,215,74.28,213.84,74.28,212.09Zm4.06,0c0-1.42-.65-2.3-1.7-2.3s-1.69.88-1.69,2.3.65,2.29,1.69,2.29S78.34,213.5,78.34,212.09Z"/><path class="cls-21" d="M80.34,212.09c0-1.75,1-2.92,2.36-2.92s2.36,1.17,2.36,2.92S84.12,215,82.7,215,80.34,213.84,80.34,212.09Zm4.06,0c0-1.42-.65-2.3-1.7-2.3s-1.69.88-1.69,2.3.65,2.29,1.69,2.29S84.4,213.5,84.4,212.09Z"/><path class="cls-21" d="M86.69,209.29h.88l1.82,4.45h0l1.82-4.45h.88v5.6h-.67v-4.54h0l-1.89,4.54h-.28l-1.89-4.54h0v4.54h-.66Z"/><path class="cls-21" d="M97.13,214.26h3v.63H96.43v-.53a2,2,0,0,1,.23-1.06c.2-.37.54-.64,1.42-1.1,1.16-.6,1.5-.93,1.5-1.49s-.49-.92-1.17-.92a1.3,1.3,0,0,0-1.4,1.36l-.66-.05a1.92,1.92,0,0,1,2.06-1.93,1.68,1.68,0,0,1,1.83,1.54c0,.82-.41,1.31-1.65,1.93-.93.47-1.19.66-1.33.94A1.56,1.56,0,0,0,97.13,214.26Z"/><path class="cls-21" d="M52.52,218.54l-1.25.81v-.7l1.33-.86h.59v5.6h-.67Z"/><path class="cls-21" d="M56,218.54l-1.25.81v-.7l1.33-.86h.58v5.6H56Z"/><path class="cls-21" d="M58.58,217.79h.59v1.78h-.59Z"/><path class="cls-21" d="M60.3,220.2h2.09v.6H60.3Z"/><path class="cls-21" d="M66.23,222.24h-2.8v-.57l2.47-3.88h1v3.87h.71v.58H66.9v1.15h-.67Zm0-.58v-3.35h0l-2.13,3.35Z"/><path class="cls-21" d="M69,217.79h.58v1.78H69Zm1,0h.59v1.78H70Z"/><path class="cls-21" d="M74.3,222l1.31-1.3-1.31-1.29.39-.39L76,220.28l1.3-1.31.39.39-1.31,1.29,1.31,1.3-.39.39L76,221l-1.29,1.31Z"/><path class="cls-21" d="M81.85,218.54l-1.25.81v-.7l1.33-.86h.58v5.6h-.66Z"/><path class="cls-21" d="M85.28,218.54l-1.24.81v-.7l1.32-.86H86v5.6h-.67Z"/><path class="cls-21" d="M87.91,217.79h.58v1.78h-.58Z"/><path class="cls-21" d="M89.91,220.2H92v.6H89.91Z"/><path class="cls-21" d="M93.44,220.59c0-1.82.9-2.92,2.21-2.92s2.22,1.1,2.22,2.92-.91,2.92-2.22,2.92S93.44,222.4,93.44,220.59Zm3.77,0c0-1.46-.62-2.3-1.56-2.3s-1.55.84-1.55,2.3.62,2.29,1.55,2.29S97.21,222.05,97.21,220.59Z"/><path class="cls-21" d="M99.39,217.79H100v1.78h-.58Zm1.06,0H101v1.78h-.58Z"/><path class="cls-21" d="M596.93,101h.66v5h2.52v.62h-3.18Z"/><path class="cls-21" d="M601.58,101h.66v5.6h-.66Z"/><path class="cls-21" d="M603.58,101h.69l1.66,4.72h0l1.67-4.72h.69l-2,5.6h-.7Z"/><path class="cls-21" d="M609.66,101h.65v5.6h-.65Z"/><path class="cls-21" d="M612.22,101H613l2.54,4.57h0V101h.66v5.6h-.78l-2.54-4.56h0v4.56h-.66Z"/><path class="cls-21" d="M617.85,103.82c0-1.77.93-2.92,2.36-2.92a2.08,2.08,0,0,1,2.13,1.85l-.66.12a1.43,1.43,0,0,0-1.47-1.34c-1.05,0-1.69.88-1.69,2.29s.64,2.3,1.69,2.3a1.43,1.43,0,0,0,1.5-1.64h-1.43v-.63h2.07v.57a2.08,2.08,0,0,1-2.14,2.32C618.78,106.74,617.85,105.6,617.85,103.82Z"/><path class="cls-21" d="M626,106.74l2.86-6,.45.2-2.87,6Z"/><path class="cls-21" d="M633.2,101H635c1.41,0,2.41,1,2.41,2.79,0,2-1,2.81-2.46,2.81h-1.7Zm1.66,5c1.13,0,1.84-.6,1.84-2.19,0-1.43-.71-2.16-1.79-2.16h-1V106Z"/><path class="cls-21" d="M639,101h.66v5.6H639Z"/><path class="cls-21" d="M641.57,101h.77l2.55,4.57h0V101h.67v5.6h-.79l-2.54-4.56h0v4.56h-.65Z"/><path class="cls-21" d="M647.49,101h.66v5.6h-.66Z"/><path class="cls-21" d="M650.06,101h.77l2.55,4.57h0V101h.67v5.6h-.79l-2.54-4.56h0v4.56h-.65Z"/><path class="cls-21" d="M655.69,103.82c0-1.77.92-2.92,2.35-2.92a2.08,2.08,0,0,1,2.13,1.85l-.65.12a1.43,1.43,0,0,0-1.48-1.34c-1,0-1.69.88-1.69,2.29s.65,2.3,1.69,2.3a1.43,1.43,0,0,0,1.5-1.64h-1.42v-.63h2.07v.57a2.09,2.09,0,0,1-2.15,2.32C656.61,106.74,655.69,105.6,655.69,103.82Z"/><path class="cls-21" d="M666.86,104.32l1.23,2.3h-.77l-1.19-2.27H665v2.27h-.65V101h2a1.63,1.63,0,0,1,1.86,1.66,1.54,1.54,0,0,1-1.4,1.62Zm-.52-.59c.83,0,1.26-.36,1.26-1s-.43-1-1.26-1H665v2.08Z"/><path class="cls-21" d="M669.52,103.82c0-1.75,1-2.92,2.36-2.92s2.36,1.17,2.36,2.92-.94,2.92-2.36,2.92S669.52,105.57,669.52,103.82Zm4.06,0c0-1.41-.65-2.29-1.7-2.29s-1.69.88-1.69,2.29.64,2.3,1.69,2.3S673.58,105.24,673.58,103.82Z"/><path class="cls-21" d="M675.58,103.82c0-1.75.95-2.92,2.36-2.92s2.36,1.17,2.36,2.92-.94,2.92-2.36,2.92S675.58,105.57,675.58,103.82Zm4.06,0c0-1.41-.65-2.29-1.7-2.29s-1.69.88-1.69,2.29.64,2.3,1.69,2.3S679.64,105.24,679.64,103.82Z"/><path class="cls-21" d="M681.93,101h.88l1.82,4.45h0l1.82-4.45h.88v5.6h-.67v-4.54h0l-1.89,4.54h-.28l-1.89-4.54h0v4.54h-.66Z"/><path class="cls-21" d="M616.91,110.28l-1.24.8v-.69l1.32-.87h.59v5.6h-.67Z"/><path class="cls-21" d="M623.5,113.31a1.88,1.88,0,0,1-2,1.93c-1.46,0-2.3-1.09-2.3-2.83s1-3,2.32-3a1.8,1.8,0,0,1,1.87,1.5l-.62.15a1.18,1.18,0,0,0-1.23-1c-.92,0-1.6.87-1.66,2.22h0a1.9,1.9,0,0,1,1.67-.84A1.86,1.86,0,0,1,623.5,113.31Zm-.65,0a1.28,1.28,0,0,0-1.34-1.34,1.33,1.33,0,1,0,0,2.66A1.27,1.27,0,0,0,622.85,113.31Z"/><path class="cls-21" d="M625,109.52h.58v1.79H625Z"/><path class="cls-21" d="M626.75,111.93h2.08v.6h-2.08Z"/><path class="cls-21" d="M632.15,110.16h-2.91v-.63h3.66v.58l-2.27,5h-.75Z"/><path class="cls-21" d="M634.52,109.52h.58v1.79h-.58Zm1.06,0h.58v1.79h-.58Z"/><path class="cls-21" d="M639.86,113.68l1.31-1.29-1.31-1.3.39-.39,1.29,1.31,1.29-1.31.39.39-1.31,1.3,1.31,1.29-.39.39-1.29-1.31-1.29,1.31Z"/><path class="cls-21" d="M647.4,110.28l-1.25.8v-.69l1.33-.87h.58v5.6h-.66Z"/><path class="cls-21" d="M649.61,113.56a1.56,1.56,0,0,1,1-1.5v0a1.24,1.24,0,0,1-.74-1.16,1.79,1.79,0,0,1,3.52,0,1.25,1.25,0,0,1-.74,1.16v0a1.56,1.56,0,0,1,1,1.5c0,1-.81,1.68-2.06,1.68S649.61,114.57,649.61,113.56Zm3.45,0c0-.67-.53-1.1-1.38-1.1s-1.39.43-1.39,1.1.54,1.08,1.39,1.08S653.06,114.19,653.06,113.52Zm-.28-2.6c0-.55-.44-.92-1.1-.92s-1.1.37-1.1.92.44.87,1.1.87S652.78,111.45,652.78,110.92Z"/><path class="cls-21" d="M655.17,109.52h.59v1.79h-.59Z"/><path class="cls-21" d="M657.17,111.93h2.09v.6h-2.09Z"/><path class="cls-21" d="M665,113.31a1.88,1.88,0,0,1-2,1.93c-1.47,0-2.3-1.09-2.3-2.83s1-3,2.32-3a1.8,1.8,0,0,1,1.87,1.5l-.62.15a1.18,1.18,0,0,0-1.23-1c-.92,0-1.6.87-1.66,2.22h0a1.9,1.9,0,0,1,1.67-.84A1.86,1.86,0,0,1,665,113.31Zm-.65,0A1.28,1.28,0,0,0,663,112a1.32,1.32,0,0,0-1.41,1.34,1.3,1.3,0,0,0,1.42,1.32A1.27,1.27,0,0,0,664.33,113.31Z"/><path class="cls-21" d="M666.51,109.52h.58v1.79h-.58Zm1.06,0h.58v1.79h-.58Z"/><path class="cls-21" d="M258.8,256h3.37v.62h-2.71v2H262v.59h-2.49v2.39h-.66Z"/><path class="cls-21" d="M263.73,258.84c0-1.75.94-2.92,2.35-2.92s2.36,1.17,2.36,2.92-.94,2.91-2.36,2.91S263.73,260.59,263.73,258.84Zm4,0c0-1.42-.65-2.3-1.7-2.3s-1.69.88-1.69,2.3.65,2.29,1.69,2.29S267.78,260.25,267.78,258.84Z"/><path class="cls-21" d="M271.43,259.3l-2-3.26h.77l1.51,2.61h0l1.52-2.61h.77l-2,3.26v2.34h-.67Z"/><path class="cls-21" d="M275.7,256h3.36v.62h-2.7v1.79h2.48V259h-2.48v2h2.7v.63H275.7Z"/><path class="cls-21" d="M283.48,259.33l1.23,2.31h-.78l-1.18-2.28h-1.12v2.28H281V256h2c1.17,0,1.86.62,1.86,1.65a1.55,1.55,0,0,1-1.39,1.63Zm-.52-.59c.82,0,1.25-.36,1.25-1.05s-.42-1-1.25-1h-1.33v2.08Z"/><path class="cls-21" d="M315.73,289.45h.68l.83,4.55h0l1.38-4.55h.63l1.39,4.55h0l.82-4.55h.68l-1,5.6h-.8L319,290.56h0l-1.37,4.49h-.81Z"/><path class="cls-21" d="M323.11,295.17l2.85-6,.45.2-2.86,6Z"/><path class="cls-21" d="M328.1,289.45h1.74c1.42,0,2.42,1,2.42,2.79,0,2-1,2.81-2.46,2.81h-1.7Zm1.66,5c1.13,0,1.83-.6,1.83-2.19,0-1.43-.7-2.16-1.79-2.16h-1v4.35Z"/><path class="cls-21" d="M410.87,104.35l1.23,2.3h-.77l-1.19-2.27H409v2.27h-.65v-5.6h2c1.17,0,1.86.63,1.86,1.66a1.54,1.54,0,0,1-1.4,1.62Zm-.52-.59c.82,0,1.26-.36,1.26-1.05s-.43-1-1.26-1H409v2.08Z"/><path class="cls-21" d="M406.9,131h.68l.82,4.55h0L409.8,131h.62l1.39,4.55h0l.82-4.55h.68l-1,5.6h-.8l-1.37-4.49h0l-1.36,4.49h-.81Z"/><path class="cls-21" d="M466.87,108.16h1.74c1.42,0,2.42,1,2.42,2.79,0,2-1,2.81-2.47,2.81h-1.69Zm1.65,5c1.14,0,1.84-.6,1.84-2.19,0-1.43-.7-2.16-1.79-2.16h-1.05v4.35Z"/><path class="cls-21" d="M471.79,108.16h.68l.83,4.55h0l1.39-4.55h.62l1.39,4.55h0l.82-4.55h.68l-1,5.6h-.8L475,109.27h0l-1.37,4.49h-.81Z"/><polygon class="cls-21" points="255.41 337.68 260.81 323.28 266.2 337.68 255.41 337.68"/></g></g></svg>