<?xml version="1.0" encoding="utf-8"?>
<!-- Generator: Adobe Illustrator 22.1.0, SVG Export Plug-In . SVG Version: 6.00 Build 0)  -->
<svg version="1.1" id="Layer_1" xmlns="http://www.w3.org/2000/svg" xmlns:xlink="http://www.w3.org/1999/xlink" x="0px" y="0px"
	 viewBox="0 0 173 170" style="enable-background:new 0 0 173 170;" xml:space="preserve">
<title>Group</title>
<desc>Created with Sketch.</desc>
<g>
	<g>
		<path d="M21.1,35.5l-2.8,3.7l-1.1-0.8l6.6-8.5l1.1,0.8L22,34.4l8.6,6.6l-0.9,1.2L21.1,35.5z"/>
		<path d="M29,24.4l1.2-1l3.4,4.1l5.7-4.7l-3.4-4.1l1.2-1l7.9,9.4l-1.2,1l-3.6-4.3l-5.7,4.7l3.6,4.3l-1.2,1L29,24.4z"/>
		<path d="M56.1,17.7L49.8,21l0.2,2.8l-1.4,0.7l-0.7-13.4l1.4-0.7l10.5,8.4l-1.4,0.7L56.1,17.7z M55,16.8l-5.7-4.7l0,0l0.4,7.4
			L55,16.8z"/>
		<path d="M61,5.4L62.6,5l9.6,8l0,0l-2.5-9.8l1.5-0.4l3,11.9l-1.6,0.4l-9.6-8l0,0l2.5,9.8L64,17.3L61,5.4z"/>
		<path d="M79.7,1.8l1.5,0l0.2,6.5l0,0l6.1-6.7l2.2-0.1L84.6,7l5.7,6.8l-1.9,0.1L83.6,8l0,0l-2.1,2.3l0.1,3.6L80,14L79.7,1.8z"/>
		<path d="M107.6,11.9l-3-8.5l1.7,0.5l2.3,6.9l0,0l5.7-4.5l1.8,0.5l-7.2,5.5l-1.4,4.8l-1.5-0.4L107.6,11.9z"/>
		<path d="M119.1,14.7c1.8-3.2,5.4-4.3,8.6-2.4c3.3,1.9,4.1,5.5,2.3,8.7c-1.8,3.2-5.4,4.3-8.6,2.4C118.2,21.5,117.3,17.9,119.1,14.7
			z M128.8,20.2c1.5-2.6,0.8-5.3-1.7-6.7c-2.4-1.4-5.1-0.6-6.6,2c-1.5,2.6-0.8,5.3,1.7,6.7S127.3,22.8,128.8,20.2z"/>
		<path d="M134.3,25.9l5.2-5.6l1.1,1l-5.1,5.5c-1.8,1.9-1.6,3.5,0.3,5.2c1.8,1.7,3.4,1.8,5.2-0.1l5.1-5.5l1.1,1l-5.2,5.6
			c-2.3,2.5-4.7,2.3-7.2,0C132.3,30.8,132,28.4,134.3,25.9z"/>
		<path d="M144.7,40.5l1.3,1.7l-1.7,1.2l-1.3-1.7L144.7,40.5z M153,34.7l0.9,1.2l-6.9,5.2l-0.9-1.2L153,34.7z"/>
	</g>
	<g>
		<g>
			<path d="M16.8,94.9l0.4,1.5L8,101.3l0,0l10.8,1.1l0.4,1.4l-8.8,6.4l0,0l10.4-0.4l0.4,1.5l-12.6,0.5l-0.5-1.8l8.7-6.4l0,0
				l-10.7-1.2l-0.5-1.7L16.8,94.9z"/>
			<path d="M23.3,115.2l4.3,7.7l-1.2,0.7l-3.5-6.4l-3.4,1.9l3.3,5.9l-1.1,0.6l-3.3-5.9l-3.8,2.1l3.5,6.4l-1.2,0.7l-4.3-7.7
				L23.3,115.2z"/>
			<path d="M28.2,128.9c0.4,0.4,0.8,0.4,1.3,0l-0.6-0.7l1.5-1.2l1.3,1.7l-1.3,1c-1,0.8-2,0.7-2.9-0.3L28.2,128.9z"/>
			<path d="M35.4,132.9l1.1,1l-7.5,7.8l4.9,4.7l-1,1l-6-5.8L35.4,132.9z"/>
			<path d="M45.2,141.6l1.3,0.8l-5.9,9.1l5.7,3.7l-0.8,1.2l-7-4.6L45.2,141.6z"/>
			<path d="M63.5,151.2l5.9,1.6c2.1,0.6,3.1,2.1,2.6,4c-0.3,1.2-1.1,1.9-2.1,2.1l0,0c1,0.7,1.5,1.9,1.1,3.3
				c-0.6,2.3-2.4,3.1-5.1,2.3l-5.7-1.5L63.5,151.2z M66.1,163.2c2.1,0.6,3.1,0.1,3.5-1.3c0.4-1.5-0.3-2.3-2.3-2.9l-4-1.1l-1.1,4.2
				L66.1,163.2z M67.8,157.8c1.6,0.4,2.5,0,2.8-1.3c0.3-1.1-0.3-2-1.8-2.4l-4.2-1.1l-1,3.7L67.8,157.8z"/>
			<path d="M78.2,154.5l8.8,0.5l-0.1,1.4l-7.3-0.4l-0.2,3.9l6.7,0.4l-0.1,1.3l-6.7-0.4l-0.2,4.3l7.3,0.4l-0.1,1.4l-8.8-0.5
				L78.2,154.5z"/>
			<path d="M99.9,153.6l1.5-0.3l2.5,12l-1.5,0.3L99.9,153.6z"/>
			<path d="M107,152.1l1.5-0.6l10.5,6.7l0,0l-3.7-9.4l1.4-0.6l4.5,11.4l-1.5,0.6l-10.5-6.7l0,0l3.7,9.4l-1.4,0.5L107,152.1z"/>
			<path d="M131.9,140l-3.5,3l-0.9-1.1l8.2-6.9l0.9,1.1l-3.5,3l7,8.3l-1.1,1L131.9,140z"/>
			<path d="M143.3,135.9c-2.9-2.2-3.5-5.9-1.3-8.9c2.3-3,6-3.4,8.9-1.2c2.9,2.2,3.6,5.9,1.3,8.9C150,137.7,146.3,138.1,143.3,135.9z
				 M150,127.1c-2.4-1.8-5.2-1.5-6.9,0.8s-1.3,5,1.1,6.8c2.4,1.8,5.2,1.5,6.9-0.8S152.4,128.9,150,127.1z"/>
			<path d="M155.3,121.1l-6.9-3.1l0.6-1.4l6.9,3c2.4,1,3.8,0.3,4.8-2c1-2.3,0.6-3.8-1.8-4.9l-6.9-3l0.6-1.4l6.9,3.1
				c3.1,1.4,3.7,3.7,2.4,6.8C160.6,121.4,158.4,122.5,155.3,121.1z"/>
			<path d="M160.1,105.1c-3.6-0.7-5.8-3.8-5.1-7.4c0.5-2.9,2.6-4.9,5.1-5l0.1,1.5c-2.1,0.1-3.4,1.6-3.8,3.7c-0.5,2.7,1.1,5,4,5.6
				s5.3-1,5.8-3.7c0.4-2.1-0.4-4-2.5-4.9l0.6-1.4c2.6,1,3.8,3.6,3.3,6.6C166.9,103.7,163.7,105.8,160.1,105.1z"/>
			<path d="M156.6,87.5l-0.1-1.5l5.3-0.2l-0.3-7.4l-5.3,0.2l-0.1-1.5l12.2-0.5l0.1,1.5l-5.6,0.2l0.3,7.4l5.6-0.2l0.1,1.5L156.6,87.5
				z"/>
		</g>
	</g>
</g>
</svg>
