<svg xmlns="http://www.w3.org/2000/svg" viewBox="0 0 65.5 48.87" height="50px" width="50px">
  <title>Slider Right Arrow</title>
  <g>
    <g>
      <polygon points="37.83 44.46 55.4 26.8 0.75 26.65 0.76 21.9 55.37 22.04 37.83 4.41 41.2 1.06 64.44 24.43 41.2 47.81 37.83 44.46"/>
      <path d="M41.19,2.12,63.38,24.43,41.19,46.75l-2.3-2.29L57.2,26.05,1.5,25.9V22.65l55.66.15L38.89,4.41l2.3-2.29M41.2,0,40.13,1.06l-2.3,2.29L36.77,4.41l1,1.06L53.56,21.29l-52-.14H0V27.4H1.5l52.1.14L37.82,43.4l-1,1.06,1.06,1.06,2.3,2.29,1.07,1.06,1.06-1.06L64.45,25.49l1-1.06-1-1.05L42.26,1.06Z" style="fill: #fff"/>
    </g>
  </g>
</svg>
