<svg xmlns="http://www.w3.org/2000/svg" viewBox="0 0 65.5 48.87" height="50px" width="50px">
  <title>Slider Left Arrow</title>
  <g>
    <g>
      <polygon points="27.67 4.41 10.1 22.08 64.75 22.23 64.74 26.98 10.13 26.83 27.67 44.46 24.3 47.81 1.06 24.44 24.3 1.06 27.67 4.41"/>
      <path d="M24.31,46.75,2.12,24.44,24.31,2.12l2.3,2.29L8.3,22.82,64,23v3.25L8.33,26.07,26.61,44.46l-2.3,2.29m0,2.12,1.07-1,2.3-2.3,1.06-1.05L27.68,43.4,11.94,27.58,64,27.72h1.5V21.47H64l-52.1-.14L27.68,5.47l1.05-1.06L27.67,3.35l-2.3-2.29L24.3,0,23.24,1.06,1.05,23.38,0,24.44,1.05,25.5,23.24,47.81Z" style="fill: #fff"/>
    </g>
  </g>
</svg>
