<svg xmlns="http://www.w3.org/2000/svg" viewBox="0 0 792.49 448.53"><defs><style>.cls-1{fill:#231f20;}.cls-12,.cls-2,.cls-4,.cls-5,.cls-6{fill:#fff;}.cls-10,.cls-11,.cls-12,.cls-13,.cls-14,.cls-15,.cls-16,.cls-17,.cls-18,.cls-2,.cls-3,.cls-4,.cls-5,.cls-6,.cls-7,.cls-8,.cls-9{stroke:#231f20;}.cls-11,.cls-12,.cls-13,.cls-14,.cls-15,.cls-16,.cls-17,.cls-2,.cls-5,.cls-6,.cls-7,.cls-8,.cls-9{stroke-linecap:round;stroke-linejoin:round;}.cls-2{stroke-width:0.15px;}.cls-10,.cls-11,.cls-13,.cls-14,.cls-15,.cls-16,.cls-17,.cls-3,.cls-7,.cls-8,.cls-9{fill:none;}.cls-10,.cls-18,.cls-3,.cls-4{stroke-miterlimit:10;}.cls-3,.cls-4,.cls-6,.cls-7{stroke-width:0.15px;}.cls-10,.cls-13,.cls-14,.cls-15,.cls-16,.cls-17,.cls-5,.cls-9{stroke-width:0.25px;}.cls-18,.cls-8{stroke-width:0.4px;}.cls-11,.cls-12{stroke-width:0.2px;}.cls-13{stroke-dasharray:1.32 1.32;}.cls-14{stroke-dasharray:2 2;}.cls-15{stroke-dasharray:1.36 1.36;}.cls-16{stroke-dasharray:1.27 1.27;}.cls-17{stroke-dasharray:1.32 1.32;}.cls-18{fill:#dee2e1;}</style></defs><title>Asset 8</title><g id="Layer_2" data-name="Layer 2"><g id="Unit12-14D_Rest"><path class="cls-1" d="M456.62,103.78h.88l1.82,4.44h0l1.82-4.44H462v5.59h-.67v-4.54h0l-1.89,4.54h-.28l-1.89-4.54h0v4.54h-.66Z"/><path class="cls-1" d="M467,108.25h-2.52l-.39,1.12h-.68l2-5.59H466l2,5.59h-.68Zm-.2-.58-1-3h0l-1,3Z"/><path class="cls-1" d="M468.93,107.52l.65-.11a1.46,1.46,0,0,0,1.66,1.46c.77,0,1.28-.36,1.28-.9s-.37-.88-1.54-1.25c-1.33-.44-1.78-.83-1.78-1.58s.73-1.48,1.79-1.48a2,2,0,0,1,2,1.63l-.65.13a1.34,1.34,0,0,0-1.39-1.14c-.68,0-1.13.34-1.13.86s.32.66,1.35,1c1.45.47,2,1,2,1.84s-.79,1.53-1.95,1.53A2,2,0,0,1,468.93,107.52Z"/><path class="cls-1" d="M476,104.4h-1.74v-.62h4.15v.62h-1.74v5H476Z"/><path class="cls-1" d="M479.84,103.78h3.36v.62h-2.7v1.79H483v.59H480.5v2h2.7v.62h-3.36Z"/><path class="cls-1" d="M487.3,107.07l1.23,2.3h-.78l-1.18-2.27h-1.12v2.27h-.66v-5.59h2c1.17,0,1.87.62,1.87,1.65a1.54,1.54,0,0,1-1.4,1.62Zm-.52-.59c.82,0,1.25-.36,1.25-1s-.42-1-1.25-1h-1.33v2.08Z"/><path class="cls-1" d="M454.11,112.28h2.15a1.45,1.45,0,0,1,1.63,1.44,1.21,1.21,0,0,1-.66,1.16h0a1.35,1.35,0,0,1,.87,1.33c0,1.08-.68,1.65-2,1.65h-2Zm2,2.37c.73,0,1.09-.29,1.09-.89s-.37-.86-1.09-.86h-1.38v1.75Zm-.1,2.6c1,0,1.39-.31,1.39-1s-.39-1-1.37-1h-1.3v2Z"/><path class="cls-1" d="M459.73,112.28h3.36v.62h-2.7v1.79h2.48v.59h-2.48v2h2.7v.62h-3.36Z"/><path class="cls-1" d="M464.68,112.28h1.75c1.41,0,2.41,1,2.41,2.79,0,2-1,2.8-2.46,2.8h-1.7Zm1.66,5c1.13,0,1.84-.6,1.84-2.18,0-1.43-.71-2.17-1.79-2.17h-1.05v4.35Z"/><path class="cls-1" d="M473,115.57l1.23,2.3h-.77l-1.18-2.27h-1.12v2.27h-.66v-5.59h2c1.17,0,1.86.62,1.86,1.65a1.54,1.54,0,0,1-1.4,1.62Zm-.52-.59c.83,0,1.26-.36,1.26-1s-.42-1-1.26-1h-1.32V115Z"/><path class="cls-1" d="M475.64,115.08c0-1.76.94-2.92,2.36-2.92s2.35,1.16,2.35,2.92S479.41,118,478,118,475.64,116.83,475.64,115.08Zm4.05,0c0-1.42-.65-2.3-1.69-2.3s-1.7.88-1.7,2.3.65,2.29,1.7,2.29S479.69,116.49,479.69,115.08Z"/><path class="cls-1" d="M481.7,115.08c0-1.76.94-2.92,2.36-2.92s2.35,1.16,2.35,2.92-.94,2.91-2.35,2.91S481.7,116.83,481.7,115.08Zm4.05,0c0-1.42-.65-2.3-1.69-2.3s-1.7.88-1.7,2.3.65,2.29,1.7,2.29S485.75,116.49,485.75,115.08Z"/><path class="cls-1" d="M488,112.28h.88l1.82,4.44h0l1.81-4.44h.88v5.59h-.66v-4.54h0l-1.89,4.54h-.28l-1.88-4.54h0v4.54H488Z"/><path class="cls-1" d="M448.43,121.53l-1.24.81v-.7l1.32-.86h.59v5.59h-.67Z"/><path class="cls-1" d="M450.69,124.89l.65-.16a1.42,1.42,0,1,0,1.43-1.58,1.81,1.81,0,0,0-1.35.59l-.58-.14.53-2.82h2.94v.62h-2.43l-.31,1.55h0a2.08,2.08,0,0,1,1.29-.38,1.87,1.87,0,0,1,1.94,1.92,1.93,1.93,0,0,1-2.05,2A2,2,0,0,1,450.69,124.89Z"/><path class="cls-1" d="M456.07,120.78h.59v1.78h-.59Z"/><path class="cls-1" d="M457.79,123.18h2.09v.6h-2.09Z"/><path class="cls-1" d="M461.1,124.51l.66-.1c.11,1,.58,1.46,1.4,1.46a1.07,1.07,0,0,0,1.2-1.08c0-.76-.43-1.12-1.32-1.12h-.4v-.57h.4c.67,0,1.18-.4,1.18-.91s-.4-.93-1.07-.93a1.19,1.19,0,0,0-1.26,1.06l-.65-.1a1.8,1.8,0,0,1,1.91-1.56,1.54,1.54,0,0,1,1.73,1.48,1.34,1.34,0,0,1-.76,1.18v0a1.48,1.48,0,0,1,.9,1.45,1.69,1.69,0,0,1-1.86,1.7A2,2,0,0,1,461.1,124.51Z"/><path class="cls-1" d="M466.66,120.78h.59v1.78h-.59Zm1.06,0h.58v1.78h-.58Z"/><path class="cls-1" d="M472,124.93l1.31-1.29-1.31-1.3.39-.39,1.29,1.31L475,122l.39.39-1.31,1.3,1.31,1.29-.39.4L473.68,124l-1.29,1.32Z"/><path class="cls-1" d="M479.54,121.53l-1.25.81v-.7l1.33-.86h.59v5.59h-.67Z"/><path class="cls-1" d="M481.8,124.51l.65-.1c.11,1,.59,1.46,1.41,1.46a1.07,1.07,0,0,0,1.2-1.08c0-.76-.43-1.12-1.32-1.12h-.4v-.57h.4a1.05,1.05,0,0,0,1.17-.91c0-.57-.39-.93-1.06-.93a1.18,1.18,0,0,0-1.26,1.06l-.65-.1a1.8,1.8,0,0,1,1.91-1.56,1.54,1.54,0,0,1,1.73,1.48,1.36,1.36,0,0,1-.76,1.18v0a1.47,1.47,0,0,1,.89,1.45,1.68,1.68,0,0,1-1.85,1.7A2,2,0,0,1,481.8,124.51Z"/><path class="cls-1" d="M487.37,120.78H488v1.78h-.59Z"/><path class="cls-1" d="M489.37,123.18h2.09v.6h-2.09Z"/><path class="cls-1" d="M493.45,125.75h3v.62h-3.72v-.52a2,2,0,0,1,.23-1.07c.2-.37.55-.64,1.43-1.09,1.16-.6,1.49-.94,1.49-1.5s-.49-.91-1.16-.91a1.3,1.3,0,0,0-1.4,1.36l-.67-.06a1.93,1.93,0,0,1,2.07-1.92,1.68,1.68,0,0,1,1.83,1.53c0,.83-.42,1.31-1.65,1.94-.94.47-1.19.65-1.34.93A1.47,1.47,0,0,0,493.45,125.75Z"/><path class="cls-1" d="M498.28,120.78h.58v1.78h-.58Zm1.05,0h.59v1.78h-.59Z"/><g id="LWPOLYLINE"><rect class="cls-2" x="427.96" y="54.76" width="109.85" height="119.83"/></g><g id="LWPOLYLINE-2" data-name="LWPOLYLINE"><rect class="cls-2" x="274.02" y="54.38" width="109.69" height="139.06"/></g><g id="LWPOLYLINE-3" data-name="LWPOLYLINE"><path class="cls-3" d="M240,149.17a12.92,12.92,0,0,1,1.17,1.17A12,12,0,0,1,240,167.23l-.92-1.06H228.15V150.23h10.91Z"/></g><g id="LWPOLYLINE-4" data-name="LWPOLYLINE"><path class="cls-3" d="M240,126.67a12.92,12.92,0,0,1,1.17,1.17A12,12,0,0,1,240,144.73l-.92-1.06H228.15V127.73h10.91Z"/></g><g id="LWPOLYLINE-5" data-name="LWPOLYLINE"><rect class="cls-4" x="579.25" y="77.07" width="15" height="46.65"/></g><g id="LWPOLYLINE-6" data-name="LWPOLYLINE"><rect class="cls-4" x="500.38" y="341.66" width="15" height="39.77"/></g><g id="LWPOLYLINE-7" data-name="LWPOLYLINE"><rect class="cls-4" x="753.55" y="363.47" width="15.94" height="22.5"/></g><g id="LWPOLYLINE-8" data-name="LWPOLYLINE"><rect class="cls-4" x="645.35" y="343.33" width="15" height="56.25"/></g><g id="LWPOLYLINE-9" data-name="LWPOLYLINE"><path class="cls-4" d="M240,149.17a12.92,12.92,0,0,1,1.17,1.17A12,12,0,0,1,240,167.23l-.92-1.06H228.15V150.23h10.91Z"/></g><g id="LWPOLYLINE-10" data-name="LWPOLYLINE"><path class="cls-4" d="M240,126.67a12.92,12.92,0,0,1,1.17,1.17A12,12,0,0,1,240,144.73l-.92-1.06H228.15V127.73h10.91Z"/></g><g id="LWPOLYLINE-11" data-name="LWPOLYLINE"><path class="cls-3" d="M240,104.17a12.92,12.92,0,0,1,1.17,1.17A12,12,0,0,1,240,122.23l-.92-1.06H228.15V105.23h10.91Z"/></g><g id="LWPOLYLINE-12" data-name="LWPOLYLINE"><path class="cls-4" d="M240,104.17a12.92,12.92,0,0,1,1.17,1.17A12,12,0,0,1,240,122.23l-.92-1.06H228.15V105.23h10.91Z"/></g><g id="LWPOLYLINE-13" data-name="LWPOLYLINE"><path class="cls-3" d="M239.89,82.27a11.65,11.65,0,0,1,1.17,1.16,12,12,0,0,1-1.17,16.89L239,99.26h-10.9V83.33H239Z"/></g><g id="LWPOLYLINE-14" data-name="LWPOLYLINE"><path class="cls-4" d="M239.89,82.27a11.65,11.65,0,0,1,1.17,1.16,12,12,0,0,1-1.17,16.89L239,99.26h-10.9V83.33H239Z"/></g><rect class="cls-5" x="433.35" y="283.44" width="25.31" height="27.89"/><rect class="cls-5" x="462.88" y="283.44" width="25.31" height="27.89"/><g id="LWPOLYLINE-15" data-name="LWPOLYLINE"><path class="cls-3" d="M510.78,81.07h-3.14a2.81,2.81,0,0,0-2.81,2.81v60a2.81,2.81,0,0,0,2.81,2.81h3.14a3.75,3.75,0,0,0,2.65-1.09l3.43-3.43a3.78,3.78,0,0,0,1.1-2.65V88.25a3.75,3.75,0,0,0-1.1-2.65l-3.43-3.43A3.72,3.72,0,0,0,510.78,81.07Z"/></g><g id="WIPEOUT"><rect class="cls-6" x="360.19" y="261.69" width="19.69" height="18.52"/><polyline class="cls-6" points="360.19 261.69 360.19 280.2 379.88 280.2 379.88 261.69 360.19 261.69"/></g><g id="LINE"><line class="cls-7" x1="379.88" y1="279.03" x2="360.19" y2="279.03"/></g><g id="LINE-2" data-name="LINE"><line class="cls-7" x1="379.88" y1="262.86" x2="360.19" y2="262.86"/></g><g id="LINE-3" data-name="LINE"><line class="cls-7" x1="361.6" y1="262.86" x2="361.6" y2="279.03"/></g><g id="LINE-4" data-name="LINE"><line class="cls-7" x1="363.71" y1="262.86" x2="363.71" y2="279.03"/></g><g id="LINE-5" data-name="LINE"><line class="cls-7" x1="363.71" y1="262.86" x2="363.71" y2="279.03"/></g><g id="LWPOLYLINE-16" data-name="LWPOLYLINE"><rect class="cls-6" x="369.57" y="242.82" width="24.37" height="56.25"/></g><g id="LWPOLYLINE-17" data-name="LWPOLYLINE"><line class="cls-7" x1="240.73" y1="152.08" x2="228.15" y2="152.08"/></g><g id="LWPOLYLINE-18" data-name="LWPOLYLINE"><line class="cls-7" x1="240.73" y1="164.32" x2="228.15" y2="164.32"/></g><g id="LWPOLYLINE-19" data-name="LWPOLYLINE"><path class="cls-7" d="M239.06,166.17a10.56,10.56,0,0,0,1-14.91,11,11,0,0,0-1-1"/></g><g id="LWPOLYLINE-20" data-name="LWPOLYLINE"><line class="cls-7" x1="240.73" y1="129.58" x2="228.15" y2="129.58"/></g><g id="LWPOLYLINE-21" data-name="LWPOLYLINE"><line class="cls-7" x1="240.73" y1="141.82" x2="228.15" y2="141.82"/></g><g id="LWPOLYLINE-22" data-name="LWPOLYLINE"><path class="cls-7" d="M239.06,143.67a10.56,10.56,0,0,0,1-14.91,11,11,0,0,0-1-1"/></g><g id="LWPOLYLINE-23" data-name="LWPOLYLINE"><line class="cls-7" x1="240.73" y1="152.08" x2="228.15" y2="152.08"/></g><g id="LWPOLYLINE-24" data-name="LWPOLYLINE"><line class="cls-7" x1="240.73" y1="164.32" x2="228.15" y2="164.32"/></g><g id="LWPOLYLINE-25" data-name="LWPOLYLINE"><path class="cls-7" d="M239.06,166.17a10.56,10.56,0,0,0,1-14.91,11,11,0,0,0-1-1"/></g><g id="LWPOLYLINE-26" data-name="LWPOLYLINE"><line class="cls-7" x1="240.73" y1="129.58" x2="228.15" y2="129.58"/></g><g id="LWPOLYLINE-27" data-name="LWPOLYLINE"><line class="cls-7" x1="240.73" y1="141.82" x2="228.15" y2="141.82"/></g><g id="LWPOLYLINE-28" data-name="LWPOLYLINE"><path class="cls-7" d="M239.06,143.67a10.56,10.56,0,0,0,1-14.91,11,11,0,0,0-1-1"/></g><g id="LWPOLYLINE-29" data-name="LWPOLYLINE"><line class="cls-7" x1="240.73" y1="107.08" x2="228.15" y2="107.08"/></g><g id="LWPOLYLINE-30" data-name="LWPOLYLINE"><line class="cls-7" x1="240.73" y1="119.32" x2="228.15" y2="119.32"/></g><g id="LWPOLYLINE-31" data-name="LWPOLYLINE"><path class="cls-7" d="M239.06,121.17a10.56,10.56,0,0,0,1-14.91,11,11,0,0,0-1-1"/></g><g id="LWPOLYLINE-32" data-name="LWPOLYLINE"><line class="cls-7" x1="240.73" y1="107.08" x2="228.15" y2="107.08"/></g><g id="LWPOLYLINE-33" data-name="LWPOLYLINE"><line class="cls-7" x1="240.73" y1="119.32" x2="228.15" y2="119.32"/></g><g id="LWPOLYLINE-34" data-name="LWPOLYLINE"><path class="cls-7" d="M239.06,121.17a10.56,10.56,0,0,0,1-14.91,11,11,0,0,0-1-1"/></g><g id="LWPOLYLINE-35" data-name="LWPOLYLINE"><line class="cls-7" x1="240.65" y1="85.18" x2="228.07" y2="85.18"/></g><g id="LWPOLYLINE-36" data-name="LWPOLYLINE"><line class="cls-7" x1="240.65" y1="97.41" x2="228.07" y2="97.41"/></g><g id="LWPOLYLINE-37" data-name="LWPOLYLINE"><path class="cls-7" d="M239,99.26a10.56,10.56,0,0,0,1-14.9,10,10,0,0,0-1-1"/></g><g id="LWPOLYLINE-38" data-name="LWPOLYLINE"><line class="cls-7" x1="240.65" y1="85.18" x2="228.07" y2="85.18"/></g><g id="LWPOLYLINE-39" data-name="LWPOLYLINE"><line class="cls-7" x1="240.65" y1="97.41" x2="228.07" y2="97.41"/></g><g id="LWPOLYLINE-40" data-name="LWPOLYLINE"><path class="cls-7" d="M239,99.26a10.56,10.56,0,0,0,1-14.9,10,10,0,0,0-1-1"/></g><g id="LWPOLYLINE-41" data-name="LWPOLYLINE"><rect class="cls-6" x="561.05" y="333.42" width="80.63" height="56.25"/></g><g id="LINE-6" data-name="LINE"><line class="cls-7" x1="638.86" y1="389.67" x2="638.86" y2="333.42"/></g><g id="LINE-7" data-name="LINE"><line class="cls-7" x1="563.86" y1="389.67" x2="563.86" y2="333.42"/></g><g id="LWPOLYLINE-42" data-name="LWPOLYLINE"><rect class="cls-7" x="621.64" y="335.96" width="14.68" height="24.31"/></g><g id="LWPOLYLINE-43" data-name="LWPOLYLINE"><rect class="cls-7" x="621.64" y="362.82" width="14.68" height="24.31"/></g><g id="LWPOLYLINE-44" data-name="LWPOLYLINE"><rect class="cls-6" x="688.96" y="323.85" width="80.63" height="35.63"/></g><g id="LINE-8" data-name="LINE"><line class="cls-6" x1="766.77" y1="359.47" x2="766.77" y2="323.85"/></g><g id="LWPOLYLINE-45" data-name="LWPOLYLINE"><rect class="cls-6" x="749.55" y="326.39" width="14.68" height="30.54"/></g><g id="LINE-9" data-name="LINE"><line class="cls-6" x1="766.77" y1="359.47" x2="766.77" y2="323.85"/></g><line class="cls-6" x1="691.77" y1="359.47" x2="691.77" y2="323.85"/><g id="LWPOLYLINE-46" data-name="LWPOLYLINE"><rect class="cls-6" x="688.96" y="390.06" width="80.63" height="35.63"/></g><g id="LINE-10" data-name="LINE"><line class="cls-6" x1="766.77" y1="390.06" x2="766.77" y2="425.68"/></g><g id="LWPOLYLINE-47" data-name="LWPOLYLINE"><rect class="cls-6" x="749.55" y="392.6" width="14.68" height="30.54"/></g><g id="LINE-11" data-name="LINE"><line class="cls-6" x1="766.77" y1="390.06" x2="766.77" y2="425.68"/></g><line class="cls-6" x1="691.77" y1="390.06" x2="691.77" y2="425.68"/><g id="LWPOLYLINE-48" data-name="LWPOLYLINE"><rect class="cls-6" x="625.78" y="311.51" width="15.9" height="15.94"/></g><g id="LWPOLYLINE-49" data-name="LWPOLYLINE"><rect class="cls-6" x="625.78" y="395.63" width="15.9" height="15.94"/></g><g id="LWPOLYLINE-50" data-name="LWPOLYLINE"><polygon class="cls-6" points="563.68 80.48 562.37 78.57 562.06 78.78 561.49 78.93 560.97 78.67 559.73 77.18 558.71 75.97 557.87 74.89 556.8 73.43 555.85 72.07 555.47 71.53 555.18 71.07 554.81 70.49 554.4 69.84 553.47 68.29 552.64 66.82 552.02 65.65 551.96 65.06 552.3 64.59 552.61 64.38 550.93 61.94 569.65 49.08 582.39 67.62 563.68 80.48"/></g><g id="LINE-12" data-name="LINE"><line class="cls-7" x1="571.32" y1="51.51" x2="552.61" y2="64.38"/></g><g id="LINE-13" data-name="LINE"><line class="cls-7" x1="562.36" y1="78.57" x2="581.08" y2="65.71"/></g><g id="ARC"><path class="cls-7" d="M567.15,54.38a40.2,40.2,0,0,0,9.76,14.19"/></g><g id="ARC-2" data-name="ARC"><path class="cls-7" d="M569.93,52.47a100.59,100.59,0,0,0,9.76,14.19"/></g><g id="LWPOLYLINE-51" data-name="LWPOLYLINE"><path class="cls-6" d="M241.92,254.55h17.82l-.29-5.81a3.76,3.76,0,0,0-3.75-3.56H246a3.76,3.76,0,0,0-3.75,3.56Z"/></g><g id="LWPOLYLINE-52" data-name="LWPOLYLINE"><path class="cls-6" d="M258.33,254.55l-.29-5.74a2.34,2.34,0,0,0-2.34-2.22H246a2.34,2.34,0,0,0-2.34,2.22l-.29,5.74"/></g><g id="LWPOLYLINE-53" data-name="LWPOLYLINE"><path class="cls-6" d="M220.72,254.55h17.81l-.29-5.81a3.76,3.76,0,0,0-3.75-3.56h-9.74a3.75,3.75,0,0,0-3.74,3.56Z"/></g><g id="LWPOLYLINE-54" data-name="LWPOLYLINE"><path class="cls-6" d="M237.12,254.55l-.29-5.74a2.34,2.34,0,0,0-2.34-2.22h-9.74a2.34,2.34,0,0,0-2.34,2.22l-.29,5.74"/></g><g id="LWPOLYLINE-55" data-name="LWPOLYLINE"><path class="cls-6" d="M263.13,254.55h17.81l-.29-5.81a3.75,3.75,0,0,0-3.74-3.56h-9.74a3.76,3.76,0,0,0-3.75,3.56Z"/></g><g id="LWPOLYLINE-56" data-name="LWPOLYLINE"><path class="cls-6" d="M279.63,254.79l-.29-5.74a2.34,2.34,0,0,0-2.34-2.23h-9.74a2.34,2.34,0,0,0-2.34,2.23l-.28,5.74"/></g><g id="LWPOLYLINE-57" data-name="LWPOLYLINE"><path class="cls-6" d="M259.74,276.18H241.92l.29,5.81a3.76,3.76,0,0,0,3.75,3.57h9.74a3.76,3.76,0,0,0,3.75-3.57Z"/></g><g id="LWPOLYLINE-58" data-name="LWPOLYLINE"><path class="cls-6" d="M243.33,276.18l.29,5.74a2.34,2.34,0,0,0,2.34,2.23h9.74a2.34,2.34,0,0,0,2.34-2.23l.29-5.74"/></g><g id="LWPOLYLINE-59" data-name="LWPOLYLINE"><path class="cls-6" d="M280.94,276.18H263.13l.29,5.81a3.76,3.76,0,0,0,3.75,3.57h9.74a3.75,3.75,0,0,0,3.74-3.57Z"/></g><g id="LWPOLYLINE-60" data-name="LWPOLYLINE"><path class="cls-6" d="M264.54,276.18l.29,5.74a2.34,2.34,0,0,0,2.34,2.23h9.74a2.34,2.34,0,0,0,2.34-2.23l.29-5.74"/></g><g id="LWPOLYLINE-61" data-name="LWPOLYLINE"><path class="cls-6" d="M284.34,254.55h17.81l-.29-5.81a3.76,3.76,0,0,0-3.75-3.56h-9.74a3.75,3.75,0,0,0-3.74,3.56Z"/></g><g id="LWPOLYLINE-62" data-name="LWPOLYLINE"><path class="cls-6" d="M300.84,254.79l-.29-5.74a2.34,2.34,0,0,0-2.34-2.23h-9.74a2.34,2.34,0,0,0-2.34,2.23l-.29,5.74"/></g><g id="LWPOLYLINE-63" data-name="LWPOLYLINE"><path class="cls-6" d="M302.15,276.18H284.34l.29,5.81a3.75,3.75,0,0,0,3.74,3.57h9.74a3.76,3.76,0,0,0,3.75-3.57Z"/></g><g id="LWPOLYLINE-64" data-name="LWPOLYLINE"><path class="cls-6" d="M285.75,276.18l.28,5.74a2.36,2.36,0,0,0,2.34,2.23h9.74a2.36,2.36,0,0,0,2.35-2.23l.28-5.74"/></g><g id="LWPOLYLINE-65" data-name="LWPOLYLINE"><path class="cls-6" d="M238.53,276.18H220.72L221,282a3.75,3.75,0,0,0,3.74,3.57h9.74a3.76,3.76,0,0,0,3.75-3.57Z"/></g><g id="LWPOLYLINE-66" data-name="LWPOLYLINE"><path class="cls-6" d="M222,276l.29,5.74a2.33,2.33,0,0,0,2.34,2.22h9.74a2.33,2.33,0,0,0,2.34-2.22L237,276"/></g><g id="LWPOLYLINE-67" data-name="LWPOLYLINE"><rect class="cls-6" x="214.89" y="250.99" width="93.09" height="28.12"/></g><g id="LWPOLYLINE-68" data-name="LWPOLYLINE"><rect class="cls-6" x="422.01" y="78.26" width="80.63" height="71.25"/></g><g id="LWPOLYLINE-69" data-name="LWPOLYLINE"><rect class="cls-6" x="422.01" y="151.5" width="15.94" height="20.16"/></g><g id="LWPOLYLINE-70" data-name="LWPOLYLINE"><rect class="cls-6" x="422.01" y="56.11" width="15.94" height="20.16"/></g><g id="LWPOLYLINE-71" data-name="LWPOLYLINE"><rect class="cls-7" x="427.37" y="115.16" width="14.68" height="31.81"/></g><g id="LINE-15" data-name="LINE"><line class="cls-7" x1="424.83" y1="78.26" x2="424.83" y2="149.51"/></g><g id="LINE-16" data-name="LINE"><line class="cls-7" x1="499.83" y1="78.26" x2="499.83" y2="149.51"/></g><g id="LWPOLYLINE-72" data-name="LWPOLYLINE"><rect class="cls-7" x="427.37" y="80.8" width="14.68" height="31.81"/></g><line class="cls-7" x1="443.7" y1="149.51" x2="443.7" y2="78.26"/><line class="cls-7" x1="446.13" y1="149.51" x2="446.13" y2="78.26"/><g id="LWPOLYLINE-73" data-name="LWPOLYLINE"><rect class="cls-6" x="376.44" y="84.9" width="15" height="78.16"/></g><g id="CIRCLE"><path class="cls-7" d="M320.87,124.75a19.36,19.36,0,1,1,19.36,19.35,19.36,19.36,0,0,1-19.36-19.35Z"/></g><rect class="cls-6" x="364.56" y="122.17" width="44.9" height="1.76" transform="translate(510.06 -263.96) rotate(90)"/><g id="LWPOLYLINE-74" data-name="LWPOLYLINE"><rect class="cls-6" x="276.29" y="169.18" width="18.44" height="17.7"/></g><g id="LWPOLYLINE-75" data-name="LWPOLYLINE"><rect class="cls-6" x="276.29" y="61.09" width="18.44" height="17.7"/></g><g id="LWPOLYLINE-76" data-name="LWPOLYLINE"><rect class="cls-6" x="313.51" y="181.92" width="53.44" height="16.88" rx="1.88"/></g><g id="CIRCLE-2" data-name="CIRCLE"><path class="cls-7" d="M335.54,194.58a.47.47,0,1,1,.47.46.47.47,0,0,1-.47-.46Z"/></g><g id="CIRCLE-3" data-name="CIRCLE"><path class="cls-7" d="M335.54,186.14a.47.47,0,1,1,.47.47.47.47,0,0,1-.47-.47Z"/></g><g id="CIRCLE-4" data-name="CIRCLE"><path class="cls-7" d="M344,194.58a.47.47,0,1,1,.47.46.47.47,0,0,1-.47-.46Z"/></g><g id="CIRCLE-5" data-name="CIRCLE"><path class="cls-7" d="M344,186.14a.47.47,0,1,1,.47.47.47.47,0,0,1-.47-.47Z"/></g><g id="CIRCLE-6" data-name="CIRCLE"><path class="cls-7" d="M352.41,194.58a.47.47,0,1,1,.47.46.47.47,0,0,1-.47-.46Z"/></g><g id="CIRCLE-7" data-name="CIRCLE"><path class="cls-7" d="M352.41,186.14a.47.47,0,1,1,.47.47.47.47,0,0,1-.47-.47Z"/></g><g id="CIRCLE-8" data-name="CIRCLE"><path class="cls-7" d="M360.85,194.58a.47.47,0,1,1,.47.46.47.47,0,0,1-.47-.46Z"/></g><g id="CIRCLE-9" data-name="CIRCLE"><path class="cls-7" d="M360.85,186.14a.47.47,0,1,1,.47.47.47.47,0,0,1-.47-.47Z"/></g><g id="CIRCLE-10" data-name="CIRCLE"><path class="cls-7" d="M327.1,194.58a.47.47,0,1,1,.47.46.47.47,0,0,1-.47-.46Z"/></g><g id="CIRCLE-11" data-name="CIRCLE"><path class="cls-7" d="M327.1,186.14a.47.47,0,1,1,.47.47.47.47,0,0,1-.47-.47Z"/></g><g id="CIRCLE-12" data-name="CIRCLE"><path class="cls-7" d="M318.66,194.58a.47.47,0,1,1,.47.46.47.47,0,0,1-.47-.46Z"/></g><g id="CIRCLE-13" data-name="CIRCLE"><path class="cls-7" d="M318.66,186.14a.47.47,0,1,1,.47.47.47.47,0,0,1-.47-.47Z"/></g><g id="CIRCLE-14" data-name="CIRCLE"><path class="cls-7" d="M335.54,194.58a.47.47,0,1,1,.47.46.47.47,0,0,1-.47-.46Z"/></g><g id="CIRCLE-15" data-name="CIRCLE"><path class="cls-7" d="M335.54,186.14a.47.47,0,1,1,.47.47.47.47,0,0,1-.47-.47Z"/></g><g id="CIRCLE-16" data-name="CIRCLE"><path class="cls-7" d="M344,194.58a.47.47,0,1,1,.47.46.47.47,0,0,1-.47-.46Z"/></g><g id="CIRCLE-17" data-name="CIRCLE"><path class="cls-7" d="M344,186.14a.47.47,0,1,1,.47.47.47.47,0,0,1-.47-.47Z"/></g><g id="CIRCLE-18" data-name="CIRCLE"><path class="cls-7" d="M352.41,194.58a.47.47,0,1,1,.47.46.47.47,0,0,1-.47-.46Z"/></g><g id="CIRCLE-19" data-name="CIRCLE"><path class="cls-7" d="M352.41,186.14a.47.47,0,1,1,.47.47.47.47,0,0,1-.47-.47Z"/></g><g id="CIRCLE-20" data-name="CIRCLE"><path class="cls-7" d="M360.85,194.58a.47.47,0,1,1,.47.46.47.47,0,0,1-.47-.46Z"/></g><g id="CIRCLE-21" data-name="CIRCLE"><path class="cls-7" d="M360.85,186.14a.47.47,0,1,1,.47.47.47.47,0,0,1-.47-.47Z"/></g><g id="CIRCLE-22" data-name="CIRCLE"><path class="cls-7" d="M327.1,194.58a.47.47,0,1,1,.47.46.47.47,0,0,1-.47-.46Z"/></g><g id="CIRCLE-23" data-name="CIRCLE"><path class="cls-7" d="M327.1,186.14a.47.47,0,1,1,.47.47.47.47,0,0,1-.47-.47Z"/></g><g id="CIRCLE-24" data-name="CIRCLE"><path class="cls-7" d="M318.66,194.58a.47.47,0,1,1,.47.46.47.47,0,0,1-.47-.46Z"/></g><g id="CIRCLE-25" data-name="CIRCLE"><path class="cls-7" d="M318.66,186.14a.47.47,0,1,1,.47.47.47.47,0,0,1-.47-.47Z"/></g><rect class="cls-6" x="266.29" y="81.84" width="33.75" height="84.38"/><g id="LINE-17" data-name="LINE"><line class="cls-7" x1="270.98" y1="136.53" x2="299.06" y2="136.53"/></g><g id="LWPOLYLINE-77" data-name="LWPOLYLINE"><polyline class="cls-7" points="300.04 86.53 270.98 86.53 270.98 161.53 300.04 161.53"/></g><g id="ARC-3" data-name="ARC"><path class="cls-7" d="M275.48,160.59a59.57,59.57,0,0,0,0-23.12"/></g><g id="ARC-4" data-name="ARC"><path class="cls-7" d="M275.48,137.47a1.22,1.22,0,0,0-1-.94"/></g><g id="ARC-5" data-name="ARC"><path class="cls-7" d="M274.49,161.53a1.24,1.24,0,0,0,1-.94"/></g><g id="ARC-6" data-name="ARC"><path class="cls-7" d="M274.49,136.53a1.24,1.24,0,0,0,1-.94"/></g><g id="ARC-7" data-name="ARC"><path class="cls-7" d="M275.48,87.47a1.22,1.22,0,0,0-1-.94"/></g><g id="ARC-8" data-name="ARC"><path class="cls-7" d="M300,137.47a1.19,1.19,0,0,0-1-.94"/></g><g id="ARC-9" data-name="ARC"><path class="cls-7" d="M299.06,136.53a1.22,1.22,0,0,0,1-.94"/></g><g id="ARC-10" data-name="ARC"><path class="cls-7" d="M299.06,161.53a1.22,1.22,0,0,0,1-.94"/></g><g id="ARC-11" data-name="ARC"><path class="cls-7" d="M300,87.47a1.19,1.19,0,0,0-1-.94"/></g><g id="LINE-18" data-name="LINE"><line class="cls-7" x1="270.98" y1="111.53" x2="299.06" y2="111.53"/></g><g id="ARC-12" data-name="ARC"><path class="cls-7" d="M275.48,110.59a59.57,59.57,0,0,0,0-23.12"/></g><g id="ARC-13" data-name="ARC"><path class="cls-7" d="M274.49,111.53a1.24,1.24,0,0,0,1-.94"/></g><g id="ARC-14" data-name="ARC"><path class="cls-7" d="M275.48,112.47a1.22,1.22,0,0,0-1-.94"/></g><g id="ARC-15" data-name="ARC"><path class="cls-7" d="M299.06,111.53a1.22,1.22,0,0,0,1-.94"/></g><g id="ARC-16" data-name="ARC"><path class="cls-7" d="M300,112.47a1.19,1.19,0,0,0-1-.94"/></g><g id="ARC-17" data-name="ARC"><path class="cls-7" d="M275.48,135.59a59.57,59.57,0,0,0,0-23.12"/></g><g id="ARC-18" data-name="ARC"><path class="cls-7" d="M275.48,137.47a1.22,1.22,0,0,0-1-.94"/></g><g id="ARC-19" data-name="ARC"><path class="cls-7" d="M274.49,161.53a1.24,1.24,0,0,0,1-.94"/></g><g id="ARC-20" data-name="ARC"><path class="cls-7" d="M274.49,136.53a1.24,1.24,0,0,0,1-.94"/></g><g id="ARC-21" data-name="ARC"><path class="cls-7" d="M275.48,87.47a1.22,1.22,0,0,0-1-.94"/></g><g id="ARC-22" data-name="ARC"><path class="cls-7" d="M300,137.47a1.19,1.19,0,0,0-1-.94"/></g><g id="ARC-23" data-name="ARC"><path class="cls-7" d="M299.06,136.53a1.22,1.22,0,0,0,1-.94"/></g><g id="ARC-24" data-name="ARC"><path class="cls-7" d="M299.06,161.53a1.22,1.22,0,0,0,1-.94"/></g><g id="ARC-25" data-name="ARC"><path class="cls-7" d="M300,87.47a1.19,1.19,0,0,0-1-.94"/></g><g id="ARC-26" data-name="ARC"><path class="cls-7" d="M274.49,111.53a1.24,1.24,0,0,0,1-.94"/></g><g id="ARC-27" data-name="ARC"><path class="cls-7" d="M275.48,112.47a1.22,1.22,0,0,0-1-.94"/></g><g id="ARC-28" data-name="ARC"><path class="cls-7" d="M299.06,111.53a1.22,1.22,0,0,0,1-.94"/></g><g id="ARC-29" data-name="ARC"><path class="cls-7" d="M300,112.47a1.19,1.19,0,0,0-1-.94"/></g><path class="cls-4" d="M281,155.8s5.27,6.86,7.93,5.57-7.24-10.46-7.24-10.46-3.9-4-4.64-2S281,155.8,281,155.8Z"/><path class="cls-4" d="M282.74,143.83s-4.37-7.08-6.29-5.77,3.56,9.45,3.56,9.45,3.83,7.57,5.7,5.53S282.74,143.83,282.74,143.83Z"/><path class="cls-4" d="M277.35,102.9s3.61-.74,5.19-8.33,1.12-7.68.31-8-4.2,2.24-5.22,9.2S276.09,102.59,277.35,102.9Z"/><g id="LWPOLYLINE-78" data-name="LWPOLYLINE"><polygon class="cls-6" points="342.9 76.14 343.74 46.13 370.45 46.04 371.49 76.04 342.9 76.14"/></g><g id="LWPOLYLINE-79" data-name="LWPOLYLINE"><polygon class="cls-6" points="308.96 76.14 309.8 46.13 336.52 46.04 337.55 76.04 308.96 76.14"/></g><g id="LINE-19" data-name="LINE"><line class="cls-7" x1="346.89" y1="76.12" x2="347.72" y2="46.12"/></g><g id="LINE-20" data-name="LINE"><line class="cls-7" x1="347.61" y1="50.34" x2="366.61" y2="50.28"/></g><g id="LINE-21" data-name="LINE"><line class="cls-7" x1="366.47" y1="46.06" x2="367.51" y2="76.05"/></g><g id="LINE-22" data-name="LINE"><line class="cls-7" x1="312.95" y1="76.12" x2="313.78" y2="46.12"/></g><g id="LINE-23" data-name="LINE"><line class="cls-7" x1="313.67" y1="50.34" x2="332.67" y2="50.28"/></g><g id="LINE-24" data-name="LINE"><line class="cls-7" x1="332.53" y1="46.06" x2="333.57" y2="76.05"/></g><line class="cls-7" x1="619.13" y1="333.42" x2="619.13" y2="389.67"/><line class="cls-7" x1="616.7" y1="333.42" x2="616.7" y2="389.67"/><line class="cls-7" x1="747.05" y1="323.85" x2="747.05" y2="359.47"/><line class="cls-7" x1="744.62" y1="323.85" x2="744.62" y2="359.47"/><line class="cls-7" x1="747.05" y1="390.06" x2="747.05" y2="425.68"/><line class="cls-7" x1="744.62" y1="390.06" x2="744.62" y2="425.68"/><g id="LWPOLYLINE-80" data-name="LWPOLYLINE"><polyline class="cls-8" points="390.81 17.07 390.81 22.7 278.31 22.7 278.31 17.07"/></g><g id="LWPOLYLINE-81" data-name="LWPOLYLINE"><polyline class="cls-8" points="661.1 437.07 661.1 431.45 751.1 431.45 751.1 437.07"/></g><g id="LWPOLYLINE-82" data-name="LWPOLYLINE"><polyline class="cls-8" points="513.63 437.07 513.63 431.45 603.63 431.45 603.63 437.07"/></g><g id="LWPOLYLINE-83" data-name="LWPOLYLINE"><polyline class="cls-8" points="279.25 308.99 279.25 304.89 390.31 304.89 390.31 308.99"/></g><g id="LWPOLYLINE-84" data-name="LWPOLYLINE"><polyline class="cls-8" points="159.72 308.99 159.72 304.89 243.62 304.89 243.62 308.99"/></g><g id="LWPOLYLINE-85" data-name="LWPOLYLINE"><polyline class="cls-8" points="27.06 308.99 27.06 306.06 70.18 306.06 70.18 308.99"/></g><g id="LWPOLYLINE-86" data-name="LWPOLYLINE"><polyline class="cls-8" points="424.56 39.58 424.56 45.2 491.59 45.2 491.59 39.58"/></g><g id="LWPOLYLINE-87" data-name="LWPOLYLINE"><polyline class="cls-8" points="514.09 39.58 514.09 45.2 666.9 45.2 666.9 39.58"/></g><g id="LWPOLYLINE-88" data-name="LWPOLYLINE"><polyline class="cls-8" points="158.78 17.07 158.78 22.7 244.56 22.7 244.56 17.07"/></g><line class="cls-8" x1="436.99" y1="431.45" x2="476.36" y2="431.45"/><line class="cls-8" x1="713.15" y1="45.2" x2="768.33" y2="45.2"/><g id="LWPOLYLINE-89" data-name="LWPOLYLINE"><polygon class="cls-9" points="300.34 13.32 299.4 13.32 282.06 13.32 281.12 13.32 281.12 14.55 299.4 14.55 300.34 14.55 300.34 13.32"/></g><g id="LWPOLYLINE-90" data-name="LWPOLYLINE"><polygon class="cls-9" points="333.04 13.32 332.33 13.32 302.21 13.32 302.21 14.55 333.02 14.55 333.04 13.32"/></g><g id="LWPOLYLINE-91" data-name="LWPOLYLINE"><polygon class="cls-9" points="366.9 13.32 365.96 13.32 336.79 13.32 336.08 13.32 336.08 14.55 366.9 14.55 366.9 13.32"/></g><g id="LWPOLYLINE-92" data-name="LWPOLYLINE"><polygon class="cls-9" points="388 13.32 387.06 13.32 368.78 13.32 368.78 14.55 388 14.55 388 13.32"/></g><g id="LWPOLYLINE-93" data-name="LWPOLYLINE"><rect class="cls-9" x="427.37" y="35.83" width="29.17" height="1.23"/></g><g id="LWPOLYLINE-94" data-name="LWPOLYLINE"><rect class="cls-9" x="459.6" y="35.83" width="29.18" height="1.23"/></g><g id="LWPOLYLINE-95" data-name="LWPOLYLINE"><polygon class="cls-9" points="665.97 35.83 665.03 35.83 627.37 35.83 627.37 37.05 665.97 37.05 665.97 35.83"/></g><g id="LWPOLYLINE-96" data-name="LWPOLYLINE"><rect class="cls-9" x="606.43" y="35.83" width="19.06" height="1.23"/></g><g id="LWPOLYLINE-97" data-name="LWPOLYLINE"><polygon class="cls-9" points="756.43 35.83 755.49 35.83 715.97 35.83 715.97 37.05 756.43 37.05 756.43 35.83"/></g><g id="LWPOLYLINE-98" data-name="LWPOLYLINE"><rect class="cls-9" x="694.09" y="35.83" width="20" height="1.23"/></g><g id="LWPOLYLINE-99" data-name="LWPOLYLINE"><polygon class="cls-9" points="690.2 439.59 663.91 439.59 663.91 440.82 664.85 440.82 689.5 440.82 690.2 440.82 690.2 439.59"/></g><g id="LWPOLYLINE-100" data-name="LWPOLYLINE"><polygon class="cls-9" points="748.28 439.6 692.78 439.6 692.78 440.82 693.48 440.82 748.28 440.82 748.28 439.6"/></g><g id="LWPOLYLINE-101" data-name="LWPOLYLINE"><polygon class="cls-9" points="574.53 439.59 600.82 439.59 600.82 440.82 599.88 440.82 575.24 440.82 574.53 440.82 574.53 439.59"/></g><g id="LWPOLYLINE-102" data-name="LWPOLYLINE"><polygon class="cls-9" points="516.45 439.6 571.96 439.6 571.96 440.82 571.25 440.82 516.45 440.82 516.45 439.6"/></g><g id="LWPOLYLINE-103" data-name="LWPOLYLINE"><rect class="cls-9" x="439.8" y="439.59" width="33.75" height="1.23"/></g><g id="LWPOLYLINE-104" data-name="LWPOLYLINE"><polygon class="cls-9" points="363.27 311.51 388 311.51 388 312.74 387.06 312.74 363.97 312.74 363.27 312.74 363.27 311.51"/></g><g id="LWPOLYLINE-105" data-name="LWPOLYLINE"><polygon class="cls-9" points="308.43 311.51 360.69 311.51 360.69 312.74 359.99 312.74 308.43 312.74 308.43 311.51"/></g><g id="LWPOLYLINE-106" data-name="LWPOLYLINE"><polygon class="cls-9" points="305.85 311.51 281.12 311.51 281.12 312.74 282.06 312.74 305.14 312.74 305.85 312.74 305.85 311.51"/></g><g id="LWPOLYLINE-107" data-name="LWPOLYLINE"><polygon class="cls-9" points="214.13 311.51 161.12 311.51 161.12 312.74 162.41 312.74 214.13 312.74 214.13 311.51"/></g><g id="LWPOLYLINE-108" data-name="LWPOLYLINE"><polygon class="cls-9" points="216.71 311.51 241.75 311.51 241.75 312.74 240.81 312.74 217.41 312.74 216.71 312.74 216.71 311.51"/></g><g id="LWPOLYLINE-109" data-name="LWPOLYLINE"><rect class="cls-9" x="29.87" y="311.51" width="37.5" height="1.23"/></g><g id="LWPOLYLINE-110" data-name="LWPOLYLINE"><rect class="cls-9" x="516.9" y="35.83" width="29.17" height="1.23"/></g><g id="LWPOLYLINE-111" data-name="LWPOLYLINE"><rect class="cls-9" x="549.13" y="35.83" width="29.18" height="1.23"/></g><g id="LWPOLYLINE-112" data-name="LWPOLYLINE"><polygon class="cls-9" points="241.75 13.32 240.81 13.32 216.9 13.32 216.9 14.56 241.75 14.56 241.75 13.32"/></g><g id="LWPOLYLINE-113" data-name="LWPOLYLINE"><polygon class="cls-9" points="134.87 13.32 135.81 13.32 159.72 13.32 159.72 14.56 134.87 14.56 134.87 13.32"/></g><g id="LWPOLYLINE-114" data-name="LWPOLYLINE"><rect class="cls-9" x="161.59" y="13.33" width="53.44" height="1.23"/></g><g id="LWPOLYLINE-115" data-name="LWPOLYLINE"><polygon class="cls-9" points="690.2 439.59 663.91 439.59 663.91 440.82 664.85 440.82 689.5 440.82 690.2 440.82 690.2 439.59"/></g><g id="LWPOLYLINE-116" data-name="LWPOLYLINE"><polygon class="cls-9" points="748.28 439.6 692.78 439.6 692.78 440.82 693.48 440.82 748.28 440.82 748.28 439.6"/></g><g id="LWPOLYLINE-117" data-name="LWPOLYLINE"><polygon class="cls-9" points="574.53 439.59 600.82 439.59 600.82 440.82 599.88 440.82 575.24 440.82 574.53 440.82 574.53 439.59"/></g><g id="LWPOLYLINE-118" data-name="LWPOLYLINE"><polygon class="cls-9" points="516.45 439.6 571.96 439.6 571.96 440.82 571.25 440.82 516.45 440.82 516.45 439.6"/></g><g id="LWPOLYLINE-119" data-name="LWPOLYLINE"><rect class="cls-9" x="439.8" y="439.59" width="33.75" height="1.23"/></g><line class="cls-9" x1="440.74" y1="437.08" x2="472.61" y2="437.08"/><line class="cls-9" x1="517.39" y1="437.08" x2="599.89" y2="437.08"/><line class="cls-9" x1="664.85" y1="437.08" x2="748.29" y2="437.08"/><line class="cls-9" x1="162.06" y1="308.99" x2="240.81" y2="308.99"/><line class="cls-9" x1="282.06" y1="308.99" x2="387.06" y2="308.99"/><line class="cls-9" x1="30.81" y1="308.99" x2="66.43" y2="308.99"/><line class="cls-9" x1="135.81" y1="17.08" x2="240.81" y2="17.08"/><line class="cls-9" x1="282.06" y1="17.08" x2="388" y2="17.08"/><line class="cls-9" x1="428.31" y1="39.58" x2="487.84" y2="39.58"/><line class="cls-9" x1="517.84" y1="39.58" x2="577.29" y2="39.58"/><line class="cls-9" x1="628.31" y1="39.57" x2="665.81" y2="39.57"/><line class="cls-9" x1="716.9" y1="39.57" x2="756.43" y2="39.57"/><g id="LWPOLYLINE-120" data-name="LWPOLYLINE"><polyline class="cls-10" points="334.09 10.04 335.03 10.04 335.03 12.39 336.79 12.39 336.79 13.32 336.08 13.32 336.08 14.55 336.79 14.55 336.79 17.07 334.91 17.07 334.91 16.61 334.21 16.61 334.21 17.07 332.33 17.07 332.33 14.55 333.02 14.55 333.04 13.32 332.33 13.32 332.33 12.39 334.09 12.39 334.09 10.04"/></g><g id="LWPOLYLINE-121" data-name="LWPOLYLINE"><polygon class="cls-10" points="365.96 14.55 366.9 14.55 366.9 13.32 365.96 13.32 365.96 12.39 367.84 12.39 367.84 10.04 368.78 10.04 368.78 12.39 369.71 12.39 369.71 13.32 368.78 13.32 368.78 14.55 369.71 14.55 369.71 15.73 368.89 15.73 368.89 16.61 367.84 16.61 367.84 17.07 365.96 17.07 365.96 14.55"/></g><g id="LWPOLYLINE-122" data-name="LWPOLYLINE"><polygon class="cls-10" points="390.81 12.39 389.87 12.39 389.87 8.64 388.93 8.64 388.93 12.39 387.06 12.39 387.06 13.32 388 13.32 388 14.55 387.06 14.55 387.06 17.07 390.81 17.07 390.81 12.39"/></g><g id="LWPOLYLINE-123" data-name="LWPOLYLINE"><polygon class="cls-10" points="282.06 14.55 281.12 14.55 281.12 13.32 282.06 13.32 282.06 12.39 280.18 12.39 280.18 8.64 279.25 8.64 279.25 12.39 278.31 12.39 278.31 17.07 282.06 17.07 282.06 14.55"/></g><g id="LWPOLYLINE-124" data-name="LWPOLYLINE"><polygon class="cls-10" points="303.15 14.55 302.21 14.55 302.21 13.32 303.15 13.32 303.15 12.39 301.28 12.39 301.28 10.04 300.34 10.04 300.34 12.39 299.4 12.39 299.4 13.32 300.34 13.32 300.34 14.55 299.4 14.55 299.4 15.73 300.22 15.73 300.22 16.61 301.28 16.61 301.28 17.07 303.15 17.07 303.15 14.55"/></g><g id="LWPOLYLINE-125" data-name="LWPOLYLINE"><polygon class="cls-10" points="428.31 37.06 427.37 37.06 427.37 35.83 428.31 35.83 428.31 34.89 426.43 34.89 426.43 31.14 425.5 31.14 425.5 34.89 424.56 34.89 424.56 39.58 428.31 39.58 428.31 37.06"/></g><g id="LWPOLYLINE-126" data-name="LWPOLYLINE"><polyline class="cls-10" points="457.61 32.54 458.54 32.54 458.54 34.89 460.3 34.89 460.3 35.83 459.6 35.83 459.6 37.06 460.3 37.06 460.3 39.58 458.43 39.58 458.43 39.11 457.72 39.11 457.72 39.58 455.85 39.58 455.85 37.06 456.54 37.06 456.55 35.83 455.85 35.83 455.85 34.89 457.61 34.89 457.61 32.54"/></g><g id="LWPOLYLINE-127" data-name="LWPOLYLINE"><polygon class="cls-10" points="491.59 34.89 490.65 34.89 490.65 31.14 489.71 31.14 489.71 34.89 487.84 34.89 487.84 35.83 488.78 35.83 488.78 37.06 487.84 37.06 487.84 39.58 491.59 39.58 491.59 34.89"/></g><g id="LWPOLYLINE-128" data-name="LWPOLYLINE"><polygon class="cls-10" points="668.78 34.89 667.84 34.89 667.84 31.14 666.9 31.14 666.9 34.89 665.03 34.89 665.03 35.83 665.97 35.83 665.97 37.05 665.03 37.05 665.03 39.58 668.78 39.58 668.78 34.89"/></g><g id="LWPOLYLINE-129" data-name="LWPOLYLINE"><polygon class="cls-10" points="628.31 37.05 627.37 37.05 627.37 35.83 628.31 35.83 628.31 34.89 626.43 34.89 626.43 31.14 625.5 31.14 625.5 34.89 624.56 34.89 624.56 35.83 625.5 35.83 625.5 37.05 624.56 37.05 624.56 38.23 625.38 38.23 625.38 39.11 626.43 39.11 626.43 39.58 628.31 39.58 628.31 37.05"/></g><g id="LWPOLYLINE-130" data-name="LWPOLYLINE"><polygon class="cls-10" points="607.37 37.05 606.43 37.05 606.43 35.82 607.37 35.82 607.37 34.89 605.5 34.89 605.5 31.14 604.56 31.14 604.56 34.89 603.62 34.89 603.62 39.57 607.37 39.57 607.37 37.05"/></g><g id="LWPOLYLINE-131" data-name="LWPOLYLINE"><polygon class="cls-10" points="759.24 34.89 758.31 34.89 758.31 31.14 757.37 31.14 757.37 34.89 755.49 34.89 755.49 35.83 756.43 35.83 756.43 37.05 755.49 37.05 755.49 39.58 759.24 39.58 759.24 34.89"/></g><g id="LWPOLYLINE-132" data-name="LWPOLYLINE"><polygon class="cls-10" points="716.9 37.05 715.97 37.05 715.97 35.83 716.9 35.83 716.9 34.89 715.03 34.89 715.03 31.14 714.09 31.14 714.09 34.89 713.15 34.89 713.15 35.83 714.09 35.83 714.09 37.05 713.15 37.05 713.15 38.23 713.97 38.23 713.97 39.11 715.03 39.11 715.03 39.58 716.9 39.58 716.9 37.05"/></g><g id="LWPOLYLINE-133" data-name="LWPOLYLINE"><polygon class="cls-10" points="695.03 37.05 694.09 37.05 694.09 35.82 695.03 35.82 695.03 34.89 693.15 34.89 693.15 31.14 692.22 31.14 692.22 34.89 691.28 34.89 691.28 39.57 695.03 39.57 695.03 37.05"/></g><g id="LWPOLYLINE-134" data-name="LWPOLYLINE"><polygon class="cls-10" points="751.1 437.07 747.35 437.07 747.35 439.59 748.28 439.6 748.28 440.82 747.35 440.82 747.35 441.76 749.22 441.76 751.1 441.76 751.1 437.07"/></g><g id="LWPOLYLINE-135" data-name="LWPOLYLINE"><polygon class="cls-10" points="693.48 438.42 692.54 438.42 692.54 437.54 691.37 437.54 691.37 437.07 689.5 437.07 689.5 439.59 690.2 439.59 690.2 440.82 689.5 440.82 689.5 441.76 690.2 441.76 692.78 441.76 693.48 441.76 693.48 440.82 692.78 440.82 692.78 439.59 693.48 439.59 693.48 438.42"/></g><g id="LWPOLYLINE-136" data-name="LWPOLYLINE"><polygon class="cls-10" points="661.1 437.07 664.85 437.07 664.85 439.59 663.91 439.6 663.91 440.82 664.85 440.82 664.85 441.76 662.97 441.76 661.1 441.76 661.1 437.07"/></g><g id="LWPOLYLINE-137" data-name="LWPOLYLINE"><polygon class="cls-10" points="513.63 437.07 517.38 437.07 517.38 439.59 516.45 439.6 516.45 440.82 517.38 440.82 517.38 441.76 515.51 441.76 513.63 441.76 513.63 437.07"/></g><g id="LWPOLYLINE-138" data-name="LWPOLYLINE"><polygon class="cls-10" points="571.25 438.42 572.19 438.42 572.19 437.54 573.36 437.54 573.36 437.07 575.24 437.07 575.24 439.59 574.53 439.59 574.53 440.82 575.24 440.82 575.24 441.76 574.53 441.76 571.96 441.76 571.25 441.76 571.25 440.82 571.96 440.82 571.96 439.59 571.25 439.59 571.25 438.42"/></g><g id="LWPOLYLINE-139" data-name="LWPOLYLINE"><polygon class="cls-10" points="603.63 437.07 599.88 437.07 599.88 439.59 600.82 439.6 600.82 440.82 599.88 440.82 599.88 441.76 601.76 441.76 603.63 441.76 603.63 437.07"/></g><g id="LWPOLYLINE-140" data-name="LWPOLYLINE"><polygon class="cls-10" points="476.36 437.07 472.61 437.07 472.61 439.59 473.55 439.6 473.55 440.82 472.61 440.82 472.61 441.76 474.49 441.76 476.36 441.76 476.36 437.07"/></g><g id="LWPOLYLINE-141" data-name="LWPOLYLINE"><polygon class="cls-10" points="436.99 437.07 440.74 437.07 440.74 439.59 439.8 439.6 439.8 440.82 440.74 440.82 440.74 441.76 438.86 441.76 436.99 441.76 436.99 437.07"/></g><g id="LWPOLYLINE-142" data-name="LWPOLYLINE"><polygon class="cls-10" points="359.99 310.34 360.93 310.34 360.93 309.46 362.1 309.46 362.1 308.99 363.97 308.99 363.97 311.51 363.27 311.51 363.27 312.74 363.97 312.74 363.97 313.68 363.27 313.68 360.69 313.68 359.99 313.68 359.99 312.74 360.69 312.74 360.69 311.51 359.99 311.51 359.99 310.34"/></g><g id="LWPOLYLINE-143" data-name="LWPOLYLINE"><polygon class="cls-10" points="390.81 310.51 389.87 310.51 389.87 308.99 387.06 308.99 387.06 311.51 388 311.51 388 312.74 387.06 312.74 387.06 313.68 388.93 313.68 390.81 313.68 390.81 310.51"/></g><g id="LWPOLYLINE-144" data-name="LWPOLYLINE"><polygon class="cls-10" points="309.13 310.34 308.19 310.34 308.19 309.46 307.02 309.46 307.02 308.99 305.14 308.99 305.14 311.51 305.85 311.51 305.85 312.74 305.14 312.74 305.14 313.68 305.85 313.68 308.43 313.68 309.13 313.68 309.13 312.74 308.43 312.74 308.43 311.51 309.13 311.51 309.13 310.34"/></g><g id="LWPOLYLINE-145" data-name="LWPOLYLINE"><polygon class="cls-10" points="279.25 308.99 282.06 308.99 282.06 311.51 281.12 311.51 281.12 312.74 282.06 312.74 282.06 313.68 280.18 313.68 278.31 313.68 278.31 310.51 279.25 310.51 279.25 308.99"/></g><g id="LWPOLYLINE-146" data-name="LWPOLYLINE"><polygon class="cls-10" points="158.78 310.51 159.72 310.51 159.72 308.99 162.06 308.99 162.06 311.51 161.12 311.51 161.12 312.74 162.06 312.74 162.06 313.68 160.65 313.68 158.78 313.68 158.78 310.51"/></g><g id="LWPOLYLINE-147" data-name="LWPOLYLINE"><polygon class="cls-10" points="213.43 310.34 214.36 310.34 214.36 309.46 215.53 309.46 215.53 308.99 217.41 308.99 217.41 311.51 216.71 311.51 216.71 312.74 217.41 312.74 217.41 313.68 216.71 313.68 214.13 313.68 213.43 313.68 213.43 312.74 214.13 312.74 214.13 311.51 213.43 311.51 213.43 310.34"/></g><g id="LWPOLYLINE-148" data-name="LWPOLYLINE"><polygon class="cls-10" points="243.62 308.99 240.81 308.99 240.81 311.51 241.75 311.51 241.75 312.74 240.81 312.74 240.81 313.68 242.68 313.68 244.56 313.68 244.56 310.51 243.62 310.51 243.62 308.99"/></g><g id="LWPOLYLINE-149" data-name="LWPOLYLINE"><polygon class="cls-10" points="27.06 308.99 30.81 308.99 30.81 311.51 29.87 311.51 29.87 312.74 30.81 312.74 30.81 313.68 28.93 313.68 27.06 313.68 27.06 308.99"/></g><g id="LWPOLYLINE-150" data-name="LWPOLYLINE"><polygon class="cls-10" points="70.18 308.99 66.43 308.99 66.43 311.51 67.37 311.51 67.37 312.74 66.43 312.74 66.43 313.68 68.31 313.68 70.18 313.68 70.18 308.99"/></g><g id="LWPOLYLINE-151" data-name="LWPOLYLINE"><polygon class="cls-10" points="517.84 37.06 516.9 37.06 516.9 35.83 517.84 35.83 517.84 34.89 515.97 34.89 515.97 31.14 515.03 31.14 515.03 34.89 514.09 34.89 514.09 39.58 517.84 39.58 517.84 37.06"/></g><g id="LWPOLYLINE-152" data-name="LWPOLYLINE"><polyline class="cls-10" points="547.14 32.54 548.07 32.54 548.07 34.89 549.83 34.89 549.83 35.83 549.13 35.83 549.13 37.06 549.83 37.06 549.83 39.58 547.96 39.58 547.96 39.11 547.25 39.11 547.25 39.58 545.38 39.58 545.38 37.06 546.07 37.06 546.08 35.83 545.38 35.83 545.38 34.89 547.14 34.89 547.14 32.54"/></g><g id="LWPOLYLINE-153" data-name="LWPOLYLINE"><polygon class="cls-10" points="581.12 34.89 580.18 34.89 580.18 31.14 579.25 31.14 579.25 34.89 577.37 34.89 577.37 35.83 578.31 35.83 578.31 37.06 577.37 37.06 577.37 39.58 581.12 39.58 581.12 34.89"/></g><g id="LWPOLYLINE-154" data-name="LWPOLYLINE"><polygon class="cls-10" points="244.56 12.39 243.62 12.39 243.62 8.64 242.68 8.64 242.68 12.39 240.81 12.39 240.81 13.32 241.75 13.32 241.75 14.56 240.81 14.56 240.81 17.07 244.56 17.07 244.56 12.39"/></g><g id="LWPOLYLINE-155" data-name="LWPOLYLINE"><polygon class="cls-10" points="217.84 14.56 216.9 14.56 216.9 13.32 217.84 13.32 217.84 12.39 215.97 12.39 215.97 10.04 215.03 10.04 215.03 12.39 214.09 12.39 214.09 13.32 215.03 13.32 215.03 14.56 214.09 14.56 214.09 15.73 214.91 15.73 214.91 16.61 215.97 16.61 215.97 17.07 217.84 17.07 217.84 14.56"/></g><g id="LWPOLYLINE-156" data-name="LWPOLYLINE"><polygon class="cls-10" points="158.78 14.56 159.72 14.56 159.72 13.32 158.78 13.32 158.78 12.39 160.65 12.39 160.65 10.04 161.59 10.04 161.59 12.39 162.53 12.39 162.53 13.32 161.59 13.32 161.59 14.56 162.53 14.56 162.53 15.73 161.71 15.73 161.71 16.61 160.65 16.61 160.65 17.07 158.78 17.07 158.78 14.56"/></g><g id="LWPOLYLINE-157" data-name="LWPOLYLINE"><polygon class="cls-10" points="132.06 12.39 133 12.39 133 8.64 133.93 8.64 133.93 12.39 135.81 12.39 135.81 13.32 134.87 13.32 134.87 14.56 135.81 14.56 135.81 17.07 132.06 17.07 132.06 12.39"/></g><g id="LWPOLYLINE-158" data-name="LWPOLYLINE"><polygon class="cls-10" points="751.1 437.07 747.35 437.07 747.35 439.59 748.28 439.6 748.28 440.82 747.35 440.82 747.35 441.76 749.22 441.76 751.1 441.76 751.1 437.07"/></g><g id="LWPOLYLINE-159" data-name="LWPOLYLINE"><polygon class="cls-10" points="661.1 437.07 664.85 437.07 664.85 439.59 663.91 439.6 663.91 440.82 664.85 440.82 664.85 441.76 662.97 441.76 661.1 441.76 661.1 437.07"/></g><g id="LWPOLYLINE-160" data-name="LWPOLYLINE"><polygon class="cls-10" points="436.99 437.07 440.74 437.07 440.74 439.59 439.8 439.6 439.8 440.82 440.74 440.82 440.74 441.76 438.86 441.76 436.99 441.76 436.99 437.07"/></g><g id="LWPOLYLINE-161" data-name="LWPOLYLINE"><polyline class="cls-8" points="390.81 17.07 390.81 8.64 278.31 8.64 278.31 17.07"/></g><g id="LWPOLYLINE-162" data-name="LWPOLYLINE"><polyline class="cls-8" points="491.59 39.58 491.59 31.14 424.56 31.14 424.56 39.58"/></g><g id="LWPOLYLINE-163" data-name="LWPOLYLINE"><polyline class="cls-8" points="668.78 39.58 668.78 31.14 603.62 31.14 603.62 39.58"/></g><g id="LWPOLYLINE-164" data-name="LWPOLYLINE"><polyline class="cls-8" points="759.25 39.58 759.25 31.14 691.28 31.14 691.28 39.58"/></g><g id="LWPOLYLINE-165" data-name="LWPOLYLINE"><polyline class="cls-8" points="661.1 441.76 661.1 448.32 751.1 448.32 751.1 441.76"/></g><g id="LWPOLYLINE-166" data-name="LWPOLYLINE"><polyline class="cls-8" points="603.63 441.76 603.63 448.32 513.63 448.32 513.63 441.76"/></g><g id="LWPOLYLINE-167" data-name="LWPOLYLINE"><polyline class="cls-8" points="476.36 441.76 476.36 448.32 436.99 448.32 436.99 441.76"/></g><g id="LWPOLYLINE-168" data-name="LWPOLYLINE"><polyline class="cls-8" points="390.81 313.68 390.81 321.76 278.31 321.76 278.31 313.68"/></g><g id="LWPOLYLINE-169" data-name="LWPOLYLINE"><polyline class="cls-8" points="158.78 313.68 158.78 321.76 244.56 321.76 244.56 313.68"/></g><g id="LWPOLYLINE-170" data-name="LWPOLYLINE"><polyline class="cls-8" points="27.06 313.68 27.06 321.76 70.18 321.76 70.18 313.68"/></g><g id="LWPOLYLINE-171" data-name="LWPOLYLINE"><polyline class="cls-8" points="581.12 39.58 581.12 31.14 514.09 31.14 514.09 39.58"/></g><g id="LWPOLYLINE-172" data-name="LWPOLYLINE"><polyline class="cls-8" points="244.56 17.07 244.56 8.64 132.06 8.64 132.06 17.07"/></g><g id="LWPOLYLINE-173" data-name="LWPOLYLINE"><rect class="cls-11" x="96.32" y="245.94" width="33.75" height="1.64"/></g><g id="LWPOLYLINE-174" data-name="LWPOLYLINE"><rect class="cls-11" x="460.54" y="234.69" width="28.13" height="1.64"/></g><g id="LWPOLYLINE-175" data-name="LWPOLYLINE"><rect class="cls-11" x="432.41" y="234.69" width="28.13" height="1.64"/></g><g id="LWPOLYLINE-176" data-name="LWPOLYLINE"><rect class="cls-11" x="504.13" y="262.58" width="33.68" height="1.64"/></g><g id="LWPOLYLINE-177" data-name="LWPOLYLINE"><rect class="cls-11" x="21.54" y="281.13" width="33.75" height="1.64" transform="translate(-188.12 109.74) rotate(-45)"/></g><g id="LWPOLYLINE-178" data-name="LWPOLYLINE"><rect class="cls-11" x="513.4" y="282.13" width="33.75" height="1.64" transform="translate(-44.76 457.84) rotate(-45)"/></g><g id="LWPOLYLINE-179" data-name="LWPOLYLINE"><rect class="cls-11" x="592.24" y="290.85" width="33.75" height="1.64" transform="translate(-27.84 516.14) rotate(-45)"/></g><g id="LWPOLYLINE-180" data-name="LWPOLYLINE"><rect class="cls-11" x="652.03" y="250.04" width="33.75" height="1.64"/></g><g id="LWPOLYLINE-181" data-name="LWPOLYLINE"><rect class="cls-11" x="695.85" y="270.43" width="1.64" height="33.75"/></g><g id="LWPOLYLINE-182" data-name="LWPOLYLINE"><rect class="cls-11" x="576.76" y="159.64" width="2.11" height="33.75" transform="translate(44.43 460.28) rotate(-45)"/></g><g id="LWPOLYLINE-183" data-name="LWPOLYLINE"><rect class="cls-11" x="620.26" y="116.45" width="33.75" height="1.64"/></g><g id="LWPOLYLINE-184" data-name="LWPOLYLINE"><rect class="cls-11" x="620.26" y="163.09" width="33.75" height="1.64"/></g><g id="LWPOLYLINE-185" data-name="LWPOLYLINE"><rect class="cls-11" x="695.85" y="123.72" width="1.64" height="33.75"/></g><g id="LWPOLYLINE-186" data-name="LWPOLYLINE"><rect class="cls-11" x="96.32" y="245.94" width="33.75" height="1.64"/></g><g id="LWPOLYLINE-187" data-name="LWPOLYLINE"><rect class="cls-11" x="50.5" y="234.46" width="33.75" height="1.64"/></g><g id="LWPOLYLINE-188" data-name="LWPOLYLINE"><rect class="cls-11" x="460.54" y="234.69" width="28.13" height="1.64"/></g><g id="LWPOLYLINE-189" data-name="LWPOLYLINE"><rect class="cls-11" x="432.41" y="234.69" width="28.13" height="1.64"/></g><g id="LWPOLYLINE-190" data-name="LWPOLYLINE"><rect class="cls-11" x="504.13" y="262.58" width="33.68" height="1.64"/></g><g id="LWPOLYLINE-191" data-name="LWPOLYLINE"><rect class="cls-12" x="21.54" y="281.13" width="33.75" height="1.64" transform="translate(-188.12 109.74) rotate(-45)"/></g><g id="LWPOLYLINE-192" data-name="LWPOLYLINE"><rect class="cls-12" x="513.4" y="282.13" width="33.75" height="1.64" transform="translate(-44.76 457.84) rotate(-45)"/></g><g id="LWPOLYLINE-193" data-name="LWPOLYLINE"><rect class="cls-12" x="592.24" y="290.85" width="33.75" height="1.64" transform="translate(-27.84 516.14) rotate(-45)"/></g><g id="LWPOLYLINE-194" data-name="LWPOLYLINE"><rect class="cls-11" x="652.03" y="250.04" width="33.75" height="1.64"/></g><g id="LWPOLYLINE-195" data-name="LWPOLYLINE"><rect class="cls-11" x="695.85" y="270.43" width="1.64" height="33.75"/></g><g id="LWPOLYLINE-196" data-name="LWPOLYLINE"><rect class="cls-11" x="498.74" y="393.94" width="1.64" height="33.75"/></g><g id="LWPOLYLINE-197" data-name="LWPOLYLINE"><rect class="cls-11" x="498.74" y="393.94" width="1.64" height="33.75"/></g><g id="LWPOLYLINE-198" data-name="LWPOLYLINE"><rect class="cls-12" x="576.76" y="159.64" width="2.11" height="33.75" transform="translate(44.43 460.28) rotate(-45)"/></g><g id="LWPOLYLINE-199" data-name="LWPOLYLINE"><rect class="cls-11" x="620.26" y="116.45" width="33.75" height="1.64"/></g><g id="LWPOLYLINE-200" data-name="LWPOLYLINE"><rect class="cls-11" x="620.26" y="163.09" width="33.75" height="1.64"/></g><g id="LWPOLYLINE-201" data-name="LWPOLYLINE"><rect class="cls-11" x="695.85" y="123.72" width="1.64" height="33.75"/></g><g id="ARC-30" data-name="ARC"><path class="cls-11" d="M50.92,270.59a33.73,33.73,0,0,0-23.86-9.88"/></g><g id="ARC-31" data-name="ARC"><path class="cls-11" d="M621.63,280.32a33.77,33.77,0,0,0-23.87-9.89"/></g><g id="ARC-32" data-name="ARC"><path class="cls-11" d="M565.14,165.33a34.26,34.26,0,0,0-8.39,22.37"/></g><g id="ARC-33" data-name="ARC"><path class="cls-11" d="M50.92,270.59a33.73,33.73,0,0,0-23.86-9.88"/></g><g id="ARC-34" data-name="ARC"><path class="cls-11" d="M517.76,294.3c6.33,6.33,11.94,10.51,23.87,11.29"/></g><g id="ARC-35" data-name="ARC"><path class="cls-11" d="M621.63,280.32a33.77,33.77,0,0,0-23.87-9.89"/></g><g id="ARC-36" data-name="ARC"><path class="cls-11" d="M565.14,165.33a34.26,34.26,0,0,0-8.39,22.37"/></g><g id="LWPOLYLINE-202" data-name="LWPOLYLINE"><polyline class="cls-9" points="496.86 367.7 496.86 337.7 438.74 337.7 438.74 367.7"/></g><g id="ARC-37" data-name="ARC"><path class="cls-9" d="M445,354a3.29,3.29,0,1,0,0-.79"/></g><g id="LWPOLYLINE-203" data-name="LWPOLYLINE"><path class="cls-9" d="M448.28,353.25H438.11V354h10.17a.39.39,0,0,0,.38-.39A.38.38,0,0,0,448.28,353.25Z"/></g><g id="LWPOLYLINE-204" data-name="LWPOLYLINE"><rect class="cls-5" x="438.74" y="367.15" width="23.25" height="0.56"/></g><g id="LWPOLYLINE-205" data-name="LWPOLYLINE"><rect class="cls-5" x="461.99" y="367.15" width="34.87" height="0.56"/></g><g id="LWPOLYLINE-206" data-name="LWPOLYLINE"><rect class="cls-9" x="697.49" y="210.9" width="58.19" height="32.86"/></g><g id="LWPOLYLINE-207" data-name="LWPOLYLINE"><path class="cls-9" d="M751.43,227.85v-6a4.85,4.85,0,0,0-4.85-4.85h-40a4.85,4.85,0,0,0-4.85,4.85v12.85a4.85,4.85,0,0,0,4.85,4.85h40a4.85,4.85,0,0,0,4.85-4.85v-6"/></g><g id="ARC-38" data-name="ARC"><path class="cls-9" d="M748.39,227.85a3.24,3.24,0,1,0,0,.78"/></g><g id="LWPOLYLINE-208" data-name="LWPOLYLINE"><path class="cls-9" d="M745.14,228.63h10.47v-.77H745.14a.39.39,0,1,0,0,.77Z"/></g><g id="ARC-39" data-name="ARC"><path class="cls-9" d="M760.39,178.86a3.24,3.24,0,1,0,0,.79"/></g><g id="LWPOLYLINE-209" data-name="LWPOLYLINE"><rect class="cls-9" x="697.49" y="162.39" width="69.82" height="34.69"/></g><g id="LWPOLYLINE-210" data-name="LWPOLYLINE"><rect class="cls-9" x="701.12" y="167.08" width="61.05" height="24.38" rx="4.69"/></g><g id="LWPOLYLINE-211" data-name="LWPOLYLINE"><rect class="cls-5" x="696.76" y="80.2" width="0.83" height="23.34"/></g><g id="LWPOLYLINE-212" data-name="LWPOLYLINE"><rect class="cls-5" x="696.76" y="45.19" width="0.83" height="35.01"/></g><g id="LWPOLYLINE-213" data-name="LWPOLYLINE"><rect class="cls-5" x="438.74" y="367" width="23.25" height="0.86"/></g><g id="LWPOLYLINE-214" data-name="LWPOLYLINE"><rect class="cls-5" x="461.99" y="367" width="34.87" height="0.86"/></g><g id="LWPOLYLINE-215" data-name="LWPOLYLINE"><rect class="cls-5" x="696.76" y="80.2" width="0.83" height="23.34"/></g><g id="LWPOLYLINE-216" data-name="LWPOLYLINE"><rect class="cls-5" x="696.76" y="45.19" width="0.83" height="35.01"/></g><g id="ARC-40" data-name="ARC"><path class="cls-9" d="M682.76,97.11a3.28,3.28,0,1,0-.78,0"/></g><g id="LWPOLYLINE-217" data-name="LWPOLYLINE"><path class="cls-9" d="M682,93.85V104h.77V93.85a.39.39,0,1,0-.77,0Z"/></g><g id="LWPOLYLINE-218" data-name="LWPOLYLINE"><path class="cls-5" d="M757.14,179.65h10.17v-.78H757.14a.39.39,0,0,0-.39.39A.38.38,0,0,0,757.14,179.65Z"/></g><g id="LINE-25" data-name="LINE"><line class="cls-5" x1="433.35" y1="311.33" x2="458.66" y2="311.33"/></g><g id="LINE-26" data-name="LINE"><line class="cls-5" x1="458.66" y1="311.33" x2="458.66" y2="283.44"/></g><g id="LINE-27" data-name="LINE"><line class="cls-5" x1="458.66" y1="283.44" x2="433.35" y2="283.44"/></g><g id="LINE-28" data-name="LINE"><line class="cls-5" x1="433.35" y1="283.44" x2="433.35" y2="311.33"/></g><g id="LINE-29" data-name="LINE"><line class="cls-5" x1="462.88" y1="311.33" x2="488.19" y2="311.33"/></g><g id="LINE-30" data-name="LINE"><line class="cls-5" x1="488.19" y1="311.33" x2="488.19" y2="283.44"/></g><g id="LINE-31" data-name="LINE"><line class="cls-5" x1="488.19" y1="283.44" x2="462.88" y2="283.44"/></g><g id="LINE-32" data-name="LINE"><line class="cls-5" x1="462.88" y1="283.44" x2="462.88" y2="311.33"/></g><g id="LWPOLYLINE-219" data-name="LWPOLYLINE"><rect class="cls-5" x="200.46" y="62.68" width="37.5" height="121.88"/></g><g id="LWPOLYLINE-220" data-name="LWPOLYLINE"><rect class="cls-5" x="135.34" y="23.64" width="23.44" height="23.67"/></g><g id="LWPOLYLINE-221" data-name="LWPOLYLINE"><polyline class="cls-9" points="156.9 187.5 134.57 187.5 134.57 150.2 156.9 150.2"/></g><g id="LWPOLYLINE-222" data-name="LWPOLYLINE"><polyline class="cls-9" points="156.9 187.5 158.78 187.5 158.78 150.2 156.9 150.2"/></g><g id="LWPOLYLINE-223" data-name="LWPOLYLINE"><rect class="cls-9" x="135.34" y="47.31" width="23.44" height="102.89"/></g><g id="LWPOLYLINE-224" data-name="LWPOLYLINE"><polyline class="cls-9" points="220.14 119.09 203.42 119.09 203.42 150.44 220.14 150.44 220.14 119.09"/></g><rect class="cls-5" x="220.38" y="135.56" width="3.82" height="1.6" transform="translate(85.92 358.65) rotate(-90)"/><path class="cls-5" d="M221.64,133.62a1.16,1.16,0,0,0-.37.36h-8a.58.58,0,1,0,0,1.16h8a1.11,1.11,0,1,0,.37-1.52Z"/><g id="CIRCLE-26" data-name="CIRCLE"><path class="cls-9" d="M153,100.4a.86.86,0,1,1,.86.86.86.86,0,0,1-.86-.86Z"/></g><g id="CIRCLE-27" data-name="CIRCLE"><path class="cls-9" d="M153,95a.86.86,0,1,1,.86.86A.86.86,0,0,1,153,95Z"/></g><g id="CIRCLE-28" data-name="CIRCLE"><path class="cls-9" d="M149.41,95a.86.86,0,1,1,.86.86.86.86,0,0,1-.86-.86Z"/></g><g id="CIRCLE-29" data-name="CIRCLE"><path class="cls-9" d="M149.41,97.7a.86.86,0,1,1,.86.86.86.86,0,0,1-.86-.86Z"/></g><g id="CIRCLE-30" data-name="CIRCLE"><path class="cls-9" d="M149.41,100.4a.86.86,0,1,1,.86.86.86.86,0,0,1-.86-.86Z"/></g><g id="LWPOLYLINE-225" data-name="LWPOLYLINE"><rect class="cls-9" x="137.57" y="81.05" width="19.79" height="33.31" rx="0.46"/></g><circle class="cls-9" cx="142.69" cy="86.99" r="1.63"/><path class="cls-9" d="M146.62,91.92h-7.23a.7.7,0,0,1-.68-.7V82.76a.69.69,0,0,1,.68-.7h7.23s0,0,0,.06v9.74A.06.06,0,0,1,146.62,91.92Z"/><circle class="cls-9" cx="142.69" cy="97.7" r="1.63"/><path class="cls-9" d="M146.62,102.63h-7.23a.69.69,0,0,1-.68-.7V93.47a.7.7,0,0,1,.68-.7h7.23a.06.06,0,0,1,0,.06v9.75A0,0,0,0,1,146.62,102.63Z"/><circle class="cls-9" cx="142.69" cy="108.42" r="1.63"/><path class="cls-9" d="M146.62,113.35h-7.23a.69.69,0,0,1-.68-.7v-8.46a.69.69,0,0,1,.68-.7h7.23a.06.06,0,0,1,0,.06v9.74A.06.06,0,0,1,146.62,113.35Z"/><circle class="cls-9" cx="152.04" cy="108.42" r="1.63"/><path class="cls-9" d="M148.11,103.49h7.23a.69.69,0,0,1,.68.7v8.46a.69.69,0,0,1-.68.7h-7.23a.06.06,0,0,1-.05-.06v-9.74A.06.06,0,0,1,148.11,103.49Z"/><circle class="cls-9" cx="152.04" cy="86.99" r="1.63"/><path class="cls-9" d="M148.11,82.06h7.23a.69.69,0,0,1,.68.7v8.46a.7.7,0,0,1-.68.7h-7.23a.06.06,0,0,1-.05-.06V82.12S148.08,82.06,148.11,82.06Z"/><g id="LWPOLYLINE-226" data-name="LWPOLYLINE"><polyline class="cls-13" points="136.28 150.2 148.47 150.2 148.47 47.31 136.28 47.31"/></g><g id="LWPOLYLINE-227" data-name="LWPOLYLINE"><line class="cls-14" x1="609.01" y1="72.5" x2="609.01" y2="116.45"/></g><g id="LWPOLYLINE-228" data-name="LWPOLYLINE"><polyline class="cls-14" points="609.01 164.73 609.01 210.9 672.18 210.9"/></g><g id="LWPOLYLINE-229" data-name="LWPOLYLINE"><line class="cls-14" x1="645.81" y1="236.92" x2="693.97" y2="236.92"/></g><g id="LWPOLYLINE-230" data-name="LWPOLYLINE"><line class="cls-14" x1="541.63" y1="249.46" x2="500.38" y2="249.46"/></g><g id="LWPOLYLINE-231" data-name="LWPOLYLINE"><line class="cls-14" x1="92.57" y1="200.36" x2="131.59" y2="200.36"/></g><g id="LWPOLYLINE-232" data-name="LWPOLYLINE"><line class="cls-14" x1="144.01" y1="218.17" x2="144.01" y2="244.07"/></g><g id="LINE-33" data-name="LINE"><line class="cls-14" x1="672.18" y1="210.9" x2="651.43" y2="210.9"/></g><g id="LINE-34" data-name="LINE"><line class="cls-14" x1="672.18" y1="210.9" x2="651.43" y2="210.9"/></g><g id="LWPOLYLINE-233" data-name="LWPOLYLINE"><line class="cls-13" x1="228.15" y1="184.48" x2="228.15" y2="62.68"/></g><line class="cls-9" x1="200.77" y1="152.81" x2="201.43" y2="152.81"/><line class="cls-15" x1="202.8" y1="152.81" x2="221.18" y2="152.81"/><polyline class="cls-9" points="221.86 152.81 222.52 152.81 222.52 153.47"/><line class="cls-16" x1="222.52" y1="154.75" x2="222.52" y2="171.94"/><polyline class="cls-9" points="222.52 172.57 222.52 173.24 221.86 173.24"/><line class="cls-15" x1="220.5" y1="173.24" x2="202.11" y2="173.24"/><line class="cls-9" x1="201.43" y1="173.24" x2="200.77" y2="173.24"/><line class="cls-9" x1="200.77" y1="92.66" x2="201.43" y2="92.66"/><line class="cls-15" x1="202.8" y1="92.66" x2="221.18" y2="92.66"/><polyline class="cls-9" points="221.86 92.66 222.52 92.66 222.52 93.33"/><line class="cls-17" x1="222.52" y1="94.65" x2="222.52" y2="115.14"/><polyline class="cls-9" points="222.52 115.8 222.52 116.46 221.86 116.46"/><line class="cls-15" x1="220.5" y1="116.46" x2="202.11" y2="116.46"/><line class="cls-9" x1="201.43" y1="116.46" x2="200.77" y2="116.46"/><line class="cls-9" x1="200.77" y1="68.83" x2="201.43" y2="68.83"/><line class="cls-15" x1="202.8" y1="68.83" x2="221.18" y2="68.83"/><polyline class="cls-9" points="221.86 68.83 222.52 68.83 222.52 69.49"/><line class="cls-17" x1="222.52" y1="70.81" x2="222.52" y2="91.31"/><polyline class="cls-9" points="222.52 91.97 222.52 92.63 221.86 92.63"/><line class="cls-15" x1="220.5" y1="92.63" x2="202.11" y2="92.63"/><line class="cls-9" x1="201.43" y1="92.63" x2="200.77" y2="92.63"/><g id="LINE-35" data-name="LINE"><line class="cls-10" x1="98.93" y1="193.83" x2="98.93" y2="206.88"/></g><g id="LINE-36" data-name="LINE"><line class="cls-10" x1="101.35" y1="193.83" x2="101.35" y2="206.88"/></g><g id="LINE-37" data-name="LINE"><line class="cls-10" x1="103.77" y1="193.83" x2="103.77" y2="206.88"/></g><g id="LINE-38" data-name="LINE"><line class="cls-10" x1="106.19" y1="193.83" x2="106.19" y2="206.88"/></g><g id="LINE-39" data-name="LINE"><line class="cls-10" x1="108.61" y1="206.88" x2="108.61" y2="193.83"/></g><g id="LINE-40" data-name="LINE"><line class="cls-10" x1="136.84" y1="240.12" x2="149.89" y2="240.12"/></g><g id="LINE-41" data-name="LINE"><line class="cls-10" x1="136.84" y1="237.7" x2="149.89" y2="237.7"/></g><g id="LINE-42" data-name="LINE"><line class="cls-10" x1="136.84" y1="235.28" x2="149.89" y2="235.28"/></g><g id="LINE-43" data-name="LINE"><line class="cls-10" x1="136.84" y1="232.86" x2="149.89" y2="232.86"/></g><g id="LINE-44" data-name="LINE"><line class="cls-10" x1="136.84" y1="230.44" x2="149.89" y2="230.44"/></g><g id="LINE-45" data-name="LINE"><line class="cls-10" x1="149.89" y1="228.02" x2="136.84" y2="228.02"/></g><g id="LINE-46" data-name="LINE"><line class="cls-10" x1="504.33" y1="242.93" x2="504.33" y2="255.99"/></g><g id="LINE-47" data-name="LINE"><line class="cls-10" x1="506.74" y1="242.93" x2="506.74" y2="255.98"/></g><g id="LINE-48" data-name="LINE"><line class="cls-10" x1="509.16" y1="242.93" x2="509.16" y2="255.98"/></g><g id="LINE-49" data-name="LINE"><line class="cls-10" x1="511.58" y1="242.93" x2="511.58" y2="255.98"/></g><g id="LINE-50" data-name="LINE"><line class="cls-10" x1="514" y1="242.93" x2="514" y2="255.98"/></g><g id="LINE-51" data-name="LINE"><line class="cls-10" x1="516.42" y1="255.98" x2="516.42" y2="242.93"/></g><g id="LINE-52" data-name="LINE"><line class="cls-10" x1="649.75" y1="230.39" x2="649.75" y2="243.45"/></g><g id="LINE-53" data-name="LINE"><line class="cls-10" x1="652.17" y1="230.39" x2="652.17" y2="243.45"/></g><g id="LINE-54" data-name="LINE"><line class="cls-10" x1="654.59" y1="230.39" x2="654.59" y2="243.45"/></g><g id="LINE-55" data-name="LINE"><line class="cls-10" x1="657.01" y1="230.39" x2="657.01" y2="243.45"/></g><g id="LINE-56" data-name="LINE"><line class="cls-10" x1="659.43" y1="230.39" x2="659.43" y2="243.45"/></g><g id="LINE-57" data-name="LINE"><line class="cls-10" x1="661.85" y1="243.45" x2="661.85" y2="230.39"/></g><g id="LINE-58" data-name="LINE"><line class="cls-10" x1="668.23" y1="204.38" x2="668.23" y2="217.43"/></g><g id="LINE-59" data-name="LINE"><line class="cls-10" x1="665.81" y1="204.38" x2="665.81" y2="217.43"/></g><g id="LINE-60" data-name="LINE"><line class="cls-10" x1="663.39" y1="204.38" x2="663.39" y2="217.43"/></g><g id="LINE-61" data-name="LINE"><line class="cls-10" x1="660.97" y1="204.38" x2="660.97" y2="217.43"/></g><g id="LINE-62" data-name="LINE"><line class="cls-10" x1="658.55" y1="204.38" x2="658.55" y2="217.43"/></g><g id="LINE-63" data-name="LINE"><line class="cls-10" x1="656.13" y1="217.43" x2="656.13" y2="204.38"/></g><g id="LINE-64" data-name="LINE"><line class="cls-10" x1="602.48" y1="168.68" x2="615.54" y2="168.68"/></g><g id="LINE-65" data-name="LINE"><line class="cls-10" x1="602.48" y1="171.1" x2="615.54" y2="171.1"/></g><g id="LINE-66" data-name="LINE"><line class="cls-10" x1="602.48" y1="173.52" x2="615.54" y2="173.52"/></g><g id="LINE-67" data-name="LINE"><line class="cls-10" x1="602.48" y1="175.94" x2="615.54" y2="175.94"/></g><g id="LINE-68" data-name="LINE"><line class="cls-10" x1="602.48" y1="178.35" x2="615.54" y2="178.36"/></g><g id="LINE-69" data-name="LINE"><line class="cls-10" x1="615.54" y1="180.77" x2="602.48" y2="180.77"/></g><g id="LINE-70" data-name="LINE"><line class="cls-10" x1="602.48" y1="76.45" x2="615.54" y2="76.45"/></g><g id="LINE-71" data-name="LINE"><line class="cls-10" x1="602.48" y1="78.87" x2="615.54" y2="78.87"/></g><g id="LINE-72" data-name="LINE"><line class="cls-10" x1="602.48" y1="81.29" x2="615.54" y2="81.29"/></g><g id="LINE-73" data-name="LINE"><line class="cls-10" x1="602.48" y1="83.71" x2="615.54" y2="83.71"/></g><g id="LINE-74" data-name="LINE"><line class="cls-10" x1="602.48" y1="86.13" x2="615.54" y2="86.13"/></g><g id="LINE-75" data-name="LINE"><line class="cls-10" x1="615.54" y1="88.55" x2="602.48" y2="88.55"/></g><g id="LWPOLYLINE-234" data-name="LWPOLYLINE"><rect class="cls-5" x="31.62" y="168.65" width="23.28" height="17.87"/></g><g id="LWPOLYLINE-235" data-name="LWPOLYLINE"><path class="cls-5" d="M50.32,183a1,1,0,0,1-1,1H37.19a1,1,0,0,1-1-1v-9a.83.83,0,0,1,.83-.83H49.49a.83.83,0,0,1,.83.83Z"/></g><g id="ARC-41" data-name="ARC"><path class="cls-5" d="M63.91,183.55c-.32-2.85-.91-10.38-.91-10.38"/></g><g id="ARC-42" data-name="ARC"><path class="cls-5" d="M74.05,176.94a.77.77,0,0,1,.69.47c.13.31.25.63.36,1a14,14,0,0,1,.58,2.64q.07.72.12,1.44a14.27,14.27,0,0,1-.31,3.74A9.17,9.17,0,0,1,72.73,191a4.31,4.31,0,0,1-5.88-.06,9,9,0,0,1-2.67-4.83,13.86,13.86,0,0,1-.24-3.75c0-.48.08-.95.15-1.43a13.09,13.09,0,0,1,.63-2.63c.11-.32.24-.63.37-.94a.77.77,0,0,1,.7-.46Z"/></g><g id="ARC-43" data-name="ARC"><path class="cls-5" d="M75.81,183.67c.37-2.85.91-10.5.91-10.5"/></g><g id="ARC-44" data-name="ARC"><path class="cls-5" d="M63,173.3a1,1,0,0,0,.87.94,51.26,51.26,0,0,0,12,0,1,1,0,0,0,.87-.94v0c.05-1,.09-2,.11-3.08a1.31,1.31,0,0,0-1.2-1.34q-2.88-.26-5.76-.25t-5.76.25a1.31,1.31,0,0,0-1.2,1.34c0,1,.06,2.06.11,3.08Z"/></g><g id="ARC-45" data-name="ARC"><path class="cls-5" d="M42.84,172a1,1,0,1,1,.84,0Z"/></g><g id="ARC-46" data-name="ARC"><path class="cls-5" d="M38,170.82a1,1,0,1,1,0,.41Z"/></g><g id="ARC-47" data-name="ARC"><path class="cls-5" d="M48.47,170.82a1,1,0,0,0-1-.84,1,1,0,1,0,0,2.09,1,1,0,0,0,1-.84Z"/></g><g id="LINE-76" data-name="LINE"><path class="cls-5" d="M42.84,176.06v-5a.41.41,0,0,1,.42-.41.41.41,0,0,1,.42.41v5a.41.41,0,0,1-.42.41A.41.41,0,0,1,42.84,176.06Z"/></g><line class="cls-5" x1="39.07" y1="171.02" x2="36.13" y2="171.02"/><line class="cls-5" x1="50.38" y1="171.02" x2="47.44" y2="171.02"/><g id="LWPOLYLINE-236" data-name="LWPOLYLINE"><rect class="cls-5" x="427.6" y="372.85" width="19.69" height="25.98"/></g><g id="LWPOLYLINE-237" data-name="LWPOLYLINE"><path class="cls-5" d="M443.45,393.73a1.11,1.11,0,0,0,1.1-1.12V379.07a1.11,1.11,0,0,0-1.1-1.11h-9.9a.92.92,0,0,0-.91.92V392.8a.92.92,0,0,0,.91.93Z"/></g><g id="ARC-48" data-name="ARC"><path class="cls-5" d="M444,408.88c-3.15-.35-11.44-1-11.44-1"/></g><g id="ARC-49" data-name="ARC"><path class="cls-5" d="M436.73,420.2a.88.88,0,0,0,.52.78q.51.21,1.05.39a14.42,14.42,0,0,0,2.91.65c.52.06,1.05.1,1.57.13a15.46,15.46,0,0,0,4.13-.34,10,10,0,0,0,5.27-3.09,4.86,4.86,0,0,0-.07-6.56,10.05,10.05,0,0,0-5.32-3,15.48,15.48,0,0,0-4.13-.26c-.53,0-1.05.09-1.58.16a14.53,14.53,0,0,0-2.89.71,9.41,9.41,0,0,0-1,.42.82.82,0,0,0-.5.78Z"/></g><g id="ARC-50" data-name="ARC"><path class="cls-5" d="M444.14,422.16c-3.13.41-11.56,1-11.56,1"/></g><g id="ARC-51" data-name="ARC"><path class="cls-5" d="M432.72,407.88a1.08,1.08,0,0,1,1,1,55.89,55.89,0,0,1,0,13.35,1.1,1.1,0,0,1-1,1h0c-1.14.06-2.27.1-3.4.13a1.47,1.47,0,0,1-1.48-1.35c-.18-2.13-.27-4.28-.27-6.42s.09-4.29.27-6.43a1.46,1.46,0,0,1,1.48-1.34c1.13,0,2.26.06,3.4.12Z"/></g><g id="ARC-52" data-name="ARC"><path class="cls-5" d="M431.27,385.37a1.16,1.16,0,1,0-1.52,1.54,1.14,1.14,0,0,0,1.52-.6Z"/></g><g id="ARC-53" data-name="ARC"><path class="cls-5" d="M430,380a1.16,1.16,0,1,0,.46,0Z"/></g><g id="ARC-54" data-name="ARC"><path class="cls-5" d="M430,391.66a1.16,1.16,0,1,1,.46,0Z"/></g><g id="LINE-77" data-name="LINE"><path class="cls-5" d="M435.76,385.37h-5.55a.47.47,0,0,0,0,.94h5.55a.47.47,0,0,0,0-.94Z"/></g><line class="cls-5" x1="430.21" y1="381.17" x2="430.21" y2="377.89"/><line class="cls-5" x1="430.21" y1="393.79" x2="430.21" y2="390.51"/><g id="LWPOLYLINE-238" data-name="LWPOLYLINE"><rect class="cls-5" x="747.31" y="249.05" width="19.56" height="25.47"/></g><g id="LWPOLYLINE-239" data-name="LWPOLYLINE"><path class="cls-5" d="M751.13,269.52a1.09,1.09,0,0,1-1.09-1.09V255.15a1.08,1.08,0,0,1,1.09-1.09H761a.91.91,0,0,1,.91.91v13.64a.91.91,0,0,1-.91.91Z"/></g><g id="ARC-55" data-name="ARC"><path class="cls-5" d="M750.56,284.38c3.12-.34,11.36-1,11.36-1"/></g><g id="ARC-56" data-name="ARC"><path class="cls-5" d="M757.79,295.48a.83.83,0,0,1-.51.76c-.34.14-.69.27-1,.39a15.06,15.06,0,0,1-2.89.63c-.52.06-1,.1-1.57.13a15.19,15.19,0,0,1-4.09-.34,10,10,0,0,1-5.23-3,4.93,4.93,0,0,1-1.24-3.23,4.87,4.87,0,0,1,1.3-3.2,10,10,0,0,1,5.29-2.92,15.25,15.25,0,0,1,4.1-.26c.52,0,1.05.09,1.57.16a14.29,14.29,0,0,1,2.87.69c.35.12.69.26,1,.41a.82.82,0,0,1,.5.76Z"/></g><g id="ARC-57" data-name="ARC"><path class="cls-5" d="M750.44,297.4c3.11.4,11.48,1,11.48,1"/></g><g id="ARC-58" data-name="ARC"><path class="cls-5" d="M761.78,283.39a1.1,1.1,0,0,0-1,1,55.11,55.11,0,0,0,0,13.09,1.09,1.09,0,0,0,1,.95h0c1.13.06,2.25.1,3.37.12a1.43,1.43,0,0,0,1.47-1.32q.27-3.13.27-6.3t-.27-6.3a1.45,1.45,0,0,0-1.47-1.32c-1.12,0-2.24.07-3.37.13Z"/></g><g id="ARC-59" data-name="ARC"><path class="cls-5" d="M763.22,261.33a1.14,1.14,0,0,1,2.19.46,1.14,1.14,0,0,1-2.19.46Z"/></g><g id="ARC-60" data-name="ARC"><path class="cls-5" d="M764.5,256.08a1.15,1.15,0,1,1-.46,0Z"/></g><g id="ARC-61" data-name="ARC"><path class="cls-5" d="M764.5,267.5a1.15,1.15,0,1,0-.46,0Z"/></g><g id="LINE-78" data-name="LINE"><path class="cls-5" d="M758.76,261.33h5.51a.46.46,0,0,1,.46.46.47.47,0,0,1-.46.46h-5.51a.46.46,0,0,1-.45-.46A.45.45,0,0,1,758.76,261.33Z"/></g><line class="cls-5" x1="764.27" y1="257.21" x2="764.27" y2="253.99"/><line class="cls-5" x1="764.27" y1="269.58" x2="764.27" y2="266.36"/><g id="ARC-62" data-name="ARC"><path class="cls-5" d="M749.07,74.41c3.35.36,12.22,1,12.22,1"/></g><g id="ARC-63" data-name="ARC"><path class="cls-5" d="M756.85,63a.85.85,0,0,0-.55-.78c-.37-.15-.74-.28-1.12-.4a15.63,15.63,0,0,0-3.11-.65c-.56-.07-1.12-.11-1.69-.14a17.64,17.64,0,0,0-4.41.35,10.89,10.89,0,0,0-5.63,3.11,4.73,4.73,0,0,0,.07,6.63,10.92,10.92,0,0,0,5.69,3,17.68,17.68,0,0,0,4.42.26c.56,0,1.12-.09,1.68-.16a17.21,17.21,0,0,0,3.1-.71q.56-.19,1.11-.42a.84.84,0,0,0,.53-.8Z"/></g><g id="ARC-64" data-name="ARC"><path class="cls-5" d="M748.93,61c3.35-.42,12.36-1,12.36-1"/></g><g id="ARC-65" data-name="ARC"><path class="cls-5" d="M761.14,75.43a1.16,1.16,0,0,1-1.11-1A54.29,54.29,0,0,1,760,61a1.15,1.15,0,0,1,1.11-1h0c1.21-.06,2.42-.1,3.63-.13a1.54,1.54,0,0,1,1.58,1.36c.2,2.16.29,4.33.29,6.49s-.09,4.33-.29,6.49a1.53,1.53,0,0,1-1.58,1.36c-1.21,0-2.42-.07-3.63-.13Z"/></g><g id="LWPOLYLINE-240" data-name="LWPOLYLINE"><path class="cls-9" d="M760.08,106V97.61a1,1,0,0,0-1-.94H747.35a1,1,0,0,0-1,.94v17.8a1,1,0,0,0,1,.94H759.1a1,1,0,0,0,1-.94V106Z"/></g><g id="ARC-66" data-name="ARC"><path class="cls-5" d="M762.52,107a1.24,1.24,0,0,0,1.13.71,1.21,1.21,0,0,0,1.23-1.18,1.17,1.17,0,0,0-.74-1.08,1.25,1.25,0,0,0-1.62.61Z"/></g><g id="ARC-67" data-name="ARC"><path class="cls-5" d="M763.9,112.39a1.23,1.23,0,1,0-.5,0Z"/></g><g id="ARC-68" data-name="ARC"><path class="cls-5" d="M763.9,100.63a1.19,1.19,0,0,1,1,1.16,1.23,1.23,0,0,1-2.46,0,1.19,1.19,0,0,1,1-1.16Z"/></g><g id="LINE-79" data-name="LINE"><path class="cls-5" d="M757.73,107h5.92a.47.47,0,1,0,0-.94h-5.92a.47.47,0,1,0,0,.94Z"/></g><line class="cls-5" x1="763.65" y1="111.22" x2="763.65" y2="114.54"/><line class="cls-5" x1="763.65" y1="98.48" x2="763.65" y2="101.8"/><g id="LWPOLYLINE-241" data-name="LWPOLYLINE"><path class="cls-9" d="M760.08,134.13V125.7a1,1,0,0,0-1-.94H747.35a1,1,0,0,0-1,.94v17.8a1,1,0,0,0,1,.94H759.1a1,1,0,0,0,1-.94v-9.37Z"/></g><g id="LWPOLYLINE-242" data-name="LWPOLYLINE"><rect class="cls-9" x="743.44" y="84.24" width="23.49" height="67.45"/></g><g id="ARC-69" data-name="ARC"><path class="cls-5" d="M762.52,135.31a1.23,1.23,0,0,0,1.13.7,1.2,1.2,0,0,0,1.23-1.18,1.18,1.18,0,0,0-.74-1.08,1.25,1.25,0,0,0-1.62.61Z"/></g><g id="ARC-70" data-name="ARC"><path class="cls-5" d="M763.9,140.71a1.18,1.18,0,0,0,1-1.15,1.23,1.23,0,0,0-2.46,0,1.18,1.18,0,0,0,1,1.15Z"/></g><g id="ARC-71" data-name="ARC"><path class="cls-5" d="M763.9,129a1.23,1.23,0,1,1-.5,0Z"/></g><g id="LINE-80" data-name="LINE"><path class="cls-5" d="M757.73,135.31h5.92a.49.49,0,0,0,.49-.48.48.48,0,0,0-.49-.47h-5.92a.48.48,0,0,0-.5.47A.49.49,0,0,0,757.73,135.31Z"/></g><line class="cls-5" x1="763.65" y1="139.55" x2="763.65" y2="142.86"/><line class="cls-5" x1="763.65" y1="126.8" x2="763.65" y2="130.12"/><g id="LWPOLYLINE-243" data-name="LWPOLYLINE"><polygon class="cls-18" points="754.85 448.32 754.85 446.45 792.29 446.45 792.29 22.7 788.54 22.7 787.31 24.82 785.73 26.7 783.85 28.28 781.72 29.5 779.41 30.34 777 30.77 774.54 30.77 772.13 30.34 769.82 29.5 767.69 28.28 765.81 26.7 764.23 24.82 763 22.7 759.25 22.7 759.25 39.58 757.37 39.58 757.37 45.2 766.86 45.2 766.86 197.07 697.49 197.07 697.49 157.47 693.97 157.47 693.97 161.22 654.01 161.22 654.01 164.73 672.18 164.73 672.18 222.15 597.76 222.15 597.76 164.73 620.26 164.73 620.26 161.22 597.76 161.22 597.76 157.47 594.25 157.47 594.25 187.7 590.5 187.7 590.5 193.44 594.25 193.44 594.25 270.43 597.76 270.43 597.76 251.68 652.03 251.68 652.03 248.17 645.81 248.17 645.81 225.67 693.97 225.67 693.97 248.17 685.78 248.17 685.78 251.68 693.97 251.68 693.97 270.43 697.49 270.43 697.49 212.31 755.61 212.31 755.61 244.18 766.86 244.18 766.86 307.93 697.49 307.93 697.49 304.18 693.97 304.18 693.97 307.93 685.78 307.93 685.78 311.45 769.68 311.45 769.68 431.45 751.1 431.45 751.1 448.32 754.85 448.32"/></g><g id="LWPOLYLINE-244" data-name="LWPOLYLINE"><polygon class="cls-18" points="661.1 448.32 661.1 431.45 645.35 431.45 645.35 311.45 652.03 311.45 652.03 307.93 597.76 307.93 597.76 304.18 594.25 304.18 594.25 307.93 545.14 307.93 545.14 305.59 541.63 305.59 541.63 311.45 641.84 311.45 641.84 411.64 617 411.64 617 431.45 603.63 431.45 603.63 437.07 603.87 437.07 603.87 448.32 607.62 448.32 607.62 446.45 657.35 446.45 657.35 448.32 658.78 448.32 661.1 448.32"/></g><g id="LWPOLYLINE-245" data-name="LWPOLYLINE"><polygon class="cls-18" points="513.07 448.32 513.64 448.32 513.64 431.45 500.38 431.45 500.38 427.7 496.86 427.7 496.86 431.45 476.36 431.45 476.36 448.32 480.11 448.32 480.11 446.45 509.88 446.45 509.88 448.32 513.07 448.32"/></g><g id="LWPOLYLINE-246" data-name="LWPOLYLINE"><polygon class="cls-18" points="436.99 448.32 436.99 431.45 427.49 431.45 427.49 367.7 438.74 367.7 438.74 337.7 496.86 337.7 496.86 393.95 500.38 393.95 500.38 264.22 504.13 264.22 504.13 260.71 500.38 260.71 500.38 238.21 541.63 238.21 541.63 260.71 537.88 260.71 537.88 264.22 541.63 264.22 541.63 270.43 545.14 270.43 545.14 234.69 488.43 234.69 488.43 238.21 493.58 238.21 493.58 312.39 427.49 312.39 427.49 238.21 432.41 238.21 432.41 234.69 393.04 234.69 393.04 304.89 389.87 304.89 389.87 310.51 390.81 310.51 390.81 316.14 390.57 316.14 390.57 439.89 390.81 439.89 390.81 446.45 433.24 446.45 433.24 448.32 436.99 448.32"/></g><g id="LWPOLYLINE-247" data-name="LWPOLYLINE"><polygon class="cls-18" points="270.22 321.88 278.31 321.88 278.31 310.51 279.25 310.51 279.25 304.89 243.62 304.89 243.62 310.51 244.56 310.51 244.56 316.14 244.56 321.88 258.08 321.88 270.22 321.88"/></g><g id="LWPOLYLINE-248" data-name="LWPOLYLINE"><polygon class="cls-18" points="88.09 321.88 158.78 321.88 158.78 310.51 159.72 310.51 159.72 304.89 158.78 304.89 158.78 290.71 155.26 290.71 155.26 294.46 70.07 294.46 70.07 308.99 70.18 308.99 70.18 321.88 88.09 321.88"/></g><g id="LWPOLYLINE-249" data-name="LWPOLYLINE"><polygon class="cls-18" points="27.06 318.95 27.06 294.46 21.32 294.46 21.32 297.39 18.5 297.39 18.5 299.5 18.56 299.5 18.56 318.95 27.06 318.95"/></g><g id="LWPOLYLINE-250" data-name="LWPOLYLINE"><polygon class="cls-18" points="21.32 248.28 21.32 248.83 21.32 253.89 21.32 262.22 27.06 262.22 27.06 237.97 50.5 237.97 50.5 234.45 24.25 234.45 24.25 168.82 88 168.82 88 234.45 84.25 234.45 84.25 237.97 88 237.97 88 249.1 96.32 249.1 96.32 245.58 92.57 245.58 92.57 190.62 131.59 190.62 131.59 219.69 155.26 219.69 155.26 245.58 130.07 245.58 130.07 249.1 155.26 249.1 155.26 251.44 158.78 251.44 158.78 186.87 135.34 186.87 135.34 24.22 158.78 24.22 158.78 18.59 132.06 18.59 132.06 0.6 127.9 0.6 127.9 161.56 21.38 161.56 21.38 247.33 21.32 248.28"/></g><g id="LWPOLYLINE-251" data-name="LWPOLYLINE"><polygon class="cls-18" points="556.75 193.44 556.75 187.7 422.33 187.7 422.33 45.2 424.56 45.2 424.56 0.2 420.81 0.2 419.45 2.24 417.77 4.04 415.82 5.54 413.66 6.7 411.33 7.49 408.91 7.89 406.46 7.89 403.79 7.4 401.71 6.7 399.54 5.54 397.6 4.04 395.92 2.24 394.56 0.2 390.81 0.2 390.81 22.7 393.04 22.7 393.04 193.44 549.5 193.44 556.75 193.44"/></g><g id="LWPOLYLINE-252" data-name="LWPOLYLINE"><polygon class="cls-18" points="597.76 123.72 597.76 119.97 620.26 119.97 620.26 116.45 597.76 116.45 597.76 72.5 614.99 72.5 614.99 45.2 626.43 45.2 626.43 39.58 603.62 39.58 603.62 22.7 599.87 22.7 599.65 24.5 599.01 26.18 597.99 27.67 596.63 28.87 595.03 29.71 593.27 30.14 591.47 30.14 589.71 29.71 588.11 28.87 586.76 27.67 585.73 26.18 585.09 24.5 584.87 22.7 581.12 22.7 581.12 45.2 586.63 45.2 586.63 72.5 594.25 72.5 594.25 123.72 597.76 123.72"/></g><g id="LWPOLYLINE-253" data-name="LWPOLYLINE"><polygon class="cls-18" points="697.49 123.72 697.49 103.33 669.36 103.33 669.36 45.2 715.03 45.2 715.03 39.58 691.28 39.58 691.28 22.7 688.47 22.7 688.25 24.58 687.63 26.36 686.62 27.96 685.29 29.3 683.69 30.3 681.9 30.93 680.03 31.14 678.15 30.93 676.37 30.3 674.77 29.3 673.43 27.96 672.42 26.36 671.8 24.58 671.59 22.7 668.78 22.7 668.78 39.58 665.85 39.58 665.85 116.45 654.01 116.45 654.01 119.97 693.97 119.97 693.97 123.72 697.49 123.72"/></g><g id="LWPOLYLINE-254" data-name="LWPOLYLINE"><polygon class="cls-18" points="491.59 45.2 514.09 45.2 514.09 22.7 510.34 22.7 510.12 24.5 509.48 26.18 508.45 27.67 507 28.93 505.5 29.71 503.74 30.14 501.94 30.14 500.18 29.71 498.58 28.87 497.23 27.67 496.2 26.18 495.56 24.5 495.34 22.7 491.59 22.7 491.59 41.26 491.59 45.2"/></g><g id="LWPOLYLINE-255" data-name="LWPOLYLINE"><polygon class="cls-18" points="258.08 22.7 278.31 22.7 278.31 0.2 274.56 0.2 273.2 2.24 271.52 4.04 269.57 5.54 267.41 6.7 265.08 7.49 262.66 7.89 260.21 7.89 257.78 7.49 255.46 6.7 253.29 5.54 251.35 4.04 249.67 2.24 248.31 0.2 244.56 0.2 244.56 22.7 245.94 22.7 258.08 22.7"/></g><path class="cls-1" d="M535.55,403.62h2.15a1.46,1.46,0,0,1,1.63,1.45,1.2,1.2,0,0,1-.65,1.15v0a1.34,1.34,0,0,1,.86,1.32c0,1.08-.68,1.66-2,1.66h-2Zm2,2.38c.73,0,1.09-.3,1.09-.9s-.37-.85-1.09-.85H536.2V406Zm-.1,2.6c1,0,1.4-.32,1.4-1s-.4-1-1.38-1h-1.3v2Z"/><path class="cls-1" d="M541.17,403.62h3.36v.63h-2.7V406h2.48v.59h-2.48v2h2.7v.62h-3.36Z"/><path class="cls-1" d="M546.12,403.62h1.75c1.41,0,2.41,1,2.41,2.79,0,2-1,2.81-2.46,2.81h-1.7Zm1.66,5c1.13,0,1.84-.6,1.84-2.19,0-1.43-.71-2.16-1.79-2.16h-1.05v4.35Z"/><path class="cls-1" d="M554.41,406.92l1.24,2.3h-.78L553.69,407h-1.12v2.27h-.66v-5.6h2c1.17,0,1.86.63,1.86,1.66a1.54,1.54,0,0,1-1.4,1.62Zm-.51-.6c.82,0,1.25-.35,1.25-1s-.42-1-1.25-1h-1.33v2.07Z"/><path class="cls-1" d="M557.08,406.42c0-1.75.94-2.92,2.36-2.92s2.35,1.17,2.35,2.92-.94,2.92-2.35,2.92S557.08,408.17,557.08,406.42Zm4,0c0-1.41-.65-2.29-1.69-2.29s-1.7.88-1.7,2.29.65,2.3,1.7,2.3S561.13,407.84,561.13,406.42Z"/><path class="cls-1" d="M563.14,406.42c0-1.75.94-2.92,2.36-2.92s2.36,1.17,2.36,2.92-1,2.92-2.36,2.92S563.14,408.17,563.14,406.42Zm4.05,0c0-1.41-.65-2.29-1.69-2.29s-1.7.88-1.7,2.29.65,2.3,1.7,2.3S567.19,407.84,567.19,406.42Z"/><path class="cls-1" d="M569.49,403.62h.87l1.82,4.45h0l1.81-4.45h.88v5.6h-.66v-4.54h0l-1.89,4.54H572l-1.88-4.54h0v4.54h-.65Z"/><path class="cls-1" d="M579.93,408.6h3v.62h-3.72v-.53a2,2,0,0,1,.23-1.06c.2-.37.55-.64,1.43-1.1,1.16-.6,1.49-.93,1.49-1.49s-.49-.91-1.17-.91a1.29,1.29,0,0,0-1.39,1.36l-.67-.06a1.93,1.93,0,0,1,2.06-1.93A1.68,1.68,0,0,1,583,405c0,.82-.42,1.31-1.65,1.93-.94.47-1.19.66-1.34.94A1.47,1.47,0,0,0,579.93,408.6Z"/><path class="cls-1" d="M534.31,412.87l-1.24.81V413l1.32-.87H535v5.6h-.67Z"/><path class="cls-1" d="M537.44,417.1h3v.62h-3.71v-.53a2,2,0,0,1,.23-1.06c.2-.37.54-.64,1.42-1.1,1.16-.6,1.5-.93,1.5-1.49s-.49-.91-1.17-.91a1.3,1.3,0,0,0-1.4,1.36l-.66-.06a1.93,1.93,0,0,1,2.06-1.93,1.68,1.68,0,0,1,1.83,1.54c0,.82-.42,1.31-1.65,1.93-.93.47-1.19.66-1.33.94A1.58,1.58,0,0,0,537.44,417.1Z"/><path class="cls-1" d="M542.28,412.12h.58v1.79h-.58Z"/><path class="cls-1" d="M544,414.53h2.08v.6H544Z"/><path class="cls-1" d="M551.81,415.91a1.89,1.89,0,0,1-2,1.93c-1.46,0-2.29-1.1-2.29-2.83s1-3,2.32-3a1.81,1.81,0,0,1,1.87,1.5l-.62.15a1.19,1.19,0,0,0-1.24-1c-.92,0-1.59.87-1.65,2.22h0a2,2,0,0,1,3.58,1.08Zm-.65,0a1.28,1.28,0,0,0-1.34-1.34,1.32,1.32,0,0,0-1.41,1.34,1.31,1.31,0,0,0,1.41,1.32A1.27,1.27,0,0,0,551.16,415.91Z"/><path class="cls-1" d="M553.34,412.12h.58v1.79h-.58Zm1,0H555v1.79h-.59Z"/><path class="cls-1" d="M558.67,416.28,560,415l-1.31-1.29.39-.39,1.29,1.31,1.3-1.31.39.39L560.73,415l1.31,1.3-.39.39-1.3-1.31-1.29,1.31Z"/><path class="cls-1" d="M566.22,412.87l-1.25.81V413l1.33-.87h.58v5.6h-.66Z"/><path class="cls-1" d="M569.65,412.87l-1.24.81V413l1.32-.87h.59v5.6h-.67Z"/><path class="cls-1" d="M572.28,412.12h.58v1.79h-.58Z"/><path class="cls-1" d="M574.28,414.53h2.08v.6h-2.08Z"/><path class="cls-1" d="M578.35,417.1h3v.62h-3.72v-.53a2,2,0,0,1,.23-1.06c.2-.37.54-.64,1.42-1.1,1.16-.6,1.5-.93,1.5-1.49s-.49-.91-1.17-.91a1.3,1.3,0,0,0-1.4,1.36l-.66-.06a1.93,1.93,0,0,1,2.06-1.93,1.68,1.68,0,0,1,1.83,1.54c0,.82-.41,1.31-1.64,1.93-.94.47-1.2.66-1.34.94A1.58,1.58,0,0,0,578.35,417.1Z"/><path class="cls-1" d="M583.18,412.12h.59v1.79h-.59Zm1.06,0h.58v1.79h-.58Z"/><path class="cls-1" d="M682.5,369.12h2.15a1.46,1.46,0,0,1,1.63,1.45,1.2,1.2,0,0,1-.65,1.15h0a1.34,1.34,0,0,1,.86,1.33c0,1.08-.68,1.66-2,1.66h-2Zm2,2.37c.73,0,1.09-.29,1.09-.89s-.37-.86-1.09-.86h-1.37v1.75Zm-.09,2.6c1,0,1.39-.31,1.39-1s-.39-1-1.38-1h-1.29v2Z"/><path class="cls-1" d="M688.13,369.12h3.35v.62h-2.7v1.79h2.48v.6h-2.48v2h2.7v.63h-3.35Z"/><path class="cls-1" d="M693.08,369.12h1.74c1.41,0,2.41,1,2.41,2.79,0,2-1,2.81-2.46,2.81h-1.69Zm1.65,5c1.14,0,1.84-.6,1.84-2.18s-.7-2.17-1.79-2.17h-1v4.35Z"/><path class="cls-1" d="M701.37,372.41l1.23,2.31h-.78l-1.18-2.27h-1.12v2.27h-.66v-5.6h2c1.17,0,1.87.62,1.87,1.65a1.55,1.55,0,0,1-1.4,1.63Zm-.52-.59c.82,0,1.25-.36,1.25-1.05s-.42-1-1.25-1h-1.33v2.08Z"/><path class="cls-1" d="M704,371.92c0-1.75.94-2.92,2.36-2.92s2.36,1.17,2.36,2.92-1,2.92-2.36,2.92S704,373.67,704,371.92Zm4.05,0c0-1.42-.64-2.3-1.69-2.3s-1.7.88-1.7,2.3.65,2.29,1.7,2.29S708.08,373.33,708.08,371.92Z"/><path class="cls-1" d="M710.09,371.92c0-1.75.94-2.92,2.36-2.92s2.36,1.17,2.36,2.92-.95,2.92-2.36,2.92S710.09,373.67,710.09,371.92Zm4,0c0-1.42-.64-2.3-1.69-2.3s-1.7.88-1.7,2.3.65,2.29,1.7,2.29S714.14,373.33,714.14,371.92Z"/><path class="cls-1" d="M716.44,369.12h.88l1.81,4.45h0l1.81-4.45h.88v5.6h-.66v-4.54h0l-1.88,4.54H719l-1.89-4.54h0v4.54h-.65Z"/><path class="cls-1" d="M726,372.85l.66-.1c.11,1,.58,1.46,1.41,1.46a1.07,1.07,0,0,0,1.2-1.08c0-.76-.44-1.12-1.32-1.12h-.4v-.57h.4c.66,0,1.17-.4,1.17-.9s-.4-.93-1.06-.93a1.17,1.17,0,0,0-1.26,1.05l-.65-.09a1.8,1.8,0,0,1,1.91-1.57,1.54,1.54,0,0,1,1.73,1.49,1.35,1.35,0,0,1-.76,1.17v0a1.48,1.48,0,0,1,.89,1.45,1.69,1.69,0,0,1-1.85,1.71A2,2,0,0,1,726,372.85Z"/><path class="cls-1" d="M682.12,378.37l-1.25.81v-.7l1.33-.86h.58v5.6h-.66Z"/><path class="cls-1" d="M685.56,378.37l-1.25.81v-.7l1.33-.86h.58v5.6h-.66Z"/><path class="cls-1" d="M688.18,377.62h.59v1.78h-.59Z"/><path class="cls-1" d="M689.9,380H692v.6H689.9Z"/><path class="cls-1" d="M693.44,380.42c0-1.82.9-2.92,2.21-2.92s2.21,1.1,2.21,2.92-.9,2.92-2.21,2.92S693.44,382.23,693.44,380.42Zm3.76,0c0-1.46-.61-2.3-1.55-2.3s-1.55.84-1.55,2.3.61,2.29,1.55,2.29S697.2,381.88,697.2,380.42Z"/><path class="cls-1" d="M699.39,377.62H700v1.78h-.58Zm1.05,0H701v1.78h-.59Z"/><path class="cls-1" d="M704.72,381.78l1.31-1.3-1.31-1.29.39-.39,1.29,1.31,1.3-1.31.39.39-1.31,1.29,1.31,1.3-.39.39-1.3-1.31-1.29,1.31Z"/><path class="cls-1" d="M712.27,378.37l-1.25.81v-.7l1.33-.86h.58v5.6h-.66Z"/><path class="cls-1" d="M715.7,378.37l-1.24.81v-.7l1.32-.86h.59v5.6h-.67Z"/><path class="cls-1" d="M718.33,377.62h.58v1.78h-.58Z"/><path class="cls-1" d="M720.33,380h2.08v.6h-2.08Z"/><path class="cls-1" d="M724.4,382.59h3v.63H723.7v-.53a2,2,0,0,1,.23-1.06c.2-.37.54-.64,1.42-1.1,1.16-.6,1.5-.94,1.5-1.49s-.49-.92-1.17-.92a1.3,1.3,0,0,0-1.4,1.36l-.66-.05a1.92,1.92,0,0,1,2.06-1.93,1.68,1.68,0,0,1,1.83,1.54c0,.82-.41,1.31-1.65,1.93-.93.47-1.19.66-1.33.94A1.56,1.56,0,0,0,724.4,382.59Z"/><path class="cls-1" d="M729.23,377.62h.59v1.78h-.59Zm1.06,0h.58v1.78h-.58Z"/><path class="cls-1" d="M229.29,201.29h.65v5h2.53v.62h-3.18Z"/><path class="cls-1" d="M233.94,201.29h.66v5.59h-.66Z"/><path class="cls-1" d="M235.93,201.29h.7l1.66,4.71h0l1.67-4.71h.68l-2,5.59H238Z"/><path class="cls-1" d="M242,201.29h.66v5.59H242Z"/><path class="cls-1" d="M244.58,201.29h.78l2.54,4.56h0v-4.56h.67v5.59h-.79l-2.54-4.56h0v4.56h-.65Z"/><path class="cls-1" d="M250.21,204.08c0-1.77.92-2.91,2.36-2.91a2.06,2.06,0,0,1,2.12,1.84l-.65.12a1.43,1.43,0,0,0-1.47-1.34c-1,0-1.7.88-1.7,2.29s.65,2.3,1.7,2.3a1.42,1.42,0,0,0,1.49-1.64h-1.42v-.62h2.07v.56a2.08,2.08,0,0,1-2.14,2.32C251.13,207,250.21,205.86,250.21,204.08Z"/><path class="cls-1" d="M258.32,207l2.85-6,.45.2-2.86,6Z"/><path class="cls-1" d="M265.56,201.29h1.74c1.42,0,2.42,1,2.42,2.79,0,2-1,2.8-2.47,2.8h-1.69Zm1.65,5c1.14,0,1.84-.6,1.84-2.18s-.7-2.17-1.79-2.17h-1.05v4.35Z"/><path class="cls-1" d="M271.36,201.29H272v5.59h-.65Z"/><path class="cls-1" d="M273.92,201.29h.78l2.54,4.56h0v-4.56h.66v5.59h-.78l-2.54-4.56h0v4.56h-.66Z"/><path class="cls-1" d="M279.85,201.29h.65v5.59h-.65Z"/><path class="cls-1" d="M282.41,201.29h.78l2.54,4.56h0v-4.56h.66v5.59h-.78l-2.55-4.56h0v4.56h-.66Z"/><path class="cls-1" d="M288,204.08c0-1.77.93-2.91,2.36-2.91a2.07,2.07,0,0,1,2.13,1.84l-.66.12a1.43,1.43,0,0,0-1.47-1.34c-1,0-1.7.88-1.7,2.29s.65,2.3,1.7,2.3a1.43,1.43,0,0,0,1.5-1.64h-1.43v-.62h2.07v.56A2.08,2.08,0,0,1,290.4,207C289,207,288,205.86,288,204.08Z"/><path class="cls-1" d="M299.22,204.58l1.23,2.3h-.78l-1.18-2.27h-1.12v2.27h-.66v-5.59h2c1.17,0,1.86.62,1.86,1.65a1.53,1.53,0,0,1-1.39,1.62Zm-.52-.59c.82,0,1.25-.36,1.25-1.05s-.42-1-1.25-1h-1.33V204Z"/><path class="cls-1" d="M301.88,204.08c0-1.75.94-2.91,2.36-2.91s2.36,1.16,2.36,2.91-1,2.92-2.36,2.92S301.88,205.84,301.88,204.08Zm4.05,0c0-1.41-.65-2.29-1.69-2.29s-1.7.88-1.7,2.29.65,2.3,1.7,2.3S305.93,205.5,305.93,204.08Z"/><path class="cls-1" d="M307.94,204.08c0-1.75.94-2.91,2.36-2.91s2.36,1.16,2.36,2.91-1,2.92-2.36,2.92S307.94,205.84,307.94,204.08Zm4.05,0c0-1.41-.64-2.29-1.69-2.29s-1.7.88-1.7,2.29.65,2.3,1.7,2.3S312,205.5,312,204.08Z"/><path class="cls-1" d="M314.29,201.29h.88l1.81,4.44h0l1.81-4.44h.88v5.59H319v-4.54h0l-1.89,4.54h-.27L315,202.34h0v4.54h-.65Z"/><path class="cls-1" d="M247.43,210.54l-1.25.81v-.7l1.33-.86h.58v5.59h-.66Z"/><path class="cls-1" d="M249.68,213.52l.66-.1c.11,1,.58,1.46,1.4,1.46a1.07,1.07,0,0,0,1.2-1.08c0-.76-.43-1.12-1.32-1.12h-.4v-.58h.4c.67,0,1.18-.4,1.18-.9s-.4-.93-1.06-.93a1.19,1.19,0,0,0-1.27,1.06l-.65-.1a1.8,1.8,0,0,1,1.92-1.56,1.53,1.53,0,0,1,1.72,1.48,1.36,1.36,0,0,1-.76,1.18h0a1.5,1.5,0,0,1,.9,1.46,1.68,1.68,0,0,1-1.86,1.7A2,2,0,0,1,249.68,213.52Z"/><path class="cls-1" d="M255.26,209.79h.58v1.78h-.58Z"/><path class="cls-1" d="M257,212.19h2.08v.6H257Z"/><path class="cls-1" d="M264.44,212.25c0,2.27-.61,3.25-2,3.25a1.77,1.77,0,0,1-1.8-1.42l.61-.16a1.17,1.17,0,0,0,1.19,1c.88,0,1.3-.57,1.36-2.05h0a1.71,1.71,0,0,1-1.44.63,1.79,1.79,0,0,1-1.95-1.92,1.87,1.87,0,0,1,2-1.89C263.61,209.67,264.44,210.53,264.44,212.25Zm-.77-.65a1.25,1.25,0,0,0-1.33-1.33,1.23,1.23,0,0,0-1.33,1.29,1.33,1.33,0,0,0,2.66,0Z"/><path class="cls-1" d="M266,209.79h.58v1.78H266Zm1.06,0h.58v1.78h-.58Z"/><path class="cls-1" d="M271.36,213.94l1.31-1.29-1.31-1.3.39-.39,1.29,1.31,1.29-1.31.39.39-1.31,1.3,1.31,1.29-.39.4L273,213l-1.29,1.32Z"/><path class="cls-1" d="M278.6,214.76h3v.62H277.9v-.52a2,2,0,0,1,.23-1.07c.2-.37.55-.64,1.43-1.09,1.15-.6,1.49-.94,1.49-1.5s-.49-.91-1.17-.91a1.31,1.31,0,0,0-1.4,1.36l-.66-.06a1.92,1.92,0,0,1,2.06-1.92,1.68,1.68,0,0,1,1.83,1.53c0,.83-.41,1.31-1.64,1.94-.94.47-1.19.65-1.34.93A1.58,1.58,0,0,0,278.6,214.76Z"/><path class="cls-1" d="M282.91,213.9l.65-.16a1.42,1.42,0,1,0,1.43-1.58,1.81,1.81,0,0,0-1.35.59l-.58-.14.53-2.82h2.94v.62H284.1l-.31,1.55h0a2.08,2.08,0,0,1,1.29-.38,1.87,1.87,0,0,1,1.94,1.92,1.93,1.93,0,0,1-2.05,2A2,2,0,0,1,282.91,213.9Z"/><path class="cls-1" d="M288.29,209.79h.59v1.78h-.59Z"/><path class="cls-1" d="M290.29,212.19h2.09v.6h-2.09Z"/><path class="cls-1" d="M294.64,210.54l-1.25.81v-.7l1.33-.86h.58v5.59h-.66Z"/><path class="cls-1" d="M298.08,210.54l-1.25.81v-.7l1.33-.86h.58v5.59h-.66Z"/><path class="cls-1" d="M300.71,209.79h.58v1.78h-.58Zm1.05,0h.58v1.78h-.58Z"/><path class="cls-1" d="M58.87,268.11h3.37v.62H59.53v2H62v.59H59.53v2.38h-.66Z"/><path class="cls-1" d="M63.79,270.9c0-1.75.95-2.91,2.36-2.91s2.36,1.16,2.36,2.91-.94,2.92-2.36,2.92S63.79,272.65,63.79,270.9Zm4.06,0c0-1.41-.65-2.29-1.7-2.29s-1.69.88-1.69,2.29.65,2.3,1.69,2.3S67.85,272.32,67.85,270.9Z"/><path class="cls-1" d="M71.5,271.37l-2-3.26h.77l1.51,2.61h0l1.52-2.61h.76l-2,3.26v2.33H71.5Z"/><path class="cls-1" d="M75.77,268.11h3.36v.62h-2.7v1.79H78.9v.59H76.43v2h2.7v.62H75.77Z"/><path class="cls-1" d="M83.54,271.4l1.24,2.3H84l-1.18-2.27H81.7v2.27H81v-5.59h2c1.17,0,1.86.62,1.86,1.65a1.54,1.54,0,0,1-1.4,1.62Zm-.52-.59c.83,0,1.26-.36,1.26-1.05s-.42-1-1.26-1H81.7v2.08Z"/><path class="cls-1" d="M444.54,257.56v-3.78h.65v3.73a1.35,1.35,0,1,0,2.69,0v-3.74h.66v3.78a2,2,0,0,1-4,0Z"/><path class="cls-1" d="M452.06,254.41h-1.75v-.63h4.15v.63h-1.74v5h-.66Z"/><path class="cls-1" d="M456.25,253.78h.66v5.6h-.66Z"/><path class="cls-1" d="M459.14,253.78h.66v5h2.52v.62h-3.18Z"/><path class="cls-1" d="M464.11,253.78h.66v5.6h-.66Z"/><path class="cls-1" d="M468.3,254.41h-1.75v-.63h4.15v.63H469v5h-.66Z"/><path class="cls-1" d="M474.09,257l-2-3.26h.77l1.51,2.62h0l1.52-2.62h.77l-2,3.26v2.34h-.66Z"/><path class="cls-1" d="M450.84,265.58l1.23,2.3h-.78l-1.18-2.27H449v2.27h-.66v-5.6h2c1.17,0,1.86.63,1.86,1.66a1.54,1.54,0,0,1-1.39,1.62Zm-.52-.6c.82,0,1.25-.36,1.25-1s-.42-1-1.25-1H449V265Z"/><path class="cls-1" d="M453.82,265.08c0-1.75.94-2.92,2.36-2.92s2.36,1.17,2.36,2.92-1,2.92-2.36,2.92S453.82,266.83,453.82,265.08Zm4.05,0c0-1.42-.64-2.29-1.69-2.29s-1.7.87-1.7,2.29.65,2.29,1.7,2.29S457.87,266.5,457.87,265.08Z"/><path class="cls-1" d="M460.2,265.08c0-1.75.94-2.92,2.36-2.92s2.36,1.17,2.36,2.92S464,268,462.56,268,460.2,266.83,460.2,265.08Zm4.05,0c0-1.42-.64-2.29-1.69-2.29s-1.7.87-1.7,2.29.65,2.29,1.7,2.29S464.25,266.5,464.25,265.08Z"/><path class="cls-1" d="M466.87,262.28h.88l1.81,4.45h0l1.81-4.45h.88v5.6h-.66v-4.54h0l-1.89,4.54h-.27l-1.89-4.54h0v4.54h-.65Z"/><path class="cls-1" d="M441.69,296.56h.68l.82,4.55h0l1.38-4.55h.63l1.39,4.55h0l.83-4.55h.68l-1,5.6h-.8l-1.38-4.5h0l-1.37,4.5h-.81Z"/><path class="cls-1" d="M472.68,296.54h1.74c1.42,0,2.42,1,2.42,2.79,0,2-1,2.81-2.46,2.81h-1.7Zm1.66,5c1.13,0,1.84-.59,1.84-2.18,0-1.43-.71-2.16-1.8-2.16h-1v4.34Z"/><path class="cls-1" d="M147.81,167.67,149,170h-.77l-1.18-2.27H146V170h-.66v-5.6h2c1.17,0,1.86.62,1.86,1.65a1.55,1.55,0,0,1-1.4,1.63Zm-.52-.59c.83,0,1.26-.36,1.26-1.05s-.42-1-1.26-1H146v2.08Z"/><path class="cls-1" d="M206.36,159.94h1.74c1.42,0,2.42,1,2.42,2.8,0,2-1,2.8-2.46,2.8h-1.7Zm1.66,5c1.13,0,1.84-.6,1.84-2.18s-.71-2.17-1.8-2.17h-1v4.35Z"/><path class="cls-1" d="M211.29,159.94H212l.82,4.55h0l1.38-4.55h.62l1.39,4.55h0l.82-4.55h.68l-1,5.6h-.8l-1.37-4.49h0l-1.37,4.49h-.8Z"/><polygon class="cls-1" points="0 272.12 14.4 277.52 0 282.92 0 272.12"/><path class="cls-1" d="M206.62,105.07l.66-.11a1.46,1.46,0,0,0,1.65,1.46c.78,0,1.29-.36,1.29-.9s-.37-.88-1.54-1.25c-1.34-.44-1.78-.83-1.78-1.58s.73-1.48,1.79-1.48a2,2,0,0,1,2,1.63l-.65.14a1.34,1.34,0,0,0-1.39-1.15c-.68,0-1.13.34-1.13.86s.32.66,1.34,1c1.46.47,2,1,2,1.84s-.79,1.54-1.95,1.54A2.06,2.06,0,0,1,206.62,105.07Z"/><path class="cls-1" d="M211.8,104.13c0-1.75.94-2.92,2.36-2.92s2.36,1.17,2.36,2.92-.94,2.92-2.36,2.92S211.8,105.88,211.8,104.13Zm4.06,0c0-1.42-.65-2.3-1.7-2.3s-1.69.88-1.69,2.3.64,2.29,1.69,2.29S215.86,105.54,215.86,104.13Z"/><path class="cls-1" d="M208.39,79.28h.68l.83,4.55h0l1.38-4.55h.63l1.39,4.55h0l.82-4.55h.68l-1,5.6H213l-1.38-4.5h0l-1.37,4.5h-.81Z"/><path class="cls-1" d="M615.48,93.74h1.75c1.41,0,2.41,1,2.41,2.79,0,2-1,2.81-2.46,2.81h-1.7Zm1.66,5c1.13,0,1.84-.6,1.84-2.18s-.71-2.17-1.79-2.17h-1.05v4.35Z"/><path class="cls-1" d="M624.09,97l1.23,2.31h-.77l-1.19-2.27h-1.11v2.27h-.66v-5.6h2c1.17,0,1.86.62,1.86,1.66a1.55,1.55,0,0,1-1.4,1.62Zm-.52-.59c.83,0,1.26-.36,1.26-1s-.43-1-1.26-1h-1.32v2.08Z"/><path class="cls-1" d="M627.36,93.74h3.35v.62H628v1.79h2.48v.6H628v2h2.7v.63h-3.35Z"/><path class="cls-1" d="M632.19,97.48l.66-.11a1.46,1.46,0,0,0,1.66,1.46c.77,0,1.28-.36,1.28-.9s-.37-.88-1.54-1.25c-1.34-.44-1.78-.83-1.78-1.58s.73-1.48,1.79-1.48a2,2,0,0,1,2,1.63l-.65.14a1.34,1.34,0,0,0-1.39-1.15c-.68,0-1.13.34-1.13.86s.32.66,1.35,1c1.45.47,2,1,2,1.84s-.79,1.54-2,1.54A2.07,2.07,0,0,1,632.19,97.48Z"/><path class="cls-1" d="M638,97.48l.66-.11a1.46,1.46,0,0,0,1.65,1.46c.78,0,1.29-.36,1.29-.9s-.38-.88-1.55-1.25c-1.33-.44-1.78-.83-1.78-1.58a1.59,1.59,0,0,1,1.79-1.48,2,2,0,0,1,2,1.63l-.64.14a1.35,1.35,0,0,0-1.4-1.15c-.67,0-1.12.34-1.12.86s.32.66,1.34,1c1.46.47,2,1,2,1.84s-.79,1.54-1.95,1.54A2.05,2.05,0,0,1,638,97.48Z"/><path class="cls-1" d="M644.15,93.74h.65v5.6h-.65Z"/><path class="cls-1" d="M647,93.74h.77l2.54,4.57h0V93.74H651v5.6h-.78l-2.54-4.57h0v4.57H647Z"/><path class="cls-1" d="M653,96.54c0-1.78.93-2.92,2.36-2.92a2.08,2.08,0,0,1,2.13,1.85l-.66.12a1.44,1.44,0,0,0-1.47-1.35c-1,0-1.69.88-1.69,2.3s.65,2.29,1.69,2.29a1.43,1.43,0,0,0,1.5-1.64h-1.43v-.62h2.08v.57a2.1,2.1,0,0,1-2.15,2.32C653.91,99.46,653,98.31,653,96.54Z"/><path class="cls-1" d="M626.86,105.53l1.23,2.31h-.78l-1.18-2.27H625v2.27h-.66v-5.6h2c1.17,0,1.87.62,1.87,1.66a1.55,1.55,0,0,1-1.4,1.62Zm-.52-.59c.82,0,1.25-.36,1.25-1s-.42-1-1.25-1H625v2.08Z"/><path class="cls-1" d="M629.84,105c0-1.75.94-2.92,2.36-2.92s2.36,1.17,2.36,2.92-.95,2.92-2.36,2.92S629.84,106.79,629.84,105Zm4,0c0-1.42-.64-2.3-1.69-2.3s-1.7.88-1.7,2.3.65,2.29,1.7,2.29S633.89,106.45,633.89,105Z"/><path class="cls-1" d="M636.22,105c0-1.75.94-2.92,2.36-2.92s2.36,1.17,2.36,2.92-1,2.92-2.36,2.92S636.22,106.79,636.22,105Zm4,0c0-1.42-.64-2.3-1.69-2.3s-1.7.88-1.7,2.3.65,2.29,1.7,2.29S640.27,106.45,640.27,105Z"/><path class="cls-1" d="M642.89,102.24h.88l1.81,4.45h0l1.81-4.45h.88v5.6h-.66V103.3h0l-1.88,4.54h-.28l-1.89-4.54h0v4.54h-.65Z"/><g id="LWPOLYLINE-256" data-name="LWPOLYLINE"><path class="cls-13" d="M368.31,17.37,336.59,28.91a33.92,33.92,0,0,1-2-11.54,33.69,33.69,0,0,1-2,11.54L300.81,17.37"/></g><g id="LWPOLYLINE-257" data-name="LWPOLYLINE"><path class="cls-13" d="M579.25,39.57,549.41,49.5a28.28,28.28,0,0,1-1.8-9.93"/></g><g id="LWPOLYLINE-258" data-name="LWPOLYLINE"><path class="cls-13" d="M516,39.57,545.8,49.5a28.29,28.29,0,0,0,1.81-9.93"/></g><g id="LWPOLYLINE-259" data-name="LWPOLYLINE"><path class="cls-13" d="M489.71,39.57,459.88,49.5a28.29,28.29,0,0,1-1.81-9.93"/></g><g id="LWPOLYLINE-260" data-name="LWPOLYLINE"><path class="cls-13" d="M426.43,39.57l29.83,9.93a28.07,28.07,0,0,0,1.81-9.93"/></g></g></g></svg>