<svg xmlns="http://www.w3.org/2000/svg" viewBox="0 0 721.35 395.5"><defs><style>.cls-1,.cls-12,.cls-15,.cls-20,.cls-4,.cls-5,.cls-7{fill:#fff;}.cls-1,.cls-10,.cls-11,.cls-12,.cls-13,.cls-14,.cls-15,.cls-16,.cls-17,.cls-18,.cls-19,.cls-20,.cls-21,.cls-22,.cls-4,.cls-5,.cls-6,.cls-7,.cls-8,.cls-9{stroke:#231f20;}.cls-1,.cls-10,.cls-14,.cls-15,.cls-16,.cls-17,.cls-18,.cls-19,.cls-20,.cls-21,.cls-4,.cls-5,.cls-6,.cls-8,.cls-9{stroke-linecap:round;}.cls-1,.cls-10,.cls-14,.cls-15,.cls-16,.cls-17,.cls-18,.cls-19,.cls-20,.cls-21,.cls-3,.cls-4,.cls-5,.cls-6,.cls-8,.cls-9{stroke-linejoin:round;}.cls-1{stroke-width:0.15px;}.cls-2{fill:#dbdecd;stroke:#fff;}.cls-11,.cls-12,.cls-13,.cls-2,.cls-22,.cls-7{stroke-miterlimit:10;}.cls-10,.cls-12,.cls-13,.cls-15,.cls-16,.cls-17,.cls-18,.cls-19,.cls-2{stroke-width:0.25px;}.cls-10,.cls-13,.cls-14,.cls-16,.cls-17,.cls-18,.cls-19,.cls-21,.cls-3,.cls-6,.cls-8,.cls-9{fill:none;}.cls-3{stroke:#787a62;}.cls-11,.cls-22,.cls-3,.cls-9{stroke-width:0.4px;}.cls-14,.cls-4{stroke-width:0.2px;}.cls-5,.cls-6,.cls-7{stroke-width:0.15px;}.cls-8{stroke-width:0.11px;}.cls-11{fill:#eff2f1;}.cls-16{stroke-dasharray:2 2;}.cls-17{stroke-dasharray:1.37 1.37;}.cls-18{stroke-dasharray:1.36 1.36;}.cls-19{stroke-dasharray:1.29 1.29;}.cls-20,.cls-21{stroke-width:0.26px;}.cls-22{fill:#e1e5e5;}.cls-23{fill:#231f20;}</style></defs><title>Asset 999</title><g id="Layer_2" data-name="Layer 2"><g id="Unit17A_Rest"><g id="LWPOLYLINE"><rect class="cls-1" x="399.43" y="28.05" width="98.68" height="95.42"/></g><g id="LWPOLYLINE-2" data-name="LWPOLYLINE"><rect class="cls-1" x="377.74" y="199.88" width="121.76" height="105.01"/></g><circle class="cls-2" cx="693.48" cy="363.88" r="14.2"/><path class="cls-3" d="M705.45,357a11.55,11.55,0,0,1-12,6.74"/><line class="cls-3" x1="704.89" y1="358.07" x2="704.51" y2="355.55"/><line class="cls-3" x1="703.45" y1="360.03" x2="706.45" y2="359.31"/><line class="cls-3" x1="702.25" y1="361.18" x2="702.69" y2="353.84"/><line class="cls-3" x1="700.34" y1="362.47" x2="707.03" y2="363.1"/><line class="cls-3" x1="698.33" y1="363.31" x2="700.58" y2="357.92"/><line class="cls-3" x1="696.06" y1="363.78" x2="704.56" y2="366.88"/><line class="cls-3" x1="699.03" y1="364.86" x2="700.62" y2="367.71"/><path class="cls-3" d="M679.68,363.24a13.07,13.07,0,0,1,13.75.53"/><line class="cls-3" x1="681.49" y1="362.39" x2="679.67" y2="361.96"/><line class="cls-3" x1="683.24" y1="361.86" x2="680.12" y2="367.57"/><line class="cls-3" x1="685.79" y1="361.55" x2="680.67" y2="358.45"/><line class="cls-3" x1="688.21" y1="361.72" x2="683.45" y2="365.89"/><line class="cls-3" x1="690.74" y1="362.4" x2="683.04" y2="354.73"/><line class="cls-3" x1="688.22" y1="359.86" x2="687.71" y2="354.22"/><path class="cls-3" d="M702.06,374.51a14,14,0,0,1-8.63-10.74"/><line class="cls-3" x1="698.7" y1="372.61" x2="704.92" y2="371.56"/><line class="cls-3" x1="696.83" y1="370.86" x2="697.99" y2="376.54"/><line class="cls-3" x1="695.38" y1="368.93" x2="701.36" y2="370.07"/><line class="cls-3" x1="694.23" y1="366.62" x2="693.79" y2="377.71"/><line class="cls-3" x1="694.09" y1="370.02" x2="691.81" y2="372.38"/><polyline class="cls-3" points="693.43 363.77 694.78 353.58 692.38 350.1"/><line class="cls-3" x1="693.98" y1="359.82" x2="687.04" y2="351.68"/><line class="cls-3" x1="694.01" y1="352.47" x2="690.5" y2="351.19"/><line class="cls-3" x1="693.64" y1="361.98" x2="696.95" y2="359.33"/><line class="cls-3" x1="694.26" y1="357.23" x2="699.35" y2="351.37"/><line class="cls-3" x1="693.45" y1="351.53" x2="693.94" y2="350.03"/><polyline class="cls-3" points="693.43 363.77 686.13 370.46 685.95 375.43"/><line class="cls-3" x1="690.05" y1="366.86" x2="690.25" y2="370.8"/><line class="cls-3" x1="686.08" y1="371.8" x2="689.98" y2="377.15"/><line class="cls-3" x1="689.2" y1="367.72" x2="685.2" y2="367.45"/><line class="cls-3" x1="687.26" y1="369.42" x2="681.24" y2="370.18"/><circle class="cls-2" cx="699.89" cy="26.62" r="14.2"/><path class="cls-3" d="M713.54,24.66a11.54,11.54,0,0,1-13.65,1.85"/><line class="cls-3" x1="712.64" y1="25.42" x2="713.22" y2="22.94"/><line class="cls-3" x1="710.59" y1="26.71" x2="713.63" y2="27.14"/><line class="cls-3" x1="709.05" y1="27.34" x2="712.16" y2="20.68"/><line class="cls-3" x1="706.79" y1="27.84" x2="712.79" y2="30.88"/><line class="cls-3" x1="704.62" y1="27.88" x2="708.69" y2="23.69"/><line class="cls-3" x1="702.33" y1="27.48" x2="709.09" y2="33.49"/><line class="cls-3" x1="704.69" y1="29.57" x2="705.13" y2="32.81"/><path class="cls-3" d="M687.3,21a13.05,13.05,0,0,1,12.59,5.55"/><line class="cls-3" x1="689.3" y1="20.82" x2="687.76" y2="19.76"/><line class="cls-3" x1="691.12" y1="20.98" x2="686.12" y2="25.14"/><line class="cls-3" x1="693.6" y1="21.62" x2="689.98" y2="16.86"/><line class="cls-3" x1="695.79" y1="22.68" x2="689.83" y2="24.8"/><line class="cls-3" x1="697.89" y1="24.24" x2="693.55" y2="14.27"/><line class="cls-3" x1="696.48" y1="20.95" x2="698.09" y2="15.52"/><path class="cls-3" d="M704,39.67a14,14,0,0,1-4.07-13.16"/><line class="cls-3" x1="701.54" y1="36.66" x2="707.7" y2="37.98"/><line class="cls-3" x1="700.44" y1="34.35" x2="699.43" y2="40.05"/><line class="cls-3" x1="699.81" y1="32.02" x2="704.94" y2="35.28"/><line class="cls-3" x1="699.58" y1="29.44" x2="695.1" y2="39.6"/><line class="cls-3" x1="698.2" y1="32.56" x2="695.21" y2="33.91"/><polyline class="cls-3" points="699.89 26.51 704.89 17.53 703.94 13.4"/><line class="cls-3" x1="701.86" y1="23.03" x2="698.4" y2="12.92"/><line class="cls-3" x1="704.59" y1="16.22" x2="701.8" y2="13.73"/><line class="cls-3" x1="700.74" y1="24.91" x2="704.8" y2="23.67"/><line class="cls-3" x1="703.07" y1="20.72" x2="709.96" y2="17.15"/><line class="cls-3" x1="704.41" y1="15.13" x2="705.42" y2="13.91"/><polyline class="cls-3" points="699.89 26.51 690.64 30.04 688.64 34.59"/><line class="cls-3" x1="695.61" y1="28.13" x2="694.34" y2="31.87"/><line class="cls-3" x1="690.1" y1="31.26" x2="691.76" y2="37.67"/><line class="cls-3" x1="694.51" y1="28.62" x2="690.88" y2="26.89"/><line class="cls-3" x1="692.08" y1="29.49" x2="686.2" y2="27.98"/><circle class="cls-2" cx="703.07" cy="180.36" r="12.24"/><path class="cls-3" d="M714.05,176.07a11.83,11.83,0,0,1-11,4.29"/><line class="cls-3" x1="710.16" y1="179.22" x2="714.82" y2="179.71"/><line class="cls-3" x1="708.12" y1="180.02" x2="710.4" y2="174.78"/><line class="cls-3" x1="705.79" y1="180.44" x2="714.5" y2="183.59"/><path class="cls-3" d="M693.08,174.91a11.86,11.86,0,0,1,10,5.45"/><line class="cls-3" x1="697.54" y1="175.77" x2="694.95" y2="172.12"/><line class="cls-3" x1="699.48" y1="176.78" x2="694.04" y2="178.52"/><line class="cls-3" x1="701.33" y1="178.26" x2="698.14" y2="170.09"/><path class="cls-3" d="M695.77,189.53a11.82,11.82,0,0,1,7.3-9.17"/><line class="cls-3" x1="697.52" y1="184.92" x2="693.66" y2="186.68"/><line class="cls-3" x1="698.88" y1="183.2" x2="699.57" y2="188.87"/><line class="cls-3" x1="700.68" y1="181.67" x2="692.06" y2="183.17"/><polyline class="cls-3" points="703.07 180.36 705.9 189.19 708.5 190.69"/><line class="cls-3" x1="704.15" y1="183.79" x2="709.58" y2="186.24"/><line class="cls-3" x1="704.69" y1="185.49" x2="700.75" y2="190.06"/><polyline class="cls-3" points="703.07 180.36 706.45 172.08 705.08 168.89"/><line class="cls-3" x1="704.64" y1="176.54" x2="702.96" y2="173.39"/><line class="cls-3" x1="705.97" y1="170.97" x2="702.37" y2="169.01"/><line class="cls-3" x1="705" y1="175.51" x2="708.37" y2="174.18"/><circle class="cls-2" cx="703.96" cy="337.54" r="12.24"/><path class="cls-3" d="M714.94,333.25a11.81,11.81,0,0,1-11,4.29"/><line class="cls-3" x1="711.05" y1="336.41" x2="715.71" y2="336.89"/><line class="cls-3" x1="709.01" y1="337.2" x2="711.29" y2="331.96"/><line class="cls-3" x1="706.68" y1="337.62" x2="715.39" y2="340.77"/><path class="cls-3" d="M694,332.09a11.86,11.86,0,0,1,10,5.45"/><line class="cls-3" x1="698.43" y1="332.95" x2="695.84" y2="329.31"/><line class="cls-3" x1="700.38" y1="333.96" x2="694.94" y2="335.7"/><line class="cls-3" x1="702.22" y1="335.44" x2="699.03" y2="327.27"/><path class="cls-3" d="M696.66,346.72a11.82,11.82,0,0,1,7.3-9.18"/><line class="cls-3" x1="698.41" y1="342.11" x2="694.55" y2="343.86"/><line class="cls-3" x1="699.77" y1="340.38" x2="700.46" y2="346.05"/><line class="cls-3" x1="701.57" y1="338.85" x2="692.95" y2="340.36"/><polyline class="cls-3" points="703.96 337.54 706.79 346.37 709.39 347.88"/><line class="cls-3" x1="705.04" y1="340.98" x2="710.47" y2="343.42"/><line class="cls-3" x1="705.58" y1="342.67" x2="701.64" y2="347.24"/><polyline class="cls-3" points="703.96 337.54 707.34 329.26 705.97 326.07"/><line class="cls-3" x1="705.53" y1="333.72" x2="703.85" y2="330.57"/><line class="cls-3" x1="706.86" y1="328.16" x2="703.27" y2="326.19"/><line class="cls-3" x1="705.89" y1="332.69" x2="709.26" y2="331.36"/><rect class="cls-4" x="133.46" y="178.92" width="27.89" height="25.31"/><g id="LWPOLYLINE-3" data-name="LWPOLYLINE"><polygon class="cls-5" points="585.46 63.25 585.46 33.09 678.87 33.09 678.87 120.39 648.71 120.39 648.71 63.25 585.46 63.25"/></g><g id="LWPOLYLINE-4" data-name="LWPOLYLINE"><rect class="cls-5" x="423.22" y="170.62" width="63.81" height="15"/></g><g id="LWPOLYLINE-5" data-name="LWPOLYLINE"><rect class="cls-5" x="36.42" y="27.97" width="22.5" height="16.88"/></g><g id="LWPOLYLINE-6" data-name="LWPOLYLINE"><rect class="cls-5" x="122.67" y="27.97" width="22.5" height="16.88"/></g><g id="LWPOLYLINE-7" data-name="LWPOLYLINE"><rect class="cls-5" x="62.67" y="27.97" width="56.25" height="80.63"/></g><g id="LWPOLYLINE-8" data-name="LWPOLYLINE"><rect class="cls-5" x="87.24" y="149.7" width="41.02" height="15"/></g><g id="LWPOLYLINE-9" data-name="LWPOLYLINE"><polygon class="cls-5" points="391.84 149.83 393.81 151.06 394 150.75 394.47 150.4 395.05 150.43 396.78 151.31 398.19 152.02 399.39 152.68 400.95 153.6 402.35 154.48 402.92 154.83 403.36 155.13 403.93 155.51 404.56 155.96 406.03 157.01 407.37 158.04 408.41 158.87 408.69 159.38 408.57 159.96 408.37 160.27 410.87 161.84 398.73 181.04 379.71 169.03 391.84 149.83"/></g><g id="LWPOLYLINE-10" data-name="LWPOLYLINE"><rect class="cls-5" x="421.91" y="191.45" width="56.25" height="15"/></g><g id="LWPOLYLINE-11" data-name="LWPOLYLINE"><rect class="cls-5" x="382.42" y="284.36" width="18.44" height="17.7"/></g><g id="LWPOLYLINE-12" data-name="LWPOLYLINE"><path class="cls-5" d="M302.56,269.5a12,12,0,0,0-16.89-1.16,11.65,11.65,0,0,0-1.17,1.16l1.06.92v10.91H301.5V270.42Z"/></g><g id="LWPOLYLINE-13" data-name="LWPOLYLINE"><path class="cls-5" d="M325.06,269.5a12,12,0,0,0-16.89-1.16A11.65,11.65,0,0,0,307,269.5l1.06.92v10.91H324V270.42Z"/></g><g id="LWPOLYLINE-14" data-name="LWPOLYLINE"><rect class="cls-5" x="594.91" y="87.16" width="32.83" height="34.02"/></g><g id="LWPOLYLINE-15" data-name="LWPOLYLINE"><path class="cls-5" d="M631.44,147a139.45,139.45,0,0,1,23.3,0,.84.84,0,0,1,.71.83v.8a.42.42,0,0,1,.42-.43h1.48a.42.42,0,0,1,.42.43v27.28a.42.42,0,0,1-.42.42H628.19a.42.42,0,0,1-.42-.42V148.65a.42.42,0,0,1,.42-.43h2.11a.43.43,0,0,1,.43.43v-.8A.84.84,0,0,1,631.44,147Z"/></g><g id="LWPOLYLINE-16" data-name="LWPOLYLINE"><path class="cls-5" d="M597,147a139.57,139.57,0,0,1,23.31,0,.84.84,0,0,1,.71.83v.8a.42.42,0,0,1,.42-.43h1.48a.42.42,0,0,1,.42.43v27.28a.42.42,0,0,1-.42.42H593.76a.42.42,0,0,1-.42-.42V148.65a.42.42,0,0,1,.42-.43h2.11a.42.42,0,0,1,.42.43v-.8A.84.84,0,0,1,597,147Z"/></g><g id="CIRCLE"><path class="cls-5" d="M673.25,139.86a9.83,9.83,0,1,1-9.83,9.83,9.83,9.83,0,0,1,9.83-9.83Z"/></g><line class="cls-6" x1="648.71" y1="63.25" x2="648.71" y2="36.19"/><line class="cls-6" x1="616.61" y1="63.25" x2="616.61" y2="36.19"/><line class="cls-6" x1="648.71" y1="63.25" x2="675.76" y2="63.25"/><line class="cls-6" x1="648.71" y1="90.72" x2="675.76" y2="90.72"/><g id="LWPOLYLINE-17" data-name="LWPOLYLINE"><path class="cls-5" d="M471.66,364.23V346.42l5.81.29a3.75,3.75,0,0,1,3.56,3.74v9.75a3.75,3.75,0,0,1-3.56,3.74Z"/></g><g id="LWPOLYLINE-18" data-name="LWPOLYLINE"><path class="cls-6" d="M471.66,347.83l5.74.28a2.35,2.35,0,0,1,2.22,2.34v9.75a2.35,2.35,0,0,1-2.22,2.34l-5.74.28"/></g><g id="LWPOLYLINE-19" data-name="LWPOLYLINE"><path class="cls-5" d="M450,366.82H432.23l.29,5.82a3.75,3.75,0,0,0,3.74,3.56H446a3.76,3.76,0,0,0,3.75-3.56Z"/></g><g id="LWPOLYLINE-20" data-name="LWPOLYLINE"><path class="cls-6" d="M433.63,366.82l.29,5.75a2.34,2.34,0,0,0,2.34,2.22H446a2.34,2.34,0,0,0,2.34-2.22l.29-5.75"/></g><g id="LWPOLYLINE-21" data-name="LWPOLYLINE"><path class="cls-5" d="M470.37,366.82H452.56l.29,5.82a3.76,3.76,0,0,0,3.75,3.56h9.74a3.75,3.75,0,0,0,3.74-3.56Z"/></g><g id="LWPOLYLINE-22" data-name="LWPOLYLINE"><path class="cls-6" d="M454,366.82l.29,5.75a2.34,2.34,0,0,0,2.34,2.22h9.74a2.34,2.34,0,0,0,2.34-2.22l.29-5.75"/></g><g id="LWPOLYLINE-23" data-name="LWPOLYLINE"><path class="cls-5" d="M429.7,366.82H411.89l.29,5.82a3.76,3.76,0,0,0,3.75,3.56h9.74a3.75,3.75,0,0,0,3.74-3.56Z"/></g><g id="LWPOLYLINE-24" data-name="LWPOLYLINE"><path class="cls-6" d="M413.3,366.82l.29,5.75a2.34,2.34,0,0,0,2.34,2.22h9.74a2.34,2.34,0,0,0,2.34-2.22l.29-5.75"/></g><g id="LWPOLYLINE-25" data-name="LWPOLYLINE"><path class="cls-5" d="M432.23,344.29H450l-.29-5.81a3.76,3.76,0,0,0-3.75-3.56h-9.74a3.75,3.75,0,0,0-3.74,3.56Z"/></g><g id="LWPOLYLINE-26" data-name="LWPOLYLINE"><path class="cls-6" d="M448.63,344.29l-.29-5.74a2.34,2.34,0,0,0-2.34-2.23h-9.74a2.34,2.34,0,0,0-2.34,2.23l-.29,5.74"/></g><g id="LWPOLYLINE-27" data-name="LWPOLYLINE"><path class="cls-5" d="M411.89,344.29H429.7l-.29-5.81a3.75,3.75,0,0,0-3.74-3.56h-9.74a3.76,3.76,0,0,0-3.75,3.56Z"/></g><g id="LWPOLYLINE-28" data-name="LWPOLYLINE"><path class="cls-6" d="M428.3,344.29l-.29-5.74a2.34,2.34,0,0,0-2.34-2.23h-9.74a2.34,2.34,0,0,0-2.34,2.23l-.29,5.74"/></g><g id="LWPOLYLINE-29" data-name="LWPOLYLINE"><path class="cls-5" d="M452.56,344.29h17.81l-.29-5.81a3.75,3.75,0,0,0-3.74-3.56H456.6a3.76,3.76,0,0,0-3.75,3.56Z"/></g><g id="LWPOLYLINE-30" data-name="LWPOLYLINE"><path class="cls-6" d="M469,344.29l-.29-5.74a2.34,2.34,0,0,0-2.34-2.23H456.6a2.34,2.34,0,0,0-2.34,2.23l-.29,5.74"/></g><g id="LWPOLYLINE-31" data-name="LWPOLYLINE"><path class="cls-5" d="M410.24,364.23V346.42l-5.82.29a3.75,3.75,0,0,0-3.56,3.74v9.75a3.75,3.75,0,0,0,3.56,3.74Z"/></g><g id="LWPOLYLINE-32" data-name="LWPOLYLINE"><path class="cls-6" d="M410.24,347.83l-5.75.28a2.35,2.35,0,0,0-2.22,2.34v9.75a2.35,2.35,0,0,0,2.22,2.34l5.75.28"/></g><g id="LWPOLYLINE-33" data-name="LWPOLYLINE"><rect class="cls-5" x="407.38" y="341.26" width="67.5" height="28.12"/></g><path class="cls-7" d="M428.91,229.29s2.9-9.66,12.57-5.76,25.81,14.1,28.09,25.07-22.84,14.13-22.84,14.13-13.22,3.25-17-11.33S428.91,229.29,428.91,229.29Z"/><g id="LINE"><line class="cls-6" x1="62.67" y1="30.79" x2="118.92" y2="30.79"/></g><g id="LINE-2" data-name="LINE"><line class="cls-6" x1="62.67" y1="105.79" x2="118.92" y2="105.79"/></g><g id="LWPOLYLINE-34" data-name="LWPOLYLINE"><rect class="cls-6" x="92.06" y="33.33" width="24.31" height="14.68"/></g><g id="LWPOLYLINE-35" data-name="LWPOLYLINE"><rect class="cls-6" x="65.21" y="33.33" width="24.31" height="14.68"/></g><g id="LINE-3" data-name="LINE"><line class="cls-6" x1="396.24" y1="179.47" x2="408.36" y2="160.27"/></g><g id="LINE-4" data-name="LINE"><line class="cls-6" x1="393.81" y1="151.06" x2="381.67" y2="170.26"/></g><g id="ARC"><path class="cls-6" d="M398.94,175.19A40.14,40.14,0,0,0,384.38,166"/></g><g id="ARC-2" data-name="ARC"><path class="cls-6" d="M397.14,178a101.24,101.24,0,0,0-14.57-9.2"/></g><g id="LWPOLYLINE-36" data-name="LWPOLYLINE"><line class="cls-6" x1="299.65" y1="268.75" x2="299.65" y2="281.33"/></g><g id="LWPOLYLINE-37" data-name="LWPOLYLINE"><line class="cls-6" x1="287.41" y1="268.75" x2="287.41" y2="281.33"/></g><g id="LWPOLYLINE-38" data-name="LWPOLYLINE"><path class="cls-6" d="M285.56,270.42a9.92,9.92,0,0,1,1-1,10.56,10.56,0,0,1,14.91,1"/></g><g id="LWPOLYLINE-39" data-name="LWPOLYLINE"><line class="cls-6" x1="322.15" y1="268.75" x2="322.15" y2="281.33"/></g><g id="LWPOLYLINE-40" data-name="LWPOLYLINE"><line class="cls-6" x1="309.91" y1="268.75" x2="309.91" y2="281.33"/></g><g id="LWPOLYLINE-41" data-name="LWPOLYLINE"><path class="cls-6" d="M308.06,270.42a9.92,9.92,0,0,1,1-1,10.56,10.56,0,0,1,14.91,1"/></g><g id="LINE-5" data-name="LINE"><line class="cls-6" x1="585.46" y1="36.19" x2="675.76" y2="36.19"/></g><g id="LINE-6" data-name="LINE"><line class="cls-6" x1="585.46" y1="33.09" x2="585.46" y2="63.25"/></g><g id="LINE-7" data-name="LINE"><line class="cls-6" x1="587.67" y1="36.19" x2="587.67" y2="63.25"/></g><g id="LINE-8" data-name="LINE"><line class="cls-6" x1="675.76" y1="36.19" x2="675.76" y2="120.39"/></g><g id="LINE-10" data-name="LINE"><line class="cls-6" x1="675.76" y1="118.18" x2="648.71" y2="118.18"/></g><g id="LINE-11" data-name="LINE"><line class="cls-6" x1="630.73" y1="176.35" x2="630.73" y2="148.65"/></g><g id="LINE-12" data-name="LINE"><line class="cls-6" x1="655.45" y1="148.22" x2="655.45" y2="176.35"/></g><g id="ARC-3" data-name="ARC"><path class="cls-6" d="M630.73,171.29a82,82,0,0,1,24.72,0"/></g><g id="ARC-4" data-name="ARC"><path class="cls-6" d="M630.73,174.66a208,208,0,0,1,24.72,0"/></g><g id="LINE-13" data-name="LINE"><line class="cls-6" x1="596.29" y1="176.35" x2="596.29" y2="148.65"/></g><g id="LINE-14" data-name="LINE"><line class="cls-6" x1="621.02" y1="148.22" x2="621.02" y2="176.35"/></g><g id="ARC-5" data-name="ARC"><path class="cls-6" d="M596.29,171.29a82,82,0,0,1,24.73,0"/></g><g id="ARC-6" data-name="ARC"><path class="cls-6" d="M596.29,174.66a208.2,208.2,0,0,1,24.73,0"/></g><rect class="cls-5" x="427.59" y="193.85" width="44.9" height="1.76"/><g id="LWPOLYLINE-42" data-name="LWPOLYLINE"><rect class="cls-5" x="198.33" y="266.64" width="12.71" height="37.84"/></g><g id="LWPOLYLINE-43" data-name="LWPOLYLINE"><rect class="cls-5" x="617.16" y="332.51" width="15.94" height="22.5"/></g><g id="LWPOLYLINE-44" data-name="LWPOLYLINE"><rect class="cls-5" x="640.6" y="332.51" width="15.94" height="22.5"/></g><g id="LINE-15" data-name="LINE"><line class="cls-6" x1="633.1" y1="349.74" x2="617.16" y2="349.74"/></g><g id="LINE-16" data-name="LINE"><line class="cls-6" x1="633.1" y1="353.62" x2="617.16" y2="353.62"/></g><g id="LINE-17" data-name="LINE"><line class="cls-6" x1="656.54" y1="349.74" x2="640.6" y2="349.74"/></g><g id="LINE-18" data-name="LINE"><line class="cls-6" x1="656.54" y1="353.62" x2="640.6" y2="353.62"/></g><g id="LWPOLYLINE-45" data-name="LWPOLYLINE"><rect class="cls-5" x="617.16" y="252.83" width="15.94" height="22.5"/></g><g id="LWPOLYLINE-46" data-name="LWPOLYLINE"><rect class="cls-5" x="640.6" y="252.83" width="15.94" height="22.5"/></g><g id="LINE-19" data-name="LINE"><line class="cls-6" x1="633.1" y1="258.1" x2="617.16" y2="258.1"/></g><g id="LINE-20" data-name="LINE"><line class="cls-6" x1="633.1" y1="254.21" x2="617.16" y2="254.21"/></g><g id="LINE-21" data-name="LINE"><line class="cls-6" x1="656.54" y1="258.1" x2="640.6" y2="258.1"/></g><g id="LINE-22" data-name="LINE"><line class="cls-6" x1="656.54" y1="254.21" x2="640.6" y2="254.21"/></g><g id="LWPOLYLINE-47" data-name="LWPOLYLINE"><rect class="cls-5" x="602.42" y="318.82" width="22.5" height="15.94"/></g><g id="LINE-23" data-name="LINE"><line class="cls-6" x1="607.69" y1="318.82" x2="607.69" y2="334.76"/></g><g id="LINE-24" data-name="LINE"><line class="cls-6" x1="603.8" y1="318.82" x2="603.8" y2="334.76"/></g><g id="LWPOLYLINE-48" data-name="LWPOLYLINE"><rect class="cls-5" x="602.42" y="295.95" width="22.5" height="15.94"/></g><g id="LINE-25" data-name="LINE"><line class="cls-6" x1="607.69" y1="295.95" x2="607.69" y2="311.89"/></g><g id="LINE-26" data-name="LINE"><line class="cls-6" x1="603.8" y1="295.95" x2="603.8" y2="311.89"/></g><g id="LWPOLYLINE-49" data-name="LWPOLYLINE"><rect class="cls-5" x="602.42" y="273.08" width="22.5" height="15.94"/></g><g id="LINE-27" data-name="LINE"><line class="cls-6" x1="607.69" y1="273.08" x2="607.69" y2="289.01"/></g><g id="LINE-28" data-name="LINE"><line class="cls-6" x1="603.8" y1="273.08" x2="603.8" y2="289.01"/></g><g id="LWPOLYLINE-50" data-name="LWPOLYLINE"><rect class="cls-5" x="648.79" y="273.08" width="22.5" height="15.94"/></g><g id="LINE-29" data-name="LINE"><line class="cls-6" x1="666.02" y1="289.01" x2="666.02" y2="273.08"/></g><g id="LINE-30" data-name="LINE"><line class="cls-6" x1="669.9" y1="289.01" x2="669.9" y2="273.08"/></g><g id="LWPOLYLINE-51" data-name="LWPOLYLINE"><rect class="cls-5" x="648.79" y="295.95" width="22.5" height="15.94"/></g><g id="LINE-31" data-name="LINE"><line class="cls-6" x1="666.02" y1="311.89" x2="666.02" y2="295.95"/></g><g id="LINE-32" data-name="LINE"><line class="cls-6" x1="669.9" y1="311.89" x2="669.9" y2="295.95"/></g><g id="LWPOLYLINE-52" data-name="LWPOLYLINE"><rect class="cls-5" x="648.79" y="318.82" width="22.5" height="15.94"/></g><g id="LINE-33" data-name="LINE"><line class="cls-6" x1="666.02" y1="334.76" x2="666.02" y2="318.82"/></g><g id="LINE-34" data-name="LINE"><line class="cls-6" x1="669.9" y1="334.76" x2="669.9" y2="318.82"/></g><g id="LWPOLYLINE-53" data-name="LWPOLYLINE"><rect class="cls-5" x="609.94" y="260.75" width="53.44" height="86.33"/></g><g id="LWPOLYLINE-54" data-name="LWPOLYLINE"><rect class="cls-5" x="413.18" y="22.94" width="71.25" height="80.63"/></g><g id="LWPOLYLINE-55" data-name="LWPOLYLINE"><rect class="cls-6" x="415.72" y="28.29" width="31.81" height="14.68"/></g><g id="LINE-35" data-name="LINE"><line class="cls-6" x1="484.43" y1="25.75" x2="413.18" y2="25.75"/></g><g id="LINE-36" data-name="LINE"><line class="cls-6" x1="484.43" y1="100.75" x2="413.18" y2="100.75"/></g><g id="LWPOLYLINE-56" data-name="LWPOLYLINE"><rect class="cls-6" x="450.08" y="28.29" width="31.81" height="14.68"/></g><line class="cls-8" x1="157.63" y1="315.55" x2="191.68" y2="315.55"/><line class="cls-8" x1="373.8" y1="106.82" x2="373.8" y2="142"/><line class="cls-8" x1="370.35" y1="106.82" x2="370.35" y2="142.5"/><g id="LWPOLYLINE-57" data-name="LWPOLYLINE"><polygon class="cls-5" points="404.77 252.09 374.77 251.16 374.76 224.45 404.76 223.49 404.77 252.09"/></g><g id="LINE-37" data-name="LINE"><line class="cls-6" x1="404.77" y1="248.1" x2="374.77" y2="247.18"/></g><g id="LINE-38" data-name="LINE"><line class="cls-6" x1="378.99" y1="247.3" x2="378.98" y2="228.31"/></g><g id="LINE-39" data-name="LINE"><line class="cls-6" x1="374.76" y1="228.43" x2="404.76" y2="227.48"/></g><line class="cls-6" x1="413.13" y1="45.42" x2="484.38" y2="45.42"/><line class="cls-6" x1="413.13" y1="47.85" x2="484.38" y2="47.85"/><g id="LWPOLYLINE-58" data-name="LWPOLYLINE"><rect class="cls-5" x="590.02" y="213.43" width="81.42" height="16.5"/></g><g id="LWPOLYLINE-59" data-name="LWPOLYLINE"><rect class="cls-5" x="391.03" y="22.94" width="20.16" height="15.94"/></g><g id="LWPOLYLINE-60" data-name="LWPOLYLINE"><rect class="cls-5" x="486.42" y="22.94" width="20.16" height="15.94"/></g><rect class="cls-5" x="409.36" y="281.69" width="84.38" height="33.75"/><g id="LINE-40" data-name="LINE"><line class="cls-6" x1="464.05" y1="310.75" x2="464.05" y2="282.67"/></g><g id="LWPOLYLINE-61" data-name="LWPOLYLINE"><polyline class="cls-6" points="414.05 281.69 414.05 310.75 489.05 310.75 489.05 281.69"/></g><g id="ARC-7" data-name="ARC"><path class="cls-6" d="M488.11,306.26a59.57,59.57,0,0,0-23.12,0"/></g><g id="ARC-8" data-name="ARC"><path class="cls-6" d="M465,306.26a1.24,1.24,0,0,0-.94,1"/></g><g id="ARC-9" data-name="ARC"><path class="cls-6" d="M489.05,307.24a1.22,1.22,0,0,0-.94-1"/></g><g id="ARC-10" data-name="ARC"><path class="cls-6" d="M464.05,307.24a1.22,1.22,0,0,0-.94-1"/></g><g id="ARC-11" data-name="ARC"><path class="cls-6" d="M415,306.26a1.24,1.24,0,0,0-.94,1"/></g><g id="ARC-12" data-name="ARC"><path class="cls-6" d="M465,281.69a1.24,1.24,0,0,0-.94,1"/></g><g id="ARC-13" data-name="ARC"><path class="cls-6" d="M464.05,282.67a1.22,1.22,0,0,0-.94-1"/></g><g id="ARC-14" data-name="ARC"><path class="cls-6" d="M489.05,282.67a1.22,1.22,0,0,0-.94-1"/></g><g id="ARC-15" data-name="ARC"><path class="cls-6" d="M415,281.69a1.24,1.24,0,0,0-.94,1"/></g><g id="LINE-41" data-name="LINE"><line class="cls-6" x1="439.05" y1="310.75" x2="439.05" y2="282.67"/></g><g id="ARC-16" data-name="ARC"><path class="cls-6" d="M438.11,306.26a59.57,59.57,0,0,0-23.12,0"/></g><g id="ARC-17" data-name="ARC"><path class="cls-6" d="M439.05,307.24a1.22,1.22,0,0,0-.94-1"/></g><g id="ARC-18" data-name="ARC"><path class="cls-6" d="M440,306.26a1.24,1.24,0,0,0-.94,1"/></g><g id="ARC-19" data-name="ARC"><path class="cls-6" d="M439.05,282.67a1.22,1.22,0,0,0-.94-1"/></g><g id="ARC-20" data-name="ARC"><path class="cls-6" d="M440,281.69a1.24,1.24,0,0,0-.94,1"/></g><g id="ARC-21" data-name="ARC"><path class="cls-6" d="M463.11,306.26a59.57,59.57,0,0,0-23.12,0"/></g><g id="ARC-22" data-name="ARC"><path class="cls-6" d="M465,306.26a1.24,1.24,0,0,0-.94,1"/></g><g id="ARC-23" data-name="ARC"><path class="cls-6" d="M489.05,307.24a1.22,1.22,0,0,0-.94-1"/></g><g id="ARC-24" data-name="ARC"><path class="cls-6" d="M464.05,307.24a1.22,1.22,0,0,0-.94-1"/></g><g id="ARC-25" data-name="ARC"><path class="cls-6" d="M415,306.26a1.24,1.24,0,0,0-.94,1"/></g><g id="ARC-26" data-name="ARC"><path class="cls-6" d="M465,281.69a1.24,1.24,0,0,0-.94,1"/></g><g id="ARC-27" data-name="ARC"><path class="cls-6" d="M464.05,282.67a1.22,1.22,0,0,0-.94-1"/></g><g id="ARC-28" data-name="ARC"><path class="cls-6" d="M489.05,282.67a1.22,1.22,0,0,0-.94-1"/></g><g id="ARC-29" data-name="ARC"><path class="cls-6" d="M415,281.69a1.24,1.24,0,0,0-.94,1"/></g><g id="ARC-30" data-name="ARC"><path class="cls-6" d="M439.05,307.24a1.22,1.22,0,0,0-.94-1"/></g><g id="ARC-31" data-name="ARC"><path class="cls-6" d="M440,306.26a1.24,1.24,0,0,0-.94,1"/></g><g id="ARC-32" data-name="ARC"><path class="cls-6" d="M439.05,282.67a1.22,1.22,0,0,0-.94-1"/></g><g id="ARC-33" data-name="ARC"><path class="cls-6" d="M440,281.69a1.24,1.24,0,0,0-.94,1"/></g><path class="cls-7" d="M483.32,300.75s6.86-5.28,5.57-7.94-10.46,7.24-10.46,7.24-4,3.9-2,4.65S483.32,300.75,483.32,300.75Z"/><path class="cls-7" d="M471.35,299s-7.08,4.37-5.76,6.29,9.44-3.56,9.44-3.56,7.57-3.83,5.53-5.71S471.35,299,471.35,299Z"/><path class="cls-7" d="M430.43,304.39s-.75-3.62-8.34-5.2-7.68-1.11-8-.31,2.24,4.2,9.2,5.22S430.11,305.65,430.43,304.39Z"/><line class="cls-6" x1="62.67" y1="49.86" x2="118.92" y2="49.86"/><line class="cls-6" x1="62.67" y1="52.29" x2="118.92" y2="52.29"/><g id="LWPOLYLINE-62" data-name="LWPOLYLINE"><polyline class="cls-9" points="536.46 100.04 530.83 100.04 530.83 33.95 536.46 33.95"/></g><g id="LWPOLYLINE-63" data-name="LWPOLYLINE"><polyline class="cls-10" points="6.76 57.86 11.45 57.86 11.45 147.86 6.76 147.86"/></g><g id="LWPOLYLINE-64" data-name="LWPOLYLINE"><polyline class="cls-9" points="11.45 58.79 17.07 58.79 17.07 145.04 11.45 145.04"/></g><g id="LWPOLYLINE-65" data-name="LWPOLYLINE"><polyline class="cls-9" points="11.45 219.52 17.07 219.52 17.07 183.89 11.45 183.89"/></g><g id="LWPOLYLINE-66" data-name="LWPOLYLINE"><polyline class="cls-9" points="11.45 281.92 17.07 281.92 17.07 246.29 11.45 246.29"/></g><g id="LWPOLYLINE-67" data-name="LWPOLYLINE"><rect class="cls-10" x="538.98" y="36.76" width="1.23" height="28.7"/></g><g id="LWPOLYLINE-68" data-name="LWPOLYLINE"><rect class="cls-10" x="538.98" y="68.52" width="1.23" height="28.71"/></g><g id="LWPOLYLINE-69" data-name="LWPOLYLINE"><polygon class="cls-10" points="8.93 86.96 8.93 60.67 7.7 60.67 7.7 61.61 7.7 86.25 7.7 86.96 8.93 86.96"/></g><g id="LWPOLYLINE-70" data-name="LWPOLYLINE"><polygon class="cls-10" points="8.93 145.04 8.93 89.54 7.7 89.54 7.7 90.24 7.7 145.04 8.93 145.04"/></g><g id="LWPOLYLINE-71" data-name="LWPOLYLINE"><rect class="cls-10" x="538.98" y="157.11" width="1.23" height="28.71"/></g><g id="LWPOLYLINE-72" data-name="LWPOLYLINE"><rect class="cls-10" x="7.7" y="184.83" width="1.23" height="33.75"/></g><g id="LWPOLYLINE-73" data-name="LWPOLYLINE"><rect class="cls-10" x="7.7" y="247.23" width="1.23" height="33.75"/></g><g id="LWPOLYLINE-74" data-name="LWPOLYLINE"><polygon class="cls-10" points="8.93 86.96 8.93 60.67 7.7 60.67 7.7 61.61 7.7 86.25 7.7 86.96 8.93 86.96"/></g><g id="LWPOLYLINE-75" data-name="LWPOLYLINE"><polygon class="cls-10" points="8.93 145.04 8.93 89.54 7.7 89.54 7.7 90.24 7.7 145.04 8.93 145.04"/></g><g id="LWPOLYLINE-76" data-name="LWPOLYLINE"><rect class="cls-10" x="7.7" y="184.83" width="1.23" height="33.75"/></g><g id="LWPOLYLINE-77" data-name="LWPOLYLINE"><rect class="cls-10" x="7.7" y="247.23" width="1.23" height="33.75"/></g><polygon class="cls-11" points="721.15 7.19 721.15 6.75 551.12 6.75 551.12 10.03 717.87 10.03 717.87 379.42 575.83 379.42 575.83 382.7 721.15 382.7 721.15 7.19 721.15 7.19"/><line class="cls-10" x1="11.45" y1="183.45" x2="11.45" y2="222.23"/><line class="cls-10" x1="11.45" y1="247.64" x2="11.45" y2="281.5"/><g id="LWPOLYLINE-78" data-name="LWPOLYLINE"><polyline class="cls-9" points="6.76 57.86 0.2 57.86 0.2 147.86 6.76 147.86"/></g><g id="LWPOLYLINE-79" data-name="LWPOLYLINE"><line class="cls-9" x1="536.46" y1="188.64" x2="543.49" y2="188.64"/><line class="cls-9" x1="543.49" y1="122.54" x2="536.46" y2="122.54"/></g><g id="LWPOLYLINE-80" data-name="LWPOLYLINE"><polyline class="cls-9" points="6.76 244.42 0.2 244.42 0.2 283.79 6.76 283.79"/></g><g id="LWPOLYLINE-81" data-name="LWPOLYLINE"><polyline class="cls-9" points="536.46 100.04 543.49 100.04 543.49 33.95 536.46 33.95"/></g><g id="LWPOLYLINE-82" data-name="LWPOLYLINE"><polyline class="cls-9" points="6.76 182.02 0.2 182.02 0.2 221.39 6.76 221.39"/></g><g id="LWPOLYLINE-83" data-name="LWPOLYLINE"><polygon class="cls-12" points="538.98 37.7 538.98 36.76 540.21 36.76 540.21 37.7 541.15 37.7 541.15 35.83 544.9 35.83 544.9 34.89 541.15 34.89 541.15 33.95 536.46 33.95 536.46 37.7 538.98 37.7"/></g><g id="LWPOLYLINE-84" data-name="LWPOLYLINE"><polyline class="cls-13" points="543.49 66.53 543.49 67.47 541.15 67.47 541.15 69.22 540.21 69.22 540.21 68.52 538.98 68.52 538.98 69.22 536.46 69.22 536.46 67.35 536.93 67.35 536.93 66.64 536.46 66.64 536.46 64.77 538.98 64.77 538.98 65.46 540.21 65.47 540.21 64.77 541.15 64.77 541.15 66.53 543.49 66.53"/></g><g id="LWPOLYLINE-85" data-name="LWPOLYLINE"><polygon class="cls-12" points="541.15 100.04 541.15 99.11 544.9 99.11 544.9 98.17 541.15 98.17 541.15 96.29 540.21 96.29 540.21 97.23 538.98 97.23 538.98 96.29 536.46 96.29 536.46 100.04 541.15 100.04"/></g><g id="LWPOLYLINE-86" data-name="LWPOLYLINE"><polygon class="cls-13" points="11.45 147.86 11.45 144.11 8.93 144.11 8.93 145.04 7.7 145.04 7.7 144.11 6.76 144.11 6.76 145.98 6.76 147.86 11.45 147.86"/></g><g id="LWPOLYLINE-87" data-name="LWPOLYLINE"><polygon class="cls-13" points="11.45 57.86 11.45 61.61 8.93 61.61 8.93 60.67 7.7 60.67 7.7 61.61 6.76 61.61 6.76 59.73 6.76 57.86 11.45 57.86"/></g><g id="LWPOLYLINE-88" data-name="LWPOLYLINE"><polygon class="cls-12" points="538.98 126.29 538.98 125.36 540.21 125.36 540.21 126.29 541.15 126.29 541.15 124.42 544.9 124.42 544.9 123.48 541.15 123.48 541.15 122.54 536.46 122.54 536.46 126.29 538.98 126.29"/></g><g id="LWPOLYLINE-89" data-name="LWPOLYLINE"><polygon class="cls-12" points="541.15 188.64 541.15 187.7 544.9 187.7 544.9 186.76 541.15 186.76 541.15 184.89 540.21 184.89 540.21 185.82 538.98 185.82 538.98 184.89 536.46 184.89 536.46 188.64 541.15 188.64"/></g><g id="LWPOLYLINE-90" data-name="LWPOLYLINE"><polygon class="cls-13" points="538.98 214.89 538.98 213.95 540.21 213.95 540.21 214.89 541.15 214.89 541.15 213.01 544.9 213.01 544.9 212.07 541.15 212.07 541.15 211.14 536.46 211.14 536.46 214.89 538.98 214.89"/></g><g id="LWPOLYLINE-91" data-name="LWPOLYLINE"><polygon class="cls-13" points="541.15 280.51 541.15 279.57 544.9 279.57 544.9 278.64 541.15 278.64 541.15 276.76 540.21 276.76 540.21 277.7 538.98 277.7 538.98 276.76 536.46 276.76 536.46 280.51 541.15 280.51"/></g><g id="LWPOLYLINE-92" data-name="LWPOLYLINE"><polygon class="cls-13" points="538.98 306.76 538.98 305.82 540.21 305.82 540.21 306.76 541.15 306.76 541.15 304.89 544.9 304.89 544.9 303.95 541.15 303.95 541.15 303.01 536.46 303.01 536.46 306.76 538.98 306.76"/></g><g id="LWPOLYLINE-93" data-name="LWPOLYLINE"><polygon class="cls-13" points="541.15 372.39 541.15 371.45 544.9 371.45 544.9 370.51 541.15 370.51 541.15 368.64 540.21 368.64 540.21 369.57 538.98 369.57 538.98 368.64 536.46 368.64 536.46 372.39 541.15 372.39"/></g><g id="LWPOLYLINE-94" data-name="LWPOLYLINE"><polygon class="cls-13" points="11.45 182.02 11.45 185.77 8.93 185.77 8.93 184.83 7.7 184.83 7.7 185.77 6.76 185.77 6.76 183.89 6.76 182.02 11.45 182.02"/></g><g id="LWPOLYLINE-95" data-name="LWPOLYLINE"><polygon class="cls-13" points="11.45 221.39 11.45 217.64 8.93 217.64 8.93 218.58 7.7 218.58 7.7 217.64 6.76 217.64 6.76 219.52 6.76 221.39 11.45 221.39"/></g><g id="LWPOLYLINE-96" data-name="LWPOLYLINE"><polygon class="cls-13" points="11.45 244.42 11.45 248.17 8.93 248.17 8.93 247.23 7.7 247.23 7.7 248.17 6.76 248.17 6.76 246.29 6.76 244.42 11.45 244.42"/></g><g id="LWPOLYLINE-97" data-name="LWPOLYLINE"><polygon class="cls-13" points="11.45 283.79 11.45 280.04 8.93 280.04 8.93 280.98 7.7 280.98 7.7 280.04 6.76 280.04 6.76 281.92 6.76 283.79 11.45 283.79"/></g><g id="LWPOLYLINE-98" data-name="LWPOLYLINE"><polygon class="cls-13" points="11.45 147.86 11.45 144.11 8.93 144.11 8.93 145.04 7.7 145.04 7.7 144.11 6.76 144.11 6.76 145.98 6.76 147.86 11.45 147.86"/></g><g id="LWPOLYLINE-99" data-name="LWPOLYLINE"><polygon class="cls-13" points="11.45 57.86 11.45 61.61 8.93 61.61 8.93 60.67 7.7 60.67 7.7 61.61 6.76 61.61 6.76 59.73 6.76 57.86 11.45 57.86"/></g><g id="LWPOLYLINE-100" data-name="LWPOLYLINE"><polygon class="cls-13" points="10.1 90.24 10.1 89.3 11.42 89.3 11.42 88.13 11.45 88.13 11.45 86.25 8.93 86.25 8.93 86.96 7.7 86.96 7.7 86.25 6.76 86.25 6.76 86.96 6.76 89.54 6.76 90.24 7.7 90.24 7.7 89.54 8.93 89.54 8.93 90.24 10.1 90.24"/></g><g id="LWPOLYLINE-101" data-name="LWPOLYLINE"><polygon class="cls-12" points="538.98 214.89 538.98 213.95 540.21 213.95 540.21 214.89 541.15 214.89 541.15 213.01 544.9 213.01 544.9 212.07 541.15 212.07 541.15 211.14 536.46 211.14 536.46 214.89 538.98 214.89"/></g><g id="LWPOLYLINE-102" data-name="LWPOLYLINE"><polyline class="cls-12" points="543.49 155.12 543.49 156.06 541.15 156.06 541.15 157.82 540.21 157.82 540.21 157.11 538.98 157.11 538.98 157.82 536.46 157.82 536.46 155.94 536.93 155.94 536.93 155.24 536.46 155.24 536.46 153.36 538.98 153.36 538.98 154.06 540.21 154.07 540.21 153.36 541.15 153.36 541.15 155.12 543.49 155.12"/></g><g id="LWPOLYLINE-103" data-name="LWPOLYLINE"><polygon class="cls-12" points="541.15 280.51 541.15 279.57 544.9 279.57 544.9 278.64 541.15 278.64 541.15 276.76 540.21 276.76 540.21 277.7 538.98 277.7 538.98 276.76 536.46 276.76 536.46 280.51 541.15 280.51"/></g><g id="LWPOLYLINE-104" data-name="LWPOLYLINE"><polygon class="cls-12" points="538.98 306.76 538.98 305.82 540.21 305.82 540.21 306.76 541.15 306.76 541.15 304.89 544.9 304.89 544.9 303.95 541.15 303.95 541.15 303.01 536.46 303.01 536.46 306.76 538.98 306.76"/></g><g id="LWPOLYLINE-105" data-name="LWPOLYLINE"><polygon class="cls-12" points="541.15 372.39 541.15 371.45 544.9 371.45 544.9 370.51 541.15 370.51 541.15 368.64 540.21 368.64 540.21 369.57 538.98 369.57 538.98 368.64 536.46 368.64 536.46 372.39 541.15 372.39"/></g><g id="LWPOLYLINE-106" data-name="LWPOLYLINE"><polygon class="cls-13" points="11.45 182.02 11.45 185.77 8.93 185.77 8.93 184.83 7.7 184.83 7.7 185.77 6.76 185.77 6.76 183.89 6.76 182.02 11.45 182.02"/></g><g id="LWPOLYLINE-107" data-name="LWPOLYLINE"><polygon class="cls-13" points="11.45 221.39 11.45 217.64 8.93 217.64 8.93 218.58 7.7 218.58 7.7 217.64 6.76 217.64 6.76 219.52 6.76 221.39 11.45 221.39"/></g><g id="LWPOLYLINE-108" data-name="LWPOLYLINE"><polygon class="cls-13" points="11.45 244.42 11.45 248.17 8.93 248.17 8.93 247.23 7.7 247.23 7.7 248.17 6.76 248.17 6.76 246.29 6.76 244.42 11.45 244.42"/></g><g id="LWPOLYLINE-109" data-name="LWPOLYLINE"><polygon class="cls-13" points="11.45 283.79 11.45 280.04 8.93 280.04 8.93 280.98 7.7 280.98 7.7 280.04 6.76 280.04 6.76 281.92 6.76 283.79 11.45 283.79"/></g><line class="cls-10" x1="536.46" y1="36.59" x2="536.46" y2="97.4"/><line class="cls-9" x1="536.46" y1="153.36" x2="536.46" y2="185.82"/><line class="cls-9" x1="543.49" y1="155.12" x2="543.49" y2="186.76"/><g id="LWPOLYLINE-110" data-name="LWPOLYLINE"><rect class="cls-14" x="153.74" y="303.31" width="33.75" height="2.11" transform="translate(-165.25 209.79) rotate(-45)"/></g><g id="LWPOLYLINE-111" data-name="LWPOLYLINE"><rect class="cls-14" x="164.51" y="56.98" width="1.64" height="33.75"/></g><g id="LWPOLYLINE-112" data-name="LWPOLYLINE"><rect class="cls-14" x="303.61" y="144.93" width="33.75" height="1.64"/></g><g id="LWPOLYLINE-113" data-name="LWPOLYLINE"><rect class="cls-14" x="298.1" y="100.16" width="33.75" height="1.64"/></g><g id="LWPOLYLINE-114" data-name="LWPOLYLINE"><rect class="cls-14" x="242.08" y="146.8" width="33.75" height="1.64"/></g><g id="LWPOLYLINE-115" data-name="LWPOLYLINE"><rect class="cls-14" x="225.15" y="103.23" width="2.11" height="33.75" transform="translate(-18.67 195.13) rotate(-45)"/></g><g id="LWPOLYLINE-116" data-name="LWPOLYLINE"><rect class="cls-14" x="152.26" y="131.44" width="2.11" height="33.75" transform="translate(-59.97 151.85) rotate(-45)"/></g><g id="LWPOLYLINE-117" data-name="LWPOLYLINE"><rect class="cls-14" x="166.38" y="174.7" width="1.64" height="33.75"/></g><g id="LWPOLYLINE-118" data-name="LWPOLYLINE"><rect class="cls-14" x="85.28" y="244.08" width="1.64" height="35.98"/></g><g id="LWPOLYLINE-119" data-name="LWPOLYLINE"><rect class="cls-14" x="52.2" y="164.39" width="33.75" height="1.64"/></g><g id="LWPOLYLINE-120" data-name="LWPOLYLINE"><rect class="cls-14" x="119.3" y="283.92" width="22.58" height="1.64"/></g><g id="LWPOLYLINE-121" data-name="LWPOLYLINE"><rect class="cls-14" x="96.88" y="283.92" width="22.42" height="1.64"/></g><g id="LWPOLYLINE-122" data-name="LWPOLYLINE"><rect class="cls-4" x="153.74" y="303.31" width="33.75" height="2.11" transform="translate(-165.25 209.79) rotate(-45)"/></g><g id="LWPOLYLINE-123" data-name="LWPOLYLINE"><rect class="cls-14" x="164.51" y="56.98" width="1.64" height="33.75"/></g><g id="LWPOLYLINE-124" data-name="LWPOLYLINE"><rect class="cls-14" x="303.61" y="144.93" width="33.75" height="1.64"/></g><g id="LWPOLYLINE-125" data-name="LWPOLYLINE"><rect class="cls-14" x="298.1" y="100.16" width="33.75" height="1.64"/></g><g id="LWPOLYLINE-126" data-name="LWPOLYLINE"><rect class="cls-14" x="242.08" y="146.8" width="33.75" height="1.64"/></g><g id="LWPOLYLINE-127" data-name="LWPOLYLINE"><rect class="cls-4" x="225.15" y="103.23" width="2.11" height="33.75" transform="translate(-18.67 195.13) rotate(-45)"/></g><g id="LWPOLYLINE-128" data-name="LWPOLYLINE"><rect class="cls-4" x="152.26" y="131.44" width="2.11" height="33.75" transform="translate(-59.97 151.85) rotate(-45)"/></g><g id="LWPOLYLINE-129" data-name="LWPOLYLINE"><rect class="cls-14" x="166.38" y="174.7" width="1.64" height="33.75"/></g><g id="LWPOLYLINE-130" data-name="LWPOLYLINE"><rect class="cls-14" x="85.28" y="244.08" width="1.64" height="35.98"/></g><g id="LWPOLYLINE-131" data-name="LWPOLYLINE"><rect class="cls-14" x="52.2" y="164.39" width="33.75" height="1.64"/></g><g id="LWPOLYLINE-132" data-name="LWPOLYLINE"><rect class="cls-14" x="119.3" y="283.92" width="22.58" height="1.64"/></g><g id="LWPOLYLINE-133" data-name="LWPOLYLINE"><rect class="cls-14" x="96.88" y="283.92" width="22.42" height="1.64"/></g><g id="ARC-34" data-name="ARC"><path class="cls-14" d="M191.68,315.55a34.26,34.26,0,0,0-8.39-22.37"/></g><g id="ARC-35" data-name="ARC"><path class="cls-14" d="M215,141.18a34.33,34.33,0,0,0,22.38-8.4"/></g><g id="ARC-36" data-name="ARC"><path class="cls-14" d="M164.51,127.24a34.27,34.27,0,0,0-22.38,8.39"/></g><g id="ARC-37" data-name="ARC"><path class="cls-14" d="M191.68,315.55a34.26,34.26,0,0,0-8.39-22.37"/></g><g id="ARC-38" data-name="ARC"><path class="cls-14" d="M215,141.18a34.33,34.33,0,0,0,22.38-8.4"/></g><g id="ARC-39" data-name="ARC"><path class="cls-14" d="M164.51,127.24a34.27,34.27,0,0,0-22.38,8.39"/></g><g id="ARC-40" data-name="ARC"><path class="cls-14" d="M565.75,144.84c-6.33,6.33-13.33,8.84-22.32,9.19l-2.28,0"/></g><g id="LWPOLYLINE-134" data-name="LWPOLYLINE"><rect class="cls-4" x="553.26" y="119.06" width="1.23" height="31.29" transform="translate(102.57 482.9) rotate(-51.32)"/></g><g id="LWPOLYLINE-135" data-name="LWPOLYLINE"><rect class="cls-4" x="538.19" y="266.76" width="34.29" height="1.31" transform="translate(-47.21 397.22) rotate(-37.87)"/></g><g id="ARC-41" data-name="ARC"><path class="cls-14" d="M568.47,256.37a35,35,0,0,0-25-10.51"/></g><g id="LWPOLYLINE-136" data-name="LWPOLYLINE"><rect class="cls-4" x="554.58" y="206.96" width="1.31" height="34.29" transform="translate(37.48 524.84) rotate(-52.13)"/></g><g id="ARC-42" data-name="ARC"><path class="cls-14" d="M568.36,235.15a34.89,34.89,0,0,1-24.94,10.52"/></g><g id="LWPOLYLINE-137" data-name="LWPOLYLINE"><rect class="cls-4" x="538.93" y="358.63" width="34.29" height="1.31" transform="translate(-103.45 417.02) rotate(-37.87)"/></g><g id="ARC-43" data-name="ARC"><path class="cls-14" d="M569.21,348.24a35.88,35.88,0,0,0-25.39-10.52"/></g><g id="LWPOLYLINE-138" data-name="LWPOLYLINE"><rect class="cls-4" x="555.32" y="298.83" width="1.31" height="34.29" transform="translate(-34.75 560.9) rotate(-52.13)"/></g><g id="ARC-44" data-name="ARC"><path class="cls-14" d="M569.11,327a36,36,0,0,1-25.4,10.52"/></g><g id="ARC-45" data-name="ARC"><path class="cls-10" d="M212.25,37.73a3.29,3.29,0,1,1-.79,0"/></g><g id="LWPOLYLINE-139" data-name="LWPOLYLINE"><path class="cls-10" d="M211.46,41V30.82h.78V41a.39.39,0,0,1-.78,0Z"/></g><g id="LWPOLYLINE-140" data-name="LWPOLYLINE"><rect class="cls-10" x="17.17" y="172.6" width="30.84" height="58.18"/></g><g id="LWPOLYLINE-141" data-name="LWPOLYLINE"><path class="cls-10" d="M33.4,225.68h5.82A4.69,4.69,0,0,0,43.91,221V182.32a4.69,4.69,0,0,0-4.69-4.69H26.8a4.69,4.69,0,0,0-4.69,4.69V221a4.69,4.69,0,0,0,4.69,4.69h5.82"/></g><g id="ARC-46" data-name="ARC"><path class="cls-15" d="M33.41,224.5a3.28,3.28,0,1,0-.79,0"/></g><g id="LWPOLYLINE-142" data-name="LWPOLYLINE"><path class="cls-15" d="M32.62,221.24v10.17h.78V221.24a.39.39,0,0,0-.39-.39A.4.4,0,0,0,32.62,221.24Z"/></g><g id="LWPOLYLINE-143" data-name="LWPOLYLINE"><rect class="cls-10" x="340.29" y="35.47" width="24.38" height="61.05" rx="4.69"/></g><g id="CIRCLE-2" data-name="CIRCLE"><path class="cls-10" d="M352.47,40.1a2.11,2.11,0,1,1-2.1,2.11,2.1,2.1,0,0,1,2.1-2.11Z"/></g><g id="LWPOLYLINE-144" data-name="LWPOLYLINE"><rect class="cls-10" x="229.66" y="65.47" width="0.83" height="33.75"/></g><g id="LWPOLYLINE-145" data-name="LWPOLYLINE"><rect class="cls-10" x="229.66" y="99.22" width="0.83" height="0.94"/></g><g id="LWPOLYLINE-146" data-name="LWPOLYLINE"><rect class="cls-10" x="335.6" y="30.73" width="34.75" height="69.57"/></g><g id="LWPOLYLINE-147" data-name="LWPOLYLINE"><rect class="cls-10" x="229.66" y="64.54" width="0.83" height="0.94"/></g><g id="CIRCLE-3" data-name="CIRCLE"><path class="cls-10" d="M284.07,356.25a.83.83,0,1,1,.82-.82.83.83,0,0,1-.82.82Z"/></g><g id="CIRCLE-4" data-name="CIRCLE"><path class="cls-10" d="M278.88,356.25a.83.83,0,1,1,.82-.82.83.83,0,0,1-.82.82Z"/></g><g id="CIRCLE-5" data-name="CIRCLE"><path class="cls-10" d="M278.88,359.66a.83.83,0,1,1,.82-.83.83.83,0,0,1-.82.83Z"/></g><g id="CIRCLE-6" data-name="CIRCLE"><path class="cls-10" d="M281.47,359.66a.83.83,0,1,1,.83-.83.83.83,0,0,1-.83.83Z"/></g><g id="CIRCLE-7" data-name="CIRCLE"><path class="cls-10" d="M284.07,359.66a.83.83,0,1,1,.82-.83.83.83,0,0,1-.82.83Z"/></g><g id="LWPOLYLINE-148" data-name="LWPOLYLINE"><rect class="cls-10" x="265.46" y="352.01" width="32.03" height="19.03" rx="0.45"/></g><circle class="cls-10" cx="271.17" cy="366.11" r="1.57"/><path class="cls-10" d="M275.91,362.34v7a.66.66,0,0,1-.68.65H267.1a.66.66,0,0,1-.67-.65v-7a0,0,0,0,1,.05,0h9.37A.06.06,0,0,1,275.91,362.34Z"/><circle class="cls-10" cx="281.47" cy="366.11" r="1.57"/><path class="cls-10" d="M286.21,362.34v7a.66.66,0,0,1-.67.65H277.4a.66.66,0,0,1-.67-.65v-7a.06.06,0,0,1,.06,0h9.36S286.21,362.31,286.21,362.34Z"/><circle class="cls-10" cx="291.77" cy="366.11" r="1.57"/><path class="cls-10" d="M296.51,362.34v7a.66.66,0,0,1-.67.65h-8.13a.67.67,0,0,1-.68-.65v-7a.06.06,0,0,1,.06,0h9.37A0,0,0,0,1,296.51,362.34Z"/><circle class="cls-10" cx="291.77" cy="357.13" r="1.57"/><path class="cls-10" d="M287,360.9V354a.67.67,0,0,1,.68-.66h8.13a.66.66,0,0,1,.67.66v6.94a.06.06,0,0,1-.05.06h-9.37A.06.06,0,0,1,287,360.9Z"/><circle class="cls-10" cx="271.17" cy="357.13" r="1.57"/><path class="cls-10" d="M266.43,360.9V354a.66.66,0,0,1,.67-.66h8.13a.66.66,0,0,1,.68.66v6.94a.06.06,0,0,1-.06.06h-9.37A.06.06,0,0,1,266.43,360.9Z"/><g id="LINE-42" data-name="LINE"><line class="cls-15" x1="133.46" y1="178.92" x2="133.46" y2="204.23"/></g><g id="LINE-43" data-name="LINE"><line class="cls-15" x1="133.46" y1="204.23" x2="161.35" y2="204.23"/></g><g id="LINE-44" data-name="LINE"><line class="cls-15" x1="161.35" y1="204.23" x2="161.35" y2="178.92"/></g><g id="LINE-45" data-name="LINE"><line class="cls-15" x1="161.35" y1="178.92" x2="133.46" y2="178.92"/></g><g id="LINE-46" data-name="LINE"><line class="cls-15" x1="133.46" y1="178.92" x2="133.46" y2="204.23"/></g><g id="LINE-47" data-name="LINE"><line class="cls-15" x1="133.46" y1="204.23" x2="161.35" y2="204.23"/></g><g id="LINE-48" data-name="LINE"><line class="cls-15" x1="161.35" y1="204.23" x2="161.35" y2="178.92"/></g><g id="LINE-49" data-name="LINE"><line class="cls-15" x1="161.35" y1="178.92" x2="133.46" y2="178.92"/></g><g id="LWPOLYLINE-149" data-name="LWPOLYLINE"><rect class="cls-15" x="215.72" y="263.71" width="23.44" height="24.06"/></g><g id="LWPOLYLINE-150" data-name="LWPOLYLINE"><rect class="cls-15" x="215.72" y="287.78" width="23.43" height="33.52"/></g><g id="LWPOLYLINE-151" data-name="LWPOLYLINE"><polyline class="cls-10" points="215.72 322.88 215.72 374.26 330.56 374.26"/></g><g id="LWPOLYLINE-152" data-name="LWPOLYLINE"><rect class="cls-15" x="276.65" y="272.07" width="59.53" height="37.5"/></g><g id="LWPOLYLINE-153" data-name="LWPOLYLINE"><polygon class="cls-10" points="239.15 321.29 215.72 321.29 215.72 374.26 332.87 374.26 332.87 350.79 239.15 350.79 239.15 321.29"/></g><g id="LWPOLYLINE-154" data-name="LWPOLYLINE"><polyline class="cls-10" points="306.16 293.86 306.16 305.86 328.66 305.86 328.66 293.86 306.16 293.86"/></g><rect class="cls-15" x="317.19" y="291.74" width="2.74" height="1.15" transform="translate(637.13 584.64) rotate(180)"/><path class="cls-15" d="M316.59,292.78a.81.81,0,0,0,.26.26v5.78a.42.42,0,0,0,.84,0V293A.79.79,0,0,0,318,292a.8.8,0,1,0-1.36.83Z"/><g id="LWPOLYLINE-155" data-name="LWPOLYLINE"><line class="cls-16" x1="340.99" y1="159.69" x2="299.97" y2="159.69"/></g><g id="LWPOLYLINE-156" data-name="LWPOLYLINE"><polyline class="cls-16" points="285.21 148.44 285.21 202.59 238.33 202.59"/></g><g id="LWPOLYLINE-157" data-name="LWPOLYLINE"><line class="cls-16" x1="179.27" y1="48.6" x2="179.27" y2="100.16"/></g><g id="LWPOLYLINE-158" data-name="LWPOLYLINE"><polyline class="cls-16" points="229.09 322.93 229.09 362.14 332.87 362.14"/></g><g id="LWPOLYLINE-159" data-name="LWPOLYLINE"><line class="cls-16" x1="89.5" y1="298.69" x2="145.98" y2="298.69"/></g><line class="cls-10" x1="297.99" y1="287.81" x2="298.65" y2="287.81"/><line class="cls-17" x1="300.02" y1="287.81" x2="334.84" y2="287.81"/><line class="cls-10" x1="335.52" y1="287.81" x2="336.19" y2="287.81"/><line class="cls-10" x1="297.49" y1="309.56" x2="297.49" y2="308.9"/><line class="cls-18" x1="297.49" y1="307.54" x2="297.49" y2="289.15"/><polyline class="cls-10" points="297.49 288.47 297.49 287.81 296.82 287.81"/><line class="cls-19" x1="295.53" y1="287.81" x2="278.05" y2="287.81"/><line class="cls-10" x1="277.4" y1="287.81" x2="276.74" y2="287.81"/><g id="LINE-50" data-name="LINE"><line class="cls-13" x1="291.74" y1="152.39" x2="278.68" y2="152.39"/></g><g id="LINE-51" data-name="LINE"><line class="cls-13" x1="291.74" y1="154.81" x2="278.68" y2="154.81"/></g><g id="LINE-52" data-name="LINE"><line class="cls-13" x1="291.74" y1="157.23" x2="278.68" y2="157.23"/></g><g id="LINE-53" data-name="LINE"><line class="cls-13" x1="291.74" y1="159.65" x2="278.68" y2="159.65"/></g><g id="LINE-54" data-name="LINE"><line class="cls-13" x1="291.74" y1="162.07" x2="278.68" y2="162.07"/></g><g id="LINE-55" data-name="LINE"><line class="cls-13" x1="278.68" y1="164.48" x2="291.74" y2="164.48"/></g><g id="LINE-56" data-name="LINE"><line class="cls-13" x1="337.04" y1="153.16" x2="337.04" y2="166.22"/></g><g id="LINE-57" data-name="LINE"><line class="cls-13" x1="334.62" y1="153.16" x2="334.62" y2="166.22"/></g><g id="LINE-58" data-name="LINE"><line class="cls-13" x1="332.21" y1="153.16" x2="332.2" y2="166.22"/></g><g id="LINE-59" data-name="LINE"><line class="cls-13" x1="329.79" y1="153.16" x2="329.79" y2="166.22"/></g><g id="LINE-60" data-name="LINE"><line class="cls-13" x1="327.37" y1="153.16" x2="327.37" y2="166.22"/></g><g id="LINE-61" data-name="LINE"><line class="cls-13" x1="324.95" y1="166.22" x2="324.95" y2="153.16"/></g><g id="LINE-62" data-name="LINE"><line class="cls-13" x1="242.28" y1="196.06" x2="242.28" y2="209.12"/></g><g id="LINE-63" data-name="LINE"><line class="cls-13" x1="244.7" y1="196.06" x2="244.7" y2="209.12"/></g><g id="LINE-64" data-name="LINE"><line class="cls-13" x1="247.12" y1="196.06" x2="247.12" y2="209.12"/></g><g id="LINE-65" data-name="LINE"><line class="cls-13" x1="249.54" y1="196.06" x2="249.54" y2="209.12"/></g><g id="LINE-66" data-name="LINE"><line class="cls-13" x1="251.96" y1="196.06" x2="251.96" y2="209.12"/></g><g id="LINE-67" data-name="LINE"><line class="cls-13" x1="254.38" y1="209.12" x2="254.38" y2="196.06"/></g><g id="LINE-68" data-name="LINE"><line class="cls-13" x1="93.44" y1="292.16" x2="93.44" y2="305.21"/></g><g id="LINE-69" data-name="LINE"><line class="cls-13" x1="95.86" y1="292.16" x2="95.86" y2="305.21"/></g><g id="LINE-70" data-name="LINE"><line class="cls-13" x1="98.28" y1="292.16" x2="98.28" y2="305.21"/></g><g id="LINE-71" data-name="LINE"><line class="cls-13" x1="100.7" y1="292.16" x2="100.7" y2="305.21"/></g><g id="LINE-72" data-name="LINE"><line class="cls-13" x1="103.12" y1="292.16" x2="103.12" y2="305.21"/></g><g id="LINE-73" data-name="LINE"><line class="cls-13" x1="105.54" y1="305.21" x2="105.54" y2="292.16"/></g><g id="LINE-74" data-name="LINE"><line class="cls-13" x1="185.8" y1="52.54" x2="172.74" y2="52.54"/></g><g id="LINE-75" data-name="LINE"><line class="cls-13" x1="185.8" y1="54.96" x2="172.74" y2="54.96"/></g><g id="LINE-76" data-name="LINE"><line class="cls-13" x1="185.8" y1="57.38" x2="172.74" y2="57.38"/></g><g id="LINE-77" data-name="LINE"><line class="cls-13" x1="185.8" y1="59.8" x2="172.74" y2="59.8"/></g><g id="LINE-78" data-name="LINE"><line class="cls-13" x1="185.8" y1="62.22" x2="172.74" y2="62.22"/></g><g id="LINE-79" data-name="LINE"><line class="cls-13" x1="172.74" y1="64.64" x2="185.8" y2="64.64"/></g><g id="ARC-47" data-name="ARC"><path class="cls-20" d="M252.84,47.15c.35-3.16,1-11.53,1-11.53"/></g><g id="ARC-48" data-name="ARC"><path class="cls-20" d="M241.57,39.81a.84.84,0,0,0-.77.52c-.15.35-.28.7-.4,1.05a14.84,14.84,0,0,0-.64,2.94c-.06.53-.11,1.06-.13,1.59a15.38,15.38,0,0,0,.34,4.17A10.13,10.13,0,0,0,243,55.39a4.82,4.82,0,0,0,6.54-.06,10.12,10.12,0,0,0,3-5.38,15.3,15.3,0,0,0,.27-4.16c0-.54-.1-1.07-.17-1.59a14.05,14.05,0,0,0-.7-2.93c-.12-.35-.26-.7-.41-1.05a.86.86,0,0,0-.78-.5Z"/></g><g id="ARC-49" data-name="ARC"><path class="cls-20" d="M239.62,47.28c-.42-3.16-1-11.66-1-11.66"/></g><g id="ARC-50" data-name="ARC"><path class="cls-20" d="M253.84,35.76a1.08,1.08,0,0,1-1,1,54.82,54.82,0,0,1-6.65.4,54.86,54.86,0,0,1-6.66-.4,1.08,1.08,0,0,1-1-1v0c-.06-1.14-.1-2.28-.13-3.42a1.47,1.47,0,0,1,1.34-1.49q3.19-.29,6.41-.28c2.13,0,4.27.09,6.4.28A1.47,1.47,0,0,1,254,32.36c0,1.14-.07,2.28-.13,3.42Z"/></g><g id="LWPOLYLINE-160" data-name="LWPOLYLINE"><path class="cls-21" d="M284.36,37.06h-8.31a.93.93,0,0,0-.93.93V49.08a.92.92,0,0,0,.93.92H293.6a.93.93,0,0,0,.93-.92V38a.93.93,0,0,0-.93-.93h-9.24Z"/></g><g id="ARC-51" data-name="ARC"><path class="cls-20" d="M285.29,34.76a1.16,1.16,0,0,0-.47-2.23,1.14,1.14,0,0,0-1.06.7,1.16,1.16,0,0,0,.6,1.53Z"/></g><g id="ARC-52" data-name="ARC"><path class="cls-20" d="M290.63,33.46a1.17,1.17,0,1,0,0,.46Z"/></g><g id="ARC-53" data-name="ARC"><path class="cls-20" d="M279,33.46a1.17,1.17,0,1,1,0,.46Z"/></g><g id="LINE-80" data-name="LINE"><path class="cls-20" d="M285.29,39.28V33.69a.47.47,0,0,0-.93,0v5.59a.47.47,0,1,0,.93,0Z"/></g><line class="cls-20" x1="289.47" y1="33.69" x2="292.75" y2="33.69"/><line class="cls-20" x1="276.9" y1="33.69" x2="280.18" y2="33.69"/><g id="LWPOLYLINE-161" data-name="LWPOLYLINE"><path class="cls-21" d="M312.07,37.06h-8.31a.93.93,0,0,0-.93.93V49.08a.92.92,0,0,0,.93.92h17.55a.92.92,0,0,0,.93-.92V38a.93.93,0,0,0-.93-.93h-9.24Z"/></g><g id="LWPOLYLINE-162" data-name="LWPOLYLINE"><rect class="cls-21" x="262.86" y="30.59" width="66.54" height="22.18"/></g><g id="ARC-54" data-name="ARC"><path class="cls-20" d="M313.23,34.76a1.16,1.16,0,0,0-.46-2.23,1.15,1.15,0,0,0-1.07.7,1.16,1.16,0,0,0,.6,1.53Z"/></g><g id="ARC-55" data-name="ARC"><path class="cls-20" d="M318.57,33.46a1.17,1.17,0,1,0,0,.46Z"/></g><g id="ARC-56" data-name="ARC"><path class="cls-20" d="M307,33.46a1.18,1.18,0,0,1,1.15-.93,1.17,1.17,0,0,1,0,2.33,1.18,1.18,0,0,1-1.15-.94Z"/></g><g id="LINE-81" data-name="LINE"><path class="cls-20" d="M313.23,39.28V33.69a.47.47,0,0,0-.93,0v5.59a.47.47,0,1,0,.93,0Z"/></g><line class="cls-20" x1="317.41" y1="33.69" x2="320.69" y2="33.69"/><line class="cls-20" x1="304.84" y1="33.69" x2="308.12" y2="33.69"/><g id="LWPOLYLINE-163" data-name="LWPOLYLINE"><rect class="cls-20" x="94.13" y="173.53" width="20.39" height="26.55"/></g><g id="LWPOLYLINE-164" data-name="LWPOLYLINE"><path class="cls-20" d="M98.12,194.87A1.14,1.14,0,0,1,97,193.73V179.88a1.13,1.13,0,0,1,1.14-1.13h10.24a1,1,0,0,1,1,.94v14.23a1,1,0,0,1-1,1Z"/></g><g id="ARC-57" data-name="ARC"><path class="cls-20" d="M97.53,210.36c3.25-.36,11.84-1,11.84-1"/></g><g id="ARC-58" data-name="ARC"><path class="cls-20" d="M105.06,221.93a.85.85,0,0,1-.53.79c-.35.15-.72.28-1.08.41a15.56,15.56,0,0,1-3,.66c-.55.06-1.09.1-1.64.13a15.72,15.72,0,0,1-4.27-.35,10.34,10.34,0,0,1-5.45-3.15,5,5,0,0,1-1.29-3.37,5.11,5.11,0,0,1,1.35-3.34,10.42,10.42,0,0,1,5.51-3,16.18,16.18,0,0,1,4.28-.27c.55,0,1.09.09,1.63.17a14.72,14.72,0,0,1,3,.71c.37.13.72.28,1.08.43a.88.88,0,0,1,.52.8Z"/></g><g id="ARC-59" data-name="ARC"><path class="cls-20" d="M97.4,223.93c3.24.43,12,1,12,1"/></g><g id="ARC-60" data-name="ARC"><path class="cls-20" d="M109.22,209.33a1.14,1.14,0,0,0-1.07,1,57,57,0,0,0,0,13.65,1.14,1.14,0,0,0,1.07,1h0c1.18.05,2.35.1,3.52.13a1.52,1.52,0,0,0,1.53-1.38c.19-2.18.28-4.38.28-6.57s-.09-4.38-.28-6.57a1.5,1.5,0,0,0-1.53-1.37l-3.52.12Z"/></g><g id="ARC-61" data-name="ARC"><path class="cls-20" d="M110.72,186.33a1.19,1.19,0,1,1,0,.95Z"/></g><g id="ARC-62" data-name="ARC"><path class="cls-20" d="M112.05,180.85a1.2,1.2,0,1,1-.47,0Z"/></g><g id="ARC-63" data-name="ARC"><path class="cls-20" d="M112.05,192.76a1.2,1.2,0,1,0-.47,0Z"/></g><g id="LINE-82" data-name="LINE"><path class="cls-20" d="M106.08,186.33h5.74a.48.48,0,0,1,0,.95h-5.74a.48.48,0,1,1,0-.95Z"/></g><line class="cls-20" x1="111.82" y1="182.04" x2="111.82" y2="178.68"/><line class="cls-20" x1="111.82" y1="194.93" x2="111.82" y2="191.58"/><g id="LWPOLYLINE-165" data-name="LWPOLYLINE"><rect class="cls-20" x="24.39" y="293.42" width="25.38" height="18.6"/></g><g id="LWPOLYLINE-166" data-name="LWPOLYLINE"><path class="cls-20" d="M44.78,297.05a1.07,1.07,0,0,0-1.09-1H30.46a1.07,1.07,0,0,0-1.09,1v9.34a.89.89,0,0,0,.91.87H43.87a.89.89,0,0,0,.91-.87Z"/></g><g id="ARC-64" data-name="ARC"><path class="cls-20" d="M59.59,296.51c-.34,3-1,10.8-1,10.8"/></g><g id="ARC-65" data-name="ARC"><path class="cls-20" d="M70.65,303.39a.82.82,0,0,0,.76-.49c.14-.32.27-.65.38-1a13.19,13.19,0,0,0,.63-2.75c.06-.5.11-1,.13-1.49a13.83,13.83,0,0,0-.33-3.9,9.45,9.45,0,0,0-3-5,4.85,4.85,0,0,0-6.41.06,9.26,9.26,0,0,0-2.91,5,13.88,13.88,0,0,0-.26,3.91c0,.49.09,1,.16,1.48a13.56,13.56,0,0,0,.68,2.74c.13.33.26.66.41,1a.83.83,0,0,0,.77.47Z"/></g><g id="ARC-66" data-name="ARC"><path class="cls-20" d="M72.57,296.4c.4,3,1,10.91,1,10.91"/></g><g id="ARC-67" data-name="ARC"><path class="cls-20" d="M58.61,307.18a1,1,0,0,1,1-1,56.21,56.21,0,0,1,13,0,1.06,1.06,0,0,1,1,1v0c.06,1.07.1,2.13.13,3.2a1.4,1.4,0,0,1-1.32,1.4q-3.14.25-6.28.26c-2.09,0-4.19-.09-6.28-.26a1.39,1.39,0,0,1-1.31-1.4c0-1.07.07-2.13.12-3.2Z"/></g><g id="ARC-68" data-name="ARC"><path class="cls-20" d="M36.62,308.55a1.09,1.09,0,0,0-.69,1,1.12,1.12,0,0,0,1.15,1.09,1.14,1.14,0,0,0,1-.66,1.06,1.06,0,0,0-.59-1.43Z"/></g><g id="ARC-69" data-name="ARC"><path class="cls-20" d="M31.39,309.77a1.09,1.09,0,1,0,0-.44Z"/></g><g id="ARC-70" data-name="ARC"><path class="cls-20" d="M42.77,309.77a1.14,1.14,0,0,1-1.12.87,1.09,1.09,0,1,1,1.12-1.31Z"/></g><g id="LINE-83" data-name="LINE"><path class="cls-20" d="M36.62,304.31v5.24a.46.46,0,0,0,.91,0v-5.24a.46.46,0,0,0-.91,0Z"/></g><line class="cls-20" x1="32.52" y1="309.55" x2="29.31" y2="309.55"/><line class="cls-20" x1="44.85" y1="309.55" x2="41.63" y2="309.55"/><g id="LWPOLYLINE-167" data-name="LWPOLYLINE"><polygon class="cls-22" points="0.2 240.67 0.2 244.42 11.45 244.42 11.45 246.29 17.07 246.29 17.07 240.67 82.7 240.67 82.7 244.08 89.5 244.08 89.5 240.67 149.26 240.67 149.26 244.54 152.78 244.54 152.78 217.36 171.77 217.36 171.77 213.84 168.02 213.84 168.02 208.45 164.51 208.45 164.51 213.84 130.76 213.84 130.76 167.9 164.51 167.9 164.51 174.7 168.02 174.7 168.02 160.99 164.51 160.99 164.51 164.39 85.95 164.39 85.95 167.9 114.58 167.9 114.58 230.72 17.07 230.72 17.07 219.52 11.45 219.52 11.45 221.39 0.2 221.39 0.2 225.14 2.08 225.14 2.08 240.67 0.2 240.67"/></g><g id="LWPOLYLINE-168" data-name="LWPOLYLINE"><polygon class="cls-22" points="0.2 178.27 0.2 182.02 11.45 182.02 11.45 183.89 17.07 183.89 17.07 172.59 48.57 172.59 48.57 167.9 52.2 167.9 52.2 164.39 38.76 164.39 38.76 145.05 11.45 145.05 11.45 147.87 0.2 147.87 0.2 151.61 2.08 151.61 2.08 178.27 0.2 178.27"/></g><g id="LWPOLYLINE-169" data-name="LWPOLYLINE"><polygon class="cls-22" points="0.2 57.86 11.45 57.86 11.45 58.79 17.07 58.79 17.07 27.97 164.51 27.97 164.51 56.98 168.02 56.98 168.02 48.6 190.52 48.6 190.52 100.16 168.02 100.16 168.02 90.73 164.51 90.73 164.51 127.24 168.02 127.24 168.02 103.68 209.27 103.68 209.27 107.43 215.01 107.43 215.01 103.68 298.1 103.68 298.1 100.16 194.04 100.16 194.04 30.79 229.66 30.79 229.66 64.54 233.18 64.54 233.18 30.79 370.29 30.79 370.29 100.16 331.85 100.16 331.85 103.68 370.29 103.68 370.29 107.43 373.8 107.43 373.8 22.82 520.05 22.82 520.05 33.95 553.33 33.95 553.33 0.2 273.96 0.2 273.96 5.36 2.08 5.36 2.08 54.11 0.2 54.11 0.2 57.86"/></g><g id="LWPOLYLINE-170" data-name="LWPOLYLINE"><path class="cls-22" d="M191.68,315.55v5.74h13.95v62.35H334V395.3H575.83V372.39H536.46v-.71H508.22v20.75H371.34V350.82H332.9v23.44H215.72V263.87h23.43V259.3H215.72v-4.44h-4.57v60.69H191.68Z"/></g><g id="LWPOLYLINE-171" data-name="LWPOLYLINE"><polygon class="cls-22" points="205.52 213.84 205.52 217.36 211.15 217.36 211.15 221.11 215.72 221.11 215.72 217.36 371.34 217.36 371.34 191.45 508.22 191.45 508.22 214.07 536.46 214.07 536.46 211.14 553.33 211.14 553.33 208.32 551.46 208.11 549.63 207.46 548.07 206.48 546.74 205.15 545.73 203.55 545.11 201.76 544.9 199.89 545.11 198.01 545.73 196.23 546.74 194.63 548.07 193.29 549.67 192.28 551.46 191.66 553.33 191.45 553.33 188.64 536.46 188.64 536.46 185.71 373.8 185.71 373.8 141.18 370.29 141.18 370.29 144.93 337.36 144.93 337.36 148.44 340.99 148.44 340.99 170.94 299.97 170.94 299.97 148.44 303.61 148.44 303.61 144.93 275.83 144.93 275.83 148.44 296.46 148.44 296.46 213.84 238.33 213.84 238.33 148.44 242.08 148.44 242.08 144.93 215.01 144.93 215.01 141.18 209.27 141.18 209.27 213.84 209.11 213.84 205.52 213.84"/></g><g id="LWPOLYLINE-172" data-name="LWPOLYLINE"><polygon class="cls-22" points="530.83 303.01 553.33 303.01 553.33 300.2 551.46 299.99 549.67 299.36 548.07 298.36 546.74 297.02 545.73 295.42 545.11 293.64 544.9 291.76 545.11 289.88 545.73 288.1 546.74 286.5 548.07 285.17 549.67 284.16 551.46 283.54 553.33 283.32 553.33 280.51 530.83 280.51 530.83 303.01"/></g><g id="LWPOLYLINE-173" data-name="LWPOLYLINE"><polygon class="cls-22" points="530.83 100.04 530.83 122.54 553.33 122.54 553.33 119.73 551.46 119.52 549.67 118.9 548.07 117.89 546.74 116.55 545.73 114.95 545.11 113.17 544.9 111.29 545.11 109.42 545.73 107.63 546.74 106.03 548.07 104.7 549.67 103.69 551.46 103.07 553.33 102.86 553.33 100.04 535.62 100.04 530.83 100.04"/></g><g id="LWPOLYLINE-174" data-name="LWPOLYLINE"><polygon class="cls-22" points="0.2 283.79 0.2 287.54 2.08 287.54 2.08 319.07 80.72 319.07 144.12 319.07 144.12 326.92 146.46 326.92 155 326.92 155 321.29 157.93 321.29 157.93 315.55 152.78 315.55 152.78 278.3 149.26 278.3 149.26 283.92 141.88 283.92 141.88 287.44 145.98 287.44 145.98 309.94 89.5 309.94 89.5 287.44 96.88 287.44 96.88 283.92 89.5 283.92 89.5 278.65 87.15 278.65 87.15 314.74 85.04 314.74 85.04 278.65 82.7 278.65 82.7 311.92 17.07 311.92 17.07 281.92 11.45 281.92 11.45 283.79 10.88 283.79 0.2 283.79"/></g><path class="cls-23" d="M432.92,110.78h.88l1.82,4.45h0l1.82-4.45h.88v5.6h-.66v-4.54h0l-1.89,4.54h-.28l-1.88-4.54h0v4.54h-.66Z"/><path class="cls-23" d="M443.27,115.25h-2.52l-.39,1.13h-.68l2-5.6h.64l2,5.6h-.68Zm-.2-.57-1.05-3h0l-1,3Z"/><path class="cls-23" d="M445.23,114.52l.65-.11a1.47,1.47,0,0,0,1.66,1.47c.77,0,1.28-.36,1.28-.91s-.37-.88-1.54-1.25c-1.33-.44-1.78-.83-1.78-1.58s.73-1.48,1.79-1.48a2,2,0,0,1,2,1.63l-.65.14a1.34,1.34,0,0,0-1.39-1.14c-.68,0-1.13.33-1.13.85s.32.66,1.35,1c1.45.48,2,1,2,1.84s-.79,1.54-2,1.54A2.05,2.05,0,0,1,445.23,114.52Z"/><path class="cls-23" d="M452.26,111.41h-1.74v-.63h4.15v.63h-1.74v5h-.67Z"/><path class="cls-23" d="M456.14,110.78h3.36v.63h-2.7v1.79h2.48v.59H456.8v2h2.7v.62h-3.36Z"/><path class="cls-23" d="M463.6,114.08l1.23,2.3h-.78l-1.18-2.27h-1.12v2.27h-.66v-5.6h2c1.17,0,1.87.63,1.87,1.66a1.54,1.54,0,0,1-1.4,1.62Zm-.52-.6c.82,0,1.25-.36,1.25-1s-.42-1-1.25-1h-1.33v2.07Z"/><path class="cls-23" d="M430.41,119.28h2.15a1.46,1.46,0,0,1,1.63,1.45,1.2,1.2,0,0,1-.65,1.15v0a1.34,1.34,0,0,1,.86,1.32c0,1.08-.68,1.66-2,1.66h-2Zm2,2.38c.73,0,1.09-.3,1.09-.9s-.37-.85-1.09-.85h-1.38v1.75Zm-.1,2.6c1,0,1.39-.32,1.39-1s-.39-1-1.37-1h-1.3v2Z"/><path class="cls-23" d="M436,119.28h3.36v.63h-2.7v1.79h2.48v.59h-2.48v2h2.7v.62H436Z"/><path class="cls-23" d="M441,119.28h1.75c1.41,0,2.41,1,2.41,2.79,0,2-1,2.81-2.46,2.81H441Zm1.66,5c1.13,0,1.84-.6,1.84-2.19,0-1.43-.71-2.16-1.79-2.16h-1.05v4.35Z"/><path class="cls-23" d="M449.27,122.58l1.24,2.3h-.78l-1.18-2.27h-1.12v2.27h-.66v-5.6h2c1.17,0,1.86.63,1.86,1.66a1.54,1.54,0,0,1-1.4,1.62Zm-.52-.6c.83,0,1.26-.36,1.26-1s-.42-1-1.26-1h-1.32V122Z"/><path class="cls-23" d="M451.94,122.08c0-1.75.94-2.92,2.36-2.92s2.35,1.17,2.35,2.92-.94,2.92-2.35,2.92S451.94,123.83,451.94,122.08Zm4.05,0c0-1.41-.65-2.29-1.69-2.29s-1.7.88-1.7,2.29.65,2.3,1.7,2.3S456,123.5,456,122.08Z"/><path class="cls-23" d="M458,122.08c0-1.75.94-2.92,2.36-2.92s2.35,1.17,2.35,2.92-.94,2.92-2.35,2.92S458,123.83,458,122.08Zm4.05,0c0-1.41-.65-2.29-1.69-2.29s-1.7.88-1.7,2.29.65,2.3,1.7,2.3S462.05,123.5,462.05,122.08Z"/><path class="cls-23" d="M464.35,119.28h.87l1.82,4.45h0l1.81-4.45h.88v5.6h-.66v-4.54h0l-1.89,4.54h-.28L465,120.34h0v4.54h-.65Z"/><path class="cls-23" d="M425,128.53l-1.25.81v-.69l1.33-.87h.58v5.6H425Z"/><path class="cls-23" d="M429.89,132.24h-2.8v-.58l2.46-3.88h1v3.87h.71v.59h-.71v1.14h-.66Zm0-.59V128.3h0l-2.12,3.35Z"/><path class="cls-23" d="M432.62,127.78h.58v1.79h-.58Z"/><path class="cls-23" d="M434.34,130.19h2.09v.6h-2.09Z"/><path class="cls-23" d="M437.7,131.9l.65-.16a1.41,1.41,0,1,0,1.43-1.58,1.79,1.79,0,0,0-1.35.59l-.59-.15.54-2.82h2.93v.63h-2.43l-.3,1.55h0a2.11,2.11,0,0,1,1.29-.39,1.88,1.88,0,0,1,1.94,1.93,1.92,1.92,0,0,1-2,2A2,2,0,0,1,437.7,131.9Z"/><path class="cls-23" d="M443.08,127.78h.58v1.79h-.58Zm1.05,0h.59v1.79h-.59Z"/><path class="cls-23" d="M448.41,131.94l1.32-1.3-1.32-1.29.4-.39,1.28,1.31,1.3-1.31.39.39-1.31,1.29,1.31,1.3-.39.39-1.3-1.31-1.28,1.31Z"/><path class="cls-23" d="M456,128.53l-1.25.81v-.69l1.33-.87h.58v5.6H456Z"/><path class="cls-23" d="M460.84,132.24H458v-.58l2.46-3.88h1v3.87h.71v.59h-.71v1.14h-.66Zm0-.59V128.3h0l-2.12,3.35Z"/><path class="cls-23" d="M463.57,127.78h.58v1.79h-.58Z"/><path class="cls-23" d="M465.57,130.19h2.09v.6h-2.09Z"/><path class="cls-23" d="M468.93,131.9l.65-.16a1.41,1.41,0,1,0,1.43-1.58,1.79,1.79,0,0,0-1.35.59l-.59-.15.54-2.82h2.93v.63h-2.43l-.3,1.55h0a2.08,2.08,0,0,1,1.29-.39,1.88,1.88,0,0,1,1.94,1.93,1.92,1.92,0,0,1-2,2A2,2,0,0,1,468.93,131.9Z"/><path class="cls-23" d="M474.31,127.78h.58v1.79h-.58Zm1.05,0H476v1.79h-.59Z"/><path class="cls-23" d="M63.3,119.29h2.15a1.46,1.46,0,0,1,1.63,1.45,1.2,1.2,0,0,1-.65,1.15v0a1.34,1.34,0,0,1,.86,1.32c0,1.08-.68,1.66-2,1.66h-2Zm2,2.38c.73,0,1.09-.3,1.09-.9s-.37-.86-1.09-.86H64v1.76Zm-.1,2.59c1,0,1.4-.31,1.4-1s-.4-1-1.38-1H64v2Z"/><path class="cls-23" d="M68.92,119.29h3.36v.62h-2.7v1.8h2.48v.59H69.58v2h2.7v.63H68.92Z"/><path class="cls-23" d="M73.87,119.29h1.75c1.41,0,2.41,1,2.41,2.79,0,2-1,2.81-2.46,2.81h-1.7Zm1.66,5c1.13,0,1.84-.6,1.84-2.18,0-1.43-.71-2.17-1.79-2.17h-1v4.35Z"/><path class="cls-23" d="M82.16,122.59l1.24,2.3h-.78l-1.18-2.27H80.32v2.27h-.66v-5.6h2c1.17,0,1.86.62,1.86,1.66a1.54,1.54,0,0,1-1.4,1.62Zm-.52-.6c.83,0,1.26-.36,1.26-1s-.42-1-1.26-1H80.32V122Z"/><path class="cls-23" d="M84.83,122.09c0-1.75.94-2.92,2.36-2.92s2.35,1.17,2.35,2.92S88.6,125,87.19,125,84.83,123.84,84.83,122.09Zm4,0c0-1.42-.65-2.3-1.69-2.3s-1.7.88-1.7,2.3.65,2.29,1.7,2.29S88.88,123.5,88.88,122.09Z"/><path class="cls-23" d="M90.89,122.09c0-1.75.94-2.92,2.36-2.92s2.36,1.17,2.36,2.92-1,2.92-2.36,2.92S90.89,123.84,90.89,122.09Zm4,0c0-1.42-.65-2.3-1.69-2.3s-1.7.88-1.7,2.3.65,2.29,1.7,2.29S94.94,123.5,94.94,122.09Z"/><path class="cls-23" d="M97.24,119.29h.87l1.82,4.45h0l1.81-4.45h.88v5.6H102v-4.54h0l-1.89,4.54h-.28l-1.88-4.54h0v4.54h-.65Z"/><path class="cls-23" d="M107.67,124.26h3v.63H107v-.53a2,2,0,0,1,.23-1.06c.2-.37.55-.64,1.43-1.1,1.16-.6,1.49-.93,1.49-1.49s-.49-.92-1.17-.92a1.31,1.31,0,0,0-1.4,1.36l-.66-.05a1.93,1.93,0,0,1,2.06-1.93,1.68,1.68,0,0,1,1.84,1.54c0,.82-.42,1.31-1.65,1.93-.94.47-1.19.66-1.34.94A1.56,1.56,0,0,0,107.67,124.26Z"/><path class="cls-23" d="M62.93,128.54l-1.25.81v-.7l1.33-.86h.58v5.6h-.66Z"/><path class="cls-23" d="M66.06,132.76h3v.63H65.35v-.53a2,2,0,0,1,.23-1.06c.2-.37.55-.64,1.43-1.1,1.16-.6,1.49-.93,1.49-1.49s-.49-.92-1.16-.92a1.3,1.3,0,0,0-1.4,1.36l-.67-.05a1.93,1.93,0,0,1,2.07-1.93,1.68,1.68,0,0,1,1.83,1.54c0,.82-.42,1.31-1.65,1.93-.94.47-1.19.66-1.34.94A1.45,1.45,0,0,0,66.06,132.76Z"/><path class="cls-23" d="M70.89,127.79h.59v1.78h-.59Z"/><path class="cls-23" d="M72.61,130.2H74.7v.6H72.61Z"/><path class="cls-23" d="M77,128.54l-1.24.81v-.7l1.32-.86h.59v5.6H77Z"/><path class="cls-23" d="M79.59,127.79h.58v1.78h-.58Zm1.06,0h.58v1.78h-.58Z"/><path class="cls-23" d="M84.93,132l1.31-1.3-1.31-1.29.39-.39,1.28,1.31L87.9,129l.39.39L87,130.65l1.31,1.3-.39.39L86.6,131l-1.28,1.31Z"/><path class="cls-23" d="M92.47,128.54l-1.25.81v-.7l1.33-.86h.58v5.6h-.66Z"/><path class="cls-23" d="M94.72,131.53l.66-.11c.11,1,.58,1.46,1.41,1.46A1.07,1.07,0,0,0,98,131.8c0-.75-.43-1.11-1.31-1.11h-.4v-.58h.4c.66,0,1.17-.4,1.17-.9s-.4-.93-1.06-.93a1.19,1.19,0,0,0-1.27,1.05l-.64-.09a1.8,1.8,0,0,1,1.91-1.57,1.54,1.54,0,0,1,1.73,1.49,1.35,1.35,0,0,1-.76,1.17v0a1.49,1.49,0,0,1,.89,1.45,1.69,1.69,0,0,1-1.85,1.71A2,2,0,0,1,94.72,131.53Z"/><path class="cls-23" d="M100.3,127.79h.58v1.78h-.58Z"/><path class="cls-23" d="M102.3,130.2h2.08v.6H102.3Z"/><path class="cls-23" d="M107.69,128.43v0h-2.91v-.62h3.66v.58l-2.27,5h-.74Z"/><path class="cls-23" d="M110.07,127.79h.58v1.78h-.58Zm1.05,0h.59v1.78h-.59Z"/><path class="cls-23" d="M374.91,258.27h.65v5h2.53v.62h-3.18Z"/><path class="cls-23" d="M379.56,258.27h.66v5.6h-.66Z"/><path class="cls-23" d="M381.55,258.27h.7l1.66,4.72h0l1.67-4.72h.69l-2,5.6h-.7Z"/><path class="cls-23" d="M387.63,258.27h.66v5.6h-.66Z"/><path class="cls-23" d="M390.2,258.27H391l2.54,4.57h0v-4.57h.66v5.6h-.78l-2.55-4.56h0v4.56h-.66Z"/><path class="cls-23" d="M395.83,261.07c0-1.77.93-2.91,2.36-2.91a2.07,2.07,0,0,1,2.13,1.84l-.66.12a1.43,1.43,0,0,0-1.47-1.34c-1.05,0-1.7.88-1.7,2.29s.65,2.3,1.7,2.3a1.42,1.42,0,0,0,1.49-1.64h-1.42v-.62h2.07v.56a2.08,2.08,0,0,1-2.14,2.32C396.76,264,395.83,262.85,395.83,261.07Z"/><path class="cls-23" d="M403.94,264l2.86-6,.44.2-2.86,6Z"/><path class="cls-23" d="M411.18,258.27h1.74c1.42,0,2.42,1,2.42,2.8,0,2-1,2.8-2.46,2.8h-1.7Zm1.66,5c1.13,0,1.84-.6,1.84-2.18s-.71-2.17-1.8-2.17h-1v4.35Z"/><path class="cls-23" d="M417,258.27h.65v5.6H417Z"/><path class="cls-23" d="M419.55,258.27h.77l2.55,4.57h0v-4.57h.67v5.6h-.79l-2.54-4.56h0v4.56h-.65Z"/><path class="cls-23" d="M425.47,258.27h.66v5.6h-.66Z"/><path class="cls-23" d="M428,258.27h.77l2.54,4.57h0v-4.57H432v5.6h-.78l-2.54-4.56h0v4.56H428Z"/><path class="cls-23" d="M433.66,261.07c0-1.77.93-2.91,2.36-2.91a2.07,2.07,0,0,1,2.13,1.84l-.66.12a1.43,1.43,0,0,0-1.47-1.34c-1,0-1.69.88-1.69,2.29s.64,2.3,1.69,2.3a1.43,1.43,0,0,0,1.5-1.64h-1.43v-.62h2.08v.56A2.09,2.09,0,0,1,436,264C434.59,264,433.66,262.85,433.66,261.07Z"/><path class="cls-23" d="M444.84,261.57l1.23,2.3h-.77l-1.19-2.27H443v2.27h-.65v-5.6h2a1.63,1.63,0,0,1,1.86,1.66,1.54,1.54,0,0,1-1.4,1.62Zm-.52-.59c.82,0,1.25-.36,1.25-1.05s-.42-1-1.25-1H443V261Z"/><path class="cls-23" d="M447.5,261.07c0-1.75.94-2.91,2.36-2.91s2.36,1.16,2.36,2.91-.94,2.92-2.36,2.92S447.5,262.82,447.5,261.07Zm4.05,0c0-1.41-.64-2.29-1.69-2.29s-1.7.88-1.7,2.29.65,2.3,1.7,2.3S451.55,262.49,451.55,261.07Z"/><path class="cls-23" d="M453.56,261.07c0-1.75.95-2.91,2.36-2.91s2.36,1.16,2.36,2.91-.94,2.92-2.36,2.92S453.56,262.82,453.56,261.07Zm4.06,0c0-1.41-.65-2.29-1.7-2.29s-1.7.88-1.7,2.29.65,2.3,1.7,2.3S457.62,262.49,457.62,261.07Z"/><path class="cls-23" d="M459.91,258.27h.88l1.81,4.45h0l1.81-4.45h.88v5.6h-.66v-4.54h0l-1.88,4.54h-.28l-1.89-4.54h0v4.54h-.65Z"/><path class="cls-23" d="M393.16,267.53l-1.25.8v-.69l1.33-.87h.59v5.6h-.67Z"/><path class="cls-23" d="M398.18,267.41h-2.91v-.63h3.66v.58l-2.27,5h-.75Z"/><path class="cls-23" d="M400.56,266.77h.58v1.79h-.58Z"/><path class="cls-23" d="M402.28,269.18h2.08v.6h-2.08Z"/><path class="cls-23" d="M406.63,267.53l-1.25.8v-.69l1.33-.87h.58v5.6h-.66Z"/><path class="cls-23" d="M409,269.57c0-1.81.9-2.91,2.21-2.91s2.22,1.1,2.22,2.91-.91,2.92-2.22,2.92S409,271.39,409,269.57Zm3.76,0c0-1.46-.61-2.29-1.55-2.29s-1.55.83-1.55,2.29.62,2.3,1.55,2.3S412.71,271,412.71,269.57Z"/><path class="cls-23" d="M414.9,266.77h.58v1.79h-.58Zm1.06,0h.58v1.79H416Z"/><path class="cls-23" d="M420.24,270.93l1.31-1.29-1.31-1.3.39-.39,1.29,1.31,1.29-1.31.39.39-1.31,1.3,1.31,1.29-.39.39L421.92,270l-1.29,1.31Z"/><path class="cls-23" d="M427.78,267.53l-1.25.8v-.69l1.33-.87h.58v5.6h-.66Z"/><path class="cls-23" d="M432.8,267.41h-2.91v-.63h3.66v.58l-2.27,5h-.75Z"/><path class="cls-23" d="M435.17,266.77h.59v1.79h-.59Z"/><path class="cls-23" d="M437.17,269.18h2.09v.6h-2.09Z"/><path class="cls-23" d="M444.63,269.24c0,2.27-.6,3.25-2,3.25a1.77,1.77,0,0,1-1.79-1.42l.6-.16a1.18,1.18,0,0,0,1.19,1c.89,0,1.31-.56,1.36-2h0a1.73,1.73,0,0,1-1.44.63,1.8,1.8,0,0,1-2-1.92,1.88,1.88,0,0,1,2-1.89C443.8,266.66,444.63,267.52,444.63,269.24Zm-.76-.65a1.25,1.25,0,0,0-1.33-1.33,1.31,1.31,0,1,0,1.33,1.33Z"/><path class="cls-23" d="M446.22,266.77h.58v1.79h-.58Zm1,0h.59v1.79h-.59Z"/><path class="cls-23" d="M163.25,267.07h3.37v.62h-2.71v2h2.49v.59h-2.49v2.38h-.66Z"/><path class="cls-23" d="M168.17,269.86c0-1.75,1-2.91,2.36-2.91s2.36,1.16,2.36,2.91-.94,2.92-2.36,2.92S168.17,271.62,168.17,269.86Zm4.06,0c0-1.41-.65-2.29-1.7-2.29s-1.69.88-1.69,2.29.64,2.3,1.69,2.3S172.23,271.28,172.23,269.86Z"/><path class="cls-23" d="M175.88,270.33l-2-3.26h.77l1.51,2.61h0l1.52-2.61h.76l-2,3.26v2.33h-.66Z"/><path class="cls-23" d="M180.15,267.07h3.36v.62h-2.7v1.79h2.47v.59h-2.47v2h2.7v.62h-3.36Z"/><path class="cls-23" d="M187.92,270.36l1.23,2.3h-.77l-1.18-2.27h-1.12v2.27h-.66v-5.59h2c1.17,0,1.86.62,1.86,1.65a1.54,1.54,0,0,1-1.4,1.62Zm-.52-.59c.83,0,1.26-.36,1.26-1s-.42-1-1.26-1h-1.32v2.08Z"/><path class="cls-23" d="M139,188.63h.68l.82,4.55h0l1.38-4.55h.62l1.39,4.55h0l.82-4.55h.68l-1,5.6h-.8l-1.37-4.5h0l-1.36,4.5h-.81Z"/><path class="cls-23" d="M146.41,194.35l2.86-6,.44.2-2.86,6Z"/><path class="cls-23" d="M151.4,188.63h1.75c1.41,0,2.41,1,2.41,2.79,0,2-1,2.81-2.46,2.81h-1.7Zm1.66,5c1.14,0,1.84-.6,1.84-2.18,0-1.43-.7-2.17-1.79-2.17h-1.05v4.35Z"/><path class="cls-23" d="M228,303.49l1.23,2.3h-.78l-1.18-2.27h-1.12v2.27h-.66v-5.6h2c1.17,0,1.87.63,1.87,1.66a1.54,1.54,0,0,1-1.4,1.62Zm-.52-.59c.82,0,1.25-.36,1.25-1s-.42-1-1.25-1h-1.33v2.08Z"/><path class="cls-23" d="M281.29,295.93H283c1.42,0,2.42,1,2.42,2.79,0,2-1,2.81-2.47,2.81h-1.69Zm1.65,5c1.14,0,1.84-.6,1.84-2.19,0-1.43-.7-2.16-1.79-2.16h-1.05v4.35Z"/><path class="cls-23" d="M286.21,295.93h.68l.83,4.55h0l1.39-4.55h.62l1.39,4.55h0l.82-4.55h.68l-1,5.6h-.8L289.44,297h0l-1.37,4.49h-.8Z"/><path class="cls-23" d="M614.42,189.06h-1.74v-.62h4.15v.62h-1.75v5h-.66Z"/><path class="cls-23" d="M618.3,188.44h3.36v.62H619v1.79h2.48v.59H619v2h2.71V194H618.3Z"/><path class="cls-23" d="M625.75,191.73,627,194h-.77L625,191.76H623.9V194h-.65v-5.59h2c1.17,0,1.86.62,1.86,1.65a1.55,1.55,0,0,1-1.4,1.63Zm-.52-.59c.83,0,1.26-.36,1.26-1s-.43-1-1.26-1H623.9v2.08Z"/><path class="cls-23" d="M631.2,191.73l1.23,2.3h-.78l-1.18-2.27h-1.12V194h-.65v-5.59h2c1.17,0,1.87.62,1.87,1.65a1.55,1.55,0,0,1-1.4,1.63Zm-.52-.59c.82,0,1.25-.36,1.25-1s-.42-1-1.25-1h-1.33v2.08Z"/><path class="cls-23" d="M637.24,192.91h-2.52l-.39,1.12h-.68l2-5.59h.64l2,5.59h-.68Zm-.2-.58-1-3h0l-1.05,3Z"/><path class="cls-23" d="M639.16,191.24c0-1.75,1-2.92,2.36-2.92a2.1,2.1,0,0,1,2.14,2l-.65.11c-.16-.93-.67-1.44-1.49-1.44-1,0-1.69.88-1.69,2.3s.63,2.29,1.69,2.29c.86,0,1.38-.54,1.48-1.57l.68.09a2.07,2.07,0,0,1-2.16,2.1C640.09,194.15,639.16,193,639.16,191.24Z"/><path class="cls-23" d="M645.25,188.44h3.36v.62h-2.7v1.79h2.48v.59h-2.48v2h2.7V194h-3.36Z"/><path class="cls-23" d="M604,200.67l.65-.1c.11,1,.59,1.46,1.41,1.46a1.07,1.07,0,0,0,1.2-1.08c0-.76-.43-1.12-1.32-1.12h-.4v-.57h.4a1.06,1.06,0,0,0,1.18-.91c0-.57-.41-.92-1.07-.92a1.18,1.18,0,0,0-1.26,1l-.65-.1a1.8,1.8,0,0,1,1.91-1.56,1.54,1.54,0,0,1,1.73,1.49,1.36,1.36,0,0,1-.76,1.17v0a1.47,1.47,0,0,1,.89,1.45,1.68,1.68,0,0,1-1.85,1.7A2,2,0,0,1,604,200.67Z"/><path class="cls-23" d="M609.31,200.67l.66-.1c.11,1,.58,1.46,1.41,1.46a1.07,1.07,0,0,0,1.2-1.08c0-.76-.43-1.12-1.32-1.12h-.4v-.57h.4a1.05,1.05,0,0,0,1.17-.91c0-.57-.4-.92-1.06-.92a1.17,1.17,0,0,0-1.26,1l-.65-.1a1.8,1.8,0,0,1,1.91-1.56,1.54,1.54,0,0,1,1.73,1.49,1.36,1.36,0,0,1-.76,1.17v0a1.47,1.47,0,0,1,.89,1.45,1.68,1.68,0,0,1-1.85,1.7A2,2,0,0,1,609.31,200.67Z"/><path class="cls-23" d="M614.89,196.94h.58v1.78h-.58Z"/><path class="cls-23" d="M616.61,199.34h2.09v.6h-2.09Z"/><path class="cls-23" d="M621,197.69l-1.25.81v-.7l1.33-.86h.59v5.59H621Z"/><path class="cls-23" d="M623.59,196.94h.58v1.78h-.58Zm1,0h.59v1.78h-.59Z"/><path class="cls-23" d="M628.92,201.1l1.31-1.3-1.31-1.29.4-.4,1.28,1.31,1.3-1.31.39.4L631,199.8l1.31,1.3-.39.39-1.3-1.31-1.28,1.31Z"/><path class="cls-23" d="M636.47,197.69l-1.25.81v-.7l1.33-.86h.58v5.59h-.66Z"/><path class="cls-23" d="M638.73,201.06l.65-.16a1.42,1.42,0,0,0,2.81-.24,1.3,1.3,0,0,0-1.38-1.35,1.79,1.79,0,0,0-1.35.59l-.59-.14.54-2.82h2.93v.62h-2.43l-.3,1.55h0a2.08,2.08,0,0,1,1.29-.38,1.87,1.87,0,0,1,1.94,1.92,1.92,1.92,0,0,1-2,2A2,2,0,0,1,638.73,201.06Z"/><path class="cls-23" d="M644.11,196.94h.58v1.78h-.58Z"/><path class="cls-23" d="M646.1,199.34h2.09v.6H646.1Z"/><path class="cls-23" d="M653.92,200.73a1.88,1.88,0,0,1-2,1.92c-1.46,0-2.29-1.09-2.29-2.83s1-3,2.32-3a1.82,1.82,0,0,1,1.87,1.49l-.63.16a1.18,1.18,0,0,0-1.23-1c-.92,0-1.6.87-1.65,2.22h0a2,2,0,0,1,3.59,1.08Zm-.65,0a1.28,1.28,0,0,0-1.35-1.35,1.33,1.33,0,0,0-1.4,1.35,1.31,1.31,0,0,0,1.41,1.32A1.27,1.27,0,0,0,653.27,200.73Z"/><path class="cls-23" d="M655.44,196.94H656v1.78h-.59Zm1.06,0h.58v1.78h-.58Z"/><polygon class="cls-23" points="170.85 340.85 176.25 326.45 181.65 340.85 170.85 340.85"/><path class="cls-23" d="M217.06,272.7h.68l.82,4.55h0L220,272.7h.62l1.4,4.55h0l.83-4.55h.67l-1,5.6h-.8l-1.38-4.5h0l-1.36,4.5h-.81Z"/><path class="cls-23" d="M223.83,278.42l2.86-6,.44.2-2.86,6Z"/><path class="cls-23" d="M227.68,276.44l.65-.11a1.46,1.46,0,0,0,1.66,1.46c.77,0,1.28-.36,1.28-.9s-.37-.88-1.54-1.25c-1.33-.44-1.78-.83-1.78-1.58s.73-1.48,1.79-1.48a2,2,0,0,1,2,1.63l-.65.13a1.34,1.34,0,0,0-1.39-1.14c-.68,0-1.13.34-1.13.86s.32.66,1.35,1c1.45.47,2,1,2,1.84s-.79,1.54-2,1.54A2.05,2.05,0,0,1,227.68,276.44Z"/><path class="cls-23" d="M232.89,275.5c0-1.75,1-2.92,2.36-2.92s2.36,1.17,2.36,2.92-.94,2.92-2.36,2.92S232.89,277.25,232.89,275.5Zm4.06,0c0-1.42-.65-2.3-1.7-2.3s-1.69.88-1.69,2.3.65,2.29,1.69,2.29S237,276.91,237,275.5Z"/></g></g></svg>